<svg xmlns="http://www.w3.org/2000/svg" width="576" height="576" class="svglite" viewBox="0 0 432 432"><defs><style>.svglite circle,.svglite line,.svglite polygon,.svglite polyline,.svglite rect{fill:none;stroke:#000;stroke-linecap:round;stroke-linejoin:round;stroke-miterlimit:10}.svglite text{white-space:pre}</style></defs><rect width="100%" height="100%" style="stroke:none;fill:#fff"/><defs><clipPath id="cpMC4wMHw0MzIuMDB8MC4wMHw0MzIuMDA="><path d="M0 0h432v432H0z"/></clipPath></defs><g clip-path="url(#cpMC4wMHw0MzIuMDB8MC4wMHw0MzIuMDA=)"><path d="M0 0h432v432H0z" style="stroke-width:1.07;stroke:none;fill:#fff"/></g><defs><clipPath id="cpMzIuNjN8NDAyLjExfDEyMS43OHwzOTkuMzc="><path d="M32.63 121.78h369.48v277.59H32.63z"/></clipPath></defs><g clip-path="url(#cpMzIuNjN8NDAyLjExfDEyMS43OHwzOTkuMzc=)"><path d="m133.39 323.67-.84.63-.85.64-.85.64-.85.63-.85.64-.84.64-.85.64-.85.63-.85.64-.85.64-.85.64-.84.63-.85.64-.85.64-.85.63-.85.64-.84.64-.85.64-.85.63-.85.64-.85.64-.85.64-.84.63-.85.64-.85.64-.85.63-.85.64-.85.64-.84.64-.85.63-.85.64-.85.64-.85.64-.84.63-.85.64-.85.64-.85.63-.85.64-.85.64-.84.64-.85.63-.85.64-.85.64-.85.64-.84.63-.85.64-.85.64-.85.63-.85.64-.85.64-.84.64-.85.63-.85.64-.85.64-.85.64-.84.63-.85.64-.85.64-.85.63-.85.64-.85.64-.84.64-.85.63-.85.64-.85.64-.85.64-.85.63-.84.64-.85.64-.85.63-.85.64-.85.64-.84.64-.85.63-.85.64-.85.64-.85.63-.85.64-.84.64-.85.64-.85.63-.85.64-.85.64-.84.64-.85.63-.85.64-.85.64-.85.63-.85.64-.84.64-.85.64-.85.63-.85.64-.85.64-.84.64-.85.63-.85.64-.85.64-.85.63M133.39 323.67l.85-.64.85-.64.85-.64.85-.63.85-.64.84-.64.85-.63.85-.64.85-.64.85-.64.84-.63.85-.64.85-.64.85-.64.85-.63.85-.64.84-.64.85-.63.85-.64.85-.64.85-.64.85-.63.84-.64.85-.64.85-.64.85-.63.85-.64.84-.64.85-.63.85-.64.85-.64.85-.64.85-.63.84-.64.85-.64.85-.64.85-.63.85-.64.84-.64.85-.63.85-.64.85-.64.85-.64.85-.63.84-.64.85-.64.85-.64.85-.63.85-.64.84-.64.85-.63.85-.64.85-.64.85-.64.85-.63.84-.64.85-.64.85-.64.85-.63.85-.64.85-.64.84-.63.85-.64.85-.64.85-.64.85-.63.84-.64.85-.64.85-.64.85-.63.85-.64.85-.64.84-.63.85-.64.85-.64.85-.64.85-.63.84-.64.85-.64.85-.63.85-.64.85-.64.85-.64.84-.63.85-.64.85-.64.85-.64.85-.63.85-.64.84-.64.85-.63.85-.64.85-.64.85-.64.84-.63.85-.64.85-.64.85-.64.85-.63M385.32 134.4l-.85.64-.85.64-.85.63-.85.64-.84.64-.85.64-.85.63-.85.64-.85.64-.85.63-.84.64-.85.64-.85.64-.85.63-.85.64-.84.64-.85.64-.85.63-.85.64-.85.64-.85.63-.84.64-.85.64-.85.64-.85.63-.85.64-.85.64-.84.63-.85.64-.85.64-.85.64-.85.63-.84.64-.85.64-.85.64-.85.63-.85.64-.85.64-.84.63-.85.64-.85.64-.85.64-.85.63-.85.64-.84.64-.85.64-.85.63-.85.64-.85.64-.84.63-.85.64-.85.64-.85.64-.85.63-.85.64-.84.64-.85.64-.85.63-.85.64-.85.64-.85.63-.84.64-.85.64-.85.64-.85.63-.85.64-.84.64-.85.63-.85.64-.85.64-.85.64-.85.63-.84.64-.85.64-.85.64-.85.63-.85.64-.85.64-.84.63-.85.64-.85.64-.85.64-.85.63-.84.64-.85.64-.85.64-.85.63-.85.64-.85.64-.84.63-.85.64-.85.64-.85.64-.85.63-.85.64-.84.64-.85.63-.85.64-.85.64M217.37 260.58l.85-.64.84-.64.85-.63.85-.64.85-.64.85-.64.84-.63.85-.64.85-.64.85-.64.85-.63.85-.64.84-.64.85-.63.85-.64.85-.64.85-.64.85-.63.84-.64.85-.64.85-.64.85-.63.85-.64.84-.64.85-.63.85-.64.85-.64.85-.64.85-.63.84-.64.85-.64.85-.63.85-.64.85-.64.85-.64.84-.63.85-.64.85-.64.85-.64.85-.63.84-.64.85-.64.85-.63.85-.64.85-.64.85-.64.84-.63.85-.64.85-.64.85-.64.85-.63.85-.64.84-.64.85-.63.85-.64.85-.64.85-.64.84-.63.85-.64.85-.64.85-.64.85-.63.85-.64.84-.64.85-.63.85-.64.85-.64.85-.64.85-.63.84-.64.85-.64.85-.63.85-.64.85-.64.84-.64.85-.63.85-.64.85-.64.85-.64.85-.63.84-.64.85-.64.85-.63.85-.64.85-.64.85-.64.84-.63.85-.64.85-.64.85-.64.85-.63.84-.64.85-.64.85-.63.85-.64.85-.64.85-.64.84-.63.85-.64" style="stroke-width:1.07;stroke:#000;stroke-opacity:.1;stroke-linecap:butt"/><path d="m133.39 315.59 7 12.11H126.4zM385.32 126.33l6.99 12.11h-13.99z" style="stroke-width:.71;stroke:none;fill:#00ba38"/><path d="M212.17 265.77h10.39v-10.39h-10.39z" style="stroke-width:.71;stroke:none;fill:#619cff"/><circle cx="49.42" cy="386.75" r="5.19" style="stroke-width:.71;stroke:none;fill:#f8766d"/><circle cx="301.34" cy="197.49" r="5.19" style="stroke-width:.71;stroke:none;fill:#f8766d"/><path d="m127.82 328.26 4.67-3.85M211.57 265.15l4.88-3.85M55.3 382.16l-4.95 3.87M307.2 192.86l-4.94 3.9" style="stroke-width:.53;stroke:#bfbfbf"/><path d="M91.95 339.54h55.65-.09l.35-.02.34-.07.32-.12.3-.17.27-.22.23-.26.19-.3.14-.32.08-.33.03-.35v-6.96l-.03-.35-.08-.34-.14-.32-.19-.29-.23-.26-.27-.22-.3-.17-.32-.13-.34-.07-.26-.01H91.95l.27.01-.35-.01-.35.04-.33.1-.32.15-.28.19-.25.24-.21.28-.16.31-.11.33-.06.34-.01.18v6.96l.01-.17v.34l.06.35.11.33.16.3.21.28.25.24.28.2.32.15.33.1.35.04z" style="stroke-width:.53;fill:#fff;fill-opacity:.5"/><text x="119.78" y="335.94" lengthAdjust="spacingAndGlyphs" style="font-size:5.69px;font-family:&quot;Arial&quot;" text-anchor="middle" textLength="52.76">1200 E VIENNA LLC</text><path d="M321.36 140h56.91-.08l.34-.01.34-.07.33-.13.3-.17.27-.22.23-.26.19-.29.13-.32.09-.34.02-.35v-6.96l-.02-.35-.09-.33-.13-.32-.19-.3-.23-.26-.27-.22-.3-.17-.33-.12-.34-.07-.26-.02h-56.91l.26.02-.35-.02-.34.04-.34.1-.31.15-.29.2-.25.24-.21.28-.16.3-.11.33-.06.35v7.13-.17.35l.06.34.11.33.16.31.21.27.25.25.29.19.31.15.34.1.34.04z" style="stroke-width:.53;fill:#fff;fill-opacity:.5"/><text x="349.82" y="136.4" lengthAdjust="spacingAndGlyphs" style="font-size:5.69px;font-family:&quot;Arial&quot;" text-anchor="middle" textLength="54.04">MAX Z APOSTOLOS</text><path d="M166.06 284.63h64.49-.08l.34-.02.35-.07.32-.12.3-.17.27-.22.23-.26.19-.3.13-.32.09-.34.02-.34v-15.16l-.02-.35-.09-.33-.13-.32-.19-.3-.23-.26-.27-.22-.3-.17-.32-.12-.35-.07-.26-.02h-64.49l.26.02-.34-.02-.35.04-.33.1-.32.15-.28.2-.25.24-.21.28-.16.3-.11.33-.06.35-.01.17v15.16l.01-.18v.35l.06.34.11.33.16.31.21.28.25.24.28.2.32.15.33.09.35.05z" style="stroke-width:.53;fill:#fff;fill-opacity:.5"/><text x="198.31" y="272.83" lengthAdjust="spacingAndGlyphs" style="font-size:5.69px;font-family:&quot;Arial&quot;" text-anchor="middle" textLength="61.3">4159 N FARWELL AVE,</text><text x="198.31" y="281.03" lengthAdjust="spacingAndGlyphs" style="font-size:5.69px;font-family:&quot;Arial&quot;" text-anchor="middle" textLength="61.61">MILWAUKEE, WI 53211</text><path d="M38.41 382.16h64.49-.08l.34-.02.34-.07.33-.12.3-.17.27-.22.23-.26.19-.3.13-.32.08-.33.03-.35v-15.16l-.03-.34-.08-.34-.13-.32-.19-.29-.23-.26-.27-.22-.3-.18-.33-.12-.34-.07-.26-.02H38.41l.26.02-.34-.01-.35.04-.33.09-.32.15-.28.2-.25.24-.21.28-.17.31-.11.33-.05.34-.01.17V380l.01-.17v.34l.05.35.11.33.17.3.21.28.25.24.28.2.32.15.33.1.35.04z" style="stroke-width:.53;fill:#fff;fill-opacity:.5"/><text x="70.66" y="370.37" lengthAdjust="spacingAndGlyphs" style="font-size:5.69px;font-family:&quot;Arial&quot;" text-anchor="middle" textLength="54.66">12000 E VIENNA AV,</text><text x="70.66" y="378.56" lengthAdjust="spacingAndGlyphs" style="font-size:5.69px;font-family:&quot;Arial&quot;" text-anchor="middle" textLength="61.61">MILWAUKEE, WI 53212</text><path d="M288.21 192.86h64.49-.09l.35-.01.34-.07.32-.13.3-.17.27-.22.23-.26.19-.29.14-.32.08-.34.03-.35v-15.15l-.03-.35-.08-.34-.14-.32-.19-.29-.23-.26-.27-.22-.3-.17-.32-.13-.34-.07-.26-.01h-64.49l.26.01-.35-.01-.35.04-.33.1-.31.15-.29.19-.25.24-.21.28-.16.31-.11.33-.06.34v15.33-.17.35l.06.34.11.33.16.31.21.28.25.24.29.19.31.15.33.1.35.04z" style="stroke-width:.53;fill:#fff;fill-opacity:.5"/><text x="320.45" y="181.07" lengthAdjust="spacingAndGlyphs" style="font-size:5.69px;font-family:&quot;Arial&quot;" text-anchor="middle" textLength="61.3">4159 N FARWELL AVE,</text><text x="320.45" y="189.26" lengthAdjust="spacingAndGlyphs" style="font-size:5.69px;font-family:&quot;Arial&quot;" text-anchor="middle" textLength="61.61">MILWAUKEE, WI 53211</text></g><g clip-path="url(#cpMC4wMHw0MzIuMDB8MC4wMHw0MzIuMDA=)"><circle cx="124.98" cy="96.71" r="1.95" style="stroke-width:.71;stroke:none;fill:#f8766d"/><path d="m201.33 93.67 2.63 4.56h-5.26z" style="stroke-width:.71;stroke:none;fill:#00ba38"/><path d="M267.31 98.66h3.91v-3.91h-3.91z" style="stroke-width:.71;stroke:none;fill:#619cff"/><text x="139.09" y="99.86" lengthAdjust="spacingAndGlyphs" style="font-size:8.8px;font-family:&quot;Arial Narrow&quot;" textLength="48.12">mprop address</text><text x="215.45" y="99.86" lengthAdjust="spacingAndGlyphs" style="font-size:8.8px;font-family:&quot;Arial Narrow&quot;" textLength="39.69">owner name</text><text x="283.38" y="99.86" lengthAdjust="spacingAndGlyphs" style="font-size:8.8px;font-family:&quot;Arial Narrow&quot;" textLength="40.5">wdfi address</text><text x="32.63" y="65.12" lengthAdjust="spacingAndGlyphs" style="font-size:12px;font-family:&quot;Arial Narrow&quot;" textLength="241.29">includes 2 parcels, 4 units, and 2 distinct owner names.</text><text x="32.63" y="42.78" lengthAdjust="spacingAndGlyphs" style="font-size:18px;font-weight:700;font-family:&quot;Arial Narrow&quot;" textLength="187.26">1200 E VIENNA LLC Group</text></g></svg>