<svg xmlns="http://www.w3.org/2000/svg" width="576" height="576" class="svglite" viewBox="0 0 432 432"><defs><style><![CDATA[.svglite line,.svglite polyline,.svglite polygon,.svglite path,.svglite circle{fill:none;stroke:#000000;stroke-linecap:round;stroke-linejoin:round;stroke-miterlimit:10.00}.svglite text{white-space:pre}]]></style></defs><rect width="100%" height="100%" style="stroke-linecap:round;stroke-linejoin:round;stroke-miterlimit:10.00;stroke:none;fill:#FFFFFF"/><defs><clipPath id="cpMC4wMHw0MzIuMDB8MC4wMHw0MzIuMDA="><path d="M0 0h432v432H0z"/></clipPath></defs><g clip-path="url(#cpMC4wMHw0MzIuMDB8MC4wMHw0MzIuMDA=)"><path d="M0 0h432v432H0z" style="stroke-width:1.07;stroke:none;fill:#FFFFFF"/></g><defs><clipPath id="cpMzIuNjN8NDAyLjExfDEyMS43OHwzOTkuMzc="><path d="M32.63 121.78h369.48v277.59H32.63z"/></clipPath></defs><g clip-path="url(#cpMzIuNjN8NDAyLjExfDEyMS43OHwzOTkuMzc=)"><path d="m385.32 311.44-1.94-.46-1.94-.46-1.93-.46-1.94-.46-1.94-.46-1.94-.46-1.93-.45-1.94-.46-1.94-.46-1.93-.46-1.94-.46-1.94-.46-1.94-.46-1.93-.46-1.94-.45-1.94-.46-1.94-.46-1.93-.46-1.94-.46-1.94-.46-1.93-.46-1.94-.45-1.94-.46-1.94-.46-1.93-.46-1.94-.46-1.94-.46-1.93-.46-1.94-.46-1.94-.45-1.94-.46-1.93-.46-1.94-.46-1.94-.46-1.93-.46-1.94-.46-1.94-.45-1.94-.46-1.93-.46-1.94-.46-1.94-.46-1.94-.46-1.93-.46-1.94-.46-1.94-.45-1.93-.46-1.94-.46-1.94-.46-1.94-.46-1.93-.46-1.94-.46-1.94-.45-1.93-.46-1.94-.46-1.94-.46-1.94-.46-1.93-.46-1.94-.46-1.94-.45-1.94-.46-1.93-.46-1.94-.46-1.94-.46-1.93-.46-1.94-.46-1.94-.46-1.94-.45-1.93-.46-1.94-.46-1.94-.46-1.93-.46-1.94-.46-1.94-.46-1.94-.45-1.93-.46-1.94-.46-1.94-.46-1.93-.46-1.94-.46-1.94-.46-1.94-.46-1.93-.45-1.94-.46-1.94-.46-1.94-.46-1.93-.46-1.94-.46-1.94-.46-1.93-.45-1.94-.46-1.94-.46-1.94-.46-1.93-.46-1.94-.46-1.94-.46-1.93-.46-1.94-.45-1.94-.46-1.94-.46m59.21-105.96-.6 1.07-.6 1.07-.6 1.07-.6 1.07-.59 1.07-.6 1.07-.6 1.07-.6 1.07-.6 1.07-.59 1.07-.6 1.07-.6 1.07-.6 1.07-.6 1.07-.59 1.07-.6 1.07-.6 1.07-.6 1.07-.6 1.07-.59 1.08-.6 1.07-.6 1.07-.6 1.07-.6 1.07-.59 1.07-.6 1.07-.6 1.07-.6 1.07-.6 1.07-.59 1.07-.6 1.07-.6 1.07-.6 1.07-.6 1.07-.59 1.07-.6 1.07-.6 1.07-.6 1.07-.6 1.07-.59 1.07-.6 1.07-.6 1.07-.6 1.07-.6 1.07-.59 1.07-.6 1.07-.6 1.07-.6 1.07-.6 1.07-.59 1.07-.6 1.07-.6 1.07-.6 1.07-.6 1.08-.59 1.07-.6 1.07-.6 1.07-.6 1.07-.6 1.07-.59 1.07-.6 1.07-.6 1.07-.6 1.07-.6 1.07-.59 1.07-.6 1.07-.6 1.07-.6 1.07-.6 1.07-.59 1.07-.6 1.07-.6 1.07-.6 1.07-.6 1.07-.59 1.07-.6 1.07-.6 1.07-.6 1.07-.6 1.07-.59 1.07-.6 1.07-.6 1.07-.6 1.07-.6 1.07-.59 1.07-.6 1.07-.6 1.07-.6 1.08-.6 1.07-.59 1.07-.6 1.07-.6 1.07-.6 1.07-.6 1.07-.59 1.07-.6 1.07-.6 1.07-.6 1.07-.6 1.07m59.21-105.96-2.06.59-2.05.58-2.06.59-2.05.58-2.05.59-2.06.58-2.05.59-2.05.59-2.06.58-2.05.59-2.05.58-2.06.59-2.05.59-2.06.58-2.05.59-2.05.58-2.06.59-2.05.59-2.05.58-2.06.59-2.05.58-2.05.59-2.06.59-2.05.58-2.06.59-2.05.58-2.05.59-2.06.59-2.05.58-2.05.59-2.06.58-2.05.59-2.06.59-2.05.58-2.05.59-2.06.58-2.05.59-2.05.59-2.06.58-2.05.59-2.05.58-2.06.59-2.05.59-2.06.58-2.05.59-2.05.58-2.06.59-2.05.58-2.05.59-2.06.59-2.05.58-2.06.59-2.05.58-2.05.59-2.06.59-2.05.58-2.05.59-2.06.58-2.05.59-2.05.59-2.06.58-2.05.59-2.06.58-2.05.59-2.05.59-2.06.58-2.05.59-2.05.58-2.06.59-2.05.59-2.05.58-2.06.59-2.05.58-2.06.59-2.05.59-2.05.58-2.06.59-2.05.58-2.05.59-2.06.59-2.05.58-2.06.59-2.05.58-2.05.59-2.06.58-2.05.59-2.05.59-2.06.58-2.05.59-2.05.58-2.06.59-2.05.59-2.06.58-2.05.59-2.05.58-2.06.59-2.05.59-2.05.58-2.06.59" style="stroke-width:1.07;stroke:#000000;stroke-opacity:0.10;stroke-linecap:butt"/><path d="m75.82 134.4 1.19 1.33 1.19 1.33 1.19 1.33 1.19 1.33 1.19 1.33 1.18 1.33 1.19 1.33 1.19 1.33 1.19 1.33 1.19 1.33 1.19 1.33 1.19 1.33 1.19 1.33 1.19 1.33 1.19 1.33 1.19 1.32 1.18 1.33 1.19 1.33 1.19 1.33 1.19 1.33 1.19 1.33 1.19 1.33 1.19 1.33 1.19 1.33 1.19 1.33 1.19 1.33 1.18 1.33 1.19 1.33 1.19 1.33 1.19 1.33 1.19 1.33 1.19 1.33 1.19 1.33 1.19 1.33 1.19 1.33 1.19 1.33 1.18 1.33 1.19 1.33 1.19 1.32 1.19 1.33 1.19 1.33 1.19 1.33 1.19 1.33 1.19 1.33 1.19 1.33 1.19 1.33 1.18 1.33 1.19 1.33 1.19 1.33 1.19 1.33 1.19 1.33 1.19 1.33 1.19 1.33 1.19 1.33 1.19 1.33 1.19 1.33 1.19 1.33 1.18 1.33 1.19 1.33 1.19 1.33 1.19 1.33 1.19 1.32 1.19 1.33 1.19 1.33 1.19 1.33 1.19 1.33 1.19 1.33 1.18 1.33 1.19 1.33 1.19 1.33 1.19 1.33 1.19 1.33 1.19 1.33 1.19 1.33 1.19 1.33 1.19 1.33 1.19 1.33 1.18 1.33 1.19 1.33 1.19 1.33 1.19 1.33 1.19 1.33 1.19 1.33 1.19 1.33 1.19 1.32 1.19 1.33 1.19 1.33 1.18 1.33 1.19 1.33 1.19 1.33 1.19 1.33 1.19 1.33 1.19 1.33 1.19 1.33 1.19 1.33 1.19 1.33 1.19 1.33 1.18 1.33 1.19 1.33M75.82 134.4l-.27.85-.26.84-.27.85-.27.84-.26.85-.27.84-.27.85-.26.84-.27.85-.27.84-.26.85-.27.84-.27.85-.26.84-.27.85-.27.85-.26.84-.27.85-.27.84-.26.85-.27.84-.27.85-.26.84-.27.85-.27.84-.26.85-.27.84-.27.85-.26.84-.27.85-.27.84-.26.85-.27.84-.27.85-.26.84-.27.85-.27.84-.26.85-.27.85-.27.84-.26.85-.27.84-.27.85-.26.84-.27.85-.27.84-.26.85-.27.84-.27.85-.26.84-.27.85-.27.84-.26.85-.27.84-.26.85-.27.84-.27.85-.26.84-.27.85-.27.84-.26.85-.27.85-.27.84-.26.85-.27.84-.27.85-.26.84-.27.85-.27.84-.26.85-.27.84-.27.85-.26.84-.27.85-.27.84-.26.85-.27.84-.27.85-.26.84-.27.85-.27.84-.26.85-.27.84-.27.85-.26.85-.27.84-.27.85-.26.84-.27.85-.27.84-.26.85-.27.84-.27.85-.26.84-.27.85-.27.84-.26.85-.27.84-.27.85" style="stroke-width:1.07;stroke:#000000;stroke-opacity:0.10;stroke-linecap:butt"/><path d="m108.34 386.75.86-1.21.86-1.22.86-1.22.86-1.22.87-1.22.86-1.22.86-1.22.86-1.22.86-1.22.86-1.22.86-1.22.86-1.22.86-1.22.86-1.22.86-1.22.86-1.22.86-1.22.86-1.22.86-1.21.86-1.22.86-1.22.86-1.22.86-1.22.87-1.22.86-1.22.86-1.22.86-1.22.86-1.22.86-1.22.86-1.22.86-1.22.86-1.22.86-1.22.86-1.22.86-1.22.86-1.22.86-1.22.86-1.21.86-1.22.86-1.22.86-1.22.86-1.22.87-1.22.86-1.22.86-1.22.86-1.22.86-1.22.86-1.22.86-1.22.86-1.22.86-1.22.86-1.22.86-1.22.86-1.22.86-1.22.86-1.21.86-1.22.86-1.22.86-1.22.86-1.22.86-1.22.86-1.22.87-1.22.86-1.22.86-1.22.86-1.22.86-1.22.86-1.22.86-1.22.86-1.22.86-1.22.86-1.22.86-1.22.86-1.22.86-1.21.86-1.22.86-1.22.86-1.22.86-1.22.86-1.22.86-1.22.87-1.22.86-1.22.86-1.22.86-1.22.86-1.22.86-1.22.86-1.22.86-1.22.86-1.22.86-1.22.86-1.22.86-1.21.86-1.22.86-1.22.86-1.22.86-1.22.86-1.22.86-1.22" style="stroke-width:1.07;stroke:#000000;stroke-opacity:0.10;stroke-linecap:butt"/><path d="m49.42 218.08 1.18.83 1.18.82 1.19.82 1.19.81 1.2.8 1.2.8 1.21.78 1.21.79 1.22.77 1.23.77 1.23.76 1.24.75 1.25.75 1.25.73 1.25.74 1.26.72 1.27.72 1.27.71 1.28.7 1.28.7 1.29.69 1.3.68 1.3.68 1.31.66 1.31.66 1.32.66 1.32.65 1.33.64 1.34.63 1.34.62 1.34.62 1.36.61 1.36.61 1.36.6 1.37.59 1.37.58 1.39.58 1.38.57 1.4.56 1.39.55 1.41.55 1.41.54 1.41.54 1.43.52 1.42.52 1.43.51 1.44.51 1.45.5 1.45.49 1.45.48 1.46.48 1.47.47 1.47.46 1.48.46 1.49.45 1.49.44 1.49.44 1.5.42 1.51.43 1.51.41 1.52.41 1.53.39 1.53.4 1.53.38 1.55.38 1.54.37 1.56.37 1.55.35 1.57.35 1.57.35 1.57.33 1.59.33 1.58.32 1.6.32 1.6.31 1.6.3 1.61.29 1.62.29 1.62.28 1.63.27 1.63.26 1.64.26 1.64.25 1.65.25 1.66.23 1.66.23 1.67.23 1.67.21 1.68.21 1.68.2 1.69.2 1.7.18 1.7.18 1.71.18 1.71.16 1.72.16 1.73.16 1.73.14 1.73.14" style="stroke-width:1.07;stroke:#000000;stroke-opacity:0.10;stroke-linecap:butt"/><path d="m49.42 218.08 1.36.6 1.37.6 1.36.59 1.37.59 1.37.59 1.37.59 1.38.59 1.37.58 1.38.58 1.38.58 1.38.58 1.38.57 1.39.57 1.39.57 1.39.57 1.39.56 1.39.56 1.39.56 1.4.56 1.4.56 1.4.55 1.4.55 1.41.55 1.4.54 1.41.55 1.41.54 1.41.54 1.41.53 1.42.54 1.42.53 1.42.53 1.42.52 1.42.53 1.43.52 1.42.52 1.43.52 1.43.51 1.44.51 1.43.51 1.44.51 1.44.51 1.44.5 1.44.5 1.44.5 1.45.5 1.45.49 1.45.49 1.45.49 1.45.49 1.46.48 1.46.48 1.46.48 1.46.48 1.46.48 1.47.47 1.46.47 1.47.47 1.47.46 1.48.46 1.47.47 1.48.45 1.48.46 1.48.45 1.48.46 1.48.44 1.49.45 1.49.45 1.49.44 1.49.44 1.49.43 1.5.44 1.5.43 1.5.43 1.5.43 1.5.42 1.51.43 1.5.42 1.51.42 1.51.41 1.52.42 1.51.41 1.52.41 1.52.4 1.52.41 1.52.4 1.52.4 1.53.4 1.53.39 1.53.39 1.53.39 1.53.39 1.54.39 1.54.38 1.54.38 1.54.38 1.54.37 1.55.38 1.54.37 1.55.37M49.42 218.08l1.55.37 1.55.37 1.54.37 1.55.38 1.54.38 1.54.38 1.54.38 1.53.39 1.54.38 1.53.39 1.53.4 1.53.39 1.52.4 1.53.4 1.52.4 1.52.4 1.52.41 1.52.41 1.51.41 1.51.41 1.51.42 1.51.42 1.51.42 1.51.42 1.5.43 1.5.43 1.5.43 1.5.43 1.49.43 1.5.44 1.49.44 1.49.44 1.49.45 1.48.44 1.49.45 1.48.45 1.48.46 1.48.45 1.48.46 1.47.46 1.47.46 1.47.47 1.47.47 1.47.47 1.47.47 1.46.48 1.46.47 1.46.48 1.46.48 1.45.49 1.46.49 1.45.48 1.45.5 1.45.49 1.44.5 1.45.49 1.44.51 1.44.5 1.44.5 1.44.51 1.43.51 1.43.52 1.43.51 1.43.52 1.43.52 1.42.52 1.43.52 1.42.53 1.42.53 1.42.53 1.41.53 1.42.54 1.41.54 1.41.54 1.41.54 1.4.55 1.41.55 1.4.55 1.4.55 1.4.56 1.39.55 1.4.56 1.39.56 1.39.57 1.39.57 1.39.56 1.38.58 1.39.57 1.38.58 1.38.58 1.37.58 1.38.58 1.37.59 1.37.58 1.37.59 1.37.6 1.37.59 1.36.6 1.36.6" style="stroke-width:1.07;stroke:#000000;stroke-opacity:0.10;stroke-linecap:butt"/><path d="m49.42 218.08 1.74.14 1.73.14 1.72.15 1.72.16 1.72.17 1.7.17 1.71.18 1.69.19 1.69.19 1.69.21 1.68.2 1.67.22 1.67.22 1.66.23 1.65.24 1.65.24 1.65.26 1.64.25 1.63.27 1.63.27 1.62.28 1.62.29 1.61.29 1.6.3 1.6.31 1.59.31 1.59.33 1.58.32 1.58.34 1.57.34 1.56.35 1.56.36 1.55.36 1.55.38 1.54.37 1.54.39 1.53.39 1.52.4 1.52.41 1.51.41 1.51.42 1.5.43 1.5.43 1.49.45 1.48.45 1.48.45 1.47.46 1.47.48 1.46.47 1.46.49 1.45.49 1.44.5 1.44.5 1.43.51 1.43.52 1.42.53 1.42.54 1.41.54 1.4.54 1.4.56 1.39.56 1.39.57 1.38.58 1.38.58 1.37.59 1.36.6 1.36.6 1.35.61 1.35.62 1.34.63 1.34.63 1.33.64 1.32.65 1.32.65 1.31.66 1.31.67 1.3.68 1.29.68 1.29.69 1.29.69 1.28.71 1.27.71 1.26.72 1.27.72 1.25.73 1.25.74 1.24.75 1.24.75 1.23.76 1.23.77 1.22.77 1.22.78 1.21.79 1.2.8 1.2.8 1.19.81 1.19.81 1.18.83 1.17.83" style="stroke-width:1.07;stroke:#000000;stroke-opacity:0.10;stroke-linecap:butt"/><path d="m385.32 309.23 1.91 3.31h-3.83zM252.74 157.86l1.91 3.31h-3.83zM75.82 132.19l1.91 3.32h-3.82zm32.52 252.35 1.92 3.32h-3.83z" style="stroke-width:0.71;stroke:none;fill:#00BA38"/><path d="M44.92 222.58h9v-9h-9z" style="stroke-width:0.71;stroke:none;fill:#619CFF"/><circle cx="193.53" cy="266.03" r="6.76" style="stroke-width:0.71;stroke:none;fill:#F8766D"/><path d="m258.3 155.49-4.66 3.84M71.01 138.98l3.98-3.79m27.5 246.95 4.93 3.89m91.91-124.58-4.88 3.85" style="stroke-width:0.53;stroke:#BFBFBF"/><path d="M323.68 321.18h54.67-.09l.35-.02.34-.07.32-.12.3-.17.27-.22.23-.26.19-.3.14-.32.08-.33.03-.35h0v-15.16h0l-.03-.34-.08-.34-.14-.32-.19-.29-.23-.26-.27-.22-.3-.18-.32-.12-.34-.07-.26-.02h-54.67l.26.02-.35-.02-.34.05-.34.09-.31.15-.29.2-.25.24-.21.28-.16.31-.11.33-.06.34v15.33-.17.34l.06.35.11.33.16.3.21.28.25.24.29.2.31.15.34.1.34.04z" style="stroke-width:0.53;fill:#FFFFFF;fill-opacity:0.50"/><text x="351.01" y="309.39" lengthAdjust="spacingAndGlyphs" style="font-size:5.69px;font-family:&quot;Arial&quot;" text-anchor="middle" textLength="51.79">NUMBER NINE MIC</text><text x="351.01" y="317.58" lengthAdjust="spacingAndGlyphs" style="font-size:5.69px;font-family:&quot;Arial&quot;" text-anchor="middle" textLength="18.96">TRUST</text><path d="M231.73 155.49h69.23-.08l.34-.02.35-.07.32-.12.3-.17.27-.22.23-.26.19-.3.13-.32.09-.33.02-.35h0v-6.96h0l-.02-.35-.09-.34-.13-.32-.19-.29-.23-.26-.27-.22-.3-.18-.32-.12-.35-.07-.26-.01h-69.23l.26.01-.35-.01-.34.04-.34.1-.31.15-.29.19-.25.24-.21.28-.16.31-.11.33-.05.34-.01.18v6.96l.01-.18v.35l.05.35.11.33.16.3.21.28.25.24.29.2.31.15.34.09.34.05z" style="stroke-width:0.53;fill:#FFFFFF;fill-opacity:0.50"/><text x="266.35" y="151.89" lengthAdjust="spacingAndGlyphs" style="font-size:5.69px;font-family:&quot;Arial&quot;" text-anchor="middle" textLength="66.36">214 SCOTT STREET LLC</text><path d="M38.41 150.26h59.11-.09l.35-.01.34-.07.32-.13.31-.17.27-.22.23-.26.18-.29.14-.32.08-.34.03-.35h0v-6.96h0l-.03-.35-.08-.33-.14-.32-.18-.3-.23-.26-.27-.22-.31-.17-.32-.12-.34-.07-.26-.02H38.41l.26.02-.34-.02-.35.04-.33.1-.32.15-.28.2-.25.24-.21.28-.16.3-.11.33-.06.35-.01.17v6.96l.01-.17v.35l.06.34.11.33.16.31.21.27.25.25.28.19.32.15.33.1.35.04z" style="stroke-width:0.53;fill:#FFFFFF;fill-opacity:0.50"/><text x="67.97" y="146.66" lengthAdjust="spacingAndGlyphs" style="font-size:5.69px;font-family:&quot;Arial&quot;" text-anchor="middle" textLength="56.22">1332 HARRISON LLC</text><path d="M53.68 382.14h71.12-.09l.35-.02.34-.07.32-.12.3-.18.27-.21.23-.27.19-.29.14-.32.08-.34.03-.34h0v-15.16h0l-.03-.35-.08-.33-.14-.32-.19-.3-.23-.26-.27-.22-.3-.17-.32-.12-.34-.07-.26-.02H53.68l.26.02-.35-.02-.35.04-.33.1-.31.15-.29.2-.25.24-.21.28-.16.3-.11.33-.06.35v15.33-.18.35l.06.34.11.33.16.31.21.28.25.24.29.2.31.15.33.09.35.05z" style="stroke-width:0.53;fill:#FFFFFF;fill-opacity:0.50"/><text x="89.24" y="370.34" lengthAdjust="spacingAndGlyphs" style="font-size:5.69px;font-family:&quot;Arial&quot;" text-anchor="middle" textLength="68.24">DALE SMART &amp; CYNTHIA</text><text x="89.24" y="378.54" lengthAdjust="spacingAndGlyphs" style="font-size:5.69px;font-family:&quot;Arial&quot;" text-anchor="middle" textLength="9.48">HW</text><path d="M56.37 227.79h68.91-.09l.35-.02.34-.07.32-.12.3-.17.27-.22.23-.26.19-.3.14-.32.08-.34.03-.34h0v-15.16h0l-.03-.35-.08-.33-.14-.32-.19-.3-.23-.26-.27-.22-.3-.17-.32-.12-.34-.07-.26-.02H56.37l.26.02-.34-.02-.35.05-.33.09-.32.15-.28.2-.25.24-.21.28-.16.3-.11.33-.06.35-.01.17v15.16l.01-.18v.35l.06.35.11.32.16.31.21.28.25.24.28.2.32.15.33.09.35.05z" style="stroke-width:0.53;fill:#FFFFFF;fill-opacity:0.50"/><text x="90.82" y="215.99" lengthAdjust="spacingAndGlyphs" style="font-size:5.69px;font-family:&quot;Arial&quot;" text-anchor="middle" textLength="66.02">4985 SUNNY SLOPE RD,</text><text x="90.82" y="224.19" lengthAdjust="spacingAndGlyphs" style="font-size:5.69px;font-family:&quot;Arial&quot;" text-anchor="middle" textLength="62.86">NEW BERLIN, WI 53151</text><path d="M178.15 261.45h68.9-.08l.34-.01.34-.07.33-.12.3-.18.27-.22.23-.26.19-.29.13-.32.09-.34.02-.35h0v-15.15h0l-.02-.35-.09-.34-.13-.32-.19-.29-.23-.26-.27-.22-.3-.17-.33-.13-.34-.07-.26-.01h-68.9l.26.01-.35-.01-.34.04-.34.1-.31.15-.29.19-.25.24-.21.28-.16.31-.11.33-.05.34-.01.18v15.15l.01-.17v.35l.05.34.11.33.16.31.21.28.25.24.29.19.31.15.34.1.34.04z" style="stroke-width:0.53;fill:#FFFFFF;fill-opacity:0.50"/><text x="212.6" y="249.66" lengthAdjust="spacingAndGlyphs" style="font-size:5.69px;font-family:&quot;Arial&quot;" text-anchor="middle" textLength="66.02">4985 SUNNY SLOPE RD,</text><text x="212.6" y="257.85" lengthAdjust="spacingAndGlyphs" style="font-size:5.69px;font-family:&quot;Arial&quot;" text-anchor="middle" textLength="62.86">NEW BERLIN, WI 53151</text></g><g clip-path="url(#cpMC4wMHw0MzIuMDB8MC4wMHw0MzIuMDA=)"><circle cx="124.98" cy="96.71" r="1.95" style="stroke-width:0.71;stroke:none;fill:#F8766D"/><path d="m201.33 93.67 2.63 4.56h-5.26z" style="stroke-width:0.71;stroke:none;fill:#00BA38"/><path d="M267.31 98.66h3.91v-3.91h-3.91z" style="stroke-width:0.71;stroke:none;fill:#619CFF"/><text x="139.09" y="99.86" lengthAdjust="spacingAndGlyphs" style="font-size:8.80px;font-family:&quot;Arial Narrow&quot;" textLength="48.12">mprop address</text><text x="215.45" y="99.86" lengthAdjust="spacingAndGlyphs" style="font-size:8.80px;font-family:&quot;Arial Narrow&quot;" textLength="39.69">owner name</text><text x="283.38" y="99.86" lengthAdjust="spacingAndGlyphs" style="font-size:8.80px;font-family:&quot;Arial Narrow&quot;" textLength="40.5">wdfi address</text><text x="32.63" y="65.12" lengthAdjust="spacingAndGlyphs" style="font-size:12.00px;font-family:&quot;Arial Narrow&quot;" textLength="241.29">includes 4 parcels, 7 units, and 4 distinct owner names.</text><text x="32.63" y="42.78" lengthAdjust="spacingAndGlyphs" style="font-size:18.00px;font-weight:bold;font-family:&quot;Arial Narrow&quot;" textLength="196.8">1332 HARRISON LLC Group</text></g></svg>