<svg xmlns="http://www.w3.org/2000/svg" width="768" height="768" class="svglite" viewBox="0 0 576 576"><defs><style><![CDATA[.svglite line,.svglite polyline,.svglite polygon,.svglite path,.svglite circle{fill:none;stroke:#000000;stroke-linecap:round;stroke-linejoin:round;stroke-miterlimit:10.00}.svglite text{white-space:pre}]]></style></defs><rect width="100%" height="100%" style="stroke-linecap:round;stroke-linejoin:round;stroke-miterlimit:10.00;stroke:none;fill:#FFFFFF"/><defs><clipPath id="cpMC4wMHw1NzYuMDB8MC4wMHw1NzYuMDA="><path d="M0 0h576v576H0z"/></clipPath></defs><g clip-path="url(#cpMC4wMHw1NzYuMDB8MC4wMHw1NzYuMDA=)"><path d="M0 0h576v576H0z" style="stroke-width:1.07;stroke:none;fill:#FFFFFF"/></g><defs><clipPath id="cpMzIuNjN8NTQ2LjExfDEyMS43OHw1NDMuMzc="><path d="M32.63 121.78h513.48v421.59H32.63z"/></clipPath></defs><g clip-path="url(#cpMzIuNjN8NTQ2LjExfDEyMS43OHw1NDMuMzc=)"><path d="m99.87 460.01 2.05-1.62 2.04-1.62 2.05-1.61 2.05-1.62 2.05-1.62 2.05-1.62 2.05-1.62 2.05-1.62 2.05-1.62 2.05-1.62 2.05-1.62 2.05-1.62 2.05-1.62 2.05-1.62 2.04-1.62 2.05-1.62 2.05-1.62 2.05-1.62 2.05-1.62 2.05-1.62 2.05-1.62 2.05-1.62 2.05-1.62 2.05-1.62 2.05-1.62 2.05-1.62 2.05-1.62 2.04-1.62 2.05-1.62 2.05-1.62 2.05-1.62 2.05-1.62 2.05-1.62 2.05-1.62 2.05-1.62 2.05-1.62 2.05-1.62 2.05-1.62 2.05-1.62 2.05-1.62 2.04-1.62 2.05-1.62 2.05-1.62 2.05-1.62 2.05-1.62 2.05-1.62 2.05-1.62 2.05-1.62 2.05-1.62 2.05-1.62 2.05-1.62 2.05-1.62 2.05-1.62 2.05-1.62 2.04-1.62 2.05-1.62 2.05-1.62 2.05-1.62 2.05-1.62 2.05-1.62 2.05-1.62 2.05-1.62 2.05-1.62 2.05-1.62 2.05-1.62 2.05-1.62 2.05-1.62 2.04-1.62 2.05-1.62 2.05-1.62 2.05-1.62 2.05-1.62 2.05-1.62 2.05-1.62 2.05-1.62 2.05-1.62 2.05-1.62 2.05-1.62 2.05-1.62 2.05-1.61 2.04-1.62 2.05-1.62 2.05-1.62 2.05-1.62 2.05-1.62 2.05-1.62 2.05-1.62 2.05-1.62 2.05-1.62 2.05-1.62 2.05-1.62 2.05-1.62 2.05-1.62 2.04-1.62 2.05-1.62 2.05-1.62 2.05-1.62 2.05-1.62 2.05-1.62M99.87 460.01l1.78-.95 1.77-.95 1.78-.96 1.78-.95 1.78-.96 1.78-.95 1.78-.96 1.78-.95 1.78-.96 1.78-.95 1.78-.96 1.78-.95 1.78-.95 1.77-.96 1.78-.95 1.78-.96 1.78-.95 1.78-.96 1.78-.95 1.78-.96 1.78-.95 1.78-.96 1.78-.95 1.78-.96 1.77-.95 1.78-.95 1.78-.96 1.78-.95 1.78-.96 1.78-.95 1.78-.96 1.78-.95 1.78-.96 1.78-.95 1.78-.96 1.78-.95 1.77-.96 1.78-.95 1.78-.95 1.78-.96 1.78-.95 1.78-.96 1.78-.95 1.78-.96 1.78-.95 1.78-.96 1.78-.95 1.78-.96 1.77-.95 1.78-.95 1.78-.96 1.78-.95 1.78-.96 1.78-.95 1.78-.96 1.78-.95 1.78-.96 1.78-.95 1.78-.96 1.78-.95 1.77-.96 1.78-.95 1.78-.95 1.78-.96 1.78-.95 1.78-.96 1.78-.95 1.78-.96 1.78-.95 1.78-.96 1.78-.95 1.78-.96 1.77-.95 1.78-.95 1.78-.96 1.78-.95 1.78-.96 1.78-.95 1.78-.96 1.78-.95 1.78-.96 1.78-.95 1.78-.96 1.78-.95 1.77-.96 1.78-.95 1.78-.95 1.78-.96 1.78-.95 1.78-.96 1.78-.95 1.78-.96 1.78-.95 1.78-.96 1.78-.95 1.77-.96 1.78-.95 1.78-.95 1.78-.96m71.46 158.7-.45-2.27-.45-2.27-.45-2.27-.45-2.26-.46-2.27-.45-2.27-.45-2.27-.45-2.27-.45-2.27-.46-2.26-.45-2.27-.45-2.27-.45-2.27-.45-2.27-.45-2.27-.46-2.26-.45-2.27-.45-2.27-.45-2.27-.45-2.27-.45-2.27-.46-2.26-.45-2.27-.45-2.27-.45-2.27-.45-2.27-.45-2.26-.46-2.27-.45-2.27-.45-2.27-.45-2.27-.45-2.27-.46-2.26-.45-2.27-.45-2.27-.45-2.27-.45-2.27-.45-2.27-.46-2.26-.45-2.27-.45-2.27-.45-2.27-.45-2.27-.45-2.27-.46-2.26-.45-2.27-.45-2.27-.45-2.27-.45-2.27-.45-2.27-.46-2.26-.45-2.27-.45-2.27-.45-2.27-.45-2.27-.45-2.27-.46-2.26-.45-2.27-.45-2.27-.45-2.27-.45-2.27-.46-2.27-.45-2.26-.45-2.27-.45-2.27-.45-2.27-.45-2.27-.46-2.27-.45-2.26-.45-2.27-.45-2.27-.45-2.27-.45-2.27-.46-2.26-.45-2.27-.45-2.27-.45-2.27-.45-2.27-.45-2.27-.46-2.26-.45-2.27-.45-2.27-.45-2.27-.45-2.27-.46-2.27-.45-2.26-.45-2.27-.45-2.27-.45-2.27-.45-2.27-.46-2.27-.45-2.26-.45-2.27-.45-2.27-.45-2.27-.45-2.27-.46-2.27-.45-2.26-.45-2.27" style="stroke-width:1.07;stroke:#000000;stroke-opacity:0.10;stroke-linecap:butt"/><path d="m347.46 524.21-.72-1.6-.72-1.61-.72-1.6-.73-1.6-.72-1.61-.72-1.6-.72-1.6-.72-1.6-.72-1.61-.73-1.6-.72-1.6-.72-1.61-.72-1.6-.72-1.6-.73-1.61-.72-1.6-.72-1.6-.72-1.61-.72-1.6-.72-1.6-.73-1.6-.72-1.61-.72-1.6-.72-1.6-.72-1.61-.73-1.6-.72-1.6-.72-1.61-.72-1.6-.72-1.6-.72-1.6-.73-1.61-.72-1.6-.72-1.6-.72-1.61-.72-1.6-.73-1.6-.72-1.61-.72-1.6-.72-1.6-.72-1.6-.72-1.61-.73-1.6-.72-1.6-.72-1.61-.72-1.6-.72-1.6-.73-1.61-.72-1.6-.72-1.6-.72-1.6-.72-1.61-.72-1.6-.73-1.6-.72-1.61-.72-1.6-.72-1.6-.72-1.61-.73-1.6-.72-1.6-.72-1.6-.72-1.61-.72-1.6-.72-1.6-.73-1.61-.72-1.6-.72-1.6-.72-1.61-.72-1.6-.72-1.6-.73-1.6-.72-1.61-.72-1.6-.72-1.6-.72-1.61-.73-1.6-.72-1.6-.72-1.61-.72-1.6-.72-1.6-.72-1.61-.73-1.6-.72-1.6-.72-1.6-.72-1.61-.72-1.6-.73-1.6-.72-1.61-.72-1.6-.72-1.6-.72-1.61-.72-1.6-.73-1.6-.72-1.6-.72-1.61-.72-1.6-.72-1.6-.73-1.61-.72-1.6m246.77 27.48-2.22-.94-2.22-.94-2.23-.95-2.22-.94-2.22-.94-2.22-.94-2.23-.95-2.22-.94-2.22-.94-2.22-.95-2.23-.94-2.22-.94-2.22-.94-2.22-.95-2.23-.94-2.22-.94-2.22-.95-2.22-.94-2.23-.94-2.22-.94-2.22-.95-2.22-.94-2.23-.94-2.22-.95-2.22-.94-2.22-.94-2.23-.95-2.22-.94-2.22-.94-2.22-.94-2.23-.95-2.22-.94-2.22-.94-2.22-.95-2.23-.94-2.22-.94-2.22-.94-2.22-.95-2.23-.94-2.22-.94-2.22-.95-2.22-.94-2.23-.94-2.22-.94-2.22-.95-2.22-.94-2.23-.94-2.22-.95-2.22-.94-2.22-.94-2.23-.94-2.22-.95-2.22-.94-2.23-.94-2.22-.95-2.22-.94-2.22-.94-2.23-.94-2.22-.95-2.22-.94-2.22-.94-2.23-.95-2.22-.94-2.22-.94-2.22-.94-2.23-.95-2.22-.94-2.22-.94-2.22-.95-2.23-.94-2.22-.94-2.22-.94-2.22-.95-2.23-.94-2.22-.94-2.22-.95-2.22-.94-2.23-.94-2.22-.94-2.22-.95-2.22-.94-2.23-.94-2.22-.95-2.22-.94-2.22-.94-2.23-.95-2.22-.94-2.22-.94-2.22-.94-2.23-.95-2.22-.94-2.22-.94-2.22-.95-2.23-.94-2.22-.94-2.22-.94-2.22-.95-2.23-.94-2.22-.94" style="stroke-width:1.07;stroke:#000000;stroke-opacity:0.10;stroke-linecap:butt"/><path d="m522.77 392.99-2.49-.27-2.49-.28-2.5-.28-2.49-.28-2.49-.28-2.49-.27-2.5-.28-2.49-.28-2.49-.28-2.49-.27-2.5-.28-2.49-.28-2.49-.28-2.49-.27-2.5-.28-2.49-.28-2.49-.28-2.5-.27-2.49-.28-2.49-.28-2.49-.28-2.5-.27-2.49-.28-2.49-.28-2.49-.28-2.5-.27-2.49-.28-2.49-.28-2.49-.28-2.5-.28-2.49-.27-2.49-.28-2.49-.28-2.5-.28-2.49-.27-2.49-.28-2.5-.28-2.49-.28-2.49-.27-2.49-.28-2.5-.28-2.49-.28-2.49-.27-2.49-.28-2.5-.28-2.49-.28-2.49-.27-2.49-.28-2.5-.28-2.49-.28-2.49-.27-2.49-.28-2.5-.28-2.49-.28-2.49-.28-2.49-.27-2.5-.28-2.49-.28-2.49-.28-2.5-.27-2.49-.28-2.49-.28-2.49-.28-2.5-.27-2.49-.28-2.49-.28-2.49-.28-2.5-.27-2.49-.28-2.49-.28-2.49-.28-2.5-.27-2.49-.28-2.49-.28-2.49-.28-2.5-.27-2.49-.28-2.49-.28-2.5-.28-2.49-.28-2.49-.27-2.49-.28-2.5-.28-2.49-.28-2.49-.27-2.49-.28-2.5-.28-2.49-.28-2.49-.27-2.49-.28-2.5-.28-2.49-.28-2.49-.27-2.49-.28-2.5-.28-2.49-.28-2.49-.27-2.49-.28-2.5-.28m-44.73-224.56.73 1.6.72 1.6.72 1.61.72 1.6.72 1.6.73 1.61.72 1.6.72 1.6.72 1.6.72 1.61.73 1.6.72 1.6.72 1.61.72 1.6.72 1.6.72 1.61.73 1.6.72 1.6.72 1.61.72 1.6.72 1.6.73 1.6.72 1.61.72 1.6.72 1.6.72 1.61.73 1.6.72 1.6.72 1.61.72 1.6.72 1.6.72 1.6.73 1.61.72 1.6.72 1.6.72 1.61.72 1.6.73 1.6.72 1.61.72 1.6.72 1.6.72 1.6.73 1.61.72 1.6.72 1.6.72 1.61.72 1.6.72 1.6.73 1.61.72 1.6.72 1.6.72 1.61.72 1.6.73 1.6.72 1.6.72 1.61.72 1.6.72 1.6.73 1.61.72 1.6.72 1.6.72 1.61.72 1.6.73 1.6.72 1.6.72 1.61.72 1.6.72 1.6.72 1.61.73 1.6.72 1.6.72 1.61.72 1.6.72 1.6.73 1.6.72 1.61.72 1.6.72 1.6.72 1.61.73 1.6.72 1.6.72 1.61.72 1.6.72 1.6.72 1.61.73 1.6.72 1.6.72 1.6.72 1.61.72 1.6.73 1.6.72 1.61.72 1.6.72 1.6.72 1.61.73 1.6.72 1.6.72 1.6.72 1.61m-71.47-158.7.46 2.27.45 2.26.45 2.27.45 2.27.45 2.27.46 2.27.45 2.27.45 2.26.45 2.27.45 2.27.45 2.27.46 2.27.45 2.27.45 2.26.45 2.27.45 2.27.46 2.27.45 2.27.45 2.27.45 2.26.45 2.27.45 2.27.46 2.27.45 2.27.45 2.27.45 2.26.45 2.27.46 2.27.45 2.27.45 2.27.45 2.27.45 2.26.45 2.27.46 2.27.45 2.27.45 2.27.45 2.27.45 2.26.45 2.27.46 2.27.45 2.27.45 2.27.45 2.26.45 2.27.46 2.27.45 2.27.45 2.27.45 2.27.45 2.26.45 2.27.46 2.27.45 2.27.45 2.27.45 2.27.45 2.26.46 2.27.45 2.27.45 2.27.45 2.27.45 2.27.45 2.26.46 2.27.45 2.27.45 2.27.45 2.27.45 2.27.46 2.26.45 2.27.45 2.27.45 2.27.45 2.27.45 2.27.46 2.26.45 2.27.45 2.27.45 2.27.45 2.27.45 2.27.46 2.26.45 2.27.45 2.27.45 2.27.45 2.27.46 2.27.45 2.26.45 2.27.45 2.27.45 2.27.45 2.27.46 2.27.45 2.26.45 2.27.45 2.27.45 2.27.46 2.27.45 2.27.45 2.26.45 2.27.45 2.27m202.88-160.36-1.78.96-1.78.95-1.78.95-1.77.96-1.78.95-1.78.96-1.78.95-1.78.96-1.78.95-1.78.96-1.78.95-1.78.96-1.78.95-1.78.95-1.78.96-1.78.95-1.77.96-1.78.95-1.78.96-1.78.95-1.78.96-1.78.95-1.78.95-1.78.96-1.78.95-1.78.96-1.78.95-1.78.96-1.77.95-1.78.96-1.78.95-1.78.96-1.78.95-1.78.95-1.78.96-1.78.95-1.78.96-1.78.95-1.78.96-1.78.95-1.78.96-1.77.95-1.78.95-1.78.96-1.78.95-1.78.96-1.78.95-1.78.96-1.78.95-1.78.96-1.78.95-1.78.96-1.78.95-1.78.95-1.77.96-1.78.95-1.78.96-1.78.95-1.78.96-1.78.95-1.78.96-1.78.95-1.78.96-1.78.95-1.78.95-1.78.96-1.77.95-1.78.96-1.78.95-1.78.96-1.78.95-1.78.96-1.78.95-1.78.95-1.78.96-1.78.95-1.78.96-1.78.95-1.78.96-1.77.95-1.78.96-1.78.95-1.78.96-1.78.95-1.78.95-1.78.96-1.78.95-1.78.96-1.78.95-1.78.96-1.78.95-1.77.96-1.78.95-1.78.95-1.78.96-1.78.95-1.78.96-1.78.95-1.78.96m176.14-94.5-2.05 1.62-2.05 1.62-2.05 1.62-2.05 1.62-2.04 1.62-2.05 1.62-2.05 1.62-2.05 1.62-2.05 1.62-2.05 1.62-2.05 1.62-2.05 1.62-2.05 1.62-2.05 1.62-2.05 1.62-2.05 1.62-2.05 1.62-2.05 1.62-2.04 1.62-2.05 1.62-2.05 1.62-2.05 1.62-2.05 1.62-2.05 1.62-2.05 1.62-2.05 1.62-2.05 1.62-2.05 1.62-2.05 1.61-2.05 1.62-2.05 1.62-2.05 1.62-2.04 1.62-2.05 1.62-2.05 1.62-2.05 1.62-2.05 1.62-2.05 1.62-2.05 1.62-2.05 1.62-2.05 1.62-2.05 1.62-2.05 1.62-2.05 1.62-2.05 1.62-2.05 1.62-2.04 1.62-2.05 1.62-2.05 1.62-2.05 1.62-2.05 1.62-2.05 1.62-2.05 1.62-2.05 1.62-2.05 1.62-2.05 1.62-2.05 1.62-2.05 1.62-2.05 1.62-2.05 1.62-2.04 1.62-2.05 1.62-2.05 1.62-2.05 1.62-2.05 1.62-2.05 1.62-2.05 1.62-2.05 1.62-2.05 1.62-2.05 1.62-2.05 1.62-2.05 1.62-2.05 1.62-2.05 1.62-2.04 1.62-2.05 1.62-2.05 1.62-2.05 1.61-2.05 1.62-2.05 1.62-2.05 1.62-2.05 1.62-2.05 1.62-2.05 1.62-2.05 1.62-2.05 1.62-2.05 1.62-2.05 1.62-2.04 1.62-2.05 1.62-2.05 1.62-2.05 1.62-2.05 1.62-2.05 1.62-2.05 1.62-2.05 1.62-2.05 1.62-2.05 1.62-2.05 1.62" style="stroke-width:1.07;stroke:#000000;stroke-opacity:0.10;stroke-linecap:butt"/><path d="m55.97 272.16 2.49.28 2.49.28 2.5.28 2.49.28 2.49.27 2.49.28 2.5.28 2.49.28 2.49.27 2.49.28 2.5.28 2.49.28 2.49.27 2.5.28 2.49.28 2.49.28 2.49.27 2.5.28 2.49.28 2.49.28 2.49.27 2.5.28 2.49.28 2.49.28 2.49.27 2.5.28 2.49.28 2.49.28 2.49.28 2.5.27 2.49.28 2.49.28 2.5.28 2.49.27 2.49.28 2.49.28 2.5.28 2.49.27 2.49.28 2.49.28 2.5.28 2.49.27 2.49.28 2.49.28 2.5.28 2.49.27 2.49.28 2.5.28 2.49.28 2.49.28 2.49.27 2.5.28 2.49.28 2.49.28 2.49.27 2.5.28 2.49.28 2.49.28 2.49.27 2.5.28 2.49.28 2.49.28 2.5.27 2.49.28 2.49.28 2.49.28 2.5.27 2.49.28 2.49.28 2.49.28 2.5.27 2.49.28 2.49.28 2.49.28 2.5.28 2.49.27 2.49.28 2.49.28 2.5.28 2.49.27 2.49.28 2.5.28 2.49.28 2.49.27 2.49.28 2.5.28 2.49.28 2.49.27 2.49.28 2.5.28 2.49.28 2.49.27 2.49.28 2.5.28 2.49.28 2.49.27 2.5.28 2.49.28 2.49.28M55.97 272.16l2.22.95 2.22.94 2.23.94 2.22.95 2.22.94 2.22.94 2.23.95 2.22.94 2.22.94 2.22.94 2.23.95 2.22.94 2.22.94 2.22.95 2.23.94 2.22.94 2.22.94 2.22.95 2.23.94 2.22.94 2.22.95 2.22.94 2.23.94 2.22.94 2.22.95 2.22.94 2.23.94 2.22.95 2.22.94 2.22.94 2.23.94 2.22.95 2.22.94 2.23.94 2.22.95 2.22.94 2.22.94 2.23.94 2.22.95 2.22.94 2.22.94 2.23.95 2.22.94 2.22.94 2.22.94 2.23.95 2.22.94 2.22.94 2.22.95 2.23.94 2.22.94 2.22.94 2.22.95 2.23.94 2.22.94 2.22.95 2.22.94 2.23.94 2.22.95 2.22.94 2.22.94 2.23.94 2.22.95 2.22.94 2.22.94 2.23.95 2.22.94 2.22.94 2.23.94 2.22.95 2.22.94 2.22.94 2.23.95 2.22.94 2.22.94 2.22.94 2.23.95 2.22.94 2.22.94 2.22.95 2.23.94 2.22.94 2.22.94 2.22.95 2.23.94 2.22.94 2.22.95 2.22.94 2.23.94 2.22.94 2.22.95 2.22.94 2.23.94 2.22.95 2.22.94 2.22.94 2.23.94 2.22.95 2.22.94m0 0 .62-.58.61-.58.6-.58.59-.58.59-.58.58-.59.58-.59.56-.59.56-.59.55-.59.55-.59.54-.6.53-.6.52-.6.52-.6.51-.61.5-.6.5-.61.49-.61.48-.61.48-.61.46-.62.46-.61.46-.62.45-.62.43-.63.44-.62.42-.62.42-.63.41-.63.41-.63.39-.64.39-.63.39-.64.37-.63.37-.64.36-.65.36-.64.35-.65.34-.64.33-.65.33-.65.32-.66.31-.65.3-.66.3-.65.29-.66.29-.67.28-.66.27-.66.26-.67.25-.67.25-.67.24-.67.24-.68.23-.67.22-.68.21-.68.21-.68.2-.69.19-.68.19-.69.17-.69.18-.69.16-.69.16-.69.15-.7.14-.7.14-.7.12-.7.13-.7.11-.71.11-.7.1-.71.09-.71.09-.71.08-.72.07-.71.07-.72.05-.72.06-.72.04-.73.04-.72.03-.73.02-.73.02-.73.01-.73v-.73l-.01-.74-.01-.73-.02-.74-.03-.74-.03-.75-.04-.74-.05-.75-.05-.75-.06-.75-.07-.75-.08-.75" style="stroke-width:1.07;stroke:#000000;stroke-opacity:0.10;stroke-linecap:butt"/><path d="m276 365.51.48-.61.47-.61.47-.62.47-.61.46-.62.45-.62.46-.62.44-.62.45-.62.44-.62.43-.62.43-.63.43-.62.42-.63.42-.63.42-.63.41-.63.4-.63.4-.63.4-.63.39-.63.39-.64.39-.64.38-.63.37-.64.37-.64.37-.64.37-.64.35-.64.36-.65.35-.64.35-.65.34-.65.34-.64.33-.65.33-.65.32-.65.33-.66.31-.65.31-.65.31-.66.31-.66.3-.65.29-.66.29-.66.29-.66.28-.67.28-.66.28-.66.27-.67.26-.66.26-.67.26-.67.25-.67.25-.67.25-.67.24-.68.23-.67.24-.67.22-.68.23-.68.22-.68.21-.68.21-.68.21-.68.2-.68.2-.68.19-.69.19-.68.19-.69.18-.69.18-.69.17-.69.17-.69.16-.69.16-.7.16-.69.15-.7.15-.69.14-.7.14-.7.13-.7.13-.7.13-.7.12-.7.12-.71.11-.7.11-.71.1-.71.11-.71.09-.71.09-.71.09-.71.09-.71.08-.72.07-.71.07-.72.07-.71.06-.72" style="stroke-width:1.07;stroke:#000000;stroke-opacity:0.10;stroke-linecap:butt"/><path d="m276 365.51.34-.65.34-.64.34-.65.33-.65.33-.65.34-.65.33-.65.33-.65.33-.65.32-.65.33-.65.32-.65.32-.66.32-.65.32-.65.32-.65.32-.66.31-.65.32-.66.31-.65.31-.65.31-.66.31-.66.31-.65.3-.66.3-.65.31-.66.3-.66.3-.66.3-.65.29-.66.3-.66.29-.66.3-.66.29-.66.29-.66.29-.66.28-.66.29-.66.28-.67.28-.66.29-.66.28-.66.27-.67.28-.66.28-.66.27-.67.27-.66.28-.67.27-.66.26-.67.27-.66.27-.67.26-.67.27-.66.26-.67.26-.67.26-.67.25-.67.26-.66.25-.67.26-.67.25-.67.25-.67.25-.67.25-.68.24-.67.25-.67.24-.67.24-.67.24-.68.24-.67.24-.67.23-.68.24-.67.23-.68.23-.67.24-.68.22-.67.23-.68.23-.67.22-.68.23-.68.22-.68.22-.67.22-.68.22-.68.21-.68.22-.68.21-.68.21-.68.21-.68.21-.68.21-.68.21-.68.2-.68.21-.69.2-.68.2-.68" style="stroke-width:1.07;stroke:#000000;stroke-opacity:0.10;stroke-linecap:butt"/><path d="m276 365.51.2-.68.21-.68.2-.69.2-.68.21-.68.21-.68.21-.68.21-.68.21-.68.21-.68.22-.68.22-.68.21-.68.22-.68.22-.68.23-.67.22-.68.22-.68.23-.67.23-.68.23-.68.23-.67.23-.68.23-.67.24-.68.23-.67.24-.67.24-.68.24-.67.24-.67.25-.67.24-.68.25-.67.24-.67.25-.67.25-.67.26-.67.25-.67.25-.67.26-.67.26-.66.26-.67.26-.67.26-.67.26-.67.27-.66.26-.67.27-.66.27-.67.27-.67.27-.66.27-.66.28-.67.27-.66.28-.67.28-.66.28-.66.28-.66.28-.67.29-.66.28-.66.29-.66.29-.66.29-.66.29-.66.29-.66.29-.66.3-.66.3-.66.3-.66.29-.65.31-.66.3-.66.3-.65.31-.66.3-.66.31-.65.31-.66.31-.65.32-.66.31-.65.32-.65.31-.66.32-.65.32-.65.32-.66.32-.65.33-.65.32-.65.33-.65.33-.65.33-.65.33-.65.33-.65.33-.65.34-.65.33-.65.34-.64.34-.65" style="stroke-width:1.07;stroke:#000000;stroke-opacity:0.10;stroke-linecap:butt"/><path d="m276 365.51.06-.72.07-.71.07-.72.08-.72.08-.71.08-.71.09-.71.09-.72.1-.71.1-.7.1-.71.11-.71.12-.7.11-.71.12-.7.13-.7.13-.7.14-.7.13-.7.15-.7.14-.7.16-.69.15-.7.16-.69.17-.69.16-.69.18-.69.17-.69.19-.69.18-.69.19-.68.19-.69.2-.68.2-.68.21-.69.21-.68.22-.68.22-.67.22-.68.23-.68.23-.67.24-.68.24-.67.24-.67.25-.67.25-.67.26-.67.26-.67.27-.66.27-.67.27-.66.28-.67.28-.66.29-.66.29-.66.3-.66.3-.66.3-.65.31-.66.31-.65.32-.66.32-.65.32-.65.33-.65.34-.65.33-.65.35-.64.34-.65.35-.64.36-.65.36-.64.36-.64.37-.64.37-.64.38-.64.38-.64.38-.63.39-.64.39-.63.4-.63.4-.64.41-.63.41-.63.41-.62.42-.63.42-.63.43-.62.43-.63.43-.62.44-.62.45-.62.45-.62.45-.62.45-.62.47-.62.46-.61.47-.62.47-.61.48-.61" style="stroke-width:1.07;stroke:#000000;stroke-opacity:0.10;stroke-linecap:butt"/><path d="m276 365.51-.07-.75-.07-.75-.06-.75-.06-.75-.05-.75-.04-.74-.03-.75-.03-.74-.02-.74-.01-.73v-1.47l.01-.74.01-.73.03-.72.03-.73.03-.73.05-.72.05-.72.06-.72.06-.72.07-.71.08-.72.09-.71.09-.71.1-.71.11-.7.12-.71.12-.7.13-.7.13-.7.15-.7.15-.7.15-.69.17-.69.17-.69.18-.69.18-.69.2-.69.19-.68.21-.68.22-.68.22-.68.22-.67.24-.68.24-.67.25-.67.25-.67.27-.67.27-.66.28-.67.28-.66.29-.66.3-.66.3-.65.32-.66.32-.65.32-.65.34-.65.34-.65.34-.64.36-.65.36-.64.37-.64.38-.64.38-.63.39-.64.4-.63.4-.63.41-.63.42-.63.43-.62.43-.63.44-.62.44-.62.46-.62.46-.61.47-.62.47-.61.48-.61.49-.61.5-.61.5-.61.51-.6.52-.6.52-.6.53-.6.54-.6.55-.59.55-.6.56-.59.57-.59.57-.58.58-.59.59-.58.59-.59.61-.58.6-.58.62-.57" style="stroke-width:1.07;stroke:#000000;stroke-opacity:0.10;stroke-linecap:butt"/><path d="m99.87 457.8 1.91 3.32h-3.83zM347.46 522l1.92 3.31h-3.83zm175.31-131.22 1.92 3.32h-3.83zm-291.5-252.04 1.92 3.31h-3.83zm247.61 64.2 1.92 3.32h-3.83zM55.97 269.95l1.91 3.32h-3.83z" style="stroke-width:0.71;stroke:none;fill:#00BA38"/><path d="M269.25 372.27h13.51v-13.52h-13.51z" style="stroke-width:0.71;stroke:none;fill:#619CFF"/><circle cx="302.74" cy="299.65" r="6.76" style="stroke-width:0.71;stroke:none;fill:#F8766D"/><path d="m94.66 464.71 4.35-3.92m253.58 58.8-4.27 3.85m169.3-125.81 4.29-3.86M226.16 145.55l4.26-3.83M484 200.54l-4.26 3.84m-418.68 63.2-4.23 3.81m224.44 89.58-4.39 3.78m20.54-60.51 4.44-3.83" style="stroke-width:0.53;stroke:#BFBFBF"/><path d="M69.41 475.99h35.74-.09l.35-.01.34-.07.33-.12.3-.18.27-.22.23-.26.18-.29.14-.32.08-.34.03-.35h0v-6.96h0l-.03-.35-.08-.33-.14-.32-.18-.3-.23-.26-.27-.22-.3-.17-.33-.12-.34-.07-.26-.02H69.41l.26.02-.35-.02-.34.04-.34.1-.31.15-.29.2-.25.24-.21.28-.16.3-.11.33-.05.35-.01.17v6.96l.01-.17v.35l.05.34.11.33.16.31.21.28.25.24.29.19.31.15.34.1.34.04z" style="stroke-width:0.53;fill:#FFFFFF;fill-opacity:0.50"/><text x="87.28" y="472.39" lengthAdjust="spacingAndGlyphs" style="font-size:5.69px;font-family:&quot;Arial&quot;" text-anchor="middle" textLength="32.86">916-918 LLC</text><path d="M336.04 519.59h47.75-.09l.35-.01.34-.07.33-.13.3-.17.27-.22.23-.26.18-.3.14-.31.08-.34.03-.35h0v-6.96h0l-.03-.35-.08-.34-.14-.32-.18-.29-.23-.26-.27-.22-.3-.17-.33-.13-.34-.07-.26-.01h-47.75l.26.01-.35-.01-.34.04-.34.1-.31.15-.29.2-.25.24-.21.27-.16.31-.11.33-.05.34-.01.18v6.96l.01-.17v.34l.05.35.11.33.16.31.21.27.25.24.29.2.31.15.34.1.34.04z" style="stroke-width:0.53;fill:#FFFFFF;fill-opacity:0.50"/><text x="359.91" y="515.99" lengthAdjust="spacingAndGlyphs" style="font-size:5.69px;font-family:&quot;Arial&quot;" text-anchor="middle" textLength="44.87">1517-19-19A LLC</text><path d="M490.74 408.91h38.9-.09l.35-.02.34-.07.32-.12.3-.17.27-.22.23-.26.19-.3.14-.32.08-.33.03-.35h0v-6.96h0l-.03-.35-.08-.34-.14-.32-.19-.29-.23-.26-.27-.22-.3-.17-.32-.13-.34-.07-.26-.01h-38.9l.26.01-.35-.01-.35.04-.33.1-.31.15-.29.19-.25.25-.21.27-.16.31-.11.33-.06.34v7.14-.17.34l.06.35.11.33.16.3.21.28.25.24.29.2.31.15.33.1.35.04z" style="stroke-width:0.53;fill:#FFFFFF;fill-opacity:0.50"/><text x="510.19" y="405.31" lengthAdjust="spacingAndGlyphs" style="font-size:5.69px;font-family:&quot;Arial&quot;" text-anchor="middle" textLength="36.02">1650-A-B LLC</text><path d="M200.9 156.84h35.74-.09l.35-.02.34-.07.32-.12.3-.18.27-.22.23-.26.19-.29.14-.32.08-.34.03-.34h0v-6.97h0l-.03-.34-.08-.34-.14-.32-.19-.29-.23-.26-.27-.22-.3-.18-.32-.12-.34-.07-.26-.02H200.9l.26.02-.35-.01-.35.04-.33.09-.31.15-.29.2-.25.24-.21.28-.16.31-.11.33-.06.34v7.14-.18.35l.06.34.11.33.16.31.21.28.25.24.29.2.31.15.33.09.35.05z" style="stroke-width:0.53;fill:#FFFFFF;fill-opacity:0.50"/><text x="218.77" y="153.24" lengthAdjust="spacingAndGlyphs" style="font-size:5.69px;font-family:&quot;Arial&quot;" text-anchor="middle" textLength="32.86">2149-51 LLC</text><path d="M467.44 200.54h47.75-.09l.35-.02.34-.07.32-.12.3-.17.27-.22.23-.26.19-.3.14-.32.08-.33.03-.35h0v-6.96h0l-.03-.35-.08-.34-.14-.32-.19-.29-.23-.26-.27-.22-.3-.17-.32-.13-.34-.07-.26-.01h-47.75l.26.01-.35-.01-.35.04-.33.1-.31.15-.29.19-.25.24-.21.28-.16.31-.11.33-.06.34v7.14-.17.34l.06.35.11.33.16.3.21.28.25.24.29.2.31.15.33.1.35.04z" style="stroke-width:0.53;fill:#FFFFFF;fill-opacity:0.50"/><text x="491.31" y="196.94" lengthAdjust="spacingAndGlyphs" style="font-size:5.69px;font-family:&quot;Arial&quot;" text-anchor="middle" textLength="44.87">2145-47-47A LLC</text><path d="M51.78 267.58h33.21-.08l.35-.02.34-.07.32-.12.3-.17.27-.22.23-.26.19-.3.13-.32.09-.33.02-.35h0v-6.96h0l-.02-.35-.09-.34-.13-.32-.19-.29-.23-.26-.27-.22-.3-.17-.32-.13-.34-.07-.27-.01H51.78l.26.01-.35-.01-.34.04-.33.1-.32.15-.28.19-.26.24-.2.28-.17.31-.11.33-.05.34-.01.18v6.96l.01-.17v.34l.05.35.11.33.17.3.2.28.26.24.28.2.32.15.33.1.34.04z" style="stroke-width:0.53;fill:#FFFFFF;fill-opacity:0.50"/><text x="68.39" y="263.98" lengthAdjust="spacingAndGlyphs" style="font-size:5.69px;font-family:&quot;Arial&quot;" text-anchor="middle" textLength="30.33">2361-A LLC</text><path d="M259.85 360.97h67.01-.09l.35-.02.34-.07.32-.12.3-.17.27-.22.23-.26.19-.3.14-.32.08-.34.03-.34h0v-15.16h0l-.03-.35-.08-.33-.14-.32-.19-.3-.23-.26-.27-.22-.3-.17-.32-.12-.34-.07-.26-.02h-67.01l.26.02-.35-.02-.34.04-.34.1-.31.15-.29.2-.25.24-.21.28-.16.3-.11.33-.06.35v15.33-.18.35l.06.34.11.33.16.31.21.28.25.24.29.2.31.15.34.09.34.05z" style="stroke-width:0.53;fill:#FFFFFF;fill-opacity:0.50"/><text x="293.35" y="349.17" lengthAdjust="spacingAndGlyphs" style="font-size:5.69px;font-family:&quot;Arial&quot;" text-anchor="middle" textLength="62.86">19430 TIMBERLINE DR,</text><text x="293.35" y="357.37" lengthAdjust="spacingAndGlyphs" style="font-size:5.69px;font-family:&quot;Arial&quot;" text-anchor="middle" textLength="64.13">BROOKFIELD, WI 53045</text><path d="M251.78 323.71h67.01-.09l.35-.01.34-.07.33-.12.3-.18.27-.22.23-.26.18-.29.14-.32.08-.34.03-.35h0V306.4h0l-.03-.35-.08-.34-.14-.32-.18-.29-.23-.26-.27-.22-.3-.17-.33-.13-.34-.07-.26-.01h-67.01l.26.01-.35-.01-.34.04-.34.1-.31.15-.29.19-.25.25-.21.27-.16.31-.11.33-.05.34-.01.18v15.15l.01-.17v.35l.05.34.11.33.16.31.21.28.25.24.29.19.31.15.34.1.34.04z" style="stroke-width:0.53;fill:#FFFFFF;fill-opacity:0.50"/><text x="285.29" y="311.92" lengthAdjust="spacingAndGlyphs" style="font-size:5.69px;font-family:&quot;Arial&quot;" text-anchor="middle" textLength="62.86">19430 TIMBERLINE DR,</text><text x="285.29" y="320.11" lengthAdjust="spacingAndGlyphs" style="font-size:5.69px;font-family:&quot;Arial&quot;" text-anchor="middle" textLength="64.13">BROOKFIELD, WI 53045</text></g><g clip-path="url(#cpMC4wMHw1NzYuMDB8MC4wMHw1NzYuMDA=)"><circle cx="196.98" cy="96.71" r="1.95" style="stroke-width:0.71;stroke:none;fill:#F8766D"/><path d="m273.33 93.67 2.63 4.56h-5.26z" style="stroke-width:0.71;stroke:none;fill:#00BA38"/><path d="M339.31 98.66h3.91v-3.91h-3.91z" style="stroke-width:0.71;stroke:none;fill:#619CFF"/><text x="211.09" y="99.86" lengthAdjust="spacingAndGlyphs" style="font-size:8.80px;font-family:&quot;Arial Narrow&quot;" textLength="48.12">mprop address</text><text x="287.45" y="99.86" lengthAdjust="spacingAndGlyphs" style="font-size:8.80px;font-family:&quot;Arial Narrow&quot;" textLength="39.69">owner name</text><text x="355.38" y="99.86" lengthAdjust="spacingAndGlyphs" style="font-size:8.80px;font-family:&quot;Arial Narrow&quot;" textLength="40.5">wdfi address</text><text x="32.63" y="65.12" lengthAdjust="spacingAndGlyphs" style="font-size:12.00px;font-family:&quot;Arial Narrow&quot;" textLength="246.76">includes 6 parcels, 15 units, and 6 distinct owner names.</text><text x="32.63" y="42.78" lengthAdjust="spacingAndGlyphs" style="font-size:18.00px;font-weight:bold;font-family:&quot;Arial Narrow&quot;" textLength="166.77">1517-19-19A LLC Group</text></g></svg>