<svg xmlns="http://www.w3.org/2000/svg" width="960" height="960" viewBox="0 0 720 720"><g class="svglite"><defs><style><![CDATA[.svglite line,.svglite polyline,.svglite polygon,.svglite path,.svglite circle{fill:none;stroke:#000000;stroke-linecap:round;stroke-linejoin:round;stroke-miterlimit:10.00}.svglite text{white-space:pre}.svglite g.glyphgroup path{fill:inherit;stroke:none}]]></style></defs><rect width="100%" height="100%" style="stroke-linecap:round;stroke-linejoin:round;stroke-miterlimit:10.00;stroke:none;fill:#FFFFFF"/><defs><clipPath id="cpMC4wMHw3MjAuMDB8MC4wMHw3MjAuMDA="><path d="M0 0h720v720H0z"/></clipPath></defs><g clip-path="url(#cpMC4wMHw3MjAuMDB8MC4wMHw3MjAuMDA=)"><path d="M0 0h720v720H0z" style="stroke-width:1.07;stroke:none;fill:#FFFFFF"/></g><defs><clipPath id="cpMjkuODl8NjkwLjExfDEyMi4xNHw2OTAuMTE="><path d="M29.89 122.14h660.22v567.97H29.89z"/></clipPath></defs><g clip-path="url(#cpMjkuODl8NjkwLjExfDEyMi4xNHw2OTAuMTE=)"><path d="m458.54 346.03-.51-.61-.5-.62-.51-.61-.51-.61-.51-.61-.51-.61-.51-.61-.5-.62-.51-.61-.51-.61-.51-.61-.51-.61-.5-.62-.51-.61-.51-.61-.51-.61-.51-.61-.51-.62-.5-.61-.51-.61-.51-.61-.51-.61-.51-.61-.51-.62-.5-.61-.51-.61-.51-.61-.51-.61-.51-.62-.5-.61-.51-.61-.51-.61-.51-.61-.51-.62-.51-.61-.5-.61-.51-.61-.51-.61-.51-.61-.51-.62-.51-.61-.5-.61-.51-.61-.51-.61-.51-.62-.51-.61-.5-.61-.51-.61-.51-.61-.51-.61-.51-.62-.51-.61-.5-.61-.51-.61-.51-.61-.51-.62-.51-.61-.51-.61-.5-.61-.51-.61-.51-.62-.51-.61-.51-.61-.5-.61-.51-.61-.51-.61-.51-.62-.51-.61-.51-.61-.5-.61-.51-.61-.51-.62-.51-.61-.51-.61-.51-.61-.5-.61-.51-.62-.51-.61-.51-.61-.51-.61-.51-.61-.5-.61-.51-.62-.51-.61-.51-.61-.51-.61-.5-.61-.51-.62-.51-.61-.51-.61-.51-.61-.51-.61-.5-.61-.51-.62-.51-.61-.51-.61-.51-.61-.51-.61-.5-.62m50.31 60.58-1.21.71-1.21.72-1.21.72-1.21.71-1.21.72-1.21.71-1.21.72-1.21.71-1.21.72-1.21.71-1.21.72-1.21.72-1.2.71-1.21.72-1.21.71-1.21.72-1.21.71-1.21.72-1.21.72-1.21.71-1.21.72-1.21.71-1.21.72-1.21.71-1.21.72-1.21.72-1.21.71-1.21.72-1.21.71-1.21.72-1.21.71-1.21.72-1.21.72-1.21.71-1.21.72-1.21.71-1.21.72-1.21.71-1.21.72-1.21.72-1.21.71-1.21.72-1.21.71-1.21.72-1.21.71-1.21.72-1.21.71-1.21.72-1.21.72-1.21.71-1.21.72-1.21.71-1.21.72-1.21.71-1.21.72-1.21.72-1.21.71-1.21.72-1.21.71-1.21.72-1.21.71-1.21.72-1.21.72-1.21.71-1.21.72-1.21.71-1.2.72-1.21.71-1.21.72-1.21.72-1.21.71-1.21.72-1.21.71-1.21.72-1.21.71-1.21.72-1.21.72-1.21.71-1.21.72-1.21.71-1.21.72-1.21.71-1.21.72-1.21.71-1.21.72-1.21.72-1.21.71-1.21.72-1.21.71-1.21.72-1.21.71-1.21.72-1.21.72-1.21.71-1.21.72-1.21.71-1.21.72-1.21.71-1.21.72" style="stroke-width:1.07;stroke:#000000;stroke-opacity:0.10;stroke-linecap:butt"/><path d="m539.01 254.07-1.32.32-1.32.32-1.33.31-1.32.32-1.32.32-1.32.31-1.32.32-1.32.32-1.32.32-1.32.31-1.32.32-1.32.32-1.33.31-1.32.32-1.32.32-1.32.31-1.32.32-1.32.32-1.32.31-1.32.32-1.32.32-1.33.32-1.32.31-1.32.32-1.32.32-1.32.31-1.32.32-1.32.32-1.32.31-1.32.32-1.32.32-1.33.32-1.32.31-1.32.32-1.32.32-1.32.31-1.32.32-1.32.32-1.32.31-1.32.32-1.32.32-1.33.32-1.32.31-1.32.32-1.32.32-1.32.31-1.32.32-1.32.32-1.32.31-1.32.32-1.32.32-1.33.32-1.32.31-1.32.32-1.32.32-1.32.31-1.32.32-1.32.32-1.32.31-1.32.32-1.32.32-1.33.32-1.32.31-1.32.32-1.32.32-1.32.31-1.32.32-1.32.32-1.32.31-1.32.32-1.32.32-1.33.32-1.32.31-1.32.32-1.32.32-1.32.31-1.32.32-1.32.32-1.32.31-1.32.32-1.33.32-1.32.32-1.32.31-1.32.32-1.32.32-1.32.31-1.32.32-1.32.32-1.32.31-1.32.32-1.33.32-1.32.32-1.32.31-1.32.32-1.32.32-1.32.31-1.32.32-1.32.32-1.32.31m130.78-31.38.57.5.57.49.57.5.57.49.58.5.57.49.57.5.57.49.57.5.57.49.58.5.57.49.57.5.57.5.57.49.57.5.58.49.57.5.57.49.57.5.57.49.57.5.57.49.58.5.57.49.57.5.57.49.57.5.57.49.58.5.57.49.57.5.57.49.57.5.57.49.58.5.57.49.57.5.57.5.57.49.57.5.58.49.57.5.57.49.57.5.57.49.57.5.58.49.57.5.57.49.57.5.57.49.57.5.58.49.57.5.57.49.57.5.57.49.57.5.58.49.57.5.57.49.57.5.57.5.57.49.58.5.57.49.57.5.57.49.57.5.57.49.58.5.57.49.57.5.57.49.57.5.57.49.57.5.58.49.57.5.57.49.57.5.57.49.57.5.58.49.57.5.57.5.57.49.57.5.57.49.58.5.57.49.57.5.57.49.57.5.57.49.58.5.57.49.57.5m-143.72 87.63-.44-1.06-.44-1.06-.44-1.07-.44-1.06-.44-1.07-.44-1.06-.44-1.06-.44-1.07-.44-1.06-.45-1.06-.44-1.07-.44-1.06-.44-1.06-.44-1.07-.44-1.06-.44-1.06-.44-1.07-.44-1.06-.44-1.06-.45-1.07-.44-1.06-.44-1.06-.44-1.07-.44-1.06-.44-1.06-.44-1.07-.44-1.06-.44-1.06-.44-1.07-.45-1.06-.44-1.06-.44-1.07-.44-1.06-.44-1.06-.44-1.07-.44-1.06-.44-1.06-.44-1.07-.44-1.06-.45-1.06-.44-1.07-.44-1.06-.44-1.06-.44-1.07-.44-1.06-.44-1.07-.44-1.06-.44-1.06-.44-1.07-.45-1.06-.44-1.06-.44-1.07-.44-1.06-.44-1.06-.44-1.07-.44-1.06-.44-1.06-.44-1.07-.44-1.06-.45-1.06-.44-1.07-.44-1.06-.44-1.06-.44-1.07-.44-1.06-.44-1.06-.44-1.07-.44-1.06-.44-1.06-.44-1.07-.45-1.06-.44-1.06-.44-1.07-.44-1.06-.44-1.06-.44-1.07-.44-1.06-.44-1.06-.44-1.07-.44-1.06-.45-1.06-.44-1.07-.44-1.06-.44-1.06-.44-1.07-.44-1.06-.44-1.07-.44-1.06-.44-1.06-.44-1.07-.45-1.06-.44-1.06-.44-1.07-.44-1.06-.44-1.06-.44-1.07-.44-1.06-.44-1.06-.44-1.07m43.65 105.28-1.14.27-1.14.26-1.14.26-1.15.27-1.14.26-1.14.27-1.14.26-1.15.27-1.14.26-1.14.26-1.14.27-1.15.26-1.14.27-1.14.26-1.14.26-1.15.27-1.14.26-1.14.27-1.14.26-1.15.26-1.14.27-1.14.26-1.14.27-1.15.26-1.14.27-1.14.26-1.14.26-1.15.27-1.14.26-1.14.27-1.15.26-1.14.26-1.14.27-1.14.26-1.15.27-1.14.26-1.14.26-1.14.27-1.15.26-1.14.27-1.14.26-1.14.27-1.15.26-1.14.26-1.14.27-1.14.26-1.15.27-1.14.26-1.14.26-1.14.27-1.15.26-1.14.27-1.14.26-1.14.26-1.15.27-1.14.26-1.14.27-1.14.26-1.15.27-1.14.26-1.14.26-1.14.27-1.15.26-1.14.27-1.14.26-1.14.26-1.15.27-1.14.26-1.14.27-1.14.26-1.15.26-1.14.27-1.14.26-1.15.27-1.14.26-1.14.27-1.14.26-1.15.26-1.14.27-1.14.26-1.14.27-1.15.26-1.14.26-1.14.27-1.14.26-1.15.27-1.14.26-1.14.26-1.14.27-1.15.26-1.14.27-1.14.26-1.14.27-1.15.26-1.14.26-1.14.27-1.14.26-1.15.27-1.14.26" style="stroke-width:1.07;stroke:#000000;stroke-opacity:0.10;stroke-linecap:butt"/><path d="m544.56 210.87-1.37.76-1.38.75-1.38.75-1.37.76-1.38.75-1.38.75-1.38.76-1.37.75-1.38.75-1.38.76-1.37.75-1.38.75-1.38.76-1.38.75-1.37.75-1.38.76-1.38.75-1.37.75-1.38.76-1.38.75-1.38.75-1.37.76-1.38.75-1.38.75-1.37.76-1.38.75-1.38.75-1.38.76-1.37.75-1.38.75-1.38.76-1.37.75-1.38.75-1.38.76-1.38.75-1.37.75-1.38.76-1.38.75-1.37.75-1.38.76-1.38.75-1.38.75-1.37.76-1.38.75-1.38.75-1.37.76-1.38.75-1.38.75-1.38.76-1.37.75-1.38.75-1.38.76-1.37.75-1.38.75-1.38.76-1.38.75-1.37.75-1.38.76-1.38.75-1.37.75-1.38.76-1.38.75-1.38.75-1.37.76-1.38.75-1.38.75-1.37.76-1.38.75-1.38.75-1.38.76-1.37.75-1.38.75-1.38.76-1.37.75-1.38.75-1.38.76-1.38.75-1.37.75-1.38.76-1.38.75-1.37.75-1.38.76-1.38.75-1.38.75-1.37.76-1.38.75-1.38.75-1.37.76-1.38.75-1.38.75-1.38.76-1.37.75-1.38.75-1.38.76-1.37.75-1.38.75-1.38.76-1.38.75-1.37.75m-58.29 55.08.59-.56.59-.55.59-.56.58-.56.59-.55.59-.56.59-.56.59-.55.59-.56.59-.55.59-.56.58-.56.59-.55.59-.56.59-.56.59-.55.59-.56.59-.56.59-.55.58-.56.59-.55.59-.56.59-.56.59-.55.59-.56.59-.56.59-.55.58-.56.59-.55.59-.56.59-.56.59-.55.59-.56.59-.56.59-.55.58-.56.59-.56.59-.55.59-.56.59-.55.59-.56.59-.56.59-.55.58-.56.59-.56.59-.55.59-.56.59-.55.59-.56.59-.56.59-.55.58-.56.59-.56.59-.55.59-.56.59-.55.59-.56.59-.56.59-.55.58-.56.59-.56.59-.55.59-.56.59-.56.59-.55.59-.56.59-.55.58-.56.59-.56.59-.55.59-.56.59-.56.59-.55.59-.56.59-.55.59-.56.58-.56.59-.55.59-.56.59-.56.59-.55.59-.56.59-.56.59-.55.58-.56.59-.55.59-.56.59-.56.59-.55.59-.56.59-.56.59-.55.58-.56.59-.55.59-.56.59-.56.59-.55.59-.56.59-.56m-58.29 55.08-.11.77-.12.77-.11.77-.11.77-.11.77-.12.78-.11.77-.11.77-.12.77-.11.77-.11.77-.11.77-.12.77-.11.78-.11.77-.12.77-.11.77-.11.77-.11.77-.12.77-.11.77-.11.78-.12.77-.11.77-.11.77-.11.77-.12.77-.11.77-.11.77-.12.78-.11.77-.11.77-.11.77-.12.77-.11.77-.11.77-.11.77-.12.78-.11.77-.11.77-.12.77-.11.77-.11.77-.11.77-.12.77-.11.77-.11.78-.12.77-.11.77-.11.77-.11.77-.12.77-.11.77-.11.77-.12.78-.11.77-.11.77-.11.77-.12.77-.11.77-.11.77-.11.77-.12.78-.11.77-.11.77-.12.77-.11.77-.11.77-.11.77-.12.77-.11.78-.11.77-.12.77-.11.77-.11.77-.11.77-.12.77-.11.77-.11.78-.12.77-.11.77-.11.77-.11.77-.12.77-.11.77-.11.77-.12.78-.11.77-.11.77-.11.77-.12.77-.11.77-.11.77-.11.77-.12.78-.11.77-.11.77-.12.77-.11.77" style="stroke-width:1.07;stroke:#000000;stroke-opacity:0.10;stroke-linecap:butt"/><path d="m466.69 211.87-.59.74-.59.75-.59.74-.59.74-.59.75-.59.74-.59.74-.59.74-.59.75-.59.74-.59.74-.59.75-.59.74-.59.74-.6.75-.59.74-.59.74-.59.75-.59.74-.59.74-.59.75-.59.74-.59.74-.59.75-.59.74-.59.74-.59.75-.59.74-.59.74-.59.75-.59.74-.6.74-.59.75-.59.74-.59.74-.59.75-.59.74-.59.74-.59.75-.59.74-.59.74-.59.75-.59.74-.59.74-.59.75-.59.74-.59.74-.59.75-.59.74-.6.74-.59.75-.59.74-.59.74-.59.75-.59.74-.59.74-.59.75-.59.74-.59.74-.59.75-.59.74-.59.74-.59.75-.59.74-.59.74-.59.75-.6.74-.59.74-.59.75-.59.74-.59.74-.59.75-.59.74-.59.74-.59.75-.59.74-.59.74-.59.74-.59.75-.59.74-.59.74-.59.75-.59.74-.59.74-.6.75-.59.74-.59.74-.59.75-.59.74-.59.74-.59.75-.59.74-.59.74-.59.75-.59.74-.59.74-.59.75-.59.74-.59.74m3.91-97.94-.04.98-.04.99-.04.99-.04.99-.03.99-.04.99-.04.99-.04.99-.04.99-.04.99-.04.99-.04.99-.04.99-.04.99-.04.99-.04.99-.04.98-.04.99-.04.99-.04.99-.04.99-.04.99-.04.99-.04.99-.04.99-.04.99-.04.99-.03.99-.04.99-.04.99-.04.99-.04.99-.04.98-.04.99-.04.99-.04.99-.04.99-.04.99-.04.99-.04.99-.04.99-.04.99-.04.99-.04.99-.04.99-.04.99-.04.99-.04.99-.04.98-.04.99-.03.99-.04.99-.04.99-.04.99-.04.99-.04.99-.04.99-.04.99-.04.99-.04.99-.04.99-.04.99-.04.99-.04.99-.04.99-.04.98-.04.99-.04.99-.04.99-.04.99-.04.99-.04.99-.03.99-.04.99-.04.99-.04.99-.04.99-.04.99-.04.99-.04.99-.04.99-.04.98-.04.99-.04.99-.04.99-.04.99-.04.99-.04.99-.04.99-.04.99-.04.99-.04.99-.04.99-.04.99-.04.99-.03.99-.04.99-.04.98-.04.99" style="stroke-width:1.07;stroke:#000000;stroke-opacity:0.10;stroke-linecap:butt"/><path d="m519.2 357.9-1.09-.74-1.08-.75-1.09-.75-1.09-.74-1.09-.75-1.09-.74-1.1-.75-1.09-.74-1.09-.75-1.1-.74-1.09-.74-1.1-.75-1.09-.74-1.1-.74-1.09-.75-1.1-.74-1.1-.74-1.1-.74-1.1-.74-1.1-.75-1.1-.74-1.1-.74-1.11-.74-1.1-.74-1.1-.74-1.11-.74-1.1-.73-1.11-.74-1.11-.74-1.1-.74-1.11-.74-1.11-.73-1.11-.74-1.11-.74-1.11-.73-1.11-.74-1.11-.74-1.12-.73-1.11-.74-1.12-.73-1.11-.74-1.12-.73-1.11-.73-1.12-.74-1.12-.73-1.11-.74-1.12-.73-1.12-.73-1.12-.73-1.12-.73-1.13-.74-1.12-.73-1.12-.73-1.12-.73-1.13-.73-1.12-.73-1.13-.73-1.13-.73-1.12-.73-1.13-.73-1.13-.72-1.13-.73-1.13-.73-1.13-.73-1.13-.72-1.13-.73-1.13-.73-1.14-.72-1.13-.73-1.14-.73-1.13-.72-1.14-.73-1.13-.72-1.14-.73-1.14-.72-1.14-.72-1.14-.73-1.14-.72-1.14-.72-1.14-.73-1.14-.72-1.14-.72-1.15-.72-1.14-.72-1.15-.72-1.14-.72-1.15-.72-1.14-.73-1.15-.71-1.15-.72-1.15-.72-1.15-.72-1.15-.72-1.15-.72-1.15-.72-1.15-.71-1.16-.72-1.15-.72-1.15-.72M519.2 357.9l-1.85.58-1.85.57-1.85.57-1.84.57-1.85.58-1.85.57-1.84.57-1.85.58-1.84.57-1.85.58-1.84.57-1.85.58-1.84.58-1.84.58-1.84.57-1.85.58-1.84.58-1.84.58-1.84.58-1.84.58-1.83.58-1.84.59-1.84.58-1.84.58-1.83.58-1.84.59-1.83.58-1.84.59-1.83.58-1.84.59-1.83.58-1.83.59-1.83.59-1.84.59-1.83.58-1.83.59-1.83.59-1.83.59-1.82.59-1.83.59-1.83.59-1.83.59-1.82.6-1.83.59-1.82.59-1.83.6-1.82.59-1.83.6-1.82.59-1.82.6-1.82.59-1.83.6-1.82.6-1.82.59-1.82.6-1.82.6-1.81.6-1.82.6-1.82.6-1.82.6-1.81.6-1.82.6-1.81.61-1.82.6-1.81.6-1.82.61-1.81.6-1.81.61-1.82.6-1.81.61-1.81.6-1.81.61-1.81.61-1.81.6-1.81.61-1.8.61-1.81.61-1.81.61-1.81.61-1.8.61-1.81.61-1.8.61-1.81.62-1.8.61-1.8.61-1.81.62-1.8.61-1.8.61-1.8.62-1.8.62-1.8.61-1.8.62-1.8.62-1.8.61-1.79.62-1.8.62-1.8.62-1.79.62-1.8.62m26.48-202.82.44.72.43.72.44.72.43.72.44.73.43.72.43.72.44.72.43.72.44.72.43.72.43.72.44.72.43.73.44.72.43.72.43.72.44.72.43.72.44.72.43.72.43.73.44.72.43.72.44.72.43.72.43.72.44.72.43.72.44.72.43.73.43.72.44.72.43.72.44.72.43.72.43.72.44.72.43.72.44.73.43.72.44.72.43.72.43.72.44.72.43.72.44.72.43.73.43.72.44.72.43.72.44.72.43.72.43.72.44.72.43.72.44.73.43.72.43.72.44.72.43.72.44.72.43.72.43.72.44.72.43.73.44.72.43.72.43.72.44.72.43.72.44.72.43.72.44.73.43.72.43.72.44.72.43.72.44.72.43.72.43.72.44.72.43.73.44.72.43.72.43.72.44.72.43.72.44.72.43.72.43.72.44.73.43.72.44.72.43.72.43.72.44.72.43.72.44.72" style="stroke-width:1.07;stroke:#000000;stroke-opacity:0.10;stroke-linecap:butt"/><path d="m519.2 357.9-1.15-.71-1.16-.72-1.15-.72-1.15-.71-1.15-.72-1.15-.72-1.15-.72-1.15-.72-1.15-.72-1.15-.72-1.15-.72-1.14-.72-1.15-.72-1.15-.72-1.14-.72-1.14-.72-1.15-.72-1.14-.72-1.14-.73-1.14-.72-1.14-.72-1.14-.72-1.14-.73-1.14-.72-1.14-.73-1.14-.72-1.13-.73-1.14-.72-1.14-.73-1.13-.72-1.13-.73-1.14-.72-1.13-.73-1.13-.73-1.13-.72-1.13-.73-1.13-.73-1.13-.73-1.13-.73-1.13-.73-1.13-.72-1.12-.73-1.13-.73-1.12-.73-1.13-.73-1.12-.73-1.12-.73-1.13-.74-1.12-.73-1.12-.73-1.12-.73-1.12-.73-1.12-.74-1.12-.73-1.11-.73-1.12-.74-1.12-.73-1.11-.74-1.12-.73-1.11-.73-1.11-.74-1.12-.74-1.11-.73-1.11-.74-1.11-.73-1.11-.74-1.11-.74-1.11-.73-1.11-.74-1.11-.74-1.1-.74-1.11-.74-1.1-.74-1.11-.74-1.1-.74-1.11-.73-1.1-.75-1.1-.74-1.1-.74-1.1-.74-1.1-.74-1.1-.74-1.1-.74-1.1-.74-1.09-.75-1.1-.74-1.1-.74-1.09-.75-1.1-.74-1.09-.74-1.09-.75-1.1-.74-1.09-.75-1.09-.74-1.09-.75-1.09-.75-1.09-.74-1.09-.75-1.08-.75M519.2 357.9l-1.79.62-1.8.62-1.8.62-1.79.62-1.8.62-1.8.62-1.8.62-1.8.61-1.8.62-1.8.61-1.8.62-1.8.61-1.8.62-1.8.61-1.81.62-1.8.61-1.81.61-1.8.61-1.81.61-1.8.61-1.81.61-1.81.61-1.8.61-1.81.61-1.81.61-1.81.61-1.81.61-1.81.6-1.81.61-1.81.6-1.81.61-1.82.6-1.81.61-1.81.6-1.82.61-1.81.6-1.82.6-1.81.6-1.82.6-1.82.6-1.81.6-1.82.6-1.82.6-1.82.6-1.82.6-1.82.6-1.82.59-1.82.6-1.82.6-1.83.59-1.82.6-1.82.59-1.83.6-1.82.59-1.83.59-1.82.6-1.83.59-1.83.59-1.83.59-1.82.59-1.83.59-1.83.59-1.83.59-1.83.59-1.83.59-1.83.59-1.84.58-1.83.59-1.83.59-1.83.58-1.84.59-1.83.58-1.84.59-1.83.58-1.84.58-1.84.59-1.83.58-1.84.58-1.84.58-1.84.58-1.84.58-1.84.58-1.84.58-1.84.58-1.84.58-1.85.58-1.84.57-1.84.58-1.85.58-1.84.57-1.85.58-1.84.57-1.85.58-1.85.57-1.84.57-1.85.58-1.85.57-1.85.57-1.85.57M311.12 196.8l.98.89.98.9.98.9.98.89.98.9.98.89.99.9.98.89.98.9.98.89.98.9.98.9.98.89.98.9.98.89.98.9.98.89.99.9.98.89.98.9.98.89.98.9.98.9.98.89.98.9.98.89.98.9.98.89.98.9.99.89.98.9.98.9.98.89.98.9.98.89.98.9.98.89.98.9.98.89.98.9.99.89.98.9.98.9.98.89.98.9.98.89.98.9.98.89.98.9.98.89.98.9.99.9.98.89.98.9.98.89.98.9.98.89.98.9.98.89.98.9.98.89.98.9.98.9.99.89.98.9.98.89.98.9.98.89.98.9.98.89.98.9.98.9.98.89.98.9.99.89.98.9.98.89.98.9.98.89.98.9.98.89.98.9.98.9.98.89.98.9.99.89.98.9.98.89.98.9.98.89.98.9.98.9.98.89.98.9.98.89.98.9.98.89.99.9.98.89m-141.04-61.63 1.43.62 1.42.62 1.42.63 1.43.62 1.42.62 1.43.63 1.42.62 1.43.62 1.42.62 1.43.63 1.42.62 1.43.62 1.42.62 1.43.63 1.42.62 1.42.62 1.43.62 1.42.63 1.43.62 1.42.62 1.43.62 1.42.63 1.43.62 1.42.62 1.43.62 1.42.63 1.43.62 1.42.62 1.42.62 1.43.63 1.42.62 1.43.62 1.42.62 1.43.63 1.42.62 1.43.62 1.42.62 1.43.63 1.42.62 1.43.62 1.42.62 1.42.63 1.43.62 1.42.62 1.43.63 1.42.62 1.43.62 1.42.62 1.43.63 1.42.62 1.43.62 1.42.62 1.42.63 1.43.62 1.42.62 1.43.62 1.42.63 1.43.62 1.42.62 1.43.62 1.42.63 1.43.62 1.42.62 1.43.62 1.42.63 1.42.62 1.43.62 1.42.62 1.43.63 1.42.62 1.43.62 1.42.62 1.43.63 1.42.62 1.43.62 1.42.62 1.43.63 1.42.62 1.42.62 1.43.63 1.42.62 1.43.62 1.42.62 1.43.63 1.42.62 1.43.62 1.42.62 1.43.63 1.42.62 1.43.62 1.42.62 1.42.63 1.43.62 1.42.62 1.43.62 1.42.63 1.43.62 1.42.62 1.43.62" style="stroke-width:1.07;stroke:#000000;stroke-opacity:0.10;stroke-linecap:butt"/><path d="m231.54 320.99 1.78-.35 1.78-.36 1.79-.36 1.78-.36 1.79-.36 1.78-.36 1.79-.36 1.78-.36 1.79-.36 1.78-.36 1.79-.35 1.78-.36 1.79-.36 1.78-.36 1.79-.36 1.78-.36 1.79-.36 1.78-.36 1.79-.36 1.78-.36 1.79-.35 1.78-.36 1.78-.36 1.79-.36 1.78-.36 1.79-.36 1.78-.36 1.79-.36 1.78-.36 1.79-.36 1.78-.35 1.79-.36 1.78-.36 1.79-.36 1.78-.36 1.79-.36 1.78-.36 1.79-.36 1.78-.36 1.79-.36 1.78-.35 1.79-.36 1.78-.36 1.78-.36 1.79-.36 1.78-.36 1.79-.36 1.78-.36 1.79-.36 1.78-.36 1.79-.35 1.78-.36 1.79-.36 1.78-.36 1.79-.36 1.78-.36 1.79-.36 1.78-.36 1.79-.36 1.78-.36 1.79-.35 1.78-.36 1.79-.36 1.78-.36 1.78-.36 1.79-.36 1.78-.36 1.79-.36 1.78-.36 1.79-.36 1.78-.35 1.79-.36 1.78-.36 1.79-.36 1.78-.36 1.79-.36 1.78-.36 1.79-.36 1.78-.36 1.79-.36 1.78-.35 1.79-.36 1.78-.36 1.79-.36 1.78-.36 1.78-.36 1.79-.36 1.78-.36 1.79-.36 1.78-.36 1.79-.35 1.78-.36 1.79-.36 1.78-.36 1.79-.36 1.78-.36 1.79-.36 1.78-.36 1.79-.36m-176.69 35.54 1.08.97 1.08.97 1.08.97 1.09.97 1.08.97 1.08.97 1.09.96 1.08.97 1.08.97 1.09.97 1.08.97 1.08.97 1.09.97 1.08.96 1.08.97 1.09.97 1.08.97 1.08.97 1.09.97 1.08.97 1.08.96 1.09.97 1.08.97 1.08.97 1.08.97 1.09.97 1.08.97 1.08.96 1.09.97 1.08.97 1.08.97 1.09.97 1.08.97 1.08.96 1.09.97 1.08.97 1.08.97 1.09.97 1.08.97 1.08.97 1.09.96 1.08.97 1.08.97 1.09.97 1.08.97 1.08.97 1.09.97 1.08.96 1.08.97 1.08.97 1.09.97 1.08.97 1.08.97 1.09.97 1.08.96 1.08.97 1.09.97 1.08.97 1.08.97 1.09.97 1.08.97 1.08.96 1.09.97 1.08.97 1.08.97 1.09.97 1.08.97 1.08.97 1.09.96 1.08.97 1.08.97 1.08.97 1.09.97 1.08.97 1.08.97 1.09.96 1.08.97 1.08.97 1.09.97 1.08.97 1.08.97 1.09.96 1.08.97 1.08.97 1.09.97 1.08.97 1.08.97 1.09.97 1.08.96 1.08.97 1.09.97 1.08.97 1.08.97 1.09.97 1.08.97 1.08.96 1.08.97 1.09.97 1.08.97m-50.25-100.13 1.21-.31 1.21-.32 1.2-.31 1.21-.32 1.21-.32 1.21-.31 1.21-.32 1.21-.32 1.21-.31 1.21-.32 1.21-.31 1.21-.32 1.21-.32 1.21-.31 1.2-.32 1.21-.31 1.21-.32 1.21-.32 1.21-.31 1.21-.32 1.21-.32 1.21-.31 1.21-.32 1.21-.31 1.21-.32 1.21-.32 1.21-.31 1.2-.32 1.21-.31 1.21-.32 1.21-.32 1.21-.31 1.21-.32 1.21-.32 1.21-.31 1.21-.32 1.21-.31 1.21-.32 1.21-.32 1.2-.31 1.21-.32 1.21-.31 1.21-.32 1.21-.32 1.21-.31 1.21-.32 1.21-.32 1.21-.31 1.21-.32 1.21-.31 1.21-.32 1.2-.32 1.21-.31 1.21-.32 1.21-.31 1.21-.32 1.21-.32 1.21-.31 1.21-.32 1.21-.32 1.21-.31 1.21-.32 1.21-.31 1.21-.32 1.2-.32 1.21-.31 1.21-.32 1.21-.31 1.21-.32 1.21-.32 1.21-.31 1.21-.32 1.21-.32 1.21-.31 1.21-.32 1.21-.31 1.2-.32 1.21-.32 1.21-.31 1.21-.32 1.21-.32 1.21-.31 1.21-.32 1.21-.31 1.21-.32 1.21-.32 1.21-.31 1.21-.32 1.2-.31 1.21-.32 1.21-.32 1.21-.31 1.21-.32 1.21-.32 1.21-.31 1.21-.32 1.21-.31 1.21-.32 1.21-.32m-119.71 31.3.5 1.02.51 1.01.51 1.01.51 1.01.51 1.01.5 1.01.51 1.01.51 1.02.51 1.01.5 1.01.51 1.01.51 1.01.51 1.01.5 1.01.51 1.01.51 1.02.51 1.01.5 1.01.51 1.01.51 1.01.51 1.01.5 1.01.51 1.02.51 1.01.51 1.01.51 1.01.5 1.01.51 1.01.51 1.01.51 1.02.5 1.01.51 1.01.51 1.01.51 1.01.5 1.01.51 1.01.51 1.01.51 1.02.5 1.01.51 1.01.51 1.01.51 1.01.5 1.01.51 1.01.51 1.02.51 1.01.51 1.01.5 1.01.51 1.01.51 1.01.51 1.01.5 1.02.51 1.01.51 1.01.51 1.01.5 1.01.51 1.01.51 1.01.51 1.02.5 1.01.51 1.01.51 1.01.51 1.01.5 1.01.51 1.01.51 1.01.51 1.02.51 1.01.5 1.01.51 1.01.51 1.01.51 1.01.5 1.01.51 1.02.51 1.01.51 1.01.5 1.01.51 1.01.51 1.01.51 1.01.5 1.02.51 1.01.51 1.01.51 1.01.5 1.01.51 1.01.51 1.01.51 1.02.5 1.01.51 1.01.51 1.01.51 1.01.51 1.01.5 1.01.51 1.01.51 1.02.51 1.01.5 1.01.51 1.01m167.85-32.13-1-1.01-.99-1-.99-1-1-1.01-.99-1-1-1-.99-1-.99-1.01-1-1-.99-1-.99-1.01-1-1-.99-1-1-1-.99-1.01-.99-1-1-1-.99-1.01-1-1-.99-1-.99-1.01-1-1-.99-1-.99-1-1-1.01-.99-1-1-1-.99-1.01-.99-1-1-1-.99-1.01-1-1-.99-1-.99-1-1-1.01-.99-1-.99-1-1-1.01-.99-1-1-1-.99-1-.99-1.01-1-1-.99-1-1-1.01-.99-1-.99-1-1-1.01-.99-1-.99-1-1-1-.99-1.01-1-1-.99-1-.99-1.01-1-1-.99-1-1-1-.99-1.01-.99-1-1-1-.99-1.01-1-1-.99-1-.99-1.01-1-1-.99-1-.99-1-1-1.01-.99-1-1-1-.99-1.01-.99-1-1-1-.99-1.01-1-1-.99-1-.99-1-1-1.01-.99-1-.99-1-1-1.01-.99-1-1-1-.99-1-.99-1.01-1-1-.99-1-1-1.01-.99-1-.99-1-1-1.01-.99-1-.99-1-1-1-.99-1.01-1-1-.99-1-.99-1.01m98.39 99.3-1.7.32-1.69.33-1.7.32-1.69.32-1.7.33-1.7.32-1.69.33-1.7.32-1.69.33-1.7.32-1.69.33-1.7.32-1.69.33-1.7.32-1.69.33-1.7.32-1.69.32-1.7.33-1.7.32-1.69.33-1.7.32-1.69.33-1.7.32-1.69.33-1.7.32-1.69.33-1.7.32-1.69.32-1.7.33-1.7.32-1.69.33-1.7.32-1.69.33-1.7.32-1.69.33-1.7.32-1.69.33-1.7.32-1.69.33-1.7.32-1.69.32-1.7.33-1.7.32-1.69.33-1.7.32-1.69.33-1.7.32-1.69.33-1.7.32-1.69.33-1.7.32-1.69.32-1.7.33-1.7.32-1.69.33-1.7.32-1.69.33-1.7.32-1.69.33-1.7.32-1.69.33-1.7.32-1.69.33-1.7.32-1.69.32-1.7.33-1.7.32-1.69.33-1.7.32-1.69.33-1.7.32-1.69.33-1.7.32-1.69.33-1.7.32-1.69.32-1.7.33-1.7.32-1.69.33-1.7.32-1.69.33-1.7.32-1.69.33-1.7.32-1.69.33-1.7.32-1.69.33-1.7.32-1.69.32-1.7.33-1.7.32-1.69.33-1.7.32-1.69.33-1.7.32-1.69.33-1.7.32-1.69.33-1.7.32m205.79-206.01 1.17-.63 1.17-.64 1.17-.63 1.16-.64 1.17-.63 1.17-.64 1.16-.64 1.17-.63 1.17-.64 1.16-.63 1.17-.64 1.17-.63 1.17-.64 1.16-.63 1.17-.64 1.17-.64 1.16-.63 1.17-.64 1.17-.63 1.17-.64 1.16-.63 1.17-.64 1.17-.63 1.16-.64 1.17-.64 1.17-.63 1.16-.64 1.17-.63 1.17-.64 1.17-.63 1.16-.64 1.17-.63 1.17-.64 1.16-.64 1.17-.63 1.17-.64 1.17-.63 1.16-.64 1.17-.63 1.17-.64 1.16-.63 1.17-.64 1.17-.64 1.16-.63 1.17-.64 1.17-.63 1.17-.64 1.16-.63 1.17-.64 1.17-.63 1.16-.64 1.17-.64 1.17-.63 1.16-.64 1.17-.63 1.17-.64 1.17-.63 1.16-.64 1.17-.63 1.17-.64 1.16-.64 1.17-.63 1.17-.64 1.17-.63 1.16-.64 1.17-.63 1.17-.64 1.16-.63 1.17-.64 1.17-.64 1.16-.63 1.17-.64 1.17-.63 1.17-.64 1.16-.63 1.17-.64 1.17-.63 1.16-.64 1.17-.63 1.17-.64 1.17-.64 1.16-.63 1.17-.64 1.17-.63 1.16-.64 1.17-.63 1.17-.64 1.16-.63 1.17-.64 1.17-.64 1.17-.63 1.16-.64 1.17-.63 1.17-.64 1.16-.63 1.17-.64 1.17-.63 1.16-.64 1.17-.64" style="stroke-width:1.07;stroke:#000000;stroke-opacity:0.10;stroke-linecap:butt"/><path d="m292.15 362.96 1.17-.78 1.17-.79 1.18-.78 1.17-.78 1.17-.79 1.17-.78 1.18-.78 1.17-.78 1.17-.79 1.17-.78 1.18-.78 1.17-.79 1.17-.78 1.17-.78 1.18-.78 1.17-.79 1.17-.78 1.17-.78 1.18-.79 1.17-.78 1.17-.78 1.17-.78 1.18-.79 1.17-.78 1.17-.78 1.17-.79 1.18-.78 1.17-.78 1.17-.78 1.17-.79 1.18-.78 1.17-.78 1.17-.79 1.17-.78 1.18-.78 1.17-.78 1.17-.79 1.17-.78 1.18-.78 1.17-.79 1.17-.78 1.17-.78 1.18-.78 1.17-.79 1.17-.78 1.17-.78 1.18-.79 1.17-.78 1.17-.78 1.17-.79 1.18-.78 1.17-.78 1.17-.78 1.17-.79 1.18-.78 1.17-.78 1.17-.79 1.17-.78 1.18-.78 1.17-.78 1.17-.79 1.17-.78 1.18-.78 1.17-.79 1.17-.78 1.17-.78 1.18-.78 1.17-.79 1.17-.78 1.17-.78 1.18-.79 1.17-.78 1.17-.78 1.17-.78 1.18-.79 1.17-.78 1.17-.78 1.17-.79 1.18-.78 1.17-.78 1.17-.78 1.17-.79 1.18-.78 1.17-.78 1.17-.79 1.17-.78 1.18-.78 1.17-.78 1.17-.79 1.17-.78 1.18-.78 1.17-.79 1.17-.78 1.17-.78 1.18-.78 1.17-.79 1.17-.78 1.17-.78 1.18-.79m-116.08 77.51.47.54.47.55.47.54.47.55.47.54.47.55.47.54.48.55.47.54.47.55.47.54.47.54.47.55.47.54.47.55.47.54.47.55.48.54.47.55.47.54.47.55.47.54.47.55.47.54.47.55.47.54.47.54.47.55.48.54.47.55.47.54.47.55.47.54.47.55.47.54.47.55.47.54.47.55.47.54.48.55.47.54.47.54.47.55.47.54.47.55.47.54.47.55.47.54.47.55.48.54.47.55.47.54.47.55.47.54.47.55.47.54.47.54.47.55.47.54.47.55.48.54.47.55.47.54.47.55.47.54.47.55.47.54.47.55.47.54.47.54.47.55.48.54.47.55.47.54.47.55.47.54.47.55.47.54.47.55.47.54.47.55.48.54.47.55.47.54.47.54.47.55.47.54.47.55.47.54.47.55.47.54.47.55.48.54.47.55.47.54.47.55.47.54.47.55.47.54m58.46-49.06.11-.83.11-.83.11-.84.11-.83.11-.83.12-.83.11-.83.11-.84.11-.83.11-.83.11-.83.11-.83.11-.84.11-.83.12-.83.11-.83.11-.83.11-.84.11-.83.11-.83.11-.83.11-.83.11-.84.12-.83.11-.83.11-.83.11-.83.11-.84.11-.83.11-.83.11-.83.11-.83.11-.84.12-.83.11-.83.11-.83.11-.83.11-.84.11-.83.11-.83.11-.83.11-.83.12-.84.11-.83.11-.83.11-.83.11-.83.11-.84.11-.83.11-.83.11-.83.12-.83.11-.84.11-.83.11-.83.11-.83.11-.83.11-.84.11-.83.11-.83.12-.83.11-.83.11-.83.11-.84.11-.83.11-.83.11-.83.11-.83.11-.84.12-.83.11-.83.11-.83.11-.83.11-.84.11-.83.11-.83.11-.83.11-.83.11-.84.12-.83.11-.83.11-.83.11-.83.11-.84.11-.83.11-.83.11-.83.11-.83.12-.84.11-.83.11-.83.11-.83.11-.83.11-.84.11-.83.11-.83.11-.83.12-.83.11-.84m-11 82.37-.59.5-.59.49-.59.5-.59.49-.59.5-.59.49-.59.5-.59.49-.6.5-.59.5-.59.49-.59.5-.59.49-.59.5-.59.49-.59.5-.59.49-.59.5-.59.5-.59.49-.59.5-.59.49-.59.5-.59.49-.59.5-.59.49-.59.5-.59.5-.6.49-.59.5-.59.49-.59.5-.59.49-.59.5-.59.49-.59.5-.59.5-.59.49-.59.5-.59.49-.59.5-.59.49-.59.5-.59.49-.59.5-.59.5-.59.49-.59.5-.59.49-.6.5-.59.49-.59.5-.59.49-.59.5-.59.5-.59.49-.59.5-.59.49-.59.5-.59.49-.59.5-.59.49-.59.5-.59.5-.59.49-.59.5-.59.49-.59.5-.59.49-.59.5-.6.49-.59.5-.59.5-.59.49-.59.5-.59.49-.59.5-.59.49-.59.5-.59.49-.59.5-.59.5-.59.49-.59.5-.59.49-.59.5-.59.49-.59.5-.59.49-.59.5-.59.5-.6.49-.59.5-.59.49-.59.5-.59.49-.59.5-.59.49-.59.5m-139.95 54.2-1.4.42-1.4.43-1.41.42-1.4.42-1.4.42-1.41.42-1.4.42-1.4.42-1.41.42-1.4.42-1.4.43-1.41.42-1.4.42-1.4.42-1.41.42-1.4.42-1.4.42-1.41.42-1.4.43-1.4.42-1.41.42-1.4.42-1.4.42-1.41.42-1.4.42-1.4.42-1.41.42-1.4.43-1.4.42-1.41.42-1.4.42-1.4.42-1.41.42-1.4.42-1.4.42-1.41.43-1.4.42-1.4.42-1.41.42-1.4.42-1.4.42-1.41.42-1.4.42-1.4.42-1.41.43-1.4.42-1.4.42-1.4.42-1.41.42-1.4.42-1.4.42-1.41.42-1.4.43-1.4.42-1.41.42-1.4.42-1.4.42-1.41.42-1.4.42-1.4.42-1.41.43-1.4.42-1.4.42-1.41.42-1.4.42-1.4.42-1.41.42-1.4.42-1.4.42-1.41.43-1.4.42-1.4.42-1.41.42-1.4.42-1.4.42-1.41.42-1.4.42-1.4.43-1.41.42-1.4.42-1.4.42-1.41.42-1.4.42-1.4.42-1.41.42-1.4.42-1.4.43-1.41.42-1.4.42-1.4.42-1.41.42-1.4.42-1.4.42-1.41.42-1.4.43-1.4.42-1.41.42-1.4.42-1.4.42" style="stroke-width:1.07;stroke:#000000;stroke-opacity:0.10;stroke-linecap:butt"/><path d="m198.82 471.08 1.42-.54 1.41-.55 1.41-.55 1.42-.55 1.41-.54 1.41-.55 1.42-.55 1.41-.55 1.41-.54 1.42-.55 1.41-.55 1.42-.55 1.41-.54 1.41-.55 1.42-.55 1.41-.55 1.41-.54 1.42-.55 1.41-.55 1.41-.55 1.42-.54 1.41-.55 1.42-.55 1.41-.55 1.41-.54 1.42-.55 1.41-.55 1.41-.55 1.42-.54 1.41-.55 1.41-.55 1.42-.55 1.41-.54 1.42-.55 1.41-.55 1.41-.55 1.42-.54 1.41-.55 1.41-.55 1.42-.55 1.41-.54 1.41-.55 1.42-.55 1.41-.55 1.42-.54 1.41-.55 1.41-.55 1.42-.55 1.41-.54 1.41-.55 1.42-.55 1.41-.55 1.41-.54 1.42-.55 1.41-.55 1.42-.55 1.41-.54 1.41-.55 1.42-.55 1.41-.55 1.41-.54 1.42-.55 1.41-.55 1.41-.55 1.42-.54 1.41-.55 1.42-.55 1.41-.55 1.41-.54 1.42-.55 1.41-.55 1.41-.55 1.42-.54 1.41-.55 1.41-.55 1.42-.55 1.41-.54 1.42-.55 1.41-.55 1.41-.55 1.42-.54 1.41-.55 1.41-.55 1.42-.55 1.41-.54 1.41-.55 1.42-.55 1.41-.55 1.41-.54 1.42-.55 1.41-.55 1.42-.55 1.41-.54 1.41-.55 1.42-.55 1.41-.55 1.41-.54 1.42-.55 1.41-.55m-99.69-66.51 1.71-.65 1.71-.66 1.71-.65 1.71-.66 1.71-.65 1.7-.66 1.71-.66 1.71-.65 1.71-.66 1.71-.65 1.71-.66 1.71-.65 1.7-.66 1.71-.66 1.71-.65 1.71-.66 1.71-.65 1.71-.66 1.71-.66 1.7-.65 1.71-.66 1.71-.65 1.71-.66 1.71-.65 1.71-.66 1.7-.66 1.71-.65 1.71-.66 1.71-.65 1.71-.66 1.71-.65 1.71-.66 1.7-.66 1.71-.65 1.71-.66 1.71-.65 1.71-.66 1.71-.65 1.71-.66 1.7-.66 1.71-.65 1.71-.66 1.71-.65 1.71-.66 1.71-.65 1.71-.66 1.7-.66 1.71-.65 1.71-.66 1.71-.65 1.71-.66 1.71-.66 1.7-.65 1.71-.66 1.71-.65 1.71-.66 1.71-.65 1.71-.66 1.71-.66 1.7-.65 1.71-.66 1.71-.65 1.71-.66 1.71-.65 1.71-.66 1.71-.66 1.7-.65 1.71-.66 1.71-.65 1.71-.66 1.71-.65 1.71-.66 1.71-.66 1.7-.65 1.71-.66 1.71-.65 1.71-.66 1.71-.66 1.71-.65 1.7-.66 1.71-.65 1.71-.66 1.71-.65 1.71-.66 1.71-.66 1.71-.65 1.7-.66 1.71-.65 1.71-.66 1.71-.65 1.71-.66 1.71-.66 1.71-.65 1.7-.66 1.71-.65 1.71-.66 1.71-.65 1.71-.66 1.71-.66" style="stroke-width:1.07;stroke:#000000;stroke-opacity:0.10;stroke-linecap:butt"/><path d="m239.08 350.37 1.01.68 1.01.67 1 .67 1.01.67 1.01.67 1 .68 1.01.67 1.01.67 1.01.67 1 .67 1.01.67 1.01.68 1 .67 1.01.67 1.01.67 1 .67 1.01.67 1.01.68 1.01.67 1 .67 1.01.67 1.01.67 1 .68 1.01.67 1.01.67 1 .67 1.01.67 1.01.67 1 .68 1.01.67 1.01.67 1.01.67 1 .67 1.01.67 1.01.68 1 .67 1.01.67 1.01.67 1 .67 1.01.68 1.01.67 1.01.67 1 .67 1.01.67 1.01.67 1 .68 1.01.67 1.01.67 1 .67 1.01.67 1.01.67 1 .68 1.01.67 1.01.67 1.01.67 1 .67 1.01.68 1.01.67 1 .67 1.01.67 1.01.67 1 .67 1.01.68 1.01.67 1 .67 1.01.67 1.01.67 1.01.68 1 .67 1.01.67 1.01.67 1 .67 1.01.67 1.01.68 1 .67 1.01.67 1.01.67 1.01.67 1 .67 1.01.68 1.01.67 1 .67 1.01.67 1.01.67 1 .68 1.01.67 1.01.67 1 .67 1.01.67 1.01.67 1.01.68 1 .67 1.01.67 1.01.67 1 .67 1.01.67 1.01.68 1 .67 1.01.67M226.89 247.04l1.83.39 1.83.39 1.83.38 1.84.39 1.83.39 1.83.39 1.83.39 1.83.38 1.83.39 1.84.39 1.83.39 1.83.39 1.83.38 1.83.39 1.83.39 1.84.39 1.83.39 1.83.38 1.83.39 1.83.39 1.83.39 1.84.39 1.83.38 1.83.39 1.83.39 1.83.39 1.83.39 1.84.38 1.83.39 1.83.39 1.83.39 1.83.39 1.84.38 1.83.39 1.83.39 1.83.39 1.83.39 1.83.38 1.84.39 1.83.39 1.83.39 1.83.39 1.83.38 1.83.39 1.84.39 1.83.39 1.83.39 1.83.38 1.83.39 1.83.39 1.84.39 1.83.39 1.83.38 1.83.39 1.83.39 1.83.39 1.84.39 1.83.38 1.83.39 1.83.39 1.83.39 1.83.39 1.84.39 1.83.38 1.83.39 1.83.39 1.83.39 1.83.39 1.84.38 1.83.39 1.83.39 1.83.39 1.83.39 1.83.38 1.84.39 1.83.39 1.83.39 1.83.39 1.83.38 1.83.39 1.84.39 1.83.39 1.83.39 1.83.38 1.83.39 1.83.39 1.84.39 1.83.39 1.83.38 1.83.39 1.83.39 1.83.39 1.84.39 1.83.38 1.83.39 1.83.39 1.83.39 1.83.39 1.84.38m185.05-15.13-1.87.15-1.87.15-1.87.16-1.87.15-1.87.15-1.86.15-1.87.16-1.87.15-1.87.15-1.87.16-1.87.15-1.87.15-1.87.15-1.87.16-1.87.15-1.87.15-1.87.16-1.87.15-1.86.15-1.87.15-1.87.16-1.87.15-1.87.15-1.87.16-1.87.15-1.87.15-1.87.15-1.87.16-1.87.15-1.87.15-1.87.16-1.86.15-1.87.15-1.87.16-1.87.15-1.87.15-1.87.15-1.87.16-1.87.15-1.87.15-1.87.16-1.87.15-1.87.15-1.87.15-1.86.16-1.87.15-1.87.15-1.87.16-1.87.15-1.87.15-1.87.15-1.87.16-1.87.15-1.87.15-1.87.16-1.87.15-1.87.15-1.86.15-1.87.16-1.87.15-1.87.15-1.87.16-1.87.15-1.87.15-1.87.16-1.87.15-1.87.15-1.87.15-1.87.16-1.87.15-1.86.15-1.87.16-1.87.15-1.87.15-1.87.15-1.87.16-1.87.15-1.87.15-1.87.16-1.87.15-1.87.15-1.87.15-1.87.16-1.87.15-1.86.15-1.87.16-1.87.15-1.87.15-1.87.15-1.87.16-1.87.15-1.87.15-1.87.16-1.87.15-1.87.15-1.87.16-1.87.15-1.86.15-1.87.15m23.36 301.1-.48-.82-.48-.82-.47-.81-.48-.82-.48-.82-.47-.81-.48-.82-.48-.82-.48-.82-.47-.81-.48-.82-.48-.82-.48-.82-.47-.81-.48-.82-.48-.82-.48-.82-.47-.81-.48-.82-.48-.82-.47-.81-.48-.82-.48-.82-.48-.82-.47-.81-.48-.82-.48-.82-.48-.82-.47-.81-.48-.82-.48-.82-.48-.82-.47-.81-.48-.82-.48-.82-.47-.82-.48-.81-.48-.82-.48-.82-.47-.81-.48-.82-.48-.82-.48-.82-.47-.81-.48-.82-.48-.82-.48-.82-.47-.81-.48-.82-.48-.82-.47-.82-.48-.81-.48-.82-.48-.82-.47-.81-.48-.82-.48-.82-.48-.82-.47-.81-.48-.82-.48-.82-.48-.82-.47-.81-.48-.82-.48-.82-.47-.82-.48-.81-.48-.82-.48-.82-.47-.81-.48-.82-.48-.82-.48-.82-.47-.81-.48-.82-.48-.82-.47-.82-.48-.81-.48-.82-.48-.82-.47-.82-.48-.81-.48-.82-.48-.82-.47-.82-.48-.81-.48-.82-.48-.82-.47-.81-.48-.82-.48-.82-.47-.82-.48-.81-.48-.82-.48-.82-.47-.82-.48-.81-.48-.82-.48-.82m47.26 80.92.41.78.41.79.42.79.41.78.41.79.42.78.41.79.41.78.41.79.42.78.41.79.41.78.41.79.42.78.41.79.41.78.42.79.41.79.41.78.41.79.42.78.41.79.41.78.41.79.42.78.41.79.41.78.42.79.41.78.41.79.41.78.42.79.41.78.41.79.42.79.41.78.41.79.41.78.42.79.41.78.41.79.41.78.42.79.41.78.41.79.42.78.41.79.41.78.41.79.42.78.41.79.41.79.41.78.42.79.41.78.41.79.42.78.41.79.41.78.41.79.42.78.41.79.41.78.41.79.42.78.41.79.41.79.42.78.41.79.41.78.41.79.42.78.41.79.41.78.42.79.41.78.41.79.41.78.42.79.41.78.41.79.41.78.42.79.41.79.41.78.42.79.41.78.41.79.41.78.42.79.41.78.41.79.41.78.42.79.41.78.41.79.42.78.41.79.41.79" style="stroke-width:1.07;stroke:#000000;stroke-opacity:0.10;stroke-linecap:butt"/><path d="m595.6 303.1-1.74-.66-1.74-.66-1.75-.64-1.74-.63-1.76-.63-1.75-.61-1.76-.6-1.76-.6-1.76-.58-1.77-.57-1.77-.57-1.77-.55-1.78-.54-1.78-.54-1.78-.52-1.79-.52-1.79-.5-1.79-.49-1.79-.49-1.8-.47-1.8-.47-1.81-.45-1.8-.45-1.82-.43-1.81-.43-1.82-.41-1.82-.41-1.82-.4-1.83-.38-1.83-.38-1.83-.36-1.84-.36-1.84-.35-1.84-.33-1.84-.33-1.85-.31-1.85-.31-1.86-.3-1.86-.28-1.86-.28-1.86-.27-1.87-.26-1.87-.24-1.87-.24-1.88-.23-1.88-.22-1.88-.2-1.89-.2-1.89-.19-1.89-.18-1.9-.17-1.9-.16-1.9-.14-1.91-.14-1.9-.13-1.92-.12-1.91-.11-1.92-.1-1.92-.09-1.92-.08-1.93-.07-1.93-.06-1.93-.05-1.94-.04-1.94-.03-1.94-.02-1.95-.01h-1.95l-1.95.01-1.96.02-1.95.03-1.97.04-1.96.05-1.97.06-1.97.07-1.98.08-1.97.08-1.98.1-1.99.11-1.98.12-1.99.13-2 .14-1.99.14-2 .16-2.01.17-2 .18-2.01.18-2.01.2-2.02.21-2.02.22-2.02.22-2.02.24-2.03.25-2.03.25-2.04.27-2.03.28-2.04.28-2.05.3-2.04.3" style="stroke-width:1.07;stroke:#000000;stroke-opacity:0.10;stroke-linecap:butt"/><path d="m595.6 303.1-1.76-.61-1.75-.61-1.76-.59-1.77-.59-1.76-.57-1.77-.57-1.77-.56-1.78-.55-1.78-.54-1.78-.53-1.78-.52-1.78-.52-1.79-.5-1.79-.5-1.8-.49-1.8-.47-1.8-.47-1.8-.47-1.8-.45-1.81-.44-1.81-.44-1.82-.42-1.81-.42-1.82-.41-1.83-.4-1.82-.39-1.83-.38-1.83-.37-1.83-.37-1.84-.35-1.84-.35-1.84-.33-1.85-.33-1.84-.32-1.85-.31-1.86-.3-1.85-.3-1.86-.28-1.86-.28-1.87-.26-1.87-.26-1.87-.25-1.87-.24-1.87-.23-1.88-.23-1.88-.21-1.89-.2-1.89-.2-1.89-.19-1.89-.17-1.89-.17-1.9-.16-1.9-.16-1.91-.14-1.9-.13-1.91-.13-1.92-.11-1.91-.11-1.92-.1-1.92-.09-1.92-.08-1.93-.07-1.93-.07-1.93-.05-1.94-.05-1.93-.03-1.94-.03-1.95-.02-1.94-.01h-1.95l-1.95.01-1.96.01-1.96.03-1.96.03-1.96.04-1.96.06-1.97.06-1.97.07-1.98.07-1.98.09-1.98.1-1.98.1-1.98.11-1.99.13-1.99.13-2 .14-1.99.15-2 .15-2.01.17-2 .18-2.01.18-2.01.19-2.01.21-2.02.21-2.02.22-2.02.23-2.03.23-2.02.25-2.03.25" style="stroke-width:1.07;stroke:#000000;stroke-opacity:0.10;stroke-linecap:butt"/><path d="m595.6 303.1-1.77-.56-1.78-.56-1.77-.54-1.78-.54-1.78-.53-1.78-.52-1.79-.51-1.79-.51-1.79-.5-1.79-.49-1.8-.48-1.8-.47-1.8-.47-1.8-.46-1.81-.45-1.81-.44-1.81-.44-1.81-.43-1.82-.42-1.81-.41-1.82-.4-1.83-.4-1.82-.39-1.83-.38-1.83-.37-1.83-.37-1.84-.36-1.84-.35-1.84-.34-1.84-.33-1.85-.33-1.85-.32-1.85-.31-1.85-.3-1.85-.3-1.86-.29-1.86-.27-1.87-.28-1.86-.26-1.87-.26-1.87-.25-1.87-.24-1.88-.23-1.88-.22-1.88-.22-1.88-.21-1.88-.2-1.89-.2-1.89-.18-1.89-.18-1.9-.17-1.9-.16-1.9-.16-1.9-.15-1.9-.13-1.91-.14-1.91-.12-1.91-.12-1.92-.1-1.92-.1-1.92-.1-1.92-.08-1.92-.08-1.93-.07-1.93-.06-1.93-.05-1.94-.05-1.94-.03-1.94-.03-1.94-.03-1.94-.01-1.95-.01h-1.95l-1.95.01-1.96.02-1.95.02-1.96.04-1.97.04-1.96.05-1.97.05-1.97.06-1.97.08-1.97.08-1.98.08-1.98.1-1.98.1-1.99.11-1.98.12-1.99.12-1.99.14-2 .14-2 .15-2 .16-2 .16-2 .17-2.01.19-2.01.18-2.01.2-2.01.2" style="stroke-width:1.07;stroke:#000000;stroke-opacity:0.10;stroke-linecap:butt"/><path d="m595.6 303.1-1.79-.51-1.79-.5-1.79-.5-1.79-.49-1.8-.48-1.8-.48-1.8-.47-1.8-.46-1.8-.45-1.81-.45-1.81-.45-1.81-.43-1.81-.43-1.82-.42-1.82-.42-1.82-.4-1.82-.4-1.82-.4-1.83-.39-1.82-.38-1.84-.37-1.83-.37-1.83-.36-1.84-.35-1.84-.35-1.84-.34-1.84-.34-1.85-.32-1.84-.32-1.85-.32-1.86-.3-1.85-.3-1.86-.3-1.85-.28-1.87-.28-1.86-.28-1.86-.26-1.87-.26-1.87-.25-1.87-.25-1.87-.24-1.88-.23-1.88-.23-1.88-.22-1.88-.21-1.88-.2-1.89-.2-1.89-.19-1.89-.19-1.89-.18-1.89-.17-1.9-.16-1.9-.16-1.9-.15-1.9-.15-1.91-.13-1.91-.13-1.91-.13-1.91-.12-1.91-.11-1.92-.1-1.92-.1-1.92-.09-1.92-.08-1.93-.08-1.92-.07-1.93-.06-1.93-.06-1.94-.05-1.93-.04-1.94-.04-1.94-.03-1.94-.02-1.95-.01-1.94-.01-1.95-.01-1.95.01-1.96.01-1.95.02-1.96.02-1.96.03-1.96.04-1.96.05-1.97.05-1.97.06-1.97.06-1.97.07-1.97.08-1.98.09-1.98.09-1.98.1-1.98.1-1.99.12-1.98.12-1.99.12-2 .13-1.99.14-2 .15-1.99.15" style="stroke-width:1.07;stroke:#000000;stroke-opacity:0.10;stroke-linecap:butt"/><path d="m595.6 303.1-1.8-.46-1.81-.45-1.81-.45-1.81-.44-1.81-.44-1.81-.43-1.81-.42-1.82-.42-1.82-.41-1.82-.41-1.82-.4-1.82-.4-1.83-.39-1.83-.38-1.82-.38-1.84-.37-1.83-.37-1.83-.36-1.84-.36-1.84-.35-1.84-.34-1.84-.34-1.84-.33-1.85-.33-1.84-.32-1.85-.32-1.85-.31-1.86-.3-1.85-.3-1.86-.29-1.86-.29-1.86-.28-1.86-.27-1.86-.27-1.87-.27-1.86-.26-1.87-.25-1.87-.25-1.88-.24-1.87-.23-1.88-.23-1.87-.23-1.88-.21-1.89-.22-1.88-.2-1.88-.2-1.89-.2-1.89-.19-1.89-.18-1.89-.18-1.9-.17-1.9-.17-1.89-.16-1.9-.16-1.9-.15-1.91-.14-1.9-.14-1.91-.13-1.91-.13-1.91-.12-1.91-.11-1.92-.11-1.91-.11-1.92-.1-1.92-.09-1.92-.09-1.93-.08-1.92-.07-1.93-.07-1.93-.06-1.93-.06-1.93-.06-1.94-.04-1.93-.04-1.94-.04-1.94-.03-1.94-.02-1.95-.02-1.94-.01-1.95-.01h-1.95l-1.95.01-1.95.01-1.96.01-1.95.02-1.96.03-1.96.04-1.96.04-1.97.04-1.96.05-1.97.06-1.97.06-1.97.07-1.97.07-1.98.08-1.97.08-1.98.1-1.98.09-1.98.1" style="stroke-width:1.07;stroke:#000000;stroke-opacity:0.10;stroke-linecap:butt"/><path d="m595.6 303.1-1.82-.41-1.82-.4-1.82-.4-1.83-.39-1.82-.39-1.83-.39-1.83-.38-1.83-.37-1.83-.37-1.83-.37-1.84-.36-1.84-.35-1.83-.36-1.84-.34-1.84-.34-1.84-.34-1.85-.33-1.84-.33-1.85-.33-1.85-.31-1.85-.32-1.85-.31-1.85-.3-1.85-.3-1.86-.3-1.86-.29-1.86-.28-1.86-.29-1.86-.27-1.86-.27-1.86-.27-1.87-.26-1.87-.26-1.87-.25-1.87-.25-1.87-.25-1.87-.24-1.88-.23-1.87-.23-1.88-.22-1.88-.23-1.88-.21-1.88-.21-1.89-.21-1.88-.2-1.89-.2-1.89-.19-1.89-.19-1.89-.18-1.89-.18-1.89-.17-1.9-.17-1.9-.16-1.9-.16-1.9-.16-1.9-.15-1.9-.14-1.9-.14-1.91-.14-1.91-.13-1.91-.13-1.91-.12-1.91-.12-1.91-.11-1.92-.11-1.91-.1-1.92-.1-1.92-.1-1.92-.08-1.93-.09-1.92-.08-1.92-.07-1.93-.07-1.93-.07-1.93-.06-1.93-.06-1.93-.05-1.94-.05-1.93-.04-1.94-.04-1.94-.03-1.94-.03-1.94-.02-1.95-.02-1.94-.02-1.95-.01h-5.84l-1.96.01-1.95.02-1.96.01-1.95.03-1.96.03-1.96.03-1.96.03-1.96.05-1.97.04-1.96.05" style="stroke-width:1.07;stroke:#000000;stroke-opacity:0.10;stroke-linecap:butt"/><path d="m595.6 303.1-1.84-.36-1.83-.35-1.84-.35-1.84-.35-1.84-.34-1.84-.34-1.85-.33-1.84-.33-1.85-.33-1.84-.32-1.85-.32-1.85-.32-1.85-.31-1.85-.31-1.85-.31-1.85-.3-1.86-.3-1.85-.29-1.86-.3-1.86-.28-1.86-.29-1.86-.28-1.86-.27-1.86-.28-1.87-.27-1.86-.26-1.87-.26-1.86-.26-1.87-.26-1.87-.25-1.87-.24-1.87-.25-1.88-.24-1.87-.23-1.88-.24-1.87-.23-1.88-.22-1.88-.22-1.88-.22-1.88-.22-1.88-.21-1.89-.21-1.88-.2-1.89-.2-1.88-.2-1.89-.19-1.89-.19-1.89-.18-1.89-.19-1.89-.17-1.9-.18-1.89-.17-1.9-.17-1.9-.16-1.9-.16-1.9-.16-1.9-.15-1.9-.15-1.9-.14-1.91-.15-1.9-.13-1.91-.14-1.9-.13-1.91-.13-1.91-.12-1.91-.12-1.92-.12-1.91-.11-1.92-.11-1.91-.1-1.92-.1-1.92-.1-1.92-.1-1.92-.09-1.92-.09-1.92-.08-1.92-.08-1.93-.08-1.93-.07-1.92-.07-1.93-.06-1.93-.06-1.93-.06-1.93-.06-1.94-.05-1.93-.04-1.94-.05-1.93-.04-1.94-.03-1.94-.04-1.94-.03-1.94-.02-1.94-.02-1.95-.02-1.94-.01-1.95-.02h-1.95l-1.94-.01h-1.95" style="stroke-width:1.07;stroke:#000000;stroke-opacity:0.10;stroke-linecap:butt"/><path d="m595.6 303.1-1.85-.31-1.86-.3-1.85-.3-1.85-.3-1.86-.29-1.86-.3-1.85-.29-1.86-.28-1.86-.29-1.86-.28-1.86-.28-1.86-.28-1.86-.27-1.87-.27-1.86-.27-1.86-.27-1.87-.26-1.87-.27-1.86-.26-1.87-.25-1.87-.25-1.87-.26-1.87-.24-1.87-.25-1.87-.24-1.87-.24-1.88-.24-1.87-.24-1.88-.23-1.87-.23-1.88-.23-1.88-.22-1.88-.23-1.88-.22-1.88-.21-1.88-.22-1.88-.21-1.88-.21-1.89-.21-1.88-.2-1.89-.2-1.88-.2-1.89-.2-1.89-.19-1.89-.19-1.88-.19-1.89-.19-1.9-.18-1.89-.18-1.89-.18-1.89-.17-1.9-.18-1.89-.17-1.9-.17-1.9-.16-1.89-.16-1.9-.16-1.9-.16-1.9-.16-1.9-.15-1.9-.15-1.91-.14-1.9-.15-1.9-.14-1.91-.14-1.91-.14-1.9-.13-1.91-.13-1.91-.13-1.91-.13-1.91-.12-1.91-.12-1.91-.12-1.91-.12-1.92-.11-1.91-.11-1.91-.11-1.92-.1-1.92-.11-1.91-.1-1.92-.09-1.92-.1-1.92-.09-1.92-.09-1.92-.09-1.93-.08-1.92-.08-1.92-.08-1.93-.08-1.92-.08-1.93-.07-1.93-.07-1.93-.06-1.93-.07-1.93-.06-1.93-.06-1.93-.05-1.93-.06-1.93-.05" style="stroke-width:1.07;stroke:#000000;stroke-opacity:0.10;stroke-linecap:butt"/><path d="m595.6 303.1-1.87-.26-1.87-.25-1.87-.25-1.87-.25-1.87-.25-1.87-.25-1.87-.24-1.87-.25-1.87-.24-1.88-.24-1.87-.24-1.87-.24-1.88-.23-1.87-.24-1.88-.23-1.87-.23-1.88-.23-1.88-.23-1.87-.22-1.88-.23-1.88-.22-1.88-.22-1.88-.23-1.88-.21-1.88-.22-1.88-.22-1.88-.21-1.88-.21-1.88-.21-1.89-.21-1.88-.21-1.88-.21-1.89-.2-1.88-.21-1.89-.2-1.88-.2-1.89-.2-1.89-.19-1.88-.2-1.89-.19-1.89-.19-1.89-.2-1.89-.18-1.89-.19-1.89-.19-1.89-.18-1.89-.19-1.89-.18-1.89-.18-1.9-.17-1.89-.18-1.89-.18-1.9-.17-1.89-.17-1.9-.17-1.89-.17-1.9-.17-1.89-.16-1.9-.17-1.9-.16-1.9-.16-1.9-.16-1.9-.16-1.89-.16-1.9-.15-1.91-.15-1.9-.16-1.9-.15-1.9-.14-1.9-.15-1.91-.15-1.9-.14-1.9-.14-1.91-.14-1.9-.14-1.91-.14-1.9-.14-1.91-.13-1.91-.13-1.91-.14-1.9-.13-1.91-.12-1.91-.13-1.91-.13-1.91-.12-1.91-.12-1.91-.12-1.91-.12-1.92-.12-1.91-.11-1.91-.12-1.92-.11-1.91-.11-1.91-.11-1.92-.11-1.91-.11-1.92-.1-1.92-.1-1.91-.11" style="stroke-width:1.07;stroke:#000000;stroke-opacity:0.10;stroke-linecap:butt"/><path d="m595.6 303.1-1.89-.21-1.88-.2-1.88-.2-1.89-.2-1.89-.21-1.88-.2-1.89-.2-1.88-.2-1.89-.2-1.88-.2-1.89-.19-1.89-.2-1.88-.2-1.89-.2-1.89-.19-1.88-.2-1.89-.19-1.89-.2-1.89-.19-1.88-.2-1.89-.19-1.89-.19-1.89-.2-1.89-.19-1.88-.19-1.89-.19-1.89-.19-1.89-.19-1.89-.19-1.89-.19-1.89-.19-1.89-.18-1.89-.19-1.89-.19-1.89-.18-1.89-.19-1.89-.18-1.89-.19-1.89-.18-1.89-.18-1.89-.19-1.89-.18-1.9-.18-1.89-.18-1.89-.18-1.89-.18-1.89-.18-1.9-.18-1.89-.18-1.89-.18-1.89-.18-1.9-.18-1.89-.17-1.89-.18-1.9-.17-1.89-.18-1.89-.17-1.9-.18-1.89-.17-1.9-.17-1.89-.18-1.9-.17-1.89-.17-1.9-.17-1.89-.17-1.9-.17-1.89-.17-1.9-.17-1.89-.17-1.9-.17-1.89-.16-1.9-.17-1.9-.17-1.89-.16-1.9-.17-1.9-.16-1.89-.17-1.9-.16-1.9-.16-1.9-.17-1.9-.16-1.89-.16-1.9-.16-1.9-.16-1.9-.16-1.9-.16-1.9-.16-1.89-.16-1.9-.16-1.9-.15-1.9-.16-1.9-.16-1.9-.15-1.9-.16-1.9-.15-1.9-.16-1.9-.15-1.9-.15-1.9-.16M595.6 303.1l-1.9-.16-1.9-.15-1.9-.15-1.9-.16-1.9-.15-1.9-.16-1.9-.15-1.9-.16-1.9-.16-1.9-.15-1.9-.16-1.9-.16-1.9-.16-1.9-.16-1.89-.16-1.9-.16-1.9-.16-1.9-.16-1.9-.16-1.89-.17-1.9-.16-1.9-.16-1.9-.17-1.89-.16-1.9-.17-1.9-.16-1.89-.17-1.9-.17-1.9-.16-1.89-.17-1.9-.17-1.89-.17-1.9-.17-1.89-.17-1.9-.17-1.89-.17-1.9-.17-1.89-.17-1.9-.17-1.89-.18-1.9-.17-1.89-.18-1.89-.17-1.9-.17-1.89-.18-1.89-.18-1.9-.17-1.89-.18-1.89-.18-1.9-.18-1.89-.17-1.89-.18-1.89-.18-1.9-.18-1.89-.19-1.89-.18-1.89-.18-1.89-.18-1.89-.18-1.89-.19-1.89-.18-1.9-.19-1.89-.18-1.89-.19-1.89-.18-1.89-.19-1.89-.19-1.89-.18-1.89-.19-1.88-.19-1.89-.19-1.89-.19-1.89-.19-1.89-.19-1.89-.19-1.89-.19-1.89-.19-1.88-.2-1.89-.19-1.89-.19-1.89-.2-1.88-.19-1.89-.2-1.89-.2-1.88-.19-1.89-.2-1.89-.2-1.88-.19-1.89-.2-1.89-.2-1.88-.2-1.89-.2-1.88-.2-1.89-.2-1.88-.2-1.89-.21-1.88-.2-1.89-.2-1.88-.21" style="stroke-width:1.07;stroke:#000000;stroke-opacity:0.10;stroke-linecap:butt"/><path d="m595.6 303.1-1.92-.1-1.91-.11-1.92-.1-1.92-.11-1.91-.11-1.92-.11-1.91-.11-1.91-.11-1.92-.11-1.91-.12-1.91-.12-1.91-.12-1.91-.12-1.91-.12-1.91-.12-1.91-.13-1.91-.12-1.91-.13-1.91-.13-1.91-.13-1.9-.14-1.91-.13-1.91-.14-1.9-.14-1.91-.13-1.9-.15-1.9-.14-1.91-.14-1.9-.15-1.9-.14-1.91-.15-1.9-.15-1.9-.15-1.9-.16-1.9-.15-1.9-.16-1.9-.16-1.9-.16-1.89-.16-1.9-.16-1.9-.16-1.9-.17-1.89-.17-1.9-.17-1.89-.17-1.9-.17-1.89-.17-1.9-.18-1.89-.17-1.89-.18-1.89-.18-1.9-.18-1.89-.19-1.89-.18-1.89-.19-1.89-.18-1.89-.19-1.88-.19-1.89-.2-1.89-.19-1.89-.2-1.88-.19-1.89-.2-1.89-.2-1.88-.2-1.89-.21-1.88-.2-1.88-.21-1.89-.2-1.88-.21-1.88-.21-1.88-.22-1.89-.21-1.88-.22-1.88-.21-1.88-.22-1.88-.22-1.87-.23-1.88-.22-1.88-.22-1.88-.23-1.87-.23-1.88-.23-1.88-.23-1.87-.23-1.88-.24-1.87-.23-1.87-.24-1.88-.24-1.87-.24-1.87-.24-1.87-.25-1.88-.24-1.87-.25-1.87-.25-1.87-.25-1.87-.25-1.87-.25-1.86-.26" style="stroke-width:1.07;stroke:#000000;stroke-opacity:0.10;stroke-linecap:butt"/><path d="m595.6 303.1-1.93-.05-1.94-.06-1.93-.05-1.93-.06-1.93-.06-1.93-.07-1.93-.06-1.92-.07-1.93-.07-1.93-.08-1.92-.07-1.92-.08-1.93-.09-1.92-.08-1.92-.09-1.92-.09-1.92-.09-1.92-.09-1.92-.1-1.92-.1-1.91-.11-1.92-.1-1.91-.11-1.92-.11-1.91-.11-1.91-.12-1.92-.12-1.91-.12-1.91-.12-1.91-.13-1.9-.13-1.91-.13-1.91-.13-1.9-.14-1.91-.14-1.9-.14-1.91-.14-1.9-.15-1.9-.15-1.9-.15-1.9-.16-1.9-.15-1.9-.16-1.9-.17-1.9-.16-1.89-.17-1.9-.17-1.89-.17-1.89-.18-1.9-.18-1.89-.18-1.89-.18-1.89-.19-1.89-.19-1.89-.19-1.89-.19-1.88-.2-1.89-.2-1.88-.2-1.89-.2-1.88-.21-1.88-.21-1.89-.21-1.88-.22-1.88-.21-1.88-.22-1.88-.23-1.87-.22-1.88-.23-1.88-.23-1.87-.23-1.88-.24-1.87-.23-1.87-.25-1.87-.24-1.88-.24-1.87-.25-1.87-.25-1.86-.26-1.87-.25-1.87-.26-1.86-.26-1.87-.27-1.86-.26-1.87-.27-1.86-.28-1.86-.27-1.86-.28-1.87-.28-1.85-.28-1.86-.28-1.86-.29-1.86-.29-1.85-.29-1.86-.3-1.85-.3-1.86-.3-1.85-.3-1.85-.31" style="stroke-width:1.07;stroke:#000000;stroke-opacity:0.10;stroke-linecap:butt"/><path d="M595.6 303.1h-1.95l-1.95-.01h-1.95l-1.94-.01-1.95-.02-1.94-.02-1.94-.02-1.94-.02-1.94-.03-1.94-.03-1.94-.04-1.94-.04-1.93-.04-1.94-.05-1.93-.05-1.93-.06-1.93-.05-1.93-.07-1.93-.06-1.93-.07-1.92-.07-1.93-.08-1.92-.08-1.93-.08-1.92-.09-1.92-.09-1.92-.1-1.92-.09-1.91-.11-1.92-.1-1.91-.11-1.92-.11-1.91-.12-1.91-.12-1.91-.12-1.91-.13-1.91-.13-1.9-.14-1.91-.13-1.9-.15-1.91-.14-1.9-.15-1.9-.15-1.9-.16-1.9-.16-1.89-.16-1.9-.17-1.9-.17-1.89-.18-1.89-.17-1.89-.19-1.89-.18-1.89-.19-1.89-.19-1.89-.2-1.88-.2-1.89-.2-1.88-.21-1.88-.21-1.88-.22-1.88-.21-1.88-.23-1.88-.22-1.88-.23-1.87-.23-1.88-.24-1.87-.24-1.87-.24-1.87-.25-1.87-.25-1.87-.26-1.87-.26-1.86-.26-1.87-.26-1.86-.27-1.86-.28-1.87-.27-1.86-.28-1.86-.29-1.85-.28-1.86-.29-1.86-.3-1.85-.3-1.85-.3-1.86-.3-1.85-.31-1.85-.32-1.84-.31-1.85-.32-1.85-.33-1.84-.33-1.85-.33-1.84-.33-1.84-.34-1.84-.34-1.84-.35-1.84-.35-1.84-.35-1.83-.36" style="stroke-width:1.07;stroke:#000000;stroke-opacity:0.10;stroke-linecap:butt"/><path d="m595.6 303.1-1.97.05-1.96.05-1.96.04-1.96.03-1.96.04-1.96.02-1.96.03-1.95.02-1.96.01-1.95.01h-5.85l-1.94-.01-1.95-.02-1.94-.02-1.94-.02-1.94-.03-1.94-.03-1.94-.04-1.94-.04-1.93-.05-1.93-.05-1.93-.06-1.93-.06-1.93-.06-1.93-.07-1.92-.08-1.93-.08-1.92-.08-1.92-.09-1.92-.1-1.92-.1-1.92-.1-1.91-.11-1.91-.11-1.92-.12-1.91-.12-1.91-.13-1.9-.13-1.91-.13-1.9-.14-1.91-.15-1.9-.15-1.9-.15-1.9-.16-1.89-.17-1.9-.17-1.89-.17-1.9-.18-1.89-.18-1.89-.19-1.89-.19-1.88-.2-1.89-.2-1.88-.21-1.88-.21-1.88-.21-1.88-.22-1.88-.23-1.88-.23-1.87-.23-1.88-.24-1.87-.25-1.87-.24-1.87-.26-1.86-.26-1.87-.26-1.86-.26-1.87-.28-1.86-.27-1.86-.28-1.86-.29-1.85-.29-1.86-.3-1.85-.3-1.86-.3-1.85-.31-1.85-.31-1.84-.32-1.85-.33-1.85-.32-1.84-.34-1.84-.33-1.84-.35-1.84-.34-1.84-.35-1.83-.36-1.84-.36-1.83-.37-1.83-.37-1.83-.37-1.83-.38-1.83-.38-1.83-.39-1.82-.4-1.82-.4-1.82-.4-1.82-.41" style="stroke-width:1.07;stroke:#000000;stroke-opacity:0.10;stroke-linecap:butt"/><path d="m595.6 303.1-1.98.1-1.98.1-1.98.09-1.98.08-1.97.08-1.97.07-1.98.07-1.96.06-1.97.06-1.97.05-1.96.05-1.96.04-1.96.03-1.96.03-1.96.02-1.95.01-1.95.02h-3.9l-1.95-.01-1.95-.01-1.94-.02-1.94-.02-1.94-.03-1.94-.04-1.94-.04-1.93-.04-1.93-.06-1.93-.05-1.93-.07-1.93-.07-1.93-.07-1.92-.08-1.92-.09-1.92-.09-1.92-.1-1.92-.1-1.91-.11-1.91-.12-1.91-.12-1.91-.13-1.91-.13-1.91-.14-1.9-.14-1.9-.15-1.9-.16-1.9-.16-1.9-.16-1.89-.18-1.89-.17-1.89-.19-1.89-.19-1.89-.19-1.88-.2-1.89-.21-1.88-.21-1.88-.22-1.88-.23-1.87-.23-1.88-.23-1.87-.24-1.87-.25-1.87-.25-1.87-.26-1.86-.26-1.87-.27-1.86-.28-1.86-.28-1.86-.29-1.85-.29-1.86-.3-1.85-.3-1.85-.31-1.85-.32-1.85-.32-1.84-.33-1.85-.33-1.84-.34-1.84-.34-1.84-.35-1.83-.36-1.84-.36-1.83-.37-1.83-.37-1.83-.38-1.83-.38-1.82-.39-1.83-.4-1.82-.4-1.82-.4-1.81-.42-1.82-.42-1.82-.42-1.81-.43-1.81-.44-1.81-.44-1.8-.44-1.81-.46-1.8-.46" style="stroke-width:1.07;stroke:#000000;stroke-opacity:0.10;stroke-linecap:butt"/><path d="m595.6 303.1-2 .15-1.99.15-2 .14-1.99.13-1.99.13-1.99.11-1.98.12-1.98.1-1.99.1-1.97.09-1.98.09-1.98.08-1.97.07-1.97.07-1.97.05-1.96.06-1.96.04-1.97.04-1.96.03-1.95.02-1.96.02-1.95.01-1.95.01h-1.95l-1.95-.01-1.94-.02-1.94-.02-1.94-.03-1.94-.04-1.94-.04-1.93-.05-1.93-.06-1.93-.06-1.93-.07-1.92-.08-1.93-.08-1.92-.09-1.91-.1-1.92-.1-1.91-.11-1.92-.12-1.91-.12-1.9-.14-1.91-.13-1.9-.15-1.9-.15-1.9-.16-1.9-.16-1.9-.17-1.89-.18-1.89-.19-1.89-.19-1.88-.2-1.89-.2-1.88-.21-1.88-.22-1.88-.23-1.87-.23-1.87-.24-1.88-.24-1.87-.26-1.86-.26-1.87-.26-1.86-.28-1.86-.28-1.86-.28-1.85-.29-1.86-.3-1.85-.31-1.85-.31-1.85-.33-1.84-.32-1.85-.34-1.84-.34-1.84-.34-1.83-.36-1.84-.36-1.83-.37-1.83-.37-1.83-.38-1.82-.39-1.83-.39-1.82-.4-1.82-.41-1.82-.42-1.81-.42-1.81-.43-1.82-.43-1.8-.45-1.81-.44-1.81-.46-1.8-.46-1.8-.47-1.8-.48-1.79-.48-1.8-.49-1.79-.49-1.79-.51-1.78-.51" style="stroke-width:1.07;stroke:#000000;stroke-opacity:0.10;stroke-linecap:butt"/><path d="m595.6 303.1-2.02.2-2.01.2-2.01.19-2 .18-2.01.17-2 .16-2 .16-2 .15-1.99.14-1.99.14-1.99.12-1.99.12-1.98.11-1.98.1-1.98.1-1.98.09-1.98.08-1.97.07-1.97.06-1.96.06-1.97.04-1.96.04-1.96.04-1.96.02-1.95.02-1.95.01h-1.95l-1.95-.01-1.95-.01-1.94-.02-1.94-.03-1.94-.04-1.93-.05-1.93-.05-1.93-.06-1.93-.07-1.93-.08-1.92-.08-1.92-.1-1.91-.1-1.92-.1-1.91-.12-1.91-.12-1.91-.13-1.91-.14-1.9-.15-1.9-.16-1.9-.16-1.89-.17-1.89-.18-1.89-.18-1.89-.2-1.89-.2-1.88-.21-1.88-.21-1.88-.23-1.87-.23-1.88-.24-1.87-.25-1.86-.26-1.87-.26-1.86-.27-1.86-.28-1.86-.29-1.86-.3-1.85-.3-1.85-.31-1.85-.32-1.84-.32-1.85-.34-1.84-.34-1.83-.35-1.84-.36-1.83-.36-1.83-.38-1.83-.38-1.83-.39-1.82-.39-1.82-.41-1.82-.41-1.81-.42-1.82-.43-1.81-.43-1.81-.45-1.8-.45-1.81-.46-1.8-.46-1.8-.48-1.79-.48-1.79-.49-1.8-.5-1.78-.51-1.79-.51-1.78-.52-1.78-.53-1.78-.54-1.78-.54-1.77-.56-1.77-.56" style="stroke-width:1.07;stroke:#000000;stroke-opacity:0.10;stroke-linecap:butt"/><path d="m595.6 303.1-2.03.25-2.03.25-2.02.24-2.03.22-2.01.22-2.02.22-2.01.2-2.02.19-2 .18-2.01.18-2 .17-2 .15-2 .15-1.99.14-1.99.13-1.99.13-1.99.11-1.98.11-1.98.09-1.98.09-1.97.08-1.97.07-1.97.06-1.97.05-1.96.04-1.96.03-1.96.03-1.95.02h-3.9l-1.95-.01-1.94-.02-1.94-.02-1.94-.04-1.93-.05-1.94-.05-1.92-.06-1.93-.08-1.92-.08-1.93-.09-1.91-.1-1.92-.1-1.91-.12-1.91-.13-1.91-.13-1.9-.14-1.9-.15-1.9-.16-1.9-.17-1.89-.18-1.89-.19-1.89-.2-1.88-.2-1.88-.21-1.88-.23-1.88-.23-1.87-.24-1.87-.25-1.87-.25-1.86-.27-1.86-.28-1.86-.28-1.86-.29-1.85-.31-1.85-.31-1.85-.32-1.84-.32-1.85-.34-1.83-.35-1.84-.35-1.83-.37-1.84-.37-1.82-.38-1.83-.39-1.82-.4-1.82-.41-1.82-.42-1.81-.42-1.81-.44-1.81-.44-1.81-.45-1.8-.46-1.8-.47-1.8-.48-1.79-.49-1.79-.5-1.79-.5-1.79-.52-1.78-.52-1.78-.53-1.78-.54-1.77-.55-1.77-.56-1.77-.57-1.77-.57-1.76-.59-1.76-.59-1.76-.6-1.75-.62" style="stroke-width:1.07;stroke:#000000;stroke-opacity:0.10;stroke-linecap:butt"/><path d="m595.6 303.1-2.05.3-2.04.3-2.04.29-2.04.27-2.03.27-2.03.26-2.03.24-2.03.24-2.02.23-2.02.21-2.01.21-2.01.2-2.01.18-2.01.18-2 .17-2 .16-2 .15-1.99.13-1.99.13-1.99.12-1.98.11-1.98.1-1.98.09-1.97.07-1.97.07-1.97.06-1.97.05-1.96.04-1.96.03-1.95.02-1.96.01h-1.95l-1.94-.01-1.94-.02-1.94-.03-1.94-.04-1.93-.05-1.93-.06-1.93-.07-1.93-.08-1.92-.09-1.91-.1-1.92-.11-1.91-.12-1.91-.13-1.9-.13-1.91-.15-1.9-.16-1.89-.17-1.89-.18-1.89-.19-1.89-.19-1.88-.21-1.88-.22-1.88-.23-1.87-.23-1.87-.25-1.87-.26-1.87-.27-1.86-.27-1.86-.29-1.85-.3-1.85-.3-1.85-.32-1.85-.33-1.84-.33-1.84-.35-1.83-.36-1.84-.36-1.83-.38-1.82-.38-1.83-.4-1.82-.4-1.81-.42-1.82-.42-1.81-.44-1.81-.45-1.8-.45-1.8-.46-1.8-.48-1.8-.48-1.79-.5-1.79-.5-1.78-.52-1.79-.52-1.78-.54-1.77-.54-1.78-.55-1.77-.57-1.76-.57-1.77-.58-1.76-.6-1.75-.6-1.76-.61-1.75-.63-1.75-.63-1.74-.64-1.74-.65-1.74-.67m-69.46 131.43.01.96.02.97.03.96.04.96.05.96.06.96.07.95.07.96.09.95.09.95.1.95.12.95.12.95.13.95.14.94.15.95.16.94.16.94.18.94.18.94.2.94.2.93.22.94.22.93.23.93.24.93.25.93.26.92.27.93.27.92.29.93.3.92.3.92.31.92.33.92.33.91.34.92.35.91.36.91.37.91.38.91.38.91.4.9.41.91.41.9.42.9.44.9.44.9.45.9.46.9.47.89.48.9.49.89.49.89.51.89.51.89.53.88.53.89.54.88.56.89.56.88.57.88.58.88.58.87.6.88.61.87.61.88.63.87.63.87.65.87.65.86.66.87.67.86.68.87.69.86.7.86.71.86.71.86.73.85.73.86.75.85.75.85.76.85.77.85.78.85.79.85.8.84.81.84.82.85.82.84.84.84.84.83.86.84.86.84.87.83.89.83.89.83.9.83.9.83" style="stroke-width:1.07;stroke:#000000;stroke-opacity:0.10;stroke-linecap:butt"/><path d="m338.77 416.88.09.95.11.95.1.95.12.95.12.95.13.95.14.94.15.95.15.94.16.94.17.94.17.94.19.94.19.94.2.93.2.94.22.93.22.94.22.93.24.93.24.93.25.93.26.92.27.93.27.93.28.92.29.92.29.92.31.92.31.92.31.92.33.92.33.91.34.92.35.91.36.91.36.92.37.91.38.9.38.91.4.91.4.9.4.91.42.9.42.9.43.91.44.9.45.89.45.9.46.9.47.89.47.9.48.89.49.89.5.89.51.89.51.89.52.89.53.89.53.88.55.88.55.89.55.88.57.88.57.88.58.88.59.87.59.88.61.88.61.87.61.87.63.87.63.87.64.87.65.87.65.87.67.86.67.87.67.86.69.86.69.87.7.86.71.85.71.86.72.86.73.85.74.86.75.85.75.85.76.85.77.85.77.85.78.85.79.85.8.84.8.85.82.84.82.84.82.84" style="stroke-width:1.07;stroke:#000000;stroke-opacity:0.10;stroke-linecap:butt"/><path d="m338.77 416.88.18.94.18.94.18.94.2.93.19.94.21.94.21.93.21.93.22.94.23.93.23.93.24.93.25.93.25.93.25.93.27.92.27.93.27.92.28.93.28.92.3.92.29.92.31.92.3.92.32.92.32.92.33.92.33.91.34.92.34.91.35.91.35.92.37.91.36.91.38.91.37.91.39.91.39.9.39.91.41.9.4.91.42.9.42.9.42.91.43.9.44.9.44.9.45.89.46.9.46.9.46.89.48.9.47.89.49.9.49.89.49.89.5.89.51.89.51.89.52.88.52.89.53.89.54.88.54.89.55.88.55.88.56.88.57.88.57.88.57.88.59.88.59.88.59.87.6.88.61.87.61.88.62.87.62.87.63.87.63.87.64.87.65.87.65.87.66.86.66.87.67.86.68.87.68.86.69.86.69.86.7.86.71.86.71.86.71.86.73.85.72.86.74.85.74.86.74.85" style="stroke-width:1.07;stroke:#000000;stroke-opacity:0.10;stroke-linecap:butt"/><path d="m338.77 416.88.26.93.26.92.26.93.27.93.27.92.28.93.28.92.29.92.29.92.29.93.3.92.3.92.31.92.31.92.31.92.32.91.33.92.32.92.33.91.34.92.34.91.34.92.35.91.35.91.36.92.36.91.36.91.37.91.37.91.38.91.38.91.39.91.39.9.39.91.4.91.4.9.41.91.41.9.41.9.42.91.42.9.43.9.43.9.44.9.44.9.44.9.45.9.45.9.46.89.46.9.46.89.47.9.47.89.48.9.48.89.48.89.49.9.5.89.5.89.5.89.5.89.51.89.52.89.52.88.52.89.53.89.53.88.53.89.54.88.54.89.55.88.55.88.56.88.56.88.56.89.57.88.57.87.58.88.58.88.59.88.59.88.59.87.6.88.6.87.61.88.61.87.61.87.62.88.62.87.63.87.63.87.63.87.64.87.64.87.65.87.65.86.66.87.66.87.66.86" style="stroke-width:1.07;stroke:#000000;stroke-opacity:0.10;stroke-linecap:butt"/><path d="m338.77 416.88.34.92.34.91.34.91.35.92.35.91.35.91.35.92.35.91.36.91.36.91.37.92.36.91.37.91.37.91.37.91.38.91.38.9.38.91.38.91.38.91.39.91.39.9.39.91.4.91.4.9.4.91.4.9.41.91.4.9.41.91.42.9.41.9.42.91.42.9.42.9.43.9.43.91.43.9.43.9.43.9.44.9.44.9.45.9.44.89.45.9.45.9.45.9.46.9.45.89.46.9.47.9.46.89.47.9.47.89.47.9.48.89.48.89.48.9.48.89.48.89.49.9.49.89.49.89.5.89.5.89.5.89.5.89.51.89.5.89.51.89.52.89.51.89.52.88.52.89.52.89.53.88.52.89.53.89.54.88.53.89.54.88.54.89.54.88.55.88.55.89.55.88.55.88.55.88.56.89.56.88.56.88.57.88.57.88.57.88.57.88.57.88.58.88.58.87.58.88" style="stroke-width:1.07;stroke:#000000;stroke-opacity:0.10;stroke-linecap:butt"/><path d="m338.77 416.88.42.9.42.91.42.9.42.9.43.9.42.9.42.91.43.9.43.9.42.9.43.9.43.9.43.91.43.9.43.9.43.9.44.9.43.9.43.9.44.9.43.9.44.9.44.9.44.9.44.9.44.9.44.9.44.9.44.9.45.9.44.89.45.9.44.9.45.9.45.9.45.9.45.9.45.89.45.9.45.9.45.9.45.89.46.9.45.9.46.9.46.89.46.9.45.9.46.89.46.9.46.9.47.89.46.9.46.89.47.9.46.9.47.89.47.9.46.89.47.9.47.89.47.9.47.89.47.9.48.89.47.9.47.89.48.89.48.9.47.89.48.9.48.89.48.89.48.9.48.89.48.89.48.9.49.89.48.89.49.89.48.9.49.89.49.89.49.89.49.9.49.89.49.89.49.89.49.89.49.89.5.9.49.89.5.89.5.89.49.89.5.89.5.89.5.89.5.89" style="stroke-width:1.07;stroke:#000000;stroke-opacity:0.10;stroke-linecap:butt"/><path d="m338.77 416.88.5.89.5.89.5.89.5.89.5.89.49.89.5.89.5.9.49.89.49.89.5.89.49.89.49.89.49.9.49.89.49.89.49.89.48.89.49.9.48.89.49.89.48.9.48.89.49.89.48.9.48.89.48.89.47.9.48.89.48.89.48.9.47.89.47.9.48.89.47.9.47.89.47.89.47.9.47.89.47.9.47.9.47.89.46.9.47.89.46.9.47.89.46.9.46.9.46.89.46.9.46.9.46.89.46.9.45.9.46.89.46.9.45.9.45.9.46.89.45.9.45.9.45.9.45.9.45.89.45.9.44.9.45.9.44.9.45.9.44.9.44.89.45.9.44.9.44.9.44.9.44.9.43.9.44.9.44.9.43.9.44.9.43.9.43.9.43.91.44.9.43.9.43.9.42.9.43.9.43.9.42.9.43.91.42.9.43.9.42.9.42.9.42.91.42.9.42.9" style="stroke-width:1.07;stroke:#000000;stroke-opacity:0.10;stroke-linecap:butt"/><path d="m338.77 416.88.58.88.58.88.58.87.58.88.57.88.57.88.57.88.56.88.56.88.56.89.56.88.56.88.55.88.55.89.55.88.54.88.55.89.54.88.53.88.54.89.53.89.53.88.53.89.52.88.53.89.52.89.51.89.52.88.51.89.51.89.51.89.5.89.51.89.5.89.5.89.49.89.49.89.49.9.49.89.49.89.48.89.48.9.48.89.47.9.47.89.47.9.47.89.47.9.46.89.46.9.46.9.45.89.46.9.45.9.44.9.45.9.44.9.44.9.44.89.44.91.43.9.43.9.43.9.42.9.42.9.42.9.42.91.42.9.41.9.41.91.41.9.4.91.41.9.4.91.4.9.39.91.39.91.39.91.39.9.39.91.38.91.38.91.38.91.37.91.38.91.37.91.36.91.37.91.36.91.36.91.36.91.36.91.35.92.35.91.35.91.34.92.35.91.34.92.33.91" style="stroke-width:1.07;stroke:#000000;stroke-opacity:0.10;stroke-linecap:butt"/><path d="m338.77 416.88.67.87.66.86.65.87.65.87.65.86.64.87.64.87.64.87.63.87.62.87.63.88.62.87.61.87.61.87.61.88.6.87.6.88.59.88.59.87.58.88.58.88.58.88.57.88.57.88.57.88.56.88.55.88.55.88.55.89.54.88.54.88.54.89.53.89.53.88.52.89.52.89.51.88.51.89.51.89.5.89.5.89.49.9.49.89.49.89.48.89.47.9.48.89.46.9.47.89.46.9.46.9.45.89.45.9.44.9.44.9.43.9.43.9.43.9.42.91.42.9.42.9.41.91.4.9.41.91.39.9.4.91.39.91.38.9.38.91.38.91.37.91.37.91.37.91.36.91.35.92.35.91.35.91.35.92.34.91.33.92.33.91.33.92.32.92.32.92.32.91.31.92.3.92.31.92.29.93.3.92.29.92.28.92.28.93.28.92.27.93.27.92.27.93.26.92.25.93" style="stroke-width:1.07;stroke:#000000;stroke-opacity:0.10;stroke-linecap:butt"/><path d="m338.77 416.88.75.85.74.86.73.85.73.86.72.85.72.86.71.86.7.86.7.86.7.86.68.86.68.87.68.86.67.86.66.87.66.87.65.86.65.87.64.87.64.87.63.87.62.87.62.88.61.87.6.87.6.88.6.87.59.88.58.88.58.88.57.88.56.88.56.88.56.88.54.89.54.88.54.88.53.89.53.89.51.88.52.89.5.89.5.89.5.89.49.9.48.89.48.89.47.9.47.89.46.9.45.9.45.9.44.89.44.9.43.91.43.9.42.9.41.9.41.91.4.9.4.91.39.91.38.9.38.91.37.91.37.91.36.92.36.91.35.91.34.92.34.91.33.92.33.91.32.92.31.92.31.92.3.92.3.92.29.92.29.93.28.92.27.92.27.93.26.93.26.92.25.93.24.93.24.93.23.93.23.94.22.93.22.93.21.94.2.93.2.94.19.94.19.93.18.94.17.94" style="stroke-width:1.07;stroke:#000000;stroke-opacity:0.10;stroke-linecap:butt"/><path d="m338.77 416.88.83.84.82.84.81.85.8.84.8.85.79.84.78.85.78.85.77.85.76.85.75.85.74.85.74.86.73.85.72.86.72.86.7.86.7.86.7.86.68.86.68.86.67.87.66.86.66.87.64.87.64.87.64.87.62.87.62.87.61.88.6.87.6.88.58.87.58.88.58.88.56.88.56.88.55.89.54.88.54.89.53.88.52.89.51.89.5.89.5.89.49.89.48.89.48.9.47.89.46.9.45.9.44.9.44.9.43.9.43.9.41.9.41.91.4.9.39.91.39.91.38.91.37.91.36.91.35.91.35.91.34.92.33.91.33.92.32.92.31.92.3.92.3.92.29.92.28.93.27.92.26.93.26.93.25.92.25.93.23.93.23.94.22.93.21.93.21.94.2.93.19.94.18.94.18.94.16.94.16.94.16.95.14.94.14.95.13.94.13.95.11.95.11.95.1.95.09.95" style="stroke-width:1.07;stroke:#000000;stroke-opacity:0.10;stroke-linecap:butt"/><path d="m338.77 416.88.91.83.9.83.89.83.88.83.87.84.87.83.85.84.84.84.84.84.83.84.81.84.81.84.8.85.79.84.78.85.77.85.76.85.76.85.74.86.74.85.72.86.72.85.71.86.69.86.69.87.68.86.67.86.67.87.65.87.64.86.64.87.62.88.62.87.6.87.6.88.59.88.58.87.57.88.56.89.55.88.54.88.54.89.52.88.52.89.5.89.5.89.49.89.48.9.47.89.46.9.45.9.44.9.43.9.42.9.42.9.4.91.4.9.39.91.38.91.36.91.36.91.35.92.35.91.33.92.32.91.31.92.31.92.29.92.29.93.28.92.27.93.25.92.25.93.25.93.23.93.22.94.21.93.21.94.19.93.19.94.17.94.17.94.16.94.15.95.14.94.13.95.12.95.11.95.1.95.1.95.08.95.08.96.07.95.05.96.05.96.04.96.03.96.02.97.01.96" style="stroke-width:1.07;stroke:#000000;stroke-opacity:0.10;stroke-linecap:butt"/><path d="m458.54 343.82 1.92 3.31h-3.83zm80.47-91.96 1.91 3.32h-3.83zm-87.13 136.66 1.92 3.32h-3.83zm92.68-181.76 3.57 6.17H541zM349.94 338.32l1.91 3.31h-3.82zm116.75-128.66 1.92 3.31h-3.83zm-54.55-24.36 1.92 3.31h-3.83zM519.2 353.79l3.56 6.17h-7.12zM365.25 211.85l1.92 3.31h-3.83zm-54.13-17.26 1.91 3.31h-3.83zm-43.93 27.02 1.92 3.31h-3.83zm-35.65 97.17 1.91 3.32h-3.83zm56.98-4.24 1.91 3.32h-3.83zm218.1 68 1.91 3.31h-3.83zm-214.47-21.79 1.91 3.31h-3.83zm105.08 4.86 1.91 3.31h-3.83zM198.82 468.87l1.92 3.32h-3.83zm40.26-120.71 1.92 3.32h-3.83zm-12.19-103.33 1.91 3.31h-3.82zm366.39 23.28 1.91 3.31h-3.82zM431.59 584.34l1.91 3.31h-3.83z" style="stroke-width:0.71;stroke:none;fill:#00BA38"/><path d="M594.18 304.52h2.84v-2.84h-2.84zM333.29 422.36h10.96V411.4h-10.96z" style="stroke-width:0.71;stroke:none;fill:#619CFF"/><circle cx="408.23" cy="285.45" r="6.76" style="stroke-width:0.71;stroke:none;fill:#F8766D"/><circle cx="660.1" cy="147.95" r="1.42" style="stroke-width:0.71;stroke:none;fill:#F8766D"/><circle cx="59.9" cy="512.78" r="1.42" style="stroke-width:0.71;stroke:none;fill:#F8766D"/><circle cx="384.33" cy="505.63" r="1.42" style="stroke-width:0.71;stroke:none;fill:#F8766D"/><path d="M471.03 665.72h2.84v-2.85h-2.84z" style="stroke-width:0.71;stroke:none;fill:#619CFF"/><path d="m453.65 341.4 4.06 3.84m76.36-95.84 4.1 3.88m-87.39 142.25.86-3.75m87.9-176.15 4.19-3.97M355.02 335.71l-4.25 4.03m120.87-132.55-4.11 3.89m-50.48-28.22-4.07 3.86m111.17 175.87-4.11-3.9M370.28 218.81l-4.19-3.96m-60.07-22.89 4.27 4.05m-38.11 23.08-4.15 3.94m25.54 88.93-4.22 4m222.2 73.46-4.1-3.88m-210.31-17.86-4.16-3.93m98.99 8.84 4.41-4m-192.62 97.83-4.1 3.87m34.47-124.59 4.12 3.89m-6.41-107.23-4.12 3.89m370.78 28.8-4.37-3.96M426.67 591.2l4.08-3.86m159.69-279.57 4.31-3.9M333.6 421.56l4.32-3.91m75.5-136.9-4.34 3.93M655.35 141.4l4.1 5.65M65.1 508.16l-4.34 3.85m318.42-1.72 4.3-3.89m94.24 153.12-4.42 4" style="stroke-width:0.53;stroke:#BFBFBF"/><path d="M416.6 341.4h60.47-.09l.35-.02.34-.07.33-.12.3-.17.27-.22.23-.26.18-.3.14-.32.08-.33.03-.35h0v-6.8h0l-.03-.34-.08-.34-.14-.32-.18-.3-.23-.26-.27-.22-.3-.17-.33-.12-.34-.07-.26-.02H416.6l.26.02-.35-.02-.35.05-.33.09-.31.15-.29.2-.25.24-.21.28-.16.31-.11.33-.06.34v6.97-.17.34l.06.35.11.33.16.3.21.28.25.24.29.2.31.15.33.1.35.04z" style="stroke-width:0.53;fill:#FFFFFF;fill-opacity:0.50"/><text x="446.83" y="337.8" lengthAdjust="spacingAndGlyphs" style="font-size:5.69px;font-family:&quot;Liberation Sans&quot;" text-anchor="middle" textLength="57.59">511 W MAPLE ST LLC</text><path d="M500.38 249.4h53.51-.09l.35-.02.34-.07.32-.12.3-.17.27-.22.23-.26.19-.3.13-.32.09-.34.03-.34h0v-6.8h0l-.03-.34-.09-.34-.13-.32-.19-.3-.23-.26-.27-.22-.3-.17-.32-.12-.34-.07-.26-.02h-53.51l.26.02-.35-.02-.34.05-.33.09-.32.15-.29.2-.25.24-.2.28-.17.3-.11.33-.05.35-.01.17v6.8l.01-.18v.35l.05.35.11.33.17.3.2.28.25.24.29.2.32.15.33.09.34.05z" style="stroke-width:0.53;fill:#FFFFFF;fill-opacity:0.50"/><text x="527.13" y="245.8" lengthAdjust="spacingAndGlyphs" style="font-size:5.69px;font-family:&quot;Liberation Sans&quot;" text-anchor="middle" textLength="50.62">1903 S 5TH PL LLC</text><path d="M424.01 406.65h53.5-.08l.34-.02.34-.07.33-.12.3-.17.27-.22.23-.26.19-.3.13-.32.08-.34.03-.34h0v-6.8h0l-.03-.35-.08-.33-.13-.32-.19-.3-.23-.26-.27-.22-.3-.17-.33-.12-.34-.07-.26-.02h-53.5l.26.02-.35-.02-.34.04-.34.1-.31.15-.29.2-.25.24-.21.28-.16.3-.11.33-.06.35v6.97-.18.35l.06.34.11.33.16.31.21.28.25.24.29.2.31.15.34.09.34.05z" style="stroke-width:0.53;fill:#FFFFFF;fill-opacity:0.50"/><text x="450.76" y="403.05" lengthAdjust="spacingAndGlyphs" style="font-size:5.69px;font-family:&quot;Liberation Sans&quot;" text-anchor="middle" textLength="50.62">1919 S 5TH PL LLC</text><path d="M505.45 226.75h54.27-.09l.35-.02.34-.06.32-.13.31-.17.26-.22.24-.26.18-.3.14-.32.08-.33.03-.35h0v-6.8h0l-.03-.34-.08-.34-.14-.32-.18-.29-.24-.26-.26-.22-.31-.18-.32-.12-.34-.07-.26-.02h-54.27l.26.02-.35-.01-.34.04-.34.09-.31.15-.29.2-.25.24-.21.28-.16.31-.11.33-.06.34v6.97-.17.34l.06.35.11.33.16.3.21.28.25.24.29.2.31.15.34.1.34.04z" style="stroke-width:0.53;fill:#FFFFFF;fill-opacity:0.50"/><text x="532.58" y="223.15" lengthAdjust="spacingAndGlyphs" style="font-size:5.69px;font-family:&quot;Liberation Sans&quot;" text-anchor="middle" textLength="51.39">CRYSTAL LEMMER</text><path d="M335.2 335.71h53.51l-.09-.01.35-.01.34-.07.33-.12.3-.18.27-.22.23-.26.18-.29.14-.32.08-.34.03-.34h0v-6.8h0l-.03-.35-.08-.33-.14-.32-.18-.3-.23-.26-.27-.22-.3-.17-.33-.13-.34-.07-.26-.01H335.2l.27.01-.35-.01-.35.04-.33.1-.32.15-.28.2-.25.24-.21.27-.16.31-.11.33-.06.35-.01.17v6.8l.01-.18v.35l.06.34.11.33.16.31.21.28.25.24.28.2.32.15.33.09.35.04z" style="stroke-width:0.53;fill:#FFFFFF;fill-opacity:0.50"/><text x="361.96" y="332.11" lengthAdjust="spacingAndGlyphs" style="font-size:5.69px;font-family:&quot;Liberation Sans&quot;" text-anchor="middle" textLength="50.62">1962 S 5TH PL LLC</text><path d="M452.41 207.19h52.15l-.09-.01.35-.01.34-.07.32-.12.3-.18.27-.22.23-.26.19-.29.14-.32.08-.34.03-.34h0v-6.8h0l-.03-.35-.08-.33-.14-.32-.19-.3-.23-.26-.27-.22-.3-.17-.32-.13-.34-.07-.26-.01h-52.15l.26.01-.35-.01-.34.04-.33.1-.32.15-.28.2-.25.24-.21.27-.17.31-.11.33-.05.35-.01.17v6.8l.01-.18v.35l.05.34.11.33.17.31.21.28.25.24.28.2.32.15.33.09.34.04z" style="stroke-width:0.53;fill:#FFFFFF;fill-opacity:0.50"/><text x="478.48" y="203.59" lengthAdjust="spacingAndGlyphs" style="font-size:5.69px;font-family:&quot;Liberation Sans&quot;" text-anchor="middle" textLength="49.27">2031 S 5TH PI LLC</text><path d="M397.92 182.86h52.15-.09l.35-.01.34-.07.32-.12.31-.18.26-.22.24-.26.18-.29.14-.32.08-.34.03-.35h0v-6.79h0l-.03-.35-.08-.34-.14-.32-.18-.29-.24-.26-.26-.22-.31-.17-.32-.13-.34-.07-.26-.01h-52.15l.26.01-.34-.01-.35.04-.33.1-.32.15-.28.19-.25.25-.21.27-.16.31-.11.33-.06.34-.01.18v6.79l.01-.17v.35l.06.34.11.33.16.31.21.28.25.24.28.2.32.14.33.1.35.04z" style="stroke-width:0.53;fill:#FFFFFF;fill-opacity:0.50"/><text x="424" y="179.26" lengthAdjust="spacingAndGlyphs" style="font-size:5.69px;font-family:&quot;Liberation Sans&quot;" text-anchor="middle" textLength="49.27">2241 S 5TH PI LLC</text><path d="M504.33 373.71h53.51-.09l.35-.02.34-.07.32-.12.3-.17.27-.22.23-.26.19-.3.13-.32.09-.34.03-.34h0v-6.8h0l-.03-.34-.09-.34-.13-.32-.19-.3-.23-.26-.27-.22-.3-.17-.32-.12-.34-.07-.26-.02h-53.51l.26.02-.35-.02-.34.05-.34.09-.31.15-.29.2-.25.24-.2.28-.17.3-.11.33-.05.35-.01.17v6.8l.01-.18v.35l.05.35.11.32.17.31.2.28.25.24.29.2.31.15.34.09.34.05z" style="stroke-width:0.53;fill:#FFFFFF;fill-opacity:0.50"/><text x="531.08" y="370.11" lengthAdjust="spacingAndGlyphs" style="font-size:5.69px;font-family:&quot;Liberation Sans&quot;" text-anchor="middle" textLength="50.62">2245 S 5TH PL LLC</text><path d="M351.26 229.93h52.15l-.09-.01.35-.01.34-.07.32-.12.3-.18.27-.22.23-.26.19-.29.14-.32.08-.34.03-.34h0v-6.8h0l-.03-.35-.08-.33-.14-.32-.19-.3-.23-.26-.27-.22-.3-.17-.32-.13-.34-.06-.26-.02h-52.15l.26.02-.35-.02-.34.04-.33.1-.32.15-.28.2-.25.24-.21.28-.17.3-.11.33-.05.35-.01.17v6.8l.01-.18v.35l.05.34.11.33.17.31.21.28.25.24.28.2.32.15.33.09.34.04z" style="stroke-width:0.53;fill:#FFFFFF;fill-opacity:0.50"/><text x="377.33" y="226.33" lengthAdjust="spacingAndGlyphs" style="font-size:5.69px;font-family:&quot;Liberation Sans&quot;" text-anchor="middle" textLength="49.27">2265 S 5TH PI LLC</text><path d="M274.13 191.96h49.96l-.09-.01.35-.01.34-.07.33-.12.3-.18.27-.22.23-.26.18-.29.14-.32.08-.34.03-.34h0V183h0l-.03-.35-.08-.33-.14-.32-.18-.3-.23-.26-.27-.22-.3-.17-.33-.12-.34-.07-.26-.02h-49.96l.26.02-.35-.02-.34.04-.33.1-.32.15-.28.2-.26.24-.2.28-.17.3-.11.33-.05.35-.01.17v6.8l.01-.18v.35l.05.34.11.33.17.31.2.28.26.24.28.2.32.15.33.09.34.04z" style="stroke-width:0.53;fill:#FFFFFF;fill-opacity:0.50"/><text x="299.11" y="188.36" lengthAdjust="spacingAndGlyphs" style="font-size:5.69px;font-family:&quot;Liberation Sans&quot;" text-anchor="middle" textLength="47.08">NEW HALO 4 LLC</text><path d="M252.31 219.09h53.72-.09l.35-.01.34-.07.33-.12.3-.18.27-.22.23-.26.18-.29.14-.32.08-.34.03-.35h0v-6.79h0l-.03-.35-.08-.34-.14-.32-.18-.29-.23-.26-.27-.22-.3-.17-.33-.13-.34-.07-.26-.01h-53.72l.26.01-.35-.01-.35.04-.33.1-.31.15-.29.19-.25.24-.21.28-.16.31-.11.33-.06.34v6.97-.17.35l.06.34.11.33.16.31.21.28.25.24.29.19.31.15.33.1.35.04z" style="stroke-width:0.53;fill:#FFFFFF;fill-opacity:0.50"/><text x="279.17" y="215.49" lengthAdjust="spacingAndGlyphs" style="font-size:5.69px;font-family:&quot;Liberation Sans&quot;" text-anchor="middle" textLength="50.84">2248 S 5TH P1 LLC</text><path d="M171.07 327.14h53.5l-.09-.01.35-.01.34-.07.33-.12.3-.18.27-.22.23-.26.18-.29.14-.32.08-.34.03-.34h0v-6.8h0l-.03-.35-.08-.34-.14-.32-.18-.29-.23-.26-.27-.22-.3-.17-.33-.13-.34-.07-.26-.01h-53.5l.26.01-.35-.01-.35.04-.33.1-.31.15-.29.2-.25.24-.21.27-.16.31-.11.33-.06.34v6.98-.18.35l.06.34.11.33.16.31.21.28.25.24.29.2.31.15.33.09.35.04z" style="stroke-width:0.53;fill:#FFFFFF;fill-opacity:0.50"/><text x="197.82" y="323.54" lengthAdjust="spacingAndGlyphs" style="font-size:5.69px;font-family:&quot;Liberation Sans&quot;" text-anchor="middle" textLength="50.62">2241 S 5TH PL LLC</text><path d="M273.77 311.96h53.5-.08l.34-.02.34-.06.33-.13.3-.17.27-.22.23-.26.19-.3.13-.32.09-.33.02-.35h0V303h0l-.02-.34-.09-.34-.13-.32-.19-.29-.23-.26-.27-.22-.3-.18-.33-.12-.34-.07-.26-.02h-53.5l.26.02-.35-.01-.34.04-.34.09-.31.15-.29.2-.25.24-.21.28-.16.31-.11.33-.05.34-.01.17v6.8l.01-.17v.34l.05.35.11.33.16.31.21.27.25.24.29.2.31.15.34.1.34.04z" style="stroke-width:0.53;fill:#FFFFFF;fill-opacity:0.50"/><text x="300.52" y="308.36" lengthAdjust="spacingAndGlyphs" style="font-size:5.69px;font-family:&quot;Liberation Sans&quot;" text-anchor="middle" textLength="50.62">2172 S 5TH PL LLC</text><path d="M491.7 400.54h53.51-.09l.35-.02.34-.07.32-.12.3-.18.27-.22.23-.26.19-.29.14-.32.08-.34.03-.34h0v-6.8h0l-.03-.35-.08-.33-.14-.32-.19-.3-.23-.26-.27-.22-.3-.17-.32-.12-.34-.07-.26-.02H491.7l.26.02-.35-.02-.34.04-.33.1-.32.15-.28.2-.25.24-.21.28-.17.3-.11.33-.05.35-.01.17v6.8l.01-.18v.35l.05.34.11.33.17.31.21.28.25.24.28.2.32.15.33.09.34.05z" style="stroke-width:0.53;fill:#FFFFFF;fill-opacity:0.50"/><text x="518.45" y="396.94" lengthAdjust="spacingAndGlyphs" style="font-size:5.69px;font-family:&quot;Liberation Sans&quot;" text-anchor="middle" textLength="50.62">2178 S 5TH PL LLC</text><path d="M277.44 378.8h53.5l-.09-.01.35-.01.34-.07.33-.12.3-.18.27-.22.23-.26.18-.29.14-.32.08-.34.03-.34h0v-6.8h0l-.03-.35-.08-.34-.14-.32-.18-.29-.23-.26-.27-.22-.3-.17-.33-.13-.34-.07-.26-.01h-53.5l.26.01-.35-.01-.35.04-.33.1-.31.15-.29.2-.25.24-.21.27-.16.31-.11.33-.06.34v6.98-.18.35l.06.34.11.33.16.31.21.28.25.24.29.2.31.15.33.09.35.04z" style="stroke-width:0.53;fill:#FFFFFF;fill-opacity:0.50"/><text x="304.19" y="375.2" lengthAdjust="spacingAndGlyphs" style="font-size:5.69px;font-family:&quot;Liberation Sans&quot;" text-anchor="middle" textLength="50.62">2129 S 5TH PL LLC</text><path d="M348.61 391.9h63.78-.09l.35-.02.34-.07.32-.12.3-.18.27-.22.23-.26.19-.29.13-.32.09-.34.03-.34h0v-14.99h0l-.03-.35-.09-.34-.13-.32-.19-.29-.23-.26-.27-.22-.3-.18-.32-.12-.34-.07-.26-.01h-63.78l.26.01-.34-.01-.35.04-.33.1-.32.15-.28.19-.25.24-.21.28-.16.31-.11.33-.06.34-.01.18v14.99l.01-.18v.35l.06.34.11.33.16.31.21.28.25.24.28.2.32.15.33.09.35.05z" style="stroke-width:0.53;fill:#FFFFFF;fill-opacity:0.50"/><text x="380.5" y="380.1" lengthAdjust="spacingAndGlyphs" style="font-size:5.69px;font-family:&quot;Liberation Sans&quot;" text-anchor="middle" textLength="60.89">2180 S MUSKEGO AVE</text><text x="380.5" y="388.3" lengthAdjust="spacingAndGlyphs" style="font-size:5.69px;font-family:&quot;Liberation Sans&quot;" text-anchor="middle" textLength="10.42">LLC</text><path d="M183.85 466.42h53.93-.09l.35-.02.34-.07.32-.12.3-.17.27-.22.23-.26.19-.3.14-.32.08-.34.03-.34h0v-6.8h0l-.03-.35-.08-.33-.14-.32-.19-.3-.23-.26-.27-.22-.3-.17-.32-.12-.34-.07-.26-.02h-53.93l.26.02-.35-.02-.34.04-.34.1-.31.15-.29.2-.25.24-.21.28-.16.3-.11.33-.05.35-.01.17v6.8l.01-.18v.35l.05.34.11.33.16.31.21.28.25.24.29.2.31.15.34.09.34.05z" style="stroke-width:0.53;fill:#FFFFFF;fill-opacity:0.50"/><text x="210.81" y="462.82" lengthAdjust="spacingAndGlyphs" style="font-size:5.69px;font-family:&quot;Liberation Sans&quot;" text-anchor="middle" textLength="51.05">2405 S 5TH ST LLC</text><path d="M200.33 345.7h53.51-.09l.35-.02.34-.07.32-.12.3-.17.27-.22.23-.26.19-.3.14-.32.08-.33.03-.35h0v-6.8h0l-.03-.34-.08-.34-.14-.32-.19-.29-.23-.26-.27-.22-.3-.18-.32-.12-.34-.07-.26-.02h-53.51l.26.02-.35-.02-.34.05-.33.09-.32.15-.28.2-.26.24-.2.28-.17.31-.11.33-.05.34-.01.17v6.8l.01-.17v.34l.05.35.11.33.17.3.2.28.26.24.28.2.32.15.33.1.34.04z" style="stroke-width:0.53;fill:#FFFFFF;fill-opacity:0.50"/><text x="227.08" y="342.1" lengthAdjust="spacingAndGlyphs" style="font-size:5.69px;font-family:&quot;Liberation Sans&quot;" text-anchor="middle" textLength="50.62">2329 S 5TH PL LLC</text><path d="M213.88 242.36h49.96-.09l.35-.01.34-.07.33-.13.3-.17.27-.22.23-.26.18-.29.14-.32.08-.34.03-.35h0v-6.79h0l-.03-.35-.08-.34-.14-.32-.18-.29-.23-.26-.27-.22-.3-.18-.33-.12-.34-.07-.26-.01h-49.96l.26.01-.34-.01-.35.04-.33.1-.32.14-.28.2-.25.24-.21.28-.16.31-.11.33-.06.34-.01.18v6.79l.01-.17v.35l.06.34.11.33.16.31.21.27.25.25.28.19.32.15.33.1.35.04z" style="stroke-width:0.53;fill:#FFFFFF;fill-opacity:0.50"/><text x="238.86" y="238.76" lengthAdjust="spacingAndGlyphs" style="font-size:5.69px;font-family:&quot;Liberation Sans&quot;" text-anchor="middle" textLength="47.08">NEW HALO 1 LLC</text><path d="M580.74 294.36h58.49l-.09-.01.35-.01.34-.07.32-.12.31-.18.26-.22.24-.26.18-.29.14-.32.08-.34.03-.34h0v-14.99h0l-.03-.35-.08-.34-.14-.32-.18-.29-.24-.26-.26-.22-.31-.18-.32-.12-.34-.07-.26-.01h-58.49l.26.01-.35-.01-.34.04-.34.1-.31.14-.29.2-.25.24-.21.28-.16.31-.11.33-.05.34-.01.18v14.99l.01-.18v.35l.05.34.11.33.16.31.21.28.25.24.29.2.31.15.34.09.34.04z" style="stroke-width:0.53;fill:#FFFFFF;fill-opacity:0.50"/><text x="609.98" y="282.56" lengthAdjust="spacingAndGlyphs" style="font-size:5.69px;font-family:&quot;Liberation Sans&quot;" text-anchor="middle" textLength="55.61">3535 S HOWELL AVE</text><text x="609.98" y="290.76" lengthAdjust="spacingAndGlyphs" style="font-size:5.69px;font-family:&quot;Liberation Sans&quot;" text-anchor="middle" textLength="10.42">LLC</text><path d="M387 602.31h65.32-.09l.35-.01.34-.07.32-.12.3-.18.27-.22.23-.26.19-.29.13-.32.09-.34.03-.35h0v-6.79h0l-.03-.35-.09-.34-.13-.32-.19-.29-.23-.26-.27-.22-.3-.17-.32-.13-.34-.07-.26-.01H387l.26.01-.35-.01-.34.04-.34.1-.31.15-.29.19-.25.24-.21.28-.16.31-.11.33-.05.34-.01.18v6.79l.01-.17v.35l.05.34.11.33.16.31.21.28.25.24.29.19.31.15.34.1.34.04z" style="stroke-width:0.53;fill:#FFFFFF;fill-opacity:0.50"/><text x="419.66" y="598.71" lengthAdjust="spacingAndGlyphs" style="font-size:5.69px;font-family:&quot;Liberation Sans&quot;" text-anchor="middle" textLength="62.44">JMR AUTOMOTIVE LLC</text><path d="M547.09 327.08h63.85l-.09-.01.35-.01.34-.07.32-.12.3-.18.27-.22.23-.26.19-.29.14-.32.08-.34.03-.34h0v-14.99h0l-.03-.35-.08-.34-.14-.32-.19-.29-.23-.26-.27-.22-.3-.18-.32-.12-.34-.07-.26-.01h-63.85l.26.01-.35-.01-.34.04-.34.1-.31.14-.29.2-.25.24-.21.28-.16.31-.11.33-.06.34v15.17-.18.35l.06.34.11.33.16.31.21.28.25.24.29.2.31.15.34.09.34.04z" style="stroke-width:0.53;fill:#FFFFFF;fill-opacity:0.50"/><text x="579.01" y="315.28" lengthAdjust="spacingAndGlyphs" style="font-size:5.69px;font-family:&quot;Liberation Sans&quot;" text-anchor="middle" textLength="43.27">4407 S 20TH ST,</text><text x="579.01" y="323.48" lengthAdjust="spacingAndGlyphs" style="font-size:5.69px;font-family:&quot;Liberation Sans&quot;" text-anchor="middle" textLength="60.97">MILWAUKEE, WI 53221</text><path d="M290.23 440.87h63.85-.08l.34-.02.34-.07.33-.12.3-.17.27-.22.23-.26.19-.3.13-.32.08-.34.03-.34h0v-14.99h0l-.03-.35-.08-.34-.13-.32-.19-.29-.23-.26-.27-.22-.3-.17-.33-.13-.34-.07-.26-.01h-63.85l.26.01-.34-.01-.35.04-.33.1-.32.15-.28.19-.25.24-.21.28-.16.31-.11.33-.06.34-.01.18v14.99l.01-.18v.35l.06.35.11.32.16.31.21.28.25.24.28.2.32.15.33.09.35.05z" style="stroke-width:0.53;fill:#FFFFFF;fill-opacity:0.50"/><text x="322.16" y="429.07" lengthAdjust="spacingAndGlyphs" style="font-size:5.69px;font-family:&quot;Liberation Sans&quot;" text-anchor="middle" textLength="37.89">4407 20TH ST,</text><text x="322.16" y="437.27" lengthAdjust="spacingAndGlyphs" style="font-size:5.69px;font-family:&quot;Liberation Sans&quot;" text-anchor="middle" textLength="60.97">MILWAUKEE, WI 53221</text><path d="M393.05 280.75h63.85-.09l.35-.01.34-.07.32-.13.3-.17.27-.22.23-.26.19-.29.14-.32.08-.34.03-.35h0V263.6h0l-.03-.35-.08-.33-.14-.32-.19-.3-.23-.26-.27-.22-.3-.17-.32-.12-.34-.07-.26-.02h-63.85l.26.02-.35-.02-.34.04-.34.1-.31.15-.29.2-.25.24-.21.28-.16.3-.11.33-.05.35-.01.17v14.99l.01-.17v.35l.05.34.11.33.16.31.21.27.25.25.29.19.31.15.34.1.34.04z" style="stroke-width:0.53;fill:#FFFFFF;fill-opacity:0.50"/><text x="424.97" y="268.96" lengthAdjust="spacingAndGlyphs" style="font-size:5.69px;font-family:&quot;Liberation Sans&quot;" text-anchor="middle" textLength="43.27">4407 S 20TH ST,</text><text x="424.97" y="277.15" lengthAdjust="spacingAndGlyphs" style="font-size:5.69px;font-family:&quot;Liberation Sans&quot;" text-anchor="middle" textLength="60.97">MILWAUKEE, WI 53221</text><path d="M589.35 145.06h63.84-.08l.34-.01.35-.07.32-.13.3-.17.27-.22.23-.26.19-.29.13-.32.09-.34.02-.35h0v-14.99h0l-.02-.35-.09-.33-.13-.32-.19-.3-.23-.26-.27-.22-.3-.17-.32-.12-.35-.07-.26-.02h-63.84l.26.02-.35-.02-.35.04-.33.1-.31.15-.29.2-.25.24-.21.28-.16.3-.11.33-.06.35v15.16-.17.35l.06.34.11.33.16.31.21.27.25.25.29.19.31.15.33.1.35.04z" style="stroke-width:0.53;fill:#FFFFFF;fill-opacity:0.50"/><text x="621.27" y="133.27" lengthAdjust="spacingAndGlyphs" style="font-size:5.69px;font-family:&quot;Liberation Sans&quot;" text-anchor="middle" textLength="40.11">2248 S 5TH ST,</text><text x="621.27" y="141.46" lengthAdjust="spacingAndGlyphs" style="font-size:5.69px;font-family:&quot;Liberation Sans&quot;" text-anchor="middle" textLength="60.97">MILWAUKEE, WI 53207</text><path d="M48.9 508.16h64.71-.09l.35-.01.34-.07.32-.12.3-.18.27-.22.23-.26.19-.29.14-.32.08-.34.03-.35h0v-23.18h0l-.03-.35-.08-.34-.14-.32-.19-.29-.23-.26-.27-.22-.3-.17-.32-.13-.34-.07-.26-.01H48.9l.26.01-.35-.01-.34.04-.34.1-.31.15-.29.19-.25.25-.21.27-.16.31-.11.33-.05.34-.01.18V506l.01-.17v.35l.05.34.11.33.16.31.21.28.25.24.29.19.31.15.34.1.34.04z" style="stroke-width:0.53;fill:#FFFFFF;fill-opacity:0.50"/><text x="81.25" y="488.17" lengthAdjust="spacingAndGlyphs" style="font-size:5.69px;font-family:&quot;Liberation Sans&quot;" text-anchor="middle" textLength="61.83">4163 NICHOLSON AVE,</text><text x="81.25" y="496.37" lengthAdjust="spacingAndGlyphs" style="font-size:5.69px;font-family:&quot;Liberation Sans&quot;" text-anchor="middle" textLength="53.3">SAINT FRANCIS, WI</text><text x="81.25" y="504.56" lengthAdjust="spacingAndGlyphs" style="font-size:5.69px;font-family:&quot;Liberation Sans&quot;" text-anchor="middle" textLength="15.78">53235</text><path d="M335.76 529.61h63.84l-.08-.01.35-.01.34-.07.32-.12.3-.18.27-.22.23-.26.19-.29.13-.32.09-.34.02-.34h0v-15h0l-.02-.34-.09-.34-.13-.32-.19-.29-.23-.26-.27-.22-.3-.18-.32-.12-.34-.07-.27-.02h-63.84l.26.02-.35-.01-.35.04-.33.1-.31.14-.29.2-.25.24-.21.28-.16.31-.11.33-.06.34v15.17-.18.35l.06.34.11.33.16.31.21.28.25.24.29.2.31.15.33.09.35.04z" style="stroke-width:0.53;fill:#FFFFFF;fill-opacity:0.50"/><text x="367.68" y="517.81" lengthAdjust="spacingAndGlyphs" style="font-size:5.69px;font-family:&quot;Liberation Sans&quot;" text-anchor="middle" textLength="37.89">4407 20TH ST,</text><text x="367.68" y="526.01" lengthAdjust="spacingAndGlyphs" style="font-size:5.69px;font-family:&quot;Liberation Sans&quot;" text-anchor="middle" textLength="60.97">MILWAUKEE, WI 53221</text><path d="M457.27 659.52h63.84l-.08-.01.34-.01.35-.07.32-.12.3-.18.27-.22.23-.26.19-.29.13-.32.09-.34.02-.34h0v-15h0l-.02-.34-.09-.34-.13-.32-.19-.29-.23-.26-.27-.22-.3-.18-.32-.12-.35-.07-.26-.02h-63.84l.26.02-.35-.01-.35.04-.33.1-.31.14-.29.2-.25.24-.21.28-.16.31-.11.33-.06.34v15.17-.18.35l.06.34.11.33.16.31.21.28.25.24.29.2.31.15.33.09.35.04z" style="stroke-width:0.53;fill:#FFFFFF;fill-opacity:0.50"/><text x="489.19" y="647.72" lengthAdjust="spacingAndGlyphs" style="font-size:5.69px;font-family:&quot;Liberation Sans&quot;" text-anchor="middle" textLength="51.81">4230 HOWELL AVE,</text><text x="489.19" y="655.92" lengthAdjust="spacingAndGlyphs" style="font-size:5.69px;font-family:&quot;Liberation Sans&quot;" text-anchor="middle" textLength="60.97">MILWAUKEE, WI 53207</text></g><g clip-path="url(#cpMC4wMHw3MjAuMDB8MC4wMHw3MjAuMDA=)"><circle cx="264.83" cy="97.06" r="1.95" style="stroke-width:0.71;stroke:none;fill:#F8766D"/><path d="m341.23 94.02 2.63 4.56h-5.26z" style="stroke-width:0.71;stroke:none;fill:#00BA38"/><path d="M407.23 99.01h3.91V95.1h-3.91z" style="stroke-width:0.71;stroke:none;fill:#619CFF"/><text x="278.95" y="100.22" lengthAdjust="spacingAndGlyphs" style="font-size:8.80px;font-weight:0;font-family:&quot;Nimbus Sans Narrow&quot;" textLength="48.16">mprop address</text><text x="355.35" y="100.22" lengthAdjust="spacingAndGlyphs" style="font-size:8.80px;font-weight:0;font-family:&quot;Nimbus Sans Narrow&quot;" textLength="39.72">owner name</text><text x="423.31" y="100.22" lengthAdjust="spacingAndGlyphs" style="font-size:8.80px;font-weight:0;font-family:&quot;Nimbus Sans Narrow&quot;" textLength="40.5">wdfi address</text><text x="29.89" y="65.35" lengthAdjust="spacingAndGlyphs" style="font-size:12.00px;font-weight:0;font-family:&quot;Nimbus Sans Narrow&quot;" textLength="257.58">includes 23 parcels, 39 units, and 21 distinct owner names.</text><text x="29.89" y="42.81" lengthAdjust="spacingAndGlyphs" style="font-size:18.00px;font-weight:0;font-family:&quot;Nimbus Sans Narrow&quot;" textLength="208.31">2245 S 5TH PL LLC etc Group</text></g></g></svg>