<svg xmlns="http://www.w3.org/2000/svg" width="768" height="768" class="svglite" viewBox="0 0 576 576"><defs><style>.svglite circle,.svglite line,.svglite polygon,.svglite polyline,.svglite rect{fill:none;stroke:#000;stroke-linecap:round;stroke-linejoin:round;stroke-miterlimit:10}.svglite text{white-space:pre}</style></defs><rect width="100%" height="100%" style="stroke:none;fill:#fff"/><defs><clipPath id="cpMC4wMHw1NzYuMDB8MC4wMHw1NzYuMDA="><path d="M0 0h576v576H0z"/></clipPath></defs><g clip-path="url(#cpMC4wMHw1NzYuMDB8MC4wMHw1NzYuMDA=)"><path d="M0 0h576v576H0z" style="stroke-width:1.07;stroke:none;fill:#fff"/></g><defs><clipPath id="cpMzIuNjN8NTQ2LjExfDEyMC44Nnw1NDMuMzc="><path d="M32.63 120.86h513.48v422.51H32.63z"/></clipPath></defs><g clip-path="url(#cpMzIuNjN8NTQ2LjExfDEyMC44Nnw1NDMuMzc=)"><path d="m522.77 297.77-1.87.37-1.86.36-1.87.37-1.87.37-1.86.36-1.87.37-1.87.36-1.87.37-1.86.37-1.87.36-1.87.37-1.86.36-1.87.37-1.87.37-1.86.36-1.87.37-1.87.36-1.87.37-1.86.37-1.87.36-1.87.37-1.86.36-1.87.37-1.87.37-1.87.36-1.86.37-1.87.36-1.87.37-1.86.37-1.87.36-1.87.37-1.87.36-1.86.37-1.87.37-1.87.36-1.86.37-1.87.36-1.87.37-1.87.37-1.86.36-1.87.37-1.87.36-1.86.37-1.87.37-1.87.36-1.87.37-1.86.36-1.87.37-1.87.37-1.86.36-1.87.37-1.87.36-1.86.37-1.87.37-1.87.36-1.87.37-1.86.36-1.87.37-1.87.37-1.86.36-1.87.37-1.87.36-1.87.37-1.86.37-1.87.36-1.87.37-1.86.36-1.87.37-1.87.37-1.87.36-1.86.37-1.87.36-1.87.37-1.86.37-1.87.36-1.87.37-1.87.36-1.86.37-1.87.37-1.87.36-1.86.37-1.87.36-1.87.37-1.87.37-1.86.36-1.87.37-1.87.36-1.86.37-1.87.37-1.87.36-1.87.37-1.86.36-1.87.37-1.87.37-1.86.36-1.87.37-1.87.36-1.86.37-1.87.37M522.77 297.77l-.13 1.01-.13 1.01-.13 1.01-.13 1.01-.13 1.01-.13 1.01-.14 1.01-.13 1.01-.13 1.02-.13 1.01-.13 1.01-.13 1.01-.13 1.01-.13 1.01-.13 1.01-.13 1.01-.14 1.01-.13 1.01-.13 1.01-.13 1.01-.13 1.01-.13 1.01-.13 1.01-.13 1.01-.13 1.01-.13 1.01-.14 1.01-.13 1.01-.13 1.01-.13 1.01-.13 1.01-.13 1.01-.13 1.01-.13 1.01-.13 1.01-.13 1.01-.14 1.01-.13 1.01-.13 1.01-.13 1.01-.13 1.01-.13 1.01-.13 1.01-.13 1.01-.13 1.01-.14 1.02-.13 1.01-.13 1.01-.13 1.01-.13 1.01-.13 1.01-.13 1.01-.13 1.01-.13 1.01-.13 1.01-.14 1.01-.13 1.01-.13 1.01-.13 1.01-.13 1.01-.13 1.01-.13 1.01-.13 1.01-.13 1.01-.13 1.01-.14 1.01-.13 1.01-.13 1.01-.13 1.01-.13 1.01-.13 1.01-.13 1.01-.13 1.01-.13 1.01-.13 1.01-.14 1.01-.13 1.01-.13 1.01-.13 1.01-.13 1.01-.13 1.01-.13 1.01-.13 1.02-.13 1.01-.14 1.01-.13 1.01-.13 1.01-.13 1.01-.13 1.01-.13 1.01-.13 1.01-.13 1.01-.13 1.01-.13 1.01-.14 1.01-.13 1.01-.13 1.01-.13 1.01-.13 1.01" style="stroke-width:1.07;stroke:#000;stroke-opacity:.1;stroke-linecap:butt"/><path d="m453.31 321.81-1.17.12-1.16.12-1.17.13-1.16.12-1.17.12-1.16.13-1.17.12-1.16.12-1.17.13-1.17.12-1.16.12-1.17.13-1.16.12-1.17.12-1.16.13-1.17.12-1.16.12-1.17.12-1.16.13-1.17.12-1.17.12-1.16.13-1.17.12-1.16.12-1.17.13-1.16.12-1.17.12-1.16.13-1.17.12-1.16.12-1.17.13-1.17.12-1.16.12-1.17.13-1.16.12-1.17.12-1.16.13-1.17.12-1.16.12-1.17.13-1.16.12-1.17.12-1.17.13-1.16.12-1.17.12-1.16.12-1.17.13-1.16.12-1.17.12-1.16.13-1.17.12-1.17.12-1.16.13-1.17.12-1.16.12-1.17.13-1.16.12-1.17.12-1.16.13-1.17.12-1.16.12-1.17.13-1.17.12-1.16.12-1.17.13-1.16.12-1.17.12-1.16.13-1.17.12-1.16.12-1.17.13-1.16.12-1.17.12-1.17.12-1.16.13-1.17.12-1.16.12-1.17.13-1.16.12-1.17.12-1.16.13-1.17.12-1.16.12-1.17.13-1.17.12-1.16.12-1.17.13-1.16.12-1.17.12-1.16.13-1.17.12-1.16.12-1.17.13-1.16.12-1.17.12-1.17.13-1.16.12-1.17.12-1.16.13M453.31 321.81l.57.76.57.77.57.77.57.77.57.76.57.77.57.77.57.77.57.76.58.77.57.77.57.77.57.76.57.77.57.77.57.77.57.76.57.77.57.77.57.77.57.76.57.77.57.77.57.77.57.76.58.77.57.77.57.77.57.76.57.77.57.77.57.77.57.76.57.77.57.77.57.77.57.76.57.77.57.77.57.77.57.76.58.77.57.77.57.77.57.76.57.77.57.77.57.77.57.76.57.77.57.77.57.77.57.76.57.77.57.77.57.77.57.76.58.77.57.77.57.77.57.76.57.77.57.77.57.77.57.76.57.77.57.77.57.77.57.76.57.77.57.77.57.77.57.76.58.77.57.77.57.77.57.76.57.77.57.77.57.77.57.76.57.77.57.77.57.77.57.76.57.77.57.77.57.77.57.76.57.77.58.77.57.77.57.76.57.77.57.77.57.77.57.76.57.77.57.77M474.67 214.3l-1.38 1.21-1.38 1.21-1.38 1.21-1.38 1.2-1.38 1.21-1.39 1.21-1.38 1.21-1.38 1.21-1.38 1.21-1.38 1.21-1.38 1.21-1.38 1.21-1.38 1.21-1.39 1.21-1.38 1.21-1.38 1.2-1.38 1.21-1.38 1.21-1.38 1.21-1.38 1.21-1.38 1.21-1.39 1.21-1.38 1.21-1.38 1.21-1.38 1.21-1.38 1.21-1.38 1.21-1.38 1.2-1.38 1.21-1.39 1.21-1.38 1.21-1.38 1.21-1.38 1.21-1.38 1.21-1.38 1.21-1.38 1.21-1.38 1.21-1.39 1.21-1.38 1.21-1.38 1.2-1.38 1.21-1.38 1.21-1.38 1.21-1.38 1.21-1.38 1.21-1.39 1.21-1.38 1.21-1.38 1.21-1.38 1.21-1.38 1.21-1.38 1.21-1.38 1.2-1.38 1.21-1.39 1.21-1.38 1.21-1.38 1.21-1.38 1.21-1.38 1.21-1.38 1.21-1.38 1.21-1.38 1.21-1.39 1.21-1.38 1.21-1.38 1.2-1.38 1.21-1.38 1.21-1.38 1.21-1.38 1.21-1.38 1.21-1.39 1.21-1.38 1.21-1.38 1.21-1.38 1.21-1.38 1.21-1.38 1.21-1.38 1.2-1.38 1.21-1.39 1.21-1.38 1.21-1.38 1.21-1.38 1.21-1.38 1.21-1.38 1.21-1.38 1.21-1.38 1.21-1.39 1.21-1.38 1.21-1.38 1.2-1.38 1.21-1.38 1.21-1.38 1.21-1.38 1.21-1.38 1.21-1.39 1.21-1.38 1.21-1.38 1.21-1.38 1.21-1.38 1.21-1.38 1.21M413.55 171.76l-.82 1.61-.81 1.62-.81 1.61-.81 1.62-.81 1.61-.81 1.62-.8 1.62-.81 1.62-.8 1.61-.81 1.62-.8 1.62-.8 1.62-.8 1.62-.8 1.62-.8 1.63-.8 1.62-.8 1.62-.79 1.62-.8 1.63-.79 1.62-.79 1.62-.8 1.63-.79 1.62-.79 1.63-.79 1.63-.78 1.62-.79 1.63-.79 1.63-.78 1.63-.78 1.63-.79 1.63-.78 1.63-.78 1.63-.78 1.63-.78 1.63-.78 1.63-.77 1.63-.78 1.64-.77 1.63-.78 1.63-.77 1.64-.77 1.63-.77 1.64-.77 1.63-.77 1.64-.77 1.64-.77 1.63-.76 1.64-.77 1.64-.76 1.64-.76 1.64-.77 1.64-.76 1.64-.76 1.64-.75 1.64-.76 1.64-.76 1.65-.76 1.64-.75 1.64-.75 1.65-.76 1.64-.75 1.65-.75 1.64-.75 1.65-.75 1.64-.75 1.65-.74 1.65-.75 1.64-.74 1.65-.75 1.65-.74 1.65-.74 1.65-.74 1.65-.74 1.65-.74 1.65-.74 1.66-.74 1.65-.73 1.65-.74 1.65-.73 1.66-.73 1.65-.73 1.66-.74 1.65-.73 1.66-.72 1.65-.73 1.66-.73 1.66-.72 1.66-.73 1.65-.72 1.66-.73 1.66-.72 1.66-.72 1.66-.72 1.66-.72 1.67-.71 1.66-.72 1.66-.72 1.66-.71 1.67" style="stroke-width:1.07;stroke:#000;stroke-opacity:.1;stroke-linecap:butt"/><path d="M338.79 140.07v1.96l-.01 1.96-.01 1.95-.01 1.96-.01 1.96-.01 1.96-.01 1.96-.01 1.96v1.96l-.01 1.96-.01 1.96-.01 1.96-.01 1.95-.01 1.96-.01 1.96-.01 1.96v1.96l-.01 1.96-.01 1.96-.01 1.96-.01 1.96-.01 1.95-.01 1.96-.01 1.96v1.96l-.01 1.96-.01 1.96-.01 1.96-.01 1.96-.01 1.96-.01 1.96-.01 1.95v1.96l-.01 1.96-.01 1.96-.01 1.96-.01 1.96-.01 1.96-.01 1.96-.01 1.96v1.96l-.01 1.95-.01 1.96-.01 1.96-.01 1.96-.01 1.96-.01 1.96-.01 1.96v1.96l-.01 1.96-.01 1.96-.01 1.95-.01 1.96-.01 1.96-.01 1.96-.01 1.96v1.96l-.01 1.96-.01 1.96-.01 1.96-.01 1.95-.01 1.96-.01 1.96-.01 1.96v1.96l-.01 1.96-.01 1.96-.01 1.96-.01 1.96-.01 1.96-.01 1.95-.01 1.96v1.96l-.01 1.96-.01 1.96-.01 1.96-.01 1.96-.01 1.96-.01 1.96-.01 1.96v1.95l-.01 1.96-.01 1.96-.01 1.96-.01 1.96-.01 1.96-.01 1.96-.01 1.96v1.96l-.01 1.95-.01 1.96-.01 1.96-.01 1.96-.01 1.96-.01 1.96-.01 1.96v1.96l-.01 1.96-.01 1.96M299.47 207.82l.39 1.28.39 1.27.39 1.28.39 1.27.39 1.28.38 1.27.39 1.28.39 1.27.39 1.27.39 1.28.39 1.27.39 1.28.38 1.27.39 1.28.39 1.27.39 1.28.39 1.27.39 1.28.38 1.27.39 1.27.39 1.28.39 1.27.39 1.28.39 1.27.38 1.28.39 1.27.39 1.28.39 1.27.39 1.28.39 1.27.39 1.27.38 1.28.39 1.27.39 1.28.39 1.27.39 1.28.39 1.27.38 1.28.39 1.27.39 1.28.39 1.27.39 1.28.39 1.27.38 1.27.39 1.28.39 1.27.39 1.28.39 1.27.39 1.28.39 1.27.38 1.28.39 1.27.39 1.28.39 1.27.39 1.27.39 1.28.38 1.27.39 1.28.39 1.27.39 1.28.39 1.27.39 1.28.38 1.27.39 1.28.39 1.27.39 1.27.39 1.28.39 1.27.39 1.28.38 1.27.39 1.28.39 1.27.39 1.28.39 1.27.39 1.28.38 1.27.39 1.27.39 1.28.39 1.27.39 1.28.39 1.27.38 1.28.39 1.27.39 1.28.39 1.27.39 1.28.39 1.27.39 1.28.38 1.27.39 1.27.39 1.28.39 1.27.39 1.28.39 1.27.38 1.28.39 1.27.39 1.28.39 1.27.39 1.28M463.24 460.91l-1.26-1.28-1.27-1.28-1.26-1.28-1.27-1.29-1.27-1.28-1.26-1.28-1.27-1.28-1.26-1.28-1.27-1.29-1.27-1.28-1.26-1.28-1.27-1.28-1.26-1.28-1.27-1.29-1.26-1.28-1.27-1.28-1.27-1.28-1.26-1.28-1.27-1.28-1.26-1.29-1.27-1.28-1.27-1.28-1.26-1.28-1.27-1.28-1.26-1.29-1.27-1.28-1.26-1.28-1.27-1.28-1.27-1.28-1.26-1.29-1.27-1.28-1.26-1.28-1.27-1.28-1.26-1.28-1.27-1.28-1.27-1.29-1.26-1.28-1.27-1.28-1.26-1.28-1.27-1.28-1.27-1.29-1.26-1.28-1.27-1.28-1.26-1.28-1.27-1.28-1.26-1.29-1.27-1.28-1.27-1.28-1.26-1.28-1.27-1.28-1.26-1.28-1.27-1.29-1.27-1.28-1.26-1.28-1.27-1.28-1.26-1.28-1.27-1.29-1.26-1.28-1.27-1.28-1.27-1.28-1.26-1.28-1.27-1.29-1.26-1.28-1.27-1.28-1.26-1.28-1.27-1.28-1.27-1.28-1.26-1.29-1.27-1.28-1.26-1.28-1.27-1.28-1.27-1.28-1.26-1.29-1.27-1.28-1.26-1.28-1.27-1.28-1.26-1.28-1.27-1.29-1.27-1.28-1.26-1.28-1.27-1.28-1.26-1.28-1.27-1.28-1.26-1.29-1.27-1.28-1.27-1.28-1.26-1.28-1.27-1.28-1.26-1.29-1.27-1.28-1.27-1.28-1.26-1.28-1.27-1.28-1.26-1.29-1.27-1.28-1.26-1.28-1.27-1.28-1.27-1.28-1.26-1.28" style="stroke-width:1.07;stroke:#000;stroke-opacity:.1;stroke-linecap:butt"/><path d="m413.55 171.76-.72 1.66-.72 1.66-.71 1.67-.72 1.66-.72 1.66-.72 1.66-.72 1.66-.72 1.66-.72 1.66-.73 1.66-.72 1.66-.73 1.65-.72 1.66-.73 1.66-.73 1.65-.73 1.66-.73 1.66-.73 1.65-.74 1.65-.73 1.66-.74 1.65-.73 1.65-.74 1.66-.74 1.65-.73 1.65-.74 1.65-.75 1.65-.74 1.65-.74 1.65-.74 1.65-.75 1.65-.74 1.65-.75 1.64-.75 1.65-.75 1.65-.75 1.64-.75 1.65-.75 1.64-.75 1.65-.76 1.64-.75 1.64-.76 1.65-.75 1.64-.76 1.64-.76 1.64-.76 1.64-.76 1.64-.76 1.64-.77 1.64-.76 1.64-.76 1.64-.77 1.64-.77 1.64-.76 1.63-.77 1.64-.77 1.63-.77 1.64-.78 1.63-.77 1.64-.77 1.63-.78 1.64-.77 1.63-.78 1.63-.78 1.63-.78 1.63-.78 1.64-.78 1.63-.78 1.63-.78 1.63-.79 1.62-.78 1.63-.79 1.63-.78 1.63-.79 1.62-.79 1.63-.79 1.63-.79 1.62-.79 1.63-.8 1.62-.79 1.63-.79 1.62-.8 1.62-.8 1.62-.79 1.63-.8 1.62-.8 1.62-.8 1.62-.81 1.62-.8 1.62-.8 1.62-.81 1.62-.8 1.61-.81 1.62-.81 1.62-.81 1.61-.81 1.62-.81 1.62-.81 1.61-.81 1.62M230.07 176.07l1.09 1.59 1.09 1.6 1.09 1.59 1.09 1.6 1.09 1.6 1.09 1.59 1.09 1.6 1.08 1.59 1.09 1.6 1.09 1.59 1.09 1.6 1.09 1.59 1.09 1.6 1.09 1.59 1.09 1.6 1.09 1.59 1.09 1.6 1.09 1.59 1.09 1.6 1.09 1.6 1.09 1.59 1.09 1.6 1.09 1.59 1.09 1.6 1.09 1.59 1.09 1.6 1.08 1.59 1.09 1.6 1.09 1.59 1.09 1.6 1.09 1.59 1.09 1.6 1.09 1.59 1.09 1.6 1.09 1.59 1.09 1.6 1.09 1.6 1.09 1.59 1.09 1.6 1.09 1.59 1.09 1.6 1.09 1.59 1.09 1.6 1.09 1.59 1.09 1.6 1.09 1.59 1.08 1.6 1.09 1.59 1.09 1.6 1.09 1.59 1.09 1.6 1.09 1.6 1.09 1.59 1.09 1.6 1.09 1.59 1.09 1.6 1.09 1.59 1.09 1.6 1.09 1.59 1.09 1.6 1.09 1.59 1.09 1.6 1.09 1.59 1.09 1.6 1.09 1.59 1.08 1.6 1.09 1.6 1.09 1.59 1.09 1.6 1.09 1.59 1.09 1.6 1.09 1.59 1.09 1.6 1.09 1.59 1.09 1.6 1.09 1.59 1.09 1.6 1.09 1.59 1.09 1.6 1.09 1.59 1.09 1.6 1.09 1.59 1.09 1.6 1.09 1.6 1.09 1.59 1.08 1.6 1.09 1.59 1.09 1.6 1.09 1.59 1.09 1.6 1.09 1.59 1.09 1.6 1.09 1.59 1.09 1.6 1.09 1.59 1.09 1.6 1.09 1.59 1.09 1.6 1.09 1.6" style="stroke-width:1.07;stroke:#000;stroke-opacity:.1;stroke-linecap:butt"/><path d="m177.37 244.62 1.62.91 1.62.9 1.62.9 1.62.9 1.63.91 1.62.9 1.62.9 1.62.91 1.62.9 1.63.9 1.62.9 1.62.91 1.62.9 1.62.9 1.62.91 1.63.9 1.62.9 1.62.9 1.62.91 1.62.9 1.63.9 1.62.91 1.62.9 1.62.9 1.62.9 1.62.91 1.63.9 1.62.9 1.62.91 1.62.9 1.62.9 1.63.9 1.62.91 1.62.9 1.62.9 1.62.91 1.62.9 1.63.9 1.62.9 1.62.91 1.62.9 1.62.9 1.63.91 1.62.9 1.62.9 1.62.9 1.62.91 1.62.9 1.63.9 1.62.91 1.62.9 1.62.9 1.62.9 1.63.91 1.62.9 1.62.9 1.62.91 1.62.9 1.62.9 1.63.9 1.62.91 1.62.9 1.62.9 1.62.91 1.63.9 1.62.9 1.62.9 1.62.91 1.62.9 1.62.9 1.63.91 1.62.9 1.62.9 1.62.9 1.62.91 1.63.9 1.62.9 1.62.91 1.62.9 1.62.9 1.63.9 1.62.91 1.62.9 1.62.9 1.62.91 1.62.9 1.63.9 1.62.9 1.62.91 1.62.9 1.62.9 1.63.91 1.62.9 1.62.9 1.62.9 1.62.91 1.62.9 1.63.9 1.62.91M196.22 315.72l1.43.19 1.43.18 1.43.18 1.43.19 1.43.18 1.43.19 1.44.18 1.43.19 1.43.18 1.43.19 1.43.18 1.43.19 1.43.18 1.44.19 1.43.18 1.43.19 1.43.18 1.43.19 1.43.18 1.43.18 1.44.19 1.43.18 1.43.19 1.43.18 1.43.19 1.43.18 1.43.19 1.44.18 1.43.19 1.43.18 1.43.19 1.43.18 1.43.19 1.43.18 1.44.19 1.43.18 1.43.18 1.43.19 1.43.18 1.43.19 1.43.18 1.44.19 1.43.18 1.43.19 1.43.18 1.43.19 1.43.18 1.44.19 1.43.18 1.43.19 1.43.18 1.43.18 1.43.19 1.43.18 1.44.19 1.43.18 1.43.19 1.43.18 1.43.19 1.43.18 1.43.19 1.44.18 1.43.19 1.43.18 1.43.19 1.43.18 1.43.19 1.43.18 1.44.18 1.43.19 1.43.18 1.43.19 1.43.18 1.43.19 1.43.18 1.44.19 1.43.18 1.43.19 1.43.18 1.43.19 1.43.18 1.43.19 1.44.18 1.43.19 1.43.18 1.43.18 1.43.19 1.43.18 1.43.19 1.44.18 1.43.19 1.43.18 1.43.19 1.43.18 1.43.19 1.43.18 1.44.19 1.43.18 1.43.19M163.36 397.63l1.76-.65 1.77-.64 1.76-.64 1.76-.64 1.77-.65 1.76-.64 1.76-.64 1.76-.64 1.77-.65 1.76-.64 1.76-.64 1.77-.65 1.76-.64 1.76-.64 1.77-.64 1.76-.65 1.76-.64 1.77-.64 1.76-.64 1.76-.65 1.77-.64 1.76-.64 1.76-.64 1.77-.65 1.76-.64 1.76-.64 1.77-.64 1.76-.65 1.76-.64 1.77-.64 1.76-.65 1.76-.64 1.77-.64 1.76-.64 1.76-.65 1.77-.64 1.76-.64 1.76-.64 1.77-.65 1.76-.64 1.76-.64 1.77-.64 1.76-.65 1.76-.64 1.77-.64 1.76-.64 1.76-.65 1.77-.64 1.76-.64 1.76-.65 1.77-.64 1.76-.64 1.76-.64 1.77-.65 1.76-.64 1.76-.64 1.77-.64 1.76-.65 1.76-.64 1.77-.64 1.76-.64 1.76-.65 1.77-.64 1.76-.64 1.76-.64 1.77-.65 1.76-.64 1.76-.64 1.77-.65 1.76-.64 1.76-.64 1.77-.64 1.76-.65 1.76-.64 1.77-.64 1.76-.64 1.76-.65 1.77-.64 1.76-.64 1.76-.64 1.77-.65 1.76-.64 1.76-.64 1.77-.65 1.76-.64 1.76-.64 1.77-.64 1.76-.65 1.76-.64 1.77-.64 1.76-.64 1.76-.65 1.77-.64 1.76-.64 1.76-.64 1.77-.65 1.76-.64 1.76-.64 1.77-.64M163.36 397.63l-1.09 1.18-1.08 1.17-1.09 1.18-1.08 1.18-1.09 1.18-1.08 1.18-1.08 1.18-1.09 1.18-1.08 1.18-1.09 1.18-1.08 1.18-1.09 1.18-1.08 1.17-1.09 1.18-1.08 1.18-1.09 1.18-1.08 1.18-1.09 1.18-1.08 1.18-1.09 1.18-1.08 1.18-1.09 1.18-1.08 1.18-1.09 1.17-1.08 1.18-1.09 1.18-1.08 1.18-1.08 1.18-1.09 1.18-1.08 1.18-1.09 1.18-1.08 1.18-1.09 1.18-1.08 1.18-1.09 1.17-1.08 1.18-1.09 1.18-1.08 1.18-1.09 1.18-1.08 1.18-1.09 1.18-1.08 1.18-1.09 1.18-1.08 1.18-1.09 1.18-1.08 1.17-1.09 1.18-1.08 1.18-1.08 1.18-1.09 1.18-1.08 1.18-1.09 1.18-1.08 1.18-1.09 1.18-1.08 1.18-1.09 1.18-1.08 1.17-1.09 1.18-1.08 1.18-1.09 1.18-1.08 1.18-1.09 1.18-1.08 1.18-1.09 1.18-1.08 1.18-1.09 1.18-1.08 1.18-1.08 1.17-1.09 1.18-1.08 1.18-1.09 1.18-1.08 1.18-1.09 1.18-1.08 1.18-1.09 1.18-1.08 1.18-1.09 1.18-1.08 1.18-1.09 1.17-1.08 1.18-1.09 1.18-1.08 1.18-1.09 1.18-1.08 1.18-1.09 1.18-1.08 1.18-1.09 1.18-1.08 1.18-1.08 1.18-1.09 1.17-1.08 1.18-1.09 1.18-1.08 1.18-1.09 1.18-1.08 1.18-1.09 1.18-1.08 1.18-1.09 1.18-1.08 1.18" style="stroke-width:1.07;stroke:#000;stroke-opacity:.1;stroke-linecap:butt"/><path d="m205.01 468 1.34-1.36 1.34-1.35 1.34-1.35 1.35-1.36 1.34-1.35 1.34-1.35 1.35-1.36 1.34-1.35 1.34-1.35 1.34-1.36 1.35-1.35 1.34-1.35 1.34-1.36 1.34-1.35 1.35-1.36 1.34-1.35 1.34-1.35 1.34-1.36 1.35-1.35 1.34-1.35 1.34-1.36 1.34-1.35 1.35-1.35 1.34-1.36 1.34-1.35 1.35-1.35 1.34-1.36 1.34-1.35 1.34-1.35 1.35-1.36 1.34-1.35 1.34-1.35 1.34-1.36 1.35-1.35 1.34-1.35 1.34-1.36 1.34-1.35 1.35-1.35 1.34-1.36 1.34-1.35 1.34-1.35 1.35-1.36 1.34-1.35 1.34-1.36 1.35-1.35 1.34-1.35 1.34-1.36 1.34-1.35 1.35-1.35 1.34-1.36 1.34-1.35 1.34-1.35 1.35-1.36 1.34-1.35 1.34-1.35 1.34-1.36 1.35-1.35 1.34-1.35 1.34-1.36 1.34-1.35 1.35-1.35 1.34-1.36 1.34-1.35 1.35-1.35 1.34-1.36 1.34-1.35 1.34-1.35 1.35-1.36 1.34-1.35 1.34-1.35 1.34-1.36 1.35-1.35 1.34-1.35 1.34-1.36 1.34-1.35 1.35-1.36 1.34-1.35 1.34-1.35 1.35-1.36 1.34-1.35 1.34-1.35 1.34-1.36 1.35-1.35 1.34-1.35 1.34-1.36 1.34-1.35 1.35-1.35 1.34-1.36 1.34-1.35 1.34-1.35 1.35-1.36 1.34-1.35 1.34-1.35 1.34-1.36 1.35-1.35 1.34-1.35 1.34-1.36 1.35-1.35 1.34-1.35M205.01 468l-1.51.46-1.5.47-1.51.47-1.51.47-1.5.47-1.51.47-1.5.46-1.51.47-1.5.47-1.51.47-1.5.47-1.51.47-1.5.46-1.51.47-1.5.47-1.51.47-1.51.47-1.5.47-1.51.46-1.5.47-1.51.47-1.5.47-1.51.47-1.5.47-1.51.46-1.5.47-1.51.47-1.51.47-1.5.47-1.51.46-1.5.47-1.51.47-1.5.47-1.51.47-1.5.47-1.51.46-1.5.47-1.51.47-1.51.47-1.5.47-1.51.47-1.5.46-1.51.47-1.5.47-1.51.47-1.5.47-1.51.47-1.5.46-1.51.47-1.51.47-1.5.47-1.51.47-1.5.47-1.51.46-1.5.47-1.51.47-1.5.47-1.51.47-1.5.46-1.51.47-1.51.47-1.5.47-1.51.47-1.5.47-1.51.46-1.5.47-1.51.47-1.5.47-1.51.47-1.5.47-1.51.46-1.51.47-1.5.47-1.51.47-1.5.47-1.51.47-1.5.46-1.51.47-1.5.47-1.51.47-1.5.47-1.51.47-1.51.46-1.5.47-1.51.47-1.5.47-1.51.47-1.5.47-1.51.46-1.5.47-1.51.47-1.5.47-1.51.47-1.5.46-1.51.47-1.51.47-1.5.47-1.51.47-1.5.47M293.97 458.13l.44-1.25.45-1.26.44-1.25.44-1.25.45-1.26.44-1.25.45-1.25.44-1.26.44-1.25.45-1.26.44-1.25.45-1.25.44-1.26.44-1.25.45-1.25.44-1.26.45-1.25.44-1.26.44-1.25.45-1.25.44-1.26.45-1.25.44-1.26.45-1.25.44-1.25.44-1.26.45-1.25.44-1.25.45-1.26.44-1.25.44-1.26.45-1.25.44-1.25.45-1.26.44-1.25.44-1.25.45-1.26.44-1.25.45-1.26.44-1.25.44-1.25.45-1.26.44-1.25.45-1.26.44-1.25.44-1.25.45-1.26.44-1.25.45-1.25.44-1.26.44-1.25.45-1.26.44-1.25.45-1.25.44-1.26.44-1.25.45-1.25.44-1.26.45-1.25.44-1.26.44-1.25.45-1.25.44-1.26.45-1.25.44-1.26.44-1.25.45-1.25.44-1.26.45-1.25.44-1.25.44-1.26.45-1.25.44-1.26.45-1.25.44-1.25.45-1.26.44-1.25.44-1.25.45-1.26.44-1.25.45-1.26.44-1.25.44-1.25.45-1.26.44-1.25.45-1.26.44-1.25.44-1.25.45-1.26.44-1.25.45-1.25.44-1.26.44-1.25.45-1.26.44-1.25.45-1.25.44-1.26.44-1.25.45-1.25" style="stroke-width:1.07;stroke:#000;stroke-opacity:.1;stroke-linecap:butt"/><path d="m331.11 524.17.07-1.92.07-1.92.07-1.93.07-1.92.07-1.92.07-1.92.07-1.92.07-1.92.06-1.92.07-1.92.07-1.92.07-1.92.07-1.92.07-1.92.07-1.93.07-1.92.06-1.92.07-1.92.07-1.92.07-1.92.07-1.92.07-1.92.07-1.92.07-1.92.07-1.92.06-1.92.07-1.92.07-1.93.07-1.92.07-1.92.07-1.92.07-1.92.07-1.92.06-1.92.07-1.92.07-1.92.07-1.92.07-1.92.07-1.92.07-1.93.07-1.92.07-1.92.06-1.92.07-1.92.07-1.92.07-1.92.07-1.92.07-1.92.07-1.92.07-1.92.06-1.92.07-1.93.07-1.92.07-1.92.07-1.92.07-1.92.07-1.92.07-1.92.07-1.92.06-1.92.07-1.92.07-1.92.07-1.92.07-1.93.07-1.92.07-1.92.07-1.92.06-1.92.07-1.92.07-1.92.07-1.92.07-1.92.07-1.92.07-1.92.07-1.92.07-1.93.06-1.92.07-1.92.07-1.92.07-1.92.07-1.92.07-1.92.07-1.92.07-1.92.06-1.92.07-1.92.07-1.92.07-1.93.07-1.92.07-1.92.07-1.92.07-1.92.07-1.92.06-1.92.07-1.92.07-1.92.07-1.92.07-1.92.07-1.92" style="stroke-width:1.07;stroke:#000;stroke-opacity:.1;stroke-linecap:butt"/><path d="m405.32 500.78-.68-1.68-.68-1.69-.68-1.68-.68-1.69-.68-1.68-.69-1.69-.68-1.68-.68-1.68-.68-1.69-.68-1.68-.68-1.69-.68-1.68-.68-1.69-.68-1.68-.68-1.69-.68-1.68-.68-1.69-.68-1.68-.68-1.69-.69-1.68-.68-1.68-.68-1.69-.68-1.68-.68-1.69-.68-1.68-.68-1.69-.68-1.68-.68-1.69-.68-1.68-.68-1.69-.68-1.68-.68-1.69-.68-1.68-.69-1.68-.68-1.69-.68-1.68-.68-1.69-.68-1.68-.68-1.69-.68-1.68-.68-1.69-.68-1.68-.68-1.69-.68-1.68-.68-1.69-.68-1.68-.68-1.68-.69-1.69-.68-1.68-.68-1.69-.68-1.68-.68-1.69-.68-1.68-.68-1.69-.68-1.68-.68-1.69-.68-1.68-.68-1.69-.68-1.68-.68-1.68-.68-1.69-.69-1.68-.68-1.69-.68-1.68-.68-1.69-.68-1.68-.68-1.69-.68-1.68-.68-1.69-.68-1.68-.68-1.69-.68-1.68-.68-1.68-.68-1.69-.68-1.68-.69-1.69-.68-1.68-.68-1.69-.68-1.68-.68-1.69-.68-1.68-.68-1.69-.68-1.68-.68-1.69-.68-1.68-.68-1.68-.68-1.69-.68-1.68-.68-1.69-.69-1.68-.68-1.69-.68-1.68-.68-1.69-.68-1.68-.68-1.69-.68-1.68-.68-1.69-.68-1.68-.68-1.68M509.8 397.79l-1.45-1.48-1.45-1.46-1.46-1.44-1.46-1.43-1.47-1.41-1.48-1.39-1.48-1.38-1.49-1.35-1.49-1.35-1.51-1.32-1.5-1.31-1.51-1.29-1.52-1.27-1.52-1.26-1.53-1.24-1.54-1.22-1.54-1.2-1.55-1.19-1.55-1.17-1.56-1.16-1.57-1.14-1.57-1.12-1.57-1.1-1.59-1.09-1.58-1.06-1.6-1.06-1.6-1.03-1.61-1.02-1.61-1-1.62-.99-1.62-.96-1.63-.95-1.64-.94-1.64-.91-1.65-.9-1.65-.89-1.66-.86-1.66-.85-1.67-.83-1.68-.81-1.68-.8-1.69-.78-1.7-.77-1.7-.74-1.71-.73-1.71-.71-1.72-.7-1.72-.68-1.73-.66-1.74-.64-1.74-.63-1.75-.61-1.75-.59-1.76-.58-1.77-.56-1.77-.54-1.77-.53-1.79-.5-1.79-.5-1.79-.47-1.8-.46-1.81-.44-1.81-.42-1.82-.41-1.83-.39-1.83-.37-1.83-.35-1.85-.34-1.84-.32-1.86-.31-1.86-.29-1.86-.27-1.88-.25-1.87-.23-1.89-.22-1.89-.21-1.89-.18-1.9-.17-1.91-.15-1.91-.14-1.92-.11-1.93-.1-1.93-.09-1.93-.06-1.95-.05-1.95-.03-1.95-.02h-1.96l-1.97.02-1.97.04-1.98.05-1.98.07-1.99.09-2 .1-2 .12-2 .14-2.02.15-2.02.18-2.02.19" style="stroke-width:1.07;stroke:#000;stroke-opacity:.1;stroke-linecap:butt"/><path d="m509.8 397.79-1.49-1.37-1.49-1.35-1.49-1.34-1.5-1.32-1.51-1.3-1.51-1.3-1.52-1.28-1.52-1.26-1.52-1.25-1.54-1.23-1.53-1.22-1.54-1.2-1.55-1.19-1.55-1.18-1.56-1.16-1.56-1.14-1.57-1.13-1.57-1.12-1.58-1.1-1.58-1.09-1.59-1.07-1.59-1.06-1.6-1.04-1.6-1.03-1.61-1.01-1.62-1-1.61-.98-1.63-.97-1.63-.95-1.63-.94-1.64-.92-1.64-.91-1.65-.9-1.66-.88-1.66-.86-1.66-.85-1.67-.84-1.68-.82-1.67-.81-1.69-.79-1.69-.78-1.7-.76-1.7-.75-1.7-.73-1.71-.72-1.72-.7-1.72-.69-1.72-.67-1.73-.66-1.74-.65-1.74-.63-1.75-.61-1.75-.6-1.76-.59-1.76-.57-1.76-.55-1.78-.54-1.77-.53-1.79-.51-1.78-.5-1.8-.48-1.79-.47-1.81-.45-1.8-.44-1.82-.42-1.81-.41-1.83-.39-1.82-.38-1.84-.37-1.84-.35-1.84-.33-1.85-.32-1.85-.31-1.86-.29-1.86-.27-1.87-.26-1.88-.25-1.88-.23-1.88-.22-1.89-.2-1.9-.19-1.89-.17-1.91-.16-1.91-.14-1.91-.13-1.92-.12-1.93-.1-1.93-.08-1.94-.07-1.94-.05-1.94-.04-1.95-.03-1.96-.01h-1.96l-1.97.02-1.97.04-1.97.04-1.99.07-1.98.08" style="stroke-width:1.07;stroke:#000;stroke-opacity:.1;stroke-linecap:butt"/><path d="m509.8 397.79-1.52-1.26-1.53-1.24-1.53-1.23-1.54-1.22-1.54-1.2-1.55-1.19-1.55-1.19-1.55-1.16-1.56-1.16-1.57-1.14-1.56-1.13-1.57-1.12-1.58-1.11-1.58-1.09-1.59-1.08-1.58-1.07-1.6-1.05-1.6-1.05-1.6-1.03-1.6-1.02-1.61-1-1.62-1-1.62-.98-1.62-.96-1.63-.96-1.63-.94-1.64-.94-1.64-.91-1.64-.91-1.65-.89-1.66-.89-1.66-.86-1.66-.86-1.67-.84-1.67-.84-1.67-.81-1.68-.81-1.69-.79-1.69-.79-1.69-.76-1.7-.76-1.7-.75-1.7-.73-1.71-.72-1.72-.7-1.72-.7-1.72-.68-1.73-.67-1.73-.65-1.73-.65-1.74-.63-1.75-.62-1.75-.61-1.75-.59-1.76-.58-1.76-.57-1.77-.56-1.77-.54-1.77-.54-1.78-.52-1.79-.5-1.78-.5-1.8-.48-1.79-.47-1.8-.46-1.81-.44-1.81-.43-1.81-.42-1.82-.41-1.82-.4-1.83-.38-1.83-.37-1.84-.36-1.84-.34-1.84-.33-1.85-.32-1.85-.31-1.86-.3-1.86-.28-1.87-.27-1.87-.26-1.87-.24-1.88-.24-1.89-.22-1.88-.2-1.89-.2-1.9-.18-1.9-.17-1.91-.16-1.91-.15-1.91-.13-1.92-.12-1.92-.11-1.92-.09-1.94-.09-1.93-.07-1.94-.06-1.94-.04-1.95-.03" style="stroke-width:1.07;stroke:#000;stroke-opacity:.1;stroke-linecap:butt"/><path d="m509.8 397.79-1.56-1.14-1.57-1.14-1.57-1.12-1.57-1.12-1.58-1.1-1.58-1.09-1.58-1.09-1.59-1.07-1.59-1.06-1.6-1.05-1.59-1.05-1.6-1.03-1.61-1.02-1.61-1.01-1.61-1-1.62-.99-1.62-.98-1.62-.97-1.62-.97-1.63-.95-1.64-.94-1.64-.93-1.64-.92-1.64-.9-1.65-.9-1.65-.89-1.65-.88-1.66-.87-1.66-.86-1.67-.85-1.67-.84-1.67-.82-1.68-.82-1.68-.81-1.68-.8-1.68-.78-1.69-.78-1.7-.77-1.7-.75-1.7-.75-1.7-.74-1.71-.72-1.71-.72-1.71-.7-1.72-.7-1.72-.68-1.73-.68-1.73-.66-1.73-.66-1.74-.64-1.74-.64-1.74-.62-1.75-.61-1.75-.61-1.75-.59-1.76-.58-1.76-.58-1.76-.56-1.77-.55-1.77-.54-1.78-.54-1.78-.52-1.78-.51-1.78-.5-1.79-.49-1.8-.48-1.79-.47-1.8-.46-1.81-.45-1.8-.44-1.81-.43-1.82-.42-1.81-.41-1.83-.4-1.82-.39-1.83-.38-1.83-.37-1.84-.36-1.83-.35-1.85-.34-1.84-.32-1.85-.32-1.85-.31-1.86-.3-1.86-.28-1.86-.28-1.87-.27-1.87-.25-1.88-.25-1.87-.24-1.88-.22-1.89-.22-1.89-.21-1.89-.19-1.9-.19-1.89-.17-1.91-.17-1.9-.15-1.91-.14" style="stroke-width:1.07;stroke:#000;stroke-opacity:.1;stroke-linecap:butt"/><path d="m509.8 397.79-1.6-1.03-1.6-1.03-1.61-1.02-1.61-1.01-1.61-1-1.62-.99-1.62-.99-1.62-.97-1.62-.97-1.63-.96-1.62-.96-1.64-.94-1.63-.94-1.64-.93-1.64-.92-1.64-.92-1.64-.9-1.65-.9-1.65-.89-1.66-.88-1.65-.88-1.66-.87-1.66-.85-1.67-.85-1.67-.85-1.67-.83-1.67-.83-1.67-.82-1.68-.81-1.68-.8-1.69-.8-1.68-.78-1.69-.78-1.69-.77-1.7-.77-1.7-.75-1.7-.75-1.7-.74-1.71-.73-1.7-.72-1.72-.72-1.71-.71-1.72-.7-1.72-.69-1.72-.68-1.72-.68-1.73-.67-1.73-.66-1.74-.65-1.73-.64-1.74-.64-1.74-.63-1.75-.62-1.74-.61-1.75-.61-1.76-.59-1.75-.59-1.76-.58-1.76-.58-1.76-.56-1.77-.56-1.77-.55-1.77-.54-1.78-.53-1.77-.53-1.78-.51-1.79-.51-1.78-.5-1.79-.5-1.79-.48-1.8-.48-1.79-.47-1.8-.46-1.8-.46-1.81-.44-1.81-.44-1.81-.43-1.81-.42-1.82-.42-1.81-.4-1.83-.4-1.82-.39-1.83-.38-1.83-.38-1.83-.37-1.83-.35-1.84-.35-1.84-.35-1.85-.33-1.84-.33-1.85-.32-1.85-.31-1.86-.3-1.85-.3-1.86-.28-1.87-.28-1.86-.28-1.87-.26-1.87-.25" style="stroke-width:1.07;stroke:#000;stroke-opacity:.1;stroke-linecap:butt"/><path d="m509.8 397.79-1.64-.92-1.64-.92-1.64-.91-1.65-.9-1.65-.9-1.65-.9-1.65-.89-1.65-.88-1.66-.87-1.66-.88-1.65-.86-1.67-.86-1.66-.85-1.66-.85-1.67-.85-1.67-.83-1.67-.83-1.68-.83-1.67-.82-1.68-.81-1.68-.81-1.68-.81-1.68-.79-1.69-.79-1.68-.79-1.69-.78-1.69-.77-1.7-.77-1.69-.77-1.7-.75-1.7-.76-1.7-.74-1.7-.74-1.7-.74-1.71-.73-1.71-.72-1.71-.72-1.71-.71-1.72-.71-1.71-.7-1.72-.69-1.72-.69-1.72-.69-1.73-.68-1.72-.67-1.73-.67-1.73-.66-1.73-.65-1.74-.65-1.73-.65-1.74-.64-1.74-.63-1.74-.63-1.75-.62-1.74-.61-1.75-.61-1.75-.61-1.75-.6-1.76-.59-1.75-.59-1.76-.58-1.76-.58-1.76-.57-1.77-.56-1.76-.56-1.77-.56-1.77-.54-1.77-.55-1.77-.53-1.78-.53-1.78-.53-1.78-.52-1.78-.51-1.78-.51-1.79-.5-1.78-.5-1.79-.49-1.79-.49-1.8-.48-1.79-.47-1.8-.47-1.8-.46-1.8-.46-1.8-.45-1.81-.45-1.8-.44-1.81-.43-1.81-.43-1.82-.42-1.81-.42-1.82-.41-1.82-.41-1.82-.4-1.82-.39-1.82-.39-1.83-.39-1.83-.38-1.83-.37-1.83-.36" style="stroke-width:1.07;stroke:#000;stroke-opacity:.1;stroke-linecap:butt"/><path d="m509.8 397.79-1.68-.81-1.68-.81-1.68-.8-1.68-.8-1.68-.8-1.69-.79-1.68-.8-1.69-.78-1.69-.79-1.69-.78-1.69-.77-1.69-.78-1.69-.77-1.69-.76-1.7-.77-1.69-.76-1.7-.75-1.7-.76-1.7-.75-1.7-.74-1.7-.75-1.7-.73-1.71-.74-1.7-.73-1.71-.73-1.71-.73-1.71-.72-1.71-.72-1.71-.72-1.71-.71-1.71-.71-1.72-.7-1.72-.7-1.71-.7-1.72-.7-1.72-.69-1.72-.69-1.72-.68-1.73-.69-1.72-.67-1.73-.68-1.72-.67-1.73-.67-1.73-.66-1.73-.66-1.73-.66-1.73-.66-1.74-.65-1.73-.65-1.74-.64-1.74-.64-1.73-.64-1.74-.63-1.74-.63-1.75-.63-1.74-.62-1.74-.63-1.75-.61-1.75-.62-1.74-.61-1.75-.6-1.75-.61-1.75-.6-1.76-.59-1.75-.6-1.76-.59-1.75-.58-1.76-.59-1.76-.58-1.76-.57-1.76-.57-1.76-.57-1.76-.57-1.77-.56-1.76-.56-1.77-.56-1.77-.55-1.77-.55-1.77-.55-1.77-.54-1.77-.54-1.78-.53-1.77-.53-1.78-.53-1.77-.53-1.78-.52-1.78-.52-1.78-.51-1.79-.51-1.78-.51-1.78-.51-1.79-.5-1.79-.5-1.78-.49-1.79-.49-1.79-.49-1.8-.49-1.79-.48-1.79-.47" style="stroke-width:1.07;stroke:#000;stroke-opacity:.1;stroke-linecap:butt"/><path d="m509.8 397.79-1.72-.7-1.71-.7-1.72-.7-1.72-.69-1.72-.7-1.72-.69-1.72-.7-1.72-.69-1.71-.69-1.73-.69-1.72-.69-1.72-.68-1.72-.69-1.72-.68-1.72-.69-1.73-.68-1.72-.68-1.72-.68-1.73-.68-1.72-.68-1.73-.68-1.72-.67-1.73-.68-1.72-.67-1.73-.68-1.72-.67-1.73-.67-1.73-.67-1.73-.67-1.73-.66-1.72-.67-1.73-.66-1.73-.67-1.73-.66-1.73-.66-1.73-.66-1.73-.66-1.73-.66-1.74-.65-1.73-.66-1.73-.65-1.73-.66-1.74-.65-1.73-.65-1.74-.65-1.73-.65-1.73-.65-1.74-.64-1.74-.65-1.73-.64-1.74-.65-1.74-.64-1.73-.64-1.74-.64-1.74-.64-1.74-.64-1.74-.63-1.73-.64-1.74-.63-1.74-.63-1.74-.64-1.75-.63-1.74-.63-1.74-.62-1.74-.63-1.74-.63-1.75-.62-1.74-.63-1.74-.62-1.75-.62-1.74-.62-1.75-.62-1.74-.62-1.75-.62-1.74-.61-1.75-.62-1.75-.61-1.74-.61-1.75-.61-1.75-.61-1.75-.61-1.74-.61-1.75-.61-1.75-.6-1.75-.61-1.75-.6-1.75-.6-1.75-.61-1.76-.6-1.75-.6-1.75-.59-1.75-.6-1.76-.6-1.75-.59-1.75-.59-1.76-.59-1.75-.6-1.76-.59-1.75-.58M509.8 397.79l-1.75-.59-1.76-.59-1.75-.59-1.76-.59-1.75-.6-1.76-.59-1.75-.6-1.75-.59-1.75-.6-1.76-.6-1.75-.6-1.75-.6-1.75-.6-1.75-.61-1.75-.6-1.75-.61-1.75-.6-1.75-.61-1.74-.61-1.75-.61-1.75-.61-1.75-.61-1.74-.62-1.75-.61-1.75-.62-1.74-.62-1.75-.61-1.74-.62-1.75-.62-1.74-.63-1.74-.62-1.75-.62-1.74-.63-1.74-.62-1.74-.63-1.74-.63-1.75-.63-1.74-.63-1.74-.63-1.74-.63-1.74-.64-1.74-.63-1.73-.64-1.74-.64-1.74-.64-1.74-.64-1.74-.64-1.73-.64-1.74-.64-1.74-.65-1.73-.64-1.74-.65-1.73-.65-1.74-.64-1.73-.65-1.73-.66-1.74-.65-1.73-.65-1.73-.66-1.73-.65-1.74-.66-1.73-.66-1.73-.65-1.73-.67-1.73-.66-1.73-.66-1.73-.66-1.73-.67-1.73-.66-1.72-.67-1.73-.67-1.73-.67-1.73-.67-1.72-.67-1.73-.67-1.73-.68-1.72-.67-1.73-.68-1.72-.67-1.73-.68-1.72-.68-1.72-.68-1.73-.68-1.72-.69-1.72-.68-1.72-.69-1.72-.68-1.73-.69-1.72-.69-1.72-.69-1.72-.69-1.72-.69-1.72-.69-1.71-.7-1.72-.69-1.72-.7-1.72-.7-1.72-.69-1.71-.7" style="stroke-width:1.07;stroke:#000;stroke-opacity:.1;stroke-linecap:butt"/><path d="m509.8 397.79-1.79-.48-1.8-.48-1.79-.48-1.79-.49-1.79-.49-1.79-.5-1.78-.5-1.79-.5-1.78-.5-1.79-.51-1.78-.51-1.78-.52-1.78-.52-1.78-.52-1.77-.52-1.78-.53-1.78-.53-1.77-.54-1.77-.54-1.77-.54-1.77-.55-1.77-.54-1.77-.56-1.77-.55-1.76-.56-1.77-.56-1.76-.57-1.76-.57-1.76-.57-1.76-.58-1.76-.58-1.76-.58-1.76-.59-1.75-.59-1.75-.59-1.76-.6-1.75-.6-1.75-.6-1.75-.61-1.75-.61-1.74-.61-1.75-.62-1.74-.62-1.74-.62-1.75-.63-1.74-.63-1.74-.64-1.74-.63-1.73-.64-1.74-.65-1.73-.65-1.74-.65-1.73-.65-1.73-.66-1.73-.66-1.73-.67-1.73-.66-1.73-.68-1.72-.67-1.73-.68-1.72-.68-1.72-.69-1.72-.68-1.72-.7-1.72-.69-1.72-.7-1.71-.7-1.72-.71-1.71-.71-1.71-.71-1.71-.71-1.71-.72-1.71-.73-1.71-.72-1.71-.73-1.7-.73-1.71-.74-1.7-.74-1.7-.74-1.7-.75-1.7-.75-1.7-.75-1.7-.76-1.69-.76-1.7-.76-1.69-.77-1.69-.77-1.7-.77-1.69-.78-1.69-.78-1.68-.78-1.69-.79-1.68-.79-1.69-.79-1.68-.8-1.68-.8-1.68-.81-1.68-.8-1.68-.81" style="stroke-width:1.07;stroke:#000;stroke-opacity:.1;stroke-linecap:butt"/><path d="m509.8 397.79-1.83-.37-1.83-.37-1.83-.38-1.83-.38-1.82-.39-1.82-.39-1.83-.41-1.81-.4-1.82-.41-1.82-.42-1.81-.42-1.81-.43-1.81-.44-1.8-.44-1.81-.44-1.8-.46-1.8-.45-1.8-.47-1.8-.46-1.79-.48-1.8-.48-1.79-.48-1.79-.5-1.79-.49-1.78-.51-1.78-.5-1.79-.52-1.77-.52-1.78-.52-1.78-.53-1.77-.54-1.77-.54-1.77-.55-1.77-.55-1.76-.56-1.77-.57-1.76-.57-1.76-.57-1.76-.59-1.75-.58-1.76-.6-1.75-.6-1.75-.6-1.75-.61-1.74-.62-1.75-.62-1.74-.63-1.74-.63-1.74-.64-1.73-.64-1.74-.65-1.73-.66-1.73-.66-1.73-.67-1.72-.67-1.73-.68-1.72-.68-1.72-.69-1.72-.7-1.72-.7-1.71-.7-1.71-.72-1.71-.71-1.71-.73-1.71-.73-1.7-.73-1.71-.74-1.7-.75-1.69-.75-1.7-.76-1.7-.76-1.69-.77-1.69-.77-1.69-.79-1.69-.78-1.68-.79-1.68-.8-1.68-.8-1.68-.81-1.68-.82-1.68-.82-1.67-.82-1.67-.83-1.67-.84-1.67-.84-1.66-.85-1.67-.85-1.66-.86-1.66-.87-1.65-.87-1.66-.88-1.65-.88-1.65-.89-1.65-.89-1.65-.9-1.65-.91-1.64-.91-1.64-.91-1.64-.92" style="stroke-width:1.07;stroke:#000;stroke-opacity:.1;stroke-linecap:butt"/><path d="m509.8 397.79-1.87-.26-1.87-.26-1.86-.27-1.87-.28-1.86-.29-1.85-.29-1.86-.31-1.85-.31-1.85-.32-1.85-.32-1.84-.34-1.84-.34-1.84-.35-1.83-.36-1.84-.37-1.82-.37-1.83-.38-1.83-.39-1.82-.4-1.82-.41-1.81-.41-1.82-.42-1.81-.43-1.8-.44-1.81-.45-1.8-.45-1.8-.46-1.8-.47-1.79-.48-1.79-.49-1.79-.49-1.79-.5-1.78-.51-1.78-.52-1.78-.52-1.77-.54-1.77-.54-1.77-.55-1.77-.55-1.76-.57-1.76-.57-1.76-.58-1.76-.59-1.75-.6-1.75-.6-1.75-.62-1.74-.62-1.74-.62-1.74-.64-1.74-.64-1.73-.66-1.73-.66-1.73-.67-1.72-.67-1.73-.69-1.72-.69-1.71-.7-1.72-.7-1.71-.72-1.71-.72-1.7-.74-1.7-.74-1.7-.74-1.7-.76-1.7-.76-1.69-.77-1.69-.78-1.69-.79-1.68-.79-1.68-.81-1.68-.81-1.67-.82-1.68-.82-1.67-.84-1.66-.84-1.67-.85-1.66-.86-1.66-.87-1.66-.87-1.65-.88-1.65-.89-1.65-.9-1.64-.91-1.65-.91-1.63-.92-1.64-.93-1.64-.94-1.63-.95-1.63-.95-1.62-.96-1.63-.97-1.62-.98-1.61-.99-1.62-.99-1.61-1-1.61-1.01-1.61-1.02-1.6-1.02-1.6-1.03" style="stroke-width:1.07;stroke:#000;stroke-opacity:.1;stroke-linecap:butt"/><path d="m509.8 397.79-1.91-.14-1.9-.16-1.91-.16-1.9-.18-1.89-.18-1.89-.2-1.89-.21-1.89-.21-1.88-.23-1.88-.23-1.87-.25-1.87-.26-1.87-.26-1.86-.28-1.86-.29-1.86-.3-1.85-.3-1.85-.32-1.85-.33-1.84-.34-1.84-.35-1.83-.35-1.83-.37-1.83-.38-1.83-.39-1.82-.4-1.81-.41-1.82-.42-1.81-.43-1.81-.44-1.8-.45-1.8-.46-1.8-.47-1.79-.48-1.79-.49-1.78-.51-1.78-.51-1.78-.52-1.78-.53-1.77-.54-1.77-.56-1.76-.56-1.76-.57-1.76-.59-1.75-.59-1.75-.6-1.75-.62-1.74-.62-1.74-.63-1.74-.65-1.73-.65-1.73-.67-1.73-.67-1.72-.69-1.72-.69-1.71-.71-1.71-.71-1.71-.73-1.71-.74-1.7-.74-1.69-.76-1.7-.76-1.69-.78-1.68-.79-1.69-.8-1.68-.8-1.67-.82-1.67-.83-1.67-.84-1.67-.85-1.66-.85-1.66-.87-1.65-.88-1.65-.89-1.65-.9-1.65-.91-1.64-.92-1.63-.93-1.64-.94-1.63-.95-1.62-.96-1.63-.97-1.62-.98-1.61-.99-1.61-1-1.61-1.02-1.61-1.02-1.6-1.03-1.6-1.04-1.59-1.05-1.59-1.07-1.59-1.07-1.58-1.08-1.58-1.1-1.58-1.1-1.57-1.11-1.57-1.13-1.57-1.13-1.56-1.14" style="stroke-width:1.07;stroke:#000;stroke-opacity:.1;stroke-linecap:butt"/><path d="m509.8 397.79-1.95-.03-1.94-.05-1.94-.06-1.94-.07-1.93-.08-1.92-.1-1.93-.11-1.91-.12-1.92-.13-1.91-.14-1.9-.16-1.9-.17-1.9-.19-1.89-.19-1.89-.21-1.88-.22-1.88-.23-1.87-.25-1.87-.26-1.87-.27-1.86-.28-1.86-.29-1.85-.31-1.85-.32-1.84-.33-1.84-.35-1.84-.36-1.83-.37-1.83-.38-1.82-.39-1.82-.41-1.81-.42-1.81-.43-1.81-.45-1.8-.46-1.79-.47-1.8-.48-1.78-.49-1.79-.51-1.78-.52-1.77-.53-1.77-.55-1.77-.55-1.76-.57-1.76-.58-1.75-.6-1.75-.61-1.75-.61-1.74-.64-1.73-.64-1.74-.66-1.72-.67-1.73-.68-1.71-.69-1.72-.71-1.71-.72-1.7-.73-1.71-.74-1.69-.76-1.7-.77-1.68-.78-1.69-.79-1.68-.81-1.67-.82-1.68-.83-1.66-.84-1.67-.86-1.65-.87-1.66-.88-1.65-.89-1.64-.91-1.64-.92-1.64-.93-1.63-.94-1.63-.96-1.62-.97-1.62-.98-1.62-.99-1.61-1.01-1.6-1.02-1.61-1.03-1.59-1.04-1.6-1.06-1.59-1.07-1.58-1.08-1.58-1.09-1.58-1.1-1.57-1.12-1.57-1.13-1.56-1.15-1.56-1.15-1.55-1.17-1.55-1.18-1.55-1.19-1.54-1.21-1.54-1.22-1.53-1.23-1.53-1.24-1.52-1.25" style="stroke-width:1.07;stroke:#000;stroke-opacity:.1;stroke-linecap:butt"/><path d="m509.8 397.79-1.99.08-1.98.06-1.97.05-1.98.03-1.96.02-1.96.01-1.96-.02-1.95-.02-1.94-.04-1.95-.06-1.93-.07-1.93-.08-1.93-.1-1.92-.11-1.91-.13-1.91-.14-1.91-.16-1.9-.18-1.89-.18-1.89-.21-1.88-.21-1.88-.23-1.88-.25-1.87-.26-1.86-.28-1.86-.29-1.85-.3-1.85-.32-1.85-.34-1.83-.35-1.84-.36-1.83-.38-1.82-.39-1.82-.41-1.81-.43-1.81-.43-1.8-.46-1.8-.46-1.79-.49-1.79-.49-1.78-.52-1.78-.52-1.77-.54-1.76-.56-1.77-.57-1.75-.58-1.75-.61-1.75-.61-1.74-.63-1.74-.64-1.73-.66-1.72-.68-1.72-.68-1.72-.71-1.71-.72-1.71-.73-1.7-.75-1.69-.76-1.69-.78-1.69-.79-1.68-.8-1.67-.82-1.67-.84-1.67-.85-1.65-.87-1.66-.88-1.65-.89-1.64-.91-1.64-.92-1.64-.94-1.62-.96-1.63-.97-1.62-.98-1.61-1-1.61-1.01-1.6-1.03-1.6-1.04-1.59-1.06-1.59-1.07-1.58-1.08-1.58-1.11-1.57-1.11-1.57-1.13-1.56-1.15-1.56-1.16-1.55-1.17-1.55-1.19-1.54-1.21-1.54-1.21-1.53-1.24-1.52-1.25-1.53-1.26-1.51-1.28-1.51-1.29-1.51-1.31-1.5-1.32-1.5-1.34-1.49-1.35-1.48-1.36" style="stroke-width:1.07;stroke:#000;stroke-opacity:.1;stroke-linecap:butt"/><path d="m509.8 397.79-2.02.19-2.02.17-2.02.16-2 .13-2.01.12-1.99.11-1.99.08-1.99.07-1.97.06-1.98.03-1.96.02h-1.96l-1.96-.01-1.94-.03-1.95-.05-1.93-.07-1.93-.08-1.93-.1-1.92-.12-1.91-.13-1.91-.16-1.9-.16-1.9-.19-1.89-.2-1.88-.22-1.88-.24-1.87-.25-1.86-.27-1.86-.29-1.86-.3-1.85-.32-1.84-.34-1.83-.36-1.84-.37-1.82-.39-1.82-.4-1.81-.43-1.81-.44-1.8-.45-1.79-.48-1.79-.49-1.79-.51-1.77-.52-1.78-.55-1.76-.56-1.76-.57-1.75-.59-1.75-.62-1.74-.62-1.74-.65-1.73-.66-1.73-.68-1.71-.69-1.72-.71-1.7-.73-1.7-.75-1.7-.76-1.69-.78-1.68-.8-1.68-.81-1.67-.84-1.66-.84-1.66-.87-1.66-.88-1.64-.9-1.65-.92-1.63-.93-1.63-.95-1.63-.97-1.61-.98-1.62-1-1.6-1.02-1.6-1.04-1.6-1.05-1.59-1.07-1.58-1.09-1.57-1.1-1.58-1.12-1.56-1.14-1.56-1.15-1.55-1.17-1.55-1.19-1.54-1.21-1.54-1.22-1.53-1.24-1.52-1.25-1.52-1.28-1.51-1.29-1.51-1.31-1.5-1.32-1.49-1.34-1.49-1.36-1.48-1.38-1.48-1.39-1.47-1.41-1.46-1.42-1.46-1.45-1.46-1.46-1.44-1.47" style="stroke-width:1.07;stroke:#000;stroke-opacity:.1;stroke-linecap:butt"/><path d="m522.77 295.56 1.92 3.32h-3.83zM453.31 319.6l1.91 3.31h-3.82zM474.67 212.09l1.92 3.31h-3.83zM413.55 167.4l3.76 6.53h-7.53zM338.79 137.86l1.92 3.31h-3.83zM299.47 205.61l1.92 3.32h-3.83zM463.24 458.7l1.92 3.32h-3.83zM230.07 173.86l1.91 3.31h-3.83zM177.37 242.41l1.91 3.32h-3.83zM196.22 313.51l1.91 3.32h-3.83zM163.36 395.42l1.91 3.31h-3.83zM205.01 465.79l1.91 3.31h-3.83zM293.97 455.92l1.91 3.32h-3.83zM331.11 521.96l1.92 3.31h-3.83zM405.32 498.57l1.91 3.32h-3.83z" style="stroke-width:.71;stroke:none;fill:#00ba38"/><path d="M507 400.59h5.6v-5.6H507z" style="stroke-width:.71;stroke:none;fill:#619cff"/><circle cx="337.93" cy="334.01" r="6.76" style="stroke-width:.71;stroke:none;fill:#f8766d"/><path d="M53.17 517.15h5.6v-5.59h-5.6z" style="stroke-width:.71;stroke:none;fill:#619cff"/><path d="m517.39 293.07 4.51 3.94M458.45 317.17l-4.28 3.86M469.53 218.94l4.28-3.87M408.37 176.43l4.32-3.9M343.32 132.8l-3.95 6.33M304.61 203.19l-4.28 3.86M468.41 456.25l-4.31 3.89M224.87 180.77l4.34-3.93M172.17 249.31l4.34-3.91M201.35 311.09l-4.28 3.86M168.53 392.96l-4.31 3.89M199.87 472.63l4.28-3.86M299.41 453.42l-4.56 3.95M326.63 531.4l3.91-6.3M399.94 505.44l4.5-3.9M504.97 399.31l3.64-1.15M343.27 329.39l-4.46 3.86M60.85 514.83l-3.62-.35" style="stroke-width:.53;stroke:#bfbfbf"/><path d="M473.57 293.07h66.73-.08l.34-.02.34-.07.33-.12.3-.18.27-.21.23-.27.19-.29.13-.32.08-.34.03-.34v-7.03l-.03-.35-.08-.33-.13-.32-.19-.3-.23-.26-.27-.22-.3-.17-.33-.12-.34-.07-.26-.02h-66.73l.26.02-.34-.02-.35.04-.33.1-.32.15-.28.2-.25.24-.21.28-.16.3-.11.33-.06.35-.01.17v7.03l.01-.18v.35l.06.34.11.33.16.31.21.28.25.24.28.2.32.15.33.09.35.05z" style="stroke-width:.53;fill:#fff;fill-opacity:.5"/><text x="506.94" y="289.47" lengthAdjust="spacingAndGlyphs" style="font-size:5.69px;font-family:&quot;Liberation Sans&quot;" text-anchor="middle" textLength="63.85">UPTOWN LIVING 1 LLC</text><path d="M437.64 317.17h56.49-.09l.35-.02.34-.07.32-.12.3-.18.27-.22.23-.26.19-.29.13-.32.09-.34.03-.34v-7.03l-.03-.35-.09-.33-.13-.32-.19-.3-.23-.26-.27-.22-.3-.17-.32-.13-.34-.06-.26-.02h-56.49l.26.02-.34-.02-.35.04-.33.1-.32.15-.28.2-.25.24-.21.28-.16.3-.12.33-.05.35-.01.17v7.03l.01-.18v.35l.05.34.12.33.16.31.21.28.25.24.28.2.32.15.33.09.35.05z" style="stroke-width:.53;fill:#fff;fill-opacity:.5"/><text x="465.88" y="313.57" lengthAdjust="spacingAndGlyphs" style="font-size:5.69px;font-family:&quot;Liberation Sans&quot;" text-anchor="middle" textLength="53.6">1903 S 5TH PL LLC</text><path d="M435.04 230.28h54.25-.09l.35-.01.34-.07.33-.12.3-.18.27-.22.23-.26.18-.29.14-.32.08-.34.03-.35v-7.02l-.03-.35-.08-.34-.14-.32-.18-.29-.23-.26-.27-.22-.3-.17-.33-.13-.34-.07-.26-.01h-54.25l.26.01-.35-.01-.34.04-.34.1-.31.15-.29.19-.25.25-.21.27-.16.31-.11.33-.06.34v7.2-.17.35l.06.34.11.33.16.31.21.28.25.24.29.2.31.14.34.1.34.04z" style="stroke-width:.53;fill:#fff;fill-opacity:.5"/><text x="462.16" y="226.68" lengthAdjust="spacingAndGlyphs" style="font-size:5.69px;font-family:&quot;Liberation Sans&quot;" text-anchor="middle" textLength="51.37">NEW HALE 10 LLC</text><path d="M366.58 187.78h68.85l-.09-.01.35-.01.34-.07.33-.12.3-.18.27-.22.23-.26.18-.29.14-.32.08-.34.03-.34v-7.03l-.03-.35-.08-.34-.14-.32-.18-.29-.23-.26-.27-.22-.3-.17-.33-.13-.34-.07-.26-.01h-68.85l.26.01-.35-.01-.34.04-.34.1-.31.15-.29.19-.25.25-.21.27-.16.31-.11.33-.06.34v7.21-.18.35l.06.34.11.33.16.31.21.28.25.24.29.2.31.14.34.1.34.04z" style="stroke-width:.53;fill:#fff;fill-opacity:.5"/><text x="401" y="184.18" lengthAdjust="spacingAndGlyphs" style="font-size:5.69px;font-family:&quot;Liberation Sans&quot;" text-anchor="middle" textLength="65.97">2276 S CHASE AVE LLC</text><path d="M345.48 135.82h54.99-.09l.35-.01.34-.07.32-.13.31-.17.27-.22.23-.26.18-.29.14-.32.08-.34.03-.35v-7.03l-.03-.34-.08-.34-.14-.32-.18-.29-.23-.26-.27-.22-.31-.18-.32-.12-.34-.07-.26-.02h-54.99l.26.02-.35-.01-.35.04-.33.09-.31.15-.29.2-.25.24-.21.28-.16.31-.11.33-.06.34v7.2-.17.35l.06.34.11.33.16.31.21.27.25.24.29.2.31.15.33.1.35.04z" style="stroke-width:.53;fill:#fff;fill-opacity:.5"/><text x="372.97" y="132.22" lengthAdjust="spacingAndGlyphs" style="font-size:5.69px;font-family:&quot;Liberation Sans&quot;" text-anchor="middle" textLength="52.11">2241 S 5TH PI LLC</text><path d="M284.47 203.19h54.99-.08l.34-.01.34-.07.33-.13.3-.17.27-.22.23-.26.19-.29.13-.32.08-.34.03-.35V194l-.03-.34-.08-.34-.13-.32-.19-.29-.23-.26-.27-.22-.3-.18-.33-.12-.34-.07-.26-.02h-54.99l.26.02-.35-.01-.34.04-.34.09-.31.15-.29.2-.25.24-.21.28-.16.31-.11.33-.05.34-.01.17v7.03l.01-.17v.35l.05.34.11.33.16.31.21.27.25.24.29.2.31.15.34.1.34.04z" style="stroke-width:.53;fill:#fff;fill-opacity:.5"/><text x="311.97" y="199.59" lengthAdjust="spacingAndGlyphs" style="font-size:5.69px;font-family:&quot;Liberation Sans&quot;" text-anchor="middle" textLength="52.11">2265 S 5TH PI LLC</text><path d="M449.95 456.25h51.64-.09l.35-.02.34-.07.33-.12.3-.17.27-.22.23-.26.18-.3.14-.32.08-.34.03-.34v-7.03l-.03-.35-.08-.33-.14-.32-.18-.3-.23-.26-.27-.22-.3-.17-.33-.12-.34-.07-.26-.02h-51.64l.26.02-.35-.02-.35.04-.33.1-.31.15-.29.2-.25.24-.21.28-.16.3-.11.33-.06.35v7.2-.18.35l.06.35.11.32.16.31.21.28.25.24.29.2.31.15.33.09.35.05z" style="stroke-width:.53;fill:#fff;fill-opacity:.5"/><text x="475.77" y="452.65" lengthAdjust="spacingAndGlyphs" style="font-size:5.69px;font-family:&quot;Liberation Sans&quot;" text-anchor="middle" textLength="48.77">JEFFREY LEMMER</text><path d="M191.84 192.12h51.31-.08l.34-.02.34-.07.33-.12.3-.18.27-.22.23-.26.19-.29.13-.32.09-.34.02-.34v-7.03l-.02-.35-.09-.33-.13-.32-.19-.3-.23-.26-.27-.22-.3-.17-.33-.13-.34-.06-.26-.02h-51.31l.26.02-.35-.02-.34.04-.34.1-.31.15-.29.2-.25.24-.21.28-.16.3-.11.33-.05.35-.01.17v7.03l.01-.18v.35l.05.34.11.33.16.31.21.28.25.24.29.2.31.15.34.09.34.05z" style="stroke-width:.53;fill:#fff;fill-opacity:.5"/><text x="217.5" y="188.52" lengthAdjust="spacingAndGlyphs" style="font-size:5.69px;font-family:&quot;Liberation Sans&quot;" text-anchor="middle" textLength="48.43">NEW HALO 4 LLC</text><path d="M136.31 260.66h56.94-.09l.35-.02.34-.07.32-.12.31-.17.26-.22.24-.26.18-.3.14-.32.08-.33.03-.35v-7.03l-.03-.34-.08-.34-.14-.32-.18-.3-.24-.26-.26-.22-.31-.17-.32-.12-.34-.07-.26-.02h-56.94l.26.02-.35-.02-.34.05-.33.09-.32.15-.29.2-.25.24-.2.28-.17.31-.11.33-.05.34-.01.17v7.03l.01-.17v.34l.05.35.11.33.17.3.2.28.25.24.29.2.32.15.33.1.34.04z" style="stroke-width:.53;fill:#fff;fill-opacity:.5"/><text x="164.78" y="257.06" lengthAdjust="spacingAndGlyphs" style="font-size:5.69px;font-family:&quot;Liberation Sans&quot;" text-anchor="middle" textLength="54.06">2248 S 5TH P1 LLC</text><path d="M181.3 311.09h54.94-.09l.35-.02.34-.07.32-.12.3-.17.27-.22.23-.26.19-.3.14-.32.08-.33.03-.35v-7.03l-.03-.34-.08-.34-.14-.32-.19-.29-.23-.27-.27-.21-.3-.18-.32-.12-.34-.07-.26-.02H181.3l.26.02-.35-.02-.34.05-.33.09-.32.15-.28.2-.26.24-.2.28-.17.31-.11.33-.05.34-.01.17v7.03l.01-.17v.34l.05.35.11.33.17.3.2.28.26.24.28.2.32.15.33.1.34.04z" style="stroke-width:.53;fill:#fff;fill-opacity:.5"/><text x="208.77" y="307.49" lengthAdjust="spacingAndGlyphs" style="font-size:5.69px;font-family:&quot;Liberation Sans&quot;" text-anchor="middle" textLength="52.06">NEW HALO 13 LLC</text><path d="M147.65 392.96h56.49-.09l.35-.02.34-.07.32-.12.31-.17.27-.22.23-.26.18-.3.14-.32.08-.33.03-.35v-7.03l-.03-.34-.08-.34-.14-.32-.18-.3-.23-.26-.27-.22-.31-.17-.32-.12-.34-.07-.26-.02h-56.49l.27.02-.35-.02-.35.05-.33.09-.32.15-.28.2-.25.24-.21.28-.16.31-.11.32-.06.35-.01.17v7.03l.01-.17v.34l.06.35.11.33.16.3.21.28.25.24.28.2.32.15.33.1.35.04z" style="stroke-width:.53;fill:#fff;fill-opacity:.5"/><text x="175.9" y="389.36" lengthAdjust="spacingAndGlyphs" style="font-size:5.69px;font-family:&quot;Liberation Sans&quot;" text-anchor="middle" textLength="53.6">2172 S 5TH PL LLC</text><path d="M164.25 483.98h56.48-.09l.35-.02.34-.07.33-.12.3-.17.27-.22.23-.26.18-.3.14-.32.08-.34.03-.34v-7.03l-.03-.35-.08-.33-.14-.32-.18-.3-.23-.26-.27-.22-.3-.17-.33-.12-.34-.07-.26-.02h-56.48l.26.02-.35-.02-.35.04-.33.1-.31.15-.29.2-.25.24-.21.28-.16.3-.11.33-.06.35v7.2-.18.35l.06.35.11.32.16.31.21.28.25.24.29.2.31.15.33.09.35.05z" style="stroke-width:.53;fill:#fff;fill-opacity:.5"/><text x="192.49" y="480.38" lengthAdjust="spacingAndGlyphs" style="font-size:5.69px;font-family:&quot;Liberation Sans&quot;" text-anchor="middle" textLength="53.6">2129 S 5TH PL LLC</text><path d="M278.41 453.42h66.29-.09l.35-.01.34-.07.32-.12.3-.18.27-.22.23-.26.19-.29.13-.32.09-.34.03-.35v-15.22l-.03-.34-.09-.34-.13-.32-.19-.29-.23-.26-.27-.22-.3-.18-.32-.12-.34-.07-.26-.02h-66.29l.26.02-.34-.02-.35.05-.33.09-.32.15-.28.2-.25.24-.21.28-.16.31-.11.33-.06.34-.01.17v15.22l.01-.17v.35l.06.34.11.33.16.31.21.28.25.24.28.2.32.14.33.1.35.04z" style="stroke-width:.53;fill:#fff;fill-opacity:.5"/><text x="311.55" y="441.63" lengthAdjust="spacingAndGlyphs" style="font-size:5.69px;font-family:&quot;Liberation Sans&quot;" text-anchor="middle" textLength="63.4">2180 S MUSKEGO AVE</text><text x="311.55" y="449.82" lengthAdjust="spacingAndGlyphs" style="font-size:5.69px;font-family:&quot;Liberation Sans&quot;" text-anchor="middle" textLength="10.31">LLC</text><path d="M273.15 539.74h51.32l-.09-.01.35-.01.34-.07.32-.12.3-.18.27-.22.23-.26.19-.29.14-.32.08-.34.03-.34v-7.03l-.03-.35-.08-.34-.14-.32-.19-.29-.23-.26-.27-.22-.3-.17-.32-.13-.34-.07-.26-.01h-51.32l.26.01-.34-.01-.35.04-.33.1-.32.15-.28.2-.25.24-.21.27-.16.31-.11.33-.06.34-.01.18v7.03l.01-.18v.35l.06.34.11.33.16.31.21.28.25.24.28.2.32.15.33.09.35.04z" style="stroke-width:.53;fill:#fff;fill-opacity:.5"/><text x="298.81" y="536.14" lengthAdjust="spacingAndGlyphs" style="font-size:5.69px;font-family:&quot;Liberation Sans&quot;" text-anchor="middle" textLength="48.43">NEW HALO 1 LLC</text><path d="M356.95 524.98h61.71-.09l.35-.02.34-.07.32-.12.31-.17.26-.22.23-.26.19-.3.14-.32.08-.33.03-.35V507.6l-.03-.35-.08-.34-.14-.32-.19-.29-.23-.26-.26-.22-.31-.17-.32-.13-.34-.07-.26-.01h-61.71l.26.01-.34-.01-.35.04-.33.1-.32.15-.28.19-.25.24-.21.28-.16.31-.11.33-.06.34-.01.18v15.22l.01-.17v.34l.06.35.11.33.16.3.21.28.25.24.28.2.32.15.33.1.35.04z" style="stroke-width:.53;fill:#fff;fill-opacity:.5"/><text x="387.81" y="513.18" lengthAdjust="spacingAndGlyphs" style="font-size:5.69px;font-family:&quot;Liberation Sans&quot;" text-anchor="middle" textLength="58.82">3535 S HOWELL AVE</text><text x="387.81" y="521.38" lengthAdjust="spacingAndGlyphs" style="font-size:5.69px;font-family:&quot;Liberation Sans&quot;" text-anchor="middle" textLength="10.31">LLC</text><path d="M435.59 409.21h67.22l-.08-.01.34-.01.34-.07.33-.12.3-.18.27-.22.23-.26.19-.29.13-.32.09-.34.02-.34v-15.22l-.02-.35-.09-.34-.13-.32-.19-.29-.23-.26-.27-.22-.3-.18-.33-.12-.34-.07-.26-.01h-67.22l.26.01-.34-.01-.35.04-.33.1-.32.14-.28.2-.25.24-.21.28-.16.31-.11.33-.06.34-.01.18v15.22l.01-.18v.35l.06.34.11.33.16.31.21.28.25.24.28.2.32.15.33.09.35.04z" style="stroke-width:.53;fill:#fff;fill-opacity:.5"/><text x="469.2" y="397.41" lengthAdjust="spacingAndGlyphs" style="font-size:5.69px;font-family:&quot;Liberation Sans&quot;" text-anchor="middle" textLength="47.4">4407 S 20TH ST,</text><text x="469.2" y="405.61" lengthAdjust="spacingAndGlyphs" style="font-size:5.69px;font-family:&quot;Liberation Sans&quot;" text-anchor="middle" textLength="64.34">MILWAUKEE, WI 53221</text><path d="M321.8 329.39h67.22l-.09-.01.35-.01.34-.07.33-.12.3-.18.27-.22.23-.26.18-.29.14-.32.08-.34.03-.34V312l-.03-.34-.08-.34-.14-.32-.18-.29-.23-.26-.27-.22-.3-.18-.33-.12-.34-.07-.26-.02H321.8l.26.02-.35-.01-.34.04-.33.09-.32.15-.28.2-.26.24-.2.28-.17.31-.11.33-.05.34-.01.17v15.23l.01-.18v.35l.05.34.11.33.17.31.2.28.26.24.28.2.32.14.33.1.34.04z" style="stroke-width:.53;fill:#fff;fill-opacity:.5"/><text x="355.41" y="317.59" lengthAdjust="spacingAndGlyphs" style="font-size:5.69px;font-family:&quot;Liberation Sans&quot;" text-anchor="middle" textLength="47.4">4407 S 20TH ST,</text><text x="355.41" y="325.79" lengthAdjust="spacingAndGlyphs" style="font-size:5.69px;font-family:&quot;Liberation Sans&quot;" text-anchor="middle" textLength="64.34">MILWAUKEE, WI 53221</text><path d="M63.01 524.6h67.22-.08l.34-.01.34-.07.33-.13.3-.17.27-.22.23-.26.19-.29.13-.32.09-.34.02-.35v-15.22l-.02-.35-.09-.33-.13-.32-.19-.3-.23-.26-.27-.22-.3-.17-.33-.12-.34-.07-.26-.02H63.01l.27.02-.35-.02-.35.04-.33.1-.32.15-.28.2-.25.24-.21.28-.16.3-.11.33-.06.35-.01.17v15.22l.01-.17v.35l.06.34.11.33.16.31.21.27.25.25.28.19.32.15.33.1.35.04z" style="stroke-width:.53;fill:#fff;fill-opacity:.5"/><text x="96.62" y="512.81" lengthAdjust="spacingAndGlyphs" style="font-size:5.69px;font-family:&quot;Liberation Sans&quot;" text-anchor="middle" textLength="41.99">4407 20TH ST,</text><text x="96.62" y="521" lengthAdjust="spacingAndGlyphs" style="font-size:5.69px;font-family:&quot;Liberation Sans&quot;" text-anchor="middle" textLength="64.34">MILWAUKEE, WI 53221</text></g><g clip-path="url(#cpMC4wMHw1NzYuMDB8MC4wMHw1NzYuMDA=)"><circle cx="194.24" cy="95.78" r="1.95" style="stroke-width:.71;stroke:none;fill:#f8766d"/><path d="m270.59 92.74 2.63 4.56h-5.26z" style="stroke-width:.71;stroke:none;fill:#00ba38"/><path d="M336.57 97.74h3.91v-3.91h-3.91z" style="stroke-width:.71;stroke:none;fill:#619cff"/><text x="208.36" y="98.81" lengthAdjust="spacingAndGlyphs" style="font-size:8.8px;font-family:&quot;Liberation Sans Narrow&quot;" textLength="48.12">mprop address</text><text x="284.71" y="98.81" lengthAdjust="spacingAndGlyphs" style="font-size:8.8px;font-family:&quot;Liberation Sans Narrow&quot;" textLength="39.69">owner name</text><text x="352.64" y="98.81" lengthAdjust="spacingAndGlyphs" style="font-size:8.8px;font-family:&quot;Liberation Sans Narrow&quot;" textLength="40.5">wdfi address</text><text x="32.63" y="64.23" lengthAdjust="spacingAndGlyphs" style="font-size:12px;font-family:&quot;Liberation Sans Narrow&quot;" textLength="257.7">includes 16 parcels, 28 units, and 15 distinct owner names.</text><text x="32.63" y="42.27" lengthAdjust="spacingAndGlyphs" style="font-size:18px;font-weight:700;font-family:&quot;Liberation Sans Narrow&quot;" textLength="216.53">2276 S CHASE AVE LLC Group</text></g></svg>