<svg xmlns="http://www.w3.org/2000/svg" width="768" height="768" class="svglite" viewBox="0 0 576 576"><defs><style><![CDATA[.svglite line,.svglite polyline,.svglite polygon,.svglite path,.svglite circle{fill:none;stroke:#000000;stroke-linecap:round;stroke-linejoin:round;stroke-miterlimit:10.00}.svglite text{white-space:pre}]]></style></defs><rect width="100%" height="100%" style="stroke-linecap:round;stroke-linejoin:round;stroke-miterlimit:10.00;stroke:none;fill:#FFFFFF"/><defs><clipPath id="cpMC4wMHw1NzYuMDB8MC4wMHw1NzYuMDA="><path d="M0 0h576v576H0z"/></clipPath></defs><g clip-path="url(#cpMC4wMHw1NzYuMDB8MC4wMHw1NzYuMDA=)"><path d="M0 0h576v576H0z" style="stroke-width:1.07;stroke:none;fill:#FFFFFF"/></g><defs><clipPath id="cpMzIuNjN8NTQ2LjExfDEyMC44Nnw1NDMuMzc="><path d="M32.63 120.86h513.48v422.51H32.63z"/></clipPath></defs><g clip-path="url(#cpMzIuNjN8NTQ2LjExfDEyMC44Nnw1NDMuMzc=)"><path d="m386.39 478.56-.94-1.6-.93-1.6-.94-1.6-.93-1.6-.94-1.6-.93-1.6-.94-1.6-.93-1.6-.93-1.61-.94-1.6-.93-1.6-.94-1.6-.93-1.6-.94-1.6-.93-1.6-.94-1.6-.93-1.6-.94-1.6-.93-1.6-.94-1.6-.93-1.6-.94-1.6-.93-1.61-.93-1.6-.94-1.6-.93-1.6-.94-1.6-.93-1.6-.94-1.6-.93-1.6-.94-1.6-.93-1.6-.94-1.6-.93-1.6-.94-1.6-.93-1.6-.94-1.6-.93-1.61-.94-1.6-.93-1.6-.93-1.6-.94-1.6-.93-1.6-.94-1.6-.93-1.6-.94-1.6-.93-1.6-.94-1.6-.93-1.6-.94-1.6-.93-1.6-.94-1.61-.93-1.6-.94-1.6-.93-1.6-.94-1.6-.93-1.6-.93-1.6-.94-1.6-.93-1.6-.94-1.6-.93-1.6-.94-1.6-.93-1.6-.94-1.6-.93-1.61-.94-1.6-.93-1.6-.94-1.6-.93-1.6-.94-1.6-.93-1.6-.94-1.6-.93-1.6-.93-1.6-.94-1.6-.93-1.6-.94-1.6-.93-1.6-.94-1.6-.93-1.61-.94-1.6-.93-1.6-.94-1.6-.93-1.6-.94-1.6-.93-1.6-.94-1.6-.93-1.6-.94-1.6-.93-1.6-.93-1.6-.94-1.6-.93-1.6-.94-1.61-.93-1.6-.94-1.6-.93-1.6-.94-1.6m92.54 158.47-1.74-1.38-1.74-1.39-1.74-1.38-1.74-1.39-1.75-1.38-1.74-1.39-1.74-1.38-1.74-1.38-1.74-1.39-1.74-1.38-1.74-1.39-1.74-1.38-1.74-1.39-1.74-1.38-1.74-1.39-1.74-1.38-1.74-1.38-1.74-1.39-1.74-1.38-1.74-1.39-1.74-1.38-1.75-1.39-1.74-1.38-1.74-1.39-1.74-1.38-1.74-1.38-1.74-1.39-1.74-1.38-1.74-1.39-1.74-1.38-1.74-1.39-1.74-1.38-1.74-1.38-1.74-1.39-1.74-1.38-1.74-1.39-1.74-1.38-1.75-1.39-1.74-1.38-1.74-1.39-1.74-1.38-1.74-1.38-1.74-1.39-1.74-1.38-1.74-1.39-1.74-1.38-1.74-1.39-1.74-1.38-1.74-1.39-1.74-1.38-1.74-1.38-1.74-1.39-1.74-1.38-1.75-1.39-1.74-1.38-1.74-1.39-1.74-1.38-1.74-1.39-1.74-1.38-1.74-1.38-1.74-1.39-1.74-1.38-1.74-1.39-1.74-1.38-1.74-1.39-1.74-1.38-1.74-1.38-1.74-1.39-1.74-1.38-1.74-1.39-1.75-1.38-1.74-1.39-1.74-1.38-1.74-1.39-1.74-1.38-1.74-1.38-1.74-1.39-1.74-1.38-1.74-1.39-1.74-1.38-1.74-1.39-1.74-1.38-1.74-1.39-1.74-1.38-1.74-1.38-1.74-1.39-1.75-1.38-1.74-1.39-1.74-1.38-1.74-1.39-1.74-1.38-1.74-1.39-1.74-1.38-1.74-1.38-1.74-1.39-1.74-1.38-1.74-1.39-1.74-1.38-1.74-1.39" style="stroke-width:1.07;stroke:#000000;stroke-opacity:0.10;stroke-linecap:butt"/><path d="m522.77 394.51-2.31-.75-2.31-.75-2.32-.75-2.31-.75-2.31-.75-2.31-.76-2.31-.75-2.32-.75-2.31-.75-2.31-.75-2.31-.76-2.32-.75-2.31-.75-2.31-.75-2.31-.75-2.32-.75-2.31-.76-2.31-.75-2.31-.75-2.31-.75-2.32-.75-2.31-.75-2.31-.76-2.31-.75-2.32-.75-2.31-.75-2.31-.75-2.31-.75-2.32-.76-2.31-.75-2.31-.75-2.31-.75-2.31-.75-2.32-.76-2.31-.75-2.31-.75-2.31-.75-2.32-.75-2.31-.75-2.31-.76-2.31-.75-2.32-.75-2.31-.75-2.31-.75-2.31-.75-2.31-.76-2.32-.75-2.31-.75-2.31-.75-2.31-.75-2.32-.75-2.31-.76-2.31-.75-2.31-.75-2.32-.75-2.31-.75-2.31-.76-2.31-.75-2.31-.75-2.32-.75-2.31-.75-2.31-.75-2.31-.76-2.32-.75-2.31-.75-2.31-.75-2.31-.75-2.32-.75-2.31-.76-2.31-.75-2.31-.75-2.31-.75-2.32-.75-2.31-.75-2.31-.76-2.31-.75-2.32-.75-2.31-.75-2.31-.75-2.31-.76-2.32-.75-2.31-.75-2.31-.75-2.31-.75-2.31-.75-2.32-.76-2.31-.75-2.31-.75-2.31-.75-2.32-.75-2.31-.75-2.31-.76-2.31-.75-2.32-.75-2.31-.75-2.31-.75-2.31-.75-2.32-.76-2.31-.75m151.28-176.46-1.53 1.79-1.52 1.78-1.53 1.78-1.53 1.78-1.53 1.79-1.53 1.78-1.52 1.78-1.53 1.78-1.53 1.79-1.53 1.78-1.53 1.78-1.52 1.78-1.53 1.79-1.53 1.78-1.53 1.78-1.53 1.78-1.53 1.79-1.52 1.78-1.53 1.78-1.53 1.78-1.53 1.78-1.53 1.79-1.52 1.78-1.53 1.78-1.53 1.78-1.53 1.79-1.53 1.78-1.52 1.78-1.53 1.78-1.53 1.79-1.53 1.78-1.53 1.78-1.52 1.78-1.53 1.79-1.53 1.78-1.53 1.78-1.53 1.78-1.52 1.79-1.53 1.78-1.53 1.78-1.53 1.78-1.53 1.79-1.53 1.78-1.52 1.78-1.53 1.78-1.53 1.78-1.53 1.79-1.53 1.78-1.52 1.78-1.53 1.78-1.53 1.79-1.53 1.78-1.53 1.78-1.52 1.78-1.53 1.79-1.53 1.78-1.53 1.78-1.53 1.78-1.52 1.79-1.53 1.78-1.53 1.78-1.53 1.78-1.53 1.79-1.52 1.78-1.53 1.78-1.53 1.78-1.53 1.79-1.53 1.78-1.53 1.78-1.52 1.78-1.53 1.78-1.53 1.79-1.53 1.78-1.53 1.78-1.52 1.78-1.53 1.79-1.53 1.78-1.53 1.78-1.53 1.78-1.52 1.79-1.53 1.78-1.53 1.78-1.53 1.78-1.53 1.79-1.52 1.78-1.53 1.78-1.53 1.78-1.53 1.79-1.53 1.78-1.52 1.78-1.53 1.78-1.53 1.78-1.53 1.79-1.53 1.78-1.53 1.78-1.52 1.78-1.53 1.79-1.53 1.78-1.53 1.78m-12.22-180.02.13 1.82.12 1.81.12 1.82.13 1.82.12 1.82.12 1.82.13 1.82.12 1.82.13 1.81.12 1.82.12 1.82.13 1.82.12 1.82.12 1.82.13 1.81.12 1.82.12 1.82.13 1.82.12 1.82.12 1.82.13 1.81.12 1.82.12 1.82.13 1.82.12 1.82.12 1.82.13 1.82.12 1.81.12 1.82.13 1.82.12 1.82.12 1.82.13 1.82.12 1.81.12 1.82.13 1.82.12 1.82.12 1.82.13 1.82.12 1.81.12 1.82.13 1.82.12 1.82.12 1.82.13 1.82.12 1.82.12 1.81.13 1.82.12 1.82.13 1.82.12 1.82.12 1.82.13 1.81.12 1.82.12 1.82.13 1.82.12 1.82.12 1.82.13 1.81.12 1.82.12 1.82.13 1.82.12 1.82.12 1.82.13 1.82.12 1.81.12 1.82.13 1.82.12 1.82.12 1.82.13 1.82.12 1.81.12 1.82.13 1.82.12 1.82.12 1.82.13 1.82.12 1.81.12 1.82.13 1.82.12 1.82.12 1.82.13 1.82.12 1.82.12 1.81.13 1.82.12 1.82.13 1.82.12 1.82.12 1.82.13 1.81.12 1.82.12 1.82.13 1.82.12 1.82.12 1.82.13 1.81.12 1.82.12 1.82m-12.22-180.02-.68 2.03-.68 2.04-.68 2.03-.69 2.04-.68 2.03-.68 2.04-.68 2.03-.69 2.04-.68 2.03-.68 2.03-.68 2.04-.69 2.03-.68 2.04-.68 2.03-.68 2.04-.69 2.03-.68 2.04-.68 2.03-.68 2.04-.69 2.03-.68 2.04-.68 2.03-.68 2.04-.69 2.03-.68 2.04-.68 2.03-.68 2.03-.69 2.04-.68 2.03-.68 2.04-.68 2.03-.69 2.04-.68 2.03-.68 2.04-.68 2.03-.69 2.04-.68 2.03-.68 2.04-.68 2.03-.69 2.04-.68 2.03-.68 2.04-.68 2.03-.69 2.03-.68 2.04-.68 2.03-.68 2.04-.69 2.03-.68 2.04-.68 2.03-.68 2.04-.69 2.03-.68 2.04-.68 2.03-.68 2.04-.69 2.03-.68 2.04-.68 2.03-.68 2.04-.69 2.03-.68 2.03-.68 2.04-.68 2.03-.69 2.04-.68 2.03-.68 2.04-.68 2.03-.69 2.04-.68 2.03-.68 2.04-.68 2.03-.69 2.04-.68 2.03-.68 2.04-.68 2.03-.69 2.04-.68 2.03-.68 2.04-.68 2.03-.69 2.03-.68 2.04-.68 2.03-.68 2.04-.68 2.03-.69 2.04-.68 2.03-.68 2.04-.68 2.03-.69 2.04-.68 2.03-.68 2.04-.68 2.03-.69 2.04-.68 2.03-.68 2.04-.68 2.03-.69 2.03-.68 2.04-.68 2.03" style="stroke-width:1.07;stroke:#000000;stroke-opacity:0.10;stroke-linecap:butt"/><path d="m68.8 246.36 2.28.75 2.27.74 2.27.75 2.28.74 2.27.75 2.27.74 2.28.75 2.27.74 2.27.75 2.28.74 2.27.74 2.27.75 2.27.74 2.28.75 2.27.74 2.27.75 2.28.74 2.27.75 2.27.74 2.28.75 2.27.74 2.27.75 2.28.74 2.27.75 2.27.74 2.28.75 2.27.74 2.27.75 2.28.74 2.27.74 2.27.75 2.28.74 2.27.75 2.27.74 2.28.75 2.27.74 2.27.75 2.28.74 2.27.75 2.27.74 2.28.75 2.27.74 2.27.75 2.28.74 2.27.75 2.27.74 2.27.75 2.28.74 2.27.74 2.27.75 2.28.74 2.27.75 2.27.74 2.28.75 2.27.74 2.27.75 2.28.74 2.27.75 2.27.74 2.28.75 2.27.74 2.27.75 2.28.74 2.27.75 2.27.74 2.28.75 2.27.74 2.27.74 2.28.75 2.27.74 2.27.75 2.28.74 2.27.75 2.27.74 2.28.75 2.27.74 2.27.75 2.27.74 2.28.75 2.27.74 2.27.75 2.28.74 2.27.75 2.27.74 2.28.75 2.27.74 2.27.74 2.28.75 2.27.74 2.27.75 2.28.74 2.27.75 2.27.74 2.28.75 2.27.74 2.27.75 2.28.74 2.27.75 2.27.74M68.8 246.36l1.47.96 1.47.96 1.46.97 1.47.96 1.47.96 1.47.96 1.46.96 1.47.96 1.47.96 1.47.96 1.46.96 1.47.96 1.47.97 1.47.96 1.46.96 1.47.96 1.47.96 1.46.96 1.47.96 1.47.96 1.47.96 1.46.97 1.47.96 1.47.96 1.47.96 1.46.96 1.47.96 1.47.96 1.47.96 1.46.96 1.47.96 1.47.97 1.46.96 1.47.96 1.47.96 1.47.96 1.46.96 1.47.96 1.47.96 1.47.96 1.46.96 1.47.97 1.47.96 1.47.96 1.46.96 1.47.96 1.47.96 1.46.96 1.47.96 1.47.96 1.47.96 1.46.97 1.47.96 1.47.96 1.47.96 1.46.96 1.47.96 1.47.96 1.46.96 1.47.96 1.47.96 1.47.97 1.46.96 1.47.96 1.47.96 1.47.96 1.46.96 1.47.96 1.47.96 1.47.96 1.46.97 1.47.96 1.47.96 1.46.96 1.47.96 1.47.96 1.47.96 1.46.96 1.47.96 1.47.96 1.47.97 1.46.96 1.47.96 1.47.96 1.47.96 1.46.96 1.47.96 1.47.96 1.46.96 1.47.96 1.47.97 1.47.96 1.46.96 1.47.96 1.47.96 1.47.96 1.46.96 1.47.96 1.47.96m-53.99-184.15 1.27 1.7 1.28 1.7 1.27 1.7 1.28 1.7 1.28 1.69 1.28 1.7 1.28 1.69 1.28 1.69 1.29 1.69 1.28 1.69 1.29 1.69 1.29 1.69 1.29 1.69 1.29 1.68 1.3 1.69 1.29 1.68 1.3 1.68 1.3 1.68 1.3 1.68 1.31 1.68 1.3 1.68 1.31 1.68 1.3 1.67 1.31 1.67 1.31 1.68 1.31 1.67 1.32 1.67 1.31 1.67 1.32 1.67 1.32 1.66 1.32 1.67 1.32 1.66 1.33 1.67 1.32 1.66 1.33 1.66 1.33 1.66 1.33 1.66 1.33 1.66 1.33 1.65 1.34 1.66 1.33 1.65 1.34 1.66 1.34 1.65 1.34 1.65 1.35 1.65 1.34 1.65 1.35 1.64 1.35 1.65 1.35 1.65 1.35 1.64 1.35 1.64 1.35 1.64 1.36 1.64 1.36 1.64 1.36 1.64 1.36 1.64 1.36 1.63 1.37 1.64 1.36 1.63 1.37 1.63 1.37 1.64 1.37 1.63 1.37 1.62 1.37 1.63 1.38 1.63 1.38 1.62 1.38 1.63 1.38 1.62 1.38 1.62 1.38 1.62 1.39 1.62 1.38 1.62 1.39 1.62 1.39 1.61 1.39 1.62 1.4 1.61 1.39 1.62 1.4 1.61 1.4 1.61 1.4 1.61 1.4 1.61 1.4 1.6 1.41 1.61 1.4 1.6 1.41 1.61 1.41 1.6 1.41 1.6 1.41 1.6 1.42 1.6 1.42 1.6 1.41 1.59 1.42 1.6 1.42 1.59 1.43 1.59 1.42 1.6 1.43 1.59 1.42 1.59 1.43 1.58 1.43 1.59" style="stroke-width:1.07;stroke:#000000;stroke-opacity:0.10;stroke-linecap:butt"/><path d="m160.08 157.35.46 1.89.45 1.88.46 1.88.46 1.88.47 1.88.46 1.88.47 1.88.47 1.88.47 1.88.47 1.88.47 1.88.48 1.88.48 1.87.47 1.88.49 1.88.48 1.87.48 1.88.49 1.87.49 1.88.49 1.87.49 1.88.49 1.87.5 1.87.5 1.87.5 1.88.5 1.87.5 1.87.51 1.87.5 1.87.51 1.87.51 1.87.52 1.87.51 1.86.52 1.87.51 1.87.52 1.87.52 1.86.53 1.87.52 1.86.53 1.87.53 1.86.53 1.87.53 1.86.54 1.86.53 1.86.54 1.87.54 1.86.54 1.86.54 1.86.55 1.86.55 1.86.55 1.86.55 1.86.55 1.86.55 1.85.56 1.86.56 1.86.56 1.85.56 1.86.56 1.85.57 1.86.57 1.85.57 1.86.57 1.85.57 1.86.57 1.85.58 1.85.58 1.85.58 1.85.58 1.85.59 1.85.58 1.85.59 1.85.59 1.85.59 1.85.59 1.85.6 1.85.59 1.84.6 1.85.6 1.85.6 1.84.61 1.85.6 1.84.61 1.85.61 1.84.61 1.84.62 1.85.61 1.84.62 1.84.62 1.84.62 1.84.62 1.84.62 1.84.63 1.84.63 1.84.63 1.84.63 1.84.63 1.84.64 1.83" style="stroke-width:1.07;stroke:#000000;stroke-opacity:0.10;stroke-linecap:butt"/><path d="m55.97 383.93 2.4-.64 2.4-.65 2.41-.64 2.4-.65 2.4-.64 2.41-.65 2.4-.64 2.4-.65 2.4-.64 2.41-.64 2.4-.65 2.4-.64 2.41-.65 2.4-.64 2.4-.65 2.4-.64 2.41-.65 2.4-.64 2.4-.65 2.41-.64 2.4-.65 2.4-.64 2.4-.65 2.41-.64 2.4-.65 2.4-.64 2.41-.65 2.4-.64 2.4-.65 2.4-.64 2.41-.65 2.4-.64 2.4-.65 2.41-.64 2.4-.65 2.4-.64 2.4-.65 2.41-.64 2.4-.65 2.4-.64 2.41-.65 2.4-.64 2.4-.65 2.4-.64 2.41-.65 2.4-.64 2.4-.65 2.41-.64 2.4-.64 2.4-.65 2.4-.64 2.41-.65 2.4-.64 2.4-.65 2.41-.64 2.4-.65 2.4-.64 2.4-.65 2.41-.64 2.4-.65 2.4-.64 2.41-.65 2.4-.64 2.4-.65 2.4-.64 2.41-.65 2.4-.64 2.4-.65 2.41-.64 2.4-.65 2.4-.64 2.4-.65 2.41-.64 2.4-.65 2.4-.64 2.41-.65 2.4-.64 2.4-.65 2.41-.64 2.4-.65 2.4-.64 2.4-.65 2.41-.64 2.4-.65 2.4-.64 2.41-.64 2.4-.65 2.4-.64 2.4-.65 2.41-.64 2.4-.65 2.4-.64 2.41-.65 2.4-.64 2.4-.65 2.4-.64 2.41-.65 2.4-.64 2.4-.65" style="stroke-width:1.07;stroke:#000000;stroke-opacity:0.10;stroke-linecap:butt"/><path d="m55.97 383.93 1.59-.42 1.6-.43 1.6-.43 1.6-.43 1.59-.43 1.6-.43 1.6-.43 1.59-.42 1.6-.43 1.6-.43 1.59-.43 1.6-.43 1.6-.43 1.6-.43 1.59-.43 1.6-.42 1.6-.43 1.59-.43 1.6-.43 1.6-.43 1.59-.43 1.6-.43 1.6-.42 1.6-.43 1.59-.43 1.6-.43 1.6-.43 1.59-.43 1.6-.43 1.6-.42 1.59-.43 1.6-.43 1.6-.43 1.59-.43 1.6-.43 1.6-.43 1.6-.42 1.59-.43 1.6-.43 1.6-.43 1.59-.43 1.6-.43 1.6-.43 1.59-.42 1.6-.43 1.6-.43 1.6-.43 1.59-.43 1.6-.43 1.6-.43 1.59-.42 1.6-.43 1.6-.43 1.59-.43 1.6-.43 1.6-.43 1.59-.43 1.6-.42 1.6-.43 1.6-.43 1.59-.43 1.6-.43 1.6-.43 1.59-.43 1.6-.42 1.6-.43 1.59-.43 1.6-.43 1.6-.43 1.6-.43 1.59-.43 1.6-.42 1.6-.43 1.59-.43 1.6-.43 1.6-.43 1.59-.43 1.6-.43 1.6-.42 1.6-.43 1.59-.43 1.6-.43 1.6-.43 1.59-.43 1.6-.43 1.6-.42 1.59-.43 1.6-.43 1.6-.43 1.59-.43 1.6-.43 1.6-.43 1.6-.42 1.59-.43 1.6-.43 1.6-.43 1.59-.43 1.6-.43 1.6-.43m59.53 182.67.2-2.06.21-2.07.2-2.06.21-2.06.2-2.06.21-2.06.2-2.06.21-2.06.2-2.06.21-2.07.2-2.06.2-2.06.21-2.06.2-2.06.21-2.06.2-2.06.21-2.07.2-2.06.21-2.06.2-2.06.21-2.06.2-2.06.2-2.06.21-2.07.2-2.06.21-2.06.2-2.06.21-2.06.2-2.06.21-2.06.2-2.07.21-2.06.2-2.06.21-2.06.2-2.06.2-2.06.21-2.06.2-2.06.21-2.07.2-2.06.21-2.06.2-2.06.21-2.06.2-2.06.21-2.06.2-2.07.2-2.06.21-2.06.2-2.06.21-2.06.2-2.06.21-2.06.2-2.07.21-2.06.2-2.06.21-2.06.2-2.06.21-2.06.2-2.06.2-2.06.21-2.07.2-2.06.21-2.06.2-2.06.21-2.06.2-2.06.21-2.06.2-2.07.21-2.06.2-2.06.2-2.06.21-2.06.2-2.06.21-2.06.2-2.07.21-2.06.2-2.06.21-2.06.2-2.06.21-2.06.2-2.06.2-2.06.21-2.07.2-2.06.21-2.06.2-2.06.21-2.06.2-2.06.21-2.06.2-2.07.21-2.06.2-2.06.21-2.06.2-2.06.2-2.06.21-2.06.2-2.07.21-2.06.2-2.06M273.6 524.17l-.6-1.85-.6-1.84-.6-1.85-.61-1.84-.6-1.85-.6-1.84-.6-1.85-.6-1.84-.6-1.85-.6-1.84-.6-1.85-.61-1.84-.6-1.85-.6-1.84-.6-1.85-.6-1.84-.6-1.85-.6-1.84-.61-1.85-.6-1.84-.6-1.85-.6-1.84-.6-1.85-.6-1.84-.6-1.85-.6-1.84-.61-1.85-.6-1.85-.6-1.84-.6-1.85-.6-1.84-.6-1.85-.6-1.84-.61-1.85-.6-1.84-.6-1.85-.6-1.84-.6-1.85-.6-1.84-.6-1.85-.61-1.84-.6-1.85-.6-1.84-.6-1.85-.6-1.84-.6-1.85-.6-1.84-.6-1.85-.61-1.84-.6-1.85-.6-1.84-.6-1.85-.6-1.84-.6-1.85-.6-1.84-.61-1.85-.6-1.84-.6-1.85-.6-1.84-.6-1.85-.6-1.84-.6-1.85-.6-1.84-.61-1.85-.6-1.84-.6-1.85-.6-1.84-.6-1.85-.6-1.84-.6-1.85-.61-1.84-.6-1.85-.6-1.84-.6-1.85-.6-1.84-.6-1.85-.6-1.84-.6-1.85-.61-1.84-.6-1.85-.6-1.84-.6-1.85-.6-1.84-.6-1.85-.6-1.84-.61-1.85-.6-1.85-.6-1.84-.6-1.85-.6-1.84-.6-1.85-.6-1.84-.6-1.85-.61-1.84-.6-1.85-.6-1.84-.6-1.85-.6-1.84-.6-1.85" style="stroke-width:1.07;stroke:#000000;stroke-opacity:0.10;stroke-linecap:butt"/><path d="m145.45 494.04 1.5-1.75 1.5-1.76 1.5-1.76 1.5-1.75 1.5-1.76 1.5-1.76 1.5-1.75 1.5-1.76 1.49-1.76 1.5-1.76 1.5-1.75 1.5-1.76 1.5-1.76 1.5-1.75 1.5-1.76 1.5-1.76 1.5-1.76 1.49-1.75 1.5-1.76 1.5-1.76 1.5-1.75 1.5-1.76 1.5-1.76 1.5-1.76 1.5-1.75 1.5-1.76 1.5-1.76 1.49-1.75 1.5-1.76 1.5-1.76 1.5-1.76 1.5-1.75 1.5-1.76 1.5-1.76 1.5-1.75 1.5-1.76 1.5-1.76 1.49-1.76 1.5-1.75 1.5-1.76 1.5-1.76 1.5-1.75 1.5-1.76 1.5-1.76 1.5-1.75 1.5-1.76 1.5-1.76 1.49-1.76 1.5-1.75 1.5-1.76 1.5-1.76 1.5-1.75 1.5-1.76 1.5-1.76 1.5-1.76 1.5-1.75 1.5-1.76 1.49-1.76 1.5-1.75 1.5-1.76 1.5-1.76 1.5-1.76 1.5-1.75 1.5-1.76 1.5-1.76 1.5-1.75 1.5-1.76 1.49-1.76 1.5-1.76 1.5-1.75 1.5-1.76 1.5-1.76 1.5-1.75 1.5-1.76 1.5-1.76 1.5-1.75 1.49-1.76 1.5-1.76 1.5-1.76 1.5-1.75 1.5-1.76 1.5-1.76 1.5-1.75 1.5-1.76 1.5-1.76 1.5-1.76 1.49-1.75 1.5-1.76 1.5-1.76 1.5-1.75 1.5-1.76 1.5-1.76 1.5-1.76 1.5-1.75 1.5-1.76 1.5-1.76 1.49-1.75 1.5-1.76 1.5-1.76m-148.4 173.95.7-1.54.69-1.54.69-1.54.7-1.54.69-1.54.69-1.54.69-1.54.7-1.54.69-1.54.69-1.54.7-1.54.69-1.54.69-1.55.7-1.54.69-1.54.69-1.54.7-1.54.69-1.54.69-1.54.69-1.54.7-1.54.69-1.54.69-1.54.7-1.54.69-1.55.69-1.54.7-1.54.69-1.54.69-1.54.7-1.54.69-1.54.69-1.54.69-1.54.7-1.54.69-1.54.69-1.54.7-1.55.69-1.54.69-1.54.7-1.54.69-1.54.69-1.54.7-1.54.69-1.54.69-1.54.69-1.54.7-1.54.69-1.54.69-1.55.7-1.54.69-1.54.69-1.54.7-1.54.69-1.54.69-1.54.7-1.54.69-1.54.69-1.54.69-1.54.7-1.54.69-1.55.69-1.54.7-1.54.69-1.54.69-1.54.7-1.54.69-1.54.69-1.54.7-1.54.69-1.54.69-1.54.69-1.54.7-1.54.69-1.55.69-1.54.7-1.54.69-1.54.69-1.54.7-1.54.69-1.54.69-1.54.7-1.54.69-1.54.69-1.54.69-1.54.7-1.55.69-1.54.69-1.54.7-1.54.69-1.54.69-1.54.7-1.54.69-1.54.69-1.54.7-1.54.69-1.54.69-1.54.69-1.55.7-1.54m231.12-62.02-1.52.41-1.53.41-1.53.41-1.53.41-1.53.41-1.53.41-1.53.41-1.53.41-1.52.41-1.53.41-1.53.41-1.53.41-1.53.41-1.53.41-1.53.41-1.53.41-1.52.41-1.53.41-1.53.41-1.53.41-1.53.41-1.53.41-1.53.41-1.52.41-1.53.41-1.53.41-1.53.41-1.53.41-1.53.41-1.53.41-1.53.41-1.52.41-1.53.41-1.53.41-1.53.41-1.53.42-1.53.41-1.53.41-1.53.41-1.52.41-1.53.41-1.53.41-1.53.41-1.53.41-1.53.41-1.53.41-1.52.41-1.53.41-1.53.41-1.53.41-1.53.41-1.53.41-1.53.41-1.53.41-1.52.41-1.53.41-1.53.41-1.53.41-1.53.41-1.53.41-1.53.41-1.53.41-1.52.41-1.53.41-1.53.41-1.53.41-1.53.41-1.53.41-1.53.41-1.53.41-1.52.41-1.53.41-1.53.41-1.53.42-1.53.41-1.53.41-1.53.41-1.52.41-1.53.41-1.53.41-1.53.41-1.53.41-1.53.41-1.53.41-1.53.41-1.52.41-1.53.41-1.53.41-1.53.41-1.53.41-1.53.41-1.53.41-1.53.41-1.52.41-1.53.41-1.53.41-1.53.41-1.53.41-1.53.41" style="stroke-width:1.07;stroke:#000000;stroke-opacity:0.10;stroke-linecap:butt"/><path d="m445.19 279.48-2.33.62-2.34.63-2.33.63-2.33.62-2.34.63-2.33.62-2.34.63-2.33.63-2.34.62-2.33.63-2.34.63-2.33.62-2.34.63-2.33.63-2.34.62-2.33.63-2.33.63-2.34.62-2.33.63-2.34.63-2.33.62-2.34.63-2.33.63-2.34.62-2.33.63-2.34.63-2.33.62-2.33.63-2.34.63-2.33.62-2.34.63-2.33.63-2.34.62-2.33.63-2.34.62-2.33.63-2.34.63-2.33.62-2.34.63-2.33.63-2.33.62-2.34.63-2.33.63-2.34.62-2.33.63-2.34.63-2.33.62-2.34.63-2.33.63-2.34.62-2.33.63-2.34.63-2.33.62-2.33.63-2.34.63-2.33.62-2.34.63-2.33.63-2.34.62-2.33.63-2.34.63-2.33.62-2.34.63-2.33.62-2.34.63-2.33.63-2.33.62-2.34.63-2.33.63-2.34.62-2.33.63-2.34.63-2.33.62-2.34.63-2.33.63-2.34.62-2.33.63-2.34.63-2.33.62-2.33.63-2.34.63-2.33.62-2.34.63-2.33.63-2.34.62-2.33.63-2.34.63-2.33.62-2.34.63-2.33.62-2.34.63-2.33.63-2.33.62-2.34.63-2.33.63-2.34.62-2.33.63-2.34.63-2.33.62" style="stroke-width:1.07;stroke:#000000;stroke-opacity:0.10;stroke-linecap:butt"/><path d="m160.08 157.35 1.43 1.59 1.43 1.59 1.43 1.59 1.42 1.59 1.43 1.59 1.42 1.59 1.42 1.6 1.42 1.59 1.42 1.6 1.41 1.6 1.42 1.6 1.41 1.6 1.41 1.6 1.41 1.6 1.41 1.6 1.41 1.61 1.4 1.6 1.41 1.61 1.4 1.61 1.4 1.61 1.39 1.61 1.4 1.61 1.4 1.61 1.39 1.61 1.39 1.62 1.39 1.62 1.39 1.61 1.39 1.62 1.38 1.62 1.39 1.62 1.38 1.62 1.38 1.63 1.38 1.62 1.37 1.63 1.38 1.62 1.37 1.63 1.38 1.63 1.37 1.63 1.37 1.63 1.36 1.63 1.37 1.64 1.36 1.63 1.37 1.64 1.36 1.63 1.36 1.64 1.35 1.64 1.36 1.64 1.35 1.64 1.36 1.64 1.35 1.65 1.35 1.64 1.35 1.65 1.34 1.65 1.35 1.65 1.34 1.64 1.34 1.66 1.34 1.65 1.34 1.65 1.34 1.65 1.33 1.66 1.33 1.66 1.34 1.65 1.33 1.66 1.33 1.66 1.32 1.66 1.33 1.67 1.32 1.66 1.32 1.67 1.32 1.66 1.32 1.67 1.32 1.67 1.32 1.67 1.31 1.67 1.31 1.67 1.31 1.67 1.31 1.67 1.31 1.68 1.3 1.67 1.31 1.68 1.3 1.68 1.3 1.68 1.3 1.68 1.3 1.68 1.3 1.69 1.29 1.68 1.29 1.69 1.29 1.68 1.29 1.69 1.29 1.69 1.29 1.69 1.28 1.69 1.29 1.69 1.28 1.7 1.28 1.69 1.28 1.7 1.27 1.69 1.28 1.7 1.27 1.7 1.27 1.7M160.08 157.35l.64 1.84.63 1.84.63 1.84.63 1.83.63 1.84.62 1.84.63 1.84.62 1.84.62 1.84.62 1.85.62 1.84.61 1.84.62 1.84.61 1.85.61 1.84.6 1.84.61 1.85.6 1.84.61 1.85.6 1.85.6 1.84.59 1.85.6 1.85.59 1.85.59 1.84.59 1.85.59 1.85.58 1.85.59 1.85.58 1.85.58 1.85.58 1.86.57 1.85.58 1.85.57 1.85.57 1.86.57 1.85.57 1.86.56 1.85.57 1.86.56 1.85.56 1.86.56 1.86.55 1.85.56 1.86.55 1.86.55 1.86.55 1.86.55 1.86.54 1.86.55 1.86.54 1.86.54 1.86.54 1.86.53 1.86.54 1.87.53 1.86.53 1.86.53 1.87.53 1.86.52 1.87.52 1.86.53 1.87.52 1.87.51 1.86.52 1.87.51 1.87.52 1.87.51 1.87.51 1.87.5 1.87.51 1.87.5 1.87.5 1.87.5 1.87.5 1.87.49 1.88.5 1.87.49 1.87.49 1.88.49 1.87.49 1.88.48 1.87.48 1.88.48 1.87.48 1.88.48 1.88.48 1.88.47 1.88.47 1.87.47 1.88.47 1.88.47 1.88.46 1.88.46 1.88.47 1.89.45 1.88.46 1.88.46 1.88" style="stroke-width:1.07;stroke:#000000;stroke-opacity:0.10;stroke-linecap:butt"/><path d="m214.07 341.5.91.13.91.11.9.11.91.1.9.09.9.09.9.08.89.07.89.07.9.06.88.05.89.05.89.03.88.04.88.02.88.02.87.01H231l.87-.01.87-.01.86-.03.87-.03.86-.03.86-.05.86-.05.85-.06.85-.06.85-.07.85-.08.85-.09.84-.09.85-.1.84-.1.83-.12.84-.12.83-.12.83-.14.83-.14.83-.15.83-.15.82-.16.82-.17.82-.17.81-.19.82-.18.81-.2.81-.2.81-.21.81-.22.8-.22.8-.23.8-.24.8-.24.79-.25.8-.26.79-.27.79-.27.78-.27.79-.29.78-.29.78-.3.78-.31.77-.31.78-.32.77-.33.77-.33.77-.34.76-.35.77-.35.76-.36.76-.37.75-.37.76-.39.75-.39.75-.39.75-.4.75-.41.74-.42.74-.42.74-.43.74-.44.73-.44.74-.45.73-.46.73-.46.72-.48.73-.47.72-.49.72-.49.72-.5.72-.51.71-.51.71-.52.71-.52.71-.54.71-.54.7-.54.7-.56" style="stroke-width:1.07;stroke:#000000;stroke-opacity:0.10;stroke-linecap:butt"/><path d="m214.07 341.5.89.06.88.05.89.04.89.04.88.03.88.02.88.03.88.01.87.01h2.62l.87-.02.87-.01.86-.03.87-.03.86-.03.86-.04.86-.05.85-.05.86-.05.85-.06.85-.07.86-.07.84-.08.85-.09.85-.09.84-.09.84-.1.84-.11.84-.11.84-.12.83-.12.83-.13.84-.13.83-.14.82-.14.83-.16.82-.15.83-.16.82-.17.82-.17.82-.18.81-.18.82-.19.81-.19.81-.2.81-.21.81-.21.8-.22.81-.22.8-.23.8-.23.8-.24.8-.24.79-.25.8-.25.79-.27.79-.26.79-.27.79-.28.78-.28.78-.29.79-.29.78-.3.78-.31.77-.31.78-.31.77-.32.77-.33.77-.33.77-.34.77-.34.76-.35.77-.36.76-.36.76-.36.76-.37.75-.38.76-.38.75-.39.75-.39.75-.4.75-.4.75-.41.74-.41.74-.42.74-.43.74-.43.74-.44.74-.44.73-.45.73-.45.73-.46.73-.47.73-.47.73-.47.72-.48.72-.49" style="stroke-width:1.07;stroke:#000000;stroke-opacity:0.10;stroke-linecap:butt"/><path d="m214.07 341.5.87-.01.86-.02.87-.02.86-.03.87-.03.86-.03.86-.04.86-.04.86-.05.86-.05.85-.05.86-.06.85-.07.85-.06.85-.08.85-.07.85-.08.85-.08.84-.09.85-.1.84-.09.84-.1.84-.11.84-.11.84-.11.84-.12.83-.12.84-.12.83-.13.83-.13.83-.14.83-.14.83-.15.82-.15.83-.15.82-.16.82-.17.83-.16.82-.17.81-.18.82-.18.82-.18.81-.19.82-.19.81-.19.81-.2.81-.21.81-.21.8-.21.81-.21.81-.23.8-.22.8-.23.8-.23.8-.24.8-.24.8-.24.79-.25.8-.26.79-.26.79-.26.79-.26.79-.27.79-.28.79-.28.78-.28.79-.28.78-.3.78-.29.78-.3.78-.3.78-.31.77-.31.78-.32.77-.32.78-.32.77-.33.77-.33.77-.34.76-.34.77-.34.76-.35.77-.35.76-.36.76-.36.76-.37.76-.36.76-.38.75-.38.76-.38.75-.38.75-.39.75-.4.75-.4.75-.4.75-.4.74-.41.75-.42.74-.42" style="stroke-width:1.07;stroke:#000000;stroke-opacity:0.10;stroke-linecap:butt"/><path d="m214.07 341.5.85-.08.84-.08.85-.09.84-.09.85-.09.84-.09.84-.1.85-.1.84-.11.84-.1.84-.11.83-.11.84-.12.84-.11.83-.12.84-.13.83-.12.84-.13.83-.13.83-.13.83-.14.83-.14.83-.14.83-.15.82-.14.83-.15.83-.16.82-.15.82-.16.83-.16.82-.17.82-.16.82-.17.82-.17.82-.18.82-.18.81-.18.82-.18.82-.19.81-.18.81-.2.82-.19.81-.2.81-.2.81-.2.81-.2.81-.21.81-.21.8-.22.81-.21.8-.22.81-.22.8-.23.8-.23.8-.23.81-.23.8-.23.79-.24.8-.24.8-.25.8-.24.79-.25.8-.26.79-.25.79-.26.8-.26.79-.26.79-.27.79-.27.79-.27.79-.27.78-.28.79-.28.78-.28.79-.29.78-.28.79-.3.78-.29.78-.29.78-.3.78-.31.78-.3.77-.31.78-.31.78-.31.77-.32.78-.31.77-.32.77-.33.77-.33.78-.32.77-.34.77-.33.76-.34.77-.34.77-.34.76-.35.77-.35.76-.35" style="stroke-width:1.07;stroke:#000000;stroke-opacity:0.10;stroke-linecap:butt"/><path d="m214.07 341.5.82-.14.83-.15.83-.16.82-.15.83-.15.82-.16.83-.16.82-.15.82-.16.83-.17.82-.16.82-.16.82-.17.82-.16.82-.17.83-.17.82-.17.81-.17.82-.18.82-.17.82-.18.82-.18.82-.18.81-.18.82-.18.82-.18.81-.19.82-.18.81-.19.82-.19.81-.19.81-.19.82-.19.81-.2.81-.19.81-.2.82-.2.81-.2.81-.2.81-.2.81-.2.81-.21.81-.21.8-.2.81-.21.81-.21.81-.22.8-.21.81-.22.81-.21.8-.22.81-.22.8-.22.8-.22.81-.22.8-.23.81-.22.8-.23.8-.23.8-.23.8-.23.8-.23.8-.24.8-.23.8-.24.8-.24.8-.24.8-.24.8-.24.79-.25.8-.24.8-.25.79-.25.8-.25.79-.25.8-.25.79-.25.8-.26.79-.25.79-.26.8-.26.79-.26.79-.26.79-.27.79-.26.79-.27.79-.26.79-.27.79-.27.79-.27.79-.28.79-.27.79-.28.78-.27.79-.28.79-.28.78-.28.79-.28.78-.29" style="stroke-width:1.07;stroke:#000000;stroke-opacity:0.10;stroke-linecap:butt"/><path d="m214.07 341.5.8-.21.81-.22.81-.21.8-.22.81-.22.8-.21.81-.22.8-.22.81-.21.81-.22.8-.22.81-.21.8-.22.81-.21.81-.22.8-.22.81-.21.8-.22.81-.22.81-.21.8-.22.81-.21.8-.22.81-.22.81-.21.8-.22.81-.22.8-.21.81-.22.8-.21.81-.22.81-.22.8-.21.81-.22.8-.22.81-.21.81-.22.8-.21.81-.22.8-.22.81-.21.81-.22.8-.22.81-.21.8-.22.81-.22.81-.21.8-.22.81-.21.8-.22.81-.22.8-.21.81-.22.81-.22.8-.21.81-.22.8-.21.81-.22.81-.22.8-.21.81-.22.8-.22.81-.21.81-.22.8-.21.81-.22.8-.22.81-.21.81-.22.8-.22.81-.21.8-.22.81-.21.8-.22.81-.22.81-.21.8-.22.81-.22.8-.21.81-.22.81-.22.8-.21.81-.22.8-.21.81-.22.81-.22.8-.21.81-.22.8-.22.81-.21.81-.22.8-.21.81-.22.8-.22.81-.21.8-.22.81-.22.81-.21.8-.22" style="stroke-width:1.07;stroke:#000000;stroke-opacity:0.10;stroke-linecap:butt"/><path d="m214.07 341.5.78-.28.79-.28.78-.28.79-.28.79-.28.78-.28.79-.27.79-.28.79-.27.79-.27.79-.27.79-.27.79-.27.79-.26.79-.27.79-.26.79-.26.79-.26.8-.26.79-.26.79-.26.8-.25.79-.26.8-.25.79-.25.8-.25.79-.25.8-.24.8-.25.79-.24.8-.24.8-.24.8-.24.8-.24.8-.24.8-.24.8-.23.8-.23.8-.23.8-.23.8-.23.81-.23.8-.23.8-.22.81-.22.8-.23.8-.22.81-.21.8-.22.81-.22.81-.21.8-.22.81-.21.81-.21.81-.21.8-.21.81-.2.81-.21.81-.2.81-.21.81-.2.81-.2.82-.2.81-.19.81-.2.81-.19.82-.19.81-.2.81-.19.82-.18.81-.19.82-.19.81-.18.82-.19.82-.18.81-.18.82-.18.82-.18.82-.17.82-.18.82-.17.81-.17.82-.17.83-.17.82-.17.82-.17.82-.16.82-.17.82-.16.83-.16.82-.16.82-.16.83-.16.82-.15.83-.15.82-.16.83-.15.83-.15.82-.15" style="stroke-width:1.07;stroke:#000000;stroke-opacity:0.10;stroke-linecap:butt"/><path d="m214.07 341.5.76-.35.77-.35.76-.34.77-.34.77-.35.77-.33.76-.34.77-.33.78-.33.77-.33.77-.32.77-.32.78-.32.77-.31.78-.32.78-.31.77-.3.78-.31.78-.3.78-.3.78-.3.79-.29.78-.29.78-.29.79-.28.78-.29.79-.28.79-.27.78-.28.79-.27.79-.27.79-.26.79-.27.8-.26.79-.25.79-.26.8-.25.79-.25.8-.25.8-.24.8-.24.79-.24.8-.24.81-.23.8-.23.8-.23.8-.22.81-.22.8-.22.81-.22.8-.21.81-.21.81-.21.81-.2.81-.21.81-.2.81-.19.82-.2.81-.19.81-.19.82-.18.82-.19.81-.18.82-.18.82-.17.82-.17.82-.17.82-.17.82-.16.83-.16.82-.16.82-.16.83-.15.83-.15.82-.15.83-.14.83-.14.83-.14.83-.14.83-.13.83-.13.84-.13.83-.13.84-.12.83-.12.84-.12.84-.11.83-.11.84-.11.84-.11.84-.1.85-.1.84-.1.84-.09.85-.1.84-.09.85-.08.84-.09.85-.08" style="stroke-width:1.07;stroke:#000000;stroke-opacity:0.10;stroke-linecap:butt"/><path d="m214.07 341.5.74-.41.75-.42.74-.41.75-.41.75-.4.75-.4.75-.39.75-.39.75-.39.76-.38.75-.38.76-.37.76-.37.76-.36.76-.37.76-.35.77-.35.76-.35.77-.35.76-.34.77-.33.77-.34.78-.32.77-.33.77-.32.78-.31.77-.31.78-.31.78-.31.78-.29.78-.3.78-.29.79-.29.78-.28.79-.28.79-.27.79-.27.79-.27.79-.26.79-.26.8-.25.79-.25.8-.24.8-.25.8-.23.8-.24.8-.22.8-.23.81-.22.81-.22.8-.21.81-.21.81-.2.81-.2.81-.2.82-.19.81-.18.82-.19.82-.18.81-.17.82-.17.83-.17.82-.16.82-.16.83-.15.82-.15.83-.15.83-.14.83-.14.83-.13.84-.13.83-.13.83-.12.84-.12.84-.11.84-.11.84-.1.84-.1.84-.1.85-.09.84-.09.85-.08.85-.08.85-.08.85-.07.85-.07.85-.06.86-.06.85-.06.86-.05.86-.04.86-.05.86-.03.86-.04.87-.03.86-.02.87-.03.86-.01.87-.02" style="stroke-width:1.07;stroke:#000000;stroke-opacity:0.10;stroke-linecap:butt"/><path d="m214.07 341.5.72-.48.72-.48.73-.48.73-.47.73-.46.73-.46.73-.46.73-.44.74-.45.74-.43.74-.43.74-.43.74-.42.75-.41.74-.41.75-.41.75-.4.75-.39.75-.39.76-.38.75-.37.76-.37.76-.37.76-.36.77-.35.76-.35.77-.34.77-.34.77-.33.77-.33.77-.32.78-.32.77-.31.78-.3.78-.3.79-.29.78-.29.78-.28.79-.28.79-.27.79-.27.79-.26.8-.25.79-.25.8-.25.8-.24.8-.23.8-.23.81-.22.8-.21.81-.21.81-.21.81-.2.81-.19.82-.19.81-.19.82-.17.82-.18.82-.16.83-.16.82-.16.83-.15.83-.14.82-.14.84-.14.83-.12.83-.13.84-.11.84-.12.84-.1.84-.1.84-.1.85-.09.85-.08.85-.08.85-.07.85-.07.85-.06.86-.06.85-.05.86-.04.86-.04.87-.04.86-.03.86-.02.87-.02.87-.01.87-.01h.87l.88.01.87.01.88.01.88.02.88.03.88.03.89.04.89.04.88.05.89.05" style="stroke-width:1.07;stroke:#000000;stroke-opacity:0.10;stroke-linecap:butt"/><path d="m214.07 341.5.7-.55.7-.55.71-.54.71-.53.71-.53.71-.52.71-.51.72-.5.72-.5.72-.5.72-.48.73-.48.72-.47.73-.46.73-.46.74-.45.73-.45.74-.43.74-.43.74-.43.75-.41.74-.41.75-.4.75-.4.75-.39.76-.38.75-.37.76-.37.76-.36.77-.36.76-.34.77-.34.77-.34.77-.32.78-.32.77-.32.78-.3.78-.3.78-.29.79-.29.78-.28.79-.27.79-.26.8-.26.79-.25.8-.25.8-.23.8-.23.8-.23.81-.21.81-.21.81-.2.81-.2.82-.19.81-.18.82-.18.82-.16.82-.16.83-.16.83-.15.83-.14.83-.13.83-.13.84-.12.84-.11.84-.11.84-.09.84-.1.85-.08.85-.08.85-.07.85-.07.86-.05.85-.06.86-.04.86-.04.87-.03.86-.02.87-.02.87-.01h.87l.88.01.87.01.88.01.88.03.88.03.89.04.89.05.88.05.9.06.89.06.89.08.9.08.9.08.9.1.91.1.9.11.91.11.91.12" style="stroke-width:1.07;stroke:#000000;stroke-opacity:0.10;stroke-linecap:butt"/><path d="m386.39 476.35 1.91 3.32h-3.83zm136.38-84.05 1.92 3.32h-3.83zm-77.64-250.88 1.92 3.32h-3.83zm-163.5-3.56 1.92 3.31h-3.83zM68.8 244.15l1.92 3.32h-3.83zm91.28-91.63 4.19 7.25h-8.37zM55.97 381.72l1.91 3.32h-3.83zM273.6 521.96l1.91 3.31h-3.82zm-128.15-30.13 1.92 3.32h-3.83zm299.74-214.56 1.92 3.31h-3.83z" style="stroke-width:0.71;stroke:none;fill:#00BA38"/><path d="M207.87 347.7h12.39v-12.39h-12.39z" style="stroke-width:0.71;stroke:none;fill:#619CFF"/><circle cx="293.85" cy="320.09" r="6.76" style="stroke-width:0.71;stroke:none;fill:#F8766D"/><path d="m381.26 483.19 4.27-3.86m54.45-331.05 4.29-3.87m-167.8.32 4.31-3.89M74.37 241.71l-4.67 3.91m95.51-92.89-4.27 3.85M60.84 383.54l-3.6.29m211.82 147.62 3.96-6.35m-132.81-26.31 4.39-3.97m305.75-220-4.3 3.88m-226.66 58.21-4.44 3.84m84.27-16.02-4.49-3.88" style="stroke-width:0.53;stroke:#BFBFBF"/><path d="M345.1 494.53h57.51-.09l.35-.01.34-.07.32-.13.3-.17.27-.22.23-.26.19-.29.14-.32.08-.34.03-.35h0v-7.02h0l-.03-.35-.08-.34-.14-.32-.19-.29-.23-.26-.27-.22-.3-.18-.32-.12-.34-.07-.26-.01H345.1l.26.01-.35-.01-.34.04-.34.1-.31.14-.29.2-.25.24-.21.28-.16.31-.11.33-.05.34-.01.18v7.02l.01-.17v.35l.05.34.11.33.16.31.21.27.25.25.29.19.31.15.34.1.34.04z" style="stroke-width:0.53;fill:#FFFFFF;fill-opacity:0.50"/><text x="373.85" y="490.93" lengthAdjust="spacingAndGlyphs" style="font-size:5.69px;font-family:&quot;Liberation Sans&quot;" text-anchor="middle" textLength="54.63">5011 67TH JTN LLC</text><path d="M455.51 403.26h60.34l-.08-.01.35-.01.34-.07.32-.12.3-.18.27-.22.23-.26.19-.29.13-.32.09-.34.02-.34h0v-15.23h0l-.02-.34-.09-.34-.13-.32-.19-.29-.23-.26-.27-.22-.3-.18-.32-.12-.34-.07-.27-.02h-60.34l.26.02-.35-.01-.34.04-.33.09-.32.15-.28.2-.26.24-.2.28-.17.31-.11.33-.05.34-.01.17v15.23l.01-.18v.35l.05.34.11.33.17.31.2.28.26.24.28.2.32.14.33.1.34.04z" style="stroke-width:0.53;fill:#FFFFFF;fill-opacity:0.50"/><text x="485.68" y="391.46" lengthAdjust="spacingAndGlyphs" style="font-size:5.69px;font-family:&quot;Liberation Sans&quot;" text-anchor="middle" textLength="57.46">4604 N 24TH ST JTN</text><text x="485.68" y="399.66" lengthAdjust="spacingAndGlyphs" style="font-size:5.69px;font-family:&quot;Liberation Sans&quot;" text-anchor="middle" textLength="10.31">LLC</text><path d="M403.85 159.63h57.51-.09l.35-.01.34-.07.33-.13.3-.17.27-.22.23-.26.18-.29.14-.32.08-.34.03-.35h0v-7.03h0l-.03-.34-.08-.34-.14-.32-.18-.29-.23-.26-.27-.22-.3-.18-.33-.12-.34-.07-.26-.02h-57.51l.26.02-.34-.01-.35.04-.33.09-.32.15-.28.2-.25.24-.21.28-.16.31-.11.33-.06.34-.01.17v7.03l.01-.17v.35l.06.34.11.33.16.31.21.27.25.24.28.2.32.15.33.1.35.04z" style="stroke-width:0.53;fill:#FFFFFF;fill-opacity:0.50"/><text x="432.61" y="156.03" lengthAdjust="spacingAndGlyphs" style="font-size:5.69px;font-family:&quot;Liberation Sans&quot;" text-anchor="middle" textLength="54.63">4604 24TH JTN LLC</text><path d="M240.3 156.07h57.5-.08l.35-.01.34-.07.32-.12.3-.18.27-.22.23-.26.19-.29.13-.32.09-.34.02-.35h0v-7.02h0l-.02-.35-.09-.34-.13-.32-.19-.29-.23-.26-.27-.22-.3-.17-.32-.13-.34-.07-.27-.01h-57.5l.26.01-.35-.01-.34.04-.34.1-.31.15-.29.19-.25.24-.21.28-.16.31-.11.33-.05.34-.01.18v7.02l.01-.17v.35l.05.34.11.33.16.31.21.28.25.24.29.19.31.15.34.1.34.04z" style="stroke-width:0.53;fill:#FFFFFF;fill-opacity:0.50"/><text x="269.05" y="152.47" lengthAdjust="spacingAndGlyphs" style="font-size:5.69px;font-family:&quot;Liberation Sans&quot;" text-anchor="middle" textLength="54.63">4374 50TH JTN LLC</text><path d="M66.69 241.71h67.26-.09l.35-.01.34-.07.33-.13.3-.17.27-.22.23-.26.18-.29.14-.32.08-.34.03-.35h0v-7.03h0l-.03-.34-.08-.34-.14-.32-.18-.29-.23-.26-.27-.22-.3-.18-.33-.12-.34-.07-.26-.02H66.69l.26.02-.35-.01-.34.04-.34.09-.31.15-.29.2-.25.24-.21.28-.16.31-.11.33-.05.34-.01.17v7.03l.01-.17v.35l.05.34.11.33.16.31.21.27.25.24.29.2.31.15.34.1.34.04z" style="stroke-width:0.53;fill:#FFFFFF;fill-opacity:0.50"/><text x="100.32" y="238.11" lengthAdjust="spacingAndGlyphs" style="font-size:5.69px;font-family:&quot;Liberation Sans&quot;" text-anchor="middle" textLength="64.38">4400 MELVINA JTN LLC</text><path d="M143.85 152.73h57.51-.09l.35-.02.34-.07.32-.12.3-.17.27-.22.23-.26.19-.3.14-.32.08-.34.03-.34h0v-7.03h0l-.03-.35-.08-.33-.14-.32-.19-.3-.23-.26-.27-.22-.3-.17-.32-.12-.34-.07-.26-.02h-57.51l.26.02-.35-.02-.34.04-.33.1-.32.15-.28.2-.26.24-.2.28-.17.3-.11.33-.05.35-.01.17v7.03l.01-.18v.35l.05.35.11.32.17.31.2.28.26.24.28.2.32.15.33.09.34.05z" style="stroke-width:0.53;fill:#FFFFFF;fill-opacity:0.50"/><text x="172.6" y="149.13" lengthAdjust="spacingAndGlyphs" style="font-size:5.69px;font-family:&quot;Liberation Sans&quot;" text-anchor="middle" textLength="54.63">2850 48TH JTN LLC</text><path d="M63 389.21h70.99-.09l.35-.01.34-.07.33-.13.3-.17.27-.22.23-.26.18-.29.14-.32.08-.34.03-.35h0v-7.02h0l-.03-.35-.08-.34-.14-.32-.18-.29-.23-.26-.27-.22-.3-.18-.33-.12-.34-.07-.26-.01H63l.26.01-.35-.01-.34.04-.34.1-.31.14-.29.2-.25.24-.21.28-.16.31-.11.33-.05.34-.01.18v7.02l.01-.17v.35l.05.34.11.33.16.31.21.27.25.25.29.19.31.15.34.1.34.04z" style="stroke-width:0.53;fill:#FFFFFF;fill-opacity:0.50"/><text x="98.49" y="385.61" lengthAdjust="spacingAndGlyphs" style="font-size:5.69px;font-family:&quot;Liberation Sans&quot;" text-anchor="middle" textLength="68.11">3890 SHERMAN JTN LLC</text><path d="M209.4 539.77h57.5-.08l.34-.02.34-.06.33-.13.3-.17.27-.22.23-.26.19-.3.13-.32.09-.33.02-.35h0v-7.03h0l-.02-.34-.09-.34-.13-.32-.19-.29-.23-.26-.27-.22-.3-.18-.33-.12-.34-.07-.26-.02h-57.5l.26.02-.35-.02-.34.05-.34.09-.31.15-.29.2-.25.24-.21.28-.16.31-.11.33-.06.34v7.2-.17.34l.06.35.11.33.16.3.21.28.25.24.29.2.31.15.34.1.34.04z" style="stroke-width:0.53;fill:#FFFFFF;fill-opacity:0.50"/><text x="238.15" y="536.17" lengthAdjust="spacingAndGlyphs" style="font-size:5.69px;font-family:&quot;Liberation Sans&quot;" text-anchor="middle" textLength="54.63">3277 45TH JTN LLC</text><path d="M104.08 510.14h57.51-.09l.35-.02.34-.07.32-.12.3-.17.27-.22.23-.26.19-.3.13-.32.09-.33.03-.35h0v-7.03h0l-.03-.34-.09-.34-.13-.32-.19-.3-.23-.26-.27-.22-.3-.17-.32-.12-.34-.07-.26-.02h-57.51l.26.02-.35-.02-.34.05-.34.09-.31.15-.29.2-.25.24-.21.28-.16.31-.11.33-.05.34-.01.17v7.03l.01-.17v.34l.05.35.11.33.16.3.21.28.25.24.29.2.31.15.34.1.34.04z" style="stroke-width:0.53;fill:#FFFFFF;fill-opacity:0.50"/><text x="132.83" y="506.54" lengthAdjust="spacingAndGlyphs" style="font-size:5.69px;font-family:&quot;Liberation Sans&quot;" text-anchor="middle" textLength="54.63">3160 46TH JTN LLC</text><path d="M425.93 274.82h63.57-.09l.35-.01.34-.07.32-.13.3-.17.27-.22.23-.26.19-.3.14-.31.08-.34.03-.35h0v-7.03h0l-.03-.34-.08-.34-.14-.32-.19-.29-.23-.26-.27-.22-.3-.18-.32-.12-.34-.07-.26-.02h-63.57l.26.02-.35-.01-.34.04-.34.09-.31.15-.29.2-.25.24-.21.28-.16.31-.11.33-.05.34-.01.17v7.03l.01-.17v.35l.05.34.11.33.16.31.21.27.25.24.29.2.31.15.34.1.34.04z" style="stroke-width:0.53;fill:#FFFFFF;fill-opacity:0.50"/><text x="457.71" y="271.22" lengthAdjust="spacingAndGlyphs" style="font-size:5.69px;font-family:&quot;Liberation Sans&quot;" text-anchor="middle" textLength="60.69">2814 N 55TH JTN LLC</text><path d="M203.4 336.91h56.28-.09l.35-.02.34-.07.32-.12.3-.17.27-.22.23-.26.19-.3.14-.32.08-.34.03-.34h0v-15.22h0l-.03-.35-.08-.34-.14-.32-.19-.29-.23-.26-.27-.22-.3-.17-.32-.13-.34-.07-.26-.01H203.4l.26.01-.35-.01-.34.04-.33.1-.32.15-.28.19-.25.24-.21.28-.17.31-.11.33-.05.34-.01.18v15.22l.01-.18v.35l.05.35.11.33.17.3.21.28.25.24.28.2.32.15.33.09.34.05z" style="stroke-width:0.53;fill:#FFFFFF;fill-opacity:0.50"/><text x="231.54" y="325.11" lengthAdjust="spacingAndGlyphs" style="font-size:5.69px;font-family:&quot;Liberation Sans&quot;" text-anchor="middle" textLength="53.4">5124 NATURE TRL,</text><text x="231.54" y="333.31" lengthAdjust="spacingAndGlyphs" style="font-size:5.69px;font-family:&quot;Liberation Sans&quot;" text-anchor="middle" textLength="51.84">RACINE, WI 53403</text><path d="M283.21 344.28h56.27l-.09-.01.35-.01.34-.07.33-.12.3-.18.27-.22.23-.26.18-.29.14-.32.08-.34.03-.34h0v-15.23h0l-.03-.34-.08-.34-.14-.32-.18-.29-.23-.26-.27-.22-.3-.18-.33-.12-.34-.07-.26-.02h-56.27l.26.02-.35-.01-.35.04-.33.09-.31.15-.29.2-.25.24-.21.28-.16.31-.11.33-.06.34v15.4-.18.35l.06.34.11.33.16.31.21.28.25.24.29.2.31.15.33.09.35.04z" style="stroke-width:0.53;fill:#FFFFFF;fill-opacity:0.50"/><text x="311.34" y="332.48" lengthAdjust="spacingAndGlyphs" style="font-size:5.69px;font-family:&quot;Liberation Sans&quot;" text-anchor="middle" textLength="53.4">5124 NATURE TRL,</text><text x="311.34" y="340.68" lengthAdjust="spacingAndGlyphs" style="font-size:5.69px;font-family:&quot;Liberation Sans&quot;" text-anchor="middle" textLength="51.84">RACINE, WI 53403</text></g><g clip-path="url(#cpMC4wMHw1NzYuMDB8MC4wMHw1NzYuMDA=)"><circle cx="194.24" cy="95.78" r="1.95" style="stroke-width:0.71;stroke:none;fill:#F8766D"/><path d="m270.59 92.74 2.63 4.56h-5.26z" style="stroke-width:0.71;stroke:none;fill:#00BA38"/><path d="M336.57 97.74h3.91v-3.91h-3.91z" style="stroke-width:0.71;stroke:none;fill:#619CFF"/><text x="208.36" y="98.81" lengthAdjust="spacingAndGlyphs" style="font-size:8.80px;font-family:&quot;Liberation Sans Narrow&quot;" textLength="48.12">mprop address</text><text x="284.71" y="98.81" lengthAdjust="spacingAndGlyphs" style="font-size:8.80px;font-family:&quot;Liberation Sans Narrow&quot;" textLength="39.69">owner name</text><text x="352.64" y="98.81" lengthAdjust="spacingAndGlyphs" style="font-size:8.80px;font-family:&quot;Liberation Sans Narrow&quot;" textLength="40.5">wdfi address</text><text x="32.63" y="64.23" lengthAdjust="spacingAndGlyphs" style="font-size:12.00px;font-family:&quot;Liberation Sans Narrow&quot;" textLength="256.98">includes 11 parcels, 22 units, and 10 distinct owner names.</text><text x="32.63" y="42.27" lengthAdjust="spacingAndGlyphs" style="font-size:18.00px;font-weight:bold;font-family:&quot;Liberation Sans Narrow&quot;" textLength="211.59">2850 48TH JTN LLC etc Group</text></g></svg>