<svg xmlns="http://www.w3.org/2000/svg" width="576" height="672" class="svglite" viewBox="0 0 432 504"><defs><style><![CDATA[.svglite line,.svglite polyline,.svglite polygon,.svglite path,.svglite circle{fill:none;stroke:#000000;stroke-linecap:round;stroke-linejoin:round;stroke-miterlimit:10.00}.svglite text{white-space:pre}]]></style></defs><rect width="100%" height="100%" style="stroke-linecap:round;stroke-linejoin:round;stroke-miterlimit:10.00;stroke:none;fill:#FFFFFF"/><defs><clipPath id="cpMC4wMHw0MzIuMDB8MC4wMHw1MDQuMDA="><path d="M0 0h432v504H0z"/></clipPath></defs><g clip-path="url(#cpMC4wMHw0MzIuMDB8MC4wMHw1MDQuMDA=)"><path d="M0 0h432v504H0z" style="stroke-width:1.07;stroke:none;fill:#FFFFFF"/></g><defs><clipPath id="cpMzIuNjN8NDAyLjExfDEyMC44Nnw0NzEuMzc="><path d="M32.63 120.86h369.48v350.51H32.63z"/></clipPath></defs><g clip-path="url(#cpMzIuNjN8NDAyLjExfDEyMC44Nnw0NzEuMzc=)"><path d="m167.7 234.54.32-.99.32-.99.32-.98.32-.99.32-.99.32-.98.32-.99.33-.99.32-.99.32-.98.32-.99.32-.99.32-.99.32-.98.32-.99.33-.99.32-.99.32-.98.32-.99.32-.99.32-.98.32-.99.32-.99.32-.99.33-.98.32-.99.32-.99.32-.99.32-.98.32-.99.32-.99.32-.98.32-.99.33-.99.32-.99.32-.98.32-.99.32-.99.32-.99.32-.98.32-.99.32-.99.33-.99.32-.98.32-.99.32-.99.32-.98.32-.99.32-.99.32-.99.32-.98.33-.99.32-.99.32-.99.32-.98.32-.99.32-.99.32-.99.32-.98.32-.99.33-.99.32-.98.32-.99.32-.99.32-.99.32-.98.32-.99.32-.99.33-.99.32-.98.32-.99.32-.99.32-.98.32-.99.32-.99.32-.99.32-.98.33-.99.32-.99.32-.99.32-.98.32-.99.32-.99.32-.99.32-.98.32-.99.33-.99.32-.98.32-.99.32-.99.32-.99.32-.98.32-.99.32-.99.32-.99.33-.98.32-.99.32-.99.32-.99m-31.79 97.75-1.24-.24-1.23-.23-1.23-.22-1.23-.21-1.23-.21-1.23-.2-1.23-.2-1.23-.19-1.23-.18-1.22-.17-1.23-.17-1.22-.16-1.23-.15-1.22-.15-1.22-.14-1.22-.13-1.23-.13-1.22-.12-1.22-.11-1.21-.1-1.22-.1-1.22-.09-1.21-.09-1.22-.08-1.21-.07-1.22-.06-1.21-.06-1.21-.05-1.21-.04-1.22-.04-1.2-.03-1.21-.02-1.21-.02-1.21-.01h-2.41l-1.21.01-1.2.02-1.2.03-1.21.03-1.2.04-1.2.04-1.2.06-1.2.06-1.2.06-1.2.08-1.19.08-1.2.08-1.2.1-1.19.1-1.19.1-1.2.12-1.19.12-1.19.13-1.19.13-1.19.14-1.19.15-1.19.16-1.19.16-1.18.17-1.19.18-1.18.18-1.19.19-1.18.2-1.18.2-1.19.21-1.18.22-1.18.22-1.18.23-1.18.24-1.17.25-1.18.25-1.18.26-1.17.26-1.18.27-1.17.28-1.18.29-1.17.29-1.17.3-1.17.31-1.17.31-1.17.32-1.17.33-1.17.33-1.16.34-1.17.35-1.17.36-1.16.36-1.16.37-1.17.37-1.16.38-1.16.39-1.16.4-1.16.4-1.16.41-1.16.42-1.16.42-1.15.43-1.16.44m265.04 139.02.72.72.71.73.72.72.71.73.72.73.71.72.72.73.72.73.71.72.72.73.71.73.72.72.72.73.71.73.72.72.71.73.72.73.71.72.72.73.72.73.71.72.72.73.71.73.72.72.71.73.72.72.72.73.71.73.72.72.71.73.72.73.71.72.72.73.72.73.71.72.72.73.71.73.72.72.71.73.72.73.72.72.71.73.72.73.71.72.72.73.71.72.72.73.72.73.71.72.72.73.71.73.72.72.71.73.72.73.72.72.71.73.72.73.71.72.72.73.71.73.72.72.72.73.71.73.72.72.71.73.72.73.71.72.72.73.72.72.71.73.72.73.71.72.72.73.71.73.72.72.72.73.71.73.72.72.71.73.72.73.71.72.72.73.72.73.71.72.72.73.71.73.72.72.71.73.72.72.72.73.71.73.72.72.71.73.72.73.71.72.72.73.72.73.71.72.72.73M167.7 234.54l.61.88.61.87.61.87.62.87.63.87.62.87.63.86.63.86.63.86.64.86.64.85.64.85.65.86.65.84.65.85.65.84.66.85.66.83.67.84.67.84.67.83.67.83.68.83.68.83.68.82.68.82.69.82.69.82.7.82.7.81.7.81.7.81.71.81.71.8.71.8.71.8.72.8.73.8.72.79.73.79.73.79.73.79.74.79.74.78.74.78.75.78.75.77.75.78.76.77.76.77.76.77.76.76.77.77.77.76.77.76.78.75.78.76.78.75.79.75.79.75.79.74.79.75.8.74.8.74.81.74.8.73.81.73.82.73.81.73.82.73.82.72.83.72.83.72.83.72.83.72.84.71.84.71.84.71.85.71.85.7.85.7.86.7.86.7.86.7.86.69.87.69.87.69.87.69.88.68.88.68.88.69.89.67.89.68.89.67.9.68.89.66.91.67.9.67.91.66" style="stroke-width:1.07;stroke:#000000;stroke-opacity:0.10;stroke-linecap:butt"/><path d="m167.7 234.54-1.2.1-1.19.1-1.2.1-1.19.1-1.2.1-1.19.1-1.2.1-1.19.1-1.2.1-1.19.11-1.19.1-1.2.1-1.19.1-1.2.1-1.19.1-1.2.1-1.19.1-1.2.1-1.19.1-1.2.1-1.19.1-1.2.1-1.19.1-1.2.1-1.19.1-1.19.1-1.2.11-1.19.1-1.2.1-1.19.1-1.2.1-1.19.1-1.2.1-1.19.1-1.2.1-1.19.1-1.2.1-1.19.1-1.2.1-1.19.1-1.2.1-1.19.1-1.19.1-1.2.11-1.19.1-1.2.1-1.19.1-1.2.1-1.19.1-1.2.1-1.19.1-1.2.1-1.19.1-1.2.1-1.19.1-1.2.1-1.19.1-1.2.1-1.19.1-1.19.1-1.2.1-1.19.11-1.2.1-1.19.1-1.2.1-1.19.1-1.2.1-1.19.1-1.2.1-1.19.1-1.2.1-1.19.1-1.2.1-1.19.1-1.19.1-1.2.1-1.19.1-1.2.1-1.19.11-1.2.1-1.19.1-1.2.1-1.19.1-1.2.1-1.19.1-1.2.1-1.19.1-1.2.1-1.19.1-1.2.1-1.19.1-1.19.1-1.2.1-1.19.1-1.2.1-1.19.11-1.2.1-1.19.1-1.2.1m118.28-9.96.9.66.91.67.9.66.9.67.89.68.89.67.89.68.89.67.88.68.88.69.88.68.87.69.87.69.87.69.87.69.86.7.86.7.85.7.85.7.85.7.85.71.84.71.84.71.84.71.84.72.83.72.82.72.83.72.82.72.82.73.82.73.81.73.81.73.81.73.8.74.8.74.8.74.79.75.8.74.79.75.78.75.78.75.78.76.78.75.77.76.77.76.77.77.77.76.76.77.76.77.75.77.75.78.75.77.75.78.74.78.74.78.74.79.73.79.73.79.73.79.73.79.72.8.72.8.71.8.72.8.71.8.7.81.71.81.7.81.7.81.69.82.69.82.69.82.69.82.68.82.68.83.67.83.68.83.67.83.67.84.66.84.66.83.66.85.65.84.66.85.65.84.64.86.64.85.64.85.64.86.63.86.64.86.62.86.63.87.62.87.62.87.61.87.62.87.61.88" style="stroke-width:1.07;stroke:#000000;stroke-opacity:0.10;stroke-linecap:butt"/><path d="m167.7 234.54-1.16.44-1.16.43-1.15.42-1.16.42-1.16.41-1.16.4-1.16.39-1.16.39-1.16.39-1.17.37-1.16.37-1.16.36-1.17.36-1.17.34-1.16.34-1.17.34-1.17.33-1.17.32-1.17.31-1.17.31-1.17.3-1.17.29-1.18.28-1.17.28-1.18.28-1.17.26-1.18.26-1.18.25-1.17.25-1.18.23-1.18.23-1.18.23-1.18.22-1.19.21-1.18.2-1.18.2-1.19.19-1.18.18-1.19.18-1.18.17-1.19.16-1.19.15-1.19.15-1.19.14-1.19.14-1.19.13-1.19.12-1.2.11-1.19.11-1.2.1-1.19.09-1.2.09-1.19.08-1.2.07-1.2.07-1.2.06-1.2.05-1.2.05-1.2.04-1.21.03-1.2.02-1.2.02-1.21.01-1.2.01h-1.21l-1.21-.01-1.21-.02-1.21-.02-1.21-.03-1.21-.04-1.21-.04-1.21-.05-1.21-.06-1.22-.07-1.21-.07-1.22-.07-1.21-.09-1.22-.09-1.22-.1-1.22-.11-1.21-.11-1.22-.12-1.23-.12-1.22-.14-1.22-.14-1.22-.14-1.23-.16-1.22-.16-1.23-.16-1.22-.18-1.23-.18-1.23-.19-1.23-.19-1.23-.2-1.23-.21-1.23-.22-1.23-.22-1.23-.23-1.24-.23m265.04 139.02-.72-.74-.73-.73-.72-.74-.73-.73-.72-.74-.72-.73-.73-.74-.72-.73-.73-.74-.72-.73-.72-.74-.73-.73-.72-.74-.73-.73-.72-.74-.72-.73-.73-.74-.72-.73-.73-.74-.72-.73-.73-.74-.72-.73-.72-.74-.73-.73-.72-.74-.73-.73-.72-.74-.72-.73-.73-.74-.72-.73-.73-.74-.72-.73-.72-.74-.73-.73-.72-.74-.73-.73-.72-.74-.72-.73-.73-.74-.72-.73-.73-.74-.72-.73-.72-.74-.73-.73-.72-.74-.73-.73-.72-.74-.73-.73-.72-.74-.72-.73-.73-.74-.72-.73-.73-.74-.72-.73-.72-.74-.73-.73-.72-.74-.73-.73-.72-.74-.72-.73-.73-.74-.72-.73-.73-.74-.72-.73-.72-.74-.73-.73-.72-.74-.73-.73-.72-.74-.73-.73-.72-.74-.72-.73-.73-.74-.72-.73-.73-.74-.72-.73-.72-.74-.73-.73-.72-.74-.73-.73-.72-.74-.72-.73-.73-.74-.72-.73-.73-.74-.72-.73-.72-.74-.73-.73-.72-.74-.73-.73-.72-.74-.73-.73-.72-.74-.72-.73-.73-.74-.72-.73-.73-.74-.72-.73-.72-.74" style="stroke-width:1.07;stroke:#000000;stroke-opacity:0.10;stroke-linecap:butt"/><path d="m167.7 224.03 9.1 15.76h-18.2zm146.76 151.41 7 12.11h-13.99z" style="stroke-width:0.71;stroke:none;fill:#00BA38"/><circle cx="199.49" cy="136.79" r="1.42" style="stroke-width:0.71;stroke:none;fill:#F8766D"/><path d="M42.67 251.25h13.51v-13.51H42.67z" style="stroke-width:0.71;stroke:none;fill:#619CFF"/><circle cx="385.32" cy="455.44" r="1.42" style="stroke-width:0.71;stroke:none;fill:#F8766D"/><circle cx="242.78" cy="310.75" r="6.76" style="stroke-width:0.71;stroke:none;fill:#F8766D"/><path d="m163.19 239.24 3.73-3.89m151.99 143.53-3.67 3.82m-120.4-241.27 3.85-3.84m48.79 168.56-3.9 3.81" style="stroke-width:0.53;stroke:#BFBFBF"/><path d="M137.33 250.59h38.89l-.09-.01.35-.01.34-.07.32-.12.31-.18.26-.22.24-.26.18-.29.14-.32.08-.34.03-.34h0v-7.03h0l-.03-.35-.08-.33-.14-.32-.18-.3-.24-.26-.26-.22-.31-.17-.32-.13-.34-.07-.26-.01h-38.89l.26.01-.35-.01-.34.04-.33.1-.32.15-.28.2-.26.24-.2.27-.17.31-.11.33-.05.35-.01.17v7.03l.01-.18v.35l.05.34.11.33.17.31.2.28.26.24.28.2.32.15.33.09.34.04z" style="stroke-width:0.53;fill:#FFFFFF;fill-opacity:0.50"/><text x="156.77" y="246.99" lengthAdjust="spacingAndGlyphs" style="font-size:5.69px;font-family:&quot;Liberation Sans&quot;" text-anchor="middle" textLength="36.01">34TH ST LLC</text><path d="M298.58 378.88h53.5-.09l.35-.01.34-.07.33-.12.3-.18.27-.22.23-.26.18-.29.14-.32.08-.34.03-.35h0v-7.02h0l-.03-.35-.08-.34-.14-.32-.18-.29-.23-.26-.27-.22-.3-.17-.33-.13-.34-.07-.26-.01h-53.5l.26.01-.35-.01-.34.04-.34.1-.31.15-.29.19-.25.24-.21.28-.16.31-.11.33-.06.34v7.2-.17.35l.06.34.11.33.16.31.21.28.25.24.29.19.31.15.34.1.34.04z" style="stroke-width:0.53;fill:#FFFFFF;fill-opacity:0.50"/><text x="325.33" y="375.28" lengthAdjust="spacingAndGlyphs" style="font-size:5.69px;font-family:&quot;Liberation Sans&quot;" text-anchor="middle" textLength="50.62">34TH STREET LLC</text><path d="M150.69 160.97h67.22-.09l.35-.01.34-.07.32-.13.3-.17.27-.22.23-.26.19-.29.13-.32.09-.34.03-.35h0v-15.22h0l-.03-.35-.09-.33-.13-.32-.19-.3-.23-.26-.27-.22-.3-.17-.32-.12-.34-.07-.26-.02h-67.22l.26.02-.35-.02-.35.04-.33.1-.31.15-.29.2-.25.24-.21.28-.16.3-.11.33-.06.35v15.39-.17.35l.06.34.11.33.16.31.21.27.25.24.29.2.31.15.33.1.35.04z" style="stroke-width:0.53;fill:#FFFFFF;fill-opacity:0.50"/><text x="184.3" y="149.18" lengthAdjust="spacingAndGlyphs" style="font-size:5.69px;font-family:&quot;Liberation Sans&quot;" text-anchor="middle" textLength="53.46">7037 ST JAMES ST,</text><text x="184.3" y="157.37" lengthAdjust="spacingAndGlyphs" style="font-size:5.69px;font-family:&quot;Liberation Sans&quot;" text-anchor="middle" textLength="64.34">MILWAUKEE, WI 53213</text><path d="M56.1 254.27h67.6-.08l.34-.02.34-.07.33-.12.3-.17.27-.22.23-.26.19-.3.13-.32.09-.33.02-.35h0v-15.22h0l-.02-.35-.09-.34-.13-.32-.19-.29-.23-.26-.27-.22-.3-.17-.33-.13-.34-.07-.26-.01H56.1l.26.01-.34-.01-.35.04-.33.1-.32.15-.28.2-.25.24-.21.27-.16.31-.11.33-.06.34-.01.18v15.22l.01-.17v.34l.06.35.11.33.16.3.21.28.25.24.28.2.32.15.33.1.35.04z" style="stroke-width:0.53;fill:#FFFFFF;fill-opacity:0.50"/><text x="89.9" y="242.48" lengthAdjust="spacingAndGlyphs" style="font-size:5.69px;font-family:&quot;Liberation Sans&quot;" text-anchor="middle" textLength="64.72">841 N ROBERTSON ST,</text><text x="89.9" y="250.67" lengthAdjust="spacingAndGlyphs" style="font-size:5.69px;font-family:&quot;Liberation Sans&quot;" text-anchor="middle" textLength="64.34">MILWAUKEE, WI 53213</text><path d="M311.41 465.2h67.22-.08l.34-.02.34-.07.33-.12.3-.17.27-.22.23-.26.19-.3.13-.32.08-.33.03-.35h0v-15.22h0l-.03-.35-.08-.34-.13-.32-.19-.29-.23-.26-.27-.22-.3-.17-.33-.13-.34-.07-.26-.01h-67.22l.26.01-.34-.01-.35.04-.33.1-.32.15-.28.19-.25.24-.21.28-.16.31-.11.33-.06.34-.01.18v15.22l.01-.18v.35l.06.35.11.33.16.3.21.28.25.24.28.2.32.15.33.1.35.04z" style="stroke-width:0.53;fill:#FFFFFF;fill-opacity:0.50"/><text x="345.02" y="453.4" lengthAdjust="spacingAndGlyphs" style="font-size:5.69px;font-family:&quot;Liberation Sans&quot;" text-anchor="middle" textLength="38.37">923 27TH ST,</text><text x="345.02" y="461.6" lengthAdjust="spacingAndGlyphs" style="font-size:5.69px;font-family:&quot;Liberation Sans&quot;" text-anchor="middle" textLength="64.34">MILWAUKEE, WI 53208</text><path d="M228.64 306.15h67.22-.09l.35-.01.34-.07.32-.13.3-.17.27-.22.23-.26.19-.29.14-.32.08-.34.03-.35h0v-23.41h0l-.03-.35-.08-.34-.14-.32-.19-.29-.23-.26-.27-.22-.3-.18-.32-.12-.34-.07-.26-.01h-67.22l.26.01-.35-.01-.34.04-.34.1-.31.14-.29.2-.25.24-.21.28-.16.31-.11.33-.05.34-.01.18v23.41l.01-.17v.35l.05.34.11.33.16.31.21.27.25.24.29.2.31.15.34.1.34.04z" style="stroke-width:0.53;fill:#FFFFFF;fill-opacity:0.50"/><text x="262.25" y="286.16" lengthAdjust="spacingAndGlyphs" style="font-size:5.69px;font-family:&quot;Liberation Sans&quot;" text-anchor="middle" textLength="42.67">1333 COLLEGE</text><text x="262.25" y="294.36" lengthAdjust="spacingAndGlyphs" style="font-size:5.69px;font-family:&quot;Liberation Sans&quot;" text-anchor="middle" textLength="55.63">AVE, STE M, SOUTH</text><text x="262.25" y="302.55" lengthAdjust="spacingAndGlyphs" style="font-size:5.69px;font-family:&quot;Liberation Sans&quot;" text-anchor="middle" textLength="64.34">MILWAUKEE, WI 53172</text></g><g clip-path="url(#cpMC4wMHw0MzIuMDB8MC4wMHw1MDQuMDA=)"><circle cx="122.24" cy="95.78" r="1.95" style="stroke-width:0.71;stroke:none;fill:#F8766D"/><path d="m198.59 92.74 2.63 4.56h-5.26z" style="stroke-width:0.71;stroke:none;fill:#00BA38"/><path d="M264.57 97.74h3.91v-3.91h-3.91z" style="stroke-width:0.71;stroke:none;fill:#619CFF"/><text x="136.36" y="98.81" lengthAdjust="spacingAndGlyphs" style="font-size:8.80px;font-family:&quot;Liberation Sans Narrow&quot;" textLength="48.12">mprop address</text><text x="212.71" y="98.81" lengthAdjust="spacingAndGlyphs" style="font-size:8.80px;font-family:&quot;Liberation Sans Narrow&quot;" textLength="39.69">owner name</text><text x="280.64" y="98.81" lengthAdjust="spacingAndGlyphs" style="font-size:8.80px;font-family:&quot;Liberation Sans Narrow&quot;" textLength="40.5">wdfi address</text><text x="32.63" y="64.23" lengthAdjust="spacingAndGlyphs" style="font-size:12.00px;font-family:&quot;Liberation Sans Narrow&quot;" textLength="246.76">includes 5 parcels, 21 units, and 2 distinct owner names.</text><text x="32.63" y="42.27" lengthAdjust="spacingAndGlyphs" style="font-size:18.00px;font-weight:bold;font-family:&quot;Liberation Sans Narrow&quot;" textLength="289.43">34TH ST LLC -- 34TH STREET LLC Group</text></g></svg>