<svg xmlns="http://www.w3.org/2000/svg" width="768" height="768" class="svglite" viewBox="0 0 576 576"><defs><style><![CDATA[.svglite line,.svglite polyline,.svglite polygon,.svglite path,.svglite circle{fill:none;stroke:#000000;stroke-linecap:round;stroke-linejoin:round;stroke-miterlimit:10.00}.svglite text{white-space:pre}]]></style></defs><rect width="100%" height="100%" style="stroke-linecap:round;stroke-linejoin:round;stroke-miterlimit:10.00;stroke:none;fill:#FFFFFF"/><defs><clipPath id="cpMC4wMHw1NzYuMDB8MC4wMHw1NzYuMDA="><path d="M0 0h576v576H0z"/></clipPath></defs><g clip-path="url(#cpMC4wMHw1NzYuMDB8MC4wMHw1NzYuMDA=)"><path d="M0 0h576v576H0z" style="stroke-width:1.07;stroke:none;fill:#FFFFFF"/></g><defs><clipPath id="cpMzIuNjN8NTQ2LjExfDEyMi4xNHw1NDMuMzc="><path d="M32.63 122.14h513.48v421.24H32.63z"/></clipPath></defs><g clip-path="url(#cpMzIuNjN8NTQ2LjExfDEyMi4xNHw1NDMuMzc=)"><path d="m266.8 524.23-.89-1.84-.9-1.84-.89-1.84-.9-1.84-.89-1.84-.9-1.84-.89-1.83-.9-1.84-.89-1.84-.9-1.84-.89-1.84-.9-1.84-.89-1.84-.9-1.83-.89-1.84-.9-1.84-.89-1.84-.9-1.84-.89-1.84-.9-1.84-.89-1.83-.9-1.84-.89-1.84-.9-1.84-.89-1.84-.89-1.84-.9-1.83-.89-1.84-.9-1.84-.89-1.84-.9-1.84-.89-1.84-.9-1.84-.89-1.83-.9-1.84-.89-1.84-.9-1.84-.89-1.84-.9-1.84-.89-1.84-.9-1.83-.89-1.84-.9-1.84-.89-1.84-.9-1.84-.89-1.84-.9-1.83-.89-1.84-.9-1.84-.89-1.84-.9-1.84-.89-1.84-.9-1.84-.89-1.83-.9-1.84-.89-1.84-.9-1.84-.89-1.84-.89-1.84-.9-1.84-.89-1.83-.9-1.84-.89-1.84-.9-1.84-.89-1.84-.9-1.84-.89-1.84-.9-1.83-.89-1.84-.9-1.84-.89-1.84-.9-1.84-.89-1.84-.9-1.83-.89-1.84-.9-1.84-.89-1.84-.9-1.84-.89-1.84-.9-1.84-.89-1.83-.9-1.84-.89-1.84-.9-1.84-.89-1.84-.9-1.84-.89-1.84-.9-1.83-.89-1.84-.9-1.84-.89-1.84-.89-1.84-.9-1.84-.89-1.84-.9-1.83-.89-1.84-.9-1.84-.89-1.84-.9-1.84m88.59 182.02.26-1.85.25-1.85.25-1.85.26-1.85.25-1.85.25-1.85.26-1.85.25-1.85.26-1.85.25-1.84.25-1.85.26-1.85.25-1.85.26-1.85.25-1.85.25-1.85.26-1.85.25-1.85.25-1.85.26-1.84.25-1.85.26-1.85.25-1.85.25-1.85.26-1.85.25-1.85.26-1.85.25-1.85.25-1.85.26-1.84.25-1.85.25-1.85.26-1.85.25-1.85.26-1.85.25-1.85.25-1.85.26-1.85.25-1.85.26-1.84.25-1.85.25-1.85.26-1.85.25-1.85.25-1.85.26-1.85.25-1.85.26-1.85.25-1.85.25-1.84.26-1.85.25-1.85.26-1.85.25-1.85.25-1.85.26-1.85.25-1.85.25-1.85.26-1.85.25-1.84.26-1.85.25-1.85.25-1.85.26-1.85.25-1.85.26-1.85.25-1.85.25-1.85.26-1.85.25-1.84.25-1.85.26-1.85.25-1.85.26-1.85.25-1.85.25-1.85.26-1.85.25-1.85.26-1.85.25-1.84.25-1.85.26-1.85.25-1.85.25-1.85.26-1.85.25-1.85.26-1.85.25-1.85.25-1.84.26-1.85.25-1.85.26-1.85.25-1.85.25-1.85.26-1.85.25-1.85.25-1.85.26-1.85.25-1.84m122.28 16.7 1.09.09 1.1.09 1.1.09 1.09.09 1.1.09 1.1.1 1.09.09 1.1.09 1.1.09 1.09.09 1.1.09 1.1.09 1.09.09 1.1.1 1.1.09 1.09.09 1.1.09 1.09.09 1.1.09 1.1.09 1.09.09 1.1.1 1.1.09 1.09.09 1.1.09 1.1.09 1.09.09 1.1.09 1.1.09 1.09.1 1.1.09 1.1.09 1.09.09 1.1.09 1.1.09 1.09.09 1.1.09 1.1.1 1.09.09 1.1.09 1.1.09 1.09.09 1.1.09 1.1.09 1.09.09 1.1.1 1.1.09 1.09.09 1.1.09 1.1.09 1.09.09 1.1.09 1.1.09 1.09.1 1.1.09 1.1.09 1.09.09 1.1.09 1.1.09 1.09.09 1.1.09 1.1.1 1.09.09 1.1.09 1.1.09 1.09.09 1.1.09 1.1.09 1.09.09 1.1.1 1.1.09 1.09.09 1.1.09 1.1.09 1.09.09 1.1.09 1.1.09 1.09.1 1.1.09 1.1.09 1.09.09 1.1.09 1.1.09 1.09.09 1.1.09 1.1.1 1.09.09 1.1.09 1.1.09 1.09.09 1.1.09 1.1.09 1.09.09 1.1.1 1.1.09 1.09.09 1.1.09 1.1.09 1.09.09m-108.56-9.03-1.24-.17-1.23-.17-1.24-.17-1.23-.17-1.24-.17-1.23-.16-1.24-.17-1.24-.17-1.23-.17-1.24-.17-1.23-.17-1.24-.17-1.23-.17-1.24-.16-1.23-.17-1.24-.17-1.23-.17-1.24-.17-1.23-.17-1.24-.17-1.23-.16-1.24-.17-1.23-.17-1.24-.17-1.23-.17-1.24-.17-1.23-.17-1.24-.17-1.23-.16-1.24-.17-1.23-.17-1.24-.17-1.23-.17-1.24-.17-1.23-.17-1.24-.17-1.23-.16-1.24-.17-1.23-.17-1.24-.17-1.23-.17-1.24-.17-1.23-.17-1.24-.17-1.23-.16-1.24-.17-1.23-.17-1.24-.17-1.23-.17-1.24-.17-1.23-.17-1.24-.17-1.23-.16-1.24-.17-1.23-.17-1.24-.17-1.23-.17-1.24-.17-1.23-.17-1.24-.16-1.23-.17-1.24-.17-1.23-.17-1.24-.17-1.23-.17-1.24-.17-1.24-.17-1.23-.16-1.24-.17-1.23-.17-1.24-.17-1.23-.17-1.24-.17-1.23-.17-1.24-.17-1.23-.16-1.24-.17-1.23-.17-1.24-.17-1.23-.17-1.24-.17-1.23-.17-1.24-.17-1.23-.16-1.24-.17-1.23-.17-1.24-.17-1.23-.17-1.24-.17-1.23-.17-1.24-.17-1.23-.16-1.24-.17-1.23-.17-1.24-.17-1.23-.17-1.24-.17-1.23-.17-1.24-.16m.7-161.36-1.16 1.64-1.16 1.64-1.15 1.64-1.16 1.64-1.15 1.64-1.16 1.64-1.15 1.64-1.16 1.64-1.16 1.64-1.15 1.64-1.16 1.64-1.15 1.64-1.16 1.65-1.15 1.64-1.16 1.64-1.16 1.64-1.15 1.64-1.16 1.64-1.15 1.64-1.16 1.64-1.15 1.64-1.16 1.64-1.16 1.64-1.15 1.64-1.16 1.64-1.15 1.64-1.16 1.64-1.15 1.64-1.16 1.64-1.16 1.64-1.15 1.64-1.16 1.64-1.15 1.64-1.16 1.64-1.15 1.64-1.16 1.64-1.16 1.64-1.15 1.64-1.16 1.64-1.15 1.64-1.16 1.64-1.15 1.64-1.16 1.64-1.16 1.64-1.15 1.65-1.16 1.64-1.15 1.64-1.16 1.64-1.15 1.64-1.16 1.64-1.16 1.64-1.15 1.64-1.16 1.64-1.15 1.64-1.16 1.64-1.15 1.64-1.16 1.64-1.16 1.64-1.15 1.64-1.16 1.64-1.15 1.64-1.16 1.64-1.15 1.64-1.16 1.64-1.16 1.64-1.15 1.64-1.16 1.64-1.15 1.64-1.16 1.64-1.15 1.64-1.16 1.64-1.16 1.64-1.15 1.64-1.16 1.64-1.15 1.64-1.16 1.65-1.15 1.64-1.16 1.64-1.15 1.64-1.16 1.64-1.16 1.64-1.15 1.64-1.16 1.64-1.15 1.64-1.16 1.64-1.15 1.64-1.16 1.64-1.16 1.64-1.15 1.64-1.16 1.64-1.15 1.64-1.16 1.64-1.15 1.64-1.16 1.64-1.16 1.64-1.15 1.64-1.16 1.64-1.15 1.64-1.16 1.64" style="stroke-width:1.07;stroke:#000000;stroke-opacity:0.10;stroke-linecap:butt"/><path d="m292.63 179.82-.01 1.63-.01 1.63-.01 1.63v1.63l-.01 1.63-.01 1.63v1.63l-.01 1.63-.01 1.63v1.63l-.01 1.63-.01 1.63-.01 1.63v1.63l-.01 1.63-.01 1.63v1.63l-.01 1.63-.01 1.63v1.63l-.01 1.63-.01 1.63-.01 1.63v1.63l-.01 1.63-.01 1.63v1.63l-.01 1.63-.01 1.63v1.63l-.01 1.63-.01 1.63-.01 1.63v1.63l-.01 1.63-.01 1.63v1.63l-.01 1.62-.01 1.63v1.63l-.01 1.63-.01 1.63-.01 1.63v1.63l-.01 1.63-.01 1.63v1.63l-.01 1.63-.01 1.63v1.63l-.01 1.63-.01 1.63-.01 1.63v1.63l-.01 1.63-.01 1.63v1.63l-.01 1.63-.01 1.63v1.63l-.01 1.63-.01 1.63-.01 1.63v1.63l-.01 1.63-.01 1.63v1.63l-.01 1.63-.01 1.63v1.63l-.01 1.63-.01 1.63-.01 1.63v1.63l-.01 1.63-.01 1.63v1.63l-.01 1.63-.01 1.63v1.63l-.01 1.63-.01 1.63-.01 1.63v1.63l-.01 1.63-.01 1.63v1.63l-.01 1.63-.01 1.63v1.63l-.01 1.63-.01 1.63-.01 1.63v1.63l-.01 1.63-.01 1.63v1.63l-.01 1.63-.01 1.63m-58.2-199.9-.57 2.03-.56 2.03-.56 2.03-.56 2.03-.56 2.03-.56 2.03-.56 2.03-.56 2.03-.56 2.03-.56 2.03-.56 2.03-.56 2.03-.56 2.03-.57 2.03-.56 2.03-.56 2.03-.56 2.03-.56 2.03-.56 2.03-.56 2.03-.56 2.03-.56 2.02-.56 2.03-.56 2.03-.56 2.03-.56 2.03-.57 2.03-.56 2.03-.56 2.03-.56 2.03-.56 2.03-.56 2.03-.56 2.03-.56 2.03-.56 2.03-.56 2.03-.56 2.03-.56 2.03-.56 2.03-.56 2.03-.57 2.03-.56 2.03-.56 2.03-.56 2.03-.56 2.03-.56 2.02-.56 2.03-.56 2.03-.56 2.03-.56 2.03-.56 2.03-.56 2.03-.56 2.03-.57 2.03-.56 2.03-.56 2.03-.56 2.03-.56 2.03-.56 2.03-.56 2.03-.56 2.03-.56 2.03-.56 2.03-.56 2.03-.56 2.03-.56 2.03-.56 2.03-.57 2.03-.56 2.02-.56 2.03-.56 2.03-.56 2.03-.56 2.03-.56 2.03-.56 2.03-.56 2.03-.56 2.03-.56 2.03-.56 2.03-.56 2.03-.57 2.03-.56 2.03-.56 2.03-.56 2.03-.56 2.03-.56 2.03-.56 2.03-.56 2.03-.56 2.03-.56 2.03-.56 2.03-.56 2.03-.56 2.02-.57 2.03-.56 2.03-.56 2.03-.56 2.03-.56 2.03-.56 2.03m55.52-200.93.58 2.02.59 2.02.59 2.02.59 2.02.58 2.02.59 2.02.59 2.02.59 2.02.59 2.02.58 2.02.59 2.01.59 2.02.59 2.02.59 2.02.58 2.02.59 2.02.59 2.02.59 2.02.59 2.02.58 2.02.59 2.02.59 2.01.59 2.02.59 2.02.58 2.02.59 2.02.59 2.02.59 2.02.59 2.02.58 2.02.59 2.02.59 2.02.59 2.01.59 2.02.58 2.02.59 2.02.59 2.02.59 2.02.59 2.02.58 2.02.59 2.02.59 2.02.59 2.02.58 2.01.59 2.02.59 2.02.59 2.02.59 2.02.58 2.02.59 2.02.59 2.02.59 2.02.59 2.02.58 2.02.59 2.01.59 2.02.59 2.02.59 2.02.58 2.02.59 2.02.59 2.02.59 2.02.59 2.02.58 2.02.59 2.02.59 2.01.59 2.02.59 2.02.58 2.02.59 2.02.59 2.02.59 2.02.59 2.02.58 2.02.59 2.02.59 2.02.59 2.01.59 2.02.58 2.02.59 2.02.59 2.02.59 2.02.58 2.02.59 2.02.59 2.02.59 2.02.59 2.02.58 2.02.59 2.01.59 2.02.59 2.02.59 2.02.58 2.02.59 2.02.59 2.02.59 2.02.59 2.02.58 2.02.59 2.02" style="stroke-width:1.07;stroke:#000000;stroke-opacity:0.10;stroke-linecap:butt"/><path d="m175 187.94.03 1.56.03 1.56.04 1.56.03 1.55.03 1.56.03 1.56.04 1.56.03 1.56.03 1.56.03 1.55.04 1.56.03 1.56.03 1.56.03 1.56.04 1.56.03 1.55.03 1.56.03 1.56.04 1.56.03 1.56.03 1.56.03 1.55.03 1.56.04 1.56.03 1.56.03 1.56.03 1.56.04 1.55.03 1.56.03 1.56.03 1.56.04 1.56.03 1.56.03 1.55.03 1.56.04 1.56.03 1.56.03 1.56.03 1.55.04 1.56.03 1.56.03 1.56.03 1.56.04 1.56.03 1.55.03 1.56.03 1.56.04 1.56.03 1.56.03 1.56.03 1.55.04 1.56.03 1.56.03 1.56.03 1.56.04 1.56.03 1.55.03 1.56.03 1.56.04 1.56.03 1.56.03 1.56.03 1.55.04 1.56.03 1.56.03 1.56.03 1.56.04 1.56.03 1.55.03 1.56.03 1.56.03 1.56.04 1.56.03 1.56.03 1.55.03 1.56.04 1.56.03 1.56.03 1.56.03 1.55.04 1.56.03 1.56.03 1.56.03 1.56.04 1.56.03 1.55.03 1.56.03 1.56.04 1.56.03 1.56.03 1.56.03 1.55.04 1.56.03 1.56.03 1.56.03 1.56.04 1.56.03 1.55.03 1.56M175 187.94l1.18 1.55 1.18 1.55 1.18 1.54 1.18 1.55 1.18 1.55 1.19 1.55 1.18 1.55 1.18 1.54 1.18 1.55 1.18 1.55 1.18 1.55 1.18 1.55 1.18 1.54 1.18 1.55 1.19 1.55 1.18 1.55 1.18 1.54 1.18 1.55 1.18 1.55 1.18 1.55 1.18 1.55 1.18 1.54 1.19 1.55 1.18 1.55 1.18 1.55 1.18 1.54 1.18 1.55 1.18 1.55 1.18 1.55 1.18 1.55 1.18 1.54 1.19 1.55 1.18 1.55 1.18 1.55 1.18 1.55 1.18 1.54 1.18 1.55 1.18 1.55 1.18 1.55 1.18 1.54 1.19 1.55 1.18 1.55 1.18 1.55 1.18 1.55 1.18 1.54 1.18 1.55 1.18 1.55 1.18 1.55 1.18 1.54 1.19 1.55 1.18 1.55 1.18 1.55 1.18 1.55 1.18 1.54 1.18 1.55 1.18 1.55 1.18 1.55 1.19 1.54 1.18 1.55 1.18 1.55 1.18 1.55 1.18 1.55 1.18 1.54 1.18 1.55 1.18 1.55 1.18 1.55 1.19 1.55 1.18 1.54 1.18 1.55 1.18 1.55 1.18 1.55 1.18 1.54 1.18 1.55 1.18 1.55 1.18 1.55 1.19 1.55 1.18 1.54 1.18 1.55 1.18 1.55 1.18 1.55 1.18 1.54 1.18 1.55 1.18 1.55 1.18 1.55 1.19 1.55 1.18 1.54 1.18 1.55 1.18 1.55 1.18 1.55 1.18 1.54 1.18 1.55 1.18 1.55 1.19 1.55 1.18 1.55 1.18 1.54 1.18 1.55 1.18 1.55 1.18 1.55 1.18 1.55" style="stroke-width:1.07;stroke:#000000;stroke-opacity:0.10;stroke-linecap:butt"/><path d="m55.97 359.45 1.23-.17 1.24-.18 1.23-.17 1.24-.18 1.23-.17 1.24-.17 1.23-.18 1.24-.17 1.23-.18 1.24-.17 1.23-.17 1.24-.18 1.23-.17 1.23-.18 1.24-.17 1.23-.18 1.24-.17 1.23-.17 1.24-.18 1.23-.17 1.24-.18 1.23-.17 1.24-.17 1.23-.18 1.24-.17 1.23-.18 1.24-.17 1.23-.17 1.24-.18 1.23-.17 1.24-.18 1.23-.17 1.24-.18 1.23-.17 1.24-.17 1.23-.18 1.23-.17 1.24-.18 1.23-.17 1.24-.17 1.23-.18 1.24-.17 1.23-.18 1.24-.17 1.23-.17 1.24-.18 1.23-.17 1.24-.18 1.23-.17 1.24-.18 1.23-.17 1.24-.17 1.23-.18 1.24-.17 1.23-.18 1.24-.17 1.23-.17 1.24-.18 1.23-.17 1.23-.18 1.24-.17 1.23-.17 1.24-.18 1.23-.17 1.24-.18 1.23-.17 1.24-.18 1.23-.17 1.24-.17 1.23-.18 1.24-.17 1.23-.18 1.24-.17 1.23-.17 1.24-.18 1.23-.17 1.24-.18 1.23-.17 1.24-.18 1.23-.17 1.24-.17 1.23-.18 1.23-.17 1.24-.18 1.23-.17 1.24-.17 1.23-.18 1.24-.17 1.23-.18 1.24-.17 1.23-.17 1.24-.18 1.23-.17 1.24-.18 1.23-.17 1.24-.18 1.23-.17 1.24-.17 1.23-.18m23.44 179.36-.24-1.81-.24-1.81-.23-1.81-.24-1.81-.24-1.81-.23-1.82-.24-1.81-.24-1.81-.23-1.81-.24-1.81-.24-1.82-.23-1.81-.24-1.81-.24-1.81-.23-1.81-.24-1.81-.24-1.82-.23-1.81-.24-1.81-.24-1.81-.23-1.81-.24-1.81-.24-1.82-.23-1.81-.24-1.81-.24-1.81-.23-1.81-.24-1.81-.24-1.82-.23-1.81-.24-1.81-.24-1.81-.23-1.81-.24-1.82-.24-1.81-.24-1.81-.23-1.81-.24-1.81-.24-1.81-.23-1.82-.24-1.81-.24-1.81-.23-1.81-.24-1.81-.24-1.81-.23-1.82-.24-1.81-.24-1.81-.23-1.81-.24-1.81-.24-1.81-.23-1.82-.24-1.81-.24-1.81-.23-1.81-.24-1.81-.24-1.81-.23-1.82-.24-1.81-.24-1.81-.23-1.81-.24-1.81-.24-1.82-.23-1.81-.24-1.81-.24-1.81-.23-1.81-.24-1.81-.24-1.82-.23-1.81-.24-1.81-.24-1.81-.23-1.81-.24-1.81-.24-1.82-.23-1.81-.24-1.81-.24-1.81-.23-1.81-.24-1.81-.24-1.82-.23-1.81-.24-1.81-.24-1.81-.23-1.81-.24-1.82-.24-1.81-.23-1.81-.24-1.81-.24-1.81-.24-1.81-.23-1.82-.24-1.81-.24-1.81-.23-1.81-.24-1.81-.24-1.81-.23-1.82-.24-1.81m23.44 179.36.91-1.82.91-1.82.91-1.82.92-1.82.91-1.83.91-1.82.91-1.82.91-1.82.91-1.83.92-1.82.91-1.82.91-1.82.91-1.82.91-1.83.92-1.82.91-1.82.91-1.82.91-1.83.91-1.82.92-1.82.91-1.82.91-1.82.91-1.83.91-1.82.92-1.82.91-1.82.91-1.83.91-1.82.91-1.82.92-1.82.91-1.82.91-1.83.91-1.82.91-1.82.92-1.82.91-1.83.91-1.82.91-1.82.91-1.82.92-1.82.91-1.83.91-1.82.91-1.82.91-1.82.92-1.83.91-1.82.91-1.82.91-1.82.91-1.82.92-1.83.91-1.82.91-1.82.91-1.82.91-1.83.92-1.82.91-1.82.91-1.82.91-1.82.91-1.83.92-1.82.91-1.82.91-1.82.91-1.83.91-1.82.92-1.82.91-1.82.91-1.82.91-1.83.91-1.82.92-1.82.91-1.82.91-1.83.91-1.82.91-1.82.91-1.82.92-1.82.91-1.83.91-1.82.91-1.82.91-1.82.92-1.83.91-1.82.91-1.82.91-1.82.91-1.82.92-1.83.91-1.82.91-1.82.91-1.82.91-1.83.92-1.82.91-1.82.91-1.82.91-1.82.91-1.83.92-1.82.91-1.82.91-1.82.91-1.82" style="stroke-width:1.07;stroke:#000000;stroke-opacity:0.10;stroke-linecap:butt"/><path d="m266.8 522.01 1.92 3.32h-3.83zm147.41-166.34 1.91 3.31h-3.83zM292.63 177.61l1.91 3.32h-3.83zm-58.9-38.54 1.91 3.32h-3.83zM175 185.73l1.91 3.32h-3.83zM55.97 357.24l1.91 3.32h-3.83zm145.68 162.12 1.91 3.32h-3.83z" style="stroke-width:0.71;stroke:none;fill:#00BA38"/><circle cx="178.21" cy="342.21" r="6.76" style="stroke-width:0.71;stroke:none;fill:#F8766D"/><path d="M285.18 347.93h13.51v-13.51h-13.51z" style="stroke-width:0.71;stroke:none;fill:#619CFF"/><circle cx="522.77" cy="366.91" r="1.42" style="stroke-width:0.71;stroke:none;fill:#F8766D"/><path d="m271.29 531.37-3.9-6.21m151.93-171.88-4.25 3.83M287.52 184.42l4.25-3.83m-63.16-34.71 4.26-3.82m-52.67 41.19-4.34 3.92M61.45 354.83l-4.59 3.87m149.98 158.2-4.33 3.9m-29.69-174.02 4.5-3.82m109.24 2.84 4.49-3.87m226.33 29.54 4.5-3.81" style="stroke-width:0.53;stroke:#BFBFBF"/><path d="M273.45 539.72h52.35-.08l.34-.02.34-.07.33-.12.3-.17.27-.22.23-.26.19-.3.13-.32.09-.33.02-.35h0v-7.03h0l-.02-.34-.09-.34-.13-.32-.19-.3-.23-.26-.27-.22-.3-.17-.33-.12-.34-.07-.26-.02h-52.35l.26.02-.34-.02-.35.05-.33.09-.32.15-.28.2-.25.24-.21.28-.16.31-.12.33-.05.34-.01.17v7.03l.01-.17v.34l.05.35.12.33.16.3.21.28.25.24.28.2.32.15.33.1.35.04z" style="stroke-width:0.53;fill:#FFFFFF;fill-opacity:0.50"/><text x="299.63" y="536.12" lengthAdjust="spacingAndGlyphs" style="font-size:5.69px;font-family:&quot;Liberation Sans&quot;" text-anchor="middle" textLength="49.47">5627 N 65TH LLC</text><path d="M400.56 353.28h52.35-.08l.34-.01.34-.07.33-.13.3-.17.27-.22.23-.26.19-.29.13-.32.09-.34.02-.35h0v-7.03h0l-.02-.34-.09-.34-.13-.32-.19-.29-.23-.26-.27-.22-.3-.18-.33-.12-.34-.07-.26-.02h-52.35l.26.02-.34-.01-.35.04-.33.1-.32.14-.28.2-.25.24-.21.28-.16.31-.11.33-.06.34-.01.17v7.03l.01-.17v.35l.06.34.11.33.16.31.21.27.25.25.28.19.32.15.33.1.35.04z" style="stroke-width:0.53;fill:#FFFFFF;fill-opacity:0.50"/><text x="426.74" y="349.68" lengthAdjust="spacingAndGlyphs" style="font-size:5.69px;font-family:&quot;Liberation Sans&quot;" text-anchor="middle" textLength="49.47">5323 N 68TH LLC</text><path d="M253.99 195.76h52.36-.09l.35-.01.34-.07.32-.13.3-.17.27-.22.23-.26.19-.29.14-.32.08-.34.03-.35h0v-7.02h0l-.03-.35-.08-.34-.14-.32-.19-.29-.23-.26-.27-.22-.3-.18-.32-.12-.34-.07-.26-.01h-52.36l.27.01-.35-.01-.35.04-.33.1-.32.14-.28.2-.25.24-.21.28-.16.31-.11.33-.06.34-.01.18v7.02l.01-.17v.35l.06.34.11.33.16.31.21.27.25.25.28.19.32.15.33.1.35.04z" style="stroke-width:0.53;fill:#FFFFFF;fill-opacity:0.50"/><text x="280.17" y="192.16" lengthAdjust="spacingAndGlyphs" style="font-size:5.69px;font-family:&quot;Liberation Sans&quot;" text-anchor="middle" textLength="49.47">5308 N 69TH LLC</text><path d="M194.74 157.23h52.92l-.08-.01.34-.01.35-.07.32-.12.3-.18.27-.22.23-.26.19-.29.13-.32.09-.34.02-.34h0v-7.03h0l-.02-.35-.09-.33-.13-.32-.19-.3-.23-.26-.27-.22-.3-.17-.32-.13-.35-.06-.26-.02h-52.92l.26.02-.35-.02-.34.04-.34.1-.31.15-.29.2-.25.24-.21.27-.16.31-.11.33-.06.35v7.2-.18.35l.06.34.11.33.16.31.21.28.25.24.29.2.31.15.34.09.34.04z" style="stroke-width:0.53;fill:#FFFFFF;fill-opacity:0.50"/><text x="221.2" y="153.63" lengthAdjust="spacingAndGlyphs" style="font-size:5.69px;font-family:&quot;Liberation Sans&quot;" text-anchor="middle" textLength="50.05">5031 N 63RD LLC</text><path d="M157.45 183.25h60.3-.09l.35-.01.34-.07.32-.12.3-.18.27-.22.23-.26.19-.29.13-.32.09-.34.03-.35h0v-7.02h0l-.03-.35-.09-.34-.13-.32-.19-.29-.23-.26-.27-.22-.3-.17-.32-.13-.34-.07-.26-.01h-60.3l.26.01-.34-.01-.35.04-.33.1-.32.15-.28.19-.25.24-.21.28-.16.31-.11.33-.06.34-.01.18v7.02l.01-.17v.35l.06.34.11.33.16.31.21.28.25.24.28.2.32.14.33.1.35.04z" style="stroke-width:0.53;fill:#FFFFFF;fill-opacity:0.50"/><text x="187.6" y="179.65" lengthAdjust="spacingAndGlyphs" style="font-size:5.69px;font-family:&quot;Liberation Sans&quot;" text-anchor="middle" textLength="57.41">DENENE LODGE LLC</text><path d="M49.2 354.83h61.24-.08l.34-.01.35-.07.32-.13.3-.17.27-.22.23-.26.19-.29.13-.32.09-.34.02-.35h0v-7.03h0l-.02-.34-.09-.34-.13-.32-.19-.29-.23-.26-.27-.22-.3-.18-.32-.12-.35-.07-.26-.02H49.2l.26.02-.35-.01-.34.04-.33.09-.32.15-.28.2-.26.24-.2.28-.17.31-.11.33-.05.34-.01.17v7.03l.01-.17v.35l.05.34.11.33.17.31.2.27.26.24.28.2.32.15.33.1.34.04z" style="stroke-width:0.53;fill:#FFFFFF;fill-opacity:0.50"/><text x="79.82" y="351.23" lengthAdjust="spacingAndGlyphs" style="font-size:5.69px;font-family:&quot;Liberation Sans&quot;" text-anchor="middle" textLength="58.36">4667 N 45TH ST LLC</text><path d="M188.05 516.9h52.35-.08l.34-.02.35-.07.32-.12.3-.17.27-.22.23-.26.19-.3.13-.32.09-.33.02-.35h0v-7.03h0l-.02-.34-.09-.34-.13-.32-.19-.29-.23-.27-.27-.21-.3-.18-.32-.12-.35-.07-.26-.02h-52.35l.26.02-.34-.02-.35.05-.33.09-.32.15-.28.2-.25.24-.21.28-.16.31-.11.33-.06.34-.01.17v7.03l.01-.17v.34l.06.35.11.33.16.3.21.28.25.24.28.2.32.15.33.1.35.04z" style="stroke-width:0.53;fill:#FFFFFF;fill-opacity:0.50"/><text x="214.23" y="513.3" lengthAdjust="spacingAndGlyphs" style="font-size:5.69px;font-family:&quot;Liberation Sans&quot;" text-anchor="middle" textLength="49.47">4505 N 44TH LLC</text><path d="M122.82 374.52h67.08l-.08-.01.34-.01.34-.07.33-.12.3-.18.27-.22.23-.26.19-.29.13-.32.08-.34.03-.34h0v-23.42h0l-.03-.35-.08-.33-.13-.32-.19-.3-.23-.26-.27-.22-.3-.17-.33-.12-.34-.07-.26-.02h-67.08l.26.02-.35-.02-.34.04-.34.1-.31.15-.29.2-.25.24-.21.28-.16.3-.11.33-.05.35-.01.17v23.42l.01-.18v.35l.05.34.11.33.16.31.21.28.25.24.29.2.31.15.34.09.34.04z" style="stroke-width:0.53;fill:#FFFFFF;fill-opacity:0.50"/><text x="156.36" y="354.53" lengthAdjust="spacingAndGlyphs" style="font-size:5.69px;font-family:&quot;Liberation Sans&quot;" text-anchor="middle" textLength="42.08">7 GORDON ST,</text><text x="156.36" y="362.72" lengthAdjust="spacingAndGlyphs" style="font-size:5.69px;font-family:&quot;Liberation Sans&quot;" text-anchor="middle" textLength="64.2">ESSENDON, VICTORIA,</text><text x="156.36" y="370.92" lengthAdjust="spacingAndGlyphs" style="font-size:5.69px;font-family:&quot;Liberation Sans&quot;" text-anchor="middle" textLength="18.11">30400</text><path d="M240.81 365.34h67.22-.08l.34-.01.34-.07.33-.12.3-.18.27-.22.23-.26.19-.29.13-.32.08-.34.03-.35h0v-15.22h0l-.03-.34-.08-.34-.13-.32-.19-.29-.23-.26-.27-.22-.3-.18-.33-.12-.34-.07-.26-.02h-67.22l.26.02-.34-.02-.35.05-.33.09-.32.15-.28.2-.25.24-.21.28-.16.31-.11.33-.06.34-.01.17v15.22l.01-.17v.35l.06.34.11.33.16.31.21.28.25.24.28.2.32.14.33.1.35.04z" style="stroke-width:0.53;fill:#FFFFFF;fill-opacity:0.50"/><text x="274.42" y="353.55" lengthAdjust="spacingAndGlyphs" style="font-size:5.69px;font-family:&quot;Liberation Sans&quot;" text-anchor="middle" textLength="48.05">4727 N 69TH ST,</text><text x="274.42" y="361.74" lengthAdjust="spacingAndGlyphs" style="font-size:5.69px;font-family:&quot;Liberation Sans&quot;" text-anchor="middle" textLength="64.34">MILWAUKEE, WI 53218</text><path d="M464.69 399.21h71.23-.09l.35-.02.34-.07.33-.12.3-.17.27-.22.23-.26.18-.3.14-.32.08-.34.03-.34h0v-23.42h0l-.03-.34-.08-.34-.14-.32-.18-.3-.23-.26-.27-.22-.3-.17-.33-.12-.34-.07-.26-.02h-71.23l.26.02-.35-.02-.34.05-.34.09-.31.15-.29.2-.25.24-.2.28-.17.31-.11.33-.05.34-.01.17v23.42l.01-.18v.35l.05.35.11.32.17.31.2.28.25.24.29.2.31.15.34.09.34.05z" style="stroke-width:0.53;fill:#FFFFFF;fill-opacity:0.50"/><text x="500.31" y="379.22" lengthAdjust="spacingAndGlyphs" style="font-size:5.69px;font-family:&quot;Liberation Sans&quot;" text-anchor="middle" textLength="37.28">72 WARD ST,</text><text x="500.31" y="387.41" lengthAdjust="spacingAndGlyphs" style="font-size:5.69px;font-family:&quot;Liberation Sans&quot;" text-anchor="middle" textLength="68.35">MELBOURNE, VICTORIA,</text><text x="500.31" y="395.61" lengthAdjust="spacingAndGlyphs" style="font-size:5.69px;font-family:&quot;Liberation Sans&quot;" text-anchor="middle" textLength="18.11">30460</text></g><g clip-path="url(#cpMC4wMHw1NzYuMDB8MC4wMHw1NzYuMDA=)"><circle cx="194.25" cy="97.06" r="1.95" style="stroke-width:0.71;stroke:none;fill:#F8766D"/><path d="m270.6 94.02 2.63 4.56h-5.27z" style="stroke-width:0.71;stroke:none;fill:#00BA38"/><path d="M336.57 99.01h3.91V95.1h-3.91z" style="stroke-width:0.71;stroke:none;fill:#619CFF"/><text x="208.37" y="100.22" lengthAdjust="spacingAndGlyphs" style="font-size:8.80px;font-weight:0;font-family:&quot;Nimbus Sans Narrow&quot;" textLength="48.11">mprop address</text><text x="284.72" y="100.22" lengthAdjust="spacingAndGlyphs" style="font-size:8.80px;font-weight:0;font-family:&quot;Nimbus Sans Narrow&quot;" textLength="39.69">owner name</text><text x="352.64" y="100.22" lengthAdjust="spacingAndGlyphs" style="font-size:8.80px;font-weight:0;font-family:&quot;Nimbus Sans Narrow&quot;" textLength="40.49">wdfi address</text><text x="32.63" y="65.35" lengthAdjust="spacingAndGlyphs" style="font-size:12.00px;font-weight:0;font-family:&quot;Nimbus Sans Narrow&quot;" textLength="241.18">includes 7 parcels, 7 units, and 7 distinct owner names.</text><text x="32.63" y="42.81" lengthAdjust="spacingAndGlyphs" style="font-size:18.00px;font-weight:0;font-family:&quot;Nimbus Sans Narrow&quot;" textLength="194.43">4505 N 44TH LLC etc Group</text></g></svg>