<svg xmlns="http://www.w3.org/2000/svg" width="576" height="672" class="svglite" viewBox="0 0 432 504"><defs><style><![CDATA[.svglite line,.svglite polyline,.svglite polygon,.svglite path,.svglite circle{fill:none;stroke:#000000;stroke-linecap:round;stroke-linejoin:round;stroke-miterlimit:10.00}.svglite text{white-space:pre}]]></style></defs><rect width="100%" height="100%" style="stroke-linecap:round;stroke-linejoin:round;stroke-miterlimit:10.00;stroke:none;fill:#FFFFFF"/><defs><clipPath id="cpMC4wMHw0MzIuMDB8MC4wMHw1MDQuMDA="><path d="M0 0h432v504H0z"/></clipPath></defs><g clip-path="url(#cpMC4wMHw0MzIuMDB8MC4wMHw1MDQuMDA=)"><path d="M0 0h432v504H0z" style="stroke-width:1.07;stroke:none;fill:#FFFFFF"/></g><defs><clipPath id="cpMzIuNjN8NDAyLjExfDEyMi4xNHw0NzEuMzc="><path d="M32.63 122.14h369.48v349.24H32.63z"/></clipPath></defs><g clip-path="url(#cpMzIuNjN8NDAyLjExfDEyMi4xNHw0NzEuMzc=)"><path d="m189.74 326.91-1.36-.6-1.37-.59-1.36-.59-1.37-.57-1.37-.57-1.37-.57-1.37-.55-1.37-.55-1.37-.54-1.38-.53-1.37-.52-1.38-.52-1.37-.51-1.38-.5-1.38-.49-1.38-.49-1.38-.48-1.38-.47-1.39-.47-1.38-.45-1.39-.45-1.39-.44-1.38-.43-1.39-.43-1.39-.42-1.39-.41-1.4-.4-1.39-.4-1.39-.39-1.4-.38-1.39-.37-1.4-.37-1.4-.35-1.4-.35-1.4-.35-1.4-.33-1.41-.33-1.4-.32-1.41-.31-1.4-.31-1.41-.29-1.41-.29-1.41-.29-1.41-.27-1.41-.27-1.41-.26-1.42-.25-1.41-.24-1.42-.24-1.42-.23-1.42-.22-1.42-.21-1.42-.21-1.42-.2-1.42-.19-1.42-.18-1.43-.18-1.43-.17-1.42-.16-1.43-.15-1.43-.15-1.43-.14-1.43-.13-1.44-.12-1.43-.12-1.43-.1-1.44-.1-1.44-.1-1.43-.08-1.44-.08-1.44-.07-1.45-.06-1.44-.06-1.44-.04-1.45-.04-1.44-.04-1.45-.02-1.45-.02-1.45-.01h-1.45l-1.45.01-1.45.01-1.45.02-1.46.03-1.45.03-1.46.05-1.46.05-1.46.06-1.46.06-1.46.08-1.46.08-1.46.09-1.47.09-1.46.11-1.47.11-1.47.12-1.47.13-1.47.13-1.47.14m140.32 22.68.45-1.45.43-1.46.42-1.45.41-1.45.4-1.45.39-1.45.37-1.45.37-1.44.35-1.45.34-1.44.33-1.44.31-1.44.31-1.44.29-1.44.28-1.44.27-1.44.26-1.43.25-1.44.23-1.43.23-1.43.21-1.43.2-1.43.19-1.43.17-1.43.17-1.42.15-1.43.15-1.42.13-1.43.11-1.42.11-1.42.1-1.42.08-1.41.07-1.42.06-1.42.05-1.41.04-1.41.02-1.41.02-1.42v-1.4l-.01-1.41-.02-1.41-.04-1.41-.04-1.4-.06-1.4-.07-1.41-.08-1.4-.09-1.4-.1-1.4-.12-1.39-.12-1.4-.14-1.4-.15-1.39-.16-1.39-.18-1.39-.18-1.39-.2-1.39-.21-1.39-.22-1.39-.23-1.39-.24-1.38-.26-1.38-.26-1.39-.28-1.38-.29-1.38-.3-1.37-.32-1.38-.32-1.38-.34-1.37-.35-1.38-.36-1.37-.37-1.37-.38-1.37-.4-1.37-.4-1.37-.42-1.37-.43-1.36-.44-1.37-.46-1.36-.46-1.36-.48-1.36-.49-1.36-.5-1.36-.51-1.36-.52-1.36-.54-1.35-.54-1.35-.56-1.36-.57-1.35-.58-1.35-.6-1.35-.6-1.35-.62-1.34-.63-1.35-.64-1.34-.65-1.35-.66-1.34-.68-1.34-.68-1.34-.7-1.34" style="stroke-width:1.07;stroke:#000000;stroke-opacity:0.10;stroke-linecap:butt"/><path d="m189.74 326.91-1.39-.41-1.39-.41-1.39-.41-1.4-.4-1.39-.4-1.39-.4-1.4-.39-1.39-.39-1.39-.38-1.4-.38-1.4-.38-1.39-.37-1.4-.37-1.4-.37-1.4-.36-1.39-.36-1.4-.35-1.4-.35-1.4-.35-1.4-.34-1.41-.34-1.4-.34-1.4-.33-1.4-.32-1.41-.33-1.4-.32-1.41-.31-1.4-.32-1.41-.3-1.4-.31-1.41-.3-1.41-.3-1.41-.29-1.41-.29-1.4-.29-1.41-.28-1.41-.28-1.42-.27-1.41-.27-1.41-.27-1.41-.26-1.41-.26-1.42-.26-1.41-.25-1.42-.25-1.41-.24-1.42-.24-1.41-.24-1.42-.23-1.42-.23-1.42-.23-1.41-.22-1.42-.22-1.42-.21-1.42-.21-1.42-.21-1.42-.2-1.43-.2-1.42-.19-1.42-.19-1.42-.19-1.43-.18-1.42-.18-1.43-.18-1.42-.17-1.43-.17-1.43-.17-1.42-.16-1.43-.15-1.43-.16-1.43-.15-1.43-.14-1.43-.14-1.43-.14-1.43-.14-1.43-.13-1.43-.12-1.44-.13-1.43-.12-1.43-.11-1.44-.11-1.43-.11-1.44-.11-1.43-.1-1.44-.09-1.44-.1-1.43-.09-1.44-.08-1.44-.08-1.44-.08-1.44-.07-1.44-.07-1.44-.07-1.44-.06-1.44-.06-1.45-.06-1.44-.05-1.44-.04-1.45-.05m140.32 22.68.28-1.44.28-1.43.26-1.44.26-1.44.25-1.43.24-1.43.23-1.44.22-1.43.22-1.43.2-1.43.2-1.43.19-1.43.18-1.43.18-1.42.16-1.43.16-1.42.15-1.43.14-1.42.13-1.42.12-1.43.12-1.42.11-1.42.09-1.42.09-1.41.09-1.42.07-1.42.06-1.41.06-1.42.05-1.41.04-1.42.03-1.41.03-1.41.01-1.41.01-1.41v-1.41l-.01-1.41-.02-1.41-.03-1.4-.03-1.41-.05-1.4-.05-1.41-.06-1.4-.07-1.4-.07-1.4-.09-1.41-.09-1.4-.1-1.39-.11-1.4-.12-1.4-.13-1.4-.13-1.39-.15-1.4-.15-1.39-.16-1.39-.17-1.4-.17-1.39-.19-1.39-.19-1.39-.2-1.39-.21-1.38-.22-1.39-.23-1.39-.23-1.38-.25-1.39-.25-1.38-.26-1.38-.27-1.39-.27-1.38-.29-1.38-.29-1.38-.3-1.38-.31-1.37-.32-1.38-.33-1.38-.33-1.37-.35-1.38-.35-1.37-.36-1.37-.37-1.38-.37-1.37-.39-1.37-.39-1.37-.4-1.36-.41-1.37-.42-1.37-.43-1.37-.43-1.36-.44-1.36-.46-1.37-.46-1.36-.46-1.36-.48-1.36-.49-1.36-.49-1.36-.5-1.36-.51-1.36-.52-1.36-.53-1.35-.53-1.36" style="stroke-width:1.07;stroke:#000000;stroke-opacity:0.10;stroke-linecap:butt"/><path d="m189.74 326.91-1.42-.23-1.41-.23-1.42-.23-1.42-.23-1.42-.22-1.41-.23-1.42-.23-1.42-.23-1.42-.23-1.41-.23-1.42-.23-1.42-.23-1.42-.23-1.41-.23-1.42-.23-1.42-.22-1.41-.23-1.42-.23-1.42-.23-1.42-.23-1.41-.23-1.42-.23-1.42-.23-1.42-.23-1.41-.23-1.42-.23-1.42-.22-1.42-.23-1.41-.23-1.42-.23-1.42-.23-1.42-.23-1.41-.23-1.42-.23-1.42-.23-1.41-.23-1.42-.23-1.42-.22-1.42-.23-1.41-.23-1.42-.23-1.42-.23-1.42-.23-1.41-.23-1.42-.23-1.42-.23-1.42-.23-1.41-.23-1.42-.22-1.42-.23-1.41-.23-1.42-.23-1.42-.23-1.42-.23-1.41-.23-1.42-.23-1.42-.23-1.42-.23-1.41-.23-1.42-.22-1.42-.23-1.42-.23-1.41-.23-1.42-.23-1.42-.23-1.42-.23-1.41-.23-1.42-.23-1.42-.23-1.41-.23-1.42-.22-1.42-.23-1.42-.23-1.41-.23-1.42-.23-1.42-.23-1.42-.23-1.41-.23-1.42-.23-1.42-.23-1.42-.22-1.41-.23-1.42-.23-1.42-.23-1.41-.23-1.42-.23-1.42-.23-1.42-.23-1.41-.23-1.42-.23-1.42-.23-1.42-.22-1.41-.23-1.42-.23-1.42-.23-1.42-.23-1.41-.23-1.42-.23-1.42-.23m140.32 22.68.12-1.42.11-1.42.11-1.42.1-1.42.1-1.42.1-1.42.08-1.42.09-1.42.08-1.41.07-1.42.07-1.42.06-1.41.06-1.42.05-1.41.05-1.42.05-1.41.03-1.41.04-1.41.03-1.42.02-1.41.02-1.41.01-1.41.01-1.41v-4.23l-.02-1.41-.01-1.4-.02-1.41-.03-1.41-.03-1.4-.04-1.41-.04-1.4-.05-1.41-.05-1.4-.06-1.41-.06-1.4-.06-1.4-.08-1.4-.07-1.4-.08-1.41-.09-1.4-.09-1.4-.1-1.4-.1-1.39-.11-1.4-.11-1.4-.11-1.4-.13-1.4-.12-1.39-.13-1.4-.14-1.39-.14-1.4-.15-1.39-.15-1.4-.16-1.39-.16-1.39-.17-1.4-.17-1.39-.17-1.39-.19-1.39-.18-1.39-.19-1.39-.2-1.39-.2-1.39-.21-1.39-.21-1.38-.22-1.39-.22-1.39-.22-1.38-.24-1.39-.23-1.39-.24-1.38-.25-1.38-.25-1.39-.26-1.38-.26-1.38-.27-1.39-.27-1.38-.28-1.38-.28-1.38-.28-1.38-.3-1.38-.29-1.38-.3-1.38-.31-1.38-.31-1.37-.32-1.38-.32-1.38-.33-1.37-.33-1.38-.34-1.37-.34-1.38-.34-1.37-.36-1.38-.35-1.37-.36-1.37-.37-1.37-.37-1.38" style="stroke-width:1.07;stroke:#000000;stroke-opacity:0.10;stroke-linecap:butt"/><path d="m189.74 326.91-1.44-.04-1.45-.05-1.44-.05-1.44-.06-1.45-.05-1.44-.07-1.44-.06-1.44-.07-1.44-.08-1.44-.08-1.44-.08-1.43-.08-1.44-.09-1.44-.09-1.43-.1-1.44-.1-1.44-.11-1.43-.1-1.44-.11-1.43-.12-1.43-.12-1.43-.12-1.44-.13-1.43-.13-1.43-.13-1.43-.14-1.43-.14-1.43-.15-1.43-.15-1.43-.15-1.42-.16-1.43-.16-1.43-.17-1.42-.16-1.43-.18-1.42-.17-1.43-.18-1.42-.19-1.43-.18-1.42-.2-1.42-.19-1.42-.2-1.42-.2-1.43-.21-1.42-.21-1.41-.21-1.42-.22-1.42-.22-1.42-.23-1.42-.23-1.41-.23-1.42-.24-1.42-.24-1.41-.24-1.42-.25-1.41-.25-1.41-.26-1.42-.26-1.41-.26-1.41-.27-1.41-.27-1.41-.27-1.41-.28-1.41-.28-1.41-.29-1.41-.29-1.41-.29-1.41-.3-1.4-.3-1.41-.3-1.41-.31-1.4-.31-1.41-.32-1.4-.32-1.4-.32-1.41-.33-1.4-.33-1.4-.34-1.4-.34-1.4-.34-1.4-.35-1.4-.35-1.4-.35-1.4-.36-1.4-.36-1.4-.36-1.39-.37-1.4-.38-1.4-.37-1.39-.38-1.4-.39-1.39-.39-1.4-.39-1.39-.39-1.39-.4-1.39-.41-1.4-.4-1.39-.41-1.39-.42m140.32 22.68-.04-1.4-.05-1.41-.05-1.4-.05-1.41-.05-1.4-.05-1.4-.06-1.41-.06-1.4-.05-1.41-.06-1.4-.07-1.4-.06-1.4-.06-1.41-.07-1.4-.07-1.4-.07-1.4-.07-1.41-.07-1.4-.08-1.4-.07-1.4-.08-1.4-.08-1.4-.08-1.4-.09-1.41-.08-1.4-.09-1.4-.09-1.4-.09-1.4-.09-1.4-.09-1.4-.1-1.4-.09-1.4-.1-1.4-.1-1.39-.1-1.4-.11-1.4-.1-1.4-.11-1.4-.11-1.4-.11-1.4-.11-1.39-.11-1.4-.12-1.4-.11-1.4-.12-1.39-.12-1.4-.12-1.4-.13-1.39-.12-1.4-.13-1.4-.13-1.39-.13-1.4-.13-1.4-.13-1.39-.13-1.4-.14-1.39-.14-1.4-.14-1.39-.14-1.4-.14-1.39-.15-1.4-.15-1.39-.14-1.4-.15-1.39-.16-1.39-.15-1.4-.15-1.39-.16-1.39-.16-1.4-.16-1.39-.16-1.39-.16-1.4-.17-1.39-.17-1.39-.16-1.39-.17-1.4-.17-1.39-.18-1.39-.17-1.39-.18-1.39-.18-1.39-.18-1.39-.18-1.4-.18-1.39-.19-1.39-.18-1.39-.19-1.39-.19-1.39-.19-1.39-.2-1.39-.19-1.39-.2-1.39-.2-1.38-.2-1.39-.2-1.39-.2-1.39-.21-1.39-.2-1.39-.21-1.39m208.11-50.65-1.01.88-1 .88-1 .89-1.01.88-1 .88-1.01.88-1 .88-1.01.89-1 .88-1 .88-1.01.88-1 .88-1.01.88-1 .89-1 .88-1.01.88-1 .88-1.01.88-1 .88-1 .89-1.01.88-1 .88-1.01.88-1 .88-1 .88-1.01.89-1 .88-1.01.88-1 .88-1.01.88-1 .88-1 .89-1.01.88-1 .88-1.01.88-1 .88-1 .88-1.01.89-1 .88-1.01.88-1 .88-1 .88-1.01.88-1 .89-1.01.88-1 .88-1 .88-1.01.88-1 .89-1.01.88-1 .88-1 .88-1.01.88-1 .88-1.01.89-1 .88-1.01.88-1 .88-1 .88-1.01.88-1 .89-1.01.88-1 .88-1 .88-1.01.88-1 .88-1.01.89-1 .88-1 .88-1.01.88-1 .88-1.01.88-1 .89-1 .88-1.01.88-1 .88-1.01.88-1 .88-1 .89-1.01.88-1 .88-1.01.88-1 .88-1.01.89-1 .88-1 .88-1.01.88-1 .88-1.01.88-1 .89-1 .88-1.01.88-1 .88-1.01.88-1 .88-1 .89-1.01.88-1 .88-1.01.88m-96.17 101.61-.6 1.3-.61 1.3-.6 1.3-.6 1.3-.61 1.3-.6 1.29-.6 1.3-.61 1.3-.6 1.3-.6 1.3-.6 1.3-.61 1.3-.6 1.3-.6 1.3-.61 1.29-.6 1.3-.6 1.3-.61 1.3-.6 1.3-.6 1.3-.61 1.3-.6 1.3-.6 1.29-.61 1.3-.6 1.3-.6 1.3-.6 1.3-.61 1.3-.6 1.3-.6 1.3-.61 1.3-.6 1.29-.6 1.3-.61 1.3-.6 1.3-.6 1.3-.61 1.3-.6 1.3-.6 1.3-.61 1.3-.6 1.29-.6 1.3-.61 1.3-.6 1.3-.6 1.3-.6 1.3-.61 1.3-.6 1.3-.6 1.3-.61 1.29-.6 1.3-.6 1.3-.61 1.3-.6 1.3-.6 1.3-.61 1.3-.6 1.3-.6 1.29-.61 1.3-.6 1.3-.6 1.3-.6 1.3-.61 1.3-.6 1.3-.6 1.3-.61 1.3-.6 1.29-.6 1.3-.61 1.3-.6 1.3-.6 1.3-.61 1.3-.6 1.3-.6 1.3-.61 1.3-.6 1.29-.6 1.3-.61 1.3-.6 1.3-.6 1.3-.6 1.3-.61 1.3-.6 1.3-.6 1.3-.61 1.29-.6 1.3-.6 1.3-.61 1.3-.6 1.3-.6 1.3-.61 1.3-.6 1.3-.6 1.29-.61 1.3-.6 1.3-.6 1.3-.6 1.3-.61 1.3-.6 1.3" style="stroke-width:1.07;stroke:#000000;stroke-opacity:0.10;stroke-linecap:butt"/><path d="m189.74 326.91-.21-1.39-.2-1.39-.21-1.38-.2-1.39-.2-1.39-.2-1.39-.2-1.39-.2-1.39-.19-1.39-.2-1.39-.19-1.39-.19-1.39-.19-1.39-.18-1.39-.19-1.39-.18-1.39-.18-1.39-.18-1.39-.18-1.39-.18-1.39-.17-1.4-.18-1.39-.17-1.39-.17-1.39-.17-1.39-.16-1.4-.17-1.39-.16-1.39-.16-1.39-.16-1.4-.16-1.39-.16-1.39-.15-1.4-.16-1.39-.15-1.39-.15-1.4-.15-1.39-.14-1.4-.15-1.39-.14-1.4-.14-1.39-.14-1.4-.14-1.39-.14-1.4-.13-1.39-.13-1.4-.14-1.39-.13-1.4-.12-1.4-.13-1.39-.13-1.4-.12-1.4-.12-1.39-.12-1.4-.12-1.4-.12-1.4-.11-1.39-.11-1.4-.12-1.4-.11-1.4-.1-1.4-.11-1.39-.11-1.4-.1-1.4-.1-1.4-.1-1.4-.1-1.4-.09-1.4-.1-1.4-.09-1.4-.09-1.4-.09-1.4-.09-1.4-.09-1.4-.08-1.4-.09-1.4-.08-1.4-.08-1.4-.08-1.4-.07-1.41-.08-1.4-.07-1.4-.07-1.4-.07-1.4-.07-1.41-.07-1.4-.06-1.4-.07-1.4-.06-1.41-.06-1.4-.06-1.4-.05-1.41-.06-1.4-.05-1.4-.05-1.41-.05-1.4-.05-1.41-.05-1.4-.04-1.41m12.53 138.25-1.47.14-1.47.14-1.47.12-1.47.12-1.46.11-1.47.11-1.46.1-1.47.08-1.46.09-1.46.07-1.46.07-1.46.05-1.46.06-1.45.04-1.46.03-1.45.03-1.46.02-1.45.02h-2.9l-1.45-.01-1.45-.02-1.45-.02-1.44-.03-1.45-.04-1.44-.05-1.44-.06-1.44-.06-1.44-.07-1.44-.08-1.44-.08-1.44-.09-1.43-.1-1.44-.11-1.43-.12-1.44-.12-1.43-.13-1.43-.14-1.43-.15-1.42-.15-1.43-.16-1.43-.17-1.42-.17-1.43-.19-1.42-.19-1.42-.2-1.42-.2-1.42-.22-1.42-.22-1.42-.23-1.41-.24-1.42-.24-1.41-.25-1.42-.26-1.41-.27-1.41-.27-1.41-.28-1.41-.29-1.4-.3-1.41-.31-1.41-.31-1.4-.32-1.4-.33-1.41-.33-1.4-.34-1.4-.35-1.4-.36-1.39-.37-1.4-.37-1.39-.38-1.4-.39-1.39-.39-1.39-.41-1.4-.41-1.39-.42-1.38-.42-1.39-.44-1.39-.44-1.38-.45-1.39-.45-1.38-.47-1.39-.47-1.38-.48-1.38-.48-1.38-.5-1.37-.5-1.38-.51-1.38-.51-1.37-.53-1.37-.53-1.38-.54-1.37-.55-1.37-.55-1.37-.56-1.37-.57-1.36-.58-1.37-.59-1.36-.59-1.37-.6" style="stroke-width:1.07;stroke:#000000;stroke-opacity:0.10;stroke-linecap:butt"/><path d="m189.74 326.91-.37-1.37-.37-1.37-.36-1.38-.36-1.37-.35-1.37-.34-1.38-.35-1.37-.33-1.38-.33-1.37-.33-1.38-.32-1.37-.32-1.38-.31-1.38-.31-1.38-.3-1.38-.3-1.38-.29-1.37-.28-1.39-.29-1.38-.27-1.38-.27-1.38-.27-1.38-.26-1.38-.26-1.39-.25-1.38-.25-1.39-.24-1.38-.24-1.39-.23-1.38-.22-1.39-.23-1.38-.21-1.39-.21-1.39-.21-1.39-.2-1.39-.2-1.39-.19-1.39-.19-1.39-.18-1.39-.17-1.39-.18-1.39-.16-1.39-.16-1.4-.16-1.39-.15-1.39-.15-1.4-.14-1.39-.14-1.4-.13-1.39-.13-1.4-.12-1.4-.11-1.39-.12-1.4-.1-1.4-.1-1.4-.1-1.4-.09-1.4-.09-1.4-.08-1.4-.08-1.4-.07-1.4-.06-1.41-.07-1.4-.05-1.4-.05-1.41-.05-1.4-.04-1.41-.04-1.4-.03-1.41-.03-1.4-.02-1.41-.02-1.41-.01-1.41v-4.22l.01-1.42.01-1.41.02-1.41.02-1.41.03-1.41.03-1.41.04-1.42.05-1.41.04-1.41.06-1.42.06-1.41.06-1.42.07-1.42.07-1.41.08-1.42.08-1.42.09-1.42.1-1.41.09-1.42.11-1.42.11-1.42.11-1.42.12-1.43m12.53 138.25 1 1.06 1 1.07 1 1.06 1.01 1.06 1 1.07 1 1.06 1 1.06 1 1.07 1 1.06 1 1.06 1 1.07 1.01 1.06 1 1.06 1 1.07 1 1.06 1 1.06 1 1.07 1 1.06 1 1.06 1.01 1.07 1 1.06 1 1.06 1 1.07 1 1.06 1 1.06 1 1.07 1.01 1.06 1 1.07 1 1.06 1 1.06 1 1.07 1 1.06 1 1.06 1 1.07 1.01 1.06 1 1.06 1 1.07 1 1.06 1 1.06 1 1.07 1 1.06 1 1.06 1.01 1.07 1 1.06 1 1.06 1 1.07 1 1.06 1 1.06 1 1.07 1 1.06 1.01 1.06 1 1.07 1 1.06 1 1.06 1 1.07 1 1.06 1 1.06 1.01 1.07 1 1.06 1 1.06 1 1.07 1 1.06 1 1.06 1 1.07 1 1.06 1.01 1.06 1 1.07 1 1.06 1 1.06 1 1.07 1 1.06 1 1.06 1 1.07 1.01 1.06 1 1.06 1 1.07 1 1.06 1 1.06 1 1.07 1 1.06 1.01 1.06 1 1.07 1 1.06 1 1.06 1 1.07 1 1.06 1 1.06 1 1.07 1.01 1.06 1 1.06 1 1.07 1 1.06 1 1.06 1 1.07 1 1.06 1 1.06 1.01 1.07 1 1.06 1 1.06" style="stroke-width:1.07;stroke:#000000;stroke-opacity:0.10;stroke-linecap:butt"/><path d="m189.74 326.91-.53-1.35-.53-1.36-.52-1.36-.51-1.35-.5-1.36-.49-1.36-.49-1.36-.48-1.36-.47-1.36-.46-1.37-.45-1.36-.44-1.37-.44-1.36-.42-1.37-.42-1.36-.41-1.37-.4-1.37-.39-1.37-.39-1.37-.38-1.37-.36-1.37-.36-1.37-.36-1.38-.34-1.37-.33-1.38-.33-1.37-.32-1.38-.31-1.38-.3-1.38-.29-1.38-.29-1.38-.28-1.38-.26-1.38-.26-1.38-.26-1.39-.24-1.38-.23-1.39-.23-1.38-.22-1.39-.21-1.39-.2-1.39-.19-1.39-.19-1.39-.18-1.39-.16-1.39-.16-1.39-.16-1.4-.14-1.39-.13-1.4-.13-1.4-.12-1.39-.11-1.4-.1-1.4-.09-1.4-.09-1.4-.07-1.4-.07-1.4-.06-1.41-.05-1.4-.05-1.41-.03-1.4-.03-1.41-.02-1.41-.01-1.4v-1.41l.01-1.41.01-1.41.03-1.42.03-1.41.04-1.41.05-1.42.05-1.41.07-1.42.07-1.41.08-1.42.09-1.42.1-1.42.11-1.42.11-1.42.13-1.42.13-1.42.14-1.43.15-1.42.16-1.43.16-1.42.17-1.43.19-1.43.19-1.43.19-1.43.21-1.43.22-1.43.22-1.43.23-1.43.24-1.44.25-1.43.26-1.44.26-1.43.28-1.44.28-1.44m12.53 138.25.97-1.03.97-1.02.97-1.03.98-1.02.97-1.03.97-1.03.97-1.02.97-1.03.97-1.03.97-1.02.98-1.03.97-1.03.97-1.02.97-1.03.97-1.02.97-1.03.97-1.03.98-1.02.97-1.03.97-1.03.97-1.02.97-1.03.97-1.03.97-1.02.98-1.03.97-1.02.97-1.03.97-1.03.97-1.02.97-1.03.98-1.03.97-1.02.97-1.03.97-1.03.97-1.02.97-1.03.97-1.02.98-1.03.97-1.03.97-1.02.97-1.03.97-1.03.97-1.02.97-1.03.98-1.03.97-1.02.97-1.03.97-1.02.97-1.03.97-1.03.97-1.02.98-1.03.97-1.03.97-1.02.97-1.03.97-1.03.97-1.02.97-1.03.98-1.02.97-1.03.97-1.03.97-1.02.97-1.03.97-1.03.97-1.02.98-1.03.97-1.03.97-1.02.97-1.03.97-1.02.97-1.03.97-1.03.98-1.02.97-1.03.97-1.03.97-1.02.97-1.03.97-1.03.97-1.02.98-1.03.97-1.02.97-1.03.97-1.03.97-1.02.97-1.03.97-1.03.98-1.02.97-1.03.97-1.03.97-1.02.97-1.03.97-1.02.97-1.03.98-1.03.97-1.02.97-1.03.97-1.03.97-1.02.97-1.03" style="stroke-width:1.07;stroke:#000000;stroke-opacity:0.10;stroke-linecap:butt"/><path d="m189.74 326.91-.7-1.34-.69-1.34-.67-1.34-.66-1.34-.66-1.34-.64-1.35-.62-1.34-.62-1.35-.61-1.35-.59-1.35-.58-1.35-.57-1.35-.56-1.35-.55-1.36-.53-1.35-.52-1.36-.52-1.35-.5-1.36-.48-1.36-.48-1.36-.47-1.37-.45-1.36-.44-1.36-.43-1.37-.42-1.37-.41-1.36-.39-1.37-.38-1.37-.38-1.37-.36-1.38-.34-1.37-.34-1.38-.33-1.37-.31-1.38-.3-1.38-.29-1.38-.28-1.38-.27-1.38-.25-1.39-.24-1.38-.24-1.39-.21-1.38-.21-1.39-.2-1.39-.18-1.39-.18-1.39-.16-1.4-.15-1.39-.14-1.39-.12-1.4-.12-1.4-.1-1.4-.09-1.4-.08-1.4-.07-1.4-.06-1.4-.04-1.41-.04-1.41-.02-1.4-.01-1.41v-1.41l.02-1.41.02-1.41.04-1.42.05-1.41.06-1.42.07-1.41.08-1.42.1-1.42.1-1.42.12-1.42.13-1.42.14-1.43.16-1.42.16-1.43.18-1.42.19-1.43.2-1.43.21-1.43.22-1.43.24-1.44.25-1.43.25-1.44.28-1.43.28-1.44.29-1.44.31-1.44.31-1.44.33-1.45.34-1.44.35-1.44.37-1.45.37-1.45.39-1.45.4-1.45.41-1.45.42-1.45.43-1.45.45-1.46m0 0 .94.88.95.86.96.85.95.84.96.84.96.82.97.81.97.8.97.79.97.78.98.77.98.76.98.75.99.74.99.73.99.72 1 .71 1 .7 1 .69 1.01.67 1 .67 1.02.66 1.01.65 1.02.63 1.02.63 1.02.62 1.03.6 1.03.6 1.03.58 1.04.58 1.04.56 1.04.56 1.05.54 1.04.54 1.06.52 1.05.52 1.06.5 1.06.49 1.06.49 1.07.47 1.07.46 1.07.45 1.08.44 1.08.44 1.08.42 1.09.41 1.09.4 1.09.39 1.09.38 1.1.37 1.1.36 1.11.35 1.1.34 1.11.33 1.12.32 1.11.31 1.12.29 1.13.29 1.12.28 1.13.27 1.13.25 1.14.25 1.14.24 1.14.22 1.14.22 1.15.21 1.15.19 1.15.19 1.16.17 1.16.17 1.16.15 1.17.15 1.17.13 1.17.12 1.18.12 1.18.1 1.18.09 1.18.09 1.19.07 1.19.06 1.19.05 1.2.04 1.2.04 1.2.02 1.21.01h1.21l1.21-.01 1.22-.02 1.22-.03 1.22-.04 1.22-.05 1.23-.06 1.23-.08 1.24-.08 1.23-.09 1.24-.1 1.25-.11 1.24-.13 1.25-.13" style="stroke-width:1.07;stroke:#000000;stroke-opacity:0.10;stroke-linecap:butt"/><path d="m177.21 188.66.99.73.99.73.99.71 1 .71 1 .7 1 .69 1 .69 1.01.67 1.01.67 1.01.67 1.01.65 1.01.65 1.02.64 1.02.64 1.02.62 1.02.62 1.03.62 1.02.6 1.03.6 1.03.59 1.04.58 1.03.58 1.04.56 1.04.56 1.05.56 1.04.54 1.05.54 1.05.53 1.05.53 1.05.51 1.06.51 1.06.51 1.06.49 1.06.49 1.07.48 1.06.47 1.07.47 1.07.45 1.08.45 1.07.45 1.08.43 1.08.43 1.08.42 1.09.42 1.09.4 1.09.4 1.09.4 1.09.38 1.1.38 1.09.37 1.1.36 1.11.36 1.1.34 1.11.35 1.11.33 1.11.32 1.11.32 1.12.32 1.12.3 1.12.3 1.12.29 1.12.28 1.13.27 1.13.27 1.13.26 1.13.25 1.14.25 1.14.24 1.14.23 1.14.22 1.14.22 1.15.21 1.15.2 1.15.19 1.15.19 1.16.18 1.16.17 1.16.16 1.16.16 1.16.15 1.17.14 1.17.14 1.17.13 1.17.12 1.18.11 1.17.11 1.18.1 1.19.09 1.18.08 1.19.08 1.19.07 1.19.06 1.19.06 1.19.04 1.2.04 1.2.04 1.2.02 1.21.02 1.2.01" style="stroke-width:1.07;stroke:#000000;stroke-opacity:0.10;stroke-linecap:butt"/><path d="m177.21 188.66 1.03.59 1.04.58 1.03.58 1.04.57 1.04.57 1.04.56 1.04.56 1.04.56 1.04.55 1.05.54 1.05.54 1.04.54 1.05.53 1.05.53 1.05.53 1.06.52 1.05.51 1.06.51 1.05.51 1.06.5 1.06.5 1.06.49 1.06.49 1.07.48 1.06.48 1.07.48 1.07.47 1.07.47 1.07.46 1.07.46 1.07.45 1.07.45 1.08.45 1.08.44 1.08.43 1.07.43 1.09.43 1.08.42 1.08.42 1.09.42 1.08.41 1.09.4 1.09.4 1.09.4 1.09.39 1.09.39 1.1.38 1.09.38 1.1.38 1.1.37 1.1.36 1.1.36 1.1.36 1.1.35 1.11.35 1.1.34 1.11.34 1.11.34 1.11.33 1.11.32 1.11.33 1.12.31 1.11.32 1.12.31 1.12.3 1.12.3 1.12.29 1.12.3 1.12.28 1.13.28 1.12.28 1.13.27 1.13.27 1.13.27 1.13.26 1.13.25 1.13.26 1.14.24 1.14.24 1.13.24 1.14.24 1.14.23 1.15.22 1.14.22 1.14.22 1.15.21 1.15.21 1.14.2 1.15.2 1.15.19 1.16.19 1.15.19 1.16.18 1.15.17 1.16.18 1.16.16 1.16.17 1.16.16 1.16.15" style="stroke-width:1.07;stroke:#000000;stroke-opacity:0.10;stroke-linecap:butt"/><path d="m177.21 188.66 1.07.45 1.08.44 1.08.44 1.08.43 1.07.44 1.08.43 1.08.44 1.08.43 1.08.43 1.08.43 1.08.42 1.08.43 1.09.42 1.08.43 1.08.42 1.08.42 1.09.42 1.08.41 1.09.42 1.08.41 1.09.42 1.08.41 1.09.41 1.08.41 1.09.4 1.09.41 1.09.4 1.08.4 1.09.4 1.09.4 1.09.4 1.09.4 1.09.39 1.09.4 1.09.39 1.1.39 1.09.39 1.09.39 1.09.38 1.1.39 1.09.38 1.1.38 1.09.38 1.1.38 1.09.38 1.1.37 1.1.38 1.09.37 1.1.37 1.1.37 1.1.37 1.1.37 1.1.36 1.1.37 1.1.36 1.1.36 1.1.36 1.1.36 1.1.36 1.1.35 1.11.36 1.1.35 1.1.35 1.11.35 1.1.35 1.11.35 1.1.34 1.11.34 1.11.35 1.1.34 1.11.34 1.11.33 1.11.34 1.1.34 1.11.33 1.11.33 1.11.33 1.11.33 1.11.33 1.12.32 1.11.33 1.11.32 1.11.32 1.11.32 1.12.32 1.11.32 1.12.32 1.11.31 1.12.31 1.11.31 1.12.31 1.12.31 1.11.31 1.12.3 1.12.31 1.12.3 1.11.3 1.12.3 1.12.3" style="stroke-width:1.07;stroke:#000000;stroke-opacity:0.10;stroke-linecap:butt"/><path d="m177.21 188.66 1.12.3 1.12.3 1.12.3 1.11.31 1.12.3 1.12.31 1.12.3 1.11.31 1.12.31 1.12.31 1.11.31 1.12.32 1.11.32 1.11.31 1.12.32 1.11.32 1.11.32 1.11.33 1.12.32 1.11.33 1.11.32 1.11.33 1.11.33 1.11.34 1.11.33 1.11.33 1.1.34 1.11.34 1.11.34 1.11.34 1.1.34 1.11.34 1.1.35 1.11.35 1.1.34 1.11.35 1.1.35 1.11.36 1.1.35 1.1.36 1.1.35 1.1.36 1.11.36 1.1.36 1.1.37 1.1.36 1.1.37 1.09.36 1.1.37 1.1.37 1.1.37 1.1.38 1.09.37 1.1.38 1.09.37 1.1.38 1.1.38 1.09.38 1.09.39 1.1.38 1.09.39 1.09.39 1.1.39 1.09.39 1.09.39 1.09.39 1.09.4 1.09.39 1.09.4 1.09.4 1.09.4 1.09.4 1.08.41 1.09.4 1.09.41 1.08.41 1.09.41 1.09.41 1.08.41 1.09.42 1.08.41 1.08.42 1.09.42 1.08.42 1.08.42 1.09.42 1.08.42 1.08.43 1.08.43 1.08.43 1.08.43 1.08.43 1.08.43 1.08.44 1.08.43 1.07.44 1.08.44 1.08.44 1.07.44" style="stroke-width:1.07;stroke:#000000;stroke-opacity:0.10;stroke-linecap:butt"/><path d="m177.21 188.66 1.16.16 1.16.16 1.16.16 1.16.17 1.16.17 1.16.18 1.15.18 1.15.18 1.16.19 1.15.2 1.15.2 1.15.2 1.14.21 1.15.21 1.14.21 1.15.22 1.14.23 1.14.23 1.14.23 1.14.24 1.13.24 1.14.25 1.13.25 1.13.26 1.14.26 1.12.26 1.13.27 1.13.27 1.13.28 1.12.28 1.12.29 1.13.29 1.12.3 1.12.3 1.11.3 1.12.31 1.12.31 1.11.32 1.11.32 1.11.33 1.11.33 1.11.33 1.11.34 1.11.34 1.1.35 1.1.35 1.11.36 1.1.36 1.1.37 1.09.37 1.1.37 1.1.38 1.09.39 1.09.38 1.09.39 1.09.4 1.09.4 1.09.41 1.09.41 1.08.41 1.08.42 1.09.42 1.08.43 1.08.43 1.08.44 1.07.44 1.08.44 1.07.45 1.07.46 1.08.45 1.07.47 1.06.46 1.07.47 1.07.48 1.06.48 1.07.48 1.06.49 1.06.5 1.06.49 1.06.51 1.06.5 1.05.51 1.06.52 1.05.52 1.05.52 1.05.53 1.05.53 1.05.54 1.04.54 1.05.55 1.04.55 1.04.55 1.05.56 1.03.57 1.04.56 1.04.58 1.04.57 1.03.59 1.03.58" style="stroke-width:1.07;stroke:#000000;stroke-opacity:0.10;stroke-linecap:butt"/><path d="m177.21 188.66 1.2.01 1.21.02 1.2.03 1.2.03 1.2.04 1.19.05 1.2.05 1.19.07 1.19.07 1.18.07 1.19.09 1.18.09 1.18.1 1.18.1 1.17.12 1.17.12 1.17.12 1.17.14 1.17.14 1.16.15 1.17.16 1.16.17 1.15.17 1.16.18 1.15.18 1.15.2 1.15.2 1.15.21 1.14.21 1.15.23 1.14.23 1.13.24 1.14.24 1.13.25 1.13.26 1.13.27 1.13.28 1.12.28 1.13.29 1.12.3 1.11.3 1.12.31 1.11.32 1.11.33 1.11.33 1.11.34 1.11.35 1.1.35 1.1.37 1.1.37 1.09.37 1.1.39 1.09.39 1.09.4 1.08.41 1.09.41 1.08.42 1.08.43 1.08.44 1.07.44 1.08.45 1.07.46 1.07.46 1.07.48 1.06.48 1.06.48 1.06.5 1.06.5 1.06.51 1.05.52 1.05.52 1.05.53 1.05.54 1.05.55 1.04.55 1.04.56 1.04.57 1.03.57 1.04.59 1.03.59 1.03.59 1.03.61 1.02.61 1.02.62 1.03.63 1.01.63 1.02.64 1.01.65 1.02.66 1.01.66 1 .67 1.01.68 1 .68 1 .7 1 .7 1 .7.99.72.99.72.99.73" style="stroke-width:1.07;stroke:#000000;stroke-opacity:0.10;stroke-linecap:butt"/><path d="m177.21 188.66 1.25-.13 1.24-.12 1.25-.11 1.24-.11 1.24-.09 1.23-.08 1.23-.07 1.23-.06 1.22-.05 1.22-.04 1.22-.03 1.22-.02 1.21-.01h1.21l1.21.01 1.2.02 1.2.03 1.2.04 1.19.05 1.19.07 1.19.07 1.18.08 1.19.09 1.17.11 1.18.11 1.17.12 1.17.14 1.17.14 1.16.16 1.16.16 1.16.18 1.15.18 1.15.2 1.15.2 1.14.22 1.14.23 1.14.23 1.14.25 1.13.26 1.13.26 1.12.28 1.13.29 1.12.3 1.11.31 1.12.32 1.11.32 1.1.34 1.11.35 1.1.36 1.1.37 1.09.38 1.1.39 1.08.41 1.09.41 1.08.42 1.08.43 1.08.44 1.07.45 1.07.47 1.07.47 1.06.48 1.06.5 1.06.5 1.06.51 1.05.53 1.05.53 1.04.55 1.04.55 1.04.57 1.04.57 1.03.59 1.03.59 1.03.61 1.02.61 1.02.63 1.02.64 1.02.65 1.01.65 1.01.67 1 .68 1 .69 1 .7 1 .7.99.72.99.73.99.74.98.75.98.76.98.77.97.78.98.79.96.81.97.81.96.82.96.83.95.84.96.85.95.87.94.87" style="stroke-width:1.07;stroke:#000000;stroke-opacity:0.10;stroke-linecap:butt"/><path d="m189.74 316.4 9.1 15.76h-18.2zm195.58-180.6 1.91 3.32h-3.83z" style="stroke-width:0.71;stroke:none;fill:#00BA38"/><path d="M170.45 195.42h13.51v-13.51h-13.51z" style="stroke-width:0.71;stroke:none;fill:#619CFF"/><circle cx="49.42" cy="304.23" r="5.45" style="stroke-width:0.71;stroke:none;fill:#F8766D"/><circle cx="285.91" cy="225.3" r="3.44" style="stroke-width:0.71;stroke:none;fill:#F8766D"/><circle cx="130.03" cy="455.5" r="1.42" style="stroke-width:0.71;stroke:none;fill:#F8766D"/><circle cx="288.87" cy="432.18" r="1.42" style="stroke-width:0.71;stroke:none;fill:#F8766D"/><path d="m185.21 331.6 3.75-3.88m-16.57-134.36 4.01-3.91m114.31 31.18-3.99 3.88M134.78 450.78l-3.95 3.92m162.81-27.17-3.96 3.87" style="stroke-width:0.53;stroke:#BFBFBF"/><path d="M164.62 342.95h28.24-.08l.34-.01.34-.07.33-.13.3-.17.27-.22.23-.26.18-.29.14-.32.08-.34.03-.35h0v-7.03h0l-.03-.34-.08-.34-.14-.32-.18-.29-.23-.26-.27-.22-.3-.18-.33-.12-.34-.07-.26-.02h-28.24l.26.02-.35-.01-.35.04-.33.1-.31.14-.29.2-.25.24-.21.28-.16.31-.11.33-.06.34v7.2-.17.35l.06.34.11.33.16.31.21.27.25.25.29.19.31.15.33.1.35.04z" style="stroke-width:0.53;fill:#FFFFFF;fill-opacity:0.50"/><text x="178.74" y="339.35" lengthAdjust="spacingAndGlyphs" style="font-size:5.69px;font-family:&quot;Liberation Sans&quot;" text-anchor="middle" textLength="25.37">4JCC LLC</text><path d="M330.67 143.17h47.83-.09l.35-.02.34-.07.32-.12.3-.18.27-.22.23-.26.19-.29.14-.32.08-.34.03-.34h0v-7.03h0l-.03-.35-.08-.33-.14-.32-.19-.3-.23-.26-.27-.22-.3-.17-.32-.12-.34-.07-.26-.02h-47.83l.26.02-.35-.02-.34.04-.34.1-.31.15-.29.2-.25.24-.21.28-.16.3-.11.33-.05.35-.01.17v7.03l.01-.18v.35l.05.34.11.33.16.31.21.28.25.24.29.2.31.15.34.09.34.05z" style="stroke-width:0.53;fill:#FFFFFF;fill-opacity:0.50"/><text x="354.58" y="139.57" lengthAdjust="spacingAndGlyphs" style="font-size:5.69px;font-family:&quot;Liberation Sans&quot;" text-anchor="middle" textLength="44.95">JUSTIN CAMBRA</text><path d="M123.47 221.09h68.18-.09l.35-.01.34-.07.32-.12.31-.18.27-.22.23-.26.18-.29.14-.32.08-.34.03-.35h0v-23.41h0l-.03-.35-.08-.34-.14-.31-.18-.3-.23-.26-.27-.22-.31-.17-.32-.13-.34-.07-.26-.01h-68.18l.26.01-.34-.01-.35.04-.33.1-.32.15-.28.2-.25.24-.21.27-.17.31-.11.33-.05.35-.01.17v23.41l.01-.17v.35l.05.34.11.33.17.31.21.28.25.24.28.2.32.14.33.1.35.04z" style="stroke-width:0.53;fill:#FFFFFF;fill-opacity:0.50"/><text x="157.56" y="201.11" lengthAdjust="spacingAndGlyphs" style="font-size:5.69px;font-family:&quot;Liberation Sans&quot;" text-anchor="middle" textLength="53.03">126 SW 148TH ST,</text><text x="157.56" y="209.3" lengthAdjust="spacingAndGlyphs" style="font-size:5.69px;font-family:&quot;Liberation Sans&quot;" text-anchor="middle" textLength="65.3">STE C100, BURIEN, WA</text><text x="157.56" y="217.49" lengthAdjust="spacingAndGlyphs" style="font-size:5.69px;font-family:&quot;Liberation Sans&quot;" text-anchor="middle" textLength="18.11">98166</text><path d="M56.31 318.14h57.36-.09l.35-.02.34-.07.32-.12.31-.17.26-.22.24-.26.18-.3.14-.32.08-.33.03-.35h0v-23.42h0l-.03-.34-.08-.34-.14-.32-.18-.29-.24-.26-.26-.22-.31-.18-.32-.12-.34-.07-.26-.02H56.31l.26.02-.34-.02-.35.05-.33.09-.32.15-.28.2-.25.24-.21.28-.16.31-.11.33-.06.34-.01.17v23.42l.01-.17v.34l.06.35.11.33.16.3.21.28.25.24.28.2.32.15.33.1.35.04z" style="stroke-width:0.53;fill:#FFFFFF;fill-opacity:0.50"/><text x="84.99" y="298.15" lengthAdjust="spacingAndGlyphs" style="font-size:5.69px;font-family:&quot;Liberation Sans&quot;" text-anchor="middle" textLength="54.48">126 148TH ST, STE</text><text x="84.99" y="306.34" lengthAdjust="spacingAndGlyphs" style="font-size:5.69px;font-family:&quot;Liberation Sans&quot;" text-anchor="middle" textLength="52.81">C100, BURIEN, WA</text><text x="84.99" y="314.54" lengthAdjust="spacingAndGlyphs" style="font-size:5.69px;font-family:&quot;Liberation Sans&quot;" text-anchor="middle" textLength="18.11">98166</text><path d="M271.44 220.63h68.18l-.09-.01.35-.01.34-.07.32-.12.31-.18.26-.22.24-.26.18-.29.14-.32.08-.34.03-.34h0v-23.42h0l-.03-.35-.08-.33-.14-.32-.18-.3-.24-.26-.26-.22-.31-.17-.32-.12-.34-.07-.26-.02h-68.18l.26.02-.35-.02-.34.04-.33.1-.32.15-.28.2-.26.24-.2.28-.17.3-.11.33-.05.35-.01.17v23.42l.01-.18v.35l.05.34.11.33.17.31.2.28.26.24.28.2.32.15.33.09.34.04z" style="stroke-width:0.53;fill:#FFFFFF;fill-opacity:0.50"/><text x="305.53" y="200.64" lengthAdjust="spacingAndGlyphs" style="font-size:5.69px;font-family:&quot;Liberation Sans&quot;" text-anchor="middle" textLength="53.03">126 SW 148TH ST,</text><text x="305.53" y="208.83" lengthAdjust="spacingAndGlyphs" style="font-size:5.69px;font-family:&quot;Liberation Sans&quot;" text-anchor="middle" textLength="65.3">STE C100, BURIEN, WA</text><text x="305.53" y="217.03" lengthAdjust="spacingAndGlyphs" style="font-size:5.69px;font-family:&quot;Liberation Sans&quot;" text-anchor="middle" textLength="18.11">98166</text><path d="M111.92 450.78h66.91l-.08-.01.34-.01.34-.07.33-.12.3-.18.27-.22.23-.26.19-.29.13-.32.09-.34.02-.34h0v-15.23h0l-.02-.34-.09-.34-.13-.32-.19-.29-.23-.26-.27-.22-.3-.18-.33-.12-.34-.07-.26-.02h-66.91l.26.02-.35-.01-.35.04-.33.1-.31.14-.29.2-.25.24-.21.28-.16.31-.11.33-.06.34v15.4-.18.35l.06.34.11.33.16.31.21.28.25.24.29.2.31.15.33.09.35.04z" style="stroke-width:0.53;fill:#FFFFFF;fill-opacity:0.50"/><text x="145.38" y="438.98" lengthAdjust="spacingAndGlyphs" style="font-size:5.69px;font-family:&quot;Liberation Sans&quot;" text-anchor="middle" textLength="64.04">126 148TH, STE C100,</text><text x="145.38" y="447.18" lengthAdjust="spacingAndGlyphs" style="font-size:5.69px;font-family:&quot;Liberation Sans&quot;" text-anchor="middle" textLength="54.27">BURIEN, WA 98166</text><path d="M272.09 427.53h72.74-.08l.35-.01.34-.07.32-.13.3-.17.27-.22.23-.26.19-.3.13-.31.09-.34.02-.35h0v-23.41h0l-.02-.35-.09-.34-.13-.32-.19-.29-.23-.26-.27-.22-.3-.18-.32-.12-.34-.07-.27-.01h-72.74l.26.01-.35-.01-.35.04-.33.1-.31.14-.29.2-.25.24-.21.28-.16.31-.11.33-.06.34v23.59-.17.34l.06.35.11.33.16.31.21.27.25.24.29.2.31.15.33.1.35.04z" style="stroke-width:0.53;fill:#FFFFFF;fill-opacity:0.50"/><text x="308.46" y="407.54" lengthAdjust="spacingAndGlyphs" style="font-size:5.69px;font-family:&quot;Liberation Sans&quot;" text-anchor="middle" textLength="69.87">10649 DES MOINES WAY</text><text x="308.46" y="415.74" lengthAdjust="spacingAndGlyphs" style="font-size:5.69px;font-family:&quot;Liberation Sans&quot;" text-anchor="middle" textLength="55.14">S S 2, SEATTLE, WA</text><text x="308.46" y="423.93" lengthAdjust="spacingAndGlyphs" style="font-size:5.69px;font-family:&quot;Liberation Sans&quot;" text-anchor="middle" textLength="18.11">98168</text></g><g clip-path="url(#cpMC4wMHw0MzIuMDB8MC4wMHw1MDQuMDA=)"><circle cx="122.25" cy="97.06" r="1.95" style="stroke-width:0.71;stroke:none;fill:#F8766D"/><path d="m198.6 94.02 2.63 4.56h-5.27z" style="stroke-width:0.71;stroke:none;fill:#00BA38"/><path d="M264.57 99.01h3.91V95.1h-3.91z" style="stroke-width:0.71;stroke:none;fill:#619CFF"/><text x="136.37" y="100.22" lengthAdjust="spacingAndGlyphs" style="font-size:8.80px;font-weight:0;font-family:&quot;Nimbus Sans Narrow&quot;" textLength="48.11">mprop address</text><text x="212.72" y="100.22" lengthAdjust="spacingAndGlyphs" style="font-size:8.80px;font-weight:0;font-family:&quot;Nimbus Sans Narrow&quot;" textLength="39.69">owner name</text><text x="280.64" y="100.22" lengthAdjust="spacingAndGlyphs" style="font-size:8.80px;font-weight:0;font-family:&quot;Nimbus Sans Narrow&quot;" textLength="40.49">wdfi address</text><text x="32.63" y="65.35" lengthAdjust="spacingAndGlyphs" style="font-size:12.00px;font-weight:0;font-family:&quot;Nimbus Sans Narrow&quot;" textLength="246.65">includes 9 parcels, 15 units, and 2 distinct owner names.</text><text x="32.63" y="42.81" lengthAdjust="spacingAndGlyphs" style="font-size:18.00px;font-weight:0;font-family:&quot;Nimbus Sans Narrow&quot;" textLength="259.15">4JCC LLC -- JUSTIN CAMBRA Group</text></g></svg>