<svg xmlns="http://www.w3.org/2000/svg" width="768" height="768" class="svglite" viewBox="0 0 576 576"><defs><style><![CDATA[.svglite line,.svglite polyline,.svglite polygon,.svglite path,.svglite circle{fill:none;stroke:#000000;stroke-linecap:round;stroke-linejoin:round;stroke-miterlimit:10.00}.svglite text{white-space:pre}]]></style></defs><rect width="100%" height="100%" style="stroke-linecap:round;stroke-linejoin:round;stroke-miterlimit:10.00;stroke:none;fill:#FFFFFF"/><defs><clipPath id="cpMC4wMHw1NzYuMDB8MC4wMHw1NzYuMDA="><path d="M0 0h576v576H0z"/></clipPath></defs><g clip-path="url(#cpMC4wMHw1NzYuMDB8MC4wMHw1NzYuMDA=)"><path d="M0 0h576v576H0z" style="stroke-width:1.07;stroke:none;fill:#FFFFFF"/></g><defs><clipPath id="cpMzIuNjN8NTQ2LjExfDEyMC44Nnw1NDMuMzc="><path d="M32.63 120.86h513.48v422.51H32.63z"/></clipPath></defs><g clip-path="url(#cpMzIuNjN8NTQ2LjExfDEyMC44Nnw1NDMuMzc=)"><path d="m434.04 397.36-.32 1.27-.33 1.27-.31 1.27-.32 1.28-.32 1.27-.31 1.27-.31 1.28-.31 1.27-.31 1.27-.31 1.28-.31 1.27-.3 1.28-.3 1.27-.3 1.28-.3 1.27-.29 1.28-.3 1.27-.29 1.28-.29 1.27-.29 1.28-.29 1.27-.28 1.28-.29 1.28-.28 1.27-.28 1.28-.28 1.28-.27 1.27-.28 1.28-.27 1.28-.27 1.28-.27 1.27-.27 1.28-.27 1.28-.26 1.28-.26 1.28-.26 1.27-.26 1.28-.26 1.28-.25 1.28-.26 1.28-.25 1.28-.25 1.28-.24 1.28-.25 1.28-.25 1.28-.24 1.28-.24 1.28-.24 1.28-.23 1.28-.24 1.28-.23 1.28-.24 1.28-.23 1.29-.22 1.28-.23 1.28-.22 1.28-.23 1.28-.22 1.29-.22 1.28-.21 1.28-.22 1.28-.21 1.29-.22 1.28-.21 1.28-.21 1.29-.2 1.28-.21 1.28-.2 1.29-.2 1.28-.2 1.29-.2 1.28-.19 1.29-.2 1.28-.19 1.29-.19 1.28-.19 1.29-.19 1.28-.18 1.29-.19 1.28-.18 1.29-.18 1.29-.18 1.28-.17 1.29-.18 1.29-.17 1.28-.17 1.29-.17 1.29-.17 1.28-.16 1.29-.17 1.29-.16 1.29-.16 1.29-.16 1.28-.15 1.29-.16 1.29-.15 1.29-.15 1.29-.15 1.29-.15 1.29m23.3-126.81-.89-1.27-.89-1.26-.9-1.26-.9-1.27-.89-1.26-.9-1.26-.9-1.26-.91-1.26-.9-1.26-.91-1.25-.91-1.26-.91-1.26-.91-1.25-.91-1.26-.92-1.25-.91-1.25-.92-1.26-.92-1.25-.92-1.25-.93-1.25-.92-1.25-.93-1.25-.93-1.25-.93-1.25-.93-1.24-.94-1.25-.93-1.25-.94-1.24-.94-1.25-.94-1.24-.94-1.24-.94-1.24-.95-1.25-.95-1.24-.95-1.24-.95-1.23-.95-1.24-.96-1.24-.95-1.24-.96-1.23-.96-1.24-.96-1.24-.96-1.23-.97-1.23-.97-1.24-.96-1.23-.97-1.23-.98-1.23-.97-1.23-.97-1.23-.98-1.23-.98-1.23-.98-1.22-.98-1.23-.99-1.23-.98-1.22-.99-1.22-.99-1.23-.99-1.22-.99-1.22-.99-1.22-1-1.22-1-1.22-1-1.22-1-1.22-1-1.22-1-1.22-1.01-1.21-1.01-1.22-1.01-1.22-1.01-1.21-1.01-1.21-1.02-1.22-1.01-1.21-1.02-1.21-1.02-1.21-1.02-1.21-1.02-1.21-1.03-1.21-1.03-1.21-1.02-1.2-1.03-1.21-1.04-1.21-1.03-1.2-1.03-1.2-1.04-1.21-1.04-1.2-1.04-1.2-1.04-1.2-1.05-1.21-1.04-1.2-1.05-1.19-1.05-1.2-1.05-1.2-1.05-1.2-1.06-1.2-1.05-1.19-1.06-1.2-1.06-1.19m96.54 121.7-.15 1.29-.15 1.28-.15 1.29-.15 1.29-.16 1.29-.15 1.29-.16 1.29-.16 1.29-.16 1.28-.17 1.29-.16 1.29-.17 1.29-.17 1.28-.17 1.29-.17 1.29-.18 1.29-.18 1.28-.17 1.29-.18 1.28-.18 1.29-.19 1.29-.18 1.28-.19 1.29-.19 1.28-.19 1.29-.19 1.28-.2 1.29-.19 1.28-.2 1.29-.2 1.28-.2 1.29-.2 1.28-.21 1.28-.21 1.29-.2 1.28-.22 1.28-.21 1.29-.21 1.28-.22 1.28-.21 1.29-.22 1.28-.22 1.28-.23 1.28-.22 1.28-.23 1.29-.23 1.28-.23 1.28-.23 1.28-.23 1.28-.24 1.28-.23 1.28-.24 1.28-.24 1.28-.25 1.28-.24 1.28-.25 1.28-.24 1.28-.25 1.28-.26 1.28-.25 1.28-.25 1.28-.26 1.28-.26 1.28-.26 1.28-.26 1.28-.27 1.27-.26 1.28-.27 1.28-.27 1.28-.27 1.28-.27 1.27-.28 1.28-.27 1.28-.28 1.27-.28 1.28-.28 1.28-.29 1.27-.28 1.28-.29 1.27-.29 1.28-.29 1.28-.29 1.27-.3 1.28-.29 1.27-.3 1.28-.3 1.27-.3 1.28-.31 1.27-.3 1.27-.31 1.28-.31 1.27-.31 1.28-.31 1.27-.31 1.27-.32 1.28-.32 1.27-.32 1.27-.32 1.27-.32 1.28" style="stroke-width:1.07;stroke:#000000;stroke-opacity:0.10;stroke-linecap:butt"/><path d="m434.04 397.36-1.06-1.2-1.06-1.19-1.05-1.2-1.06-1.2-1.05-1.19-1.05-1.2-1.05-1.2-1.05-1.2-1.04-1.2-1.05-1.2-1.04-1.2-1.04-1.2-1.04-1.21-1.03-1.2-1.04-1.2-1.03-1.21-1.03-1.2-1.03-1.21-1.03-1.21-1.03-1.21-1.02-1.2-1.03-1.21-1.02-1.21-1.02-1.21-1.02-1.22-1.01-1.21-1.02-1.21-1.01-1.21-1.01-1.22-1.01-1.21L402 360l-1.01-1.22-1-1.21-1-1.22-1-1.22-1-1.22-1-1.22-1-1.22-.99-1.22-.99-1.22-.99-1.23-.99-1.22-.99-1.22-.98-1.23-.99-1.22-.98-1.23-.98-1.23-.98-1.23-.97-1.22-.98-1.23-.97-1.23-.97-1.23-.97-1.24-.97-1.23-.97-1.23-.96-1.23-.97-1.24-.96-1.23-.96-1.24-.96-1.24-.95-1.23-.96-1.24-.95-1.24-.95-1.24-.95-1.24-.95-1.24-.94-1.24-.95-1.24-.94-1.25-.94-1.24-.94-1.24-.94-1.25-.93-1.24-.94-1.25-.93-1.25-.93-1.24-.93-1.25-.93-1.25-.92-1.25-.93-1.25-.92-1.25-.92-1.26-.92-1.25-.91-1.25-.92-1.26-.91-1.25-.91-1.26-.91-1.25-.91-1.26-.91-1.26-.9-1.26-.9-1.26-.91-1.26-.9-1.26-.89-1.26-.9-1.26-.89-1.26-.9-1.27-.89-1.26m91.97-128.18.79.65.78.66.79.65.79.65.78.65.79.66.79.65.78.65.79.65.78.66.79.65.79.65.78.66.79.65.79.65.78.65.79.66.79.65.78.65.79.65.78.66.79.65.79.65.78.66.79.65.79.65.78.65.79.66.78.65.79.65.79.65.78.66.79.65.79.65.78.66.79.65.78.65.79.65.79.66.78.65.79.65.79.65.78.66.79.65.78.65.79.66.79.65.78.65.79.65.79.66.78.65.79.65.78.65.79.66.79.65.78.65.79.66.79.65.78.65.79.65.78.66.79.65.79.65.78.65.79.66.79.65.78.65.79.66.78.65.79.65.79.65.78.66.79.65.79.65.78.65.79.66.78.65.79.65.79.66.78.65.79.65.79.65.78.66.79.65.78.65.79.65.79.66.78.65.79.65.79.66.78.65.79.65.78.65.79.66.79.65.78.65.79.66.79.65.78.65" style="stroke-width:1.07;stroke:#000000;stroke-opacity:0.10;stroke-linecap:butt"/><path d="m429.47 147.48-.93 1.29-.93 1.3-.92 1.29-.93 1.3-.93 1.29-.93 1.3-.93 1.29-.93 1.3-.93 1.29-.93 1.3-.93 1.29-.93 1.3-.92 1.29-.93 1.3-.93 1.29-.93 1.3-.93 1.29-.93 1.3-.93 1.29-.93 1.29-.93 1.3-.93 1.29-.92 1.3-.93 1.29-.93 1.3-.93 1.29-.93 1.3-.93 1.29-.93 1.3-.93 1.29-.93 1.3-.93 1.29-.92 1.3-.93 1.29-.93 1.3-.93 1.29-.93 1.3-.93 1.29-.93 1.29-.93 1.3-.93 1.29-.93 1.3-.92 1.29-.93 1.3-.93 1.29-.93 1.3-.93 1.29-.93 1.3-.93 1.29-.93 1.3-.93 1.29-.93 1.3-.92 1.29-.93 1.3-.93 1.29-.93 1.3-.93 1.29-.93 1.3-.93 1.29-.93 1.29-.93 1.3-.93 1.29-.92 1.3-.93 1.29-.93 1.3-.93 1.29-.93 1.3-.93 1.29-.93 1.3-.93 1.29-.93 1.3-.93 1.29-.92 1.3-.93 1.29-.93 1.3-.93 1.29-.93 1.3-.93 1.29-.93 1.29-.93 1.3-.93 1.29-.92 1.3-.93 1.29-.93 1.3-.93 1.29-.93 1.3-.93 1.29-.93 1.3-.93 1.29-.93 1.3-.93 1.29-.92 1.3-.93 1.29-.93 1.3-.93 1.29-.93 1.3-.93 1.29-.93 1.29-.93 1.3m-26.95 143.51 1.02 1.06 1.01 1.06 1.01 1.06 1.01 1.06 1.01 1.06 1.02 1.06 1.01 1.06 1.01 1.06 1.01 1.06 1.01 1.06 1.02 1.06 1.01 1.06 1.01 1.06 1.01 1.07 1.01 1.06 1.02 1.06 1.01 1.06 1.01 1.06 1.01 1.06 1.01 1.06 1.02 1.06 1.01 1.06 1.01 1.06 1.01 1.06 1.01 1.06 1.02 1.06 1.01 1.06 1.01 1.06 1.01 1.06 1.01 1.06 1.02 1.07 1.01 1.06 1.01 1.06 1.01 1.06 1.01 1.06 1.02 1.06 1.01 1.06 1.01 1.06 1.01 1.06 1.01 1.06 1.02 1.06 1.01 1.06 1.01 1.06 1.01 1.06 1.01 1.06 1.01 1.06 1.02 1.07 1.01 1.06 1.01 1.06 1.01 1.06 1.01 1.06 1.02 1.06 1.01 1.06 1.01 1.06 1.01 1.06 1.01 1.06 1.02 1.06 1.01 1.06 1.01 1.06 1.01 1.06 1.01 1.06 1.02 1.06 1.01 1.07 1.01 1.06 1.01 1.06 1.01 1.06 1.02 1.06 1.01 1.06 1.01 1.06 1.01 1.06 1.01 1.06 1.02 1.06 1.01 1.06 1.01 1.06 1.01 1.06 1.01 1.06 1.02 1.06 1.01 1.06 1.01 1.07 1.01 1.06 1.01 1.06 1.02 1.06 1.01 1.06 1.01 1.06 1.01 1.06 1.01 1.06 1.02 1.06 1.01 1.06 1.01 1.06 1.01 1.06 1.01 1.06 1.02 1.06 1.01 1.06 1.01 1.06 1.01 1.06 1.01 1.07 1.02 1.06 1.01 1.06 1.01 1.06m-100.19-105 .28-1.45.27-1.45.27-1.45.27-1.45.28-1.45.27-1.45.27-1.45.27-1.45.27-1.45.28-1.45.27-1.45.27-1.45.27-1.45.28-1.45.27-1.45.27-1.45.27-1.45.27-1.45.28-1.45.27-1.44.27-1.45.27-1.45.27-1.45.28-1.45.27-1.45.27-1.45.27-1.45.28-1.45.27-1.45.27-1.45.27-1.45.27-1.45.28-1.45.27-1.45.27-1.45.27-1.45.28-1.45.27-1.45.27-1.45.27-1.45.27-1.45.28-1.45.27-1.44.27-1.45.27-1.45.28-1.45.27-1.45.27-1.45.27-1.45.27-1.45.28-1.45.27-1.45.27-1.45.27-1.45.28-1.45.27-1.45.27-1.45.27-1.45.27-1.45.28-1.45.27-1.45.27-1.45.27-1.45.28-1.45.27-1.45.27-1.44.27-1.45.27-1.45.28-1.45.27-1.45.27-1.45.27-1.45.28-1.45.27-1.45.27-1.45.27-1.45.27-1.45.28-1.45.27-1.45.27-1.45.27-1.45.27-1.45.28-1.45.27-1.45.27-1.45.27-1.45.28-1.45.27-1.45.27-1.44.27-1.45.27-1.45.28-1.45.27-1.45.27-1.45.27-1.45.28-1.45.27-1.45.27-1.45.27-1.45m-93.94-135.59-1.94.5-1.93.51-1.93.51-1.93.51-1.93.52-1.93.51-1.93.52-1.93.51-1.93.52-1.93.52-1.92.52-1.93.53-1.92.52-1.93.52-1.92.53-1.92.53-1.92.53-1.92.53-1.92.53-1.92.54-1.92.53-1.92.54-1.92.53-1.91.54-1.92.54-1.91.55-1.91.54-1.92.54-1.91.55-1.91.55-1.91.55-1.91.55-1.91.55-1.9.55-1.91.55-1.91.56-1.9.56-1.91.56-1.9.56-1.9.56-1.91.56-1.9.56-1.9.57-1.9.57-1.9.56-1.89.57-1.9.57-1.9.58-1.89.57-1.9.58-1.89.57-1.9.58-1.89.58-1.89.58-1.89.58-1.89.58-1.89.59-1.89.59-1.89.58-1.88.59-1.89.59-1.88.59-1.89.6-1.88.59-1.88.6-1.89.59-1.88.6-1.88.6-1.88.6-1.88.61-1.87.6-1.88.61-1.88.6-1.87.61-1.88.61-1.87.61-1.88.62-1.87.61-1.87.61-1.87.62-1.87.62-1.87.62-1.87.62-1.87.62-1.86.62-1.87.63-1.86.63-1.87.62-1.86.63-1.86.63-1.87.63-1.86.64-1.86.63-1.86.64-1.86.64-1.85.63-1.86.64-1.86.65-1.85.64" style="stroke-width:1.07;stroke:#000000;stroke-opacity:0.10;stroke-linecap:butt"/><path d="m243.56 140.07.85 1.4.86 1.4.86 1.41.86 1.4.86 1.4.87 1.4.87 1.4.86 1.4.87 1.4.88 1.39.87 1.4.88 1.4.88 1.39.88 1.39.88 1.4.88 1.39.89 1.39.88 1.4.89 1.39.9 1.39.89 1.39.89 1.39.9 1.38.9 1.39.9 1.39.91 1.39.9 1.38.91 1.39.91 1.38.91 1.38.91 1.39.91 1.38.92 1.38.92 1.38.92 1.38.92 1.38.92 1.38.93 1.38.93 1.37.93 1.38.93 1.38.93 1.37.94 1.38.94 1.37.94 1.37.94 1.38.94 1.37.95 1.37.94 1.37.95 1.37.95 1.37.96 1.36.95 1.37.96 1.37.96 1.37.96 1.36.96 1.37.96 1.36.97 1.36.97 1.37.97 1.36.97 1.36.97 1.36.98 1.36.98 1.36.97 1.36.99 1.36.98 1.35.98 1.36.99 1.35.99 1.36.99 1.35 1 1.36.99 1.35 1 1.35 1 1.35 1 1.36 1 1.35 1 1.35 1.01 1.34 1.01 1.35 1.01 1.35 1.01 1.35 1.01 1.34 1.02 1.35 1.02 1.34 1.02 1.35 1.02 1.34 1.02 1.34 1.03 1.34 1.02 1.35 1.03 1.34 1.04 1.34 1.03 1.33 1.03 1.34 1.04 1.34 1.04 1.34 1.04 1.33 1.04 1.34m-129.22-82.77-1.54.04-1.54.04-1.54.05-1.54.04-1.54.04-1.53.04-1.54.04-1.54.04-1.54.05-1.54.04-1.54.04-1.54.04-1.53.04-1.54.04-1.54.04-1.54.05-1.54.04-1.54.04-1.53.04-1.54.04-1.54.04-1.54.04-1.54.05-1.54.04-1.54.04-1.53.04-1.54.04-1.54.04-1.54.05-1.54.04-1.54.04-1.53.04-1.54.04-1.54.04-1.54.04-1.54.05-1.54.04-1.54.04-1.53.04-1.54.04-1.54.04-1.54.04-1.54.05-1.54.04-1.53.04-1.54.04-1.54.04-1.54.04-1.54.04-1.54.05-1.54.04-1.53.04-1.54.04-1.54.04-1.54.04-1.54.05-1.54.04-1.54.04-1.53.04-1.54.04-1.54.04-1.54.04-1.54.05-1.54.04-1.53.04-1.54.04-1.54.04-1.54.04-1.54.04-1.54.05-1.54.04-1.53.04-1.54.04-1.54.04-1.54.04-1.54.05-1.54.04-1.53.04-1.54.04-1.54.04-1.54.04-1.54.04-1.54.05-1.54.04-1.53.04-1.54.04-1.54.04-1.54.04-1.54.04-1.54.05-1.53.04-1.54.04-1.54.04-1.54.04-1.54.04-1.54.04-1.54.05-1.53.04-1.54.04" style="stroke-width:1.07;stroke:#000000;stroke-opacity:0.10;stroke-linecap:butt"/><path d="m208.28 192.89 1.3.84 1.31.83 1.3.84 1.31.84 1.3.83 1.31.84 1.3.83 1.31.84 1.3.84 1.31.83 1.3.84 1.31.83 1.31.84 1.3.84 1.31.83 1.3.84 1.31.83 1.3.84 1.31.84 1.3.83 1.31.84 1.3.83 1.31.84 1.3.84 1.31.83 1.3.84 1.31.83 1.3.84 1.31.84 1.31.83 1.3.84 1.31.84 1.3.83 1.31.84 1.3.83 1.31.84 1.3.84 1.31.83 1.3.84 1.31.83 1.3.84 1.31.84 1.3.83 1.31.84 1.31.83 1.3.84 1.31.84 1.3.83 1.31.84 1.3.83 1.31.84 1.3.84 1.31.83 1.3.84 1.31.83 1.3.84 1.31.84 1.3.83 1.31.84 1.3.83 1.31.84 1.31.84 1.3.83 1.31.84 1.3.83 1.31.84 1.3.84 1.31.83 1.3.84 1.31.83 1.3.84 1.31.84 1.3.83 1.31.84 1.3.83 1.31.84 1.31.84 1.3.83 1.31.84 1.3.83 1.31.84 1.3.84 1.31.83 1.3.84 1.31.84 1.3.83 1.31.84 1.3.83 1.31.84 1.3.84 1.31.83 1.31.84 1.3.83 1.31.84 1.3.84 1.31.83 1.3.84 1.31.83 1.3.84m-93.94-135.59-1.86.64-1.85.64-1.86.64-1.86.64-1.86.64-1.86.63-1.86.64-1.86.63-1.86.63-1.86.63-1.87.63-1.86.63-1.87.63-1.86.62-1.87.63-1.87.62-1.86.62-1.87.62-1.87.62-1.87.61-1.88.62-1.87.61-1.87.61-1.88.62-1.87.6-1.88.61-1.87.61-1.88.61-1.88.6-1.88.6-1.88.6-1.88.6-1.88.6-1.88.6-1.88.6-1.89.59-1.88.59-1.89.59-1.88.6-1.89.58-1.89.59-1.88.59-1.89.58-1.89.59-1.89.58-1.9.58-1.89.58-1.89.58-1.9.57-1.89.58-1.9.57-1.89.57-1.9.57-1.9.57-1.9.57-1.9.57-1.9.56-1.9.57-1.9.56-1.9.56-1.91.56-1.9.56-1.91.56-1.9.55-1.91.56-1.91.55-1.91.55-1.91.55-1.91.55-1.91.55-1.91.54-1.91.55-1.91.54-1.92.54-1.91.54-1.92.54-1.92.54-1.91.54-1.92.53-1.92.54-1.92.53-1.92.53-1.92.53-1.92.53-1.93.52-1.92.53-1.92.52-1.93.52-1.93.52-1.92.52-1.93.52-1.93.52-1.93.52-1.93.51-1.93.51-1.93.51-1.93.51-1.94.51-1.93.51" style="stroke-width:1.07;stroke:#000000;stroke-opacity:0.10;stroke-linecap:butt"/><path d="m243.56 140.07 1.04 1.33 1.04 1.34 1.04 1.34 1.04 1.33 1.03 1.34 1.04 1.34 1.03 1.34 1.03 1.34 1.02 1.34 1.03 1.35 1.02 1.34 1.02 1.34 1.02 1.35 1.02 1.34 1.02 1.35 1.01 1.34 1.01 1.35 1.01 1.35 1.01 1.34 1.01 1.35 1 1.35 1 1.35 1.01 1.35.99 1.35 1 1.36 1 1.35.99 1.35.99 1.36.99 1.35.99 1.36.98 1.36.98 1.35.99 1.36.98 1.36.97 1.36.98 1.36.97 1.36.97 1.36.97 1.36.97 1.36.97 1.37.96 1.36.97 1.37.96 1.36.95 1.37.96 1.36.96 1.37.95 1.37.95 1.37.95 1.37.94 1.37.95 1.37.94 1.37.94 1.37.94 1.38.94 1.37.94 1.38.93 1.37.93 1.38.93 1.37.93 1.38.93 1.38.92 1.38.92 1.38.92 1.38.92 1.38.92 1.38.91 1.38.91 1.38.91 1.39.91 1.38.91 1.39.91 1.38.9 1.39.9 1.38.9 1.39.9 1.39.89 1.39.89 1.39.9 1.39.89 1.39.88 1.39.89 1.4.88 1.39.89 1.39.88 1.4.87 1.39.88 1.4.87 1.39.88 1.4.87 1.4.87 1.4.86 1.4.87 1.4.86 1.4.86 1.4.86 1.4.86 1.41.85 1.4m185.27 21.29-.15-.86-.16-.85-.16-.86-.15-.86-.16-.86-.16-.85-.15-.86-.16-.86-.15-.85-.16-.86-.16-.86-.15-.86-.16-.85-.15-.86-.16-.86-.16-.85-.15-.86-.16-.86-.16-.85-.15-.86-.16-.86-.15-.86-.16-.85-.16-.86-.15-.86-.16-.85-.15-.86-.16-.86-.16-.86-.15-.85-.16-.86-.16-.86-.15-.85-.16-.86-.15-.86-.16-.85-.16-.86-.15-.86-.16-.86-.15-.85-.16-.86-.16-.86-.15-.85-.16-.86-.16-.86-.15-.86-.16-.85-.15-.86-.16-.86-.16-.85-.15-.86-.16-.86-.15-.85-.16-.86-.16-.86-.15-.86-.16-.85-.16-.86-.15-.86-.16-.85-.15-.86-.16-.86-.16-.86-.15-.85-.16-.86-.15-.86-.16-.85-.16-.86-.15-.86-.16-.85-.16-.86-.15-.86-.16-.86-.15-.85-.16-.86-.16-.86-.15-.85-.16-.86-.15-.86-.16-.86-.16-.85-.15-.86-.16-.86-.16-.85-.15-.86-.16-.86-.15-.85-.16-.86-.16-.86-.15-.86-.16-.85-.15-.86-.16-.86-.16-.85-.15-.86-.16-.86-.16-.86-.15-.85-.16-.86" style="stroke-width:1.07;stroke:#000000;stroke-opacity:0.10;stroke-linecap:butt"/><path d="m522.77 296.95-1.87-.22-1.87-.21-1.87-.22-1.87-.21-1.88-.22-1.87-.21-1.87-.22-1.87-.21-1.87-.22-1.87-.21-1.87-.22-1.88-.21-1.87-.22-1.87-.21-1.87-.22-1.87-.21-1.87-.22-1.87-.21-1.87-.22-1.88-.21-1.87-.22-1.87-.21-1.87-.22-1.87-.21-1.87-.22-1.87-.21-1.88-.22-1.87-.21-1.87-.22-1.87-.21-1.87-.22-1.87-.21-1.87-.22-1.88-.21-1.87-.22-1.87-.21-1.87-.22-1.87-.21-1.87-.22-1.87-.21-1.88-.22-1.87-.21-1.87-.22-1.87-.21-1.87-.22-1.87-.21-1.87-.22-1.88-.21-1.87-.22-1.87-.21-1.87-.22-1.87-.21-1.87-.22-1.87-.21-1.88-.22-1.87-.21-1.87-.22-1.87-.21-1.87-.22-1.87-.21-1.87-.22-1.88-.21-1.87-.22-1.87-.21-1.87-.22-1.87-.21-1.87-.22-1.87-.21-1.88-.22-1.87-.21-1.87-.22-1.87-.21-1.87-.22-1.87-.21-1.87-.22-1.88-.21-1.87-.22-1.87-.21-1.87-.22-1.87-.21-1.87-.22-1.87-.21-1.88-.22-1.87-.21-1.87-.22-1.87-.21-1.87-.22-1.87-.21-1.87-.22-1.88-.21-1.87-.22-1.87-.22-1.87-.21-1.87-.22-1.87-.21-1.87-.22-1.87-.21-1.88-.22-1.87-.21m-173.86.52-1.09-.8-1.09-.8-1.08-.8-1.09-.8-1.09-.8-1.09-.8-1.08-.8-1.09-.8-1.09-.8-1.09-.8-1.08-.8-1.09-.8-1.09-.8-1.09-.8-1.09-.8-1.08-.8-1.09-.8-1.09-.8-1.09-.79-1.08-.8-1.09-.8-1.09-.8-1.09-.8-1.08-.8-1.09-.8-1.09-.8-1.09-.8-1.08-.8-1.09-.8-1.09-.8-1.09-.8-1.08-.8-1.09-.8-1.09-.8-1.09-.8-1.08-.8-1.09-.8-1.09-.8-1.09-.8-1.08-.8-1.09-.8-1.09-.8-1.09-.8-1.09-.8-1.08-.8-1.09-.8-1.09-.8-1.09-.8-1.08-.8-1.09-.8-1.09-.8-1.09-.8-1.08-.8-1.09-.8-1.09-.8-1.09-.8-1.08-.8-1.09-.8-1.09-.8-1.09-.8-1.08-.8-1.09-.8-1.09-.8-1.09-.8-1.08-.8-1.09-.8-1.09-.8-1.09-.8-1.08-.8-1.09-.8-1.09-.8-1.09-.8-1.08-.8-1.09-.8-1.09-.79-1.09-.8-1.09-.8-1.08-.8-1.09-.8-1.09-.8-1.09-.8-1.08-.8-1.09-.8-1.09-.8-1.09-.8-1.08-.8-1.09-.8-1.09-.8-1.09-.8-1.08-.8-1.09-.8-1.09-.8-1.09-.8-1.08-.8-1.09-.8-1.09-.8-1.09-.8-1.08-.8-1.09-.8m107.67 79.18h1.75l1.76-.01h1.76l1.75-.01h1.76l1.76-.01 1.75-.01h1.76l1.75-.01h1.76l1.76-.01h1.75l1.76-.01h1.76l1.75-.01h1.76l1.75-.01h1.76l1.76-.01h1.75l1.76-.01h1.76l1.75-.01h1.76l1.75-.01 1.76-.01h1.76l1.75-.01h1.76l1.75-.01h1.76l1.76-.01h1.75l1.76-.01h1.76l1.75-.01h1.76l1.75-.01h1.76l1.76-.01h1.75l1.76-.01 1.76-.01h1.75l1.76-.01h1.75l1.76-.01h1.76l1.75-.01h1.76l1.75-.01h1.76l1.76-.01h1.75l1.76-.01h1.76l1.75-.01h1.76l1.75-.01h1.76l1.76-.01 1.75-.01h1.76l1.76-.01h1.75l1.76-.01h1.75l1.76-.01h1.76l1.75-.01h1.76l1.75-.01h1.76l1.76-.01h1.75l1.76-.01h1.76l1.75-.01h1.76l1.75-.01 1.76-.01h1.76l1.75-.01h1.76l1.76-.01h1.75l1.76-.01h1.75l1.76-.01h1.76l1.75-.01h1.76l1.76-.01h1.75l1.76-.01h1.75l1.76-.01 1.76-.01h1.75" style="stroke-width:1.07;stroke:#000000;stroke-opacity:0.10;stroke-linecap:butt"/><path d="m140.26 330.7-.85-1.35-.86-1.35-.85-1.35-.85-1.35-.85-1.35-.85-1.35-.85-1.35-.85-1.35-.86-1.35-.85-1.35-.85-1.35-.85-1.35-.85-1.35-.85-1.35-.85-1.35-.86-1.36-.85-1.35-.85-1.35-.85-1.35-.85-1.35-.85-1.35-.85-1.35-.86-1.35-.85-1.35-.85-1.35-.85-1.35-.85-1.35-.85-1.35-.85-1.35-.86-1.35-.85-1.35-.85-1.35-.85-1.35-.85-1.36-.85-1.35-.85-1.35-.86-1.35-.85-1.35-.85-1.35-.85-1.35-.85-1.35-.85-1.35-.85-1.35-.85-1.35-.86-1.35-.85-1.35-.85-1.35-.85-1.35-.85-1.35-.85-1.35-.85-1.35-.86-1.35-.85-1.36-.85-1.35-.85-1.35-.85-1.35-.85-1.35-.85-1.35-.86-1.35-.85-1.35-.85-1.35-.85-1.35-.85-1.35-.85-1.35-.85-1.35-.86-1.35-.85-1.35-.85-1.35-.85-1.35-.85-1.35-.85-1.36-.85-1.35-.86-1.35-.85-1.35-.85-1.35-.85-1.35-.85-1.35-.85-1.35-.85-1.35-.86-1.35-.85-1.35-.85-1.35-.85-1.35-.85-1.35-.85-1.35-.85-1.35-.86-1.35-.85-1.35-.85-1.36-.85-1.35-.85-1.35-.85-1.35-.85-1.35-.86-1.35-.85-1.35-.85-1.35-.85-1.35-.85-1.35-.85-1.35m84.29 133.7 1.99-.55 1.99-.56 1.99-.55 2-.56 1.99-.56 1.99-.55 1.99-.56 2-.55 1.99-.56 1.99-.56 1.99-.55 2-.56 1.99-.55 1.99-.56 1.99-.56 1.99-.55 2-.56 1.99-.55 1.99-.56 1.99-.56 2-.55 1.99-.56 1.99-.55 1.99-.56 2-.56 1.99-.55 1.99-.56 1.99-.55 2-.56 1.99-.56 1.99-.55 1.99-.56 2-.55 1.99-.56 1.99-.56 1.99-.55 1.99-.56 2-.55 1.99-.56 1.99-.56 1.99-.55 2-.56 1.99-.55 1.99-.56 1.99-.56 2-.55 1.99-.56 1.99-.55 1.99-.56 2-.56 1.99-.55 1.99-.56 1.99-.55 2-.56 1.99-.56 1.99-.55 1.99-.56 1.99-.55 2-.56 1.99-.56 1.99-.55 1.99-.56 2-.55 1.99-.56 1.99-.56 1.99-.55 2-.56 1.99-.55 1.99-.56 1.99-.56 2-.55 1.99-.56 1.99-.55 1.99-.56 2-.56 1.99-.55 1.99-.56 1.99-.55 1.99-.56 2-.56 1.99-.55 1.99-.56 1.99-.55 2-.56 1.99-.56 1.99-.55 1.99-.56 2-.55 1.99-.56 1.99-.56 1.99-.55 2-.56 1.99-.55 1.99-.56 1.99-.56 2-.55 1.99-.56 1.99-.55 1.99-.56m0 0 2.11-.09 2.11-.1 2.09-.11 2.09-.13 2.07-.13 2.08-.15 2.06-.15 2.05-.17 2.05-.18 2.04-.19 2.03-.2 2.02-.22 2.01-.22 2.01-.24 1.99-.24 1.99-.26 1.99-.27 1.97-.28 1.96-.3 1.96-.3 1.95-.32 1.94-.32 1.94-.34 1.92-.35 1.92-.36 1.91-.37 1.9-.38 1.89-.4 1.88-.4 1.88-.42 1.87-.42 1.86-.44 1.85-.45 1.85-.47 1.83-.47 1.83-.48 1.82-.5 1.81-.5 1.81-.52 1.79-.53 1.79-.54 1.78-.55 1.77-.57 1.77-.57 1.75-.59 1.75-.59 1.74-.61 1.73-.62 1.72-.63 1.72-.64 1.71-.66 1.7-.66 1.69-.68 1.68-.69 1.67-.69 1.67-.71 1.66-.72 1.65-.74 1.64-.74 1.64-.75 1.62-.77 1.62-.78 1.61-.79 1.61-.8 1.59-.81 1.59-.82 1.57-.83 1.57-.85 1.57-.86 1.55-.86 1.55-.88 1.53-.89 1.53-.9 1.52-.92 1.52-.92 1.5-.94 1.5-.94 1.49-.96 1.48-.97 1.48-.98 1.46-.99 1.46-1 1.45-1.02 1.44-1.02 1.43-1.04 1.42-1.05 1.42-1.06 1.41-1.07 1.4-1.08 1.39-1.09 1.39-1.11 1.37-1.11 1.37-1.13 1.36-1.14 1.35-1.15 1.35-1.16 1.33-1.17 1.33-1.18 1.32-1.2" style="stroke-width:1.07;stroke:#000000;stroke-opacity:0.10;stroke-linecap:butt"/><path d="m337.5 275.66 2.03-.21 2.01-.22 2.01-.23 2.01-.24 1.99-.25 1.99-.25 1.99-.27 1.98-.27 1.97-.29 1.97-.29 1.96-.3 1.95-.31 1.95-.31 1.94-.33 1.93-.33 1.93-.35 1.93-.35 1.91-.36 1.91-.37 1.91-.38 1.89-.39 1.89-.39 1.89-.41 1.88-.41 1.87-.43 1.86-.43 1.86-.44 1.86-.45 1.84-.45 1.85-.47 1.83-.48 1.83-.48 1.82-.49 1.82-.51 1.81-.51 1.8-.51 1.8-.53 1.79-.54 1.78-.54 1.78-.56 1.77-.56 1.77-.57 1.75-.58 1.76-.59 1.74-.6 1.74-.61 1.74-.61 1.73-.63 1.72-.63 1.71-.64 1.71-.66 1.7-.65 1.7-.67 1.69-.68 1.69-.69 1.67-.69 1.67-.7 1.67-.72 1.66-.72 1.65-.73 1.65-.74 1.64-.74 1.63-.76 1.63-.76 1.62-.78 1.61-.78 1.61-.79 1.6-.8 1.6-.81 1.59-.82 1.58-.82 1.58-.84 1.57-.84 1.57-.85 1.55-.87 1.56-.87 1.54-.87 1.54-.89 1.54-.9 1.52-.9 1.52-.92 1.52-.92 1.51-.93 1.5-.94 1.49-.95 1.49-.96 1.49-.97 1.47-.97 1.47-.99 1.47-.99 1.45-1 1.46-1.01 1.44-1.02 1.44-1.03 1.43-1.03 1.43-1.05 1.42-1.05 1.41-1.07 1.41-1.07" style="stroke-width:1.07;stroke:#000000;stroke-opacity:0.10;stroke-linecap:butt"/><path d="m337.5 275.66 1.94-.34 1.93-.34 1.92-.34 1.92-.36 1.92-.36 1.91-.36 1.91-.38 1.91-.38 1.9-.38 1.89-.39 1.89-.4 1.89-.4 1.88-.41 1.87-.42 1.88-.42 1.86-.43 1.87-.44 1.85-.44 1.86-.45 1.85-.45 1.84-.46 1.84-.47 1.84-.47 1.83-.48 1.83-.48 1.82-.5 1.82-.49 1.82-.51 1.8-.51 1.81-.52 1.8-.52 1.8-.53 1.79-.53 1.78-.54 1.79-.55 1.77-.56 1.78-.56 1.77-.56 1.76-.58 1.76-.58 1.76-.58 1.75-.59 1.75-.6 1.74-.61 1.74-.61 1.73-.61 1.73-.63 1.72-.63 1.72-.63 1.72-.65 1.71-.64 1.7-.66 1.71-.66 1.69-.67 1.7-.67 1.68-.68 1.69-.68 1.68-.7 1.67-.7 1.67-.7 1.67-.71 1.66-.72 1.66-.72 1.65-.73 1.65-.74 1.64-.74 1.64-.75 1.63-.75 1.63-.76 1.63-.77 1.62-.77 1.62-.78 1.61-.79 1.61-.79 1.6-.8 1.6-.81 1.59-.81 1.59-.82 1.59-.82 1.58-.83 1.58-.84 1.57-.84 1.57-.85 1.56-.85 1.56-.86 1.55-.87 1.55-.87 1.54-.88 1.54-.89 1.54-.89 1.53-.9 1.53-.91 1.52-.91 1.52-.92 1.51-.92 1.51-.93 1.51-.94 1.5-.94 1.49-.95" style="stroke-width:1.07;stroke:#000000;stroke-opacity:0.10;stroke-linecap:butt"/><path d="m337.5 275.66 1.85-.46 1.84-.46 1.85-.47 1.83-.46 1.84-.48 1.83-.47 1.84-.48 1.82-.49 1.83-.49 1.82-.49 1.82-.49 1.82-.5 1.81-.5 1.82-.51 1.81-.51 1.8-.52 1.81-.51 1.8-.53 1.8-.52 1.79-.53 1.8-.53 1.79-.54 1.78-.54 1.79-.54 1.78-.55 1.78-.55 1.78-.56 1.77-.56 1.77-.56 1.77-.57 1.77-.57 1.76-.57 1.76-.58 1.76-.58 1.76-.59 1.75-.59 1.75-.59 1.75-.6 1.74-.6 1.75-.6 1.74-.61 1.73-.61 1.74-.62 1.73-.62 1.73-.62 1.72-.63 1.73-.63 1.72-.64 1.71-.63 1.72-.65 1.71-.64 1.71-.65 1.71-.65 1.7-.66 1.71-.66 1.69-.67 1.7-.66 1.7-.68 1.69-.67 1.68-.68 1.69-.69 1.68-.68 1.68-.69 1.68-.7 1.68-.7 1.67-.7 1.67-.7 1.66-.71 1.67-.72 1.66-.72 1.66-.72 1.65-.72 1.66-.73 1.65-.73 1.65-.74 1.64-.74 1.65-.74 1.64-.75 1.63-.75 1.64-.75 1.63-.76 1.63-.76 1.62-.77 1.63-.77 1.62-.77 1.62-.78 1.61-.78 1.62-.79 1.61-.79 1.6-.79 1.61-.79 1.6-.8 1.6-.81 1.6-.81 1.59-.81 1.59-.81 1.59-.82 1.59-.82 1.58-.83" style="stroke-width:1.07;stroke:#000000;stroke-opacity:0.10;stroke-linecap:butt"/><path d="m337.5 275.66 1.76-.58 1.76-.58 1.76-.59 1.75-.58 1.76-.59 1.75-.58 1.76-.59 1.75-.59 1.75-.59 1.75-.59 1.75-.6 1.75-.59 1.75-.6 1.75-.59 1.75-.6 1.74-.6 1.75-.6 1.74-.6 1.74-.61 1.75-.6 1.74-.61 1.74-.6 1.74-.61 1.74-.61 1.73-.61 1.74-.61 1.74-.62 1.73-.61 1.73-.62 1.74-.61 1.73-.62 1.73-.62 1.73-.62 1.73-.62 1.73-.63 1.73-.62 1.73-.63 1.72-.62 1.73-.63 1.72-.63 1.72-.63 1.73-.63 1.72-.64 1.72-.63 1.72-.64 1.72-.64 1.71-.63 1.72-.64 1.72-.64 1.71-.65 1.72-.64 1.71-.64 1.71-.65 1.72-.65 1.71-.64 1.71-.65 1.7-.65 1.71-.66 1.71-.65 1.71-.65 1.7-.66 1.71-.66 1.7-.66 1.7-.66 1.7-.66 1.71-.66 1.7-.66 1.69-.67 1.7-.66 1.7-.67 1.7-.67 1.69-.67 1.7-.67 1.69-.67 1.69-.67 1.7-.68 1.69-.67 1.69-.68 1.69-.68 1.68-.68 1.69-.68 1.69-.68 1.68-.69 1.69-.68 1.68-.69 1.69-.68 1.68-.69 1.68-.69 1.68-.69 1.68-.69 1.68-.7 1.67-.69 1.68-.7 1.68-.69 1.67-.7 1.68-.7 1.67-.7 1.67-.71 1.67-.7M337.5 275.66l1.67-.7 1.68-.71 1.67-.7 1.67-.7 1.68-.69 1.67-.7 1.68-.7 1.68-.69 1.68-.7 1.68-.69 1.68-.69 1.68-.69 1.68-.69 1.68-.68 1.69-.69 1.68-.68 1.69-.69 1.68-.68 1.69-.68 1.69-.68 1.69-.68 1.69-.68 1.69-.67 1.69-.68 1.69-.67 1.7-.67 1.69-.67 1.7-.67 1.69-.67 1.7-.67 1.7-.66 1.7-.67 1.7-.66 1.7-.66 1.7-.66 1.7-.66 1.71-.66 1.7-.66 1.71-.66 1.7-.65 1.71-.65 1.71-.65 1.71-.66 1.71-.65 1.71-.64 1.71-.65 1.71-.65 1.72-.64 1.71-.64 1.72-.65 1.71-.64 1.72-.64 1.72-.63 1.72-.64 1.72-.64 1.72-.63 1.72-.64 1.72-.63 1.72-.63 1.73-.63 1.72-.63 1.73-.62 1.73-.63 1.72-.62 1.73-.63 1.73-.62 1.73-.62 1.73-.62 1.74-.62 1.73-.61 1.73-.62 1.74-.61 1.74-.62 1.73-.61 1.74-.61 1.74-.61 1.74-.61 1.74-.6 1.74-.61 1.74-.6 1.74-.61 1.75-.6 1.74-.6 1.75-.6 1.75-.6 1.74-.59 1.75-.6 1.75-.59 1.75-.6 1.75-.59 1.75-.59 1.76-.59 1.75-.59 1.76-.58 1.75-.59 1.76-.58 1.76-.59 1.75-.58 1.76-.58" style="stroke-width:1.07;stroke:#000000;stroke-opacity:0.10;stroke-linecap:butt"/><path d="m337.5 275.66 1.59-.83 1.58-.82 1.59-.82 1.59-.81 1.6-.81 1.59-.81 1.6-.81 1.61-.79 1.6-.8 1.61-.79 1.61-.79 1.61-.79 1.62-.78 1.62-.78 1.62-.77 1.62-.77 1.63-.77 1.63-.76 1.63-.76 1.63-.75 1.64-.75 1.64-.75 1.64-.74 1.65-.74 1.65-.74 1.65-.73 1.65-.73 1.66-.72 1.65-.72 1.67-.72 1.66-.72 1.67-.71 1.67-.7 1.67-.7 1.67-.7 1.68-.7 1.68-.69 1.68-.68 1.69-.69 1.69-.68 1.69-.67 1.69-.68 1.7-.66 1.7-.67 1.7-.66 1.71-.66 1.7-.65 1.71-.65 1.71-.64 1.72-.65 1.72-.63 1.72-.64 1.72-.63 1.73-.63 1.73-.62 1.73-.62 1.73-.62 1.74-.61 1.74-.61 1.74-.6 1.75-.6 1.74-.6 1.75-.59 1.76-.59 1.75-.59 1.76-.58 1.76-.58 1.76-.57 1.77-.57 1.77-.57 1.77-.56 1.78-.56 1.77-.56 1.78-.55 1.79-.54 1.78-.55 1.79-.54 1.79-.54 1.79-.53 1.8-.53 1.8-.52 1.8-.53 1.8-.51 1.81-.52 1.81-.51 1.81-.51 1.82-.5 1.81-.5 1.82-.49 1.83-.49 1.82-.49 1.83-.49 1.83-.48 1.83-.47 1.84-.48 1.84-.46 1.84-.47 1.85-.46 1.84-.46" style="stroke-width:1.07;stroke:#000000;stroke-opacity:0.10;stroke-linecap:butt"/><path d="m337.5 275.66 1.5-.95 1.5-.94 1.5-.94 1.51-.93 1.52-.92 1.51-.92 1.53-.91 1.52-.91 1.53-.9 1.54-.89 1.54-.89 1.55-.88 1.54-.87 1.56-.87 1.56-.86 1.56-.85 1.57-.85 1.57-.84 1.58-.84 1.58-.83 1.58-.82 1.59-.82 1.6-.81 1.59-.81 1.61-.8 1.6-.79 1.62-.79 1.61-.78 1.62-.77 1.63-.77 1.63-.76 1.63-.75 1.64-.75 1.65-.74 1.65-.74 1.65-.73 1.65-.72 1.67-.72 1.66-.71 1.67-.7 1.68-.7 1.68-.7 1.68-.68 1.69-.68 1.69-.67 1.7-.67 1.7-.66 1.71-.66 1.71-.64 1.71-.65 1.72-.63 1.73-.63 1.73-.63 1.73-.61 1.74-.61 1.74-.61 1.75-.6 1.75-.59 1.75-.58 1.76-.58 1.77-.58 1.77-.56 1.77-.56 1.78-.56 1.78-.55 1.79-.54 1.79-.53 1.79-.53 1.81-.52 1.8-.52 1.81-.51 1.81-.51 1.82-.49 1.82-.5 1.83-.48 1.83-.48 1.84-.47 1.84-.47 1.85-.46 1.85-.45 1.85-.45 1.86-.44 1.86-.44 1.87-.43 1.87-.42 1.88-.42 1.88-.41 1.89-.4 1.89-.4 1.89-.39 1.9-.38 1.9-.38 1.91-.38 1.91-.36 1.92-.36 1.92-.36 1.93-.34 1.93-.34 1.93-.34" style="stroke-width:1.07;stroke:#000000;stroke-opacity:0.10;stroke-linecap:butt"/><path d="m337.5 275.66 1.41-1.07 1.41-1.07 1.42-1.05 1.43-1.05 1.43-1.03 1.44-1.03 1.45-1.02 1.45-1.01 1.46-1 1.46-.99 1.47-.99 1.48-.97 1.48-.97 1.49-.96 1.5-.95 1.5-.94 1.51-.93 1.51-.92 1.52-.92 1.53-.9 1.53-.9 1.54-.88 1.55-.88 1.55-.87 1.56-.87 1.56-.85 1.57-.84 1.58-.84 1.58-.82 1.59-.82 1.6-.81 1.6-.8 1.61-.79 1.62-.78 1.62-.78 1.62-.76 1.64-.76 1.64-.74 1.64-.74 1.66-.73 1.66-.72 1.66-.72 1.67-.7 1.68-.69 1.68-.69 1.69-.68 1.7-.66 1.7-.66 1.71-.66 1.72-.64 1.72-.63 1.73-.62 1.73-.62 1.74-.61 1.75-.6 1.75-.59 1.76-.58 1.77-.57 1.77-.56 1.77-.55 1.79-.55 1.79-.54 1.8-.53 1.8-.51 1.81-.51 1.81-.51 1.83-.49 1.82-.48 1.84-.48 1.84-.47 1.85-.45 1.85-.45 1.86-.44 1.87-.43 1.87-.43 1.88-.41 1.88-.41 1.89-.39 1.9-.39 1.9-.38 1.91-.37 1.92-.36 1.92-.35 1.93-.35 1.93-.33 1.95-.33 1.94-.31 1.96-.31 1.96-.3 1.96-.29 1.98-.29 1.97-.27 1.99-.26 1.99-.26 2-.25 2-.24 2.01-.23 2.02-.22 2.02-.21" style="stroke-width:1.07;stroke:#000000;stroke-opacity:0.10;stroke-linecap:butt"/><path d="m337.5 275.66 1.32-1.2 1.33-1.18 1.34-1.17 1.34-1.16 1.35-1.15 1.36-1.14 1.37-1.13 1.38-1.11 1.38-1.11 1.39-1.09 1.4-1.08 1.41-1.07 1.42-1.06 1.42-1.05 1.44-1.04 1.44-1.02 1.45-1.02 1.45-1 1.47-.99 1.47-.98 1.48-.97 1.49-.96 1.5-.94 1.51-.94 1.51-.92 1.52-.92 1.53-.9 1.54-.89 1.54-.88 1.56-.86 1.56-.86 1.57-.85 1.58-.83 1.58-.82 1.6-.81 1.6-.8 1.61-.79 1.62-.78 1.63-.77 1.63-.75 1.64-.74 1.65-.74 1.66-.72 1.67-.71 1.67-.69 1.69-.69 1.69-.68 1.7-.66 1.71-.66 1.71-.64 1.72-.63 1.74-.62 1.73-.61 1.75-.59 1.76-.59 1.76-.57 1.77-.57 1.78-.55 1.79-.54 1.8-.53 1.8-.52 1.81-.5 1.82-.5 1.83-.48 1.84-.47 1.84-.47 1.85-.45 1.86-.44 1.87-.42 1.88-.42 1.88-.4 1.9-.4 1.9-.38 1.91-.37 1.91-.36 1.93-.35 1.93-.34 1.94-.32 1.95-.32 1.96-.3 1.97-.3 1.97-.28 1.98-.27 1.99-.26 2-.24 2-.24 2.02-.22 2.02-.22 2.03-.2 2.04-.19 2.04-.18 2.06-.17 2.06-.15 2.07-.15 2.08-.13 2.08-.13 2.1-.11 2.1-.1 2.11-.09" style="stroke-width:1.07;stroke:#000000;stroke-opacity:0.10;stroke-linecap:butt"/><path d="m434.04 392.38 4.31 7.46h-8.62zm-4.57-247.11 1.92 3.32h-3.83zM310.55 416.96l1.92 3.31h-3.83zm-66.99-281.87 4.31 7.47h-8.62zm-35.28 55.59 1.91 3.32h-3.83zm314.49 104.06 1.92 3.31h-3.83zm-359.13-20.77 1.91 3.32h-3.83zm-23.38 54.52 1.91 3.32h-3.83z" style="stroke-width:0.71;stroke:none;fill:#00BA38"/><path d="M330.75 282.42h13.51V268.9h-13.51z" style="stroke-width:0.71;stroke:none;fill:#619CFF"/><circle cx="410.74" cy="524.17" r="3.94" style="stroke-width:0.71;stroke:none;fill:#F8766D"/><circle cx="507.31" cy="212.1" r="3.2" style="stroke-width:0.71;stroke:none;fill:#F8766D"/><circle cx="55.97" cy="197" r="4.98" style="stroke-width:0.71;stroke:none;fill:#F8766D"/><path d="m428.61 402.05 4.55-3.93m1.18-257.86-4.25 6.3m-124.9 277.25 4.49-3.88m-71.53-275.18 4.53-3.92m-29.51 46.71-4.13 4.52m-40.08 79.52-4.44 3.84m-29.65 59.94 4.51-3.9m192.73-51.14 4.51-3.9m79.5 243.1-4.5 3.89m97.78-315.9-1.64 3.61" style="stroke-width:0.53;stroke:#BFBFBF"/><path d="M388.82 421.59h55.34-.08l.34-.01.34-.07.33-.13.3-.17.27-.22.23-.26.19-.3.13-.32.09-.33.02-.35h0v-15.22h0l-.02-.35-.09-.33-.13-.32-.19-.3-.23-.26-.27-.22-.3-.17-.33-.13-.34-.06-.26-.02h-55.34l.26.02-.34-.02-.35.04-.33.1-.32.15-.28.2-.25.24-.21.27-.16.31-.11.33-.06.35-.01.17v15.22l.01-.17v.34l.06.35.11.33.16.31.21.27.25.24.28.2.32.15.33.1.35.04z" style="stroke-width:0.53;fill:#FFFFFF;fill-opacity:0.50"/><text x="416.49" y="409.8" lengthAdjust="spacingAndGlyphs" style="font-size:5.69px;font-family:&quot;Liberation Sans&quot;" text-anchor="middle" textLength="39.76">6939-6945 TA</text><text x="416.49" y="417.99" lengthAdjust="spacingAndGlyphs" style="font-size:5.69px;font-family:&quot;Liberation Sans&quot;" text-anchor="middle" textLength="52.46">INVESTMENTS LLC</text><path d="M436.5 144h68.25-.08l.34-.01.34-.07.33-.12.3-.18.27-.22.23-.26.19-.29.13-.32.09-.34.02-.35h0v-15.22h0l-.02-.34-.09-.34-.13-.32-.19-.29-.23-.27-.27-.21-.3-.18-.33-.12-.34-.07-.26-.02H436.5l.27.02-.35-.02-.35.05-.33.09-.32.15-.28.2-.25.24-.21.28-.16.31-.11.33-.06.34-.01.17v15.22l.01-.17v.35l.06.34.11.33.16.31.21.28.25.24.28.19.32.15.33.1.35.04z" style="stroke-width:0.53;fill:#FFFFFF;fill-opacity:0.50"/><text x="470.63" y="132.21" lengthAdjust="spacingAndGlyphs" style="font-size:5.69px;font-family:&quot;Liberation Sans&quot;" text-anchor="middle" textLength="65.37">6937 TA INVESTMENTS</text><text x="470.63" y="140.4" lengthAdjust="spacingAndGlyphs" style="font-size:5.69px;font-family:&quot;Liberation Sans&quot;" text-anchor="middle" textLength="10.31">LLC</text><path d="M258.95 443.35h68.25-.09l.35-.02.34-.07.32-.12.3-.17.27-.22.23-.26.19-.3.14-.32.08-.33.03-.35h0v-15.22h0l-.03-.35-.08-.34-.14-.32-.19-.29-.23-.26-.27-.22-.3-.17-.32-.13-.34-.07-.26-.01h-68.25l.26.01-.35-.01-.34.04-.34.1-.31.15-.29.2-.25.24-.21.27-.16.31-.11.33-.06.34v15.4-.17.34l.06.35.11.33.16.3.21.28.25.24.29.2.31.15.34.1.34.04z" style="stroke-width:0.53;fill:#FFFFFF;fill-opacity:0.50"/><text x="293.07" y="431.56" lengthAdjust="spacingAndGlyphs" style="font-size:5.69px;font-family:&quot;Liberation Sans&quot;" text-anchor="middle" textLength="65.37">6373 TA INVESTMENTS</text><text x="293.07" y="439.75" lengthAdjust="spacingAndGlyphs" style="font-size:5.69px;font-family:&quot;Liberation Sans&quot;" text-anchor="middle" textLength="10.31">LLC</text><path d="M198.2 164.29h55.34-.09l.35-.02.34-.07.33-.12.3-.17.27-.22.23-.26.18-.3.14-.32.08-.34.03-.34h0v-15.22h0l-.03-.35-.08-.34-.14-.32-.18-.29-.23-.26-.27-.22-.3-.18-.33-.12-.34-.07-.26-.01H198.2l.26.01-.34-.01-.35.04-.33.1-.32.15-.28.19-.25.24-.21.28-.16.31-.12.33-.05.34-.01.18v15.22l.01-.18v.35l.05.34.12.33.16.31.21.28.25.24.28.2.32.15.33.09.35.05z" style="stroke-width:0.53;fill:#FFFFFF;fill-opacity:0.50"/><text x="225.87" y="152.49" lengthAdjust="spacingAndGlyphs" style="font-size:5.69px;font-family:&quot;Liberation Sans&quot;" text-anchor="middle" textLength="39.76">8598-7230 TA</text><text x="225.87" y="160.69" lengthAdjust="spacingAndGlyphs" style="font-size:5.69px;font-family:&quot;Liberation Sans&quot;" text-anchor="middle" textLength="52.46">INVESTMENTS LLC</text><path d="M215.33 191.07h55.34l-.08-.01.34-.01.34-.07.33-.12.3-.18.27-.22.23-.26.19-.29.13-.32.09-.34.02-.34h0v-15.23h0l-.02-.34-.09-.34-.13-.32-.19-.29-.23-.26-.27-.22-.3-.18-.33-.12-.34-.07-.26-.02h-55.34l.27.02-.35-.01-.35.04-.33.1-.32.14-.28.2-.25.24-.21.28-.16.31-.11.33-.06.34-.01.17v15.23l.01-.18v.35l.06.34.11.33.16.31.21.28.25.24.28.2.32.15.33.09.35.04z" style="stroke-width:0.53;fill:#FFFFFF;fill-opacity:0.50"/><text x="243" y="179.27" lengthAdjust="spacingAndGlyphs" style="font-size:5.69px;font-family:&quot;Liberation Sans&quot;" text-anchor="middle" textLength="39.76">5506-5530 TA</text><text x="243" y="187.47" lengthAdjust="spacingAndGlyphs" style="font-size:5.69px;font-family:&quot;Liberation Sans&quot;" text-anchor="middle" textLength="52.46">INVESTMENTS LLC</text><path d="M447.56 306.71h68.25l-.09-.01.35-.01.34-.07.32-.12.3-.18.27-.22.23-.26.19-.29.14-.32.08-.34.03-.34h0v-15.23h0l-.03-.34-.08-.34-.14-.32-.19-.29-.23-.26-.27-.22-.3-.18-.32-.12-.34-.07-.26-.02h-68.25l.26.02-.35-.01-.34.04-.34.09-.31.15-.29.2-.25.24-.21.28-.16.31-.11.33-.05.34-.01.17v15.23l.01-.18v.35l.05.34.11.33.16.31.21.28.25.24.29.2.31.15.34.09.34.04z" style="stroke-width:0.53;fill:#FFFFFF;fill-opacity:0.50"/><text x="481.68" y="294.91" lengthAdjust="spacingAndGlyphs" style="font-size:5.69px;font-family:&quot;Liberation Sans&quot;" text-anchor="middle" textLength="65.37">8935 TA INVESTMENTS</text><text x="481.68" y="303.11" lengthAdjust="spacingAndGlyphs" style="font-size:5.69px;font-family:&quot;Liberation Sans&quot;" text-anchor="middle" textLength="10.31">LLC</text><path d="M146.98 271.58h68.25-.09l.35-.01.34-.07.33-.13.3-.17.27-.22.23-.26.18-.29.14-.32.08-.34.03-.35h0V254.2h0l-.03-.35-.08-.33-.14-.32-.18-.3-.23-.26-.27-.22-.3-.17-.33-.12-.34-.07-.26-.02h-68.25l.26.02-.35-.02-.34.05-.33.09-.32.15-.28.2-.26.24-.2.28-.17.3-.11.33-.05.35-.01.17v15.22l.01-.17v.35l.05.34.11.33.17.31.2.28.26.24.28.19.32.15.33.1.34.04z" style="stroke-width:0.53;fill:#FFFFFF;fill-opacity:0.50"/><text x="181.11" y="259.79" lengthAdjust="spacingAndGlyphs" style="font-size:5.69px;font-family:&quot;Liberation Sans&quot;" text-anchor="middle" textLength="65.37">1604 TA INVESTMENTS</text><text x="181.11" y="267.98" lengthAdjust="spacingAndGlyphs" style="font-size:5.69px;font-family:&quot;Liberation Sans&quot;" text-anchor="middle" textLength="10.31">LLC</text><path d="M90.24 354.9h64.9-.08l.34-.01.34-.07.33-.12.3-.18.27-.22.23-.26.18-.29.14-.32.08-.34.03-.35h0v-15.22h0l-.03-.34-.08-.34-.14-.32-.18-.3-.23-.26-.27-.22-.3-.17-.33-.12-.34-.07-.26-.02h-64.9l.26.02-.35-.02-.34.05-.33.09-.32.15-.28.2-.26.24-.2.28-.17.31-.11.33-.05.34-.01.17v15.22l.01-.17v.35l.05.34.11.33.17.31.2.28.26.24.28.19.32.15.33.1.34.04z" style="stroke-width:0.53;fill:#FFFFFF;fill-opacity:0.50"/><text x="122.69" y="343.11" lengthAdjust="spacingAndGlyphs" style="font-size:5.69px;font-family:&quot;Liberation Sans&quot;" text-anchor="middle" textLength="62.02">3756 LA INVESTMENT</text><text x="122.69" y="351.3" lengthAdjust="spacingAndGlyphs" style="font-size:5.69px;font-family:&quot;Liberation Sans&quot;" text-anchor="middle" textLength="10.31">LLC</text><path d="M289.23 299.86h61.53-.08l.35-.01.34-.07.32-.12.3-.18.27-.22.23-.26.19-.29.13-.32.09-.34.02-.35h0v-15.22h0l-.02-.34-.09-.34-.13-.32-.19-.3-.23-.26-.27-.22-.3-.17-.32-.12-.34-.07-.27-.02h-61.53l.26.02-.35-.02-.35.05-.33.09-.31.15-.29.2-.25.24-.21.28-.16.31-.11.33-.06.34v15.39-.17.35l.06.34.11.33.16.31.21.28.25.24.29.19.31.15.33.1.35.04z" style="stroke-width:0.53;fill:#FFFFFF;fill-opacity:0.50"/><text x="320" y="288.07" lengthAdjust="spacingAndGlyphs" style="font-size:5.69px;font-family:&quot;Liberation Sans&quot;" text-anchor="middle" textLength="58.66">14134 BRIDAL PATH,</text><text x="320" y="296.26" lengthAdjust="spacingAndGlyphs" style="font-size:5.69px;font-family:&quot;Liberation Sans&quot;" text-anchor="middle" textLength="56.71">MEQUON, WI 53097</text><path d="M394.66 519.52h67.22-.09l.35-.02.34-.07.33-.12.3-.18.27-.22.23-.26.18-.29.14-.32.08-.34.03-.34h0v-15.22h0l-.03-.35-.08-.34-.14-.32-.18-.29-.23-.26-.27-.22-.3-.18-.33-.12-.34-.07-.26-.01h-67.22l.26.01-.35-.01-.34.04-.34.1-.31.14-.29.2-.25.24-.2.28-.17.31-.11.33-.05.34-.01.18v15.22l.01-.18v.35l.05.34.11.33.17.31.2.28.25.24.29.2.31.15.34.09.34.05z" style="stroke-width:0.53;fill:#FFFFFF;fill-opacity:0.50"/><text x="428.27" y="507.72" lengthAdjust="spacingAndGlyphs" style="font-size:5.69px;font-family:&quot;Liberation Sans&quot;" text-anchor="middle" textLength="46.86">PO BOX 241512,</text><text x="428.27" y="515.92" lengthAdjust="spacingAndGlyphs" style="font-size:5.69px;font-family:&quot;Liberation Sans&quot;" text-anchor="middle" textLength="64.34">MILWAUKEE, WI 53224</text><path d="M478.8 207.51h61.54l-.09-.01.35-.01.34-.07.32-.12.3-.18.27-.22.23-.26.19-.29.14-.32.08-.34.03-.34h0v-15.23h0l-.03-.34-.08-.34-.14-.32-.19-.29-.23-.26-.27-.22-.3-.18-.32-.12-.34-.07-.26-.02H478.8l.26.02-.35-.01-.34.04-.34.09-.31.15-.29.2-.25.24-.21.28-.16.31-.11.33-.06.34v15.4-.18.35l.06.34.11.33.16.31.21.28.25.24.29.2.31.15.34.09.34.04z" style="stroke-width:0.53;fill:#FFFFFF;fill-opacity:0.50"/><text x="509.57" y="195.71" lengthAdjust="spacingAndGlyphs" style="font-size:5.69px;font-family:&quot;Liberation Sans&quot;" text-anchor="middle" textLength="58.66">14134 BRIDAL PATH,</text><text x="509.57" y="203.91" lengthAdjust="spacingAndGlyphs" style="font-size:5.69px;font-family:&quot;Liberation Sans&quot;" text-anchor="middle" textLength="56.71">MEQUON, WI 53097</text><path d="M63 206.79h67.22-.09l.35-.02.34-.07.32-.12.31-.17.27-.22.23-.26.18-.3.14-.32.08-.33.03-.35h0v-15.22h0l-.03-.35-.08-.34-.14-.32-.18-.29-.23-.26-.27-.22-.31-.17-.32-.13-.34-.07-.26-.01H63l.26.01-.35-.01-.34.04-.34.1-.31.15-.29.19-.25.24-.21.28-.16.31-.11.33-.05.34-.01.18v15.22l.01-.18v.35l.05.35.11.33.16.3.21.28.25.24.29.2.31.15.34.09.34.05z" style="stroke-width:0.53;fill:#FFFFFF;fill-opacity:0.50"/><text x="96.61" y="194.99" lengthAdjust="spacingAndGlyphs" style="font-size:5.69px;font-family:&quot;Liberation Sans&quot;" text-anchor="middle" textLength="46.86">PO BOX 241512,</text><text x="96.61" y="203.19" lengthAdjust="spacingAndGlyphs" style="font-size:5.69px;font-family:&quot;Liberation Sans&quot;" text-anchor="middle" textLength="64.34">MILWAUKEE, WI 53202</text></g><g clip-path="url(#cpMC4wMHw1NzYuMDB8MC4wMHw1NzYuMDA=)"><circle cx="194.24" cy="95.78" r="1.95" style="stroke-width:0.71;stroke:none;fill:#F8766D"/><path d="m270.59 92.74 2.63 4.56h-5.26z" style="stroke-width:0.71;stroke:none;fill:#00BA38"/><path d="M336.57 97.74h3.91v-3.91h-3.91z" style="stroke-width:0.71;stroke:none;fill:#619CFF"/><text x="208.36" y="98.81" lengthAdjust="spacingAndGlyphs" style="font-size:8.80px;font-family:&quot;Liberation Sans Narrow&quot;" textLength="48.12">mprop address</text><text x="284.71" y="98.81" lengthAdjust="spacingAndGlyphs" style="font-size:8.80px;font-family:&quot;Liberation Sans Narrow&quot;" textLength="39.69">owner name</text><text x="352.64" y="98.81" lengthAdjust="spacingAndGlyphs" style="font-size:8.80px;font-family:&quot;Liberation Sans Narrow&quot;" textLength="40.5">wdfi address</text><text x="32.63" y="64.23" lengthAdjust="spacingAndGlyphs" style="font-size:12.00px;font-family:&quot;Liberation Sans Narrow&quot;" textLength="252.23">includes 10 parcels, 96 units, and 8 distinct owner names.</text><text x="32.63" y="42.27" lengthAdjust="spacingAndGlyphs" style="font-size:18.00px;font-weight:bold;font-family:&quot;Liberation Sans Narrow&quot;" textLength="308.38">6939-6945 TA INVESTMENTS LLC etc Group</text></g></svg>