<svg xmlns="http://www.w3.org/2000/svg" width="384" height="480" viewBox="0 0 288 360"><g class="svglite"><defs><style><![CDATA[.svglite line,.svglite polyline,.svglite polygon,.svglite path,.svglite circle{fill:none;stroke:#000000;stroke-linecap:round;stroke-linejoin:round;stroke-miterlimit:10.00}.svglite text{white-space:pre}.svglite g.glyphgroup path{fill:inherit;stroke:none}]]></style></defs><rect width="100%" height="100%" style="stroke-linecap:round;stroke-linejoin:round;stroke-miterlimit:10.00;stroke:none;fill:#FFFFFF"/><defs><clipPath id="cpMC4wMHwyODguMDB8MC4wMHwzNjAuMDA="><path d="M0 0h288v360H0z"/></clipPath></defs><g clip-path="url(#cpMC4wMHwyODguMDB8MC4wMHwzNjAuMDA=)"><path d="M0 0h288v360H0z" style="stroke-width:1.07;stroke:none;fill:#FFFFFF"/></g><defs><clipPath id="cpMjkuODl8MjU4LjExfDE2MS4wMnwzMzAuMTE="><path d="M29.89 161.02h228.22v169.09H29.89z"/></clipPath></defs><g clip-path="url(#cpMjkuODl8MjU4LjExfDE2MS4wMnwzMzAuMTE=)"><path d="m247.74 254.37-2.01-.76-2.01-.74-2.01-.73-2.01-.72-2.01-.71-2.02-.69-2.02-.69-2.02-.67-2.02-.66-2.02-.65-2.03-.63-2.02-.63-2.03-.61-2.03-.6-2.04-.59-2.03-.58-2.04-.57-2.03-.55-2.04-.54-2.04-.54-2.05-.51-2.04-.51-2.05-.5-2.05-.48-2.05-.47-2.05-.46-2.06-.45-2.05-.44-2.06-.42-2.06-.42-2.06-.4-2.06-.39-2.07-.37-2.06-.37-2.07-.35-2.07-.35-2.08-.33-2.07-.32-2.07-.3-2.08-.3-2.08-.28-2.08-.27-2.09-.26-2.08-.25-2.09-.24-2.09-.22-2.09-.21-2.09-.21-2.09-.18-2.1-.18-2.1-.17-2.1-.15-2.1-.14-2.1-.13-2.1-.12-2.11-.11-2.11-.09-2.11-.09-2.11-.07-2.12-.06-2.11-.05-2.12-.03-2.12-.03-2.12-.01h-2.12l-2.13.01-2.12.02-2.13.04-2.13.04-2.13.06-2.14.07-2.13.08-2.14.1-2.14.1-2.14.12-2.14.13-2.15.14-2.14.15-2.15.17-2.15.17-2.15.19-2.16.2-2.15.21-2.16.22-2.16.24-2.16.24-2.16.26-2.17.27-2.16.28-2.17.3-2.17.3-2.17.32-2.18.33-2.17.34-2.18.35-2.18.37-2.18.37-2.18.39-2.19.4m207.48 17.57-1.26.43-1.26.44-1.24.45-1.24.45-1.24.45-1.22.46-1.22.47-1.22.47-1.2.48-1.2.48-1.19.48-1.18.5-1.18.49-1.17.51-1.16.5-1.16.51-1.15.52-1.14.52-1.14.53-1.12.53-1.12.54-1.12.55-1.11.54-1.09.56-1.1.56-1.08.56-1.08.57-1.07.57-1.07.58-1.06.59-1.05.59-1.04.59-1.04.6-1.03.6-1.02.61-1.02.62-1 .62-1.01.63-.99.63-.99.63-.98.64-.97.65-.97.65-.96.66-.95.66-.94.67-.94.67-.93.68-.93.68-.92.69-.91.69-.9.7-.9.7-.88.71-.89.71-.87.72-.87.72-.86.73-.86.73-.84.74-.84.75-.84.75-.82.75-.82.76-.81.77-.81.77-.8.77-.79.78-.78.79-.78.79-.77.79-.76.8-.76.81-.74.81-.75.82-.73.82-.73.83-.72.83-.71.83-.71.85-.7.84-.69.86-.69.85-.68.87-.67.86-.66.88-.66.88-.65.88-.64.89-.64.89-.63.9-.62.9-.62.91-.61.92-.6.92-.59.92-.59.93-.58.94-.57.94M131.02 168.7l-1.03.61-1.03.6-1.03.61-1.02.61-1.03.61-1.02.61-1.01.62-1.02.61-1.01.62-1.01.62-1.01.62-1.01.62-1 .63-1 .62-1 .63-1 .63-.99.63-.99.63-.99.64-.99.63-.98.64-.98.64-.98.64-.98.65-.98.64-.97.65-.97.65-.97.65-.96.65-.97.65-.96.66-.96.65-.95.66-.96.66-.95.67-.95.66-.95.66-.94.67-.94.67-.94.67-.94.67-.94.68-.93.67-.93.68-.93.68-.93.68-.92.68-.92.69-.92.68-.92.69-.91.69-.91.69-.91.7-.91.69-.91.7-.9.7-.9.7-.9.7-.89.7-.9.71-.89.7-.89.71-.88.71-.89.71-.88.72-.88.71-.87.72-.88.72-.87.72-.87.72-.87.72-.86.73-.87.73-.86.73-.85.73-.86.73-.85.73-.85.74-.85.74-.85.74-.84.74-.85.74-.84.75-.83.74-.84.75-.83.75-.83.75-.83.75-.82.76-.83.76-.82.75-.82.76-.81.77-.81.76-.82.76-.81.77-.8.77-.81.77-.8.77" style="stroke-width:1.07;stroke:#000000;stroke-opacity:0.10;stroke-linecap:butt"/><path d="M131.02 168.7v1.58l.01 1.58.01 1.57.02 1.58.02 1.57.03 1.58.04 1.57.04 1.57.04 1.58.05 1.57.06 1.57.06 1.57.06 1.57.08 1.57.07 1.57.08 1.57.09 1.57.09 1.57.1 1.57.11 1.57.1 1.56.12 1.57.12 1.57.12 1.56.13 1.57.14 1.56.14 1.56.14 1.57.15 1.56.16 1.56.16 1.57.17 1.56.17 1.56.17 1.56.19 1.56.18 1.56.2 1.56.2 1.56.2 1.55.21 1.56.21 1.56.22 1.56.23 1.55.23 1.56.23 1.55.24 1.56.25 1.55.25 1.56.26 1.55.26 1.55.26 1.55.28 1.56.27 1.55.29 1.55.29 1.55.29 1.55.3 1.55.3 1.55.31 1.54.32 1.55.32 1.55.32 1.55.33 1.54.34 1.55.34 1.54.34 1.55.36 1.54.35 1.55.36 1.54.37 1.54.37 1.55.38 1.54.39 1.54.38 1.54.4 1.54.4 1.54.4 1.54.41 1.54.42 1.54.42 1.54.42 1.53.43 1.54.44 1.54.44 1.53.45 1.54.45 1.53.46 1.54.46 1.53.47 1.54.47 1.53.48 1.53.48 1.53.49 1.54.5 1.53.5 1.53.5 1.53.51 1.53.52 1.53.52 1.53M131.02 168.7l-.81.78-.8.77-.81.76-.81.77-.81.77-.81.76-.82.76-.81.76-.83.76-.82.76-.82.75-.83.75-.83.76-.83.75-.84.74-.84.75-.84.74-.84.75-.84.74-.85.74-.85.73-.85.74-.85.74-.86.73-.86.73-.86.73-.86.72-.86.73-.87.72-.87.73-.87.72-.88.72-.87.71-.88.72-.89.71-.88.71-.89.71-.88.71-.9.71-.89.7-.89.71-.9.7-.9.7-.91.7-.9.69-.91.7-.91.69-.91.69-.91.69-.92.69-.92.69-.92.68-.92.68-.93.68-.93.68-.93.68-.93.68-.94.67-.94.67-.94.67-.94.67-.94.67-.95.67-.95.66-.95.66-.96.66-.95.66-.96.66-.96.65-.97.66-.96.65-.97.65-.97.65-.97.64-.98.65-.98.64-.98.64-.98.64-.98.64-.99.64-.99.63-.99.64-1 .63-.99.63-1 .62-1 .63-1.01.62-1 .63-1.01.62-1.01.62-1.01.61-1.02.62-1.01.61-1.02.62-1.03.61-1.02.61-1.03.6-1.03.61-1.03.6m90.76-68.1.52 1.53.51 1.53.51 1.53.51 1.53.5 1.53.49 1.53.49 1.53.48 1.54.48 1.53.48 1.53.46 1.54.47 1.53.45 1.53.46 1.54.44 1.54.44 1.53.44 1.54.43 1.54.43 1.53.42 1.54.41 1.54.41 1.54.41 1.54.39 1.54.4 1.54.39 1.54.38 1.54.38 1.54.37 1.55.37 1.54.36 1.54.36 1.55.35 1.54.35 1.55.34 1.54.33 1.55.33 1.54.33 1.55.32 1.55.31 1.54.31 1.55.31 1.55.29 1.55.3 1.55.29 1.55.28 1.55.28 1.55.27 1.56.27 1.55.26 1.55.25 1.55.25 1.56.25 1.55.24 1.56.24 1.55.23 1.56.22 1.55.22 1.56.21 1.56.21 1.55.21 1.56.2 1.56.19 1.56.19 1.56.18 1.56.18 1.56.17 1.56.16 1.56.17 1.57.15 1.56.15 1.56.15 1.57.14 1.56.13 1.56.13 1.57.13 1.56.12 1.57.11 1.57.11 1.56.1 1.57.1 1.57.09 1.57.09 1.57.08 1.57.08 1.57.07 1.57.06 1.57.07 1.57.05 1.57.05 1.57.05 1.58.04 1.57.03 1.57.03 1.58.02 1.57.02 1.58.02 1.57v1.58l.01 1.58" style="stroke-width:1.07;stroke:#000000;stroke-opacity:0.10;stroke-linecap:butt"/><path d="m247.74 254.37-2.07-.37-2.06-.37-2.07-.36-2.07-.36-2.07-.35-2.07-.35-2.07-.35-2.07-.34-2.07-.34-2.07-.33-2.07-.33-2.08-.33-2.07-.32-2.07-.32-2.08-.32-2.07-.31-2.08-.3-2.07-.31-2.08-.3-2.08-.29-2.08-.29-2.08-.29-2.08-.28-2.08-.28-2.08-.28-2.08-.27-2.08-.27-2.08-.26-2.08-.26-2.09-.26-2.08-.25-2.09-.25-2.08-.24-2.09-.24-2.09-.24-2.08-.23-2.09-.23-2.09-.22-2.09-.23-2.09-.21-2.09-.21-2.09-.21-2.09-.21-2.09-.2-2.1-.2-2.09-.19-2.09-.19-2.1-.18-2.09-.19-2.1-.17-2.09-.18-2.1-.17-2.1-.16-2.1-.16-2.1-.16-2.1-.16-2.09-.15-2.11-.14-2.1-.14-2.1-.14-2.1-.14-2.1-.13-2.11-.12-2.1-.13-2.11-.11-2.1-.12-2.11-.11-2.1-.11-2.11-.1-2.11-.1-2.11-.09-2.11-.09-2.11-.09-2.11-.08-2.11-.08-2.11-.08-2.11-.07-2.11-.07-2.12-.06-2.11-.06-2.11-.06-2.12-.05-2.12-.05-2.11-.04-2.12-.04-2.12-.04-2.11-.03-2.12-.03-2.12-.02-2.12-.02-2.12-.02-2.12-.01-2.13-.01h-6.36l-2.13.01-2.12.01-2.13.01m207.48 17.57-1.03.6-1.03.61-1.03.6-1.03.61-1.02.61-1.02.61-1.02.62-1.01.61-1.02.62-1.01.62-1 .62-1.01.62-1 .62-1.01.63-1 .63-.99.63-1 .63-.99.63-.99.63-.99.64-.98.64-.98.64-.98.64-.98.64-.98.64-.97.65-.97.65-.97.65-.97.65-.96.65-.96.66-.96.65-.96.66-.96.66-.95.66-.95.67-.95.66-.94.67-.94.67-.94.67-.94.67-.94.67-.93.68-.93.68-.93.68-.93.68-.92.68-.93.68-.92.69-.91.69-.92.68-.91.7-.91.69-.91.69-.9.7-.91.7-.9.7-.9.7-.89.7-.9.7-.89.71-.89.71-.88.71-.89.71-.88.71-.88.72-.88.72-.87.71-.88.72-.87.73-.87.72-.86.72-.86.73-.87.73-.85.73-.86.73-.86.74-.85.73-.85.74-.84.74-.85.74-.84.74-.84.75-.84.74-.83.75-.84.75-.83.75-.83.75-.82.76-.83.75-.82.76-.82.76-.81.76-.82.76-.81.77-.81.77-.81.76-.8.77-.8.78m90.81-68.06-2.13.01-2.12.01-2.13.01H235l-2.13-.01-2.12-.01-2.12-.02-2.12-.02-2.12-.02-2.12-.03-2.11-.03-2.12-.04-2.12-.04-2.11-.04-2.12-.05-2.12-.05-2.11-.06-2.11-.06-2.12-.06-2.11-.07-2.11-.07-2.11-.08-2.11-.08-2.11-.08-2.11-.09-2.11-.09-2.11-.09-2.11-.1-2.11-.1-2.1-.11-2.11-.11-2.1-.12-2.11-.11-2.1-.13-2.11-.12-2.1-.13-2.1-.14-2.1-.14-2.1-.14-2.11-.14-2.09-.15-2.1-.16-2.1-.16-2.1-.16-2.1-.16-2.1-.17-2.09-.18-2.1-.17-2.09-.19-2.1-.18-2.09-.19-2.09-.19-2.1-.2-2.09-.2-2.09-.21-2.09-.2-2.09-.22-2.09-.21-2.09-.23-2.09-.22-2.09-.23-2.08-.23-2.09-.24-2.09-.24-2.08-.24-2.09-.25-2.08-.25-2.09-.26-2.08-.26-2.08-.26-2.08-.27-2.08-.27-2.08-.28-2.08-.28-2.08-.28-2.08-.29-2.08-.29-2.08-.29-2.08-.3-2.07-.31-2.08-.3-2.07-.31-2.08-.32-2.07-.32-2.07-.32-2.08-.33-2.07-.33-2.07-.33-2.07-.34-2.07-.34-2.07-.35-2.07-.35-2.07-.35-2.07-.36-2.07-.36-2.06-.37-2.07-.37m207.48 17.57-.8.77-.81.77-.81.77-.81.76-.81.77-.81.76-.82.76-.82.76-.82.76-.82.76-.83.75-.83.75-.83.76-.83.75-.84.74-.83.75-.84.74-.85.75-.84.74-.85.73-.85.74-.85.74-.85.73-.86.73-.86.73-.86.73-.86.73-.87.73-.87.72-.87.72-.87.72-.88.72-.87.72-.88.71-.89.71-.88.72-.89.71-.89.7-.89.71-.89.7-.9.71-.9.7-.9.7-.9.7-.91.69-.9.7-.92.69-.91.69-.91.69-.92.69-.92.68-.92.69-.93.68-.92.68-.93.68-.93.67-.94.68-.93.67-.94.68-.94.67-.94.66-.95.67-.95.67-.95.66-.95.66-.95.66-.96.66-.96.66-.96.65-.97.65-.96.66-.97.65-.97.64-.98.65-.97.64-.98.65-.98.64-.98.64-.99.63-.99.64-.99.63-.99.64-.99.63-1 .63-1 .62-1 .63-1 .62-1.01.63-1.01.62-1.01.61-1.01.62-1.02.62-1.02.61-1.02.61-1.02.61-1.02.61-1.03.61-1.03.6-1.03.61" style="stroke-width:1.07;stroke:#000000;stroke-opacity:0.10;stroke-linecap:butt"/><path d="m247.74 254.37-2.19.4-2.18.39-2.18.37-2.18.37-2.18.35-2.17.34-2.18.33-2.17.32-2.17.3-2.17.3-2.16.28-2.17.27-2.16.26-2.16.24-2.16.24-2.16.22-2.15.21-2.16.2-2.15.19-2.15.17-2.15.17-2.14.15-2.15.14-2.14.13-2.14.12-2.14.1-2.14.1-2.13.08-2.14.07-2.13.06-2.13.04-2.13.04-2.12.02-2.13.01h-2.12l-2.12-.01-2.12-.03-2.12-.03-2.11-.05-2.12-.06-2.11-.07-2.11-.09-2.11-.09-2.11-.11-2.1-.12-2.1-.13-2.1-.14-2.1-.15-2.1-.17-2.1-.18-2.09-.18-2.09-.21-2.09-.21-2.09-.22-2.09-.24-2.08-.25-2.09-.26-2.08-.27-2.08-.28-2.08-.3-2.07-.3-2.07-.32-2.08-.33-2.07-.35-2.07-.35-2.06-.37-2.07-.37-2.06-.39-2.06-.4-2.06-.42-2.06-.42-2.05-.44-2.06-.45-2.05-.46-2.05-.47-2.05-.48-2.05-.5-2.04-.51-2.05-.51-2.04-.54-2.04-.54-2.03-.55-2.04-.57-2.03-.58-2.04-.59-2.03-.6-2.03-.61-2.02-.63-2.03-.63-2.02-.65-2.02-.66-2.02-.67-2.02-.69-2.02-.69-2.01-.71-2.01-.72-2.01-.73-2.01-.74-2.01-.76m207.48 17.57-.58.94-.58.93-.58.93-.6.93-.6.92-.61.91-.61.91-.62.9-.63.9-.64.9-.64.89-.65.88-.66.88-.67.87-.67.87-.68.86-.68.86-.7.85-.7.85-.7.84-.72.84-.72.83-.72.83-.74.82-.74.81-.75.81-.76.81-.76.8-.77.8-.77.79-.79.78-.79.78-.8.78-.8.77-.81.76-.82.76-.83.76-.83.75-.84.74-.85.74-.85.73-.87.73-.86.73-.88.71-.88.72-.89.71-.9.7-.9.7-.91.69-.92.69-.92.68-.93.68-.94.67-.95.66-.95.67-.96.65-.96.65-.98.65-.98.64-.99.64-.99.63-1 .62-1.01.62-1.02.62-1.02.61-1.03.6-1.03.6-1.05.6-1.05.59-1.06.58-1.06.58-1.07.58-1.08.56-1.09.57-1.09.56-1.1.55-1.11.55-1.11.54-1.12.54-1.13.53-1.13.53-1.15.52-1.15.52-1.15.51-1.16.51-1.17.5-1.18.5-1.19.49-1.19.49-1.19.48-1.21.47-1.21.47-1.22.47-1.23.46-1.23.46-1.24.45-1.25.44-1.25.44-1.26.44" style="stroke-width:1.07;stroke:#000000;stroke-opacity:0.10;stroke-linecap:butt"/><path d="m247.74 246.29 6.99 12.12h-13.99zm-116.72-79.8 1.91 3.32h-3.83z" style="stroke-width:0.71;stroke:none;fill:#00BA38"/><circle cx="40.26" cy="236.8" r="6.76" style="stroke-width:0.71;stroke:none;fill:#F8766D"/><path d="M150.17 329.18h13.51v-13.51h-13.51z" style="stroke-width:0.71;stroke:none;fill:#619CFF"/><path d="M242.81 254.37h3.86m-109.99-81.06-4.84-3.93M45.16 236.8h-3.83m113.29 81.08 1.82 3.59" style="stroke-width:0.53;stroke:#BFBFBF"/><path d="M180.59 264.02h60.06-.08l.34-.01.35-.07.32-.12.3-.18.27-.22.23-.26.19-.29.13-.32.09-.34.02-.35h0v-14.99h0l-.02-.34-.09-.34-.13-.32-.19-.29-.23-.27-.27-.21-.3-.18-.32-.12-.35-.07-.26-.02h-60.06l.26.02-.35-.02-.35.05-.33.09-.31.15-.29.2-.25.24-.21.28-.16.31-.11.33-.06.34v15.16-.17.35l.06.34.11.33.16.31.21.28.25.24.29.19.31.15.33.1.35.04z" style="stroke-width:0.53;fill:#FFFFFF;fill-opacity:0.50"/><text x="210.62" y="252.23" lengthAdjust="spacingAndGlyphs" style="font-size:5.69px;font-family:&quot;Liberation Sans&quot;" text-anchor="middle" textLength="34.75">9TH STREET</text><text x="210.62" y="260.42" lengthAdjust="spacingAndGlyphs" style="font-size:5.69px;font-family:&quot;Liberation Sans&quot;" text-anchor="middle" textLength="57.19">INVESTMENTS 4 LLC</text><path d="M112.7 184.42h64.07-.09l.35-.01.34-.07.33-.12.3-.18.27-.22.23-.26.18-.29.14-.32.08-.34.03-.35h0v-6.79h0l-.03-.35-.08-.34-.14-.32-.18-.29-.23-.26-.27-.22-.3-.17-.33-.13-.34-.07-.26-.01H112.7l.26.01-.34-.01-.35.04-.33.1-.32.15-.28.19-.25.24-.21.28-.16.31-.11.33-.06.34-.01.18v6.79l.01-.17v.35l.06.34.11.33.16.31.21.28.25.24.28.19.32.15.33.1.35.04z" style="stroke-width:0.53;fill:#FFFFFF;fill-opacity:0.50"/><text x="144.74" y="180.82" lengthAdjust="spacingAndGlyphs" style="font-size:5.69px;font-family:&quot;Liberation Sans&quot;" text-anchor="middle" textLength="61.19">TJ PROPERTIES 1 LLC</text><path d="M47.32 246.46h63.42-.08l.34-.02.34-.07.33-.12.3-.17.27-.22.23-.26.19-.3.13-.32.08-.34.03-.34h0v-14.99h0l-.03-.35-.08-.34-.13-.32-.19-.29-.23-.26-.27-.22-.3-.17-.33-.13-.34-.07-.26-.01H47.32l.26.01-.35-.01-.35.04-.33.1-.31.15-.29.19-.25.24-.21.28-.16.31-.11.33-.06.34v15.17-.18.35l.06.35.11.32.16.31.21.28.25.24.29.2.31.15.33.09.35.05z" style="stroke-width:0.53;fill:#FFFFFF;fill-opacity:0.50"/><text x="79.03" y="234.66" lengthAdjust="spacingAndGlyphs" style="font-size:5.69px;font-family:&quot;Liberation Sans&quot;" text-anchor="middle" textLength="40.33">PO BOX 11437,</text><text x="79.03" y="242.86" lengthAdjust="spacingAndGlyphs" style="font-size:5.69px;font-family:&quot;Liberation Sans&quot;" text-anchor="middle" textLength="60.55">MILWAUKEE, WI 53211</text><path d="M122.72 317.88h63.43-.09l.35-.01.34-.07.33-.13.3-.17.27-.22.23-.26.18-.3.14-.31.08-.34.03-.35h0v-14.99h0l-.03-.35-.08-.33-.14-.32-.18-.3-.23-.26-.27-.22-.3-.17-.33-.12-.34-.07-.26-.02h-63.43l.26.02-.34-.02-.35.04-.33.1-.32.15-.28.2-.25.24-.21.28-.16.3-.11.33-.06.35-.01.17v14.99l.01-.17v.34l.06.35.11.33.16.31.21.27.25.24.28.2.32.15.33.1.35.04z" style="stroke-width:0.53;fill:#FFFFFF;fill-opacity:0.50"/><text x="154.44" y="306.09" lengthAdjust="spacingAndGlyphs" style="font-size:5.69px;font-family:&quot;Liberation Sans&quot;" text-anchor="middle" textLength="40.33">11437 PO BOX,</text><text x="154.44" y="314.28" lengthAdjust="spacingAndGlyphs" style="font-size:5.69px;font-family:&quot;Liberation Sans&quot;" text-anchor="middle" textLength="60.55">MILWAUKEE, WI 53211</text></g><g clip-path="url(#cpMC4wMHwyODguMDB8MC4wMHwzNjAuMDA=)"><circle cx="48.83" cy="135.94" r="1.95" style="stroke-width:0.71;stroke:none;fill:#F8766D"/><path d="m125.23 132.9 2.63 4.56h-5.26z" style="stroke-width:0.71;stroke:none;fill:#00BA38"/><path d="M191.23 137.89h3.91v-3.91h-3.91z" style="stroke-width:0.71;stroke:none;fill:#619CFF"/><text x="62.95" y="139.1" lengthAdjust="spacingAndGlyphs" style="font-size:8.80px;font-weight:0;font-family:&quot;Nimbus Sans Narrow&quot;" textLength="48.16">mprop address</text><text x="139.35" y="139.1" lengthAdjust="spacingAndGlyphs" style="font-size:8.80px;font-weight:0;font-family:&quot;Nimbus Sans Narrow&quot;" textLength="39.72">owner name</text><text x="207.31" y="139.1" lengthAdjust="spacingAndGlyphs" style="font-size:8.80px;font-weight:0;font-family:&quot;Nimbus Sans Narrow&quot;" textLength="40.5">wdfi address</text><text x="29.89" y="104.23" lengthAdjust="spacingAndGlyphs" style="font-size:12.00px;font-weight:0;font-family:&quot;Nimbus Sans Narrow&quot;" textLength="246.64">includes 6 parcels, 13 units, and 2 distinct owner names.</text><text x="29.89" y="42.81" lengthAdjust="spacingAndGlyphs" style="font-size:18.00px;font-weight:0;font-family:&quot;Nimbus Sans Narrow&quot;" textLength="211.59">9TH STREET INVESTMENTS 4</text><text x="29.89" y="62.25" lengthAdjust="spacingAndGlyphs" style="font-size:18.00px;font-weight:0;font-family:&quot;Nimbus Sans Narrow&quot;" textLength="208.3">LLC -- TJ PROPERTIES 1 LLC</text><text x="29.89" y="81.69" lengthAdjust="spacingAndGlyphs" style="font-size:18.00px;font-weight:0;font-family:&quot;Nimbus Sans Narrow&quot;" textLength="44.27">Group</text></g></g></svg>