<svg xmlns="http://www.w3.org/2000/svg" width="576" height="672" viewBox="0 0 432 504"><g class="svglite"><defs><style><![CDATA[.svglite line,.svglite polyline,.svglite polygon,.svglite path,.svglite circle{fill:none;stroke:#000000;stroke-linecap:round;stroke-linejoin:round;stroke-miterlimit:10.00}.svglite text{white-space:pre}.svglite g.glyphgroup path{fill:inherit;stroke:none}]]></style></defs><rect width="100%" height="100%" style="stroke-linecap:round;stroke-linejoin:round;stroke-miterlimit:10.00;stroke:none;fill:#FFFFFF"/><defs><clipPath id="cpMC4wMHw0MzIuMDB8MC4wMHw1MDQuMDA="><path d="M0 0h432v504H0z"/></clipPath></defs><g clip-path="url(#cpMC4wMHw0MzIuMDB8MC4wMHw1MDQuMDA=)"><path d="M0 0h432v504H0z" style="stroke-width:1.07;stroke:none;fill:#FFFFFF"/></g><defs><clipPath id="cpMjkuODl8NDAyLjExfDE2MS4wMnw0NzQuMTE="><path d="M29.89 161.02h372.22v313.09H29.89z"/></clipPath></defs><g clip-path="url(#cpMjkuODl8NDAyLjExfDE2MS4wMnw0NzQuMTE=)"><path d="m295.99 373.85-.95-.91-.94-.92-.95-.91-.94-.91-.95-.91-.94-.91-.95-.91-.94-.91-.95-.92-.94-.91-.95-.91-.94-.91-.95-.91-.94-.91-.95-.91-.95-.92-.94-.91-.95-.91-.94-.91-.95-.91-.94-.91-.95-.92-.94-.91-.95-.91-.94-.91-.95-.91-.94-.91-.95-.91-.94-.92-.95-.91-.94-.91-.95-.91-.94-.91-.95-.91-.94-.91-.95-.92-.94-.91-.95-.91-.94-.91-.95-.91-.94-.91-.95-.91-.94-.92-.95-.91-.94-.91-.95-.91-.94-.91-.95-.91-.94-.92-.95-.91-.94-.91-.95-.91-.94-.91-.95-.91-.94-.91-.95-.92-.94-.91-.95-.91-.94-.91-.95-.91-.95-.91-.94-.91-.95-.92-.94-.91-.95-.91-.94-.91-.95-.91-.94-.91-.95-.92-.94-.91-.95-.91-.94-.91-.95-.91-.94-.91-.95-.91-.94-.92-.95-.91-.94-.91-.95-.91-.94-.91-.95-.91-.94-.91-.95-.92-.94-.91-.95-.91-.94-.91-.95-.91-.94-.91-.95-.91-.94-.92-.95-.91-.94-.91-.95-.91-.94-.91-.95-.91-.94-.92-.95-.91-.94-.91-.95-.91m93.57 90.24.9.87.9.87.9.86.9.87.9.87.9.87.9.87.91.87.9.87.9.87.9.87.9.87.9.87.9.86.9.87.9.87.9.87.91.87.9.87.9.87.9.87.9.87.9.87.9.86.9.87.9.87.91.87.9.87.9.87.9.87.9.87.9.87.9.87.9.86.9.87.91.87.9.87.9.87.9.87.9.87.9.87.9.87.9.87.9.86.9.87.91.87.9.87.9.87.9.87.9.87.9.87.9.87.9.87.9.86.91.87.9.87.9.87.9.87.9.87.9.87.9.87.9.87.9.87.91.86.9.87.9.87.9.87.9.87.9.87.9.87.9.87.9.87.9.87.91.87.9.86.9.87.9.87.9.87.9.87.9.87.9.87.9.87.91.87.9.87.9.86.9.87.9.87.9.87.9.87.9.87.9.87.91.87.9.87.9.87.9.86.9.87.9.87.9.87.9.87" style="stroke-width:1.07;stroke:#000000;stroke-opacity:0.10;stroke-linecap:butt"/><path d="m254.75 175.25-1.02.96-1.01.97-1 .97-.99.98-.98.98-.96.97-.96.99-.95.98-.94.99-.93.99-.92.99-.91.99-.9 1-.88 1-.88 1-.87 1.01-.86 1.01-.85 1.01-.84 1.01-.83 1.02-.81 1.02-.81 1.02-.8 1.02-.79 1.03-.78 1.03-.77 1.03-.76 1.03-.74 1.04-.74 1.04-.73 1.04-.72 1.05-.71 1.04-.7 1.05-.69 1.06-.67 1.05-.67 1.06-.66 1.06-.65 1.06-.64 1.07-.63 1.07-.62 1.07-.6 1.07-.6 1.08-.59 1.08-.58 1.08-.57 1.08-.56 1.09-.54 1.09-.54 1.09-.53 1.09-.52 1.1-.51 1.1-.5 1.1-.49 1.11-.47 1.11-.47 1.11-.46 1.11-.45 1.11-.44 1.12-.43 1.12-.42 1.13-.4 1.12-.4 1.13-.39 1.13-.38 1.14-.37 1.13-.36 1.14-.35 1.14-.33 1.15-.33 1.15-.32 1.15-.31 1.15-.3 1.15-.29 1.16-.28 1.16-.26 1.16-.26 1.17-.25 1.17-.24 1.17-.23 1.17-.22 1.18-.2 1.17-.2 1.19-.19 1.18-.18 1.19-.17 1.18-.16 1.2-.15 1.19-.13 1.2-.13 1.2-.12 1.2-.11 1.2-.1 1.21-.09 1.21-.08 1.21-.06 1.22-.06 1.22-.05 1.22-.04 1.22m-155.61 8.75 1.57-.09 1.57-.09 1.57-.09 1.57-.09 1.58-.08 1.57-.09 1.57-.09 1.57-.09 1.57-.09 1.58-.09 1.57-.08 1.57-.09 1.57-.09 1.57-.09 1.58-.09 1.57-.09 1.57-.08 1.57-.09 1.57-.09 1.57-.09 1.58-.09 1.57-.09 1.57-.08 1.57-.09 1.57-.09 1.58-.09 1.57-.09 1.57-.09 1.57-.08 1.57-.09 1.57-.09 1.58-.09 1.57-.09 1.57-.09 1.57-.08 1.57-.09 1.58-.09 1.57-.09 1.57-.09 1.57-.09 1.57-.08 1.58-.09 1.57-.09 1.57-.09 1.57-.09 1.57-.09 1.57-.08 1.58-.09 1.57-.09 1.57-.09 1.57-.09 1.57-.09 1.58-.09 1.57-.08 1.57-.09 1.57-.09 1.57-.09 1.57-.09 1.58-.09 1.57-.08 1.57-.09 1.57-.09 1.57-.09 1.58-.09 1.57-.09 1.57-.08 1.57-.09 1.57-.09 1.58-.09 1.57-.09 1.57-.09 1.57-.08 1.57-.09 1.57-.09 1.58-.09 1.57-.09 1.57-.09 1.57-.08 1.57-.09 1.58-.09 1.57-.09 1.57-.09 1.57-.09 1.57-.08 1.57-.09 1.58-.09 1.57-.09 1.57-.09 1.57-.09 1.57-.08 1.58-.09 1.57-.09 1.57-.09 1.57-.09 1.57-.09 1.58-.08 1.57-.09 1.57-.09 1.57-.09" style="stroke-width:1.07;stroke:#000000;stroke-opacity:0.10;stroke-linecap:butt"/><path d="m254.75 175.25-.53 1.09-.53 1.1-.53 1.09-.53 1.1-.53 1.09-.52 1.1-.53 1.09-.53 1.1-.53 1.09-.53 1.09-.53 1.1-.53 1.09-.52 1.1-.53 1.09-.53 1.1-.53 1.09-.53 1.1-.53 1.09-.53 1.1-.52 1.09-.53 1.09-.53 1.1-.53 1.09-.53 1.1-.53 1.09-.53 1.1-.52 1.09-.53 1.1-.53 1.09-.53 1.1-.53 1.09-.53 1.09-.53 1.1-.52 1.09-.53 1.1-.53 1.09-.53 1.1-.53 1.09-.53 1.1-.53 1.09-.52 1.1-.53 1.09-.53 1.09-.53 1.1-.53 1.09-.53 1.1-.52 1.09-.53 1.1-.53 1.09-.53 1.1-.53 1.09-.53 1.1-.53 1.09-.52 1.09-.53 1.1-.53 1.09-.53 1.1-.53 1.09-.53 1.1-.53 1.09-.52 1.1-.53 1.09-.53 1.1-.53 1.09-.53 1.1-.53 1.09-.53 1.09-.52 1.1-.53 1.09-.53 1.1-.53 1.09-.53 1.1-.53 1.09-.53 1.1-.52 1.09-.53 1.1-.53 1.09-.53 1.09-.53 1.1-.53 1.09-.53 1.1-.52 1.09-.53 1.1-.53 1.09-.53 1.1-.53 1.09-.53 1.1-.53 1.09-.52 1.09-.53 1.1-.53 1.09-.53 1.1-.53 1.09-.53 1.1-.53 1.09-.52 1.1-.53 1.09-.53 1.1-.53 1.09" style="stroke-width:1.07;stroke:#000000;stroke-opacity:0.10;stroke-linecap:butt"/><path d="m254.75 175.25-.04 1.22-.05 1.22-.06 1.22-.07 1.22-.08 1.21-.08 1.21-.1 1.21-.11 1.2-.12 1.2-.13 1.2-.14 1.2-.15 1.19-.15 1.19-.17 1.19-.18 1.19-.19 1.18-.2 1.18-.21 1.18-.21 1.18-.23 1.17-.24 1.17-.25 1.17-.26 1.17-.27 1.16-.28 1.16-.28 1.16-.3 1.15-.31 1.15-.32 1.15-.33 1.15-.34 1.14-.35 1.15-.35 1.14-.37 1.13-.38 1.14-.39 1.13-.4 1.13-.41 1.12-.42 1.13-.42 1.12-.44 1.11-.45 1.12-.46 1.11-.47 1.11-.48 1.11-.48 1.11-.5 1.1-.51 1.1-.52 1.1-.53 1.09-.54 1.09-.55 1.09-.55 1.09-.57 1.08-.58 1.08-.59 1.08-.6 1.08-.61 1.07-.62 1.07-.62 1.07-.64 1.07-.65 1.06-.66 1.06-.67 1.06-.68 1.05-.69 1.06-.69 1.05-.71 1.04-.72 1.05-.73 1.04-.74 1.04-.75 1.04-.76 1.03-.76 1.03-.78 1.03-.79 1.03-.8 1.02-.81 1.02-.82 1.02-.83 1.02-.83 1.01-.85 1.01-.86 1.01-.87 1-.88 1.01-.89 1-.9.99-.9 1-.92.99-.93.99-.94.99-.95.98-.96.98-.97.98-.97.98-.99.97-1 .98-1.01.96-1.02.97" style="stroke-width:1.07;stroke:#000000;stroke-opacity:0.10;stroke-linecap:butt"/><path d="m295.99 371.64 1.91 3.31h-3.83zm-41.24-204.47 6.99 12.12h-13.99zM46.81 290.15l1.91 3.31h-3.83z" style="stroke-width:0.71;stroke:none;fill:#00BA38"/><circle cx="202.42" cy="283.61" r="6.76" style="stroke-width:0.71;stroke:none;fill:#F8766D"/><path d="M383.77 461.3h2.84v-2.84h-2.84z" style="stroke-width:0.71;stroke:none;fill:#619CFF"/><path d="m290.71 378.51 4.48-3.96M259.6 174.3l-3.81.74M51.63 292.37l-3.76-.01m149.21-4.12 4.53-3.93m178.83 175.53 3.69.03" style="stroke-width:0.53;stroke:#BFBFBF"/><path d="M247.75 397.82h62.39-.09l.35-.01.34-.07.33-.13.3-.17.27-.22.23-.26.18-.29.14-.32.08-.34.03-.35h0v-14.99h0l-.03-.35-.08-.33-.14-.32-.18-.3-.23-.26-.27-.22-.3-.17-.33-.12-.34-.07-.26-.02h-62.39l.26.02-.35-.02-.35.04-.33.1-.31.15-.29.2-.25.24-.21.28-.16.3-.11.33-.06.35v15.16-.17.35l.06.34.11.33.16.31.21.27.25.25.29.19.31.15.33.1.35.04z" style="stroke-width:0.53;fill:#FFFFFF;fill-opacity:0.50"/><text x="278.94" y="386.03" lengthAdjust="spacingAndGlyphs" style="font-size:5.69px;font-family:&quot;Liberation Sans&quot;" text-anchor="middle" textLength="59.52">LYX PROPERTIES 102</text><text x="278.94" y="394.22" lengthAdjust="spacingAndGlyphs" style="font-size:5.69px;font-family:&quot;Liberation Sans&quot;" text-anchor="middle" textLength="10.42">LLC</text><path d="M261.76 183.93h55.88-.09l.35-.02.34-.07.32-.12.3-.17.27-.22.23-.26.19-.3.13-.32.09-.34.03-.34h0v-14.99h0l-.03-.35-.09-.34-.13-.32-.19-.29-.23-.26-.27-.22-.3-.17-.32-.13-.34-.07-.26-.01h-55.88l.26.01-.35-.01-.35.04-.33.1-.31.15-.29.19-.25.24-.21.28-.16.31-.11.33-.06.34v15.17-.18.35l.06.35.11.32.16.31.21.28.25.24.29.2.31.15.33.09.35.05z" style="stroke-width:0.53;fill:#FFFFFF;fill-opacity:0.50"/><text x="289.7" y="172.13" lengthAdjust="spacingAndGlyphs" style="font-size:5.69px;font-family:&quot;Liberation Sans&quot;" text-anchor="middle" textLength="53">A &amp; G PROPERTIES</text><text x="289.7" y="180.33" lengthAdjust="spacingAndGlyphs" style="font-size:5.69px;font-family:&quot;Liberation Sans&quot;" text-anchor="middle" textLength="36.66">INVESTMENT</text><path d="M53.79 297.93h61.75-.09l.35-.02.34-.07.33-.12.3-.17.27-.22.23-.26.18-.3.14-.32.08-.33.03-.35h0v-6.8h0l-.03-.34-.08-.34-.14-.32-.18-.3-.23-.26-.27-.22-.3-.17-.33-.12-.34-.07-.26-.02H53.79l.26.02-.35-.02-.35.05-.33.09-.31.15-.29.2-.25.24-.21.28-.16.31-.11.33-.06.34v6.97-.17.34l.06.35.11.33.16.3.21.28.25.24.29.2.31.15.33.1.35.04z" style="stroke-width:0.53;fill:#FFFFFF;fill-opacity:0.50"/><text x="84.66" y="294.33" lengthAdjust="spacingAndGlyphs" style="font-size:5.69px;font-family:&quot;Liberation Sans&quot;" text-anchor="middle" textLength="58.88">JAHIR D ARIAS TORIZ</text><path d="M150.84 315.75h59.45-.09l.35-.02.34-.07.32-.12.3-.18.27-.21.23-.27.19-.29.13-.32.09-.34.03-.34h0V290.4h0l-.03-.34-.09-.34-.13-.32-.19-.3-.23-.26-.27-.22-.3-.17-.32-.12-.34-.07-.26-.02h-59.45l.26.02-.34-.02-.35.05-.33.09-.32.15-.28.2-.25.24-.21.28-.16.31-.11.32-.06.35-.01.17v23.19l.01-.18v.35l.06.34.11.33.16.31.21.28.25.24.28.2.32.15.33.09.35.05z" style="stroke-width:0.53;fill:#FFFFFF;fill-opacity:0.50"/><text x="180.56" y="295.76" lengthAdjust="spacingAndGlyphs" style="font-size:5.69px;font-family:&quot;Liberation Sans&quot;" text-anchor="middle" textLength="55.61">3821 S CENTENNIAL</text><text x="180.56" y="303.95" lengthAdjust="spacingAndGlyphs" style="font-size:5.69px;font-family:&quot;Liberation Sans&quot;" text-anchor="middle" textLength="56.56">CIR, MILWAUKEE, WI</text><text x="180.56" y="312.15" lengthAdjust="spacingAndGlyphs" style="font-size:5.69px;font-family:&quot;Liberation Sans&quot;" text-anchor="middle" textLength="15.78">53221</text><path d="M312.43 469.5h65.85-.09l.35-.02.34-.07.33-.12.3-.17.27-.22.23-.26.18-.3.14-.32.08-.33.03-.35h0v-14.99h0l-.03-.35-.08-.34-.14-.32-.18-.29-.23-.26-.27-.22-.3-.17-.33-.13-.34-.07-.26-.01h-65.85l.26.01-.35-.01-.34.04-.33.1-.32.15-.28.2-.26.24-.2.27-.17.31-.11.33-.05.34-.01.18v14.99l.01-.17v.34l.05.35.11.33.17.3.2.28.26.24.28.2.32.15.33.1.34.04z" style="stroke-width:0.53;fill:#FFFFFF;fill-opacity:0.50"/><text x="345.36" y="457.71" lengthAdjust="spacingAndGlyphs" style="font-size:5.69px;font-family:&quot;Liberation Sans&quot;" text-anchor="middle" textLength="62.97">3821 CENTENNIAL CIR,</text><text x="345.36" y="465.9" lengthAdjust="spacingAndGlyphs" style="font-size:5.69px;font-family:&quot;Liberation Sans&quot;" text-anchor="middle" textLength="60.97">MILWAUKEE, WI 53221</text></g><g clip-path="url(#cpMC4wMHw0MzIuMDB8MC4wMHw1MDQuMDA=)"><circle cx="120.83" cy="135.94" r="1.95" style="stroke-width:0.71;stroke:none;fill:#F8766D"/><path d="m197.23 132.9 2.63 4.56h-5.26z" style="stroke-width:0.71;stroke:none;fill:#00BA38"/><path d="M263.23 137.89h3.91v-3.91h-3.91z" style="stroke-width:0.71;stroke:none;fill:#619CFF"/><text x="134.95" y="139.1" lengthAdjust="spacingAndGlyphs" style="font-size:8.80px;font-weight:0;font-family:&quot;Nimbus Sans Narrow&quot;" textLength="48.16">mprop address</text><text x="211.35" y="139.1" lengthAdjust="spacingAndGlyphs" style="font-size:8.80px;font-weight:0;font-family:&quot;Nimbus Sans Narrow&quot;" textLength="39.72">owner name</text><text x="279.31" y="139.1" lengthAdjust="spacingAndGlyphs" style="font-size:8.80px;font-weight:0;font-family:&quot;Nimbus Sans Narrow&quot;" textLength="40.5">wdfi address</text><text x="29.89" y="104.23" lengthAdjust="spacingAndGlyphs" style="font-size:12.00px;font-weight:0;font-family:&quot;Nimbus Sans Narrow&quot;" textLength="241.17">includes 5 parcels, 8 units, and 3 distinct owner names.</text><text x="29.89" y="42.81" lengthAdjust="spacingAndGlyphs" style="font-size:18.00px;font-weight:0;font-family:&quot;Nimbus Sans Narrow&quot;" textLength="316.58">A &amp; G PROPERTIES INVESTMENT -- JAHIR D</text><text x="29.89" y="62.25" lengthAdjust="spacingAndGlyphs" style="font-size:18.00px;font-weight:0;font-family:&quot;Nimbus Sans Narrow&quot;" textLength="301.81">ARIAS TORIZ -- LYX PROPERTIES 102 LLC</text><text x="29.89" y="81.69" lengthAdjust="spacingAndGlyphs" style="font-size:18.00px;font-weight:0;font-family:&quot;Nimbus Sans Narrow&quot;" textLength="44.27">Group</text></g></g></svg>