<svg xmlns="http://www.w3.org/2000/svg" width="768" height="768" class="svglite" viewBox="0 0 576 576"><defs><style><![CDATA[.svglite line,.svglite polyline,.svglite polygon,.svglite path,.svglite circle{fill:none;stroke:#000000;stroke-linecap:round;stroke-linejoin:round;stroke-miterlimit:10.00}.svglite text{white-space:pre}]]></style></defs><rect width="100%" height="100%" style="stroke-linecap:round;stroke-linejoin:round;stroke-miterlimit:10.00;stroke:none;fill:#FFFFFF"/><defs><clipPath id="cpMC4wMHw1NzYuMDB8MC4wMHw1NzYuMDA="><path d="M0 0h576v576H0z"/></clipPath></defs><g clip-path="url(#cpMC4wMHw1NzYuMDB8MC4wMHw1NzYuMDA=)"><path d="M0 0h576v576H0z" style="stroke-width:1.07;stroke:none;fill:#FFFFFF"/></g><defs><clipPath id="cpMzIuNjN8NTQ2LjExfDEyMi4xNHw1NDMuMzc="><path d="M32.63 122.14h513.48v421.24H32.63z"/></clipPath></defs><g clip-path="url(#cpMzIuNjN8NTQ2LjExfDEyMi4xNHw1NDMuMzc=)"><path d="m390.06 265.15-1.72.06-1.71.05-1.72.06-1.72.05-1.71.06-1.72.05-1.72.06-1.71.06-1.72.05-1.71.06-1.72.05-1.72.06-1.71.05-1.72.06-1.71.05-1.72.06-1.72.05-1.71.06-1.72.05-1.71.06-1.72.05-1.72.06-1.71.05-1.72.06-1.71.05-1.72.06-1.72.06-1.71.05-1.72.06-1.71.05-1.72.06-1.72.05-1.71.06-1.72.05-1.71.06-1.72.05-1.72.06-1.71.05-1.72.06-1.71.05-1.72.06-1.72.05-1.71.06-1.72.05-1.71.06-1.72.06-1.72.05-1.71.06-1.72.05-1.71.06-1.72.05-1.72.06-1.71.05-1.72.06-1.71.05-1.72.06-1.72.05-1.71.06-1.72.05-1.71.06-1.72.05-1.72.06-1.71.05-1.72.06-1.71.06-1.72.05-1.72.06-1.71.05-1.72.06-1.71.05-1.72.06-1.72.05-1.71.06-1.72.05-1.71.06-1.72.05-1.72.06-1.71.05-1.72.06-1.71.05-1.72.06-1.72.05-1.71.06-1.72.06-1.71.05-1.72.06-1.72.05-1.71.06-1.72.05-1.71.06-1.72.05-1.72.06-1.71.05-1.72.06-1.71.05-1.72.06-1.72.05-1.71.06-1.72.05m169.89-5.47.01 1.35.01 1.36.02 1.35.02 1.35.02 1.35.03 1.35.03 1.35.03 1.35.04 1.35.04 1.35.04 1.35.05 1.34.05 1.35.05 1.35.06 1.35.06 1.35.06 1.34.07 1.35.07 1.35.07 1.34.08 1.35.08 1.34.09 1.35.08 1.34.09 1.35.1 1.34.09 1.35.11 1.34.1 1.34.11 1.35.11 1.34.11 1.34.12 1.35.12 1.34.12 1.34.13 1.34.13 1.34.13 1.35.14 1.34.14 1.34.15 1.34.14 1.34.15 1.34.16 1.34.16 1.33.16 1.34.16 1.34.17 1.34.17 1.34.17 1.34.18 1.33.18 1.34.19 1.34.18 1.33.19 1.34.2 1.34.2 1.33.2 1.34.2 1.33.21 1.34.21 1.33.21 1.34.22 1.33.22 1.33.23 1.34.23 1.33.23 1.33.23 1.34.24 1.33.24 1.33.24 1.33.25 1.33.25 1.34.26 1.33.26 1.33.26 1.33.26 1.33.27 1.33.27 1.33.28 1.33.27 1.32.28 1.33.29 1.33.29 1.33.29 1.33.29 1.32.3 1.33.3 1.33.31 1.33.31 1.32.31 1.33.31 1.32.32 1.33.32 1.32.33 1.33.33 1.32.33 1.33.33 1.32.34 1.33m-164.63 9.03-.78 1.14-.78 1.14-.78 1.14-.78 1.14-.77 1.14-.77 1.14-.76 1.14-.76 1.15-.76 1.14-.76 1.15-.76 1.15-.75 1.15-.74 1.14-.75 1.16-.74 1.15-.74 1.15-.74 1.15-.73 1.16-.73 1.15-.73 1.16-.72 1.16-.72 1.16-.72 1.16-.72 1.16-.71 1.16-.71 1.16-.7 1.17-.71 1.16-.7 1.17-.69 1.16-.7 1.17-.69 1.17-.69 1.17-.68 1.17-.69 1.18-.68 1.17-.67 1.17-.68 1.18-.67 1.17-.66 1.18-.67 1.18-.66 1.18-.66 1.18-.66 1.18-.65 1.19-.65 1.18-.65 1.18-.64 1.19-.64 1.19-.64 1.18-.63 1.19-.63 1.19-.63 1.19-.63 1.2-.62 1.19-.62 1.19-.62 1.2-.61 1.2-.62 1.19-.6 1.2-.61 1.2-.6 1.2-.6 1.2-.6 1.2-.59 1.21-.59 1.2-.59 1.21-.58 1.2-.58 1.21-.58 1.21-.58 1.21-.57 1.21-.57 1.21-.57 1.22-.56 1.21-.56 1.21-.56 1.22-.55 1.22-.55 1.22-.55 1.21-.55 1.23-.54 1.22-.54 1.22-.54 1.22-.53 1.23-.53 1.22-.53 1.23-.53 1.23-.52 1.22-.52 1.23-.51 1.23-.52 1.24-.51 1.23-.5 1.23-.51 1.24-.5 1.23-.5 1.24-.49 1.24-.49 1.24m63.15-117.61 1.71.44 1.71.43 1.7.42 1.71.41 1.7.4 1.7.38 1.71.38 1.7.36 1.7.35 1.7.35 1.7.33 1.69.32 1.7.31 1.7.3 1.69.29 1.7.27 1.69.27 1.69.26 1.69.24 1.69.23 1.69.23 1.69.21 1.69.2 1.68.19 1.69.18 1.68.17 1.69.16 1.68.15 1.68.13 1.69.13 1.68.11 1.67.11 1.68.09 1.68.08 1.68.07 1.67.06 1.68.05 1.67.04 1.67.03 1.68.02h3.34l1.67-.02 1.67-.02 1.66-.04 1.67-.05 1.67-.06 1.66-.07 1.66-.08 1.67-.09 1.66-.1 1.66-.11 1.66-.13 1.66-.13 1.66-.15 1.66-.15 1.65-.17 1.66-.18 1.65-.19 1.66-.2 1.65-.21 1.65-.22 1.65-.23 1.65-.24 1.65-.26 1.65-.26 1.65-.28 1.64-.28 1.65-.3 1.64-.31 1.65-.32 1.64-.33 1.64-.34 1.64-.35 1.64-.36 1.64-.38 1.64-.38 1.64-.4 1.63-.4 1.64-.42 1.63-.43 1.64-.43 1.63-.45 1.63-.46 1.63-.47 1.63-.49 1.63-.49 1.63-.5 1.63-.52 1.62-.52 1.63-.54 1.62-.54 1.63-.56 1.62-.57 1.62-.58 1.62-.59 1.62-.6 1.62-.61 1.62-.62m-164.63 9.03-.49 1.24-.5 1.24-.49 1.24-.51 1.23-.5 1.24-.51 1.23-.51 1.23-.51 1.24-.52 1.23-.51 1.23-.53 1.22-.52 1.23-.53 1.23-.53 1.22-.53 1.23-.54 1.22-.54 1.22-.54 1.22-.55 1.22-.55 1.22-.55 1.22-.55 1.22-.56 1.21-.56 1.22-.57 1.21-.56 1.22-.57 1.21-.57 1.21-.58 1.21-.58 1.21-.58 1.2-.58 1.21-.59 1.21-.59 1.2-.6 1.2-.59 1.21-.6 1.2-.6 1.2-.61 1.2-.61 1.2-.61 1.19-.61 1.2-.62 1.2-.62 1.19-.62 1.19-.63 1.19-.63 1.2-.63 1.19-.63 1.18-.64 1.19-.64 1.19-.65 1.19-.64 1.18-.65 1.18-.66 1.19-.65 1.18-.66 1.18-.66 1.18-.67 1.18-.67 1.17-.67 1.18-.67 1.18-.68 1.17-.68 1.17-.68 1.18-.68 1.17-.69 1.17-.69 1.17-.7 1.16-.7 1.17-.7 1.17-.7 1.16-.71 1.17-.7 1.16-.72 1.16-.71 1.16-.72 1.16-.72 1.16-.73 1.16-.72 1.16-.73 1.15-.74 1.16-.73 1.15-.74 1.15-.74 1.15-.75 1.15-.75 1.15-.75 1.15-.75 1.15-.76 1.15-.76 1.14-.76 1.14-.77 1.15-.77 1.14-.77 1.14-.77 1.14-.78 1.14-.78 1.14-.78 1.14" style="stroke-width:1.07;stroke:#000000;stroke-opacity:0.10;stroke-linecap:butt"/><path d="m242.67 406.62 1.69.18 1.68.17 1.69.16 1.68.16 1.68.15 1.69.15 1.68.14 1.68.14 1.68.13 1.68.12 1.68.12 1.69.12 1.67.11 1.68.1 1.68.1 1.68.09 1.68.09 1.68.08 1.67.08 1.68.07 1.68.07 1.67.06 1.68.05 1.67.05 1.68.05 1.67.04 1.67.03 1.68.03 1.67.02 1.67.02 1.67.01h1.67l1.68.01 1.67-.01 1.67-.01 1.66-.01 1.67-.02 1.67-.03 1.67-.03 1.67-.04 1.66-.04 1.67-.05 1.67-.05 1.66-.06 1.67-.07 1.66-.07 1.67-.07 1.66-.08 1.66-.09 1.67-.09 1.66-.1 1.66-.1 1.66-.11 1.66-.11 1.66-.12 1.66-.12 1.66-.13 1.66-.13 1.66-.14 1.66-.15 1.66-.15 1.66-.16 1.65-.16 1.66-.17 1.66-.17 1.65-.18 1.66-.18 1.65-.19 1.66-.19 1.65-.2 1.65-.21 1.66-.21 1.65-.21 1.65-.23 1.65-.22 1.65-.24 1.65-.23 1.65-.25 1.65-.24 1.65-.26 1.65-.26 1.65-.26 1.65-.27 1.64-.28 1.65-.28 1.65-.29 1.64-.29 1.65-.3 1.64-.3 1.65-.31 1.64-.31 1.65-.32 1.64-.32 1.64-.33 1.65-.34 1.64-.34 1.64-.35 1.64-.35 1.64-.35M183.42 141.28l-.11 1.4-.1 1.39-.09 1.4-.08 1.39-.07 1.38-.06 1.39-.05 1.38-.04 1.39-.03 1.38-.02 1.38-.02 1.37v1.38l.01 1.37.02 1.37.03 1.37.03 1.37.05 1.37.06 1.36.07 1.37.07 1.36.09 1.36.1 1.35.1 1.36.12 1.35.12 1.36.14 1.35.15 1.34.15 1.35.17 1.34.17 1.35.19 1.34.19 1.34.21 1.33.21 1.34.22 1.33.24 1.34.24 1.33.25 1.32.27 1.33.27 1.33.28 1.32.3 1.32.3 1.32.31 1.32.32 1.31.34 1.31.34 1.32.35 1.31.36 1.3.37 1.31.38 1.31.39 1.3.4 1.3.41 1.3.43 1.3.43 1.29.44 1.3.44 1.29.46 1.29.47 1.29.48 1.28.49 1.29.5 1.28.51 1.28.52 1.28.53 1.28.53 1.27.55 1.28.56 1.27.57 1.27.57 1.27.59 1.26.6 1.27.6 1.26.62 1.26.63 1.26.63 1.26.65 1.26.66 1.25.66 1.25.68 1.25.68 1.25.7 1.25.7 1.24.72 1.24.72 1.24.73 1.24.75 1.24.75 1.24.77 1.23.77 1.23.78 1.23.8 1.23.8 1.23.81 1.22.82 1.23.84 1.22.84 1.22.85 1.21m169.89-5.47 1.34-.71 1.34-.71 1.34-.71 1.34-.71 1.34-.71 1.34-.71 1.34-.71 1.34-.72 1.34-.71 1.34-.71 1.34-.71 1.34-.71 1.34-.71 1.34-.71 1.35-.71 1.34-.72 1.34-.71 1.34-.71 1.34-.71 1.34-.71 1.34-.71 1.34-.71 1.34-.71 1.34-.72 1.34-.71 1.34-.71 1.34-.71 1.34-.71 1.34-.71 1.34-.71 1.34-.71 1.34-.71 1.35-.72 1.34-.71 1.34-.71 1.34-.71 1.34-.71 1.34-.71 1.34-.71 1.34-.71 1.34-.72 1.34-.71 1.34-.71 1.34-.71 1.34-.71 1.34-.71 1.34-.71 1.34-.71 1.34-.71 1.34-.72 1.35-.71 1.34-.71 1.34-.71 1.34-.71 1.34-.71 1.34-.71 1.34-.71 1.34-.72 1.34-.71 1.34-.71 1.34-.71 1.34-.71 1.34-.71 1.34-.71 1.34-.71 1.34-.71 1.34-.72 1.34-.71 1.35-.71 1.34-.71 1.34-.71 1.34-.71 1.34-.71 1.34-.71 1.34-.72 1.34-.71 1.34-.71 1.34-.71 1.34-.71 1.34-.71 1.34-.71 1.34-.71 1.34-.72 1.34-.71 1.34-.71 1.34-.71 1.35-.71 1.34-.71 1.34-.71 1.34-.71 1.34-.71 1.34-.72 1.34-.71 1.34-.71 1.34-.71 1.34-.71 1.34-.71 1.34-.71 1.34-.71m-132.71 70.4.34 1.33.33 1.32.33 1.33.33 1.32.32 1.33.33 1.32.31 1.33.32 1.32.31 1.33.31 1.32.3 1.33.31 1.33.29 1.32.3 1.33.29 1.33.29 1.33.28 1.33.28 1.33.28 1.32.28 1.33.27 1.33.27 1.33.26 1.33.26 1.33.26 1.33.25 1.33.25 1.34.25 1.33.25 1.33.24 1.33.24 1.33.23 1.34.23 1.33.23 1.33.22 1.33.22 1.34.22 1.33.22 1.34.21 1.33.21 1.34.2 1.33.2 1.34.2 1.33.19 1.34.19 1.33.19 1.34.19 1.34.18 1.34.17 1.33.18 1.34.17 1.34.17 1.34.16 1.34.16 1.33.16 1.34.15 1.34.15 1.34.15 1.34.14 1.34.15 1.34.13 1.34.14 1.35.13 1.34.12 1.34.13 1.34.12 1.34.12 1.35.11 1.34.11 1.34.11 1.34.1 1.35.1 1.34.1 1.35.09 1.34.09 1.35.09 1.34.08 1.35.08 1.34.08 1.35.08 1.34.07 1.35.06 1.35.07 1.34.06 1.35.05 1.35.06 1.35.05 1.35.04 1.34.05 1.35.04 1.35.04 1.35.03 1.35.03 1.35.03 1.35.02 1.35.02 1.35.02 1.35.01 1.35.01 1.36m-164.63 9.03.11-1.41.1-1.41.1-1.4.09-1.41.08-1.41.08-1.41.07-1.4.06-1.41.05-1.4.05-1.4.04-1.41.03-1.4.03-1.4.02-1.4.02-1.4v-2.8l-.01-1.39-.01-1.4-.02-1.4-.03-1.39-.03-1.4-.04-1.39-.05-1.39-.06-1.4-.06-1.39-.07-1.39-.08-1.39-.08-1.39-.09-1.39-.09-1.38-.11-1.39-.11-1.39-.12-1.38-.12-1.39-.13-1.38-.14-1.38-.14-1.39-.16-1.38-.15-1.38-.17-1.38-.17-1.38-.18-1.38-.19-1.38-.19-1.37-.2-1.38-.21-1.38-.21-1.37-.22-1.38-.23-1.37-.23-1.37-.24-1.38-.25-1.37-.25-1.37-.27-1.37-.26-1.37-.28-1.37-.28-1.36-.29-1.37-.3-1.37-.3-1.36-.31-1.37-.32-1.36-.32-1.37-.33-1.36-.34-1.36-.34-1.36-.35-1.36-.36-1.36-.37-1.36-.37-1.36-.38-1.36-.38-1.35-.39-1.36-.4-1.35-.41-1.36-.41-1.35-.42-1.35-.43-1.36-.43-1.35-.44-1.35-.45-1.35-.46-1.35-.46-1.35-.46-1.34-.48-1.35-.48-1.35-.49-1.34-.5-1.35-.5-1.34-.51-1.35-.51-1.34-.53-1.34-.53-1.34-.53-1.34-.55-1.34-.55-1.34-.55-1.34-.57-1.34" style="stroke-width:1.07;stroke:#000000;stroke-opacity:0.10;stroke-linecap:butt"/><path d="m242.67 406.62 1.66-.09 1.67-.09 1.66-.09 1.66-.09 1.67-.09 1.66-.09 1.66-.1 1.66-.09 1.67-.09 1.66-.09 1.66-.09 1.67-.09 1.66-.09 1.66-.09 1.67-.1 1.66-.09 1.66-.09 1.66-.09 1.67-.09 1.66-.09 1.66-.09 1.67-.09 1.66-.1 1.66-.09 1.66-.09 1.67-.09 1.66-.09 1.66-.09 1.67-.09 1.66-.1 1.66-.09 1.66-.09 1.67-.09 1.66-.09 1.66-.09 1.67-.09 1.66-.09 1.66-.1 1.67-.09 1.66-.09 1.66-.09 1.66-.09 1.67-.09 1.66-.09 1.66-.09 1.67-.1 1.66-.09 1.66-.09 1.66-.09 1.67-.09 1.66-.09 1.66-.09 1.67-.09 1.66-.1 1.66-.09 1.66-.09 1.67-.09 1.66-.09 1.66-.09 1.67-.09 1.66-.1 1.66-.09 1.66-.09 1.67-.09 1.66-.09 1.66-.09 1.67-.09 1.66-.09 1.66-.1 1.67-.09 1.66-.09 1.66-.09 1.66-.09 1.67-.09 1.66-.09 1.66-.09 1.67-.1 1.66-.09 1.66-.09 1.66-.09 1.67-.09 1.66-.09 1.66-.09 1.67-.09 1.66-.1 1.66-.09 1.66-.09 1.67-.09 1.66-.09 1.66-.09 1.67-.09 1.66-.1 1.66-.09 1.67-.09 1.66-.09 1.66-.09 1.66-.09 1.67-.09 1.66-.09m-164.63 9.03-.23-1.37-.22-1.37-.23-1.38-.23-1.37-.22-1.38-.23-1.37-.23-1.37-.23-1.38-.22-1.37-.23-1.37-.23-1.38-.23-1.37-.22-1.37-.23-1.38-.23-1.37-.22-1.38-.23-1.37-.23-1.37-.23-1.38-.22-1.37-.23-1.37-.23-1.38-.23-1.37-.22-1.38-.23-1.37-.23-1.37-.22-1.38-.23-1.37-.23-1.37-.23-1.38-.22-1.37-.23-1.38-.23-1.37-.23-1.37-.22-1.38-.23-1.37-.23-1.37-.22-1.38-.23-1.37-.23-1.38-.23-1.37-.22-1.37-.23-1.38-.23-1.37-.23-1.37-.22-1.38-.23-1.37-.23-1.38-.22-1.37-.23-1.37-.23-1.38-.23-1.37-.22-1.37-.23-1.38-.23-1.37-.23-1.38-.22-1.37-.23-1.37-.23-1.38-.22-1.37-.23-1.37-.23-1.38-.23-1.37-.22-1.38-.23-1.37-.23-1.37-.23-1.38-.22-1.37-.23-1.37-.23-1.38-.23-1.37-.22-1.38-.23-1.37-.23-1.37-.22-1.38-.23-1.37-.23-1.37-.23-1.38-.22-1.37-.23-1.38-.23-1.37-.23-1.37-.22-1.38-.23-1.37-.23-1.37-.22-1.38-.23-1.37-.23-1.37-.23-1.38-.22-1.37-.23-1.38-.23-1.37-.23-1.37-.22-1.38-.23-1.37-.23-1.37-.22-1.38-.23-1.37-.23-1.38" style="stroke-width:1.07;stroke:#000000;stroke-opacity:0.10;stroke-linecap:butt"/><path d="m242.67 406.62 1.64-.35 1.64-.35 1.64-.35 1.65-.34 1.64-.34 1.64-.33 1.64-.32 1.65-.32 1.64-.31 1.65-.31 1.64-.3 1.65-.3 1.64-.29 1.65-.29 1.65-.28 1.64-.28 1.65-.27 1.65-.26 1.65-.26 1.65-.26 1.65-.24 1.65-.25 1.65-.23 1.65-.24 1.65-.22 1.65-.23 1.66-.21 1.65-.21 1.65-.21 1.66-.2 1.65-.19 1.65-.19 1.66-.18 1.66-.18 1.65-.17 1.66-.17 1.66-.16 1.65-.16 1.66-.15 1.66-.15 1.66-.14 1.66-.13 1.66-.13 1.66-.12 1.66-.12 1.66-.12 1.66-.1 1.66-.1 1.66-.1 1.67-.09 1.66-.09 1.66-.08 1.67-.07 1.66-.07 1.67-.07 1.66-.06 1.67-.05 1.67-.05 1.66-.04 1.67-.04 1.67-.03 1.67-.03 1.67-.02 1.67-.01 1.67-.01 1.67-.01h1.67l1.67.01 1.67.01 1.67.02 1.67.02 1.68.03 1.67.03 1.67.04 1.68.05 1.67.05 1.68.05 1.67.06 1.68.07 1.68.07 1.67.08 1.68.08 1.68.09 1.68.09 1.68.1 1.68.1 1.68.11 1.68.12 1.68.12 1.68.12 1.68.13 1.68.14 1.68.14 1.69.15 1.68.15 1.69.16 1.68.16 1.68.17 1.69.18m-164.63 9.03-.56-1.33-.56-1.34-.55-1.34-.54-1.34-.54-1.34-.53-1.34-.52-1.34-.52-1.35-.51-1.34-.5-1.34-.5-1.35-.49-1.34-.48-1.35-.47-1.35-.47-1.35-.46-1.34-.46-1.35-.44-1.35-.44-1.35-.44-1.36-.42-1.35-.42-1.35-.42-1.35-.4-1.36-.4-1.35-.39-1.36-.39-1.36-.38-1.35-.37-1.36-.37-1.36-.35-1.36-.35-1.36-.35-1.36-.34-1.36-.33-1.37-.32-1.36-.32-1.36-.31-1.37-.3-1.36-.3-1.37-.28-1.37-.29-1.37-.27-1.36-.27-1.37-.26-1.37-.26-1.37-.25-1.38-.24-1.37-.23-1.37-.23-1.38-.22-1.37-.21-1.37-.21-1.38-.2-1.38-.19-1.38-.19-1.37-.18-1.38-.17-1.38-.16-1.38-.16-1.38-.15-1.39-.15-1.38-.14-1.38-.13-1.39-.12-1.38-.12-1.39-.11-1.38-.1-1.39-.1-1.39-.09-1.39-.08-1.38-.08-1.39-.07-1.4-.06-1.39-.05-1.39-.05-1.39-.04-1.4-.04-1.39-.03-1.4-.02-1.39-.01-1.4-.01-1.4v-1.39l.01-1.4.01-1.4.02-1.4.03-1.4.03-1.41.04-1.4.05-1.4.06-1.41.06-1.4.07-1.41.07-1.4.08-1.41.09-1.41.1-1.41.1-1.41.11-1.41" style="stroke-width:1.07;stroke:#000000;stroke-opacity:0.10;stroke-linecap:butt"/><path d="m242.67 406.62 1.62-.62 1.62-.61 1.62-.6 1.62-.59 1.62-.58 1.62-.57 1.63-.56 1.62-.54 1.63-.54 1.62-.52 1.63-.52 1.63-.5 1.63-.49 1.63-.49 1.63-.47 1.63-.46 1.63-.45 1.64-.43 1.63-.43 1.64-.42 1.63-.4 1.64-.4 1.64-.38 1.64-.38 1.64-.36 1.64-.35 1.64-.34 1.64-.33 1.65-.32 1.64-.31 1.65-.3 1.64-.28 1.65-.28 1.65-.26 1.65-.26 1.65-.24 1.65-.23 1.65-.22 1.66-.21 1.65-.2 1.65-.19 1.66-.18 1.66-.17 1.65-.15 1.66-.15 1.66-.13 1.66-.13 1.66-.11 1.66-.1 1.67-.09 1.66-.09 1.67-.06 1.66-.06 1.67-.05 1.67-.04 1.66-.02 1.67-.02h3.34l1.68.02 1.67.03 1.67.04 1.68.05 1.67.06 1.68.07 1.68.08 1.68.09 1.68.11 1.68.11 1.68.13 1.68.13 1.68.15 1.69.16 1.68.17 1.69.18 1.68.19 1.69.2 1.69.21 1.69.22 1.69.24 1.69.24 1.69.26 1.7.27 1.69.27 1.7.29 1.69.3 1.7.31 1.7.32 1.69.33 1.7.35 1.7.35 1.71.36 1.7.38 1.7.38 1.7.4 1.71.41 1.71.42 1.7.43 1.71.44M183.42 141.28l.21 1.34.22 1.34.21 1.33.22 1.34.23 1.33.22 1.33.24 1.33.23 1.34.24 1.33.24 1.33.24 1.33.25 1.33.25 1.33.25 1.32.26 1.33.26 1.33.26 1.33.27 1.32.27 1.33.27 1.32.28 1.33.28 1.32.28 1.32.29 1.32.29 1.33.29 1.32.29 1.32.3 1.32.31 1.32.3 1.31.31 1.32.31 1.32.32 1.32.32 1.31.32 1.32.33 1.31.32 1.32.34 1.31.33 1.31.34 1.32.34 1.31.35 1.31.34 1.31.36 1.31.35 1.31.36 1.31.36 1.31.37 1.31.36 1.3.37 1.31.38 1.3.38 1.31.38 1.3.38 1.31.39 1.3.39 1.3.39 1.31.4 1.3.4 1.3.41 1.3.4 1.3.41 1.3.42 1.3.42 1.3.42 1.29.42 1.3.43 1.3.43 1.29.43 1.3.44 1.29.44 1.29.44 1.3.45 1.29.45 1.29.45 1.29.45 1.29.46 1.29.47 1.29.46 1.29.47 1.29.47 1.29.48 1.29.48 1.28.48 1.29.49 1.28.49 1.29.49 1.28.49 1.29.5 1.28.51 1.28.5 1.28.51 1.28.51 1.28.52 1.28.51 1.28.53 1.28.52 1.28.53 1.28.53 1.27m-36.75-129.34.53 1.28.53 1.28.52 1.28.53 1.28.51 1.27.52 1.28.51 1.28.51 1.29.51 1.28.5 1.28.5 1.28.49 1.29.49 1.28.49 1.28.49 1.29.48 1.29.48 1.28.48 1.29.47 1.29.47 1.29.46 1.28.47 1.29.46 1.29.45 1.29.46 1.3.45 1.29.44 1.29.45 1.29.44 1.3.43 1.29.44 1.3.43 1.29.42 1.3.43 1.3.42 1.29.41 1.3.42 1.3.41 1.3.4 1.3.41 1.3.4 1.3.4 1.3.39 1.3.39 1.31.39 1.3.38 1.3.38 1.31.38 1.3.38 1.31.37 1.31.37 1.3.36 1.31.36 1.31.36 1.31.35 1.31.36 1.31.34 1.31.35 1.31.34 1.31.34 1.31.34 1.32.33 1.31.33 1.32.32 1.31.32 1.32.32 1.31.32 1.32.31 1.32.31 1.31.31 1.32.3 1.32.3 1.32.29 1.32.3 1.32.29 1.32.28 1.33.28 1.32.28 1.32.28 1.33.27 1.32.27 1.33.27 1.32.26 1.33.26 1.33.26 1.32.25 1.33.25 1.33.25 1.33.24 1.33.24 1.33.24 1.33.24 1.33.23 1.34.22 1.33.23 1.33.22 1.34.22 1.33.21 1.34.21 1.33" style="stroke-width:1.07;stroke:#000000;stroke-opacity:0.10;stroke-linecap:butt"/><path d="m183.42 141.28.85 1.22.84 1.22.84 1.22.82 1.23.81 1.22.8 1.23.8 1.22.78 1.23.77 1.24.77 1.23.75 1.24.75 1.23.73 1.24.72 1.24.72 1.25.7 1.24.7 1.25.68 1.25.68 1.25.67 1.25.65 1.25.65 1.26.63 1.26.63 1.26.62 1.26.6 1.26.6 1.26.59 1.27.57 1.27.57 1.27.56 1.27.55 1.27.54 1.28.52 1.28.52 1.28.51 1.28.5 1.28.49 1.29.48 1.28.47 1.29.46 1.29.45 1.29.44 1.3.43 1.29.42 1.3.41 1.3.4 1.3.39 1.3.38 1.31.37 1.3.36 1.31.35 1.31.35 1.31.33 1.32.32 1.31.31 1.32.3 1.32.3 1.32.28 1.32.27 1.33.27 1.32.25 1.33.24 1.33.24 1.33.22 1.34.22 1.33.2 1.34.19 1.34.19 1.34.17 1.34.17 1.35.16 1.34.14 1.35.14 1.35.12 1.35.12 1.36.1 1.35.1 1.36.09 1.36.07 1.36.07 1.36.06 1.37.05 1.36.03 1.37.03 1.37.02 1.38.01 1.37v1.37l-.01 1.38-.03 1.38-.03 1.38-.04 1.38-.05 1.39-.06 1.38-.07 1.39-.08 1.39-.09 1.39-.1 1.4-.11 1.39" style="stroke-width:1.07;stroke:#000000;stroke-opacity:0.10;stroke-linecap:butt"/><path d="m55.97 263.62 1.66.07 1.66.07 1.65.07 1.66.07 1.66.07 1.66.08 1.66.07 1.66.07 1.66.07 1.65.07 1.66.07 1.66.07 1.66.07 1.66.07 1.66.07 1.66.07 1.65.07 1.66.07 1.66.07 1.66.08 1.66.07 1.66.07 1.66.07 1.65.07 1.66.07 1.66.07 1.66.07 1.66.07 1.66.07 1.66.07 1.66.07 1.65.07 1.66.08 1.66.07 1.66.07 1.66.07 1.66.07 1.66.07 1.65.07 1.66.07 1.66.07 1.66.07 1.66.07 1.66.07 1.66.07 1.65.07 1.66.08 1.66.07 1.66.07 1.66.07 1.66.07 1.66.07 1.65.07 1.66.07 1.66.07 1.66.07 1.66.07 1.66.07 1.66.07 1.66.08 1.65.07 1.66.07 1.66.07 1.66.07 1.66.07 1.66.07 1.66.07 1.65.07 1.66.07 1.66.07 1.66.07 1.66.07 1.66.07 1.66.08 1.65.07 1.66.07 1.66.07 1.66.07 1.66.07 1.66.07 1.66.07 1.65.07 1.66.07 1.66.07 1.66.07 1.66.07 1.66.08 1.66.07 1.66.07 1.65.07 1.66.07 1.66.07 1.66.07 1.66.07 1.66.07 1.66.07 1.65.07 1.66.07 1.66.07" style="stroke-width:1.07;stroke:#000000;stroke-opacity:0.10;stroke-linecap:butt"/><path d="m390.06 260.01 4.45 7.72h-8.91zM242.67 398.55l7 12.11h-13.99zm-59.25-264.56 6.31 10.94h-12.62zM55.97 261.41l1.91 3.32h-3.83z" style="stroke-width:0.71;stroke:none;fill:#00BA38"/><circle cx="220.17" cy="270.62" r="6.76" style="stroke-width:0.71;stroke:none;fill:#F8766D"/><path d="M401.26 403.63h12.08v-12.09h-12.08z" style="stroke-width:0.71;stroke:none;fill:#619CFF"/><circle cx="179.52" cy="524.23" r="3.31" style="stroke-width:0.71;stroke:none;fill:#F8766D"/><circle cx="522.77" cy="194.75" r="1.42" style="stroke-width:0.71;stroke:none;fill:#F8766D"/><path d="m384.92 269.77 4.28-3.84M247.85 401.97l-4.32 3.88m-65.3-259.9 4.33-3.89M60.74 266.21l-3.71-2.01m168.49 1.81-4.47 3.86m191.61 123.1-4.48 3.86m-223.3 122.78-4.48 3.86" style="stroke-width:0.53;stroke:#BFBFBF"/><path d="M350.16 281.12h54.68-.09l.35-.02.34-.07.32-.12.31-.18.26-.22.23-.26.19-.29.14-.32.08-.34.03-.34h0v-7.03h0l-.03-.35-.08-.33-.14-.32-.19-.3-.23-.26-.26-.22-.31-.17-.32-.12-.34-.07-.26-.02h-54.68l.26.02-.35-.02-.34.04-.33.1-.32.15-.28.2-.26.24-.2.28-.17.3-.11.33-.05.35-.01.17v7.03l.01-.18v.35l.05.34.11.33.17.31.2.28.26.24.28.2.32.15.33.09.34.05z" style="stroke-width:0.53;fill:#FFFFFF;fill-opacity:0.50"/><text x="377.5" y="277.52" lengthAdjust="spacingAndGlyphs" style="font-size:5.69px;font-family:&quot;Liberation Sans&quot;" text-anchor="middle" textLength="51.8">AB NORMAL 1 LLC</text><path d="M227.91 401.97h54.68l-.09-.01.35-.01.34-.07.33-.12.3-.18.27-.22.23-.26.18-.29.14-.32.08-.34.03-.34h0v-7.03h0l-.03-.35-.08-.34-.14-.32-.18-.29-.23-.26-.27-.22-.3-.17-.33-.13-.34-.07-.26-.01h-54.68l.27.01-.35-.01-.35.04-.33.1-.32.15-.28.2-.25.24-.21.27-.16.31-.11.33-.06.34-.01.18v7.03l.01-.18v.35l.06.34.11.33.16.31.21.28.25.24.28.2.32.14.33.1.35.04z" style="stroke-width:0.53;fill:#FFFFFF;fill-opacity:0.50"/><text x="255.25" y="398.37" lengthAdjust="spacingAndGlyphs" style="font-size:5.69px;font-family:&quot;Liberation Sans&quot;" text-anchor="middle" textLength="51.8">AB NORMAL 4 LLC</text><path d="M142.75 157.29h56.02-.09l.35-.01.34-.07.33-.12.3-.18.27-.22.23-.26.18-.29.14-.32.08-.34.03-.35h0v-7.02h0l-.03-.35-.08-.34-.14-.32-.18-.29-.23-.26-.27-.22-.3-.17-.33-.13-.34-.07-.26-.01h-56.02l.26.01-.34-.01-.35.04-.33.1-.32.15-.28.19-.25.24-.21.28-.16.31-.11.33-.06.34-.01.18v7.02l.01-.17v.35l.06.34.11.33.16.31.21.28.25.24.28.19.32.15.33.1.35.04z" style="stroke-width:0.53;fill:#FFFFFF;fill-opacity:0.50"/><text x="170.76" y="153.69" lengthAdjust="spacingAndGlyphs" style="font-size:5.69px;font-family:&quot;Liberation Sans&quot;" text-anchor="middle" textLength="53.14">NICHOLAS B DAAR</text><path d="M62.9 272.74h52.74-.09l.35-.02.34-.07.32-.12.3-.17.27-.22.23-.26.19-.3.13-.32.09-.33.03-.35h0v-7.03h0l-.03-.34-.09-.34-.13-.32-.19-.3-.23-.26-.27-.22-.3-.17-.32-.12-.34-.07-.26-.02H62.9l.26.02-.34-.02-.35.05-.33.09-.32.15-.28.2-.25.24-.21.28-.16.31-.11.33-.06.34-.01.17v7.03l.01-.17v.34l.06.35.11.33.16.3.21.28.25.24.28.2.32.15.33.1.35.04z" style="stroke-width:0.53;fill:#FFFFFF;fill-opacity:0.50"/><text x="89.27" y="269.14" lengthAdjust="spacingAndGlyphs" style="font-size:5.69px;font-family:&quot;Liberation Sans&quot;" text-anchor="middle" textLength="49.85">AB NORMAL I LLC</text><path d="M204.06 266.01h67.22-.09l.35-.01.34-.07.32-.13.31-.17.26-.22.23-.26.19-.29.14-.32.08-.34.03-.35h0v-15.22h0l-.03-.35-.08-.33-.14-.32-.19-.3-.23-.26-.26-.22-.31-.17-.32-.12-.34-.07-.26-.02h-67.22l.26.02-.35-.02-.34.04-.34.1-.31.15-.29.2-.25.24-.21.28-.16.3-.11.33-.05.35-.01.17v15.22l.01-.17v.35l.05.34.11.33.16.31.21.27.25.25.29.19.31.15.34.1.34.04z" style="stroke-width:0.53;fill:#FFFFFF;fill-opacity:0.50"/><text x="237.67" y="254.22" lengthAdjust="spacingAndGlyphs" style="font-size:5.69px;font-family:&quot;Liberation Sans&quot;" text-anchor="middle" textLength="48.05">2024 N 55TH ST,</text><text x="237.67" y="262.41" lengthAdjust="spacingAndGlyphs" style="font-size:5.69px;font-family:&quot;Liberation Sans&quot;" text-anchor="middle" textLength="64.34">MILWAUKEE, WI 53208</text><path d="M391.24 392.97h67.21-.08l.34-.02.35-.07.32-.12.3-.17.27-.22.23-.26.19-.3.13-.32.09-.34.02-.34h0v-15.22h0l-.02-.35-.09-.34-.13-.32-.19-.29-.23-.26-.27-.22-.3-.17-.32-.13-.35-.07-.26-.01h-67.21l.26.01-.35-.01-.35.04-.33.1-.31.15-.29.19-.25.24-.21.28-.16.31-.11.33-.06.34v15.4-.18.35l.06.35.11.32.16.31.21.28.25.24.29.2.31.15.33.09.35.05z" style="stroke-width:0.53;fill:#FFFFFF;fill-opacity:0.50"/><text x="424.84" y="381.17" lengthAdjust="spacingAndGlyphs" style="font-size:5.69px;font-family:&quot;Liberation Sans&quot;" text-anchor="middle" textLength="63.66">2019 HI MOUNT BLVD,</text><text x="424.84" y="389.37" lengthAdjust="spacingAndGlyphs" style="font-size:5.69px;font-family:&quot;Liberation Sans&quot;" text-anchor="middle" textLength="64.34">MILWAUKEE, WI 53208</text><path d="M163.48 519.61h67.21-.08l.34-.02.35-.07.32-.12.3-.18.27-.22.23-.26.19-.29.13-.32.09-.34.02-.34h0v-15.22h0l-.02-.35-.09-.34-.13-.32-.19-.29-.23-.26-.27-.22-.3-.18-.32-.12-.35-.07-.26-.01h-67.21l.26.01-.35-.01-.35.04-.33.1-.31.14-.29.2-.25.24-.21.28-.16.31-.11.33-.06.34v15.4-.18.35l.06.34.11.33.16.31.21.28.25.24.29.2.31.15.33.09.35.05z" style="stroke-width:0.53;fill:#FFFFFF;fill-opacity:0.50"/><text x="197.08" y="507.81" lengthAdjust="spacingAndGlyphs" style="font-size:5.69px;font-family:&quot;Liberation Sans&quot;" text-anchor="middle" textLength="48.05">1935 N 49TH ST,</text><text x="197.08" y="516.01" lengthAdjust="spacingAndGlyphs" style="font-size:5.69px;font-family:&quot;Liberation Sans&quot;" text-anchor="middle" textLength="64.34">MILWAUKEE, WI 53208</text><path d="M450.25 208.87h65.62l-.08-.01.34-.01.34-.07.33-.12.3-.18.27-.22.23-.26.19-.29.13-.32.09-.34.02-.34h0v-23.42h0l-.02-.35-.09-.33-.13-.32-.19-.3-.23-.26-.27-.22-.3-.17-.33-.12-.34-.07-.26-.02h-65.62l.26.02-.35-.02-.35.04-.33.1-.31.15-.29.2-.25.24-.21.28-.16.3-.11.33-.06.35v23.59-.18.35l.06.34.11.33.16.31.21.28.25.24.29.2.31.15.33.09.35.04z" style="stroke-width:0.53;fill:#FFFFFF;fill-opacity:0.50"/><text x="483.06" y="188.88" lengthAdjust="spacingAndGlyphs" style="font-size:5.69px;font-family:&quot;Liberation Sans&quot;" text-anchor="middle" textLength="51.4">2019 N HI MOUNT</text><text x="483.06" y="197.07" lengthAdjust="spacingAndGlyphs" style="font-size:5.69px;font-family:&quot;Liberation Sans&quot;" text-anchor="middle" textLength="62.75">BLVD, MILWAUKEE, WI</text><text x="483.06" y="205.27" lengthAdjust="spacingAndGlyphs" style="font-size:5.69px;font-family:&quot;Liberation Sans&quot;" text-anchor="middle" textLength="18.11">53208</text></g><g clip-path="url(#cpMC4wMHw1NzYuMDB8MC4wMHw1NzYuMDA=)"><circle cx="194.25" cy="97.06" r="1.95" style="stroke-width:0.71;stroke:none;fill:#F8766D"/><path d="m270.6 94.02 2.63 4.56h-5.27z" style="stroke-width:0.71;stroke:none;fill:#00BA38"/><path d="M336.57 99.01h3.91V95.1h-3.91z" style="stroke-width:0.71;stroke:none;fill:#619CFF"/><text x="208.37" y="100.22" lengthAdjust="spacingAndGlyphs" style="font-size:8.80px;font-weight:0;font-family:&quot;Nimbus Sans Narrow&quot;" textLength="48.11">mprop address</text><text x="284.72" y="100.22" lengthAdjust="spacingAndGlyphs" style="font-size:8.80px;font-weight:0;font-family:&quot;Nimbus Sans Narrow&quot;" textLength="39.69">owner name</text><text x="352.64" y="100.22" lengthAdjust="spacingAndGlyphs" style="font-size:8.80px;font-weight:0;font-family:&quot;Nimbus Sans Narrow&quot;" textLength="40.49">wdfi address</text><text x="32.63" y="65.35" lengthAdjust="spacingAndGlyphs" style="font-size:12.00px;font-weight:0;font-family:&quot;Nimbus Sans Narrow&quot;" textLength="252.12">includes 12 parcels, 19 units, and 4 distinct owner names.</text><text x="32.63" y="42.81" lengthAdjust="spacingAndGlyphs" style="font-size:18.00px;font-weight:0;font-family:&quot;Nimbus Sans Narrow&quot;" textLength="209.14">AB NORMAL 4 LLC etc Group</text></g></svg>