<svg xmlns="http://www.w3.org/2000/svg" width="384" height="384" class="svglite" viewBox="0 0 288 288"><defs><style>.svglite circle,.svglite line,.svglite polygon,.svglite polyline,.svglite rect{fill:none;stroke:#000;stroke-linecap:round;stroke-linejoin:round;stroke-miterlimit:10}.svglite text{white-space:pre}</style></defs><rect width="100%" height="100%" style="stroke:none;fill:#fff"/><defs><clipPath id="cpMC4wMHwyODguMDB8MC4wMHwyODguMDA="><path d="M0 0h288v288H0z"/></clipPath></defs><g clip-path="url(#cpMC4wMHwyODguMDB8MC4wMHwyODguMDA=)"><path d="M0 0h288v288H0z" style="stroke-width:1.07;stroke:none;fill:#fff"/></g><defs><clipPath id="cpMzIuNjN8MjU4LjExfDEyMC44NnwyNTUuMzc="><path d="M32.63 120.86h225.48v134.51H32.63z"/></clipPath></defs><g clip-path="url(#cpMzIuNjN8MjU4LjExfDEyMC44NnwyNTUuMzc=)"><path d="m247.86 126.98-1.03.61-1.04.62-1.03.62-1.04.62-1.03.62-1.04.61-1.03.62-1.04.62-1.03.62-1.04.61-1.04.62-1.03.62-1.04.62-1.03.61-1.04.62-1.03.62-1.04.62-1.03.61-1.04.62-1.03.62-1.04.62-1.03.62-1.04.61-1.03.62-1.04.62-1.03.62-1.04.61-1.03.62-1.04.62-1.04.62-1.03.61-1.04.62-1.03.62-1.04.62-1.03.61-1.04.62-1.03.62-1.04.62-1.03.62-1.04.61-1.03.62-1.04.62-1.03.62-1.04.61-1.03.62-1.04.62-1.04.62-1.03.61-1.04.62-1.03.62-1.04.62-1.03.61-1.04.62-1.03.62-1.04.62-1.03.62-1.04.61-1.03.62-1.04.62-1.03.62-1.04.61-1.03.62-1.04.62-1.03.62-1.04.61-1.04.62-1.03.62-1.04.62-1.03.62-1.04.61-1.03.62-1.04.62-1.03.62-1.04.61-1.03.62-1.04.62-1.03.62-1.04.61-1.03.62-1.04.62-1.03.62-1.04.61-1.04.62-1.03.62-1.04.62-1.03.62-1.04.61-1.03.62-1.04.62-1.03.62-1.04.61-1.03.62-1.04.62-1.03.62-1.04.61-1.03.62-1.04.62-1.03.62-1.04.61M42.88 249.26l1.03-.62 1.04-.62 1.03-.61 1.04-.62 1.03-.62 1.04-.62 1.03-.61 1.04-.62 1.03-.62 1.04-.62 1.04-.61 1.03-.62 1.04-.62 1.03-.62 1.04-.61 1.03-.62 1.04-.62 1.03-.62 1.04-.61 1.03-.62 1.04-.62 1.03-.62 1.04-.61 1.03-.62 1.04-.62 1.03-.62 1.04-.61 1.03-.62 1.04-.62 1.04-.62 1.03-.61 1.04-.62 1.03-.62 1.04-.62 1.03-.61 1.04-.62 1.03-.62 1.04-.62 1.03-.61 1.04-.62 1.03-.62 1.04-.62 1.03-.61 1.04-.62 1.03-.62 1.04-.62 1.04-.61 1.03-.62 1.04-.62 1.03-.62 1.04-.61 1.03-.62 1.04-.62 1.03-.62 1.04-.61 1.03-.62 1.04-.62 1.03-.62 1.04-.61 1.03-.62 1.04-.62 1.03-.62 1.04-.61 1.04-.62 1.03-.62 1.04-.62 1.03-.61 1.04-.62 1.03-.62 1.04-.62 1.03-.61 1.04-.62 1.03-.62 1.04-.62 1.03-.61 1.04-.62 1.03-.62 1.04-.62 1.03-.61 1.04-.62 1.04-.62 1.03-.62 1.04-.62 1.03-.61 1.04-.62 1.03-.62 1.04-.62 1.03-.61 1.04-.62 1.03-.62 1.04-.62 1.03-.61 1.04-.62 1.03-.62 1.04-.62 1.03-.61 1.04-.62 1.04-.62 1.03-.62" style="stroke-width:1.07;stroke:#000;stroke-opacity:.1;stroke-linecap:butt"/><path d="m247.86 124.77 1.92 3.31h-3.83zM42.88 247.05l1.91 3.31h-3.83z" style="stroke-width:.71;stroke:none;fill:#00bfc4"/><circle cx="145.37" cy="188.12" r="6.76" style="stroke-width:.71;stroke:none;fill:#f8766d"/><path d="m240.75 131.42 6.11-3.82M50.16 244.79l-6.27 3.85M138.17 192.54l6.19-3.8" style="stroke-width:.53;stroke:#bfbfbf"/><path d="M196.91 150.96h54.25-.08l.34-.01.34-.07.33-.13.3-.17.27-.22.23-.26.18-.29.14-.32.08-.34.03-.35v-15.22l-.03-.34-.08-.34-.14-.32-.18-.3-.23-.26-.27-.22-.3-.17-.33-.12-.34-.07-.26-.02h-54.25l.26.02-.35-.02-.34.05-.34.09-.31.15-.29.2-.25.24-.21.28-.16.3-.11.33-.05.35-.01.17v15.22l.01-.17v.35l.05.34.11.33.16.31.21.28.25.24.29.19.31.15.34.1.34.04z" style="stroke-width:.53;fill:#fff;fill-opacity:.5"/><text x="224.04" y="139.17" lengthAdjust="spacingAndGlyphs" style="font-size:5.69px;font-family:&quot;Liberation Sans&quot;" text-anchor="middle" textLength="51.37">ABOVE &amp; BEYOND</text><text x="224.04" y="147.36" lengthAdjust="spacingAndGlyphs" style="font-size:5.69px;font-family:&quot;Liberation Sans&quot;" text-anchor="middle" textLength="47.42">REMODELING SE</text><path d="M39.17 244.79h69.78-.09l.35-.01.34-.07.32-.13.3-.17.27-.22.23-.26.19-.29.14-.32.08-.34.03-.35v-7.03l-.03-.34-.08-.34-.14-.32-.19-.29-.23-.26-.27-.22-.3-.18-.32-.12-.34-.07-.26-.02H39.17l.26.02-.34-.01-.35.04-.33.09-.32.15-.28.2-.25.24-.21.28-.16.31-.11.33-.06.34-.01.17v7.03l.01-.17v.35l.06.34.11.33.16.31.21.27.25.24.28.2.32.15.33.1.35.04z" style="stroke-width:.53;fill:#fff;fill-opacity:.5"/><text x="74.06" y="241.19" lengthAdjust="spacingAndGlyphs" style="font-size:5.69px;font-family:&quot;Liberation Sans&quot;" text-anchor="middle" textLength="66.9">ORACLE HOLDINGS LLC</text><path d="M82.14 220.28h65.16-.09l.35-.02.34-.07.32-.12.3-.17.27-.22.23-.26.19-.3.14-.32.08-.34.03-.34V194.7l-.03-.34-.08-.34-.14-.32-.19-.3-.23-.26-.27-.22-.3-.17-.32-.12-.34-.07-.26-.02H82.14l.26.02-.35-.02-.34.05-.34.09-.31.15-.29.2-.25.24-.21.28-.16.31-.11.32-.06.35v23.59-.18.35l.06.34.11.33.16.31.21.28.25.24.29.2.31.15.34.09.34.05z" style="stroke-width:.53;fill:#fff;fill-opacity:.5"/><text x="114.72" y="200.29" lengthAdjust="spacingAndGlyphs" style="font-size:5.69px;font-family:&quot;Liberation Sans&quot;" text-anchor="middle" textLength="58.19">2625 S GREELEY ST,</text><text x="114.72" y="208.48" lengthAdjust="spacingAndGlyphs" style="font-size:5.69px;font-family:&quot;Liberation Sans&quot;" text-anchor="middle" textLength="62.28">STE 111, MILWAUKEE,</text><text x="114.72" y="216.68" lengthAdjust="spacingAndGlyphs" style="font-size:5.69px;font-family:&quot;Liberation Sans&quot;" text-anchor="middle" textLength="27.22">WI 53207</text></g><g clip-path="url(#cpMC4wMHwyODguMDB8MC4wMHwyODguMDA=)"><circle cx="87.34" cy="95.78" r="1.95" style="stroke-width:.71;stroke:none;fill:#f8766d"/><path d="m163.7 92.74 2.63 4.56h-5.26z" style="stroke-width:.71;stroke:none;fill:#00bfc4"/><text x="101.46" y="98.81" lengthAdjust="spacingAndGlyphs" style="font-size:8.8px;font-family:&quot;Liberation Sans Narrow&quot;" textLength="48.12">mprop address</text><text x="177.82" y="98.81" lengthAdjust="spacingAndGlyphs" style="font-size:8.8px;font-family:&quot;Liberation Sans Narrow&quot;" textLength="39.69">owner name</text><text x="32.63" y="64.23" lengthAdjust="spacingAndGlyphs" style="font-size:12px;font-family:&quot;Liberation Sans Narrow&quot;" textLength="241.29">includes 2 parcels, 5 units, and 2 distinct owner names.</text><text x="32.63" y="42.27" lengthAdjust="spacingAndGlyphs" style="font-size:18px;font-weight:700;font-family:&quot;Liberation Sans Narrow&quot;" textLength="310.78">ABOVE &amp; BEYOND REMODELING SE Group</text></g></svg>