<svg xmlns="http://www.w3.org/2000/svg" width="576" height="672" class="svglite" viewBox="0 0 432 504"><defs><style><![CDATA[.svglite line,.svglite polyline,.svglite polygon,.svglite path,.svglite circle{fill:none;stroke:#000000;stroke-linecap:round;stroke-linejoin:round;stroke-miterlimit:10.00}]]></style></defs><rect width="100%" height="100%" style="stroke-linecap:round;stroke-linejoin:round;stroke-miterlimit:10.00;stroke:none;fill:#FFFFFF"/><defs><clipPath id="cpMC4wMHw0MzIuMDB8MC4wMHw1MDQuMDA="><path d="M0 0h432v504H0z"/></clipPath></defs><g clip-path="url(#cpMC4wMHw0MzIuMDB8MC4wMHw1MDQuMDA=)"><path d="M0 0h432v504H0z" style="stroke-width:1.07;stroke:none;fill:#FFFFFF"/></g><defs><clipPath id="cpMzIuNjN8NDAyLjExfDE0MS4yMnw0NzEuMzc="><path d="M32.63 141.22h369.48v330.15H32.63z"/></clipPath></defs><g clip-path="url(#cpMzIuNjN8NDAyLjExfDE0MS4yMnw0NzEuMzc=)"><path d="m113.13 456.37.47-1.45.46-1.45.47-1.45.46-1.45.47-1.45.46-1.45.46-1.45.47-1.45.46-1.45.47-1.45.46-1.45.47-1.45.46-1.45.47-1.45.46-1.45.47-1.45.46-1.45.46-1.45.47-1.45.46-1.45.47-1.45.46-1.45.47-1.44.46-1.45.47-1.45.46-1.45.46-1.45.47-1.45.46-1.45.47-1.45.46-1.45.47-1.45.46-1.45.47-1.45.46-1.45.47-1.45.46-1.45.46-1.45.47-1.45.46-1.45.47-1.45.46-1.45.47-1.45.46-1.45.47-1.45.46-1.45.47-1.45.46-1.44.46-1.45.47-1.45.46-1.45.47-1.45.46-1.45.47-1.45.46-1.45.47-1.45.46-1.45.46-1.45.47-1.45.46-1.45.47-1.45.46-1.45.47-1.45.46-1.45.47-1.45.46-1.45.47-1.45.46-1.45.46-1.45.47-1.45.46-1.45.47-1.44.46-1.45.47-1.45.46-1.45.47-1.45.46-1.45.46-1.45.47-1.45.46-1.45.47-1.45.46-1.45.47-1.45.46-1.45.47-1.45.46-1.45.47-1.45.46-1.45.46-1.45.47-1.45.46-1.45.47-1.45.46-1.45.47-1.45.46-1.45.47-1.45.46-1.44.47-1.45.46-1.45m-45.99 143.51-.64-1.01-.64-1.01-.65-1.02-.64-1.01-.64-1.01-.65-1.01-.64-1.01-.65-1.01-.64-1.01-.64-1.01-.65-1.01-.64-1.01-.64-1.01-.65-1.01-.64-1.01-.64-1.01-.65-1.01-.64-1.01-.64-1.01-.65-1.01-.64-1.01-.65-1.01-.64-1.01-.64-1.01-.65-1.01-.64-1.01-.64-1.01-.65-1.01-.64-1.01-.64-1.01-.65-1.01-.64-1.01-.64-1.01-.65-1.01-.64-1.01-.64-1.01-.65-1.01-.64-1.01-.65-1.01-.64-1.01-.64-1.01-.65-1.01-.64-1.01-.64-1.01-.65-1.01-.64-1.01-.64-1.02-.65-1.01-.64-1.01-.64-1.01-.65-1.01-.64-1.01-.64-1.01-.65-1.01-.64-1.01-.65-1.01-.64-1.01-.64-1.01-.65-1.01-.64-1.01-.64-1.01-.65-1.01-.64-1.01-.64-1.01-.65-1.01-.64-1.01-.64-1.01-.65-1.01-.64-1.01-.64-1.01-.65-1.01-.64-1.01-.65-1.01-.64-1.01-.64-1.01-.65-1.01-.64-1.01-.64-1.01-.65-1.01-.64-1.01-.64-1.01-.65-1.01-.64-1.01-.64-1.01-.65-1.01-.64-1.01-.65-1.01-.64-1.01-.64-1.01-.65-1.01-.64-1.02-.64-1.01-.65-1.01-.64-1.01-.64-1.01-.65-1.01-.64-1.01-.64-1.01-.65-1.01m226.33-26.07-1.13-.66-1.14-.65-1.14-.64-1.14-.64-1.14-.62-1.14-.61-1.14-.6-1.15-.6-1.14-.58-1.15-.57-1.14-.56-1.15-.56-1.15-.54-1.14-.53-1.15-.52-1.15-.52-1.15-.5-1.15-.49-1.16-.49-1.15-.47-1.15-.46-1.16-.46-1.15-.44-1.16-.43-1.16-.43-1.16-.41-1.16-.41-1.16-.39-1.16-.39-1.16-.37-1.16-.36-1.16-.36-1.17-.34-1.16-.34-1.17-.32-1.16-.32-1.17-.3-1.17-.3-1.17-.28-1.17-.28-1.17-.26-1.17-.26-1.17-.24-1.17-.24-1.18-.22-1.17-.22-1.18-.21-1.18-.19-1.17-.19-1.18-.17-1.18-.17-1.18-.16-1.18-.14-1.18-.14-1.18-.12-1.19-.12-1.18-.11-1.19-.09-1.18-.09-1.19-.08-1.19-.06-1.18-.06-1.19-.05-1.19-.04-1.19-.02-1.19-.02-1.2-.01h-1.19l-1.19.02-1.2.02-1.19.03-1.2.04-1.2.05-1.2.07-1.19.07-1.2.08-1.21.09-1.2.1-1.2.11-1.2.13-1.21.13-1.2.14-1.21.15-1.2.16-1.21.17-1.21.18-1.21.19-1.21.2-1.21.21-1.21.23-1.21.23-1.21.24-1.22.25-1.21.26-1.22.27-1.22.28-1.21.29-1.22.3-1.22.31m116.63 17.42 1.07.63 1.07.62 1.07.61 1.07.6 1.07.59 1.07.58 1.07.57 1.07.57 1.07.55 1.08.55 1.07.53 1.08.53 1.08.51 1.07.51 1.08.5 1.08.49 1.08.48 1.08.47 1.08.46 1.08.45 1.09.44 1.08.43 1.09.43 1.08.41 1.09.41 1.08.39 1.09.39 1.09.37 1.09.37 1.09.36 1.09.35 1.09.34 1.1.33 1.09.32 1.1.31 1.09.3 1.1.3 1.09.28 1.1.28 1.1.26 1.1.26 1.1.24 1.1.24 1.1.23 1.11.22 1.1.21 1.1.2 1.11.19 1.1.18 1.11.17 1.11.16 1.11.16 1.11.14 1.11.13 1.11.13 1.11.12 1.11.1 1.11.1 1.12.09 1.11.08 1.12.07 1.11.06 1.12.05 1.12.04 1.12.03 1.12.03 1.12.01h2.24l1.13-.02 1.12-.02 1.12-.03 1.13-.04 1.13-.06 1.12-.06 1.13-.07 1.13-.08 1.13-.08 1.13-.1 1.13-.11 1.13-.12 1.14-.12 1.13-.14 1.13-.14 1.14-.16 1.13-.16 1.14-.17 1.14-.18 1.14-.19 1.14-.21 1.14-.21 1.14-.21 1.14-.23 1.14-.24 1.15-.25 1.14-.25 1.14-.27 1.15-.27 1.15-.29" style="stroke-width:1.07;stroke:#000000;stroke-opacity:0.10;stroke-linecap:butt"/><path d="m275.75 330.28-1.15-.47-1.15-.46-1.16-.45-1.15-.45-1.16-.45-1.16-.43-1.15-.44-1.16-.42-1.16-.42-1.15-.42-1.16-.4-1.16-.41-1.16-.39-1.16-.39-1.16-.39-1.16-.37-1.17-.38-1.16-.36-1.16-.36-1.16-.36-1.17-.35-1.16-.34-1.17-.34-1.16-.33-1.17-.32-1.16-.32-1.17-.31-1.17-.31-1.16-.3-1.17-.3-1.17-.28-1.17-.29-1.17-.27-1.17-.28-1.17-.26-1.17-.26-1.17-.25-1.18-.25-1.17-.24-1.17-.24-1.17-.23-1.18-.22-1.17-.22-1.18-.21-1.17-.21-1.18-.2-1.18-.19-1.17-.19-1.18-.18-1.18-.18-1.18-.17-1.18-.16-1.18-.16-1.18-.15-1.18-.15-1.18-.14-1.18-.13-1.18-.13-1.19-.12-1.18-.12-1.18-.11-1.19-.1-1.18-.1-1.19-.1-1.18-.08-1.19-.08-1.18-.08-1.19-.07-1.19-.06-1.19-.06-1.19-.05-1.18-.04-1.19-.04-1.19-.04-1.2-.02-1.19-.02-1.19-.02-1.19-.01h-2.39l-1.19.01-1.19.01-1.2.02-1.19.03-1.2.03-1.2.04-1.19.04-1.2.05-1.2.06-1.19.06-1.2.07-1.2.07-1.2.08-1.2.09-1.2.09-1.2.1-1.21.1-1.2.11-1.2.12m116.63 17.42 1.09.45 1.08.44 1.08.43 1.09.43 1.08.42 1.09.42 1.08.41 1.09.41 1.09.4 1.08.4 1.09.39 1.09.38 1.09.38 1.09.37 1.09.37 1.09.36 1.09.36 1.09.35 1.09.35 1.09.34 1.09.33 1.1.33 1.09.32 1.09.32 1.1.31 1.09.31 1.1.3 1.1.29 1.09.29 1.1.28 1.1.28 1.09.28 1.1.26 1.1.26 1.1.26 1.1.25 1.1.24 1.1.24 1.1.24 1.1.23 1.11.22 1.1.21 1.1.22 1.11.2 1.1.2 1.11.2 1.1.18 1.11.19 1.1.17 1.11.18 1.11.16 1.1.16 1.11.16 1.11.15 1.11.14 1.11.14 1.11.13 1.11.13 1.11.12 1.11.12 1.12.11 1.11.11 1.11.09 1.12.1 1.11.09 1.11.08 1.12.08 1.11.07 1.12.06 1.12.06 1.11.06 1.12.05 1.12.04 1.12.04 1.12.03 1.12.03 1.12.02 1.12.02 1.12.01h2.24l1.12-.01 1.13-.01 1.12-.02 1.12-.02 1.13-.03 1.12-.04 1.13-.04 1.12-.04 1.13-.05 1.13-.06 1.12-.06 1.13-.07 1.13-.08 1.13-.08 1.13-.08 1.13-.09 1.13-.1 1.13-.1" style="stroke-width:1.07;stroke:#000000;stroke-opacity:0.10;stroke-linecap:butt"/><path d="m134.83 156.23.25 1.58.24 1.59.25 1.58.24 1.58.25 1.58.24 1.58.25 1.59.25 1.58.24 1.58.25 1.58.24 1.58.25 1.59.24 1.58.25 1.58.24 1.58.25 1.58.24 1.59.25 1.58.24 1.58.25 1.58.24 1.58.25 1.59.25 1.58.24 1.58.25 1.58.24 1.58.25 1.59.24 1.58.25 1.58.24 1.58.25 1.59.24 1.58.25 1.58.24 1.58.25 1.58.24 1.59.25 1.58.25 1.58.24 1.58.25 1.58.24 1.59.25 1.58.24 1.58.25 1.58.24 1.58.25 1.59.24 1.58.25 1.58.24 1.58.25 1.58.24 1.59.25 1.58.24 1.58.25 1.58.25 1.59.24 1.58.25 1.58.24 1.58.25 1.58.24 1.59.25 1.58.24 1.58.25 1.58.24 1.58.25 1.59.24 1.58.25 1.58.24 1.58.25 1.58.25 1.59.24 1.58.25 1.58.24 1.58.25 1.58.24 1.59.25 1.58.24 1.58.25 1.58.24 1.58.25 1.59.24 1.58.25 1.58.24 1.58.25 1.59.25 1.58.24 1.58.25 1.58.24 1.58.25 1.59.24 1.58.25 1.58.24 1.58.25 1.58.24 1.59.25 1.58.24 1.58.25 1.58.24 1.58.25 1.59" style="stroke-width:1.07;stroke:#000000;stroke-opacity:0.10;stroke-linecap:butt"/><path d="m275.75 330.28-1.17-.27-1.17-.27-1.17-.27-1.17-.27-1.17-.26-1.17-.27-1.17-.26-1.17-.26-1.17-.26-1.17-.25-1.17-.25-1.18-.26-1.17-.25-1.17-.24-1.17-.25-1.18-.24-1.17-.24-1.17-.24-1.17-.24-1.18-.24-1.17-.23-1.17-.23-1.18-.23-1.17-.23-1.18-.22-1.17-.23-1.17-.22-1.18-.22-1.17-.22-1.18-.21-1.17-.21-1.18-.22-1.17-.21-1.18-.2-1.17-.21-1.18-.2-1.18-.21-1.17-.2-1.18-.19-1.17-.2-1.18-.19-1.18-.19-1.17-.19-1.18-.19-1.18-.19-1.18-.18-1.17-.18-1.18-.18-1.18-.18-1.18-.18-1.18-.17-1.17-.17-1.18-.17-1.18-.17-1.18-.17-1.18-.16-1.18-.16-1.18-.16-1.18-.16-1.18-.16-1.18-.15-1.18-.16-1.18-.15-1.18-.14-1.18-.15-1.18-.14-1.18-.15-1.18-.14-1.18-.14-1.19-.13-1.18-.14-1.18-.13-1.18-.13-1.18-.13-1.19-.12-1.18-.13-1.18-.12-1.18-.12-1.19-.12-1.18-.12-1.18-.11-1.19-.11-1.18-.11-1.18-.11-1.19-.11-1.18-.1-1.19-.11-1.18-.1-1.18-.1-1.19-.09-1.18-.1-1.19-.09-1.18-.09-1.19-.09-1.19-.09-1.18-.08-1.19-.08-1.18-.08-1.19-.08m116.63 17.42 1.1.26 1.1.27 1.1.26 1.1.25 1.1.26 1.1.25 1.1.26 1.1.25 1.1.24 1.1.25 1.1.24 1.1.25 1.1.24 1.1.24 1.1.23 1.1.24 1.1.23 1.11.24 1.1.23 1.1.22 1.1.23 1.1.22 1.11.23 1.1.22 1.1.21 1.1.22 1.11.22 1.1.21 1.1.21 1.11.21 1.1.21 1.1.2 1.11.21 1.1.2 1.11.2 1.1.2 1.1.19 1.11.2 1.1.19 1.11.19 1.1.19 1.11.19 1.11.18 1.1.18 1.11.19 1.1.17 1.11.18 1.11.18 1.1.17 1.11.17 1.11.17 1.1.17 1.11.17 1.11.16 1.11.17 1.1.16 1.11.16 1.11.15 1.11.16 1.11.15 1.1.15 1.11.15 1.11.15 1.11.15 1.11.14 1.11.14 1.11.14 1.11.14 1.11.14 1.11.13 1.11.14 1.11.13 1.11.13 1.11.12 1.11.13 1.11.12 1.11.12 1.11.12 1.11.12 1.12.12 1.11.11 1.11.12 1.11.11 1.11.1 1.12.11 1.11.11 1.11.1 1.11.1 1.12.1 1.11.1 1.11.09 1.12.1 1.11.09 1.12.09 1.11.09 1.11.08 1.12.09 1.11.08 1.12.08" style="stroke-width:1.07;stroke:#000000;stroke-opacity:0.10;stroke-linecap:butt"/><path d="m275.75 330.28-1.18-.08-1.19-.08-1.18-.08-1.19-.09-1.19-.08-1.18-.09-1.19-.09-1.18-.1-1.19-.09-1.18-.1-1.19-.1-1.18-.1-1.19-.1-1.18-.1-1.18-.11-1.19-.11-1.18-.11-1.18-.11-1.19-.12-1.18-.11-1.18-.12-1.19-.12-1.18-.12-1.18-.13-1.18-.13-1.19-.12-1.18-.13-1.18-.14-1.18-.13-1.18-.14-1.18-.14-1.18-.14-1.19-.14-1.18-.14-1.18-.15-1.18-.15-1.18-.15-1.18-.15-1.18-.15-1.18-.16-1.18-.16-1.18-.16-1.18-.16-1.18-.16-1.17-.17-1.18-.17-1.18-.17-1.18-.17-1.18-.17-1.18-.18-1.17-.18-1.18-.18-1.18-.18-1.18-.18-1.17-.19-1.18-.19-1.18-.19-1.18-.19-1.17-.19-1.18-.2-1.17-.2-1.18-.2-1.18-.2-1.17-.2-1.18-.21-1.17-.21-1.18-.21-1.17-.21-1.18-.21-1.17-.22-1.18-.21-1.17-.22-1.18-.23-1.17-.22-1.18-.23-1.17-.22-1.17-.23-1.18-.23-1.17-.24-1.17-.23-1.18-.24-1.17-.24-1.17-.24-1.17-.24-1.18-.25-1.17-.25-1.17-.25-1.17-.25-1.17-.25-1.17-.26-1.18-.25-1.17-.26-1.17-.26-1.17-.27-1.17-.26-1.17-.27-1.17-.27-1.17-.27-1.17-.27m116.63 17.42 1.12.08 1.11.08 1.12.09 1.11.09 1.12.08 1.11.09 1.11.1 1.12.09 1.11.1 1.11.09 1.12.1 1.11.1 1.11.11 1.11.1 1.12.11 1.11.11 1.11.11 1.11.11 1.11.11 1.12.12 1.11.12 1.11.12 1.11.12 1.11.12 1.11.13 1.11.13 1.11.13 1.11.13 1.11.13 1.11.13 1.11.14 1.11.14 1.11.14 1.11.14 1.11.15 1.11.14 1.11.15 1.11.15 1.11.15 1.1.15 1.11.16 1.11.16 1.11.16 1.11.16 1.1.16 1.11.16 1.11.17 1.1.17 1.11.17 1.11.17 1.11.17 1.1.18 1.11.18 1.1.18 1.11.18 1.11.18 1.1.19 1.11.18 1.1.19 1.11.19 1.1.2 1.11.19 1.1.2 1.11.19 1.1.2 1.1.21 1.11.2 1.1.21 1.1.2 1.11.21 1.1.21 1.1.22 1.11.21 1.1.22 1.1.22 1.11.22 1.1.22 1.1.22 1.1.23 1.1.23 1.11.23 1.1.23 1.1.23 1.1.24 1.1.23 1.1.24 1.1.24 1.1.25 1.1.24 1.1.25 1.1.25 1.1.25 1.1.25 1.1.25 1.1.26 1.1.26 1.1.26 1.1.26 1.1.26" style="stroke-width:1.07;stroke:#000000;stroke-opacity:0.10;stroke-linecap:butt"/><path d="m275.75 330.28-1.2.12-1.2.11-1.2.1-1.2.1-1.2.09-1.2.08-1.2.08-1.2.08-1.2.07-1.2.06-1.2.05-1.19.05-1.2.05-1.2.04-1.19.03-1.2.02-1.19.02-1.2.02-1.19.01h-2.39l-1.19-.01-1.19-.02-1.19-.02-1.19-.03-1.19-.03-1.19-.04-1.19-.04-1.19-.06-1.19-.05-1.19-.07-1.18-.06-1.19-.08-1.19-.08-1.18-.09-1.19-.09-1.18-.1-1.18-.1-1.19-.11-1.18-.12-1.18-.12-1.19-.13-1.18-.14-1.18-.14-1.18-.14-1.18-.15-1.18-.16-1.18-.17-1.18-.17-1.18-.17-1.17-.18-1.18-.19-1.18-.2-1.17-.2-1.18-.2-1.17-.21-1.18-.22-1.17-.23-1.18-.22-1.17-.24-1.17-.24-1.17-.25-1.18-.25-1.17-.26-1.17-.27-1.17-.27-1.17-.28-1.17-.28-1.16-.29-1.17-.29-1.17-.3-1.17-.31-1.16-.31-1.17-.32-1.17-.33-1.16-.33-1.17-.33-1.16-.35-1.16-.34-1.17-.36-1.16-.36-1.16-.37-1.16-.37-1.16-.38-1.16-.38-1.16-.39-1.16-.4-1.16-.4-1.16-.41-1.16-.41-1.16-.42-1.15-.43-1.16-.43-1.16-.44-1.15-.44-1.16-.45-1.15-.45-1.16-.47-1.15-.46m116.63 17.42 1.13-.1 1.13-.1 1.13-.09 1.13-.08 1.13-.08 1.13-.08 1.13-.06 1.13-.07 1.12-.05 1.13-.05 1.12-.05 1.13-.04 1.12-.04 1.13-.02 1.12-.03 1.13-.02 1.12-.01 1.12-.01h1.12l1.12.01 1.12.01 1.13.01 1.12.02 1.11.03 1.12.03 1.12.04 1.12.04 1.12.05 1.11.06 1.12.06 1.12.06 1.11.08 1.12.07 1.11.09 1.12.08 1.11.1 1.11.1 1.11.1 1.12.11 1.11.12 1.11.12 1.11.13 1.11.13 1.11.14 1.11.14 1.11.15 1.11.16 1.1.16 1.11.17 1.11.17 1.1.18 1.11.18 1.1.19 1.11.19 1.1.2 1.11.21 1.1.21 1.1.22 1.11.22 1.1.23 1.1.23 1.1.24 1.1.24 1.1.25 1.1.26 1.1.26 1.1.27 1.09.27 1.1.28 1.1.28 1.1.29 1.09.3 1.1.3 1.09.3 1.1.31 1.09.32 1.09.32 1.1.33 1.09.34 1.09.34 1.09.34 1.09.35 1.09.36 1.09.36 1.09.37 1.09.37 1.09.38 1.09.38 1.09.39 1.08.4 1.09.4 1.09.41 1.08.41 1.09.42 1.08.42 1.09.43 1.08.44 1.08.44 1.09.44" style="stroke-width:1.07;stroke:#000000;stroke-opacity:0.10;stroke-linecap:butt"/><path d="m275.75 330.28-1.22.31-1.21.3-1.22.29-1.22.28-1.21.27-1.22.26-1.21.25-1.21.24-1.22.23-1.21.22-1.21.21-1.21.2-1.21.19-1.21.19-1.2.17-1.21.16-1.21.15-1.2.14-1.2.13-1.21.12-1.2.11-1.2.11-1.2.09-1.2.08-1.2.07-1.2.06-1.2.05-1.19.05-1.2.03-1.19.02-1.2.01-1.19.01-1.19-.01-1.19-.02-1.19-.03-1.19-.03-1.19-.05-1.19-.06-1.19-.06-1.18-.08-1.19-.09-1.19-.1-1.18-.1-1.18-.12-1.18-.12-1.19-.14-1.18-.15-1.18-.15-1.18-.17-1.17-.18-1.18-.18-1.18-.2-1.17-.2-1.18-.22-1.17-.22-1.17-.24-1.18-.25-1.17-.25-1.17-.27-1.17-.27-1.17-.29-1.17-.29-1.16-.31-1.17-.31-1.17-.33-1.16-.33-1.16-.34-1.17-.36-1.16-.36-1.16-.38-1.16-.38-1.16-.4-1.16-.4-1.16-.41-1.16-.43-1.15-.43-1.16-.45-1.15-.45-1.16-.46-1.15-.48-1.15-.48-1.15-.49-1.15-.51-1.15-.51-1.15-.52-1.15-.53-1.15-.55-1.14-.55-1.15-.56-1.14-.57-1.15-.59-1.14-.59-1.14-.6-1.15-.61-1.14-.63-1.14-.63-1.13-.64-1.14-.65-1.14-.66m116.63 17.42 1.15-.28 1.15-.28 1.14-.26 1.15-.26 1.14-.25 1.14-.23 1.14-.23 1.14-.22 1.14-.21 1.14-.2 1.14-.19 1.14-.19 1.14-.17 1.13-.16 1.14-.16 1.13-.14 1.14-.14 1.13-.12 1.13-.12 1.13-.11 1.13-.09 1.13-.09 1.13-.08 1.13-.07 1.12-.06 1.13-.05 1.13-.05 1.12-.03 1.13-.02 1.12-.02h2.24l1.12.02 1.12.02 1.12.03 1.12.04 1.12.05 1.11.07 1.12.06 1.11.08 1.12.09 1.11.1 1.11.11 1.11.11 1.12.13 1.11.13 1.1.15 1.11.15 1.11.16 1.11.17 1.1.19 1.11.19 1.1.2 1.11.21 1.1.21 1.1.23 1.1.24 1.1.25 1.1.25 1.1.27 1.1.27 1.09.29 1.1.29 1.1.3 1.09.31 1.09.32 1.1.33 1.09.34 1.09.35 1.09.36 1.09.37 1.09.38 1.09.38 1.08.4 1.09.4 1.09.42 1.08.42 1.08.43 1.09.44 1.08.46 1.08.46 1.08.47 1.08.48 1.08.48 1.08.5 1.08.51 1.07.52 1.08.52 1.07.54 1.08.54 1.07.56 1.07.56 1.07.57 1.08.58 1.07.59 1.06.6 1.07.61 1.07.62 1.07.63m-335.9 9.04 1.25.2 1.25.19 1.25.17 1.24.17 1.24.14 1.23.14 1.24.12 1.23.11 1.22.1 1.23.08 1.22.07 1.22.05 1.22.05 1.21.03 1.21.02h1.21l1.2-.01 1.2-.02 1.2-.03 1.2-.05 1.19-.06 1.19-.08 1.18-.08 1.19-.1 1.18-.12 1.18-.12 1.17-.14 1.17-.15 1.17-.17 1.17-.18 1.16-.19 1.16-.2 1.16-.22 1.16-.23 1.15-.25 1.15-.25 1.14-.27 1.15-.28 1.14-.3 1.13-.31 1.14-.32 1.13-.34 1.13-.34 1.12-.36 1.12-.38 1.12-.39 1.12-.4 1.12-.41 1.11-.43 1.1-.43 1.11-.46 1.1-.46 1.1-.48 1.1-.49 1.09-.51 1.09-.52 1.09-.53 1.08-.54 1.09-.56 1.07-.57 1.08-.58 1.07-.6 1.07-.6 1.07-.63 1.07-.63 1.06-.65 1.06-.66 1.05-.68 1.05-.68 1.05-.7 1.05-.72 1.04-.72 1.05-.74 1.03-.76 1.04-.76 1.03-.78 1.03-.79 1.03-.81 1.02-.81 1.02-.84 1.02-.84 1.01-.86 1.02-.87 1-.88 1.01-.9 1-.91 1-.92 1-.93 1-.95.99-.96.99-.98.98-.99.98-1 .98-1.01.98-1.03.98-1.04.97-1.05.96-1.06.97-1.08" style="stroke-width:1.07;stroke:#000000;stroke-opacity:0.10;stroke-linecap:butt"/><path d="m49.42 356.35 1.21.02 1.21.01h1.21l1.2-.01 1.2-.02 1.2-.03 1.2-.04 1.19-.05 1.2-.06 1.19-.06 1.19-.08 1.19-.08 1.18-.1 1.18-.1 1.18-.11 1.18-.13 1.18-.13 1.17-.14 1.18-.15 1.17-.16 1.17-.17 1.16-.18 1.17-.18 1.16-.2 1.16-.21 1.16-.21 1.15-.23 1.16-.23 1.15-.24 1.15-.26 1.15-.26 1.14-.27 1.14-.28 1.15-.29 1.14-.3 1.13-.31 1.14-.32 1.13-.33 1.13-.33 1.13-.35 1.13-.35 1.12-.37 1.12-.37 1.12-.39 1.12-.39 1.12-.4 1.11-.41 1.12-.42 1.11-.43 1.1-.44 1.11-.45 1.1-.46 1.11-.47 1.1-.47 1.09-.49 1.1-.5 1.09-.5 1.09-.51 1.09-.53 1.09-.53 1.09-.54 1.08-.55 1.08-.56 1.08-.57 1.08-.58 1.07-.59 1.07-.6 1.07-.61 1.07-.61 1.07-.63 1.06-.63 1.07-.65 1.06-.65 1.05-.67 1.06-.67 1.05-.68 1.06-.69 1.05-.7 1.04-.71 1.05-.72 1.04-.73 1.04-.74 1.04-.74 1.04-.76 1.04-.77 1.03-.77 1.03-.78 1.03-.8 1.03-.8 1.02-.81 1.02-.83 1.02-.83 1.02-.84 1.02-.85 1.01-.85 1.02-.87 1.01-.88 1-.89 1.01-.89" style="stroke-width:1.07;stroke:#000000;stroke-opacity:0.10;stroke-linecap:butt"/><path d="m49.42 356.35 1.17-.16 1.17-.17 1.17-.18 1.16-.18 1.17-.19 1.16-.19 1.16-.2 1.16-.21 1.16-.21 1.16-.21 1.16-.22 1.15-.23 1.16-.23 1.15-.24 1.15-.24 1.15-.25 1.15-.26 1.15-.26 1.14-.26 1.15-.27 1.14-.28 1.15-.28 1.14-.29 1.14-.3 1.14-.3 1.14-.3 1.13-.31 1.14-.32 1.13-.32 1.14-.33 1.13-.33 1.13-.34 1.13-.34 1.13-.35 1.12-.36 1.13-.36 1.12-.37 1.13-.37 1.12-.38 1.12-.38 1.12-.39 1.12-.39 1.11-.4 1.12-.41 1.11-.41 1.12-.42 1.11-.42 1.11-.43 1.11-.43 1.1-.44 1.11-.45 1.11-.45 1.1-.45 1.1-.47 1.11-.46 1.1-.48 1.1-.47 1.09-.49 1.1-.49 1.1-.49 1.09-.5 1.09-.51 1.1-.51 1.09-.52 1.09-.52 1.08-.53 1.09-.54 1.09-.54 1.08-.54 1.08-.55 1.09-.56 1.08-.56 1.08-.57 1.07-.58 1.08-.57 1.08-.59 1.07-.59 1.07-.6 1.08-.6 1.07-.6 1.07-.62 1.06-.62 1.07-.62 1.07-.63 1.06-.63 1.06-.64 1.06-.65 1.07-.65 1.05-.66 1.06-.66 1.06-.67 1.06-.68 1.05-.68 1.05-.68 1.05-.69 1.06-.7 1.04-.7 1.05-.71 1.05-.71" style="stroke-width:1.07;stroke:#000000;stroke-opacity:0.10;stroke-linecap:butt"/><path d="m49.42 356.35 1.13-.34 1.13-.35 1.13-.36 1.12-.35 1.13-.36 1.13-.35 1.12-.36 1.13-.36 1.12-.37 1.13-.36 1.12-.37 1.13-.37 1.12-.37 1.12-.37 1.13-.37 1.12-.38 1.12-.38 1.12-.38 1.12-.38 1.12-.38 1.12-.39 1.12-.38 1.12-.39 1.12-.39 1.12-.4 1.12-.39 1.11-.4 1.12-.4 1.12-.4 1.11-.4 1.12-.4 1.12-.41 1.11-.41 1.12-.4 1.11-.42 1.11-.41 1.12-.41 1.11-.42 1.11-.42 1.12-.42 1.11-.42 1.11-.43 1.11-.42 1.11-.43 1.11-.43 1.11-.43 1.11-.44 1.11-.43 1.11-.44 1.1-.44 1.11-.44 1.11-.45 1.11-.44 1.1-.45 1.11-.45 1.1-.45 1.11-.45 1.1-.45 1.11-.46 1.1-.46 1.11-.46 1.1-.46 1.1-.46 1.1-.47 1.11-.46 1.1-.47 1.1-.48 1.1-.47 1.1-.47 1.1-.48 1.1-.48 1.1-.48 1.1-.48 1.09-.48 1.1-.49 1.1-.49 1.1-.49 1.09-.49 1.1-.49 1.09-.5 1.1-.5 1.09-.49 1.1-.51 1.09-.5 1.09-.5 1.1-.51 1.09-.51 1.09-.51 1.09-.51 1.1-.51 1.09-.52 1.09-.52 1.09-.52 1.09-.52 1.09-.52 1.09-.53 1.08-.52 1.09-.53 1.09-.53m-109.7 43.49 1.09-.53 1.09-.53 1.09-.52 1.09-.53 1.08-.52 1.09-.52 1.09-.52 1.1-.52 1.09-.52 1.09-.51 1.09-.51 1.09-.51 1.09-.51 1.1-.51 1.09-.5 1.09-.5 1.1-.51 1.09-.49 1.1-.5 1.09-.5 1.1-.49 1.1-.49 1.09-.49 1.1-.49 1.1-.49 1.1-.48 1.1-.48 1.09-.48 1.1-.48 1.1-.48 1.1-.47 1.1-.48 1.1-.47 1.11-.47 1.1-.46 1.1-.47 1.1-.46 1.11-.46 1.1-.46 1.1-.46 1.11-.46 1.1-.45 1.11-.45 1.1-.46 1.11-.44 1.11-.45 1.1-.45 1.11-.44 1.11-.44 1.11-.44 1.1-.44 1.11-.43 1.11-.44 1.11-.43 1.11-.43 1.11-.43 1.11-.42 1.11-.43 1.12-.42 1.11-.42 1.11-.42 1.11-.42 1.12-.41 1.11-.41 1.12-.42 1.11-.41 1.12-.4 1.11-.41 1.12-.4 1.11-.41 1.12-.4 1.12-.39 1.12-.4 1.11-.39 1.12-.4 1.12-.39 1.12-.39 1.12-.38 1.12-.39 1.12-.38 1.12-.38 1.12-.38 1.12-.38 1.13-.38 1.12-.37 1.12-.37 1.13-.37 1.12-.37 1.12-.37 1.13-.36 1.12-.37 1.13-.36 1.13-.36 1.12-.36 1.13-.35 1.13-.35 1.12-.36 1.13-.35 1.13-.34" style="stroke-width:1.07;stroke:#000000;stroke-opacity:0.10;stroke-linecap:butt"/><path d="m49.42 356.35 1.05-.71 1.05-.71 1.05-.7 1.05-.7 1.05-.69 1.05-.68 1.06-.68 1.05-.68 1.06-.67 1.06-.66 1.06-.66 1.06-.65 1.06-.65 1.06-.64 1.07-.63 1.06-.63 1.07-.63 1.07-.61 1.07-.62 1.07-.6 1.07-.61 1.07-.59 1.08-.59 1.07-.59 1.08-.58 1.08-.57 1.08-.57 1.08-.56 1.08-.56 1.08-.55 1.09-.54 1.08-.54 1.09-.54 1.09-.53 1.09-.52 1.09-.52 1.09-.51 1.09-.51 1.1-.5 1.09-.49 1.1-.49 1.1-.49 1.1-.48 1.1-.47 1.1-.47 1.1-.46 1.11-.45 1.1-.45 1.11-.45 1.11-.44 1.1-.43 1.12-.43 1.11-.42 1.11-.42 1.11-.41 1.12-.41 1.12-.4 1.11-.39 1.12-.39 1.12-.38 1.13-.38 1.12-.37 1.12-.37 1.13-.36 1.13-.36 1.12-.35 1.13-.34 1.13-.34 1.14-.33 1.13-.33 1.13-.32 1.14-.32 1.14-.31 1.13-.3 1.14-.3 1.14-.3 1.15-.29 1.14-.28 1.14-.28 1.15-.27 1.14-.26 1.15-.26 1.15-.26 1.15-.25 1.15-.24 1.16-.24 1.15-.23 1.16-.23 1.15-.22 1.16-.22 1.16-.21 1.16-.2 1.16-.2 1.17-.19 1.16-.19 1.17-.18 1.16-.18 1.17-.17 1.17-.16" style="stroke-width:1.07;stroke:#000000;stroke-opacity:0.10;stroke-linecap:butt"/><path d="m49.42 356.35 1.01-.89 1.01-.89 1.01-.88 1.01-.87 1.01-.85 1.02-.85 1.02-.84 1.02-.84 1.02-.82 1.03-.81 1.02-.8 1.03-.8 1.03-.78 1.04-.78 1.03-.76 1.04-.76 1.04-.74 1.04-.74 1.04-.73 1.05-.72 1.05-.71 1.05-.7 1.05-.69 1.05-.68 1.06-.68 1.06-.66 1.06-.65 1.06-.65 1.06-.63 1.07-.63 1.07-.61 1.07-.61 1.07-.6 1.08-.59 1.07-.58 1.08-.57 1.08-.56 1.09-.55 1.08-.54 1.09-.53 1.09-.53 1.09-.51 1.09-.51 1.1-.49 1.1-.49 1.1-.47 1.1-.47 1.1-.46 1.11-.45 1.11-.44 1.11-.43 1.11-.42 1.11-.41 1.12-.4 1.12-.39 1.12-.39 1.12-.37 1.13-.37 1.12-.35 1.13-.35 1.13-.33 1.13-.33 1.14-.32 1.14-.31 1.14-.3 1.14-.29 1.14-.28 1.15-.27 1.14-.26 1.15-.26 1.16-.24 1.15-.23 1.16-.23 1.15-.21 1.16-.21 1.17-.2 1.16-.19 1.17-.17 1.16-.17 1.18-.16 1.17-.15 1.17-.14 1.18-.14 1.18-.12 1.18-.11 1.18-.1 1.19-.1 1.18-.08 1.19-.08 1.19-.07 1.2-.05 1.19-.05 1.2-.04 1.2-.03 1.2-.02 1.21-.01h1.2l1.21.01 1.21.02" style="stroke-width:1.07;stroke:#000000;stroke-opacity:0.10;stroke-linecap:butt"/><path d="m49.42 356.35.97-1.08.97-1.06.97-1.05.97-1.04.98-1.03.98-1.02.98-1 .99-.98.98-.98 1-.96.99-.95 1-.93 1-.93 1-.9 1.01-.9 1.01-.88 1.01-.87 1.01-.86 1.02-.85 1.02-.83 1.03-.81 1.02-.81 1.03-.79 1.03-.78 1.04-.77 1.04-.75 1.04-.74 1.04-.72 1.05-.72 1.05-.7 1.05-.69 1.06-.67 1.06-.66 1.06-.65 1.06-.63 1.07-.63 1.07-.61 1.07-.59 1.08-.58 1.08-.57 1.08-.56 1.08-.54 1.09-.54 1.09-.51 1.09-.51 1.1-.49 1.1-.48 1.1-.46 1.11-.46 1.11-.44 1.11-.42 1.11-.41 1.12-.41 1.12-.38 1.12-.38 1.13-.36 1.12-.35 1.14-.33 1.13-.32 1.14-.31 1.14-.3 1.14-.28 1.15-.27 1.14-.26 1.16-.24 1.15-.23 1.16-.22 1.16-.2 1.16-.19 1.17-.18 1.17-.17 1.17-.15 1.18-.14 1.17-.12 1.18-.12 1.19-.1 1.18-.08 1.19-.08 1.2-.06 1.19-.05 1.2-.03 1.2-.02 1.21-.01h1.2l1.21.02 1.22.03 1.21.04 1.22.06 1.22.07 1.23.08 1.22.1 1.24.11 1.23.12 1.23.14 1.24.14 1.25.16 1.24.18 1.25.19 1.25.2" style="stroke-width:1.07;stroke:#000000;stroke-opacity:0.10;stroke-linecap:butt"/><path d="m113.13 454.16 1.92 3.31h-3.83zm162.62-133.1 7.99 13.83h-15.97zM134.83 154.02l1.92 3.32h-3.83z" style="stroke-width:0.71;stroke:none;fill:#00BA38"/><path d="M48 357.77h2.84v-2.84H48z" style="stroke-width:0.71;stroke:none;fill:#619CFF"/><circle cx="159.12" cy="312.86" r="6.76" style="stroke-width:0.71;stroke:none;fill:#F8766D"/><path d="M379.39 353.24h11.86v-11.86h-11.86z" style="stroke-width:0.71;stroke:none;fill:#619CFF"/><path d="m117.92 451.67-3.97 3.9M271 334.95l3.94-3.87M139.53 152.8l-3.76 2.75M54.23 356.32l-3.6.03m113.45-48.15-4.13 3.87" style="stroke-width:0.53;stroke:#BFBFBF"/><path d="M96.43 451.67h56.59-.09l.35-.01.34-.07.33-.12.3-.18.27-.22.23-.26.18-.29.14-.32.08-.34.03-.35h0v-6.96h0l-.03-.34-.08-.34-.14-.32-.18-.3-.23-.26-.27-.22-.3-.17-.33-.12-.34-.07-.26-.02H96.43l.26.02-.34-.02-.35.05-.33.09-.32.15-.28.2-.25.24-.21.28-.16.31-.11.33-.06.34-.01.17v6.96l.01-.17v.35l.06.34.11.33.16.31.21.28.25.24.28.2.32.14.33.1.35.04z" style="stroke-width:0.53;fill:#FFFFFF;fill-opacity:0.50"/><text x="124.73" y="448.07" lengthAdjust="spacingAndGlyphs" style="font-size:5.69px;font-family:Arial" text-anchor="middle" textLength="53.7">ABUKHAMIREH LLC</text><path d="M233.59 346.23h61.32-.09l.35-.02.34-.07.32-.12.31-.17.27-.22.23-.26.18-.3.14-.32.08-.34.03-.34h0v-6.96h0l-.03-.35-.08-.34-.14-.32-.18-.29-.23-.26-.27-.22-.31-.18-.32-.12-.34-.07-.26-.01h-61.32l.26.01-.34-.01-.35.04-.33.1-.32.14-.28.2-.25.24-.21.28-.16.31-.11.33-.06.34-.01.18v6.96l.01-.18v.35l.06.34.11.33.16.31.21.28.25.24.28.2.32.15.33.09.35.05z" style="stroke-width:0.53;fill:#FFFFFF;fill-opacity:0.50"/><text x="264.25" y="342.63" lengthAdjust="spacingAndGlyphs" style="font-size:5.69px;font-family:Arial" text-anchor="middle" textLength="58.44">ABUKHAMIREH II LLC</text><path d="M141.69 156.13h45.21-.08l.34-.02.34-.07.33-.12.3-.17.27-.22.23-.26.19-.3.13-.32.09-.34.02-.34h0v-6.96h0l-.02-.35-.09-.34-.13-.32-.19-.29-.23-.26-.27-.22-.3-.18-.33-.12-.34-.07-.26-.01h-45.21l.26.01-.34-.01-.35.04-.33.1-.32.14-.28.2-.25.24-.21.28-.16.31-.11.33-.06.34-.01.18v6.96l.01-.18v.35l.06.34.11.33.16.31.21.28.25.24.28.2.32.15.33.09.35.05z" style="stroke-width:0.53;fill:#FFFFFF;fill-opacity:0.50"/><text x="164.3" y="152.53" lengthAdjust="spacingAndGlyphs" style="font-size:5.69px;font-family:Arial" text-anchor="middle" textLength="42.33">AZIZA HINNAWI</text><path d="M56.39 366.06h58.48-.09l.35-.01.34-.07.33-.13.3-.17.27-.22.23-.26.18-.3.14-.31.08-.34.03-.35h0v-15.16h0l-.03-.34-.08-.34-.14-.32-.18-.29-.23-.26-.27-.22-.3-.18-.33-.12-.34-.07-.26-.02H56.39l.26.02-.34-.01-.35.04-.33.09-.32.15-.28.2-.25.24-.21.28-.16.31-.11.33-.06.34-.01.17v15.16l.01-.17v.34l.06.35.11.33.16.31.21.27.25.24.28.2.32.15.33.1.35.04z" style="stroke-width:0.53;fill:#FFFFFF;fill-opacity:0.50"/><text x="85.63" y="354.27" lengthAdjust="spacingAndGlyphs" style="font-size:5.69px;font-family:Arial" text-anchor="middle" textLength="54.65">7006 S CARMEL DR,</text><text x="85.63" y="362.46" lengthAdjust="spacingAndGlyphs" style="font-size:5.69px;font-family:Arial" text-anchor="middle" textLength="55.6">FRANKLIN, WI 53132</text><path d="M145.98 308.2h58.48l-.09-.01.35-.01.34-.07.33-.12.3-.18.27-.22.23-.26.18-.29.14-.32.08-.34.03-.34h0v-15.16h0l-.03-.35-.08-.34-.14-.31-.18-.3-.23-.26-.27-.22-.3-.17-.33-.13-.34-.07-.26-.01h-58.48l.26.01-.34-.01-.35.04-.33.1-.32.15-.28.2-.25.24-.21.27-.16.31-.11.33-.06.35-.01.17v15.16l.01-.18v.35l.06.34.11.33.16.31.21.28.25.24.28.2.32.15.33.09.35.04z" style="stroke-width:0.53;fill:#FFFFFF;fill-opacity:0.50"/><text x="175.22" y="296.4" lengthAdjust="spacingAndGlyphs" style="font-size:5.69px;font-family:Arial" text-anchor="middle" textLength="54.65">7006 S CARMEL DR,</text><text x="175.22" y="304.6" lengthAdjust="spacingAndGlyphs" style="font-size:5.69px;font-family:Arial" text-anchor="middle" textLength="55.6">FRANKLIN, WI 53132</text><path d="M313.91 357.05h64.5-.09l.35-.01.34-.07.32-.13.3-.17.27-.22.23-.26.19-.29.13-.32.09-.34.03-.35h0v-15.15h0l-.03-.35-.09-.34-.13-.32-.19-.29-.23-.26-.27-.22-.3-.18-.32-.12-.34-.07-.26-.01h-64.5l.27.01-.35-.01-.35.04-.33.1-.32.15-.28.19-.25.24-.21.28-.16.31-.11.33-.06.34-.01.18v15.15l.01-.17v.35l.06.34.11.33.16.31.21.27.25.25.28.19.32.15.33.1.35.04z" style="stroke-width:0.53;fill:#FFFFFF;fill-opacity:0.50"/><text x="346.16" y="345.26" lengthAdjust="spacingAndGlyphs" style="font-size:5.69px;font-family:Arial" text-anchor="middle" textLength="61.61">3041 N OAKLAND AVE,</text><text x="346.16" y="353.45" lengthAdjust="spacingAndGlyphs" style="font-size:5.69px;font-family:Arial" text-anchor="middle" textLength="61.61">MILWAUKEE, WI 53211</text></g><g clip-path="url(#cpMC4wMHw0MzIuMDB8MC4wMHw1MDQuMDA=)"><circle cx="124.98" cy="116.15" r="1.95" style="stroke-width:0.71;stroke:none;fill:#F8766D"/><path d="m201.33 113.11 2.63 4.56h-5.26z" style="stroke-width:0.71;stroke:none;fill:#00BA38"/><path d="M267.31 118.1h3.91v-3.91h-3.91z" style="stroke-width:0.71;stroke:none;fill:#619CFF"/><text x="139.09" y="119.3" lengthAdjust="spacingAndGlyphs" style="font-size:8.80px;font-family:Arial Narrow" textLength="48.12">mprop address</text><text x="215.45" y="119.3" lengthAdjust="spacingAndGlyphs" style="font-size:8.80px;font-family:Arial Narrow" textLength="39.69">owner name</text><text x="283.38" y="119.3" lengthAdjust="spacingAndGlyphs" style="font-size:8.80px;font-family:Arial Narrow" textLength="40.5">wdfi address</text><text x="32.63" y="84.56" lengthAdjust="spacingAndGlyphs" style="font-size:12.00px;font-family:Arial Narrow" textLength="246.76">includes 8 parcels, 20 units, and 3 distinct owner names.</text><text x="32.63" y="42.78" lengthAdjust="spacingAndGlyphs" style="font-size:18.00px;font-weight:bold;font-family:Arial Narrow" textLength="332.29">ABUKHAMIREH II LLC -- ABUKHAMIREH LLC --</text><text x="32.63" y="62.22" lengthAdjust="spacingAndGlyphs" style="font-size:18.00px;font-weight:bold;font-family:Arial Narrow" textLength="159.34">AZIZA HINNAWI Group</text></g></svg>