<svg xmlns="http://www.w3.org/2000/svg" width="768" height="768" class="svglite" viewBox="0 0 576 576"><defs><style><![CDATA[.svglite line,.svglite polyline,.svglite polygon,.svglite path,.svglite circle{fill:none;stroke:#000000;stroke-linecap:round;stroke-linejoin:round;stroke-miterlimit:10.00}.svglite text{white-space:pre}]]></style></defs><rect width="100%" height="100%" style="stroke-linecap:round;stroke-linejoin:round;stroke-miterlimit:10.00;stroke:none;fill:#FFFFFF"/><defs><clipPath id="cpMC4wMHw1NzYuMDB8MC4wMHw1NzYuMDA="><path d="M0 0h576v576H0z"/></clipPath></defs><g clip-path="url(#cpMC4wMHw1NzYuMDB8MC4wMHw1NzYuMDA=)"><path d="M0 0h576v576H0z" style="stroke-width:1.07;stroke:none;fill:#FFFFFF"/></g><defs><clipPath id="cpMzIuNjN8NTQ2LjExfDEyMC44Nnw1NDMuMzc="><path d="M32.63 120.86h513.48v422.51H32.63z"/></clipPath></defs><g clip-path="url(#cpMzIuNjN8NTQ2LjExfDEyMC44Nnw1NDMuMzc=)"><path d="m278.44 385.79 1.28-.96 1.26-.96 1.26-.96 1.26-.97 1.25-.97 1.24-.97 1.24-.98 1.23-.99 1.22-.98 1.22-1 1.21-.99 1.21-1 1.2-1.01 1.2-1.01 1.19-1.01 1.19-1.01 1.17-1.03 1.18-1.02 1.17-1.03 1.16-1.03 1.15-1.04 1.15-1.04 1.15-1.05 1.13-1.05 1.14-1.05 1.12-1.06 1.12-1.06 1.12-1.07 1.11-1.07 1.1-1.08 1.1-1.07 1.09-1.09 1.09-1.09 1.08-1.09 1.07-1.09 1.07-1.1 1.06-1.11 1.06-1.1 1.05-1.12 1.04-1.11 1.04-1.12 1.04-1.13 1.03-1.13 1.02-1.13 1.01-1.14 1.01-1.14 1.01-1.14 1-1.15.99-1.16.99-1.15.98-1.17.97-1.16.97-1.17.97-1.18.96-1.18.95-1.18.94-1.19.94-1.19.94-1.19.93-1.2.92-1.2.92-1.21.91-1.21.91-1.22.9-1.22.89-1.22.89-1.23.88-1.23.88-1.24.87-1.24.86-1.25.86-1.25.86-1.25.84-1.26.85-1.26.83-1.26.83-1.27.83-1.28.82-1.27.81-1.29.81-1.28.8-1.29.79-1.3.79-1.3.79-1.3.77-1.31.78-1.31.76-1.31.76-1.32.76-1.33.75-1.32.74-1.34.74-1.33.73-1.34.72-1.35.72-1.35.72-1.35.71-1.36.7-1.36m-97.73 114.63-1.44-.53-1.43-.52-1.44-.5-1.44-.49-1.44-.48-1.44-.47-1.43-.45-1.44-.45-1.44-.43-1.43-.42-1.44-.41-1.43-.4-1.43-.38-1.44-.37-1.43-.37-1.43-.34-1.43-.34-1.43-.33-1.43-.31-1.43-.3-1.43-.29-1.43-.28-1.43-.27-1.42-.25-1.43-.24-1.43-.23-1.42-.22-1.43-.21-1.42-.19-1.43-.19-1.42-.17-1.42-.16-1.43-.14-1.42-.14-1.42-.12-1.42-.12-1.42-.1-1.42-.08-1.42-.08-1.42-.06-1.42-.06-1.41-.04-1.42-.02-1.42-.02-1.41-.01-1.42.01-1.41.02-1.42.03-1.41.04-1.41.06-1.42.06-1.41.08-1.41.09-1.41.1-1.41.12-1.41.12-1.41.14-1.41.15-1.41.16-1.41.18-1.4.18-1.41.2-1.41.21-1.4.22-1.41.23-1.4.24-1.41.26-1.4.27-1.4.28-1.4.29-1.41.3-1.4.32-1.4.33-1.4.34-1.4.35-1.4.36-1.39.38-1.4.38-1.4.4-1.4.41-1.39.43-1.4.43-1.39.45-1.4.46-1.39.47-1.39.48-1.4.49-1.39.51-1.39.51-1.39.53-1.39.55-1.39.55-1.39.56-1.39.58-1.39.59-1.39.6-1.39.61-1.38.63-1.39.63" style="stroke-width:1.07;stroke:#000000;stroke-opacity:0.10;stroke-linecap:butt"/><path d="m278.44 385.79 1.16-1.04 1.16-1.04 1.15-1.04 1.15-1.04 1.14-1.05 1.14-1.05 1.14-1.05 1.13-1.05 1.13-1.06 1.13-1.05 1.12-1.07 1.12-1.06 1.12-1.06 1.11-1.07 1.11-1.07 1.1-1.08 1.11-1.07 1.09-1.08 1.1-1.08 1.09-1.08 1.09-1.09 1.08-1.09 1.08-1.09 1.08-1.09 1.08-1.1 1.07-1.1 1.06-1.1 1.07-1.1 1.06-1.1 1.06-1.11 1.05-1.11 1.05-1.12 1.05-1.11 1.04-1.12 1.04-1.12 1.03-1.12 1.04-1.13 1.02-1.13 1.03-1.13 1.02-1.13 1.02-1.14 1.02-1.13 1.01-1.14 1.01-1.15 1-1.14 1-1.15 1-1.15.99-1.15.99-1.16.99-1.16.98-1.16.98-1.16.98-1.16.97-1.17.97-1.17.97-1.18.96-1.17.96-1.18.96-1.18.95-1.18.95-1.19.94-1.18.95-1.19.93-1.2.94-1.19.93-1.2.93-1.2.92-1.2.92-1.21.92-1.2.91-1.21.91-1.22.91-1.21.9-1.22.9-1.22.9-1.22.89-1.23.89-1.23.89-1.23.88-1.23.88-1.23.88-1.24.87-1.24.87-1.24.86-1.25.86-1.24.86-1.25.86-1.26.85-1.25.85-1.26.84-1.26.84-1.26.84-1.27.83-1.26.83-1.27.83-1.28.82-1.27.82-1.28.82-1.28m-97.73 114.63-1.43-.41-1.43-.41-1.44-.39-1.43-.38-1.43-.37-1.44-.37-1.43-.35-1.43-.34-1.43-.34-1.43-.33-1.43-.31-1.43-.31-1.43-.29-1.43-.29-1.43-.28-1.43-.27-1.42-.26-1.43-.25-1.43-.24-1.42-.23-1.43-.22-1.43-.21-1.42-.2-1.43-.19-1.42-.19-1.42-.17-1.43-.16-1.42-.16-1.42-.14-1.42-.14-1.43-.13-1.42-.11-1.42-.11-1.42-.1-1.42-.08-1.42-.08-1.42-.07-1.41-.06-1.42-.05-1.42-.04-1.42-.03-1.41-.02-1.42-.02h-1.42l-1.41.01-1.42.02-1.41.02-1.41.04-1.42.04-1.41.06-1.41.06-1.42.07-1.41.09-1.41.09-1.41.1-1.41.11-1.41.12-1.41.13-1.41.14-1.41.15-1.41.16-1.4.17-1.41.18-1.41.19-1.41.19-1.4.21-1.41.22-1.4.22-1.41.24-1.4.24-1.41.26-1.4.26-1.4.27-1.41.28-1.4.3-1.4.3-1.4.31-1.4.32-1.4.33-1.4.34-1.4.35-1.4.36-1.4.36-1.4.38-1.4.39-1.39.39-1.4.41-1.4.42-1.39.42-1.4.44-1.39.44-1.4.45-1.39.47-1.4.47-1.39.48-1.39.49-1.4.5-1.39.51-1.39.52" style="stroke-width:1.07;stroke:#000000;stroke-opacity:0.10;stroke-linecap:butt"/><path d="m522.77 249.4-1.48.22-1.48.22-1.48.22-1.48.22-1.48.22-1.48.21-1.48.22-1.48.22-1.49.22-1.48.22-1.48.22-1.48.22-1.48.22-1.48.22-1.48.22-1.48.22-1.48.22-1.48.22-1.48.22-1.49.22-1.48.22-1.48.22-1.48.22-1.48.22-1.48.22-1.48.22-1.48.22-1.48.22-1.48.22-1.48.22-1.48.22-1.49.22-1.48.22-1.48.22-1.48.22-1.48.22-1.48.22-1.48.22-1.48.22-1.48.22-1.48.22-1.48.22-1.48.22-1.49.22-1.48.22-1.48.22-1.48.22-1.48.22-1.48.22-1.48.22-1.48.22-1.48.22-1.48.22-1.48.22-1.48.22-1.49.22-1.48.22-1.48.22-1.48.22-1.48.22-1.48.22-1.48.22-1.48.22-1.48.22-1.48.22-1.48.22-1.49.22-1.48.22-1.48.22-1.48.22-1.48.22-1.48.22-1.48.22-1.48.22-1.48.22-1.48.22-1.48.22-1.48.22-1.49.22-1.48.22-1.48.22-1.48.22-1.48.22-1.48.22-1.48.21-1.48.22-1.48.22-1.48.22-1.48.22-1.48.22-1.49.22-1.48.22-1.48.22-1.48.22-1.48.22-1.48.22-1.48.22-1.48.22-1.48.22" style="stroke-width:1.07;stroke:#000000;stroke-opacity:0.10;stroke-linecap:butt"/><path d="m278.44 385.79 1.05-1.12 1.04-1.12 1.04-1.12 1.04-1.12 1.04-1.12 1.04-1.12 1.04-1.12 1.03-1.12 1.04-1.13 1.03-1.12 1.04-1.13 1.03-1.12 1.03-1.13 1.03-1.13 1.02-1.13 1.03-1.13 1.03-1.13 1.02-1.13 1.02-1.13 1.02-1.13 1.03-1.14 1.02-1.13 1.01-1.14 1.02-1.13 1.02-1.14 1.01-1.14 1.02-1.14 1.01-1.14 1.01-1.14 1.01-1.14 1.01-1.14 1.01-1.14 1-1.15 1.01-1.14 1-1.15 1.01-1.14 1-1.15 1-1.15 1-1.15 1-1.15 1-1.15.99-1.15 1-1.15.99-1.15 1-1.16.99-1.15.99-1.16.99-1.15.99-1.16.98-1.16.99-1.16.98-1.16.99-1.16.98-1.16.98-1.16.98-1.16.98-1.17.98-1.16.97-1.17.98-1.16.97-1.17.98-1.17.97-1.17.97-1.16.97-1.17.97-1.18.97-1.17.96-1.17.97-1.17.96-1.18.96-1.17.97-1.18.96-1.18.96-1.17.95-1.18.96-1.18.96-1.18.95-1.18.95-1.19.96-1.18.95-1.18.95-1.19.95-1.18.94-1.19.95-1.18.94-1.19.95-1.19.94-1.19.94-1.19.94-1.19.94-1.19.94-1.2.94-1.19.94-1.19.93-1.2.93-1.19.94-1.2.93-1.2.93-1.2m-97.73 114.63-1.42-.3-1.43-.29-1.43-.28-1.43-.27-1.43-.26-1.43-.26-1.42-.26-1.43-.24-1.43-.24-1.42-.23-1.43-.22-1.43-.22-1.42-.21-1.43-.2-1.42-.19-1.42-.19-1.43-.18-1.42-.18-1.43-.16-1.42-.16-1.42-.15-1.42-.15-1.43-.14-1.42-.13-1.42-.12-1.42-.12-1.42-.11-1.42-.1-1.42-.09-1.42-.09-1.42-.08-1.42-.08-1.42-.06-1.42-.06-1.41-.05-1.42-.05-1.42-.04-1.42-.03-1.41-.02-1.42-.02-1.42-.01h-2.83l-1.41.02-1.42.01-1.41.03-1.42.03-1.41.04-1.41.05-1.42.06-1.41.06-1.41.07-1.41.07-1.42.08-1.41.09-1.41.1-1.41.11-1.41.11-1.41.12-1.41.12-1.41.14-1.41.14-1.41.14-1.41.16-1.41.16-1.4.17-1.41.17-1.41.18-1.4.19-1.41.2-1.41.21-1.4.21-1.41.22-1.4.22-1.41.23-1.4.24-1.41.25-1.4.25-1.41.27-1.4.26-1.4.28-1.41.28-1.4.29-1.4.3-1.4.3-1.4.31-1.4.32-1.4.33-1.4.33-1.4.34-1.4.34-1.4.36-1.4.36-1.4.37-1.4.37-1.4.38-1.4.39-1.39.4-1.4.4M55.97 210.13l1.21.71 1.22.71 1.22.71 1.21.71 1.22.71 1.22.71 1.21.71 1.22.71 1.22.71 1.21.71 1.22.71 1.22.71 1.21.71 1.22.71 1.22.71 1.21.71 1.22.71 1.22.71 1.21.71 1.22.71 1.22.71 1.21.71 1.22.71 1.22.71 1.21.71 1.22.71 1.22.71 1.21.71 1.22.71 1.22.71 1.21.71 1.22.71 1.22.71 1.21.71 1.22.71 1.22.71 1.21.71 1.22.71 1.22.71 1.21.71 1.22.71 1.22.71 1.21.71 1.22.71 1.22.71 1.21.71 1.22.71 1.22.71 1.21.71 1.22.71 1.22.71 1.21.71 1.22.71 1.22.71 1.21.71 1.22.71 1.22.71 1.21.71 1.22.71 1.22.71 1.21.71 1.22.71 1.22.71 1.21.71 1.22.71 1.22.71 1.21.71 1.22.71 1.22.71 1.21.71 1.22.71 1.22.71 1.21.71 1.22.71 1.22.71 1.21.71 1.22.71 1.22.71 1.21.71 1.22.71 1.22.71 1.21.71 1.22.71 1.22.71 1.21.71 1.22.71 1.22.71 1.21.71 1.22.71 1.22.71 1.21.71 1.22.71 1.22.71 1.22.71 1.21.71 1.22.71 1.22.71 1.21.71 1.22.71m102.02 105.37-1.03-1.07-1.03-1.06-1.03-1.07-1.03-1.06-1.03-1.06-1.03-1.07-1.03-1.06-1.03-1.07-1.03-1.06-1.03-1.07-1.03-1.06-1.03-1.06-1.03-1.07-1.03-1.06-1.03-1.07-1.03-1.06-1.04-1.07-1.03-1.06-1.03-1.06-1.03-1.07-1.03-1.06-1.03-1.07-1.03-1.06-1.03-1.07-1.03-1.06-1.03-1.06-1.03-1.07-1.03-1.06-1.03-1.07-1.03-1.06-1.03-1.07-1.03-1.06-1.03-1.06-1.03-1.07-1.04-1.06-1.03-1.07-1.03-1.06-1.03-1.07-1.03-1.06-1.03-1.06-1.03-1.07-1.03-1.06-1.03-1.07-1.03-1.06-1.03-1.07-1.03-1.06-1.03-1.06-1.03-1.07-1.03-1.06-1.03-1.07-1.03-1.06-1.03-1.07-1.04-1.06-1.03-1.06-1.03-1.07-1.03-1.06-1.03-1.07-1.03-1.06-1.03-1.07-1.03-1.06-1.03-1.06-1.03-1.07-1.03-1.06-1.03-1.07-1.03-1.06-1.03-1.06-1.03-1.07-1.03-1.06-1.03-1.07-1.04-1.06-1.03-1.07-1.03-1.06-1.03-1.06-1.03-1.07-1.03-1.06-1.03-1.07-1.03-1.06-1.03-1.07-1.03-1.06-1.03-1.06-1.03-1.07-1.03-1.06-1.03-1.07-1.03-1.06-1.03-1.07-1.03-1.06-1.03-1.06-1.04-1.07-1.03-1.06-1.03-1.07-1.03-1.06-1.03-1.07-1.03-1.06-1.03-1.06-1.03-1.07-1.03-1.06-1.03-1.07-1.03-1.06-1.03-1.07" style="stroke-width:1.07;stroke:#000000;stroke-opacity:0.10;stroke-linecap:butt"/><path d="m278.44 385.79-1.42-.18-1.42-.17-1.43-.17-1.42-.17-1.42-.16-1.43-.15-1.42-.15-1.42-.15-1.42-.14-1.42-.13-1.43-.13-1.42-.13-1.42-.12-1.42-.12-1.42-.11-1.42-.1-1.42-.11-1.42-.09-1.42-.1-1.42-.09-1.42-.08-1.42-.08-1.42-.07-1.42-.07-1.42-.06-1.42-.06-1.41-.06-1.42-.05-1.42-.04-1.42-.04-1.41-.04-1.42-.03-1.42-.03-1.42-.02-1.41-.01-1.42-.02h-1.41l-1.42-.01-1.42.01h-1.41l-1.42.01-1.41.02-1.42.02-1.41.03-1.41.03-1.42.03-1.41.04-1.42.05-1.41.05-1.41.05-1.42.06-1.41.07-1.41.07-1.41.07-1.42.08-1.41.08-1.41.09-1.41.09-1.41.1-1.41.1-1.41.11-1.41.11-1.41.12-1.41.12-1.41.12-1.41.13-1.41.14-1.41.14-1.41.14-1.41.15-1.41.16-1.41.16-1.41.16-1.4.17-1.41.17-1.41.18-1.41.18-1.4.19-1.41.19-1.41.2-1.4.2-1.41.21-1.4.21-1.41.21-1.41.22-1.4.23-1.41.23-1.4.23-1.41.24-1.4.25-1.4.25-1.41.25-1.4.26-1.41.26-1.4.27-1.4.28-1.41.27-1.4.29-1.4.28m139.9-5.39-1.08.98-1.08.99-1.08.99-1.08.99-1.08.98-1.08.99-1.09.99-1.08.99-1.08.98-1.08.99-1.08.99-1.08.99-1.08.99-1.09.98-1.08.99-1.08.99-1.08.99-1.08.98-1.08.99-1.08.99-1.09.99-1.08.98-1.08.99-1.08.99-1.08.99-1.08.98-1.08.99-1.09.99-1.08.99-1.08.98-1.08.99-1.08.99-1.08.99-1.08.98-1.09.99-1.08.99-1.08.99-1.08.99-1.08.98-1.08.99-1.08.99-1.09.99-1.08.98-1.08.99-1.08.99-1.08.99-1.08.98-1.08.99-1.09.99-1.08.99-1.08.98-1.08.99-1.08.99-1.08.99-1.08.98-1.09.99-1.08.99-1.08.99-1.08.98-1.08.99-1.08.99-1.08.99-1.09.98-1.08.99-1.08.99-1.08.99-1.08.99-1.08.98-1.08.99-1.09.99-1.08.99-1.08.98-1.08.99-1.08.99-1.08.99-1.08.98-1.09.99-1.08.99-1.08.99-1.08.98-1.08.99-1.08.99-1.08.99-1.09.98-1.08.99-1.08.99-1.08.99-1.08.98-1.08.99-1.08.99-1.09.99-1.08.98-1.08.99-1.08.99-1.08.99-1.08.99-1.08.98-1.08.99-1.09.99" style="stroke-width:1.07;stroke:#000000;stroke-opacity:0.10;stroke-linecap:butt"/><path d="m278.44 385.79-1.41-.07-1.42-.05-1.42-.06-1.42-.06-1.42-.05-1.42-.05-1.41-.05-1.42-.04-1.42-.04-1.42-.04-1.41-.04-1.42-.04-1.42-.03-1.42-.03-1.41-.03-1.42-.03-1.42-.02-1.41-.02-1.42-.02-1.42-.02-1.41-.01-1.42-.02-1.41-.01h-1.42l-1.42-.01h-4.24l-1.42.01h-1.41l-1.42.01-1.41.02-1.42.01-1.41.02-1.42.01-1.41.03-1.42.02-1.41.03-1.42.02-1.41.03-1.42.04-1.41.03-1.41.04-1.42.04-1.41.04-1.42.05-1.41.05-1.41.05-1.42.05-1.41.05-1.41.06-1.41.06-1.42.06-1.41.06-1.41.07-1.42.07-1.41.07-1.41.07-1.41.08-1.41.08-1.42.08-1.41.08-1.41.09-1.41.09-1.41.09-1.41.09-1.42.09-1.41.1-1.41.1-1.41.1-1.41.11-1.41.1-1.41.11-1.41.11-1.41.12-1.41.11-1.41.12-1.41.12-1.41.13-1.41.12-1.41.13-1.41.13-1.41.13-1.41.14-1.41.14-1.41.14-1.41.14-1.41.14-1.41.15-1.41.15-1.4.15-1.41.16-1.41.15-1.41.16-1.41.16-1.41.17-1.4.16-1.41.17-1.41.17m139.9-5.39-.08 1.39-.08 1.4-.08 1.4-.08 1.4-.08 1.4-.08 1.39-.09 1.4-.08 1.4-.08 1.4-.08 1.39-.08 1.4-.08 1.4-.09 1.4-.08 1.4-.08 1.39-.08 1.4-.08 1.4-.08 1.4-.09 1.39-.08 1.4-.08 1.4-.08 1.4-.08 1.4-.08 1.39-.08 1.4-.09 1.4-.08 1.4-.08 1.39-.08 1.4-.08 1.4-.08 1.4-.09 1.4-.08 1.39-.08 1.4-.08 1.4-.08 1.4-.08 1.39-.08 1.4-.09 1.4-.08 1.4-.08 1.4-.08 1.39-.08 1.4-.08 1.4-.09 1.4-.08 1.39-.08 1.4-.08 1.4-.08 1.4-.08 1.4-.09 1.39-.08 1.4-.08 1.4-.08 1.4-.08 1.39-.08 1.4-.08 1.4-.09 1.4-.08 1.4-.08 1.39-.08 1.4-.08 1.4-.08 1.4-.09 1.39-.08 1.4-.08 1.4-.08 1.4-.08 1.4-.08 1.39-.08 1.4-.09 1.4-.08 1.4-.08 1.39-.08 1.4-.08 1.4-.08 1.4-.09 1.4-.08 1.39-.08 1.4-.08 1.4-.08 1.4-.08 1.4-.08 1.39-.09 1.4-.08 1.4-.08 1.4-.08 1.39-.08 1.4-.08 1.4-.09 1.4-.08 1.4-.08 1.39-.08 1.4-.08 1.4-.08 1.4-.09 1.39-.08 1.4-.08 1.4-.08 1.4" style="stroke-width:1.07;stroke:#000000;stroke-opacity:0.10;stroke-linecap:butt"/><path d="m278.44 385.79-1.41.05-1.41.06-1.42.05-1.41.05-1.41.06-1.41.05-1.42.06-1.41.05-1.41.06-1.42.05-1.41.06-1.41.05-1.42.06-1.41.05-1.41.05-1.42.06-1.41.05-1.41.06-1.42.05-1.41.06-1.41.05-1.42.06-1.41.05-1.41.05-1.42.06-1.41.05-1.41.06-1.41.05-1.42.06-1.41.05-1.41.06-1.42.05-1.41.06-1.41.05-1.42.05-1.41.06-1.41.05-1.42.06-1.41.05-1.41.06-1.42.05-1.41.06-1.41.05-1.42.06-1.41.05-1.41.05-1.42.06-1.41.05-1.41.06-1.41.05-1.42.06-1.41.05-1.41.06-1.42.05-1.41.05-1.41.06-1.42.05-1.41.06-1.41.05-1.42.06-1.41.05-1.41.06-1.42.05-1.41.06-1.41.05-1.42.05-1.41.06-1.41.05-1.42.06-1.41.05-1.41.06-1.41.05-1.42.06-1.41.05-1.41.05-1.42.06-1.41.05-1.41.06-1.42.05-1.41.06-1.41.05-1.42.06-1.41.05-1.41.06-1.42.05-1.41.05-1.41.06-1.42.05-1.41.06-1.41.05-1.42.06-1.41.05-1.41.06-1.41.05-1.42.06-1.41.05-1.41.05-1.42.06-1.41.05m139.9-5.39.96 1.1.96 1.1.96 1.11.96 1.1.96 1.11.96 1.1.96 1.11.96 1.1.96 1.1.96 1.11.96 1.1.96 1.11.96 1.1.96 1.1.96 1.11.96 1.1.96 1.11.96 1.1.96 1.1.96 1.11.96 1.1.96 1.11.96 1.1.96 1.11.96 1.1.96 1.1.96 1.11.96 1.1.96 1.11.96 1.1.96 1.1.96 1.11.96 1.1.96 1.11.96 1.1.96 1.1.96 1.11.96 1.1.96 1.11.96 1.1.96 1.11.96 1.1.96 1.1.96 1.11.96 1.1.96 1.11.96 1.1.96 1.1.96 1.11.96 1.1.96 1.11.96 1.1.96 1.1.96 1.11.96 1.1.96 1.11.96 1.1.96 1.11.96 1.1.96 1.1.96 1.11.96 1.1.96 1.11.96 1.1.96 1.1.96 1.11.96 1.1.96 1.11.96 1.1.96 1.1.96 1.11.96 1.1.96 1.11.96 1.1.96 1.11.96 1.1.96 1.1.96 1.11.96 1.1.96 1.11.96 1.1.96 1.1.96 1.11.96 1.1.96 1.11.96 1.1.96 1.1.96 1.11.96 1.1.96 1.11.96 1.1.96 1.1.96 1.11.96 1.1.96 1.11.95 1.1.96 1.11.96 1.1.96 1.1" style="stroke-width:1.07;stroke:#000000;stroke-opacity:0.10;stroke-linecap:butt"/><path d="m278.44 385.79-1.4.17-1.41.17-1.41.16-1.41.17-1.41.16-1.4.16-1.41.15-1.41.16-1.41.15-1.41.15-1.41.15-1.41.14-1.41.14-1.4.14-1.41.14-1.41.14-1.41.13-1.41.13-1.41.13-1.41.12-1.41.13-1.41.12-1.41.12-1.41.11-1.41.12-1.41.11-1.42.11-1.41.1-1.41.11-1.41.1-1.41.1-1.41.1-1.41.09-1.41.09-1.41.09-1.42.09-1.41.09-1.41.08-1.41.08-1.41.08-1.42.07-1.41.08-1.41.07-1.41.07-1.42.06-1.41.07-1.41.06-1.41.06-1.42.06-1.41.05-1.41.05-1.42.05-1.41.05-1.41.05-1.42.04-1.41.04-1.42.04-1.41.03-1.41.03-1.42.04-1.41.02-1.42.03-1.41.02-1.42.02-1.41.02-1.42.02-1.41.01-1.42.02-1.41.01h-1.42l-1.41.01h-4.25l-1.42-.01-1.41-.01h-1.42l-1.41-.02-1.42-.01-1.42-.02-1.41-.02-1.42-.02-1.42-.02-1.41-.03-1.42-.03-1.42-.03-1.42-.03-1.41-.04-1.42-.04-1.42-.04-1.42-.04-1.41-.04-1.42-.05-1.42-.05-1.42-.05-1.42-.06-1.41-.06-1.42-.06-1.42-.06m139.9-5.39.93-1.2.94-1.2.93-1.2.93-1.19.94-1.2.93-1.19.94-1.2.94-1.19.94-1.19.94-1.19.94-1.19.94-1.19.95-1.19.94-1.19.95-1.18.95-1.19.95-1.18.95-1.19.95-1.18.95-1.18.95-1.19.96-1.18.95-1.18.96-1.18.96-1.18.96-1.17.96-1.18.96-1.18.96-1.17.96-1.18.97-1.17.97-1.17.96-1.17.97-1.18.97-1.17.97-1.17.97-1.16.98-1.17.97-1.17.98-1.16.97-1.17.98-1.16.98-1.17.98-1.16.98-1.16.98-1.16.99-1.16.98-1.16.99-1.16.99-1.16.98-1.16.99-1.15.99-1.16 1-1.15.99-1.16.99-1.15 1-1.15.99-1.15 1-1.15 1-1.15 1-1.15 1-1.15 1-1.15 1.01-1.14 1-1.15 1.01-1.14 1-1.15 1.01-1.14 1.01-1.14 1.01-1.14 1.01-1.14 1.02-1.14 1.01-1.14 1.02-1.14 1.01-1.14 1.02-1.13 1.02-1.14 1.02-1.13 1.02-1.14 1.02-1.13 1.02-1.13 1.03-1.13 1.02-1.13 1.03-1.13 1.03-1.13 1.03-1.13 1.03-1.13 1.03-1.12 1.03-1.13 1.03-1.12 1.04-1.13 1.03-1.12 1.04-1.12 1.04-1.12 1.04-1.12 1.04-1.12 1.04-1.12 1.04-1.12 1.05-1.12" style="stroke-width:1.07;stroke:#000000;stroke-opacity:0.10;stroke-linecap:butt"/><path d="m278.44 385.79-1.4.28-1.4.29-1.4.27-1.41.28-1.4.27-1.4.26-1.41.26-1.4.25-1.41.25-1.4.25-1.4.23-1.41.24-1.4.23-1.41.23-1.41.22-1.4.21-1.41.21-1.4.21-1.41.2-1.41.2-1.4.19-1.41.19-1.41.18-1.4.18-1.41.17-1.41.17-1.41.16-1.41.16-1.41.16-1.4.15-1.41.14-1.41.14-1.41.14-1.41.13-1.41.12-1.41.12-1.41.12-1.41.11-1.41.11-1.41.1-1.42.1-1.41.09-1.41.09-1.41.08-1.41.08-1.42.07-1.41.07-1.41.07-1.41.06-1.42.05-1.41.05-1.41.04-1.42.05-1.41.03-1.42.03-1.41.03-1.41.02-1.42.02-1.42.01h-1.41l-1.42.01-1.41-.01h-1.42l-1.41-.02-1.42-.01-1.42-.02-1.41-.03-1.42-.03-1.42-.04-1.42-.04-1.41-.04-1.42-.05-1.42-.06-1.42-.06-1.42-.06-1.42-.07-1.42-.07-1.41-.08-1.42-.09-1.42-.08-1.42-.1-1.42-.09-1.42-.11-1.42-.1-1.43-.11-1.42-.12-1.42-.12-1.42-.13-1.42-.13-1.42-.13-1.43-.14-1.42-.15-1.42-.15-1.42-.15-1.43-.16-1.42-.17-1.42-.17-1.43-.17-1.42-.18m245.97-251.11-.09 1.32-.08 1.33-.09 1.32-.08 1.32-.08 1.33-.09 1.32-.08 1.33-.09 1.32-.08 1.33-.09 1.32-.08 1.32-.08 1.33-.09 1.32-.08 1.33-.09 1.32-.08 1.32-.08 1.33-.09 1.32-.08 1.33-.09 1.32-.08 1.33-.09 1.32-.08 1.32-.08 1.33-.09 1.32-.08 1.33-.09 1.32-.08 1.33-.09 1.32-.08 1.32-.08 1.33-.09 1.32-.08 1.33-.09 1.32-.08 1.32-.09 1.33-.08 1.32-.08 1.33-.09 1.32-.08 1.33-.09 1.32-.08 1.32-.09 1.33-.08 1.32-.08 1.33-.09 1.32-.08 1.32-.09 1.33-.08 1.32-.08 1.33-.09 1.32-.08 1.33-.09 1.32-.08 1.32-.09 1.33-.08 1.32-.08 1.33-.09 1.32-.08 1.33-.09 1.32-.08 1.32-.09 1.33-.08 1.32-.08 1.33-.09 1.32-.08 1.32-.09 1.33-.08 1.32-.09 1.33-.08 1.32-.08 1.33-.09 1.32-.08 1.32-.09 1.33-.08 1.32-.08 1.33-.09 1.32-.08 1.33-.09 1.32-.08 1.32-.09 1.33-.08 1.32-.08 1.33-.09 1.32-.08 1.32-.09 1.33-.08 1.32-.09 1.33-.08 1.32-.08 1.33-.09 1.32-.08 1.32-.09 1.33-.08 1.32-.09 1.33-.08 1.32-.08 1.32-.09 1.33-.08 1.32m-97.73 114.63.82-1.28.82-1.28.82-1.28.83-1.27.83-1.27.83-1.26.84-1.27.84-1.26.85-1.26.84-1.26.86-1.25.85-1.26.86-1.25.86-1.24.86-1.25.87-1.24.88-1.24.87-1.24.88-1.23.88-1.24.89-1.23.89-1.22.89-1.23.9-1.22.9-1.22.9-1.22.91-1.21.91-1.22.91-1.21.92-1.2.92-1.21.92-1.2.93-1.2.93-1.2.94-1.19.94-1.2.94-1.19.94-1.18.95-1.19.96-1.18.95-1.18.96-1.18.96-1.17.97-1.18.97-1.17.97-1.17.98-1.16.98-1.16.98-1.16.99-1.16.99-1.16.99-1.15 1-1.15 1-1.15 1.01-1.14 1.01-1.15 1.01-1.14 1.01-1.13 1.02-1.14 1.02-1.13 1.03-1.13 1.03-1.13 1.03-1.13 1.03-1.12 1.04-1.12 1.05-1.12 1.04-1.11 1.05-1.12 1.06-1.11 1.05-1.11 1.06-1.1 1.07-1.1 1.06-1.1 1.08-1.1 1.07-1.1 1.08-1.09 1.08-1.09 1.08-1.09 1.09-1.09 1.09-1.08 1.1-1.08 1.1-1.08 1.1-1.07 1.1-1.08 1.11-1.07 1.12-1.07 1.11-1.06 1.12-1.07 1.13-1.06 1.12-1.05 1.13-1.06 1.14-1.05 1.13-1.05 1.14-1.05 1.15-1.05 1.14-1.04 1.16-1.04 1.15-1.04 1.16-1.04" style="stroke-width:1.07;stroke:#000000;stroke-opacity:0.10;stroke-linecap:butt"/><path d="m278.44 385.79-1.39.4-1.4.4-1.4.39-1.4.38-1.39.37-1.4.37-1.4.36-1.4.36-1.4.34-1.4.34-1.4.33-1.4.33-1.4.32-1.4.31-1.41.3-1.4.3-1.4.29-1.4.28-1.41.28-1.4.26-1.4.27-1.41.25-1.4.25-1.41.24-1.4.23-1.41.22-1.4.22-1.41.21-1.4.21-1.41.2-1.41.19-1.41.18-1.4.17-1.41.17-1.41.16-1.41.16-1.41.14-1.41.14-1.41.14-1.41.12-1.41.12-1.41.11-1.41.11-1.41.1-1.41.09-1.41.08-1.41.07-1.42.07-1.41.06-1.41.06-1.42.05-1.41.04-1.41.03-1.42.03-1.41.01-1.42.02h-2.83l-1.42-.01-1.41-.02-1.42-.02-1.42-.03-1.41-.04-1.42-.05-1.42-.05-1.42-.06-1.42-.06-1.42-.08-1.42-.08-1.42-.09-1.42-.09-1.42-.1-1.42-.11-1.42-.12-1.42-.12-1.42-.13-1.42-.14-1.42-.15-1.43-.15-1.42-.16-1.42-.16-1.43-.18-1.42-.18-1.43-.19-1.42-.19-1.43-.2-1.42-.21-1.43-.22-1.42-.22-1.43-.23-1.43-.24-1.42-.24-1.43-.26-1.43-.26-1.43-.26-1.42-.27-1.43-.28-1.43-.29-1.43-.3m139.9-5.39.71-1.36.71-1.36.71-1.35.72-1.35.72-1.35.74-1.34.73-1.33.75-1.34.75-1.32.75-1.33.76-1.32.77-1.31.77-1.31.78-1.31.78-1.3.79-1.3.8-1.3.8-1.29.8-1.28.82-1.29.82-1.27.82-1.28.83-1.27.84-1.26.84-1.26.85-1.26.85-1.25.86-1.25.86-1.25.87-1.24.88-1.24.88-1.23.89-1.23.9-1.22.9-1.22.9-1.22.91-1.21.92-1.21.92-1.2.93-1.2.94-1.19.94-1.2.94-1.18.96-1.18.95-1.18.97-1.18.97-1.17.97-1.16.99-1.17.98-1.15 1-1.16.99-1.15 1.01-1.14 1.01-1.14 1.01-1.14 1.03-1.13 1.02-1.13 1.04-1.13 1.04-1.12 1.04-1.11 1.05-1.12 1.06-1.1 1.06-1.11 1.07-1.1 1.08-1.09 1.08-1.09 1.08-1.09 1.09-1.09 1.1-1.07 1.1-1.08 1.11-1.07 1.12-1.07 1.12-1.06 1.13-1.06 1.13-1.05 1.14-1.05 1.14-1.05 1.15-1.04 1.16-1.04 1.16-1.03 1.16-1.03 1.18-1.02 1.18-1.03 1.18-1.01 1.19-1.01 1.2-1.01 1.2-1.01 1.21-1 1.21-.99 1.22-1 1.23-.98 1.23-.99 1.23-.98 1.25-.97 1.25-.97 1.25-.97 1.26-.96 1.27-.96 1.27-.96" style="stroke-width:1.07;stroke:#000000;stroke-opacity:0.10;stroke-linecap:butt"/><path d="m278.44 385.79-1.39.52-1.39.51-1.39.5-1.4.49-1.39.48-1.39.47-1.4.47-1.39.45-1.4.44-1.39.44-1.4.42-1.4.42-1.39.4-1.4.4-1.4.39-1.4.38-1.39.36-1.4.36-1.4.35-1.4.34-1.4.33-1.4.32-1.41.31-1.4.3-1.4.3-1.4.28-1.41.27-1.4.26-1.4.26-1.41.24-1.4.24-1.41.22-1.4.22-1.41.21-1.41.19-1.4.19-1.41.18-1.41.17-1.41.16-1.41.15-1.41.14-1.41.13-1.41.12-1.41.11-1.41.1-1.41.09-1.41.09-1.41.07-1.42.06-1.41.06-1.41.04-1.42.04-1.41.02-1.42.02-1.41.01h-1.42l-1.41-.02-1.42-.02-1.42-.03-1.41-.04-1.42-.05-1.42-.06-1.42-.07-1.42-.08-1.42-.08-1.42-.1-1.42-.11-1.42-.12-1.42-.12-1.42-.14-1.43-.14-1.42-.16-1.42-.16-1.43-.17-1.42-.19-1.42-.19-1.43-.2-1.43-.21-1.42-.22-1.43-.23-1.42-.24-1.43-.25-1.43-.26-1.43-.27-1.43-.28-1.42-.29-1.43-.29-1.43-.31-1.43-.32-1.43-.32-1.44-.34-1.43-.34-1.43-.35-1.43-.37-1.43-.37-1.44-.38-1.43-.39-1.44-.41-1.43-.41m139.9-5.39 1.38.21 1.38.22 1.38.22 1.38.21 1.37.22 1.38.22 1.38.21 1.38.22 1.37.22 1.38.21 1.38.22 1.38.22 1.37.21 1.38.22 1.38.22 1.38.22 1.38.21 1.37.22 1.38.22 1.38.21 1.38.22 1.37.22 1.38.21 1.38.22 1.38.22 1.37.21 1.38.22 1.38.22 1.38.21 1.38.22 1.37.22 1.38.21 1.38.22 1.38.22 1.37.21 1.38.22 1.38.22 1.38.21 1.37.22 1.38.22 1.38.21 1.38.22 1.38.22 1.37.22 1.38.21 1.38.22 1.38.22 1.37.21 1.38.22 1.38.22 1.38.21 1.37.22 1.38.22 1.38.21 1.38.22 1.38.22 1.37.21 1.38.22 1.38.22 1.38.21 1.37.22 1.38.22 1.38.21 1.38.22 1.37.22 1.38.21 1.38.22 1.38.22 1.38.21 1.37.22 1.38.22 1.38.22 1.38.21 1.37.22 1.38.22 1.38.21 1.38.22 1.37.22 1.38.21 1.38.22 1.38.22 1.38.21 1.37.22 1.38.22 1.38.21 1.38.22 1.37.22 1.38.21 1.38.22 1.38.22 1.37.21 1.38.22 1.38.22 1.38.21 1.38.22 1.37.22 1.38.21 1.38.22 1.38.22" style="stroke-width:1.07;stroke:#000000;stroke-opacity:0.10;stroke-linecap:butt"/><path d="m278.44 385.79-1.38.63-1.39.63-1.39.61-1.38.6-1.39.59-1.39.58-1.39.56-1.39.55-1.39.55-1.39.53-1.4.51-1.39.51-1.39.49-1.39.48-1.4.47-1.39.46-1.4.45-1.39.43-1.4.43-1.4.41-1.39.4-1.4.38-1.4.38-1.4.36-1.4.35-1.4.34-1.4.33-1.4.31-1.4.31-1.4.29-1.41.28-1.4.27-1.4.26-1.41.24-1.4.23-1.41.22-1.41.21-1.4.2-1.41.18-1.41.18-1.41.16-1.4.15-1.41.14-1.41.12-1.41.12-1.42.1-1.41.09-1.41.08-1.41.06-1.41.06-1.42.04-1.41.03-1.42.02-1.41.01-1.42-.01-1.42-.02-1.41-.02-1.42-.04-1.42-.06-1.42-.06-1.42-.08-1.42-.09-1.42-.1-1.42-.11-1.42-.12-1.42-.14-1.42-.14-1.43-.16-1.42-.17-1.42-.19-1.43-.19-1.42-.21-1.43-.22-1.42-.23-1.43-.24-1.43-.25-1.43-.27-1.43-.28-1.42-.29-1.43-.3-1.43-.31-1.44-.33-1.43-.34-1.43-.34-1.43-.37-1.43-.37-1.44-.38-1.43-.4-1.44-.41-1.43-.42-1.44-.43-1.43-.45-1.44-.45-1.44-.47-1.43-.48-1.44-.49-1.44-.5-1.44-.52-1.44-.53" style="stroke-width:1.07;stroke:#000000;stroke-opacity:0.10;stroke-linecap:butt"/><path d="m278.44 375.28 9.1 15.76h-18.19zm244.33-128.09 1.92 3.31h-3.83zm-466.8-39.27 1.91 3.31h-3.83zm328.54-70.06 1.91 3.31h-3.83z" style="stroke-width:0.71;stroke:none;fill:#00BA38"/><circle cx="376.17" cy="271.16" r="5.88" style="stroke-width:0.71;stroke:none;fill:#F8766D"/><path d="M131.78 397.94h13.52v-13.51h-13.52z" style="stroke-width:0.71;stroke:none;fill:#619CFF"/><circle cx="176.42" cy="280.42" r="3.11" style="stroke-width:0.71;stroke:none;fill:#F8766D"/><circle cx="171.38" cy="483.56" r="1.42" style="stroke-width:0.71;stroke:none;fill:#F8766D"/><circle cx="270.37" cy="524.17" r="1.42" style="stroke-width:0.71;stroke:none;fill:#F8766D"/><circle cx="373.47" cy="495.09" r="1.42" style="stroke-width:0.71;stroke:none;fill:#F8766D"/><circle cx="414.84" cy="407.25" r="1.42" style="stroke-width:0.71;stroke:none;fill:#F8766D"/><path d="m273.03 390.47 4.54-3.92m240.33-140.4 3.88 2.59M60.73 211.89l-3.6-1.33m321.99-65.84 4.51-3.89m-2.04 125.73-4.54 3.85m-233.01 116.1-4.61 3.92m42.42-114.61-4.54 3.85M165.9 488.2l4.6-3.89m95.01 41.45 3.68-1.2m109.74-34.1-4.57 3.88m45.98-91.76-4.62 3.92" style="stroke-width:0.53;stroke:#BFBFBF"/><path d="M232.97 410.01h55.85-.08l.34-.01.34-.07.33-.13.3-.17.27-.22.23-.26.19-.29.13-.32.09-.34.02-.35h0v-15.22h0l-.02-.35-.09-.33-.13-.32-.19-.3-.23-.26-.27-.22-.3-.17-.33-.12-.34-.07-.26-.02h-55.85l.26.02-.35-.02-.35.04-.33.1-.31.15-.29.2-.25.24-.21.28-.16.3-.11.33-.06.35v15.39-.17.35l.06.34.11.33.16.31.21.27.25.24.29.2.31.15.33.1.35.04z" style="stroke-width:0.53;fill:#FFFFFF;fill-opacity:0.50"/><text x="260.89" y="398.22" lengthAdjust="spacingAndGlyphs" style="font-size:5.69px;font-family:&quot;Liberation Sans&quot;" text-anchor="middle" textLength="42.54">ACE PROPERTY</text><text x="260.89" y="406.41" lengthAdjust="spacingAndGlyphs" style="font-size:5.69px;font-family:&quot;Liberation Sans&quot;" text-anchor="middle" textLength="52.98">ACQUISITIONS LLC</text><path d="M461.56 253.62h54.18-.09l.35-.01.34-.07.33-.13.3-.17.27-.22.23-.26.18-.3.14-.31.08-.34.03-.35h0v-15.22h0l-.03-.35-.08-.33-.14-.32-.18-.3-.23-.26-.27-.22-.3-.17-.33-.13-.34-.06-.26-.02h-54.18l.26.02-.35-.02-.34.04-.34.1-.31.15-.29.2-.25.24-.21.27-.16.31-.11.33-.05.35-.01.17v15.22l.01-.17v.34l.05.35.11.33.16.31.21.27.25.24.29.2.31.15.34.1.34.04z" style="stroke-width:0.53;fill:#FFFFFF;fill-opacity:0.50"/><text x="488.65" y="241.83" lengthAdjust="spacingAndGlyphs" style="font-size:5.69px;font-family:&quot;Liberation Sans&quot;" text-anchor="middle" textLength="42.54">ACE PROPERTY</text><text x="488.65" y="250.02" lengthAdjust="spacingAndGlyphs" style="font-size:5.69px;font-family:&quot;Liberation Sans&quot;" text-anchor="middle" textLength="51.3">ACQUISTIONS LLC</text><path d="M62.89 221.87h55.86-.09l.35-.02.34-.06.32-.13.31-.17.26-.22.24-.26.18-.3.14-.32.08-.33.03-.35h0v-15.22h0l-.03-.35-.08-.33-.14-.32-.18-.3-.24-.26-.26-.22-.31-.17-.32-.13-.34-.07-.26-.01H62.89l.26.01-.35-.01-.34.04-.33.1-.32.15-.29.2-.25.24-.2.27-.17.31-.11.33-.05.35-.01.17v15.22l.01-.17v.34l.05.35.11.33.17.31.2.27.25.24.29.2.32.15.33.1.34.04z" style="stroke-width:0.53;fill:#FFFFFF;fill-opacity:0.50"/><text x="90.82" y="210.08" lengthAdjust="spacingAndGlyphs" style="font-size:5.69px;font-family:&quot;Liberation Sans&quot;" text-anchor="middle" textLength="28.45">ACE PROP</text><text x="90.82" y="218.27" lengthAdjust="spacingAndGlyphs" style="font-size:5.69px;font-family:&quot;Liberation Sans&quot;" text-anchor="middle" textLength="52.98">ACQUISITIONS LLC</text><path d="M340.82 164.27h52.25l-.09-.01.35-.01.34-.07.33-.12.3-.18.27-.22.23-.26.18-.29.14-.32.08-.34.03-.34h0v-15.23h0l-.03-.34-.08-.34-.14-.32-.18-.29-.23-.26-.27-.22-.3-.18-.33-.12-.34-.07-.26-.02h-52.25l.26.02-.35-.01-.34.04-.34.09-.31.15-.29.2-.25.24-.21.28-.16.31-.11.33-.05.34-.01.17v15.23l.01-.18v.35l.05.34.11.33.16.31.21.28.25.24.29.2.31.15.34.09.34.04z" style="stroke-width:0.53;fill:#FFFFFF;fill-opacity:0.50"/><text x="366.95" y="152.47" lengthAdjust="spacingAndGlyphs" style="font-size:5.69px;font-family:&quot;Liberation Sans&quot;" text-anchor="middle" textLength="42.54">ACE PROPERTY</text><text x="366.95" y="160.67" lengthAdjust="spacingAndGlyphs" style="font-size:5.69px;font-family:&quot;Liberation Sans&quot;" text-anchor="middle" textLength="49.37">ACQUISITION LLC</text><path d="M361.6 266.56h74.08-.09l.35-.01.34-.07.32-.12.3-.18.27-.22.23-.26.19-.29.13-.32.09-.34.03-.35h0v-23.41h0l-.03-.35-.09-.34-.13-.31-.19-.3-.23-.26-.27-.22-.3-.17-.32-.13-.34-.07-.26-.01H361.6l.26.01-.35-.01-.34.04-.33.1-.32.15-.28.2-.26.24-.2.27-.17.31-.11.33-.05.35-.01.17v23.41l.01-.17v.35l.05.34.11.33.17.31.2.28.26.24.28.2.32.14.33.1.34.04z" style="stroke-width:0.53;fill:#FFFFFF;fill-opacity:0.50"/><text x="398.64" y="246.58" lengthAdjust="spacingAndGlyphs" style="font-size:5.69px;font-family:&quot;Liberation Sans&quot;" text-anchor="middle" textLength="49.8">1540 RIVER PARK</text><text x="398.64" y="254.77" lengthAdjust="spacingAndGlyphs" style="font-size:5.69px;font-family:&quot;Liberation Sans&quot;" text-anchor="middle" textLength="41.13">DR SUITE 220,</text><text x="398.64" y="262.96" lengthAdjust="spacingAndGlyphs" style="font-size:5.69px;font-family:&quot;Liberation Sans&quot;" text-anchor="middle" textLength="71.19">SACRAMENTO, CA 95821</text><path d="M128.91 386.51h64.28-.09l.35-.01.34-.07.33-.13.3-.17.27-.22.23-.26.18-.29.14-.32.08-.34.03-.35h0v-23.41h0l-.03-.35-.08-.34-.14-.32-.18-.29-.23-.26-.27-.22-.3-.17-.33-.13-.34-.07-.26-.01h-64.28l.26.01-.35-.01-.34.04-.34.1-.31.15-.29.19-.25.24-.21.28-.16.31-.11.33-.05.34-.01.18v23.41l.01-.17v.35l.05.34.11.33.16.31.21.28.25.24.29.19.31.15.34.1.34.04z" style="stroke-width:0.53;fill:#FFFFFF;fill-opacity:0.50"/><text x="161.05" y="366.52" lengthAdjust="spacingAndGlyphs" style="font-size:5.69px;font-family:&quot;Liberation Sans&quot;" text-anchor="middle" textLength="61.4">2377 GOLD MEADOW</text><text x="161.05" y="374.72" lengthAdjust="spacingAndGlyphs" style="font-size:5.69px;font-family:&quot;Liberation Sans&quot;" text-anchor="middle" textLength="59.25">WAY, STE 200, GOLD</text><text x="161.05" y="382.91" lengthAdjust="spacingAndGlyphs" style="font-size:5.69px;font-family:&quot;Liberation Sans&quot;" text-anchor="middle" textLength="48.46">RIVER, CA 95670</text><path d="M163.15 275.82h71.45-.08l.34-.02.34-.07.33-.12.3-.18.27-.22.23-.26.19-.29.13-.32.09-.34.02-.34h0v-23.42h0l-.02-.35-.09-.33-.13-.32-.19-.3-.23-.26-.27-.22-.3-.17-.33-.12-.34-.07-.26-.02h-71.45l.26.02-.35-.02-.34.04-.34.1-.31.15-.29.2-.25.24-.2.28-.17.3-.11.33-.05.35-.01.17v23.42l.01-.18v.35l.05.34.11.33.17.31.2.28.25.24.29.2.31.15.34.09.34.05z" style="stroke-width:0.53;fill:#FFFFFF;fill-opacity:0.50"/><text x="198.88" y="255.83" lengthAdjust="spacingAndGlyphs" style="font-size:5.69px;font-family:&quot;Liberation Sans&quot;" text-anchor="middle" textLength="61.74">1540 RIVER PARK DR,</text><text x="198.88" y="264.02" lengthAdjust="spacingAndGlyphs" style="font-size:5.69px;font-family:&quot;Liberation Sans&quot;" text-anchor="middle" textLength="68.57">STE 220, SACRAMENTO,</text><text x="198.88" y="272.22" lengthAdjust="spacingAndGlyphs" style="font-size:5.69px;font-family:&quot;Liberation Sans&quot;" text-anchor="middle" textLength="27.78">CA 95815</text><path d="M114.58 515.94h68.08-.09l.35-.02.34-.07.32-.12.3-.17.27-.22.23-.26.19-.3.14-.32.08-.33.03-.35h0v-23.42h0l-.03-.34-.08-.34-.14-.32-.19-.29-.23-.26-.27-.22-.3-.18-.32-.12-.34-.07-.26-.02h-68.08l.26.02-.35-.01-.34.04-.34.09-.31.15-.29.2-.25.24-.21.28-.16.31-.11.33-.05.34-.01.17v23.42l.01-.17v.34l.05.35.11.33.16.3.21.28.25.24.29.2.31.15.34.1.34.04z" style="stroke-width:0.53;fill:#FFFFFF;fill-opacity:0.50"/><text x="148.62" y="495.95" lengthAdjust="spacingAndGlyphs" style="font-size:5.69px;font-family:&quot;Liberation Sans&quot;" text-anchor="middle" textLength="59.93">1540 RIVER PARK DR</text><text x="148.62" y="504.15" lengthAdjust="spacingAndGlyphs" style="font-size:5.69px;font-family:&quot;Liberation Sans&quot;" text-anchor="middle" textLength="65.2">220, SACRAMENTO, WI</text><text x="148.62" y="512.34" lengthAdjust="spacingAndGlyphs" style="font-size:5.69px;font-family:&quot;Liberation Sans&quot;" text-anchor="middle" textLength="18.11">95821</text><path d="M194.16 539.77h69.19-.08l.34-.01.34-.07.33-.13.3-.17.27-.22.23-.26.19-.29.13-.32.08-.34.03-.35h0V514.2h0l-.03-.35-.08-.34-.13-.32-.19-.29-.23-.26-.27-.22-.3-.18-.33-.12-.34-.07-.26-.01h-69.19l.26.01-.35-.01-.34.04-.34.1-.31.15-.29.19-.25.24-.21.28-.16.31-.11.33-.05.34-.01.18v23.41l.01-.17v.35l.05.34.11.33.16.31.21.27.25.25.29.19.31.15.34.1.34.04z" style="stroke-width:0.53;fill:#FFFFFF;fill-opacity:0.50"/><text x="228.76" y="519.78" lengthAdjust="spacingAndGlyphs" style="font-size:5.69px;font-family:&quot;Liberation Sans&quot;" text-anchor="middle" textLength="59.93">1540 RIVER PARK DR</text><text x="228.76" y="527.98" lengthAdjust="spacingAndGlyphs" style="font-size:5.69px;font-family:&quot;Liberation Sans&quot;" text-anchor="middle" textLength="66.31">UN 220, SACRAMENTO,</text><text x="228.76" y="536.17" lengthAdjust="spacingAndGlyphs" style="font-size:5.69px;font-family:&quot;Liberation Sans&quot;" text-anchor="middle" textLength="27.22">WI 95821</text><path d="M363.83 490.46h64.28-.09l.35-.01.34-.07.33-.13.3-.17.27-.22.23-.26.18-.29.14-.32.08-.34.03-.35h0v-23.41h0l-.03-.35-.08-.34-.14-.32-.18-.29-.23-.26-.27-.22-.3-.17-.33-.13-.34-.07-.26-.01h-64.28l.26.01-.35-.01-.34.04-.34.1-.31.15-.29.19-.25.24-.21.28-.16.31-.11.33-.06.34v23.59-.17.35l.06.34.11.33.16.31.21.28.25.24.29.19.31.15.34.1.34.04z" style="stroke-width:0.53;fill:#FFFFFF;fill-opacity:0.50"/><text x="395.97" y="470.47" lengthAdjust="spacingAndGlyphs" style="font-size:5.69px;font-family:&quot;Liberation Sans&quot;" text-anchor="middle" textLength="61.4">2377 GOLD MEADOW</text><text x="395.97" y="478.67" lengthAdjust="spacingAndGlyphs" style="font-size:5.69px;font-family:&quot;Liberation Sans&quot;" text-anchor="middle" textLength="58.52">WAY, UNIT 20, GOLD</text><text x="395.97" y="486.86" lengthAdjust="spacingAndGlyphs" style="font-size:5.69px;font-family:&quot;Liberation Sans&quot;" text-anchor="middle" textLength="48.46">RIVER, CA 95670</text><path d="M402.13 402.58h70.44-.09l.35-.01.34-.07.33-.13.3-.17.27-.22.23-.26.18-.3.14-.31.08-.34.03-.35h0v-23.41h0l-.03-.35-.08-.34-.14-.32-.18-.29-.23-.26-.27-.22-.3-.18-.33-.12-.34-.07-.26-.01h-70.44l.26.01-.35-.01-.35.04-.33.1-.31.14-.29.2-.25.24-.21.28-.16.31-.11.33-.06.34v23.59-.17.34l.06.35.11.33.16.31.21.27.25.24.29.2.31.15.33.1.35.04z" style="stroke-width:0.53;fill:#FFFFFF;fill-opacity:0.50"/><text x="437.35" y="382.59" lengthAdjust="spacingAndGlyphs" style="font-size:5.69px;font-family:&quot;Liberation Sans&quot;" text-anchor="middle" textLength="59.93">1540 RIVER PARK DR</text><text x="437.35" y="390.79" lengthAdjust="spacingAndGlyphs" style="font-size:5.69px;font-family:&quot;Liberation Sans&quot;" text-anchor="middle" textLength="67.56">220, SACRAMENTO, CA,</text><text x="437.35" y="398.98" lengthAdjust="spacingAndGlyphs" style="font-size:5.69px;font-family:&quot;Liberation Sans&quot;" text-anchor="middle" textLength="27.22">WI 95821</text></g><g clip-path="url(#cpMC4wMHw1NzYuMDB8MC4wMHw1NzYuMDA=)"><circle cx="194.24" cy="95.78" r="1.95" style="stroke-width:0.71;stroke:none;fill:#F8766D"/><path d="m270.59 92.74 2.63 4.56h-5.26z" style="stroke-width:0.71;stroke:none;fill:#00BA38"/><path d="M336.57 97.74h3.91v-3.91h-3.91z" style="stroke-width:0.71;stroke:none;fill:#619CFF"/><text x="208.36" y="98.81" lengthAdjust="spacingAndGlyphs" style="font-size:8.80px;font-family:&quot;Liberation Sans Narrow&quot;" textLength="48.12">mprop address</text><text x="284.71" y="98.81" lengthAdjust="spacingAndGlyphs" style="font-size:8.80px;font-family:&quot;Liberation Sans Narrow&quot;" textLength="39.69">owner name</text><text x="352.64" y="98.81" lengthAdjust="spacingAndGlyphs" style="font-size:8.80px;font-family:&quot;Liberation Sans Narrow&quot;" textLength="40.5">wdfi address</text><text x="32.63" y="64.23" lengthAdjust="spacingAndGlyphs" style="font-size:12.00px;font-family:&quot;Liberation Sans Narrow&quot;" textLength="252.23">includes 14 parcels, 28 units, and 4 distinct owner names.</text><text x="32.63" y="42.27" lengthAdjust="spacingAndGlyphs" style="font-size:18.00px;font-weight:bold;font-family:&quot;Liberation Sans Narrow&quot;" textLength="332.95">ACE PROPERTY ACQUISITIONS LLC etc Group</text></g></svg>