<svg xmlns="http://www.w3.org/2000/svg" width="768" height="768" class="svglite" viewBox="0 0 576 576"><defs><style>.svglite circle,.svglite line,.svglite polygon,.svglite polyline,.svglite rect{fill:none;stroke:#000;stroke-linecap:round;stroke-linejoin:round;stroke-miterlimit:10}.svglite text{white-space:pre}</style></defs><rect width="100%" height="100%" style="stroke:none;fill:#fff"/><defs><clipPath id="cpMC4wMHw1NzYuMDB8MC4wMHw1NzYuMDA="><path d="M0 0h576v576H0z"/></clipPath></defs><g clip-path="url(#cpMC4wMHw1NzYuMDB8MC4wMHw1NzYuMDA=)"><path d="M0 0h576v576H0z" style="stroke-width:1.07;stroke:none;fill:#fff"/></g><defs><clipPath id="cpMzIuNjN8NTQ2LjExfDEyMC44Nnw1NDMuMzc="><path d="M32.63 120.86h513.48v422.51H32.63z"/></clipPath></defs><g clip-path="url(#cpMzIuNjN8NTQ2LjExfDEyMC44Nnw1NDMuMzc=)"><path d="m427.89 524.17-.65-1.83-.64-1.82-.65-1.82-.65-1.82-.65-1.82-.65-1.83-.64-1.82-.65-1.82-.65-1.82-.65-1.83-.65-1.82-.64-1.82-.65-1.82-.65-1.83-.65-1.82-.65-1.82-.64-1.82-.65-1.83-.65-1.82-.65-1.82-.64-1.82-.65-1.82-.65-1.83-.65-1.82-.65-1.82-.64-1.82-.65-1.83-.65-1.82-.65-1.82-.65-1.82-.64-1.83-.65-1.82-.65-1.82-.65-1.82-.65-1.83-.64-1.82-.65-1.82-.65-1.82-.65-1.83-.65-1.82-.64-1.82-.65-1.82-.65-1.82-.65-1.83-.64-1.82-.65-1.82-.65-1.82-.65-1.83-.65-1.82-.64-1.82-.65-1.82-.65-1.83-.65-1.82-.65-1.82-.64-1.82-.65-1.83-.65-1.82-.65-1.82-.65-1.82-.64-1.83-.65-1.82-.65-1.82-.65-1.82-.64-1.82-.65-1.83-.65-1.82-.65-1.82-.65-1.82-.64-1.83-.65-1.82-.65-1.82-.65-1.82-.65-1.83-.64-1.82-.65-1.82-.65-1.82-.65-1.83-.65-1.82-.64-1.82-.65-1.82-.65-1.83-.65-1.82-.65-1.82-.64-1.82-.65-1.82-.65-1.83-.65-1.82-.64-1.82-.65-1.82-.65-1.83-.65-1.82-.65-1.82-.64-1.82-.65-1.83-.65-1.82-.65-1.82-.65-1.82-.64-1.83-.65-1.82M427.89 524.17l-2.15-2.06-2.15-2.06-2.15-2.05-2.15-2.06-2.15-2.06-2.15-2.06-2.15-2.05-2.15-2.06-2.15-2.06-2.15-2.06-2.15-2.05-2.15-2.06-2.16-2.06-2.15-2.06-2.15-2.05-2.15-2.06-2.15-2.06-2.15-2.06-2.15-2.05-2.15-2.06-2.15-2.06-2.15-2.06-2.15-2.05-2.15-2.06-2.15-2.06-2.15-2.06-2.15-2.05-2.15-2.06-2.15-2.06-2.15-2.06-2.15-2.05-2.15-2.06-2.16-2.06-2.15-2.05-2.15-2.06-2.15-2.06-2.15-2.06-2.15-2.05-2.15-2.06-2.15-2.06-2.15-2.06-2.15-2.05-2.15-2.06-2.15-2.06-2.15-2.06-2.15-2.05-2.15-2.06-2.15-2.06-2.15-2.06-2.15-2.05-2.15-2.06-2.16-2.06-2.15-2.06-2.15-2.05-2.15-2.06-2.15-2.06-2.15-2.06-2.15-2.05-2.15-2.06-2.15-2.06-2.15-2.06-2.15-2.05-2.15-2.06-2.15-2.06-2.15-2.05-2.15-2.06-2.15-2.06-2.15-2.06-2.15-2.05-2.15-2.06-2.15-2.06-2.16-2.06-2.15-2.05-2.15-2.06-2.15-2.06-2.15-2.06-2.15-2.05-2.15-2.06-2.15-2.06-2.15-2.06-2.15-2.05-2.15-2.06-2.15-2.06-2.15-2.06-2.15-2.05-2.15-2.06-2.15-2.06-2.15-2.06-2.15-2.05-2.15-2.06-2.15-2.06-2.16-2.06-2.15-2.05-2.15-2.06-2.15-2.06-2.15-2.05-2.15-2.06-2.15-2.06-2.15-2.06M522.77 198.25l-1.8 1.35-1.8 1.35-1.8 1.36-1.79 1.36-1.79 1.37-1.79 1.36-1.78 1.37-1.77 1.37-1.78 1.37-1.76 1.37-1.77 1.38-1.76 1.38-1.75 1.38-1.76 1.39-1.74 1.38-1.75 1.39-1.74 1.39-1.73 1.4-1.74 1.39-1.72 1.4-1.73 1.4-1.72 1.41-1.71 1.4-1.71 1.41-1.71 1.41-1.71 1.41-1.7 1.42-1.69 1.41-1.69 1.42-1.69 1.43-1.68 1.42-1.68 1.43-1.68 1.43-1.67 1.43-1.67 1.43-1.66 1.44-1.66 1.44-1.65 1.44-1.65 1.44-1.65 1.45-1.64 1.45-1.64 1.45-1.64 1.45-1.63 1.46-1.62 1.45-1.63 1.47-1.61 1.46-1.62 1.46-1.61 1.47-1.6 1.47-1.61 1.47-1.6 1.48-1.59 1.47-1.59 1.48-1.59 1.48-1.58 1.49-1.58 1.48-1.57 1.49-1.57 1.49-1.57 1.5-1.56 1.49-1.55 1.5-1.56 1.5-1.55 1.51-1.54 1.5-1.54 1.51-1.54 1.51-1.54 1.51-1.53 1.52-1.52 1.51-1.52 1.52-1.52 1.53-1.51 1.52-1.51 1.53-1.51 1.53-1.5 1.53-1.49 1.53-1.5 1.54-1.49 1.54-1.48 1.54-1.48 1.54-1.48 1.55-1.47 1.55-1.47 1.55-1.46 1.55-1.46 1.56-1.46 1.55-1.45 1.56-1.45 1.57-1.45 1.56-1.44 1.57-1.43 1.57-1.43 1.57-1.43 1.57-1.43 1.58-1.42 1.58-1.41 1.58-1.41 1.59-1.41 1.58M522.77 198.25l-3.27 1-3.28 1.02-3.26 1.02-3.27 1.02-3.26 1.03-3.26 1.03-3.26 1.04-3.25 1.04-3.25 1.04-3.24 1.05-3.24 1.06-3.24 1.06-3.24 1.06-3.23 1.07-3.23 1.08-3.22 1.07-3.22 1.09-3.22 1.08-3.21 1.1-3.21 1.09-3.21 1.1-3.21 1.11-3.2 1.11-3.19 1.12-3.2 1.12-3.19 1.12-3.19 1.13-3.18 1.13-3.18 1.14-3.18 1.14-3.17 1.15-3.17 1.15-3.17 1.16-3.16 1.16-3.16 1.16-3.16 1.17-3.15 1.18-3.15 1.18-3.15 1.18-3.14 1.19-3.14 1.2-3.13 1.19-3.14 1.21-3.13 1.2-3.12 1.21-3.13 1.22-3.11 1.22-3.12 1.23-3.11 1.23-3.11 1.23-3.11 1.24-3.1 1.25-3.1 1.24-3.09 1.26-3.09 1.25-3.09 1.27-3.09 1.26-3.08 1.28-3.08 1.27-3.07 1.28-3.07 1.29-3.07 1.29-3.07 1.29-3.06 1.3-3.06 1.31-3.05 1.3-3.05 1.32-3.05 1.31-3.04 1.33-3.04 1.32-3.04 1.33-3.04 1.34-3.03 1.34-3.02 1.35-3.03 1.35-3.02 1.35-3.02 1.36-3.01 1.36-3.01 1.37-3.01 1.37-3 1.38-3 1.38-3 1.39-2.99 1.39-2.99 1.4-2.99 1.4-2.98 1.4-2.98 1.41-2.97 1.42-2.98 1.42-2.97 1.42-2.96 1.43-2.96 1.43-2.96 1.44-2.96 1.44-2.95 1.45-2.95 1.45-2.95 1.45-2.94 1.46M522.77 198.25l-1.41 1.58-1.41 1.59-1.41 1.58-1.42 1.58-1.43 1.57-1.43 1.58-1.43 1.57-1.43 1.57-1.44 1.57-1.45 1.56-1.45 1.56-1.45 1.56-1.46 1.56-1.46 1.56-1.46 1.55-1.47 1.55-1.47 1.55-1.48 1.55-1.48 1.54-1.48 1.54-1.49 1.54-1.5 1.54-1.49 1.53-1.5 1.53-1.51 1.53-1.51 1.53-1.51 1.52-1.52 1.52-1.52 1.52-1.52 1.52-1.53 1.52-1.54 1.51-1.53 1.51-1.55 1.51-1.54 1.5-1.55 1.5-1.56 1.51-1.55 1.49-1.56 1.5-1.57 1.49-1.57 1.49-1.57 1.49-1.58 1.49-1.58 1.48-1.59 1.49-1.59 1.47-1.59 1.48-1.6 1.48-1.6 1.47-1.61 1.47-1.61 1.47-1.62 1.46-1.61 1.46-1.63 1.46-1.62 1.46-1.63 1.46-1.64 1.45-1.64 1.45-1.64 1.45-1.65 1.44-1.65 1.45-1.65 1.44-1.66 1.44-1.66 1.43-1.67 1.44-1.67 1.43-1.68 1.43-1.68 1.43-1.68 1.42-1.69 1.42-1.69 1.42-1.69 1.42-1.7 1.42-1.71 1.41-1.7 1.41-1.72 1.41-1.71 1.4-1.72 1.41-1.73 1.4-1.72 1.39-1.74 1.4-1.73 1.39-1.74 1.4-1.75 1.38-1.74 1.39-1.76 1.38-1.75 1.39-1.76 1.38-1.77 1.37-1.76 1.38-1.78 1.37-1.77 1.37-1.78 1.37-1.79 1.36-1.79 1.37-1.79 1.36-1.8 1.35-1.8 1.36-1.8 1.35" style="stroke-width:1.07;stroke:#000;stroke-opacity:.1;stroke-linecap:butt"/><path d="m522.77 198.25-2.94 1.46-2.95 1.45-2.94 1.45-2.96 1.45-2.95 1.44-2.96 1.44-2.96 1.43-2.97 1.43-2.97 1.42-2.97 1.42-2.98 1.42-2.98 1.41-2.98 1.4-2.99 1.4-2.99 1.4-2.99 1.39-3 1.38-3 1.39-3 1.37-3.01 1.38-3.01 1.37-3.01 1.36-3.02 1.36-3.02 1.35-3.02 1.35-3.03 1.35-3.03 1.34-3.03 1.33-3.04 1.34-3.04 1.32-3.05 1.32-3.04 1.32-3.06 1.32-3.05 1.3-3.06 1.31-3.06 1.3-3.06 1.29-3.07 1.29-3.07 1.29-3.08 1.28-3.08 1.27-3.08 1.27-3.08 1.27-3.09 1.26-3.09 1.26-3.1 1.25-3.1 1.25-3.1 1.25-3.11 1.24-3.1 1.23-3.12 1.23-3.11 1.23-3.12 1.22-3.12 1.21-3.13 1.22-3.13 1.2-3.13 1.21-3.14 1.19-3.14 1.2-3.14 1.19-3.15 1.18-3.15 1.18-3.15 1.17-3.16 1.17-3.16 1.17-3.16 1.16-3.17 1.16-3.17 1.15-3.17 1.15-3.18 1.14-3.18 1.14-3.18 1.13-3.19 1.13-3.19 1.12-3.19 1.12-3.2 1.12-3.2 1.11-3.21 1.1-3.2 1.11-3.21 1.09-3.22 1.09-3.22 1.09-3.22 1.08-3.22 1.08-3.23 1.08-3.23 1.07-3.24 1.06-3.23 1.06-3.25 1.05-3.24 1.05-3.25 1.05-3.25 1.04-3.26 1.04-3.25 1.03-3.27 1.03-3.26 1.02-3.27 1.02-3.27 1.01-3.28 1.01" style="stroke-width:1.07;stroke:#000;stroke-opacity:.1;stroke-linecap:butt"/><path d="m150.85 140.07 2.15 2.06 2.15 2.05 2.15 2.06 2.15 2.06 2.15 2.05 2.15 2.06 2.15 2.06 2.15 2.06 2.15 2.05 2.15 2.06 2.15 2.06 2.15 2.06 2.16 2.05 2.15 2.06 2.15 2.06 2.15 2.06 2.15 2.05 2.15 2.06 2.15 2.06 2.15 2.06 2.15 2.05 2.15 2.06 2.15 2.06 2.15 2.06 2.15 2.05 2.15 2.06 2.15 2.06 2.15 2.06 2.15 2.05 2.15 2.06 2.15 2.06 2.15 2.06 2.16 2.05 2.15 2.06 2.15 2.06 2.15 2.05 2.15 2.06 2.15 2.06 2.15 2.06 2.15 2.05 2.15 2.06 2.15 2.06 2.15 2.06 2.15 2.05 2.15 2.06 2.15 2.06 2.15 2.06 2.15 2.05 2.15 2.06 2.15 2.06 2.15 2.06 2.15 2.05 2.16 2.06 2.15 2.06 2.15 2.06 2.15 2.05 2.15 2.06 2.15 2.06 2.15 2.06 2.15 2.05 2.15 2.06 2.15 2.06 2.15 2.06 2.15 2.05 2.15 2.06 2.15 2.06 2.15 2.05 2.15 2.06 2.15 2.06 2.15 2.06 2.15 2.05 2.15 2.06 2.16 2.06 2.15 2.06 2.15 2.05 2.15 2.06 2.15 2.06 2.15 2.06 2.15 2.05 2.15 2.06 2.15 2.06 2.15 2.06 2.15 2.05 2.15 2.06 2.15 2.06 2.15 2.06 2.15 2.05 2.15 2.06 2.15 2.06 2.15 2.06 2.15 2.05 2.15 2.06 2.16 2.06 2.15 2.06 2.15 2.05 2.15 2.06 2.15 2.06 2.15 2.05 2.15 2.06M150.85 140.07l.65 1.82.64 1.82.65 1.82.65 1.83.65 1.82.65 1.82.64 1.82.65 1.83.65 1.82.65 1.82.65 1.82.64 1.83.65 1.82.65 1.82.65 1.82.64 1.83.65 1.82.65 1.82.65 1.82.65 1.83.64 1.82.65 1.82.65 1.82.65 1.82.65 1.83.64 1.82.65 1.82.65 1.82.65 1.83.65 1.82.64 1.82.65 1.82.65 1.83.65 1.82.65 1.82.64 1.82.65 1.83.65 1.82.65 1.82.64 1.82.65 1.83.65 1.82.65 1.82.65 1.82.64 1.82.65 1.83.65 1.82.65 1.82.65 1.82.64 1.83.65 1.82.65 1.82.65 1.82.65 1.83.64 1.82.65 1.82.65 1.82.65 1.83.64 1.82.65 1.82.65 1.82.65 1.82.65 1.83.64 1.82.65 1.82.65 1.82.65 1.83.65 1.82.64 1.82.65 1.82.65 1.83.65 1.82.65 1.82.64 1.82.65 1.83.65 1.82.65 1.82.65 1.82.64 1.83.65 1.82.65 1.82.65 1.82.64 1.82.65 1.83.65 1.82.65 1.82.65 1.82.64 1.83.65 1.82.65 1.82.65 1.82.65 1.83.64 1.82.65 1.82.65 1.82.65 1.83.65 1.82.64 1.82.65 1.82" style="stroke-width:1.07;stroke:#000;stroke-opacity:.1;stroke-linecap:butt"/><path d="m55.97 465.99 3.11-1.24 3.11-1.23 3.1-1.23 3.11-1.24 3.11-1.23 3.11-1.24 3.11-1.23 3.11-1.24 3.11-1.23 3.11-1.24 3.11-1.23 3.1-1.24 3.11-1.23 3.11-1.24 3.11-1.23 3.11-1.24 3.11-1.23 3.11-1.24 3.11-1.23 3.11-1.24 3.1-1.23 3.11-1.23 3.11-1.24 3.11-1.23 3.11-1.24 3.11-1.23 3.11-1.24 3.11-1.23 3.11-1.24 3.1-1.23 3.11-1.24 3.11-1.23 3.11-1.24 3.11-1.23 3.11-1.24 3.11-1.23 3.11-1.24 3.11-1.23 3.1-1.23 3.11-1.24 3.11-1.23 3.11-1.24 3.11-1.23 3.11-1.24 3.11-1.23 3.11-1.24 3.11-1.23 3.1-1.24 3.11-1.23 3.11-1.24 3.11-1.23 3.11-1.24 3.11-1.23 3.11-1.24 3.11-1.23 3.11-1.23 3.1-1.24 3.11-1.23 3.11-1.24 3.11-1.23 3.11-1.24 3.11-1.23 3.11-1.24 3.11-1.23 3.11-1.24 3.1-1.23 3.11-1.24 3.11-1.23 3.11-1.24 3.11-1.23 3.11-1.24 3.11-1.23 3.11-1.24 3.11-1.23 3.1-1.23 3.11-1.24 3.11-1.23 3.11-1.24 3.11-1.23 3.11-1.24 3.11-1.23 3.11-1.24 3.11-1.23 3.11-1.24 3.1-1.23 3.11-1.24 3.11-1.23 3.11-1.24 3.11-1.23 3.11-1.24 3.11-1.23 3.11-1.23 3.11-1.24 3.1-1.23 3.11-1.24 3.11-1.23 3.11-1.24 3.11-1.23 3.11-1.24M55.97 465.99l1.6-1.47 1.61-1.47 1.61-1.47 1.6-1.47 1.61-1.47 1.61-1.47 1.6-1.47 1.61-1.47 1.6-1.47 1.61-1.47 1.61-1.47 1.6-1.47 1.61-1.47 1.61-1.47 1.6-1.47 1.61-1.47 1.6-1.47 1.61-1.47 1.61-1.47 1.6-1.47 1.61-1.47 1.61-1.47 1.6-1.47 1.61-1.46 1.61-1.47 1.6-1.47 1.61-1.47 1.6-1.47 1.61-1.47 1.61-1.47 1.6-1.47 1.61-1.47 1.61-1.47 1.6-1.47 1.61-1.47 1.6-1.47 1.61-1.47 1.61-1.47 1.6-1.47 1.61-1.47 1.61-1.47 1.6-1.47 1.61-1.47 1.6-1.47 1.61-1.47 1.61-1.47 1.6-1.47 1.61-1.47 1.61-1.47 1.6-1.47 1.61-1.47 1.61-1.47 1.6-1.47 1.61-1.47 1.6-1.47 1.61-1.47 1.61-1.47 1.6-1.47 1.61-1.47 1.61-1.47 1.6-1.47 1.61-1.47 1.6-1.47 1.61-1.47 1.61-1.47 1.6-1.46 1.61-1.47 1.61-1.47 1.6-1.47 1.61-1.47 1.6-1.47 1.61-1.47 1.61-1.47 1.6-1.47 1.61-1.47 1.61-1.47 1.6-1.47 1.61-1.47 1.61-1.47 1.6-1.47 1.61-1.47 1.6-1.47 1.61-1.47 1.61-1.47 1.6-1.47 1.61-1.47 1.61-1.47 1.6-1.47 1.61-1.47 1.6-1.47 1.61-1.47 1.61-1.47 1.6-1.47 1.61-1.47 1.61-1.47 1.6-1.47 1.61-1.47 1.6-1.47 1.61-1.47" style="stroke-width:1.07;stroke:#000;stroke-opacity:.1;stroke-linecap:butt"/><path d="m214.99 320.48 1.38.67 1.38.67 1.38.65 1.38.64 1.39.64 1.38.63 1.4.61 1.39.61 1.4.6 1.39.59 1.41.59 1.4.57 1.41.56 1.41.56 1.41.55 1.41.53 1.42.53 1.42.52 1.42.51 1.43.51 1.42.49 1.43.48 1.44.48 1.43.46 1.44.46 1.44.45 1.44.44 1.45.43 1.45.42 1.45.42 1.45.4 1.46.4 1.46.38 1.46.38 1.46.37 1.47.36 1.47.35 1.47.34 1.47.33 1.48.33 1.48.31 1.48.31 1.48.3 1.49.28 1.49.28 1.49.27 1.5.27 1.49.25 1.5.24 1.51.24 1.5.22 1.51.22 1.51.21 1.51.2 1.52.19 1.52.18 1.52.17 1.52.17 1.53.15 1.53.15 1.53.14 1.53.12 1.54.12 1.54.11 1.54.11 1.54.09 1.55.08 1.55.08 1.55.06 1.55.06 1.56.05 1.56.04 1.56.03 1.57.02 1.56.01 1.57.01 1.58-.01 1.57-.01 1.58-.03 1.58-.03 1.58-.04 1.59-.05 1.59-.06 1.59-.07 1.59-.07 1.6-.09 1.59-.09 1.61-.11 1.6-.11 1.61-.12 1.6-.13 1.62-.14 1.61-.14 1.62-.16 1.62-.17 1.62-.17 1.62-.18 1.63-.2 1.63-.2" style="stroke-width:1.07;stroke:#000;stroke-opacity:.1;stroke-linecap:butt"/><path d="m214.99 320.48 1.44.46 1.44.44 1.44.45 1.45.44 1.44.43 1.45.43 1.44.43 1.45.42 1.45.42 1.45.41 1.45.41 1.46.41 1.45.4 1.46.39 1.45.39 1.46.39 1.46.38 1.46.38 1.47.37 1.46.37 1.46.36 1.47.36 1.47.36 1.47.35 1.47.35 1.47.34 1.47.33 1.48.34 1.47.33 1.48.32 1.48.32 1.48.31 1.48.32 1.48.3 1.48.3 1.49.3 1.48.29 1.49.29 1.49.29 1.49.28 1.49.27 1.49.27 1.49.27 1.5.26 1.49.26 1.5.25 1.5.25 1.5.24 1.5.24 1.5.24 1.51.23 1.5.22 1.51.23 1.51.21 1.51.22 1.51.2 1.51.21 1.51.2 1.52.19 1.51.19 1.52.19 1.52.18 1.52.18 1.52.17 1.52.17 1.52.16 1.53.16 1.52.16 1.53.15 1.53.14 1.53.14 1.53.14 1.53.13 1.54.13 1.53.13 1.54.12 1.53.11 1.54.11 1.54.11 1.54.1 1.55.1 1.54.09 1.55.09 1.54.08 1.55.08 1.55.07 1.55.07 1.55.07 1.56.06 1.55.06 1.56.05 1.55.05 1.56.04 1.56.04 1.56.04 1.56.03 1.57.02 1.56.03 1.57.01" style="stroke-width:1.07;stroke:#000;stroke-opacity:.1;stroke-linecap:butt"/><path d="m214.99 320.48 1.5.24 1.51.23 1.5.24 1.5.23 1.5.24 1.51.23 1.5.24 1.5.23 1.5.24 1.51.23 1.5.24 1.5.23 1.51.24 1.5.23 1.5.24 1.5.23 1.51.24 1.5.23 1.5.24 1.5.23 1.51.24 1.5.23 1.5.24 1.5.23 1.51.24 1.5.23 1.5.24 1.5.23 1.51.24 1.5.23 1.5.24 1.5.23 1.51.24 1.5.23 1.5.24 1.5.23 1.51.24 1.5.23 1.5.24 1.51.23 1.5.24 1.5.23 1.5.24 1.51.23 1.5.24 1.5.23 1.5.24 1.51.23 1.5.24 1.5.24 1.5.23 1.51.24 1.5.23 1.5.24 1.5.23 1.51.24 1.5.23 1.5.24 1.5.23 1.51.24 1.5.23 1.5.24 1.5.23 1.51.24 1.5.23 1.5.24 1.51.23 1.5.24 1.5.23 1.5.24 1.51.23 1.5.24 1.5.23 1.5.24 1.51.23 1.5.24 1.5.23 1.5.24 1.51.23 1.5.24 1.5.23 1.5.24 1.51.23 1.5.24 1.5.23 1.5.24 1.51.23 1.5.24 1.5.23 1.51.24 1.5.23 1.5.24 1.5.23 1.51.24 1.5.23 1.5.24 1.5.23 1.51.24 1.5.23" style="stroke-width:1.07;stroke:#000;stroke-opacity:.1;stroke-linecap:butt"/><path d="m214.99 320.48 1.57.02 1.56.02 1.57.03 1.56.03 1.56.03 1.56.04 1.56.05 1.55.04 1.56.06 1.55.05 1.56.06 1.55.07 1.55.07 1.55.08 1.55.07 1.54.09 1.55.09 1.54.09 1.55.1 1.54.1 1.54.1 1.54.11 1.53.12 1.54.12 1.53.12 1.54.13 1.53.13 1.53.14 1.53.14 1.53.15 1.53.15 1.52.15 1.53.16 1.52.17 1.52.17 1.52.17 1.52.18 1.52.18 1.52.18 1.51.19 1.52.2 1.51.2 1.51.2 1.51.21 1.51.21 1.51.22 1.51.22 1.5.23 1.51.23 1.5.23 1.5.24 1.5.25 1.5.25 1.5.25 1.49.26 1.5.26 1.49.26 1.49.27 1.49.28 1.49.28 1.49.28 1.49.29 1.48.29 1.49.3 1.48.3 1.48.31 1.48.31 1.48.32 1.48.31 1.48.33 1.47.33 1.48.33 1.47.34 1.47.34 1.47.35 1.47.35 1.47.35 1.46.36 1.47.37 1.46.36 1.47.38 1.46.37 1.46.39 1.46.38 1.45.39 1.46.4 1.45.4 1.46.4 1.45.41 1.45.41 1.45.42 1.45.42 1.44.43 1.45.43 1.44.44 1.45.44 1.44.44 1.44.45 1.44.45" style="stroke-width:1.07;stroke:#000;stroke-opacity:.1;stroke-linecap:butt"/><path d="m214.99 320.48 1.63-.2 1.63-.19 1.62-.18 1.62-.18 1.62-.16 1.62-.16 1.61-.15 1.62-.14 1.6-.13 1.61-.12 1.6-.11 1.6-.1 1.6-.1 1.6-.08 1.59-.08 1.59-.07 1.59-.06 1.59-.04 1.58-.05 1.58-.03 1.58-.02 1.57-.01 1.58-.01h1.57l1.56.02 1.57.02 1.56.03 1.56.04 1.56.05 1.55.05 1.55.07 1.55.07 1.55.09 1.54.09 1.54.1 1.54.11 1.54.12 1.53.13 1.53.14 1.53.14 1.53.16 1.52.16 1.52.17 1.52.19 1.52.19 1.51.2 1.51.2 1.51.22 1.5.23 1.51.23 1.5.25 1.49.25 1.5.26 1.49.27 1.49.28 1.49.29 1.48.3 1.48.3 1.48.32 1.48.32 1.47.33 1.47.35 1.47.35 1.47.36 1.46.37 1.46.37 1.46.39 1.46.39 1.45.41 1.45.41 1.45.42 1.45.43 1.44.44 1.44.45 1.44.46 1.43.47 1.44.47 1.43.49 1.42.49 1.43.5 1.42.51 1.42.52 1.42.53 1.41.54 1.41.55 1.41.55 1.41.57 1.4.57 1.41.58 1.39.59 1.4.6 1.39.61 1.4.62 1.38.63 1.39.63 1.38.65 1.38.65 1.38.66 1.38.67" style="stroke-width:1.07;stroke:#000;stroke-opacity:.1;stroke-linecap:butt"/><path d="m427.89 521.96 1.92 3.31h-3.83zM522.77 191.89l5.51 9.54h-11.01zM150.85 137.86l1.91 3.31h-3.83zM55.97 463.78l1.91 3.31h-3.83z" style="stroke-width:.71;stroke:none;fill:#00ba38"/><path d="M208.24 327.24h13.51v-13.51h-13.51z" style="stroke-width:.71;stroke:none;fill:#619cff"/><circle cx="363.75" cy="343.75" r="6.76" style="stroke-width:.71;stroke:none;fill:#f8766d"/><path d="m423 527.48 3.91-2.65M145.42 144.76l4.55-3.93M220.45 315.86l-4.57 3.87M369.19 339.14l-4.55 3.86" style="stroke-width:.53;stroke:#bfbfbf"/><path d="M347.65 539.77h73.19-.08l.35-.01.34-.07.32-.13.3-.17.27-.22.23-.26.19-.29.13-.32.09-.34.02-.35v-15.22l-.02-.35-.09-.33-.13-.32-.19-.3-.23-.26-.27-.22-.3-.17-.32-.12-.34-.07-.27-.02h-73.19l.26.02-.35-.02-.34.04-.34.1-.31.15-.29.2-.25.24-.21.28-.16.3-.11.33-.05.35-.01.17v15.22l.01-.17v.35l.05.34.11.33.16.31.21.27.25.25.29.19.31.15.34.1.34.04z" style="stroke-width:.53;fill:#fff;fill-opacity:.5"/><text x="384.25" y="527.98" lengthAdjust="spacingAndGlyphs" style="font-size:5.69px;font-family:&quot;Liberation Sans&quot;" text-anchor="middle" textLength="70.32">ADS INVESTMENTS 2523</text><text x="384.25" y="536.17" lengthAdjust="spacingAndGlyphs" style="font-size:5.69px;font-family:&quot;Liberation Sans&quot;" text-anchor="middle" textLength="10.31">LLC</text><path d="M446.8 203.78h69.02-.09l.35-.01.34-.07.33-.13.3-.17.27-.22.23-.26.18-.29.14-.32.08-.34.03-.35v-7.02l-.03-.35-.08-.34-.14-.32-.18-.29-.23-.26-.27-.22-.3-.18-.33-.12-.34-.07-.26-.01H446.8l.26.01-.35-.01-.34.04-.34.1-.31.14-.29.2-.25.24-.21.28-.16.31-.11.33-.05.34-.01.18v7.02l.01-.17v.35l.05.34.11.33.16.31.21.28.25.24.29.19.31.15.34.1.34.04z" style="stroke-width:.53;fill:#fff;fill-opacity:.5"/><text x="481.31" y="200.18" lengthAdjust="spacingAndGlyphs" style="font-size:5.69px;font-family:&quot;Liberation Sans&quot;" text-anchor="middle" textLength="66.14">ADS INVESTMENTS LLC</text><path d="M96.67 164.3h73.19-.08l.34-.01.35-.07.32-.12.3-.18.27-.22.23-.26.19-.29.13-.32.09-.34.02-.35v-15.22l-.02-.34-.09-.34-.13-.32-.19-.29-.23-.26-.27-.22-.3-.18-.32-.12-.35-.07-.26-.02H96.67l.26.02-.35-.02-.34.05-.34.09-.31.15-.29.2-.25.24-.21.28-.16.31-.11.33-.05.34-.01.17v15.22l.01-.17v.35l.05.34.11.33.16.31.21.28.25.24.29.2.31.14.34.1.34.04z" style="stroke-width:.53;fill:#fff;fill-opacity:.5"/><text x="133.27" y="152.51" lengthAdjust="spacingAndGlyphs" style="font-size:5.69px;font-family:&quot;Liberation Sans&quot;" text-anchor="middle" textLength="70.32">ADS INVESTMENTS 2652</text><text x="133.27" y="160.7" lengthAdjust="spacingAndGlyphs" style="font-size:5.69px;font-family:&quot;Liberation Sans&quot;" text-anchor="middle" textLength="10.31">LLC</text><path d="M62.93 471.73h68.29-.08l.34-.02.35-.07.32-.12.3-.17.27-.22.23-.26.19-.3.13-.32.09-.34.02-.34v-7.03l-.02-.35-.09-.33-.13-.32-.19-.3-.23-.26-.27-.22-.3-.17-.32-.12-.35-.07-.26-.02H62.93l.26.02-.35-.02-.35.04-.33.1-.31.15-.29.2-.25.24-.21.28-.16.3-.11.33-.06.35v7.2-.18.35l.06.34.11.33.16.31.21.28.25.24.29.2.31.15.33.09.35.05z" style="stroke-width:.53;fill:#fff;fill-opacity:.5"/><text x="97.07" y="468.13" lengthAdjust="spacingAndGlyphs" style="font-size:5.69px;font-family:&quot;Liberation Sans&quot;" text-anchor="middle" textLength="65.42">HSF INVESTMENTS LLC</text><path d="M202.94 315.86h69.04l-.09-.01.35-.01.34-.07.32-.12.3-.18.27-.22.23-.26.19-.29.13-.32.09-.34.03-.34v-23.42l-.03-.35-.09-.33-.13-.32-.19-.3-.23-.26-.27-.22-.3-.17-.32-.12-.34-.07-.26-.02h-69.04l.26.02-.35-.02-.35.04-.33.1-.31.15-.29.2-.25.24-.21.28-.16.3-.11.33-.06.35V313.7v-.18.35l.06.34.11.33.16.31.21.28.25.24.29.2.31.15.33.09.35.04z" style="stroke-width:.53;fill:#fff;fill-opacity:.5"/><text x="237.46" y="295.87" lengthAdjust="spacingAndGlyphs" style="font-size:5.69px;font-family:&quot;Liberation Sans&quot;" text-anchor="middle" textLength="66.16">2050 N COMMERCE ST,</text><text x="237.46" y="304.06" lengthAdjust="spacingAndGlyphs" style="font-size:5.69px;font-family:&quot;Liberation Sans&quot;" text-anchor="middle" textLength="65.17">UNIT 202, MILWAUKEE,</text><text x="237.46" y="312.26" lengthAdjust="spacingAndGlyphs" style="font-size:5.69px;font-family:&quot;Liberation Sans&quot;" text-anchor="middle" textLength="27.22">WI 53212</text><path d="M351.7 339.14h69.04-.08l.35-.02.34-.06.32-.13.3-.17.27-.22.23-.26.19-.3.13-.32.09-.33.02-.35v-23.42l-.02-.34-.09-.34-.13-.32-.19-.29-.23-.26-.27-.22-.3-.18-.32-.12-.34-.07-.27-.02H351.7l.26.02-.34-.01-.35.04-.33.09-.32.15-.28.2-.25.24-.21.28-.16.31-.11.33-.06.34-.01.17v23.42l.01-.17v.34l.06.35.11.33.16.3.21.28.25.24.28.2.32.15.33.1.35.04z" style="stroke-width:.53;fill:#fff;fill-opacity:.5"/><text x="386.22" y="319.15" lengthAdjust="spacingAndGlyphs" style="font-size:5.69px;font-family:&quot;Liberation Sans&quot;" text-anchor="middle" textLength="66.16">2050 N COMMERCE ST,</text><text x="386.22" y="327.35" lengthAdjust="spacingAndGlyphs" style="font-size:5.69px;font-family:&quot;Liberation Sans&quot;" text-anchor="middle" textLength="65.17">UNIT 202, MILWAUKEE,</text><text x="386.22" y="335.54" lengthAdjust="spacingAndGlyphs" style="font-size:5.69px;font-family:&quot;Liberation Sans&quot;" text-anchor="middle" textLength="27.22">WI 53212</text></g><g clip-path="url(#cpMC4wMHw1NzYuMDB8MC4wMHw1NzYuMDA=)"><circle cx="196.98" cy="95.78" r="1.95" style="stroke-width:.71;stroke:none;fill:#f8766d"/><path d="m273.33 92.74 2.63 4.56h-5.26z" style="stroke-width:.71;stroke:none;fill:#00ba38"/><path d="M339.31 97.74h3.91v-3.91h-3.91z" style="stroke-width:.71;stroke:none;fill:#619cff"/><text x="211.09" y="98.81" lengthAdjust="spacingAndGlyphs" style="font-size:8.8px;font-family:&quot;Liberation Sans Narrow&quot;" textLength="48.12">mprop address</text><text x="287.45" y="98.81" lengthAdjust="spacingAndGlyphs" style="font-size:8.8px;font-family:&quot;Liberation Sans Narrow&quot;" textLength="39.69">owner name</text><text x="355.38" y="98.81" lengthAdjust="spacingAndGlyphs" style="font-size:8.8px;font-family:&quot;Liberation Sans Narrow&quot;" textLength="40.5">wdfi address</text><text x="32.63" y="64.23" lengthAdjust="spacingAndGlyphs" style="font-size:12px;font-family:&quot;Liberation Sans Narrow&quot;" textLength="241.29">includes 5 parcels, 9 units, and 4 distinct owner names.</text><text x="32.63" y="42.27" lengthAdjust="spacingAndGlyphs" style="font-size:18px;font-weight:700;font-family:&quot;Liberation Sans Narrow&quot;" textLength="221.37">ADS INVESTMENTS LLC Group</text></g></svg>