<svg xmlns="http://www.w3.org/2000/svg" width="768" height="768" viewBox="0 0 576 576"><g class="svglite"><defs><style><![CDATA[.svglite line,.svglite polyline,.svglite polygon,.svglite path,.svglite circle{fill:none;stroke:#000000;stroke-linecap:round;stroke-linejoin:round;stroke-miterlimit:10.00}.svglite text{white-space:pre}.svglite g.glyphgroup path{fill:inherit;stroke:none}]]></style></defs><rect width="100%" height="100%" style="stroke-linecap:round;stroke-linejoin:round;stroke-miterlimit:10.00;stroke:none;fill:#FFFFFF"/><defs><clipPath id="cpMC4wMHw1NzYuMDB8MC4wMHw1NzYuMDA="><path d="M0 0h576v576H0z"/></clipPath></defs><g clip-path="url(#cpMC4wMHw1NzYuMDB8MC4wMHw1NzYuMDA=)"><path d="M0 0h576v576H0z" style="stroke-width:1.07;stroke:none;fill:#FFFFFF"/></g><defs><clipPath id="cpMjkuODl8NTQ2LjExfDEyMi4xNHw1NDYuMTE="><path d="M29.89 122.14h516.22v423.97H29.89z"/></clipPath></defs><g clip-path="url(#cpMjkuODl8NTQ2LjExfDEyMi4xNHw1NDYuMTE=)"><path d="M214.67 251.43v-1.34l-.02-.67-.03-.67-.04-.66-.05-.66-.05-.66-.07-.65-.08-.66-.09-.65-.09-.65-.11-.65-.12-.64-.12-.64-.14-.64-.15-.64-.15-.63-.17-.64-.17-.63-.19-.62-.19-.63-.21-.62-.21-.62-.23-.62-.23-.61-.25-.62-.25-.61-.27-.61-.27-.6-.28-.6-.3-.6-.3-.6-.31-.6-.33-.59-.33-.59-.34-.59-.36-.59-.36-.58-.37-.59-.38-.57-.39-.58-.41-.58-.41-.57-.42-.57-.43-.56-.44-.57-.45-.56-.46-.56-.47-.56-.48-.55-.49-.56-.5-.55-.51-.54-.52-.55-.53-.54-.54-.54-.55-.54-.56-.54-.57-.53-.57-.53-.59-.53-.6-.53-.61-.52-.62-.52-.62-.52-.64-.52-.65-.51-.66-.51-.66-.51-.68-.51-.69-.5-.69-.5-.71-.5-.71-.5-.73-.5-.74-.49-.74-.49-.76-.49-.76-.48-.78-.48-.78-.48-.8-.48-.8-.48-.82-.47-.82-.47-.83-.47-.85-.46-.85-.47-.86-.46-.88-.46-.88-.45-.89-.46-.91-.45-.91-.45-.92-.44-.93-.45-.95-.44-.95-.44-.96-.44" style="stroke-width:1.07;stroke:#000000;stroke-opacity:0.10;stroke-linecap:butt"/><path d="m214.67 251.43-.06-.65-.08-.66-.08-.65-.1-.65-.1-.65-.11-.64-.12-.65-.12-.64-.14-.64-.14-.64-.15-.63-.16-.64-.17-.63-.18-.63-.18-.62-.2-.63-.2-.62-.21-.62-.22-.62-.23-.62-.23-.62-.25-.61-.25-.61-.26-.61-.27-.6-.28-.61-.29-.6-.29-.6-.31-.6-.31-.6-.32-.59-.33-.59-.33-.59-.35-.59-.35-.59-.36-.58-.38-.58-.37-.58-.39-.58-.4-.58-.4-.57-.42-.57-.42-.57-.43-.57-.43-.57-.45-.56-.46-.56-.46-.56-.47-.56-.48-.55-.49-.55-.5-.56-.5-.54-.52-.55-.52-.55-.53-.54-.54-.54-.55-.54-.55-.53-.57-.54-.57-.53-.58-.53-.59-.53-.6-.52-.61-.53-.61-.52-.62-.52-.64-.52-.64-.51-.64-.52-.66-.51-.67-.51-.67-.51-.68-.5-.69-.51-.7-.5-.71-.5-.72-.49-.72-.5-.73-.49-.75-.49-.75-.49-.75-.49-.77-.48-.77-.49-.79-.48-.79-.48-.8-.47-.81-.48-.82-.47-.82-.47-.84-.47-.84-.46-.85-.47-.86-.46-.87-.46-.87-.46-.89-.45-.89-.46" style="stroke-width:1.07;stroke:#000000;stroke-opacity:0.10;stroke-linecap:butt"/><path d="m214.67 251.43-.13-.64-.15-.63-.15-.64-.15-.63-.17-.64-.17-.63-.18-.63-.18-.62-.2-.63-.2-.62-.2-.63-.22-.62-.22-.62-.22-.61-.24-.62-.24-.61-.25-.61-.25-.61-.27-.61-.27-.61-.27-.6-.29-.61-.29-.6-.3-.6-.3-.6-.31-.59-.32-.6-.33-.59-.33-.59-.34-.59-.35-.59-.35-.58-.36-.59-.37-.58-.37-.58-.39-.58-.39-.58-.39-.57-.4-.58-.41-.57-.42-.57-.43-.57-.43-.57-.43-.56-.45-.57-.45-.56-.46-.56-.47-.56-.47-.55-.48-.56-.49-.55-.49-.55-.5-.55-.51-.55-.52-.55-.52-.54-.53-.55-.54-.54-.54-.54-.55-.54-.56-.53-.56-.54-.57-.53-.58-.53-.59-.53-.59-.53-.6-.52-.6-.53-.62-.52-.62-.52-.63-.52-.63-.51-.64-.52-.65-.51-.66-.52-.66-.51-.67-.5-.68-.51-.68-.51-.69-.5-.7-.5-.7-.5-.72-.5-.71-.5-.73-.49-.73-.49-.74-.5-.75-.48-.75-.49-.76-.49-.77-.48-.78-.49-.78-.48-.79-.48-.79-.47-.81-.48-.81-.47-.81-.48-.83-.47m47.54 54.95.35.57.35.56.35.56.36.56.35.56.36.56.37.56.36.56.37.56.37.55.37.56.38.56.38.55.38.56.38.55.39.55.39.55.39.56.4.55.39.55.4.55.41.55.4.54.41.55.41.55.41.54.42.55.42.54.42.55.43.54.42.54.43.55.43.54.44.54.44.54.44.54.44.54.45.53.44.54.46.54.45.53.46.54.45.53.47.54.46.53.47.53.47.53.47.54.48.53.47.53.48.52.49.53.48.53.49.53.49.52.5.53.49.52.5.53.5.52.51.52.51.53.51.52.51.52.51.52.52.52.52.52.53.51.52.52.53.52.53.51.54.52.53.51.54.52.54.51.55.51.55.52.55.51.55.51.56.51.55.51.56.5.57.51.56.51.57.51.57.5.58.51.58.5.58.5.58.51.58.5.59.5.59.5.59.5.6.5.6.5.6.5.6.5.61.49.61.5" style="stroke-width:1.07;stroke:#000000;stroke-opacity:0.10;stroke-linecap:butt"/><path d="m214.67 251.43-.2-.62-.21-.62-.22-.62-.22-.62-.23-.62-.23-.61-.24-.62-.24-.61-.25-.61-.26-.61-.26-.61-.27-.61-.27-.6-.28-.61-.28-.6-.29-.6-.3-.6-.3-.6-.3-.6-.32-.6-.31-.59-.33-.6-.32-.59-.34-.59-.34-.59-.34-.59-.36-.58-.35-.59-.36-.58-.37-.58-.38-.59-.38-.58-.38-.57-.39-.58-.4-.58-.4-.57-.41-.57-.41-.58-.42-.57-.42-.56-.43-.57-.44-.57-.44-.56-.44-.57-.46-.56-.45-.56-.47-.56-.47-.56-.47-.55-.48-.56-.49-.55-.49-.55-.49-.55-.51-.55-.51-.55-.51-.55-.52-.54-.52-.55-.53-.54-.54-.54-.54-.54-.55-.54-.55-.54-.56-.53-.57-.54-.57-.53-.57-.53-.58-.53-.59-.53-.59-.53-.6-.53-.61-.52-.6-.52-.62-.53-.62-.52-.63-.51-.63-.52-.64-.52-.64-.51-.65-.52-.65-.51-.66-.51-.67-.51-.67-.51-.68-.51-.68-.5-.69-.51-.69-.5-.7-.5-.7-.5-.71-.5-.72-.5-.72-.49-.73-.5-.73-.49-.74-.49-.74-.49-.75-.49-.76-.49" style="stroke-width:1.07;stroke:#000000;stroke-opacity:0.10;stroke-linecap:butt"/><path d="m214.67 251.43-.27-.6-.28-.61-.28-.6-.29-.6-.29-.61-.29-.6-.3-.6-.31-.59-.3-.6-.32-.6-.31-.59-.32-.6-.33-.59-.32-.59-.34-.59-.33-.59-.35-.59-.34-.59-.35-.59-.35-.58-.36-.59-.37-.58-.36-.59-.37-.58-.38-.58-.38-.58-.38-.58-.39-.58-.39-.57-.4-.58-.4-.57-.4-.58-.41-.57-.41-.57-.42-.57-.42-.57-.43-.57-.42-.57-.44-.56-.44-.57-.44-.56-.45-.57-.45-.56-.45-.56-.46-.56-.46-.56-.47-.56-.47-.55-.48-.56-.48-.56-.48-.55-.49-.55-.5-.55-.49-.56-.5-.55-.51-.54-.51-.55-.51-.55-.52-.54-.52-.55-.53-.54-.53-.55-.54-.54-.53-.54-.55-.54-.55-.54-.55-.53-.55-.54-.56-.53-.57-.54-.57-.53-.57-.53-.58-.54-.58-.53-.58-.53-.59-.52-.6-.53-.6-.53-.6-.52-.6-.53-.62-.52-.61-.52-.62-.52-.62-.52-.63-.52-.63-.52-.64-.52-.64-.51-.64-.52-.65-.51-.65-.51-.66-.51-.66-.51-.67-.51-.67-.51-.67-.51-.68-.51-.68-.5-.69-.51m47.54 54.95.42.55.41.55.41.54.42.55.42.54.42.55.42.54.42.55.42.54.43.54.42.55.43.54.43.54.43.54.43.54.43.55.43.54.44.54.43.54.44.54.44.54.44.54.44.53.45.54.44.54.45.54.44.54.45.53.45.54.45.54.45.53.46.54.45.53.46.54.46.53.46.54.46.53.46.54.46.53.47.53.46.54.47.53.47.53.47.53.47.53.47.53.47.54.48.53.48.53.47.53.48.52.48.53.49.53.48.53.48.53.49.53.49.52.48.53.49.53.5.52.49.53.49.52.5.53.49.52.5.53.5.52.5.53.5.52.51.52.5.53.51.52.5.52.51.52.51.52.51.53.52.52.51.52.52.52.51.52.52.52.52.51.52.52.52.52.53.52.52.52.53.51.52.52.53.52.53.51.53.52.54.52.53.51.54.52.53.51.54.51.54.52.54.51.54.52.55.51" style="stroke-width:1.07;stroke:#000000;stroke-opacity:0.10;stroke-linecap:butt"/><path d="m214.67 251.43.48.53.48.53.48.53.47.53.48.53.48.53.48.53.48.53.47.53.48.53.48.53.48.53.48.53.47.53.48.53.48.53.48.53.47.53.48.53.48.53.48.53.48.53.47.52.48.53.48.53.48.53.47.53.48.53.48.53.48.53.48.53.47.53.48.53.48.53.48.53.47.53.48.53.48.53.48.53.48.53.47.53.48.53.48.53.48.53.48.53.47.53.48.53.48.53.48.53.47.53.48.53.48.52.48.53.48.53.47.53.48.53.48.53.48.53.47.53.48.53.48.53.48.53.48.53.47.53.48.53.48.53.48.53.48.53.47.53.48.53.48.53.48.53.47.53.48.53.48.53.48.53.48.53.47.53.48.53.48.52.48.53.47.53.48.53.48.53.48.53.48.53.47.53.48.53.48.53.48.53.48.53.47.53.48.53.48.53.48.53.47.53.48.53.48.53.48.53" style="stroke-width:1.07;stroke:#000000;stroke-opacity:0.10;stroke-linecap:butt"/><path d="m214.67 251.43.55.52.54.51.54.51.54.52.54.51.53.52.54.51.53.52.54.51.53.52.53.51.53.52.52.52.53.51.52.52.53.52.52.52.52.52.52.52.52.52.51.51.52.53.51.52.52.52.51.52.51.52.51.52.5.52.51.52.5.53.51.52.5.52.5.53.5.52.5.53.49.52.5.53.49.52.5.53.49.52.49.53.49.53.48.53.49.52.48.53.49.53.48.53.48.53.48.53.48.53.47.53.48.53.47.53.47.53.47.53.47.53.47.53.47.54.47.53.46.53.46.53.46.54.46.53.46.54.46.53.46.54.45.53.46.54.45.53.45.54.45.54.45.53.45.54.44.54.45.54.44.54.44.54.44.53.44.54.44.54.43.54.44.55.43.54.43.54.44.54.42.54.43.54.43.55.43.54.42.54.42.55.42.54.42.54.42.55.42.54.42.55.41.55.42.54.41.55m142.77 163.69-1.07-.17-1.07-.18-1.08-.17-1.07-.17-1.07-.17-1.08-.16-1.07-.17-1.08-.16-1.07-.16-1.08-.16-1.08-.16-1.07-.16-1.08-.15-1.08-.15-1.08-.16-1.08-.15-1.08-.15-1.08-.14-1.08-.15-1.08-.14-1.08-.15-1.08-.14-1.08-.14-1.09-.14-1.08-.13-1.09-.14-1.08-.13-1.08-.13-1.09-.13-1.09-.13-1.08-.13-1.09-.12-1.09-.13-1.08-.12-1.09-.12-1.09-.12-1.09-.12-1.09-.11-1.09-.12-1.09-.11-1.09-.11-1.1-.11-1.09-.11-1.09-.1-1.09-.11-1.1-.1-1.09-.1-1.1-.1-1.09-.1-1.1-.1-1.09-.1-1.1-.09-1.1-.09-1.1-.09-1.09-.09-1.1-.09-1.1-.09-1.1-.08-1.1-.08-1.1-.08-1.1-.08-1.11-.08-1.1-.08-1.1-.07-1.1-.08-1.11-.07-1.1-.07-1.11-.07-1.1-.07-1.11-.06-1.1-.07-1.11-.06-1.11-.06-1.1-.06-1.11-.06-1.11-.05-1.11-.06-1.11-.05-1.11-.05-1.11-.05-1.11-.05-1.11-.05-1.12-.04-1.11-.05-1.11-.04-1.11-.04-1.12-.04-1.11-.03-1.12-.04-1.11-.03-1.12-.04-1.12-.03-1.11-.03-1.12-.02-1.12-.03-1.12-.03-1.11-.02-1.12-.02-1.12-.02m108.48 9.61-.27-.64-.27-.64-.28-.64-.28-.63-.29-.64-.29-.63-.3-.63-.31-.63-.31-.62-.32-.63-.32-.63-.33-.62-.33-.62-.34-.62-.35-.62-.35-.61-.36-.62-.36-.61-.37-.61-.37-.61-.38-.61-.39-.61-.39-.61-.4-.6-.4-.6-.41-.6-.41-.6-.42-.6-.43-.6-.43-.59-.44-.6-.44-.59-.45-.59-.45-.59-.46-.58-.47-.59-.47-.58-.47-.58-.49-.58-.48-.58-.5-.58-.5-.58-.5-.57-.51-.57-.52-.57-.52-.57-.53-.57-.54-.57-.54-.56-.54-.57-.55-.56-.56-.56-.56-.56-.57-.56-.57-.55-.58-.56-.59-.55-.59-.55-.59-.55-.61-.55-.6-.54-.62-.55-.62-.54-.62-.54-.63-.54-.64-.54-.64-.54-.65-.53-.65-.54-.66-.53-.67-.53-.67-.53-.67-.52-.69-.53-.68-.52-.7-.53-.7-.52-.7-.52-.71-.52-.72-.51-.72-.52-.73-.51-.73-.51-.74-.51-.74-.51-.75-.51-.76-.5-.76-.51-.77-.5-.77-.5-.78-.5-.79-.5-.79-.49-.79-.5-.8-.49-.81-.49-.81-.49-.82-.49-.83-.49m-136.1-160.35-.34-.59-.34-.58-.35-.59-.35-.59-.36-.58-.35-.59-.36-.58-.37-.59-.36-.58-.37-.58-.37-.59-.37-.58-.38-.58-.38-.58-.38-.58-.39-.58-.38-.57-.39-.58-.4-.58-.39-.57-.4-.58-.4-.57-.41-.58-.41-.57-.41-.57-.41-.57-.41-.57-.42-.57-.42-.57-.43-.57-.42-.57-.43-.57-.44-.56-.43-.57-.44-.57-.44-.56-.45-.56-.44-.57-.45-.56-.45-.56-.46-.56-.46-.56-.46-.56-.46-.56-.47-.56-.46-.56-.48-.56-.47-.55-.48-.56-.48-.55-.48-.56-.49-.55-.49-.55-.49-.56-.49-.55-.5-.55-.5-.55-.5-.55-.51-.55-.51-.55-.51-.54-.51-.55-.52-.55-.52-.54-.52-.55-.52-.54-.53-.54-.53-.55-.54-.54-.53-.54-.54-.54-.54-.54-.55-.54-.55-.54-.55-.54-.55-.53-.56-.54-.56-.54-.56-.53-.56-.53-.57-.54-.57-.53-.57-.53-.58-.54-.58-.53-.58-.53-.58-.53-.59-.52-.59-.53-.59-.53-.6-.53-.59-.52-.6-.53-.61-.52-.6-.53-.61-.52-.62-.52-.61-.53-.62-.52" style="stroke-width:1.07;stroke:#000000;stroke-opacity:0.10;stroke-linecap:butt"/><path d="m214.67 251.43-.41-.57-.41-.57-.42-.57-.41-.57-.42-.57-.42-.57-.42-.57-.42-.57-.42-.57-.42-.57-.43-.57-.43-.57-.42-.57-.43-.56-.44-.57-.43-.57-.43-.56-.44-.57-.43-.56-.44-.57-.44-.57-.44-.56-.45-.56-.44-.57-.44-.56-.45-.57-.45-.56-.45-.56-.45-.56-.45-.56-.45-.57-.46-.56-.46-.56-.45-.56-.46-.56-.46-.56-.46-.56-.47-.56-.46-.56-.47-.56-.47-.55-.47-.56-.47-.56-.47-.56-.47-.55-.48-.56-.47-.56-.48-.55-.48-.56-.48-.55-.48-.56-.48-.55-.49-.55-.48-.56-.49-.55-.49-.55-.49-.56-.49-.55-.49-.55-.5-.55-.49-.55-.5-.56-.5-.55-.5-.55-.5-.55-.5-.55-.51-.54-.5-.55-.51-.55-.51-.55-.51-.55-.51-.55-.51-.54-.51-.55-.52-.55-.52-.54-.52-.55-.51-.54-.53-.55-.52-.54-.52-.55-.53-.54-.52-.54-.53-.55-.53-.54-.53-.54-.53-.55-.54-.54-.53-.54-.54-.54-.54-.54-.54-.54-.54-.54-.54-.54-.54-.54-.55-.54-.54-.54-.55-.54-.55-.54" style="stroke-width:1.07;stroke:#000000;stroke-opacity:0.10;stroke-linecap:butt"/><path d="m214.67 251.43-.48-.55-.48-.56-.48-.55-.48-.56-.48-.55-.48-.56-.48-.55-.48-.56-.48-.55-.48-.56-.48-.55-.48-.56-.48-.55-.48-.56-.48-.55-.48-.56-.48-.55-.48-.56-.48-.55-.48-.56-.48-.55-.48-.56-.48-.55-.48-.56-.48-.55-.48-.56-.48-.55-.48-.56-.48-.55-.48-.56-.48-.55-.48-.56-.48-.55-.48-.56-.48-.55-.48-.56-.48-.55-.49-.56-.48-.55-.48-.56-.48-.55-.48-.56-.48-.55-.48-.56-.48-.55-.48-.56-.48-.55-.48-.56-.48-.55-.48-.56-.48-.55-.48-.56-.48-.55-.48-.56-.48-.55-.48-.56-.48-.55-.48-.56-.48-.55-.48-.56-.48-.55-.48-.56-.48-.56-.48-.55-.48-.56-.48-.55-.48-.56-.48-.55-.48-.56-.48-.55-.48-.56-.48-.55-.48-.56-.48-.55-.48-.56-.48-.55-.48-.56-.48-.55-.48-.56-.48-.55-.48-.56-.48-.55-.49-.56-.48-.55-.48-.56-.48-.55-.48-.56-.48-.55-.48-.56-.48-.55-.48-.56-.48-.55-.48-.56-.48-.55-.48-.56-.48-.55-.48-.56-.48-.55-.48-.56m237.62 271.08-.59.6-.58.6-.59.6-.58.59-.59.6-.59.6-.58.6-.59.6-.58.6-.59.6-.58.6-.59.6-.59.59-.58.6-.59.6-.58.6-.59.6-.58.6-.59.6-.59.6-.58.59-.59.6-.58.6-.59.6-.59.6-.58.6-.59.6-.58.6-.59.59-.58.6-.59.6-.59.6-.58.6-.59.6-.58.6-.59.6-.58.6-.59.59-.59.6-.58.6-.59.6-.58.6-.59.6-.59.6-.58.6-.59.59-.58.6-.59.6-.58.6-.59.6-.59.6-.58.6-.59.6-.58.59-.59.6-.59.6-.58.6-.59.6-.58.6-.59.6-.58.6-.59.59-.59.6-.58.6-.59.6-.58.6-.59.6-.58.6-.59.6-.59.6-.58.59-.59.6-.58.6-.59.6-.59.6-.58.6-.59.6-.58.6-.59.59-.58.6-.59.6-.59.6-.58.6-.59.6-.58.6-.59.6-.58.59-.59.6-.59.6-.58.6-.59.6-.58.6-.59.6-.59.6-.58.6-.59.59-.58.6-.59.6-.58.6m57.99-59.28-.34-.62-.34-.62-.34-.62-.35-.62-.35-.61-.36-.62-.36-.61-.37-.61-.37-.62-.37-.61-.38-.61-.38-.6-.39-.61-.39-.61-.4-.6-.4-.6-.4-.61-.41-.6-.41-.6-.42-.6-.42-.59-.43-.6-.43-.59-.43-.6-.44-.59-.44-.59-.45-.59-.45-.59-.45-.59-.46-.59-.47-.58-.47-.59-.47-.58-.48-.58-.48-.58-.48-.58-.49-.58-.5-.58-.49-.58-.51-.57-.5-.58-.51-.57-.52-.57-.52-.57-.52-.57-.53-.57-.53-.56-.54-.57-.54-.57-.55-.56-.55-.56-.55-.56-.56-.56-.56-.56-.57-.56-.57-.55-.57-.56-.58-.55-.59-.56-.58-.55-.6-.55-.59-.55-.6-.55-.61-.54-.61-.55-.61-.54-.62-.55-.62-.54-.63-.54-.63-.54-.63-.54-.64-.54-.65-.53-.64-.54-.66-.53-.65-.54-.66-.53-.67-.53-.67-.53-.67-.53-.68-.52-.68-.53-.69-.52-.69-.53-.69-.52-.7-.52-.7-.52-.71-.52-.71-.52-.72-.51-.72-.52-.73-.51-.72-.52-.74-.51-.74-.51-.74-.51-.74-.51-.75-.5-.76-.51m53.98 55.78-1.08-.14-1.09-.13-1.08-.13-1.09-.14-1.08-.13-1.09-.13-1.08-.13-1.09-.13-1.08-.13-1.09-.13-1.09-.13-1.08-.13-1.09-.12-1.09-.13-1.08-.12-1.09-.13-1.09-.12-1.09-.12-1.08-.12-1.09-.12-1.09-.12-1.09-.12-1.09-.12-1.09-.12-1.09-.11-1.09-.12-1.09-.12-1.09-.11-1.09-.11-1.09-.12-1.09-.11-1.09-.11-1.09-.11-1.1-.11-1.09-.11-1.09-.11-1.09-.1-1.1-.11-1.09-.11-1.09-.1-1.1-.11-1.09-.1-1.09-.1-1.1-.1-1.09-.1-1.1-.1-1.09-.1-1.1-.1-1.09-.1-1.1-.1-1.1-.09-1.09-.1-1.1-.09-1.09-.1-1.1-.09-1.1-.09-1.1-.09-1.09-.1-1.1-.09-1.1-.08-1.1-.09-1.1-.09-1.1-.09-1.1-.08-1.1-.09-1.1-.08-1.1-.09-1.1-.08-1.1-.08-1.1-.08-1.1-.08-1.1-.08-1.1-.08-1.1-.08-1.1-.08-1.11-.08-1.1-.07-1.1-.08-1.1-.07-1.11-.07-1.1-.08-1.1-.07-1.11-.07-1.1-.07-1.11-.07-1.1-.07-1.11-.07-1.1-.06-1.11-.07-1.1-.07-1.11-.06-1.1-.06-1.11-.07-1.11-.06-1.1-.06-1.11-.06-1.11-.06-1.11-.06-1.1-.06" style="stroke-width:1.07;stroke:#000000;stroke-opacity:0.10;stroke-linecap:butt"/><path d="m404.75 467.56-.41-.6-.4-.6-.42-.6-.41-.6-.42-.6-.42-.6-.42-.6-.43-.59-.42-.6-.43-.59-.44-.6-.44-.59-.44-.59-.44-.59-.44-.59-.45-.59-.45-.59-.46-.59-.45-.59-.46-.59-.47-.58-.46-.59-.47-.58-.47-.59-.48-.58-.47-.58-.48-.58-.48-.58-.49-.58-.49-.58-.49-.58-.49-.58-.5-.57-.5-.58-.5-.58-.51-.57-.51-.57-.51-.58-.51-.57-.52-.57-.52-.57-.52-.57-.52-.57-.53-.57-.53-.56-.54-.57-.53-.57-.54-.56-.55-.57-.54-.56-.55-.56-.55-.56-.55-.56-.56-.57-.56-.55-.56-.56-.57-.56-.57-.56-.57-.55-.57-.56-.58-.56-.58-.55-.58-.55-.58-.55-.59-.56-.59-.55-.6-.55-.59-.55-.6-.55-.6-.54-.61-.55-.61-.55-.61-.54-.61-.55-.62-.54-.62-.54-.62-.55-.62-.54-.63-.54-.63-.54-.64-.54-.63-.54-.64-.53-.64-.54-.65-.54-.65-.53-.65-.54-.65-.53-.66-.53-.66-.53-.66-.54-.66-.53-.67-.53-.67-.53-.68-.52-.67-.53-.68-.53-.68-.52-.69-.53m-136.1-160.35-.55-.54-.54-.53-.55-.54-.54-.54-.55-.54-.54-.54-.54-.54-.54-.54-.54-.54-.53-.54-.54-.55-.53-.54-.53-.54-.53-.54-.53-.55-.53-.54-.53-.54-.52-.55-.53-.54-.52-.55-.52-.54-.52-.55-.52-.54-.52-.55-.51-.54-.51-.55-.52-.55-.51-.55-.51-.54-.51-.55-.5-.55-.51-.55-.5-.55-.51-.55-.5-.55-.5-.55-.49-.55-.5-.55-.5-.55-.49-.55-.49-.55-.5-.56-.49-.55-.48-.55-.49-.56-.49-.55-.48-.55-.49-.56-.48-.55-.48-.56-.48-.55-.47-.56-.48-.55-.47-.56-.48-.56-.47-.55-.47-.56-.47-.56-.47-.56-.46-.56-.47-.56-.46-.55-.46-.56-.46-.56-.46-.56-.46-.57-.46-.56-.45-.56-.45-.56-.46-.56-.45-.56-.45-.57-.44-.56-.45-.56-.45-.57-.44-.56-.44-.56-.44-.57-.44-.56-.44-.57-.44-.56-.43-.57-.44-.57-.43-.56-.43-.57-.43-.57-.43-.57-.43-.56-.42-.57-.43-.57-.42-.57-.42-.57-.42-.57-.42-.57-.41-.57-.42-.57-.41-.57-.42-.57-.41-.58m237.62 271.08-1.1-.1-1.09-.09-1.1-.1-1.09-.1-1.1-.1-1.1-.09-1.09-.1-1.1-.1-1.09-.09-1.1-.1-1.09-.1-1.1-.1-1.1-.09-1.09-.1-1.1-.1-1.09-.09-1.1-.1-1.09-.1-1.1-.09-1.1-.1-1.09-.1-1.1-.1-1.09-.09-1.1-.1-1.1-.1-1.09-.09-1.1-.1-1.09-.1-1.1-.1-1.09-.09-1.1-.1-1.1-.1-1.09-.09-1.1-.1-1.09-.1-1.1-.1-1.09-.09-1.1-.1-1.1-.1-1.09-.09-1.1-.1-1.09-.1-1.1-.09-1.1-.1-1.09-.1-1.1-.1-1.09-.09-1.1-.1-1.09-.1-1.1-.09-1.1-.1-1.09-.1-1.1-.1-1.09-.09-1.1-.1-1.09-.1-1.1-.09-1.1-.1-1.09-.1-1.1-.09-1.09-.1-1.1-.1-1.1-.1-1.09-.09-1.1-.1-1.09-.1-1.1-.09-1.09-.1-1.1-.1-1.1-.1-1.09-.09-1.1-.1-1.09-.1-1.1-.09-1.09-.1-1.1-.1-1.1-.1-1.09-.09-1.1-.1-1.09-.1-1.1-.09-1.1-.1-1.09-.1-1.1-.09-1.09-.1-1.1-.1-1.09-.1-1.1-.09-1.1-.1-1.09-.1-1.1-.09-1.09-.1-1.1-.1-1.09-.1-1.1-.09-1.1-.1-1.09-.1-1.1-.09-1.09-.1" style="stroke-width:1.07;stroke:#000000;stroke-opacity:0.10;stroke-linecap:butt"/><path d="m404.75 467.56-.48-.58-.47-.59-.48-.58-.48-.58-.48-.58-.48-.58-.49-.58-.48-.58-.49-.58-.49-.58-.49-.58-.49-.58-.49-.57-.5-.58-.49-.58-.5-.57-.5-.58-.5-.58-.5-.57-.5-.58-.5-.57-.51-.58-.51-.57-.5-.57-.51-.58-.51-.57-.52-.57-.51-.57-.52-.58-.51-.57-.52-.57-.52-.57-.52-.57-.52-.57-.53-.57-.52-.57-.53-.57-.53-.56-.53-.57-.53-.57-.53-.57-.53-.56-.54-.57-.54-.56-.53-.57-.54-.56-.55-.57-.54-.56-.54-.57-.55-.56-.54-.56-.55-.57-.55-.56-.55-.56-.55-.56-.56-.56-.55-.56-.56-.56-.56-.56-.56-.56-.56-.56-.56-.56-.56-.56-.57-.56-.57-.55-.56-.56-.57-.56-.57-.55-.58-.56-.57-.56-.58-.55-.57-.56-.58-.55-.58-.55-.58-.56-.58-.55-.59-.55-.58-.56-.59-.55-.59-.55-.59-.55-.59-.55-.59-.55-.59-.55-.6-.55-.59-.55-.6-.55-.6-.55-.6-.55-.6-.55-.61-.54-.6-.55-.61-.55-.61-.54-.61-.55-.61-.54-.61-.55-.61-.54-.62-.55m-129.3-270.37-.55.56-.55.55-.55.56-.54.55-.55.56-.55.56-.55.55-.55.56-.55.56-.55.55-.55.56-.55.55-.54.56-.55.56-.55.55-.55.56-.55.56-.55.55-.55.56-.55.55-.55.56-.54.56-.55.55-.55.56-.55.56-.55.55-.55.56-.55.56-.55.55-.55.56-.54.55-.55.56-.55.56-.55.55-.55.56-.55.56-.55.55-.55.56-.55.55-.54.56-.55.56-.55.55-.55.56-.55.56-.55.55-.55.56-.55.56-.55.55-.54.56-.55.55-.55.56-.55.56-.55.55-.55.56-.55.56-.55.55-.55.56-.54.55-.55.56-.55.56-.55.55-.55.56-.55.56-.55.55-.55.56-.55.55-.54.56-.55.56-.55.55-.55.56-.55.56-.55.55-.55.56-.55.56-.55.55-.54.56-.55.55-.55.56-.55.56-.55.55-.55.56-.55.56-.55.55-.55.56-.54.55-.55.56-.55.56-.55.55-.55.56-.55.56-.55.55-.55.56-.55.56-.54.55-.55.56-.55.55-.55.56-.55.56-.55.55m47.54 54.95.61.5.61.5.6.49.6.5.6.5.6.5.59.5.59.5.59.5.58.5.59.51.58.5.57.51.58.5.57.51.57.5.56.51.57.51.56.51.56.5.55.51.55.51.55.52.55.51.55.51.54.51.54.52.54.51.53.52.53.51.53.52.53.52.52.51.52.52.52.52.51.52.52.52.51.53.5.52.51.52.5.52.5.53.49.52.5.53.49.52.49.53.48.53.49.53.48.53.48.53.47.53.47.53.47.53.47.53.46.53.47.54.46.53.45.54.46.53.45.54.45.54.44.53.44.54.44.54.44.54.44.54.43.54.43.55.43.54.42.54.42.55.42.54.42.55.41.54.41.55.41.55.4.55.41.54.4.55.39.55.4.55.39.56.39.55.39.55.38.56.38.55.38.55.38.56.37.56.37.55.37.56.37.56.36.56.36.56.36.56.35.56.35.56.35.56.35.57m-47.31-52.44-.61-.52-.62-.52-.61-.52-.61-.53-.61-.52-.6-.52-.6-.53-.6-.53-.6-.52-.59-.53-.59-.53-.58-.53-.59-.53-.58-.53-.58-.53-.57-.53-.58-.53-.57-.54-.56-.53-.57-.53-.56-.54-.56-.53-.56-.54-.55-.54-.55-.54-.55-.53-.54-.54-.54-.54-.54-.54-.54-.55-.53-.54-.53-.54-.53-.54-.53-.55-.52-.54-.52-.55-.51-.54-.52-.55-.51-.55-.51-.55-.5-.54-.51-.55-.5-.55-.49-.56-.5-.55-.49-.55-.49-.55-.48-.56-.49-.55-.48-.56-.47-.55-.48-.56-.47-.55-.47-.56-.47-.56-.46-.56-.46-.56-.46-.56-.45-.56-.45-.56-.45-.57-.45-.56-.44-.56-.45-.57-.43-.56-.44-.57-.43-.57-.43-.56-.43-.57-.42-.57-.42-.57-.42-.57-.42-.57-.41-.57-.41-.58-.41-.57-.4-.57-.4-.58-.4-.57-.4-.58-.39-.57-.39-.58-.39-.58-.38-.58-.39-.58-.38-.58-.37-.58-.38-.58-.37-.58-.36-.58-.37-.59-.36-.58-.36-.58-.36-.59-.35-.59-.35-.58-.35-.59-.35-.59-.34-.59" style="stroke-width:1.07;stroke:#000000;stroke-opacity:0.10;stroke-linecap:butt"/><path d="m214.67 251.43-.68-.5-.69-.51-.67-.5-.68-.51-.67-.51-.66-.51-.66-.51-.66-.51-.65-.51-.65-.52-.65-.51-.64-.52-.63-.51-.64-.52-.62-.52-.63-.52-.62-.52-.61-.52-.61-.53-.61-.52-.6-.53-.6-.52-.59-.53-.59-.53-.59-.53-.58-.53-.58-.53-.57-.53-.57-.53-.56-.54-.56-.53-.56-.54-.55-.54-.55-.54-.54-.54-.54-.54-.53-.54-.54-.54-.52-.54-.52-.55-.52-.55-.52-.54-.51-.55-.5-.55-.5-.55-.5-.55-.49-.55-.49-.55-.49-.56-.48-.55-.47-.56-.47-.56-.47-.55-.46-.56-.46-.56-.46-.57-.45-.56-.45-.56-.44-.57-.44-.56-.43-.57-.43-.56-.43-.57-.42-.57-.41-.57-.42-.57-.41-.58-.4-.57-.4-.58-.4-.57-.39-.58-.39-.58-.38-.57-.38-.58-.37-.59-.37-.58-.37-.58-.36-.58-.36-.59-.35-.59-.35-.58-.35-.59-.34-.59-.34-.59-.33-.59-.33-.59-.32-.6-.32-.59-.32-.6-.31-.59-.31-.6-.3-.6-.3-.6-.3-.6-.29-.6-.28-.6-.29-.61-.27-.6-.28-.61m237.62 271.08-1.11-.06-1.11-.06-1.1-.06-1.11-.06-1.11-.06-1.1-.06-1.11-.07-1.11-.06-1.1-.07-1.11-.06-1.1-.07-1.11-.07-1.1-.06-1.11-.07-1.1-.07-1.11-.07-1.1-.07-1.1-.07-1.11-.08-1.1-.07-1.1-.08-1.11-.07-1.1-.08-1.1-.07-1.1-.08-1.1-.08-1.11-.08-1.1-.08-1.1-.08-1.1-.08-1.1-.08-1.1-.08-1.1-.09-1.1-.08-1.1-.09-1.1-.08-1.1-.09-1.1-.09-1.09-.09-1.1-.09-1.1-.09-1.1-.09-1.1-.09-1.09-.09-1.1-.09-1.1-.1-1.09-.09-1.1-.1-1.09-.09-1.1-.1-1.1-.1-1.09-.1-1.1-.1-1.09-.1-1.1-.1-1.09-.1-1.09-.1-1.1-.11-1.09-.1-1.1-.11-1.09-.1-1.09-.11-1.09-.1-1.1-.11-1.09-.11-1.09-.11-1.09-.11-1.09-.11-1.09-.12-1.1-.11-1.09-.11-1.09-.12-1.09-.11-1.09-.12-1.09-.11-1.09-.12-1.08-.12-1.09-.12-1.09-.12-1.09-.12-1.09-.12-1.09-.12-1.08-.13-1.09-.12-1.09-.12-1.09-.13-1.08-.13-1.09-.12-1.09-.13-1.08-.13-1.09-.13-1.08-.13-1.09-.13-1.08-.13-1.09-.13-1.08-.14-1.09-.13-1.08-.14-1.08-.13m108.48 9.61-.55-.56-.54-.57-.55-.56-.54-.56-.55-.57-.54-.56-.55-.56-.54-.57-.55-.56-.54-.56-.55-.57-.54-.56-.55-.56-.54-.57-.55-.56-.54-.57-.55-.56-.54-.56-.55-.57-.55-.56-.54-.56-.55-.57-.54-.56-.55-.56-.54-.57-.55-.56-.54-.56-.55-.57-.54-.56-.55-.56-.54-.57-.55-.56-.54-.56-.55-.57-.54-.56-.55-.56-.54-.57-.55-.56-.54-.56-.55-.57-.54-.56-.55-.56-.55-.57-.54-.56-.55-.56-.54-.57-.55-.56-.54-.56-.55-.57-.54-.56-.55-.56-.54-.57-.55-.56-.54-.56-.55-.57-.54-.56-.55-.57-.54-.56-.55-.56-.54-.57-.55-.56-.54-.56-.55-.57-.55-.56-.54-.56-.55-.57-.54-.56-.55-.56-.54-.57-.55-.56-.54-.56-.55-.57-.54-.56-.55-.56-.54-.57-.55-.56-.54-.56-.55-.57-.54-.56-.55-.56-.54-.57-.55-.56-.54-.56-.55-.57-.54-.56-.55-.56-.55-.57-.54-.56-.55-.56-.54-.57-.55-.56-.54-.56-.55-.57-.54-.56-.55-.56-.54-.57-.55-.56-.54-.57-.55-.56" style="stroke-width:1.07;stroke:#000000;stroke-opacity:0.10;stroke-linecap:butt"/><path d="m214.67 251.43-.75-.48-.75-.49-.75-.49-.73-.5-.74-.49-.72-.49-.73-.5-.71-.5-.71-.49-.71-.5-.7-.51-.69-.5-.69-.5-.68-.51-.68-.5-.67-.51-.66-.51-.66-.51-.66-.52-.65-.51-.64-.51-.64-.52-.63-.52-.62-.52-.63-.52-.61-.52-.61-.52-.6-.53-.6-.52-.59-.53-.59-.53-.58-.53-.58-.53-.57-.54-.56-.53-.56-.54-.55-.53-.55-.54-.54-.54-.54-.54-.53-.55-.53-.54-.52-.55-.51-.54-.51-.55-.5-.55-.5-.55-.49-.55-.49-.56-.48-.55-.47-.56-.47-.56-.46-.55-.46-.57-.45-.56-.45-.56-.44-.57-.44-.56-.42-.57-.43-.57-.42-.57-.41-.57-.41-.57-.4-.58-.4-.57-.39-.58-.38-.58-.38-.58-.37-.58-.37-.58-.36-.59-.36-.58-.35-.59-.35-.59-.34-.59-.33-.59-.33-.59-.32-.59-.32-.6-.31-.59-.31-.6-.3-.6-.29-.6-.29-.6-.29-.61-.27-.6-.28-.61-.26-.6-.26-.61-.26-.61-.25-.61-.25-.62-.23-.61-.24-.62-.22-.61-.23-.62-.21-.62-.21-.62-.21-.63" style="stroke-width:1.07;stroke:#000000;stroke-opacity:0.10;stroke-linecap:butt"/><path d="m214.67 251.43-.82-.47-.82-.47-.81-.47-.8-.48-.8-.48-.79-.48-.78-.48-.77-.48-.77-.48-.76-.49-.76-.49-.74-.49-.74-.49-.74-.49-.72-.5-.72-.49-.71-.5-.71-.5-.69-.5-.7-.51-.68-.5-.68-.51-.67-.51-.66-.51-.65-.51-.65-.51-.64-.52-.64-.52-.63-.52-.62-.52-.61-.52-.61-.52-.6-.53-.59-.53-.58-.52-.58-.54-.57-.53-.57-.53-.56-.54-.55-.54-.54-.54-.54-.54-.53-.54-.52-.55-.51-.54-.51-.55-.5-.55-.5-.55-.48-.55-.48-.56-.48-.56-.46-.55-.46-.57-.46-.56-.44-.56-.44-.57-.43-.56-.42-.57-.42-.57-.41-.57-.4-.58-.4-.57-.39-.58-.38-.58-.38-.58-.36-.58-.36-.59-.36-.59-.35-.58-.34-.59-.33-.59-.32-.6-.32-.59-.31-.6-.31-.6-.3-.6-.29-.6-.28-.6-.28-.61-.27-.6-.26-.61-.26-.61-.25-.61-.24-.62-.23-.61-.23-.62-.22-.62-.21-.62-.21-.62-.2-.62-.19-.63-.19-.63-.18-.63-.17-.63-.16-.63-.16-.63-.15-.64-.14-.64-.14-.64M309.9 356.09l-.49-.53-.48-.52-.48-.53-.49-.53-.48-.53-.49-.52-.48-.53-.48-.53-.49-.53-.48-.52-.49-.53-.48-.53-.49-.53-.48-.52-.48-.53-.49-.53-.48-.53-.49-.52-.48-.53-.48-.53-.49-.53-.48-.52-.49-.53-.48-.53-.48-.53-.49-.52-.48-.53-.49-.53-.48-.53-.48-.52-.49-.53-.48-.53-.49-.53-.48-.52-.48-.53-.49-.53-.48-.53-.49-.52-.48-.53-.48-.53-.49-.53-.48-.52-.49-.53-.48-.53-.48-.53-.49-.52-.48-.53-.49-.53-.48-.53-.48-.52-.49-.53-.48-.53-.49-.53-.48-.52-.48-.53-.49-.53-.48-.53-.49-.52-.48-.53-.48-.53-.49-.53-.48-.52-.49-.53-.48-.53-.49-.53-.48-.52-.48-.53-.49-.53-.48-.53-.49-.52-.48-.53-.48-.53-.49-.53-.48-.52-.49-.53-.48-.53-.48-.53-.49-.52-.48-.53-.49-.53-.48-.53-.48-.52-.49-.53-.48-.53-.49-.53-.48-.52-.48-.53-.49-.53-.48-.53-.49-.52-.48-.53-.48-.53-.49-.53-.48-.52-.49-.53-.48-.53-.48-.53-.49-.52-.48-.53m47.92 52.22.41.56.41.57.42.56.41.56.41.56.41.57.42.56.41.56.41.56.42.57.41.56.41.56.41.56.42.57.41.56.41.56.42.56.41.57.41.56.41.56.42.56.41.57.41.56.42.56.41.56.41.57.42.56.41.56.41.56.41.57.42.56.41.56.41.57.42.56.41.56.41.56.41.57.42.56.41.56.41.56.42.57.41.56.41.56.41.56.42.57.41.56.41.56.42.56.41.57.41.56.41.56.42.56.41.57.41.56.42.56.41.56.41.57.41.56.42.56.41.56.41.57.42.56.41.56.41.56.41.57.42.56.41.56.41.56.42.57.41.56.41.56.41.56.42.57.41.56.41.56.42.56.41.57.41.56.41.56.42.56.41.57.41.56.42.56.41.56.41.57.41.56.42.56.41.56.41.57.42.56.41.56.41.56.41.57.42.56.41.56.41.56.42.57.41.56.41.56m53.98 55.78.74.48.74.48.74.48.73.48.75.48.74.48.74.48.74.48.74.48.75.48.74.47.74.48.75.48.74.48.75.47.75.48.74.48.75.47.75.48.75.47.75.48.75.47.75.48.75.47.76.48.75.47.75.48.76.47.75.47.75.48.76.47.76.47.75.47.76.47.76.48.76.47.76.47.76.47.76.47.76.47.76.47.76.47.76.47.77.47.76.47.77.46.76.47.77.47.76.47.77.46.77.47.77.47.76.47.77.46.77.47.77.46.78.47.77.46.77.47.77.46.78.47.77.46.77.47.78.46.77.46.78.47.78.46.78.46.77.46.78.46.78.47.78.46.78.46.78.46.78.46.79.46.78.46.78.46.79.46.78.46.79.46.78.46.79.45.79.46.78.46.79.46.79.45.79.46.79.46.79.45.79.46.79.46.8.45.79.46.79.45.8.46.79.45.8.45.79.46m-75.92-46.27-.62-.54-.61-.55-.61-.54-.61-.55-.61-.55-.61-.54-.61-.55-.6-.55-.6-.54-.61-.55-.6-.55-.6-.55-.59-.55-.6-.55-.6-.55-.59-.55-.59-.55-.59-.55-.59-.55-.59-.55-.59-.55-.58-.55-.59-.56-.58-.55-.58-.55-.58-.56-.58-.55-.57-.56-.58-.55-.57-.56-.57-.55-.58-.56-.56-.56-.57-.55-.57-.56-.56-.56-.57-.56-.56-.56-.56-.56-.56-.56-.56-.56-.56-.56-.55-.56-.55-.56-.56-.56-.55-.56-.55-.56-.55-.57-.54-.56-.55-.56-.54-.57-.54-.56-.54-.56-.54-.57-.54-.57-.54-.56-.53-.57-.54-.56-.53-.57-.53-.57-.53-.57-.53-.56-.53-.57-.52-.57-.52-.57-.53-.57-.52-.57-.52-.57-.52-.57-.51-.57-.52-.57-.51-.58-.51-.57-.52-.57-.5-.57-.51-.58-.51-.57-.51-.58-.5-.57-.5-.58-.5-.57-.5-.58-.5-.57-.5-.58-.49-.58-.5-.58-.49-.57-.49-.58-.49-.58-.49-.58-.48-.58-.49-.58-.48-.58-.49-.58-.48-.58-.48-.58-.48-.58-.47-.59-.48-.58" style="stroke-width:1.07;stroke:#000000;stroke-opacity:0.10;stroke-linecap:butt"/><path d="m214.67 251.43-.89-.45-.88-.46-.88-.45-.87-.46-.86-.47-.85-.46-.84-.47-.83-.47-.83-.47-.82-.47-.81-.47-.8-.48-.79-.48-.78-.48-.78-.48-.76-.49-.76-.48-.75-.49-.74-.49-.73-.5-.73-.49-.71-.5-.71-.5-.7-.5-.69-.5-.68-.51-.68-.5-.66-.51-.66-.52-.65-.51-.64-.52-.63-.51-.63-.52-.61-.52-.61-.53-.59-.52-.59-.53-.59-.53-.57-.54-.56-.53-.56-.54-.55-.54-.54-.54-.53-.54-.52-.54-.51-.55-.51-.55-.5-.55-.48-.55-.48-.56-.48-.55-.46-.56-.45-.57-.45-.56-.44-.56-.43-.57-.42-.57-.41-.57-.41-.58-.39-.57-.39-.58-.38-.58-.37-.58-.36-.59-.36-.58-.34-.59-.34-.59-.33-.59-.32-.6-.31-.59-.3-.6-.3-.6-.29-.6-.27-.61-.27-.61-.26-.6-.26-.62-.24-.61-.24-.61-.22-.62-.22-.62-.21-.62-.21-.62-.19-.63-.19-.63-.17-.63-.17-.63-.16-.63-.15-.64-.15-.63-.13-.64-.13-.65-.12-.64-.11-.65-.1-.64-.09-.65-.09-.66-.07-.65-.07-.66" style="stroke-width:1.07;stroke:#000000;stroke-opacity:0.10;stroke-linecap:butt"/><path d="m214.67 251.43-.96-.43-.95-.44-.94-.44-.93-.45-.93-.45-.91-.44-.9-.46-.89-.45-.89-.46-.87-.45-.86-.47-.86-.46-.84-.46-.84-.47-.82-.47-.81-.48-.81-.47-.79-.48-.79-.48-.77-.48-.77-.49-.75-.49-.75-.49-.73-.49-.73-.49-.72-.5-.7-.5-.7-.5-.69-.51-.67-.5-.67-.51-.66-.51-.64-.52-.64-.51-.63-.52-.62-.52-.6-.53-.6-.52-.59-.53-.58-.53-.57-.54-.56-.53-.55-.54-.53-.54-.53-.54-.52-.55-.51-.55-.5-.55-.49-.55-.48-.56-.47-.55-.46-.56-.46-.57-.44-.56-.43-.57-.42-.57-.41-.57-.4-.57-.39-.58-.39-.58-.37-.58-.36-.58-.35-.59-.35-.59-.33-.59-.32-.59-.31-.6-.31-.6-.29-.6-.28-.6-.28-.61-.26-.61-.26-.61-.24-.61-.24-.62-.22-.61-.22-.62-.2-.63-.2-.62-.18-.63-.18-.63-.16-.63-.16-.64-.15-.63-.13-.64-.13-.64-.11-.65-.11-.64-.1-.65-.09-.65-.07-.66-.07-.66-.06-.65-.05-.66-.03-.67-.03-.66-.02-.67-.01-.67v-.68M53.35 182.39l1.15.14 1.15.15 1.15.14 1.15.14 1.15.14 1.15.15 1.15.14 1.15.14 1.15.14 1.15.14 1.14.15 1.15.14 1.15.14 1.15.14 1.15.15 1.15.14 1.15.14 1.15.14 1.15.15 1.15.14 1.15.14 1.15.14 1.15.15 1.15.14 1.14.14 1.15.14 1.15.14 1.15.15 1.15.14 1.15.14 1.15.14 1.15.15 1.15.14 1.15.14 1.15.14 1.15.15 1.15.14 1.15.14 1.14.14 1.15.15 1.15.14 1.15.14 1.15.14 1.15.14 1.15.15 1.15.14 1.15.14 1.15.14 1.15.15 1.15.14 1.15.14 1.15.14 1.14.15 1.15.14 1.15.14 1.15.14 1.15.14 1.15.15 1.15.14 1.15.14 1.15.14 1.15.15 1.15.14 1.15.14 1.15.14 1.15.15 1.14.14 1.15.14 1.15.14 1.15.15 1.15.14 1.15.14 1.15.14 1.15.14 1.15.15 1.15.14 1.15.14 1.15.14 1.15.15 1.14.14 1.15.14 1.15.14 1.15.15 1.15.14 1.15.14 1.15.14 1.15.15 1.15.14 1.15.14 1.15.14 1.15.14 1.15.15 1.15.14 1.14.14 1.15.14 1.15.15 1.15.14 1.15.14 1.15.14m237.62 271.08-1.12-.02-1.12-.02-1.12-.03-1.12-.02-1.11-.03-1.12-.02-1.12-.03-1.12-.03-1.11-.04-1.12-.03-1.11-.04-1.12-.03-1.11-.04-1.11-.04-1.12-.05-1.11-.04-1.11-.05-1.11-.04-1.11-.05-1.11-.05-1.11-.05-1.11-.05-1.11-.06-1.11-.06-1.11-.05-1.11-.06-1.1-.06-1.11-.07-1.11-.06-1.1-.07-1.11-.06-1.1-.07-1.11-.07-1.1-.07-1.1-.08-1.11-.07-1.1-.08-1.1-.08-1.1-.08-1.1-.08-1.1-.08-1.1-.09-1.1-.08-1.1-.09-1.1-.09-1.1-.09-1.09-.09-1.1-.1-1.1-.09-1.09-.1-1.1-.1-1.09-.1-1.1-.1-1.09-.1-1.09-.11-1.1-.1-1.09-.11-1.09-.11-1.09-.11-1.09-.12-1.09-.11-1.09-.12-1.09-.11-1.09-.12-1.09-.12-1.09-.13-1.08-.12-1.09-.12-1.09-.13-1.08-.13-1.09-.13-1.08-.13-1.09-.14-1.08-.13-1.09-.14-1.08-.13-1.08-.14-1.08-.14-1.09-.15-1.08-.14-1.08-.15-1.08-.14-1.08-.15-1.08-.15-1.07-.16-1.08-.15-1.08-.16-1.08-.15-1.07-.16-1.08-.16-1.08-.16-1.07-.17-1.08-.16-1.07-.17-1.07-.16-1.08-.17-1.07-.17-1.07-.18-1.07-.17m108.48 9.61-.69-.53-.68-.52-.68-.53-.67-.53-.68-.52-.67-.53-.66-.53-.67-.53-.66-.53-.66-.54-.66-.53-.65-.53-.65-.54-.65-.53-.64-.54-.65-.54-.64-.53-.63-.54-.64-.54-.63-.54-.62-.54-.63-.54-.62-.55-.62-.54-.62-.54-.61-.55-.61-.54-.61-.55-.6-.55-.61-.54-.6-.55-.59-.55-.6-.55-.59-.55-.58-.55-.59-.56-.58-.55-.58-.55-.58-.56-.57-.55-.57-.56-.57-.56-.57-.56-.56-.55-.56-.56-.55-.56-.56-.57-.55-.56-.55-.56-.54-.56-.54-.57-.54-.56-.54-.57-.53-.56-.54-.57-.52-.57-.53-.57-.52-.57-.52-.57-.52-.57-.51-.57-.51-.57-.51-.58-.51-.57-.5-.58-.5-.57-.5-.58-.49-.58-.49-.58-.49-.58-.48-.58-.49-.58-.48-.58-.47-.58-.48-.58-.47-.59-.47-.58-.46-.59-.46-.58-.46-.59-.46-.59-.46-.59-.45-.58-.44-.59-.45-.6-.44-.59-.44-.59-.44-.59-.43-.6-.44-.59-.42-.6-.43-.59-.42-.6-.42-.6-.42-.6-.41-.6-.41-.6-.41-.6-.41-.6m53.98 55.78.8.45.79.46.8.45.79.46.79.45.8.46.79.45.79.46.79.45.79.46.79.46.79.45.79.46.79.46.79.46.78.45.79.46.78.46.79.46.78.46.79.46.78.46.78.46.79.46.78.46.78.46.78.46.78.46.78.46.78.47.78.46.77.46.78.46.78.47.77.46.78.46.77.47.78.46.77.46.77.47.77.46.78.47.77.47.77.46.77.47.77.46.77.47.76.47.77.46.77.47.76.47.77.47.77.46.76.47.76.47.77.47.76.47.76.47.76.47.76.47.76.47.76.47.76.47.76.47.76.47.76.48.75.47.76.47.76.47.75.48.76.47.75.47.75.48.76.47.75.47.75.48.75.47.75.48.75.47.75.48.75.48.75.47.74.48.75.47.75.48.74.48.75.48.74.47.75.48.74.48.74.48.74.48.75.48.74.48.74.48.74.48.74.48.73.48.74.48" style="stroke-width:1.07;stroke:#000000;stroke-opacity:0.10;stroke-linecap:butt"/><path d="m404.75 467.56-.76-.51-.75-.5-.74-.51-.74-.51-.74-.51-.73-.51-.73-.52-.73-.51-.72-.52-.71-.51-.72-.52-.7-.52-.71-.52-.7-.52-.69-.52-.69-.53-.69-.52-.68-.53-.68-.52-.67-.53-.67-.53-.67-.53-.66-.53-.65-.54-.65-.53-.65-.54-.65-.53-.64-.54-.63-.54-.63-.54-.63-.54-.62-.54-.62-.55-.61-.54-.61-.55-.61-.54-.6-.55-.59-.55-.6-.55-.58-.55-.59-.56-.58-.55-.57-.55-.57-.56-.57-.56-.56-.56-.56-.56-.55-.56-.55-.56-.55-.56-.54-.57-.54-.56-.53-.57-.53-.57-.52-.57-.52-.57-.51-.57-.52-.57-.5-.58-.51-.57-.49-.58-.5-.58-.49-.58-.48-.57-.48-.59-.48-.58-.47-.58-.47-.59-.47-.58-.45-.59-.46-.59-.45-.59-.45-.59-.44-.59-.44-.59-.43-.59-.43-.6-.43-.6-.42-.59-.42-.6-.41-.6-.41-.6-.4-.6-.4-.61-.4-.6-.39-.61-.39-.61-.38-.6-.38-.61-.37-.61-.37-.61-.37-.62-.36-.61-.36-.62-.35-.61-.35-.62-.34-.62-.34-.62-.34-.62m53.98 55.78 1.19-.18 1.19-.19 1.19-.18 1.19-.18 1.19-.18 1.19-.19 1.2-.18 1.19-.18 1.19-.18 1.19-.19 1.19-.18 1.19-.18 1.19-.18 1.19-.19 1.19-.18 1.19-.18 1.19-.18 1.2-.19 1.19-.18 1.19-.18 1.19-.19 1.19-.18 1.19-.18 1.19-.18 1.19-.19 1.19-.18 1.19-.18 1.19-.18 1.2-.19 1.19-.18 1.19-.18 1.19-.18 1.19-.19 1.19-.18 1.19-.18 1.19-.18 1.19-.19 1.19-.18 1.19-.18 1.19-.18 1.2-.19 1.19-.18 1.19-.18 1.19-.18 1.19-.19 1.19-.18 1.19-.18 1.19-.19 1.19-.18 1.19-.18 1.19-.18 1.2-.19 1.19-.18 1.19-.18 1.19-.18 1.19-.19 1.19-.18 1.19-.18 1.19-.18 1.19-.19 1.19-.18 1.19-.18 1.2-.18 1.19-.19 1.19-.18 1.19-.18 1.19-.18 1.19-.19 1.19-.18 1.19-.18 1.19-.19 1.19-.18 1.19-.18 1.2-.18 1.19-.19 1.19-.18 1.19-.18 1.19-.18 1.19-.19 1.19-.18 1.19-.18 1.19-.18 1.19-.19 1.19-.18 1.19-.18 1.2-.18 1.19-.19 1.19-.18 1.19-.18 1.19-.18 1.19-.19 1.19-.18 1.19-.18 1.19-.18 1.19-.19 1.19-.18 1.2-.18 1.19-.19 1.19-.18" style="stroke-width:1.07;stroke:#000000;stroke-opacity:0.10;stroke-linecap:butt"/><path d="m404.75 467.56-.82-.49-.82-.49-.82-.49-.8-.49-.81-.49-.79-.49-.79-.5-.79-.5-.78-.5-.77-.5-.77-.5-.76-.5-.75-.51-.75-.51-.75-.51-.74-.51-.73-.51-.73-.51-.72-.52-.72-.51-.71-.52-.7-.52-.7-.52-.7-.52-.68-.53-.68-.52-.68-.53-.67-.53-.67-.53-.66-.53-.65-.54-.65-.53-.64-.54-.64-.54-.63-.54-.62-.54-.62-.54-.61-.55-.61-.54-.6-.55-.6-.55-.59-.55-.59-.55-.58-.56-.57-.55-.57-.56-.56-.56-.56-.56-.55-.56-.54-.56-.54-.57-.54-.57-.52-.56-.53-.57-.51-.58-.51-.57-.51-.57-.5-.58-.49-.58-.49-.58-.48-.58-.48-.58-.47-.58-.47-.59-.46-.58-.45-.59-.45-.59-.44-.59-.44-.6-.43-.59-.43-.6-.42-.6-.41-.6-.41-.6-.4-.6-.4-.6-.39-.61-.39-.61-.38-.6-.37-.61-.37-.62-.36-.61-.36-.62-.35-.61-.35-.62-.34-.62-.33-.62-.33-.62-.32-.63-.32-.62-.31-.63-.31-.63-.3-.63-.29-.63-.29-.64-.28-.63-.28-.64-.27-.64-.27-.64m0 0-.81.38-.8.38-.8.38-.8.39-.79.39-.78.38-.78.39-.77.4-.77.39-.77.39-.75.4-.75.4-.75.4-.74.4-.74.41-.73.4-.73.41-.72.41-.71.41-.71.41-.71.42-.7.42-.69.41-.69.42-.68.43-.68.42-.67.43-.67.42-.66.43-.66.43-.65.44-.64.43-.65.44-.63.43-.63.44-.63.44-.62.45-.61.44-.61.45-.6.45-.6.45-.59.45-.59.45-.58.46-.58.46-.57.46-.57.46-.56.46-.56.47-.55.46-.54.47-.54.47-.54.47-.53.47-.52.48-.52.48-.51.48-.51.48-.5.48-.5.48-.49.49-.49.49-.48.49-.48.49-.47.49-.46.49-.46.5-.46.5-.45.5-.44.5-.44.51-.44.5-.43.51-.42.51-.42.51-.41.51-.41.51-.4.52-.39.52-.4.52-.38.52-.38.52-.38.53-.37.52-.36.53-.36.53-.36.54-.35.53-.34.54-.34.53-.33.54-.33.54-.32.55-.32.54-.31.55-.31.54-.3.55-.29.56-.29.55" style="stroke-width:1.07;stroke:#000000;stroke-opacity:0.10;stroke-linecap:butt"/><path d="m350.77 411.78-.75.4-.75.4-.74.4-.74.4-.74.41-.73.4-.73.41-.72.41-.72.41-.72.41-.71.41-.71.42-.7.41-.7.42-.7.42-.69.42-.68.42-.69.42-.68.42-.67.43-.67.42-.67.43-.66.43-.66.43-.65.43-.65.43-.65.44-.64.44-.63.43-.64.44-.63.44-.62.44-.62.45-.62.44-.61.45-.61.44-.6.45-.6.45-.6.45-.59.45-.59.46-.58.45-.58.46-.58.46-.57.46-.57.46-.56.46-.56.46-.55.47-.55.47-.55.46-.54.47-.54.47-.53.47-.53.48-.53.47-.52.48-.52.48-.51.47-.51.48-.51.49-.5.48-.49.48-.5.49-.49.49-.48.48-.48.49-.48.5-.47.49-.47.49-.46.5-.46.49-.46.5-.45.5-.44.5-.45.51-.44.5-.43.5-.43.51-.43.51-.42.51-.42.51-.42.51-.41.51-.4.52-.4.51-.4.52-.4.52-.38.52-.39.52-.38.53-.38.52-.37.53-.37.52-.37.53-.36.53-.35.53-.36.54-.34.53" style="stroke-width:1.07;stroke:#000000;stroke-opacity:0.10;stroke-linecap:butt"/><path d="m350.77 411.78-.69.42-.7.42-.68.42-.69.42-.68.42-.68.42-.68.43-.68.42-.67.43-.67.43-.66.42-.66.43-.66.43-.66.43-.65.43-.65.44-.65.43-.65.44-.64.43-.64.44-.63.44-.64.43-.63.44-.62.45-.63.44-.62.44-.62.44-.61.45-.62.44-.61.45-.6.45-.61.45-.6.45-.59.45-.6.45-.59.45-.59.45-.59.46-.58.45-.58.46-.58.46-.57.46-.57.46-.57.46-.57.46-.56.46-.56.46-.55.47-.56.46-.55.47-.55.47-.54.46-.54.47-.54.47-.54.48-.53.47-.53.47-.53.48-.52.47-.52.48-.52.47-.51.48-.52.48-.51.48-.5.48-.51.48-.5.49-.49.48-.5.49-.49.48-.49.49-.48.49-.49.49-.48.49-.47.49-.48.49-.47.49-.47.5-.46.49-.46.5-.46.5-.46.49-.45.5-.45.5-.45.5-.44.5-.45.51-.43.5-.44.51-.43.5-.43.51-.43.51-.42.51-.42.51-.42.51-.42.51-.41.51-.41.51-.4.52" style="stroke-width:1.07;stroke:#000000;stroke-opacity:0.10;stroke-linecap:butt"/><path d="m350.77 411.78-.64.44-.63.44-.63.44-.64.43-.63.44-.62.44-.63.45-.63.44-.62.44-.62.44-.62.44-.62.45-.61.44-.62.45-.61.44-.61.45-.61.45-.61.44-.6.45-.61.45-.6.45-.6.45-.6.45-.59.45-.6.45-.59.45-.59.46-.59.45-.59.45-.59.46-.58.45-.58.46-.58.46-.58.45-.58.46-.57.46-.58.46-.57.46-.57.46-.57.46-.56.46-.57.46-.56.46-.56.46-.56.47-.56.46-.56.47-.55.46-.55.47-.55.46-.55.47-.55.47-.54.47-.55.46-.54.47-.54.47-.54.47-.53.47-.54.48-.53.47-.53.47-.53.48-.53.47-.53.47-.52.48-.52.47-.52.48-.52.48-.52.48-.51.47-.52.48-.51.48-.51.48-.51.48-.5.48-.51.49-.5.48-.5.48-.5.48-.5.49-.49.48-.5.49-.49.48-.49.49-.49.49-.49.49-.48.48-.48.49-.49.49-.48.49-.47.49-.48.49-.47.5-.48.49-.47.49-.47.49-.46.5-.47.49-.46.5" style="stroke-width:1.07;stroke:#000000;stroke-opacity:0.10;stroke-linecap:butt"/><path d="m350.77 411.78-.58.46-.58.46-.57.45-.58.46-.58.46-.58.45-.57.46-.58.46-.57.46-.58.46-.57.46-.57.45-.57.46-.58.46-.57.46-.57.46-.57.46-.57.46-.57.46-.57.46-.56.46-.57.46-.57.46-.56.47-.57.46-.56.46-.57.46-.56.46-.56.46-.57.47-.56.46-.56.46-.56.47-.56.46-.56.46-.56.47-.56.46-.55.46-.56.47-.56.46-.55.47-.56.46-.55.47-.56.46-.55.47-.55.46-.56.47-.55.46-.55.47-.55.47-.55.46-.55.47-.55.47-.54.46-.55.47-.55.47-.55.47-.54.46-.55.47-.54.47-.55.47-.54.47-.54.47-.54.47-.55.47-.54.46-.54.47-.54.47-.54.47-.54.47-.53.48-.54.47-.54.47-.54.47-.53.47-.54.47-.53.47-.53.47-.54.48-.53.47-.53.47-.54.47-.53.48-.53.47-.53.47-.53.48-.52.47-.53.47-.53.48-.53.47-.52.48-.53.47-.52.48-.53.47-.52.48-.53.47-.52.48-.52.47-.52.48m54.5-46.17-.52.48-.52.47-.52.48-.53.47-.52.48-.53.47-.52.48-.53.47-.52.48-.53.47-.53.48-.53.47-.53.47-.53.48-.53.47-.53.47-.53.48-.53.47-.53.47-.53.47-.54.48-.53.47-.54.47-.53.47-.54.47-.53.47-.54.47-.54.48-.54.47-.53.47-.54.47-.54.47-.54.47-.55.47-.54.46-.54.47-.54.47-.55.47-.54.47-.54.47-.55.47-.55.46-.54.47-.55.47-.55.47-.55.46-.54.47-.55.47-.55.46-.55.47-.56.47-.55.46-.55.47-.55.46-.56.47-.55.46-.55.47-.56.46-.56.47-.55.46-.56.47-.56.46-.55.46-.56.47-.56.46-.56.47-.56.46-.56.46-.57.46-.56.47-.56.46-.57.46-.56.46-.56.46-.57.46-.57.47-.56.46-.57.46-.57.46-.56.46-.57.46-.57.46-.57.46-.57.46-.58.46-.57.46-.57.46-.57.46-.58.45-.57.46-.57.46-.58.46-.58.46-.57.45-.58.46-.58.46-.58.46-.57.45-.58.46" style="stroke-width:1.07;stroke:#000000;stroke-opacity:0.10;stroke-linecap:butt"/><path d="m350.77 411.78-.46.5-.47.49-.47.5-.46.49-.48.49-.47.49-.47.5-.48.49-.48.49-.48.49-.48.49-.48.49-.49.49-.48.48-.49.49-.49.49-.49.48-.5.49-.49.48-.5.49-.5.48-.5.48-.5.49-.51.48-.51.48-.5.48-.51.48-.52.48-.51.48-.51.47-.52.48-.52.48-.52.48-.52.47-.53.48-.52.47-.53.48-.53.47-.53.47-.53.47-.54.48-.53.47-.54.47-.54.47-.54.47-.55.47-.54.46-.55.47-.55.47-.55.46-.55.47-.56.47-.55.46-.56.46-.56.47-.56.46-.56.46-.57.46-.56.46-.57.47-.57.45-.57.46-.58.46-.57.46-.58.46-.58.46-.58.45-.58.46-.59.45-.58.46-.59.45-.59.45-.59.46-.59.45-.6.45-.59.45-.6.45-.6.45-.61.45-.6.45-.6.45-.61.44-.61.45-.61.45-.61.44-.62.45-.61.44-.62.45-.62.44-.62.44-.63.44-.62.45-.63.44-.63.44-.63.44-.63.44-.63.43-.64.44-.63.44" style="stroke-width:1.07;stroke:#000000;stroke-opacity:0.10;stroke-linecap:butt"/><path d="m350.77 411.78-.4.52-.41.51-.42.51-.41.51-.42.52-.42.51-.42.5-.43.51-.43.51-.43.5-.44.51-.44.5-.44.51-.44.5-.45.5-.45.5-.45.5-.46.5-.46.49-.46.5-.47.49-.46.5-.47.49-.48.49-.48.49-.47.49-.49.49-.48.49-.49.49-.49.48-.5.49-.5.48-.5.49-.5.48-.51.48-.51.48-.51.48-.51.48-.52.47-.52.48-.53.48-.52.47-.53.47-.54.48-.53.47-.54.47-.54.47-.55.46-.54.47-.55.47-.56.46-.55.47-.56.46-.57.46-.56.46-.57.47-.57.45-.58.46-.57.46-.58.46-.59.45-.58.46-.59.45-.59.45-.6.45-.59.46-.61.44-.6.45-.61.45-.61.45-.61.44-.61.45-.62.44-.62.44-.63.45-.62.44-.63.44-.64.43-.63.44-.64.44-.64.43-.65.44-.65.43-.65.44-.65.43-.66.43-.66.43-.66.43-.67.43-.66.42-.68.43-.67.42-.68.43-.68.42-.68.42-.69.42-.69.42-.69.42-.69.42" style="stroke-width:1.07;stroke:#000000;stroke-opacity:0.10;stroke-linecap:butt"/><path d="m350.77 411.78-.35.54-.35.53-.36.53-.36.53-.36.53-.37.53-.37.52-.38.53-.38.52-.39.52-.39.52-.39.52-.4.52-.4.51-.41.52-.41.51-.41.51-.42.51-.42.51-.43.51-.43.51-.43.5-.44.51-.45.5-.44.5-.46.5-.45.5-.46.49-.47.5-.46.49-.48.49-.47.5-.48.49-.49.48-.49.49-.49.49-.49.48-.51.48-.5.49-.51.48-.51.47-.52.48-.52.48-.53.47-.53.48-.53.47-.54.47-.54.47-.55.47-.55.46-.55.47-.56.46-.57.46-.56.46-.57.46-.58.46-.58.46-.58.45-.59.46-.59.45-.6.45-.6.45-.6.45-.61.45-.61.44-.62.45-.62.44-.63.44-.63.44-.63.44-.64.44-.64.43-.64.44-.65.43-.66.43-.65.43-.67.43-.66.43-.67.42-.68.43-.67.42-.69.42-.68.43-.7.41-.69.42-.7.42-.7.41-.71.42-.71.41-.72.41-.72.41-.72.41-.73.41-.73.4-.74.41-.74.4-.74.4-.75.4-.75.4" style="stroke-width:1.07;stroke:#000000;stroke-opacity:0.10;stroke-linecap:butt"/><path d="m350.77 411.78-.29.55-.29.56-.31.55-.3.54-.31.55-.32.55-.32.54-.33.54-.33.54-.34.54-.35.53-.34.54-.36.53-.36.53-.36.53-.37.52-.38.53-.38.52-.39.52-.39.52-.39.52-.41.52-.4.51-.42.51-.41.51-.43.51-.43.51-.43.51-.44.5-.44.5-.45.5-.46.5-.46.5-.46.49-.47.49-.48.5-.48.48-.49.49-.49.49-.5.48-.5.48-.51.49-.51.47-.52.48-.53.48-.53.47-.53.47-.54.47-.54.47-.56.47-.55.46-.56.46-.57.46-.57.46-.58.46-.58.46-.59.45-.59.45-.6.45-.6.45-.61.45-.62.44-.62.45-.62.44-.63.44-.64.44-.64.43-.64.44-.65.43-.66.43-.66.43-.67.43-.67.42-.68.42-.68.43-.69.42-.7.41-.7.42-.7.42-.71.41-.72.41-.72.41-.72.41-.73.4-.74.41-.74.4-.75.4-.75.4-.76.4-.76.39-.77.4-.77.39-.78.39-.78.39-.79.38-.8.39-.8.38-.8.38-.81.38" style="stroke-width:1.07;stroke:#000000;stroke-opacity:0.10;stroke-linecap:butt"/><path d="m214.67 240.93 9.1 15.76h-18.2zm190.08 219.04 6.58 11.39h-13.16zM221.47 139.2l1.92 3.31h-3.83zm88.43 214.68 1.91 3.32h-3.83zM53.35 180.18l1.92 3.32h-3.83z" style="stroke-width:0.71;stroke:none;fill:#00BA38"/><path d="M345.68 416.87h10.18v-10.18h-10.18z" style="stroke-width:0.71;stroke:none;fill:#619CFF"/><circle cx="167.13" cy="196.48" r="6.32" style="stroke-width:0.71;stroke:none;fill:#F8766D"/><circle cx="261.98" cy="303.87" r="4.16" style="stroke-width:0.71;stroke:none;fill:#F8766D"/><circle cx="296.27" cy="457.95" r="3.87" style="stroke-width:0.71;stroke:none;fill:#F8766D"/><circle cx="346.76" cy="526.84" r="1.42" style="stroke-width:0.71;stroke:none;fill:#F8766D"/><circle cx="480.67" cy="513.83" r="2.65" style="stroke-width:0.71;stroke:none;fill:#F8766D"/><circle cx="522.65" cy="449.48" r="1.42" style="stroke-width:0.71;stroke:none;fill:#F8766D"/><path d="m209.52 256.08 4.3-3.87m196.37 210.65-4.56 3.94M216.25 146.14l4.36-3.96m83.94 218.53 4.47-3.86M58.48 177.77l-4.27 3.85M356.29 407.1l-4.63 3.93M172.49 191.86l-4.48 3.86m88.47 112.8 4.61-3.9m29.7 157.97 4.59-3.89m56.75 63.5-4.5 3.88m138.49-16.87-4.56 3.87m35.72-68.23 4.49 3.87" style="stroke-width:0.53;stroke:#BFBFBF"/><path d="M170.46 267.2h63.55-.08l.34-.02.34-.07.33-.12.3-.17.27-.22.23-.26.19-.3.13-.32.09-.33.02-.35h0v-6.8h0l-.02-.34-.09-.34-.13-.32-.19-.29-.23-.26-.27-.22-.3-.18-.33-.12-.34-.07-.26-.02h-63.55l.26.02-.35-.01-.34.04-.33.09-.32.15-.28.2-.25.24-.21.28-.17.31-.11.33-.05.34-.01.17v6.8l.01-.17v.34l.05.35.11.33.17.3.21.28.25.24.28.2.32.15.33.1.34.04z" style="stroke-width:0.53;fill:#FFFFFF;fill-opacity:0.50"/><text x="202.24" y="263.6" lengthAdjust="spacingAndGlyphs" style="font-size:5.69px;font-family:&quot;Liberation Sans&quot;" text-anchor="middle" textLength="60.67">AGKW HOLDINGS LLC</text><path d="M396.5 462.86h51.44-.09l.35-.02.34-.07.33-.12.3-.17.27-.22.23-.26.18-.3.14-.32.08-.34.03-.34h0v-14.99h0l-.03-.35-.08-.34-.14-.32-.18-.29-.23-.26-.27-.22-.3-.17-.33-.13-.34-.07-.26-.01H396.5l.26.01-.35-.01-.34.04-.34.1-.31.15-.29.19-.25.24-.21.28-.16.31-.11.33-.05.34-.01.18v14.99l.01-.18v.35l.05.35.11.32.16.31.21.28.25.24.29.2.31.15.34.09.34.05z" style="stroke-width:0.53;fill:#FFFFFF;fill-opacity:0.50"/><text x="422.22" y="451.06" lengthAdjust="spacingAndGlyphs" style="font-size:5.69px;font-family:&quot;Liberation Sans&quot;" text-anchor="middle" textLength="39.83">CLEAR VISION</text><text x="422.22" y="459.26" lengthAdjust="spacingAndGlyphs" style="font-size:5.69px;font-family:&quot;Liberation Sans&quot;" text-anchor="middle" textLength="48.56">PROPERTIES LLC</text><path d="M182.28 157.25h53.44-.08l.34-.01.34-.07.33-.13.3-.17.27-.22.23-.26.18-.29.14-.32.08-.34.03-.35h0v-6.79h0l-.03-.35-.08-.34-.14-.32-.18-.29-.23-.26-.27-.22-.3-.18-.33-.12-.34-.07-.26-.01h-53.44l.26.01-.35-.01-.34.04-.34.1-.31.14-.29.2-.25.24-.21.28-.16.31-.11.33-.05.34-.01.18v6.79l.01-.17v.35l.05.34.11.33.16.31.21.27.25.25.29.19.31.15.34.1.34.04z" style="stroke-width:0.53;fill:#FFFFFF;fill-opacity:0.50"/><text x="209" y="153.65" lengthAdjust="spacingAndGlyphs" style="font-size:5.69px;font-family:&quot;Liberation Sans&quot;" text-anchor="middle" textLength="50.56">AGKW HLDGS LLC</text><path d="M264.31 380.02h56.49-.08l.34-.02.34-.07.33-.12.3-.18.27-.21.23-.27.19-.29.13-.32.09-.34.02-.34h0v-14.99h0l-.02-.35-.09-.34-.13-.32-.19-.29-.23-.26-.27-.22-.3-.18-.33-.12-.34-.07-.26-.01h-56.49l.26.01-.34-.01-.35.04-.33.1-.32.15-.28.19-.25.24-.21.28-.16.31-.11.33-.06.34-.01.18v14.99l.01-.18v.35l.06.34.11.33.16.31.21.28.25.24.28.2.32.15.33.09.35.05z" style="stroke-width:0.53;fill:#FFFFFF;fill-opacity:0.50"/><text x="292.56" y="368.22" lengthAdjust="spacingAndGlyphs" style="font-size:5.69px;font-family:&quot;Liberation Sans&quot;" text-anchor="middle" textLength="53.61">CREAM CITY HOME</text><text x="292.56" y="376.42" lengthAdjust="spacingAndGlyphs" style="font-size:5.69px;font-family:&quot;Liberation Sans&quot;" text-anchor="middle" textLength="35.41">BUYERS LLC</text><path d="M42.58 177.77h46.37-.09l.35-.02.34-.07.32-.12.3-.17.27-.22.23-.26.19-.3.13-.32.09-.34.03-.34h0v-6.8h0l-.03-.35-.09-.33-.13-.32-.19-.3-.23-.26-.27-.22-.3-.17-.32-.12-.34-.07-.26-.02H42.58l.26.02-.35-.02-.34.04-.34.1-.31.15-.29.2-.25.24-.2.28-.17.3-.11.33-.05.35-.01.17v6.8l.01-.18v.35l.05.34.11.33.17.31.2.28.25.24.29.2.31.15.34.09.34.05z" style="stroke-width:0.53;fill:#FFFFFF;fill-opacity:0.50"/><text x="65.76" y="174.17" lengthAdjust="spacingAndGlyphs" style="font-size:5.69px;font-family:&quot;Liberation Sans&quot;" text-anchor="middle" textLength="43.48">ADAM GOLLATZ</text><path d="M345.61 407.1h55.2-.08l.34-.01.34-.07.33-.13.3-.17.27-.22.23-.26.19-.29.13-.32.09-.34.02-.35h0v-23.18h0l-.02-.35-.09-.34-.13-.32-.19-.29-.23-.26-.27-.22-.3-.17-.33-.13-.34-.07-.26-.01h-55.2l.26.01-.35-.01-.35.04-.33.1-.31.15-.29.19-.25.25-.21.27-.16.31-.11.33-.06.34v23.36-.17.35l.06.34.11.33.16.31.21.28.25.24.29.19.31.15.33.1.35.04z" style="stroke-width:0.53;fill:#FFFFFF;fill-opacity:0.50"/><text x="373.21" y="387.11" lengthAdjust="spacingAndGlyphs" style="font-size:5.69px;font-family:&quot;Liberation Sans&quot;" text-anchor="middle" textLength="52.33">15350 W NATIONAL</text><text x="373.21" y="395.31" lengthAdjust="spacingAndGlyphs" style="font-size:5.69px;font-family:&quot;Liberation Sans&quot;" text-anchor="middle" textLength="52.25">AVE, STE 116, NEW</text><text x="373.21" y="403.5" lengthAdjust="spacingAndGlyphs" style="font-size:5.69px;font-family:&quot;Liberation Sans&quot;" text-anchor="middle" textLength="48.02">BERLIN, WI 53151</text><path d="M152.64 191.86h63.85l-.08-.01.34-.01.34-.07.33-.12.3-.18.27-.22.23-.26.19-.29.13-.32.08-.34.03-.34h0v-15h0l-.03-.34-.08-.34-.13-.32-.19-.29-.23-.26-.27-.22-.3-.18-.33-.12-.34-.07-.26-.02h-63.85l.26.02-.34-.01-.35.04-.33.1-.32.14-.28.2-.25.24-.21.28-.16.31-.11.33-.06.34-.01.17v15l.01-.18v.35l.06.34.11.33.16.31.21.28.25.24.28.2.32.15.33.09.35.04z" style="stroke-width:0.53;fill:#FFFFFF;fill-opacity:0.50"/><text x="184.57" y="180.06" lengthAdjust="spacingAndGlyphs" style="font-size:5.69px;font-family:&quot;Liberation Sans&quot;" text-anchor="middle" textLength="41.06">2140 N 2ND ST,</text><text x="184.57" y="188.26" lengthAdjust="spacingAndGlyphs" style="font-size:5.69px;font-family:&quot;Liberation Sans&quot;" text-anchor="middle" textLength="60.97">MILWAUKEE, WI 53212</text><path d="M205.92 336.03h67.34-.09l.35-.02.34-.07.32-.12.3-.18.27-.21.23-.27.19-.29.14-.32.08-.34.03-.34h0v-23.19h0l-.03-.34-.08-.34-.14-.32-.19-.3-.23-.26-.27-.22-.3-.17-.32-.12-.34-.07-.26-.02h-67.34l.26.02-.34-.02-.35.05-.33.09-.32.15-.28.2-.25.24-.21.28-.16.3-.11.33-.06.35-.01.17v23.19l.01-.18v.35l.06.34.11.33.16.31.21.28.25.24.28.2.32.15.33.09.35.05z" style="stroke-width:0.53;fill:#FFFFFF;fill-opacity:0.50"/><text x="239.59" y="316.04" lengthAdjust="spacingAndGlyphs" style="font-size:5.69px;font-family:&quot;Liberation Sans&quot;" text-anchor="middle" textLength="55.38">190 FULTON ST, APT</text><text x="239.59" y="324.23" lengthAdjust="spacingAndGlyphs" style="font-size:5.69px;font-family:&quot;Liberation Sans&quot;" text-anchor="middle" textLength="64.45">210, FARMINGDALE, NY</text><text x="239.59" y="332.43" lengthAdjust="spacingAndGlyphs" style="font-size:5.69px;font-family:&quot;Liberation Sans&quot;" text-anchor="middle" textLength="15.36">11735</text><path d="M246.28 490.1h55.21l-.09-.01.35-.01.34-.07.32-.12.31-.18.26-.22.23-.26.19-.29.14-.32.08-.34.03-.34h0v-23.19h0l-.03-.35-.08-.33-.14-.32-.19-.3-.23-.26-.26-.22-.31-.17-.32-.12-.34-.07-.26-.02h-55.21l.26.02-.35-.02-.34.04-.34.1-.31.15-.29.2-.25.24-.21.28-.16.3-.11.33-.05.35-.01.17v23.19l.01-.18v.35l.05.34.11.33.16.31.21.28.25.24.29.2.31.15.34.09.34.04z" style="stroke-width:0.53;fill:#FFFFFF;fill-opacity:0.50"/><text x="273.88" y="470.11" lengthAdjust="spacingAndGlyphs" style="font-size:5.69px;font-family:&quot;Liberation Sans&quot;" text-anchor="middle" textLength="52.33">15350 W NATIONAL</text><text x="273.88" y="478.3" lengthAdjust="spacingAndGlyphs" style="font-size:5.69px;font-family:&quot;Liberation Sans&quot;" text-anchor="middle" textLength="52.25">AVE, STE 116, NEW</text><text x="273.88" y="486.5" lengthAdjust="spacingAndGlyphs" style="font-size:5.69px;font-family:&quot;Liberation Sans&quot;" text-anchor="middle" textLength="48.02">BERLIN, WI 53151</text><path d="M332.24 522.2h63.85-.08l.34-.01.34-.07.33-.12.3-.18.27-.22.23-.26.18-.29.14-.32.08-.34.03-.35h0v-14.99h0l-.03-.34-.08-.34-.14-.32-.18-.29-.23-.27-.27-.21-.3-.18-.33-.12-.34-.07-.26-.02h-63.85l.26.02-.34-.02-.35.05-.33.09-.32.15-.28.2-.25.24-.21.28-.16.31-.11.33-.06.34-.01.17v14.99l.01-.17v.35l.06.34.11.33.16.31.21.28.25.24.28.19.32.15.33.1.35.04z" style="stroke-width:0.53;fill:#FFFFFF;fill-opacity:0.50"/><text x="364.17" y="510.41" lengthAdjust="spacingAndGlyphs" style="font-size:5.69px;font-family:&quot;Liberation Sans&quot;" text-anchor="middle" textLength="53.05">6650 STATE ST 171,</text><text x="364.17" y="518.6" lengthAdjust="spacingAndGlyphs" style="font-size:5.69px;font-family:&quot;Liberation Sans&quot;" text-anchor="middle" textLength="60.97">MILWAUKEE, WI 53213</text><path d="M470.69 509.21h64.71-.09l.35-.01.34-.07.32-.13.3-.17.27-.22.23-.26.19-.29.13-.32.09-.34.03-.35h0v-23.18h0l-.03-.35-.09-.34-.13-.32-.19-.29-.23-.26-.27-.22-.3-.17-.32-.13-.34-.07-.26-.01h-64.71l.26.01-.35-.01-.34.04-.34.1-.31.15-.29.19-.25.24-.21.28-.16.31-.11.33-.06.34v23.36-.17.35l.06.34.11.33.16.31.21.27.25.25.29.19.31.15.34.1.34.04z" style="stroke-width:0.53;fill:#FFFFFF;fill-opacity:0.50"/><text x="503.04" y="489.22" lengthAdjust="spacingAndGlyphs" style="font-size:5.69px;font-family:&quot;Liberation Sans&quot;" text-anchor="middle" textLength="58.97">15350 NATIONAL AVE,</text><text x="503.04" y="497.42" lengthAdjust="spacingAndGlyphs" style="font-size:5.69px;font-family:&quot;Liberation Sans&quot;" text-anchor="middle" textLength="61.83">STE 116, NEW BERLIN,</text><text x="503.04" y="505.61" lengthAdjust="spacingAndGlyphs" style="font-size:5.69px;font-family:&quot;Liberation Sans&quot;" text-anchor="middle" textLength="24.31">WI 53151</text><path d="M472.35 444.85h65.75-.09l.35-.01.34-.07.33-.13.3-.17.27-.22.23-.26.18-.3.14-.32.08-.33.03-.35h0V427.7h0l-.03-.35-.08-.33-.14-.32-.18-.3-.23-.26-.27-.22-.3-.17-.33-.12-.34-.07-.26-.02h-65.75l.26.02-.35-.02-.35.04-.33.1-.31.15-.29.2-.25.24-.21.28-.16.3-.11.33-.06.35v15.16-.17.34l.06.35.11.33.16.31.21.27.25.24.29.2.31.15.33.1.35.04z" style="stroke-width:0.53;fill:#FFFFFF;fill-opacity:0.50"/><text x="505.22" y="433.06" lengthAdjust="spacingAndGlyphs" style="font-size:5.69px;font-family:&quot;Liberation Sans&quot;" text-anchor="middle" textLength="58.97">15350 NATIONAL AVE,</text><text x="505.22" y="441.25" lengthAdjust="spacingAndGlyphs" style="font-size:5.69px;font-family:&quot;Liberation Sans&quot;" text-anchor="middle" textLength="62.88">NEW BERLIN, WI 53151</text></g><g clip-path="url(#cpMC4wMHw1NzYuMDB8MC4wMHw1NzYuMDA=)"><circle cx="192.83" cy="97.06" r="1.95" style="stroke-width:0.71;stroke:none;fill:#F8766D"/><path d="m269.23 94.02 2.63 4.56h-5.26z" style="stroke-width:0.71;stroke:none;fill:#00BA38"/><path d="M335.23 99.01h3.91V95.1h-3.91z" style="stroke-width:0.71;stroke:none;fill:#619CFF"/><text x="206.95" y="100.22" lengthAdjust="spacingAndGlyphs" style="font-size:8.80px;font-weight:0;font-family:&quot;Nimbus Sans Narrow&quot;" textLength="48.16">mprop address</text><text x="283.35" y="100.22" lengthAdjust="spacingAndGlyphs" style="font-size:8.80px;font-weight:0;font-family:&quot;Nimbus Sans Narrow&quot;" textLength="39.72">owner name</text><text x="351.31" y="100.22" lengthAdjust="spacingAndGlyphs" style="font-size:8.80px;font-weight:0;font-family:&quot;Nimbus Sans Narrow&quot;" textLength="40.5">wdfi address</text><text x="29.89" y="65.35" lengthAdjust="spacingAndGlyphs" style="font-size:12.00px;font-weight:0;font-family:&quot;Nimbus Sans Narrow&quot;" textLength="252.11">includes 32 parcels, 42 units, and 5 distinct owner names.</text><text x="29.89" y="42.81" lengthAdjust="spacingAndGlyphs" style="font-size:18.00px;font-weight:0;font-family:&quot;Nimbus Sans Narrow&quot;" textLength="235.34">AGKW HOLDINGS LLC etc Group</text></g></g></svg>