<svg xmlns="http://www.w3.org/2000/svg" width="384" height="480" viewBox="0 0 288 360"><g class="svglite"><defs><style><![CDATA[.svglite line,.svglite polyline,.svglite polygon,.svglite path,.svglite circle{fill:none;stroke:#000000;stroke-linecap:round;stroke-linejoin:round;stroke-miterlimit:10.00}.svglite text{white-space:pre}.svglite g.glyphgroup path{fill:inherit;stroke:none}]]></style></defs><rect width="100%" height="100%" style="stroke-linecap:round;stroke-linejoin:round;stroke-miterlimit:10.00;stroke:none;fill:#FFFFFF"/><defs><clipPath id="cpMC4wMHwyODguMDB8MC4wMHwzNjAuMDA="><path d="M0 0h288v360H0z"/></clipPath></defs><g clip-path="url(#cpMC4wMHwyODguMDB8MC4wMHwzNjAuMDA=)"><path d="M0 0h288v360H0z" style="stroke-width:1.07;stroke:none;fill:#FFFFFF"/></g><defs><clipPath id="cpMjkuODl8MjU4LjExfDE0MS41OHwzMzAuMTE="><path d="M29.89 141.58h228.22v188.53H29.89z"/></clipPath></defs><g clip-path="url(#cpMjkuODl8MjU4LjExfDE0MS41OHwzMzAuMTE=)"><path d="m247.74 162.18-1.15-.9-1.14-.86-1.14-.83-1.14-.79-1.14-.76-1.14-.72-1.13-.69-1.14-.65-1.13-.62-1.12-.59-1.13-.55-1.12-.51-1.13-.48-1.12-.45-1.11-.41-1.12-.37-1.11-.35-1.12-.3-1.11-.27-1.1-.24-1.11-.2-1.1-.17-1.11-.13-1.1-.1-1.09-.06-1.1-.03h-1.09l-1.1.04-1.09.08-1.08.11-1.09.14-1.08.18-1.09.22-1.08.25-1.07.28-1.08.32-1.07.35-1.08.39-1.07.43-1.06.45-1.07.5-1.06.52-1.07.56-1.06.6-1.05.63-1.06.67-1.05.7-1.06.74-1.05.77-1.04.8-1.05.84-1.04.87-1.04.91-1.04.95-1.04.98-1.04 1.01-1.03 1.05-1.03 1.08-1.03 1.12-1.03 1.15-1.03 1.19-1.02 1.22-1.02 1.26-1.02 1.29-1.02 1.32-1.02 1.36-1.01 1.4-1.01 1.43-1.01 1.46-1.01 1.5-1 1.54-1.01 1.57-1 1.6-1 1.64-1 1.67-.99 1.71-1 1.74-.99 1.78-.99 1.81-.99 1.85-.98 1.88-.98 1.92-.99 1.95-.98 1.98-.97 2.02-.98 2.06-.97 2.09-.97 2.12-.97 2.16-.97 2.2-.97 2.23-.96 2.26-.96 2.3-.96 2.33-.96 2.37-.95 2.4-.96 2.44-.95 2.47-.95 2.51" style="stroke-width:1.07;stroke:#000000;stroke-opacity:0.10;stroke-linecap:butt"/><path d="m247.74 162.18-1.13-.52-1.12-.49-1.12-.47-1.12-.43-1.12-.42-1.11-.38-1.12-.36-1.11-.33-1.11-.3-1.11-.27-1.11-.25-1.11-.22-1.11-.2-1.1-.17-1.1-.14-1.1-.11-1.1-.09-1.1-.06-1.1-.03h-1.09l-1.1.02-1.09.05-1.09.07-1.09.11-1.08.12-1.09.16-1.08.19-1.08.21-1.08.23-1.08.27-1.08.29-1.08.32-1.07.34-1.07.38-1.08.4-1.06.42-1.07.46-1.07.48-1.06.51-1.07.53-1.06.56-1.06.59-1.06.62-1.06.64-1.05.67-1.06.7-1.05.72-1.05.75-1.05.78-1.05.8-1.04.84-1.05.86-1.04.88-1.04.91-1.04.94-1.04.97-1.04 1-1.03 1.02-1.04 1.05-1.03 1.07-1.03 1.1-1.03 1.13-1.03 1.16-1.02 1.18-1.03 1.21-1.02 1.24-1.02 1.26-1.02 1.29-1.02 1.32-1.02 1.35-1.01 1.37-1.01 1.4-1.02 1.42-1.01 1.46-1.01 1.48-1 1.51-1.01 1.53-1 1.56-1.01 1.59-1 1.62-1 1.64-.99 1.67-1 1.69-1 1.73-.99 1.75-.99 1.77-.99 1.81-.99 1.83-.99 1.86-.98 1.88-.98 1.92-.99 1.94-.98 1.96-.98 2-.97 2.02-.98 2.04-.98 2.08-.97 2.1-.97 2.13" style="stroke-width:1.07;stroke:#000000;stroke-opacity:0.10;stroke-linecap:butt"/><path d="m247.74 162.18-1.1-.14-1.11-.12-1.1-.11-1.1-.08-1.09-.06-1.1-.05-1.1-.02-1.09-.01-1.09.02-1.1.03-1.09.05-1.09.08-1.09.09-1.09.11-1.08.13-1.09.15-1.08.16-1.09.19-1.08.21-1.08.22-1.08.25-1.08.26-1.08.29-1.07.3-1.08.32-1.07.35-1.08.36-1.07.38-1.07.4-1.07.42-1.07.43-1.07.46-1.07.48-1.06.5-1.07.51-1.06.54-1.06.55-1.06.57-1.06.6-1.06.61-1.06.63-1.06.65-1.05.67-1.06.69-1.05.71-1.05.73-1.05.74-1.05.77-1.05.78-1.05.81-1.05.82-1.04.85-1.05.86-1.04.88-1.04.9-1.04.92-1.04.94-1.04.96-1.04.98-1.04 1-1.03 1.02-1.04 1.03-1.03 1.06-1.03 1.08-1.03 1.09-1.03 1.11-1.03 1.14-1.03 1.15-1.03 1.17-1.02 1.19-1.03 1.21-1.02 1.23-1.02 1.25-1.02 1.27-1.02 1.28-1.02 1.31-1.02 1.33-1.02 1.34-1.01 1.37-1.02 1.38-1.01 1.4-1.01 1.43-1.01 1.44-1.01 1.46-1.01 1.48-1.01 1.5-1.01 1.52-1 1.54-1.01 1.55-1 1.58-1 1.6-1 1.61-1 1.64-1 1.65-1 1.67-1 1.7-.99 1.71-1 1.73-.99 1.75" style="stroke-width:1.07;stroke:#000000;stroke-opacity:0.10;stroke-linecap:butt"/><path d="m247.74 162.18-1.08.24-1.08.24-1.08.27-1.08.27-1.08.28-1.08.3-1.07.3-1.08.32-1.07.33-1.08.35-1.07.35-1.08.36-1.07.38-1.07.39-1.07.4-1.07.41-1.07.42-1.07.44-1.07.44-1.07.46-1.06.47-1.07.48-1.07.49-1.06.51-1.07.51-1.06.53-1.06.54-1.07.55-1.06.56-1.06.57-1.06.59-1.06.6-1.06.6-1.06.62-1.06.64-1.05.64-1.06.65-1.06.67-1.05.68-1.06.69-1.05.7-1.05.71-1.06.72-1.05.74-1.05.75-1.05.75-1.05.77-1.05.79-1.05.79-1.04.8-1.05.82-1.05.83-1.04.84-1.05.85-1.04.86-1.05.88-1.04.88-1.04.9-1.04.91-1.05.92-1.04.93-1.04.95-1.04.95-1.03.97-1.04.98-1.04.99-1.04 1-1.03 1.01-1.04 1.03-1.03 1.03-1.03 1.05-1.04 1.06-1.03 1.07-1.03 1.09-1.03 1.09-1.03 1.11-1.03 1.11-1.03 1.13-1.03 1.14-1.03 1.16-1.03 1.16-1.02 1.18-1.03 1.18-1.02 1.2-1.03 1.21-1.02 1.22-1.02 1.24-1.03 1.24-1.02 1.26-1.02 1.27-1.02 1.28-1.02 1.29-1.02 1.3-1.02 1.31-1.02 1.33-1.01 1.34-1.02 1.35-1.01 1.36-1.02 1.37" style="stroke-width:1.07;stroke:#000000;stroke-opacity:0.10;stroke-linecap:butt"/><path d="m247.74 162.18-1.06.61-1.06.62-1.06.63-1.06.62-1.05.64-1.06.63-1.06.64-1.06.64-1.05.65-1.06.65-1.06.65-1.05.66-1.06.67-1.05.66-1.06.67-1.06.67-1.05.68-1.06.68-1.05.69-1.06.69-1.05.69-1.05.7-1.06.7-1.05.7-1.05.71-1.06.71-1.05.72-1.05.72-1.06.72-1.05.73-1.05.73-1.05.74-1.05.74-1.06.74-1.05.75-1.05.75-1.05.76-1.05.75-1.05.77-1.05.76-1.05.77-1.05.78-1.05.78-1.05.78-1.05.78-1.04.79-1.05.8-1.05.79-1.05.8-1.05.81-1.05.81-1.04.81-1.05.82-1.05.82-1.04.82-1.05.83-1.05.83-1.04.84-1.05.84-1.04.84-1.05.85-1.04.85-1.05.85-1.04.86-1.05.87-1.04.86-1.05.87-1.04.88-1.04.88-1.05.88-1.04.88-1.04.89-1.05.9-1.04.9-1.04.9-1.04.9-1.05.91-1.04.91-1.04.92-1.04.92-1.04.93-1.04.93-1.04.93-1.04.93-1.04.94-1.04.95-1.04.95-1.04.95-1.04.95-1.04.96-1.04.97-1.04.96-1.03.97-1.04.98-1.04.98-1.04.98-1.04.99-1.03.99-1.04.99m103.74-79.69-1.04.99-1.04.99-1.03.99-1.04.98-1.04.98-1.04.97-1.03.98-1.04.96-1.04.97-1.04.95-1.04.96-1.04.95-1.04.95-1.04.94-1.04.94-1.04.94-1.04.93-1.04.93-1.04.92-1.04.93-1.04.91-1.05.92-1.04.9-1.04.91-1.04.9-1.04.9-1.05.89-1.04.89-1.04.89-1.05.88-1.04.88-1.04.87-1.05.87-1.04.87-1.05.86-1.04.86-1.05.86-1.04.85-1.05.85-1.04.84-1.05.84-1.04.84-1.05.83-1.05.83-1.04.82-1.05.82-1.05.82-1.05.81-1.04.81-1.05.8-1.05.8-1.05.8-1.05.8-1.04.78-1.05.79-1.05.78-1.05.78-1.05.77-1.05.77-1.05.77-1.05.76-1.05.76-1.05.76-1.05.75-1.06.74-1.05.75-1.05.74-1.05.73-1.05.73-1.06.73-1.05.73-1.05.72-1.05.71-1.06.71-1.05.71-1.05.71-1.06.7-1.05.7-1.06.69-1.05.69-1.06.68-1.05.68-1.06.68-1.05.68-1.06.67-1.05.66-1.06.66-1.06.66-1.05.66-1.06.65-1.06.64-1.05.65-1.06.64-1.06.63-1.06.63-1.05.63-1.06.62-1.06.62-1.06.62" style="stroke-width:1.07;stroke:#000000;stroke-opacity:0.10;stroke-linecap:butt"/><path d="m247.74 162.18-1.02 1.37-1.01 1.36-1.02 1.35-1.02 1.34-1.01 1.32-1.02 1.32-1.02 1.3-1.02 1.29-1.02 1.28-1.02 1.27-1.02 1.26-1.03 1.24-1.02 1.23-1.02 1.23-1.03 1.21-1.02 1.19-1.03 1.19-1.03 1.18-1.02 1.16-1.03 1.15-1.03 1.14-1.03 1.13-1.03 1.12-1.03 1.11-1.03 1.09-1.03 1.08-1.03 1.07-1.04 1.06-1.03 1.05-1.03 1.04-1.04 1.02-1.04 1.02-1.03 1-1.04.99-1.04.98-1.04.97-1.04.95-1.03.94-1.05.94-1.04.92-1.04.91-1.04.89-1.04.89-1.05.87-1.04.87-1.05.85-1.04.84-1.05.83-1.05.81-1.04.81-1.05.79-1.05.78-1.05.77-1.05.76-1.05.75-1.06.73-1.05.73-1.05.71-1.06.7-1.05.69-1.06.68-1.05.66-1.06.66-1.06.64-1.05.63-1.06.62-1.06.61-1.06.6-1.06.58-1.06.58-1.06.56-1.07.55-1.06.54-1.06.52-1.07.52-1.06.5-1.07.5-1.07.48-1.06.47-1.07.45-1.07.45-1.07.43-1.07.43-1.07.41-1.07.4-1.07.39-1.08.37-1.07.37-1.07.35-1.08.34-1.07.33-1.08.32-1.08.31-1.07.3-1.08.28-1.08.27-1.08.26-1.08.25-1.08.24M40.26 321.54l1.06-.61 1.06-.62 1.06-.63 1.06-.62 1.05-.63 1.06-.64 1.06-.64 1.06-.64 1.05-.65 1.06-.65 1.06-.65 1.05-.66 1.06-.66 1.05-.67 1.06-.67 1.06-.67 1.05-.68 1.06-.68 1.05-.69 1.06-.68 1.05-.7 1.05-.69 1.06-.7 1.05-.71 1.05-.71 1.06-.71 1.05-.72 1.05-.72 1.06-.72 1.05-.73 1.05-.73 1.05-.73 1.05-.74 1.06-.75 1.05-.74 1.05-.75 1.05-.76 1.05-.76 1.05-.76 1.05-.77 1.05-.77 1.05-.77 1.05-.78 1.05-.78 1.05-.78 1.05-.79 1.04-.8 1.05-.79 1.05-.8 1.05-.81 1.05-.81 1.04-.81 1.05-.82 1.05-.82 1.04-.82 1.05-.83 1.05-.83 1.04-.84 1.05-.84 1.04-.84 1.05-.85 1.05-.85 1.04-.85 1.04-.86 1.05-.86 1.04-.87 1.05-.87 1.04-.87 1.05-.88 1.04-.89 1.04-.88 1.04-.89 1.05-.89 1.04-.9 1.04-.9 1.04-.91 1.05-.91 1.04-.91 1.04-.92 1.04-.92 1.04-.92 1.04-.93 1.04-.93 1.04-.94 1.04-.94 1.04-.94 1.04-.95 1.04-.95 1.04-.96 1.04-.95 1.04-.97 1.04-.96 1.04-.98 1.03-.97 1.04-.98 1.04-.98 1.04-.99 1.03-.99 1.04-.99" style="stroke-width:1.07;stroke:#000000;stroke-opacity:0.10;stroke-linecap:butt"/><path d="m247.74 162.18-.99 1.75-1 1.73-.99 1.71-1 1.69-1 1.68-1 1.65-1 1.64-1 1.61-1 1.6-1 1.57-1.01 1.56-1 1.54-1.01 1.52-1.01 1.5-1.01 1.48-1.01 1.46-1.01 1.44-1.01 1.42-1.01 1.41-1.02 1.38-1.01 1.36-1.02 1.35-1.02 1.33-1.02 1.3-1.02 1.29-1.02 1.27-1.02 1.25-1.02 1.23-1.03 1.21-1.02 1.19-1.03 1.17-1.03 1.15-1.03 1.13-1.03 1.12-1.03 1.09-1.03 1.08-1.03 1.05-1.04 1.04-1.03 1.02-1.04.99-1.04.98-1.04.96-1.04.94-1.04.92-1.04.9-1.04.89-1.05.86-1.04.84-1.05.83-1.05.8-1.05.79-1.05.76-1.05.75-1.05.73-1.05.71-1.06.69-1.05.67-1.06.65-1.06.63-1.06.61-1.06.59-1.06.58-1.06.55-1.07.54-1.06.51-1.07.5-1.06.47-1.07.46-1.07.44-1.07.42-1.07.4-1.07.38-1.08.36-1.07.34-1.08.33-1.07.3-1.08.28-1.08.27-1.08.24-1.08.23-1.09.21-1.08.18-1.08.17-1.09.15-1.09.13-1.08.11-1.09.09-1.09.07-1.09.06-1.1.03-1.09.01h-1.1l-1.09-.03-1.1-.04-1.1-.06-1.1-.09-1.1-.1-1.1-.12-1.1-.14" style="stroke-width:1.07;stroke:#000000;stroke-opacity:0.10;stroke-linecap:butt"/><path d="m247.74 162.18-.97 2.13-.98 2.1-.97 2.07-.98 2.05-.97 2.02-.98 1.99-.98 1.97-.99 1.94-.98 1.91-.99 1.89-.98 1.86-.99 1.83-.99 1.8-.99 1.78-1 1.75-.99 1.72-1 1.7-1 1.67-.99 1.64-1.01 1.62-1 1.59-1 1.56-1.01 1.53-1.01 1.51-1 1.48-1.01 1.45-1.02 1.43-1.01 1.4-1.02 1.37-1.01 1.35-1.02 1.31-1.02 1.29-1.02 1.27-1.02 1.24-1.03 1.21-1.02 1.18-1.03 1.16-1.03 1.12-1.03 1.11-1.03 1.07-1.04 1.05-1.03 1.02-1.04 1-1.04.96-1.04.94-1.04.92-1.04.88-1.05.86-1.04.83-1.05.81-1.05.78-1.05.75-1.06.72-1.05.7-1.05.67-1.06.64-1.06.62-1.06.58-1.06.57-1.07.53-1.06.51-1.07.48-1.07.45-1.07.43-1.07.4-1.07.37-1.07.35-1.08.32-1.08.29-1.08.26-1.08.24-1.08.21-1.08.19-1.09.15-1.09.13-1.08.1-1.09.08-1.1.05-1.09.02h-1.09l-1.1-.04-1.1-.06-1.1-.08-1.1-.12-1.1-.14-1.1-.16-1.11-.2-1.11-.22-1.11-.25-1.11-.27-1.11-.31-1.11-.33-1.12-.35-1.11-.39-1.12-.41-1.12-.44-1.12-.46-1.13-.49-1.12-.52" style="stroke-width:1.07;stroke:#000000;stroke-opacity:0.10;stroke-linecap:butt"/><path d="m247.74 162.18-.95 2.5-.95 2.48-.96 2.43-.95 2.41-.96 2.36-.96 2.34-.96 2.3-.96 2.26-.97 2.23-.97 2.19-.97 2.16-.97 2.13-.97 2.09-.98 2.05-.98 2.02-.97 1.99-.99 1.95-.98 1.92-.99 1.88-.98 1.84-.99 1.82-.99 1.77-1 1.75-.99 1.71-1 1.67-1 1.64-1 1.6-1.01 1.57-1 1.53-1.01 1.5-1.01 1.47-1.01 1.43-1.02 1.39-1.01 1.36-1.02 1.33-1.02 1.29-1.02 1.26-1.02 1.22-1.03 1.19-1.03 1.15-1.03 1.12-1.03 1.08-1.03 1.05-1.04 1.01-1.04.98-1.04.94-1.04.91-1.04.88-1.05.84-1.05.8-1.05.77-1.05.74-1.05.7-1.06.66-1.06.64-1.06.59-1.06.56-1.06.53-1.07.49-1.06.46-1.07.42-1.08.39-1.07.36-1.08.31-1.07.29-1.08.25-1.09.21-1.08.18-1.09.15-1.08.11-1.09.07-1.1.04-1.09.01-1.1-.03-1.09-.06-1.1-.1-1.11-.13-1.1-.17-1.11-.2-1.1-.24-1.11-.27-1.12-.31-1.11-.34-1.12-.37-1.12-.41-1.12-.45-1.12-.48-1.12-.52-1.13-.54-1.13-.59-1.13-.62-1.13-.65-1.13-.69-1.14-.72-1.14-.76-1.14-.79-1.14-.83-1.14-.86-1.15-.9" style="stroke-width:1.07;stroke:#000000;stroke-opacity:0.10;stroke-linecap:butt"/><path d="m40.26 321.54 1.04-.99 1.04-.99 1.03-.99 1.04-.98 1.04-.98 1.04-.97 1.04-.97 1.03-.97 1.04-.96 1.04-.96 1.04-.96 1.04-.95 1.04-.95 1.04-.94 1.04-.94 1.04-.94 1.04-.93 1.04-.93 1.04-.92 1.04-.92 1.04-.92 1.05-.91 1.04-.91 1.04-.91 1.04-.9 1.04-.89 1.05-.9 1.04-.89 1.04-.88 1.05-.89 1.04-.87 1.04-.88 1.05-.87 1.04-.86 1.05-.87 1.04-.86 1.05-.85 1.04-.85 1.05-.85 1.04-.84 1.05-.84 1.05-.84 1.04-.83 1.05-.83 1.04-.82 1.05-.82 1.05-.82 1.05-.81 1.04-.81 1.05-.8 1.05-.8 1.05-.8 1.05-.8 1.05-.78 1.04-.79 1.05-.78 1.05-.78 1.05-.77 1.05-.77 1.05-.77 1.05-.76 1.05-.76 1.05-.75 1.06-.76 1.05-.74 1.05-.75 1.05-.73 1.05-.74 1.05-.73 1.06-.73 1.05-.72 1.05-.72 1.05-.72 1.06-.71 1.05-.71 1.05-.7 1.06-.7 1.05-.7 1.06-.69 1.05-.69 1.06-.69 1.05-.68 1.06-.68 1.05-.67 1.06-.67 1.05-.67 1.06-.66 1.06-.66 1.05-.65 1.06-.65 1.06-.65 1.05-.64 1.06-.64 1.06-.63 1.06-.63 1.05-.63 1.06-.63 1.06-.61 1.06-.62" style="stroke-width:1.07;stroke:#000000;stroke-opacity:0.10;stroke-linecap:butt"/><path d="m247.74 152.55 8.34 14.44H239.4zM40.26 319.33l1.92 3.32h-3.83z" style="stroke-width:0.71;stroke:none;fill:#00BFC4"/><circle cx="144" cy="241.87" r="6.76" style="stroke-width:0.71;stroke:none;fill:#F8766D"/><path d="m45.72 316.95-4.57 3.84m97.55-74.32 4.42-3.84" style="stroke-width:0.53;stroke:#BFBFBF"/><path d="M177.71 167.74h63.15l-.09-.01.35-.01.34-.07.32-.12.3-.18.27-.22.23-.26.19-.29.14-.32.08-.34.03-.34h0v-6.8h0l-.03-.35-.08-.33-.14-.32-.19-.3-.23-.26-.27-.22-.3-.17-.32-.13-.34-.06-.26-.02h-63.15l.26.02-.35-.02-.34.04-.34.1-.31.15-.29.2-.25.24-.2.28-.17.3-.11.33-.05.35-.01.17v6.8l.01-.18v.35l.05.34.11.33.17.31.2.28.25.24.29.2.31.15.34.09.34.04z" style="stroke-width:0.53;fill:#FFFFFF;fill-opacity:0.50"/><text x="209.28" y="164.14" lengthAdjust="spacingAndGlyphs" style="font-size:5.69px;font-family:&quot;Liberation Sans&quot;" text-anchor="middle" textLength="60.27">ALFREDO NUNGARAY</text><path d="M36.26 316.95H99.4l-.08-.01.34-.01.34-.07.33-.12.3-.18.27-.22.23-.26.19-.29.13-.32.09-.34.02-.34h0v-15h0l-.02-.34-.09-.34-.13-.32-.19-.29-.23-.26-.27-.22-.3-.18-.33-.12-.34-.07-.26-.02H36.26l.26.02-.35-.01-.34.04-.34.09-.31.15-.29.2-.25.24-.21.28-.16.31-.11.33-.06.34v15.17-.18.35l.06.34.11.33.16.31.21.28.25.24.29.2.31.14.34.1.34.04z" style="stroke-width:0.53;fill:#FFFFFF;fill-opacity:0.50"/><text x="67.83" y="305.15" lengthAdjust="spacingAndGlyphs" style="font-size:5.69px;font-family:&quot;Liberation Sans&quot;" text-anchor="middle" textLength="60.27">ALFREDO NUNGARAY</text><text x="67.83" y="313.35" lengthAdjust="spacingAndGlyphs" style="font-size:5.69px;font-family:&quot;Liberation Sans&quot;" text-anchor="middle" textLength="34.47">RUBALCABA</text><path d="M94.82 265.79h63.85l-.09-.01.35-.01.34-.07.32-.12.3-.18.27-.22.23-.26.19-.29.13-.32.09-.34.03-.34h0v-15h0l-.03-.34-.09-.34-.13-.32-.19-.29-.23-.26-.27-.22-.3-.18-.32-.12-.34-.07-.26-.02H94.82l.26.02-.35-.01-.35.04-.33.09-.31.15-.29.2-.25.24-.21.28-.16.31-.11.33-.06.34v15.17-.18.35l.06.34.11.33.16.31.21.28.25.24.29.2.31.14.33.1.35.04z" style="stroke-width:0.53;fill:#FFFFFF;fill-opacity:0.50"/><text x="126.74" y="253.99" lengthAdjust="spacingAndGlyphs" style="font-size:5.69px;font-family:&quot;Liberation Sans&quot;" text-anchor="middle" textLength="43.27">1019 S 26TH ST,</text><text x="126.74" y="262.19" lengthAdjust="spacingAndGlyphs" style="font-size:5.69px;font-family:&quot;Liberation Sans&quot;" text-anchor="middle" textLength="60.97">MILWAUKEE, WI 53204</text></g><g clip-path="url(#cpMC4wMHwyODguMDB8MC4wMHwzNjAuMDA=)"><circle cx="83.2" cy="116.5" r="1.95" style="stroke-width:0.71;stroke:none;fill:#F8766D"/><path d="m159.6 113.46 2.63 4.56h-5.26z" style="stroke-width:0.71;stroke:none;fill:#00BFC4"/><text x="97.32" y="119.66" lengthAdjust="spacingAndGlyphs" style="font-size:8.80px;font-weight:0;font-family:&quot;Nimbus Sans Narrow&quot;" textLength="48.16">mprop address</text><text x="173.72" y="119.66" lengthAdjust="spacingAndGlyphs" style="font-size:8.80px;font-weight:0;font-family:&quot;Nimbus Sans Narrow&quot;" textLength="39.72">owner name</text><text x="29.89" y="84.79" lengthAdjust="spacingAndGlyphs" style="font-size:12.00px;font-weight:0;font-family:&quot;Nimbus Sans Narrow&quot;" textLength="252.11">includes 12 parcels, 27 units, and 2 distinct owner names.</text><text x="29.89" y="42.81" lengthAdjust="spacingAndGlyphs" style="font-size:18.00px;font-weight:0;font-family:&quot;Nimbus Sans Narrow&quot;" textLength="250.06">ALFREDO NUNGARAY -- ALFREDO</text><text x="29.89" y="62.25" lengthAdjust="spacingAndGlyphs" style="font-size:18.00px;font-weight:0;font-family:&quot;Nimbus Sans Narrow&quot;" textLength="232.02">NUNGARAY RUBALCABA Group</text></g></g></svg>