<svg xmlns="http://www.w3.org/2000/svg" width="384" height="384" class="svglite" viewBox="0 0 288 288"><defs><style>.svglite circle,.svglite line,.svglite polygon,.svglite polyline,.svglite rect{fill:none;stroke:#000;stroke-linecap:round;stroke-linejoin:round;stroke-miterlimit:10}.svglite text{white-space:pre}</style></defs><rect width="100%" height="100%" style="stroke:none;fill:#fff"/><defs><clipPath id="cpMC4wMHwyODguMDB8MC4wMHwyODguMDA="><path d="M0 0h288v288H0z"/></clipPath></defs><g clip-path="url(#cpMC4wMHwyODguMDB8MC4wMHwyODguMDA=)"><path d="M0 0h288v288H0z" style="stroke-width:1.07;stroke:none;fill:#fff"/></g><defs><clipPath id="cpMzIuNjN8MjU4LjExfDEyMS43OHwyNTUuMzc="><path d="M32.63 121.78h225.48v133.59H32.63z"/></clipPath></defs><g clip-path="url(#cpMzIuNjN8MjU4LjExfDEyMS43OHwyNTUuMzc=)"><path d="m247.86 212.15-1.22-.16-1.22-.16-1.22-.16-1.23-.16-1.22-.15-1.22-.16-1.22-.16-1.23-.16-1.22-.16-1.22-.16-1.22-.16-1.22-.15-1.23-.16-1.22-.16-1.22-.16-1.22-.16-1.23-.16-1.22-.16-1.22-.16-1.22-.15-1.22-.16-1.23-.16-1.22-.16-1.22-.16-1.22-.16-1.23-.16-1.22-.16-1.22-.15-1.22-.16-1.22-.16-1.23-.16-1.22-.16-1.22-.16-1.22-.16-1.23-.16-1.22-.15-1.22-.16-1.22-.16-1.22-.16-1.23-.16-1.22-.16-1.22-.16-1.22-.16-1.23-.15-1.22-.16-1.22-.16-1.22-.16-1.22-.16-1.23-.16-1.22-.16-1.22-.16-1.22-.15-1.23-.16-1.22-.16-1.22-.16-1.22-.16-1.22-.16-1.23-.16-1.22-.16-1.22-.15-1.22-.16-1.23-.16-1.22-.16-1.22-.16-1.22-.16-1.22-.16-1.23-.16-1.22-.15-1.22-.16-1.22-.16-1.23-.16-1.22-.16-1.22-.16-1.22-.16-1.22-.15-1.23-.16-1.22-.16-1.22-.16-1.22-.16-1.23-.16-1.22-.16-1.22-.16-1.22-.15-1.22-.16-1.23-.16-1.22-.16-1.22-.16-1.22-.16-1.23-.16-1.22-.16-1.22-.15-1.22-.16-1.22-.16-1.23-.16-1.22-.16-1.22-.16-1.22-.16-1.23-.16-1.22-.15M89.85 127.86l.37.69.38.69.37.69.37.7.38.69.37.69.38.7.37.69.37.69.38.69.37.7.37.69.38.69.37.69.38.7.37.69.37.69.38.7.37.69.38.69.37.69.37.7.38.69.37.69.38.69.37.7.37.69.38.69.37.7.37.69.38.69.37.69.38.7.37.69.37.69.38.69.37.7.38.69.37.69.37.7.38.69.37.69.37.69.38.7.37.69.38.69.37.69.37.7.38.69.37.69.38.7.37.69.37.69.38.69.37.7.38.69.37.69.37.69.38.7.37.69.37.69.38.69.37.7.38.69.37.69.37.7.38.69.37.69.38.69.37.7.37.69.38.69.37.69.38.7.37.69.37.69.38.7.37.69.37.69.38.69.37.7.38.69.37.69.37.69.38.7.37.69.38.69.37.7.37.69.38.69.37.69.38.7.37.69.37.69.38.69.37.7.37.69.38.69.37.7M42.88 249.3l1.07-.41 1.08-.42 1.06-.41 1.06-.42 1.06-.43 1.06-.42 1.04-.43 1.05-.43 1.04-.43 1.03-.43 1.03-.44 1.03-.44 1.02-.44 1.01-.45 1.01-.45 1.01-.45 1-.45 1-.45.99-.46.99-.46.98-.46.98-.46.98-.47.97-.47.96-.47.96-.48.96-.47.95-.48.94-.49.94-.48.94-.49.93-.49.93-.49.92-.49.92-.5.91-.5.91-.5.91-.5.9-.51.89-.51.89-.51.89-.52.88-.51.88-.52.87-.52.86-.53.87-.52.85-.53.86-.53.85-.54.84-.53.84-.54.83-.54.83-.55.83-.54.82-.55.81-.56.81-.55.81-.56.8-.55.8-.57.79-.56.79-.57.78-.56.78-.58.78-.57.76-.58.77-.57.76-.59.75-.58.76-.59.74-.58.74-.59.74-.6.73-.59.73-.6.72-.6.72-.61.71-.6.71-.61.71-.61.69-.62.7-.61.69-.62.68-.62.69-.62.67-.63.67-.63.67-.63.66-.63.66-.64.65-.64.65-.64.64-.64.64-.65.64-.65.63-.65.62-.65.62-.65" style="stroke-width:1.07;stroke:#000;stroke-opacity:.1;stroke-linecap:butt"/><path d="m42.88 249.3.62-.66.62-.65.63-.65.64-.65.63-.64.65-.65.65-.64.65-.64.66-.63.66-.63.67-.64.67-.62.67-.63.68-.62.69-.62.69-.62.69-.62.7-.61.71-.61.71-.61.71-.61.72-.6.72-.6.73-.6.73-.6.74-.59.74-.59.74-.59.75-.59.76-.58.76-.58.76-.58.77-.58.78-.57.78-.57.78-.57.79-.57.79-.56.8-.56.8-.56.81-.56.81-.55.81-.55.82-.55.83-.55.83-.54.83-.54.84-.54.84-.54.85-.53.86-.53.85-.53.87-.53.86-.52.87-.52.88-.52.88-.52.89-.51.89-.51.89-.51.9-.51.91-.5.9-.51.92-.5.92-.49.92-.5.93-.49.93-.49.94-.48.94-.49.94-.48.95-.48.96-.48.96-.47.96-.47.97-.47.98-.47.98-.46.98-.47.99-.46.99-.45 1-.46 1-.45 1.01-.45 1.01-.45 1.01-.44 1.02-.44 1.03-.44 1.03-.44 1.03-.43 1.04-.44 1.05-.43 1.04-.42 1.06-.43 1.05-.42 1.07-.42 1.06-.42 1.08-.41 1.07-.41" style="stroke-width:1.07;stroke:#000;stroke-opacity:.1;stroke-linecap:butt"/><path d="m247.86 209.94 1.92 3.32h-3.83zM89.85 125.65l1.91 3.31h-3.83zM42.88 242.3l6.06 10.5H36.81z" style="stroke-width:.71;stroke:none;fill:#00bfc4"/><circle cx="126.86" cy="196.44" r="6.76" style="stroke-width:.71;stroke:none;fill:#f8766d"/><path d="m50.1 244.84-6.22 3.84M119.68 200.89l6.18-3.83" style="stroke-width:.53;stroke:#bfbfbf"/><path d="M179.97 221.89h60.71-.08l.34-.02.35-.07.32-.12.3-.17.27-.22.23-.26.19-.3.13-.32.09-.34.02-.34v-15.16l-.02-.34-.09-.34-.13-.32-.19-.3-.23-.26-.27-.22-.3-.17-.32-.12-.35-.07-.26-.02h-60.71l.26.02-.34-.02-.35.05-.33.09-.32.15-.28.2-.25.24-.21.28-.16.3-.11.33-.06.35-.01.17v15.16l.01-.18v.35l.06.35.11.33.16.3.21.28.25.24.28.2.32.15.33.09.35.05z" style="stroke-width:.53;fill:#fff;fill-opacity:.5"/><text x="210.33" y="210.09" lengthAdjust="spacingAndGlyphs" style="font-size:5.69px;font-family:&quot;Arial&quot;" text-anchor="middle" textLength="57.83">ALOHA AINA ESTATE</text><text x="210.33" y="218.29" lengthAdjust="spacingAndGlyphs" style="font-size:5.69px;font-family:&quot;Arial&quot;" text-anchor="middle" textLength="32.84">HOLDINGS I</text><path d="M59.63 151.74h60.71-.09l.35-.01.34-.07.32-.13.31-.17.27-.22.23-.26.18-.3.14-.31.08-.34.03-.35v-15.16l-.03-.34-.08-.34-.14-.32-.18-.29-.23-.26-.27-.22-.31-.18-.32-.12-.34-.07-.26-.02H59.63l.26.02-.35-.01-.34.04-.34.09-.31.15-.29.2-.25.24-.21.28-.16.31-.11.33-.05.34-.01.17v15.16l.01-.17v.34l.05.35.11.33.16.31.21.27.25.24.29.2.31.15.34.1.34.04z" style="stroke-width:.53;fill:#fff;fill-opacity:.5"/><text x="89.98" y="139.95" lengthAdjust="spacingAndGlyphs" style="font-size:5.69px;font-family:&quot;Arial&quot;" text-anchor="middle" textLength="57.83">ALOHA AINA ESTATE</text><text x="89.98" y="148.14" lengthAdjust="spacingAndGlyphs" style="font-size:5.69px;font-family:&quot;Arial&quot;" text-anchor="middle" textLength="34.42">HOLDINGS L</text><path d="M38.39 244.84H99.1h-.09l.35-.01.34-.07.32-.13.31-.17.26-.22.23-.26.19-.29.14-.32.08-.34.03-.35v-15.16l-.03-.34-.08-.34-.14-.32-.19-.29-.23-.26-.26-.22-.31-.18-.32-.12-.34-.07-.26-.02H38.39l.26.02-.35-.01-.34.04-.34.09-.31.15-.29.2-.25.24-.21.28-.16.31-.11.33-.06.34v15.33-.17.35l.06.34.11.33.16.31.21.27.25.24.29.2.31.15.34.1.34.04z" style="stroke-width:.53;fill:#fff;fill-opacity:.5"/><text x="68.74" y="233.05" lengthAdjust="spacingAndGlyphs" style="font-size:5.69px;font-family:&quot;Arial&quot;" text-anchor="middle" textLength="57.83">ALOHA AINA ESTATE</text><text x="68.74" y="241.24" lengthAdjust="spacingAndGlyphs" style="font-size:5.69px;font-family:&quot;Arial&quot;" text-anchor="middle" textLength="37.89">HOLDING LLC</text><path d="M75.87 220.37h54.06-.09l.35-.01.34-.07.33-.13.3-.17.27-.22.23-.26.18-.29.14-.32.08-.34.03-.35v-15.16l-.03-.34-.08-.34-.14-.32-.18-.29-.23-.26-.27-.22-.3-.18-.33-.12-.34-.07-.26-.02H75.87l.26.02-.35-.01-.35.04-.33.1-.31.14-.29.2-.25.24-.21.28-.16.31-.11.33-.06.34v15.33-.17.35l.06.34.11.33.16.31.21.27.25.24.29.2.31.15.33.1.35.04z" style="stroke-width:.53;fill:#fff;fill-opacity:.5"/><text x="102.9" y="208.58" lengthAdjust="spacingAndGlyphs" style="font-size:5.69px;font-family:&quot;Arial&quot;" text-anchor="middle" textLength="51.18">98-1043 OLIWA ST,</text><text x="102.9" y="216.77" lengthAdjust="spacingAndGlyphs" style="font-size:5.69px;font-family:&quot;Arial&quot;" text-anchor="middle" textLength="39.18">AIEA, HI 96701</text></g><g clip-path="url(#cpMC4wMHwyODguMDB8MC4wMHwyODguMDA=)"><circle cx="87.34" cy="96.71" r="1.95" style="stroke-width:.71;stroke:none;fill:#f8766d"/><path d="m163.7 93.67 2.63 4.56h-5.26z" style="stroke-width:.71;stroke:none;fill:#00bfc4"/><text x="101.46" y="99.86" lengthAdjust="spacingAndGlyphs" style="font-size:8.8px;font-family:&quot;Arial Narrow&quot;" textLength="48.12">mprop address</text><text x="177.82" y="99.86" lengthAdjust="spacingAndGlyphs" style="font-size:8.8px;font-family:&quot;Arial Narrow&quot;" textLength="39.69">owner name</text><text x="32.63" y="65.12" lengthAdjust="spacingAndGlyphs" style="font-size:12px;font-family:&quot;Arial Narrow&quot;" textLength="241.29">includes 4 parcels, 4 units, and 3 distinct owner names.</text><text x="32.63" y="42.78" lengthAdjust="spacingAndGlyphs" style="font-size:18px;font-weight:700;font-family:&quot;Arial Narrow&quot;" textLength="304.52">ALOHA AINA ESTATE HOLDING LLC Group</text></g></svg>