<svg xmlns="http://www.w3.org/2000/svg" width="384" height="480" class="svglite" viewBox="0 0 288 360"><defs><style><![CDATA[.svglite line,.svglite polyline,.svglite polygon,.svglite path,.svglite circle{fill:none;stroke:#000000;stroke-linecap:round;stroke-linejoin:round;stroke-miterlimit:10.00}.svglite text{white-space:pre}]]></style></defs><rect width="100%" height="100%" style="stroke-linecap:round;stroke-linejoin:round;stroke-miterlimit:10.00;stroke:none;fill:#FFFFFF"/><defs><clipPath id="cpMC4wMHwyODguMDB8MC4wMHwzNjAuMDA="><path d="M0 0h288v360H0z"/></clipPath></defs><g clip-path="url(#cpMC4wMHwyODguMDB8MC4wMHwzNjAuMDA=)"><path d="M0 0h288v360H0z" style="stroke-width:1.07;stroke:none;fill:#FFFFFF"/></g><defs><clipPath id="cpMzIuNjN8MjU4LjExfDE0MC4zMHwzMjcuMzc="><path d="M32.63 140.3h225.48v187.07H32.63z"/></clipPath></defs><g clip-path="url(#cpMzIuNjN8MjU4LjExfDE0MC4zMHwzMjcuMzc=)"><path d="m247.86 148.81-.69.56-.69.56-.69.56-.69.56-.69.56-.69.56-.69.56-.69.56-.69.56-.69.56-.69.56-.69.56-.69.57-.69.56-.69.56-.69.56-.69.56-.69.56-.69.56-.69.56-.69.56-.69.56-.69.56-.69.56-.69.56-.69.57-.69.56-.69.56-.69.56-.69.56-.69.56-.69.56-.69.56-.69.56-.69.56-.69.56-.69.56-.69.56-.69.57-.69.56-.69.56-.7.56-.69.56-.69.56-.69.56-.69.56-.69.56-.69.56-.69.56-.69.56-.69.56-.69.57-.69.56-.69.56-.69.56-.69.56-.69.56-.69.56-.69.56-.69.56-.69.56-.69.56-.69.56-.69.56-.69.56-.69.57-.69.56-.69.56-.69.56-.69.56-.69.56-.69.56-.69.56-.69.56-.69.56-.69.56-.69.56-.69.56-.69.57-.69.56-.69.56-.69.56-.69.56-.69.56-.69.56-.69.56-.69.56-.69.56-.69.56-.69.56-.69.56-.69.57-.69.56-.69.56-.7.56-.69.56-.69.56-.69.56-.69.56m-68.32 55.52.73.35.74.33.73.32.74.3.73.27.73.26.73.25.73.22.73.2.73.19.72.16.73.15.72.13.73.11.72.09.72.08.72.05.73.04.71.01h.72l.72-.02.72-.03.71-.06.72-.08.71-.09.71-.12.72-.13.71-.15.71-.17.71-.18.7-.21.71-.23.71-.24.7-.26.71-.28.7-.3.7-.32.7-.34.7-.35.7-.38.7-.39.7-.41.7-.43.69-.45.7-.47.69-.49.69-.5.7-.52.69-.55.69-.56.69-.58.69-.59.68-.62.69-.64.68-.65.69-.67.68-.69.69-.71.68-.73.68-.75.68-.77.68-.78.67-.8.68-.83.68-.84.67-.86.68-.87.67-.9.67-.91.67-.94.67-.95.67-.97.67-.99.67-1.01.67-1.03.66-1.04.67-1.07.66-1.08.66-1.1.67-1.12.66-1.14.66-1.16.66-1.17.65-1.2.66-1.21.66-1.23.65-1.26.66-1.26.65-1.29.65-1.31.66-1.32.65-1.35.65-1.36.64-1.38.65-1.4.65-1.42.65-1.44.64-1.45.64-1.48m-68.32 55.52-.74-.36-.74-.33-.73-.32-.73-.29-.74-.28-.73-.26-.73-.24-.73-.23-.73-.2-.73-.19-.72-.16-.73-.15-.72-.13-.73-.11-.72-.09-.72-.08-.72-.05-.72-.04-.72-.01h-.72l-.72.02-.72.04-.71.05-.72.08-.71.09-.71.12-.71.13-.72.15-.71.17-.7.19-.71.2-.71.23-.71.24-.7.26-.71.29-.7.29-.7.32-.7.34-.7.36-.7.37-.7.39-.7.41-.7.43-.69.45-.7.47-.69.49-.69.5-.7.53-.69.54-.69.56-.69.58-.68.6-.69.61-.69.64-.68.65-.69.67-.68.7-.68.71-.69.72-.68.75-.68.77-.68.78-.67.8-.68.83-.68.84-.67.86-.68.87-.67.9-.67.92-.67.93-.67.95-.67.97-.67.99-.67 1.01-.67 1.03-.66 1.04-.67 1.07-.66 1.08-.66 1.1-.66 1.12-.67 1.14-.66 1.16-.65 1.18-.66 1.19-.66 1.21-.66 1.24-.65 1.25-.66 1.27-.65 1.28-.65 1.31-.65 1.33-.65 1.34-.65 1.36-.65 1.38-.65 1.4-.65 1.42-.64 1.44-.65 1.46-.64 1.47" style="stroke-width:1.07;stroke:#000000;stroke-opacity:0.10;stroke-linecap:butt"/><path d="m111.21 259.84.69-.56.69-.57.69-.56.69-.56.69-.56.69-.56.69-.56.69-.56.69-.56.69-.56.69-.56.69-.56.69-.56.69-.56.69-.57.69-.56.69-.56.69-.56.69-.56.69-.56.69-.56.69-.56.69-.56.69-.56.69-.56.69-.56.69-.56.69-.57.69-.56.69-.56.69-.56.69-.56.69-.56.69-.56.69-.56.69-.56.69-.56.69-.56.69-.56.69-.56.69-.57.69-.56.69-.56.69-.56.69-.56.69-.56.69-.56.69-.56.69-.56.69-.56.7-.56.69-.56.69-.56.69-.57.69-.56.69-.56.69-.56.69-.56.69-.56.69-.56.69-.56.69-.56.69-.56.69-.56.69-.56.69-.56.69-.56.69-.57.69-.56.69-.56.69-.56.69-.56.69-.56.69-.56.69-.56.69-.56.69-.56.69-.56.69-.56.69-.56.69-.57.69-.56.69-.56.69-.56.69-.56.69-.56.69-.56.69-.56.69-.56.69-.56.69-.56.69-.56.69-.56.69-.57.69-.56.69-.56.69-.56.69-.56.69-.56m-68.32 55.52-.69.56-.69.56-.69.56-.7.56-.69.56-.69.56-.69.56-.69.56-.69.56-.69.56-.69.56-.69.57-.69.56-.69.56-.69.56-.69.56-.69.56-.69.56-.69.56-.69.56-.69.56-.69.56-.69.56-.69.56-.69.56-.69.57-.69.56-.69.56-.69.56-.69.56-.69.56-.69.56-.69.56-.69.56-.69.56-.69.56-.69.56-.69.56-.69.57-.69.56-.69.56-.69.56-.69.56-.69.56-.69.56-.69.56-.69.56-.69.56-.69.56-.69.56-.69.56-.69.56-.69.57-.69.56-.69.56-.69.56-.7.56-.69.56-.69.56-.69.56-.69.56-.69.56-.69.56-.69.56-.69.56-.69.57-.69.56-.69.56-.69.56-.69.56-.69.56-.69.56-.69.56-.69.56-.69.56-.69.56-.69.56-.69.56-.69.57-.69.56-.69.56-.69.56-.69.56-.69.56-.69.56-.69.56-.69.56-.69.56-.69.56-.69.56-.69.56-.69.56-.69.57-.69.56-.69.56-.69.56-.69.56-.69.56-.69.56" style="stroke-width:1.07;stroke:#000000;stroke-opacity:0.10;stroke-linecap:butt"/><path d="m111.21 259.84.64-1.48.64-1.45.65-1.44.65-1.42.65-1.4.64-1.38.65-1.36.65-1.35.66-1.32.65-1.31.65-1.29.66-1.27.65-1.25.66-1.23.66-1.21.65-1.2.66-1.18.66-1.15.66-1.14.67-1.12.66-1.1.66-1.09.67-1.06.66-1.05.67-1.02.67-1.01.67-.99.67-.97.67-.95.67-.94.67-.91.67-.9.68-.88.67-.86.68-.84.68-.82.67-.8.68-.79.68-.76.68-.75.68-.73.69-.71.68-.69.69-.67.68-.66.69-.63.68-.62.69-.6.69-.58.69-.56.69-.54.7-.52.69-.51.69-.48.7-.47.69-.45.7-.43.7-.41.7-.39.7-.38.7-.35.7-.34.7-.32.7-.3.71-.28.7-.26.71-.25.71-.22.7-.21.71-.19.71-.17.71-.15.72-.13.71-.11.71-.1.72-.07.71-.06.72-.04.72-.02h.72l.71.02.73.04.72.05.72.07.72.1.73.11.72.12.73.15.72.17.73.18.73.21.73.22.73.24.73.26.73.28.74.3.73.31.74.34.73.35m-68.32 55.52-.65 1.47-.64 1.46-.65 1.43-.65 1.42-.64 1.4-.65 1.38-.65 1.37-.65 1.34-.65 1.33-.66 1.3-.65 1.29-.66 1.27-.65 1.25-.66 1.23-.65 1.22-.66 1.19-.66 1.18-.66 1.15-.66 1.14-.66 1.12-.67 1.11-.66 1.08-.67 1.06-.66 1.05-.67 1.03-.67 1-.66.99-.67.97-.67.96-.68.93-.67.92-.67.89-.68.88-.67.86-.68.84-.67.82-.68.8-.68.79-.68.76-.68.75-.68.73-.69.71-.68.69-.68.67-.69.66-.69.63-.68.62-.69.6-.69.58-.69.56-.69.54-.69.52-.7.51-.69.49-.7.46-.69.45-.7.43-.7.41-.7.4-.69.37-.71.36-.7.33-.7.32-.7.3-.71.28-.7.26-.71.25-.71.22-.7.21-.71.19-.71.17-.71.15-.72.13-.71.11-.71.1-.72.07-.71.06-.72.04-.72.02h-.71l-.72-.02-.72-.03-.73-.06-.72-.07-.72-.09-.72-.11-.73-.13-.73-.15-.72-.17-.73-.18-.73-.21-.73-.22-.73-.24-.73-.26-.73-.28-.74-.3-.73-.31-.74-.34-.73-.35" style="stroke-width:1.07;stroke:#000000;stroke-opacity:0.10;stroke-linecap:butt"/><path d="m247.86 146.6 1.92 3.31h-3.83zM111.21 250.85l7.78 13.48h-15.57z" style="stroke-width:0.71;stroke:none;fill:#00BA38"/><circle cx="179.53" cy="204.32" r="6.76" style="stroke-width:0.71;stroke:none;fill:#F8766D"/><path d="M37.1 321.13h11.55v-11.56H37.1z" style="stroke-width:0.71;stroke:none;fill:#619CFF"/><path d="m243.11 151.72 3.73-2.29M116.28 255.22l-4.22 3.84m62.18-50.12 4.42-3.86M44.4 307.1l-1.33 7.21" style="stroke-width:0.53;stroke:#BFBFBF"/><path d="M181.47 158.82h59.48-.08l.34-.02.34-.07.33-.12.3-.17.27-.22.23-.26.19-.3.13-.32.08-.33.03-.35h0v-7.03h0l-.03-.34-.08-.34-.13-.32-.19-.29-.23-.27-.27-.21-.3-.18-.33-.12-.34-.07-.26-.02h-59.48l.26.02-.35-.02-.35.05-.33.09-.31.15-.29.2-.25.24-.21.28-.16.31-.11.33-.06.34v7.2-.17.34l.06.35.11.33.16.3.21.28.25.24.29.2.31.15.33.1.35.04z" style="stroke-width:0.53;fill:#FFFFFF;fill-opacity:0.50"/><text x="211.21" y="155.22" lengthAdjust="spacingAndGlyphs" style="font-size:5.69px;font-family:&quot;Liberation Sans&quot;" text-anchor="middle" textLength="56.61">ANTALA GROUP LLC</text><path d="M93.45 255.22h60.34-.08l.34-.02.35-.07.32-.12.3-.17.27-.22.23-.26.19-.3.13-.32.09-.33.02-.35h0v-7.03h0l-.02-.34-.09-.34-.13-.32-.19-.3-.23-.26-.27-.22-.3-.17-.32-.12-.35-.07-.26-.02H93.45l.26.02-.35-.02-.34.05-.34.09-.31.15-.29.2-.25.24-.2.28-.17.3-.11.33-.05.35-.01.17v7.03l.01-.18v.35l.05.35.11.33.17.3.2.28.25.24.29.2.31.15.34.1.34.04z" style="stroke-width:0.53;fill:#FFFFFF;fill-opacity:0.50"/><text x="123.62" y="251.62" lengthAdjust="spacingAndGlyphs" style="font-size:5.69px;font-family:&quot;Liberation Sans&quot;" text-anchor="middle" textLength="57.46">ANZALA GROUP LLC</text><path d="M128.59 228.48h67.22-.09l.35-.02.34-.07.32-.12.3-.17.27-.22.23-.26.19-.3.14-.32.08-.34.03-.34h0V211.1h0l-.03-.35-.08-.34-.14-.32-.19-.29-.23-.26-.27-.22-.3-.17-.32-.13-.34-.07-.26-.01h-67.22l.26.01-.35-.01-.34.04-.34.1-.31.15-.29.19-.25.24-.21.28-.16.31-.11.33-.06.34v15.4-.18.35l.06.35.11.32.16.31.21.28.25.24.29.2.31.15.34.09.34.05z" style="stroke-width:0.53;fill:#FFFFFF;fill-opacity:0.50"/><text x="162.2" y="216.68" lengthAdjust="spacingAndGlyphs" style="font-size:5.69px;font-family:&quot;Liberation Sans&quot;" text-anchor="middle" textLength="57.73">2618 E CAPITOL DR,</text><text x="162.2" y="224.88" lengthAdjust="spacingAndGlyphs" style="font-size:5.69px;font-family:&quot;Liberation Sans&quot;" text-anchor="middle" textLength="64.34">MILWAUKEE, WI 53211</text><path d="M46.56 310.7h64.31-.09l.35-.01.34-.07.33-.13.3-.17.27-.22.23-.26.18-.29.14-.32.08-.34.03-.35h0v-23.41h0l-.03-.35-.08-.34-.14-.32-.18-.29-.23-.26-.27-.22-.3-.17-.33-.13-.34-.07-.26-.01H46.56l.26.01-.35-.01-.34.04-.34.1-.31.15-.29.19-.25.24-.21.28-.16.31-.11.33-.05.34-.01.18v23.41l.01-.17v.35l.05.34.11.33.16.31.21.28.25.24.29.19.31.15.34.1.34.04z" style="stroke-width:0.53;fill:#FFFFFF;fill-opacity:0.50"/><text x="78.72" y="290.71" lengthAdjust="spacingAndGlyphs" style="font-size:5.69px;font-family:&quot;Liberation Sans&quot;" text-anchor="middle" textLength="61.43">1027 BRADY ST, UNIT</text><text x="78.72" y="298.91" lengthAdjust="spacingAndGlyphs" style="font-size:5.69px;font-family:&quot;Liberation Sans&quot;" text-anchor="middle" textLength="51.93">A, MILWAUKEE, WI</text><text x="78.72" y="307.1" lengthAdjust="spacingAndGlyphs" style="font-size:5.69px;font-family:&quot;Liberation Sans&quot;" text-anchor="middle" textLength="18.11">53202</text></g><g clip-path="url(#cpMC4wMHwyODguMDB8MC4wMHwzNjAuMDA=)"><circle cx="50.24" cy="115.22" r="1.95" style="stroke-width:0.71;stroke:none;fill:#F8766D"/><path d="m126.59 112.18 2.63 4.56h-5.26z" style="stroke-width:0.71;stroke:none;fill:#00BA38"/><path d="M192.57 117.18h3.91v-3.91h-3.91z" style="stroke-width:0.71;stroke:none;fill:#619CFF"/><text x="64.36" y="118.25" lengthAdjust="spacingAndGlyphs" style="font-size:8.80px;font-family:&quot;Liberation Sans Narrow&quot;" textLength="48.12">mprop address</text><text x="140.71" y="118.25" lengthAdjust="spacingAndGlyphs" style="font-size:8.80px;font-family:&quot;Liberation Sans Narrow&quot;" textLength="39.69">owner name</text><text x="208.64" y="118.25" lengthAdjust="spacingAndGlyphs" style="font-size:8.80px;font-family:&quot;Liberation Sans Narrow&quot;" textLength="40.5">wdfi address</text><text x="32.63" y="83.67" lengthAdjust="spacingAndGlyphs" style="font-size:12.00px;font-family:&quot;Liberation Sans Narrow&quot;" textLength="241.29">includes 4 parcels, 7 units, and 2 distinct owner names.</text><text x="32.63" y="42.27" lengthAdjust="spacingAndGlyphs" style="font-size:18.00px;font-weight:bold;font-family:&quot;Liberation Sans Narrow&quot;" textLength="227.95">ANZALA GROUP LLC -- ANTALA</text><text x="32.63" y="61.71" lengthAdjust="spacingAndGlyphs" style="font-size:18.00px;font-weight:bold;font-family:&quot;Liberation Sans Narrow&quot;" textLength="135.03">GROUP LLC Group</text></g></svg>