<svg xmlns="http://www.w3.org/2000/svg" width="768" height="768" class="svglite" viewBox="0 0 576 576"><defs><style>.svglite circle,.svglite line,.svglite polygon,.svglite polyline,.svglite rect{fill:none;stroke:#000;stroke-linecap:round;stroke-linejoin:round;stroke-miterlimit:10}.svglite text{white-space:pre}</style></defs><rect width="100%" height="100%" style="stroke:none;fill:#fff"/><defs><clipPath id="cpMC4wMHw1NzYuMDB8MC4wMHw1NzYuMDA="><path d="M0 0h576v576H0z"/></clipPath></defs><g clip-path="url(#cpMC4wMHw1NzYuMDB8MC4wMHw1NzYuMDA=)"><path d="M0 0h576v576H0z" style="stroke-width:1.07;stroke:none;fill:#fff"/></g><defs><clipPath id="cpMzIuNjN8NTQ2LjExfDEyMC44Nnw1NDMuMzc="><path d="M32.63 120.86h513.48v422.51H32.63z"/></clipPath></defs><g clip-path="url(#cpMzIuNjN8NTQ2LjExfDEyMC44Nnw1NDMuMzc=)"><path d="m229 140.07-.31 1.93-.3 1.93-.3 1.93-.31 1.93-.3 1.93-.3 1.93-.31 1.93-.3 1.93-.3 1.93-.31 1.93-.3 1.93-.3 1.93-.31 1.93-.3 1.93-.3 1.93-.31 1.93-.3 1.93-.3 1.93-.31 1.93-.3 1.93-.3 1.93-.3 1.93-.31 1.93-.3 1.93-.3 1.93-.31 1.93-.3 1.93-.3 1.93-.31 1.93-.3 1.93-.3 1.93-.31 1.93-.3 1.93-.3 1.93-.31 1.93-.3 1.93-.3 1.93-.31 1.93-.3 1.93-.3 1.93-.31 1.93-.3 1.93-.3 1.93-.31 1.93-.3 1.93-.3 1.93-.31 1.93-.3 1.93-.3 1.93-.3 1.93-.31 1.93-.3 1.93-.3 1.93-.31 1.93-.3 1.93-.3 1.93-.31 1.93-.3 1.93-.3 1.93-.31 1.93-.3 1.93-.3 1.93-.31 1.93-.3 1.93-.3 1.93-.31 1.93-.3 1.93-.3 1.93-.31 1.93-.3 1.93-.3 1.93-.31 1.93-.3 1.93-.3 1.93-.31 1.93-.3 1.93-.3 1.93-.3 1.93-.31 1.93-.3 1.93-.3 1.93-.31 1.93-.3 1.93-.3 1.93-.31 1.93-.3 1.93-.3 1.93-.31 1.93-.3 1.93-.3 1.93-.31 1.93-.3 1.93-.3 1.93-.31 1.93-.3 1.93-.3 1.93-.31 1.93-.3 1.93-.3 1.93" style="stroke-width:1.07;stroke:#000;stroke-opacity:.1;stroke-linecap:butt"/><path d="m62.58 218.36 1.37 1.14 1.38 1.14 1.38 1.14 1.38 1.14 1.37 1.14 1.38 1.14 1.38 1.14 1.38 1.14 1.38 1.13 1.37 1.14 1.38 1.14 1.38 1.14 1.38 1.14 1.38 1.14 1.37 1.14 1.38 1.14 1.38 1.14 1.38 1.14 1.37 1.14 1.38 1.14 1.38 1.13 1.38 1.14 1.38 1.14 1.37 1.14 1.38 1.14 1.38 1.14 1.38 1.14 1.37 1.14 1.38 1.14 1.38 1.14 1.38 1.14 1.38 1.13 1.37 1.14 1.38 1.14 1.38 1.14 1.38 1.14 1.37 1.14 1.38 1.14 1.38 1.14 1.38 1.14 1.38 1.14 1.37 1.14 1.38 1.14 1.38 1.13 1.38 1.14 1.37 1.14 1.38 1.14 1.38 1.14 1.38 1.14 1.38 1.14 1.37 1.14 1.38 1.14 1.38 1.14 1.38 1.14 1.37 1.13 1.38 1.14 1.38 1.14 1.38 1.14 1.38 1.14 1.37 1.14 1.38 1.14 1.38 1.14 1.38 1.14 1.37 1.14 1.38 1.14 1.38 1.14 1.38 1.13 1.38 1.14 1.37 1.14 1.38 1.14 1.38 1.14 1.38 1.14 1.37 1.14 1.38 1.14 1.38 1.14 1.38 1.14 1.38 1.14 1.37 1.13 1.38 1.14 1.38 1.14 1.38 1.14 1.38 1.14 1.37 1.14 1.38 1.14 1.38 1.14 1.38 1.14 1.37 1.14 1.38 1.14 1.38 1.14 1.38 1.13 1.38 1.14 1.37 1.14 1.38 1.14 1.38 1.14 1.38 1.14 1.37 1.14 1.38 1.14 1.38 1.14 1.38 1.14M367.3 337.99l-1.7-.07-1.7-.07-1.7-.07-1.7-.07-1.7-.07-1.7-.07-1.7-.06-1.7-.07-1.7-.07-1.7-.07-1.7-.07-1.7-.07-1.7-.07-1.7-.07-1.7-.07-1.7-.07-1.7-.07-1.7-.07-1.7-.07-1.7-.06-1.7-.07-1.7-.07-1.7-.07-1.7-.07-1.7-.07-1.7-.07-1.7-.07-1.7-.07-1.7-.07-1.7-.07-1.7-.07-1.7-.07-1.7-.06-1.7-.07-1.7-.07-1.71-.07-1.7-.07-1.7-.07-1.7-.07-1.7-.07-1.7-.07-1.7-.07-1.7-.07-1.7-.07-1.7-.07-1.7-.06-1.7-.07-1.7-.07-1.7-.07-1.7-.07-1.7-.07-1.7-.07-1.7-.07-1.7-.07-1.7-.07-1.7-.07-1.7-.07-1.7-.07-1.7-.06-1.7-.07-1.7-.07-1.7-.07-1.7-.07-1.7-.07-1.7-.07-1.7-.07-1.7-.07-1.7-.07-1.7-.07-1.7-.07-1.7-.07-1.71-.06-1.7-.07-1.7-.07-1.7-.07-1.7-.07-1.7-.07-1.7-.07-1.7-.07-1.7-.07-1.7-.07-1.7-.07-1.7-.07-1.7-.06-1.7-.07-1.7-.07-1.7-.07-1.7-.07-1.7-.07-1.7-.07-1.7-.07-1.7-.07-1.7-.07-1.7-.07-1.7-.07-1.7-.07-1.7-.06-1.7-.07-1.7-.07M367.3 337.99l1.58.06 1.57.07 1.57.06 1.57.07 1.57.06 1.57.06 1.57.07 1.57.06 1.57.07 1.57.06 1.57.06 1.57.07 1.57.06 1.57.07 1.57.06 1.57.06 1.57.07 1.57.06 1.57.07 1.57.06 1.57.06 1.57.07 1.57.06 1.57.06 1.57.07 1.57.06 1.57.07 1.58.06 1.57.06 1.57.07 1.57.06 1.57.07 1.57.06 1.57.06 1.57.07 1.57.06 1.57.07 1.57.06 1.57.06 1.57.07 1.57.06 1.57.07 1.57.06 1.57.06 1.57.07 1.57.06 1.57.07 1.57.06 1.57.06 1.57.07 1.57.06 1.57.07 1.57.06 1.57.06 1.58.07 1.57.06 1.57.06 1.57.07 1.57.06 1.57.07 1.57.06 1.57.06 1.57.07 1.57.06 1.57.07 1.57.06 1.57.06 1.57.07 1.57.06 1.57.07 1.57.06 1.57.06 1.57.07 1.57.06 1.57.07 1.57.06 1.57.06 1.57.07 1.57.06 1.57.07 1.58.06 1.57.06 1.57.07 1.57.06 1.57.07 1.57.06 1.57.06 1.57.07 1.57.06 1.57.07 1.57.06 1.57.06 1.57.07 1.57.06 1.57.06 1.57.07 1.57.06 1.57.07 1.57.06M55.97 432.53l1.44-1.02 1.45-1.02 1.44-1.03 1.45-1.02 1.44-1.03 1.45-1.02 1.44-1.03 1.44-1.02 1.45-1.02 1.44-1.03 1.45-1.02 1.44-1.03 1.45-1.02 1.44-1.03 1.45-1.02 1.44-1.02 1.45-1.03 1.44-1.02 1.44-1.03 1.45-1.02 1.44-1.02 1.45-1.03 1.44-1.02 1.45-1.03 1.44-1.02 1.45-1.03 1.44-1.02 1.45-1.02 1.44-1.03 1.44-1.02 1.45-1.03 1.44-1.02 1.45-1.03 1.44-1.02 1.45-1.02 1.44-1.03 1.45-1.02 1.44-1.03 1.45-1.02 1.44-1.02 1.44-1.03 1.45-1.02 1.44-1.03 1.45-1.02 1.44-1.03 1.45-1.02 1.44-1.02 1.45-1.03 1.44-1.02 1.44-1.03 1.45-1.02 1.44-1.03 1.45-1.02 1.44-1.02 1.45-1.03 1.44-1.02 1.45-1.03 1.44-1.02 1.45-1.02 1.44-1.03 1.44-1.02 1.45-1.03 1.44-1.02 1.45-1.03 1.44-1.02 1.45-1.02 1.44-1.03 1.45-1.02 1.44-1.03 1.45-1.02 1.44-1.03 1.44-1.02 1.45-1.02 1.44-1.03 1.45-1.02 1.44-1.03 1.45-1.02 1.44-1.02 1.45-1.03 1.44-1.02 1.45-1.03 1.44-1.02 1.44-1.03 1.45-1.02 1.44-1.02 1.45-1.03 1.44-1.02 1.45-1.03 1.44-1.02 1.45-1.03 1.44-1.02 1.45-1.02 1.44-1.03 1.44-1.02 1.45-1.03 1.44-1.02 1.45-1.03 1.44-1.02 1.45-1.02M217.14 524.17l-.18-1.95-.18-1.95-.19-1.95-.18-1.95-.18-1.95-.19-1.95-.18-1.95-.18-1.95-.19-1.95-.18-1.95-.18-1.95-.19-1.95-.18-1.95-.18-1.95-.19-1.95-.18-1.95-.18-1.95-.19-1.95-.18-1.95-.19-1.95-.18-1.95-.18-1.95-.19-1.95-.18-1.95-.18-1.95-.19-1.95-.18-1.95-.18-1.95-.19-1.95-.18-1.95-.18-1.95-.19-1.95-.18-1.95-.18-1.95-.19-1.95-.18-1.95-.18-1.95-.19-1.95-.18-1.95-.19-1.94-.18-1.95-.18-1.95-.19-1.95-.18-1.95-.18-1.95-.19-1.95-.18-1.95-.18-1.95-.19-1.95-.18-1.95-.18-1.95-.19-1.95-.18-1.95-.18-1.95-.19-1.95-.18-1.95-.19-1.95-.18-1.95-.18-1.95-.19-1.95-.18-1.95-.18-1.95-.19-1.95-.18-1.95-.18-1.95-.19-1.95-.18-1.95-.18-1.95-.19-1.95-.18-1.95-.18-1.95-.19-1.95-.18-1.95-.18-1.95-.19-1.95-.18-1.95-.19-1.95-.18-1.95-.18-1.95-.19-1.95-.18-1.95-.18-1.95-.19-1.95-.18-1.95-.18-1.95-.19-1.95-.18-1.95-.18-1.95-.19-1.95-.18-1.95-.18-1.94-.19-1.95-.18-1.95-.18-1.95-.19-1.95-.18-1.95-.19-1.95-.18-1.95-.18-1.95" style="stroke-width:1.07;stroke:#000;stroke-opacity:.1;stroke-linecap:butt"/><path d="m229 137.86 1.91 3.31h-3.83zM62.58 216.15l1.91 3.32h-3.83zM367.3 335.78l1.92 3.32h-3.83zM55.97 430.32l1.91 3.32h-3.83zM217.14 521.96l1.92 3.31h-3.83z" style="stroke-width:.71;stroke:none;fill:#00ba38"/><circle cx="198.98" cy="331.14" r="6.76" style="stroke-width:.71;stroke:none;fill:#f8766d"/><path d="M521.35 345.74h2.84v-2.84h-2.84z" style="stroke-width:.71;stroke:none;fill:#619cff"/><path d="m223.65 144.69 4.47-3.86M67.98 213.69l-4.53 3.91M361.95 342.62l4.48-3.87M60.83 434.59l-3.73-1.58M222.51 519.53l-4.49 3.88M204.38 326.55l-4.52 3.83" style="stroke-width:.53;stroke:#bfbfbf"/><path d="M179.64 164.23h63.71-.09l.35-.02.34-.07.33-.12.3-.17.27-.22.23-.26.18-.3.14-.32.08-.34.03-.34v-15.22l-.03-.35-.08-.34-.14-.32-.18-.29-.23-.26-.27-.22-.3-.18-.33-.12-.34-.07-.26-.01h-63.71l.26.01-.34-.01-.35.04-.33.1-.32.15-.28.19-.25.24-.21.28-.16.31-.11.33-.06.34-.01.18v15.22l.01-.18v.35l.06.34.11.33.16.31.21.28.25.24.28.2.32.15.33.09.35.05z" style="stroke-width:.53;fill:#fff;fill-opacity:.5"/><text x="211.5" y="152.43" lengthAdjust="spacingAndGlyphs" style="font-size:5.69px;font-family:&quot;Liberation Sans&quot;" text-anchor="middle" textLength="60.83">MILL RD &amp; APPLETON</text><text x="211.5" y="160.63" lengthAdjust="spacingAndGlyphs" style="font-size:5.69px;font-family:&quot;Liberation Sans&quot;" text-anchor="middle" textLength="10.31">LLC</text><path d="M52.91 213.69h54.44l-.08-.01.34-.01.34-.07.33-.12.3-.18.27-.22.23-.26.19-.29.13-.32.09-.34.02-.34V196.3l-.02-.34-.09-.34-.13-.32-.19-.29-.23-.26-.27-.22-.3-.18-.33-.12-.34-.07-.26-.02H52.91l.26.02-.35-.01-.35.04-.33.09-.31.15-.29.2-.25.24-.21.28-.16.31-.11.33-.06.34v15.4-.18.35l.06.34.11.33.16.31.21.28.25.24.29.2.31.15.33.09.35.04z" style="stroke-width:.53;fill:#fff;fill-opacity:.5"/><text x="80.13" y="201.89" lengthAdjust="spacingAndGlyphs" style="font-size:5.69px;font-family:&quot;Liberation Sans&quot;" text-anchor="middle" textLength="51.57">APPLETON HGHTS</text><text x="80.13" y="210.09" lengthAdjust="spacingAndGlyphs" style="font-size:5.69px;font-family:&quot;Liberation Sans&quot;" text-anchor="middle" textLength="38.7">TOWNHOMES</text><path d="M319.63 362.16h60.35-.09l.35-.01.34-.07.33-.13.3-.17.27-.22.23-.26.18-.3.14-.32.08-.33.03-.35v-15.22l-.03-.35-.08-.33-.14-.32-.18-.3-.23-.26-.27-.22-.3-.17-.33-.13-.34-.07-.26-.01h-60.35l.26.01-.35-.01-.34.04-.34.1-.31.15-.29.2-.25.24-.21.27-.16.31-.11.33-.05.35-.01.17V360l.01-.17v.34l.05.35.11.33.16.31.21.27.25.24.29.2.31.15.34.1.34.04z" style="stroke-width:.53;fill:#fff;fill-opacity:.5"/><text x="349.8" y="350.37" lengthAdjust="spacingAndGlyphs" style="font-size:5.69px;font-family:&quot;Liberation Sans&quot;" text-anchor="middle" textLength="57.47">GLENDALE HEIGHTS</text><text x="349.8" y="358.56" lengthAdjust="spacingAndGlyphs" style="font-size:5.69px;font-family:&quot;Liberation Sans&quot;" text-anchor="middle" textLength="50.82">TOWNHOMES LLC</text><path d="M62.99 440.6h53.8-.08l.34-.01.34-.07.33-.13.3-.17.27-.22.23-.26.19-.29.13-.32.09-.34.02-.35v-7.02l-.02-.35-.09-.34-.13-.32-.19-.29-.23-.26-.27-.22-.3-.18-.33-.12-.34-.07-.26-.01h-53.8l.26.01-.35-.01-.34.04-.34.1-.31.15-.29.19-.25.24-.21.28-.16.31-.11.33-.05.34-.01.18v7.02l.01-.17v.35l.05.34.11.33.16.31.21.28.25.24.29.19.31.15.34.1.34.04z" style="stroke-width:.53;fill:#fff;fill-opacity:.5"/><text x="89.89" y="437" lengthAdjust="spacingAndGlyphs" style="font-size:5.69px;font-family:&quot;Liberation Sans&quot;" text-anchor="middle" textLength="50.93">KALAN HAYWOOD</text><path d="M203.74 519.53h61.83-.09l.35-.02.34-.07.33-.12.3-.17.27-.22.23-.26.18-.3.14-.32.08-.33.03-.35v-15.22l-.03-.35-.08-.34-.14-.32-.18-.29-.23-.26-.27-.22-.3-.17-.33-.13-.34-.07-.26-.01h-61.83l.26.01-.35-.01-.35.04-.33.1-.31.15-.29.19-.25.24-.21.28-.16.31-.11.33-.06.34v15.4-.18.35l.06.35.11.33.16.3.21.28.25.24.29.2.31.15.33.1.35.04z" style="stroke-width:.53;fill:#fff;fill-opacity:.5"/><text x="234.65" y="507.73" lengthAdjust="spacingAndGlyphs" style="font-size:5.69px;font-family:&quot;Liberation Sans&quot;" text-anchor="middle" textLength="58.95">INGRAM PLACE APTS</text><text x="234.65" y="515.93" lengthAdjust="spacingAndGlyphs" style="font-size:5.69px;font-family:&quot;Liberation Sans&quot;" text-anchor="middle" textLength="10.31">LLC</text><path d="M188.74 326.55h65.33-.09l.35-.01.34-.07.32-.12.3-.18.27-.22.23-.26.19-.29.13-.32.09-.34.03-.35v-23.41l-.03-.35-.09-.34-.13-.32-.19-.29-.23-.26-.27-.22-.3-.17-.32-.13-.34-.07-.26-.01h-65.33l.26.01-.35-.01-.34.04-.34.1-.31.15-.29.19-.25.25-.21.27-.16.31-.11.33-.05.34-.01.18v23.41l.01-.17v.35l.05.34.11.33.16.31.21.28.25.24.29.19.31.15.34.1.34.04z" style="stroke-width:.53;fill:#fff;fill-opacity:.5"/><text x="221.4" y="306.56" lengthAdjust="spacingAndGlyphs" style="font-size:5.69px;font-family:&quot;Liberation Sans&quot;" text-anchor="middle" textLength="62.45">135 W WELLS ST, STE</text><text x="221.4" y="314.76" lengthAdjust="spacingAndGlyphs" style="font-size:5.69px;font-family:&quot;Liberation Sans&quot;" text-anchor="middle" textLength="51.66">2, MILWAUKEE, WI</text><text x="221.4" y="322.95" lengthAdjust="spacingAndGlyphs" style="font-size:5.69px;font-family:&quot;Liberation Sans&quot;" text-anchor="middle" textLength="18.11">53203</text><path d="M448.63 353.33h67.22-.08l.34-.01.34-.07.33-.13.3-.17.27-.22.23-.26.19-.29.13-.32.09-.34.02-.35v-15.22l-.02-.35-.09-.33-.13-.32-.19-.3-.23-.26-.27-.22-.3-.17-.33-.12-.34-.07-.26-.02h-67.22l.26.02-.34-.02-.35.05-.33.09-.32.15-.28.2-.25.24-.21.28-.16.3-.11.33-.06.35-.01.17v15.22l.01-.17v.35l.06.34.11.33.16.31.21.28.25.24.28.19.32.15.33.1.35.04z" style="stroke-width:.53;fill:#fff;fill-opacity:.5"/><text x="482.24" y="341.54" lengthAdjust="spacingAndGlyphs" style="font-size:5.69px;font-family:&quot;Liberation Sans&quot;" text-anchor="middle" textLength="38.74">600 WALNUT,</text><text x="482.24" y="349.73" lengthAdjust="spacingAndGlyphs" style="font-size:5.69px;font-family:&quot;Liberation Sans&quot;" text-anchor="middle" textLength="64.34">MILWAUKEE, WI 53212</text></g><g clip-path="url(#cpMC4wMHw1NzYuMDB8MC4wMHw1NzYuMDA=)"><circle cx="196.98" cy="95.78" r="1.95" style="stroke-width:.71;stroke:none;fill:#f8766d"/><path d="m273.33 92.74 2.63 4.56h-5.26z" style="stroke-width:.71;stroke:none;fill:#00ba38"/><path d="M339.31 97.74h3.91v-3.91h-3.91z" style="stroke-width:.71;stroke:none;fill:#619cff"/><text x="211.09" y="98.81" lengthAdjust="spacingAndGlyphs" style="font-size:8.8px;font-family:&quot;Liberation Sans Narrow&quot;" textLength="48.12">mprop address</text><text x="287.45" y="98.81" lengthAdjust="spacingAndGlyphs" style="font-size:8.8px;font-family:&quot;Liberation Sans Narrow&quot;" textLength="39.69">owner name</text><text x="355.38" y="98.81" lengthAdjust="spacingAndGlyphs" style="font-size:8.8px;font-family:&quot;Liberation Sans Narrow&quot;" textLength="40.5">wdfi address</text><text x="32.63" y="64.23" lengthAdjust="spacingAndGlyphs" style="font-size:12px;font-family:&quot;Liberation Sans Narrow&quot;" textLength="246.76">includes 5 parcels, 92 units, and 5 distinct owner names.</text><text x="32.63" y="42.27" lengthAdjust="spacingAndGlyphs" style="font-size:18px;font-weight:700;font-family:&quot;Liberation Sans Narrow&quot;" textLength="287.29">APPLETON HGHTS TOWNHOMES Group</text></g></svg>