<svg xmlns="http://www.w3.org/2000/svg" width="768" height="768" class="svglite" viewBox="0 0 576 576"><defs><style><![CDATA[.svglite line,.svglite polyline,.svglite polygon,.svglite path,.svglite circle{fill:none;stroke:#000000;stroke-linecap:round;stroke-linejoin:round;stroke-miterlimit:10.00}.svglite text{white-space:pre}]]></style></defs><rect width="100%" height="100%" style="stroke-linecap:round;stroke-linejoin:round;stroke-miterlimit:10.00;stroke:none;fill:#FFFFFF"/><defs><clipPath id="cpMC4wMHw1NzYuMDB8MC4wMHw1NzYuMDA="><path d="M0 0h576v576H0z"/></clipPath></defs><g clip-path="url(#cpMC4wMHw1NzYuMDB8MC4wMHw1NzYuMDA=)"><path d="M0 0h576v576H0z" style="stroke-width:1.07;stroke:none;fill:#FFFFFF"/></g><defs><clipPath id="cpMzIuNjN8NTQ2LjExfDEyMi4xNHw1NDMuMzc="><path d="M32.63 122.14h513.48v421.24H32.63z"/></clipPath></defs><g clip-path="url(#cpMzIuNjN8NTQ2LjExfDEyMi4xNHw1NDMuMzc=)"><path d="m443.97 346.51-1.22-.51-1.22-.51-1.21-.51-1.22-.51-1.22-.52-1.21-.51-1.22-.51-1.21-.51-1.22-.51-1.22-.51-1.21-.51-1.22-.51-1.22-.52-1.21-.51-1.22-.51-1.21-.51-1.22-.51-1.22-.51-1.21-.51-1.22-.52-1.22-.51-1.21-.51-1.22-.51-1.21-.51-1.22-.51-1.22-.51-1.21-.52-1.22-.51-1.21-.51-1.22-.51-1.22-.51-1.21-.51-1.22-.51-1.22-.51-1.21-.52-1.22-.51-1.21-.51-1.22-.51-1.22-.51-1.21-.51-1.22-.51-1.22-.52-1.21-.51-1.22-.51-1.21-.51-1.22-.51-1.22-.51-1.21-.51-1.22-.52-1.22-.51-1.21-.51-1.22-.51-1.21-.51-1.22-.51-1.22-.51-1.21-.51-1.22-.52-1.22-.51-1.21-.51-1.22-.51-1.21-.51-1.22-.51-1.22-.51-1.21-.52-1.22-.51-1.22-.51-1.21-.51-1.22-.51-1.21-.51-1.22-.51-1.22-.52-1.21-.51-1.22-.51-1.21-.51-1.22-.51-1.22-.51-1.21-.51-1.22-.51-1.22-.52-1.21-.51-1.22-.51-1.21-.51-1.22-.51-1.22-.51-1.21-.51-1.22-.52-1.22-.51-1.21-.51-1.22-.51-1.21-.51-1.22-.51-1.22-.51-1.21-.52-1.22-.51-1.22-.51-1.21-.51-1.22-.51-1.21-.51-1.22-.51m-140.03-1.55-1.24-.43-1.24-.44-1.25-.42-1.24-.43-1.24-.41-1.25-.41-1.24-.41-1.25-.4-1.25-.39-1.25-.39-1.24-.39-1.26-.37-1.25-.38-1.25-.36-1.25-.36-1.26-.36-1.25-.35-1.26-.35-1.26-.33-1.26-.34-1.26-.33-1.26-.32-1.26-.32-1.26-.31-1.27-.3-1.26-.3-1.27-.3-1.26-.29-1.27-.28-1.27-.28-1.27-.27-1.27-.27-1.27-.26-1.27-.26-1.28-.25-1.27-.24-1.28-.24-1.27-.23-1.28-.23-1.28-.23-1.28-.21-1.28-.21-1.28-.21-1.28-.2-1.29-.2-1.28-.19-1.29-.18-1.28-.18-1.29-.17-1.29-.17-1.29-.16-1.29-.16-1.29-.15-1.29-.14-1.3-.14-1.29-.14-1.3-.13-1.29-.12-1.3-.12-1.3-.11-1.3-.11-1.3-.1-1.3-.09-1.3-.09-1.31-.09-1.3-.08-1.31-.07-1.3-.07-1.31-.06-1.31-.06-1.31-.05-1.31-.04-1.31-.04-1.31-.04-1.31-.03-1.32-.02-1.31-.02-1.32-.01-1.32-.01H81.2l-1.31.01h-1.33l-1.32.02-1.32.02-1.32.03-1.33.03-1.32.04-1.33.04-1.32.05-1.33.05-1.33.06-1.33.07-1.33.07-1.34.07-1.33.08-1.33.09-1.34.09-1.33.1-1.34.11m371.91-62.84-1.06.82-1.05.81-1.05.82-1.06.82-1.05.82-1.05.82-1.06.81-1.05.82-1.06.82-1.05.82-1.05.81-1.06.82-1.05.82-1.05.82-1.06.82-1.05.81-1.06.82-1.05.82-1.05.82-1.06.81-1.05.82-1.05.82-1.06.82-1.05.81-1.06.82-1.05.82-1.05.82-1.06.82-1.05.81-1.05.82-1.06.82-1.05.82-1.06.81-1.05.82-1.05.82-1.06.82-1.05.82-1.05.81-1.06.82-1.05.82-1.05.82-1.06.81-1.05.82-1.06.82-1.05.82-1.05.82-1.06.81-1.05.82-1.05.82-1.06.82-1.05.81-1.06.82-1.05.82-1.05.82-1.06.82-1.05.81-1.05.82-1.06.82-1.05.82-1.06.81-1.05.82-1.05.82-1.06.82-1.05.82-1.05.81-1.06.82-1.05.82-1.06.82-1.05.81-1.05.82-1.06.82-1.05.82-1.05.82-1.06.81-1.05.82-1.06.82-1.05.82-1.05.81-1.06.82-1.05.82-1.05.82-1.06.81-1.05.82-1.05.82-1.06.82-1.05.82-1.06.81-1.05.82-1.05.82-1.06.82-1.05.81-1.05.82-1.06.82-1.05.82-1.06.82-1.05.81-1.05.82-1.06.82-1.05.82m104.32-80.96.96-.75.95-.74.96-.74.96-.75.96-.74.96-.74.96-.75.96-.74.95-.75.96-.74.96-.74.96-.75.96-.74.96-.75.96-.74.95-.74.96-.75.96-.74.96-.75.96-.74.96-.74.96-.75.95-.74.96-.74.96-.75.96-.74.96-.75.96-.74.95-.74.96-.75.96-.74.96-.75.96-.74.96-.74.96-.75.95-.74.96-.74.96-.75.96-.74.96-.75.96-.74.96-.74.95-.75.96-.74.96-.75.96-.74.96-.74.96-.75.96-.74.95-.75.96-.74.96-.74.96-.75.96-.74.96-.74.96-.75.95-.74.96-.75.96-.74.96-.74.96-.75.96-.74.95-.75.96-.74.96-.74.96-.75.96-.74.96-.75.96-.74.95-.74.96-.75.96-.74.96-.74.96-.75.96-.74.96-.75.95-.74.96-.74.96-.75.96-.74.96-.75.96-.74.96-.74.95-.75.96-.74.96-.75.96-.74.96-.74.96-.75.96-.74.95-.74.96-.75.96-.74.96-.75.96-.74.96-.74.95-.75.96-.74.96-.75M183.53 294.34l-1.34.11-1.34.1-1.33.09-1.34.09-1.33.08-1.33.07-1.33.07-1.33.07-1.33.06-1.33.05-1.33.05-1.32.04-1.33.04-1.32.03-1.33.03-1.32.02-1.32.02-1.32.01h-2.64l-1.32-.01-1.31-.01-1.32-.02-1.31-.02-1.31-.03-1.32-.04-1.31-.04-1.31-.04-1.31-.05-1.31-.06-1.3-.06-1.31-.07-1.31-.07-1.3-.08-1.3-.09-1.31-.09-1.3-.09-1.3-.1-1.3-.11-1.3-.11-1.29-.12-1.3-.12-1.29-.13-1.3-.14-1.29-.13-1.29-.15-1.3-.15-1.29-.16-1.29-.16-1.28-.17-1.29-.17-1.29-.18-1.28-.18-1.29-.19-1.28-.2-1.28-.2-1.29-.2-1.28-.22-1.28-.21-1.27-.23-1.28-.22-1.28-.24-1.27-.24-1.28-.24-1.27-.25-1.28-.26-1.27-.26-1.27-.27-1.27-.27-1.27-.28-1.26-.28-1.27-.29-1.27-.3-1.26-.3-1.26-.3-1.27-.31-1.26-.32-1.26-.32-1.26-.33-1.26-.33-1.25-.34-1.26-.35-1.26-.35-1.25-.35-1.25-.37-1.26-.36-1.25-.37-1.25-.38-1.25-.39-1.25-.38-1.25-.4-1.24-.4-1.25-.4-1.24-.42-1.25-.41-1.24-.42-1.24-.43-1.24-.43-1.24-.44" style="stroke-width:1.07;stroke:#000000;stroke-opacity:0.10;stroke-linecap:butt"/><path d="m275.32 189.26.49 1.07.48 1.08.49 1.08.49 1.07.49 1.08.48 1.08.49 1.07.49 1.08.49 1.08.48 1.08.49 1.07.49 1.08.48 1.08.49 1.07.49 1.08.49 1.08.48 1.08.49 1.07.49 1.08.49 1.08.48 1.07.49 1.08.49 1.08.48 1.08.49 1.07.49 1.08.49 1.08.48 1.07.49 1.08.49 1.08.49 1.07.48 1.08.49 1.08.49 1.08.48 1.07.49 1.08.49 1.08.49 1.07.48 1.08.49 1.08.49 1.08.49 1.07.48 1.08.49 1.08.49 1.07.48 1.08.49 1.08.49 1.08.49 1.07.48 1.08.49 1.08.49 1.07.49 1.08.48 1.08.49 1.07.49 1.08.48 1.08.49 1.08.49 1.07.49 1.08.48 1.08.49 1.07.49 1.08.49 1.08.48 1.08.49 1.07.49 1.08.48 1.08.49 1.07.49 1.08.49 1.08.48 1.08.49 1.07.49 1.08.49 1.08.48 1.07.49 1.08.49 1.08.48 1.08.49 1.07.49 1.08.49 1.08.48 1.07.49 1.08.49 1.08.49 1.07.48 1.08.49 1.08.49 1.08.48 1.07.49 1.08.49 1.08.49 1.07.48 1.08.49 1.08.49 1.08.48 1.07.49 1.08.49 1.08m-11.01 118.76.11-1.2.11-1.2.11-1.2.11-1.2.11-1.2.11-1.2.11-1.2.12-1.2.11-1.2.11-1.2.11-1.2.11-1.19.11-1.2.11-1.2.11-1.2.12-1.2.11-1.2.11-1.2.11-1.2.11-1.2.11-1.2.11-1.2.11-1.2.12-1.2.11-1.2.11-1.2.11-1.2.11-1.2.11-1.2.11-1.2.11-1.2.12-1.2.11-1.2.11-1.2.11-1.2.11-1.2.11-1.2.11-1.2.11-1.2.12-1.19.11-1.2.11-1.2.11-1.2.11-1.2.11-1.2.11-1.2.11-1.2.12-1.2.11-1.2.11-1.2.11-1.2.11-1.2.11-1.2.11-1.2.11-1.2.12-1.2.11-1.2.11-1.2.11-1.2.11-1.2.11-1.2.11-1.2.11-1.2.12-1.2.11-1.2.11-1.2.11-1.19.11-1.2.11-1.2.11-1.2.11-1.2.12-1.2.11-1.2.11-1.2.11-1.2.11-1.2.11-1.2.11-1.2.11-1.2.12-1.2.11-1.2.11-1.2.11-1.2.11-1.2.11-1.2.11-1.2.11-1.2.12-1.2.11-1.2.11-1.2.11-1.2.11-1.2.11-1.2.11-1.2.11-1.19.12-1.2.11-1.2.11-1.2.11-1.2m-11.01 118.76.07 1.11.08 1.1.08 1.11.08 1.11.08 1.1.07 1.11.08 1.11.08 1.11.08 1.1.08 1.11.07 1.11.08 1.1.08 1.11.08 1.11.08 1.1.08 1.11.07 1.11.08 1.1.08 1.11.08 1.11.08 1.1.07 1.11.08 1.11.08 1.1.08 1.11.08 1.11.07 1.1.08 1.11.08 1.11.08 1.11.08 1.1.07 1.11.08 1.11.08 1.1.08 1.11.08 1.11.07 1.1.08 1.11.08 1.11.08 1.1.08 1.11.08 1.11.07 1.1.08 1.11.08 1.11.08 1.1.08 1.11.07 1.11.08 1.1.08 1.11.08 1.11.08 1.11.07 1.1.08 1.11.08 1.11.08 1.1.08 1.11.07 1.11.08 1.1.08 1.11.08 1.11.08 1.1.07 1.11.08 1.11.08 1.1.08 1.11.08 1.11.07 1.1.08 1.11.08 1.11.08 1.1.08 1.11.08 1.11.07 1.1.08 1.11.08 1.11.08 1.11.08 1.1.07 1.11.08 1.11.08 1.1.08 1.11.08 1.11.07 1.1.08 1.11.08 1.11.08 1.1.08 1.11.07 1.11.08 1.1.08 1.11.08 1.11.08 1.1.07 1.11.08 1.11.08 1.1.08 1.11.08 1.11.08 1.11" style="stroke-width:1.07;stroke:#000000;stroke-opacity:0.10;stroke-linecap:butt"/><path d="m183.53 294.34 1.41.02 1.42.02 1.41.01 1.42.02 1.41.01 1.41.02 1.42.01 1.41.02 1.42.01 1.41.02 1.42.02 1.41.01 1.42.02 1.41.01 1.41.02 1.42.01 1.41.02 1.42.01 1.41.02 1.42.02 1.41.01 1.42.02 1.41.01 1.41.02 1.42.01 1.41.02 1.42.02 1.41.01 1.42.02 1.41.01 1.42.02 1.41.01 1.41.02 1.42.01 1.41.02 1.42.02 1.41.01 1.42.02 1.41.01 1.42.02 1.41.01 1.41.02 1.42.01 1.41.02 1.42.02 1.41.01 1.42.02 1.41.01 1.42.02 1.41.01 1.42.02 1.41.01 1.41.02 1.42.02 1.41.01 1.42.02 1.41.01 1.42.02 1.41.01 1.42.02 1.41.01 1.41.02 1.42.02 1.41.01 1.42.02 1.41.01 1.42.02 1.41.01 1.42.02 1.41.02 1.41.01 1.42.02 1.41.01 1.42.02 1.41.01 1.42.02 1.41.01 1.42.02 1.41.02 1.41.01 1.42.02 1.41.01 1.42.02 1.41.01 1.42.02 1.41.01 1.42.02 1.41.02 1.41.01 1.42.02 1.41.01 1.42.02 1.41.01 1.42.02 1.41.01 1.42.02 1.41.02 1.41.01 1.42.02" style="stroke-width:1.07;stroke:#000000;stroke-opacity:0.10;stroke-linecap:butt"/><path d="m443.97 344.3 1.91 3.32h-3.83zm-260.44-58.03 6.99 12.11h-13.99zm244.35-73.55 1.91 3.31h-3.83zm-152.56-25.68 1.91 3.32h-3.82zm37.23 225.4 1.91 3.32h-3.83z" style="stroke-width:0.71;stroke:none;fill:#00BA38"/><circle cx="323.56" cy="295.89" r="6.76" style="stroke-width:0.71;stroke:none;fill:#F8766D"/><circle cx="55.97" cy="277.77" r="4.09" style="stroke-width:0.71;stroke:none;fill:#F8766D"/><path d="M521.35 142.71h2.84v-2.85h-2.84zm-202.5 382.94h2.85v-2.85h-2.85z" style="stroke-width:0.71;stroke:none;fill:#619CFF"/><path d="m438.68 351.28 4.43-3.99m-254.34-57.67-4.38 3.95m238.24-73.91 4.39-3.96M269.9 193.93l4.54-3.92m43.45 220.04-4.46 3.84m15.48-122.61-4.47 3.85M61.37 273.11l-4.52 3.9m461.14-134.72 3.55-.75M315.52 527.46l3.77-2.57" style="stroke-width:0.53;stroke:#BFBFBF"/><path d="M396.95 362.63h68.55-.08l.34-.02.35-.07.32-.12.3-.17.27-.22.23-.26.19-.3.13-.32.09-.33.02-.35h0v-7.03h0l-.02-.34-.09-.34-.13-.32-.19-.3-.23-.26-.27-.22-.3-.17-.32-.12-.35-.07-.26-.02h-68.55l.26.02-.35-.02-.35.05-.33.09-.31.15-.29.2-.25.24-.21.28-.16.31-.11.32-.06.35v7.2-.17.34l.06.35.11.33.16.3.21.28.25.24.29.2.31.15.33.1.35.04z" style="stroke-width:0.53;fill:#FFFFFF;fill-opacity:0.50"/><text x="431.22" y="359.03" lengthAdjust="spacingAndGlyphs" style="font-size:5.69px;font-family:&quot;Liberation Sans&quot;" text-anchor="middle" textLength="65.68">HESTIA PROPETIES LLC</text><path d="M181.14 289.62h30.04-.09l.35-.02.34-.07.32-.12.31-.17.27-.22.23-.26.18-.3.14-.32.08-.34.03-.34h0v-7.03h0l-.03-.35-.08-.33-.14-.32-.18-.3-.23-.26-.27-.22-.31-.17-.32-.12-.34-.07-.26-.02h-30.04l.26.02-.35-.02-.34.04-.34.1-.31.15-.29.2-.25.24-.21.28-.16.3-.11.33-.05.35-.01.17v7.03l.01-.18v.35l.05.34.11.33.16.31.21.28.25.24.29.2.31.15.34.09.34.05z" style="stroke-width:0.53;fill:#FFFFFF;fill-opacity:0.50"/><text x="196.16" y="286.02" lengthAdjust="spacingAndGlyphs" style="font-size:5.69px;font-family:&quot;Liberation Sans&quot;" text-anchor="middle" textLength="27.16">ARES LLC</text><path d="M397.47 231.01h35.52-.09l.35-.02.34-.06.33-.13.3-.17.27-.22.23-.26.18-.3.14-.32.08-.33.03-.35h0v-7.03h0l-.03-.34-.08-.34-.14-.32-.18-.29-.23-.26-.27-.22-.3-.18-.33-.12-.34-.07-.26-.02h-35.52l.26.02-.34-.01-.35.04-.33.09-.32.15-.28.2-.25.24-.21.28-.16.31-.11.33-.06.34-.01.17v7.03l.01-.17v.34l.06.35.11.33.16.31.21.27.25.24.28.2.32.15.33.1.35.04z" style="stroke-width:0.53;fill:#FFFFFF;fill-opacity:0.50"/><text x="415.23" y="227.41" lengthAdjust="spacingAndGlyphs" style="font-size:5.69px;font-family:&quot;Liberation Sans&quot;" text-anchor="middle" textLength="32.64">HESTIA LLC</text><path d="M224.97 213.47h65.41-.08l.34-.02.34-.06.33-.13.3-.17.27-.22.23-.26.18-.3.14-.32.08-.33.03-.35h0v-15.22h0l-.03-.35-.08-.34-.14-.32-.18-.29-.23-.26-.27-.22-.3-.17-.33-.13-.34-.07-.26-.01h-65.41l.26.01-.35-.01-.34.04-.34.1-.31.15-.29.2-.25.24-.21.27-.16.31-.11.33-.05.34-.01.18v15.22l.01-.17v.34l.05.35.11.33.16.3.21.28.25.24.29.2.31.15.34.1.34.04z" style="stroke-width:0.53;fill:#FFFFFF;fill-opacity:0.50"/><text x="257.68" y="201.68" lengthAdjust="spacingAndGlyphs" style="font-size:5.69px;font-family:&quot;Liberation Sans&quot;" text-anchor="middle" textLength="62.53">FORTUNE PROP OF WI</text><text x="257.68" y="209.87" lengthAdjust="spacingAndGlyphs" style="font-size:5.69px;font-family:&quot;Liberation Sans&quot;" text-anchor="middle" textLength="10.31">LLC</text><path d="M300.07 410.05h59.98-.08l.34-.02.34-.07.33-.12.3-.17.27-.22.23-.26.19-.3.13-.32.09-.33.02-.35h0v-15.22h0l-.02-.35-.09-.34-.13-.32-.19-.29-.23-.26-.27-.22-.3-.17-.33-.13-.34-.07-.26-.01h-59.98l.26.01-.35-.01-.34.04-.34.1-.31.15-.29.19-.25.25-.2.27-.17.31-.11.33-.05.34-.01.18v15.22l.01-.17v.34l.05.35.11.33.17.3.2.28.25.24.29.2.31.15.34.1.34.04z" style="stroke-width:0.53;fill:#FFFFFF;fill-opacity:0.50"/><text x="330.06" y="398.26" lengthAdjust="spacingAndGlyphs" style="font-size:5.69px;font-family:&quot;Liberation Sans&quot;" text-anchor="middle" textLength="57.1">HESTIA PROPERTIES</text><text x="330.06" y="406.45" lengthAdjust="spacingAndGlyphs" style="font-size:5.69px;font-family:&quot;Liberation Sans&quot;" text-anchor="middle" textLength="10.31">LLC</text><path d="M313.7 291.28h54.72-.09l.35-.01.34-.07.32-.13.3-.17.27-.22.23-.26.19-.29.14-.32.08-.34.03-.35h0V273.9h0l-.03-.35-.08-.33-.14-.32-.19-.3-.23-.26-.27-.22-.3-.17-.32-.12-.34-.07-.26-.02H313.7l.26.02-.35-.02-.34.04-.34.1-.31.15-.29.2-.25.24-.21.28-.16.3-.11.33-.06.35v15.39-.17.35l.06.34.11.33.16.31.21.27.25.24.29.2.31.15.34.1.34.04z" style="stroke-width:0.53;fill:#FFFFFF;fill-opacity:0.50"/><text x="341.06" y="279.49" lengthAdjust="spacingAndGlyphs" style="font-size:5.69px;font-family:&quot;Liberation Sans&quot;" text-anchor="middle" textLength="48.95">1300 PERRY AVE,</text><text x="341.06" y="287.68" lengthAdjust="spacingAndGlyphs" style="font-size:5.69px;font-family:&quot;Liberation Sans&quot;" text-anchor="middle" textLength="51.84">RACINE, WI 53406</text><path d="M46.21 273.11h54.72-.09l.35-.02.34-.07.32-.12.3-.17.27-.22.23-.26.19-.3.13-.32.09-.33.03-.35h0v-15.22h0l-.03-.35-.09-.34-.13-.32-.19-.29-.23-.26-.27-.22-.3-.17-.32-.13-.34-.07-.26-.01H46.21l.26.01-.35-.01-.35.04-.33.1-.31.15-.29.19-.25.25-.21.27-.16.31-.11.33-.06.34v15.4-.17.34l.06.35.11.33.16.3.21.28.25.24.29.2.31.15.33.1.35.04z" style="stroke-width:0.53;fill:#FFFFFF;fill-opacity:0.50"/><text x="73.57" y="261.31" lengthAdjust="spacingAndGlyphs" style="font-size:5.69px;font-family:&quot;Liberation Sans&quot;" text-anchor="middle" textLength="43.24">PO BOX 81202,</text><text x="73.57" y="269.51" lengthAdjust="spacingAndGlyphs" style="font-size:5.69px;font-family:&quot;Liberation Sans&quot;" text-anchor="middle" textLength="51.84">RACINE, WI 53408</text><path d="M449.81 156.19h66.02-.08l.34-.01.35-.07.32-.13.3-.17.27-.22.23-.26.19-.29.13-.32.09-.34.02-.35h0v-23.41h0l-.02-.35-.09-.34-.13-.32-.19-.29-.23-.26-.27-.22-.3-.18-.32-.12-.35-.07-.26-.01h-66.02l.26.01-.35-.01-.34.04-.34.1-.31.14-.29.2-.25.24-.21.28-.16.31-.11.33-.05.34-.01.18v23.41l.01-.17v.35l.05.34.11.33.16.31.21.27.25.24.29.2.31.15.34.1.34.04z" style="stroke-width:0.53;fill:#FFFFFF;fill-opacity:0.50"/><text x="482.82" y="136.2" lengthAdjust="spacingAndGlyphs" style="font-size:5.69px;font-family:&quot;Liberation Sans&quot;" text-anchor="middle" textLength="63.14">8440 MARKET ST, APT</text><text x="482.82" y="144.4" lengthAdjust="spacingAndGlyphs" style="font-size:5.69px;font-family:&quot;Liberation Sans&quot;" text-anchor="middle" textLength="59.71">223, MIDDLETON, WI</text><text x="482.82" y="152.59" lengthAdjust="spacingAndGlyphs" style="font-size:5.69px;font-family:&quot;Liberation Sans&quot;" text-anchor="middle" textLength="18.11">53562</text><path d="M240.3 539.77h73.06-.09l.35-.01.34-.07.32-.13.3-.17.27-.22.23-.26.19-.29.13-.32.09-.34.03-.35h0v-15.22h0l-.03-.35-.09-.33-.13-.32-.19-.3-.23-.26-.27-.22-.3-.17-.32-.13-.34-.06-.26-.02H240.3l.26.02-.35-.02-.34.04-.34.1-.31.15-.29.2-.25.24-.21.28-.16.3-.11.33-.06.35v15.39-.17.35l.06.34.11.33.16.31.21.27.25.24.29.2.31.15.34.1.34.04z" style="stroke-width:0.53;fill:#FFFFFF;fill-opacity:0.50"/><text x="276.83" y="527.98" lengthAdjust="spacingAndGlyphs" style="font-size:5.69px;font-family:&quot;Liberation Sans&quot;" text-anchor="middle" textLength="70.18">3801 MONARCH DR, STE</text><text x="276.83" y="536.17" lengthAdjust="spacingAndGlyphs" style="font-size:5.69px;font-family:&quot;Liberation Sans&quot;" text-anchor="middle" textLength="63.05">1C, RACINE, WI 53406</text></g><g clip-path="url(#cpMC4wMHw1NzYuMDB8MC4wMHw1NzYuMDA=)"><circle cx="194.25" cy="97.06" r="1.95" style="stroke-width:0.71;stroke:none;fill:#F8766D"/><path d="m270.6 94.02 2.63 4.56h-5.27z" style="stroke-width:0.71;stroke:none;fill:#00BA38"/><path d="M336.57 99.01h3.91V95.1h-3.91z" style="stroke-width:0.71;stroke:none;fill:#619CFF"/><text x="208.37" y="100.22" lengthAdjust="spacingAndGlyphs" style="font-size:8.80px;font-weight:0;font-family:&quot;Nimbus Sans Narrow&quot;" textLength="48.11">mprop address</text><text x="284.72" y="100.22" lengthAdjust="spacingAndGlyphs" style="font-size:8.80px;font-weight:0;font-family:&quot;Nimbus Sans Narrow&quot;" textLength="39.69">owner name</text><text x="352.64" y="100.22" lengthAdjust="spacingAndGlyphs" style="font-size:8.80px;font-weight:0;font-family:&quot;Nimbus Sans Narrow&quot;" textLength="40.49">wdfi address</text><text x="32.63" y="65.35" lengthAdjust="spacingAndGlyphs" style="font-size:12.00px;font-weight:0;font-family:&quot;Nimbus Sans Narrow&quot;" textLength="246.65">includes 7 parcels, 14 units, and 5 distinct owner names.</text><text x="32.63" y="42.81" lengthAdjust="spacingAndGlyphs" style="font-size:18.00px;font-weight:0;font-family:&quot;Nimbus Sans Narrow&quot;" textLength="147.65">ARES LLC etc Group</text></g></svg>