<svg xmlns="http://www.w3.org/2000/svg" width="768" height="768" viewBox="0 0 576 576"><g class="svglite"><defs><style><![CDATA[.svglite line,.svglite polyline,.svglite polygon,.svglite path,.svglite circle{fill:none;stroke:#000000;stroke-linecap:round;stroke-linejoin:round;stroke-miterlimit:10.00}.svglite text{white-space:pre}.svglite g.glyphgroup path{fill:inherit;stroke:none}]]></style></defs><rect width="100%" height="100%" style="stroke-linecap:round;stroke-linejoin:round;stroke-miterlimit:10.00;stroke:none;fill:#FFFFFF"/><defs><clipPath id="cpMC4wMHw1NzYuMDB8MC4wMHw1NzYuMDA="><path d="M0 0h576v576H0z"/></clipPath></defs><g clip-path="url(#cpMC4wMHw1NzYuMDB8MC4wMHw1NzYuMDA=)"><path d="M0 0h576v576H0z" style="stroke-width:1.07;stroke:none;fill:#FFFFFF"/></g><defs><clipPath id="cpMjkuODl8NTQ2LjExfDE0MS41OHw1NDYuMTE="><path d="M29.89 141.58h516.22v404.53H29.89z"/></clipPath></defs><g clip-path="url(#cpMjkuODl8NTQ2LjExfDE0MS41OHw1NDYuMTE=)"><path d="m522.65 333.37-2.29-.7-2.28-.7-2.29-.69-2.3-.69-2.29-.68-2.3-.67-2.31-.66-2.3-.66-2.31-.64-2.31-.65-2.32-.63-2.32-.63-2.32-.62-2.32-.61-2.33-.61-2.33-.59-2.33-.6-2.34-.58-2.34-.58-2.34-.57-2.35-.56-2.35-.56-2.35-.55-2.35-.54-2.36-.53-2.36-.53-2.37-.52-2.36-.51-2.37-.51-2.38-.5-2.38-.49-2.38-.48-2.38-.48-2.38-.47-2.39-.46-2.4-.46-2.39-.45-2.4-.44-2.4-.43-2.41-.43-2.4-.42-2.41-.41-2.42-.41-2.42-.4-2.42-.39-2.42-.38-2.42-.38-2.43-.37-2.44-.36-2.43-.36-2.44-.35-2.44-.34-2.45-.33-2.45-.33-2.45-.32-2.45-.31-2.46-.31-2.46-.3-2.46-.29-2.47-.28-2.47-.28-2.47-.27-2.48-.26-2.47-.26-2.49-.24-2.48-.25-2.49-.23-2.49-.23-2.5-.22-2.49-.21-2.5-.21-2.51-.19-2.5-.2-2.51-.18-2.52-.18-2.51-.17-2.52-.16-2.52-.15-2.53-.15-2.53-.14-2.53-.14-2.53-.13-2.54-.12-2.54-.11-2.54-.1-2.55-.1-2.55-.09-2.55-.09-2.56-.08-2.56-.06-2.56-.07-2.57-.05-2.57-.05-2.57-.04-2.57-.04-2.58-.02-2.58-.02-2.59-.02h-2.58m180.15-93.88-1.82.95-1.82.95-1.82.95-1.82.94-1.82.95-1.82.95-1.82.95-1.82.95-1.81.95-1.82.94-1.82.95-1.82.95-1.82.95-1.82.95-1.82.94-1.82.95-1.82.95-1.82.95-1.82.95-1.82.95-1.82.94-1.82.95-1.82.95-1.82.95-1.82.95-1.82.95-1.82.94-1.82.95-1.82.95-1.82.95-1.82.95-1.82.95-1.82.94-1.82.95-1.82.95-1.82.95-1.82.95-1.82.94-1.82.95-1.82.95-1.82.95-1.82.95-1.82.95-1.82.94-1.82.95-1.82.95-1.82.95-1.82.95-1.81.95-1.82.94-1.82.95-1.82.95-1.82.95-1.82.95-1.82.94-1.82.95-1.82.95-1.82.95-1.82.95-1.82.95-1.82.94-1.82.95-1.82.95-1.82.95-1.82.95-1.82.95-1.82.94-1.82.95-1.82.95-1.82.95-1.82.95-1.82.95-1.82.94-1.82.95-1.82.95-1.82.95-1.82.95-1.82.94-1.82.95-1.82.95-1.82.95-1.82.95-1.82.95-1.82.94-1.82.95-1.82.95-1.82.95-1.82.95-1.81.95-1.82.94-1.82.95-1.82.95-1.82.95-1.82.95-1.82.94-1.82.95-1.82.95-1.82.95-1.82.95m241.12 35.21h-2.59l-2.58-.02-2.58-.02-2.58-.02-2.58-.04-2.57-.04-2.57-.05-2.56-.05-2.57-.07-2.55-.07-2.56-.07-2.55-.09-2.55-.09-2.55-.1-2.54-.1-2.54-.12-2.54-.11-2.54-.13-2.53-.14-2.53-.14-2.52-.15-2.52-.15-2.52-.16-2.52-.17-2.51-.18-2.51-.19-2.51-.19-2.5-.2-2.5-.2-2.5-.21-2.49-.22-2.5-.23-2.48-.23-2.49-.25-2.48-.24-2.48-.26-2.47-.26-2.48-.27-2.47-.28-2.46-.28-2.47-.3-2.46-.29-2.45-.31-2.46-.31-2.45-.32-2.45-.33-2.44-.33-2.44-.35-2.44-.34-2.44-.36-2.43-.36-2.43-.37-2.43-.38-2.42-.38-2.42-.4-2.42-.39-2.41-.41-2.41-.41-2.41-.42-2.4-.43-2.41-.43-2.39-.45-2.4-.44-2.39-.46-2.39-.46-2.39-.47-2.38-.48-2.38-.48-2.38-.5-2.37-.49-2.37-.51-2.37-.51-2.36-.52-2.36-.53-2.36-.53-2.36-.55-2.35-.54-2.35-.56-2.34-.56-2.35-.57-2.34-.58-2.33-.58-2.34-.6-2.33-.59-2.32-.61-2.33-.61-2.32-.62-2.32-.63-2.31-.64-2.31-.64-2.31-.65-2.31-.65-2.3-.66-2.3-.67-2.3-.68-2.29-.69-2.29-.69-2.29-.7-2.28-.7m-44.51-138.19.45 1.39.45 1.4.45 1.39.45 1.4.45 1.39.45 1.4.45 1.4.45 1.39.45 1.4.45 1.39.45 1.4.45 1.4.45 1.39.45 1.4.45 1.39.45 1.4.44 1.4.45 1.39.45 1.4.45 1.39.45 1.4.45 1.39.45 1.4.45 1.4.45 1.39.45 1.4.45 1.39.45 1.4.45 1.4.45 1.39.45 1.4.45 1.39.45 1.4.45 1.4.45 1.39.45 1.4.45 1.39.45 1.4.44 1.39.45 1.4.45 1.4.45 1.39.45 1.4.45 1.39.45 1.4.45 1.4.45 1.39.45 1.4.45 1.39.45 1.4.45 1.4.45 1.39.45 1.4.45 1.39.45 1.4.45 1.39.45 1.4.45 1.4.45 1.39.45 1.4.44 1.39.45 1.4.45 1.4.45 1.39.45 1.4.45 1.39.45 1.4.45 1.4.45 1.39.45 1.4.45 1.39.45 1.4.45 1.39.45 1.4.45 1.4.45 1.39.45 1.4.45 1.39.45 1.4.45 1.4.45 1.39.45 1.4.45 1.39.44 1.4.45 1.4.45 1.39.45 1.4.45 1.39.45 1.4.45 1.39.45 1.4.45 1.4.45 1.39.45 1.4.45 1.39.45 1.4.45 1.4.45 1.39.45 1.4M53.35 240.8l2.31.58 2.3.58 2.31.58 2.3.58 2.31.58 2.3.58 2.31.57 2.3.58 2.31.58 2.3.58 2.31.58 2.3.58 2.31.58 2.3.58 2.3.58 2.31.58 2.3.58 2.31.58 2.3.58 2.31.58 2.3.58 2.31.58 2.3.58 2.31.57 2.3.58 2.31.58 2.3.58 2.31.58 2.3.58 2.31.58 2.3.58 2.31.58 2.3.58 2.31.58 2.3.58 2.31.58 2.3.58 2.31.58 2.3.58 2.3.57 2.31.58 2.3.58 2.31.58 2.3.58 2.31.58 2.3.58 2.31.58 2.3.58 2.31.58 2.3.58 2.31.58 2.3.58 2.31.58 2.3.58 2.31.58 2.3.57 2.31.58 2.3.58 2.31.58 2.3.58 2.31.58 2.3.58 2.3.58 2.31.58 2.3.58 2.31.58 2.3.58 2.31.58 2.3.58 2.31.58 2.3.58 2.31.57 2.3.58 2.31.58 2.3.58 2.31.58 2.3.58 2.31.58 2.3.58 2.31.58 2.3.58 2.31.58 2.3.58 2.31.58 2.3.58 2.31.58 2.3.58 2.3.57 2.31.58 2.3.58 2.31.58 2.3.58 2.31.58 2.3.58 2.31.58 2.3.58 2.31.58 2.3.58 2.31.58m-176.14 99.5 1.78-1.01 1.78-1 1.78-1.01 1.77-1 1.78-1.01 1.78-1 1.78-1.01 1.78-1 1.78-1.01 1.78-1 1.78-1.01 1.78-1 1.78-1.01 1.78-1 1.78-1.01 1.78-1 1.77-1.01 1.78-1 1.78-1.01 1.78-1 1.78-1.01 1.78-1 1.78-1.01 1.78-1 1.78-1.01 1.78-1 1.78-1.01 1.78-1 1.77-1.01 1.78-1 1.78-1.01 1.78-1 1.78-1.01 1.78-1 1.78-1.01 1.78-1 1.78-1.01 1.78-1 1.78-1.01 1.78-1 1.77-1.01 1.78-1 1.78-1.01 1.78-1 1.78-1.01 1.78-1 1.78-1.01 1.78-1 1.78-1.01 1.78-1 1.78-1.01 1.78-1 1.78-1.01 1.77-1 1.78-1.01 1.78-1 1.78-1.01 1.78-1 1.78-1.01 1.78-1 1.78-1.01 1.78-1 1.78-1.01 1.78-1 1.78-1.01 1.77-1.01 1.78-1 1.78-1.01 1.78-1 1.78-1.01 1.78-1 1.78-1.01 1.78-1 1.78-1.01 1.78-1 1.78-1.01 1.78-1 1.77-1.01 1.78-1 1.78-1.01 1.78-1 1.78-1.01 1.78-1 1.78-1.01 1.78-1 1.78-1.01 1.78-1 1.78-1.01 1.78-1 1.78-1.01 1.77-1 1.78-1.01 1.78-1 1.78-1.01 1.78-1 1.78-1.01 1.78-1 1.78-1.01 1.78-1m-176.14 99.5.42 1.31.43 1.32.42 1.31.42 1.31.43 1.32.42 1.31.42 1.32.43 1.31.42 1.31.43 1.32.42 1.31.42 1.31.43 1.32.42 1.31.42 1.32.43 1.31.42 1.31.43 1.32.42 1.31.42 1.31.43 1.32.42 1.31.42 1.32.43 1.31.42 1.31.43 1.32.42 1.31.42 1.31.43 1.32.42 1.31.42 1.32.43 1.31.42 1.31.43 1.32.42 1.31.42 1.32.43 1.31.42 1.31.43 1.32.42 1.31.42 1.31.43 1.32.42 1.31.42 1.32.43 1.31.42 1.31.43 1.32.42 1.31.42 1.31.43 1.32.42 1.31.42 1.32.43 1.31.42 1.31.43 1.32.42 1.31.42 1.31.43 1.32.42 1.31.42 1.32.43 1.31.42 1.31.43 1.32.42 1.31.42 1.32.43 1.31.42 1.31.42 1.32.43 1.31.42 1.31.43 1.32.42 1.31.42 1.32.43 1.31.42 1.31.42 1.32.43 1.31.42 1.31.43 1.32.42 1.31.42 1.32.43 1.31.42 1.31.42 1.32.43 1.31.42 1.31.43 1.32.42 1.31.42 1.32.43 1.31.42 1.31.42 1.32.43 1.31.42 1.32.43 1.31.42 1.31.42 1.32.43 1.31.42 1.31" style="stroke-width:1.07;stroke:#000000;stroke-opacity:0.10;stroke-linecap:butt"/><path d="m316.95 439.39-.36-1.43-.35-1.42-.36-1.43-.36-1.42-.36-1.43-.35-1.43-.36-1.42-.36-1.43-.36-1.43-.36-1.42-.35-1.43-.36-1.43-.36-1.42-.36-1.43-.35-1.43-.36-1.42-.36-1.43-.36-1.43-.36-1.42-.35-1.43-.36-1.43-.36-1.42-.36-1.43-.36-1.43-.35-1.42-.36-1.43-.36-1.43-.36-1.42-.35-1.43-.36-1.43-.36-1.42-.36-1.43-.36-1.43-.35-1.42-.36-1.43-.36-1.43-.36-1.42-.35-1.43-.36-1.43-.36-1.42-.36-1.43-.36-1.43-.35-1.42-.36-1.43-.36-1.43-.36-1.42-.36-1.43-.35-1.43-.36-1.42-.36-1.43-.36-1.43-.35-1.42-.36-1.43-.36-1.42-.36-1.43-.36-1.43-.35-1.42-.36-1.43-.36-1.43-.36-1.42-.35-1.43-.36-1.43-.36-1.42-.36-1.43-.36-1.43-.35-1.42-.36-1.43-.36-1.43-.36-1.42-.36-1.43-.35-1.43-.36-1.42-.36-1.43-.36-1.43-.35-1.42-.36-1.43-.36-1.43-.36-1.42-.36-1.43-.35-1.43-.36-1.42-.36-1.43-.36-1.43-.35-1.42-.36-1.43-.36-1.43-.36-1.42-.36-1.43-.35-1.43-.36-1.42-.36-1.43-.36-1.43-.36-1.42-.35-1.43-.36-1.43-.36-1.42-.36-1.43-.35-1.43-.36-1.42m35.42 141.23-1.71.89-1.71.9-1.72.89-1.71.89-1.71.89-1.72.89-1.71.9-1.71.89-1.72.89-1.71.89-1.71.9-1.72.89-1.71.89-1.71.89-1.72.9-1.71.89-1.71.89-1.72.89-1.71.89-1.71.9-1.72.89-1.71.89-1.71.89-1.72.9-1.71.89-1.71.89-1.72.89-1.71.89-1.71.9-1.71.89-1.72.89-1.71.89-1.71.9-1.72.89-1.71.89-1.71.89-1.72.89-1.71.9-1.71.89-1.72.89-1.71.89-1.71.9-1.72.89-1.71.89-1.71.89-1.72.89-1.71.9-1.71.89-1.72.89-1.71.89-1.71.9-1.72.89-1.71.89-1.71.89-1.72.9-1.71.89-1.71.89-1.72.89-1.71.89-1.71.9-1.72.89-1.71.89-1.71.89-1.72.9-1.71.89-1.71.89-1.71.89-1.72.89-1.71.9-1.71.89-1.72.89-1.71.89-1.71.9-1.72.89-1.71.89-1.71.89-1.72.89-1.71.9-1.71.89-1.72.89-1.71.89-1.71.9-1.72.89-1.71.89-1.71.89-1.72.89-1.71.9-1.71.89-1.72.89-1.71.89-1.71.9-1.72.89-1.71.89-1.71.89-1.72.9-1.71.89-1.71.89-1.72.89-1.71.89" style="stroke-width:1.07;stroke:#000000;stroke-opacity:0.10;stroke-linecap:butt"/><path d="m522.65 327.77 4.84 8.4h-9.69zm-60.97-125.7 1.92 3.32h-3.83zm-224.66-44.32 1.92 3.32h-3.83zM53.35 238.59l1.92 3.31h-3.83zm52.04 156.86 1.91 3.31h-3.83zm211.56 41.73 1.92 3.32h-3.83z" style="stroke-width:0.71;stroke:none;fill:#00BA38"/><circle cx="281.53" cy="298.16" r="6.76" style="stroke-width:0.71;stroke:none;fill:#F8766D"/><path d="M143.74 531.32h7.2v-7.2h-7.2z" style="stroke-width:0.71;stroke:none;fill:#619CFF"/><path d="m517.76 333.86 3.83-.38m-54.56-133.79-4.54 3.9M231.64 164.6l4.57-3.94M58.24 240.99l-3.82-.15m56.35 152.19-4.57 3.93m216.34 37.83-4.76 3.92m-30.63-145.18-4.8 3.95M142.58 530.74l3.86-2.45" style="stroke-width:0.53;stroke:#BFBFBF"/><path d="M459.42 339.42h56.18-.09l.35-.01.34-.07.32-.13.3-.17.27-.22.23-.26.19-.29.13-.32.09-.34.03-.35h0v-6.8h0l-.03-.34-.09-.34-.13-.32-.19-.29-.23-.26-.27-.22-.3-.18-.32-.12-.34-.07-.26-.02h-56.18l.26.02-.35-.01-.34.04-.34.09-.31.15-.29.2-.25.24-.21.28-.16.31-.11.33-.05.34-.01.17v6.8l.01-.17v.35l.05.34.11.33.16.31.21.27.25.24.29.2.31.15.34.1.34.04z" style="stroke-width:0.53;fill:#FFFFFF;fill-opacity:0.50"/><text x="487.51" y="335.82" lengthAdjust="spacingAndGlyphs" style="font-size:5.69px;font-family:&quot;Liberation Sans&quot;" text-anchor="middle" textLength="53.3">ARTHUR FLOWERS</text><path d="M444.33 199.69h60.69-.09l.35-.02.34-.07.33-.12.3-.17.27-.22.23-.26.18-.3.14-.32.08-.34.03-.34h0v-6.8h0l-.03-.35-.08-.33-.14-.32-.18-.3-.23-.26-.27-.22-.3-.17-.33-.12-.34-.07-.26-.02h-60.69l.26.02-.35-.02-.34.04-.34.1-.31.15-.29.2-.25.24-.21.28-.16.3-.11.33-.06.35v6.97-.18.35l.06.34.11.33.16.31.21.28.25.24.29.2.31.15.34.09.34.05z" style="stroke-width:0.53;fill:#FFFFFF;fill-opacity:0.50"/><text x="474.67" y="196.09" lengthAdjust="spacingAndGlyphs" style="font-size:5.69px;font-family:&quot;Liberation Sans&quot;" text-anchor="middle" textLength="57.81">ARTHUR L FLOWERS</text><path d="M192.74 175.71h62.48-.08l.34-.01.35-.07.32-.12.3-.18.27-.22.23-.26.19-.29.13-.32.09-.34.02-.35h0v-6.79h0l-.02-.35-.09-.34-.13-.32-.19-.29-.23-.26-.27-.22-.3-.17-.32-.13-.35-.07-.26-.01h-62.48l.26.01-.35-.01-.35.04-.33.1-.31.15-.29.19-.25.25-.21.27-.16.31-.11.33-.06.34v6.97-.17.35l.06.34.11.33.16.31.21.28.25.24.29.2.31.14.33.1.35.04z" style="stroke-width:0.53;fill:#FFFFFF;fill-opacity:0.50"/><text x="223.98" y="172.11" lengthAdjust="spacingAndGlyphs" style="font-size:5.69px;font-family:&quot;Liberation Sans&quot;" text-anchor="middle" textLength="59.61">ARTHUR FLOWERS III</text><path d="M60.4 246.55h68.18-.09l.35-.01.34-.07.32-.13.3-.17.27-.22.23-.26.19-.29.13-.32.09-.34.03-.35h0v-6.79h0l-.03-.35-.09-.34-.13-.32-.19-.29-.23-.26-.27-.22-.3-.18-.32-.12-.34-.07-.26-.01H60.4l.26.01-.35-.01-.34.04-.34.1-.31.15-.29.19-.25.24-.21.28-.16.31-.11.33-.05.34-.01.18v6.79l.01-.17v.35l.05.34.11.33.16.31.21.28.25.24.29.19.31.15.34.1.34.04z" style="stroke-width:0.53;fill:#FFFFFF;fill-opacity:0.50"/><text x="94.49" y="242.95" lengthAdjust="spacingAndGlyphs" style="font-size:5.69px;font-family:&quot;Liberation Sans&quot;" text-anchor="middle" textLength="65.3">ARTHUR FLOWERS LLC</text><path d="M94.74 393.03h47.42-.08l.34-.02.34-.07.33-.12.3-.18.27-.22.23-.26.18-.29.14-.32.08-.34.03-.34h0v-6.8h0l-.03-.35-.08-.33-.14-.32-.18-.3-.23-.26-.27-.22-.3-.17-.33-.12-.34-.07-.26-.02H94.74l.26.02-.35-.02-.35.04-.33.1-.31.15-.29.2-.25.24-.21.28-.16.3-.11.33-.06.35v6.97-.18.35l.06.34.11.33.16.31.21.28.25.24.29.2.31.15.33.09.35.05z" style="stroke-width:0.53;fill:#FFFFFF;fill-opacity:0.50"/><text x="118.45" y="389.43" lengthAdjust="spacingAndGlyphs" style="font-size:5.69px;font-family:&quot;Liberation Sans&quot;" text-anchor="middle" textLength="44.55">FLA LISBON LLC</text><path d="M297.73 434.79h74.84-.09l.35-.02.34-.07.32-.12.3-.17.27-.22.23-.26.19-.3.14-.32.08-.33.03-.35h0v-14.99h0l-.03-.35-.08-.34-.14-.32-.19-.29-.23-.26-.27-.22-.3-.17-.32-.13-.34-.07-.26-.01h-74.84l.26.01-.34-.01-.35.04-.33.1-.32.15-.28.19-.25.25-.21.27-.16.31-.11.33-.06.34-.01.18v14.99l.01-.17v.34l.06.35.11.33.16.3.21.28.25.24.28.2.32.15.33.1.35.04z" style="stroke-width:0.53;fill:#FFFFFF;fill-opacity:0.50"/><text x="335.15" y="422.99" lengthAdjust="spacingAndGlyphs" style="font-size:5.69px;font-family:&quot;Liberation Sans&quot;" text-anchor="middle" textLength="71.95">D&amp;A INVESTMENT GROUP</text><text x="335.15" y="431.19" lengthAdjust="spacingAndGlyphs" style="font-size:5.69px;font-family:&quot;Liberation Sans&quot;" text-anchor="middle" textLength="10.42">LLC</text><path d="M263.1 293.53h73.24-.08l.34-.02.35-.07.32-.12.3-.17.27-.22.23-.26.19-.3.13-.32.09-.33.02-.35h0v-14.99h0l-.02-.35-.09-.34-.13-.32-.19-.29-.23-.26-.27-.22-.3-.17-.32-.13-.35-.07-.26-.01H263.1l.27.01-.35-.01-.35.04-.33.1-.32.15-.28.19-.25.25-.21.27-.16.31-.11.33-.06.34-.01.18v14.99l.01-.18v.35l.06.35.11.33.16.3.21.28.25.24.28.2.32.15.33.1.35.04z" style="stroke-width:0.53;fill:#FFFFFF;fill-opacity:0.50"/><text x="299.72" y="281.73" lengthAdjust="spacingAndGlyphs" style="font-size:5.69px;font-family:&quot;Liberation Sans&quot;" text-anchor="middle" textLength="70.36">PO BOX 11, MENOMONEE</text><text x="299.72" y="289.93" lengthAdjust="spacingAndGlyphs" style="font-size:5.69px;font-family:&quot;Liberation Sans&quot;" text-anchor="middle" textLength="44.53">FALLS, WI 53052</text><path d="M67.18 542.5h73.24-.09l.35-.02.34-.07.32-.12.31-.17.26-.22.24-.26.18-.3.14-.32.08-.34.03-.34h0v-14.99h0l-.03-.35-.08-.34-.14-.32-.18-.29-.24-.26-.26-.22-.31-.17-.32-.13-.34-.07-.26-.01H67.18l.26.01-.35-.01-.34.04-.34.1-.31.15-.29.19-.25.24-.21.28-.16.31-.11.33-.05.34-.01.18v14.99l.01-.18v.35l.05.34.11.33.16.31.21.28.25.24.29.2.31.15.34.09.34.05z" style="stroke-width:0.53;fill:#FFFFFF;fill-opacity:0.50"/><text x="103.8" y="530.7" lengthAdjust="spacingAndGlyphs" style="font-size:5.69px;font-family:&quot;Liberation Sans&quot;" text-anchor="middle" textLength="70.36">11 PO BOX, MENOMONEE</text><text x="103.8" y="538.9" lengthAdjust="spacingAndGlyphs" style="font-size:5.69px;font-family:&quot;Liberation Sans&quot;" text-anchor="middle" textLength="44.53">FALLS, WI 53052</text></g><g clip-path="url(#cpMC4wMHw1NzYuMDB8MC4wMHw1NzYuMDA=)"><circle cx="192.83" cy="116.5" r="1.95" style="stroke-width:0.71;stroke:none;fill:#F8766D"/><path d="m269.23 113.46 2.63 4.56h-5.26z" style="stroke-width:0.71;stroke:none;fill:#00BA38"/><path d="M335.23 118.45h3.91v-3.91h-3.91z" style="stroke-width:0.71;stroke:none;fill:#619CFF"/><text x="206.95" y="119.66" lengthAdjust="spacingAndGlyphs" style="font-size:8.80px;font-weight:0;font-family:&quot;Nimbus Sans Narrow&quot;" textLength="48.16">mprop address</text><text x="283.35" y="119.66" lengthAdjust="spacingAndGlyphs" style="font-size:8.80px;font-weight:0;font-family:&quot;Nimbus Sans Narrow&quot;" textLength="39.72">owner name</text><text x="351.31" y="119.66" lengthAdjust="spacingAndGlyphs" style="font-size:8.80px;font-weight:0;font-family:&quot;Nimbus Sans Narrow&quot;" textLength="40.5">wdfi address</text><text x="29.89" y="84.79" lengthAdjust="spacingAndGlyphs" style="font-size:12.00px;font-weight:0;font-family:&quot;Nimbus Sans Narrow&quot;" textLength="246.64">includes 7 parcels, 12 units, and 6 distinct owner names.</text><text x="29.89" y="42.81" lengthAdjust="spacingAndGlyphs" style="font-size:18.00px;font-weight:0;font-family:&quot;Nimbus Sans Narrow&quot;" textLength="420.72">ARTHUR FLOWERS -- PO BOX 11, MENOMONEE FALLS, WI</text><text x="29.89" y="62.25" lengthAdjust="spacingAndGlyphs" style="font-size:18.00px;font-weight:0;font-family:&quot;Nimbus Sans Narrow&quot;" textLength="114.81">53052 etc Group</text></g></g></svg>