<svg xmlns="http://www.w3.org/2000/svg" width="768" height="768" class="svglite" viewBox="0 0 576 576"><defs><style><![CDATA[.svglite line,.svglite polyline,.svglite polygon,.svglite path,.svglite circle{fill:none;stroke:#000000;stroke-linecap:round;stroke-linejoin:round;stroke-miterlimit:10.00}.svglite text{white-space:pre}]]></style></defs><rect width="100%" height="100%" style="stroke-linecap:round;stroke-linejoin:round;stroke-miterlimit:10.00;stroke:none;fill:#FFFFFF"/><defs><clipPath id="cpMC4wMHw1NzYuMDB8MC4wMHw1NzYuMDA="><path d="M0 0h576v576H0z"/></clipPath></defs><g clip-path="url(#cpMC4wMHw1NzYuMDB8MC4wMHw1NzYuMDA=)"><path d="M0 0h576v576H0z" style="stroke-width:1.07;stroke:none;fill:#FFFFFF"/></g><defs><clipPath id="cpMzIuNjN8NTQ2LjExfDEyMi4xNHw1NDMuMzc="><path d="M32.63 122.14h513.48v421.24H32.63z"/></clipPath></defs><g clip-path="url(#cpMzIuNjN8NTQ2LjExfDEyMi4xNHw1NDMuMzc=)"><path d="m191.62 250.67-.38-.98-.37-.97-.37-.98-.38-.97-.37-.97-.37-.98-.37-.97-.38-.98-.37-.97-.37-.97-.38-.98-.37-.97-.37-.98-.38-.97-.37-.97-.37-.98-.37-.97-.38-.98-.37-.97-.37-.97-.38-.98-.37-.97-.37-.98-.37-.97-.38-.97-.37-.98-.37-.97-.38-.98-.37-.97-.37-.97-.37-.98-.38-.97-.37-.98-.37-.97-.38-.97-.37-.98-.37-.97-.38-.98-.37-.97-.37-.97-.37-.98-.38-.97-.37-.98-.37-.97-.38-.97-.37-.98-.37-.97-.37-.98-.38-.97-.37-.97-.37-.98-.38-.97-.37-.98-.37-.97-.37-.97-.38-.98-.37-.97-.37-.98-.38-.97-.37-.97-.37-.98-.37-.97-.38-.98-.37-.97-.37-.97-.38-.98-.37-.97-.37-.97-.38-.98-.37-.97-.37-.98-.37-.97-.38-.97-.37-.98-.37-.97-.38-.98-.37-.97-.37-.97-.37-.98-.38-.97-.37-.98-.37-.97-.38-.97-.37-.98-.37-.97-.37-.98-.38-.97-.37-.97-.37-.98-.38-.97-.37-.98-.37-.97-.38-.97-.37-.98-.37-.97-.37-.98-.38-.97-.37-.97-.37-.98m13.21 170.68.05.92.05.92.05.91.05.92.06.92.05.91.06.92.06.91.06.92.06.91.06.92.07.92.06.91.07.92.07.91.07.92.07.91.07.92.07.91.08.92.07.91.08.92.08.91.08.92.08.91.08.92.09.91.08.91.09.92.09.91.09.92.09.91.09.91.09.92.09.91.1.92.1.91.09.91.1.92.11.91.1.91.1.92.11.91.1.91.11.92.11.91.11.91.11.91.11.92.12.91.11.91.12.91.12.92.11.91.13.91.12.91.12.91.12.92.13.91.13.91.13.91.13.91.13.91.13.92.13.91.14.91.13.91.14.91.14.91.14.91.14.91.15.91.14.91.14.91.15.92.15.91.15.91.15.91.15.91.16.91.15.91.16.91.15.91.16.91.16.91.16.91.17.9.16.91.16.91.17.91.17.91.17.91.17.91.17.91.17.91.18.91.17.91.18.9.18.91m12.43-164.59 1.13.92 1.15.93 1.15.92 1.15.91 1.16.91 1.16.91 1.17.9 1.17.9 1.18.89 1.18.88 1.19.88 1.2.88 1.19.87 1.21.86 1.2.87 1.22.85 1.22.85 1.22.85 1.23.84 1.23.84 1.24.83 1.24.83 1.25.82 1.25.82 1.26.81 1.26.8 1.27.81 1.27.79 1.28.8 1.28.79 1.29.78 1.29.78 1.3.77 1.3.77 1.31.76 1.31.76 1.32.75 1.32.75 1.33.74 1.33.74 1.34.74 1.34.73 1.35.72 1.35.72 1.36.71 1.36.71 1.36.71 1.38.7 1.37.69 1.39.69 1.38.69 1.39.68 1.4.67 1.4.67 1.41.67 1.41.66 1.42.65 1.42.65 1.43.65 1.43.64 1.43.63 1.44.64 1.45.62 1.45.62 1.46.62 1.46.61 1.47.61 1.47.6 1.47.6 1.49.59 1.48.58 1.49.59 1.5.57 1.5.58 1.51.56 1.51.57 1.51.55 1.52.56 1.53.54 1.53.55 1.54.53 1.54.54 1.54.53 1.55.52 1.56.52 1.56.51 1.57.51 1.57.5 1.57.5 1.58.5 1.59.49 1.59.48 1.59.48 1.6.47 1.61.47 1.61.47 1.61.46 1.62.45 1.63.45m-136.8-68.28.75-.19.76-.19.75-.18.75-.19.76-.19.75-.19.75-.19.76-.19.75-.19.75-.19.75-.19.75-.19.76-.19.75-.2.75-.19.75-.19.75-.2.75-.19.75-.2.74-.19.75-.2.75-.2.75-.19.75-.2.75-.2.74-.2.75-.2.75-.2.74-.2.75-.2.74-.2.75-.2.75-.21.74-.2.74-.2.75-.21.74-.2.75-.21.74-.2.74-.21.75-.21.74-.2.74-.21.74-.21.74-.21.74-.21.74-.21.75-.21.74-.21.74-.21.73-.21.74-.22.74-.21.74-.21.74-.22.74-.21.74-.22.73-.21.74-.22.74-.22.73-.22.74-.21.74-.22.73-.22.74-.22.73-.22.74-.22.73-.22.74-.22.73-.22.73-.23.74-.22.73-.22.73-.23.73-.22.74-.23.73-.22.73-.23.73-.23.73-.22.73-.23.73-.23.73-.23.73-.23.73-.23.73-.23.73-.23.73-.23.72-.23.73-.24.73-.23.73-.23.72-.24.73-.23.73-.24.72-.23.73-.24.72-.24.73-.23m54.15 196.22-.96.67-.96.66-.96.66-.96.66-.96.67-.95.66-.96.66-.96.66-.96.67-.96.66-.96.66-.96.66-.96.67-.95.66-.96.66-.96.66-.96.67-.96.66-.96.66-.96.66-.95.67-.96.66-.96.66-.96.66-.96.67-.96.66-.96.66-.96.67-.95.66-.96.66-.96.66-.96.67-.96.66-.96.66-.96.66-.95.67-.96.66-.96.66-.96.66-.96.67-.96.66-.96.66-.96.66-.95.67-.96.66-.96.66-.96.66-.96.67-.96.66-.96.66-.95.66-.96.67-.96.66-.96.66-.96.66-.96.67-.96.66-.95.66-.96.66-.96.67-.96.66-.96.66-.96.66-.96.67-.96.66-.95.66-.96.66-.96.67-.96.66-.96.66-.96.66-.96.67-.95.66-.96.66-.96.66-.96.67-.96.66-.96.66-.96.67-.96.66-.95.66-.96.66-.96.67-.96.66-.96.66-.96.66-.96.67-.95.66-.96.66-.96.66-.96.67-.96.66-.96.66-.96.66-.95.67-.96.66-.96.66-.96.66-.96.67m94.91-65.6.01 1.06.03 1.06.04 1.05.05 1.05.07 1.05.07 1.04.09 1.04.09 1.03.11 1.03.12 1.03.13 1.03.15 1.02.15 1.01.16 1.01.18 1.01.19 1.01.2 1 .21 1 .22.99.24.99.24.99.26.98.27.98.28.98.29.97.3.97.31.96.33.97.34.95.34.96.36.95.37.94.39.95.39.94.4.93.42.93.43.93.44.92.45.93.46.91.47.92.49.91.49.9.51.9.52.9.53.9.54.89.56.89.56.88.58.88.59.88.59.87.62.87.62.87.63.86.64.86.66.85.67.85.68.85.69.84.7.84.71.84.73.83.73.83.75.83.76.82.77.82.78.81.79.81.81.81.81.8.83.8.84.8.85.79.86.79.87.78.89.78.89.78.91.77.92.77.93.77.94.76.95.76.97.76.97.75.99.75 1 .74 1.01.74 1.02.74 1.03.73 1.04.73 1.06.73 1.07.72 1.07.72 1.09.71 1.1.72 1.12.7 1.12.71 1.14.7m14.67-279.77-1.28-.04-1.27-.04-1.27-.03-1.27-.04-1.27-.04-1.27-.03-1.27-.04-1.27-.04-1.28-.03-1.27-.04-1.27-.03-1.27-.04-1.27-.04-1.27-.03-1.27-.04-1.27-.04-1.28-.03-1.27-.04-1.27-.04-1.27-.03-1.27-.04-1.27-.04-1.27-.03-1.28-.04-1.27-.04-1.27-.03-1.27-.04-1.27-.03-1.27-.04-1.27-.04-1.27-.03-1.28-.04-1.27-.04-1.27-.03-1.27-.04-1.27-.04-1.27-.03-1.27-.04-1.27-.04-1.28-.03-1.27-.04-1.27-.04-1.27-.03-1.27-.04-1.27-.03-1.27-.04-1.27-.04-1.28-.03-1.27-.04-1.27-.04-1.27-.03-1.27-.04-1.27-.04-1.27-.03-1.27-.04-1.28-.04-1.27-.03-1.27-.04-1.27-.04-1.27-.03-1.27-.04-1.27-.03-1.28-.04-1.27-.04-1.27-.03-1.27-.04-1.27-.04-1.27-.03-1.27-.04-1.27-.04-1.28-.03-1.27-.04-1.27-.04-1.27-.03-1.27-.04-1.27-.04-1.27-.03-1.27-.04-1.28-.03-1.27-.04-1.27-.04-1.27-.03-1.27-.04-1.27-.04-1.27-.03-1.27-.04-1.28-.04-1.27-.03-1.27-.04-1.27-.04-1.27-.03-1.27-.04-1.27-.03-1.27-.04-1.28-.04-1.27-.03-1.27-.04-1.27-.04-1.27-.03m-73.25 20.95-1.36-.21-1.35-.21-1.36-.21-1.35-.21-1.35-.21-1.36-.21-1.35-.21-1.36-.21-1.35-.21-1.35-.21-1.36-.21-1.35-.21-1.36-.2-1.35-.21-1.35-.21-1.36-.21-1.35-.21-1.36-.21-1.35-.21-1.35-.21-1.36-.21-1.35-.21-1.35-.21-1.36-.21-1.35-.21-1.36-.2-1.35-.21-1.35-.21-1.36-.21-1.35-.21-1.36-.21-1.35-.21-1.35-.21-1.36-.21-1.35-.21-1.36-.21-1.35-.21-1.35-.2-1.36-.21-1.35-.21-1.36-.21-1.35-.21-1.35-.21-1.36-.21-1.35-.21-1.36-.21-1.35-.21-1.35-.21-1.36-.21-1.35-.21-1.36-.2-1.35-.21-1.35-.21-1.36-.21-1.35-.21-1.35-.21-1.36-.21-1.35-.21-1.36-.21-1.35-.21-1.35-.21-1.36-.21-1.35-.21-1.36-.2-1.35-.21-1.35-.21-1.36-.21-1.35-.21-1.36-.21-1.35-.21-1.35-.21-1.36-.21-1.35-.21-1.36-.21-1.35-.21-1.35-.2-1.36-.21-1.35-.21-1.36-.21-1.35-.21-1.35-.21-1.36-.21-1.35-.21-1.36-.21-1.35-.21-1.35-.21-1.36-.21-1.35-.21-1.35-.2-1.36-.21-1.35-.21-1.36-.21-1.35-.21-1.35-.21-1.36-.21-1.35-.21-1.36-.21-1.35-.21-1.35-.21m261.44 195.99.32-1.07.32-1.07.31-1.07.31-1.07.31-1.07.3-1.07.3-1.08.29-1.07.28-1.07.28-1.07.28-1.08.27-1.07.27-1.07.26-1.08.26-1.07.26-1.07.25-1.08.24-1.07.24-1.08.23-1.07.24-1.08.22-1.07.22-1.08.22-1.07.21-1.08.21-1.07.2-1.08.2-1.08.19-1.07.19-1.08.18-1.08.18-1.07.18-1.08.17-1.08.16-1.08.16-1.07.16-1.08.15-1.08.14-1.08.15-1.08.13-1.08.13-1.08.13-1.07.13-1.08.11-1.08.12-1.08.11-1.08.1-1.08.1-1.08.09-1.09.1-1.08.08-1.08.08-1.08.08-1.08.07-1.08.07-1.08.06-1.09.06-1.08.05-1.08.05-1.08.04-1.09.04-1.08.03-1.08.03-1.09.03-1.08.02-1.08.02-1.09.01-1.08v-3.26l-.01-1.08-.01-1.09-.02-1.08-.02-1.09-.02-1.09-.04-1.08-.03-1.09-.04-1.08-.05-1.09-.05-1.09-.05-1.09-.06-1.08-.06-1.09-.07-1.09-.08-1.09-.07-1.08-.09-1.09-.08-1.09-.09-1.09-.1-1.09-.1-1.09-.11-1.09-.11-1.09-.11-1.09-.12-1.09-.13-1.09-.13-1.09-.13-1.09" style="stroke-width:1.07;stroke:#000000;stroke-opacity:0.10;stroke-linecap:butt"/><path d="m319.02 425.94.14 1.02.15 1.02.16 1.02.17 1.01.17 1.01.19 1 .19 1.01.21 1 .21.99.22 1 .23.99.24.99.25.99.25.98.27.98.27.98.29.97.29.97.3.97.31.97.32.96.33.96.33.96.35.95.35.96.37.94.37.95.38.94.39.94.4.94.4.94.42.93.43.93.43.92.44.93.46.92.46.91.47.92.47.91.49.91.5.91.5.9.52.9.52.9.53.89.54.89.55.89.56.89.57.88.57.88.59.88.59.87.61.88.61.86.62.87.63.86.64.86.64.86.66.86.66.85.68.85.68.84.69.85.7.84.71.83.72.84.73.83.73.83.75.82.75.83.76.82.77.82.78.81.79.81.8.81.81.81.81.8.83.8.83.8.84.79.86.79.86.79.86.79.88.78.89.78.89.78.91.77.91.78.92.77.94.76.94.76.94.77.96.75.97.76.97.75.99.75.99.74 1 .75 1.02.74m-57.04-87.16.17-1.07.17-1.08.17-1.08.16-1.08.17-1.07.16-1.08.16-1.08.16-1.08.16-1.08.16-1.07.15-1.08.16-1.08.15-1.08.15-1.08.15-1.07.15-1.08.15-1.08.14-1.08.14-1.08.15-1.08.14-1.08.13-1.08.14-1.07.14-1.08.13-1.08.13-1.08.13-1.08.13-1.08.13-1.08.13-1.08.12-1.08.12-1.08.13-1.08.12-1.08.11-1.08.12-1.08.12-1.08.11-1.08.11-1.08.11-1.08.11-1.08.11-1.08.1-1.08.11-1.08.1-1.08.1-1.08.1-1.08.1-1.08.1-1.08.09-1.08.1-1.08.09-1.08.09-1.08.09-1.08.08-1.08.09-1.09.08-1.08.09-1.08.08-1.08.08-1.08.07-1.08.08-1.08.08-1.09.07-1.08.07-1.08.07-1.08.07-1.08.07-1.08.06-1.09.06-1.08.07-1.08.06-1.08.06-1.09.05-1.08.06-1.08.06-1.08.05-1.09.05-1.08.05-1.08.05-1.08.04-1.09.05-1.08.04-1.08.05-1.09.04-1.08.03-1.08.04-1.08.04-1.09.03-1.08.04-1.08.03-1.09.03-1.08.02-1.09.03-1.08.03-1.08.02-1.09.02-1.08.02-1.08.02-1.09" style="stroke-width:1.07;stroke:#000000;stroke-opacity:0.10;stroke-linecap:butt"/><path d="m319.02 425.94.26.98.27.98.28.98.29.97.29.98.3.97.3.96.31.97.32.96.32.97.33.96.33.95.34.96.35.95.36.95.36.95.36.95.38.95.38.94.38.94.39.94.4.94.41.94.41.93.42.93.42.93.43.93.44.92.44.93.45.92.46.92.46.91.47.92.47.91.48.91.49.91.49.91.5.9.51.91.51.9.52.89.53.9.53.9.54.89.54.89.55.89.56.88.56.89.57.88.58.88.58.88.59.88.6.87.6.87.61.87.61.87.62.87.63.86.63.86.64.86.65.86.65.86.66.85.66.85.67.85.68.85.68.84.69.85.7.84.7.84.71.84.72.83.72.84.73.83.73.83.74.82.75.83.76.82.76.82.76.82.77.82.78.81.79.82.79.81.8.81.8.8.81.81.82.8.82.8.83.8.84.8.84.79.85.79.85.8.87.78.86.79.88.78.88.79.89.78m-57.04-87.16-.24.97-.24.96-.23.96-.24.97-.24.96-.24.96-.23.97-.24.96-.24.96-.24.97-.23.96-.24.96-.24.97-.23.96-.24.96-.24.97-.24.96-.23.96-.24.97-.24.96-.24.96-.23.97-.24.96-.24.96-.23.97-.24.96-.24.96-.24.97-.23.96-.24.96-.24.97-.24.96-.23.96-.24.97-.24.96-.23.96-.24.97-.24.96-.24.96-.23.97-.24.96-.24.96-.24.97-.23.96-.24.96-.24.97-.23.96-.24.96-.24.97-.24.96-.23.96-.24.97-.24.96-.24.96-.23.97-.24.96-.24.97-.23.96-.24.96-.24.97-.24.96-.23.96-.24.97-.24.96-.24.96-.23.97-.24.96-.24.96-.23.97-.24.96-.24.96-.24.97-.23.96-.24.96-.24.97-.24.96-.23.96-.24.97-.24.96-.23.96-.24.97-.24.96-.24.96-.23.97-.24.96-.24.96-.24.97-.23.96-.24.96-.24.97-.23.96-.24.96-.24.97-.24.96-.23.96-.24.97-.24.96-.24.96-.23.97" style="stroke-width:1.07;stroke:#000000;stroke-opacity:0.10;stroke-linecap:butt"/><path d="m319.02 425.94.39.94.39.94.4.94.4.94.4.93.41.94.42.93.41.93.42.93.43.93.42.93.44.93.43.92.44.93.44.92.45.92.45.92.46.92.45.92.47.92.46.91.47.92.47.91.48.91.48.92.49.9.49.91.49.91.5.91.5.9.5.91.51.9.51.9.51.9.52.9.53.89.52.9.53.9.54.89.54.89.54.89.54.89.55.89.56.89.55.89.56.88.57.89.57.88.57.88.58.88.58.88.58.88.59.87.59.88.59.87.6.88.6.87.61.87.61.87.62.87.61.86.63.87.62.86.63.87.63.86.64.86.64.86.65.86.64.85.66.86.65.86.66.85.67.85.66.85.68.85.67.85.68.85.68.84.69.85.69.84.69.84.7.85.7.84.71.83.71.84.71.84.72.83.72.84.72.83.73.83.73.83.74.83.74.83.74.82.75.83.75.82.75.83.76.82.77.82M191.62 250.67l.72-.24.73-.24.72-.24.73-.23.72-.24.73-.23.73-.23.72-.24.73-.23.73-.23.73-.24.73-.23.72-.23.73-.23.73-.23.73-.23.73-.23.73-.23.73-.22.73-.23.73-.23.74-.22.73-.23.73-.23.73-.22.73-.22.74-.23.73-.22.73-.22.74-.23.73-.22.74-.22.73-.22.74-.22.73-.22.74-.22.73-.22.74-.21.74-.22.73-.22.74-.21.74-.22.74-.22.73-.21.74-.21.74-.22.74-.21.74-.21.74-.22.74-.21.74-.21.74-.21.74-.21.74-.21.74-.21.74-.21.75-.2.74-.21.74-.21.74-.2.75-.21.74-.21.75-.2.74-.2.74-.21.75-.2.74-.2.75-.21.75-.2.74-.2.75-.2.74-.2.75-.2.75-.2.75-.2.74-.2.75-.19.75-.2.75-.2.75-.19.75-.2.75-.19.75-.2.75-.19.75-.19.75-.2.75-.19.75-.19.75-.19.76-.19.75-.19.75-.19.75-.19.76-.19.75-.19.75-.18.76-.19.75-.19.76-.18m54.15 196.22-1.42-.1-1.41-.11-1.41-.11-1.41-.11-1.41-.11-1.42-.1-1.41-.11-1.41-.11-1.41-.11-1.42-.11-1.41-.1-1.41-.11-1.41-.11-1.42-.11-1.41-.1-1.41-.11-1.41-.11-1.42-.11-1.41-.11-1.41-.1-1.41-.11-1.42-.11-1.41-.11-1.41-.11-1.41-.1-1.42-.11-1.41-.11-1.41-.11-1.41-.11-1.42-.1-1.41-.11-1.41-.11-1.41-.11-1.41-.1-1.42-.11-1.41-.11-1.41-.11-1.41-.11-1.42-.1-1.41-.11-1.41-.11-1.41-.11-1.42-.11-1.41-.1-1.41-.11-1.41-.11-1.42-.11-1.41-.1-1.41-.11-1.41-.11-1.42-.11-1.41-.11-1.41-.1-1.41-.11-1.42-.11-1.41-.11-1.41-.11-1.41-.1-1.41-.11-1.42-.11-1.41-.11-1.41-.11-1.41-.1-1.42-.11-1.41-.11-1.41-.11-1.41-.1-1.42-.11-1.41-.11-1.41-.11-1.41-.11-1.42-.1-1.41-.11-1.41-.11-1.41-.11-1.42-.11-1.41-.1-1.41-.11-1.41-.11-1.42-.11-1.41-.11-1.41-.1-1.41-.11-1.41-.11-1.42-.11-1.41-.1-1.41-.11-1.41-.11-1.42-.11-1.41-.11-1.41-.1-1.41-.11-1.42-.11-1.41-.11-1.41-.11-1.41-.1-1.42-.11-1.41-.11-1.41-.11" style="stroke-width:1.07;stroke:#000000;stroke-opacity:0.10;stroke-linecap:butt"/><path d="m319.02 425.94.51.9.52.9.51.9.52.9.52.9.52.9.52.9.52.9.53.89.52.9.53.9.53.89.53.9.53.89.53.9.53.89.54.89.53.9.54.89.54.89.54.9.54.89.54.89.54.89.55.89.54.89.55.89.55.89.55.89.55.89.55.88.55.89.56.89.56.89.55.88.56.89.56.88.56.89.56.88.57.89.56.88.57.89.56.88.57.88.57.88.57.89.58.88.57.88.58.88.57.88.58.88.58.88.58.88.58.88.58.88.58.87.59.88.59.88.58.88.59.87.59.88.59.87.6.88.59.87.6.88.59.87.6.87.6.88.6.87.6.87.6.87.61.87.6.88.61.87.61.87.61.87.61.87.61.86.61.87.61.87.62.87.62.87.62.86.61.87.62.87.63.86.62.87.62.86.63.87.63.86.62.86.63.87.63.86.64.86.63.86.63.87.64.86.64.86.64.86M167.91 324.92l.18.91.17.91.18.91.17.91.18.91.17.91.17.91.17.9.17.91.16.91.17.91.16.91.16.91.16.91.16.91.16.91.16.91.16.91.15.91.15.91.16.91.15.91.15.91.14.91.15.91.15.91.14.91.14.91.15.91.14.92.13.91.14.91.14.91.13.91.14.91.13.91.13.91.13.92.13.91.13.91.12.91.13.91.12.91.12.92.12.91.12.91.12.91.12.92.11.91.11.91.12.91.11.92.11.91.11.91.1.91.11.92.11.91.1.91.1.92.1.91.1.91.1.92.1.91.09.91.1.92.09.91.09.92.09.91.09.91.09.92.08.91.09.92.08.91.09.92.08.91.08.91.07.92.08.91.08.92.07.91.08.92.07.91.07.92.07.91.07.92.06.91.07.92.06.92.06.91.07.92.06.91.05.92.06.92.06.91.05.92.06.91.05.92.05.92.05.91m-11.28-90.34.98-.96.98-.96.98-.96.97-.96.98-.96.98-.97.98-.96.98-.96.98-.96.98-.96.98-.96.98-.97.98-.96.98-.96.98-.96.98-.96.98-.96.98-.97.98-.96.98-.96.97-.96.98-.96.98-.97.98-.96.98-.96.98-.96.98-.96.98-.96.98-.97.98-.96.98-.96.98-.96.98-.96.98-.96.98-.97.98-.96.98-.96.97-.96.98-.96.98-.96.98-.97.98-.96.98-.96.98-.96.98-.96.98-.96.98-.97.98-.96.98-.96.98-.96.98-.96.98-.96.98-.97.98-.96.97-.96.98-.96.98-.96.98-.96.98-.97.98-.96.98-.96.98-.96.98-.96.98-.96.98-.97.98-.96.98-.96.98-.96.98-.96.98-.96.98-.97.97-.96.98-.96.98-.96.98-.96.98-.96.98-.97.98-.96.98-.96.98-.96.98-.96.98-.96.98-.97.98-.96.98-.96.98-.96.98-.96.98-.97.97-.96.98-.96.98-.96.98-.96.98-.96.98-.97.98-.96.98-.96.98-.96.98-.96.98-.96m125.86 3.61-.88.77-.87.78-.86.78-.86.79-.85.78-.85.79-.84.79-.84.79-.84.79-.82.79-.83.8-.82.79-.81.8-.81.8-.8.81-.8.8-.8.81-.78.8-.79.81-.78.81-.77.82-.77.81-.76.82-.76.82-.76.82-.75.82-.74.82-.74.83-.73.83-.73.83-.72.83-.72.83-.72.84-.71.83-.7.84-.7.84-.69.84-.69.85-.69.84-.68.85-.67.85-.67.85-.66.85-.66.85-.66.86-.65.86-.64.86-.64.86-.64.86-.62.87-.63.86-.62.87-.61.87-.61.87-.61.88-.6.87-.59.88-.59.88-.58.88-.58.88-.58.89-.57.88-.56.89-.56.89-.56.89-.55.9-.54.89-.54.9-.54.9-.53.9-.52.9-.52.91-.51.9-.51.91-.51.91-.5.91-.49.91-.49.92-.49.91-.48.92-.47.92-.47.92-.47.93-.46.92-.45.93-.45.93-.45.93-.44.93-.43.94-.43.93-.43.94-.42.94-.41.94-.41.95-.41.94-.4.95-.39.95-.4.95-.38.95" style="stroke-width:1.07;stroke:#000000;stroke-opacity:0.10;stroke-linecap:butt"/><path d="m390.73 233.33-.76.82-.74.82-.75.82-.74.83-.75.82-.74.83-.73.82-.74.83-.73.83-.73.83-.72.83-.73.83-.72.83-.72.83-.71.84-.72.83-.71.84-.71.83-.71.84-.7.84-.7.84-.7.84-.7.84-.69.84-.69.84-.69.85-.69.84-.68.85-.68.84-.68.85-.68.85-.67.85-.68.85-.66.85-.67.85-.67.85-.66.85-.66.86-.65.85-.66.86-.65.86-.65.85-.65.86-.64.86-.64.86-.64.86-.64.87-.63.86-.63.86-.63.87-.63.86-.62.87-.63.87-.62.87-.61.87-.62.87-.61.87-.61.87-.61.87-.6.88-.6.87-.6.88-.6.87-.59.88-.59.88-.59.88-.59.88-.59.88-.58.88-.58.88-.57.89-.58.88-.57.89-.57.88-.57.89-.56.89-.56.89-.56.89-.56.89-.56.89-.55.89-.55.9-.54.89-.55.9-.54.89-.54.9-.54.9-.53.9-.54.9-.52.9-.53.9-.53.9-.52.9-.52.91-.52.9-.51.91-.51.91-.51.9-.51.91m-136.8-68.28 1.23.83 1.24.83 1.24.83 1.25.82 1.24.82 1.26.82 1.25.82 1.26.81 1.26.81 1.26.81 1.26.8 1.27.81 1.27.79 1.28.8 1.28.79 1.28.79 1.28.79 1.29.78 1.29.78 1.29.78 1.29.78 1.3.77 1.3.77 1.31.76 1.31.77 1.31.76 1.31.75 1.32.76 1.32.75 1.32.75 1.32.74 1.33.75 1.33.74 1.34.73 1.33.74 1.34.73 1.35.73 1.34.72 1.35.72 1.35.72 1.36.72 1.36.71 1.36.71 1.36.71 1.37.7 1.37.7 1.37.7 1.38.7 1.38.69 1.38.69 1.38.69 1.39.68 1.39.68 1.4.68 1.39.68 1.4.67 1.4.67 1.41.66 1.41.67 1.41.66 1.42.66 1.41.65 1.42.65 1.43.65 1.42.65 1.43.64 1.44.64 1.43.63 1.44.64 1.44.63 1.45.63 1.44.62 1.45.63 1.46.61 1.45.62 1.46.61 1.47.61 1.46.61 1.47.61 1.47.6 1.47.6 1.48.59 1.48.6 1.48.59 1.49.58 1.49.59 1.49.58 1.5.58 1.5.57 1.5.57 1.5.57 1.51.57 1.51.56 1.51.56 1.52.56 1.52.56 1.52.55 1.52.55 1.53.54m137.53-3.59-1.39.04-1.39.04-1.39.03-1.38.04-1.39.03-1.39.04-1.39.04-1.39.03-1.39.04-1.39.04-1.39.03-1.39.04-1.39.03-1.39.04-1.39.04-1.39.03-1.38.04-1.39.04-1.39.03-1.39.04-1.39.03-1.39.04-1.39.04-1.39.03-1.39.04-1.39.04-1.39.03-1.39.04-1.38.03-1.39.04-1.39.04-1.39.03-1.39.04-1.39.04-1.39.03-1.39.04-1.39.03-1.39.04-1.39.04-1.39.03-1.39.04-1.38.04-1.39.03-1.39.04-1.39.03-1.39.04-1.39.04-1.39.03-1.39.04-1.39.04-1.39.03-1.39.04-1.39.03-1.39.04-1.38.04-1.39.03-1.39.04-1.39.04-1.39.03-1.39.04-1.39.03-1.39.04-1.39.04-1.39.03-1.39.04-1.39.04-1.39.03-1.38.04-1.39.03-1.39.04-1.39.04-1.39.03-1.39.04-1.39.04-1.39.03-1.39.04-1.39.03-1.39.04-1.39.04-1.39.03-1.38.04-1.39.04-1.39.03-1.39.04-1.39.03-1.39.04-1.39.04-1.39.03-1.39.04-1.39.04-1.39.03-1.39.04-1.38.03-1.39.04-1.39.04-1.39.03-1.39.04-1.39.04-1.39.03m62.31-85.62.28-.93.29-.93.29-.93.28-.93.29-.93.28-.93.29-.93.29-.93.28-.93.29-.93.29-.93.28-.93.29-.93.29-.93.28-.93.29-.93.29-.93.28-.93.29-.93.29-.93.28-.93.29-.93.29-.93.28-.93.29-.93.29-.93.28-.93.29-.93.29-.93.28-.93.29-.93.28-.92.29-.93.29-.93.28-.93.29-.93.29-.93.28-.93.29-.93.29-.93.28-.93.29-.93.29-.93.28-.93.29-.93.29-.93.28-.93.29-.93.29-.93.28-.93.29-.93.29-.93.28-.93.29-.93.29-.93.28-.93.29-.93.28-.93.29-.93.29-.93.28-.93.29-.93.29-.93.28-.93.29-.93.29-.93.28-.92.29-.93.29-.93.28-.93.29-.93.29-.93.28-.93.29-.93.29-.93.28-.93.29-.93.29-.93.28-.93.29-.93.29-.93.28-.93.29-.93.28-.93.29-.93.29-.93.28-.93.29-.93.29-.93.28-.93.29-.93.29-.93.28-.93.29-.93.29-.93.28-.93.29-.93.29-.93.28-.93M319.02 425.94l.02-1.08.02-1.08.02-1.09.02-1.08.03-1.09.02-1.08.03-1.08.03-1.09.03-1.08.03-1.08.04-1.09.03-1.08.04-1.08.04-1.09.04-1.08.04-1.08.05-1.09.04-1.08.05-1.08.05-1.08.05-1.09.05-1.08.05-1.08.06-1.08.05-1.09.06-1.08.06-1.08.06-1.08.06-1.09.07-1.08.06-1.08.07-1.08.07-1.08.07-1.09.07-1.08.07-1.08.08-1.08.07-1.08.08-1.08.08-1.08.08-1.09.08-1.08.09-1.08.08-1.08.09-1.08.09-1.08.09-1.08.09-1.08.09-1.08.1-1.09.1-1.08.09-1.08.1-1.08.1-1.08.11-1.08.1-1.08.11-1.08.11-1.08.1-1.08.11-1.08.12-1.08.11-1.08.12-1.08.11-1.08.12-1.08.12-1.08.12-1.08.13-1.08.12-1.08.13-1.08.12-1.07.13-1.08.13-1.08.14-1.08.13-1.08.14-1.08.13-1.08.14-1.08.14-1.08.14-1.08.15-1.07.14-1.08.15-1.08.14-1.08.15-1.08.16-1.08.15-1.07.15-1.08.16-1.08.15-1.08.16-1.08.16-1.08.17-1.07.16-1.08.16-1.08.17-1.08.17-1.07.17-1.08.17-1.08m-9.4 106.99.64.86.63.86.64.87.63.86.64.86.63.86.63.86.63.87.63.86.62.87.63.86.62.86.63.87.62.87.62.86.62.87.62.86.61.87.62.87.61.87.61.87.62.87.61.86.61.87.6.87.61.88.61.87.6.87.6.87.6.87.6.87.6.88.6.87.6.87.59.88.6.87.59.88.59.87.59.88.59.88.59.87.58.88.59.88.58.87.58.88.58.88.58.88.58.88.58.88.58.88.57.88.58.88.57.88.57.89.57.88.57.88.56.88.57.89.57.88.56.89.56.88.56.89.56.88.56.89.56.88.55.89.56.89.55.89.55.88.55.89.55.89.55.89.55.89.54.89.55.89.54.89.54.89.54.9.54.89.54.89.54.89.53.9.54.89.53.9.53.89.53.89.53.9.53.9.53.89.52.9.53.9.52.89.52.9.52.9.52.9.52.9.52.9.51.9.52.9" style="stroke-width:1.07;stroke:#000000;stroke-opacity:0.10;stroke-linecap:butt"/><path d="m191.62 250.67 1.33.73 1.33.74 1.34.74 1.33.73 1.34.73 1.34.74 1.34.73 1.34.73 1.34.73 1.34.73 1.35.73 1.34.72 1.34.73 1.35.72 1.35.73 1.35.72 1.34.72 1.36.72 1.35.72 1.35.72 1.35.72 1.36.72 1.35.72 1.36.71 1.35.71 1.36.72 1.36.71 1.36.71 1.36.71 1.36.71 1.37.71 1.36.71 1.37.7 1.36.71 1.37.7 1.37.71 1.37.7 1.37.7 1.37.7 1.37.7 1.37.7 1.37.7 1.38.69 1.38.7 1.37.69 1.38.7 1.38.69 1.38.69 1.38.69 1.38.69 1.38.69 1.39.69 1.38.69 1.39.68 1.39.69 1.38.68 1.39.68 1.39.69 1.39.68 1.4.68 1.39.68 1.39.67 1.4.68 1.39.68 1.4.67 1.4.68 1.4.67 1.4.67 1.4.67 1.4.67 1.4.67 1.4.67 1.41.67 1.4.66 1.41.67 1.41.66 1.41.67 1.41.66 1.41.66 1.41.66 1.41.66 1.42.66 1.41.66 1.42.65 1.41.66 1.42.65 1.42.66 1.42.65 1.42.65 1.42.65 1.42.65 1.43.65 1.42.65 1.43.64 1.42.65 1.43.64 1.43.65 1.43.64 1.43.64m62.31-85.62-.63.86-.63.87-.63.86-.63.87-.63.86-.63.87-.63.86-.63.87-.63.86-.63.87-.63.86-.63.86-.63.87-.63.86-.62.87-.63.86-.63.87-.63.86-.63.87-.63.86-.63.87-.63.86-.63.87-.63.86-.63.87-.63.86-.63.87-.63.86-.63.87-.62.86-.63.87-.63.86-.63.87-.63.86-.63.87-.63.86-.63.87-.63.86-.63.87-.63.86-.63.87-.63.86-.63.87-.63.86-.63.87-.62.86-.63.87-.63.86-.63.87-.63.86-.63.87-.63.86-.63.87-.63.86-.63.87-.63.86-.63.87-.63.86-.63.87-.63.86-.62.87-.63.86-.63.86-.63.87-.63.86-.63.87-.63.86-.63.87-.63.86-.63.87-.63.86-.63.87-.63.86-.63.87-.63.86-.63.87-.62.86-.63.87-.63.86-.63.87-.63.86-.63.87-.63.86-.63.87-.63.86-.63.87-.63.86-.63.87-.63.86-.63.87-.63.86-.62.87-.63.86-.63.87-.63.86-.63.87-.63.86-.63.87-.63.86" style="stroke-width:1.07;stroke:#000000;stroke-opacity:0.10;stroke-linecap:butt"/><path d="m191.62 250.67 1.43.64 1.43.64 1.42.64 1.43.65 1.43.64 1.42.65 1.43.65 1.42.65 1.42.65 1.43.65 1.42.65 1.42.65 1.42.65 1.41.66 1.42.65 1.41.66 1.42.66 1.41.66 1.42.66 1.41.66 1.41.66 1.41.66 1.41.66 1.4.67 1.41.66 1.41.67 1.4.67 1.4.67 1.41.66 1.4.67 1.4.68 1.4.67 1.4.67 1.4.68 1.39.67 1.4.68 1.39.67 1.4.68 1.39.68 1.39.68 1.39.68 1.39.68 1.39.69 1.39.68 1.39.68 1.38.69 1.39.69 1.38.69 1.38.68 1.39.69 1.38.69 1.38.7 1.37.69 1.38.69 1.38.7 1.38.69 1.37.7 1.37.7 1.38.7 1.37.7 1.37.7 1.37.7 1.37.7 1.37.7 1.36.71 1.37.7 1.36.71 1.37.71 1.36.71 1.36.7 1.36.71 1.36.72 1.36.71 1.36.71 1.36.72 1.36.71 1.35.72 1.35.71 1.36.72 1.35.72 1.35.72 1.35.72 1.35.73 1.35.72 1.34.72 1.35.73 1.35.72 1.34.73 1.34.73 1.35.73 1.34.73 1.34.73 1.34.73 1.33.73 1.34.74 1.34.73 1.33.74 1.34.73 1.33.74" style="stroke-width:1.07;stroke:#000000;stroke-opacity:0.10;stroke-linecap:butt"/><path d="m191.62 250.67 1.52.54 1.53.55 1.52.55 1.52.56 1.52.55 1.51.56 1.51.57 1.51.56 1.5.57 1.5.58 1.5.57 1.49.58 1.5.58 1.48.58 1.49.59 1.48.59 1.48.59 1.48.6 1.48.6 1.47.6 1.47.6 1.46.61 1.46.61 1.46.62 1.46.61 1.45.62 1.45.62 1.45.63 1.44.63 1.45.63 1.43.63 1.44.64 1.43.64 1.43.64 1.43.65 1.42.65 1.42.65 1.42.65 1.41.66 1.42.66 1.4.66 1.41.67 1.4.67 1.4.67 1.4.68 1.39.67 1.39.68 1.39.69 1.39.69 1.38.68 1.38.7 1.37.69 1.38.7 1.37.7 1.36.71 1.37.71 1.36.71 1.36.71 1.35.71 1.35.72 1.35.73 1.35.72 1.34.73 1.34.73 1.34.73 1.33.74 1.33.74 1.33.74 1.33.75 1.32.75 1.32.75 1.32.75 1.31.76 1.31.76 1.31.76 1.3.77 1.3.77 1.3.77 1.3.78 1.29.77 1.29.78 1.28.79 1.29.78 1.28.79 1.28.8 1.27.79 1.27.8 1.27.8 1.27.81 1.26.8 1.26.81 1.26.82 1.25.81 1.25.82 1.25.82 1.24.83 1.25.83 1.23.83 1.24.83" style="stroke-width:1.07;stroke:#000000;stroke-opacity:0.10;stroke-linecap:butt"/><path d="m191.62 250.67 1.62.45 1.62.45 1.62.46 1.61.46 1.6.47 1.6.48 1.6.48 1.59.48 1.58.49 1.58.49 1.58.5 1.57.51 1.57.51 1.56.51 1.55.52 1.55.52 1.55.53 1.54.53 1.54.54 1.53.54 1.52.55 1.52.55 1.52.56 1.51.56 1.51.57 1.5.57 1.49.58 1.49.58 1.49.59 1.48.59 1.48.6 1.47.6 1.47.61 1.46.61 1.45.61 1.45.62 1.45.63 1.44.63 1.44.64 1.43.64 1.43.64 1.42.66 1.41.65 1.42.66 1.4.67 1.4.67 1.4.67 1.39.68 1.39.69 1.38.69 1.38.69 1.37.7 1.37.7 1.36.71 1.36.72 1.35.72 1.35.72 1.34.73 1.34.73 1.33.74 1.32.75 1.33.75 1.31.75 1.32.76 1.3.76 1.31.77 1.29.77 1.3.78 1.28.78 1.29.79 1.27.79 1.28.8 1.26.8 1.27.81 1.25.81 1.26.82 1.25.82 1.24.83 1.24.83 1.23.84 1.23.84 1.22.84 1.22.85 1.21.86 1.21.86 1.2.87 1.2.87 1.19.87 1.19.89 1.18.88 1.18.89 1.18.9 1.16.9 1.17.9 1.16.91 1.15.92 1.15.92 1.14.92 1.14.93m62.31-85.62-.51.9-.51.91-.51.91-.52.91-.52.9-.52.9-.52.91-.52.9-.53.9-.53.9-.53.9-.54.9-.53.9-.54.9-.55.89-.54.9-.55.89-.55.89-.55.9-.55.89-.56.89-.56.89-.56.89-.57.89-.56.88-.57.89-.58.89-.57.88-.58.88-.58.89-.58.88-.58.88-.59.88-.59.88-.59.88-.6.87-.59.88-.6.88-.6.87-.61.87-.61.88-.61.87-.61.87-.61.87-.62.87-.62.87-.62.87-.62.86-.63.87-.63.86-.63.87-.64.86-.63.86-.64.86-.64.86-.65.86-.65.86-.65.86-.65.86-.65.85-.66.86-.66.85-.66.86-.66.85-.67.85-.67.85-.67.85-.67.85-.68.85-.68.84-.68.85-.69.85-.68.84-.69.84-.69.85-.7.84-.69.84-.7.84-.71.84-.7.84-.71.83-.71.84-.71.84-.71.83-.72.83-.72.84-.72.83-.72.83-.73.83-.73.83-.73.83-.73.82-.74.83-.74.83-.74.82-.74.83-.75.82-.75.82-.75.82m62.31-85.62 1.33-.29 1.33-.28 1.34-.29 1.33-.28 1.33-.29 1.34-.28 1.33-.29 1.34-.28 1.33-.29 1.33-.28 1.34-.29 1.33-.28 1.34-.29 1.33-.28 1.33-.29 1.34-.28 1.33-.29 1.33-.28 1.34-.29 1.33-.29 1.34-.28 1.33-.29 1.33-.28 1.34-.29 1.33-.28 1.33-.29 1.34-.28 1.33-.29 1.34-.28 1.33-.29 1.33-.28 1.34-.29 1.33-.28 1.33-.29 1.34-.28 1.33-.29 1.34-.28 1.33-.29 1.33-.28 1.34-.29 1.33-.28 1.34-.29 1.33-.28 1.33-.29 1.34-.28 1.33-.29 1.33-.28 1.34-.29 1.33-.28 1.34-.29 1.33-.28 1.33-.29 1.34-.28 1.33-.29 1.33-.28 1.34-.29 1.33-.28 1.34-.29 1.33-.28 1.33-.29 1.34-.28 1.33-.29 1.34-.28 1.33-.29 1.33-.28 1.34-.29 1.33-.28 1.33-.29 1.34-.28 1.33-.29 1.34-.28 1.33-.29 1.33-.28 1.34-.29 1.33-.28 1.33-.29 1.34-.28 1.33-.29 1.34-.28 1.33-.29 1.33-.28 1.34-.29 1.33-.28 1.33-.29 1.34-.28 1.33-.29 1.34-.28 1.33-.29 1.33-.28 1.34-.29 1.33-.28 1.34-.29 1.33-.28 1.33-.29 1.34-.28 1.33-.29 1.33-.28 1.34-.29 1.33-.28" style="stroke-width:1.07;stroke:#000000;stroke-opacity:0.10;stroke-linecap:butt"/><path d="m390.73 233.33-.39.95-.39.95-.39.95-.41.94-.4.95-.41.94-.42.94-.42.94-.42.94-.43.94-.44.93-.44.94-.44.93-.45.93-.46.92-.46.93-.46.92-.47.92-.48.92-.48.92-.48.92-.49.91-.5.92-.5.91-.5.91-.51.91-.51.9-.52.91-.53.9-.53.9-.53.9-.54.9-.55.89-.55.89-.55.9-.56.89-.57.88-.57.89-.57.88-.58.89-.58.88-.59.88-.6.87-.6.88-.6.87-.61.88-.62.87-.62.86-.62.87-.63.87-.63.86-.64.86-.65.86-.65.86-.65.85-.66.86-.66.85-.67.85-.68.85-.68.85-.68.84-.69.85-.69.84-.7.84-.71.84-.71.83-.71.84-.72.83-.72.83-.73.83-.74.83-.74.82-.74.83-.75.82-.75.82-.76.82-.76.81-.77.82-.78.81-.78.81-.78.81-.79.81-.79.81-.8.8-.81.8-.8.8-.82.8-.82.8-.82.8-.83.79-.83.79-.84.79-.84.79-.85.79-.86.78-.85.78-.87.78-.87.78-.87.78M55.97 463.45l1.24-.49 1.25-.49 1.24-.48 1.25-.49 1.24-.49 1.25-.48 1.24-.49 1.25-.49 1.24-.48 1.24-.49 1.25-.49 1.24-.48 1.25-.49 1.24-.49 1.25-.48 1.24-.49 1.25-.49 1.24-.48 1.25-.49 1.24-.49 1.25-.48 1.24-.49 1.24-.49 1.25-.49 1.24-.48 1.25-.49 1.24-.49 1.25-.48 1.24-.49 1.25-.49 1.24-.48 1.25-.49 1.24-.49 1.25-.48 1.24-.49 1.25-.49 1.24-.48 1.24-.49 1.25-.49 1.24-.48 1.25-.49 1.24-.49 1.25-.48 1.24-.49 1.25-.49 1.24-.48 1.25-.49 1.24-.49 1.25-.48 1.24-.49 1.25-.49 1.24-.48 1.24-.49 1.25-.49 1.24-.48 1.25-.49 1.24-.49 1.25-.48 1.24-.49 1.25-.49 1.24-.48 1.25-.49 1.24-.49 1.25-.48 1.24-.49 1.25-.49 1.24-.48 1.24-.49 1.25-.49 1.24-.48 1.25-.49 1.24-.49 1.25-.48 1.24-.49 1.25-.49 1.24-.48 1.25-.49 1.24-.49 1.25-.48 1.24-.49 1.25-.49 1.24-.48 1.24-.49 1.25-.49 1.24-.48 1.25-.49 1.24-.49 1.25-.48 1.24-.49 1.25-.49 1.24-.48 1.25-.49 1.24-.49 1.25-.48 1.24-.49 1.25-.49 1.24-.48 1.24-.49 1.25-.49m139.83 10.68 1.21.56 1.22.55 1.21.55 1.22.55 1.22.55 1.22.54 1.22.55 1.22.55 1.22.54 1.22.54 1.23.55 1.22.54 1.22.54 1.23.54 1.22.54 1.23.54 1.23.54 1.22.54 1.23.53 1.23.54 1.23.53 1.23.54 1.23.53 1.24.53 1.23.53 1.23.53 1.24.53 1.23.53 1.24.52 1.23.53 1.24.53 1.24.52 1.24.52 1.24.53 1.24.52 1.24.52 1.24.52 1.24.52 1.24.52 1.25.52 1.24.51 1.25.52 1.24.51 1.25.52 1.25.51 1.25.51 1.25.51 1.25.51 1.25.51 1.25.51 1.25.51 1.25.51 1.25.5 1.26.51 1.25.5 1.26.51 1.26.5 1.25.5 1.26.5 1.26.5 1.26.5 1.26.5 1.26.49 1.26.5 1.26.5 1.26.49 1.27.49 1.26.5 1.27.49 1.26.49 1.27.49 1.27.49 1.27.49 1.26.48 1.27.49 1.27.49 1.27.48 1.28.49 1.27.48 1.27.48 1.28.48 1.27.48 1.28.48 1.27.48 1.28.48 1.28.47 1.27.48 1.28.47 1.28.48 1.28.47 1.28.47 1.29.48 1.28.47 1.28.47 1.29.46 1.28.47 1.29.47 1.28.47 1.29.46m-123.86-50.36.76.82.76.83.75.82.75.82.75.83.74.82.74.83.74.83.73.83.73.83.73.83.72.84.71.83.72.84.71.84.7.84.7.84.7.84.69.84.69.84.69.85.68.84.68.85.68.85.67.85.67.85.66.85.66.86.66.85.65.86.65.85.64.86.64.86.64.86.63.86.63.87.63.86.62.87.62.86.61.87.61.87.61.87.6.87.6.88.59.87.6.88.58.87.59.88.58.88.57.88.58.88.56.88.57.89.56.88.56.89.55.89.55.89.54.89.55.89.54.89.53.89.53.9.53.9.52.89.52.9.51.9.52.9.5.91.51.9.5.9.49.91.5.91.48.91.49.91.48.91.48.91.47.91.47.92.47.91.46.92.46.92.45.92.45.92.45.92.44.92.44.93.44.92.43.93.43.93.42.93.42.93.42.93.41.93.41.94.4.93.4.94.4.94.4.94.39.94" style="stroke-width:1.07;stroke:#000000;stroke-opacity:0.10;stroke-linecap:butt"/><path d="m319.02 425.94 1.28.47 1.29.47 1.29.46 1.28.47 1.28.47 1.29.47 1.28.47 1.28.47 1.28.47 1.28.48 1.28.47 1.28.47 1.28.48 1.28.48 1.28.48 1.27.47 1.28.48 1.27.48 1.28.48 1.27.49 1.27.48 1.27.48 1.27.49 1.27.48 1.27.49 1.27.49 1.27.49 1.27.49 1.26.49 1.27.49 1.26.49 1.27.49 1.26.49 1.27.5 1.26.49 1.26.5 1.26.5 1.26.5 1.26.49 1.26.5 1.25.5 1.26.51 1.26.5 1.25.5 1.26.51 1.25.5 1.26.51 1.25.5 1.25.51 1.25.51 1.25.51 1.25.51 1.25.51 1.25.51 1.25.52 1.24.51 1.25.52 1.24.51 1.25.52 1.24.52 1.25.51 1.24.52 1.24.52 1.24.53 1.24.52 1.24.52 1.24.52 1.24.53 1.23.52 1.24.53 1.24.53 1.23.53 1.24.52 1.23.53 1.23.54 1.23.53 1.24.53 1.23.53 1.23.54 1.23.53 1.22.54 1.23.54 1.23.53 1.22.54 1.23.54 1.22.54 1.23.54 1.22.55 1.22.54 1.23.54 1.22.55 1.22.54 1.22.55 1.22.55 1.22.55 1.21.55 1.22.55 1.22.55 1.21.55m-123.86-50.36.88.78.88.79.88.78.87.79.86.79.85.79.85.79.84.79.84.8.83.8.82.8.82.8.81.81.8.8.8.81.79.81.79.82.78.81.77.82.77.82.76.82.75.82.75.83.74.82.73.83.73.84.72.83.72.83.71.84.7.84.7.84.69.85.68.84.68.85.67.85.67.85.65.86.66.85.64.86.64.86.64.86.62.86.62.87.62.87.6.87.61.87.59.88.59.87.58.88.58.88.57.88.56.89.56.88.55.89.54.89.54.9.53.89.53.9.52.9.51.9.51.9.5.9.49.91.49.91.48.91.47.91.47.92.47.92.45.91.45.93.44.92.44.92.43.93.42.93.42.93.41.94.41.93.4.94.39.94.39.94.38.94.37.95.37.95.36.95.35.95.35.95.34.96.34.96.32.96.33.96.31.96.31.97.31.97.29.97.29.97.29.97.28.98.27.98.27.98m-57.04-87.16 1.33-.03 1.34-.04 1.33-.03 1.34-.04 1.34-.03 1.33-.04 1.34-.03 1.33-.03 1.34-.04 1.34-.03 1.33-.04 1.34-.03 1.33-.04 1.34-.03 1.34-.04 1.33-.03 1.34-.04 1.33-.03 1.34-.04 1.34-.03 1.33-.04 1.34-.03 1.33-.04 1.34-.03 1.34-.04 1.33-.03 1.34-.04 1.33-.03 1.34-.04 1.34-.03 1.33-.04 1.34-.03 1.33-.03 1.34-.04 1.34-.03 1.33-.04 1.34-.03 1.33-.04 1.34-.03 1.34-.04 1.33-.03 1.34-.04 1.33-.03 1.34-.04 1.34-.03 1.33-.04 1.34-.03 1.33-.04 1.34-.03 1.34-.04 1.33-.03 1.34-.04 1.33-.03 1.34-.04 1.34-.03 1.33-.04 1.34-.03 1.33-.04 1.34-.03 1.34-.03 1.33-.04 1.34-.03 1.33-.04 1.34-.03 1.33-.04 1.34-.03 1.34-.04 1.33-.03 1.34-.04 1.33-.03 1.34-.04 1.34-.03 1.33-.04 1.34-.03 1.33-.04 1.34-.03 1.34-.04 1.33-.03 1.34-.04 1.33-.03 1.34-.04 1.34-.03 1.33-.04 1.34-.03 1.33-.04 1.34-.03 1.34-.03 1.33-.04 1.34-.03 1.33-.04 1.34-.03 1.34-.04 1.33-.03 1.34-.04 1.33-.03 1.34-.04 1.34-.03 1.33-.04 1.34-.03" style="stroke-width:1.07;stroke:#000000;stroke-opacity:0.10;stroke-linecap:butt"/><path d="m319.02 425.94 1.01.74 1 .75.99.74.99.75.97.75.97.76.96.76.95.76.94.76.93.77.92.76.91.78.91.77.89.78.89.78.88.78.87.79.86.79.85.79.84.79.83.8.83.8.81.8.81.81.8.81.79.81.78.82.77.81.76.82.76.83.74.82.74.83.72.83.72.84.71.84.7.84.69.84.68.84.68.85.66.86.66.85.65.86.63.86.63.86.62.87.62.87.6.87.59.87.59.88.57.88.57.88.56.89.55.89.54.89.53.89.52.9.52.9.5.91.5.9.49.91.48.91.47.92.46.91.45.92.44.93.44.92.42.93.42.93.4.94.4.94.39.94.38.94.38.95.36.95.35.95.35.95.34.96.32.96.32.96.31.97.3.97.3.97.28.97.27.98.27.98.26.99.24.98.24.99.23.99.22 1 .22.99.2 1 .19 1.01.19 1 .18 1.01.16 1.01.16 1.02.15 1.02.15 1.02m-57.04-87.16-.14-1.09-.13-1.09-.12-1.09-.12-1.09-.12-1.09-.11-1.09-.1-1.09-.1-1.09-.1-1.08-.09-1.09-.09-1.09-.08-1.09-.08-1.09-.07-1.09-.07-1.08-.06-1.09-.06-1.09-.06-1.09-.05-1.08-.04-1.09-.04-1.09-.04-1.08-.03-1.09-.03-1.09-.02-1.08-.01-1.09-.02-1.08v-1.09l-.01-1.08v-1.09l.01-1.08.01-1.09.02-1.08.02-1.08.02-1.09.03-1.08.04-1.08.04-1.09.04-1.08.05-1.08.05-1.09.06-1.08.06-1.08.07-1.08.07-1.08.07-1.09.09-1.08.08-1.08.09-1.08.1-1.08.1-1.08.1-1.08.11-1.08.11-1.08.12-1.08.12-1.08.13-1.08.13-1.08.14-1.08.14-1.08.15-1.07.15-1.08.16-1.08.16-1.08.16-1.08.17-1.07.18-1.08.17-1.08.19-1.08.19-1.07.19-1.08.2-1.08.2-1.07.21-1.08.21-1.07.21-1.08.23-1.07.22-1.08.23-1.07.24-1.08.24-1.07.24-1.08.25-1.07.25-1.07.26-1.08.27-1.07.26-1.08.28-1.07.27-1.07.28-1.07.29-1.08.29-1.07.3-1.07.3-1.07.3-1.07.31-1.08.32-1.07.32-1.07.32-1.07" style="stroke-width:1.07;stroke:#000000;stroke-opacity:0.10;stroke-linecap:butt"/><path d="m319.02 425.94 1.13.7 1.13.71 1.11.71 1.1.71 1.09.71 1.08.72 1.06.72 1.06.73 1.04.73 1.04.73 1.02.74 1.01.74.99.74.99.75.98.75.96.76.95.76.94.76.93.77.92.77.91.77.9.78.88.78.87.79.86.78.85.8.84.79.83.8.82.8.8.81.79.81.78.82.77.81.76.83.75.82.74.83.72.83.71.84.7.84.7.84.67.85.67.85.66.85.64.86.64.86.62.87.61.87.6.87.58.88.58.88.56.88.56.89.54.89.53.9.52.9.51.9.49.91.49.9.47.92.46.92.45.92.44.92.43.93.42.93.4.94.4.94.38.94.37.94.36.95.35.96.33.96.33.96.31.96.3.97.3.97.28.98.26.98.26.98.25.99.23.99.22.99.21 1 .2 1 .19 1.01.18 1.01.16 1.01.16 1.02.14 1.02.13 1.02.12 1.03.11 1.03.1 1.03.08 1.04.08 1.04.06 1.05.05 1.05.04 1.05.03 1.06.02 1.06m0 0-.87-.17-.87-.17-.86-.16-.86-.16-.86-.15-.87-.14-.86-.14-.85-.14-.86-.13-.86-.12-.85-.12-.86-.11-.85-.11-.85-.11-.85-.1-.85-.09-.85-.09-.85-.08-.85-.08-.84-.07-.85-.07-.84-.06-.84-.06-.85-.05-.84-.05-.83-.04-.84-.03-.84-.03-.84-.03-.83-.02-.83-.02-.84-.01h-2.49l-.83.01-.83.02-.82.02-.83.03-.82.03-.82.03-.83.04-.82.05-.82.05-.82.06-.81.06-.82.07-.82.07-.81.08-.81.08-.82.09-.81.1-.81.09-.81.11-.8.11-.81.11-.81.12-.8.12-.81.13-.8.14-.8.14-.8.14-.8.16-.8.15-.8.16-.79.17-.8.17-.79.18-.79.18-.8.18-.79.2-.79.19-.78.2-.79.21-.79.22-.78.21-.79.23-.78.22-.78.24-.79.24-.78.24-.77.25-.78.25-.78.26-.77.27-.78.27-.77.27-.78.28-.77.29-.77.29-.77.29-.77.3-.76.31-.77.31-.76.32-.77.32-.76.33-.76.33-.76.34" style="stroke-width:1.07;stroke:#000000;stroke-opacity:0.10;stroke-linecap:butt"/><path d="m376.06 513.1-.86-.12-.85-.11-.86-.1-.85-.11-.85-.1-.85-.09-.85-.09-.85-.09-.84-.08-.85-.08-.85-.07-.84-.07-.85-.07-.84-.06-.84-.06-.85-.05-.84-.05-.84-.05-.84-.04-.83-.04-.84-.03-.84-.03-.83-.03-.84-.02-.83-.02-.84-.01-.83-.01-.83-.01h-1.66l-.83.01-.83.01-.83.01-.83.02-.82.02-.83.03-.82.03-.82.04-.83.03-.82.05-.82.04-.82.05-.82.06-.82.06-.82.06-.81.07-.82.07-.81.07-.82.08-.81.09-.81.08-.81.09-.82.1-.81.1-.8.1-.81.11-.81.11-.81.12-.8.11-.81.13-.8.13-.81.13-.8.13-.8.14-.8.15-.8.14-.8.15-.8.16-.8.16-.79.16-.8.17-.79.17-.8.18-.79.18-.79.18-.8.19-.79.19-.79.2-.79.2-.78.2-.79.21-.79.21-.78.22-.79.22-.78.22-.79.23-.78.23-.78.24-.78.24-.78.24-.78.25-.78.26-.78.25-.77.26-.78.27-.77.27-.78.27-.77.28-.77.28" style="stroke-width:1.07;stroke:#000000;stroke-opacity:0.10;stroke-linecap:butt"/><path d="m376.06 513.1-.85-.06-.84-.06-.84-.05-.84-.05-.84-.04-.84-.05-.84-.04-.84-.04-.84-.03-.83-.03-.84-.03-.84-.03-.83-.02-.84-.03-.83-.01-.84-.02-.83-.01-.83-.01-.83-.01h-2.5l-.83.01-.82.01-.83.01-.83.01-.83.02-.82.02-.83.02-.83.03-.82.02-.82.03-.83.04-.82.04-.82.04-.83.04-.82.04-.82.05-.82.05-.82.06-.82.05-.81.06-.82.07-.82.06-.81.07-.82.07-.82.08-.81.07-.81.08-.82.09-.81.08-.81.09-.81.09-.82.1-.81.1-.81.1-.8.1-.81.11-.81.1-.81.12-.81.11-.8.12-.81.12-.8.12-.81.13-.8.13-.8.13-.81.14-.8.13-.8.14-.8.15-.8.14-.8.15-.8.15-.8.16-.8.16-.79.16-.8.16-.8.17-.79.17-.8.17-.79.18-.79.17-.8.19-.79.18-.79.19-.79.19-.79.19-.79.19-.79.2-.79.2-.79.21-.79.2-.79.21-.78.22-.79.21-.78.22-.79.22-.78.23" style="stroke-width:1.07;stroke:#000000;stroke-opacity:0.10;stroke-linecap:butt"/><path d="M376.06 513.1h-3.33l-.83.01h-.83l-.82.01-.83.01-.83.01-.83.02-.83.01-.82.02-.83.02-.83.02-.82.02-.83.03-.82.02-.83.03-.82.03-.83.03-.82.03-.82.04-.83.04-.82.03-.82.04-.82.04-.83.05-.82.04-.82.05-.82.05-.82.05-.82.05-.82.05-.82.06-.82.06-.81.06-.82.06-.82.06-.82.06-.81.07-.82.07-.82.06-.81.08-.82.07-.81.07-.82.08-.81.08-.82.08-.81.08-.81.08-.82.08-.81.09-.81.09-.81.09-.82.09-.81.09-.81.1-.81.1-.81.1-.81.1-.81.1-.81.1-.81.11-.8.1-.81.11-.81.11-.81.12-.8.11-.81.12-.81.11-.8.12-.81.12-.8.13-.81.12-.8.13-.81.13-.8.13-.8.13-.81.13-.8.13-.8.14-.8.14-.81.14-.8.14-.8.14-.8.15-.8.15-.8.15-.8.15-.8.15-.8.15-.79.16-.8.16-.8.15-.8.17-.79.16-.8.16-.8.17-.79.17" style="stroke-width:1.07;stroke:#000000;stroke-opacity:0.10;stroke-linecap:butt"/><path d="m376.06 513.1-.82.05-.82.06-.82.05-.82.06-.82.06-.82.05-.82.06-.82.06-.81.06-.82.06-.82.06-.82.06-.82.06-.81.07-.82.06-.82.06-.82.07-.81.06-.82.07-.82.06-.81.07-.82.07-.82.06-.81.07-.82.07-.82.07-.81.07-.82.07-.82.07-.81.07-.82.07-.81.08-.82.07-.81.07-.82.08-.81.07-.82.08-.81.07-.82.08-.81.08-.82.08-.81.07-.82.08-.81.08-.81.08-.82.08-.81.08-.81.09-.82.08-.81.08-.82.09-.81.08-.81.08-.81.09-.82.09-.81.08-.81.09-.81.09-.82.09-.81.08-.81.09-.81.09-.82.09-.81.09-.81.1-.81.09-.81.09-.81.1-.81.09-.81.09-.82.1-.81.09-.81.1-.81.1-.81.09-.81.1-.81.1-.81.1-.81.1-.81.1-.81.1-.81.1-.81.11-.81.1-.81.1-.81.1-.8.11-.81.1-.81.11-.81.11-.81.1-.81.11-.81.11-.8.11-.81.1-.81.11-.81.11-.8.11-.81.12m80.53-8.22-.81.11-.81.11-.81.11-.81.11-.8.11-.81.11-.81.1-.81.11-.81.11-.81.1-.8.11-.81.1-.81.11-.81.1-.81.11-.81.1-.81.1-.81.1-.81.1-.81.1-.81.1-.81.1-.81.1-.81.1-.81.1-.81.09-.81.1-.81.09-.81.1-.81.09-.81.1-.82.09-.81.09-.81.1-.81.09-.81.09-.81.09-.82.09-.81.09-.81.09-.81.09-.82.08-.81.09-.81.09-.81.08-.82.09-.81.08-.81.09-.82.08-.81.08-.81.09-.82.08-.81.08-.81.08-.82.08-.81.08-.82.08-.81.08-.82.08-.81.07-.81.08-.82.08-.81.07-.82.08-.81.07-.82.07-.82.08-.81.07-.82.07-.81.07-.82.07-.81.07-.82.07-.82.07-.81.07-.82.07-.82.07-.81.06-.82.07-.82.07-.81.06-.82.07-.82.06-.82.06-.81.07-.82.06-.82.06-.82.06-.82.06-.81.06-.82.06-.82.06-.82.06-.82.06-.82.05-.82.06-.81.06-.82.05-.82.06" style="stroke-width:1.07;stroke:#000000;stroke-opacity:0.10;stroke-linecap:butt"/><path d="m376.06 513.1-.8.17-.8.16-.79.17-.8.16-.8.16-.8.16-.79.16-.8.15-.8.15-.8.16-.8.15-.8.15-.8.14-.8.15-.8.14-.8.14-.8.14-.8.14-.81.14-.8.13-.8.14-.81.13-.8.13-.8.13-.81.12-.8.13-.81.12-.8.12-.81.12-.81.12-.8.11-.81.12-.81.11-.8.11-.81.11-.81.11-.81.1-.81.11-.81.1-.81.1-.81.1-.81.09-.81.1-.81.09-.81.09-.81.09-.82.09-.81.09-.81.08-.82.09-.81.08-.81.08-.82.07-.81.08-.82.08-.81.07-.82.07-.82.07-.81.07-.82.06-.82.07-.81.06-.82.06-.82.06-.82.05-.82.06-.82.05-.82.05-.82.06-.82.04-.82.05-.82.05-.82.04-.83.04-.82.04-.82.04-.82.03-.83.04-.82.03-.83.03-.82.03-.82.03-.83.03-.83.02-.82.02-.83.02-.82.02-.83.02-.83.02-.83.01-.82.01-.83.01-.83.01-.83.01h-.83l-.83.01h-2.49" style="stroke-width:1.07;stroke:#000000;stroke-opacity:0.10;stroke-linecap:butt"/><path d="m376.06 513.1-.79.22-.78.22-.79.22-.78.22-.79.21-.79.21-.79.21-.78.2-.79.2-.79.2-.79.2-.79.19-.8.19-.79.18-.79.19-.79.18-.8.18-.79.17-.8.17-.79.17-.8.17-.79.16-.8.17-.8.15-.8.16-.8.15-.8.15-.8.15-.8.14-.8.14-.8.14-.8.13-.81.14-.8.12-.8.13-.81.12-.81.12-.8.12-.81.12-.81.11-.8.11-.81.1-.81.11-.81.1-.81.09-.81.1-.81.09-.82.09-.81.09-.81.08-.82.08-.81.08-.82.07-.81.07-.82.07-.82.07-.81.06-.82.06-.82.06-.82.05-.82.05-.82.05-.82.05-.82.04-.83.04-.82.03-.82.04-.83.03-.82.03-.83.02-.82.03-.83.02-.83.01-.82.02-.83.01-.83.01h-3.32l-.84-.01-.83-.01-.83-.01-.83-.01-.84-.02-.83-.02-.84-.03-.84-.02-.83-.03-.84-.03-.84-.04-.84-.04-.84-.04-.84-.04-.84-.05-.84-.05-.84-.05-.84-.06-.84-.05" style="stroke-width:1.07;stroke:#000000;stroke-opacity:0.10;stroke-linecap:butt"/><path d="m376.06 513.1-.78.28-.77.27-.77.28-.78.27-.78.26-.77.26-.78.26-.78.25-.78.25-.78.24-.78.24-.78.24-.78.23-.78.23-.79.22-.78.22-.79.22-.79.21-.78.21-.79.2-.79.2-.79.2-.79.19-.79.19-.8.18-.79.18-.79.18-.8.17-.79.17-.8.16-.8.16-.8.16-.8.15-.8.15-.8.14-.8.14-.8.14-.8.13-.81.13-.8.12-.81.12-.81.11-.8.11-.81.11-.81.1-.81.1-.81.1-.81.09-.82.09-.81.08-.81.08-.82.07-.82.08-.81.06-.82.06-.82.06-.82.06-.82.05-.82.05-.82.04-.82.04-.83.03-.82.03-.83.03-.82.02-.83.02-.83.01-.82.01-.83.01h-2.5l-.83-.01-.83-.02-.84-.02-.83-.02-.84-.02-.84-.03-.83-.04-.84-.04-.84-.04-.84-.04-.84-.05-.84-.06-.85-.06-.84-.06-.84-.06-.85-.07-.85-.08-.84-.08-.85-.08-.85-.09-.85-.09-.85-.09-.85-.1-.85-.1-.85-.11-.86-.11-.85-.11" style="stroke-width:1.07;stroke:#000000;stroke-opacity:0.10;stroke-linecap:butt"/><path d="m376.06 513.1-.77.33-.76.34-.76.32-.76.32-.77.32-.77.31-.76.31-.77.3-.77.3-.77.29-.77.28-.77.28-.78.28-.77.27-.78.26-.78.26-.77.25-.78.25-.78.25-.78.24-.79.23-.78.23-.78.22-.79.22-.78.21-.79.21-.79.2-.79.2-.79.19-.79.19-.8.18-.79.17-.8.18-.79.16-.8.16-.8.16-.8.15-.8.14-.8.14-.8.14-.81.13-.8.12-.81.12-.8.12-.81.11-.81.1-.81.1-.81.09-.81.09-.82.08-.81.08-.82.07-.81.07-.82.06-.82.06-.82.05-.82.05-.82.04-.83.04-.82.03-.83.02-.82.02-.83.02-.83.01-.83.01h-.83l-.83-.01-.83-.01-.84-.02-.83-.02-.84-.02-.83-.03-.84-.04-.84-.04-.84-.05-.84-.05-.85-.06-.84-.06-.84-.07-.85-.07-.85-.08-.84-.08-.85-.09-.85-.09-.85-.1-.86-.1-.85-.11-.85-.12-.86-.12-.86-.12-.85-.13-.86-.13-.86-.14-.86-.15-.86-.15-.87-.16-.86-.16-.87-.16-.86-.17" style="stroke-width:1.07;stroke:#000000;stroke-opacity:0.10;stroke-linecap:butt"/><path d="m191.62 242.03 7.48 12.95h-14.96zm-23.71 77.65 4.54 7.86h-9.08zm151.11 97.63 7.48 12.95h-14.96zm71.71-191.86 6.82 11.82H383.9zm75.22 87.7 1.92 3.32h-3.83zM55.97 461.24l1.91 3.31h-3.83z" style="stroke-width:0.71;stroke:none;fill:#00BA38"/><path d="M370.5 518.65h11.11v-11.11H370.5z" style="stroke-width:0.71;stroke:none;fill:#619CFF"/><circle cx="154.7" cy="154.24" r="1.42" style="stroke-width:0.71;stroke:none;fill:#F8766D"/><circle cx="179.19" cy="415.26" r="3.81" style="stroke-width:0.71;stroke:none;fill:#F8766D"/><circle cx="328.42" cy="318.95" r="6.76" style="stroke-width:0.71;stroke:none;fill:#F8766D"/><circle cx="264.87" cy="229.72" r="3.81" style="stroke-width:0.71;stroke:none;fill:#F8766D"/><circle cx="224.11" cy="491.54" r="1.42" style="stroke-width:0.71;stroke:none;fill:#F8766D"/><circle cx="57.58" cy="229.95" r="1.42" style="stroke-width:0.71;stroke:none;fill:#F8766D"/><circle cx="295.53" cy="521.32" r="1.42" style="stroke-width:0.71;stroke:none;fill:#F8766D"/><circle cx="419.09" cy="141.28" r="1.42" style="stroke-width:0.71;stroke:none;fill:#F8766D"/><circle cx="522.77" cy="205.11" r="1.42" style="stroke-width:0.71;stroke:none;fill:#F8766D"/><circle cx="442.88" cy="476.3" r="2.8" style="stroke-width:0.71;stroke:none;fill:#F8766D"/><circle cx="451.28" cy="422.5" r="1.42" style="stroke-width:0.71;stroke:none;fill:#F8766D"/><path d="m186.39 255.37 4.37-3.93m-17.51 68.88-4.46 3.85m144.86 106.4 4.49-3.87M385.53 238l4.34-3.9m81.45 76.63-4.49 3.88m-81.89 190.22-8.04 7.48M149.19 158.9l4.62-3.91m19.9 264.91 4.59-3.89M333.92 314.3l-4.61 3.9m-58.97-93.11-4.58 3.88m-47.09 257.97 4.55 3.84m76.73 33.38-3.42-2.2m117.09-376.05 4.58-3.87m99.69 63.14 3.61-.06m-75.72 222.03 4.61-3.9" style="stroke-width:0.53;stroke:#BFBFBF"/><path d="M148.55 266.72h60.93-.09l.35-.02.34-.07.33-.12.3-.17.27-.22.23-.26.18-.3.14-.32.08-.33.03-.35h0v-7.03h0l-.03-.34-.08-.34-.14-.32-.18-.29-.23-.26-.27-.22-.3-.18-.33-.12-.34-.07-.26-.02h-60.93l.26.02-.34-.02-.35.05-.33.09-.32.15-.28.2-.25.24-.21.28-.16.31-.11.33-.06.34-.01.17v7.03l.01-.17v.34l.06.35.11.33.16.3.21.28.25.24.28.2.32.15.33.1.35.04z" style="stroke-width:0.53;fill:#FFFFFF;fill-opacity:0.50"/><text x="179.02" y="263.12" lengthAdjust="spacingAndGlyphs" style="font-size:5.69px;font-family:&quot;Liberation Sans&quot;" text-anchor="middle" textLength="58.05">ASCEND GROUP LLC</text><path d="M151.1 320.32h68.65-.08l.34-.02.35-.06.32-.13.3-.17.27-.22.23-.26.19-.3.13-.32.09-.33.02-.35h0v-15.22h0l-.02-.35-.09-.34-.13-.31-.19-.3-.23-.26-.27-.22-.3-.17-.32-.13-.35-.07-.26-.01H151.1l.26.01-.34-.01-.35.04-.33.1-.32.15-.28.2-.25.24-.21.27-.16.31-.11.33-.06.35-.01.17v15.22l.01-.17v.34l.06.35.11.33.16.31.21.27.25.24.28.2.32.15.33.1.35.04z" style="stroke-width:0.53;fill:#FFFFFF;fill-opacity:0.50"/><text x="185.43" y="308.53" lengthAdjust="spacingAndGlyphs" style="font-size:5.69px;font-family:&quot;Liberation Sans&quot;" text-anchor="middle" textLength="65.77">KATREBEE PROPERTIES</text><text x="185.43" y="316.72" lengthAdjust="spacingAndGlyphs" style="font-size:5.69px;font-family:&quot;Liberation Sans&quot;" text-anchor="middle" textLength="10.31">LLC</text><path d="M274.23 450.11h54.44-.09l.35-.02.34-.07.32-.12.31-.17.26-.22.24-.26.18-.3.14-.32.08-.34.03-.34h0v-15.22h0l-.03-.35-.08-.34-.14-.32-.18-.29-.24-.26-.26-.22-.31-.18-.32-.12-.34-.07-.26-.01h-54.44l.26.01-.35-.01-.34.04-.34.1-.31.15-.29.19-.25.24-.21.28-.16.31-.11.33-.05.34-.01.18v15.22l.01-.18v.35l.05.34.11.33.16.31.21.28.25.24.29.2.31.15.34.09.34.05z" style="stroke-width:0.53;fill:#FFFFFF;fill-opacity:0.50"/><text x="301.45" y="438.31" lengthAdjust="spacingAndGlyphs" style="font-size:5.69px;font-family:&quot;Liberation Sans&quot;" text-anchor="middle" textLength="51.56">BLACK OAK HOME</text><text x="301.45" y="446.51" lengthAdjust="spacingAndGlyphs" style="font-size:5.69px;font-family:&quot;Liberation Sans&quot;" text-anchor="middle" textLength="44.75">SOLUTIONS LLC</text><path d="M351.3 249.35h53.49-.09l.35-.02.34-.07.32-.12.3-.17.27-.22.23-.26.19-.3.14-.32.08-.33.03-.35h0v-7.03h0l-.03-.34-.08-.34-.14-.32-.19-.29-.23-.26-.27-.22-.3-.18-.32-.12-.34-.07-.26-.02H351.3l.26.02-.35-.02-.34.05-.34.09-.31.15-.29.2-.25.24-.21.28-.16.31-.11.33-.05.34-.01.17v7.03l.01-.17v.34l.05.35.11.33.16.3.21.28.25.24.29.2.31.15.34.1.34.04z" style="stroke-width:0.53;fill:#FFFFFF;fill-opacity:0.50"/><text x="378.04" y="245.75" lengthAdjust="spacingAndGlyphs" style="font-size:5.69px;font-family:&quot;Liberation Sans&quot;" text-anchor="middle" textLength="50.61">SPIRE GROUP LLC</text><path d="M445.79 310.73h75.36-.09l.35-.01.34-.07.32-.12.31-.18.27-.22.23-.26.18-.29.14-.32.08-.34.03-.35h0v-15.22h0l-.03-.34-.08-.34-.14-.32-.18-.3-.23-.26-.27-.22-.31-.17-.32-.12-.34-.07-.26-.02h-75.36l.26.02-.35-.02-.35.05-.33.09-.31.15-.29.2-.25.24-.21.28-.16.31-.11.33-.06.34v15.39-.17.35l.06.34.11.33.16.31.21.28.25.24.29.19.31.15.33.1.35.04z" style="stroke-width:0.53;fill:#FFFFFF;fill-opacity:0.50"/><text x="483.47" y="298.94" lengthAdjust="spacingAndGlyphs" style="font-size:5.69px;font-family:&quot;Liberation Sans&quot;" text-anchor="middle" textLength="72.48">BLACK OAK HOME SOLNS</text><text x="483.47" y="307.13" lengthAdjust="spacingAndGlyphs" style="font-size:5.69px;font-family:&quot;Liberation Sans&quot;" text-anchor="middle" textLength="10.31">LLC</text><path d="M62.95 468.66h52.59-.09l.35-.01.34-.07.33-.13.3-.17.27-.22.23-.26.18-.3.14-.31.08-.34.03-.35h0v-7.03h0l-.03-.34-.08-.34-.14-.32-.18-.29-.23-.26-.27-.22-.3-.18-.33-.12-.34-.07-.26-.02H62.95l.26.02-.34-.01-.35.04-.33.09-.32.15-.28.2-.25.24-.21.28-.16.31-.11.33-.06.34-.01.17v7.03l.01-.17v.34l.06.35.11.33.16.31.21.27.25.24.28.2.32.15.33.1.35.04z" style="stroke-width:0.53;fill:#FFFFFF;fill-opacity:0.50"/><text x="89.25" y="465.06" lengthAdjust="spacingAndGlyphs" style="font-size:5.69px;font-family:&quot;Liberation Sans&quot;" text-anchor="middle" textLength="49.71">EENY HOMES LLC</text><path d="M361.41 504.83h66.92-.08l.34-.01.34-.07.33-.12.3-.18.27-.22.23-.26.18-.29.14-.32.08-.34.03-.35h0v-23.41h0l-.03-.35-.08-.34-.14-.32-.18-.29-.23-.26-.27-.22-.3-.17-.33-.13-.34-.07-.26-.01h-66.92l.26.01-.35-.01-.34.04-.34.1-.31.15-.29.19-.25.25-.21.27-.16.31-.11.33-.05.34-.01.18v23.41l.01-.17v.35l.05.34.11.33.16.31.21.28.25.24.29.19.31.15.34.1.34.04z" style="stroke-width:0.53;fill:#FFFFFF;fill-opacity:0.50"/><text x="394.87" y="484.84" lengthAdjust="spacingAndGlyphs" style="font-size:5.69px;font-family:&quot;Liberation Sans&quot;" text-anchor="middle" textLength="58.85">3815 S OTHELLO ST,</text><text x="394.87" y="493.04" lengthAdjust="spacingAndGlyphs" style="font-size:5.69px;font-family:&quot;Liberation Sans&quot;" text-anchor="middle" textLength="64.04">STE 148, SEATTLE, WA</text><text x="394.87" y="501.23" lengthAdjust="spacingAndGlyphs" style="font-size:5.69px;font-family:&quot;Liberation Sans&quot;" text-anchor="middle" textLength="18.11">98118</text><path d="M102.15 186.64h59.91-.09l.35-.02.34-.06.32-.13.31-.17.26-.22.24-.26.18-.3.14-.32.08-.33.03-.35h0v-23.42h0l-.03-.34-.08-.34-.14-.32-.18-.29-.24-.26-.26-.22-.31-.18-.32-.12-.34-.07-.26-.02h-59.91l.26.02-.34-.01-.35.04-.33.09-.32.15-.28.2-.25.24-.21.28-.16.31-.11.33-.06.34-.01.17v23.42l.01-.17v.34l.06.35.11.33.16.31.21.27.25.24.28.2.32.15.33.1.35.04z" style="stroke-width:0.53;fill:#FFFFFF;fill-opacity:0.50"/><text x="132.11" y="166.65" lengthAdjust="spacingAndGlyphs" style="font-size:5.69px;font-family:&quot;Liberation Sans&quot;" text-anchor="middle" textLength="57.02">3815 OTHELLO, STE</text><text x="132.11" y="174.85" lengthAdjust="spacingAndGlyphs" style="font-size:5.69px;font-family:&quot;Liberation Sans&quot;" text-anchor="middle" textLength="51.56">100, SEATTLE, WA</text><text x="132.11" y="183.04" lengthAdjust="spacingAndGlyphs" style="font-size:5.69px;font-family:&quot;Liberation Sans&quot;" text-anchor="middle" textLength="18.11">98118</text><path d="M124.94 447.63h63.42-.09l.35-.01.34-.07.33-.13.3-.17.27-.22.23-.26.18-.29.14-.32.08-.34.03-.35h0v-23.41h0l-.03-.35-.08-.34-.14-.32-.18-.29-.23-.26-.27-.22-.3-.18-.33-.12-.34-.07-.26-.01h-63.42l.26.01-.35-.01-.35.04-.33.1-.31.14-.29.2-.25.24-.21.28-.16.31-.11.33-.06.34v23.59-.17.35l.06.34.11.33.16.31.21.27.25.24.29.2.31.15.33.1.35.04z" style="stroke-width:0.53;fill:#FFFFFF;fill-opacity:0.50"/><text x="156.65" y="427.64" lengthAdjust="spacingAndGlyphs" style="font-size:5.69px;font-family:&quot;Liberation Sans&quot;" text-anchor="middle" textLength="56.82">2800 E ENTERPRISE</text><text x="156.65" y="435.84" lengthAdjust="spacingAndGlyphs" style="font-size:5.69px;font-family:&quot;Liberation Sans&quot;" text-anchor="middle" textLength="35.42">AVE, UNIT 3,</text><text x="156.65" y="444.03" lengthAdjust="spacingAndGlyphs" style="font-size:5.69px;font-family:&quot;Liberation Sans&quot;" text-anchor="middle" textLength="60.54">APPLETON, WI 54913</text><path d="M318.37 314.3h65.21-.08l.34-.01.35-.07.32-.13.3-.17.27-.22.23-.26.19-.29.13-.32.09-.34.02-.35h0v-23.41h0l-.02-.35-.09-.34-.13-.32-.19-.29-.23-.26-.27-.22-.3-.17-.32-.13-.35-.07-.26-.01h-65.21l.26.01-.34-.01-.35.04-.33.1-.32.15-.28.19-.25.24-.21.28-.16.31-.11.33-.06.34-.01.18v23.41l.01-.17v.35l.06.34.11.33.16.31.21.27.25.25.28.19.32.15.33.1.35.04z" style="stroke-width:0.53;fill:#FFFFFF;fill-opacity:0.50"/><text x="350.98" y="294.31" lengthAdjust="spacingAndGlyphs" style="font-size:5.69px;font-family:&quot;Liberation Sans&quot;" text-anchor="middle" textLength="58.85">3815 S OTHELLO ST,</text><text x="350.98" y="302.51" lengthAdjust="spacingAndGlyphs" style="font-size:5.69px;font-family:&quot;Liberation Sans&quot;" text-anchor="middle" textLength="62.33">STE 100-14, SEATTLE,</text><text x="350.98" y="310.7" lengthAdjust="spacingAndGlyphs" style="font-size:5.69px;font-family:&quot;Liberation Sans&quot;" text-anchor="middle" textLength="29.12">WA 98118</text><path d="M255.73 225.09h63.42-.09l.35-.02.34-.07.33-.12.3-.17.27-.22.23-.26.18-.3.14-.32.08-.34.03-.34h0v-23.42h0l-.03-.34-.08-.34-.14-.32-.18-.3-.23-.26-.27-.22-.3-.17-.33-.12-.34-.07-.26-.02h-63.42l.26.02-.35-.02-.35.05-.33.09-.31.15-.29.2-.25.24-.21.28-.16.3-.11.33-.06.35v23.59-.18.35l.06.34.11.33.16.31.21.28.25.24.29.2.31.15.33.09.35.05z" style="stroke-width:0.53;fill:#FFFFFF;fill-opacity:0.50"/><text x="287.44" y="205.1" lengthAdjust="spacingAndGlyphs" style="font-size:5.69px;font-family:&quot;Liberation Sans&quot;" text-anchor="middle" textLength="56.82">2800 E ENTERPRISE</text><text x="287.44" y="213.29" lengthAdjust="spacingAndGlyphs" style="font-size:5.69px;font-family:&quot;Liberation Sans&quot;" text-anchor="middle" textLength="36.15">AVE, STE 33,</text><text x="287.44" y="221.49" lengthAdjust="spacingAndGlyphs" style="font-size:5.69px;font-family:&quot;Liberation Sans&quot;" text-anchor="middle" textLength="60.54">APPLETON, WI 54913</text><path d="M170.78 486.94h61.69l-.09-.01.35-.01.34-.07.32-.12.3-.18.27-.22.23-.26.19-.29.13-.32.09-.34.03-.34h0v-23.42h0l-.03-.35-.09-.33-.13-.32-.19-.3-.23-.26-.27-.22-.3-.17-.32-.12-.34-.07-.26-.02h-61.69l.26.02-.35-.02-.35.04-.33.1-.31.15-.29.2-.25.24-.21.28-.16.3-.11.33-.06.35v23.59-.18.35l.06.34.11.33.16.31.21.28.25.24.29.2.31.15.33.09.35.04z" style="stroke-width:0.53;fill:#FFFFFF;fill-opacity:0.50"/><text x="201.62" y="466.95" lengthAdjust="spacingAndGlyphs" style="font-size:5.69px;font-family:&quot;Liberation Sans&quot;" text-anchor="middle" textLength="56.82">2800 E ENTERPRISE</text><text x="201.62" y="475.14" lengthAdjust="spacingAndGlyphs" style="font-size:5.69px;font-family:&quot;Liberation Sans&quot;" text-anchor="middle" textLength="58.81">AVE 333, APPLETON,</text><text x="201.62" y="483.34" lengthAdjust="spacingAndGlyphs" style="font-size:5.69px;font-family:&quot;Liberation Sans&quot;" text-anchor="middle" textLength="27.22">WI 54913</text><path d="M64.55 243.58h68.92-.09l.35-.01.34-.07.33-.13.3-.17.27-.22.23-.26.18-.29.14-.32.08-.34.03-.35h0v-23.41h0l-.03-.35-.08-.34-.14-.32-.18-.29-.23-.26-.27-.22-.3-.18-.33-.12-.34-.07-.26-.01H64.55l.26.01-.34-.01-.35.04-.33.1-.32.15-.28.19-.25.24-.21.28-.16.31-.11.33-.06.34-.01.18v23.41l.01-.17v.35l.06.34.11.33.16.31.21.27.25.25.28.19.32.15.33.1.35.04z" style="stroke-width:0.53;fill:#FFFFFF;fill-opacity:0.50"/><text x="99.01" y="223.59" lengthAdjust="spacingAndGlyphs" style="font-size:5.69px;font-family:&quot;Liberation Sans&quot;" text-anchor="middle" textLength="66.04">2800 ENTERPRISE AVE,</text><text x="99.01" y="231.79" lengthAdjust="spacingAndGlyphs" style="font-size:5.69px;font-family:&quot;Liberation Sans&quot;" text-anchor="middle" textLength="63.97">STE 30, APPLETON, WI</text><text x="99.01" y="239.98" lengthAdjust="spacingAndGlyphs" style="font-size:5.69px;font-family:&quot;Liberation Sans&quot;" text-anchor="middle" textLength="18.11">54913</text><path d="M302.11 539.77h66.92-.09l.35-.01.34-.07.33-.13.3-.17.27-.22.23-.26.18-.29.14-.32.08-.34.03-.35h0V514.2h0l-.03-.35-.08-.34-.14-.32-.18-.29-.23-.26-.27-.22-.3-.18-.33-.12-.34-.07-.26-.01h-66.92l.26.01-.35-.01-.34.04-.34.1-.31.15-.29.19-.25.24-.21.28-.16.31-.11.33-.06.34v23.59-.17.35l.06.34.11.33.16.31.21.27.25.25.29.19.31.15.34.1.34.04z" style="stroke-width:0.53;fill:#FFFFFF;fill-opacity:0.50"/><text x="335.57" y="519.78" lengthAdjust="spacingAndGlyphs" style="font-size:5.69px;font-family:&quot;Liberation Sans&quot;" text-anchor="middle" textLength="58.85">3815 S OTHELLO ST,</text><text x="335.57" y="527.98" lengthAdjust="spacingAndGlyphs" style="font-size:5.69px;font-family:&quot;Liberation Sans&quot;" text-anchor="middle" textLength="64.04">STE 148, SEATTLE, WA</text><text x="335.57" y="536.17" lengthAdjust="spacingAndGlyphs" style="font-size:5.69px;font-family:&quot;Liberation Sans&quot;" text-anchor="middle" textLength="18.11">98118</text><path d="M362.16 173.65h68.8-.09l.35-.02.34-.07.32-.12.31-.17.26-.22.24-.26.18-.3.14-.32.08-.33.03-.35h0v-23.42h0l-.03-.34-.08-.34-.14-.32-.18-.29-.24-.26-.26-.22-.31-.18-.32-.12-.34-.07-.26-.02h-68.8l.26.02-.34-.02-.35.05-.33.09-.32.15-.28.2-.25.24-.21.28-.16.31-.11.33-.06.34-.01.17v23.42l.01-.18v.35l.06.35.11.33.16.3.21.28.25.24.28.2.32.15.33.1.35.04z" style="stroke-width:0.53;fill:#FFFFFF;fill-opacity:0.50"/><text x="396.56" y="153.66" lengthAdjust="spacingAndGlyphs" style="font-size:5.69px;font-family:&quot;Liberation Sans&quot;" text-anchor="middle" textLength="65.92">3815 OTHELLO ST, STE</text><text x="396.56" y="161.85" lengthAdjust="spacingAndGlyphs" style="font-size:5.69px;font-family:&quot;Liberation Sans&quot;" text-anchor="middle" textLength="60.85">100-14, SEATTLE, WA</text><text x="396.56" y="170.05" lengthAdjust="spacingAndGlyphs" style="font-size:5.69px;font-family:&quot;Liberation Sans&quot;" text-anchor="middle" textLength="18.11">98118</text><path d="M448.81 219.04h66.92-.09l.35-.01.34-.07.33-.12.3-.18.27-.22.23-.26.18-.29.14-.32.08-.34.03-.35h0v-23.41h0l-.03-.35-.08-.34-.14-.32-.18-.29-.23-.26-.27-.22-.3-.17-.33-.13-.34-.07-.26-.01h-66.92l.26.01-.35-.01-.34.04-.34.1-.31.15-.29.19-.25.25-.21.27-.16.31-.11.33-.06.34v23.59-.17.35l.06.34.11.33.16.31.21.28.25.24.29.19.31.15.34.1.34.04z" style="stroke-width:0.53;fill:#FFFFFF;fill-opacity:0.50"/><text x="482.27" y="199.05" lengthAdjust="spacingAndGlyphs" style="font-size:5.69px;font-family:&quot;Liberation Sans&quot;" text-anchor="middle" textLength="53.43">3815 OTHELLO ST,</text><text x="482.27" y="207.25" lengthAdjust="spacingAndGlyphs" style="font-size:5.69px;font-family:&quot;Liberation Sans&quot;" text-anchor="middle" textLength="64.04">STE 100, SEATTLE, WA</text><text x="482.27" y="215.44" lengthAdjust="spacingAndGlyphs" style="font-size:5.69px;font-family:&quot;Liberation Sans&quot;" text-anchor="middle" textLength="18.11">98118</text><path d="M449.79 489.87h66.93-.09l.35-.02.34-.07.32-.12.3-.18.27-.22.23-.26.19-.29.13-.32.09-.34.03-.34h0v-23.42h0l-.03-.35-.09-.33-.13-.32-.19-.3-.23-.26-.27-.22-.3-.17-.32-.12-.34-.07-.26-.02h-66.93l.26.02-.35-.02-.34.04-.33.1-.32.15-.28.2-.26.24-.2.28-.17.3-.11.33-.05.35-.01.17v23.42l.01-.18v.35l.05.34.11.33.17.31.2.28.26.24.28.2.32.15.33.09.34.05z" style="stroke-width:0.53;fill:#FFFFFF;fill-opacity:0.50"/><text x="483.25" y="469.88" lengthAdjust="spacingAndGlyphs" style="font-size:5.69px;font-family:&quot;Liberation Sans&quot;" text-anchor="middle" textLength="53.43">3815 OTHELLO ST,</text><text x="483.25" y="478.07" lengthAdjust="spacingAndGlyphs" style="font-size:5.69px;font-family:&quot;Liberation Sans&quot;" text-anchor="middle" textLength="64.04">STE 148, SEATTLE, WA</text><text x="483.25" y="486.27" lengthAdjust="spacingAndGlyphs" style="font-size:5.69px;font-family:&quot;Liberation Sans&quot;" text-anchor="middle" textLength="18.11">98118</text><path d="M396.85 454.88h63.73-.09l.35-.01.34-.07.33-.13.3-.17.27-.22.23-.26.18-.29.14-.32.08-.34.03-.35h0v-23.41h0l-.03-.35-.08-.34-.14-.32-.18-.29-.23-.26-.27-.22-.3-.17-.33-.13-.34-.07-.26-.01h-63.73l.26.01-.35-.01-.35.04-.33.1-.31.15-.29.19-.25.24-.21.28-.16.31-.11.33-.06.34v23.59-.17.35l.06.34.11.33.16.31.21.28.25.24.29.19.31.15.33.1.35.04z" style="stroke-width:0.53;fill:#FFFFFF;fill-opacity:0.50"/><text x="428.71" y="434.89" lengthAdjust="spacingAndGlyphs" style="font-size:5.69px;font-family:&quot;Liberation Sans&quot;" text-anchor="middle" textLength="51.62">3815 OTHELLO ST</text><text x="428.71" y="443.09" lengthAdjust="spacingAndGlyphs" style="font-size:5.69px;font-family:&quot;Liberation Sans&quot;" text-anchor="middle" textLength="60.85">100-14, SEATTLE, WA</text><text x="428.71" y="451.28" lengthAdjust="spacingAndGlyphs" style="font-size:5.69px;font-family:&quot;Liberation Sans&quot;" text-anchor="middle" textLength="18.11">98118</text></g><g clip-path="url(#cpMC4wMHw1NzYuMDB8MC4wMHw1NzYuMDA=)"><circle cx="194.25" cy="97.06" r="1.95" style="stroke-width:0.71;stroke:none;fill:#F8766D"/><path d="m270.6 94.02 2.63 4.56h-5.27z" style="stroke-width:0.71;stroke:none;fill:#00BA38"/><path d="M336.57 99.01h3.91V95.1h-3.91z" style="stroke-width:0.71;stroke:none;fill:#619CFF"/><text x="208.37" y="100.22" lengthAdjust="spacingAndGlyphs" style="font-size:8.80px;font-weight:0;font-family:&quot;Nimbus Sans Narrow&quot;" textLength="48.11">mprop address</text><text x="284.72" y="100.22" lengthAdjust="spacingAndGlyphs" style="font-size:8.80px;font-weight:0;font-family:&quot;Nimbus Sans Narrow&quot;" textLength="39.69">owner name</text><text x="352.64" y="100.22" lengthAdjust="spacingAndGlyphs" style="font-size:8.80px;font-weight:0;font-family:&quot;Nimbus Sans Narrow&quot;" textLength="40.49">wdfi address</text><text x="32.63" y="65.35" lengthAdjust="spacingAndGlyphs" style="font-size:12.00px;font-weight:0;font-family:&quot;Nimbus Sans Narrow&quot;" textLength="252.12">includes 33 parcels, 59 units, and 6 distinct owner names.</text><text x="32.63" y="42.81" lengthAdjust="spacingAndGlyphs" style="font-size:18.00px;font-weight:0;font-family:&quot;Nimbus Sans Narrow&quot;" textLength="227.2">ASCEND GROUP LLC etc Group</text></g></svg>