<svg xmlns="http://www.w3.org/2000/svg" width="384" height="480" class="svglite" viewBox="0 0 288 360"><defs><style><![CDATA[.svglite line,.svglite polyline,.svglite polygon,.svglite path,.svglite circle{fill:none;stroke:#000000;stroke-linecap:round;stroke-linejoin:round;stroke-miterlimit:10.00}.svglite text{white-space:pre}]]></style></defs><rect width="100%" height="100%" style="stroke-linecap:round;stroke-linejoin:round;stroke-miterlimit:10.00;stroke:none;fill:#FFFFFF"/><defs><clipPath id="cpMC4wMHwyODguMDB8MC4wMHwzNjAuMDA="><path d="M0 0h288v360H0z"/></clipPath></defs><g clip-path="url(#cpMC4wMHwyODguMDB8MC4wMHwzNjAuMDA=)"><path d="M0 0h288v360H0z" style="stroke-width:1.07;stroke:none;fill:#FFFFFF"/></g><defs><clipPath id="cpMzIuNjN8MjU4LjExfDE0MC4zMHwzMjcuMzc="><path d="M32.63 140.3h225.48v187.07H32.63z"/></clipPath></defs><g clip-path="url(#cpMzIuNjN8MjU4LjExfDE0MC4zMHwzMjcuMzc=)"><path d="m115.54 262.18-1.9.53-1.87.53-1.84.53-1.82.54-1.79.53-1.77.53-1.75.54-1.72.53-1.69.54-1.67.54-1.64.54-1.62.53-1.6.54-1.57.55-1.54.54-1.52.54-1.49.54-1.47.55-1.45.54-1.42.55-1.39.55-1.37.55-1.34.54-1.32.55-1.3.55-1.27.56-1.24.55-1.22.55-1.19.56-1.17.55-1.14.56-1.12.55-1.1.56-1.07.56-1.04.56-1.02.56-.99.56-.97.56-.94.57-.92.56-.9.56-.86.57-.85.57-.82.56-.79.57-.77.57-.74.57-.72.57-.69.57-.67.58-.64.57-.62.57-.6.58-.56.58-.55.57-.52.58-.49.58-.47.58-.44.58-.42.58-.39.58-.37.59-.34.58-.32.59-.29.58-.27.59-.24.59-.22.58-.19.59-.17.59-.14.59-.12.6-.1.59-.06.59-.05.6-.01.59v.6l.04.6.05.59.09.6.1.6.14.6.15.6.19.61.2.6.24.6.25.61.29.61.31.6.33.61.36.61.38.61.41.61.43.61.46.61.48.62.51.61.53.61.56.62m66.16-56.69.67-.57.67-.57.66-.58.67-.57.67-.57.67-.57.67-.58.67-.57.66-.57.67-.57.67-.58.67-.57.67-.57.67-.58.66-.57.67-.57.67-.57.67-.58.67-.57.66-.57.67-.57.67-.58.67-.57.67-.57.67-.57.66-.58.67-.57.67-.57.67-.57.67-.58.67-.57.66-.57.67-.57.67-.58.67-.57.67-.57.67-.57.66-.58.67-.57.67-.57.67-.58.67-.57.67-.57.66-.57.67-.58.67-.57.67-.57.67-.57.67-.58.66-.57.67-.57.67-.57.67-.58.67-.57.67-.57.66-.57.67-.58.67-.57.67-.57.67-.57.67-.58.66-.57.67-.57.67-.58.67-.57.67-.57.67-.57.66-.58.67-.57.67-.57.67-.57.67-.58.67-.57.66-.57.67-.57.67-.58.67-.57.67-.57.67-.57.66-.58.67-.57.67-.57.67-.57.67-.58.67-.57.66-.57.67-.58.67-.57.67-.57.67-.57.67-.58.66-.57.67-.57.67-.57.67-.58.67-.57.66-.57.67-.57.67-.58" style="stroke-width:1.07;stroke:#000000;stroke-opacity:0.10;stroke-linecap:butt"/><path d="m115.54 262.18-1.08.56-1.07.56-1.06.56-1.05.56-1.04.56-1.04.56-1.03.56-1.01.56-1.01.56-1.01.56-.99.56-.99.56-.97.56-.97.56-.96.57-.95.56-.95.56-.93.57-.93.56-.92.56-.91.57-.9.56-.89.57-.89.56-.87.57-.87.56-.86.57-.86.56-.84.57-.83.57-.83.56-.82.57-.81.57-.8.57-.79.56-.79.57-.78.57-.76.57-.76.57-.76.57-.74.57-.73.57-.73.57-.72.57-.71.57-.7.57-.69.58-.69.57-.68.57-.66.57-.66.58-.66.57-.64.57-.63.58-.63.57-.62.58-.61.57-.6.57-.59.58-.59.58-.57.57-.57.58-.56.57-.55.58-.55.58-.53.57-.53.58-.52.58-.51.58-.5.58-.49.58-.49.57-.47.58-.47.58-.46.58-.45.58-.44.58-.44.58-.43.59-.41.58-.41.58-.4.58-.4.58-.38.59-.38.58-.37.58-.36.59-.35.58-.34.58-.34.59-.32.58-.32.59-.31.58-.3.59-.29.58-.29.59-.27.59-.27.58-.26.59m66.16-56.69-.26.59-.27.58-.27.59-.29.59-.29.58-.3.59-.31.58-.32.59-.33.58-.33.59-.35.58-.35.59-.36.58-.36.58-.38.58-.38.59-.4.58-.4.58-.41.58-.42.58-.42.59-.44.58-.44.58-.45.58-.46.58-.47.58-.48.58-.48.58-.49.57-.51.58-.51.58-.51.58-.53.58-.54.57-.54.58-.55.58-.56.57-.57.58-.57.58-.59.57-.59.58-.6.57-.61.58-.62.57-.63.57-.63.58-.65.57-.65.57-.66.58-.67.57-.67.57-.69.57-.69.58-.7.57-.71.57-.72.57-.73.57-.73.57-.75.57-.75.57-.76.57-.77.57-.77.57-.79.57-.79.56-.8.57-.81.57-.82.57-.83.56-.83.57-.85.57-.85.56-.86.57-.87.56-.88.57-.88.56-.89.57-.91.56-.91.57-.91.56-.93.57-.94.56-.94.56-.95.56-.96.57-.97.56-.98.56-.98.56-1 .56-1 .56-1.01.56-1.02.57-1.02.56-1.04.55-1.04.56-1.06.56-1.06.56-1.06.56-1.08.56m198.48-170.06-.67.57-.66.57-.67.57-.67.58-.67.57-.67.57-.67.57-.66.58-.67.57-.67.57-.67.57-.67.58-.67.57-.66.57-.67.57-.67.58-.67.57-.67.57-.66.58-.67.57-.67.57-.67.57-.67.58-.67.57-.66.57-.67.57-.67.58-.67.57-.67.57-.67.57-.66.58-.67.57-.67.57-.67.57-.67.58-.67.57-.66.57-.67.57-.67.58-.67.57-.67.57-.67.58-.66.57-.67.57-.67.57-.67.58-.67.57-.67.57-.66.57-.67.58-.67.57-.67.57-.67.57-.67.58-.66.57-.67.57-.67.57-.67.58-.67.57-.66.57-.67.57-.67.58-.67.57-.67.57-.67.58-.66.57-.67.57-.67.57-.67.58-.67.57-.67.57-.66.57-.67.58-.67.57-.67.57-.67.57-.67.58-.66.57-.67.57-.67.57-.67.58-.67.57-.67.57-.66.57-.67.58-.67.57-.67.57-.67.58-.67.57-.66.57-.67.57-.67.58-.67.57-.67.57-.67.57-.66.58-.67.57-.67.57-.67.57" style="stroke-width:1.07;stroke:#000000;stroke-opacity:0.10;stroke-linecap:butt"/><path d="m115.54 262.18.56.62.53.61.51.62.48.61.46.61.43.61.41.61.38.61.36.61.33.61.31.6.28.61.26.61.23.6.21.6.18.61.16.6.13.6.11.6.08.6.06.59.03.6.01.6-.02.59-.04.6-.07.59-.09.59-.12.6-.14.59-.17.59-.19.59-.22.59-.24.58-.27.59-.29.59-.32.58-.34.58-.37.59-.39.58-.42.58-.45.58-.46.58-.5.58-.52.58-.54.57-.57.58-.59.58-.62.57-.64.57-.67.58-.69.57-.72.57-.74.57-.77.57-.8.57-.81.56-.85.57-.87.57-.89.56-.92.56-.94.57-.97.56-.99.56-1.02.56-1.05.56-1.07.56-1.09.56-1.12.55-1.14.56-1.17.55-1.19.56-1.22.55-1.25.55-1.27.56-1.29.55-1.32.55-1.34.55-1.37.54-1.4.55-1.41.55-1.45.54-1.47.55-1.49.54-1.52.54-1.55.54-1.56.55-1.6.54-1.62.54-1.64.53-1.67.54-1.7.54-1.72.53-1.74.54-1.77.53-1.79.54-1.82.53-1.85.53-1.87.53-1.89.53" style="stroke-width:1.07;stroke:#000000;stroke-opacity:0.10;stroke-linecap:butt"/><path d="m115.54 251.67 9.1 15.76h-18.2zM247.86 146.6l1.92 3.31h-3.83z" style="stroke-width:0.71;stroke:none;fill:#00BFC4"/><circle cx="49.38" cy="318.87" r="6.04" style="stroke-width:0.71;stroke:none;fill:#F8766D"/><circle cx="181.7" cy="205.49" r="4.09" style="stroke-width:0.71;stroke:none;fill:#F8766D"/><path d="m110.43 266.83 4.25-3.87m128.39-108.83 4.03-4.48M54.82 314.22l-4.56 3.89M176.42 210.1l4.41-3.84" style="stroke-width:0.53;stroke:#BFBFBF"/><path d="M70.98 278.17h64.24-.08l.34-.01.34-.07.33-.13.3-.17.27-.22.23-.26.19-.29.13-.32.09-.34.02-.35h0v-7.02h0l-.02-.35-.09-.34-.13-.32-.19-.29-.23-.26-.27-.22-.3-.18-.33-.12-.34-.07-.26-.01H70.98l.26.01-.35-.01-.34.04-.34.1-.31.14-.29.2-.25.24-.21.28-.16.31-.11.33-.05.34-.01.18v7.02l.01-.17v.35l.05.34.11.33.16.31.21.28.25.24.29.19.31.15.34.1.34.04z" style="stroke-width:0.53;fill:#FFFFFF;fill-opacity:0.50"/><text x="103.1" y="274.57" lengthAdjust="spacingAndGlyphs" style="font-size:5.69px;font-family:&quot;Liberation Sans&quot;" text-anchor="middle" textLength="61.37">ATILANO SANCHEZ JR</text><path d="M190.31 162.55h50.6l-.09-.01.35-.01.34-.07.32-.12.3-.18.27-.22.23-.26.19-.29.14-.32.08-.34.03-.34h0v-7.03h0l-.03-.35-.08-.33-.14-.32-.19-.3-.23-.26-.27-.22-.3-.17-.32-.13-.34-.07-.26-.01h-50.6l.26.01-.35-.01-.35.04-.33.1-.31.15-.29.2-.25.24-.21.27-.16.31-.11.33-.06.35v7.2-.18.35l.06.34.11.33.16.31.21.28.25.24.29.2.31.15.33.09.35.04z" style="stroke-width:0.53;fill:#FFFFFF;fill-opacity:0.50"/><text x="215.61" y="158.95" lengthAdjust="spacingAndGlyphs" style="font-size:5.69px;font-family:&quot;Liberation Sans&quot;" text-anchor="middle" textLength="47.72">MARIA SANCHEZ</text><path d="M38.68 314.22h66.04l-.09-.01.35-.01.34-.07.33-.12.3-.18.27-.22.23-.26.18-.29.14-.32.08-.34.03-.34h0v-23.42h0l-.03-.35-.08-.33-.14-.32-.18-.3-.23-.26-.27-.22-.3-.17-.33-.12-.34-.07-.26-.02H38.68l.26.02-.35-.02-.34.04-.33.1-.32.15-.28.2-.26.24-.2.28-.17.3-.11.33-.05.35-.01.17v23.42l.01-.18v.35l.05.34.11.33.17.31.2.28.26.24.28.2.32.15.33.09.34.04z" style="stroke-width:0.53;fill:#FFFFFF;fill-opacity:0.50"/><text x="71.7" y="294.23" lengthAdjust="spacingAndGlyphs" style="font-size:5.69px;font-family:&quot;Liberation Sans&quot;" text-anchor="middle" textLength="63.16">1526 W WASHINGTON</text><text x="71.7" y="302.42" lengthAdjust="spacingAndGlyphs" style="font-size:5.69px;font-family:&quot;Liberation Sans&quot;" text-anchor="middle" textLength="55.12">ST, MILWAUKEE, WI</text><text x="71.7" y="310.62" lengthAdjust="spacingAndGlyphs" style="font-size:5.69px;font-family:&quot;Liberation Sans&quot;" text-anchor="middle" textLength="18.11">53204</text><path d="M130.76 229.64h67.22-.08l.34-.02.34-.07.33-.12.3-.17.27-.22.23-.26.19-.3.13-.32.08-.33.03-.35h0v-15.22h0l-.03-.35-.08-.34-.13-.32-.19-.29-.23-.26-.27-.22-.3-.17-.33-.13-.34-.07-.26-.01h-67.22l.26.01-.34-.01-.35.04-.33.1-.32.15-.28.19-.25.25-.21.27-.16.31-.11.33-.06.34-.01.18v15.22l.01-.17v.34l.06.35.11.33.16.3.21.28.25.24.28.2.32.15.33.1.35.04z" style="stroke-width:0.53;fill:#FFFFFF;fill-opacity:0.50"/><text x="164.37" y="217.84" lengthAdjust="spacingAndGlyphs" style="font-size:5.69px;font-family:&quot;Liberation Sans&quot;" text-anchor="middle" textLength="47.4">2328 S 13TH ST,</text><text x="164.37" y="226.04" lengthAdjust="spacingAndGlyphs" style="font-size:5.69px;font-family:&quot;Liberation Sans&quot;" text-anchor="middle" textLength="64.34">MILWAUKEE, WI 53215</text></g><g clip-path="url(#cpMC4wMHwyODguMDB8MC4wMHwzNjAuMDA=)"><circle cx="84.61" cy="115.22" r="1.95" style="stroke-width:0.71;stroke:none;fill:#F8766D"/><path d="m160.96 112.18 2.63 4.56h-5.26z" style="stroke-width:0.71;stroke:none;fill:#00BFC4"/><text x="98.72" y="118.25" lengthAdjust="spacingAndGlyphs" style="font-size:8.80px;font-family:&quot;Liberation Sans Narrow&quot;" textLength="48.12">mprop address</text><text x="175.08" y="118.25" lengthAdjust="spacingAndGlyphs" style="font-size:8.80px;font-family:&quot;Liberation Sans Narrow&quot;" textLength="39.69">owner name</text><text x="32.63" y="83.67" lengthAdjust="spacingAndGlyphs" style="font-size:12.00px;font-family:&quot;Liberation Sans Narrow&quot;" textLength="241.29">includes 6 parcels, 8 units, and 2 distinct owner names.</text><text x="32.63" y="42.27" lengthAdjust="spacingAndGlyphs" style="font-size:18.00px;font-weight:bold;font-family:&quot;Liberation Sans Narrow&quot;" textLength="229.3">ATILANO SANCHEZ JR -- MARIA</text><text x="32.63" y="61.71" lengthAdjust="spacingAndGlyphs" style="font-size:18.00px;font-weight:bold;font-family:&quot;Liberation Sans Narrow&quot;" textLength="119.69">SANCHEZ Group</text></g></svg>