<svg xmlns="http://www.w3.org/2000/svg" width="384" height="480" class="svglite" viewBox="0 0 288 360"><defs><style><![CDATA[.svglite line,.svglite polyline,.svglite polygon,.svglite path,.svglite circle{fill:none;stroke:#000000;stroke-linecap:round;stroke-linejoin:round;stroke-miterlimit:10.00}.svglite text{white-space:pre}]]></style></defs><rect width="100%" height="100%" style="stroke-linecap:round;stroke-linejoin:round;stroke-miterlimit:10.00;stroke:none;fill:#FFFFFF"/><defs><clipPath id="cpMC4wMHwyODguMDB8MC4wMHwzNjAuMDA="><path d="M0 0h288v360H0z"/></clipPath></defs><g clip-path="url(#cpMC4wMHwyODguMDB8MC4wMHwzNjAuMDA=)"><path d="M0 0h288v360H0z" style="stroke-width:1.07;stroke:none;fill:#FFFFFF"/></g><defs><clipPath id="cpMzIuNjN8MjU4LjExfDE0MC4zMHwzMjcuMzc="><path d="M32.63 140.3h225.48v187.07H32.63z"/></clipPath></defs><g clip-path="url(#cpMzIuNjN8MjU4LjExfDE0MC4zMHwzMjcuMzc=)"><path d="m247.86 148.81-1.03.85-1.04.86-1.03.86-1.04.86-1.03.86-1.04.86-1.03.86-1.04.86-1.03.86-1.04.86-1.04.85-1.03.86-1.04.86-1.03.86-1.04.86-1.03.86-1.04.86-1.03.86-1.04.86-1.03.86-1.04.86-1.03.85-1.04.86-1.03.86-1.04.86-1.03.86-1.04.86-1.03.86-1.04.86-1.04.86-1.03.86-1.04.85-1.03.86-1.04.86-1.03.86-1.04.86-1.03.86-1.04.86-1.03.86-1.04.86-1.03.86-1.04.85-1.03.86-1.04.86-1.03.86-1.04.86-1.04.86-1.03.86-1.04.86-1.03.86-1.04.86-1.03.85-1.04.86-1.03.86-1.04.86-1.03.86-1.04.86-1.03.86-1.04.86-1.03.86-1.04.86-1.03.85-1.04.86-1.03.86-1.04.86-1.04.86-1.03.86-1.04.86-1.03.86-1.04.86-1.03.86-1.04.85-1.03.86-1.04.86-1.03.86-1.04.86-1.03.86-1.04.86-1.03.86-1.04.86-1.03.86-1.04.85-1.04.86-1.03.86-1.04.86-1.03.86-1.04.86-1.03.86-1.04.86-1.03.86-1.04.86-1.03.85-1.04.86-1.03.86-1.04.86-1.03.86-1.04.86-1.03.86-1.04.86M42.88 318.87l1.03-.86 1.04-.86 1.03-.86 1.04-.86 1.03-.85 1.04-.86 1.03-.86 1.04-.86 1.03-.86 1.04-.86 1.04-.86 1.03-.86 1.04-.86 1.03-.85 1.04-.86 1.03-.86 1.04-.86 1.03-.86 1.04-.86 1.03-.86 1.04-.86 1.03-.85 1.04-.86 1.03-.86 1.04-.86 1.03-.86 1.04-.86 1.03-.86 1.04-.86 1.04-.85 1.03-.86 1.04-.86 1.03-.86 1.04-.86 1.03-.86 1.04-.86 1.03-.86 1.04-.86 1.03-.85 1.04-.86 1.03-.86 1.04-.86 1.03-.86 1.04-.86 1.03-.86 1.04-.86 1.04-.85 1.03-.86 1.04-.86 1.03-.86 1.04-.86 1.03-.86 1.04-.86 1.03-.86 1.04-.85 1.03-.86 1.04-.86 1.03-.86 1.04-.86 1.03-.86 1.04-.86 1.03-.86 1.04-.86 1.04-.85 1.03-.86 1.04-.86 1.03-.86 1.04-.86 1.03-.86 1.04-.86 1.03-.86 1.04-.85 1.03-.86 1.04-.86 1.03-.86 1.04-.86 1.03-.86 1.04-.86 1.03-.86 1.04-.86 1.04-.85 1.03-.86 1.04-.86 1.03-.86 1.04-.86 1.03-.86 1.04-.86 1.03-.86 1.04-.85 1.03-.86 1.04-.86 1.03-.86 1.04-.86 1.03-.86 1.04-.86 1.03-.86 1.04-.85 1.04-.86 1.03-.86" style="stroke-width:1.07;stroke:#000000;stroke-opacity:0.10;stroke-linecap:butt"/><path d="m247.86 146.6 1.92 3.31h-3.83zM42.88 316.66l1.91 3.31h-3.83z" style="stroke-width:0.71;stroke:none;fill:#00BFC4"/><circle cx="145.37" cy="233.85" r="6.76" style="stroke-width:0.71;stroke:none;fill:#F8766D"/><path d="m242.39 153.43 4.58-3.87M47.45 311.66l-3.98 6.28m96.6-79.47 4.43-3.86" style="stroke-width:0.53;stroke:#BFBFBF"/><path d="M183.58 172.97h68.75-.09l.35-.02.34-.07.33-.12.3-.17.27-.22.23-.26.18-.3.14-.32.08-.34.03-.34h0v-15.22h0l-.03-.35-.08-.34-.14-.32-.18-.29-.23-.26-.27-.22-.3-.18-.33-.12-.34-.07-.26-.01h-68.75l.26.01-.35-.01-.34.04-.34.1-.31.15-.29.19-.25.24-.21.28-.16.31-.11.33-.05.34-.01.18v15.22l.01-.18v.35l.05.34.11.33.16.31.21.28.25.24.29.2.31.15.34.09.34.05z" style="stroke-width:0.53;fill:#FFFFFF;fill-opacity:0.50"/><text x="217.95" y="161.17" lengthAdjust="spacingAndGlyphs" style="font-size:5.69px;font-family:&quot;Liberation Sans&quot;" text-anchor="middle" textLength="65.87">ATTICUS INVESTMENTS</text><text x="217.95" y="169.37" lengthAdjust="spacingAndGlyphs" style="font-size:5.69px;font-family:&quot;Liberation Sans&quot;" text-anchor="middle" textLength="15.74">2 LLC</text><path d="M49.61 314.7h48.17l-.09-.01.35-.01.34-.07.32-.12.3-.18.27-.22.23-.26.19-.29.14-.32.08-.34.03-.34h0v-7.03h0l-.03-.35-.08-.33-.14-.32-.19-.3-.23-.26-.27-.22-.3-.17-.32-.13-.34-.07-.26-.01H49.61l.26.01-.35-.01-.34.04-.34.1-.31.15-.29.2-.25.24-.21.27-.16.31-.11.33-.05.35-.01.17v7.03l.01-.18v.35l.05.34.11.33.16.31.21.28.25.24.29.2.31.15.34.09.34.04z" style="stroke-width:0.53;fill:#FFFFFF;fill-opacity:0.50"/><text x="73.69" y="311.1" lengthAdjust="spacingAndGlyphs" style="font-size:5.69px;font-family:&quot;Liberation Sans&quot;" text-anchor="middle" textLength="45.29">TODD M GROSS</text><path d="M93.8 258.01h68.44-.09l.35-.02.34-.07.32-.12.3-.17.27-.22.23-.26.19-.3.14-.32.08-.34.03-.34h0v-15.22h0l-.03-.35-.08-.34-.14-.32-.19-.29-.23-.26-.27-.22-.3-.18-.32-.12-.34-.07-.26-.01H93.8l.26.01-.35-.01-.34.04-.33.1-.32.15-.28.19-.26.24-.2.28-.17.31-.11.33-.05.34-.01.18v15.22l.01-.18v.35l.05.34.11.33.17.31.2.28.26.24.28.2.32.15.33.09.34.05z" style="stroke-width:0.53;fill:#FFFFFF;fill-opacity:0.50"/><text x="128.02" y="246.21" lengthAdjust="spacingAndGlyphs" style="font-size:5.69px;font-family:&quot;Liberation Sans&quot;" text-anchor="middle" textLength="52.7">4900 STEEPLE DR,</text><text x="128.02" y="254.41" lengthAdjust="spacingAndGlyphs" style="font-size:5.69px;font-family:&quot;Liberation Sans&quot;" text-anchor="middle" textLength="65.56">GREENDALE, WI 53129</text></g><g clip-path="url(#cpMC4wMHwyODguMDB8MC4wMHwzNjAuMDA=)"><circle cx="84.61" cy="115.22" r="1.95" style="stroke-width:0.71;stroke:none;fill:#F8766D"/><path d="m160.96 112.18 2.63 4.56h-5.26z" style="stroke-width:0.71;stroke:none;fill:#00BFC4"/><text x="98.72" y="118.25" lengthAdjust="spacingAndGlyphs" style="font-size:8.80px;font-family:&quot;Liberation Sans Narrow&quot;" textLength="48.12">mprop address</text><text x="175.08" y="118.25" lengthAdjust="spacingAndGlyphs" style="font-size:8.80px;font-family:&quot;Liberation Sans Narrow&quot;" textLength="39.69">owner name</text><text x="32.63" y="83.67" lengthAdjust="spacingAndGlyphs" style="font-size:12.00px;font-family:&quot;Liberation Sans Narrow&quot;" textLength="241.29">includes 2 parcels, 4 units, and 2 distinct owner names.</text><text x="32.63" y="42.27" lengthAdjust="spacingAndGlyphs" style="font-size:18.00px;font-weight:bold;font-family:&quot;Liberation Sans Narrow&quot;" textLength="217.02">ATTICUS INVESTMENTS 2 LLC</text><text x="32.63" y="61.71" lengthAdjust="spacingAndGlyphs" style="font-size:18.00px;font-weight:bold;font-family:&quot;Liberation Sans Narrow&quot;" textLength="177.67">-- TODD M GROSS Group</text></g></svg>