<svg xmlns="http://www.w3.org/2000/svg" width="384" height="480" class="svglite" viewBox="0 0 288 360"><defs><style><![CDATA[.svglite line,.svglite polyline,.svglite polygon,.svglite path,.svglite circle{fill:none;stroke:#000000;stroke-linecap:round;stroke-linejoin:round;stroke-miterlimit:10.00}]]></style></defs><rect width="100%" height="100%" style="stroke-linecap:round;stroke-linejoin:round;stroke-miterlimit:10.00;stroke:none;fill:#FFFFFF"/><defs><clipPath id="cpMC4wMHwyODguMDB8MC4wMHwzNjAuMDA="><path d="M0 0h288v360H0z"/></clipPath></defs><g clip-path="url(#cpMC4wMHwyODguMDB8MC4wMHwzNjAuMDA=)"><path d="M0 0h288v360H0z" style="stroke-width:1.07;stroke:none;fill:#FFFFFF"/></g><defs><clipPath id="cpMzIuNjN8MjU4LjExfDE2MC42NnwzMjcuMzc="><path d="M32.63 160.66h225.48v166.71H32.63z"/></clipPath></defs><g clip-path="url(#cpMzIuNjN8MjU4LjExfDE2MC42NnwzMjcuMzc=)"><path d="m247.86 168.24-1.03.74-1.04.73-1.03.73-1.04.74-1.03.73-1.04.74-1.03.73-1.04.73-1.03.74-1.04.73-1.04.74-1.03.73-1.04.73-1.03.74-1.04.73-1.03.74-1.04.73-1.03.73-1.04.74-1.03.73-1.04.74-1.03.73-1.04.73-1.03.74-1.04.73-1.03.74-1.04.73-1.04.73-1.03.74-1.04.73-1.03.74-1.04.73-1.03.73-1.04.74-1.03.73-1.04.74-1.03.73-1.04.74-1.03.73-1.04.73-1.03.74-1.04.73-1.03.74-1.04.73-1.03.73-1.04.74-1.04.73-1.03.74-1.04.73-1.03.73-1.04.74-1.03.73-1.04.74-1.03.73-1.04.73-1.03.74-1.04.73-1.03.74-1.04.73-1.03.73-1.04.74-1.03.73-1.04.74-1.04.73-1.03.73-1.04.74-1.03.73-1.04.74-1.03.73-1.04.73-1.03.74-1.04.73-1.03.74-1.04.73-1.03.73-1.04.74-1.03.73-1.04.74-1.03.73-1.04.73-1.03.74-1.04.73-1.04.74-1.03.73-1.04.73-1.03.74-1.04.73-1.03.74-1.04.73-1.03.73-1.04.74-1.03.73-1.04.74-1.03.73-1.04.73-1.03.74-1.04.73-1.03.74-1.04.73M42.88 313.58l1.11.56 1.12.53 1.11.51 1.11.48 1.11.45 1.11.43 1.11.4 1.1.38 1.1.34 1.1.33 1.1.29 1.1.27 1.1.25 1.09.21 1.1.19 1.09.17 1.09.13 1.09.11 1.08.09 1.09.06 1.08.03h1.08l1.08-.02 1.08-.04 1.08-.08 1.07-.1 1.07-.12 1.08-.16 1.07-.18 1.06-.2 1.07-.24 1.07-.25 1.06-.29 1.06-.31 1.06-.34 1.06-.36 1.06-.39 1.05-.42 1.06-.44 1.05-.47 1.05-.5 1.05-.52 1.04-.55 1.05-.58 1.04-.6 1.04-.63 1.04-.65 1.04-.68 1.04-.71 1.03-.74 1.04-.76 1.03-.78 1.03-.82 1.03-.84 1.03-.86 1.02-.89 1.02-.92 1.03-.95 1.02-.97 1.02-1 1.01-1.02 1.02-1.05 1.01-1.08 1.01-1.1 1.02-1.13 1-1.16 1.01-1.18 1.01-1.21 1-1.24 1-1.26 1-1.29 1-1.31 1-1.35 1-1.36.99-1.4.99-1.42.99-1.44.99-1.48.99-1.5.98-1.52.99-1.56.98-1.58.98-1.6.98-1.63.98-1.66.97-1.69.98-1.71.97-1.73.97-1.77.97-1.79.97-1.82.96-1.84.97-1.87.96-1.89.96-1.93.96-1.94.96-1.98.96-2 .95-2.03" style="stroke-width:1.07;stroke:#000000;stroke-opacity:0.10;stroke-linecap:butt"/><path d="m42.88 313.58 1.06-.31 1.06-.31 1.06-.32 1.06-.33 1.06-.34 1.06-.34 1.06-.36 1.06-.36 1.06-.38 1.05-.38 1.06-.39 1.06-.4 1.05-.41 1.06-.41 1.05-.43 1.06-.43 1.05-.45 1.05-.45 1.06-.46 1.05-.47 1.05-.48 1.05-.49 1.05-.49 1.05-.51 1.05-.51 1.05-.52 1.04-.54 1.05-.54 1.05-.55 1.05-.55 1.04-.57 1.05-.58 1.04-.58 1.04-.59 1.05-.61 1.04-.61 1.04-.62 1.05-.62 1.04-.64 1.04-.65 1.04-.65 1.04-.67 1.04-.67 1.04-.68 1.03-.69 1.04-.7 1.04-.71 1.03-.71 1.04-.73 1.04-.73 1.03-.74 1.03-.76 1.04-.76 1.03-.76 1.03-.78 1.04-.79 1.03-.8 1.03-.8 1.03-.81 1.03-.82 1.03-.84 1.03-.84 1.02-.84 1.03-.86 1.03-.87 1.03-.87 1.02-.89 1.03-.89 1.02-.9 1.03-.91 1.02-.92 1.02-.93 1.03-.93 1.02-.95 1.02-.95 1.02-.96 1.02-.98 1.02-.98 1.02-.99 1.02-.99 1.02-1.01 1.01-1.02 1.02-1.02 1.02-1.03 1.01-1.05 1.02-1.05 1.01-1.06 1.02-1.06 1.01-1.08 1.02-1.09 1.01-1.09 1.01-1.11 1.01-1.11 1.01-1.12 1.01-1.13 1.01-1.14 1.01-1.15 1.01-1.15 1.01-1.17M42.88 313.58l1.01-1.17 1-1.16 1.01-1.14 1.01-1.14 1.01-1.13 1.02-1.12 1.01-1.12 1.01-1.1 1.01-1.09 1.01-1.09 1.02-1.08 1.01-1.07 1.02-1.06 1.01-1.05 1.02-1.04 1.02-1.03 1.01-1.03 1.02-1.01 1.02-1.01 1.02-1 1.02-.99 1.02-.98 1.02-.97 1.02-.96 1.02-.96 1.02-.94 1.02-.94 1.03-.93 1.02-.91 1.03-.91 1.02-.91 1.03-.89 1.02-.88 1.03-.88 1.03-.86 1.02-.86 1.03-.85 1.03-.84 1.03-.83 1.03-.82 1.03-.81 1.03-.81 1.03-.79 1.03-.79 1.04-.78 1.03-.77 1.03-.76 1.04-.75 1.03-.74 1.04-.74 1.03-.72 1.04-.72 1.04-.71 1.03-.69 1.04-.69 1.04-.69 1.04-.67 1.04-.66 1.04-.66 1.04-.64 1.04-.64 1.04-.63 1.05-.62 1.04-.61 1.04-.6 1.05-.59 1.04-.59 1.05-.57 1.04-.57 1.05-.56 1.04-.55 1.05-.54 1.05-.53 1.05-.52 1.05-.52 1.05-.5 1.05-.5 1.05-.48 1.05-.48 1.05-.47 1.05-.46 1.06-.46 1.05-.44 1.05-.43 1.06-.43 1.05-.42 1.06-.41 1.06-.4 1.05-.39 1.06-.38 1.06-.37 1.06-.37 1.05-.35 1.06-.35 1.06-.34 1.06-.32 1.07-.32 1.06-.32 1.06-.3" style="stroke-width:1.07;stroke:#000000;stroke-opacity:0.10;stroke-linecap:butt"/><path d="m42.88 313.58.95-2.03.96-2 .95-1.98.96-1.95.97-1.92.96-1.9.96-1.86.97-1.85.97-1.81.96-1.79.98-1.77.97-1.74.97-1.71.98-1.68.98-1.66.97-1.63.99-1.61.98-1.58.98-1.55.99-1.53.99-1.49.98-1.48 1-1.45.99-1.42.99-1.39 1-1.37.99-1.34 1-1.31 1-1.29 1.01-1.26 1-1.24 1.01-1.21 1-1.18 1.01-1.16 1.01-1.13 1.01-1.1 1.02-1.08 1.01-1.05 1.02-1.03 1.02-.99 1.02-.98 1.02-.94 1.03-.92 1.02-.89 1.03-.87 1.03-.84 1.03-.81 1.03-.79 1.03-.76 1.04-.73 1.03-.71 1.04-.68 1.04-.66 1.05-.62 1.04-.61 1.04-.57 1.05-.55 1.05-.52 1.05-.5 1.05-.47 1.06-.44 1.05-.42 1.06-.39 1.06-.36 1.06-.34 1.06-.31 1.06-.29 1.07-.26 1.06-.23 1.07-.21 1.07-.18 1.07-.15 1.08-.13 1.07-.1 1.08-.07 1.08-.05 1.07-.02 1.09.01 1.08.03 1.08.06 1.09.08 1.09.11 1.09.14 1.09.16 1.09.19 1.1.22 1.09.24 1.1.27 1.1.3 1.1.32 1.11.35 1.1.38 1.11.4 1.11.43 1.11.45 1.11.48 1.11.51 1.11.53 1.12.56" style="stroke-width:1.07;stroke:#000000;stroke-opacity:0.10;stroke-linecap:butt"/><path d="m247.86 166.03 1.92 3.32h-3.83zM42.88 304.18l8.13 14.09H34.74z" style="stroke-width:0.71;stroke:none;fill:#00BFC4"/><circle cx="145.37" cy="240.91" r="6.76" style="stroke-width:0.71;stroke:none;fill:#F8766D"/><path d="m241.86 172.79 5.06-3.84m-95.59 67.42-5.02 3.83" style="stroke-width:0.53;stroke:#BFBFBF"/><path d="M188.17 192.27h64.18l-.09-.01.35-.01.34-.07.32-.12.3-.18.27-.22.23-.26.19-.29.14-.32.08-.34.03-.34h0v-15.16h0l-.03-.35-.08-.33-.14-.32-.19-.3-.23-.26-.27-.22-.3-.17-.32-.13-.34-.06-.26-.02h-64.18l.26.02-.35-.02-.35.04-.33.1-.31.15-.29.2-.25.24-.21.28-.16.3-.11.33-.06.35v15.33-.18.35l.06.34.11.33.16.31.21.28.25.24.29.2.31.15.33.09.35.04z" style="stroke-width:0.53;fill:#FFFFFF;fill-opacity:0.50"/><text x="220.26" y="180.47" lengthAdjust="spacingAndGlyphs" style="font-size:5.69px;font-family:Arial" text-anchor="middle" textLength="61.3">B &amp; B INVESTMENTS 2</text><text x="220.26" y="188.67" lengthAdjust="spacingAndGlyphs" style="font-size:5.69px;font-family:Arial" text-anchor="middle" textLength="10.43">LLC</text><path d="M49.97 323.31h66.4-.09l.35-.01.34-.07.33-.12.3-.18.27-.22.23-.26.18-.29.14-.32.08-.34.03-.35h0V306h0l-.03-.35-.08-.34-.14-.32-.18-.29-.23-.26-.27-.22-.3-.17-.33-.13-.34-.07-.26-.01h-66.4l.26.01-.34-.01-.35.04-.33.1-.32.15-.28.2-.25.24-.21.27-.16.31-.11.33-.06.34-.01.18v15.15l.01-.17v.35l.06.34.11.33.16.31.21.28.25.24.28.2.32.14.33.1.35.04z" style="stroke-width:0.53;fill:#FFFFFF;fill-opacity:0.50"/><text x="83.17" y="311.52" lengthAdjust="spacingAndGlyphs" style="font-size:5.69px;font-family:Arial" text-anchor="middle" textLength="63.52">AYANTADE PROPERTY</text><text x="83.17" y="319.71" lengthAdjust="spacingAndGlyphs" style="font-size:5.69px;font-family:Arial" text-anchor="middle" textLength="29.38">MGMT LLC</text><path d="M134.83 236.37h70.79-.08l.34-.01.34-.07.33-.13.3-.17.27-.22.23-.26.19-.29.13-.32.08-.34.03-.35h0v-23.35h0l-.03-.34-.08-.34-.13-.32-.19-.3-.23-.26-.27-.22-.3-.17-.33-.12-.34-.07-.26-.02h-70.79l.26.02-.35-.02-.35.05-.33.09-.31.15-.29.2-.25.24-.21.28-.16.31-.11.33-.06.34v23.52-.17.35l.06.34.11.33.16.31.21.28.25.24.29.19.31.15.33.1.35.04z" style="stroke-width:0.53;fill:#FFFFFF;fill-opacity:0.50"/><text x="170.22" y="216.38" lengthAdjust="spacingAndGlyphs" style="font-size:5.69px;font-family:Arial" text-anchor="middle" textLength="67.92">5464 N PT WASHINGTON</text><text x="170.22" y="224.58" lengthAdjust="spacingAndGlyphs" style="font-size:5.69px;font-family:Arial" text-anchor="middle" textLength="51.8">RD, GLENDALE, WI</text><text x="170.22" y="232.77" lengthAdjust="spacingAndGlyphs" style="font-size:5.69px;font-family:Arial" text-anchor="middle" textLength="15.8">53217</text></g><g clip-path="url(#cpMC4wMHwyODguMDB8MC4wMHwzNjAuMDA=)"><circle cx="87.34" cy="135.59" r="1.95" style="stroke-width:0.71;stroke:none;fill:#F8766D"/><path d="m163.7 132.55 2.63 4.56h-5.26z" style="stroke-width:0.71;stroke:none;fill:#00BFC4"/><text x="101.46" y="138.74" lengthAdjust="spacingAndGlyphs" style="font-size:8.80px;font-family:Arial Narrow" textLength="48.12">mprop address</text><text x="177.82" y="138.74" lengthAdjust="spacingAndGlyphs" style="font-size:8.80px;font-family:Arial Narrow" textLength="39.69">owner name</text><text x="32.63" y="104" lengthAdjust="spacingAndGlyphs" style="font-size:12.00px;font-family:Arial Narrow" textLength="246.76">includes 5 parcels, 16 units, and 2 distinct owner names.</text><text x="32.63" y="42.78" lengthAdjust="spacingAndGlyphs" style="font-size:18.00px;font-weight:bold;font-family:Arial Narrow" textLength="245.21">AYANTADE PROPERTY MGMT LLC</text><text x="32.63" y="62.22" lengthAdjust="spacingAndGlyphs" style="font-size:18.00px;font-weight:bold;font-family:Arial Narrow" textLength="208.26">-- B &amp; B INVESTMENTS 2 LLC</text><text x="32.63" y="81.66" lengthAdjust="spacingAndGlyphs" style="font-size:18.00px;font-weight:bold;font-family:Arial Narrow" textLength="44.27">Group</text></g></svg>