<svg xmlns="http://www.w3.org/2000/svg" width="576" height="672" class="svglite" viewBox="0 0 432 504"><defs><style><![CDATA[.svglite line,.svglite polyline,.svglite polygon,.svglite path,.svglite circle{fill:none;stroke:#000000;stroke-linecap:round;stroke-linejoin:round;stroke-miterlimit:10.00}]]></style></defs><rect width="100%" height="100%" style="stroke-linecap:round;stroke-linejoin:round;stroke-miterlimit:10.00;stroke:none;fill:#FFFFFF"/><defs><clipPath id="cpMC4wMHw0MzIuMDB8MC4wMHw1MDQuMDA="><path d="M0 0h432v504H0z"/></clipPath></defs><g clip-path="url(#cpMC4wMHw0MzIuMDB8MC4wMHw1MDQuMDA=)"><path d="M0 0h432v504H0z" style="stroke-width:1.07;stroke:none;fill:#FFFFFF"/></g><defs><clipPath id="cpMzIuNjN8NDAyLjExfDE0MS4yMnw0NzEuMzc="><path d="M32.63 141.22h369.48v330.15H32.63z"/></clipPath></defs><g clip-path="url(#cpMzIuNjN8NDAyLjExfDE0MS4yMnw0NzEuMzc=)"><path d="m385.32 156.23-.85.76-.85.76-.85.75-.85.76-.84.76-.85.76-.85.76-.85.75-.85.76-.85.76-.84.76-.85.76-.85.75-.85.76-.85.76-.84.76-.85.76-.85.75-.85.76-.85.76-.85.76-.84.75-.85.76-.85.76-.85.76-.85.76-.85.75-.84.76-.85.76-.85.76-.85.76-.85.75-.84.76-.85.76-.85.76-.85.75-.85.76-.85.76-.84.76-.85.76-.85.75-.85.76-.85.76-.85.76-.84.76-.85.75-.85.76-.85.76-.85.76-.84.76-.85.75-.85.76-.85.76-.85.76-.85.75-.84.76-.85.76-.85.76-.85.76-.85.75-.85.76-.84.76-.85.76-.85.76-.85.75-.85.76-.84.76-.85.76-.85.76-.85.75-.85.76-.85.76-.84.76-.85.75-.85.76-.85.76-.85.76-.85.76-.84.75-.85.76-.85.76-.85.76-.85.76-.84.75-.85.76-.85.76-.85.76-.85.76-.85.75-.84.76-.85.76-.85.76-.85.75-.85.76-.85.76-.84.76-.85.76-.85.75-.85.76M133.39 381.33l-.84.76-.85.75-.85.76-.85.76-.85.76-.85.76-.84.75-.85.76-.85.76-.85.76-.85.76-.84.75-.85.76-.85.76-.85.76-.85.76-.85.75-.84.76-.85.76-.85.76-.85.76-.85.75-.84.76-.85.76-.85.76-.85.76-.85.75-.85.76-.84.76-.85.76-.85.76-.85.75-.85.76-.84.76-.85.76-.85.75-.85.76-.85.76-.85.76-.84.76-.85.75-.85.76-.85.76-.85.76-.84.76-.85.75-.85.76-.85.76-.85.76-.85.76-.84.75-.85.76-.85.76-.85.76-.85.76-.85.75-.84.76-.85.76-.85.76-.85.76-.85.75-.84.76-.85.76-.85.76-.85.76-.85.75-.85.76-.84.76-.85.76-.85.76-.85.75-.85.76-.84.76-.85.76-.85.75-.85.76-.85.76-.85.76-.84.76-.85.75-.85.76-.85.76-.85.76-.84.76-.85.75-.85.76-.85.76-.85.76-.85.76-.84.75-.85.76-.85.76-.85.76-.85.76-.84.75-.85.76-.85.76-.85.76-.85.76m83.97-75.04.85-.76.85-.76.85-.76.85-.75.85-.76.84-.76.85-.76.85-.75.85-.76.85-.76.84-.76.85-.76.85-.75.85-.76.85-.76.85-.76.84-.76.85-.75.85-.76.85-.76.85-.76.84-.76.85-.75.85-.76.85-.76.85-.76.85-.76.84-.75.85-.76.85-.76.85-.76.85-.76.84-.75.85-.76.85-.76.85-.76.85-.76.85-.75.84-.76.85-.76.85-.76.85-.75.85-.76.85-.76.84-.76.85-.76.85-.75.85-.76.85-.76.84-.76.85-.76.85-.75.85-.76.85-.76.85-.76.84-.76.85-.75.85-.76.85-.76.85-.76.84-.76.85-.75.85-.76.85-.76.85-.76.85-.76.84-.75.85-.76.85-.76.85-.76.85-.75.85-.76.84-.76.85-.76.85-.76.85-.75.85-.76.84-.76.85-.76.85-.76.85-.75.85-.76.85-.76.84-.76.85-.76.85-.75.85-.76.85-.76.84-.76.85-.76.85-.75.85-.76.85-.76.85-.76.84-.76.85-.75.85-.76.85-.76.85-.76m0 0 .84-.76.85-.75.85-.76.85-.76.85-.76.85-.75.84-.76.85-.76.85-.76.85-.76.85-.75.85-.76.84-.76.85-.76.85-.76.85-.75.85-.76.84-.76.85-.76.85-.75.85-.76.85-.76.85-.76.84-.76.85-.75.85-.76.85-.76.85-.76.85-.76.84-.75.85-.76.85-.76.85-.76.85-.76.84-.75.85-.76.85-.76.85-.76.85-.75.85-.76.84-.76.85-.76.85-.76.85-.75.85-.76.85-.76.84-.76.85-.76.85-.75.85-.76.85-.76.84-.76.85-.76.85-.75.85-.76.85-.76.85-.76.84-.75.85-.76.85-.76.85-.76.85-.76.85-.75.84-.76.85-.76.85-.76.85-.76.85-.75.84-.76.85-.76.85-.76.85-.76.85-.75.85-.76.84-.76.85-.76.85-.75.85-.76.85-.76.85-.76.84-.76.85-.75.85-.76.85-.76.85-.76.84-.76.85-.75.85-.76.85-.76.85-.76.85-.76.84-.75.85-.76.85-.76.85-.76.85-.75.85-.76.84-.76.85-.76" style="stroke-width:1.07;stroke:#000000;stroke-opacity:0.10;stroke-linecap:butt"/><path d="m385.32 148.15 6.99 12.12h-13.99zm-251.93 225.1 7 12.12H126.4z" style="stroke-width:0.71;stroke:none;fill:#00BA38"/><path d="M212.17 311.49h10.39V301.1h-10.39z" style="stroke-width:0.71;stroke:none;fill:#619CFF"/><circle cx="301.34" cy="231.26" r="5.19" style="stroke-width:0.71;stroke:none;fill:#F8766D"/><circle cx="49.42" cy="456.37" r="5.19" style="stroke-width:0.71;stroke:none;fill:#F8766D"/><path d="m128.6 386.03 3.98-3.9m89.76-80.51-4.14 3.89m88.1-78.9-4.12 3.87" style="stroke-width:0.53;stroke:#BFBFBF"/><path d="M314.82 165.95h63.53-.09l.35-.02.34-.07.32-.12.31-.17.27-.22.23-.26.18-.3.14-.32.08-.34.03-.34h0v-15.16h0l-.03-.34-.08-.34-.14-.32-.18-.3-.23-.26-.27-.22-.31-.17-.32-.12-.34-.07-.26-.02h-63.53l.26.02-.35-.02-.35.05-.33.09-.31.15-.29.2-.25.24-.21.28-.16.3-.11.33-.06.35v15.33-.18.35l.06.35.11.32.16.31.21.28.25.24.29.2.31.15.33.09.35.05z" style="stroke-width:0.53;fill:#FFFFFF;fill-opacity:0.50"/><text x="346.58" y="154.15" lengthAdjust="spacingAndGlyphs" style="font-size:5.69px;font-family:Arial" text-anchor="middle" textLength="60.65">MABURA JAHAN BINTI</text><text x="346.58" y="162.35" lengthAdjust="spacingAndGlyphs" style="font-size:5.69px;font-family:Arial" text-anchor="middle" textLength="32.86">FAZER AHM</text><path d="M87.49 397.32h68.6l-.08-.01.34-.01.34-.07.33-.12.3-.18.27-.22.23-.26.19-.29.13-.32.09-.34.02-.34h0v-6.97h0l-.02-.34-.09-.34-.13-.32-.19-.29-.23-.26-.27-.22-.3-.18-.33-.12-.34-.07-.26-.02h-68.6l.26.02-.34-.01-.35.04-.33.09-.32.15-.28.2-.25.24-.21.28-.16.31-.11.33-.06.34-.01.17v6.97l.01-.18v.35l.06.34.11.33.16.31.21.28.25.24.28.2.32.15.33.09.35.04z" style="stroke-width:0.53;fill:#FFFFFF;fill-opacity:0.50"/><text x="121.79" y="393.72" lengthAdjust="spacingAndGlyphs" style="font-size:5.69px;font-family:Arial" text-anchor="middle" textLength="65.72">AYUB PROPERTIES LLC</text><path d="M201.27 301.62h64.49-.09l.35-.02.34-.07.32-.12.3-.17.27-.22.23-.26.19-.3.14-.32.08-.33.03-.35h0V284.3h0l-.03-.34-.08-.34-.14-.32-.19-.3-.23-.26-.27-.22-.3-.17-.32-.12-.34-.07-.26-.02h-64.49l.26.02-.35-.02-.35.05-.33.09-.31.15-.29.2-.25.24-.21.28-.16.31-.11.33-.06.34v15.33-.17.34l.06.35.11.33.16.3.21.28.25.24.29.2.31.15.33.1.35.04z" style="stroke-width:0.53;fill:#FFFFFF;fill-opacity:0.50"/><text x="233.51" y="289.82" lengthAdjust="spacingAndGlyphs" style="font-size:5.69px;font-family:Arial" text-anchor="middle" textLength="50.87">2411 TRIPOLI AVE,</text><text x="233.51" y="298.02" lengthAdjust="spacingAndGlyphs" style="font-size:5.69px;font-family:Arial" text-anchor="middle" textLength="61.61">MILWAUKEE, WI 53221</text><path d="M285.21 226.61h64.49-.09l.35-.02.34-.07.32-.12.3-.17.27-.22.23-.26.19-.3.13-.32.09-.33.03-.35h0v-15.16h0l-.03-.34-.09-.34-.13-.32-.19-.29-.23-.26-.27-.22-.3-.18-.32-.12-.34-.07-.26-.02h-64.49l.26.02-.35-.01-.35.04-.33.09-.31.15-.29.2-.25.24-.21.28-.16.31-.11.33-.06.34v15.33-.17.34l.06.35.11.33.16.3.21.28.25.24.29.2.31.15.33.1.35.04z" style="stroke-width:0.53;fill:#FFFFFF;fill-opacity:0.50"/><text x="317.45" y="214.82" lengthAdjust="spacingAndGlyphs" style="font-size:5.69px;font-family:Arial" text-anchor="middle" textLength="50.87">2411 TRIPOLI AVE,</text><text x="317.45" y="223.01" lengthAdjust="spacingAndGlyphs" style="font-size:5.69px;font-family:Arial" text-anchor="middle" textLength="61.61">MILWAUKEE, WI 53221</text><path d="M56.26 466.1h64.49-.09l.35-.02.34-.07.32-.12.3-.17.27-.22.23-.26.19-.3.14-.32.08-.34.03-.34h0v-15.16h0l-.03-.34-.08-.34-.14-.32-.19-.3-.23-.26-.27-.22-.3-.17-.32-.12-.34-.07-.26-.02H56.26l.26.02-.35-.02-.35.05-.33.09-.31.15-.29.2-.25.24-.21.28-.16.3-.11.33-.06.35v15.33-.18.35l.06.35.11.32.16.31.21.28.25.24.29.2.31.15.33.09.35.05z" style="stroke-width:0.53;fill:#FFFFFF;fill-opacity:0.50"/><text x="88.5" y="454.3" lengthAdjust="spacingAndGlyphs" style="font-size:5.69px;font-family:Arial" text-anchor="middle" textLength="57.82">2411 W TRIPOLI AVE,</text><text x="88.5" y="462.5" lengthAdjust="spacingAndGlyphs" style="font-size:5.69px;font-family:Arial" text-anchor="middle" textLength="61.61">MILWAUKEE, WI 53221</text></g><g clip-path="url(#cpMC4wMHw0MzIuMDB8MC4wMHw1MDQuMDA=)"><circle cx="124.98" cy="116.15" r="1.95" style="stroke-width:0.71;stroke:none;fill:#F8766D"/><path d="m201.33 113.11 2.63 4.56h-5.26z" style="stroke-width:0.71;stroke:none;fill:#00BA38"/><path d="M267.31 118.1h3.91v-3.91h-3.91z" style="stroke-width:0.71;stroke:none;fill:#619CFF"/><text x="139.09" y="119.3" lengthAdjust="spacingAndGlyphs" style="font-size:8.80px;font-family:Arial Narrow" textLength="48.12">mprop address</text><text x="215.45" y="119.3" lengthAdjust="spacingAndGlyphs" style="font-size:8.80px;font-family:Arial Narrow" textLength="39.69">owner name</text><text x="283.38" y="119.3" lengthAdjust="spacingAndGlyphs" style="font-size:8.80px;font-family:Arial Narrow" textLength="40.5">wdfi address</text><text x="32.63" y="84.56" lengthAdjust="spacingAndGlyphs" style="font-size:12.00px;font-family:Arial Narrow" textLength="241.29">includes 2 parcels, 7 units, and 2 distinct owner names.</text><text x="32.63" y="42.78" lengthAdjust="spacingAndGlyphs" style="font-size:18.00px;font-weight:bold;font-family:Arial Narrow" textLength="353.12">AYUB PROPERTIES LLC -- MABURA JAHAN BINTI</text><text x="32.63" y="62.22" lengthAdjust="spacingAndGlyphs" style="font-size:18.00px;font-weight:bold;font-family:Arial Narrow" textLength="133.93">FAZER AHM Group</text></g></svg>