<svg xmlns="http://www.w3.org/2000/svg" width="576" height="672" viewBox="0 0 432 504"><g class="svglite"><defs><style><![CDATA[.svglite line,.svglite polyline,.svglite polygon,.svglite path,.svglite circle{fill:none;stroke:#000000;stroke-linecap:round;stroke-linejoin:round;stroke-miterlimit:10.00}.svglite text{white-space:pre}.svglite g.glyphgroup path{fill:inherit;stroke:none}]]></style></defs><rect width="100%" height="100%" style="stroke-linecap:round;stroke-linejoin:round;stroke-miterlimit:10.00;stroke:none;fill:#FFFFFF"/><defs><clipPath id="cpMC4wMHw0MzIuMDB8MC4wMHw1MDQuMDA="><path d="M0 0h432v504H0z"/></clipPath></defs><g clip-path="url(#cpMC4wMHw0MzIuMDB8MC4wMHw1MDQuMDA=)"><path d="M0 0h432v504H0z" style="stroke-width:1.07;stroke:none;fill:#FFFFFF"/></g><defs><clipPath id="cpMjkuODl8NDAyLjExfDE2MS4wMnw0NzQuMTE="><path d="M29.89 161.02h372.22v313.09H29.89z"/></clipPath></defs><g clip-path="url(#cpMjkuODl8NDAyLjExfDE2MS4wMnw0NzQuMTE=)"><path d="m110.99 459.88.68-1.26.69-1.26.67-1.26.67-1.27.67-1.27.66-1.27.66-1.27.66-1.27.64-1.28.65-1.28.64-1.28.64-1.29.63-1.28.63-1.29.62-1.3.62-1.29.61-1.3.61-1.29.61-1.31.6-1.3.59-1.31.59-1.3.59-1.31.59-1.32.57-1.31.58-1.32.57-1.32.56-1.32.56-1.33.56-1.33.55-1.33.55-1.33.54-1.33.54-1.34.54-1.34.53-1.34.52-1.34.52-1.35.52-1.35.51-1.35.51-1.35.5-1.36.5-1.36.5-1.36.49-1.36.48-1.36.48-1.37.48-1.37.47-1.37.47-1.38.46-1.38.46-1.38.46-1.38.45-1.38.44-1.39.45-1.39.43-1.39.44-1.39.42-1.4.43-1.4.42-1.4.41-1.4.41-1.41.41-1.4.4-1.41.4-1.42.39-1.41.39-1.42.38-1.42.38-1.42.38-1.43.37-1.42.36-1.43.36-1.43.36-1.44.35-1.43.35-1.44.35-1.44.34-1.45.33-1.44.33-1.45.33-1.45.32-1.46.32-1.45.31-1.46.31-1.46.3-1.46.3-1.47.3-1.46.29-1.47.29-1.48.28-1.47.28-1.48.27-1.48.27-1.48.26-1.48.26-1.49.26-1.49.25-1.49m-46.33 136.1-.5-1.12-.5-1.11-.5-1.12-.51-1.11-.51-1.1-.51-1.1-.51-1.1-.52-1.1-.53-1.09-.52-1.09-.53-1.09-.53-1.08-.53-1.08-.54-1.08-.54-1.07-.54-1.07-.55-1.07-.55-1.06-.55-1.06-.56-1.06-.56-1.05-.56-1.05-.56-1.05-.57-1.04-.57-1.04-.58-1.04-.58-1.03-.58-1.03-.58-1.03-.59-1.02-.59-1.02-.59-1.02-.59-1.01-.6-1.01-.61-1.01-.6-1.01-.61-1-.61-.99-.61-1-.62-.99-.62-.99-.63-.98-.62-.98-.63-.98-.64-.97-.63-.98-.64-.96-.64-.97-.65-.96-.65-.96-.65-.95-.65-.95-.66-.95-.66-.95-.66-.94-.67-.94-.67-.93-.67-.93-.68-.93-.68-.93-.68-.92-.69-.92-.69-.91-.69-.92-.69-.9-.7-.91-.7-.9-.7-.9-.71-.9-.71-.89-.71-.89-.72-.88-.72-.89-.72-.88-.73-.87-.73-.87-.73-.87-.73-.87-.74-.86-.74-.86-.74-.86-.75-.85-.75-.85-.75-.85-.76-.84-.76-.84-.76-.84-.77-.83-.77-.83-.77-.82-.77-.83-.78-.82-.78-.81-.79-.82-.78-.81-.79-.81-.8-.8-.79-.8-.8-.8" style="stroke-width:1.07;stroke:#000000;stroke-opacity:0.10;stroke-linecap:butt"/><path d="m110.99 459.88.47-1.37.47-1.38.46-1.37.47-1.38.47-1.37.47-1.38.47-1.37.46-1.38.47-1.37.47-1.38.47-1.37.47-1.38.46-1.37.47-1.38.47-1.37.47-1.37.47-1.38.46-1.37.47-1.38.47-1.37.47-1.38.47-1.37.46-1.38.47-1.37.47-1.38.47-1.37.46-1.38.47-1.37.47-1.38.47-1.37.47-1.38.46-1.37.47-1.38.47-1.37.47-1.37.47-1.38.46-1.37.47-1.38.47-1.37.47-1.38.47-1.37.46-1.38.47-1.37.47-1.38.47-1.37.47-1.38.46-1.37.47-1.38.47-1.37.47-1.38.47-1.37.46-1.37.47-1.38.47-1.37.47-1.38.47-1.37.46-1.38.47-1.37.47-1.38.47-1.37.47-1.38.46-1.37.47-1.38.47-1.37.47-1.38.47-1.37.46-1.38.47-1.37.47-1.37.47-1.38.47-1.37.46-1.38.47-1.37.47-1.38.47-1.37.46-1.38.47-1.37.47-1.38.47-1.37.47-1.38.46-1.37.47-1.38.47-1.37.47-1.38.47-1.37.46-1.38.47-1.37.47-1.37.47-1.38.47-1.37.46-1.38.47-1.37.47-1.38.47-1.37.47-1.38.46-1.37.47-1.38.47-1.37.47-1.38m-46.33 136.1-.65-.96-.65-.96-.64-.95-.65-.96-.65-.96-.65-.96-.65-.96-.65-.95-.64-.96-.65-.96-.65-.96-.65-.96-.65-.95-.65-.96-.64-.96-.65-.96-.65-.96-.65-.95-.65-.96-.65-.96-.64-.96-.65-.96-.65-.95-.65-.96-.65-.96-.65-.96-.64-.96-.65-.95-.65-.96-.65-.96-.65-.96-.65-.96-.64-.96-.65-.95-.65-.96-.65-.96-.65-.96-.65-.96-.64-.95-.65-.96-.65-.96-.65-.96-.65-.96-.65-.95-.64-.96-.65-.96-.65-.96-.65-.96-.65-.95-.65-.96-.64-.96-.65-.96-.65-.96-.65-.95-.65-.96-.65-.96-.64-.96-.65-.96-.65-.95-.65-.96-.65-.96-.65-.96-.64-.96-.65-.95-.65-.96-.65-.96-.65-.96-.65-.96-.64-.95-.65-.96-.65-.96-.65-.96-.65-.96-.65-.96-.64-.95-.65-.96-.65-.96-.65-.96-.65-.96-.64-.95-.65-.96-.65-.96-.65-.96-.65-.96-.65-.95-.64-.96-.65-.96-.65-.96-.65-.96-.65-.95-.65-.96-.64-.96-.65-.96-.65-.96-.65-.95-.65-.96-.65-.96-.64-.96-.65-.96" style="stroke-width:1.07;stroke:#000000;stroke-opacity:0.10;stroke-linecap:butt"/><path d="m110.99 459.88.25-1.49.26-1.49.26-1.49.26-1.48.27-1.48.27-1.48.28-1.48.28-1.47.29-1.47.29-1.47.29-1.47.3-1.46.31-1.47.31-1.46.31-1.45.32-1.46.32-1.45.33-1.45.33-1.45.33-1.45.34-1.44.35-1.44.34-1.44.36-1.44.35-1.43.37-1.43.36-1.43.37-1.43.38-1.42.38-1.43.38-1.42.39-1.41.39-1.42.4-1.41.4-1.41.41-1.41.41-1.41.41-1.4.42-1.4.42-1.4.43-1.39.44-1.4.43-1.39.44-1.39.45-1.38.45-1.39.45-1.38.46-1.38.47-1.38.47-1.37.47-1.37.47-1.37.49-1.37.48-1.37.49-1.36.5-1.36.49-1.36.51-1.35.51-1.36.51-1.35.51-1.35.53-1.34.52-1.35.53-1.34.54-1.34.53-1.33.55-1.34.55-1.33.55-1.33.55-1.33.56-1.32.57-1.32.57-1.33.57-1.31.58-1.32.59-1.31.58-1.31.6-1.31.59-1.31.6-1.3.61-1.3.61-1.3.61-1.3.62-1.29.62-1.29.63-1.29.63-1.29.64-1.28.64-1.28.64-1.28.65-1.28.66-1.28.66-1.27.66-1.27.67-1.27.67-1.26.67-1.27.68-1.26.69-1.26m-46.33 136.1-.8-.8-.8-.8-.79-.8-.79-.81-.79-.81-.78-.81-.78-.82-.78-.82-.77-.82-.78-.83-.76-.83-.77-.83-.76-.84-.76-.84-.76-.84-.75-.85-.75-.85-.75-.85-.74-.85-.74-.86-.74-.87-.74-.86-.73-.87-.73-.87-.72-.88-.72-.88-.72-.88-.72-.89-.71-.89-.71-.89-.71-.89-.7-.9-.7-.91-.7-.9-.7-.91-.69-.91-.69-.92-.68-.92-.68-.92-.68-.92-.68-.93-.67-.93-.67-.94-.67-.94-.66-.94-.66-.94-.66-.95-.66-.95-.65-.96-.64-.96-.65-.96-.64-.96-.64-.97-.64-.97-.63-.98-.63-.97-.63-.98-.62-.99-.62-.99-.62-.99-.61-.99-.61-1-.61-1-.61-1-.6-1.01-.6-1.01-.59-1.02-.6-1.01-.59-1.02-.58-1.03-.59-1.02-.58-1.03-.57-1.04-.58-1.03-.57-1.05-.57-1.04-.56-1.05-.56-1.05-.56-1.05-.56-1.06-.55-1.06-.55-1.06-.55-1.07-.54-1.06-.54-1.08-.54-1.07-.53-1.08-.53-1.09-.53-1.08-.53-1.09-.52-1.1-.52-1.09-.51-1.1-.52-1.1-.51-1.11-.5-1.11-.51-1.11-.5-1.12-.49-1.12m228.01-24.72-1.19-.17-1.19-.17-1.18-.16-1.19-.17-1.19-.17-1.18-.16-1.19-.17-1.19-.17-1.19-.16-1.18-.17-1.19-.17-1.19-.16-1.18-.17-1.19-.17-1.19-.17-1.18-.16-1.19-.17-1.19-.17-1.18-.16-1.19-.17-1.19-.17-1.18-.16-1.19-.17-1.19-.17-1.18-.16-1.19-.17-1.19-.17-1.19-.17-1.18-.16-1.19-.17-1.19-.17-1.18-.16-1.19-.17-1.19-.17-1.18-.16-1.19-.17-1.19-.17-1.18-.16-1.19-.17-1.19-.17-1.18-.16-1.19-.17-1.19-.17-1.18-.17-1.19-.16-1.19-.17-1.19-.17-1.18-.16-1.19-.17-1.19-.17-1.18-.16-1.19-.17-1.19-.17-1.18-.16-1.19-.17-1.19-.17-1.18-.17-1.19-.16-1.19-.17-1.18-.17-1.19-.16-1.19-.17-1.19-.17-1.18-.16-1.19-.17-1.19-.17-1.18-.16-1.19-.17-1.19-.17-1.18-.17-1.19-.16-1.19-.17-1.18-.17-1.19-.16-1.19-.17-1.18-.17-1.19-.16-1.19-.17-1.18-.17-1.19-.16-1.19-.17-1.19-.17-1.18-.17-1.19-.16-1.19-.17-1.18-.17-1.19-.16-1.19-.17-1.18-.17-1.19-.16-1.19-.17-1.18-.17-1.19-.16-1.19-.17-1.18-.17-1.19-.17-1.19-.16-1.19-.17-1.18-.17m117.5 16.53 1.11.16 1.12.17 1.11.16 1.12.16 1.11.16 1.12.17 1.11.16 1.12.16 1.11.17 1.12.16 1.11.16 1.12.17 1.11.16 1.12.16 1.11.17 1.12.16 1.11.16 1.12.17 1.11.16 1.11.16 1.12.16 1.11.17 1.12.16 1.11.16 1.12.17 1.11.16 1.12.16 1.11.17 1.12.16 1.11.16 1.12.17 1.11.16 1.12.16 1.11.17 1.12.16 1.11.16 1.12.16 1.11.17 1.12.16 1.11.16 1.12.17 1.11.16 1.12.16 1.11.17 1.12.16 1.11.16 1.12.17 1.11.16 1.12.16 1.11.17 1.12.16 1.11.16 1.12.16 1.11.17 1.12.16 1.11.16 1.12.17 1.11.16 1.12.16 1.11.17 1.12.16 1.11.16 1.12.17 1.11.16 1.12.16 1.11.17 1.12.16 1.11.16 1.12.17 1.11.16 1.12.16 1.11.16 1.12.17 1.11.16 1.11.16 1.12.17 1.11.16 1.12.16 1.11.17 1.12.16 1.11.16 1.12.17 1.11.16 1.12.16 1.11.17 1.12.16 1.11.16 1.12.16 1.11.17 1.12.16 1.11.16 1.12.17 1.11.16 1.12.16 1.11.17 1.12.16 1.11.16 1.12.17 1.11.16" style="stroke-width:1.07;stroke:#000000;stroke-opacity:0.10;stroke-linecap:butt"/><path d="m132.85 175.25.25 1.5.25 1.5.24 1.5.25 1.5.25 1.5.24 1.5.25 1.5.25 1.5.25 1.5.24 1.5.25 1.5.25 1.5.24 1.5.25 1.5.25 1.5.25 1.5.24 1.5.25 1.51.25 1.5.24 1.5.25 1.5.25 1.5.25 1.5.24 1.5.25 1.5.25 1.5.24 1.5.25 1.5.25 1.5.25 1.5.24 1.5.25 1.5.25 1.5.24 1.5.25 1.5.25 1.5.25 1.5.24 1.5.25 1.5.25 1.5.24 1.5.25 1.5.25 1.5.25 1.5.24 1.5.25 1.5.25 1.51.24 1.5.25 1.5.25 1.5.25 1.5.24 1.5.25 1.5.25 1.5.24 1.5.25 1.5.25 1.5.25 1.5.24 1.5.25 1.5.25 1.5.24 1.5.25 1.5.25 1.5.25 1.5.24 1.5.25 1.5.25 1.5.24 1.5.25 1.5.25 1.5.25 1.5.24 1.5.25 1.5.25 1.51.24 1.5.25 1.5.25 1.5.25 1.5.24 1.5.25 1.5.25 1.5.24 1.5.25 1.5.25 1.5.25 1.5.24 1.5.25 1.5.25 1.5.24 1.5.25 1.5.25 1.5.25 1.5.24 1.5.25 1.5.25 1.5.24 1.5.25 1.5.25 1.5M46.81 365.03l1.24.14 1.25.13 1.24.11 1.24.11 1.24.09 1.23.08 1.24.07 1.22.06 1.23.05 1.22.03 1.22.03 1.22.01h1.22l1.21-.01 1.21-.02 1.21-.03 1.2-.04 1.21-.06 1.2-.06 1.19-.08 1.2-.09 1.19-.1 1.19-.11 1.18-.12 1.19-.13 1.18-.15 1.17-.16 1.18-.16 1.17-.18 1.17-.19 1.17-.2 1.16-.22 1.17-.22 1.16-.24 1.15-.24 1.16-.26 1.15-.27 1.15-.28 1.14-.29 1.14-.31 1.15-.31 1.13-.33 1.14-.34 1.13-.34 1.13-.36 1.13-.38 1.12-.38 1.12-.39 1.12-.41 1.12-.42 1.11-.42 1.11-.44 1.11-.45 1.11-.46 1.1-.48 1.1-.48 1.1-.5 1.09-.51 1.09-.51 1.09-.53 1.09-.55 1.08-.55 1.09-.56 1.07-.58 1.08-.58 1.07-.6 1.07-.61 1.07-.62 1.07-.63 1.06-.65 1.06-.65 1.06-.67 1.05-.67 1.05-.69 1.05-.7 1.05-.71 1.04-.72 1.04-.74 1.04-.74 1.04-.76 1.03-.77 1.03-.77 1.03-.79 1.02-.81 1.03-.81 1.02-.82 1.01-.84 1.02-.85 1.01-.85 1.01-.87 1-.88 1.01-.9 1-.9 1-.91.99-.93 1-.94.99-.95.98-.96.99-.97" style="stroke-width:1.07;stroke:#000000;stroke-opacity:0.10;stroke-linecap:butt"/><path d="m46.81 365.03 1.18-.14 1.18-.14 1.18-.15 1.18-.16 1.17-.16 1.18-.17 1.17-.17 1.18-.18 1.17-.18 1.17-.19 1.17-.2 1.16-.2 1.17-.21 1.16-.21 1.17-.22 1.16-.23 1.16-.23 1.16-.23 1.16-.24 1.15-.25 1.16-.25 1.15-.26 1.15-.26 1.16-.27 1.15-.28 1.14-.28 1.15-.29 1.15-.29 1.14-.3 1.14-.3 1.15-.31 1.14-.31 1.14-.32 1.13-.33 1.14-.33 1.13-.34 1.14-.34 1.13-.35 1.13-.36 1.13-.36 1.13-.36 1.13-.37 1.12-.38 1.13-.38 1.12-.39 1.12-.39 1.12-.4 1.12-.41 1.12-.41 1.11-.42 1.12-.42 1.11-.43 1.12-.43 1.11-.44 1.11-.45 1.1-.45 1.11-.45 1.11-.46 1.1-.47 1.1-.48 1.1-.47 1.1-.49 1.1-.49 1.1-.49 1.1-.51 1.09-.5 1.1-.52 1.09-.52 1.09-.52 1.09-.53 1.09-.53 1.08-.55 1.09-.54 1.08-.56 1.09-.55 1.08-.57 1.08-.57 1.08-.57 1.07-.58 1.08-.59 1.07-.59 1.08-.6 1.07-.6 1.07-.61 1.07-.62 1.07-.62 1.06-.62 1.07-.63 1.06-.64 1.07-.64 1.06-.65 1.06-.66 1.05-.66 1.06-.66 1.06-.67 1.05-.68 1.06-.68 1.05-.69 1.05-.7" style="stroke-width:1.07;stroke:#000000;stroke-opacity:0.10;stroke-linecap:butt"/><path d="m46.81 365.03 1.11-.41 1.12-.42 1.12-.42 1.11-.41 1.12-.42 1.11-.42 1.12-.41 1.12-.42 1.11-.42 1.12-.41 1.12-.42 1.11-.42 1.12-.41 1.11-.42 1.12-.42 1.12-.41 1.11-.42 1.12-.42 1.12-.41 1.11-.42 1.12-.42 1.12-.41 1.11-.42 1.12-.42 1.11-.41 1.12-.42 1.12-.42 1.11-.41 1.12-.42 1.12-.42 1.11-.41 1.12-.42 1.11-.42 1.12-.41 1.12-.42 1.11-.42 1.12-.41 1.12-.42 1.11-.42 1.12-.41 1.11-.42 1.12-.42 1.12-.41 1.11-.42 1.12-.42 1.12-.41 1.11-.42 1.12-.42 1.11-.41 1.12-.42 1.12-.42 1.11-.41 1.12-.42 1.12-.42 1.11-.41 1.12-.42 1.11-.42 1.12-.41 1.12-.42 1.11-.42 1.12-.41 1.12-.42 1.11-.42 1.12-.41 1.11-.42 1.12-.42 1.12-.41 1.11-.42 1.12-.42 1.12-.41 1.11-.42 1.12-.42 1.11-.41 1.12-.42 1.12-.42 1.11-.41 1.12-.42 1.12-.42 1.11-.41 1.12-.42 1.12-.42 1.11-.41 1.12-.42 1.11-.42 1.12-.41 1.12-.42 1.11-.42 1.12-.41 1.12-.42 1.11-.42 1.12-.41 1.11-.42 1.12-.42 1.12-.41 1.11-.42 1.12-.42 1.12-.41 1.11-.42 1.12-.42" style="stroke-width:1.07;stroke:#000000;stroke-opacity:0.10;stroke-linecap:butt"/><path d="m46.81 365.03 1.05-.69 1.05-.69 1.05-.68 1.06-.68 1.05-.67 1.06-.67 1.06-.66 1.06-.65 1.06-.65 1.06-.64 1.07-.64 1.06-.63 1.07-.63 1.07-.62 1.07-.61 1.07-.61 1.07-.6 1.07-.6 1.08-.59 1.07-.59 1.08-.58 1.08-.58 1.08-.57 1.08-.56 1.08-.56 1.09-.55 1.08-.55 1.09-.54 1.09-.53 1.09-.53 1.09-.53 1.09-.52 1.09-.51 1.1-.51 1.09-.5 1.1-.49 1.1-.49 1.1-.49 1.1-.48 1.1-.47 1.11-.47 1.1-.46 1.11-.46 1.11-.45 1.11-.44 1.11-.44 1.11-.43 1.12-.43 1.11-.43 1.12-.41 1.11-.41 1.12-.41 1.12-.4 1.13-.39 1.12-.39 1.12-.38 1.13-.38 1.13-.37 1.12-.37 1.13-.36 1.13-.35 1.14-.35 1.13-.34 1.14-.34 1.13-.33 1.14-.33 1.14-.32 1.14-.31 1.14-.31 1.14-.31 1.15-.29 1.14-.3 1.15-.28 1.15-.28 1.15-.28 1.15-.27 1.15-.26 1.16-.26 1.15-.25 1.16-.25 1.16-.24 1.16-.24 1.16-.23 1.16-.22 1.16-.22 1.17-.21 1.16-.21 1.17-.2 1.17-.2 1.17-.19 1.17-.18 1.17-.18 1.18-.18 1.17-.16 1.18-.16 1.18-.16 1.18-.15 1.18-.15 1.18-.14" style="stroke-width:1.07;stroke:#000000;stroke-opacity:0.10;stroke-linecap:butt"/><path d="m46.81 365.03.98-.97.99-.96.99-.95.99-.93 1-.93 1-.91 1-.91 1-.89 1.01-.88 1.01-.87 1.01-.86 1.01-.84 1.02-.84 1.02-.82 1.02-.82 1.03-.8 1.02-.79 1.03-.78 1.04-.76 1.03-.76 1.04-.75 1.04-.73 1.05-.72 1.04-.71 1.05-.7 1.05-.69 1.06-.68 1.06-.66 1.06-.66 1.06-.64 1.06-.63 1.07-.62 1.07-.61 1.08-.6 1.07-.59 1.08-.57 1.08-.56 1.09-.56 1.08-.54 1.09-.53 1.09-.52 1.1-.5 1.1-.5 1.1-.48 1.1-.48 1.1-.46 1.11-.45 1.11-.44 1.12-.43 1.11-.41 1.12-.41 1.12-.39 1.13-.39 1.13-.37 1.13-.36 1.13-.35 1.13-.33 1.14-.33 1.14-.31 1.14-.31 1.15-.29 1.15-.28 1.15-.27 1.15-.26 1.16-.25 1.16-.23 1.16-.23 1.17-.21 1.16-.2 1.17-.19 1.18-.18 1.17-.17 1.18-.15 1.18-.15 1.18-.13 1.19-.12 1.19-.12 1.19-.1 1.19-.08 1.2-.08 1.2-.07 1.2-.05 1.21-.04 1.2-.04 1.21-.02 1.22-.01 1.21.01 1.22.01 1.22.02 1.22.04 1.23.05 1.23.06 1.23.07 1.24.08 1.23.09 1.24.1 1.25.12 1.24.13 1.25.13" style="stroke-width:1.07;stroke:#000000;stroke-opacity:0.10;stroke-linecap:butt"/><path d="m110.99 451.8 6.99 12.12H104zm163.83-113.7 1.91 3.31h-3.83zM132.85 173.04l1.92 3.31h-3.83z" style="stroke-width:0.71;stroke:none;fill:#00BA38"/><path d="M41.61 370.23H52v-10.39H41.61z" style="stroke-width:0.71;stroke:none;fill:#619CFF"/><circle cx="157.32" cy="323.78" r="6.76" style="stroke-width:0.71;stroke:none;fill:#F8766D"/><path d="M383.77 357.88h2.84v-2.84h-2.84z" style="stroke-width:0.71;stroke:none;fill:#619CFF"/><path d="m280.04 335.69-4.36 3.85m-147.9-159.6 4.23-3.91m30.54 143.12-4.37 3.87" style="stroke-width:0.53;stroke:#BFBFBF"/><path d="M52.64 470.51h51.45-.09l.35-.02.34-.07.32-.12.3-.17.27-.22.23-.26.19-.3.14-.32.08-.34.03-.34h0v-14.99h0l-.03-.35-.08-.34-.14-.32-.19-.29-.23-.26-.27-.22-.3-.17-.32-.13-.34-.07-.26-.01H52.64l.26.01-.34-.01-.35.04-.33.1-.32.15-.28.19-.25.24-.21.28-.16.31-.11.33-.06.34-.01.18v14.99l.01-.18v.35l.06.35.11.32.16.31.21.28.25.24.28.2.32.15.33.09.35.05z" style="stroke-width:0.53;fill:#FFFFFF;fill-opacity:0.50"/><text x="78.37" y="458.71" lengthAdjust="spacingAndGlyphs" style="font-size:5.69px;font-family:&quot;Liberation Sans&quot;" text-anchor="middle" textLength="38.45">B R B RENTAL</text><text x="78.37" y="466.91" lengthAdjust="spacingAndGlyphs" style="font-size:5.69px;font-family:&quot;Liberation Sans&quot;" text-anchor="middle" textLength="48.56">PROPERTIES LLC</text><path d="M266.05 335.69h51.45l-.09-.01.35-.01.34-.07.32-.12.3-.18.27-.22.23-.26.19-.29.13-.32.09-.34.03-.34h0v-15h0l-.03-.34-.09-.34-.13-.32-.19-.29-.23-.26-.27-.22-.3-.18-.32-.12-.34-.07-.26-.02h-51.45l.26.02-.34-.01-.35.04-.33.1-.32.14-.28.2-.25.24-.21.28-.16.31-.11.33-.06.34-.01.17v15l.01-.18v.35l.06.34.11.33.16.31.21.28.25.24.28.2.32.15.33.09.35.04z" style="stroke-width:0.53;fill:#FFFFFF;fill-opacity:0.50"/><text x="291.77" y="323.89" lengthAdjust="spacingAndGlyphs" style="font-size:5.69px;font-family:&quot;Liberation Sans&quot;" text-anchor="middle" textLength="42.22">FIL-AM RENTAL</text><text x="291.77" y="332.09" lengthAdjust="spacingAndGlyphs" style="font-size:5.69px;font-family:&quot;Liberation Sans&quot;" text-anchor="middle" textLength="48.56">PROPERTIES LLC</text><path d="M84.96 191.06h71.46-.09l.35-.01.34-.07.33-.13.3-.17.27-.22.23-.26.18-.29.14-.32.08-.34.03-.35h0v-6.8h0l-.03-.34-.08-.34-.14-.32-.18-.29-.23-.26-.27-.22-.3-.18-.33-.12-.34-.07-.26-.02H84.96l.26.02-.34-.01-.35.04-.33.1-.32.14-.28.2-.25.24-.21.28-.16.31-.12.33-.05.34-.01.17v6.8l.01-.17v.35l.05.34.12.33.16.31.21.27.25.24.28.2.32.15.33.1.35.04z" style="stroke-width:0.53;fill:#FFFFFF;fill-opacity:0.50"/><text x="120.69" y="187.46" lengthAdjust="spacingAndGlyphs" style="font-size:5.69px;font-family:&quot;Liberation Sans&quot;" text-anchor="middle" textLength="68.58">BRB RENTAL PROPS LLC</text><path d="M53.68 374.7h63.85-.09l.35-.02.34-.07.32-.12.3-.18.27-.22.23-.26.19-.29.13-.32.09-.34.03-.34h0v-14.99h0l-.03-.35-.09-.34-.13-.32-.19-.29-.23-.26-.27-.22-.3-.18-.32-.12-.34-.07-.26-.01H53.68l.26.01-.35-.01-.35.04-.33.1-.31.15-.29.19-.25.24-.21.28-.16.31-.11.33-.06.34v15.17-.18.35l.06.34.11.33.16.31.21.28.25.24.29.2.31.15.33.09.35.05z" style="stroke-width:0.53;fill:#FFFFFF;fill-opacity:0.50"/><text x="85.6" y="362.9" lengthAdjust="spacingAndGlyphs" style="font-size:5.69px;font-family:&quot;Liberation Sans&quot;" text-anchor="middle" textLength="43.58">4723 N 56TH ST,</text><text x="85.6" y="371.1" lengthAdjust="spacingAndGlyphs" style="font-size:5.69px;font-family:&quot;Liberation Sans&quot;" text-anchor="middle" textLength="60.97">MILWAUKEE, WI 53218</text><path d="M142.36 319.15h63.85-.09l.35-.01.34-.07.33-.12.3-.18.27-.22.23-.26.18-.29.14-.32.08-.34.03-.35h0V302h0l-.03-.34-.08-.34-.14-.32-.18-.29-.23-.27-.27-.21-.3-.18-.33-.12-.34-.07-.26-.02h-63.85l.26.02-.35-.02-.34.05-.33.09-.32.15-.28.2-.26.24-.2.28-.17.31-.11.33-.05.34-.01.17v14.99l.01-.17v.35l.05.34.11.33.17.31.2.28.26.24.28.19.32.15.33.1.34.04z" style="stroke-width:0.53;fill:#FFFFFF;fill-opacity:0.50"/><text x="174.29" y="307.36" lengthAdjust="spacingAndGlyphs" style="font-size:5.69px;font-family:&quot;Liberation Sans&quot;" text-anchor="middle" textLength="43.58">4723 N 56TH ST,</text><text x="174.29" y="315.55" lengthAdjust="spacingAndGlyphs" style="font-size:5.69px;font-family:&quot;Liberation Sans&quot;" text-anchor="middle" textLength="60.97">MILWAUKEE, WI 53218</text><path d="M314.47 366.11h63.85-.08l.34-.01.34-.07.33-.12.3-.18.27-.22.23-.26.19-.29.13-.32.09-.34.02-.35h0v-14.99h0l-.02-.34-.09-.34-.13-.32-.19-.29-.23-.27-.27-.21-.3-.18-.33-.12-.34-.07-.26-.02h-63.85l.26.02-.34-.02-.35.05-.33.09-.32.15-.28.2-.25.24-.21.28-.16.31-.11.33-.06.34-.01.17v14.99l.01-.17v.35l.06.34.11.33.16.31.21.28.25.24.28.19.32.15.33.1.35.04z" style="stroke-width:0.53;fill:#FFFFFF;fill-opacity:0.50"/><text x="346.4" y="354.32" lengthAdjust="spacingAndGlyphs" style="font-size:5.69px;font-family:&quot;Liberation Sans&quot;" text-anchor="middle" textLength="37.89">4723 56TH ST,</text><text x="346.4" y="362.51" lengthAdjust="spacingAndGlyphs" style="font-size:5.69px;font-family:&quot;Liberation Sans&quot;" text-anchor="middle" textLength="60.97">MILWAUKEE, WI 53218</text></g><g clip-path="url(#cpMC4wMHw0MzIuMDB8MC4wMHw1MDQuMDA=)"><circle cx="120.83" cy="135.94" r="1.95" style="stroke-width:0.71;stroke:none;fill:#F8766D"/><path d="m197.23 132.9 2.63 4.56h-5.26z" style="stroke-width:0.71;stroke:none;fill:#00BA38"/><path d="M263.23 137.89h3.91v-3.91h-3.91z" style="stroke-width:0.71;stroke:none;fill:#619CFF"/><text x="134.95" y="139.1" lengthAdjust="spacingAndGlyphs" style="font-size:8.80px;font-weight:0;font-family:&quot;Nimbus Sans Narrow&quot;" textLength="48.16">mprop address</text><text x="211.35" y="139.1" lengthAdjust="spacingAndGlyphs" style="font-size:8.80px;font-weight:0;font-family:&quot;Nimbus Sans Narrow&quot;" textLength="39.72">owner name</text><text x="279.31" y="139.1" lengthAdjust="spacingAndGlyphs" style="font-size:8.80px;font-weight:0;font-family:&quot;Nimbus Sans Narrow&quot;" textLength="40.5">wdfi address</text><text x="29.89" y="104.23" lengthAdjust="spacingAndGlyphs" style="font-size:12.00px;font-weight:0;font-family:&quot;Nimbus Sans Narrow&quot;" textLength="246.64">includes 5 parcels, 10 units, and 3 distinct owner names.</text><text x="29.89" y="42.81" lengthAdjust="spacingAndGlyphs" style="font-size:18.00px;font-weight:0;font-family:&quot;Nimbus Sans Narrow&quot;" textLength="350.14">B R B RENTAL PROPERTIES LLC -- BRB RENTAL</text><text x="29.89" y="62.25" lengthAdjust="spacingAndGlyphs" style="font-size:18.00px;font-weight:0;font-family:&quot;Nimbus Sans Narrow&quot;" textLength="348.5">PROPS LLC -- FIL-AM RENTAL PROPERTIES LLC</text><text x="29.89" y="81.69" lengthAdjust="spacingAndGlyphs" style="font-size:18.00px;font-weight:0;font-family:&quot;Nimbus Sans Narrow&quot;" textLength="44.27">Group</text></g></g></svg>