<svg xmlns="http://www.w3.org/2000/svg" width="576" height="672" viewBox="0 0 432 504"><g class="svglite"><defs><style><![CDATA[.svglite line,.svglite polyline,.svglite polygon,.svglite path,.svglite circle{fill:none;stroke:#000000;stroke-linecap:round;stroke-linejoin:round;stroke-miterlimit:10.00}.svglite text{white-space:pre}.svglite g.glyphgroup path{fill:inherit;stroke:none}]]></style></defs><rect width="100%" height="100%" style="stroke-linecap:round;stroke-linejoin:round;stroke-miterlimit:10.00;stroke:none;fill:#FFFFFF"/><defs><clipPath id="cpMC4wMHw0MzIuMDB8MC4wMHw1MDQuMDA="><path d="M0 0h432v504H0z"/></clipPath></defs><g clip-path="url(#cpMC4wMHw0MzIuMDB8MC4wMHw1MDQuMDA=)"><path d="M0 0h432v504H0z" style="stroke-width:1.07;stroke:none;fill:#FFFFFF"/></g><defs><clipPath id="cpMjkuODl8NDAyLjExfDE0MS41OHw0NzQuMTE="><path d="M29.89 141.58h372.22v332.53H29.89z"/></clipPath></defs><g clip-path="url(#cpMjkuODl8NDAyLjExfDE0MS41OHw0NzQuMTE=)"><path d="m295.99 367.62-.4-1.3-.4-1.29-.42-1.28-.43-1.28-.44-1.27-.45-1.26-.46-1.26-.47-1.25-.49-1.24-.49-1.24-.51-1.23-.52-1.23-.52-1.21-.54-1.21-.56-1.21-.56-1.19-.57-1.19-.59-1.19-.6-1.17-.6-1.17-.62-1.17-.63-1.15-.64-1.15-.66-1.14-.66-1.14-.68-1.13-.68-1.12-.7-1.12-.71-1.11-.72-1.1-.73-1.1-.74-1.09-.76-1.08-.76-1.07-.78-1.07-.79-1.07-.8-1.05-.81-1.05-.82-1.04-.83-1.04-.84-1.03-.86-1.02-.87-1.01-.87-1.01-.89-1-.9-1-.91-.99-.93-.98-.93-.97-.95-.97-.95-.96-.97-.96-.98-.94-.99-.95-1-.93-1.01-.93-1.03-.92-1.03-.91-1.05-.91-1.06-.9-1.06-.9-1.08-.88-1.1-.88-1.1-.88-1.11-.86-1.13-.87-1.13-.85-1.15-.85-1.16-.84-1.17-.83-1.18-.83-1.19-.82-1.21-.81-1.21-.81-1.23-.8-1.23-.79-1.25-.79-1.26-.78-1.27-.77-1.29-.77-1.29-.76-1.31-.75-1.31-.74-1.33-.74-1.34-.74-1.35-.72-1.36-.72-1.37-.71-1.38-.71-1.4-.7-1.41-.69-1.41-.69-1.43-.68-1.44-.67-1.45-.66-1.46-.66-1.48-.65-1.48-.65-1.5-.64" style="stroke-width:1.07;stroke:#000000;stroke-opacity:0.10;stroke-linecap:butt"/><path d="m295.99 367.62-.52-1.22-.53-1.22-.53-1.22-.54-1.2-.55-1.21-.56-1.2-.57-1.19-.58-1.19-.59-1.18-.59-1.18-.61-1.17-.61-1.17-.62-1.16-.63-1.15-.64-1.15-.65-1.15-.65-1.14-.67-1.14-.67-1.13-.69-1.12-.69-1.12-.7-1.12-.71-1.11-.72-1.1-.72-1.1-.74-1.09-.74-1.09-.75-1.08-.77-1.08-.77-1.07-.77-1.07-.79-1.06-.8-1.06-.8-1.05-.82-1.05-.82-1.04-.83-1.04-.84-1.03-.85-1.02-.86-1.02-.87-1.02-.87-1.01-.88-1-.9-1-.9-1-.91-.99-.92-.98-.92-.98-.94-.97-.95-.97-.95-.96-.96-.96-.97-.95-.98-.95-.99-.94-1-.94-1.01-.93-1.01-.93-1.03-.92-1.03-.91-1.04-.91-1.05-.91-1.06-.9-1.07-.89-1.07-.89-1.09-.89-1.09-.88-1.1-.87-1.11-.87-1.12-.86-1.13-.86-1.14-.85-1.15-.85-1.15-.84-1.17-.84-1.17-.83-1.18-.83-1.19-.82-1.2-.82-1.21-.81-1.21-.81-1.23-.8-1.23-.79-1.24-.79-1.25-.79-1.26-.78-1.27-.77-1.28-.77-1.29-.76-1.29-.76-1.31-.76-1.31-.75-1.32-.74-1.33-.74-1.34-.73-1.34-.73-1.36-.72-1.37-.72-1.37-.71" style="stroke-width:1.07;stroke:#000000;stroke-opacity:0.10;stroke-linecap:butt"/><path d="m295.99 367.62-.64-1.15-.65-1.15-.65-1.14-.66-1.14-.66-1.14-.67-1.13-.68-1.13-.68-1.12-.69-1.12-.69-1.12-.71-1.11-.7-1.11-.72-1.11-.72-1.1-.72-1.1-.74-1.1-.74-1.09-.74-1.09-.75-1.08-.76-1.08-.76-1.08-.78-1.07-.77-1.07-.78-1.06-.79-1.07-.8-1.05-.8-1.06-.81-1.05-.81-1.04-.82-1.05-.83-1.04-.83-1.03-.84-1.03-.84-1.03-.86-1.03-.85-1.02-.87-1.01-.87-1.02-.87-1-.89-1.01-.89-1-.89-1-.9-.99-.91-.99-.91-.99-.92-.98-.93-.98-.93-.98-.94-.97-.95-.97-.95-.96-.96-.96-.96-.96-.97-.95-.98-.95-.98-.95-.99-.94-.99-.94-1-.93-1.01-.93-1.02-.93-1.02-.92-1.02-.92-1.03-.92-1.04-.91-1.05-.91-1.05-.9-1.06-.91-1.06-.89-1.07-.9-1.08-.89-1.08-.88-1.09-.88-1.09-.88-1.1-.88-1.11-.87-1.12-.86-1.12-.87-1.12-.86-1.13-.85-1.14-.86-1.15-.84-1.15-.85-1.16-.84-1.16-.84-1.17-.83-1.18-.83-1.18-.83-1.19-.82-1.19-.82-1.2-.81-1.21-.81-1.22-.81-1.22-.81-1.22-.8-1.23-.79-1.24-.79-1.25-.79-1.25-.79m93.57 95.84.9.93.9.92.9.92.9.92.9.93.9.92.9.92.91.93.9.92.9.92.9.93.9.92.9.92.9.92.9.93.9.92.9.92.91.93.9.92.9.92.9.92.9.93.9.92.9.92.9.93.9.92.91.92.9.93.9.92.9.92.9.92.9.93.9.92.9.92.9.93.91.92.9.92.9.93.9.92.9.92.9.92.9.93.9.92.9.92.9.93.91.92.9.92.9.93.9.92.9.92.9.92.9.93.9.92.9.92.91.93.9.92.9.92.9.92.9.93.9.92.9.92.9.93.9.92.91.92.9.93.9.92.9.92.9.92.9.93.9.92.9.92.9.93.9.92.91.92.9.93.9.92.9.92.9.92.9.93.9.92.9.92.9.93.91.92.9.92.9.93.9.92.9.92.9.92.9.93.9.92.9.92.91.93.9.92.9.92.9.92.9.93.9.92.9.92.9.93" style="stroke-width:1.07;stroke:#000000;stroke-opacity:0.10;stroke-linecap:butt"/><path d="m295.99 367.62-.76-1.08-.77-1.07-.77-1.07-.77-1.08-.78-1.06-.78-1.07-.78-1.07-.79-1.06L289 358l-.8-1.06-.8-1.05-.8-1.05-.8-1.06-.81-1.04-.82-1.05-.82-1.05-.82-1.04-.82-1.04-.83-1.03-.83-1.04-.84-1.03-.84-1.03-.85-1.03-.84-1.03-.85-1.02-.86-1.03-.86-1.01-.86-1.02-.87-1.02-.87-1.01-.87-1.01-.88-1.01-.88-1.01-.89-1-.88-1-.9-1-.89-1-.9-.99-.91-1-.91-.99-.91-.98-.91-.99-.92-.98-.92-.99-.93-.98-.93-.97-.93-.98-.94-.97-.94-.97-.95-.97-.95-.96-.95-.97-.96-.96-.96-.96-.96-.95-.97-.96-.97-.95-.97-.95-.98-.95-.98-.95-.99-.94-.99-.94-1-.94-.99-.94-1-.93-1.01-.93-1.01-.93-1.01-.93-1.02-.93-1.02-.92-1.02-.92-1.03-.92-1.03-.92-1.03-.91-1.04-.91-1.05-.91-1.04-.91-1.05-.9-1.06-.91-1.05-.9-1.07-.9-1.06-.89-1.07-.9-1.07-.89-1.08-.89-1.08-.89-1.08-.88-1.09-.88-1.09-.88-1.1-.88-1.09-.88-1.11-.87-1.1-.88-1.11-.86-1.12-.87-1.11-.87-1.13-.86-1.12-.86-1.13-.86" style="stroke-width:1.07;stroke:#000000;stroke-opacity:0.10;stroke-linecap:butt"/><path d="m295.99 367.62-.89-1-.88-1.01-.89-1-.89-1-.89-1-.89-1-.89-1-.89-1-.89-1-.9-1-.89-1-.9-.99-.9-1-.9-1-.9-.99-.91-.99-.9-1-.9-.99-.91-.99-.91-.99-.91-.99-.91-.99-.91-.99-.91-.98-.92-.99-.91-.99-.92-.98-.91-.99-.92-.98-.92-.98-.92-.99-.93-.98-.92-.98-.93-.98-.92-.98-.93-.98-.93-.97-.93-.98-.93-.98-.93-.97-.94-.98-.93-.97-.94-.97-.94-.98-.94-.97-.94-.97-.94-.97-.94-.97-.94-.97-.95-.97-.94-.96-.95-.97-.95-.97-.95-.96-.95-.97-.96-.96-.95-.96-.95-.97-.96-.96-.96-.96-.96-.96-.96-.96-.96-.95-.96-.96-.97-.96-.96-.96-.97-.95-.96-.96-.97-.95-.97-.95-.97-.95-.98-.96-.97-.95-.98-.95-.97-.95-.98-.95-.98-.94-.98-.95-.98-.95-.98-.94-.99-.95-.98-.94-.99-.94-.99-.95-.98-.94-.99-.94-1-.94-.99-.94-.99-.94-1-.94-.99-.94-1-.93-1-.94-1-.93-1-.94-1-.93-1.01-.93-1-.94-1.01-.93m52.33-115.09-.53 1.16-.53 1.17-.53 1.16-.53 1.16-.53 1.16-.52 1.17-.53 1.16-.53 1.16-.53 1.17-.53 1.16-.53 1.16-.53 1.16-.52 1.17-.53 1.16-.53 1.16-.53 1.16-.53 1.17-.53 1.16-.53 1.16-.52 1.16-.53 1.17-.53 1.16-.53 1.16-.53 1.16-.53 1.17-.53 1.16-.52 1.16-.53 1.16-.53 1.17-.53 1.16-.53 1.16-.53 1.16-.53 1.17-.52 1.16-.53 1.16-.53 1.16-.53 1.17-.53 1.16-.53 1.16-.53 1.16-.52 1.17-.53 1.16-.53 1.16-.53 1.16-.53 1.17-.53 1.16-.52 1.16-.53 1.16-.53 1.17-.53 1.16-.53 1.16-.53 1.16-.53 1.17-.52 1.16-.53 1.16-.53 1.16-.53 1.17-.53 1.16-.53 1.16-.53 1.16-.52 1.17-.53 1.16-.53 1.16-.53 1.16-.53 1.17-.53 1.16-.53 1.16-.52 1.16-.53 1.17-.53 1.16-.53 1.16-.53 1.16-.53 1.17-.53 1.16-.52 1.16-.53 1.16-.53 1.17-.53 1.16-.53 1.16-.53 1.16-.53 1.17-.52 1.16-.53 1.16-.53 1.16-.53 1.17-.53 1.16-.53 1.16-.53 1.16-.52 1.17-.53 1.16-.53 1.16-.53 1.16-.53 1.17-.53 1.16-.53 1.16-.52 1.16-.53 1.17-.53 1.16-.53 1.16m93.57 95.84-1.01-.93-1-.93-1.01-.93-1-.94-1-.93-1-.94-1-.93-1-.94-1-.94-.99-.94-.99-.93-1-.94-.99-.95-.99-.94-.99-.94-.98-.94-.99-.94-.99-.95-.98-.94-.98-.95-.98-.95-.98-.94-.98-.95-.98-.95-.98-.95-.97-.95-.98-.95-.97-.95-.97-.95-.97-.96-.97-.95-.97-.96-.96-.95-.97-.96-.96-.95-.96-.96-.97-.96-.96-.96-.95-.96-.96-.96-.96-.96-.95-.96-.96-.97-.95-.96-.95-.96-.95-.97-.95-.96-.95-.97-.94-.97-.95-.97-.94-.97-.95-.96-.94-.98-.94-.97-.94-.97-.93-.97-.94-.97-.94-.98-.93-.97-.93-.98-.93-.97-.93-.98-.93-.98-.93-.98-.93-.98-.92-.98-.92-.98-.93-.98-.92-.98-.92-.99-.92-.98-.92-.98-.91-.99-.92-.98-.91-.99-.91-.99-.91-.99-.92-.99-.9-.99-.91-.99-.91-.99-.9-.99-.91-.99-.9-1-.9-.99-.9-1-.9-.99-.9-1-.89-.99-.9-1-.89-1-.9-1-.89-1-.89-1-.89-1-.88-1.01-.89-1-.89-1-.88-1.01" style="stroke-width:1.07;stroke:#000000;stroke-opacity:0.10;stroke-linecap:butt"/><path d="m295.99 367.62-1.13-.86-1.13-.86-1.12-.86-1.12-.86-1.11-.87-1.11-.87-1.11-.87-1.1-.88-1.1-.87-1.09-.88-1.09-.88-1.09-.88-1.08-.89-1.08-.89-1.08-.89-1.07-.89-1.07-.89-1.07-.9-1.06-.9-1.06-.9-1.05-.9-1.05-.91-1.05-.9-1.04-.91-1.04-.92-1.03-.91-1.03-.92-1.03-.92-1.03-.92-1.02-.92-1.01-.93-1.01-.92-1.01-.93-1.01-.94-1-.93-1-.94-.99-.94-.99-.94-.99-.94-.98-.95-.98-.94-.97-.95-.98-.96-.96-.95-.97-.96-.96-.96-.95-.96-.96-.96-.94-.97-.95-.97-.94-.97-.94-.97-.93-.97-.93-.98-.93-.98-.92-.98-.92-.99-.92-.98-.91-.99-.9-.99-.91-.99-.9-1-.9-.99-.89-1-.89-1.01-.88-1-.88-1.01-.88-1-.87-1.02-.88-1.01-.86-1.01-.86-1.02-.86-1.02-.86-1.02-.85-1.03-.85-1.02-.84-1.03-.84-1.03-.84-1.04-.83-1.03-.83-1.04-.82-1.04-.83-1.04-.81-1.04-.82-1.05-.81-1.05-.8-1.05-.81-1.05-.8-1.06-.79-1.06-.79-1.06-.79-1.06-.78-1.06-.78-1.07-.78-1.07-.77-1.07-.77-1.07-.77-1.08-.76-1.08" style="stroke-width:1.07;stroke:#000000;stroke-opacity:0.10;stroke-linecap:butt"/><path d="m295.99 367.62-1.25-.78-1.25-.79-1.24-.79-1.23-.8-1.23-.8-1.22-.8-1.21-.81-1.21-.81-1.2-.82-1.19-.82-1.19-.82-1.19-.82-1.17-.83-1.17-.84-1.17-.84-1.15-.84-1.15-.84-1.15-.85-1.14-.85-1.13-.86-1.13-.86-1.12-.86-1.11-.87-1.11-.87-1.1-.87-1.09-.88-1.09-.88-1.09-.89-1.07-.89-1.07-.89-1.07-.9-1.05-.9-1.05-.91-1.05-.9-1.04-.92-1.03-.91-1.03-.92-1.02-.92-1.01-.93-1.01-.93-1-.94-.99-.93-.99-.95-.99-.94-.97-.95-.97-.96-.97-.95-.95-.96-.96-.97-.94-.96-.94-.98-.93-.97-.93-.98-.92-.98-.91-.99-.91-.99-.9-1-.9-.99-.89-1.01-.88-1-.87-1.01-.87-1.01-.87-1.02-.86-1.02-.85-1.02-.84-1.03-.84-1.03-.83-1.04-.83-1.04-.82-1.04-.82-1.05-.8-1.05-.8-1.05-.8-1.06-.79-1.06-.78-1.07-.78-1.07-.77-1.07-.76-1.07-.76-1.08-.75-1.09-.75-1.09-.74-1.09-.73-1.09-.72-1.1-.72-1.1-.72-1.11-.71-1.11-.7-1.11-.69-1.12-.69-1.12-.68-1.13-.68-1.13-.67-1.13-.67-1.14-.65-1.14-.65-1.14-.65-1.15-.64-1.15m-155.61 9.29 1.57-.09 1.57-.09 1.57-.1 1.57-.09 1.58-.1 1.57-.09 1.57-.09 1.57-.1 1.57-.09 1.58-.1 1.57-.09 1.57-.09 1.57-.1 1.57-.09 1.58-.09 1.57-.1 1.57-.09 1.57-.1 1.57-.09 1.57-.09 1.58-.1 1.57-.09 1.57-.1 1.57-.09 1.57-.09 1.58-.1 1.57-.09 1.57-.09 1.57-.1 1.57-.09 1.57-.1 1.58-.09 1.57-.09 1.57-.1 1.57-.09 1.57-.1 1.58-.09 1.57-.09 1.57-.1 1.57-.09 1.57-.09 1.58-.1 1.57-.09 1.57-.1 1.57-.09 1.57-.09 1.57-.1 1.58-.09 1.57-.1 1.57-.09 1.57-.09 1.57-.1 1.58-.09 1.57-.09 1.57-.1 1.57-.09 1.57-.1 1.57-.09 1.58-.09 1.57-.1 1.57-.09 1.57-.1 1.57-.09 1.58-.09 1.57-.1 1.57-.09 1.57-.09 1.57-.1 1.58-.09 1.57-.1 1.57-.09 1.57-.09 1.57-.1 1.57-.09 1.58-.1 1.57-.09 1.57-.09 1.57-.1 1.57-.09 1.58-.09 1.57-.1 1.57-.09 1.57-.1 1.57-.09 1.57-.09 1.58-.1 1.57-.09 1.57-.1 1.57-.09 1.57-.09 1.58-.1 1.57-.09 1.57-.09 1.57-.1 1.57-.09 1.58-.1 1.57-.09 1.57-.09 1.57-.1" style="stroke-width:1.07;stroke:#000000;stroke-opacity:0.10;stroke-linecap:butt"/><path d="m295.99 367.62-1.38-.71-1.36-.72-1.36-.72-1.35-.73-1.33-.73-1.33-.74-1.32-.74-1.32-.75-1.3-.75-1.3-.76-1.28-.76-1.28-.77-1.27-.78-1.26-.78-1.25-.78-1.24-.79-1.24-.8-1.22-.8-1.22-.81-1.2-.81-1.2-.81-1.19-.82-1.18-.83-1.18-.83-1.16-.84-1.15-.84-1.15-.85-1.14-.85-1.13-.86-1.12-.87-1.11-.86-1.1-.88-1.1-.88-1.08-.88-1.08-.89-1.06-.9-1.06-.9-1.05-.9-1.04-.91-1.04-.92-1.02-.92-1.02-.93-1-.93-1-.93-.99-.95-.98-.94-.97-.96-.96-.95-.96-.97-.94-.96-.94-.98-.93-.98-.91-.98-.91-.99-.91-.99-.89-1-.88-1.01-.88-1.01-.86-1.01-.86-1.02-.85-1.03-.84-1.03-.83-1.04-.82-1.04-.82-1.04-.8-1.05-.8-1.06-.79-1.06-.78-1.07-.77-1.07-.76-1.08-.75-1.09-.75-1.08-.73-1.1-.73-1.1-.71-1.1-.71-1.11-.7-1.11-.7-1.12-.68-1.13-.67-1.13-.67-1.13-.65-1.15-.65-1.14-.64-1.15-.63-1.16-.62-1.16-.62-1.17-.6-1.17-.59-1.18-.59-1.18-.58-1.19-.57-1.19-.56-1.2-.55-1.2-.54-1.21-.54-1.21-.52-1.22-.52-1.23" style="stroke-width:1.07;stroke:#000000;stroke-opacity:0.10;stroke-linecap:butt"/><path d="m295.99 367.62-1.5-.64-1.48-.64-1.48-.65-1.46-.66-1.45-.67-1.44-.67-1.43-.68-1.42-.68-1.4-.7-1.4-.7-1.38-.7-1.37-.71-1.36-.72-1.35-.73-1.34-.73-1.33-.74-1.32-.75-1.3-.75-1.3-.76-1.28-.77-1.27-.77-1.26-.78-1.25-.79-1.23-.79-1.23-.8-1.22-.81-1.2-.81-1.19-.82-1.18-.83-1.17-.83-1.16-.84-1.15-.85-1.14-.85-1.12-.86-1.11-.87-1.11-.87-1.09-.88-1.08-.89-1.07-.89-1.05-.91-1.05-.9-1.04-.92-1.02-.92-1.01-.93-1-.93-.99-.94-.98-.95-.97-.95-.96-.97-.94-.96-.94-.98-.92-.98-.91-.99-.9-.99-.89-1-.88-1.01-.86-1.02-.86-1.02-.84-1.03-.83-1.03-.83-1.05-.81-1.04-.8-1.06-.78-1.06-.78-1.07-.76-1.08-.76-1.08-.74-1.09-.73-1.09-.72-1.11-.71-1.11-.7-1.11-.69-1.13-.67-1.13-.67-1.13-.65-1.14-.64-1.15-.63-1.16-.62-1.16-.61-1.17-.59-1.18-.59-1.18-.57-1.19-.57-1.2-.55-1.2-.54-1.21-.53-1.22-.51-1.22-.51-1.23-.5-1.24-.48-1.25-.47-1.25-.47-1.25-.45-1.27-.44-1.27-.42-1.28-.42-1.28-.41-1.29-.39-1.3" style="stroke-width:1.07;stroke:#000000;stroke-opacity:0.10;stroke-linecap:butt"/><path d="m295.99 357.5 8.76 15.18h-17.53zm-41.24-203.02 1.91 3.32h-3.83zM46.81 278.86l1.91 3.32h-3.83z" style="stroke-width:0.71;stroke:none;fill:#00BFC4"/><circle cx="202.42" cy="271.78" r="6.76" style="stroke-width:0.71;stroke:none;fill:#F8766D"/><circle cx="385.19" cy="459" r="1.42" style="stroke-width:0.71;stroke:none;fill:#F8766D"/><path d="m291.24 372.29 3.93-3.87m-35.74-215.31-3.77 2.88m-58.18 120.43 4.11-3.86" style="stroke-width:0.53;stroke:#BFBFBF"/><path d="M263.18 383.41h42.79l-.09-.01.35-.01.34-.07.32-.12.3-.18.27-.22.23-.26.19-.29.14-.32.08-.34.03-.34h0v-6.8h0l-.03-.35-.08-.33-.14-.32-.19-.3-.23-.26-.27-.22-.3-.17-.32-.13-.34-.07-.26-.01h-42.79l.26.01-.35-.01-.34.04-.34.1-.31.15-.29.2-.25.24-.21.27-.16.31-.11.33-.05.35-.01.17v6.8l.01-.18v.35l.05.34.11.33.16.31.21.28.25.24.29.2.31.15.34.09.34.04z" style="stroke-width:0.53;fill:#FFFFFF;fill-opacity:0.50"/><text x="284.57" y="379.81" lengthAdjust="spacingAndGlyphs" style="font-size:5.69px;font-family:&quot;Liberation Sans&quot;" text-anchor="middle" textLength="39.91">B&amp;T RENT LLC</text><path d="M261.59 156.32h33.96-.09l.35-.01.34-.07.33-.12.3-.18.27-.22.23-.26.18-.29.14-.32.08-.34.03-.35h0v-6.79h0l-.03-.35-.08-.34-.14-.32-.18-.29-.23-.26-.27-.22-.3-.17-.33-.13-.34-.07-.26-.01h-33.96l.26.01-.34-.01-.35.04-.33.1-.32.15-.28.19-.25.25-.21.27-.16.31-.11.33-.06.34-.01.18v6.79l.01-.17v.35l.06.34.11.33.16.31.21.28.25.24.28.2.32.14.33.1.35.04z" style="stroke-width:0.53;fill:#FFFFFF;fill-opacity:0.50"/><text x="278.57" y="152.72" lengthAdjust="spacingAndGlyphs" style="font-size:5.69px;font-family:&quot;Liberation Sans&quot;" text-anchor="middle" textLength="31.08">CATHY LEE</text><path d="M53.61 286.65h55-.09l.35-.02.34-.07.33-.12.3-.17.27-.22.23-.26.18-.3.14-.32.08-.34.03-.34h0v-6.8h0l-.03-.35-.08-.33-.14-.32-.18-.3-.23-.26-.27-.22-.3-.17-.33-.12-.34-.07-.26-.02h-55l.26.02-.35-.02-.35.04-.33.1-.31.15-.29.2-.25.24-.21.28-.16.3-.11.33-.06.35v6.97-.18.35l.06.34.11.33.16.31.21.28.25.24.29.2.31.15.33.09.35.05z" style="stroke-width:0.53;fill:#FFFFFF;fill-opacity:0.50"/><text x="81.11" y="283.05" lengthAdjust="spacingAndGlyphs" style="font-size:5.69px;font-family:&quot;Liberation Sans&quot;" text-anchor="middle" textLength="52.12">MONG TENG YANG</text><path d="M154.52 295.73h63.85-.09l.35-.01.34-.07.32-.12.3-.18.27-.22.23-.26.19-.29.13-.32.09-.34.03-.35h0v-14.99h0l-.03-.34-.09-.34-.13-.32-.19-.29-.23-.26-.27-.22-.3-.18-.32-.12-.34-.07-.26-.02h-63.85l.26.02-.35-.02-.35.05-.33.09-.31.15-.29.2-.25.24-.21.28-.16.31-.11.33-.06.34v15.16-.17.35l.06.34.11.33.16.31.21.28.25.24.29.19.31.15.33.1.35.04z" style="stroke-width:0.53;fill:#FFFFFF;fill-opacity:0.50"/><text x="186.44" y="283.94" lengthAdjust="spacingAndGlyphs" style="font-size:5.69px;font-family:&quot;Liberation Sans&quot;" text-anchor="middle" textLength="43.27">5620 S 25TH ST,</text><text x="186.44" y="292.13" lengthAdjust="spacingAndGlyphs" style="font-size:5.69px;font-family:&quot;Liberation Sans&quot;" text-anchor="middle" textLength="60.97">MILWAUKEE, WI 53221</text><path d="M314.57 468.62h63.85-.09l.35-.01.34-.07.32-.13.3-.17.27-.22.23-.26.19-.29.14-.32.08-.34.03-.35h0v-14.99h0l-.03-.35-.08-.33-.14-.32-.19-.3-.23-.26-.27-.22-.3-.17-.32-.12-.34-.07-.26-.02h-63.85l.26.02-.35-.02-.34.04-.34.1-.31.15-.29.2-.25.24-.21.28-.16.3-.11.33-.06.35v15.16-.17.35l.06.34.11.33.16.31.21.27.25.25.29.19.31.15.34.1.34.04z" style="stroke-width:0.53;fill:#FFFFFF;fill-opacity:0.50"/><text x="346.49" y="456.83" lengthAdjust="spacingAndGlyphs" style="font-size:5.69px;font-family:&quot;Liberation Sans&quot;" text-anchor="middle" textLength="37.89">4903 89TH ST,</text><text x="346.49" y="465.02" lengthAdjust="spacingAndGlyphs" style="font-size:5.69px;font-family:&quot;Liberation Sans&quot;" text-anchor="middle" textLength="60.97">MILWAUKEE, WI 53225</text></g><g clip-path="url(#cpMC4wMHw0MzIuMDB8MC4wMHw1MDQuMDA=)"><circle cx="155.2" cy="116.5" r="1.95" style="stroke-width:0.71;stroke:none;fill:#F8766D"/><path d="m231.6 113.46 2.63 4.56h-5.26z" style="stroke-width:0.71;stroke:none;fill:#00BFC4"/><text x="169.32" y="119.66" lengthAdjust="spacingAndGlyphs" style="font-size:8.80px;font-weight:0;font-family:&quot;Nimbus Sans Narrow&quot;" textLength="48.16">mprop address</text><text x="245.72" y="119.66" lengthAdjust="spacingAndGlyphs" style="font-size:8.80px;font-weight:0;font-family:&quot;Nimbus Sans Narrow&quot;" textLength="39.72">owner name</text><text x="29.89" y="84.79" lengthAdjust="spacingAndGlyphs" style="font-size:12.00px;font-weight:0;font-family:&quot;Nimbus Sans Narrow&quot;" textLength="252.11">includes 13 parcels, 23 units, and 3 distinct owner names.</text><text x="29.89" y="42.81" lengthAdjust="spacingAndGlyphs" style="font-size:18.00px;font-weight:0;font-family:&quot;Nimbus Sans Narrow&quot;" textLength="318.14">B&amp;T RENT LLC -- CATHY LEE -- MONG TENG</text><text x="29.89" y="62.25" lengthAdjust="spacingAndGlyphs" style="font-size:18.00px;font-weight:0;font-family:&quot;Nimbus Sans Narrow&quot;" textLength="91.02">YANG Group</text></g></g></svg>