<svg xmlns="http://www.w3.org/2000/svg" width="384" height="384" class="svglite" viewBox="0 0 288 288"><defs><style>.svglite circle,.svglite line,.svglite polygon,.svglite polyline,.svglite rect{fill:none;stroke:#000;stroke-linecap:round;stroke-linejoin:round;stroke-miterlimit:10}.svglite text{white-space:pre}</style></defs><rect width="100%" height="100%" style="stroke:none;fill:#fff"/><defs><clipPath id="cpMC4wMHwyODguMDB8MC4wMHwyODguMDA="><path d="M0 0h288v288H0z"/></clipPath></defs><g clip-path="url(#cpMC4wMHwyODguMDB8MC4wMHwyODguMDA=)"><path d="M0 0h288v288H0z" style="stroke-width:1.07;stroke:none;fill:#fff"/></g><defs><clipPath id="cpMzIuNjN8MjU4LjExfDEyMS43OHwyNTUuMzc="><path d="M32.63 121.78h225.48v133.59H32.63z"/></clipPath></defs><g clip-path="url(#cpMzIuNjN8MjU4LjExfDEyMS43OHwyNTUuMzc=)"><path d="m247.86 212.15-1.22-.16-1.22-.16-1.22-.16-1.23-.16-1.22-.15-1.22-.16-1.22-.16-1.23-.16-1.22-.16-1.22-.16-1.22-.16-1.22-.15-1.23-.16-1.22-.16-1.22-.16-1.22-.16-1.23-.16-1.22-.16-1.22-.16-1.22-.15-1.22-.16-1.23-.16-1.22-.16-1.22-.16-1.22-.16-1.23-.16-1.22-.16-1.22-.15-1.22-.16-1.22-.16-1.23-.16-1.22-.16-1.22-.16-1.22-.16-1.23-.16-1.22-.15-1.22-.16-1.22-.16-1.22-.16-1.23-.16-1.22-.16-1.22-.16-1.22-.16-1.23-.15-1.22-.16-1.22-.16-1.22-.16-1.22-.16-1.23-.16-1.22-.16-1.22-.16-1.22-.15-1.23-.16-1.22-.16-1.22-.16-1.22-.16-1.22-.16-1.23-.16-1.22-.16-1.22-.15-1.22-.16-1.23-.16-1.22-.16-1.22-.16-1.22-.16-1.22-.16-1.23-.16-1.22-.15-1.22-.16-1.22-.16-1.23-.16-1.22-.16-1.22-.16-1.22-.16-1.22-.15-1.23-.16-1.22-.16-1.22-.16-1.22-.16-1.23-.16-1.22-.16-1.22-.16-1.22-.15-1.22-.16-1.23-.16-1.22-.16-1.22-.16-1.22-.16-1.23-.16-1.22-.16-1.22-.15-1.22-.16-1.22-.16-1.23-.16-1.22-.16-1.22-.16-1.22-.16-1.23-.16-1.22-.15M89.85 127.86l.37.69.38.69.37.69.37.7.38.69.37.69.38.7.37.69.37.69.38.69.37.7.37.69.38.69.37.69.38.7.37.69.37.69.38.7.37.69.38.69.37.69.37.7.38.69.37.69.38.69.37.7.37.69.38.69.37.7.37.69.38.69.37.69.38.7.37.69.37.69.38.69.37.7.38.69.37.69.37.7.38.69.37.69.37.69.38.7.37.69.38.69.37.69.37.7.38.69.37.69.38.7.37.69.37.69.38.69.37.7.38.69.37.69.37.69.38.7.37.69.37.69.38.69.37.7.38.69.37.69.37.7.38.69.37.69.38.69.37.7.37.69.38.69.37.69.38.7.37.69.37.69.38.7.37.69.37.69.38.69.37.7.38.69.37.69.37.69.38.7.37.69.38.69.37.7.37.69.38.69.37.69.38.7.37.69.37.69.38.69.37.7.37.69.38.69.37.7M42.88 249.3l.85-.53.84-.54.85-.53.85-.54.85-.53.85-.53.85-.54.84-.53.85-.54.85-.53.85-.53.85-.54.85-.53.84-.54.85-.53.85-.53.85-.54.85-.53.85-.54.84-.53.85-.53.85-.54.85-.53.85-.54.85-.53.84-.53.85-.54.85-.53.85-.54.85-.53.85-.53.84-.54.85-.53.85-.54.85-.53.85-.53.85-.54.84-.53.85-.54.85-.53.85-.53.85-.54.85-.53.84-.54.85-.53.85-.53.85-.54.85-.53.85-.54.84-.53.85-.53.85-.54.85-.53.85-.54.85-.53.84-.53.85-.54.85-.53.85-.54.85-.53.85-.53.84-.54.85-.53.85-.53.85-.54.85-.53.85-.54.84-.53.85-.53.85-.54.85-.53.85-.54.85-.53.84-.53.85-.54.85-.53.85-.54.85-.53.85-.53.84-.54.85-.53.85-.54.85-.53.85-.53.85-.54.84-.53.85-.54.85-.53.85-.53.85-.54.85-.53.84-.54.85-.53.85-.53.85-.54.85-.53.85-.54.84-.53.85-.53" style="stroke-width:1.07;stroke:#000;stroke-opacity:.1;stroke-linecap:butt"/><path d="m247.86 209.94 1.92 3.32h-3.83zM89.85 125.65l1.91 3.31h-3.83zM42.88 247.09l1.91 3.32h-3.83z" style="stroke-width:.71;stroke:none;fill:#00bfc4"/><circle cx="126.86" cy="196.44" r="6.76" style="stroke-width:.71;stroke:none;fill:#f8766d"/><path d="m50.12 244.84-6.24 3.84M119.68 200.9l6.18-3.84" style="stroke-width:.53;stroke:#bfbfbf"/><path d="M170.89 217.79h69.86-.08l.34-.01.35-.07.32-.13.3-.17.27-.22.23-.26.19-.3.13-.31.09-.34.02-.35v-6.96l-.02-.35-.09-.34-.13-.32-.19-.29-.23-.26-.27-.22-.3-.17-.32-.13-.35-.07-.26-.01h-69.86l.26.01-.35-.01-.35.04-.33.1-.31.15-.29.2-.25.24-.21.27-.16.31-.11.33-.06.34v7.14-.17.34l.06.35.11.33.16.31.21.27.25.24.29.2.31.15.33.1.35.04z" style="stroke-width:.53;fill:#fff;fill-opacity:.5"/><text x="205.82" y="214.19" lengthAdjust="spacingAndGlyphs" style="font-size:5.69px;font-family:&quot;Arial&quot;" text-anchor="middle" textLength="66.99">YEDIAEL Y BACKSTROM</text><path d="M58.96 151.74h61.96-.08l.35-.01.34-.07.32-.13.3-.17.27-.22.23-.26.19-.29.13-.32.09-.34.02-.35v-15.15l-.02-.35-.09-.34-.13-.32-.19-.29-.23-.26-.27-.22-.3-.18-.32-.12-.34-.07-.27-.01H58.96l.26.01-.35-.01-.34.04-.33.1-.32.14-.28.2-.26.24-.2.28-.17.31-.11.33-.05.34-.01.18v15.15l.01-.17v.35l.05.34.11.33.17.31.2.27.26.25.28.19.32.15.33.1.34.04z" style="stroke-width:.53;fill:#fff;fill-opacity:.5"/><text x="89.94" y="139.95" lengthAdjust="spacingAndGlyphs" style="font-size:5.69px;font-family:&quot;Arial&quot;" text-anchor="middle" textLength="59.08">BACKSTROM &amp; SONS</text><text x="89.94" y="148.14" lengthAdjust="spacingAndGlyphs" style="font-size:5.69px;font-family:&quot;Arial&quot;" text-anchor="middle" textLength="34.14">ESTATE LLC</text><path d="M38.39 244.84h61.96-.09l.35-.01.34-.07.33-.13.3-.17.27-.22.23-.26.18-.29.14-.32.08-.34.03-.35v-15.16l-.03-.34-.08-.34-.14-.32-.18-.29-.23-.26-.27-.22-.3-.18-.33-.12-.34-.07-.26-.02H38.39l.26.02-.35-.01-.34.04-.34.1-.31.14-.29.2-.25.24-.21.28-.16.31-.11.33-.06.34v15.33-.17.35l.06.34.11.33.16.31.21.27.25.24.29.2.31.15.34.1.34.04z" style="stroke-width:.53;fill:#fff;fill-opacity:.5"/><text x="69.37" y="233.05" lengthAdjust="spacingAndGlyphs" style="font-size:5.69px;font-family:&quot;Arial&quot;" text-anchor="middle" textLength="59.08">BACKSTROM &amp; SONS</text><text x="69.37" y="241.24" lengthAdjust="spacingAndGlyphs" style="font-size:5.69px;font-family:&quot;Arial&quot;" text-anchor="middle" textLength="37.93">ESTATES LLC</text><path d="M70.65 220.37h64.49-.08l.35-.01.34-.07.32-.12.3-.18.27-.22.23-.26.19-.29.13-.32.09-.34.02-.35v-15.15l-.02-.35-.09-.34-.13-.32-.19-.29-.23-.26-.27-.22-.3-.17-.32-.13-.34-.07-.27-.01H70.65l.26.01-.34-.01-.35.04-.33.1-.32.15-.28.19-.25.24-.21.28-.16.31-.11.33-.06.34-.01.18v15.15l.01-.17v.35l.06.34.11.33.16.31.21.28.25.24.28.19.32.15.33.1.35.04z" style="stroke-width:.53;fill:#fff;fill-opacity:.5"/><text x="102.9" y="208.58" lengthAdjust="spacingAndGlyphs" style="font-size:5.69px;font-family:&quot;Arial&quot;" text-anchor="middle" textLength="59.07">6582 N BOURBON ST,</text><text x="102.9" y="216.77" lengthAdjust="spacingAndGlyphs" style="font-size:5.69px;font-family:&quot;Arial&quot;" text-anchor="middle" textLength="61.61">MILWAUKEE, WI 53224</text></g><g clip-path="url(#cpMC4wMHwyODguMDB8MC4wMHwyODguMDA=)"><circle cx="87.34" cy="96.71" r="1.95" style="stroke-width:.71;stroke:none;fill:#f8766d"/><path d="m163.7 93.67 2.63 4.56h-5.26z" style="stroke-width:.71;stroke:none;fill:#00bfc4"/><text x="101.46" y="99.86" lengthAdjust="spacingAndGlyphs" style="font-size:8.8px;font-family:&quot;Arial Narrow&quot;" textLength="48.12">mprop address</text><text x="177.82" y="99.86" lengthAdjust="spacingAndGlyphs" style="font-size:8.8px;font-family:&quot;Arial Narrow&quot;" textLength="39.69">owner name</text><text x="32.63" y="65.12" lengthAdjust="spacingAndGlyphs" style="font-size:12px;font-family:&quot;Arial Narrow&quot;" textLength="241.29">includes 3 parcels, 3 units, and 3 distinct owner names.</text><text x="32.63" y="42.78" lengthAdjust="spacingAndGlyphs" style="font-size:18px;font-weight:700;font-family:&quot;Arial Narrow&quot;" textLength="297.92">BACKSTROM &amp; SONS ESTATE LLC Group</text></g></svg>