<svg xmlns="http://www.w3.org/2000/svg" width="768" height="768" class="svglite" viewBox="0 0 576 576"><defs><style><![CDATA[.svglite line,.svglite polyline,.svglite polygon,.svglite path,.svglite circle{fill:none;stroke:#000000;stroke-linecap:round;stroke-linejoin:round;stroke-miterlimit:10.00}.svglite text{white-space:pre}]]></style></defs><rect width="100%" height="100%" style="stroke-linecap:round;stroke-linejoin:round;stroke-miterlimit:10.00;stroke:none;fill:#FFFFFF"/><defs><clipPath id="cpMC4wMHw1NzYuMDB8MC4wMHw1NzYuMDA="><path d="M0 0h576v576H0z"/></clipPath></defs><g clip-path="url(#cpMC4wMHw1NzYuMDB8MC4wMHw1NzYuMDA=)"><path d="M0 0h576v576H0z" style="stroke-width:1.07;stroke:none;fill:#FFFFFF"/></g><defs><clipPath id="cpMzIuNjN8NTQ2LjExfDEyMC44Nnw1NDMuMzc="><path d="M32.63 120.86h513.48v422.51H32.63z"/></clipPath></defs><g clip-path="url(#cpMzIuNjN8NTQ2LjExfDEyMC44Nnw1NDMuMzc=)"><path d="m338.21 203.45-1.38.59-1.38.59-1.38.6-1.37.6-1.37.59-1.38.61-1.37.6-1.37.6-1.37.61-1.36.61-1.37.61-1.36.61-1.37.61-1.36.61-1.36.62-1.36.62-1.36.62-1.36.62-1.35.62-1.36.63-1.35.63-1.36.63-1.35.63-1.35.63-1.35.63-1.34.64-1.35.64-1.34.63-1.35.65-1.34.64-1.34.64-1.34.65-1.34.65-1.34.65-1.34.65-1.33.65-1.33.66-1.34.65-1.33.66-1.33.66-1.33.66-1.33.67-1.32.66-1.33.67-1.32.67-1.32.67-1.33.67-1.32.68-1.32.67-1.31.68-1.32.68-1.32.68-1.31.68-1.31.69-1.31.68-1.32.69-1.3.69-1.31.69-1.31.7-1.3.69-1.31.7-1.3.7-1.3.7-1.3.7-1.3.7-1.3.71-1.3.7-1.29.71-1.3.71-1.29.72-1.29.71-1.29.72-1.29.71-1.29.72-1.29.72-1.29.73-1.28.72-1.28.73-1.29.73-1.28.73-1.28.73-1.27.73-1.28.74-1.28.73-1.27.74-1.27.74-1.28.74-1.27.75-1.27.74-1.27.75-1.26.75-1.27.75-1.26.75-1.27.76-1.26.75-1.26.76-1.26.76-1.26.76-1.26.77m21.22-130.46-.56 1.27-.56 1.28-.56 1.28-.54 1.28-.54 1.28-.53 1.28-.53 1.28-.52 1.28-.51 1.28-.5 1.29-.5 1.28-.48 1.29-.49 1.28-.47 1.29-.47 1.29-.46 1.29-.45 1.29-.44 1.29-.44 1.29-.43 1.29-.43 1.29-.41 1.3-.41 1.29-.4 1.3-.4 1.29-.39 1.3-.38 1.3-.37 1.3-.36 1.3-.36 1.3-.35 1.3-.35 1.3-.34 1.31-.33 1.3-.32 1.31-.31 1.3-.31 1.31-.3 1.31-.3 1.3-.28 1.31-.28 1.31-.27 1.31-.27 1.32-.26 1.31-.25 1.31-.24 1.32-.24 1.31-.22 1.32-.23 1.32-.21 1.31-.21 1.32-.2 1.32-.19 1.32-.19 1.32-.17 1.32-.18 1.33-.16 1.32-.16 1.33-.15 1.32-.14 1.33-.13 1.32-.13 1.33-.12 1.33-.11 1.33-.11 1.33-.1 1.33-.09 1.34-.09 1.33-.07 1.33-.07 1.34-.07 1.33-.05 1.34-.05 1.34-.04 1.33-.03 1.34-.03 1.34-.02 1.34-.01 1.35-.01 1.34v1.34l.01 1.35.02 1.34.02 1.35.03 1.34.04 1.35.05 1.35.05 1.35.06 1.35.07 1.35.07 1.35.08 1.35.09 1.36.1 1.35.1 1.36.11 1.35.12 1.36.12 1.36.13 1.36.14 1.36" style="stroke-width:1.07;stroke:#000000;stroke-opacity:0.10;stroke-linecap:butt"/><path d="m228.95 140.07-.45 1.29-.44 1.29-.44 1.29-.44 1.29-.43 1.29-.42 1.3-.43 1.29-.41 1.29-.41 1.3-.41 1.29-.4 1.3-.4 1.29-.39 1.3-.39 1.3-.38 1.3-.38 1.3-.37 1.29-.37 1.3-.36 1.3-.36 1.3-.36 1.31-.35 1.3-.34 1.3-.34 1.3-.33 1.31-.33 1.3-.33 1.31-.32 1.3-.31 1.31-.31 1.3-.31 1.31-.3 1.31-.3 1.31-.29 1.3-.28 1.31-.29 1.31-.27 1.31-.28 1.31-.26 1.32-.27 1.31-.25 1.31-.26 1.31-.24 1.32-.25 1.31-.24 1.32-.23 1.31-.23 1.32-.22 1.32-.22 1.31-.21 1.32-.21 1.32-.21 1.32-.2 1.32-.19 1.32-.19 1.32-.19 1.32-.18 1.32-.18 1.32-.17 1.33-.16 1.32-.17 1.32-.15 1.33-.15 1.32-.15 1.33-.14 1.33-.14 1.32-.13 1.33-.13 1.33-.12 1.33-.12 1.32-.12 1.33-.1 1.33-.11 1.34-.1 1.33-.09 1.33-.09 1.33-.08 1.33-.08 1.34-.08 1.33-.07 1.34-.06 1.33-.06 1.34-.06 1.33-.05 1.34-.05 1.34-.04 1.34-.03 1.34-.04 1.34-.02 1.34-.03 1.34-.01 1.34-.01 1.34-.01 1.34v4.03l.02 1.35.01 1.34.02 1.35" style="stroke-width:1.07;stroke:#000000;stroke-opacity:0.10;stroke-linecap:butt"/><path d="m228.95 140.07-.33 1.3-.33 1.31-.33 1.3-.32 1.3-.32 1.31-.32 1.31-.32 1.3-.32 1.31-.31 1.3-.31 1.31-.31 1.31-.3 1.3-.31 1.31-.3 1.31-.3 1.31-.29 1.3-.3 1.31-.29 1.31-.29 1.31-.28 1.31-.29 1.31-.28 1.31-.28 1.31-.27 1.31-.28 1.31-.27 1.31-.27 1.31-.27 1.31-.26 1.31-.27 1.32-.26 1.31-.25 1.31-.26 1.31-.25 1.32-.25 1.31-.25 1.32-.25 1.31-.24 1.31-.24 1.32-.24 1.31-.23 1.32-.24 1.31-.23 1.32-.23 1.32-.22 1.31-.23 1.32-.22 1.32-.22 1.31-.21 1.32-.22 1.32-.21 1.32-.21 1.31-.21 1.32-.2 1.32-.2 1.32-.2 1.32-.2 1.32-.2 1.32-.19 1.32-.19 1.32-.19 1.32-.18 1.32-.19 1.32-.18 1.33-.18 1.32-.17 1.32-.18 1.32-.17 1.33-.16 1.32-.17 1.32-.16 1.33-.17 1.32-.16 1.32-.15 1.33-.16 1.32-.15 1.33-.15 1.32-.14 1.33-.15 1.33-.14 1.32-.14 1.33-.14 1.33-.13 1.32-.14 1.33-.13 1.33-.12 1.33-.13 1.32-.12 1.33-.12 1.33-.12 1.33-.12 1.33-.11 1.33-.11 1.33-.11 1.33-.11 1.33-.1 1.33-.1 1.33-.1 1.33-.1 1.34m130.48-67.08-1.32.67-1.32.68-1.32.68-1.32.68-1.31.67-1.32.68-1.32.68-1.32.68-1.32.67-1.31.68-1.32.68-1.32.68-1.32.67-1.31.68-1.32.68-1.32.68-1.32.68-1.32.67-1.31.68-1.32.68-1.32.68-1.32.67-1.32.68-1.31.68-1.32.68-1.32.67-1.32.68-1.32.68-1.31.68-1.32.67-1.32.68-1.32.68-1.31.68-1.32.67-1.32.68-1.32.68-1.32.68-1.31.67-1.32.68-1.32.68-1.32.68-1.32.67-1.31.68-1.32.68-1.32.68-1.32.67-1.32.68-1.31.68-1.32.68-1.32.67-1.32.68-1.32.68-1.31.68-1.32.68-1.32.67-1.32.68-1.31.68-1.32.68-1.32.67-1.32.68-1.32.68-1.31.68-1.32.67-1.32.68-1.32.68-1.32.68-1.31.67-1.32.68-1.32.68-1.32.68-1.32.67-1.31.68-1.32.68-1.32.68-1.32.67-1.31.68-1.32.68-1.32.68-1.32.67-1.32.68-1.31.68-1.32.68-1.32.67-1.32.68-1.32.68-1.31.68-1.32.67-1.32.68-1.32.68-1.32.68-1.31.68-1.32.67-1.32.68-1.32.68-1.31.68-1.32.67-1.32.68-1.32.68-1.32.68" style="stroke-width:1.07;stroke:#000000;stroke-opacity:0.10;stroke-linecap:butt"/><path d="m228.95 140.07-.21 1.32-.21 1.31-.22 1.32-.21 1.32-.22 1.32-.21 1.31-.22 1.32-.21 1.32-.22 1.32-.21 1.32-.21 1.31-.22 1.32-.21 1.32-.22 1.32-.21 1.31-.22 1.32-.21 1.32-.21 1.32-.22 1.32-.21 1.31-.22 1.32-.21 1.32-.22 1.32-.21 1.31-.21 1.32-.22 1.32-.21 1.32-.22 1.31-.21 1.32-.22 1.32-.21 1.32-.22 1.32-.21 1.31-.21 1.32-.22 1.32-.21 1.32-.22 1.31-.21 1.32-.22 1.32-.21 1.32-.21 1.32-.22 1.31-.21 1.32-.22 1.32-.21 1.32-.22 1.31-.21 1.32-.21 1.32-.22 1.32-.21 1.32-.22 1.31-.21 1.32-.22 1.32-.21 1.32-.22 1.31-.21 1.32-.21 1.32-.22 1.32-.21 1.32-.22 1.31-.21 1.32-.22 1.32-.21 1.32-.21 1.31-.22 1.32-.21 1.32-.22 1.32-.21 1.32-.22 1.31-.21 1.32-.21 1.32-.22 1.32-.21 1.31-.22 1.32-.21 1.32-.22 1.32-.21 1.32-.22 1.31-.21 1.32-.21 1.32-.22 1.32-.21 1.31-.22 1.32-.21 1.32-.22 1.32-.21 1.31-.21 1.32-.22 1.32-.21 1.32-.22 1.32-.21 1.31-.22 1.32-.21 1.32-.21 1.32-.22 1.31-.21 1.32-.22 1.32-.21 1.32-.22 1.32m216 173.9 1 .8 1 .81 1 .8 1 .81 1 .8 1 .81 1 .8 1 .81 1 .81 1 .8 1 .81 1 .8 1 .81 1 .8 1 .81 1.01.8 1 .81 1 .8 1 .81 1 .81 1 .8 1 .81 1 .8 1 .81 1 .8 1 .81 1 .8 1 .81 1 .8 1 .81 1 .81 1 .8 1 .81 1 .8 1 .81 1 .8 1 .81 1.01.8 1 .81 1 .8 1 .81 1 .81 1 .8 1 .81 1 .8 1 .81 1 .8 1 .81 1 .8 1 .81 1 .8 1 .81 1 .81 1 .8 1 .81 1 .8 1 .81 1 .8 1 .81 1 .8 1.01.81 1 .81 1 .8 1 .81 1 .8 1 .81 1 .8 1 .81 1 .8 1 .81 1 .8 1 .81 1 .81 1 .8 1 .81 1 .8 1 .81 1 .8 1 .81 1 .8 1 .81 1 .8 1 .81 1.01.81 1 .8 1 .81 1 .8 1 .81 1 .8 1 .81 1 .8 1 .81 1 .8 1 .81 1 .81 1 .8 1 .81 1 .8 1 .81m-99.04-79.74-1.04-.84-1.04-.84-1.05-.84-1.04-.84-1.04-.84-1.04-.83-1.04-.84-1.04-.84-1.04-.84-1.05-.84-1.04-.84-1.04-.84-1.04-.83-1.04-.84-1.04-.84-1.04-.84-1.05-.84-1.04-.84-1.04-.84-1.04-.83-1.04-.84-1.04-.84-1.05-.84-1.04-.84-1.04-.84-1.04-.83-1.04-.84-1.04-.84-1.04-.84-1.05-.84-1.04-.84-1.04-.84-1.04-.83-1.04-.84-1.04-.84-1.04-.84-1.05-.84-1.04-.84-1.04-.84-1.04-.83-1.04-.84-1.04-.84-1.04-.84-1.05-.84-1.04-.84-1.04-.83-1.04-.84-1.04-.84-1.04-.84-1.04-.84-1.05-.84-1.04-.84-1.04-.83-1.04-.84-1.04-.84-1.04-.84-1.04-.84-1.05-.84-1.04-.83-1.04-.84-1.04-.84-1.04-.84-1.04-.84-1.04-.84-1.05-.84-1.04-.83-1.04-.84-1.04-.84-1.04-.84-1.04-.84-1.05-.84-1.04-.84-1.04-.83-1.04-.84-1.04-.84-1.04-.84-1.04-.84-1.05-.84-1.04-.83-1.04-.84-1.04-.84-1.04-.84-1.04-.84-1.04-.84-1.05-.84-1.04-.83-1.04-.84-1.04-.84-1.04-.84-1.04-.84-1.04-.84-1.05-.84-1.04-.83-1.04-.84-1.04-.84-1.04-.84-1.04-.84-1.04-.84-1.05-.83" style="stroke-width:1.07;stroke:#000000;stroke-opacity:0.10;stroke-linecap:butt"/><path d="m228.95 140.07-.09 1.33-.1 1.33-.1 1.33-.11 1.33-.1 1.33-.11 1.33-.11 1.33-.12 1.33-.11 1.33-.12 1.33-.12 1.33-.12 1.33-.13 1.33-.13 1.33-.13 1.32-.13 1.33-.13 1.33-.14 1.32-.14 1.33-.14 1.33-.15 1.32-.14 1.33-.15 1.32-.16 1.33-.15 1.32-.16 1.33-.16 1.32-.16 1.33-.16 1.32-.17 1.32-.17 1.33-.17 1.32-.17 1.32-.18 1.32-.17 1.33-.19 1.32-.18 1.32-.18 1.32-.19 1.32-.19 1.32-.2 1.32-.19 1.32-.2 1.32-.2 1.32-.2 1.32-.2 1.32-.21 1.32-.21 1.32-.21 1.32-.22 1.31-.21 1.32-.22 1.32-.23 1.31-.22 1.32-.23 1.32-.22 1.31-.24 1.32-.23 1.31-.23 1.32-.24 1.32-.24 1.31-.25 1.31-.24 1.32-.25 1.31-.25 1.32-.25 1.31-.26 1.31-.26 1.31-.26 1.32-.26 1.31-.26 1.31-.27 1.31-.27 1.31-.27 1.31-.28 1.31-.27 1.32-.28 1.31-.29 1.31-.28 1.3-.29 1.31-.29 1.31-.29 1.31-.29 1.31-.3 1.31-.29 1.31-.31 1.3-.3 1.31-.3 1.31-.31 1.3-.31 1.31-.32 1.31-.31 1.3-.32 1.31-.32 1.3-.32 1.31-.33 1.3-.32 1.31-.33 1.3-.34 1.31" style="stroke-width:1.07;stroke:#000000;stroke-opacity:0.10;stroke-linecap:butt"/><path d="m228.95 140.07.03 1.34.01 1.35.01 1.34.01 1.35v2.68l-.01 1.34-.01 1.35-.02 1.34-.02 1.34-.03 1.34-.03 1.34-.03 1.34-.05 1.33-.04 1.34-.05 1.34-.06 1.34-.06 1.33-.06 1.34-.07 1.33-.08 1.34-.08 1.33-.08 1.33-.09 1.33-.1 1.34-.09 1.33-.11 1.33-.11 1.33-.11 1.33-.12 1.33-.12 1.33-.13 1.32-.13 1.33-.14 1.33-.14 1.32-.15 1.33-.15 1.33-.16 1.32-.16 1.32-.16 1.33-.18 1.32-.17 1.32-.18 1.32-.19 1.33-.19 1.32-.19 1.32-.2 1.32-.21 1.31-.21 1.32-.21 1.32-.22 1.32-.22 1.31-.23 1.32-.24 1.32-.24 1.31-.24 1.32-.25 1.31-.25 1.31-.26 1.31-.26 1.32-.27 1.31-.27 1.31-.28 1.31-.28 1.31-.28 1.31-.3 1.31-.29 1.31-.3 1.3-.31 1.31-.31 1.31-.31 1.3-.32 1.31-.33 1.3-.33 1.31-.33 1.3-.34 1.3-.35 1.31-.35 1.3-.35 1.3-.36 1.3-.36 1.3-.37 1.3-.37 1.3-.38 1.3-.38 1.29-.39 1.3-.39 1.3-.4 1.3-.4 1.29-.41 1.3-.41 1.29-.42 1.29-.42 1.3-.42 1.29-.44 1.29-.43 1.29-.44 1.3-.45 1.29-.45 1.29" style="stroke-width:1.07;stroke:#000000;stroke-opacity:0.10;stroke-linecap:butt"/><path d="m97.18 181.52 1.12.9 1.12.9 1.11.9 1.12.9 1.12.9 1.11.9 1.12.89 1.12.9 1.11.9 1.12.9 1.12.9 1.11.9 1.12.9 1.12.9 1.11.9 1.12.9 1.12.89 1.11.9 1.12.9 1.12.9 1.11.9 1.12.9 1.12.9 1.11.9 1.12.9 1.12.9 1.11.9 1.12.89 1.12.9 1.11.9 1.12.9 1.12.9 1.11.9 1.12.9 1.12.9 1.11.9 1.12.9 1.12.89 1.11.9 1.12.9 1.12.9 1.11.9 1.12.9 1.12.9 1.11.9 1.12.9 1.12.9 1.11.89 1.12.9 1.12.9 1.11.9 1.12.9 1.12.9 1.11.9 1.12.9 1.12.9 1.11.9 1.12.9 1.12.89 1.11.9 1.12.9 1.12.9 1.11.9 1.12.9 1.12.9 1.11.9 1.12.9 1.12.9 1.11.89 1.12.9 1.12.9 1.11.9 1.12.9 1.12.9 1.11.9 1.12.9 1.12.9 1.11.9 1.12.9 1.12.89 1.11.9 1.12.9 1.12.9 1.11.9 1.12.9 1.12.9 1.11.9 1.12.9 1.12.9 1.11.89 1.12.9 1.12.9 1.11.9 1.12.9 1.12.9 1.11.9 1.12.9 1.12.9 1.11.9M55.97 295.88l1.53-.26 1.53-.25 1.54-.26 1.53-.25 1.53-.26 1.54-.26 1.53-.25 1.53-.26 1.53-.25 1.54-.26 1.53-.26 1.53-.25 1.54-.26 1.53-.26 1.53-.25 1.54-.26 1.53-.25 1.53-.26 1.53-.26 1.54-.25 1.53-.26 1.53-.25 1.54-.26 1.53-.26 1.53-.25 1.54-.26 1.53-.25 1.53-.26 1.53-.26 1.54-.25 1.53-.26 1.53-.26 1.54-.25 1.53-.26 1.53-.25 1.54-.26 1.53-.26 1.53-.25 1.53-.26 1.54-.25 1.53-.26 1.53-.26 1.54-.25 1.53-.26 1.53-.25 1.54-.26 1.53-.26 1.53-.25 1.53-.26 1.54-.26 1.53-.25 1.53-.26 1.54-.25 1.53-.26 1.53-.26 1.54-.25 1.53-.26 1.53-.25 1.53-.26 1.54-.26 1.53-.25 1.53-.26 1.54-.25 1.53-.26 1.53-.26 1.53-.25 1.54-.26 1.53-.25 1.53-.26 1.54-.26 1.53-.25 1.53-.26 1.54-.26 1.53-.25 1.53-.26 1.53-.25 1.54-.26 1.53-.26 1.53-.25 1.54-.26 1.53-.25 1.53-.26 1.54-.26 1.53-.25 1.53-.26 1.53-.25 1.54-.26 1.53-.26 1.53-.25 1.54-.26 1.53-.26 1.53-.25 1.54-.26 1.53-.25 1.53-.26 1.53-.26 1.54-.25 1.53-.26 1.53-.25" style="stroke-width:1.07;stroke:#000000;stroke-opacity:0.10;stroke-linecap:butt"/><path d="m228.95 140.07.14 1.36.14 1.36.12 1.35.12 1.36.11 1.36.1 1.35.1 1.36.09 1.35.08 1.35.07 1.35.07 1.35.06 1.36.05 1.34.05 1.35.03 1.35.03 1.35.03 1.34.01 1.35.01 1.34.01 1.35-.01 1.34-.01 1.34-.02 1.34-.03 1.34-.03 1.34-.04 1.34-.05 1.33-.06 1.34-.06 1.34-.07 1.33-.08 1.34-.08 1.33-.09 1.33-.1 1.33-.11 1.33-.11 1.33-.12 1.33-.13 1.33-.14 1.33-.14 1.32-.15 1.33-.15 1.32-.17 1.33-.17 1.32-.18 1.32-.18 1.32-.19 1.32-.2 1.32-.21 1.32-.22 1.32-.22 1.31-.23 1.32-.23 1.32-.25 1.31-.25 1.31-.25 1.32-.27 1.31-.27 1.31-.28 1.31-.29 1.31-.29 1.31-.3 1.3-.31 1.31-.31 1.31-.33 1.3-.33 1.31-.33 1.3-.35 1.3-.35 1.3-.36 1.3-.36 1.3-.38 1.3-.38 1.3-.38 1.3-.4 1.3-.4 1.29-.41 1.3-.42 1.29-.42 1.29-.43 1.3-.44 1.29-.44 1.29-.46 1.29-.46 1.29-.46 1.28-.48 1.29-.48 1.29-.49 1.28-.49 1.29-.51 1.28-.51 1.28-.51 1.29-.53 1.28-.53 1.28-.54 1.28-.54 1.28-.56 1.27-.56 1.28-.57 1.28m130.48-67.08-1.26.76-1.26.76-1.26.76-1.26.76-1.26.75-1.27.76-1.26.75-1.27.75-1.26.75-1.27.75-1.27.74-1.27.75-1.28.74-1.27.74-1.27.74-1.28.74-1.28.73-1.28.73-1.27.74-1.29.73-1.28.72-1.28.73-1.29.72-1.28.73-1.29.72-1.29.72-1.29.72-1.29.71-1.29.72-1.29.71-1.3.71-1.29.71-1.3.71-1.3.7-1.3.7-1.3.71-1.3.7-1.3.7-1.31.69-1.3.7-1.31.69-1.31.69-1.31.69-1.31.69-1.31.69-1.31.68-1.31.68-1.32.68-1.32.68-1.31.68-1.32.68-1.32.67-1.33.67-1.32.67-1.32.67-1.33.67-1.32.67-1.33.66-1.33.66-1.33.66-1.33.66-1.34.66-1.33.65-1.34.65-1.33.66-1.34.65-1.34.64-1.34.65-1.34.64-1.34.65-1.35.64-1.34.64-1.35.63-1.35.64-1.34.63-1.35.64-1.36.63-1.35.63-1.35.62-1.36.63-1.35.62-1.36.62-1.36.62-1.36.62-1.36.62-1.36.61-1.37.62-1.36.61-1.37.61-1.36.6-1.37.61-1.37.6-1.37.61-1.38.6-1.37.6-1.37.59-1.38.6-1.38.59-1.38.6M136.4 385.22l.72-1.16.72-1.16.72-1.16.72-1.16.72-1.15.72-1.16.72-1.16.72-1.16.72-1.16.72-1.16.73-1.16.72-1.15.72-1.16.72-1.16.72-1.16.72-1.16.72-1.16.72-1.16.72-1.15.72-1.16.72-1.16.72-1.16.72-1.16.72-1.16.72-1.15.72-1.16.72-1.16.72-1.16.73-1.16.72-1.16.72-1.16.72-1.15.72-1.16.72-1.16.72-1.16.72-1.16.72-1.16.72-1.16.72-1.15.72-1.16.72-1.16.72-1.16.72-1.16.72-1.16.72-1.15.72-1.16.73-1.16.72-1.16.72-1.16.72-1.16.72-1.16.72-1.15.72-1.16.72-1.16.72-1.16.72-1.16.72-1.16.72-1.16.72-1.15.72-1.16.72-1.16.72-1.16.72-1.16.72-1.16.72-1.16.73-1.15.72-1.16.72-1.16.72-1.16.72-1.16.72-1.16.72-1.15.72-1.16.72-1.16.72-1.16.72-1.16.72-1.16.72-1.16.72-1.15.72-1.16.72-1.16.72-1.16.72-1.16.73-1.16.72-1.16.72-1.15.72-1.16.72-1.16.72-1.16.72-1.16.72-1.16.72-1.15.72-1.16.72-1.16.72-1.16.72-1.16.72-1.16.72-1.16.72-1.15m112.89 90.89-.64-1.37-.66-1.35-.67-1.34-.68-1.34-.69-1.32-.69-1.32-.71-1.31-.72-1.29-.73-1.29-.74-1.28-.74-1.28-.76-1.26-.77-1.25-.78-1.24-.79-1.24-.8-1.23-.8-1.21-.82-1.21-.83-1.2-.84-1.19-.85-1.18-.86-1.17-.87-1.16-.88-1.16-.89-1.14-.89-1.14-.91-1.12-.92-1.12-.93-1.11-.94-1.1-.95-1.09-.96-1.08-.97-1.07-.98-1.06-.99-1.06-1-1.04-1.01-1.04-1.02-1.03-1.03-1.01-1.04-1.01-1.05-1-1.06-.99-1.07-.98-1.08-.98-1.09-.96-1.1-.95-1.11-.95-1.12-.93-1.13-.93-1.14-.92-1.15-.91-1.16-.9-1.17-.89-1.18-.88-1.19-.87-1.2-.87-1.21-.85-1.22-.85-1.23-.84-1.24-.82-1.25-.82-1.27-.81-1.27-.8-1.28-.79-1.29-.78-1.3-.78-1.31-.76-1.32-.76-1.33-.74-1.34-.74-1.36-.73-1.36-.72-1.37-.71-1.38-.7-1.39-.69-1.4-.68-1.42-.68-1.42-.66-1.43-.66-1.44-.64-1.45-.64-1.46-.63-1.48-.62-1.48-.61-1.49-.6-1.5-.59-1.52-.58-1.52-.58-1.53-.56-1.54-.56-1.56-.55-1.56-.53-1.57-.53-1.58-.52-1.6-.51-1.6-.5-1.61-.5-1.62-.48-1.64-.47" style="stroke-width:1.07;stroke:#000000;stroke-opacity:0.10;stroke-linecap:butt"/><path d="m320.62 361.42-.73-1.29-.73-1.28-.75-1.28-.76-1.26-.76-1.26-.77-1.25-.78-1.24-.79-1.24-.8-1.22-.8-1.22-.82-1.22-.82-1.2-.83-1.2-.84-1.19-.84-1.18-.86-1.17-.86-1.17-.87-1.16-.89-1.15-.88-1.15-.9-1.13-.91-1.13-.91-1.12-.92-1.12-.94-1.11-.93-1.09-.95-1.1-.96-1.08-.96-1.08-.98-1.07-.98-1.06-.99-1.05-.99-1.05-1.01-1.04-1.01-1.03-1.03-1.02-1.03-1.02-1.04-1.01-1.05-1-1.05-.99-1.07-.99-1.07-.98-1.08-.97-1.09-.96-1.1-.96-1.11-.94-1.11-.94-1.13-.94-1.13-.92-1.14-.92-1.15-.91-1.16-.9-1.16-.9-1.17-.89-1.19-.88-1.19-.87-1.2-.87-1.2-.85-1.22-.85-1.22-.85-1.24-.83-1.24-.83-1.25-.82-1.25-.81-1.27-.81-1.27-.79-1.29-.79-1.29-.79-1.3-.77-1.31-.77-1.31-.76-1.33-.75-1.33-.74-1.34-.74-1.35-.73-1.36-.72-1.36-.72-1.38-.7-1.38-.7-1.39-.7-1.4-.68-1.41-.68-1.42-.66-1.42-.67-1.44-.65-1.44-.65-1.45-.64-1.46-.63-1.47-.62-1.47-.62-1.48-.61-1.5-.6-1.5-.59-1.51-.59-1.51-.58-1.53-.57-1.53-.56-1.55-.56-1.55-.54" style="stroke-width:1.07;stroke:#000000;stroke-opacity:0.10;stroke-linecap:butt"/><path d="m320.62 361.42-.81-1.22-.82-1.21-.82-1.2-.83-1.19-.84-1.19-.85-1.19-.85-1.17-.86-1.18-.86-1.16-.88-1.16-.88-1.15-.88-1.15-.89-1.14-.9-1.14-.91-1.13-.91-1.12-.92-1.12-.93-1.11-.93-1.11-.94-1.09-.94-1.1-.96-1.08-.96-1.09-.96-1.07-.97-1.07-.98-1.06-.99-1.06-.99-1.05-1-1.05-1.01-1.03-1.01-1.04-1.02-1.02-1.03-1.02-1.03-1.02-1.04-1.01-1.05-1-1.05-1-1.06-.99-1.07-.98-1.07-.98-1.08-.97-1.09-.97-1.09-.96-1.1-.95-1.11-.95-1.11-.94-1.12-.94-1.13-.93-1.13-.92-1.14-.92-1.15-.91-1.15-.91-1.16-.9-1.17-.89-1.17-.89-1.18-.88-1.19-.88-1.2-.87-1.2-.86-1.2-.86-1.22-.85-1.22-.85-1.23-.84-1.23-.83-1.24-.83-1.25-.82-1.25-.82-1.26-.81-1.27-.8-1.28-.8-1.28-.79-1.28-.78-1.3-.78-1.3-.78-1.31-.76-1.31-.76-1.32-.76-1.33-.75-1.34-.74-1.34-.74-1.35-.73-1.35-.72-1.36-.72-1.37-.72-1.37-.7-1.39-.7-1.38-.7-1.4-.69-1.4-.68-1.41-.68-1.41-.67-1.43-.66-1.42-.66-1.44-.65-1.44-.65-1.45-.64-1.46-.63-1.46-.63-1.47-.62" style="stroke-width:1.07;stroke:#000000;stroke-opacity:0.10;stroke-linecap:butt"/><path d="m320.62 361.42-.89-1.14-.9-1.14-.9-1.13-.91-1.13-.92-1.12-.92-1.12-.92-1.11-.93-1.11-.93-1.1-.94-1.1-.95-1.09-.95-1.09-.95-1.09-.96-1.08-.96-1.08-.97-1.07-.98-1.07-.98-1.06-.98-1.06-.99-1.05-1-1.05-1-1.05-1-1.04-1.01-1.03-1.01-1.03-1.02-1.03-1.03-1.02-1.03-1.02-1.03-1.01-1.04-1.01-1.05-1.01-1.05-1-1.05-.99-1.06-.99-1.07-.99-1.07-.98-1.07-.98-1.08-.97-1.09-.97-1.09-.96-1.09-.96-1.1-.95-1.11-.95-1.11-.95-1.11-.94-1.12-.93-1.13-.94-1.13-.92-1.13-.93-1.14-.91-1.15-.92-1.15-.91-1.16-.9-1.16-.9-1.16-.9-1.17-.89-1.18-.88-1.18-.89-1.18-.87-1.19-.88-1.2-.86-1.2-.87-1.21-.86-1.21-.85-1.21-.85-1.22-.85-1.23-.84-1.23-.84-1.24-.83-1.24-.82-1.24-.83-1.25-.82-1.26-.81-1.26-.81-1.27-.8-1.27-.81-1.27-.79-1.28-.79-1.29-.79-1.29-.78-1.3-.78-1.3-.77-1.3-.77-1.32-.77-1.31-.75-1.32-.76-1.33-.75-1.33-.75-1.34-.74-1.34-.74-1.34-.73-1.36-.73-1.35-.72-1.36-.72-1.37-.71-1.37-.71-1.38-.71-1.38-.7-1.39-.69" style="stroke-width:1.07;stroke:#000000;stroke-opacity:0.10;stroke-linecap:butt"/><path d="m320.62 361.42-.97-1.07-.98-1.06-.98-1.06-.99-1.06-.99-1.05-.99-1.06-1-1.04-1-1.05-1-1.04-1.01-1.04-1.01-1.03-1.01-1.04-1.02-1.03-1.02-1.02-1.02-1.03-1.03-1.02-1.03-1.02-1.03-1.01-1.04-1.01-1.04-1.01-1.04-1.01-1.04-1-1.05-1-1.06-.99-1.05-1-1.06-.99-1.07-.99-1.06-.98-1.07-.98-1.08-.98-1.07-.98-1.08-.97-1.09-.97-1.08-.96-1.09-.97-1.1-.96-1.09-.96-1.1-.95-1.11-.95-1.1-.95-1.11-.94-1.12-.95-1.11-.94-1.13-.93-1.12-.94-1.13-.93-1.13-.92-1.13-.93-1.14-.92-1.14-.92-1.14-.91-1.15-.91-1.15-.91-1.15-.91-1.16-.9-1.16-.9-1.16-.9-1.17-.89-1.17-.89-1.17-.89-1.18-.89-1.18-.88-1.19-.88-1.18-.87-1.19-.87-1.2-.87-1.19-.87-1.21-.86-1.2-.87-1.21-.85-1.21-.86-1.21-.85-1.22-.85-1.22-.84-1.22-.85-1.23-.84-1.23-.83-1.24-.84-1.23-.83-1.24-.82-1.25-.83-1.25-.82-1.25-.82-1.25-.81-1.26-.82-1.26-.81-1.26-.8-1.27-.81-1.27-.8-1.28-.79-1.27-.8-1.29-.79-1.28-.79-1.29-.78-1.29-.79-1.29-.77-1.3-.78-1.3-.77-1.31-.77" style="stroke-width:1.07;stroke:#000000;stroke-opacity:0.10;stroke-linecap:butt"/><path d="m320.62 361.42-1.05-1-1.06-.99-1.07-.99-1.06-.98-1.06-.99-1.07-.98-1.07-.99-1.07-.98-1.07-.98-1.07-.98-1.08-.97-1.08-.98-1.07-.97-1.08-.98-1.09-.97-1.08-.97-1.08-.96-1.09-.97-1.09-.96-1.09-.97-1.09-.96-1.09-.96-1.1-.96-1.1-.96-1.09-.95-1.1-.96-1.11-.95-1.1-.95-1.1-.95-1.11-.95-1.11-.95-1.11-.94-1.11-.94-1.12-.95-1.11-.94-1.12-.94-1.12-.93-1.12-.94-1.12-.94-1.12-.93-1.13-.93-1.12-.93-1.13-.93-1.13-.93-1.13-.92-1.14-.93-1.13-.92-1.14-.92-1.14-.92-1.14-.92-1.14-.91-1.14-.92-1.15-.91-1.15-.91-1.15-.91-1.15-.91-1.15-.91-1.15-.91-1.16-.9-1.15-.9-1.16-.91-1.16-.9-1.17-.89-1.16-.9-1.16-.9-1.17-.89-1.17-.89-1.17-.89-1.17-.89-1.18-.89-1.17-.89-1.18-.88-1.18-.89-1.18-.88-1.18-.88-1.19-.88-1.18-.87-1.19-.88-1.19-.87-1.19-.88-1.19-.87-1.19-.87-1.2-.87-1.2-.86-1.2-.87-1.2-.86-1.2-.87-1.2-.86-1.21-.85-1.21-.86-1.2-.86-1.21-.85-1.22-.86-1.21-.85-1.22-.85-1.21-.85-1.22-.84-1.22-.85-1.23-.84" style="stroke-width:1.07;stroke:#000000;stroke-opacity:0.10;stroke-linecap:butt"/><path d="m320.62 361.42-1.14-.92-1.14-.92-1.14-.92-1.14-.92-1.14-.92-1.14-.91-1.14-.92-1.14-.92-1.14-.92-1.14-.92-1.14-.91-1.14-.92-1.14-.92-1.14-.92-1.14-.92-1.14-.91-1.14-.92-1.14-.92-1.14-.92-1.14-.92-1.14-.91-1.14-.92-1.14-.92-1.14-.92-1.14-.92-1.14-.91-1.14-.92-1.14-.92-1.14-.92-1.15-.92-1.14-.92-1.14-.91-1.14-.92-1.14-.92-1.14-.92-1.14-.92-1.14-.91-1.14-.92-1.14-.92-1.14-.92-1.14-.92-1.14-.91-1.14-.92-1.14-.92-1.14-.92-1.14-.92-1.14-.91-1.14-.92-1.14-.92-1.14-.92-1.14-.92-1.14-.91-1.14-.92-1.14-.92-1.14-.92-1.14-.92-1.14-.92-1.14-.91-1.14-.92-1.14-.92-1.14-.92-1.15-.92-1.14-.91-1.14-.92-1.14-.92-1.14-.92-1.14-.92-1.14-.91-1.14-.92-1.14-.92-1.14-.92-1.14-.92-1.14-.91-1.14-.92-1.14-.92-1.14-.92-1.14-.92-1.14-.91-1.14-.92-1.14-.92-1.14-.92-1.14-.92-1.14-.92-1.14-.91-1.14-.92-1.14-.92-1.14-.92-1.14-.92-1.14-.91-1.14-.92-1.14-.92-1.14-.92-1.14-.92-1.14-.91-1.15-.92-1.14-.92-1.14-.92-1.14-.92-1.14-.91m112.89 90.89-1.22-.85-1.22-.84-1.22-.85-1.22-.85-1.21-.85-1.22-.85-1.21-.86-1.21-.85-1.21-.86-1.2-.85-1.21-.86-1.2-.86-1.21-.87-1.2-.86-1.2-.87-1.19-.86-1.2-.87-1.19-.87-1.2-.87-1.19-.87-1.18-.88-1.19-.87-1.19-.88-1.18-.88-1.18-.88-1.18-.88-1.18-.89-1.18-.88-1.18-.89-1.17-.89-1.17-.88-1.17-.9-1.17-.89-1.17-.89-1.16-.9-1.17-.89-1.16-.9-1.16-.9-1.16-.9-1.16-.91-1.15-.9-1.15-.91-1.16-.91-1.15-.9-1.15-.91-1.14-.92-1.15-.91-1.14-.92-1.14-.91-1.14-.92-1.14-.92-1.14-.92-1.13-.92-1.14-.93-1.13-.92-1.13-.93-1.13-.93-1.13-.93-1.12-.93-1.12-.93-1.13-.94-1.12-.93-1.12-.94-1.11-.94-1.12-.94-1.11-.94-1.11-.95-1.11-.94-1.11-.95-1.11-.95-1.1-.95-1.11-.95-1.1-.95-1.1-.96-1.1-.95-1.09-.96-1.1-.96-1.09-.96-1.09-.96-1.09-.96-1.09-.97-1.09-.97-1.08-.96-1.09-.97-1.08-.97-1.08-.98-1.08-.97-1.07-.98-1.08-.97-1.07-.98-1.07-.98-1.07-.98-1.07-.98-1.07-.99-1.06-.99-1.07-.98-1.06-.99-1.06-.99-1.06-.99" style="stroke-width:1.07;stroke:#000000;stroke-opacity:0.10;stroke-linecap:butt"/><path d="m320.62 361.42-1.3-.77-1.3-.78-1.3-.77-1.29-.78-1.29-.79-1.29-.78-1.29-.79-1.28-.79-1.28-.8-1.27-.79-1.27-.8-1.27-.81-1.26-.8-1.26-.81-1.26-.81-1.26-.82-1.25-.82-1.24-.82-1.25-.82-1.24-.83-1.24-.83-1.23-.84-1.23-.83-1.23-.84-1.22-.84-1.22-.85-1.22-.85-1.22-.85-1.21-.86-1.2-.85-1.21-.86-1.2-.87-1.2-.86-1.19-.87-1.19-.88-1.19-.87-1.18-.88-1.18-.88-1.18-.89-1.17-.89-1.17-.89-1.17-.89-1.16-.9-1.16-.9-1.16-.9-1.15-.91-1.16-.91-1.14-.91-1.15-.91-1.14-.92-1.13-.92-1.14-.93-1.13-.92-1.12-.93-1.13-.94-1.12-.93-1.11-.94-1.12-.94-1.11-.95-1.1-.95-1.11-.95-1.1-.95-1.1-.96-1.09-.96-1.09-.96-1.09-.97-1.08-.97-1.08-.97-1.08-.98-1.07-.98-1.07-.98-1.07-.98-1.06-.99-1.06-.99-1.05-.99-1.06-1-1.05-1-1.04-1-1.05-1.01-1.04-1.01-1.03-1.01-1.04-1.01-1.03-1.02-1.02-1.02-1.03-1.03-1.02-1.02-1.01-1.03-1.01-1.03-1.01-1.04-1.01-1.04-1-1.04-1-1.05-1-1.04-.99-1.05-.99-1.06-.99-1.06-.98-1.06-.98-1.06-.98-1.06" style="stroke-width:1.07;stroke:#000000;stroke-opacity:0.10;stroke-linecap:butt"/><path d="m320.62 361.42-1.38-.7-1.38-.7-1.38-.71-1.37-.71-1.37-.71-1.36-.72-1.36-.72-1.35-.73-1.34-.73-1.35-.74-1.33-.74-1.33-.75-1.33-.75-1.32-.75-1.32-.76-1.31-.77-1.3-.77-1.31-.77-1.29-.78-1.29-.78-1.29-.79-1.28-.79-1.28-.79-1.27-.8-1.26-.81-1.26-.81-1.26-.81-1.25-.82-1.25-.82-1.24-.83-1.23-.83-1.23-.84-1.23-.84-1.22-.85-1.22-.85-1.21-.85-1.2-.86-1.2-.86-1.2-.87-1.19-.88-1.18-.87-1.19-.88-1.17-.89-1.17-.89-1.17-.9-1.16-.9-1.15-.9-1.15-.91-1.15-.91-1.14-.92-1.13-.93-1.13-.92-1.13-.93-1.12-.94-1.11-.94-1.11-.95-1.11-.95-1.1-.95-1.09-.96-1.09-.96-1.09-.97-1.08-.97-1.07-.98-1.07-.98-1.07-.99-1.06-.99-1.05-.99-1.05-1-1.05-1.01-1.04-1.01-1.03-1.01-1.03-1.02-1.03-1.02-1.02-1.02-1.01-1.04-1.01-1.03-1.01-1.04-1-1.05-.99-1.05-.99-1.05-.98-1.06-.98-1.06-.98-1.07-.97-1.07-.96-1.08-.96-1.08-.96-1.08-.95-1.09-.94-1.1-.94-1.1-.93-1.1-.93-1.11-.93-1.11-.92-1.12-.91-1.12-.91-1.13-.9-1.13-.9-1.13-.9-1.14" style="stroke-width:1.07;stroke:#000000;stroke-opacity:0.10;stroke-linecap:butt"/><path d="m320.62 361.42-1.46-.63-1.47-.63-1.45-.63-1.45-.64-1.44-.65-1.44-.65-1.43-.66-1.42-.66-1.41-.67-1.41-.68-1.4-.68-1.4-.69-1.39-.7-1.38-.7-1.37-.7-1.37-.72-1.36-.71-1.36-.73-1.34-.73-1.35-.74-1.33-.74-1.33-.75-1.32-.75-1.31-.77-1.31-.76-1.3-.78-1.3-.78-1.29-.78-1.28-.79-1.27-.8-1.27-.8-1.26-.81-1.25-.82-1.25-.82-1.24-.83-1.24-.83-1.22-.84-1.22-.85-1.22-.85-1.21-.86-1.2-.86-1.19-.87-1.19-.87-1.18-.89-1.17-.88-1.17-.9-1.16-.9-1.15-.9-1.15-.92-1.14-.91-1.13-.93-1.13-.93-1.12-.93-1.11-.95-1.11-.95-1.1-.95-1.1-.96-1.08-.97-1.08-.97-1.08-.98-1.06-.98-1.06-.99-1.05-1-1.05-1-1.04-1.01-1.03-1.01-1.03-1.03-1.02-1.02-1.01-1.03-1.01-1.04-1-1.05-.99-1.05-.99-1.06-.98-1.06-.97-1.07-.97-1.07-.96-1.08-.95-1.09-.94-1.09-.94-1.1-.94-1.11-.92-1.11-.92-1.12-.91-1.12-.91-1.13-.9-1.14-.89-1.14-.89-1.14-.88-1.16-.87-1.16-.86-1.16-.86-1.17-.85-1.18-.85-1.19-.84-1.19-.83-1.19-.83-1.2-.81-1.21-.82-1.21" style="stroke-width:1.07;stroke:#000000;stroke-opacity:0.10;stroke-linecap:butt"/><path d="m320.62 361.42-1.55-.55-1.54-.56-1.53-.56-1.53-.57-1.52-.58-1.5-.59-1.51-.59-1.49-.6-1.48-.61-1.48-.62-1.46-.62-1.46-.63-1.45-.64-1.44-.65-1.44-.65-1.42-.66-1.42-.67-1.41-.68-1.4-.68-1.39-.7-1.38-.69-1.38-.71-1.36-.72-1.36-.72-1.35-.73-1.34-.73-1.34-.75-1.32-.75-1.32-.76-1.31-.77-1.29-.77-1.3-.78-1.28-.79-1.27-.8-1.27-.81-1.26-.81-1.25-.82-1.24-.83-1.23-.83-1.22-.84-1.22-.85-1.21-.86-1.19-.87-1.2-.87-1.18-.88-1.17-.89-1.17-.89-1.15-.91-1.15-.91-1.14-.92-1.13-.92-1.13-.93-1.11-.95-1.11-.94-1.1-.96-1.09-.96-1.08-.97-1.07-.98-1.07-.99-1.06-.99-1.04-1-1.04-1.01-1.03-1.02-1.03-1.02-1.01-1.03-1.01-1.04-1-1.05-.99-1.05-.98-1.06-.97-1.07-.96-1.08-.96-1.08-.95-1.09-.94-1.1-.93-1.11-.92-1.11-.91-1.13-.91-1.13-.9-1.13-.89-1.15-.88-1.15-.87-1.16-.86-1.17-.86-1.17-.85-1.18-.84-1.19-.83-1.2-.82-1.2-.81-1.22-.81-1.22-.79-1.22-.79-1.24-.78-1.24-.77-1.25-.77-1.26-.75-1.26-.75-1.28-.74-1.28-.73-1.28" style="stroke-width:1.07;stroke:#000000;stroke-opacity:0.10;stroke-linecap:butt"/><path d="m320.62 361.42-1.63-.48-1.62-.48-1.61-.5-1.61-.5-1.59-.51-1.58-.52-1.57-.53-1.57-.53-1.55-.55-1.54-.56-1.53-.56-1.53-.58-1.51-.58-1.5-.59-1.49-.6-1.49-.61-1.47-.62-1.46-.63-1.45-.64-1.44-.64-1.44-.66-1.42-.66-1.41-.68-1.4-.68-1.39-.69-1.38-.7-1.37-.71-1.37-.72-1.35-.73-1.34-.74-1.33-.74-1.32-.76-1.31-.76-1.3-.77-1.3-.79-1.28-.79-1.27-.8-1.26-.81-1.25-.82-1.24-.82-1.23-.84-1.22-.85-1.21-.85-1.2-.86-1.19-.88-1.18-.88-1.17-.89-1.16-.9-1.15-.91-1.15-.92-1.13-.92-1.12-.94-1.11-.95-1.1-.95-1.09-.96-1.08-.98-1.07-.98-1.06-.99-1.05-1-1.04-1.01-1.03-1.01-1.01-1.03-1.01-1.04-1-1.04-.99-1.05-.98-1.07-.97-1.07-.96-1.08-.95-1.09-.94-1.1-.93-1.11-.92-1.12-.91-1.12-.9-1.14-.89-1.14-.87-1.16-.87-1.16-.86-1.17-.85-1.18-.84-1.19-.83-1.2-.82-1.21-.81-1.21-.79-1.23-.79-1.23-.78-1.25-.77-1.25-.76-1.26-.75-1.27-.73-1.28-.73-1.29-.72-1.3-.71-1.31-.7-1.32-.69-1.32-.67-1.34-.67-1.34-.66-1.35-.65-1.36" style="stroke-width:1.07;stroke:#000000;stroke-opacity:0.10;stroke-linecap:butt"/><path d="m338.21 197.85 4.84 8.4h-9.69zm-109.26-65.86 7 12.12h-13.99zm194.78 310.23 1.91 3.31h-3.83zM97.18 179.31l1.92 3.32h-3.83zM55.97 293.67l1.91 3.32h-3.83zm80.43 89.34 1.91 3.31h-3.82z" style="stroke-width:0.71;stroke:none;fill:#00BA38"/><path d="M319.2 362.84h2.85v-2.85h-2.85z" style="stroke-width:0.71;stroke:none;fill:#619CFF"/><circle cx="207.73" cy="270.53" r="6.76" style="stroke-width:0.71;stroke:none;fill:#F8766D"/><circle cx="522.77" cy="524.17" r="1.42" style="stroke-width:0.71;stroke:none;fill:#F8766D"/><path d="m333.06 208.09 4.29-3.87M233.5 132.78l-3.96 6.36M418.4 449.03l4.45-3.84m-330.83-259 4.31-3.89M60.8 294.6l-3.62.96m84.54 85.07-4.44 3.83M326 356.77l-4.5 3.89M202.33 275.2l4.53-3.91m311.07 255.24 3.75-1.83" style="stroke-width:0.53;stroke:#BFBFBF"/><path d="M300.93 219.43h49.45-.09l.35-.01.34-.07.32-.12.3-.18.27-.22.23-.26.19-.29.14-.32.08-.34.03-.35h0v-7.02h0l-.03-.35-.08-.34-.14-.32-.19-.29-.23-.26-.27-.22-.3-.17-.32-.13-.34-.07-.26-.01h-49.45l.26.01-.35-.01-.35.04-.33.1-.31.15-.29.19-.25.24-.21.28-.16.31-.11.33-.06.34v7.2-.17.35l.06.34.11.33.16.31.21.28.25.24.29.19.31.15.33.1.35.04z" style="stroke-width:0.53;fill:#FFFFFF;fill-opacity:0.50"/><text x="325.65" y="215.83" lengthAdjust="spacingAndGlyphs" style="font-size:5.69px;font-family:&quot;Liberation Sans&quot;" text-anchor="middle" textLength="46.57">ROBERT O KERN</text><path d="M235.66 135.81h79.1-.09l.35-.02.34-.07.32-.12.31-.17.26-.22.23-.26.19-.3.14-.32.08-.33.03-.35h0v-7.03h0l-.03-.34-.08-.34-.14-.32-.19-.29-.23-.27-.26-.21-.31-.18-.32-.12-.34-.07-.26-.02h-79.1l.26.02-.35-.02-.34.05-.34.09-.31.15-.29.2-.25.24-.21.28-.16.31-.11.33-.05.34-.01.17v7.03l.01-.17v.34l.05.35.11.33.16.3.21.28.25.24.29.2.31.15.34.1.34.04z" style="stroke-width:0.53;fill:#FFFFFF;fill-opacity:0.50"/><text x="275.21" y="132.21" lengthAdjust="spacingAndGlyphs" style="font-size:5.69px;font-family:&quot;Liberation Sans&quot;" text-anchor="middle" textLength="76.22">BARBARA HOLZMANN TOD</text><path d="M368.95 468.57h74.64-.09l.35-.01.34-.07.33-.12.3-.18.27-.22.23-.26.18-.29.14-.32.08-.34.03-.35h0v-15.22h0l-.03-.34-.08-.34-.14-.32-.18-.29-.23-.26-.27-.22-.3-.18-.33-.12-.34-.07-.26-.02h-74.64l.26.02-.35-.02-.34.05-.34.09-.31.15-.29.2-.25.24-.21.28-.16.31-.11.33-.06.34v15.39-.17.35l.06.34.11.33.16.31.21.28.25.24.29.2.31.14.34.1.34.04z" style="stroke-width:0.53;fill:#FFFFFF;fill-opacity:0.50"/><text x="406.27" y="456.78" lengthAdjust="spacingAndGlyphs" style="font-size:5.69px;font-family:&quot;Liberation Sans&quot;" text-anchor="middle" textLength="71.76">BADGER STATE HOUSING</text><text x="406.27" y="464.97" lengthAdjust="spacingAndGlyphs" style="font-size:5.69px;font-family:&quot;Liberation Sans&quot;" text-anchor="middle" textLength="10.31">LLC</text><path d="M54.07 197.53h61.04-.08l.34-.01.35-.07.32-.13.3-.17.27-.22.23-.26.19-.29.13-.32.09-.34.02-.35h0v-7.02h0l-.02-.35-.09-.34-.13-.32-.19-.29-.23-.26-.27-.22-.3-.18-.32-.12-.35-.07-.26-.01H54.07l.26.01-.34-.01-.35.04-.33.1-.32.15-.28.19-.25.24-.21.28-.16.31-.11.33-.06.34-.01.18v7.02l.01-.17v.35l.06.34.11.33.16.31.21.28.25.24.28.19.32.15.33.1.35.04z" style="stroke-width:0.53;fill:#FFFFFF;fill-opacity:0.50"/><text x="84.59" y="193.93" lengthAdjust="spacingAndGlyphs" style="font-size:5.69px;font-family:&quot;Liberation Sans&quot;" text-anchor="middle" textLength="58.16">STANLEY A MILLER II</text><path d="M62.96 300.2h64.96-.09l.35-.01.34-.07.33-.13.3-.17.27-.22.23-.26.18-.3.14-.32.08-.33.03-.35h0v-7.03h0l-.03-.34-.08-.34-.14-.32-.18-.29-.23-.26-.27-.22-.3-.18-.33-.12-.34-.07-.26-.02H62.96l.26.02-.35-.01-.34.04-.33.09-.32.15-.28.2-.25.24-.21.28-.17.31-.11.33-.05.34-.01.17v7.03l.01-.17v.34l.05.35.11.33.17.31.21.27.25.24.28.2.32.15.33.1.34.04z" style="stroke-width:0.53;fill:#FFFFFF;fill-opacity:0.50"/><text x="95.44" y="296.6" lengthAdjust="spacingAndGlyphs" style="font-size:5.69px;font-family:&quot;Liberation Sans&quot;" text-anchor="middle" textLength="62.08">BARBARA HOLZMANN</text><path d="M118.53 380.63h70.65l-.09-.01.35-.01.34-.07.33-.12.3-.18.27-.22.23-.26.18-.29.14-.32.08-.34.03-.34h0v-15.23h0l-.03-.34-.08-.34-.14-.32-.18-.29-.23-.26-.27-.22-.3-.18-.33-.12-.34-.07-.26-.02h-70.65l.26.02-.35-.01-.35.04-.33.09-.31.15-.29.2-.25.24-.21.28-.16.31-.11.33-.06.34v15.4-.18.35l.06.34.11.33.16.31.21.28.25.24.29.2.31.15.33.09.35.04z" style="stroke-width:0.53;fill:#FFFFFF;fill-opacity:0.50"/><text x="153.85" y="368.83" lengthAdjust="spacingAndGlyphs" style="font-size:5.69px;font-family:&quot;Liberation Sans&quot;" text-anchor="middle" textLength="67.77">BARBARA A HOLZMANN</text><text x="153.85" y="377.03" lengthAdjust="spacingAndGlyphs" style="font-size:5.69px;font-family:&quot;Liberation Sans&quot;" text-anchor="middle" textLength="12.33">TOD</text><path d="M304.55 356.77h67.22-.09l.35-.02.34-.07.32-.12.3-.17.27-.22.23-.26.19-.3.14-.32.08-.33.03-.35h0v-15.22h0l-.03-.35-.08-.34-.14-.32-.19-.29-.23-.26-.27-.22-.3-.17-.32-.13-.34-.07-.26-.01h-67.22l.26.01-.35-.01-.34.04-.34.1-.31.15-.29.19-.25.25-.21.27-.16.31-.11.33-.05.34-.01.18v15.22l.01-.17v.34l.05.35.11.33.16.3.21.28.25.24.29.2.31.15.34.1.34.04z" style="stroke-width:0.53;fill:#FFFFFF;fill-opacity:0.50"/><text x="338.16" y="344.97" lengthAdjust="spacingAndGlyphs" style="font-size:5.69px;font-family:&quot;Liberation Sans&quot;" text-anchor="middle" textLength="48.05">2303 N 39TH ST,</text><text x="338.16" y="353.17" lengthAdjust="spacingAndGlyphs" style="font-size:5.69px;font-family:&quot;Liberation Sans&quot;" text-anchor="middle" textLength="64.34">MILWAUKEE, WI 53210</text><path d="M156.6 294.74h67.22-.09l.35-.01.34-.07.33-.13.3-.17.27-.22.23-.26.18-.3.14-.32.08-.33.03-.35h0v-15.22h0l-.03-.35-.08-.33-.14-.32-.18-.3-.23-.26-.27-.22-.3-.17-.33-.13-.34-.07-.26-.01H156.6l.26.01-.35-.01-.34.04-.33.1-.32.15-.28.2-.26.24-.2.27-.17.31-.11.33-.05.35-.01.17v15.22l.01-.17v.34l.05.35.11.33.17.31.2.27.26.24.28.2.32.15.33.1.34.04z" style="stroke-width:0.53;fill:#FFFFFF;fill-opacity:0.50"/><text x="190.21" y="282.95" lengthAdjust="spacingAndGlyphs" style="font-size:5.69px;font-family:&quot;Liberation Sans&quot;" text-anchor="middle" textLength="48.05">2303 N 39TH ST,</text><text x="190.21" y="291.14" lengthAdjust="spacingAndGlyphs" style="font-size:5.69px;font-family:&quot;Liberation Sans&quot;" text-anchor="middle" textLength="64.34">MILWAUKEE, WI 53210</text><path d="M456.09 536.87h59.68-.09l.35-.01.34-.07.33-.12.3-.18.27-.22.23-.26.18-.29.14-.32.08-.34.03-.35h0v-15.22h0l-.03-.34-.08-.34-.14-.32-.18-.3-.23-.26-.27-.22-.3-.17-.33-.12-.34-.07-.26-.02h-59.68l.26.02-.35-.02-.34.05-.34.09-.31.15-.29.2-.25.24-.21.28-.16.31-.11.33-.05.34-.01.17v15.22l.01-.17v.35l.05.34.11.33.16.31.21.28.25.24.29.19.31.15.34.1.34.04z" style="stroke-width:0.53;fill:#FFFFFF;fill-opacity:0.50"/><text x="485.93" y="525.08" lengthAdjust="spacingAndGlyphs" style="font-size:5.69px;font-family:&quot;Liberation Sans&quot;" text-anchor="middle" textLength="54.03">239 PLEASANT DR,</text><text x="485.93" y="533.27" lengthAdjust="spacingAndGlyphs" style="font-size:5.69px;font-family:&quot;Liberation Sans&quot;" text-anchor="middle" textLength="56.8">BARTLETT, IL 60103</text></g><g clip-path="url(#cpMC4wMHw1NzYuMDB8MC4wMHw1NzYuMDA=)"><circle cx="194.24" cy="95.78" r="1.95" style="stroke-width:0.71;stroke:none;fill:#F8766D"/><path d="m270.59 92.74 2.63 4.56h-5.26z" style="stroke-width:0.71;stroke:none;fill:#00BA38"/><path d="M336.57 97.74h3.91v-3.91h-3.91z" style="stroke-width:0.71;stroke:none;fill:#619CFF"/><text x="208.36" y="98.81" lengthAdjust="spacingAndGlyphs" style="font-size:8.80px;font-family:&quot;Liberation Sans Narrow&quot;" textLength="48.12">mprop address</text><text x="284.71" y="98.81" lengthAdjust="spacingAndGlyphs" style="font-size:8.80px;font-family:&quot;Liberation Sans Narrow&quot;" textLength="39.69">owner name</text><text x="352.64" y="98.81" lengthAdjust="spacingAndGlyphs" style="font-size:8.80px;font-family:&quot;Liberation Sans Narrow&quot;" textLength="40.5">wdfi address</text><text x="32.63" y="64.23" lengthAdjust="spacingAndGlyphs" style="font-size:12.00px;font-family:&quot;Liberation Sans Narrow&quot;" textLength="252.23">includes 14 parcels, 44 units, and 6 distinct owner names.</text><text x="32.63" y="42.27" lengthAdjust="spacingAndGlyphs" style="font-size:18.00px;font-weight:bold;font-family:&quot;Liberation Sans Narrow&quot;" textLength="271.4">BARBARA HOLZMANN TOD etc Group</text></g></svg>