<svg xmlns="http://www.w3.org/2000/svg" width="576" height="672" viewBox="0 0 432 504"><g class="svglite"><defs><style><![CDATA[.svglite line,.svglite polyline,.svglite polygon,.svglite path,.svglite circle{fill:none;stroke:#000000;stroke-linecap:round;stroke-linejoin:round;stroke-miterlimit:10.00}.svglite text{white-space:pre}.svglite g.glyphgroup path{fill:inherit;stroke:none}]]></style></defs><rect width="100%" height="100%" style="stroke-linecap:round;stroke-linejoin:round;stroke-miterlimit:10.00;stroke:none;fill:#FFFFFF"/><defs><clipPath id="cpMC4wMHw0MzIuMDB8MC4wMHw1MDQuMDA="><path d="M0 0h432v504H0z"/></clipPath></defs><g clip-path="url(#cpMC4wMHw0MzIuMDB8MC4wMHw1MDQuMDA=)"><path d="M0 0h432v504H0z" style="stroke-width:1.07;stroke:none;fill:#FFFFFF"/></g><defs><clipPath id="cpMjkuODl8NDAyLjExfDE2MS4wMnw0NzQuMTE="><path d="M29.89 161.02h372.22v313.09H29.89z"/></clipPath></defs><g clip-path="url(#cpMjkuODl8NDAyLjExfDE2MS4wMnw0NzQuMTE=)"><path d="m251.24 459.88-.7-1.58-.7-1.59-.69-1.59-.7-1.58-.7-1.59-.7-1.58-.7-1.59-.69-1.58-.7-1.59-.7-1.58-.7-1.59-.69-1.58-.7-1.59-.7-1.58-.7-1.59-.7-1.58-.69-1.59-.7-1.58-.7-1.59-.7-1.58-.7-1.59-.69-1.58-.7-1.59-.7-1.59-.7-1.58-.7-1.59-.69-1.58-.7-1.59-.7-1.58-.7-1.59-.7-1.58-.69-1.59-.7-1.58-.7-1.59-.7-1.58-.7-1.59-.69-1.58-.7-1.59-.7-1.58-.7-1.59-.7-1.58-.69-1.59-.7-1.59-.7-1.58-.7-1.59-.7-1.58-.69-1.59-.7-1.58-.7-1.59-.7-1.58-.7-1.59-.69-1.58-.7-1.59-.7-1.58-.7-1.59-.7-1.58-.69-1.59-.7-1.58-.7-1.59-.7-1.58-.7-1.59-.69-1.58-.7-1.59-.7-1.59-.7-1.58-.7-1.59-.69-1.58-.7-1.59-.7-1.58-.7-1.59-.7-1.58-.69-1.59-.7-1.58-.7-1.59-.7-1.58-.7-1.59-.69-1.58-.7-1.59-.7-1.58-.7-1.59-.7-1.58-.69-1.59-.7-1.58-.7-1.59-.7-1.59-.7-1.58-.69-1.59-.7-1.58-.7-1.59-.7-1.58-.7-1.59-.69-1.58-.7-1.59-.7-1.58-.7-1.59-.7-1.58-.69-1.59-.7-1.58-.7-1.59m69.1 156.94 1.35-.56 1.36-.56 1.35-.56 1.35-.56 1.36-.55 1.35-.56 1.35-.56 1.36-.56 1.35-.56 1.35-.56 1.35-.56 1.36-.56 1.35-.56 1.35-.56 1.36-.55 1.35-.56 1.35-.56 1.36-.56 1.35-.56 1.35-.56 1.35-.56 1.36-.56 1.35-.56 1.35-.56 1.36-.56 1.35-.55 1.35-.56 1.36-.56 1.35-.56 1.35-.56 1.36-.56 1.35-.56 1.35-.56 1.35-.56 1.36-.56 1.35-.55 1.35-.56 1.36-.56 1.35-.56 1.35-.56 1.36-.56 1.35-.56 1.35-.56 1.36-.56 1.35-.56 1.35-.55 1.35-.56 1.36-.56 1.35-.56 1.35-.56 1.36-.56 1.35-.56 1.35-.56 1.36-.56 1.35-.56 1.35-.56 1.35-.55 1.36-.56 1.35-.56 1.35-.56 1.36-.56 1.35-.56 1.35-.56 1.36-.56 1.35-.56 1.35-.56 1.36-.55 1.35-.56 1.35-.56 1.35-.56 1.36-.56 1.35-.56 1.35-.56 1.36-.56 1.35-.56 1.35-.56 1.36-.55 1.35-.56 1.35-.56 1.35-.56 1.36-.56 1.35-.56 1.35-.56 1.36-.56 1.35-.56 1.35-.56 1.36-.56 1.35-.55 1.35-.56 1.36-.56 1.35-.56 1.35-.56 1.35-.56 1.36-.56 1.35-.56 1.35-.56 1.36-.56 1.35-.55 1.35-.56m-66.47-155.63-1.38.55-1.38.54-1.38.55-1.38.55-1.38.54-1.38.55-1.38.54-1.38.55-1.38.54-1.38.55-1.37.55-1.38.54-1.38.55-1.38.54-1.38.55-1.38.54-1.38.55-1.38.55-1.38.54-1.38.55-1.38.54-1.38.55-1.38.54-1.38.55-1.38.55-1.38.54-1.38.55-1.38.54-1.38.55-1.38.54-1.38.55-1.38.55-1.38.54-1.38.55-1.38.54-1.38.55-1.37.55-1.38.54-1.38.55-1.38.54-1.38.55-1.38.54-1.38.55-1.38.55-1.38.54-1.38.55-1.38.54-1.38.55-1.38.54-1.38.55-1.38.55-1.38.54-1.38.55-1.38.54-1.38.55-1.38.54-1.38.55-1.38.55-1.38.54-1.38.55-1.38.54-1.37.55-1.38.54-1.38.55-1.38.55-1.38.54-1.38.55-1.38.54-1.38.55-1.38.54-1.38.55-1.38.55-1.38.54-1.38.55-1.38.54-1.38.55-1.38.54-1.38.55-1.38.55-1.38.54-1.38.55-1.38.54-1.38.55-1.38.55-1.38.54-1.38.55-1.37.54-1.38.55-1.38.54-1.38.55-1.38.55-1.38.54-1.38.55-1.38.54-1.38.55-1.38.54-1.38.55-1.38.55-1.38.54m136.58-54.03.67 1.57.67 1.58.68 1.57.67 1.57.67 1.57.67 1.57.67 1.58.67 1.57.67 1.57.68 1.57.67 1.57.67 1.58.67 1.57.67 1.57.67 1.57.67 1.57.68 1.58.67 1.57.67 1.57.67 1.57.67 1.57.67 1.58.67 1.57.68 1.57.67 1.57.67 1.57.67 1.58.67 1.57.67 1.57.67 1.57.68 1.57.67 1.58.67 1.57.67 1.57.67 1.57.67 1.57.67 1.58.68 1.57.67 1.57.67 1.57.67 1.57.67 1.57.67 1.58.67 1.57.68 1.57.67 1.57.67 1.57.67 1.58.67 1.57.67 1.57.67 1.57.68 1.57.67 1.58.67 1.57.67 1.57.67 1.57.67 1.57.67 1.58.68 1.57.67 1.57.67 1.57.67 1.57.67 1.58.67 1.57.67 1.57.68 1.57.67 1.57.67 1.58.67 1.57.67 1.57.67 1.57.67 1.57.68 1.58.67 1.57.67 1.57.67 1.57.67 1.57.67 1.58.67 1.57.68 1.57.67 1.57.67 1.57.67 1.58.67 1.57.67 1.57.67 1.57.68 1.57.67 1.57.67 1.58.67 1.57.67 1.57.67 1.57.67 1.57.68 1.58.67 1.57.67 1.57.67 1.57.67 1.57.67 1.58M92.49 175.25l.9 1.29.91 1.29.9 1.29.91 1.29.91 1.29.9 1.29.91 1.29.9 1.29.91 1.29.9 1.29.91 1.29.91 1.29.9 1.29.91 1.29.9 1.29.91 1.29.9 1.29.91 1.29.9 1.29.91 1.29.91 1.29.9 1.28.91 1.29.9 1.29.91 1.29.9 1.29.91 1.29.9 1.29.91 1.29.91 1.29.9 1.29.91 1.29.9 1.29.91 1.29.9 1.29.91 1.29.9 1.29.91 1.29.91 1.29.9 1.29.91 1.29.9 1.29.91 1.29.9 1.29.91 1.29.9 1.29.91 1.29.91 1.29.9 1.29.91 1.29.9 1.29.91 1.29.9 1.29.91 1.29.9 1.29.91 1.29.91 1.29.9 1.29.91 1.29.9 1.29.91 1.29.9 1.29.91 1.29.9 1.29.91 1.29.91 1.29.9 1.29.91 1.29.9 1.29.91 1.29.9 1.29.91 1.29.91 1.29.9 1.29.91 1.29.9 1.29.91 1.29.9 1.28.91 1.29.9 1.29.91 1.29.91 1.29.9 1.29.91 1.29.9 1.29.91 1.29.9 1.29.91 1.29.9 1.29.91 1.29.91 1.29.9 1.29.91 1.29.9 1.29.91 1.29.9 1.29.91 1.29.9 1.29.91 1.29M92.49 175.25l-.46 1.44-.46 1.44-.47 1.45-.46 1.44-.46 1.44-.46 1.44-.46 1.45-.46 1.44-.46 1.44-.47 1.44-.46 1.45-.46 1.44-.46 1.44-.46 1.44-.46 1.45-.46 1.44-.47 1.44-.46 1.45-.46 1.44-.46 1.44-.46 1.44-.46 1.45-.46 1.44-.47 1.44-.46 1.44-.46 1.45-.46 1.44-.46 1.44-.46 1.44-.46 1.45-.47 1.44-.46 1.44-.46 1.44-.46 1.45-.46 1.44-.46 1.44-.46 1.44-.47 1.45-.46 1.44-.46 1.44-.46 1.44-.46 1.45-.46 1.44-.46 1.44-.47 1.45-.46 1.44-.46 1.44-.46 1.44-.46 1.45-.46 1.44-.46 1.44-.47 1.44-.46 1.45-.46 1.44-.46 1.44-.46 1.44-.46 1.45-.46 1.44-.47 1.44-.46 1.44-.46 1.45-.46 1.44-.46 1.44-.46 1.44-.46 1.45-.47 1.44-.46 1.44-.46 1.44-.46 1.45-.46 1.44-.46 1.44-.46 1.45-.47 1.44-.46 1.44-.46 1.44-.46 1.45-.46 1.44-.46 1.44-.46 1.44-.47 1.45-.46 1.44-.46 1.44-.46 1.44-.46 1.45-.46 1.44-.46 1.44-.47 1.44-.46 1.45-.46 1.44-.46 1.44-.46 1.44-.46 1.45-.46 1.44-.47 1.44-.46 1.44-.46 1.45-.46 1.44-.46 1.44-.46 1.45" style="stroke-width:1.07;stroke:#000000;stroke-opacity:0.10;stroke-linecap:butt"/><path d="m46.81 318.07 1.4.41 1.41.4 1.41.38 1.4.38 1.41.37 1.4.35 1.4.34 1.4.33 1.4.32 1.4.31 1.4.3 1.4.28 1.4.28 1.39.26 1.4.25 1.4.24 1.39.22 1.39.22 1.4.2 1.39.2 1.39.18 1.39.17 1.39.15 1.39.15 1.38.14 1.39.12 1.39.11 1.38.1 1.38.09 1.39.08 1.38.06 1.38.06 1.38.04 1.38.03 1.38.02 1.38.01h1.38l1.38-.02 1.37-.02 1.38-.04 1.37-.05 1.38-.06 1.37-.07 1.37-.09 1.37-.09 1.37-.11 1.37-.12 1.37-.13 1.37-.14 1.36-.15 1.37-.16 1.37-.18 1.36-.19 1.36-.2 1.37-.21 1.36-.22 1.36-.23 1.36-.25 1.36-.25 1.36-.27 1.36-.28 1.35-.29 1.36-.3 1.36-.32 1.35-.32 1.35-.34 1.36-.35 1.35-.36 1.35-.37 1.35-.38 1.35-.4 1.35-.4 1.35-.42 1.35-.43 1.34-.44 1.35-.45 1.34-.47 1.35-.47 1.34-.49 1.34-.5 1.34-.51 1.34-.52 1.34-.53 1.34-.54 1.34-.56 1.34-.57 1.34-.58 1.33-.59 1.34-.6 1.33-.61 1.33-.63 1.34-.63 1.33-.65 1.33-.66 1.33-.67 1.33-.68 1.33-.7 1.32-.7 1.33-.72" style="stroke-width:1.07;stroke:#000000;stroke-opacity:0.10;stroke-linecap:butt"/><path d="m46.81 318.07 1.36-.16 1.37-.15 1.37-.15 1.37-.16 1.36-.15 1.37-.15 1.37-.15 1.36-.16 1.37-.15 1.37-.15 1.36-.16 1.37-.15 1.37-.15 1.37-.15 1.36-.16 1.37-.15 1.37-.15 1.36-.15 1.37-.16 1.37-.15 1.36-.15 1.37-.16 1.37-.15 1.37-.15 1.36-.15 1.37-.16 1.37-.15 1.36-.15 1.37-.16 1.37-.15 1.36-.15 1.37-.15 1.37-.16 1.37-.15 1.36-.15 1.37-.15 1.37-.16 1.36-.15 1.37-.15 1.37-.16 1.36-.15 1.37-.15 1.37-.15 1.37-.16 1.36-.15 1.37-.15 1.37-.15 1.36-.16 1.37-.15 1.37-.15 1.36-.16 1.37-.15 1.37-.15 1.37-.15 1.36-.16 1.37-.15 1.37-.15 1.36-.16 1.37-.15 1.37-.15 1.36-.15 1.37-.16 1.37-.15 1.37-.15 1.36-.15 1.37-.16 1.37-.15 1.36-.15 1.37-.16 1.37-.15 1.36-.15 1.37-.15 1.37-.16 1.36-.15 1.37-.15 1.37-.16 1.37-.15 1.36-.15 1.37-.15 1.37-.16 1.36-.15 1.37-.15 1.37-.15 1.36-.16 1.37-.15 1.37-.15 1.37-.16 1.36-.15 1.37-.15 1.37-.15 1.36-.16 1.37-.15 1.37-.15 1.36-.15 1.37-.16 1.37-.15 1.37-.15 1.36-.16 1.37-.15" style="stroke-width:1.07;stroke:#000000;stroke-opacity:0.10;stroke-linecap:butt"/><path d="m46.81 318.07 1.32-.72 1.33-.71 1.33-.69 1.33-.68 1.33-.67 1.33-.66 1.33-.65 1.33-.64 1.34-.62 1.33-.62 1.34-.6 1.33-.59 1.34-.58 1.34-.56 1.33-.56 1.34-.54 1.34-.54 1.34-.52 1.35-.51 1.34-.5 1.34-.48 1.34-.48 1.35-.46 1.34-.45 1.35-.44 1.35-.43 1.35-.42 1.35-.41 1.35-.39 1.35-.38 1.35-.38 1.35-.36 1.35-.34 1.36-.34 1.35-.33 1.36-.31 1.35-.3 1.36-.29 1.36-.28 1.36-.27 1.36-.26 1.36-.24 1.36-.24 1.36-.22 1.36-.21 1.37-.2 1.36-.18 1.37-.18 1.36-.16 1.37-.16 1.37-.14 1.37-.13 1.37-.12 1.37-.1 1.37-.1 1.37-.08 1.37-.07 1.38-.06 1.37-.05 1.37-.04 1.38-.03 1.38-.01 1.38-.01 1.37.01 1.38.02 1.38.03 1.38.05 1.39.05 1.38.07 1.38.08 1.39.08 1.38.11 1.39.11 1.38.12 1.39.14 1.39.14 1.39.16 1.39.17 1.39.18 1.39.19 1.39.21 1.4.21 1.39.23 1.4.24 1.39.25 1.4.26 1.4.27 1.39.29 1.4.3 1.4.3 1.4.32 1.41.33 1.4.35 1.4.35 1.41.36 1.4.38 1.41.39 1.4.4 1.41.41" style="stroke-width:1.07;stroke:#000000;stroke-opacity:0.10;stroke-linecap:butt"/><path d="m251.24 457.67 1.92 3.32h-3.83zm67.48-210.97 1.91 3.32h-3.82zM92.49 173.04l1.91 3.31h-3.83z" style="stroke-width:0.71;stroke:none;fill:#00BA38"/><path d="M45.39 319.49h2.84v-2.85h-2.84z" style="stroke-width:0.71;stroke:none;fill:#619CFF"/><circle cx="182.14" cy="302.94" r="6.76" style="stroke-width:0.71;stroke:none;fill:#F8766D"/><path d="M380 409.73h10.39v-10.39H380z" style="stroke-width:0.71;stroke:none;fill:#619CFF"/><path d="m246.45 460.83 3.57-.71m73.96-215.86-4.39 3.89M87.25 179.88l4.37-3.87m95.86 122.3-4.46 3.87" style="stroke-width:0.53;stroke:#BFBFBF"/><path d="M177.25 470.51h67.04-.09l.35-.01.34-.07.33-.13.3-.17.27-.22.23-.26.18-.29.14-.32.08-.34.03-.35h0v-14.99h0l-.03-.35-.08-.33-.14-.32-.18-.3-.23-.26-.27-.22-.3-.17-.33-.12-.34-.07-.26-.02h-67.04l.26.02-.34-.02-.35.04-.33.1-.32.15-.28.2-.25.24-.21.28-.16.3-.11.33-.06.35-.01.17v14.99l.01-.17v.35l.06.34.11.33.16.31.21.27.25.25.28.19.32.15.33.1.35.04z" style="stroke-width:0.53;fill:#FFFFFF;fill-opacity:0.50"/><text x="210.77" y="458.72" lengthAdjust="spacingAndGlyphs" style="font-size:5.69px;font-family:&quot;Liberation Sans&quot;" text-anchor="middle" textLength="64.16">MAYFAIR APARTMENTS</text><text x="210.77" y="466.91" lengthAdjust="spacingAndGlyphs" style="font-size:5.69px;font-family:&quot;Liberation Sans&quot;" text-anchor="middle" textLength="24.33">MKE LLC</text><path d="M309.14 244.26h53.22-.08l.34-.02.34-.07.33-.12.3-.18.27-.21.23-.27.18-.29.14-.32.08-.34.03-.34h0v-14.99h0l-.03-.35-.08-.34-.14-.32-.18-.29-.23-.26-.27-.22-.3-.18-.33-.12-.34-.07-.26-.01h-53.22l.26.01-.35-.01-.34.04-.34.1-.31.15-.29.19-.25.24-.21.28-.16.31-.11.33-.05.34-.01.18v14.99l.01-.18v.35l.05.34.11.33.16.31.21.28.25.24.29.2.31.15.34.09.34.05z" style="stroke-width:0.53;fill:#FFFFFF;fill-opacity:0.50"/><text x="335.75" y="232.46" lengthAdjust="spacingAndGlyphs" style="font-size:5.69px;font-family:&quot;Liberation Sans&quot;" text-anchor="middle" textLength="39.19">FRESHWATER</text><text x="335.75" y="240.66" lengthAdjust="spacingAndGlyphs" style="font-size:5.69px;font-family:&quot;Liberation Sans&quot;" text-anchor="middle" textLength="50.34">APARTMENTS LLC</text><path d="M40.29 199.19h70.4-.09l.35-.01.34-.07.32-.13.3-.17.27-.22.23-.26.19-.29.14-.32.08-.34.03-.35h0v-14.99h0l-.03-.34-.08-.34-.14-.32-.19-.3-.23-.26-.27-.22-.3-.17-.32-.12-.34-.07-.26-.02h-70.4l.26.02-.34-.02-.35.05-.33.09-.32.15-.28.2-.25.24-.21.28-.17.31-.11.33-.05.34-.01.17v14.99l.01-.17v.35l.05.34.11.33.17.31.21.28.25.24.28.19.32.15.33.1.35.04z" style="stroke-width:0.53;fill:#FFFFFF;fill-opacity:0.50"/><text x="75.49" y="187.4" lengthAdjust="spacingAndGlyphs" style="font-size:5.69px;font-family:&quot;Liberation Sans&quot;" text-anchor="middle" textLength="67.52">BCG CENTRAL PARK TIC</text><text x="75.49" y="195.59" lengthAdjust="spacingAndGlyphs" style="font-size:5.69px;font-family:&quot;Liberation Sans&quot;" text-anchor="middle" textLength="10.42">LLC</text><path d="M53.76 331.84h55.65-.09l.35-.02.34-.07.33-.12.3-.17.27-.22.23-.26.18-.3.14-.32.08-.33.03-.35h0v-23.19h0l-.03-.34-.08-.34-.14-.32-.18-.29-.23-.26-.27-.22-.3-.18-.33-.12-.34-.07-.26-.02H53.76l.26.02-.34-.01-.35.04-.33.09-.32.15-.28.2-.25.24-.21.28-.16.31-.11.33-.06.34-.01.17v23.19l.01-.17v.34l.06.35.11.33.16.3.21.28.25.24.28.2.32.15.33.1.35.04z" style="stroke-width:0.53;fill:#FFFFFF;fill-opacity:0.50"/><text x="81.59" y="311.85" lengthAdjust="spacingAndGlyphs" style="font-size:5.69px;font-family:&quot;Liberation Sans&quot;" text-anchor="middle" textLength="52.77">440 WELLS ST, STE</text><text x="81.59" y="320.05" lengthAdjust="spacingAndGlyphs" style="font-size:5.69px;font-family:&quot;Liberation Sans&quot;" text-anchor="middle" textLength="47.06">720, CHICAGO, IL</text><text x="81.59" y="328.24" lengthAdjust="spacingAndGlyphs" style="font-size:5.69px;font-family:&quot;Liberation Sans&quot;" text-anchor="middle" textLength="15.78">60654</text><path d="M176.18 298.31h55.64-.09l.35-.02.34-.07.33-.12.3-.17.27-.22.23-.26.18-.3.14-.32.08-.33.03-.35h0v-23.19h0l-.03-.34-.08-.34-.14-.32-.18-.29-.23-.26-.27-.22-.3-.18-.33-.12-.34-.07-.26-.02h-55.64l.26.02-.35-.02-.35.05-.33.09-.31.15-.29.2-.25.24-.21.28-.16.31-.11.33-.06.34v23.36-.18.35l.06.35.11.33.16.3.21.28.25.24.29.2.31.15.33.1.35.04z" style="stroke-width:0.53;fill:#FFFFFF;fill-opacity:0.50"/><text x="204" y="278.32" lengthAdjust="spacingAndGlyphs" style="font-size:5.69px;font-family:&quot;Liberation Sans&quot;" text-anchor="middle" textLength="52.77">440 WELLS ST, STE</text><text x="204" y="286.51" lengthAdjust="spacingAndGlyphs" style="font-size:5.69px;font-family:&quot;Liberation Sans&quot;" text-anchor="middle" textLength="47.06">720, CHICAGO, IL</text><text x="204" y="294.71" lengthAdjust="spacingAndGlyphs" style="font-size:5.69px;font-family:&quot;Liberation Sans&quot;" text-anchor="middle" textLength="15.78">60654</text><path d="M315.65 418.29h62.58-.09l.35-.02.34-.07.33-.12.3-.17.27-.22.23-.26.18-.3.14-.32.08-.34.03-.34h0v-23.19h0l-.03-.34-.08-.34-.14-.32-.18-.3-.23-.26-.27-.22-.3-.17-.33-.12-.34-.07-.26-.02h-62.58l.26.02-.35-.02-.34.05-.34.09-.31.15-.29.2-.25.24-.21.28-.16.31-.11.33-.06.34v23.36-.18.35l.06.35.11.32.16.31.21.28.25.24.29.2.31.15.34.09.34.05z" style="stroke-width:0.53;fill:#FFFFFF;fill-opacity:0.50"/><text x="346.94" y="398.3" lengthAdjust="spacingAndGlyphs" style="font-size:5.69px;font-family:&quot;Liberation Sans&quot;" text-anchor="middle" textLength="52">1512 FREMONT ST,</text><text x="346.94" y="406.49" lengthAdjust="spacingAndGlyphs" style="font-size:5.69px;font-family:&quot;Liberation Sans&quot;" text-anchor="middle" textLength="59.7">STE 202, CHICAGO, IL</text><text x="346.94" y="414.69" lengthAdjust="spacingAndGlyphs" style="font-size:5.69px;font-family:&quot;Liberation Sans&quot;" text-anchor="middle" textLength="15.78">60642</text></g><g clip-path="url(#cpMC4wMHw0MzIuMDB8MC4wMHw1MDQuMDA=)"><circle cx="120.83" cy="135.94" r="1.95" style="stroke-width:0.71;stroke:none;fill:#F8766D"/><path d="m197.23 132.9 2.63 4.56h-5.26z" style="stroke-width:0.71;stroke:none;fill:#00BA38"/><path d="M263.23 137.89h3.91v-3.91h-3.91z" style="stroke-width:0.71;stroke:none;fill:#619CFF"/><text x="134.95" y="139.1" lengthAdjust="spacingAndGlyphs" style="font-size:8.80px;font-weight:0;font-family:&quot;Nimbus Sans Narrow&quot;" textLength="48.16">mprop address</text><text x="211.35" y="139.1" lengthAdjust="spacingAndGlyphs" style="font-size:8.80px;font-weight:0;font-family:&quot;Nimbus Sans Narrow&quot;" textLength="39.72">owner name</text><text x="279.31" y="139.1" lengthAdjust="spacingAndGlyphs" style="font-size:8.80px;font-weight:0;font-family:&quot;Nimbus Sans Narrow&quot;" textLength="40.5">wdfi address</text><text x="29.89" y="104.23" lengthAdjust="spacingAndGlyphs" style="font-size:12.00px;font-weight:0;font-family:&quot;Nimbus Sans Narrow&quot;" textLength="252.11">includes 3 parcels, 360 units, and 3 distinct owner names.</text><text x="29.89" y="42.81" lengthAdjust="spacingAndGlyphs" style="font-size:18.00px;font-weight:0;font-family:&quot;Nimbus Sans Narrow&quot;" textLength="336.17">BCG CENTRAL PARK TIC LLC -- FRESHWATER</text><text x="29.89" y="62.25" lengthAdjust="spacingAndGlyphs" style="font-size:18.00px;font-weight:0;font-family:&quot;Nimbus Sans Narrow&quot;" textLength="364.05">APARTMENTS LLC -- MAYFAIR APARTMENTS MKE</text><text x="29.89" y="81.69" lengthAdjust="spacingAndGlyphs" style="font-size:18.00px;font-weight:0;font-family:&quot;Nimbus Sans Narrow&quot;" textLength="77.06">LLC Group</text></g></g></svg>