<svg xmlns="http://www.w3.org/2000/svg" width="576" height="672" viewBox="0 0 432 504"><g class="svglite"><defs><style><![CDATA[.svglite line,.svglite polyline,.svglite polygon,.svglite path,.svglite circle{fill:none;stroke:#000000;stroke-linecap:round;stroke-linejoin:round;stroke-miterlimit:10.00}.svglite text{white-space:pre}.svglite g.glyphgroup path{fill:inherit;stroke:none}]]></style></defs><rect width="100%" height="100%" style="stroke-linecap:round;stroke-linejoin:round;stroke-miterlimit:10.00;stroke:none;fill:#FFFFFF"/><defs><clipPath id="cpMC4wMHw0MzIuMDB8MC4wMHw1MDQuMDA="><path d="M0 0h432v504H0z"/></clipPath></defs><g clip-path="url(#cpMC4wMHw0MzIuMDB8MC4wMHw1MDQuMDA=)"><path d="M0 0h432v504H0z" style="stroke-width:1.07;stroke:none;fill:#FFFFFF"/></g><defs><clipPath id="cpMjkuODl8NDAyLjExfDE0MS41OHw0NzQuMTE="><path d="M29.89 141.58h372.22v332.53H29.89z"/></clipPath></defs><g clip-path="url(#cpMjkuODl8NDAyLjExfDE0MS41OHw0NzQuMTE=)"><path d="m134.16 310.7.28-1.63.28-1.63.27-1.62.27-1.63.25-1.62.25-1.62.24-1.62.23-1.62.22-1.62.22-1.61.2-1.62.2-1.61.19-1.61.19-1.61.17-1.61.17-1.6.16-1.61.15-1.6.15-1.6.13-1.6.13-1.6.12-1.6.11-1.59.11-1.6.09-1.59.09-1.59.08-1.59.08-1.59.06-1.59.06-1.58.05-1.59.04-1.58.03-1.58.03-1.58.02-1.58.01-1.58v-1.57l-.01-1.57-.01-1.58-.03-1.57-.03-1.57-.03-1.56-.05-1.57-.05-1.56-.06-1.57-.07-1.56-.08-1.56-.09-1.56-.09-1.55-.1-1.56-.11-1.55-.12-1.56-.12-1.55-.13-1.55-.15-1.55-.14-1.54-.16-1.55-.16-1.54-.18-1.54-.18-1.54-.19-1.54-.19-1.54-.21-1.54-.21-1.53-.22-1.53-.22-1.54-.24-1.53-.24-1.53-.26-1.52-.25-1.53-.27-1.52-.28-1.53-.28-1.52-.29-1.52-.3-1.52-.31-1.51-.31-1.52-.32-1.51-.33-1.51-.34-1.51-.35-1.51-.35-1.51-.36-1.51-.37-1.5-.38-1.51-.39-1.5-.39-1.5-.4-1.5-.41-1.5-.42-1.49-.43-1.5-.43-1.49-.44-1.49-.45-1.49-.46-1.49-.46-1.49-.47-1.48-.49-1.49-.48-1.48" style="stroke-width:1.07;stroke:#000000;stroke-opacity:0.10;stroke-linecap:butt"/><path d="m134.16 310.7.16-1.61.15-1.6.14-1.6.15-1.6.13-1.6.13-1.6.13-1.6.12-1.6.11-1.6.11-1.59.11-1.6.1-1.59.09-1.59.09-1.59.08-1.59.08-1.59.07-1.59.07-1.59.06-1.58.06-1.59.05-1.58.05-1.59.04-1.58.04-1.58.03-1.58.02-1.58.02-1.58.02-1.58.01-1.57v-3.15l-.01-1.58-.01-1.57-.01-1.57-.03-1.57-.02-1.57-.04-1.57-.03-1.57-.05-1.56-.05-1.57-.05-1.56-.06-1.57-.06-1.56-.07-1.56-.08-1.56-.08-1.56-.08-1.56-.09-1.56-.1-1.55-.1-1.56-.11-1.56-.11-1.55-.12-1.55-.12-1.55-.12-1.55-.14-1.55-.14-1.55-.14-1.55-.15-1.55-.15-1.54-.16-1.55-.16-1.54-.17-1.54-.18-1.54-.18-1.55-.19-1.54-.19-1.53-.19-1.54-.2-1.54-.21-1.53-.21-1.54-.22-1.53-.22-1.54-.23-1.53-.23-1.53-.24-1.53-.24-1.53-.25-1.52-.26-1.53-.26-1.53-.26-1.52-.27-1.53-.28-1.52-.28-1.52-.28-1.52-.29-1.52-.3-1.52-.3-1.52-.31-1.51-.31-1.52-.32-1.51-.32-1.52-.33-1.51-.33-1.51-.34-1.51-.34-1.51-.35-1.51-.35-1.51-.36-1.51" style="stroke-width:1.07;stroke:#000000;stroke-opacity:0.10;stroke-linecap:butt"/><path d="m134.16 310.7.03-1.58.02-1.58.02-1.58.02-1.58.02-1.58.02-1.57.01-1.58.01-1.58.01-1.57v-6.3l-.01-1.58-.01-1.57-.01-1.57-.01-1.57-.02-1.58-.02-1.57-.02-1.57-.03-1.57-.02-1.57-.03-1.57-.04-1.56-.03-1.57-.04-1.57-.04-1.57-.04-1.56-.05-1.57-.05-1.56-.05-1.57-.05-1.56-.06-1.57-.06-1.56-.06-1.57-.06-1.56-.07-1.56-.07-1.56-.07-1.56-.08-1.56-.07-1.56-.08-1.56-.09-1.56-.08-1.56-.09-1.56-.09-1.56-.09-1.55-.1-1.56-.1-1.56-.1-1.55-.1-1.56-.11-1.55-.11-1.56-.11-1.55-.11-1.55-.12-1.55-.12-1.56-.12-1.55-.13-1.55-.13-1.55-.13-1.55-.13-1.55-.13-1.55-.14-1.55-.14-1.55-.15-1.54-.14-1.55-.15-1.55-.15-1.54-.16-1.55-.15-1.54-.16-1.55-.16-1.54-.17-1.55-.16-1.54-.17-1.54-.18-1.55-.17-1.54-.18-1.54-.18-1.54-.18-1.54-.19-1.54-.19-1.54-.19-1.54-.19-1.53-.2-1.54-.19-1.54-.21-1.54-.2-1.53-.21-1.54-.21-1.53-.21-1.54-.21-1.53-.22-1.54-.22-1.53-.22-1.53-.23-1.53-.22-1.54-.23-1.53" style="stroke-width:1.07;stroke:#000000;stroke-opacity:0.10;stroke-linecap:butt"/><path d="m134.16 310.7-.1-1.56-.1-1.55-.11-1.56-.1-1.55-.1-1.56-.1-1.56-.1-1.55-.1-1.56-.1-1.55-.1-1.56-.1-1.55-.11-1.56-.1-1.56-.1-1.55-.1-1.56-.1-1.55-.1-1.56-.1-1.55-.1-1.56-.1-1.55-.11-1.56-.1-1.56-.1-1.55-.1-1.56-.1-1.55-.1-1.56-.1-1.55-.1-1.56-.1-1.55-.11-1.56-.1-1.56-.1-1.55-.1-1.56-.1-1.55-.1-1.56-.1-1.55-.1-1.56-.1-1.56-.11-1.55-.1-1.56-.1-1.55-.1-1.56-.1-1.55-.1-1.56-.1-1.55-.1-1.56-.11-1.56-.1-1.55-.1-1.56-.1-1.55-.1-1.56-.1-1.55-.1-1.56-.1-1.56-.1-1.55-.11-1.56-.1-1.55-.1-1.56-.1-1.55-.1-1.56-.1-1.55-.1-1.56-.1-1.56-.1-1.55-.11-1.56-.1-1.55-.1-1.56-.1-1.55-.1-1.56-.1-1.55-.1-1.56-.1-1.56-.1-1.55-.11-1.56-.1-1.55-.1-1.56-.1-1.55-.1-1.56-.1-1.56-.1-1.55-.1-1.56-.1-1.55-.11-1.56-.1-1.55-.1-1.56-.1-1.55-.1-1.56-.1-1.56-.1-1.55-.1-1.56-.1-1.55-.11-1.56-.1-1.55-.1-1.56-.1-1.56-.1-1.55-.1-1.56-.1-1.55-.1-1.56m10.01 154.01-.88-.14-.89-.14-.88-.14-.88-.14-.88-.13-.89-.14-.88-.14-.88-.14-.88-.14-.89-.14-.88-.13-.88-.14-.88-.14-.88-.14-.89-.14-.88-.14-.88-.14-.88-.13-.89-.14-.88-.14-.88-.14-.88-.14-.89-.14-.88-.13-.88-.14-.88-.14-.88-.14-.89-.14-.88-.14-.88-.13-.88-.14-.89-.14-.88-.14-.88-.14-.88-.14-.89-.14-.88-.13-.88-.14-.88-.14-.89-.14-.88-.14-.88-.14-.88-.13-.88-.14-.89-.14-.88-.14-.88-.14-.88-.14-.89-.13-.88-.14-.88-.14-.88-.14-.89-.14-.88-.14-.88-.14-.88-.13-.88-.14-.89-.14-.88-.14-.88-.14-.88-.14-.89-.13-.88-.14-.88-.14-.88-.14-.89-.14-.88-.14-.88-.13-.88-.14-.89-.14-.88-.14-.88-.14-.88-.14-.88-.14-.89-.13-.88-.14-.88-.14-.88-.14-.89-.14-.88-.14-.88-.13-.88-.14-.89-.14-.88-.14-.88-.14-.88-.14-.88-.13-.89-.14-.88-.14-.88-.14-.88-.14-.89-.14-.88-.14-.88-.13-.88-.14-.89-.14-.88-.14-.88-.14-.88-.14" style="stroke-width:1.07;stroke:#000000;stroke-opacity:0.10;stroke-linecap:butt"/><path d="m134.16 310.7-.23-1.53-.23-1.54-.23-1.53-.22-1.53-.22-1.53-.21-1.54-.22-1.53-.21-1.54-.21-1.53-.21-1.54-.2-1.53-.2-1.54-.2-1.54-.2-1.53-.19-1.54-.19-1.54-.19-1.54-.18-1.54-.19-1.54-.18-1.54-.17-1.54-.18-1.54-.17-1.55-.17-1.54-.17-1.54-.16-1.55-.16-1.54-.16-1.55-.16-1.54-.15-1.55-.16-1.54-.14-1.55-.15-1.55-.14-1.54-.14-1.55-.14-1.55-.14-1.55-.13-1.55-.13-1.55-.13-1.55-.12-1.55-.12-1.55-.12-1.55-.12-1.56-.12-1.55-.11-1.55-.11-1.56-.1-1.55-.11-1.56-.1-1.55-.1-1.56-.09-1.56-.1-1.55-.09-1.56-.08-1.56-.09-1.56-.08-1.56-.08-1.56-.08-1.56-.07-1.56-.08-1.56-.07-1.56-.06-1.56-.07-1.56-.06-1.57-.06-1.56-.05-1.57-.06-1.56-.05-1.56-.05-1.57-.04-1.57-.05-1.56-.04-1.57-.03-1.57-.04-1.57-.03-1.56-.03-1.57-.03-1.57-.02-1.57-.03-1.57-.02-1.57-.01-1.58-.02-1.57-.01-1.57-.01-1.57v-1.58l-.01-1.57v-3.15l.01-1.58.01-1.57.01-1.58.01-1.58.01-1.57.02-1.58.02-1.58.02-1.58.03-1.58.03-1.58" style="stroke-width:1.07;stroke:#000000;stroke-opacity:0.10;stroke-linecap:butt"/><path d="m134.16 310.7-.36-1.51-.36-1.51-.34-1.51-.35-1.51-.34-1.51-.33-1.51-.33-1.51-.32-1.52-.32-1.51-.31-1.52-.31-1.51-.3-1.52-.29-1.52-.29-1.52-.29-1.52-.28-1.52-.28-1.52-.27-1.53-.26-1.52-.26-1.53-.25-1.53-.25-1.52-.25-1.53-.23-1.53-.24-1.53-.22-1.53-.23-1.54-.21-1.53-.22-1.54-.2-1.53-.2-1.54-.2-1.54-.19-1.53-.19-1.54-.18-1.55-.17-1.54-.17-1.54-.17-1.54-.15-1.55-.16-1.54-.15-1.55-.14-1.55-.14-1.55-.13-1.55-.13-1.55-.12-1.55-.12-1.55-.11-1.55-.11-1.56-.1-1.55-.09-1.56-.09-1.56-.09-1.56-.08-1.56-.07-1.56-.07-1.56-.07-1.56-.06-1.57-.05-1.56-.05-1.57-.04-1.56-.04-1.57-.03-1.57-.03-1.57-.02-1.57-.02-1.57-.01-1.57-.01-1.58v-1.57l.01-1.58.01-1.57.01-1.58.02-1.58.03-1.58.03-1.58.03-1.58.05-1.58.04-1.59.05-1.58.06-1.59.06-1.58.07-1.59.07-1.59.08-1.59.09-1.59.08-1.59.1-1.59.1-1.59.1-1.6.11-1.59.12-1.6.12-1.6.12-1.6.13-1.6.14-1.6.14-1.6.15-1.6.15-1.6.16-1.61m10.01 154.01.88.14.89.14.89.14.88.13.89.14.89.14.88.14.89.14.89.14.88.14.89.14.89.14.88.14.89.13.89.14.88.14.89.14.88.14.89.14.89.14.88.14.89.14.89.14.88.14.89.13.89.14.88.14.89.14.89.14.88.14.89.14.89.14.88.14.89.14.88.14.89.13.89.14.88.14.89.14.89.14.88.14.89.14.89.14.88.14.89.14.89.14.88.13.89.14.89.14.88.14.89.14.89.14.88.14.89.14.88.14.89.14.89.14.88.13.89.14.89.14.88.14.89.14.89.14.88.14.89.14.89.14.88.14.89.14.89.13.88.14.89.14.88.14.89.14.89.14.88.14.89.14.89.14.88.14.89.13.89.14.88.14.89.14.89.14.88.14.89.14.89.14.88.14.89.14.89.14.88.13.89.14.88.14.89.14.89.14.88.14.89.14.89.14.88.14.89.14m-87.76-13.77-.33 1.46-.33 1.47-.32 1.47-.33 1.47-.32 1.46-.32 1.47-.32 1.47-.32 1.47-.32 1.47-.32 1.48-.32 1.47-.31 1.47-.31 1.48-.32 1.47-.31 1.48-.31 1.47-.3 1.48-.31 1.47-.31 1.48-.3 1.48-.3 1.48-.31 1.48-.3 1.48-.3 1.48-.29 1.48-.3 1.48-.3 1.49-.29 1.48-.29 1.48-.29 1.49-.29 1.49-.29 1.48-.29 1.49-.29 1.49-.28 1.48-.29 1.49-.28 1.49-.28 1.49-.28 1.49-.28 1.49-.28 1.5-.28 1.49-.27 1.49-.27 1.5-.28 1.49-.27 1.5-.27 1.49-.27 1.5-.26 1.5-.27 1.49-.27 1.5-.26 1.5-.26 1.5-.26 1.5-.26 1.5-.26 1.51-.26 1.5-.26 1.5-.25 1.51-.25 1.5-.26 1.51-.25 1.5-.25 1.51-.25 1.5-.24 1.51-.25 1.51-.24 1.51-.25 1.51-.24 1.51-.24 1.51-.24 1.51-.24 1.52-.24 1.51-.23 1.51-.24 1.52-.23 1.51-.23 1.52-.23 1.51-.23 1.52-.23 1.52-.23 1.52-.22 1.52-.23 1.51-.22 1.53-.22 1.52-.22 1.52-.22 1.52-.22 1.52-.22 1.53-.21 1.52-.22 1.52-.21 1.53-.21 1.53-.21 1.52-.21 1.53-.21 1.53-.21 1.53-.2 1.53-.2 1.53m196.59-121.59-.83-.14-.83-.13-.84-.13-.83-.13-.83-.13-.84-.13-.83-.13-.83-.13-.83-.13-.84-.13-.83-.13-.83-.13-.84-.13-.83-.13-.83-.14-.84-.13-.83-.13-.83-.13-.84-.13-.83-.13-.83-.13-.83-.13-.84-.13-.83-.13-.83-.13-.84-.13-.83-.13-.83-.13-.84-.14-.83-.13-.83-.13-.84-.13-.83-.13-.83-.13-.83-.13-.84-.13-.83-.13-.83-.13-.84-.13-.83-.13-.83-.13-.84-.13-.83-.13-.83-.14-.83-.13-.84-.13-.83-.13-.83-.13-.84-.13-.83-.13-.83-.13-.84-.13-.83-.13-.83-.13-.84-.13-.83-.13-.83-.13-.83-.14-.84-.13-.83-.13-.83-.13-.84-.13-.83-.13-.83-.13-.84-.13-.83-.13-.83-.13-.84-.13-.83-.13-.83-.13-.83-.13-.84-.13-.83-.14-.83-.13-.84-.13-.83-.13-.83-.13-.84-.13-.83-.13-.83-.13-.83-.13-.84-.13-.83-.13-.83-.13-.84-.13-.83-.13-.83-.14-.84-.13-.83-.13-.83-.13-.84-.13-.83-.13-.83-.13-.83-.13-.84-.13-.83-.13-.83-.13-.84-.13-.83-.13" style="stroke-width:1.07;stroke:#000000;stroke-opacity:0.10;stroke-linecap:butt"/><path d="m134.16 310.7-.49-1.48-.48-1.49-.47-1.48-.47-1.49-.46-1.49-.45-1.49-.44-1.49-.43-1.49-.43-1.5-.41-1.49-.41-1.5-.4-1.5-.4-1.5-.38-1.5-.38-1.51-.37-1.5-.36-1.51-.36-1.51-.34-1.51-.34-1.51-.33-1.51-.33-1.51-.31-1.52-.31-1.51-.3-1.52-.29-1.52-.28-1.52-.27-1.53-.27-1.52-.26-1.53-.25-1.52-.25-1.53-.23-1.53-.23-1.54-.22-1.53-.21-1.53-.2-1.54-.2-1.54-.19-1.54-.18-1.54-.17-1.54-.17-1.54-.15-1.55-.15-1.54-.14-1.55-.13-1.55-.13-1.55-.12-1.56-.1-1.55-.11-1.56-.09-1.55-.08-1.56-.08-1.56-.07-1.56-.06-1.57-.06-1.56-.04-1.57-.04-1.56-.03-1.57-.02-1.57-.02-1.58v-3.14l.01-1.58.02-1.58.02-1.58.03-1.58.05-1.58.05-1.59.05-1.58.07-1.59.07-1.59.08-1.59.09-1.59.1-1.59.1-1.6.11-1.59.12-1.6.13-1.6.14-1.6.14-1.6.15-1.6.16-1.61.17-1.6.18-1.61.18-1.61.19-1.61.2-1.61.21-1.62.21-1.61.23-1.62.23-1.62.24-1.62.24-1.62.26-1.62.26-1.63.27-1.62.28-1.63.29-1.63m10.01 154.01-.21 1.53-.2 1.53-.21 1.53-.21 1.52-.21 1.53-.21 1.53-.21 1.52-.21 1.53-.21 1.52-.22 1.53-.22 1.52-.21 1.53-.22 1.52-.22 1.52-.23 1.52-.22 1.52-.22 1.52-.23 1.52-.23 1.52-.23 1.51-.22 1.52-.24 1.52-.23 1.51-.23 1.52-.24 1.51-.23 1.52-.24 1.51-.24 1.51-.24 1.51-.24 1.51-.24 1.51-.24 1.51-.25 1.51-.24 1.51-.25 1.51-.25 1.51-.25 1.5-.25 1.51-.25 1.5-.26 1.51-.25 1.5-.26 1.51-.25 1.5-.26 1.5-.26 1.5-.26 1.5-.27 1.5-.26 1.5-.27 1.5-.26 1.5-.27 1.5-.27 1.49-.27 1.5-.27 1.49-.27 1.5-.28 1.49-.27 1.5-.28 1.49-.28 1.49-.27 1.49-.28 1.49-.29 1.49-.28 1.49-.28 1.49-.29 1.49-.28 1.49-.29 1.48-.29 1.49-.29 1.49-.29 1.48-.3 1.48-.29 1.49-.3 1.48-.29 1.48-.3 1.48-.3 1.49-.3 1.48-.3 1.48-.31 1.47-.3 1.48-.31 1.48-.3 1.48-.31 1.47-.31 1.48-.31 1.47-.31 1.48-.32 1.47-.31 1.48-.32 1.47-.31 1.47-.32 1.47-.32 1.47-.32 1.47-.32 1.47-.33 1.47-.32 1.47-.33 1.46-.33 1.47-.32 1.47m196.59-121.59.82.12.81.13.82.13.82.13.81.13.82.12.82.13.81.13.82.13.81.13.82.12.82.13.81.13.82.13.82.13.81.12.82.13.81.13.82.13.82.13.81.12.82.13.81.13.82.13.82.13.81.12.82.13.82.13.81.13.82.13.81.12.82.13.82.13.81.13.82.13.81.12.82.13.82.13.81.13.82.13.82.12.81.13.82.13.81.13.82.13.82.13.81.12.82.13.81.13.82.13.82.13.81.12.82.13.82.13.81.13.82.13.81.12.82.13.82.13.81.13.82.13.81.12.82.13.82.13.81.13.82.13.82.12.81.13.82.13.81.13.82.13.82.12.81.13.82.13.81.13.82.13.82.12.81.13.82.13.82.13.81.13.82.12.81.13.82.13.82.13.81.13.82.12.82.13.81.13.82.13.81.13.82.13.82.12.81.13.82.13.81.13.82.13.82.12.81.13" style="stroke-width:1.07;stroke:#000000;stroke-opacity:0.10;stroke-linecap:butt"/><path d="m134.16 300.19 9.1 15.76h-18.2zm170.23 32.38 4.19 7.25h-8.37z" style="stroke-width:0.71;stroke:none;fill:#00BFC4"/><circle cx="124.15" cy="156.69" r="5.55" style="stroke-width:0.71;stroke:none;fill:#F8766D"/><circle cx="46.81" cy="296.99" r="1.42" style="stroke-width:0.71;stroke:none;fill:#F8766D"/><circle cx="221.92" cy="324.47" r="3.11" style="stroke-width:0.71;stroke:none;fill:#F8766D"/><circle cx="107.8" cy="459" r="3.11" style="stroke-width:0.71;stroke:none;fill:#F8766D"/><circle cx="385.19" cy="350.08" r="1.42" style="stroke-width:0.71;stroke:none;fill:#F8766D"/><path d="m139.13 315.38-4.19-3.95m164.45 21.27 4.23 3.97M119.1 161.34l4.26-3.92m-71.5 134.92-4.27 3.93m167.19 11.91 6.71 15.31M112.85 454.34l-4.27 3.93m271.58-103.56 4.25-3.91" style="stroke-width:0.53;stroke:#BFBFBF"/><path d="M116.44 334.69h67.44l-.08-.01.34-.01.34-.07.33-.12.3-.18.27-.22.23-.26.19-.29.13-.32.08-.34.03-.34h0v-14.99h0l-.03-.35-.08-.34-.13-.32-.19-.29-.23-.26-.27-.22-.3-.18-.33-.12-.34-.07-.26-.01h-67.44l.26.01-.35-.01-.34.04-.34.1-.31.14-.29.2-.25.24-.21.28-.16.31-.11.33-.05.34-.01.18v14.99l.01-.18v.35l.05.34.11.33.16.31.21.28.25.24.29.2.31.15.34.09.34.04z" style="stroke-width:0.53;fill:#FFFFFF;fill-opacity:0.50"/><text x="150.16" y="322.89" lengthAdjust="spacingAndGlyphs" style="font-size:5.69px;font-family:&quot;Liberation Sans&quot;" text-anchor="middle" textLength="64.56">BIG CAT MANAGEMENT</text><text x="150.16" y="331.09" lengthAdjust="spacingAndGlyphs" style="font-size:5.69px;font-family:&quot;Liberation Sans&quot;" text-anchor="middle" textLength="18.31">12 LLC</text><path d="M260.5 332.7h55.65-.09l.35-.02.34-.07.32-.12.3-.17.27-.22.23-.26.19-.3.13-.32.09-.33.03-.35h0v-14.99h0l-.03-.35-.09-.34-.13-.32-.19-.29-.23-.26-.27-.22-.3-.17-.32-.13-.34-.07-.26-.01H260.5l.26.01-.35-.01-.34.04-.34.1-.31.15-.29.2-.25.24-.21.27-.16.31-.11.33-.05.34-.01.18v14.99l.01-.17v.34l.05.35.11.33.16.3.21.28.25.24.29.2.31.15.34.1.34.04z" style="stroke-width:0.53;fill:#FFFFFF;fill-opacity:0.50"/><text x="288.32" y="320.91" lengthAdjust="spacingAndGlyphs" style="font-size:5.69px;font-family:&quot;Liberation Sans&quot;" text-anchor="middle" textLength="44.47">ACE PROPERTY</text><text x="288.32" y="329.1" lengthAdjust="spacingAndGlyphs" style="font-size:5.69px;font-family:&quot;Liberation Sans&quot;" text-anchor="middle" textLength="52.77">ACQUISITIONS LLC</text><path d="M73.05 188.85h61-.09l.35-.02.34-.07.33-.12.3-.17.27-.22.23-.26.18-.3.14-.32.08-.33.03-.35h0V163.5h0l-.03-.34-.08-.34-.14-.32-.18-.29-.23-.26-.27-.22-.3-.18-.33-.12-.34-.07-.26-.02h-61l.26.02-.35-.01-.35.04-.33.09-.31.15-.29.2-.25.24-.21.28-.16.31-.11.33-.06.34v23.36-.17.34l.06.35.11.33.16.3.21.28.25.24.29.2.31.15.33.1.35.04z" style="stroke-width:0.53;fill:#FFFFFF;fill-opacity:0.50"/><text x="103.55" y="168.86" lengthAdjust="spacingAndGlyphs" style="font-size:5.69px;font-family:&quot;Liberation Sans&quot;" text-anchor="middle" textLength="58.12">2377 GOLD MEADOW</text><text x="103.55" y="177.06" lengthAdjust="spacingAndGlyphs" style="font-size:5.69px;font-family:&quot;Liberation Sans&quot;" text-anchor="middle" textLength="56.12">WAY, STE 200, GOLD</text><text x="103.55" y="185.25" lengthAdjust="spacingAndGlyphs" style="font-size:5.69px;font-family:&quot;Liberation Sans&quot;" text-anchor="middle" textLength="45.5">RIVER, CA 95670</text><path d="M36.91 292.34h61-.08l.34-.02.34-.06.33-.13.3-.17.27-.22.23-.26.18-.3.14-.32.08-.33.03-.35h0v-23.19h0l-.03-.34-.08-.34-.14-.32-.18-.29-.23-.26-.27-.22-.3-.18-.33-.12-.34-.07-.26-.02h-61l.26.02-.35-.01-.34.04-.34.1-.31.14-.29.2-.25.24-.21.28-.16.31-.11.33-.06.34v23.36-.17.34l.06.35.11.33.16.3.21.28.25.24.29.2.31.15.34.1.34.04z" style="stroke-width:0.53;fill:#FFFFFF;fill-opacity:0.50"/><text x="67.41" y="272.35" lengthAdjust="spacingAndGlyphs" style="font-size:5.69px;font-family:&quot;Liberation Sans&quot;" text-anchor="middle" textLength="58.12">2377 GOLD MEADOW</text><text x="67.41" y="280.55" lengthAdjust="spacingAndGlyphs" style="font-size:5.69px;font-family:&quot;Liberation Sans&quot;" text-anchor="middle" textLength="49.81">WAY, STE 2, GOLD</text><text x="67.41" y="288.74" lengthAdjust="spacingAndGlyphs" style="font-size:5.69px;font-family:&quot;Liberation Sans&quot;" text-anchor="middle" textLength="45.5">RIVER, CA 95670</text><path d="M179.28 308.18h69.75l-.08-.01.34-.01.35-.07.32-.12.3-.18.27-.22.23-.26.19-.29.13-.32.09-.34.02-.34h0v-23.19h0l-.02-.35-.09-.33-.13-.32-.19-.3-.23-.26-.27-.22-.3-.17-.32-.12-.35-.07-.26-.02h-69.75l.26.02-.35-.02-.34.04-.34.1-.31.15-.29.2-.25.24-.21.28-.16.3-.11.33-.05.35-.01.17v23.19l.01-.18v.35l.05.34.11.33.16.31.21.28.25.24.29.2.31.15.34.09.34.04z" style="stroke-width:0.53;fill:#FFFFFF;fill-opacity:0.50"/><text x="214.16" y="288.19" lengthAdjust="spacingAndGlyphs" style="font-size:5.69px;font-family:&quot;Liberation Sans&quot;" text-anchor="middle" textLength="59.62">1540 RIVER PARK DR,</text><text x="214.16" y="296.38" lengthAdjust="spacingAndGlyphs" style="font-size:5.69px;font-family:&quot;Liberation Sans&quot;" text-anchor="middle" textLength="66.88">STE 220, SACRAMENTO,</text><text x="214.16" y="304.58" lengthAdjust="spacingAndGlyphs" style="font-size:5.69px;font-family:&quot;Liberation Sans&quot;" text-anchor="middle" textLength="24.95">CA 95815</text><path d="M97.9 454.34h61l-.09-.01.35-.01.34-.07.33-.12.3-.18.27-.22.23-.26.18-.29.14-.32.08-.34.03-.34h0v-23.19h0l-.03-.35-.08-.33-.14-.32-.18-.3-.23-.26-.27-.22-.3-.17-.33-.12-.34-.07-.26-.02h-61l.26.02-.35-.02-.35.04-.33.1-.31.15-.29.2-.25.24-.21.28-.16.3-.11.33-.06.35v23.36-.18.35l.06.34.11.33.16.31.21.28.25.24.29.2.31.15.33.09.35.04z" style="stroke-width:0.53;fill:#FFFFFF;fill-opacity:0.50"/><text x="128.4" y="434.35" lengthAdjust="spacingAndGlyphs" style="font-size:5.69px;font-family:&quot;Liberation Sans&quot;" text-anchor="middle" textLength="58.12">2377 GOLD MEADOW</text><text x="128.4" y="442.54" lengthAdjust="spacingAndGlyphs" style="font-size:5.69px;font-family:&quot;Liberation Sans&quot;" text-anchor="middle" textLength="52.97">WAY, STE 22, GOLD</text><text x="128.4" y="450.74" lengthAdjust="spacingAndGlyphs" style="font-size:5.69px;font-family:&quot;Liberation Sans&quot;" text-anchor="middle" textLength="45.5">RIVER, CA 95670</text><path d="M334.12 382.22h61-.08l.35-.02.34-.07.32-.12.3-.17.27-.22.23-.26.19-.3.13-.32.09-.33.02-.35h0v-23.19h0l-.02-.34-.09-.34-.13-.32-.19-.29-.23-.26-.27-.22-.3-.18-.32-.12-.34-.07-.27-.02h-61l.26.02-.35-.01-.34.04-.34.09-.31.15-.29.2-.25.24-.21.28-.16.31-.11.33-.05.34-.01.17v23.19l.01-.17v.34l.05.35.11.33.16.3.21.28.25.24.29.2.31.15.34.1.34.04z" style="stroke-width:0.53;fill:#FFFFFF;fill-opacity:0.50"/><text x="364.62" y="362.23" lengthAdjust="spacingAndGlyphs" style="font-size:5.69px;font-family:&quot;Liberation Sans&quot;" text-anchor="middle" textLength="58.12">2377 GOLD MEADOW</text><text x="364.62" y="370.43" lengthAdjust="spacingAndGlyphs" style="font-size:5.69px;font-family:&quot;Liberation Sans&quot;" text-anchor="middle" textLength="52.97">WAY, STE 20, GOLD</text><text x="364.62" y="378.62" lengthAdjust="spacingAndGlyphs" style="font-size:5.69px;font-family:&quot;Liberation Sans&quot;" text-anchor="middle" textLength="45.5">RIVER, CA 95670</text></g><g clip-path="url(#cpMC4wMHw0MzIuMDB8MC4wMHw1MDQuMDA=)"><circle cx="155.2" cy="116.5" r="1.95" style="stroke-width:0.71;stroke:none;fill:#F8766D"/><path d="m231.6 113.46 2.63 4.56h-5.26z" style="stroke-width:0.71;stroke:none;fill:#00BFC4"/><text x="169.32" y="119.66" lengthAdjust="spacingAndGlyphs" style="font-size:8.80px;font-weight:0;font-family:&quot;Nimbus Sans Narrow&quot;" textLength="48.16">mprop address</text><text x="245.72" y="119.66" lengthAdjust="spacingAndGlyphs" style="font-size:8.80px;font-weight:0;font-family:&quot;Nimbus Sans Narrow&quot;" textLength="39.72">owner name</text><text x="29.89" y="84.79" lengthAdjust="spacingAndGlyphs" style="font-size:12.00px;font-weight:0;font-family:&quot;Nimbus Sans Narrow&quot;" textLength="252.11">includes 13 parcels, 22 units, and 2 distinct owner names.</text><text x="29.89" y="42.81" lengthAdjust="spacingAndGlyphs" style="font-size:18.00px;font-weight:0;font-family:&quot;Nimbus Sans Narrow&quot;" textLength="360">BIG CAT MANAGEMENT 12 LLC -- ACE PROPERTY</text><text x="29.89" y="62.25" lengthAdjust="spacingAndGlyphs" style="font-size:18.00px;font-weight:0;font-family:&quot;Nimbus Sans Narrow&quot;" textLength="187.8">ACQUISITIONS LLC Group</text></g></g></svg>