<svg xmlns="http://www.w3.org/2000/svg" width="768" height="768" class="svglite" viewBox="0 0 576 576"><defs><style><![CDATA[.svglite line,.svglite polyline,.svglite polygon,.svglite path,.svglite circle{fill:none;stroke:#000000;stroke-linecap:round;stroke-linejoin:round;stroke-miterlimit:10.00}.svglite text{white-space:pre}]]></style></defs><rect width="100%" height="100%" style="stroke-linecap:round;stroke-linejoin:round;stroke-miterlimit:10.00;stroke:none;fill:#FFFFFF"/><defs><clipPath id="cpMC4wMHw1NzYuMDB8MC4wMHw1NzYuMDA="><path d="M0 0h576v576H0z"/></clipPath></defs><g clip-path="url(#cpMC4wMHw1NzYuMDB8MC4wMHw1NzYuMDA=)"><path d="M0 0h576v576H0z" style="stroke-width:1.07;stroke:none;fill:#FFFFFF"/></g><defs><clipPath id="cpMzIuNjN8NTQ2LjExfDE0MS41OHw1NDMuMzc="><path d="M32.63 141.58h513.48v401.8H32.63z"/></clipPath></defs><g clip-path="url(#cpMzIuNjN8NTQ2LjExfDE0MS41OHw1NDMuMzc=)"><path d="m140 427.26-.43-1.11-.43-1.11-.45-1.11-.45-1.1-.46-1.1-.47-1.09-.48-1.09-.49-1.09-.5-1.08-.5-1.08-.51-1.07-.53-1.07-.53-1.06-.54-1.06-.54-1.06-.56-1.05-.56-1.05-.58-1.05-.58-1.04-.59-1.03-.6-1.03-.61-1.03-.61-1.03-.63-1.02-.63-1.01-.65-1.01-.65-1.01-.66-1-.66-1-.68-1-.69-.99-.69-.99-.7-.98-.71-.98-.72-.97-.73-.98-.74-.96-.74-.97-.76-.95-.76-.96-.77-.95-.78-.94-.79-.95-.8-.94-.8-.93-.82-.93-.82-.93-.83-.92-.84-.91-.85-.92-.86-.91-.87-.9-.87-.9-.88-.9-.9-.89-.9-.89-.9-.89-.92-.88-.93-.88-.93-.87-.95-.87-.95-.86-.96-.86-.97-.86-.98-.85-.98-.85-1-.84-1-.84-1.01-.84-1.03-.83-1.02-.83-1.04-.82-1.05-.82-1.05-.82-1.07-.81-1.07-.81-1.08-.8-1.09-.8-1.1-.79-1.11-.8-1.11-.78-1.13-.79-1.13-.77-1.14-.78-1.15-.77-1.16-.77-1.17-.76-1.17-.76-1.19-.75-1.19-.75-1.2-.75-1.21-.74-1.22-.74-1.23-.73-1.23-.73-1.25-.73-1.25-.72-1.26-.71-1.27-.72M140 427.26l-.47.99-.46.99-.47.98-.47.99-.46.99-.47.99-.46.99-.47.99-.47.98-.46.99-.47.99-.46.99-.47.99-.47.99-.46.99-.47.98-.46.99-.47.99-.47.99-.46.99-.47.99-.46.98-.47.99-.47.99-.46.99-.47.99-.46.99-.47.98-.47.99-.46.99-.47.99-.46.99-.47.99-.47.98-.46.99-.47.99-.46.99-.47.99-.47.99-.46.98-.47.99-.46.99-.47.99-.47.99-.46.99-.47.98-.46.99-.47.99-.47.99-.46.99-.47.99-.46.99-.47.98-.47.99-.46.99-.47.99-.46.99-.47.99-.47.98-.46.99-.47.99-.46.99-.47.99-.47.99-.46.98-.47.99-.46.99-.47.99-.47.99-.46.99-.47.98-.46.99-.47.99-.47.99-.46.99-.47.99-.46.98-.47.99-.47.99-.46.99-.47.99-.47.99-.46.98-.47.99-.46.99-.47.99-.47.99-.46.99-.47.99-.46.98-.47.99-.47.99-.46.99-.47.99-.46.99-.47.98-.47.99-.46.99-.47.99" style="stroke-width:1.07;stroke:#000000;stroke-opacity:0.10;stroke-linecap:butt"/><path d="m140 427.26-.85-.91-.85-.92-.85-.91-.85-.91-.85-.92-.84-.91-.85-.92-.85-.91-.85-.91-.85-.92-.85-.91-.85-.91-.85-.92-.84-.91-.85-.91-.85-.92-.85-.91-.85-.92-.85-.91-.85-.91-.85-.92-.84-.91-.85-.91-.85-.92-.85-.91-.85-.91-.85-.92-.85-.91-.85-.92-.85-.91-.84-.91-.85-.92-.85-.91-.85-.91-.85-.92-.85-.91-.85-.91-.85-.92-.84-.91-.85-.91-.85-.92-.85-.91-.85-.92-.85-.91-.85-.91-.85-.92-.84-.91-.85-.91-.85-.92-.85-.91-.85-.91-.85-.92-.85-.91-.85-.92-.85-.91-.84-.91-.85-.92-.85-.91-.85-.91-.85-.92-.85-.91-.85-.91-.85-.92-.84-.91-.85-.92-.85-.91-.85-.91-.85-.92-.85-.91-.85-.91-.85-.92-.84-.91-.85-.91-.85-.92-.85-.91-.85-.91-.85-.92-.85-.91-.85-.92-.85-.91-.84-.91-.85-.92-.85-.91-.85-.91-.85-.92-.85-.91-.85-.91-.85-.92-.84-.91-.85-.92-.85-.91-.85-.91-.85-.92-.85-.91-.85-.91-.85-.92-.84-.91-.85-.91-.85-.92m237.45-57.75-.37 1.1-.36 1.09-.36 1.09-.35 1.09-.34 1.09-.34 1.09-.34 1.1-.33 1.09-.32 1.09-.32 1.1-.32 1.09-.31 1.09-.3 1.1-.3 1.09-.29 1.1-.29 1.09-.28 1.1-.28 1.09-.27 1.1-.27 1.1-.26 1.09-.26 1.1-.25 1.1-.25 1.09-.24 1.1-.24 1.1-.23 1.1-.22 1.09-.22 1.1-.22 1.1-.21 1.1-.21 1.1-.2 1.1-.19 1.1-.19 1.1-.18 1.1-.18 1.1-.18 1.1-.17 1.1-.16 1.1-.16 1.11-.15 1.1-.15 1.1-.14 1.1-.14 1.11-.13 1.1-.13 1.1-.12 1.11-.12 1.1-.11 1.1-.1 1.11-.11 1.1-.09 1.11-.09 1.1-.09 1.11-.08 1.11-.07 1.1-.07 1.11-.07 1.1-.06 1.11-.05 1.11-.05 1.11-.04 1.1-.04 1.11-.04 1.11-.02 1.11-.03 1.11-.02 1.11-.01 1.11-.01 1.1v2.22l.01 1.11.02 1.12.01 1.11.03 1.11.03 1.11.03 1.11.04 1.11.04 1.11.05 1.12.06 1.11.06 1.11.06 1.12.07 1.11.08 1.11.08 1.12.09 1.11.09 1.12.1 1.11.1 1.12.1 1.11.12 1.12.11 1.11.13 1.12.12 1.12.14 1.11.13 1.12.15 1.12m11.04-109.32-1.36-.64-1.36-.63-1.36-.63-1.36-.62-1.37-.62-1.37-.6-1.37-.6-1.38-.6-1.37-.58-1.38-.58-1.39-.57-1.38-.57-1.39-.55-1.39-.55-1.4-.54-1.39-.54-1.4-.53-1.41-.52-1.4-.51-1.41-.51-1.41-.5-1.41-.49-1.42-.48-1.42-.48-1.42-.47-1.42-.47-1.43-.45-1.43-.45-1.43-.44-1.44-.44-1.43-.42-1.44-.42-1.45-.42-1.44-.4-1.45-.4-1.45-.39-1.46-.39-1.46-.38-1.46-.37-1.46-.36-1.46-.35-1.47-.35-1.47-.34-1.48-.34-1.47-.33-1.48-.32-1.48-.31-1.49-.3-1.48-.3-1.49-.29-1.5-.29-1.49-.27-1.5-.27-1.5-.27-1.5-.25-1.51-.25-1.51-.24-1.51-.23-1.52-.23-1.51-.22-1.52-.21-1.53-.21-1.52-.2-1.53-.19-1.53-.18-1.54-.18-1.53-.17-1.54-.16-1.54-.15-1.55-.15-1.55-.14-1.55-.13-1.55-.13-1.56-.12-1.55-.11-1.57-.11-1.56-.09-1.57-.09-1.57-.09-1.57-.07-1.57-.07-1.58-.06-1.58-.06-1.58-.04-1.59-.04-1.59-.04-1.59-.02-1.59-.02-1.6-.01-1.6-.01-1.6.01-1.61.01-1.61.01-1.61.03-1.61.03-1.62.04-1.62.05-1.62.05-1.62.06" style="stroke-width:1.07;stroke:#000000;stroke-opacity:0.10;stroke-linecap:butt"/><path d="m140 427.26-1.27-.71-1.26-.72-1.26-.72-1.24-.73-1.24-.73-1.22-.73-1.22-.74-1.21-.74-1.2-.75-1.2-.75-1.18-.75-1.18-.76-1.16-.76-1.16-.77-1.15-.77-1.14-.77-1.14-.78-1.12-.79-1.12-.78-1.1-.79-1.1-.8-1.09-.8-1.08-.8-1.08-.81-1.06-.81-1.05-.82-1.05-.81-1.04-.83-1.03-.83-1.02-.83-1.01-.83-1.01-.84-.99-.85-.99-.85-.97-.85-.97-.86-.96-.86-.96-.86-.94-.87-.93-.87-.93-.88-.92-.88-.91-.88-.9-.89-.89-.9-.88-.89-.88-.91-.86-.9-.86-.91-.85-.91-.84-.92-.83-.92-.82-.93-.82-.93-.8-.93-.8-.94-.79-.94-.78-.95-.77-.95-.76-.95-.76-.96-.74-.97-.74-.96-.73-.97-.72-.98-.71-.98-.7-.98-.7-.99-.68-.99-.68-.99-.67-1-.66-1.01-.65-1-.64-1.02-.63-1.01-.63-1.02-.62-1.03-.6-1.02-.6-1.04-.59-1.03-.59-1.04-.57-1.05-.56-1.05-.56-1.05-.55-1.06-.54-1.06-.53-1.06-.52-1.07-.51-1.07-.51-1.08-.49-1.08-.49-1.09-.48-1.09-.47-1.09-.46-1.1-.45-1.1-.45-1.1-.43-1.11-.43-1.12m466.8-176.97-1.13.59-1.13.6-1.13.59-1.13.59-1.13.6-1.13.59-1.13.6-1.13.59-1.13.59-1.13.6-1.13.59-1.13.59-1.13.6-1.13.59-1.14.59-1.13.6-1.13.59-1.13.6-1.13.59-1.13.59-1.13.6-1.13.59-1.13.59-1.13.6-1.13.59-1.13.59-1.13.6-1.13.59-1.13.6-1.13.59-1.13.59-1.13.6-1.13.59-1.13.59-1.14.6-1.13.59-1.13.59-1.13.6-1.13.59-1.13.59-1.13.6-1.13.59-1.13.6-1.13.59-1.13.59-1.13.6-1.13.59-1.13.59-1.13.6-1.13.59-1.13.59-1.13.6-1.13.59-1.13.6-1.14.59-1.13.59-1.13.6-1.13.59-1.13.59-1.13.6-1.13.59-1.13.59-1.13.6-1.13.59-1.13.59-1.13.6-1.13.59-1.13.6-1.13.59-1.13.59-1.13.6-1.13.59-1.13.59-1.13.6-1.13.59-1.14.59-1.13.6-1.13.59-1.13.6-1.13.59-1.13.59-1.13.6-1.13.59-1.13.59-1.13.6-1.13.59-1.13.59-1.13.6-1.13.59-1.13.59-1.13.6-1.13.59-1.13.6-1.13.59-1.13.59-1.14.6-1.13.59-1.13.59-1.13.6M140 427.26l1.62-.05 1.61-.06 1.62-.07 1.6-.08 1.61-.08 1.6-.08 1.6-.1 1.59-.1 1.59-.11 1.59-.12 1.58-.12 1.58-.13 1.57-.13 1.57-.15 1.57-.15 1.56-.16 1.57-.16 1.55-.17 1.55-.18 1.55-.18 1.55-.2 1.54-.19 1.54-.21 1.53-.21 1.53-.22 1.53-.23 1.52-.23 1.52-.24 1.52-.25 1.51-.25 1.51-.27 1.5-.26 1.51-.28 1.49-.28 1.5-.29 1.49-.3 1.48-.3 1.49-.31 1.47-.31 1.48-.33 1.47-.33 1.47-.34 1.46-.34 1.46-.35 1.46-.36 1.45-.36 1.45-.38 1.45-.37 1.44-.39 1.44-.39 1.43-.4 1.43-.41 1.43-.41 1.42-.42 1.42-.43 1.42-.44 1.41-.44 1.41-.44 1.4-.46 1.41-.46 1.39-.47 1.4-.48 1.39-.48 1.38-.49 1.39-.5 1.37-.5 1.38-.51 1.37-.52 1.37-.52 1.36-.53 1.36-.54 1.36-.55 1.35-.55 1.35-.56 1.35-.56 1.34-.58 1.34-.58 1.33-.58 1.34-.6 1.32-.6 1.33-.6 1.32-.62 1.31-.62 1.31-.63 1.31-.63 1.31-.64 1.3-.65 1.3-.66 1.29-.66 1.29-.67 1.29-.68 1.28-.68 1.28-.69 1.28-.7 1.27-.7 1.27-.72 1.26-.71 1.26-.73 1.26-.73m11.04-109.32 1.18-.61 1.19-.61 1.18-.61 1.19-.61 1.19-.61 1.18-.61 1.19-.61 1.19-.61 1.18-.61 1.19-.61 1.18-.61 1.19-.61 1.19-.61 1.18-.62 1.19-.61 1.19-.61 1.18-.61 1.19-.61 1.18-.61 1.19-.61 1.19-.61 1.18-.61 1.19-.61 1.19-.61 1.18-.61 1.19-.61 1.18-.61 1.19-.61 1.19-.62 1.18-.61 1.19-.61 1.19-.61 1.18-.61 1.19-.61 1.18-.61 1.19-.61 1.19-.61 1.18-.61 1.19-.61 1.19-.61 1.18-.61 1.19-.61 1.18-.61 1.19-.62 1.19-.61 1.18-.61 1.19-.61 1.19-.61 1.18-.61 1.19-.61 1.18-.61 1.19-.61 1.19-.61 1.18-.61 1.19-.61 1.19-.61 1.18-.61 1.19-.61 1.18-.62 1.19-.61 1.19-.61 1.18-.61 1.19-.61 1.19-.61 1.18-.61 1.19-.61 1.18-.61 1.19-.61 1.19-.61 1.18-.61 1.19-.61 1.18-.61 1.19-.62 1.19-.61 1.18-.61 1.19-.61 1.19-.61 1.18-.61 1.19-.61 1.18-.61 1.19-.61 1.19-.61 1.18-.61 1.19-.61 1.19-.61 1.18-.61 1.19-.61 1.18-.62 1.19-.61 1.19-.61 1.18-.61 1.19-.61 1.19-.61 1.18-.61 1.19-.61 1.18-.61 1.19-.61 1.19-.61 1.18-.61m-117.43 60.45-1.49-.29-1.49-.29-1.49-.29-1.49-.29-1.49-.29-1.49-.29-1.49-.29-1.49-.29-1.49-.3-1.49-.29-1.49-.29-1.49-.29-1.49-.29-1.49-.29-1.49-.29-1.49-.29-1.49-.3-1.49-.29-1.49-.29-1.49-.29-1.49-.29-1.49-.29-1.49-.29-1.49-.29-1.49-.29-1.49-.3-1.49-.29-1.49-.29-1.49-.29-1.49-.29-1.49-.29-1.49-.29-1.49-.29-1.49-.3-1.49-.29-1.49-.29-1.49-.29-1.49-.29-1.49-.29-1.49-.29-1.49-.29-1.49-.29-1.49-.3-1.49-.29-1.49-.29-1.49-.29-1.49-.29-1.49-.29-1.49-.29-1.49-.29-1.49-.3-1.49-.29-1.49-.29-1.49-.29-1.49-.29-1.49-.29-1.49-.29-1.49-.29-1.49-.29-1.49-.3-1.49-.29-1.49-.29-1.49-.29-1.49-.29-1.49-.29-1.49-.29-1.49-.29-1.49-.29-1.49-.3-1.49-.29-1.49-.29-1.49-.29-1.49-.29-1.49-.29-1.49-.29-1.49-.29-1.49-.3-1.49-.29-1.49-.29-1.49-.29-1.49-.29-1.49-.29-1.49-.29-1.49-.29-1.49-.29-1.49-.3-1.49-.29-1.49-.29-1.49-.29-1.49-.29-1.49-.29-1.49-.29-1.49-.29-1.49-.3-1.49-.29-1.49-.29-1.49-.29-1.49-.29-1.49-.29m147.51 28.82.14 1.12.14 1.12.13 1.12.13 1.11.12 1.12.12 1.11.11 1.12.11 1.12.1 1.11.09 1.12.1 1.11.08 1.11.08 1.12.08 1.11.07 1.12.06 1.11.06 1.11.06 1.12.05 1.11.04 1.11.04 1.11.04 1.11.02 1.12.03 1.11.02 1.11.01 1.11.01 1.11v2.22l-.01 1.11-.01 1.11-.02 1.11-.02 1.1-.03 1.11-.03 1.11-.04 1.11-.05 1.11-.05 1.1-.05 1.11-.06 1.11-.06 1.11-.07 1.1-.08 1.11-.08 1.1-.09 1.11-.09 1.1-.09 1.11-.1 1.1-.11 1.11-.11 1.1-.12 1.11-.12 1.1-.13 1.1-.13 1.11-.14 1.1-.14 1.1-.15 1.1-.15 1.11-.16 1.1-.16 1.1-.17 1.1-.17 1.1-.18 1.1-.19 1.1-.19 1.1-.19 1.1-.2 1.1-.21 1.1-.21 1.1-.21 1.1-.22 1.1-.23 1.1-.23 1.09-.24 1.1-.24 1.1-.24 1.1-.26 1.09-.25 1.1-.27 1.1-.26 1.09-.28 1.1-.27 1.09-.29 1.1-.29 1.09-.29 1.1-.3 1.09-.3 1.1-.31 1.09-.31 1.1-.32 1.09-.33 1.09-.33 1.1-.33 1.09-.34 1.09-.35 1.09-.35 1.09-.36 1.1-.36 1.09-.36 1.09" style="stroke-width:1.07;stroke:#000000;stroke-opacity:0.10;stroke-linecap:butt"/><path d="m293.42 279.06-1.63.06-1.62.06-1.62.04-1.62.04-1.61.03-1.61.03-1.61.02-1.6.01h-3.2l-1.6-.02-1.6-.01-1.59-.03-1.59-.03-1.58-.04-1.58-.05-1.58-.05-1.58-.07-1.58-.06-1.57-.08-1.57-.08-1.57-.09-1.56-.1-1.56-.11-1.56-.11-1.56-.12-1.55-.12-1.55-.14-1.55-.14-1.54-.14-1.54-.16-1.54-.16-1.54-.17-1.53-.18-1.53-.18-1.53-.19-1.53-.2-1.52-.2-1.52-.22-1.52-.22-1.51-.22-1.51-.24-1.51-.24-1.51-.24-1.5-.26-1.5-.26-1.5-.27-1.5-.28-1.49-.28-1.49-.29-1.49-.3-1.48-.31-1.48-.31-1.48-.32-1.48-.33-1.47-.33-1.47-.34-1.47-.35-1.47-.36-1.46-.36-1.46-.37-1.46-.38-1.45-.38-1.45-.39-1.45-.4-1.45-.41-1.44-.41-1.44-.42-1.44-.43-1.43-.43-1.44-.45-1.43-.45-1.42-.45-1.43-.46-1.42-.48-1.42-.47-1.41-.49-1.42-.49-1.41-.5-1.41-.51-1.4-.51-1.4-.52-1.4-.53-1.4-.53-1.39-.55-1.39-.54-1.39-.56-1.39-.57-1.38-.57-1.38-.57-1.38-.59-1.37-.59-1.38-.6-1.37-.61-1.36-.61-1.37-.62-1.36-.63-1.36-.64-1.35-.64M140 427.26l1.44-.39 1.43-.4 1.44-.39 1.44-.39 1.44-.39 1.44-.4 1.44-.39 1.43-.39 1.44-.4 1.44-.39 1.44-.39 1.44-.39 1.43-.4 1.44-.39 1.44-.39 1.44-.39 1.44-.4 1.44-.39 1.43-.39 1.44-.4 1.44-.39 1.44-.39 1.44-.39 1.43-.4 1.44-.39 1.44-.39 1.44-.39 1.44-.4 1.44-.39 1.43-.39 1.44-.4 1.44-.39 1.44-.39 1.44-.39 1.43-.4 1.44-.39 1.44-.39 1.44-.39 1.44-.4 1.44-.39 1.43-.39 1.44-.4 1.44-.39 1.44-.39 1.44-.39 1.43-.4 1.44-.39 1.44-.39 1.44-.39 1.44-.4 1.44-.39 1.43-.39 1.44-.4 1.44-.39 1.44-.39 1.44-.39 1.43-.4 1.44-.39 1.44-.39 1.44-.39 1.44-.4 1.43-.39 1.44-.39 1.44-.4 1.44-.39 1.44-.39 1.44-.39 1.43-.4 1.44-.39 1.44-.39 1.44-.39 1.44-.4 1.43-.39 1.44-.39 1.44-.4 1.44-.39 1.44-.39 1.44-.39 1.43-.4 1.44-.39 1.44-.39 1.44-.4 1.44-.39 1.43-.39 1.44-.39 1.44-.4 1.44-.39 1.44-.39 1.44-.39 1.43-.4 1.44-.39 1.44-.39 1.44-.4 1.44-.39 1.43-.39 1.44-.39 1.44-.4 1.44-.39 1.44-.39" style="stroke-width:1.07;stroke:#000000;stroke-opacity:0.10;stroke-linecap:butt"/><path d="m140 427.26 1.26-.73 1.26-.73 1.26-.72 1.27-.71 1.27-.7 1.28-.7 1.27-.69 1.29-.68 1.28-.68 1.29-.67 1.3-.66 1.3-.66 1.3-.65 1.3-.64 1.31-.63 1.31-.63 1.32-.62 1.32-.62 1.32-.61 1.33-.6 1.33-.59 1.34-.59 1.33-.58 1.35-.57 1.34-.57 1.35-.55 1.35-.56 1.36-.54 1.36-.54 1.37-.53 1.36-.53 1.38-.51 1.37-.51 1.38-.51 1.38-.49 1.39-.49 1.39-.49 1.39-.47 1.4-.47 1.4-.46 1.41-.46 1.4-.45 1.42-.44 1.41-.43 1.42-.43 1.43-.42 1.42-.41 1.43-.41 1.44-.4 1.44-.39 1.44-.39 1.44-.38 1.45-.37 1.46-.36 1.45-.36 1.46-.35 1.47-.35 1.47-.33 1.47-.33 1.47-.33 1.48-.31 1.48-.31 1.49-.31 1.49-.29 1.49-.29 1.5-.28 1.5-.28 1.51-.27 1.5-.26 1.52-.25 1.51-.25 1.52-.24 1.53-.23 1.52-.23 1.53-.22 1.54-.21 1.53-.21 1.55-.2 1.54-.19 1.55-.18 1.55-.18 1.56-.17 1.56-.17 1.56-.15 1.57-.15 1.57-.15 1.58-.13 1.58-.13 1.58-.13 1.59-.11 1.59-.11 1.59-.1 1.6-.1 1.6-.09 1.6-.08 1.61-.07 1.61-.07 1.62-.06 1.62-.05M145.91 250.24l-1.31.66-1.31.66-1.29.67-1.29.68-1.28.67-1.27.69-1.26.68-1.26.69-1.24.7-1.24.7-1.23.7-1.22.71-1.21.71-1.21.72-1.2.72-1.18.73-1.18.73-1.18.73-1.16.74-1.16.74-1.14.75-1.14.75-1.13.76-1.13.76-1.11.76-1.11.77-1.09.78-1.09.78-1.09.78-1.07.79-1.06.79-1.06.79-1.05.8-1.04.81-1.03.81-1.02.81-1.02.82-1.01.82-1 .82-.99.84-.98.83-.97.84-.97.84-.96.85-.95.85-.94.86-.93.86-.93.87-.91.87-.91.87-.9.88-.9.89-.88.88-.87.9-.87.89-.86.9-.85.91-.84.91-.84.91-.83.92-.81.92-.81.93-.8.93-.8.94-.78.94-.78.94-.77.95-.76.95-.75.96-.74.96-.74.97-.73.97-.72.97-.71.98-.7.99-.69.99-.69.99-.68.99-.67 1.01-.66 1-.65 1.01-.65 1.02-.63 1.02-.63 1.02-.62 1.03-.61 1.03-.61 1.03-.59 1.05-.59 1.04-.58 1.05-.57 1.05-.56 1.06-.56 1.06-.54 1.07-.54 1.07-.53 1.08-.52 1.08-.52 1.08-.5 1.09" style="stroke-width:1.07;stroke:#000000;stroke-opacity:0.10;stroke-linecap:butt"/><path d="m145.91 250.24-.91.87-.91.88-.91.87-.9.88-.91.87-.91.88-.91.87-.91.87-.91.88-.91.87-.9.88-.91.87-.91.88-.91.87-.91.88-.91.87-.91.88-.9.87-.91.87-.91.88-.91.87-.91.88-.91.87-.9.88-.91.87-.91.88-.91.87-.91.87-.91.88-.91.87-.9.88-.91.87-.91.88-.91.87-.91.88-.91.87-.91.87-.9.88-.91.87-.91.88-.91.87-.91.88-.91.87-.9.88-.91.87-.91.87-.91.88-.91.87-.91.88-.91.87-.9.88-.91.87-.91.88-.91.87-.91.88-.91.87-.91.87-.9.88-.91.87-.91.88-.91.87-.91.88-.91.87-.9.88-.91.87-.91.87-.91.88-.91.87-.91.88-.91.87-.9.88-.91.87-.91.88-.91.87-.91.87-.91.88-.91.87-.9.88-.91.87-.91.88-.91.87-.91.88-.91.87-.9.87-.91.88-.91.87-.91.88-.91.87-.91.88-.91.87-.9.88-.91.87-.91.88-.91.87-.91.87-.91.88-.91.87-.9.88-.91.87" style="stroke-width:1.07;stroke:#000000;stroke-opacity:0.10;stroke-linecap:butt"/><path d="m145.91 250.24-.51 1.09-.51 1.08-.52 1.08-.53 1.08-.54 1.07-.54 1.07-.56 1.06-.56 1.06-.57 1.05-.58 1.05-.59 1.05-.59 1.04-.61 1.03-.61 1.03-.62 1.03-.63 1.03-.64 1.01-.64 1.02-.65 1.01-.67 1-.67 1.01-.67.99-.69 1-.69.98-.71.99-.71.98-.72.97-.72.97-.74.97-.74.96-.76.96-.76.95-.76.95-.78.95-.79.94-.79.93-.8.93-.81.93-.82.92-.82.92-.84.91-.84.91-.85.91-.86.9-.87.9-.87.89-.89.89-.89.88-.9.88-.91.87-.92.87-.92.87-.93.86-.94.86-.95.85-.96.85-.97.84-.97.84-.99.84-.99.83-1 .82-1 .82-1.02.82-1.02.82-1.03.8-1.04.81-1.05.8-1.06.79-1.06.8-1.08.78-1.08.79-1.09.77-1.1.78-1.1.77-1.12.76-1.12.76-1.13.76-1.14.75-1.15.75-1.15.74-1.17.74-1.17.74-1.18.73-1.19.72-1.19.72-1.21.72-1.21.71-1.22.71-1.23.7-1.24.7-1.25.7-1.25.69-1.26.69-1.27.68-1.28.68-1.29.67-1.3.67-1.3.66-1.31.66" style="stroke-width:1.07;stroke:#000000;stroke-opacity:0.10;stroke-linecap:butt"/><path d="m140 416.75 9.1 15.76h-18.2zm153.42-144.69 6.06 10.5h-12.13zm229.35-114.43 1.92 3.32h-3.83z" style="stroke-width:0.71;stroke:none;fill:#00BA38"/><path d="M141.41 254.74h9v-9h-9z" style="stroke-width:0.71;stroke:none;fill:#619CFF"/><circle cx="55.97" cy="336.81" r="4.5" style="stroke-width:0.71;stroke:none;fill:#F8766D"/><circle cx="93.86" cy="525.11" r="1.42" style="stroke-width:0.71;stroke:none;fill:#F8766D"/><circle cx="282.38" cy="388.38" r="5.78" style="stroke-width:0.71;stroke:none;fill:#F8766D"/><circle cx="410.85" cy="218.61" r="3.6" style="stroke-width:0.71;stroke:none;fill:#F8766D"/><path d="m134.35 431.9 4.75-3.9m159.89-153.51-4.67 3.83m223.55-116.88 3.69-1.2m-381.39 94.63 4.83-3.9m-84.23 84.66-3.55.88M99.58 520.5l-4.81 3.87m193.27-140.55-4.75 3.82M405.1 223.25l4.84-3.91" style="stroke-width:0.53;stroke:#BFBFBF"/><path d="M87.36 451.44h68.46-.09l.35-.01.34-.07.33-.13.3-.17.27-.22.23-.26.18-.29.14-.32.08-.34.03-.35h0v-15.22h0l-.03-.35-.08-.33-.14-.32-.18-.3-.23-.26-.27-.22-.3-.17-.33-.12-.34-.07-.26-.02H87.36l.26.02-.34-.02-.35.04-.33.1-.32.15-.28.2-.25.24-.21.28-.16.3-.11.33-.06.35-.01.17v15.22l.01-.17v.35l.06.34.11.33.16.31.21.27.25.25.28.19.32.15.33.1.35.04z" style="stroke-width:0.53;fill:#FFFFFF;fill-opacity:0.50"/><text x="121.59" y="439.65" lengthAdjust="spacingAndGlyphs" style="font-size:5.69px;font-family:&quot;Liberation Sans&quot;" text-anchor="middle" textLength="65.58">BIG CAT MANAGEMENT</text><text x="121.59" y="447.84" lengthAdjust="spacingAndGlyphs" style="font-size:5.69px;font-family:&quot;Liberation Sans&quot;" text-anchor="middle" textLength="19.36">12 LLC</text><path d="M283.84 274.49h55.86-.09l.35-.02.34-.07.32-.12.31-.17.26-.22.23-.26.19-.3.14-.32.08-.33.03-.35h0v-15.22h0l-.03-.35-.08-.34-.14-.32-.19-.29-.23-.26-.26-.22-.31-.17-.32-.13-.34-.07-.26-.01h-55.86l.26.01-.35-.01-.34.04-.34.1-.31.15-.29.19-.25.24-.21.28-.16.31-.11.33-.05.34-.01.18v15.22l.01-.18v.35l.05.35.11.33.16.3.21.28.25.24.29.2.31.15.34.09.34.05z" style="stroke-width:0.53;fill:#FFFFFF;fill-opacity:0.50"/><text x="311.77" y="262.69" lengthAdjust="spacingAndGlyphs" style="font-size:5.69px;font-family:&quot;Liberation Sans&quot;" text-anchor="middle" textLength="42.54">ACE PROPERTY</text><text x="311.77" y="270.89" lengthAdjust="spacingAndGlyphs" style="font-size:5.69px;font-family:&quot;Liberation Sans&quot;" text-anchor="middle" textLength="52.98">ACQUISITIONS LLC</text><path d="M459.86 171.38h55.85l-.08-.01.34-.01.34-.07.33-.12.3-.18.27-.22.23-.26.19-.29.13-.32.09-.34.02-.34h0v-15.23h0l-.02-.34-.09-.34-.13-.32-.19-.29-.23-.26-.27-.22-.3-.18-.33-.12-.34-.07-.26-.02h-55.85l.26.02-.35-.01-.35.04-.33.09-.31.15-.29.2-.25.24-.21.28-.16.31-.11.33-.06.34v15.4-.18.35l.06.34.11.33.16.31.21.28.25.24.29.2.31.15.33.09.35.04z" style="stroke-width:0.53;fill:#FFFFFF;fill-opacity:0.50"/><text x="487.78" y="159.58" lengthAdjust="spacingAndGlyphs" style="font-size:5.69px;font-family:&quot;Liberation Sans&quot;" text-anchor="middle" textLength="28.45">ACE PROP</text><text x="487.78" y="167.78" lengthAdjust="spacingAndGlyphs" style="font-size:5.69px;font-family:&quot;Liberation Sans&quot;" text-anchor="middle" textLength="52.98">ACQUISITIONS LLC</text><path d="M90.13 282.6h64.28-.09l.35-.01.34-.07.33-.13.3-.17.27-.22.23-.26.18-.29.14-.32.08-.34.03-.35h0v-23.41h0l-.03-.35-.08-.34-.14-.32-.18-.29-.23-.26-.27-.22-.3-.18-.33-.12-.34-.07-.26-.01H90.13l.26.01-.35-.01-.34.04-.34.1-.31.15-.29.19-.25.24-.21.28-.16.31-.11.33-.06.34v23.59-.17.35l.06.34.11.33.16.31.21.27.25.25.29.19.31.15.34.1.34.04z" style="stroke-width:0.53;fill:#FFFFFF;fill-opacity:0.50"/><text x="122.27" y="262.61" lengthAdjust="spacingAndGlyphs" style="font-size:5.69px;font-family:&quot;Liberation Sans&quot;" text-anchor="middle" textLength="61.4">2377 GOLD MEADOW</text><text x="122.27" y="270.81" lengthAdjust="spacingAndGlyphs" style="font-size:5.69px;font-family:&quot;Liberation Sans&quot;" text-anchor="middle" textLength="59.25">WAY, STE 200, GOLD</text><text x="122.27" y="279" lengthAdjust="spacingAndGlyphs" style="font-size:5.69px;font-family:&quot;Liberation Sans&quot;" text-anchor="middle" textLength="48.46">RIVER, CA 95670</text><path d="M62.93 349.44h64.28-.08l.34-.02.34-.07.33-.12.3-.18.27-.22.23-.26.19-.29.13-.32.09-.34.02-.34h0v-23.42h0l-.02-.35-.09-.33-.13-.32-.19-.3-.23-.26-.27-.22-.3-.17-.33-.12-.34-.07-.26-.02H62.93l.26.02-.34-.02-.35.04-.33.1-.32.15-.28.2-.25.24-.21.28-.16.3-.11.33-.06.35-.01.17v23.42l.01-.18v.35l.06.34.11.33.16.31.21.28.25.24.28.2.32.15.33.09.35.05z" style="stroke-width:0.53;fill:#FFFFFF;fill-opacity:0.50"/><text x="95.07" y="329.45" lengthAdjust="spacingAndGlyphs" style="font-size:5.69px;font-family:&quot;Liberation Sans&quot;" text-anchor="middle" textLength="61.4">2377 GOLD MEADOW</text><text x="95.07" y="337.64" lengthAdjust="spacingAndGlyphs" style="font-size:5.69px;font-family:&quot;Liberation Sans&quot;" text-anchor="middle" textLength="59.25">WAY, STE 200, GOLD</text><text x="95.07" y="345.84" lengthAdjust="spacingAndGlyphs" style="font-size:5.69px;font-family:&quot;Liberation Sans&quot;" text-anchor="middle" textLength="48.46">RIVER, CA 95670</text><path d="M85.34 520.5h64.28-.09l.35-.02.34-.07.32-.12.3-.18.27-.22.23-.26.19-.29.14-.32.08-.34.03-.34h0v-23.42h0l-.03-.35-.08-.33-.14-.32-.19-.3-.23-.26-.27-.22-.3-.17-.32-.12-.34-.07-.26-.02H85.34l.26.02-.35-.02-.35.04-.33.1-.31.15-.29.2-.25.24-.21.28-.16.3-.11.33-.06.35v23.59-.18.35l.06.34.11.33.16.31.21.28.25.24.29.2.31.15.33.09.35.05z" style="stroke-width:0.53;fill:#FFFFFF;fill-opacity:0.50"/><text x="117.48" y="500.51" lengthAdjust="spacingAndGlyphs" style="font-size:5.69px;font-family:&quot;Liberation Sans&quot;" text-anchor="middle" textLength="61.4">2377 GOLD MEADOW</text><text x="117.48" y="508.7" lengthAdjust="spacingAndGlyphs" style="font-size:5.69px;font-family:&quot;Liberation Sans&quot;" text-anchor="middle" textLength="52.01">WAY, STE 2, GOLD</text><text x="117.48" y="516.9" lengthAdjust="spacingAndGlyphs" style="font-size:5.69px;font-family:&quot;Liberation Sans&quot;" text-anchor="middle" textLength="48.46">RIVER, CA 95670</text><path d="M273.8 383.82h64.28l-.09-.01.35-.01.34-.07.33-.12.3-.18.27-.22.23-.26.18-.29.14-.32.08-.34.03-.34h0v-23.42h0l-.03-.35-.08-.33-.14-.32-.18-.3-.23-.26-.27-.22-.3-.17-.33-.13-.34-.06-.26-.02H273.8l.26.02-.35-.02-.34.04-.34.1-.31.15-.29.2-.25.24-.21.27-.16.31-.11.33-.05.35-.01.17v23.42l.01-.18v.35l.05.34.11.33.16.31.21.28.25.24.29.2.31.14.34.1.34.04z" style="stroke-width:0.53;fill:#FFFFFF;fill-opacity:0.50"/><text x="305.94" y="363.83" lengthAdjust="spacingAndGlyphs" style="font-size:5.69px;font-family:&quot;Liberation Sans&quot;" text-anchor="middle" textLength="61.4">2377 GOLD MEADOW</text><text x="305.94" y="372.02" lengthAdjust="spacingAndGlyphs" style="font-size:5.69px;font-family:&quot;Liberation Sans&quot;" text-anchor="middle" textLength="55.63">WAY, STE 22, GOLD</text><text x="305.94" y="380.22" lengthAdjust="spacingAndGlyphs" style="font-size:5.69px;font-family:&quot;Liberation Sans&quot;" text-anchor="middle" textLength="48.46">RIVER, CA 95670</text><path d="M351.47 250.98h71.45-.08l.35-.01.34-.07.32-.13.3-.17.27-.22.23-.26.19-.29.13-.32.09-.34.02-.35h0v-23.41h0l-.02-.35-.09-.34-.13-.32-.19-.29-.23-.26-.27-.22-.3-.18-.32-.12-.34-.07-.27-.01h-71.45l.26.01-.34-.01-.35.04-.33.1-.32.15-.28.19-.25.24-.21.28-.17.31-.11.33-.05.34-.01.18v23.41l.01-.17v.35l.05.34.11.33.17.31.21.27.25.25.28.19.32.15.33.1.35.04z" style="stroke-width:0.53;fill:#FFFFFF;fill-opacity:0.50"/><text x="387.2" y="230.99" lengthAdjust="spacingAndGlyphs" style="font-size:5.69px;font-family:&quot;Liberation Sans&quot;" text-anchor="middle" textLength="61.74">1540 RIVER PARK DR,</text><text x="387.2" y="239.19" lengthAdjust="spacingAndGlyphs" style="font-size:5.69px;font-family:&quot;Liberation Sans&quot;" text-anchor="middle" textLength="68.57">STE 220, SACRAMENTO,</text><text x="387.2" y="247.38" lengthAdjust="spacingAndGlyphs" style="font-size:5.69px;font-family:&quot;Liberation Sans&quot;" text-anchor="middle" textLength="27.78">CA 95815</text></g><g clip-path="url(#cpMC4wMHw1NzYuMDB8MC4wMHw1NzYuMDA=)"><circle cx="194.25" cy="116.5" r="1.95" style="stroke-width:0.71;stroke:none;fill:#F8766D"/><path d="m270.6 113.46 2.63 4.56h-5.27z" style="stroke-width:0.71;stroke:none;fill:#00BA38"/><path d="M336.57 118.45h3.91v-3.91h-3.91z" style="stroke-width:0.71;stroke:none;fill:#619CFF"/><text x="208.37" y="119.66" lengthAdjust="spacingAndGlyphs" style="font-size:8.80px;font-weight:0;font-family:&quot;Nimbus Sans Narrow&quot;" textLength="48.11">mprop address</text><text x="284.72" y="119.66" lengthAdjust="spacingAndGlyphs" style="font-size:8.80px;font-weight:0;font-family:&quot;Nimbus Sans Narrow&quot;" textLength="39.69">owner name</text><text x="352.64" y="119.66" lengthAdjust="spacingAndGlyphs" style="font-size:8.80px;font-weight:0;font-family:&quot;Nimbus Sans Narrow&quot;" textLength="40.49">wdfi address</text><text x="32.63" y="84.79" lengthAdjust="spacingAndGlyphs" style="font-size:12.00px;font-weight:0;font-family:&quot;Nimbus Sans Narrow&quot;" textLength="252.12">includes 11 parcels, 23 units, and 3 distinct owner names.</text><text x="32.63" y="42.81" lengthAdjust="spacingAndGlyphs" style="font-size:18.00px;font-weight:0;font-family:&quot;Nimbus Sans Narrow&quot;" textLength="360.06">BIG CAT MANAGEMENT 12 LLC -- ACE PROPERTY</text><text x="32.63" y="62.25" lengthAdjust="spacingAndGlyphs" style="font-size:18.00px;font-weight:0;font-family:&quot;Nimbus Sans Narrow&quot;" textLength="426.51">ACQUISITIONS LLC -- ACE PROP ACQUISITIONS LLC Group</text></g></svg>