<svg xmlns="http://www.w3.org/2000/svg" width="384" height="480" viewBox="0 0 288 360"><g class="svglite"><defs><style><![CDATA[.svglite line,.svglite polyline,.svglite polygon,.svglite path,.svglite circle{fill:none;stroke:#000000;stroke-linecap:round;stroke-linejoin:round;stroke-miterlimit:10.00}.svglite text{white-space:pre}.svglite g.glyphgroup path{fill:inherit;stroke:none}]]></style></defs><rect width="100%" height="100%" style="stroke-linecap:round;stroke-linejoin:round;stroke-miterlimit:10.00;stroke:none;fill:#FFFFFF"/><defs><clipPath id="cpMC4wMHwyODguMDB8MC4wMHwzNjAuMDA="><path d="M0 0h288v360H0z"/></clipPath></defs><g clip-path="url(#cpMC4wMHwyODguMDB8MC4wMHwzNjAuMDA=)"><path d="M0 0h288v360H0z" style="stroke-width:1.07;stroke:none;fill:#FFFFFF"/></g><defs><clipPath id="cpMjkuODl8MjU4LjExfDE0MS41OHwzMzAuMTE="><path d="M29.89 141.58h228.22v188.53H29.89z"/></clipPath></defs><g clip-path="url(#cpMjkuODl8MjU4LjExfDE0MS41OHwzMzAuMTE=)"><path d="m103.77 264.41.65-.58.64-.57.64-.58.64-.58.64-.57.64-.58.65-.58.64-.58.64-.57.64-.58.64-.58.64-.57.64-.58.65-.58.64-.58.64-.57.64-.58.64-.58.64-.57.65-.58.64-.58.64-.58.64-.57.64-.58.64-.58.64-.57.65-.58.64-.58.64-.58.64-.57.64-.58.64-.58.65-.57.64-.58.64-.58.64-.57.64-.58.64-.58.65-.58.64-.57.64-.58.64-.58.64-.57.64-.58.64-.58.65-.58.64-.57.64-.58.64-.58.64-.57.64-.58.65-.58.64-.58.64-.57.64-.58.64-.58.64-.57.64-.58.65-.58.64-.57.64-.58.64-.58.64-.58.64-.57.65-.58.64-.58.64-.57.64-.58.64-.58.64-.58.65-.57.64-.58.64-.58.64-.57.64-.58.64-.58.64-.58.65-.57.64-.58.64-.58.64-.57.64-.58.64-.58.65-.57.64-.58.64-.58.64-.58.64-.57.64-.58.64-.58.65-.57.64-.58.64-.58.64-.58.64-.57.64-.58.65-.58.64-.57.64-.58m-63.52 57.13-.64.58-.64.57-.64.58-.64.58-.64.58-.64.57-.65.58-.64.58-.64.57-.64.58-.64.58-.64.58-.65.57-.64.58-.64.58-.64.57-.64.58-.64.58-.64.58-.65.57-.64.58-.64.58-.64.57-.64.58-.64.58-.65.57-.64.58-.64.58-.64.58-.64.57-.64.58-.65.58-.64.57-.64.58-.64.58-.64.58-.64.57-.64.58-.65.58-.64.57-.64.58-.64.58-.64.58-.64.57-.65.58-.64.58-.64.57-.64.58-.64.58-.64.57-.64.58-.65.58-.64.58-.64.57-.64.58-.64.58-.64.57-.65.58-.64.58-.64.58-.64.57-.64.58-.64.58-.64.57-.65.58-.64.58-.64.58-.64.57-.64.58-.64.58-.65.57-.64.58-.64.58-.64.58-.64.57-.64.58-.64.58-.65.57-.64.58-.64.58-.64.57-.64.58-.64.58-.65.58-.64.57-.64.58-.64.58-.64.57-.64.58-.64.58-.65.58-.64.57-.64.58-.64.58-.64.57-.64.58-.65.58-.64.58-.64.57" style="stroke-width:1.07;stroke:#000000;stroke-opacity:0.10;stroke-linecap:butt"/><path d="m230.81 150.15-2.36.56-2.32.56-2.28.57-2.25.56-2.21.57-2.18.56-2.15.57-2.1.57-2.08.56-2.04.57-2 .56-1.97.57-1.93.57-1.9.57-1.87.56-1.83.57-1.79.57-1.76.57-1.73.57-1.69.57-1.65.56-1.62.57-1.58.57-1.55.57-1.52.57-1.48.57-1.44.58-1.42.57-1.37.57-1.34.57-1.31.57-1.27.57-1.23.58-1.2.57-1.17.57-1.13.58-1.09.57-1.07.57-1.02.58-.99.57-.96.58-.92.57-.89.58-.85.57-.81.58-.78.57-.75.58-.71.58-.68.57-.64.58-.61.58-.57.58-.54.57-.5.58-.46.58-.44.58-.39.58-.36.58-.33.58-.29.58-.26.58-.22.58-.19.58-.15.58-.12.58-.08.58-.05.58-.01.58.02.59.05.58.1.58.12.58.17.59.19.58.23.59.27.58.3.58.34.59.37.58.41.59.44.58.48.59.51.59.54.58.58.59.62.59.65.58.69.59.72.59.75.59.79.58.83.59.86.59.9.59.93.59.96.59 1 .59 1.04.59 1.07.59m63.52-57.13 1.07.59 1.03.59 1 .59.97.59.93.59.89.58.86.59.83.59.79.59.76.59.72.59.68.58.65.59.62.59.58.58.55.59.51.59.47.58.45.59.4.58.37.59.34.58.3.59.27.58.23.58.2.59.16.58.13.58.09.59.06.58.02.58-.01.58-.05.59-.08.58-.12.58-.15.58-.19.58-.22.58-.26.58-.29.58-.33.58-.36.58-.4.58-.43.58-.47.57-.5.58-.54.58-.57.58-.61.58-.64.57-.67.58-.72.58-.74.57-.78.58-.82.57-.85.58-.89.57-.92.58-.95.57-1 .58-1.02.57-1.06.58-1.1.57-1.13.57-1.16.58-1.2.57-1.24.57-1.27.57-1.31.58-1.34.57-1.37.57-1.41.57-1.45.57-1.48.57-1.51.57-1.55.57-1.59.57-1.62.57-1.65.57-1.69.57-1.72.57-1.76.57-1.8.56-1.83.57-1.86.57-1.9.57-1.94.56-1.97.57-2 .57-2.04.56-2.07.57-2.11.57-2.14.56-2.18.57-2.22.56-2.25.57-2.28.56-2.32.56-2.35.57" style="stroke-width:1.07;stroke:#000000;stroke-opacity:0.10;stroke-linecap:butt"/><path d="m103.77 256.33 7 12.12H96.78zm127.04-114.26 6.99 12.12h-13.99z" style="stroke-width:0.71;stroke:none;fill:#00BFC4"/><circle cx="167.29" cy="207.28" r="6.76" style="stroke-width:0.71;stroke:none;fill:#F8766D"/><circle cx="40.26" cy="321.54" r="1.42" style="stroke-width:0.71;stroke:none;fill:#F8766D"/><path d="m98.45 269.03 4.45-3.86m122.77-110.36 4.28-3.89m-67.96 60.96 4.42-3.84M45.1 317.74l-3.92 3.08" style="stroke-width:0.53;stroke:#BFBFBF"/><path d="M50.46 288.35h72.07l-.09-.01.35-.01.34-.07.32-.12.3-.18.27-.22.23-.26.19-.29.14-.32.08-.34.03-.34h0v-15h0l-.03-.34-.08-.34-.14-.32-.19-.29-.23-.26-.27-.22-.3-.18-.32-.12-.34-.07-.26-.02H50.46l.26.02-.35-.01-.34.04-.34.09-.31.15-.29.2-.25.24-.21.28-.16.31-.11.33-.05.34-.01.17v15l.01-.18v.35l.05.34.11.33.16.31.21.28.25.24.29.2.31.14.34.1.34.04z" style="stroke-width:0.53;fill:#FFFFFF;fill-opacity:0.50"/><text x="86.49" y="276.55" lengthAdjust="spacingAndGlyphs" style="font-size:5.69px;font-family:&quot;Liberation Sans&quot;" text-anchor="middle" textLength="69.19">BIG CAT MANAGEMENT 3</text><text x="86.49" y="284.75" lengthAdjust="spacingAndGlyphs" style="font-size:5.69px;font-family:&quot;Liberation Sans&quot;" text-anchor="middle" textLength="10.42">LLC</text><path d="M188.71 165.93h59.46l-.09-.01.35-.01.34-.07.32-.12.3-.18.27-.22.23-.26.19-.29.13-.32.09-.34.03-.34h0v-6.8h0l-.03-.35-.09-.33-.13-.32-.19-.3-.23-.26-.27-.22-.3-.17-.32-.13-.34-.07-.26-.01h-59.46l.26.01-.35-.01-.34.04-.34.1-.31.15-.29.2-.25.24-.21.27-.16.31-.11.33-.06.35v6.97-.18.35l.06.34.11.33.16.31.21.28.25.24.29.2.31.15.34.09.34.04z" style="stroke-width:0.53;fill:#FFFFFF;fill-opacity:0.50"/><text x="218.44" y="162.33" lengthAdjust="spacingAndGlyphs" style="font-size:5.69px;font-family:&quot;Liberation Sans&quot;" text-anchor="middle" textLength="56.58">NADU HOKULEA LLC</text><path d="M119.85 231.19h60.37-.09l.35-.02.34-.06.32-.13.3-.17.27-.22.23-.26.19-.3.13-.32.09-.33.03-.35h0v-14.99h0l-.03-.35-.09-.33-.13-.32-.19-.3-.23-.26-.27-.22-.3-.17-.32-.13-.34-.06-.26-.02h-60.37l.26.02-.35-.02-.34.04-.33.1-.32.15-.28.2-.26.24-.2.27-.17.31-.11.33-.05.35-.01.17v14.99l.01-.17v.34l.05.35.11.33.17.3.2.28.26.24.28.2.32.15.33.1.34.04z" style="stroke-width:0.53;fill:#FFFFFF;fill-opacity:0.50"/><text x="150.03" y="219.4" lengthAdjust="spacingAndGlyphs" style="font-size:5.69px;font-family:&quot;Liberation Sans&quot;" text-anchor="middle" textLength="56.45">401 RYLAND ST, STE</text><text x="150.03" y="227.59" lengthAdjust="spacingAndGlyphs" style="font-size:5.69px;font-family:&quot;Liberation Sans&quot;" text-anchor="middle" textLength="57.48">200, RENO, NV 89502</text><path d="M47.26 323.07h61.01-.09l.35-.01.34-.07.32-.13.3-.17.27-.22.23-.26.19-.29.14-.32.08-.34.03-.35h0v-23.18h0l-.03-.35-.08-.34-.14-.32-.19-.29-.23-.26-.27-.22-.3-.17-.32-.13-.34-.07-.26-.01H47.26l.26.01-.35-.01-.34.04-.33.1-.32.15-.28.19-.26.25-.2.27-.17.31-.11.33-.05.34-.01.18v23.18l.01-.17v.35l.05.34.11.33.17.31.2.28.26.24.28.19.32.15.33.1.34.04z" style="stroke-width:0.53;fill:#FFFFFF;fill-opacity:0.50"/><text x="77.76" y="303.08" lengthAdjust="spacingAndGlyphs" style="font-size:5.69px;font-family:&quot;Liberation Sans&quot;" text-anchor="middle" textLength="58.12">2377 GOLD MEADOW</text><text x="77.76" y="311.28" lengthAdjust="spacingAndGlyphs" style="font-size:5.69px;font-family:&quot;Liberation Sans&quot;" text-anchor="middle" textLength="56.12">WAY, STE 225, GOLD</text><text x="77.76" y="319.47" lengthAdjust="spacingAndGlyphs" style="font-size:5.69px;font-family:&quot;Liberation Sans&quot;" text-anchor="middle" textLength="45.5">RIVER, CA 95670</text></g><g clip-path="url(#cpMC4wMHwyODguMDB8MC4wMHwzNjAuMDA=)"><circle cx="83.2" cy="116.5" r="1.95" style="stroke-width:0.71;stroke:none;fill:#F8766D"/><path d="m159.6 113.46 2.63 4.56h-5.26z" style="stroke-width:0.71;stroke:none;fill:#00BFC4"/><text x="97.32" y="119.66" lengthAdjust="spacingAndGlyphs" style="font-size:8.80px;font-weight:0;font-family:&quot;Nimbus Sans Narrow&quot;" textLength="48.16">mprop address</text><text x="173.72" y="119.66" lengthAdjust="spacingAndGlyphs" style="font-size:8.80px;font-weight:0;font-family:&quot;Nimbus Sans Narrow&quot;" textLength="39.72">owner name</text><text x="29.89" y="84.79" lengthAdjust="spacingAndGlyphs" style="font-size:12.00px;font-weight:0;font-family:&quot;Nimbus Sans Narrow&quot;" textLength="241.17">includes 4 parcels, 8 units, and 2 distinct owner names.</text><text x="29.89" y="42.81" lengthAdjust="spacingAndGlyphs" style="font-size:18.00px;font-weight:0;font-family:&quot;Nimbus Sans Narrow&quot;" textLength="231.23">BIG CAT MANAGEMENT 3 LLC --</text><text x="29.89" y="62.25" lengthAdjust="spacingAndGlyphs" style="font-size:18.00px;font-weight:0;font-family:&quot;Nimbus Sans Narrow&quot;" textLength="200.88">NADU HOKULEA LLC Group</text></g></g></svg>