<svg xmlns="http://www.w3.org/2000/svg" width="576" height="672" class="svglite" viewBox="0 0 432 504"><defs><style><![CDATA[.svglite line,.svglite polyline,.svglite polygon,.svglite path,.svglite circle{fill:none;stroke:#000000;stroke-linecap:round;stroke-linejoin:round;stroke-miterlimit:10.00}]]></style></defs><rect width="100%" height="100%" style="stroke-linecap:round;stroke-linejoin:round;stroke-miterlimit:10.00;stroke:none;fill:#FFFFFF"/><defs><clipPath id="cpMC4wMHw0MzIuMDB8MC4wMHw1MDQuMDA="><path d="M0 0h432v504H0z"/></clipPath></defs><g clip-path="url(#cpMC4wMHw0MzIuMDB8MC4wMHw1MDQuMDA=)"><path d="M0 0h432v504H0z" style="stroke-width:1.07;stroke:none;fill:#FFFFFF"/></g><defs><clipPath id="cpMzIuNjN8NDAyLjExfDE0MS4yMnw0NzEuMzc="><path d="M32.63 141.22h369.48v330.15H32.63z"/></clipPath></defs><g clip-path="url(#cpMzIuNjN8NDAyLjExfDE0MS4yMnw0NzEuMzc=)"><path d="m385.32 394.23-1.29-1.36-1.28-1.35-1.29-1.36-1.28-1.35-1.29-1.35-1.28-1.36-1.29-1.35-1.29-1.35-1.28-1.34-1.29-1.35-1.29-1.35-1.29-1.34-1.29-1.35-1.29-1.34-1.29-1.34-1.29-1.34-1.29-1.34-1.29-1.34-1.29-1.34-1.29-1.33-1.3-1.34-1.29-1.33-1.29-1.34-1.3-1.33-1.29-1.33-1.3-1.33-1.29-1.33-1.3-1.32-1.29-1.33-1.3-1.33-1.3-1.32-1.3-1.32-1.29-1.33-1.3-1.32-1.3-1.32-1.3-1.31-1.3-1.32-1.3-1.32-1.3-1.31-1.3-1.32-1.3-1.31-1.3-1.31-1.31-1.31-1.3-1.31-1.3-1.31-1.31-1.31-1.3-1.31-1.3-1.3-1.31-1.31-1.31-1.3-1.3-1.3-1.31-1.3-1.3-1.3-1.31-1.3-1.31-1.3-1.31-1.3-1.3-1.29-1.31-1.3-1.31-1.29-1.31-1.29-1.31-1.29-1.31-1.29-1.31-1.29-1.32-1.29-1.31-1.29-1.31-1.28-1.31-1.29-1.32-1.28-1.31-1.28-1.31-1.28-1.32-1.28-1.31-1.28-1.32-1.28-1.31-1.28-1.32-1.27-1.32-1.28-1.32-1.27-1.31-1.28-1.32-1.27-1.32-1.27-1.32-1.27-1.32-1.26-1.32-1.27-1.32-1.27-1.32-1.26-1.32-1.27-1.32-1.26-1.32-1.26-1.33-1.26-1.32-1.26-1.32-1.26-1.33-1.25-1.32-1.26-1.32-1.26-1.33-1.25-1.32-1.25-1.33-1.25-1.33-1.25-1.32-1.25m129.23 129.02-1.02-.11-1.01-.11-1.02-.1-1.01-.11-1.02-.1-1.01-.11-1.02-.1-1.01-.1-1.02-.11-1.01-.1-1.02-.1-1.01-.1-1.02-.09-1.01-.1-1.02-.1-1.01-.09-1.02-.1-1.01-.09-1.02-.1-1.01-.09-1.02-.09-1.01-.09-1.02-.09-1.01-.09-1.02-.09-1.02-.09-1.01-.08-1.02-.09-1.01-.08-1.02-.09-1.01-.08-1.02-.08-1.01-.08-1.02-.08-1.02-.08-1.01-.08-1.02-.08-1.01-.07-1.02-.08-1.01-.08-1.02-.07-1.02-.07-1.01-.08-1.02-.07-1.01-.07-1.02-.07-1.01-.07-1.02-.07-1.02-.06-1.01-.07-1.02-.07-1.01-.06-1.02-.07-1.02-.06-1.01-.06-1.02-.06-1.01-.06-1.02-.06-1.02-.06-1.01-.06-1.02-.06-1.01-.05-1.02-.06-1.02-.05-1.01-.06-1.02-.05-1.02-.05-1.01-.05-1.02-.06-1.02-.04-1.01-.05-1.02-.05-1.01-.05-1.02-.04-1.02-.05-1.01-.04-1.02-.05-1.02-.04-1.01-.04-1.02-.04-1.02-.04-1.01-.04-1.02-.04-1.02-.04-1.01-.03-1.02-.04-1.02-.04-1.01-.03-1.02-.03-1.02-.04-1.01-.03-1.02-.03-1.02-.03-1.02-.03-1.01-.02-1.02-.03-1.02-.03-1.01-.02-1.02-.03" style="stroke-width:1.07;stroke:#000000;stroke-opacity:0.10;stroke-linecap:butt"/><path d="m385.32 394.23-1.33-1.25-1.33-1.25-1.32-1.25-1.33-1.25-1.32-1.26-1.33-1.25-1.32-1.26-1.32-1.26-1.33-1.25-1.32-1.26-1.32-1.26-1.33-1.26-1.32-1.27-1.32-1.26-1.32-1.27-1.32-1.26-1.32-1.27-1.32-1.27-1.32-1.27-1.32-1.27-1.31-1.27-1.32-1.27-1.32-1.27-1.31-1.28-1.32-1.27-1.32-1.28-1.31-1.28-1.32-1.28-1.31-1.28-1.32-1.28-1.31-1.28-1.31-1.29-1.32-1.28-1.31-1.29-1.31-1.28-1.31-1.29-1.31-1.29-1.31-1.29-1.31-1.29-1.31-1.29-1.31-1.3-1.31-1.29-1.31-1.3-1.31-1.29-1.3-1.3-1.31-1.3-1.31-1.3-1.3-1.3-1.31-1.3-1.31-1.31-1.3-1.3-1.31-1.31-1.3-1.3-1.3-1.31-1.31-1.31-1.3-1.31-1.3-1.31-1.3-1.31-1.3-1.31-1.31-1.32-1.3-1.31-1.3-1.32-1.3-1.32-1.3-1.32-1.29-1.32-1.3-1.32-1.3-1.32-1.3-1.32-1.29-1.33-1.3-1.32-1.3-1.33-1.29-1.33-1.3-1.32-1.29-1.33-1.3-1.33-1.29-1.34-1.3-1.33-1.29-1.33-1.29-1.34-1.29-1.33-1.3-1.34-1.29-1.34-1.29-1.34-1.29-1.34-1.29-1.34-1.29-1.35-1.29-1.34-1.29-1.34-1.28-1.35-1.29-1.35-1.29-1.35-1.29-1.35-1.28-1.35-1.29-1.35-1.28-1.35-1.29-1.35-1.28-1.36-1.29-1.36-1.28-1.35m129.23 129.02-1.02-.02-1.02-.03-1.01-.03-1.02-.02-1.02-.03-1.01-.03-1.02-.03-1.02-.03-1.02-.03-1.01-.04-1.02-.03-1.02-.03-1.01-.04-1.02-.03-1.02-.04-1.01-.04-1.02-.04-1.02-.04-1.01-.04-1.02-.04-1.02-.04-1.01-.04-1.02-.04-1.02-.05-1.01-.04-1.02-.05-1.01-.05-1.02-.05-1.02-.04-1.01-.05-1.02-.05-1.02-.05-1.01-.06-1.02-.05-1.02-.05-1.01-.06-1.02-.05-1.01-.06-1.02-.06-1.02-.06-1.01-.05-1.02-.06-1.01-.07-1.02-.06-1.02-.06-1.01-.06-1.02-.07-1.01-.06-1.02-.07-1.02-.06-1.01-.07-1.02-.07-1.01-.07-1.02-.07-1.02-.07-1.01-.07-1.02-.07-1.01-.08-1.02-.07-1.01-.08-1.02-.07-1.02-.08-1.01-.08-1.02-.08-1.01-.08-1.02-.08-1.01-.08-1.02-.08-1.02-.08-1.01-.09-1.02-.08-1.01-.09-1.02-.08-1.01-.09-1.02-.09-1.01-.09-1.02-.09-1.01-.09-1.02-.09-1.01-.09-1.02-.09-1.01-.1-1.02-.09-1.02-.1-1.01-.1-1.02-.09-1.01-.1-1.02-.1-1.01-.1-1.02-.1-1.01-.1-1.02-.11-1.01-.1-1.02-.1-1.01-.11-1.02-.11-1.01-.1-1.02-.11-1.01-.11m44.87-231.4-.81.98-.81.98-.82.98-.81.99-.81.99-.8.99-.81.99-.8 1-.81.99-.8 1-.8 1.01-.8 1-.8 1.01-.79 1.01-.8 1.02-.79 1.01-.79 1.02-.79 1.02-.79 1.02-.79 1.03-.78 1.03-.79 1.03-.78 1.03-.78 1.04-.78 1.03-.78 1.05-.77 1.04-.78 1.04-.77 1.05-.78 1.05-.77 1.06-.77 1.05-.76 1.06-.77 1.06-.76 1.06-.77 1.07-.76 1.07-.76 1.07-.76 1.07-.76 1.08-.75 1.08-.76 1.08-.75 1.08-.75 1.09-.75 1.08-.75 1.09-.75 1.1-.74 1.09-.75 1.1-.74 1.1-.74 1.11-.74 1.1-.74 1.11-.74 1.11-.73 1.11-.74 1.12-.73 1.12-.73 1.12-.73 1.12-.73 1.13-.72 1.13-.73 1.13-.72 1.13-.72 1.14-.72 1.13-.72 1.15-.72 1.14-.72 1.14-.71 1.15-.71 1.15-.72 1.16-.71 1.15-.7 1.16-.71 1.16-.71 1.17-.7 1.16-.7 1.17-.71 1.17-.7 1.17-.69 1.18-.7 1.18-.7 1.18-.69 1.18-.69 1.19-.69 1.19-.69 1.19-.69 1.19-.69 1.2-.68 1.2-.69 1.2-.68 1.2-.68 1.21-.68 1.2-.68 1.21-.67 1.22-.68 1.21-.67 1.22-.67 1.22-.67 1.23" style="stroke-width:1.07;stroke:#000000;stroke-opacity:0.10;stroke-linecap:butt"/><path d="m329.61 156.23-.6 2.26-.61 2.27-.6 2.26-.59 2.27-.6 2.27-.59 2.27-.59 2.27-.58 2.27-.59 2.28-.57 2.27-.58 2.28-.57 2.28-.57 2.28-.57 2.29-.56 2.28-.56 2.28-.56 2.29-.55 2.29-.55 2.29-.55 2.29-.54 2.29-.54 2.3-.54 2.3-.54 2.29-.53 2.3-.53 2.3-.52 2.31-.52 2.3-.52 2.3-.52 2.31-.51 2.31-.51 2.31-.51 2.31-.5 2.31-.5 2.32-.5 2.31-.49 2.32-.49 2.32-.49 2.32-.49 2.32-.48 2.33-.48 2.32-.47 2.33-.47 2.33-.47 2.33-.47 2.33-.46 2.33-.46 2.34-.46 2.33-.45 2.34-.45 2.34-.45 2.34-.44 2.34-.44 2.34-.44 2.35-.43 2.34-.44 2.35-.42 2.35-.43 2.35-.42 2.36-.42 2.35-.42 2.36-.41 2.35-.41 2.36-.4 2.36-.41 2.36-.4 2.37-.39 2.36-.4 2.37-.39 2.37-.39 2.37-.38 2.37-.38 2.37-.38 2.37-.37 2.38-.38 2.38-.36 2.37-.37 2.39-.36 2.38-.36 2.38-.36 2.38-.35 2.39-.35 2.39-.35 2.39-.34 2.39-.34 2.39-.34 2.4-.33 2.39-.33 2.4-.33 2.4-.33 2.4-.32 2.4-.32 2.4-.31 2.41-.31 2.4-.31 2.41-.31 2.41-.3 2.41-.3 2.41m-122.55 2.43 1.11-.95 1.11-.95 1.11-.96 1.1-.97 1.1-.97 1.1-.98 1.09-.99 1.1-.99 1.08-1 1.09-1.01 1.08-1.01 1.07-1.02 1.08-1.02 1.07-1.03 1.06-1.04 1.07-1.04 1.06-1.05 1.06-1.06 1.05-1.06 1.05-1.07 1.05-1.08 1.04-1.08 1.04-1.09 1.04-1.09 1.03-1.1 1.03-1.11 1.02-1.12 1.03-1.12 1.02-1.12 1.01-1.14 1.02-1.14 1.01-1.14 1-1.16 1-1.15 1-1.17 1-1.17.99-1.18.99-1.18.99-1.19.98-1.2.98-1.2.97-1.21.98-1.22.96-1.22.97-1.23.96-1.24.96-1.24.96-1.25.95-1.25.95-1.26.94-1.27.94-1.28.94-1.28.94-1.28.93-1.3.93-1.3.92-1.3.92-1.31.92-1.32.91-1.33.92-1.33.9-1.34.91-1.34.9-1.35.9-1.36.89-1.36.89-1.37.89-1.38.88-1.38.89-1.39.87-1.4.88-1.4.87-1.41.86-1.41.87-1.42.86-1.43.86-1.43.85-1.44.85-1.45.85-1.45.84-1.46.84-1.47.84-1.47.83-1.48.83-1.48.83-1.49.82-1.5.82-1.51.82-1.51.81-1.51.81-1.53.81-1.53.8-1.53.8-1.54.8-1.55.79-1.56.79-1.56.78-1.57.79-1.57" style="stroke-width:1.07;stroke:#000000;stroke-opacity:0.10;stroke-linecap:butt"/><path d="m162.19 390.06 1.24.54 1.24.52 1.24.52 1.24.5 1.25.49 1.24.48 1.24.47 1.24.46 1.24.45 1.25.43 1.24.42 1.24.41 1.24.4 1.24.39 1.24.38 1.24.37 1.24.35 1.24.34 1.24.33 1.25.32 1.24.31 1.24.3 1.24.28 1.24.28 1.24.26 1.24.25 1.24.24 1.24.23 1.24.21 1.24.21 1.24.19 1.24.18 1.24.18 1.23.15 1.24.15 1.24.14 1.24.12 1.24.12 1.24.1 1.24.09 1.24.08 1.24.06 1.24.06 1.23.04 1.24.04 1.24.02 1.24.01h1.24l1.23-.02 1.24-.02 1.24-.04 1.24-.04 1.24-.06 1.23-.07 1.24-.09 1.24-.09 1.24-.1 1.23-.12 1.24-.13 1.24-.14 1.23-.15 1.24-.16 1.24-.17 1.23-.19 1.24-.2 1.24-.2 1.23-.22 1.24-.23 1.24-.25 1.23-.25 1.24-.27 1.23-.27 1.24-.29 1.24-.3 1.23-.31 1.24-.33 1.23-.33 1.24-.35 1.23-.35 1.24-.37 1.23-.38 1.24-.39 1.23-.41 1.24-.41 1.23-.43 1.24-.44 1.23-.44 1.24-.47 1.23-.47 1.24-.48 1.23-.5 1.23-.5 1.24-.52 1.23-.53 1.24-.54 1.23-.55 1.23-.57 1.24-.57 1.23-.59m44.87-231.4-.77 1.04-.78 1.04-.78 1.04-.78 1.05-.77 1.04-.78 1.05-.77 1.04-.78 1.05-.77 1.05-.77 1.05-.77 1.05-.77 1.06-.77 1.05-.77 1.06-.77 1.05-.77 1.06-.77 1.06-.76 1.06-.77 1.06-.76 1.07-.77 1.06-.76 1.07-.76 1.06-.77 1.07-.76 1.07-.76 1.07-.76 1.08-.76 1.07-.75 1.07-.76 1.08-.76 1.08-.75 1.07-.76 1.08-.75 1.08-.76 1.09-.75 1.08-.75 1.08-.75 1.09-.76 1.09-.75 1.08-.74 1.09-.75 1.09-.75 1.1-.75 1.09-.74 1.09-.75 1.1-.75 1.1-.74 1.1-.74 1.1-.75 1.1-.74 1.1-.74 1.1-.74 1.11-.74 1.1-.74 1.11-.74 1.11-.73 1.11-.74 1.11-.74 1.11-.73 1.11-.74 1.12-.73 1.11-.73 1.12-.74 1.12-.73 1.12-.73 1.12-.73 1.12-.73 1.12-.73 1.13-.72 1.12-.73 1.13-.73 1.13-.72 1.13-.73 1.13-.72 1.13-.73 1.14-.72 1.13-.72 1.14-.72 1.13-.72 1.14-.72 1.14-.72 1.14-.72 1.14-.72 1.15-.71 1.14-.72 1.15-.72 1.14-.71 1.15-.71 1.15-.72 1.15-.71 1.16-.71 1.15-.71 1.15-.71 1.16-.71 1.16-.71 1.15-.71 1.16-.71 1.16-.7 1.17" style="stroke-width:1.07;stroke:#000000;stroke-opacity:0.10;stroke-linecap:butt"/><path d="m329.61 156.23-.53 2.3-.52 2.3-.53 2.3-.53 2.31-.52 2.3-.52 2.3-.52 2.31-.52 2.3-.52 2.31-.52 2.3-.51 2.31-.51 2.31-.51 2.31-.51 2.31-.51 2.31-.51 2.31-.5 2.31-.51 2.32-.5 2.31-.5 2.32-.5 2.31-.5 2.32-.49 2.31-.5 2.32-.49 2.32-.49 2.32-.49 2.32-.49 2.32-.48 2.32-.49 2.32-.48 2.32-.48 2.33-.48 2.32-.48 2.33-.48 2.32-.47 2.33-.48 2.33-.47 2.33-.47 2.32-.47 2.33-.46 2.34-.47 2.33-.46 2.33-.47 2.33-.46 2.33-.46 2.34-.46 2.33-.45 2.34-.46 2.34-.45 2.33-.45 2.34-.45 2.34-.45 2.34-.45 2.34-.44 2.34-.45 2.34-.44 2.35-.44 2.34-.44 2.34-.44 2.35-.43 2.35-.44 2.34-.43 2.35-.43 2.35-.43 2.35-.43 2.35-.43 2.35-.42 2.35-.42 2.35-.43 2.35-.42 2.36-.42 2.35-.41 2.35-.42 2.36-.41 2.36-.42 2.35-.41 2.36-.41 2.36-.4 2.36-.41 2.36-.4 2.36-.41 2.36-.4 2.37-.4 2.36-.4 2.36-.39 2.37-.4 2.36-.39 2.37-.4 2.37-.39 2.37-.38 2.36-.39 2.37-.39 2.37-.38 2.37-.39 2.38-.38 2.37-.38 2.37-.37 2.38-.38 2.37m-122.55 2.43 1.07-1.03 1.07-1.03 1.07-1.03 1.06-1.04 1.06-1.05 1.06-1.05 1.06-1.05 1.06-1.06 1.05-1.07 1.05-1.07 1.05-1.07 1.04-1.08 1.04-1.09 1.04-1.08 1.04-1.1 1.04-1.1 1.03-1.1 1.03-1.11 1.03-1.11 1.02-1.12 1.02-1.12 1.02-1.12 1.02-1.14 1.01-1.13 1.02-1.14 1.01-1.15 1-1.15 1.01-1.16 1-1.16 1-1.16.99-1.17 1-1.18.99-1.18.99-1.18.99-1.19.98-1.19.98-1.2.98-1.21.98-1.2.97-1.22.97-1.22.97-1.22.97-1.23.96-1.23.96-1.24.96-1.24.96-1.24.95-1.26.95-1.25.95-1.26.95-1.27.94-1.27.94-1.28.94-1.28.93-1.28.94-1.29.93-1.3.93-1.29.92-1.31.92-1.31.93-1.31.91-1.32.92-1.32.91-1.33.91-1.34.91-1.33.91-1.35.9-1.34.9-1.36.9-1.35.89-1.36.89-1.37.89-1.37.89-1.38.89-1.38.88-1.39.88-1.39.88-1.39.87-1.4.87-1.41.87-1.41.87-1.41.87-1.42.86-1.42.86-1.43.85-1.44.86-1.44.85-1.44.85-1.45.85-1.45.84-1.46.84-1.46.84-1.47.84-1.47.83-1.48.84-1.48.83-1.49.82-1.49.83-1.49" style="stroke-width:1.07;stroke:#000000;stroke-opacity:0.10;stroke-linecap:butt"/><path d="m162.19 390.06 1.24.43 1.24.43 1.24.42 1.24.4 1.24.4 1.24.39 1.24.38 1.25.37 1.24.36 1.24.35 1.24.34 1.24.34 1.24.32 1.24.31 1.24.31 1.24.29 1.24.29 1.24.27 1.24.27 1.24.26 1.24.24 1.24.24 1.24.23 1.24.22 1.24.21 1.24.2 1.24.19 1.24.18 1.24.18 1.24.16 1.24.15 1.24.15 1.24.13 1.24.13 1.24.12 1.23.1 1.24.1 1.24.09 1.24.08 1.24.07 1.24.06 1.24.05 1.24.04 1.23.03 1.24.02 1.24.02h1.24l1.24-.01 1.23-.01 1.24-.03 1.24-.03 1.24-.04 1.24-.06 1.23-.06 1.24-.07 1.24-.08 1.24-.09 1.23-.1 1.24-.11 1.24-.12 1.23-.13 1.24-.13 1.24-.15 1.24-.16 1.23-.16 1.24-.18 1.24-.18 1.23-.19 1.24-.21 1.24-.21 1.23-.22 1.24-.23 1.23-.24 1.24-.25 1.24-.26 1.23-.27 1.24-.28 1.23-.28 1.24-.3 1.24-.31 1.23-.31 1.24-.33 1.23-.33 1.24-.35 1.23-.35 1.24-.36 1.23-.37 1.24-.39 1.23-.39 1.24-.4 1.23-.41 1.24-.41 1.23-.43 1.24-.44 1.23-.45 1.24-.45 1.23-.47 1.24-.47 1.23-.49m44.87-231.4-.74 1.1-.74 1.1-.74 1.1-.75 1.1-.74 1.1-.74 1.11-.74 1.1-.75 1.1-.74 1.1-.74 1.1-.75 1.1-.74 1.1-.74 1.1-.74 1.1-.75 1.1-.74 1.1-.74 1.1-.74 1.1-.75 1.11-.74 1.1-.74 1.1-.75 1.1-.74 1.1-.74 1.1-.74 1.1-.75 1.1-.74 1.1-.74 1.1-.74 1.1-.75 1.1-.74 1.1-.74 1.11-.74 1.1-.75 1.1-.74 1.1-.74 1.1-.75 1.1-.74 1.1-.74 1.1-.74 1.1-.75 1.1-.74 1.1-.74 1.1-.74 1.1-.75 1.11-.74 1.1-.74 1.1-.75 1.1-.74 1.1-.74 1.1-.74 1.1-.75 1.1-.74 1.1-.74 1.1-.74 1.1-.75 1.1-.74 1.1-.74 1.11-.75 1.1-.74 1.1-.74 1.1-.74 1.1-.75 1.1-.74 1.1-.74 1.1-.74 1.1-.75 1.1-.74 1.1-.74 1.1-.74 1.1-.75 1.11-.74 1.1-.74 1.1-.75 1.1-.74 1.1-.74 1.1-.74 1.1-.75 1.1-.74 1.1-.74 1.1-.74 1.1-.75 1.1-.74 1.1-.74 1.11-.75 1.1-.74 1.1-.74 1.1-.74 1.1-.75 1.1-.74 1.1-.74 1.1-.74 1.1-.75 1.1-.74 1.1-.74 1.1-.75 1.1-.74 1.11-.74 1.1-.74 1.1m73.52-108.98-.45 2.34-.45 2.34-.46 2.33-.45 2.34-.45 2.34-.46 2.34-.45 2.33-.45 2.34-.46 2.34-.45 2.33-.45 2.34-.46 2.34-.45 2.34-.45 2.33-.45 2.34-.46 2.34-.45 2.34-.45 2.33-.46 2.34-.45 2.34-.45 2.34-.46 2.33-.45 2.34-.45 2.34-.46 2.34-.45 2.33-.45 2.34-.46 2.34-.45 2.33-.45 2.34-.46 2.34-.45 2.34-.45 2.33-.46 2.34-.45 2.34-.45 2.34-.46 2.33-.45 2.34-.45 2.34-.46 2.34-.45 2.33-.45 2.34-.46 2.34-.45 2.34-.45 2.33-.46 2.34-.45 2.34-.45 2.34-.46 2.33-.45 2.34-.45 2.34-.46 2.33-.45 2.34-.45 2.34-.46 2.34-.45 2.33-.45 2.34-.46 2.34-.45 2.34-.45 2.33-.46 2.34-.45 2.34-.45 2.34-.46 2.33-.45 2.34-.45 2.34-.46 2.34-.45 2.33-.45 2.34-.46 2.34-.45 2.33-.45 2.34-.46 2.34-.45 2.34-.45 2.33-.45 2.34-.46 2.34-.45 2.34-.45 2.33-.46 2.34-.45 2.34-.45 2.34-.46 2.33-.45 2.34-.45 2.34-.46 2.34-.45 2.33-.45 2.34-.46 2.34-.45 2.33-.45 2.34-.46 2.34-.45 2.34-.45 2.33-.46 2.34-.45 2.34-.45 2.34-.46 2.33-.45 2.34" style="stroke-width:1.07;stroke:#000000;stroke-opacity:0.10;stroke-linecap:butt"/><path d="m329.61 156.23-.7 1.16-.71 1.16-.71 1.16-.71 1.16-.71 1.16-.71 1.15-.71 1.16-.71 1.15-.71 1.15-.71 1.16-.72 1.15-.71 1.14-.72 1.15-.71 1.15-.72 1.14-.72 1.14-.72 1.15-.72 1.14-.72 1.14-.72 1.14-.72 1.13-.72 1.14-.72 1.13-.73 1.14-.72 1.13-.73 1.13-.72 1.13-.73 1.13-.72 1.12-.73 1.13-.73 1.12-.73 1.13-.73 1.12-.73 1.12-.73 1.12-.74 1.12-.73 1.12-.73 1.11-.74 1.12-.73 1.11-.74 1.11-.74 1.11-.73 1.11-.74 1.11-.74 1.11-.74 1.1-.74 1.11-.74 1.1-.74 1.1-.75 1.1-.74 1.1-.74 1.1-.75 1.1-.74 1.09-.75 1.1-.75 1.09-.75 1.09-.74 1.09-.75 1.09-.75 1.09-.75 1.09-.76 1.08-.75 1.09-.75 1.08-.76 1.08-.75 1.08-.76 1.08-.75 1.08-.76 1.08-.76 1.08-.75 1.07-.76 1.07-.76 1.07-.76 1.08-.76 1.07-.77 1.06-.76 1.07-.76 1.07-.77 1.06-.76 1.06-.77 1.07-.76 1.06-.77 1.06-.77 1.05-.77 1.06-.77 1.06-.77 1.05-.77 1.05-.77 1.06-.77 1.05-.77 1.05-.78 1.04-.77 1.05-.78 1.05-.77 1.04-.78 1.04-.78 1.05-.77 1.04-.78 1.04m73.52-108.98-.37 2.38-.38 2.37-.38 2.37-.38 2.38-.38 2.37-.39 2.37-.38 2.37-.39 2.37-.39 2.37-.39 2.36-.39 2.37-.4 2.37-.39 2.36-.4 2.37-.4 2.36-.4 2.37-.4 2.36-.4 2.36-.41 2.36-.4 2.36-.41 2.36-.41 2.36-.41 2.36-.41 2.36-.42 2.35-.41 2.36-.42 2.35-.42 2.36-.42 2.35-.42 2.35-.42 2.35-.43 2.36-.43 2.35-.42 2.35-.43 2.34-.44 2.35-.43 2.35-.43 2.35-.44 2.34-.44 2.35-.44 2.34-.44 2.35-.44 2.34-.44 2.34-.45 2.34-.45 2.34-.44 2.34-.45 2.34-.46 2.34-.45 2.34-.45 2.33-.46 2.34-.46 2.33-.46 2.34-.46 2.33-.46 2.33-.47 2.34-.46 2.33-.47 2.33-.47 2.33-.47 2.33-.47 2.32-.47 2.33-.48 2.33-.48 2.32-.47 2.33-.48 2.32-.49 2.33-.48 2.32-.48 2.32-.49 2.32-.49 2.32-.49 2.32-.49 2.32-.49 2.32-.49 2.32-.5 2.32-.5 2.31-.5 2.32-.5 2.31-.5 2.32-.5 2.31-.51 2.31-.5 2.31-.51 2.31-.51 2.31-.51 2.31-.52 2.31-.51 2.31-.52 2.3-.51 2.31-.52 2.31-.52 2.3-.53 2.3-.52 2.31-.52 2.3-.53 2.3-.53 2.3-.53 2.3" style="stroke-width:1.07;stroke:#000000;stroke-opacity:0.10;stroke-linecap:butt"/><path d="m329.61 156.23-.67 1.22-.67 1.23-.67 1.21-.68 1.22-.67 1.21-.68 1.21-.68 1.21-.68 1.21-.68 1.2-.69 1.2-.68 1.2-.69 1.2-.69 1.19-.68 1.19-.7 1.19-.69 1.19-.69 1.18-.7 1.18-.69 1.18-.7 1.17-.7 1.18-.7 1.17-.71 1.17-.7 1.16-.71 1.17-.7 1.16-.71 1.16-.71 1.15-.72 1.15-.71 1.16-.71 1.14-.72 1.15-.72 1.14-.72 1.14-.72 1.14-.72 1.14-.72 1.13-.73 1.13-.72 1.13-.73 1.13-.73 1.12-.73 1.12-.73 1.12-.74 1.11-.73 1.12-.74 1.11-.74 1.11-.74 1.1-.74 1.11-.74 1.1-.75 1.09-.74 1.1-.75 1.09-.75 1.09-.75 1.09-.75 1.09-.75 1.08-.76 1.08-.75 1.08-.76 1.08-.76 1.07-.76 1.07-.76 1.07-.76 1.06-.77 1.07-.77 1.06-.76 1.06-.77 1.05-.77 1.05-.78 1.06-.77 1.04-.77 1.05-.78 1.04-.78 1.04-.78 1.04-.78 1.04-.78 1.03-.79 1.03-.78 1.03-.79 1.02-.79 1.03-.79 1.02-.79 1.02-.79 1.01-.8 1.02-.79 1.01-.8 1-.8 1.01-.8 1-.8 1-.8 1-.81 1-.81.99-.8.99-.81.99-.81.99-.81.98-.82.98-.81.98m73.52-108.98-.3 2.41-.3 2.41-.3 2.41-.31 2.41-.32 2.41-.31 2.4-.32 2.4-.32 2.41-.33 2.4-.32 2.39-.33 2.4-.34 2.4-.34 2.39-.34 2.39-.34 2.39-.35 2.39-.35 2.39-.35 2.39-.35 2.38-.36 2.39-.37 2.38-.36 2.38-.37 2.38-.37 2.37-.38 2.38-.38 2.37-.38 2.38-.38 2.37-.39 2.37-.39 2.36-.39 2.37-.4 2.36-.4 2.37-.4 2.36-.41 2.36-.41 2.36-.41 2.36-.42 2.35-.41 2.36-.43 2.35-.42 2.35-.43 2.35-.43 2.35-.44 2.34-.43 2.35-.44 2.34-.45 2.34-.44 2.35-.45 2.33-.46 2.34-.45 2.34-.46 2.33-.47 2.33-.46 2.34-.47 2.33-.47 2.32-.48 2.33-.48 2.33-.48 2.32-.48 2.32-.49 2.32-.49 2.32-.5 2.32-.49 2.31-.5 2.32-.51 2.31-.5 2.31-.51 2.31-.52 2.31-.51 2.31-.52 2.3-.52 2.31-.53 2.3-.53 2.3-.53 2.3-.53 2.3-.54 2.29-.54 2.3-.55 2.29-.54 2.29-.56 2.29-.55 2.29-.56 2.29-.56 2.28-.56 2.29-.56 2.28-.57 2.28-.58 2.28-.57 2.28-.58 2.27-.58 2.28-.59 2.27-.59 2.27-.59 2.27-.59 2.27-.6 2.27-.6 2.26-.6 2.27-.61 2.26m-122.55 2.43 1.03-1.11 1.03-1.1 1.02-1.11 1.03-1.12 1.03-1.12 1.02-1.12 1.02-1.12 1.02-1.13 1.02-1.13 1.01-1.13 1.02-1.14 1.01-1.14 1.01-1.14 1.01-1.14 1.01-1.15 1.01-1.16 1-1.15 1-1.16 1-1.16 1-1.17 1-1.17 1-1.17.99-1.17.99-1.18.99-1.18.99-1.19.99-1.18.99-1.19.98-1.2.98-1.2.98-1.2.98-1.2.98-1.21.97-1.21.98-1.21.97-1.22.97-1.22.97-1.22.97-1.22.96-1.23.97-1.24.96-1.23.96-1.24.96-1.24.95-1.25.96-1.25.95-1.25.95-1.25.95-1.26.95-1.26.95-1.27.95-1.26.94-1.27.94-1.28.94-1.27.94-1.29.94-1.28.93-1.29.93-1.29.93-1.29.93-1.29.93-1.3.93-1.31.92-1.3.93-1.31.92-1.31.92-1.32.92-1.32.91-1.32.92-1.33.91-1.32.91-1.34.91-1.33.91-1.34.91-1.34.9-1.34.9-1.35.9-1.35.9-1.35.9-1.36.9-1.36.89-1.37.89-1.36.9-1.37.88-1.37.89-1.38.89-1.38.88-1.38.88-1.39.89-1.39.87-1.39.88-1.4.88-1.39.87-1.41.87-1.4.87-1.41.87-1.41.87-1.42.87-1.41m-93.9 124.85 1.24.33 1.24.33 1.24.32 1.24.31 1.24.3 1.24.3 1.24.29 1.24.28 1.24.28 1.24.26 1.24.26 1.24.26 1.24.24 1.24.24 1.24.23 1.24.23 1.24.21 1.24.21 1.24.2 1.24.2 1.24.18 1.24.18 1.24.18 1.24.16 1.24.16 1.24.15 1.24.14 1.23.14 1.24.13 1.24.12 1.24.12 1.24.1 1.24.1 1.24.09 1.24.09 1.24.08 1.23.07 1.24.06 1.24.06 1.24.04 1.24.05 1.24.03 1.24.03 1.23.02 1.24.01h2.48l1.24-.01 1.23-.02 1.24-.02 1.24-.03 1.24-.04 1.24-.05 1.23-.05 1.24-.06 1.24-.07 1.24-.08 1.23-.08 1.24-.09 1.24-.1 1.24-.1 1.23-.12 1.24-.12 1.24-.12 1.23-.14 1.24-.14 1.24-.15 1.23-.15 1.24-.17 1.24-.17 1.24-.17 1.23-.19 1.24-.19 1.24-.2 1.23-.21 1.24-.21 1.23-.22 1.24-.23 1.24-.24 1.23-.24 1.24-.25 1.24-.26 1.23-.27 1.24-.27 1.23-.28 1.24-.29 1.23-.29 1.24-.3 1.24-.31 1.23-.32 1.24-.32 1.23-.34 1.24-.33 1.23-.35 1.24-.35 1.23-.36 1.24-.37 1.23-.38 1.24-.38" style="stroke-width:1.07;stroke:#000000;stroke-opacity:0.10;stroke-linecap:butt"/><path d="m162.19 390.06.99-1.18.98-1.19.99-1.18.99-1.19.99-1.19.98-1.19.99-1.19.98-1.2.98-1.19.99-1.2.98-1.2.98-1.2.98-1.2.98-1.21.98-1.2.97-1.21.98-1.21.98-1.21.97-1.21.97-1.21.98-1.22.97-1.21.97-1.22.97-1.22.97-1.22.97-1.22.97-1.23.96-1.22.97-1.23.97-1.23.96-1.23.96-1.23.97-1.24.96-1.23.96-1.24.96-1.24.96-1.24.96-1.24.96-1.24.95-1.25.96-1.25.96-1.25.95-1.25.95-1.25.96-1.25.95-1.25.95-1.26.95-1.26.95-1.26.95-1.26.94-1.26.95-1.27.95-1.26.94-1.27.95-1.27.94-1.27.94-1.27.94-1.28.95-1.27.94-1.28.93-1.28.94-1.28.94-1.28.94-1.28.93-1.29.94-1.28.93-1.29.94-1.29.93-1.29.93-1.3.93-1.29.93-1.3.93-1.3.93-1.3.92-1.3.93-1.3.93-1.3.92-1.31.93-1.31.92-1.31.92-1.31.92-1.31.92-1.31.92-1.32.92-1.32.92-1.31.92-1.33.91-1.32.92-1.32.91-1.33.92-1.32.91-1.33.91-1.33.91-1.33.91-1.33.91-1.34.91-1.34.91-1.33.91-1.34m-93.9 124.85 1.24.23 1.24.23 1.24.22 1.24.21 1.23.21 1.24.21 1.24.2 1.24.19 1.24.19 1.24.18 1.24.18 1.24.18 1.24.17 1.24.16 1.24.16 1.24.15 1.24.15 1.24.14 1.24.14 1.24.13 1.24.13 1.23.12 1.24.11 1.24.11 1.24.11 1.24.1 1.24.1 1.24.09 1.24.08 1.24.08 1.23.08 1.24.07 1.24.06 1.24.06 1.24.05 1.24.05 1.24.04 1.23.04 1.24.03 1.24.03 1.24.02 1.24.02 1.24.01 1.23.01h2.48l1.24-.01 1.24-.01 1.23-.02 1.24-.03 1.24-.03 1.24-.03 1.24-.04 1.23-.05 1.24-.05 1.24-.05 1.24-.07 1.23-.06 1.24-.07 1.24-.08 1.24-.08 1.23-.09 1.24-.09 1.24-.1 1.24-.1 1.23-.11 1.24-.11 1.24-.12 1.23-.12 1.24-.13 1.24-.14 1.24-.14 1.23-.14 1.24-.15 1.24-.16 1.23-.16 1.24-.16 1.24-.17 1.23-.18 1.24-.18 1.24-.19 1.23-.19 1.24-.19 1.24-.21 1.23-.2 1.24-.21 1.24-.22 1.23-.22 1.24-.23 1.24-.24 1.23-.23 1.24-.25 1.23-.25 1.24-.25 1.24-.26 1.23-.26 1.24-.27 1.23-.28 1.24-.28" style="stroke-width:1.07;stroke:#000000;stroke-opacity:0.10;stroke-linecap:butt"/><path d="m162.19 390.06.94-1.26.95-1.26.95-1.26.95-1.27.95-1.26.95-1.26.95-1.26.94-1.26.95-1.26.95-1.26.95-1.26.95-1.26.95-1.27.94-1.26.95-1.26.95-1.26.95-1.26.95-1.26.95-1.26.95-1.26.94-1.26.95-1.27.95-1.26.95-1.26.95-1.26.95-1.26.95-1.26.94-1.26.95-1.26.95-1.27.95-1.26.95-1.26.95-1.26.94-1.26.95-1.26.95-1.26.95-1.26.95-1.26.95-1.27.95-1.26.94-1.26.95-1.26.95-1.26.95-1.26.95-1.26.95-1.26.94-1.26.95-1.27.95-1.26.95-1.26.95-1.26.95-1.26.95-1.26.94-1.26.95-1.26.95-1.26.95-1.27.95-1.26.95-1.26.95-1.26.94-1.26.95-1.26.95-1.26.95-1.26.95-1.26.95-1.27.94-1.26.95-1.26.95-1.26.95-1.26.95-1.26.95-1.26.95-1.26.94-1.26.95-1.27.95-1.26.95-1.26.95-1.26.95-1.26.95-1.26.94-1.26.95-1.26.95-1.26.95-1.27.95-1.26.95-1.26.94-1.26.95-1.26.95-1.26.95-1.26.95-1.26.95-1.27.95-1.26.94-1.26.95-1.26.95-1.26.95-1.26.95-1.26.95-1.26m-93.9 124.85 1.23.13 1.24.12 1.24.13 1.24.12 1.24.11 1.24.11 1.24.11 1.24.11 1.24.11 1.24.1 1.23.09 1.24.1 1.24.09 1.24.09 1.24.08 1.24.08 1.24.08 1.24.08 1.23.07 1.24.07 1.24.07 1.24.06 1.24.06 1.24.06 1.24.05 1.24.05 1.23.05 1.24.04 1.24.04 1.24.04 1.24.04 1.24.03 1.23.03 1.24.02 1.24.03 1.24.01 1.24.02 1.24.01 1.23.01 1.24.01h4.95l1.24-.01 1.24-.01 1.24-.02 1.24-.02 1.23-.02 1.24-.02 1.24-.03 1.24-.03 1.24-.04 1.23-.03 1.24-.04 1.24-.05 1.24-.04 1.23-.05 1.24-.06 1.24-.05 1.24-.06 1.24-.06 1.23-.07 1.24-.07 1.24-.07 1.24-.07 1.23-.08 1.24-.08 1.24-.08 1.24-.09 1.23-.09 1.24-.09 1.24-.1 1.23-.1 1.24-.1 1.24-.11 1.24-.11 1.23-.11 1.24-.12 1.24-.11 1.24-.13 1.23-.12 1.24-.13 1.24-.13 1.23-.13 1.24-.14 1.24-.14 1.23-.14 1.24-.15 1.24-.15 1.24-.15 1.23-.16 1.24-.16 1.24-.16 1.23-.17 1.24-.16 1.24-.18 1.23-.17 1.24-.18" style="stroke-width:1.07;stroke:#000000;stroke-opacity:0.10;stroke-linecap:butt"/><path d="m162.19 390.06.9-1.34.91-1.34.91-1.33.91-1.34.91-1.33.91-1.33.91-1.33.92-1.33.91-1.33.91-1.32.92-1.33.92-1.32.91-1.32.92-1.32.92-1.32.92-1.31.92-1.31.92-1.32.92-1.31.93-1.31.92-1.3.93-1.31.92-1.3.93-1.31.93-1.3.92-1.3.93-1.3.93-1.29.93-1.3.93-1.29.94-1.29.93-1.29.93-1.29.94-1.29.94-1.28.93-1.28.94-1.29.94-1.28.94-1.28.94-1.27.94-1.28.94-1.27.94-1.27.95-1.28.94-1.26.95-1.27.94-1.27.95-1.26.95-1.26.94-1.27.95-1.26.95-1.25.95-1.26.96-1.25.95-1.26.95-1.25.96-1.25.95-1.25.96-1.24.96-1.25.95-1.24.96-1.24.96-1.25.96-1.23.96-1.24.97-1.24.96-1.23.96-1.23.97-1.23.96-1.23.97-1.23.97-1.23.96-1.22.97-1.22.97-1.22.97-1.22.97-1.22.98-1.22.97-1.21.97-1.22.98-1.21.97-1.21.98-1.21.98-1.2.97-1.21.98-1.2.98-1.2.98-1.2.99-1.2.98-1.2.98-1.2.98-1.19.99-1.19.99-1.19.98-1.19.99-1.19.99-1.19.99-1.18.99-1.18m-93.9 124.85 1.23.03 1.24.02 1.24.03 1.24.02 1.24.02 1.24.02 1.23.02 1.24.02 1.24.02 1.24.02 1.24.01 1.24.02 1.23.01 1.24.02 1.24.01 1.24.01 1.24.01 1.23.01 1.24.01h1.24l1.24.01h1.24l1.24.01h7.42l1.24-.01h1.24l1.24-.01h1.24l1.23-.01 1.24-.01 1.24-.01 1.24-.01 1.24-.01 1.23-.02 1.24-.01 1.24-.02 1.24-.01 1.24-.02 1.23-.02 1.24-.02 1.24-.02 1.24-.02 1.24-.02 1.23-.02 1.24-.03 1.24-.02 1.24-.03 1.24-.03 1.23-.03 1.24-.03 1.24-.03 1.24-.03 1.23-.03 1.24-.04 1.24-.03 1.24-.04 1.24-.04 1.23-.03 1.24-.04 1.24-.04 1.24-.04 1.24-.05 1.23-.04 1.24-.04 1.24-.05 1.24-.05 1.23-.04 1.24-.05 1.24-.05 1.24-.05 1.23-.05 1.24-.06 1.24-.05 1.24-.05 1.24-.06 1.23-.06 1.24-.05 1.24-.06 1.24-.06 1.23-.06 1.24-.07 1.24-.06 1.24-.06 1.23-.07 1.24-.07 1.24-.06 1.24-.07 1.23-.07 1.24-.07 1.24-.07 1.24-.07 1.23-.08 1.24-.07 1.24-.08" style="stroke-width:1.07;stroke:#000000;stroke-opacity:0.10;stroke-linecap:butt"/><path d="m162.19 390.06.86-1.42.87-1.41.87-1.41.87-1.41.87-1.41.87-1.4.88-1.4.88-1.39.88-1.4.88-1.39.88-1.38.88-1.38.89-1.38.89-1.38.89-1.37.89-1.37.89-1.37.9-1.36.89-1.36.9-1.36.9-1.35.9-1.35.9-1.35.91-1.35.9-1.34.91-1.33.91-1.34.91-1.33.91-1.33.92-1.32.92-1.33.91-1.31.92-1.32.92-1.31.93-1.31.92-1.31.93-1.3.93-1.3.93-1.3.93-1.29.93-1.29.94-1.29.93-1.28.94-1.28.94-1.28.94-1.27.95-1.27.94-1.27.95-1.26.95-1.26.95-1.26.95-1.26.95-1.25.96-1.25.96-1.24.95-1.24.96-1.24.97-1.24.96-1.23.97-1.23.96-1.23.97-1.22.97-1.22.97-1.21.98-1.22.97-1.21.98-1.2.98-1.21.98-1.2.98-1.2.99-1.19.98-1.19.99-1.19.99-1.18.99-1.18.99-1.18 1-1.18.99-1.17 1-1.17 1-1.16 1-1.16 1-1.16 1.01-1.16 1-1.15 1.01-1.15 1.01-1.15 1.01-1.14 1.01-1.14 1.02-1.13 1.02-1.14 1.01-1.13 1.02-1.12 1.02-1.13 1.03-1.12 1.02-1.12 1.03-1.11 1.03-1.11 1.03-1.11 1.03-1.1m-93.9 124.85 1.23-.08 1.24-.07 1.24-.07 1.24-.08 1.23-.07 1.24-.07 1.24-.07 1.24-.07 1.23-.06 1.24-.07 1.24-.07 1.24-.06 1.23-.06 1.24-.07 1.24-.06 1.24-.06 1.23-.06 1.24-.05 1.24-.06 1.24-.06 1.24-.05 1.23-.05 1.24-.06 1.24-.05 1.24-.05 1.23-.05 1.24-.05 1.24-.04 1.24-.05 1.23-.05 1.24-.04 1.24-.04 1.24-.05 1.24-.04 1.23-.04 1.24-.04 1.24-.03 1.24-.04 1.23-.04 1.24-.03 1.24-.04 1.24-.03 1.24-.03 1.23-.03 1.24-.03 1.24-.03 1.24-.03 1.24-.03 1.23-.02 1.24-.03 1.24-.02 1.24-.02 1.24-.02 1.23-.02 1.24-.02 1.24-.02 1.24-.02 1.24-.01 1.23-.02 1.24-.01 1.24-.02 1.24-.01 1.24-.01 1.23-.01 1.24-.01 1.24-.01h1.24l1.24-.01h1.23l1.24-.01h7.43l1.24.01h1.24l1.23.01h1.24l1.24.01 1.24.01 1.24.01 1.24.01 1.23.01 1.24.02 1.24.01 1.24.02 1.24.01 1.24.02 1.23.02 1.24.02 1.24.02 1.24.02 1.24.02 1.23.02 1.24.03 1.24.02 1.24.03" style="stroke-width:1.07;stroke:#000000;stroke-opacity:0.10;stroke-linecap:butt"/><path d="m162.19 390.06.82-1.5.83-1.49.83-1.49.83-1.48.83-1.47.84-1.48.84-1.46.84-1.47.84-1.45.85-1.46.85-1.44.85-1.45.86-1.44.85-1.43.86-1.43.87-1.42.86-1.42.87-1.42.87-1.41.87-1.4.88-1.4.87-1.4.88-1.39.89-1.38.88-1.39.89-1.37.89-1.37.89-1.37.9-1.36.89-1.36.9-1.35.91-1.35.9-1.34.91-1.34.91-1.33.91-1.33.92-1.32.92-1.32.92-1.32.92-1.31.93-1.3.92-1.3.94-1.29.93-1.29.93-1.29.94-1.28.94-1.27.95-1.28.94-1.26.95-1.26.95-1.26.96-1.25.95-1.25.96-1.24.96-1.24.97-1.23.96-1.23.97-1.22.97-1.22.98-1.21.97-1.21.98-1.2.98-1.2.99-1.19.98-1.19.99-1.19.99-1.18 1-1.17 1-1.17.99-1.17 1.01-1.16 1-1.15 1.01-1.15 1.01-1.15 1.01-1.14 1.01-1.14 1.02-1.13 1.02-1.13 1.02-1.12 1.03-1.12 1.02-1.11 1.03-1.11 1.04-1.1 1.03-1.1 1.04-1.09 1.04-1.09 1.04-1.08 1.04-1.08 1.05-1.08 1.05-1.07 1.05-1.06 1.06-1.06 1.06-1.05 1.06-1.05 1.06-1.05 1.07-1.04 1.06-1.04 1.07-1.03 1.08-1.02m-93.9 124.85 1.23-.18 1.24-.17 1.24-.18 1.23-.16 1.24-.17 1.24-.16 1.23-.16 1.24-.16 1.24-.15 1.23-.15 1.24-.15 1.24-.14 1.23-.14 1.24-.14 1.24-.13 1.24-.13 1.23-.13 1.24-.12 1.24-.13 1.23-.11 1.24-.12 1.24-.11 1.24-.11 1.23-.11 1.24-.1 1.24-.1 1.24-.1 1.23-.09 1.24-.09 1.24-.09 1.24-.08 1.23-.08 1.24-.08 1.24-.07 1.24-.07 1.23-.07 1.24-.07 1.24-.06 1.24-.06 1.23-.05 1.24-.06 1.24-.05 1.24-.04 1.23-.05 1.24-.04 1.24-.03 1.24-.04 1.24-.03 1.23-.03 1.24-.02 1.24-.02 1.24-.02 1.24-.02 1.23-.01 1.24-.01h4.95l1.24.01 1.24.01 1.24.01 1.24.02 1.23.01 1.24.03 1.24.02 1.24.03 1.24.03 1.24.04 1.24.04 1.23.04 1.24.04 1.24.05 1.24.05 1.24.05 1.24.06 1.23.06 1.24.06 1.24.07 1.24.07 1.24.07 1.24.08 1.24.08 1.24.08 1.23.08 1.24.09 1.24.09 1.24.1 1.24.09 1.24.1 1.24.11 1.24.11 1.24.11 1.23.11 1.24.11 1.24.12 1.24.13 1.24.12 1.24.13m-122.55 2.43-1.17.57-1.16.58-1.16.58-1.16.58-1.15.59-1.16.58-1.16.59-1.16.59-1.16.59-1.15.59-1.16.6-1.16.59-1.15.6-1.16.6-1.15.61-1.16.6-1.15.61-1.15.61-1.16.61-1.15.61-1.15.61-1.15.62-1.15.62-1.16.62-1.15.62-1.15.62-1.14.63-1.15.62-1.15.63-1.15.63-1.15.64-1.14.63-1.15.64-1.15.64-1.14.64-1.15.64-1.14.65-1.15.65-1.14.64-1.15.65-1.14.66-1.14.65-1.14.66-1.14.66-1.15.66-1.14.66-1.14.66-1.14.67-1.14.67-1.14.67-1.13.67-1.14.67-1.14.68-1.14.67-1.13.68-1.14.68-1.14.69-1.13.68-1.14.69-1.13.69-1.14.69-1.13.69-1.13.7-1.13.69-1.14.7-1.13.7-1.13.71-1.13.7-1.13.71-1.13.7-1.13.71-1.13.72-1.13.71-1.13.72-1.13.71-1.12.72-1.13.72-1.13.73-1.12.72-1.13.73-1.12.73-1.13.73-1.12.73-1.13.74-1.12.74-1.12.74-1.12.74-1.13.74-1.12.74-1.12.75-1.12.75-1.12.75-1.12.75-1.12.76-1.12.75-1.12.76-1.11.76-1.12.76-1.12.77" style="stroke-width:1.07;stroke:#000000;stroke-opacity:0.10;stroke-linecap:butt"/><path d="m162.19 390.06 1.23-.28 1.24-.28 1.23-.27 1.24-.26 1.24-.26 1.23-.25 1.24-.25 1.23-.25 1.24-.23 1.24-.24 1.23-.23 1.24-.22 1.24-.22 1.23-.21 1.24-.2 1.24-.21 1.23-.19 1.24-.19 1.23-.19 1.24-.18 1.24-.18 1.24-.17 1.23-.16 1.24-.16 1.24-.16 1.23-.15 1.24-.14 1.24-.14 1.23-.14 1.24-.13 1.24-.12 1.24-.12 1.23-.11 1.24-.11 1.24-.1 1.23-.1 1.24-.09 1.24-.09 1.24-.08 1.23-.08 1.24-.07 1.24-.06 1.24-.07 1.23-.05 1.24-.05 1.24-.05 1.24-.04 1.24-.03 1.23-.03 1.24-.03 1.24-.02 1.24-.01 1.24-.01h2.47l1.24.01 1.24.01 1.24.02 1.23.02 1.24.03 1.24.03 1.24.04 1.24.04 1.24.05 1.24.05 1.23.06 1.24.06 1.24.07 1.24.08 1.24.08 1.24.08 1.24.09 1.23.1 1.24.1 1.24.11 1.24.11 1.24.11 1.24.12 1.24.13 1.24.13 1.24.14 1.24.14 1.24.15 1.24.15 1.23.16 1.24.16 1.24.17 1.24.18 1.24.18 1.24.18 1.24.19 1.24.19 1.24.2 1.24.21 1.24.21 1.24.21 1.24.22 1.24.23 1.24.23m-122.55 2.43-1.14.67-1.14.67-1.14.67-1.14.67-1.14.67-1.14.67-1.14.67-1.14.67-1.14.67-1.13.67-1.14.67-1.14.67-1.14.67-1.14.67-1.14.67-1.14.67-1.14.66-1.14.67-1.14.67-1.13.67-1.14.67-1.14.67-1.14.67-1.14.67-1.14.67-1.14.67-1.14.67-1.14.67-1.14.67-1.13.67-1.14.67-1.14.67-1.14.67-1.14.67-1.14.67-1.14.67-1.14.67-1.14.67-1.14.67-1.14.67-1.13.67-1.14.67-1.14.67-1.14.67-1.14.67-1.14.67-1.14.67-1.14.67-1.14.67-1.14.67-1.13.67-1.14.67-1.14.67-1.14.67-1.14.67-1.14.67-1.14.67-1.14.67-1.14.66-1.14.67-1.13.67-1.14.67-1.14.67-1.14.67-1.14.67-1.14.67-1.14.67-1.14.67-1.14.67-1.14.67-1.13.67-1.14.67-1.14.67-1.14.67-1.14.67-1.14.67-1.14.67-1.14.67-1.14.67-1.14.67-1.14.67-1.13.67-1.14.67-1.14.67-1.14.67-1.14.67-1.14.67-1.14.67-1.14.67-1.14.67-1.14.67-1.13.67-1.14.67-1.14.67-1.14.67-1.14.67-1.14.67-1.14.67-1.14.67" style="stroke-width:1.07;stroke:#000000;stroke-opacity:0.10;stroke-linecap:butt"/><path d="m162.19 390.06 1.23-.38 1.24-.38 1.23-.37 1.24-.36 1.23-.35 1.24-.35 1.23-.33 1.24-.34 1.23-.32 1.24-.32 1.23-.31 1.24-.3 1.24-.29 1.23-.29 1.24-.28 1.23-.27 1.24-.27 1.24-.26 1.23-.25 1.24-.24 1.23-.24 1.24-.23 1.24-.22 1.23-.21 1.24-.21 1.24-.2 1.23-.19 1.24-.19 1.24-.17 1.23-.17 1.24-.17 1.24-.15 1.23-.15 1.24-.14 1.24-.14 1.24-.12 1.23-.12 1.24-.12 1.24-.1 1.23-.1 1.24-.09 1.24-.08 1.24-.08 1.23-.07 1.24-.06 1.24-.05 1.24-.05 1.24-.04 1.23-.03 1.24-.02 1.24-.02 1.24-.01h2.47l1.24.01 1.24.02 1.24.03 1.24.03 1.24.05 1.23.04 1.24.06 1.24.06 1.24.07 1.24.08 1.24.09 1.24.09 1.23.1 1.24.11 1.24.11 1.24.12 1.24.13 1.24.14 1.24.14 1.24.15 1.24.16 1.24.16 1.24.18 1.24.18 1.24.18 1.24.2 1.24.2 1.24.21 1.23.22 1.24.22 1.24.23 1.24.24 1.24.24 1.24.26 1.24.26 1.25.26 1.24.28 1.24.28 1.24.29 1.24.3 1.24.3 1.24.31 1.24.32 1.24.33 1.24.33m-122.55 2.43.78-1.58.78-1.56.79-1.57.8-1.55.79-1.55.8-1.54.81-1.54.8-1.53.81-1.52.81-1.52.82-1.51.82-1.5.82-1.5.83-1.49.83-1.49.83-1.47.84-1.48.84-1.46.85-1.46.84-1.46.85-1.44.86-1.44.85-1.44.86-1.42.87-1.42.87-1.42.87-1.41.87-1.4.88-1.39.88-1.39.88-1.39.89-1.37.89-1.37.9-1.37.89-1.35.9-1.35.91-1.35.91-1.33.91-1.34.91-1.32.92-1.32.92-1.31.93-1.31.92-1.3.94-1.29.93-1.29.94-1.28.94-1.27.95-1.27.95-1.26.95-1.26.95-1.24.96-1.25.96-1.23.97-1.23.97-1.22.97-1.22.97-1.21.98-1.2.99-1.2.98-1.19.99-1.19.99-1.17 1-1.17 1-1.17 1-1.16 1.01-1.15 1.01-1.15 1.01-1.14 1.02-1.13 1.02-1.13 1.02-1.12 1.02-1.11 1.03-1.11 1.04-1.1 1.03-1.1 1.04-1.08 1.05-1.09 1.04-1.07 1.05-1.07 1.06-1.06 1.05-1.06 1.06-1.05 1.07-1.04 1.06-1.04 1.07-1.03 1.08-1.03 1.08-1.02 1.08-1.01 1.08-1 1.09-1 1.09-.99 1.09-.99 1.1-.98 1.1-.97 1.1-.97 1.11-.96 1.11-.96 1.12-.94" style="stroke-width:1.07;stroke:#000000;stroke-opacity:0.10;stroke-linecap:butt"/><path d="m162.19 390.06 1.23-.49 1.23-.47 1.24-.47 1.23-.45 1.24-.45 1.23-.44 1.24-.43 1.23-.41 1.24-.41 1.23-.4 1.24-.39 1.23-.39 1.24-.37 1.23-.36 1.24-.35 1.23-.35 1.24-.33 1.23-.33 1.24-.31 1.24-.31 1.23-.3 1.24-.28 1.23-.28 1.24-.27 1.24-.26 1.23-.25 1.24-.24 1.23-.23 1.24-.22 1.24-.21 1.23-.21 1.24-.19 1.24-.18 1.23-.18 1.24-.16 1.24-.16 1.23-.15 1.24-.13 1.24-.13 1.24-.12 1.23-.11 1.24-.1 1.24-.09 1.23-.08 1.24-.07 1.24-.06 1.24-.06 1.24-.04 1.23-.03 1.24-.03 1.24-.01 1.24-.01h1.24l1.23.02 1.24.02 1.24.03 1.24.04 1.24.05 1.24.06 1.23.07 1.24.08 1.24.09 1.24.1 1.24.1 1.24.12 1.24.13 1.24.13 1.24.15 1.24.15 1.23.16 1.24.18 1.24.18 1.24.19 1.24.2 1.24.21 1.24.22 1.24.23 1.24.24 1.24.24 1.24.26 1.24.27 1.24.27 1.24.29 1.24.29 1.24.31 1.25.31 1.24.32 1.24.34 1.24.34 1.24.35 1.24.36 1.24.37 1.24.38 1.24.39 1.24.4 1.25.4 1.24.42 1.24.43 1.24.43m-122.55 2.43-1.12.76-1.12.76-1.12.76-1.12.76-1.11.76-1.12.75-1.12.76-1.12.75-1.12.74-1.12.75-1.13.75-1.12.74-1.12.74-1.12.74-1.13.73-1.12.74-1.12.73-1.13.73-1.12.73-1.13.73-1.13.73-1.12.72-1.13.72-1.13.72-1.12.72-1.13.71-1.13.72-1.13.71-1.13.71-1.13.71-1.13.7-1.13.71-1.13.7-1.13.7-1.14.7-1.13.7-1.13.69-1.14.69-1.13.7-1.14.68-1.13.69-1.14.69-1.13.68-1.14.68-1.13.68-1.14.68-1.14.67-1.14.68-1.14.67-1.14.67-1.13.67-1.14.66-1.14.67-1.15.66-1.14.66-1.14.66-1.14.65-1.14.66-1.15.65-1.14.65-1.14.65-1.15.65-1.14.64-1.15.64-1.14.64-1.15.64-1.15.64-1.14.64-1.15.63-1.15.63-1.15.63-1.15.63-1.15.62-1.15.63-1.15.62-1.15.62-1.15.62-1.15.61-1.15.62-1.15.61-1.16.61-1.15.61-1.15.6-1.16.61-1.15.6-1.16.6-1.15.6-1.16.6-1.16.59-1.15.6-1.16.59-1.16.59-1.16.58-1.16.59-1.16.58-1.16.58-1.16.58-1.16.58-1.16.58" style="stroke-width:1.07;stroke:#000000;stroke-opacity:0.10;stroke-linecap:butt"/><path d="m162.19 390.06 1.23-.59 1.23-.57 1.24-.57 1.23-.55 1.23-.54 1.24-.53 1.23-.52 1.24-.5 1.23-.5 1.23-.48 1.24-.47 1.23-.47 1.24-.44 1.23-.44 1.24-.43 1.23-.41 1.24-.41 1.23-.39 1.24-.38 1.23-.37 1.24-.35 1.23-.35 1.24-.33 1.23-.33 1.24-.31 1.24-.3 1.23-.29 1.24-.27 1.23-.27 1.24-.25 1.24-.25 1.23-.23 1.24-.22 1.24-.2 1.23-.2 1.24-.19 1.23-.17 1.24-.16 1.24-.15 1.24-.14 1.23-.13 1.24-.12 1.24-.1 1.23-.09 1.24-.09 1.24-.07 1.24-.06 1.24-.04 1.23-.04 1.24-.02 1.24-.02h1.24l1.24.01 1.23.02 1.24.04 1.24.04 1.24.06 1.24.06 1.24.08 1.24.09 1.23.1 1.24.12 1.24.12 1.24.14 1.24.15 1.24.15 1.24.18 1.24.18 1.24.19 1.24.21 1.24.21 1.24.23 1.24.24 1.24.25 1.24.26 1.24.28 1.24.28 1.24.3 1.24.31 1.24.32 1.24.33 1.24.34 1.24.35 1.24.37 1.25.38 1.24.39 1.24.4 1.24.41 1.24.42 1.24.43 1.24.45 1.25.46 1.24.47 1.24.48 1.24.49 1.24.5 1.25.52 1.24.52 1.24.54" style="stroke-width:1.07;stroke:#000000;stroke-opacity:0.10;stroke-linecap:butt"/><path d="m284.74 387.63.08-1.45.07-1.45.06-1.44.05-1.44.05-1.43.04-1.43.03-1.43.02-1.42.02-1.42.01-1.41v-1.41l-.01-1.4-.01-1.4-.02-1.39-.03-1.39-.03-1.39-.05-1.38-.05-1.38-.06-1.37-.06-1.37-.07-1.36-.08-1.36-.09-1.36-.1-1.35-.1-1.34-.11-1.35-.12-1.33-.12-1.34-.14-1.33-.14-1.32-.14-1.32-.16-1.32-.16-1.31-.17-1.3-.18-1.31-.18-1.29-.2-1.3-.2-1.29-.2-1.28-.22-1.28-.22-1.28-.23-1.27-.24-1.27-.24-1.26-.25-1.26-.26-1.25-.27-1.25-.27-1.25-.29-1.24-.29-1.24-.29-1.23-.31-1.23-.31-1.22-.32-1.22-.33-1.21-.33-1.21-.34-1.21-.35-1.2-.36-1.2-.36-1.19-.37-1.19-.38-1.18-.39-1.18-.39-1.18-.4-1.17-.41-1.17-.42-1.16-.42-1.16-.43-1.15-.44-1.15-.45-1.14-.45-1.14-.46-1.14-.47-1.13-.48-1.13-.48-1.12-.49-1.12-.5-1.11-.51-1.11-.51-1.1-.52-1.1-.53-1.1-.54-1.09-.54-1.09-.55-1.08-.56-1.08-.56-1.08-.58-1.07-.58-1.06-.58-1.06-.6-1.06-.6-1.05-.61-1.05-.62-1.04-.63-1.04-.63-1.04-.64-1.03-.65-1.02-.65-1.02" style="stroke-width:1.07;stroke:#000000;stroke-opacity:0.10;stroke-linecap:butt"/><path d="m284.74 387.63.04-1.43.02-1.42.03-1.42.01-1.42.01-1.41v-2.81l-.01-1.4-.02-1.4-.02-1.39-.03-1.39-.04-1.39-.04-1.38-.05-1.37-.06-1.38-.06-1.37-.07-1.36-.08-1.36-.09-1.36-.09-1.35-.09-1.35-.11-1.35-.11-1.34-.11-1.34-.13-1.33-.13-1.33-.13-1.33-.15-1.32-.15-1.32-.15-1.32-.17-1.31-.17-1.3-.17-1.31-.19-1.3-.19-1.29-.19-1.29-.21-1.29-.21-1.28-.21-1.28-.23-1.28-.23-1.27-.23-1.27-.25-1.26-.25-1.26-.25-1.26-.26-1.25-.27-1.25-.28-1.24-.28-1.24-.29-1.24-.3-1.23-.3-1.23-.31-1.23-.32-1.22-.32-1.21-.33-1.22-.33-1.21-.35-1.2-.35-1.2-.35-1.2-.36-1.19-.37-1.19-.38-1.19-.38-1.18-.39-1.18-.4-1.17-.4-1.17-.41-1.17-.41-1.16-.42-1.16-.43-1.16-.44-1.15-.44-1.14-.45-1.15-.45-1.14-.47-1.13-.47-1.13-.47-1.13-.48-1.12-.49-1.12-.5-1.12-.5-1.11-.51-1.11-.51-1.1-.52-1.1-.53-1.1-.54-1.09-.54-1.09-.55-1.08-.55-1.08-.56-1.08-.57-1.07-.58-1.07-.58-1.07-.58-1.06-.6-1.06-.6-1.05-.61-1.05-.61-1.04" style="stroke-width:1.07;stroke:#000000;stroke-opacity:0.10;stroke-linecap:butt"/><path d="m284.74 387.63-.01-1.4-.01-1.4-.01-1.4-.02-1.39-.03-1.39-.04-1.39-.04-1.38-.04-1.38-.05-1.38-.06-1.37-.06-1.37-.07-1.37-.08-1.36-.08-1.36-.08-1.36-.1-1.35-.09-1.35-.11-1.35-.11-1.34-.11-1.34-.12-1.33-.13-1.34-.13-1.32-.14-1.33-.14-1.32-.15-1.32-.16-1.32-.16-1.31-.17-1.31-.17-1.3-.18-1.3-.19-1.3-.19-1.3-.19-1.29-.21-1.28-.2-1.29-.22-1.28-.22-1.28-.22-1.27-.24-1.27-.23-1.27-.25-1.26-.24-1.26-.26-1.26-.26-1.25-.27-1.25-.27-1.25-.28-1.25-.28-1.24-.29-1.23-.29-1.24-.3-1.22-.31-1.23-.31-1.22-.32-1.22-.33-1.22-.33-1.21-.33-1.21-.34-1.21-.35-1.2-.36-1.2-.35-1.19-.37-1.2-.37-1.19-.38-1.18-.38-1.18-.39-1.18-.39-1.18-.4-1.17-.41-1.17-.41-1.16-.41-1.16-.43-1.16-.43-1.16-.43-1.15-.44-1.15-.45-1.14-.45-1.14-.46-1.14-.46-1.13-.47-1.13-.48-1.13-.48-1.12-.48-1.12-.5-1.12-.49-1.12-.51-1.11-.51-1.1-.52-1.11-.52-1.1-.52-1.09-.54-1.1-.54-1.09-.54-1.08-.55-1.09-.56-1.07-.56-1.08-.57-1.07-.57-1.07" style="stroke-width:1.07;stroke:#000000;stroke-opacity:0.10;stroke-linecap:butt"/><path d="m284.74 387.63-.05-1.38-.05-1.38-.05-1.37-.06-1.37-.07-1.37-.07-1.36-.07-1.37-.08-1.36-.09-1.35-.09-1.36-.09-1.35-.11-1.35-.1-1.34-.11-1.34-.12-1.34-.12-1.34-.12-1.33-.13-1.33-.14-1.33-.14-1.32-.14-1.32-.15-1.32-.16-1.32-.16-1.31-.16-1.31-.17-1.31-.18-1.3-.18-1.3-.18-1.3-.19-1.3-.2-1.29-.2-1.29-.2-1.28-.21-1.29-.22-1.28-.22-1.28-.22-1.27-.23-1.27-.23-1.27-.24-1.27-.25-1.26-.25-1.26-.25-1.26-.26-1.25-.27-1.25-.27-1.25-.27-1.25-.28-1.24-.29-1.24-.28-1.23-.3-1.24-.3-1.23-.3-1.23-.31-1.22-.32-1.22-.32-1.22-.32-1.22-.33-1.21-.33-1.21-.34-1.21-.35-1.2-.35-1.21-.35-1.19-.36-1.2-.36-1.19-.37-1.19-.38-1.19-.38-1.18-.38-1.18-.39-1.18-.39-1.18-.4-1.17-.4-1.17-.41-1.16-.42-1.17-.42-1.16-.42-1.16-.43-1.15-.43-1.15-.44-1.15-.45-1.15-.44-1.14-.46-1.14-.46-1.14-.46-1.13-.47-1.13-.47-1.13-.48-1.13-.48-1.12-.49-1.12-.5-1.12-.49-1.11-.51-1.11-.51-1.11-.51-1.1-.52-1.1-.52-1.1-.53-1.1-.53-1.09" style="stroke-width:1.07;stroke:#000000;stroke-opacity:0.10;stroke-linecap:butt"/><path d="m284.74 387.63-.09-1.35-.09-1.36-.09-1.35-.1-1.35-.1-1.34-.11-1.35-.11-1.34-.12-1.34-.12-1.34-.12-1.33-.13-1.33-.13-1.33-.13-1.33-.14-1.32-.15-1.32-.15-1.32-.15-1.32-.16-1.32-.16-1.31-.16-1.31-.17-1.3-.17-1.31-.18-1.3-.18-1.3-.19-1.3-.19-1.3-.19-1.29-.2-1.29-.2-1.29-.21-1.28-.21-1.28-.22-1.28-.21-1.28-.23-1.28-.22-1.27-.24-1.27-.23-1.27-.24-1.27-.25-1.26-.24-1.26-.26-1.26-.25-1.26-.26-1.25-.27-1.25-.26-1.25-.28-1.25-.27-1.24-.29-1.24-.28-1.24-.29-1.24-.29-1.23-.3-1.23-.3-1.23-.31-1.23-.31-1.22-.31-1.23-.32-1.21-.33-1.22-.32-1.22-.33-1.21-.34-1.21-.34-1.21-.34-1.2-.35-1.2-.35-1.2-.36-1.2-.36-1.2-.36-1.19-.37-1.19-.37-1.19-.38-1.18-.38-1.19-.38-1.18-.39-1.17-.39-1.18-.4-1.17-.4-1.17-.41-1.17-.41-1.17-.41-1.16-.42-1.16-.42-1.16-.43-1.16-.43-1.15-.43-1.15-.44-1.15-.45-1.15-.44-1.14-.45-1.14-.46-1.14-.46-1.14-.46-1.13-.47-1.13-.47-1.13-.48-1.13-.48-1.12-.48-1.13-.49-1.12-.49-1.11" style="stroke-width:1.07;stroke:#000000;stroke-opacity:0.10;stroke-linecap:butt"/><path d="m284.74 387.63-.13-1.33-.13-1.33-.13-1.33-.14-1.33-.14-1.32-.14-1.32-.15-1.32-.15-1.32-.15-1.32-.16-1.31-.16-1.32-.16-1.31-.17-1.31-.17-1.3-.17-1.31-.18-1.3-.18-1.3-.18-1.3-.19-1.3-.19-1.29-.19-1.3-.2-1.29-.2-1.29-.2-1.28-.21-1.29-.21-1.28-.21-1.28-.22-1.28-.22-1.28-.22-1.28-.23-1.27-.22-1.27-.24-1.27-.23-1.27-.24-1.27-.25-1.26-.24-1.26-.25-1.26-.26-1.26-.25-1.26-.26-1.25-.26-1.25-.27-1.25-.27-1.25-.27-1.25-.28-1.24-.28-1.24-.28-1.24-.29-1.24-.29-1.24-.29-1.23-.3-1.24-.29-1.23-.31-1.23-.3-1.22-.31-1.23-.32-1.22-.31-1.22-.32-1.22-.32-1.22-.33-1.21-.33-1.22-.33-1.21-.34-1.21-.34-1.2-.34-1.21-.34-1.2-.35-1.2-.36-1.2-.35-1.2-.36-1.2-.36-1.19-.37-1.19-.37-1.19-.37-1.19-.38-1.19-.38-1.18-.38-1.18-.38-1.18-.39-1.18-.39-1.18-.4-1.17-.4-1.17-.4-1.17-.41-1.17-.41-1.17-.41-1.16-.41-1.16-.42-1.17-.42-1.15-.43-1.16-.43-1.16-.43-1.15-.44-1.15-.44-1.15-.44-1.14-.44-1.15-.45-1.14-.45-1.14" style="stroke-width:1.07;stroke:#000000;stroke-opacity:0.10;stroke-linecap:butt"/><path d="m284.74 387.63-.17-1.31-.17-1.3-.17-1.31-.18-1.3-.17-1.31-.18-1.3-.18-1.3-.19-1.29-.19-1.3-.19-1.3-.19-1.29-.19-1.29-.2-1.29-.2-1.29-.2-1.29-.21-1.29-.21-1.28-.21-1.28-.21-1.29-.21-1.28-.22-1.28-.22-1.27-.22-1.28-.23-1.27-.22-1.28-.23-1.27-.24-1.27-.23-1.27-.24-1.27-.24-1.26-.24-1.27-.24-1.26-.25-1.26-.25-1.26-.25-1.26-.26-1.26-.25-1.25-.26-1.26-.27-1.25-.26-1.25-.27-1.25-.27-1.25-.27-1.24-.27-1.25-.28-1.24-.28-1.25-.28-1.24-.29-1.24-.28-1.24-.29-1.23-.29-1.24-.3-1.23-.3-1.23-.3-1.23-.3-1.23-.3-1.23-.31-1.23-.31-1.22-.31-1.23-.31-1.22-.32-1.22-.32-1.22-.32-1.21-.33-1.22-.32-1.22-.33-1.21-.33-1.21-.34-1.21-.33-1.21-.34-1.21-.35-1.2-.34-1.21-.35-1.2-.35-1.2-.35-1.2-.35-1.2-.36-1.2-.36-1.19-.36-1.2-.36-1.19-.37-1.19-.37-1.19-.37-1.19-.37-1.19-.38-1.18-.38-1.19-.38-1.18-.39-1.18-.38-1.18-.39-1.18-.39-1.17-.4-1.18-.39-1.17-.4-1.17-.4-1.17-.41-1.17-.4-1.17-.41-1.17-.41-1.16" style="stroke-width:1.07;stroke:#000000;stroke-opacity:0.10;stroke-linecap:butt"/><path d="m284.74 387.63-.21-1.28-.21-1.29-.21-1.28-.21-1.28-.22-1.28-.21-1.28-.22-1.28-.22-1.28-.22-1.27-.23-1.28-.22-1.27-.23-1.28-.23-1.27-.23-1.27-.23-1.27-.23-1.27-.23-1.27-.24-1.27-.24-1.27-.24-1.26-.24-1.27-.24-1.26-.25-1.26-.24-1.27-.25-1.26-.25-1.26-.25-1.26-.26-1.25-.25-1.26-.26-1.26-.25-1.25-.26-1.26-.26-1.25-.27-1.25-.26-1.25-.27-1.25-.27-1.25-.27-1.25-.27-1.25-.27-1.24-.27-1.25-.28-1.24-.28-1.25-.28-1.24-.28-1.24-.28-1.24-.29-1.24-.28-1.24-.29-1.24-.29-1.23-.29-1.24-.29-1.23-.3-1.24-.29-1.23-.3-1.23-.3-1.23-.3-1.23-.3-1.23-.31-1.23-.3-1.23-.31-1.22-.31-1.23-.31-1.22-.32-1.22-.31-1.23-.32-1.22-.31-1.22-.32-1.22-.32-1.21-.33-1.22-.32-1.22-.33-1.21-.32-1.22-.33-1.21-.33-1.21-.34-1.21-.33-1.21-.34-1.21-.33-1.21-.34-1.21-.34-1.21-.35-1.2-.34-1.21-.35-1.2-.34-1.2-.35-1.2-.35-1.2-.36-1.2-.35-1.2-.36-1.2-.35-1.2-.36-1.19-.36-1.2-.37-1.19-.36-1.19-.37-1.19-.36-1.19-.37-1.19-.37-1.19" style="stroke-width:1.07;stroke:#000000;stroke-opacity:0.10;stroke-linecap:butt"/><path d="m284.74 387.63-.25-1.26-.25-1.26-.25-1.26-.25-1.26-.25-1.26-.26-1.25-.25-1.26-.25-1.26-.26-1.26-.26-1.25-.25-1.26-.26-1.25-.26-1.26-.26-1.25-.26-1.26-.26-1.25-.26-1.25-.27-1.25-.26-1.26-.26-1.25-.27-1.25-.26-1.25-.27-1.25-.27-1.25-.27-1.25-.27-1.24-.27-1.25-.27-1.25-.27-1.25-.27-1.24-.28-1.25-.27-1.24-.28-1.25-.27-1.24-.28-1.25-.28-1.24-.28-1.24-.28-1.25-.28-1.24-.28-1.24-.28-1.24-.28-1.24-.29-1.24-.28-1.24-.29-1.24-.28-1.24-.29-1.24-.29-1.23-.29-1.24-.29-1.24-.29-1.23-.29-1.24-.29-1.23-.29-1.24-.29-1.23-.3-1.24-.29-1.23-.3-1.23-.3-1.23-.3-1.24-.29-1.23-.3-1.23-.3-1.23-.3-1.23-.31-1.23-.3-1.23-.3-1.22-.31-1.23-.3-1.23-.31-1.23-.3-1.22-.31-1.23-.31-1.22-.31-1.23-.31-1.22-.31-1.23-.31-1.22-.32-1.22-.31-1.23-.31-1.22-.32-1.22-.31-1.22-.32-1.22-.32-1.22-.32-1.22-.32-1.22-.32-1.22-.32-1.22-.32-1.21-.32-1.22-.33-1.22-.32-1.21-.33-1.22-.32-1.21-.33-1.22-.33-1.21-.32-1.22-.33-1.21-.33-1.21" style="stroke-width:1.07;stroke:#000000;stroke-opacity:0.10;stroke-linecap:butt"/><path d="m284.74 387.63-.29-1.24-.29-1.23-.29-1.24-.29-1.24-.29-1.23-.29-1.24-.29-1.24-.29-1.23-.29-1.24-.28-1.23-.29-1.24-.29-1.24-.29-1.23-.29-1.24-.29-1.24-.29-1.23-.29-1.24-.29-1.24-.29-1.23-.29-1.24-.29-1.24-.29-1.23-.29-1.24-.29-1.24-.29-1.23-.29-1.24-.28-1.24-.29-1.23-.29-1.24-.29-1.24-.29-1.23-.29-1.24-.29-1.24-.29-1.23-.29-1.24-.29-1.24-.29-1.23-.29-1.24-.29-1.24-.29-1.23-.29-1.24-.29-1.24-.29-1.23-.28-1.24-.29-1.24-.29-1.23-.29-1.24-.29-1.24-.29-1.23-.29-1.24-.29-1.24-.29-1.23-.29-1.24-.29-1.24-.29-1.23-.29-1.24-.29-1.24-.29-1.23-.29-1.24-.29-1.24-.29-1.23-.28-1.24-.29-1.24-.29-1.23-.29-1.24-.29-1.23-.29-1.24-.29-1.24-.29-1.23-.29-1.24-.29-1.24-.29-1.23-.29-1.24-.29-1.24-.29-1.23-.29-1.24-.29-1.24-.29-1.23-.28-1.24-.29-1.24-.29-1.23-.29-1.24-.29-1.24-.29-1.23-.29-1.24-.29-1.24-.29-1.23-.29-1.24-.29-1.24-.29-1.23-.29-1.24-.29-1.24-.29-1.23-.29-1.24-.29-1.24-.29-1.23-.28-1.24-.29-1.24-.29-1.23" style="stroke-width:1.07;stroke:#000000;stroke-opacity:0.10;stroke-linecap:butt"/><path d="m284.74 387.63-.33-1.21-.33-1.21-.33-1.22-.33-1.21-.32-1.22-.33-1.21-.32-1.22-.33-1.21-.32-1.22-.32-1.22-.33-1.22-.32-1.21-.32-1.22-.32-1.22-.31-1.22-.32-1.22-.32-1.22-.31-1.22-.32-1.22-.31-1.23-.32-1.22-.31-1.22-.31-1.22-.31-1.23-.31-1.22-.31-1.23-.31-1.22-.31-1.23-.31-1.23-.3-1.22-.31-1.23-.3-1.23-.3-1.23-.31-1.22-.3-1.23-.3-1.23-.3-1.23-.3-1.23-.3-1.24-.3-1.23-.29-1.23-.3-1.23-.29-1.24-.3-1.23-.29-1.23-.29-1.24-.3-1.23-.29-1.24-.29-1.24-.29-1.23-.29-1.24-.28-1.24-.29-1.23-.29-1.24-.28-1.24-.29-1.24-.28-1.24-.28-1.24-.29-1.24-.28-1.24-.28-1.25-.28-1.24-.27-1.24-.28-1.25-.28-1.24-.28-1.24-.27-1.25-.28-1.24-.27-1.25-.27-1.25-.27-1.24-.28-1.25-.27-1.25-.26-1.25-.27-1.25-.27-1.24-.27-1.25-.26-1.25-.27-1.26-.26-1.25-.27-1.25-.26-1.25-.26-1.25-.26-1.26-.26-1.25-.26-1.25-.26-1.26-.26-1.25-.26-1.26-.25-1.26-.26-1.25-.25-1.26-.26-1.26-.25-1.26-.25-1.25-.25-1.26-.25-1.26-.25-1.26-.25-1.26" style="stroke-width:1.07;stroke:#000000;stroke-opacity:0.10;stroke-linecap:butt"/><path d="m284.74 387.63-.37-1.19-.37-1.19-.37-1.19-.36-1.19-.37-1.19-.36-1.2-.36-1.19-.36-1.2-.36-1.19-.35-1.2-.36-1.2-.35-1.2-.35-1.2-.35-1.2-.35-1.2-.34-1.21-.35-1.2-.34-1.21-.34-1.2-.34-1.21-.34-1.21-.33-1.21-.34-1.21-.33-1.21-.33-1.21-.33-1.21-.33-1.22-.32-1.21-.33-1.22-.32-1.22-.32-1.22-.32-1.21-.32-1.22-.31-1.23-.32-1.22-.31-1.22-.31-1.22-.31-1.23-.31-1.23-.3-1.22-.31-1.23-.3-1.23-.3-1.23-.3-1.23-.3-1.23-.3-1.23-.29-1.24-.29-1.23-.29-1.24-.29-1.23-.29-1.24-.29-1.24-.28-1.24-.28-1.24-.29-1.24-.28-1.24-.27-1.25-.28-1.24-.27-1.25-.28-1.24-.27-1.25-.27-1.25-.27-1.25-.26-1.25-.27-1.25-.26-1.25-.26-1.26-.26-1.25-.26-1.26-.25-1.25-.26-1.26-.25-1.26-.25-1.26-.25-1.26-.25-1.26-.25-1.26-.24-1.26-.24-1.27-.25-1.26-.24-1.27-.23-1.26-.24-1.27-.23-1.27-.24-1.27-.23-1.27-.23-1.27-.23-1.27-.22-1.28-.23-1.27-.22-1.28-.22-1.28-.22-1.27-.22-1.28-.22-1.28-.21-1.28-.21-1.28-.22-1.29-.21-1.28-.2-1.28" style="stroke-width:1.07;stroke:#000000;stroke-opacity:0.10;stroke-linecap:butt"/><path d="m284.74 387.63-.41-1.16-.41-1.17-.41-1.17-.4-1.17-.4-1.17-.4-1.17-.4-1.17-.39-1.18-.39-1.18-.39-1.17-.39-1.18-.38-1.18-.38-1.19-.38-1.18-.38-1.19-.37-1.18-.37-1.19-.37-1.19-.37-1.19-.36-1.19-.37-1.2-.36-1.19-.35-1.2-.36-1.2-.35-1.2-.35-1.2-.34-1.2-.35-1.21-.34-1.21-.34-1.2-.34-1.21-.33-1.21-.33-1.21-.33-1.22-.33-1.21-.32-1.22-.32-1.21-.32-1.22-.32-1.22-.31-1.23-.32-1.22-.3-1.22-.31-1.23-.31-1.23-.3-1.23-.3-1.23-.29-1.23-.3-1.23-.29-1.24-.29-1.24-.29-1.23-.28-1.24-.28-1.25-.28-1.24-.28-1.24-.27-1.25-.28-1.24-.27-1.25-.26-1.25-.27-1.25-.26-1.26-.26-1.25-.26-1.26-.25-1.25-.25-1.26-.25-1.26-.25-1.26-.24-1.27-.25-1.26-.24-1.27-.23-1.26-.24-1.27-.23-1.27-.23-1.27-.23-1.28-.22-1.27-.22-1.28-.22-1.28-.22-1.27-.22-1.29-.21-1.28-.21-1.28-.2-1.29-.21-1.28-.2-1.29-.2-1.29-.2-1.29-.19-1.29-.2-1.3-.19-1.29-.18-1.3-.19-1.3-.18-1.3-.18-1.3-.18-1.3-.17-1.3-.18-1.31-.17-1.3-.16-1.31" style="stroke-width:1.07;stroke:#000000;stroke-opacity:0.10;stroke-linecap:butt"/><path d="m284.74 387.63-.45-1.14-.45-1.14-.45-1.15-.44-1.14-.44-1.15-.43-1.15-.43-1.16-.43-1.15-.43-1.16-.42-1.16-.42-1.16-.42-1.16-.41-1.16-.41-1.17-.4-1.17-.4-1.17-.4-1.17-.4-1.18-.39-1.17-.39-1.18-.39-1.18-.38-1.18-.38-1.19-.37-1.18-.38-1.19-.36-1.19-.37-1.19-.36-1.19-.36-1.2-.36-1.2-.35-1.2-.35-1.2-.34-1.2-.35-1.21-.34-1.2-.33-1.21-.33-1.22-.33-1.21-.33-1.21-.32-1.22-.32-1.22-.32-1.22-.31-1.22-.31-1.23-.31-1.23-.3-1.22-.3-1.24-.29-1.23-.3-1.23-.29-1.24-.28-1.24-.29-1.24-.27-1.24-.28-1.25-.27-1.24-.27-1.25-.27-1.25-.26-1.25-.26-1.26-.26-1.25-.25-1.26-.25-1.26-.25-1.26-.24-1.27-.24-1.26-.24-1.27-.23-1.27-.23-1.27-.22-1.28-.23-1.27-.22-1.28-.21-1.28-.22-1.28-.21-1.28-.2-1.29-.21-1.29-.2-1.29-.19-1.29-.2-1.29-.19-1.29-.18-1.3-.19-1.3-.18-1.3-.17-1.3-.18-1.31-.17-1.31-.16-1.31-.17-1.31-.16-1.31-.15-1.31-.16-1.32-.15-1.32-.14-1.32-.15-1.32-.14-1.33-.13-1.32-.14-1.33-.13-1.33-.12-1.33" style="stroke-width:1.07;stroke:#000000;stroke-opacity:0.10;stroke-linecap:butt"/><path d="m284.74 387.63-.49-1.12-.49-1.12-.49-1.12-.48-1.12-.47-1.13-.47-1.13-.47-1.13-.47-1.13-.45-1.14-.46-1.14-.45-1.14-.45-1.14-.44-1.15-.44-1.15-.43-1.15-.44-1.16-.42-1.15-.42-1.16-.42-1.16-.42-1.16-.41-1.17-.4-1.17-.4-1.17-.4-1.17-.39-1.18-.39-1.18-.39-1.18-.38-1.18-.37-1.18-.38-1.19-.36-1.19-.37-1.2-.36-1.19-.35-1.2-.36-1.2-.34-1.2-.35-1.21-.34-1.2-.33-1.21-.33-1.22-.33-1.21-.32-1.22-.32-1.22-.31-1.22-.31-1.22-.31-1.23-.3-1.23-.3-1.23-.29-1.23-.29-1.24-.29-1.24-.28-1.24-.28-1.25-.27-1.24-.27-1.25-.26-1.25-.26-1.26-.26-1.25-.25-1.26-.25-1.26-.24-1.27-.24-1.26-.24-1.27-.23-1.27-.23-1.27-.22-1.28-.22-1.28-.21-1.28-.21-1.28-.21-1.29-.2-1.28-.2-1.29-.19-1.3-.19-1.29-.19-1.3-.18-1.3-.18-1.3-.17-1.31-.17-1.3-.17-1.31-.16-1.32-.15-1.31-.16-1.32-.14-1.32-.15-1.32-.14-1.32-.14-1.33-.13-1.33-.12-1.33-.13-1.34-.12-1.33-.11-1.34-.11-1.34-.11-1.35-.1-1.34-.1-1.35-.1-1.35-.09-1.36-.08-1.35" style="stroke-width:1.07;stroke:#000000;stroke-opacity:0.10;stroke-linecap:butt"/><path d="m284.74 387.63-.53-1.09-.53-1.1-.53-1.1-.51-1.1-.52-1.1-.51-1.11-.5-1.11-.5-1.12-.49-1.11-.49-1.12-.48-1.12-.48-1.13-.47-1.13-.47-1.13-.47-1.13-.46-1.14-.45-1.14-.45-1.14-.44-1.15-.44-1.15-.43-1.15-.43-1.16-.43-1.15-.42-1.16-.41-1.17-.41-1.16-.4-1.17-.4-1.17-.4-1.18-.38-1.18-.39-1.18-.38-1.18-.37-1.19-.37-1.19-.36-1.19-.36-1.2-.36-1.2-.35-1.2-.34-1.2-.34-1.21-.33-1.21-.33-1.21-.33-1.22-.32-1.22-.31-1.22-.31-1.23-.31-1.22-.29-1.23-.3-1.24-.29-1.23-.28-1.24-.28-1.25-.28-1.24-.27-1.25-.26-1.25-.26-1.26-.26-1.25-.24-1.26-.25-1.27-.24-1.26-.23-1.27-.23-1.27-.23-1.28-.22-1.27-.21-1.28-.21-1.29-.21-1.28-.2-1.29-.19-1.3-.19-1.29-.19-1.3-.18-1.3-.17-1.3-.17-1.31-.17-1.31-.16-1.31-.15-1.32-.15-1.32-.15-1.32-.14-1.32-.13-1.33-.13-1.33-.13-1.33-.12-1.34-.11-1.34-.11-1.34-.11-1.35-.1-1.34-.09-1.35-.09-1.36-.09-1.35-.08-1.36-.08-1.37-.07-1.36-.06-1.37-.06-1.37-.06-1.38-.05-1.37-.04-1.38" style="stroke-width:1.07;stroke:#000000;stroke-opacity:0.10;stroke-linecap:butt"/><path d="m284.74 387.63-.57-1.07-.57-1.07-.56-1.08-.56-1.08-.55-1.08-.55-1.09-.54-1.09-.53-1.09-.53-1.1-.52-1.1-.51-1.1-.51-1.11-.51-1.11-.5-1.11-.49-1.12-.49-1.12-.48-1.12-.47-1.13-.47-1.13-.47-1.13-.45-1.14-.46-1.14-.44-1.15-.44-1.14-.44-1.16-.43-1.15-.42-1.16-.42-1.16-.41-1.16-.4-1.17-.4-1.17-.4-1.18-.38-1.18-.39-1.18-.37-1.19-.37-1.18-.37-1.2-.36-1.19-.35-1.2-.35-1.2-.34-1.21-.34-1.21-.33-1.21-.32-1.22-.32-1.22-.31-1.22-.31-1.23-.3-1.23-.3-1.23-.28-1.24-.29-1.24-.28-1.24-.27-1.25-.26-1.25-.26-1.25-.26-1.26-.25-1.26-.24-1.26-.24-1.27-.23-1.27-.23-1.27-.21-1.28-.22-1.28-.21-1.29-.2-1.29-.2-1.29-.19-1.29-.18-1.3-.18-1.3-.17-1.31-.17-1.3-.16-1.32-.16-1.31-.15-1.32-.14-1.32-.14-1.33-.13-1.33-.13-1.33-.12-1.33-.12-1.34-.11-1.34-.1-1.35-.1-1.35-.09-1.35-.09-1.36-.08-1.36-.07-1.36-.07-1.37-.06-1.37-.06-1.37-.05-1.38-.05-1.38-.04-1.38-.03-1.39-.03-1.39-.02-1.39-.02-1.4-.01-1.4v-1.4" style="stroke-width:1.07;stroke:#000000;stroke-opacity:0.10;stroke-linecap:butt"/><path d="m284.74 387.63-.61-1.04-.61-1.05-.6-1.06-.6-1.05-.59-1.06-.58-1.07-.57-1.07-.57-1.07-.56-1.08-.56-1.08-.55-1.08-.54-1.09-.53-1.09-.53-1.1-.52-1.1-.52-1.1-.51-1.11-.5-1.11-.49-1.12-.49-1.12-.48-1.12-.48-1.13-.47-1.13-.46-1.14-.45-1.13-.45-1.15-.45-1.14-.43-1.16-.43-1.15-.42-1.16-.42-1.16-.41-1.17-.4-1.17-.39-1.17-.39-1.18-.38-1.18-.38-1.19-.37-1.19-.36-1.19-.36-1.2-.35-1.2-.34-1.21-.34-1.2-.32-1.22-.33-1.21-.31-1.23-.31-1.22-.31-1.23-.29-1.23-.29-1.24-.28-1.24-.28-1.24-.27-1.25-.26-1.25-.26-1.26-.25-1.26-.24-1.26-.24-1.27-.23-1.27-.22-1.28-.22-1.28-.21-1.28-.2-1.29-.2-1.29-.19-1.3-.18-1.3-.18-1.3-.17-1.31-.16-1.31-.16-1.31-.15-1.32-.14-1.32-.14-1.33-.13-1.33-.12-1.33-.12-1.34-.11-1.34-.1-1.35-.1-1.35-.09-1.35-.08-1.36-.08-1.36-.07-1.37-.06-1.37-.06-1.37-.05-1.38-.04-1.38-.04-1.38-.03-1.39-.03-1.39-.01-1.4-.01-1.4-.01-1.4v-1.41l.01-1.42.02-1.41.02-1.42.03-1.43.04-1.42" style="stroke-width:1.07;stroke:#000000;stroke-opacity:0.10;stroke-linecap:butt"/><path d="m284.74 387.63-.66-1.02-.64-1.03-.64-1.03-.64-1.03-.62-1.04-.62-1.04-.61-1.05-.6-1.05-.6-1.06-.59-1.06-.58-1.07-.57-1.07-.57-1.07-.55-1.08-.55-1.08-.55-1.09-.53-1.09-.53-1.1-.52-1.1-.52-1.1-.5-1.11-.5-1.12-.49-1.11-.49-1.13-.47-1.12-.47-1.13-.46-1.14-.46-1.14-.44-1.14-.44-1.15-.43-1.16-.43-1.15-.41-1.17-.41-1.16-.4-1.17-.4-1.18-.38-1.18-.38-1.18-.37-1.19-.37-1.19-.35-1.2-.35-1.2-.34-1.21-.34-1.21-.33-1.21-.31-1.22-.32-1.22-.3-1.23-.3-1.23-.29-1.24-.28-1.24-.27-1.25-.27-1.25-.26-1.25-.25-1.26-.25-1.26-.23-1.27-.23-1.27-.23-1.28-.21-1.28-.21-1.28-.2-1.29-.19-1.3-.19-1.29-.17-1.31-.17-1.3-.16-1.32-.16-1.31-.15-1.32-.14-1.33-.13-1.32-.13-1.34-.11-1.34-.11-1.34-.11-1.34-.09-1.35-.09-1.36-.08-1.36-.07-1.36-.07-1.37-.06-1.37-.05-1.38-.04-1.38-.04-1.39-.02-1.39-.02-1.39-.02-1.4v-2.81l.01-1.42.01-1.41.03-1.42.03-1.43.04-1.43.05-1.43.05-1.44.06-1.44.07-1.45.08-1.45" style="stroke-width:1.07;stroke:#000000;stroke-opacity:0.10;stroke-linecap:butt"/><path d="m385.32 392.02 1.91 3.32h-3.83zm-55.71-241.48 4.94 8.54h-9.87zM162.19 381.49l7.42 12.86h-14.85z" style="stroke-width:0.71;stroke:none;fill:#00BA38"/><path d="M277.98 394.39h13.52v-13.51h-13.52z" style="stroke-width:0.71;stroke:none;fill:#619CFF"/><circle cx="256.09" cy="265.21" r="6.26" style="stroke-width:0.71;stroke:none;fill:#F8766D"/><circle cx="49.42" cy="456.37" r="2.72" style="stroke-width:0.71;stroke:none;fill:#F8766D"/><path d="m380.63 392.01 3.62 1.71m-59.38-232.84 3.93-3.85M166.94 385.39l-3.94 3.87m126.64-6.22-4.07 3.81M261 260.59l-4.08 3.83" style="stroke-width:0.53;stroke:#BFBFBF"/><path d="M352.84 397.25h25.63-.09l.35-.01.34-.07.33-.13.3-.17.27-.22.23-.26.18-.29.14-.32.08-.34.03-.35h0v-6.96h0l-.03-.35-.08-.33-.14-.32-.18-.3-.23-.26-.27-.22-.3-.17-.33-.12-.34-.07-.26-.02h-25.63l.26.02-.35-.02-.34.04-.34.1-.31.15-.29.2-.25.24-.21.28-.16.3-.11.33-.05.35-.01.17v6.96l.01-.17v.35l.05.34.11.33.16.31.21.28.25.24.29.19.31.15.34.1.34.04z" style="stroke-width:0.53;fill:#FFFFFF;fill-opacity:0.50"/><text x="365.65" y="393.65" lengthAdjust="spacingAndGlyphs" style="font-size:5.69px;font-family:Arial" text-anchor="middle" textLength="22.75">2KB LLC</text><path d="M301.98 172.16h32.26-.09l.35-.01.34-.07.33-.12.3-.18.27-.22.23-.26.18-.29.14-.32.08-.34.03-.35h0v-6.96h0l-.03-.34-.08-.34-.14-.32-.18-.3-.23-.26-.27-.22-.3-.17-.33-.12-.34-.07-.26-.02h-32.26l.26.02-.34-.02-.35.05-.33.09-.32.15-.28.2-.25.24-.21.28-.16.31-.11.32-.06.35-.01.17V170l.01-.17v.35l.06.34.11.33.16.31.21.28.25.24.28.19.32.15.33.1.35.04z" style="stroke-width:0.53;fill:#FFFFFF;fill-opacity:0.50"/><text x="318.11" y="168.56" lengthAdjust="spacingAndGlyphs" style="font-size:5.69px;font-family:Arial" text-anchor="middle" textLength="29.38">CBMM LLC</text><path d="M138.77 385.39h69.87-.09l.35-.02.34-.07.33-.12.3-.17.27-.22.23-.26.18-.3.14-.32.08-.33.03-.35h0v-6.96h0l-.03-.35-.08-.34-.14-.32-.18-.29-.23-.26-.27-.22-.3-.17-.33-.13-.34-.07-.26-.01h-69.87l.26.01-.35-.01-.34.04-.33.1-.32.15-.28.19-.26.24-.2.28-.17.31-.11.33-.05.34-.01.18v6.96l.01-.17v.34l.05.35.11.33.17.3.2.28.26.24.28.2.32.15.33.1.34.04z" style="stroke-width:0.53;fill:#FFFFFF;fill-opacity:0.50"/><text x="173.71" y="381.79" lengthAdjust="spacingAndGlyphs" style="font-size:5.69px;font-family:Arial" text-anchor="middle" textLength="66.99">BKW INVESTMENTS LLC</text><path d="M267.73 383.04h66.08l-.09-.01.35-.01.34-.07.32-.12.31-.18.26-.22.24-.26.18-.29.14-.32.08-.34.03-.34h0v-15.16h0l-.03-.35-.08-.33-.14-.32-.18-.3-.24-.26-.26-.22-.31-.17-.32-.13-.34-.06-.26-.02h-66.08l.26.02-.34-.02-.35.04-.33.1-.32.15-.28.2-.25.24-.21.28-.16.3-.11.33-.06.35-.01.17v15.16l.01-.18v.35l.06.34.11.33.16.31.21.28.25.24.28.2.32.15.33.09.35.04z" style="stroke-width:0.53;fill:#FFFFFF;fill-opacity:0.50"/><text x="300.77" y="371.24" lengthAdjust="spacingAndGlyphs" style="font-size:5.69px;font-family:Arial" text-anchor="middle" textLength="63.19">11607 W GILBERT AVE,</text><text x="300.77" y="379.44" lengthAdjust="spacingAndGlyphs" style="font-size:5.69px;font-family:Arial" text-anchor="middle" textLength="61.61">MILWAUKEE, WI 53226</text><path d="M239.13 260.59h66.07-.08l.34-.01.34-.07.33-.13.3-.17.27-.22.23-.26.19-.29.13-.32.09-.34.02-.35h0v-15.15h0l-.02-.35-.09-.34-.13-.32-.19-.29-.23-.26-.27-.22-.3-.18-.33-.12-.34-.07-.26-.01h-66.07l.26.01-.35-.01-.34.04-.34.1-.31.15-.29.19-.25.24-.21.28-.16.31-.11.33-.05.34-.01.18v15.15l.01-.17v.35l.05.34.11.33.16.31.21.28.25.24.29.19.31.15.34.1.34.04z" style="stroke-width:0.53;fill:#FFFFFF;fill-opacity:0.50"/><text x="272.17" y="248.8" lengthAdjust="spacingAndGlyphs" style="font-size:5.69px;font-family:Arial" text-anchor="middle" textLength="63.19">11607 W GILBERT AVE,</text><text x="272.17" y="256.99" lengthAdjust="spacingAndGlyphs" style="font-size:5.69px;font-family:Arial" text-anchor="middle" textLength="61.61">MILWAUKEE, WI 53226</text><path d="M56.09 466.1h68.28-.09l.35-.01.34-.07.33-.12.3-.18.27-.22.23-.26.18-.29.14-.32.08-.34.03-.35h0v-15.15h0l-.03-.35-.08-.34-.14-.32-.18-.29-.23-.26-.27-.22-.3-.17-.33-.13-.34-.07-.26-.01H56.09l.26.01-.35-.01-.35.04-.33.1-.31.15-.29.19-.25.25-.21.27-.16.31-.11.33-.06.34v15.33-.17.35l.06.34.11.33.16.31.21.28.25.24.29.19.31.15.33.1.35.04z" style="stroke-width:0.53;fill:#FFFFFF;fill-opacity:0.50"/><text x="90.23" y="454.31" lengthAdjust="spacingAndGlyphs" style="font-size:5.69px;font-family:Arial" text-anchor="middle" textLength="56.24">1607 W GILBERT AV,</text><text x="90.23" y="462.5" lengthAdjust="spacingAndGlyphs" style="font-size:5.69px;font-family:Arial" text-anchor="middle" textLength="65.4">WAUWATOSA, WI 53226</text></g><g clip-path="url(#cpMC4wMHw0MzIuMDB8MC4wMHw1MDQuMDA=)"><circle cx="124.98" cy="116.15" r="1.95" style="stroke-width:0.71;stroke:none;fill:#F8766D"/><path d="m201.33 113.11 2.63 4.56h-5.26z" style="stroke-width:0.71;stroke:none;fill:#00BA38"/><path d="M267.31 118.1h3.91v-3.91h-3.91z" style="stroke-width:0.71;stroke:none;fill:#619CFF"/><text x="139.09" y="119.3" lengthAdjust="spacingAndGlyphs" style="font-size:8.80px;font-family:Arial Narrow" textLength="48.12">mprop address</text><text x="215.45" y="119.3" lengthAdjust="spacingAndGlyphs" style="font-size:8.80px;font-family:Arial Narrow" textLength="39.69">owner name</text><text x="283.38" y="119.3" lengthAdjust="spacingAndGlyphs" style="font-size:8.80px;font-family:Arial Narrow" textLength="40.5">wdfi address</text><text x="32.63" y="84.56" lengthAdjust="spacingAndGlyphs" style="font-size:12.00px;font-family:Arial Narrow" textLength="252.23">includes 19 parcels, 46 units, and 3 distinct owner names.</text><text x="32.63" y="42.78" lengthAdjust="spacingAndGlyphs" style="font-size:18.00px;font-weight:bold;font-family:Arial Narrow" textLength="321.36">BKW INVESTMENTS LLC -- CBMM LLC -- 2KB</text><text x="32.63" y="62.22" lengthAdjust="spacingAndGlyphs" style="font-size:18.00px;font-weight:bold;font-family:Arial Narrow" textLength="77.05">LLC Group</text></g></svg>