<svg xmlns="http://www.w3.org/2000/svg" width="576" height="672" class="svglite" viewBox="0 0 432 504"><defs><style><![CDATA[.svglite line,.svglite polyline,.svglite polygon,.svglite path,.svglite circle{fill:none;stroke:#000000;stroke-linecap:round;stroke-linejoin:round;stroke-miterlimit:10.00}.svglite text{white-space:pre}]]></style></defs><rect width="100%" height="100%" style="stroke-linecap:round;stroke-linejoin:round;stroke-miterlimit:10.00;stroke:none;fill:#FFFFFF"/><defs><clipPath id="cpMC4wMHw0MzIuMDB8MC4wMHw1MDQuMDA="><path d="M0 0h432v504H0z"/></clipPath></defs><g clip-path="url(#cpMC4wMHw0MzIuMDB8MC4wMHw1MDQuMDA=)"><path d="M0 0h432v504H0z" style="stroke-width:1.07;stroke:none;fill:#FFFFFF"/></g><defs><clipPath id="cpMzIuNjN8NDAyLjExfDE0MC4zMHw0NzEuMzc="><path d="M32.63 140.3h369.48v331.07H32.63z"/></clipPath></defs><g clip-path="url(#cpMzIuNjN8NDAyLjExfDE0MC4zMHw0NzEuMzc=)"><path d="m133.39 230.6-.43-.98-.44-.97-.45-.96-.45-.96-.47-.96-.47-.95-.48-.95-.5-.94-.5-.94-.5-.93-.52-.93-.53-.93-.53-.92-.54-.91-.55-.92-.56-.9-.57-.91-.57-.9-.59-.89-.59-.89-.6-.89-.61-.88-.62-.88-.63-.87-.64-.87-.64-.87-.65-.86-.66-.85-.67-.85-.68-.85-.69-.84-.69-.84-.71-.83-.71-.83-.72-.83-.73-.82-.74-.82-.74-.81-.76-.81-.76-.8-.77-.8-.78-.8-.79-.79-.8-.78-.8-.78-.82-.78-.82-.77-.83-.77-.84-.77-.85-.76-.86-.75-.86-.75-.88-.75-.88-.74-.89-.74-.9-.74-.91-.73-.91-.72-.93-.72-.93-.72-.94-.71-.95-.71-.96-.7-.97-.7-.97-.7-.99-.69-.99-.68-1-.68-1.01-.68-1.02-.67-1.03-.67-1.03-.67-1.05-.66-1.05-.65-1.06-.65-1.07-.65-1.08-.64-1.08-.64-1.1-.64-1.1-.63-1.11-.62-1.12-.62-1.13-.62-1.14-.61-1.14-.61-1.16-.6-1.16-.6-1.17-.59-1.18-.59-1.19-.59-1.2-.58-1.2-.58-1.22-.57-1.22-.57-1.23-.57-1.24-.56-1.25-.55-1.25-.55-1.27-.55m83.97 75.25.44.97.44.97.44.96.46.96.47.96.47.95.48.95.5.94.49.94.51.93.52.93.52.93.54.92.54.91.55.92.56.91.57.9.57.9.59.89.59.89.6.89.61.88.62.88.63.87.63.87.65.87.65.86.66.85.67.85.68.85.69.84.69.84.71.84.71.82.72.83.73.82.74.82.74.81.76.81.76.8.77.8.78.8.79.79.8.78.8.78.82.78.82.77.83.77.84.77.85.76.86.75.86.75.87.75.89.74.89.74.9.74.9.73.92.72.93.72.93.72.94.71.95.71.96.7.97.7.97.7.99.69.99.68 1 .68 1.01.68 1.02.67 1.03.67 1.03.67 1.04.66 1.06.65 1.06.65 1.07.65 1.07.64 1.09.64 1.1.64 1.1.63 1.11.62 1.12.62 1.13.62 1.14.61 1.14.61 1.16.6 1.16.6 1.17.59 1.18.59 1.19.59 1.2.58 1.2.58 1.22.57 1.22.57 1.23.57 1.24.56 1.25.55 1.25.55 1.27.55" style="stroke-width:1.07;stroke:#000000;stroke-opacity:0.10;stroke-linecap:butt"/><path d="m133.39 230.6-.7-.84-.72-.83-.71-.82-.72-.83-.72-.83-.72-.82-.73-.82-.73-.82-.73-.82-.74-.82-.73-.82-.74-.81-.75-.82-.74-.81-.75-.81-.75-.81-.76-.81-.76-.8-.76-.81-.76-.8-.77-.8-.77-.8-.77-.8-.77-.8-.78-.8-.78-.79-.78-.8-.79-.79-.79-.79-.79-.79-.79-.78-.8-.79-.8-.79-.8-.78-.81-.78-.81-.78-.81-.78-.81-.78-.82-.77-.82-.78-.82-.77-.83-.77-.83-.77-.83-.77-.83-.77-.84-.76-.84-.77-.84-.76-.85-.76-.84-.76-.85-.76-.86-.76-.86-.75-.85-.76-.87-.75-.86-.75-.87-.75-.87-.75-.88-.75-.87-.74-.88-.75-.88-.74-.89-.74-.89-.74-.89-.74-.89-.74-.9-.73-.9-.74-.9-.73-.9-.73-.91-.73-.91-.73-.91-.72-.92-.73-.92-.72-.92-.73-.93-.72-.92-.72-.93-.71-.94-.72-.93-.72-.94-.71-.94-.71-.95-.71-.95-.71-.95-.71-.95-.71-.96-.7-.95-.7-.97-.71-.96-.7-.97-.7-.97-.69-.97-.7-.98-.69-.97-.7-.99-.69-.98-.69-.99-.69m83.97 75.25.71.83.72.83.71.82.72.83.72.83.72.82.73.82.73.82.73.82.74.82.73.82.74.81.75.82.74.81.75.81.75.81.76.81.76.8.76.81.76.8.77.8.76.8.78.8.77.8.78.8.78.79.78.8.79.79.79.79.79.79.79.79.8.78.8.79.8.78.81.78.81.78.81.78.81.78.82.77.82.78.82.77.83.77.83.77.83.77.83.77.84.77.84.76.84.76.84.76.85.76.85.76.86.76.85.76.86.75.87.75.86.75.87.75.87.75.87.75.88.74.88.75.88.74.89.74.89.74.89.74.89.74.9.73.9.74.9.73.9.73.91.73.91.73.91.72.92.73.92.72.92.73.93.72.92.72.93.71.94.72.93.72.94.71.94.71.95.71.95.71.95.71.95.71.96.7.95.7.97.71.96.7.97.7.97.69.97.7.98.69.97.7.99.69.98.69.99.69" style="stroke-width:1.07;stroke:#000000;stroke-opacity:0.10;stroke-linecap:butt"/><path d="m133.39 230.6-.98-.69-.99-.69-.98-.7-.98-.69-.97-.69-.98-.7-.97-.7-.96-.7-.97-.7-.96-.7-.96-.7-.95-.71-.96-.7-.95-.71-.94-.71-.95-.71-.94-.71-.94-.72-.94-.71-.93-.72-.93-.72-.93-.72-.92-.72-.92-.72-.92-.72-.92-.73-.91-.73-.91-.72-.91-.73-.9-.73-.91-.74-.9-.73-.89-.74-.9-.73-.89-.74-.88-.74-.89-.74-.88-.75-.88-.74-.88-.74-.87-.75-.87-.75-.87-.75-.87-.75-.86-.75-.86-.76-.85-.75-.86-.76-.85-.76-.85-.76-.84-.76-.85-.76-.84-.77-.83-.76-.84-.77-.83-.77-.83-.77-.82-.77-.82-.78-.82-.77-.82-.78-.81-.77-.82-.78-.8-.78-.81-.78-.8-.79-.8-.78-.8-.79-.79-.79-.8-.79-.79-.79-.78-.79-.78-.79-.78-.8-.78-.79-.78-.8-.77-.8-.77-.8-.76-.8-.77-.81-.76-.8-.75-.81-.76-.8-.75-.81-.75-.82-.75-.81-.74-.81-.74-.82-.74-.81-.73-.82-.73-.82-.73-.82-.73-.82-.72-.83-.72-.82-.72-.83-.72-.83-.71-.83-.71-.83m83.97 75.25.99.68.99.69.98.7.98.69.97.69.97.7.97.7.97.7.97.7.96.7.96.7.95.71.96.7.95.71.94.71.95.71.94.71.94.72.93.71.94.72.93.72.93.72.92.72.92.72.92.72.92.73.91.73.91.72.91.73.9.74.91.73.9.73.89.74.9.73.89.74.88.74.89.74.88.75.88.74.88.75.87.74.87.75.87.75.87.75.86.75.86.76.85.75.86.76.85.76.85.76.84.76.84.76.84.77.84.76.84.77.83.77.82.77.83.77.82.78.82.77.82.78.81.77.82.78.8.78.81.78.8.79.8.78.8.79.79.79.8.79.78.79.79.79.78.79.78.8.78.79.78.8.77.8.77.8.76.8.77.81.76.8.75.81.76.81.75.8.75.82.74.81.75.81.74.82.74.81.73.82.73.82.73.82.73.82.72.83.72.82.72.83.72.83.71.83.71.83" style="stroke-width:1.07;stroke:#000000;stroke-opacity:0.10;stroke-linecap:butt"/><path d="m133.39 230.6-1.26-.55-1.26-.55-1.24-.56-1.24-.56-1.23-.56-1.23-.57-1.21-.57-1.21-.58-1.19-.58-1.19-.59-1.18-.59-1.17-.59-1.17-.6-1.15-.61-1.15-.6-1.13-.62-1.13-.61-1.12-.62-1.11-.63-1.11-.63-1.09-.63-1.09-.64-1.08-.64-1.06-.65-1.07-.65-1.05-.66-1.04-.66-1.04-.66-1.02-.67-1.02-.67-1.01-.68-1-.68-1-.69-.98-.69-.98-.69-.96-.7-.96-.71-.95-.7-.94-.72-.94-.71-.92-.72-.92-.73-.91-.73-.89-.73-.9-.74-.88-.74-.87-.75-.87-.75-.85-.76-.85-.76-.84-.76-.83-.77-.82-.77-.82-.78-.8-.78-.8-.79-.79-.79-.78-.79-.77-.8-.77-.81-.75-.8-.75-.82-.73-.81-.73-.82-.72-.83-.72-.83-.7-.83-.7-.84-.68-.84-.68-.85-.67-.85-.66-.86-.65-.86-.65-.86-.63-.87-.63-.87-.62-.88-.61-.88-.6-.89-.59-.89-.59-.9-.57-.9-.57-.9-.56-.91-.55-.91-.54-.92-.54-.92-.52-.92-.52-.93-.51-.94-.5-.93-.49-.95-.48-.94-.47-.96-.47-.95-.46-.96-.45-.97-.44-.97-.43-.97m83.97 75.25 1.27.54 1.26.55 1.24.56 1.24.56 1.23.56 1.23.57 1.21.57 1.21.58 1.19.58 1.19.59 1.18.59 1.17.59 1.16.6 1.16.61 1.14.6 1.14.62 1.13.61 1.12.62 1.11.63 1.11.63 1.09.63 1.09.64 1.07.64 1.07.65 1.06.65 1.06.66 1.04.66 1.04.66 1.02.67 1.02.67 1.01.68 1 .68.99.69.99.69.97.69.97.7.96.71.95.7.94.72.94.71.92.72.92.73.9.73.9.73.89.74.89.74.87.75.87.75.85.76.85.76.84.76.83.77.82.77.82.78.8.78.8.79.79.79.78.79.77.8.77.81.75.8.75.82.73.81.73.82.72.83.72.83.7.83.69.84.69.84.68.85.67.85.66.86.65.86.65.86.63.87.63.87.62.88.61.88.6.89.59.89.59.9.57.9.57.9.56.91.55.91.54.92.54.92.52.92.52.93.51.94.5.93.49.95.48.94.47.96.47.95.46.96.45.97.44.97.43.97m83.97 75.24.85.76.85.76.85.76.85.76.84.76.85.76.85.76.85.76.85.76.84.76.85.76.85.76.85.76.85.76.85.76.84.76.85.76.85.76.85.76.85.76.85.76.84.76.85.76.85.76.85.76.85.76.84.76.85.76.85.76.85.76.85.76.85.76.84.76.85.76.85.76.85.76.85.76.85.76.84.76.85.76.85.76.85.76.85.76.84.76.85.76.85.76.85.76.85.76.85.76.84.76.85.76.85.76.85.76.85.76.85.76.84.76.85.76.85.76.85.76.85.76.84.76.85.76.85.76.85.76.85.76.85.76.84.76.85.76.85.76.85.76.85.76.84.76.85.76.85.76.85.76.85.76.85.76.84.76.85.76.85.76.85.76.85.76.85.76.84.76.85.76.85.76.85.76.85.76.84.76.85.76.85.76.85.76.85.76.85.76.84.76.85.76.85.76.85.76.85.76m-83.98-75.24-.85-.76-.84-.76-.85-.76-.85-.76-.85-.76-.85-.76-.85-.76-.84-.76-.85-.76-.85-.76-.85-.76-.85-.76-.84-.76-.85-.76-.85-.76-.85-.76-.85-.76-.85-.76-.84-.76-.85-.76-.85-.76-.85-.76-.85-.76-.85-.76-.84-.76-.85-.76-.85-.76-.85-.76-.85-.76-.84-.76-.85-.76-.85-.76-.85-.76-.85-.76-.85-.76-.84-.76-.85-.76-.85-.76-.85-.76-.85-.76-.85-.76-.84-.76-.85-.76-.85-.76-.85-.76-.85-.76-.84-.76-.85-.76-.85-.76-.85-.76-.85-.76-.85-.76-.84-.76-.85-.76-.85-.76-.85-.76-.85-.76-.85-.76-.84-.76-.85-.76-.85-.76-.85-.76-.85-.76-.84-.76-.85-.76-.85-.76-.85-.76-.85-.76-.85-.76-.84-.76-.85-.76-.85-.76-.85-.76-.85-.76-.85-.76-.84-.76-.85-.76-.85-.76-.85-.76-.85-.76-.84-.76-.85-.76-.85-.76-.85-.76-.85-.76-.85-.76-.84-.76-.85-.76-.85-.76-.85-.76-.85-.76-.85-.76-.84-.76-.85-.76-.85-.76-.85-.76-.85-.76-.84-.76-.85-.76" style="stroke-width:1.07;stroke:#000000;stroke-opacity:0.10;stroke-linecap:butt"/><path d="m133.39 221.2 8.14 14.09h-16.27zm167.95 157.67 1.92 3.32h-3.83z" style="stroke-width:0.71;stroke:none;fill:#00BA38"/><circle cx="49.42" cy="155.35" r="6.04" style="stroke-width:0.71;stroke:none;fill:#F8766D"/><path d="M210.61 312.6h13.51v-13.52h-13.51z" style="stroke-width:0.71;stroke:none;fill:#619CFF"/><circle cx="385.32" cy="456.32" r="1.42" style="stroke-width:0.71;stroke:none;fill:#F8766D"/><path d="m128.47 235.23 4.09-3.85m173.75 145.03-4.14 3.89m-89.89-69.76 4.25-3.92" style="stroke-width:0.53;stroke:#BFBFBF"/><path d="M92.45 254.77h49.77-.09l.35-.01.34-.07.33-.13.3-.17.27-.22.23-.26.18-.29.14-.32.08-.34.03-.35h0v-15.22h0l-.03-.35-.08-.33-.14-.32-.18-.3-.23-.26-.27-.22-.3-.17-.33-.12-.34-.07-.26-.02H92.45l.26.02-.35-.02-.35.04-.33.1-.31.15-.29.2-.25.24-.21.28-.16.3-.11.33-.06.35v15.39-.17.35l.06.34.11.33.16.31.21.27.25.25.29.19.31.15.33.1.35.04z" style="stroke-width:0.53;fill:#FFFFFF;fill-opacity:0.50"/><text x="117.33" y="242.98" lengthAdjust="spacingAndGlyphs" style="font-size:5.69px;font-family:&quot;Liberation Sans&quot;" text-anchor="middle" textLength="33.36">BLUE LIGHT</text><text x="117.33" y="251.17" lengthAdjust="spacingAndGlyphs" style="font-size:5.69px;font-family:&quot;Liberation Sans&quot;" text-anchor="middle" textLength="46.89">PROPERTIES LLC</text><path d="M279.57 376.41h75.81l-.09-.01.35-.01.34-.07.32-.12.3-.18.27-.22.23-.26.19-.29.13-.32.09-.34.03-.34h0v-15.22h0l-.03-.35-.09-.34-.13-.32-.19-.29-.23-.26-.27-.22-.3-.18-.32-.12-.34-.07-.26-.01h-75.81l.26.01-.35-.01-.35.04-.33.1-.31.14-.29.2-.25.24-.21.28-.16.31-.11.33-.06.34v15.4-.18.35l.06.34.11.33.16.31.21.28.25.24.29.2.31.15.33.09.35.04z" style="stroke-width:0.53;fill:#FFFFFF;fill-opacity:0.50"/><text x="317.47" y="364.61" lengthAdjust="spacingAndGlyphs" style="font-size:5.69px;font-family:&quot;Liberation Sans&quot;" text-anchor="middle" textLength="72.93">SMART HOME SOLUTIONS</text><text x="317.47" y="372.81" lengthAdjust="spacingAndGlyphs" style="font-size:5.69px;font-family:&quot;Liberation Sans&quot;" text-anchor="middle" textLength="10.31">LLC</text><path d="M56.24 165.13h67.22-.09l.35-.02.34-.07.32-.12.31-.17.27-.22.23-.26.18-.3.14-.32.08-.33.03-.35h0v-15.22h0l-.03-.35-.08-.34-.14-.32-.18-.29-.23-.26-.27-.22-.31-.17-.32-.13-.34-.07-.26-.01H56.24l.26.01-.35-.01-.34.04-.34.1-.31.15-.29.2-.25.24-.21.27-.16.31-.11.33-.05.34-.01.18v15.22l.01-.17v.34l.05.35.11.33.16.3.21.28.25.24.29.2.31.15.34.1.34.04z" style="stroke-width:0.53;fill:#FFFFFF;fill-opacity:0.50"/><text x="89.85" y="153.34" lengthAdjust="spacingAndGlyphs" style="font-size:5.69px;font-family:&quot;Liberation Sans&quot;" text-anchor="middle" textLength="46.86">PO BOX 242442,</text><text x="89.85" y="161.53" lengthAdjust="spacingAndGlyphs" style="font-size:5.69px;font-family:&quot;Liberation Sans&quot;" text-anchor="middle" textLength="64.34">MILWAUKEE, WI 53224</text><path d="M163.05 338.28h67.21-.08l.34-.02.35-.07.32-.12.3-.17.27-.22.23-.26.19-.3.13-.32.09-.34.02-.34h0V312.7h0l-.02-.34-.09-.34-.13-.32-.19-.3-.23-.26-.27-.22-.3-.17-.32-.12-.35-.07-.26-.02h-67.21l.26.02-.35-.02-.35.05-.33.09-.31.15-.29.2-.25.24-.21.28-.16.31-.11.33-.06.34v23.59-.18.35l.06.35.11.32.16.31.21.28.25.24.29.2.31.15.33.09.35.05z" style="stroke-width:0.53;fill:#FFFFFF;fill-opacity:0.50"/><text x="196.65" y="318.29" lengthAdjust="spacingAndGlyphs" style="font-size:5.69px;font-family:&quot;Liberation Sans&quot;" text-anchor="middle" textLength="55.83">6825 BROWN DEER</text><text x="196.65" y="326.48" lengthAdjust="spacingAndGlyphs" style="font-size:5.69px;font-family:&quot;Liberation Sans&quot;" text-anchor="middle" textLength="50.86">RD, UNIT 242442,</text><text x="196.65" y="334.68" lengthAdjust="spacingAndGlyphs" style="font-size:5.69px;font-family:&quot;Liberation Sans&quot;" text-anchor="middle" textLength="64.34">MILWAUKEE, WI 53223</text><path d="M310.12 466.06h68.37-.08l.34-.01.34-.07.33-.12.3-.18.27-.22.23-.26.19-.29.13-.32.09-.34.02-.35h0v-15.22h0l-.02-.34-.09-.34-.13-.32-.19-.3-.23-.26-.27-.22-.3-.17-.33-.12-.34-.07-.26-.02h-68.37l.26.02-.34-.02-.35.05-.33.09-.32.15-.28.2-.25.24-.21.28-.16.31-.11.33-.06.34-.01.17v15.22l.01-.17v.35l.06.34.11.33.16.31.21.28.25.24.28.19.32.15.33.1.35.04z" style="stroke-width:0.53;fill:#FFFFFF;fill-opacity:0.50"/><text x="344.31" y="454.27" lengthAdjust="spacingAndGlyphs" style="font-size:5.69px;font-family:&quot;Liberation Sans&quot;" text-anchor="middle" textLength="65.49">PO BOX 621, MEQUON,</text><text x="344.31" y="462.46" lengthAdjust="spacingAndGlyphs" style="font-size:5.69px;font-family:&quot;Liberation Sans&quot;" text-anchor="middle" textLength="27.22">WI 53092</text></g><g clip-path="url(#cpMC4wMHw0MzIuMDB8MC4wMHw1MDQuMDA=)"><circle cx="122.24" cy="115.22" r="1.95" style="stroke-width:0.71;stroke:none;fill:#F8766D"/><path d="m198.59 112.18 2.63 4.56h-5.26z" style="stroke-width:0.71;stroke:none;fill:#00BA38"/><path d="M264.57 117.18h3.91v-3.91h-3.91z" style="stroke-width:0.71;stroke:none;fill:#619CFF"/><text x="136.36" y="118.25" lengthAdjust="spacingAndGlyphs" style="font-size:8.80px;font-family:&quot;Liberation Sans Narrow&quot;" textLength="48.12">mprop address</text><text x="212.71" y="118.25" lengthAdjust="spacingAndGlyphs" style="font-size:8.80px;font-family:&quot;Liberation Sans Narrow&quot;" textLength="39.69">owner name</text><text x="280.64" y="118.25" lengthAdjust="spacingAndGlyphs" style="font-size:8.80px;font-family:&quot;Liberation Sans Narrow&quot;" textLength="40.5">wdfi address</text><text x="32.63" y="83.67" lengthAdjust="spacingAndGlyphs" style="font-size:12.00px;font-family:&quot;Liberation Sans Narrow&quot;" textLength="241.29">includes 5 parcels, 7 units, and 2 distinct owner names.</text><text x="32.63" y="42.27" lengthAdjust="spacingAndGlyphs" style="font-size:18.00px;font-weight:bold;font-family:&quot;Liberation Sans Narrow&quot;" textLength="339.44">BLUE LIGHT PROPERTIES LLC -- SMART HOME</text><text x="32.63" y="61.71" lengthAdjust="spacingAndGlyphs" style="font-size:18.00px;font-weight:bold;font-family:&quot;Liberation Sans Narrow&quot;" textLength="167.26">SOLUTIONS LLC Group</text></g></svg>