<svg xmlns="http://www.w3.org/2000/svg" width="384" height="480" class="svglite" viewBox="0 0 288 360"><defs><style><![CDATA[.svglite line,.svglite polyline,.svglite polygon,.svglite path,.svglite circle{fill:none;stroke:#000000;stroke-linecap:round;stroke-linejoin:round;stroke-miterlimit:10.00}.svglite text{white-space:pre}]]></style></defs><rect width="100%" height="100%" style="stroke-linecap:round;stroke-linejoin:round;stroke-miterlimit:10.00;stroke:none;fill:#FFFFFF"/><defs><clipPath id="cpMC4wMHwyODguMDB8MC4wMHwzNjAuMDA="><path d="M0 0h288v360H0z"/></clipPath></defs><g clip-path="url(#cpMC4wMHwyODguMDB8MC4wMHwzNjAuMDA=)"><path d="M0 0h288v360H0z" style="stroke-width:1.07;stroke:none;fill:#FFFFFF"/></g><defs><clipPath id="cpMzIuNjN8MjU4LjExfDE1OS43NHwzMjcuMzc="><path d="M32.63 159.74h225.48v167.63H32.63z"/></clipPath></defs><g clip-path="url(#cpMzIuNjN8MjU4LjExfDE1OS43NHwzMjcuMzc=)"><path d="m247.86 273.14-1.1-.59-1.11-.57-1.11-.57-1.11-.56-1.11-.56-1.12-.54-1.11-.54-1.12-.53-1.13-.52-1.12-.51-1.13-.51-1.13-.49-1.13-.49-1.14-.49-1.14-.47-1.14-.47-1.14-.46-1.14-.45-1.15-.44-1.15-.43-1.15-.43-1.16-.42-1.15-.41-1.16-.4-1.16-.4-1.17-.39-1.16-.38-1.17-.37-1.17-.36-1.18-.36-1.17-.35-1.18-.34-1.18-.33-1.19-.33-1.18-.31-1.19-.31-1.19-.3-1.2-.3-1.19-.28-1.2-.28-1.2-.27-1.2-.26-1.21-.26-1.21-.24-1.21-.24-1.21-.23-1.21-.22-1.22-.22-1.22-.21-1.22-.2-1.23-.19-1.22-.18-1.23-.18-1.24-.16-1.23-.16-1.24-.16-1.24-.14-1.24-.14-1.24-.12-1.25-.13-1.25-.11-1.25-.1-1.25-.1-1.26-.09-1.26-.08-1.26-.07-1.26-.07-1.27-.06-1.26-.05-1.28-.04-1.27-.03-1.27-.03-1.28-.02-1.28-.01h-2.57l-1.29.02-1.29.02-1.29.03-1.3.03-1.29.05-1.3.05-1.3.06-1.31.07-1.31.07-1.31.09-1.31.09-1.31.1-1.32.1-1.32.12-1.32.12-1.32.13-1.33.14-1.33.15-1.33.15-1.33.16-1.34.17-1.34.18-1.34.19" style="stroke-width:1.07;stroke:#000000;stroke-opacity:0.10;stroke-linecap:butt"/><path d="m247.86 273.14-1.13-.48-1.14-.47-1.14-.46-1.15-.46-1.14-.45-1.15-.44-1.15-.45-1.15-.43-1.15-.43-1.15-.42-1.15-.42-1.16-.41-1.16-.41-1.16-.4-1.16-.4-1.16-.39-1.17-.38-1.17-.38-1.17-.37-1.17-.37-1.17-.36-1.17-.36-1.18-.35-1.17-.34-1.18-.34-1.18-.34-1.19-.33-1.18-.32-1.19-.32-1.18-.31-1.19-.3-1.19-.3-1.2-.3-1.19-.29-1.2-.28-1.2-.28-1.2-.27-1.2-.27-1.2-.26-1.21-.25-1.2-.25-1.21-.25-1.21-.23-1.21-.24-1.22-.22-1.21-.23-1.22-.21-1.22-.21-1.22-.21-1.22-.2-1.22-.19-1.23-.19-1.23-.18-1.23-.18-1.23-.17-1.23-.16-1.23-.16-1.24-.16-1.24-.15-1.24-.14-1.24-.14-1.24-.13-1.25-.12-1.24-.13-1.25-.11-1.25-.11-1.25-.1-1.26-.1-1.25-.09-1.26-.09-1.26-.08-1.26-.08-1.26-.07-1.26-.06-1.27-.06-1.26-.06-1.27-.04-1.27-.05-1.28-.03-1.27-.03-1.28-.03-1.27-.02-1.28-.01-1.28-.01h-2.57l-1.29.01-1.29.01-1.29.02-1.29.03-1.29.03-1.3.03-1.29.05-1.3.04-1.3.06-1.3.06-1.31.06-1.3.07-1.31.08" style="stroke-width:1.07;stroke:#000000;stroke-opacity:0.10;stroke-linecap:butt"/><path d="m247.86 273.14-1.17-.37-1.17-.36-1.17-.36-1.18-.35-1.17-.35-1.18-.35-1.18-.34-1.18-.34-1.18-.34-1.18-.33-1.18-.33-1.18-.33-1.19-.33-1.18-.32-1.19-.31-1.18-.32-1.19-.31-1.19-.3-1.19-.31-1.19-.3-1.19-.29-1.2-.3-1.19-.29-1.2-.28-1.19-.29-1.2-.28-1.2-.27-1.2-.28-1.2-.27-1.2-.26-1.2-.27-1.21-.26-1.2-.25-1.21-.26-1.2-.25-1.21-.24-1.21-.25-1.21-.23-1.21-.24-1.21-.23-1.21-.23-1.22-.23-1.21-.22-1.22-.22-1.22-.22-1.21-.21-1.22-.21-1.22-.21-1.23-.2-1.22-.2-1.22-.19-1.22-.2-1.23-.18-1.23-.19-1.22-.18-1.23-.18-1.23-.18-1.23-.17-1.23-.17-1.24-.16-1.23-.17-1.24-.15-1.23-.16-1.24-.15-1.24-.15-1.23-.15-1.24-.14-1.24-.14-1.25-.13-1.24-.13-1.24-.13-1.25-.13-1.24-.12-1.25-.12-1.25-.11-1.25-.11-1.25-.11-1.25-.11-1.25-.1-1.26-.1-1.25-.09-1.26-.09-1.25-.09-1.26-.09-1.26-.08-1.26-.08-1.26-.07-1.26-.07-1.26-.07-1.27-.06-1.26-.06-1.27-.06-1.26-.06-1.27-.05-1.27-.05-1.27-.04-1.27-.04-1.27-.04-1.28-.03" style="stroke-width:1.07;stroke:#000000;stroke-opacity:0.10;stroke-linecap:butt"/><path d="m247.86 273.14-1.2-.26-1.21-.25-1.2-.25-1.21-.25-1.21-.25-1.2-.25-1.21-.25-1.21-.25-1.21-.24-1.21-.25-1.2-.24-1.21-.24-1.21-.24-1.21-.24-1.21-.24-1.21-.24-1.21-.23-1.22-.24-1.21-.23-1.21-.23-1.21-.24-1.21-.23-1.22-.23-1.21-.22-1.21-.23-1.22-.23-1.21-.22-1.22-.23-1.21-.22-1.22-.22-1.21-.22-1.22-.22-1.21-.22-1.22-.22-1.22-.21-1.22-.22-1.21-.21-1.22-.21-1.22-.22-1.22-.21-1.22-.2-1.22-.21-1.22-.21-1.22-.21-1.22-.2-1.22-.2-1.22-.21-1.22-.2-1.22-.2-1.22-.2-1.23-.2-1.22-.19-1.22-.2-1.23-.19-1.22-.2-1.23-.19-1.22-.19-1.23-.19-1.22-.19-1.23-.19-1.22-.18-1.23-.19-1.23-.19-1.22-.18-1.23-.18-1.23-.18-1.23-.18-1.22-.18-1.23-.18-1.23-.18-1.23-.17-1.23-.18-1.23-.17-1.23-.17-1.23-.17-1.23-.17-1.24-.17-1.23-.17-1.23-.17-1.23-.16-1.24-.17-1.23-.16-1.23-.16-1.24-.16-1.23-.16-1.24-.16-1.23-.16-1.24-.16-1.23-.15-1.24-.15-1.23-.16-1.24-.15-1.24-.15-1.24-.15-1.23-.15-1.24-.15-1.24-.14-1.24-.15-1.24-.14m121 19.72-1.24-.15-1.24-.14-1.23-.15-1.24-.15-1.24-.15-1.24-.15-1.23-.15-1.24-.15-1.24-.15-1.23-.16-1.24-.15-1.23-.16-1.24-.16-1.23-.16-1.24-.16-1.23-.16-1.24-.16-1.23-.16-1.23-.17-1.23-.16-1.24-.17-1.23-.17-1.23-.16-1.23-.17-1.23-.18-1.23-.17-1.23-.17-1.23-.18-1.23-.17-1.23-.18-1.23-.18-1.23-.18-1.23-.18-1.23-.18-1.22-.18-1.23-.18-1.23-.19-1.22-.18-1.23-.19-1.22-.19-1.23-.19-1.22-.19-1.23-.19-1.22-.19-1.23-.19-1.22-.2-1.22-.19-1.23-.2-1.22-.2-1.22-.2-1.22-.2-1.23-.2-1.22-.2-1.22-.21-1.22-.2-1.22-.21-1.22-.2-1.22-.21-1.22-.21-1.22-.21-1.21-.21-1.22-.22-1.22-.21-1.22-.22-1.21-.21-1.22-.22-1.22-.22-1.21-.22-1.22-.22-1.21-.22-1.22-.22-1.21-.22-1.22-.23-1.21-.23-1.22-.22-1.21-.23-1.21-.23-1.21-.23-1.22-.23-1.21-.24-1.21-.23-1.21-.23-1.21-.24-1.21-.24-1.21-.24-1.21-.24-1.21-.24-1.21-.24-1.21-.24-1.21-.25-1.21-.24-1.2-.25-1.21-.24-1.21-.25-1.2-.25-1.21-.25-1.21-.26-1.2-.25-1.21-.25" style="stroke-width:1.07;stroke:#000000;stroke-opacity:0.10;stroke-linecap:butt"/><path d="m247.86 273.14-1.27-.04-1.27-.04-1.27-.04-1.27-.04-1.27-.05-1.27-.05-1.27-.05-1.26-.06-1.27-.06-1.26-.07-1.26-.07-1.27-.07-1.26-.07-1.26-.08-1.25-.08-1.26-.09-1.26-.08-1.25-.1-1.26-.09-1.25-.1-1.25-.1-1.26-.1-1.25-.11-1.24-.11-1.25-.12-1.25-.12-1.25-.12-1.24-.13-1.24-.12-1.25-.14-1.24-.13-1.24-.14-1.24-.14-1.24-.15-1.24-.15-1.23-.15-1.24-.15-1.23-.16-1.24-.16-1.23-.17-1.23-.17-1.23-.17-1.23-.18-1.23-.17-1.23-.19-1.22-.18-1.23-.19-1.22-.19-1.23-.2-1.22-.2-1.22-.2-1.22-.21-1.22-.21-1.22-.21-1.22-.22-1.21-.22-1.22-.22-1.21-.22-1.21-.23-1.21-.24-1.22-.23-1.21-.24-1.2-.25-1.21-.24-1.21-.25-1.2-.25-1.21-.26-1.2-.26-1.2-.26-1.21-.27-1.2-.27-1.2-.27-1.19-.28-1.2-.28-1.2-.28-1.19-.29-1.2-.29-1.19-.29-1.19-.3-1.19-.3-1.19-.3-1.19-.31-1.19-.31-1.19-.31-1.18-.32-1.19-.32-1.18-.33-1.19-.32-1.18-.33-1.18-.34-1.18-.33-1.18-.34-1.17-.35-1.18-.35-1.18-.35-1.17-.35-1.17-.36-1.18-.36-1.17-.36m-37.01-86.06.37.87.38.87.37.87.37.87.38.87.37.87.38.87.37.87.37.87.38.86.37.87.37.87.38.87.37.87.38.87.37.87.37.87.38.87.37.87.38.87.37.87.37.87.38.86.37.87.38.87.37.87.37.87.38.87.37.87.37.87.38.87.37.87.38.87.37.87.37.87.38.86.37.87.38.87.37.87.37.87.38.87.37.87.37.87.38.87.37.87.38.87.37.87.37.87.38.86.37.87.38.87.37.87.37.87.38.87.37.87.38.87.37.87.37.87.38.87.37.87.37.87.38.87.37.86.38.87.37.87.37.87.38.87.37.87.38.87.37.87.37.87.38.87.37.87.38.87.37.87.37.86.38.87.37.87.37.87.38.87.37.87.38.87.37.87.37.87.38.87.37.87.38.87.37.87.37.86.38.87.37.87.38.87.37.87.37.87.38.87.37.87.37.87.38.87.37.87" style="stroke-width:1.07;stroke:#000000;stroke-opacity:0.10;stroke-linecap:butt"/><path d="m247.86 273.14-1.3.07-1.31.07-1.3.07-1.3.05-1.3.06-1.3.05-1.3.04-1.29.03-1.3.04-1.29.02-1.29.02-1.29.01-1.28.01-1.29.01-1.28-.01-1.28-.01-1.28-.01-1.28-.02-1.27-.02-1.28-.04-1.27-.03-1.27-.04-1.27-.05-1.27-.06-1.26-.05-1.27-.07-1.26-.07-1.26-.07-1.26-.09-1.25-.08-1.26-.1-1.25-.09-1.25-.11-1.25-.11-1.25-.11-1.25-.12-1.24-.13-1.25-.13-1.24-.14-1.24-.14-1.23-.15-1.24-.15-1.23-.16-1.24-.17-1.23-.17-1.23-.18-1.23-.18-1.22-.19-1.22-.19-1.23-.2-1.22-.21-1.22-.21-1.21-.21-1.22-.22-1.21-.23-1.21-.23-1.21-.24-1.21-.25-1.21-.25-1.2-.25-1.21-.26-1.2-.27-1.2-.27-1.2-.28-1.19-.28-1.2-.29-1.19-.29-1.19-.3-1.19-.31-1.19-.31-1.18-.32-1.19-.32-1.18-.33-1.18-.33-1.18-.34-1.18-.35-1.17-.35-1.18-.36-1.17-.36-1.17-.36-1.17-.38-1.16-.38-1.17-.38-1.16-.39-1.17-.4-1.16-.4-1.15-.4-1.16-.42-1.15-.41-1.16-.43-1.15-.43-1.15-.43-1.15-.44-1.14-.45-1.15-.45-1.14-.46-1.14-.46-1.14-.47-1.14-.47m-83.98 66.33.85-.67.84-.67.85-.67.85-.67.85-.67.85-.67.85-.67.84-.67.85-.67.85-.67.85-.67.85-.67.85-.67.84-.67.85-.67.85-.67.85-.67.85-.67.85-.67.84-.67.85-.67.85-.67.85-.67.85-.67.85-.67.84-.67.85-.67.85-.67.85-.67.85-.67.85-.67.84-.67.85-.67.85-.67.85-.67.85-.67.85-.67.84-.67.85-.67.85-.67.85-.67.85-.67.85-.67.84-.67.85-.67.85-.67.85-.67.85-.67.85-.67.84-.67.85-.67.85-.67.85-.67.85-.67.85-.67.84-.67.85-.67.85-.67.85-.67.85-.67.85-.67.84-.67.85-.67.85-.67.85-.67.85-.67.85-.67.84-.67.85-.67.85-.67.85-.67.85-.67.85-.67.84-.67.85-.67.85-.67.85-.67.85-.67.85-.67.84-.67.85-.67.85-.67.85-.67.85-.67.85-.67.84-.67.85-.67.85-.67.85-.67.85-.67.85-.67.84-.67.85-.67.85-.67.85-.67.85-.67.85-.67.84-.67.85-.67" style="stroke-width:1.07;stroke:#000000;stroke-opacity:0.10;stroke-linecap:butt"/><path d="m247.86 273.14-1.34.18-1.34.18-1.33.17-1.34.16-1.33.16-1.33.14-1.32.14-1.33.13-1.32.12-1.32.12-1.31.11-1.32.1-1.31.09-1.31.08-1.31.08-1.3.06-1.3.06-1.3.06-1.3.04-1.29.04-1.3.03-1.29.02-1.28.01h-2.57l-1.28-.01-1.28-.02-1.28-.02-1.27-.04-1.27-.04-1.27-.05-1.26-.06-1.27-.06-1.26-.08-1.26-.08-1.25-.09-1.26-.09-1.25-.11-1.25-.11-1.24-.12-1.25-.13-1.24-.14-1.24-.14-1.23-.15-1.24-.16-1.23-.17-1.23-.18-1.23-.18-1.22-.19-1.22-.2-1.22-.21-1.22-.21-1.22-.23-1.21-.23-1.21-.23-1.21-.25-1.2-.26-1.2-.26-1.21-.27-1.19-.27-1.2-.29-1.19-.29-1.19-.31-1.19-.3-1.19-.32-1.18-.33-1.18-.33-1.18-.34-1.18-.35-1.17-.35-1.17-.37-1.17-.37-1.17-.38-1.16-.39-1.16-.39-1.16-.41-1.16-.41-1.15-.42-1.16-.42-1.15-.44-1.14-.44-1.15-.45-1.14-.46-1.14-.47-1.14-.47-1.13-.48-1.13-.49-1.13-.5-1.13-.51-1.13-.51-1.12-.52-1.12-.53-1.12-.54-1.12-.54-1.11-.55-1.11-.56-1.11-.57-1.1-.58-1.11-.58" style="stroke-width:1.07;stroke:#000000;stroke-opacity:0.10;stroke-linecap:butt"/><path d="m247.86 263.61 8.25 14.29h-16.5zM89.85 165.15l1.91 3.32h-3.83zM42.88 317.54l1.91 3.32h-3.83z" style="stroke-width:0.71;stroke:none;fill:#00BFC4"/><circle cx="126.86" cy="253.42" r="6.76" style="stroke-width:0.71;stroke:none;fill:#F8766D"/><path d="m92.69 171.91-2.28-3.64M47.65 315.9l-3.86 3.12m77.15-61.07 4.99-3.82" style="stroke-width:0.53;stroke:#BFBFBF"/><path d="M184.92 278.81h55.91-.08l.35-.02.34-.07.32-.12.3-.17.27-.22.23-.26.19-.3.13-.32.09-.33.02-.35h0v-7.03h0l-.02-.34-.09-.34-.13-.32-.19-.3-.23-.26-.27-.22-.3-.17-.32-.12-.34-.07-.27-.02h-55.91l.26.02-.35-.02-.34.05-.34.09-.31.15-.29.2-.25.24-.21.28-.16.31-.11.33-.05.34-.01.17v7.03l.01-.17v.34l.05.35.11.33.16.3.21.28.25.24.29.2.31.15.34.1.34.04z" style="stroke-width:0.53;fill:#FFFFFF;fill-opacity:0.50"/><text x="212.88" y="275.21" lengthAdjust="spacingAndGlyphs" style="font-size:5.69px;font-family:&quot;Liberation Sans&quot;" text-anchor="middle" textLength="53.04">BRIAN ROSLAWSKI</text><path d="M66.09 191.45h53.94-.09l.35-.02.34-.07.32-.12.3-.17.27-.22.23-.26.19-.3.14-.32.08-.33.03-.35h0v-15.22h0l-.03-.35-.08-.34-.14-.32-.19-.29-.23-.26-.27-.22-.3-.17-.32-.13-.34-.07-.26-.01H66.09l.26.01-.35-.01-.35.04-.33.1-.31.15-.29.2-.25.24-.21.27-.16.31-.11.33-.06.34v15.4-.17.34l.06.35.11.33.16.3.21.28.25.24.29.2.31.15.33.1.35.04z" style="stroke-width:0.53;fill:#FFFFFF;fill-opacity:0.50"/><text x="93.06" y="179.66" lengthAdjust="spacingAndGlyphs" style="font-size:5.69px;font-family:&quot;Liberation Sans&quot;" text-anchor="middle" textLength="51.06">JOHANNA PERRINI</text><text x="93.06" y="187.85" lengthAdjust="spacingAndGlyphs" style="font-size:5.69px;font-family:&quot;Liberation Sans&quot;" text-anchor="middle" textLength="33.55">ROSLAWSKI</text><path d="M49.81 318.66H120h-.08l.34-.02.34-.07.33-.12.3-.17.27-.22.23-.26.19-.3.13-.32.08-.34.03-.34h0v-7.03h0l-.03-.35-.08-.33-.13-.32-.19-.3-.23-.26-.27-.22-.3-.17-.33-.12-.34-.07-.26-.02H49.81l.26.02-.35-.02-.34.04-.34.1-.31.15-.29.2-.25.24-.21.28-.16.3-.11.33-.05.35-.01.17v7.03l.01-.18v.35l.05.34.11.33.16.31.21.28.25.24.29.2.31.15.34.09.34.05z" style="stroke-width:0.53;fill:#FFFFFF;fill-opacity:0.50"/><text x="84.91" y="315.06" lengthAdjust="spacingAndGlyphs" style="font-size:5.69px;font-family:&quot;Liberation Sans&quot;" text-anchor="middle" textLength="67.31">JOHANNA P ROSLAWSKI</text><path d="M67.99 285.69h68.25l-.08-.01.34-.01.34-.07.33-.12.3-.18.27-.22.23-.26.18-.29.14-.32.08-.34.03-.34h0v-23.42h0l-.03-.35-.08-.33-.14-.32-.18-.3-.23-.26-.27-.22-.3-.17-.33-.12-.34-.07-.26-.02H67.99l.26.02-.35-.02-.35.04-.33.1-.31.15-.29.2-.25.24-.21.28-.16.3-.11.33-.06.35v23.59-.18.35l.06.34.11.33.16.31.21.28.25.24.29.2.31.15.33.09.35.04z" style="stroke-width:0.53;fill:#FFFFFF;fill-opacity:0.50"/><text x="102.11" y="265.7" lengthAdjust="spacingAndGlyphs" style="font-size:5.69px;font-family:&quot;Liberation Sans&quot;" text-anchor="middle" textLength="65.38">810 CARDINAL LN, STE</text><text x="102.11" y="273.89" lengthAdjust="spacingAndGlyphs" style="font-size:5.69px;font-family:&quot;Liberation Sans&quot;" text-anchor="middle" textLength="56.4">100, HARTLAND, WI</text><text x="102.11" y="282.09" lengthAdjust="spacingAndGlyphs" style="font-size:5.69px;font-family:&quot;Liberation Sans&quot;" text-anchor="middle" textLength="18.11">53029</text></g><g clip-path="url(#cpMC4wMHwyODguMDB8MC4wMHwzNjAuMDA=)"><circle cx="84.61" cy="134.66" r="1.95" style="stroke-width:0.71;stroke:none;fill:#F8766D"/><path d="m160.96 131.62 2.63 4.56h-5.26z" style="stroke-width:0.71;stroke:none;fill:#00BFC4"/><text x="98.72" y="137.69" lengthAdjust="spacingAndGlyphs" style="font-size:8.80px;font-family:&quot;Liberation Sans Narrow&quot;" textLength="48.12">mprop address</text><text x="175.08" y="137.69" lengthAdjust="spacingAndGlyphs" style="font-size:8.80px;font-family:&quot;Liberation Sans Narrow&quot;" textLength="39.69">owner name</text><text x="32.63" y="103.11" lengthAdjust="spacingAndGlyphs" style="font-size:12.00px;font-family:&quot;Liberation Sans Narrow&quot;" textLength="252.23">includes 10 parcels, 20 units, and 3 distinct owner names.</text><text x="32.63" y="42.27" lengthAdjust="spacingAndGlyphs" style="font-size:18.00px;font-weight:bold;font-family:&quot;Liberation Sans Narrow&quot;" textLength="231.21">BRIAN ROSLAWSKI -- JOHANNA</text><text x="32.63" y="61.71" lengthAdjust="spacingAndGlyphs" style="font-size:18.00px;font-weight:bold;font-family:&quot;Liberation Sans Narrow&quot;" textLength="194.08">P ROSLAWSKI -- JOHANNA</text><text x="32.63" y="81.15" lengthAdjust="spacingAndGlyphs" style="font-size:18.00px;font-weight:bold;font-family:&quot;Liberation Sans Narrow&quot;" textLength="201.72">PERRINI ROSLAWSKI Group</text></g></svg>