<svg xmlns="http://www.w3.org/2000/svg" width="576" height="672" viewBox="0 0 432 504"><g class="svglite"><defs><style><![CDATA[.svglite line,.svglite polyline,.svglite polygon,.svglite path,.svglite circle{fill:none;stroke:#000000;stroke-linecap:round;stroke-linejoin:round;stroke-miterlimit:10.00}.svglite text{white-space:pre}.svglite g.glyphgroup path{fill:inherit;stroke:none}]]></style></defs><rect width="100%" height="100%" style="stroke-linecap:round;stroke-linejoin:round;stroke-miterlimit:10.00;stroke:none;fill:#FFFFFF"/><defs><clipPath id="cpMC4wMHw0MzIuMDB8MC4wMHw1MDQuMDA="><path d="M0 0h432v504H0z"/></clipPath></defs><g clip-path="url(#cpMC4wMHw0MzIuMDB8MC4wMHw1MDQuMDA=)"><path d="M0 0h432v504H0z" style="stroke-width:1.07;stroke:none;fill:#FFFFFF"/></g><defs><clipPath id="cpMjkuODl8NDAyLjExfDE2MS4wMnw0NzQuMTE="><path d="M29.89 161.02h372.22v313.09H29.89z"/></clipPath></defs><g clip-path="url(#cpMjkuODl8NDAyLjExfDE2MS4wMnw0NzQuMTE=)"><path d="m192.62 272.36.03.67.04.68.04.67.05.67.05.67.06.67.06.67.07.68.07.67.08.67.09.66.08.67.1.67.09.67.11.67.11.67.11.66.12.67.12.66.13.67.13.67.14.66.15.67.14.66.16.66.16.67.16.66.17.66.17.66.18.66.18.67.19.66.2.66.2.66.2.66.21.66.21.65.22.66.23.66.22.66.24.65.24.66.24.66.25.65.26.66.25.65.27.66.27.65.27.66.28.65.29.65.28.66.3.65.3.65.3.65.31.65.32.65.32.65.32.65.33.65.33.65.34.65.35.65.35.64.35.65.36.65.37.64.37.65.37.64.38.65.39.64.39.65.39.64.4.65.41.64.41.64.41.64.42.65.43.64.43.64.43.64.44.64.45.64.45.64.45.64.46.64.47.63.47.64.47.64.48.64.49.63.49.64.49.63.51.64.5.63.51.64.52.63.52.64.52.63m-27.64-64.68-1.31-.43-1.32-.42-1.32-.42-1.32-.42-1.32-.41-1.33-.4-1.33-.4-1.33-.4-1.34-.39-1.34-.39-1.34-.39-1.35-.38-1.35-.37-1.36-.37-1.35-.37-1.36-.36-1.37-.36-1.36-.35-1.37-.35-1.38-.35-1.37-.34-1.39-.33-1.38-.34-1.39-.32-1.39-.33-1.39-.32-1.4-.31-1.4-.31-1.4-.31-1.41-.3-1.41-.3-1.41-.29-1.42-.29-1.42-.28-1.42-.28-1.43-.28-1.43-.27-1.43-.27-1.43-.26-1.44-.26-1.45-.25-1.44-.25-1.45-.25-1.46-.24-1.45-.23-1.46-.24-1.47-.22-1.46-.23-1.47-.22-1.47-.21-1.48-.21-1.48-.21-1.48-.2-1.49-.2-1.49-.19-1.49-.19-1.5-.18-1.5-.18-1.5-.18-1.5-.17-1.51-.17-1.52-.16-1.51-.16-1.52-.15-1.52-.15-1.53-.15-1.53-.14-1.53-.14-1.54-.13-1.53-.13-1.55-.12-1.54-.12-1.55-.12-1.55-.11-1.56-.1-1.56-.11-1.56-.09-1.57-.1-1.56-.09-1.58-.08-1.57-.08-1.58-.08-1.58-.07-1.59-.07-1.59-.06-1.59-.06-1.59-.05-1.6-.05-1.6-.05-1.61-.04-1.61-.04-1.61-.03-1.61-.03-1.62-.02-1.62-.02-1.63-.01-1.63-.02h-3.26m338.38-75.84-.89.49-.9.5-.9.49-.9.49-.9.5-.89.49-.9.5-.9.49-.9.49-.9.5-.89.49-.9.5-.9.49-.9.49-.89.5-.9.49-.9.5-.9.49-.9.49-.89.5-.9.49-.9.5-.9.49-.89.49-.9.5-.9.49-.9.5-.9.49-.89.49-.9.5-.9.49-.9.49-.89.5-.9.49-.9.5-.9.49-.9.49-.89.5-.9.49-.9.5-.9.49-.89.49-.9.5-.9.49-.9.5-.9.49-.89.49-.9.5-.9.49-.9.5-.89.49-.9.49-.9.5-.9.49-.9.5-.89.49-.9.49-.9.5-.9.49-.89.49-.9.5-.9.49-.9.5-.9.49-.89.49-.9.5-.9.49-.9.5-.89.49-.9.49-.9.5-.9.49-.9.5-.89.49-.9.49-.9.5-.9.49-.89.5-.9.49-.9.49-.9.5-.9.49-.89.5-.9.49-.9.49-.9.5-.89.49-.9.5-.9.49-.9.49-.9.5-.89.49-.9.49-.9.5-.9.49-.89.5-.9.49-.9.49-.9.5m-56.64 174.69-.07.63-.07.63-.06.63-.06.62-.05.63-.05.63-.04.62-.04.63-.03.63-.03.62-.02.63-.02.62-.02.63-.01.62v1.88l.01.62.02.63.02.62.02.62.03.63.03.62.04.62.04.62.05.63.05.62.06.62.06.62.07.62.07.62.07.63.08.62.09.62.09.62.09.62.1.62.11.62.11.61.11.62.12.62.12.62.13.62.13.62.14.61.14.62.15.62.15.62.16.61.16.62.17.62.17.61.17.62.18.61.19.62.19.61.19.62.2.61.2.62.21.61.22.62.21.61.23.61.23.62.23.61.23.61.25.62.24.61.25.61.26.61.26.61.27.61.27.62.27.61.28.61.29.61.29.61.29.61.3.61.3.61.31.61.31.6.32.61.32.61.33.61.33.61.34.61.34.6.35.61.35.61.36.6.36.61.36.61.37.6.38.61.37.61.39.6.39.61.39.6m-63.01-187.52 1.04-.49 1.05-.49 1.05-.48 1.05-.49 1.04-.49 1.05-.48 1.05-.49 1.05-.49 1.04-.48 1.05-.49 1.05-.49 1.05-.48 1.04-.49 1.05-.49 1.05-.49 1.05-.48 1.04-.49 1.05-.49 1.05-.48 1.04-.49 1.05-.49 1.05-.48 1.05-.49 1.04-.49 1.05-.49 1.05-.48 1.05-.49 1.04-.49 1.05-.48 1.05-.49 1.05-.49 1.04-.48 1.05-.49 1.05-.49 1.05-.49 1.04-.48 1.05-.49 1.05-.49 1.05-.48 1.04-.49 1.05-.49 1.05-.48 1.05-.49 1.04-.49 1.05-.49 1.05-.48 1.05-.49 1.04-.49 1.05-.48 1.05-.49 1.05-.49 1.04-.48 1.05-.49 1.05-.49 1.04-.48 1.05-.49 1.05-.49 1.05-.49 1.04-.48 1.05-.49 1.05-.49 1.05-.48 1.04-.49 1.05-.49 1.05-.48 1.05-.49 1.04-.49 1.05-.49 1.05-.48 1.05-.49 1.04-.49 1.05-.48 1.05-.49 1.05-.49 1.04-.48 1.05-.49 1.05-.49 1.05-.49 1.04-.48 1.05-.49 1.05-.49 1.05-.48 1.04-.49 1.05-.49 1.05-.48 1.05-.49 1.04-.49 1.05-.48 1.05-.49 1.04-.49 1.05-.49 1.05-.48 1.05-.49 1.04-.49 1.05-.48 1.05-.49 1.05-.49 1.04-.48 1.05-.49" style="stroke-width:1.07;stroke:#000000;stroke-opacity:0.10;stroke-linecap:butt"/><path d="m192.62 272.36-1.48-.22-1.47-.21-1.47-.22-1.47-.21-1.48-.22-1.47-.21-1.47-.22-1.48-.21-1.47-.22-1.47-.21-1.47-.21-1.48-.22-1.47-.21-1.47-.22-1.48-.21-1.47-.22-1.47-.21-1.47-.22-1.48-.21-1.47-.22-1.47-.21-1.48-.22-1.47-.21-1.47-.22-1.47-.21-1.48-.22-1.47-.21-1.47-.22-1.48-.21-1.47-.22-1.47-.21-1.47-.22-1.48-.21-1.47-.22-1.47-.21-1.48-.22-1.47-.21-1.47-.22-1.47-.21-1.48-.22-1.47-.21-1.47-.22-1.47-.21-1.48-.22-1.47-.21-1.47-.22-1.48-.21-1.47-.22-1.47-.21-1.47-.22-1.48-.21-1.47-.22-1.47-.21-1.48-.21-1.47-.22-1.47-.21-1.47-.22-1.48-.21-1.47-.22-1.47-.21-1.48-.22-1.47-.21-1.47-.22-1.47-.21-1.48-.22-1.47-.21-1.47-.22-1.48-.21-1.47-.22-1.47-.21-1.47-.22-1.48-.21-1.47-.22-1.47-.21-1.48-.22-1.47-.21-1.47-.22-1.47-.21-1.48-.22-1.47-.21-1.47-.22-1.47-.21-1.48-.22-1.47-.21-1.47-.22-1.48-.21-1.47-.22-1.47-.21-1.47-.22-1.48-.21-1.47-.22-1.47-.21-1.48-.22-1.47-.21-1.47-.21-1.47-.22-1.48-.21-1.47-.22-1.47-.21m192.86 147.75-.2-.62-.19-.63-.2-.62-.2-.63-.19-.62-.2-.62-.19-.63-.2-.62-.2-.63-.19-.62-.2-.63-.19-.62-.2-.62-.2-.63-.19-.62-.2-.63-.19-.62-.2-.63-.2-.62-.19-.62-.2-.63-.19-.62-.2-.63-.2-.62-.19-.63-.2-.62-.19-.62-.2-.63-.2-.62-.19-.63-.2-.62-.19-.63-.2-.62-.2-.62-.19-.63-.2-.62-.19-.63-.2-.62-.2-.63-.19-.62-.2-.62-.19-.63-.2-.62-.2-.63-.19-.62-.2-.62-.19-.63-.2-.62-.2-.63-.19-.62-.2-.63-.19-.62-.2-.62-.2-.63-.19-.62-.2-.63-.19-.62-.2-.63-.2-.62-.19-.62-.2-.63-.19-.62-.2-.63-.2-.62-.19-.63-.2-.62-.19-.62-.2-.63-.2-.62-.19-.63-.2-.62-.19-.63-.2-.62-.2-.62-.19-.63-.2-.62-.19-.63-.2-.62-.2-.63-.19-.62-.2-.62-.19-.63-.2-.62-.2-.63-.19-.62-.2-.63-.19-.62-.2-.62-.2-.63-.19-.62-.2-.63-.19-.62-.2-.63-.2-.62-.19-.62-.2-.63-.19-.62-.2-.63-.2-.62m-27.64-64.68.52.63.52.64.52.63.51.63.5.64.5.63.5.64.49.64.49.63.48.64.47.64.47.63.47.64.46.64.45.64.45.64.45.64.44.64.43.64.43.64.43.64.42.64.41.65.41.64.41.64.4.65.39.64.39.64.39.65.38.64.37.65.37.64.37.65.36.65.35.64.35.65.34.65.34.65.34.65.33.65.32.65.32.65.32.65.31.65.3.65.3.65.29.65.29.66.29.65.28.65.27.66.27.65.26.65.26.66.26.65.25.66.24.66.24.65.23.66.23.66.23.66.22.65.21.66.21.66.2.66.2.66.2.66.18.66.19.66.18.66.17.67.17.66.16.66.16.67.15.66.15.66.15.67.14.66.13.67.13.66.12.67.12.67.11.66.11.67.1.67.1.67.1.66.08.67.09.67.08.67.07.67.07.67.06.67.06.68.05.67.05.67.04.67.04.68.03.67" style="stroke-width:1.07;stroke:#000000;stroke-opacity:0.10;stroke-linecap:butt"/><path d="M192.62 272.36h-1.64l-1.63-.01-1.63-.01-1.62-.02-1.62-.02-1.62-.02-1.62-.03-1.61-.03-1.61-.04-1.6-.04-1.61-.04-1.59-.05-1.6-.06-1.59-.06-1.59-.06-1.58-.07-1.59-.07-1.58-.08-1.57-.08-1.57-.08-1.57-.09-1.57-.09-1.56-.1-1.56-.1-1.55-.11-1.56-.11-1.54-.11-1.55-.12-1.54-.13-1.54-.13-1.54-.13-1.53-.13-1.53-.15-1.52-.14-1.53-.15-1.51-.16-1.52-.15-1.51-.17-1.51-.16-1.51-.18-1.5-.17-1.5-.18-1.5-.19-1.49-.18-1.49-.2-1.48-.2-1.49-.2-1.48-.2-1.47-.21-1.48-.22-1.46-.22-1.47-.22-1.46-.23-1.46-.23-1.46-.24-1.45-.24-1.45-.24-1.45-.25-1.44-.26-1.44-.26-1.44-.26-1.43-.27-1.43-.27-1.43-.27-1.42-.28-1.42-.29-1.42-.29-1.41-.29-1.41-.3-1.41-.3-1.4-.3-1.4-.31-1.4-.32-1.39-.32-1.39-.32-1.39-.33-1.38-.33-1.38-.34-1.38-.34-1.37-.34-1.37-.35-1.37-.36-1.36-.35-1.36-.37-1.36-.36-1.35-.37-1.36-.38-1.34-.38-1.35-.38-1.34-.39-1.33-.4-1.34-.39-1.33-.4-1.33-.41-1.32-.41-1.32-.41-1.32-.42-1.31-.43-1.31-.42m192.86 147.75.39.61.39.6.39.61.38.6.37.61.37.6.37.61.36.61.35.6.35.61.35.61.34.61.34.6.33.61.33.61.32.61.32.61.31.61.31.61.3.6.3.61.29.61.29.61.29.61.28.62.27.61.27.61.27.61.26.61.26.61.25.61.24.62.25.61.23.61.24.61.22.62.23.61.21.62.22.61.21.61.2.62.2.61.19.62.19.61.19.62.18.61.17.62.17.62.17.61.16.62.16.61.15.62.15.62.14.62.14.61.13.62.13.62.12.62.12.62.11.62.11.62.11.62.1.61.09.62.09.62.09.63.08.62.07.62.07.62.07.62.06.62.06.62.05.62.05.63.04.62.04.62.03.62.03.63.02.62.02.63.02.62.01.62v1.88l-.01.62-.02.63-.02.62-.02.63-.03.63-.03.62-.04.63-.04.62-.05.63-.05.63-.06.63-.06.62-.07.63-.07.63" style="stroke-width:1.07;stroke:#000000;stroke-opacity:0.10;stroke-linecap:butt"/><path d="m192.62 261.85 9.1 15.76h-18.2zm192.57-88.81 1.92 3.31h-3.83zM239.67 388.33l9.1 15.76h-18.2z" style="stroke-width:0.71;stroke:none;fill:#00BA38"/><circle cx="220.26" cy="337.04" r="6.76" style="stroke-width:0.71;stroke:none;fill:#F8766D"/><path d="M40.05 257.84h13.51v-13.51H40.05z" style="stroke-width:0.71;stroke:none;fill:#619CFF"/><circle cx="296.31" cy="224.15" r="5.19" style="stroke-width:0.71;stroke:none;fill:#F8766D"/><circle cx="255.63" cy="459.88" r="5.19" style="stroke-width:0.71;stroke:none;fill:#F8766D"/><path d="m187.37 277 4.38-3.88m43.36 133.62 4.01-6.95m-24.16-58.15 4.43-3.84m82.18-118.31-4.39 3.89M261 455.22l-4.49 3.9" style="stroke-width:0.53;stroke:#BFBFBF"/><path d="M147.47 296.31h56.3-.09l.35-.02.34-.07.32-.12.3-.17.27-.22.23-.26.19-.3.14-.32.08-.34.03-.34h0v-14.99h0l-.03-.35-.08-.34-.14-.32-.19-.29-.23-.26-.27-.22-.3-.17-.32-.13-.34-.07-.26-.01h-56.3l.26.01-.35-.01-.35.04-.33.1-.31.15-.29.19-.25.24-.21.28-.16.31-.11.33-.06.34v15.17-.18.35l.06.34.11.33.16.31.21.28.25.24.29.2.31.15.33.09.35.05z" style="stroke-width:0.53;fill:#FFFFFF;fill-opacity:0.50"/><text x="175.62" y="284.51" lengthAdjust="spacingAndGlyphs" style="font-size:5.69px;font-family:&quot;Liberation Sans&quot;" text-anchor="middle" textLength="53.42">LIVING MADE EASY</text><text x="175.62" y="292.71" lengthAdjust="spacingAndGlyphs" style="font-size:5.69px;font-family:&quot;Liberation Sans&quot;" text-anchor="middle" textLength="32.86">HOMES LLC</text><path d="M322.59 184.86h55.66l-.09-.01.35-.01.34-.07.32-.12.3-.18.27-.22.23-.26.19-.29.14-.32.08-.34.03-.34h0v-14.99h0l-.03-.35-.08-.34-.14-.32-.19-.29-.23-.26-.27-.22-.3-.18-.32-.12-.34-.07-.26-.01h-55.66l.26.01-.35-.01-.35.04-.33.1-.31.14-.29.2-.25.24-.21.28-.16.31-.11.33-.06.34v15.17-.18.35l.06.34.11.33.16.31.21.28.25.24.29.2.31.15.33.09.35.04z" style="stroke-width:0.53;fill:#FFFFFF;fill-opacity:0.50"/><text x="350.42" y="173.06" lengthAdjust="spacingAndGlyphs" style="font-size:5.69px;font-family:&quot;Liberation Sans&quot;" text-anchor="middle" textLength="52.78">BUFORD AND BELL</text><text x="350.42" y="181.26" lengthAdjust="spacingAndGlyphs" style="font-size:5.69px;font-family:&quot;Liberation Sans&quot;" text-anchor="middle" textLength="32.09">FAMILY TRT</text><path d="M177.29 422.26h55.66l-.09-.01.35-.01.34-.07.33-.12.3-.18.27-.22.23-.26.18-.29.14-.32.08-.34.03-.34h0v-15h0l-.03-.34-.08-.34-.14-.32-.18-.29-.23-.26-.27-.22-.3-.18-.33-.12-.34-.07-.26-.02h-55.66l.26.02-.35-.01-.34.04-.34.09-.31.15-.29.2-.25.24-.21.28-.16.31-.11.33-.05.34-.01.17v15l.01-.18v.35l.05.34.11.33.16.31.21.28.25.24.29.2.31.14.34.1.34.04z" style="stroke-width:0.53;fill:#FFFFFF;fill-opacity:0.50"/><text x="205.12" y="410.46" lengthAdjust="spacingAndGlyphs" style="font-size:5.69px;font-family:&quot;Liberation Sans&quot;" text-anchor="middle" textLength="52.78">BUFORD AND BELL</text><text x="205.12" y="418.66" lengthAdjust="spacingAndGlyphs" style="font-size:5.69px;font-family:&quot;Liberation Sans&quot;" text-anchor="middle" textLength="40.11">FAMILY TRUST</text><path d="M165.35 369.14h66.17-.09l.35-.01.34-.07.32-.13.3-.17.27-.22.23-.26.19-.29.13-.32.09-.34.03-.35h0V343.8h0l-.03-.35-.09-.34-.13-.32-.19-.29-.23-.26-.27-.22-.3-.17-.32-.13-.34-.07-.26-.01h-66.17l.27.01-.35-.01-.35.04-.33.1-.32.15-.28.19-.25.24-.21.28-.16.31-.11.33-.06.34-.01.18v23.18l.01-.17v.35l.06.34.11.33.16.31.21.27.25.25.28.19.32.15.33.1.35.04z" style="stroke-width:0.53;fill:#FFFFFF;fill-opacity:0.50"/><text x="198.44" y="349.15" lengthAdjust="spacingAndGlyphs" style="font-size:5.69px;font-family:&quot;Liberation Sans&quot;" text-anchor="middle" textLength="63.28">10000 INNOVATION DR,</text><text x="198.44" y="357.35" lengthAdjust="spacingAndGlyphs" style="font-size:5.69px;font-family:&quot;Liberation Sans&quot;" text-anchor="middle" textLength="56.12">UNIT 4, MILWAUKEE,</text><text x="198.44" y="365.54" lengthAdjust="spacingAndGlyphs" style="font-size:5.69px;font-family:&quot;Liberation Sans&quot;" text-anchor="middle" textLength="24.31">WI 53226</text><path d="M53.77 264.79h63.85-.08l.34-.01.34-.07.33-.12.3-.18.27-.22.23-.26.18-.29.14-.32.08-.34.03-.35h0v-23.18h0l-.03-.35-.08-.34-.14-.32-.18-.29-.23-.26-.27-.22-.3-.17-.33-.13-.34-.07-.26-.01H53.77l.26.01-.34-.01-.35.04-.33.1-.32.15-.28.2-.25.24-.21.27-.16.31-.11.33-.06.34-.01.18v23.18l.01-.17v.35l.06.34.11.33.16.31.21.28.25.24.28.19.32.15.33.1.35.04z" style="stroke-width:0.53;fill:#FFFFFF;fill-opacity:0.50"/><text x="85.7" y="244.81" lengthAdjust="spacingAndGlyphs" style="font-size:5.69px;font-family:&quot;Liberation Sans&quot;" text-anchor="middle" textLength="35.89">2634 MARTIN</text><text x="85.7" y="253" lengthAdjust="spacingAndGlyphs" style="font-size:5.69px;font-family:&quot;Liberation Sans&quot;" text-anchor="middle" textLength="58.14">LUTHER KING JR DR,</text><text x="85.7" y="261.19" lengthAdjust="spacingAndGlyphs" style="font-size:5.69px;font-family:&quot;Liberation Sans&quot;" text-anchor="middle" textLength="60.97">MILWAUKEE, WI 53212</text><path d="M280.24 219.49h66.16-.09l.35-.01.34-.07.33-.13.3-.17.27-.22.23-.26.18-.29.14-.32.08-.34.03-.35h0v-14.99h0l-.03-.34-.08-.34-.14-.32-.18-.3-.23-.26-.27-.22-.3-.17-.33-.12-.34-.07-.26-.02h-66.16l.26.02-.35-.02-.34.05-.34.09-.31.15-.29.2-.25.24-.21.28-.16.31-.11.33-.05.34-.01.17v14.99l.01-.17v.35l.05.34.11.33.16.31.21.28.25.24.29.19.31.15.34.1.34.04z" style="stroke-width:0.53;fill:#FFFFFF;fill-opacity:0.50"/><text x="313.32" y="207.7" lengthAdjust="spacingAndGlyphs" style="font-size:5.69px;font-family:&quot;Liberation Sans&quot;" text-anchor="middle" textLength="63.28">10000 INNOVATION DR,</text><text x="313.32" y="215.89" lengthAdjust="spacingAndGlyphs" style="font-size:5.69px;font-family:&quot;Liberation Sans&quot;" text-anchor="middle" textLength="60.97">MILWAUKEE, WI 53226</text><path d="M244.46 455.22h66.16-.09l.35-.02.34-.07.33-.12.3-.17.27-.22.23-.26.18-.3.14-.32.08-.33.03-.35h0v-23.19h0l-.03-.34-.08-.34-.14-.32-.18-.29-.23-.26-.27-.22-.3-.18-.33-.12-.34-.07-.26-.02h-66.16l.26.02-.35-.01-.34.04-.34.09-.31.15-.29.2-.25.24-.21.28-.16.31-.11.33-.05.34-.01.17v23.19l.01-.17v.34l.05.35.11.33.16.3.21.28.25.24.29.2.31.15.34.1.34.04z" style="stroke-width:0.53;fill:#FFFFFF;fill-opacity:0.50"/><text x="277.54" y="435.23" lengthAdjust="spacingAndGlyphs" style="font-size:5.69px;font-family:&quot;Liberation Sans&quot;" text-anchor="middle" textLength="63.28">10000 INNOVATION DR,</text><text x="277.54" y="443.43" lengthAdjust="spacingAndGlyphs" style="font-size:5.69px;font-family:&quot;Liberation Sans&quot;" text-anchor="middle" textLength="57.19">STE 40, MILWAUKEE,</text><text x="277.54" y="451.62" lengthAdjust="spacingAndGlyphs" style="font-size:5.69px;font-family:&quot;Liberation Sans&quot;" text-anchor="middle" textLength="24.31">WI 53226</text></g><g clip-path="url(#cpMC4wMHw0MzIuMDB8MC4wMHw1MDQuMDA=)"><circle cx="120.83" cy="135.94" r="1.95" style="stroke-width:0.71;stroke:none;fill:#F8766D"/><path d="m197.23 132.9 2.63 4.56h-5.26z" style="stroke-width:0.71;stroke:none;fill:#00BA38"/><path d="M263.23 137.89h3.91v-3.91h-3.91z" style="stroke-width:0.71;stroke:none;fill:#619CFF"/><text x="134.95" y="139.1" lengthAdjust="spacingAndGlyphs" style="font-size:8.80px;font-weight:0;font-family:&quot;Nimbus Sans Narrow&quot;" textLength="48.16">mprop address</text><text x="211.35" y="139.1" lengthAdjust="spacingAndGlyphs" style="font-size:8.80px;font-weight:0;font-family:&quot;Nimbus Sans Narrow&quot;" textLength="39.72">owner name</text><text x="279.31" y="139.1" lengthAdjust="spacingAndGlyphs" style="font-size:8.80px;font-weight:0;font-family:&quot;Nimbus Sans Narrow&quot;" textLength="40.5">wdfi address</text><text x="29.89" y="104.23" lengthAdjust="spacingAndGlyphs" style="font-size:12.00px;font-weight:0;font-family:&quot;Nimbus Sans Narrow&quot;" textLength="246.64">includes 7 parcels, 10 units, and 3 distinct owner names.</text><text x="29.89" y="42.81" lengthAdjust="spacingAndGlyphs" style="font-size:18.00px;font-weight:0;font-family:&quot;Nimbus Sans Narrow&quot;" textLength="321.44">BUFORD AND BELL FAMILY TRUST -- LIVING</text><text x="29.89" y="62.25" lengthAdjust="spacingAndGlyphs" style="font-size:18.00px;font-weight:0;font-family:&quot;Nimbus Sans Narrow&quot;" textLength="338.66">MADE EASY HOMES LLC -- BUFORD AND BELL</text><text x="29.89" y="81.69" lengthAdjust="spacingAndGlyphs" style="font-size:18.00px;font-weight:0;font-family:&quot;Nimbus Sans Narrow&quot;" textLength="136.11">FAMILY TRT Group</text></g></g></svg>