<svg xmlns="http://www.w3.org/2000/svg" width="384" height="384" class="svglite" viewBox="0 0 288 288"><defs><style>.svglite circle,.svglite line,.svglite polygon,.svglite polyline,.svglite rect{fill:none;stroke:#000;stroke-linecap:round;stroke-linejoin:round;stroke-miterlimit:10}.svglite text{white-space:pre}</style></defs><rect width="100%" height="100%" style="stroke:none;fill:#fff"/><defs><clipPath id="cpMC4wMHwyODguMDB8MC4wMHwyODguMDA="><path d="M0 0h288v288H0z"/></clipPath></defs><g clip-path="url(#cpMC4wMHwyODguMDB8MC4wMHwyODguMDA=)"><path d="M0 0h288v288H0z" style="stroke-width:1.07;stroke:none;fill:#fff"/></g><defs><clipPath id="cpMzIuNjN8MjU4LjExfDEyMC44NnwyNTUuMzc="><path d="M32.63 120.86h225.48v134.51H32.63z"/></clipPath></defs><g clip-path="url(#cpMzIuNjN8MjU4LjExfDEyMC44NnwyNTUuMzc=)"><path d="m247.86 126.98-1.03.61-1.04.62-1.03.62-1.04.62-1.03.62-1.04.61-1.03.62-1.04.62-1.03.62-1.04.61-1.04.62-1.03.62-1.04.62-1.03.61-1.04.62-1.03.62-1.04.62-1.03.61-1.04.62-1.03.62-1.04.62-1.03.62-1.04.61-1.03.62-1.04.62-1.03.62-1.04.61-1.03.62-1.04.62-1.04.62-1.03.61-1.04.62-1.03.62-1.04.62-1.03.61-1.04.62-1.03.62-1.04.62-1.03.62-1.04.61-1.03.62-1.04.62-1.03.62-1.04.61-1.03.62-1.04.62-1.04.62-1.03.61-1.04.62-1.03.62-1.04.62-1.03.61-1.04.62-1.03.62-1.04.62-1.03.62-1.04.61-1.03.62-1.04.62-1.03.62-1.04.61-1.03.62-1.04.62-1.03.62-1.04.61-1.04.62-1.03.62-1.04.62-1.03.62-1.04.61-1.03.62-1.04.62-1.03.62-1.04.61-1.03.62-1.04.62-1.03.62-1.04.61-1.03.62-1.04.62-1.03.62-1.04.61-1.04.62-1.03.62-1.04.62-1.03.62-1.04.61-1.03.62-1.04.62-1.03.62-1.04.61-1.03.62-1.04.62-1.03.62-1.04.61-1.03.62-1.04.62-1.03.62-1.04.61M42.88 249.26l1.03-.62 1.04-.62 1.03-.61 1.04-.62 1.03-.62 1.04-.62 1.03-.61 1.04-.62 1.03-.62 1.04-.62 1.04-.61 1.03-.62 1.04-.62 1.03-.62 1.04-.61 1.03-.62 1.04-.62 1.03-.62 1.04-.61 1.03-.62 1.04-.62 1.03-.62 1.04-.61 1.03-.62 1.04-.62 1.03-.62 1.04-.61 1.03-.62 1.04-.62 1.04-.62 1.03-.61 1.04-.62 1.03-.62 1.04-.62 1.03-.61 1.04-.62 1.03-.62 1.04-.62 1.03-.61 1.04-.62 1.03-.62 1.04-.62 1.03-.61 1.04-.62 1.03-.62 1.04-.62 1.04-.61 1.03-.62 1.04-.62 1.03-.62 1.04-.61 1.03-.62 1.04-.62 1.03-.62 1.04-.61 1.03-.62 1.04-.62 1.03-.62 1.04-.61 1.03-.62 1.04-.62 1.03-.62 1.04-.61 1.04-.62 1.03-.62 1.04-.62 1.03-.61 1.04-.62 1.03-.62 1.04-.62 1.03-.61 1.04-.62 1.03-.62 1.04-.62 1.03-.61 1.04-.62 1.03-.62 1.04-.62 1.03-.61 1.04-.62 1.04-.62 1.03-.62 1.04-.62 1.03-.61 1.04-.62 1.03-.62 1.04-.62 1.03-.61 1.04-.62 1.03-.62 1.04-.62 1.03-.61 1.04-.62 1.03-.62 1.04-.62 1.03-.61 1.04-.62 1.04-.62 1.03-.62" style="stroke-width:1.07;stroke:#000;stroke-opacity:.1;stroke-linecap:butt"/><path d="m247.86 124.77 1.92 3.31h-3.83zM42.88 247.05l1.91 3.31h-3.83z" style="stroke-width:.71;stroke:none;fill:#00bfc4"/><circle cx="145.37" cy="188.12" r="6.76" style="stroke-width:.71;stroke:none;fill:#f8766d"/><path d="m241.09 131.38 5.79-3.77M50.01 244.85l-6.13 3.79M138.35 192.51l6.02-3.76" style="stroke-width:.53;stroke:#bfbfbf"/><path d="M209.49 142.73h42.86-.08l.34-.01.34-.07.33-.13.3-.17.27-.22.23-.26.18-.29.14-.32.08-.34.03-.35v-7.03l-.03-.34-.08-.34-.14-.32-.18-.29-.23-.26-.27-.22-.3-.18-.33-.12-.34-.07-.26-.02h-42.86l.26.02-.35-.01-.34.04-.34.1-.31.14-.29.2-.25.24-.21.28-.16.31-.11.33-.05.34-.01.17v7.03l.01-.17v.35l.05.34.11.33.16.31.21.27.25.25.29.19.31.15.34.1.34.04z" style="stroke-width:.53;fill:#fff;fill-opacity:.5"/><text x="230.92" y="139.13" lengthAdjust="spacingAndGlyphs" style="font-size:5.69px;font-family:&quot;Liberation Sans&quot;" text-anchor="middle" textLength="39.98">CALVIN SMITH</text><path d="M42.17 244.85h55.81-.09l.35-.02.34-.06.33-.13.3-.17.27-.22.23-.26.18-.3.14-.32.08-.33.03-.35v-7.03l-.03-.34-.08-.34-.14-.32-.18-.29-.23-.26-.27-.22-.3-.18-.33-.12-.34-.07-.26-.02H42.17l.26.02-.35-.01-.34.04-.34.09-.31.15-.29.2-.25.24-.21.28-.16.31-.11.33-.06.34v7.2-.17.34l.06.35.11.33.16.31.21.27.25.24.29.2.31.15.34.1.34.04z" style="stroke-width:.53;fill:#fff;fill-opacity:.5"/><text x="70.07" y="241.25" lengthAdjust="spacingAndGlyphs" style="font-size:5.69px;font-family:&quot;Liberation Sans&quot;" text-anchor="middle" textLength="52.93">C AND SONS II INC</text><path d="M88.03 212.05h67.22-.09l.35-.02.34-.07.32-.12.31-.17.27-.22.23-.26.18-.3.14-.32.08-.33.03-.35v-15.22l-.03-.35-.08-.34-.14-.32-.18-.29-.23-.26-.27-.22-.31-.17-.32-.13-.34-.07-.26-.01H88.03l.26.01-.35-.01-.34.04-.34.1-.31.15-.29.19-.25.25-.21.27-.16.31-.11.33-.05.34-.01.18v15.22l.01-.17v.34l.05.35.11.33.16.3.21.28.25.24.29.2.31.15.34.1.34.04z" style="stroke-width:.53;fill:#fff;fill-opacity:.5"/><text x="121.64" y="200.26" lengthAdjust="spacingAndGlyphs" style="font-size:5.69px;font-family:&quot;Liberation Sans&quot;" text-anchor="middle" textLength="47.97">10215 DEAN RD,</text><text x="121.64" y="208.45" lengthAdjust="spacingAndGlyphs" style="font-size:5.69px;font-family:&quot;Liberation Sans&quot;" text-anchor="middle" textLength="64.34">MILWAUKEE, WI 53224</text></g><g clip-path="url(#cpMC4wMHwyODguMDB8MC4wMHwyODguMDA=)"><circle cx="84.61" cy="95.78" r="1.95" style="stroke-width:.71;stroke:none;fill:#f8766d"/><path d="m160.96 92.74 2.63 4.56h-5.26z" style="stroke-width:.71;stroke:none;fill:#00bfc4"/><text x="98.72" y="98.81" lengthAdjust="spacingAndGlyphs" style="font-size:8.8px;font-family:&quot;Liberation Sans Narrow&quot;" textLength="48.12">mprop address</text><text x="175.08" y="98.81" lengthAdjust="spacingAndGlyphs" style="font-size:8.8px;font-family:&quot;Liberation Sans Narrow&quot;" textLength="39.69">owner name</text><text x="32.63" y="64.23" lengthAdjust="spacingAndGlyphs" style="font-size:12px;font-family:&quot;Liberation Sans Narrow&quot;" textLength="241.29">includes 2 parcels, 3 units, and 2 distinct owner names.</text><text x="32.63" y="42.27" lengthAdjust="spacingAndGlyphs" style="font-size:18px;font-weight:700;font-family:&quot;Liberation Sans Narrow&quot;" textLength="182.33">C AND SONS II INC Group</text></g></svg>