<svg xmlns="http://www.w3.org/2000/svg" width="960" height="960" class="svglite" viewBox="0 0 720 720"><defs><style><![CDATA[.svglite line,.svglite polyline,.svglite polygon,.svglite path,.svglite circle{fill:none;stroke:#000000;stroke-linecap:round;stroke-linejoin:round;stroke-miterlimit:10.00}.svglite text{white-space:pre}]]></style></defs><rect width="100%" height="100%" style="stroke-linecap:round;stroke-linejoin:round;stroke-miterlimit:10.00;stroke:none;fill:#FFFFFF"/><defs><clipPath id="cpMC4wMHw3MjAuMDB8MC4wMHw3MjAuMDA="><path d="M0 0h720v720H0z"/></clipPath></defs><g clip-path="url(#cpMC4wMHw3MjAuMDB8MC4wMHw3MjAuMDA=)"><path d="M0 0h720v720H0z" style="stroke-width:1.07;stroke:none;fill:#FFFFFF"/></g><defs><clipPath id="cpMzIuNjN8NjkwLjExfDEyMS43OHw2ODcuMzc="><path d="M32.63 121.78h657.48v565.59H32.63z"/></clipPath></defs><g clip-path="url(#cpMzIuNjN8NjkwLjExfDEyMS43OHw2ODcuMzc=)"><path d="m591.72 384.94-1.01.02-1.01.02-1.01.02-1.01.02-1.01.01-1.01.02-1.01.02-1.01.02-1.01.02-1 .01-1.01.02-1.01.02-1.01.02-1.01.01-1.01.02-1.01.02-1.01.02-1.01.02-1.01.01-1.01.02-1.01.02-1.01.02-1.01.01-1 .02-1.01.02-1.01.02-1.01.02-1.01.01-1.01.02-1.01.02-1.01.02-1.01.02-1.01.01-1.01.02-1.01.02-1.01.02-1.01.01-1.01.02-1 .02-1.01.02-1.01.02-1.01.01-1.01.02-1.01.02-1.01.02-1.01.02-1.01.01-1.01.02-1.01.02-1.01.02-1.01.01-1.01.02-1 .02-1.01.02-1.01.02-1.01.01-1.01.02-1.01.02-1.01.02-1.01.02-1.01.01-1.01.02-1.01.02-1.01.02-1.01.01-1.01.02-1 .02-1.01.02-1.01.02-1.01.01-1.01.02-1.01.02-1.01.02-1.01.02-1.01.01-1.01.02-1.01.02-1.01.02-1.01.01-1.01.02-1.01.02-1 .02-1.01.02-1.01.01-1.01.02-1.01.02-1.01.02-1.01.02-1.01.01-1.01.02-1.01.02-1.01.02-1.01.01-1.01.02-1.01.02-1 .02-1.01.02-1.01.01-1.01.02" style="stroke-width:1.07;stroke:#000000;stroke-opacity:0.10;stroke-linecap:butt"/><path d="m582.49 321.1-1.02.46-1.02.47-1.02.47-1.01.48-1.02.48-1.01.49-1.01.49-1 .49-1.01.5-1 .5-1 .5-1 .51-.99.52-1 .51-.99.53-.99.52-.99.53-.98.53-.98.54-.99.54-.97.55-.98.55-.97.55-.98.56-.97.56-.96.57-.97.57-.96.57-.97.58-.95.58-.96.59-.96.59-.95.59-.95.6-.95.6-.95.61-.94.61-.94.61-.94.62-.94.63-.93.62-.94.63-.93.64-.93.64-.93.64-.92.64-.92.65-.92.66-.92.66-.92.66-.91.67-.91.67-.91.67-.91.68-.91.69-.9.68-.9.69-.9.7-.89.7-.9.7-.89.71-.89.71-.89.71-.89.72-.88.73-.88.72-.88.74-.88.73-.87.74-.88.74-.87.75-.87.75-.86.76-.87.76-.86.76-.86.77-.86.77-.85.78-.86.78-.85.78-.85.79-.84.79-.85.8-.84.8-.84.8-.84.81-.84.81-.83.82-.83.82-.83.82-.83.83-.82.83-.83.84-.82.84-.82.84-.82.85-.81.85-.81.86-.81.86" style="stroke-width:1.07;stroke:#000000;stroke-opacity:0.10;stroke-linecap:butt"/><path d="m582.49 321.1-.98.53-.99.53-.98.54-.99.54-.98.54-.98.54-.97.55-.98.55-.98.55-.97.56-.97.56-.97.56-.97.56-.97.56-.97.57-.96.57-.96.58-.97.58-.96.57-.96.59-.95.58-.96.59-.96.59-.95.59-.95.6-.95.6-.95.6-.95.6-.95.61-.94.61-.94.61-.95.61-.94.62-.94.62-.93.62-.94.63-.93.62-.94.63-.93.64-.93.63-.93.64-.93.64-.92.65-.93.64-.92.65-.92.65-.92.66-.92.66-.92.66-.92.66-.91.66-.91.67-.92.67-.91.68-.9.67-.91.68-.91.68-.9.69-.91.69-.9.69-.9.69-.9.69-.89.7-.9.7-.89.7-.9.71-.89.71-.89.71-.89.71-.89.72-.88.72-.89.72-.88.73-.88.72-.88.73-.88.74-.88.73-.87.74-.88.74-.87.74-.87.75-.87.75-.87.75-.87.75-.86.76-.87.76-.86.76-.86.77-.86.77-.86.77-.86.77-.85.78-.86.77-.85.79-.85.78-.85.79-.85.79-.85.79-.84.79" style="stroke-width:1.07;stroke:#000000;stroke-opacity:0.10;stroke-linecap:butt"/><path d="m582.49 321.1-.95.59-.95.6-.95.6-.95.6-.95.61-.95.6-.94.6-.95.61-.94.61-.95.61-.94.61-.95.61-.94.61-.94.62-.94.61-.94.62-.94.62-.94.62-.94.62-.94.62-.94.62-.93.63-.94.63-.93.62-.94.63-.93.63-.93.63-.93.64-.94.63-.93.64-.93.64-.92.63-.93.64-.93.64-.93.65-.92.64-.93.65-.92.64-.93.65-.92.65-.92.65-.93.65-.92.66-.92.65-.92.66-.92.65-.91.66-.92.66-.92.66-.91.67-.92.66-.91.67-.92.66-.91.67-.91.67-.92.67-.91.67-.91.68-.91.67-.91.68-.9.68-.91.68-.91.68-.9.68-.91.68-.9.68-.91.69-.9.69-.9.69-.91.69-.9.69-.9.69-.9.69-.9.7-.89.69-.9.7-.9.7-.89.7-.9.7-.89.71-.9.7-.89.71-.89.7-.89.71-.9.71-.89.71-.88.72-.89.71-.89.72-.89.71-.89.72-.88.72-.89.72-.88.72-.88.72-.89.73-.88.73-.88.72-.88.73" style="stroke-width:1.07;stroke:#000000;stroke-opacity:0.10;stroke-linecap:butt"/><path d="m582.49 321.1-.91.66-.92.66-.92.67-.91.66-.92.66-.91.66-.92.67-.92.66-.91.66-.92.67-.92.66-.91.66-.92.66-.91.67-.92.66-.92.66-.91.66-.92.67-.91.66-.92.66-.92.67-.91.66-.92.66-.91.66-.92.67-.92.66-.91.66-.92.66-.92.67-.91.66-.92.66-.91.67-.92.66-.92.66-.91.66-.92.67-.91.66-.92.66-.92.67-.91.66-.92.66-.91.66-.92.67-.92.66-.91.66-.92.66-.92.67-.91.66-.92.66-.91.67-.92.66-.92.66-.91.66-.92.67-.91.66-.92.66-.92.67-.91.66-.92.66-.91.66-.92.67-.92.66-.91.66-.92.66-.91.67-.92.66-.92.66-.91.67-.92.66-.92.66-.91.66-.92.67-.91.66-.92.66-.92.67-.91.66-.92.66-.91.66-.92.67-.92.66-.91.66-.92.66-.91.67-.92.66-.92.66-.91.67-.92.66-.92.66-.91.66-.92.67-.91.66-.92.66-.92.67-.91.66-.92.66-.91.66-.92.67-.92.66-.91.66" style="stroke-width:1.07;stroke:#000000;stroke-opacity:0.10;stroke-linecap:butt"/><path d="m582.49 321.1-.88.73-.88.72-.88.73-.89.72-.88.73-.88.72-.89.72-.88.72-.89.72-.89.71-.89.72-.89.71-.89.72-.89.71-.89.71-.89.71-.89.7-.89.71-.9.7-.89.71-.9.7-.89.7-.9.7-.9.69-.9.7-.89.7-.9.69-.9.69-.9.69-.91.69-.9.69-.9.69-.91.68-.9.69-.91.68-.9.68-.91.68-.91.68-.9.68-.91.68-.91.67-.91.67-.91.68-.92.67-.91.67-.91.67-.92.66-.91.67-.92.66-.91.66-.92.67-.92.66-.91.65-.92.66-.92.66-.92.65-.92.66-.93.65-.92.65-.92.65-.93.65-.92.64-.93.65-.92.64-.93.64-.93.65-.93.64-.93.63-.92.64-.94.64-.93.63-.93.63-.93.64-.93.63-.94.63-.93.62-.94.63-.94.63-.93.62-.94.62-.94.62-.94.62-.94.62-.94.62-.94.61-.94.62-.94.61-.95.61-.94.61-.95.61-.94.61-.95.61-.95.6-.94.6-.95.61-.95.6-.95.6-.95.59-.95.6" style="stroke-width:1.07;stroke:#000000;stroke-opacity:0.10;stroke-linecap:butt"/><path d="m582.49 321.1-.84.79-.85.79-.85.79-.85.79-.85.78-.85.78-.86.78-.85.78-.86.77-.86.77-.86.77-.86.77-.86.76-.87.76-.86.75-.87.76-.87.75-.87.75-.87.75-.87.74-.88.74-.87.74-.88.73-.88.74-.88.73-.88.72-.88.73-.89.72-.88.72-.89.72-.89.71-.89.71-.89.71-.9.71-.89.7-.9.7-.89.7-.9.69-.9.69-.9.69-.91.69-.9.68-.91.69-.91.68-.9.67-.92.68-.91.67-.91.66-.91.67-.92.66-.92.66-.92.66-.92.65-.92.66-.92.65-.93.64-.92.65-.93.64-.93.64-.93.63-.93.64-.94.63-.93.62-.94.63-.94.62-.93.62-.94.62-.95.61-.94.61-.95.61-.94.61-.95.6-.95.6-.95.6-.95.6-.95.59-.96.59-.96.59-.95.58-.96.58-.96.58-.97.58-.96.57-.96.58-.97.56-.97.57-.97.56-.97.56-.97.56-.97.56-.98.55-.98.55-.97.55-.98.54-.98.54-.99.54-.98.54-.99.53-.98.53" style="stroke-width:1.07;stroke:#000000;stroke-opacity:0.10;stroke-linecap:butt"/><path d="m582.49 321.1-.81.86-.81.85-.82.86-.81.85-.82.84-.82.84-.83.84-.82.83-.83.83-.83.82-.83.82-.83.82-.84.81-.84.81-.84.8-.84.8-.85.8-.84.79-.85.79-.86.78-.85.78-.85.78-.86.77-.86.77-.86.76-.87.76-.87.76-.86.75-.87.74-.88.75-.87.74-.88.73-.88.73-.88.73-.88.73-.89.71-.89.72-.89.71-.89.71-.9.7-.89.7-.9.7-.9.69-.91.68-.9.69-.91.68-.91.67-.91.67-.91.67-.92.66-.92.66-.92.65-.92.65-.93.65-.92.64-.93.64-.93.64-.94.63-.93.62-.94.63-.94.61-.94.62-.95.61-.94.61-.95.6-.95.6-.95.59-.96.59-.96.59-.95.58-.97.58-.96.57-.97.57-.96.57-.97.56-.98.56-.97.55-.98.55-.98.55-.98.54-.98.53-.98.54-.99.53-.99.52-.99.52-1 .52-.99.52-1 .5-1 .51-1 .5-1.01.5-1 .49-1.01.49-1.01.49-1.02.48-1.01.47-1.02.48-1.02.47-1.02.46m-333.22 70.74-.94-.54-.95-.54-.95-.53-.94-.54-.95-.53-.95-.53-.95-.53-.95-.53-.94-.53-.96-.52-.95-.53-.95-.52-.95-.52-.95-.52-.95-.52-.96-.52-.95-.51-.95-.52-.96-.51-.95-.51-.96-.51-.96-.51-.95-.51-.96-.5-.96-.51-.96-.5-.95-.5-.96-.5-.96-.5-.96-.5-.96-.49-.96-.5-.97-.49-.96-.49-.96-.49-.96-.49-.97-.49-.96-.48-.97-.49-.96-.48-.97-.48-.97-.48-.96-.48-.97-.48-.97-.47-.97-.48-.96-.47-.97-.47-.97-.47-.97-.47-.98-.47-.97-.46-.97-.47-.97-.46-.97-.46-.98-.46-.97-.46-.98-.46-.97-.45-.98-.46-.97-.45-.98-.45-.98-.45-.97-.45-.98-.45-.98-.44-.98-.45-.98-.44-.98-.44-.98-.44-.98-.44-.98-.44-.98-.44-.99-.43-.98-.43-.98-.43-.99-.43-.98-.43-.99-.43-.98-.43-.99-.42-.99-.42-.98-.43-.99-.42-.99-.41-.99-.42-.99-.42-.99-.41-.99-.41-.99-.42-.99-.41-.99-.41-.99-.4-1-.41-.99-.4-.99-.41-1-.4-.99-.4-1-.4m96.07 46.4 1.17-.32 1.17-.32 1.16-.32 1.17-.32 1.16-.33 1.16-.33 1.16-.33 1.17-.34 1.15-.34 1.16-.35 1.16-.34 1.16-.36 1.15-.35 1.16-.36 1.15-.36 1.15-.36 1.15-.37 1.15-.37 1.15-.37 1.15-.38 1.15-.38 1.14-.38 1.15-.39 1.14-.39 1.15-.39 1.14-.4 1.14-.4 1.14-.4 1.14-.41 1.14-.41 1.13-.41 1.14-.42 1.13-.42 1.14-.42 1.13-.43 1.13-.43 1.13-.43 1.13-.43 1.13-.44 1.13-.45 1.12-.44 1.13-.45 1.12-.45 1.13-.46 1.12-.46 1.12-.46 1.12-.47 1.12-.46 1.12-.48 1.11-.47 1.12-.48 1.12-.48 1.11-.49 1.11-.49 1.11-.49 1.12-.49 1.11-.5 1.1-.5 1.11-.51 1.11-.51 1.1-.51 1.11-.51 1.1-.52 1.11-.52 1.1-.53 1.1-.52 1.1-.54 1.1-.53 1.09-.54 1.1-.54 1.1-.54 1.09-.55 1.09-.55 1.1-.56 1.09-.55 1.09-.56 1.09-.57 1.09-.56 1.08-.58 1.09-.57 1.08-.58 1.09-.58 1.08-.58 1.08-.59 1.08-.59 1.08-.59 1.08-.6 1.08-.6 1.08-.6 1.07-.61 1.08-.61 1.07-.61 1.08-.62 1.07-.62 1.07-.62 1.07-.63 1.07-.63 1.06-.63 1.07-.63" style="stroke-width:1.07;stroke:#000000;stroke-opacity:0.10;stroke-linecap:butt"/><path d="m158.58 457.45-.97-.47-.97-.47-.97-.47-.97-.47-.97-.47-.97-.47-.97-.46-.97-.47-.97-.47-.97-.47-.97-.47-.97-.47-.97-.47-.97-.46-.97-.47-.97-.47-.97-.47-.97-.47-.97-.47-.98-.47-.97-.46-.97-.47-.97-.47-.97-.47-.97-.47-.97-.47-.97-.47-.97-.47-.97-.46-.97-.47-.97-.47-.97-.47-.97-.47-.97-.47-.97-.47-.97-.46-.97-.47-.97-.47-.97-.47-.97-.47-.97-.47-.97-.47-.97-.46-.97-.47-.98-.47-.97-.47-.97-.47-.97-.47-.97-.47-.97-.46-.97-.47-.97-.47-.97-.47-.97-.47-.97-.47-.97-.47-.97-.46-.97-.47-.97-.47-.97-.47-.97-.47-.97-.47-.97-.47-.97-.47-.97-.46-.97-.47-.97-.47-.97-.47-.97-.47-.98-.47-.97-.47-.97-.46-.97-.47-.97-.47-.97-.47-.97-.47-.97-.47-.97-.47-.97-.46-.97-.47-.97-.47-.97-.47-.97-.47-.97-.47-.97-.47-.97-.46-.97-.47-.97-.47-.97-.47-.97-.47-.97-.47-.97-.47-.97-.47-.97-.46-.98-.47-.97-.47-.97-.47-.97-.47-.97-.47" style="stroke-width:1.07;stroke:#000000;stroke-opacity:0.10;stroke-linecap:butt"/><path d="m158.58 457.45-.99-.4-1-.4-.99-.4-1-.41-.99-.4-.99-.41-.99-.41-1-.4-.99-.41-.99-.42-.99-.41-.99-.41-.99-.42-.99-.42-.98-.42-.99-.42-.99-.42-.99-.42-.98-.42-.99-.43-.98-.43-.99-.43-.98-.43-.98-.43-.99-.43-.98-.44-.98-.43-.98-.44-.99-.44-.98-.44-.98-.44-.98-.44-.97-.45-.98-.44-.98-.45-.98-.45-.98-.45-.97-.45-.98-.45-.97-.46-.98-.45-.97-.46-.98-.46-.97-.46-.97-.46-.98-.46-.97-.47-.97-.46-.97-.47-.97-.47-.97-.47-.97-.47-.97-.47-.97-.48-.96-.47-.97-.48-.97-.48-.97-.48-.96-.48-.97-.48-.96-.49-.97-.48-.96-.49-.96-.49-.97-.49-.96-.49-.96-.49-.96-.5-.96-.49-.96-.5-.96-.5-.96-.5-.96-.5-.96-.5-.95-.51-.96-.5-.96-.51-.95-.51-.96-.51-.96-.51-.95-.51-.95-.52-.96-.51-.95-.52-.95-.52-.96-.52-.95-.52-.95-.52-.95-.53-.95-.52-.95-.53-.95-.53-.95-.53-.94-.53-.95-.53-.95-.54-.95-.53-.94-.54-.95-.54m500.15 93.49.95.39.96.39.96.39.96.38.96.38.96.38.96.37.96.37.96.36.96.36.96.36.97.35.96.35.96.35.97.34.97.34.96.34.97.33.97.33.96.32.97.33.97.31.97.32.97.31.97.31.97.3.98.3.97.29.97.3.98.29.97.28.97.28.98.28.98.27.97.27.98.27.98.27.98.25.98.26.98.25.98.25.98.25.98.24.98.24.98.23.99.23.98.23.98.22.99.22.98.22.99.21.99.21.98.21.99.2.99.2.99.19.99.19.99.19.99.19.99.18.99.17 1 .17.99.17.99.17 1 .16.99.16 1 .16 1 .15.99.14 1 .15 1 .14 1 .14.99.13 1 .13 1 .12 1.01.13 1 .12 1 .11 1 .11 1 .11 1.01.1 1 .1 1.01.1 1 .09 1.01.09 1.01.09 1 .08 1.01.08 1.01.08 1.01.07 1.01.07 1.01.06 1.01.06 1.01.06 1.01.05 1.02.05 1.01.05 1.01.04 1.02.04m-97.57-21.42-.68-.24-.67-.23-.68-.22-.67-.23-.68-.22-.68-.21-.67-.22-.68-.21-.68-.2-.67-.21-.68-.19-.68-.2-.67-.19-.68-.19-.68-.18-.68-.19-.68-.17-.67-.18-.68-.17-.68-.17-.68-.16-.68-.16-.68-.16-.68-.15-.68-.15-.68-.14-.68-.15-.68-.14-.69-.13-.68-.13-.68-.13-.68-.13-.68-.12-.69-.12-.68-.11-.68-.11-.68-.11-.69-.1-.68-.1-.69-.1-.68-.09-.68-.09-.69-.09-.68-.08-.69-.08-.68-.07-.69-.08-.68-.06-.69-.07-.69-.06-.68-.06-.69-.05-.69-.05-.68-.05-.69-.04-.69-.04-.69-.04-.68-.03-.69-.03-.69-.03-.69-.02-.69-.02-.69-.02-.69-.01-.69-.01h-2.76l-.69.01-.69.02-.69.01-.69.02-.69.03-.7.02-.69.03-.69.04-.69.03-.7.04-.69.05-.69.05-.7.05-.69.05-.69.06-.7.06-.69.07-.7.07-.69.07-.7.08-.69.08-.7.08-.7.09-.69.09-.7.09-.7.1-.69.1-.7.1-.7.11-.69.11" style="stroke-width:1.07;stroke:#000000;stroke-opacity:0.10;stroke-linecap:butt"/><path d="m562.66 504.54.96.32.97.32.97.32.97.32.97.31.97.31.97.31.97.31.97.3.97.31.98.3.97.3.97.29.97.3.98.29.97.29.98.29.97.29.97.28.98.28.97.28.98.28.98.27.97.28.98.27.98.26.97.27.98.27.98.26.98.26.98.25.98.26.98.25.98.25.98.25.98.25.98.24.98.25.98.24.98.24.99.23.98.24.98.23.98.23.99.22.98.23.99.22.98.22.99.22.98.22.99.21.98.21.99.21.99.21.99.21.98.2.99.2.99.2.99.2.99.19.99.19.99.19.99.19.99.19.99.18.99.18.99.18.99.18 1 .18.99.17.99.17.99.17 1 .16.99.17 1 .16.99.16 1 .16.99.15 1 .16.99.15 1 .15 1 .15.99.14 1 .14 1 .14 1 .14 1 .14.99.13 1 .13 1 .13 1 .13 1 .12 1 .13 1.01.12 1 .12 1 .11 1 .12 1 .11 1.01.11m-97.57-21.42-.68-.19-.68-.18-.68-.18-.68-.18-.68-.17-.67-.17-.68-.17-.68-.17-.68-.16-.68-.17-.68-.16-.68-.15-.68-.16-.68-.15-.68-.15-.68-.15-.68-.14-.68-.14-.68-.14-.69-.14-.68-.13-.68-.14-.68-.13-.68-.12-.68-.13-.69-.12-.68-.12-.68-.11-.68-.12-.69-.11-.68-.11-.68-.11-.69-.1-.68-.1-.68-.1-.69-.1-.68-.09-.69-.09-.68-.09-.68-.09-.69-.08-.68-.08-.69-.08-.68-.08-.69-.07-.68-.08-.69-.06-.69-.07-.68-.06-.69-.07-.68-.05-.69-.06-.69-.05-.68-.06-.69-.04-.69-.05-.69-.04-.68-.05-.69-.03-.69-.04-.69-.03-.69-.04-.68-.02-.69-.03-.69-.02-.69-.02-.69-.02-.69-.02-.69-.01-.69-.01-.69-.01-.69-.01h-2.76l-.69.01-.69.01-.69.01-.69.02-.69.01-.69.02-.69.02-.7.03-.69.02-.69.03-.69.04-.7.03-.69.04-.69.04-.69.04-.7.04-.69.05-.69.05-.7.05-.69.06-.7.05-.69.06-.69.06m-336.15-41.01 1.15-.4 1.14-.4 1.14-.39 1.14-.4 1.14-.41 1.14-.4 1.14-.4 1.14-.41 1.14-.41 1.13-.41 1.14-.41 1.14-.41 1.13-.42 1.14-.41 1.13-.42 1.14-.42 1.13-.42 1.14-.42 1.13-.43 1.13-.42 1.14-.43 1.13-.43 1.13-.43 1.13-.44 1.13-.43 1.13-.44 1.13-.43 1.13-.44 1.12-.44 1.13-.45 1.13-.44 1.12-.45 1.13-.44 1.13-.45 1.12-.45 1.13-.46 1.12-.45 1.12-.46 1.13-.45 1.12-.46 1.12-.46 1.12-.47 1.12-.46 1.12-.46 1.12-.47 1.12-.47 1.12-.47 1.12-.47 1.12-.48 1.11-.47 1.12-.48 1.11-.48 1.12-.48 1.12-.48 1.11-.48 1.11-.49 1.12-.49 1.11-.48 1.11-.49 1.12-.5 1.11-.49 1.11-.49 1.11-.5 1.11-.5 1.11-.5 1.11-.5 1.1-.5 1.11-.51 1.11-.51 1.11-.5 1.1-.51 1.11-.52 1.1-.51 1.11-.51 1.1-.52 1.11-.52 1.1-.52 1.1-.52 1.11-.52 1.1-.53 1.1-.52 1.1-.53 1.1-.53 1.1-.53 1.1-.53 1.1-.54 1.09-.53 1.1-.54 1.1-.54 1.1-.54 1.09-.54 1.1-.55 1.09-.54 1.1-.55 1.09-.55 1.09-.55 1.1-.56 1.09-.55 1.09-.55" style="stroke-width:1.07;stroke:#000000;stroke-opacity:0.10;stroke-linecap:butt"/><path d="m562.66 504.54.98.25.98.25.98.25.98.25.98.25.98.25.98.25.98.24.98.25.98.24.98.25.98.24.98.25.98.24.99.24.98.24.98.24.98.24.98.24.98.24.99.23.98.24.98.24.98.23.99.24.98.23.98.23.98.24.99.23.98.23.98.23.99.23.98.23.99.22.98.23.98.23.99.22.98.23.99.22.98.23.98.22.99.22.98.22.99.22.98.22.99.22.98.22.99.22.98.22.99.21.99.22.98.21.99.22.98.21.99.22.99.21.98.21.99.21.99.21.98.21.99.21.99.2.98.21.99.21.99.2.99.21.98.2.99.21.99.2.99.2.98.2.99.2.99.2.99.2.99.2.99.2.98.19.99.2.99.19.99.2.99.19.99.2.99.19.99.19.99.19.99.19.99.19.99.19.99.19.99.19.99.18.99.19.99.18.99.19.99.18.99.19.99.18 1 .18.99.18m-97.57-21.42-.69-.14-.68-.13-.68-.13-.68-.13-.68-.13-.68-.13-.68-.13-.69-.12-.68-.13-.68-.12-.68-.12-.69-.12-.68-.11-.68-.12-.68-.11-.69-.12-.68-.11-.68-.11-.69-.11-.68-.1-.68-.11-.68-.1-.69-.1-.68-.11-.69-.09-.68-.1-.68-.1-.69-.09-.68-.1-.69-.09-.68-.09-.68-.09-.69-.08-.68-.09-.69-.08-.68-.08-.69-.09-.68-.08-.69-.07-.68-.08-.69-.07-.68-.08-.69-.07-.68-.07-.69-.07-.69-.07-.68-.06-.69-.07-.68-.06-.69-.06-.69-.06-.68-.06-.69-.06-.69-.05-.68-.06-.69-.05-.69-.05-.68-.05-.69-.05-.69-.04-.68-.05-.69-.04-.69-.04-.69-.04-.68-.04-.69-.04-.69-.03-.69-.04-.69-.03-.68-.03-.69-.03-.69-.03-.69-.03-.69-.02-.69-.02-.69-.03-.68-.02-.69-.02-.69-.01-.69-.02-.69-.01-.69-.02-.69-.01-.69-.01-.69-.01h-.69l-.69-.01h-.69l-.69-.01h-1.38l-.69.01h-.69l-.69.01h-.69l-.69.01-.69.01-.69.01-.69.01m67.93 6.08-.72-1.19-.72-1.19-.71-1.19-.72-1.19-.71-1.19-.72-1.19-.71-1.19-.72-1.19-.72-1.19-.71-1.19-.72-1.19-.71-1.19-.72-1.19-.71-1.19-.72-1.19-.72-1.19-.71-1.19-.72-1.19-.71-1.2-.72-1.19-.71-1.19-.72-1.19-.72-1.19-.71-1.19-.72-1.19-.71-1.19-.72-1.19-.71-1.19-.72-1.19-.72-1.19-.71-1.19-.72-1.19-.71-1.19-.72-1.19-.71-1.19-.72-1.19-.72-1.19-.71-1.19-.72-1.19-.71-1.19-.72-1.19-.72-1.19-.71-1.19-.72-1.19-.71-1.19-.72-1.19-.71-1.19-.72-1.19-.72-1.19-.71-1.19-.72-1.19-.71-1.19-.72-1.19-.71-1.19-.72-1.19-.72-1.19-.71-1.19-.72-1.19-.71-1.19-.72-1.19-.71-1.19-.72-1.19-.72-1.19-.71-1.19-.72-1.19-.71-1.19-.72-1.19-.71-1.19-.72-1.19-.72-1.19-.71-1.19-.72-1.19-.71-1.19-.72-1.19-.71-1.19-.72-1.19-.72-1.19-.71-1.19-.72-1.19-.71-1.2-.72-1.19-.71-1.19-.72-1.19-.72-1.19-.71-1.19-.72-1.19-.71-1.19-.72-1.19-.72-1.19-.71-1.19-.72-1.19-.71-1.19-.72-1.19-.71-1.19-.72-1.19-.72-1.19-.71-1.19-.72-1.19-.71-1.19" style="stroke-width:1.07;stroke:#000000;stroke-opacity:0.10;stroke-linecap:butt"/><path d="m562.66 504.54-.69-.09-.68-.08-.69-.09-.68-.08-.69-.09-.68-.08-.69-.08-.68-.09-.69-.08-.68-.08-.69-.08-.68-.08-.69-.08-.68-.08-.69-.08-.68-.08-.69-.08-.68-.07-.69-.08-.68-.08-.69-.07-.68-.08-.69-.07-.68-.08-.69-.07-.68-.08-.69-.07-.68-.07-.69-.07-.68-.07-.69-.08-.69-.07-.68-.07-.69-.06-.68-.07-.69-.07-.68-.07-.69-.07-.69-.06-.68-.07-.69-.07-.68-.06-.69-.07-.68-.06-.69-.07-.69-.06-.68-.06-.69-.06-.69-.07-.68-.06-.69-.06-.68-.06-.69-.06-.69-.06-.68-.06-.69-.05-.69-.06-.68-.06-.69-.06-.68-.05-.69-.06-.69-.05-.68-.06-.69-.05-.69-.06-.68-.05-.69-.05-.69-.06-.68-.05-.69-.05-.69-.05-.69-.05-.68-.05-.69-.05-.69-.05-.68-.05-.69-.04-.69-.05-.68-.05-.69-.04-.69-.05-.69-.04-.68-.05-.69-.04-.69-.05-.69-.04-.68-.04-.69-.04-.69-.05-.69-.04-.68-.04-.69-.04-.69-.04-.69-.04-.68-.04-.69-.03-.69-.04-.69-.04-.68-.04m-336.15-41.01 1.12-.48 1.12-.47 1.11-.48 1.12-.48 1.12-.47 1.12-.48 1.11-.47 1.12-.48 1.12-.47 1.11-.48 1.12-.47 1.12-.48 1.12-.47 1.11-.48 1.12-.47 1.12-.48 1.11-.48 1.12-.47 1.12-.48 1.12-.47 1.11-.48 1.12-.47 1.12-.48 1.11-.47 1.12-.48 1.12-.47 1.12-.48 1.11-.47 1.12-.48 1.12-.47 1.11-.48 1.12-.48 1.12-.47 1.12-.48 1.11-.47 1.12-.48 1.12-.47 1.11-.48 1.12-.47 1.12-.48 1.12-.47 1.11-.48 1.12-.47 1.12-.48 1.11-.48 1.12-.47 1.12-.48 1.12-.47 1.11-.48 1.12-.47 1.12-.48 1.11-.47 1.12-.48 1.12-.47 1.12-.48 1.11-.47 1.12-.48 1.12-.47 1.11-.48 1.12-.48 1.12-.47 1.12-.48 1.11-.47 1.12-.48 1.12-.47 1.11-.48 1.12-.47 1.12-.48 1.12-.47 1.11-.48 1.12-.47 1.12-.48 1.11-.48 1.12-.47 1.12-.48 1.12-.47 1.11-.48 1.12-.47 1.12-.48 1.11-.47 1.12-.48 1.12-.47 1.12-.48 1.11-.47 1.12-.48 1.12-.48 1.11-.47 1.12-.48 1.12-.47 1.12-.48 1.11-.47 1.12-.48 1.12-.47 1.11-.48 1.12-.47 1.12-.48 1.12-.47 1.11-.48 1.12-.47" style="stroke-width:1.07;stroke:#000000;stroke-opacity:0.10;stroke-linecap:butt"/><path d="m250.44 273.79.15 1.39.16 1.38.15 1.39.16 1.39.15 1.38.16 1.39.16 1.38.15 1.39.16 1.39.16 1.38.16 1.39.16 1.38.16 1.39.17 1.38.16 1.39.16 1.38.17 1.38.16 1.39.17 1.38.17 1.39.16 1.38.17 1.38.17 1.39.17 1.38.17 1.38.17 1.39.17 1.38.18 1.38.17 1.39.17 1.38.18 1.38.18 1.38.17 1.38.18 1.39.18 1.38.18 1.38.18 1.38.18 1.38.18 1.38.18 1.39.18 1.38.18 1.38.19 1.38.18 1.38.19 1.38.19 1.38.18 1.38.19 1.38.19 1.38.19 1.38.19 1.38.19 1.38.19 1.38.19 1.38.2 1.38.19 1.37.19 1.38.2 1.38.2 1.38.19 1.38.2 1.38.2 1.37.2 1.38.2 1.38.2 1.38.2 1.38.2 1.37.2 1.38.21 1.38.2 1.37.21 1.38.2 1.38.21 1.37.21 1.38.2 1.38.21 1.37.21 1.38.21 1.37.21 1.38.22 1.38.21 1.37.21 1.38.21 1.37.22 1.38.22 1.37.21 1.38.22 1.37.22 1.38.21 1.37.22 1.37.22 1.38.22 1.37.23 1.38.22 1.37.22 1.37.22 1.38.23 1.37.22 1.37.23 1.38m293.48 94.15.99.18.99.18.99.18.99.19.99.18.99.18.99.19.99.19.99.18.99.19.99.19.99.19.99.19.99.19.99.19.99.19.99.19.99.2.99.19.99.19.99.2.99.2.99.19.99.2.98.2.99.2.99.2.99.2.99.2.98.2.99.2.99.21.99.2.98.21.99.2.99.21.99.2.98.21.99.21.99.21.98.21.99.21.99.21.98.21.99.22.98.21.99.21.99.22.98.21.99.22.98.22.99.22.98.21.99.22.98.22.99.22.98.23.99.22.98.22.99.22.98.23.99.22.98.23.98.23.99.22.98.23.98.23.99.23.98.23.98.23.99.23.98.23.98.24.99.23.98.24.98.23.98.24.99.23.98.24.98.24.98.24.98.24.99.24.98.24.98.24.98.24.98.25.98.24.98.24.98.25.98.25.99.24.98.25.98.25.98.25.98.25.98.25.98.25.98.25m-97.57-21.42-.69-.04-.69-.04-.69-.03-.68-.04-.69-.04-.69-.04-.69-.04-.69-.04-.68-.04-.69-.04-.69-.04-.69-.05-.68-.04-.69-.04-.69-.04-.68-.05-.69-.04-.69-.05-.69-.04-.68-.05-.69-.05-.69-.04-.68-.05-.69-.05-.69-.05-.69-.05-.68-.05-.69-.05-.69-.05-.68-.05-.69-.05-.69-.06-.68-.05-.69-.05-.69-.05-.68-.06-.69-.05-.69-.06-.68-.06-.69-.05-.69-.06-.68-.06-.69-.05-.69-.06-.68-.06-.69-.06-.68-.06-.69-.06-.69-.06-.68-.06-.69-.06-.69-.07-.68-.06-.69-.06-.68-.07-.69-.06-.69-.07-.68-.06-.69-.07-.68-.06-.69-.07-.68-.07-.69-.07-.69-.06-.68-.07-.69-.07-.68-.07-.69-.07-.68-.07-.69-.08-.68-.07-.69-.07-.69-.07-.68-.08-.69-.07-.68-.07-.69-.08-.68-.07-.69-.08-.68-.08-.69-.07-.68-.08-.69-.08-.68-.08-.69-.08-.68-.08-.69-.08-.68-.08-.69-.08-.68-.08-.69-.08-.68-.08-.69-.09-.68-.08-.69-.08-.68-.09-.69-.08-.68-.09-.68-.09m-336.15-41.01-.69.83-.69.84-.69.84-.69.83-.68.84-.69.84-.69.84-.68.85-.68.84-.69.84-.68.85-.68.84-.68.85-.68.85-.68.85-.67.85-.68.85-.67.85-.68.85-.67.86-.67.85-.68.86-.67.85-.66.86-.67.86-.67.86-.67.86-.66.86-.67.86-.66.86-.66.87-.66.86-.67.87-.65.86-.66.87-.66.87-.66.87-.65.87-.66.87-.65.87-.66.88-.65.87-.65.88-.65.87-.65.88-.65.88-.64.88-.65.88-.65.88-.64.88-.64.88-.65.89-.64.88-.64.89-.64.88-.64.89-.63.89-.64.89-.64.89-.63.89-.64.89-.63.9-.63.89-.63.9-.63.89-.63.9-.63.9-.63.9-.62.9-.63.9-.62.9-.63.9-.62.9-.62.91-.62.91-.62.9-.62.91-.61.91-.62.91-.62.91-.61.91-.62.91-.61.91-.61.92-.61.91-.61.92-.61.92-.61.91-.61.92-.6.92-.61.92-.6.92-.6.93-.61.92-.6.92-.6.93-.6.93-.6.92-.59.93m467.87-40.21.21 1.14.21 1.14.22 1.14.21 1.14.22 1.14.21 1.14.22 1.14.21 1.14.22 1.14.21 1.14.22 1.14.21 1.14.21 1.14.22 1.14.21 1.14.22 1.14.21 1.14.22 1.14.21 1.14.22 1.14.21 1.14.21 1.14.22 1.14.21 1.14.22 1.14.21 1.14.22 1.14.21 1.14.22 1.14.21 1.14.21 1.14.22 1.14.21 1.14.22 1.14.21 1.14.22 1.14.21 1.14.22 1.14.21 1.14.21 1.14.22 1.14.21 1.14.22 1.14.21 1.14.22 1.14.21 1.14.22 1.14.21 1.14.21 1.14.22 1.14.21 1.14.22 1.14.21 1.14.22 1.14.21 1.14.22 1.14.21 1.14.21 1.14.22 1.14.21 1.14.22 1.14.21 1.14.22 1.14.21 1.14.22 1.14.21 1.14.21 1.14.22 1.14.21 1.14.22 1.14.21 1.13.22 1.14.21 1.14.22 1.14.21 1.14.21 1.14.22 1.14.21 1.14.22 1.14.21 1.14.22 1.14.21 1.14.22 1.14.21 1.14.22 1.14.21 1.14.21 1.14.22 1.14.21 1.14.22 1.14.21 1.14.22 1.14.21 1.14.22 1.14.21 1.14.21 1.14.22 1.14.21 1.14.22 1.14" style="stroke-width:1.07;stroke:#000000;stroke-opacity:0.10;stroke-linecap:butt"/><path d="m562.66 504.54-.69.01-.7.01-.69.01-.69.01-.69.01h-.69l-.69.01h-2.07l-.69-.01h-1.38l-.69-.01-.69-.01-.69-.01-.69-.01-.69-.01-.69-.02-.69-.01-.69-.02-.68-.02-.69-.02-.69-.02-.69-.03-.69-.02-.69-.03-.69-.03-.68-.03-.69-.03-.69-.03-.69-.03-.69-.04-.68-.04-.69-.04-.69-.04-.69-.04-.68-.04-.69-.05-.69-.04-.69-.05-.68-.05-.69-.05-.69-.05-.68-.06-.69-.05-.69-.06-.68-.06-.69-.06-.68-.06-.69-.06-.69-.07-.68-.06-.69-.07-.68-.07-.69-.07-.68-.07-.69-.07-.69-.08-.68-.07-.69-.08-.68-.08-.69-.08-.68-.09-.68-.08-.69-.09-.68-.08-.69-.09-.68-.09-.69-.09-.68-.1-.68-.09-.69-.1-.68-.09-.69-.1-.68-.1-.68-.11-.69-.1-.68-.1-.68-.11-.69-.11-.68-.11-.68-.11-.68-.11-.69-.12-.68-.11-.68-.12-.68-.12-.69-.12-.68-.12-.68-.12-.68-.13-.69-.13-.68-.12-.68-.13-.68-.13-.68-.14-.68-.13-.68-.14M382.59 382.57l1.1.08 1.11.08 1.1.08 1.1.08 1.1.08 1.11.07 1.1.08 1.1.08 1.1.07 1.1.08 1.11.07 1.1.07 1.1.07 1.1.08 1.1.07 1.11.07 1.1.06 1.1.07 1.1.07 1.11.06 1.1.07 1.1.06 1.1.07 1.11.06 1.1.06 1.1.06 1.1.07 1.11.05 1.1.06 1.1.06 1.1.06 1.11.06 1.1.05 1.1.06 1.11.05 1.1.05 1.1.06 1.1.05 1.11.05 1.1.05 1.1.05 1.1.05 1.11.04 1.1.05 1.1.05 1.11.04 1.1.04 1.1.05 1.11.04 1.1.04 1.1.04 1.11.04 1.1.04 1.1.04 1.1.04 1.11.04 1.1.03 1.1.04 1.11.03 1.1.04 1.1.03 1.11.03 1.1.03 1.1.03 1.11.03 1.1.03 1.1.03 1.11.03 1.1.02 1.11.03 1.1.02 1.1.03 1.11.02 1.1.02 1.1.03 1.11.02 1.1.02 1.1.02 1.11.01 1.1.02 1.11.02 1.1.01 1.1.02 1.11.01 1.1.02 1.1.01 1.11.01 1.1.01 1.11.01 1.1.01 1.1.01 1.11.01 1.1.01h1.11l1.1.01h1.1l1.11.01h2.21m-109.21-4.14.23-1.27.22-1.27.23-1.27.22-1.27.22-1.27.22-1.27.21-1.27.22-1.27.22-1.27.21-1.27.21-1.27.21-1.27.21-1.27.21-1.27.2-1.28.21-1.27.2-1.27.21-1.27.2-1.27.2-1.28.19-1.27.2-1.27.2-1.28.19-1.27.19-1.28.19-1.27.19-1.28.19-1.27.19-1.28.18-1.27.19-1.28.18-1.27.18-1.28.18-1.27.18-1.28.18-1.28.17-1.27.18-1.28.17-1.28.17-1.28.17-1.27.17-1.28.17-1.28.17-1.28.16-1.28.16-1.28.17-1.28.16-1.28.16-1.27.15-1.28.16-1.29.15-1.28.16-1.28.15-1.28.15-1.28.15-1.28.15-1.28.15-1.28.14-1.28.14-1.29.15-1.28.14-1.28.14-1.28.14-1.29.13-1.28.14-1.29.13-1.28.14-1.28.13-1.29.13-1.28.13-1.29.12-1.28.13-1.29.12-1.28.13-1.29.12-1.28.12-1.29.12-1.29.11-1.28.12-1.29.12-1.29.11-1.28.11-1.29.11-1.29.11-1.29.11-1.29.1-1.29.11-1.28.1-1.29.1-1.29.11-1.29.1-1.29.09-1.29.1-1.29.09-1.29.1-1.29.09-1.29.09-1.29.09-1.3m-147.77 17.94.23 1.37.22 1.38.23 1.37.22 1.37.22 1.38.23 1.37.22 1.38.22 1.37.22 1.37.22 1.38.22 1.37.21 1.38.22 1.37.22 1.38.21 1.37.22 1.38.21 1.37.21 1.38.22 1.37.21 1.38.21 1.37.21 1.38.21 1.37.21 1.38.21 1.38.2 1.37.21 1.38.21 1.38.2 1.37.2 1.38.21 1.38.2 1.37.2 1.38.2 1.38.2 1.38.2 1.37.2 1.38.2 1.38.2 1.38.2 1.38.19 1.38.2 1.37.19 1.38.2 1.38.19 1.38.19 1.38.19 1.38.19 1.38.19 1.38.19 1.38.19 1.38.19 1.38.19 1.38.18 1.38.19 1.38.18 1.38.19 1.38.18 1.38.18 1.38.18 1.38.19 1.38.18 1.39.18 1.38.17 1.38.18 1.38.18 1.38.18 1.38.17 1.39.18 1.38.17 1.38.17 1.38.18 1.39.17 1.38.17 1.38.17 1.39.17 1.38.17 1.38.17 1.39.17 1.38.16 1.38.17 1.39.16 1.38.17 1.39.16 1.38.17 1.39.16 1.38.16 1.39.16 1.38.16 1.39.16 1.38.16 1.39.16 1.38.15 1.39.16 1.38.16 1.39.15 1.39.15 1.38.16 1.39.15 1.39m-110.6 47.06 1.09-.56 1.1-.55 1.09-.56 1.09-.55 1.1-.55 1.09-.54 1.1-.55 1.09-.54 1.1-.55 1.09-.54 1.1-.54 1.1-.53 1.1-.54 1.1-.54 1.09-.53 1.1-.53 1.1-.53 1.11-.53 1.1-.52 1.1-.53 1.1-.52 1.1-.52 1.11-.52 1.1-.52 1.1-.52 1.11-.51 1.1-.51 1.11-.51 1.11-.51 1.1-.51 1.11-.51 1.11-.5 1.11-.51 1.11-.5 1.1-.5 1.11-.5 1.12-.49 1.11-.5 1.11-.49 1.11-.49 1.11-.49 1.12-.49 1.11-.49 1.11-.49 1.12-.48 1.11-.48 1.12-.48 1.11-.48 1.12-.48 1.12-.47 1.12-.48 1.11-.47 1.12-.47 1.12-.47 1.12-.46 1.12-.47 1.12-.46 1.12-.47 1.13-.46 1.12-.46 1.12-.45 1.12-.46 1.13-.45 1.12-.45 1.13-.46 1.12-.44 1.13-.45 1.13-.45 1.12-.44 1.13-.44 1.13-.45 1.13-.43 1.12-.44 1.13-.44 1.13-.43 1.14-.44 1.13-.43 1.13-.43 1.13-.42 1.13-.43 1.14-.42 1.13-.43 1.13-.42 1.14-.42 1.13-.42 1.14-.41 1.14-.42 1.13-.41 1.14-.41 1.14-.41 1.14-.41 1.13-.41 1.14-.4 1.14-.4 1.14-.41 1.14-.4 1.15-.39 1.14-.4 1.14-.39M490.02 254.2l.5-1.08.5-1.08.51-1.07.5-1.08.5-1.08.5-1.08.51-1.07.5-1.08.5-1.08.51-1.08.5-1.08.5-1.07.51-1.08.5-1.08.5-1.08.51-1.08.5-1.07.5-1.08.5-1.08.51-1.08.5-1.07.5-1.08.51-1.08.5-1.08.5-1.08.51-1.07.5-1.08.5-1.08.51-1.08.5-1.08.5-1.07.5-1.08.51-1.08.5-1.08.5-1.07.51-1.08.5-1.08.5-1.08.51-1.08.5-1.07.5-1.08.51-1.08.5-1.08.5-1.08.5-1.07.51-1.08.5-1.08.5-1.08.51-1.07.5-1.08.5-1.08.51-1.08.5-1.08.5-1.07.51-1.08.5-1.08.5-1.08.5-1.08.51-1.07.5-1.08.5-1.08.51-1.08.5-1.07.5-1.08.51-1.08.5-1.08.5-1.08.51-1.07.5-1.08.5-1.08.51-1.08.5-1.08.5-1.07.5-1.08.51-1.08.5-1.08.5-1.07.51-1.08.5-1.08.5-1.08.51-1.08.5-1.07.5-1.08.51-1.08.5-1.08.5-1.08.5-1.07.51-1.08.5-1.08.5-1.08.51-1.07.5-1.08.5-1.08.51-1.08.5-1.08.5-1.07.51-1.08.5-1.08.5-1.08m-49.8 106.71-.93-.05-.93-.05-.93-.05-.93-.04-.93-.05-.92-.04-.93-.04-.93-.04-.93-.04-.93-.04-.92-.04-.93-.03-.93-.03-.93-.04-.93-.03-.92-.03-.93-.03-.93-.02-.93-.03-.92-.02-.93-.02-.93-.03-.93-.02-.93-.01-.92-.02-.93-.02-.93-.01-.93-.02-.92-.01-.93-.01-.93-.01-.93-.01h-.93l-.92-.01h-5.57l-.93.01h-.92l-.93.01-.93.01-.93.01-.92.01-.93.01-.93.02-.92.01-.93.02-.93.02-.93.01-.92.03-.93.02-.93.02-.93.03-.92.02-.93.03-.93.03-.92.03-.93.03-.93.03-.93.04-.92.03-.93.04-.93.04-.92.04-.93.04-.93.04-.92.05-.93.04-.93.05-.93.05-.92.05-.93.05-.93.05-.92.05-.93.06-.93.05-.92.06-.93.06-.93.06-.92.06-.93.07-.93.06-.92.07-.93.06-.93.07-.92.07-.93.07-.93.08-.92.07-.93.07-.93.08-.92.08-.93.08-.93.08-.92.08-.93.08m164.45 248.69 1 .11 1 .11 1 .11 1.01.12 1 .12 1 .12 1 .12 1 .13 1 .13 1 .13 1 .13 1 .13 1 .14.99.14 1 .14 1 .14 1 .14.99.15 1 .15 1 .15.99.15 1 .16.99.16 1 .16.99.16.99.16 1 .17.99.17.99.17 1 .17.99.18.99.17.99.18.99.19 1 .18.99.19.99.18.99.19.99.2.98.19.99.2.99.2.99.2.99.2.98.21.99.21.99.2.98.22.99.21.99.22.98.22.99.22.98.22.98.22.99.23.98.23.98.23.99.24.98.23.98.24.98.24.98.24.99.25.98.24.98.25.98.26.98.25.98.25.97.26.98.26.98.26.98.27.98.26.97.27.98.27.98.28.97.27.98.28.97.28.98.28.97.28.98.29.97.29.97.29.98.29.97.29.97.3.98.3.97.3.97.3.97.31.97.31.97.31.97.31.97.31.97.32.97.32.97.32.97.32" style="stroke-width:1.07;stroke:#000000;stroke-opacity:0.10;stroke-linecap:butt"/><path d="m562.66 504.54-.7.06-.69.06-.7.06-.69.05-.69.05-.7.05-.69.05-.69.04-.7.05-.69.04-.69.03-.69.04-.7.03-.69.03-.69.02-.69.03-.69.02-.7.02-.69.02-.69.01-.69.01-.69.01-.69.01h-2.76l-.69-.01h-.69l-.69-.01-.69-.02-.69-.01-.69-.02-.69-.02-.69-.03-.68-.02-.69-.03-.69-.03-.69-.04-.69-.03-.68-.04-.69-.04-.69-.05-.69-.04-.68-.05-.69-.05-.69-.06-.68-.05-.69-.06-.69-.06-.68-.07-.69-.06-.68-.07-.69-.07-.68-.08-.69-.07-.68-.08-.69-.08-.68-.09-.69-.09-.68-.08-.69-.1-.68-.09-.68-.1-.69-.1-.68-.1-.69-.1-.68-.11-.68-.11-.68-.11-.69-.11-.68-.12-.68-.12-.68-.12-.69-.13-.68-.12-.68-.13-.68-.13-.68-.14-.68-.14-.68-.13-.69-.15-.68-.14-.68-.15-.68-.15-.68-.15-.68-.15-.68-.16-.68-.16-.68-.16-.68-.17-.67-.17-.68-.16-.68-.18-.68-.17-.68-.18-.68-.18-.68-.18-.67-.19m-272.02-175.5.45.9.45.9.44.89.45.9.45.9.45.9.44.9.45.9.45.89.45.9.45.9.46.89.45.9.45.89.45.9.46.89.45.9.45.89.46.9.45.89.46.89.45.9.46.89.46.89.45.89.46.89.46.9.46.89.46.89.46.89.46.89.46.89.46.88.46.89.46.89.47.89.46.89.46.88.47.89.46.89.47.88.46.89.47.89.47.88.46.89.47.88.47.88.47.89.47.88.46.88.47.89.47.88.48.88.47.88.47.88.47.89.47.88.48.88.47.88.47.88.48.88.47.87.48.88.48.88.47.88.48.88.48.87.48.88.47.88.48.87.48.88.48.88.48.87.48.88.48.87.49.87.48.88.48.87.48.87.49.88.48.87.49.87.48.87.49.88.48.87.49.87.49.87.49.87.48.87.49.87.49.87.49.86.49.87.49.87.49.87.49.87.5.86.49.87.49.87m-46.47-87.43-.3.71-.3.72-.3.72-.3.72-.3.72-.31.72-.3.72-.29.72-.3.72-.3.72-.3.72-.3.72-.3.72-.29.72-.3.72-.3.73-.29.72-.3.72-.3.72-.29.72-.29.73-.3.72-.29.72-.3.73-.29.72-.29.72-.29.73-.3.72-.29.72-.29.73-.29.72-.29.73-.29.72-.29.73-.29.72-.29.73-.28.73-.29.72-.29.73-.29.72-.28.73-.29.73-.29.73-.28.72-.29.73-.28.73-.28.73-.29.72-.28.73-.28.73-.29.73-.28.73-.28.73-.28.73-.28.73-.29.73-.28.73-.28.73-.27.73-.28.73-.28.73-.28.73-.28.73-.28.73-.27.74-.28.73-.28.73-.27.73-.28.73-.27.74-.28.73-.27.73-.28.74-.27.73-.27.73-.28.74-.27.73-.27.74-.27.73-.27.74-.27.73-.27.74-.27.73-.27.74-.27.73-.27.74-.27.74-.27.73-.27.74-.26.74-.27.73-.27.74-.26.74-.27.74-.26.73-.27.74-.26.74-.27.74-.26.74m-36.11 62.36 1.07-.64 1.07-.63 1.07-.63 1.07-.63 1.07-.62 1.07-.62 1.07-.62 1.07-.61 1.08-.61 1.07-.61 1.08-.6 1.08-.6 1.08-.6 1.08-.59 1.08-.59 1.08-.59 1.08-.58 1.09-.58 1.08-.58 1.09-.57 1.09-.57 1.09-.57 1.09-.57 1.09-.56 1.09-.55 1.09-.56 1.09-.55 1.1-.55 1.09-.54 1.1-.54 1.1-.54 1.1-.53 1.09-.53 1.11-.53 1.1-.53 1.1-.52 1.1-.52 1.11-.51 1.1-.51 1.11-.51 1.11-.51 1.11-.5 1.11-.5 1.11-.49 1.11-.49 1.11-.49 1.12-.49 1.11-.48 1.12-.48 1.12-.47 1.11-.47 1.12-.47 1.12-.47 1.12-.46 1.13-.46 1.12-.46 1.12-.45 1.13-.45 1.13-.44 1.12-.45 1.13-.43 1.13-.44 1.13-.43 1.13-.43 1.14-.43 1.13-.42 1.14-.42 1.13-.42 1.14-.41 1.14-.41 1.13-.41 1.14-.4 1.15-.4 1.14-.4 1.14-.39 1.14-.39 1.15-.39 1.15-.38 1.14-.38 1.15-.38 1.15-.37 1.15-.37 1.15-.37 1.15-.36 1.16-.36 1.15-.36 1.16-.35 1.15-.35 1.16-.35 1.16-.35 1.16-.34 1.16-.33 1.16-.34 1.16-.33 1.17-.33 1.16-.32 1.17-.32 1.16-.32 1.17-.31M490.02 254.2l-.02 1.34-.02 1.34-.01 1.34-.02 1.34-.01 1.34-.02 1.33-.01 1.34-.01 1.34-.02 1.34-.01 1.34-.01 1.34-.01 1.34-.01 1.34v1.34l-.01 1.34-.01 1.33v1.34l-.01 1.34v1.34l-.01 1.34v2.68l-.01 1.34v4.01l.01 1.34v4.02l.01 1.34v1.34l.01 1.33v1.34l.01 1.34.01 1.34.01 1.34.01 1.34.01 1.34.01 1.34.01 1.33.01 1.34.01 1.34.02 1.34.01 1.34.02 1.34.01 1.34.02 1.33.02 1.34.02 1.34.01 1.34.02 1.34.02 1.34.02 1.34.03 1.33.02 1.34.02 1.34.03 1.34.02 1.34.03 1.34.02 1.33.03 1.34.03 1.34.02 1.34.03 1.34.03 1.34.03 1.33.03 1.34.04 1.34.03 1.34.03 1.34.04 1.34.03 1.33.04 1.34.03 1.34.04 1.34.04 1.34.03 1.33.04 1.34.04 1.34.04 1.34.05 1.34.04 1.33.04 1.34.04 1.34.05 1.34.04 1.34.05 1.33.04 1.34.05 1.34.05 1.34.05 1.34.05 1.33.05 1.34.05 1.34.05 1.34.05 1.34.05 1.33.06 1.34m-1.78-132.51-.93.02-.93.01-.93.02-.92.02-.93.01-.93.02-.93.02-.92.01-.93.02-.93.02-.92.01-.93.02-.93.02-.93.01-.92.02-.93.02-.93.01-.93.02-.92.02-.93.01-.93.02-.93.02-.92.01-.93.02-.93.02-.92.01-.93.02-.93.02-.93.01-.92.02-.93.02-.93.01-.93.02-.92.02-.93.02-.93.01-.92.02-.93.02-.93.01-.93.02-.92.02-.93.01-.93.02-.93.02-.92.01-.93.02-.93.02-.93.01-.92.02-.93.02-.93.01-.92.02-.93.02-.93.01-.93.02-.92.02-.93.01-.93.02-.93.02-.92.01-.93.02-.93.02-.92.01-.93.02-.93.02-.93.01-.92.02-.93.02-.93.01-.93.02-.92.02-.93.01-.93.02-.93.02-.92.01-.93.02-.93.02-.92.01-.93.02-.93.02-.93.01-.92.02-.93.02-.93.01-.93.02-.92.02-.93.01-.93.02-.92.02-.93.01-.93.02-.93.02-.92.01-.93.02-.93.02-.93.01-.92.02-.93.02-.93.01m135.16 42.4-.42.89-.42.89-.42.9-.42.89-.42.89-.42.9-.42.89-.42.89-.42.9-.42.89-.42.9-.42.89-.42.89-.42.9-.42.89-.42.89-.42.9-.42.89-.42.89-.42.9-.42.89-.42.89-.42.9-.42.89-.42.9-.42.89-.42.89-.42.9-.42.89-.42.89-.42.9-.42.89-.42.89-.42.9-.42.89-.42.9-.42.89-.42.89-.42.9-.42.89-.42.89-.42.9-.42.89-.42.89-.42.9-.42.89-.42.89-.42.9-.42.89-.42.9-.42.89-.42.89-.42.9-.42.89-.42.89-.42.9-.41.89-.42.89-.42.9-.42.89-.42.9-.42.89-.42.89-.42.9-.42.89-.42.89-.42.9-.42.89-.42.89-.42.9-.42.89-.42.89-.42.9-.42.89-.42.9-.42.89-.42.89-.42.9-.42.89-.42.89-.42.9-.42.89-.42.89-.42.9-.42.89-.42.89-.42.9-.42.89-.42.9-.42.89-.42.89-.42.9-.42.89-.42.89-.42.9-.42.89-.42.89-.42.9-.42.89m45.11 57.14-.46-.58-.46-.57-.45-.58-.46-.58-.45-.57-.46-.58-.45-.58-.46-.58-.46-.57-.45-.58-.46-.58-.45-.58-.46-.57-.45-.58-.46-.58-.45-.57-.46-.58-.46-.58-.45-.58-.46-.57-.45-.58-.46-.58-.45-.57-.46-.58-.46-.58-.45-.58-.46-.57-.45-.58-.46-.58-.45-.57-.46-.58-.46-.58-.45-.58-.46-.57-.45-.58-.46-.58-.45-.57-.46-.58-.45-.58-.46-.58-.46-.57-.45-.58-.46-.58-.45-.57-.46-.58-.45-.58-.46-.58-.46-.57-.45-.58-.46-.58-.45-.57-.46-.58-.45-.58-.46-.58-.45-.57-.46-.58-.46-.58-.45-.57-.46-.58-.45-.58-.46-.58-.45-.57-.46-.58-.46-.58-.45-.57-.46-.58-.45-.58-.46-.58-.45-.57-.46-.58-.45-.58-.46-.57-.46-.58-.45-.58-.46-.58-.45-.57-.46-.58-.45-.58-.46-.58-.46-.57-.45-.58-.46-.58-.45-.57-.46-.58-.45-.58-.46-.58-.45-.57-.46-.58-.46-.58-.45-.57-.46-.58-.45-.58-.46-.58-.45-.57-.46-.58-.46-.58-.45-.57-.46-.58-.45-.58" style="stroke-width:1.07;stroke:#000000;stroke-opacity:0.10;stroke-linecap:butt"/><path d="m536.91 443.85-.43.55-.43.55-.42.56-.43.55-.43.55-.42.55-.43.55-.42.55-.43.56-.43.55-.42.55-.43.55-.42.55-.43.55-.43.56-.42.55-.43.55-.42.55-.43.55-.43.55-.42.56-.43.55-.42.55-.43.55-.43.55-.42.55-.43.56-.42.55-.43.55-.43.55-.42.55-.43.55-.42.56-.43.55-.43.55-.42.55-.43.55-.42.55-.43.56-.43.55-.42.55-.43.55-.43.55-.42.55-.43.56-.42.55-.43.55-.43.55-.42.55-.43.55-.42.55-.43.56-.43.55-.42.55-.43.55-.42.55-.43.55-.43.56-.42.55-.43.55-.42.55-.43.55-.43.55-.42.56-.43.55-.42.55-.43.55-.43.55-.42.55-.43.56-.42.55-.43.55-.43.55-.42.55-.43.55-.42.56-.43.55-.43.55-.42.55-.43.55-.43.55-.42.56-.43.55-.42.55-.43.55-.43.55-.42.55-.43.56-.42.55-.43.55-.43.55-.42.55-.43.55-.42.56-.43.55-.43.55-.42.55-.43.55-.42.55m-336.15-41.01-.64.88-.65.88-.64.88-.65.88-.64.89-.64.88-.65.88-.64.88-.65.88-.64.88-.65.89-.64.88-.64.88-.65.88-.64.88-.65.89-.64.88-.65.88-.64.88-.65.88-.64.89-.64.88-.65.88-.64.88-.65.88-.64.88-.65.89-.64.88-.65.88-.64.88-.64.88-.65.89-.64.88-.65.88-.64.88-.65.88-.64.89-.64.88-.65.88-.64.88-.65.88-.64.88-.65.89-.64.88-.65.88-.64.88-.64.88-.65.89-.64.88-.65.88-.64.88-.65.88-.64.89-.65.88-.64.88-.64.88-.65.88-.64.89-.65.88-.64.88-.65.88-.64.88-.64.88-.65.89-.64.88-.65.88-.64.88-.65.88-.64.89-.65.88-.64.88-.64.88-.65.88-.64.89-.65.88-.64.88-.65.88-.64.88-.65.88-.64.89-.64.88-.65.88-.64.88-.65.88-.64.89-.65.88-.64.88-.65.88-.64.88-.64.89-.65.88-.64.88-.65.88-.64.88-.65.88-.64.89-.64.88-.65.88-.64.88m127.92-221.79.5.86.49.87.49.87.49.86.49.87.49.87.49.87.49.87.49.86.49.87.49.87.49.87.48.87.49.87.49.88.48.87.49.87.48.87.49.87.48.88.48.87.49.87.48.88.48.87.48.88.48.87.48.88.48.87.48.88.48.87.48.88.48.88.47.87.48.88.48.88.47.88.48.88.47.87.48.88.47.88.48.88.47.88.47.89.48.88.47.88.47.88.47.88.47.88.47.89.47.88.47.88.47.89.46.88.47.89.47.88.47.89.46.88.47.89.46.88.47.89.46.89.46.88.47.89.46.89.46.89.46.89.46.89.47.88.46.89.46.89.45.89.46.9.46.89.46.89.46.89.45.89.46.89.46.9.45.89.46.89.45.9.46.89.45.9.45.89.45.9.46.89.45.9.45.89.45.9.45.9.45.89.45.9.45.9.45.9.44.9.45.9.45.9.44.9.45.9m-46.47-87.43-.26.73-.26.74-.27.74-.26.74-.27.74-.26.74-.27.73-.27.74-.26.74-.27.73-.27.74-.27.74-.27.73-.26.74-.27.74-.27.73-.27.74-.27.73-.27.74-.28.73-.27.74-.27.73-.27.74-.27.73-.28.73-.27.74-.28.73-.27.73-.27.74-.28.73-.28.73-.27.73-.28.74-.27.73-.28.73-.28.73-.28.73-.28.73-.27.73-.28.74-.28.73-.28.73-.28.73-.28.73-.28.73-.29.73-.28.72-.28.73-.28.73-.29.73-.28.73-.28.73-.29.73-.28.72-.29.73-.28.73-.29.73-.29.72-.28.73-.29.73-.29.72-.28.73-.29.72-.29.73-.29.73-.29.72-.29.73-.29.72-.29.73-.29.72-.29.72-.29.73-.3.72-.29.73-.29.72-.3.72-.29.72-.29.73-.3.72-.29.72-.3.72-.29.73-.3.72-.3.72-.29.72-.3.72-.3.72-.3.72-.29.72-.3.72-.3.73-.3.71-.3.72-.3.72-.3.72-.31.72-.3.72-.3.72-.3.72" style="stroke-width:1.07;stroke:#000000;stroke-opacity:0.10;stroke-linecap:butt"/><path d="m178.81 328.21.92.83.91.83.91.83.91.83.92.83.91.83.91.83.91.83.92.83.91.83.91.83.92.83.91.83.91.83.91.83.92.83.91.83.91.83.92.83.91.83.91.83.91.83.92.83.91.83.91.83.92.83.91.83.91.83.91.83.92.83.91.83.91.83.92.83.91.83.91.83.91.83.92.83.91.83.91.83.91.83.92.83.91.83.91.83.92.83.91.83.91.83.91.83.92.83.91.83.91.83.92.83.91.83.91.83.91.83.92.83.91.83.91.83.92.83.91.83.91.83.91.83.92.83.91.83.91.83.91.83.92.83.91.83.91.83.92.83.91.83.91.83.91.83.92.83.91.83.91.83.92.84.91.83.91.83.91.83.92.83.91.83.91.83.92.83.91.83.91.83.91.83.92.83.91.83.91.83.92.83.91.83.91.83.91.83.92.83.91.83.91.83.91.83.92.83.91.83m-90.37-82.18.16.68.16.68.16.67.16.68.16.67.16.68.16.67.17.68.16.67.16.68.16.68.16.67.16.68.16.67.16.68.16.67.16.68.16.67.16.68.16.67.16.68.16.68.16.67.16.68.16.67.16.68.16.67.16.68.16.67.16.68.16.67.16.68.16.68.16.67.17.68.16.67.16.68.16.67.16.68.16.67.16.68.16.68.16.67.16.68.16.67.16.68.16.67.16.68.16.67.16.68.16.67.16.68.16.68.16.67.16.68.16.67.16.68.16.67.16.68.16.67.16.68.16.68.17.67.16.68.16.67.16.68.16.67.16.68.16.67.16.68.16.67.16.68.16.68.16.67.16.68.16.67.16.68.16.67.16.68.16.67.16.68.16.67.16.68.16.68.16.67.16.68.16.67.16.68.16.67.17.68.16.67.16.68.16.68.16.67.16.68.16.67.16.68.16.67.16.68m367.97 109.45 1.01.04 1.01.04 1.02.05 1.01.05 1.01.05 1.01.06 1.01.06 1.01.06 1.01.07 1.01.07 1.01.08 1.01.08 1.01.08 1 .08 1.01.09 1 .1 1.01.09 1 .1 1.01.11 1 .11 1 .11 1.01.11 1 .12 1 .12 1 .13 1 .13 1 .13 1 .14.99.14 1 .14 1 .15.99.15 1 .16.99.16 1 .16.99.16 1 .17.99.18.99.17.99.18.99.19.99.18.99.2.99.19.99.2.99.2.98.21.99.21.99.21.98.21.99.22.98.23.99.23.98.23.98.23.98.24.99.24.98.25.98.24.98.26.98.25.97.26.98.27.98.26.98.27.97.28.98.28.97.28.98.28.97.29.97.29.98.3.97.3.97.3.97.31.97.31.97.31.97.32.97.32.97.33.96.33.97.33.97.34.96.33.97.35.96.34.97.35.96.36.96.36.96.36.97.36.96.37.96.37.96.38.96.38.95.38.96.39.96.39.96.39m-97.57-21.42-.7.11-.7.11-.7.1-.69.1-.7.1-.7.09-.69.09-.7.09-.69.08-.7.08-.69.08-.7.07-.69.07-.7.07-.69.06-.7.06-.69.05-.69.06-.7.04-.69.05-.69.04-.7.04-.69.03-.69.03-.69.03-.7.02-.69.02-.69.02-.69.01-.69.01h-.69l-.69.01-.69-.01h-.69l-.69-.01-.69-.01-.69-.02-.69-.02-.69-.02-.69-.02-.68-.03-.69-.04-.69-.03-.69-.04-.68-.05-.69-.04-.69-.06-.69-.05-.68-.06-.69-.06-.68-.06-.69-.07-.68-.07-.69-.08-.68-.08-.69-.08-.68-.09-.69-.09-.68-.09-.69-.1-.68-.1-.68-.1-.69-.11-.68-.11-.68-.11-.68-.12-.69-.12-.68-.13-.68-.12-.68-.14-.68-.13-.68-.14-.69-.14-.68-.15-.68-.15-.68-.15-.68-.16-.68-.16-.67-.16-.68-.17-.68-.17-.68-.17-.68-.18-.68-.18-.68-.19-.67-.19-.68-.19-.68-.19-.68-.2-.67-.21-.68-.2-.68-.21-.67-.21-.68-.22-.67-.22-.68-.22-.67-.23-.68-.23-.67-.24m-336.15-41.01-.59.92-.6.93-.6.93-.6.92-.6.93-.61.92-.6.92-.6.93-.61.92-.61.92-.6.91-.61.92-.61.92-.61.92-.61.91-.61.91-.62.92-.61.91-.61.91-.62.91-.62.91-.61.91-.62.91-.62.9-.62.91-.62.9-.63.91-.62.9-.62.9-.63.9-.63.9-.62.9-.63.9-.63.9-.63.89-.63.9-.63.89-.64.89-.63.9-.63.89-.64.89-.64.89-.63.89-.64.88-.64.89-.64.89-.64.88-.65.88-.64.89-.65.88-.64.88-.65.88-.64.88-.65.88-.65.87-.65.88-.65.88-.65.87-.66.87-.65.88-.66.87-.65.87-.66.87-.66.87-.66.86-.66.87-.66.87-.66.86-.66.87-.66.86-.67.86-.66.86-.67.86-.67.86-.67.86-.67.86-.67.85-.67.86-.67.85-.67.86-.68.85-.67.85-.68.85-.67.85-.68.85-.68.85-.68.84-.68.85-.68.84-.69.85-.68.84-.68.84-.69.84-.69.84-.68.84-.69.84-.69.84-.69.84-.69.83M490.02 254.2l.05 1.34.05 1.34.05 1.33.06 1.34.05 1.34.05 1.34.05 1.34.04 1.33.05 1.34.05 1.34.05 1.34.04 1.34.05 1.33.04 1.34.04 1.34.05 1.34.04 1.34.04 1.33.04 1.34.04 1.34.04 1.34.04 1.34.03 1.33.04 1.34.04 1.34.03 1.34.04 1.34.03 1.33.03 1.34.04 1.34.03 1.34.03 1.34.03 1.34.03 1.33.03 1.34.03 1.34.02 1.34.03 1.34.03 1.34.02 1.33.03 1.34.02 1.34.02 1.34.03 1.34.02 1.34.02 1.34.02 1.33.02 1.34.02 1.34.02 1.34.01 1.34.02 1.34.02 1.33.01 1.34.01 1.34.02 1.34.01 1.34.01 1.34.01 1.34.02 1.33.01 1.34v1.34l.01 1.34.01 1.34.01 1.34v1.34l.01 1.34.01 1.33v2.68l.01 1.34v8.03l-.01 1.34v2.68l-.01 1.34v1.34l-.01 1.34v1.34l-.01 1.33-.01 1.34-.01 1.34-.01 1.34-.01 1.34-.01 1.34-.01 1.34-.01 1.34-.02 1.34-.01 1.34-.02 1.34-.01 1.33-.02 1.34-.02 1.34-.01 1.34m-1.78-132.51-.93.08-.93.09-.92.08-.93.08-.93.07-.92.08-.93.08-.93.07-.92.07-.93.07-.93.07-.92.07-.93.07-.93.06-.92.07-.93.06-.93.06-.92.06-.93.06-.93.06-.92.06-.93.05-.93.05-.92.06-.93.05-.93.05-.92.05-.93.04-.93.05-.92.04-.93.04-.93.04-.93.04-.92.04-.93.04-.93.04-.92.03-.93.03-.93.04-.93.03-.92.02-.93.03-.93.03-.92.02-.93.03-.93.02-.93.02-.92.02-.93.02-.93.01-.92.02-.93.01-.93.02-.93.01-.92.01-.93.01h-.93l-.93.01h-.92l-.93.01h-3.71l-.93-.01h-.93l-.92-.01-.93-.01-.93-.01-.93-.01-.93-.01-.92-.01-.93-.02-.93-.01-.93-.02-.92-.02-.93-.02-.93-.02-.93-.02-.93-.03-.92-.02-.93-.03-.93-.03-.93-.03-.92-.03-.93-.03-.93-.03-.93-.04-.93-.04-.92-.03-.93-.04-.93-.04-.93-.05-.93-.04-.93-.04-.92-.05-.93-.05-.93-.05-.93-.05" style="stroke-width:1.07;stroke:#000000;stroke-opacity:0.10;stroke-linecap:butt"/><path d="m292.69 323.55-.24.88-.24.88-.23.87-.24.88-.24.88-.24.87-.23.88-.24.88-.24.88-.24.87-.23.88-.24.88-.24.87-.24.88-.23.88-.24.88-.24.87-.23.88-.24.88-.24.87-.24.88-.23.88-.24.88-.24.87-.24.88-.23.88-.24.87-.24.88-.24.88-.23.87-.24.88-.24.88-.24.88-.23.87-.24.88-.24.88-.24.87-.23.88-.24.88-.24.88-.24.87-.23.88-.24.88-.24.87-.24.88-.23.88-.24.88-.24.87-.24.88-.23.88-.24.87-.24.88-.24.88-.23.88-.24.87-.24.88-.24.88-.23.87-.24.88-.24.88-.24.88-.23.87-.24.88-.24.88-.24.87-.23.88-.24.88-.24.87-.24.88-.23.88-.24.88-.24.87-.24.88-.23.88-.24.87-.24.88-.24.88-.23.88-.24.87-.24.88-.24.88-.23.87-.24.88-.24.88-.23.88-.24.87-.24.88-.24.88-.23.87-.24.88-.24.88-.24.88-.23.87-.24.88-.24.88-.24.87-.23.88-.24.88-.24.88m-3.51 137.35.07-1.38.07-1.39.07-1.38.07-1.39.07-1.39.07-1.38.07-1.39.07-1.39.06-1.38.07-1.39.06-1.38.07-1.39.06-1.39.06-1.38.06-1.39.07-1.39.06-1.38.06-1.39.05-1.39.06-1.38.06-1.39.06-1.39.05-1.38.06-1.39.05-1.39.06-1.38.05-1.39.05-1.39.05-1.39.05-1.38.05-1.39.05-1.39.05-1.38.05-1.39.04-1.39.05-1.38.04-1.39.05-1.39.04-1.39.05-1.38.04-1.39.04-1.39.04-1.39.04-1.38.04-1.39.04-1.39.04-1.38.03-1.39.04-1.39.03-1.39.04-1.38.03-1.39.04-1.39.03-1.39.03-1.38.03-1.39.03-1.39.03-1.39.03-1.39.03-1.38.03-1.39.02-1.39.03-1.39.02-1.38.03-1.39.02-1.39.02-1.39.02-1.39.03-1.38.02-1.39.02-1.39.01-1.39.02-1.39.02-1.38.02-1.39.01-1.39.02-1.39.01-1.39.02-1.38.01-1.39.01-1.39.01-1.39.01-1.39.01-1.39.01-1.38.01-1.39.01-1.39v-1.39l.01-1.39.01-1.39v-2.77l.01-1.39v-8.33m-3.51 137.35-.28 1.15-.28 1.14-.28 1.14-.27 1.14-.28 1.15-.28 1.14-.27 1.14-.28 1.14-.27 1.15-.27 1.14-.28 1.14-.27 1.15-.27 1.14-.27 1.15-.27 1.14-.27 1.14-.27 1.15-.27 1.14-.26 1.15-.27 1.14-.27 1.15-.26 1.15-.27 1.14-.26 1.15-.27 1.14-.26 1.15-.26 1.15-.27 1.14-.26 1.15-.26 1.15-.26 1.14-.26 1.15-.26 1.15-.25 1.15-.26 1.14-.26 1.15-.26 1.15-.25 1.15-.26 1.15-.25 1.15-.26 1.15-.25 1.15-.25 1.15-.25 1.14-.26 1.15-.25 1.15-.25 1.15-.25 1.15-.24 1.16-.25 1.15-.25 1.15-.25 1.15-.24 1.15-.25 1.15-.25 1.15-.24 1.15-.24 1.16-.25 1.15-.24 1.15-.24 1.15-.24 1.16-.24 1.15-.24 1.15-.24 1.16-.24 1.15-.24 1.15-.24 1.16-.24 1.15-.23 1.15-.24 1.16-.23 1.15-.24 1.16-.23 1.15-.24 1.16-.23 1.15-.23 1.16-.23 1.15-.23 1.16-.23 1.16-.23 1.15-.23 1.16-.23 1.15-.23 1.16-.22 1.16-.23 1.16-.23 1.15-.22 1.16-.23 1.16-.22 1.16-.22 1.15-.23 1.16-.22 1.16-.22 1.16-.22 1.16-.22 1.16-.22 1.16-.22 1.15-.22 1.16-.22 1.16m24.59-113.92v-9.72l.01-1.38v-1.39l.01-1.39v-1.39l.01-1.39.01-1.39.01-1.39.01-1.38.01-1.39.01-1.39.01-1.39.01-1.39.01-1.39.02-1.38.01-1.39.02-1.39.01-1.39.02-1.39.02-1.38.01-1.39.02-1.39.02-1.39.02-1.39.02-1.38.03-1.39.02-1.39.02-1.39.03-1.39.02-1.38.03-1.39.02-1.39.03-1.39.03-1.38.03-1.39.03-1.39.03-1.39.03-1.39.03-1.38.03-1.39.04-1.39.03-1.39.03-1.38.04-1.39.04-1.39.03-1.39.04-1.38.04-1.39.04-1.39.04-1.39.04-1.38.04-1.39.04-1.39.05-1.38.04-1.39.04-1.39.05-1.39.05-1.38.04-1.39.05-1.39.05-1.38.05-1.39.05-1.39.05-1.38.05-1.39.05-1.39.05-1.39.06-1.38.05-1.39.06-1.39.05-1.38.06-1.39.06-1.39.05-1.38.06-1.39.06-1.39.06-1.38.06-1.39.07-1.39.06-1.38.06-1.39.07-1.39.06-1.38.07-1.39.06-1.38.07-1.39.07-1.39.07-1.38.07-1.39.07-1.39.07-1.38.07-1.39.07-1.38" style="stroke-width:1.07;stroke:#000000;stroke-opacity:0.10;stroke-linecap:butt"/><path d="m265.67 547.74-.22 1.16-.22 1.16-.22 1.16-.22 1.16-.22 1.16-.22 1.16-.22 1.16-.22 1.16-.22 1.15-.23 1.16-.22 1.16-.23 1.16-.22 1.16-.23 1.15-.22 1.16-.23 1.16-.23 1.15-.23 1.16-.23 1.16-.22 1.15-.24 1.16-.23 1.15-.23 1.16-.23 1.16-.23 1.15-.24 1.16-.23 1.15-.23 1.16-.24 1.15-.24 1.15-.23 1.16-.24 1.15-.24 1.16-.23 1.15-.24 1.15-.24 1.16-.24 1.15-.24 1.15-.25 1.16-.24 1.15-.24 1.15-.24 1.15-.25 1.15-.24 1.16-.25 1.15-.24 1.15-.25 1.15-.25 1.15-.24 1.15-.25 1.15-.25 1.15-.25 1.15-.25 1.15-.25 1.15-.25 1.15-.26 1.15-.25 1.15-.25 1.15-.26 1.15-.25 1.15-.26 1.15-.25 1.15-.26 1.15-.26 1.14-.25 1.15-.26 1.15-.26 1.15-.26 1.14-.26 1.15-.26 1.15-.26 1.15-.26 1.14-.27 1.15-.26 1.15-.26 1.14-.27 1.15-.26 1.14-.27 1.15-.27 1.14-.26 1.15-.27 1.14-.27 1.15-.27 1.14-.27 1.15-.27 1.14-.27 1.15-.27 1.14-.27 1.14-.28 1.15-.27 1.14-.27 1.14-.28 1.15-.27 1.14-.28 1.14-.27 1.15-.28 1.14-.28 1.14-.28 1.14-.28 1.14m141.51-279.09-1.14.28-1.15.28-1.14.28-1.15.28-1.14.28-1.15.28-1.15.28-1.14.29-1.15.28-1.14.28-1.15.28-1.14.28-1.15.28-1.15.28-1.14.28-1.15.28-1.14.28-1.15.29-1.14.28-1.15.28-1.14.28-1.15.28-1.15.28-1.14.28-1.15.28-1.14.28-1.15.28-1.14.29-1.15.28-1.14.28-1.15.28-1.15.28-1.14.28-1.15.28-1.14.28-1.15.28-1.14.28-1.15.29-1.14.28-1.15.28-1.15.28-1.14.28-1.15.28-1.14.28-1.15.28-1.14.28-1.15.28-1.14.28-1.15.29-1.15.28-1.14.28-1.15.28-1.14.28-1.15.28-1.14.28-1.15.28-1.15.28-1.14.28-1.15.29-1.14.28-1.15.28-1.14.28-1.15.28-1.14.28-1.15.28-1.15.28-1.14.28-1.15.28-1.14.29-1.15.28-1.14.28-1.15.28-1.14.28-1.15.28-1.15.28-1.14.28-1.15.28-1.14.28-1.15.29-1.14.28-1.15.28-1.14.28-1.15.28-1.15.28-1.14.28-1.15.28-1.14.28-1.15.28-1.14.29-1.15.28-1.14.28-1.15.28-1.15.28-1.14.28-1.15.28-1.14.28-1.15.28-1.14.28-1.15.29m113.41-27.82.16-1.28.16-1.28.16-1.28.15-1.28.16-1.28.16-1.28.16-1.28.16-1.28.15-1.28.16-1.28.16-1.28.16-1.28.15-1.28.16-1.28.16-1.28.16-1.28.16-1.28.15-1.28.16-1.28.16-1.28.16-1.28.15-1.28.16-1.28.16-1.28.16-1.28.15-1.28.16-1.28.16-1.28.16-1.28.16-1.28.15-1.28.16-1.28.16-1.28.16-1.28.15-1.28.16-1.28.16-1.28.16-1.28.16-1.28.15-1.28.16-1.28.16-1.28.16-1.28.15-1.28.16-1.28.16-1.28.16-1.28.16-1.28.15-1.28.16-1.28.16-1.28.16-1.28.15-1.28.16-1.28.16-1.28.16-1.28.16-1.28.15-1.28.16-1.28.16-1.28.16-1.28.15-1.28.16-1.28.16-1.28.16-1.28.16-1.28.15-1.28.16-1.28.16-1.28.16-1.28.15-1.28.16-1.28.16-1.28.16-1.28.16-1.28.15-1.28.16-1.28.16-1.28.16-1.28.15-1.28.16-1.28.16-1.28.16-1.28.16-1.28.15-1.28.16-1.28.16-1.28.16-1.28.15-1.28.16-1.28.16-1.28.16-1.28.16-1.28.15-1.28.16-1.28.16-1.28.16-1.28.15-1.28.16-1.28m-165.1 240.68.36-.87.37-.87.36-.87.37-.87.36-.87.37-.87.36-.87.37-.87.36-.87.36-.87.37-.87.36-.87.37-.87.36-.87.37-.87.36-.87.36-.87.37-.87.36-.87.37-.87.36-.87.37-.87.36-.87.36-.87.37-.87.36-.87.37-.87.36-.87.37-.87.36-.87.37-.87.36-.87.36-.87.37-.87.36-.87.37-.87.36-.87.37-.87.36-.87.36-.87.37-.87.36-.87.37-.87.36-.87.37-.87.36-.88.36-.87.37-.87.36-.87.37-.87.36-.87.37-.87.36-.87.37-.87.36-.87.36-.87.37-.87.36-.87.37-.87.36-.87.37-.87.36-.87.36-.87.37-.87.36-.87.37-.87.36-.87.37-.87.36-.87.36-.87.37-.87.36-.87.37-.87.36-.87.37-.87.36-.87.36-.87.37-.87.36-.87.37-.87.36-.87.37-.87.36-.87.37-.87.36-.87.36-.87.37-.87.36-.87.37-.87.36-.87.37-.87.36-.87.36-.87.37-.87.36-.87.37-.87.36-.87.37-.87.36-.87m113.41-27.82h2.21l1.11.01h1.1l1.1.01h1.11l1.1.01 1.11.01 1.1.01 1.1.01 1.11.01 1.1.01 1.11.01 1.1.01 1.1.02 1.11.01 1.1.01 1.1.02 1.11.02 1.1.01 1.11.02 1.1.02 1.1.02 1.11.02 1.1.02 1.1.03 1.11.02 1.1.02 1.11.03 1.1.02 1.1.03 1.11.03 1.1.03 1.1.03 1.11.03 1.1.03 1.1.03 1.11.03 1.1.03 1.1.04 1.11.03 1.1.04 1.1.03 1.11.04 1.1.04 1.1.04 1.11.04 1.1.04 1.1.04 1.1.04 1.11.04 1.1.04 1.1.05 1.11.04 1.1.05 1.1.05 1.11.04 1.1.05 1.1.05 1.1.05 1.11.05 1.1.05 1.1.06 1.11.05 1.1.05 1.1.06 1.1.05 1.11.06 1.1.06 1.1.06 1.1.05 1.11.06 1.1.06 1.1.07 1.1.06 1.11.06 1.1.06 1.1.07 1.1.06 1.11.07 1.1.07 1.1.07 1.1.06 1.11.07 1.1.07 1.1.07 1.1.08 1.1.07 1.11.07 1.1.08 1.1.07 1.1.08 1.11.07 1.1.08 1.1.08 1.1.08 1.1.08 1.11.08 1.1.08" style="stroke-width:1.07;stroke:#000000;stroke-opacity:0.10;stroke-linecap:butt"/><path d="m382.59 382.57.09-1.29.09-1.29.1-1.3.09-1.29.1-1.29.09-1.29.1-1.29.1-1.29.1-1.29.1-1.28.11-1.29.1-1.29.11-1.29.11-1.29.1-1.29.11-1.29.12-1.28.11-1.29.11-1.29.12-1.28.12-1.29.12-1.29.12-1.28.12-1.29.12-1.28.13-1.29.12-1.29.13-1.28.13-1.29.13-1.28.13-1.28.13-1.29.14-1.28.13-1.29.14-1.28.14-1.28.14-1.29.14-1.28.14-1.28.14-1.28.15-1.28.15-1.29.14-1.28.15-1.28.15-1.28.16-1.28.15-1.28.16-1.28.15-1.28.16-1.28.16-1.28.16-1.28.16-1.28.16-1.28.17-1.28.17-1.28.16-1.28.17-1.27.17-1.28.17-1.28.18-1.28.17-1.27.18-1.28.17-1.28.18-1.27.18-1.28.18-1.28.19-1.27.18-1.28.19-1.27.18-1.28.19-1.27.19-1.28.19-1.27.2-1.28.19-1.27.19-1.27.2-1.28.2-1.27.2-1.27.2-1.28.2-1.27.21-1.27.2-1.27.21-1.27.2-1.28.21-1.27.21-1.27.22-1.27.21-1.27.21-1.27.22-1.27.22-1.27.22-1.27.22-1.27.22-1.27.22-1.27.23-1.27.22-1.27m-87.47 238.07-.42-.84-.42-.85-.42-.84-.42-.85-.42-.84-.42-.84-.42-.85-.42-.84-.42-.85-.42-.84-.42-.84-.42-.85-.42-.84-.42-.84-.42-.85-.42-.84-.42-.85-.42-.84-.41-.84-.42-.85-.42-.84-.42-.84-.42-.85-.42-.84-.42-.85-.42-.84-.42-.84-.42-.85-.42-.84-.42-.84-.42-.85-.42-.84-.42-.85-.42-.84-.42-.84-.42-.85-.42-.84-.42-.84-.42-.85-.42-.84-.42-.85-.42-.84-.42-.84-.42-.85-.42-.84-.42-.84-.42-.85-.42-.84-.42-.85-.42-.84-.42-.84-.42-.85-.42-.84-.42-.85-.42-.84-.42-.84-.42-.85-.42-.84-.42-.84-.42-.85-.42-.84-.42-.85-.42-.84-.42-.84-.42-.85-.42-.84-.42-.84-.42-.85-.42-.84-.42-.85-.41-.84-.42-.84-.42-.85-.42-.84-.42-.84-.42-.85-.42-.84-.42-.85-.42-.84-.42-.84-.42-.85-.42-.84-.42-.84-.42-.85-.42-.84-.42-.85-.42-.84-.42-.84-.42-.85-.42-.84-.42-.84-.42-.85-.42-.84-.42-.85-.42-.84-.42-.84-.42-.85-.42-.84-.42-.84m-74.49-15.3.69.56.69.55.69.55.7.53.7.53.69.52.7.51.7.5.7.5.7.48.71.48.7.47.71.46.7.45.71.45.71.43.71.43.72.42.71.41.71.41.72.39.72.39.72.38.72.37.72.36.72.35.72.35.73.33.72.33.73.32.73.31.73.31.73.29.73.29.74.28.73.27.74.26.73.26.74.24.74.24.74.23.75.22.74.21.74.21.75.19.75.19.75.18.75.17.75.16.75.16.75.14.76.14.75.13.76.12.76.12.76.1.76.1.76.09.77.08.76.07.77.06.77.06.77.04.77.04.77.03.77.02.77.02h1.56l.77-.01.78-.02.78-.03.78-.04.79-.04.78-.05.78-.06.79-.07.79-.08.79-.09.79-.09.79-.1.79-.11.8-.12.79-.13.8-.14.8-.14.79-.15.8-.16.81-.17.8-.18.8-.18.81-.2.8-.2.81-.21.81-.22.81-.22.81-.24.82-.24.81-.25" style="stroke-width:1.07;stroke:#000000;stroke-opacity:0.10;stroke-linecap:butt"/><path d="m194.69 395.09.7.5.7.5.7.5.7.48.7.48.71.47.7.46.71.46.71.45.71.44.71.43.71.43.71.42.71.42.72.4.71.4.72.39.72.39.72.37.72.37.72.37.72.35.72.35.73.34.72.34.73.32.72.32.73.31.73.31.73.3.74.29.73.28.73.28.74.27.73.26.74.26.74.24.74.25.74.23.74.23.74.21.75.22.74.2.75.2.74.19.75.18.75.18.75.17.75.16.76.15.75.15.75.14.76.13.76.13.75.12.76.11.76.1.76.1.77.09.76.08.76.08.77.07.77.06.76.05.77.05.77.04.77.03.78.03.77.01.77.02h1.55l.78-.02.78-.01.78-.03.78-.03.78-.04.79-.05.78-.05.79-.06.78-.07.79-.07.79-.09.79-.09.79-.09.79-.11.79-.11.8-.12.79-.12.8-.14.79-.14.8-.14.8-.16.8-.16.8-.17.81-.17.8-.19.8-.19.81-.19" style="stroke-width:1.07;stroke:#000000;stroke-opacity:0.10;stroke-linecap:butt"/><path d="m194.69 395.09.71.45.7.45.71.44.71.43.71.43.72.42.71.42.71.41.72.4.71.4.72.39.72.39.71.37.72.38.72.37.73.36.72.35.72.35.72.34.73.34.72.33.73.33.73.31.73.32.73.3.73.3.73.3.73.29.73.28.74.27.73.27.74.27.73.26.74.25.74.24.74.24.74.24.74.22.74.23.75.21.74.21.75.2.74.2.75.19.75.19.75.18.75.17.75.16.75.17.75.15.75.15.76.14.75.14.76.13.76.12.75.12.76.11.76.11.76.1.77.09.76.09.76.08.77.08.76.06.77.07.77.06.76.05.77.04.77.04.77.03.78.03.77.02.77.02h.78l.77.01.78-.01.78-.01.77-.01.78-.02.78-.03.78-.04.79-.04.78-.04.78-.05.79-.06.78-.07.79-.07.79-.07.79-.09.78-.08.8-.1.79-.1.79-.11.79-.11.8-.12.79-.12.8-.13.79-.14.8-.14" style="stroke-width:1.07;stroke:#000000;stroke-opacity:0.10;stroke-linecap:butt"/><path d="m194.69 395.09.71.4.72.39.72.39.71.38.72.38.72.37.72.37.72.36.72.36.73.36.72.34.72.35.73.34.72.33.73.33.73.32.72.32.73.31.73.31.73.31.73.3.73.29.74.29.73.28.73.28.74.28.73.26.74.27.73.26.74.25.74.25.74.24.74.24.74.24.74.23.74.22.74.22.75.21.74.21.75.21.74.2.75.19.74.19.75.18.75.18.75.18.75.17.75.16.75.16.76.16.75.15.75.14.76.14.75.13.76.13.76.13.75.12.76.11.76.11.76.11.76.1.76.09.77.09.76.09.76.08.77.07.76.07.77.07.77.06.76.05.77.05.77.05.77.04.77.03.77.03.77.03.78.02.77.01.78.01.77.01h.78l.77-.01h.78l.78-.02.78-.02.78-.02.78-.03.78-.04.78-.04.78-.04.79-.05.78-.06.79-.05.78-.07.79-.07.78-.07.79-.08.79-.09.79-.08" style="stroke-width:1.07;stroke:#000000;stroke-opacity:0.10;stroke-linecap:butt"/><path d="m194.69 395.09.72.34.73.34.72.34.73.33.72.33.73.32.73.33.72.31.73.32.73.3.73.31.73.3.73.3.73.29.74.29.73.29.73.28.73.28.74.27.73.27.74.27.74.26.73.26.74.26.74.25.73.25.74.24.74.24.74.24.74.23.75.23.74.22.74.22.74.22.75.21.74.21.75.2.74.2.75.2.74.19.75.19.75.19.75.18.75.18.75.17.75.17.75.17.75.16.75.16.75.15.75.15.76.15.75.14.76.14.75.14.76.13.76.13.75.12.76.12.76.11.76.12.76.1.76.11.76.1.76.1.76.09.76.09.77.08.76.08.76.08.77.07.76.07.77.07.77.06.76.06.77.05.77.05.77.05.77.04.77.04.77.03.77.03.77.03.77.02.78.02.77.02.77.01.78.01h2.33l.77-.01.78-.01.78-.02.78-.02.78-.02.78-.03.78-.03.78-.03" style="stroke-width:1.07;stroke:#000000;stroke-opacity:0.10;stroke-linecap:butt"/><path d="m194.69 395.09.73.29.73.29.74.28.73.28.73.28.74.28.73.27.74.27.73.27.74.26.73.27.74.25.74.26.73.26.74.25.74.25.74.24.74.24.74.24.74.24.74.24.74.23.74.23.74.22.74.23.74.22.75.22.74.21.74.21.75.21.74.21.75.2.74.21.75.19.74.2.75.19.75.19.75.19.74.19.75.18.75.18.75.17.75.18.75.17.75.17.75.16.75.17.75.16.75.15.76.16.75.15.75.15.76.15.75.14.76.14.75.14.76.13.75.14.76.12.75.13.76.13.76.12.76.12.76.11.75.11.76.11.76.11.76.11.76.1.76.1.77.09.76.1.76.09.76.09.76.08.77.09.76.08.77.07.76.08.77.07.76.07.77.06.76.07.77.06.77.06.76.05.77.05.77.05.77.05.77.04.77.04.77.04.77.04.77.03.77.03.77.03.77.02.78.03.77.02" style="stroke-width:1.07;stroke:#000000;stroke-opacity:0.10;stroke-linecap:butt"/><path d="m194.69 395.09.74.23.74.24.74.23.74.23.74.23.74.23.74.22.75.23.74.22.74.22.74.22.75.22.74.21.74.22.75.21.74.21.74.21.75.21.74.2.75.21.74.2.75.2.74.2.75.2.75.19.74.2.75.19.75.19.74.19.75.19.75.19.75.18.75.18.74.18.75.18.75.18.75.18.75.17.75.17.75.17.75.17.75.17.75.17.75.16.75.17.75.16.76.16.75.15.75.16.75.15.76.16.75.15.75.15.75.15.76.14.75.15.76.14.75.14.76.14.75.14.76.13.75.14.76.13.75.13.76.13.76.13.75.13.76.12.76.13.75.12.76.12.76.11.76.12.76.12.76.11.75.11.76.11.76.11.76.1.76.11.76.1.76.1.76.1.77.1.76.1.76.09.76.1.76.09.76.09.77.09.76.08.76.09.77.08.76.08.76.08.77.08.76.08.77.07.76.08" style="stroke-width:1.07;stroke:#000000;stroke-opacity:0.10;stroke-linecap:butt"/><path d="m194.69 395.09.75.18.75.18.74.18.75.18.75.18.75.18.75.18.75.18.75.17.75.18.74.18.75.17.75.18.75.17.75.17.75.18.75.17.75.17.75.17.75.18.75.17.75.17.75.17.75.16.75.17.75.17.75.17.75.16.75.17.75.17.76.16.75.17.75.16.75.16.75.17.75.16.75.16.75.16.76.16.75.16.75.16.75.16.75.16.75.16.76.15.75.16.75.16.75.15.76.16.75.15.75.15.75.16.76.15.75.15.75.16.75.15.76.15.75.15.75.15.76.15.75.14.75.15.76.15.75.15.75.14.76.15.75.14.76.15.75.14.75.15.76.14.75.14.76.14.75.14.76.14.75.14.76.14.75.14.76.14.75.14.76.14.75.13.76.14.75.14.76.13.75.14.76.13.75.13.76.14.75.13.76.13.76.13.75.13.76.13.75.13.76.13.76.13.75.13.76.13m-74.49-15.3.75.13.76.12.76.13.75.13.76.13.76.13.75.13.76.13.75.14.76.13.76.13.75.13.76.14.75.13.76.14.75.13.76.14.75.14.76.13.75.14.76.14.75.14.76.14.75.14.76.14.75.14.76.14.75.15.75.14.76.14.75.15.76.14.75.15.75.14.76.15.75.14.76.15.75.15.75.15.76.15.75.15.75.15.75.15.76.15.75.15.75.15.76.16.75.15.75.15.75.16.76.15.75.16.75.15.75.16.75.16.76.16.75.15.75.16.75.16.75.16.75.16.76.16.75.17.75.16.75.16.75.16.75.17.75.16.75.17.75.16.76.17.75.17.75.16.75.17.75.17.75.17.75.17.75.17.75.17.75.17.75.17.75.17.75.18.75.17.75.17.75.18.74.17.75.18.75.17.75.18.75.18.75.18.75.17.75.18.75.18.75.18.74.18.75.18.75.19" style="stroke-width:1.07;stroke:#000000;stroke-opacity:0.10;stroke-linecap:butt"/><path d="m194.69 395.09.76.07.77.08.76.07.77.08.76.08.76.08.77.09.76.08.76.09.76.09.77.09.76.09.76.09.76.1.76.09.76.1.77.1.76.1.76.1.76.11.76.11.76.1.75.11.76.11.76.12.76.11.76.12.76.12.75.12.76.12.76.12.76.13.75.12.76.13.76.13.75.13.76.13.75.14.76.13.75.14.76.14.75.14.76.15.75.14.75.15.76.15.75.14.75.16.76.15.75.15.75.16.75.16.75.16.76.16.75.16.75.17.75.16.75.17.75.17.75.17.75.17.75.18.75.17.75.18.75.18.74.18.75.18.75.19.75.18.74.19.75.19.75.19.75.19.74.2.75.19.74.2.75.2.75.2.74.21.75.2.74.21.74.2.75.21.74.21.75.22.74.21.74.22.75.21.74.22.74.22.74.23.74.22.75.23.74.22.74.23.74.23.74.24.74.23.74.24" style="stroke-width:1.07;stroke:#000000;stroke-opacity:0.10;stroke-linecap:butt"/><path d="m194.69 395.09.77.02.77.02.78.02.77.03.77.03.77.03.77.04.77.04.77.04.77.04.77.05.77.05.76.05.77.06.77.06.77.06.76.06.77.07.76.06.77.08.76.07.77.08.76.08.76.08.77.09.76.08.76.09.76.1.76.09.77.1.76.11.76.1.76.11.75.11.76.11.76.12.76.12.76.12.75.12.76.13.76.13.75.13.76.14.75.13.76.14.75.15.76.14.75.15.75.15.75.16.76.16.75.16.75.16.75.17.75.16.75.17.75.18.75.17.75.18.75.19.74.18.75.19.75.19.74.19.75.2.75.2.74.2.75.2.74.21.75.21.74.21.74.22.74.22.75.22.74.22.74.23.74.23.74.23.74.23.74.24.74.24.74.24.74.25.74.25.74.25.73.25.74.26.74.26.73.26.74.27.73.26.74.27.73.28.74.27.73.28.73.28.74.29.73.29.73.29" style="stroke-width:1.07;stroke:#000000;stroke-opacity:0.10;stroke-linecap:butt"/><path d="m194.69 395.09.78-.04.78-.03.78-.03.78-.02.78-.02.78-.01.77-.02h.78l.78-.01h.77l.78.01h.77l.78.01.77.02.77.02.78.02.77.03.77.03.77.03.77.04.77.05.77.04.77.05.77.06.76.05.77.06.77.07.76.07.77.07.76.08.76.08.77.09.76.08.76.1.76.09.76.1.76.11.76.11.76.11.76.11.76.12.75.13.76.13.76.13.75.13.76.14.75.14.75.15.76.15.75.16.75.15.75.17.75.16.75.17.75.18.75.17.75.19.75.18.75.19.74.19.75.2.74.2.75.21.74.2.75.22.74.21.74.22.74.23.74.23.75.23.74.23.74.24.73.25.74.24.74.26.74.25.73.26.74.26.74.27.73.27.73.27.74.28.73.28.73.29.74.29.73.29.73.3.73.3.73.31.73.31.72.31.73.32.73.32.73.32.72.33.73.33.72.34.73.34.72.35" style="stroke-width:1.07;stroke:#000000;stroke-opacity:0.10;stroke-linecap:butt"/><path d="m194.69 395.09.79-.09.79-.09.78-.07.79-.08.79-.07.78-.06.79-.06.78-.06.79-.05.78-.04.78-.04.78-.03.78-.03.78-.03.78-.02.78-.01.78-.01.77-.01h.78l.77.01.78.01.77.02.77.02.78.02.77.03.77.04.77.04.77.04.77.05.76.06.77.06.77.06.76.07.77.08.76.08.76.08.76.09.77.1.76.1.76.1.76.11.75.11.76.12.76.13.76.13.75.13.76.14.75.15.75.15.76.15.75.16.75.17.75.17.75.17.75.18.74.18.75.19.75.2.74.2.75.2.74.21.75.21.74.22.74.23.74.23.74.23.74.24.74.24.74.25.74.26.73.26.74.26.73.27.74.27.73.28.73.28.74.29.73.3.73.3.73.3.73.31.73.31.72.32.73.32.73.33.72.34.73.33.72.35.72.35.72.35.73.36.72.36.72.37.72.37.71.38.72.39.72.38.72.4.71.4" style="stroke-width:1.07;stroke:#000000;stroke-opacity:0.10;stroke-linecap:butt"/><path d="m194.69 395.09.8-.15.79-.13.8-.13.79-.13.8-.12.79-.11.79-.11.79-.1.79-.09.79-.09.79-.08.79-.08.79-.07.78-.07.79-.05.78-.06.78-.04.78-.04.79-.04.78-.02.78-.03.77-.01.78-.01h1.55l.78.01.77.01.77.02.78.03.77.03.77.04.77.05.76.05.77.06.77.06.76.07.77.07.76.09.76.08.76.1.77.1.76.1.75.11.76.12.76.13.76.13.75.13.75.15.76.14.75.16.75.16.75.17.75.17.75.18.75.18.75.19.74.2.75.2.74.21.74.22.75.22.74.23.74.23.74.24.74.25.73.25.74.25.74.27.73.27.74.27.73.29.73.29.73.29.73.3.73.31.73.31.73.32.72.32.73.33.73.34.72.34.72.35.72.36.72.36.73.37.71.37.72.38.72.38.72.4.71.39.72.41.71.41.71.41.72.42.71.43.71.44.71.44.7.44.71.46" style="stroke-width:1.07;stroke:#000000;stroke-opacity:0.10;stroke-linecap:butt"/><path d="m194.69 395.09.8-.2.81-.19.8-.18.81-.18.8-.17.8-.16.8-.15.79-.15.8-.14.8-.13.79-.13.8-.12.79-.11.79-.1.79-.1.79-.09.79-.08.79-.08.78-.07.79-.06.78-.05.79-.05.78-.04.78-.03.78-.02.78-.02.77-.01.78-.01.78.01.77.01.77.02.78.02.77.03.77.04.76.05.77.05.77.07.76.06.77.08.76.08.76.09.77.1.76.1.76.11.75.12.76.13.76.13.75.14.75.15.76.15.75.17.75.16.75.18.75.18.74.19.75.2.74.21.75.21.74.22.74.22.74.24.74.24.74.25.74.25.73.26.74.27.73.28.73.28.74.29.73.3.73.31.72.31.73.32.73.33.72.33.73.34.72.35.72.36.72.36.72.37.72.38.72.38.72.39.71.4.71.41.72.41.71.42.71.43.71.43.71.45.71.44.7.46.71.46.7.47.71.48.7.49.7.49.7.5.7.51" style="stroke-width:1.07;stroke:#000000;stroke-opacity:0.10;stroke-linecap:butt"/><path d="m194.69 395.09.81-.25.82-.25.81-.23.81-.23.81-.22.8-.21.81-.2.81-.19.8-.19.8-.18.8-.16.8-.16.8-.16.8-.14.8-.14.79-.12.8-.12.79-.11.79-.11.79-.09.79-.09.79-.07.78-.07.79-.06.78-.06.79-.04.78-.04.78-.02.78-.02.77-.02h.78l.78.01.77.01.77.02.77.03.77.04.77.05.77.05.77.07.76.07.76.08.77.09.76.09.76.11.76.11.75.12.76.13.76.14.75.15.75.15.75.16.75.17.75.18.75.19.74.2.75.2.74.21.75.22.74.23.74.24.74.25.73.25.74.26.73.27.74.28.73.29.73.3.73.3.73.31.73.32.72.33.73.34.72.34.72.36.72.36.72.37.72.38.72.38.72.4.71.4.71.41.72.42.71.43.71.44.7.44.71.45.71.46.7.47.71.48.7.49.7.49.7.5.7.52.69.51.7.53.69.54.7.54.69.55.69.57m225.55 88.07.39-1.14.38-1.14.37-1.15.37-1.14.35-1.14.35-1.14.34-1.15.33-1.14.32-1.14.32-1.14.3-1.14.3-1.14.29-1.14.27-1.14.28-1.14.26-1.14.25-1.14.25-1.14.23-1.13.23-1.14.22-1.14.21-1.14.2-1.13.2-1.14.18-1.14.18-1.13.16-1.14.16-1.13.15-1.14.15-1.14.13-1.13.12-1.13.12-1.14.11-1.13.1-1.13.09-1.14.08-1.13.07-1.13.07-1.14.05-1.13.05-1.13.04-1.13.03-1.13.02-1.13.02-1.13v-2.26l-.02-1.13-.02-1.13-.03-1.13-.03-1.13-.05-1.13-.06-1.12-.06-1.13-.07-1.13-.08-1.13-.09-1.12-.1-1.13-.11-1.12-.11-1.13-.13-1.13-.13-1.12-.14-1.13-.15-1.12-.16-1.12-.17-1.13-.17-1.12-.19-1.13-.19-1.12-.2-1.12-.21-1.12-.22-1.13-.22-1.12-.24-1.12-.24-1.12-.26-1.12-.26-1.12-.27-1.12-.28-1.12-.28-1.12-.3-1.12-.3-1.12-.31-1.12-.33-1.12-.33-1.12-.33-1.11-.35-1.12-.36-1.12-.36-1.12-.37-1.11-.38-1.12-.39-1.11-.4-1.12-.41-1.12-.41-1.11-.43-1.12-.43-1.11-.44-1.11-.45-1.12" style="stroke-width:1.07;stroke:#000000;stroke-opacity:0.10;stroke-linecap:butt"/><path d="m494.73 498.46.33-1.14.32-1.14.32-1.14.3-1.14.31-1.14.29-1.14.29-1.14.28-1.14.27-1.14.26-1.14.26-1.14.25-1.14.24-1.14.24-1.13.22-1.14.22-1.14.22-1.14.2-1.13.2-1.14.19-1.14.19-1.13.17-1.14.17-1.14.16-1.13.16-1.14.14-1.13.14-1.14.14-1.13.12-1.14.12-1.13.11-1.13.1-1.14.1-1.13.08-1.13.08-1.14.08-1.13.06-1.13.06-1.13.05-1.13.05-1.14.03-1.13.03-1.13.03-1.13.01-1.13.01-1.13v-1.13l-.01-1.13-.02-1.13-.02-1.13-.03-1.13-.03-1.12-.05-1.13-.05-1.13-.06-1.13-.07-1.13-.07-1.12-.08-1.13-.09-1.13-.09-1.12-.11-1.13-.11-1.13-.12-1.12-.12-1.13-.13-1.12-.14-1.13-.15-1.12-.16-1.13-.16-1.12-.17-1.12-.17-1.13-.19-1.12-.19-1.12-.2-1.13-.2-1.12-.22-1.12-.22-1.12-.23-1.13-.23-1.12-.24-1.12-.25-1.12-.26-1.12-.27-1.12-.27-1.12-.28-1.12-.28-1.12-.3-1.12-.3-1.12-.31-1.12-.32-1.12-.32-1.11-.33-1.12-.34-1.12-.34-1.12-.36-1.12-.36-1.11-.37-1.12-.37-1.12-.38-1.11-.39-1.12" style="stroke-width:1.07;stroke:#000000;stroke-opacity:0.10;stroke-linecap:butt"/><path d="m494.73 498.46.27-1.14.26-1.13.26-1.14.25-1.14.25-1.14.24-1.14.23-1.14.23-1.14.22-1.13.22-1.14.21-1.14.2-1.14.2-1.13.19-1.14.18-1.13.18-1.14.17-1.14.17-1.13.16-1.14.15-1.13.15-1.14.14-1.13.14-1.14.13-1.13.12-1.14.12-1.13.11-1.13.11-1.14.1-1.13.09-1.14.09-1.13.08-1.13.07-1.13.07-1.14.06-1.13.06-1.13.05-1.13.04-1.13.04-1.13.03-1.13.03-1.14.02-1.13.01-1.13.01-1.13v-1.13l-.01-1.13-.01-1.13-.02-1.12-.02-1.13-.03-1.13-.03-1.13-.05-1.13-.04-1.13-.06-1.13-.06-1.12-.06-1.13-.08-1.13-.08-1.13-.08-1.12-.09-1.13-.1-1.13-.1-1.12-.11-1.13-.12-1.12-.12-1.13-.12-1.12-.14-1.13-.14-1.12-.14-1.13-.16-1.12-.15-1.13-.17-1.12-.17-1.13-.18-1.12-.18-1.12-.19-1.13-.19-1.12-.2-1.12-.21-1.12-.21-1.13-.22-1.12-.23-1.12-.23-1.12-.24-1.12-.24-1.12-.25-1.13-.26-1.12-.26-1.12-.27-1.12-.28-1.12-.28-1.12-.28-1.12-.3-1.12-.3-1.12-.3-1.11-.31-1.12-.32-1.12-.32-1.12-.33-1.12" style="stroke-width:1.07;stroke:#000000;stroke-opacity:0.10;stroke-linecap:butt"/><path d="m494.73 498.46.21-1.13.2-1.14.2-1.14.2-1.13.19-1.14.19-1.14.18-1.13.17-1.14.17-1.14.17-1.13.16-1.14.16-1.13.15-1.14.15-1.13.14-1.14.14-1.13.13-1.14.13-1.13.12-1.14.12-1.13.11-1.13.11-1.14.1-1.13.1-1.13.09-1.14.09-1.13.08-1.13.08-1.14.07-1.13.07-1.13.06-1.13.06-1.13.06-1.14.05-1.13.04-1.13.04-1.13.03-1.13.03-1.13.03-1.13.02-1.13.01-1.13.01-1.13v-3.39l-.01-1.13-.02-1.13-.02-1.13-.02-1.13-.03-1.13-.03-1.13-.04-1.13-.05-1.12-.05-1.13-.05-1.13-.06-1.13-.06-1.13-.07-1.12-.08-1.13-.07-1.13-.09-1.12-.09-1.13-.09-1.13-.1-1.12-.1-1.13-.11-1.13-.11-1.12-.12-1.13-.12-1.12-.13-1.13-.13-1.12-.14-1.13-.14-1.12-.15-1.13-.15-1.12-.16-1.13-.16-1.12-.17-1.13-.17-1.12-.18-1.12-.18-1.13-.18-1.12-.2-1.12-.19-1.13-.2-1.12-.21-1.12-.21-1.12-.22-1.13-.22-1.12-.22-1.12-.23-1.12-.24-1.12-.24-1.12-.24-1.13-.25-1.12-.26-1.12-.26-1.12-.26-1.12-.27-1.12" style="stroke-width:1.07;stroke:#000000;stroke-opacity:0.10;stroke-linecap:butt"/><path d="m494.73 498.46.15-1.13.14-1.14.15-1.13.14-1.14.13-1.13.13-1.14.13-1.13.13-1.13.12-1.14.12-1.13.11-1.14.11-1.13.11-1.13.1-1.14.1-1.13.09-1.13.1-1.14.08-1.13.09-1.13.08-1.14.08-1.13.07-1.13.07-1.13.06-1.13.07-1.14.06-1.13.05-1.13.05-1.13.05-1.13.04-1.14.04-1.13.04-1.13.03-1.13.03-1.13.03-1.13.02-1.13.02-1.13.01-1.13.01-1.13.01-1.13v-3.39l-.01-1.13-.01-1.13-.01-1.13-.02-1.13-.02-1.13-.03-1.13-.03-1.13-.03-1.12-.04-1.13-.04-1.13-.05-1.13-.04-1.13-.05-1.13-.06-1.12-.06-1.13-.06-1.13-.07-1.13-.07-1.12-.07-1.13-.08-1.13-.08-1.13-.09-1.12-.08-1.13-.1-1.13-.09-1.12-.1-1.13-.1-1.13-.11-1.12-.11-1.13-.12-1.12-.11-1.13-.12-1.12-.13-1.13-.13-1.12-.13-1.13-.14-1.13-.14-1.12-.14-1.12-.15-1.13-.15-1.12-.15-1.13-.16-1.12-.16-1.13-.17-1.12-.17-1.12-.17-1.13-.18-1.12-.18-1.13-.18-1.12-.19-1.12-.19-1.12-.2-1.13-.19-1.12-.21-1.12-.2-1.13-.21-1.12" style="stroke-width:1.07;stroke:#000000;stroke-opacity:0.10;stroke-linecap:butt"/><path d="m494.73 498.46.09-1.13.08-1.13.09-1.13.08-1.14.08-1.13.08-1.13.08-1.14.07-1.13.07-1.13.07-1.13.07-1.13.06-1.14.06-1.13.06-1.13.06-1.13.05-1.13.05-1.14.05-1.13.05-1.13.04-1.13.04-1.13.04-1.13.04-1.13.03-1.14.03-1.13.03-1.13.03-1.13.02-1.13.03-1.13.01-1.13.02-1.13.02-1.13.01-1.13.01-1.13.01-1.13v-4.52l-.01-1.13v-1.13l-.01-1.13-.02-1.13-.01-1.13-.02-1.13-.02-1.13-.02-1.13-.02-1.13-.03-1.12-.03-1.13-.03-1.13-.04-1.13-.03-1.13-.04-1.13-.05-1.13-.04-1.12-.05-1.13-.05-1.13-.05-1.13-.05-1.13-.06-1.12-.06-1.13-.06-1.13-.06-1.13-.07-1.12-.07-1.13-.07-1.13-.07-1.13-.08-1.12-.08-1.13-.08-1.13-.08-1.12-.09-1.13-.09-1.13-.09-1.12-.09-1.13-.1-1.13-.09-1.12-.11-1.13-.1-1.13-.1-1.12-.11-1.13-.11-1.12-.12-1.13-.11-1.13-.12-1.12-.12-1.13-.12-1.12-.13-1.13-.12-1.12-.13-1.13-.14-1.12-.13-1.13-.14-1.12-.14-1.13-.14-1.12-.15-1.13-.14-1.12-.15-1.13" style="stroke-width:1.07;stroke:#000000;stroke-opacity:0.10;stroke-linecap:butt"/><path d="m494.73 498.46.03-1.13.03-1.13.02-1.13.03-1.13.03-1.13.02-1.13.02-1.13.03-1.13.02-1.13.02-1.13.01-1.13.02-1.13.02-1.13.01-1.14.01-1.13.02-1.13.01-1.13.01-1.13.01-1.13v-1.13l.01-1.13v-1.13l.01-1.13v-5.65l-.01-1.13v-1.13l-.01-1.12-.01-1.13-.01-1.13-.01-1.13-.01-1.13-.01-1.13-.01-1.13-.02-1.13-.01-1.13-.02-1.13-.02-1.13-.02-1.13-.02-1.13-.02-1.13-.03-1.13-.02-1.12-.03-1.13-.02-1.13-.03-1.13-.03-1.13-.03-1.13-.04-1.13-.03-1.13-.03-1.12-.04-1.13-.04-1.13-.03-1.13-.04-1.13-.04-1.13-.05-1.13-.04-1.12-.04-1.13-.05-1.13-.04-1.13-.05-1.13-.05-1.12-.05-1.13-.05-1.13-.06-1.13-.05-1.13-.06-1.12-.05-1.13-.06-1.13-.06-1.13-.06-1.13-.06-1.12-.06-1.13-.07-1.13-.06-1.13-.07-1.12-.07-1.13-.07-1.13-.07-1.13-.07-1.12-.07-1.13-.07-1.13-.08-1.13-.07-1.12-.08-1.13-.08-1.13-.08-1.12-.08-1.13-.08-1.13-.09-1.12-.08-1.13-.09-1.13-.08-1.12-.09-1.13-.09-1.13" style="stroke-width:1.07;stroke:#000000;stroke-opacity:0.10;stroke-linecap:butt"/><path d="m494.73 498.46-.03-1.12-.03-1.13-.03-1.13-.03-1.13-.03-1.13-.03-1.13-.03-1.13-.03-1.13-.03-1.13-.03-1.12-.03-1.13-.03-1.13-.03-1.13-.03-1.13-.03-1.13-.03-1.13-.03-1.13-.03-1.12-.03-1.13-.03-1.13-.03-1.13-.02-1.13-.03-1.13-.03-1.13-.03-1.13-.03-1.12-.03-1.13-.03-1.13-.03-1.13-.03-1.13-.03-1.13-.03-1.13-.03-1.13-.03-1.13-.03-1.12-.03-1.13-.03-1.13-.03-1.13-.03-1.13-.03-1.13-.03-1.13-.03-1.13-.03-1.12-.03-1.13-.03-1.13-.02-1.13-.03-1.13-.03-1.13-.03-1.13-.03-1.13-.03-1.13-.03-1.12-.03-1.13-.03-1.13-.03-1.13-.03-1.13-.03-1.13-.03-1.13-.03-1.13-.03-1.12-.03-1.13-.03-1.13-.03-1.13-.03-1.13-.03-1.13-.03-1.13-.03-1.13-.03-1.13-.03-1.12-.02-1.13-.03-1.13-.03-1.13-.03-1.13-.03-1.13-.03-1.13-.03-1.13-.03-1.12-.03-1.13-.03-1.13-.03-1.13-.03-1.13-.03-1.13-.03-1.13-.03-1.13-.03-1.12-.03-1.13-.03-1.13-.03-1.13-.03-1.13-.03-1.13-.03-1.13-.03-1.13-.03-1.13-.02-1.12-.03-1.13-.03-1.13-.03-1.13-.03-1.13-.03-1.13" style="stroke-width:1.07;stroke:#000000;stroke-opacity:0.10;stroke-linecap:butt"/><path d="m494.73 498.46-.09-1.12-.09-1.13-.09-1.13-.09-1.12-.08-1.13-.08-1.13-.09-1.12-.08-1.13-.08-1.13-.08-1.12-.07-1.13-.08-1.13-.07-1.13-.08-1.12-.07-1.13-.07-1.13-.07-1.13-.07-1.12-.07-1.13-.06-1.13-.07-1.13-.06-1.12-.07-1.13-.06-1.13-.06-1.13-.06-1.12-.05-1.13-.06-1.13-.06-1.13-.05-1.13-.05-1.12-.05-1.13-.05-1.13-.05-1.13-.05-1.13-.05-1.12-.04-1.13-.05-1.13-.04-1.13-.04-1.13-.04-1.13-.04-1.12-.04-1.13-.04-1.13-.03-1.13-.04-1.13-.03-1.13-.03-1.13-.03-1.12-.03-1.13-.03-1.13-.03-1.13-.03-1.13-.02-1.13-.02-1.13-.03-1.13-.02-1.13-.02-1.13-.02-1.12-.01-1.13-.02-1.13-.01-1.13-.02-1.13-.01-1.13-.01-1.13-.01-1.13-.01-1.13-.01-1.13v-1.13l-.01-1.13v-2.26l-.01-1.13v-2.26l.01-1.13v-1.13l.01-1.13v-1.13l.01-1.13.01-1.13.01-1.13.01-1.13.01-1.13.01-1.13.02-1.13.01-1.13.02-1.13.02-1.13.02-1.13.02-1.13.02-1.13.02-1.13.03-1.13.02-1.13.03-1.14.03-1.13.03-1.13.03-1.13" style="stroke-width:1.07;stroke:#000000;stroke-opacity:0.10;stroke-linecap:butt"/><path d="m494.73 498.46-.15-1.12-.15-1.13-.15-1.12-.14-1.12-.14-1.13-.14-1.12-.13-1.13-.13-1.12-.13-1.13-.13-1.13-.13-1.12-.12-1.13-.12-1.12-.12-1.13-.11-1.12-.11-1.13-.12-1.13-.1-1.12-.11-1.13-.1-1.12-.1-1.13-.1-1.13-.1-1.12-.09-1.13-.09-1.13-.09-1.12-.08-1.13-.09-1.13-.08-1.12-.08-1.13-.07-1.13-.08-1.12-.07-1.13-.07-1.13-.06-1.13-.07-1.12-.06-1.13-.06-1.13-.05-1.13-.06-1.13-.05-1.12-.05-1.13-.05-1.13-.04-1.13-.04-1.13-.04-1.13-.04-1.12-.03-1.13-.04-1.13-.03-1.13-.02-1.13-.03-1.13-.02-1.13-.02-1.13-.02-1.13-.01-1.12-.01-1.13-.01-1.13-.01-1.13-.01-1.13v-3.39l.01-1.13.01-1.13v-1.13l.02-1.13.01-1.13.02-1.13.02-1.13.02-1.14.02-1.13.03-1.13.03-1.13.03-1.13.04-1.13.03-1.13.04-1.13.04-1.13.05-1.13.04-1.14.05-1.13.05-1.13.06-1.13.05-1.13.06-1.14.06-1.13.07-1.13.06-1.13.07-1.13.07-1.14.08-1.13.07-1.13.08-1.13.08-1.14.08-1.13.09-1.13.09-1.14.09-1.13" style="stroke-width:1.07;stroke:#000000;stroke-opacity:0.10;stroke-linecap:butt"/><path d="m494.73 498.46-.21-1.12-.21-1.12-.2-1.12-.2-1.13-.2-1.12-.19-1.12-.18-1.13-.19-1.12-.18-1.12-.18-1.13-.17-1.12-.17-1.12-.16-1.13-.17-1.12-.15-1.13-.16-1.12-.15-1.12-.15-1.13-.14-1.12-.14-1.13-.14-1.12-.13-1.13-.13-1.12-.12-1.13-.12-1.13-.12-1.12-.12-1.13-.11-1.12-.1-1.13-.11-1.13-.1-1.12-.09-1.13-.09-1.12-.09-1.13-.09-1.13-.08-1.13-.07-1.12-.08-1.13-.07-1.13-.06-1.12-.07-1.13-.06-1.13-.05-1.13-.05-1.13-.05-1.12-.05-1.13-.04-1.13-.03-1.13-.04-1.13-.03-1.13-.02-1.13-.02-1.12-.02-1.13-.02-1.13-.01-1.13-.01-1.13v-3.39l.01-1.13.01-1.13.02-1.13.01-1.13.03-1.13.02-1.13.03-1.14.03-1.13.04-1.13.04-1.13.04-1.13.05-1.13.05-1.13.06-1.14.06-1.13.06-1.13.07-1.13.06-1.13.08-1.14.08-1.13.08-1.13.08-1.13.09-1.14.09-1.13.1-1.13.09-1.14.11-1.13.1-1.13.11-1.14.12-1.13.11-1.14.13-1.13.12-1.13.13-1.14.13-1.13.14-1.14.14-1.13.14-1.14.15-1.13.15-1.14" style="stroke-width:1.07;stroke:#000000;stroke-opacity:0.10;stroke-linecap:butt"/><path d="m494.73 498.46-.27-1.12-.27-1.12-.26-1.12-.25-1.12-.25-1.12-.25-1.12-.24-1.12-.23-1.12-.24-1.12-.22-1.13-.22-1.12-.22-1.12-.21-1.12-.2-1.13-.21-1.12-.19-1.12-.19-1.12-.19-1.13-.18-1.12-.18-1.12-.17-1.13-.17-1.12-.16-1.13-.15-1.12-.16-1.13-.14-1.12-.15-1.12-.13-1.13-.14-1.13-.12-1.12-.13-1.13-.11-1.12-.12-1.13-.11-1.12-.1-1.13-.1-1.13-.09-1.12-.09-1.13-.08-1.13-.08-1.12-.07-1.13-.07-1.13-.07-1.13-.06-1.12-.05-1.13-.05-1.13-.04-1.13-.04-1.13-.04-1.12-.03-1.13-.02-1.13-.02-1.13-.02-1.13-.01-1.13v-3.39l.01-1.13.02-1.13.02-1.13.02-1.13.03-1.13.03-1.13.04-1.14.05-1.13.05-1.13.05-1.13.06-1.13.06-1.13.07-1.14.07-1.13.08-1.13.09-1.13.08-1.14.1-1.13.09-1.13.11-1.14.1-1.13.12-1.13.11-1.14.13-1.13.12-1.14.14-1.13.13-1.14.15-1.13.14-1.14.15-1.13.16-1.14.16-1.13.17-1.14.17-1.13.18-1.14.18-1.14.18-1.13.19-1.14.2-1.14.2-1.13.21-1.14.21-1.14" style="stroke-width:1.07;stroke:#000000;stroke-opacity:0.10;stroke-linecap:butt"/><path d="m494.73 498.46-.33-1.11-.33-1.12-.32-1.12-.31-1.12-.3-1.12-.3-1.12-.29-1.12-.29-1.12-.28-1.12-.28-1.12-.26-1.12-.27-1.12-.25-1.12-.25-1.12-.25-1.12-.24-1.12-.23-1.12-.22-1.13-.22-1.12-.22-1.12-.2-1.12-.2-1.13-.2-1.12-.19-1.12-.18-1.13-.18-1.12-.17-1.12-.16-1.13-.16-1.12-.15-1.13-.15-1.12-.14-1.12-.13-1.13-.13-1.13-.12-1.12-.12-1.13-.11-1.12-.1-1.13-.1-1.13-.09-1.12-.08-1.13-.08-1.13-.07-1.12-.07-1.13-.06-1.13-.05-1.13-.05-1.12-.04-1.13-.04-1.13-.03-1.13-.02-1.13-.02-1.13-.01-1.13v-3.39l.02-1.13.02-1.13.02-1.13.03-1.13.04-1.13.05-1.13.05-1.13.05-1.14.06-1.13.07-1.13.08-1.13.08-1.14.08-1.13.1-1.13.1-1.14.1-1.13.11-1.13.12-1.14.12-1.13.13-1.14.14-1.13.14-1.14.15-1.13.15-1.14.16-1.13.17-1.14.17-1.13.18-1.14.19-1.14.19-1.13.19-1.14.21-1.14.21-1.13.21-1.14.22-1.14.23-1.14.24-1.13.24-1.14.24-1.14.25-1.14.26-1.14.27-1.14.27-1.14" style="stroke-width:1.07;stroke:#000000;stroke-opacity:0.10;stroke-linecap:butt"/><path d="m494.73 498.46-.39-1.11-.39-1.12-.37-1.11-.37-1.12-.36-1.12-.35-1.12-.35-1.11-.34-1.12-.33-1.12-.32-1.12-.32-1.12-.31-1.12-.3-1.11-.29-1.12-.29-1.12-.28-1.12-.27-1.12-.27-1.12-.25-1.13-.25-1.12-.25-1.12-.23-1.12-.23-1.12-.22-1.12-.21-1.13-.21-1.12-.2-1.12-.19-1.12-.18-1.13-.18-1.12-.17-1.12-.16-1.13-.16-1.12-.14-1.13-.14-1.12-.14-1.13-.12-1.12-.12-1.13-.11-1.12-.1-1.13-.1-1.13-.09-1.12-.08-1.13-.07-1.13-.07-1.13-.06-1.12-.05-1.13-.04-1.13-.04-1.13-.03-1.13-.02-1.13-.02-1.13v-3.39l.02-1.13.02-1.13.03-1.13.04-1.13.04-1.13.05-1.13.06-1.13.07-1.14.07-1.13.08-1.13.09-1.13.09-1.14.11-1.13.11-1.13.11-1.14.13-1.13.13-1.14.14-1.13.15-1.14.15-1.13.16-1.14.17-1.13.18-1.14.18-1.14.19-1.13.2-1.14.21-1.14.21-1.13.22-1.14.23-1.14.23-1.14.24-1.14.25-1.14.26-1.13.27-1.14.27-1.14.28-1.14.28-1.14.3-1.14.3-1.14.31-1.14.31-1.15.33-1.14.33-1.14" style="stroke-width:1.07;stroke:#000000;stroke-opacity:0.10;stroke-linecap:butt"/><path d="m494.73 498.46-.45-1.11-.45-1.11-.43-1.12-.42-1.11-.42-1.12-.4-1.11-.4-1.12-.39-1.12-.38-1.11-.38-1.12-.36-1.12-.36-1.11-.34-1.12-.34-1.12-.33-1.12-.32-1.11-.32-1.12-.3-1.12-.29-1.12-.29-1.12-.28-1.12-.27-1.12-.26-1.12-.25-1.12-.25-1.12-.23-1.13-.23-1.12-.22-1.12-.21-1.12-.2-1.13-.19-1.12-.19-1.12-.17-1.13-.17-1.12-.16-1.12-.15-1.13-.14-1.12-.13-1.13-.12-1.12-.12-1.13-.1-1.13-.1-1.12-.09-1.13-.08-1.13-.08-1.12-.06-1.13-.06-1.13-.04-1.13-.04-1.13-.03-1.12-.02-1.13-.01-1.13-.01-1.13.01-1.13.01-1.13.02-1.13.03-1.13.04-1.14.05-1.13.06-1.13.06-1.13.07-1.13.09-1.14.09-1.13.1-1.13.1-1.14.12-1.13.12-1.13.14-1.14.14-1.13.15-1.14.16-1.13.17-1.14.17-1.14.19-1.13.19-1.14.2-1.14.21-1.13.22-1.14.23-1.14.24-1.14.24-1.14.26-1.14.26-1.13.27-1.14.28-1.14.29-1.14.29-1.14.31-1.14.31-1.15.32-1.14.33-1.14.34-1.14.35-1.14.36-1.15.36-1.14.37-1.14.39-1.14.39-1.15" style="stroke-width:1.07;stroke:#000000;stroke-opacity:0.10;stroke-linecap:butt"/><path d="m591.72 382.73 1.91 3.32h-3.83zm-9.23-69.09 6.46 11.19h-12.92zM158.58 448.46l7.78 13.48H150.8zm404.08 48.2 6.82 11.82h-13.65zM250.44 269.44l3.77 6.53h-7.54zm132.15 107.89 4.54 7.86h-9.07zm107.43-128.37 4.53 7.86h-9.07zM222.71 318.6l3.77 6.53h-7.54zm310.66-22.56 1.92 3.31h-3.83zm3.54 145.6 1.91 3.32h-3.83zM178.81 326l1.92 3.32h-3.83zm113.88-4.66 1.91 3.32h-3.82zm-27.02 222.05 3.77 6.53h-7.54zm-32.56-49.07 1.91 3.32h-3.82zm77.63-2.61 1.92 3.31h-3.83z" style="stroke-width:0.71;stroke:none;fill:#00BA38"/><path d="M191.32 398.46h6.74v-6.74h-6.74zm298.09 105.32h10.63v-10.63h-10.63z" style="stroke-width:0.71;stroke:none;fill:#619CFF"/><circle cx="491.8" cy="386.71" r="6.58" style="stroke-width:0.71;stroke:none;fill:#F8766D"/><circle cx="62.51" cy="411.05" r="3.37" style="stroke-width:0.71;stroke:none;fill:#F8766D"/><circle cx="269.18" cy="410.39" r="6.76" style="stroke-width:0.71;stroke:none;fill:#F8766D"/><circle cx="660.23" cy="525.96" r="4.5" style="stroke-width:0.71;stroke:none;fill:#F8766D"/><circle cx="94.79" cy="544.75" r="3.37" style="stroke-width:0.71;stroke:none;fill:#F8766D"/><circle cx="583.89" cy="617.39" r="1.42" style="stroke-width:0.71;stroke:none;fill:#F8766D"/><path d="M393.71 260.36h9v-9.01h-9z" style="stroke-width:0.71;stroke:none;fill:#619CFF"/><circle cx="539.82" cy="147.49" r="1.42" style="stroke-width:0.71;stroke:none;fill:#F8766D"/><path d="M238.29 664.46h5.59v-5.59h-5.59z" style="stroke-width:0.71;stroke:none;fill:#619CFF"/><path d="m586.54 389.63 4.32-3.91m-3.23-59.97-4.28-3.88M153.66 462.09l4.09-3.86m410.01 51.15-4.27-4.05m-308.02-236.3-4.2 3.97m136.42 104.96-4.24 3.84m111.64-132.4-4.24 4.01m-262.98 64.88-4.3 3.89m304.68-28.57 4.27 3.86m9.42 141.61-4.2 3.98M173.78 332.97l4.2-3.97m119.85-.8-4.29-3.88m-23.39 219.4-3.62 3.26m-38.57-45.79 4.3-3.88m74.37.27 3.25-2.89M189.52 390.42l4.31 3.9m295.68 99.52 4.35 3.86m-7.32-106.32 4.39-3.9M67.75 406.41l-4.37 3.88m211.01 4.81-4.36-3.94m384.93 119.47 4.4-3.9M89.58 549.46l4.35-3.94m484.69 76.55 4.4-3.91M403.51 251.15l-4.44 3.94m145.57-113.9-4.14 5.41M246.26 657.08l-4.31 3.82" style="stroke-width:0.53;stroke:#BFBFBF"/><path d="M545.77 409.1h58.48-.08l.34-.01.34-.07.33-.12.3-.18.27-.22.23-.26.19-.29.13-.32.08-.34.03-.35h0v-15.15h0l-.03-.35-.08-.34-.13-.32-.19-.29-.23-.26-.27-.22-.3-.17-.33-.13-.34-.07-.26-.01h-58.48l.26.01-.35-.01-.35.04-.33.1-.31.15-.29.19-.25.25-.21.27-.16.31-.11.33-.06.34v15.33-.17.35l.06.34.11.33.16.31.21.28.25.24.29.19.31.15.33.1.35.04z" style="stroke-width:0.53;fill:#FFFFFF;fill-opacity:0.50"/><text x="575.01" y="397.31" lengthAdjust="spacingAndGlyphs" style="font-size:5.69px;font-family:&quot;Arial&quot;" text-anchor="middle" textLength="47.37">NEIGHBORHOOD</text><text x="575.01" y="405.5" lengthAdjust="spacingAndGlyphs" style="font-size:5.69px;font-family:&quot;Arial&quot;" text-anchor="middle" textLength="55.61">IMPROVEMENT DEV</text><path d="M573.71 345.22h50.89-.09l.35-.01.34-.07.33-.12.3-.18.27-.22.23-.26.18-.29.14-.32.08-.34.03-.35h0v-15.15h0l-.03-.35-.08-.34-.14-.32-.18-.29-.23-.26-.27-.22-.3-.17-.33-.13-.34-.07-.26-.01h-50.89l.26.01-.35-.01-.34.04-.34.1-.31.15-.29.19-.25.24-.2.28-.17.31-.11.33-.05.34-.01.18v15.15l.01-.17v.35l.05.34.11.33.17.31.2.28.25.24.29.19.31.15.34.1.34.04z" style="stroke-width:0.53;fill:#FFFFFF;fill-opacity:0.50"/><text x="599.16" y="333.43" lengthAdjust="spacingAndGlyphs" style="font-size:5.69px;font-family:&quot;Arial&quot;" text-anchor="middle" textLength="48.01">NORTH MEADOW</text><text x="599.16" y="341.62" lengthAdjust="spacingAndGlyphs" style="font-size:5.69px;font-family:&quot;Arial&quot;" text-anchor="middle" textLength="46.13">REVITALIZATION</text><path d="M116.68 473.37h59.76-.09l.35-.01.34-.07.32-.12.3-.18.27-.22.23-.26.19-.29.14-.32.08-.34.03-.35h0v-6.96h0l-.03-.34-.08-.34-.14-.32-.19-.3-.23-.26-.27-.22-.3-.17-.32-.12-.34-.07-.26-.02h-59.76l.26.02-.34-.02-.35.05-.33.09-.32.15-.28.2-.25.24-.21.28-.16.31-.11.32-.06.35-.01.17v6.96l.01-.17v.35l.06.34.11.33.16.31.21.28.25.24.28.19.32.15.33.1.35.04z" style="stroke-width:0.53;fill:#FFFFFF;fill-opacity:0.50"/><text x="146.56" y="469.77" lengthAdjust="spacingAndGlyphs" style="font-size:5.69px;font-family:&quot;Arial&quot;" text-anchor="middle" textLength="56.87">CANDACE STAMPER</text><path d="M540.62 520.67h68.28l-.09-.01.35-.01.34-.07.32-.12.3-.18.27-.22.23-.26.19-.29.13-.32.09-.34.03-.34h0v-6.97h0l-.03-.34-.09-.34-.13-.32-.19-.29-.23-.26-.27-.22-.3-.18-.32-.12-.34-.07-.26-.02h-68.28l.26.02-.35-.02-.34.05-.34.09-.31.15-.29.2-.25.24-.21.28-.16.31-.11.33-.06.34v7.14-.18.35l.06.34.11.33.16.31.21.28.25.24.29.2.31.15.34.09.34.04z" style="stroke-width:0.53;fill:#FFFFFF;fill-opacity:0.50"/><text x="574.76" y="517.07" lengthAdjust="spacingAndGlyphs" style="font-size:5.69px;font-family:&quot;Arial&quot;" text-anchor="middle" textLength="65.4">RESIDENCE DEALS LLC</text><path d="M229.72 269.03h65.43l-.09-.01.35-.01.34-.07.32-.12.31-.18.27-.22.23-.26.18-.29.14-.32.08-.34.03-.34h0v-6.97h0l-.03-.34-.08-.34-.14-.32-.18-.29-.23-.27-.27-.21-.31-.18-.32-.12-.34-.07-.26-.02h-65.43l.26.02-.35-.02-.35.05-.33.09-.31.15-.29.2-.25.24-.21.28-.16.31-.11.33-.06.34v7.14-.18.35l.06.34.11.33.16.31.21.28.25.24.29.2.31.14.33.1.35.04z" style="stroke-width:0.53;fill:#FFFFFF;fill-opacity:0.50"/><text x="262.43" y="265.43" lengthAdjust="spacingAndGlyphs" style="font-size:5.69px;font-family:&quot;Arial&quot;" text-anchor="middle" textLength="62.55">CANDACE C STAMPER</text><path d="M371.4 377.96h55.64-.09l.35-.02.34-.06.33-.13.3-.17.27-.22.23-.26.18-.3.14-.32.08-.33.03-.35h0v-15.16h0l-.03-.34-.08-.34-.14-.32-.18-.29-.23-.26-.27-.22-.3-.18-.33-.12-.34-.07-.26-.02H371.4l.26.02-.35-.01-.34.04-.34.09-.31.15-.29.2-.25.24-.21.28-.16.31-.11.33-.05.34-.01.17v15.16l.01-.17v.34l.05.35.11.33.16.31.21.27.25.24.29.2.31.15.34.1.34.04z" style="stroke-width:0.53;fill:#FFFFFF;fill-opacity:0.50"/><text x="399.22" y="366.17" lengthAdjust="spacingAndGlyphs" style="font-size:5.69px;font-family:&quot;Arial&quot;" text-anchor="middle" textLength="36.66">PROSPERITY</text><text x="399.22" y="374.36" lengthAdjust="spacingAndGlyphs" style="font-size:5.69px;font-family:&quot;Arial&quot;" text-anchor="middle" textLength="52.76">MANAGEMENT LLC</text><path d="M466.91 249.4h70.49l-.09-.01.35-.01.34-.07.32-.12.3-.18.27-.22.23-.26.19-.29.14-.32.08-.34.03-.34h0v-6.97h0l-.03-.34-.08-.34-.14-.32-.19-.29-.23-.26-.27-.22-.3-.18-.32-.12-.34-.07-.26-.02h-70.49l.26.02-.35-.02-.34.05-.34.09-.31.15-.29.2-.25.24-.21.28-.16.31-.11.33-.05.34-.01.17v6.97l.01-.18v.35l.05.34.11.33.16.31.21.28.25.24.29.2.31.14.34.1.34.04z" style="stroke-width:0.53;fill:#FFFFFF;fill-opacity:0.50"/><text x="502.15" y="245.8" lengthAdjust="spacingAndGlyphs" style="font-size:5.69px;font-family:&quot;Arial&quot;" text-anchor="middle" textLength="67.61">TRIG INVESTMENTS LLC</text><path d="M208 318.29h62.91-.09l.35-.01.34-.07.33-.13.3-.17.27-.22.23-.26.18-.29.14-.32.08-.34.03-.35h0v-15.15h0l-.03-.35-.08-.34-.14-.32-.18-.29-.23-.26-.27-.22-.3-.18-.33-.12-.34-.07-.26-.01H208l.26.01-.34-.01-.35.04-.33.1-.32.15-.28.19-.25.24-.21.28-.16.31-.11.33-.06.34-.01.18v15.15l.01-.17v.35l.06.34.11.33.16.31.21.27.25.25.28.19.32.15.33.1.35.04z" style="stroke-width:0.53;fill:#FFFFFF;fill-opacity:0.50"/><text x="239.46" y="306.5" lengthAdjust="spacingAndGlyphs" style="font-size:5.69px;font-family:&quot;Arial&quot;" text-anchor="middle" textLength="60.03">RWS II INVESTMENTS</text><text x="239.46" y="314.69" lengthAdjust="spacingAndGlyphs" style="font-size:5.69px;font-family:&quot;Arial&quot;" text-anchor="middle" textLength="10.43">LLC</text><path d="M482.44 293.61h68.6-.09l.35-.02.34-.06.32-.13.3-.17.27-.22.23-.26.19-.3.14-.32.08-.33.03-.35h0v-15.16h0l-.03-.34-.08-.34-.14-.32-.19-.29-.23-.26-.27-.22-.3-.18-.32-.12-.34-.07-.26-.02h-68.6l.26.02-.34-.01-.35.04-.33.09-.32.15-.28.2-.25.24-.21.28-.16.31-.12.33-.05.34-.01.17v15.16l.01-.17v.34l.05.35.12.33.16.3.21.28.25.24.28.2.32.15.33.1.35.04z" style="stroke-width:0.53;fill:#FFFFFF;fill-opacity:0.50"/><text x="516.74" y="281.82" lengthAdjust="spacingAndGlyphs" style="font-size:5.69px;font-family:&quot;Arial&quot;" text-anchor="middle" textLength="65.71">BIG GUY INVESTMENTS</text><text x="516.74" y="290.01" lengthAdjust="spacingAndGlyphs" style="font-size:5.69px;font-family:&quot;Arial&quot;" text-anchor="middle" textLength="10.43">LLC</text><path d="M518.55 439.08h60.69-.08l.34-.02.34-.07.33-.12.3-.17.27-.22.23-.26.19-.3.13-.32.09-.33.02-.35h0v-6.96h0l-.02-.35-.09-.34-.13-.32-.19-.29-.23-.26-.27-.22-.3-.17-.33-.13-.34-.07-.26-.01h-60.69l.26.01-.34-.01-.35.04-.33.1-.32.15-.28.19-.25.24-.21.28-.16.31-.11.33-.06.34-.01.18v6.96l.01-.17v.34l.06.35.11.33.16.3.21.28.25.24.28.2.32.15.33.1.35.04z" style="stroke-width:0.53;fill:#FFFFFF;fill-opacity:0.50"/><text x="548.9" y="435.48" lengthAdjust="spacingAndGlyphs" style="font-size:5.69px;font-family:&quot;Arial&quot;" text-anchor="middle" textLength="57.81">CREDITGUYMKE LLC</text><path d="M146.07 344.25h41.11-.09l.35-.02.34-.07.32-.12.3-.17.27-.22.23-.26.19-.3.14-.32.08-.33.03-.35h0v-6.96h0l-.03-.35-.08-.34-.14-.32-.19-.29-.23-.26-.27-.22-.3-.17-.32-.13-.34-.07-.26-.01h-41.11l.26.01-.35-.01-.34.04-.33.1-.32.15-.28.19-.26.25-.2.27-.17.31-.11.33-.05.34-.01.18v6.96l.01-.17v.34l.05.35.11.33.17.3.2.28.26.24.28.2.32.15.33.1.34.04z" style="stroke-width:0.53;fill:#FFFFFF;fill-opacity:0.50"/><text x="166.62" y="340.65" lengthAdjust="spacingAndGlyphs" style="font-size:5.69px;font-family:&quot;Arial&quot;" text-anchor="middle" textLength="38.22">2467 N 40 LLC</text><path d="M283.75 347.68h51.2l-.08-.01.34-.01.34-.07.33-.12.3-.18.27-.22.23-.26.19-.29.13-.32.09-.34.02-.34h0v-15.16h0l-.02-.35-.09-.33-.13-.32-.19-.3-.23-.26-.27-.22-.3-.17-.33-.13-.34-.06-.26-.02h-51.2l.26.02-.35-.02-.35.04-.33.1-.31.15-.29.2-.25.24-.21.27-.16.31-.11.33-.06.35v15.33-.18.35l.06.34.11.33.16.31.21.28.25.24.29.2.31.15.33.09.35.04z" style="stroke-width:0.53;fill:#FFFFFF;fill-opacity:0.50"/><text x="309.35" y="335.88" lengthAdjust="spacingAndGlyphs" style="font-size:5.69px;font-family:&quot;Arial&quot;" text-anchor="middle" textLength="48.33">S&amp;S HOLDING OF</text><text x="309.35" y="344.08" lengthAdjust="spacingAndGlyphs" style="font-size:5.69px;font-family:&quot;Arial&quot;" text-anchor="middle" textLength="46.13">MILWAUKEE LLC</text><path d="M255.7 543.72h51.85-.08l.34-.01.34-.07.33-.12.3-.18.27-.22.23-.26.19-.29.13-.32.09-.34.02-.35h0v-15.15h0l-.02-.35-.09-.34-.13-.32-.19-.29-.23-.26-.27-.22-.3-.17-.33-.13-.34-.07-.26-.01H255.7l.26.01-.35-.01-.34.04-.34.1-.31.15-.29.19-.25.24-.21.28-.16.31-.11.33-.05.34-.01.18v15.15l.01-.17v.35l.05.34.11.33.16.31.21.28.25.24.29.19.31.15.34.1.34.04z" style="stroke-width:0.53;fill:#FFFFFF;fill-opacity:0.50"/><text x="281.63" y="531.93" lengthAdjust="spacingAndGlyphs" style="font-size:5.69px;font-family:&quot;Arial&quot;" text-anchor="middle" textLength="40.44">FRESH COAST</text><text x="281.63" y="540.12" lengthAdjust="spacingAndGlyphs" style="font-size:5.69px;font-family:&quot;Arial&quot;" text-anchor="middle" textLength="48.97">HOSPITALITY LLC</text><path d="M191.77 520.67h49.31l-.09-.01.35-.01.34-.07.33-.12.3-.18.27-.22.23-.26.18-.29.14-.32.08-.34.03-.34h0v-15.16h0l-.03-.35-.08-.33-.14-.32-.18-.3-.23-.26-.27-.22-.3-.17-.33-.13-.34-.06-.26-.02h-49.31l.26.02-.35-.02-.34.04-.34.1-.31.15-.29.2-.25.24-.21.27-.16.31-.11.33-.06.35v15.33-.18.35l.06.34.11.33.16.31.21.28.25.24.29.2.31.15.34.09.34.04z" style="stroke-width:0.53;fill:#FFFFFF;fill-opacity:0.50"/><text x="216.42" y="508.87" lengthAdjust="spacingAndGlyphs" style="font-size:5.69px;font-family:&quot;Arial&quot;" text-anchor="middle" textLength="46.43">CSRS HLDGS OF</text><text x="216.42" y="517.07" lengthAdjust="spacingAndGlyphs" style="font-size:5.69px;font-family:&quot;Arial&quot;" text-anchor="middle" textLength="46.13">MILWAUKEE LLC</text><path d="M270.16 517.06h49.94-.09l.35-.01.34-.07.32-.13.31-.17.26-.22.24-.26.18-.3.14-.31.08-.34.03-.35h0v-15.16h0l-.03-.34-.08-.34-.14-.32-.18-.29-.24-.26-.26-.22-.31-.18-.32-.12-.34-.07-.26-.02h-49.94l.26.02-.35-.01-.34.04-.34.09-.31.15-.29.2-.25.24-.21.28-.16.31-.11.33-.05.34-.01.17v15.16l.01-.17v.34l.05.35.11.33.16.31.21.27.25.24.29.2.31.15.34.1.34.04z" style="stroke-width:0.53;fill:#FFFFFF;fill-opacity:0.50"/><text x="295.13" y="505.27" lengthAdjust="spacingAndGlyphs" style="font-size:5.69px;font-family:&quot;Arial&quot;" text-anchor="middle" textLength="47.06">CSRS HOLDINGS</text><text x="295.13" y="513.46" lengthAdjust="spacingAndGlyphs" style="font-size:5.69px;font-family:&quot;Arial&quot;" text-anchor="middle" textLength="46.13">MILWAUKEE LLC</text><path d="M143.35 390.42h69.23l-.09-.01.35-.01.34-.07.32-.12.3-.18.27-.22.23-.26.19-.29.13-.32.09-.34.03-.34h0V373.1h0l-.03-.35-.09-.34-.13-.31-.19-.3-.23-.26-.27-.22-.3-.17-.32-.13-.34-.07-.26-.01h-69.23l.26.01-.34-.01-.35.04-.33.1-.32.15-.28.2-.25.24-.21.27-.16.31-.11.33-.06.35-.01.17v15.16l.01-.18v.35l.06.34.11.33.16.31.21.28.25.24.28.2.32.15.33.09.35.04z" style="stroke-width:0.53;fill:#FFFFFF;fill-opacity:0.50"/><text x="177.96" y="378.62" lengthAdjust="spacingAndGlyphs" style="font-size:5.69px;font-family:&quot;Arial&quot;" text-anchor="middle" textLength="66.34">2437 N SHERMAN BLVD,</text><text x="177.96" y="386.82" lengthAdjust="spacingAndGlyphs" style="font-size:5.69px;font-family:&quot;Arial&quot;" text-anchor="middle" textLength="61.61">MILWAUKEE, WI 53210</text><path d="M440.54 493.84h65.45-.09l.35-.01.34-.07.32-.13.31-.17.26-.22.23-.26.19-.29.14-.32.08-.34.03-.35h0v-23.35h0l-.03-.34-.08-.34-.14-.32-.19-.3-.23-.26-.26-.22-.31-.17-.32-.12-.34-.07-.26-.02h-65.45l.26.02-.35-.02-.34.05-.34.09-.31.15-.29.2-.25.24-.21.28-.16.31-.11.33-.05.34-.01.17v23.35l.01-.17v.35l.05.34.11.33.16.31.21.28.25.24.29.19.31.15.34.1.34.04z" style="stroke-width:0.53;fill:#FFFFFF;fill-opacity:0.50"/><text x="473.26" y="473.85" lengthAdjust="spacingAndGlyphs" style="font-size:5.69px;font-family:&quot;Arial&quot;" text-anchor="middle" textLength="62.57">11414 W PARK PL, STE</text><text x="473.26" y="482.05" lengthAdjust="spacingAndGlyphs" style="font-size:5.69px;font-family:&quot;Arial&quot;" text-anchor="middle" textLength="56.87">202, MILWAUKEE, WI</text><text x="473.26" y="490.24" lengthAdjust="spacingAndGlyphs" style="font-size:5.69px;font-family:&quot;Arial&quot;" text-anchor="middle" textLength="15.8">53224</text><path d="M437.59 419.05h65.45-.09l.35-.02.34-.07.32-.12.31-.17.26-.22.24-.26.18-.3.14-.32.08-.33.03-.35h0v-23.35h0l-.03-.35-.08-.34-.14-.31-.18-.3-.24-.26-.26-.22-.31-.17-.32-.13-.34-.07-.26-.01h-65.45l.26.01-.35-.01-.34.04-.34.1-.31.15-.29.2-.25.24-.2.27-.17.31-.11.33-.05.35-.01.17v23.35l.01-.17v.34l.05.35.11.33.17.3.2.28.25.24.29.2.31.15.34.1.34.04z" style="stroke-width:0.53;fill:#FFFFFF;fill-opacity:0.50"/><text x="470.31" y="399.06" lengthAdjust="spacingAndGlyphs" style="font-size:5.69px;font-family:&quot;Arial&quot;" text-anchor="middle" textLength="62.57">11414 W PARK PL, STE</text><text x="470.31" y="407.26" lengthAdjust="spacingAndGlyphs" style="font-size:5.69px;font-family:&quot;Arial&quot;" text-anchor="middle" textLength="56.87">202, MILWAUKEE, WI</text><text x="470.31" y="415.45" lengthAdjust="spacingAndGlyphs" style="font-size:5.69px;font-family:&quot;Arial&quot;" text-anchor="middle" textLength="15.8">53224</text><path d="M53.31 406.41h61.64-.08l.34-.02.34-.07.33-.12.3-.17.27-.22.23-.26.19-.3.13-.32.09-.33.02-.35h0v-15.16h0l-.02-.34-.09-.34-.13-.32-.19-.3-.23-.26-.27-.22-.3-.17-.33-.12-.34-.07-.26-.02H53.31l.26.02-.35-.02-.35.05-.33.09-.31.15-.29.2-.25.24-.21.28-.16.31-.11.32-.06.35v15.33-.18.35l.06.35.11.33.16.3.21.28.25.24.29.2.31.15.33.09.35.05z" style="stroke-width:0.53;fill:#FFFFFF;fill-opacity:0.50"/><text x="84.13" y="394.61" lengthAdjust="spacingAndGlyphs" style="font-size:5.69px;font-family:&quot;Arial&quot;" text-anchor="middle" textLength="58.77">3951 DE REIMER AVE</text><text x="84.13" y="402.81" lengthAdjust="spacingAndGlyphs" style="font-size:5.69px;font-family:&quot;Arial&quot;" text-anchor="middle" textLength="54.96">3, BRONX, NY 10466</text><path d="M251.34 434.58h69.22-.09l.35-.02.34-.07.33-.12.3-.17.27-.22.23-.26.18-.3.14-.32.08-.33.03-.35h0v-15.16h0l-.03-.34-.08-.34-.14-.32-.18-.3-.23-.26-.27-.22-.3-.17-.33-.12-.34-.07-.26-.02h-69.22l.26.02-.35-.02-.34.05-.34.09-.31.15-.29.2-.25.24-.21.28-.16.31-.11.33-.05.34-.01.17v15.16l.01-.17v.34l.05.35.11.33.16.3.21.28.25.24.29.2.31.15.34.1.34.04z" style="stroke-width:0.53;fill:#FFFFFF;fill-opacity:0.50"/><text x="285.95" y="422.78" lengthAdjust="spacingAndGlyphs" style="font-size:5.69px;font-family:&quot;Arial&quot;" text-anchor="middle" textLength="66.34">2437 N SHERMAN BLVD,</text><text x="285.95" y="430.98" lengthAdjust="spacingAndGlyphs" style="font-size:5.69px;font-family:&quot;Arial&quot;" text-anchor="middle" textLength="61.61">MILWAUKEE, WI 53210</text><path d="M603.8 558.3h69.85-.08l.34-.02.34-.07.33-.12.3-.17.27-.22.23-.26.18-.3.14-.32.08-.33.03-.35h0v-23.35h0l-.03-.35-.08-.34-.14-.31-.18-.3-.23-.26-.27-.22-.3-.17-.33-.13-.34-.07-.26-.01H603.8l.26.01-.35-.01-.34.04-.34.1-.31.15-.29.2-.25.24-.21.27-.16.31-.11.33-.06.35v23.52-.17.34l.06.35.11.33.16.3.21.28.25.24.29.2.31.15.34.1.34.04z" style="stroke-width:0.53;fill:#FFFFFF;fill-opacity:0.50"/><text x="638.73" y="538.31" lengthAdjust="spacingAndGlyphs" style="font-size:5.69px;font-family:&quot;Arial&quot;" text-anchor="middle" textLength="63.48">62 RIVER HEIGHTS DR,</text><text x="638.73" y="546.51" lengthAdjust="spacingAndGlyphs" style="font-size:5.69px;font-family:&quot;Arial&quot;" text-anchor="middle" textLength="66.97">MENOMONEE FALLS, WI</text><text x="638.73" y="554.7" lengthAdjust="spacingAndGlyphs" style="font-size:5.69px;font-family:&quot;Arial&quot;" text-anchor="middle" textLength="15.8">53051</text><path d="M46.39 568.94h63.22-.09l.35-.02.34-.06.32-.13.31-.17.27-.22.23-.26.18-.3.14-.32.08-.33.03-.35h0v-15.16h0l-.03-.34-.08-.34-.14-.32-.18-.29-.23-.26-.27-.22-.31-.18-.32-.12-.34-.07-.26-.02H46.39l.26.02-.35-.01-.35.04-.33.09-.31.15-.29.2-.25.24-.21.28-.16.31-.11.33-.06.34v15.33-.17.34l.06.35.11.33.16.3.21.28.25.24.29.2.31.15.33.1.35.04z" style="stroke-width:0.53;fill:#FFFFFF;fill-opacity:0.50"/><text x="78" y="557.15" lengthAdjust="spacingAndGlyphs" style="font-size:5.69px;font-family:&quot;Arial&quot;" text-anchor="middle" textLength="60.34">3951 DE REIMER AVE,</text><text x="78" y="565.34" lengthAdjust="spacingAndGlyphs" style="font-size:5.69px;font-family:&quot;Arial&quot;" text-anchor="middle" textLength="48.65">BRONX, NY 10466</text><path d="M527.75 649.74h69.21-.09l.35-.02.34-.07.33-.12.3-.18.27-.22.23-.26.18-.29.14-.32.08-.34.03-.34h0v-23.35h0l-.03-.35-.08-.34-.14-.32-.18-.29-.23-.26-.27-.22-.3-.18-.33-.12-.34-.07-.26-.01h-69.21l.26.01-.35-.01-.35.04-.33.1-.31.15-.29.19-.25.24-.21.28-.16.31-.11.33-.06.34v23.53-.18.35l.06.34.11.33.16.31.21.28.25.24.29.2.31.15.33.09.35.05z" style="stroke-width:0.53;fill:#FFFFFF;fill-opacity:0.50"/><text x="562.35" y="629.75" lengthAdjust="spacingAndGlyphs" style="font-size:5.69px;font-family:&quot;Arial&quot;" text-anchor="middle" textLength="50.55">N62W12921 RIVER</text><text x="562.35" y="637.94" lengthAdjust="spacingAndGlyphs" style="font-size:5.69px;font-family:&quot;Arial&quot;" text-anchor="middle" textLength="66.33">HEIGHTS, MENOMONEE</text><text x="562.35" y="646.14" lengthAdjust="spacingAndGlyphs" style="font-size:5.69px;font-family:&quot;Arial&quot;" text-anchor="middle" textLength="44.87">FALLS, WI 53051</text><path d="M389.88 251.15h59.74-.09l.35-.02.34-.07.33-.12.3-.17.27-.22.23-.26.18-.3.14-.32.08-.33.03-.35h0v-23.35h0l-.03-.35-.08-.34-.14-.32-.18-.29-.23-.26-.27-.22-.3-.17-.33-.13-.34-.07-.26-.01h-59.74l.26.01-.35-.01-.35.04-.33.1-.31.15-.29.19-.25.25-.21.27-.16.31-.11.33-.06.34v23.53-.18.35l.06.35.11.33.16.3.21.28.25.24.29.2.31.15.33.1.35.04z" style="stroke-width:0.53;fill:#FFFFFF;fill-opacity:0.50"/><text x="419.75" y="231.16" lengthAdjust="spacingAndGlyphs" style="font-size:5.69px;font-family:&quot;Arial&quot;" text-anchor="middle" textLength="55.62">11414 PARK PL, STE</text><text x="419.75" y="239.35" lengthAdjust="spacingAndGlyphs" style="font-size:5.69px;font-family:&quot;Arial&quot;" text-anchor="middle" textLength="56.87">202, MILWAUKEE, WI</text><text x="419.75" y="247.55" lengthAdjust="spacingAndGlyphs" style="font-size:5.69px;font-family:&quot;Arial&quot;" text-anchor="middle" textLength="15.8">53224</text><path d="M546.8 144.86h64.49-.08l.34-.01.34-.07.33-.13.3-.17.27-.22.23-.26.19-.3.13-.31.09-.34.02-.35h0v-15.16h0l-.02-.34-.09-.34-.13-.32-.19-.29-.23-.26-.27-.22-.3-.18-.33-.12-.34-.07-.26-.02H546.8l.26.02-.34-.01-.35.04-.33.09-.32.15-.28.2-.25.24-.21.28-.16.31-.11.33-.06.34-.01.17v15.16l.01-.17v.34l.06.35.11.33.16.31.21.27.25.24.28.2.32.15.33.1.35.04z" style="stroke-width:0.53;fill:#FFFFFF;fill-opacity:0.50"/><text x="579.05" y="133.07" lengthAdjust="spacingAndGlyphs" style="font-size:5.69px;font-family:&quot;Arial&quot;" text-anchor="middle" textLength="43.92">PO BOX 170495,</text><text x="579.05" y="141.26" lengthAdjust="spacingAndGlyphs" style="font-size:5.69px;font-family:&quot;Arial&quot;" text-anchor="middle" textLength="61.61">MILWAUKEE, WI 53217</text><path d="M230.87 657.08h63.23l-.08-.01.34-.01.35-.07.32-.12.3-.18.27-.22.23-.26.19-.29.13-.32.09-.34.02-.34h0v-23.36h0l-.02-.34-.09-.34-.13-.32-.19-.29-.23-.26-.27-.22-.3-.18-.32-.12-.35-.07-.26-.02h-63.23l.26.02-.34-.01-.35.04-.33.09-.32.15-.28.2-.25.24-.21.28-.16.31-.11.33-.06.34-.01.17v23.36l.01-.18v.35l.06.34.11.33.16.31.21.28.25.24.28.2.32.15.33.09.35.04z" style="stroke-width:0.53;fill:#FFFFFF;fill-opacity:0.50"/><text x="262.49" y="637.09" lengthAdjust="spacingAndGlyphs" style="font-size:5.69px;font-family:&quot;Arial&quot;" text-anchor="middle" textLength="60.35">342 N WATER ST, STE</text><text x="262.49" y="645.28" lengthAdjust="spacingAndGlyphs" style="font-size:5.69px;font-family:&quot;Arial&quot;" text-anchor="middle" textLength="56.87">600, MILWAUKEE, WI</text><text x="262.49" y="653.48" lengthAdjust="spacingAndGlyphs" style="font-size:5.69px;font-family:&quot;Arial&quot;" text-anchor="middle" textLength="15.8">53202</text></g><g clip-path="url(#cpMC4wMHw3MjAuMDB8MC4wMHw3MjAuMDA=)"><circle cx="268.98" cy="96.71" r="1.95" style="stroke-width:0.71;stroke:none;fill:#F8766D"/><path d="m345.33 93.67 2.63 4.56h-5.26z" style="stroke-width:0.71;stroke:none;fill:#00BA38"/><path d="M411.31 98.66h3.91v-3.91h-3.91z" style="stroke-width:0.71;stroke:none;fill:#619CFF"/><text x="283.09" y="99.86" lengthAdjust="spacingAndGlyphs" style="font-size:8.80px;font-family:&quot;Arial Narrow&quot;" textLength="48.12">mprop address</text><text x="359.45" y="99.86" lengthAdjust="spacingAndGlyphs" style="font-size:8.80px;font-family:&quot;Arial Narrow&quot;" textLength="39.69">owner name</text><text x="427.38" y="99.86" lengthAdjust="spacingAndGlyphs" style="font-size:8.80px;font-family:&quot;Arial Narrow&quot;" textLength="40.5">wdfi address</text><text x="32.63" y="65.12" lengthAdjust="spacingAndGlyphs" style="font-size:12.00px;font-family:&quot;Arial Narrow&quot;" textLength="257.7">includes 45 parcels, 64 units, and 15 distinct owner names.</text><text x="32.63" y="42.78" lengthAdjust="spacingAndGlyphs" style="font-size:18.00px;font-weight:bold;font-family:&quot;Arial Narrow&quot;" textLength="197.32">CANDACE STAMPER Group</text></g></svg>