<svg xmlns="http://www.w3.org/2000/svg" width="768" height="768" class="svglite" viewBox="0 0 576 576"><defs><style><![CDATA[.svglite line,.svglite polyline,.svglite polygon,.svglite path,.svglite circle{fill:none;stroke:#000000;stroke-linecap:round;stroke-linejoin:round;stroke-miterlimit:10.00}]]></style></defs><rect width="100%" height="100%" style="stroke-linecap:round;stroke-linejoin:round;stroke-miterlimit:10.00;stroke:none;fill:#FFFFFF"/><defs><clipPath id="cpMC4wMHw1NzYuMDB8MC4wMHw1NzYuMDA="><path d="M0 0h576v576H0z"/></clipPath></defs><g clip-path="url(#cpMC4wMHw1NzYuMDB8MC4wMHw1NzYuMDA=)"><path d="M0 0h576v576H0z" style="stroke-width:1.07;stroke:none;fill:#FFFFFF"/></g><defs><clipPath id="cpMzIuNjN8NTQ2LjExfDEyMS43OHw1NDMuMzc="><path d="M32.63 121.78h513.48v421.59H32.63z"/></clipPath></defs><g clip-path="url(#cpMzIuNjN8NTQ2LjExfDEyMS43OHw1NDMuMzc=)"><path d="m177.83 242.65 1.19.87 1.19.86 1.19.85 1.2.85 1.2.85 1.2.84 1.21.84 1.22.84 1.21.83 1.22.83 1.23.82 1.22.82 1.24.82 1.23.81 1.24.81 1.24.8 1.25.8 1.25.8 1.26.79 1.25.79 1.27.78 1.26.78 1.27.78 1.28.77 1.27.77 1.28.77 1.29.76 1.29.76 1.29.75 1.3.75 1.3.74 1.3.75 1.31.73 1.31.74 1.32.73 1.32.72 1.32.72 1.33.72 1.33.72 1.34.71 1.34.7 1.34.7 1.35.7 1.35.7 1.35.69 1.36.68 1.36.69 1.37.68 1.37.67 1.37.67 1.38.67 1.38.66 1.38.66 1.39.65 1.4.66 1.39.64 1.4.65 1.41.64 1.4.63 1.42.63 1.41.63 1.42.63 1.42.61 1.43.62 1.43.61 1.44.61 1.44.61 1.44.6 1.45.59 1.45.59 1.45.59 1.46.59 1.46.58 1.46.57 1.47.58 1.48.57 1.47.56 1.49.56 1.48.56 1.49.55 1.49.55 1.5.55 1.5.54 1.5.54 1.51.53 1.51.53 1.52.53 1.52.52 1.52.52 1.53.51 1.53.51 1.53.51 1.54.5 1.54.5 1.55.49 1.55.49 1.55.49 1.56.48 1.56.48m-135.98-66.42-1.23-.66-1.23-.66-1.23-.67-1.23-.66-1.23-.66-1.23-.67-1.23-.66-1.23-.66-1.23-.67-1.24-.66-1.23-.66-1.23-.67-1.23-.66-1.23-.66-1.23-.67-1.23-.66-1.23-.66-1.23-.67-1.23-.66-1.24-.66-1.23-.67-1.23-.66-1.23-.66-1.23-.67-1.23-.66-1.23-.66-1.23-.66-1.23-.67-1.23-.66-1.24-.66-1.23-.67-1.23-.66-1.23-.66-1.23-.67-1.23-.66-1.23-.66-1.23-.67-1.23-.66-1.23-.66-1.23-.67-1.24-.66-1.23-.66-1.23-.67-1.23-.66-1.23-.66-1.23-.67-1.23-.66-1.23-.66-1.23-.67-1.23-.66-1.24-.66-1.23-.67-1.23-.66-1.23-.66-1.23-.67-1.23-.66-1.23-.66-1.23-.67-1.23-.66-1.23-.66-1.24-.67-1.23-.66-1.23-.66-1.23-.67-1.23-.66-1.23-.66-1.23-.67-1.23-.66-1.23-.66-1.23-.67-1.23-.66-1.24-.66-1.23-.67-1.23-.66-1.23-.66-1.23-.67-1.23-.66-1.23-.66-1.23-.67-1.23-.66-1.23-.66-1.24-.67-1.23-.66-1.23-.66-1.23-.67-1.23-.66-1.23-.66-1.23-.67-1.23-.66-1.23-.66-1.23-.67-1.24-.66-1.23-.66-1.23-.67-1.23-.66-1.23-.66-1.23-.67-1.23-.66-1.23-.66" style="stroke-width:1.07;stroke:#000000;stroke-opacity:0.10;stroke-linecap:butt"/><path d="m262.42 423.07 1-1.04 1-1.05.98-1.05.97-1.05.97-1.05.95-1.05.94-1.06.94-1.05.92-1.07.92-1.06.9-1.06.9-1.07.88-1.07.87-1.07.87-1.07.85-1.08.85-1.08.83-1.08.83-1.08.81-1.09.81-1.08.8-1.09.78-1.09.78-1.1.76-1.09.76-1.1.75-1.1.73-1.1.73-1.11.71-1.11.71-1.11.7-1.11.69-1.11.67-1.12.67-1.11.66-1.13.64-1.12.64-1.12.63-1.13.62-1.13.61-1.13.59-1.13.59-1.14.58-1.14.57-1.14.56-1.14.55-1.15.53-1.14.53-1.15.52-1.15.51-1.16.5-1.15.49-1.16.48-1.16.47-1.16.46-1.17.45-1.17.44-1.17.43-1.17.42-1.17.41-1.18.4-1.18.39-1.18.38-1.18.37-1.18.36-1.19.36-1.19.34-1.19.33-1.2.32-1.19.31-1.2.3-1.2.3-1.2.28-1.21.27-1.2.26-1.21.25-1.22.25-1.21.23-1.22.22-1.21.22-1.22.2-1.23.19-1.22.19-1.23.17-1.23.16-1.23.16-1.23.14-1.24.13-1.24.13-1.24.11-1.24.11-1.25.09-1.24.09-1.25.07-1.25.06-1.26.06-1.25.04-1.26.04-1.26m-51.39 114-1.71.18-1.7.18-1.7.2-1.69.2-1.69.21-1.68.22-1.67.23-1.66.23-1.66.24-1.65.25-1.65.26-1.64.27-1.63.27-1.63.28-1.62.29-1.61.3-1.61.31-1.6.31-1.59.32-1.59.33-1.58.34-1.57.35-1.57.35-1.56.36-1.56.37-1.54.38-1.55.38-1.53.4-1.53.4-1.52.41-1.52.41-1.51.43-1.5.43-1.5.44-1.49.45-1.48.46-1.48.46-1.47.48-1.46.48-1.46.49-1.45.49-1.44.51-1.44.51-1.43.52-1.43.53-1.41.54-1.42.54-1.4.55-1.4.56-1.39.57-1.39.58-1.38.58-1.37.59-1.37.6-1.36.61-1.35.62-1.35.62-1.34.63-1.33.64-1.33.65-1.32.66-1.31.66-1.31.67-1.3.68-1.3.69-1.28.7-1.29.7-1.27.71-1.27.72-1.26.73-1.26.73-1.25.75-1.24.75-1.24.76-1.23.76-1.22.78-1.22.78-1.21.79-1.2.8-1.2.81-1.19.81-1.18.83-1.18.83-1.17.83-1.17.85-1.16.86-1.15.86-1.14.87-1.14.88-1.13.88-1.13.9-1.12.9-1.11.91-1.11.92-1.1.92-1.09.94-1.09.94-1.08.95-1.07.96" style="stroke-width:1.07;stroke:#000000;stroke-opacity:0.10;stroke-linecap:butt"/><path d="m262.42 423.07.68-1.12.68-1.11.67-1.12.67-1.12.67-1.12.66-1.11.66-1.12.66-1.12.66-1.13.65-1.12.64-1.12.65-1.12.64-1.13.64-1.12.63-1.13.63-1.12.63-1.13.62-1.13.63-1.13.61-1.13.62-1.13.61-1.13.61-1.13.6-1.13.6-1.13.6-1.14.6-1.13.59-1.14.59-1.13.58-1.14.58-1.14.58-1.14.58-1.13.57-1.14.57-1.14.56-1.15.56-1.14.56-1.14.56-1.14.55-1.15.55-1.14.54-1.15.54-1.14.54-1.15.54-1.15.53-1.15.53-1.15.53-1.15.52-1.15.52-1.15.51-1.15.52-1.15.51-1.16.5-1.15.5-1.16.5-1.15.5-1.16.49-1.16.49-1.16.49-1.16.48-1.16.48-1.16.48-1.16.47-1.16.47-1.16.47-1.16.46-1.17.46-1.16.45-1.17.46-1.17.45-1.16.44-1.17.45-1.17.44-1.17.43-1.17.44-1.17.43-1.17.43-1.17.42-1.18.42-1.17.42-1.17.41-1.18.41-1.18.41-1.17.4-1.18.4-1.18.4-1.18.39-1.18.39-1.18.39-1.18.39-1.18.38-1.18.37-1.19.38-1.18.37-1.18.37-1.19.36-1.19.36-1.18.36-1.19m-51.39 114-1.55.37-1.55.38-1.54.38-1.55.39-1.53.39-1.54.39-1.53.4-1.53.4-1.52.4-1.53.41-1.52.42-1.51.41-1.51.42-1.51.43-1.51.43-1.5.43-1.5.44-1.5.44-1.49.44-1.49.45-1.49.46-1.48.45-1.48.46-1.48.47-1.47.47-1.47.47-1.47.48-1.46.48-1.46.48-1.46.49-1.45.49-1.45.5-1.45.5-1.45.51-1.44.51-1.43.51-1.44.51-1.43.53-1.43.52-1.42.53-1.42.53-1.42.54-1.42.54-1.41.54-1.41.55-1.4.55-1.41.56-1.39.56-1.4.56-1.39.57-1.39.57-1.39.58-1.38.58-1.38.58-1.37.59-1.38.6-1.37.59-1.36.6-1.37.61-1.36.6-1.35.62-1.36.61-1.35.62-1.34.63-1.35.62-1.34.64-1.33.63-1.34.64-1.33.64-1.32.65-1.33.65-1.32.66-1.32.66-1.31.66-1.31.67-1.31.67-1.3.68-1.31.68-1.29.68-1.3.69-1.29.69-1.29.7-1.28.7-1.29.7-1.27.71-1.28.71-1.27.71-1.27.72-1.27.73-1.26.72-1.26.73-1.25.74-1.26.74-1.24.74-1.25.75-1.24.75-1.24.76-1.24.75-1.23.77" style="stroke-width:1.07;stroke:#000000;stroke-opacity:0.10;stroke-linecap:butt"/><path d="m177.83 242.65 1.38.67 1.37.68 1.37.67 1.38.67 1.37.67 1.37.67 1.38.67 1.37.67 1.38.67 1.37.67 1.37.67 1.38.67 1.37.67 1.37.68 1.38.67 1.37.67 1.37.67 1.38.67 1.37.67 1.37.67 1.38.67 1.37.67 1.37.67 1.38.67 1.37.68 1.37.67 1.38.67 1.37.67 1.38.67 1.37.67 1.37.67 1.38.67 1.37.67 1.37.67 1.38.67 1.37.67 1.37.68 1.38.67 1.37.67 1.37.67 1.38.67 1.37.67 1.37.67 1.38.67 1.37.67 1.37.67 1.38.67 1.37.67 1.38.68 1.37.67 1.37.67 1.38.67 1.37.67 1.37.67 1.38.67 1.37.67 1.37.67 1.38.67 1.37.67 1.37.68 1.38.67 1.37.67 1.37.67 1.38.67 1.37.67 1.37.67 1.38.67 1.37.67 1.38.67 1.37.67 1.37.67 1.38.68 1.37.67 1.37.67 1.38.67 1.37.67 1.37.67 1.38.67 1.37.67 1.37.67 1.38.67 1.37.67 1.37.67 1.38.68 1.37.67 1.37.67 1.38.67 1.37.67 1.37.67 1.38.67 1.37.67 1.38.67 1.37.67 1.37.67 1.38.67 1.37.68 1.37.67 1.38.67 1.37.67" style="stroke-width:1.07;stroke:#000000;stroke-opacity:0.10;stroke-linecap:butt"/><path d="m177.83 242.65 1.57.48 1.55.49 1.56.48 1.55.49 1.54.5 1.54.49 1.54.51 1.54.5 1.53.51 1.53.52 1.52.52 1.52.52 1.51.52 1.51.53 1.51.54 1.51.53 1.5.54 1.49.55 1.5.55 1.48.55 1.49.56 1.48.56 1.48.57 1.47.56 1.47.58 1.46.57 1.47.58 1.45.59 1.46.59 1.45.59 1.44.6 1.45.6 1.44.6 1.43.61 1.43.61 1.43.62 1.42.62 1.42.62 1.42.63 1.41.63 1.41.64 1.4.64 1.4.64 1.4.65 1.39.65 1.39.65 1.39.66 1.38.66 1.37.67 1.38.67 1.37.68 1.36.68 1.36.68 1.36.68 1.36.7 1.35.69 1.34.7 1.35.7 1.34.71 1.33.71 1.33.71 1.33.72 1.32.72 1.32.73 1.32.73 1.31.73 1.31.74 1.3.74 1.3.74 1.3.75 1.29.76 1.29.75 1.29.76 1.28.77 1.28.77 1.27.77 1.27.78 1.27.78 1.26.78 1.26.79 1.25.79 1.25.8 1.25.8 1.24.8 1.24.81 1.24.82 1.23.81 1.23.82 1.22.82 1.22.83 1.22.83 1.21.84 1.21.84 1.2.84 1.2.85 1.2.85 1.19.86 1.19.86 1.19.86m-51.39 114 .76 1.02.76 1.02.76 1.02.76 1.02.76 1.03.76 1.02.76 1.02.76 1.02.76 1.02.76 1.02.76 1.03.76 1.02.76 1.02.76 1.02.76 1.02.76 1.02.76 1.03.77 1.02.76 1.02.76 1.02.76 1.02.76 1.02.76 1.03.76 1.02.76 1.02.76 1.02.76 1.02.76 1.02.76 1.03.76 1.02.76 1.02.76 1.02.76 1.02.76 1.02.76 1.03.76 1.02.76 1.02.76 1.02.76 1.02.76 1.02.76 1.02.76 1.03.76 1.02.76 1.02.76 1.02.76 1.02.76 1.02.76 1.03.76 1.02.76 1.02.76 1.02.76 1.02.76 1.02.76 1.03.76 1.02.76 1.02.76 1.02.76 1.02.76 1.02.76 1.03.76 1.02.76 1.02.76 1.02.76 1.02.76 1.02.77 1.03.76 1.02.76 1.02.76 1.02.76 1.02.76 1.02.76 1.03.76 1.02.76 1.02.76 1.02.76 1.02.76 1.02.76 1.03.76 1.02.76 1.02.76 1.02.76 1.02.76 1.02.76 1.02.76 1.03.76 1.02.76 1.02.76 1.02.76 1.02.76 1.02.76 1.03.76 1.02.76 1.02.76 1.02.76 1.02.76 1.02.76 1.03.76 1.02.76 1.02m-75.26-101.14-1.39.57-1.39.56-1.4.57-1.39.57-1.39.57-1.39.57-1.39.57-1.4.56-1.39.57-1.39.57-1.39.57-1.4.57-1.39.57-1.39.56-1.39.57-1.39.57-1.4.57-1.39.57-1.39.57-1.39.56-1.4.57-1.39.57-1.39.57-1.39.57-1.4.57-1.39.56-1.39.57-1.39.57-1.39.57-1.4.57-1.39.56-1.39.57-1.39.57-1.4.57-1.39.57-1.39.57-1.39.56-1.39.57-1.4.57-1.39.57-1.39.57-1.39.57-1.4.56-1.39.57-1.39.57-1.39.57-1.39.57-1.4.57-1.39.56-1.39.57-1.39.57-1.4.57-1.39.57-1.39.56-1.39.57-1.4.57-1.39.57-1.39.57-1.39.57-1.39.56-1.4.57-1.39.57-1.39.57-1.39.57-1.4.57-1.39.56-1.39.57-1.39.57-1.39.57-1.4.57-1.39.57-1.39.56-1.39.57-1.4.57-1.39.57-1.39.57-1.39.57-1.39.56-1.4.57-1.39.57-1.39.57-1.39.57-1.4.56-1.39.57-1.39.57-1.39.57-1.4.57-1.39.57-1.39.56-1.39.57-1.39.57-1.4.57-1.39.57-1.39.57-1.39.56-1.4.57-1.39.57-1.39.57-1.39.57m340.9-130.49-1.53-.4-1.53-.4-1.53-.4-1.53-.4-1.54-.4-1.53-.41-1.53-.4-1.53-.4-1.54-.4-1.53-.4-1.53-.41-1.53-.4-1.53-.4-1.54-.4-1.53-.4-1.53-.4-1.53-.41-1.54-.4-1.53-.4-1.53-.4-1.53-.4-1.53-.4-1.54-.41-1.53-.4-1.53-.4-1.53-.4-1.53-.4-1.54-.41-1.53-.4-1.53-.4-1.53-.4-1.54-.4-1.53-.4-1.53-.41-1.53-.4-1.53-.4-1.54-.4-1.53-.4-1.53-.41-1.53-.4-1.53-.4-1.54-.4-1.53-.4-1.53-.4-1.53-.41-1.54-.4-1.53-.4-1.53-.4-1.53-.4-1.53-.4-1.54-.41-1.53-.4-1.53-.4-1.53-.4-1.54-.4-1.53-.41-1.53-.4-1.53-.4-1.53-.4-1.54-.4-1.53-.4-1.53-.41-1.53-.4-1.53-.4-1.54-.4-1.53-.4-1.53-.4-1.53-.41-1.54-.4-1.53-.4-1.53-.4-1.53-.4-1.53-.41-1.54-.4-1.53-.4-1.53-.4-1.53-.4-1.53-.4-1.54-.41-1.53-.4-1.53-.4-1.53-.4-1.54-.4-1.53-.4-1.53-.41-1.53-.4-1.53-.4-1.54-.4-1.53-.4-1.53-.41-1.53-.4-1.54-.4-1.53-.4-1.53-.4-1.53-.4-1.53-.41-1.54-.4-1.53-.4-1.53-.4m-51.39 114 .36-1.19.36-1.19.36-1.18.37-1.19.37-1.18.38-1.19.37-1.18.39-1.18.38-1.19.39-1.18.39-1.18.39-1.18.4-1.18.4-1.17.4-1.18.41-1.18.41-1.17.41-1.18.42-1.17.42-1.18.43-1.17.42-1.17.43-1.17.44-1.18.43-1.17.44-1.16.45-1.17.44-1.17.45-1.17.46-1.16.45-1.17.46-1.16.47-1.17.46-1.16.47-1.16.48-1.17.47-1.16.48-1.16.48-1.16.49-1.16.49-1.15.49-1.16.5-1.16.5-1.16.5-1.15.51-1.15.51-1.16.51-1.15.51-1.15.52-1.16.53-1.15.52-1.15.53-1.15.53-1.14.54-1.15.54-1.15.54-1.15.54-1.14.55-1.15.55-1.14.56-1.14.56-1.15.56-1.14.57-1.14.56-1.14.58-1.14.57-1.14.58-1.14.58-1.13.59-1.14.58-1.14.6-1.13.59-1.14.6-1.13.6-1.13.6-1.13.61-1.14.61-1.13.62-1.13.62-1.13.62-1.12.62-1.13.63-1.13.63-1.13.63-1.12.64-1.13.64-1.12.65-1.12.64-1.13.65-1.12.66-1.12.66-1.12.66-1.12.66-1.12.67-1.12.67-1.11.67-1.12.68-1.12.68-1.11" style="stroke-width:1.07;stroke:#000000;stroke-opacity:0.10;stroke-linecap:butt"/><path d="m262.42 423.07-1.23.76-1.24.76-1.24.76-1.24.75-1.25.74-1.25.75-1.25.74-1.25.73-1.26.73-1.27.73-1.26.72-1.27.72-1.27.72-1.28.71-1.28.71-1.28.7-1.28.7-1.29.7-1.29.69-1.3.68-1.3.69-1.3.68-1.3.67-1.31.67-1.31.67-1.31.67-1.32.66-1.32.65-1.33.65-1.32.65-1.33.64-1.34.64-1.34.64-1.34.63-1.34.63-1.35.62-1.35.62-1.35.62-1.36.61-1.36.61-1.36.6-1.36.6-1.37.6-1.38.59-1.37.59-1.38.58-1.38.58-1.39.58-1.39.57-1.39.57-1.4.57-1.4.56-1.4.55-1.4.56-1.41.54-1.41.55-1.42.54-1.42.53-1.42.54-1.42.53-1.43.52-1.43.52-1.44.52-1.43.51-1.45.51-1.44.5-1.45.5-1.45.5-1.45.49-1.46.49-1.46.49-1.46.48-1.47.47-1.47.48-1.47.47-1.48.46-1.48.46-1.48.46-1.49.45-1.49.45-1.49.45-1.5.44-1.5.43-1.5.44-1.51.43-1.51.42-1.51.42-1.51.42-1.52.41-1.53.41-1.52.41-1.53.4-1.53.4-1.54.39-1.54.39-1.54.38-1.54.39-1.55.37-1.55.38m137.83-56.26.04-1.26.04-1.26.06-1.26.06-1.25.08-1.25.08-1.25.09-1.25.11-1.24.11-1.25.13-1.24.13-1.23.15-1.24.15-1.23.16-1.24.18-1.23.18-1.22.19-1.23.21-1.22.21-1.22.22-1.22.23-1.21.25-1.22.25-1.21.26-1.21.27-1.21.29-1.2.29-1.2.3-1.2.31-1.2.32-1.2.33-1.19.35-1.19.35-1.19.36-1.19.37-1.18.38-1.19.39-1.18.4-1.18.41-1.17.42-1.18.43-1.17.44-1.17.45-1.16.46-1.17.47-1.16.48-1.16.49-1.16.5-1.16.51-1.15.52-1.15.53-1.15.54-1.15.54-1.14.56-1.14.57-1.15.58-1.13.59-1.14.6-1.13.6-1.13.62-1.13.63-1.13.64-1.13.64-1.12.66-1.12.67-1.12.68-1.11.68-1.12.7-1.11.71-1.11.71-1.1.73-1.11.74-1.1.74-1.1.76-1.1.76-1.1.78-1.09.79-1.09.79-1.09.81-1.09.81-1.08.83-1.09.83-1.08.85-1.07.85-1.08.87-1.07.87-1.07.89-1.07.89-1.07.9-1.07.92-1.06.92-1.06.94-1.06.94-1.05.95-1.06.97-1.05.97-1.05.98-1.04 1-1.05 1-1.04" style="stroke-width:1.07;stroke:#000000;stroke-opacity:0.10;stroke-linecap:butt"/><path d="m262.42 423.07-1.07.96-1.08.95-1.09.94-1.09.93-1.1.93-1.11.92-1.11.91-1.12.9-1.13.89-1.13.89-1.14.88-1.14.87-1.16.86-1.15.85-1.17.85-1.17.84-1.18.83-1.18.82-1.19.82-1.2.8-1.2.8-1.21.79-1.22.79-1.22.77-1.23.77-1.24.76-1.24.75-1.25.74-1.26.74-1.26.73-1.27.71-1.28.72-1.28.7-1.29.7-1.29.68-1.3.68-1.31.67-1.31.67-1.32.65-1.33.65-1.34.64-1.34.63-1.34.63-1.36.61-1.36.61-1.36.6-1.37.59-1.38.59-1.39.57-1.39.57-1.4.56-1.41.55-1.41.55-1.42.54-1.42.52-1.43.52-1.44.52-1.44.5-1.45.5-1.46.49-1.47.48-1.47.47-1.47.47-1.49.45-1.49.45-1.49.44-1.5.44-1.51.42-1.52.42-1.52.41-1.53.4-1.54.39-1.54.39-1.55.37-1.55.37-1.56.37-1.57.35-1.57.35-1.58.33-1.59.33-1.59.32-1.6.32-1.61.3-1.61.3-1.62.29-1.63.28-1.63.28-1.64.26-1.65.26-1.65.25-1.66.25-1.66.23-1.68.23-1.67.21-1.69.21-1.69.21-1.7.19-1.7.19-1.71.18m289.24-262.54-1.01.93-1.01.93-1.01.94-1.01.93-1.01.93-1.01.93-1.01.93-1.01.94-1.01.93-1.01.93-1.01.93-1.01.93-1.01.94-1.01.93-1.01.93-1.01.93-1.01.94-1.01.93-1.01.93-1.01.93-1.01.93-1.01.94-1.01.93-1.01.93-1.01.93-1.01.93-1.01.94-1.02.93-1.01.93-1.01.93-1.01.93-1.01.94-1.01.93-1.01.93-1.01.93-1.01.94-1.01.93-1.01.93-1.01.93-1.01.93-1.01.94-1.01.93-1.01.93-1.01.93-1.01.93-1.01.94-1.01.93-1.01.93-1.01.93-1.01.93-1.01.94-1.01.93-1.01.93-1.01.93-1.01.94-1.02.93-1.01.93-1.01.93-1.01.93-1.01.94-1.01.93-1.01.93-1.01.93-1.01.93-1.01.94-1.01.93-1.01.93-1.01.93-1.01.94-1.01.93-1.01.93-1.01.93-1.01.93-1.01.94-1.01.93-1.01.93-1.01.93-1.01.93-1.01.94-1.01.93-1.01.93-1.01.93-1.01.93-1.01.94-1.02.93-1.01.93-1.01.93-1.01.94-1.01.93-1.01.93-1.01.93-1.01.93-1.01.94-1.01.93-1.01.93-1.01.93-1.01.93-1.01.94-1.01.93m100.02-92.28 1.1-.77 1.11-.76 1.1-.77 1.1-.76 1.1-.77 1.1-.77 1.1-.76 1.1-.77 1.1-.77 1.1-.76 1.1-.77 1.1-.76 1.1-.77 1.1-.77 1.1-.76 1.1-.77 1.1-.76 1.1-.77 1.1-.77 1.1-.76 1.1-.77 1.1-.76 1.1-.77 1.1-.77 1.1-.76 1.1-.77 1.1-.76 1.11-.77 1.1-.77 1.1-.76 1.1-.77 1.1-.77 1.1-.76 1.1-.77 1.1-.76 1.1-.77 1.1-.77 1.1-.76 1.1-.77 1.1-.76 1.1-.77 1.1-.77 1.1-.76 1.1-.77 1.1-.76 1.1-.77 1.1-.77 1.1-.76 1.1-.77 1.1-.76 1.1-.77 1.1-.77 1.1-.76 1.1-.77 1.11-.76 1.1-.77 1.1-.77 1.1-.76 1.1-.77 1.1-.77 1.1-.76 1.1-.77 1.1-.76 1.1-.77 1.1-.77 1.1-.76 1.1-.77 1.1-.76 1.1-.77 1.1-.77 1.1-.76 1.1-.77 1.1-.76 1.1-.77 1.1-.77 1.1-.76 1.1-.77 1.1-.76 1.1-.77 1.1-.77 1.11-.76 1.1-.77 1.1-.77 1.1-.76 1.1-.77 1.1-.76 1.1-.77 1.1-.77 1.1-.76 1.1-.77 1.1-.76 1.1-.77 1.1-.77 1.1-.76 1.1-.77 1.1-.76 1.1-.77 1.1-.77 1.1-.76" style="stroke-width:1.07;stroke:#000000;stroke-opacity:0.10;stroke-linecap:butt"/><path d="m177.83 235.36 6.32 10.94h-12.63zm84.59 179.63 7 12.12h-13.99zm203.07-68.36 1.92 3.32h-3.83zm-51.66-132.05 1.92 3.31h-3.83z" style="stroke-width:0.71;stroke:none;fill:#00BA38"/><circle cx="313.81" cy="309.07" r="6.76" style="stroke-width:0.71;stroke:none;fill:#F8766D"/><circle cx="55.97" cy="176.99" r="1.42" style="stroke-width:0.71;stroke:none;fill:#F8766D"/><path d="M119.39 484.52h10.39v-10.39h-10.39z" style="stroke-width:0.71;stroke:none;fill:#619CFF"/><circle cx="337.68" cy="524.21" r="1.42" style="stroke-width:0.71;stroke:none;fill:#F8766D"/><path d="M521.35 142.37h2.84v-2.84h-2.84z" style="stroke-width:0.71;stroke:none;fill:#619CFF"/><path d="m182.97 238.02-4.28 3.86m78.56 185.85 4.31-3.89m209.13-79.68-4.34 3.91m-47.4-135.89-4.26 3.84m-95.49 88.4-4.51 3.89M130.01 474.74l-4.53 3.84m207.33 48.93 3.89-2.63m181.33-385.51 3.56 1.19" style="stroke-width:0.53;stroke:#BFBFBF"/><path d="M169.43 238.02h41.73-.09l.35-.01.34-.07.33-.13.3-.17.27-.22.23-.26.18-.29.14-.32.08-.34.03-.35h0v-6.96h0l-.03-.35-.08-.33-.14-.32-.18-.3-.23-.26-.27-.22-.3-.17-.33-.12-.34-.07-.26-.02h-41.73l.26.02-.35-.02-.34.04-.34.1-.31.15-.29.2-.25.24-.21.28-.16.3-.11.33-.05.35-.01.17v6.96l.01-.17v.35l.05.34.11.33.16.31.21.28.25.24.29.19.31.15.34.1.34.04z" style="stroke-width:0.53;fill:#FFFFFF;fill-opacity:0.50"/><text x="190.29" y="234.42" lengthAdjust="spacingAndGlyphs" style="font-size:5.69px;font-family:Arial" text-anchor="middle" textLength="38.85">CHAD PIERCE</text><path d="M225.39 439.01h49-.08l.34-.01.34-.07.33-.13.3-.17.27-.22.23-.26.19-.29.13-.32.09-.34.02-.35h0v-6.96h0l-.02-.35-.09-.33-.13-.32-.19-.3-.23-.26-.27-.22-.3-.17-.33-.13-.34-.07-.26-.01h-49l.26.01-.35-.01-.34.04-.34.1-.31.15-.29.2-.25.24-.21.27-.16.31-.11.33-.05.35-.01.17v6.96l.01-.17v.35l.05.34.11.33.16.31.21.27.25.24.29.2.31.15.34.1.34.04z" style="stroke-width:0.53;fill:#FFFFFF;fill-opacity:0.50"/><text x="249.89" y="435.41" lengthAdjust="spacingAndGlyphs" style="font-size:5.69px;font-family:Arial" text-anchor="middle" textLength="46.12">CAP HOMES LLC</text><path d="M454.55 344.16h47.11-.09l.35-.01.34-.07.32-.13.3-.17.27-.22.23-.26.19-.29.13-.32.09-.34.03-.35h0v-6.96h0l-.03-.35-.09-.33-.13-.32-.19-.3-.23-.26-.27-.22-.3-.17-.32-.12-.34-.07-.26-.02h-47.11l.26.02-.34-.02-.35.04-.33.1-.32.15-.28.2-.25.24-.21.28-.16.3-.11.33-.06.35-.01.17V342l.01-.17v.35l.06.34.11.33.16.31.21.28.25.24.28.19.32.15.33.1.35.04z" style="stroke-width:0.53;fill:#FFFFFF;fill-opacity:0.50"/><text x="478.1" y="340.56" lengthAdjust="spacingAndGlyphs" style="font-size:5.69px;font-family:Arial" text-anchor="middle" textLength="44.22">CHAD A PIERCE</text><path d="M395.28 212.18h61.97-.08l.35-.02.34-.07.32-.12.3-.18.27-.21.23-.27.19-.29.13-.32.09-.34.02-.34h0v-6.97h0l-.02-.34-.09-.34-.13-.32-.19-.29-.23-.26-.27-.22-.3-.18-.32-.12-.34-.07-.27-.02h-61.97l.26.02-.34-.01-.35.04-.33.1-.32.14-.28.2-.25.24-.21.28-.16.31-.11.33-.06.34-.01.17v6.97l.01-.18v.35l.06.34.11.33.16.31.21.28.25.24.28.2.32.15.33.09.35.05z" style="stroke-width:0.53;fill:#FFFFFF;fill-opacity:0.50"/><text x="426.27" y="208.58" lengthAdjust="spacingAndGlyphs" style="font-size:5.69px;font-family:Arial" text-anchor="middle" textLength="59.09">707 EAST BRADY LLC</text><path d="M299.86 304.42h62.9l-.08-.01.34-.01.35-.07.32-.12.3-.18.27-.22.23-.26.19-.29.13-.32.09-.34.02-.34h0V287.1h0l-.02-.35-.09-.34-.13-.31-.19-.3-.23-.26-.27-.22-.3-.17-.32-.13-.35-.07-.26-.01h-62.9l.26.01-.35-.01-.34.04-.34.1-.31.15-.29.2-.25.24-.21.27-.16.31-.11.33-.05.35-.01.17v15.16l.01-.18v.35l.05.34.11.33.16.31.21.28.25.24.29.2.31.15.34.09.34.04z" style="stroke-width:0.53;fill:#FFFFFF;fill-opacity:0.50"/><text x="331.31" y="292.62" lengthAdjust="spacingAndGlyphs" style="font-size:5.69px;font-family:Arial" text-anchor="middle" textLength="60.03">PO BOX 149, BUTLER,</text><text x="331.31" y="300.82" lengthAdjust="spacingAndGlyphs" style="font-size:5.69px;font-family:Arial" text-anchor="middle" textLength="24.33">WI 53007</text><path d="M62.92 186.86h64.49-.08l.34-.01.34-.07.33-.13.3-.17.27-.22.23-.26.19-.3.13-.31.08-.34.03-.35h0v-15.16h0l-.03-.34-.08-.34-.13-.32-.19-.29-.23-.26-.27-.22-.3-.18-.33-.12-.34-.07-.26-.02H62.92l.26.02-.34-.01-.35.04-.33.09-.32.15-.28.2-.25.24-.21.28-.16.31-.11.33-.06.34-.01.17v15.16l.01-.17v.34l.06.35.11.33.16.31.21.27.25.24.28.2.32.15.33.1.35.04z" style="stroke-width:0.53;fill:#FFFFFF;fill-opacity:0.50"/><text x="95.17" y="175.07" lengthAdjust="spacingAndGlyphs" style="font-size:5.69px;font-family:Arial" text-anchor="middle" textLength="58.76">6168 N DENMARK ST,</text><text x="95.17" y="183.26" lengthAdjust="spacingAndGlyphs" style="font-size:5.69px;font-family:Arial" text-anchor="middle" textLength="61.61">MILWAUKEE, WI 53225</text><path d="M111.95 474.74h70.17-.08l.34-.02.34-.07.33-.12.3-.18.27-.22.23-.26.19-.29.13-.32.09-.34.02-.34h0v-23.35h0l-.02-.35-.09-.34-.13-.32-.19-.29-.23-.26-.27-.22-.3-.18-.33-.12-.34-.07-.26-.01h-70.17l.26.01-.35-.01-.35.04-.33.1-.31.15-.29.19-.25.24-.21.28-.16.31-.11.33-.06.34v23.53-.18.35l.06.34.11.33.16.31.21.28.25.24.29.2.31.15.33.09.35.05z" style="stroke-width:0.53;fill:#FFFFFF;fill-opacity:0.50"/><text x="147.03" y="454.75" lengthAdjust="spacingAndGlyphs" style="font-size:5.69px;font-family:Arial" text-anchor="middle" textLength="67.3">12420 W HAMPTON AVE,</text><text x="147.03" y="462.94" lengthAdjust="spacingAndGlyphs" style="font-size:5.69px;font-family:Arial" text-anchor="middle" textLength="60.01">UNIT 149, BUTLER, WI</text><text x="147.03" y="471.14" lengthAdjust="spacingAndGlyphs" style="font-size:5.69px;font-family:Arial" text-anchor="middle" textLength="15.8">53007</text><path d="M267.74 539.77h62.91-.09l.35-.01.34-.07.32-.13.3-.17.27-.22.23-.26.19-.29.14-.32.08-.34.03-.35h0v-15.15h0l-.03-.35-.08-.34-.14-.32-.19-.29-.23-.26-.27-.22-.3-.18-.32-.12-.34-.07-.26-.01h-62.91l.26.01-.35-.01-.34.04-.34.1-.31.14-.29.2-.25.24-.21.28-.16.31-.11.33-.05.34-.01.18v15.15l.01-.17v.35l.05.34.11.33.16.31.21.27.25.25.29.19.31.15.34.1.34.04z" style="stroke-width:0.53;fill:#FFFFFF;fill-opacity:0.50"/><text x="299.19" y="527.98" lengthAdjust="spacingAndGlyphs" style="font-size:5.69px;font-family:Arial" text-anchor="middle" textLength="60.03">PO POX 149, BUTLER,</text><text x="299.19" y="536.17" lengthAdjust="spacingAndGlyphs" style="font-size:5.69px;font-family:Arial" text-anchor="middle" textLength="24.33">WI 53007</text><path d="M451.7 153.06h64.17-.09l.35-.01.34-.07.32-.13.3-.17.27-.22.23-.26.19-.29.14-.32.08-.34.03-.35h0v-23.35h0l-.03-.35-.08-.33-.14-.32-.19-.3-.23-.26-.27-.22-.3-.17-.32-.12-.34-.07-.26-.02H451.7l.26.02-.35-.02-.34.04-.33.1-.32.15-.28.2-.26.24-.2.28-.17.3-.11.33-.05.35-.01.17v23.35l.01-.17v.35l.05.34.11.33.17.31.2.27.26.24.28.2.32.15.33.1.34.04z" style="stroke-width:0.53;fill:#FFFFFF;fill-opacity:0.50"/><text x="483.78" y="133.07" lengthAdjust="spacingAndGlyphs" style="font-size:5.69px;font-family:Arial" text-anchor="middle" textLength="61.29">707 E BRADY ST, UNIT</text><text x="483.78" y="141.27" lengthAdjust="spacingAndGlyphs" style="font-size:5.69px;font-family:Arial" text-anchor="middle" textLength="54.34">2A, MILWAUKEE, WI</text><text x="483.78" y="149.46" lengthAdjust="spacingAndGlyphs" style="font-size:5.69px;font-family:Arial" text-anchor="middle" textLength="15.8">53202</text></g><g clip-path="url(#cpMC4wMHw1NzYuMDB8MC4wMHw1NzYuMDA=)"><circle cx="196.98" cy="96.71" r="1.95" style="stroke-width:0.71;stroke:none;fill:#F8766D"/><path d="m273.33 93.67 2.63 4.56h-5.26z" style="stroke-width:0.71;stroke:none;fill:#00BA38"/><path d="M339.31 98.66h3.91v-3.91h-3.91z" style="stroke-width:0.71;stroke:none;fill:#619CFF"/><text x="211.09" y="99.86" lengthAdjust="spacingAndGlyphs" style="font-size:8.80px;font-family:Arial Narrow" textLength="48.12">mprop address</text><text x="287.45" y="99.86" lengthAdjust="spacingAndGlyphs" style="font-size:8.80px;font-family:Arial Narrow" textLength="39.69">owner name</text><text x="355.38" y="99.86" lengthAdjust="spacingAndGlyphs" style="font-size:8.80px;font-family:Arial Narrow" textLength="40.5">wdfi address</text><text x="32.63" y="65.12" lengthAdjust="spacingAndGlyphs" style="font-size:12.00px;font-family:Arial Narrow" textLength="251.51">includes 11 parcels, 16 units, and 4 distinct owner names.</text><text x="32.63" y="42.78" lengthAdjust="spacingAndGlyphs" style="font-size:18.00px;font-weight:bold;font-family:Arial Narrow" textLength="195.72">CAP HOMES LLC etc Group</text></g></svg>