<svg xmlns="http://www.w3.org/2000/svg" width="576" height="672" class="svglite" viewBox="0 0 432 504"><defs><style><![CDATA[.svglite line,.svglite polyline,.svglite polygon,.svglite path,.svglite circle{fill:none;stroke:#000000;stroke-linecap:round;stroke-linejoin:round;stroke-miterlimit:10.00}.svglite text{white-space:pre}]]></style></defs><rect width="100%" height="100%" style="stroke-linecap:round;stroke-linejoin:round;stroke-miterlimit:10.00;stroke:none;fill:#FFFFFF"/><defs><clipPath id="cpMC4wMHw0MzIuMDB8MC4wMHw1MDQuMDA="><path d="M0 0h432v504H0z"/></clipPath></defs><g clip-path="url(#cpMC4wMHw0MzIuMDB8MC4wMHw1MDQuMDA=)"><path d="M0 0h432v504H0z" style="stroke-width:1.07;stroke:none;fill:#FFFFFF"/></g><defs><clipPath id="cpMzIuNjN8NDAyLjExfDEyMC44Nnw0NzEuMzc="><path d="M32.63 120.86h369.48v350.51H32.63z"/></clipPath></defs><g clip-path="url(#cpMzIuNjN8NDAyLjExfDEyMC44Nnw0NzEuMzc=)"><path d="m385.32 252.08-1.71-.45-1.72-.43-1.71-.43-1.71-.43-1.71-.41-1.72-.41-1.71-.4-1.72-.39-1.72-.39-1.71-.37-1.72-.37-1.72-.36-1.72-.36-1.72-.34-1.72-.34-1.72-.33-1.73-.33-1.72-.31-1.72-.31-1.73-.3-1.72-.29-1.73-.29-1.73-.27-1.72-.27-1.73-.26-1.73-.26-1.73-.24-1.73-.24-1.73-.23-1.73-.23-1.74-.21-1.73-.21-1.73-.2-1.74-.19-1.73-.19-1.74-.17-1.74-.17-1.73-.17-1.74-.15-1.74-.15-1.74-.13-1.74-.14-1.74-.12-1.74-.11-1.75-.11-1.74-.1-1.74-.1-1.75-.08-1.74-.08-1.75-.07-1.75-.06-1.74-.05-1.75-.05-1.75-.04-1.75-.03-1.75-.02-1.75-.02-1.76-.01h-1.75l-1.75.01-1.76.01-1.75.03-1.76.03-1.75.03-1.76.05-1.76.05-1.75.06-1.76.07-1.76.08-1.76.08-1.77.09-1.76.1-1.76.11-1.76.11-1.77.13-1.76.13-1.77.13-1.76.15-1.77.15-1.77.16-1.77.17-1.77.18-1.77.18-1.77.19-1.77.2-1.77.21-1.77.21-1.78.22-1.77.23-1.78.24-1.77.25-1.78.25-1.77.26-1.78.27-1.78.27-1.78.29-1.78.29-1.78.3-1.78.3" style="stroke-width:1.07;stroke:#000000;stroke-opacity:0.10;stroke-linecap:butt"/><path d="m246.56 136.79-.34 1.1-.35 1.09-.34 1.1-.35 1.09-.34 1.1-.35 1.09-.34 1.1-.35 1.09-.34 1.1-.35 1.09-.34 1.1-.34 1.09-.35 1.1-.34 1.09-.35 1.1-.34 1.09-.35 1.1-.34 1.09-.35 1.1-.34 1.09-.35 1.1-.34 1.09-.34 1.1-.35 1.09-.34 1.1-.35 1.09-.34 1.1-.35 1.09-.34 1.1-.35 1.09-.34 1.09-.35 1.1-.34 1.09-.35 1.1-.34 1.09-.34 1.1-.35 1.09-.34 1.1-.35 1.09-.34 1.1-.35 1.09-.34 1.1-.35 1.09-.34 1.1-.35 1.09-.34 1.1-.34 1.09-.35 1.1-.34 1.09-.35 1.1-.34 1.09-.35 1.1-.34 1.09-.35 1.1-.34 1.09-.35 1.1-.34 1.09-.34 1.1-.35 1.09-.34 1.1-.35 1.09-.34 1.09-.35 1.1-.34 1.09-.35 1.1-.34 1.09-.35 1.1-.34 1.09-.34 1.1-.35 1.09-.34 1.1-.35 1.09-.34 1.1-.35 1.09-.34 1.1-.35 1.09-.34 1.1-.35 1.09-.34 1.1-.34 1.09-.35 1.1-.34 1.09-.35 1.1-.34 1.09-.35 1.1-.34 1.09-.35 1.1-.34 1.09-.35 1.1-.34 1.09-.35 1.1-.34 1.09-.34 1.09-.35 1.1-.34 1.09-.35 1.1-.34 1.09-.35 1.1-.34 1.09m172.87 6.9-1.75-.07-1.74-.07-1.75-.07-1.75-.07-1.74-.07-1.75-.07-1.75-.07-1.74-.07-1.75-.07-1.74-.07-1.75-.07-1.75-.07-1.74-.07-1.75-.07-1.74-.06-1.75-.07-1.75-.07-1.74-.07-1.75-.07-1.75-.07-1.74-.07-1.75-.07-1.74-.07-1.75-.07-1.75-.07-1.74-.07-1.75-.07-1.74-.07-1.75-.07-1.75-.07-1.74-.07-1.75-.07-1.75-.07-1.74-.07-1.75-.07-1.74-.07-1.75-.07-1.75-.07-1.74-.07-1.75-.07-1.74-.07-1.75-.07-1.75-.07-1.74-.06-1.75-.07-1.75-.07-1.74-.07-1.75-.07-1.74-.07-1.75-.07-1.75-.07-1.74-.07-1.75-.07-1.74-.07-1.75-.07-1.75-.07-1.74-.07-1.75-.07-1.75-.07-1.74-.07-1.75-.07-1.74-.07-1.75-.07-1.75-.07-1.74-.07-1.75-.07-1.74-.07-1.75-.07-1.75-.07-1.74-.07-1.75-.07-1.75-.07-1.74-.06-1.75-.07-1.74-.07-1.75-.07-1.75-.07-1.74-.07-1.75-.07-1.74-.07-1.75-.07-1.75-.07-1.74-.07-1.75-.07-1.75-.07-1.74-.07-1.75-.07-1.74-.07-1.75-.07-1.75-.07-1.74-.07-1.75-.07-1.74-.07-1.75-.07-1.75-.07-1.74-.07-1.75-.07-1.75-.07-1.74-.07" style="stroke-width:1.07;stroke:#000000;stroke-opacity:0.10;stroke-linecap:butt"/><path d="m385.32 252.08-1.78.31-1.78.3-1.78.29-1.78.28-1.78.28-1.78.26-1.78.26-1.77.26-1.78.24-1.77.24-1.78.23-1.77.22-1.77.22-1.78.2-1.77.2-1.77.19-1.77.19-1.77.17-1.77.17-1.76.16-1.77.16-1.77.14-1.76.14-1.77.13-1.76.12-1.76.12-1.77.1-1.76.1-1.76.09-1.76.09-1.76.07-1.76.07-1.76.06-1.76.06-1.75.04-1.76.04-1.75.03-1.76.02-1.75.02h-3.51l-1.75-.01-1.75-.01-1.75-.02-1.75-.04-1.75-.04-1.75-.04-1.75-.06-1.74-.06-1.75-.07-1.75-.07-1.74-.09-1.74-.09-1.75-.1-1.74-.11-1.74-.12-1.74-.12-1.74-.13-1.74-.14-1.74-.15-1.74-.15-1.74-.16-1.73-.17-1.74-.18-1.74-.18-1.73-.2-1.73-.2-1.74-.2-1.73-.22-1.73-.22-1.73-.23-1.73-.24-1.73-.25-1.73-.25-1.73-.26-1.73-.27-1.72-.28-1.73-.29-1.73-.29-1.72-.3-1.72-.31-1.73-.31-1.72-.32-1.72-.33-1.72-.34-1.72-.35-1.72-.35-1.72-.36-1.72-.37-1.72-.38-1.71-.38-1.72-.4-1.72-.4-1.71-.4-1.71-.42-1.72-.42-1.71-.43-1.71-.44-1.71-.45M49.42 207.01l1.65.39 1.65.38 1.64.39 1.65.38 1.65.39 1.64.39 1.65.38 1.65.39 1.64.38 1.65.39 1.65.38 1.64.39 1.65.38 1.65.39 1.64.39 1.65.38 1.65.39 1.64.38 1.65.39 1.65.38 1.64.39 1.65.38 1.65.39 1.64.39 1.65.38 1.65.39 1.64.38 1.65.39 1.65.38 1.64.39 1.65.38 1.65.39 1.64.39 1.65.38 1.65.39 1.64.38 1.65.39 1.65.38 1.64.39 1.65.39 1.65.38 1.64.39 1.65.38 1.65.39 1.65.38 1.64.39 1.65.38 1.65.39 1.64.39 1.65.38 1.65.39 1.64.38 1.65.39 1.65.38 1.64.39 1.65.38 1.65.39 1.64.39 1.65.38 1.65.39 1.64.38 1.65.39 1.65.38 1.64.39 1.65.38 1.65.39 1.64.39 1.65.38 1.65.39 1.64.38 1.65.39 1.65.38 1.64.39 1.65.38 1.65.39 1.64.39 1.65.38 1.65.39 1.64.38 1.65.39 1.65.38 1.64.39 1.65.38 1.65.39 1.64.39 1.65.38 1.65.39 1.64.38 1.65.39 1.65.38 1.64.39 1.65.38 1.65.39 1.64.39 1.65.38 1.65.39 1.64.38 1.65.39 1.65.38m-34.17 108.56.35-1.09.34-1.1.35-1.1.34-1.09.35-1.1.34-1.1.35-1.09.34-1.1.35-1.1.34-1.09.35-1.1.34-1.1.35-1.09.35-1.1.34-1.1.35-1.09.34-1.1.35-1.1.34-1.09.35-1.1.34-1.1.35-1.09.34-1.1.35-1.1.34-1.09.35-1.1.34-1.09.35-1.1.34-1.1.35-1.09.34-1.1.35-1.1.34-1.09.35-1.1.34-1.1.35-1.09.34-1.1.35-1.1.34-1.09.35-1.1.34-1.1.35-1.09.34-1.1.35-1.1.34-1.09.35-1.1.34-1.1.35-1.09.34-1.1.35-1.1.34-1.09.35-1.1.34-1.1.35-1.09.34-1.1.35-1.09.34-1.1.35-1.1.34-1.09.35-1.1.34-1.1.35-1.09.34-1.1.35-1.1.35-1.09.34-1.1.35-1.1.34-1.09.35-1.1.34-1.1.35-1.09.34-1.1.35-1.1.34-1.09.35-1.1.34-1.1.35-1.09.34-1.1.35-1.1.34-1.09.35-1.1.34-1.09.35-1.1.34-1.1.35-1.09.34-1.1.35-1.1.34-1.09.35-1.1.34-1.1.35-1.09.34-1.1.35-1.1.34-1.09.35-1.1.34-1.1.35-1.09.34-1.1.35-1.1m-34.17 108.56-.32 1.03-.32 1.03-.33 1.02-.32 1.03-.32 1.03-.33 1.03-.32 1.02-.32 1.03-.33 1.03-.32 1.02-.32 1.03-.33 1.03-.32 1.03-.32 1.02-.33 1.03-.32 1.03-.32 1.03-.33 1.02-.32 1.03-.32 1.03-.33 1.02-.32 1.03-.32 1.03-.33 1.03-.32 1.02-.32 1.03-.33 1.03-.32 1.02-.32 1.03-.32 1.03-.33 1.03-.32 1.02-.32 1.03-.33 1.03-.32 1.03-.32 1.02-.33 1.03-.32 1.03-.32 1.02-.33 1.03-.32 1.03-.32 1.03-.33 1.02-.32 1.03-.32 1.03-.33 1.03-.32 1.02-.32 1.03-.33 1.03-.32 1.02-.32 1.03-.33 1.03-.32 1.03-.32 1.02-.33 1.03-.32 1.03-.32 1.03-.33 1.02-.32 1.03-.32 1.03-.33 1.02-.32 1.03-.32 1.03-.33 1.03-.32 1.02-.32 1.03-.33 1.03-.32 1.03-.32 1.02-.33 1.03-.32 1.03-.32 1.02-.33 1.03-.32 1.03-.32 1.03-.33 1.02-.32 1.03-.32 1.03-.33 1.02-.32 1.03-.32 1.03-.33 1.03-.32 1.02-.32 1.03-.33 1.03-.32 1.03-.32 1.02-.33 1.03-.32 1.03-.32 1.02-.33 1.03-.32 1.03-.32 1.03-.33 1.02-.32 1.03-.32 1.03-.33 1.03-.32 1.02-.32 1.03" style="stroke-width:1.07;stroke:#000000;stroke-opacity:0.10;stroke-linecap:butt"/><path d="m385.32 244.62 6.46 11.19h-12.92zM246.56 134.58l1.91 3.32h-3.82zM49.42 204.8l1.92 3.32h-3.83zm128.86 146.73 1.92 3.32h-3.83z" style="stroke-width:0.71;stroke:none;fill:#00BA38"/><circle cx="212.45" cy="245.18" r="6.76" style="stroke-width:0.71;stroke:none;fill:#F8766D"/><path d="M144.86 456.86h2.84v-2.84h-2.84z" style="stroke-width:0.71;stroke:none;fill:#619CFF"/><path d="m251.19 134.58-3.6 1.72M173.8 358.41l3.7-3.86m39.73-114.04-3.98 3.89m-62.27 206.35-3.9 3.89" style="stroke-width:0.53;stroke:#BFBFBF"/><path d="M320.06 261.85h58.4-.09l.35-.01.34-.07.32-.12.3-.18.27-.22.23-.26.19-.29.13-.32.09-.34.03-.35h0v-15.22h0l-.03-.34-.09-.34-.13-.32-.19-.29-.23-.26-.27-.22-.3-.18-.32-.12-.34-.07-.26-.02h-58.4l.26.02-.34-.02-.35.05-.33.09-.32.15-.28.2-.25.24-.21.28-.16.31-.11.33-.06.34-.01.17v15.22l.01-.17v.35l.06.34.11.33.16.31.21.28.25.24.28.2.32.14.33.1.35.04z" style="stroke-width:0.53;fill:#FFFFFF;fill-opacity:0.50"/><text x="349.26" y="250.06" lengthAdjust="spacingAndGlyphs" style="font-size:5.69px;font-family:&quot;Liberation Sans&quot;" text-anchor="middle" textLength="55.51">CASCADE FUNDING</text><text x="349.26" y="258.25" lengthAdjust="spacingAndGlyphs" style="font-size:5.69px;font-family:&quot;Liberation Sans&quot;" text-anchor="middle" textLength="46">MORTGAGE TRU</text><path d="M253.35 144.01h74.76-.09l.35-.02.34-.07.32-.12.3-.18.27-.22.23-.26.19-.29.14-.32.08-.34.03-.34h0v-15.22h0l-.03-.35-.08-.34-.14-.32-.19-.29-.23-.26-.27-.22-.3-.18-.32-.12-.34-.07-.26-.01h-74.76l.26.01-.35-.01-.34.04-.34.1-.31.14-.29.2-.25.24-.21.28-.16.31-.11.33-.05.34-.01.18v15.22l.01-.18v.35l.05.34.11.33.16.31.21.28.25.24.29.2.31.15.34.09.34.05z" style="stroke-width:0.53;fill:#FFFFFF;fill-opacity:0.50"/><text x="290.73" y="132.21" lengthAdjust="spacingAndGlyphs" style="font-size:5.69px;font-family:&quot;Liberation Sans&quot;" text-anchor="middle" textLength="71.88">US BANK SUCCESSOR TO</text><text x="290.73" y="140.41" lengthAdjust="spacingAndGlyphs" style="font-size:5.69px;font-family:&quot;Liberation Sans&quot;" text-anchor="middle" textLength="21.12">LASALL</text><path d="M56.31 212.71h57.31-.09l.35-.02.34-.06.33-.13.3-.17.27-.22.23-.26.18-.3.14-.32.08-.33.03-.35h0v-7.03h0l-.03-.34-.08-.34-.14-.32-.18-.29-.23-.26-.27-.22-.3-.18-.33-.12-.34-.07-.26-.02H56.31l.26.02-.35-.02-.34.05-.34.09-.31.15-.29.2-.25.24-.21.28-.16.31-.11.33-.05.34-.01.17v7.03l.01-.17v.34l.05.35.11.33.16.3.21.28.25.24.29.2.31.15.34.1.34.04z" style="stroke-width:0.53;fill:#FFFFFF;fill-opacity:0.50"/><text x="84.97" y="209.11" lengthAdjust="spacingAndGlyphs" style="font-size:5.69px;font-family:&quot;Liberation Sans&quot;" text-anchor="middle" textLength="54.43">HPP PROPERTY LLC</text><path d="M145.01 369.76h44.73-.09l.35-.02.34-.07.32-.12.3-.17.27-.22.23-.26.19-.3.13-.32.09-.34.03-.34h0v-7.03h0l-.03-.35-.09-.33-.13-.32-.19-.3-.23-.26-.27-.22-.3-.17-.32-.12-.34-.07-.26-.02h-44.73l.26.02-.35-.02-.34.04-.34.1-.31.15-.29.2-.25.24-.21.28-.16.3-.11.33-.05.35-.01.17v7.03l.01-.18v.35l.05.34.11.33.16.31.21.28.25.24.29.2.31.15.34.09.34.05z" style="stroke-width:0.53;fill:#FFFFFF;fill-opacity:0.50"/><text x="167.37" y="366.16" lengthAdjust="spacingAndGlyphs" style="font-size:5.69px;font-family:&quot;Liberation Sans&quot;" text-anchor="middle" textLength="41.85">SEATTLE BANK</text><path d="M203.2 240.51h57.58l-.09-.01.35-.01.34-.07.32-.12.3-.18.27-.22.23-.26.19-.29.13-.32.09-.34.03-.34h0v-23.42h0l-.03-.35-.09-.33-.13-.32-.19-.3-.23-.26-.27-.22-.3-.17-.32-.13-.34-.06-.26-.02H203.2l.26.02-.35-.02-.35.04-.33.1-.31.15-.29.2-.25.24-.21.28-.16.3-.11.33-.06.35v23.59-.18.35l.06.34.11.33.16.31.21.28.25.24.29.2.31.15.33.09.35.04z" style="stroke-width:0.53;fill:#FFFFFF;fill-opacity:0.50"/><text x="231.99" y="220.52" lengthAdjust="spacingAndGlyphs" style="font-size:5.69px;font-family:&quot;Liberation Sans&quot;" text-anchor="middle" textLength="53.88">1 MORTGAGE WAY,</text><text x="231.99" y="228.71" lengthAdjust="spacingAndGlyphs" style="font-size:5.69px;font-family:&quot;Liberation Sans&quot;" text-anchor="middle" textLength="54.7">MOUNT LAUREL, NJ</text><text x="231.99" y="236.91" lengthAdjust="spacingAndGlyphs" style="font-size:5.69px;font-family:&quot;Liberation Sans&quot;" text-anchor="middle" textLength="18.11">08054</text><path d="M127.22 450.75h68.6-.09l.35-.01.34-.07.32-.13.3-.17.27-.22.23-.26.19-.29.14-.32.08-.34.03-.35h0v-15.22h0l-.03-.34-.08-.34-.14-.32-.19-.3-.23-.26-.27-.22-.3-.17-.32-.12-.34-.07-.26-.02h-68.6l.26.02-.34-.02-.35.05-.33.09-.32.15-.28.2-.25.24-.21.28-.17.3-.11.33-.05.35-.01.17v15.22l.01-.17v.35l.05.34.11.33.17.31.21.28.25.24.28.19.32.15.33.1.35.04z" style="stroke-width:0.53;fill:#FFFFFF;fill-opacity:0.50"/><text x="161.52" y="438.96" lengthAdjust="spacingAndGlyphs" style="font-size:5.69px;font-family:&quot;Liberation Sans&quot;" text-anchor="middle" textLength="56.64">2355 STATE ST, STE</text><text x="161.52" y="447.15" lengthAdjust="spacingAndGlyphs" style="font-size:5.69px;font-family:&quot;Liberation Sans&quot;" text-anchor="middle" textLength="65.71">101, SALEM, OR 97301</text></g><g clip-path="url(#cpMC4wMHw0MzIuMDB8MC4wMHw1MDQuMDA=)"><circle cx="122.24" cy="95.78" r="1.95" style="stroke-width:0.71;stroke:none;fill:#F8766D"/><path d="m198.59 92.74 2.63 4.56h-5.26z" style="stroke-width:0.71;stroke:none;fill:#00BA38"/><path d="M264.57 97.74h3.91v-3.91h-3.91z" style="stroke-width:0.71;stroke:none;fill:#619CFF"/><text x="136.36" y="98.81" lengthAdjust="spacingAndGlyphs" style="font-size:8.80px;font-family:&quot;Liberation Sans Narrow&quot;" textLength="48.12">mprop address</text><text x="212.71" y="98.81" lengthAdjust="spacingAndGlyphs" style="font-size:8.80px;font-family:&quot;Liberation Sans Narrow&quot;" textLength="39.69">owner name</text><text x="280.64" y="98.81" lengthAdjust="spacingAndGlyphs" style="font-size:8.80px;font-family:&quot;Liberation Sans Narrow&quot;" textLength="40.5">wdfi address</text><text x="32.63" y="64.23" lengthAdjust="spacingAndGlyphs" style="font-size:12.00px;font-family:&quot;Liberation Sans Narrow&quot;" textLength="241.29">includes 6 parcels, 8 units, and 4 distinct owner names.</text><text x="32.63" y="42.27" lengthAdjust="spacingAndGlyphs" style="font-size:18.00px;font-weight:bold;font-family:&quot;Liberation Sans Narrow&quot;" textLength="343.55">CASCADE FUNDING MORTGAGE TRU etc Group</text></g></svg>