<svg xmlns="http://www.w3.org/2000/svg" width="576" height="672" viewBox="0 0 432 504"><g class="svglite"><defs><style><![CDATA[.svglite line,.svglite polyline,.svglite polygon,.svglite path,.svglite circle{fill:none;stroke:#000000;stroke-linecap:round;stroke-linejoin:round;stroke-miterlimit:10.00}.svglite text{white-space:pre}.svglite g.glyphgroup path{fill:inherit;stroke:none}]]></style></defs><rect width="100%" height="100%" style="stroke-linecap:round;stroke-linejoin:round;stroke-miterlimit:10.00;stroke:none;fill:#FFFFFF"/><defs><clipPath id="cpMC4wMHw0MzIuMDB8MC4wMHw1MDQuMDA="><path d="M0 0h432v504H0z"/></clipPath></defs><g clip-path="url(#cpMC4wMHw0MzIuMDB8MC4wMHw1MDQuMDA=)"><path d="M0 0h432v504H0z" style="stroke-width:1.07;stroke:none;fill:#FFFFFF"/></g><defs><clipPath id="cpMjkuODl8NDAyLjExfDEyMi4xNHw0NzQuMTE="><path d="M29.89 122.14h372.22v351.97H29.89z"/></clipPath></defs><g clip-path="url(#cpMjkuODl8NDAyLjExfDEyMi4xNHw0NzQuMTE=)"><path d="m295.83 361.19.74.98.74.98.74.98.74.98.74.98.74.98.74.98.74.98.74.97.73.98.74.98.74.98.74.98.74.98.74.98.74.98.74.98.74.98.74.97.73.98.74.98.74.98.74.98.74.98.74.98.74.98.74.98.74.98.74.97.74.98.73.98.74.98.74.98.74.98.74.98.74.98.74.98.74.98.74.97.74.98.74.98.73.98.74.98.74.98.74.98.74.98.74.98.74.98.74.97.74.98.74.98.74.98.73.98.74.98.74.98.74.98.74.98.74.98.74.97.74.98.74.98.74.98.74.98.73.98.74.98.74.98.74.98.74.97.74.98.74.98.74.98.74.98.74.98.74.98.73.98.74.98.74.98.74.97.74.98.74.98.74.98.74.98.74.98.74.98.74.98.73.98.74.98.74.97.74.98.74.98.74.98.74.98.74.98.74.98.74.98.74.98.73.98.74.97.74.98m-73.17-96.92-.8-1.06-.8-1.07-.81-1.06-.8-1.07-.8-1.07-.8-1.06-.81-1.07-.8-1.07-.8-1.06-.8-1.07-.81-1.06-.8-1.07-.8-1.07-.81-1.06-.8-1.07-.8-1.06-.8-1.07-.81-1.07-.8-1.06-.8-1.07-.81-1.07-.8-1.06-.8-1.07-.8-1.06-.81-1.07-.8-1.07-.8-1.06-.8-1.07-.81-1.06-.8-1.07-.8-1.07-.81-1.06-.8-1.07-.8-1.07-.8-1.06-.81-1.07-.8-1.06-.8-1.07-.81-1.07-.8-1.06-.8-1.07-.8-1.06-.81-1.07-.8-1.07-.8-1.06-.8-1.07-.81-1.07-.8-1.06-.8-1.07-.81-1.06-.8-1.07-.8-1.07-.8-1.06-.81-1.07-.8-1.06-.8-1.07-.81-1.07-.8-1.06-.8-1.07-.8-1.07-.81-1.06-.8-1.07-.8-1.06-.81-1.07-.8-1.07-.8-1.06-.8-1.07-.81-1.06-.8-1.07-.8-1.07-.8-1.06-.81-1.07-.8-1.07-.8-1.06-.81-1.07-.8-1.06-.8-1.07-.8-1.07-.81-1.06-.8-1.07-.8-1.06-.81-1.07-.8-1.07-.8-1.06-.8-1.07-.81-1.07-.8-1.06-.8-1.07-.8-1.06-.81-1.07-.8-1.07-.8-1.06-.81-1.07-.8-1.06-.8-1.07-.8-1.07-.81-1.06-.8-1.07-.8-1.07m168.83-41.66-1.7.42-1.71.42-1.7.42-1.71.42-1.7.42-1.71.42-1.71.42-1.7.42-1.71.43-1.7.42-1.71.42-1.7.42-1.71.42-1.7.42-1.71.42-1.7.42-1.71.42-1.7.42-1.71.42-1.71.43-1.7.42-1.71.42-1.7.42-1.71.42-1.7.42-1.71.42-1.7.42-1.71.42-1.7.42-1.71.42-1.7.43-1.71.42-1.71.42-1.7.42-1.71.42-1.7.42-1.71.42-1.7.42-1.71.42-1.7.42-1.71.42-1.7.42-1.71.43-1.71.42-1.7.42-1.71.42-1.7.42-1.71.42-1.7.42-1.71.42-1.7.42-1.71.42-1.7.42-1.71.43-1.7.42-1.71.42-1.71.42-1.7.42-1.71.42-1.7.42-1.71.42-1.7.42-1.71.42-1.7.42-1.71.42-1.7.43-1.71.42-1.7.42-1.71.42-1.71.42-1.7.42-1.71.42-1.7.42-1.71.42-1.7.42-1.71.42-1.7.43-1.71.42-1.7.42-1.71.42-1.71.42-1.7.42-1.71.42-1.7.42-1.71.42-1.7.42-1.71.42-1.7.42-1.71.43-1.7.42-1.71.42-1.7.42-1.71.42-1.71.42-1.7.42-1.71.42-1.7.42-1.71.42-1.7.42m5.26-117.5-.06 1.18-.05 1.19-.05 1.19-.05 1.18-.06 1.19-.05 1.19-.05 1.18-.06 1.19-.05 1.19-.05 1.19-.06 1.18-.05 1.19-.05 1.19-.06 1.18-.05 1.19-.05 1.19-.06 1.18-.05 1.19-.05 1.19-.06 1.19-.05 1.18-.05 1.19-.05 1.19-.06 1.18-.05 1.19-.05 1.19-.06 1.18-.05 1.19-.05 1.19-.06 1.18-.05 1.19-.05 1.19-.06 1.19-.05 1.18-.05 1.19-.06 1.19-.05 1.18-.05 1.19-.05 1.19-.06 1.18-.05 1.19-.05 1.19-.06 1.18-.05 1.19-.05 1.19-.06 1.19-.05 1.18-.05 1.19-.06 1.19-.05 1.18-.05 1.19-.06 1.19-.05 1.18-.05 1.19-.05 1.19-.06 1.19-.05 1.18-.05 1.19-.06 1.19-.05 1.18-.05 1.19-.06 1.19-.05 1.18-.05 1.19-.06 1.19-.05 1.18-.05 1.19-.06 1.19-.05 1.19-.05 1.18-.05 1.19-.06 1.19-.05 1.18-.05 1.19-.06 1.19-.05 1.18-.05 1.19-.06 1.19-.05 1.19-.05 1.18-.06 1.19-.05 1.19-.05 1.18-.06 1.19-.05 1.19-.05 1.18-.05 1.19-.06 1.19-.05 1.18-.05 1.19-.06 1.19-.05 1.19-.05 1.18-.06 1.19-.05 1.19-.05 1.18-.06 1.19-.05 1.19-.05 1.18M46.81 221.38l1.71.35 1.71.34 1.72.35 1.71.34 1.71.35 1.71.35 1.72.34 1.71.35 1.71.35 1.71.34 1.72.35 1.71.34 1.71.35 1.71.35 1.72.34 1.71.35 1.71.34 1.71.35 1.72.35 1.71.34 1.71.35 1.72.34 1.71.35 1.71.35 1.71.34 1.72.35 1.71.34 1.71.35 1.71.35 1.72.34 1.71.35 1.71.35 1.71.34 1.72.35 1.71.34 1.71.35 1.71.35 1.72.34 1.71.35 1.71.34 1.71.35 1.72.35 1.71.34 1.71.35 1.72.34 1.71.35 1.71.35 1.71.34 1.72.35 1.71.35 1.71.34 1.71.35 1.72.34 1.71.35 1.71.35 1.71.34 1.72.35 1.71.34 1.71.35 1.71.35 1.72.34 1.71.35 1.71.34 1.72.35 1.71.35 1.71.34 1.71.35 1.72.35 1.71.34 1.71.35 1.71.34 1.72.35 1.71.35 1.71.34 1.71.35 1.72.34 1.71.35 1.71.35 1.71.34 1.72.35 1.71.34 1.71.35 1.72.35 1.71.34 1.71.35 1.71.34 1.72.35 1.71.35 1.71.34 1.71.35 1.72.35 1.71.34 1.71.35 1.71.34 1.72.35 1.71.35 1.71.34 1.71.35 1.72.34M46.81 221.38l.12.89.11.89.12.89.12.9.12.89.12.89.12.89.12.89.12.89.12.9.11.89.12.89.12.89.12.89.12.89.12.89.12.9.12.89.12.89.11.89.12.89.12.89.12.89.12.9.12.89.12.89.12.89.12.89.11.89.12.9.12.89.12.89.12.89.12.89.12.89.12.89.12.9.11.89.12.89.12.89.12.89.12.89.12.89.12.9.12.89.12.89.11.89.12.89.12.89.12.9.12.89.12.89.12.89.12.89.12.89.11.89.12.9.12.89.12.89.12.89.12.89.12.89.12.89.12.9.11.89.12.89.12.89.12.89.12.89.12.9.12.89.12.89.12.89.11.89.12.89.12.89.12.9.12.89.12.89.12.89.12.89.12.89.11.9.12.89.12.89.12.89.12.89.12.89.12.89.12.9.12.89.11.89.12.89.12.89.12.89.12.89.12.9.12.89.12.89m0 0 1.91-.17 1.9-.17 1.89-.18 1.89-.19 1.89-.2 1.88-.2 1.87-.21 1.86-.22 1.86-.23 1.85-.24 1.84-.24 1.84-.25 1.84-.26 1.82-.27 1.82-.27 1.81-.28 1.81-.29 1.8-.3 1.79-.31 1.79-.31 1.78-.32 1.77-.33 1.77-.34 1.76-.34 1.76-.35 1.75-.36 1.74-.37 1.73-.37 1.73-.39 1.72-.39 1.72-.39 1.71-.41 1.7-.41 1.7-.43 1.69-.42 1.68-.44 1.68-.45 1.67-.45 1.67-.46 1.66-.47 1.65-.47 1.64-.49 1.64-.49 1.63-.5 1.63-.5 1.62-.52 1.61-.52 1.61-.53 1.6-.54 1.59-.54 1.59-.56 1.58-.56 1.58-.57 1.56-.57 1.57-.59 1.55-.59 1.55-.6 1.54-.6 1.54-.62 1.53-.62 1.52-.63 1.52-.64 1.51-.65 1.5-.65 1.5-.66 1.49-.67 1.48-.68 1.48-.68 1.47-.7 1.47-.7 1.45-.71 1.46-.71 1.44-.72 1.44-.74 1.43-.74 1.43-.74 1.42-.76 1.41-.76 1.41-.77 1.4-.78 1.4-.78 1.38-.8 1.38-.8 1.38-.8 1.37-.82 1.36-.83 1.35-.83 1.35-.84 1.35-.84 1.33-.86 1.33-.86 1.33-.87 1.31-.88 1.31-.89 1.31-.89 1.29-.9 1.29-.91 1.29-.92 1.28-.93" style="stroke-width:1.07;stroke:#000000;stroke-opacity:0.10;stroke-linecap:butt"/><path d="m58.58 309.64 1.69-.42 1.7-.42 1.7-.43 1.69-.42 1.69-.43 1.69-.43 1.68-.44 1.69-.43 1.68-.44 1.68-.45 1.68-.44 1.67-.45 1.67-.45 1.68-.45 1.66-.46 1.67-.45 1.67-.46 1.66-.47 1.66-.46 1.66-.47 1.65-.47 1.66-.47 1.65-.48 1.65-.48 1.65-.48 1.64-.48 1.64-.49 1.65-.49 1.63-.49 1.64-.49 1.64-.5 1.63-.5 1.63-.5 1.63-.5 1.62-.51 1.63-.51 1.62-.51 1.62-.51 1.61-.52 1.62-.52 1.61-.52 1.61-.53 1.61-.52 1.61-.53 1.6-.54 1.61-.53 1.6-.54 1.59-.54 1.6-.54 1.59-.55 1.6-.55 1.58-.55 1.59-.55 1.59-.56 1.58-.55 1.58-.56 1.58-.57 1.58-.56 1.57-.57 1.57-.57 1.57-.58 1.57-.57 1.57-.58 1.56-.58 1.56-.59 1.56-.59 1.56-.59 1.55-.59 1.56-.59 1.55-.6 1.55-.6 1.54-.6 1.55-.61 1.54-.6 1.54-.61 1.54-.61 1.53-.62 1.54-.62 1.53-.62 1.53-.62 1.53-.63 1.52-.62 1.52-.63 1.52-.64 1.52-.63 1.52-.64 1.51-.64 1.52-.65 1.51-.64 1.5-.65 1.51-.65 1.5-.66 1.5-.65 1.5-.66 1.5-.66 1.5-.67 1.49-.66 1.49-.67 1.49-.68m-157.78 54 1.48-.67 1.5-.67 1.49-.67 1.49-.66 1.5-.66 1.5-.66 1.5-.66 1.5-.65 1.51-.66 1.51-.64 1.51-.65 1.51-.64 1.51-.64 1.52-.64 1.52-.64 1.52-.63 1.52-.63 1.53-.63 1.53-.63 1.53-.62 1.53-.62 1.53-.62 1.54-.61 1.53-.61 1.54-.61 1.55-.61 1.54-.61 1.55-.6 1.55-.6 1.55-.6 1.55-.59 1.55-.59 1.56-.59 1.56-.59 1.56-.58 1.57-.58 1.56-.58 1.57-.58 1.57-.57 1.57-.57 1.58-.57 1.57-.57 1.58-.56 1.58-.56 1.59-.56 1.58-.56 1.59-.55 1.59-.55 1.59-.55 1.59-.54 1.6-.55 1.6-.54 1.6-.53 1.6-.54 1.6-.53 1.61-.53 1.61-.53 1.61-.52 1.61-.53 1.62-.52 1.62-.51 1.62-.52 1.62-.51 1.62-.51 1.63-.51 1.63-.5 1.63-.5 1.63-.5 1.63-.5 1.64-.49 1.64-.49 1.64-.49 1.64-.49 1.65-.48 1.65-.48 1.64-.48 1.66-.47 1.65-.48 1.66-.47 1.65-.47 1.66-.46 1.67-.46 1.66-.46 1.67-.46 1.67-.46 1.67-.45 1.67-.45 1.68-.45 1.67-.44 1.68-.44 1.69-.44 1.68-.44 1.69-.43 1.68-.44 1.69-.42 1.7-.43 1.69-.43 1.7-.42 1.7-.42" style="stroke-width:1.07;stroke:#000000;stroke-opacity:0.10;stroke-linecap:butt"/><path d="m58.58 309.64 1.27-.93 1.29-.91 1.29-.91 1.3-.9 1.3-.9 1.31-.88 1.32-.88 1.32-.87 1.33-.87 1.34-.85 1.34-.85 1.35-.84 1.35-.83 1.37-.83 1.36-.81 1.38-.81 1.38-.8 1.39-.79 1.39-.79 1.4-.78 1.41-.77 1.41-.76 1.42-.75 1.43-.75 1.43-.74 1.44-.73 1.45-.73 1.45-.71 1.46-.71 1.46-.7 1.47-.69 1.48-.69 1.49-.67 1.49-.67 1.49-.67 1.51-.65 1.51-.64 1.51-.64 1.53-.63 1.53-.63 1.53-.61 1.54-.61 1.55-.6 1.56-.59 1.56-.58 1.57-.58 1.57-.57 1.58-.56 1.59-.55 1.59-.55 1.6-.54 1.61-.53 1.61-.52 1.62-.51 1.63-.51 1.63-.5 1.64-.49 1.65-.48 1.65-.48 1.66-.47 1.66-.46 1.67-.45 1.68-.44 1.68-.44 1.69-.43 1.7-.42 1.7-.42 1.71-.4 1.72-.4 1.72-.39 1.73-.38 1.74-.38 1.74-.37 1.75-.36 1.75-.35 1.76-.34 1.77-.34 1.77-.33 1.78-.32 1.79-.31 1.79-.31 1.8-.29 1.81-.29 1.81-.28 1.82-.28 1.83-.27 1.83-.25 1.84-.26 1.84-.24 1.86-.23 1.85-.23 1.87-.22 1.87-.21 1.88-.21 1.88-.2 1.89-.18 1.9-.19 1.9-.17 1.91-.17" style="stroke-width:1.07;stroke:#000000;stroke-opacity:0.10;stroke-linecap:butt"/><path d="m295.83 354.19 6.07 10.5h-12.13zm89.36-142.42 1.92 3.31h-3.83zm-163.57-75.84 1.91 3.31h-3.83zM46.81 219.17l1.91 3.32h-3.83z" style="stroke-width:0.71;stroke:none;fill:#00BA38"/><path d="M57.15 311.06H60v-2.84h-2.85z" style="stroke-width:0.71;stroke:none;fill:#619CFF"/><circle cx="369" cy="458.11" r="1.42" style="stroke-width:0.71;stroke:none;fill:#F8766D"/><circle cx="216.36" cy="255.64" r="6.76" style="stroke-width:0.71;stroke:none;fill:#F8766D"/><path d="m291.33 365.87 3.76-3.91m85.37-148.01 3.67.02M216.9 142.83l3.96-3.94M51.57 221.45l-3.7-.05m316.37 236.68 3.7.03M221.08 250.95l-3.97 3.94" style="stroke-width:0.53;stroke:#BFBFBF"/><path d="M263.21 376.99h43.55l-.09-.01.35-.01.34-.07.32-.12.31-.18.26-.22.24-.26.18-.29.14-.32.08-.34.03-.34h0v-6.8h0l-.03-.35-.08-.33-.14-.32-.18-.3-.24-.26-.26-.22-.31-.17-.32-.13-.34-.07-.26-.01h-43.55l.26.01-.35-.01-.35.04-.33.1-.31.15-.29.2-.25.24-.21.27-.16.31-.11.33-.06.35v6.97-.18.35l.06.34.11.33.16.31.21.28.25.24.29.2.31.15.33.09.35.04z" style="stroke-width:0.53;fill:#FFFFFF;fill-opacity:0.50"/><text x="284.98" y="373.39" lengthAdjust="spacingAndGlyphs" style="font-size:5.69px;font-family:&quot;Liberation Sans&quot;" text-anchor="middle" textLength="40.67">CASEY ZHANG</text><path d="M316.98 223.6h61.32-.09l.35-.01.34-.07.32-.13.31-.17.26-.22.24-.26.18-.3.14-.32.08-.33.03-.35h0v-14.99h0l-.03-.35-.08-.33-.14-.32-.18-.3-.24-.26-.26-.22-.31-.17-.32-.13-.34-.06-.26-.02h-61.32l.26.02-.35-.02-.34.04-.34.1-.31.15-.29.2-.25.24-.2.28-.17.3-.11.33-.05.35-.01.17v14.99l.01-.17v.34l.05.35.11.33.17.31.2.27.25.24.29.2.31.15.34.1.34.04z" style="stroke-width:0.53;fill:#FFFFFF;fill-opacity:0.50"/><text x="347.64" y="211.81" lengthAdjust="spacingAndGlyphs" style="font-size:5.69px;font-family:&quot;Liberation Sans&quot;" text-anchor="middle" textLength="58.44">3362 N 22ND STREET</text><text x="347.64" y="220" lengthAdjust="spacingAndGlyphs" style="font-size:5.69px;font-family:&quot;Liberation Sans&quot;" text-anchor="middle" textLength="10.42">LLC</text><path d="M173.49 162.14h65.88-.08l.34-.02.34-.06.33-.13.3-.17.27-.22.23-.26.19-.3.13-.32.08-.33.03-.35h0v-14.99h0l-.03-.35-.08-.33-.13-.32-.19-.3-.23-.26-.27-.22-.3-.17-.33-.13-.34-.07-.26-.01h-65.88l.26.01-.34-.01-.35.04-.33.1-.32.15-.28.2-.25.24-.21.27-.16.31-.11.33-.06.35-.01.17v14.99l.01-.17v.34l.06.35.11.33.16.3.21.28.25.24.28.2.32.15.33.1.35.04z" style="stroke-width:0.53;fill:#FFFFFF;fill-opacity:0.50"/><text x="206.43" y="150.35" lengthAdjust="spacingAndGlyphs" style="font-size:5.69px;font-family:&quot;Liberation Sans&quot;" text-anchor="middle" textLength="63">1311 W ALBANY PLACE</text><text x="206.43" y="158.54" lengthAdjust="spacingAndGlyphs" style="font-size:5.69px;font-family:&quot;Liberation Sans&quot;" text-anchor="middle" textLength="10.42">LLC</text><path d="M53.73 231.11h49.96l-.09-.01.35-.01.34-.07.33-.12.3-.18.27-.22.23-.26.18-.29.14-.32.08-.34.03-.34h0v-14.99h0l-.03-.35-.08-.34-.14-.32-.18-.29-.23-.26-.27-.22-.3-.18-.33-.12-.34-.07-.26-.01H53.73l.26.01-.35-.01-.34.04-.34.1-.31.14-.29.2-.25.24-.2.28-.17.31-.11.33-.05.34-.01.18v14.99l.01-.18v.35l.05.34.11.33.17.31.2.28.25.24.29.2.31.15.34.09.34.04z" style="stroke-width:0.53;fill:#FFFFFF;fill-opacity:0.50"/><text x="78.71" y="219.31" lengthAdjust="spacingAndGlyphs" style="font-size:5.69px;font-family:&quot;Liberation Sans&quot;" text-anchor="middle" textLength="47.08">623 W BURLEIGH</text><text x="78.71" y="227.51" lengthAdjust="spacingAndGlyphs" style="font-size:5.69px;font-family:&quot;Liberation Sans&quot;" text-anchor="middle" textLength="34.33">STREET LLC</text><path d="M65.39 319.04h63.85-.09l.35-.01.34-.07.32-.13.3-.17.27-.22.23-.26.19-.29.14-.32.08-.34.03-.35h0v-14.99h0l-.03-.35-.08-.33-.14-.32-.19-.3-.23-.26-.27-.22-.3-.17-.32-.12-.34-.07-.26-.02H65.39l.26.02-.35-.02-.34.04-.34.1-.31.15-.29.2-.25.24-.21.28-.16.3-.11.33-.05.35-.01.17v14.99l.01-.17v.35l.05.34.11.33.16.31.21.27.25.25.29.19.31.15.34.1.34.04z" style="stroke-width:0.53;fill:#FFFFFF;fill-opacity:0.50"/><text x="97.31" y="307.25" lengthAdjust="spacingAndGlyphs" style="font-size:5.69px;font-family:&quot;Liberation Sans&quot;" text-anchor="middle" textLength="59.61">7311 W BURLEIGH ST,</text><text x="97.31" y="315.44" lengthAdjust="spacingAndGlyphs" style="font-size:5.69px;font-family:&quot;Liberation Sans&quot;" text-anchor="middle" textLength="60.97">MILWAUKEE, WI 53210</text><path d="M300.21 467.73h61.87-.09l.35-.01.34-.07.32-.13.3-.17.27-.22.23-.26.19-.29.13-.32.09-.34.03-.35h0v-14.99h0l-.03-.35-.09-.33-.13-.32-.19-.3-.23-.26-.27-.22-.3-.17-.32-.12-.34-.07-.26-.02h-61.87l.26.02-.35-.02-.34.05-.33.09-.32.15-.28.2-.26.24-.2.28-.17.3-.11.33-.05.35-.01.17v14.99l.01-.17v.35l.05.34.11.33.17.31.2.27.26.25.28.19.32.15.33.1.34.04z" style="stroke-width:0.53;fill:#FFFFFF;fill-opacity:0.50"/><text x="331.14" y="455.94" lengthAdjust="spacingAndGlyphs" style="font-size:5.69px;font-family:&quot;Liberation Sans&quot;" text-anchor="middle" textLength="58.98">59 EMERALD, IRVINE,</text><text x="331.14" y="464.13" lengthAdjust="spacingAndGlyphs" style="font-size:5.69px;font-family:&quot;Liberation Sans&quot;" text-anchor="middle" textLength="24.95">CA 92614</text><path d="M199.61 250.95h63.85-.09l.35-.02.34-.07.33-.12.3-.17.27-.22.23-.26.18-.3.14-.32.08-.34.03-.34h0V233.8h0l-.03-.35-.08-.34-.14-.32-.18-.29-.23-.26-.27-.22-.3-.17-.33-.13-.34-.07-.26-.01h-63.85l.26.01-.34-.01-.35.04-.33.1-.32.15-.28.19-.25.24-.21.28-.16.31-.11.33-.06.34-.01.18v14.99l.01-.18v.35l.06.34.11.33.16.31.21.28.25.24.28.2.32.15.33.09.35.05z" style="stroke-width:0.53;fill:#FFFFFF;fill-opacity:0.50"/><text x="231.54" y="239.15" lengthAdjust="spacingAndGlyphs" style="font-size:5.69px;font-family:&quot;Liberation Sans&quot;" text-anchor="middle" textLength="59.61">7311 W BURLEIGH ST,</text><text x="231.54" y="247.35" lengthAdjust="spacingAndGlyphs" style="font-size:5.69px;font-family:&quot;Liberation Sans&quot;" text-anchor="middle" textLength="60.97">MILWAUKEE, WI 53210</text></g><g clip-path="url(#cpMC4wMHw0MzIuMDB8MC4wMHw1MDQuMDA=)"><circle cx="120.83" cy="97.06" r="1.95" style="stroke-width:0.71;stroke:none;fill:#F8766D"/><path d="m197.23 94.02 2.63 4.56h-5.26z" style="stroke-width:0.71;stroke:none;fill:#00BA38"/><path d="M263.23 99.01h3.91V95.1h-3.91z" style="stroke-width:0.71;stroke:none;fill:#619CFF"/><text x="134.95" y="100.22" lengthAdjust="spacingAndGlyphs" style="font-size:8.80px;font-weight:0;font-family:&quot;Nimbus Sans Narrow&quot;" textLength="48.16">mprop address</text><text x="211.35" y="100.22" lengthAdjust="spacingAndGlyphs" style="font-size:8.80px;font-weight:0;font-family:&quot;Nimbus Sans Narrow&quot;" textLength="39.72">owner name</text><text x="279.31" y="100.22" lengthAdjust="spacingAndGlyphs" style="font-size:8.80px;font-weight:0;font-family:&quot;Nimbus Sans Narrow&quot;" textLength="40.5">wdfi address</text><text x="29.89" y="65.35" lengthAdjust="spacingAndGlyphs" style="font-size:12.00px;font-weight:0;font-family:&quot;Nimbus Sans Narrow&quot;" textLength="241.17">includes 5 parcels, 8 units, and 4 distinct owner names.</text><text x="29.89" y="42.81" lengthAdjust="spacingAndGlyphs" style="font-size:18.00px;font-weight:0;font-family:&quot;Nimbus Sans Narrow&quot;" textLength="181.22">CASEY ZHANG etc Group</text></g></g></svg>