<svg xmlns="http://www.w3.org/2000/svg" width="384" height="480" class="svglite" viewBox="0 0 288 360"><defs><style><![CDATA[.svglite line,.svglite polyline,.svglite polygon,.svglite path,.svglite circle{fill:none;stroke:#000000;stroke-linecap:round;stroke-linejoin:round;stroke-miterlimit:10.00}.svglite text{white-space:pre}]]></style></defs><rect width="100%" height="100%" style="stroke-linecap:round;stroke-linejoin:round;stroke-miterlimit:10.00;stroke:none;fill:#FFFFFF"/><defs><clipPath id="cpMC4wMHwyODguMDB8MC4wMHwzNjAuMDA="><path d="M0 0h288v360H0z"/></clipPath></defs><g clip-path="url(#cpMC4wMHwyODguMDB8MC4wMHwzNjAuMDA=)"><path d="M0 0h288v360H0z" style="stroke-width:1.07;stroke:none;fill:#FFFFFF"/></g><defs><clipPath id="cpMzIuNjN8MjU4LjExfDE1OS43NHwzMjcuMzc="><path d="M32.63 159.74h225.48v167.63H32.63z"/></clipPath></defs><g clip-path="url(#cpMzIuNjN8MjU4LjExfDE1OS43NHwzMjcuMzc=)"><path d="m247.86 273.14-1.1-.59-1.11-.57-1.11-.57-1.11-.56-1.11-.56-1.12-.54-1.11-.54-1.12-.53-1.13-.52-1.12-.51-1.13-.51-1.13-.49-1.13-.49-1.14-.49-1.14-.47-1.14-.47-1.14-.46-1.14-.45-1.15-.44-1.15-.43-1.15-.43-1.16-.42-1.15-.41-1.16-.4-1.16-.4-1.17-.39-1.16-.38-1.17-.37-1.17-.36-1.18-.36-1.17-.35-1.18-.34-1.18-.33-1.19-.33-1.18-.31-1.19-.31-1.19-.3-1.2-.3-1.19-.28-1.2-.28-1.2-.27-1.2-.26-1.21-.26-1.21-.24-1.21-.24-1.21-.23-1.21-.22-1.22-.22-1.22-.21-1.22-.2-1.23-.19-1.22-.18-1.23-.18-1.24-.16-1.23-.16-1.24-.16-1.24-.14-1.24-.14-1.24-.12-1.25-.13-1.25-.11-1.25-.1-1.25-.1-1.26-.09-1.26-.08-1.26-.07-1.26-.07-1.27-.06-1.26-.05-1.28-.04-1.27-.03-1.27-.03-1.28-.02-1.28-.01h-2.57l-1.29.02-1.29.02-1.29.03-1.3.03-1.29.05-1.3.05-1.3.06-1.31.07-1.31.07-1.31.09-1.31.09-1.31.1-1.32.1-1.32.12-1.32.12-1.32.13-1.33.14-1.33.15-1.33.15-1.33.16-1.34.17-1.34.18-1.34.19" style="stroke-width:1.07;stroke:#000000;stroke-opacity:0.10;stroke-linecap:butt"/><path d="m247.86 273.14-1.13-.48-1.14-.47-1.14-.46-1.15-.46-1.14-.45-1.15-.44-1.15-.45-1.15-.43-1.15-.43-1.15-.42-1.15-.42-1.16-.41-1.16-.41-1.16-.4-1.16-.4-1.16-.39-1.17-.38-1.17-.38-1.17-.37-1.17-.37-1.17-.36-1.17-.36-1.18-.35-1.17-.34-1.18-.34-1.18-.34-1.19-.33-1.18-.32-1.19-.32-1.18-.31-1.19-.3-1.19-.3-1.2-.3-1.19-.29-1.2-.28-1.2-.28-1.2-.27-1.2-.27-1.2-.26-1.21-.25-1.2-.25-1.21-.25-1.21-.23-1.21-.24-1.22-.22-1.21-.23-1.22-.21-1.22-.21-1.22-.21-1.22-.2-1.22-.19-1.23-.19-1.23-.18-1.23-.18-1.23-.17-1.23-.16-1.23-.16-1.24-.16-1.24-.15-1.24-.14-1.24-.14-1.24-.13-1.25-.12-1.24-.13-1.25-.11-1.25-.11-1.25-.1-1.26-.1-1.25-.09-1.26-.09-1.26-.08-1.26-.08-1.26-.07-1.26-.06-1.27-.06-1.26-.06-1.27-.04-1.27-.05-1.28-.03-1.27-.03-1.28-.03-1.27-.02-1.28-.01-1.28-.01h-2.57l-1.29.01-1.29.01-1.29.02-1.29.03-1.29.03-1.3.03-1.29.05-1.3.04-1.3.06-1.3.06-1.31.06-1.3.07-1.31.08" style="stroke-width:1.07;stroke:#000000;stroke-opacity:0.10;stroke-linecap:butt"/><path d="m247.86 273.14-1.17-.37-1.17-.36-1.17-.36-1.18-.35-1.17-.35-1.18-.35-1.18-.34-1.18-.34-1.18-.34-1.18-.33-1.18-.33-1.18-.33-1.19-.33-1.18-.32-1.19-.31-1.18-.32-1.19-.31-1.19-.3-1.19-.31-1.19-.3-1.19-.29-1.2-.3-1.19-.29-1.2-.28-1.19-.29-1.2-.28-1.2-.27-1.2-.28-1.2-.27-1.2-.26-1.2-.27-1.21-.26-1.2-.25-1.21-.26-1.2-.25-1.21-.24-1.21-.25-1.21-.23-1.21-.24-1.21-.23-1.21-.23-1.22-.23-1.21-.22-1.22-.22-1.22-.22-1.21-.21-1.22-.21-1.22-.21-1.23-.2-1.22-.2-1.22-.19-1.22-.2-1.23-.18-1.23-.19-1.22-.18-1.23-.18-1.23-.18-1.23-.17-1.23-.17-1.24-.16-1.23-.17-1.24-.15-1.23-.16-1.24-.15-1.24-.15-1.23-.15-1.24-.14-1.24-.14-1.25-.13-1.24-.13-1.24-.13-1.25-.13-1.24-.12-1.25-.12-1.25-.11-1.25-.11-1.25-.11-1.25-.11-1.25-.1-1.26-.1-1.25-.09-1.26-.09-1.25-.09-1.26-.09-1.26-.08-1.26-.08-1.26-.07-1.26-.07-1.26-.07-1.27-.06-1.26-.06-1.27-.06-1.26-.06-1.27-.05-1.27-.05-1.27-.04-1.27-.04-1.27-.04-1.28-.03m-37.01-86.06.08.94.08.93.09.94.1.93.1.93.11.93.11.93.12.93.13.92.13.93.14.92.14.92.15.92.16.92.16.92.17.91.18.92.18.91.18.91.2.91.19.91.21.91.21.9.22.91.22.9.23.91.23.9.25.9.24.89.26.9.25.9.27.89.27.89.28.89.28.89.29.89.3.89.3.88.31.89.31.88.32.88.32.88.34.88.33.88.35.88.35.87.35.87.36.88.37.87.38.87.38.86.38.87.39.87.4.86.41.86.41.86.41.86.42.86.43.86.44.85.44.86.44.85.46.85.45.85.47.85.47.85.48.84.48.85.49.84.49.84.5.84.51.84.51.84.52.84.53.83.53.83.53.84.55.83.55.83.55.82.56.83.57.83.57.82.58.82.59.82.59.82.59.82.61.82.61.82.61.81.62.81.63.81.63.81.64.81.65.81.65.81.66.8.66.8.67.81" style="stroke-width:1.07;stroke:#000000;stroke-opacity:0.10;stroke-linecap:butt"/><path d="m89.85 167.36.22.91.23.9.23.9.24.9.24.9.24.9.24.9.25.9.25.89.25.9.26.9.26.89.26.9.27.89.26.89.28.9.27.89.28.89.28.89.28.89.29.89.29.89.29.88.29.89.3.89.3.88.31.89.31.88.31.89.31.88.32.88.32.88.32.88.32.88.33.88.33.88.34.88.34.88.34.88.34.87.35.88.35.87.35.88.36.87.35.87.37.87.36.88.37.87.37.87.37.87.38.86.38.87.38.87.39.87.39.86.39.87.4.86.39.86.4.87.41.86.41.86.41.86.41.86.42.86.41.86.43.86.42.86.43.85.43.86.44.86.43.85.44.85.45.86.44.85.45.85.45.85.46.86.46.85.46.84.46.85.47.85.47.85.48.84.47.85.48.85.48.84.49.84.49.85.49.84.49.84.5.84.5.84.51.84.5.84.51.84.52.84.51.84.52.83.52.84" style="stroke-width:1.07;stroke:#000000;stroke-opacity:0.10;stroke-linecap:butt"/><path d="m42.88 319.75.85-.67.84-.67.85-.67.85-.67.85-.67.85-.67.85-.67.84-.67.85-.67.85-.67.85-.67.85-.67.85-.67.84-.67.85-.67.85-.67.85-.67.85-.67.85-.67.84-.67.85-.67.85-.67.85-.67.85-.67.85-.67.84-.67.85-.67.85-.67.85-.67.85-.67.85-.67.84-.67.85-.67.85-.67.85-.67.85-.67.85-.67.84-.67.85-.67.85-.67.85-.67.85-.67.85-.67.84-.67.85-.67.85-.67.85-.67.85-.67.85-.67.84-.67.85-.67.85-.67.85-.67.85-.67.85-.67.84-.67.85-.67.85-.67.85-.67.85-.67.85-.67.84-.67.85-.67.85-.67.85-.67.85-.67.85-.67.84-.67.85-.67.85-.67.85-.67.85-.67.85-.67.84-.67.85-.67.85-.67.85-.67.85-.67.85-.67.84-.67.85-.67.85-.67.85-.67.85-.67.85-.67.84-.67.85-.67.85-.67.85-.67.85-.67.85-.67.84-.67.85-.67.85-.67.85-.67.85-.67.85-.67.84-.67.85-.67m121 19.72-1.2-.26-1.21-.25-1.2-.25-1.21-.25-1.21-.25-1.2-.25-1.21-.25-1.21-.25-1.21-.24-1.21-.25-1.2-.24-1.21-.24-1.21-.24-1.21-.24-1.21-.24-1.21-.24-1.21-.23-1.22-.24-1.21-.23-1.21-.23-1.21-.24-1.21-.23-1.22-.23-1.21-.22-1.21-.23-1.22-.23-1.21-.22-1.22-.23-1.21-.22-1.22-.22-1.21-.22-1.22-.22-1.21-.22-1.22-.22-1.22-.21-1.22-.22-1.21-.21-1.22-.21-1.22-.22-1.22-.21-1.22-.2-1.22-.21-1.22-.21-1.22-.21-1.22-.2-1.22-.2-1.22-.21-1.22-.2-1.22-.2-1.22-.2-1.23-.2-1.22-.19-1.22-.2-1.23-.19-1.22-.2-1.23-.19-1.22-.19-1.23-.19-1.22-.19-1.23-.19-1.22-.18-1.23-.19-1.23-.19-1.22-.18-1.23-.18-1.23-.18-1.23-.18-1.22-.18-1.23-.18-1.23-.18-1.23-.17-1.23-.18-1.23-.17-1.23-.17-1.23-.17-1.23-.17-1.24-.17-1.23-.17-1.23-.17-1.23-.16-1.24-.17-1.23-.16-1.23-.16-1.24-.16-1.23-.16-1.24-.16-1.23-.16-1.24-.16-1.23-.15-1.24-.15-1.23-.16-1.24-.15-1.24-.15-1.24-.15-1.23-.15-1.24-.15-1.24-.14-1.24-.15-1.24-.14" style="stroke-width:1.07;stroke:#000000;stroke-opacity:0.10;stroke-linecap:butt"/><path d="m89.85 167.36.37.87.38.87.37.87.37.87.38.87.37.87.38.87.37.87.37.87.38.86.37.87.37.87.38.87.37.87.38.87.37.87.37.87.38.87.37.87.38.87.37.87.37.87.38.86.37.87.38.87.37.87.37.87.38.87.37.87.37.87.38.87.37.87.38.87.37.87.37.87.38.86.37.87.38.87.37.87.37.87.38.87.37.87.37.87.38.87.37.87.38.87.37.87.37.87.38.86.37.87.38.87.37.87.37.87.38.87.37.87.38.87.37.87.37.87.38.87.37.87.37.87.38.87.37.86.38.87.37.87.37.87.38.87.37.87.38.87.37.87.37.87.38.87.37.87.38.87.37.87.37.86.38.87.37.87.37.87.38.87.37.87.38.87.37.87.37.87.38.87.37.87.38.87.37.87.37.86.38.87.37.87.38.87.37.87.37.87.38.87.37.87.37.87.38.87.37.87" style="stroke-width:1.07;stroke:#000000;stroke-opacity:0.10;stroke-linecap:butt"/><path d="m89.85 167.36.52.84.52.83.51.84.52.84.51.84.5.84.51.84.5.84.5.84.49.84.49.84.49.84.49.85.48.84.48.85.47.84.48.85.47.85.47.85.46.84.46.85.46.85.46.85.45.86.45.85.44.85.45.85.44.86.43.85.44.86.43.86.43.85.42.86.43.86.41.86.42.86.41.86.41.86.41.86.41.86.4.86.39.87.4.86.39.87.39.86.39.87.38.87.38.87.38.86.37.87.37.87.37.87.36.88.37.87.35.87.36.87.35.88.35.87.35.88.34.87.34.88.34.88.34.88.33.87.33.88.32.88.32.89.32.88.32.88.31.88.31.89.31.88.31.89.3.88.3.89.29.88.29.89.29.89.29.89.28.89.28.89.28.89.27.89.28.9.26.89.27.89.26.9.26.89.26.9.25.9.25.89.25.9.24.9.24.9.24.9.24.9.23.9.23.9.22.91m121 19.72-1.24-.15-1.24-.14-1.23-.15-1.24-.15-1.24-.15-1.24-.15-1.23-.15-1.24-.15-1.24-.15-1.23-.16-1.24-.15-1.23-.16-1.24-.16-1.23-.16-1.24-.16-1.23-.16-1.24-.16-1.23-.16-1.23-.17-1.23-.16-1.24-.17-1.23-.17-1.23-.16-1.23-.17-1.23-.18-1.23-.17-1.23-.17-1.23-.18-1.23-.17-1.23-.18-1.23-.18-1.23-.18-1.23-.18-1.23-.18-1.22-.18-1.23-.18-1.23-.19-1.22-.18-1.23-.19-1.22-.19-1.23-.19-1.22-.19-1.23-.19-1.22-.19-1.23-.19-1.22-.2-1.22-.19-1.23-.2-1.22-.2-1.22-.2-1.22-.2-1.23-.2-1.22-.2-1.22-.21-1.22-.2-1.22-.21-1.22-.2-1.22-.21-1.22-.21-1.22-.21-1.21-.21-1.22-.22-1.22-.21-1.22-.22-1.21-.21-1.22-.22-1.22-.22-1.21-.22-1.22-.22-1.21-.22-1.22-.22-1.21-.22-1.22-.23-1.21-.23-1.22-.22-1.21-.23-1.21-.23-1.21-.23-1.22-.23-1.21-.24-1.21-.23-1.21-.23-1.21-.24-1.21-.24-1.21-.24-1.21-.24-1.21-.24-1.21-.24-1.21-.24-1.21-.25-1.21-.24-1.2-.25-1.21-.24-1.21-.25-1.2-.25-1.21-.25-1.21-.26-1.2-.25-1.21-.25" style="stroke-width:1.07;stroke:#000000;stroke-opacity:0.10;stroke-linecap:butt"/><path d="m247.86 273.14-1.27-.04-1.27-.04-1.27-.04-1.27-.04-1.27-.05-1.27-.05-1.27-.05-1.26-.06-1.27-.06-1.26-.07-1.26-.07-1.27-.07-1.26-.07-1.26-.08-1.25-.08-1.26-.09-1.26-.08-1.25-.1-1.26-.09-1.25-.1-1.25-.1-1.26-.1-1.25-.11-1.24-.11-1.25-.12-1.25-.12-1.25-.12-1.24-.13-1.24-.12-1.25-.14-1.24-.13-1.24-.14-1.24-.14-1.24-.15-1.24-.15-1.23-.15-1.24-.15-1.23-.16-1.24-.16-1.23-.17-1.23-.17-1.23-.17-1.23-.18-1.23-.17-1.23-.19-1.22-.18-1.23-.19-1.22-.19-1.23-.2-1.22-.2-1.22-.2-1.22-.21-1.22-.21-1.22-.21-1.22-.22-1.21-.22-1.22-.22-1.21-.22-1.21-.23-1.21-.24-1.22-.23-1.21-.24-1.2-.25-1.21-.24-1.21-.25-1.2-.25-1.21-.26-1.2-.26-1.2-.26-1.21-.27-1.2-.27-1.2-.27-1.19-.28-1.2-.28-1.2-.28-1.19-.29-1.2-.29-1.19-.29-1.19-.3-1.19-.3-1.19-.3-1.19-.31-1.19-.31-1.19-.31-1.18-.32-1.19-.32-1.18-.33-1.19-.32-1.18-.33-1.18-.34-1.18-.33-1.18-.34-1.17-.35-1.18-.35-1.18-.35-1.17-.35-1.17-.36-1.18-.36-1.17-.36" style="stroke-width:1.07;stroke:#000000;stroke-opacity:0.10;stroke-linecap:butt"/><path d="m247.86 273.14-1.3.07-1.31.07-1.3.07-1.3.05-1.3.06-1.3.05-1.3.04-1.29.03-1.3.04-1.29.02-1.29.02-1.29.01-1.28.01-1.29.01-1.28-.01-1.28-.01-1.28-.01-1.28-.02-1.27-.02-1.28-.04-1.27-.03-1.27-.04-1.27-.05-1.27-.06-1.26-.05-1.27-.07-1.26-.07-1.26-.07-1.26-.09-1.25-.08-1.26-.1-1.25-.09-1.25-.11-1.25-.11-1.25-.11-1.25-.12-1.24-.13-1.25-.13-1.24-.14-1.24-.14-1.23-.15-1.24-.15-1.23-.16-1.24-.17-1.23-.17-1.23-.18-1.23-.18-1.22-.19-1.22-.19-1.23-.2-1.22-.21-1.22-.21-1.21-.21-1.22-.22-1.21-.23-1.21-.23-1.21-.24-1.21-.25-1.21-.25-1.2-.25-1.21-.26-1.2-.27-1.2-.27-1.2-.28-1.19-.28-1.2-.29-1.19-.29-1.19-.3-1.19-.31-1.19-.31-1.18-.32-1.19-.32-1.18-.33-1.18-.33-1.18-.34-1.18-.35-1.17-.35-1.18-.36-1.17-.36-1.17-.36-1.17-.38-1.16-.38-1.17-.38-1.16-.39-1.17-.4-1.16-.4-1.15-.4-1.16-.42-1.15-.41-1.16-.43-1.15-.43-1.15-.43-1.15-.44-1.14-.45-1.15-.45-1.14-.46-1.14-.46-1.14-.47-1.14-.47" style="stroke-width:1.07;stroke:#000000;stroke-opacity:0.10;stroke-linecap:butt"/><path d="m247.86 273.14-1.34.18-1.34.18-1.33.17-1.34.16-1.33.16-1.33.14-1.32.14-1.33.13-1.32.12-1.32.12-1.31.11-1.32.1-1.31.09-1.31.08-1.31.08-1.3.06-1.3.06-1.3.06-1.3.04-1.29.04-1.3.03-1.29.02-1.28.01h-2.57l-1.28-.01-1.28-.02-1.28-.02-1.27-.04-1.27-.04-1.27-.05-1.26-.06-1.27-.06-1.26-.08-1.26-.08-1.25-.09-1.26-.09-1.25-.11-1.25-.11-1.24-.12-1.25-.13-1.24-.14-1.24-.14-1.23-.15-1.24-.16-1.23-.17-1.23-.18-1.23-.18-1.22-.19-1.22-.2-1.22-.21-1.22-.21-1.22-.23-1.21-.23-1.21-.23-1.21-.25-1.2-.26-1.2-.26-1.21-.27-1.19-.27-1.2-.29-1.19-.29-1.19-.31-1.19-.3-1.19-.32-1.18-.33-1.18-.33-1.18-.34-1.18-.35-1.17-.35-1.17-.37-1.17-.37-1.17-.38-1.16-.39-1.16-.39-1.16-.41-1.16-.41-1.15-.42-1.16-.42-1.15-.44-1.14-.44-1.15-.45-1.14-.46-1.14-.47-1.14-.47-1.13-.48-1.13-.49-1.13-.5-1.13-.51-1.13-.51-1.12-.52-1.12-.53-1.12-.54-1.12-.54-1.11-.55-1.11-.56-1.11-.57-1.1-.58-1.11-.58m-37.01-86.06.67.8.66.81.66.8.65.81.65.81.64.8.63.81.63.82.62.81.61.81.61.82.61.82.59.81.59.82.59.83.58.82.57.82.57.83.56.82.56.83.54.83.55.83.53.83.53.84.53.83.52.84.51.84.51.84.5.84.49.84.49.84.48.85.48.84.47.85.47.85.45.85.46.85.44.85.44.86.44.85.43.86.42.86.41.86.41.86.41.86.4.86.39.87.38.87.38.86.38.87.37.87.36.87.35.88.35.87.35.88.33.88.34.88.32.88.32.88.31.88.31.88.3.89.3.89.29.89.28.89.28.89.27.89.27.89.25.9.26.9.25.89.24.9.23.9.23.91.22.9.22.9.21.91.21.91.19.91.2.91.18.91.18.91.18.92.17.91.16.92.16.92.15.92.14.92.14.92.13.93.13.92.12.93.11.93.11.93.1.93.1.93.09.94.08.93.08.94" style="stroke-width:1.07;stroke:#000000;stroke-opacity:0.10;stroke-linecap:butt"/><path d="m247.86 264.84 7.19 12.44h-14.37zM89.85 160.55l5.9 10.22h-11.8zM42.88 317.54l1.91 3.32h-3.83z" style="stroke-width:0.71;stroke:none;fill:#00BFC4"/><circle cx="126.86" cy="253.42" r="6.76" style="stroke-width:0.71;stroke:none;fill:#F8766D"/><path d="m95.45 171.92-4.7-3.82M48.82 315.2l-5.01 3.84M120.99 258l4.95-3.86" style="stroke-width:0.53;stroke:#BFBFBF"/><path d="M187.67 278.81h53.09-.08l.34-.02.34-.07.33-.12.3-.17.27-.22.23-.26.19-.3.13-.32.09-.33.02-.35h0v-7.03h0l-.02-.34-.09-.34-.13-.32-.19-.3-.23-.26-.27-.22-.3-.17-.33-.12-.34-.07-.26-.02h-53.09l.26.02-.35-.02-.34.05-.33.09-.32.15-.29.2-.25.24-.2.28-.17.31-.11.33-.05.34-.01.17v7.03l.01-.17v.34l.05.35.11.33.17.3.2.28.25.24.29.2.32.15.33.1.34.04z" style="stroke-width:0.53;fill:#FFFFFF;fill-opacity:0.50"/><text x="214.22" y="275.21" lengthAdjust="spacingAndGlyphs" style="font-size:5.69px;font-family:&quot;Liberation Sans&quot;" text-anchor="middle" textLength="50.21">CHARLES L DAVIS</text><path d="M79.56 183.27h48.12-.09l.35-.01.34-.07.32-.13.3-.17.27-.22.23-.26.19-.29.14-.32.08-.34.03-.35h0v-7.03h0l-.03-.34-.08-.34-.14-.32-.19-.29-.23-.26-.27-.22-.3-.18-.32-.12-.34-.07-.26-.02H79.56l.26.02-.35-.01-.34.04-.34.1-.31.14-.29.2-.25.24-.21.28-.16.31-.11.33-.05.34-.01.17v7.03l.01-.17v.35l.05.34.11.33.16.31.21.27.25.25.29.19.31.15.34.1.34.04z" style="stroke-width:0.53;fill:#FFFFFF;fill-opacity:0.50"/><text x="103.62" y="179.67" lengthAdjust="spacingAndGlyphs" style="font-size:5.69px;font-family:&quot;Liberation Sans&quot;" text-anchor="middle" textLength="45.24">CHARLES DAVIS</text><path d="M38.39 315.2h58.63-.08l.34-.01.35-.07.32-.12.3-.18.27-.22.23-.26.19-.29.13-.32.09-.34.02-.35h0v-15.22h0l-.02-.34-.09-.34-.13-.32-.19-.3-.23-.26-.27-.22-.3-.17-.32-.12-.35-.07-.26-.02H38.39l.26.02-.35-.02-.34.05-.34.09-.31.15-.29.2-.25.24-.21.28-.16.31-.11.33-.06.34v15.39-.17.35l.06.34.11.33.16.31.21.28.25.24.29.19.31.15.34.1.34.04z" style="stroke-width:0.53;fill:#FFFFFF;fill-opacity:0.50"/><text x="67.71" y="303.41" lengthAdjust="spacingAndGlyphs" style="font-size:5.69px;font-family:&quot;Liberation Sans&quot;" text-anchor="middle" textLength="55.76">CHARLES LENNARD</text><text x="67.71" y="311.6" lengthAdjust="spacingAndGlyphs" style="font-size:5.69px;font-family:&quot;Liberation Sans&quot;" text-anchor="middle" textLength="16.97">DAVIS</text><path d="M78.56 277.54h57.99-.08l.34-.01.34-.07.33-.13.3-.17.27-.22.23-.26.19-.29.13-.32.08-.34.03-.35h0v-15.22h0l-.03-.35-.08-.33-.13-.32-.19-.3-.23-.26-.27-.22-.3-.17-.33-.12-.34-.07-.26-.02H78.56l.26.02-.35-.02-.35.04-.33.1-.31.15-.29.2-.25.24-.21.28-.16.3-.11.33-.06.35v15.39-.17.35l.06.34.11.33.16.31.21.27.25.25.29.19.31.15.33.1.35.04z" style="stroke-width:0.53;fill:#FFFFFF;fill-opacity:0.50"/><text x="107.55" y="265.75" lengthAdjust="spacingAndGlyphs" style="font-size:5.69px;font-family:&quot;Liberation Sans&quot;" text-anchor="middle" textLength="55.12">553 SISKIN PL, SIMI</text><text x="107.55" y="273.94" lengthAdjust="spacingAndGlyphs" style="font-size:5.69px;font-family:&quot;Liberation Sans&quot;" text-anchor="middle" textLength="52.21">VALLEY, CA 93065</text></g><g clip-path="url(#cpMC4wMHwyODguMDB8MC4wMHwzNjAuMDA=)"><circle cx="84.61" cy="134.66" r="1.95" style="stroke-width:0.71;stroke:none;fill:#F8766D"/><path d="m160.96 131.62 2.63 4.56h-5.26z" style="stroke-width:0.71;stroke:none;fill:#00BFC4"/><text x="98.72" y="137.69" lengthAdjust="spacingAndGlyphs" style="font-size:8.80px;font-family:&quot;Liberation Sans Narrow&quot;" textLength="48.12">mprop address</text><text x="175.08" y="137.69" lengthAdjust="spacingAndGlyphs" style="font-size:8.80px;font-family:&quot;Liberation Sans Narrow&quot;" textLength="39.69">owner name</text><text x="32.63" y="103.11" lengthAdjust="spacingAndGlyphs" style="font-size:12.00px;font-family:&quot;Liberation Sans Narrow&quot;" textLength="252.23">includes 14 parcels, 27 units, and 3 distinct owner names.</text><text x="32.63" y="42.27" lengthAdjust="spacingAndGlyphs" style="font-size:18.00px;font-weight:bold;font-family:&quot;Liberation Sans Narrow&quot;" textLength="221.67">CHARLES L DAVIS -- CHARLES</text><text x="32.63" y="61.71" lengthAdjust="spacingAndGlyphs" style="font-size:18.00px;font-weight:bold;font-family:&quot;Liberation Sans Narrow&quot;" textLength="209.61">DAVIS -- CHARLES LENNARD</text><text x="32.63" y="81.15" lengthAdjust="spacingAndGlyphs" style="font-size:18.00px;font-weight:bold;font-family:&quot;Liberation Sans Narrow&quot;" textLength="92.39">DAVIS Group</text></g></svg>