<svg xmlns="http://www.w3.org/2000/svg" width="576" height="672" viewBox="0 0 432 504"><g class="svglite"><defs><style><![CDATA[.svglite line,.svglite polyline,.svglite polygon,.svglite path,.svglite circle{fill:none;stroke:#000000;stroke-linecap:round;stroke-linejoin:round;stroke-miterlimit:10.00}.svglite text{white-space:pre}.svglite g.glyphgroup path{fill:inherit;stroke:none}]]></style></defs><rect width="100%" height="100%" style="stroke-linecap:round;stroke-linejoin:round;stroke-miterlimit:10.00;stroke:none;fill:#FFFFFF"/><defs><clipPath id="cpMC4wMHw0MzIuMDB8MC4wMHw1MDQuMDA="><path d="M0 0h432v504H0z"/></clipPath></defs><g clip-path="url(#cpMC4wMHw0MzIuMDB8MC4wMHw1MDQuMDA=)"><path d="M0 0h432v504H0z" style="stroke-width:1.07;stroke:none;fill:#FFFFFF"/></g><defs><clipPath id="cpMjkuODl8NDAyLjExfDEyMi4xNHw0NzQuMTE="><path d="M29.89 122.14h372.22v351.97H29.89z"/></clipPath></defs><g clip-path="url(#cpMjkuODl8NDAyLjExfDEyMi4xNHw0NzQuMTE=)"><path d="M242.99 305.57h-3.97l-1.98-.01h-7.92l-1.98-.01h-7.93l-1.98-.01h-7.93l-1.98-.01h-7.93l-1.98-.01h-5.94l-1.99-.01h-7.92l-1.98-.01h-7.93l-1.98-.01h-7.93l-1.98-.01h-5.94l-1.99-.01h-7.92l-1.98-.01H134l-1.98-.01h-7.93l-1.98-.01h-5.95l-1.98-.01h-7.92l-1.99-.01h-7.92l-1.98-.01h-7.93l-1.98-.01h-7.93l-1.98-.01h-5.94l-1.99-.01H58.7l-1.98-.01h-7.93l-1.98-.01M334.94 197.3l.69-.49.68-.5.68-.49.67-.5.68-.51.66-.5.67-.51.66-.51.66-.51.65-.51.65-.51.65-.52.64-.52.64-.52.63-.53.64-.52.62-.53.63-.53.62-.53.62-.53.61-.54.61-.54.61-.54.6-.54.6-.55.59-.54.59-.55.59-.55.59-.56.58-.55.57-.56.58-.56.57-.56.56-.56.56-.57.56-.57.56-.57.55-.57.55-.57.54-.58.54-.58.54-.58.53-.58.53-.59.53-.58.52-.59.52-.6.51-.59.51-.59.51-.6.51-.6.5-.6.49-.61.5-.6.49-.61.48-.61.48-.61.48-.62.48-.62.47-.61.46-.63.47-.62.46-.62.45-.63.46-.63.45-.63.44-.64.44-.63.44-.64.44-.64.43-.64.43-.65.42-.64.42-.65.42-.65.41-.65.41-.66.4-.66.4-.66.4-.66.4-.66.39-.67.38-.66.39-.67.38-.68.37-.67.38-.68.37-.67.36-.68.36-.69.36-.68.35-.69.36-.69.34-.69.35-.69.34-.7.33-.69.33-.7.33-.7" style="stroke-width:1.07;stroke:#000000;stroke-opacity:0.10;stroke-linecap:butt"/><path d="m242.99 305.57 1.43-1.69 1.44-1.69 1.44-1.69 1.43-1.69 1.44-1.7 1.44-1.69 1.43-1.69 1.44-1.69 1.44-1.69 1.43-1.69 1.44-1.69 1.44-1.69 1.43-1.7 1.44-1.69 1.43-1.69 1.44-1.69 1.44-1.69 1.43-1.69 1.44-1.69 1.44-1.69 1.43-1.7 1.44-1.69 1.44-1.69 1.43-1.69 1.44-1.69 1.43-1.69 1.44-1.69 1.44-1.69 1.43-1.7 1.44-1.69 1.44-1.69 1.43-1.69 1.44-1.69 1.44-1.69 1.43-1.69 1.44-1.69 1.44-1.7 1.43-1.69 1.44-1.69 1.43-1.69 1.44-1.69 1.44-1.69 1.43-1.69 1.44-1.69 1.44-1.7 1.43-1.69 1.44-1.69 1.44-1.69 1.43-1.69 1.44-1.69 1.44-1.69 1.43-1.69 1.44-1.7 1.43-1.69 1.44-1.69 1.44-1.69 1.43-1.69 1.44-1.69 1.44-1.69 1.43-1.69 1.44-1.7 1.44-1.69 1.43-1.69 1.44-1.69 1.43-1.69 1.44-1.69 1.44-1.69 1.43-1.69 1.44-1.7 1.44-1.69 1.43-1.69 1.44-1.69 1.44-1.69 1.43-1.69 1.44-1.69 1.44-1.69 1.43-1.7 1.44-1.69 1.43-1.69 1.44-1.69 1.44-1.69 1.43-1.69 1.44-1.69 1.44-1.7 1.43-1.69 1.44-1.69 1.44-1.69 1.43-1.69 1.44-1.69 1.44-1.69 1.43-1.69 1.44-1.7 1.43-1.69 1.44-1.69 1.44-1.69 1.43-1.69 1.44-1.69 1.44-1.69 1.43-1.69" style="stroke-width:1.07;stroke:#000000;stroke-opacity:0.10;stroke-linecap:butt"/><path d="m334.94 197.3.33-.7.33-.7.34-.69.34-.7.34-.69.35-.69.35-.69.35-.69.36-.68.36-.69.37-.68.37-.67.37-.68.38-.67.38-.68.38-.67.39-.66.39-.67.39-.66.4-.66.4-.66.41-.66.41-.65.41-.66.41-.65.42-.65.43-.64.43-.65.43-.64.43-.64.44-.64.44-.63.45-.64.45-.63.45-.63.46-.63.46-.62.46-.62.47-.63.47-.61.47-.62.48-.62.48-.61.49-.61.49-.61.49-.6.5-.61.5-.6.5-.6.51-.6.51-.59.52-.59.51-.6.53-.59.52-.58.53-.59.53-.58.54-.58.54-.58.55-.58.54-.57.56-.57.55-.57.56-.57.56-.57.57-.56.57-.56.57-.56.58-.56.58-.55.58-.56.59-.55.59-.55.6-.54.6-.55.6-.54.6-.54.61-.54.62-.54.61-.53.63-.53.62-.53.63-.53.63-.52.63-.53.64-.52.65-.52.64-.52.65-.51.66-.51.65-.51.66-.51.67-.51.67-.5.67-.51.67-.5.68-.49.69-.5.68-.49m-142.2 167.43.67 1.54.68 1.54.67 1.54.68 1.54.67 1.55.68 1.54.67 1.54.68 1.54.67 1.54.68 1.54.67 1.54.68 1.54.67 1.54.67 1.54.68 1.54.67 1.54.68 1.55.67 1.54.68 1.54.67 1.54.68 1.54.67 1.54.68 1.54.67 1.54.68 1.54.67 1.54.68 1.54.67 1.54.68 1.55.67 1.54.68 1.54.67 1.54.68 1.54.67 1.54.67 1.54.68 1.54.67 1.54.68 1.54.67 1.54.68 1.54.67 1.55.68 1.54.67 1.54.68 1.54.67 1.54.68 1.54.67 1.54.68 1.54.67 1.54.68 1.54.67 1.54.68 1.54.67 1.55.68 1.54.67 1.54.67 1.54.68 1.54.67 1.54.68 1.54.67 1.54.68 1.54.67 1.54.68 1.54.67 1.54.68 1.55.67 1.54.68 1.54.67 1.54.68 1.54.67 1.54.68 1.54.67 1.54.68 1.54.67 1.54.68 1.54.67 1.54.67 1.54.68 1.55.67 1.54.68 1.54.67 1.54.68 1.54.67 1.54.68 1.54.67 1.54.68 1.54.67 1.54.68 1.54.67 1.54.68 1.55.67 1.54.68 1.54.67 1.54.68 1.54.67 1.54.68 1.54.67 1.54.67 1.54.68 1.54" style="stroke-width:1.07;stroke:#000000;stroke-opacity:0.10;stroke-linecap:butt"/><path d="m242.99 295.06 9.1 15.76h-18.2zm91.95-105.83 7 12.11h-13.99z" style="stroke-width:0.71;stroke:none;fill:#00BFC4"/><circle cx="46.81" cy="305.36" r="1.42" style="stroke-width:0.71;stroke:none;fill:#F8766D"/><circle cx="385.19" cy="138.14" r="6.76" style="stroke-width:0.71;stroke:none;fill:#F8766D"/><circle cx="309.79" cy="458.11" r="1.42" style="stroke-width:0.71;stroke:none;fill:#F8766D"/><path d="m238.49 310.25 3.76-3.91m97.19-113.71-3.76 3.91m44.79-58.39 3.66-.01m-69.54 315.29-4.04 3.94" style="stroke-width:0.53;stroke:#BFBFBF"/><path d="M207.51 321.36h49.25-.08l.35-.01.34-.07.32-.13.3-.17.27-.22.23-.26.19-.29.13-.32.09-.34.02-.35h0v-6.79h0l-.02-.35-.09-.34-.13-.32-.19-.29-.23-.26-.27-.22-.3-.18-.32-.12-.34-.07-.27-.01h-49.25l.26.01-.35-.01-.34.04-.34.1-.31.15-.29.19-.25.24-.21.28-.16.31-.11.33-.05.34-.01.18v6.79l.01-.17v.35l.05.34.11.33.16.31.21.28.25.24.29.19.31.15.34.1.34.04z" style="stroke-width:0.53;fill:#FFFFFF;fill-opacity:0.50"/><text x="232.14" y="317.76" lengthAdjust="spacingAndGlyphs" style="font-size:5.69px;font-family:&quot;Liberation Sans&quot;" text-anchor="middle" textLength="46.38">DAVID HERRERA</text><path d="M314.79 192.63h62-.09l.35-.02.34-.07.33-.12.3-.17.27-.22.23-.26.18-.3.14-.32.08-.34.03-.34h0v-6.8h0l-.03-.35-.08-.33-.14-.32-.18-.3-.23-.26-.27-.22-.3-.17-.33-.12-.34-.07-.26-.02h-62l.26.02-.35-.02-.35.04-.33.1-.31.15-.29.2-.25.24-.21.28-.16.3-.11.33-.06.35v6.97-.18.35l.06.35.11.32.16.31.21.28.25.24.29.2.31.15.33.09.35.05z" style="stroke-width:0.53;fill:#FFFFFF;fill-opacity:0.50"/><text x="345.79" y="189.03" lengthAdjust="spacingAndGlyphs" style="font-size:5.69px;font-family:&quot;Liberation Sans&quot;" text-anchor="middle" textLength="59.12">CLAUDIA B HERRERA</text><path d="M53.63 315.03h65.43-.09l.35-.02.34-.07.32-.12.3-.17.27-.22.23-.26.19-.3.13-.32.09-.33.03-.35h0v-14.99h0l-.03-.35-.09-.34-.13-.32-.19-.29-.23-.26-.27-.22-.3-.17-.32-.13-.34-.07-.26-.01H53.63l.26.01-.35-.01-.34.04-.34.1-.31.15-.29.2-.25.24-.21.27-.16.31-.11.33-.05.34-.01.18v14.99l.01-.17v.34l.05.35.11.33.16.3.21.28.25.24.29.2.31.15.34.1.34.04z" style="stroke-width:0.53;fill:#FFFFFF;fill-opacity:0.50"/><text x="86.34" y="303.23" lengthAdjust="spacingAndGlyphs" style="font-size:5.69px;font-family:&quot;Liberation Sans&quot;" text-anchor="middle" textLength="55.67">4193 LOOKOUT TRL,</text><text x="86.34" y="311.43" lengthAdjust="spacingAndGlyphs" style="font-size:5.69px;font-family:&quot;Liberation Sans&quot;" text-anchor="middle" textLength="62.55">MCFARLAND, WI 53558</text><path d="M314.47 147.8h63.84-.08l.35-.02.34-.06.32-.13.3-.17.27-.22.23-.26.19-.3.13-.32.09-.33.02-.35h0v-14.99h0l-.02-.35-.09-.33-.13-.32-.19-.3-.23-.26-.27-.22-.3-.17-.32-.13-.34-.06-.27-.02h-63.84l.26.02-.35-.02-.35.04-.33.1-.31.15-.29.2-.25.24-.21.27-.16.31-.11.33-.06.35v15.16-.17.34l.06.35.11.33.16.31.21.27.25.24.29.2.31.15.33.1.35.04z" style="stroke-width:0.53;fill:#FFFFFF;fill-opacity:0.50"/><text x="346.39" y="136.01" lengthAdjust="spacingAndGlyphs" style="font-size:5.69px;font-family:&quot;Liberation Sans&quot;" text-anchor="middle" textLength="43.27">3770 S 14TH ST,</text><text x="346.39" y="144.2" lengthAdjust="spacingAndGlyphs" style="font-size:5.69px;font-family:&quot;Liberation Sans&quot;" text-anchor="middle" textLength="60.97">MILWAUKEE, WI 53221</text><path d="M296.64 453.43h65.32-.09l.35-.01.34-.07.32-.13.3-.17.27-.22.23-.26.19-.29.14-.32.08-.34.03-.35h0v-23.18h0l-.03-.35-.08-.34-.14-.32-.19-.29-.23-.26-.27-.22-.3-.18-.32-.12-.34-.07-.26-.01h-65.32l.26.01-.35-.01-.34.04-.34.1-.31.15-.29.19-.25.24-.21.28-.16.31-.11.33-.05.34-.01.18v23.18l.01-.17v.35l.05.34.11.33.16.31.21.27.25.24.29.2.31.15.34.1.34.04z" style="stroke-width:0.53;fill:#FFFFFF;fill-opacity:0.50"/><text x="329.3" y="433.44" lengthAdjust="spacingAndGlyphs" style="font-size:5.69px;font-family:&quot;Liberation Sans&quot;" text-anchor="middle" textLength="62.44">1650 S TWIN WILLOWS</text><text x="329.3" y="441.64" lengthAdjust="spacingAndGlyphs" style="font-size:5.69px;font-family:&quot;Liberation Sans&quot;" text-anchor="middle" textLength="56.89">DR, NEW BERLIN, WI</text><text x="329.3" y="449.83" lengthAdjust="spacingAndGlyphs" style="font-size:5.69px;font-family:&quot;Liberation Sans&quot;" text-anchor="middle" textLength="15.78">53146</text></g><g clip-path="url(#cpMC4wMHw0MzIuMDB8MC4wMHw1MDQuMDA=)"><circle cx="155.2" cy="97.06" r="1.95" style="stroke-width:0.71;stroke:none;fill:#F8766D"/><path d="m231.6 94.02 2.63 4.56h-5.26z" style="stroke-width:0.71;stroke:none;fill:#00BFC4"/><text x="169.32" y="100.22" lengthAdjust="spacingAndGlyphs" style="font-size:8.80px;font-weight:0;font-family:&quot;Nimbus Sans Narrow&quot;" textLength="48.16">mprop address</text><text x="245.72" y="100.22" lengthAdjust="spacingAndGlyphs" style="font-size:8.80px;font-weight:0;font-family:&quot;Nimbus Sans Narrow&quot;" textLength="39.72">owner name</text><text x="29.89" y="65.35" lengthAdjust="spacingAndGlyphs" style="font-size:12.00px;font-weight:0;font-family:&quot;Nimbus Sans Narrow&quot;" textLength="241.17">includes 5 parcels, 9 units, and 2 distinct owner names.</text><text x="29.89" y="42.81" lengthAdjust="spacingAndGlyphs" style="font-size:18.00px;font-weight:0;font-family:&quot;Nimbus Sans Narrow&quot;" textLength="232.05">CLAUDIA B HERRERA etc Group</text></g></g></svg>