<svg xmlns="http://www.w3.org/2000/svg" width="576" height="672" class="svglite" viewBox="0 0 432 504"><defs><style><![CDATA[.svglite line,.svglite polyline,.svglite polygon,.svglite path,.svglite circle{fill:none;stroke:#000000;stroke-linecap:round;stroke-linejoin:round;stroke-miterlimit:10.00}]]></style></defs><rect width="100%" height="100%" style="stroke-linecap:round;stroke-linejoin:round;stroke-miterlimit:10.00;stroke:none;fill:#FFFFFF"/><defs><clipPath id="cpMC4wMHw0MzIuMDB8MC4wMHw1MDQuMDA="><path d="M0 0h432v504H0z"/></clipPath></defs><g clip-path="url(#cpMC4wMHw0MzIuMDB8MC4wMHw1MDQuMDA=)"><path d="M0 0h432v504H0z" style="stroke-width:1.07;stroke:none;fill:#FFFFFF"/></g><defs><clipPath id="cpMzIuNjN8NDAyLjExfDE0MS4yMnw0NzEuMzc="><path d="M32.63 141.22h369.48v330.15H32.63z"/></clipPath></defs><g clip-path="url(#cpMzIuNjN8NDAyLjExfDE0MS4yMnw0NzEuMzc=)"><path d="m147.75 336.16.9-1.07.89-1.07.9-1.06.89-1.07.89-1.06.9-1.07.89-1.06.9-1.07.89-1.07.89-1.06.9-1.07.89-1.06.89-1.07.9-1.07.89-1.06.9-1.07.89-1.06.89-1.07.9-1.07.89-1.06.89-1.07.9-1.06.89-1.07.9-1.06.89-1.07.89-1.07.9-1.06.89-1.07.89-1.06.9-1.07.89-1.07.9-1.06.89-1.07.89-1.06.9-1.07.89-1.07.89-1.06.9-1.07.89-1.06.9-1.07.89-1.06.89-1.07.9-1.07.89-1.06.89-1.07.9-1.06.89-1.07.9-1.07.89-1.06.89-1.07.9-1.06.89-1.07.89-1.07.9-1.06.89-1.07.9-1.06.89-1.07.89-1.07.9-1.06.89-1.07.9-1.06.89-1.07.89-1.06.9-1.07.89-1.07.89-1.06.9-1.07.89-1.06.9-1.07.89-1.07.89-1.06.9-1.07.89-1.06.89-1.07.9-1.07.89-1.06.9-1.07.89-1.06.89-1.07.9-1.06.89-1.07.89-1.07.9-1.06.89-1.07.9-1.06.89-1.07.89-1.07.9-1.06.89-1.07.89-1.06.9-1.07.89-1.07.9-1.06.89-1.07.89-1.06.9-1.07.89-1.06.89-1.07.9-1.07m-88.49 105.53-.59-1.18-.6-1.18-.62-1.17-.62-1.17-.63-1.16-.63-1.16-.65-1.16-.65-1.16-.66-1.15-.67-1.15-.68-1.15-.68-1.14-.69-1.14-.7-1.14-.71-1.13-.72-1.13-.73-1.13-.73-1.12-.74-1.12-.75-1.12-.76-1.11-.77-1.11-.77-1.11-.78-1.11-.79-1.1-.8-1.1-.81-1.09-.81-1.09-.83-1.09-.83-1.09-.84-1.08-.84-1.08-.86-1.08-.86-1.07-.87-1.07-.88-1.06-.89-1.07-.9-1.06-.9-1.05-.91-1.06-.92-1.05-.93-1.05-.94-1.04-.94-1.04-.96-1.04-.96-1.03-.97-1.03-.97-1.03-.99-1.03-.99-1.02-1-1.02-1.01-1.01-1.02-1.01-1.03-1.01-1.03-1.01-1.04-1-1.05-1-1.06-1-1.07-.99-1.07-.99-1.08-.99-1.09-.98-1.1-.98-1.11-.98-1.11-.97-1.13-.97-1.13-.97-1.14-.96-1.15-.96-1.15-.96-1.16-.96-1.18-.95-1.18-.95-1.18-.94-1.2-.94-1.2-.94-1.22-.94-1.22-.93-1.22-.93-1.24-.93-1.25-.92-1.25-.92-1.26-.91-1.27-.92-1.28-.91-1.28-.9-1.29-.91-1.31-.9-1.31-.9-1.31-.89-1.33-.89-1.33-.89-1.35-.88-1.35-.88-1.35-.88-1.37-.88-1.37-.87-1.39-.87-1.39-.86m98.33 101.15-.14 1.21-.14 1.21-.14 1.22-.15 1.21-.14 1.22-.14 1.21-.14 1.22-.15 1.21-.14 1.21-.14 1.22-.14 1.21-.15 1.22-.14 1.21-.14 1.22-.14 1.21-.15 1.21-.14 1.22-.14 1.21-.14 1.22-.15 1.21-.14 1.22-.14 1.21-.14 1.21-.15 1.22-.14 1.21-.14 1.22-.14 1.21-.15 1.21-.14 1.22-.14 1.21-.14 1.22-.15 1.21-.14 1.22-.14 1.21-.14 1.21-.15 1.22-.14 1.21-.14 1.22-.14 1.21-.15 1.22-.14 1.21-.14 1.21-.14 1.22-.15 1.21-.14 1.22-.14 1.21-.14 1.22-.15 1.21-.14 1.21-.14 1.22-.14 1.21-.15 1.22-.14 1.21-.14 1.22-.14 1.21-.15 1.21-.14 1.22-.14 1.21-.14 1.22-.15 1.21-.14 1.21-.14 1.22-.14 1.21-.15 1.22-.14 1.21-.14 1.22-.14 1.21-.15 1.21-.14 1.22-.14 1.21-.14 1.22-.15 1.21-.14 1.22-.14 1.21-.14 1.21-.15 1.22-.14 1.21-.14 1.22-.14 1.21-.15 1.22-.14 1.21-.14 1.21-.14 1.22-.15 1.21-.14 1.22-.14 1.21-.14 1.21-.15 1.22-.14 1.21-.14 1.22-.14 1.21-.15 1.22-.14 1.21-.14 1.21-.14 1.22-.15 1.21-.14 1.22-.14 1.21-.14 1.22" style="stroke-width:1.07;stroke:#000000;stroke-opacity:0.10;stroke-linecap:butt"/><path d="m147.75 336.16-1.39-.87-1.38-.87-1.37-.87-1.37-.87-1.36-.88-1.35-.88-1.34-.89-1.33-.89-1.33-.89-1.32-.89-1.31-.9-1.3-.9-1.29-.9-1.29-.91-1.27-.91-1.27-.91-1.26-.92-1.26-.92-1.24-.92-1.24-.93-1.23-.93-1.22-.93-1.21-.93-1.2-.94-1.2-.94-1.19-.95-1.18-.95-1.17-.95-1.16-.95-1.16-.96-1.15-.96-1.13-.97-1.14-.96-1.12-.98-1.11-.97-1.11-.98-1.1-.98-1.09-.98-1.08-.99-1.08-.99-1.06-.99-1.06-1-1.05-.99-1.04-1.01-1.04-1-1.02-1.01-1.02-1.01-1.01-1.02-1-1.02-.99-1.02-.99-1.02-.98-1.03-.97-1.03-.96-1.04-.95-1.04-.94-1.04-.94-1.04-.93-1.05-.92-1.05-.91-1.05-.9-1.06-.9-1.06-.89-1.06-.88-1.07-.87-1.07-.86-1.07-.86-1.08-.85-1.08-.83-1.08-.84-1.08-.82-1.09-.81-1.09-.81-1.1-.8-1.1-.79-1.1-.78-1.1-.78-1.11-.76-1.11-.76-1.12-.75-1.11-.74-1.13-.74-1.12-.72-1.13-.72-1.13-.71-1.13-.7-1.14-.69-1.14-.69-1.14-.67-1.15-.67-1.14-.66-1.16-.66-1.15-.64-1.16-.64-1.16-.63-1.17-.62-1.17-.61-1.17-.6-1.17-.6-1.18m335.9-78.78-1.51.75-1.5.75-1.51.76-1.51.75-1.5.75-1.51.75-1.5.75-1.51.75-1.51.75-1.5.76-1.51.75-1.5.75-1.51.75-1.5.75-1.51.75-1.51.76-1.5.75-1.51.75-1.5.75-1.51.75-1.51.75-1.5.75-1.51.76-1.5.75-1.51.75-1.5.75-1.51.75-1.51.75-1.5.76-1.51.75-1.5.75-1.51.75-1.51.75-1.5.75-1.51.75-1.5.76-1.51.75-1.5.75-1.51.75-1.51.75-1.5.75-1.51.76-1.5.75-1.51.75-1.51.75-1.5.75-1.51.75-1.5.75-1.51.76-1.5.75-1.51.75-1.51.75-1.5.75-1.51.75-1.5.76-1.51.75-1.51.75-1.5.75-1.51.75-1.5.75-1.51.75-1.51.76-1.5.75-1.51.75-1.5.75-1.51.75-1.5.75-1.51.76-1.51.75-1.5.75-1.51.75-1.5.75-1.51.75-1.51.75-1.5.76-1.51.75-1.5.75-1.51.75-1.5.75-1.51.75-1.51.76-1.5.75-1.51.75-1.5.75-1.51.75-1.51.75-1.5.75-1.51.76-1.5.75-1.51.75-1.5.75-1.51.75-1.51.75-1.5.76-1.51.75-1.5.75-1.51.75-1.51.75-1.5.75m-186.82 4.38 1.91.25 1.9.25 1.9.24 1.91.23 1.9.23 1.9.22 1.9.22 1.91.21 1.9.21 1.9.19 1.9.2 1.9.18 1.9.18 1.9.18 1.9.16 1.9.17 1.9.15 1.89.15 1.9.15 1.9.13 1.9.14 1.89.12 1.9.12 1.9.11 1.89.11 1.9.1 1.89.1 1.9.09 1.89.08 1.9.08 1.89.07 1.89.06 1.9.06 1.89.06 1.89.04 1.89.04 1.89.04 1.9.03 1.89.02 1.89.01 1.89.02h3.78l1.89-.01 1.89-.01 1.88-.02 1.89-.03 1.89-.03 1.89-.04 1.88-.04 1.89-.05 1.89-.06 1.88-.06 1.89-.07 1.88-.08 1.89-.08 1.88-.08 1.89-.1 1.88-.09 1.88-.11 1.89-.11 1.88-.12 1.88-.12 1.89-.13 1.88-.13 1.88-.15 1.88-.14 1.88-.16 1.88-.16 1.88-.16 1.88-.17 1.88-.18 1.88-.18 1.88-.19 1.88-.2 1.87-.2 1.88-.21 1.88-.21 1.88-.22 1.87-.23 1.88-.23 1.87-.24 1.88-.24 1.87-.25 1.88-.26 1.87-.26 1.88-.27 1.87-.28 1.87-.28 1.88-.28 1.87-.3 1.87-.29 1.87-.31 1.88-.31 1.87-.32 1.87-.32 1.87-.33 1.87-.34 1.87-.34m-186.82 4.38 1.87-.34 1.87-.34 1.87-.33 1.87-.32 1.88-.32 1.87-.31 1.87-.3 1.87-.3 1.87-.3 1.88-.28 1.87-.28 1.87-.28 1.88-.27 1.87-.26 1.88-.26 1.87-.25 1.88-.24 1.87-.24 1.88-.23 1.88-.23 1.87-.22 1.88-.21 1.88-.21 1.88-.2 1.87-.2 1.88-.19 1.88-.18 1.88-.18 1.88-.17 1.88-.16 1.88-.16 1.88-.16 1.88-.14 1.88-.14 1.89-.14 1.88-.13 1.88-.12 1.88-.12 1.89-.11 1.88-.1 1.88-.1 1.89-.1 1.88-.08 1.89-.08 1.88-.08 1.89-.07 1.88-.06 1.89-.05 1.89-.05 1.88-.05 1.89-.04 1.89-.03 1.89-.03 1.89-.02 1.88-.01 1.89-.01h1.89l1.89.01 1.89.01 1.89.01 1.89.03 1.9.02 1.89.04 1.89.04 1.89.05 1.89.05 1.9.06 1.89.06 1.89.07 1.9.08 1.89.08 1.9.09 1.89.1 1.9.1 1.89.11 1.9.11 1.9.12 1.89.13 1.9.13 1.9.13 1.9.15 1.89.15 1.9.15 1.9.17 1.9.16 1.9.18 1.9.18 1.9.18 1.9.2 1.9.2 1.9.2 1.91.21 1.9.22 1.9.22 1.9.23 1.91.23 1.9.24 1.9.25 1.91.25" style="stroke-width:1.07;stroke:#000000;stroke-opacity:0.10;stroke-linecap:butt"/><path d="m147.75 325.65 9.1 15.76h-18.19zm237.57-171.63 1.91 3.32h-3.83z" style="stroke-width:0.71;stroke:none;fill:#00BA38"/><path d="M42.67 241.76h13.51v-13.51H42.67z" style="stroke-width:0.71;stroke:none;fill:#619CFF"/><circle cx="236.24" cy="230.63" r="6.76" style="stroke-width:0.71;stroke:none;fill:#F8766D"/><circle cx="133.65" cy="456.37" r="1.42" style="stroke-width:0.71;stroke:none;fill:#F8766D"/><path d="m152.5 331.5-3.93 3.86m92.68-109.34-4.17 3.84m-98.51 221.88-4.09 3.84" style="stroke-width:0.53;stroke:#BFBFBF"/><path d="M132.86 331.5h52.79-.09l.35-.02.34-.07.32-.12.31-.17.26-.22.24-.26.18-.3.14-.32.08-.33.03-.35h0v-6.96h0l-.03-.35-.08-.34-.14-.32-.18-.29-.24-.26-.26-.22-.31-.17-.32-.13-.34-.07-.26-.01h-52.79l.26.01-.35-.01-.34.04-.34.1-.31.15-.29.19-.25.24-.21.28-.16.31-.11.33-.06.34v7.14-.17.34l.06.35.11.33.16.3.21.28.25.24.29.2.31.15.34.1.34.04z" style="stroke-width:0.53;fill:#FFFFFF;fill-opacity:0.50"/><text x="159.25" y="327.9" lengthAdjust="spacingAndGlyphs" style="font-size:5.69px;font-family:Arial" text-anchor="middle" textLength="49.91">CLEAR RIVER LLC</text><path d="M313.41 165.97h65.12-.09l.35-.01.34-.07.32-.12.3-.18.27-.22.23-.26.19-.29.14-.32.08-.34.03-.35h0v-15.15h0l-.03-.35-.08-.34-.14-.32-.19-.29-.23-.26-.27-.22-.3-.17-.32-.13-.34-.07-.26-.01h-65.12l.26.01-.35-.01-.34.04-.33.1-.32.15-.28.19-.26.25-.2.27-.17.31-.11.33-.05.34-.01.18v15.15l.01-.17v.35l.05.34.11.33.17.31.2.28.26.24.28.2.32.14.33.1.34.04z" style="stroke-width:0.53;fill:#FFFFFF;fill-opacity:0.50"/><text x="345.97" y="154.18" lengthAdjust="spacingAndGlyphs" style="font-size:5.69px;font-family:Arial" text-anchor="middle" textLength="62.24">ROSEMARY OLIVEIRA-</text><text x="345.97" y="162.37" lengthAdjust="spacingAndGlyphs" style="font-size:5.69px;font-family:Arial" text-anchor="middle" textLength="24">MANCINI</text><path d="M56.21 248.84h65.12-.09l.35-.02.34-.07.32-.12.31-.17.26-.22.24-.26.18-.3.14-.32.08-.33.03-.35h0v-23.35h0l-.03-.35-.08-.34-.14-.32-.18-.29-.24-.26-.26-.22-.31-.17-.32-.13-.34-.07-.26-.01H56.21l.26.01-.35-.01-.34.04-.33.1-.32.15-.28.2-.26.24-.2.27-.17.31-.11.33-.05.34-.01.18v23.35l.01-.17v.34l.05.35.11.33.17.3.2.28.26.24.28.2.32.15.33.1.34.04z" style="stroke-width:0.53;fill:#FFFFFF;fill-opacity:0.50"/><text x="88.77" y="228.85" lengthAdjust="spacingAndGlyphs" style="font-size:5.69px;font-family:Arial" text-anchor="middle" textLength="51.8">3278 N HUMBOLDT</text><text x="88.77" y="237.05" lengthAdjust="spacingAndGlyphs" style="font-size:5.69px;font-family:Arial" text-anchor="middle" textLength="62.24">BLVD, MILWAUKEE, WI</text><text x="88.77" y="245.24" lengthAdjust="spacingAndGlyphs" style="font-size:5.69px;font-family:Arial" text-anchor="middle" textLength="15.8">53212</text><path d="M224.32 226.02h65.12-.09l.35-.01.34-.07.33-.13.3-.17.27-.22.23-.26.18-.29.14-.32.08-.34.03-.35h0v-23.35h0l-.03-.35-.08-.33-.14-.32-.18-.3-.23-.26-.27-.22-.3-.17-.33-.12-.34-.07-.26-.02h-65.12l.26.02-.34-.02-.35.04-.33.1-.32.15-.28.2-.25.24-.21.28-.16.3-.11.33-.06.35-.01.17v23.35l.01-.17v.35l.06.34.11.33.16.31.21.27.25.24.28.2.32.15.33.1.35.04z" style="stroke-width:0.53;fill:#FFFFFF;fill-opacity:0.50"/><text x="256.88" y="206.03" lengthAdjust="spacingAndGlyphs" style="font-size:5.69px;font-family:Arial" text-anchor="middle" textLength="51.8">3278 N HUMBOLDT</text><text x="256.88" y="214.23" lengthAdjust="spacingAndGlyphs" style="font-size:5.69px;font-family:Arial" text-anchor="middle" textLength="62.24">BLVD, MILWAUKEE, WI</text><text x="256.88" y="222.42" lengthAdjust="spacingAndGlyphs" style="font-size:5.69px;font-family:Arial" text-anchor="middle" textLength="15.8">53212</text><path d="M117.49 451.74h64.49-.09l.35-.01.34-.07.32-.12.31-.18.27-.22.23-.26.18-.29.14-.32.08-.34.03-.35h0v-15.15h0l-.03-.35-.08-.34-.14-.32-.18-.29-.23-.26-.27-.22-.31-.17-.32-.13-.34-.07-.26-.01h-64.49l.26.01-.35-.01-.34.04-.34.1-.31.15-.29.19-.25.25-.21.27-.16.31-.11.33-.05.34-.01.18v15.15l.01-.17v.35l.05.34.11.33.16.31.21.28.25.24.29.2.31.14.34.1.34.04z" style="stroke-width:0.53;fill:#FFFFFF;fill-opacity:0.50"/><text x="149.73" y="439.95" lengthAdjust="spacingAndGlyphs" style="font-size:5.69px;font-family:Arial" text-anchor="middle" textLength="60.34">3278 NHUMBOLDT BL,</text><text x="149.73" y="448.14" lengthAdjust="spacingAndGlyphs" style="font-size:5.69px;font-family:Arial" text-anchor="middle" textLength="61.61">MILWAUKEE, WI 53212</text></g><g clip-path="url(#cpMC4wMHw0MzIuMDB8MC4wMHw1MDQuMDA=)"><circle cx="124.98" cy="116.15" r="1.95" style="stroke-width:0.71;stroke:none;fill:#F8766D"/><path d="m201.33 113.11 2.63 4.56h-5.26z" style="stroke-width:0.71;stroke:none;fill:#00BA38"/><path d="M267.31 118.1h3.91v-3.91h-3.91z" style="stroke-width:0.71;stroke:none;fill:#619CFF"/><text x="139.09" y="119.3" lengthAdjust="spacingAndGlyphs" style="font-size:8.80px;font-family:Arial Narrow" textLength="48.12">mprop address</text><text x="215.45" y="119.3" lengthAdjust="spacingAndGlyphs" style="font-size:8.80px;font-family:Arial Narrow" textLength="39.69">owner name</text><text x="283.38" y="119.3" lengthAdjust="spacingAndGlyphs" style="font-size:8.80px;font-family:Arial Narrow" textLength="40.5">wdfi address</text><text x="32.63" y="84.56" lengthAdjust="spacingAndGlyphs" style="font-size:12.00px;font-family:Arial Narrow" textLength="241.29">includes 3 parcels, 8 units, and 2 distinct owner names.</text><text x="32.63" y="42.78" lengthAdjust="spacingAndGlyphs" style="font-size:18.00px;font-weight:bold;font-family:Arial Narrow" textLength="314.06">CLEAR RIVER LLC -- ROSEMARY OLIVEIRA-</text><text x="32.63" y="62.22" lengthAdjust="spacingAndGlyphs" style="font-size:18.00px;font-weight:bold;font-family:Arial Narrow" textLength="111.5">MANCINI Group</text></g></svg>