<svg xmlns="http://www.w3.org/2000/svg" width="576" height="672" viewBox="0 0 432 504"><g class="svglite"><defs><style><![CDATA[.svglite line,.svglite polyline,.svglite polygon,.svglite path,.svglite circle{fill:none;stroke:#000000;stroke-linecap:round;stroke-linejoin:round;stroke-miterlimit:10.00}.svglite text{white-space:pre}.svglite g.glyphgroup path{fill:inherit;stroke:none}]]></style></defs><rect width="100%" height="100%" style="stroke-linecap:round;stroke-linejoin:round;stroke-miterlimit:10.00;stroke:none;fill:#FFFFFF"/><defs><clipPath id="cpMC4wMHw0MzIuMDB8MC4wMHw1MDQuMDA="><path d="M0 0h432v504H0z"/></clipPath></defs><g clip-path="url(#cpMC4wMHw0MzIuMDB8MC4wMHw1MDQuMDA=)"><path d="M0 0h432v504H0z" style="stroke-width:1.07;stroke:none;fill:#FFFFFF"/></g><defs><clipPath id="cpMzIuNjN8NDAyLjExfDE0MS41OHw0NzEuMzc="><path d="M32.63 141.58h369.48v329.8H32.63z"/></clipPath></defs><g clip-path="url(#cpMzIuNjN8NDAyLjExfDE0MS41OHw0NzEuMzc=)"><path d="m109.26 365.45.94-.69.93-.69.93-.7.93-.71.92-.71.91-.71.91-.72.9-.72.9-.72.9-.73.89-.74.89-.74.88-.74.87-.75.87-.75.87-.75.86-.76.86-.77.85-.76.85-.78.84-.77.84-.78.83-.79.83-.79.82-.79.82-.8.82-.8.8-.81.81-.81.8-.82.79-.81.79-.83.79-.83.78-.83.77-.83.77-.85.77-.84.76-.85.76-.85.75-.86.74-.86.75-.87.73-.87.74-.87.72-.88.73-.89.71-.88.72-.9.71-.89.7-.9.7-.91.69-.91.69-.91.68-.92.68-.92.68-.92.67-.93.66-.94.66-.94.66-.94.65-.95.65-.95.64-.96.63-.96.64-.96.62-.97.62-.97.62-.98.61-.98.61-.99.6-.99.6-.99.6-1 .58-1 .59-1.01.58-1.01.57-1.01.57-1.02.56-1.03.56-1.03.56-1.03.55-1.04.54-1.04.54-1.04.54-1.05.53-1.06.53-1.05.52-1.07.51-1.06.52-1.07.5-1.08.5-1.08.5-1.08.49-1.09.49-1.09.48-1.1.48-1.1.48-1.11.46-1.1m-69.64 89.13.07-1.12.07-1.13.05-1.11.05-1.12.04-1.11.03-1.11.02-1.1.02-1.1v-2.2l-.01-1.09-.03-1.08-.02-1.09-.04-1.08-.05-1.08-.05-1.07-.07-1.07-.07-1.07-.08-1.06-.08-1.06-.1-1.05-.11-1.06-.11-1.05-.12-1.04-.13-1.05-.14-1.03-.15-1.04-.16-1.03-.16-1.03-.18-1.02-.18-1.03-.19-1.01-.2-1.02-.2-1.01-.22-1.01-.22-1-.24-1-.24-1-.25-.99-.25-.99-.27-.99-.28-.98-.28-.98-.29-.98-.3-.97-.31-.97-.32-.97-.32-.96-.34-.96-.34-.96-.35-.95-.36-.95-.37-.94-.38-.95-.38-.93-.4-.94-.4-.93-.41-.93-.42-.92-.43-.92-.43-.92-.45-.92-.45-.91-.46-.9-.47-.91-.48-.9-.49-.89-.49-.9-.51-.89-.51-.88-.52-.89-.53-.88-.54-.87-.55-.88-.55-.86-.56-.87-.58-.86-.58-.86-.58-.86-.6-.85-.61-.85-.61-.84-.63-.84-.63-.84-.64-.83-.64-.84-.66-.82-.67-.83-.67-.82-.68-.82-.69-.81-.7-.81-.71-.81-.72-.8-.72-.8-.73-.8-.75-.79-.75-.79-.75-.78m104.56-114.27-.01 1.21-.01 1.21-.01 1.21-.01 1.21-.01 1.21-.01 1.21-.01 1.2-.01 1.21-.01 1.21-.01 1.21-.01 1.21-.01 1.21-.01 1.21-.01 1.21-.01 1.21-.01 1.21-.01 1.21-.01 1.21-.01 1.21-.01 1.21-.01 1.21-.01 1.21-.01 1.21-.01 1.21-.01 1.21-.01 1.21-.01 1.21v1.21l-.01 1.21-.01 1.2-.01 1.21-.01 1.21-.01 1.21-.01 1.21-.01 1.21-.01 1.21-.01 1.21-.01 1.21-.01 1.21-.01 1.21-.01 1.21-.01 1.21-.01 1.21-.01 1.21-.01 1.21-.01 1.21-.01 1.21-.01 1.21-.01 1.21-.01 1.21-.01 1.21-.01 1.21-.01 1.21-.01 1.2-.01 1.21-.01 1.21-.01 1.21-.01 1.21-.01 1.21-.01 1.21-.01 1.21-.01 1.21-.01 1.21-.01 1.21-.01 1.21-.01 1.21-.01 1.21-.01 1.21-.01 1.21-.01 1.21-.01 1.21-.01 1.21-.01 1.21-.01 1.21-.01 1.21-.01 1.21-.01 1.2-.01 1.21-.01 1.21-.01 1.21-.01 1.21-.01 1.21-.01 1.21-.01 1.21-.01 1.21-.01 1.21-.01 1.21-.01 1.21-.01 1.21-.01 1.21-.01 1.21-.01 1.21-.01 1.21-.01 1.21-.01 1.21-.01 1.21-.01 1.21-.01 1.21-.01 1.21" style="stroke-width:1.07;stroke:#000000;stroke-opacity:0.10;stroke-linecap:butt"/><path d="m109.26 365.45.89-.74.88-.74.88-.74.87-.75.88-.75.86-.75.87-.76.86-.76.85-.77.86-.77.84-.77.85-.77.84-.78.84-.78.83-.78.83-.79.83-.79.82-.8.82-.79.82-.81.81-.8.81-.81.8-.81.8-.81.8-.82.79-.82.79-.82.79-.83.78-.83.78-.84.77-.83.77-.84.77-.85.76-.85.76-.85.76-.85.75-.86.75-.86.74-.86.74-.87.74-.87.73-.87.73-.88.73-.88.72-.88.72-.89.71-.89.71-.9.71-.89.7-.9.7-.91.7-.9.69-.91.69-.92.68-.92.69-.92.67-.92.68-.93.67-.93.66-.93.67-.94.65-.94.66-.94.65-.95.65-.95.64-.95.64-.96.64-.96.63-.96.63-.97.62-.97.63-.97.61-.98.62-.98.61-.98.6-.99.61-.99.6-.99.59-1 .59-1 .59-1 .59-1.01.58-1.01.57-1.01.58-1.02.56-1.02.57-1.02.56-1.03.56-1.02.55-1.04.55-1.03.55-1.04.54-1.05.54-1.04.54-1.05.53-1.06.53-1.05.52-1.06.52-1.06m-69.64 89.13.02-1.1.01-1.1v-2.19l-.02-1.09-.01-1.09-.03-1.08-.04-1.09-.04-1.08-.05-1.07-.05-1.07-.07-1.07-.07-1.07-.07-1.06-.09-1.06-.09-1.06-.1-1.06-.11-1.05-.12-1.05-.12-1.04-.13-1.05-.14-1.04-.14-1.03-.15-1.04-.16-1.03-.17-1.03-.17-1.02-.18-1.02-.19-1.02-.2-1.02-.2-1.01-.21-1.01-.22-1.01-.22-1-.24-1-.24-1-.24-.99-.26-.99-.26-.99-.27-.99-.28-.98-.28-.98-.29-.98-.3-.97-.31-.97-.31-.97-.32-.97-.33-.96-.33-.96-.35-.95-.35-.95-.35-.95-.37-.95-.37-.94-.38-.94-.39-.94-.39-.94-.4-.93-.41-.93-.42-.92-.42-.93-.43-.92-.44-.91-.45-.92-.45-.91-.46-.9-.47-.91-.48-.9-.48-.9-.49-.9-.5-.89-.5-.89-.51-.88-.52-.89-.53-.88-.53-.88-.54-.87-.55-.87-.56-.87-.56-.87-.57-.86-.58-.86-.59-.86-.59-.85-.6-.85-.61-.85-.61-.84-.62-.84-.63-.84-.64-.84-.64-.83-.66-.83-.66-.83-.66-.82-.68-.82-.68-.82-.68-.81-.7-.82-.7-.8" style="stroke-width:1.07;stroke:#000000;stroke-opacity:0.10;stroke-linecap:butt"/><path d="m109.26 365.45.84-.78.83-.79.83-.79.82-.79.82-.79.83-.8.81-.8.82-.8.81-.8.81-.81.81-.81.8-.81.81-.81.79-.81.8-.82.8-.82.79-.82.79-.83.78-.82.79-.83.78-.84.77-.83.78-.84.77-.83.77-.85.77-.84.76-.85.77-.84.76-.85.75-.86.76-.85.75-.86.75-.86.74-.86.75-.87.74-.86.74-.87.73-.88.73-.87.73-.88.73-.88.73-.88.72-.88.72-.89.71-.89.72-.89.71-.89.71-.9.7-.89.71-.9.7-.91.7-.9.69-.91.7-.91.69-.91.68-.92.69-.91.68-.92.68-.92.68-.93.67-.92.67-.93.67-.93.67-.94.66-.93.66-.94.66-.94.66-.95.65-.94.65-.95.65-.95.64-.95.64-.96.64-.95.64-.96.63-.97.63-.96.63-.97.63-.97.62-.97.62-.97.62-.98.62-.98.61-.98.61-.98.61-.99.6-.98.61-.99.6-1 .59-.99.6-1 .59-1 .59-1 .58-1.01.59-1 .58-1.01.58-1.01.57-1.02.57-1.01m-69.64 89.13-.04-1.08-.04-1.08-.05-1.07-.06-1.07-.06-1.07-.07-1.07-.08-1.07-.08-1.06-.09-1.06-.09-1.06-.1-1.05-.11-1.05-.11-1.05-.12-1.05-.12-1.04-.13-1.05-.14-1.04-.15-1.03-.15-1.04-.15-1.03-.16-1.03-.17-1.03-.18-1.02-.18-1.02-.19-1.02-.19-1.02-.2-1.01-.21-1.01-.21-1.01-.22-1.01-.22-1-.23-1-.24-1-.24-1-.25-.99-.26-.99-.26-.99-.27-.99-.27-.98-.28-.98-.29-.98-.29-.98-.3-.97-.31-.97-.31-.97-.32-.97-.32-.96-.33-.96-.34-.96-.34-.96-.35-.95-.36-.95-.36-.95-.37-.94-.37-.95-.38-.94-.39-.93-.39-.94-.4-.93-.4-.93-.41-.93-.42-.93-.43-.92-.43-.92-.43-.92-.44-.91-.45-.91-.46-.91-.46-.91-.47-.91-.47-.9-.48-.9-.49-.9-.49-.89-.5-.89-.5-.89-.51-.89-.52-.88-.52-.89-.53-.88-.54-.87-.54-.88-.55-.87-.55-.87-.56-.87-.57-.86-.57-.86-.58-.86-.59-.86-.59-.85-.6-.85-.6-.85-.61-.85-.62-.84-.62-.84-.63-.84-.63-.84-.65-.83-.64-.83m209.08 34.68-1.07-.29-1.06-.3-1.07-.29-1.06-.3-1.07-.29-1.06-.3-1.07-.29-1.06-.3-1.07-.29-1.07-.3-1.06-.29-1.07-.3-1.06-.29-1.07-.3-1.06-.29-1.07-.3-1.07-.29-1.06-.3-1.07-.29-1.06-.3-1.07-.29-1.06-.3-1.07-.29-1.06-.3-1.07-.29-1.07-.3-1.06-.29-1.07-.3-1.06-.29-1.07-.3-1.06-.29-1.07-.3-1.06-.29-1.07-.3-1.07-.29-1.06-.3-1.07-.29-1.06-.3-1.07-.29-1.06-.3-1.07-.29-1.07-.3-1.06-.29-1.07-.3-1.06-.29-1.07-.3-1.06-.29-1.07-.3-1.06-.29-1.07-.3-1.07-.29-1.06-.3-1.07-.29-1.06-.3-1.07-.29-1.06-.3-1.07-.29-1.07-.3-1.06-.29-1.07-.3-1.06-.29-1.07-.3-1.06-.29-1.07-.3-1.06-.29-1.07-.3-1.07-.29-1.06-.3-1.07-.29-1.06-.3-1.07-.29-1.06-.3-1.07-.29-1.06-.3-1.07-.29-1.07-.3-1.06-.29-1.07-.3-1.06-.29-1.07-.3-1.06-.29-1.07-.3-1.07-.29-1.06-.3-1.07-.29-1.06-.3-1.07-.29-1.06-.3-1.07-.29-1.06-.3-1.07-.29-1.07-.3-1.06-.29-1.07-.3-1.06-.29-1.07-.3-1.06-.29-1.07-.3-1.07-.29" style="stroke-width:1.07;stroke:#000000;stroke-opacity:0.10;stroke-linecap:butt"/><path d="m109.26 365.45.78-.83.78-.83.78-.83.78-.84.77-.84.78-.83.77-.84.77-.84.77-.85.77-.84.76-.84.77-.85.76-.85.76-.85.76-.85.76-.85.75-.85.76-.86.75-.85.75-.86.75-.86.75-.86.75-.86.74-.87.75-.86.74-.87.74-.87.74-.87.73-.87.74-.87.73-.87.74-.88.73-.87.73-.88.72-.88.73-.88.72-.88.73-.88.72-.89.72-.89.71-.88.72-.89.71-.89.72-.89.71-.9.71-.89.71-.9.7-.9.71-.89.7-.91.7-.9.7-.9.7-.9.7-.91.7-.91.69-.91.69-.91.69-.91.69-.91.69-.92.69-.91.68-.92.68-.92.68-.92.68-.92.68-.92.68-.93.67-.92.68-.93.67-.93.67-.93.66-.93.67-.94.67-.93.66-.94.66-.93.66-.94.66-.94.66-.94.65-.95.66-.94.65-.95.65-.94.65-.95.65-.95.64-.96.65-.95.64-.95.64-.96.64-.96.64-.95.64-.96.63-.97.63-.96.63-.96.63-.97.63-.97.63-.96.62-.97m-69.64 89.13-.09-1.06-.1-1.05-.1-1.05-.11-1.06-.12-1.04-.12-1.05-.12-1.05-.13-1.04-.13-1.04-.14-1.04-.15-1.04-.15-1.03-.15-1.03-.16-1.03-.17-1.03-.17-1.03-.17-1.02-.18-1.03-.19-1.02-.19-1.01-.19-1.02-.2-1.01-.21-1.02-.21-1.01-.21-1-.22-1.01-.23-1-.23-1-.24-1-.24-1-.24-1-.25-.99-.26-.99-.26-.99-.27-.99-.27-.98-.28-.98-.28-.98-.29-.98-.29-.98-.3-.97-.3-.98-.3-.97-.32-.96-.31-.97-.33-.96-.32-.97-.34-.96-.33-.95-.35-.96-.35-.95-.35-.95-.36-.95-.36-.95-.37-.95-.37-.94-.38-.94-.38-.94-.39-.94-.4-.93-.4-.94-.4-.93-.41-.92-.41-.93-.42-.93-.43-.92-.43-.92-.43-.92-.44-.91-.44-.92-.45-.91-.46-.91-.46-.91-.46-.9-.47-.91-.48-.9-.48-.9-.48-.9-.5-.89-.49-.89-.5-.9-.51-.89-.51-.88-.51-.89-.52-.88-.53-.88-.53-.88-.54-.88-.54-.87-.55-.87-.55-.87-.55-.87-.57-.87-.56-.86-.58-.87-.57-.86-.58-.85-.59-.86-.59-.85m33.94 94.61-.74.82-.73.82-.73.82-.73.83-.73.83-.72.83-.72.83-.72.83-.72.83-.71.84-.71.84-.71.84-.71.84-.7.85-.7.85-.69.85-.7.85-.69.85-.69.86-.68.85-.69.86-.68.86-.68.87-.67.86-.67.87-.67.87-.67.87-.66.88-.67.87-.65.88-.66.88-.65.88-.65.89-.65.88-.65.89-.64.89-.64.89-.64.9-.63.89-.63.9-.63.9-.63.9-.62.91-.62.9-.62.91-.62.91-.61.91-.61.92-.6.91-.61.92-.6.92-.6.93-.6.92-.59.93-.59.93-.59.93-.58.93-.59.93-.58.94-.57.94-.58.94-.57.94-.57.95-.57.95-.56.94-.56.96-.56.95-.55.95-.56.96-.55.96-.54.96-.55.96-.54.97-.54.97-.54.97-.53.97-.53.97-.53.98-.53.97-.52.98-.52.99-.52.98-.51.98-.51.99-.51.99-.51.99-.5 1-.5.99-.5 1-.5 1-.49 1-.49 1.01-.49 1-.48 1.01-.49 1.01-.48 1.01-.47 1.02-.48 1.01-.47 1.02" style="stroke-width:1.07;stroke:#000000;stroke-opacity:0.10;stroke-linecap:butt"/><path d="m109.26 365.45-.15-1.03-.15-1.04-.16-1.03-.16-1.03-.16-1.03-.17-1.02-.17-1.03-.18-1.02-.18-1.02-.19-1.02-.18-1.02-.2-1.02-.19-1.02-.2-1.01-.21-1.01-.21-1.01-.21-1.01-.21-1.01-.22-1.01-.23-1-.23-1-.23-1-.24-1-.23-1-.25-1-.25-.99-.25-.99-.25-.99-.26-.99-.27-.99-.27-.99-.27-.98-.27-.99-.28-.98-.29-.98-.28-.98-.29-.97-.3-.98-.3-.97-.3-.97-.31-.97-.31-.97-.32-.97-.32-.97-.32-.96-.33-.96-.33-.96-.33-.96-.34-.96-.34-.95-.35-.96-.35-.95-.36-.95-.35-.95-.37-.95-.36-.94-.37-.95-.38-.94-.38-.94-.38-.94-.39-.94-.39-.94-.39-.93-.4-.93-.4-.94-.41-.93-.41-.92-.41-.93-.42-.93-.42-.92-.43-.92-.43-.92-.43-.92-.44-.92-.44-.91-.45-.92-.45-.91-.45-.91-.46-.91-.46-.9-.47-.91-.47-.9-.47-.91-.48-.9-.48-.9-.48-.89-.49-.9-.5-.89-.49-.9-.5-.89-.51-.89-.51-.88-.51-.89-.52-.88-.52-.89-.52-.88-.53-.88-.54-.88-.53-.87m33.94 94.61.73-.87.73-.88.73-.88.73-.88.72-.88.73-.88.73-.88.72-.88.73-.88.72-.88.73-.88.72-.88.72-.89.73-.88.72-.88.72-.89.72-.88.72-.89.72-.88.72-.89.72-.89.72-.88.72-.89.71-.89.72-.89.72-.89.71-.89.72-.89.71-.89.72-.89.71-.89.71-.89.72-.89.71-.9.71-.89.71-.89.71-.9.71-.89.71-.9.71-.89.71-.9.7-.9.71-.89.71-.9.7-.9.71-.9.71-.9.7-.9.7-.9.71-.9.7-.9.7-.9.7-.9.71-.9.7-.9.7-.91.7-.9.7-.91.69-.9.7-.91.7-.9.7-.91.69-.9.7-.91.7-.91.69-.91.69-.9.7-.91.69-.91.7-.91.69-.91.69-.91.69-.92.69-.91.69-.91.69-.91.69-.92.69-.91.69-.91.68-.92.69-.91.69-.92.68-.91.69-.92.68-.92.69-.91.68-.92.68-.92.69-.92.68-.92.68-.92.68-.92.68-.92.68-.92.68-.92.68-.93.68-.92.68-.92.67-.92" style="stroke-width:1.07;stroke:#000000;stroke-opacity:0.10;stroke-linecap:butt"/><path d="m109.26 365.45-.2-1.01-.21-1.01-.21-1.01-.21-1.01-.22-1.01-.22-1-.22-1.01-.22-1-.23-1.01-.23-1-.23-1-.24-1-.24-1-.24-.99-.24-1-.25-1-.25-.99-.25-.99-.25-.99-.26-.99-.26-.99-.27-.99-.26-.99-.27-.98-.28-.99-.27-.98-.28-.98-.28-.99-.28-.98-.29-.97-.29-.98-.29-.98-.29-.97-.3-.98-.3-.97-.31-.97-.3-.97-.31-.97-.31-.97-.32-.97-.31-.97-.32-.96-.33-.96-.32-.97-.33-.96-.33-.96-.34-.96-.34-.96-.34-.95-.34-.96-.34-.95-.35-.96-.35-.95-.36-.95-.36-.95-.36-.95-.36-.95-.36-.94-.37-.95-.37-.94-.38-.94-.37-.95-.38-.94-.39-.94-.38-.94-.39-.93-.39-.94-.39-.93-.4-.94-.4-.93-.4-.93-.41-.93-.41-.93-.41-.93-.41-.93-.42-.92-.42-.93-.42-.92-.42-.92-.43-.92-.43-.92-.43-.92-.44-.92-.44-.92-.44-.91-.45-.91-.44-.92-.45-.91-.46-.91-.45-.91-.46-.91-.46-.91-.47-.9-.46-.91-.47-.9-.48-.9-.47-.9-.48-.9-.48-.9m33.94 94.61.68-.92.68-.92.68-.93.67-.92.68-.92.68-.92.68-.92.69-.92.68-.92.68-.92.68-.92.68-.92.69-.92.68-.91.69-.92.68-.92.69-.91.69-.92.68-.91.69-.92.69-.91.69-.92.69-.91.69-.91.69-.92.69-.91.69-.91.69-.91.69-.91.69-.91.7-.91.69-.91.7-.91.69-.9.7-.91.69-.91.7-.91.7-.9.69-.91.7-.9.7-.91.7-.9.7-.9.7-.91.7-.9.7-.9.7-.9.71-.91.7-.9.7-.9.71-.9.7-.9.71-.9.7-.89.71-.9.7-.9.71-.9.71-.89.71-.9.71-.89.71-.9.71-.89.71-.9.71-.89.71-.9.71-.89.71-.89.72-.89.71-.89.71-.89.72-.9.71-.89.72-.88.72-.89.71-.89.72-.89.72-.89.72-.88.71-.89.72-.89.72-.88.72-.89.73-.88.72-.89.72-.88.72-.88.73-.89.72-.88.72-.88.73-.88.72-.88.73-.88.73-.88.72-.88.73-.88.73-.88.73-.88.73-.88.72-.87" style="stroke-width:1.07;stroke:#000000;stroke-opacity:0.10;stroke-linecap:butt"/><path d="m109.26 365.45-.26-.99-.26-.99-.26-.98-.27-.99-.26-.99-.27-.99-.27-.98-.27-.99-.28-.98-.27-.98-.28-.99-.28-.98-.28-.98-.28-.98-.28-.98-.29-.98-.29-.98-.28-.98-.29-.97-.3-.98-.29-.98-.3-.97-.29-.97-.3-.98-.3-.97-.3-.97-.31-.98-.3-.97-.31-.97-.31-.97-.31-.97-.31-.96-.32-.97-.31-.97-.32-.96-.32-.97-.32-.96-.32-.97-.33-.96-.32-.96-.33-.97-.33-.96-.33-.96-.33-.96-.34-.96-.33-.96-.34-.95-.34-.96-.34-.96-.34-.95-.35-.96-.35-.95-.34-.96-.35-.95-.35-.95-.36-.95-.35-.95-.36-.95-.36-.95-.36-.95-.36-.95-.36-.95-.37-.94-.36-.95-.37-.94-.37-.95-.37-.94-.38-.95-.37-.94-.38-.94-.38-.94-.38-.94-.38-.94-.38-.94-.39-.94-.38-.94-.39-.93-.39-.94-.4-.94-.39-.93-.4-.94-.39-.93-.4-.93-.4-.93-.4-.94-.41-.93-.4-.93-.41-.93-.41-.92-.41-.93-.41-.93-.42-.93-.41-.92-.42-.93-.42-.92-.42-.93-.42-.92-.43-.92-.42-.92m33.94 94.61.63-.97.62-.97.63-.96.63-.97.63-.96.64-.97.63-.96.64-.96.64-.96.63-.95.65-.96.64-.95.64-.96.65-.95.65-.95.65-.95.65-.94.65-.95.65-.95.66-.94.66-.94.65-.94.66-.94.67-.94.66-.93.66-.94.67-.93.67-.93.67-.93.67-.93.67-.93.68-.92.68-.93.67-.92.68-.92.68-.92.69-.92.68-.92.69-.92.68-.91.69-.91.69-.91.7-.92.69-.9.7-.91.69-.91.7-.9.7-.91.7-.9.71-.9.7-.9.71-.89.71-.9.71-.89.71-.9.71-.89.72-.89.71-.89.72-.89.72-.88.72-.89.72-.88.73-.88.72-.88.73-.88.73-.88.73-.88.73-.87.74-.87.73-.88.74-.87.74-.87.74-.86.74-.87.74-.87.75-.86.74-.86.75-.86.75-.86.75-.86.76-.85.75-.86.76-.85.76-.85.76-.86.76-.84.76-.85.76-.85.77-.84.77-.85.77-.84.77-.84.77-.84.77-.84.78-.83.77-.84.78-.83.78-.83.78-.83" style="stroke-width:1.07;stroke:#000000;stroke-opacity:0.10;stroke-linecap:butt"/><path d="m109.26 365.45-.31-.96-.32-.97-.32-.97-.31-.96-.32-.97-.32-.97-.32-.96-.32-.97-.32-.96-.32-.97-.32-.96-.32-.97-.32-.96-.32-.97-.33-.96-.32-.96-.32-.97-.33-.96-.32-.96-.33-.96-.33-.97-.32-.96-.33-.96-.33-.96-.33-.96-.33-.97-.33-.96-.33-.96-.33-.96-.33-.96-.33-.96-.33-.96-.34-.96-.33-.96-.34-.96-.33-.96-.34-.95-.33-.96-.34-.96-.34-.96-.33-.96-.34-.95-.34-.96-.34-.96-.34-.96-.34-.95-.34-.96-.34-.95-.35-.96-.34-.96-.34-.95-.35-.96-.34-.95-.35-.96-.34-.95-.35-.96-.35-.95-.34-.95-.35-.96-.35-.95-.35-.95-.35-.96-.35-.95-.35-.95-.35-.95-.35-.96-.36-.95-.35-.95-.35-.95-.36-.95-.35-.95-.36-.95-.35-.95-.36-.95-.36-.95-.35-.95-.36-.95-.36-.95-.36-.95-.36-.95-.36-.95-.36-.95-.36-.95-.36-.94-.37-.95-.36-.95-.36-.95-.37-.94-.36-.95-.37-.95-.36-.94-.37-.95-.37-.94-.37-.95-.36-.94-.37-.95-.37-.94-.37-.95-.37-.94m33.94 94.61-.68.86-.69.86-.68.86-.68.86-.67.87-.68.86-.67.87-.68.87-.67.86-.67.87-.67.87-.66.88-.67.87-.66.87-.66.88-.66.88-.66.88-.66.87-.65.89-.66.88-.65.88-.65.88-.65.89-.64.89-.65.88-.64.89-.64.89-.64.9-.64.89-.64.89-.63.9-.64.89-.63.9-.63.9-.63.9-.63.9-.62.91-.63.9-.62.9-.62.91-.62.91-.62.91-.61.91-.62.91-.61.91-.61.91-.61.92-.61.91-.6.92-.61.92-.6.92-.6.92-.6.92-.6.93-.6.92-.59.93-.59.92-.59.93-.59.93-.59.93-.59.93-.58.94-.59.93-.58.94-.58.93-.58.94-.57.94-.58.94-.57.94-.57.95-.57.94-.57.95-.57.94-.56.95-.57.95-.56.95-.56.95-.56.95-.56.96-.55.95-.56.96-.55.96-.55.96-.55.96-.55.96-.54.96-.55.96-.54.97-.54.96-.54.97-.54.97-.53.97-.54.97-.53.97-.53.98-.53.97-.53.98-.52.97-.53.98m59.84-90.93-.37-.94-.37-.95-.37-.94-.37-.95-.37-.94-.36-.95-.37-.94-.37-.95-.36-.95-.37-.94-.36-.95-.37-.95-.36-.94-.37-.95-.36-.95-.36-.95-.36-.94-.36-.95-.36-.95-.36-.95-.36-.95-.36-.95-.36-.95-.36-.95-.35-.95-.36-.95-.36-.95-.35-.95-.36-.95-.35-.95-.35-.95-.36-.95-.35-.95-.35-.96-.35-.95-.35-.95-.35-.95-.35-.96-.35-.95-.35-.95-.35-.96-.35-.95-.34-.96-.35-.95-.35-.95-.34-.96-.35-.95-.34-.96-.34-.95-.35-.96-.34-.96-.34-.95-.34-.96-.34-.96-.34-.95-.34-.96-.34-.96-.34-.95-.34-.96-.33-.96-.34-.96-.34-.96-.33-.96-.34-.95-.33-.96-.33-.96-.34-.96-.33-.96-.33-.96-.33-.96-.34-.96-.33-.96-.33-.97-.32-.96-.33-.96-.33-.96-.33-.96-.33-.96-.32-.97-.33-.96-.32-.96-.33-.97-.32-.96-.33-.96-.32-.97-.32-.96-.32-.96-.33-.97-.32-.96-.32-.97-.32-.96-.32-.97-.31-.96-.32-.97-.32-.97-.32-.96-.31-.97-.32-.97-.31-.96m33.94 94.61.57-1.01.58-1.02.58-1.01.58-1.01.58-1.01.59-1 .59-1 .59-1 .59-1 .6-1 .6-.99.6-.99.61-.99.6-.98.62-.99.61-.98.61-.98.62-.97.62-.98.63-.97.62-.97.63-.96.63-.97.64-.96.63-.96.64-.96.65-.95.64-.95.65-.95.65-.95.65-.95.66-.94.65-.94.67-.94.66-.93.67-.94.66-.93.68-.93.67-.92.68-.93.68-.92.68-.92.68-.92.69-.91.69-.91.69-.91.7-.91.7-.91.7-.9.7-.9.71-.9.71-.89.71-.9.71-.89.72-.88.72-.89.72-.88.73-.89.72-.88.73-.87.74-.88.73-.87.74-.87.74-.87.74-.86.75-.86.75-.86.75-.86.75-.86.76-.85.76-.85.76-.85.77-.84.76-.85.77-.84.78-.84.77-.83.78-.84.78-.83.78-.83.79-.83.79-.82.79-.82.79-.82.8-.82.8-.81.8-.82.81-.81.8-.81.81-.8.82-.8.81-.8.82-.8.82-.8.82-.79.83-.79.83-.79.83-.79.83-.78" style="stroke-width:1.07;stroke:#000000;stroke-opacity:0.10;stroke-linecap:butt"/><path d="m109.26 365.45-.42-.92-.43-.92-.42-.93-.42-.92-.42-.92-.42-.93-.42-.92-.41-.93-.41-.93-.41-.93-.41-.93-.41-.92-.4-.93-.41-.94-.4-.93-.4-.93-.4-.93-.4-.94-.39-.93-.4-.93-.39-.94-.39-.94-.39-.93-.38-.94-.39-.94-.38-.94-.39-.94-.38-.94-.37-.94-.38-.94-.38-.94-.37-.95-.37-.94-.37-.95-.37-.94-.37-.95-.36-.94-.36-.95-.37-.95-.36-.95-.35-.95-.36-.95-.36-.95-.35-.95-.35-.95-.35-.96-.35-.95-.34-.95-.35-.96-.34-.95-.34-.96-.34-.96-.34-.96-.34-.95-.33-.96-.33-.96-.33-.96-.33-.97-.33-.96-.33-.96-.32-.96-.32-.97-.32-.96-.32-.97-.32-.96-.32-.97-.31-.97-.31-.97-.31-.97-.31-.96-.31-.97-.3-.98-.31-.97-.3-.97-.3-.97-.3-.98-.3-.97-.29-.98-.3-.97-.29-.98-.29-.98-.29-.97-.28-.98-.29-.98-.28-.98-.28-.98-.28-.98-.28-.99-.28-.98-.27-.98-.28-.99-.27-.98-.27-.99-.27-.98-.26-.99-.27-.99-.26-.98-.26-.99-.26-.99m209.08 34.68 1.02.2 1.02.19 1.02.19 1.02.19 1.02.2 1.02.19 1.02.19 1.02.19 1.01.19 1.02.2 1.02.19 1.02.19 1.02.19 1.02.2 1.02.19 1.02.19 1.02.19 1.02.19 1.02.2 1.02.19 1.02.19 1.02.19 1.02.2 1.01.19 1.02.19 1.02.19 1.02.2 1.02.19 1.02.19 1.02.19 1.02.19 1.02.2 1.02.19 1.02.19 1.02.19 1.02.2 1.02.19 1.02.19 1.02.19 1.01.19 1.02.2 1.02.19 1.02.19 1.02.19 1.02.2 1.02.19 1.02.19 1.02.19 1.02.19 1.02.2 1.02.19 1.02.19 1.02.19 1.02.2 1.02.19 1.01.19 1.02.19 1.02.19 1.02.2 1.02.19 1.02.19 1.02.19 1.02.2 1.02.19 1.02.19 1.02.19 1.02.2 1.02.19 1.02.19 1.02.19 1.02.19 1.01.2 1.02.19 1.02.19 1.02.19 1.02.2 1.02.19 1.02.19 1.02.19 1.02.19 1.02.2 1.02.19 1.02.19 1.02.19 1.02.2 1.02.19 1.01.19 1.02.19 1.02.19 1.02.2 1.02.19 1.02.19 1.02.19 1.02.2 1.02.19 1.02.19 1.02.19 1.02.19 1.02.2m-276.06 40.89.52-1.06.53-1.06.52-1.06.54-1.05.53-1.05.54-1.05.54-1.04.55-1.04.55-1.03.56-1.04.55-1.03.57-1.02.56-1.03.57-1.02.57-1.01.58-1.02.58-1.01.59-1 .58-1.01.59-1 .6-.99.6-1 .6-.99.61-.98.61-.99.61-.98.62-.97.62-.98.63-.97.63-.96.63-.97.63-.96.64-.95.65-.96.65-.95.65-.94.65-.95.66-.94.66-.93.67-.94.67-.93.67-.92.68-.93.68-.92.69-.91.68-.92.7-.91.69-.91.7-.9.71-.9.7-.9.71-.89.72-.89.72-.89.72-.88.73-.88.73-.88.73-.87.74-.87.74-.87.74-.86.75-.87.75-.85.76-.86.76-.85.76-.84.77-.85.77-.84.77-.84.78-.83.78-.83.79-.83.79-.82.79-.82.8-.82.8-.81.8-.82.81-.8.81-.81.81-.8.82-.8.83-.79.82-.79.83-.79.84-.78.84-.78.84-.78.84-.78.85-.77.85-.76.86-.77.86-.76.86-.76.87-.75.87-.75.88-.75.88-.75.88-.74.88-.73" style="stroke-width:1.07;stroke:#000000;stroke-opacity:0.10;stroke-linecap:butt"/><path d="m109.26 365.45-.48-.9-.48-.9-.47-.9-.48-.9-.47-.91-.46-.9-.47-.91-.46-.9-.46-.91-.46-.91-.45-.91-.45-.91-.45-.92-.44-.91-.44-.92-.44-.91-.44-.92-.43-.92-.43-.92-.43-.92-.42-.92-.43-.93-.42-.92-.41-.93-.42-.92-.41-.93-.4-.93-.41-.93-.4-.93-.4-.93-.4-.94-.39-.93-.39-.94-.39-.94-.39-.93-.38-.94-.38-.94-.38-.95-.37-.94-.37-.94-.37-.95-.36-.95-.37-.94-.36-.95-.35-.95-.36-.95-.35-.96-.35-.95-.34-.95-.35-.96-.34-.96-.33-.95-.34-.96-.33-.96-.33-.96-.32-.97-.33-.96-.32-.97-.32-.96-.31-.97-.31-.97-.31-.97-.31-.97-.3-.97-.3-.97-.3-.98-.29-.97-.29-.98-.29-.98-.29-.98-.28-.98-.28-.98-.28-.98-.28-.98-.27-.99-.27-.98-.27-.99-.26-.99-.26-.99-.26-.99-.25-.99-.26-.99-.25-1-.24-.99-.25-1-.24-.99-.24-1-.23-1-.23-1-.23-1-.23-1.01-.22-1-.23-1.01-.21-1-.22-1.01-.21-1.01-.21-1.01-.21-1.01-.2-1.01m33.94 94.61.47-1.11.47-1.1.48-1.1.48-1.1.49-1.09.49-1.09.5-1.08.5-1.08.51-1.08.51-1.07.52-1.07.52-1.06.53-1.06.53-1.05.53-1.05.54-1.05.55-1.04.55-1.03.55-1.04.56-1.02.57-1.03.57-1.02.57-1.01.58-1.01.58-1.01.59-1 .59-1 .6-1 .61-.99.6-.98.62-.98.61-.98.62-.97.63-.97.63-.97.64-.96.64-.95.65-.95.65-.95.65-.94.66-.94.67-.94.67-.93.67-.92.68-.93.69-.91.68-.92.7-.91.7-.9.7-.9.71-.9.71-.89.72-.89.72-.88.73-.88.73-.87.74-.87.74-.87.75-.86.75-.86.76-.85.76-.85.76-.85.77-.84.78-.83.78-.84.78-.82.79-.83.8-.82.8-.81.8-.81.81-.81.81-.8.82-.8.83-.79.82-.79.84-.79.83-.78.85-.78.84-.77.86-.77.85-.76.87-.76.86-.76.87-.75.88-.74.88-.75.89-.73.89-.74.89-.73.9-.72.91-.73.91-.71.91-.71.92-.71.92-.71.93-.7.94-.69.93-.69" style="stroke-width:1.07;stroke:#000000;stroke-opacity:0.10;stroke-linecap:butt"/><path d="m109.26 365.45-.54-.87-.53-.88-.53-.88-.52-.88-.52-.89-.52-.88-.51-.89-.51-.89-.51-.88-.5-.9-.5-.89-.49-.89-.49-.9-.48-.9-.49-.9-.47-.9-.48-.9-.47-.9-.46-.91-.46-.9-.46-.91-.45-.91-.45-.92-.45-.91-.44-.92-.44-.91-.43-.92-.43-.92-.43-.92-.42-.93-.42-.92-.41-.93-.41-.93-.41-.93-.4-.93-.4-.93-.4-.93-.39-.94-.38-.94-.39-.94-.37-.94-.38-.94-.37-.95-.37-.94-.36-.95-.36-.95-.35-.95-.35-.95-.35-.96-.34-.95-.34-.96-.34-.96-.33-.96-.32-.96-.33-.97-.32-.96-.31-.97-.31-.97-.31-.97-.3-.97-.3-.97-.3-.98-.29-.97-.29-.98-.28-.98-.28-.98-.28-.99-.27-.98-.26-.99-.27-.99-.26-.99-.25-.99-.26-.99-.24-1-.25-.99-.24-1-.23-1-.24-1-.22-1-.23-1.01-.22-1-.21-1.01-.22-1.01-.2-1.01-.21-1.01-.2-1.02-.2-1.01-.19-1.02-.19-1.02-.18-1.02-.18-1.02-.18-1.02-.17-1.03-.17-1.03-.16-1.02-.17-1.03-.15-1.04-.15-1.03-.15-1.03m33.94 94.61-.63.9-.63.9-.63.9-.63.9-.63.9-.63.9-.62.9-.63.9-.63.9-.62.91-.63.9-.63.9-.62.9-.62.91-.63.9-.62.91-.62.9-.62.91-.63.9-.62.91-.62.91-.62.9-.62.91-.61.91-.62.91-.62.91-.62.91-.61.9-.62.91-.61.92-.62.91-.61.91-.62.91-.61.91-.61.91-.61.92-.62.91-.61.91-.61.92-.61.91-.61.92-.61.91-.6.92-.61.91-.61.92-.61.92-.6.91-.61.92-.6.92-.61.92-.6.92-.6.92-.61.92-.6.92-.6.92-.6.92-.6.92-.6.92-.6.92-.6.92-.6.93-.6.92-.59.92-.6.93-.6.92-.59.93-.6.92-.59.93-.6.93-.59.92-.59.93-.6.93-.59.92-.59.93-.59.93-.59.93-.59.93-.59.93-.59.93-.59.93-.58.93-.59.93-.59.94-.58.93-.59.93-.58.93-.59.94-.58.93-.59.94-.58.93-.58.94-.58.93-.58.94-.58.93-.58.94-.58.94-.58.94-.58.93-.58.94" style="stroke-width:1.07;stroke:#000000;stroke-opacity:0.10;stroke-linecap:butt"/><path d="m109.26 365.45-.59-.85-.59-.86-.58-.86-.58-.86-.57-.86-.57-.86-.56-.87-.55-.87-.56-.87-.54-.87-.54-.87-.54-.88-.53-.88-.53-.88-.52-.88-.51-.89-.52-.89-.5-.89-.5-.89-.5-.89-.49-.9-.48-.89-.48-.9-.48-.9-.47-.91-.46-.9-.46-.91-.46-.91-.45-.91-.44-.92-.44-.91-.44-.92-.43-.92-.42-.93-.42-.92-.41-.93-.41-.93-.41-.93-.4-.93-.39-.93-.39-.94-.38-.94-.38-.94-.37-.94-.37-.95-.37-.95-.35-.95-.36-.95-.34-.95-.35-.96-.34-.96-.33-.96-.33-.96-.32-.96-.32-.97-.31-.97-.31-.97-.3-.97-.29-.97-.3-.98-.28-.98-.29-.98-.27-.98-.27-.99-.27-.98-.26-.99-.26-.99-.25-1-.25-.99-.24-1-.23-1-.23-1-.23-1-.22-1.01-.22-1.01-.21-1.01-.2-1.01-.2-1.01-.2-1.02-.19-1.02-.18-1.02-.18-1.02-.18-1.02-.17-1.03-.16-1.03-.16-1.03-.16-1.03-.15-1.03-.14-1.04-.14-1.04-.13-1.04-.13-1.04-.13-1.05-.12-1.05-.11-1.05-.11-1.05-.1-1.05-.1-1.06-.09-1.05m33.94 94.61-.58.94-.57.94-.58.94-.58.93-.58.94-.58.94-.58.93-.59.94-.58.93-.58.94-.58.93-.59.94-.58.93-.59.93-.58.94-.59.93-.59.93-.58.93-.59.93-.59.93-.59.93-.59.93-.59.93-.59.93-.59.93-.59.93-.59.93-.59.92-.6.93-.59.93-.59.92-.6.93-.59.93-.6.92-.6.92-.59.93-.6.92-.6.93-.6.92-.59.92-.6.92-.6.93-.6.92-.61.92-.6.92-.6.92-.6.92-.61.92-.6.92-.6.91-.61.92-.61.92-.6.92-.61.91-.6.92-.61.92-.61.91-.61.92-.61.91-.61.92-.61.91-.61.91-.61.92-.61.91-.62.91-.61.92-.61.91-.62.91-.61.91-.62.91-.61.91-.62.91-.62.91-.61.91-.62.9-.62.91-.62.91-.62.91-.62.9-.62.91-.62.91-.62.9-.63.91-.62.9-.62.91-.63.9-.62.9-.63.91-.62.9-.63.9-.62.9-.63.9-.63.9-.63.9-.63.91-.63.89-.63.9-.63.9-.63.9" style="stroke-width:1.07;stroke:#000000;stroke-opacity:0.10;stroke-linecap:butt"/><path d="m109.26 365.45-.65-.83-.64-.83-.63-.84-.63-.84-.62-.84-.62-.84-.61-.85-.61-.85-.59-.85-.6-.85-.58-.86-.58-.86-.57-.86-.57-.87-.56-.86-.56-.87-.54-.87-.55-.88-.53-.88-.53-.88-.52-.88-.52-.88-.51-.89-.51-.89-.49-.89-.5-.9-.48-.89-.48-.9-.48-.91-.46-.9-.46-.91-.46-.91-.45-.91-.44-.91-.44-.92-.43-.92-.42-.93-.42-.92-.41-.93-.4-.93-.4-.93-.4-.94-.38-.93-.38-.95-.38-.94-.36-.94-.37-.95-.35-.95-.35-.96-.34-.95-.34-.96-.33-.96-.32-.96-.32-.97-.31-.97-.31-.97-.3-.97-.29-.98-.29-.98-.28-.98-.27-.98-.27-.99-.26-.99-.26-.99-.25-.99-.24-1-.24-1-.23-1-.23-1-.21-1.01-.22-1.01-.2-1.01-.2-1.01-.2-1.02-.18-1.02-.18-1.02-.18-1.03-.17-1.02-.16-1.03-.16-1.03-.15-1.04-.14-1.04-.14-1.04-.13-1.04-.12-1.04-.12-1.05-.12-1.05-.1-1.05-.1-1.06-.1-1.05-.08-1.06-.09-1.07-.07-1.06-.07-1.07-.06-1.07-.06-1.07-.05-1.08-.05-1.07-.03-1.08m33.94 94.61-.52.98-.53.98-.53.97-.53.98-.53.97-.53.97-.53.97-.54.97-.54.97-.54.97-.54.97-.54.96-.54.97-.55.96-.55.96-.55.96-.55.96-.55.96-.55.95-.56.96-.56.95-.56.95-.56.95-.56.95-.56.95-.57.95-.56.95-.57.94-.57.95-.57.94-.58.94-.57.94-.58.94-.58.94-.58.94-.58.93-.58.94-.59.93-.58.93-.59.93-.59.93-.59.93-.6.93-.59.92-.6.93-.6.92-.59.92-.61.92-.6.92-.6.92-.61.92-.61.92-.61.91-.61.91-.61.92-.61.91-.62.91-.62.91-.62.9-.62.91-.62.9-.62.91-.63.9-.63.9-.63.9-.63.9-.63.9-.63.9-.64.89-.63.9-.64.89-.64.89-.65.89-.64.89-.64.89-.65.88-.65.89-.65.88-.65.89-.65.88-.66.88-.66.88-.65.88-.66.87-.67.88-.66.87-.66.88-.67.87-.67.87-.67.87-.67.87-.67.87-.68.86-.67.87-.68.86-.68.86-.68.86-.68.86-.69.86" style="stroke-width:1.07;stroke:#000000;stroke-opacity:0.10;stroke-linecap:butt"/><path d="m109.26 365.45-.7-.81-.7-.81-.69-.81-.68-.82-.67-.82-.67-.82-.66-.83-.65-.83-.64-.83-.64-.84-.63-.84-.62-.84-.62-.84-.6-.85-.6-.85-.6-.86-.58-.85-.58-.86-.57-.86-.56-.87-.56-.87-.55-.87-.54-.88-.53-.87-.53-.88-.52-.89-.51-.88-.51-.89-.49-.9-.49-.89-.49-.9-.47-.9-.47-.91-.46-.9-.45-.92-.45-.91-.44-.92-.43-.92-.42-.92-.42-.92-.41-.93-.4-.93-.39-.94-.39-.94-.38-.94-.37-.94-.37-.95-.36-.95-.35-.95-.34-.96-.33-.95-.33-.97-.32-.96-.32-.97-.3-.97-.3-.97-.29-.98-.29-.98-.27-.98-.27-.99-.26-.99-.26-.99-.25-.99-.24-1-.23-1-.22-1.01-.22-1-.21-1.01-.21-1.01-.19-1.02-.19-1.02-.18-1.02-.18-1.03-.16-1.02-.16-1.03-.15-1.04-.15-1.03-.13-1.04-.13-1.05-.13-1.04-.11-1.05-.11-1.05-.1-1.06-.09-1.06-.09-1.06-.08-1.06-.07-1.07-.06-1.07-.06-1.07-.05-1.08-.04-1.08-.03-1.08-.03-1.08-.02-1.09-.01-1.09v-2.19l.01-1.1.02-1.1m33.94 94.61-.47 1.02-.47 1.02-.48 1.01-.48 1.01-.48 1.01-.49 1.01-.48 1.01-.5 1-.49 1-.49 1-.5 1-.5 1-.51.99-.5.99-.51.99-.52.99-.51.99-.52.98-.52.98-.52.98-.53.98-.52.97-.54.98-.53.97-.54.97-.54.96-.54.97-.54.96-.55.96-.55.96-.55.96-.56.96-.56.95-.56.95-.56.95-.57.95-.57.94-.57.94-.57.94-.58.94-.58.94-.58.93-.59.94-.59.93-.59.93-.59.92-.6.93-.6.92-.6.92-.6.92-.61.92-.61.91-.61.91-.62.91-.61.91-.63.91-.62.9-.62.9-.63.9-.64.9-.63.9-.64.89-.64.89-.64.89-.64.89-.65.89-.65.88-.66.88-.65.88-.66.88-.66.88-.67.87-.66.87-.67.87-.68.87-.67.87-.68.86-.68.86-.68.86-.69.86-.69.85-.69.86-.69.85-.7.85-.7.84-.7.85-.71.84-.7.84-.71.84-.72.84-.71.83-.72.84-.72.83-.73.83-.72.82-.73.83-.74.82-.73.82-.74.82" style="stroke-width:1.07;stroke:#000000;stroke-opacity:0.10;stroke-linecap:butt"/><path d="m109.26 365.45-.76-.78-.75-.79-.74-.8-.73-.79-.73-.8-.71-.81-.71-.8-.7-.81-.69-.82-.68-.81-.68-.82-.66-.83-.66-.83-.65-.83-.64-.83-.63-.84-.62-.84-.61-.85-.61-.84-.6-.86-.59-.85-.58-.86-.57-.86-.56-.87-.56-.87-.54-.87-.54-.87-.53-.88-.52-.89-.51-.88-.51-.89-.49-.9-.49-.89-.48-.9-.47-.91-.46-.91-.45-.91-.45-.91-.44-.92-.42-.92-.42-.92-.41-.93-.41-.93-.39-.94-.38-.94-.38-.94-.37-.94-.36-.95-.35-.95-.34-.96-.34-.96-.32-.96-.32-.97-.31-.97-.3-.97-.29-.98-.29-.98-.27-.98-.27-.99-.26-.99-.25-.99-.24-1-.23-1-.22-1-.22-1.01-.21-1.01-.2-1.02-.19-1.02-.18-1.02-.17-1.02-.16-1.03-.16-1.03-.15-1.04-.14-1.04-.13-1.04-.12-1.04-.12-1.05-.1-1.06-.1-1.05-.09-1.06-.08-1.07-.07-1.06-.06-1.07-.05-1.08-.05-1.07-.04-1.08-.03-1.09-.02-1.08-.01-1.09v-2.2l.02-1.1.02-1.1.03-1.11.04-1.11.04-1.12.06-1.12.06-1.12.08-1.12" style="stroke-width:1.07;stroke:#000000;stroke-opacity:0.10;stroke-linecap:butt"/><path d="m75.32 270.84 1.02.57 1.02.56 1.02.55 1.03.55 1.02.53 1.03.52 1.02.51 1.03.5 1.02.49 1.03.47 1.03.47 1.03.46 1.02.45 1.03.43 1.03.43 1.03.41 1.03.41 1.03.39 1.03.38 1.04.37 1.03.37 1.03.35 1.03.34 1.04.33 1.03.32 1.04.31 1.03.3 1.04.28 1.03.28 1.04.27 1.04.25 1.03.25 1.04.24 1.04.22 1.04.21 1.04.21 1.04.19 1.04.18 1.04.17 1.04.16 1.04.15 1.05.14 1.04.13 1.04.12 1.05.11 1.04.1 1.04.09 1.05.07 1.05.07 1.04.05 1.05.05 1.05.03 1.04.03 1.05.01h1.05l1.05-.01 1.05-.01 1.05-.03 1.05-.04 1.05-.05 1.05-.07 1.06-.07 1.05-.08 1.05-.09 1.06-.1 1.05-.12 1.06-.12 1.05-.14 1.06-.14 1.05-.16 1.06-.17 1.06-.17 1.05-.19 1.06-.2 1.06-.21 1.06-.22 1.06-.23 1.06-.24 1.06-.25 1.06-.26 1.06-.27 1.06-.29 1.07-.29 1.06-.3 1.06-.32 1.07-.32 1.06-.34 1.07-.35 1.06-.35 1.07-.37 1.07-.38 1.06-.39 1.07-.4 1.07-.41 1.07-.42 1.07-.43 1.06-.44 1.07-.45 1.07-.46" style="stroke-width:1.07;stroke:#000000;stroke-opacity:0.10;stroke-linecap:butt"/><path d="m75.32 270.84 1.02.5 1.03.5 1.02.48 1.03.48 1.03.47 1.03.45 1.02.45 1.03.44 1.03.44 1.03.42 1.03.41 1.03.4 1.03.4 1.03.38 1.03.38 1.04.37 1.03.35 1.03.35 1.03.34 1.04.33 1.03.32 1.04.31 1.03.31 1.04.29 1.03.28 1.04.28 1.03.27 1.04.25 1.04.25 1.04.24 1.03.23 1.04.22 1.04.21 1.04.2 1.04.19 1.04.19 1.04.17 1.04.17 1.05.15 1.04.15 1.04.14 1.04.13 1.05.12 1.04.11 1.04.1 1.05.09 1.04.08 1.05.08 1.05.06 1.04.06 1.05.04 1.05.04 1.04.03 1.05.02 1.05.01h1.05l1.05-.01 1.05-.02 1.05-.03 1.05-.03 1.05-.05 1.05-.05 1.05-.07 1.06-.07 1.05-.08 1.05-.09 1.06-.1 1.05-.11 1.05-.12 1.06-.13 1.05-.14 1.06-.14 1.06-.16 1.05-.16 1.06-.18 1.06-.18 1.05-.19 1.06-.2 1.06-.21 1.06-.22 1.06-.23 1.06-.24 1.06-.25 1.06-.25 1.06-.27 1.06-.27 1.07-.29 1.06-.29 1.06-.3 1.07-.31 1.06-.32 1.06-.33 1.07-.34 1.06-.35 1.07-.36 1.06-.36 1.07-.38 1.07-.38 1.06-.39" style="stroke-width:1.07;stroke:#000000;stroke-opacity:0.10;stroke-linecap:butt"/><path d="m75.32 270.84 1.03.43 1.02.43 1.03.42 1.03.41 1.03.4 1.03.4 1.03.39 1.04.38 1.03.37 1.03.37 1.03.36 1.03.35 1.04.34 1.03.33 1.03.33 1.04.32 1.03.31 1.04.3 1.03.3 1.04.29 1.03.28 1.04.27 1.04.26 1.03.26 1.04.25 1.04.24 1.04.24 1.04.22 1.03.22 1.04.21 1.04.2 1.04.2 1.04.19 1.04.17 1.05.18 1.04.16 1.04.16 1.04.14 1.04.15 1.05.13 1.04.12 1.04.12 1.05.11 1.04.1 1.04.1 1.05.08 1.04.08 1.05.07 1.05.06 1.04.06 1.05.05 1.05.04 1.04.03 1.05.02 1.05.02 1.05.01h1.05l1.05-.01 1.05-.01 1.05-.02 1.05-.03 1.05-.04 1.05-.05 1.05-.05 1.05-.06 1.05-.07 1.06-.08 1.05-.08 1.05-.09 1.06-.1 1.05-.11 1.05-.11 1.06-.13 1.05-.13 1.06-.14 1.05-.14 1.06-.16 1.06-.16 1.05-.17 1.06-.17 1.06-.19 1.06-.19 1.05-.2 1.06-.21 1.06-.22 1.06-.22 1.06-.23 1.06-.24 1.06-.25 1.06-.25 1.06-.27 1.06-.27 1.07-.27 1.06-.29 1.06-.29 1.06-.3 1.07-.31 1.06-.32 1.06-.32" style="stroke-width:1.07;stroke:#000000;stroke-opacity:0.10;stroke-linecap:butt"/><path d="m75.32 270.84 1.03.36 1.03.36 1.03.36 1.04.34 1.03.34 1.03.34 1.04.33 1.03.32 1.03.31 1.04.31 1.03.31 1.04.29 1.03.29 1.04.29 1.04.27 1.03.27 1.04.27 1.04.26 1.03.25 1.04.24 1.04.24 1.04.24 1.03.22 1.04.22 1.04.22 1.04.2 1.04.21 1.04.19 1.04.19 1.04.18 1.04.18 1.04.17 1.04.16 1.05.16 1.04.15 1.04.14 1.04.14 1.05.13 1.04.13 1.04.11 1.05.12 1.04.1 1.04.1 1.05.1 1.04.08 1.05.08 1.04.08 1.05.07 1.05.06 1.04.05 1.05.05 1.05.05 1.04.03 1.05.03 1.05.03 1.05.01 1.05.01 1.04.01h1.05l1.05-.01 1.05-.02 1.05-.02 1.05-.02 1.05-.04 1.05-.04 1.05-.04 1.06-.06 1.05-.05 1.05-.07 1.05-.07 1.05-.08 1.06-.08 1.05-.09 1.05-.1 1.06-.1 1.05-.11 1.06-.12 1.05-.12 1.06-.13 1.05-.14 1.06-.14 1.05-.14 1.06-.16 1.05-.16 1.06-.17 1.06-.17 1.05-.18 1.06-.18 1.06-.2 1.06-.19 1.06-.21 1.06-.21 1.05-.22 1.06-.22 1.06-.23 1.06-.24 1.06-.24 1.06-.25 1.06-.25" style="stroke-width:1.07;stroke:#000000;stroke-opacity:0.10;stroke-linecap:butt"/><path d="m75.32 270.84 1.03.29 1.04.3 1.03.28 1.04.29 1.03.27 1.04.27 1.04.27 1.03.26 1.04.26 1.04.26 1.04.24 1.03.25 1.04.23 1.04.24 1.04.22 1.04.23 1.03.22 1.04.21 1.04.21 1.04.2 1.04.2 1.04.19 1.04.19 1.04.18 1.04.18 1.04.18 1.04.17 1.05.16 1.04.16 1.04.15 1.04.15 1.04.15 1.05.14 1.04.13 1.04.13 1.04.12 1.05.12 1.04.12 1.05.11 1.04.1 1.04.1 1.05.1 1.04.09 1.05.08 1.04.08 1.05.08 1.04.07 1.05.06 1.05.06 1.04.06 1.05.05 1.05.04 1.04.04 1.05.04 1.05.03 1.05.03 1.04.02 1.05.01 1.05.01 1.05.01h2.1l1.05-.01 1.05-.02 1.05-.01 1.05-.03 1.05-.03 1.05-.03 1.05-.04 1.05-.04 1.05-.05 1.05-.05 1.05-.06 1.05-.06 1.06-.07 1.05-.08 1.05-.07 1.05-.09 1.06-.08 1.05-.1 1.05-.09 1.06-.11 1.05-.1 1.06-.12 1.05-.11 1.05-.13 1.06-.12 1.05-.14 1.06-.13 1.05-.14 1.06-.15 1.06-.15 1.05-.16 1.06-.16 1.06-.17 1.05-.17 1.06-.18 1.06-.18 1.05-.18" style="stroke-width:1.07;stroke:#000000;stroke-opacity:0.10;stroke-linecap:butt"/><path d="m75.32 270.84 1.03.22 1.04.23 1.04.22 1.04.22 1.04.21 1.04.21 1.04.21 1.04.2 1.04.2 1.04.2 1.04.19 1.04.19 1.04.19 1.04.18 1.04.18 1.04.17 1.04.17 1.04.17 1.04.17 1.04.16 1.05.15 1.04.16 1.04.15 1.04.15 1.04.14 1.05.14 1.04.14 1.04.13 1.04.13 1.05.12 1.04.13 1.04.11 1.05.12 1.04.11 1.05.11 1.04.1 1.04.11 1.05.09 1.04.1 1.05.09 1.04.09 1.05.08 1.04.08 1.05.08 1.04.07 1.05.07 1.04.06 1.05.07 1.05.05 1.04.06 1.05.05 1.05.05 1.04.05 1.05.04 1.05.03 1.04.04 1.05.03 1.05.03 1.05.02 1.05.02 1.04.02 1.05.01 1.05.01 1.05.01h2.1l1.05-.01 1.05-.01 1.04-.01 1.05-.01 1.05-.02 1.05-.02 1.05-.03 1.05-.03 1.06-.03 1.05-.04 1.05-.04 1.05-.04 1.05-.05 1.05-.05 1.05-.05 1.05-.06 1.05-.06 1.06-.06 1.05-.07 1.05-.07 1.05-.08 1.06-.08 1.05-.08 1.05-.09 1.05-.08 1.06-.1 1.05-.09 1.05-.1 1.06-.11 1.05-.1 1.06-.11 1.05-.12 1.05-.11" style="stroke-width:1.07;stroke:#000000;stroke-opacity:0.10;stroke-linecap:butt"/><path d="m75.32 270.84 1.04.16 1.04.15 1.04.16 1.04.15 1.05.15 1.04.15 1.04.14 1.04.15 1.04.14 1.05.14 1.04.14 1.04.13 1.04.14 1.05.13 1.04.13 1.04.13 1.05.12 1.04.12 1.04.12 1.05.12 1.04.12 1.04.11 1.05.12 1.04.11 1.04.11 1.05.1 1.04.11 1.05.1 1.04.1 1.05.09 1.04.1 1.04.09 1.05.1 1.04.08 1.05.09 1.04.09 1.05.08 1.04.08 1.05.08 1.04.07 1.05.08 1.05.07 1.04.07 1.05.07 1.04.07 1.05.06 1.04.06 1.05.06 1.05.06 1.04.05 1.05.06 1.05.05 1.04.05 1.05.04 1.05.05 1.04.04 1.05.04 1.05.04 1.05.04 1.04.03 1.05.03 1.05.03 1.04.03 1.05.03 1.05.02 1.05.02 1.05.02 1.04.02 1.05.01 1.05.02 1.05.01 1.05.01h1.05l1.05.01h3.14l1.05-.01h1.05l1.05-.01 1.05-.01 1.05-.01 1.05-.02 1.05-.01 1.05-.02 1.05-.02 1.05-.03 1.05-.02 1.05-.03 1.05-.03 1.05-.03 1.05-.03 1.05-.04 1.05-.03 1.05-.04 1.05-.05 1.05-.04 1.05-.05 1.05-.04" style="stroke-width:1.07;stroke:#000000;stroke-opacity:0.10;stroke-linecap:butt"/><path d="m75.32 270.84 1.04.09 1.05.09 1.04.08 1.05.09 1.04.09 1.05.09 1.04.08 1.05.09 1.04.08 1.05.08 1.04.09 1.05.08 1.04.08 1.05.08 1.04.08 1.05.08 1.04.08 1.05.08 1.04.07 1.05.08 1.04.08 1.05.07 1.04.08 1.05.07 1.04.07 1.05.07 1.05.08 1.04.07 1.05.07 1.04.07 1.05.06 1.04.07 1.05.07 1.05.07 1.04.06 1.05.07 1.04.06 1.05.07 1.05.06 1.04.06 1.05.06 1.04.06 1.05.06 1.05.06 1.04.06 1.05.06 1.04.06 1.05.06 1.05.05 1.04.06 1.05.05 1.05.06 1.04.05 1.05.05 1.05.05 1.04.05 1.05.05 1.05.05 1.04.05 1.05.05 1.05.05 1.04.05 1.05.04 1.05.05 1.04.04 1.05.05 1.05.04 1.04.04 1.05.04 1.05.05 1.04.04 1.05.04 1.05.04 1.05.03 1.04.04 1.05.04 1.05.03 1.04.04 1.05.04 1.05.03 1.05.03 1.04.04 1.05.03 1.05.03 1.05.03 1.04.03 1.05.03 1.05.03 1.05.03 1.04.02 1.05.03 1.05.02 1.05.03 1.05.02 1.04.03 1.05.02 1.05.02 1.05.02 1.04.03" style="stroke-width:1.07;stroke:#000000;stroke-opacity:0.10;stroke-linecap:butt"/><path d="m75.32 270.84 1.04.02 1.05.02 1.05.02 1.05.02 1.05.03 1.04.02 1.05.03 1.05.02 1.05.03 1.04.03 1.05.02 1.05.03 1.05.03 1.04.03 1.05.03 1.05.03 1.05.04 1.04.03 1.05.03 1.05.04 1.05.03 1.04.04 1.05.03 1.05.04 1.05.04 1.04.04 1.05.04 1.05.04 1.04.04 1.05.04 1.05.04 1.04.04 1.05.05 1.05.04 1.05.04 1.04.05 1.05.05 1.05.04 1.04.05 1.05.05 1.05.05 1.04.05 1.05.05 1.05.05 1.04.05 1.05.05 1.04.06 1.05.05 1.05.05 1.04.06 1.05.06 1.05.05 1.04.06 1.05.06 1.05.06 1.04.06 1.05.06 1.04.06 1.05.06 1.05.06 1.04.07 1.05.06 1.04.06 1.05.07 1.05.06 1.04.07 1.05.07 1.04.07 1.05.07 1.04.07 1.05.07 1.05.07 1.04.07 1.05.07 1.04.07 1.05.08 1.04.07 1.05.08 1.04.07 1.05.08 1.04.08 1.05.07 1.05.08 1.04.08 1.05.08 1.04.08 1.05.08 1.04.09 1.05.08 1.04.08 1.05.09 1.04.08 1.05.09 1.04.08 1.05.09 1.04.09 1.05.09 1.04.09 1.04.09" style="stroke-width:1.07;stroke:#000000;stroke-opacity:0.10;stroke-linecap:butt"/><path d="m75.32 270.84 1.05-.05 1.05-.05 1.05-.04 1.05-.04 1.05-.04 1.05-.04 1.05-.04 1.05-.03 1.05-.03 1.05-.03 1.05-.03 1.05-.02 1.05-.03 1.05-.02 1.05-.02 1.05-.01 1.05-.02 1.05-.01 1.05-.01 1.05-.01h1.05l1.05-.01h3.15l1.04.01 1.05.01h1.05l1.05.02 1.05.01 1.05.01 1.04.02 1.05.02 1.05.02 1.05.03 1.05.02 1.04.03 1.05.03 1.05.03 1.05.04 1.04.03 1.05.04 1.05.04 1.04.04 1.05.05 1.05.04 1.04.05 1.05.05 1.05.06 1.04.05 1.05.06 1.05.06 1.04.06 1.05.07 1.04.06 1.05.07 1.05.07 1.04.07 1.05.08 1.04.07 1.05.08 1.04.08 1.05.09 1.04.08 1.05.09 1.04.09 1.05.09 1.04.09 1.05.1 1.04.09 1.04.1 1.05.11 1.04.1 1.05.11 1.04.1 1.04.11 1.05.12 1.04.11 1.05.12 1.04.12 1.04.12 1.05.12 1.04.13 1.04.12 1.04.13 1.05.13 1.04.14 1.04.13 1.05.14 1.04.14 1.04.14 1.04.15 1.04.14 1.05.15 1.04.15 1.04.15 1.04.16 1.04.16 1.04.16" style="stroke-width:1.07;stroke:#000000;stroke-opacity:0.10;stroke-linecap:butt"/><path d="m75.32 270.84 1.05-.12 1.05-.11 1.06-.12 1.05-.1 1.06-.11 1.05-.09 1.05-.1 1.06-.09 1.05-.09 1.05-.09 1.06-.08 1.05-.08 1.05-.07 1.05-.08 1.05-.06 1.06-.07 1.05-.06 1.05-.06 1.05-.05 1.05-.05 1.05-.05 1.05-.04 1.06-.04 1.05-.04 1.05-.03 1.05-.03 1.05-.02 1.05-.03 1.05-.02 1.05-.01 1.05-.01 1.05-.01h1.04l1.05-.01 1.05.01h1.05l1.05.01 1.05.02 1.05.01 1.04.02 1.05.03 1.05.02 1.05.03 1.04.04 1.05.04 1.05.04 1.04.04 1.05.05 1.05.05 1.04.06 1.05.06 1.05.06 1.04.06 1.05.07 1.04.08 1.05.07 1.04.08 1.05.09 1.04.08 1.05.09 1.04.1 1.05.1 1.04.1 1.05.1 1.04.11 1.04.11 1.05.12 1.04.12 1.04.12 1.05.12 1.04.13 1.04.14 1.05.13 1.04.14 1.04.15 1.04.14 1.04.15 1.05.16 1.04.15 1.04.17 1.04.16 1.04.17 1.04.17 1.04.18 1.04.17 1.04.19 1.04.18 1.04.19 1.04.19 1.04.2 1.04.2 1.04.2 1.04.21 1.04.21 1.04.21 1.04.22 1.04.22 1.04.23 1.03.23" style="stroke-width:1.07;stroke:#000000;stroke-opacity:0.10;stroke-linecap:butt"/><path d="m75.32 270.84 1.05-.19 1.06-.18 1.06-.18 1.06-.17 1.05-.17 1.06-.16 1.05-.15 1.06-.16 1.06-.14 1.05-.15 1.06-.13 1.05-.13 1.06-.13 1.05-.12 1.06-.12 1.05-.11 1.05-.11 1.06-.1 1.05-.1 1.05-.09 1.06-.09 1.05-.08 1.05-.08 1.06-.08 1.05-.06 1.05-.07 1.05-.05 1.05-.06 1.05-.05 1.05-.04 1.05-.04 1.06-.03 1.05-.03 1.05-.02 1.05-.02 1.04-.02h1.05l1.05-.01h1.05l1.05.01 1.05.01 1.05.02 1.05.02 1.04.02 1.05.03 1.05.04 1.04.04 1.05.04 1.05.05 1.04.06 1.05.06 1.05.07 1.04.07 1.05.07 1.04.08 1.05.09 1.04.09 1.05.09 1.04.1 1.05.1 1.04.11 1.04.12 1.05.12 1.04.12 1.04.13 1.05.14 1.04.14 1.04.14 1.04.15 1.04.15 1.04.16 1.05.17 1.04.16 1.04.18 1.04.18 1.04.18 1.04.19 1.04.19 1.04.2 1.04.2 1.04.21 1.04.22 1.04.21 1.03.23 1.04.23 1.04.23 1.04.24 1.04.24 1.03.25 1.04.25 1.04.26 1.03.26 1.04.27 1.04.27 1.03.28 1.04.28 1.03.29 1.04.29 1.03.3" style="stroke-width:1.07;stroke:#000000;stroke-opacity:0.10;stroke-linecap:butt"/><path d="m75.32 270.84 1.06-.26 1.06-.25 1.06-.24 1.06-.24 1.06-.23 1.06-.22 1.06-.22 1.05-.21 1.06-.2 1.06-.2 1.06-.19 1.06-.19 1.05-.18 1.06-.17 1.06-.17 1.05-.16 1.06-.15 1.06-.15 1.05-.14 1.06-.14 1.05-.13 1.06-.12 1.05-.11 1.05-.11 1.06-.11 1.05-.09 1.05-.09 1.06-.09 1.05-.08 1.05-.07 1.05-.06 1.06-.06 1.05-.05 1.05-.05 1.05-.04 1.05-.03 1.05-.03 1.05-.02 1.05-.02h1.05l1.05-.01 1.05.01 1.04.01 1.05.02 1.05.02 1.05.03 1.04.04 1.05.04 1.05.05 1.04.05 1.05.07 1.05.06 1.04.08 1.05.08 1.04.09 1.05.09 1.04.1 1.05.1 1.04.12 1.04.12 1.05.12 1.04.13 1.04.14 1.04.14 1.04.15 1.05.16 1.04.16 1.04.17 1.04.18 1.04.18 1.04.19 1.04.2 1.04.2 1.04.2 1.04.22 1.04.22 1.03.23 1.04.23 1.04.24 1.04.24 1.04.26 1.03.25 1.04.27 1.04.27 1.03.28 1.04.28 1.03.29 1.04.3 1.03.3 1.04.31 1.03.31 1.04.33 1.03.32 1.03.34 1.04.34 1.03.35 1.03.35 1.03.36 1.03.37" style="stroke-width:1.07;stroke:#000000;stroke-opacity:0.10;stroke-linecap:butt"/><path d="m75.32 270.84 1.06-.33 1.06-.31 1.07-.31 1.06-.31 1.06-.29 1.06-.28 1.07-.28 1.06-.27 1.06-.27 1.06-.25 1.06-.25 1.06-.24 1.06-.23 1.06-.22 1.06-.22 1.06-.21 1.06-.2 1.05-.19 1.06-.18 1.06-.18 1.05-.17 1.06-.16 1.06-.16 1.05-.14 1.06-.14 1.05-.13 1.06-.12 1.05-.12 1.06-.11 1.05-.1 1.05-.09 1.06-.08 1.05-.08 1.05-.07 1.05-.06 1.05-.05 1.05-.05 1.06-.04 1.05-.03 1.05-.02 1.04-.01 1.05-.01h1.05l1.05.01 1.05.02 1.05.02 1.04.03 1.05.04 1.05.05 1.05.06 1.04.06 1.05.07 1.04.08 1.05.09 1.04.09 1.05.1 1.04.11 1.04.12 1.05.12 1.04.14 1.04.14 1.04.15 1.04.15 1.05.17 1.04.17 1.04.18 1.04.18 1.04.2 1.04.2 1.04.21 1.04.22 1.03.23 1.04.23 1.04.24 1.04.25 1.03.26 1.04.26 1.04.27 1.03.28 1.04.29 1.03.3 1.04.3 1.03.31 1.04.32 1.03.33 1.03.33 1.04.34 1.03.35 1.03.36 1.03.37 1.04.37 1.03.38 1.03.39 1.03.4 1.03.4 1.03.41 1.03.42 1.03.43 1.02.44" style="stroke-width:1.07;stroke:#000000;stroke-opacity:0.10;stroke-linecap:butt"/><path d="m75.32 270.84 1.06-.4 1.07-.38 1.07-.38 1.06-.36 1.07-.36 1.06-.35 1.07-.34 1.06-.33 1.07-.32 1.06-.31 1.06-.3 1.06-.29 1.07-.29 1.06-.27 1.06-.27 1.06-.25 1.06-.25 1.06-.24 1.06-.23 1.06-.21 1.06-.22 1.06-.2 1.05-.19 1.06-.18 1.06-.17 1.06-.17 1.05-.15 1.06-.15 1.05-.14 1.06-.13 1.05-.11 1.06-.11 1.05-.1 1.05-.1 1.06-.08 1.05-.07 1.05-.06 1.05-.06 1.05-.04 1.05-.04 1.05-.03 1.05-.02h2.1l1.05.01 1.05.01 1.04.03 1.05.04 1.05.04 1.05.06 1.04.06 1.05.08 1.04.08 1.05.09 1.04.1 1.04.11 1.05.12 1.04.13 1.04.14 1.05.15 1.04.15 1.04.17 1.04.17 1.04.19 1.04.19 1.04.2 1.04.21 1.04.22 1.04.23 1.03.24 1.04.25 1.04.26 1.03.26 1.04.28 1.04.28 1.03.29 1.04.31 1.03.31 1.03.32 1.04.33 1.03.34 1.03.35 1.04.36 1.03.36 1.03.38 1.03.38 1.03.4 1.03.4 1.03.41 1.03.43 1.03.43 1.03.44 1.03.45 1.02.46 1.03.46 1.03.48 1.02.49 1.03.49 1.02.51" style="stroke-width:1.07;stroke:#000000;stroke-opacity:0.10;stroke-linecap:butt"/><path d="m75.32 270.84 1.07-.47 1.07-.45 1.07-.44 1.07-.43 1.06-.42 1.07-.41 1.07-.4 1.07-.39 1.06-.38 1.07-.36 1.06-.36 1.07-.35 1.06-.33 1.07-.33 1.06-.31 1.06-.31 1.07-.29 1.06-.28 1.06-.28 1.06-.26 1.06-.25 1.06-.24 1.06-.23 1.06-.22 1.06-.21 1.06-.2 1.06-.18 1.05-.18 1.06-.17 1.06-.15 1.05-.15 1.06-.14 1.05-.12 1.06-.11 1.05-.11 1.05-.09 1.05-.08 1.06-.07 1.05-.06 1.05-.05 1.05-.04 1.05-.03 1.05-.02 1.05-.01H123l1.05.02 1.05.02 1.04.03 1.05.05 1.05.05 1.04.07 1.05.08 1.04.08 1.05.1 1.04.11 1.04.12 1.05.13 1.04.14 1.04.15 1.04.16 1.04.17 1.04.18 1.04.19 1.04.21 1.04.21 1.04.23 1.04.23 1.04.25 1.03.25 1.04.27 1.04.28 1.03.29 1.04.29 1.03.31 1.03.32 1.04.33 1.03.34 1.03.36 1.04.36 1.03.37 1.03.38 1.03.4 1.03.4 1.03.42 1.03.42 1.03.44 1.03.44 1.02.46 1.03.47 1.03.48 1.02.48 1.03.5 1.02.51 1.03.52 1.02.54 1.03.54 1.02.55 1.02.56 1.02.58" style="stroke-width:1.07;stroke:#000000;stroke-opacity:0.10;stroke-linecap:butt"/><path d="m109.26 354.95 9.1 15.76h-18.2zm70.62-200.59 1.92 3.31h-3.83zM284.4 301.17l3.77 6.53h-7.54z" style="stroke-width:0.71;stroke:none;fill:#00BA38"/><path d="M68.56 277.59h13.51v-13.51H68.56z" style="stroke-width:0.71;stroke:none;fill:#619CFF"/><circle cx="178.9" cy="276.32" r="5.99" style="stroke-width:0.71;stroke:none;fill:#F8766D"/><circle cx="49.42" cy="456.38" r="4.5" style="stroke-width:0.71;stroke:none;fill:#F8766D"/><circle cx="385.32" cy="324.56" r="1.42" style="stroke-width:0.71;stroke:none;fill:#F8766D"/><path d="m104.31 370.1 4.12-3.87M184.66 153l-3.85 2.88m98.85 154.3 3.93-3.86M70.83 275.55l3.7-3.89m109.33 0-4.12 3.87" style="stroke-width:0.53;stroke:#BFBFBF"/><path d="M67.53 389.41h51.44-.09l.35-.02.34-.06.33-.13.3-.17.27-.22.23-.26.18-.3.14-.32.08-.33.03-.35h0v-14.99h0l-.03-.35-.08-.33-.14-.32-.18-.3-.23-.26-.27-.22-.3-.17-.33-.13-.34-.07-.26-.01H67.53l.26.01-.35-.01-.34.04-.34.1-.31.15-.29.2-.25.24-.21.27-.16.31-.11.33-.06.35v15.16-.17.34l.06.35.11.33.16.3.21.28.25.24.29.2.31.15.34.1.34.04z" style="stroke-width:0.53;fill:#FFFFFF;fill-opacity:0.50"/><text x="93.25" y="377.62" lengthAdjust="spacingAndGlyphs" style="font-size:5.69px;font-family:&quot;Liberation Sans&quot;" text-anchor="middle" textLength="36.86">CLEM STONE</text><text x="93.25" y="385.81" lengthAdjust="spacingAndGlyphs" style="font-size:5.69px;font-family:&quot;Liberation Sans&quot;" text-anchor="middle" textLength="48.56">PROPERTIES LLC</text><path d="M186.82 156.29h69.34-.09l.35-.01.34-.07.32-.12.3-.18.27-.22.23-.26.19-.29.14-.32.08-.34.03-.35h0v-6.79h0l-.03-.35-.08-.34-.14-.32-.19-.29-.23-.26-.27-.22-.3-.17-.32-.13-.34-.07-.26-.01h-69.34l.26.01-.34-.01-.35.04-.33.1-.32.15-.28.19-.25.24-.21.28-.16.31-.11.33-.06.34-.01.18v6.79l.01-.17v.35l.06.34.11.33.16.31.21.28.25.24.28.19.32.15.33.1.35.04z" style="stroke-width:0.53;fill:#FFFFFF;fill-opacity:0.50"/><text x="221.49" y="152.69" lengthAdjust="spacingAndGlyphs" style="font-size:5.69px;font-family:&quot;Liberation Sans&quot;" text-anchor="middle" textLength="66.45">CLEM STONE PROP LLC</text><path d="M242.85 321.3h60.29-.09l.35-.02.34-.07.32-.12.3-.17.27-.22.23-.26.19-.3.14-.32.08-.34.03-.34h0v-6.8h0l-.03-.35-.08-.33-.14-.32-.19-.3-.23-.26-.27-.22-.3-.17-.32-.12-.34-.07-.26-.02h-60.29l.26.02-.35-.02-.34.04-.34.1-.31.15-.29.2-.25.24-.21.28-.16.3-.11.33-.05.35-.01.17v6.8l.01-.18v.35l.05.34.11.33.16.31.21.28.25.24.29.2.31.15.34.09.34.05z" style="stroke-width:0.53;fill:#FFFFFF;fill-opacity:0.50"/><text x="272.99" y="317.7" lengthAdjust="spacingAndGlyphs" style="font-size:5.69px;font-family:&quot;Liberation Sans&quot;" text-anchor="middle" textLength="57.41">ANTHONY CLEMONS</text><path d="M38.39 294.86h56.89-.08l.34-.01.34-.07.33-.13.3-.17.27-.22.23-.26.19-.29.13-.32.09-.34.02-.35h0v-14.99h0l-.02-.35-.09-.33-.13-.32-.19-.3-.23-.26-.27-.22-.3-.17-.33-.12-.34-.07-.26-.02H38.39l.26.02-.35-.02-.34.04-.34.1-.31.15-.29.2-.25.24-.21.28-.16.3-.11.33-.06.35v15.16-.17.35l.06.34.11.33.16.31.21.27.25.25.29.19.31.15.34.1.34.04z" style="stroke-width:0.53;fill:#FFFFFF;fill-opacity:0.50"/><text x="66.84" y="283.07" lengthAdjust="spacingAndGlyphs" style="font-size:5.69px;font-family:&quot;Liberation Sans&quot;" text-anchor="middle" textLength="46">549 MOOSE TRL,</text><text x="66.84" y="291.26" lengthAdjust="spacingAndGlyphs" style="font-size:5.69px;font-family:&quot;Liberation Sans&quot;" text-anchor="middle" textLength="54.02">MADISON, WI 53704</text><path d="M166.47 271.66h56.9-.09l.35-.01.34-.07.33-.13.3-.17.27-.22.23-.26.18-.29.14-.32.08-.34.03-.35h0v-14.99h0l-.03-.35-.08-.33-.14-.32-.18-.3-.23-.26-.27-.22-.3-.17-.33-.12-.34-.07-.26-.02h-56.9l.26.02-.34-.02-.35.04-.33.1-.32.15-.28.2-.25.24-.21.28-.16.3-.11.33-.06.35-.01.17v14.99l.01-.17v.35l.06.34.11.33.16.31.21.27.25.24.28.2.32.15.33.1.35.04z" style="stroke-width:0.53;fill:#FFFFFF;fill-opacity:0.50"/><text x="194.92" y="259.87" lengthAdjust="spacingAndGlyphs" style="font-size:5.69px;font-family:&quot;Liberation Sans&quot;" text-anchor="middle" textLength="46">549 MOOSE TRL,</text><text x="194.92" y="268.06" lengthAdjust="spacingAndGlyphs" style="font-size:5.69px;font-family:&quot;Liberation Sans&quot;" text-anchor="middle" textLength="54.02">MADISON, WI 53704</text><path d="M56.27 466.04h56.9l-.09-.01.35-.01.34-.07.32-.12.3-.18.27-.22.23-.26.19-.29.14-.32.08-.34.03-.34h0v-15h0l-.03-.34-.08-.34-.14-.32-.19-.29-.23-.26-.27-.22-.3-.18-.32-.12-.34-.07-.26-.02h-56.9l.26.02-.35-.01-.34.04-.34.09-.31.15-.29.2-.25.24-.2.28-.17.31-.11.33-.05.34-.01.17v15l.01-.18v.35l.05.34.11.33.17.31.2.28.25.24.29.2.31.14.34.1.34.04z" style="stroke-width:0.53;fill:#FFFFFF;fill-opacity:0.50"/><text x="84.72" y="454.24" lengthAdjust="spacingAndGlyphs" style="font-size:5.69px;font-family:&quot;Liberation Sans&quot;" text-anchor="middle" textLength="40.75">PO BOX 14033,</text><text x="84.72" y="462.44" lengthAdjust="spacingAndGlyphs" style="font-size:5.69px;font-family:&quot;Liberation Sans&quot;" text-anchor="middle" textLength="54.02">MADISON, WI 53708</text><path d="M321.57 334.12h56.9-.09l.35-.01.34-.07.32-.13.3-.17.27-.22.23-.26.19-.29.13-.32.09-.34.03-.35h0v-14.99h0l-.03-.34-.09-.34-.13-.32-.19-.3-.23-.26-.27-.22-.3-.17-.32-.12-.34-.07-.26-.02h-56.9l.26.02-.35-.02-.34.05-.34.09-.31.15-.29.2-.25.24-.21.28-.16.31-.11.33-.05.34-.01.17v14.99l.01-.17v.35l.05.34.11.33.16.31.21.28.25.24.29.19.31.15.34.1.34.04z" style="stroke-width:0.53;fill:#FFFFFF;fill-opacity:0.50"/><text x="350.02" y="322.33" lengthAdjust="spacingAndGlyphs" style="font-size:5.69px;font-family:&quot;Liberation Sans&quot;" text-anchor="middle" textLength="40.75">PO BOX 14033,</text><text x="350.02" y="330.52" lengthAdjust="spacingAndGlyphs" style="font-size:5.69px;font-family:&quot;Liberation Sans&quot;" text-anchor="middle" textLength="54.02">MADISON, WI 53704</text></g><g clip-path="url(#cpMC4wMHw0MzIuMDB8MC4wMHw1MDQuMDA=)"><circle cx="122.2" cy="116.5" r="1.95" style="stroke-width:0.71;stroke:none;fill:#F8766D"/><path d="m198.6 113.46 2.63 4.56h-5.26z" style="stroke-width:0.71;stroke:none;fill:#00BA38"/><path d="M264.6 118.45h3.91v-3.91h-3.91z" style="stroke-width:0.71;stroke:none;fill:#619CFF"/><text x="136.32" y="119.66" lengthAdjust="spacingAndGlyphs" style="font-size:8.80px;font-weight:0;font-family:&quot;Nimbus Sans Narrow&quot;" textLength="48.16">mprop address</text><text x="212.72" y="119.66" lengthAdjust="spacingAndGlyphs" style="font-size:8.80px;font-weight:0;font-family:&quot;Nimbus Sans Narrow&quot;" textLength="39.72">owner name</text><text x="280.68" y="119.66" lengthAdjust="spacingAndGlyphs" style="font-size:8.80px;font-weight:0;font-family:&quot;Nimbus Sans Narrow&quot;" textLength="40.5">wdfi address</text><text x="32.63" y="84.79" lengthAdjust="spacingAndGlyphs" style="font-size:12.00px;font-weight:0;font-family:&quot;Nimbus Sans Narrow&quot;" textLength="252.11">includes 19 parcels, 70 units, and 3 distinct owner names.</text><text x="32.63" y="42.81" lengthAdjust="spacingAndGlyphs" style="font-size:18.00px;font-weight:0;font-family:&quot;Nimbus Sans Narrow&quot;" textLength="319.81">CLEM STONE PROPERTIES LLC -- ANTHONY</text><text x="32.63" y="62.25" lengthAdjust="spacingAndGlyphs" style="font-size:18.00px;font-weight:0;font-family:&quot;Nimbus Sans Narrow&quot;" textLength="315.7">CLEMONS -- CLEM STONE PROP LLC Group</text></g></g></svg>