<svg xmlns="http://www.w3.org/2000/svg" width="768" height="768" viewBox="0 0 576 576"><g class="svglite"><defs><style><![CDATA[.svglite line,.svglite polyline,.svglite polygon,.svglite path,.svglite circle{fill:none;stroke:#000000;stroke-linecap:round;stroke-linejoin:round;stroke-miterlimit:10.00}.svglite text{white-space:pre}.svglite g.glyphgroup path{fill:inherit;stroke:none}]]></style></defs><rect width="100%" height="100%" style="stroke-linecap:round;stroke-linejoin:round;stroke-miterlimit:10.00;stroke:none;fill:#FFFFFF"/><defs><clipPath id="cpMC4wMHw1NzYuMDB8MC4wMHw1NzYuMDA="><path d="M0 0h576v576H0z"/></clipPath></defs><g clip-path="url(#cpMC4wMHw1NzYuMDB8MC4wMHw1NzYuMDA=)"><path d="M0 0h576v576H0z" style="stroke-width:1.07;stroke:none;fill:#FFFFFF"/></g><defs><clipPath id="cpMjkuODl8NTQ2LjExfDEyMi4xNHw1NDYuMTE="><path d="M29.89 122.14h516.22v423.97H29.89z"/></clipPath></defs><g clip-path="url(#cpMjkuODl8NTQ2LjExfDEyMi4xNHw1NDYuMTE=)"><path d="m133.11 270.76.88.64.88.64.87.64.88.64.88.64.88.64.87.64.88.64.88.65.88.64.88.64.87.64.88.64.88.64.88.64.87.64.88.64.88.64.88.64.87.65.88.64.88.64.88.64.87.64.88.64.88.64.88.64.88.64.87.64.88.64.88.64.88.65.87.64.88.64.88.64.88.64.87.64.88.64.88.64.88.64.87.64.88.64.88.64.88.65.88.64.87.64.88.64.88.64.88.64.87.64.88.64.88.64.88.64.87.64.88.64.88.65.88.64.87.64.88.64.88.64.88.64.87.64.88.64.88.64.88.64.88.64.87.64.88.65.88.64.88.64.87.64.88.64.88.64.88.64.87.64.88.64.88.64.88.64.87.64.88.65.88.64.88.64.88.64.87.64.88.64.88.64.88.64.87.64.88.64.88.64.88.65.87.64.88.64.88.64.88.64.87.64.88.64.88.64.88.64m-86.89-63.44-.52.76-.53.75-.52.76-.53.76-.52.75-.53.76-.52.76-.53.76-.52.75-.53.76-.52.76-.53.76-.52.75-.53.76-.52.76-.53.76-.52.75-.53.76-.52.76-.53.76-.52.75-.53.76-.52.76-.53.76-.52.75-.53.76-.52.76-.53.75-.52.76-.53.76-.52.76-.53.75-.52.76-.53.76-.52.76-.53.75-.52.76-.53.76-.52.76-.53.75-.52.76-.53.76-.52.76-.53.75-.52.76-.53.76-.52.75-.53.76-.52.76-.53.76-.52.75-.53.76-.52.76-.53.76-.52.75-.53.76-.52.76-.53.76-.52.75-.53.76-.52.76-.53.76-.52.75-.53.76-.52.76-.53.75-.52.76-.53.76-.52.76-.53.75-.52.76-.53.76-.52.76-.53.75-.52.76-.53.76-.52.76-.53.75-.52.76-.53.76-.52.76-.53.75-.52.76-.53.76-.52.76-.53.75-.52.76-.53.76-.52.75-.53.76-.52.76-.53.76-.52.75-.53.76-.52.76-.53.76-.52.75-.53.76-.52.76m266.52-52.95-1.29.42-1.29.42-1.29.41-1.29.42-1.29.42-1.29.42-1.29.42-1.29.42-1.29.41-1.29.42-1.29.42-1.29.42-1.29.42-1.29.42-1.29.41-1.29.42-1.29.42-1.29.42-1.28.42-1.29.42-1.29.41-1.29.42-1.29.42-1.29.42-1.29.42-1.29.41-1.29.42-1.29.42-1.29.42-1.29.42-1.29.42-1.29.41-1.29.42-1.29.42-1.29.42-1.29.42-1.29.42-1.28.41-1.29.42-1.29.42-1.29.42-1.29.42-1.29.42-1.29.41-1.29.42-1.29.42-1.29.42-1.29.42-1.29.42-1.29.41-1.29.42-1.29.42-1.29.42-1.29.42-1.29.42-1.29.41-1.28.42-1.29.42-1.29.42-1.29.42-1.29.42-1.29.41-1.29.42-1.29.42-1.29.42-1.29.42-1.29.42-1.29.41-1.29.42-1.29.42-1.29.42-1.29.42-1.29.42-1.29.41-1.29.42-1.28.42-1.29.42-1.29.42-1.29.42-1.29.41-1.29.42-1.29.42-1.29.42-1.29.42-1.29.42-1.29.41-1.29.42-1.29.42-1.29.42-1.29.42-1.29.42-1.29.41-1.29.42-1.28.42-1.29.42-1.29.42-1.29.42-1.29.41-1.29.42" style="stroke-width:1.07;stroke:#000000;stroke-opacity:0.10;stroke-linecap:butt"/><path d="m53.35 292.47 1.69.42 1.68.42 1.68.42 1.69.43 1.68.42 1.68.42 1.69.42 1.68.42 1.68.42 1.69.42 1.68.43 1.68.42 1.69.42 1.68.42 1.68.42 1.69.42 1.68.43 1.68.42 1.69.42 1.68.42 1.68.42 1.68.42 1.69.42 1.68.43 1.68.42 1.69.42 1.68.42 1.68.42 1.69.42 1.68.43 1.68.42 1.69.42 1.68.42 1.68.42 1.69.42 1.68.42 1.68.43 1.69.42 1.68.42 1.68.42 1.69.42 1.68.42 1.68.43 1.69.42 1.68.42 1.68.42 1.69.42 1.68.42 1.68.42 1.69.43 1.68.42 1.68.42 1.69.42 1.68.42 1.68.42 1.69.43 1.68.42 1.68.42 1.69.42 1.68.42 1.68.42 1.69.42 1.68.43 1.68.42 1.69.42 1.68.42 1.68.42 1.69.42 1.68.43 1.68.42 1.69.42 1.68.42 1.68.42 1.69.42 1.68.42 1.68.43 1.69.42 1.68.42 1.68.42 1.69.42 1.68.42 1.68.43 1.69.42 1.68.42 1.68.42 1.69.42 1.68.42 1.68.42 1.68.43 1.69.42 1.68.42 1.68.42 1.69.42 1.68.42 1.68.43 1.69.42 1.68.42 1.68.42 1.69.42M53.35 292.47l.28.54.28.54.28.53.29.54.28.54.28.54.28.54.28.53.28.54.28.54.28.54.28.54.28.53.28.54.28.54.28.54.28.54.28.53.29.54.28.54.28.54.28.54.28.54.28.53.28.54.28.54.28.54.28.54.28.53.28.54.28.54.28.54.28.54.29.53.28.54.28.54.28.54.28.54.28.53.28.54.28.54.28.54.28.54.28.53.28.54.28.54.28.54.28.54.29.53.28.54.28.54.28.54.28.54.28.54.28.53.28.54.28.54.28.54.28.54.28.53.28.54.28.54.28.54.29.54.28.53.28.54.28.54.28.54.28.54.28.53.28.54.28.54.28.54.28.54.28.53.28.54.28.54.28.54.29.54.28.54.28.53.28.54.28.54.28.54.28.54.28.53.28.54.28.54.28.54.28.54.28.53.28.54.28.54.29.54.28.54.28.53.28.54.28.54.28.54m177.97-114.36-.39 1.04-.4 1.04-.39 1.04-.4 1.04-.39 1.04-.4 1.04-.39 1.03-.4 1.04-.39 1.04-.4 1.04-.39 1.04-.4 1.04-.4 1.04-.39 1.03-.4 1.04-.39 1.04-.4 1.04-.39 1.04-.4 1.04-.39 1.04-.4 1.03-.39 1.04-.4 1.04-.39 1.04-.4 1.04-.39 1.04-.4 1.04-.39 1.03-.4 1.04-.39 1.04-.4 1.04-.39 1.04-.4 1.04-.39 1.04-.4 1.03-.39 1.04-.4 1.04-.39 1.04-.4 1.04-.39 1.04-.4 1.04-.39 1.03-.4 1.04-.39 1.04-.4 1.04-.39 1.04-.4 1.04-.39 1.04-.4 1.03-.39 1.04-.4 1.04-.39 1.04-.4 1.04-.39 1.04-.4 1.04-.39 1.03-.4 1.04-.39 1.04-.4 1.04-.39 1.04-.4 1.04-.39 1.04-.4 1.03-.39 1.04-.4 1.04-.39 1.04-.4 1.04-.39 1.04-.4 1.04-.39 1.03-.4 1.04-.39 1.04-.4 1.04-.4 1.04-.39 1.04-.4 1.03-.39 1.04-.4 1.04-.39 1.04-.4 1.04-.39 1.04-.4 1.04-.39 1.03-.4 1.04-.39 1.04-.4 1.04-.39 1.04-.4 1.04-.39 1.04-.4 1.03-.39 1.04-.4 1.04-.39 1.04-.4 1.04-.39 1.04-.4 1.04-.39 1.03-.4 1.04-.39 1.04m39.11-102.82.27-.9.27-.91.27-.91.28-.91.27-.91.27-.91.27-.91.27-.91.27-.91.27-.9.27-.91.28-.91.27-.91.27-.91.27-.91.27-.91.27-.91.27-.9.27-.91.27-.91.28-.91.27-.91.27-.91.27-.91.27-.91.27-.91.27-.9.27-.91.27-.91.28-.91.27-.91.27-.91.27-.91.27-.91.27-.91.27-.9.27-.91.28-.91.27-.91.27-.91.27-.91.27-.91.27-.91.27-.9.27-.91.27-.91.28-.91.27-.91.27-.91.27-.91.27-.91.27-.91.27-.9.27-.91.28-.91.27-.91.27-.91.27-.91.27-.91.27-.91.27-.91.27-.9.27-.91.28-.91.27-.91.27-.91.27-.91.27-.91.27-.91.27-.9.27-.91.28-.91.27-.91.27-.91.27-.91.27-.91.27-.91.27-.91.27-.9.27-.91.28-.91.27-.91.27-.91.27-.91.27-.91.27-.91.27-.91.27-.9.27-.91.28-.91.27-.91.27-.91.27-.91.27-.91.27-.91.27-.9.27-.91.28-.91.27-.91" style="stroke-width:1.07;stroke:#000000;stroke-opacity:0.10;stroke-linecap:butt"/><path d="m113.67 404.85 1.07-.71 1.08-.72 1.07-.71 1.08-.71 1.07-.72 1.07-.71 1.08-.72 1.07-.71 1.08-.71 1.07-.72 1.07-.71 1.08-.71 1.07-.72 1.08-.71 1.07-.71 1.07-.72 1.08-.71L133 392l1.08-.71 1.07-.71 1.07-.72 1.08-.71 1.07-.71 1.08-.72 1.07-.71 1.07-.71 1.08-.72 1.07-.71 1.08-.72 1.07-.71 1.07-.71 1.08-.72 1.07-.71 1.08-.71 1.07-.72 1.07-.71 1.08-.71 1.07-.72 1.08-.71 1.07-.71 1.07-.72 1.08-.71 1.07-.72 1.08-.71 1.07-.71 1.07-.72 1.08-.71 1.07-.71 1.08-.72 1.07-.71 1.07-.71 1.08-.72 1.07-.71 1.08-.72 1.07-.71 1.08-.71 1.07-.72 1.07-.71 1.08-.71 1.07-.72 1.08-.71 1.07-.71 1.07-.72 1.08-.71 1.07-.72 1.08-.71 1.07-.71 1.07-.72 1.08-.71 1.07-.71 1.08-.72 1.07-.71 1.07-.71 1.08-.72 1.07-.71 1.08-.72 1.07-.71 1.07-.71 1.08-.72 1.07-.71 1.08-.71 1.07-.72 1.07-.71 1.08-.71 1.07-.72 1.08-.71 1.07-.71 1.07-.72 1.08-.71 1.07-.72 1.08-.71 1.07-.71 1.07-.72 1.08-.71 1.07-.71 1.08-.72 1.07-.71 1.07-.71 1.08-.72m-106.33 70.65-.33-.6-.33-.59-.33-.6-.32-.6-.33-.6-.33-.59-.33-.6-.33-.6-.33-.59-.33-.6-.32-.6-.33-.6-.33-.59-.33-.6-.33-.6-.33-.59-.33-.6-.32-.6-.33-.59-.33-.6-.33-.6-.33-.6-.33-.59-.33-.6-.32-.6-.33-.59-.33-.6-.33-.6-.33-.6-.33-.59-.33-.6-.33-.6-.32-.59-.33-.6-.33-.6-.33-.6-.33-.59-.33-.6-.33-.6-.32-.59-.33-.6-.33-.6-.33-.59-.33-.6-.33-.6-.33-.6-.32-.59-.33-.6-.33-.6-.33-.59-.33-.6-.33-.6-.33-.6-.32-.59-.33-.6-.33-.6-.33-.59-.33-.6-.33-.6-.33-.6-.32-.59-.33-.6-.33-.6-.33-.59-.33-.6-.33-.6-.33-.59-.32-.6-.33-.6-.33-.6-.33-.59-.33-.6-.33-.6-.33-.59-.33-.6-.32-.6-.33-.6-.33-.59-.33-.6-.33-.6-.33-.59-.33-.6-.32-.6-.33-.6-.33-.59-.33-.6-.33-.6-.33-.59-.33-.6-.32-.6-.33-.59-.33-.6-.33-.6-.33-.6-.33-.59-.33-.6-.32-.6-.33-.59-.33-.6m159.2 88.65-.21-1.01-.2-1.01-.21-1.01-.2-1.02-.21-1.01-.21-1.01-.2-1.01-.21-1.02-.2-1.01-.21-1.01-.2-1.01-.21-1.01-.2-1.02-.21-1.01-.2-1.01-.21-1.01-.21-1.01-.2-1.02-.21-1.01-.2-1.01-.21-1.01-.2-1.01-.21-1.02-.2-1.01-.21-1.01-.2-1.01-.21-1.01-.21-1.02-.2-1.01-.21-1.01-.2-1.01-.21-1.01-.2-1.02-.21-1.01-.2-1.01-.21-1.01-.2-1.01-.21-1.02-.21-1.01-.2-1.01-.21-1.01-.2-1.01-.21-1.02-.2-1.01-.21-1.01-.2-1.01-.21-1.01-.2-1.02-.21-1.01-.21-1.01-.2-1.01-.21-1.01-.2-1.02-.21-1.01-.2-1.01-.21-1.01-.2-1.01-.21-1.02-.2-1.01-.21-1.01-.21-1.01-.2-1.01-.21-1.02-.2-1.01-.21-1.01-.2-1.01-.21-1.01-.2-1.02-.21-1.01-.2-1.01-.21-1.01-.21-1.01-.2-1.02-.21-1.01-.2-1.01-.21-1.01-.2-1.01-.21-1.02-.2-1.01-.21-1.01-.2-1.01-.21-1.01-.21-1.02-.2-1.01-.21-1.01-.2-1.01-.21-1.01-.2-1.02-.21-1.01-.2-1.01-.21-1.01-.2-1.01-.21-1.02-.21-1.01-.2-1.01-.21-1.01-.2-1.01-.21-1.02-.2-1.01m20.34 100.19-.13.93-.13.94-.12.93-.13.94-.13.93-.13.93-.12.94-.13.93-.13.94-.13.93-.12.93-.13.94-.13.93-.12.93-.13.94-.13.93-.13.94-.12.93-.13.93-.13.94-.13.93-.12.94-.13.93-.13.93-.12.94-.13.93-.13.93-.13.94-.12.93-.13.94-.13.93-.13.93-.12.94-.13.93-.13.94-.12.93-.13.93-.13.94-.13.93-.12.93-.13.94-.13.93-.13.94-.12.93-.13.93-.13.94-.12.93-.13.94-.13.93-.13.93-.12.94-.13.93-.13.93-.13.94-.12.93-.13.94-.13.93-.12.93-.13.94-.13.93-.13.93-.12.94-.13.93-.13.94-.13.93-.12.93-.13.94-.13.93-.12.94-.13.93-.13.93-.13.94-.12.93-.13.93-.13.94-.13.93-.12.94-.13.93-.13.93-.12.94-.13.93-.13.94-.13.93-.12.93-.13.94-.13.93-.13.93-.12.94-.13.93-.13.94-.12.93-.13.93-.13.94-.13.93-.12.94-.13.93-.13.93-.13.94-.12.93m146.3-158.26-1.55-.35-1.56-.35-1.55-.35-1.56-.34-1.56-.35-1.55-.35-1.56-.34-1.55-.35-1.56-.35-1.56-.35-1.55-.34-1.56-.35-1.55-.35-1.56-.34-1.56-.35-1.55-.35-1.56-.35-1.55-.34-1.56-.35-1.56-.35-1.55-.35-1.56-.34-1.55-.35-1.56-.35-1.56-.34-1.55-.35-1.56-.35-1.55-.35-1.56-.34-1.56-.35-1.55-.35-1.56-.34-1.55-.35-1.56-.35-1.56-.35-1.55-.34-1.56-.35-1.55-.35-1.56-.35-1.56-.34-1.55-.35-1.56-.35-1.55-.34-1.56-.35-1.56-.35-1.55-.35-1.56-.34-1.55-.35-1.56-.35-1.56-.34-1.55-.35-1.56-.35-1.55-.35-1.56-.34-1.56-.35-1.55-.35-1.56-.35-1.56-.34-1.55-.35-1.56-.35-1.55-.34-1.56-.35-1.56-.35-1.55-.35-1.56-.34-1.55-.35-1.56-.35-1.56-.34-1.55-.35-1.56-.35-1.55-.35-1.56-.34-1.56-.35-1.55-.35-1.56-.34-1.55-.35-1.56-.35-1.56-.35-1.55-.34-1.56-.35-1.55-.35-1.56-.35-1.56-.34-1.55-.35-1.56-.35-1.55-.34-1.56-.35-1.56-.35-1.55-.35-1.56-.34-1.55-.35-1.56-.35-1.56-.34-1.55-.35-1.56-.35-1.55-.35-1.56-.34-1.56-.35-1.55-.35m154.04 34.38 1.51.17 1.5.18 1.5.17 1.5.18 1.5.17 1.5.18 1.5.17 1.5.18 1.5.17 1.5.18 1.51.18 1.5.17 1.5.18 1.5.17 1.5.18 1.5.17 1.5.18 1.5.17 1.5.18 1.51.17 1.5.18 1.5.18 1.5.17 1.5.18 1.5.17 1.5.18 1.5.17 1.5.18 1.5.17 1.51.18 1.5.17 1.5.18 1.5.17 1.5.18 1.5.18 1.5.17 1.5.18 1.5.17 1.51.18 1.5.17 1.5.18 1.5.17 1.5.18 1.5.17 1.5.18 1.5.18 1.5.17 1.5.18 1.51.17 1.5.18 1.5.17 1.5.18 1.5.17 1.5.18 1.5.17 1.5.18 1.5.17 1.5.18 1.51.18 1.5.17 1.5.18 1.5.17 1.5.18 1.5.17 1.5.18 1.5.17 1.5.18 1.51.17 1.5.18 1.5.17 1.5.18 1.5.18 1.5.17 1.5.18 1.5.17 1.5.18 1.5.17 1.51.18 1.5.17 1.5.18 1.5.17 1.5.18 1.5.18 1.5.17 1.5.18 1.5.17 1.5.18 1.51.17 1.5.18 1.5.17 1.5.18 1.5.17 1.5.18 1.5.17 1.5.18 1.5.18 1.51.17 1.5.18 1.5.17" style="stroke-width:1.07;stroke:#000000;stroke-opacity:0.10;stroke-linecap:butt"/><path d="m81.14 345.74 1.48.25 1.48.24 1.48.23 1.48.23 1.48.22 1.47.21 1.48.2 1.47.2 1.47.19 1.47.18 1.46.17 1.47.17 1.46.16 1.46.15 1.46.14 1.46.14 1.46.13 1.45.12 1.46.12 1.45.1 1.45.1 1.45.1 1.45.08 1.44.08 1.44.07 1.45.06 1.44.05 1.44.05 1.43.04 1.44.03 1.43.03 1.44.02 1.43.01h1.42l1.43-.01 1.43-.01 1.42-.02 1.42-.02 1.42-.04 1.42-.04 1.42-.05 1.42-.06 1.41-.06 1.41-.07 1.41-.08 1.41-.09 1.41-.09 1.41-.11 1.4-.1 1.4-.12 1.4-.13 1.4-.13 1.4-.14 1.4-.14 1.39-.16 1.4-.16 1.39-.17 1.39-.17 1.38-.19 1.39-.19 1.38-.19 1.39-.21 1.38-.21 1.38-.22 1.38-.23 1.37-.24 1.38-.24 1.37-.25 1.37-.26 1.37-.27 1.37-.27 1.37-.28 1.36-.29 1.36-.29 1.36-.31 1.36-.31 1.36-.31 1.36-.33 1.35-.33 1.36-.34 1.35-.35 1.35-.35 1.35-.37 1.34-.37 1.35-.37 1.34-.39 1.34-.39 1.34-.4 1.34-.41 1.34-.41 1.34-.42 1.33-.43 1.33-.44 1.33-.44 1.33-.46 1.33-.46 1.32-.46 1.33-.48 1.32-.48" style="stroke-width:1.07;stroke:#000000;stroke-opacity:0.10;stroke-linecap:butt"/><path d="m81.14 345.74 1.45.13 1.46.12 1.45.11 1.46.12 1.45.1 1.45.1 1.45.1 1.45.09 1.45.09 1.44.08 1.45.08 1.44.07 1.45.07 1.44.06 1.44.06 1.44.05 1.44.05 1.43.04 1.44.04 1.44.03 1.43.03 1.43.02 1.44.02 1.43.01 1.43.01h2.85l1.43-.01 1.43-.01 1.42-.02 1.43-.02 1.42-.03 1.42-.03 1.42-.04 1.42-.04 1.42-.04 1.41-.06 1.42-.05 1.41-.06 1.42-.07 1.41-.07 1.41-.08 1.41-.08 1.41-.09 1.41-.09 1.41-.1 1.4-.1 1.41-.11 1.4-.11 1.4-.11 1.4-.12 1.4-.13 1.4-.13 1.4-.14 1.4-.14 1.4-.15 1.39-.15 1.39-.15 1.4-.17 1.39-.16 1.39-.17 1.39-.18 1.39-.18 1.38-.19 1.39-.19 1.39-.19 1.38-.2 1.38-.21 1.38-.21 1.38-.22 1.38-.22 1.38-.22 1.38-.23 1.38-.24 1.37-.24 1.38-.25 1.37-.25 1.37-.25 1.37-.26 1.37-.27 1.37-.27 1.37-.28 1.36-.28 1.37-.28 1.36-.29 1.37-.3 1.36-.3 1.36-.3 1.36-.31 1.36-.32 1.36-.32 1.35-.32 1.36-.33 1.35-.34 1.36-.34 1.35-.34 1.35-.35 1.35-.36 1.35-.36" style="stroke-width:1.07;stroke:#000000;stroke-opacity:0.10;stroke-linecap:butt"/><path d="M81.14 345.74h1.43l1.43.01h1.43l1.42-.01h1.43l1.43-.01 1.42-.01 1.43-.01 1.42-.01 1.43-.02 1.42-.02 1.43-.02 1.42-.03 1.42-.03 1.42-.02 1.42-.04 1.42-.03 1.43-.04 1.41-.04 1.42-.04 1.42-.04 1.42-.05 1.42-.05 1.41-.05 1.42-.06 1.42-.05 1.41-.06 1.42-.07 1.41-.06 1.41-.07 1.42-.07 1.41-.07 1.41-.07 1.41-.08 1.41-.08 1.41-.08 1.41-.08 1.41-.09 1.41-.09 1.41-.09 1.41-.1 1.4-.09 1.41-.1 1.41-.1 1.4-.11 1.41-.1 1.4-.11 1.41-.12 1.4-.11 1.4-.12 1.4-.11 1.4-.13 1.41-.12 1.4-.13 1.4-.13 1.4-.13 1.39-.13 1.4-.14 1.4-.14 1.4-.14 1.39-.14 1.4-.15 1.4-.15 1.39-.15 1.39-.15 1.4-.16 1.39-.16 1.39-.16 1.4-.16 1.39-.17 1.39-.17 1.39-.17 1.39-.17 1.39-.18 1.39-.18 1.39-.18 1.38-.18 1.39-.19 1.39-.19 1.38-.19 1.39-.19 1.39-.2 1.38-.19 1.38-.21 1.39-.2 1.38-.2 1.38-.21 1.38-.21 1.39-.22 1.38-.21 1.38-.22 1.38-.22 1.37-.23 1.38-.22 1.38-.23 1.38-.23 1.38-.23 1.37-.24 1.38-.24" style="stroke-width:1.07;stroke:#000000;stroke-opacity:0.10;stroke-linecap:butt"/><path d="m81.14 345.74 1.4-.12 1.4-.11 1.41-.12 1.4-.12 1.4-.11 1.4-.12 1.41-.12 1.4-.11 1.4-.12 1.4-.12 1.41-.11 1.4-.12 1.4-.12 1.41-.11 1.4-.12 1.4-.12 1.4-.11 1.41-.12 1.4-.12 1.4-.11 1.4-.12 1.41-.12 1.4-.11 1.4-.12 1.4-.11 1.41-.12 1.4-.12 1.4-.11 1.4-.12 1.41-.12 1.4-.11 1.4-.12 1.4-.12 1.41-.11 1.4-.12 1.4-.12 1.41-.11 1.4-.12 1.4-.12 1.4-.11 1.41-.12 1.4-.12 1.4-.11 1.4-.12 1.41-.12 1.4-.11 1.4-.12 1.4-.12 1.41-.11 1.4-.12 1.4-.11 1.4-.12 1.41-.12 1.4-.11 1.4-.12 1.41-.12 1.4-.11 1.4-.12 1.4-.12 1.41-.11 1.4-.12 1.4-.12 1.4-.11 1.41-.12 1.4-.12 1.4-.11 1.4-.12 1.41-.12 1.4-.11 1.4-.12 1.4-.12 1.41-.11 1.4-.12 1.4-.11 1.4-.12 1.41-.12 1.4-.11 1.4-.12 1.41-.12 1.4-.11 1.4-.12 1.4-.12 1.41-.11 1.4-.12 1.4-.12 1.4-.11 1.41-.12 1.4-.12 1.4-.11 1.4-.12 1.41-.12 1.4-.11 1.4-.12 1.4-.12 1.41-.11 1.4-.12 1.4-.12 1.41-.11 1.4-.12" style="stroke-width:1.07;stroke:#000000;stroke-opacity:0.10;stroke-linecap:butt"/><path d="m81.14 345.74 1.37-.24 1.38-.24 1.38-.23 1.37-.23 1.38-.23 1.38-.22 1.38-.23 1.38-.22 1.38-.22 1.38-.21 1.38-.22 1.38-.21 1.39-.2 1.38-.21 1.38-.2 1.39-.21 1.38-.19 1.39-.2 1.38-.19 1.39-.19 1.38-.19 1.39-.19 1.39-.18 1.39-.18 1.39-.18 1.39-.18 1.39-.17 1.39-.17 1.39-.17 1.39-.17 1.39-.16 1.39-.16 1.4-.16 1.39-.16 1.4-.15 1.39-.15 1.4-.15 1.39-.15 1.4-.14 1.4-.14 1.39-.14 1.4-.14 1.4-.13 1.4-.13 1.4-.13 1.4-.13 1.4-.12 1.4-.12 1.41-.12 1.4-.12 1.4-.11 1.4-.12 1.41-.11 1.4-.1 1.41-.11 1.41-.1 1.4-.1 1.41-.09 1.41-.1 1.4-.09 1.41-.09 1.41-.09 1.41-.08 1.41-.08 1.41-.08 1.41-.08 1.42-.07 1.41-.07 1.41-.07 1.42-.07 1.41-.06 1.41-.07 1.42-.06 1.42-.05 1.41-.06 1.42-.05 1.42-.05 1.41-.04 1.42-.05 1.42-.04 1.42-.04 1.42-.04 1.42-.03 1.42-.03 1.42-.03 1.43-.03 1.42-.03 1.42-.02 1.43-.02 1.42-.02 1.43-.01 1.42-.01 1.43-.01 1.43-.01h1.42l1.43-.01h1.43l1.43.01H220" style="stroke-width:1.07;stroke:#000000;stroke-opacity:0.10;stroke-linecap:butt"/><path d="m81.14 345.74 1.35-.36 1.35-.36 1.35-.35 1.35-.34 1.35-.34 1.36-.34 1.35-.33 1.36-.32 1.36-.32 1.36-.32 1.36-.31 1.36-.3 1.36-.3 1.36-.3 1.37-.29 1.36-.28 1.37-.28 1.37-.28 1.36-.27 1.37-.27 1.38-.26 1.37-.25 1.37-.25 1.37-.25 1.38-.24 1.38-.24 1.37-.23 1.38-.22 1.38-.22 1.38-.22 1.38-.21 1.39-.21 1.38-.2 1.39-.19 1.38-.19 1.39-.19 1.39-.18 1.39-.18 1.39-.17 1.39-.16 1.39-.17 1.4-.15 1.39-.15 1.4-.15 1.39-.14 1.4-.14 1.4-.13 1.4-.12 1.4-.13 1.41-.11 1.4-.11 1.4-.11 1.41-.1 1.41-.1 1.41-.09 1.41-.09 1.41-.08 1.41-.08 1.41-.07 1.41-.06 1.42-.07 1.41-.05 1.42-.06 1.42-.04 1.42-.04 1.42-.04 1.42-.03 1.42-.03 1.42-.02 1.43-.02 1.42-.01 1.43-.01h2.86l1.43.01 1.43.01 1.43.02 1.43.02 1.44.03 1.43.03 1.44.04 1.44.04 1.44.05 1.44.05 1.44.06 1.44.06 1.44.07 1.45.07 1.44.08 1.45.08 1.45.09 1.45.09 1.45.1 1.45.1 1.45.1 1.45.12 1.46.11 1.45.13 1.46.12" style="stroke-width:1.07;stroke:#000000;stroke-opacity:0.10;stroke-linecap:butt"/><path d="m81.14 345.74 1.32-.48 1.32-.48 1.33-.46 1.33-.46 1.33-.46 1.33-.44 1.33-.44 1.33-.43 1.34-.42 1.33-.41 1.34-.41 1.34-.4 1.34-.39 1.35-.39 1.34-.37 1.35-.37 1.35-.37 1.35-.35 1.35-.35 1.35-.34 1.36-.33 1.35-.33 1.36-.31 1.36-.31 1.36-.31 1.37-.29 1.36-.29 1.37-.28 1.37-.27 1.36-.27 1.38-.26 1.37-.25 1.37-.24 1.38-.24 1.38-.22 1.38-.23 1.38-.21 1.38-.21 1.39-.19 1.38-.19 1.39-.19 1.39-.17 1.39-.17 1.39-.16 1.4-.16 1.39-.14 1.4-.14 1.4-.13 1.4-.13 1.4-.12 1.41-.1 1.41-.11 1.4-.09 1.41-.09 1.41-.08 1.42-.07 1.41-.06 1.42-.06 1.41-.05 1.42-.04 1.42-.04 1.42-.02 1.43-.02 1.42-.01 1.43-.01h1.43l1.43.01 1.43.02 1.44.03 1.43.03 1.44.04 1.44.05 1.44.05 1.44.06 1.44.07 1.45.08 1.45.08 1.45.1 1.45.1 1.45.1 1.45.12 1.46.12 1.45.13 1.46.14 1.46.14 1.46.15 1.47.16 1.46.17 1.47.17 1.47.18 1.47.19 1.47.2 1.47.2 1.48.21 1.47.22 1.48.23 1.48.23 1.48.24 1.49.25" style="stroke-width:1.07;stroke:#000000;stroke-opacity:0.10;stroke-linecap:butt"/><path d="m133.11 268.55 1.92 3.31h-3.83zm214.55 22.03 1.91 3.31h-3.83zm-294.31-.32 1.92 3.31h-3.83zm205.76-61.09 1.92 3.32h-3.83zM113.67 402.64l1.91 3.31h-3.82zm126.67 29.54 1.91 3.32h-3.83zm133.7-65.81 1.92 3.31h-3.83z" style="stroke-width:0.71;stroke:none;fill:#00BA38"/><path d="M76.64 350.24h9v-9h-9z" style="stroke-width:0.71;stroke:none;fill:#619CFF"/><circle cx="220" cy="334.2" r="6.76" style="stroke-width:0.71;stroke:none;fill:#F8766D"/><path d="M284.54 142.83h2.84v-2.84h-2.84zm-58.22 385.43h2.84v-2.84h-2.84zm294.91-140.9h2.84v-2.84h-2.84z" style="stroke-width:0.71;stroke:none;fill:#619CFF"/><path d="m127.93 275.44 4.32-3.91m220.59 16.58-4.33 3.9m-290 5.12-4.3-3.89M253.99 236l4.26-3.84M118.87 400.15l-4.34 3.93m130.94 25.68-4.27 3.86m138-69.7-4.3 3.88M75.93 350.43l4.35-3.92m134.35-7.68 4.49-3.87m71.68-196.87-3.86 2.65M233.1 522.22l-4.48 3.86" style="stroke-width:0.53;stroke:#BFBFBF"/><path d="M95.69 286.56h50.05l-.09-.01.35-.01.34-.07.33-.12.3-.18.27-.22.23-.26.18-.29.14-.32.08-.34.03-.34h0v-6.8h0l-.03-.35-.08-.33-.14-.32-.18-.3-.23-.26-.27-.22-.3-.17-.33-.12-.34-.07-.26-.02H95.69l.26.02-.35-.02-.34.04-.34.1-.31.15-.29.2-.25.24-.21.28-.16.3-.11.33-.06.35v6.97-.18.35l.06.34.11.33.16.31.21.28.25.24.29.2.31.15.34.09.34.04z" style="stroke-width:0.53;fill:#FFFFFF;fill-opacity:0.50"/><text x="120.71" y="282.96" lengthAdjust="spacingAndGlyphs" style="font-size:5.69px;font-family:&quot;Liberation Sans&quot;" text-anchor="middle" textLength="47.17">NEWHALL 29 LLC</text><path d="M336.62 288.11h46.89l-.08-.01.35-.01.34-.07.32-.12.3-.18.27-.22.23-.26.19-.29.13-.32.09-.34.02-.34h0v-6.8h0l-.02-.35-.09-.33-.13-.32-.19-.3-.23-.26-.27-.22-.3-.17-.32-.13-.34-.07-.27-.01h-46.89l.26.01-.35-.01-.34.04-.34.1-.31.15-.29.2-.25.24-.21.27-.16.31-.11.33-.05.35-.01.17v6.8l.01-.18v.35l.05.34.11.33.16.31.21.28.25.24.29.2.31.15.34.09.34.04z" style="stroke-width:0.53;fill:#FFFFFF;fill-opacity:0.50"/><text x="360.07" y="284.51" lengthAdjust="spacingAndGlyphs" style="font-size:5.69px;font-family:&quot;Liberation Sans&quot;" text-anchor="middle" textLength="44.02">NEWHALL 4 LLC</text><path d="M41.17 308.24H90.3h-.09l.35-.01.34-.07.32-.12.31-.18.26-.22.24-.26.18-.29.14-.32.08-.34.03-.35h0v-6.79h0l-.03-.35-.08-.34-.14-.32-.18-.29-.24-.26-.26-.22-.31-.17-.32-.13-.34-.07-.26-.01H41.17l.26.01-.35-.01-.34.04-.34.1-.31.15-.29.19-.25.25-.21.27-.16.31-.11.33-.05.34-.01.18v6.79l.01-.17v.35l.05.34.11.33.16.31.21.28.25.24.29.2.31.14.34.1.34.04z" style="stroke-width:0.53;fill:#FFFFFF;fill-opacity:0.50"/><text x="65.73" y="304.64" lengthAdjust="spacingAndGlyphs" style="font-size:5.69px;font-family:&quot;Liberation Sans&quot;" text-anchor="middle" textLength="46.25">NEW BERRY LLC</text><path d="M212.9 247.12h67.77-.09l.35-.02.34-.07.32-.12.3-.17.27-.22.23-.26.19-.3.14-.32.08-.33.03-.35h0v-6.8h0l-.03-.34-.08-.34-.14-.32-.19-.29-.23-.26-.27-.22-.3-.18-.32-.12-.34-.07-.26-.02H212.9l.26.02-.35-.01-.35.04-.33.09-.31.15-.29.2-.25.24-.21.28-.16.31-.11.33-.06.34v6.97-.17.34l.06.35.11.33.16.3.21.28.25.24.29.2.31.15.33.1.35.04z" style="stroke-width:0.53;fill:#FFFFFF;fill-opacity:0.50"/><text x="246.78" y="243.52" lengthAdjust="spacingAndGlyphs" style="font-size:5.69px;font-family:&quot;Liberation Sans&quot;" text-anchor="middle" textLength="64.89">KENWOOD ESTATE LLC</text><path d="M108.12 400.15h36.18-.09l.35-.01.34-.07.32-.13.3-.17.27-.22.23-.26.19-.3.14-.31.08-.34.03-.35h0v-6.8h0l-.03-.34-.08-.34-.14-.32-.19-.29-.23-.26-.27-.22-.3-.18-.32-.12-.34-.07-.26-.02h-36.18l.26.02-.35-.01-.34.04-.34.09-.31.15-.29.2-.25.24-.21.28-.16.31-.11.33-.05.34-.01.17v6.8l.01-.17v.34l.05.35.11.33.16.31.21.27.25.24.29.2.31.15.34.1.34.04z" style="stroke-width:0.53;fill:#FFFFFF;fill-opacity:0.50"/><text x="126.21" y="396.55" lengthAdjust="spacingAndGlyphs" style="font-size:5.69px;font-family:&quot;Liberation Sans&quot;" text-anchor="middle" textLength="33.3">SATYAA LLC</text><path d="M219.91 429.76h65.78-.09l.35-.01.34-.07.32-.12.3-.18.27-.22.23-.26.19-.29.13-.32.09-.34.03-.35h0v-6.79h0l-.03-.35-.09-.34-.13-.32-.19-.29-.23-.26-.27-.22-.3-.17-.32-.13-.34-.07-.26-.01h-65.78l.27.01-.35-.01-.35.04-.33.1-.32.15-.28.19-.25.24-.21.28-.16.31-.11.33-.06.34-.01.18v6.79l.01-.17v.35l.06.34.11.33.16.31.21.28.25.24.28.19.32.15.33.1.35.04z" style="stroke-width:0.53;fill:#FFFFFF;fill-opacity:0.50"/><text x="252.8" y="426.16" lengthAdjust="spacingAndGlyphs" style="font-size:5.69px;font-family:&quot;Liberation Sans&quot;" text-anchor="middle" textLength="62.89">CORNER CRAMER LLC</text><path d="M359.05 363.92h54.71-.09l.35-.01.34-.07.33-.13.3-.17.27-.22.23-.26.18-.29.14-.32.08-.34.03-.35h0v-6.8h0l-.03-.34-.08-.34-.14-.32-.18-.29-.23-.26-.27-.22-.3-.18-.33-.12-.34-.07-.26-.02h-54.71l.26.02-.35-.01-.34.04-.33.1-.32.14-.28.2-.25.24-.21.28-.17.31-.11.33-.05.34-.01.17v6.8l.01-.17v.35l.05.34.11.33.17.31.21.27.25.24.28.2.32.15.33.1.34.04z" style="stroke-width:0.53;fill:#FFFFFF;fill-opacity:0.50"/><text x="386.41" y="360.32" lengthAdjust="spacingAndGlyphs" style="font-size:5.69px;font-family:&quot;Liberation Sans&quot;" text-anchor="middle" textLength="51.83">SAPPHIRE 802 LLC</text><path d="M35.65 369.74h65.75-.08l.34-.01.34-.07.33-.12.3-.18.27-.22.23-.26.19-.29.13-.32.08-.34.03-.35h0v-14.99h0l-.03-.34-.08-.34-.13-.32-.19-.29-.23-.26-.27-.22-.3-.18-.33-.12-.34-.07-.26-.02H35.65l.26.02-.35-.01-.34.04-.34.09-.31.15-.29.2-.25.24-.21.28-.16.31-.11.33-.06.34v15.16-.17.35l.06.34.11.33.16.31.21.28.25.24.29.2.31.14.34.1.34.04z" style="stroke-width:0.53;fill:#FFFFFF;fill-opacity:0.50"/><text x="68.53" y="357.95" lengthAdjust="spacingAndGlyphs" style="font-size:5.69px;font-family:&quot;Liberation Sans&quot;" text-anchor="middle" textLength="59.72">3225 ANN LOUISE DR,</text><text x="68.53" y="366.14" lengthAdjust="spacingAndGlyphs" style="font-size:5.69px;font-family:&quot;Liberation Sans&quot;" text-anchor="middle" textLength="62.88">NEW BERLIN, WI 53146</text><path d="M169.68 358.14h65.76-.09l.35-.01.34-.07.32-.13.3-.17.27-.22.23-.26.19-.29.14-.32.08-.34.03-.35h0v-14.99h0l-.03-.35-.08-.33-.14-.32-.19-.3-.23-.26-.27-.22-.3-.17-.32-.12-.34-.07-.26-.02h-65.76l.26.02-.34-.02-.35.05-.33.09-.32.15-.28.2-.25.24-.21.28-.16.3-.11.33-.06.35-.01.17v14.99l.01-.17v.35l.06.34.11.33.16.31.21.27.25.25.28.19.32.15.33.1.35.04z" style="stroke-width:0.53;fill:#FFFFFF;fill-opacity:0.50"/><text x="202.56" y="346.35" lengthAdjust="spacingAndGlyphs" style="font-size:5.69px;font-family:&quot;Liberation Sans&quot;" text-anchor="middle" textLength="59.72">3225 ANN LOUISE DR,</text><text x="202.56" y="354.54" lengthAdjust="spacingAndGlyphs" style="font-size:5.69px;font-family:&quot;Liberation Sans&quot;" text-anchor="middle" textLength="62.88">NEW BERLIN, WI 53146</text><path d="M292.96 145.05h64.71-.09l.35-.02.34-.07.32-.12.3-.17.27-.22.23-.26.19-.3.14-.32.08-.34.03-.34h0V127.9h0l-.03-.35-.08-.34-.14-.32-.19-.29-.23-.26-.27-.22-.3-.17-.32-.13-.34-.07-.26-.01h-64.71l.26.01-.35-.01-.34.04-.34.1-.31.15-.29.19-.25.24-.21.28-.16.31-.11.33-.05.34-.01.18v14.99l.01-.18v.35l.05.35.11.32.16.31.21.28.25.24.29.2.31.15.34.09.34.05z" style="stroke-width:0.53;fill:#FFFFFF;fill-opacity:0.50"/><text x="325.31" y="133.25" lengthAdjust="spacingAndGlyphs" style="font-size:5.69px;font-family:&quot;Liberation Sans&quot;" text-anchor="middle" textLength="61.83">1931 KENWOOD BLVD,</text><text x="325.31" y="141.45" lengthAdjust="spacingAndGlyphs" style="font-size:5.69px;font-family:&quot;Liberation Sans&quot;" text-anchor="middle" textLength="60.55">MILWAUKEE, WI 53211</text><path d="M213.42 522.22h63.43l-.09-.01.35-.01.34-.07.33-.12.3-.18.27-.22.23-.26.18-.29.14-.32.08-.34.03-.34h0v-15h0l-.03-.34-.08-.34-.14-.32-.18-.29-.23-.26-.27-.22-.3-.18-.33-.12-.34-.07-.26-.02h-63.43l.26.02-.34-.01-.35.04-.33.09-.32.15-.28.2-.25.24-.21.28-.16.31-.11.33-.06.34-.01.17v15l.01-.18v.35l.06.34.11.33.16.31.21.28.25.24.28.2.32.14.33.1.35.04z" style="stroke-width:0.53;fill:#FFFFFF;fill-opacity:0.50"/><text x="245.14" y="510.42" lengthAdjust="spacingAndGlyphs" style="font-size:5.69px;font-family:&quot;Liberation Sans&quot;" text-anchor="middle" textLength="48.66">2594 CRAMER ST,</text><text x="245.14" y="518.62" lengthAdjust="spacingAndGlyphs" style="font-size:5.69px;font-family:&quot;Liberation Sans&quot;" text-anchor="middle" textLength="60.55">MILWAUKEE, WI 53211</text><path d="M451.78 395.73h63.85l-.09-.01.35-.01.34-.07.32-.12.3-.18.27-.22.23-.26.19-.29.14-.32.08-.34.03-.34h0v-15h0l-.03-.34-.08-.34-.14-.32-.19-.29-.23-.26-.27-.22-.3-.18-.32-.12-.34-.07-.26-.02h-63.85l.26.02-.35-.01-.34.04-.34.1-.31.14-.29.2-.25.24-.21.28-.16.31-.11.33-.05.34-.01.17v15l.01-.18v.35l.05.34.11.33.16.31.21.28.25.24.29.2.31.15.34.09.34.04z" style="stroke-width:0.53;fill:#FFFFFF;fill-opacity:0.50"/><text x="483.7" y="383.93" lengthAdjust="spacingAndGlyphs" style="font-size:5.69px;font-family:&quot;Liberation Sans&quot;" text-anchor="middle" textLength="53.62">802 VAN BUREN ST,</text><text x="483.7" y="392.13" lengthAdjust="spacingAndGlyphs" style="font-size:5.69px;font-family:&quot;Liberation Sans&quot;" text-anchor="middle" textLength="60.97">MILWAUKEE, WI 53202</text></g><g clip-path="url(#cpMC4wMHw1NzYuMDB8MC4wMHw1NzYuMDA=)"><circle cx="192.83" cy="97.06" r="1.95" style="stroke-width:0.71;stroke:none;fill:#F8766D"/><path d="m269.23 94.02 2.63 4.56h-5.26z" style="stroke-width:0.71;stroke:none;fill:#00BA38"/><path d="M335.23 99.01h3.91V95.1h-3.91z" style="stroke-width:0.71;stroke:none;fill:#619CFF"/><text x="206.95" y="100.22" lengthAdjust="spacingAndGlyphs" style="font-size:8.80px;font-weight:0;font-family:&quot;Nimbus Sans Narrow&quot;" textLength="48.16">mprop address</text><text x="283.35" y="100.22" lengthAdjust="spacingAndGlyphs" style="font-size:8.80px;font-weight:0;font-family:&quot;Nimbus Sans Narrow&quot;" textLength="39.72">owner name</text><text x="351.31" y="100.22" lengthAdjust="spacingAndGlyphs" style="font-size:8.80px;font-weight:0;font-family:&quot;Nimbus Sans Narrow&quot;" textLength="40.5">wdfi address</text><text x="29.89" y="65.35" lengthAdjust="spacingAndGlyphs" style="font-size:12.00px;font-weight:0;font-family:&quot;Nimbus Sans Narrow&quot;" textLength="246.64">includes 7 parcels, 35 units, and 7 distinct owner names.</text><text x="29.89" y="42.81" lengthAdjust="spacingAndGlyphs" style="font-size:18.00px;font-weight:0;font-family:&quot;Nimbus Sans Narrow&quot;" textLength="239.42">CORNER CRAMER LLC etc Group</text></g></g></svg>