<svg xmlns="http://www.w3.org/2000/svg" width="768" height="768" class="svglite" viewBox="0 0 576 576"><defs><style>.svglite circle,.svglite line,.svglite polygon,.svglite polyline,.svglite rect{fill:none;stroke:#000;stroke-linecap:round;stroke-linejoin:round;stroke-miterlimit:10}.svglite text{white-space:pre}</style></defs><rect width="100%" height="100%" style="stroke:none;fill:#fff"/><defs><clipPath id="cpMC4wMHw1NzYuMDB8MC4wMHw1NzYuMDA="><path d="M0 0h576v576H0z"/></clipPath></defs><g clip-path="url(#cpMC4wMHw1NzYuMDB8MC4wMHw1NzYuMDA=)"><path d="M0 0h576v576H0z" style="stroke-width:1.07;stroke:none;fill:#fff"/></g><defs><clipPath id="cpMzIuNjN8NTQ2LjExfDEyMC44Nnw1NDMuMzc="><path d="M32.63 120.86h513.48v422.51H32.63z"/></clipPath></defs><g clip-path="url(#cpMzIuNjN8NTQ2LjExfDEyMC44Nnw1NDMuMzc=)"><path d="m213.68 365.76-1.59.04-1.6.03-1.59.03-1.59.04-1.6.03-1.59.03-1.59.04-1.6.03-1.59.03-1.59.04-1.59.03-1.6.03-1.59.03-1.59.04-1.6.03-1.59.03-1.59.04-1.6.03-1.59.03-1.59.04-1.59.03-1.6.03-1.59.03-1.59.04-1.6.03-1.59.03-1.59.04-1.6.03-1.59.03-1.59.04-1.6.03-1.59.03-1.59.04-1.59.03-1.6.03-1.59.03-1.59.04-1.6.03-1.59.03-1.59.04-1.6.03-1.59.03-1.59.04-1.59.03-1.6.03-1.59.04-1.59.03-1.6.03-1.59.03-1.59.04-1.6.03-1.59.03-1.59.04-1.6.03-1.59.03-1.59.04-1.59.03-1.6.03-1.59.03-1.59.04-1.6.03-1.59.03-1.59.04-1.6.03-1.59.03-1.59.04-1.59.03-1.6.03-1.59.04-1.59.03-1.6.03-1.59.03-1.59.04-1.6.03-1.59.03-1.59.04-1.6.03-1.59.03-1.59.04-1.59.03-1.6.03-1.59.03-1.59.04-1.6.03-1.59.03-1.59.04-1.6.03-1.59.03-1.59.04-1.59.03-1.6.03-1.59.04-1.59.03-1.6.03-1.59.03-1.59.04-1.6.03-1.59.03-1.59.04M213.68 365.76l.97-.68.97-.69.96-.69.96-.69.95-.69.96-.69.95-.7.94-.69.95-.7.93-.69.94-.7.93-.7.93-.7.93-.7.92-.71.92-.7.91-.7.91-.71.91-.71.91-.7.9-.71.9-.71.89-.72.89-.71.89-.71.89-.72.88-.71.87-.72.88-.72.87-.72.87-.72.86-.72.86-.72.86-.72.85-.73.85-.72.85-.73.84-.73.84-.73.84-.73.83-.73.83-.73.83-.74.82-.73.82-.74.82-.73.81-.74.81-.74.81-.74.8-.74.8-.74.79-.75.8-.74.78-.75.79-.74.78-.75.78-.75.78-.75.77-.75.77-.76.76-.75.76-.75.76-.76.75-.76.76-.75.74-.76.75-.76.74-.76.74-.77.73-.76.73-.77.73-.76.72-.77.72-.77.72-.77.71-.77.71-.77.71-.77.7-.77.7-.78.7-.77.69-.78.69-.78.69-.78.68-.78.68-.78.68-.78.67-.78.67-.79.66-.78.67-.79.66-.79.65-.79.65-.79.65-.79.65-.79.64-.8.64-.79.63-.8M522.77 229.44l-1.6-.14-1.61-.14-1.61-.15-1.6-.14-1.61-.14-1.61-.14-1.6-.14-1.61-.14-1.6-.15-1.61-.14-1.61-.14-1.6-.14-1.61-.14-1.61-.14-1.6-.15-1.61-.14-1.61-.14-1.6-.14-1.61-.14-1.6-.14-1.61-.15-1.61-.14-1.6-.14-1.61-.14-1.61-.14-1.6-.14-1.61-.15-1.6-.14-1.61-.14-1.61-.14-1.6-.14-1.61-.14-1.61-.15-1.6-.14-1.61-.14-1.6-.14-1.61-.14-1.61-.14-1.6-.15-1.61-.14-1.61-.14-1.6-.14-1.61-.14-1.61-.14-1.6-.15-1.61-.14-1.6-.14-1.61-.14-1.61-.14-1.6-.14-1.61-.15-1.61-.14-1.6-.14-1.61-.14-1.6-.14-1.61-.14-1.61-.15-1.6-.14-1.61-.14-1.61-.14-1.6-.14-1.61-.14-1.6-.15-1.61-.14-1.61-.14-1.6-.14-1.61-.14-1.61-.14-1.6-.15-1.61-.14-1.6-.14-1.61-.14-1.61-.14-1.6-.14-1.61-.15-1.61-.14-1.6-.14-1.61-.14-1.61-.14-1.6-.14-1.61-.15-1.6-.14-1.61-.14-1.61-.14-1.6-.14-1.61-.14-1.61-.15-1.6-.14-1.61-.14-1.6-.14-1.61-.14-1.61-.14-1.6-.15-1.61-.14-1.61-.14-1.6-.14-1.61-.14-1.6-.14-1.61-.15M432.39 140.07l-.69.76-.7.76-.69.76-.69.76-.7.76-.69.76-.69.77-.7.76-.69.76-.69.76-.7.76-.69.76-.69.76-.7.76-.69.76-.69.76-.7.77-.69.76-.69.76-.7.76-.69.76-.69.76-.7.76-.69.76-.69.76-.7.77-.69.76-.69.76-.7.76-.69.76-.69.76-.7.76-.69.76-.69.76-.7.77-.69.76-.69.76-.7.76-.69.76-.69.76-.7.76-.69.76-.69.76-.7.77-.69.76-.69.76-.7.76-.69.76-.69.76-.7.76-.69.76-.69.76-.7.76-.69.77-.69.76-.7.76-.69.76-.69.76-.7.76-.69.76-.69.76-.7.76-.69.77-.69.76-.7.76-.69.76-.69.76-.7.76-.69.76-.69.76-.7.76-.69.77-.69.76-.7.76-.69.76-.69.76-.7.76-.69.76-.69.76-.7.76-.69.76-.69.77-.7.76-.69.76-.69.76-.7.76-.69.76-.69.76-.7.76-.69.76-.69.77-.7.76-.69.76-.69.76-.7.76-.69.76-.69.76-.7.76-.69.76M213.68 365.76l.52.81.51.81.52.81.52.81.52.81.51.81.52.81.52.81.52.81.51.81.52.8.52.81.52.81.51.81.52.81.52.81.52.81.51.81.52.81.52.81.52.81.51.8.52.81.52.81.52.81.51.81.52.81.52.81.52.81.51.81.52.81.52.8.52.81.51.81.52.81.52.81.52.81.51.81.52.81.52.81.51.81.52.81.52.8.52.81.51.81.52.81.52.81.52.81.51.81.52.81.52.81.52.81.51.81.52.8.52.81.52.81.51.81.52.81.52.81.52.81.51.81.52.81.52.81.52.81.51.8.52.81.52.81.52.81.51.81.52.81.52.81.52.81.51.81.52.81.52.81.52.8.51.81.52.81.52.81.52.81.51.81.52.81.52.81.52.81.51.81.52.81.52.8.52.81.51.81.52.81.52.81.52.81.51.81.52.81.52.81.52.81.51.8.52.81.52.81" style="stroke-width:1.07;stroke:#000;stroke-opacity:.1;stroke-linecap:butt"/><path d="m213.68 365.76.63-.79.64-.8.64-.79.65-.79.65-.79.65-.79.66-.79.65-.79.67-.79.66-.78.67-.79.67-.78.68-.78.68-.78.68-.78.69-.78.69-.78.69-.78.7-.77.7-.78.7-.77.71-.77.71-.78.71-.77.72-.77.72-.76.72-.77.73-.77.73-.76.74-.76.73-.77.74-.76.75-.76.75-.76.75-.75.75-.76.76-.76.76-.75.77-.76.77-.75.77-.75.77-.75.78-.75.78-.75.79-.74.79-.75.79-.74.79-.75.8-.74.81-.74.8-.74.81-.74.81-.74.82-.74.82-.73.82-.74.83-.73.83-.73.83-.73.84-.73.84-.73.84-.73.85-.73.85-.72.85-.73.86-.72.86-.72.86-.72.87-.73.87-.71.88-.72.87-.72.89-.71.88-.72.89-.71.89-.72.89-.71.9-.71.9-.71.91-.7.91-.71.91-.71.91-.7.92-.71.93-.7.92-.7.93-.7.93-.7.94-.7.94-.69.94-.7.95-.69.94-.7.96-.69.95-.69.96-.69.97-.69.96-.69.97-.69M246.89 154.51l1.04.7 1.04.69 1.05.69 1.05.69 1.05.69 1.06.69 1.06.68 1.06.69 1.06.68 1.07.68 1.07.68 1.07.68 1.08.67 1.08.68 1.08.67 1.08.67 1.09.67 1.09.67 1.09.66 1.1.67 1.09.66 1.11.66 1.1.66 1.11.66 1.11.65 1.11.66 1.11.65 1.12.65 1.12.65 1.13.65 1.12.64 1.13.65 1.13.64 1.14.64 1.14.64 1.14.64 1.14.64 1.15.63 1.15.63 1.15.64 1.15.63 1.16.62 1.16.63 1.16.63 1.17.62 1.17.62 1.17.62 1.18.62 1.17.62 1.18.61 1.19.61 1.18.62 1.19.61 1.19.61 1.2.6 1.2.61 1.2.6 1.2.6 1.21.6 1.2.6 1.22.6 1.21.6 1.22.59 1.22.59 1.22.59 1.23.59 1.23.59 1.23.58 1.23.59 1.24.58 1.24.58 1.24.58 1.25.58 1.25.58 1.25.57 1.25.57 1.26.57 1.26.57 1.26.57 1.27.57 1.26.56 1.28.56 1.27.57 1.28.56 1.28.55 1.28.56 1.28.55 1.29.56 1.29.55 1.3.55 1.29.55 1.3.54 1.31.55 1.3.54 1.31.54 1.31.54 1.31.54 1.32.54 1.32.53" style="stroke-width:1.07;stroke:#000;stroke-opacity:.1;stroke-linecap:butt"/><path d="m246.89 154.51 1.32.54 1.31.53 1.32.54 1.31.54 1.31.54 1.3.55 1.3.54 1.3.55 1.3.55 1.29.55 1.3.55 1.28.55 1.29.56 1.28.55 1.28.56 1.28.56 1.27.56 1.27.57 1.27.56 1.27.57 1.26.56 1.26.57 1.26.57 1.25.58 1.25.57 1.25.58 1.25.57 1.24.58 1.24.58 1.24.59 1.23.58 1.23.59 1.23.58 1.23.59 1.22.59 1.22.6 1.22.59 1.21.6 1.21.59 1.21.6 1.21.6 1.2.61 1.2.6 1.2.6 1.19.61 1.19.61 1.19.61 1.19.61 1.18.62 1.18.61 1.18.62 1.17.62 1.18.62 1.17.62 1.16.62 1.17.63 1.16.62 1.15.63 1.16.63 1.15.63 1.15.64 1.15.63 1.14.64 1.14.63 1.14.64 1.13.65 1.14.64 1.13.64 1.12.65 1.13.65 1.12.65 1.11.65 1.12.65 1.11.65 1.11.66 1.11.66 1.1.66 1.1.66 1.1.66 1.1.67 1.09.66 1.09.67 1.09.67 1.08.67 1.08.67 1.08.67 1.07.68 1.08.68 1.07.68 1.06.68 1.07.68 1.06.68 1.06.69 1.05.68 1.06.69 1.05.69 1.04.7 1.05.69 1.04.69M292.68 524.17l-.1-.81-.11-.81-.11-.81-.11-.81-.12-.81-.12-.81-.12-.8-.13-.81-.13-.81-.13-.8-.14-.81-.14-.81-.15-.8-.15-.81-.15-.8-.16-.81-.16-.8-.16-.8-.17-.81-.17-.8-.17-.8-.18-.8-.18-.8-.19-.8-.19-.81-.19-.8-.2-.8-.2-.8-.2-.79-.21-.8-.21-.8-.22-.8-.22-.8-.22-.79-.22-.8-.23-.8-.24-.79-.23-.8-.24-.79-.25-.8-.25-.79-.25-.8-.25-.79-.26-.79-.26-.8-.27-.79-.27-.79-.27-.79-.28-.79-.28-.8-.28-.79-.29-.79-.29-.79-.3-.79-.3-.78-.3-.79-.31-.79-.3-.79-.32-.79-.32-.78-.32-.79-.32-.79-.33-.78-.33-.79-.33-.78-.34-.79-.35-.78-.34-.79-.35-.78-.36-.78-.35-.79-.36-.78-.37-.78-.37-.78-.37-.78-.37-.78-.38-.78-.38-.78-.39-.78-.39-.78-.39-.78-.4-.78-.4-.78-.41-.78-.41-.77-.41-.78-.41-.78-.42-.77-.42-.78-.43-.78-.43-.77-.43-.78-.44-.77-.44-.77-.45-.78-.45-.77-.45-.77-.45-.78-.46-.77" style="stroke-width:1.07;stroke:#000;stroke-opacity:.1;stroke-linecap:butt"/><path d="m292.68 524.17-.46-.77-.45-.78-.46-.77-.44-.77-.45-.78-.44-.77-.44-.77-.43-.78-.43-.77-.43-.78-.42-.78-.42-.77-.41-.78-.42-.78-.4-.77-.41-.78-.4-.78-.4-.78-.39-.78-.39-.78-.39-.77-.38-.78-.38-.79-.37-.78-.38-.78-.36-.78-.37-.78-.36-.78-.36-.79-.35-.78-.35-.78-.35-.79-.34-.78-.34-.79-.33-.78-.33-.79-.33-.78-.33-.79-.32-.79-.31-.78-.32-.79-.31-.79-.3-.79-.3-.79-.3-.78-.3-.79-.29-.79-.29-.79-.28-.79-.28-.79-.28-.8-.27-.79-.27-.79-.27-.79-.26-.8-.26-.79-.25-.79-.26-.8-.24-.79-.25-.8-.24-.79-.23-.8-.24-.79-.23-.8-.22-.8-.23-.79-.21-.8-.22-.8-.21-.8-.21-.8-.2-.79-.2-.8-.2-.8-.19-.8-.19-.8-.19-.81-.18-.8-.18-.8-.17-.8-.17-.8-.17-.81-.16-.8-.16-.8-.16-.81-.15-.8-.15-.81-.15-.8-.14-.81-.14-.8-.13-.81-.14-.81-.12-.81-.13-.8-.12-.81-.11-.81-.12-.81-.1-.81-.11-.81-.1-.81M293.12 292.37l1.24-.63 1.23-.63 1.22-.64 1.21-.64 1.2-.65 1.18-.64 1.18-.65 1.16-.66 1.16-.65 1.14-.66 1.13-.66 1.13-.67 1.11-.67 1.1-.67 1.09-.67 1.08-.68 1.06-.68 1.06-.68 1.05-.69 1.03-.68 1.03-.7 1.01-.69 1.01-.7.99-.7.98-.7.97-.71.96-.71.95-.71.94-.71.93-.72.92-.72.91-.73.89-.73.89-.73.87-.73.87-.73.85-.74.84-.74.83-.75.82-.75.82-.75.79-.75.79-.76.78-.76.77-.76.75-.77.75-.76.74-.78.72-.77.71-.78.71-.78.69-.78.68-.79.67-.79.66-.79.65-.79.64-.8.62-.8.62-.81.61-.8.59-.81.58-.82.58-.81.56-.82.55-.82.54-.83.54-.83.52-.83.5-.83.5-.84.49-.84.48-.84.46-.84.46-.85.44-.85.44-.86.42-.86.41-.86.4-.86.4-.87.38-.86.36-.88.36-.87.35-.88.34-.88.32-.88.32-.89.31-.89.29-.89.28-.9.28-.9.26-.9.25-.91.24-.9.23-.91.22-.92.2-.91.2-.92.19-.93" style="stroke-width:1.07;stroke:#000;stroke-opacity:.1;stroke-linecap:butt"/><path d="m293.12 292.37.89-.72.89-.73.88-.74.88-.73.87-.73.87-.73.87-.74.86-.74.87-.73.85-.74.85-.74.85-.74.85-.74.84-.74.84-.74.84-.75.83-.74.83-.75.82-.75.82-.74.82-.75.81-.75.81-.75.81-.75.8-.76.8-.75.8-.76.79-.75.79-.76.78-.76.79-.75.77-.76.78-.76.77-.77.77-.76.76-.76.76-.77.76-.76.75-.77.75-.77.74-.76.75-.77.73-.77.74-.78.73-.77.73-.77.72-.78.72-.77.72-.78.71-.78.71-.77.71-.78.7-.78.7-.78.7-.79.69-.78.69-.78.68-.79.68-.79.68-.78.67-.79.67-.79.67-.79.66-.79.66-.79.66-.8.65-.79.65-.8.65-.79.64-.8.64-.8.63-.8.63-.8.63-.8.62-.8.62-.8.62-.81.61-.8.61-.81.61-.81.6-.8.6-.81.59-.81.6-.81.58-.82.59-.81.58-.81.58-.82.57-.81.57-.82.57-.82.56-.82.56-.82.55-.82.56-.82.54-.82.55-.83.54-.82.54-.83M293.12 292.37l.54-.82.54-.83.55-.82.55-.82.55-.82.55-.83.56-.82.57-.81.56-.82.57-.82.58-.81.57-.82.58-.81.59-.82.59-.81.59-.81.59-.81.6-.81.6-.81.61-.8.61-.81.61-.8.62-.81.62-.8.62-.8.63-.8.63-.8.64-.8.63-.8.65-.8.64-.79.65-.8.65-.79.66-.8.66-.79.66-.79.67-.79.67-.79.67-.79.68-.79.68-.78.69-.79.68-.78.7-.78.69-.79.7-.78.7-.78.71-.78.71-.78.71-.77.72-.78.72-.78.72-.77.73-.77.73-.78.74-.77.74-.77.74-.77.74-.77.75-.76.76-.77.75-.76.76-.77.77-.76.76-.77.77-.76.78-.76.78-.76.78-.76.78-.75.79-.76.79-.76.8-.75.8-.75.8-.76.81-.75.81-.75.81-.75.82-.75.82-.75.83-.74.82-.75.84-.74.83-.75.84-.74.84-.74.85-.74.85-.74.85-.74.86-.74.86-.74.86-.73.87-.74.87-.73.87-.73.88-.74.88-.73.89-.73.89-.73" style="stroke-width:1.07;stroke:#000;stroke-opacity:.1;stroke-linecap:butt"/><path d="m293.12 292.37.19-.92.2-.92.21-.91.21-.92.23-.91.24-.91.26-.9.26-.9.27-.9.28-.9.3-.89.3-.89.32-.89.32-.88.34-.88.35-.88.36-.87.37-.88.38-.87.39-.86.4-.87.41-.86.42-.85.44-.86.44-.85.46-.85.46-.84.48-.84.49-.84.5-.84.51-.83.52-.84.53-.82.54-.83.55-.82.56-.82.58-.81.58-.82.6-.81.6-.8.62-.81.63-.8.63-.8.65-.79.66-.79.67-.79.68-.79.7-.78.7-.78.71-.78.73-.78.73-.77.75-.77.75-.76.77-.76.78-.76.79-.76.8-.75.81-.75.82-.75.83-.75.84-.74.86-.74.86-.73.87-.74.89-.73.9-.72.9-.73.92-.72.93-.72.94-.71.95-.71.96-.71.97-.71.98-.7.99-.7 1.01-.7 1.01-.7 1.03-.69 1.03-.69 1.05-.68 1.06-.68 1.07-.68 1.07-.68 1.09-.67 1.1-.67 1.12-.67 1.12-.67 1.13-.66 1.14-.66 1.16-.65 1.16-.66 1.18-.65 1.19-.64 1.19-.65 1.21-.64 1.22-.64 1.23-.63 1.24-.64" style="stroke-width:1.07;stroke:#000;stroke-opacity:.1;stroke-linecap:butt"/><path d="m213.68 358.76 6.06 10.5h-12.12zM522.77 227.23l1.92 3.32h-3.83zM432.39 137.86l1.92 3.31h-3.83zM246.89 147.51l6.06 10.5h-12.12zM292.68 517.17l6.06 10.5h-12.12z" style="stroke-width:.71;stroke:none;fill:#00ba38"/><path d="M288.62 296.88h9v-9.01h-9z" style="stroke-width:.71;stroke:none;fill:#619cff"/><circle cx="55.97" cy="369.04" r="1.42" style="stroke-width:.71;stroke:none;fill:#f8766d"/><circle cx="363.75" cy="215.41" r="6.76" style="stroke-width:.71;stroke:none;fill:#f8766d"/><circle cx="264.91" cy="445.86" r="5.78" style="stroke-width:.71;stroke:none;fill:#f8766d"/><path d="m208.53 370.4 4.29-3.86M517.98 226.26l3.8 2.52M427.15 144.81l4.38-3.97M241.75 159.14l4.28-3.85M297.9 519.45l-4.36 3.94M298.52 287.7l-4.52 3.91M60.86 367.08l-3.75 1.5M358.43 220.01l4.44-3.84M259.47 450.57l4.56-3.95" style="stroke-width:.53;stroke:#bfbfbf"/><path d="M185.71 381.75h30.83-.09l.35-.01.34-.07.33-.13.3-.17.27-.22.23-.26.18-.29.14-.32.08-.34.03-.35v-7.03l-.03-.34-.08-.34-.14-.32-.18-.29-.23-.26-.27-.22-.3-.18-.33-.12-.34-.07-.26-.02h-30.83l.26.02-.35-.01-.34.04-.34.1-.31.14-.29.2-.25.24-.21.28-.16.31-.11.33-.05.34-.01.17v7.03l.01-.17v.35l.05.34.11.33.16.31.21.27.25.25.29.19.31.15.34.1.34.04z" style="stroke-width:.53;fill:#fff;fill-opacity:.5"/><text x="201.12" y="378.15" lengthAdjust="spacingAndGlyphs" style="font-size:5.69px;font-family:&quot;Liberation Sans&quot;" text-anchor="middle" textLength="27.95">SANC LLC</text><path d="M454.89 229.74h60.93-.08l.34-.02.34-.07.33-.12.3-.17.27-.22.23-.26.19-.3.13-.32.08-.34.03-.34v-7.03l-.03-.35-.08-.33-.13-.32-.19-.3-.23-.26-.27-.22-.3-.17-.33-.12-.34-.07-.26-.02h-60.93l.26.02-.35-.02-.34.04-.34.1-.31.15-.29.2-.25.24-.21.28-.16.3-.11.33-.05.35-.01.17v7.03l.01-.18v.35l.05.35.11.33.16.3.21.28.25.24.29.2.31.15.34.09.34.05z" style="stroke-width:.53;fill:#fff;fill-opacity:.5"/><text x="485.36" y="226.14" lengthAdjust="spacingAndGlyphs" style="font-size:5.69px;font-family:&quot;Liberation Sans&quot;" text-anchor="middle" textLength="58.05">RICARDO CIGNEROS</text><path d="M389.54 156.15h60.42-.09l.35-.01.34-.07.33-.13.3-.17.27-.22.23-.26.18-.29.14-.32.08-.34.03-.35v-7.02l-.03-.35-.08-.34-.14-.32-.18-.29-.23-.26-.27-.22-.3-.18-.33-.12-.34-.07-.26-.01h-60.42l.26.01-.35-.01-.34.04-.34.1-.31.15-.29.19-.25.24-.21.28-.16.31-.11.33-.05.34-.01.18v7.02l.01-.17v.35l.05.34.11.33.16.31.21.28.25.24.29.19.31.15.34.1.34.04z" style="stroke-width:.53;fill:#fff;fill-opacity:.5"/><text x="419.75" y="152.55" lengthAdjust="spacingAndGlyphs" style="font-size:5.69px;font-family:&quot;Liberation Sans&quot;" text-anchor="middle" textLength="57.54">RICARDO CIXNEROS</text><path d="M204.27 170.49h60.13-.09l.35-.01.34-.07.33-.13.3-.17.27-.22.23-.26.18-.29.14-.32.08-.34.03-.35v-7.03l-.03-.34-.08-.34-.14-.32-.18-.29-.23-.26-.27-.22-.3-.18-.33-.12-.34-.07-.26-.02h-60.13l.26.02-.35-.01-.35.04-.33.09-.31.15-.29.2-.25.24-.21.28-.16.31-.11.33-.06.34v7.2-.17.35l.06.34.11.33.16.31.21.27.25.24.29.2.31.15.33.1.35.04z" style="stroke-width:.53;fill:#fff;fill-opacity:.5"/><text x="234.33" y="166.89" lengthAdjust="spacingAndGlyphs" style="font-size:5.69px;font-family:&quot;Liberation Sans&quot;" text-anchor="middle" textLength="57.25">RICARDO CISNEROS</text><path d="M286.64 519.45h37.26l-.08-.01.34-.01.34-.07.33-.12.3-.18.27-.22.23-.26.19-.29.13-.32.09-.34.02-.34v-7.03l-.02-.35-.09-.34-.13-.32-.19-.29-.23-.26-.27-.22-.3-.17-.33-.13-.34-.07-.26-.01h-37.26l.26.01-.34-.01-.35.04-.33.1-.32.15-.28.2-.25.24-.21.27-.16.31-.11.33-.06.34-.01.18v7.03l.01-.18v.35l.06.34.11.33.16.31.21.28.25.24.28.2.32.15.33.09.35.04z" style="stroke-width:.53;fill:#fff;fill-opacity:.5"/><text x="305.27" y="515.85" lengthAdjust="spacingAndGlyphs" style="font-size:5.69px;font-family:&quot;Liberation Sans&quot;" text-anchor="middle" textLength="34.38">CUESTA LLC</text><path d="M275.47 287.7h70.34-.09l.35-.01.34-.07.33-.12.3-.18.27-.22.23-.26.18-.29.14-.32.08-.34.03-.35v-15.22l-.03-.34-.08-.34-.14-.32-.18-.3-.23-.26-.27-.22-.3-.17-.33-.12-.34-.07-.26-.02h-70.34l.26.02-.34-.02-.35.05-.33.09-.32.15-.28.2-.25.24-.21.28-.16.31-.11.33-.06.34-.01.17v15.22l.01-.17v.35l.06.34.11.33.16.31.21.28.25.24.28.19.32.15.33.1.35.04z" style="stroke-width:.53;fill:#fff;fill-opacity:.5"/><text x="310.64" y="275.91" lengthAdjust="spacingAndGlyphs" style="font-size:5.69px;font-family:&quot;Liberation Sans&quot;" text-anchor="middle" textLength="66.02">16970 OAK PARK ROW,</text><text x="310.64" y="284.1" lengthAdjust="spacingAndGlyphs" style="font-size:5.69px;font-family:&quot;Liberation Sans&quot;" text-anchor="middle" textLength="67.46">BROOKFIELD, WI 53005</text><path d="M63.02 376.57h70.34-.09l.35-.02.34-.07.33-.12.3-.17.27-.22.23-.26.18-.3.14-.32.08-.34.03-.34v-15.22l-.03-.35-.08-.34-.14-.32-.18-.29-.23-.26-.27-.22-.3-.18-.33-.12-.34-.07-.26-.01H63.02l.26.01-.34-.01-.35.04-.33.1-.32.15-.28.19-.25.24-.21.28-.16.31-.11.33-.06.34-.01.18v15.22l.01-.18v.35l.06.34.11.33.16.31.21.28.25.24.28.2.32.15.33.09.35.05z" style="stroke-width:.53;fill:#fff;fill-opacity:.5"/><text x="98.19" y="364.77" lengthAdjust="spacingAndGlyphs" style="font-size:5.69px;font-family:&quot;Liberation Sans&quot;" text-anchor="middle" textLength="29.91">POB 2113,</text><text x="98.19" y="372.97" lengthAdjust="spacingAndGlyphs" style="font-size:5.69px;font-family:&quot;Liberation Sans&quot;" text-anchor="middle" textLength="67.46">BROOKFIELD, WI 53008</text><path d="M311.13 239.55h70.34-.09l.35-.02.34-.07.32-.12.31-.18.26-.22.24-.26.18-.29.14-.32.08-.34.03-.34v-15.22l-.03-.35-.08-.34-.14-.32-.18-.29-.24-.26-.26-.22-.31-.18-.32-.12-.34-.07-.26-.01h-70.34l.26.01-.35-.01-.34.04-.33.1-.32.14-.28.2-.26.24-.2.28-.17.31-.11.33-.05.34-.01.18v15.22l.01-.18v.35l.05.34.11.33.17.31.2.28.26.24.28.2.32.15.33.09.34.05z" style="stroke-width:.53;fill:#fff;fill-opacity:.5"/><text x="346.3" y="227.75" lengthAdjust="spacingAndGlyphs" style="font-size:5.69px;font-family:&quot;Liberation Sans&quot;" text-anchor="middle" textLength="66.02">16970 OAK PARK ROW,</text><text x="346.3" y="235.95" lengthAdjust="spacingAndGlyphs" style="font-size:5.69px;font-family:&quot;Liberation Sans&quot;" text-anchor="middle" textLength="67.46">BROOKFIELD, WI 53005</text><path d="M212.14 470.11h70.34-.09l.35-.02.34-.07.33-.12.3-.17.27-.22.23-.26.18-.3.14-.32.08-.33.03-.35v-15.22l-.03-.35-.08-.34-.14-.32-.18-.29-.23-.26-.27-.22-.3-.17-.33-.13-.34-.07-.26-.01h-70.34l.26.01-.34-.01-.35.04-.33.1-.32.15-.28.19-.25.25-.21.27-.16.31-.11.33-.06.34-.01.18v15.22l.01-.17v.34l.06.35.11.33.16.3.21.28.25.24.28.2.32.15.33.1.35.04z" style="stroke-width:.53;fill:#fff;fill-opacity:.5"/><text x="247.31" y="458.31" lengthAdjust="spacingAndGlyphs" style="font-size:5.69px;font-family:&quot;Liberation Sans&quot;" text-anchor="middle" textLength="39.62">PO BOX 2113,</text><text x="247.31" y="466.51" lengthAdjust="spacingAndGlyphs" style="font-size:5.69px;font-family:&quot;Liberation Sans&quot;" text-anchor="middle" textLength="67.46">BROOKFIELD, WI 53008</text></g><g clip-path="url(#cpMC4wMHw1NzYuMDB8MC4wMHw1NzYuMDA=)"><circle cx="196.98" cy="95.78" r="1.95" style="stroke-width:.71;stroke:none;fill:#f8766d"/><path d="m273.33 92.74 2.63 4.56h-5.26z" style="stroke-width:.71;stroke:none;fill:#00ba38"/><path d="M339.31 97.74h3.91v-3.91h-3.91z" style="stroke-width:.71;stroke:none;fill:#619cff"/><text x="211.09" y="98.81" lengthAdjust="spacingAndGlyphs" style="font-size:8.8px;font-family:&quot;Liberation Sans Narrow&quot;" textLength="48.12">mprop address</text><text x="287.45" y="98.81" lengthAdjust="spacingAndGlyphs" style="font-size:8.8px;font-family:&quot;Liberation Sans Narrow&quot;" textLength="39.69">owner name</text><text x="355.38" y="98.81" lengthAdjust="spacingAndGlyphs" style="font-size:8.8px;font-family:&quot;Liberation Sans Narrow&quot;" textLength="40.5">wdfi address</text><text x="32.63" y="64.23" lengthAdjust="spacingAndGlyphs" style="font-size:12px;font-family:&quot;Liberation Sans Narrow&quot;" textLength="246.76">includes 8 parcels, 17 units, and 5 distinct owner names.</text><text x="32.63" y="42.27" lengthAdjust="spacingAndGlyphs" style="font-size:18px;font-weight:700;font-family:&quot;Liberation Sans Narrow&quot;" textLength="140.21">CUESTA LLC Group</text></g></svg>