<svg xmlns="http://www.w3.org/2000/svg" width="576" height="672" class="svglite" viewBox="0 0 432 504"><defs><style><![CDATA[.svglite line,.svglite polyline,.svglite polygon,.svglite path,.svglite circle{fill:none;stroke:#000000;stroke-linecap:round;stroke-linejoin:round;stroke-miterlimit:10.00}]]></style></defs><rect width="100%" height="100%" style="stroke-linecap:round;stroke-linejoin:round;stroke-miterlimit:10.00;stroke:none;fill:#FFFFFF"/><defs><clipPath id="cpMC4wMHw0MzIuMDB8MC4wMHw1MDQuMDA="><path d="M0 0h432v504H0z"/></clipPath></defs><g clip-path="url(#cpMC4wMHw0MzIuMDB8MC4wMHw1MDQuMDA=)"><path d="M0 0h432v504H0z" style="stroke-width:1.07;stroke:none;fill:#FFFFFF"/></g><defs><clipPath id="cpMzIuNjN8NDAyLjExfDE0MS4yMnw0NzEuMzc="><path d="M32.63 141.22h369.48v330.15H32.63z"/></clipPath></defs><g clip-path="url(#cpMzIuNjN8NDAyLjExfDE0MS4yMnw0NzEuMzc=)"><path d="m385.32 456.37-1.37-1.57-1.38-1.57-1.38-1.56-1.38-1.55-1.38-1.55-1.39-1.55-1.39-1.55-1.4-1.54-1.4-1.54-1.4-1.53-1.41-1.53-1.4-1.52-1.42-1.52-1.41-1.52-1.42-1.52-1.43-1.5-1.42-1.51-1.43-1.5-1.44-1.5-1.44-1.49-1.44-1.5-1.44-1.48-1.45-1.48-1.45-1.48-1.45-1.48-1.46-1.47-1.47-1.47-1.46-1.46-1.47-1.46-1.47-1.45-1.48-1.46-1.48-1.44-1.48-1.45-1.49-1.44-1.49-1.43-1.49-1.44-1.5-1.42-1.5-1.43-1.5-1.42-1.51-1.42-1.51-1.41-1.51-1.41-1.52-1.4-1.52-1.4-1.53-1.4-1.53-1.39-1.53-1.39-1.53-1.39-1.54-1.38-1.54-1.38-1.55-1.37-1.55-1.37-1.55-1.37-1.56-1.36-1.56-1.36-1.56-1.36-1.57-1.35-1.57-1.34-1.57-1.35-1.58-1.34-1.58-1.33-1.58-1.33-1.59-1.33-1.59-1.33-1.6-1.32-1.6-1.31-1.6-1.31-1.6-1.31-1.61-1.31-1.61-1.3-1.62-1.29-1.62-1.3-1.62-1.28-1.63-1.29-1.63-1.28-1.63-1.28-1.64-1.27-1.64-1.27-1.64-1.27-1.65-1.26-1.65-1.26-1.65-1.25-1.66-1.25-1.66-1.25-1.67-1.24-1.67-1.24-1.67-1.23-1.67-1.23-1.68-1.23-1.68-1.22-1.69-1.22-1.69-1.22-1.69-1.21-1.7-1.21-1.7-1.2-1.7-1.2-1.71-1.2-1.71-1.19-1.71-1.19m19.86-154.35-.2 1.56-.2 1.56-.2 1.56-.2 1.56-.2 1.56-.2 1.56-.2 1.56-.2 1.56-.2 1.56-.2 1.55-.2 1.56-.2 1.56-.2 1.56-.2 1.56-.21 1.56-.2 1.56-.2 1.56-.2 1.56-.2 1.56-.2 1.56-.2 1.55-.2 1.56-.2 1.56-.2 1.56-.2 1.56-.2 1.56-.2 1.56-.2 1.56-.2 1.56-.21 1.56-.2 1.56-.2 1.55-.2 1.56-.2 1.56-.2 1.56-.2 1.56-.2 1.56-.2 1.56-.2 1.56-.2 1.56-.2 1.56-.2 1.56-.2 1.55-.2 1.56-.21 1.56-.2 1.56-.2 1.56-.2 1.56-.2 1.56-.2 1.56-.2 1.56-.2 1.56-.2 1.56-.2 1.55-.2 1.56-.2 1.56-.2 1.56-.2 1.56-.2 1.56-.21 1.56-.2 1.56-.2 1.56-.2 1.56-.2 1.56-.2 1.56-.2 1.55-.2 1.56-.2 1.56-.2 1.56-.2 1.56-.2 1.56-.2 1.56-.2 1.56-.21 1.56-.2 1.56-.2 1.56-.2 1.55-.2 1.56-.2 1.56-.2 1.56-.2 1.56-.2 1.56-.2 1.56-.2 1.56-.2 1.56-.2 1.56-.2 1.56-.2 1.55-.21 1.56-.2 1.56-.2 1.56-.2 1.56-.2 1.56-.2 1.56-.2 1.56-.2 1.56-.2 1.56-.2 1.56-.2 1.55m19.86-154.35-1.73 1.93-1.74 1.92-1.74 1.93-1.74 1.92-1.73 1.92-1.74 1.93-1.74 1.92-1.74 1.93-1.73 1.92-1.74 1.93-1.74 1.92-1.74 1.92-1.73 1.93-1.74 1.92-1.74 1.93-1.74 1.92-1.73 1.93-1.74 1.92-1.74 1.92-1.74 1.93-1.73 1.92-1.74 1.93-1.74 1.92-1.74 1.93-1.73 1.92-1.74 1.92-1.74 1.93-1.74 1.92-1.73 1.93-1.74 1.92-1.74 1.93-1.74 1.92-1.73 1.92-1.74 1.93-1.74 1.92-1.74 1.93-1.73 1.92-1.74 1.93-1.74 1.92-1.74 1.92-1.74 1.93-1.73 1.92-1.74 1.93-1.74 1.92-1.74 1.92-1.73 1.93-1.74 1.92-1.74 1.93-1.74 1.92-1.73 1.93-1.74 1.92-1.74 1.92-1.74 1.93-1.73 1.92-1.74 1.93-1.74 1.92-1.74 1.93-1.73 1.92-1.74 1.92-1.74 1.93-1.74 1.92-1.73 1.93-1.74 1.92-1.74 1.93-1.74 1.92-1.73 1.92-1.74 1.93-1.74 1.92-1.74 1.93-1.73 1.92-1.74 1.93-1.74 1.92-1.74 1.92-1.73 1.93-1.74 1.92-1.74 1.93-1.74 1.92-1.74 1.92-1.73 1.93-1.74 1.92-1.74 1.93-1.74 1.92-1.73 1.93-1.74 1.92-1.74 1.92-1.74 1.93-1.73 1.92-1.74 1.93-1.74 1.92-1.74 1.93-1.73 1.92-1.74 1.92-1.74 1.93-1.74 1.92-1.73 1.93-1.74 1.92-1.74 1.93-1.74 1.92-1.73 1.92m304.84 100.28-1.72-1.19-1.71-1.19-1.7-1.2-1.71-1.2-1.7-1.2-1.69-1.21-1.7-1.21-1.68-1.22-1.69-1.22-1.68-1.22-1.68-1.23-1.68-1.23-1.67-1.23-1.67-1.24-1.66-1.24-1.66-1.25-1.66-1.25-1.65-1.25-1.66-1.26-1.64-1.26-1.65-1.27-1.64-1.27-1.63-1.27-1.64-1.28-1.63-1.28-1.62-1.29-1.63-1.28-1.61-1.3-1.62-1.29-1.61-1.3-1.61-1.31-1.61-1.31-1.6-1.31-1.6-1.31-1.59-1.32-1.59-1.33-1.59-1.33-1.58-1.33-1.59-1.33-1.57-1.34-1.58-1.35-1.57-1.34-1.56-1.35-1.57-1.36-1.56-1.36-1.55-1.36-1.56-1.37-1.55-1.37-1.54-1.37-1.54-1.38-1.54-1.38-1.54-1.39-1.53-1.39-1.53-1.39-1.52-1.4-1.52-1.4-1.52-1.4-1.52-1.41-1.51-1.41-1.5-1.42-1.51-1.42-1.5-1.43-1.5-1.42-1.49-1.44-1.49-1.43-1.48-1.44-1.49-1.45-1.48-1.44-1.47-1.46-1.48-1.45-1.46-1.46-1.47-1.46-1.46-1.47-1.46-1.47-1.45-1.48-1.46-1.48-1.44-1.48-1.45-1.48-1.44-1.5-1.44-1.49-1.43-1.5-1.43-1.5-1.43-1.51-1.42-1.5-1.42-1.52-1.42-1.52-1.41-1.52-1.41-1.52-1.41-1.53-1.4-1.53-1.4-1.54-1.39-1.54-1.39-1.55-1.39-1.55-1.39-1.55-1.38-1.55-1.38-1.56-1.37-1.57-1.37-1.57" style="stroke-width:1.07;stroke:#000000;stroke-opacity:0.10;stroke-linecap:butt"/><path d="m49.42 156.23 1.85 1.65 1.85 1.66 1.85 1.65 1.85 1.66 1.86 1.65 1.85 1.65 1.85 1.66 1.85 1.65 1.85 1.65 1.85 1.66 1.85 1.65 1.85 1.66 1.85 1.65 1.85 1.65 1.85 1.66 1.85 1.65 1.85 1.65 1.85 1.66 1.85 1.65 1.85 1.65 1.85 1.66 1.85 1.65 1.86 1.66 1.85 1.65 1.85 1.65 1.85 1.66 1.85 1.65 1.85 1.65 1.85 1.66 1.85 1.65 1.85 1.65 1.85 1.66 1.85 1.65 1.85 1.66 1.85 1.65 1.85 1.65 1.85 1.66 1.85 1.65 1.85 1.65 1.85 1.66 1.86 1.65 1.85 1.66 1.85 1.65 1.85 1.65 1.85 1.66 1.85 1.65 1.85 1.65 1.85 1.66 1.85 1.65 1.85 1.65 1.85 1.66 1.85 1.65 1.85 1.66 1.85 1.65 1.85 1.65 1.85 1.66 1.85 1.65 1.86 1.65 1.85 1.66 1.85 1.65 1.85 1.65 1.85 1.66 1.85 1.65 1.85 1.66 1.85 1.65 1.85 1.65 1.85 1.66 1.85 1.65 1.85 1.65 1.85 1.66 1.85 1.65 1.85 1.66 1.85 1.65 1.85 1.65 1.85 1.66 1.86 1.65 1.85 1.65 1.85 1.66 1.85 1.65 1.85 1.65 1.85 1.66 1.85 1.65 1.85 1.66 1.85 1.65 1.85 1.65 1.85 1.66 1.85 1.65 1.85 1.65 1.85 1.66 1.85 1.65 1.85 1.65 1.85 1.66 1.85 1.65 1.86 1.66 1.85 1.65 1.85 1.65 1.85 1.66 1.85 1.65 1.85 1.65M80.48 356.09l1.67.21 1.67.19 1.67.18 1.66.16 1.66.16 1.66.14 1.66.14 1.65.12 1.65.11 1.65.1 1.65.08 1.64.08 1.64.06 1.64.05 1.63.04 1.63.03 1.63.02h3.25l1.62-.02 1.62-.03 1.61-.04 1.61-.05 1.61-.07 1.61-.07 1.6-.09 1.6-.1 1.6-.11 1.6-.12 1.59-.13 1.59-.15 1.59-.15 1.58-.17 1.58-.18 1.58-.19 1.58-.21 1.57-.21 1.57-.23 1.57-.24 1.56-.24 1.56-.27 1.56-.27 1.56-.28 1.55-.3 1.55-.31 1.55-.31 1.55-.33 1.54-.35 1.54-.35 1.54-.37 1.53-.37 1.53-.39 1.53-.4 1.53-.41 1.52-.42 1.52-.44 1.52-.45 1.51-.45 1.51-.47 1.51-.48 1.51-.5 1.5-.5 1.5-.52 1.5-.52 1.5-.54 1.49-.55 1.49-.56 1.49-.58 1.48-.58 1.48-.6 1.48-.61 1.47-.62 1.48-.63 1.47-.64 1.47-.66 1.46-.66 1.46-.68 1.46-.69 1.46-.7 1.45-.72 1.45-.72 1.45-.74 1.44-.74 1.45-.76 1.44-.77 1.43-.78 1.44-.8 1.43-.8 1.43-.82 1.42-.83 1.43-.84 1.42-.85 1.41-.86 1.42-.88 1.41-.88 1.41-.9 1.4-.91 1.41-.92 1.4-.94" style="stroke-width:1.07;stroke:#000000;stroke-opacity:0.10;stroke-linecap:butt"/><path d="m80.48 356.09 1.58-.17 1.58-.18 1.58-.19 1.58-.18 1.58-.19 1.58-.2 1.57-.2 1.58-.2 1.57-.21 1.58-.21 1.57-.21 1.57-.22 1.57-.22 1.57-.23 1.57-.23 1.57-.23 1.57-.24 1.57-.24 1.56-.25 1.57-.25 1.56-.25 1.56-.26 1.56-.26 1.57-.26 1.56-.27 1.55-.28 1.56-.27 1.56-.28 1.56-.29 1.55-.28 1.56-.3 1.55-.29 1.55-.3 1.55-.3 1.56-.31 1.55-.31 1.54-.32 1.55-.32 1.55-.32 1.55-.33 1.54-.33 1.54-.33 1.55-.34 1.54-.34 1.54-.35 1.54-.35 1.54-.35 1.54-.36 1.54-.36 1.54-.36 1.53-.37 1.54-.38 1.53-.37 1.53-.38 1.54-.39 1.53-.39 1.53-.39 1.53-.39 1.53-.4 1.52-.41 1.53-.41 1.53-.41 1.52-.41 1.53-.42 1.52-.42 1.52-.43 1.52-.43 1.52-.44 1.52-.44 1.52-.44 1.52-.44 1.51-.45 1.52-.46 1.51-.46 1.52-.46 1.51-.46 1.51-.47 1.51-.48 1.51-.47 1.51-.48 1.51-.49 1.51-.49 1.5-.49 1.51-.5 1.5-.5 1.51-.5 1.5-.51 1.5-.51 1.5-.52 1.5-.52 1.5-.52 1.5-.53 1.5-.53 1.49-.53 1.5-.54 1.49-.54 1.49-.55 1.5-.55 1.49-.56M80.48 356.09l1.49-.55 1.49-.55 1.49-.55 1.5-.54 1.49-.54 1.5-.53 1.5-.54 1.49-.52 1.5-.53 1.5-.52 1.5-.51 1.5-.51 1.51-.51 1.5-.51 1.51-.5 1.5-.49 1.51-.49 1.5-.49 1.51-.49 1.51-.48 1.51-.48 1.51-.47 1.51-.47 1.52-.46 1.51-.47 1.52-.45 1.51-.46 1.52-.45 1.51-.44 1.52-.45 1.52-.43 1.52-.44 1.52-.43 1.53-.43 1.52-.42 1.52-.42 1.53-.41 1.52-.42 1.53-.4 1.53-.41 1.53-.4 1.53-.39 1.53-.4 1.53-.38 1.53-.39 1.53-.38 1.54-.38 1.53-.37 1.54-.37 1.53-.36 1.54-.36 1.54-.36 1.54-.35 1.54-.35 1.54-.35 1.55-.34 1.54-.34 1.54-.33 1.55-.34 1.54-.32 1.55-.32 1.55-.32 1.55-.32 1.55-.31 1.55-.31 1.55-.3 1.55-.3 1.56-.3 1.55-.29 1.56-.28 1.55-.29 1.56-.28 1.56-.28 1.56-.27 1.56-.27 1.56-.26 1.56-.26 1.56-.26 1.57-.25 1.56-.25 1.57-.25 1.56-.24 1.57-.24 1.57-.23 1.57-.23 1.57-.23 1.57-.22 1.57-.22 1.58-.21 1.57-.21 1.58-.21 1.57-.2 1.58-.2 1.58-.2 1.57-.19 1.58-.19 1.58-.18 1.59-.18 1.58-.18" style="stroke-width:1.07;stroke:#000000;stroke-opacity:0.10;stroke-linecap:butt"/><path d="m80.48 356.09 1.4-.93 1.4-.92 1.41-.91 1.41-.9 1.41-.88 1.41-.88 1.42-.86 1.42-.85 1.42-.84 1.43-.83 1.43-.82 1.43-.8 1.43-.8 1.44-.78 1.44-.77 1.44-.76 1.44-.75 1.45-.73 1.45-.73 1.46-.71 1.45-.7 1.46-.69 1.46-.68 1.47-.66 1.47-.66 1.47-.64 1.47-.63 1.47-.62 1.48-.61 1.48-.6 1.49-.58 1.49-.58 1.48-.56 1.5-.55 1.49-.54 1.5-.53 1.5-.51 1.5-.51 1.51-.49 1.51-.48 1.51-.47 1.52-.46 1.51-.44 1.52-.44 1.53-.42 1.52-.41 1.53-.4 1.53-.39 1.54-.38 1.53-.36 1.54-.36 1.55-.34 1.54-.33 1.55-.32 1.55-.3 1.55-.3 1.56-.28 1.56-.28 1.56-.26 1.57-.25 1.56-.23 1.57-.23 1.58-.21 1.57-.21 1.58-.19 1.58-.18 1.59-.17 1.58-.15 1.59-.15 1.6-.13 1.59-.12 1.6-.11 1.6-.1 1.6-.09 1.61-.08 1.61-.06 1.61-.05 1.62-.04 1.61-.03 1.62-.02 1.63-.01 1.62.01 1.63.02 1.63.02 1.64.05 1.63.05 1.64.06 1.65.08 1.64.08 1.65.1 1.65.11 1.65.12 1.66.13 1.66.15 1.66.15 1.67.17 1.66.18 1.67.19 1.68.2" style="stroke-width:1.07;stroke:#000000;stroke-opacity:0.10;stroke-linecap:butt"/><path d="m385.32 449.37 6.06 10.5h-12.13zM252.49 163.38l1.92 3.32h-3.83zm-203.07-9.36 1.92 3.32h-3.83z" style="stroke-width:0.71;stroke:none;fill:#00BA38"/><path d="M79.05 357.52h2.85v-2.85h-2.85z" style="stroke-width:0.71;stroke:none;fill:#619CFF"/><circle cx="232.63" cy="319.94" r="6.76" style="stroke-width:0.71;stroke:none;fill:#F8766D"/><path d="m247.7 170.29 3.98-3.9M85.5 351.37l-4.19 3.94m156.32-40.07-4.17 3.92" style="stroke-width:0.53;stroke:#BFBFBF"/><path d="M316.22 466.07h62.27-.08l.34-.02.35-.07.32-.12.3-.18.27-.22.23-.26.19-.29.13-.32.09-.34.02-.34h0v-15.16h0l-.02-.35-.09-.33-.13-.32-.19-.3-.23-.26-.27-.22-.3-.17-.32-.12-.35-.07-.26-.02h-62.27l.26.02-.35-.02-.34.04-.33.1-.32.15-.28.2-.26.24-.2.28-.17.3-.11.33-.05.35-.01.17v15.16l.01-.18v.35l.05.34.11.33.17.31.2.28.26.24.28.2.32.15.33.09.34.05z" style="stroke-width:0.53;fill:#FFFFFF;fill-opacity:0.50"/><text x="347.36" y="454.27" lengthAdjust="spacingAndGlyphs" style="font-size:5.69px;font-family:Arial" text-anchor="middle" textLength="59.39">DAVEY AND GOLIATH</text><text x="347.36" y="462.47" lengthAdjust="spacingAndGlyphs" style="font-size:5.69px;font-family:Arial" text-anchor="middle" textLength="10.43">LLC</text><path d="M207.86 181.58h66.07-.09l.35-.02.34-.07.32-.12.31-.18.26-.22.24-.26.18-.29.14-.32.08-.34.03-.34h0v-6.97h0l-.03-.34-.08-.34-.14-.32-.18-.29-.24-.26-.26-.22-.31-.18-.32-.12-.34-.07-.26-.02h-66.07l.26.02-.35-.01-.34.04-.33.09-.32.15-.28.2-.26.24-.2.28-.17.31-.11.33-.05.34-.01.17v6.97l.01-.18v.35l.05.34.11.33.17.31.2.28.26.24.28.2.32.15.33.09.34.05z" style="stroke-width:0.53;fill:#FFFFFF;fill-opacity:0.50"/><text x="240.89" y="177.98" lengthAdjust="spacingAndGlyphs" style="font-size:5.69px;font-family:Arial" text-anchor="middle" textLength="63.19">DAVEY &amp; GOLIATH LLC</text><path d="M56.3 161.8h48.38-.08l.34-.02.34-.07.33-.12.3-.17.27-.22.23-.26.19-.3.13-.32.09-.34.02-.34h0v-6.96h0l-.02-.35-.09-.34-.13-.32-.19-.29-.23-.26-.27-.22-.3-.18-.33-.12-.34-.07-.26-.01H56.3l.26.01-.35-.01-.34.04-.34.1-.31.14-.29.2-.25.24-.21.28-.16.31-.11.33-.05.34-.01.18v6.96l.01-.18v.35l.05.34.11.33.16.31.21.28.25.24.29.2.31.15.34.09.34.05z" style="stroke-width:0.53;fill:#FFFFFF;fill-opacity:0.50"/><text x="80.49" y="158.2" lengthAdjust="spacingAndGlyphs" style="font-size:5.69px;font-family:Arial" text-anchor="middle" textLength="45.5">JAMES R DAVEY</text><path d="M63.14 351.37h67.01-.08l.34-.01.35-.07.32-.12.3-.18.27-.22.23-.26.19-.29.13-.32.09-.34.02-.35h0v-15.15h0l-.02-.35-.09-.34-.13-.32-.19-.29-.23-.26-.27-.22-.3-.17-.32-.13-.35-.07-.26-.01H63.14l.26.01-.34-.01-.35.04-.33.1-.32.15-.28.19-.25.24-.21.28-.16.31-.11.33-.06.34-.01.18v15.15l.01-.17v.35l.06.34.11.33.16.31.21.28.25.24.28.19.32.15.33.1.35.04z" style="stroke-width:0.53;fill:#FFFFFF;fill-opacity:0.50"/><text x="96.65" y="339.58" lengthAdjust="spacingAndGlyphs" style="font-size:5.69px;font-family:Arial" text-anchor="middle" textLength="58.77">7131 FARSUND ALLE,</text><text x="96.65" y="347.77" lengthAdjust="spacingAndGlyphs" style="font-size:5.69px;font-family:Arial" text-anchor="middle" textLength="64.13">WATERFORD, WI 53185</text><path d="M215.27 315.24h67.01-.08l.34-.02.34-.07.33-.12.3-.17.27-.22.23-.26.19-.3.13-.32.08-.33.03-.35h0v-15.16h0l-.03-.34-.08-.34-.13-.32-.19-.29-.23-.26-.27-.22-.3-.18-.33-.12-.34-.07-.26-.02h-67.01l.26.02-.34-.02-.35.05-.33.09-.32.15-.28.2-.25.24-.21.28-.16.31-.11.33-.06.34-.01.17v15.16l.01-.17v.34l.06.35.11.33.16.3.21.28.25.24.28.2.32.15.33.1.35.04z" style="stroke-width:0.53;fill:#FFFFFF;fill-opacity:0.50"/><text x="248.78" y="303.45" lengthAdjust="spacingAndGlyphs" style="font-size:5.69px;font-family:Arial" text-anchor="middle" textLength="58.77">7131 FARSUND ALLE,</text><text x="248.78" y="311.64" lengthAdjust="spacingAndGlyphs" style="font-size:5.69px;font-family:Arial" text-anchor="middle" textLength="64.13">WATERFORD, WI 53185</text></g><g clip-path="url(#cpMC4wMHw0MzIuMDB8MC4wMHw1MDQuMDA=)"><circle cx="124.98" cy="116.15" r="1.95" style="stroke-width:0.71;stroke:none;fill:#F8766D"/><path d="m201.33 113.11 2.63 4.56h-5.26z" style="stroke-width:0.71;stroke:none;fill:#00BA38"/><path d="M267.31 118.1h3.91v-3.91h-3.91z" style="stroke-width:0.71;stroke:none;fill:#619CFF"/><text x="139.09" y="119.3" lengthAdjust="spacingAndGlyphs" style="font-size:8.80px;font-family:Arial Narrow" textLength="48.12">mprop address</text><text x="215.45" y="119.3" lengthAdjust="spacingAndGlyphs" style="font-size:8.80px;font-family:Arial Narrow" textLength="39.69">owner name</text><text x="283.38" y="119.3" lengthAdjust="spacingAndGlyphs" style="font-size:8.80px;font-family:Arial Narrow" textLength="40.5">wdfi address</text><text x="32.63" y="84.56" lengthAdjust="spacingAndGlyphs" style="font-size:12.00px;font-family:Arial Narrow" textLength="241.29">includes 4 parcels, 8 units, and 3 distinct owner names.</text><text x="32.63" y="42.78" lengthAdjust="spacingAndGlyphs" style="font-size:18.00px;font-weight:bold;font-family:Arial Narrow" textLength="339">DAVEY AND GOLIATH LLC -- DAVEY &amp; GOLIATH</text><text x="32.63" y="62.22" lengthAdjust="spacingAndGlyphs" style="font-size:18.00px;font-weight:bold;font-family:Arial Narrow" textLength="214.3">LLC -- JAMES R DAVEY Group</text></g></svg>