<svg xmlns="http://www.w3.org/2000/svg" width="576" height="672" class="svglite" viewBox="0 0 432 504"><defs><style><![CDATA[.svglite line,.svglite polyline,.svglite polygon,.svglite path,.svglite circle{fill:none;stroke:#000000;stroke-linecap:round;stroke-linejoin:round;stroke-miterlimit:10.00}]]></style></defs><rect width="100%" height="100%" style="stroke-linecap:round;stroke-linejoin:round;stroke-miterlimit:10.00;stroke:none;fill:#FFFFFF"/><defs><clipPath id="cpMC4wMHw0MzIuMDB8MC4wMHw1MDQuMDA="><path d="M0 0h432v504H0z"/></clipPath></defs><g clip-path="url(#cpMC4wMHw0MzIuMDB8MC4wMHw1MDQuMDA=)"><path d="M0 0h432v504H0z" style="stroke-width:1.07;stroke:none;fill:#FFFFFF"/></g><defs><clipPath id="cpMzIuNjN8NDAyLjExfDE2MC42Nnw0NzEuMzc="><path d="M32.63 160.66h369.48v310.71H32.63z"/></clipPath></defs><g clip-path="url(#cpMzIuNjN8NDAyLjExfDE2MC42Nnw0NzEuMzc=)"><path d="m385.32 457.25-.34-1.57-.34-1.56-.35-1.57-.34-1.56-.34-1.57-.34-1.56-.34-1.56-.34-1.57-.34-1.56-.34-1.57-.34-1.56-.34-1.57-.34-1.56-.34-1.57-.34-1.56-.35-1.57-.34-1.56-.34-1.57-.34-1.56-.34-1.57-.34-1.56-.34-1.57-.34-1.56-.34-1.57-.34-1.56-.34-1.57-.34-1.56-.35-1.57-.34-1.56-.34-1.57-.34-1.56-.34-1.57-.34-1.56-.34-1.57-.34-1.56-.34-1.57-.34-1.56-.34-1.57-.34-1.56-.35-1.57-.34-1.56-.34-1.56-.34-1.57-.34-1.56-.34-1.57-.34-1.56-.34-1.57-.34-1.56-.34-1.57-.34-1.56-.34-1.57-.35-1.56-.34-1.57-.34-1.56-.34-1.57-.34-1.56-.34-1.57-.34-1.56-.34-1.57-.34-1.56-.34-1.57-.34-1.56-.34-1.57-.34-1.56-.35-1.57-.34-1.56-.34-1.57-.34-1.56-.34-1.57-.34-1.56-.34-1.57-.34-1.56-.34-1.57-.34-1.56-.34-1.56-.34-1.57-.35-1.56-.34-1.57-.34-1.56-.34-1.57-.34-1.56-.34-1.57-.34-1.56-.34-1.57-.34-1.56-.34-1.57-.34-1.56-.34-1.57-.35-1.56-.34-1.57-.34-1.56-.34-1.57-.34-1.56-.34-1.57-.34-1.56-.34-1.57-.34-1.56-.34-1.57-.34-1.56m33.74 154.92-1.82-1.07-1.82-1.07-1.81-1.08-1.82-1.07-1.82-1.07-1.81-1.07-1.82-1.07-1.82-1.08-1.81-1.07-1.82-1.07-1.82-1.07-1.81-1.07-1.82-1.08-1.82-1.07-1.81-1.07-1.82-1.07-1.81-1.07-1.82-1.07-1.82-1.08-1.81-1.07-1.82-1.07-1.82-1.07-1.81-1.07-1.82-1.08-1.82-1.07-1.81-1.07-1.82-1.07-1.82-1.07-1.81-1.08-1.82-1.07-1.82-1.07-1.81-1.07-1.82-1.07-1.82-1.07-1.81-1.08-1.82-1.07-1.82-1.07-1.81-1.07-1.82-1.07-1.82-1.08-1.81-1.07-1.82-1.07-1.82-1.07-1.81-1.07-1.82-1.08-1.82-1.07-1.81-1.07-1.82-1.07-1.82-1.07-1.81-1.07-1.82-1.08-1.82-1.07-1.81-1.07-1.82-1.07-1.82-1.07-1.81-1.08-1.82-1.07-1.82-1.07-1.81-1.07-1.82-1.07-1.82-1.08-1.81-1.07-1.82-1.07-1.82-1.07-1.81-1.07-1.82-1.07-1.82-1.08-1.81-1.07-1.82-1.07-1.82-1.07-1.81-1.07-1.82-1.08-1.82-1.07-1.81-1.07-1.82-1.07-1.81-1.07-1.82-1.08-1.82-1.07-1.81-1.07-1.82-1.07-1.82-1.07-1.81-1.07-1.82-1.08-1.82-1.07-1.81-1.07-1.82-1.07-1.82-1.07-1.81-1.08-1.82-1.07-1.82-1.07-1.81-1.07-1.82-1.07-1.82-1.08-1.81-1.07-1.82-1.07-1.82-1.07-1.81-1.07-1.82-1.07-1.82-1.08M337.8 174.79l-.11 1.3-.1 1.3-.1 1.29-.1 1.3-.09 1.3-.08 1.3-.08 1.3-.08 1.3-.07 1.29-.06 1.3-.06 1.3-.06 1.29-.05 1.3-.04 1.3-.04 1.29-.03 1.3-.03 1.29-.03 1.3-.01 1.3-.02 1.29-.01 1.3v2.58l.01 1.3.01 1.29.02 1.3.02 1.29.03 1.29.03 1.3.04 1.29.04 1.29.05 1.29.05 1.3.06 1.29.06 1.29.07 1.29.07 1.29.08 1.29.08 1.29.09 1.29.09 1.29.1 1.29.1 1.29.11 1.29.12 1.29.12 1.29.12 1.29.13 1.29.13 1.29.14 1.29.15 1.29.15 1.28.15 1.29.16 1.29.16 1.29.17 1.28.18 1.29.18 1.29.18 1.28.19 1.29.2 1.28.2 1.29.2 1.28.21 1.29.22 1.28.22 1.29.23 1.28.23 1.29.23 1.28.24 1.29.25 1.28.25 1.28.26 1.29.26 1.28.26 1.28.28 1.28.27 1.29.28 1.28.29 1.28.29 1.28.3 1.28.3 1.28.31 1.28.31 1.29.32 1.28.32 1.28.33 1.28.33 1.28.34 1.28.34 1.27.35 1.28.35 1.28.36 1.28.36 1.28.37 1.28.38 1.28.37 1.27.39 1.28.39 1.28M337.8 174.79l-1.68 1.67-1.67 1.68-1.67 1.68-1.66 1.68-1.66 1.69-1.64 1.68-1.64 1.69-1.63 1.69-1.63 1.7-1.62 1.69-1.61 1.7-1.6 1.7-1.6 1.7-1.59 1.7-1.58 1.71-1.58 1.71-1.57 1.71-1.56 1.71-1.56 1.71-1.54 1.72-1.54 1.72-1.54 1.72-1.52 1.72-1.52 1.73-1.52 1.72-1.5 1.73-1.5 1.74-1.49 1.73-1.49 1.74-1.47 1.73-1.47 1.74-1.47 1.75-1.45 1.74-1.45 1.75-1.45 1.75-1.43 1.75-1.43 1.75-1.42 1.76-1.41 1.75-1.41 1.76-1.4 1.77-1.39 1.76-1.39 1.77-1.38 1.76-1.37 1.77-1.37 1.78-1.35 1.77-1.35 1.78-1.35 1.78-1.33 1.78-1.33 1.78-1.33 1.79-1.31 1.79-1.31 1.79-1.3 1.79-1.3 1.79-1.28 1.8-1.28 1.8-1.28 1.8-1.26 1.8-1.26 1.81-1.26 1.8-1.24 1.81-1.24 1.81-1.23 1.82-1.22 1.81-1.22 1.82-1.21 1.82-1.2 1.82-1.2 1.83-1.19 1.82-1.18 1.83-1.17 1.83-1.17 1.84-1.16 1.83-1.16 1.84-1.14 1.84-1.14 1.84-1.14 1.84-1.12 1.85-1.12 1.85-1.11 1.85-1.1 1.85-1.1 1.86-1.09 1.85-1.09 1.86-1.07 1.86-1.07 1.87-1.06 1.86-1.06 1.87-1.05 1.87-1.04 1.87-1.03 1.87-1.03 1.88-1.02 1.88-1.01 1.88-1.01 1.88-1 1.89-.99 1.88" style="stroke-width:1.07;stroke:#000000;stroke-opacity:0.10;stroke-linecap:butt"/><path d="m337.8 174.79.39 1.27.38 1.28.38 1.28.38 1.28.36 1.28.37 1.27.36 1.28.35 1.28.35 1.28.34 1.28.34 1.28.33 1.28.33 1.28.32 1.28.32 1.28.31 1.28.31 1.28.3 1.28.29 1.28.3 1.29.28 1.28.29 1.28.27 1.28.27 1.28.27 1.29.26 1.28.26 1.28.25 1.29.24 1.28.25 1.28.23 1.29.23 1.28.23 1.29.22 1.28.21 1.29.21 1.28.21 1.29.2 1.28.2 1.29.19 1.28.18 1.29.18 1.29.17 1.28.17 1.29.17 1.29.16 1.29.15 1.28.15 1.29.15 1.29.14 1.29.13 1.29.13 1.28.12 1.29.12 1.29.12 1.29.1 1.29.11 1.29.1 1.29.09 1.29.09 1.29.08 1.29.08 1.29.07 1.3.07 1.29.06 1.29.06 1.29.05 1.29.05 1.29.04 1.3.04 1.29.03 1.29.03 1.3.02 1.29.02 1.29.01 1.3.01 1.29v1.3l-.01 1.29v1.3l-.02 1.29-.02 1.3-.02 1.29-.03 1.3-.03 1.29-.04 1.3-.05 1.3-.05 1.29-.05 1.3-.06 1.3-.06 1.29-.07 1.3-.08 1.3-.08 1.3-.08 1.29-.09 1.3-.1 1.3-.1 1.3-.1 1.3-.11 1.3M337.8 174.79l-.99 1.88-1 1.89-1 1.88-1.02 1.88-1.02 1.88-1.02 1.88-1.04 1.87-1.04 1.87-1.05 1.87-1.05 1.87-1.06 1.87-1.07 1.86-1.08 1.86-1.08 1.86-1.09 1.86-1.1 1.85-1.1 1.85-1.12 1.85-1.11 1.85-1.13 1.85-1.13 1.84-1.14 1.84-1.15 1.84-1.15 1.84-1.16 1.83-1.17 1.84-1.18 1.83-1.18 1.83-1.19 1.82-1.19 1.83-1.2 1.82-1.21 1.82-1.22 1.82-1.23 1.81-1.23 1.82-1.23 1.81-1.25 1.81-1.25 1.81-1.26 1.8-1.27 1.8-1.27 1.8-1.28 1.8-1.29 1.8-1.29 1.79-1.3 1.8-1.31 1.78-1.32 1.79-1.32 1.79-1.33 1.78-1.34 1.78-1.34 1.78-1.35 1.78-1.36 1.77-1.36 1.78-1.38 1.77-1.37 1.77-1.39 1.76-1.39 1.77-1.4 1.76-1.41 1.76-1.41 1.75-1.43 1.76-1.42 1.75-1.44 1.75-1.44 1.75-1.45 1.75-1.46 1.74-1.46 1.75-1.47 1.74-1.48 1.74-1.48 1.73-1.49 1.74-1.5 1.73-1.51 1.73-1.51 1.72-1.52 1.73-1.53 1.72-1.53 1.72-1.54 1.72-1.55 1.72-1.55 1.71-1.57 1.71-1.57 1.72-1.57 1.7-1.58 1.71-1.6 1.7-1.59 1.7-1.61 1.7-1.61 1.7-1.62 1.7-1.62 1.69-1.63 1.69-1.64 1.69-1.65 1.68-1.65 1.69-1.66 1.68-1.67 1.68-1.68 1.68-1.68 1.67" style="stroke-width:1.07;stroke:#000000;stroke-opacity:0.10;stroke-linecap:butt"/><path d="m49.42 271.12 3.05.31 3.06.32 3.05.31 3.05.32 3.05.31 3.05.32 3.06.32 3.05.31 3.05.32 3.05.31 3.06.32 3.05.31 3.05.32 3.05.31 3.05.32 3.06.31 3.05.32 3.05.31 3.05.32 3.05.31 3.06.32 3.05.31 3.05.32 3.05.31 3.05.32 3.06.32 3.05.31 3.05.32 3.05.31 3.05.32 3.06.31 3.05.32 3.05.31 3.05.32 3.05.31 3.06.32 3.05.31 3.05.32 3.05.31 3.05.32 3.06.31 3.05.32 3.05.31 3.05.32 3.06.31 3.05.32 3.05.32 3.05.31 3.05.32 3.06.31 3.05.32 3.05.31 3.05.32 3.05.31 3.06.32 3.05.31 3.05.32 3.05.31 3.05.32 3.06.31 3.05.32 3.05.31 3.05.32 3.05.31 3.06.32 3.05.32 3.05.31 3.05.32 3.05.31 3.06.32 3.05.31 3.05.32 3.05.31 3.06.32 3.05.31 3.05.32 3.05.31 3.05.32 3.06.31 3.05.32 3.05.31 3.05.32 3.05.31 3.06.32 3.05.31 3.05.32 3.05.32 3.05.31 3.06.32 3.05.31 3.05.32 3.05.31 3.05.32 3.06.31 3.05.32 3.05.31 3.05.32 3.05.31 3.06.32M49.42 271.12l1.58.81 1.57.8 1.58.81 1.58.81 1.57.81 1.58.81 1.58.81 1.57.8 1.58.81 1.58.81 1.57.81 1.58.81 1.57.81 1.58.8 1.58.81 1.57.81 1.58.81 1.58.81 1.57.8 1.58.81 1.57.81 1.58.81 1.58.81 1.57.81 1.58.8 1.58.81 1.57.81 1.58.81 1.57.81 1.58.81 1.58.8 1.57.81 1.58.81 1.58.81 1.57.81 1.58.8 1.57.81 1.58.81 1.58.81 1.57.81 1.58.81 1.58.8 1.57.81 1.58.81 1.57.81 1.58.81 1.58.81 1.57.8 1.58.81 1.58.81 1.57.81 1.58.81 1.57.8 1.58.81 1.58.81 1.57.81 1.58.81 1.58.81 1.57.8 1.58.81 1.57.81 1.58.81 1.58.81 1.57.81 1.58.8 1.58.81 1.57.81 1.58.81 1.58.81 1.57.8 1.58.81 1.57.81 1.58.81 1.58.81 1.57.81 1.58.8 1.58.81 1.57.81 1.58.81 1.57.81 1.58.81 1.58.8 1.57.81 1.58.81 1.58.81 1.57.81 1.58.8 1.57.81 1.58.81 1.58.81 1.57.81 1.58.81 1.58.8 1.57.81 1.58.81 1.57.81 1.58.81 1.58.81 1.57.8m0 0 1.77-.14 1.75-.15 1.75-.16 1.75-.16 1.74-.17 1.73-.18 1.73-.19 1.72-.19 1.71-.2 1.71-.21 1.71-.21 1.69-.22 1.7-.23 1.68-.24 1.68-.24 1.68-.25 1.67-.26 1.66-.26 1.66-.27 1.65-.28 1.64-.29 1.64-.29 1.63-.3 1.63-.31 1.62-.31 1.62-.32 1.61-.33 1.61-.34 1.59-.34 1.6-.35 1.58-.36 1.58-.36 1.58-.38 1.57-.37 1.56-.39 1.56-.39 1.55-.4 1.55-.41 1.54-.41 1.53-.43 1.53-.43 1.52-.43 1.52-.44 1.51-.45 1.51-.46 1.49-.47 1.5-.47 1.49-.48 1.48-.48 1.47-.49 1.47-.5 1.47-.51 1.46-.52 1.45-.52 1.44-.53 1.44-.53 1.44-.55 1.43-.55 1.42-.55 1.42-.57 1.41-.57 1.41-.58 1.4-.58 1.39-.6 1.39-.6 1.38-.6 1.38-.62 1.37-.62 1.36-.63 1.36-.63 1.35-.65 1.35-.65 1.34-.65 1.34-.67 1.33-.67 1.32-.68 1.32-.69 1.31-.69 1.31-.7 1.3-.71 1.29-.71 1.29-.72 1.29-.73 1.27-.74 1.27-.74 1.27-.75 1.26-.76 1.25-.76 1.25-.77 1.24-.78 1.24-.79 1.23-.79 1.22-.8 1.22-.81 1.21-.81 1.21-.82 1.2-.83 1.2-.84 1.19-.84" style="stroke-width:1.07;stroke:#000000;stroke-opacity:0.10;stroke-linecap:butt"/><path d="m205.47 351.13 1.57-.37 1.57-.38 1.57-.38 1.57-.39 1.56-.38 1.56-.39 1.56-.39 1.56-.39 1.55-.4 1.56-.4 1.55-.4 1.55-.4 1.55-.4 1.54-.41 1.55-.41 1.54-.41 1.54-.42 1.54-.41 1.53-.42 1.54-.43 1.53-.42 1.53-.43 1.53-.42 1.53-.44 1.52-.43 1.52-.43 1.52-.44 1.52-.44 1.52-.45 1.51-.44 1.52-.45 1.51-.45 1.51-.45 1.5-.46 1.51-.45 1.5-.46 1.5-.47 1.5-.46 1.5-.47 1.49-.47 1.5-.47 1.49-.47 1.49-.48 1.49-.48 1.48-.48 1.48-.48 1.49-.49 1.48-.49 1.47-.49 1.48-.49 1.47-.49 1.48-.5 1.47-.5 1.46-.5 1.47-.51 1.46-.51 1.47-.51 1.46-.51 1.45-.51 1.46-.52 1.45-.52 1.46-.52 1.45-.52 1.45-.53 1.44-.53 1.45-.53 1.44-.53 1.44-.54 1.44-.54 1.44-.54 1.43-.54 1.43-.55 1.44-.54 1.42-.55 1.43-.56 1.43-.55 1.42-.56 1.42-.56 1.42-.56 1.42-.57 1.41-.56 1.42-.57 1.41-.57 1.41-.58 1.4-.57 1.41-.58 1.4-.58 1.41-.59 1.4-.58 1.39-.59 1.4-.59 1.39-.59 1.4-.6 1.39-.6 1.38-.6 1.39-.6 1.38-.6 1.39-.61 1.38-.61m-146.11 48.8 1.38-.61 1.39-.6 1.38-.61 1.39-.6 1.38-.6 1.39-.6 1.4-.59 1.39-.6 1.4-.59 1.39-.59 1.4-.58 1.41-.59 1.4-.58 1.41-.58 1.4-.57 1.41-.58 1.41-.57 1.42-.57 1.41-.56 1.42-.57 1.42-.56 1.42-.56 1.42-.56 1.43-.55 1.43-.55 1.42-.55 1.44-.55 1.43-.55 1.43-.54 1.44-.54 1.44-.54 1.44-.53 1.44-.54 1.45-.53 1.44-.53 1.45-.52 1.45-.53 1.46-.52 1.45-.52 1.46-.52 1.45-.51 1.46-.51 1.47-.51 1.46-.51 1.47-.5 1.46-.51 1.47-.5 1.48-.49 1.47-.5 1.48-.49 1.47-.49 1.48-.49 1.49-.49 1.48-.48 1.48-.48 1.49-.48 1.49-.48 1.49-.47 1.5-.47 1.49-.47 1.5-.47 1.5-.46 1.5-.46 1.5-.46 1.51-.46 1.5-.46 1.51-.45 1.51-.45 1.52-.45 1.51-.44 1.52-.45 1.52-.44 1.52-.43 1.52-.44 1.52-.43 1.53-.43 1.53-.43 1.53-.43 1.53-.42 1.54-.42 1.53-.42 1.54-.42 1.54-.42 1.54-.41 1.55-.41 1.54-.4 1.55-.41 1.55-.4 1.55-.4 1.56-.4 1.55-.39 1.56-.4 1.56-.39 1.56-.39 1.56-.38 1.57-.39 1.57-.38 1.57-.38 1.57-.37" style="stroke-width:1.07;stroke:#000000;stroke-opacity:0.10;stroke-linecap:butt"/><path d="m205.47 351.13 1.19-.84 1.2-.84 1.2-.82 1.21-.83 1.21-.81 1.22-.81 1.22-.8 1.23-.79 1.24-.79 1.24-.78 1.25-.77 1.25-.76 1.26-.76 1.27-.75 1.27-.74 1.27-.74 1.29-.73 1.29-.72 1.29-.71 1.3-.71 1.31-.7 1.31-.69 1.32-.69 1.32-.68 1.33-.67 1.34-.66 1.34-.66 1.35-.65 1.35-.64 1.36-.64 1.36-.63 1.37-.62 1.38-.61 1.38-.61 1.39-.6 1.39-.59 1.4-.59 1.41-.58 1.41-.57 1.42-.57 1.42-.55 1.43-.55 1.43-.55 1.45-.53 1.44-.53 1.45-.52 1.46-.52 1.47-.5 1.47-.5 1.47-.5 1.48-.48 1.49-.48 1.5-.47 1.49-.47 1.51-.45 1.51-.45 1.52-.45 1.52-.43 1.53-.43 1.53-.42 1.54-.42 1.55-.41 1.55-.4 1.56-.39 1.56-.38 1.57-.38 1.58-.37 1.58-.37 1.58-.36 1.6-.35 1.59-.34 1.61-.33 1.61-.33 1.62-.32 1.62-.32 1.62-.31 1.64-.3 1.64-.29 1.64-.29 1.65-.27 1.66-.28 1.66-.26 1.67-.26 1.68-.25 1.68-.24 1.68-.24 1.7-.22 1.69-.23 1.71-.21 1.71-.21 1.71-.2 1.72-.19 1.73-.19 1.73-.18 1.74-.17 1.75-.16 1.75-.16 1.75-.15 1.77-.14" style="stroke-width:1.07;stroke:#000000;stroke-opacity:0.10;stroke-linecap:butt"/><path d="m385.32 455.04 1.91 3.31h-3.83zM337.8 167.79l6.06 10.5h-12.12zM49.42 268.91l1.92 3.31h-3.83z" style="stroke-width:0.71;stroke:none;fill:#00BA38"/><path d="M198.72 357.89h13.51v-13.51h-13.51z" style="stroke-width:0.71;stroke:none;fill:#619CFF"/><circle cx="351.58" cy="302.33" r="6.76" style="stroke-width:0.71;stroke:none;fill:#F8766D"/><path d="m332.59 179.39 4.34-3.84M210.71 346.51l-4.37 3.86m150.26-52.65-4.17 3.83" style="stroke-width:0.53;stroke:#BFBFBF"/><path d="M330.37 466.79h48.04l-.08-.01.34-.01.34-.07.33-.12.3-.18.27-.22.23-.26.19-.29.13-.32.08-.34.03-.34h0v-15.16h0l-.03-.35-.08-.34-.13-.32-.19-.29-.23-.26-.27-.22-.3-.17-.33-.13-.34-.07-.26-.01h-48.04l.26.01-.35-.01-.34.04-.34.1-.31.15-.29.2-.25.24-.21.27-.16.31-.11.33-.06.34v15.34-.18.35l.06.34.11.33.16.31.21.28.25.24.29.2.31.14.34.1.34.04z" style="stroke-width:0.53;fill:#FFFFFF;fill-opacity:0.50"/><text x="354.39" y="454.99" lengthAdjust="spacingAndGlyphs" style="font-size:5.69px;font-family:Arial" text-anchor="middle" textLength="32.86">1819-1821 N</text><text x="354.39" y="463.19" lengthAdjust="spacingAndGlyphs" style="font-size:5.69px;font-family:Arial" text-anchor="middle" textLength="45.17">ARLINGTON LLC</text><path d="M293.72 198.87h54.05-.08l.34-.02.35-.07.32-.12.3-.17.27-.22.23-.26.19-.3.13-.32.09-.33.02-.35h0v-15.16h0l-.02-.34-.09-.34-.13-.32-.19-.3-.23-.26-.27-.22-.3-.17-.32-.12-.35-.07-.26-.02h-54.05l.26.02-.35-.02-.35.05-.33.09-.31.15-.29.2-.25.24-.21.28-.16.31-.11.32-.06.35v15.33-.18.35l.06.35.11.33.16.3.21.28.25.24.29.2.31.15.33.09.35.05z" style="stroke-width:0.53;fill:#FFFFFF;fill-opacity:0.50"/><text x="320.75" y="187.07" lengthAdjust="spacingAndGlyphs" style="font-size:5.69px;font-family:Arial" text-anchor="middle" textLength="51.18">DEATH ROW REAL</text><text x="320.75" y="195.27" lengthAdjust="spacingAndGlyphs" style="font-size:5.69px;font-family:Arial" text-anchor="middle" textLength="34.14">ESTATE LLC</text><path d="M56.3 276.75h60.05-.09l.35-.02.34-.07.33-.12.3-.17.27-.22.23-.26.18-.3.14-.32.08-.33.03-.35h0v-6.96h0l-.03-.35-.08-.34-.14-.32-.18-.29-.23-.26-.27-.22-.3-.17-.33-.13-.34-.07-.26-.01H56.3l.26.01-.35-.01-.35.04-.33.1-.31.15-.29.19-.25.25-.21.27-.16.31-.11.33-.06.34v7.14-.17.34l.06.35.11.33.16.3.21.28.25.24.29.2.31.15.33.1.35.04z" style="stroke-width:0.53;fill:#FFFFFF;fill-opacity:0.50"/><text x="86.32" y="273.15" lengthAdjust="spacingAndGlyphs" style="font-size:5.69px;font-family:Arial" text-anchor="middle" textLength="57.18">1625 N WARREN LLC</text><path d="M190.3 346.51h64.49-.09l.35-.01.34-.07.33-.13.3-.17.27-.22.23-.26.18-.3.14-.31.08-.34.03-.35h0v-15.16h0l-.03-.34-.08-.34-.14-.32-.18-.29-.23-.26-.27-.22-.3-.18-.33-.12-.34-.07-.26-.02H190.3l.26.02-.35-.01-.34.04-.34.09-.31.15-.29.2-.25.24-.21.28-.16.31-.11.33-.05.34-.01.17v15.16l.01-.17v.34l.05.35.11.33.16.31.21.27.25.24.29.2.31.15.34.1.34.04z" style="stroke-width:0.53;fill:#FFFFFF;fill-opacity:0.50"/><text x="222.54" y="334.72" lengthAdjust="spacingAndGlyphs" style="font-size:5.69px;font-family:Arial" text-anchor="middle" textLength="59.71">1575 N WARREN AVE,</text><text x="222.54" y="342.91" lengthAdjust="spacingAndGlyphs" style="font-size:5.69px;font-family:Arial" text-anchor="middle" textLength="61.61">MILWAUKEE, WI 53202</text><path d="M331.82 297.72h64.49-.09l.35-.02.34-.07.32-.12.3-.17.27-.22.23-.26.19-.3.14-.32.08-.33.03-.35h0V280.4h0l-.03-.34-.08-.34-.14-.32-.19-.3-.23-.26-.27-.22-.3-.17-.32-.12-.34-.07-.26-.02h-64.49l.26.02-.35-.02-.34.05-.34.09-.31.15-.29.2-.25.24-.21.28-.16.31-.11.33-.06.34v15.33-.17.34l.06.35.11.33.16.3.21.28.25.24.29.2.31.15.34.1.34.04z" style="stroke-width:0.53;fill:#FFFFFF;fill-opacity:0.50"/><text x="364.06" y="285.92" lengthAdjust="spacingAndGlyphs" style="font-size:5.69px;font-family:Arial" text-anchor="middle" textLength="59.71">1575 N WARREN AVE,</text><text x="364.06" y="294.12" lengthAdjust="spacingAndGlyphs" style="font-size:5.69px;font-family:Arial" text-anchor="middle" textLength="61.61">MILWAUKEE, WI 53202</text></g><g clip-path="url(#cpMC4wMHw0MzIuMDB8MC4wMHw1MDQuMDA=)"><circle cx="124.98" cy="135.59" r="1.95" style="stroke-width:0.71;stroke:none;fill:#F8766D"/><path d="m201.33 132.55 2.63 4.56h-5.26z" style="stroke-width:0.71;stroke:none;fill:#00BA38"/><path d="M267.31 137.54h3.91v-3.91h-3.91z" style="stroke-width:0.71;stroke:none;fill:#619CFF"/><text x="139.09" y="138.74" lengthAdjust="spacingAndGlyphs" style="font-size:8.80px;font-family:Arial Narrow" textLength="48.12">mprop address</text><text x="215.45" y="138.74" lengthAdjust="spacingAndGlyphs" style="font-size:8.80px;font-family:Arial Narrow" textLength="39.69">owner name</text><text x="283.38" y="138.74" lengthAdjust="spacingAndGlyphs" style="font-size:8.80px;font-family:Arial Narrow" textLength="40.5">wdfi address</text><text x="32.63" y="104" lengthAdjust="spacingAndGlyphs" style="font-size:12.00px;font-family:Arial Narrow" textLength="241.29">includes 4 parcels, 9 units, and 3 distinct owner names.</text><text x="32.63" y="42.78" lengthAdjust="spacingAndGlyphs" style="font-size:18.00px;font-weight:bold;font-family:Arial Narrow" textLength="292.51">DEATH ROW REAL ESTATE LLC -- 1625 N</text><text x="32.63" y="62.22" lengthAdjust="spacingAndGlyphs" style="font-size:18.00px;font-weight:bold;font-family:Arial Narrow" textLength="325.58">WARREN LLC -- 1819-1821 N ARLINGTON LLC</text><text x="32.63" y="81.66" lengthAdjust="spacingAndGlyphs" style="font-size:18.00px;font-weight:bold;font-family:Arial Narrow" textLength="44.27">Group</text></g></svg>