<svg xmlns="http://www.w3.org/2000/svg" width="384" height="480" class="svglite" viewBox="0 0 288 360"><defs><style><![CDATA[.svglite line,.svglite polyline,.svglite polygon,.svglite path,.svglite circle{fill:none;stroke:#000000;stroke-linecap:round;stroke-linejoin:round;stroke-miterlimit:10.00}]]></style></defs><rect width="100%" height="100%" style="stroke-linecap:round;stroke-linejoin:round;stroke-miterlimit:10.00;stroke:none;fill:#FFFFFF"/><defs><clipPath id="cpMC4wMHwyODguMDB8MC4wMHwzNjAuMDA="><path d="M0 0h288v360H0z"/></clipPath></defs><g clip-path="url(#cpMC4wMHwyODguMDB8MC4wMHwzNjAuMDA=)"><path d="M0 0h288v360H0z" style="stroke-width:1.07;stroke:none;fill:#FFFFFF"/></g><defs><clipPath id="cpMzIuNjN8MjU4LjExfDE0MS4yMnwzMjcuMzc="><path d="M32.63 141.22h225.48v186.15H32.63z"/></clipPath></defs><g clip-path="url(#cpMzIuNjN8MjU4LjExfDE0MS4yMnwzMjcuMzc=)"><path d="m247.86 318.91-.69-.82-.69-.83-.69-.82-.69-.83-.69-.82-.69-.82-.69-.83-.69-.82-.69-.83-.69-.82-.69-.82-.69-.83-.69-.82-.69-.83-.69-.82-.69-.82-.69-.83-.69-.82-.7-.83-.69-.82-.69-.83-.69-.82-.69-.82-.69-.83-.69-.82-.69-.83-.69-.82-.69-.82-.69-.83-.69-.82-.69-.83-.69-.82-.69-.83-.69-.82-.69-.82-.69-.83-.69-.82-.69-.83-.69-.82-.69-.82-.69-.83-.69-.82-.7-.83-.69-.82-.69-.82-.69-.83-.69-.82-.69-.83-.69-.82-.69-.83-.69-.82-.69-.82-.69-.83-.69-.82-.69-.83-.69-.82-.69-.82-.69-.83-.69-.82-.69-.83-.69-.82-.69-.82-.69-.83-.69-.82-.69-.83-.69-.82-.7-.83-.69-.82-.69-.82-.69-.83-.69-.82-.69-.83-.69-.82-.69-.82-.69-.83-.69-.82-.69-.83-.69-.82-.69-.82-.69-.83-.69-.82-.69-.83-.69-.82-.69-.83-.69-.82-.69-.82-.69-.83-.69-.82-.69-.83-.7-.82-.69-.82-.69-.83-.69-.82-.69-.83-.69-.82-.69-.82-.69-.83-.69-.82-.69-.83m18.64-87.63-.19.88-.18.89-.19.88-.19.89-.19.88-.19.89-.19.88-.18.89-.19.88-.19.89-.19.88-.19.89-.18.88-.19.89-.19.88-.19.89-.19.88-.19.89-.18.88-.19.89-.19.89-.19.88-.19.89-.19.88-.18.89-.19.88-.19.89-.19.88-.19.89-.19.88-.18.89-.19.88-.19.89-.19.88-.19.89-.19.88-.18.89-.19.88-.19.89-.19.88-.19.89-.19.89-.18.88-.19.89-.19.88-.19.89-.19.88-.19.89-.18.88-.19.89-.19.88-.19.89-.19.88-.19.89-.18.88-.19.89-.19.88-.19.89-.19.88-.19.89-.18.88-.19.89-.19.88-.19.89-.19.89-.18.88-.19.89-.19.88-.19.89-.19.88-.19.89-.18.88-.19.89-.19.88-.19.89-.19.88-.19.89-.18.88-.19.89-.19.88-.19.89-.19.88-.19.89-.18.88-.19.89-.19.88-.19.89-.19.89-.19.88-.18.89-.19.88-.19.89-.19.88-.19.89-.19.88-.18.89-.19.88-.19.89-.19.88m18.64-87.63-1.57.34-1.56.35-1.57.35-1.57.35-1.57.34-1.57.35-1.57.35-1.56.35-1.57.35-1.57.34-1.57.35-1.57.35-1.57.35-1.57.34-1.56.35-1.57.35-1.57.35-1.57.35-1.57.34-1.57.35-1.56.35-1.57.35-1.57.35-1.57.34-1.57.35-1.57.35-1.56.35-1.57.34-1.57.35-1.57.35-1.57.35-1.57.35-1.57.34-1.56.35-1.57.35-1.57.35-1.57.34-1.57.35-1.57.35-1.56.35-1.57.35-1.57.34-1.57.35-1.57.35-1.57.35-1.57.34-1.56.35-1.57.35-1.57.35-1.57.35-1.57.34-1.57.35-1.56.35-1.57.35-1.57.34-1.57.35-1.57.35-1.57.35-1.57.35-1.56.34-1.57.35-1.57.35-1.57.35-1.57.34-1.57.35-1.56.35-1.57.35-1.57.35-1.57.34-1.57.35-1.57.35-1.57.35-1.56.35-1.57.34-1.57.35-1.57.35-1.57.35-1.57.34-1.56.35-1.57.35-1.57.35-1.57.35-1.57.34-1.57.35-1.56.35-1.57.35-1.57.34-1.57.35-1.57.35-1.57.35-1.57.35-1.56.34-1.57.35-1.57.35-1.57.35-1.57.34-1.57.35-1.56.35-1.57.35m0 0 1.12.71 1.13.71 1.13.71 1.14.7 1.14.7 1.15.69 1.15.69 1.16.69 1.16.69 1.17.68 1.18.68 1.17.67 1.19.67 1.19.67 1.2.66 1.2.66 1.2.65 1.21.66 1.22.64 1.22.65 1.23.64 1.23.64 1.24.63 1.24.63 1.25.63 1.25.62 1.26.62 1.27.62 1.27.61 1.27.61 1.28.61 1.29.6 1.29.6 1.29.59 1.3.59 1.31.59 1.31.59 1.32.58 1.32.57 1.33.58 1.33.57 1.34.56 1.34.56 1.35.56 1.35.56 1.36.55 1.37.55 1.37.54 1.37.54 1.38.54 1.39.54 1.39.53 1.39.52 1.4.53 1.41.52 1.41.51 1.42.51 1.42.51 1.43.51 1.43.5 1.44.5 1.44.49 1.45.49 1.46.49 1.46.48 1.46.48 1.47.48 1.48.47 1.48.47 1.48.47 1.49.46 1.5.46 1.5.45 1.51.45 1.51.45 1.52.45 1.52.44 1.53.43 1.53.44 1.54.43 1.54.42 1.55.43 1.56.42 1.56.41 1.56.41 1.57.41 1.58.41 1.58.4 1.58.39 1.59.4 1.6.39 1.6.39 1.61.38 1.61.38 1.62.37 1.62.38 1.63.37 1.63.36 1.64.36" style="stroke-width:1.07;stroke:#000000;stroke-opacity:0.10;stroke-linecap:butt"/><path d="m42.88 184.12 1.64.36 1.63.36 1.63.37 1.62.38 1.62.37 1.61.38 1.61.39 1.6.38 1.59.39 1.6.4 1.58.39 1.58.41 1.58.4 1.57.41 1.56.41 1.56.42 1.56.41 1.55.43 1.54.42 1.54.43 1.53.44 1.53.43 1.52.44 1.52.45 1.51.45 1.51.45 1.5.45 1.49.46 1.5.46 1.48.47 1.48.47 1.48.47 1.47.48 1.46.48 1.46.48 1.45.49 1.45.49 1.45.49 1.44.5 1.43.5 1.43.51 1.42.51 1.42.51 1.41.52 1.4.51 1.4.53 1.4.52 1.39.53 1.39.54 1.38.54 1.37.54 1.37.54 1.37.55 1.35.55 1.36.56 1.35.56 1.34.56 1.34.56 1.33.57 1.33.58 1.32.57 1.32.58 1.31.59 1.3.59 1.31.59 1.29.59 1.29.6 1.29.6 1.28.61 1.27.61 1.27.61 1.27.62 1.25.62 1.26.62 1.25.63 1.24.63 1.24.63 1.23.64 1.23.64 1.22.65 1.21.64 1.22.66 1.2.65 1.2.66 1.2.67 1.19.66 1.18.67 1.18.68 1.18.67 1.17.68 1.16.69 1.16.69 1.15.69 1.15.69 1.14.7 1.14.7 1.13.71 1.13.71 1.12.71" style="stroke-width:1.07;stroke:#000000;stroke-opacity:0.10;stroke-linecap:butt"/><path d="m247.86 316.7 1.92 3.32h-3.83zm-49.71-169.22 1.92 3.31h-3.83z" style="stroke-width:0.71;stroke:none;fill:#00BA38"/><path d="M41.46 185.54h2.84v-2.84h-2.84z" style="stroke-width:0.71;stroke:none;fill:#619CFF"/><circle cx="179.51" cy="237.32" r="6.76" style="stroke-width:0.71;stroke:none;fill:#F8766D"/><path d="m242.34 314.28 4.63 3.88m-53.99-163.82 4.31-3.88m-12.35 82.24-4.54 3.87" style="stroke-width:0.53;stroke:#BFBFBF"/><path d="M184.7 314.28h65.43-.08l.34-.02.34-.07.33-.12.3-.17.27-.22.23-.26.19-.3.13-.32.09-.34.02-.34h0v-15.16h0l-.02-.34-.09-.34-.13-.32-.19-.3-.23-.26-.27-.22-.3-.17-.33-.12-.34-.07-.26-.02H184.7l.26.02-.35-.02-.34.05-.34.09-.31.15-.29.2-.25.24-.21.28-.16.31-.11.32-.05.35-.01.17v15.16l.01-.18v.35l.05.35.11.33.16.3.21.28.25.24.29.2.31.15.34.09.34.05z" style="stroke-width:0.53;fill:#FFFFFF;fill-opacity:0.50"/><text x="217.42" y="302.48" lengthAdjust="spacingAndGlyphs" style="font-size:5.69px;font-family:Arial" text-anchor="middle" textLength="62.55">HAMPTON AVE HLDGS</text><text x="217.42" y="310.68" lengthAdjust="spacingAndGlyphs" style="font-size:5.69px;font-family:Arial" text-anchor="middle" textLength="10.43">LLC</text><path d="M152.05 173.82h66.06l-.09-.01.35-.01.34-.07.33-.12.3-.18.27-.22.23-.26.18-.29.14-.32.08-.34.03-.34h0V156.5h0l-.03-.35-.08-.33-.14-.32-.18-.3-.23-.26-.27-.22-.3-.17-.33-.12-.34-.07-.26-.02h-66.06l.26.02-.35-.02-.34.04-.34.1-.31.15-.29.2-.25.24-.21.28-.16.3-.11.33-.05.35-.01.17v15.16l.01-.18v.35l.05.34.11.33.16.31.21.28.25.24.29.2.31.15.34.09.34.04z" style="stroke-width:0.53;fill:#FFFFFF;fill-opacity:0.50"/><text x="185.08" y="162.02" lengthAdjust="spacingAndGlyphs" style="font-size:5.69px;font-family:Arial" text-anchor="middle" textLength="63.18">DELAWARE HOLDINGS</text><text x="185.08" y="170.22" lengthAdjust="spacingAndGlyphs" style="font-size:5.69px;font-family:Arial" text-anchor="middle" textLength="10.43">LLC</text><path d="M49.9 197.95h69.87-.08l.34-.01.35-.07.32-.13.3-.17.27-.22.23-.26.19-.29.13-.32.09-.34.02-.35h0v-23.35h0l-.02-.34-.09-.34-.13-.32-.19-.3-.23-.26-.27-.22-.3-.17-.32-.12-.35-.07-.26-.02H49.9l.26.02-.35-.02-.34.05-.34.09-.31.15-.29.2-.25.24-.21.28-.16.31-.11.33-.05.34-.01.17v23.35l.01-.17v.35l.05.34.11.33.16.31.21.28.25.24.29.19.31.15.34.1.34.04z" style="stroke-width:0.53;fill:#FFFFFF;fill-opacity:0.50"/><text x="84.84" y="177.96" lengthAdjust="spacingAndGlyphs" style="font-size:5.69px;font-family:Arial" text-anchor="middle" textLength="67">N166W19586 PHEASANT</text><text x="84.84" y="186.16" lengthAdjust="spacingAndGlyphs" style="font-size:5.69px;font-family:Arial" text-anchor="middle" textLength="47.38">LN, JACKSON, WI</text><text x="84.84" y="194.35" lengthAdjust="spacingAndGlyphs" style="font-size:5.69px;font-family:Arial" text-anchor="middle" textLength="15.8">53037</text><path d="M166.93 232.7h69.88-.09l.35-.01.34-.07.32-.13.3-.17.27-.22.23-.26.19-.29.13-.32.09-.34.03-.35h0v-23.35h0l-.03-.34-.09-.34-.13-.32-.19-.3-.23-.26-.27-.22-.3-.17-.32-.12-.34-.07-.26-.02h-69.88l.26.02-.35-.02-.34.05-.34.09-.31.15-.29.2-.25.24-.21.28-.16.3-.11.33-.05.35-.01.17v23.35l.01-.17v.35l.05.34.11.33.16.31.21.28.25.24.29.19.31.15.34.1.34.04z" style="stroke-width:0.53;fill:#FFFFFF;fill-opacity:0.50"/><text x="201.87" y="212.71" lengthAdjust="spacingAndGlyphs" style="font-size:5.69px;font-family:Arial" text-anchor="middle" textLength="67">N166W19586 PHEASANT</text><text x="201.87" y="220.91" lengthAdjust="spacingAndGlyphs" style="font-size:5.69px;font-family:Arial" text-anchor="middle" textLength="47.38">LN, JACKSON, WI</text><text x="201.87" y="229.1" lengthAdjust="spacingAndGlyphs" style="font-size:5.69px;font-family:Arial" text-anchor="middle" textLength="15.8">53037</text></g><g clip-path="url(#cpMC4wMHwyODguMDB8MC4wMHwzNjAuMDA=)"><circle cx="52.98" cy="116.15" r="1.95" style="stroke-width:0.71;stroke:none;fill:#F8766D"/><path d="m129.33 113.11 2.63 4.56h-5.26z" style="stroke-width:0.71;stroke:none;fill:#00BA38"/><path d="M195.31 118.1h3.91v-3.91h-3.91z" style="stroke-width:0.71;stroke:none;fill:#619CFF"/><text x="67.09" y="119.3" lengthAdjust="spacingAndGlyphs" style="font-size:8.80px;font-family:Arial Narrow" textLength="48.12">mprop address</text><text x="143.45" y="119.3" lengthAdjust="spacingAndGlyphs" style="font-size:8.80px;font-family:Arial Narrow" textLength="39.69">owner name</text><text x="211.38" y="119.3" lengthAdjust="spacingAndGlyphs" style="font-size:8.80px;font-family:Arial Narrow" textLength="40.5">wdfi address</text><text x="32.63" y="84.56" lengthAdjust="spacingAndGlyphs" style="font-size:12.00px;font-family:Arial Narrow" textLength="241.29">includes 2 parcels, 3 units, and 2 distinct owner names.</text><text x="32.63" y="42.78" lengthAdjust="spacingAndGlyphs" style="font-size:18.00px;font-weight:bold;font-family:Arial Narrow" textLength="212.36">DELAWARE HOLDINGS LLC --</text><text x="32.63" y="62.22" lengthAdjust="spacingAndGlyphs" style="font-size:18.00px;font-weight:bold;font-family:Arial Narrow" textLength="244.1">HAMPTON AVE HLDGS LLC Group</text></g></svg>