<svg xmlns="http://www.w3.org/2000/svg" width="768" height="768" class="svglite" viewBox="0 0 576 576"><defs><style><![CDATA[.svglite line,.svglite polyline,.svglite polygon,.svglite path,.svglite circle{fill:none;stroke:#000000;stroke-linecap:round;stroke-linejoin:round;stroke-miterlimit:10.00}.svglite text{white-space:pre}]]></style></defs><rect width="100%" height="100%" style="stroke-linecap:round;stroke-linejoin:round;stroke-miterlimit:10.00;stroke:none;fill:#FFFFFF"/><defs><clipPath id="cpMC4wMHw1NzYuMDB8MC4wMHw1NzYuMDA="><path d="M0 0h576v576H0z"/></clipPath></defs><g clip-path="url(#cpMC4wMHw1NzYuMDB8MC4wMHw1NzYuMDA=)"><path d="M0 0h576v576H0z" style="stroke-width:1.07;stroke:none;fill:#FFFFFF"/></g><defs><clipPath id="cpMzIuNjN8NTQ2LjExfDEyMC44Nnw1NDMuMzc="><path d="M32.63 120.86h513.48v422.51H32.63z"/></clipPath></defs><g clip-path="url(#cpMzIuNjN8NTQ2LjExfDEyMC44Nnw1NDMuMzc=)"><path d="m281.63 339.52-.05.96-.04.95-.05.96-.05.96-.04.95-.05.96-.04.95-.05.96-.05.95-.04.96-.05.95-.04.96-.05.95-.05.96-.04.96-.05.95-.04.96-.05.95-.05.96-.04.95-.05.96-.04.95-.05.96-.05.95-.04.96-.05.96-.04.95-.05.96-.05.95-.04.96-.05.95-.04.96-.05.95-.05.96-.04.95-.05.96-.04.96-.05.95-.04.96-.05.95-.05.96-.04.95-.05.96-.04.95-.05.96-.05.95-.04.96-.05.96-.04.95-.05.96-.05.95-.04.96-.05.95-.04.96-.05.95-.05.96-.04.95-.05.96-.04.96-.05.95-.05.96-.04.95-.05.96-.04.95-.05.96-.05.95-.04.96-.05.95-.04.96-.05.96-.05.95-.04.96-.05.95-.04.96-.05.95-.05.96-.04.95-.05.96-.04.95-.05.96-.05.96-.04.95-.05.96-.04.95-.05.96-.05.95-.04.96-.05.95-.04.96-.05.96-.05.95-.04.96-.05.95-.04.96-.05.95-.05.96-.04.95-.05.96-.04.95m244.55-226.35-2.51.08-2.5.07-2.51.08-2.5.08-2.5.09-2.5.09-2.49.1-2.49.1-2.49.1-2.49.11-2.48.11-2.49.11-2.47.12-2.48.13-2.47.13-2.48.13-2.46.13-2.47.14-2.46.15-2.46.14-2.46.16-2.46.15-2.45.16-2.45.16-2.45.17-2.44.17-2.45.18-2.44.18-2.43.18-2.44.19-2.43.19-2.43.2-2.43.2-2.42.2-2.42.21-2.42.22-2.42.21-2.41.22-2.42.23-2.41.22-2.4.24-2.41.23-2.4.24-2.39.25-2.4.25-2.39.25-2.39.26-2.39.26-2.39.26-2.38.27-2.38.27-2.38.28-2.37.28-2.38.28-2.37.29-2.37.3-2.36.29-2.36.3-2.36.31-2.36.31-2.35.31-2.36.32-2.34.32-2.35.32-2.35.33-2.34.33-2.34.34-2.33.34-2.34.35-2.33.35-2.32.35-2.33.36-2.32.36-2.32.36-2.32.37-2.32.38-2.31.37-2.31.39-2.31.38-2.3.39-2.31.39-2.3.4-2.29.4-2.3.41-2.29.41-2.29.41-2.29.42-2.28.42-2.28.43-2.28.43-2.28.43-2.27.44-2.28.44-2.26.45-2.27.45-2.26.45-2.27.46-2.25.46-2.26.47m235.91-26.6-.51.65-.5.65-.5.65-.5.65-.48.65-.48.66-.48.65-.46.65-.46.65-.46.65-.45.66-.44.65-.43.65-.43.66-.43.65-.41.66-.41.65-.4.66-.4.65-.39.66-.38.65-.38.66-.37.66-.37.65-.35.66-.36.66-.34.66-.34.66-.33.65-.33.66-.32.66-.31.66-.31.66-.3.66-.29.66-.29.66-.28.67-.27.66-.27.66-.26.66-.26.67-.25.66-.24.66-.24.67-.22.66-.23.66-.21.67-.21.66-.21.67-.2.67-.19.66-.18.67-.18.66-.17.67-.17.67-.15.67-.16.67-.14.66-.14.67-.13.67-.13.67-.12.67-.11.67-.11.67-.1.67-.1.67-.09.68-.08.67-.07.67-.07.67-.06.67-.06.68-.05.67-.04.67-.04.68-.03.67-.02.68-.02.67-.01.68v1.35l.01.68.01.67.02.68.03.68.03.68.04.67.05.68.06.68.06.68.06.68.07.68.08.68.09.68.09.68.1.68.1.68.12.69.11.68" style="stroke-width:1.07;stroke:#000000;stroke-opacity:0.10;stroke-linecap:butt"/><path d="m393.61 142.38-1.09.93-1.09.93-1.09.93-1.09.93-1.09.93-1.09.93-1.09.93-1.09.93-1.09.92-1.09.93-1.09.93-1.09.93-1.09.93-1.09.93-1.09.93-1.09.93-1.09.93-1.09.93-1.09.92-1.09.93-1.08.93-1.09.93-1.09.93-1.09.93-1.09.93-1.09.93-1.09.93-1.09.93-1.09.93-1.09.92-1.09.93-1.09.93-1.09.93-1.09.93-1.09.93-1.09.93-1.09.93-1.09.93-1.09.93-1.09.92-1.09.93-1.09.93-1.09.93-1.09.93-1.09.93-1.09.93-1.09.93-1.09.93-1.09.93-1.09.92-1.09.93-1.09.93-1.09.93-1.09.93-1.09.93-1.09.93-1.09.93-1.09.93-1.09.93-1.09.92-1.09.93-1.09.93-1.09.93-1.09.93-1.09.93-1.09.93-1.09.93-1.09.93-1.09.93-1.09.92-1.09.93-1.09.93-1.09.93-1.08.93-1.09.93-1.09.93-1.09.93-1.09.93-1.09.93-1.09.92-1.09.93-1.09.93-1.09.93-1.09.93-1.09.93-1.09.93-1.09.93-1.09.93-1.09.93-1.09.92-1.09.93-1.09.93-1.09.93-1.09.93-1.09.93-1.09.93-1.09.93-1.09.93-1.09.93m-90.19-94.29.91.95.91.95.91.95.91.96.92.95.91.95.91.95.91.96.91.95.91.95.91.95.91.96.91.95.91.95.92.95.91.96.91.95.91.95.91.95.91.96.91.95.91.95.91.95.91.96.92.95.91.95.91.95.91.96.91.95.91.95.91.95.91.95.91.96.91.95.92.95.91.95.91.96.91.95.91.95.91.95.91.96.91.95.91.95.91.95.92.96.91.95.91.95.91.95.91.96.91.95.91.95.91.95.91.96.91.95.92.95.91.95.91.95.91.96.91.95.91.95.91.95.91.96.91.95.91.95.92.95.91.96.91.95.91.95.91.95.91.96.91.95.91.95.91.95.91.96.92.95.91.95.91.95.91.96.91.95.91.95.91.95.91.96.91.95.91.95.92.95.91.95.91.96.91.95.91.95.91.95.91.96.91.95.91.95.91.95.92.96.91.95.91.95.91.95.91.96M55.97 196.78l2.32.38 2.32.38 2.32.38 2.32.38 2.32.38 2.32.38 2.32.38 2.32.38 2.32.37 2.33.38 2.32.38 2.32.38 2.32.38 2.32.38 2.32.38 2.32.38 2.32.38 2.32.38 2.32.38 2.32.38 2.32.38 2.32.38 2.32.38 2.33.38 2.32.38 2.32.38 2.32.38 2.32.38 2.32.38 2.32.38 2.32.38 2.32.37 2.32.38 2.32.38 2.32.38 2.32.38 2.32.38 2.33.38 2.32.38 2.32.38 2.32.38 2.32.38 2.32.38 2.32.38 2.32.38 2.32.38 2.32.38 2.32.38 2.32.38 2.32.38 2.32.38 2.33.38 2.32.38 2.32.38 2.32.37 2.32.38 2.32.38 2.32.38 2.32.38 2.32.38 2.32.38 2.32.38 2.32.38 2.32.38 2.33.38 2.32.38 2.32.38 2.32.38 2.32.38 2.32.38 2.32.38 2.32.38 2.32.38 2.32.38 2.32.38 2.32.38 2.32.38 2.32.38 2.33.37 2.32.38 2.32.38 2.32.38 2.32.38 2.32.38 2.32.38 2.32.38 2.32.38 2.32.38 2.32.38 2.32.38 2.32.38 2.32.38 2.33.38 2.32.38 2.32.38 2.32.38 2.32.38 2.32.38 2.32.38M68.43 274.13l2.2-.4 2.19-.41 2.2-.4 2.19-.4 2.2-.4 2.19-.4 2.2-.4 2.19-.41 2.2-.4 2.19-.4 2.2-.4 2.19-.4 2.2-.4 2.19-.41 2.2-.4 2.19-.4 2.2-.4 2.19-.4 2.19-.41 2.2-.4 2.19-.4 2.2-.4 2.19-.4 2.2-.4 2.19-.41 2.2-.4 2.19-.4 2.2-.4 2.19-.4 2.2-.4 2.19-.41 2.2-.4 2.19-.4 2.2-.4 2.19-.4 2.2-.4 2.19-.41 2.2-.4 2.19-.4 2.2-.4 2.19-.4 2.2-.4 2.19-.41 2.2-.4 2.19-.4 2.19-.4 2.2-.4 2.19-.41 2.2-.4 2.19-.4 2.2-.4 2.19-.4 2.2-.4 2.19-.41 2.2-.4 2.19-.4 2.2-.4 2.19-.4 2.2-.4 2.19-.41 2.2-.4 2.19-.4 2.2-.4 2.19-.4 2.2-.4 2.19-.41 2.2-.4 2.19-.4 2.2-.4 2.19-.4 2.2-.41 2.19-.4 2.19-.4 2.2-.4 2.19-.4 2.2-.4 2.19-.41 2.2-.4 2.19-.4 2.2-.4 2.19-.4 2.2-.4 2.19-.41 2.2-.4 2.19-.4 2.2-.4 2.19-.4 2.2-.4 2.19-.41 2.2-.4 2.19-.4 2.2-.4 2.19-.4 2.2-.41 2.19-.4 2.2-.4 2.19-.4 2.19-.4 2.2-.4" style="stroke-width:1.07;stroke:#000000;stroke-opacity:0.10;stroke-linecap:butt"/><path d="m521.63 207.76-2.44.17-2.45.18-2.44.17-2.44.18-2.45.17-2.44.18-2.43.19-2.44.18-2.44.19-2.43.18-2.44.19-2.43.2-2.43.19-2.43.2-2.43.19-2.42.2-2.43.21-2.42.2-2.43.21-2.42.2-2.42.22-2.42.21-2.42.21-2.41.22-2.42.22-2.41.22-2.42.22-2.41.22-2.41.23-2.41.23-2.4.23-2.41.23-2.41.23-2.4.24-2.4.24-2.4.24-2.4.24-2.4.25-2.4.24-2.39.25-2.4.25-2.39.25-2.39.26-2.4.26-2.39.25-2.38.26-2.39.27-2.39.26-2.38.27-2.38.27-2.38.27-2.39.27-2.37.27-2.38.28-2.38.28-2.37.28-2.38.28-2.37.29-2.37.28-2.37.29-2.37.29-2.37.3-2.36.29-2.37.3-2.36.3-2.36.3-2.37.3-2.35.31-2.36.3-2.36.31-2.36.31-2.35.32-2.35.31-2.36.32-2.35.32-2.35.32-2.34.32-2.35.33-2.35.32-2.34.33-2.34.33-2.34.34-2.34.33-2.34.34-2.34.34-2.34.34-2.33.34-2.34.35-2.33.34-2.33.35-2.33.35-2.33.36-2.32.35-2.33.36-2.32.36-2.33.36-2.32.36-2.32.37-2.32.37m235.91-26.6-.35.66-.35.66-.35.66-.35.66-.34.65-.34.66-.33.66-.33.66-.33.66-.33.66-.32.66-.32.66-.32.66-.31.66-.31.66-.31.66-.3.66-.3.66-.3.66-.29.66-.29.66-.29.66-.28.66-.28.66-.28.66-.28.67-.27.66-.26.66-.27.66-.26.67-.26.66-.25.66-.26.66-.25.67-.24.66-.24.66-.24.67-.24.66-.23.67-.23.66-.23.66-.22.67-.22.66-.22.67-.21.66-.21.67-.21.66-.2.67-.2.66-.2.67-.19.67-.19.66-.19.67-.18.66-.19.67-.17.67-.18.67-.17.66-.17.67-.16.67-.17.66-.15.67-.16.67-.15.67-.15.67-.15.67-.14.66-.14.67-.14.67-.13.67-.13.67-.12.67-.13.67-.12.67-.11.67-.12.67-.11.67-.11.67-.1.67-.1.67-.1.67-.09.67-.09.67-.09.68-.09.67-.08.67-.08.67-.07.67-.07.68-.07.67-.07.67-.06.67-.06.68-.06.67-.05.67-.05.68-.04.67-.05.67-.04.68m-220.47 65.84.04-1.06.04-1.06.04-1.06.04-1.07.04-1.06.05-1.06.04-1.06.04-1.07.04-1.06.04-1.06.04-1.06.04-1.06.05-1.07.04-1.06.04-1.06.04-1.06.04-1.07.04-1.06.04-1.06.04-1.06.05-1.06.04-1.07.04-1.06.04-1.06.04-1.06.04-1.07.04-1.06.05-1.06.04-1.06.04-1.07.04-1.06.04-1.06.04-1.06.04-1.06.04-1.07.05-1.06.04-1.06.04-1.06.04-1.07.04-1.06.04-1.06.04-1.06.05-1.07.04-1.06.04-1.06.04-1.06.04-1.06.04-1.07.04-1.06.04-1.06.05-1.06.04-1.07.04-1.06.04-1.06.04-1.06.04-1.07.04-1.06.05-1.06.04-1.06.04-1.06.04-1.07.04-1.06.04-1.06.04-1.06.04-1.07.05-1.06.04-1.06.04-1.06.04-1.07.04-1.06.04-1.06.04-1.06.05-1.06.04-1.07.04-1.06.04-1.06.04-1.06.04-1.07.04-1.06.04-1.06.05-1.06.04-1.06.04-1.07.04-1.06.04-1.06.04-1.06.04-1.07.05-1.06.04-1.06.04-1.06.04-1.07.04-1.06.04-1.06.04-1.06.04-1.06.05-1.07.04-1.06.04-1.06.04-1.06" style="stroke-width:1.07;stroke:#000000;stroke-opacity:0.10;stroke-linecap:butt"/><path d="m521.63 207.76-2.38.27-2.38.27-2.38.27-2.39.27-2.38.27-2.38.27-2.39.26-2.38.27-2.38.27-2.39.27-2.38.27-2.38.27-2.38.27-2.39.26-2.38.27-2.38.27-2.39.27-2.38.27-2.38.27-2.39.27-2.38.26-2.38.27-2.38.27-2.39.27-2.38.27-2.38.27-2.39.27-2.38.27-2.38.26-2.38.27-2.39.27-2.38.27-2.38.27-2.39.27-2.38.27-2.38.26-2.39.27-2.38.27-2.38.27-2.38.27-2.39.27-2.38.27-2.38.26-2.39.27-2.38.27-2.38.27-2.39.27-2.38.27-2.38.27-2.38.26-2.39.27-2.38.27-2.38.27-2.39.27-2.38.27-2.38.27-2.39.26-2.38.27-2.38.27-2.38.27-2.39.27-2.38.27-2.38.27-2.39.26-2.38.27-2.38.27-2.39.27-2.38.27-2.38.27-2.38.27-2.39.27-2.38.26-2.38.27-2.39.27-2.38.27-2.38.27-2.38.27-2.39.27-2.38.26-2.38.27-2.39.27-2.38.27-2.38.27-2.39.27-2.38.27-2.38.26-2.38.27-2.39.27-2.38.27-2.38.27-2.39.27-2.38.27-2.38.26-2.39.27-2.38.27-2.38.27-2.38.27-2.39.27-2.38.27m235.91-26.6-.19.67-.2.67-.2.66-.19.67-.2.66-.2.67-.2.66-.19.67-.2.67-.2.66-.2.67-.19.66-.2.67-.2.67-.19.66-.2.67-.2.66-.2.67-.19.66-.2.67-.2.67-.2.66-.19.67-.2.66-.2.67-.2.66-.19.67-.2.67-.2.66-.19.67-.2.66-.2.67-.2.67-.19.66-.2.67-.2.66-.2.67-.19.66-.2.67-.2.67-.19.66-.2.67-.2.66-.2.67-.19.67-.2.66-.2.67-.2.66-.19.67-.2.66-.2.67-.19.67-.2.66-.2.67-.2.66-.19.67-.2.66-.2.67-.2.67-.19.66-.2.67-.2.66-.19.67-.2.67-.2.66-.2.67-.19.66-.2.67-.2.66-.2.67-.19.67-.2.66-.2.67-.19.66-.2.67-.2.66-.2.67-.19.67-.2.66-.2.67-.2.66-.19.67-.2.67-.2.66-.19.67-.2.66-.2.67-.2.66-.19.67-.2.67-.2.66-.2.67-.19.66-.2.67-.2.67-.19.66-.2.67-.2.66-.2.67" style="stroke-width:1.07;stroke:#000000;stroke-opacity:0.10;stroke-linecap:butt"/><path d="m521.63 207.76-2.32.37-2.32.37-2.32.36-2.32.36-2.33.36-2.32.36-2.33.35-2.33.36-2.33.35-2.33.35-2.33.34-2.33.35-2.34.34-2.34.34-2.33.34-2.34.34-2.34.33-2.34.34-2.35.33-2.34.33-2.35.32-2.34.33-2.35.32-2.35.32-2.35.32-2.35.32-2.36.31-2.35.32-2.36.31-2.35.31-2.36.3-2.36.31-2.36.3-2.36.3-2.37.3-2.36.3-2.37.29-2.37.3-2.36.29-2.37.29-2.38.28-2.37.29-2.37.28-2.38.28-2.37.28-2.38.28-2.38.27-2.38.27-2.38.27-2.39.27-2.38.27-2.39.26-2.38.27-2.39.26-2.39.25-2.39.26-2.39.26-2.4.25-2.39.25-2.4.25-2.39.24-2.4.25-2.4.24-2.4.24-2.41.24-2.4.24-2.4.23-2.41.23-2.41.23-2.41.23-2.41.23-2.41.22-2.41.22-2.42.22-2.41.22-2.42.22-2.42.21-2.42.22-2.42.21-2.42.2-2.42.21-2.43.2-2.42.21-2.43.2-2.43.19-2.43.2-2.43.19-2.43.2-2.43.19-2.44.18-2.43.19-2.44.18-2.44.19-2.44.18-2.44.17-2.44.18-2.45.17-2.44.18-2.45.17m235.91-26.6-.04.68-.04.67-.04.68-.05.67-.06.67-.05.68-.06.67-.06.67-.07.67-.07.68-.07.67-.08.67-.07.67-.09.67-.08.68-.09.67-.09.67-.09.67-.1.67-.1.67-.11.67-.1.67-.11.67-.12.67-.11.67-.12.67-.13.67-.12.67-.13.67-.14.67-.13.67-.14.67-.15.67-.14.67-.15.66-.15.67-.16.67-.16.67-.16.67-.16.66-.17.67-.17.67-.18.66-.18.67-.18.67-.18.66-.19.67-.19.67-.19.66-.2.67-.2.66-.21.67-.2.66-.21.67-.22.66-.21.67-.22.66-.23.67-.22.66-.23.67-.23.66-.24.67-.24.66-.24.66-.25.67-.25.66-.25.66-.25.66-.26.67-.26.66-.27.66-.27.66-.27.67-.27.66-.28.66-.28.66-.28.66-.29.66-.29.66-.3.66-.29.67-.3.66-.31.66-.3.66-.31.66-.32.66-.31.66-.32.66-.32.65-.33.66-.33.66-.33.66-.34.66-.33.66-.35.66-.34.65-.35.66-.35.66-.36.66" style="stroke-width:1.07;stroke:#000000;stroke-opacity:0.10;stroke-linecap:butt"/><path d="m521.63 207.76-2.25.47-2.26.46-2.26.46-2.26.45-2.27.45-2.27.45-2.27.44-2.28.44-2.27.43-2.28.43-2.28.43-2.29.42-2.28.42-2.29.41-2.3.41-2.29.41-2.3.4-2.3.4-2.3.39-2.31.39-2.3.38-2.31.39-2.32.37-2.31.38-2.32.37-2.32.36-2.33.36-2.32.36-2.33.35-2.33.35-2.33.35-2.34.34-2.34.34-2.34.33-2.34.33-2.35.32-2.35.32-2.35.32-2.36.31-2.35.31-2.36.31-2.37.3-2.36.29-2.37.3-2.37.29-2.37.28-2.38.28-2.37.28-2.38.27-2.39.27-2.38.26-2.39.26-2.39.26-2.4.25-2.39.25-2.4.25-2.4.24-2.4.23-2.41.24-2.41.22-2.41.23-2.42.22-2.41.21-2.42.22-2.42.21-2.43.2-2.42.2-2.43.2-2.44.19-2.43.19-2.44.18-2.44.18-2.44.18-2.45.17-2.44.17-2.45.16-2.46.16-2.45.15-2.46.16-2.46.14-2.47.15-2.46.14-2.47.13-2.47.14-2.48.12-2.47.13-2.48.12-2.48.11-2.49.11-2.48.11-2.49.1-2.49.1-2.5.1-2.5.09-2.5.09-2.5.08-2.5.08-2.51.07-2.51.08m235.91-26.6.12.69.11.68.11.68.1.68.09.68.08.68.08.68.08.68.06.68.06.68.06.68.04.68.04.68.04.67.03.68.02.68.01.68.01.67v1.35l-.01.68-.02.67-.02.68-.03.67-.04.68-.04.67-.05.67-.06.68-.06.67-.07.67-.08.68-.08.67-.08.67-.1.67-.1.67-.11.67-.11.67-.12.67-.13.67-.13.67-.14.67-.15.67-.15.67-.16.66-.16.67-.17.67-.18.66-.19.67-.19.67-.19.66-.21.67-.21.66-.21.67-.23.66-.23.67-.23.66-.25.66-.24.67-.26.66-.26.66-.27.66-.27.67-.28.66-.29.66-.3.66-.3.66-.3.66-.31.66-.32.66-.33.66-.33.66-.34.66-.35.65-.35.66-.36.66-.36.66-.37.65-.38.66-.38.66-.39.65-.4.66-.4.65-.41.66-.42.65-.42.66-.43.65-.43.65-.44.66-.45.65-.46.65-.46.65-.47.66-.47.65-.48.65-.49.65-.49.65-.5.65-.5.65-.52.65M272.06 524.17l.05-.91.05-.91.05-.91.06-.91.05-.91.05-.91.05-.91.05-.91.05-.91.05-.91.05-.91.05-.91.05-.91.05-.91.05-.91.05-.91.05-.91.05-.91.06-.91.05-.91.05-.9.05-.91.05-.91.05-.91.05-.91.05-.91.05-.91.05-.91.05-.91.05-.91.05-.91.05-.91.05-.91.05-.91.06-.91.05-.91.05-.91.05-.91.05-.91.05-.91.05-.91.05-.91.05-.91.05-.91.05-.91.05-.91.05-.91.05-.9.05-.91.05-.91.06-.91.05-.91.05-.91.05-.91.05-.91.05-.91.05-.91.05-.91.05-.91.05-.91.05-.91.05-.91.05-.91.05-.91.05-.91.06-.91.05-.91.05-.91.05-.91.05-.91.05-.91.05-.91.05-.91.05-.91.05-.9.05-.91.05-.91.05-.91.05-.91.05-.91.05-.91.06-.91.05-.91.05-.91.05-.91.05-.91.05-.91.05-.91.05-.91.05-.91.05-.91.05-.91.05-.91.05-.91.05-.91.05-.91.06-.91.05-.91.05-.91" style="stroke-width:1.07;stroke:#000000;stroke-opacity:0.10;stroke-linecap:butt"/><path d="m502.1 273.68-1.76-.81-1.77-.79-1.78-.79-1.79-.78-1.8-.77-1.8-.76-1.82-.76-1.82-.75-1.83-.73-1.84-.73-1.85-.73-1.86-.71-1.87-.7-1.87-.7-1.89-.69-1.89-.68-1.9-.67-1.91-.66-1.92-.66-1.92-.64-1.94-.64-1.94-.63-1.96-.62-1.96-.62-1.97-.6-1.98-.6-1.98-.59-2-.58-2-.57-2.02-.56-2.02-.56-2.03-.54-2.04-.54-2.04-.53-2.06-.53-2.07-.51-2.07-.5-2.08-.5-2.09-.49-2.1-.48-2.11-.47-2.12-.47-2.12-.45-2.14-.45-2.14-.44-2.15-.43-2.16-.42-2.17-.41-2.17-.41-2.19-.4-2.19-.39-2.21-.38-2.21-.37-2.22-.36-2.23-.36-2.24-.35-2.24-.33-2.26-.33-2.26-.33-2.27-.31-2.28-.31-2.29-.29-2.3-.29-2.31-.28-2.31-.28-2.32-.26-2.34-.26-2.34-.24-2.35-.24-2.36-.23-2.36-.23-2.38-.21-2.38-.21-2.4-.19-2.4-.19-2.41-.19-2.42-.17-2.42-.16-2.44-.16-2.44-.15-2.46-.14-2.46-.13-2.47-.12-2.48-.11-2.49-.11-2.49-.1-2.51-.09-2.51-.08-2.52-.07-2.53-.07-2.54-.05-2.55-.05-2.56-.04-2.56-.03-2.58-.02-2.58-.02-2.59-.01-2.6.01-2.61.01" style="stroke-width:1.07;stroke:#000000;stroke-opacity:0.10;stroke-linecap:butt"/><path d="m502.1 273.68-1.85-.72-1.87-.7-1.87-.7-1.87-.7-1.89-.69-1.89-.68-1.9-.67-1.9-.67-1.91-.67-1.92-.65-1.92-.65-1.93-.64-1.94-.64-1.94-.63-1.95-.62-1.96-.62-1.97-.61-1.97-.61-1.97-.59-1.99-.59-1.99-.59-2-.58-2-.57-2.01-.56-2.02-.56-2.03-.56-2.03-.54-2.03-.54-2.05-.53-2.05-.53-2.06-.52-2.06-.51-2.08-.51-2.07-.5-2.09-.5-2.09-.48-2.1-.49-2.1-.47-2.12-.47-2.11-.46-2.13-.46-2.13-.44-2.14-.45-2.15-.43-2.15-.43-2.16-.43-2.16-.41-2.17-.41-2.18-.41-2.19-.39-2.19-.39-2.2-.39-2.21-.38-2.21-.37-2.22-.36-2.22-.36-2.24-.35-2.24-.35-2.24-.34-2.26-.33-2.26-.33-2.26-.32-2.27-.31-2.28-.3-2.29-.31-2.29-.29-2.3-.29-2.31-.28-2.31-.27-2.32-.27-2.33-.26-2.33-.26-2.34-.24-2.35-.25-2.35-.23-2.36-.23-2.37-.22-2.37-.22-2.38-.21-2.39-.2-2.39-.2-2.41-.19-2.4-.18-2.42-.18-2.42-.17-2.42-.17-2.44-.15-2.44-.15-2.45-.15-2.45-.14-2.46-.13-2.47-.13-2.47-.12-2.48-.11-2.49-.1-2.5-.1-2.5-.1-2.51-.08-2.51-.08" style="stroke-width:1.07;stroke:#000000;stroke-opacity:0.10;stroke-linecap:butt"/><path d="m502.1 273.68-1.95-.63-1.95-.61-1.96-.62-1.97-.61-1.97-.6-1.97-.6-1.98-.6-1.99-.59-1.99-.59-1.99-.58-2-.58-2-.57-2.01-.57-2.01-.56-2.02-.56-2.02-.55-2.03-.55-2.03-.55-2.04-.54-2.04-.53-2.05-.54-2.05-.52-2.06-.52-2.06-.52-2.06-.51-2.08-.51-2.07-.51-2.08-.49-2.09-.5-2.09-.49-2.09-.48-2.1-.48-2.1-.48-2.11-.47-2.12-.47-2.12-.46-2.12-.46-2.13-.45-2.13-.45-2.14-.44-2.14-.44-2.15-.43-2.15-.43-2.16-.43-2.16-.42-2.16-.41-2.18-.41-2.17-.41-2.18-.4-2.19-.4-2.19-.39-2.19-.39-2.2-.38-2.21-.38-2.21-.38-2.21-.37-2.22-.36-2.23-.36-2.23-.36-2.23-.35-2.24-.34-2.24-.35-2.25-.33-2.25-.34-2.26-.32-2.26-.33-2.27-.32-2.27-.31-2.28-.31-2.28-.3-2.29-.3-2.29-.3-2.29-.29-2.3-.29-2.31-.28-2.31-.28-2.31-.27-2.32-.27-2.33-.26-2.33-.26-2.33-.25-2.34-.25-2.35-.25-2.34-.24-2.36-.23-2.36-.23-2.36-.23-2.37-.22-2.37-.22-2.38-.21-2.38-.21-2.39-.2-2.39-.2-2.4-.19-2.4-.19-2.4-.19-2.41-.18-2.42-.17-2.42-.17" style="stroke-width:1.07;stroke:#000000;stroke-opacity:0.10;stroke-linecap:butt"/><path d="m502.1 273.68-2.04-.53-2.05-.53-2.05-.53-2.05-.53-2.06-.52-2.06-.52-2.06-.51-2.07-.52-2.06-.51-2.07-.51-2.08-.5-2.07-.5-2.08-.5-2.08-.5-2.09-.5-2.09-.49-2.09-.49-2.09-.48-2.1-.48-2.1-.49-2.1-.47-2.11-.48-2.1-.47-2.11-.47-2.12-.47-2.11-.46-2.12-.46-2.13-.46-2.12-.45-2.13-.46-2.13-.45-2.14-.44-2.13-.45-2.14-.44-2.14-.44-2.15-.43-2.15-.44-2.15-.43-2.15-.42-2.16-.43-2.16-.42-2.16-.42-2.17-.42-2.17-.41-2.17-.41-2.17-.41-2.18-.41-2.18-.4-2.18-.4-2.19-.4-2.19-.39-2.19-.39-2.19-.39-2.2-.39-2.2-.38-2.2-.38-2.21-.38-2.21-.37-2.21-.38-2.21-.37-2.22-.36-2.22-.37-2.22-.36-2.23-.36-2.23-.35-2.23-.35-2.23-.35-2.24-.35-2.24-.35-2.25-.34-2.24-.34-2.25-.33-2.25-.34-2.26-.33-2.25-.33-2.27-.32-2.26-.32-2.26-.32-2.27-.32-2.28-.31-2.27-.31-2.28-.31-2.28-.31-2.28-.3-2.29-.3-2.29-.3-2.29-.29-2.3-.3-2.29-.29-2.3-.28-2.31-.29-2.3-.28-2.31-.27-2.32-.28-2.31-.27-2.32-.27-2.32-.27-2.32-.26-2.33-.26" style="stroke-width:1.07;stroke:#000000;stroke-opacity:0.10;stroke-linecap:butt"/><path d="m502.1 273.68-2.14-.44-2.13-.45-2.15-.44-2.14-.44-2.14-.43-2.14-.44-2.15-.44-2.14-.44-2.15-.43-2.15-.43-2.15-.44-2.14-.43-2.15-.43-2.16-.43-2.15-.43-2.15-.43-2.16-.43-2.15-.42-2.16-.43-2.15-.43-2.16-.42-2.16-.42-2.16-.42-2.16-.43-2.16-.42-2.16-.42-2.17-.41-2.16-.42-2.17-.42-2.17-.41-2.16-.42-2.17-.41-2.17-.42-2.17-.41-2.17-.41-2.17-.41-2.18-.41-2.17-.41-2.18-.4-2.17-.41-2.18-.41-2.18-.4-2.18-.4-2.18-.41-2.18-.4-2.18-.4-2.18-.4-2.19-.4-2.18-.4-2.19-.39-2.18-.4-2.19-.39-2.19-.4-2.19-.39-2.19-.4-2.19-.39-2.19-.39-2.2-.39-2.19-.39-2.2-.38-2.19-.39-2.2-.39-2.2-.38-2.2-.39-2.2-.38-2.2-.38-2.2-.38-2.2-.38-2.21-.38-2.2-.38-2.21-.38-2.2-.38-2.21-.37-2.21-.38-2.21-.37-2.21-.38-2.21-.37-2.22-.37-2.21-.37-2.21-.37-2.22-.37-2.22-.37-2.21-.36-2.22-.37-2.22-.36-2.22-.37-2.22-.36-2.22-.36-2.23-.36-2.22-.36-2.23-.36-2.22-.36-2.23-.36-2.23-.36-2.23-.35-2.23-.36-2.23-.35-2.23-.35-2.23-.35m216.38 39.32-2.23-.35-2.23-.36-2.23-.35-2.23-.35-2.23-.36-2.23-.36-2.23-.35-2.22-.36-2.23-.36-2.22-.36-2.22-.36-2.23-.37-2.22-.36-2.22-.36-2.22-.37-2.21-.36-2.22-.37-2.22-.37-2.21-.37-2.22-.37-2.21-.37-2.21-.37-2.22-.37-2.21-.37-2.21-.38-2.2-.37-2.21-.38-2.21-.37-2.2-.38-2.21-.38-2.2-.38-2.21-.38-2.2-.38-2.2-.39-2.2-.38-2.2-.38-2.2-.39-2.19-.38-2.2-.39-2.2-.39-2.19-.39-2.19-.39-2.2-.39-2.19-.39-2.19-.39-2.19-.4-2.19-.39-2.18-.4-2.19-.39-2.19-.4-2.18-.4-2.18-.4-2.19-.4-2.18-.4-2.18-.4-2.18-.4-2.18-.41-2.18-.4-2.17-.41-2.18-.4-2.18-.41-2.17-.41-2.17-.41-2.17-.41-2.18-.41-2.17-.41-2.17-.41-2.16-.42-2.17-.41-2.17-.42-2.16-.41-2.17-.42-2.16-.42-2.16-.42-2.17-.42-2.16-.42-2.16-.42-2.16-.43-2.15-.42-2.16-.43-2.16-.42-2.15-.43-2.16-.43-2.15-.42-2.15-.43-2.15-.43-2.15-.44-2.15-.43-2.15-.43-2.15-.44-2.14-.43-2.15-.44-2.14-.43-2.15-.44-2.14-.44-2.14-.44-2.14-.44-2.14-.44-2.14-.44" style="stroke-width:1.07;stroke:#000000;stroke-opacity:0.10;stroke-linecap:butt"/><path d="m502.1 273.68-2.32-.26-2.33-.27-2.32-.26-2.32-.27-2.31-.28-2.31-.27-2.31-.28-2.31-.28-2.3-.28-2.3-.29-2.3-.29-2.3-.29-2.29-.3-2.29-.29-2.28-.3-2.29-.31-2.28-.3-2.28-.31-2.27-.31-2.27-.32-2.27-.31-2.27-.32-2.26-.32-2.26-.33-2.26-.33-2.25-.33-2.26-.33-2.25-.34-2.24-.34-2.24-.34-2.24-.34-2.24-.35-2.24-.35-2.23-.35-2.23-.36-2.22-.36-2.23-.36-2.22-.36-2.21-.37-2.22-.37-2.21-.37-2.21-.38-2.2-.37-2.21-.38-2.2-.39-2.19-.38-2.2-.39-2.19-.39-2.19-.4-2.18-.4-2.19-.4-2.18-.4-2.17-.4-2.18-.41-2.17-.41-2.17-.42-2.16-.41-2.17-.42-2.16-.43-2.15-.42-2.16-.43-2.15-.43-2.15-.43-2.14-.44-2.15-.44-2.13-.44-2.14-.44-2.14-.45-2.13-.45-2.12-.45-2.13-.46-2.12-.46-2.12-.46-2.12-.46-2.11-.47-2.11-.47-2.11-.47-2.11-.47-2.1-.48-2.1-.48-2.09-.48-2.1-.49-2.09-.49-2.09-.49-2.08-.49-2.08-.5-2.08-.5-2.08-.5-2.07-.51-2.07-.51-2.07-.51-2.07-.51-2.06-.52-2.06-.52-2.05-.52-2.06-.52-2.05-.53-2.05-.53-2.04-.53" style="stroke-width:1.07;stroke:#000000;stroke-opacity:0.10;stroke-linecap:butt"/><path d="m502.1 273.68-2.42-.17-2.41-.18-2.41-.18-2.41-.18-2.4-.19-2.4-.2-2.39-.19-2.39-.21-2.38-.21-2.38-.21-2.37-.22-2.37-.22-2.36-.22-2.36-.23-2.35-.24-2.35-.24-2.34-.24-2.34-.25-2.34-.26-2.33-.26-2.32-.26-2.32-.27-2.32-.27-2.31-.28-2.3-.28-2.3-.29-2.3-.29-2.29-.29-2.29-.3-2.28-.31-2.28-.31-2.27-.31-2.27-.32-2.26-.32-2.26-.33-2.25-.33-2.25-.34-2.24-.34-2.24-.35-2.23-.35-2.23-.35-2.22-.36-2.22-.37-2.22-.37-2.21-.37-2.2-.38-2.2-.39-2.2-.38-2.19-.4-2.18-.39-2.18-.4-2.18-.41-2.17-.41-2.17-.42-2.16-.42-2.16-.42-2.15-.43-2.15-.44-2.14-.44-2.14-.44-2.13-.45-2.13-.45-2.12-.46-2.12-.46-2.11-.47-2.11-.47-2.11-.47-2.1-.48-2.09-.49-2.09-.49-2.09-.49-2.08-.5-2.07-.5-2.07-.51-2.07-.51-2.06-.52-2.06-.52-2.05-.53-2.04-.53-2.05-.54-2.03-.54-2.03-.54-2.03-.55-2.03-.56-2.01-.55-2.02-.57-2-.57-2.01-.57-2-.58-1.99-.58-1.99-.59-1.98-.59-1.98-.59-1.98-.6-1.97-.61-1.96-.61-1.96-.61-1.96-.62-1.95-.62" style="stroke-width:1.07;stroke:#000000;stroke-opacity:0.10;stroke-linecap:butt"/><path d="m502.1 273.68-2.51-.08-2.51-.09-2.5-.09-2.49-.1-2.49-.11-2.48-.11-2.48-.12-2.47-.13-2.46-.13-2.45-.14-2.45-.14-2.44-.15-2.43-.16-2.43-.16-2.42-.18-2.41-.17-2.41-.19-2.4-.19-2.4-.19-2.38-.21-2.38-.21-2.38-.21-2.36-.23-2.36-.22-2.36-.24-2.34-.24-2.34-.25-2.34-.26-2.32-.26-2.32-.26-2.32-.28-2.3-.28-2.3-.29-2.3-.29-2.28-.3-2.28-.31-2.28-.31-2.26-.32-2.26-.33-2.25-.33-2.25-.34-2.24-.34-2.23-.36-2.23-.35-2.22-.37-2.21-.37-2.21-.38-2.2-.38-2.19-.39-2.18-.4-2.18-.4-2.17-.41-2.17-.42-2.16-.42-2.15-.43-2.15-.44-2.14-.44-2.13-.45-2.12-.46-2.12-.46-2.11-.47-2.11-.47-2.1-.48-2.09-.49-2.08-.49-2.08-.5-2.07-.51-2.07-.52-2.06-.52-2.05-.52-2.04-.53-2.04-.54-2.03-.55-2.03-.55-2.01-.56-2.02-.57-2-.57-2-.58-1.99-.58-1.98-.59-1.98-.6-1.97-.6-1.97-.61-1.95-.62-1.95-.63-1.95-.63-1.94-.63-1.93-.64-1.92-.65-1.92-.66-1.91-.66-1.9-.67-1.9-.68-1.89-.68-1.88-.69-1.88-.69-1.87-.7-1.86-.71-1.86-.71" style="stroke-width:1.07;stroke:#000000;stroke-opacity:0.10;stroke-linecap:butt"/><path d="m502.1 273.68-2.61.01h-2.6l-2.59-.01-2.58-.01-2.57-.02-2.57-.04-2.56-.03-2.54-.05-2.54-.06-2.53-.06-2.53-.08-2.51-.08-2.5-.09-2.5-.1-2.49-.1-2.48-.12-2.47-.12-2.46-.13-2.45-.14-2.45-.15-2.43-.15-2.43-.17-2.42-.17-2.41-.18-2.4-.19-2.39-.2-2.39-.2-2.37-.22-2.37-.22-2.36-.23-2.35-.24-2.34-.25-2.33-.25-2.33-.27-2.31-.27-2.31-.28-2.3-.29-2.28-.3-2.28-.3-2.28-.32-2.26-.32-2.26-.33-2.24-.34-2.24-.35-2.23-.35-2.22-.37-2.21-.37-2.2-.38-2.2-.39-2.18-.4-2.18-.4-2.17-.42-2.16-.42-2.15-.43-2.14-.44-2.14-.44-2.12-.46-2.12-.46-2.11-.48-2.09-.48-2.1-.48-2.08-.5-2.07-.51-2.07-.51-2.05-.52-2.05-.53-2.04-.54-2.03-.55-2.02-.55-2.01-.57-2.01-.57-1.99-.58-1.99-.59-1.98-.59-1.97-.61-1.96-.61-1.95-.62-1.95-.63-1.93-.64-1.93-.65-1.92-.65-1.91-.67-1.9-.67-1.89-.68-1.88-.69-1.88-.69-1.87-.71-1.85-.71-1.85-.72-1.84-.73-1.84-.74-1.82-.75-1.81-.75-1.81-.76-1.8-.78-1.79-.78-1.78-.78-1.77-.8-1.76-.8" style="stroke-width:1.07;stroke:#000000;stroke-opacity:0.10;stroke-linecap:butt"/><path d="m281.63 334.55 4.31 7.46h-8.62zm240-134.53 6.71 11.61h-13.41zm-128.02-59.85 1.92 3.32h-3.83zm-198.08-2.31 1.91 3.31h-3.82zM55.97 194.57l1.91 3.31h-3.83zm12.46 77.35 1.92 3.31h-3.83zm203.63 250.04 1.92 3.31h-3.83z" style="stroke-width:0.71;stroke:none;fill:#00BA38"/><path d="M497.13 278.66h9.95v-9.96h-9.95z" style="stroke-width:0.71;stroke:none;fill:#619CFF"/><circle cx="277.08" cy="434.11" r="3.2" style="stroke-width:0.71;stroke:none;fill:#F8766D"/><circle cx="285.72" cy="234.36" r="6.76" style="stroke-width:0.71;stroke:none;fill:#F8766D"/><path d="m276.3 344.13 4.45-3.85m235.76-137.14 4.27 3.85m-132.35-59.92 4.32-3.91m-202.6 1.56 4.5-3.89M73.33 272.2l-3.75 1.48M277.46 519.5l-4.52 3.91m223.74-245.13 4.54-3.85M271.67 438.79l4.53-3.92m14.95-205.12-4.54 3.85" style="stroke-width:0.53;stroke:#BFBFBF"/><path d="M230.9 363.67h66.54-.09l.35-.01.34-.07.32-.13.3-.17.27-.22.23-.26.19-.29.14-.32.08-.34.03-.35h0v-15.22h0l-.03-.35-.08-.33-.14-.32-.19-.3-.23-.26-.27-.22-.3-.17-.32-.12-.34-.07-.26-.02H230.9l.26.02-.35-.02-.34.04-.33.1-.32.15-.28.2-.26.24-.2.28-.17.3-.11.33-.05.35-.01.17v15.22l.01-.17v.35l.05.34.11.33.17.31.2.27.26.24.28.2.32.15.33.1.34.04z" style="stroke-width:0.53;fill:#FFFFFF;fill-opacity:0.50"/><text x="264.17" y="351.88" lengthAdjust="spacingAndGlyphs" style="font-size:5.69px;font-family:&quot;Liberation Sans&quot;" text-anchor="middle" textLength="63.66">GREATER SPRING HILL</text><text x="264.17" y="360.07" lengthAdjust="spacingAndGlyphs" style="font-size:5.69px;font-family:&quot;Liberation Sans&quot;" text-anchor="middle" textLength="12.69">MBC</text><path d="M489.37 203.14h39.45-.09l.35-.01.34-.07.33-.13.3-.17.27-.22.23-.26.18-.29.14-.32.08-.34.03-.35h0v-7.02h0l-.03-.35-.08-.34-.14-.32-.18-.29-.23-.26-.27-.22-.3-.18-.33-.12-.34-.07-.26-.01h-39.45l.26.01-.35-.01-.34.04-.33.1-.32.14-.28.2-.26.24-.2.28-.17.31-.11.33-.05.34-.01.18v7.02l.01-.17v.35l.05.34.11.33.17.31.2.27.26.25.28.19.32.15.33.1.34.04z" style="stroke-width:0.53;fill:#FFFFFF;fill-opacity:0.50"/><text x="509.1" y="199.54" lengthAdjust="spacingAndGlyphs" style="font-size:5.69px;font-family:&quot;Liberation Sans&quot;" text-anchor="middle" textLength="36.57">DELFAST INC</text><path d="M342.51 158.41h77.06-.09l.35-.01.34-.07.33-.12.3-.18.27-.22.23-.26.18-.29.14-.32.08-.34.03-.35h0v-7.02h0l-.03-.35-.08-.34-.14-.32-.18-.29-.23-.26-.27-.22-.3-.17-.33-.13-.34-.07-.26-.01h-77.06l.26.01-.35-.01-.34.04-.34.1-.31.15-.29.19-.25.25-.21.27-.16.31-.11.33-.06.34v7.2-.17.35l.06.34.11.33.16.31.21.28.25.24.29.2.31.14.34.1.34.04z" style="stroke-width:0.53;fill:#FFFFFF;fill-opacity:0.50"/><text x="381.04" y="154.81" lengthAdjust="spacingAndGlyphs" style="font-size:5.69px;font-family:&quot;Liberation Sans&quot;" text-anchor="middle" textLength="74.18">TONGULA L WASHINGTON</text><path d="M145.65 164.26h64.72-.08l.34-.01.35-.07.32-.12.3-.18.27-.22.23-.26.19-.29.13-.32.09-.34.02-.35h0v-15.22h0l-.02-.34-.09-.34-.13-.32-.19-.3-.23-.26-.27-.22-.3-.17-.32-.12-.35-.07-.26-.02h-64.72l.26.02-.35-.02-.35.05-.33.09-.31.15-.29.2-.25.24-.21.28-.16.31-.11.33-.06.34v15.39-.17.35l.06.34.11.33.16.31.21.28.25.24.29.19.31.15.33.1.35.04z" style="stroke-width:0.53;fill:#FFFFFF;fill-opacity:0.50"/><text x="178.01" y="152.47" lengthAdjust="spacingAndGlyphs" style="font-size:5.69px;font-family:&quot;Liberation Sans&quot;" text-anchor="middle" textLength="61.85">GREATER SPRINGHILL</text><text x="178.01" y="160.66" lengthAdjust="spacingAndGlyphs" style="font-size:5.69px;font-family:&quot;Liberation Sans&quot;" text-anchor="middle" textLength="28.1">MISSIONA</text><path d="M62.93 202.09h78.6-.08l.34-.01.34-.07.33-.13.3-.17.27-.22.23-.26.19-.29.13-.32.09-.34.02-.35h0v-7.02h0l-.02-.35-.09-.34-.13-.32-.19-.29-.23-.26-.27-.22-.3-.18-.33-.12-.34-.07-.26-.01h-78.6l.26.01-.35-.01-.34.04-.34.1-.31.14-.29.2-.25.24-.2.28-.17.31-.11.33-.05.34-.01.18v7.02l.01-.17v.35l.05.34.11.33.17.31.2.27.25.25.29.19.31.15.34.1.34.04z" style="stroke-width:0.53;fill:#FFFFFF;fill-opacity:0.50"/><text x="102.23" y="198.49" lengthAdjust="spacingAndGlyphs" style="font-size:5.69px;font-family:&quot;Liberation Sans&quot;" text-anchor="middle" textLength="75.72">DANNY WASHINGTON AND</text><path d="M75.49 277.61h64.27-.08l.34-.01.34-.07.33-.13.3-.17.27-.22.23-.26.18-.29.14-.32.08-.34.03-.35h0v-7.03h0l-.03-.34-.08-.34-.14-.32-.18-.29-.23-.26-.27-.22-.3-.18-.33-.12-.34-.07-.26-.02H75.49l.26.02-.35-.01-.34.04-.34.09-.31.15-.29.2-.25.24-.21.28-.16.31-.11.33-.06.34v7.2-.17.35l.06.34.11.33.16.31.21.27.25.24.29.2.31.15.34.1.34.04z" style="stroke-width:0.53;fill:#FFFFFF;fill-opacity:0.50"/><text x="107.62" y="274.01" lengthAdjust="spacingAndGlyphs" style="font-size:5.69px;font-family:&quot;Liberation Sans&quot;" text-anchor="middle" textLength="61.39">DANNY WASHINGTON</text><path d="M264.67 519.5h49.94-.09l.35-.01.34-.07.32-.13.3-.17.27-.22.23-.26.19-.29.13-.32.09-.34.03-.35h0v-15.22h0l-.03-.35-.09-.33-.13-.32-.19-.3-.23-.26-.27-.22-.3-.17-.32-.12-.34-.07-.26-.02h-49.94l.26.02-.35-.02-.35.04-.33.1-.31.15-.29.2-.25.24-.21.28-.16.3-.11.33-.06.35v15.39-.17.35l.06.34.11.33.16.31.21.27.25.25.29.19.31.15.33.1.35.04z" style="stroke-width:0.53;fill:#FFFFFF;fill-opacity:0.50"/><text x="289.64" y="507.71" lengthAdjust="spacingAndGlyphs" style="font-size:5.69px;font-family:&quot;Liberation Sans&quot;" text-anchor="middle" textLength="47.06">GTR SPRINGHILL</text><text x="289.64" y="515.9" lengthAdjust="spacingAndGlyphs" style="font-size:5.69px;font-family:&quot;Liberation Sans&quot;" text-anchor="middle" textLength="42.39">MISSION BAPTI</text><path d="M448.69 306.01h61.92-.08l.34-.01.34-.07.33-.13.3-.17.27-.22.23-.26.19-.29.13-.32.09-.34.02-.35h0v-23.41h0l-.02-.35-.09-.34-.13-.32-.19-.29-.23-.26-.27-.22-.3-.18-.33-.12-.34-.07-.26-.01h-61.92l.26.01-.34-.01-.35.04-.33.1-.32.15-.28.19-.25.24-.21.28-.16.31-.11.33-.06.34-.01.18v23.41l.01-.17v.35l.06.34.11.33.16.31.21.27.25.25.28.19.32.15.33.1.35.04z" style="stroke-width:0.53;fill:#FFFFFF;fill-opacity:0.50"/><text x="479.65" y="286.02" lengthAdjust="spacingAndGlyphs" style="font-size:5.69px;font-family:&quot;Liberation Sans&quot;" text-anchor="middle" textLength="55.4">8808 W FIEBRANTZ</text><text x="479.65" y="294.22" lengthAdjust="spacingAndGlyphs" style="font-size:5.69px;font-family:&quot;Liberation Sans&quot;" text-anchor="middle" textLength="59.04">AVE, MILWAUKEE, WI</text><text x="479.65" y="302.41" lengthAdjust="spacingAndGlyphs" style="font-size:5.69px;font-family:&quot;Liberation Sans&quot;" text-anchor="middle" textLength="18.11">53222</text><path d="M225.92 458.33h67.21-.08l.35-.01.34-.07.32-.13.3-.17.27-.22.23-.26.19-.29.13-.32.09-.34.02-.35h0v-15.22h0l-.02-.34-.09-.34-.13-.32-.19-.3-.23-.26-.27-.22-.3-.17-.32-.12-.34-.07-.27-.02h-67.21l.26.02-.35-.02-.35.05-.33.09-.31.15-.29.2-.25.24-.21.28-.16.31-.11.32-.06.35v15.39-.17.35l.06.34.11.33.16.31.21.28.25.24.29.19.31.15.33.1.35.04z" style="stroke-width:0.53;fill:#FFFFFF;fill-opacity:0.50"/><text x="259.53" y="446.54" lengthAdjust="spacingAndGlyphs" style="font-size:5.69px;font-family:&quot;Liberation Sans&quot;" text-anchor="middle" textLength="48.05">3500 N 26TH ST,</text><text x="259.53" y="454.73" lengthAdjust="spacingAndGlyphs" style="font-size:5.69px;font-family:&quot;Liberation Sans&quot;" text-anchor="middle" textLength="64.34">MILWAUKEE, WI 53206</text><path d="M277.21 229.75h61.92-.08l.34-.01.34-.07.33-.12.3-.18.27-.22.23-.26.19-.29.13-.32.09-.34.02-.35h0v-23.41h0l-.02-.35-.09-.34-.13-.32-.19-.29-.23-.26-.27-.22-.3-.17-.33-.13-.34-.07-.26-.01h-61.92l.26.01-.34-.01-.35.04-.33.1-.32.15-.28.2-.25.24-.21.27-.16.31-.11.33-.06.34-.01.18v23.41l.01-.17v.35l.06.34.11.33.16.31.21.28.25.24.28.2.32.14.33.1.35.04z" style="stroke-width:0.53;fill:#FFFFFF;fill-opacity:0.50"/><text x="308.17" y="209.77" lengthAdjust="spacingAndGlyphs" style="font-size:5.69px;font-family:&quot;Liberation Sans&quot;" text-anchor="middle" textLength="55.4">8808 W FIEBRANTZ</text><text x="308.17" y="217.96" lengthAdjust="spacingAndGlyphs" style="font-size:5.69px;font-family:&quot;Liberation Sans&quot;" text-anchor="middle" textLength="59.04">AVE, MILWAUKEE, WI</text><text x="308.17" y="226.15" lengthAdjust="spacingAndGlyphs" style="font-size:5.69px;font-family:&quot;Liberation Sans&quot;" text-anchor="middle" textLength="18.11">53222</text></g><g clip-path="url(#cpMC4wMHw1NzYuMDB8MC4wMHw1NzYuMDA=)"><circle cx="194.24" cy="95.78" r="1.95" style="stroke-width:0.71;stroke:none;fill:#F8766D"/><path d="m270.59 92.74 2.63 4.56h-5.26z" style="stroke-width:0.71;stroke:none;fill:#00BA38"/><path d="M336.57 97.74h3.91v-3.91h-3.91z" style="stroke-width:0.71;stroke:none;fill:#619CFF"/><text x="208.36" y="98.81" lengthAdjust="spacingAndGlyphs" style="font-size:8.80px;font-family:&quot;Liberation Sans Narrow&quot;" textLength="48.12">mprop address</text><text x="284.71" y="98.81" lengthAdjust="spacingAndGlyphs" style="font-size:8.80px;font-family:&quot;Liberation Sans Narrow&quot;" textLength="39.69">owner name</text><text x="352.64" y="98.81" lengthAdjust="spacingAndGlyphs" style="font-size:8.80px;font-family:&quot;Liberation Sans Narrow&quot;" textLength="40.5">wdfi address</text><text x="32.63" y="64.23" lengthAdjust="spacingAndGlyphs" style="font-size:12.00px;font-family:&quot;Liberation Sans Narrow&quot;" textLength="252.23">includes 12 parcels, 14 units, and 7 distinct owner names.</text><text x="32.63" y="42.27" lengthAdjust="spacingAndGlyphs" style="font-size:18.00px;font-weight:bold;font-family:&quot;Liberation Sans Narrow&quot;" textLength="170.55">DELFAST INC etc Group</text></g></svg>