<svg xmlns="http://www.w3.org/2000/svg" width="576" height="672" class="svglite" viewBox="0 0 432 504"><defs><style><![CDATA[.svglite line,.svglite polyline,.svglite polygon,.svglite path,.svglite circle{fill:none;stroke:#000000;stroke-linecap:round;stroke-linejoin:round;stroke-miterlimit:10.00}]]></style></defs><rect width="100%" height="100%" style="stroke-linecap:round;stroke-linejoin:round;stroke-miterlimit:10.00;stroke:none;fill:#FFFFFF"/><defs><clipPath id="cpMC4wMHw0MzIuMDB8MC4wMHw1MDQuMDA="><path d="M0 0h432v504H0z"/></clipPath></defs><g clip-path="url(#cpMC4wMHw0MzIuMDB8MC4wMHw1MDQuMDA=)"><path d="M0 0h432v504H0z" style="stroke-width:1.07;stroke:none;fill:#FFFFFF"/></g><defs><clipPath id="cpMzIuNjN8NDAyLjExfDE0MS4yMnw0NzEuMzc="><path d="M32.63 141.22h369.48v330.15H32.63z"/></clipPath></defs><g clip-path="url(#cpMzIuNjN8NDAyLjExfDE0MS4yMnw0NzEuMzc=)"><path d="m187.51 156.23.37 2.14.37 2.13.38 2.13.38 2.13.38 2.12.39 2.13.38 2.12.4 2.12.39 2.12.4 2.11.4 2.12.4 2.11.41 2.11.41 2.1.42 2.11.41 2.1.42 2.1.42 2.1.43 2.1.43 2.09.43 2.09.44 2.09.44 2.09.44 2.08.44 2.09.45 2.08.45 2.08.45 2.07.46 2.08.46 2.07.46 2.07.47 2.07.47 2.06.47 2.06.48 2.07.48 2.05.48 2.06.48 2.06.49 2.05.49 2.05.5 2.05.5 2.04.5 2.05.5 2.04.51 2.04.51 2.04.51 2.03.52 2.03.52 2.03.52 2.03.52 2.03.53 2.02.53 2.03.54 2.02.54 2.01.54 2.02.54 2.01.55 2.01.55 2.01.55 2.01.56 2 .56 2.01.56 2 .57 2 .57 1.99.57 1.99.57 2 .58 1.99.58 1.98.59 1.99.59 1.98.59 1.98.59 1.98.6 1.98.6 1.97.6 1.97.61 1.97.61 1.97.61 1.97.62 1.96.61 1.96.63 1.96.62 1.96.63 1.95.63 1.96.64 1.95.63 1.94.64 1.95.65 1.94.64 1.95.65 1.94.66 1.93.65 1.94.66 1.93.66 1.93.67 1.93.67 1.93.67 1.92.67 1.92m-51.71-200.83-.71 2.93-.71 2.94-.7 2.94-.69 2.94-.69 2.94-.69 2.94-.68 2.95-.68 2.94-.67 2.95-.67 2.96-.66 2.95-.66 2.95-.66 2.96-.65 2.96-.64 2.96-.64 2.97-.64 2.96-.63 2.97-.62 2.97-.62 2.97-.62 2.97-.61 2.98-.61 2.98-.6 2.98-.6 2.98-.6 2.98-.59 2.99-.58 2.98-.58 2.99-.57 3-.57 2.99-.57 2.99-.56 3-.56 3-.55 3-.55 3.01-.54 3-.54 3.01-.53 3.01-.53 3.01-.52 3.02-.52 3.01-.52 3.02-.51 3.02-.5 3.02-.5 3.02-.5 3.03-.49 3.03-.49 3.03-.48 3.03-.48 3.03-.47 3.04-.47 3.04-.46 3.03-.46 3.05-.45 3.04-.45 3.05-.45 3.04-.44 3.05-.43 3.05-.44 3.06-.42 3.05-.42 3.06-.42 3.06-.41 3.06-.41 3.07-.4 3.06-.4 3.07-.4 3.07-.39 3.07-.38 3.08-.38 3.07-.37 3.08-.38 3.08-.36 3.08-.36 3.09-.36 3.08-.35 3.09-.35 3.09-.34 3.09-.34 3.09-.33 3.1-.33 3.1-.32 3.1-.32 3.1-.32 3.1-.31 3.11-.3 3.11-.31 3.11-.29 3.11-.29 3.11-.29 3.12-.28 3.12-.28 3.12-.27 3.12-.27 3.12-.26 3.13-.26 3.13-.26 3.13m47.73-300.14.67 1.92.68 1.93.66 1.92.67 1.93.66 1.93.66 1.94.66 1.93.65 1.94.65 1.94.65 1.94.64 1.94.64 1.95.64 1.95.63 1.95.63 1.95.63 1.96.63 1.95.62 1.96.62 1.96.61 1.97.62 1.96.61 1.97.6 1.97.61 1.97.6 1.98.59 1.97.6 1.98.59 1.98.59 1.99.58 1.98.58 1.99.58 1.99.58 1.99.57 1.99.57 2 .56 2 .57 2 .56 2 .55 2 .56 2.01.55 2.01.54 2.01.55 2.02.54 2.01.54 2.02.53 2.02.53 2.02.53 2.03.53 2.02.52 2.03.52 2.03.51 2.03.52 2.04.51 2.04.5 2.04.51 2.04.5 2.04.5 2.05.49 2.05.49 2.05.49 2.05.48 2.05.49 2.06.48 2.06.47 2.06.47 2.06.47 2.07.47 2.07.46 2.07.46 2.07.46 2.07.45 2.08.45 2.08.45 2.08.45 2.08.44 2.09.44 2.08.43 2.09.43 2.09.43 2.1.43 2.09.42 2.1.42 2.1.42 2.11.41 2.1.41 2.11.41 2.11.4 2.11.41 2.11.39 2.12.4 2.11.39 2.12.39 2.13.38 2.12.39 2.13.38 2.12.37 2.14.37 2.13.37 2.13" style="stroke-width:1.07;stroke:#000000;stroke-opacity:0.10;stroke-linecap:butt"/><path d="m187.51 156.23-.25 3.13-.26 3.13-.27 3.12-.27 3.13-.27 3.12-.28 3.12-.28 3.12-.28 3.11-.3 3.12-.29 3.11-.3 3.11-.31 3.11-.31 3.1-.31 3.11-.32 3.1-.33 3.1-.33 3.1-.33 3.09-.34 3.1-.34 3.09-.35 3.09-.35 3.09-.36 3.08-.36 3.09-.36 3.08-.37 3.08-.38 3.07-.38 3.08-.38 3.07-.39 3.08-.4 3.07-.39 3.06-.41 3.07-.4 3.06-.42 3.06-.41 3.06-.43 3.06-.42 3.06-.43 3.05-.44 3.05-.44 3.05-.44 3.05-.45 3.05-.46 3.04-.46 3.04-.46 3.04-.47 3.04-.47 3.03-.48 3.04-.48 3.03-.49 3.03-.49 3.03-.49 3.02-.51 3.03-.5 3.02-.51 3.02-.52 3.02-.51 3.01-.53 3.02-.53 3.01-.53 3.01-.54 3-.54 3.01-.55 3-.55 3-.56 3-.56 3-.56 3-.57 2.99-.58 2.99-.58 2.99-.58 2.99-.59 2.99-.6 2.98-.59 2.98-.61 2.98-.6 2.98-.62 2.97-.61 2.98-.63 2.97-.62 2.97-.63 2.96-.64 2.97-.64 2.96-.64 2.97-.65 2.95-.66 2.96-.65 2.96-.67 2.95-.67 2.95-.67 2.95-.68 2.95-.68 2.95-.68 2.94-.7 2.94-.69 2.94-.7 2.94-.71 2.93-.71 2.94m245.54-6.34-1.48-.94-1.47-.94-1.48-.94-1.48-.94-1.47-.94-1.48-.94-1.47-.94-1.48-.93-1.47-.94-1.48-.94-1.48-.94-1.47-.94-1.48-.94-1.47-.94-1.48-.94-1.47-.94-1.48-.94-1.47-.93-1.48-.94-1.48-.94-1.47-.94-1.48-.94-1.47-.94-1.48-.94-1.47-.94-1.48-.94-1.48-.94-1.47-.94-1.48-.93-1.47-.94-1.48-.94-1.47-.94-1.48-.94-1.48-.94-1.47-.94-1.48-.94-1.47-.94-1.48-.94-1.47-.93-1.48-.94-1.48-.94-1.47-.94-1.48-.94-1.47-.94-1.48-.94-1.47-.94-1.48-.94-1.48-.94-1.47-.93-1.48-.94-1.47-.94-1.48-.94-1.47-.94-1.48-.94-1.48-.94-1.47-.94-1.48-.94-1.47-.94-1.48-.94-1.47-.93-1.48-.94-1.47-.94-1.48-.94-1.48-.94-1.47-.94-1.48-.94-1.47-.94-1.48-.94-1.47-.94-1.48-.93-1.48-.94-1.47-.94-1.48-.94-1.47-.94-1.48-.94-1.47-.94-1.48-.94-1.48-.94-1.47-.94-1.48-.94-1.47-.93-1.48-.94-1.47-.94-1.48-.94-1.48-.94-1.47-.94-1.48-.94-1.47-.94-1.48-.94-1.47-.94-1.48-.93-1.48-.94-1.47-.94-1.48-.94-1.47-.94-1.48-.94-1.47-.94-1.48-.94-1.48-.94" style="stroke-width:1.07;stroke:#000000;stroke-opacity:0.10;stroke-linecap:butt"/><path d="m49.42 349.53 1.92.08 1.92.07 1.91.08 1.92.07 1.92.08 1.92.08 1.91.07 1.92.08 1.92.07 1.91.08 1.92.08 1.92.07 1.92.08 1.91.08 1.92.07 1.92.08 1.91.07 1.92.08 1.92.08 1.92.07 1.91.08 1.92.07 1.92.08 1.92.08 1.91.07 1.92.08 1.92.07 1.91.08 1.92.08 1.92.07 1.92.08 1.91.08 1.92.07 1.92.08 1.91.07 1.92.08 1.92.08 1.92.07 1.91.08 1.92.07 1.92.08 1.91.08 1.92.07 1.92.08 1.92.07 1.91.08 1.92.08 1.92.07 1.92.08 1.91.07 1.92.08 1.92.08 1.91.07 1.92.08 1.92.08 1.92.07 1.91.08 1.92.07 1.92.08 1.91.08 1.92.07 1.92.08 1.92.07 1.91.08 1.92.08 1.92.07 1.91.08 1.92.07 1.92.08 1.92.08 1.91.07 1.92.08 1.92.07 1.91.08 1.92.08 1.92.07 1.92.08 1.91.08 1.92.07 1.92.08 1.92.07 1.91.08 1.92.08 1.92.07 1.91.08 1.92.07 1.92.08 1.92.08 1.91.07 1.92.08 1.92.07 1.91.08 1.92.08 1.92.07 1.92.08 1.91.07 1.92.08 1.92.08 1.91.07m-189.8-7.53.92 1.08.91 1.08.91 1.08.91 1.08.92 1.08.91 1.07.91 1.08.91 1.08.92 1.08.91 1.08.91 1.08.92 1.08.91 1.08.91 1.08.91 1.08.92 1.08.91 1.08.91 1.07.91 1.08.92 1.08.91 1.08.91 1.08.92 1.08.91 1.08.91 1.08.91 1.08.92 1.08.91 1.08.91 1.08.91 1.07.92 1.08.91 1.08.91 1.08.92 1.08.91 1.08.91 1.08.91 1.08.92 1.08.91 1.08.91 1.08.91 1.08.92 1.07.91 1.08.91 1.08.92 1.08.91 1.08.91 1.08.91 1.08.92 1.08.91 1.08.91 1.08.91 1.08.92 1.07.91 1.08.91 1.08.92 1.08.91 1.08.91 1.08.91 1.08.92 1.08.91 1.08.91 1.08.91 1.08.92 1.08.91 1.07.91 1.08.92 1.08.91 1.08.91 1.08.91 1.08.92 1.08.91 1.08.91 1.08.91 1.08.92 1.08.91 1.08.91 1.07.92 1.08.91 1.08.91 1.08.91 1.08.92 1.08.91 1.08.91 1.08.91 1.08.92 1.08.91 1.08.91 1.08.91 1.07.92 1.08.91 1.08.91 1.08.92 1.08.91 1.08.91 1.08.91 1.08.92 1.08.91 1.08.91 1.08m0 0 1.23-.39 1.23-.4 1.22-.42 1.22-.43 1.21-.43 1.21-.46 1.2-.46 1.2-.48 1.19-.49 1.19-.5 1.18-.51 1.18-.53 1.18-.54 1.17-.55 1.17-.56 1.16-.58 1.15-.59 1.16-.6 1.14-.62 1.15-.62 1.14-.64 1.13-.66 1.13-.66 1.12-.68 1.12-.69 1.12-.7 1.11-.72 1.1-.72 1.11-.74 1.09-.76 1.09-.76 1.09-.78 1.08-.79 1.08-.8 1.08-.82 1.07-.82 1.06-.84 1.06-.86 1.06-.86 1.05-.88 1.04-.89 1.04-.9 1.04-.92 1.03-.92 1.03-.94 1.02-.96 1.02-.96 1.01-.98 1.01-.99 1.01-1 1-1.02.99-1.03.99-1.04.99-1.05.98-1.07.98-1.08.97-1.09.97-1.1.96-1.12.96-1.12.95-1.15.95-1.15.95-1.17.94-1.17.93-1.19.93-1.21.93-1.21.92-1.23.92-1.24.91-1.26.91-1.26.9-1.28.9-1.29.89-1.31.89-1.31.88-1.33.88-1.34.88-1.36.87-1.37.87-1.37.86-1.4.85-1.4.86-1.42.84-1.43.85-1.44.84-1.45.83-1.47.83-1.48.82-1.49.82-1.5.82-1.52.81-1.53.81-1.54.8-1.56.79-1.56.8-1.58.78-1.6.79-1.6.77-1.62" style="stroke-width:1.07;stroke:#000000;stroke-opacity:0.10;stroke-linecap:butt"/><path d="m139.78 456.37 1.08-.8 1.08-.81 1.08-.8 1.07-.81 1.08-.82 1.07-.82 1.07-.82 1.07-.83 1.07-.83 1.06-.84 1.07-.84 1.06-.84 1.06-.85 1.06-.85 1.06-.86 1.06-.86 1.05-.86 1.05-.87 1.06-.88 1.05-.88 1.05-.88 1.04-.88 1.05-.89 1.04-.9 1.05-.9 1.04-.9 1.04-.91 1.04-.91 1.03-.91 1.04-.92 1.03-.93 1.03-.92 1.03-.94 1.03-.93 1.03-.94 1.03-.95 1.02-.95 1.02-.95 1.03-.96 1.02-.96 1.01-.96 1.02-.97 1.02-.98 1.01-.97 1.01-.99 1.01-.98 1.01-.99 1.01-1 1.01-1 1-1 1-1.01 1-1.01 1-1.01 1-1.02 1-1.03.99-1.03 1-1.03.99-1.03.99-1.05.99-1.04.99-1.05.98-1.05.99-1.06.98-1.06.98-1.07.98-1.07.98-1.07.98-1.08.97-1.08.98-1.09.97-1.09.97-1.09.97-1.1.97-1.11.96-1.1.97-1.12.96-1.11.96-1.12.96-1.13.96-1.12.96-1.14.95-1.13.95-1.14.96-1.15.95-1.15.95-1.15.94-1.16.95-1.16.94-1.17.95-1.17.94-1.17.94-1.18.94-1.18.93-1.19.94-1.19.93-1.2.94-1.2.93-1.2.92-1.21m-99.44 99.31.93-1.21.93-1.21.93-1.2.94-1.19.93-1.19.94-1.19.94-1.18.94-1.18.94-1.17.94-1.17.95-1.17.94-1.16.95-1.16.95-1.15.95-1.15.95-1.15.96-1.14.95-1.13.96-1.14.96-1.13.96-1.12.96-1.12.96-1.12.97-1.11.96-1.1.97-1.11.97-1.1.97-1.09.97-1.09.97-1.09.98-1.08.98-1.08.97-1.07.98-1.07.99-1.07.98-1.06.98-1.06.99-1.05.99-1.05.99-1.05.99-1.04.99-1.03.99-1.04 1-1.02.99-1.03 1-1.02 1-1.01 1-1.01 1.01-1.01 1-1 1.01-1 1.01-1 1-.99 1.01-.98 1.02-.99 1.01-.98 1.02-.97 1.01-.97 1.02-.96 1.02-.97 1.02-.95 1.03-.96 1.02-.94 1.03-.95 1.02-.94 1.03-.94 1.03-.93 1.04-.93 1.03-.92 1.03-.92 1.04-.91 1.04-.91 1.04-.91 1.04-.9 1.04-.9 1.05-.9 1.04-.89 1.05-.88 1.05-.89 1.05-.87 1.05-.88 1.06-.87 1.05-.86 1.06-.86 1.06-.86 1.06-.85 1.06-.85 1.06-.85 1.07-.84 1.06-.83 1.07-.83 1.07-.83 1.07-.82 1.07-.82 1.07-.82 1.08-.81 1.08-.81 1.07-.8 1.08-.8" style="stroke-width:1.07;stroke:#000000;stroke-opacity:0.10;stroke-linecap:butt"/><path d="m139.78 456.37.78-1.62.78-1.61.79-1.59.79-1.58.8-1.56.8-1.56.81-1.54.81-1.53.81-1.52.82-1.5.83-1.49.83-1.48.83-1.47.84-1.45.84-1.45.85-1.42.85-1.42.86-1.41.86-1.39.87-1.38.87-1.36.87-1.36.88-1.34.89-1.33.89-1.31.89-1.31.9-1.29.9-1.28.91-1.26.91-1.26.92-1.24.92-1.23.93-1.21.93-1.21.93-1.19.94-1.18.95-1.16.94-1.16.96-1.14.96-1.12.96-1.12.97-1.1.97-1.09.98-1.08.98-1.07.98-1.05.99-1.04 1-1.03 1-1.02 1-1 1.01-.99 1.02-.98 1.01-.96 1.03-.96 1.03-.94 1.03-.92 1.03-.92 1.05-.9 1.04-.89 1.05-.88 1.06-.87 1.06-.85 1.06-.84 1.07-.83 1.07-.81 1.08-.8 1.09-.79 1.08-.78 1.1-.77 1.09-.75 1.1-.74 1.11-.73 1.11-.71 1.12-.7 1.11-.69 1.13-.68 1.13-.66 1.13-.66 1.14-.64 1.14-.62 1.15-.62 1.15-.6 1.16-.59 1.16-.58 1.17-.56 1.17-.55 1.17-.54 1.18-.53 1.19-.51 1.19-.5 1.19-.49 1.2-.48 1.2-.47 1.21-.45 1.21-.44 1.22-.42 1.22-.42 1.22-.4 1.23-.39" style="stroke-width:1.07;stroke:#000000;stroke-opacity:0.10;stroke-linecap:butt"/><path d="m187.51 149.23 6.06 10.5h-12.12zm197.81 298.59 1.91 3.31h-3.83zm-335.9-100.5 1.92 3.32h-3.83z" style="stroke-width:0.71;stroke:none;fill:#00BA38"/><path d="M134.01 462.14h11.55v-11.55h-11.55z" style="stroke-width:0.71;stroke:none;fill:#619CFF"/><circle cx="239.22" cy="357.06" r="6.76" style="stroke-width:0.71;stroke:none;fill:#F8766D"/><path d="m192.1 152.86-3.66 2.68m-43.72 296.19-4.1 3.85m103.51-103.13-4.07 3.83" style="stroke-width:0.53;stroke:#BFBFBF"/><path d="M194.26 156.14h72.07-.09l.35-.02.34-.07.32-.12.31-.18.26-.21.24-.27.18-.29.14-.32.08-.34.03-.34h0v-6.97h0l-.03-.34-.08-.34-.14-.32-.18-.29-.24-.26-.26-.22-.31-.18-.32-.12-.34-.07-.26-.02h-72.07l.26.02-.35-.01-.35.04-.33.1-.31.14-.29.2-.25.24-.21.28-.16.31-.11.33-.06.34v7.14-.18.35l.06.34.11.33.16.31.21.28.25.24.29.2.31.15.33.09.35.05z" style="stroke-width:0.53;fill:#FFFFFF;fill-opacity:0.50"/><text x="230.29" y="152.54" lengthAdjust="spacingAndGlyphs" style="font-size:5.69px;font-family:Arial" text-anchor="middle" textLength="69.19">DMK DEVELOPMENT LLC</text><path d="M306.5 455.67h72.08-.09l.35-.01.34-.07.32-.13.3-.17.27-.22.23-.26.19-.29.13-.32.09-.34.03-.35h0v-6.96h0l-.03-.35-.09-.34-.13-.31-.19-.3-.23-.26-.27-.22-.3-.17-.32-.13-.34-.07-.26-.01H306.5l.26.01-.34-.01-.35.04-.33.1-.32.15-.28.2-.25.24-.21.27-.16.31-.11.33-.06.35-.01.17v6.96l.01-.17v.35l.06.34.11.33.16.31.21.27.25.24.28.2.32.15.33.1.35.04z" style="stroke-width:0.53;fill:#FFFFFF;fill-opacity:0.50"/><text x="342.54" y="452.07" lengthAdjust="spacingAndGlyphs" style="font-size:5.69px;font-family:Arial" text-anchor="middle" textLength="69.19">DMK DEVELOPMNET LLC</text><path d="M56.18 359.27h66.07l-.09-.01.35-.01.34-.07.32-.12.31-.18.26-.22.23-.26.19-.29.14-.32.08-.34.03-.34h0v-15.16h0l-.03-.35-.08-.33-.14-.32-.19-.3-.23-.26-.26-.22-.31-.17-.32-.12-.34-.07-.26-.02H56.18l.26.02-.35-.02-.34.04-.33.1-.32.15-.29.2-.25.24-.2.28-.17.3-.11.33-.05.35-.01.17v15.16l.01-.18v.35l.05.34.11.33.17.31.2.28.25.24.29.2.32.15.33.09.34.04z" style="stroke-width:0.53;fill:#FFFFFF;fill-opacity:0.50"/><text x="89.21" y="347.47" lengthAdjust="spacingAndGlyphs" style="font-size:5.69px;font-family:Arial" text-anchor="middle" textLength="63.19">2820 W KILBOURN AVE</text><text x="89.21" y="355.67" lengthAdjust="spacingAndGlyphs" style="font-size:5.69px;font-family:Arial" text-anchor="middle" textLength="10.43">LLC</text><path d="M122.68 451.73h66.37l-.09-.01.35-.01.34-.07.33-.12.3-.18.27-.22.23-.26.18-.29.14-.32.08-.34.03-.34h0v-15.16h0l-.03-.35-.08-.34-.14-.31-.18-.3-.23-.26-.27-.22-.3-.17-.33-.13-.34-.07-.26-.01h-66.37l.26.01-.35-.01-.34.04-.33.1-.32.15-.28.2-.25.24-.21.27-.17.31-.11.33-.05.35-.01.17v15.16l.01-.18v.35l.05.34.11.33.17.31.21.28.25.24.28.2.32.15.33.09.34.04z" style="stroke-width:0.53;fill:#FFFFFF;fill-opacity:0.50"/><text x="155.87" y="439.93" lengthAdjust="spacingAndGlyphs" style="font-size:5.69px;font-family:Arial" text-anchor="middle" textLength="56.88">3208 MENASHA AVE,</text><text x="155.87" y="448.13" lengthAdjust="spacingAndGlyphs" style="font-size:5.69px;font-family:Arial" text-anchor="middle" textLength="63.49">MANITOWOC, WI 54220</text><path d="M222.08 352.45h66.37-.08l.34-.01.35-.07.32-.12.3-.18.27-.22.23-.26.19-.29.13-.32.09-.34.02-.35h0v-15.15h0l-.02-.35-.09-.34-.13-.32-.19-.29-.23-.26-.27-.22-.3-.17-.32-.13-.35-.07-.26-.01h-66.37l.26.01-.34-.01-.35.04-.33.1-.32.15-.28.19-.25.25-.21.27-.16.31-.11.33-.06.34-.01.18v15.15l.01-.17v.35l.06.34.11.33.16.31.21.28.25.24.28.2.32.14.33.1.35.04z" style="stroke-width:0.53;fill:#FFFFFF;fill-opacity:0.50"/><text x="255.27" y="340.66" lengthAdjust="spacingAndGlyphs" style="font-size:5.69px;font-family:Arial" text-anchor="middle" textLength="56.88">3208 MENASHA AVE,</text><text x="255.27" y="348.85" lengthAdjust="spacingAndGlyphs" style="font-size:5.69px;font-family:Arial" text-anchor="middle" textLength="63.49">MANITOWOC, WI 54220</text></g><g clip-path="url(#cpMC4wMHw0MzIuMDB8MC4wMHw1MDQuMDA=)"><circle cx="124.98" cy="116.15" r="1.95" style="stroke-width:0.71;stroke:none;fill:#F8766D"/><path d="m201.33 113.11 2.63 4.56h-5.26z" style="stroke-width:0.71;stroke:none;fill:#00BA38"/><path d="M267.31 118.1h3.91v-3.91h-3.91z" style="stroke-width:0.71;stroke:none;fill:#619CFF"/><text x="139.09" y="119.3" lengthAdjust="spacingAndGlyphs" style="font-size:8.80px;font-family:Arial Narrow" textLength="48.12">mprop address</text><text x="215.45" y="119.3" lengthAdjust="spacingAndGlyphs" style="font-size:8.80px;font-family:Arial Narrow" textLength="39.69">owner name</text><text x="283.38" y="119.3" lengthAdjust="spacingAndGlyphs" style="font-size:8.80px;font-family:Arial Narrow" textLength="40.5">wdfi address</text><text x="32.63" y="84.56" lengthAdjust="spacingAndGlyphs" style="font-size:12.00px;font-family:Arial Narrow" textLength="246.76">includes 4 parcels, 60 units, and 3 distinct owner names.</text><text x="32.63" y="42.78" lengthAdjust="spacingAndGlyphs" style="font-size:18.00px;font-weight:bold;font-family:Arial Narrow" textLength="333.72">DMK DEVELOPMENT LLC -- 2820 W KILBOURN</text><text x="32.63" y="62.22" lengthAdjust="spacingAndGlyphs" style="font-size:18.00px;font-weight:bold;font-family:Arial Narrow" textLength="311.28">AVE LLC -- DMK DEVELOPMNET LLC Group</text></g></svg>