<svg xmlns="http://www.w3.org/2000/svg" width="768" height="768" class="svglite" viewBox="0 0 576 576"><defs><style>.svglite circle,.svglite line,.svglite polygon,.svglite polyline,.svglite rect{fill:none;stroke:#000;stroke-linecap:round;stroke-linejoin:round;stroke-miterlimit:10}.svglite text{white-space:pre}</style></defs><rect width="100%" height="100%" style="stroke:none;fill:#fff"/><defs><clipPath id="cpMC4wMHw1NzYuMDB8MC4wMHw1NzYuMDA="><path d="M0 0h576v576H0z"/></clipPath></defs><g clip-path="url(#cpMC4wMHw1NzYuMDB8MC4wMHw1NzYuMDA=)"><path d="M0 0h576v576H0z" style="stroke-width:1.07;stroke:none;fill:#fff"/></g><defs><clipPath id="cpMzIuNjN8NTQ2LjExfDEyMC44Nnw1NDMuMzc="><path d="M32.63 120.86h513.48v422.51H32.63z"/></clipPath></defs><g clip-path="url(#cpMzIuNjN8NTQ2LjExfDEyMC44Nnw1NDMuMzc=)"><path d="m350.71 462.45-.54-1.77-.55-1.77-.55-1.76-.55-1.75-.57-1.75-.56-1.74-.58-1.73-.58-1.72-.58-1.72-.59-1.71-.6-1.7-.6-1.7-.61-1.69-.61-1.69-.62-1.67-.62-1.67-.64-1.67-.63-1.65-.64-1.65-.65-1.64-.65-1.64-.66-1.63-.67-1.62-.67-1.61-.67-1.61-.69-1.6-.68-1.6-.7-1.58-.69-1.58-.71-1.58-.71-1.56-.72-1.56-.72-1.56-.72-1.54-.74-1.54-.74-1.53-.74-1.53-.75-1.52-.76-1.51-.76-1.5-.76-1.5-.78-1.49-.78-1.49-.78-1.48-.79-1.47-.8-1.46-.8-1.46-.8-1.45-.82-1.44-.81-1.43-.83-1.43-.83-1.43-.83-1.41-.84-1.41-.85-1.4-.85-1.4-.86-1.38-.87-1.38-.87-1.38-.87-1.37-.88-1.36-.89-1.35-.89-1.35-.9-1.34-.9-1.33-.91-1.32-.92-1.32-.92-1.32-.92-1.3-.94-1.3-.93-1.29-.95-1.29-.95-1.27-.95-1.27-.96-1.27-.97-1.26-.97-1.25-.98-1.24-.98-1.24-.99-1.23-1-1.22-1-1.21-1-1.21-1.01-1.21-1.02-1.19-1.03-1.19-1.02-1.18-1.04-1.18-1.04-1.16-1.05-1.16-1.05-1.16-1.05-1.15-1.07-1.14-1.07-1.13-1.07-1.13-1.08-1.12-1.09-1.11-1.09-1.1-1.1-1.1M350.71 462.45l-.87.11-.87.11-.86.12-.87.12-.86.13-.86.14-.86.15-.86.15-.85.16-.85.16-.86.18-.85.18-.85.18-.84.19-.85.2-.84.21-.84.21-.84.21-.84.23-.84.23-.83.24-.84.24-.83.25-.83.26-.83.27-.82.27-.83.27-.82.29-.82.29-.82.3-.82.3-.82.31-.81.32-.81.32-.81.33-.81.34-.81.34-.81.35-.8.36-.8.36-.8.37-.8.38-.8.38-.8.39-.79.4-.79.4-.79.41-.79.42-.79.42-.79.43-.78.43-.78.45-.78.45-.78.45-.78.46-.77.47-.78.48-.77.48-.77.49-.77.5-.77.5-.76.51-.76.51-.77.52-.76.53-.75.54-.76.54-.76.55-.75.55-.75.56-.75.57-.75.57-.75.59-.74.58-.74.6-.74.6-.74.61-.74.61-.74.62-.73.63-.74.63-.73.64-.73.65-.72.65-.73.67-.72.66-.73.68-.72.68-.72.68-.72.7-.71.7-.72.7-.71.72-.71.72-.71.72-.7.74-.71.74-.7.74-.71.75" style="stroke-width:1.07;stroke:#000;stroke-opacity:.1;stroke-linecap:butt"/><path d="m350.71 462.45-.59-1.72-.59-1.71-.59-1.7-.6-1.7-.61-1.7-.61-1.69-.61-1.68-.62-1.67-.63-1.68-.62-1.66-.64-1.66-.64-1.65-.64-1.65-.65-1.64-.65-1.64-.65-1.63-.67-1.63-.66-1.62-.67-1.61-.68-1.61-.68-1.6-.69-1.6-.69-1.59-.69-1.58-.7-1.58-.71-1.57-.71-1.57-.71-1.56-.72-1.56-.72-1.55-.73-1.55-.73-1.54-.74-1.53-.74-1.53-.75-1.52-.75-1.51-.76-1.52-.76-1.5-.77-1.5-.77-1.49-.77-1.49-.78-1.48-.79-1.48-.79-1.47-.79-1.46-.8-1.46-.81-1.46-.8-1.44-.82-1.44-.82-1.44-.82-1.43-.83-1.42-.83-1.42-.84-1.42-.84-1.4-.85-1.41-.85-1.39-.85-1.39-.86-1.39-.87-1.37-.87-1.38-.88-1.36-.88-1.37-.88-1.35-.89-1.35-.89-1.35-.9-1.34-.91-1.33-.91-1.32-.91-1.33-.92-1.31-.92-1.31-.93-1.31-.93-1.29-.94-1.3-.94-1.28-.94-1.29-.96-1.27-.95-1.27-.96-1.26-.97-1.26-.97-1.26-.97-1.24-.98-1.24-.99-1.24-.99-1.23-.99-1.22-1-1.22-1-1.21-1.01-1.21-1.01-1.2-1.02-1.2-1.02-1.19-1.03-1.18-1.03-1.18-1.04-1.17-1.04-1.17-1.04-1.16-1.06-1.15M350.71 462.45l-.86.16-.85.16-.85.18-.85.17-.85.18-.85.19-.85.19-.84.2-.85.21-.84.2-.84.22-.84.22-.84.23-.83.23-.84.23-.83.25-.84.24-.83.26-.83.26-.82.26-.83.27-.83.27-.82.29-.82.28-.82.29-.82.3-.82.3-.82.31-.81.32-.82.32-.81.32-.81.33-.81.34-.81.34-.81.34-.8.36-.81.35-.8.37-.8.37-.8.37-.8.38-.79.39-.8.39-.79.39-.8.41-.79.4-.79.42-.79.41-.78.43-.79.43-.78.43-.79.44-.78.45-.78.45-.78.46-.77.46-.78.47-.77.47-.78.48-.77.48-.77.49-.77.5-.76.5-.77.51-.76.51-.77.51-.76.53-.76.53-.76.53-.75.54-.76.54-.75.55-.76.56-.75.56-.75.57-.75.57-.74.58-.75.58-.74.59-.75.6-.74.6-.74.6-.74.61-.74.62-.73.62-.74.63-.73.63-.73.64-.73.64-.73.65-.73.66-.72.66-.73.66-.72.67-.72.68-.72.68-.72.69-.72.7-.72.69M320.83 151.54l-.52 1.71-.52 1.7-.51 1.71-.52 1.7-.52 1.71-.51 1.7-.52 1.71-.51 1.7-.52 1.7-.52 1.71-.51 1.7-.52 1.71-.52 1.7-.51 1.71-.52 1.7-.52 1.71-.51 1.7-.52 1.7-.52 1.71-.51 1.7-.52 1.71-.52 1.7-.51 1.71-.52 1.7-.52 1.71-.51 1.7-.52 1.7-.51 1.71-.52 1.7-.52 1.71-.51 1.7-.52 1.71-.52 1.7-.51 1.71-.52 1.7-.52 1.71-.51 1.7-.52 1.7-.52 1.71-.51 1.7-.52 1.71-.52 1.7-.51 1.71-.52 1.7-.52 1.71-.51 1.7-.52 1.7-.51 1.71-.52 1.7-.52 1.71-.51 1.7-.52 1.71-.52 1.7-.51 1.71-.52 1.7-.52 1.7-.51 1.71-.52 1.7-.52 1.71-.51 1.7-.52 1.71-.52 1.7-.51 1.71-.52 1.7-.51 1.71-.52 1.7-.52 1.7-.51 1.71-.52 1.7-.52 1.71-.51 1.7-.52 1.71-.52 1.7-.51 1.71-.52 1.7-.52 1.7-.51 1.71-.52 1.7-.52 1.71-.51 1.7-.52 1.71-.52 1.7-.51 1.71-.52 1.7-.51 1.7-.52 1.71-.52 1.7-.51 1.71-.52 1.7-.52 1.71-.51 1.7-.52 1.71-.52 1.7-.51 1.7-.52 1.71-.52 1.7-.51 1.71-.52 1.7-.52 1.71" style="stroke-width:1.07;stroke:#000;stroke-opacity:.1;stroke-linecap:butt"/><path d="m350.71 462.45-.63-1.66-.64-1.66-.64-1.65-.64-1.65-.65-1.64-.65-1.64-.66-1.63-.66-1.63-.66-1.62-.67-1.62-.67-1.62-.67-1.61-.68-1.6-.68-1.6-.69-1.6-.68-1.59-.7-1.59-.69-1.58-.71-1.58-.7-1.57-.71-1.57-.71-1.57-.72-1.56-.72-1.55-.72-1.55-.73-1.55-.73-1.54-.73-1.54-.74-1.53-.74-1.53-.75-1.52-.75-1.52-.75-1.51-.76-1.51-.76-1.5-.77-1.51-.77-1.49-.77-1.49-.78-1.49-.78-1.48-.78-1.48-.79-1.47-.79-1.47-.8-1.46-.8-1.46-.8-1.45-.81-1.45-.81-1.45-.81-1.44-.82-1.44-.82-1.43-.83-1.42-.83-1.43-.83-1.41-.84-1.42-.84-1.41-.84-1.4-.85-1.4-.85-1.39-.86-1.39-.86-1.39-.86-1.38-.87-1.38-.87-1.37-.88-1.37-.88-1.36-.88-1.36-.89-1.35-.89-1.35-.89-1.34-.9-1.34-.9-1.34-.91-1.33-.91-1.32-.91-1.33-.92-1.31-.92-1.31-.92-1.31-.93-1.31-.93-1.29-.94-1.3-.94-1.29-.94-1.28-.95-1.28-.95-1.28-.96-1.27-.95-1.26-.97-1.27-.96-1.25-.97-1.26-.98-1.24-.98-1.25-.98-1.24-.98-1.23-.99-1.23-.99-1.23-1-1.22-1-1.21-1.01-1.21M350.71 462.45l-.84.21-.84.22-.84.22-.84.23-.84.23-.83.24-.84.24-.83.24-.83.25-.83.25-.83.26-.83.26-.83.27-.83.27-.82.28-.82.28-.83.28-.82.29-.82.29-.82.3-.82.3-.82.31-.81.31-.82.31-.81.32-.81.33-.82.32-.81.34-.81.33-.8.34-.81.35-.81.35-.8.35-.81.36-.8.37-.8.36-.8.38-.8.37-.8.38-.79.39-.8.39-.8.39-.79.4-.79.4-.79.41-.79.41-.79.42-.79.42-.79.43-.78.42-.79.44-.78.44-.78.44-.78.45-.78.45-.78.45-.78.46-.78.47-.77.47-.78.47-.77.48-.77.48-.77.49-.77.49-.77.49-.77.5-.76.51-.77.51-.76.51-.77.52-.76.52-.76.52-.76.53-.76.54-.75.54-.76.54-.75.55-.76.55-.75.56-.75.56-.75.57-.75.57-.75.57-.75.58-.74.58-.75.59-.74.59-.74.6-.75.6-.74.61-.73.61-.74.61-.74.62-.73.62-.74.63-.73.63-.74.64-.73.64-.73.64M402.76 292.32l-1.35.28-1.34.28-1.34.28-1.35.29-1.34.28-1.35.28-1.34.28-1.34.29-1.35.28-1.34.28-1.35.28-1.34.29-1.34.28-1.35.28-1.34.28-1.35.29-1.34.28-1.34.28-1.35.28-1.34.29-1.35.28-1.34.28-1.35.28-1.34.29-1.34.28-1.35.28-1.34.28-1.35.29-1.34.28-1.34.28-1.35.28-1.34.29-1.35.28-1.34.28-1.34.28-1.35.29-1.34.28-1.35.28-1.34.28-1.34.29-1.35.28-1.34.28-1.35.28-1.34.29-1.35.28-1.34.28-1.34.29-1.35.28-1.34.28-1.35.28-1.34.29-1.34.28-1.35.28-1.34.28-1.35.29-1.34.28-1.34.28-1.35.28-1.34.29-1.35.28-1.34.28-1.34.28-1.35.29-1.34.28-1.35.28-1.34.28-1.34.29-1.35.28-1.34.28-1.35.28-1.34.29-1.35.28-1.34.28-1.34.28-1.35.29-1.34.28-1.35.28-1.34.28-1.34.29-1.35.28-1.34.28-1.35.28-1.34.29-1.34.28-1.35.28-1.34.28-1.35.29-1.34.28-1.34.28-1.35.28-1.34.29-1.35.28-1.34.28-1.35.28-1.34.29-1.34.28-1.35.28-1.34.28-1.35.29M223.24 140.07l.44 1.83.44 1.84.44 1.84.44 1.83.44 1.84.44 1.83.45 1.84.44 1.83.45 1.83.44 1.84.45 1.83.44 1.83.45 1.84.45 1.83.45 1.83.45 1.83.44 1.83.45 1.83.46 1.84.45 1.83.45 1.83.45 1.82.45 1.83.46 1.83.45 1.83.46 1.83.45 1.83.46 1.83.45 1.82.46 1.83.46 1.83.46 1.82.46 1.83.46 1.82.46 1.83.46 1.82.46 1.83.46 1.82.46 1.83.47 1.82.46 1.82.47 1.83.46 1.82.47 1.82.46 1.82.47 1.83.47 1.82.47 1.82.46 1.82.47 1.82.47 1.82.47 1.82.47 1.82.48 1.82.47 1.82.47 1.82.47 1.81.48 1.82.47 1.82.48 1.82.47 1.81.48 1.82.48 1.82.48 1.81.47 1.82.48 1.81.48 1.82.48 1.81.48 1.82.49 1.81.48 1.81.48 1.82.48 1.81.49 1.81.48 1.81.49 1.82.48 1.81.49 1.81.48 1.81.49 1.81.49 1.81.49 1.81.49 1.81.49 1.81.49 1.81.49 1.81.49 1.8.49 1.81.49 1.81.5 1.81.49 1.8.5 1.81.49 1.81.5 1.8.49 1.81.5 1.8.5 1.81.5 1.8.49 1.81" style="stroke-width:1.07;stroke:#000;stroke-opacity:.1;stroke-linecap:butt"/><path d="m350.71 462.45-.68-1.6-.68-1.61-.69-1.59-.68-1.6-.69-1.59-.7-1.59-.69-1.58-.7-1.58-.7-1.58-.71-1.57-.71-1.57-.71-1.57-.71-1.56-.71-1.56-.72-1.56-.72-1.55-.73-1.55-.73-1.54-.73-1.55-.73-1.54-.74-1.53-.73-1.53-.75-1.53-.74-1.53-.75-1.52-.75-1.52-.75-1.51-.76-1.52-.75-1.5-.77-1.51-.76-1.5-.77-1.5-.77-1.49-.77-1.49-.77-1.49-.78-1.49-.78-1.48-.79-1.47-.79-1.48-.79-1.47-.79-1.46-.79-1.47-.8-1.46-.8-1.45-.81-1.46-.8-1.45-.81-1.44-.82-1.45-.81-1.44-.82-1.43-.82-1.43-.83-1.43-.82-1.43-.83-1.42-.84-1.42-.83-1.42-.84-1.41-.84-1.41-.84-1.4-.85-1.4-.85-1.4-.85-1.4-.86-1.39-.86-1.38-.86-1.39-.86-1.38-.87-1.38-.87-1.37-.87-1.37-.88-1.37-.87-1.36-.88-1.36-.89-1.36-.88-1.35-.89-1.35-.9-1.35-.89-1.34-.9-1.34-.9-1.34-.9-1.33-.91-1.33-.91-1.33-.91-1.32-.92-1.32-.92-1.32-.92-1.31-.92-1.31-.93-1.3-.93-1.3-.93-1.3-.93-1.3-.94-1.29-.94-1.29-.94-1.28-.95-1.28-.95-1.28-.95-1.27-.96-1.28-.96-1.26M350.71 462.45l-.83.27-.83.27-.82.27-.83.28-.82.28-.82.28-.82.29-.83.29-.82.3-.82.29-.82.3-.81.31-.82.31-.82.31-.81.31-.82.32-.81.32-.81.32-.81.33-.82.33-.81.33-.81.34-.8.34-.81.34-.81.35-.8.35-.81.35-.8.36-.81.36-.8.36-.8.37-.8.37-.8.37-.8.38-.8.38-.8.38-.79.39-.8.39-.8.39-.79.4-.79.4-.8.4-.79.41-.79.41-.79.41-.79.42-.78.41-.79.43-.79.42-.78.43-.79.44-.78.43-.79.44-.78.44-.78.45-.78.45-.78.45-.78.46-.78.46-.77.46-.78.46-.78.47-.77.47-.77.48-.78.48-.77.48-.77.49-.77.49-.77.49-.77.49-.77.5-.76.5-.77.51-.76.51-.77.51-.76.51-.76.52-.77.52-.76.53-.76.53-.76.53-.75.53-.76.54-.76.54-.75.55-.76.55-.75.55-.76.55-.75.56-.75.56-.75.57-.75.57-.75.57-.75.57-.75.58-.74.58-.75.59-.74.58-.75.59" style="stroke-width:1.07;stroke:#000;stroke-opacity:.1;stroke-linecap:butt"/><path d="m350.71 462.45-.73-1.55-.72-1.54-.73-1.55-.73-1.54-.74-1.54-.73-1.54-.74-1.53-.74-1.53-.74-1.53-.74-1.53-.74-1.53-.75-1.52-.75-1.52-.75-1.52-.75-1.51-.75-1.52-.76-1.51-.76-1.51-.76-1.51-.76-1.5-.76-1.5-.77-1.5-.76-1.5-.77-1.5-.77-1.49-.78-1.49-.77-1.49-.78-1.49-.78-1.48-.78-1.48-.78-1.48-.78-1.48-.79-1.47-.79-1.48-.79-1.47-.79-1.47-.79-1.46-.8-1.46-.8-1.47-.8-1.45-.8-1.46-.8-1.46-.8-1.45-.81-1.45-.81-1.44-.81-1.45-.81-1.44-.82-1.44-.81-1.44-.82-1.44-.82-1.43-.83-1.43-.82-1.43-.83-1.43-.82-1.42-.83-1.43-.83-1.42-.84-1.41-.83-1.42-.84-1.41-.84-1.41-.84-1.41-.84-1.41-.85-1.4-.85-1.4-.84-1.4-.85-1.4-.86-1.39-.85-1.4-.86-1.39-.86-1.38-.86-1.39-.86-1.38-.86-1.38-.87-1.38-.87-1.38-.87-1.37-.87-1.37-.87-1.37-.88-1.37-.87-1.37-.88-1.36-.88-1.36-.89-1.36-.88-1.35-.89-1.36-.89-1.35-.89-1.35-.89-1.34-.89-1.35-.9-1.34-.9-1.34-.9-1.34-.9-1.33-.9-1.33-.91-1.33-.9-1.33-.91-1.33-.92-1.32M350.71 462.45l-.81.32-.82.32-.81.33-.81.33-.81.33-.81.33-.81.34-.81.33-.81.34-.81.34-.81.35-.8.34-.81.35-.81.35-.8.35-.81.36-.8.35-.81.36-.8.36-.8.37-.8.36-.81.37-.8.37-.8.37-.8.38-.8.37-.79.38-.8.38-.8.39-.8.38-.79.39-.8.39-.79.39-.8.4-.79.39-.8.4-.79.4-.79.4-.79.41-.8.41-.79.41-.79.41-.79.41-.78.42-.79.42-.79.42-.79.42-.78.42-.79.43-.79.43-.78.43-.79.44-.78.43-.78.44-.79.44-.78.44-.78.45-.78.44-.78.45-.78.46-.78.45-.78.45-.78.46-.78.46-.77.46-.78.47-.78.47-.77.47-.78.47-.77.47-.77.48-.78.47-.77.48-.77.49-.77.48-.77.49-.77.48-.77.5-.77.49-.77.49-.77.5-.77.5-.76.5-.77.51-.77.5-.76.51-.77.51-.76.52-.76.51-.77.52-.76.52-.76.52-.76.52-.76.53-.76.53-.76.53-.76.53-.76.54-.76.53M156.85 426.71l1.18-1 1.17-1 1.18-1 1.17-1 1.17-1 1.17-1.01 1.17-1 1.17-1.01 1.17-1.01 1.17-1.01 1.17-1.02 1.16-1.01 1.17-1.02 1.16-1.01 1.17-1.02 1.16-1.02 1.17-1.03 1.16-1.02 1.16-1.02 1.16-1.03 1.16-1.03 1.16-1.03 1.16-1.03 1.16-1.04 1.16-1.03 1.15-1.04 1.16-1.04 1.15-1.04 1.16-1.04 1.15-1.04 1.16-1.04 1.15-1.05 1.15-1.05 1.15-1.05 1.15-1.05 1.15-1.05 1.15-1.06 1.15-1.05 1.15-1.06 1.14-1.06 1.15-1.06 1.15-1.06 1.14-1.06 1.14-1.07 1.15-1.07 1.14-1.07 1.14-1.07 1.14-1.07 1.14-1.07 1.14-1.08 1.14-1.07 1.14-1.08 1.14-1.08 1.14-1.08 1.13-1.08 1.14-1.09 1.13-1.08 1.14-1.09 1.13-1.09 1.13-1.09 1.13-1.09 1.14-1.1 1.13-1.09 1.13-1.1 1.13-1.1 1.12-1.1 1.13-1.1 1.13-1.11 1.13-1.1 1.12-1.11 1.13-1.11 1.12-1.11 1.12-1.11 1.13-1.11 1.12-1.12 1.12-1.11 1.12-1.12 1.12-1.12 1.12-1.12 1.12-1.13 1.12-1.12 1.11-1.13 1.12-1.12 1.11-1.13 1.12-1.13 1.11-1.14 1.12-1.13 1.11-1.14 1.11-1.13 1.11-1.14 1.11-1.14 1.11-1.14 1.11-1.15 1.11-1.14 1.11-1.15 1.11-1.15 1.1-1.15 1.11-1.15 1.1-1.15" style="stroke-width:1.07;stroke:#000;stroke-opacity:.1;stroke-linecap:butt"/><path d="m350.71 462.45-.77-1.49-.78-1.49-.77-1.49-.77-1.49-.78-1.49-.78-1.49-.77-1.48-.78-1.49-.78-1.48-.78-1.48-.78-1.48-.79-1.48-.78-1.48-.78-1.48-.79-1.47-.78-1.48-.79-1.47-.79-1.47-.79-1.48-.79-1.47-.79-1.46-.79-1.47-.79-1.47-.8-1.47-.79-1.46-.8-1.46-.79-1.47-.8-1.46-.8-1.46-.8-1.46-.8-1.45-.8-1.46-.8-1.46-.81-1.45-.8-1.45-.81-1.46-.8-1.45-.81-1.45-.81-1.44-.8-1.45-.81-1.45-.82-1.44-.81-1.45-.81-1.44-.81-1.44-.82-1.44-.81-1.44-.82-1.44-.82-1.44-.82-1.43-.81-1.44-.82-1.43-.83-1.43-.82-1.44-.82-1.43-.83-1.43-.82-1.42-.83-1.43-.82-1.43-.83-1.42-.83-1.42-.83-1.43-.83-1.42-.83-1.42-.83-1.42-.84-1.41-.83-1.42-.84-1.42-.83-1.41-.84-1.41-.84-1.41-.84-1.42-.84-1.4-.84-1.41-.84-1.41-.84-1.41-.85-1.4-.84-1.41-.85-1.4-.85-1.4-.84-1.4-.85-1.4-.85-1.4-.85-1.4-.85-1.39-.86-1.4-.85-1.39-.85-1.39-.86-1.39-.86-1.39-.85-1.39-.86-1.39-.86-1.39-.86-1.38-.86-1.39-.86-1.38-.87-1.38-.86-1.38-.87-1.38M350.71 462.45l-.8.37-.8.38-.8.38-.8.38-.8.38-.79.38-.8.38-.8.38-.8.39-.79.38-.8.39-.8.39-.79.39-.8.39-.79.39-.8.39-.79.39-.8.4-.79.39-.8.4-.79.39-.8.4-.79.4-.79.4-.79.41-.8.4-.79.4-.79.41-.79.4-.79.41-.79.41-.79.41-.8.41-.79.41-.79.41-.78.42-.79.41-.79.42-.79.42-.79.41-.79.42-.79.42-.78.43-.79.42-.79.42-.79.43-.78.42-.79.43-.78.43-.79.43-.78.43-.79.43-.78.43-.79.44-.78.43-.79.44-.78.43-.78.44-.79.44-.78.44-.78.44-.78.45-.79.44-.78.45-.78.44-.78.45-.78.45-.78.44-.78.46-.78.45-.78.45-.78.45-.78.46-.78.45-.78.46-.78.46-.77.46-.78.46-.78.46-.78.46-.77.46-.78.47-.77.46-.78.47-.78.47-.77.47-.78.47-.77.47-.78.47-.77.47-.77.48-.78.47-.77.48-.77.48-.78.48-.77.48-.77.48-.77.48-.78.48" style="stroke-width:1.07;stroke:#000;stroke-opacity:.1;stroke-linecap:butt"/><path d="m350.71 462.45-.82-1.44-.82-1.43-.82-1.44-.81-1.43-.82-1.44-.82-1.44-.82-1.43-.82-1.44-.82-1.43-.81-1.44-.82-1.44-.82-1.43-.82-1.44-.82-1.43-.82-1.44-.81-1.44-.82-1.43-.82-1.44-.82-1.43-.82-1.44-.82-1.44-.81-1.43-.82-1.44-.82-1.43-.82-1.44-.82-1.44-.82-1.43-.81-1.44-.82-1.43-.82-1.44-.82-1.44-.82-1.43-.82-1.44-.81-1.43-.82-1.44-.82-1.44-.82-1.43-.82-1.44-.82-1.43-.81-1.44-.82-1.44-.82-1.43-.82-1.44-.82-1.43-.82-1.44-.81-1.44-.82-1.43-.82-1.44-.82-1.43-.82-1.44-.82-1.44-.81-1.43-.82-1.44-.82-1.43-.82-1.44-.82-1.44-.82-1.43-.81-1.44-.82-1.43-.82-1.44-.82-1.44-.82-1.43-.82-1.44-.81-1.43-.82-1.44-.82-1.44-.82-1.43-.82-1.44-.82-1.43-.81-1.44-.82-1.44-.82-1.43-.82-1.44-.82-1.43-.82-1.44-.81-1.44-.82-1.43-.82-1.44-.82-1.43-.82-1.44-.82-1.44-.81-1.43-.82-1.44-.82-1.43-.82-1.44-.82-1.43-.82-1.44-.81-1.44-.82-1.43-.82-1.44-.82-1.43-.82-1.44-.82-1.44-.81-1.43-.82-1.44-.82-1.43-.82-1.44-.82-1.44-.82-1.43M350.71 462.45l-.79.43-.78.43-.79.43-.78.43-.79.43-.79.43-.78.42-.79.43-.78.43-.79.43-.78.43-.79.43-.78.43-.79.43-.79.43-.78.43-.79.43-.78.43-.79.43-.78.43-.79.43-.78.43-.79.42-.79.43-.78.43-.79.43-.78.43-.79.43-.78.43-.79.43-.79.43-.78.43-.79.43-.78.43-.79.43-.78.43-.79.43-.78.42-.79.43-.79.43-.78.43-.79.43-.78.43-.79.43-.78.43-.79.43-.78.43-.79.43-.79.43-.78.43-.79.43-.78.43-.79.42-.78.43-.79.43-.79.43-.78.43-.79.43-.78.43-.79.43-.78.43-.79.43-.78.43-.79.43-.79.43-.78.43-.79.43-.78.42-.79.43-.78.43-.79.43-.78.43-.79.43-.79.43-.78.43-.79.43-.78.43-.79.43-.78.43-.79.43-.79.43-.78.43-.79.42-.78.43-.79.43-.78.43-.79.43-.78.43-.79.43-.79.43-.78.43-.79.43-.78.43-.79.43-.78.43-.79.43-.79.43-.78.43-.79.42M156.85 426.71l-1.02.98-1.01.98-1.02.99-1.02.98-1.02.99-1.02.98-1.02.99-1.02.98-1.02.99-1.02.98-1.02.98-1.02.99-1.01.98-1.02.99-1.02.98-1.02.99-1.02.98-1.02.99-1.02.98-1.02.98-1.02.99-1.02.98-1.01.99-1.02.98-1.02.99-1.02.98-1.02.99-1.02.98-1.02.99-1.02.98-1.02.98-1.02.99-1.02.98-1.01.99-1.02.98-1.02.99-1.02.98-1.02.99-1.02.98-1.02.98-1.02.99-1.02.98-1.02.99-1.01.98-1.02.99-1.02.98-1.02.99-1.02.98-1.02.98-1.02.99-1.02.98-1.02.99-1.02.98-1.02.99-1.01.98-1.02.99-1.02.98-1.02.98-1.02.99-1.02.98-1.02.99-1.02.98-1.02.99-1.02.98-1.01.99-1.02.98-1.02.98-1.02.99-1.02.98-1.02.99-1.02.98-1.02.99-1.02.98-1.02.99-1.02.98-1.01.98-1.02.99-1.02.98-1.02.99-1.02.98-1.02.99-1.02.98-1.02.99-1.02.98-1.02.98-1.01.99-1.02.98-1.02.99-1.02.98-1.02.99-1.02.98-1.02.99-1.02.98-1.02.99-1.02.98-1.02.98-1.01.99-1.02.98-1.02.99" style="stroke-width:1.07;stroke:#000;stroke-opacity:.1;stroke-linecap:butt"/><path d="m350.71 462.45-.87-1.38-.86-1.38-.86-1.38-.87-1.39-.86-1.38-.86-1.39-.86-1.38-.85-1.39-.86-1.39-.86-1.39-.85-1.39-.86-1.39-.85-1.4-.85-1.39-.85-1.4-.85-1.4-.85-1.39-.85-1.4-.85-1.4-.85-1.4-.84-1.41-.85-1.4-.84-1.41-.85-1.4-.84-1.41-.84-1.41-.84-1.41-.84-1.41-.84-1.41-.83-1.41-.84-1.42-.83-1.41-.84-1.42-.83-1.42-.84-1.42-.83-1.42-.83-1.42-.83-1.42-.83-1.42-.82-1.43-.83-1.42-.83-1.43-.82-1.43-.83-1.43-.82-1.43-.82-1.43-.82-1.43-.82-1.43-.82-1.44-.82-1.44-.82-1.43-.81-1.44-.82-1.44-.81-1.44-.82-1.44-.81-1.45-.81-1.44-.81-1.44-.81-1.45-.81-1.45-.81-1.45-.81-1.45-.8-1.45-.81-1.45-.8-1.45-.8-1.46-.81-1.45-.8-1.46-.8-1.46-.8-1.46-.8-1.46-.79-1.46-.8-1.46-.79-1.46-.8-1.47-.79-1.46-.8-1.47-.79-1.47-.79-1.47-.79-1.47-.79-1.47-.79-1.47-.78-1.48-.79-1.47-.78-1.48-.79-1.47-.78-1.48-.78-1.48-.78-1.48-.78-1.48-.78-1.49-.78-1.48-.78-1.49-.78-1.48-.77-1.49-.78-1.49-.77-1.49-.77-1.49-.78-1.49M350.71 462.45l-.77.48-.78.48-.77.49-.77.48-.77.47-.78.48-.77.48-.77.47-.78.48-.77.47-.78.47-.77.48-.78.47-.77.47-.78.46-.77.47-.78.47-.78.46-.77.46-.78.47-.78.46-.77.46-.78.46-.78.45-.78.46-.78.46-.78.45-.78.45-.78.46-.78.45-.78.45-.78.45-.78.45-.78.44-.78.45-.78.44-.78.45-.79.44-.78.44-.78.44-.78.44-.79.44-.78.44-.78.43-.79.44-.78.43-.79.43-.78.43-.79.44-.78.42-.79.43-.79.43-.78.43-.79.42-.79.42-.78.43-.79.42-.79.42-.79.42-.79.42-.78.41-.79.42-.79.42-.79.41-.79.41-.79.41-.79.42-.79.4-.79.41-.8.41-.79.41-.79.4-.79.41-.79.4-.8.4-.79.4-.79.4-.8.4-.79.4-.79.39-.8.4-.79.39-.8.4-.79.39-.8.39-.79.39-.8.39-.8.38-.79.39-.8.39-.8.38-.8.38-.79.39-.8.38-.8.38-.8.37-.8.38-.8.38-.8.37M156.85 426.71l1.14-1.08 1.14-1.07 1.14-1.08 1.14-1.07 1.14-1.08 1.14-1.07 1.14-1.08 1.14-1.07 1.14-1.08 1.14-1.07 1.14-1.08 1.14-1.07 1.14-1.08 1.14-1.07 1.14-1.08 1.14-1.07 1.14-1.08 1.14-1.07 1.14-1.08 1.14-1.07 1.14-1.08 1.14-1.07 1.14-1.08 1.14-1.07 1.14-1.08 1.14-1.07 1.14-1.08 1.14-1.07 1.14-1.08 1.14-1.07 1.14-1.08 1.14-1.07 1.14-1.08 1.14-1.07 1.14-1.08 1.14-1.07 1.14-1.08 1.14-1.07 1.14-1.08 1.14-1.07 1.14-1.08 1.14-1.07 1.14-1.08 1.14-1.07 1.13-1.08 1.14-1.07 1.14-1.08 1.14-1.07 1.14-1.08 1.14-1.07 1.14-1.08 1.14-1.07 1.14-1.08 1.14-1.07 1.14-1.08 1.14-1.07 1.14-1.08 1.14-1.07 1.14-1.08 1.14-1.07 1.14-1.08 1.14-1.07 1.14-1.08 1.14-1.07 1.14-1.08 1.14-1.07 1.14-1.07 1.14-1.08 1.14-1.07 1.14-1.08 1.14-1.07 1.14-1.08 1.14-1.07 1.14-1.08 1.14-1.07 1.14-1.08 1.14-1.07 1.14-1.08 1.14-1.07 1.14-1.08 1.14-1.07 1.14-1.08 1.14-1.07 1.14-1.08 1.14-1.07 1.14-1.08 1.14-1.07 1.14-1.08 1.14-1.07 1.14-1.08 1.14-1.07 1.14-1.08 1.14-1.07 1.14-1.08 1.14-1.07 1.14-1.08 1.13-1.07 1.14-1.08 1.14-1.07" style="stroke-width:1.07;stroke:#000;stroke-opacity:.1;stroke-linecap:butt"/><path d="m350.71 462.45-.91-1.32-.91-1.33-.91-1.33-.91-1.33-.9-1.33-.9-1.34-.9-1.33-.9-1.34-.89-1.35-.9-1.34-.89-1.35-.89-1.35-.89-1.35-.89-1.35-.88-1.36-.88-1.35-.89-1.36-.87-1.37-.88-1.36-.88-1.37-.87-1.37-.87-1.37-.87-1.37-.87-1.38-.86-1.38-.87-1.38-.86-1.38-.86-1.39-.86-1.39-.86-1.39-.85-1.39-.85-1.39-.85-1.4-.85-1.4-.85-1.4-.84-1.41-.85-1.4-.84-1.41-.84-1.41-.83-1.41-.84-1.42-.83-1.42-.83-1.42-.83-1.42-.83-1.42-.83-1.43-.82-1.43-.82-1.43-.82-1.44-.82-1.43-.82-1.44-.81-1.44-.82-1.44-.81-1.45-.81-1.45-.8-1.45-.81-1.45-.8-1.45-.8-1.46-.8-1.46-.8-1.46-.79-1.46-.8-1.47-.79-1.47-.79-1.47-.79-1.47-.78-1.47-.79-1.48-.78-1.48-.78-1.48-.78-1.49-.78-1.48-.77-1.49-.77-1.49-.77-1.5-.77-1.49-.77-1.5-.76-1.5-.77-1.5-.76-1.51-.76-1.5-.76-1.51-.75-1.51-.76-1.52-.75-1.52-.75-1.51-.75-1.52-.74-1.53-.75-1.52-.74-1.53-.74-1.53-.74-1.53-.73-1.54-.74-1.53-.73-1.54-.73-1.54-.73-1.55-.73-1.54-.73-1.55M350.71 462.45l-.76.54-.76.53-.76.53-.76.54-.76.52-.76.53-.76.52-.76.53-.76.51-.77.52-.76.52-.76.51-.77.51-.76.51-.77.51-.76.5-.77.5-.77.5-.77.5-.77.5-.76.49-.77.49-.77.49-.78.48-.77.49-.77.48-.77.48-.77.48-.78.47-.77.48-.78.47-.77.47-.78.46-.78.47-.77.46-.78.46-.78.46-.78.46-.78.45-.78.45-.78.45-.78.45-.78.44-.78.44-.78.44-.79.44-.78.44-.79.43-.78.43-.79.43-.78.43-.79.42-.79.43-.78.42-.79.42-.79.41-.79.42-.79.41-.79.41-.79.4-.8.41-.79.4-.79.4-.79.4-.8.4-.79.39-.8.39-.79.39-.8.39-.8.39-.8.38-.79.38-.8.38-.8.38-.8.37-.8.37-.8.37-.8.37-.81.37-.8.36-.8.36-.81.36-.8.36-.8.35-.81.35-.81.35-.8.35-.81.35-.81.34-.81.34-.8.34-.81.34-.81.33-.81.33-.82.34-.81.32-.81.33-.81.32-.82.32M156.85 426.71l1.11-1.16 1.1-1.15 1.11-1.15 1.11-1.15 1.11-1.14 1.1-1.15 1.11-1.14 1.11-1.14 1.11-1.15 1.12-1.13 1.11-1.14 1.11-1.14 1.11-1.13 1.12-1.13 1.11-1.13 1.12-1.13 1.12-1.13 1.11-1.13 1.12-1.12 1.12-1.12 1.12-1.13 1.12-1.12 1.12-1.11 1.12-1.12 1.12-1.11 1.12-1.12 1.13-1.11 1.12-1.11 1.13-1.11 1.12-1.1 1.13-1.11 1.13-1.1 1.12-1.11 1.13-1.1 1.13-1.1 1.13-1.09 1.13-1.1 1.13-1.09 1.14-1.09 1.13-1.1 1.13-1.08 1.14-1.09 1.13-1.09 1.14-1.08 1.13-1.09 1.14-1.08 1.14-1.08 1.13-1.08 1.14-1.07 1.14-1.08 1.14-1.07 1.15-1.07 1.14-1.07 1.14-1.07 1.14-1.07 1.15-1.06 1.14-1.07 1.15-1.06 1.14-1.06 1.15-1.06 1.15-1.06 1.15-1.05 1.15-1.06 1.15-1.05 1.15-1.05 1.15-1.05 1.15-1.05 1.15-1.04 1.16-1.05 1.15-1.04 1.15-1.04 1.16-1.04 1.16-1.04 1.15-1.04 1.16-1.03 1.16-1.03 1.16-1.04 1.16-1.03 1.16-1.03 1.16-1.02 1.16-1.03 1.16-1.02 1.17-1.02 1.16-1.02 1.16-1.02 1.17-1.02 1.17-1.02 1.16-1.01 1.17-1.01 1.17-1.01 1.17-1.01 1.17-1.01 1.17-1.01 1.17-1 1.17-1.01 1.17-1 1.18-1 1.17-1 1.17-.99" style="stroke-width:1.07;stroke:#000;stroke-opacity:.1;stroke-linecap:butt"/><path d="m350.71 462.45-.96-1.27-.95-1.27-.96-1.27-.95-1.28-.94-1.28-.95-1.29-.94-1.29-.93-1.29-.94-1.29-.93-1.3-.93-1.3-.93-1.31-.92-1.31-.92-1.31-.92-1.31-.91-1.32-.92-1.33-.91-1.32-.9-1.33-.91-1.33-.9-1.34-.9-1.34-.89-1.34-.89-1.35-.89-1.35-.89-1.35-.88-1.36-.88-1.36-.88-1.36-.88-1.37-.87-1.37-.87-1.38-.87-1.37-.86-1.38-.86-1.39-.86-1.39-.85-1.39-.86-1.39-.85-1.4-.84-1.4-.85-1.41-.84-1.41-.84-1.41-.83-1.41-.83-1.42-.83-1.42-.83-1.43-.82-1.43-.83-1.43-.81-1.44-.82-1.44-.81-1.44-.81-1.45-.81-1.45-.8-1.45-.8-1.46-.8-1.46-.8-1.46-.79-1.47-.79-1.47-.79-1.47-.78-1.48-.78-1.48-.78-1.48-.78-1.49-.77-1.49-.77-1.5-.77-1.49-.76-1.5-.76-1.51-.76-1.51-.76-1.51-.75-1.51-.75-1.52-.75-1.52-.74-1.53-.74-1.53-.74-1.53-.74-1.54-.73-1.54-.73-1.54-.73-1.54-.72-1.55-.72-1.56-.72-1.55-.72-1.56-.71-1.57-.71-1.56-.71-1.57-.7-1.58-.7-1.57-.7-1.58-.7-1.59-.69-1.58-.69-1.6-.69-1.59-.68-1.6-.69-1.6-.68-1.6M350.71 462.45l-.75.59-.74.59-.75.58-.74.58-.75.58-.75.58-.75.57-.75.57-.75.56-.75.56-.75.56-.75.55-.76.56-.75.54-.76.55-.76.54-.75.54-.76.53-.76.54-.76.52-.76.53-.76.52-.77.52-.76.51-.76.52-.77.51-.77.5-.76.5-.77.5-.77.5-.77.49-.77.49-.77.48-.77.48-.77.48-.78.48-.77.47-.78.47-.77.47-.78.46-.78.46-.78.45-.78.46-.78.45-.78.44-.78.44-.78.44-.79.44-.78.43-.79.43-.79.43-.78.42-.79.42-.79.41-.79.42-.79.41-.79.4-.79.41-.8.4-.79.39-.8.4-.79.39-.8.38-.8.38-.8.38-.79.38-.8.37-.81.37-.8.37-.8.36-.8.36-.81.36-.8.35-.81.35-.81.35-.8.34-.81.34-.81.34-.81.34-.81.33-.82.32-.81.33-.81.32-.82.31-.81.32-.82.31-.81.31-.82.3-.82.3-.82.3-.82.29-.82.29-.83.29-.82.28-.82.28-.83.28-.82.28-.83.27-.83.26" style="stroke-width:1.07;stroke:#000;stroke-opacity:.1;stroke-linecap:butt"/><path d="m350.71 462.45-1.01-1.21-1-1.22-.99-1.22-1-1.22-.98-1.23-.99-1.24-.98-1.24-.98-1.24-.97-1.25-.97-1.25-.97-1.26-.96-1.26-.96-1.27-.96-1.27-.95-1.27-.94-1.28-.95-1.29-.94-1.29-.93-1.29-.94-1.3-.92-1.3-.93-1.31-.92-1.31-.92-1.32-.91-1.32-.91-1.32-.9-1.34-.91-1.33-.89-1.34-.9-1.34-.89-1.35-.89-1.36-.88-1.35-.88-1.37-.87-1.36-.87-1.38-.87-1.37-.87-1.38-.86-1.39-.85-1.39-.86-1.39-.84-1.4-.85-1.41-.84-1.41-.84-1.41-.83-1.42-.83-1.42-.83-1.43-.82-1.43-.82-1.43-.81-1.44-.81-1.45-.81-1.45-.8-1.45-.8-1.46-.8-1.47-.79-1.46-.79-1.48-.78-1.47-.78-1.49-.78-1.48-.77-1.49-.77-1.5-.76-1.5-.77-1.5-.75-1.51-.76-1.52-.75-1.51-.74-1.53-.75-1.53-.73-1.53-.74-1.53-.73-1.55-.73-1.54-.72-1.55-.72-1.56-.72-1.56-.71-1.56-.71-1.57-.7-1.57-.7-1.58-.7-1.59-.69-1.58-.69-1.59-.69-1.6-.68-1.6-.68-1.61-.67-1.61-.67-1.61-.67-1.62-.66-1.63-.66-1.62-.65-1.64-.66-1.64-.64-1.64-.65-1.64-.64-1.66-.63-1.65-.64-1.66M350.71 462.45l-.73.64-.73.65-.73.63-.74.63-.73.63-.74.62-.74.62-.73.62-.74.61-.74.6-.74.6-.75.6-.74.59-.74.59-.75.58-.75.58-.75.58-.75.57-.75.56-.75.56-.75.56-.75.55-.76.55-.75.55-.76.53-.76.54-.76.53-.76.53-.76.52-.77.52-.76.51-.76.51-.77.5-.77.5-.77.5-.77.49-.77.48-.77.49-.77.47-.78.48-.77.47-.78.46-.78.46-.78.46-.78.45-.78.44-.78.45-.78.44-.79.43-.78.43-.79.42-.79.42-.79.42-.79.41-.79.41-.79.4-.79.4-.8.39-.79.39-.8.39-.8.38-.8.38-.8.37-.8.37-.8.36-.81.36-.8.35-.81.35-.8.35-.81.34-.81.34-.81.33-.81.33-.82.32-.81.32-.82.32-.81.31-.82.3-.82.3-.82.3-.82.29-.82.29-.82.29-.83.28-.82.27-.83.27-.83.27-.83.26-.83.26-.83.25-.83.25-.83.25-.84.24-.83.23-.84.23-.84.23-.83.22-.85.22-.84.21M223.24 140.07l.49 1.8.5 1.81.5 1.8.5 1.81.49 1.8.5 1.81.49 1.8.5 1.81.49 1.81.5 1.81.49 1.8.49 1.81.49 1.81.49 1.81.49 1.81.49 1.81.49 1.81.49 1.81.49 1.81.49 1.81.48 1.81.49 1.81.48 1.81.49 1.81.48 1.81.49 1.82.48 1.81.48 1.81.49 1.82.48 1.81.48 1.81.48 1.82.48 1.81.48 1.82.47 1.81.48 1.82.48 1.82.48 1.81.47 1.82.48 1.82.47 1.81.48 1.82.47 1.82.47 1.82.47 1.82.48 1.82.47 1.81.47 1.82.47 1.82.47 1.83.47 1.82.46 1.82.47 1.82.47 1.82.46 1.82.47 1.82.46 1.83.47 1.82.46 1.82.47 1.83.46 1.82.46 1.83.46 1.82.46 1.83.46 1.82.46 1.83.46 1.82.46 1.83.46 1.83.46 1.82.45 1.83.46 1.83.45 1.82.46 1.83.45 1.83.46 1.83.45 1.83.45 1.83.45 1.83.46 1.83.45 1.83.45 1.83.45 1.83.44 1.83.45 1.84.45 1.83.45 1.83.44 1.83.45 1.84.44 1.83.45 1.83.44 1.84.45 1.83.44 1.84.44 1.83.44 1.84.44 1.83.44 1.84.44 1.84M154.93 242.21l1.16.79 1.16.78 1.16.79 1.16.79 1.16.79 1.16.79 1.16.79 1.16.79 1.16.78 1.16.79 1.15.79 1.16.79 1.16.79 1.16.79 1.16.79 1.16.79 1.16.78 1.16.79 1.16.79 1.16.79 1.16.79 1.16.79 1.16.79 1.15.79 1.16.78 1.16.79 1.16.79 1.16.79 1.16.79 1.16.79 1.16.79 1.16.78 1.16.79 1.16.79 1.16.79 1.15.79 1.16.79 1.16.79 1.16.79 1.16.78 1.16.79 1.16.79 1.16.79 1.16.79 1.16.79 1.16.79 1.16.79 1.16.78 1.15.79 1.16.79 1.16.79 1.16.79 1.16.79 1.16.79 1.16.78 1.16.79 1.16.79 1.16.79 1.16.79 1.16.79 1.15.79 1.16.79 1.16.78 1.16.79 1.16.79 1.16.79 1.16.79 1.16.79 1.16.79 1.16.79 1.16.78 1.16.79 1.16.79 1.15.79 1.16.79 1.16.79 1.16.79 1.16.78 1.16.79 1.16.79 1.16.79 1.16.79 1.16.79 1.16.79 1.16.79 1.15.78 1.16.79 1.16.79 1.16.79 1.16.79 1.16.79 1.16.79 1.16.79 1.16.78 1.16.79 1.16.79 1.16.79 1.16.79 1.15.79M402.76 292.32l1.21-.24 1.21-.23 1.22-.24 1.21-.23 1.21-.24 1.21-.23 1.21-.24 1.22-.23 1.21-.24 1.21-.23 1.21-.24 1.22-.23 1.21-.24 1.21-.23 1.21-.24 1.21-.23 1.22-.24 1.21-.23 1.21-.24 1.21-.23 1.22-.24 1.21-.23 1.21-.24 1.21-.23 1.21-.24 1.22-.23 1.21-.24 1.21-.23 1.21-.24 1.22-.23 1.21-.24 1.21-.23 1.21-.24 1.22-.23 1.21-.24 1.21-.23 1.21-.24 1.21-.23 1.22-.24 1.21-.23 1.21-.24 1.21-.23 1.22-.24 1.21-.23 1.21-.24 1.21-.23 1.21-.24 1.22-.23 1.21-.24 1.21-.23 1.21-.24 1.22-.23 1.21-.24 1.21-.23 1.21-.24 1.21-.23 1.22-.24 1.21-.23 1.21-.24 1.21-.23 1.22-.24 1.21-.23 1.21-.24 1.21-.23 1.22-.24 1.21-.23 1.21-.24 1.21-.23 1.21-.24 1.22-.23 1.21-.24 1.21-.23 1.21-.24 1.22-.23 1.21-.24 1.21-.23 1.21-.24 1.21-.23 1.22-.24 1.21-.23 1.21-.24 1.21-.23 1.22-.24 1.21-.23 1.21-.24 1.21-.23 1.21-.24 1.22-.23 1.21-.24 1.21-.23 1.21-.24 1.22-.23 1.21-.24 1.21-.23 1.21-.24 1.22-.23 1.21-.24 1.21-.23 1.21-.24" style="stroke-width:1.07;stroke:#000;stroke-opacity:.1;stroke-linecap:butt"/><path d="m350.71 462.45-1.05-1.16-1.05-1.16-1.04-1.16-1.04-1.18-1.03-1.17-1.02-1.19-1.03-1.19-1.01-1.19-1.02-1.2-1.01-1.21-1-1.21-1-1.22-.99-1.22-.99-1.23-.98-1.24-.98-1.24-.98-1.25-.97-1.25-.96-1.26-.97-1.26-.95-1.27-.95-1.28-.95-1.28-.94-1.29-.94-1.29-.93-1.3-.93-1.3-.92-1.31-.92-1.32-.91-1.32-.91-1.33-.9-1.33-.9-1.34-.9-1.34-.89-1.35-.88-1.36-.88-1.36-.88-1.37-.87-1.37-.86-1.38-.86-1.38-.86-1.39-.85-1.4-.85-1.4-.84-1.41-.84-1.41-.83-1.42-.83-1.42-.82-1.43-.82-1.44-.81-1.44-.81-1.45-.81-1.45-.79-1.46-.8-1.46-.79-1.48-.78-1.47-.78-1.48-.78-1.49-.77-1.49-.77-1.5-.76-1.51-.76-1.51-.75-1.51-.74-1.53-.75-1.52-.73-1.54-.74-1.54-.73-1.54-.72-1.55-.72-1.56-.71-1.56-.71-1.57-.71-1.57-.7-1.58-.69-1.59-.69-1.59-.69-1.59-.68-1.61-.67-1.6-.67-1.62-.67-1.62-.66-1.62-.66-1.63-.65-1.64-.65-1.64-.64-1.65-.64-1.65-.63-1.66-.63-1.67-.63-1.67-.61-1.68-.62-1.68-.61-1.69-.6-1.69-.6-1.7-.6-1.7-.59-1.72-.59-1.71M350.71 462.45l-.72.7-.72.69-.71.69-.72.68-.73.68-.72.67-.72.67-.73.66-.73.65-.73.65-.73.65-.73.63-.73.64-.74.62-.73.63-.74.61-.74.61-.74.61-.74.6-.74.59-.75.59-.74.59-.75.57-.75.58-.75.56-.75.56-.75.56-.76.55-.75.54-.76.54-.76.54-.76.53-.76.52-.76.52-.77.51-.76.51-.77.5-.77.49-.77.49-.77.49-.77.47-.78.48-.77.47-.78.46-.78.45-.78.46-.78.44-.78.44-.79.44-.78.43-.79.42-.79.42-.79.41-.79.41-.79.4-.8.4-.79.39-.8.38-.8.38-.8.38-.8.37-.8.36-.81.36-.8.35-.81.35-.81.34-.81.33-.81.33-.81.33-.81.32-.82.31-.82.31-.81.3-.82.3-.83.29-.82.29-.82.28-.83.27-.82.27-.83.27-.83.26-.83.25-.83.25-.84.24-.83.24-.84.23-.84.22-.84.22-.84.22-.84.21-.85.2-.84.2-.85.19-.84.19-.85.18-.86.18-.85.17-.85.16-.86.16" style="stroke-width:1.07;stroke:#000;stroke-opacity:.1;stroke-linecap:butt"/><path d="m350.71 462.45-1.1-1.1-1.09-1.11-1.09-1.11-1.08-1.12-1.07-1.12-1.07-1.14-1.06-1.14-1.06-1.14-1.05-1.16-1.05-1.16-1.04-1.17-1.03-1.17-1.03-1.18-1.03-1.19-1.01-1.2-1.01-1.2-1.01-1.21-1-1.21-1-1.23-.99-1.23-.98-1.23-.98-1.25-.97-1.25-.96-1.25-.97-1.27-.95-1.27-.95-1.28-.94-1.28-.94-1.29-.93-1.3-.93-1.31-.92-1.31-.92-1.32-.9-1.32-.91-1.34-.9-1.34-.89-1.34-.89-1.36-.88-1.36-.87-1.36-.87-1.38-.87-1.38-.85-1.39-.86-1.39-.84-1.4-.84-1.41-.84-1.42-.83-1.42-.82-1.43-.82-1.43-.81-1.45-.81-1.45-.8-1.45-.8-1.47-.79-1.47-.78-1.48-.78-1.48-.77-1.49-.77-1.5-.76-1.5-.76-1.51-.75-1.52-.74-1.53-.74-1.53-.73-1.54-.73-1.55-.72-1.55-.72-1.56-.71-1.57-.7-1.57-.7-1.58-.69-1.59-.69-1.59-.68-1.6-.68-1.61-.67-1.61-.66-1.63-.66-1.62-.66-1.64-.64-1.64-.65-1.65-.63-1.66-.63-1.66-.63-1.67-.62-1.68-.61-1.68-.61-1.69-.6-1.7-.6-1.7-.59-1.71-.58-1.72-.58-1.73-.57-1.73-.57-1.74-.56-1.74-.56-1.75-.55-1.76-.55-1.77-.54-1.77M350.71 462.45l-.7.75-.71.75-.7.74-.71.73-.71.73-.71.72-.71.71-.72.71-.71.7-.72.69-.72.69-.72.68-.72.67-.73.67-.72.66-.73.65-.73.65-.73.64-.73.63-.74.63-.74.62-.73.62-.74.6-.74.61-.75.59-.74.59-.75.58-.75.57-.75.57-.75.56-.75.56-.76.55-.75.54-.76.53-.76.53-.76.52-.77.52-.76.51-.77.5-.77.49-.77.49-.77.48-.77.48-.78.47-.78.46-.77.46-.79.45-.78.44-.78.44-.79.42-.78.43-.79.41-.79.41-.8.41-.79.39-.8.39-.79.39-.8.37-.8.37-.81.36-.8.36-.81.35-.8.35-.81.33-.82.33-.81.33-.81.31-.82.31-.82.31-.82.29-.82.3-.82.28-.83.28-.82.27-.83.26-.83.26-.83.25-.83.25-.84.23-.84.23-.83.23-.84.22-.85.21-.84.2-.85.2-.84.19-.85.19-.85.18-.85.17-.86.16-.85.16-.86.15-.86.15-.86.14-.86.13-.86.13-.87.12-.87.11-.87.1" style="stroke-width:1.07;stroke:#000;stroke-opacity:.1;stroke-linecap:butt"/><path d="m272.93 504.95.57-1.88.56-1.89.55-1.89.53-1.88.53-1.89.51-1.89.49-1.88.49-1.89.47-1.88.46-1.88.45-1.89.43-1.88.43-1.88.41-1.88.4-1.88.38-1.89.38-1.88.36-1.88.35-1.88.34-1.87.32-1.88.31-1.88.3-1.88.29-1.88.28-1.87.26-1.88.25-1.87.24-1.88.22-1.88.22-1.87.2-1.87.19-1.88.18-1.87.16-1.87.15-1.88.14-1.87.13-1.87.11-1.87.11-1.87.09-1.87.08-1.87.06-1.87.06-1.87.04-1.86.03-1.87.01-1.87.01-1.87-.01-1.86-.02-1.87-.03-1.86-.05-1.87-.06-1.86-.07-1.87-.08-1.86-.09-1.86-.11-1.87-.12-1.86-.13-1.86-.14-1.86-.16-1.86-.17-1.86-.18-1.86-.19-1.86-.21-1.86-.21-1.86-.23-1.86-.25-1.85-.25-1.86-.27-1.86-.28-1.85-.29-1.86-.3-1.85-.32-1.86-.33-1.85-.34-1.86-.35-1.85-.37-1.85-.37-1.86-.39-1.85-.41-1.85-.41-1.85-.43-1.85-.44-1.85-.45-1.85-.46-1.85-.48-1.85-.49-1.85-.5-1.85-.51-1.84-.53-1.85-.54-1.85-.55-1.84-.56-1.85-.58-1.84-.58-1.85-.6-1.84-.61-1.85-.63-1.84-.64-1.84" style="stroke-width:1.07;stroke:#000;stroke-opacity:.1;stroke-linecap:butt"/><path d="m272.93 504.95.51-1.88.5-1.89.49-1.88.48-1.89.47-1.88.45-1.88.45-1.89.43-1.88.42-1.88.41-1.88.4-1.88.39-1.88.38-1.89.37-1.88.35-1.88.35-1.87.33-1.88.32-1.88.31-1.88.3-1.88.29-1.88.28-1.87.27-1.88.25-1.87.25-1.88.23-1.88.22-1.87.21-1.87.2-1.88.19-1.87.18-1.88.17-1.87.15-1.87.15-1.87.13-1.87.12-1.88.12-1.87.1-1.87.09-1.87.07-1.87.07-1.86.06-1.87.04-1.87.04-1.87.02-1.87.01-1.86v-1.87l-.01-1.87-.02-1.86-.03-1.87-.05-1.86-.05-1.87-.07-1.86-.08-1.86-.08-1.87-.1-1.86-.11-1.86-.13-1.86-.13-1.87-.14-1.86-.16-1.86-.16-1.86-.18-1.86-.19-1.86-.2-1.86-.21-1.86-.22-1.85-.23-1.86-.24-1.86-.26-1.86-.26-1.85-.28-1.86-.29-1.86-.3-1.85-.31-1.86-.32-1.85-.33-1.85-.34-1.86-.36-1.85-.36-1.86-.38-1.85-.39-1.85-.4-1.85-.41-1.85-.42-1.85-.43-1.85-.44-1.85-.46-1.85-.46-1.85-.48-1.85-.49-1.85-.49-1.85-.51-1.85-.53-1.84-.53-1.85-.54-1.85-.55-1.84-.57-1.85-.58-1.84" style="stroke-width:1.07;stroke:#000;stroke-opacity:.1;stroke-linecap:butt"/><path d="m272.93 504.95.45-1.88.44-1.88.44-1.88.42-1.89.41-1.88.4-1.88.39-1.88.38-1.88.37-1.88.36-1.88.36-1.88.34-1.88.33-1.88.32-1.88.31-1.88.31-1.87.29-1.88.28-1.88.28-1.88.26-1.87.25-1.88.24-1.87.24-1.88.22-1.87.22-1.88.2-1.87.19-1.88.19-1.87.17-1.87.17-1.87.15-1.88.15-1.87.13-1.87.13-1.87.11-1.87.11-1.87.09-1.87.09-1.87.07-1.87.07-1.87.06-1.87.04-1.87.04-1.87.02-1.86.02-1.87.01-1.87-.01-1.86-.01-1.87-.02-1.87-.03-1.86-.05-1.87-.05-1.86-.06-1.86-.07-1.87-.09-1.86-.09-1.87-.1-1.86-.11-1.86-.12-1.86-.13-1.86-.15-1.87-.15-1.86-.16-1.86-.17-1.86-.18-1.86-.19-1.86-.2-1.86-.21-1.85-.22-1.86-.23-1.86-.24-1.86-.25-1.86-.26-1.85-.27-1.86-.28-1.85-.29-1.86-.29-1.86-.31-1.85-.32-1.86-.33-1.85-.34-1.85-.35-1.86-.36-1.85-.36-1.85-.38-1.86-.39-1.85-.4-1.85-.4-1.85-.42-1.85-.43-1.85-.43-1.85-.45-1.85-.46-1.85-.46-1.85-.48-1.85-.49-1.85-.49-1.85-.51-1.85-.52-1.84" style="stroke-width:1.07;stroke:#000;stroke-opacity:.1;stroke-linecap:butt"/><path d="m272.93 504.95.39-1.88.39-1.88.37-1.88.36-1.88.36-1.88.34-1.88.34-1.88.33-1.87.32-1.88.32-1.88.3-1.88.29-1.88.29-1.87.28-1.88.27-1.88.26-1.87.25-1.88.24-1.88.24-1.87.22-1.88.22-1.87.21-1.87.2-1.88.19-1.87.19-1.88.17-1.87.17-1.87.15-1.87.15-1.88.14-1.87.13-1.87.12-1.87.12-1.87.1-1.87.1-1.87.09-1.87.08-1.87.07-1.87.06-1.87.05-1.87.05-1.87.04-1.86.02-1.87.02-1.87.01-1.87.01-1.86-.01-1.87-.02-1.86-.02-1.87-.03-1.86-.05-1.87-.05-1.86-.05-1.87-.07-1.86-.08-1.87-.08-1.86-.09-1.86-.11-1.87-.11-1.86-.12-1.86-.12-1.86-.14-1.86-.14-1.86-.16-1.87-.16-1.86-.17-1.86-.18-1.86-.19-1.86-.19-1.86-.21-1.85-.21-1.86-.23-1.86-.23-1.86-.24-1.86-.25-1.85-.25-1.86-.27-1.86-.27-1.85-.29-1.86-.29-1.86-.3-1.85-.31-1.86-.31-1.85-.33-1.86-.33-1.85-.35-1.85-.35-1.86-.36-1.85-.37-1.85-.38-1.85-.38-1.86-.4-1.85-.4-1.85-.41-1.85-.43-1.85-.42-1.85-.44-1.85-.45-1.85-.46-1.85" style="stroke-width:1.07;stroke:#000;stroke-opacity:.1;stroke-linecap:butt"/><path d="m272.93 504.95.33-1.87.33-1.88.31-1.88.31-1.88.3-1.88.29-1.87.29-1.88.27-1.88.27-1.87.27-1.88.25-1.88.25-1.87.24-1.88.24-1.87.22-1.88.22-1.87.21-1.88.21-1.87.19-1.88.19-1.87.18-1.87.18-1.88.16-1.87.16-1.87.16-1.87.14-1.88.14-1.87.13-1.87.12-1.87.12-1.87.1-1.87.1-1.87.1-1.87.08-1.87.08-1.87.07-1.87.06-1.87.06-1.87.05-1.86.04-1.87.03-1.87.03-1.87.02-1.87.01-1.86.01-1.87-.01-1.87-.01-1.86-.02-1.87-.02-1.86-.03-1.87-.04-1.86-.05-1.87-.06-1.86-.06-1.87-.07-1.86-.08-1.86-.08-1.87-.09-1.86-.1-1.86-.11-1.87-.11-1.86-.12-1.86-.13-1.86-.14-1.86-.14-1.87-.15-1.86-.16-1.86-.17-1.86-.17-1.86-.18-1.86-.19-1.86-.19-1.86-.21-1.86-.21-1.85-.22-1.86-.22-1.86-.23-1.86-.24-1.86-.25-1.85-.25-1.86-.27-1.86-.27-1.85-.27-1.86-.29-1.86-.29-1.85-.3-1.86-.3-1.85-.32-1.86-.32-1.85-.33-1.86-.33-1.85-.35-1.85-.35-1.86-.35-1.85-.37-1.85-.37-1.86-.38-1.85-.39-1.85-.4-1.85" style="stroke-width:1.07;stroke:#000;stroke-opacity:.1;stroke-linecap:butt"/><path d="m272.93 504.95.27-1.87.27-1.88.25-1.87.25-1.88.25-1.88.24-1.87.23-1.88.23-1.87.21-1.88.22-1.87.21-1.88.2-1.87.19-1.87.19-1.88.19-1.87.17-1.87.17-1.88.17-1.87.16-1.87.15-1.87.14-1.88.14-1.87.14-1.87.12-1.87.13-1.87.11-1.87.11-1.87.1-1.87.1-1.87.09-1.87.08-1.87.08-1.87.07-1.87.07-1.87.06-1.87.05-1.87.05-1.87.04-1.86.04-1.87.03-1.87.02-1.87.02-1.86.01-1.87v-3.73l-.01-1.87-.01-1.87-.02-1.86-.03-1.87-.03-1.86-.04-1.87-.05-1.86-.05-1.87-.06-1.86-.06-1.87-.07-1.86-.08-1.86-.08-1.87-.09-1.86-.09-1.86-.1-1.87-.11-1.86-.11-1.86-.12-1.86-.12-1.86-.14-1.87-.13-1.86-.15-1.86-.15-1.86-.15-1.86-.16-1.86-.17-1.86-.18-1.86-.18-1.86-.18-1.86-.2-1.86-.2-1.86-.2-1.86-.21-1.86-.22-1.86-.22-1.85-.23-1.86-.24-1.86-.24-1.86-.25-1.85-.26-1.86-.26-1.86-.26-1.86-.28-1.85-.28-1.86-.28-1.85-.29-1.86-.3-1.85-.3-1.86-.31-1.86-.32-1.85-.32-1.85-.33-1.86-.34-1.85" style="stroke-width:1.07;stroke:#000;stroke-opacity:.1;stroke-linecap:butt"/><path d="m272.93 504.95.21-1.87.21-1.87.2-1.88.19-1.87.19-1.88.18-1.87.18-1.87.18-1.87.17-1.88.16-1.87.16-1.87.15-1.88.15-1.87.15-1.87.14-1.87.13-1.87.13-1.87.13-1.88.12-1.87.11-1.87.11-1.87.11-1.87.1-1.87.1-1.87.09-1.87.08-1.87.08-1.87.08-1.87.07-1.87.06-1.87.07-1.86.05-1.87.05-1.87.05-1.87.04-1.87.04-1.87.03-1.86.02-1.87.03-1.87.01-1.86.01-1.87.01-1.87v-3.73l-.01-1.87-.01-1.86-.02-1.87-.02-1.87-.03-1.86-.03-1.87-.04-1.86-.04-1.87-.05-1.86-.05-1.87-.06-1.86-.06-1.86-.07-1.87-.07-1.86-.08-1.87-.08-1.86-.09-1.86-.09-1.87-.1-1.86-.1-1.86-.11-1.86-.11-1.87-.11-1.86-.13-1.86-.12-1.86-.13-1.86-.14-1.87-.14-1.86-.15-1.86-.15-1.86-.15-1.86-.16-1.86-.17-1.86-.17-1.86-.18-1.86-.18-1.86-.18-1.86-.19-1.86-.2-1.86-.2-1.86-.2-1.86-.21-1.86-.22-1.85-.22-1.86-.22-1.86-.23-1.86-.24-1.86-.24-1.85-.24-1.86-.25-1.86-.26-1.86-.26-1.85-.26-1.86-.27-1.86-.28-1.85" style="stroke-width:1.07;stroke:#000;stroke-opacity:.1;stroke-linecap:butt"/><path d="m272.93 504.95.15-1.87.15-1.87.14-1.87.14-1.87.13-1.87.13-1.88.13-1.87.12-1.87.12-1.87.11-1.87.11-1.87.11-1.87.11-1.87.1-1.87.09-1.87.1-1.87.08-1.87.09-1.87.08-1.87.08-1.87.07-1.87.08-1.87.06-1.87.07-1.87.06-1.87.05-1.86.05-1.87.05-1.87.05-1.87.04-1.87.04-1.87.03-1.86.03-1.87.03-1.87.02-1.87.02-1.86.01-1.87.02-1.87v-1.86l.01-1.87v-3.73l-.01-1.87-.01-1.87-.02-1.86-.01-1.87-.03-1.86-.02-1.87-.03-1.86-.03-1.87-.04-1.87-.04-1.86-.04-1.87-.05-1.86-.05-1.86-.06-1.87-.06-1.86-.06-1.87-.06-1.86-.07-1.87-.08-1.86-.07-1.86-.08-1.87-.09-1.86-.09-1.86-.09-1.87-.09-1.86-.1-1.86-.11-1.87-.1-1.86-.11-1.86-.12-1.86-.12-1.86-.12-1.87-.12-1.86-.13-1.86-.13-1.86-.14-1.86-.14-1.86-.14-1.87-.15-1.86-.15-1.86-.16-1.86-.16-1.86-.16-1.86-.16-1.86-.17-1.86-.18-1.86-.17-1.86-.18-1.86-.19-1.86-.19-1.86-.19-1.86-.19-1.86-.2-1.86-.2-1.86-.21-1.86-.21-1.85-.22-1.86" style="stroke-width:1.07;stroke:#000;stroke-opacity:.1;stroke-linecap:butt"/><path d="m272.93 504.95.09-1.87.09-1.87.08-1.86.08-1.87.08-1.87.08-1.87.07-1.87.07-1.87.07-1.87.06-1.87.07-1.87.06-1.87.06-1.87.05-1.86.06-1.87.05-1.87.05-1.87.04-1.87.05-1.87.04-1.86.04-1.87.03-1.87.04-1.87.03-1.87.03-1.86.02-1.87.03-1.87.02-1.87.02-1.86.01-1.87.02-1.87.01-1.86.01-1.87v-1.87l.01-1.86v-5.6l-.01-1.87-.01-1.87-.01-1.86-.01-1.87-.02-1.86-.01-1.87-.02-1.87-.03-1.86-.02-1.87-.03-1.86-.03-1.87-.03-1.86-.04-1.87-.04-1.86-.04-1.87-.04-1.86-.04-1.87-.05-1.86-.05-1.87-.05-1.86-.06-1.87-.06-1.86-.06-1.87-.06-1.86-.06-1.87-.07-1.86-.07-1.86-.07-1.87-.08-1.86-.07-1.86-.08-1.87-.08-1.86-.09-1.86-.09-1.87-.09-1.86-.09-1.86-.09-1.87-.1-1.86-.1-1.86-.1-1.87-.1-1.86-.11-1.86-.11-1.86-.11-1.87-.12-1.86-.11-1.86-.12-1.86-.12-1.86-.13-1.87-.12-1.86-.13-1.86-.13-1.86-.14-1.86-.13-1.87-.14-1.86-.14-1.86-.15-1.86-.14-1.86-.15-1.86-.15-1.86-.16-1.86" style="stroke-width:1.07;stroke:#000;stroke-opacity:.1;stroke-linecap:butt"/><path d="m272.93 504.95.03-1.86.03-1.87.02-1.87.03-1.87.02-1.86.02-1.87.02-1.87.02-1.86.02-1.87.01-1.87.02-1.87.01-1.86.02-1.87.01-1.87.01-1.86.01-1.87.01-1.87v-1.86l.01-1.87v-1.87l.01-1.86v-7.47l-.01-1.87v-1.86l-.01-1.87v-1.87l-.01-1.86-.01-1.87-.01-1.87-.01-1.86-.02-1.87-.01-1.86-.02-1.87-.01-1.87-.02-1.86-.02-1.87-.02-1.86-.02-1.87-.03-1.86-.02-1.87-.02-1.87-.03-1.86-.03-1.87-.03-1.86-.03-1.87-.03-1.86-.03-1.87-.04-1.86-.03-1.87-.04-1.86-.04-1.87-.03-1.86-.04-1.87-.05-1.86-.04-1.87-.04-1.86-.05-1.87-.04-1.86-.05-1.87-.05-1.86-.05-1.87-.05-1.86-.05-1.87-.06-1.86-.05-1.87-.06-1.86-.06-1.86-.05-1.87-.06-1.86-.07-1.87-.06-1.86-.06-1.87-.07-1.86-.06-1.86-.07-1.87-.07-1.86-.07-1.87-.07-1.86-.07-1.86-.07-1.87-.08-1.86-.07-1.87-.08-1.86-.08-1.86-.08-1.87-.08-1.86-.08-1.86-.09-1.87-.08-1.86-.09-1.86-.08-1.87-.09-1.86-.09-1.86-.09-1.87-.09-1.86-.1-1.86" style="stroke-width:1.07;stroke:#000;stroke-opacity:.1;stroke-linecap:butt"/><path d="m272.93 504.95-.03-1.86-.03-1.87-.03-1.86-.04-1.87-.03-1.86-.03-1.87-.04-1.86-.03-1.87-.03-1.86-.03-1.87-.04-1.86-.03-1.87-.03-1.86-.03-1.87-.04-1.87-.03-1.86-.03-1.87-.04-1.86-.03-1.87-.03-1.86-.03-1.87-.04-1.86-.03-1.87-.03-1.86-.03-1.87-.04-1.86-.03-1.87-.03-1.86-.04-1.87-.03-1.87-.03-1.86-.03-1.87-.04-1.86-.03-1.87-.03-1.86-.03-1.87-.04-1.86-.03-1.87-.03-1.86-.04-1.87-.03-1.86-.03-1.87-.03-1.86-.04-1.87-.03-1.87-.03-1.86-.03-1.87-.04-1.86-.03-1.87-.03-1.86-.03-1.87-.04-1.86-.03-1.87-.03-1.86-.04-1.87-.03-1.86-.03-1.87-.03-1.86-.04-1.87-.03-1.87-.03-1.86-.03-1.87-.04-1.86-.03-1.87-.03-1.86-.04-1.87-.03-1.86-.03-1.87-.03-1.86-.04-1.87-.03-1.86-.03-1.87-.03-1.86-.04-1.87-.03-1.86-.03-1.87-.04-1.87-.03-1.86-.03-1.87-.03-1.86-.04-1.87-.03-1.86-.03-1.87-.03-1.86-.04-1.87-.03-1.86-.03-1.87-.04-1.86-.03-1.87-.03-1.86-.03-1.87-.04-1.87-.03-1.86-.03-1.87-.03-1.86-.04-1.87-.03-1.86-.03-1.87-.04-1.86" style="stroke-width:1.07;stroke:#000;stroke-opacity:.1;stroke-linecap:butt"/><path d="m272.93 504.95-.09-1.86-.09-1.86-.09-1.86-.09-1.87-.09-1.86-.09-1.86-.08-1.87-.09-1.86-.08-1.86-.08-1.87-.08-1.86-.08-1.87-.08-1.86-.08-1.86-.07-1.87-.08-1.86-.07-1.86-.07-1.87-.07-1.86-.07-1.87-.07-1.86-.07-1.86-.07-1.87-.06-1.86-.06-1.87-.07-1.86-.06-1.86-.06-1.87-.06-1.86-.05-1.87-.06-1.86-.05-1.87-.06-1.86-.05-1.87-.05-1.86-.05-1.87-.05-1.86-.05-1.86-.04-1.87-.05-1.86-.04-1.87-.05-1.86-.04-1.87-.04-1.86-.04-1.87-.03-1.86-.04-1.87-.04-1.87-.03-1.86-.03-1.87-.03-1.86-.03-1.87-.03-1.86-.03-1.87-.03-1.86-.02-1.87-.03-1.86-.02-1.87-.02-1.87-.02-1.86-.02-1.87-.02-1.86-.02-1.87-.01-1.87-.01-1.86-.02-1.87-.01-1.86-.01-1.87-.01-1.87-.01-1.86v-1.87l-.01-1.86v-1.87l-.01-1.87v-7.46l.01-1.87v-1.87l.01-1.86v-1.87l.01-1.87.01-1.86.01-1.87.01-1.87.01-1.86.02-1.87.01-1.87.02-1.87.02-1.86.02-1.87.02-1.87.02-1.87.02-1.86.03-1.87.02-1.87.03-1.87.02-1.86" style="stroke-width:1.07;stroke:#000;stroke-opacity:.1;stroke-linecap:butt"/><path d="m272.93 504.95-.15-1.86-.15-1.86-.15-1.86-.15-1.86-.14-1.86-.14-1.86-.14-1.86-.14-1.86-.13-1.87-.13-1.86-.13-1.86-.13-1.86-.12-1.86-.12-1.87-.12-1.86-.12-1.86-.11-1.86-.11-1.86-.11-1.87-.11-1.86-.1-1.86-.1-1.87-.1-1.86-.1-1.86-.09-1.86-.1-1.87-.09-1.86-.08-1.86-.09-1.87-.08-1.86-.08-1.86-.08-1.87-.07-1.86-.07-1.87-.07-1.86-.07-1.86-.06-1.87-.07-1.86-.06-1.87-.05-1.86-.06-1.86-.05-1.87-.05-1.86-.05-1.87-.04-1.86-.05-1.87-.04-1.86-.03-1.87-.04-1.86-.03-1.87-.03-1.86-.03-1.87-.03-1.87-.02-1.86-.02-1.87-.02-1.86-.01-1.87-.01-1.87-.02-1.86v-1.87l-.01-1.86v-7.47l.01-1.87.01-1.86.01-1.87.01-1.87.02-1.87.02-1.86.02-1.87.03-1.87.02-1.86.03-1.87.03-1.87.04-1.87.03-1.87.04-1.86.04-1.87.05-1.87.04-1.87.05-1.87.05-1.87.06-1.86.05-1.87.06-1.87.06-1.87.06-1.87.07-1.87.07-1.87.07-1.87.07-1.87.08-1.86.08-1.87.08-1.87.08-1.87.09-1.87.08-1.87" style="stroke-width:1.07;stroke:#000;stroke-opacity:.1;stroke-linecap:butt"/><path d="m272.93 504.95-.21-1.85-.21-1.86-.21-1.86-.2-1.86-.2-1.86-.19-1.86-.2-1.86-.18-1.86-.19-1.86-.18-1.86-.18-1.86-.17-1.86-.17-1.86-.16-1.86-.17-1.86-.15-1.86-.16-1.86-.15-1.86-.15-1.86-.14-1.86-.14-1.86-.14-1.87-.13-1.86-.13-1.86-.12-1.86-.13-1.86-.11-1.87-.12-1.86-.11-1.86-.1-1.86-.11-1.87-.1-1.86-.09-1.86-.09-1.86-.09-1.87-.09-1.86-.08-1.86-.07-1.87-.08-1.86-.07-1.87-.06-1.86-.07-1.86-.05-1.87-.06-1.86-.05-1.87-.05-1.86-.04-1.87-.04-1.86-.04-1.87-.03-1.86-.03-1.87-.03-1.86-.02-1.87-.02-1.87-.01-1.86-.01-1.87-.01-1.86v-5.6l.01-1.87.01-1.87.02-1.87.02-1.86.02-1.87.03-1.87.03-1.86.03-1.87.04-1.87.04-1.87.05-1.87.04-1.87.06-1.86.05-1.87.06-1.87.07-1.87.06-1.87.07-1.87.08-1.87.08-1.87.08-1.87.08-1.87.09-1.87.1-1.87.09-1.87.1-1.87.11-1.87.1-1.87.12-1.87.11-1.87.12-1.87.12-1.87.13-1.87.13-1.87.13-1.88.14-1.87.14-1.87.15-1.87.14-1.87" style="stroke-width:1.07;stroke:#000;stroke-opacity:.1;stroke-linecap:butt"/><path d="m272.93 504.95-.27-1.85-.27-1.86-.26-1.86-.26-1.85-.26-1.86-.25-1.86-.24-1.85-.24-1.86-.24-1.86-.23-1.86-.22-1.86-.22-1.85-.22-1.86-.21-1.86-.2-1.86-.2-1.86-.2-1.86-.19-1.86-.18-1.86-.19-1.86-.17-1.86-.17-1.86-.17-1.86-.16-1.86-.15-1.86-.16-1.86-.14-1.86-.14-1.86-.14-1.86-.13-1.87-.13-1.86-.12-1.86-.11-1.86-.12-1.86-.1-1.87-.1-1.86-.1-1.86-.09-1.87-.09-1.86-.08-1.86-.08-1.87-.07-1.86-.07-1.86-.06-1.87-.06-1.86-.05-1.87-.05-1.86-.04-1.87-.04-1.86-.03-1.87-.03-1.86-.02-1.87-.02-1.86-.01-1.87-.01-1.87v-5.6l.02-1.86.01-1.87.02-1.87.03-1.87.03-1.86.04-1.87.04-1.87.05-1.87.05-1.87.05-1.86.06-1.87.07-1.87.07-1.87.08-1.87.08-1.87.08-1.87.09-1.87.1-1.87.1-1.87.1-1.87.11-1.87.12-1.87.12-1.87.12-1.87.13-1.88.14-1.87.14-1.87.14-1.87.15-1.87.16-1.88.16-1.87.16-1.87.17-1.87.18-1.88.18-1.87.18-1.87.19-1.88.19-1.87.2-1.87.21-1.88.2-1.87" style="stroke-width:1.07;stroke:#000;stroke-opacity:.1;stroke-linecap:butt"/><path d="m272.93 504.95-.33-1.85-.33-1.85-.32-1.86-.32-1.85-.31-1.86-.3-1.85-.3-1.86-.29-1.85-.29-1.86-.28-1.86-.27-1.85-.27-1.86-.26-1.86-.25-1.85-.25-1.86-.24-1.86-.24-1.86-.23-1.85-.22-1.86-.22-1.86-.21-1.86-.21-1.86-.19-1.86-.2-1.86-.18-1.86-.18-1.86-.18-1.86-.17-1.86-.16-1.86-.16-1.86-.15-1.86-.14-1.86-.14-1.86-.13-1.86-.12-1.87-.12-1.86-.11-1.86-.11-1.86-.1-1.87-.1-1.86-.08-1.86-.09-1.86-.07-1.87-.07-1.86-.07-1.87-.05-1.86-.05-1.87-.05-1.86-.04-1.87-.03-1.86-.03-1.87-.02-1.86-.01-1.87-.01-1.86v-3.74l.01-1.86.02-1.87.02-1.87.03-1.87.04-1.86.04-1.87.04-1.87.06-1.87.06-1.87.06-1.87.08-1.87.07-1.87.09-1.87.09-1.87.1-1.87.1-1.87.11-1.87.11-1.87.12-1.87.13-1.87.14-1.87.13-1.87.15-1.88.15-1.87.16-1.87.17-1.87.17-1.88.17-1.87.19-1.87.19-1.88.19-1.87.2-1.87.21-1.88.21-1.87.22-1.88.23-1.87.23-1.88.24-1.87.24-1.88.26-1.87.25-1.88.27-1.88.26-1.87" style="stroke-width:1.07;stroke:#000;stroke-opacity:.1;stroke-linecap:butt"/><path d="m272.93 504.95-.39-1.85-.39-1.85-.38-1.85-.37-1.85-.37-1.86-.36-1.85-.35-1.85-.34-1.86-.34-1.85-.32-1.86-.33-1.85-.31-1.86-.31-1.85-.29-1.86-.3-1.85-.28-1.86-.28-1.85-.27-1.86-.26-1.86-.25-1.85-.25-1.86-.24-1.86-.23-1.86-.23-1.86-.21-1.85-.21-1.86-.21-1.86-.19-1.86-.19-1.86-.18-1.86-.17-1.86-.17-1.86-.16-1.86-.15-1.86-.14-1.86-.14-1.87-.13-1.86-.12-1.86-.11-1.86-.11-1.86-.1-1.87-.09-1.86-.09-1.86-.07-1.87-.07-1.86-.07-1.87-.05-1.86-.05-1.86-.04-1.87-.03-1.87-.03-1.86-.01-1.87-.01-1.86-.01-1.87.01-1.87.01-1.86.02-1.87.02-1.87.04-1.87.04-1.86.05-1.87.05-1.87.07-1.87.07-1.87.08-1.87.08-1.87.09-1.87.1-1.87.11-1.87.12-1.87.12-1.87.13-1.87.14-1.87.14-1.88.15-1.87.16-1.87.17-1.87.18-1.88.18-1.87.19-1.87.19-1.88.21-1.87.21-1.87.22-1.88.22-1.87.24-1.88.24-1.88.25-1.87.25-1.88.26-1.87.27-1.88.28-1.88.29-1.87.29-1.88.3-1.88.31-1.88.31-1.88.32-1.87.33-1.88" style="stroke-width:1.07;stroke:#000;stroke-opacity:.1;stroke-linecap:butt"/><path d="m272.93 504.95-.45-1.85-.45-1.85-.44-1.85-.43-1.85-.42-1.85-.41-1.85-.4-1.85-.4-1.85-.38-1.85-.38-1.86-.37-1.85-.36-1.85-.35-1.86-.35-1.85-.33-1.85-.33-1.86-.32-1.85-.3-1.86-.3-1.85-.3-1.86-.28-1.85-.27-1.86-.27-1.86-.26-1.85-.24-1.86-.24-1.86-.24-1.86-.22-1.86-.21-1.85-.21-1.86-.19-1.86-.19-1.86-.18-1.86-.17-1.86-.16-1.86-.16-1.86-.14-1.86-.14-1.87-.13-1.86-.11-1.86-.12-1.86-.1-1.87-.09-1.86-.08-1.86-.08-1.87-.07-1.86-.06-1.86-.05-1.87-.04-1.86-.03-1.87-.02-1.86-.02-1.87-.01-1.87.01-1.86.01-1.87.01-1.87.03-1.87.04-1.86.04-1.87.06-1.87.06-1.87.07-1.87.08-1.87.09-1.87.09-1.87.11-1.87.11-1.87.13-1.87.13-1.87.14-1.87.15-1.87.15-1.88.17-1.87.17-1.87.19-1.88.19-1.87.2-1.87.21-1.88.21-1.87.23-1.88.23-1.87.25-1.88.25-1.87.26-1.88.27-1.88.28-1.87.28-1.88.3-1.88.3-1.88.32-1.87.32-1.88.33-1.88.33-1.88.35-1.88.36-1.88.36-1.88.37-1.88.38-1.88.39-1.88" style="stroke-width:1.07;stroke:#000;stroke-opacity:.1;stroke-linecap:butt"/><path d="m272.93 504.95-.51-1.84-.51-1.85-.49-1.85-.49-1.85-.48-1.85-.46-1.85-.46-1.84-.45-1.85-.43-1.86-.43-1.85-.42-1.85-.41-1.85-.39-1.85-.39-1.85-.38-1.85-.37-1.86-.35-1.85-.35-1.85-.34-1.86-.33-1.85-.32-1.86-.31-1.85-.3-1.86-.29-1.85-.27-1.86-.27-1.86-.26-1.85-.25-1.86-.24-1.86-.23-1.86-.22-1.85-.21-1.86-.2-1.86-.19-1.86-.18-1.86-.17-1.86-.17-1.86-.15-1.86-.14-1.86-.13-1.87-.12-1.86-.11-1.86-.1-1.86-.1-1.87-.08-1.86-.07-1.86-.06-1.87-.05-1.86-.05-1.87-.03-1.86-.02-1.87-.02-1.86v-1.87l.01-1.87.01-1.86.03-1.87.04-1.87.04-1.87.06-1.87.07-1.87.07-1.87.09-1.87.09-1.87.11-1.87.11-1.87.13-1.87.13-1.87.15-1.87.15-1.87.17-1.88.17-1.87.18-1.87.2-1.88.2-1.87.22-1.88.22-1.87.23-1.88.25-1.87.25-1.88.26-1.87.28-1.88.28-1.88.29-1.87.3-1.88.32-1.88.32-1.88.33-1.88.34-1.88.35-1.88.37-1.88.37-1.88.38-1.88.39-1.88.4-1.88.41-1.88.42-1.88.43-1.89.44-1.88.45-1.88" style="stroke-width:1.07;stroke:#000;stroke-opacity:.1;stroke-linecap:butt"/><path d="m272.93 504.95-.57-1.84-.57-1.85-.55-1.84-.54-1.85-.54-1.85-.52-1.84-.51-1.85-.5-1.85-.48-1.85-.48-1.85-.46-1.84-.46-1.85-.44-1.85-.43-1.85-.42-1.86-.41-1.85-.4-1.85-.39-1.85-.38-1.85-.36-1.86-.36-1.85-.34-1.85-.33-1.86-.32-1.85-.31-1.86-.3-1.85-.29-1.86-.28-1.85-.26-1.86-.26-1.86-.24-1.86-.23-1.85-.23-1.86-.21-1.86-.19-1.86-.19-1.86-.18-1.86-.17-1.86-.15-1.86-.14-1.86-.14-1.86-.12-1.87-.11-1.86-.1-1.86-.09-1.86-.07-1.87-.07-1.86-.05-1.87-.05-1.86-.03-1.87-.02-1.86-.01-1.87v-1.87l.01-1.86.02-1.87.04-1.87.04-1.87.06-1.86.06-1.87.08-1.87.09-1.87.1-1.87.11-1.87.13-1.87.13-1.88.15-1.87.15-1.87.17-1.87.18-1.88.19-1.87.2-1.87.21-1.88.22-1.87.23-1.88.25-1.87.25-1.88.27-1.88.28-1.87.29-1.88.3-1.88.31-1.88.32-1.87.33-1.88.35-1.88.35-1.88.37-1.88.38-1.88.39-1.88.4-1.89.41-1.88.42-1.88.43-1.88.45-1.89.45-1.88.47-1.88.48-1.89.48-1.88.5-1.89.51-1.88" style="stroke-width:1.07;stroke:#000;stroke-opacity:.1;stroke-linecap:butt"/><path d="m272.93 504.95-.63-1.84-.63-1.84-.61-1.85-.6-1.84-.59-1.84-.57-1.85-.56-1.85-.55-1.84-.54-1.85-.53-1.84-.51-1.85-.5-1.85-.49-1.85-.48-1.85-.46-1.85-.45-1.85-.44-1.85-.43-1.85-.41-1.85-.41-1.85-.39-1.85-.37-1.85-.37-1.86-.35-1.85-.34-1.85-.33-1.86-.32-1.85-.3-1.86-.29-1.85-.28-1.86-.27-1.86-.25-1.85-.25-1.86-.23-1.86-.21-1.86-.21-1.86-.19-1.86-.18-1.86-.17-1.86-.16-1.86-.14-1.86-.13-1.86-.12-1.86-.11-1.87-.09-1.86-.08-1.86-.07-1.87-.06-1.86-.05-1.87-.03-1.86-.02-1.87-.01-1.86.01-1.87.01-1.87.03-1.86.04-1.87.06-1.87.06-1.87.08-1.87.09-1.87.1-1.87.12-1.87.13-1.87.14-1.87.15-1.88.16-1.87.18-1.87.19-1.87.2-1.88.21-1.87.23-1.88.24-1.87.25-1.88.26-1.88.28-1.87.29-1.88.3-1.88.31-1.88.32-1.87.34-1.88.35-1.88.36-1.88.37-1.88.39-1.88.4-1.89.41-1.88.42-1.88.44-1.88.45-1.89.46-1.88.47-1.88.49-1.89.49-1.88.51-1.89.52-1.88.54-1.89.54-1.89.56-1.88.57-1.89" style="stroke-width:1.07;stroke:#000;stroke-opacity:.1;stroke-linecap:butt"/><path d="m350.71 453.81 7.48 12.96h-14.96zM320.83 149.33l1.91 3.32h-3.83zM402.76 288.25l3.52 6.1h-7.04zM223.24 136l3.52 6.1h-7.04zM156.85 421.28l4.7 8.14h-9.39zM154.93 240l1.92 3.31h-3.83z" style="stroke-width:.71;stroke:none;fill:#00ba38"/><path d="M267.38 510.51h11.11V499.4h-11.11z" style="stroke-width:.71;stroke:none;fill:#619cff"/><circle cx="269.69" cy="320.29" r="6.76" style="stroke-width:.71;stroke:none;fill:#f8766d"/><circle cx="55.97" cy="524.17" r="1.42" style="stroke-width:.71;stroke:none;fill:#f8766d"/><circle cx="522.77" cy="269.05" r="1.42" style="stroke-width:.71;stroke:none;fill:#f8766d"/><path d="m356.1 457.79-4.51 3.9M326.24 146.86l-4.54 3.92M397.54 297.03l4.36-3.94M218.06 144.74l4.32-3.9M162.09 421.97l-4.38 3.96M160.12 237.53l-4.33 3.9M278.38 500.34l-4.56 3.86M264.27 324.89l4.54-3.85M60.79 525.04l-3.58-.65" style="stroke-width:.53;stroke:#bfbfbf"/><path d="M342.45 457.79h51.56-.08l.34-.02.34-.07.33-.12.3-.17.27-.22.23-.26.19-.3.13-.32.09-.33.02-.35v-15.22l-.02-.35-.09-.34-.13-.32-.19-.29-.23-.26-.27-.22-.3-.17-.33-.13-.34-.07-.26-.01h-51.56l.27.01-.35-.01-.35.04-.33.1-.32.15-.28.2-.25.24-.21.27-.16.31-.11.33-.06.34-.01.18v15.22l.01-.17v.34l.06.35.11.33.16.3.21.28.25.24.28.2.32.15.33.1.35.04z" style="stroke-width:.53;fill:#fff;fill-opacity:.5"/><text x="368.23" y="446" lengthAdjust="spacingAndGlyphs" style="font-size:5.69px;font-family:&quot;Liberation Sans&quot;" text-anchor="middle" textLength="48.68">E&amp;J REAL ESTATE</text><text x="368.23" y="454.19" lengthAdjust="spacingAndGlyphs" style="font-size:5.69px;font-family:&quot;Liberation Sans&quot;" text-anchor="middle" textLength="37.62">RENTALS LLC</text><path d="M308.88 146.86h58.99-.08l.34-.02.34-.07.33-.12.3-.17.27-.22.23-.26.19-.3.13-.32.08-.33.03-.35v-15.22l-.03-.35-.08-.34-.13-.32-.19-.29-.23-.26-.27-.22-.3-.17-.33-.13-.34-.07-.26-.01h-58.99l.26.01-.34-.01-.35.04-.33.1-.32.15-.28.19-.25.24-.21.28-.16.31-.11.33-.06.34-.01.18v15.22l.01-.18v.35l.06.35.11.33.16.3.21.28.25.24.28.2.32.15.33.09.35.05z" style="stroke-width:.53;fill:#fff;fill-opacity:.5"/><text x="338.38" y="135.06" lengthAdjust="spacingAndGlyphs" style="font-size:5.69px;font-family:&quot;Liberation Sans&quot;" text-anchor="middle" textLength="56.11">LUIS PABLO FLORES</text><text x="338.38" y="143.26" lengthAdjust="spacingAndGlyphs" style="font-size:5.69px;font-family:&quot;Liberation Sans&quot;" text-anchor="middle" textLength="27.6">SANCHEZ</text><path d="M369.09 308.38h42.11l-.08-.01.35-.01.34-.07.32-.12.3-.18.27-.22.23-.26.19-.29.13-.32.09-.34.02-.34v-7.03l-.02-.35-.09-.33-.13-.32-.19-.3-.23-.26-.27-.22-.3-.17-.32-.13-.34-.07-.27-.01h-42.11l.26.01-.34-.01-.35.04-.33.1-.32.15-.28.2-.25.24-.21.27-.17.31-.11.33-.05.35-.01.17v7.03l.01-.18v.35l.05.34.11.33.17.31.21.28.25.24.28.2.32.15.33.09.35.04z" style="stroke-width:.53;fill:#fff;fill-opacity:.5"/><text x="390.15" y="304.78" lengthAdjust="spacingAndGlyphs" style="font-size:5.69px;font-family:&quot;Liberation Sans&quot;" text-anchor="middle" textLength="39.23">ELMA FLORES</text><path d="M185.66 156.09h50l-.09-.01.35-.01.34-.07.33-.12.3-.18.27-.22.23-.26.18-.29.14-.32.08-.34.03-.34v-7.03l-.03-.35-.08-.34-.14-.32-.18-.29-.23-.26-.27-.22-.3-.17-.33-.13-.34-.07-.26-.01h-50l.26.01-.35-.01-.34.04-.34.1-.31.15-.29.19-.25.25-.21.27-.16.31-.11.33-.06.34v7.21-.18.35l.06.34.11.33.16.31.21.28.25.24.29.2.31.14.34.1.34.04z" style="stroke-width:.53;fill:#fff;fill-opacity:.5"/><text x="210.66" y="152.49" lengthAdjust="spacingAndGlyphs" style="font-size:5.69px;font-family:&quot;Liberation Sans&quot;" text-anchor="middle" textLength="47.12">JOSE ZARAGOZA</text><path d="M141.91 421.97h55.08l-.08-.01.34-.01.35-.07.32-.12.3-.18.27-.22.23-.26.19-.29.13-.32.09-.34.02-.34v-7.03l-.02-.35-.09-.34-.13-.32-.19-.29-.23-.26-.27-.22-.3-.17-.32-.13-.35-.07-.26-.01h-55.08l.26.01-.34-.01-.35.04-.33.1-.32.15-.28.2-.25.24-.21.27-.16.31-.11.33-.06.34-.01.18v7.03l.01-.18v.35l.06.34.11.33.16.31.21.28.25.24.28.2.32.15.33.09.35.04z" style="stroke-width:.53;fill:#fff;fill-opacity:.5"/><text x="169.45" y="418.37" lengthAdjust="spacingAndGlyphs" style="font-size:5.69px;font-family:&quot;Liberation Sans&quot;" text-anchor="middle" textLength="52.2">JOSE F ZARAGOZA</text><path d="M140.08 237.53h54.91l-.09-.01.35-.01.34-.07.32-.12.3-.18.27-.22.23-.26.19-.29.14-.32.08-.34.03-.34v-7.03l-.03-.35-.08-.34-.14-.31-.19-.3-.23-.26-.27-.22-.3-.17-.32-.13-.34-.07-.26-.01h-54.91l.26.01-.35-.01-.34.04-.34.1-.31.15-.29.2-.25.24-.21.27-.16.31-.11.33-.05.35-.01.17v7.03l.01-.18v.35l.05.34.11.33.16.31.21.28.25.24.29.2.31.15.34.09.34.04z" style="stroke-width:.53;fill:#fff;fill-opacity:.5"/><text x="167.53" y="233.93" lengthAdjust="spacingAndGlyphs" style="font-size:5.69px;font-family:&quot;Liberation Sans&quot;" text-anchor="middle" textLength="52.03">JOSE F ZARAGORA</text><path d="M260.19 500.34h70.44l-.08-.01.34-.01.34-.07.33-.12.3-.18.27-.22.23-.26.19-.29.13-.32.09-.34.02-.34v-23.42l-.02-.35-.09-.33-.13-.32-.19-.3-.23-.26-.27-.22-.3-.17-.33-.13-.34-.06-.26-.02h-70.44l.26.02-.35-.02-.34.04-.34.1-.31.15-.29.2-.25.24-.21.27-.16.31-.11.33-.05.35-.01.17v23.42l.01-.18v.35l.05.34.11.33.16.31.21.28.25.24.29.2.31.14.34.1.34.04z" style="stroke-width:.53;fill:#fff;fill-opacity:.5"/><text x="295.41" y="480.35" lengthAdjust="spacingAndGlyphs" style="font-size:5.69px;font-family:&quot;Liberation Sans&quot;" text-anchor="middle" textLength="67.56">820 S CESAR E CHAVEZ</text><text x="295.41" y="488.54" lengthAdjust="spacingAndGlyphs" style="font-size:5.69px;font-family:&quot;Liberation Sans&quot;" text-anchor="middle" textLength="56.37">DR, MILWAUKEE, WI</text><text x="295.41" y="496.74" lengthAdjust="spacingAndGlyphs" style="font-size:5.69px;font-family:&quot;Liberation Sans&quot;" text-anchor="middle" textLength="18.11">53204</text><path d="M212.05 352.62h70.45-.09l.35-.01.34-.07.32-.13.3-.17.27-.22.23-.26.19-.29.13-.32.09-.34.03-.35v-23.41l-.03-.35-.09-.34-.13-.32-.19-.29-.23-.26-.27-.22-.3-.17-.32-.13-.34-.07-.26-.01h-70.45l.26.01-.35-.01-.34.04-.34.1-.31.15-.29.19-.25.24-.2.28-.17.31-.11.33-.05.34-.01.18v23.41l.01-.17v.35l.05.34.11.33.17.31.2.28.25.24.29.19.31.15.34.1.34.04z" style="stroke-width:.53;fill:#fff;fill-opacity:.5"/><text x="247.27" y="332.63" lengthAdjust="spacingAndGlyphs" style="font-size:5.69px;font-family:&quot;Liberation Sans&quot;" text-anchor="middle" textLength="67.56">820 S CESAR E CHAVEZ</text><text x="247.27" y="340.83" lengthAdjust="spacingAndGlyphs" style="font-size:5.69px;font-family:&quot;Liberation Sans&quot;" text-anchor="middle" textLength="56.37">DR, MILWAUKEE, WI</text><text x="247.27" y="349.02" lengthAdjust="spacingAndGlyphs" style="font-size:5.69px;font-family:&quot;Liberation Sans&quot;" text-anchor="middle" textLength="18.11">53204</text><path d="M62.95 538.92h68.93-.08l.34-.01.34-.07.33-.12.3-.18.27-.22.23-.26.19-.29.13-.32.09-.34.02-.35v-23.41l-.02-.35-.09-.34-.13-.32-.19-.29-.23-.26-.27-.22-.3-.17-.33-.13-.34-.07-.26-.01H62.95l.26.01-.35-.01-.34.04-.33.1-.32.15-.28.2-.26.24-.2.27-.17.31-.11.33-.05.34-.01.18v23.41l.01-.17v.35l.05.34.11.33.17.31.2.28.26.24.28.2.32.14.33.1.34.04z" style="stroke-width:.53;fill:#fff;fill-opacity:.5"/><text x="97.42" y="518.94" lengthAdjust="spacingAndGlyphs" style="font-size:5.69px;font-family:&quot;Liberation Sans&quot;" text-anchor="middle" textLength="66.05">820 S CAESAR CHAVEZ</text><text x="97.42" y="527.13" lengthAdjust="spacingAndGlyphs" style="font-size:5.69px;font-family:&quot;Liberation Sans&quot;" text-anchor="middle" textLength="56.37">DR, MILWAUKEE, WI</text><text x="97.42" y="535.32" lengthAdjust="spacingAndGlyphs" style="font-size:5.69px;font-family:&quot;Liberation Sans&quot;" text-anchor="middle" textLength="18.11">53204</text><path d="M442.84 278.49h72.94-.09l.35-.02.34-.07.33-.12.3-.17.27-.22.23-.26.18-.3.14-.32.08-.33.03-.35v-15.22l-.03-.35-.08-.34-.14-.32-.18-.29-.23-.26-.27-.22-.3-.17-.33-.13-.34-.07-.26-.01h-72.94l.26.01-.35-.01-.34.04-.34.1-.31.15-.29.19-.25.24-.21.28-.16.31-.11.33-.06.34v15.4-.18.35l.06.35.11.33.16.3.21.28.25.24.29.2.31.15.34.09.34.05z" style="stroke-width:.53;fill:#fff;fill-opacity:.5"/><text x="479.31" y="266.69" lengthAdjust="spacingAndGlyphs" style="font-size:5.69px;font-family:&quot;Liberation Sans&quot;" text-anchor="middle" textLength="70.06">2305 W EDGERTON AVE,</text><text x="479.31" y="274.89" lengthAdjust="spacingAndGlyphs" style="font-size:5.69px;font-family:&quot;Liberation Sans&quot;" text-anchor="middle" textLength="64.34">MILWAUKEE, WI 53221</text></g><g clip-path="url(#cpMC4wMHw1NzYuMDB8MC4wMHw1NzYuMDA=)"><circle cx="196.98" cy="95.78" r="1.95" style="stroke-width:.71;stroke:none;fill:#f8766d"/><path d="m273.33 92.74 2.63 4.56h-5.26z" style="stroke-width:.71;stroke:none;fill:#00ba38"/><path d="M339.31 97.74h3.91v-3.91h-3.91z" style="stroke-width:.71;stroke:none;fill:#619cff"/><text x="211.09" y="98.81" lengthAdjust="spacingAndGlyphs" style="font-size:8.8px;font-family:&quot;Liberation Sans Narrow&quot;" textLength="48.12">mprop address</text><text x="287.45" y="98.81" lengthAdjust="spacingAndGlyphs" style="font-size:8.8px;font-family:&quot;Liberation Sans Narrow&quot;" textLength="39.69">owner name</text><text x="355.38" y="98.81" lengthAdjust="spacingAndGlyphs" style="font-size:8.8px;font-family:&quot;Liberation Sans Narrow&quot;" textLength="40.5">wdfi address</text><text x="32.63" y="64.23" lengthAdjust="spacingAndGlyphs" style="font-size:12px;font-family:&quot;Liberation Sans Narrow&quot;" textLength="252.23">includes 23 parcels, 47 units, and 6 distinct owner names.</text><text x="32.63" y="42.27" lengthAdjust="spacingAndGlyphs" style="font-size:18px;font-weight:700;font-family:&quot;Liberation Sans Narrow&quot;" textLength="286.75">E&amp;J REAL ESTATE RENTALS LLC Group</text></g></svg>