<svg xmlns="http://www.w3.org/2000/svg" class="svglite" width="768" height="768" viewBox="0 0 576 576"><defs><style>.svglite circle,.svglite line,.svglite polygon,.svglite polyline,.svglite rect{fill:none;stroke:#000;stroke-linecap:round;stroke-linejoin:round;stroke-miterlimit:10}.svglite text{white-space:pre}</style></defs><rect width="100%" height="100%" style="stroke:none;fill:#fff"/><defs><clipPath id="cpMC4wMHw1NzYuMDB8MC4wMHw1NzYuMDA="><path d="M0 0h576v576H0z"/></clipPath></defs><g clip-path="url(#cpMC4wMHw1NzYuMDB8MC4wMHw1NzYuMDA=)"><path style="stroke-width:1.07;stroke:none;fill:#fff" d="M0 0h576v576H0z"/></g><defs><clipPath id="cpMzIuNjN8NTQ2LjExfDEyMS43OHw1NDMuMzc="><path d="M32.63 121.78h513.48v421.59H32.63z"/></clipPath></defs><g clip-path="url(#cpMzIuNjN8NTQ2LjExfDEyMS43OHw1NDMuMzc=)"><path style="stroke-width:1.07;stroke:#000;stroke-opacity:.1;stroke-linecap:butt" d="m330.59 260.4-1.16 1.27-1.15 1.27-1.13 1.28-1.12 1.27-1.1 1.27-1.09 1.28-1.07 1.28-1.06 1.28-1.04 1.28-1.03 1.28-1.01 1.29-1 1.29-.98 1.28-.97 1.29-.95 1.29-.94 1.3-.92 1.29-.9 1.29-.89 1.3-.88 1.3-.86 1.3-.85 1.3-.83 1.31-.81 1.3-.8 1.31-.79 1.3-.77 1.31-.75 1.31-.74 1.32-.73 1.31-.71 1.32-.69 1.31-.68 1.32-.67 1.32-.65 1.33-.63 1.32-.62 1.32-.6 1.33-.59 1.33-.58 1.33-.55 1.33-.55 1.33-.53 1.34-.51 1.33-.5 1.34-.48 1.34-.47 1.34-.45 1.34-.44 1.34-.42 1.35-.41 1.35-.39 1.35-.38 1.34-.36 1.36-.35 1.35-.33 1.35-.32 1.36-.3 1.36-.29 1.36-.27 1.36-.25 1.36-.24 1.36-.23 1.37-.21 1.37-.2 1.36-.18 1.37-.16 1.38-.15 1.37-.14 1.37-.12 1.38-.11 1.38-.09 1.38-.07 1.38-.06 1.38-.05 1.39-.02 1.38-.02 1.39v1.39l.02 1.39.03 1.39.04 1.39.06 1.4.08 1.39.09 1.4.11 1.4.12 1.4.14 1.41.15 1.4.16 1.41.19 1.4.19 1.41.22 1.41.22 1.41.25 1.42.25 1.41.28 1.42.28 1.42.31 1.42.31 1.42M330.59 260.4l.95.81.95.8.97.79.96.79.98.78.98.78.99.77.99.77 1.01.77 1 .76 1.02.75 1.02.75 1.03.75 1.03.73 1.04.74 1.05.73 1.06.72 1.06.72 1.06.72 1.08.71 1.08.7 1.09.7 1.09.7 1.1.69 1.11.69 1.11.68 1.12.67 1.13.67 1.14.67 1.14.66 1.14.66 1.16.65 1.16.64 1.16.65 1.18.63 1.18.63 1.19.63 1.19.62 1.2.62 1.21.61 1.21.61 1.22.6 1.23.6 1.23.59 1.24.59 1.25.58 1.25.58 1.26.57 1.27.57 1.27.56 1.28.56 1.28.55 1.3.55 1.3.55 1.3.53 1.32.54 1.32.53 1.32.52 1.33.52 1.34.51 1.35.51 1.35.51 1.36.5 1.37.49 1.37.49 1.38.48 1.39.48 1.39.48 1.4.47 1.4.46 1.41.46 1.42.46 1.43.45 1.43.44 1.44.44 1.44.44 1.46.43 1.46.43 1.46.42 1.47.41 1.48.41 1.49.41 1.49.4 1.5.4 1.5.39 1.51.38 1.52.39 1.53.37 1.53.37 1.54.37 1.54.36 1.55.36 1.56.35 1.56.35 1.58.34 1.57.34 1.59.33 1.59.33 1.6.32"/><path style="stroke-width:1.07;stroke:#000;stroke-opacity:.1;stroke-linecap:butt" d="m330.59 260.4-1.09 1.28-1.08 1.28-1.07 1.28-1.05 1.28-1.03 1.28-1.03 1.28-1.01 1.29-1 1.28-.98 1.29-.97 1.29-.96 1.29-.94 1.29-.93 1.3-.91 1.29-.9 1.3-.89 1.29-.87 1.3-.86 1.3-.85 1.3-.83 1.31-.82 1.3-.81 1.31-.79 1.3-.78 1.31-.76 1.31-.75 1.31-.74 1.32-.72 1.31-.71 1.32-.7 1.31-.68 1.32-.67 1.32-.65 1.32-.65 1.33-.62 1.32-.62 1.33-.6 1.32-.58 1.33-.58 1.33-.56 1.33-.54 1.34-.53 1.33-.52 1.33-.51 1.34-.49 1.34-.48 1.34-.46 1.34-.45 1.34-.44 1.35-.42 1.34-.41 1.35-.39 1.35-.38 1.35-.37 1.35-.36 1.35-.34 1.35-.32 1.36-.32 1.35-.3 1.36-.28 1.36-.27 1.36-.26 1.36-.25 1.37-.23 1.36-.22 1.37-.2 1.37-.19 1.36-.18 1.38-.16 1.37-.15 1.37-.13 1.38-.13 1.37-.1 1.38-.1 1.38-.08 1.38-.07 1.38-.05 1.38-.04 1.39-.03 1.38-.01 1.39v1.39l.02 1.39.03 1.39.04 1.39.05 1.4.07 1.4.09 1.39.09 1.4.11 1.4.13 1.4.14 1.41.15 1.4.16 1.41.18 1.4.2 1.41.2 1.41.22 1.41.24 1.41.24 1.42M330.59 260.4l.98.79.98.77.99.78 1 .76 1 .77 1.01.76 1.01.75 1.02.75 1.03.75 1.03.74 1.04.74 1.04.73 1.05.73 1.06.72 1.06.72 1.07.71 1.08.71 1.08.71 1.08.7 1.09.7 1.1.69 1.11.69 1.11.68 1.11.68 1.13.67 1.13.67 1.13.67 1.14.66 1.15.66 1.15.65 1.16.65 1.16.64 1.17.64 1.18.63 1.18.63 1.19.63 1.2.62 1.2.62 1.2.61 1.22.61 1.22.6 1.22.6 1.23.59 1.24.59 1.24.59 1.25.58 1.26.57 1.26.58 1.26.56 1.28.57 1.28.56 1.28.55 1.29.55 1.3.54 1.3.54 1.31.54 1.32.53 1.32.53 1.33.52 1.33.52 1.34.52 1.34.5 1.36.51 1.35.5 1.37.5 1.37.49 1.37.49 1.38.48 1.39.48 1.39.47 1.4.47 1.41.46 1.41.47 1.42.45 1.42.45 1.43.45 1.44.44 1.44.44 1.45.43 1.45.43 1.46.43 1.47.42 1.47.41 1.48.42 1.48.4 1.49.4 1.5.4 1.5.4 1.51.39 1.51.38 1.52.38 1.53.38 1.53.37 1.54.36 1.54.37 1.55.35 1.56.36 1.56.35 1.57.34"/><path style="stroke-width:1.07;stroke:#000;stroke-opacity:.1;stroke-linecap:butt" d="m330.59 260.4-1.02 1.29-1.01 1.28-1 1.29-.98 1.29-.98 1.28-.96 1.29-.95 1.3-.93 1.29-.93 1.29-.91 1.3-.9 1.29-.89 1.3-.87 1.3-.86 1.3-.86 1.3-.83 1.3-.83 1.31-.81 1.3-.81 1.31-.79 1.3-.77 1.31-.77 1.31-.75 1.31-.74 1.32-.73 1.31-.72 1.32-.7 1.31-.69 1.32-.68 1.32-.67 1.32-.65 1.32-.65 1.32-.63 1.33-.62 1.32-.6 1.33-.6 1.32-.58 1.33-.57 1.33-.55 1.33-.55 1.34-.53 1.33-.52 1.34-.51 1.33-.5 1.34-.48 1.34-.47 1.34-.46 1.34-.45 1.34-.43 1.35-.43 1.34-.41 1.35-.39 1.35-.39 1.35-.37 1.35-.36 1.35-.35 1.35-.34 1.35-.33 1.36-.31 1.36-.3 1.35-.29 1.36-.27 1.36-.27 1.36-.25 1.37-.24 1.36-.22 1.37-.22 1.36-.2 1.37-.19 1.37-.18 1.37-.16 1.37-.16 1.38-.14 1.37-.13 1.37-.11 1.38-.11 1.38-.09 1.38-.08 1.38-.07 1.38-.05 1.38-.05 1.39-.03 1.38-.02 1.39V374l.02 1.39.03 1.39.04 1.39.06 1.4.06 1.39.08 1.4.09 1.4.11 1.4.11 1.4.13 1.4.14 1.4.15 1.41.17 1.4.17 1.41M330.59 260.4l1.01.76 1.01.76 1.02.75 1.02.75 1.03.74 1.04.74 1.04.74 1.04.73 1.05.73 1.06.72 1.06.72 1.07.72 1.07.71 1.08.7 1.08.71 1.09.7 1.1.69 1.09.69 1.11.69 1.11.68 1.12.68 1.12.68 1.12.67 1.14.67 1.13.66 1.15.66 1.15.66 1.15.65 1.16.64 1.16.65 1.17.64 1.18.63 1.18.63 1.19.63 1.19.62 1.19.62 1.21.62 1.21.61 1.21.61 1.22.6 1.22.6 1.23.59 1.24.6 1.24.58 1.24.59 1.25.57 1.26.58 1.26.57 1.27.57 1.27.56 1.28.56 1.29.55 1.29.56 1.29.54 1.3.55 1.31.53 1.31.54 1.31.53 1.33.53 1.32.52 1.34.52 1.33.51 1.35.51 1.35.51 1.35.5 1.36.5 1.37.5 1.37.49 1.37.49 1.38.48 1.39.48 1.39.47 1.4.47 1.41.47 1.4.46 1.42.46 1.42.45 1.42.46 1.43.44 1.44.44 1.44.44 1.45.44 1.45.43 1.46.42 1.46.43 1.47.42 1.47.41 1.48.41 1.48.41 1.49.4 1.5.4 1.5.39 1.51.39 1.51.39 1.51.38 1.53.38 1.53.37 1.53.37 1.54.37M330.59 260.4l.51-1.2.51-1.21.51-1.21.51-1.2.51-1.21.51-1.21.52-1.2.51-1.21.51-1.21.51-1.2.51-1.21.51-1.21.51-1.2.51-1.21.51-1.21.51-1.2.51-1.21.51-1.21.51-1.2.51-1.21.51-1.21.51-1.2.51-1.21.51-1.21.52-1.2.51-1.21.51-1.21.51-1.2.51-1.21.51-1.2.51-1.21.51-1.21.51-1.2.51-1.21.51-1.21.51-1.2.51-1.21.51-1.21.51-1.2.51-1.21.51-1.21.51-1.2.52-1.21.51-1.21.51-1.2.51-1.21.51-1.21.51-1.2.51-1.21.51-1.21.51-1.2.51-1.21.51-1.21.51-1.2.51-1.21.51-1.21.51-1.2.51-1.21.51-1.21.51-1.2.51-1.21.52-1.21.51-1.2.51-1.21.51-1.21.51-1.2.51-1.21.51-1.21.51-1.2.51-1.21.51-1.21.51-1.2.51-1.21.51-1.21.51-1.2.51-1.21.51-1.21.51-1.2.51-1.21.52-1.21.51-1.2.51-1.21.51-1.21.51-1.2.51-1.21.51-1.21.51-1.2.51-1.21.51-1.21.51-1.2.51-1.21.51-1.21.51-1.2.51-1.21.51-1.21.51-1.2.51-1.21.52-1.21.51-1.2"/><path style="stroke-width:1.07;stroke:#000;stroke-opacity:.1;stroke-linecap:butt" d="m330.59 260.4 1.04.74 1.04.74 1.05.73 1.05.72 1.05.73 1.07.72 1.06.71 1.07.72 1.08.71 1.08.7 1.08.7 1.09.7 1.1.7 1.1.69 1.1.69 1.11.68 1.12.68 1.11.68 1.13.67 1.13.67 1.13.67 1.14.66 1.14.66 1.15.66 1.15.65 1.16.65 1.16.64 1.17.64 1.17.64 1.18.64 1.18.63 1.18.62 1.2.63 1.19.62 1.2.61 1.21.62 1.21.61 1.21.6 1.22.6 1.23.6 1.23.6 1.23.59 1.24.59 1.25.58 1.25.58 1.25.58 1.26.57 1.26.57 1.27.57 1.27.56 1.28.56 1.28.56 1.29.55 1.29.55 1.3.55 1.3.54 1.31.54 1.31.53 1.32.53 1.32.53 1.32.52 1.34.52 1.33.52 1.34.51 1.35.51 1.35.51 1.35.5 1.36.5 1.37.49 1.37.5 1.37.48 1.38.49 1.38.48 1.39.48 1.4.47 1.39.47 1.41.47 1.41.46 1.41.46 1.42.46 1.42.45 1.43.45 1.43.44 1.43.44 1.45.44 1.44.44 1.45.43 1.46.42 1.46.43 1.47.42 1.47.42 1.47.41 1.48.41 1.49.4 1.49.41 1.49.4 1.5.39 1.51.39 1.51.39M434.45 496.89l-1.36-1.09-1.37-1.09-1.36-1.1-1.37-1.09-1.37-1.09-1.38-1.09-1.37-1.08-1.38-1.09-1.38-1.09-1.38-1.08-1.39-1.09-1.38-1.08-1.39-1.08-1.39-1.08-1.4-1.08-1.39-1.08-1.4-1.08-1.4-1.07-1.4-1.08-1.41-1.07-1.41-1.08-1.4-1.07-1.42-1.07-1.41-1.07-1.42-1.07-1.41-1.07-1.42-1.07-1.43-1.06-1.42-1.07-1.43-1.06-1.43-1.06-1.43-1.07-1.43-1.06-1.44-1.06-1.44-1.06-1.44-1.06-1.44-1.05-1.44-1.06-1.45-1.05-1.45-1.06-1.45-1.05-1.46-1.05-1.45-1.05-1.46-1.05-1.46-1.05-1.46-1.05-1.47-1.05-1.47-1.04-1.47-1.05-1.47-1.04-1.47-1.04-1.48-1.04-1.48-1.04-1.48-1.04-1.48-1.04-1.48-1.04-1.49-1.04-1.49-1.03-1.49-1.03-1.5-1.04-1.49-1.03-1.5-1.03-1.5-1.03-1.51-1.03-1.5-1.03-1.51-1.03-1.51-1.02-1.51-1.03-1.51-1.02-1.52-1.02-1.52-1.03-1.52-1.02-1.52-1.02-1.53-1.02-1.53-1.01-1.53-1.02-1.53-1.02-1.53-1.01-1.54-1.01-1.54-1.02-1.54-1.01-1.54-1.01-1.55-1.01-1.54-1.01-1.55-1-1.56-1.01-1.55-1.01-1.56-1-1.56-1-1.56-1.01-1.56-1-1.57-1-1.56-1-1.57-1-1.58-.99-1.57-1-1.58-.99-1.58-1-1.58-.99M522.77 414.93l-2.36-.21-2.37-.22-2.36-.22-2.36-.21-2.37-.22-2.36-.21-2.36-.22-2.37-.21-2.36-.22-2.37-.22-2.36-.21-2.36-.22-2.37-.21-2.36-.22-2.37-.21-2.36-.22-2.36-.22-2.37-.21-2.36-.22-2.36-.21-2.37-.22-2.36-.21-2.37-.22-2.36-.22-2.36-.21-2.37-.22-2.36-.21-2.37-.22-2.36-.21-2.36-.22-2.37-.22-2.36-.21-2.36-.22-2.37-.21-2.36-.22-2.37-.21-2.36-.22-2.36-.21-2.37-.22-2.36-.22-2.36-.21-2.37-.22-2.36-.21-2.37-.22-2.36-.21-2.36-.22-2.37-.22-2.36-.21-2.37-.22-2.36-.21-2.36-.22-2.37-.21-2.36-.22-2.36-.22-2.37-.21-2.36-.22-2.37-.21-2.36-.22-2.36-.21-2.37-.22-2.36-.22-2.37-.21-2.36-.22-2.36-.21-2.37-.22-2.36-.21-2.36-.22-2.37-.22-2.36-.21-2.37-.22-2.36-.21-2.36-.22-2.37-.21-2.36-.22-2.36-.22-2.37-.21-2.36-.22-2.37-.21-2.36-.22-2.36-.21-2.37-.22-2.36-.21-2.37-.22-2.36-.22-2.36-.21-2.37-.22-2.36-.21-2.36-.22-2.37-.21-2.36-.22-2.37-.22-2.36-.21-2.36-.22-2.37-.21-2.36-.22-2.37-.21-2.36-.22-2.36-.22-2.37-.21"/><path style="stroke-width:1.07;stroke:#000;stroke-opacity:.1;stroke-linecap:butt" d="m330.59 260.4-.95 1.29-.94 1.3-.93 1.29-.92 1.29-.91 1.3-.9 1.3-.88 1.29-.88 1.3-.86 1.3-.86 1.3-.84 1.3-.83 1.31-.83 1.3-.81 1.31-.8 1.3-.79 1.31-.78 1.31-.76 1.31-.76 1.31-.75 1.31-.73 1.31-.73 1.32-.71 1.31-.71 1.32-.69 1.32-.68 1.32-.67 1.32-.66 1.32-.65 1.32-.64 1.32-.63 1.33-.61 1.32-.61 1.33-.6 1.32-.58 1.33-.57 1.33-.57 1.33-.55 1.33-.54 1.34-.53 1.33-.52 1.34-.51 1.33-.5 1.34-.48 1.34-.48 1.34-.47 1.34-.45 1.34-.45 1.34-.43 1.35-.42 1.34-.41 1.35-.41 1.35-.39 1.35-.37 1.35-.37 1.35-.36 1.35-.35 1.35-.33 1.36-.33 1.35-.31 1.36-.31 1.35-.29 1.36-.28 1.36-.28 1.36-.26 1.37-.25 1.36-.24 1.36-.22 1.37-.22 1.36-.21 1.37-.19 1.37-.19 1.37-.17 1.37-.17 1.37-.15 1.37-.14 1.38-.13 1.37-.12 1.38-.11 1.38-.1 1.38-.09 1.38-.08 1.38-.06 1.38-.06 1.38-.04 1.39-.04 1.38-.02 1.39-.01 1.38v1.39l.01 1.39.02 1.39.03 1.39.04 1.4.05 1.39.06 1.4.08 1.39.08 1.4.1 1.4.1 1.4M330.59 260.4l1.07.72 1.07.71 1.07.71 1.08.71 1.09.7 1.08.7 1.1.7 1.09.69 1.1.7 1.11.68 1.1.69 1.12.68 1.11.68 1.13.67 1.12.68 1.13.66 1.13.67 1.14.66 1.15.66 1.14.66 1.15.65 1.16.65 1.16.65 1.16.65 1.17.64 1.17.63 1.18.64 1.18.63 1.18.63 1.19.62 1.19.63 1.2.62 1.2.61 1.21.62 1.21.61 1.21.6 1.22.61 1.22.6 1.23.59 1.23.6 1.23.59 1.24.59 1.25.58 1.25.58 1.25.58 1.25.58 1.26.57 1.27.57 1.27.56 1.27.57 1.28.56 1.28.55 1.29.56 1.28.55 1.3.55 1.3.54 1.3.54 1.31.54 1.31.53 1.31.54 1.32.52 1.33.53 1.32.52 1.34.52 1.33.52 1.34.51 1.35.51 1.35.51 1.35.5 1.36.5 1.36.5 1.37.49 1.37.5 1.37.48 1.38.49 1.38.48 1.39.48 1.39.47 1.39.48 1.4.47 1.41.46 1.41.47 1.41.46 1.41.45 1.43.46 1.42.45 1.43.44 1.43.45 1.44.44 1.44.44 1.45.43 1.45.44 1.45.42 1.46.43 1.46.42 1.47.42 1.47.42 1.48.41 1.48.41"/><path style="stroke-width:1.07;stroke:#000;stroke-opacity:.1;stroke-linecap:butt" d="m330.59 260.4-.88 1.3-.87 1.3-.86 1.3-.86 1.3-.84 1.3-.83 1.31-.83 1.3-.81 1.31-.81 1.3-.8 1.31-.79 1.31-.77 1.3-.77 1.31-.76 1.31-.75 1.32-.74 1.31-.73 1.31-.73 1.32-.71 1.31-.7 1.32-.7 1.32-.68 1.31-.68 1.32-.66 1.32-.66 1.32-.64 1.33-.64 1.32-.63 1.32-.62 1.33-.61 1.32-.6 1.33-.59 1.33-.58 1.33-.57 1.33-.57 1.33-.55 1.33-.55 1.33-.53 1.34-.53 1.33-.51 1.34-.51 1.33-.5 1.34-.48 1.34-.48 1.34-.47 1.34-.46 1.34-.45 1.34-.44 1.35-.44 1.34-.42 1.35-.41 1.34-.41 1.35-.39 1.35-.39 1.35-.37 1.35-.37 1.35-.36 1.35-.34 1.35-.34 1.36-.33 1.35-.32 1.36-.31 1.35-.3 1.36-.29 1.36-.29 1.36-.27 1.36-.26 1.36-.26 1.36-.24 1.37-.24 1.36-.22 1.37-.22 1.36-.21 1.37-.2 1.37-.18 1.37-.18 1.37-.17 1.37-.16 1.37-.16 1.37-.14 1.38-.13 1.37-.12 1.38-.12 1.38-.1 1.37-.1 1.38-.08 1.38-.08 1.38-.07 1.39-.05 1.38-.05 1.38-.04 1.39-.03 1.38-.02 1.39-.01 1.39V389.4l.02 1.39.03 1.4.03 1.39M330.59 260.4l1.1.7 1.1.69 1.1.69 1.11.68 1.11.69 1.11.68 1.12.68 1.12.67 1.13.67 1.12.67 1.14.67 1.13.67 1.14.66 1.14.66 1.15.65 1.15.66 1.15.65 1.16.65 1.16.64 1.17.65 1.17.64 1.17.64 1.17.63 1.18.63 1.19.63 1.18.63 1.19.63 1.2.62 1.19.62 1.2.61 1.21.62 1.21.61 1.21.61 1.21.6 1.22.61 1.22.6 1.23.59 1.23.6 1.23.59 1.24.59 1.24.59 1.24.58 1.25.58 1.25.58 1.26.58 1.26.57 1.26.57 1.27.57 1.27.57 1.27.56 1.28.56 1.28.56 1.28.55 1.29.56 1.29.55 1.29.54 1.3.55 1.3.54 1.31.54 1.31.53 1.31.54 1.32.53 1.32.53 1.32.52 1.33.53 1.33.52 1.33.51 1.34.52 1.34.51 1.35.51 1.35.51 1.35.5 1.36.5 1.36.5 1.36.5 1.37.49 1.37.49 1.37.49 1.38.48 1.38.49 1.39.48 1.39.48 1.39.47 1.39.47 1.4.47 1.41.47 1.4.46 1.41.46 1.42.46 1.42.46 1.42.45 1.42.45 1.43.45 1.43.45 1.44.44 1.44.44 1.44.43 1.45.44 1.45.43"/><path style="stroke-width:1.07;stroke:#000;stroke-opacity:.1;stroke-linecap:butt" d="m330.59 260.4-.81 1.31-.8 1.31-.8 1.3-.78 1.31-.78 1.31-.77 1.31-.77 1.31-.75 1.31-.75 1.31-.74 1.31-.73 1.32-.72 1.31-.72 1.32-.71 1.31-.69 1.32-.7 1.32-.68 1.31-.68 1.32-.66 1.32-.66 1.32-.66 1.33-.64 1.32-.64 1.32-.63 1.33-.62 1.32-.61 1.33-.6 1.32-.6 1.33-.59 1.33-.58 1.33-.57 1.33-.57 1.33-.56 1.33-.54 1.33-.55 1.33-.53 1.34-.52 1.33-.52 1.34-.51 1.33-.5 1.34-.5 1.34-.48 1.34-.48 1.34-.47 1.34-.46 1.34-.46 1.34-.44 1.34-.44 1.35-.43 1.34-.43 1.35-.41 1.34-.41 1.35-.4 1.35-.39 1.35-.38 1.34-.38 1.35-.36 1.36-.36 1.35-.35 1.35-.35 1.35-.33 1.36-.33 1.35-.32 1.36-.31 1.35-.31 1.36-.29 1.36-.29 1.36-.28 1.36-.27 1.36-.27 1.36-.25 1.36-.25 1.37-.24 1.36-.23 1.37-.23 1.36-.22 1.37-.2 1.36-.21 1.37-.19 1.37-.18 1.37-.18 1.37-.17 1.37-.16 1.37-.15 1.38-.15 1.37-.14 1.38-.13 1.37-.12 1.38-.11 1.37-.11 1.38-.1 1.38-.09 1.38-.08 1.38-.07 1.38-.07 1.38-.06 1.39-.05 1.38-.04 1.38-.04 1.39M330.59 260.4l1.13.68 1.13.67 1.13.66 1.13.67 1.14.66 1.14.66 1.14.66 1.15.66 1.15.65 1.15.66 1.16.65 1.16.64 1.16.65 1.16.64 1.17.64 1.17.64 1.17.64 1.18.63 1.18.64 1.18.63 1.19.62 1.19.63 1.19.62 1.19.62 1.2.62 1.2.62 1.21.61 1.2.61 1.21.61 1.22.61 1.21.61 1.22.6 1.22.6 1.23.6 1.23.6 1.23.59 1.23.59 1.24.59 1.24.59 1.24.59 1.25.58 1.25.58 1.25.58 1.25.57 1.26.58 1.26.57 1.27.57 1.26.57 1.27.56 1.28.57 1.27.56 1.28.55 1.28.56 1.29.56 1.29.55 1.29.55 1.29.54 1.3.55 1.3.54 1.3.54 1.31.54 1.31.54 1.31.53 1.32.53 1.31.53 1.33.53 1.32.53 1.33.52 1.33.52 1.33.52 1.34.51 1.34.52 1.34.51 1.34.51 1.35.51 1.35.5 1.36.5 1.36.5 1.36.5 1.36.5 1.37.49 1.37.49 1.37.49 1.37.49 1.38.49 1.38.48 1.39.48 1.39.48 1.39.47 1.39.48 1.4.47 1.4.47 1.4.47 1.4.46 1.41.46 1.41.46 1.42.46 1.42.46 1.42.45"/><path style="stroke-width:1.07;stroke:#000;stroke-opacity:.1;stroke-linecap:butt" d="m330.59 260.4-.74 1.32-.73 1.31-.73 1.31-.72 1.32-.71 1.31-.71 1.32-.7 1.32-.7 1.31-.69 1.32-.68 1.32-.67 1.32-.67 1.32-.66 1.32-.66 1.32-.65 1.32-.64 1.32-.64 1.33-.63 1.32-.62 1.33-.62 1.32-.61 1.33-.6 1.32-.6 1.33-.59 1.33-.58 1.33-.58 1.33-.57 1.33-.57 1.33-.56 1.33-.55 1.33-.55 1.33-.54 1.34-.53 1.33-.52 1.33-.52 1.34-.52 1.34-.5 1.33-.5 1.34-.5 1.34-.49 1.34-.48 1.34-.47 1.34-.47 1.34-.46 1.34-.46 1.34-.44 1.34-.45 1.34-.43 1.35-.43 1.34-.42 1.35-.42 1.34-.41 1.35-.4 1.35-.4 1.35-.39 1.34-.38 1.35-.38 1.35-.37 1.35-.36 1.35-.36 1.36-.35 1.35-.35 1.35-.34 1.36-.33 1.35-.32 1.36-.32 1.35-.32 1.36-.3 1.36-.3 1.35-.29 1.36-.29 1.36-.28 1.36-.28 1.36-.26 1.36-.26 1.36-.26 1.37-.25 1.36-.24 1.36-.23 1.37-.23 1.36-.22 1.37-.22 1.37-.21 1.36-.2 1.37-.19 1.37-.19 1.37-.19 1.37-.17 1.37-.17 1.37-.17 1.37-.15 1.37-.15 1.38-.15 1.37-.14 1.38-.13 1.37-.12 1.38-.12 1.37-.11 1.38-.11 1.38M330.59 260.4l1.16.65 1.15.65 1.16.65 1.17.64 1.16.65 1.17.64 1.17.64 1.17.64 1.17.63 1.18.64 1.18.63 1.18.63 1.18.63 1.19.63 1.19.62 1.19.63 1.19.62 1.2.62 1.2.62 1.2.61 1.2.62 1.21.61 1.21.61 1.21.61 1.21.61 1.22.6 1.21.61 1.22.6 1.23.6 1.22.6 1.23.6 1.23.59 1.23.6 1.23.59 1.24.59 1.24.58 1.24.59 1.25.59 1.24.58 1.25.58 1.25.58 1.26.58 1.25.57 1.26.57 1.26.58 1.27.57 1.26.56 1.27.57 1.27.57 1.27.56 1.28.56 1.28.56 1.28.56 1.28.55 1.29.56 1.28.55 1.29.55 1.3.55 1.29.55 1.3.54 1.3.54 1.3.55 1.3.54 1.31.53 1.31.54 1.31.53 1.32.54 1.31.53 1.32.53 1.32.52 1.33.53 1.32.52 1.33.53 1.33.52 1.33.51 1.34.52 1.34.52 1.34.51 1.34.51 1.35.51 1.35.51 1.35.5 1.35.51 1.35.5 1.36.5 1.36.5 1.36.5 1.37.49 1.36.5 1.37.49 1.38.49 1.37.48 1.38.49 1.38.49 1.38.48 1.38.48 1.39.48 1.39.48 1.39.47"/><path style="stroke-width:1.07;stroke:#000;stroke-opacity:.1;stroke-linecap:butt" d="m122.02 304.07 1.69.9 1.68.9 1.68.91 1.69.9 1.68.91 1.69.9 1.68.91 1.69.9 1.68.9 1.68.91 1.69.9 1.68.91 1.69.9 1.68.9 1.68.91 1.69.9 1.68.91 1.69.9 1.68.91 1.69.9 1.68.9 1.68.91 1.69.9 1.68.91 1.69.9 1.68.9 1.68.91 1.69.9 1.68.91 1.69.9 1.68.91 1.69.9 1.68.9 1.68.91 1.69.9 1.68.91 1.69.9 1.68.9 1.68.91 1.69.9 1.68.91 1.69.9 1.68.91 1.69.9 1.68.9 1.68.91 1.69.9 1.68.91 1.69.9 1.68.9 1.68.91 1.69.9 1.68.91 1.69.9 1.68.91 1.68.9 1.69.9 1.68.91 1.69.9 1.68.91 1.69.9 1.68.9 1.68.91 1.69.9 1.68.91 1.69.9 1.68.91 1.68.9 1.69.9 1.68.91 1.69.9 1.68.91 1.69.9 1.68.9 1.68.91 1.69.9 1.68.91 1.69.9 1.68.91 1.68.9 1.69.9 1.68.91 1.69.9 1.68.91 1.69.9 1.68.9 1.68.91 1.69.9 1.68.91 1.69.9 1.68.91 1.68.9 1.69.9 1.68.91 1.69.9 1.68.91 1.69.9 1.68.9 1.68.91"/><path style="stroke-width:1.07;stroke:#000;stroke-opacity:.1;stroke-linecap:butt" d="m330.59 260.4-.67 1.32-.66 1.32-.66 1.33-.66 1.32-.65 1.32-.64 1.32-.64 1.32-.63 1.33-.63 1.32-.63 1.33-.62 1.32-.61 1.33-.61 1.32-.6 1.33-.6 1.33-.6 1.32-.58 1.33-.59 1.33-.58 1.33-.57 1.33-.57 1.33-.56 1.33-.56 1.33-.55 1.33-.55 1.33-.55 1.34-.54 1.33-.53 1.33-.53 1.34-.52 1.33-.52 1.34-.51 1.34-.51 1.33-.5 1.34-.5 1.34-.49 1.33-.49 1.34-.49 1.34-.47 1.34-.48 1.34-.47 1.34-.46 1.34-.46 1.34-.45 1.35-.45 1.34-.44 1.34-.44 1.35-.43 1.34-.43 1.34-.42 1.35-.42 1.35-.41 1.34-.41 1.35-.4 1.35-.4 1.34-.39 1.35-.39 1.35-.38 1.35-.38 1.35-.37 1.35-.37 1.35-.36 1.35-.36 1.35-.35 1.36-.34 1.35-.35 1.35-.33 1.36-.34 1.35-.32 1.36-.32 1.35-.32 1.36-.31 1.35-.31 1.36-.3 1.36-.3 1.36-.29 1.36-.29 1.36-.28 1.36-.27 1.36-.28 1.36-.26 1.36-.26 1.36-.26 1.36-.25 1.36-.25 1.37-.24 1.36-.23 1.37-.24 1.36-.22 1.37-.22 1.36-.22 1.37-.21 1.37-.21 1.36-.2 1.37-.19 1.37-.19 1.37-.19 1.37-.18 1.37-.18 1.37M330.59 260.4l1.19.63 1.18.63 1.19.63 1.19.62 1.19.62 1.2.63 1.19.62 1.2.62 1.2.61 1.2.62 1.2.61 1.21.62 1.2.61 1.21.61 1.21.61 1.21.61 1.21.61 1.22.6 1.22.61 1.22.6 1.22.6 1.22.6 1.22.6 1.23.6 1.23.6 1.23.59 1.23.6 1.23.59 1.24.59 1.23.59 1.24.59 1.24.58 1.25.59 1.24.58 1.25.59 1.24.58 1.25.58 1.25.58 1.26.58 1.25.57 1.26.58 1.26.57 1.26.57 1.26.57 1.26.57 1.27.57 1.27.57 1.27.57 1.27.56 1.27.56 1.28.56 1.27.56 1.28.56 1.28.56 1.28.56 1.29.55 1.28.56 1.29.55 1.29.55 1.29.55 1.3.55 1.29.54 1.3.55 1.3.54 1.3.55 1.3.54 1.3.54 1.31.54 1.3.54 1.31.53 1.31.54 1.32.53 1.31.53 1.32.53 1.32.53 1.32.53 1.32.53 1.32.52 1.33.53 1.33.52 1.32.52 1.34.52 1.33.52 1.33.52 1.34.52 1.34.51 1.34.51 1.34.52 1.34.51 1.35.51 1.34.5 1.35.51 1.35.51 1.36.5 1.35.5 1.36.5 1.36.51 1.36.49 1.36.5M434.45 496.89l-1.42-1.07-1.41-1.06-1.42-1.07-1.42-1.07-1.42-1.07-1.43-1.06-1.42-1.07-1.43-1.06-1.42-1.07-1.43-1.06-1.43-1.07-1.43-1.06-1.43-1.06-1.43-1.06-1.43-1.07-1.43-1.06-1.44-1.06-1.43-1.06-1.44-1.06-1.44-1.06-1.44-1.05-1.44-1.06-1.44-1.06-1.44-1.06-1.45-1.05-1.44-1.06-1.45-1.05-1.45-1.06-1.44-1.05-1.45-1.06-1.45-1.05-1.46-1.05-1.45-1.06-1.45-1.05-1.46-1.05-1.45-1.05-1.46-1.05-1.46-1.05-1.46-1.05-1.46-1.05-1.46-1.05-1.46-1.04-1.47-1.05-1.46-1.05-1.47-1.04-1.47-1.05-1.46-1.05-1.47-1.04-1.47-1.04-1.48-1.05-1.47-1.04-1.47-1.04-1.48-1.05-1.47-1.04-1.48-1.04-1.48-1.04-1.48-1.04-1.48-1.04-1.48-1.04-1.48-1.03-1.49-1.04-1.48-1.04-1.49-1.04-1.49-1.03-1.48-1.04-1.49-1.03-1.5-1.04-1.49-1.03-1.49-1.04-1.49-1.03-1.5-1.03-1.5-1.04-1.49-1.03-1.5-1.03-1.5-1.03-1.5-1.03-1.5-1.03-1.51-1.03-1.5-1.03-1.51-1.03-1.5-1.02-1.51-1.03-1.51-1.03-1.51-1.02-1.51-1.03-1.51-1.02-1.51-1.03-1.52-1.02-1.51-1.02-1.52-1.03-1.52-1.02-1.52-1.02-1.51-1.02-1.53-1.02-1.52-1.02-1.52-1.02-1.52-1.02-1.53-1.02-1.53-1.02"/><path style="stroke-width:1.07;stroke:#000;stroke-opacity:.1;stroke-linecap:butt" d="m330.59 260.4-.6 1.33-.59 1.33-.59 1.33-.59 1.32-.59 1.33-.58 1.33-.58 1.33-.57 1.33-.57 1.33-.57 1.33-.56 1.33-.56 1.33-.55 1.33-.56 1.34-.54 1.33-.55 1.33-.54 1.33-.54 1.34-.53 1.33-.53 1.34-.53 1.33-.52 1.33-.52 1.34-.52 1.34-.51 1.33-.51 1.34-.51 1.33-.5 1.34-.5 1.34-.49 1.34-.49 1.34-.49 1.33-.48 1.34-.48 1.34-.48 1.34-.47 1.34-.47 1.34-.47 1.34-.46 1.34-.46 1.35-.45 1.34-.46 1.34-.44 1.34-.45 1.35-.44 1.34-.43 1.34-.44 1.35-.43 1.34-.42 1.35-.43 1.34-.42 1.35-.41 1.34-.41 1.35-.41 1.35-.41 1.34-.4 1.35-.39 1.35-.4 1.35-.39 1.34-.38 1.35-.39 1.35-.38 1.35-.37 1.35-.38 1.35-.36 1.35-.37 1.35-.36 1.36-.36 1.35-.35 1.35-.35 1.35-.35 1.36-.34 1.35-.34 1.35-.34 1.36-.33 1.35-.33 1.36-.33 1.35-.32 1.36-.32 1.35-.31 1.36-.31 1.36-.31 1.35-.3 1.36-.3 1.36-.3 1.36-.29 1.35-.29 1.36-.29 1.36-.28 1.36-.28 1.36-.28 1.36-.27 1.36-.26 1.36-.27 1.37-.26 1.36-.26 1.36-.25 1.36-.25 1.37-.25 1.36M330.59 260.4l1.22.61 1.21.61 1.22.6 1.21.61 1.22.6 1.22.6 1.23.6 1.22.6 1.22.6 1.23.6 1.22.6 1.23.6 1.23.59 1.23.6 1.23.59 1.23.59 1.23.6 1.24.59 1.23.59 1.24.59 1.24.59 1.24.59 1.24.58 1.24.59 1.24.58 1.25.59 1.24.58 1.25.58 1.25.59 1.25.58 1.25.58 1.25.58 1.25.57 1.26.58 1.25.58 1.26.57 1.25.58 1.26.57 1.26.57 1.26.58 1.27.57 1.26.57 1.26.57 1.27.57 1.27.56 1.26.57 1.27.57 1.28.56 1.27.56 1.27.57 1.27.56 1.28.56 1.28.56 1.27.56 1.28.56 1.28.56 1.29.55 1.28.56 1.28.55 1.29.56 1.28.55 1.29.55 1.29.55 1.29.56 1.29.54 1.29.55 1.3.55 1.29.55 1.3.54 1.29.55 1.3.54 1.3.55 1.3.54 1.31.54 1.3.54 1.3.54 1.31.54 1.31.54 1.3.54 1.31.53 1.31.54 1.32.53 1.31.54 1.31.53 1.32.53 1.31.53 1.32.53 1.32.53 1.32.53 1.32.53 1.32.52 1.33.53 1.32.52 1.33.53 1.33.52 1.32.52 1.33.52 1.34.52 1.33.52M434.45 496.89l-1.47-1.04-1.47-1.04-1.47-1.05-1.48-1.04-1.47-1.04-1.47-1.05-1.47-1.04-1.47-1.05-1.47-1.04-1.48-1.04-1.47-1.05-1.47-1.04-1.47-1.04-1.47-1.05-1.47-1.04-1.48-1.04-1.47-1.05-1.47-1.04-1.47-1.05-1.47-1.04-1.47-1.04-1.48-1.05-1.47-1.04-1.47-1.04-1.47-1.05-1.47-1.04-1.47-1.04-1.48-1.05-1.47-1.04-1.47-1.04-1.47-1.05-1.47-1.04-1.47-1.05-1.48-1.04-1.47-1.04-1.47-1.05-1.47-1.04-1.47-1.04-1.47-1.05-1.48-1.04-1.47-1.04-1.47-1.05-1.47-1.04-1.47-1.04-1.47-1.05-1.48-1.04-1.47-1.05-1.47-1.04-1.47-1.04-1.47-1.05-1.48-1.04-1.47-1.04-1.47-1.05-1.47-1.04-1.47-1.04-1.47-1.05-1.48-1.04-1.47-1.04-1.47-1.05-1.47-1.04-1.47-1.05-1.47-1.04-1.48-1.04-1.47-1.05-1.47-1.04-1.47-1.04-1.47-1.05-1.47-1.04-1.48-1.04-1.47-1.05-1.47-1.04-1.47-1.04-1.47-1.05-1.47-1.04-1.48-1.05-1.47-1.04-1.47-1.04-1.47-1.05-1.47-1.04-1.47-1.04-1.48-1.05-1.47-1.04-1.47-1.04-1.47-1.05-1.47-1.04-1.47-1.04-1.48-1.05-1.47-1.04-1.47-1.05-1.47-1.04-1.47-1.04-1.47-1.05-1.48-1.04-1.47-1.04-1.47-1.05-1.47-1.04-1.47-1.04-1.47-1.05-1.48-1.04"/><path style="stroke-width:1.07;stroke:#000;stroke-opacity:.1;stroke-linecap:butt" d="m434.45 496.89-1.52-1.02-1.53-1.01-1.52-1.02-1.53-1.02-1.52-1.02-1.52-1.02-1.52-1.03-1.52-1.02-1.52-1.02-1.51-1.02-1.52-1.03-1.51-1.02-1.51-1.03-1.52-1.02-1.51-1.03-1.51-1.02-1.51-1.03-1.5-1.03-1.51-1.02-1.5-1.03-1.51-1.03-1.5-1.03-1.5-1.03-1.5-1.03-1.5-1.03-1.5-1.03-1.5-1.03-1.5-1.03-1.49-1.04-1.49-1.03-1.5-1.03-1.49-1.04-1.49-1.03-1.49-1.04-1.49-1.03-1.49-1.04-1.48-1.04-1.49-1.04-1.48-1.03-1.48-1.04-1.49-1.04-1.48-1.04-1.48-1.04-1.47-1.04-1.48-1.04-1.48-1.04-1.47-1.05-1.48-1.04-1.47-1.04-1.47-1.04-1.47-1.05-1.47-1.04-1.47-1.05-1.47-1.04-1.46-1.05-1.47-1.05-1.46-1.04-1.46-1.05-1.47-1.05-1.46-1.05-1.46-1.05-1.45-1.05-1.46-1.05-1.46-1.05-1.45-1.05-1.46-1.05-1.45-1.05-1.45-1.06-1.45-1.05-1.45-1.05-1.45-1.06-1.45-1.05-1.44-1.06-1.45-1.06-1.44-1.05-1.44-1.06-1.44-1.06-1.45-1.05-1.43-1.06-1.44-1.06-1.44-1.06-1.44-1.06-1.43-1.06-1.43-1.06-1.44-1.06-1.43-1.07-1.43-1.06-1.43-1.06-1.43-1.07-1.42-1.06-1.43-1.07-1.42-1.06-1.43-1.07-1.42-1.06-1.42-1.07-1.42-1.07-1.42-1.06-1.42-1.07-1.42-1.07M330.59 260.4l-.53 1.34-.52 1.33-.53 1.34-.52 1.33-.52 1.34-.52 1.33-.51 1.34-.52 1.33-.51 1.34-.51 1.34-.5 1.33-.51 1.34-.5 1.34-.5 1.33-.5 1.34-.49 1.34-.5 1.34-.49 1.34-.49 1.33-.49 1.34-.48 1.34-.48 1.34-.49 1.34-.47 1.34-.48 1.34-.48 1.34-.47 1.34-.47 1.34-.47 1.34-.46 1.34-.46 1.34-.47 1.34-.46 1.34-.45 1.35-.46 1.34-.45 1.34-.45 1.34-.45 1.34-.45 1.35-.44 1.34-.44 1.34-.44 1.35-.44 1.34-.44 1.34-.43 1.35-.43 1.34-.43 1.35-.43 1.34-.42 1.35-.42 1.34-.42 1.35-.42 1.34-.42 1.35-.41 1.34-.41 1.35-.41 1.35-.41 1.34-.41 1.35-.4 1.35-.4 1.35-.4 1.34-.4 1.35-.39 1.35-.39 1.35-.39 1.35-.39 1.35-.39 1.34-.38 1.35-.38 1.35-.38 1.35-.38 1.35-.37 1.35-.38 1.35-.37 1.35-.37 1.35-.36 1.36-.37 1.35-.36 1.35-.36 1.35-.36 1.35-.35 1.35-.36 1.36-.35 1.35-.35 1.35-.34 1.35-.35 1.36-.34 1.35-.34 1.35-.34 1.36-.34 1.35-.33 1.36-.33 1.35-.33 1.36-.33 1.35-.33 1.36-.32 1.35-.32 1.36-.32 1.35-.32 1.36M330.59 260.4l1.24.59 1.25.58 1.24.59 1.25.58 1.25.58 1.24.59 1.25.58 1.25.58 1.25.58 1.24.58 1.25.58 1.25.58 1.25.58 1.26.58 1.25.58 1.25.58 1.25.58 1.26.57 1.25.58 1.26.58 1.25.57 1.26.58 1.26.57 1.25.58 1.26.57 1.26.58 1.26.57 1.26.57 1.26.57 1.26.58 1.26.57 1.26.57 1.27.57 1.26.57 1.26.57 1.27.57 1.26.57 1.27.56 1.27.57 1.26.57 1.27.57 1.27.56 1.27.57 1.27.57 1.27.56 1.27.57 1.27.56 1.27.56 1.27.57 1.28.56 1.27.56 1.28.57 1.27.56 1.28.56 1.27.56 1.28.56 1.28.56 1.27.56 1.28.56 1.28.56 1.28.55 1.28.56 1.28.56 1.28.56 1.29.55 1.28.56 1.28.55 1.29.56 1.28.55 1.29.56 1.28.55 1.29.55 1.29.56 1.28.55 1.29.55 1.29.55 1.29.55 1.29.55 1.29.55 1.29.55 1.29.55 1.29.55 1.3.55 1.29.55 1.3.54 1.29.55 1.3.55 1.29.54 1.3.55 1.3.54 1.29.55 1.3.54 1.3.55 1.3.54 1.3.54 1.3.55 1.3.54 1.3.54 1.31.54"/><path style="stroke-width:1.07;stroke:#000;stroke-opacity:.1;stroke-linecap:butt" d="m330.59 260.4-.46 1.35-.45 1.34-.46 1.34-.46 1.34-.45 1.34-.46 1.34-.45 1.35-.45 1.34-.45 1.34-.45 1.34-.46 1.35-.45 1.34-.44 1.34-.45 1.34-.45 1.35-.45 1.34-.44 1.34-.45 1.34-.45 1.35-.44 1.34-.44 1.34-.45 1.35-.44 1.34-.44 1.34-.44 1.35-.44 1.34-.44 1.34-.44 1.35-.43 1.34-.44 1.34-.44 1.35-.43 1.34-.44 1.34-.43 1.35-.44 1.34-.43 1.35-.43 1.34-.43 1.35-.43 1.34-.43 1.34-.43 1.35-.43 1.34-.43 1.35-.42 1.34-.43 1.35-.43 1.34-.42 1.35-.42 1.34-.43 1.35-.42 1.34-.42 1.35-.42 1.34-.42 1.35-.42 1.34-.42 1.35-.42 1.35-.42 1.34-.42 1.35-.41 1.34-.42 1.35-.41 1.35-.42 1.34-.41 1.35-.41 1.34-.41 1.35-.41 1.35-.41 1.34-.41 1.35-.41 1.35-.41 1.34-.41 1.35-.41 1.35-.4 1.34-.41 1.35-.4 1.35-.41 1.34-.4 1.35-.4 1.35-.4 1.35-.4 1.34-.4 1.35-.4 1.35-.4 1.35-.4 1.34-.4 1.35-.39 1.35-.4 1.35-.4 1.35-.39 1.34-.39 1.35-.4 1.35-.39 1.35-.39 1.35-.39 1.35-.39 1.34-.39 1.35-.39 1.35-.39 1.35-.39 1.35M330.59 260.4l1.27.57 1.28.56 1.27.56 1.27.57 1.28.56 1.27.56 1.27.57 1.28.56 1.27.56 1.27.56 1.28.57 1.27.56 1.27.56 1.27.57 1.28.56 1.27.56 1.27.57 1.28.56 1.27.56 1.27.56 1.28.57 1.27.56 1.27.56 1.28.57 1.27.56 1.27.56 1.27.57 1.28.56 1.27.56 1.27.56 1.28.57 1.27.56 1.27.56 1.28.57 1.27.56 1.27.56 1.28.57 1.27.56 1.27.56 1.27.56 1.28.57 1.27.56 1.27.56 1.28.57 1.27.56 1.27.56 1.28.57 1.27.56 1.27.56 1.28.56 1.27.57 1.27.56 1.28.56 1.27.57 1.27.56 1.27.56 1.28.57 1.27.56 1.27.56 1.28.56 1.27.57 1.27.56 1.28.56 1.27.57 1.27.56 1.28.56 1.27.57 1.27.56 1.27.56 1.28.56 1.27.57 1.27.56 1.28.56 1.27.57 1.27.56 1.28.56 1.27.57 1.27.56 1.28.56 1.27.56 1.27.57 1.27.56 1.28.56 1.27.57 1.27.56 1.28.56 1.27.57 1.27.56 1.28.56 1.27.56 1.27.57 1.28.56 1.27.56 1.27.57 1.27.56 1.28.56 1.27.57 1.27.56 1.28.56M55.97 390.17l2.35.04 2.35.03 2.35.04 2.35.03 2.35.03 2.36.04 2.35.03 2.35.04 2.35.03 2.35.04 2.35.03 2.35.03 2.36.04 2.35.03 2.35.04 2.35.03 2.35.04 2.35.03 2.35.04 2.36.03 2.35.03 2.35.04 2.35.03 2.35.04 2.35.03 2.35.04 2.35.03 2.36.04 2.35.03 2.35.03 2.35.04 2.35.03 2.35.04 2.35.03 2.36.04 2.35.03 2.35.04 2.35.03 2.35.03 2.35.04 2.35.03 2.36.04 2.35.03 2.35.04 2.35.03 2.35.03 2.35.04 2.35.03 2.35.04 2.36.03 2.35.04 2.35.03 2.35.04 2.35.03 2.35.03 2.35.04 2.36.03 2.35.04 2.35.03 2.35.04 2.35.03 2.35.04 2.35.03 2.36.03 2.35.04 2.35.03 2.35.04 2.35.03 2.35.04 2.35.03 2.36.04 2.35.03 2.35.03 2.35.04 2.35.03 2.35.04 2.35.03 2.35.04 2.36.03 2.35.03 2.35.04 2.35.03 2.35.04 2.35.03 2.35.04 2.36.03 2.35.04 2.35.03 2.35.03 2.35.04 2.35.03 2.35.04 2.36.03 2.35.04 2.35.03 2.35.04 2.35.03 2.35.03 2.35.04M116.79 480.6l1.76-.86 1.76-.87 1.76-.86 1.76-.87 1.76-.86 1.76-.87 1.75-.86 1.76-.87 1.76-.86 1.75-.87 1.76-.87 1.75-.87 1.76-.86 1.75-.87 1.75-.87 1.76-.87 1.75-.87 1.75-.87 1.75-.87 1.75-.87 1.75-.87 1.75-.87 1.75-.87 1.75-.87 1.75-.87 1.75-.87 1.75-.87 1.75-.88 1.74-.87 1.75-.87 1.74-.88 1.75-.87 1.74-.87 1.75-.88 1.74-.87 1.75-.88 1.74-.87 1.74-.88 1.74-.87 1.75-.88 1.74-.88 1.74-.87 1.74-.88 1.74-.88 1.74-.87 1.74-.88 1.74-.88 1.73-.88 1.74-.88 1.74-.88 1.73-.88 1.74-.87 1.74-.88 1.73-.89 1.74-.88 1.73-.88 1.73-.88 1.74-.88 1.73-.88 1.73-.88 1.73-.89 1.73-.88 1.74-.88 1.73-.88 1.73-.89 1.73-.88 1.72-.89 1.73-.88 1.73-.89 1.73-.88 1.73-.89 1.72-.88 1.73-.89 1.72-.88 1.73-.89 1.72-.89 1.73-.88 1.72-.89 1.73-.89 1.72-.89 1.72-.89 1.72-.89 1.72-.88 1.73-.89 1.72-.89 1.72-.89 1.72-.89 1.71-.89 1.72-.9 1.72-.89 1.72-.89 1.72-.89 1.71-.89 1.72-.89 1.71-.9 1.72-.89 1.72-.89 1.71-.9 1.71-.89M330.59 260.4l-.39 1.35-.38 1.35-.39 1.35-.39 1.35-.39 1.35-.39 1.35-.4 1.34-.39 1.35-.39 1.35-.39 1.35-.4 1.35-.39 1.35-.4 1.34-.4 1.35-.39 1.35-.4 1.35-.4 1.34-.4 1.35-.4 1.35-.4 1.35-.4 1.34-.41 1.35-.4 1.35-.4 1.35-.41 1.34-.4 1.35-.41 1.35-.41 1.34-.4 1.35-.41 1.35-.41 1.34-.41 1.35-.41 1.35-.41 1.34-.41 1.35-.42 1.35-.41 1.34-.41 1.35-.42 1.34-.41 1.35-.42 1.35-.42 1.34-.41 1.35-.42 1.34-.42 1.35-.42 1.34-.42 1.35-.42 1.34-.42 1.35-.43 1.34-.42 1.35-.42 1.34-.43 1.35-.42 1.34-.43 1.35-.43 1.34-.43 1.35-.42 1.34-.43 1.35-.43 1.34-.43 1.35-.43 1.34-.44 1.35-.43 1.34-.43 1.34-.44 1.35-.43 1.34-.44 1.35-.43 1.34-.44 1.34-.44 1.35-.44 1.34-.44 1.34-.44 1.35-.44 1.34-.44 1.34-.44 1.35-.44 1.34-.45 1.34-.44 1.35-.45 1.34-.44 1.34-.45 1.34-.44 1.35-.45 1.34-.45 1.34-.45 1.34-.45 1.35-.45 1.34-.45 1.34-.45 1.34-.46 1.35-.45 1.34-.45 1.34-.46 1.34-.46 1.34-.45 1.35-.46 1.34-.46 1.34"/><path style="stroke-width:1.07;stroke:#000;stroke-opacity:.1;stroke-linecap:butt" d="m330.59 260.4 1.3.55 1.31.54 1.3.54 1.3.54 1.3.54 1.3.55 1.3.54 1.3.55 1.29.54 1.3.55 1.3.54 1.29.55 1.3.54 1.29.55 1.3.55 1.29.55 1.29.54 1.3.55 1.29.55 1.29.55 1.29.55 1.29.55 1.29.55 1.29.55 1.29.56 1.28.55 1.29.55 1.29.55 1.28.56 1.29.55 1.28.56 1.29.55 1.28.56 1.28.55 1.28.56 1.29.56 1.28.55 1.28.56 1.28.56 1.28.56 1.27.56 1.28.56 1.28.56 1.28.56 1.27.56 1.28.56 1.27.56 1.28.56 1.27.56 1.27.57 1.28.56 1.27.57 1.27.56 1.27.56 1.27.57 1.27.57 1.27.56 1.27.57 1.26.57 1.27.56 1.27.57 1.26.57 1.27.57 1.26.57 1.27.57 1.26.57 1.26.57 1.27.57 1.26.57 1.26.57 1.26.57 1.26.58 1.26.57 1.26.57 1.26.58 1.25.57 1.26.58 1.26.57 1.25.58 1.26.58 1.25.57 1.25.58 1.26.58 1.25.58 1.25.57 1.25.58 1.25.58 1.25.58 1.25.58 1.25.58 1.25.58 1.25.59 1.25.58 1.24.58 1.25.58 1.24.59 1.25.58 1.24.59 1.25.58M330.59 260.4l-.32 1.36-.31 1.36-.33 1.35-.32 1.36-.32 1.35-.33 1.36-.33 1.35-.33 1.36-.34 1.35-.33 1.35-.34 1.36-.34 1.35-.35 1.36-.34 1.35-.35 1.35-.35 1.35-.35 1.36-.35 1.35-.36 1.35-.36 1.35-.36 1.36-.36 1.35-.36 1.35-.37 1.35-.37 1.35-.37 1.35-.37 1.35-.38 1.35-.37 1.35-.38 1.35-.38 1.35-.39 1.35-.38 1.35-.39 1.35-.39 1.34-.39 1.35-.4 1.35-.4 1.35-.39 1.35-.41 1.34-.4 1.35-.4 1.35-.41 1.34-.41 1.35-.41 1.35-.42 1.34-.41 1.35-.42 1.35-.42 1.34-.42 1.35-.43 1.34-.43 1.35-.42 1.34-.44 1.34-.43 1.35-.44 1.34-.43 1.35-.44 1.34-.44 1.34-.45 1.35-.45 1.34-.44 1.34-.45 1.34-.46 1.35-.45 1.34-.46 1.34-.46 1.34-.46 1.34-.46 1.34-.47 1.34-.47 1.34-.47 1.34-.47 1.34-.47 1.34-.48 1.34-.48 1.34-.48 1.34-.48 1.34-.49 1.34-.49 1.34-.49 1.34-.49 1.34-.49 1.33-.5 1.34-.5 1.34-.5 1.34-.5 1.33-.5 1.34-.51 1.34-.51 1.33-.51 1.34-.51 1.33-.52 1.34-.52 1.33-.52 1.34-.52 1.34-.52 1.33-.53 1.33-.53 1.34"/><path style="stroke-width:1.07;stroke:#000;stroke-opacity:.1;stroke-linecap:butt" d="m330.59 260.4 1.33.52 1.33.52 1.33.52 1.33.53 1.33.52 1.33.52 1.32.53 1.32.52 1.33.53 1.32.53 1.32.53 1.32.52 1.32.53 1.31.54 1.32.53 1.31.53 1.31.53 1.32.54 1.31.53 1.3.54 1.31.54 1.31.53 1.31.54 1.3.54 1.3.54 1.31.55 1.3.54 1.3.54 1.29.55 1.3.54 1.3.55 1.29.54 1.3.55 1.29.55 1.29.55 1.29.55 1.29.55 1.29.55 1.28.56 1.29.55 1.28.56 1.28.55 1.28.56 1.29.56 1.27.56 1.28.56 1.28.56 1.27.56 1.28.56 1.27.56 1.27.57 1.27.56 1.27.57 1.27.56 1.27.57 1.26.57 1.27.57 1.26.57 1.27.57 1.26.57 1.26.57 1.25.58 1.26.57 1.26.58 1.25.57 1.26.58 1.25.58 1.25.58 1.25.58 1.25.58 1.25.58 1.24.58 1.25.59 1.24.58 1.25.59 1.24.58 1.24.59 1.24.59 1.24.59 1.23.59 1.24.59 1.23.59 1.24.59 1.23.59 1.23.6 1.23.59 1.23.6 1.23.6 1.22.59 1.23.6 1.22.6 1.22.6 1.22.6 1.22.61 1.22.6 1.22.6 1.22.61 1.21.6 1.22.61M330.59 260.4l-.24 1.37-.25 1.36-.26 1.36-.26 1.37-.26 1.36-.26 1.36-.27 1.36-.27 1.36-.27 1.36-.28 1.36-.29 1.36-.28 1.36-.29 1.36-.29 1.36-.3 1.36-.3 1.35-.3 1.36-.31 1.36-.31 1.35-.32 1.36-.32 1.36-.32 1.35-.32 1.36-.33 1.35-.34 1.36-.33 1.35-.34 1.35-.34 1.36-.35 1.35-.35 1.35-.36 1.36-.35 1.35-.37 1.35-.36 1.35-.37 1.35-.37 1.35-.38 1.35-.38 1.35-.38 1.35-.39 1.35-.39 1.35-.39 1.35-.4 1.34-.4 1.35-.4 1.35-.41 1.34-.41 1.35-.42 1.35-.42 1.34-.42 1.35-.43 1.34-.43 1.35-.43 1.34-.44 1.34-.44 1.35-.44 1.34-.45 1.34-.45 1.35-.46 1.34-.46 1.34-.46 1.34-.46 1.34-.47 1.34-.48 1.34-.47 1.34-.48 1.34-.49 1.34-.48 1.34-.49 1.34-.5 1.33-.5 1.34-.5 1.34-.5 1.33-.51 1.34-.52 1.34-.51 1.33-.52 1.34-.52 1.33-.53 1.34-.53 1.33-.54 1.33-.53 1.34-.55 1.33-.54 1.33-.55 1.34-.55 1.33-.56 1.33-.56 1.33-.56 1.33-.57 1.33-.57 1.33-.57 1.33-.58 1.33-.58 1.33-.58 1.33-.59 1.33-.59 1.32-.6 1.33-.6 1.33"/><path style="stroke-width:1.07;stroke:#000;stroke-opacity:.1;stroke-linecap:butt" d="m330.59 260.4 1.36.5 1.36.5 1.36.5 1.36.5 1.35.5 1.35.51 1.35.5 1.35.51 1.35.51 1.35.51 1.34.51 1.34.51 1.34.52 1.34.51 1.34.52 1.33.51 1.33.52 1.33.52 1.33.52 1.33.53 1.33.52 1.32.53 1.32.52 1.32.53 1.32.53 1.32.53 1.31.53 1.31.54 1.32.53 1.3.54 1.31.54 1.31.54 1.3.54 1.3.54 1.3.54 1.3.55 1.3.54 1.29.55 1.3.55 1.29.55 1.29.55 1.28.55 1.29.55 1.28.56 1.29.55 1.28.56 1.27.56 1.28.56 1.28.56 1.27.57 1.27.56 1.27.57 1.27.56 1.26.57 1.27.57 1.26.57 1.26.57 1.26.58 1.26.57 1.25.58 1.25.58 1.26.58 1.25.58 1.24.58 1.25.58 1.24.59 1.25.58 1.24.59 1.23.59 1.24.59 1.24.59 1.23.59 1.23.59 1.23.6 1.23.6 1.23.59 1.22.6 1.22.6 1.22.6 1.22.61 1.22.6 1.21.61 1.22.6 1.21.61 1.21.61 1.21.61 1.2.62 1.21.61 1.2.62 1.2.61 1.2.62 1.2.62 1.19.62 1.2.62 1.19.63 1.19.62 1.19.63 1.18.62 1.19.63M116.79 480.6l1.72-.89 1.71-.89 1.72-.9 1.71-.89 1.72-.89 1.71-.9 1.72-.89 1.72-.89 1.71-.89 1.72-.89 1.72-.89 1.72-.89 1.72-.89 1.72-.89 1.72-.89 1.72-.89 1.72-.89 1.73-.89 1.72-.89 1.72-.89 1.72-.89 1.73-.88 1.72-.89 1.73-.89 1.72-.88 1.73-.89 1.72-.89 1.73-.88 1.73-.89 1.73-.88 1.72-.89 1.73-.88 1.73-.89 1.73-.88 1.73-.88 1.73-.89 1.73-.88 1.73-.88 1.73-.89 1.74-.88 1.73-.88 1.73-.88 1.74-.88 1.73-.88 1.74-.88 1.73-.88 1.74-.88 1.73-.88 1.74-.88 1.74-.88 1.73-.88 1.74-.88 1.74-.88 1.74-.87 1.74-.88 1.74-.88 1.74-.88 1.74-.87 1.74-.88 1.74-.87 1.74-.88 1.75-.88 1.74-.87 1.74-.88 1.75-.87 1.74-.87 1.75-.88 1.74-.87 1.75-.88 1.74-.87 1.75-.87 1.75-.87 1.75-.88 1.74-.87 1.75-.87 1.75-.87 1.75-.87 1.75-.87 1.75-.87 1.75-.87 1.75-.87 1.76-.87 1.75-.87 1.75-.87 1.76-.87 1.75-.86 1.75-.87 1.76-.87 1.75-.87 1.76-.86 1.76-.87 1.75-.87 1.76-.86 1.76-.87 1.76-.86 1.75-.87 1.76-.86 1.76-.87 1.76-.86M330.59 260.4l-.17 1.37-.19 1.37-.18 1.37-.19 1.37-.2 1.37-.2 1.37-.2 1.37-.22 1.36-.21 1.37-.22 1.37-.23 1.36-.23 1.37-.24 1.36-.24 1.37-.24 1.36-.26 1.36-.25 1.36-.26 1.37-.27 1.36-.27 1.36-.28 1.36-.28 1.36-.29 1.36-.29 1.36-.29 1.35-.31 1.36-.3 1.36-.31 1.35-.32 1.36-.32 1.36-.33 1.35-.33 1.36-.34 1.35-.34 1.35-.35 1.36-.35 1.35-.36 1.35-.36 1.35-.37 1.35-.37 1.35-.38 1.35-.38 1.35-.39 1.35-.39 1.35-.4 1.35-.4 1.34-.41 1.35-.41 1.35-.42 1.34-.42 1.35-.43 1.34-.43 1.35-.44 1.34-.44 1.34-.45 1.35-.45 1.34-.46 1.34-.46 1.34-.47 1.34-.47 1.34-.48 1.34-.48 1.34-.49 1.34-.49 1.34-.5 1.33-.5 1.34-.51 1.34-.52 1.33-.51 1.34-.53 1.33-.53 1.34-.53 1.33-.54 1.34-.54 1.33-.55 1.33-.55 1.33-.56 1.33-.57 1.33-.56 1.33-.58 1.33-.58 1.33-.58 1.33-.59 1.33-.59 1.33-.6 1.32-.61 1.33-.61 1.33-.61 1.32-.62 1.33-.62 1.32-.63 1.33-.64 1.32-.64 1.32-.64 1.32-.65 1.33-.65 1.32-.66 1.32-.67 1.32-.67 1.32"/><path style="stroke-width:1.07;stroke:#000;stroke-opacity:.1;stroke-linecap:butt" d="m330.59 260.4 1.39.48 1.39.48 1.39.48 1.38.48 1.38.48 1.38.48 1.38.49 1.37.49 1.38.49 1.36.49 1.37.49 1.37.5 1.36.5 1.36.49 1.36.51 1.35.5 1.35.5 1.35.51 1.35.51 1.35.5 1.34.52 1.34.51 1.34.51 1.33.52 1.34.52 1.33.52 1.33.52 1.32.53 1.33.52 1.32.53 1.32.53 1.31.53 1.32.53 1.31.54 1.31.53 1.31.54 1.3.54 1.3.54 1.3.54 1.3.55 1.29.55 1.3.55 1.29.55 1.28.55 1.29.55 1.28.56 1.28.56 1.28.55 1.27.57 1.28.56 1.27.56 1.27.57 1.26.57 1.27.57 1.26.57 1.26.57 1.25.58 1.26.58 1.25.58 1.25.58 1.24.58 1.25.58 1.24.59 1.24.59 1.23.59 1.24.59 1.23.59 1.23.6 1.23.6 1.22.59 1.23.6 1.22.61 1.21.6 1.22.61 1.21.6 1.21.61 1.21.61 1.21.62 1.2.61 1.2.62 1.2.62 1.19.62 1.2.62 1.19.62 1.19.63 1.18.63 1.19.62 1.18.63 1.18.64 1.18.63 1.17.64 1.17.64 1.17.64 1.17.64 1.16.64 1.16.65 1.16.64 1.16.65 1.16.65M330.59 260.4l-.1 1.38-.12 1.38-.11 1.38-.13 1.37-.13 1.38-.14 1.37-.14 1.37-.15 1.38-.16 1.37-.16 1.37-.17 1.37-.18 1.37-.18 1.37-.19 1.37-.2 1.37-.2 1.37-.21 1.37-.21 1.36-.23 1.37-.22 1.36-.24 1.37-.24 1.36-.25 1.37-.25 1.36-.26 1.36-.27 1.36-.27 1.36-.28 1.36-.29 1.36-.29 1.36-.3 1.36-.31 1.35-.31 1.36-.32 1.36-.33 1.35-.33 1.36-.34 1.35-.34 1.35-.35 1.36-.36 1.35-.36 1.35-.38 1.35-.37 1.35-.39 1.35-.39 1.35-.39 1.35-.41 1.34-.41 1.35-.41 1.34-.42 1.35-.43 1.34-.44 1.35-.44 1.34-.45 1.34-.46 1.35-.46 1.34-.46 1.34-.48 1.34-.48 1.34-.49 1.34-.49 1.33-.5 1.34-.51 1.34-.51 1.33-.52 1.34-.53 1.33-.53 1.34-.54 1.33-.54 1.33-.56 1.33-.56 1.34-.56 1.33-.57 1.33-.58 1.32-.58 1.33-.6 1.33-.59 1.33-.61 1.33-.61 1.32-.61 1.33-.63 1.32-.63 1.32-.63 1.33-.65 1.32-.65 1.32-.65 1.32-.66 1.32-.67 1.32-.68 1.32-.68 1.32-.69 1.32-.69 1.32-.7 1.31-.71 1.32-.72 1.31-.72 1.32-.72 1.31-.74 1.32-.74 1.31"/><path style="stroke-width:1.07;stroke:#000;stroke-opacity:.1;stroke-linecap:butt" d="m330.59 260.4 1.42.46 1.42.45 1.41.46 1.42.46 1.4.47 1.41.46 1.4.47 1.4.47 1.4.47 1.39.47 1.39.48 1.39.48 1.39.48 1.38.48 1.38.48 1.37.49 1.37.49 1.37.49 1.37.5 1.36.49 1.36.5 1.36.5 1.35.5 1.36.51 1.34.51 1.35.51 1.34.51 1.34.51 1.34.52 1.33.52 1.33.52 1.33.52 1.32.53 1.32.52 1.32.53 1.32.53 1.31.54 1.31.53 1.31.54 1.3.54 1.3.55 1.3.54 1.29.55 1.29.55 1.29.55 1.29.55 1.28.56 1.28.56 1.27.56 1.28.56 1.27.57 1.26.57 1.27.57 1.26.57 1.26.57 1.25.58 1.25.58 1.25.58 1.25.58 1.24.59 1.24.58 1.24.59 1.23.59 1.23.6 1.23.6 1.23.59 1.22.61 1.22.6 1.21.6 1.21.61 1.21.61 1.21.61 1.21.62 1.2.61 1.19.62 1.2.62 1.19.63 1.19.62 1.18.63 1.19.63 1.18.63 1.17.64 1.18.63 1.17.64 1.17.64 1.16.65 1.16.64 1.16.65 1.16.65 1.15.65 1.15.66 1.15.65 1.14.66 1.14.66 1.14.67 1.13.66 1.13.67 1.13.67 1.13.67M330.59 260.4l-.03 1.39-.05 1.38-.05 1.39-.05 1.38-.07 1.38-.08 1.38-.08 1.38-.09 1.38-.1 1.38-.1 1.38-.12 1.38-.12 1.37-.13 1.38-.14 1.37-.14 1.37-.15 1.38-.17 1.37-.16 1.37-.18 1.37-.19 1.37-.19 1.37-.2 1.37-.21 1.37-.22 1.36-.22 1.37-.23 1.36-.24 1.37-.25 1.36-.26 1.36-.26 1.36-.28 1.36-.28 1.36-.28 1.36-.3 1.36-.3 1.36-.32 1.35-.32 1.36-.32 1.36-.34 1.35-.34 1.35-.35 1.36-.36 1.35-.37 1.35-.37 1.35-.39 1.35-.39 1.35-.4 1.34-.4 1.35-.42 1.35-.42 1.34-.43 1.35-.44 1.34-.45 1.34-.45 1.34-.46 1.35-.47 1.34-.48 1.33-.49 1.34-.49 1.34-.5 1.34-.51 1.33-.52 1.34-.53 1.33-.53 1.34-.54 1.33-.55 1.33-.56 1.34-.56 1.33-.58 1.33-.58 1.32-.59 1.33-.59 1.33-.61 1.33-.61 1.32-.62 1.33-.63 1.32-.63 1.32-.65 1.33-.65 1.32-.66 1.32-.67 1.32-.67 1.32-.69 1.32-.69 1.31-.7 1.32-.71 1.32-.71 1.31-.73 1.32-.73 1.31-.74 1.31-.74 1.31-.76 1.31-.76 1.31-.77 1.31-.78 1.31-.79 1.31-.79 1.31-.81 1.3-.81 1.31"/><path style="stroke-width:1.07;stroke:#000;stroke-opacity:.1;stroke-linecap:butt" d="m330.59 260.4 1.45.44 1.45.43 1.44.44 1.44.44 1.44.44 1.43.45 1.43.44 1.42.45 1.42.46 1.42.45 1.41.46 1.42.46 1.4.47 1.41.46 1.39.47 1.4.48 1.39.47 1.39.48 1.39.48 1.38.48 1.38.49 1.37.48 1.37.49 1.37.5 1.36.49 1.36.5 1.36.5 1.35.51 1.35.51 1.34.5 1.35.52 1.33.51 1.34.52 1.33.52 1.33.52 1.32.53 1.32.53 1.32.53 1.31.53 1.31.54 1.31.54 1.3.54 1.3.54 1.29.55 1.29.55 1.29.55 1.28.56 1.28.55 1.28.56 1.27.57 1.27.56 1.27.57 1.26.57 1.26.58 1.25.57 1.26.58 1.24.58 1.25.59 1.24.58 1.24.59 1.23.6 1.23.59 1.22.6 1.23.6 1.22.6 1.21.61 1.21.61 1.21.61 1.21.61 1.2.62 1.19.62 1.2.62 1.19.62 1.18.63 1.19.63 1.18.63 1.17.64 1.17.64 1.17.64 1.17.64 1.16.65 1.15.65 1.16.65 1.15.65 1.14.66 1.15.66 1.14.66 1.13.66 1.13.67 1.13.67 1.13.67 1.12.68 1.12.68 1.11.68 1.11.68 1.11.69 1.1.69 1.1.69 1.1.69M330.59 260.4l.04 1.4.02 1.39.02 1.39.01 1.39v1.39l-.01 1.38-.02 1.39-.03 1.39-.04 1.38-.05 1.38-.06 1.39-.07 1.38-.07 1.38-.09 1.38-.09 1.38-.11 1.38-.11 1.37-.13 1.38-.13 1.37-.14 1.38-.15 1.37-.16 1.37-.17 1.37-.18 1.37-.19 1.37-.2 1.37-.21 1.37-.21 1.37-.23 1.36-.23 1.37-.25 1.36-.25 1.36-.27 1.36-.27 1.36-.28 1.36-.29 1.36-.3 1.36-.31 1.36-.32 1.35-.33 1.36-.34 1.35-.35 1.35-.36 1.36-.36 1.35-.38 1.35-.38 1.35-.4 1.34-.4 1.35-.42 1.35-.42 1.34-.43 1.35-.44 1.34-.45 1.34-.46 1.34-.47 1.34-.48 1.34-.49 1.34-.5 1.34-.5 1.34-.52 1.33-.52 1.34-.54 1.33-.54 1.33-.56 1.33-.56 1.34-.57 1.32-.58 1.33-.6 1.33-.6 1.33-.61 1.32-.61 1.33-.63 1.32-.64 1.33-.65 1.32-.65 1.32-.67 1.32-.68 1.32-.68 1.32-.69 1.31-.71 1.32-.71 1.32-.72 1.31-.73 1.31-.74 1.32-.75 1.31-.76 1.31-.77 1.31-.78 1.31-.79 1.3-.79 1.31-.81 1.31-.82 1.3-.82 1.31-.84 1.3-.84 1.3-.85 1.3-.86 1.3-.88 1.3-.88 1.3"/><path style="stroke-width:1.07;stroke:#000;stroke-opacity:.1;stroke-linecap:butt" d="m330.59 260.4 1.48.41 1.48.42 1.47.41 1.46.42 1.47.43 1.46.42 1.45.43 1.45.43 1.45.44 1.44.44 1.44.44 1.43.44 1.43.45 1.42.45 1.42.45 1.42.46 1.41.46 1.41.46 1.4.47 1.4.47 1.4.47 1.39.48 1.39.47 1.38.49 1.38.48 1.37.49 1.37.49 1.37.5 1.36.49 1.36.5 1.35.51 1.35.5 1.35.51 1.34.52 1.33.51 1.33.52 1.33.52 1.33.53 1.32.53 1.31.53 1.31.54 1.31.53 1.3.54 1.3.55 1.29.55 1.29.55 1.29.55 1.28.56 1.28.56 1.27.56 1.27.57 1.26.57 1.27.57 1.25.57 1.25.58 1.25.58 1.24.59 1.24.59 1.24.59 1.23.59 1.23.6 1.22.6 1.22.6 1.21.61 1.21.61 1.21.61 1.2.62 1.2.62 1.19.62 1.19.63 1.18.62 1.18.64 1.18.63 1.17.64 1.17.64 1.16.64 1.16.65 1.16.65 1.15.66 1.14.65 1.15.66 1.13.66 1.14.67 1.13.67 1.12.67 1.12.68 1.12.68 1.11.68 1.11.68 1.11.69 1.1.69 1.09.7 1.1.69 1.08.7 1.09.71 1.08.7 1.07.71 1.07.72 1.07.71M330.59 260.4l.11 1.4.09 1.4.09 1.4.07 1.4.07 1.39.05 1.39.04 1.4.03 1.39.02 1.39.01 1.39v1.39l-.02 1.39-.02 1.38-.03 1.39-.05 1.38-.05 1.38-.07 1.39-.08 1.38-.08 1.38-.1 1.38-.11 1.37-.12 1.38-.13 1.37-.15 1.38-.15 1.37-.16 1.37-.18 1.37-.18 1.37-.2 1.37-.2 1.37-.22 1.37-.23 1.36-.24 1.36-.25 1.37-.26 1.36-.27 1.36-.28 1.36-.3 1.36-.3 1.36-.32 1.35-.32 1.36-.34 1.35-.34 1.35-.36 1.36-.37 1.35-.38 1.35-.39 1.35-.4 1.34-.41 1.35-.43 1.34-.43 1.35-.44 1.34-.46 1.34-.46 1.34-.48 1.34-.49 1.34-.5 1.34-.5 1.34-.52 1.33-.54 1.33-.54 1.34-.55 1.33-.56 1.33-.58 1.33-.58 1.33-.6 1.33-.6 1.32-.62 1.33-.63 1.32-.63 1.32-.65 1.33-.66 1.32-.67 1.32-.69 1.32-.69 1.31-.7 1.32-.72 1.31-.72 1.32-.74 1.31-.74 1.31-.76 1.31-.77 1.31-.78 1.31-.79 1.31-.8 1.31-.81 1.3-.82 1.31-.83 1.3-.85 1.3-.85 1.3-.87 1.3-.87 1.3-.89 1.3-.9 1.29-.91 1.3-.91 1.29-.93 1.3-.95 1.29-.95 1.29"/><path style="stroke-width:1.07;stroke:#000;stroke-opacity:.1;stroke-linecap:butt" d="m330.59 260.4 1.51.39 1.51.39 1.49.4 1.5.4 1.49.4 1.48.41 1.48.41 1.48.41 1.47.42 1.47.42 1.46.42 1.45.43 1.46.43 1.44.43 1.44.44 1.44.44 1.43.45 1.43.45 1.42.45 1.42.46 1.41.46 1.41.46 1.4.47 1.4.47 1.4.47 1.38.48 1.39.48 1.38.48 1.37.49 1.37.49 1.37.5 1.36.5 1.35.5 1.35.5 1.35.51 1.34.52 1.33.51 1.33.52 1.33.53 1.32.52 1.32.54 1.31.53 1.31.54 1.3.54 1.3.54 1.29.55 1.29.56 1.28.55 1.28.56 1.27.56 1.27.57 1.26.57 1.26.57 1.25.58 1.25.58 1.25.59 1.24.59 1.23.59 1.23.59 1.23.6 1.22.6 1.21.61 1.21.61 1.21.61 1.2.62 1.19.62 1.19.62 1.19.63 1.18.63 1.18.63 1.17.64 1.17.64 1.16.65 1.16.65 1.15.65 1.15.65 1.14.66 1.14.67 1.13.66 1.13.67 1.12.68 1.12.67 1.12.68 1.11.69 1.1.69 1.1.69 1.1.69 1.09.7 1.08.7 1.08.71 1.08.71 1.07.71 1.06.72 1.06.72 1.06.72 1.05.73 1.05.73 1.04.73 1.04.74M330.59 260.4l.18 1.41.16 1.41.16 1.4.14 1.4.12 1.41.12 1.4.1 1.4.09 1.39.08 1.4.07 1.4.05 1.39.05 1.39.03 1.39.01 1.4.01 1.38-.01 1.39-.02 1.39-.03 1.38-.04 1.39-.06 1.38-.06 1.38-.08 1.38-.1 1.38-.1 1.38-.12 1.38-.13 1.37-.14 1.38-.15 1.37-.17 1.37-.17 1.37-.19 1.37-.21 1.37-.21 1.37-.23 1.36-.24 1.37-.25 1.36-.26 1.36-.28 1.36-.29 1.36-.3 1.36-.31 1.35-.32 1.36-.34 1.35-.35 1.36-.36 1.35-.38 1.35-.38 1.35-.4 1.34-.41 1.35-.42 1.35-.44 1.34-.44 1.34-.46 1.34-.48 1.34-.48 1.34-.49 1.34-.51 1.34-.52 1.33-.54 1.34-.54 1.33-.56 1.33-.57 1.33-.58 1.33-.59 1.33-.61 1.32-.62 1.33-.63 1.32-.64 1.32-.66 1.33-.66 1.32-.68 1.31-.69 1.32-.71 1.32-.72 1.31-.72 1.32-.74 1.31-.76 1.31-.76 1.31-.78 1.31-.79 1.31-.8 1.3-.82 1.31-.82 1.3-.84 1.3-.85 1.3-.86 1.3-.88 1.3-.89 1.3-.9 1.3-.91 1.29-.92 1.3-.94 1.29-.95 1.29-.96 1.29-.97 1.29-.99 1.28-.99 1.29-1.01 1.29-1.03 1.28"/><path style="stroke-width:1.07;stroke:#000;stroke-opacity:.1;stroke-linecap:butt" d="m330.59 260.4 1.54.37 1.53.37 1.53.38 1.52.37 1.52.39 1.51.38 1.51.39 1.5.4 1.49.4 1.49.4 1.49.4 1.48.42 1.47.41 1.47.42 1.46.42 1.46.43 1.45.43 1.45.43 1.44.44 1.44.44 1.43.45 1.42.45 1.42.46 1.41.45 1.41.47 1.41.46 1.39.47 1.4.48 1.38.48 1.39.48 1.37.49 1.37.49 1.37.49 1.36.5 1.35.5 1.35.51 1.34.51 1.34.52 1.33.52 1.33.52 1.32.53 1.32.53 1.31.53 1.31.54 1.3.54 1.29.55 1.29.55 1.29.56 1.27.55 1.28.57 1.26.56 1.27.58 1.25.57 1.26.58 1.24.58 1.24.59 1.24.59 1.23.6 1.22.6 1.22.6 1.21.61 1.21.61 1.2.61 1.2.62 1.19.62 1.19.63 1.18.63 1.18.64 1.17.64 1.16.64 1.16.65 1.15.65 1.15.65 1.14.66 1.14.67 1.13.66 1.13.68 1.12.67 1.12.68 1.11.68 1.1.69 1.1.69 1.1.7 1.09.7 1.08.7 1.08.71 1.07.71 1.07.72 1.06.72 1.06.72 1.05.73 1.04.73 1.04.73 1.04.74 1.03.75 1.02.74 1.02.76 1.01.75 1.01.76M434.45 496.89l-1.58-.99-1.58-.99-1.58-1-1.57-1-1.57-.99-1.57-1-1.57-1-1.56-1-1.57-1-1.56-1-1.56-1.01-1.55-1-1.56-1.01-1.55-1-1.55-1.01-1.55-1.01-1.54-1.01-1.55-1.01-1.54-1.01-1.54-1.01-1.53-1.02-1.54-1.01-1.53-1.02-1.53-1.02-1.53-1.01-1.52-1.02-1.52-1.02-1.53-1.02-1.51-1.02-1.52-1.03-1.51-1.02-1.52-1.03-1.51-1.02-1.5-1.03-1.51-1.03-1.5-1.03-1.5-1.03-1.5-1.03-1.5-1.03-1.49-1.03-1.49-1.04-1.49-1.03-1.49-1.04-1.49-1.04-1.48-1.04-1.48-1.03-1.48-1.05-1.47-1.04-1.48-1.04-1.47-1.04-1.47-1.05-1.47-1.04-1.46-1.05-1.46-1.05-1.46-1.05-1.46-1.05-1.46-1.05-1.45-1.05-1.45-1.05-1.45-1.06-1.45-1.05-1.45-1.06-1.44-1.05-1.44-1.06-1.44-1.06-1.43-1.06-1.44-1.06-1.43-1.06-1.43-1.07-1.42-1.06-1.43-1.07-1.42-1.06-1.42-1.07-1.42-1.07-1.42-1.07-1.41-1.07-1.41-1.07-1.41-1.07-1.41-1.08-1.4-1.07-1.4-1.08-1.4-1.07-1.4-1.08-1.4-1.08-1.39-1.08-1.39-1.08-1.39-1.08-1.39-1.08-1.38-1.09-1.39-1.08-1.38-1.09-1.37-1.08-1.38-1.09-1.37-1.09-1.37-1.09-1.37-1.09-1.37-1.09-1.36-1.1-1.37-1.09M330.59 260.4l.25 1.42.23 1.41.22 1.41.21 1.41.19 1.41.18 1.41.17 1.4.15 1.41.14 1.4.12 1.4.11 1.4.1 1.4.08 1.4.07 1.39.06 1.4.04 1.39.03 1.39.01 1.39v1.39l-.01 1.39-.02 1.38-.04 1.39-.06 1.38-.07 1.38-.08 1.38-.09 1.38-.11 1.38-.12 1.38-.14 1.37-.15 1.38-.16 1.37-.17 1.37-.19 1.37-.21 1.36-.22 1.37-.23 1.37-.24 1.36-.26 1.36-.27 1.36-.29 1.36-.3 1.36-.31 1.36-.33 1.35-.34 1.35-.35 1.36-.37 1.35-.38 1.35-.4 1.34-.41 1.35-.42 1.35-.44 1.34-.45 1.34-.46 1.34-.48 1.34-.49 1.34-.5 1.34-.52 1.33-.53 1.34-.55 1.33-.56 1.33-.57 1.33-.59 1.33-.6 1.33-.61 1.32-.63 1.33-.64 1.32-.66 1.32-.66 1.32-.69 1.32-.69 1.32-.71 1.31-.73 1.32-.73 1.31-.75 1.31-.77 1.31-.78 1.31-.79 1.31-.8 1.3-.82 1.31-.84 1.3-.84 1.3-.86 1.3-.88 1.3-.88 1.3-.9 1.29-.92 1.3-.93 1.29-.94 1.29-.96 1.29-.97 1.29-.98 1.29-1 1.29-1.01 1.28-1.02 1.28-1.04 1.29-1.05 1.28-1.07 1.27-1.07 1.28-1.1 1.28"/><path style="stroke-width:1.07;stroke:#000;stroke-opacity:.1;stroke-linecap:butt" d="m330.59 260.4 1.57.35 1.56.35 1.56.35 1.55.36 1.54.36 1.54.37 1.53.37 1.53.37 1.52.39 1.51.38 1.51.39 1.5.39 1.5.4 1.49.4 1.48.41 1.48.41 1.47.42 1.47.42 1.46.42 1.45.43 1.45.43 1.44.44 1.44.45 1.43.44 1.42.45 1.42.46 1.41.46 1.41.47 1.4.46 1.39.48 1.39.48 1.38.48 1.37.49 1.37.49 1.37.49 1.35.51 1.36.5 1.34.51 1.34.51 1.33.52 1.33.53 1.32.52 1.32.53 1.31.54 1.3.54 1.3.55 1.29.55 1.28.55 1.28.56 1.28.56 1.26.57 1.26.57 1.26.58 1.25.58 1.24.58 1.24.59 1.23.6 1.22.6 1.22.6 1.21.61 1.21.61 1.2.62 1.2.62 1.19.62 1.18.63 1.18.64 1.17.63 1.16.65 1.16.65 1.15.65 1.15.65 1.14.67 1.13.66 1.13.67 1.12.68 1.12.67 1.11.69 1.11.69 1.09.69 1.1.7 1.08.7 1.08.7 1.08.71 1.07.72 1.06.72 1.05.72 1.05.73 1.05.73 1.04.74 1.03.74 1.03.74 1.02.75 1.01.76 1.01.76 1 .76 1 .77.99.77.98.78.98.78M330.59 260.4l.32 1.43.3 1.42.29 1.41.27 1.42.26 1.42.24 1.41.23 1.41.21 1.41.2 1.41.18 1.41.17 1.4.15 1.41.14 1.4.12 1.4.1 1.4.09 1.4.08 1.4.06 1.39.05 1.39.03 1.4.01 1.39v1.38l-.01 1.39-.03 1.39-.04 1.38-.06 1.38-.08 1.39-.09 1.37-.1 1.38-.13 1.38-.13 1.37-.15 1.38-.17 1.37-.18 1.37-.19 1.37-.21 1.36-.23 1.37-.24 1.36-.26 1.37-.27 1.36-.29 1.36-.3 1.35-.32 1.36-.33 1.35-.34 1.36-.37 1.35-.37 1.35-.4 1.35-.4 1.34-.43 1.35-.43 1.34-.46 1.34-.46 1.34-.49 1.34-.5 1.34-.51 1.34-.53 1.33-.54 1.33-.56 1.33-.57 1.33-.59 1.33-.61 1.33-.62 1.32-.63 1.33-.65 1.32-.66 1.32-.68 1.32-.7 1.32-.71 1.31-.72 1.32-.74 1.31-.76 1.31-.77 1.31-.78 1.31-.8 1.3-.82 1.31-.83 1.3-.84 1.3-.87 1.3-.87 1.3-.89 1.3-.91 1.29-.92 1.3-.94 1.29-.95 1.29-.96 1.29-.99 1.29-.99 1.28-1.02 1.29-1.02 1.28-1.04 1.28-1.06 1.28-1.07 1.28-1.09 1.28-1.1 1.27-1.12 1.28-1.14 1.27-1.14 1.27-1.17 1.27"/><path style="stroke-width:1.07;stroke:#000;stroke-opacity:.1;stroke-linecap:butt" d="m330.59 260.4 1.6.33 1.59.32 1.58.34 1.58.33 1.57.35 1.57.34 1.56.36 1.55.35 1.54.36 1.54.37 1.53.37 1.53.38 1.52.38 1.51.39 1.5.39 1.5.4 1.49.4 1.49.4 1.48.41 1.47.42 1.46.42 1.46.43 1.45.43 1.45.43 1.44.44 1.43.45 1.43.45 1.41.45 1.42.46 1.4.47 1.4.47 1.39.47 1.39.48 1.38.49 1.37.49 1.37.49 1.36.5 1.35.5 1.34.51 1.34.52 1.34.51 1.32.53 1.32.53 1.32.53 1.3.54 1.3.54 1.29.55 1.29.55 1.28.56 1.27.57 1.27.56 1.26.58 1.25.57 1.25.59 1.24.58 1.23.6 1.23.59 1.22.61 1.21.6 1.21.62 1.2.61 1.19.62 1.19.63 1.18.63 1.17.64 1.17.64 1.16.65 1.16.65 1.14.65 1.14.67 1.14.66 1.12.67 1.13.68 1.11.68 1.11.68 1.1.7 1.09.69 1.09.7 1.08.71 1.07.71 1.07.71 1.06.72 1.06.73 1.05.73 1.04.73 1.03.74 1.03.74 1.02.75 1.02.76 1 .76 1 .76 1 .77.99.77.98.78.97.79.97.79.96.79.96.8.95.8M270.55 524.21l.18-1.32.19-1.32.18-1.32.19-1.32.18-1.32.18-1.32.19-1.32.18-1.32.19-1.32.18-1.32.18-1.32.19-1.31.18-1.32.18-1.32.19-1.32.18-1.32.19-1.32.18-1.32.18-1.32.19-1.32.18-1.32.19-1.32.18-1.32.18-1.32.19-1.32.18-1.32.19-1.32.18-1.32.18-1.32.19-1.32.18-1.32.18-1.31.19-1.32.18-1.32.19-1.32.18-1.32.18-1.32.19-1.32.18-1.32.19-1.32.18-1.32.18-1.32.19-1.32.18-1.32.18-1.32.19-1.32.18-1.32.19-1.32.18-1.32.18-1.32.19-1.32.18-1.31.19-1.32.18-1.32.18-1.32.19-1.32.18-1.32.18-1.32.19-1.32.18-1.32.19-1.32.18-1.32.18-1.32.19-1.32.18-1.32.19-1.32.18-1.32.18-1.32.19-1.32.18-1.32.19-1.32.18-1.31.18-1.32.19-1.32.18-1.32.18-1.32.19-1.32.18-1.32.19-1.32.18-1.32.18-1.32.19-1.32.18-1.32.19-1.32.18-1.32.18-1.32.19-1.32.18-1.32.18-1.32.19-1.32.18-1.32.19-1.31.18-1.32.18-1.32.19-1.32.18-1.32.19-1.32.18-1.32.18-1.32M456.63 316.14l-2.35.32-2.34.32-2.33.34-2.31.34-2.3.36-2.28.36-2.27.38-2.26.38-2.25.39-2.23.4-2.22.42-2.2.42-2.19.43-2.18.44-2.16.45-2.16.46-2.13.46-2.13.48-2.11.49-2.1.5-2.08.5-2.07.52-2.06.53-2.04.53-2.03.55-2.02.55-2 .56-1.99.58-1.98.58-1.96.59-1.95.6-1.94.61-1.92.62-1.91.63-1.9.64-1.88.65-1.87.66-1.86.67-1.84.68-1.83.69-1.82.69-1.8.71-1.79.71-1.78.73-1.76.73-1.75.75-1.73.75-1.73.76-1.71.78-1.69.78-1.68.79-1.67.8-1.66.81-1.64.82-1.63.83-1.61.84-1.61.85-1.58.86-1.58.87-1.56.87-1.55.89-1.53.9-1.53.9-1.5.92-1.5.92-1.48.94-1.47.94-1.45.95-1.44.97-1.43.97-1.42.98-1.4.99-1.39 1-1.37 1.01-1.36 1.02-1.35 1.03-1.33 1.04-1.32 1.05-1.31 1.06-1.3 1.06-1.28 1.08-1.26 1.09-1.26 1.09-1.24 1.11-1.22 1.11-1.22 1.13-1.2 1.13-1.18 1.15-1.18 1.15-1.16 1.16-1.15 1.17-1.13 1.18-1.12 1.19-1.1 1.2-1.1 1.21-1.08 1.22-1.06 1.23-1.06 1.24-1.04 1.25"/><path style="stroke-width:1.07;stroke:#000;stroke-opacity:.1;stroke-linecap:butt" d="m456.63 316.14-2.31.35-2.3.35-2.29.36-2.27.38-2.26.38-2.25.39-2.23.4-2.23.41-2.21.41-2.2.43-2.18.43-2.17.45-2.16.45-2.15.46-2.14.47-2.12.48-2.11.49-2.1.5-2.08.5-2.07.52-2.06.52-2.05.53-2.04.55-2.02.55-2.01.56-1.99.56-1.99.58-1.97.59-1.96.59-1.95.61-1.93.61-1.92.62-1.91.63-1.9.64-1.88.65-1.87.66-1.86.66-1.85.68-1.83.68-1.82.7-1.81.7-1.8.71-1.78.72-1.77.73-1.76.74-1.75.74-1.73.76-1.72.76-1.71.78-1.7.78-1.68.79-1.67.8-1.66.81-1.64.82-1.64.82-1.62.84-1.6.84-1.6.86-1.58.86-1.57.87-1.56.88-1.54.89-1.54.9-1.52.9-1.5.92-1.5.92-1.48.94-1.47.94-1.46.95-1.44.96-1.44.97-1.41.98-1.41.99-1.4.99-1.38 1.01-1.37 1.01-1.35 1.02-1.35 1.04-1.33 1.04-1.32 1.05-1.31 1.05-1.29 1.07-1.28 1.08-1.27 1.08-1.26 1.1-1.24 1.1-1.23 1.11-1.22 1.12-1.21 1.13-1.19 1.14-1.18 1.15-1.17 1.15-1.15 1.17-1.15 1.17-1.13 1.19-1.12 1.19-1.1 1.2-1.1 1.21-1.08 1.22"/><path style="stroke-width:1.07;stroke:#000;stroke-opacity:.1;stroke-linecap:butt" d="m456.63 316.14-2.27.38-2.26.38-2.25.39-2.23.4-2.22.41-2.22.41-2.2.43-2.18.43-2.18.44-2.16.45-2.16.46-2.14.47-2.13.47-2.11.48-2.11.5-2.09.5-2.09.5-2.07.52-2.06.52-2.04.54-2.04.54-2.02.55-2.01.55-2 .57-1.99.57-1.98.59-1.97.59-1.95.6-1.94.6-1.93.62-1.92.63-1.91.63-1.89.64-1.88.65-1.87.66-1.86.66-1.85.67-1.84.69-1.82.69-1.82.7-1.8.7-1.79.72-1.77.72-1.77.74-1.75.74-1.75.75-1.73.75-1.72.77-1.7.77-1.7.78-1.68.8-1.68.79-1.66.81-1.65.82-1.63.82-1.63.83-1.61.84-1.6.85-1.59.86-1.58.86-1.57.88-1.55.88-1.55.89-1.53.9-1.52.91-1.51.91-1.49.92-1.49.94-1.47.94-1.46.95-1.45.95-1.44.97-1.43.97-1.41.98-1.4.99-1.4 1-1.38 1.01-1.36 1.01-1.36 1.03-1.34 1.03-1.34 1.04-1.32 1.05-1.31 1.05-1.29 1.07-1.29 1.07-1.27 1.08-1.26 1.09-1.25 1.1-1.24 1.11-1.23 1.11-1.22 1.12-1.2 1.14-1.19 1.14-1.18 1.14-1.17 1.16-1.16 1.16-1.14 1.18-1.13 1.18-1.13 1.19"/><path style="stroke-width:1.07;stroke:#000;stroke-opacity:.1;stroke-linecap:butt" d="m456.63 316.14-2.23.41-2.22.41-2.21.42-2.19.42-2.19.44-2.17.44-2.17.45-2.15.46-2.14.46-2.13.48-2.12.48-2.11.49-2.1.49-2.09.51-2.07.51-2.07.52-2.05.53-2.05.53-2.03.54-2.02.56-2.01.55-2 .57-1.99.57-1.98.58-1.97.59-1.96.6-1.94.61-1.94.61-1.92.62-1.91.63-1.91.63-1.89.64-1.88.66-1.87.65-1.86.67-1.85.67-1.83.69-1.83.69-1.81.69-1.81.71-1.79.71-1.78.72-1.78.73-1.76.74-1.75.74-1.74.75-1.73.76-1.71.77-1.71.77-1.7.78-1.68.79-1.67.8-1.67.81-1.65.81-1.64.82-1.63.83-1.62.83-1.61.85-1.6.85-1.58.86-1.58.87-1.56.87-1.56.88-1.54.89-1.54.9-1.52.91-1.51.91-1.5.92-1.49.93-1.47.94-1.47.94-1.46.95-1.44.96-1.44.97-1.42.98-1.41.98-1.41.99-1.39 1-1.38 1-1.37 1.02-1.36 1.02-1.34 1.03-1.34 1.04-1.33 1.04-1.31 1.05-1.3 1.06-1.3 1.07-1.28 1.08-1.27 1.08-1.26 1.09-1.25 1.1-1.24 1.11-1.23 1.11-1.21 1.12-1.21 1.13-1.2 1.14-1.18 1.15-1.17 1.15-1.17 1.16"/><path style="stroke-width:1.07;stroke:#000;stroke-opacity:.1;stroke-linecap:butt" d="m456.63 316.14-2.19.43-2.18.44-2.17.45-2.15.46-2.15.46-2.14.47-2.13.47-2.11.48-2.11.49-2.1.5-2.09.51-2.07.51-2.07.52-2.06.52-2.05.53-2.03.54-2.03.55-2.02.55-2 .57-2 .56-1.99.58-1.97.58-1.97.59-1.96.6-1.94.6-1.94.61-1.93.62-1.91.63-1.91.63-1.9.64-1.88.65-1.88.65-1.87.66-1.85.67-1.85.68-1.84.68-1.82.69-1.82.69-1.8.71-1.8.71-1.79.72-1.77.72-1.77.73-1.76.74-1.74.75-1.74.75-1.72.76-1.72.77-1.7.78-1.7.78-1.69.79-1.67.8-1.67.8-1.65.81-1.65.82-1.63.82-1.63.84-1.61.83-1.61.85-1.59.85-1.59.86-1.57.87-1.57.88-1.56.88-1.54.89-1.54.89-1.52.91-1.52.91-1.5.92-1.49.92-1.49.93-1.47.94-1.47.95-1.45.95-1.45.96-1.43.97-1.43.97-1.41.99-1.41.98-1.39 1-1.39 1-1.37 1.01-1.36 1.02-1.36 1.03-1.34 1.03-1.34 1.04-1.32 1.04-1.31 1.05-1.31 1.07-1.29 1.06-1.29 1.08-1.27 1.08-1.26 1.09-1.26 1.09-1.24 1.11-1.24 1.11-1.22 1.11-1.21 1.13-1.21 1.13"/><path style="stroke-width:1.07;stroke:#000;stroke-opacity:.1;stroke-linecap:butt" d="m456.63 316.14-2.15.46-2.14.47-2.13.48-2.11.48-2.11.49-2.11.49-2.09.5-2.08.51-2.07.52-2.07.52-2.05.52-2.05.54-2.03.54-2.03.54-2.02.56-2.01.56-2 .56-1.99.58-1.98.58-1.97.58-1.96.6-1.96.6-1.94.6-1.93.61-1.93.62-1.92.63-1.9.63-1.9.64-1.89.64-1.88.66-1.87.65-1.86.67-1.86.67-1.84.68-1.83.68-1.83.69-1.81.7-1.81.7-1.8.71-1.78.72-1.78.72-1.77.73-1.76.74-1.75.74-1.74.75-1.74.76-1.72.76-1.71.77-1.71.78-1.69.78-1.69.79-1.68.79-1.67.8-1.66.81-1.65.82-1.64.82-1.63.83-1.62.83-1.61.84-1.61.85-1.59.85-1.59.86-1.57.87-1.57.87-1.56.88-1.54.89-1.54.89-1.53.9-1.52.91-1.52.91-1.5.92-1.49.93-1.48.93-1.48.94-1.47.95-1.45.95-1.45.96-1.44.96-1.43.97-1.41.98-1.42.99-1.4.99-1.39 1-1.38 1-1.37 1.01-1.37 1.02-1.35 1.02-1.35 1.03-1.34 1.04-1.32 1.04-1.32 1.05-1.31 1.06-1.3 1.06-1.29 1.07-1.28 1.08-1.28 1.08-1.26 1.09-1.25 1.1-1.25 1.1"/><path style="stroke-width:1.07;stroke:#000;stroke-opacity:.1;stroke-linecap:butt" d="m456.63 316.14-2.11.49-2.1.5-2.08.5-2.09.51-2.07.52-2.06.52-2.06.52-2.04.54-2.04.54-2.03.54-2.03.55-2.01.56-2.01.56-1.99.57-1.99.57-1.98.58-1.97.59-1.97.59-1.95.6-1.95.6-1.94.61-1.93.62-1.92.62-1.91.63-1.91.63-1.89.64-1.89.65-1.88.65-1.87.66-1.87.66-1.85.67-1.85.67-1.83.69-1.83.68-1.83.7-1.81.69-1.8.71-1.8.71-1.79.72-1.78.72-1.77.73-1.76.73-1.75.74-1.75.75-1.74.75-1.73.76-1.72.77-1.71.77-1.7.77-1.7.79-1.69.78-1.68.8-1.67.8-1.66.8-1.65.82-1.65.81-1.64.83-1.62.83-1.62.83-1.62.84-1.6.85-1.6.85-1.58.86-1.58.87-1.57.87-1.56.88-1.56.88-1.54.89-1.54.9-1.53.9-1.52.9-1.51.92-1.5.92-1.5.92-1.48.93-1.48.94-1.47.94-1.46.95-1.45.95-1.45.96-1.44.97-1.42.97-1.42.98-1.41.98-1.41.99-1.39 1-1.39 1-1.37 1.01-1.37 1.01-1.36 1.02-1.36 1.03-1.34 1.03-1.34 1.04-1.32 1.04-1.32 1.05-1.31 1.06-1.31 1.06-1.29 1.07-1.29 1.07"/><path style="stroke-width:1.07;stroke:#000;stroke-opacity:.1;stroke-linecap:butt" d="m456.63 316.14-2.07.52-2.05.53-2.05.53-2.05.53-2.03.55-2.03.54-2.02.56-2.01.55-2 .57-2 .56-1.99.58-1.98.58-1.98.58-1.96.59-1.96.6-1.96.6-1.94.6-1.94.61-1.93.62-1.92.62-1.91.63-1.91.63-1.9.64-1.89.64-1.88.65-1.88.66-1.87.65-1.86.67-1.85.67-1.85.67-1.84.69-1.83.68-1.82.69-1.82.7-1.81.7-1.8.71-1.79.71-1.79.72-1.78.72-1.77.73-1.76.74-1.76.73-1.75.75-1.74.75-1.73.76-1.73.76-1.71.76-1.72.77-1.7.78-1.69.78-1.69.79-1.68.79-1.68.8-1.66.81-1.66.8-1.65.82-1.64.82-1.64.82-1.63.83-1.62.84-1.61.84-1.61.85-1.59.85-1.59.85-1.59.87-1.57.86-1.57.88-1.56.88-1.55.88-1.55.89-1.53.89-1.53.9-1.53.91-1.51.91-1.51.92-1.5.92-1.49.92-1.49.93-1.47.94-1.47.94-1.46.95-1.46.96-1.45.95-1.44.97-1.43.97-1.42.97-1.42.98-1.41.99-1.4.99-1.4.99-1.38 1.01-1.38 1-1.37 1.01-1.37 1.02-1.35 1.02-1.35 1.03-1.35 1.04-1.33 1.03-1.33 1.05"/><path style="stroke-width:1.07;stroke:#000;stroke-opacity:.1;stroke-linecap:butt" d="m456.63 316.14-2.03.55-2.01.55-2.01.56-2.01.57-1.99.57-1.99.57-1.99.58-1.98.58-1.97.59-1.96.59-1.96.6-1.95.6-1.94.6-1.94.61-1.93.62-1.92.62-1.92.63-1.91.63-1.9.63-1.9.64-1.89.65-1.88.65-1.88.65-1.87.66-1.86.66-1.85.67-1.85.67-1.85.68-1.83.68-1.83.69-1.83.69-1.81.7-1.81.7-1.8.71-1.8.71-1.79.71-1.78.72-1.78.73-1.77.73-1.76.73-1.76.74-1.75.75-1.74.74-1.73.76-1.73.76-1.73.76-1.71.77-1.71.77-1.7.78-1.7.78-1.69.79-1.68.79-1.68.8-1.66.8-1.67.8-1.65.81-1.65.82-1.64.82-1.64.82-1.63.83-1.62.84-1.62.84-1.6.84-1.61.85-1.59.85-1.59.86-1.58.86-1.58.87-1.57.87-1.56.88-1.55.88-1.55.89-1.54.89-1.54.9-1.53.9-1.52.91-1.51.91-1.51.91-1.5.92-1.5.93-1.48.93-1.49.93-1.47.94-1.47.94-1.46.95-1.46.95-1.44.96-1.44.96-1.44.97-1.43.97-1.42.98-1.41.98-1.41.99-1.4.99-1.4 1-1.38 1-1.38 1-1.38 1.01-1.37 1.02"/><path style="stroke-width:1.07;stroke:#000;stroke-opacity:.1;stroke-linecap:butt" d="m456.63 316.14-1.99.58-1.97.58-1.97.59-1.97.59-1.96.6-1.95.59-1.95.61-1.94.61-1.94.61-1.93.61-1.92.62-1.92.63-1.91.63-1.91.63-1.9.63-1.89.65-1.89.64-1.89.65-1.87.65-1.87.66-1.87.66-1.86.67-1.85.67-1.85.67-1.84.68-1.84.68-1.83.69-1.83.69-1.81.69-1.82.7-1.8.71-1.81.7-1.79.72-1.79.71-1.78.72-1.78.73-1.77.72-1.77.74-1.76.73-1.75.74-1.75.75-1.74.75-1.74.75-1.73.76-1.73.76-1.72.76-1.71.77-1.71.78-1.7.78-1.69.78-1.69.78-1.69.79-1.68.8-1.67.8-1.66.8-1.67.81-1.65.81-1.65.82-1.64.81-1.64.83-1.63.83-1.63.83-1.61.83-1.62.85-1.61.84-1.6.85-1.59.85-1.59.86-1.59.86-1.58.87-1.57.86-1.57.88-1.56.88-1.55.88-1.55.88-1.55.89-1.53.9-1.53.9-1.53.9-1.52.91-1.51.91-1.51.91-1.51.92-1.49.93-1.49.92-1.49.94-1.48.93-1.47.94-1.47.95-1.46.95-1.45.95-1.45.95-1.45.97-1.43.96-1.44.97-1.42.97-1.42.98-1.42.98-1.41.99"/><path style="stroke-width:1.07;stroke:#000;stroke-opacity:.1;stroke-linecap:butt" d="m456.63 316.14-1.94.61-1.94.61-1.93.61-1.93.62-1.92.62-1.92.63-1.91.63-1.91.63-1.9.64-1.89.64-1.9.64-1.88.65-1.88.65-1.88.65-1.87.66-1.87.66-1.86.66-1.86.67-1.85.67-1.84.68-1.84.68-1.84.68-1.83.69-1.83.69-1.82.69-1.82.7-1.81.7-1.8.7-1.8.71-1.8.71-1.79.71-1.79.72-1.78.72-1.78.73-1.77.73-1.76.73-1.76.74-1.76.73-1.75.75-1.75.74-1.74.75-1.73.76-1.73.76-1.73.76-1.72.76-1.72.77-1.71.77-1.7.77-1.7.78-1.7.79-1.69.78-1.69.79-1.68.79-1.67.8-1.67.8-1.67.8-1.66.81-1.65.81-1.65.82-1.65.81-1.64.82-1.64.83-1.63.83-1.62.83-1.62.84-1.62.84-1.61.84-1.6.84-1.6.85-1.6.86-1.59.85-1.58.87-1.58.86-1.58.87-1.57.87-1.56.87-1.56.88-1.56.88-1.55.89-1.54.89-1.54.89-1.54.9-1.53.9-1.52.9-1.52.91-1.52.91-1.51.91-1.5.92-1.5.92-1.5.93-1.49.92-1.48.94-1.48.93-1.48.94-1.47.94-1.46.95-1.46.95-1.46.95-1.45.96"/><path style="stroke-width:1.07;stroke:#000;stroke-opacity:.1;stroke-linecap:butt" d="m456.63 316.14-1.9.64-1.9.64-1.89.64-1.89.65-1.88.64-1.88.66-1.88.65-1.87.66-1.87.66-1.86.66-1.86.67-1.86.67-1.85.67-1.84.68-1.84.67-1.84.68-1.84.69-1.83.69-1.82.69-1.82.69-1.82.7-1.81.69-1.81.71-1.81.7-1.8.71-1.79.71-1.79.71-1.79.72-1.79.72-1.77.72-1.78.73-1.77.73-1.77.73-1.76.73-1.76.74-1.75.74-1.75.75-1.75.74-1.74.75-1.74.75-1.73.76-1.73.76-1.73.76-1.72.76-1.71.77-1.72.77-1.7.78-1.71.77-1.7.78-1.69.78-1.7.79-1.68.79-1.69.79-1.67.79-1.68.8-1.67.8-1.67.8-1.66.81-1.66.81-1.65.81-1.65.81-1.65.82-1.64.82-1.63.83-1.64.82-1.63.83-1.62.83-1.62.84-1.62.84-1.61.84-1.61.85-1.6.84-1.6.85-1.59.86-1.6.85-1.58.86-1.59.87-1.57.86-1.58.87-1.57.87-1.56.87-1.57.88-1.55.88-1.56.88-1.55.89-1.54.89-1.54.89-1.54.9-1.53.9-1.53.9-1.52.9-1.52.91-1.52.91-1.51.91-1.51.92-1.5.91-1.5.93-1.5.92-1.49.93"/><path style="stroke-width:1.07;stroke:#000;stroke-opacity:.1;stroke-linecap:butt" d="m456.63 316.14-1.86.67-1.86.67-1.85.67-1.85.67-1.85.67-1.84.68-1.84.68-1.84.68-1.83.69-1.83.69-1.83.69-1.82.69-1.82.69-1.81.7-1.82.7-1.81.7-1.8.7-1.81.71-1.8.71-1.79.71-1.79.71-1.79.72-1.79.72-1.78.72-1.78.72-1.78.72-1.77.73-1.77.73-1.77.73-1.76.74-1.76.74-1.75.73-1.76.75-1.75.74-1.74.75-1.74.75-1.74.75-1.74.75-1.73.76-1.73.76-1.73.76-1.72.76-1.72.77-1.71.76-1.72.77-1.71.78-1.7.77-1.7.78-1.7.78-1.7.78-1.69.79-1.69.78-1.69.79-1.68.79-1.68.8-1.67.79-1.67.8-1.67.8-1.67.81-1.66.8-1.66.81-1.66.81-1.65.82-1.65.81-1.64.82-1.64.82-1.64.82-1.64.83-1.63.82-1.63.83-1.62.84-1.63.83-1.62.84-1.61.84-1.61.84-1.61.84-1.61.85-1.6.85-1.6.85-1.59.85-1.59.86-1.59.86-1.59.86-1.58.86-1.58.86-1.57.87-1.58.87-1.56.87-1.57.88-1.56.88-1.56.88-1.55.88-1.56.88-1.54.89-1.55.89-1.54.89-1.54.89-1.53.9-1.54.9"/><path style="stroke-width:1.07;stroke:#000;stroke-opacity:.1;stroke-linecap:butt" d="m456.63 316.14-1.82.7-1.82.69-1.81.7-1.81.7-1.81.7-1.81.71-1.8.7-1.8.71-1.8.71-1.8.71-1.79.71-1.79.72-1.79.71-1.79.72-1.78.72-1.78.72-1.78.73-1.78.72-1.77.73-1.77.73-1.77.73-1.76.73-1.77.73-1.76.74-1.76.74-1.75.74-1.76.74-1.75.74-1.75.75-1.74.74-1.75.75-1.74.75-1.73.75-1.74.76-1.73.75-1.73.76-1.73.76-1.73.76-1.72.76-1.72.77-1.72.76-1.72.77-1.71.77-1.71.77-1.71.78-1.71.77-1.7.78-1.7.78-1.7.78-1.69.78-1.7.78-1.69.79-1.69.79-1.68.78-1.68.8-1.68.79-1.68.79-1.68.8-1.67.8-1.67.8-1.67.8-1.67.8-1.66.81-1.66.81-1.66.81-1.65.81-1.66.81-1.65.81-1.64.82-1.65.82-1.64.82-1.64.82-1.64.82-1.64.83-1.63.82-1.63.83-1.63.83-1.62.83-1.63.84-1.62.83-1.61.84-1.62.84-1.61.84-1.61.84-1.61.85-1.61.84-1.6.85-1.6.85-1.6.85-1.59.86-1.59.85-1.6.86-1.58.86-1.59.86-1.58.86-1.58.87-1.58.86-1.57.87-1.58.87"/><path style="stroke-width:1.07;stroke:#000;stroke-opacity:.1;stroke-linecap:butt" d="m456.63 316.14-1.78.73-1.78.72-1.77.73-1.77.72-1.77.73-1.77.73-1.77.73-1.77.74-1.76.73-1.76.73-1.77.74-1.75.74-1.76.74-1.76.74-1.75.74-1.76.74-1.75.74-1.75.74-1.74.75-1.75.75-1.74.74-1.75.75-1.74.75-1.74.75-1.73.76-1.74.75-1.73.76-1.74.75-1.73.76-1.73.76-1.72.76-1.73.76-1.72.76-1.73.76-1.72.77-1.72.76-1.71.77-1.72.77-1.71.77-1.72.77-1.71.77-1.71.77-1.7.78-1.71.77-1.7.78-1.71.77-1.7.78-1.69.78-1.7.78-1.7.79-1.69.78-1.69.78-1.69.79-1.69.79-1.69.78-1.69.79-1.68.79-1.68.8-1.68.79-1.68.79-1.68.8-1.68.79-1.67.8-1.67.8-1.67.8-1.67.8-1.67.81-1.66.8-1.67.8-1.66.81-1.66.81-1.66.8-1.66.81-1.65.82-1.66.81-1.65.81-1.65.81-1.65.82-1.64.82-1.65.81-1.64.82-1.65.82-1.64.82-1.64.83-1.63.82-1.64.83-1.63.82-1.63.83-1.63.83-1.63.83-1.63.83-1.63.83-1.62.83-1.62.84-1.62.83-1.62.84-1.62.84-1.61.84-1.62.84"/><path style="stroke-width:1.07;stroke:#000;stroke-opacity:.1;stroke-linecap:butt" d="m456.63 316.14-1.74.75-1.74.76-1.73.75-1.73.76-1.74.75-1.73.76-1.73.76-1.73.75-1.73.76-1.73.76-1.73.76-1.73.76-1.72.76-1.73.76-1.73.76-1.72.76-1.72.76-1.73.77-1.72.76-1.72.77-1.72.76-1.72.77-1.72.76-1.71.77-1.72.77-1.72.76-1.71.77-1.71.77-1.72.77-1.71.77-1.71.77-1.71.77-1.71.78-1.71.77-1.71.77-1.71.78-1.7.77-1.71.78-1.7.77-1.71.78-1.7.78-1.7.77-1.71.78-1.7.78-1.7.78-1.69.78-1.7.78-1.7.78-1.7.78-1.69.78-1.7.79-1.69.78-1.69.78-1.7.79-1.69.78-1.69.79-1.69.79-1.69.78-1.69.79-1.68.79-1.69.79-1.69.79-1.68.79-1.68.79-1.69.79-1.68.79-1.68.79-1.68.79-1.68.8-1.68.79-1.68.8-1.68.79-1.67.8-1.68.79-1.67.8-1.68.8-1.67.8-1.67.8-1.67.8-1.67.8-1.67.8-1.67.8-1.67.8-1.67.8-1.66.8-1.67.81-1.67.8-1.66.81-1.66.8-1.66.81-1.67.8-1.66.81-1.66.81-1.65.81-1.66.81-1.66.81-1.66.81-1.65.81-1.66.81"/><path style="stroke-width:1.07;stroke:#000;stroke-opacity:.1;stroke-linecap:butt" d="m456.63 316.14-1.7.78-1.69.79-1.7.78-1.7.78-1.69.78-1.7.78-1.69.79-1.7.78-1.69.78-1.7.78-1.7.79-1.69.78-1.7.78-1.69.78-1.7.78-1.69.79-1.7.78-1.7.78-1.69.78-1.7.79-1.69.78-1.7.78-1.69.78-1.7.78-1.7.79-1.69.78-1.7.78-1.69.78-1.7.79-1.69.78-1.7.78-1.69.78-1.7.78-1.7.79-1.69.78-1.7.78-1.69.78-1.7.78-1.69.79-1.7.78-1.7.78-1.69.78-1.7.79-1.69.78-1.7.78-1.69.78-1.7.78-1.7.79-1.69.78-1.7.78-1.69.78-1.7.79-1.69.78-1.7.78-1.7.78-1.69.78-1.7.79-1.69.78-1.7.78-1.69.78-1.7.79-1.7.78-1.69.78-1.7.78-1.69.78-1.7.79-1.69.78-1.7.78-1.7.78-1.69.79-1.7.78-1.69.78-1.7.78-1.69.78-1.7.79-1.7.78-1.69.78-1.7.78-1.69.78-1.7.79-1.69.78-1.7.78-1.7.78-1.69.79-1.7.78-1.69.78-1.7.78-1.69.78-1.7.79-1.7.78-1.69.78-1.7.78-1.69.79-1.7.78-1.69.78-1.7.78-1.7.78-1.69.79-1.7.78"/><path style="stroke-width:1.07;stroke:#000;stroke-opacity:.1;stroke-linecap:butt" d="m456.63 316.14-1.66.81-1.65.81-1.66.81-1.66.81-1.65.81-1.66.81-1.66.81-1.66.81-1.67.8-1.66.81-1.66.8-1.66.81-1.67.8-1.66.81-1.67.8-1.67.8-1.67.8-1.67.8-1.66.8-1.68.8-1.67.8-1.67.8-1.67.8-1.68.8-1.67.8-1.68.79-1.67.8-1.68.79-1.68.8-1.68.79-1.68.8-1.68.79-1.68.79-1.68.79-1.68.79-1.69.79-1.68.79-1.69.79-1.69.79-1.68.79-1.69.79-1.69.78-1.69.79-1.69.79-1.69.78-1.69.79-1.7.78-1.69.78-1.7.79-1.69.78-1.7.78-1.7.78-1.69.78-1.7.78-1.7.78-1.7.78-1.71.78-1.7.77-1.7.78-1.71.78-1.7.77-1.71.78-1.7.77-1.71.78-1.71.77-1.71.77-1.71.78-1.71.77-1.71.77-1.71.77-1.72.77-1.71.77-1.71.77-1.72.76-1.72.77-1.71.77-1.72.76-1.72.77-1.72.76-1.72.77-1.72.76-1.73.77-1.72.76-1.72.76-1.73.76-1.72.76-1.73.76-1.73.76-1.73.76-1.73.76-1.73.76-1.73.75-1.73.76-1.73.76-1.73.75-1.74.76-1.73.75-1.74.76-1.74.75"/><path style="stroke-width:1.07;stroke:#000;stroke-opacity:.1;stroke-linecap:butt" d="m456.63 316.14-1.62.84-1.61.84-1.62.84-1.62.84-1.62.83-1.62.84-1.62.83-1.63.83-1.63.83-1.62.83-1.64.83-1.63.83-1.63.82-1.64.83-1.63.82-1.64.83-1.64.82-1.65.82-1.64.82-1.64.81-1.65.82-1.65.82-1.65.81-1.65.81-1.66.82-1.65.81-1.66.81-1.66.8-1.66.81-1.66.81-1.67.8-1.66.81-1.67.8-1.67.8-1.67.8-1.67.8-1.67.8-1.68.79-1.68.8-1.68.79-1.68.79-1.68.8-1.68.79-1.69.79-1.69.78-1.68.79-1.69.79-1.7.78-1.69.78-1.7.79-1.69.78-1.7.78-1.7.78-1.71.77-1.7.78-1.71.77-1.7.78-1.71.77-1.71.77-1.72.77-1.71.77-1.72.77-1.71.77-1.72.76-1.72.77-1.73.76-1.72.76-1.73.76-1.72.76-1.73.76-1.73.76-1.74.75-1.73.76-1.74.75-1.73.76-1.74.75-1.74.75-1.75.75-1.74.74-1.75.75-1.74.75-1.75.74-1.75.74-1.76.74-1.75.74-1.76.74-1.75.74-1.76.74-1.76.74-1.77.73-1.76.73-1.77.74-1.77.73-1.76.73-1.78.73-1.77.72-1.77.73-1.78.72-1.78.73"/><path style="stroke-width:1.07;stroke:#000;stroke-opacity:.1;stroke-linecap:butt" d="m456.63 316.14-1.58.87-1.57.87-1.58.86-1.58.87-1.58.86-1.59.86-1.58.86-1.59.86-1.6.85-1.59.86-1.6.85-1.6.85-1.6.85-1.61.84-1.61.85-1.61.84-1.61.84-1.61.84-1.62.84-1.62.83-1.63.84-1.62.83-1.63.83-1.63.83-1.63.82-1.64.83-1.64.82-1.64.82-1.64.82-1.64.82-1.65.82-1.65.81-1.66.81-1.65.81-1.66.81-1.66.81-1.66.81-1.67.8-1.67.8-1.67.8-1.67.8-1.68.8-1.67.79-1.69.79-1.68.8-1.68.78-1.69.79-1.69.79-1.7.78-1.69.78-1.7.78-1.7.78-1.7.78-1.71.77-1.71.78-1.71.77-1.71.77-1.72.77-1.72.76-1.72.77-1.72.76-1.73.76-1.72.76-1.74.76-1.73.75-1.73.76-1.74.75-1.74.75-1.75.75-1.74.74-1.75.75-1.75.74-1.76.74-1.75.74-1.76.74-1.76.74-1.76.73-1.77.73-1.77.73-1.77.73-1.77.73-1.78.72-1.78.73-1.78.72-1.78.72-1.79.72-1.79.71-1.79.72-1.79.71-1.8.71-1.8.71-1.8.71-1.8.7-1.81.71-1.81.7-1.81.7-1.81.7-1.82.69-1.82.7"/><path style="stroke-width:1.07;stroke:#000;stroke-opacity:.1;stroke-linecap:butt" d="m456.63 316.14-1.53.9-1.54.9-1.54.89-1.54.89-1.54.89-1.55.89-1.55.88-1.56.88-1.56.88-1.56.88-1.57.88-1.56.87-1.58.87-1.57.87-1.58.86-1.58.86-1.59.86-1.58.86-1.6.86-1.59.85-1.6.85-1.6.85-1.61.85-1.61.84-1.61.84-1.61.84-1.62.84-1.62.83-1.63.84-1.63.83-1.63.82-1.64.83-1.64.82-1.64.82-1.64.82-1.65.81-1.65.82-1.66.81-1.66.81-1.66.8-1.67.81-1.66.8-1.68.8-1.67.79-1.68.8-1.68.79-1.69.79-1.69.78-1.69.79-1.7.78-1.7.78-1.7.78-1.7.77-1.71.78-1.72.77-1.71.76-1.72.77-1.72.76-1.73.76-1.73.76-1.73.76-1.74.75-1.74.75-1.74.75-1.74.75-1.75.74-1.76.75-1.75.73-1.76.74-1.76.74-1.77.73-1.77.73-1.77.73-1.78.72-1.78.72-1.78.72-1.79.72-1.79.72-1.79.71-1.79.71-1.8.71-1.81.71-1.8.7-1.81.7-1.81.7-1.82.7-1.82.69-1.82.69-1.83.69-1.83.69-1.83.69-1.84.68-1.84.68-1.84.68-1.85.67-1.85.67-1.85.67-1.86.67-1.86.67"/><path style="stroke-width:1.07;stroke:#000;stroke-opacity:.1;stroke-linecap:butt" d="m456.63 316.14-1.49.93-1.5.92-1.5.93-1.5.91-1.51.92-1.51.91-1.52.91-1.52.91-1.52.9-1.53.9-1.53.9-1.54.9-1.54.89-1.54.89-1.55.89-1.56.88-1.55.88-1.56.88-1.57.87-1.57.87-1.58.87-1.57.87-1.59.86-1.58.86-1.59.85-1.6.86-1.6.85-1.6.84-1.61.85-1.61.84-1.62.84-1.62.84-1.62.83-1.63.83-1.64.82-1.63.83-1.64.82-1.65.82-1.65.81-1.65.81-1.66.81-1.66.81-1.67.8-1.67.8-1.67.8-1.68.79-1.69.79-1.68.79-1.7.79-1.69.78-1.7.78-1.71.77-1.7.78-1.72.77-1.71.77-1.72.76-1.73.76-1.73.76-1.73.76-1.74.75-1.74.75-1.75.74-1.75.75-1.75.74-1.76.74-1.76.73-1.77.73-1.77.73-1.77.73-1.78.72-1.79.72-1.79.72-1.79.71-1.79.71-1.8.71-1.81.7-1.81.71-1.81.69-1.82.7-1.82.69-1.82.69-1.83.69-1.84.69-1.83.68-1.85.67-1.84.68-1.85.67-1.86.67-1.86.67-1.86.66-1.87.66-1.87.66-1.87.65-1.88.66-1.89.64-1.89.65-1.89.64-1.9.64-1.9.64"/><path style="stroke-width:1.07;stroke:#000;stroke-opacity:.1;stroke-linecap:butt" d="m456.63 316.14-1.45.96-1.46.95-1.46.95-1.46.95-1.47.94-1.48.94-1.48.93-1.48.94-1.49.92-1.5.93-1.49.92-1.51.92-1.51.91-1.51.91-1.52.91-1.53.9-1.53.9-1.53.9-1.54.89-1.55.89-1.55.89-1.55.88-1.56.88-1.57.87-1.57.87-1.58.87-1.58.86-1.58.87-1.59.85-1.6.86-1.6.85-1.6.84-1.61.84-1.62.84-1.62.84-1.62.83-1.63.83-1.64.83-1.64.82-1.65.81-1.65.82-1.65.81-1.66.81-1.67.8-1.67.8-1.67.8-1.68.79-1.69.79-1.69.78-1.7.79-1.7.78-1.7.77-1.71.77-1.72.77-1.72.76-1.73.76-1.73.76-1.73.76-1.74.75-1.75.74-1.75.75-1.76.74-1.76.73-1.76.73-1.77.73-1.78.73-1.78.72-1.79.72-1.79.71-1.79.71-1.81.71-1.8.7-1.81.7-1.82.7-1.82.69-1.83.69-1.83.69-1.83.68-1.85.68-1.84.68-1.85.67-1.86.67-1.86.66-1.87.66-1.87.66-1.88.65-1.88.65-1.88.65-1.9.64-1.89.64-1.9.64-1.91.63-1.91.63-1.92.63-1.92.62-1.93.62-1.93.61-1.93.61-1.95.61"/><path style="stroke-width:1.07;stroke:#000;stroke-opacity:.1;stroke-linecap:butt" d="m456.63 316.14-1.41.99-1.42.98-1.42.98-1.42.97-1.43.97-1.44.96-1.45.97-1.45.95-1.45.95-1.46.95-1.47.95-1.47.94-1.48.93-1.49.94-1.49.92-1.49.93-1.51.92-1.5.91-1.52.91-1.52.91-1.52.9-1.54.9-1.53.9-1.55.89-1.55.88-1.55.88-1.56.88-1.57.88-1.57.87-1.58.86-1.58.86-1.59.86-1.6.85-1.6.85-1.61.84-1.61.85-1.62.83-1.63.83-1.63.83-1.64.83-1.64.81-1.65.82-1.65.81-1.66.81-1.67.8-1.67.8-1.68.8-1.69.79-1.69.78-1.69.78-1.7.78-1.71.78-1.71.77-1.72.76-1.73.76-1.73.76-1.73.75-1.75.75-1.75.75-1.75.74-1.76.73-1.77.74-1.77.72-1.78.73-1.78.72-1.79.71-1.79.72-1.81.7-1.8.71-1.82.7-1.81.69-1.83.69-1.83.69-1.84.68-1.84.68-1.85.67-1.85.67-1.86.67-1.86.66-1.88.66-1.87.65-1.89.65-1.89.64-1.89.65-1.9.63-1.91.63-1.91.63-1.92.63-1.92.62-1.93.61-1.94.61-1.94.61-1.95.61-1.95.59-1.96.6-1.97.59-1.97.59-1.97.58-1.99.58"/><path style="stroke-width:1.07;stroke:#000;stroke-opacity:.1;stroke-linecap:butt" d="m456.63 316.14-1.37 1.02-1.37 1.01-1.39 1-1.38 1-1.4 1-1.4.99-1.41.99-1.41.98-1.42.98-1.43.97-1.43.97-1.45.96-1.44.96-1.46.95-1.46.95-1.47.94-1.47.94-1.48.93-1.49.93-1.5.93-1.5.92-1.51.91-1.51.91-1.52.91-1.53.9-1.54.9-1.54.89-1.55.89-1.55.88-1.56.88-1.57.87-1.58.87-1.58.86-1.59.86-1.59.85-1.61.85-1.6.84-1.62.84-1.62.84-1.63.83-1.64.82-1.64.82-1.65.82-1.65.81-1.66.8-1.67.8-1.68.8-1.68.79-1.69.79-1.7.78-1.7.78-1.71.77-1.71.77-1.73.76-1.72.76-1.74.76-1.74.74-1.75.75-1.76.74-1.76.73-1.77.73-1.78.73-1.78.72-1.79.71-1.79.71-1.81.71-1.81.7-1.81.7-1.83.69-1.83.69-1.83.68-1.85.68-1.84.67-1.86.67-1.86.66-1.87.66-1.88.66-1.88.64-1.89.65-1.9.64-1.9.63-1.91.63-1.92.63-1.92.62-1.93.62-1.94.61-1.94.6-1.95.6-1.96.6-1.96.59-1.97.59-1.98.58-1.98.58-1.99.57-2 .57-2.01.57-2.01.56-2.01.55-2.03.55"/><path style="stroke-width:1.07;stroke:#000;stroke-opacity:.1;stroke-linecap:butt" d="m456.63 316.14-1.33 1.05-1.33 1.03-1.35 1.04-1.34 1.03-1.36 1.02-1.37 1.02-1.37 1.01-1.38 1-1.38 1.01-1.4.99-1.4.99-1.41.99-1.42.98-1.42.97-1.43.97-1.44.97-1.45.95-1.45.96-1.47.95-1.47.94-1.47.94-1.49.93-1.49.92-1.5.93-1.51.91-1.51.91-1.53.91-1.53.9-1.53.89-1.55.89-1.55.88-1.56.88-1.57.88-1.57.86-1.59.87-1.59.85-1.59.85-1.61.85-1.61.84-1.62.84-1.63.83-1.64.82-1.64.82-1.65.82-1.66.8-1.66.81-1.68.8-1.68.79-1.68.79-1.7.78-1.7.78-1.71.77-1.72.76-1.73.76-1.73.76-1.74.75-1.75.75-1.76.73-1.76.74-1.77.73-1.78.72-1.79.72-1.79.71-1.8.71-1.81.7-1.82.7-1.82.69-1.83.68-1.84.69-1.85.67-1.85.67-1.86.67-1.87.65-1.88.66-1.88.65-1.89.64-1.9.64-1.91.63-1.91.63-1.92.62-1.93.62-1.94.61-1.94.6-1.96.6-1.96.6-1.96.59-1.98.58-1.98.58-1.99.58-1.99.56-2.01.57-2.01.55-2.02.56-2.03.54-2.03.55-2.04.53-2.05.53-2.06.53-2.07.52"/><path style="stroke-width:1.07;stroke:#000;stroke-opacity:.1;stroke-linecap:butt" d="m456.63 316.14-1.29 1.07-1.29 1.07-1.3 1.06-1.32 1.06-1.31 1.05-1.33 1.04-1.34 1.04-1.34 1.03-1.35 1.03-1.37 1.02-1.36 1.01-1.38 1.01-1.39 1-1.39 1-1.41.99-1.41.98-1.42.98-1.42.97-1.44.97-1.45.96-1.45.95-1.46.95-1.47.94-1.48.94-1.48.93-1.5.92-1.5.92-1.51.92-1.52.9-1.53.9-1.54.9-1.54.89-1.56.88-1.56.88-1.57.87-1.58.87-1.58.86-1.6.85-1.6.85-1.62.84-1.62.83-1.62.83-1.64.83-1.65.81-1.65.82-1.66.8-1.67.8-1.68.8-1.69.78-1.7.79-1.7.77-1.71.77-1.72.77-1.73.76-1.74.75-1.75.75-1.75.74-1.76.73-1.77.73-1.78.72-1.79.72-1.8.71-1.8.71-1.81.69-1.83.7-1.82.68-1.84.69-1.85.67-1.85.67-1.87.66-1.87.66-1.88.65-1.89.65-1.89.64-1.91.63-1.91.63-1.92.62-1.93.62-1.94.61-1.95.6-1.95.6-1.97.59-1.97.59-1.98.58-1.99.57-1.99.57-2.01.56-2.01.56-2.03.55-2.03.54-2.03.54-2.05.54-2.06.52-2.06.52-2.07.52-2.08.51-2.09.5-2.1.5-2.11.49"/><path style="stroke-width:1.07;stroke:#000;stroke-opacity:.1;stroke-linecap:butt" d="m456.63 316.14-1.25 1.1-1.25 1.1-1.26 1.09-1.28 1.08-1.28 1.08-1.29 1.07-1.3 1.06-1.31 1.06-1.32 1.05-1.32 1.04-1.34 1.04-1.35 1.03-1.35 1.02-1.36 1.02-1.38 1.01-1.38 1-1.39 1-1.4.99-1.41.99-1.42.98-1.43.97-1.44.96-1.45.96-1.45.95-1.47.95-1.47.94-1.49.93-1.49.93-1.5.92-1.52.91-1.52.91-1.53.9-1.54.89-1.54.89-1.56.88-1.57.87-1.57.87-1.59.86-1.59.85-1.61.85-1.61.84-1.62.83-1.63.83-1.64.82-1.65.82-1.66.81-1.67.8-1.68.79-1.68.79-1.7.78-1.71.78-1.71.77-1.72.76-1.74.76-1.74.75-1.75.74-1.76.74-1.77.73-1.78.72-1.78.72-1.8.71-1.81.7-1.81.7-1.83.69-1.83.68-1.84.68-1.86.67-1.86.67-1.87.65-1.88.66-1.89.64-1.89.64-1.91.63-1.92.63-1.92.62-1.94.61-1.94.6-1.96.6-1.96.6-1.97.58-1.98.58-1.99.58-2 .56-2.01.56-2.02.56-2.03.54-2.03.54-2.05.54-2.05.52-2.07.53-2.07.51-2.08.51-2.09.5-2.1.49-2.11.49-2.12.48-2.13.48-2.14.47-2.15.46"/><path style="stroke-width:1.07;stroke:#000;stroke-opacity:.1;stroke-linecap:butt" d="m456.63 316.14-1.21 1.13-1.21 1.13-1.22 1.11-1.24 1.11-1.24 1.11-1.25 1.09-1.27 1.09-1.27 1.08-1.29 1.08-1.29 1.06-1.3 1.07-1.32 1.05-1.32 1.04-1.34 1.04-1.34 1.03-1.36 1.03-1.36 1.02-1.37 1.01-1.39 1-1.39 1-1.41.98-1.41.99-1.43.97-1.43.97-1.45.96-1.45.95-1.46.95-1.48.94-1.48.93-1.5.92-1.5.92-1.52.91-1.52.91-1.54.89-1.54.89-1.56.88-1.56.88-1.58.87-1.58.86-1.6.85-1.61.85-1.61.84-1.63.83-1.63.82-1.65.82-1.65.81-1.67.8-1.67.8-1.69.79-1.69.78-1.71.78-1.72.77-1.72.76-1.74.75-1.74.75-1.76.74-1.77.73-1.77.72-1.79.72-1.79.71-1.81.71-1.82.69-1.82.69-1.84.68-1.85.68-1.85.67-1.87.66-1.87.65-1.89.65-1.9.64-1.9.63-1.92.63-1.93.62-1.93.61-1.95.6-1.96.6-1.96.59-1.98.58-1.99.58-2 .56-2 .57-2.02.55-2.03.55-2.03.54-2.05.53-2.06.52-2.07.52-2.07.51-2.09.51-2.1.5-2.11.49-2.11.48-2.13.47-2.14.47-2.15.46-2.15.46-2.17.45-2.18.44-2.19.43"/><path style="stroke-width:1.07;stroke:#000;stroke-opacity:.1;stroke-linecap:butt" d="m456.63 316.14-1.17 1.16-1.17 1.15-1.18 1.15-1.2 1.14-1.2 1.13-1.22 1.12-1.23 1.11-1.24 1.11-1.25 1.1-1.26 1.09-1.27 1.08-1.28 1.08-1.29 1.07-1.31 1.06-1.31 1.05-1.33 1.04-1.34 1.04-1.34 1.03-1.36 1.02-1.37 1.02-1.38 1-1.39 1-1.4.99-1.42.98-1.42.98-1.44.97-1.44.96-1.46.95-1.46.94-1.48.94-1.49.93-1.5.92-1.51.91-1.52.91-1.54.9-1.54.89-1.55.88-1.57.87-1.58.87-1.58.86-1.6.85-1.61.85-1.62.83-1.63.83-1.64.82-1.65.81-1.67.81-1.67.8-1.68.79-1.7.78-1.71.77-1.71.77-1.73.76-1.74.75-1.75.74-1.76.74-1.77.73-1.79.72-1.79.71-1.81.71-1.81.69-1.83.69-1.83.69-1.85.67-1.86.67-1.87.65-1.88.66-1.89.64-1.91.63-1.91.63-1.92.62-1.94.61-1.94.61-1.96.6-1.97.59-1.98.58-1.99.57-2 .57-2.01.55-2.02.56-2.03.54-2.05.53-2.05.53-2.07.52-2.07.51-2.09.51-2.1.49-2.11.49-2.12.48-2.13.48-2.14.46-2.15.46-2.17.45-2.17.44-2.19.44-2.19.42-2.21.42-2.22.41-2.23.41"/><path style="stroke-width:1.07;stroke:#000;stroke-opacity:.1;stroke-linecap:butt" d="m456.63 316.14-1.12 1.19-1.14 1.18-1.14 1.18-1.16 1.16-1.17 1.16-1.18 1.14-1.19 1.14-1.2 1.14-1.22 1.12-1.23 1.11-1.23 1.11-1.25 1.1-1.27 1.09-1.27 1.08-1.29 1.07-1.29 1.07-1.31 1.05-1.32 1.05-1.34 1.04-1.34 1.03-1.36 1.03-1.36 1.01-1.38 1.01-1.39 1-1.41.99-1.41.98-1.43.97-1.44.97-1.45.96-1.46.94-1.47.94-1.48.94-1.5.92-1.51.91-1.52.91-1.53.9-1.54.89-1.56.88-1.57.88-1.57.86-1.6.86-1.6.85-1.61.84-1.63.83-1.63.82-1.65.82-1.66.81-1.67.79-1.69.8-1.69.78-1.71.77-1.72.77-1.73.75-1.74.75-1.76.74-1.76.74-1.78.72-1.79.72-1.8.7-1.82.7-1.82.69-1.84.69-1.84.67-1.86.66-1.88.66-1.88.65-1.89.64-1.91.63-1.92.63-1.93.62-1.94.6-1.95.6-1.97.59-1.98.59-1.98.57-2.01.57-2.01.55-2.02.55-2.04.54-2.04.54-2.06.52-2.07.52-2.09.5-2.09.5-2.11.5-2.11.48-2.13.47-2.14.47-2.16.46-2.16.45-2.18.44-2.18.43-2.2.43-2.21.41-2.23.41-2.23.4-2.25.39-2.26.38-2.27.38"/><path style="stroke-width:1.07;stroke:#000;stroke-opacity:.1;stroke-linecap:butt" d="m456.63 316.14-1.08 1.22-1.1 1.21-1.1 1.2-1.12 1.19-1.13 1.19-1.14 1.17-1.16 1.17-1.17 1.15-1.18 1.15-1.19 1.14-1.21 1.13-1.22 1.12-1.23 1.11-1.24 1.1-1.26 1.1-1.27 1.08-1.28 1.08-1.29 1.07-1.31 1.05-1.32 1.05-1.33 1.04-1.35 1.04-1.35 1.02-1.37 1.01-1.38 1.01-1.4.99-1.4.99-1.42.98-1.44.97-1.44.96-1.46.95-1.47.94-1.48.94-1.49.92-1.51.92-1.52.9-1.53.9-1.55.89-1.56.88-1.57.87-1.58.86-1.6.86-1.6.84-1.62.84-1.64.82-1.64.82-1.66.81-1.67.8-1.68.79-1.7.78-1.71.78-1.72.76-1.73.76-1.75.74-1.76.74-1.77.73-1.78.72-1.8.71-1.81.7-1.82.7-1.83.68-1.85.68-1.86.66-1.87.66-1.88.65-1.9.64-1.91.63-1.92.62-1.93.61-1.95.61-1.96.59-1.97.59-1.99.58-1.99.56-2.01.56-2.02.55-2.04.55-2.05.53-2.06.52-2.07.52-2.08.5-2.1.5-2.11.49-2.12.48-2.14.47-2.15.46-2.16.45-2.17.45-2.18.43-2.2.43-2.21.41-2.22.41-2.24.4-2.25.39-2.26.38-2.27.38-2.29.36-2.3.35-2.31.35"/><path style="stroke-width:1.07;stroke:#000;stroke-opacity:.1;stroke-linecap:butt" d="m456.63 316.14-1.04 1.25-1.06 1.24-1.06 1.23-1.08 1.22-1.09 1.21-1.11 1.2-1.12 1.19-1.13 1.18-1.15 1.17-1.16 1.16-1.17 1.16-1.19 1.14-1.2 1.13-1.22 1.13-1.22 1.11-1.24 1.11-1.26 1.09-1.26 1.09-1.28 1.08-1.3 1.06-1.31 1.06-1.32 1.05-1.33 1.04-1.35 1.03-1.36 1.02-1.37 1.01-1.39 1-1.4.99-1.42.98-1.42.97-1.45.97-1.45.95-1.47.94-1.48.94-1.49.92-1.51.92-1.52.9-1.54.9-1.55.89-1.56.87-1.57.87-1.59.86-1.61.85-1.61.84-1.63.83-1.64.82-1.66.81-1.67.8-1.68.79-1.69.78-1.71.78-1.73.76-1.73.75-1.75.75-1.76.73-1.78.73-1.79.71-1.8.71-1.82.69-1.83.69-1.84.68-1.86.67-1.87.66-1.88.65-1.9.64-1.91.63-1.92.62-1.94.61-1.95.6-1.96.59-1.98.58-1.99.58-2 .56-2.02.55-2.03.55-2.04.53-2.06.53-2.07.52-2.08.5-2.1.5-2.11.49-2.13.48-2.13.46-2.16.46-2.16.45-2.18.44-2.19.43-2.2.42-2.22.42-2.23.4-2.25.39-2.25.38-2.28.38-2.28.36-2.3.36-2.31.34-2.33.34-2.33.32-2.36.32"/><path style="stroke-width:.71;stroke:none;fill:#00ba38" d="m330.59 251.31 7.87 13.64h-15.74zM434.45 491.75l4.46 7.71H430zM522.77 412.72l1.92 3.32h-3.83zM122.02 301.86l1.92 3.31h-3.83zM55.97 387.96l1.91 3.32h-3.83zM116.79 476.93l3.19 5.51h-6.37zM270.55 522l1.92 3.31h-3.83z"/><path style="stroke-width:.71;stroke:none;fill:#619cff" d="M450.78 321.99h11.69V310.3h-11.69z"/><circle cx="288.75" cy="393.58" r="6.76" style="stroke-width:.71;stroke:none;fill:#f8766d"/><circle cx="381.14" cy="140.95" r="1.42" style="stroke-width:.71;stroke:none;fill:#f8766d"/><path style="stroke-width:.53;stroke:#bfbfbf" d="m335.93 255.8-4.46 3.85M429.3 501.54l4.29-3.87M127.45 299.38l-4.55 3.93M111.57 485.31l4.36-3.93M275.73 519.54l-4.32 3.9M451.24 320.79l4.51-3.89M294.15 388.92l-4.52 3.9M375.69 145.55l4.56-3.85"/><path style="stroke-width:.53;fill:#fff;fill-opacity:.5" d="M311.25 255.8h73.65-.08l.34-.02.34-.06.33-.13.3-.17.27-.22.23-.26.19-.3.13-.32.09-.33.02-.35v-15.16l-.02-.34-.09-.34-.13-.32-.19-.29-.23-.26-.27-.22-.3-.18-.33-.12-.34-.07-.26-.02h-73.65l.26.02-.35-.01-.34.04-.34.09-.31.15-.29.2-.25.24-.21.28-.16.31-.11.33-.06.34v15.33-.17.34l.06.35.11.33.16.31.21.27.25.24.29.2.31.15.34.1.34.04z"/><text x="348.08" y="244.01" text-anchor="middle" style="font-size:5.69px;font-family:&quot;Arial&quot;" textLength="70.78" lengthAdjust="spacingAndGlyphs">EDWARDS ENTERPRISES</text><text x="348.08" y="252.2" text-anchor="middle" style="font-size:5.69px;font-family:&quot;Arial&quot;" textLength="10.43" lengthAdjust="spacingAndGlyphs">LLC</text><path style="stroke-width:.53;fill:#fff;fill-opacity:.5" d="M388.43 512.82h67-.08l.34-.02.34-.07.33-.12.3-.17.27-.22.23-.26.19-.3.13-.32.09-.33.02-.35v-6.96l-.02-.35-.09-.34-.13-.32-.19-.29-.23-.26-.27-.22-.3-.17-.33-.13-.34-.07-.26-.01h-67l.26.01-.35-.01-.34.04-.34.1-.31.15-.29.19-.25.24-.21.28-.16.31-.11.33-.05.34-.01.18v6.96l.01-.17v.34l.05.35.11.33.16.3.21.28.25.24.29.2.31.15.34.1.34.04z"/><text x="421.93" y="509.22" text-anchor="middle" style="font-size:5.69px;font-family:&quot;Arial&quot;" textLength="64.12" lengthAdjust="spacingAndGlyphs">ANTHONY C EDWARDS</text><path style="stroke-width:.53;fill:#fff;fill-opacity:.5" d="M456.38 424.02h59.44-.09l.35-.01.34-.07.33-.12.3-.18.27-.22.23-.26.18-.29.14-.32.08-.34.03-.35v-15.15l-.03-.35-.08-.34-.14-.32-.18-.29-.23-.26-.27-.22-.3-.17-.33-.13-.34-.07-.26-.01h-59.44l.26.01-.34-.01-.35.04-.33.1-.32.15-.28.19-.25.25-.21.27-.16.31-.11.33-.06.34-.01.18v15.15l.01-.17v.35l.06.34.11.33.16.31.21.28.25.24.28.19.32.15.33.1.35.04z"/><text x="486.1" y="412.23" text-anchor="middle" style="font-size:5.69px;font-family:&quot;Arial&quot;" textLength="56.56" lengthAdjust="spacingAndGlyphs">SAM EDWARDS LIFE</text><text x="486.1" y="420.42" text-anchor="middle" style="font-size:5.69px;font-family:&quot;Arial&quot;" textLength="22.13" lengthAdjust="spacingAndGlyphs">ESTATE</text><path style="stroke-width:.53;fill:#fff;fill-opacity:.5" d="M104.62 299.38h69.87-.09l.35-.01.34-.07.32-.13.3-.17.27-.22.23-.26.19-.29.14-.32.08-.34.03-.35v-15.16l-.03-.34-.08-.34-.14-.32-.19-.29-.23-.26-.27-.22-.3-.18-.32-.12-.34-.07-.26-.02h-69.87l.27.02-.35-.01-.35.04-.33.09-.32.15-.28.2-.25.24-.21.28-.16.31-.11.33-.06.34-.01.17v15.16l.01-.17v.35l.06.34.11.33.16.31.21.27.25.24.28.2.32.15.33.1.35.04z"/><text x="139.56" y="287.59" text-anchor="middle" style="font-size:5.69px;font-family:&quot;Arial&quot;" textLength="66.98" lengthAdjust="spacingAndGlyphs">EDWARDS ENTERPRISE</text><text x="139.56" y="295.78" text-anchor="middle" style="font-size:5.69px;font-family:&quot;Arial&quot;" textLength="10.43" lengthAdjust="spacingAndGlyphs">LLC</text><path style="stroke-width:.53;fill:#fff;fill-opacity:.5" d="M62.96 395.33h61.33-.09l.35-.01.34-.07.32-.13.3-.17.27-.22.23-.26.19-.29.13-.32.09-.34.03-.35v-6.96l-.03-.35-.09-.33-.13-.32-.19-.3-.23-.26-.27-.22-.3-.17-.32-.13-.34-.07-.26-.01H62.96l.26.01-.34-.01-.35.04-.33.1-.32.15-.28.2-.25.24-.21.27-.16.31-.11.33-.06.35-.01.17v6.96l.01-.17v.35l.06.34.11.33.16.31.21.27.25.24.28.2.32.15.33.1.35.04z"/><text x="93.62" y="391.73" text-anchor="middle" style="font-size:5.69px;font-family:&quot;Arial&quot;" textLength="58.44" lengthAdjust="spacingAndGlyphs">ANTHONY EDWARDS</text><path style="stroke-width:.53;fill:#fff;fill-opacity:.5" d="M68.16 496.6h72.08l-.09-.01.35-.01.34-.07.32-.12.3-.18.27-.22.23-.26.19-.29.14-.32.08-.34.03-.34v-6.97l-.03-.34-.08-.34-.14-.32-.19-.29-.23-.26-.27-.22-.3-.18-.32-.12-.34-.07-.26-.02H68.16l.26.02-.35-.01-.34.04-.34.09-.31.15-.29.2-.25.24-.21.28-.16.31-.11.33-.06.34v7.14-.18.35l.06.34.11.33.16.31.21.28.25.24.29.2.31.15.34.09.34.04z"/><text x="104.2" y="493" text-anchor="middle" style="font-size:5.69px;font-family:&quot;Arial&quot;" textLength="69.2" lengthAdjust="spacingAndGlyphs">SAM EDWARDS LIFE EST</text><path style="stroke-width:.53;fill:#fff;fill-opacity:.5" d="M257.53 519.54h51.21-.09l.35-.01.34-.07.33-.13.3-.17.27-.22.23-.26.18-.29.14-.32.08-.34.03-.35v-6.96l-.03-.35-.08-.33-.14-.32-.18-.3-.23-.26-.27-.22-.3-.17-.33-.12-.34-.07-.26-.02h-51.21l.26.02-.35-.02-.35.04-.33.1-.31.15-.29.2-.25.24-.21.28-.16.3-.11.33-.06.35v7.13-.17.35l.06.34.11.33.16.31.21.27.25.25.29.19.31.15.33.1.35.04z"/><text x="283.13" y="515.94" text-anchor="middle" style="font-size:5.69px;font-family:&quot;Arial&quot;" textLength="48.33" lengthAdjust="spacingAndGlyphs">CLARK A WINTER</text><path style="stroke-width:.53;fill:#fff;fill-opacity:.5" d="M404.31 340.26h69.53-.09l.35-.01.34-.07.32-.12.31-.18.27-.22.23-.26.18-.29.14-.32.08-.34.03-.35v-15.15l-.03-.35-.08-.34-.14-.32-.18-.29-.23-.26-.27-.22-.31-.17-.32-.13-.34-.07-.26-.01h-69.53l.26.01-.35-.01-.34.04-.34.1-.31.15-.29.19-.25.25-.21.27-.16.31-.11.33-.05.34-.01.18v15.15l.01-.17v.35l.05.34.11.33.16.31.21.28.25.24.29.19.31.15.34.1.34.04z"/><text x="439.07" y="328.47" text-anchor="middle" style="font-size:5.69px;font-family:&quot;Arial&quot;" textLength="51.48" lengthAdjust="spacingAndGlyphs">88 MCCARTHY DR,</text><text x="439.07" y="336.66" text-anchor="middle" style="font-size:5.69px;font-family:&quot;Arial&quot;" textLength="66.65" lengthAdjust="spacingAndGlyphs">MUKWONAGO, WI 53149</text><path style="stroke-width:.53;fill:#fff;fill-opacity:.5" d="M271.51 388.92h69.53-.09l.35-.01.34-.07.33-.13.3-.17.27-.22.23-.26.18-.29.14-.32.08-.34.03-.35v-15.15l-.03-.35-.08-.34-.14-.32-.18-.29-.23-.26-.27-.22-.3-.18-.33-.12-.34-.07-.26-.01h-69.53l.26.01-.35-.01-.34.04-.34.1-.31.15-.29.19-.25.24-.21.28-.16.31-.11.33-.05.34-.01.18v15.15l.01-.17v.35l.05.34.11.33.16.31.21.28.25.24.29.19.31.15.34.1.34.04z"/><text x="306.28" y="377.13" text-anchor="middle" style="font-size:5.69px;font-family:&quot;Arial&quot;" textLength="51.48" lengthAdjust="spacingAndGlyphs">88 MCCARTHY DR,</text><text x="306.28" y="385.32" text-anchor="middle" style="font-size:5.69px;font-family:&quot;Arial&quot;" textLength="66.65" lengthAdjust="spacingAndGlyphs">MUKWONAGO, WI 53149</text><path style="stroke-width:.53;fill:#fff;fill-opacity:.5" d="M326.76 173.23h63.86l-.08-.01.34-.01.34-.07.33-.12.3-.18.27-.22.23-.26.18-.29.14-.32.08-.34.03-.34v-23.36l-.03-.34-.08-.34-.14-.32-.18-.29-.23-.26-.27-.22-.3-.18-.33-.12-.34-.07-.26-.02h-63.86l.26.02-.35-.01-.34.04-.34.09-.31.15-.29.2-.25.24-.21.28-.16.31-.11.33-.05.34-.01.17v23.36l.01-.18v.35l.05.34.11.33.16.31.21.28.25.24.29.2.31.15.34.09.34.04z"/><text x="358.69" y="153.24" text-anchor="middle" style="font-size:5.69px;font-family:&quot;Arial&quot;" textLength="60.98" lengthAdjust="spacingAndGlyphs">S88W32180 MCCARTY</text><text x="358.69" y="161.43" text-anchor="middle" style="font-size:5.69px;font-family:&quot;Arial&quot;" textLength="60.63" lengthAdjust="spacingAndGlyphs">DR, MUKWONAGO, WI</text><text x="358.69" y="169.63" text-anchor="middle" style="font-size:5.69px;font-family:&quot;Arial&quot;" textLength="15.8" lengthAdjust="spacingAndGlyphs">53149</text></g><g clip-path="url(#cpMC4wMHw1NzYuMDB8MC4wMHw1NzYuMDA=)"><circle cx="196.98" cy="96.71" r="1.95" style="stroke-width:.71;stroke:none;fill:#f8766d"/><path style="stroke-width:.71;stroke:none;fill:#00ba38" d="m273.33 93.67 2.63 4.56h-5.26z"/><path style="stroke-width:.71;stroke:none;fill:#619cff" d="M339.31 98.66h3.91v-3.91h-3.91z"/><text x="211.09" y="99.86" style="font-size:8.8px;font-family:&quot;Arial Narrow&quot;" textLength="48.12" lengthAdjust="spacingAndGlyphs">mprop address</text><text x="287.45" y="99.86" style="font-size:8.8px;font-family:&quot;Arial Narrow&quot;" textLength="39.69" lengthAdjust="spacingAndGlyphs">owner name</text><text x="355.38" y="99.86" style="font-size:8.8px;font-family:&quot;Arial Narrow&quot;" textLength="40.5" lengthAdjust="spacingAndGlyphs">wdfi address</text><text x="32.63" y="65.12" style="font-size:12px;font-family:&quot;Arial Narrow&quot;" textLength="252.23" lengthAdjust="spacingAndGlyphs">includes 34 parcels, 34 units, and 7 distinct owner names.</text><text x="32.63" y="42.78" style="font-size:18px;font-weight:700;font-family:&quot;Arial Narrow&quot;" textLength="264.84" lengthAdjust="spacingAndGlyphs">EDWARDS ENTERPRISES LLC Group</text></g></svg>