<svg xmlns="http://www.w3.org/2000/svg" width="768" height="768" viewBox="0 0 576 576"><g class="svglite"><defs><style><![CDATA[.svglite line,.svglite polyline,.svglite polygon,.svglite path,.svglite circle{fill:none;stroke:#000000;stroke-linecap:round;stroke-linejoin:round;stroke-miterlimit:10.00}.svglite text{white-space:pre}.svglite g.glyphgroup path{fill:inherit;stroke:none}]]></style></defs><rect width="100%" height="100%" style="stroke-linecap:round;stroke-linejoin:round;stroke-miterlimit:10.00;stroke:none;fill:#FFFFFF"/><defs><clipPath id="cpMC4wMHw1NzYuMDB8MC4wMHw1NzYuMDA="><path d="M0 0h576v576H0z"/></clipPath></defs><g clip-path="url(#cpMC4wMHw1NzYuMDB8MC4wMHw1NzYuMDA=)"><path d="M0 0h576v576H0z" style="stroke-width:1.07;stroke:none;fill:#FFFFFF"/></g><defs><clipPath id="cpMjkuODl8NTQ2LjExfDEyMi4xNHw1NDYuMTE="><path d="M29.89 122.14h516.22v423.97H29.89z"/></clipPath></defs><g clip-path="url(#cpMjkuODl8NTQ2LjExfDEyMi4xNHw1NDYuMTE=)"><path d="m53.35 223.8 2.25 1.1 2.25 1.1 2.25 1.09 2.25 1.1 2.25 1.1 2.25 1.1 2.25 1.1 2.25 1.1 2.24 1.1 2.25 1.1 2.25 1.1 2.25 1.1 2.25 1.09 2.25 1.1 2.25 1.1 2.25 1.1 2.25 1.1 2.25 1.1 2.25 1.1 2.24 1.1 2.25 1.1 2.25 1.1 2.25 1.09 2.25 1.1 2.25 1.1 2.25 1.1 2.25 1.1 2.25 1.1 2.25 1.1 2.25 1.1 2.24 1.1 2.25 1.1 2.25 1.09 2.25 1.1 2.25 1.1 2.25 1.1 2.25 1.1 2.25 1.1 2.25 1.1 2.25 1.1 2.25 1.1 2.24 1.1 2.25 1.09 2.25 1.1 2.25 1.1 2.25 1.1 2.25 1.1 2.25 1.1 2.25 1.1 2.25 1.1 2.25 1.1 2.25 1.1 2.24 1.09 2.25 1.1 2.25 1.1 2.25 1.1 2.25 1.1 2.25 1.1 2.25 1.1 2.25 1.1 2.25 1.1 2.25 1.1 2.25 1.09 2.24 1.1 2.25 1.1 2.25 1.1 2.25 1.1 2.25 1.1 2.25 1.1 2.25 1.1 2.25 1.1 2.25 1.1 2.25 1.1 2.25 1.09 2.25 1.1 2.24 1.1 2.25 1.1 2.25 1.1 2.25 1.1 2.25 1.1 2.25 1.1 2.25 1.1 2.25 1.1 2.25 1.09 2.25 1.1 2.25 1.1 2.24 1.1 2.25 1.1 2.25 1.1 2.25 1.1 2.25 1.1 2.25 1.1 2.25 1.1 2.25 1.09 2.25 1.1 2.25 1.1 2.25 1.1 2.24 1.1 2.25 1.1m207.03-108.02-2.09 1.09-2.09 1.09-2.09 1.09-2.09 1.09-2.1 1.09-2.09 1.09-2.09 1.09-2.09 1.1-2.09 1.09-2.09 1.09-2.09 1.09-2.09 1.09-2.09 1.09-2.1 1.09-2.09 1.09-2.09 1.09-2.09 1.1-2.09 1.09-2.09 1.09-2.09 1.09-2.09 1.09-2.1 1.09-2.09 1.09-2.09 1.09-2.09 1.1-2.09 1.09-2.09 1.09-2.09 1.09-2.09 1.09-2.1 1.09-2.09 1.09-2.09 1.09-2.09 1.09-2.09 1.1-2.09 1.09-2.09 1.09-2.09 1.09-2.09 1.09-2.1 1.09-2.09 1.09-2.09 1.09-2.09 1.09-2.09 1.1-2.09 1.09-2.09 1.09-2.09 1.09-2.1 1.09-2.09 1.09-2.09 1.09-2.09 1.09-2.09 1.09-2.09 1.1-2.09 1.09-2.09 1.09-2.09 1.09-2.1 1.09-2.09 1.09-2.09 1.09-2.09 1.09-2.09 1.1-2.09 1.09-2.09 1.09-2.09 1.09-2.1 1.09-2.09 1.09-2.09 1.09-2.09 1.09-2.09 1.09-2.09 1.1-2.09 1.09-2.09 1.09-2.09 1.09-2.1 1.09-2.09 1.09-2.09 1.09-2.09 1.09-2.09 1.09-2.09 1.1-2.09 1.09-2.09 1.09-2.1 1.09-2.09 1.09-2.09 1.09-2.09 1.09-2.09 1.09-2.09 1.09-2.09 1.1-2.09 1.09-2.09 1.09-2.1 1.09-2.09 1.09-2.09 1.09-2.09 1.09-2.09 1.09-2.09 1.09-2.09 1.1-2.09 1.09-2.1 1.09-2.09 1.09m246.64 72.78-2.43-.86-2.44-.85-2.43-.85-2.44-.84-2.43-.84-2.44-.84-2.44-.84-2.44-.84-2.44-.83-2.44-.83-2.45-.83-2.44-.83-2.45-.82-2.45-.82-2.44-.82-2.45-.82-2.46-.81-2.45-.82-2.45-.8-2.46-.81-2.45-.81-2.46-.8-2.46-.8-2.46-.8-2.46-.79-2.46-.79-2.46-.79-2.47-.79-2.46-.79-2.47-.78-2.47-.78-2.47-.78-2.47-.78-2.47-.77-2.47-.77-2.48-.77-2.47-.76-2.48-.77-2.48-.76-2.48-.76-2.48-.76-2.48-.75-2.48-.75-2.48-.75-2.49-.75-2.49-.74-2.48-.75-2.49-.74-2.49-.73-2.49-.74-2.5-.73-2.49-.73-2.5-.73-2.49-.72-2.5-.73-2.5-.72-2.5-.72-2.5-.71-2.5-.72-2.5-.71-2.51-.71-2.5-.7-2.51-.71-2.51-.7-2.51-.7-2.51-.69-2.51-.7-2.51-.69-2.52-.69-2.51-.69-2.52-.68-2.52-.68-2.52-.68-2.52-.68-2.52-.68-2.52-.67-2.53-.67-2.52-.67-2.53-.66-2.53-.67-2.53-.66-2.53-.66-2.53-.65-2.53-.65-2.53-.66-2.54-.64-2.54-.65-2.53-.65-2.54-.64-2.54-.64-2.54-.63-2.55-.64-2.54-.63-2.54-.63-2.55-.63-2.55-.62-2.55-.62-2.55-.62-2.55-.62m-7.92-191.19-.08 1.93-.07 1.94-.07 1.93-.07 1.94-.06 1.93-.06 1.94-.06 1.93-.05 1.94-.05 1.93-.05 1.94-.05 1.93-.04 1.93-.04 1.94-.03 1.93-.03 1.94-.03 1.93-.03 1.93-.02 1.94-.02 1.93-.02 1.93-.01 1.94-.01 1.93v1.93l-.01 1.94v1.93l.01 1.93v1.94l.01 1.93.02 1.93.01 1.94.02 1.93.02 1.93.03 1.93.03 1.94.03 1.93.04 1.93.03 1.93.05 1.93.04 1.94.05 1.93.05 1.93.05 1.93.06 1.93.06 1.94.07 1.93.06 1.93.07 1.93.08 1.93.07 1.93.08 1.93.09 1.94.08 1.93.09 1.93.1 1.93.09 1.93.1 1.93.1 1.93.11 1.93.11 1.93.11 1.93.12 1.93.11 1.93.13 1.93.12 1.93.13 1.93.13 1.93.13 1.93.14 1.93.14 1.93.15 1.93.14 1.93.15 1.93.16 1.93.15 1.93.16 1.93.17 1.93.16 1.93.17 1.93.18 1.93.17 1.92.18 1.93.18 1.93.19 1.93.19 1.93.19 1.93.2 1.93.19 1.93.21 1.92.2 1.93.21 1.93.21 1.93.21 1.93.22 1.92.22 1.93.23 1.93.22 1.93.23 1.92.24 1.93.23 1.93" style="stroke-width:1.07;stroke:#000000;stroke-opacity:0.10;stroke-linecap:butt"/><path d="m268.09 141.41.24 1.93.23 1.92.23 1.93.23 1.93.22 1.93.22 1.92.22 1.93.21 1.93.22 1.93.2 1.93.21 1.92.2 1.93.2 1.93.19 1.93.2 1.93.18 1.93.19 1.93.18 1.92.18 1.93.18 1.93.17 1.93.17 1.93.17 1.93.16 1.93.16 1.93.16 1.93.15 1.93.15 1.93.15 1.93.14 1.93.14 1.93.14 1.93.13 1.93.13 1.93.13 1.93.13 1.93.12 1.93.12 1.93.11 1.93.11 1.93.11 1.93.11 1.93.1 1.93.1 1.93.1 1.93.09 1.93.09 1.93.09 1.93.08 1.93.08 1.94.08 1.93.07 1.93.07 1.93.07 1.93.06 1.93.06 1.93.06 1.94.05 1.93.06 1.93.04 1.93.05 1.93.04 1.94.04 1.93.03 1.93.04 1.93.02 1.94.03 1.93.02 1.93.02 1.93.02 1.94.01 1.93.01 1.93.01 1.93v5.8l-.01 1.94-.01 1.93-.01 1.93-.02 1.94-.02 1.93-.02 1.94-.02 1.93-.03 1.93-.03 1.94-.04 1.93-.04 1.93-.04 1.94-.04 1.93-.05 1.94-.05 1.93-.06 1.94-.05 1.93-.07 1.94-.06 1.93-.07 1.93-.07 1.94-.07 1.93-.08 1.94M84.74 413.39l1.94-.82 1.93-.82 1.93-.81 1.93-.82 1.93-.81 1.94-.82 1.93-.82 1.93-.81 1.93-.82 1.93-.81 1.94-.82 1.93-.82 1.93-.81 1.93-.82 1.93-.81 1.94-.82 1.93-.82 1.93-.81 1.93-.82 1.93-.81 1.94-.82 1.93-.82 1.93-.81 1.93-.82 1.93-.81 1.94-.82 1.93-.82 1.93-.81 1.93-.82 1.93-.81 1.94-.82 1.93-.82 1.93-.81 1.93-.82 1.93-.81 1.94-.82 1.93-.82 1.93-.81 1.93-.82 1.93-.81 1.94-.82 1.93-.82 1.93-.81 1.93-.82 1.93-.81 1.94-.82 1.93-.82 1.93-.81 1.93-.82 1.93-.82 1.94-.81 1.93-.82 1.93-.81 1.93-.82 1.93-.82 1.94-.81 1.93-.82 1.93-.81 1.93-.82 1.94-.82 1.93-.81 1.93-.82 1.93-.81 1.93-.82 1.94-.82 1.93-.81 1.93-.82 1.93-.81 1.93-.82 1.94-.82 1.93-.81 1.93-.82 1.93-.81 1.93-.82 1.94-.82 1.93-.81 1.93-.82 1.93-.81 1.93-.82 1.94-.82 1.93-.81 1.93-.82 1.93-.81 1.93-.82 1.94-.82 1.93-.81 1.93-.82 1.93-.81 1.93-.82 1.94-.82 1.93-.81 1.93-.82 1.93-.81 1.93-.82 1.94-.82 1.93-.81 1.93-.82 1.93-.81 1.93-.82M84.74 413.39l2.21.85 2.21.86 2.21.85 2.21.86 2.21.85 2.21.86 2.21.85 2.21.85 2.21.86 2.21.85 2.21.86 2.21.85 2.2.86 2.21.85 2.21.86 2.21.85 2.21.86 2.21.85 2.21.86 2.21.85 2.21.86 2.21.85 2.21.86 2.21.85 2.2.86 2.21.85 2.21.86 2.21.85 2.21.86 2.21.85 2.21.85 2.21.86 2.21.85 2.21.86 2.21.85 2.21.86 2.21.85 2.2.86 2.21.85 2.21.86 2.21.85 2.21.86 2.21.85 2.21.86 2.21.85 2.21.86 2.21.85 2.21.86 2.21.85 2.21.86 2.2.85 2.21.86 2.21.85 2.21.85 2.21.86 2.21.85 2.21.86 2.21.85 2.21.86 2.21.85 2.21.86 2.21.85 2.21.86 2.2.85 2.21.86 2.21.85 2.21.86 2.21.85 2.21.86 2.21.85 2.21.86 2.21.85 2.21.86 2.21.85 2.21.86 2.2.85 2.21.85 2.21.86 2.21.85 2.21.86 2.21.85 2.21.86 2.21.85 2.21.86 2.21.85 2.21.86 2.21.85 2.21.86 2.2.85 2.21.86 2.21.85 2.21.86 2.21.85 2.21.86 2.21.85 2.21.86 2.21.85 2.21.86 2.21.85m219.19-92.63-2.55-.62-2.55-.62-2.55-.62-2.55-.63-2.54-.63-2.55-.63-2.54-.63-2.55-.63-2.54-.64-2.54-.64-2.54-.64-2.53-.64-2.54-.65-2.53-.65-2.54-.65-2.53-.65-2.53-.66-2.53-.66-2.53-.66-2.53-.66-2.53-.67-2.52-.67-2.53-.67-2.52-.67-2.52-.67-2.52-.68-2.52-.68-2.52-.68-2.51-.69-2.52-.69-2.51-.69-2.52-.69-2.51-.69-2.51-.7-2.51-.7-2.51-.7-2.51-.7-2.5-.71-2.51-.71-2.5-.71-2.5-.71-2.5-.72-2.5-.72-2.5-.72-2.5-.72-2.49-.73-2.5-.72-2.49-.73-2.5-.74-2.49-.73-2.49-.74-2.49-.74-2.48-.74-2.49-.75-2.48-.74-2.49-.75-2.48-.75-2.48-.76-2.48-.76-2.48-.75-2.48-.77-2.48-.76-2.47-.77-2.48-.77-2.47-.77-2.47-.77-2.47-.78-2.47-.77-2.47-.78-2.47-.79-2.46-.78-2.47-.79-2.46-.79-2.46-.79-2.46-.8-2.46-.8-2.46-.8-2.46-.8-2.45-.8-2.46-.81-2.45-.81-2.45-.81-2.45-.82-2.45-.81-2.45-.82-2.45-.82-2.45-.83-2.44-.82-2.45-.83-2.44-.83-2.44-.84-2.44-.83-2.44-.84-2.44-.84-2.43-.84-2.44-.85-2.43-.85-2.43-.85-2.44-.85" style="stroke-width:1.07;stroke:#000000;stroke-opacity:0.10;stroke-linecap:butt"/><path d="m146.76 526.84 1.31-1.96 1.3-1.96 1.31-1.97 1.3-1.96 1.31-1.96 1.3-1.96 1.31-1.96 1.31-1.97 1.3-1.96 1.31-1.96 1.3-1.96 1.31-1.96 1.3-1.97 1.31-1.96 1.3-1.96 1.31-1.96 1.31-1.96 1.3-1.97 1.31-1.96 1.3-1.96 1.31-1.96 1.3-1.96 1.31-1.97 1.3-1.96 1.31-1.96 1.31-1.96 1.3-1.96 1.31-1.97 1.3-1.96 1.31-1.96 1.3-1.96 1.31-1.96 1.31-1.97 1.3-1.96 1.31-1.96 1.3-1.96 1.31-1.96 1.3-1.97 1.31-1.96 1.3-1.96 1.31-1.96 1.31-1.96 1.3-1.97 1.31-1.96 1.3-1.96 1.31-1.96 1.3-1.96 1.31-1.97 1.3-1.96 1.31-1.96 1.31-1.96 1.3-1.97 1.31-1.96 1.3-1.96 1.31-1.96 1.3-1.96 1.31-1.97 1.3-1.96 1.31-1.96 1.31-1.96 1.3-1.96 1.31-1.97 1.3-1.96 1.31-1.96 1.3-1.96 1.31-1.96 1.3-1.97 1.31-1.96 1.31-1.96 1.3-1.96 1.31-1.96 1.3-1.97 1.31-1.96 1.3-1.96 1.31-1.96 1.31-1.96 1.3-1.97 1.31-1.96 1.3-1.96 1.31-1.96 1.3-1.96 1.31-1.97 1.3-1.96 1.31-1.96 1.31-1.96 1.3-1.96 1.31-1.97 1.3-1.96 1.31-1.96 1.3-1.96 1.31-1.96 1.3-1.97 1.31-1.96 1.31-1.96 1.3-1.96 1.31-1.96 1.3-1.97 1.31-1.96 1.3-1.96" style="stroke-width:1.07;stroke:#000000;stroke-opacity:0.10;stroke-linecap:butt"/><path d="m303.46 498.01.67-1.76.65-1.76.63-1.76.62-1.76.59-1.75.58-1.76.55-1.75.54-1.75.52-1.74.49-1.75.48-1.74.46-1.75.44-1.73.42-1.74.4-1.74.38-1.73.36-1.74.34-1.73.33-1.73.3-1.72.29-1.73.26-1.72.25-1.72.22-1.72.21-1.72.19-1.71.17-1.72.14-1.71.13-1.71.11-1.71.1-1.7.07-1.71.05-1.7.03-1.7.01-1.7v-1.7l-.03-1.69-.04-1.7-.07-1.69-.08-1.69-.1-1.68-.12-1.69-.15-1.68-.16-1.69-.18-1.68-.2-1.67-.22-1.68-.24-1.68-.25-1.67-.28-1.67-.3-1.67-.31-1.67-.34-1.66-.35-1.66-.38-1.67-.39-1.65-.41-1.66-.43-1.66-.46-1.65-.47-1.65-.49-1.65-.51-1.65-.53-1.65-.54-1.64-.57-1.65-.59-1.64-.61-1.64-.62-1.63-.65-1.64-.66-1.63-.68-1.63-.71-1.63-.72-1.63-.74-1.63-.76-1.62-.78-1.62-.81-1.63-.81-1.61-.84-1.62-.86-1.61-.88-1.62-.9-1.61-.91-1.61-.94-1.61-.95-1.6-.98-1.6-.99-1.61-1.01-1.6-1.04-1.59-1.05-1.6-1.07-1.59-1.09-1.6-1.11-1.59-1.13-1.59-1.15-1.58-1.17-1.59-1.18-1.58-1.21-1.58-1.23-1.58" style="stroke-width:1.07;stroke:#000000;stroke-opacity:0.10;stroke-linecap:butt"/><path d="m303.46 498.01.4-1.74.38-1.73.38-1.73.36-1.74.34-1.73.33-1.73.32-1.73.3-1.72.29-1.73.28-1.72.26-1.72.25-1.73.24-1.72.22-1.72.2-1.71.2-1.72.18-1.71.16-1.72.15-1.71.14-1.71.12-1.71.11-1.71.1-1.71.08-1.7.07-1.7.06-1.71.04-1.7.02-1.7.02-1.7v-1.7l-.02-1.69-.02-1.7-.05-1.69-.05-1.69-.07-1.69-.09-1.69-.09-1.69-.11-1.69-.13-1.68-.14-1.69-.15-1.68-.17-1.68-.18-1.68-.19-1.68-.21-1.68-.22-1.67-.24-1.68-.25-1.67-.26-1.67-.28-1.68-.29-1.66-.3-1.67-.32-1.67-.34-1.67-.34-1.66-.36-1.66-.38-1.66-.38-1.66-.41-1.66-.41-1.66-.43-1.66-.44-1.65-.46-1.65-.47-1.66-.49-1.65-.49-1.65-.52-1.65-.52-1.64-.54-1.65-.56-1.64-.56-1.64-.59-1.65-.59-1.64-.61-1.63-.62-1.64-.64-1.64-.65-1.63-.67-1.64-.67-1.63-.7-1.63-.7-1.63-.72-1.63-.74-1.62-.74-1.63-.77-1.62-.77-1.63-.79-1.62-.8-1.62-.82-1.62-.83-1.61-.84-1.62-.86-1.61-.87-1.62-.89-1.61-.9-1.61-.91-1.61-.93-1.61-.94-1.61-.96-1.6" style="stroke-width:1.07;stroke:#000000;stroke-opacity:0.10;stroke-linecap:butt"/><path d="m303.46 498.01.13-1.71.12-1.71.11-1.71.1-1.71.1-1.7.09-1.71.08-1.7.07-1.71.06-1.7.06-1.7.04-1.71.04-1.7.03-1.7.02-1.7.02-1.7v-3.39l-.01-1.7-.02-1.69-.03-1.7-.04-1.69-.04-1.7-.05-1.69-.07-1.69-.07-1.69-.07-1.69-.09-1.69-.1-1.69-.1-1.69-.11-1.68-.12-1.69-.13-1.68-.13-1.69-.15-1.68-.15-1.69-.16-1.68-.17-1.68-.18-1.68-.18-1.68-.2-1.68-.2-1.68-.21-1.67-.22-1.68-.23-1.67-.23-1.68-.25-1.67-.25-1.68-.26-1.67-.27-1.67-.28-1.67-.28-1.67-.3-1.67-.3-1.67-.31-1.67-.32-1.66-.32-1.67-.34-1.66-.34-1.67-.35-1.66-.36-1.67-.37-1.66-.38-1.66-.39-1.66-.39-1.66-.4-1.66-.41-1.66-.42-1.65-.43-1.66-.43-1.65-.44-1.66-.45-1.65-.46-1.66-.47-1.65-.48-1.65-.48-1.65-.5-1.65-.5-1.65-.51-1.65-.52-1.65-.52-1.64-.54-1.65-.54-1.64-.55-1.65-.56-1.64-.57-1.65-.57-1.64-.59-1.64-.59-1.64-.6-1.64-.61-1.64-.62-1.64-.62-1.63-.64-1.64-.64-1.63-.65-1.64-.66-1.63-.67-1.64-.67-1.63-.69-1.63" style="stroke-width:1.07;stroke:#000000;stroke-opacity:0.10;stroke-linecap:butt"/><path d="m303.46 498.01-.14-1.68-.15-1.69-.15-1.68-.15-1.68-.15-1.69-.15-1.68-.16-1.68-.16-1.68-.17-1.69-.16-1.68-.17-1.68-.18-1.68-.17-1.68-.18-1.68-.18-1.68-.18-1.68-.19-1.68-.19-1.68-.19-1.68-.19-1.68-.2-1.68-.2-1.67-.2-1.68-.21-1.68-.2-1.68-.22-1.67-.21-1.68-.21-1.68-.22-1.67-.23-1.68-.22-1.68-.23-1.67-.23-1.68-.23-1.67-.24-1.68-.24-1.67-.24-1.68-.24-1.67-.25-1.67-.25-1.68-.25-1.67-.25-1.67-.26-1.68-.26-1.67-.27-1.67-.26-1.67-.27-1.67-.27-1.68-.28-1.67-.27-1.67-.28-1.67-.29-1.67-.28-1.67-.29-1.67-.29-1.67-.3-1.67-.29-1.67-.3-1.66-.3-1.67-.31-1.67-.31-1.67-.31-1.67-.31-1.66-.32-1.67-.31-1.67-.33-1.66-.32-1.67-.33-1.67-.33-1.66-.33-1.67-.33-1.66-.34-1.67-.34-1.66-.35-1.67-.34-1.66-.35-1.67-.35-1.66-.36-1.66-.36-1.67-.36-1.66-.36-1.66-.37-1.66-.36-1.66-.38-1.67-.37-1.66-.38-1.66-.38-1.66-.38-1.66-.38-1.66-.39-1.66-.39-1.66-.4-1.66-.39-1.66-.4-1.66-.4-1.66-.41-1.66-.4-1.65-.41-1.66-.42-1.66m27.45 165.41-.42-1.66-.41-1.66-.4-1.65-.41-1.66-.4-1.66-.4-1.66-.39-1.66-.4-1.66-.39-1.66-.39-1.66-.38-1.66-.38-1.66-.38-1.66-.38-1.66-.37-1.66-.38-1.67-.36-1.66-.37-1.66-.36-1.66-.36-1.67-.36-1.66-.36-1.66-.35-1.67-.35-1.66-.34-1.66-.35-1.67-.34-1.66-.33-1.67-.34-1.66-.33-1.67-.33-1.66-.33-1.67-.32-1.67-.33-1.66-.31-1.67-.32-1.67-.31-1.66-.31-1.67-.31-1.67-.31-1.67-.3-1.67-.3-1.66-.29-1.67-.3-1.67-.29-1.67-.29-1.67-.28-1.67-.29-1.67-.28-1.67-.27-1.67-.28-1.67-.27-1.68-.27-1.67-.26-1.67-.27-1.67-.26-1.67-.26-1.68-.25-1.67-.25-1.67-.25-1.68-.25-1.67-.24-1.67-.24-1.68-.24-1.67-.24-1.68-.23-1.67-.23-1.68-.23-1.67-.22-1.68-.23-1.68-.21-1.67-.22-1.68-.21-1.68-.22-1.67-.2-1.68-.21-1.68-.2-1.68-.2-1.67-.2-1.68-.19-1.68-.19-1.68-.19-1.68-.19-1.68-.18-1.68-.18-1.68-.18-1.68-.17-1.68-.18-1.68-.17-1.68-.16-1.69-.17-1.68-.16-1.68-.16-1.68-.15-1.68-.15-1.69-.15-1.68-.15-1.68-.14-1.69-.15-1.68" style="stroke-width:1.07;stroke:#000000;stroke-opacity:0.10;stroke-linecap:butt"/><path d="m303.46 498.01-.69-1.63-.67-1.63-.67-1.64-.66-1.63-.65-1.64-.64-1.63-.64-1.64-.62-1.64-.62-1.63-.61-1.64-.6-1.64-.59-1.64-.59-1.64-.57-1.64-.57-1.65-.56-1.64-.55-1.65-.54-1.64-.54-1.65-.52-1.64-.52-1.65-.51-1.65-.5-1.65-.5-1.65-.48-1.65-.48-1.65-.47-1.65-.45-1.66-.46-1.65-.44-1.66-.43-1.65-.43-1.66-.42-1.65-.41-1.66-.4-1.66-.39-1.66-.39-1.66-.38-1.66-.36-1.66-.37-1.67-.35-1.66-.34-1.67-.34-1.66-.32-1.67-.32-1.66-.31-1.67-.3-1.67-.3-1.67-.28-1.67-.28-1.67-.27-1.67-.26-1.67-.25-1.68-.25-1.67-.23-1.68-.23-1.67-.22-1.68-.21-1.68-.2-1.67-.2-1.68-.18-1.68-.18-1.68-.17-1.68-.16-1.69-.15-1.68-.15-1.68-.13-1.69-.13-1.68-.12-1.69-.11-1.68-.1-1.69-.1-1.69-.09-1.69-.07-1.69-.07-1.69-.06-1.69-.06-1.69-.04-1.7-.04-1.69-.03-1.7-.02-1.69-.01-1.7v-3.39l.02-1.7.02-1.7.03-1.7.04-1.7.04-1.71.06-1.7.06-1.7.07-1.71.08-1.7.09-1.71.1-1.71.1-1.7.11-1.71.12-1.71.13-1.71" style="stroke-width:1.07;stroke:#000000;stroke-opacity:0.10;stroke-linecap:butt"/><path d="m303.46 498.01-.96-1.61-.94-1.6-.93-1.61-.91-1.61-.9-1.61-.89-1.61-.87-1.62-.86-1.61-.84-1.62-.83-1.61-.82-1.62-.8-1.62-.79-1.62-.77-1.63-.77-1.62-.74-1.63-.74-1.62-.72-1.63-.7-1.63-.7-1.63-.67-1.63-.67-1.64-.65-1.63-.64-1.64-.62-1.64-.61-1.63-.59-1.64-.58-1.65-.57-1.64-.56-1.64-.54-1.65-.52-1.65-.51-1.64-.5-1.65-.49-1.65-.47-1.66-.46-1.65-.44-1.65-.43-1.66-.41-1.66-.41-1.66-.38-1.66-.38-1.66-.36-1.66-.34-1.67-.34-1.66-.32-1.67-.3-1.67-.29-1.67-.28-1.67-.26-1.67-.25-1.67-.24-1.68-.22-1.67-.21-1.68-.19-1.68-.18-1.68-.17-1.68-.15-1.68-.14-1.69-.13-1.68-.11-1.69-.09-1.69-.09-1.69-.07-1.69-.05-1.69-.04-1.69-.03-1.7-.02-1.69v-1.7l.02-1.7.02-1.7.04-1.7.06-1.71.07-1.7.08-1.71.1-1.7.11-1.71.12-1.71.14-1.71.15-1.71.16-1.72.18-1.71.2-1.72.2-1.72.22-1.71.24-1.72.25-1.73.26-1.72.28-1.72.29-1.73.3-1.73.32-1.72.33-1.73.34-1.73.36-1.74.38-1.73.38-1.73.4-1.74" style="stroke-width:1.07;stroke:#000000;stroke-opacity:0.10;stroke-linecap:butt"/><path d="m303.46 498.01-1.23-1.58-1.21-1.58-1.18-1.58-1.17-1.59-1.15-1.59-1.13-1.58-1.11-1.59-1.09-1.6-1.07-1.59-1.05-1.6-1.04-1.59-1.01-1.6-.99-1.61-.98-1.6-.95-1.61-.94-1.6-.91-1.61-.9-1.61-.88-1.62-.86-1.61-.84-1.62-.81-1.62-.8-1.62-.79-1.62-.76-1.62-.74-1.63-.72-1.63-.7-1.63-.69-1.63-.66-1.63-.65-1.64-.62-1.63-.61-1.64-.59-1.64-.57-1.65-.54-1.64-.53-1.65-.51-1.65-.49-1.65-.47-1.65-.45-1.65-.44-1.66-.41-1.66-.39-1.66-.38-1.66-.35-1.66-.34-1.67-.31-1.66-.3-1.67-.28-1.67-.25-1.67-.24-1.68-.22-1.68-.2-1.67-.18-1.68-.16-1.69-.15-1.68-.12-1.69-.1-1.68-.08-1.69-.07-1.69-.04-1.7-.03-1.69v-1.7l.01-1.7.03-1.7.05-1.7.08-1.71.09-1.7.11-1.71.13-1.71.14-1.71.17-1.72.19-1.71.21-1.72.22-1.72.25-1.72.26-1.72.29-1.73.3-1.73.33-1.72.34-1.73.36-1.74.38-1.73.4-1.74.42-1.74.44-1.74.46-1.74.48-1.74.5-1.75.51-1.74.54-1.75.55-1.75.58-1.76.59-1.75.62-1.76.63-1.76.65-1.76.67-1.76" style="stroke-width:1.07;stroke:#000000;stroke-opacity:0.10;stroke-linecap:butt"/><path d="m53.35 221.59 1.92 3.31h-3.83zm429.69.78 1.91 3.31h-3.82zm39.61 177.66 4.63 8.02h-9.26zM268.09 136.06l4.63 8.02h-9.26zM84.74 411.18l1.92 3.31h-3.83zm62.02 113.45 1.92 3.32h-3.83z" style="stroke-width:0.71;stroke:none;fill:#00BA38"/><path d="M302.04 499.43h2.84v-2.84h-2.84z" style="stroke-width:0.71;stroke:none;fill:#619CFF"/><circle cx="276.01" cy="332.6" r="6.76" style="stroke-width:0.71;stroke:none;fill:#F8766D"/><path d="m488.39 219.96-4.54 3.92m-220.96-77.77 4.41-3.99M89.87 408.76l-4.33 3.91m66.42 109.47-4.41 3.99m161.22-32.7-4.51 3.88m-33.53-160.16 4.48-3.85" style="stroke-width:0.53;stroke:#BFBFBF"/><path d="M35.65 239.53h35.1-.09l.35-.02.34-.07.33-.12.3-.17.27-.22.23-.26.18-.3.14-.32.08-.33.03-.35h0v-6.8h0l-.03-.34-.08-.34-.14-.32-.18-.29-.23-.27-.27-.21-.3-.18-.33-.12-.34-.07-.26-.02h-35.1l.26.02-.35-.02-.34.05-.34.09-.31.15-.29.2-.25.24-.21.28-.16.31-.11.33-.05.34-.01.17v6.8l.01-.17v.34l.05.35.11.33.16.3.21.28.25.24.29.2.31.15.34.1.34.04z" style="stroke-width:0.53;fill:#FFFFFF;fill-opacity:0.50"/><text x="53.2" y="235.93" lengthAdjust="spacingAndGlyphs" style="font-size:5.69px;font-family:&quot;Liberation Sans&quot;" text-anchor="middle" textLength="32.22">TIM OGDEN</text><path d="M472.31 219.96h56.16-.08l.34-.02.34-.07.33-.12.3-.17.27-.22.23-.26.18-.3.14-.32.08-.33.03-.35h0v-14.99h0l-.03-.35-.08-.34-.14-.32-.18-.29-.23-.26-.27-.22-.3-.17-.33-.13-.34-.07-.26-.01h-56.16l.26.01-.35-.01-.34.04-.33.1-.32.15-.28.2-.26.24-.2.27-.17.31-.11.33-.05.34-.01.18v14.99l.01-.17v.34l.05.35.11.33.17.3.2.28.26.24.28.2.32.15.33.1.34.04z" style="stroke-width:0.53;fill:#FFFFFF;fill-opacity:0.50"/><text x="500.39" y="208.17" lengthAdjust="spacingAndGlyphs" style="font-size:5.69px;font-family:&quot;Liberation Sans&quot;" text-anchor="middle" textLength="51.2">ROGER W ROUSE,</text><text x="500.39" y="216.36" lengthAdjust="spacingAndGlyphs" style="font-size:5.69px;font-family:&quot;Liberation Sans&quot;" text-anchor="middle" textLength="53.28">TIMOTHY S OGDEN</text><path d="M443.3 410.94h72.62-.09l.35-.02.34-.07.32-.12.3-.17.27-.22.23-.26.19-.3.14-.32.08-.34.03-.34h0v-6.8h0l-.03-.34-.08-.34-.14-.32-.19-.3-.23-.26-.27-.22-.3-.17-.32-.12-.34-.07-.26-.02H443.3l.26.02-.34-.02-.35.05-.33.09-.32.15-.28.2-.25.24-.21.28-.16.3-.11.33-.06.35-.01.17v6.8l.01-.18v.35l.06.35.11.33.16.3.21.28.25.24.28.2.32.15.33.09.35.05z" style="stroke-width:0.53;fill:#FFFFFF;fill-opacity:0.50"/><text x="479.61" y="407.34" lengthAdjust="spacingAndGlyphs" style="font-size:5.69px;font-family:&quot;Liberation Sans&quot;" text-anchor="middle" textLength="69.73">ELDON PROPERTIES LLC</text><path d="M227.61 157.23h56.16l-.09-.01.35-.01.34-.07.33-.12.3-.18.27-.22.23-.26.18-.29.14-.32.08-.34.03-.34h0v-6.8h0l-.03-.35-.08-.33-.14-.32-.18-.3-.23-.26-.27-.22-.3-.17-.33-.13-.34-.07-.26-.01h-56.16l.26.01-.35-.01-.34.04-.34.1-.31.15-.29.2-.25.24-.21.27-.16.31-.11.33-.06.35v6.97-.18.35l.06.34.11.33.16.31.21.28.25.24.29.2.31.15.34.09.34.04z" style="stroke-width:0.53;fill:#FFFFFF;fill-opacity:0.50"/><text x="255.69" y="153.63" lengthAdjust="spacingAndGlyphs" style="font-size:5.69px;font-family:&quot;Liberation Sans&quot;" text-anchor="middle" textLength="53.28">TIMOTHY S OGDEN</text><path d="M66.38 408.76h61.64-.09l.35-.01.34-.07.33-.12.3-.18.27-.22.23-.26.18-.29.14-.32.08-.34.03-.35h0v-6.79h0l-.03-.35-.08-.34-.14-.32-.18-.29-.23-.26-.27-.22-.3-.17-.33-.13-.34-.07-.26-.01H66.38l.26.01-.35-.01-.35.04-.33.1-.31.15-.29.19-.25.24-.21.28-.16.31-.11.33-.06.34v6.97-.17.35l.06.34.11.33.16.31.21.28.25.24.29.19.31.15.33.1.35.04z" style="stroke-width:0.53;fill:#FFFFFF;fill-opacity:0.50"/><text x="97.2" y="405.16" lengthAdjust="spacingAndGlyphs" style="font-size:5.69px;font-family:&quot;Liberation Sans&quot;" text-anchor="middle" textLength="58.77">O&amp;R HOLDINGS I LLC</text><path d="M136.44 522.14h45.55-.09l.35-.01.34-.07.33-.13.3-.17.27-.22.23-.26.18-.29.14-.32.08-.34.03-.35h0v-6.79h0l-.03-.35-.08-.34-.14-.32-.18-.29-.23-.26-.27-.22-.3-.18-.33-.12-.34-.07-.26-.01h-45.55l.26.01-.35-.01-.34.04-.34.1-.31.15-.29.19-.25.24-.21.28-.16.31-.11.33-.05.34-.01.18v6.79l.01-.17v.35l.05.34.11.33.16.31.21.28.25.24.29.19.31.15.34.1.34.04z" style="stroke-width:0.53;fill:#FFFFFF;fill-opacity:0.50"/><text x="159.22" y="518.54" lengthAdjust="spacingAndGlyphs" style="font-size:5.69px;font-family:&quot;Liberation Sans&quot;" text-anchor="middle" textLength="42.67">ROGER ROUSE</text><path d="M289.46 493.43h62.71l-.09-.01.35-.01.34-.07.32-.12.3-.18.27-.22.23-.26.19-.29.14-.32.08-.34.03-.34h0v-15h0l-.03-.34-.08-.34-.14-.32-.19-.29-.23-.26-.27-.22-.3-.18-.32-.12-.34-.07-.26-.02h-62.71l.26.02-.35-.01-.34.04-.34.1-.31.14-.29.2-.25.24-.21.28-.16.31-.11.33-.05.34-.01.17v15l.01-.18v.35l.05.34.11.33.16.31.21.28.25.24.29.2.31.15.34.09.34.04z" style="stroke-width:0.53;fill:#FFFFFF;fill-opacity:0.50"/><text x="320.81" y="481.63" lengthAdjust="spacingAndGlyphs" style="font-size:5.69px;font-family:&quot;Liberation Sans&quot;" text-anchor="middle" textLength="39.91">700 LARRY CT,</text><text x="320.81" y="489.83" lengthAdjust="spacingAndGlyphs" style="font-size:5.69px;font-family:&quot;Liberation Sans&quot;" text-anchor="middle" textLength="59.83">WAUKESHA, WI 53186</text><path d="M227.39 356.46h62.71-.09l.35-.01.34-.07.32-.12.3-.18.27-.22.23-.26.19-.29.14-.32.08-.34.03-.35h0v-14.99h0l-.03-.34-.08-.34-.14-.32-.19-.29-.23-.26-.27-.22-.3-.18-.32-.12-.34-.07-.26-.02h-62.71l.26.02-.35-.02-.34.05-.34.09-.31.15-.29.2-.25.24-.21.28-.16.31-.11.33-.05.34-.01.17v14.99l.01-.17v.35l.05.34.11.33.16.31.21.28.25.24.29.19.31.15.34.1.34.04z" style="stroke-width:0.53;fill:#FFFFFF;fill-opacity:0.50"/><text x="258.74" y="344.67" lengthAdjust="spacingAndGlyphs" style="font-size:5.69px;font-family:&quot;Liberation Sans&quot;" text-anchor="middle" textLength="39.91">700 LARRY CT,</text><text x="258.74" y="352.86" lengthAdjust="spacingAndGlyphs" style="font-size:5.69px;font-family:&quot;Liberation Sans&quot;" text-anchor="middle" textLength="59.83">WAUKESHA, WI 53186</text></g><g clip-path="url(#cpMC4wMHw1NzYuMDB8MC4wMHw1NzYuMDA=)"><circle cx="192.83" cy="97.06" r="1.95" style="stroke-width:0.71;stroke:none;fill:#F8766D"/><path d="m269.23 94.02 2.63 4.56h-5.26z" style="stroke-width:0.71;stroke:none;fill:#00BA38"/><path d="M335.23 99.01h3.91V95.1h-3.91z" style="stroke-width:0.71;stroke:none;fill:#619CFF"/><text x="206.95" y="100.22" lengthAdjust="spacingAndGlyphs" style="font-size:8.80px;font-weight:0;font-family:&quot;Nimbus Sans Narrow&quot;" textLength="48.16">mprop address</text><text x="283.35" y="100.22" lengthAdjust="spacingAndGlyphs" style="font-size:8.80px;font-weight:0;font-family:&quot;Nimbus Sans Narrow&quot;" textLength="39.72">owner name</text><text x="351.31" y="100.22" lengthAdjust="spacingAndGlyphs" style="font-size:8.80px;font-weight:0;font-family:&quot;Nimbus Sans Narrow&quot;" textLength="40.5">wdfi address</text><text x="29.89" y="65.35" lengthAdjust="spacingAndGlyphs" style="font-size:12.00px;font-weight:0;font-family:&quot;Nimbus Sans Narrow&quot;" textLength="246.64">includes 8 parcels, 14 units, and 6 distinct owner names.</text><text x="29.89" y="42.81" lengthAdjust="spacingAndGlyphs" style="font-size:18.00px;font-weight:0;font-family:&quot;Nimbus Sans Narrow&quot;" textLength="257.5">ELDON PROPERTIES LLC etc Group</text></g></g></svg>