<svg xmlns="http://www.w3.org/2000/svg" width="576" height="672" class="svglite" viewBox="0 0 432 504"><defs><style><![CDATA[.svglite line,.svglite polyline,.svglite polygon,.svglite path,.svglite circle{fill:none;stroke:#000000;stroke-linecap:round;stroke-linejoin:round;stroke-miterlimit:10.00}]]></style></defs><rect width="100%" height="100%" style="stroke-linecap:round;stroke-linejoin:round;stroke-miterlimit:10.00;stroke:none;fill:#FFFFFF"/><defs><clipPath id="cpMC4wMHw0MzIuMDB8MC4wMHw1MDQuMDA="><path d="M0 0h432v504H0z"/></clipPath></defs><g clip-path="url(#cpMC4wMHw0MzIuMDB8MC4wMHw1MDQuMDA=)"><path d="M0 0h432v504H0z" style="stroke-width:1.07;stroke:none;fill:#FFFFFF"/></g><defs><clipPath id="cpMzIuNjN8NDAyLjExfDE2MC42Nnw0NzEuMzc="><path d="M32.63 160.66h369.48v310.71H32.63z"/></clipPath></defs><g clip-path="url(#cpMzIuNjN8NDAyLjExfDE2MC42Nnw0NzEuMzc=)"><path d="m385.32 174.79-1.68.9-1.68.91-1.67.91-1.68.9-1.68.91-1.68.9-1.67.91-1.68.91-1.68.9-1.68.91-1.67.9-1.68.91-1.68.91-1.68.9-1.67.91-1.68.9-1.68.91-1.68.91-1.67.9-1.68.91-1.68.9-1.68.91-1.67.91-1.68.9-1.68.91-1.68.9-1.67.91-1.68.91-1.68.9-1.68.91-1.67.9-1.68.91-1.68.91-1.67.9-1.68.91-1.68.9-1.68.91-1.67.91-1.68.9-1.68.91-1.68.9-1.67.91-1.68.91-1.68.9-1.68.91-1.67.9-1.68.91-1.68.91-1.68.9-1.67.91-1.68.9-1.68.91-1.68.91-1.67.9-1.68.91-1.68.9-1.68.91-1.67.91-1.68.9-1.68.91-1.67.9-1.68.91-1.68.91-1.68.9-1.67.91-1.68.9-1.68.91-1.68.91-1.67.9-1.68.91-1.68.9-1.68.91-1.67.91-1.68.9-1.68.91-1.68.9-1.67.91-1.68.91-1.68.9-1.68.91-1.67.9-1.68.91-1.68.91-1.68.9-1.67.91-1.68.9-1.68.91-1.68.91-1.67.9-1.68.91-1.68.9-1.67.91-1.68.91-1.68.9-1.68.91-1.67.9-1.68.91-1.68.91-1.68.9m4.14 192.77-.04-1.95-.04-1.95-.04-1.94-.04-1.95-.05-1.95-.04-1.94-.04-1.95-.04-1.95-.04-1.94-.04-1.95-.05-1.95-.04-1.95-.04-1.94-.04-1.95-.04-1.95-.05-1.94-.04-1.95-.04-1.95-.04-1.95-.04-1.94-.04-1.95-.05-1.95-.04-1.94-.04-1.95-.04-1.95-.04-1.95-.05-1.94-.04-1.95-.04-1.95-.04-1.94-.04-1.95-.04-1.95-.05-1.95-.04-1.94-.04-1.95-.04-1.95-.04-1.94-.05-1.95-.04-1.95-.04-1.95-.04-1.94-.04-1.95-.04-1.95-.05-1.94-.04-1.95-.04-1.95-.04-1.95-.04-1.94-.05-1.95-.04-1.95-.04-1.94-.04-1.95-.04-1.95-.04-1.95-.05-1.94-.04-1.95-.04-1.95-.04-1.94-.04-1.95-.05-1.95-.04-1.95-.04-1.94-.04-1.95-.04-1.95-.04-1.94-.05-1.95-.04-1.95-.04-1.95-.04-1.94-.04-1.95-.05-1.95-.04-1.94-.04-1.95-.04-1.95-.04-1.95-.04-1.94-.05-1.95-.04-1.95-.04-1.94-.04-1.95-.04-1.95-.05-1.95-.04-1.94-.04-1.95-.04-1.95-.04-1.94-.04-1.95-.05-1.95-.04-1.95-.04-1.94-.04-1.95-.04-1.95-.05-1.94-.04-1.95-.04-1.95-.04-1.95-.04-1.94-.04-1.95-.05-1.95M49.42 178.8l1.72.86 1.71.87 1.72.86 1.71.87 1.72.86 1.72.87 1.71.87 1.72.86 1.71.87 1.72.86 1.71.87 1.72.86 1.71.87 1.72.86 1.71.87 1.72.86 1.72.87 1.71.87 1.72.86 1.71.87 1.72.86 1.71.87 1.72.86 1.71.87 1.72.86 1.71.87 1.72.87 1.72.86 1.71.87 1.72.86 1.71.87 1.72.86 1.71.87 1.72.86 1.71.87 1.72.87 1.71.86 1.72.87 1.72.86 1.71.87 1.72.86 1.71.87 1.72.86 1.71.87 1.72.86 1.71.87 1.72.87 1.71.86 1.72.87 1.72.86 1.71.87 1.72.86 1.71.87 1.72.86 1.71.87 1.72.87 1.71.86 1.72.87 1.71.86 1.72.87 1.72.86 1.71.87 1.72.86 1.71.87 1.72.87 1.71.86 1.72.87 1.71.86 1.72.87 1.71.86 1.72.87 1.72.86 1.71.87 1.72.86 1.71.87 1.72.87 1.71.86 1.72.87 1.71.86 1.72.87 1.72.86 1.71.87 1.72.86 1.71.87 1.72.87 1.71.86 1.72.87 1.71.86 1.72.87 1.71.86 1.72.87 1.72.86 1.71.87 1.72.87 1.71.86 1.72.87 1.71.86 1.72.87 1.71.86" style="stroke-width:1.07;stroke:#000000;stroke-opacity:0.10;stroke-linecap:butt"/><path d="m223.39 457.25-.01-.69-.02-.69-.01-.68-.02-.69-.01-.69-.01-.69-.02-.69-.01-.69-.02-.68-.01-.69-.02-.69-.01-.69-.02-.69-.01-.68-.02-.69-.01-.69-.02-.69-.01-.69-.02-.68-.01-.69-.02-.69-.01-.69-.02-.69-.01-.68-.02-.69-.01-.69-.01-.69-.02-.69-.01-.68-.02-.69-.01-.69-.02-.69-.01-.69-.02-.69-.01-.68-.02-.69-.01-.69-.02-.69-.01-.69-.02-.68-.01-.69-.02-.69-.01-.69-.02-.69-.01-.68-.02-.69-.01-.69-.02-.69-.01-.69-.01-.68-.02-.69-.01-.69-.02-.69-.01-.69-.02-.69-.01-.68-.02-.69-.01-.69-.02-.69-.01-.69-.02-.68-.01-.69-.02-.69-.01-.69-.02-.69-.01-.68-.02-.69-.01-.69-.02-.69-.01-.69-.02-.68-.01-.69-.01-.69-.02-.69-.01-.69-.02-.68-.01-.69-.02-.69-.01-.69-.02-.69-.01-.69-.02-.68-.01-.69-.02-.69-.01-.69-.02-.69-.01-.68-.02-.69-.01-.69-.02-.69-.01-.69-.02-.68-.01-.69-.02-.69-.01-.69-.01-.69-.02-.68-.01-.69-.02-.69" style="stroke-width:1.07;stroke:#000000;stroke-opacity:0.10;stroke-linecap:butt"/><path d="m385.32 172.58 1.91 3.31h-3.83zM223.39 449.17l7 12.12H216.4zM49.42 176.59l1.92 3.31h-3.83z" style="stroke-width:0.71;stroke:none;fill:#00BFC4"/><circle cx="219.25" cy="264.48" r="6.76" style="stroke-width:0.71;stroke:none;fill:#F8766D"/><circle cx="221.93" cy="389.13" r="1.42" style="stroke-width:0.71;stroke:none;fill:#F8766D"/><path d="m218.54 458.02 3.62-.57m2.32-197.58-4.36 3.85m7.05 120.79-4.37 3.85" style="stroke-width:0.53;stroke:#BFBFBF"/><path d="M314.83 180.4h63.56-.09l.35-.01.34-.07.33-.13.3-.17.27-.22.23-.26.18-.29.14-.32.08-.34.03-.35h0v-6.96h0l-.03-.35-.08-.33-.14-.32-.18-.3-.23-.26-.27-.22-.3-.17-.33-.12-.34-.07-.26-.02h-63.56l.26.02-.35-.02-.34.04-.34.1-.31.15-.29.2-.25.24-.21.28-.16.3-.11.33-.05.35-.01.17v6.96l.01-.17v.35l.05.34.11.33.16.31.21.28.25.24.29.19.31.15.34.1.34.04z" style="stroke-width:0.53;fill:#FFFFFF;fill-opacity:0.50"/><text x="346.61" y="176.8" lengthAdjust="spacingAndGlyphs" style="font-size:5.69px;font-family:Arial" text-anchor="middle" textLength="60.68">JANETTE VELAZQUEZ</text><path d="M158.53 467.77h57.85-.09l.35-.01.34-.07.32-.13.3-.17.27-.22.23-.26.19-.29.13-.32.09-.34.03-.35h0v-15.15h0l-.03-.35-.09-.34-.13-.32-.19-.29-.23-.26-.27-.22-.3-.18-.32-.12-.34-.07-.26-.01h-57.85l.26.01-.35-.01-.34.04-.33.1-.32.14-.28.2-.26.24-.2.28-.17.31-.11.33-.05.34-.01.18v15.15l.01-.17v.35l.05.34.11.33.17.31.2.27.26.25.28.19.32.15.33.1.34.04z" style="stroke-width:0.53;fill:#FFFFFF;fill-opacity:0.50"/><text x="187.45" y="455.98" lengthAdjust="spacingAndGlyphs" style="font-size:5.69px;font-family:Arial" text-anchor="middle" textLength="54.96">EUGENIO SANCHEZ</text><text x="187.45" y="464.17" lengthAdjust="spacingAndGlyphs" style="font-size:5.69px;font-family:Arial" text-anchor="middle" textLength="29.07">MARTINEZ</text><path d="M56.36 188.52h59.74-.09l.35-.01.34-.07.32-.12.3-.18.27-.22.23-.26.19-.29.14-.32.08-.34.03-.35h0v-15.15h0l-.03-.35-.08-.34-.14-.32-.19-.29-.23-.26-.27-.22-.3-.17-.32-.13-.34-.07-.26-.01H56.36l.26.01-.35-.01-.34.04-.34.1-.31.15-.29.19-.25.25-.21.27-.16.31-.11.33-.06.34v15.33-.17.35l.06.34.11.33.16.31.21.28.25.24.29.2.31.14.34.1.34.04z" style="stroke-width:0.53;fill:#FFFFFF;fill-opacity:0.50"/><text x="86.23" y="176.73" lengthAdjust="spacingAndGlyphs" style="font-size:5.69px;font-family:Arial" text-anchor="middle" textLength="56.86">EUGENIO SANCHEZ-</text><text x="86.23" y="184.92" lengthAdjust="spacingAndGlyphs" style="font-size:5.69px;font-family:Arial" text-anchor="middle" textLength="29.07">MARTINEZ</text><path d="M204.06 259.87h64.49-.09l.35-.02.34-.07.32-.12.3-.17.27-.22.23-.26.19-.3.14-.32.08-.34.03-.34h0v-15.16h0l-.03-.35-.08-.33-.14-.32-.19-.3-.23-.26-.27-.22-.3-.17-.32-.12-.34-.07-.26-.02h-64.49l.26.02-.35-.02-.34.04-.34.1-.31.15-.29.2-.25.24-.21.28-.16.3-.11.33-.06.35v15.33-.18.35l.06.35.11.32.16.31.21.28.25.24.29.2.31.15.34.09.34.05z" style="stroke-width:0.53;fill:#FFFFFF;fill-opacity:0.50"/><text x="236.3" y="248.07" lengthAdjust="spacingAndGlyphs" style="font-size:5.69px;font-family:Arial" text-anchor="middle" textLength="43.92">3643 S 58TH ST,</text><text x="236.3" y="256.27" lengthAdjust="spacingAndGlyphs" style="font-size:5.69px;font-family:Arial" text-anchor="middle" textLength="61.61">MILWAUKEE, WI 53220</text><path d="M205.82 384.51h66.38l-.09-.01.35-.01.34-.07.32-.12.3-.18.27-.22.23-.26.19-.29.14-.32.08-.34.03-.34h0v-15.16h0l-.03-.35-.08-.34-.14-.32-.19-.29-.23-.26-.27-.22-.3-.17-.32-.13-.34-.07-.26-.01h-66.38l.26.01-.35-.01-.34.04-.33.1-.32.15-.29.2-.25.24-.2.27-.17.31-.11.33-.05.34-.01.18v15.16l.01-.18v.35l.05.34.11.33.17.31.2.28.25.24.29.2.32.15.33.09.34.04z" style="stroke-width:0.53;fill:#FFFFFF;fill-opacity:0.50"/><text x="239.01" y="372.71" lengthAdjust="spacingAndGlyphs" style="font-size:5.69px;font-family:Arial" text-anchor="middle" textLength="63.5">5810 EAGLE POINT DR,</text><text x="239.01" y="380.91" lengthAdjust="spacingAndGlyphs" style="font-size:5.69px;font-family:Arial" text-anchor="middle" textLength="60.34">CALEDONIA, WI 53406</text></g><g clip-path="url(#cpMC4wMHw0MzIuMDB8MC4wMHw1MDQuMDA=)"><circle cx="159.34" cy="135.59" r="1.95" style="stroke-width:0.71;stroke:none;fill:#F8766D"/><path d="m235.7 132.55 2.63 4.56h-5.26z" style="stroke-width:0.71;stroke:none;fill:#00BFC4"/><text x="173.46" y="138.74" lengthAdjust="spacingAndGlyphs" style="font-size:8.80px;font-family:Arial Narrow" textLength="48.12">mprop address</text><text x="249.82" y="138.74" lengthAdjust="spacingAndGlyphs" style="font-size:8.80px;font-family:Arial Narrow" textLength="39.69">owner name</text><text x="32.63" y="104" lengthAdjust="spacingAndGlyphs" style="font-size:12.00px;font-family:Arial Narrow" textLength="241.29">includes 4 parcels, 9 units, and 3 distinct owner names.</text><text x="32.63" y="42.78" lengthAdjust="spacingAndGlyphs" style="font-size:18.00px;font-weight:bold;font-family:Arial Narrow" textLength="309.94">EUGENIO SANCHEZ MARTINEZ -- EUGENIO</text><text x="32.63" y="62.22" lengthAdjust="spacingAndGlyphs" style="font-size:18.00px;font-weight:bold;font-family:Arial Narrow" textLength="331.21">SANCHEZ-MARTINEZ -- JANETTE VELAZQUEZ</text><text x="32.63" y="81.66" lengthAdjust="spacingAndGlyphs" style="font-size:18.00px;font-weight:bold;font-family:Arial Narrow" textLength="44.27">Group</text></g></svg>