<svg xmlns="http://www.w3.org/2000/svg" width="768" height="768" class="svglite" viewBox="0 0 576 576"><defs><style>.svglite circle,.svglite line,.svglite polygon,.svglite polyline,.svglite rect{fill:none;stroke:#000;stroke-linecap:round;stroke-linejoin:round;stroke-miterlimit:10}.svglite text{white-space:pre}</style></defs><rect width="100%" height="100%" style="stroke:none;fill:#fff"/><defs><clipPath id="cpMC4wMHw1NzYuMDB8MC4wMHw1NzYuMDA="><path d="M0 0h576v576H0z"/></clipPath></defs><g clip-path="url(#cpMC4wMHw1NzYuMDB8MC4wMHw1NzYuMDA=)"><path d="M0 0h576v576H0z" style="stroke-width:1.07;stroke:none;fill:#fff"/></g><defs><clipPath id="cpMzIuNjN8NTQ2LjExfDEyMC44Nnw1NDMuMzc="><path d="M32.63 120.86h513.48v422.51H32.63z"/></clipPath></defs><g clip-path="url(#cpMzIuNjN8NTQ2LjExfDEyMC44Nnw1NDMuMzc=)"><path d="m55.97 524.17.08-3.88.08-3.88.08-3.88.09-3.88.08-3.88.08-3.88.08-3.88.09-3.88.08-3.88.08-3.88.08-3.88.08-3.88.09-3.88.08-3.88.08-3.88.08-3.88.08-3.88.09-3.88.08-3.88.08-3.88.08-3.88.09-3.88.08-3.88.08-3.88.08-3.88.08-3.88.09-3.88.08-3.88.08-3.88.08-3.88.09-3.88.08-3.88.08-3.88.08-3.88.08-3.88.09-3.88.08-3.88.08-3.87.08-3.88.09-3.88.08-3.88.08-3.88.08-3.88.08-3.88.09-3.88.08-3.88.08-3.88.08-3.88.08-3.88.09-3.88.08-3.88.08-3.88.08-3.88.09-3.88.08-3.88.08-3.88.08-3.88.08-3.88.09-3.88.08-3.88.08-3.88.08-3.88.09-3.88.08-3.88.08-3.88.08-3.88.08-3.88.09-3.88.08-3.88.08-3.88.08-3.88.09-3.88.08-3.88.08-3.88.08-3.88.08-3.88.09-3.88.08-3.88.08-3.88.08-3.88.08-3.88.09-3.88.08-3.88.08-3.88.08-3.88.09-3.87.08-3.88.08-3.88.08-3.88.08-3.88.09-3.88.08-3.88.08-3.88.08-3.88.09-3.88.08-3.88.08-3.88.08-3.88.08-3.88M55.97 524.17l1.46-1.77 1.46-1.76 1.46-1.76 1.47-1.76 1.46-1.77 1.46-1.76 1.46-1.76 1.47-1.77 1.46-1.76 1.46-1.76 1.46-1.76 1.46-1.77 1.47-1.76 1.46-1.76 1.46-1.77 1.46-1.76 1.47-1.76 1.46-1.76 1.46-1.77 1.46-1.76 1.47-1.76 1.46-1.76 1.46-1.77 1.46-1.76 1.46-1.76 1.47-1.77 1.46-1.76 1.46-1.76 1.46-1.76 1.47-1.77 1.46-1.76 1.46-1.76 1.46-1.77 1.46-1.76 1.47-1.76 1.46-1.76 1.46-1.77 1.46-1.76 1.47-1.76 1.46-1.77 1.46-1.76 1.46-1.76 1.46-1.76 1.47-1.77 1.46-1.76 1.46-1.76 1.46-1.77 1.47-1.76 1.46-1.76 1.46-1.76 1.46-1.77 1.46-1.76 1.47-1.76 1.46-1.77 1.46-1.76 1.46-1.76 1.47-1.76 1.46-1.77 1.46-1.76 1.46-1.76 1.47-1.77 1.46-1.76 1.46-1.76 1.46-1.76 1.46-1.77 1.47-1.76 1.46-1.76 1.46-1.77 1.46-1.76 1.47-1.76 1.46-1.76 1.46-1.77 1.46-1.76 1.46-1.76 1.47-1.76 1.46-1.77 1.46-1.76 1.46-1.76 1.47-1.77 1.46-1.76 1.46-1.76 1.46-1.76 1.46-1.77 1.47-1.76 1.46-1.76 1.46-1.77 1.46-1.76 1.47-1.76 1.46-1.76 1.46-1.77 1.46-1.76 1.46-1.76 1.47-1.77 1.46-1.76 1.46-1.76 1.46-1.76 1.47-1.77 1.46-1.76 1.46-1.76M362.97 369.86l1.61.2 1.62.2 1.61.2 1.62.21 1.61.2 1.61.2 1.62.2 1.61.2 1.62.2 1.61.2 1.62.2 1.61.2 1.61.21 1.62.2 1.61.2 1.62.2 1.61.2 1.61.2 1.62.2 1.61.2 1.62.2 1.61.21 1.62.2 1.61.2 1.61.2 1.62.2 1.61.2 1.62.2 1.61.2 1.61.2 1.62.21 1.61.2 1.62.2 1.61.2 1.62.2 1.61.2 1.61.2 1.62.2 1.61.2 1.62.21 1.61.2 1.61.2 1.62.2 1.61.2 1.62.2 1.61.2 1.62.2 1.61.2 1.61.21 1.62.2 1.61.2 1.62.2 1.61.2 1.61.2 1.62.2 1.61.2 1.62.2 1.61.21 1.62.2 1.61.2 1.61.2 1.62.2 1.61.2 1.62.2 1.61.2 1.61.2 1.62.21 1.61.2 1.62.2 1.61.2 1.62.2 1.61.2 1.61.2 1.62.2 1.61.2 1.62.21 1.61.2 1.61.2 1.62.2 1.61.2 1.62.2 1.61.2 1.62.2 1.61.2 1.61.21 1.62.2 1.61.2 1.62.2 1.61.2 1.61.2 1.62.2 1.61.2 1.62.2 1.61.21 1.62.2 1.61.2 1.61.2 1.62.2 1.61.2M362.97 369.86l-1.64-.2-1.64-.21-1.64-.2-1.64-.21-1.63-.2-1.64-.2-1.64-.21-1.64-.2-1.64-.21-1.64-.2-1.64-.21-1.64-.2-1.63-.2-1.64-.21-1.64-.2-1.64-.21-1.64-.2-1.64-.2-1.64-.21-1.64-.2-1.63-.21-1.64-.2-1.64-.21-1.64-.2-1.64-.2-1.64-.21-1.64-.2-1.64-.21-1.63-.2-1.64-.2-1.64-.21-1.64-.2-1.64-.21-1.64-.2-1.64-.21-1.64-.2-1.64-.2-1.63-.21-1.64-.2-1.64-.21-1.64-.2-1.64-.2-1.64-.21-1.64-.2-1.64-.21-1.63-.2-1.64-.21-1.64-.2-1.64-.2-1.64-.21-1.64-.2-1.64-.21-1.64-.2-1.63-.2-1.64-.21-1.64-.2-1.64-.21-1.64-.2-1.64-.21-1.64-.2-1.64-.2-1.63-.21-1.64-.2-1.64-.21-1.64-.2-1.64-.21-1.64-.2-1.64-.2-1.64-.21-1.63-.2-1.64-.21-1.64-.2-1.64-.2-1.64-.21-1.64-.2-1.64-.21-1.64-.2-1.64-.21-1.63-.2-1.64-.2-1.64-.21-1.64-.2-1.64-.21-1.64-.2-1.64-.2-1.64-.21-1.63-.2-1.64-.21-1.64-.2-1.64-.21-1.64-.2-1.64-.2-1.64-.21-1.64-.2-1.63-.21-1.64-.2-1.64-.2-1.64-.21-1.64-.2M200.73 349.65l-1.16-2.95-1.17-2.93-1.17-2.91-1.18-2.89-1.18-2.88-1.19-2.86-1.19-2.84-1.2-2.83-1.19-2.81-1.21-2.79-1.21-2.78-1.21-2.76-1.22-2.74-1.22-2.73-1.22-2.71-1.23-2.69-1.24-2.67-1.24-2.66-1.24-2.64-1.25-2.63-1.25-2.6-1.26-2.59-1.26-2.58-1.26-2.55-1.27-2.54-1.28-2.53-1.28-2.5-1.28-2.49-1.29-2.47-1.29-2.46-1.29-2.44-1.31-2.42-1.3-2.4-1.31-2.39-1.31-2.37-1.32-2.35-1.33-2.34-1.32-2.32-1.33-2.3-1.34-2.29-1.34-2.27-1.35-2.25-1.34-2.23-1.36-2.22-1.36-2.2-1.36-2.19-1.37-2.17-1.37-2.15-1.37-2.13-1.38-2.12-1.39-2.1-1.39-2.08-1.39-2.07-1.4-2.05-1.4-2.03-1.41-2.02-1.41-1.99-1.41-1.99-1.42-1.96-1.43-1.95-1.42-1.93-1.44-1.91-1.43-1.9-1.45-1.88-1.44-1.86-1.45-1.85-1.46-1.83-1.46-1.81-1.46-1.8-1.47-1.78-1.47-1.76-1.48-1.75-1.48-1.72-1.49-1.71-1.49-1.7-1.49-1.68-1.5-1.66-1.5-1.64-1.51-1.63-1.51-1.61-1.52-1.59-1.52-1.58-1.53-1.56-1.53-1.54-1.53-1.52-1.54-1.51-1.54-1.49-1.55-1.48-1.55-1.45-1.56-1.45-1.56-1.42-1.57-1.41-1.57-1.39-1.57-1.37-1.58-1.36-1.58-1.34-1.59-1.32-1.59-1.3-1.6-1.29" style="stroke-width:1.07;stroke:#000;stroke-opacity:.1;stroke-linecap:butt"/><path d="m200.73 349.65-1.6-1.29-1.59-1.31-1.58-1.32-1.59-1.34-1.58-1.36-1.57-1.37-1.57-1.39-1.56-1.41-1.57-1.42-1.55-1.44-1.55-1.46-1.55-1.47-1.54-1.49-1.54-1.51-1.54-1.53-1.53-1.54-1.52-1.56-1.52-1.58-1.52-1.59-1.51-1.61-1.51-1.62-1.5-1.65-1.5-1.66-1.5-1.68-1.49-1.69-1.48-1.71-1.49-1.73-1.47-1.75-1.48-1.76-1.46-1.78-1.47-1.79-1.46-1.81-1.45-1.83-1.45-1.85-1.45-1.86-1.44-1.88-1.44-1.9-1.43-1.92-1.43-1.93-1.42-1.94-1.42-1.97-1.42-1.98-1.41-2-1.41-2.02-1.4-2.03-1.4-2.05-1.39-2.06-1.39-2.09-1.38-2.1-1.38-2.11-1.38-2.14-1.37-2.15-1.37-2.17-1.36-2.18-1.36-2.2-1.35-2.22-1.35-2.24-1.34-2.25-1.35-2.27-1.33-2.28-1.33-2.31-1.33-2.32-1.32-2.33-1.32-2.36-1.32-2.37-1.3-2.38-1.31-2.41-1.3-2.42-1.3-2.44-1.29-2.45-1.29-2.47-1.28-2.49-1.28-2.51-1.27-2.52-1.27-2.54-1.27-2.56-1.26-2.57-1.26-2.59-1.25-2.61-1.25-2.62-1.24-2.64-1.24-2.66-1.23-2.68-1.23-2.69-1.23-2.71-1.22-2.72-1.22-2.74-1.21-2.76-1.21-2.78-1.2-2.79-1.2-2.81-1.2-2.83-1.19-2.84-1.18-2.87-1.18-2.87-1.18-2.9-1.17-2.91-1.17-2.93-1.17-2.94" style="stroke-width:1.07;stroke:#000;stroke-opacity:.1;stroke-linecap:butt"/><path d="m55.97 521.96 1.91 3.31h-3.83zM362.97 367.65l1.91 3.32h-3.82z" style="stroke-width:.71;stroke:none;fill:#00ba38"/><path d="M193.97 356.4h13.52v-13.51h-13.52z" style="stroke-width:.71;stroke:none;fill:#619cff"/><circle cx="64.1" cy="140.07" r="1.42" style="stroke-width:.71;stroke:none;fill:#f8766d"/><circle cx="522.77" cy="389.77" r="1.42" style="stroke-width:.71;stroke:none;fill:#f8766d"/><path d="m60.47 531.4-3.92-6.3M368.1 365.24l-4.27 3.85M195.33 354.23l4.51-3.83M68.83 142.25l-3.62-1.67" style="stroke-width:.53;stroke:#bfbfbf"/><path d="M62.63 539.73h38.43-.09l.35-.02.34-.06.32-.13.31-.17.26-.22.24-.26.18-.3.14-.32.08-.33.03-.35v-7.03l-.03-.34-.08-.34-.14-.32-.18-.29-.24-.26-.26-.22-.31-.18-.32-.12-.34-.07-.26-.02H62.63l.26.02-.34-.01-.35.04-.33.09-.32.15-.28.2-.25.24-.21.28-.16.31-.11.33-.06.34-.01.17v7.03l.01-.17v.34l.06.35.11.33.16.31.21.27.25.24.28.2.32.15.33.1.35.04z" style="stroke-width:.53;fill:#fff;fill-opacity:.5"/><text x="81.85" y="536.13" lengthAdjust="spacingAndGlyphs" style="font-size:5.69px;font-family:&quot;Liberation Sans&quot;" text-anchor="middle" textLength="35.55">HAYDEN LLC</text><path d="M344.26 365.24h62.54l-.09-.01.35-.01.34-.07.33-.12.3-.18.27-.22.23-.26.18-.29.14-.32.08-.34.03-.34v-7.03l-.03-.35-.08-.33-.14-.32-.18-.3-.23-.26-.27-.22-.3-.17-.33-.13-.34-.06-.26-.02h-62.54l.26.02-.35-.02-.34.04-.33.1-.32.15-.28.2-.25.24-.21.27-.17.31-.11.33-.05.35-.01.17v7.03l.01-.18v.35l.05.34.11.33.17.31.21.28.25.24.28.2.32.15.33.09.34.04z" style="stroke-width:.53;fill:#fff;fill-opacity:.5"/><text x="375.53" y="361.64" lengthAdjust="spacingAndGlyphs" style="font-size:5.69px;font-family:&quot;Liberation Sans&quot;" text-anchor="middle" textLength="59.66">F STREET CRAZY LLC</text><path d="M147.42 381.96h61.78-.09l.35-.01.34-.07.32-.12.31-.18.27-.22.23-.26.18-.29.14-.32.08-.34.03-.35v-23.41l-.03-.35-.08-.34-.14-.32-.18-.29-.23-.26-.27-.22-.31-.17-.32-.13-.34-.07-.26-.01h-61.78l.26.01-.35-.01-.35.04-.33.1-.31.15-.29.2-.25.24-.21.27-.16.31-.11.33-.06.34v23.59-.17.35l.06.34.11.33.16.31.21.28.25.24.29.2.31.14.33.1.35.04z" style="stroke-width:.53;fill:#fff;fill-opacity:.5"/><text x="178.31" y="361.98" lengthAdjust="spacingAndGlyphs" style="font-size:5.69px;font-family:&quot;Liberation Sans&quot;" text-anchor="middle" textLength="56.92">1134 N 9TH ST, STE</text><text x="178.31" y="370.17" lengthAdjust="spacingAndGlyphs" style="font-size:5.69px;font-family:&quot;Liberation Sans&quot;" text-anchor="middle" textLength="58.9">200, MILWAUKEE, WI</text><text x="178.31" y="378.36" lengthAdjust="spacingAndGlyphs" style="font-size:5.69px;font-family:&quot;Liberation Sans&quot;" text-anchor="middle" textLength="18.11">53233</text><path d="M70.99 156.58h61.78-.09l.35-.02.34-.07.33-.12.3-.17.27-.22.23-.26.18-.3.14-.32.08-.33.03-.35V131l-.03-.34-.08-.34-.14-.32-.18-.29-.23-.26-.27-.22-.3-.18-.33-.12-.34-.07-.26-.02H70.99l.26.02-.35-.01-.34.04-.34.09-.31.15-.29.2-.25.24-.21.28-.16.31-.11.33-.06.34V154.42v-.17.34l.06.35.11.33.16.3.21.28.25.24.29.2.31.15.34.1.34.04z" style="stroke-width:.53;fill:#fff;fill-opacity:.5"/><text x="101.88" y="136.59" lengthAdjust="spacingAndGlyphs" style="font-size:5.69px;font-family:&quot;Liberation Sans&quot;" text-anchor="middle" textLength="56.92">1134 N 9TH ST, STE</text><text x="101.88" y="144.79" lengthAdjust="spacingAndGlyphs" style="font-size:5.69px;font-family:&quot;Liberation Sans&quot;" text-anchor="middle" textLength="58.9">200, MILWAUKEE, WI</text><text x="101.88" y="152.98" lengthAdjust="spacingAndGlyphs" style="font-size:5.69px;font-family:&quot;Liberation Sans&quot;" text-anchor="middle" textLength="18.11">53233</text><path d="M447.47 398.66h68.43-.08l.34-.01.34-.07.33-.12.3-.18.27-.22.23-.26.19-.29.13-.32.08-.34.03-.35v-15.22l-.03-.34-.08-.34-.13-.32-.19-.29-.23-.27-.27-.21-.3-.18-.33-.12-.34-.07-.26-.02h-68.43l.26.02-.35-.02-.35.05-.33.09-.31.15-.29.2-.25.24-.21.28-.16.31-.11.33-.06.34v15.39-.17.35l.06.34.11.33.16.31.21.28.25.24.29.19.31.15.33.1.35.04z" style="stroke-width:.53;fill:#fff;fill-opacity:.5"/><text x="481.68" y="386.87" lengthAdjust="spacingAndGlyphs" style="font-size:5.69px;font-family:&quot;Liberation Sans&quot;" text-anchor="middle" textLength="53.76">8020 FIELDING LN,</text><text x="481.68" y="395.06" lengthAdjust="spacingAndGlyphs" style="font-size:5.69px;font-family:&quot;Liberation Sans&quot;" text-anchor="middle" textLength="65.56">GREENDALE, WI 53129</text></g><g clip-path="url(#cpMC4wMHw1NzYuMDB8MC4wMHw1NzYuMDA=)"><circle cx="196.98" cy="95.78" r="1.95" style="stroke-width:.71;stroke:none;fill:#f8766d"/><path d="m273.33 92.74 2.63 4.56h-5.26z" style="stroke-width:.71;stroke:none;fill:#00ba38"/><path d="M339.31 97.74h3.91v-3.91h-3.91z" style="stroke-width:.71;stroke:none;fill:#619cff"/><text x="211.09" y="98.81" lengthAdjust="spacingAndGlyphs" style="font-size:8.8px;font-family:&quot;Liberation Sans Narrow&quot;" textLength="48.12">mprop address</text><text x="287.45" y="98.81" lengthAdjust="spacingAndGlyphs" style="font-size:8.8px;font-family:&quot;Liberation Sans Narrow&quot;" textLength="39.69">owner name</text><text x="355.38" y="98.81" lengthAdjust="spacingAndGlyphs" style="font-size:8.8px;font-family:&quot;Liberation Sans Narrow&quot;" textLength="40.5">wdfi address</text><text x="32.63" y="64.23" lengthAdjust="spacingAndGlyphs" style="font-size:12px;font-family:&quot;Liberation Sans Narrow&quot;" textLength="241.29">includes 2 parcels, 3 units, and 2 distinct owner names.</text><text x="32.63" y="42.27" lengthAdjust="spacingAndGlyphs" style="font-size:18px;font-weight:700;font-family:&quot;Liberation Sans Narrow&quot;" textLength="207.17">F STREET CRAZY LLC Group</text></g></svg>