<svg xmlns="http://www.w3.org/2000/svg" width="768" height="768" class="svglite" viewBox="0 0 576 576"><defs><style><![CDATA[.svglite line,.svglite polyline,.svglite polygon,.svglite path,.svglite circle{fill:none;stroke:#000000;stroke-linecap:round;stroke-linejoin:round;stroke-miterlimit:10.00}.svglite text{white-space:pre}]]></style></defs><rect width="100%" height="100%" style="stroke-linecap:round;stroke-linejoin:round;stroke-miterlimit:10.00;stroke:none;fill:#FFFFFF"/><defs><clipPath id="cpMC4wMHw1NzYuMDB8MC4wMHw1NzYuMDA="><path d="M0 0h576v576H0z"/></clipPath></defs><g clip-path="url(#cpMC4wMHw1NzYuMDB8MC4wMHw1NzYuMDA=)"><path d="M0 0h576v576H0z" style="stroke-width:1.07;stroke:none;fill:#FFFFFF"/></g><defs><clipPath id="cpMzIuNjN8NTQ2LjExfDEyMi4xNHw1NDMuMzc="><path d="M32.63 122.14h513.48v421.24H32.63z"/></clipPath></defs><g clip-path="url(#cpMzIuNjN8NTQ2LjExfDEyMi4xNHw1NDMuMzc=)"><path d="m287.77 524.23.6-1.79.6-1.79.59-1.79.6-1.79.59-1.8.58-1.8.59-1.8.58-1.81.57-1.81.58-1.81.57-1.82.57-1.82.57-1.83.56-1.83.56-1.83.56-1.83.55-1.84.55-1.84.55-1.85.55-1.85.54-1.85.54-1.85.53-1.86.54-1.87.53-1.86.53-1.87.52-1.87.52-1.88.52-1.88.52-1.88.51-1.89.51-1.89.51-1.89.5-1.9.5-1.9.5-1.9.5-1.91.49-1.91.49-1.91.48-1.92.49-1.92.48-1.93.48-1.92.47-1.94.47-1.93.47-1.94.47-1.94.46-1.95.46-1.94.46-1.96.45-1.95.45-1.96.45-1.96.45-1.97.44-1.97.44-1.97.44-1.97.43-1.98.43-1.99.43-1.98.42-1.99.42-1.99.42-2 .42-2 .41-2 .41-2.01.41-2.01.4-2.01.4-2.02.4-2.02.4-2.03.39-2.02.39-2.03.38-2.04.39-2.04.38-2.04.38-2.04.37-2.05.37-2.05.37-2.06.37-2.05.36-2.07.36-2.06.36-2.07.35-2.07.35-2.08.35-2.08.35-2.08.34-2.08.34-2.09.33-2.1.34-2.09.33-2.1.33-2.1.32-2.11.32-2.11.32-2.11.32-2.12.31-2.12m-45.25 193.23-.26-2.16-.26-2.15-.27-2.15-.27-2.15-.27-2.14-.28-2.14-.28-2.14-.28-2.13-.28-2.13-.29-2.13-.29-2.13-.29-2.12-.3-2.12-.3-2.11-.3-2.11-.3-2.11-.31-2.11-.31-2.1-.32-2.1-.32-2.1-.32-2.09-.32-2.09-.33-2.09-.33-2.09-.33-2.08-.33-2.08-.34-2.07-.34-2.08-.35-2.07-.35-2.06-.35-2.07-.35-2.06-.36-2.05-.36-2.06-.36-2.05-.37-2.05-.37-2.04-.37-2.04-.37-2.04-.38-2.04-.38-2.03-.38-2.03-.39-2.03-.39-2.02-.39-2.02-.4-2.02-.4-2.01-.4-2.01-.41-2.01-.41-2.01-.41-2-.41-2-.42-1.99-.42-2-.42-1.99-.43-1.98-.43-1.99-.43-1.98-.44-1.97-.43-1.98-.45-1.97-.44-1.97-.45-1.96-.45-1.97-.45-1.95-.46-1.96-.46-1.95-.46-1.95-.47-1.95-.46-1.94-.48-1.94-.47-1.94-.48-1.94-.48-1.93-.48-1.93-.49-1.92-.49-1.92-.49-1.92-.5-1.92-.5-1.91-.5-1.91-.5-1.91-.51-1.9-.51-1.9-.52-1.9-.51-1.9-.52-1.89-.53-1.89-.52-1.88-.53-1.88-.53-1.88-.54-1.88-.54-1.87-.54-1.87-.54-1.87-.55-1.86-.55-1.86-.55-1.86-.56-1.86m76.73-180.54.09 1.88.09 1.87.09 1.88.09 1.88.09 1.87.09 1.88.09 1.88.09 1.87.09 1.88.09 1.88.09 1.88.09 1.87.09 1.88.09 1.88.09 1.87.09 1.88.09 1.88.09 1.87.09 1.88.09 1.88.09 1.87.09 1.88.09 1.88.09 1.88.09 1.87.1 1.88.09 1.88.09 1.87.09 1.88.09 1.88.09 1.87.09 1.88.09 1.88.09 1.88.09 1.87.09 1.88.09 1.88.09 1.87.09 1.88.09 1.88.09 1.87.09 1.88.09 1.88.09 1.88.09 1.87.09 1.88.09 1.88.09 1.87.09 1.88.09 1.88.09 1.87.09 1.88.09 1.88.09 1.88.09 1.87.09 1.88.09 1.88.09 1.87.09 1.88.09 1.88.09 1.87.09 1.88.09 1.88.09 1.88.09 1.87.09 1.88.09 1.88.09 1.87.09 1.88.09 1.88.09 1.87.09 1.88.09 1.88.09 1.87.09 1.88.09 1.88.09 1.88.09 1.87.09 1.88.1 1.88.09 1.87.09 1.88.09 1.88.09 1.87.09 1.88.09 1.88.09 1.88.09 1.87.09 1.88.09 1.88.09 1.87.09 1.88.09 1.88.09 1.87.09 1.88.09 1.88.09 1.88.09 1.87.09 1.88m-8.93-185.82-.77 1.82-.78 1.83-.77 1.82-.78 1.82-.78 1.83-.77 1.82-.78 1.82-.77 1.83-.78 1.82-.77 1.83-.78 1.82-.77 1.82-.78 1.83-.77 1.82-.78 1.82-.77 1.83-.78 1.82-.77 1.82-.78 1.83-.77 1.82-.78 1.83-.77 1.82-.78 1.82-.77 1.83-.78 1.82-.77 1.82-.78 1.83-.77 1.82-.78 1.83-.77 1.82-.78 1.82-.77 1.83-.78 1.82-.77 1.82-.78 1.83-.77 1.82-.78 1.82-.77 1.83-.78 1.82-.77 1.83-.78 1.82-.77 1.82-.78 1.83-.77 1.82-.78 1.82-.77 1.83-.78 1.82-.77 1.83-.78 1.82-.77 1.82-.78 1.83-.77 1.82-.78 1.82-.77 1.83-.78 1.82-.77 1.82-.78 1.83-.77 1.82-.78 1.83-.77 1.82-.78 1.82-.77 1.83-.78 1.82-.77 1.82-.78 1.83-.77 1.82-.78 1.83-.77 1.82-.78 1.82-.77 1.83-.78 1.82-.77 1.82-.78 1.83-.77 1.82-.78 1.82-.77 1.83-.78 1.82-.77 1.83-.78 1.82-.77 1.82-.78 1.83-.77 1.82-.78 1.82-.77 1.83-.78 1.82-.77 1.83-.78 1.82-.77 1.82-.78 1.83-.78 1.82-.77 1.82-.78 1.83-.77 1.82-.78 1.82-.77 1.83-.78 1.82-.77 1.83-.78 1.82-.77 1.82" style="stroke-width:1.07;stroke:#000000;stroke-opacity:0.10;stroke-linecap:butt"/><path d="m260.86 141.28.73 1.92.73 1.92.73 1.91.73 1.92.73 1.92.73 1.91.73 1.92.73 1.91.72 1.92.73 1.92.73 1.91.73 1.92.73 1.92.73 1.91.73 1.92.73 1.92.72 1.91.73 1.92.73 1.91.73 1.92.73 1.92.73 1.91.73 1.92.73 1.92.73 1.91.72 1.92.73 1.91.73 1.92.73 1.92.73 1.91.73 1.92.73 1.92.73 1.91.72 1.92.73 1.92.73 1.91.73 1.92.73 1.91.73 1.92.73 1.92.73 1.91.73 1.92.72 1.92.73 1.91.73 1.92.73 1.91.73 1.92.73 1.92.73 1.91.73 1.92.72 1.92.73 1.91.73 1.92.73 1.92.73 1.91.73 1.92.73 1.91.73 1.92.73 1.92.72 1.91.73 1.92.73 1.92.73 1.91.73 1.92.73 1.91.73 1.92.73 1.92.73 1.91.72 1.92.73 1.92.73 1.91.73 1.92.73 1.92.73 1.91.73 1.92.73 1.91.72 1.92.73 1.92.73 1.91.73 1.92.73 1.92.73 1.91.73 1.92.73 1.91.73 1.92.72 1.92.73 1.91.73 1.92.73 1.92.73 1.91.73 1.92.73 1.92.73 1.91.72 1.92.73 1.91.73 1.92.73 1.92.73 1.91.73 1.92m-72.16-189.72-.13 1.87-.14 1.86-.13 1.86-.14 1.87-.14 1.86-.13 1.86-.14 1.87-.14 1.86-.13 1.86-.14 1.86-.14 1.87-.13 1.86-.14 1.86-.14 1.87-.13 1.86-.14 1.86-.13 1.87-.14 1.86-.14 1.86-.13 1.86-.14 1.87-.14 1.86-.13 1.86-.14 1.87-.14 1.86-.13 1.86-.14 1.87-.14 1.86-.13 1.86-.14 1.86-.13 1.87-.14 1.86-.14 1.86-.13 1.87-.14 1.86-.14 1.86-.13 1.87-.14 1.86-.14 1.86-.13 1.87-.14 1.86-.13 1.86-.14 1.86-.14 1.87-.13 1.86-.14 1.86-.14 1.87-.13 1.86-.14 1.86-.14 1.87-.13 1.86-.14 1.86-.14 1.86-.13 1.87-.14 1.86-.13 1.86-.14 1.87-.14 1.86-.13 1.86-.14 1.87-.14 1.86-.13 1.86-.14 1.86-.14 1.87-.13 1.86-.14 1.86-.14 1.87-.13 1.86-.14 1.86-.13 1.87-.14 1.86-.14 1.86-.13 1.86-.14 1.87-.14 1.86-.13 1.86-.14 1.87-.14 1.86-.13 1.86-.14 1.87-.14 1.86-.13 1.86-.14 1.86-.13 1.87-.14 1.86-.14 1.86-.13 1.87-.14 1.86-.14 1.86-.13 1.87-.14 1.86-.14 1.86-.13 1.87-.14 1.86-.13 1.86-.14 1.86-.14 1.87-.13 1.86-.14 1.86m40.41 198.51.46-1.96.45-1.95.46-1.95.46-1.95.45-1.95.46-1.96.46-1.95.45-1.95.46-1.95.46-1.95.46-1.95.45-1.96.46-1.95.46-1.95.45-1.95.46-1.95.46-1.95.46-1.96.45-1.95.46-1.95.46-1.95.45-1.95.46-1.96.46-1.95.45-1.95.46-1.95.46-1.95.46-1.95.45-1.96.46-1.95.46-1.95.45-1.95.46-1.95.46-1.96.46-1.95.45-1.95.46-1.95.46-1.95.45-1.95.46-1.96.46-1.95.46-1.95.45-1.95.46-1.95.46-1.95.45-1.96.46-1.95.46-1.95.45-1.95.46-1.95.46-1.96.46-1.95.45-1.95.46-1.95.46-1.95.45-1.95.46-1.96.46-1.95.46-1.95.45-1.95.46-1.95.46-1.95.45-1.96.46-1.95.46-1.95.46-1.95.45-1.95.46-1.96.46-1.95.45-1.95.46-1.95.46-1.95.45-1.95.46-1.96.46-1.95.46-1.95.45-1.95.46-1.95.46-1.96.45-1.95.46-1.95.46-1.95.46-1.95.45-1.95.46-1.96.46-1.95.45-1.95.46-1.95.46-1.95.46-1.95.45-1.96.46-1.95.46-1.95.45-1.95.46-1.95.46-1.96.45-1.95.46-1.95.46-1.95m-45.25 193.23-.41-2.01-.41-2-.41-2.01-.4-2-.41-2.01-.41-2.01-.41-2-.41-2.01-.41-2-.4-2.01-.41-2-.41-2.01-.41-2-.41-2.01-.4-2-.41-2.01-.41-2-.41-2.01-.41-2-.41-2.01-.4-2-.41-2.01-.41-2-.41-2.01-.41-2-.4-2.01-.41-2-.41-2.01-.41-2-.41-2.01-.41-2-.4-2.01-.41-2-.41-2.01-.41-2-.41-2.01-.4-2-.41-2.01-.41-2-.41-2.01-.41-2-.41-2.01-.4-2-.41-2.01-.41-2-.41-2.01-.41-2-.4-2.01-.41-2-.41-2.01-.41-2-.41-2.01-.4-2-.41-2.01-.41-2-.41-2.01-.41-2-.41-2.01-.4-2-.41-2.01-.41-2-.41-2.01-.41-2-.4-2.01-.41-2-.41-2.01-.41-2-.41-2.01-.41-2-.4-2.01-.41-2-.41-2.01-.41-2-.41-2.01-.4-2-.41-2.01-.41-2.01-.41-2-.41-2.01-.41-2-.4-2.01-.41-2-.41-2.01-.41-2-.41-2.01-.4-2-.41-2.01-.41-2-.41-2.01-.41-2-.41-2.01-.4-2-.41-2.01-.41-2-.41-2.01-.41-2-.4-2.01-.41-2-.41-2.01" style="stroke-width:1.07;stroke:#000000;stroke-opacity:0.10;stroke-linecap:butt"/><path d="m287.77 524.23.31-2.12.32-2.12.32-2.11.32-2.11.32-2.11.33-2.1.33-2.1.33-2.1.34-2.09.34-2.09.34-2.09.35-2.08.34-2.08.36-2.07.35-2.08.36-2.06.36-2.07.36-2.06.37-2.06.36-2.05.38-2.06.37-2.04.38-2.05.38-2.04.38-2.04.39-2.03.39-2.03.39-2.03.4-2.02.39-2.02.4-2.02.41-2.01.41-2.01.41-2.01.41-2 .41-2 .42-2 .42-1.99.43-1.99.43-1.99.43-1.98.43-1.98.44-1.98.44-1.97.44-1.97.44-1.96.45-1.97.45-1.95.46-1.96.46-1.95.46-1.95.46-1.95.46-1.94.47-1.93.48-1.94.47-1.93.48-1.93.48-1.92.48-1.92.49-1.92.49-1.91.49-1.92.5-1.9.49-1.91.5-1.9.51-1.89.51-1.9.51-1.89.51-1.88.52-1.89.51-1.88.53-1.87.52-1.87.53-1.87.53-1.87.53-1.86.54-1.86.54-1.86.54-1.85.55-1.85.55-1.84.55-1.84.55-1.84.56-1.84.56-1.83.56-1.83.57-1.82.57-1.82.57-1.82.57-1.82.58-1.81.58-1.8.58-1.81.59-1.8.59-1.8.59-1.79.6-1.79.6-1.79.6-1.78m-45.25 193.23-.56-1.86-.55-1.86-.55-1.86-.55-1.86-.54-1.87-.54-1.87-.54-1.87-.54-1.88-.53-1.88-.53-1.88-.53-1.89-.52-1.88-.52-1.9-.52-1.89-.51-1.9-.51-1.9-.51-1.9-.5-1.91-.51-1.91-.49-1.91-.5-1.92-.49-1.92-.49-1.92-.49-1.93-.48-1.92-.48-1.94-.48-1.93-.48-1.94-.47-1.94-.47-1.94-.46-1.95-.47-1.95-.46-1.95-.45-1.96-.46-1.96-.45-1.96-.44-1.96-.45-1.97-.44-1.97-.44-1.98-.43-1.98-.44-1.98-.42-1.98-.43-1.99-.42-1.99-.42-1.99-.42-1.99-.42-2-.41-2.01-.41-2-.4-2.01-.4-2.01-.4-2.01-.4-2.02-.39-2.02-.39-2.03-.39-2.02-.38-2.03-.38-2.03-.38-2.04-.38-2.04-.37-2.04-.37-2.05-.36-2.04-.36-2.05-.36-2.06-.36-2.06-.36-2.06-.35-2.06-.34-2.07-.35-2.07-.34-2.07-.34-2.07-.33-2.08-.34-2.08-.33-2.09-.32-2.09-.33-2.09-.32-2.09-.31-2.1-.32-2.1-.31-2.1-.31-2.11-.3-2.11-.31-2.11-.3-2.12-.29-2.11-.29-2.13-.29-2.12-.29-2.13-.29-2.13-.28-2.13-.28-2.14-.27-2.14-.27-2.14-.27-2.15-.27-2.15-.26-2.15-.26-2.16m-98.69 29.59-.94.25-.93.25-.94.25-.94.25-.93.26-.94.25-.94.25-.93.25-.94.25-.93.26-.94.25-.94.25-.93.25-.94.25-.94.26-.93.25-.94.25-.94.25-.93.25-.94.26-.93.25-.94.25-.94.25-.93.25-.94.26-.94.25-.93.25-.94.25-.94.25-.93.26-.94.25-.93.25-.94.25-.94.26-.93.25-.94.25-.94.25-.93.25-.94.26-.94.25-.93.25-.94.25-.94.25-.93.26-.94.25-.93.25-.94.25-.94.25-.93.26-.94.25-.94.25-.93.25-.94.25-.94.26-.93.25-.94.25-.93.25-.94.25-.94.26-.93.25-.94.25-.94.25-.93.25-.94.26-.94.25-.93.25-.94.25-.93.25-.94.26-.94.25-.93.25-.94.25-.94.25-.93.26-.94.25-.94.25-.93.25-.94.25-.93.26-.94.25-.94.25-.93.25-.94.25-.94.26-.93.25-.94.25-.94.25-.93.25-.94.26-.93.25-.94.25-.94.25-.93.26-.94.25-.94.25-.93.25-.94.25-.94.26-.93.25m92.7-24.95 1-.3.99-.3 1-.3 1-.3.99-.3 1-.3 1-.3.99-.29 1-.3 1-.3.99-.3 1-.3 1-.3 1-.3.99-.3 1-.3 1-.29.99-.3 1-.3 1-.3.99-.3 1-.3 1-.3.99-.3 1-.29 1-.3.99-.3 1-.3 1-.3 1-.3.99-.3 1-.3 1-.29.99-.3 1-.3 1-.3.99-.3 1-.3 1-.3.99-.3 1-.3 1-.29.99-.3 1-.3 1-.3 1-.3.99-.3 1-.3 1-.3.99-.29 1-.3 1-.3.99-.3 1-.3 1-.3.99-.3 1-.3 1-.3.99-.29 1-.3 1-.3 1-.3.99-.3 1-.3 1-.3.99-.3 1-.29 1-.3.99-.3 1-.3 1-.3.99-.3 1-.3 1-.3.99-.3 1-.29 1-.3 1-.3.99-.3 1-.3 1-.3.99-.3 1-.3 1-.29.99-.3 1-.3 1-.3.99-.3 1-.3 1-.3.99-.3 1-.29 1-.3 1-.3.99-.3 1-.3 1-.3.99-.3 1-.3m183.47 46.96-.99-.42-.99-.42-.99-.42-.98-.42-.99-.42-.99-.42-.99-.42-.99-.42-.98-.42-.99-.43-.99-.42-.99-.42-.99-.42-.98-.42-.99-.42-.99-.42-.99-.42-.99-.42-.98-.43-.99-.42-.99-.42-.99-.42-.99-.42-.98-.42-.99-.42-.99-.42-.99-.42-.99-.42-.98-.43-.99-.42-.99-.42-.99-.42-.99-.42-.98-.42-.99-.42-.99-.42-.99-.42-.98-.43-.99-.42-.99-.42-.99-.42-.99-.42-.98-.42-.99-.42-.99-.42-.99-.42-.99-.43-.98-.42-.99-.42-.99-.42-.99-.42-.99-.42-.98-.42-.99-.42-.99-.42-.99-.42-.99-.43-.98-.42-.99-.42-.99-.42-.99-.42-.99-.42-.98-.42-.99-.42-.99-.42-.99-.43-.99-.42-.98-.42-.99-.42-.99-.42-.99-.42-.99-.42-.98-.42-.99-.42-.99-.43-.99-.42-.99-.42-.98-.42-.99-.42-.99-.42-.99-.42-.99-.42-.98-.42-.99-.42-.99-.43-.99-.42-.99-.42-.98-.42-.99-.42-.99-.42-.99-.42-.99-.42-.98-.42-.99-.43-.99-.42-.99-.42-.99-.42-.98-.42-.99-.42m97.81 41.68.93.37.93.37.92.37.93.36.93.37.93.37.93.36.93.37.93.37.93.36.92.37.93.37.93.36.93.37.93.37.93.37.93.36.93.37.92.37.93.36.93.37.93.37.93.36.93.37.93.37.92.36.93.37.93.37.93.37.93.36.93.37.93.37.93.36.92.37.93.37.93.36.93.37.93.37.93.36.93.37.93.37.92.37.93.36.93.37.93.37.93.36.93.37.93.37.93.36.92.37.93.37.93.36.93.37.93.37.93.36.93.37.93.37.92.37.93.36.93.37.93.37.93.36.93.37.93.37.93.36.92.37.93.37.93.36.93.37.93.37.93.37.93.36.92.37.93.37.93.36.93.37.93.37.93.36.93.37.93.37.92.36.93.37.93.37.93.37.93.36.93.37.93.37.93.36.92.37.93.37.93.36.93.37.93.37.93.36.93.37.93.37.92.37.93.36.93.37" style="stroke-width:1.07;stroke:#000000;stroke-opacity:0.10;stroke-linecap:butt"/><path d="m247.36 325.72.85.85.86.84.86.81.85.81.86.78.85.77.86.75.86.74.86.72.85.7.86.69.86.67.86.65.85.64.86.63.86.6.86.59.86.57.86.56.86.54.85.53.86.51.86.49.86.47.86.46.87.45.86.42.86.42.86.39.86.38.86.36.86.35.86.33.87.31.86.3.86.28.86.26.87.25.86.23.86.22.87.2.86.18.86.17.87.15.86.13.87.12.86.11.87.08.86.07.87.05.86.04.87.02.86.01.87-.02.86-.02.87-.05.87-.06.86-.08.87-.09.87-.11.87-.12.86-.14.87-.16.87-.18.87-.19.87-.2.87-.23.86-.24.87-.25.87-.27.87-.29.87-.31.87-.32.87-.33.87-.36.87-.37.87-.38.87-.4.88-.42.87-.44.87-.45.87-.46.87-.49.87-.5.88-.51.87-.54.87-.54.87-.57.88-.58.87-.6.87-.61.88-.63.87-.64.88-.67.87-.67.87-.7.88-.71.87-.73.88-.74" style="stroke-width:1.07;stroke:#000000;stroke-opacity:0.10;stroke-linecap:butt"/><path d="m247.36 325.72.86.53.86.53.86.51.86.5.86.49.86.48.86.48.86.46.86.45.86.45.86.43.86.42.86.42.86.4.86.4.86.38.86.38.87.36.86.36.86.35.86.33.86.33.86.31.87.31.86.3.86.29.86.27.87.27.86.26.86.25.86.24.87.23.86.21.86.21.87.2.86.19.87.18.86.17.86.16.87.16.86.14.87.13.86.12.86.11.87.1.86.1.87.08.86.07.87.06.86.06.87.04.86.03.87.03.87.01.86.01.87-.01.86-.01.87-.03.87-.03.86-.05.87-.05.87-.06.86-.08.87-.08.87-.09.86-.11.87-.11.87-.12.87-.13.86-.15.87-.15.87-.16.87-.17.87-.18.86-.19.87-.2.87-.21.87-.22.87-.23.87-.24.87-.25.87-.26.86-.27.87-.27.87-.29.87-.3.87-.31.87-.32.87-.32.87-.34.87-.35.87-.35.87-.37.87-.37.87-.39.88-.4.87-.4.87-.42.87-.42" style="stroke-width:1.07;stroke:#000000;stroke-opacity:0.10;stroke-linecap:butt"/><path d="m247.36 325.72.86.22.87.21.86.2.86.2.87.2.86.2.86.19.87.19.86.19.86.18.87.18.86.18.87.17.86.17.86.17.87.17.86.16.86.15.87.16.86.15.87.15.86.14.86.14.87.14.86.13.87.13.86.13.87.13.86.12.87.12.86.11.86.11.87.11.86.11.87.1.86.1.87.09.86.1.87.09.86.08.87.08.86.08.87.08.86.07.87.07.86.07.87.06.86.06.87.06.86.05.87.05.86.05.87.04.86.04.87.04.86.03.87.03.87.03.86.02.87.03.86.01.87.02.86.01.87.01h2.6l.86-.01h.87l.87-.02.86-.01.87-.02.86-.02.87-.03.87-.02.86-.03.87-.04.87-.04.86-.04.87-.04.86-.05.87-.05.87-.05.86-.06.87-.06.87-.07.86-.06.87-.07.87-.08.87-.07.86-.08.87-.09.87-.08.86-.09.87-.1.87-.09.86-.1.87-.1.87-.11" style="stroke-width:1.07;stroke:#000000;stroke-opacity:0.10;stroke-linecap:butt"/><path d="m247.36 325.72.87-.1.86-.11.87-.1.87-.09.87-.09.86-.09.87-.09.87-.08.86-.08.87-.08.87-.07.86-.07.87-.07.87-.07.86-.06.87-.05.87-.06.86-.05.87-.05.87-.04.86-.04.87-.04.87-.03.86-.03.87-.03.86-.03.87-.02.87-.02.86-.01.87-.01.86-.01.87-.01h1.73l.87.01h.86l.87.02.87.01.86.02.87.02.86.02.87.03.86.03.87.03.86.04.87.04.87.04.86.05.87.05.86.05.87.06.86.06.87.06.86.07.87.07.86.07.87.08.86.08.87.08.86.09.87.09.86.09.87.09.86.1.86.1.87.11.86.11.87.11.86.12.87.11.86.13.87.12.86.13.86.13.87.13.86.14.87.14.86.15.87.14.86.16.86.15.87.16.86.16.87.16.86.17.86.17.87.17.86.18.86.18.87.18.86.19.86.19.87.19.86.2.87.2.86.2.86.21.87.21.86.21" style="stroke-width:1.07;stroke:#000000;stroke-opacity:0.10;stroke-linecap:butt"/><path d="m247.36 325.72.87-.42.87-.42.87-.4.87-.4.87-.38.87-.38.87-.36.88-.36.87-.35.87-.33.87-.33.87-.32.86-.31.87-.29.87-.29.87-.28.87-.27.87-.26.87-.25.87-.24.87-.23.87-.22.87-.21.86-.2.87-.19.87-.18.87-.17.87-.16.86-.15.87-.14.87-.14.87-.12.86-.11.87-.1.87-.1.86-.08.87-.07.87-.07.87-.05.86-.05.87-.03.86-.02.87-.02h1.73l.87.01.86.03.87.03.86.05.87.05.86.06.87.07.86.09.87.09.86.1.87.11.86.12.87.14.86.14.87.15.86.16.86.17.87.18.86.19.86.2.87.21.86.22.86.23.87.23.86.25.86.26.86.27.87.28.86.28.86.3.86.31.87.31.86.33.86.34.86.34.86.36.86.36.86.38.87.38.86.4.86.4.86.42.86.42.86.44.86.44.86.45.86.47.86.47.86.48.86.49.86.5.86.52.86.52.86.53" style="stroke-width:1.07;stroke:#000000;stroke-opacity:0.10;stroke-linecap:butt"/><path d="m247.36 325.72.87-.74.88-.73.87-.71.88-.69.87-.68.88-.66.87-.65.87-.63.88-.61.87-.6.87-.58.88-.56.87-.55.87-.53.87-.52.88-.5.87-.48.87-.47.87-.45.87-.43.87-.42.87-.4.88-.39.87-.37.87-.35.87-.34.87-.32.87-.3.87-.29.86-.27.87-.26.87-.24.87-.22.87-.21.87-.19.87-.17.86-.16.87-.14.87-.13.87-.11.86-.09.87-.08.87-.06.86-.04.87-.03.87-.01h.86l.87.02.86.04.87.05.86.07.87.09.86.1.87.12.86.13.87.15.86.17.86.18.87.2.86.22.86.23.87.25.86.26.86.29.86.29.86.32.87.33.86.34.86.36.86.38.86.4.86.41.86.43.86.44.86.46.86.47.86.5.86.5.86.53.86.54.86.56.86.57.86.59.86.61.85.62.86.64.86.65.86.67.86.69.85.71.86.72.86.73.85.75.86.77.86.79.85.8.86.82.85.83.86.85" style="stroke-width:1.07;stroke:#000000;stroke-opacity:0.10;stroke-linecap:butt"/><path d="m287.77 516.77 6.46 11.18h-12.92zm36.32-373.8 1.91 3.31h-3.82zm-63.23-3.9 1.92 3.32h-3.83zM148.67 353.1l1.91 3.31h-3.82zm282.16 17.37 1.91 3.32h-3.83z" style="stroke-width:0.71;stroke:none;fill:#00BA38"/><path d="M240.6 332.48h13.52v-13.51H240.6z" style="stroke-width:0.71;stroke:none;fill:#619CFF"/><circle cx="333.02" cy="331" r="6.76" style="stroke-width:0.71;stroke:none;fill:#F8766D"/><circle cx="55.97" cy="380.26" r="1.42" style="stroke-width:0.71;stroke:none;fill:#F8766D"/><path d="M521.35 410.43h2.84v-2.84h-2.84z" style="stroke-width:0.71;stroke:none;fill:#619CFF"/><path d="m282.93 527.5 3.85-2.61m42.55-384.44-4.38 3.95m-69.43 1.49 4.46-3.85M143.55 359.91l4.26-3.83m288.27 11.87-4.39 3.96M252.8 321.12l-4.55 3.85m90.22 1.42-4.56 3.86M61.43 384.97l-4.58-3.95m461.18 29.46 3.55-1.1" style="stroke-width:0.53;stroke:#BFBFBF"/><path d="M208.96 539.77h71.81-.09l.35-.01.34-.07.32-.13.3-.17.27-.22.23-.26.19-.29.13-.32.09-.34.03-.35h0v-15.22h0l-.03-.35-.09-.33-.13-.32-.19-.3-.23-.26-.27-.22-.3-.17-.32-.12-.34-.07-.26-.02h-71.81l.26.02-.35-.02-.34.04-.34.1-.31.15-.29.2-.25.24-.21.28-.16.3-.11.33-.05.35-.01.17v15.22l.01-.17v.35l.05.34.11.33.16.31.21.27.25.25.29.19.31.15.34.1.34.04z" style="stroke-width:0.53;fill:#FFFFFF;fill-opacity:0.50"/><text x="244.86" y="527.98" lengthAdjust="spacingAndGlyphs" style="font-size:5.69px;font-family:&quot;Liberation Sans&quot;" text-anchor="middle" textLength="68.93">F STREET INVESTMENTS</text><text x="244.86" y="536.17" lengthAdjust="spacingAndGlyphs" style="font-size:5.69px;font-family:&quot;Liberation Sans&quot;" text-anchor="middle" textLength="10.31">LLC</text><path d="M317.51 140.45h38.43-.09l.35-.01.34-.07.32-.13.3-.17.27-.22.23-.26.19-.29.13-.32.09-.34.03-.35h0v-7.03h0l-.03-.34-.09-.34-.13-.32-.19-.29-.23-.26-.27-.22-.3-.18-.32-.12-.34-.07-.26-.02h-38.43l.26.02-.35-.01-.34.04-.34.09-.31.15-.29.2-.25.24-.21.28-.16.31-.11.33-.05.34-.01.17v7.03l.01-.17v.35l.05.34.11.33.16.31.21.27.25.24.29.2.31.15.34.1.34.04z" style="stroke-width:0.53;fill:#FFFFFF;fill-opacity:0.50"/><text x="336.72" y="136.85" lengthAdjust="spacingAndGlyphs" style="font-size:5.69px;font-family:&quot;Liberation Sans&quot;" text-anchor="middle" textLength="35.55">HAYDEN LLC</text><path d="M211.9 165.43h62.89-.09l.35-.02.34-.07.33-.12.3-.17.27-.22.23-.26.18-.3.14-.32.08-.33.03-.35h0v-15.22h0l-.03-.35-.08-.34-.14-.32-.18-.29-.23-.26-.27-.22-.3-.17-.33-.13-.34-.07-.26-.01H211.9l.26.01-.35-.01-.34.04-.34.1-.31.15-.29.2-.25.24-.21.27-.16.31-.11.33-.06.34v15.4-.17.34l.06.35.11.33.16.3.21.28.25.24.29.2.31.15.34.1.34.04z" style="stroke-width:0.53;fill:#FFFFFF;fill-opacity:0.50"/><text x="243.34" y="153.64" lengthAdjust="spacingAndGlyphs" style="font-size:5.69px;font-family:&quot;Liberation Sans&quot;" text-anchor="middle" textLength="60.01">HAYDEN PROPERTIES</text><text x="243.34" y="161.83" lengthAdjust="spacingAndGlyphs" style="font-size:5.69px;font-family:&quot;Liberation Sans&quot;" text-anchor="middle" textLength="10.31">LLC</text><path d="M104.93 371.26h62.54-.08l.34-.02.34-.07.33-.12.3-.17.27-.22.23-.26.19-.3.13-.32.09-.34.02-.34h0v-7.03h0l-.02-.35-.09-.33-.13-.32-.19-.3-.23-.26-.27-.22-.3-.17-.33-.12-.34-.07-.26-.02h-62.54l.26.02-.34-.02-.35.04-.33.1-.32.15-.28.2-.25.24-.21.28-.16.3-.11.33-.06.35-.01.17v7.03l.01-.18v.35l.06.35.11.32.16.31.21.28.25.24.28.2.32.15.33.09.35.05z" style="stroke-width:0.53;fill:#FFFFFF;fill-opacity:0.50"/><text x="136.2" y="367.66" lengthAdjust="spacingAndGlyphs" style="font-size:5.69px;font-family:&quot;Liberation Sans&quot;" text-anchor="middle" textLength="59.66">F STREET CRAZY LLC</text><path d="M419.76 367.95h47.38-.09l.35-.01.34-.07.33-.13.3-.17.27-.22.23-.26.18-.29.14-.32.08-.34.03-.35h0v-7.03h0l-.03-.34-.08-.34-.14-.32-.18-.29-.23-.26-.27-.22-.3-.18-.33-.12-.34-.07-.26-.02h-47.38l.26.02-.34-.01-.35.04-.33.09-.32.15-.28.2-.25.24-.21.28-.16.31-.11.33-.06.34-.01.17v7.03l.01-.17v.35l.06.34.11.33.16.31.21.27.25.24.28.2.32.15.33.1.35.04z" style="stroke-width:0.53;fill:#FFFFFF;fill-opacity:0.50"/><text x="443.45" y="364.35" lengthAdjust="spacingAndGlyphs" style="font-size:5.69px;font-family:&quot;Liberation Sans&quot;" text-anchor="middle" textLength="44.5">TIMBER164 LLC</text><path d="M238.96 321.12h61.78-.09l.35-.01.34-.07.33-.13.3-.17.27-.22.23-.26.18-.29.14-.32.08-.34.03-.35h0v-23.41h0l-.03-.35-.08-.34-.14-.32-.18-.29-.23-.26-.27-.22-.3-.17-.33-.13-.34-.07-.26-.01h-61.78l.26.01-.35-.01-.34.04-.34.1-.31.15-.29.19-.25.24-.21.28-.16.31-.11.33-.06.34v23.59-.17.35l.06.34.11.33.16.31.21.28.25.24.29.19.31.15.34.1.34.04z" style="stroke-width:0.53;fill:#FFFFFF;fill-opacity:0.50"/><text x="269.85" y="301.13" lengthAdjust="spacingAndGlyphs" style="font-size:5.69px;font-family:&quot;Liberation Sans&quot;" text-anchor="middle" textLength="56.92">1134 N 9TH ST, STE</text><text x="269.85" y="309.33" lengthAdjust="spacingAndGlyphs" style="font-size:5.69px;font-family:&quot;Liberation Sans&quot;" text-anchor="middle" textLength="58.9">200, MILWAUKEE, WI</text><text x="269.85" y="317.52" lengthAdjust="spacingAndGlyphs" style="font-size:5.69px;font-family:&quot;Liberation Sans&quot;" text-anchor="middle" textLength="18.11">53233</text><path d="M324.65 326.39h61.78-.09l.35-.01.34-.07.33-.13.3-.17.27-.22.23-.26.18-.29.14-.32.08-.34.03-.35h0v-23.41h0l-.03-.35-.08-.34-.14-.32-.18-.29-.23-.26-.27-.22-.3-.18-.33-.12-.34-.07-.26-.01h-61.78l.26.01-.35-.01-.34.04-.34.1-.31.14-.29.2-.25.24-.21.28-.16.31-.11.33-.05.34-.01.18v23.41l.01-.17v.35l.05.34.11.33.16.31.21.27.25.24.29.2.31.15.34.1.34.04z" style="stroke-width:0.53;fill:#FFFFFF;fill-opacity:0.50"/><text x="355.54" y="306.4" lengthAdjust="spacingAndGlyphs" style="font-size:5.69px;font-family:&quot;Liberation Sans&quot;" text-anchor="middle" textLength="56.92">1134 N 9TH ST, STE</text><text x="355.54" y="314.6" lengthAdjust="spacingAndGlyphs" style="font-size:5.69px;font-family:&quot;Liberation Sans&quot;" text-anchor="middle" textLength="58.9">200, MILWAUKEE, WI</text><text x="355.54" y="322.79" lengthAdjust="spacingAndGlyphs" style="font-size:5.69px;font-family:&quot;Liberation Sans&quot;" text-anchor="middle" textLength="18.11">53233</text><path d="M39.37 404.51h68.43-.08l.34-.01.34-.07.33-.13.3-.17.27-.22.23-.26.19-.29.13-.32.08-.34.03-.35h0v-15.22h0l-.03-.34-.08-.34-.13-.32-.19-.3-.23-.26-.27-.22-.3-.17-.33-.12-.34-.07-.26-.02H39.37l.26.02-.35-.02-.35.05-.33.09-.31.15-.29.2-.25.24-.21.28-.16.31-.11.32-.06.35v15.39-.17.35l.06.34.11.33.16.31.21.28.25.24.29.19.31.15.33.1.35.04z" style="stroke-width:0.53;fill:#FFFFFF;fill-opacity:0.50"/><text x="73.58" y="392.72" lengthAdjust="spacingAndGlyphs" style="font-size:5.69px;font-family:&quot;Liberation Sans&quot;" text-anchor="middle" textLength="53.76">8020 FIELDING LN,</text><text x="73.58" y="400.91" lengthAdjust="spacingAndGlyphs" style="font-size:5.69px;font-family:&quot;Liberation Sans&quot;" text-anchor="middle" textLength="65.56">GREENDALE, WI 53129</text><path d="M448.88 424.47h66.99l-.09-.01.35-.01.34-.07.32-.12.3-.18.27-.22.23-.26.19-.29.13-.32.09-.34.03-.34h0v-23.42h0l-.03-.35-.09-.33-.13-.32-.19-.3-.23-.26-.27-.22-.3-.17-.32-.13-.34-.06-.26-.02h-66.99l.26.02-.35-.02-.35.04-.33.1-.31.15-.29.2-.25.24-.21.28-.16.3-.11.33-.06.35v23.59-.18.35l.06.34.11.33.16.31.21.28.25.24.29.2.31.15.33.09.35.04z" style="stroke-width:0.53;fill:#FFFFFF;fill-opacity:0.50"/><text x="482.37" y="404.48" lengthAdjust="spacingAndGlyphs" style="font-size:5.69px;font-family:&quot;Liberation Sans&quot;" text-anchor="middle" textLength="64.11">22727 DEER MEADOW</text><text x="482.37" y="412.67" lengthAdjust="spacingAndGlyphs" style="font-size:5.69px;font-family:&quot;Liberation Sans&quot;" text-anchor="middle" textLength="61.34">DR, KANSASVILLE, WI</text><text x="482.37" y="420.87" lengthAdjust="spacingAndGlyphs" style="font-size:5.69px;font-family:&quot;Liberation Sans&quot;" text-anchor="middle" textLength="18.11">53139</text></g><g clip-path="url(#cpMC4wMHw1NzYuMDB8MC4wMHw1NzYuMDA=)"><circle cx="194.25" cy="97.06" r="1.95" style="stroke-width:0.71;stroke:none;fill:#F8766D"/><path d="m270.6 94.02 2.63 4.56h-5.27z" style="stroke-width:0.71;stroke:none;fill:#00BA38"/><path d="M336.57 99.01h3.91V95.1h-3.91z" style="stroke-width:0.71;stroke:none;fill:#619CFF"/><text x="208.37" y="100.22" lengthAdjust="spacingAndGlyphs" style="font-size:8.80px;font-weight:0;font-family:&quot;Nimbus Sans Narrow&quot;" textLength="48.11">mprop address</text><text x="284.72" y="100.22" lengthAdjust="spacingAndGlyphs" style="font-size:8.80px;font-weight:0;font-family:&quot;Nimbus Sans Narrow&quot;" textLength="39.69">owner name</text><text x="352.64" y="100.22" lengthAdjust="spacingAndGlyphs" style="font-size:8.80px;font-weight:0;font-family:&quot;Nimbus Sans Narrow&quot;" textLength="40.49">wdfi address</text><text x="32.63" y="65.35" lengthAdjust="spacingAndGlyphs" style="font-size:12.00px;font-weight:0;font-family:&quot;Nimbus Sans Narrow&quot;" textLength="246.65">includes 7 parcels, 14 units, and 5 distinct owner names.</text><text x="32.63" y="42.81" lengthAdjust="spacingAndGlyphs" style="font-size:18.00px;font-weight:0;font-family:&quot;Nimbus Sans Narrow&quot;" textLength="287.12">F STREET INVESTMENTS LLC etc Group</text></g></svg>