<svg xmlns="http://www.w3.org/2000/svg" width="768" height="768" viewBox="0 0 576 576"><g class="svglite"><defs><style><![CDATA[.svglite line,.svglite polyline,.svglite polygon,.svglite path,.svglite circle{fill:none;stroke:#000000;stroke-linecap:round;stroke-linejoin:round;stroke-miterlimit:10.00}.svglite text{white-space:pre}.svglite g.glyphgroup path{fill:inherit;stroke:none}]]></style></defs><rect width="100%" height="100%" style="stroke-linecap:round;stroke-linejoin:round;stroke-miterlimit:10.00;stroke:none;fill:#FFFFFF"/><defs><clipPath id="cpMC4wMHw1NzYuMDB8MC4wMHw1NzYuMDA="><path d="M0 0h576v576H0z"/></clipPath></defs><g clip-path="url(#cpMC4wMHw1NzYuMDB8MC4wMHw1NzYuMDA=)"><path d="M0 0h576v576H0z" style="stroke-width:1.07;stroke:none;fill:#FFFFFF"/></g><defs><clipPath id="cpMzIuNjN8NTQ2LjExfDEyMi4xNHw1NDMuMzc="><path d="M32.63 122.14h513.48v421.24H32.63z"/></clipPath></defs><g clip-path="url(#cpMzIuNjN8NTQ2LjExfDEyMi4xNHw1NDMuMzc=)"><path d="m120.04 446.55-.65-.26-.65-.25-.65-.26-.64-.26-.65-.26-.65-.26-.64-.25-.65-.26-.65-.26-.65-.26-.64-.26-.65-.25-.65-.26-.64-.26-.65-.26-.65-.26-.65-.26-.64-.25-.65-.26-.65-.26-.64-.26-.65-.26-.65-.25-.65-.26-.64-.26-.65-.26-.65-.26-.64-.26-.65-.25-.65-.26-.65-.26-.64-.26-.65-.26-.65-.25-.64-.26-.65-.26-.65-.26-.65-.26-.64-.26-.65-.25-.65-.26-.64-.26-.65-.26-.65-.26-.65-.25-.64-.26-.65-.26-.65-.26-.64-.26-.65-.25-.65-.26-.65-.26-.64-.26-.65-.26-.65-.26-.64-.25-.65-.26-.65-.26-.65-.26-.64-.26-.65-.25-.65-.26-.64-.26-.65-.26-.65-.26-.65-.26-.64-.25-.65-.26-.65-.26-.64-.26-.65-.26-.65-.25-.65-.26-.64-.26-.65-.26-.65-.26-.64-.26-.65-.25-.65-.26-.65-.26-.64-.26-.65-.26-.65-.25-.64-.26-.65-.26-.65-.26-.65-.26-.64-.25-.65-.26-.65-.26-.64-.26-.65-.26-.65-.26-.65-.25-.64-.26-.65-.26-.65-.26-.64-.26-.65-.25m64.07 25.55.62-.3.62-.31.62-.31.62-.31.62-.31.62-.31.61-.32.62-.32.61-.32.61-.33.62-.32.61-.33.6-.33.61-.33.61-.34.6-.33.61-.34.6-.34.6-.35.6-.34.6-.35.6-.35.6-.35.59-.36.6-.35.59-.36.59-.36.59-.37.59-.36.59-.37.59-.37.58-.37.59-.38.58-.37.59-.38.58-.38.58-.38.58-.39.57-.39.58-.39.57-.39.58-.39.57-.4.57-.4.57-.4.57-.4.57-.4.57-.41.56-.41.57-.41.56-.42.56-.41.56-.42.56-.42.56-.42.56-.43.55-.42.56-.43.55-.43.56-.44.55-.43.55-.44.55-.44.54-.44.55-.45.54-.44.55-.45.54-.45.54-.46.54-.45.54-.46.54-.46.54-.46.53-.46.54-.47.53-.47.53-.47.53-.47.53-.48.53-.47.53-.48.52-.48.53-.49.52-.48.53-.49.52-.49.52-.49.52-.5.51-.5.52-.5.51-.5.52-.5.51-.51.51-.5.51-.51.51-.52.51-.51.51-.52.5-.52M432.5 167.78l-.46.57-.47.57-.47.57-.47.57-.46.57-.47.57-.47.57-.46.57-.47.57-.47.57-.47.57-.46.57-.47.57-.47.57-.46.57-.47.57-.47.57-.46.57-.47.57-.47.57-.47.57-.46.57-.47.57-.47.57-.46.57-.47.57-.47.57-.47.57-.46.57-.47.57-.47.57-.46.57-.47.57-.47.57-.46.57-.47.57-.47.57-.47.57-.46.57-.47.57-.47.57-.46.57-.47.57-.47.57-.47.57-.46.57-.47.56-.47.57-.46.57-.47.57-.47.57-.46.57-.47.57-.47.57-.47.57-.46.57-.47.57-.47.57-.46.57-.47.57-.47.57-.47.57-.46.57-.47.57-.47.57-.46.57-.47.57-.47.57-.46.57-.47.57-.47.57-.47.57-.46.57-.47.57-.47.57-.46.57-.47.57-.47.57-.47.57-.46.57-.47.57-.47.57-.46.57-.47.57-.47.57-.46.57-.47.57-.47.57-.47.57-.46.57-.47.57-.47.57-.46.57-.47.57-.47.57-.47.57-.46.57-.47.56-.47.57m69.81 25.35.66.32.65.32.66.31.65.31.66.3.66.3.65.29.66.29.66.28.65.28.66.27.66.26.66.27.66.25.66.25.66.25.66.24.66.23.66.23.67.22.66.22.66.22.67.21.66.2.66.2.67.19.66.19.67.18.66.18.67.17.66.17.67.16.67.15.67.15.66.15.67.14.67.13.67.13.67.13.67.12.67.11.67.11.67.11.67.1.67.09.68.09.67.08.67.08.67.07.68.07.67.06.68.06.67.05.68.04.67.04.68.04.68.03.67.03.68.02.68.01.68.01.67.01.68-.01h.68l.68-.01.68-.02.68-.02.68-.03.68-.03.69-.04.68-.04.68-.05.68-.05.69-.06.68-.06.68-.07.69-.08.68-.08.69-.08.68-.09.69-.1.68-.1.69-.1.69-.11.69-.12.68-.12.69-.13.69-.13.69-.13.69-.15.69-.14.69-.16.69-.15.69-.17.69-.17.69-.17.7-.18.69-.18.69-.19m-172.49 42.37-.64.31-.65.31-.64.31-.64.3-.65.31-.64.31-.65.31-.64.31-.65.31-.64.3-.65.31-.64.31-.65.31-.64.31-.65.3-.64.31-.65.31-.64.31-.65.31-.64.31-.65.3-.64.31-.65.31-.64.31-.65.31-.64.3-.65.31-.64.31-.64.31-.65.31-.64.31-.65.3-.64.31-.65.31-.64.31-.65.31-.64.3-.65.31-.64.31-.65.31-.64.31-.65.31-.64.3-.65.31-.64.31-.65.31-.64.31-.65.3-.64.31-.65.31-.64.31-.65.31-.64.31-.65.3-.64.31-.64.31-.65.31-.64.31-.65.3-.64.31-.65.31-.64.31-.65.31-.64.31-.65.3-.64.31-.65.31-.64.31-.65.31-.64.31-.65.3-.64.31-.65.31-.64.31-.65.31-.64.3-.65.31-.64.31-.65.31-.64.31-.64.31-.65.3-.64.31-.65.31-.64.31-.65.31-.64.3-.65.31-.64.31-.65.31-.64.31-.65.31-.64.3-.65.31-.64.31-.65.31-.64.31-.65.3-.64.31m90.63-187.79.1.84.09.84.09.84.09.83.1.84.09.84.09.84.09.83.1.84.09.84.09.84.1.83.09.84.09.84.09.84.1.83.09.84.09.84.09.84.1.83.09.84.09.84.1.84.09.83.09.84.09.84.1.84.09.83.09.84.09.84.1.84.09.83.09.84.1.84.09.84.09.83.09.84.1.84.09.84.09.83.1.84.09.84.09.84.09.83.1.84.09.84.09.84.09.83.1.84.09.84.09.84.1.83.09.84.09.84.09.84.1.83.09.84.09.84.09.84.1.83.09.84.09.84.1.84.09.83.09.84.09.84.1.84.09.83.09.84.09.84.1.84.09.83.09.84.1.84.09.84.09.83.09.84.1.84.09.84.09.83.09.84.1.84.09.84.09.83.1.84.09.84.09.84.09.83.1.84.09.84.09.83.09.84.1.84.09.84.09.83.1.84.09.84.09.84.09.83m-35.98 74.37.37-.75.36-.75.36-.75.37-.75.36-.75.36-.76.37-.75.36-.75.37-.75.36-.75.36-.75.37-.75.36-.75.36-.75.37-.76.36-.75.36-.75.37-.75.36-.75.36-.75.37-.75.36-.75.36-.76.37-.75.36-.75.36-.75.37-.75.36-.75.36-.75.37-.75.36-.75.36-.76.37-.75.36-.75.36-.75.37-.75.36-.75.36-.75.37-.75.36-.76.36-.75.37-.75.36-.75.37-.75.36-.75.36-.75.37-.75.36-.75.36-.76.37-.75.36-.75.36-.75.37-.75.36-.75.36-.75.37-.75.36-.76.36-.75.37-.75.36-.75.36-.75.37-.75.36-.75.36-.75.37-.76.36-.75.36-.75.37-.75.36-.75.36-.75.37-.75.36-.75.36-.75.37-.76.36-.75.36-.75.37-.75.36-.75.37-.75.36-.75.36-.75.37-.76.36-.75.36-.75.37-.75.36-.75.36-.75.37-.75.36-.75.36-.75.37-.76.36-.75.36-.75.37-.75.36-.75.36-.75.37-.75.36-.75.36-.76m-35.98 74.37.38.7.38.71.37.7.38.7.37.71.38.7.37.7.38.7.37.71.38.7.37.7.38.71.37.7.38.7.38.7.37.71.38.7.37.7.38.71.37.7.38.7.37.7.38.71.37.7.38.7.38.7.37.71.38.7.37.7.38.71.37.7.38.7.37.7.38.71.37.7.38.7.38.71.37.7.38.7.37.7.38.71.37.7.38.7.37.71.38.7.37.7.38.7.38.71.37.7.38.7.37.7.38.71.37.7.38.7.37.71.38.7.37.7.38.7.38.71.37.7.38.7.37.71.38.7.37.7.38.7.37.71.38.7.37.7.38.71.37.7.38.7.38.7.37.71.38.7.37.7.38.7.37.71.38.7.37.7.38.71.37.7.38.7.38.7.37.71.38.7.37.7.38.71.37.7.38.7.37.7.38.71.37.7.38.7.38.71.37.7.38.7.37.7.38.71.37.7" style="stroke-width:1.07;stroke:#000000;stroke-opacity:0.10;stroke-linecap:butt"/><path d="m456.07 249.54.68.06.67.07.67.07.68.06.67.07.67.07.68.07.67.06.68.07.67.07.67.07.68.06.67.07.67.07.68.06.67.07.68.07.67.07.67.06.68.07.67.07.67.06.68.07.67.07.68.07.67.06.67.07.68.07.67.07.67.06.68.07.67.07.68.06.67.07.67.07.68.07.67.06.67.07.68.07.67.06.68.07.67.07.67.07.68.06.67.07.67.07.68.06.67.07.68.07.67.07.67.06.68.07.67.07.67.07.68.06.67.07.68.07.67.06.67.07.68.07.67.07.67.06.68.07.67.07.67.06.68.07.67.07.68.07.67.06.67.07.68.07.67.06.67.07.68.07.67.07.68.06.67.07.67.07.68.07.67.06.67.07.68.07.67.06.68.07.67.07.67.07.68.06.67.07.67.07.68.06.67.07.68.07.67.07.67.06.68.07.67.07.67.07.68.06.67.07M230.09 366.41l.57-.38.57-.38.57-.37.57-.38.57-.38.57-.37.57-.38.57-.38.57-.38.57-.37.57-.38.57-.38.56-.37.57-.38.57-.38.57-.38.57-.37.57-.38.57-.38.57-.37.57-.38.57-.38.57-.38.57-.37.57-.38.56-.38.57-.37.57-.38.57-.38.57-.38.57-.37.57-.38.57-.38.57-.37.57-.38.57-.38.57-.38.57-.37.56-.38.57-.38.57-.37.57-.38.57-.38.57-.38.57-.37.57-.38.57-.38.57-.37.57-.38.57-.38.57-.38.56-.37.57-.38.57-.38.57-.37.57-.38.57-.38.57-.38.57-.37.57-.38.57-.38.57-.37.57-.38.57-.38.56-.37.57-.38.57-.38.57-.38.57-.37.57-.38.57-.38.57-.37.57-.38.57-.38.57-.38.57-.37.57-.38.56-.38.57-.37.57-.38.57-.38.57-.38.57-.37.57-.38.57-.38.57-.37.57-.38.57-.38.57-.38.57-.37.56-.38.57-.38.57-.37.57-.38.57-.38.57-.38.57-.37.57-.38.57-.38m-56.36 37.34-.54.4-.55.39-.55.4-.54.4-.55.4-.55.4-.55.4-.54.39-.55.4-.55.4-.55.4-.54.4-.55.39-.55.4-.55.4-.54.4-.55.4-.55.4-.54.39-.55.4-.55.4-.55.4-.54.4-.55.39-.55.4-.55.4-.54.4-.55.4-.55.39-.54.4-.55.4-.55.4-.55.4-.54.4-.55.39-.55.4-.55.4-.54.4-.55.4-.55.39-.54.4-.55.4-.55.4-.55.4-.54.39-.55.4-.55.4-.55.4-.54.4-.55.4-.55.39-.54.4-.55.4-.55.4-.55.4-.54.39-.55.4-.55.4-.55.4-.54.4-.55.4-.55.39-.55.4-.54.4-.55.4-.55.4-.54.39-.55.4-.55.4-.55.4-.54.4-.55.39-.55.4-.55.4-.54.4-.55.4-.55.4-.54.39-.55.4-.55.4-.55.4-.54.4-.55.39-.55.4-.55.4-.54.4-.55.4-.55.39-.54.4-.55.4-.55.4-.55.4-.54.4-.55.39-.55.4-.55.4-.54.4-.55.4-.55.39m280.16-156.28-.7-.26-.71-.26-.7-.25-.71-.26-.7-.25-.71-.26-.7-.26-.71-.25-.7-.26-.71-.25-.7-.26-.71-.26-.7-.25-.71-.26-.7-.25-.71-.26-.71-.26-.7-.25-.71-.26-.7-.25-.71-.26-.7-.26-.71-.25-.7-.26-.71-.25-.7-.26-.71-.26-.7-.25-.71-.26-.7-.25-.71-.26-.7-.25-.71-.26-.7-.26-.71-.25-.7-.26-.71-.25-.7-.26-.71-.26-.7-.25-.71-.26-.7-.25-.71-.26-.7-.26-.71-.25-.7-.26-.71-.25-.7-.26-.71-.26-.7-.25-.71-.26-.7-.25-.71-.26-.71-.26-.7-.25-.71-.26-.7-.25-.71-.26-.7-.26-.71-.25-.7-.26-.71-.25-.7-.26-.71-.26-.7-.25-.71-.26-.7-.25-.71-.26-.7-.26-.71-.25-.7-.26-.71-.25-.7-.26-.71-.26-.7-.25-.71-.26-.7-.25-.71-.26-.7-.26-.71-.25-.7-.26-.71-.25-.7-.26-.71-.26-.7-.25-.71-.26-.7-.25-.71-.26-.71-.26-.7-.25-.71-.26-.7-.25-.71-.26-.7-.26-.71-.25-.7-.26-.71-.25-.7-.26-.71-.26" style="stroke-width:1.07;stroke:#000000;stroke-opacity:0.10;stroke-linecap:butt"/><path d="m456.07 249.54.7-.19.69-.19.69-.18.69-.17.69-.17.69-.16.69-.16.69-.15.69-.15.69-.14.69-.14.69-.13.69-.13.69-.12.69-.11.68-.11.69-.11.69-.1.68-.09.69-.09.68-.09.69-.08.68-.07.68-.07.69-.06.68-.06.68-.06.69-.04.68-.05.68-.03.68-.04.68-.02.68-.02.68-.02.68-.01.68-.01h1.36l.68.01.67.02.68.02.68.02.68.04.67.03.68.04.67.05.68.05.67.06.68.06.67.07.67.07.68.08.67.08.67.09.67.09.67.1.67.1.68.11.67.12.67.12.66.12.67.13.67.14.67.14.67.14.67.15.66.16.67.16.67.17.66.17.67.18.66.18.67.19.66.19.67.2.66.2.66.21.66.21.67.22.66.23.66.22.66.24.66.24.66.24.66.26.66.25.66.26.66.27.66.27.66.28.65.28.66.28.66.3.66.29.65.31.66.3.65.32.66.32.65.32M120.04 446.55l-.08.79-.09.78-.08.79-.08.78-.08.79-.08.78-.08.79-.08.78-.08.78-.08.79-.08.78-.08.79-.08.78-.08.79-.09.78-.08.79-.08.78-.08.79-.08.78-.08.78-.08.79-.08.78-.08.79-.08.78-.08.79-.08.78-.08.79-.08.78-.09.79-.08.78-.08.78-.08.79-.08.78-.08.79-.08.78-.08.79-.08.78-.08.79-.08.78-.08.79-.08.78-.09.78-.08.79-.08.78-.08.79-.08.78-.08.79-.08.78-.08.79-.08.78-.08.79-.08.78-.08.79-.08.78-.08.78-.09.79-.08.78-.08.79-.08.78-.08.79-.08.78-.08.79-.08.78-.08.79-.08.78-.08.78-.08.79-.08.78-.09.79-.08.78-.08.79-.08.78-.08.79-.08.78-.08.79-.08.78-.08.78-.08.79-.08.78-.08.79-.08.78-.08.79-.09.78-.08.79-.08.78-.08.79-.08.78-.08.79-.08.78-.08.78-.08.79-.08.78-.08.79-.08.78-.08.79-.09.78-.08.79-.08.78-.08.79m8-77.68.5-.52.51-.51.51-.52.51-.51.51-.51.51-.51.51-.5.51-.51.52-.5.52-.5.51-.49.52-.5.52-.49.52-.49.53-.49.52-.48.52-.49.53-.48.53-.48.53-.48.53-.47.53-.47.53-.47.53-.47.54-.47.53-.46.54-.47.54-.45.53-.46.55-.46.54-.45.54-.45.54-.45.55-.45.55-.44.54-.44.55-.44.55-.44.55-.44.56-.43.55-.43.55-.43.56-.43.56-.42.56-.42.55-.42.57-.42.56-.42.56-.41.57-.41.56-.41.57-.41.57-.4.56-.41.58-.4.57-.39.57-.4.57-.39.58-.4.58-.39.57-.38.58-.39.58-.38.58-.38.59-.38.58-.38.58-.37.59-.37.59-.37.59-.37.59-.37.59-.36.59-.36.59-.36.6-.35.59-.36.6-.35.6-.35.6-.35.6-.34.6-.35.6-.34.6-.34.61-.34.61-.33.6-.33.61-.33.61-.33.61-.33.62-.32.61-.32.61-.32.62-.32.62-.31.62-.32.62-.31.62-.31.62-.3.62-.31M330.4 176.39l.5.59.5.59.49.58.5.59.5.58.51.58.5.58.51.57.5.57.51.57.51.57.51.57.51.56.52.56.51.56.52.56.51.56.52.55.52.55.53.55.52.55.52.54.53.54.53.54.53.54.53.53.53.54.53.53.54.53.53.52.54.53.54.52.54.52.54.52.54.52.55.51.54.51.55.51.55.51.55.5.55.5.56.5.55.5.56.5.55.49.56.49.56.49.56.49.57.49.56.48.57.48.56.48.57.47.57.48.57.47.57.47.58.47.57.46.58.47.58.46.58.46.58.45.58.46.59.45.58.45.59.45.59.44.59.45.59.44.59.44.59.43.6.44.6.43.59.43.6.43.6.42.61.43.6.42.61.42.6.42.61.41.61.41.61.41.61.41.62.41.61.4.62.4.61.4.62.4.62.4.63.39.62.39.62.39.63.39.63.38.63.38.63.38.63.38.63.37m-55.86-47.8.64.38.63.37.63.38.63.39.63.38.62.39.63.39.62.39.62.39.62.39.62.4.62.4.62.4.61.41.62.4.61.41.61.41.61.41.61.42.6.42.61.42.6.42.6.42.61.43.59.43.6.43.6.43.59.43.6.44.59.44.59.44.59.44.59.45.59.45.58.45.59.45.58.45.58.46.58.46.58.46.57.46.58.47.57.47.58.47.57.47.57.47.57.48.56.48.57.48.56.48.57.48.56.49.56.49.56.49.55.5.56.49.55.5.56.5.55.5.55.51.55.51.54.51.55.51.54.51.55.52.54.51.54.52.54.53.54.52.53.53.54.53.53.53.53.53.53.54.53.53.53.54.52.55.53.54.52.55.52.54.53.56.51.55.52.55.52.56.51.56.52.56.51.57.51.56.51.57.51.57.5.57.51.58.5.58.5.58.5.58.5.58.5.59.5.58.49.59" style="stroke-width:1.07;stroke:#000000;stroke-opacity:0.10;stroke-linecap:butt"/><path d="m120.04 440.63 5.12 8.88h-10.25zM432.5 165.57l1.92 3.32h-3.83zm23.57 75.33 7.48 12.95h-14.96zm-105.79 50.2 6.46 11.19h-12.91zm26.8-152.03 1.92 3.32h-3.83zM230.09 364.2l1.92 3.31h-3.83zM330.4 170.47l5.13 8.88h-10.25z" style="stroke-width:0.71;stroke:none;fill:#00BA38"/><circle cx="55.97" cy="421" r="1.42" style="stroke-width:0.71;stroke:none;fill:#F8766D"/><path d="M171.12 410.62h9.59v-9.59h-9.59z" style="stroke-width:0.71;stroke:none;fill:#619CFF"/><circle cx="386.26" cy="224.19" r="6.76" style="stroke-width:0.71;stroke:none;fill:#F8766D"/><circle cx="522.77" cy="256.19" r="4.8" style="stroke-width:0.71;stroke:none;fill:#F8766D"/><circle cx="286.45" cy="329.07" r="3.81" style="stroke-width:0.71;stroke:none;fill:#F8766D"/><circle cx="387.45" cy="368.14" r="1.42" style="stroke-width:0.71;stroke:none;fill:#F8766D"/><circle cx="112.04" cy="524.23" r="1.42" style="stroke-width:0.71;stroke:none;fill:#F8766D"/><path d="m125.36 451.14-4.44-3.83m316.84-284.28-4.4 3.98m17.25 87.17 4.58-3.89m-110.06 52.92 4.3-3.87m31.91-165.41-3.71 6.41M235.22 361.79l-4.27 3.84m104.69-193.96-4.38 3.95M61.37 416.34l-4.52 3.9m113.71-9.8 4.47-3.86m205.81-186.97 4.54 3.83m131.94 37.46 4.57-3.95M392.91 363.53l-4.57 3.86M107.17 525.86l3.69-1.24" style="stroke-width:0.53;stroke:#BFBFBF"/><path d="M103.2 470.46h68.39l-.08-.01.34-.01.34-.07.33-.12.3-.18.27-.22.23-.26.19-.29.13-.32.09-.34.02-.34h0v-15h0l-.02-.34-.09-.34-.13-.32-.19-.29-.23-.26-.27-.22-.3-.18-.33-.12-.34-.07-.26-.02H103.2l.26.02-.35-.01-.34.04-.34.1-.31.14-.29.2-.25.24-.21.28-.16.31-.11.33-.06.34v15.17-.18.35l.06.34.11.33.16.31.21.28.25.24.29.2.31.15.34.09.34.04z" style="stroke-width:0.53;fill:#FFFFFF;fill-opacity:0.50"/><text x="137.4" y="458.66" lengthAdjust="spacingAndGlyphs" style="font-size:5.69px;font-family:&quot;Liberation Sans&quot;" text-anchor="middle" textLength="65.52">ORION VISTAS TWENTY</text><text x="137.4" y="466.86" lengthAdjust="spacingAndGlyphs" style="font-size:5.69px;font-family:&quot;Liberation Sans&quot;" text-anchor="middle" textLength="31.28">THREE LLC</text><path d="M412.87 163.03h64.4-.09l.35-.01.34-.07.32-.12.3-.18.27-.22.23-.26.19-.29.14-.32.08-.34.03-.35h0v-6.79h0l-.03-.35-.08-.34-.14-.32-.19-.29-.23-.26-.27-.22-.3-.17-.32-.13-.34-.07-.26-.01h-64.4l.26.01-.35-.01-.34.04-.33.1-.32.15-.28.19-.26.24-.2.28-.17.31-.11.33-.05.34-.01.18v6.79l.01-.17v.35l.05.34.11.33.17.31.2.28.26.24.28.19.32.15.33.1.34.04z" style="stroke-width:0.53;fill:#FFFFFF;fill-opacity:0.50"/><text x="445.07" y="159.43" lengthAdjust="spacingAndGlyphs" style="font-size:5.69px;font-family:&quot;Liberation Sans&quot;" text-anchor="middle" textLength="61.52">CFB PROPERTIES LLC</text><path d="M405.95 265.29h57.85-.09l.35-.01.34-.07.32-.13.31-.17.26-.22.24-.26.18-.29.14-.32.08-.34.03-.35h0v-6.79h0l-.03-.35-.08-.34-.14-.32-.18-.29-.24-.26-.26-.22-.31-.17-.32-.13-.34-.07-.26-.01h-57.85l.26.01-.35-.01-.34.04-.34.1-.31.15-.29.19-.25.24-.21.28-.16.31-.11.33-.05.34-.01.18v6.79l.01-.17v.35l.05.34.11.33.16.31.21.28.25.24.29.19.31.15.34.1.34.04z" style="stroke-width:0.53;fill:#FFFFFF;fill-opacity:0.50"/><text x="434.87" y="261.69" lengthAdjust="spacingAndGlyphs" style="font-size:5.69px;font-family:&quot;Liberation Sans&quot;" text-anchor="middle" textLength="54.97">FCD HOLDINGS LLC</text><path d="M311.31 314.32h53.11-.09l.35-.01.34-.07.33-.13.3-.17.27-.22.23-.26.18-.29.14-.32.08-.34.03-.35h0v-6.79h0l-.03-.35-.08-.34-.14-.32-.18-.29-.23-.26-.27-.22-.3-.18-.33-.12-.34-.07-.26-.01h-53.11l.26.01-.35-.01-.35.04-.33.1-.31.15-.29.19-.25.24-.21.28-.16.31-.11.33-.06.34v6.97-.17.35l.06.34.11.33.16.31.21.28.25.24.29.19.31.15.33.1.35.04z" style="stroke-width:0.53;fill:#FFFFFF;fill-opacity:0.50"/><text x="337.86" y="310.72" lengthAdjust="spacingAndGlyphs" style="font-size:5.69px;font-family:&quot;Liberation Sans&quot;" text-anchor="middle" textLength="50.23">NOTHERN PM LLC</text><path d="M383.5 136.89h58.8-.08l.34-.02.34-.07.33-.12.3-.17.27-.22.23-.26.19-.3.13-.32.08-.33.03-.35h0v-6.8h0l-.03-.34-.08-.34-.13-.32-.19-.29-.23-.26-.27-.22-.3-.18-.33-.12-.34-.07-.26-.02h-58.8l.26.02-.35-.01-.34.04-.33.09-.32.15-.29.2-.25.24-.2.28-.17.31-.11.33-.05.34-.01.17v6.8l.01-.17v.34l.05.35.11.33.17.3.2.28.25.24.29.2.32.15.33.1.34.04z" style="stroke-width:0.53;fill:#FFFFFF;fill-opacity:0.50"/><text x="412.9" y="133.29" lengthAdjust="spacingAndGlyphs" style="font-size:5.69px;font-family:&quot;Liberation Sans&quot;" text-anchor="middle" textLength="55.92">PROJECT BEAR TRT</text><path d="M213.4 361.79h58.18-.09l.35-.02.34-.06.33-.13.3-.17.27-.22.23-.26.18-.3.14-.32.08-.33.03-.35h0v-6.8h0l-.03-.34-.08-.34-.14-.32-.18-.29-.23-.26-.27-.22-.3-.18-.33-.12-.34-.07-.26-.02H213.4l.26.02-.34-.01-.35.04-.33.09-.32.15-.28.2-.25.24-.21.28-.16.31-.11.33-.06.34-.01.17v6.8l.01-.17v.34l.06.35.11.33.16.3.21.28.25.24.28.2.32.15.33.1.35.04z" style="stroke-width:0.53;fill:#FFFFFF;fill-opacity:0.50"/><text x="242.49" y="358.19" lengthAdjust="spacingAndGlyphs" style="font-size:5.69px;font-family:&quot;Liberation Sans&quot;" text-anchor="middle" textLength="55.3">CR MILWAUKEE LLC</text><path d="M313.05 171.67h59.74-.09l.35-.02.34-.07.33-.12.3-.18.27-.22.23-.26.18-.29.14-.32.08-.34.03-.34h0v-6.8h0l-.03-.35-.08-.33-.14-.32-.18-.3-.23-.26-.27-.22-.3-.17-.33-.12-.34-.07-.26-.02h-59.74l.26.02-.35-.02-.34.04-.34.1-.31.15-.29.2-.25.24-.21.28-.16.3-.11.33-.05.35-.01.17v6.8l.01-.18v.35l.05.34.11.33.16.31.21.28.25.24.29.2.31.15.34.09.34.05z" style="stroke-width:0.53;fill:#FFFFFF;fill-opacity:0.50"/><text x="342.92" y="168.07" lengthAdjust="spacingAndGlyphs" style="font-size:5.69px;font-family:&quot;Liberation Sans&quot;" text-anchor="middle" textLength="56.86">DOTI HOLDINGS LLC</text><path d="M42.47 416.34h61.87-.09l.35-.02.34-.07.33-.12.3-.18.27-.21.23-.27.18-.29.14-.32.08-.34.03-.34h0v-14.99h0l-.03-.35-.08-.34-.14-.32-.18-.29-.23-.26-.27-.22-.3-.18-.33-.12-.34-.07-.26-.01H42.47l.27.01-.35-.01-.35.04-.33.1-.32.15-.28.19-.25.24-.21.28-.16.31-.11.33-.06.34-.01.18v14.99l.01-.18v.35l.06.34.11.33.16.31.21.28.25.24.28.2.32.15.33.09.35.05z" style="stroke-width:0.53;fill:#FFFFFF;fill-opacity:0.50"/><text x="73.41" y="404.54" lengthAdjust="spacingAndGlyphs" style="font-size:5.69px;font-family:&quot;Liberation Sans&quot;" text-anchor="middle" textLength="53.7">30 GOULD ST, UNIT,</text><text x="73.41" y="412.74" lengthAdjust="spacingAndGlyphs" style="font-size:5.69px;font-family:&quot;Liberation Sans&quot;" text-anchor="middle" textLength="58.98">SHERIDAN, WY 82801</text><path d="M127.62 429.75h61.87-.09l.35-.02.34-.07.32-.12.3-.17.27-.22.23-.26.19-.3.13-.32.09-.33.03-.35h0V412.6h0l-.03-.35-.09-.34-.13-.32-.19-.29-.23-.26-.27-.22-.3-.17-.32-.13-.34-.07-.26-.01h-61.87l.26.01-.35-.01-.34.04-.33.1-.32.15-.29.19-.25.25-.2.27-.17.31-.11.33-.05.34-.01.18v14.99l.01-.18v.35l.05.35.11.33.17.3.2.28.25.24.29.2.32.15.33.09.34.05z" style="stroke-width:0.53;fill:#FFFFFF;fill-opacity:0.50"/><text x="158.55" y="417.95" lengthAdjust="spacingAndGlyphs" style="font-size:5.69px;font-family:&quot;Liberation Sans&quot;" text-anchor="middle" textLength="52.12">30 GOULD ST, STE,</text><text x="158.55" y="426.15" lengthAdjust="spacingAndGlyphs" style="font-size:5.69px;font-family:&quot;Liberation Sans&quot;" text-anchor="middle" textLength="58.98">SHERIDAN, WY 82801</text><path d="M334.36 219.61h59.12-.09l.35-.02.34-.07.32-.12.3-.17.27-.22.23-.26.19-.3.13-.32.09-.33.03-.35h0v-23.19h0l-.03-.34-.09-.34-.13-.32-.19-.29-.23-.26-.27-.22-.3-.18-.32-.12-.34-.07-.26-.02h-59.12l.26.02-.35-.01-.34.04-.33.09-.32.15-.28.2-.26.24-.2.28-.17.31-.11.33-.05.34-.01.17v23.19l.01-.17v.34l.05.35.11.33.17.3.2.28.26.24.28.2.32.15.33.1.34.04z" style="stroke-width:0.53;fill:#FFFFFF;fill-opacity:0.50"/><text x="363.92" y="199.62" lengthAdjust="spacingAndGlyphs" style="font-size:5.69px;font-family:&quot;Liberation Sans&quot;" text-anchor="middle" textLength="56.23">30 N GOULD ST, STE</text><text x="363.92" y="207.81" lengthAdjust="spacingAndGlyphs" style="font-size:5.69px;font-family:&quot;Liberation Sans&quot;" text-anchor="middle" textLength="49">R, SHERIDAN, WY</text><text x="363.92" y="216.01" lengthAdjust="spacingAndGlyphs" style="font-size:5.69px;font-family:&quot;Liberation Sans&quot;" text-anchor="middle" textLength="15.78">82801</text><path d="M475.3 280.21h60.04-.09l.35-.02.34-.07.32-.12.3-.17.27-.22.23-.26.19-.3.14-.32.08-.33.03-.35h0v-14.99h0l-.03-.35-.08-.34-.14-.32-.19-.29-.23-.26-.27-.22-.3-.17-.32-.13-.34-.07-.26-.01H475.3l.26.01-.35-.01-.34.04-.33.1-.32.15-.29.19-.25.25-.2.27-.17.31-.11.33-.05.34-.01.18v14.99l.01-.17v.34l.05.35.11.33.17.3.2.28.25.24.29.2.32.15.33.1.34.04z" style="stroke-width:0.53;fill:#FFFFFF;fill-opacity:0.50"/><text x="505.32" y="268.41" lengthAdjust="spacingAndGlyphs" style="font-size:5.69px;font-family:&quot;Liberation Sans&quot;" text-anchor="middle" textLength="57.16">23585 STATE RTE 16,</text><text x="505.32" y="276.61" lengthAdjust="spacingAndGlyphs" style="font-size:5.69px;font-family:&quot;Liberation Sans&quot;" text-anchor="middle" textLength="45.83">CAPAY, CA 95607</text><path d="M242.09 349.75h61.87-.09l.35-.02.34-.07.32-.12.3-.17.27-.22.23-.26.19-.3.14-.32.08-.33.03-.35h0V332.6h0l-.03-.35-.08-.34-.14-.31-.19-.3-.23-.26-.27-.22-.3-.17-.32-.13-.34-.07-.26-.01h-61.87l.26.01-.34-.01-.35.04-.33.1-.32.15-.28.2-.25.24-.21.27-.17.31-.11.33-.05.35-.01.17v14.99l.01-.17v.34l.05.35.11.33.17.3.21.28.25.24.28.2.32.15.33.1.35.04z" style="stroke-width:0.53;fill:#FFFFFF;fill-opacity:0.50"/><text x="273.02" y="337.96" lengthAdjust="spacingAndGlyphs" style="font-size:5.69px;font-family:&quot;Liberation Sans&quot;" text-anchor="middle" textLength="43.59">30 N GOULD ST,</text><text x="273.02" y="346.15" lengthAdjust="spacingAndGlyphs" style="font-size:5.69px;font-family:&quot;Liberation Sans&quot;" text-anchor="middle" textLength="58.98">SHERIDAN, WY 82801</text><path d="M379.54 363.53h60.58l-.09-.01.35-.01.34-.07.32-.12.31-.18.26-.22.24-.26.18-.29.14-.32.08-.34.03-.34h0v-23.19h0l-.03-.35-.08-.33-.14-.32-.18-.3-.24-.26-.26-.22-.31-.17-.32-.12-.34-.07-.26-.02h-60.58l.26.02-.35-.02-.35.04-.33.1-.31.15-.29.2-.25.24-.21.28-.16.3-.11.33-.06.35v23.36-.18.35l.06.34.11.33.16.31.21.28.25.24.29.2.31.15.33.09.35.04z" style="stroke-width:0.53;fill:#FFFFFF;fill-opacity:0.50"/><text x="409.83" y="343.54" lengthAdjust="spacingAndGlyphs" style="font-size:5.69px;font-family:&quot;Liberation Sans&quot;" text-anchor="middle" textLength="55.94">2800 E ENTERPRISE</text><text x="409.83" y="351.73" lengthAdjust="spacingAndGlyphs" style="font-size:5.69px;font-family:&quot;Liberation Sans&quot;" text-anchor="middle" textLength="34.66">AVE, STE 33,</text><text x="409.83" y="359.93" lengthAdjust="spacingAndGlyphs" style="font-size:5.69px;font-family:&quot;Liberation Sans&quot;" text-anchor="middle" textLength="57.7">APPLETON, WI 54913</text><path d="M46.01 539.77h59-.09l.35-.01.34-.07.33-.13.3-.17.27-.22.23-.26.18-.29.14-.32.08-.34.03-.35h0v-23.18h0l-.03-.35-.08-.34-.14-.32-.18-.29-.23-.26-.27-.22-.3-.17-.33-.13-.34-.07-.26-.01h-59l.26.01-.35-.01-.35.04-.33.1-.31.15-.29.19-.25.24-.21.28-.16.31-.11.33-.06.34v23.36-.17.35l.06.34.11.33.16.31.21.27.25.25.29.19.31.15.33.1.35.04z" style="stroke-width:0.53;fill:#FFFFFF;fill-opacity:0.50"/><text x="75.51" y="519.78" lengthAdjust="spacingAndGlyphs" style="font-size:5.69px;font-family:&quot;Liberation Sans&quot;" text-anchor="middle" textLength="56.12">3713 HOLLEY RIDGE</text><text x="75.51" y="527.98" lengthAdjust="spacingAndGlyphs" style="font-size:5.69px;font-family:&quot;Liberation Sans&quot;" text-anchor="middle" textLength="51.72">WA, MCKINNEY, TX</text><text x="75.51" y="536.17" lengthAdjust="spacingAndGlyphs" style="font-size:5.69px;font-family:&quot;Liberation Sans&quot;" text-anchor="middle" textLength="15.78">75701</text></g><g clip-path="url(#cpMC4wMHw1NzYuMDB8MC4wMHw1NzYuMDA=)"><circle cx="194.2" cy="97.06" r="1.95" style="stroke-width:0.71;stroke:none;fill:#F8766D"/><path d="m270.6 94.02 2.63 4.56h-5.26z" style="stroke-width:0.71;stroke:none;fill:#00BA38"/><path d="M336.6 99.01h3.91V95.1h-3.91z" style="stroke-width:0.71;stroke:none;fill:#619CFF"/><text x="208.32" y="100.22" lengthAdjust="spacingAndGlyphs" style="font-size:8.80px;font-weight:0;font-family:&quot;Nimbus Sans Narrow&quot;" textLength="48.16">mprop address</text><text x="284.72" y="100.22" lengthAdjust="spacingAndGlyphs" style="font-size:8.80px;font-weight:0;font-family:&quot;Nimbus Sans Narrow&quot;" textLength="39.72">owner name</text><text x="352.68" y="100.22" lengthAdjust="spacingAndGlyphs" style="font-size:8.80px;font-weight:0;font-family:&quot;Nimbus Sans Narrow&quot;" textLength="40.5">wdfi address</text><text x="32.63" y="65.35" lengthAdjust="spacingAndGlyphs" style="font-size:12.00px;font-weight:0;font-family:&quot;Nimbus Sans Narrow&quot;" textLength="252.11">includes 14 parcels, 26 units, and 7 distinct owner names.</text><text x="32.63" y="42.81" lengthAdjust="spacingAndGlyphs" style="font-size:18.00px;font-weight:0;font-family:&quot;Nimbus Sans Narrow&quot;" textLength="218.94">FCD HOLDINGS LLC etc Group</text></g></g></svg>