<svg xmlns="http://www.w3.org/2000/svg" width="384" height="384" class="svglite" viewBox="0 0 288 288"><defs><style><![CDATA[.svglite line,.svglite polyline,.svglite polygon,.svglite path,.svglite circle{fill:none;stroke:#000000;stroke-linecap:round;stroke-linejoin:round;stroke-miterlimit:10.00}.svglite text{white-space:pre}]]></style></defs><rect width="100%" height="100%" style="stroke-linecap:round;stroke-linejoin:round;stroke-miterlimit:10.00;stroke:none;fill:#FFFFFF"/><defs><clipPath id="cpMC4wMHwyODguMDB8MC4wMHwyODguMDA="><path d="M0 0h288v288H0z"/></clipPath></defs><g clip-path="url(#cpMC4wMHwyODguMDB8MC4wMHwyODguMDA=)"><path d="M0 0h288v288H0z" style="stroke-width:1.07;stroke:none;fill:#FFFFFF"/></g><defs><clipPath id="cpMzIuNjN8MjU4LjExfDEyMS43OHwyNTUuMzc="><path d="M32.63 121.78h225.48v133.59H32.63z"/></clipPath></defs><g clip-path="url(#cpMzIuNjN8MjU4LjExfDEyMS43OHwyNTUuMzc=)"><path d="m111.2 208.82.69-.41.69-.41.69-.41.69-.41.69-.41.69-.4.69-.41.69-.41.7-.41.69-.41.69-.41.69-.41.69-.41.69-.41.69-.4.69-.41.69-.41.69-.41.69-.41.69-.41.69-.41.69-.41.69-.41.69-.4.69-.41.69-.41.69-.41.69-.41.69-.41.69-.41.69-.41.69-.41.69-.4.69-.41.69-.41.69-.41.69-.41.69-.41.69-.41.69-.41.69-.41.69-.4.69-.41.69-.41.69-.41.69-.41.69-.41.69-.41.69-.41.69-.41.69-.41.69-.4.69-.41.69-.41.69-.41.69-.41.69-.41.69-.41.69-.41.69-.41.69-.4.7-.41.69-.41.69-.41.69-.41.69-.41.69-.41.69-.41.69-.41.69-.4.69-.41.69-.41.69-.41.69-.41.69-.41.69-.41.69-.41.69-.41.69-.4.69-.41.69-.41.69-.41.69-.41.69-.41.69-.41.69-.41.69-.41.69-.4.69-.41.69-.41.69-.41.69-.41.69-.41.69-.41.69-.41.69-.41.69-.4.69-.41.69-.41m-68.33 40.48-.69.41-.69.41-.69.41-.69.4-.69.41-.69.41-.69.41-.69.41-.69.41-.69.41-.69.41-.69.41-.69.4-.69.41-.69.41-.69.41-.69.41-.69.41-.69.41-.69.41-.69.41-.69.4-.69.41-.69.41-.69.41-.69.41-.69.41-.69.41-.69.41-.69.41-.69.4-.69.41-.69.41-.69.41-.69.41-.69.41-.69.41-.69.41-.69.41-.69.4-.69.41-.69.41-.69.41-.69.41-.69.41-.69.41-.69.41-.69.41-.69.41-.69.4-.7.41-.69.41-.69.41-.69.41-.69.41-.69.41-.69.41-.69.41-.69.4-.69.41-.69.41-.69.41-.69.41-.69.41-.69.41-.69.41-.69.41-.69.4-.69.41-.69.41-.69.41-.69.41-.69.41-.69.41-.69.41-.69.41-.69.4-.69.41-.69.41-.69.41-.69.41-.69.41-.69.41-.69.41-.69.41-.69.4-.69.41-.69.41-.69.41-.69.41-.69.41-.69.41-.69.41-.69.41-.69.4-.69.41-.69.41-.69.41-.69.41m204.98-121.44-.69.41-.69.4-.69.41-.69.41-.69.41-.69.41-.69.41-.69.41-.69.41-.69.41-.69.4-.69.41-.69.41-.69.41-.69.41-.69.41-.69.41-.69.41-.69.41-.69.4-.69.41-.69.41-.69.41-.69.41-.69.41-.69.41-.69.41-.69.41-.69.4-.69.41-.69.41-.69.41-.69.41-.69.41-.69.41-.69.41-.69.41-.7.4-.69.41-.69.41-.69.41-.69.41-.69.41-.69.41-.69.41-.69.41-.69.4-.69.41-.69.41-.69.41-.69.41-.69.41-.69.41-.69.41-.69.41-.69.4-.69.41-.69.41-.69.41-.69.41-.69.41-.69.41-.69.41-.69.41-.69.41-.69.4-.69.41-.69.41-.69.41-.69.41-.69.41-.69.41-.69.41-.69.41-.69.4-.69.41-.69.41-.69.41-.69.41-.69.41-.69.41-.69.41-.69.41-.69.4-.7.41-.69.41-.69.41-.69.41-.69.41-.69.41-.69.41-.69.41-.69.4-.69.41-.69.41-.69.41-.69.41-.69.41-.69.41" style="stroke-width:1.07;stroke:#000000;stroke-opacity:0.10;stroke-linecap:butt"/><path d="m111.2 206.61 1.92 3.31h-3.83zm136.66-80.96 1.92 3.31h-3.83z" style="stroke-width:0.71;stroke:none;fill:#00BA38"/><circle cx="179.53" cy="168.34" r="6.76" style="stroke-width:0.71;stroke:none;fill:#F8766D"/><path d="M41.46 250.72h2.84v-2.84h-2.84z" style="stroke-width:0.71;stroke:none;fill:#619CFF"/><path d="m240.67 132.32 6.19-3.84M50.09 244.91l-6.2 3.77" style="stroke-width:0.53;stroke:#BFBFBF"/><path d="M99.21 206.09h66.07l-.09-.01.35-.01.34-.07.33-.12.3-.18.27-.22.23-.26.18-.29.14-.32.08-.34.03-.34h0v-15.16h0l-.03-.35-.08-.33-.14-.32-.18-.3-.23-.26-.27-.22-.3-.17-.33-.13-.34-.07-.26-.01H99.21l.26.01-.35-.01-.35.04-.33.1-.31.15-.29.2-.25.24-.21.27-.16.31-.11.33-.06.35v15.33-.18.35l.06.34.11.33.16.31.21.28.25.24.29.2.31.15.33.09.35.04z" style="stroke-width:0.53;fill:#FFFFFF;fill-opacity:0.50"/><text x="132.24" y="194.29" lengthAdjust="spacingAndGlyphs" style="font-size:5.69px;font-family:&quot;Arial&quot;" text-anchor="middle" textLength="63.19">MELVINA INVESTMENT</text><text x="132.24" y="202.49" lengthAdjust="spacingAndGlyphs" style="font-size:5.69px;font-family:&quot;Arial&quot;" text-anchor="middle" textLength="32.85">GROUP LLC</text><path d="M194.46 151.79h57.85-.09l.35-.01.34-.07.32-.13.3-.17.27-.22.23-.26.19-.29.14-.32.08-.34.03-.35h0v-15.15h0l-.03-.35-.08-.34-.14-.32-.19-.29-.23-.26-.27-.22-.3-.17-.32-.13-.34-.07-.26-.01h-57.85l.26.01-.35-.01-.35.04-.33.1-.31.15-.29.19-.25.24-.21.28-.16.31-.11.33-.06.34v15.33-.17.35l.06.34.11.33.16.31.21.28.25.24.29.19.31.15.33.1.35.04z" style="stroke-width:0.53;fill:#FFFFFF;fill-opacity:0.50"/><text x="223.38" y="140" lengthAdjust="spacingAndGlyphs" style="font-size:5.69px;font-family:&quot;Arial&quot;" text-anchor="middle" textLength="40.13">FIFTH STREET</text><text x="223.38" y="148.19" lengthAdjust="spacingAndGlyphs" style="font-size:5.69px;font-family:&quot;Arial&quot;" text-anchor="middle" textLength="54.97">INVESTMENTS GRO</text><path d="M127.82 190.54h61.32-.09l.35-.01.34-.07.33-.13.3-.17.27-.22.23-.26.18-.3.14-.31.08-.34.03-.35h0v-15.16h0l-.03-.34-.08-.34-.14-.32-.18-.29-.23-.26-.27-.22-.3-.18-.33-.12-.34-.07-.26-.02h-61.32l.26.02-.34-.01-.35.04-.33.09-.32.15-.28.2-.25.24-.21.28-.16.31-.11.33-.06.34-.01.17v15.16l.01-.17v.34l.06.35.11.33.16.31.21.27.25.24.28.2.32.15.33.1.35.04z" style="stroke-width:0.53;fill:#FFFFFF;fill-opacity:0.50"/><text x="158.48" y="178.75" lengthAdjust="spacingAndGlyphs" style="font-size:5.69px;font-family:&quot;Arial&quot;" text-anchor="middle" textLength="58.44">961 CALLOWHILL RD,</text><text x="158.48" y="186.94" lengthAdjust="spacingAndGlyphs" style="font-size:5.69px;font-family:&quot;Arial&quot;" text-anchor="middle" textLength="56.57">PERKASIE, PA 18944</text><path d="M39.66 244.91h67.98l-.09-.01.35-.01.34-.07.32-.12.3-.18.27-.22.23-.26.19-.29.14-.32.08-.34.03-.34h0v-23.36h0l-.03-.34-.08-.34-.14-.32-.19-.29-.23-.26-.27-.22-.3-.18-.32-.12-.34-.07-.26-.02H39.66l.26.02-.34-.01-.35.04-.33.09-.32.15-.28.2-.25.24-.21.28-.16.31-.12.33-.05.34-.01.17v23.36l.01-.18v.35l.05.34.12.33.16.31.21.28.25.24.28.2.32.15.33.09.35.04z" style="stroke-width:0.53;fill:#FFFFFF;fill-opacity:0.50"/><text x="73.65" y="224.92" lengthAdjust="spacingAndGlyphs" style="font-size:5.69px;font-family:&quot;Arial&quot;" text-anchor="middle" textLength="65.1">1250 BETHLEHEM PIKE,</text><text x="73.65" y="233.11" lengthAdjust="spacingAndGlyphs" style="font-size:5.69px;font-family:&quot;Arial&quot;" text-anchor="middle" textLength="60.02">UNIT S, HATFIELD, PA</text><text x="73.65" y="241.31" lengthAdjust="spacingAndGlyphs" style="font-size:5.69px;font-family:&quot;Arial&quot;" text-anchor="middle" textLength="15.8">19440</text></g><g clip-path="url(#cpMC4wMHwyODguMDB8MC4wMHwyODguMDA=)"><circle cx="52.98" cy="96.71" r="1.95" style="stroke-width:0.71;stroke:none;fill:#F8766D"/><path d="m129.33 93.67 2.63 4.56h-5.26z" style="stroke-width:0.71;stroke:none;fill:#00BA38"/><path d="M195.31 98.66h3.91v-3.91h-3.91z" style="stroke-width:0.71;stroke:none;fill:#619CFF"/><text x="67.09" y="99.86" lengthAdjust="spacingAndGlyphs" style="font-size:8.80px;font-family:&quot;Arial Narrow&quot;" textLength="48.12">mprop address</text><text x="143.45" y="99.86" lengthAdjust="spacingAndGlyphs" style="font-size:8.80px;font-family:&quot;Arial Narrow&quot;" textLength="39.69">owner name</text><text x="211.38" y="99.86" lengthAdjust="spacingAndGlyphs" style="font-size:8.80px;font-family:&quot;Arial Narrow&quot;" textLength="40.5">wdfi address</text><text x="32.63" y="65.12" lengthAdjust="spacingAndGlyphs" style="font-size:12.00px;font-family:&quot;Arial Narrow&quot;" textLength="241.29">includes 2 parcels, 4 units, and 2 distinct owner names.</text><text x="32.63" y="42.78" lengthAdjust="spacingAndGlyphs" style="font-size:18.00px;font-weight:bold;font-family:&quot;Arial Narrow&quot;" textLength="299.28">FIFTH STREET INVESTMENTS GRO Group</text></g></svg>