<svg xmlns="http://www.w3.org/2000/svg" width="576" height="672" class="svglite" viewBox="0 0 432 504"><defs><style><![CDATA[.svglite line,.svglite polyline,.svglite polygon,.svglite path,.svglite circle{fill:none;stroke:#000000;stroke-linecap:round;stroke-linejoin:round;stroke-miterlimit:10.00}.svglite text{white-space:pre}]]></style></defs><rect width="100%" height="100%" style="stroke-linecap:round;stroke-linejoin:round;stroke-miterlimit:10.00;stroke:none;fill:#FFFFFF"/><defs><clipPath id="cpMC4wMHw0MzIuMDB8MC4wMHw1MDQuMDA="><path d="M0 0h432v504H0z"/></clipPath></defs><g clip-path="url(#cpMC4wMHw0MzIuMDB8MC4wMHw1MDQuMDA=)"><path d="M0 0h432v504H0z" style="stroke-width:1.07;stroke:none;fill:#FFFFFF"/></g><defs><clipPath id="cpMzIuNjN8NDAyLjExfDE0MC4zMHw0NzEuMzc="><path d="M32.63 140.3h369.48v331.07H32.63z"/></clipPath></defs><g clip-path="url(#cpMzIuNjN8NDAyLjExfDE0MC4zMHw0NzEuMzc=)"><path d="m118.41 362.24.37-1.05.36-1.05.36-1.05.36-1.05.36-1.05.37-1.05.36-1.05.36-1.05.36-1.04.36-1.05.37-1.05.36-1.05.36-1.05.36-1.05.36-1.05.37-1.05.36-1.05.36-1.04.36-1.05.36-1.05.37-1.05.36-1.05.36-1.05.36-1.05.36-1.05.37-1.05.36-1.04.36-1.05.36-1.05.36-1.05.37-1.05.36-1.05.36-1.05.36-1.05.36-1.05.36-1.04.37-1.05.36-1.05.36-1.05.36-1.05.36-1.05.37-1.05.36-1.05.36-1.04.36-1.05.36-1.05.37-1.05.36-1.05.36-1.05.36-1.05.36-1.05.37-1.05.36-1.04.36-1.05.36-1.05.36-1.05.37-1.05.36-1.05.36-1.05.36-1.05.36-1.05.37-1.04.36-1.05.36-1.05.36-1.05.36-1.05.37-1.05.36-1.05.36-1.05.36-1.05.36-1.04.36-1.05.37-1.05.36-1.05.36-1.05.36-1.05.36-1.05.37-1.05.36-1.05.36-1.04.36-1.05.36-1.05.37-1.05.36-1.05.36-1.05.36-1.05.36-1.05.37-1.05.36-1.04.36-1.05.36-1.05.36-1.05.37-1.05.36-1.05.36-1.05.36-1.05.36-1.05.37-1.04.36-1.05m-35.84 103.84-.41.95-.41.95-.42.95-.41.95-.42.95-.41.95-.42.95-.41.95-.42.95-.41.95-.41.95-.42.95-.41.95-.42.95-.41.95-.42.95-.41.95-.42.95-.41.95-.42.95-.41.95-.41.95-.42.95-.41.95-.42.96-.41.95-.42.95-.41.95-.42.95-.41.95-.42.95-.41.95-.41.95-.42.95-.41.95-.42.95-.41.95-.42.95-.41.95-.42.95-.41.95-.42.95-.41.95-.41.95-.42.95-.41.95-.42.95-.41.95-.42.95-.41.95-.42.96-.41.95-.42.95-.41.95-.41.95-.42.95-.41.95-.42.95-.41.95-.42.95-.41.95-.42.95-.41.95-.42.95-.41.95-.41.95-.42.95-.41.95-.42.95-.41.95-.42.95-.41.95-.42.95-.41.95-.42.95-.41.95-.41.96-.42.95-.41.95-.42.95-.41.95-.42.95-.41.95-.42.95-.41.95-.42.95-.41.95-.41.95-.42.95-.41.95-.42.95-.41.95-.42.95-.41.95-.42.95-.41.95-.41.95-.42.95-.41.95" style="stroke-width:1.07;stroke:#000000;stroke-opacity:0.10;stroke-linecap:butt"/><path d="m274.48 249.83-1.25-.29-1.24-.28-1.25-.27-1.25-.27-1.24-.26-1.24-.25-1.25-.24-1.24-.23-1.24-.23-1.24-.22-1.24-.21-1.24-.21-1.24-.19-1.24-.19-1.24-.19-1.24-.17-1.23-.17-1.24-.15-1.23-.15-1.24-.15-1.23-.13-1.24-.13-1.23-.12-1.23-.11-1.23-.11-1.23-.1-1.23-.09-1.23-.08-1.23-.07-1.23-.07-1.23-.06-1.22-.05-1.23-.04-1.22-.04-1.23-.03-1.22-.02-1.23-.01-1.22-.01-1.22.01-1.22.01-1.22.01-1.22.03-1.22.03-1.22.04-1.22.05-1.21.06-1.22.06-1.22.07-1.21.08-1.22.09-1.21.09-1.21.1-1.21.11-1.22.12-1.21.12-1.21.14-1.21.14-1.21.14-1.21.16-1.2.16-1.21.17-1.21.18-1.2.19-1.21.19-1.2.2-1.21.21-1.2.22-1.2.22-1.2.24-1.2.24-1.2.24-1.2.26-1.2.26-1.2.27-1.2.28-1.2.28-1.19.3-1.2.3-1.19.31-1.2.31-1.19.33-1.19.33-1.2.34-1.19.34-1.19.36-1.19.36-1.19.37-1.19.38-1.19.38-1.18.4-1.19.4-1.19.41-1.18.41-1.19.42-1.18.44-1.19.43-1.18.45-1.18.46-1.18.46" style="stroke-width:1.07;stroke:#000000;stroke-opacity:0.10;stroke-linecap:butt"/><path d="m274.48 249.83-1.24-.2-1.24-.2-1.24-.2-1.24-.18-1.23-.19-1.24-.17-1.24-.17-1.24-.16-1.23-.16-1.24-.15-1.23-.15-1.24-.14-1.23-.13-1.23-.13-1.24-.12-1.23-.12-1.23-.11-1.23-.1-1.23-.1-1.23-.09-1.23-.09-1.23-.08-1.23-.07-1.23-.07-1.22-.07-1.23-.05-1.23-.05-1.22-.05-1.23-.04-1.22-.03-1.23-.02-1.22-.02-1.23-.02-1.22-.01h-2.44l-1.22.01-1.22.02-1.22.02-1.22.02-1.22.04-1.22.04-1.22.04-1.22.05-1.22.06-1.21.06-1.22.07-1.21.07-1.22.08-1.21.09-1.22.09-1.21.1-1.21.11-1.22.11-1.21.11-1.21.13-1.21.12-1.21.14-1.21.14-1.21.14-1.21.16-1.21.15-1.2.17-1.21.17-1.21.17-1.2.19-1.21.18-1.2.2-1.21.2-1.2.2-1.21.21-1.2.22-1.2.23-1.2.22-1.21.24-1.2.24-1.2.25-1.2.25-1.2.26-1.19.27-1.2.27-1.2.27-1.2.29-1.19.29-1.2.29-1.2.3-1.19.31-1.2.31-1.19.32-1.19.33-1.2.33-1.19.33-1.19.35-1.19.34-1.19.36-1.19.36-1.19.37-1.19.37-1.19.38" style="stroke-width:1.07;stroke:#000000;stroke-opacity:0.10;stroke-linecap:butt"/><path d="m274.48 249.83-1.23-.12-1.23-.12-1.24-.11-1.23-.11-1.23-.11-1.23-.1-1.23-.09-1.23-.1-1.23-.08-1.23-.09-1.23-.08-1.23-.07-1.23-.07-1.22-.07-1.23-.06-1.23-.06-1.23-.05-1.22-.05-1.23-.05-1.22-.04-1.23-.04-1.22-.03-1.23-.03-1.22-.02-1.23-.02-1.22-.02-1.22-.01h-1.23l-1.22-.01h-1.22l-1.22.01-1.22.01-1.22.01-1.22.02-1.22.02-1.22.03-1.22.03-1.22.04-1.22.04-1.22.04-1.22.05-1.21.05-1.22.06-1.22.06-1.21.07-1.22.07-1.22.07-1.21.08-1.22.08-1.21.09-1.21.09-1.22.09-1.21.1-1.21.1-1.22.11-1.21.11-1.21.12-1.21.12-1.21.13-1.21.13-1.21.13-1.21.14-1.21.14-1.21.14-1.21.15-1.21.16-1.21.16-1.21.16-1.2.17-1.21.17-1.21.18-1.2.18-1.21.18-1.21.19-1.2.19-1.21.2-1.2.2-1.2.21-1.21.21-1.2.21-1.2.22-1.21.22-1.2.23-1.2.23-1.2.23-1.2.24-1.2.25-1.2.25-1.2.25-1.2.26-1.2.26-1.2.26-1.2.27-1.2.27-1.2.28-1.19.28-1.2.29-1.2.29-1.19.3" style="stroke-width:1.07;stroke:#000000;stroke-opacity:0.10;stroke-linecap:butt"/><path d="m274.48 249.83-1.23-.04-1.22-.03-1.23-.04-1.22-.03-1.22-.03-1.23-.02-1.22-.03-1.23-.02-1.22-.01-1.22-.02-1.23-.01-1.22-.01-1.22-.01-1.23-.01h-3.66l-1.22.01-1.22.01-1.23.01-1.22.01-1.22.01-1.22.02-1.22.02-1.22.02-1.22.03-1.22.03-1.22.03-1.22.03-1.22.03-1.21.04-1.22.04-1.22.05-1.22.04-1.22.05-1.21.05-1.22.05-1.22.06-1.22.06-1.21.06-1.22.06-1.22.07-1.21.07-1.22.07-1.21.07-1.22.08-1.21.08-1.22.08-1.21.08-1.22.09-1.21.09-1.22.09-1.21.1-1.21.09-1.22.1-1.21.1-1.21.11-1.22.1-1.21.11-1.21.12-1.21.11-1.21.12-1.22.12-1.21.12-1.21.12-1.21.13-1.21.13-1.21.13-1.21.14-1.21.14-1.21.14-1.21.14-1.21.15-1.21.14-1.21.15-1.21.16-1.2.15-1.21.16-1.21.16-1.21.16-1.21.17-1.2.17-1.21.17-1.21.17-1.2.18-1.21.18-1.21.18-1.2.18-1.21.19-1.2.18-1.21.2-1.2.19-1.21.2-1.2.19-1.21.21-1.2.2-1.21.21-1.2.21-1.2.21" style="stroke-width:1.07;stroke:#000000;stroke-opacity:0.10;stroke-linecap:butt"/><path d="m274.48 249.83-1.22.05-1.22.04-1.21.05-1.22.05-1.22.04-1.22.05-1.22.05-1.21.05-1.22.06-1.22.05-1.22.05-1.21.06-1.22.05-1.22.06-1.21.05-1.22.06-1.22.06-1.21.06-1.22.06-1.22.06-1.21.06-1.22.06-1.22.07-1.21.06-1.22.07-1.22.06-1.21.07-1.22.07-1.22.07-1.21.07-1.22.07-1.21.07-1.22.07-1.21.07-1.22.08-1.22.07-1.21.08-1.22.07-1.21.08-1.22.08-1.21.08-1.22.08-1.21.08-1.22.08-1.21.08-1.22.08-1.21.09-1.22.08-1.21.09-1.21.09-1.22.08-1.21.09-1.22.09-1.21.09-1.22.09-1.21.09-1.21.09-1.22.1-1.21.09-1.22.1-1.21.09-1.21.1-1.22.1-1.21.1-1.21.1-1.22.1-1.21.1-1.21.1-1.22.1-1.21.1-1.21.11-1.21.1-1.22.11-1.21.11-1.21.1-1.22.11-1.21.11-1.21.11-1.21.11-1.21.12-1.22.11-1.21.11-1.21.12-1.21.11-1.21.12-1.22.12-1.21.11-1.21.12-1.21.12-1.21.12-1.21.13-1.22.12-1.21.12-1.21.12-1.21.13-1.21.12-1.21.13-1.21.13-1.21.13m120.23-8.57-1.21.13-1.21.13-1.21.12-1.21.13-1.21.12-1.22.13-1.21.12-1.21.12-1.21.12-1.21.13-1.21.11-1.21.12-1.22.12-1.21.12-1.21.12-1.21.11-1.21.12-1.22.11-1.21.11-1.21.11-1.21.12-1.22.11-1.21.1-1.21.11-1.21.11-1.22.11-1.21.1-1.21.11-1.21.1-1.22.11-1.21.1-1.21.1-1.22.1-1.21.1-1.21.1-1.22.1-1.21.1-1.21.1-1.22.09-1.21.1-1.21.09-1.22.09-1.21.1-1.22.09-1.21.09-1.21.09-1.22.09-1.21.09-1.22.08-1.21.09-1.22.09-1.21.08-1.22.08-1.21.09-1.22.08-1.21.08-1.22.08-1.21.08-1.22.08-1.21.08-1.22.08-1.21.07-1.22.08-1.21.07-1.22.08-1.21.07-1.22.07-1.22.07-1.21.07-1.22.07-1.21.07-1.22.07-1.22.06-1.21.07-1.22.07-1.21.06-1.22.06-1.22.07-1.21.06-1.22.06-1.22.06-1.21.06-1.22.06-1.22.06-1.22.05-1.21.06-1.22.05-1.22.06-1.21.05-1.22.05-1.22.05-1.22.06-1.22.05-1.21.04-1.22.05-1.22.05-1.22.05-1.21.04-1.22.05" style="stroke-width:1.07;stroke:#000000;stroke-opacity:0.10;stroke-linecap:butt"/><path d="m274.48 249.83-1.2.21-1.21.21-1.2.21-1.21.2-1.2.2-1.2.2-1.21.2-1.2.19-1.21.19-1.21.19-1.2.19-1.21.18-1.2.18-1.21.18-1.21.18-1.2.17-1.21.17-1.21.17-1.2.17-1.21.16-1.21.16-1.21.16-1.21.15-1.21.16-1.2.15-1.21.14-1.21.15-1.21.14-1.21.14-1.21.14-1.21.13-1.21.14-1.21.13-1.21.12-1.22.13-1.21.12-1.21.12-1.21.12-1.21.11-1.21.11-1.22.11-1.21.11-1.21.11-1.22.1-1.21.1-1.21.09-1.22.1-1.21.09-1.22.09-1.21.08-1.21.09-1.22.08-1.21.08-1.22.07-1.22.08-1.21.07-1.22.07-1.21.06-1.22.07-1.22.06-1.21.06-1.22.05-1.22.06-1.22.05-1.21.05-1.22.04-1.22.04-1.22.05-1.22.03-1.22.04-1.22.03-1.21.03-1.22.03-1.22.03-1.22.02-1.22.02-1.22.02-1.23.01-1.22.01-1.22.01-1.22.01-1.22.01h-2.44l-1.23-.01h-1.22l-1.22-.01-1.23-.01-1.22-.01-1.22-.02-1.23-.02-1.22-.02-1.22-.02-1.23-.03-1.22-.02-1.23-.03-1.22-.04-1.23-.03-1.22-.04" style="stroke-width:1.07;stroke:#000000;stroke-opacity:0.10;stroke-linecap:butt"/><path d="m274.48 249.83-1.2.3-1.19.29-1.2.28-1.2.29-1.19.27-1.2.28-1.2.27-1.2.26-1.2.26-1.2.26-1.2.25-1.2.25-1.2.24-1.2.24-1.2.24-1.2.23-1.21.23-1.2.22-1.2.22-1.2.21-1.21.21-1.2.21-1.21.2-1.2.2-1.21.19-1.2.19-1.21.18-1.2.18-1.21.18-1.21.17-1.21.17-1.2.16-1.21.16-1.21.15-1.21.15-1.21.15-1.21.14-1.21.14-1.21.13-1.21.13-1.21.13-1.21.12-1.21.11-1.22.12-1.21.1-1.21.11-1.21.1-1.22.09-1.21.09-1.22.09-1.21.08-1.22.08-1.21.07-1.22.07-1.21.07-1.22.06-1.22.06-1.22.05-1.21.05-1.22.04-1.22.04-1.22.04-1.22.03-1.22.02-1.22.03-1.22.01-1.22.02-1.22.01h-1.22l-1.22.01-1.23-.01h-1.22l-1.22-.02-1.23-.01-1.22-.02-1.22-.02-1.23-.03-1.22-.04-1.23-.03-1.22-.04-1.23-.05-1.23-.05-1.22-.05-1.23-.06-1.23-.06-1.23-.07-1.22-.07-1.23-.08-1.23-.08-1.23-.08-1.23-.09-1.23-.09-1.23-.1-1.23-.1-1.23-.1-1.24-.11-1.23-.11-1.23-.12-1.23-.12m-30.02-103.05.26 1.05.26 1.05.26 1.05.26 1.06.26 1.05.27 1.05.26 1.05.27 1.05.26 1.05.27 1.04.27 1.05.27 1.05.27 1.05.27 1.05.27 1.05.28 1.05.27 1.04.27 1.05.28 1.05.27 1.05.28 1.04.28 1.05.28 1.05.28 1.04.28 1.05.28 1.05.28 1.04.29 1.05.28 1.04.29 1.05.28 1.04.29 1.05.29 1.04.29 1.05.29 1.04.29 1.04.29 1.05.29 1.04.3 1.04.29 1.05.29 1.04.3 1.04.3 1.04.3 1.05.29 1.04.3 1.04.3 1.04.31 1.04.3 1.04.3 1.04.31 1.05.3 1.04.31 1.04.3 1.04.31 1.04.31 1.04.31 1.03.31 1.04.31 1.04.31 1.04.32 1.04.31 1.04.31 1.04.32 1.03.32 1.04.31 1.04.32 1.04.32 1.03.32 1.04.32 1.04.33 1.03.32 1.04.32 1.04.33 1.03.32 1.04.33 1.03.33 1.04.33 1.03.32 1.04.33 1.03.34 1.04.33 1.03.33 1.03.33 1.04.34 1.03.33 1.03.34 1.04.34 1.03.34 1.03.34 1.04.34 1.03.34 1.03.34 1.03.34 1.03.34 1.03.35 1.04.34 1.03.35 1.03.35 1.03m-30.02-103.05-.78.52-.78.52-.78.52-.77.52-.78.52-.78.52-.77.52-.78.52-.77.53-.78.52-.77.52-.77.53-.78.52-.77.53-.77.52-.77.53-.77.52-.77.53-.77.53-.77.53-.77.53-.77.53-.77.53-.77.53-.77.53-.76.53-.77.53-.76.53-.77.54-.76.53-.77.53-.76.54-.77.53-.76.54-.76.54-.77.53-.76.54-.76.54-.76.54-.76.54-.76.54-.76.54-.76.54-.76.54-.75.54-.76.54-.76.54-.75.55-.76.54-.76.54-.75.55-.76.54-.75.55-.75.55-.76.54-.75.55-.75.55-.75.55-.76.55-.75.55-.75.55-.75.55-.75.55-.75.55-.74.55-.75.55-.75.56-.75.55-.74.56-.75.55-.75.56-.74.55-.75.56-.74.55-.74.56-.75.56-.74.56-.74.56-.75.56-.74.56-.74.56-.74.56-.74.56-.74.56-.74.57-.74.56-.73.56-.74.57-.74.56-.74.57-.73.56-.74.57-.73.57-.74.56-.73.57-.74.57-.73.57-.73.57-.74.57" style="stroke-width:1.07;stroke:#000000;stroke-opacity:0.10;stroke-linecap:butt"/><path d="m274.48 249.83-1.19.38-1.19.37-1.19.37-1.19.36-1.19.35-1.19.35-1.19.34-1.2.34-1.19.33-1.19.33-1.2.32-1.19.31-1.2.31-1.19.3-1.2.29-1.19.29-1.2.28-1.2.28-1.2.27-1.2.27-1.2.26-1.2.25-1.2.25-1.2.24-1.2.23-1.2.23-1.2.23-1.21.21-1.2.22-1.2.2-1.21.2-1.2.19-1.21.19-1.21.18-1.2.18-1.21.17-1.21.16-1.2.16-1.21.15-1.21.15-1.21.14-1.21.13-1.21.13-1.22.13-1.21.11-1.21.11-1.21.11-1.22.09-1.21.1-1.21.08-1.22.08-1.21.08-1.22.07-1.22.06-1.21.06-1.22.05-1.22.04-1.22.04-1.22.03-1.22.03-1.22.02-1.22.02-1.22.01h-2.44l-1.23-.01-1.22-.02-1.22-.02-1.23-.02-1.22-.04-1.23-.04-1.22-.04-1.23-.05-1.23-.06-1.23-.06-1.22-.07-1.23-.07-1.23-.08-1.23-.09-1.23-.09-1.23-.1-1.23-.1-1.23-.11-1.24-.12-1.23-.12-1.23-.13-1.24-.13-1.23-.14-1.24-.15-1.23-.15-1.24-.16-1.23-.16-1.24-.17-1.24-.18-1.24-.18-1.23-.18-1.24-.2-1.24-.2-1.24-.2m120.23-8.57 1.12-.15 1.12-.16 1.12-.15 1.12-.16 1.12-.15 1.12-.16 1.12-.15 1.12-.16 1.12-.15 1.12-.15 1.12-.16 1.11-.15 1.12-.16 1.12-.15 1.12-.16 1.12-.15 1.12-.16 1.12-.15 1.12-.15 1.12-.16 1.12-.15 1.12-.16 1.12-.15 1.12-.16 1.12-.15 1.12-.16 1.12-.15 1.12-.16 1.12-.15 1.12-.15 1.12-.16 1.12-.15 1.12-.16 1.12-.15 1.12-.16 1.11-.15 1.12-.16 1.12-.15 1.12-.16 1.12-.15 1.12-.15 1.12-.16 1.12-.15 1.12-.16 1.12-.15 1.12-.16 1.12-.15 1.12-.16 1.12-.15 1.12-.16 1.12-.15 1.12-.15 1.12-.16 1.12-.15 1.12-.16 1.12-.15 1.12-.16 1.12-.15 1.11-.16 1.12-.15 1.12-.16 1.12-.15 1.12-.15 1.12-.16 1.12-.15 1.12-.16 1.12-.15 1.12-.16 1.12-.15 1.12-.16 1.12-.15 1.12-.16 1.12-.15 1.12-.15 1.12-.16 1.12-.15 1.12-.16 1.12-.15 1.12-.16 1.12-.15 1.12-.16 1.11-.15 1.12-.16 1.12-.15 1.12-.15 1.12-.16 1.12-.15 1.12-.16 1.12-.15 1.12-.16 1.12-.15 1.12-.16 1.12-.15 1.12-.16 1.12-.15 1.12-.15 1.12-.16 1.12-.15 1.12-.16" style="stroke-width:1.07;stroke:#000000;stroke-opacity:0.10;stroke-linecap:butt"/><path d="m274.48 249.83-1.18.46-1.18.46-1.19.44-1.18.44-1.18.43-1.19.43-1.19.41-1.18.41-1.19.4-1.19.39-1.18.39-1.19.38-1.19.37-1.19.36-1.19.35-1.2.35-1.19.34-1.19.33-1.19.33-1.2.31-1.19.31-1.2.3-1.2.29-1.19.29-1.2.28-1.2.27-1.2.26-1.2.26-1.2.24-1.2.24-1.2.23-1.2.23-1.21.22-1.2.2-1.2.21-1.21.19-1.21.19-1.2.17-1.21.18-1.21.16-1.21.15-1.2.15-1.21.14-1.21.13-1.22.13-1.21.12-1.21.11-1.21.1-1.22.09-1.21.09-1.22.08-1.21.07-1.22.06-1.22.06-1.21.05-1.22.04-1.22.03-1.22.02-1.22.02-1.22.01h-2.45l-1.22-.01-1.22-.02-1.23-.03-1.22-.04-1.23-.04-1.23-.05-1.22-.06-1.23-.07-1.23-.07-1.23-.09-1.23-.09-1.23-.09-1.23-.11-1.23-.11-1.24-.12-1.23-.13-1.23-.13-1.24-.15-1.23-.15-1.24-.16-1.24-.16-1.23-.18-1.24-.18-1.24-.19-1.24-.19-1.24-.21-1.24-.21-1.24-.22-1.24-.23-1.25-.23-1.24-.25-1.24-.25-1.25-.25-1.24-.27-1.25-.27-1.25-.28-1.24-.29" style="stroke-width:1.07;stroke:#000000;stroke-opacity:0.10;stroke-linecap:butt"/><path d="m124.23 155.35.35 1.03.34 1.03.35 1.03.34 1.03.35 1.04.34 1.03.34 1.03.34 1.03.34 1.03.34 1.04.34 1.03.34 1.03.33 1.03.34 1.04.33 1.03.34 1.03.33 1.04.33 1.03.33 1.04.33 1.03.33 1.04.33 1.03.33 1.04.32 1.03.33 1.04.32 1.03.33 1.04.32 1.03.32 1.04.32 1.04.32 1.03.32 1.04.32 1.04.32 1.04.32 1.03.31 1.04.32 1.04.31 1.04.31 1.04.32 1.04.31 1.03.31 1.04.31 1.04.31 1.04.3 1.04.31 1.04.31 1.04.3 1.04.31 1.04.3 1.04.3 1.05.3 1.04.3 1.04.3 1.04.3 1.04.3 1.04.3 1.05.29 1.04.3 1.04.29 1.04.29 1.05.3 1.04.29 1.04.29 1.05.29 1.04.29 1.05.29 1.04.28 1.05.29 1.04.28 1.05.29 1.04.28 1.05.28 1.04.29 1.05.28 1.05.28 1.04.28 1.05.27 1.04.28 1.05.28 1.05.27 1.05.28 1.04.27 1.05.27 1.05.28 1.05.27 1.05.27 1.05.27 1.04.26 1.05.27 1.05.27 1.05.26 1.05.27 1.05.26 1.05.26 1.05.27 1.05.26 1.05.26 1.06.26 1.05m-30.02-103.05-.73.57-.74.57-.73.57-.73.57-.74.57-.73.56-.74.57-.74.57-.73.56-.74.57-.74.56-.73.57-.74.56-.74.57-.74.56-.74.56-.74.56-.74.56-.74.56-.74.56-.74.56-.75.56-.74.56-.74.56-.75.56-.74.55-.75.56-.74.56-.75.55-.74.56-.75.55-.75.55-.75.56-.74.55-.75.55-.75.55-.75.56-.75.55-.75.55-.75.55-.75.54-.76.55-.75.55-.75.55-.75.54-.76.55-.75.55-.76.54-.75.55-.76.54-.75.55-.76.54-.76.54-.75.54-.76.54-.76.55-.76.54-.76.54-.76.54-.76.53-.76.54-.76.54-.76.54-.77.54-.76.53-.76.54-.76.53-.77.54-.76.53-.77.53-.76.54-.77.53-.77.53-.76.53-.77.54-.77.53-.77.53-.77.52-.76.53-.77.53-.77.53-.78.53-.77.52-.77.53-.77.53-.77.52-.78.53-.77.52-.77.52-.78.53-.77.52-.78.52-.77.52-.78.52-.78.52-.77.52-.78.52-.78.52-.78.52" style="stroke-width:1.07;stroke:#000000;stroke-opacity:0.10;stroke-linecap:butt"/><path d="m49.42 209.23.81.93.81.93.82.91.82.91.83.9.83.88.84.88.84.87.85.87.86.85.85.84.87.84.87.82.87.82.88.81.88.8.89.79.9.78.9.77.9.77.91.75.92.75.92.73.92.73.93.72.94.71.94.7.95.69.95.69.95.67.96.67.97.66.97.64.98.64.98.63.99.62.99.62 1 .6 1 .59 1.01.59 1.01.58 1.02.56 1.02.56 1.03.55 1.03.54 1.04.54 1.04.52 1.05.51 1.05.51 1.06.5 1.07.48 1.07.48 1.07.47 1.08.46 1.08.46 1.09.44 1.1.43 1.1.43 1.1.42 1.11.4 1.12.4 1.12.39 1.13.38 1.13.37 1.13.37 1.14.35 1.15.35 1.15.33 1.16.33 1.16.32 1.17.31 1.17.3 1.17.29 1.19.29 1.18.27 1.2.26 1.19.26 1.21.25 1.2.24 1.22.23 1.21.22 1.23.21 1.23.2 1.23.2 1.24.18 1.24.18 1.25.16 1.25.16 1.26.15 1.27.14 1.27.13 1.27.13 1.28.11 1.29.11 1.29.09 1.29.09 1.3.08 1.31.07 1.31.06" style="stroke-width:1.07;stroke:#000000;stroke-opacity:0.10;stroke-linecap:butt"/><path d="m49.42 209.23.85.86.85.85.86.85.86.84.87.83.87.82.88.82.88.8.88.8.89.8.89.78.89.78.9.77.91.77.91.75.91.75.92.74.92.74.93.72.93.72.93.72.94.7.95.7.94.69.95.68.96.67.96.67.97.66.96.65.98.65.98.63.98.63.98.63.99.61 1 .61 1 .6 1 .59 1.01.59 1.01.58 1.02.57 1.02.56 1.02.56 1.03.55 1.03.54 1.04.53 1.04.53 1.05.52 1.05.51 1.05.5 1.06.5 1.06.49 1.07.48 1.07.47 1.08.47 1.08.46 1.08.45 1.09.45 1.1.44 1.09.43 1.11.42 1.1.41 1.11.41 1.12.4 1.11.39 1.13.39 1.13.38 1.13.37 1.13.36 1.14.36 1.15.34 1.15.34 1.15.34 1.16.32 1.16.32 1.16.31 1.17.31 1.18.29 1.18.29 1.18.28 1.19.28 1.19.27 1.19.25 1.2.26 1.21.24 1.21.24 1.21.23 1.22.22 1.22.21 1.22.21 1.23.2 1.24.19 1.24.19 1.24.18 1.25.17 1.25.16 1.25.16 1.26.14 1.27.14 1.27.14" style="stroke-width:1.07;stroke:#000000;stroke-opacity:0.10;stroke-linecap:butt"/><path d="m49.42 209.23.89.79.9.78.9.77.9.77.9.77.91.76.91.75.92.74.92.74.92.74.92.73.93.72.93.71.94.71.94.71.94.7.95.69.95.69.95.68.95.67.96.67.97.66.96.66.97.65.98.65.97.63.98.64.99.62.98.63.99.61 1 .61.99.6 1.01.6 1 .59 1.01.59 1.01.58 1.01.57 1.02.57 1.02.56 1.03.56 1.02.55 1.04.54 1.03.54 1.04.53 1.04.53 1.05.52 1.04.51 1.06.51 1.05.51 1.06.49 1.06.49 1.07.49 1.07.48 1.07.47 1.08.47 1.08.46 1.08.45 1.08.45 1.09.44 1.1.44 1.09.43 1.1.43 1.11.42 1.1.41 1.11.41 1.12.4 1.11.4 1.12.39 1.13.38 1.13.38 1.13.37 1.13.37 1.14.36 1.14.35 1.14.35 1.15.34 1.15.34 1.16.33 1.16.32 1.16.32 1.16.31 1.17.31 1.17.3 1.18.3 1.18.29 1.18.28 1.18.28 1.19.27 1.2.26 1.19.26 1.2.25 1.2.25 1.21.24 1.21.24 1.21.23 1.22.22 1.22.22 1.22.21 1.23.21" style="stroke-width:1.07;stroke:#000000;stroke-opacity:0.10;stroke-linecap:butt"/><path d="m49.42 209.23.94.71.93.72.94.7.94.7.94.7.95.69.95.69.95.68.95.68.96.68.96.67.96.66.96.66.97.66.97.65.97.65.97.65.98.63.98.64.98.63.98.62.99.63.99.61.99.62 1 .6 1 .61 1 .6 1 .59 1 .59 1.01.59 1.01.58 1.01.57 1.02.58 1.02.56 1.02.57 1.02.56 1.02.55 1.03.55 1.03.55 1.04.54 1.03.53 1.04.54 1.04.52 1.04.53 1.05.52 1.05.51 1.05.51 1.05.51 1.06.5 1.06.49 1.06.5 1.06.48 1.07.49 1.07.48 1.07.47 1.08.47 1.07.47 1.08.46 1.08.45 1.09.46 1.09.44 1.09.45 1.09.44 1.09.43 1.1.43 1.1.43 1.1.42 1.11.41 1.1.41 1.11.41 1.12.41 1.11.39 1.12.4 1.12.39 1.12.38 1.13.38 1.13.38 1.13.37 1.13.37 1.14.36 1.14.36 1.14.36 1.14.35 1.15.34 1.15.34 1.15.34 1.15.33 1.16.33 1.16.32 1.16.32 1.16.31 1.17.31 1.17.31 1.17.3 1.17.3 1.18.29 1.18.29 1.18.28 1.19.28" style="stroke-width:1.07;stroke:#000000;stroke-opacity:0.10;stroke-linecap:butt"/><path d="m49.42 209.23.98.64.97.64.98.64.98.63.98.63.99.63.98.62.99.62.99.62.99.62.99.61.99.61 1 .61 1 .6 1 .6 1 .6 1 .59 1 .59 1.01.59 1.01.59 1.01.58 1.01.58 1.01.58 1.01.57 1.02.57 1.02.57 1.02.56 1.02.57 1.02.55 1.03.56 1.02.55 1.03.55 1.03.55 1.03.54 1.03.55 1.04.53 1.04.54 1.03.53 1.04.53 1.05.53 1.04.52 1.04.52 1.05.52 1.05.51 1.05.51 1.05.51 1.06.51 1.05.5 1.06.5 1.06.5 1.06.49 1.06.49 1.06.49 1.07.48 1.07.49 1.07.47 1.07.48 1.07.47 1.07.47 1.08.47 1.08.46 1.08.47 1.08.45 1.08.46 1.09.45 1.08.45 1.09.45 1.09.44 1.09.44 1.09.44 1.1.43 1.09.43 1.1.43 1.1.43 1.1.42 1.11.42 1.1.41 1.11.42 1.11.41 1.11.41 1.11.4 1.11.4 1.12.4 1.12.4 1.11.39 1.13.39 1.12.39 1.12.38 1.13.38 1.12.38 1.13.37 1.13.38 1.14.37 1.13.36 1.14.36 1.13.36 1.14.36 1.14.36 1.15.35" style="stroke-width:1.07;stroke:#000000;stroke-opacity:0.10;stroke-linecap:butt"/><path d="m49.42 209.23 1.02.57 1.02.57 1.02.56 1.02.57 1.02.56 1.02.56 1.02.56 1.02.56 1.03.56 1.02.56 1.03.55 1.02.55 1.03.56 1.03.55 1.03.54 1.03.55 1.03.55 1.03.54 1.03.54 1.03.54 1.04.54 1.03.54 1.04.54 1.03.53 1.04.54 1.04.53 1.04.53 1.04.53 1.04.53 1.04.52 1.04.53 1.05.52 1.04.52 1.05.53 1.04.51 1.05.52 1.05.52 1.05.51 1.05.51 1.05.52 1.05.51 1.05.5 1.05.51 1.06.51 1.05.5 1.06.5 1.05.51 1.06.49 1.06.5 1.06.5 1.06.49 1.06.5 1.06.49 1.06.49 1.06.49 1.07.49 1.06.48 1.07.49 1.06.48 1.07.48 1.07.48 1.07.48 1.07.48 1.07.48 1.07.47 1.07.47 1.08.48 1.07.47 1.08.46 1.07.47 1.08.47 1.08.46 1.08.46 1.07.46 1.08.46 1.09.46 1.08.46 1.08.45 1.08.46 1.09.45 1.08.45 1.09.45 1.09.45 1.09.44 1.08.45 1.09.44 1.09.44 1.1.44 1.09.44 1.09.44 1.09.43 1.1.44 1.1.43 1.09.43 1.1.43 1.1.43 1.1.43 1.1.42 1.1.43" style="stroke-width:1.07;stroke:#000000;stroke-opacity:0.10;stroke-linecap:butt"/><path d="m49.42 209.23 1.06.5 1.06.49 1.06.5 1.06.5 1.06.49 1.06.5 1.05.5 1.06.49 1.06.5 1.06.5 1.06.49 1.06.5 1.06.5 1.06.49 1.05.5 1.06.5 1.06.49 1.06.5 1.06.5 1.06.49 1.06.5 1.06.5 1.06.49 1.05.5 1.06.5 1.06.49 1.06.5 1.06.5 1.06.49 1.06.5 1.06.5 1.06.49 1.05.5 1.06.5 1.06.49 1.06.5 1.06.5 1.06.49 1.06.5 1.06.5 1.05.49 1.06.5 1.06.5 1.06.49 1.06.5 1.06.5 1.06.49 1.06.5 1.06.5 1.05.49 1.06.5 1.06.5 1.06.49 1.06.5 1.06.5 1.06.49 1.06.5 1.05.49 1.06.5 1.06.5 1.06.49 1.06.5 1.06.5 1.06.49 1.06.5 1.06.5 1.05.49 1.06.5 1.06.5 1.06.49 1.06.5 1.06.5 1.06.49 1.06.5 1.06.5 1.05.49 1.06.5 1.06.5 1.06.49 1.06.5 1.06.5 1.06.49 1.06.5 1.05.5 1.06.49 1.06.5 1.06.5 1.06.49 1.06.5 1.06.5 1.06.49 1.06.5 1.05.5 1.06.49 1.06.5 1.06.5 1.06.49 1.06.5 1.06.5" style="stroke-width:1.07;stroke:#000000;stroke-opacity:0.10;stroke-linecap:butt"/><path d="m49.42 209.23 1.1.42 1.1.43 1.1.43 1.1.42 1.1.43 1.09.44 1.1.43 1.09.43 1.1.44 1.09.44 1.09.44 1.1.44 1.09.44 1.09.44 1.08.44 1.09.45 1.09.45 1.09.45 1.08.45 1.09.45 1.08.45 1.08.46 1.08.46 1.08.45 1.09.46 1.07.46 1.08.47 1.08.46 1.08.47 1.07.46 1.08.47 1.07.47 1.08.47 1.07.48 1.07.47 1.07.48 1.07.47 1.07.48 1.07.48 1.07.48 1.06.49 1.07.48 1.06.49 1.07.49 1.06.49 1.06.49 1.06.49 1.06.49 1.06.5 1.06.49 1.06.5 1.06.5 1.05.5 1.06.51 1.05.5 1.06.51 1.05.5 1.05.51 1.05.51 1.05.51 1.05.52 1.05.51 1.05.52 1.05.51 1.04.52 1.05.52 1.04.52 1.05.53 1.04.52 1.04.53 1.04.53 1.04.53 1.04.53 1.04.53 1.04.53 1.03.54 1.04.53 1.03.54 1.04.54 1.03.54 1.03.55 1.03.54 1.03.55 1.03.54 1.03.55 1.03.55 1.03.55 1.02.56 1.03.55 1.02.56 1.03.55 1.02.56 1.02.56 1.02.57 1.02.56 1.02.56 1.02.57 1.02.57 1.02.57" style="stroke-width:1.07;stroke:#000000;stroke-opacity:0.10;stroke-linecap:butt"/><path d="m49.42 209.23 1.15.35 1.14.36 1.14.35 1.13.36 1.14.37 1.13.36 1.14.37 1.13.37 1.13.38 1.12.38 1.13.38 1.12.38 1.12.39 1.12.39 1.12.39 1.12.4 1.12.39 1.11.41 1.11.4 1.11.41 1.11.41 1.11.41 1.1.42 1.11.42 1.1.42 1.1.43 1.09.43 1.1.43 1.1.43 1.09.44 1.09.44 1.09.44 1.09.45 1.08.45 1.09.45 1.08.45 1.08.46 1.08.46 1.08.47 1.08.46 1.07.47 1.07.48 1.07.47 1.07.48 1.07.48 1.07.49 1.06.49 1.06.49 1.06.49 1.06.5 1.06.5 1.05.5 1.06.5 1.05.51 1.05.51 1.05.52 1.05.52 1.04.52 1.04.52 1.05.53 1.04.53 1.03.53 1.04.53 1.04.54 1.03.54 1.03.55 1.03.54 1.03.55 1.02.56 1.03.55 1.02.56 1.02.56 1.02.57 1.02.57 1.02.57 1.01.57 1.01.58 1.01.58 1.01.58 1.01.59 1.01.58 1 .6 1 .59 1 .6 1 .6 1 .6.99.61 1 .61.99.61.99.62.99.61.99.63.98.62.99.63.98.63.98.63.98.64.97.64.98.64" style="stroke-width:1.07;stroke:#000000;stroke-opacity:0.10;stroke-linecap:butt"/><path d="m49.42 209.23 1.19.28 1.18.28 1.18.29 1.18.29 1.17.3 1.17.3 1.17.3 1.17.31 1.16.32 1.16.32 1.16.32 1.16.33 1.15.33 1.15.33 1.15.35 1.15.34 1.14.35 1.14.35 1.14.36 1.14.37 1.13.36 1.13.38 1.13.37 1.13.38 1.12.39 1.12.39 1.12.39 1.11.4 1.11.4 1.12.41 1.1.41 1.11.42 1.1.42 1.1.43 1.1.43 1.09.43 1.09.44 1.09.44 1.09.45 1.09.45 1.08.46 1.08.46 1.07.47 1.08.47 1.07.47 1.07.48 1.07.48 1.06.49 1.06.49 1.06.5 1.06.5 1.05.51 1.05.51 1.05.51 1.05.52 1.04.52 1.04.53 1.04.53 1.03.54 1.04.54 1.03.55 1.03.55 1.02.55 1.02.56 1.02.56 1.02.57 1.02.57 1.01.58 1.01.58 1.01.59 1 .59 1 .59 1 .6 1 .6 1 .61.99.61.99.62.98.62.99.63.98.63.98.63.98.64.97.65.97.64.97.66.97.65.96.66.96.67.96.67.96.67.95.68.95.69.95.69.95.69.94.69.94.71.94.7.93.71.94.72" style="stroke-width:1.07;stroke:#000000;stroke-opacity:0.10;stroke-linecap:butt"/><path d="m49.42 209.23 1.23.21 1.22.21 1.22.22 1.22.22 1.21.23 1.21.23 1.21.25 1.2.24 1.2.26 1.19.26 1.2.26 1.19.27 1.18.28 1.18.28 1.18.29 1.18.3 1.17.3 1.17.3 1.16.32 1.16.31 1.16.33 1.16.33 1.15.34 1.15.34 1.14.35 1.14.35 1.14.36 1.13.37 1.13.37 1.13.38 1.12.38 1.13.39 1.11.4 1.12.4 1.11.41 1.1.41 1.11.42 1.1.42 1.09.44 1.1.43 1.09.45 1.08.45 1.08.45 1.08.46 1.08.47 1.07.47 1.07.48 1.07.48 1.06.5 1.06.49 1.05.5 1.06.51 1.04.52 1.05.52 1.04.52 1.04.54 1.03.53 1.04.55 1.02.55 1.03.55 1.02.57 1.02.56 1.01.58 1.01.58 1.01.58 1 .6 1 .59 1 .61 1 .61.99.61.98.62.99.63.98.63.97.64.98.65.97.65.96.65.97.67.96.67.95.67.95.68.95.69.95.69.94.7.94.7.94.71.93.72.93.72.92.73.92.73.92.74.92.75.91.75.91.76.9.76.9.77.9.78.9.78.89.79" style="stroke-width:1.07;stroke:#000000;stroke-opacity:0.10;stroke-linecap:butt"/><path d="m49.42 209.23 1.27.13 1.27.14 1.26.15 1.25.16 1.25.16 1.25.17 1.24.18 1.24.18 1.24.2 1.23.2 1.22.2 1.22.22 1.22.22 1.21.23 1.21.24 1.21.24 1.2.25 1.19.26 1.19.27 1.19.27 1.18.28 1.18.29 1.18.3 1.17.3 1.16.31 1.16.32 1.16.33 1.15.33 1.15.34 1.15.35 1.14.36 1.13.36 1.13.37 1.13.38 1.12.38 1.12.4 1.12.4 1.11.4 1.1.42 1.11.42 1.09.43 1.1.44 1.09.44 1.08.46 1.08.46 1.08.46 1.07.48 1.06.48 1.07.49 1.06.49 1.05.51 1.05.51 1.05.52 1.04.53 1.04.53 1.03.54 1.03.55 1.02.55 1.02.57 1.02.57 1.01.58 1.01.58 1 .6 1 .6 1 .6.99.62.98.62.98.63.98.64.97.65.97.65.97.66.96.66.96.68.95.68.94.69.95.7.94.7.93.71.93.72.93.73.92.73.92.75.91.74.91.76.9.76.91.78.89.77.89.79.89.79.88.8.88.81.88.82.87.82.87.83.86.84.85.84.86.86.85.86" style="stroke-width:1.07;stroke:#000000;stroke-opacity:0.10;stroke-linecap:butt"/><path d="m49.42 209.23 1.31.06 1.31.07 1.3.08 1.29.09 1.29.09 1.29.11 1.28.11 1.27.12 1.27.13 1.27.15 1.26.14 1.25.16 1.25.17 1.24.18 1.24.18 1.23.2 1.23.2 1.23.21 1.21.22 1.22.23 1.2.24 1.21.25 1.19.25 1.2.27 1.18.27 1.19.28 1.17.3 1.17.3 1.17.31 1.16.32 1.16.32 1.15.34 1.15.34 1.14.36 1.13.36 1.13.37 1.13.39 1.12.39 1.12.39 1.11.41 1.1.42 1.1.42 1.1.44 1.09.44 1.08.45 1.08.46 1.07.47 1.07.48 1.07.49 1.06.5 1.05.5 1.05.52 1.04.52 1.04.53 1.03.54 1.03.55 1.02.56 1.02.57 1.01.58 1.01.58 1 .6 1 .6.99.61.99.62.98.63.98.64.97.65.97.66.96.66.95.68.95.68.95.7.94.7.94.71.93.72.92.72.92.74.92.75.91.75.9.77.9.77.9.78.89.79.88.8.88.81.87.81.87.83.87.84.85.84.86.85.85.86.84.87.84.88.83.89.83.9.82.91.82.91.81.92.81.94" style="stroke-width:1.07;stroke:#000000;stroke-opacity:0.10;stroke-linecap:butt"/><path d="m118.41 360.03 1.92 3.31h-3.83zm156.07-119.98 8.47 14.67h-16.94zm-150.25-89.3 3.99 6.9h-7.98z" style="stroke-width:0.71;stroke:none;fill:#00BA38"/><path d="M46.46 212.19h5.92v-5.92h-5.92z" style="stroke-width:0.71;stroke:none;fill:#619CFF"/><circle cx="154.25" cy="258.4" r="6.76" style="stroke-width:0.71;stroke:none;fill:#F8766D"/><path d="M75.95 457.75h2.85v-2.85h-2.85z" style="stroke-width:0.71;stroke:none;fill:#619CFF"/><circle cx="385.32" cy="234.53" r="1.42" style="stroke-width:0.71;stroke:none;fill:#F8766D"/><path d="m113.42 366.94 4.16-3.92M269.5 245.14l4.15 3.91M119.5 159.99l3.92-3.84m35.76 97.61-4.1 3.85M82.44 451.64l-4.22 3.91M380.2 229.83l4.27 3.93" style="stroke-width:0.53;stroke:#BFBFBF"/><path d="M70.81 386.49h62.92l-.09-.01.35-.01.34-.07.32-.12.3-.18.27-.22.23-.26.19-.29.14-.32.08-.34.03-.34h0V369.1h0l-.03-.34-.08-.34-.14-.32-.19-.29-.23-.26-.27-.22-.3-.18-.32-.12-.34-.07-.26-.02H70.81l.26.02-.34-.01-.35.04-.33.09-.32.15-.28.2-.25.24-.21.28-.16.31-.11.33-.06.34-.01.17v15.23l.01-.18v.35l.06.34.11.33.16.31.21.28.25.24.28.2.32.15.33.09.35.04z" style="stroke-width:0.53;fill:#FFFFFF;fill-opacity:0.50"/><text x="102.27" y="374.69" lengthAdjust="spacingAndGlyphs" style="font-size:5.69px;font-family:&quot;Liberation Sans&quot;" text-anchor="middle" textLength="60.03">FINANCIAL FREEDOM</text><text x="102.27" y="382.89" lengthAdjust="spacingAndGlyphs" style="font-size:5.69px;font-family:&quot;Liberation Sans&quot;" text-anchor="middle" textLength="10.31">LLC</text><path d="M226.87 245.14h62.92-.09l.35-.02.34-.07.32-.12.3-.18.27-.21.23-.27.19-.29.14-.32.08-.34.03-.34h0v-15.22h0l-.03-.35-.08-.34-.14-.32-.19-.29-.23-.26-.27-.22-.3-.18-.32-.12-.34-.07-.26-.01h-62.92l.26.01-.34-.01-.35.04-.33.1-.32.15-.28.19-.25.24-.21.28-.16.31-.11.33-.06.34-.01.18v15.22l.01-.18v.35l.06.34.11.33.16.31.21.28.25.24.28.2.32.15.33.09.35.05z" style="stroke-width:0.53;fill:#FFFFFF;fill-opacity:0.50"/><text x="258.33" y="233.34" lengthAdjust="spacingAndGlyphs" style="font-size:5.69px;font-family:&quot;Liberation Sans&quot;" text-anchor="middle" textLength="60.03">FINANCIAL FREEDOM</text><text x="258.33" y="241.54" lengthAdjust="spacingAndGlyphs" style="font-size:5.69px;font-family:&quot;Liberation Sans&quot;" text-anchor="middle" textLength="36.73">INVESTMENT</text><path d="M87.44 171.34h50.57-.09l.35-.01.34-.07.32-.13.3-.17.27-.22.23-.26.19-.29.14-.32.08-.34.03-.35h0v-7.03h0l-.03-.34-.08-.34-.14-.32-.19-.29-.23-.26-.27-.22-.3-.18-.32-.12-.34-.07-.26-.02H87.44l.26.02-.35-.01-.34.04-.33.1-.32.14-.28.2-.26.24-.2.28-.17.31-.11.33-.05.34-.01.17v7.03l.01-.17v.35l.05.34.11.33.17.31.2.27.26.25.28.19.32.15.33.1.34.04z" style="stroke-width:0.53;fill:#FFFFFF;fill-opacity:0.50"/><text x="112.72" y="167.74" lengthAdjust="spacingAndGlyphs" style="font-size:5.69px;font-family:&quot;Liberation Sans&quot;" text-anchor="middle" textLength="47.69">MNK HOMES LLC</text><path d="M56.29 219.01h68.53l-.09-.01.35-.01.34-.07.32-.12.3-.18.27-.22.23-.26.19-.29.14-.32.08-.34.03-.34h0v-15.23h0l-.03-.34-.08-.34-.14-.32-.19-.29-.23-.26-.27-.22-.3-.18-.32-.12-.34-.07-.26-.02H56.29l.26.02-.35-.01-.34.04-.34.1-.31.14-.29.2-.25.24-.21.28-.16.31-.11.33-.06.34v15.4-.18.35l.06.34.11.33.16.31.21.28.25.24.29.2.31.15.34.09.34.04z" style="stroke-width:0.53;fill:#FFFFFF;fill-opacity:0.50"/><text x="90.55" y="207.21" lengthAdjust="spacingAndGlyphs" style="font-size:5.69px;font-family:&quot;Liberation Sans&quot;" text-anchor="middle" textLength="65.65">3802 SARAH DR, ZION,</text><text x="90.55" y="215.41" lengthAdjust="spacingAndGlyphs" style="font-size:5.69px;font-family:&quot;Liberation Sans&quot;" text-anchor="middle" textLength="24.76">IL 60099</text><path d="M136.08 253.76h68.53l-.09-.01.35-.01.34-.07.33-.12.3-.18.27-.22.23-.26.18-.29.14-.32.08-.34.03-.34h0v-15.23h0l-.03-.34-.08-.34-.14-.32-.18-.29-.23-.26-.27-.22-.3-.18-.33-.12-.34-.07-.26-.02h-68.53l.26.02-.34-.01-.35.04-.33.09-.32.15-.28.2-.25.24-.21.28-.16.31-.12.33-.05.34-.01.17v15.23l.01-.18v.35l.05.34.12.33.16.31.21.28.25.24.28.2.32.15.33.09.35.04z" style="stroke-width:0.53;fill:#FFFFFF;fill-opacity:0.50"/><text x="170.35" y="241.96" lengthAdjust="spacingAndGlyphs" style="font-size:5.69px;font-family:&quot;Liberation Sans&quot;" text-anchor="middle" textLength="65.65">3802 SARAH DR, ZION,</text><text x="170.35" y="250.16" lengthAdjust="spacingAndGlyphs" style="font-size:5.69px;font-family:&quot;Liberation Sans&quot;" text-anchor="middle" textLength="24.76">IL 60099</text><path d="M67.34 451.64h61.48-.08l.34-.01.34-.07.33-.13.3-.17.27-.22.23-.26.19-.29.13-.32.09-.34.02-.35h0v-23.41h0l-.02-.35-.09-.34-.13-.32-.19-.29-.23-.26-.27-.22-.3-.18-.33-.12-.34-.07-.26-.01H67.34l.26.01-.35-.01-.35.04-.33.1-.31.14-.29.2-.25.24-.21.28-.16.31-.11.33-.06.34v23.59-.17.35l.06.34.11.33.16.31.21.27.25.24.29.2.31.15.33.1.35.04z" style="stroke-width:0.53;fill:#FFFFFF;fill-opacity:0.50"/><text x="98.08" y="431.65" lengthAdjust="spacingAndGlyphs" style="font-size:5.69px;font-family:&quot;Liberation Sans&quot;" text-anchor="middle" textLength="58.61">1460 HONEYSUCKLE</text><text x="98.08" y="439.85" lengthAdjust="spacingAndGlyphs" style="font-size:5.69px;font-family:&quot;Liberation Sans&quot;" text-anchor="middle" textLength="48.48">CIR, DE PERE, WI</text><text x="98.08" y="448.04" lengthAdjust="spacingAndGlyphs" style="font-size:5.69px;font-family:&quot;Liberation Sans&quot;" text-anchor="middle" textLength="18.11">54115</text><path d="M327.79 229.83h68.53-.09l.35-.01.34-.07.32-.13.3-.17.27-.22.23-.26.19-.29.14-.32.08-.34.03-.35h0v-15.22h0l-.03-.35-.08-.33-.14-.32-.19-.3-.23-.26-.27-.22-.3-.17-.32-.12-.34-.07-.26-.02h-68.53l.26.02-.35-.02-.34.04-.34.1-.31.15-.29.2-.25.24-.21.28-.16.3-.11.33-.06.35v15.39-.17.35l.06.34.11.33.16.31.21.27.25.24.29.2.31.15.34.1.34.04z" style="stroke-width:0.53;fill:#FFFFFF;fill-opacity:0.50"/><text x="362.05" y="218.04" lengthAdjust="spacingAndGlyphs" style="font-size:5.69px;font-family:&quot;Liberation Sans&quot;" text-anchor="middle" textLength="65.65">3208 SARAH DR, ZION,</text><text x="362.05" y="226.23" lengthAdjust="spacingAndGlyphs" style="font-size:5.69px;font-family:&quot;Liberation Sans&quot;" text-anchor="middle" textLength="24.76">IL 60099</text></g><g clip-path="url(#cpMC4wMHw0MzIuMDB8MC4wMHw1MDQuMDA=)"><circle cx="122.24" cy="115.22" r="1.95" style="stroke-width:0.71;stroke:none;fill:#F8766D"/><path d="m198.59 112.18 2.63 4.56h-5.26z" style="stroke-width:0.71;stroke:none;fill:#00BA38"/><path d="M264.57 117.18h3.91v-3.91h-3.91z" style="stroke-width:0.71;stroke:none;fill:#619CFF"/><text x="136.36" y="118.25" lengthAdjust="spacingAndGlyphs" style="font-size:8.80px;font-family:&quot;Liberation Sans Narrow&quot;" textLength="48.12">mprop address</text><text x="212.71" y="118.25" lengthAdjust="spacingAndGlyphs" style="font-size:8.80px;font-family:&quot;Liberation Sans Narrow&quot;" textLength="39.69">owner name</text><text x="280.64" y="118.25" lengthAdjust="spacingAndGlyphs" style="font-size:8.80px;font-family:&quot;Liberation Sans Narrow&quot;" textLength="40.5">wdfi address</text><text x="32.63" y="83.67" lengthAdjust="spacingAndGlyphs" style="font-size:12.00px;font-family:&quot;Liberation Sans Narrow&quot;" textLength="252.23">includes 14 parcels, 18 units, and 3 distinct owner names.</text><text x="32.63" y="42.27" lengthAdjust="spacingAndGlyphs" style="font-size:18.00px;font-weight:bold;font-family:&quot;Liberation Sans Narrow&quot;" textLength="366.24">FINANCIAL FREEDOM INVESTMENT -- MNK HOMES</text><text x="32.63" y="61.71" lengthAdjust="spacingAndGlyphs" style="font-size:18.00px;font-weight:bold;font-family:&quot;Liberation Sans Narrow&quot;" textLength="285.03">LLC -- FINANCIAL FREEDOM LLC Group</text></g></svg>