<svg xmlns="http://www.w3.org/2000/svg" width="384" height="384" class="svglite" viewBox="0 0 288 288"><defs><style>.svglite circle,.svglite line,.svglite polygon,.svglite polyline,.svglite rect{fill:none;stroke:#000;stroke-linecap:round;stroke-linejoin:round;stroke-miterlimit:10}.svglite text{white-space:pre}</style></defs><rect width="100%" height="100%" style="stroke:none;fill:#fff"/><defs><clipPath id="cpMC4wMHwyODguMDB8MC4wMHwyODguMDA="><path d="M0 0h288v288H0z"/></clipPath></defs><g clip-path="url(#cpMC4wMHwyODguMDB8MC4wMHwyODguMDA=)"><path d="M0 0h288v288H0z" style="stroke-width:1.07;stroke:none;fill:#fff"/></g><defs><clipPath id="cpMzIuNjN8MjU4LjExfDEyMC44NnwyNTUuMzc="><path d="M32.63 120.86h225.48v134.51H32.63z"/></clipPath></defs><g clip-path="url(#cpMzIuNjN8MjU4LjExfDEyMC44NnwyNTUuMzc=)"><path d="m111.2 208.5.69-.41.69-.42.69-.41.69-.41.69-.41.69-.41.69-.41.69-.42.7-.41.69-.41.69-.41.69-.41.69-.41.69-.42.69-.41.69-.41.69-.41.69-.41.69-.41.69-.42.69-.41.69-.41.69-.41.69-.41.69-.42.69-.41.69-.41.69-.41.69-.41.69-.41.69-.42.69-.41.69-.41.69-.41.69-.41.69-.41.69-.42.69-.41.69-.41.69-.41.69-.41.69-.41.69-.42.69-.41.69-.41.69-.41.69-.41.69-.41.69-.42.69-.41.69-.41.69-.41.69-.41.69-.42.69-.41.69-.41.69-.41.69-.41.69-.41.69-.42.69-.41.7-.41.69-.41.69-.41.69-.41.69-.42.69-.41.69-.41.69-.41.69-.41.69-.41.69-.42.69-.41.69-.41.69-.41.69-.41.69-.41.69-.42.69-.41.69-.41.69-.41.69-.41.69-.42.69-.41.69-.41.69-.41.69-.41.69-.41.69-.42.69-.41.69-.41.69-.41.69-.41.69-.41.69-.42.69-.41.69-.41.69-.41.69-.41M111.2 208.5l-.69.41-.69.41-.69.41-.69.41-.69.42-.69.41-.69.41-.69.41-.69.41-.69.41-.69.42-.69.41-.69.41-.69.41-.69.41-.69.42-.69.41-.69.41-.69.41-.69.41-.69.41-.69.42-.69.41-.69.41-.69.41-.69.41-.69.41-.69.42-.69.41-.69.41-.69.41-.69.41-.69.41-.69.42-.69.41-.69.41-.69.41-.69.41-.69.41-.69.42-.69.41-.69.41-.69.41-.69.41-.69.42-.69.41-.69.41-.69.41-.69.41-.69.41-.7.42-.69.41-.69.41-.69.41-.69.41-.69.41-.69.42-.69.41-.69.41-.69.41-.69.41-.69.41-.69.42-.69.41-.69.41-.69.41-.69.41-.69.41-.69.42-.69.41-.69.41-.69.41-.69.41-.69.42-.69.41-.69.41-.69.41-.69.41-.69.41-.69.42-.69.41-.69.41-.69.41-.69.41-.69.41-.69.42-.69.41-.69.41-.69.41-.69.41-.69.41-.69.42-.69.41-.69.41-.69.41-.69.41-.69.41-.69.42-.69.41M247.86 126.98l-.69.41-.69.41-.69.41-.69.41-.69.42-.69.41-.69.41-.69.41-.69.41-.69.41-.69.42-.69.41-.69.41-.69.41-.69.41-.69.41-.69.42-.69.41-.69.41-.69.41-.69.41-.69.41-.69.42-.69.41-.69.41-.69.41-.69.41-.69.42-.69.41-.69.41-.69.41-.69.41-.69.41-.69.42-.69.41-.69.41-.69.41-.7.41-.69.41-.69.42-.69.41-.69.41-.69.41-.69.41-.69.41-.69.42-.69.41-.69.41-.69.41-.69.41-.69.41-.69.42-.69.41-.69.41-.69.41-.69.41-.69.41-.69.42-.69.41-.69.41-.69.41-.69.41-.69.42-.69.41-.69.41-.69.41-.69.41-.69.41-.69.42-.69.41-.69.41-.69.41-.69.41-.69.41-.69.42-.69.41-.69.41-.69.41-.69.41-.69.41-.69.42-.69.41-.69.41-.69.41-.7.41-.69.41-.69.42-.69.41-.69.41-.69.41-.69.41-.69.42-.69.41-.69.41-.69.41-.69.41-.69.41-.69.42-.69.41" style="stroke-width:1.07;stroke:#000;stroke-opacity:.1;stroke-linecap:butt"/><path d="m111.2 206.29 1.92 3.31h-3.83zM247.86 124.77l1.92 3.31h-3.83z" style="stroke-width:.71;stroke:none;fill:#00ba38"/><circle cx="179.53" cy="167.74" r="6.76" style="stroke-width:.71;stroke:none;fill:#f8766d"/><path d="M41.46 250.68h2.84v-2.84h-2.84z" style="stroke-width:.71;stroke:none;fill:#619cff"/><path d="m104.36 212.96 5.87-3.82M240.76 131.41l6.1-3.81M172.42 172.19l6.11-3.83" style="stroke-width:.53;stroke:#bfbfbf"/><path d="M67.54 224.31h53.35l-.09-.01.35-.01.34-.07.32-.12.3-.18.27-.22.23-.26.19-.29.13-.32.09-.34.03-.34v-7.03l-.03-.35-.09-.33-.13-.32-.19-.3-.23-.26-.27-.22-.3-.17-.32-.13-.34-.07-.26-.01H67.54l.26.01-.35-.01-.34.04-.34.1-.31.15-.29.2-.25.24-.2.27-.17.31-.11.33-.05.35-.01.17v7.03l.01-.18v.35l.05.34.11.33.17.31.2.28.25.24.29.2.31.15.34.09.34.04z" style="stroke-width:.53;fill:#fff;fill-opacity:.5"/><text x="94.21" y="220.71" lengthAdjust="spacingAndGlyphs" style="font-size:5.69px;font-family:&quot;Liberation Sans&quot;" text-anchor="middle" textLength="50.46">FIRMBIZNESS LLC</text><path d="M195.11 142.76h57.24l-.09-.01.35-.01.34-.07.32-.12.31-.18.27-.22.23-.26.18-.29.14-.32.08-.34.03-.34v-7.03l-.03-.35-.08-.34-.14-.32-.18-.29-.23-.26-.27-.22-.31-.17-.32-.13-.34-.07-.26-.01h-57.24l.26.01-.35-.01-.34.04-.34.1-.31.15-.29.2-.25.24-.21.27-.16.31-.11.33-.05.34-.01.18v7.03l.01-.18v.35l.05.34.11.33.16.31.21.28.25.24.29.2.31.15.34.09.34.04z" style="stroke-width:.53;fill:#fff;fill-opacity:.5"/><text x="223.73" y="139.16" lengthAdjust="spacingAndGlyphs" style="font-size:5.69px;font-family:&quot;Liberation Sans&quot;" text-anchor="middle" textLength="54.36">FIRMBIZZNESS LLC</text><path d="M122.09 191.73h67.22-.09l.35-.02.34-.07.32-.12.3-.18.27-.21.23-.27.19-.29.14-.32.08-.34.03-.34v-15.22l-.03-.35-.08-.34-.14-.32-.19-.29-.23-.26-.27-.22-.3-.18-.32-.12-.34-.07-.26-.01h-67.22l.26.01-.35-.01-.34.04-.34.1-.31.15-.29.19-.25.24-.21.28-.16.31-.11.33-.05.34-.01.18v15.22l.01-.18v.35l.05.34.11.33.16.31.21.28.25.24.29.2.31.15.34.09.34.05z" style="stroke-width:.53;fill:#fff;fill-opacity:.5"/><text x="155.7" y="179.93" lengthAdjust="spacingAndGlyphs" style="font-size:5.69px;font-family:&quot;Liberation Sans&quot;" text-anchor="middle" textLength="47.38">3806 N 41ST ST,</text><text x="155.7" y="188.13" lengthAdjust="spacingAndGlyphs" style="font-size:5.69px;font-family:&quot;Liberation Sans&quot;" text-anchor="middle" textLength="64.34">MILWAUKEE, WI 53216</text><path d="M38.39 251.77h71.44-.09l.35-.01.34-.07.32-.13.3-.17.27-.22.23-.26.19-.29.13-.32.09-.34.03-.35V226.2l-.03-.35-.09-.34-.13-.32-.19-.29-.23-.26-.27-.22-.3-.18-.32-.12-.34-.07-.26-.01H38.39l.26.01-.35-.01-.34.04-.34.1-.31.15-.29.19-.25.24-.21.28-.16.31-.11.33-.06.34v23.59-.17.35l.06.34.11.33.16.31.21.27.25.25.29.19.31.15.34.1.34.04z" style="stroke-width:.53;fill:#fff;fill-opacity:.5"/><text x="74.11" y="231.78" lengthAdjust="spacingAndGlyphs" style="font-size:5.69px;font-family:&quot;Liberation Sans&quot;" text-anchor="middle" textLength="68.56">333 BROWN DEER RD G</text><text x="74.11" y="239.98" lengthAdjust="spacingAndGlyphs" style="font-size:5.69px;font-family:&quot;Liberation Sans&quot;" text-anchor="middle" textLength="58.9">467, MILWAUKEE, WI</text><text x="74.11" y="248.17" lengthAdjust="spacingAndGlyphs" style="font-size:5.69px;font-family:&quot;Liberation Sans&quot;" text-anchor="middle" textLength="18.11">53217</text></g><g clip-path="url(#cpMC4wMHwyODguMDB8MC4wMHwyODguMDA=)"><circle cx="50.24" cy="95.78" r="1.95" style="stroke-width:.71;stroke:none;fill:#f8766d"/><path d="m126.59 92.74 2.63 4.56h-5.26z" style="stroke-width:.71;stroke:none;fill:#00ba38"/><path d="M192.57 97.74h3.91v-3.91h-3.91z" style="stroke-width:.71;stroke:none;fill:#619cff"/><text x="64.36" y="98.81" lengthAdjust="spacingAndGlyphs" style="font-size:8.8px;font-family:&quot;Liberation Sans Narrow&quot;" textLength="48.12">mprop address</text><text x="140.71" y="98.81" lengthAdjust="spacingAndGlyphs" style="font-size:8.8px;font-family:&quot;Liberation Sans Narrow&quot;" textLength="39.69">owner name</text><text x="208.64" y="98.81" lengthAdjust="spacingAndGlyphs" style="font-size:8.8px;font-family:&quot;Liberation Sans Narrow&quot;" textLength="40.5">wdfi address</text><text x="32.63" y="64.23" lengthAdjust="spacingAndGlyphs" style="font-size:12px;font-family:&quot;Liberation Sans Narrow&quot;" textLength="241.29">includes 2 parcels, 3 units, and 2 distinct owner names.</text><text x="32.63" y="42.27" lengthAdjust="spacingAndGlyphs" style="font-size:18px;font-weight:700;font-family:&quot;Liberation Sans Narrow&quot;" textLength="181.19">FIRMBIZNESS LLC Group</text></g></svg>