<svg xmlns="http://www.w3.org/2000/svg" width="768" height="768" class="svglite" viewBox="0 0 576 576"><defs><style>.svglite circle,.svglite line,.svglite polygon,.svglite polyline,.svglite rect{fill:none;stroke:#000;stroke-linecap:round;stroke-linejoin:round;stroke-miterlimit:10}.svglite text{white-space:pre}</style></defs><rect width="100%" height="100%" style="stroke:none;fill:#fff"/><defs><clipPath id="cpMC4wMHw1NzYuMDB8MC4wMHw1NzYuMDA="><path d="M0 0h576v576H0z"/></clipPath></defs><g clip-path="url(#cpMC4wMHw1NzYuMDB8MC4wMHw1NzYuMDA=)"><path d="M0 0h576v576H0z" style="stroke-width:1.07;stroke:none;fill:#fff"/></g><defs><clipPath id="cpMzIuNjN8NTQ2LjExfDEyMC44Nnw1NDMuMzc="><path d="M32.63 120.86h513.48v422.51H32.63z"/></clipPath></defs><g clip-path="url(#cpMzIuNjN8NTQ2LjExfDEyMC44Nnw1NDMuMzc=)"><path d="m502.87 511.42-1.59-1.38-1.6-1.37-1.6-1.37-1.61-1.38-1.62-1.37-1.62-1.36-1.63-1.37-1.63-1.37-1.64-1.36-1.65-1.36-1.65-1.36-1.66-1.36-1.67-1.36-1.67-1.35-1.68-1.36-1.68-1.35-1.69-1.35-1.69-1.35-1.7-1.35-1.71-1.34-1.72-1.34-1.71-1.35-1.73-1.34-1.73-1.34-1.74-1.33-1.74-1.34-1.75-1.33-1.76-1.33-1.76-1.33-1.77-1.33-1.77-1.33-1.78-1.33-1.79-1.32-1.79-1.32-1.8-1.32-1.8-1.32-1.81-1.32-1.82-1.32-1.82-1.31-1.83-1.31-1.83-1.31-1.84-1.31-1.85-1.31-1.85-1.3-1.86-1.31-1.87-1.3-1.87-1.3-1.87-1.3-1.89-1.3-1.89-1.29-1.89-1.3-1.9-1.29-1.91-1.29-1.91-1.29-1.92-1.29-1.93-1.29-1.93-1.28-1.93-1.28-1.95-1.28-1.95-1.28-1.95-1.28-1.96-1.28-1.97-1.27-1.97-1.27-1.98-1.27-1.99-1.27-1.99-1.27-2-1.27-2-1.26-2.01-1.27-2.02-1.26-2.02-1.26-2.03-1.25-2.03-1.26-2.04-1.26-2.05-1.25-2.05-1.25-2.06-1.25-2.07-1.25-2.07-1.24-2.07-1.25-2.08-1.24-2.09-1.24-2.1-1.24-2.1-1.24-2.11-1.24-2.11-1.23-2.12-1.24-2.12-1.23-2.13-1.23-2.14-1.22-2.14-1.23-2.15-1.23-2.16-1.22-2.16-1.22-2.17-1.22-2.17-1.22-2.18-1.22-2.18-1.21M502.87 511.42l-3.22-.01h-16.1l-3.21.01-3.22.01-3.22.02-3.21.02-3.22.02-3.21.02-3.22.02-3.21.03-3.21.03-3.22.04-3.21.03-3.21.04-3.21.04-3.21.05-3.21.05-3.21.05-3.21.05-3.2.06-3.21.06-3.21.06-3.2.06-3.21.07-3.2.07-3.21.07-3.2.08-3.2.08-3.21.08-3.2.08-3.2.09-3.2.09-3.2.09-3.2.09-3.2.1-3.19.1-3.2.11-3.2.1-3.19.11-3.2.11-3.2.12-3.19.12-3.19.12-3.2.12-3.19.13-3.19.12-3.19.14-3.19.13-3.19.14-3.19.14-3.19.14-3.19.14-3.19.15-3.19.15-3.18.16-3.19.15-3.18.16-3.19.16-3.18.17-3.19.17-3.18.17-3.18.17-3.18.18-3.18.18-3.19.18-3.18.18-3.17.19-3.18.19-3.18.19-3.18.2-3.18.19-3.17.21-3.18.2-3.17.21-3.18.21-3.17.21-3.18.21-3.17.22-3.17.22-3.17.23-3.17.22-3.17.23-3.17.23-3.17.24-3.17.23-3.17.24-3.17.25-3.16.24-3.17.25-3.16.25-3.17.26-3.16.25-3.17.26-3.16.27-3.16.26M522.77 250.62l-2.09 1.34-2.09 1.34-2.09 1.34-2.09 1.34-2.09 1.33-2.09 1.34-2.09 1.34-2.09 1.34-2.09 1.34-2.09 1.34-2.09 1.34-2.09 1.33-2.09 1.34-2.09 1.34-2.09 1.34-2.09 1.34-2.09 1.34-2.09 1.33-2.09 1.34-2.09 1.34-2.09 1.34-2.08 1.34-2.09 1.34-2.09 1.34-2.09 1.33-2.09 1.34-2.09 1.34-2.09 1.34-2.09 1.34-2.09 1.34-2.09 1.33-2.09 1.34-2.09 1.34-2.09 1.34-2.09 1.34-2.09 1.34-2.09 1.34-2.09 1.33-2.09 1.34-2.09 1.34-2.09 1.34-2.09 1.34-2.09 1.34-2.09 1.33-2.09 1.34-2.09 1.34-2.09 1.34-2.09 1.34-2.09 1.34-2.09 1.33-2.09 1.34-2.09 1.34-2.09 1.34-2.09 1.34-2.09 1.34-2.09 1.34-2.09 1.33-2.09 1.34-2.09 1.34-2.09 1.34-2.09 1.34-2.09 1.34-2.09 1.33-2.09 1.34-2.09 1.34-2.09 1.34-2.09 1.34-2.09 1.34-2.09 1.34-2.09 1.33-2.09 1.34-2.09 1.34-2.09 1.34-2.09 1.34-2.09 1.34-2.09 1.33-2.09 1.34-2.09 1.34-2.09 1.34-2.09 1.34-2.09 1.34-2.09 1.34-2.09 1.33-2.09 1.34-2.09 1.34-2.09 1.34-2.09 1.34-2.09 1.34-2.09 1.33-2.09 1.34-2.08 1.34-2.09 1.34-2.09 1.34-2.09 1.34-2.09 1.34-2.09 1.33-2.09 1.34-2.09 1.34-2.09 1.34M522.77 250.62l-2.62-1.11-2.62-1.12-2.61-1.12-2.62-1.11-2.62-1.12-2.62-1.12-2.62-1.11-2.62-1.12-2.61-1.12-2.62-1.11-2.62-1.12-2.62-1.12-2.62-1.12-2.62-1.11-2.62-1.12-2.61-1.12-2.62-1.11-2.62-1.12-2.62-1.12-2.62-1.11-2.62-1.12-2.61-1.12-2.62-1.11-2.62-1.12-2.62-1.12-2.62-1.11-2.62-1.12-2.62-1.12-2.61-1.11-2.62-1.12-2.62-1.12-2.62-1.11-2.62-1.12-2.62-1.12-2.62-1.11-2.61-1.12-2.62-1.12-2.62-1.11-2.62-1.12-2.62-1.12-2.62-1.11-2.61-1.12-2.62-1.12-2.62-1.11-2.62-1.12-2.62-1.12-2.62-1.11-2.62-1.12-2.61-1.12-2.62-1.11-2.62-1.12-2.62-1.12-2.62-1.11-2.62-1.12-2.62-1.12-2.61-1.11-2.62-1.12-2.62-1.12-2.62-1.11-2.62-1.12-2.62-1.12-2.61-1.11-2.62-1.12-2.62-1.12-2.62-1.11-2.62-1.12-2.62-1.12-2.62-1.11-2.61-1.12-2.62-1.12-2.62-1.11-2.62-1.12-2.62-1.12-2.62-1.11-2.62-1.12-2.61-1.12-2.62-1.11-2.62-1.12-2.62-1.12-2.62-1.11-2.62-1.12-2.61-1.12-2.62-1.11-2.62-1.12-2.62-1.12-2.62-1.12-2.62-1.11-2.62-1.12-2.61-1.12-2.62-1.11-2.62-1.12-2.62-1.12-2.62-1.11-2.62-1.12-2.61-1.12-2.62-1.11-2.62-1.12-2.62-1.12-2.62-1.11M55.97 269.43l2.36 1.26 2.37 1.26 2.37 1.25 2.38 1.26 2.38 1.25 2.39 1.25 2.4 1.25 2.4 1.24 2.4 1.24 2.41 1.24 2.42 1.24 2.42 1.24 2.43 1.23 2.43 1.23 2.44 1.23 2.44 1.23 2.45 1.22 2.45 1.22 2.46 1.22 2.47 1.22 2.47 1.22 2.47 1.21 2.48 1.21 2.49 1.21 2.49 1.2 2.5 1.21 2.5 1.2 2.51 1.2 2.51 1.19 2.52 1.2 2.52 1.19 2.53 1.19 2.53 1.19 2.54 1.18 2.55 1.18 2.55 1.19 2.55 1.17 2.56 1.18 2.57 1.17 2.57 1.17 2.58 1.17 2.58 1.17 2.59 1.17 2.59 1.16 2.6 1.16 2.6 1.16 2.61 1.15 2.62 1.15 2.62 1.15 2.62 1.15 2.63 1.15 2.64 1.14 2.64 1.14 2.65 1.14 2.65 1.14 2.66 1.14 2.66 1.13 2.67 1.13 2.67 1.13 2.68 1.12 2.69 1.13 2.69 1.12 2.69 1.11 2.7 1.12 2.71 1.12 2.71 1.11 2.72 1.11 2.72 1.1 2.72 1.11 2.74 1.1 2.73 1.1 2.75 1.1 2.75 1.1 2.75 1.09 2.76 1.09 2.77 1.09 2.77 1.09 2.77 1.08 2.78 1.08 2.79 1.08 2.79 1.08 2.8 1.07 2.8 1.08 2.81 1.07 2.81 1.07 2.82 1.06 2.82 1.06 2.83 1.07 2.84 1.06 2.84 1.05 2.84 1.06 2.85 1.05 2.86 1.05 2.86 1.05 2.87 1.04 2.87 1.04 2.88 1.04 2.88 1.04 2.89 1.04M55.97 269.43l2.39-1.22 2.39-1.22 2.39-1.22 2.37-1.22 2.38-1.23 2.36-1.22 2.36-1.23 2.35-1.23 2.35-1.23 2.34-1.23 2.34-1.24 2.32-1.24 2.33-1.23 2.31-1.25 2.31-1.24 2.31-1.24 2.3-1.25 2.29-1.25 2.28-1.25 2.28-1.25 2.28-1.25 2.26-1.26 2.27-1.25 2.25-1.26 2.25-1.26 2.24-1.27 2.24-1.26 2.23-1.27 2.23-1.27 2.22-1.27 2.21-1.27 2.2-1.27 2.2-1.28 2.2-1.27 2.19-1.28 2.18-1.28 2.18-1.29 2.17-1.28 2.16-1.29 2.16-1.29 2.15-1.29 2.14-1.29 2.14-1.29 2.14-1.3 2.12-1.3 2.13-1.3 2.11-1.3 2.11-1.3 2.1-1.3 2.1-1.31 2.09-1.31 2.08-1.31 2.08-1.31 2.07-1.32 2.07-1.31 2.06-1.32 2.05-1.32 2.05-1.32 2.04-1.32 2.04-1.33 2.03-1.33 2.02-1.32 2.02-1.33 2.01-1.34 2.01-1.33 2-1.34 1.99-1.33 1.99-1.34 1.98-1.35 1.97-1.34 1.97-1.34 1.96-1.35 1.96-1.35 1.95-1.35 1.94-1.35 1.94-1.36 1.93-1.35 1.93-1.36 1.92-1.36 1.91-1.36 1.91-1.37 1.9-1.36 1.9-1.37 1.89-1.37 1.88-1.37 1.88-1.37 1.87-1.38 1.86-1.37 1.86-1.38 1.85-1.38 1.85-1.38 1.84-1.39 1.83-1.38 1.83-1.39 1.82-1.39 1.82-1.39 1.81-1.39 1.8-1.4 1.8-1.39M55.97 269.43l2.89 1.03 2.88 1.04 2.88 1.04 2.87 1.05 2.87 1.04 2.86 1.05 2.85 1.05 2.85 1.05 2.85 1.06 2.84 1.05 2.83 1.06 2.83 1.06 2.83 1.07 2.81 1.06 2.82 1.07 2.8 1.07 2.81 1.07 2.79 1.08 2.8 1.08 2.78 1.08 2.78 1.08 2.78 1.08 2.77 1.09 2.76 1.09 2.76 1.09 2.76 1.09 2.75 1.1 2.74 1.1 2.74 1.1 2.73 1.1 2.73 1.1 2.72 1.11 2.72 1.11 2.71 1.11 2.7 1.12 2.7 1.11 2.7 1.12 2.69 1.12 2.68 1.13 2.68 1.12 2.67 1.13 2.67 1.13 2.67 1.13 2.65 1.14 2.66 1.13 2.64 1.14 2.64 1.14 2.64 1.15 2.63 1.14 2.63 1.15 2.62 1.15 2.61 1.16 2.61 1.15 2.6 1.16 2.6 1.16 2.6 1.16 2.58 1.17 2.59 1.16 2.57 1.17 2.57 1.17 2.57 1.18 2.56 1.17 2.56 1.18 2.55 1.18 2.54 1.19 2.54 1.18 2.54 1.19 2.52 1.19 2.53 1.19 2.52 1.19 2.51 1.2 2.51 1.2 2.5 1.2 2.49 1.2 2.5 1.21 2.48 1.21 2.48 1.21 2.48 1.21 2.47 1.22 2.46 1.21 2.46 1.22 2.45 1.23 2.45 1.22 2.45 1.23 2.43 1.23 2.44 1.23 2.42 1.23 2.42 1.24 2.42 1.23 2.41 1.24 2.41 1.25 2.4 1.24 2.39 1.25 2.39 1.25 2.38 1.25 2.38 1.25 2.38 1.26 2.36 1.26 2.37 1.26" style="stroke-width:1.07;stroke:#000;stroke-opacity:.1;stroke-linecap:butt"/><path d="m55.97 269.43 1.8-1.4 1.8-1.39 1.81-1.4 1.82-1.39 1.82-1.39 1.83-1.38 1.83-1.39 1.84-1.38 1.85-1.38 1.85-1.38 1.86-1.38 1.86-1.38 1.87-1.37 1.88-1.38 1.88-1.37 1.89-1.37 1.9-1.36 1.9-1.37 1.91-1.36 1.91-1.36 1.92-1.36 1.93-1.36 1.93-1.36 1.94-1.35 1.94-1.35 1.95-1.35 1.96-1.35 1.96-1.35 1.97-1.35 1.97-1.34 1.98-1.34 1.99-1.34 1.99-1.34 2-1.33 2.01-1.34 2.01-1.33 2.02-1.33 2.02-1.33 2.03-1.33 2.03-1.32 2.05-1.32 2.04-1.33 2.06-1.31 2.06-1.32 2.06-1.32 2.08-1.31 2.08-1.31 2.08-1.31 2.09-1.31 2.1-1.31 2.1-1.3 2.11-1.31 2.11-1.3 2.12-1.3 2.13-1.3 2.14-1.29 2.13-1.3 2.15-1.29 2.15-1.29 2.16-1.29 2.16-1.28 2.17-1.29 2.18-1.28 2.18-1.28 2.19-1.28 2.19-1.28 2.2-1.27 2.21-1.28 2.21-1.27 2.22-1.27 2.23-1.27 2.23-1.26 2.24-1.27 2.24-1.26 2.25-1.26 2.25-1.26 2.26-1.26 2.27-1.25 2.28-1.26 2.28-1.25 2.28-1.25 2.29-1.25 2.3-1.24 2.31-1.25 2.31-1.24 2.31-1.24 2.33-1.24 2.32-1.24 2.34-1.23 2.34-1.23 2.35-1.24 2.35-1.23 2.36-1.22 2.36-1.23 2.37-1.22 2.38-1.23 2.39-1.22 2.39-1.22 2.39-1.21M502.87 511.42l-2.18-1.21-2.18-1.22-2.17-1.22-2.17-1.22-2.16-1.22-2.16-1.22-2.15-1.23-2.14-1.23-2.14-1.22-2.13-1.23-2.12-1.23-2.12-1.24-2.11-1.23-2.11-1.24-2.1-1.24-2.1-1.24-2.09-1.24-2.08-1.24-2.07-1.25-2.07-1.24-2.07-1.25-2.06-1.25-2.05-1.25-2.05-1.25-2.04-1.26-2.03-1.26-2.03-1.25-2.02-1.26-2.02-1.26-2.01-1.27-2-1.26-2-1.27-1.99-1.27-1.99-1.26-1.98-1.28-1.97-1.27-1.97-1.27-1.96-1.28-1.95-1.28-1.95-1.28-1.95-1.28-1.93-1.28-1.93-1.28-1.93-1.29-1.92-1.29-1.91-1.29-1.91-1.29-1.9-1.29-1.89-1.3-1.89-1.29-1.89-1.3-1.87-1.3-1.87-1.3-1.87-1.3-1.86-1.31-1.85-1.3-1.85-1.31-1.84-1.31-1.83-1.31-1.83-1.31-1.82-1.31-1.82-1.32-1.81-1.32-1.8-1.32-1.8-1.32-1.79-1.32-1.79-1.32-1.78-1.33-1.77-1.33-1.77-1.33-1.76-1.33-1.76-1.33-1.75-1.33-1.74-1.34-1.74-1.33-1.73-1.34-1.73-1.34-1.71-1.35-1.72-1.34-1.71-1.34-1.7-1.35-1.69-1.35-1.69-1.35-1.68-1.35-1.68-1.36-1.67-1.35-1.67-1.36-1.66-1.36-1.65-1.36-1.65-1.36-1.64-1.36-1.63-1.37-1.63-1.37-1.62-1.36-1.62-1.37-1.61-1.38-1.6-1.37-1.6-1.37-1.59-1.38M502.87 511.42l-3.16.27-3.16.26-3.17.26-3.16.26-3.17.25-3.16.25-3.17.25-3.16.25-3.17.24-3.17.24-3.17.24-3.17.23-3.17.23-3.17.23-3.17.23-3.17.22-3.17.22-3.17.22-3.18.21-3.17.22-3.18.21-3.17.2-3.18.21-3.17.2-3.18.2-3.18.19-3.18.19-3.18.19-3.17.19-3.18.19-3.19.18-3.18.18-3.18.17-3.18.18-3.18.17-3.19.16-3.18.17-3.19.16-3.18.16-3.19.16-3.18.15-3.19.15-3.19.15-3.19.14-3.19.15-3.19.14-3.19.13-3.19.14-3.19.13-3.19.13-3.19.12-3.2.13-3.19.12-3.19.11-3.2.12-3.19.11-3.2.11-3.2.11-3.2.1-3.19.1-3.2.1-3.2.09-3.2.1-3.2.08-3.2.09-3.2.09-3.21.08-3.2.08-3.2.07-3.21.07-3.2.07-3.21.07-3.2.07-3.21.06-3.21.06-3.2.05-3.21.06-3.21.05-3.21.04-3.21.05-3.21.04-3.21.04-3.21.04-3.22.03-3.21.03-3.21.03-3.22.02-3.21.03-3.22.02-3.21.01-3.22.02-3.22.01-3.21.01h-3.22l-3.22.01h-3.22l-3.22-.01h-3.22l-3.22-.01" style="stroke-width:1.07;stroke:#000;stroke-opacity:.1;stroke-linecap:butt"/><path d="m186.87 524.15 2.6-1.2 2.58-1.21 2.56-1.21 2.53-1.21 2.5-1.22 2.47-1.22 2.45-1.23 2.42-1.24 2.39-1.23 2.37-1.25 2.34-1.24 2.32-1.25 2.28-1.26 2.26-1.26 2.24-1.27 2.21-1.27 2.18-1.27 2.15-1.28 2.13-1.28 2.1-1.29 2.08-1.29 2.05-1.3 2.02-1.3 1.99-1.31 1.97-1.31 1.94-1.31 1.92-1.32 1.89-1.33 1.86-1.32 1.83-1.34 1.81-1.34 1.78-1.34 1.76-1.35 1.73-1.35 1.7-1.35 1.68-1.36 1.65-1.37 1.62-1.37 1.59-1.37 1.57-1.38 1.55-1.39 1.51-1.38 1.49-1.4 1.46-1.39 1.44-1.41 1.41-1.4 1.38-1.41 1.36-1.42 1.33-1.42 1.3-1.42 1.28-1.43 1.25-1.43 1.22-1.44 1.2-1.45 1.17-1.44 1.14-1.45 1.12-1.46 1.09-1.46 1.06-1.47 1.04-1.47 1.01-1.47.98-1.48.96-1.48.93-1.49.91-1.5.87-1.49.85-1.51.83-1.5.8-1.51.77-1.52.74-1.52.72-1.52.69-1.53.66-1.54.64-1.53.61-1.55.59-1.54.56-1.56.53-1.55.5-1.56.48-1.57.45-1.57.43-1.57.39-1.58.38-1.59.34-1.59.32-1.59.29-1.6.27-1.6.24-1.61.21-1.61.18-1.61.16-1.62.13-1.63.11-1.63.08-1.63.05-1.64.03-1.64v-1.65" style="stroke-width:1.07;stroke:#000;stroke-opacity:.1;stroke-linecap:butt"/><path d="m186.87 524.15 1.95-1.31 1.94-1.32 1.93-1.31 1.92-1.32 1.9-1.33 1.89-1.32 1.87-1.33 1.87-1.33 1.84-1.33 1.84-1.33 1.82-1.34 1.81-1.33 1.8-1.34 1.78-1.35 1.77-1.34 1.75-1.35 1.74-1.35 1.73-1.35 1.72-1.35 1.7-1.36 1.69-1.36 1.68-1.36 1.66-1.36 1.65-1.37 1.63-1.36 1.63-1.37 1.6-1.38 1.6-1.37 1.58-1.38 1.57-1.38 1.56-1.38 1.54-1.38 1.53-1.39 1.52-1.38 1.5-1.39 1.49-1.4 1.47-1.39 1.47-1.4 1.45-1.4 1.43-1.4 1.43-1.4 1.41-1.41 1.39-1.41 1.38-1.41 1.37-1.41 1.36-1.42 1.34-1.42 1.33-1.42 1.32-1.42 1.3-1.42 1.29-1.43 1.28-1.43 1.26-1.43 1.25-1.43 1.24-1.44 1.22-1.44 1.21-1.44 1.2-1.44 1.18-1.44 1.17-1.45 1.16-1.45 1.14-1.45 1.13-1.46 1.12-1.45 1.1-1.46 1.09-1.46 1.08-1.47 1.06-1.46 1.05-1.47 1.04-1.47 1.02-1.47 1.02-1.48.99-1.47.99-1.48.97-1.48.95-1.49.95-1.48.93-1.49.92-1.49.9-1.5.89-1.49.88-1.5.86-1.5.85-1.5.84-1.5.82-1.51.81-1.51.8-1.51.79-1.51.77-1.52.75-1.52.75-1.52.73-1.52.72-1.52.7-1.53.69-1.53.68-1.53.67-1.53.65-1.54" style="stroke-width:1.07;stroke:#000;stroke-opacity:.1;stroke-linecap:butt"/><path d="m186.87 524.15 1.3-1.42 1.3-1.43 1.31-1.42 1.3-1.43 1.3-1.42 1.31-1.43 1.3-1.42 1.3-1.42 1.3-1.43 1.31-1.42 1.3-1.43 1.3-1.42 1.31-1.43 1.3-1.42 1.3-1.43 1.31-1.42 1.3-1.42 1.3-1.43 1.31-1.42 1.3-1.43 1.3-1.42 1.31-1.43 1.3-1.42 1.3-1.43 1.3-1.42 1.31-1.42 1.3-1.43 1.3-1.42 1.31-1.43 1.3-1.42 1.3-1.43 1.31-1.42 1.3-1.43 1.3-1.42 1.31-1.42 1.3-1.43 1.3-1.42 1.31-1.43 1.3-1.42 1.3-1.43 1.3-1.42 1.31-1.43 1.3-1.42 1.3-1.43 1.31-1.42 1.3-1.42 1.3-1.43 1.31-1.42 1.3-1.43 1.3-1.42 1.31-1.43 1.3-1.42 1.3-1.43 1.31-1.42 1.3-1.42 1.3-1.43 1.3-1.42 1.31-1.43 1.3-1.42 1.3-1.43 1.31-1.42 1.3-1.43 1.3-1.42 1.31-1.42 1.3-1.43 1.3-1.42 1.31-1.43 1.3-1.42 1.3-1.43 1.31-1.42 1.3-1.43 1.3-1.42 1.3-1.42 1.31-1.43 1.3-1.42 1.3-1.43 1.31-1.42 1.3-1.43 1.3-1.42 1.31-1.43 1.3-1.42 1.3-1.42 1.31-1.43 1.3-1.42 1.3-1.43 1.31-1.42 1.3-1.43 1.3-1.42 1.3-1.43 1.31-1.42 1.3-1.43 1.3-1.42 1.31-1.42 1.3-1.43 1.3-1.42 1.31-1.43 1.3-1.42 1.3-1.43 1.31-1.42" style="stroke-width:1.07;stroke:#000;stroke-opacity:.1;stroke-linecap:butt"/><path d="m186.87 524.15.65-1.53.66-1.54.68-1.53.69-1.53.71-1.53.71-1.52.73-1.52.75-1.52.76-1.52.77-1.52.78-1.51.8-1.51.81-1.51.82-1.51.84-1.5.85-1.5.87-1.5.87-1.5.89-1.49.91-1.5.91-1.49.94-1.49.94-1.48.96-1.49.97-1.48.98-1.48 1-1.47 1.01-1.48 1.02-1.47 1.04-1.47 1.05-1.47 1.06-1.46 1.08-1.47 1.09-1.46 1.1-1.46 1.12-1.45 1.13-1.46 1.14-1.45 1.16-1.45 1.17-1.44 1.18-1.45 1.2-1.44 1.21-1.44 1.22-1.44 1.24-1.44 1.25-1.43 1.26-1.43 1.28-1.43 1.29-1.43 1.3-1.42 1.32-1.42 1.33-1.42 1.34-1.42 1.36-1.42 1.37-1.41 1.38-1.41 1.4-1.41 1.41-1.41 1.42-1.4 1.44-1.4 1.45-1.4 1.46-1.4 1.47-1.39 1.49-1.4 1.51-1.39 1.51-1.38 1.53-1.39 1.54-1.38 1.56-1.38 1.57-1.38 1.58-1.38 1.6-1.37 1.61-1.38 1.62-1.37 1.64-1.36 1.65-1.37 1.66-1.36 1.67-1.36 1.69-1.36 1.7-1.36 1.72-1.35 1.73-1.35 1.74-1.35 1.76-1.35 1.77-1.34 1.78-1.35 1.79-1.34 1.81-1.33 1.82-1.34 1.84-1.33 1.85-1.33 1.86-1.33 1.88-1.33 1.88-1.32 1.91-1.33 1.91-1.32 1.93-1.31 1.94-1.32 1.96-1.31" style="stroke-width:1.07;stroke:#000;stroke-opacity:.1;stroke-linecap:butt"/><path d="M186.87 524.15v-1.65l.02-1.64.05-1.64.08-1.63.11-1.63.13-1.63.16-1.62.19-1.61.21-1.61.24-1.61.26-1.6.29-1.6.32-1.59.35-1.59.37-1.59.4-1.57.42-1.58.45-1.57.48-1.57.51-1.56.53-1.55.56-1.55.58-1.55.61-1.55.64-1.53.66-1.54.69-1.53.72-1.52.75-1.52.77-1.52.79-1.51.83-1.5.85-1.51.88-1.49.9-1.5.93-1.48.96-1.49.98-1.48 1.01-1.47 1.04-1.47 1.06-1.47 1.09-1.46 1.12-1.45 1.14-1.46 1.17-1.44 1.2-1.45 1.22-1.43 1.25-1.44 1.28-1.43 1.3-1.42 1.33-1.42 1.36-1.42 1.38-1.41 1.41-1.4 1.44-1.41 1.46-1.39 1.49-1.4 1.52-1.38 1.54-1.39 1.57-1.38 1.59-1.37 1.63-1.37 1.65-1.37 1.67-1.36 1.7-1.35 1.73-1.35 1.76-1.35 1.78-1.34 1.81-1.34 1.83-1.33 1.87-1.33 1.89-1.33 1.91-1.32 1.94-1.31 1.97-1.31 2-1.31 2.02-1.3 2.05-1.3 2.07-1.29 2.1-1.29 2.13-1.28 2.15-1.28 2.19-1.27 2.2-1.27 2.24-1.27 2.26-1.26 2.29-1.25 2.31-1.26 2.34-1.24 2.37-1.25 2.39-1.23 2.43-1.24 2.44-1.22 2.48-1.23 2.5-1.22 2.52-1.21 2.56-1.21 2.58-1.21 2.61-1.2" style="stroke-width:1.07;stroke:#000;stroke-opacity:.1;stroke-linecap:butt"/><path d="m502.87 505.06 5.51 9.54h-11.01zM522.77 248.41l1.92 3.32h-3.83zM55.97 263.07l5.5 9.54H50.46z" style="stroke-width:.71;stroke:none;fill:#00ba38"/><path d="M182.78 528.24h8.18v-8.18h-8.18z" style="stroke-width:.71;stroke:none;fill:#619cff"/><circle cx="315.88" cy="383.13" r="6.76" style="stroke-width:.71;stroke:none;fill:#f8766d"/><path d="M258.35 145.26h10.38v-10.39h-10.38z" style="stroke-width:.71;stroke:none;fill:#619cff"/><path d="m497.45 516.11 4.55-3.93M181.98 527.47l3.9-2.65M321.3 378.44l-4.55 3.93M268.4 136.77l-3.88 2.63" style="stroke-width:.53;stroke:#bfbfbf"/><path d="M451.98 535.66h66.7l-.09-.01.35-.01.34-.07.32-.12.31-.18.27-.22.23-.26.18-.29.14-.32.08-.34.03-.34v-15.23l-.03-.34-.08-.34-.14-.32-.18-.29-.23-.26-.27-.22-.31-.18-.32-.12-.34-.07-.26-.02h-66.7l.26.02-.35-.01-.34.04-.34.09-.31.15-.29.2-.25.24-.21.28-.16.31-.11.33-.05.34-.01.17v15.23l.01-.18v.35l.05.34.11.33.16.31.21.28.25.24.29.2.31.15.34.09.34.04z" style="stroke-width:.53;fill:#fff;fill-opacity:.5"/><text x="485.33" y="523.86" lengthAdjust="spacingAndGlyphs" style="font-size:5.69px;font-family:&quot;Liberation Sans&quot;" text-anchor="middle" textLength="63.82">FOREMOST HOLDINGS</text><text x="485.33" y="532.06" lengthAdjust="spacingAndGlyphs" style="font-size:5.69px;font-family:&quot;Liberation Sans&quot;" text-anchor="middle" textLength="10.31">LLC</text><path d="M447.12 260.24h68.65-.09l.35-.02.34-.07.32-.12.31-.17.27-.22.23-.26.18-.3.14-.32.08-.33.03-.35v-15.22l-.03-.35-.08-.34-.14-.32-.18-.29-.23-.26-.27-.22-.31-.17-.32-.13-.34-.07-.26-.01h-68.65l.26.01-.34-.01-.35.04-.33.1-.32.15-.28.19-.25.25-.21.27-.16.31-.11.33-.06.34-.01.18v15.22l.01-.17v.34l.06.35.11.33.16.3.21.28.25.24.28.2.32.15.33.1.35.04z" style="stroke-width:.53;fill:#fff;fill-opacity:.5"/><text x="481.45" y="248.45" lengthAdjust="spacingAndGlyphs" style="font-size:5.69px;font-family:&quot;Liberation Sans&quot;" text-anchor="middle" textLength="65.76">KAABACHI PROPERTIES</text><text x="481.45" y="256.64" lengthAdjust="spacingAndGlyphs" style="font-size:5.69px;font-family:&quot;Liberation Sans&quot;" text-anchor="middle" textLength="45.06">OKLAHOMA LLC</text><path d="M62.97 279.28h68.65-.09l.35-.01.34-.07.32-.12.3-.18.27-.22.23-.26.19-.29.13-.32.09-.34.03-.35V261.9l-.03-.34-.09-.34-.13-.32-.19-.3-.23-.26-.27-.22-.3-.17-.32-.12-.34-.07-.26-.02H62.97l.26.02-.35-.02-.34.05-.33.09-.32.15-.28.2-.26.24-.2.28-.17.31-.11.33-.05.34-.01.17v15.22l.01-.17v.35l.05.34.11.33.17.31.2.28.26.24.28.19.32.15.33.1.34.04z" style="stroke-width:.53;fill:#fff;fill-opacity:.5"/><text x="97.29" y="267.49" lengthAdjust="spacingAndGlyphs" style="font-size:5.69px;font-family:&quot;Liberation Sans&quot;" text-anchor="middle" textLength="65.76">KAABACHI PROPERTIES</text><text x="97.29" y="275.68" lengthAdjust="spacingAndGlyphs" style="font-size:5.69px;font-family:&quot;Liberation Sans&quot;" text-anchor="middle" textLength="26.42">IONA LLC</text><path d="M112.6 539.77h67.22-.09l.35-.01.34-.07.32-.13.3-.17.27-.22.23-.26.19-.29.14-.32.08-.34.03-.35v-15.22l-.03-.35-.08-.33-.14-.32-.19-.3-.23-.26-.27-.22-.3-.17-.32-.12-.34-.07-.26-.02H112.6l.26.02-.35-.02-.34.04-.34.1-.31.15-.29.2-.25.24-.21.28-.16.3-.11.33-.05.35-.01.17v15.22l.01-.17v.35l.05.34.11.33.16.31.21.27.25.25.29.19.31.15.34.1.34.04z" style="stroke-width:.53;fill:#fff;fill-opacity:.5"/><text x="146.21" y="527.98" lengthAdjust="spacingAndGlyphs" style="font-size:5.69px;font-family:&quot;Liberation Sans&quot;" text-anchor="middle" textLength="62.61">1121 W GRANGE AVE,</text><text x="146.21" y="536.17" lengthAdjust="spacingAndGlyphs" style="font-size:5.69px;font-family:&quot;Liberation Sans&quot;" text-anchor="middle" textLength="64.34">MILWAUKEE, WI 53221</text><path d="M299.82 378.44h67.22-.09l.35-.02.34-.07.32-.12.3-.17.27-.22.23-.26.19-.3.14-.32.08-.33.03-.35v-15.22l-.03-.35-.08-.34-.14-.32-.19-.29-.23-.26-.27-.22-.3-.17-.32-.13-.34-.07-.26-.01h-67.22l.26.01-.35-.01-.34.04-.34.1-.31.15-.29.19-.25.25-.21.27-.16.31-.11.33-.06.34v15.4-.17.34l.06.35.11.33.16.3.21.28.25.24.29.2.31.15.34.1.34.04z" style="stroke-width:.53;fill:#fff;fill-opacity:.5"/><text x="333.43" y="366.65" lengthAdjust="spacingAndGlyphs" style="font-size:5.69px;font-family:&quot;Liberation Sans&quot;" text-anchor="middle" textLength="62.61">1121 W GRANGE AVE,</text><text x="333.43" y="374.84" lengthAdjust="spacingAndGlyphs" style="font-size:5.69px;font-family:&quot;Liberation Sans&quot;" text-anchor="middle" textLength="64.34">MILWAUKEE, WI 53221</text><path d="M270.56 144h67.22-.09l.35-.01.34-.07.33-.12.3-.18.27-.22.23-.26.18-.29.14-.32.08-.34.03-.35v-15.22l-.03-.34-.08-.34-.14-.32-.18-.29-.23-.27-.27-.21-.3-.18-.33-.12-.34-.07-.26-.02h-67.22l.26.02-.35-.02-.34.05-.34.09-.31.15-.29.2-.25.24-.2.28-.17.31-.11.33-.05.34-.01.17v15.22l.01-.17v.35l.05.34.11.33.17.31.2.28.25.24.29.19.31.15.34.1.34.04z" style="stroke-width:.53;fill:#fff;fill-opacity:.5"/><text x="304.17" y="132.21" lengthAdjust="spacingAndGlyphs" style="font-size:5.69px;font-family:&quot;Liberation Sans&quot;" text-anchor="middle" textLength="47.4">4337 S 60TH ST,</text><text x="304.17" y="140.4" lengthAdjust="spacingAndGlyphs" style="font-size:5.69px;font-family:&quot;Liberation Sans&quot;" text-anchor="middle" textLength="64.34">MILWAUKEE, WI 53220</text></g><g clip-path="url(#cpMC4wMHw1NzYuMDB8MC4wMHw1NzYuMDA=)"><circle cx="196.98" cy="95.78" r="1.95" style="stroke-width:.71;stroke:none;fill:#f8766d"/><path d="m273.33 92.74 2.63 4.56h-5.26z" style="stroke-width:.71;stroke:none;fill:#00ba38"/><path d="M339.31 97.74h3.91v-3.91h-3.91z" style="stroke-width:.71;stroke:none;fill:#619cff"/><text x="211.09" y="98.81" lengthAdjust="spacingAndGlyphs" style="font-size:8.8px;font-family:&quot;Liberation Sans Narrow&quot;" textLength="48.12">mprop address</text><text x="287.45" y="98.81" lengthAdjust="spacingAndGlyphs" style="font-size:8.8px;font-family:&quot;Liberation Sans Narrow&quot;" textLength="39.69">owner name</text><text x="355.38" y="98.81" lengthAdjust="spacingAndGlyphs" style="font-size:8.8px;font-family:&quot;Liberation Sans Narrow&quot;" textLength="40.5">wdfi address</text><text x="32.63" y="64.23" lengthAdjust="spacingAndGlyphs" style="font-size:12px;font-family:&quot;Liberation Sans Narrow&quot;" textLength="246.76">includes 5 parcels, 26 units, and 3 distinct owner names.</text><text x="32.63" y="42.27" lengthAdjust="spacingAndGlyphs" style="font-size:18px;font-weight:700;font-family:&quot;Liberation Sans Narrow&quot;" textLength="246.79">FOREMOST HOLDINGS LLC Group</text></g></svg>