<svg xmlns="http://www.w3.org/2000/svg" width="384" height="480" class="svglite" viewBox="0 0 288 360"><defs><style><![CDATA[.svglite line,.svglite polyline,.svglite polygon,.svglite path,.svglite circle{fill:none;stroke:#000000;stroke-linecap:round;stroke-linejoin:round;stroke-miterlimit:10.00}]]></style></defs><rect width="100%" height="100%" style="stroke-linecap:round;stroke-linejoin:round;stroke-miterlimit:10.00;stroke:none;fill:#FFFFFF"/><defs><clipPath id="cpMC4wMHwyODguMDB8MC4wMHwzNjAuMDA="><path d="M0 0h288v360H0z"/></clipPath></defs><g clip-path="url(#cpMC4wMHwyODguMDB8MC4wMHwzNjAuMDA=)"><path d="M0 0h288v360H0z" style="stroke-width:1.07;stroke:none;fill:#FFFFFF"/></g><defs><clipPath id="cpMzIuNjN8MjU4LjExfDE0MS4yMnwzMjcuMzc="><path d="M32.63 141.22h225.48v186.15H32.63z"/></clipPath></defs><g clip-path="url(#cpMzIuNjN8MjU4LjExfDE0MS4yMnwzMjcuMzc=)"><path d="m247.86 150.31-1.09-.15-1.08-.13-1.09-.11-1.09-.09-1.08-.06-1.09-.05-1.08-.03h-1.08l-1.08.01-1.08.03-1.08.06-1.08.07-1.07.1-1.08.12-1.07.13-1.07.16-1.07.18-1.07.2-1.07.22-1.07.23-1.07.26-1.07.28-1.06.3-1.06.32-1.07.34-1.06.37-1.06.38-1.06.4-1.06.42-1.06.45-1.05.46-1.06.48-1.05.51-1.05.52-1.06.55-1.05.56-1.05.59-1.04.61-1.05.62-1.05.65-1.04.67-1.05.69-1.04.7-1.04.73-1.04.75-1.04.77-1.04.79-1.04.81-1.03.84-1.04.85-1.03.87-1.04.89-1.03.91-1.03.94-1.03.95-1.03.97-1.03 1-1.02 1.01-1.03 1.04-1.02 1.06-1.03 1.07-1.02 1.1-1.02 1.12-1.02 1.13-1.02 1.16-1.01 1.18-1.02 1.2-1.02 1.22-1.01 1.24-1.01 1.26-1.02 1.28-1.01 1.3-1.01 1.32-1.01 1.34-1 1.36-1.01 1.39-1.01 1.4-1 1.42-1 1.45-1.01 1.46-1 1.48-1 1.51-1 1.53-.99 1.54-1 1.57-1 1.58-.99 1.61-.99 1.63-1 1.65-.99 1.67-.99 1.68-.99 1.71-.99 1.73-.98 1.75-.99 1.77-.98 1.8-.99 1.81-.98 1.83-.98 1.85m-102.49 84.3 1.03-.85 1.04-.85 1.03-.85 1.04-.85 1.03-.86 1.04-.85 1.03-.85 1.04-.85 1.03-.85 1.04-.85 1.04-.86 1.03-.85 1.04-.85 1.03-.85 1.04-.85 1.03-.85 1.04-.85 1.03-.86 1.04-.85 1.03-.85 1.04-.85 1.03-.85 1.04-.85 1.03-.86 1.04-.85 1.03-.85 1.04-.85 1.03-.85 1.04-.85 1.04-.85 1.03-.86 1.04-.85 1.03-.85 1.04-.85 1.03-.85 1.04-.85 1.03-.85 1.04-.86 1.03-.85 1.04-.85 1.03-.85 1.04-.85 1.03-.85 1.04-.86 1.03-.85 1.04-.85 1.04-.85 1.03-.85 1.04-.85 1.03-.85 1.04-.86 1.03-.85 1.04-.85 1.03-.85 1.04-.85 1.03-.85 1.04-.86 1.03-.85 1.04-.85 1.03-.85 1.04-.85 1.03-.85 1.04-.85 1.04-.86 1.03-.85 1.04-.85 1.03-.85 1.04-.85 1.03-.85 1.04-.85 1.03-.86 1.04-.85 1.03-.85 1.04-.85 1.03-.85 1.04-.85 1.03-.86 1.04-.85 1.03-.85 1.04-.85 1.03-.85 1.04-.85 1.04-.85 1.03-.86 1.04-.85 1.03-.85 1.04-.85 1.03-.85 1.04-.85 1.03-.86 1.04-.85 1.03-.85 1.04-.85 1.03-.85 1.04-.85 1.03-.85 1.04-.86 1.03-.85 1.04-.85m102.49-84.3-.98 1.85-.98 1.83-.98 1.81-.99 1.79-.98 1.77-.99 1.75-.99 1.73-.99 1.71-.99 1.69-.99 1.67-.99 1.65-1 1.63-.99 1.6-1 1.59-.99 1.57-1 1.54-1 1.53-1 1.5-1 1.49-1 1.46-1.01 1.45-1 1.42-1.01 1.4-1 1.39-1.01 1.36-1.01 1.34-1.01 1.32-1.01 1.3-1.01 1.28-1.02 1.26-1.01 1.24-1.02 1.22-1.01 1.2-1.02 1.18-1.02 1.16-1.02 1.13-1.02 1.12-1.02 1.1-1.02 1.07-1.03 1.06-1.02 1.03-1.03 1.02-1.03.99-1.03.98-1.03.95-1.03.93-1.03.92-1.03.89-1.04.87-1.03.85-1.04.83-1.04.82-1.03.79-1.04.77-1.05.74-1.04.73-1.04.71-1.04.69-1.05.67-1.05.65-1.04.62-1.05.61-1.05.59-1.05.56-1.05.55-1.06.52-1.05.51-1.06.48-1.05.46-1.06.45-1.06.42-1.06.4-1.06.38-1.06.36-1.06.34-1.07.33-1.06.3-1.07.28-1.06.25-1.07.24-1.07.22-1.07.2-1.07.18-1.08.15-1.07.14-1.08.12-1.07.09-1.08.08-1.08.05-1.08.04-1.08.01h-1.08l-1.08-.03-1.08-.05-1.09-.06-1.09-.09-1.08-.11-1.09-.13-1.09-.15" style="stroke-width:1.07;stroke:#000000;stroke-opacity:0.10;stroke-linecap:butt"/><path d="m247.86 142.23 7 12.12h-13.99zM42.88 316.7l1.91 3.32h-3.83z" style="stroke-width:0.71;stroke:none;fill:#00BFC4"/><circle cx="145.37" cy="234.61" r="6.76" style="stroke-width:0.71;stroke:none;fill:#F8766D"/><path d="m242.99 151.27 3.64-.72M47.71 315.51l-3.87 2.72m106.88-88.26-4.47 3.88" style="stroke-width:0.53;stroke:#BFBFBF"/><path d="M182.04 156.94h58.79-.09l.35-.01.34-.07.33-.13.3-.17.27-.22.23-.26.18-.29.14-.32.08-.34.03-.35h0v-6.96h0l-.03-.35-.08-.33-.14-.32-.18-.3-.23-.26-.27-.22-.3-.17-.33-.12-.34-.07-.26-.02h-58.79l.26.02-.35-.02-.35.04-.33.1-.31.15-.29.2-.25.24-.21.28-.16.3-.11.33-.06.35v7.13-.17.35l.06.34.11.33.16.31.21.28.25.24.29.19.31.15.33.1.35.04z" style="stroke-width:0.53;fill:#FFFFFF;fill-opacity:0.50"/><text x="211.43" y="153.34" lengthAdjust="spacingAndGlyphs" style="font-size:5.69px;font-family:Arial" text-anchor="middle" textLength="55.92">FREDERICK E ROBB</text><path d="M49.87 318.69h55-.09l.35-.02.34-.07.32-.12.3-.17.27-.22.23-.26.19-.3.14-.32.08-.34.03-.34h0v-6.96h0l-.03-.35-.08-.34-.14-.32-.19-.29-.23-.26-.27-.22-.3-.18-.32-.12-.34-.07-.26-.01h-55l.26.01-.35-.01-.35.04-.33.1-.31.14-.29.2-.25.24-.21.28-.16.31-.11.33-.06.34v7.14-.18.35l.06.34.11.33.16.31.21.28.25.24.29.2.31.15.33.09.35.05z" style="stroke-width:0.53;fill:#FFFFFF;fill-opacity:0.50"/><text x="77.37" y="315.09" lengthAdjust="spacingAndGlyphs" style="font-size:5.69px;font-family:Arial" text-anchor="middle" textLength="52.12">FREDRICK E ROBB</text><path d="M130.55 229.97h64.49-.08l.34-.02.34-.07.33-.12.3-.17.27-.22.23-.26.18-.3.14-.32.08-.34.03-.34h0v-15.16h0l-.03-.35-.08-.33-.14-.32-.18-.3-.23-.26-.27-.22-.3-.17-.33-.12-.34-.07-.26-.02h-64.49l.26.02-.35-.02-.34.04-.33.1-.32.15-.28.2-.26.24-.2.28-.17.3-.11.33-.05.35-.01.17v15.16l.01-.18v.35l.05.34.11.33.17.31.2.28.26.24.28.2.32.15.33.09.34.05z" style="stroke-width:0.53;fill:#FFFFFF;fill-opacity:0.50"/><text x="162.8" y="218.17" lengthAdjust="spacingAndGlyphs" style="font-size:5.69px;font-family:Arial" text-anchor="middle" textLength="40.76">PO BOX 16856,</text><text x="162.8" y="226.37" lengthAdjust="spacingAndGlyphs" style="font-size:5.69px;font-family:Arial" text-anchor="middle" textLength="61.61">MILWAUKEE, WI 53216</text></g><g clip-path="url(#cpMC4wMHwyODguMDB8MC4wMHwzNjAuMDA=)"><circle cx="87.34" cy="116.15" r="1.95" style="stroke-width:0.71;stroke:none;fill:#F8766D"/><path d="m163.7 113.11 2.63 4.56h-5.26z" style="stroke-width:0.71;stroke:none;fill:#00BFC4"/><text x="101.46" y="119.3" lengthAdjust="spacingAndGlyphs" style="font-size:8.80px;font-family:Arial Narrow" textLength="48.12">mprop address</text><text x="177.82" y="119.3" lengthAdjust="spacingAndGlyphs" style="font-size:8.80px;font-family:Arial Narrow" textLength="39.69">owner name</text><text x="32.63" y="84.56" lengthAdjust="spacingAndGlyphs" style="font-size:12.00px;font-family:Arial Narrow" textLength="241.29">includes 3 parcels, 4 units, and 2 distinct owner names.</text><text x="32.63" y="42.78" lengthAdjust="spacingAndGlyphs" style="font-size:18.00px;font-weight:bold;font-family:Arial Narrow" textLength="161.51">FREDERICK E ROBB --</text><text x="32.63" y="62.22" lengthAdjust="spacingAndGlyphs" style="font-size:18.00px;font-weight:bold;font-family:Arial Narrow" textLength="186.11">FREDRICK E ROBB Group</text></g></svg>