<svg xmlns="http://www.w3.org/2000/svg" width="576" height="576" class="svglite" viewBox="0 0 432 432"><defs><style>.svglite circle,.svglite line,.svglite polygon,.svglite polyline,.svglite rect{fill:none;stroke:#000;stroke-linecap:round;stroke-linejoin:round;stroke-miterlimit:10}.svglite text{white-space:pre}</style></defs><rect width="100%" height="100%" style="stroke:none;fill:#fff"/><defs><clipPath id="cpMC4wMHw0MzIuMDB8MC4wMHw0MzIuMDA="><path d="M0 0h432v432H0z"/></clipPath></defs><g clip-path="url(#cpMC4wMHw0MzIuMDB8MC4wMHw0MzIuMDA=)"><path d="M0 0h432v432H0z" style="stroke-width:1.07;stroke:none;fill:#fff"/></g><defs><clipPath id="cpMzIuNjN8NDAyLjExfDEyMC44NnwzOTkuMzc="><path d="M32.63 120.86h369.48v278.51H32.63z"/></clipPath></defs><g clip-path="url(#cpMzIuNjN8NDAyLjExfDEyMC44NnwzOTkuMzc=)"><path d="m133.4 323.41.84-.64.85-.64.85-.64.85-.63.85-.64.85-.64.84-.64.85-.64.85-.64.85-.64.85-.64.84-.64.85-.64.85-.64.85-.64.85-.64.85-.64.84-.64.85-.64.85-.63.85-.64.85-.64.84-.64.85-.64.85-.64.85-.64.85-.64.85-.64.84-.64.85-.64.85-.64.85-.64.85-.64.85-.64.84-.64.85-.64.85-.63.85-.64.85-.64.84-.64.85-.64.85-.64.85-.64.85-.64.85-.64.84-.64.85-.64.85-.64.85-.64.85-.64.84-.64.85-.64.85-.63.85-.64.85-.64.85-.64.84-.64.85-.64.85-.64.85-.64.85-.64.85-.64.84-.64.85-.64.85-.64.85-.64.85-.64.84-.64.85-.64.85-.63.85-.64.85-.64.85-.64.84-.64.85-.64.85-.64.85-.64.85-.64.84-.64.85-.64.85-.64.85-.64.85-.64.85-.64.84-.64.85-.63.85-.64.85-.64.85-.64.85-.64.84-.64.85-.64.85-.64.85-.64.85-.64.84-.64.85-.64.85-.64.85-.64M133.4 323.41l-.85.64-.85.64-.85.64-.85.64-.85.64-.84.64-.85.64-.85.64-.85.64-.85.64-.84.64-.85.64-.85.64-.85.63-.85.64-.85.64-.84.64-.85.64-.85.64-.85.64-.85.64-.84.64-.85.64-.85.64-.85.64-.85.64-.85.64-.84.64-.85.64-.85.63-.85.64-.85.64-.85.64-.84.64-.85.64-.85.64-.85.64-.85.64-.84.64-.85.64-.85.64-.85.64-.85.64-.85.64-.84.64-.85.64-.85.63-.85.64-.85.64-.84.64-.85.64-.85.64-.85.64-.85.64-.85.64-.84.64-.85.64-.85.64-.85.64-.85.64-.85.64-.84.64-.85.63-.85.64-.85.64-.85.64-.84.64-.85.64-.85.64-.85.64-.85.64-.85.64-.84.64-.85.64-.85.64-.85.64-.85.64-.85.64-.84.63-.85.64-.85.64-.85.64-.85.64-.84.64-.85.64-.85.64-.85.64-.85.64-.85.64-.84.64-.85.64-.85.64-.85.64-.85.64-.84.64-.85.63-.85.64-.85.64-.85.64M301.34 196.82l-.84.64-.85.64-.85.64-.85.64-.85.63-.85.64-.84.64-.85.64-.85.64-.85.64-.85.64-.85.64-.84.64-.85.64-.85.64-.85.64-.85.64-.84.64-.85.64-.85.63-.85.64-.85.64-.85.64-.84.64-.85.64-.85.64-.85.64-.85.64-.85.64-.84.64-.85.64-.85.64-.85.64-.85.64-.84.63-.85.64-.85.64-.85.64-.85.64-.85.64-.84.64-.85.64-.85.64-.85.64-.85.64-.84.64-.85.64-.85.64-.85.64-.85.64-.85.63-.84.64-.85.64-.85.64-.85.64-.85.64-.85.64-.84.64-.85.64-.85.64-.85.64-.85.64-.84.64-.85.64-.85.64-.85.63-.85.64-.85.64-.84.64-.85.64-.85.64-.85.64-.85.64-.85.64-.84.64-.85.64-.85.64-.85.64-.85.64-.84.64-.85.63-.85.64-.85.64-.85.64-.85.64-.84.64-.85.64-.85.64-.85.64-.85.64-.84.64-.85.64-.85.64-.85.64-.85.64-.85.64-.84.63-.85.64-.85.64M301.34 196.82l.85-.64.85-.64.85-.64.85-.64.84-.64.85-.64.85-.64.85-.64.85-.64.85-.64.84-.64.85-.63.85-.64.85-.64.85-.64.84-.64.85-.64.85-.64.85-.64.85-.64.85-.64.84-.64.85-.64.85-.64.85-.64.85-.64.85-.63.84-.64.85-.64.85-.64.85-.64.85-.64.84-.64.85-.64.85-.64.85-.64.85-.64.85-.64.84-.64.85-.64.85-.64.85-.63.85-.64.85-.64.84-.64.85-.64.85-.64.85-.64.85-.64.84-.64.85-.64.85-.64.85-.64.85-.64.85-.64.84-.64.85-.64.85-.63.85-.64.85-.64.84-.64.85-.64.85-.64.85-.64.85-.64.85-.64.84-.64.85-.64.85-.64.85-.64.85-.64.85-.64.84-.63.85-.64.85-.64.85-.64.85-.64.84-.64.85-.64.85-.64.85-.64.85-.64.85-.64.84-.64.85-.64.85-.64.85-.64.85-.63.85-.64.84-.64.85-.64.85-.64.85-.64.85-.64.84-.64.85-.64.85-.64.85-.64.85-.64" style="stroke-width:1.07;stroke:#000;stroke-opacity:.1;stroke-linecap:butt"/><path d="m133.4 312.91 9.09 15.76H124.3zM301.34 194.61l1.92 3.31h-3.83z" style="stroke-width:.71;stroke:none;fill:#00ba38"/><circle cx="217.37" cy="260.11" r="6.76" style="stroke-width:.71;stroke:none;fill:#f8766d"/><circle cx="49.42" cy="386.71" r="1.42" style="stroke-width:.71;stroke:none;fill:#f8766d"/><path d="M383.9 134.94h2.84v-2.84h-2.84z" style="stroke-width:.71;stroke:none;fill:#619cff"/><path d="m127.88 327.96 4.62-3.81M306.85 192.28l-4.61 3.8M211.63 264.65l4.82-3.81M54.07 383.82l-3.62 2.25M380.69 136.32l3.59-2.17" style="stroke-width:.53;stroke:#bfbfbf"/><path d="M101.51 339.31h36.66-.09l.35-.02.34-.07.32-.12.31-.17.26-.22.24-.26.18-.3.14-.32.08-.33.03-.35v-7.03l-.03-.34-.08-.34-.14-.32-.18-.3-.24-.26-.26-.22-.31-.17-.32-.12-.34-.07-.26-.02h-36.66l.26.02-.35-.02-.35.05-.33.09-.31.15-.29.2-.25.24-.21.28-.16.3-.11.33-.06.35v7.2-.18.35l.06.35.11.33.16.3.21.28.25.24.29.2.31.15.33.1.35.04z" style="stroke-width:.53;fill:#fff;fill-opacity:.5"/><text x="119.84" y="335.71" lengthAdjust="spacingAndGlyphs" style="font-size:5.69px;font-family:&quot;Liberation Sans&quot;" text-anchor="middle" textLength="33.78">G HI-LO LLC</text><path d="M288.28 192.28h53.31-.09l.35-.02.34-.07.32-.12.3-.17.27-.22.23-.26.19-.3.13-.32.09-.34.03-.34v-7.03l-.03-.35-.09-.33-.13-.32-.19-.3-.23-.26-.27-.22-.3-.17-.32-.12-.34-.07-.26-.02h-53.31l.26.02-.35-.02-.35.04-.33.1-.31.15-.29.2-.25.24-.21.28-.16.3-.11.33-.06.35v7.2-.18.35l.06.35.11.33.16.3.21.28.25.24.29.2.31.15.33.09.35.05z" style="stroke-width:.53;fill:#fff;fill-opacity:.5"/><text x="314.93" y="188.68" lengthAdjust="spacingAndGlyphs" style="font-size:5.69px;font-family:&quot;Liberation Sans&quot;" text-anchor="middle" textLength="50.43">WILLY BRAND LLC</text><path d="M164.78 284.19H232h-.09l.35-.01.34-.07.33-.13.3-.17.27-.22.23-.26.18-.29.14-.32.08-.34.03-.35v-15.22l-.03-.35-.08-.33-.14-.32-.18-.3-.23-.26-.27-.22-.3-.17-.33-.12-.34-.07-.26-.02h-67.22l.26.02-.35-.02-.34.04-.34.1-.31.15-.29.2-.25.24-.21.28-.16.3-.11.33-.05.35-.01.17v15.22l.01-.17v.35l.05.34.11.33.16.31.21.28.25.24.29.19.31.15.34.1.34.04z" style="stroke-width:.53;fill:#fff;fill-opacity:.5"/><text x="198.39" y="272.4" lengthAdjust="spacingAndGlyphs" style="font-size:5.69px;font-family:&quot;Liberation Sans&quot;" text-anchor="middle" textLength="48.05">2500 N 35TH ST,</text><text x="198.39" y="280.59" lengthAdjust="spacingAndGlyphs" style="font-size:5.69px;font-family:&quot;Liberation Sans&quot;" text-anchor="middle" textLength="64.34">MILWAUKEE, WI 53210</text><path d="M56.23 391.35h67.22l-.09-.01.35-.01.34-.07.33-.12.3-.18.27-.22.23-.26.18-.29.14-.32.08-.34.03-.34v-15.23l-.03-.34-.08-.34-.14-.32-.18-.29-.23-.26-.27-.22-.3-.18-.33-.12-.34-.07-.26-.02H56.23l.26.02-.35-.01-.34.04-.33.09-.32.15-.28.2-.26.24-.2.28-.17.31-.11.33-.05.34-.01.17v15.23l.01-.18v.35l.05.34.11.33.17.31.2.28.26.24.28.2.32.15.33.09.34.04z" style="stroke-width:.53;fill:#fff;fill-opacity:.5"/><text x="89.84" y="379.55" lengthAdjust="spacingAndGlyphs" style="font-size:5.69px;font-family:&quot;Liberation Sans&quot;" text-anchor="middle" textLength="41.99">2601 35TH ST,</text><text x="89.84" y="387.75" lengthAdjust="spacingAndGlyphs" style="font-size:5.69px;font-family:&quot;Liberation Sans&quot;" text-anchor="middle" textLength="64.34">MILWAUKEE, WI 53210</text><path d="M308.99 147.98h69.54-.09l.35-.02.34-.07.32-.12.3-.18.27-.22.23-.26.19-.29.14-.32.08-.34.03-.34V130.6l-.03-.35-.08-.34-.14-.32-.19-.29-.23-.26-.27-.22-.3-.18-.32-.12-.34-.07-.26-.01h-69.54l.26.01-.35-.01-.34.04-.34.1-.31.14-.29.2-.25.24-.21.28-.16.31-.11.33-.05.34-.01.18v15.22l.01-.18v.35l.05.34.11.33.16.31.21.28.25.24.29.2.31.15.34.09.34.05z" style="stroke-width:.53;fill:#fff;fill-opacity:.5"/><text x="343.76" y="136.18" lengthAdjust="spacingAndGlyphs" style="font-size:5.69px;font-family:&quot;Liberation Sans&quot;" text-anchor="middle" textLength="64.32">6185 ROSETREE PASS,</text><text x="343.76" y="144.38" lengthAdjust="spacingAndGlyphs" style="font-size:5.69px;font-family:&quot;Liberation Sans&quot;" text-anchor="middle" textLength="66.66">NEW BERLIN, WI 53151</text></g><g clip-path="url(#cpMC4wMHw0MzIuMDB8MC4wMHw0MzIuMDA=)"><circle cx="122.24" cy="95.78" r="1.95" style="stroke-width:.71;stroke:none;fill:#f8766d"/><path d="m198.59 92.74 2.63 4.56h-5.26z" style="stroke-width:.71;stroke:none;fill:#00ba38"/><path d="M264.57 97.74h3.91v-3.91h-3.91z" style="stroke-width:.71;stroke:none;fill:#619cff"/><text x="136.36" y="98.81" lengthAdjust="spacingAndGlyphs" style="font-size:8.8px;font-family:&quot;Liberation Sans Narrow&quot;" textLength="48.12">mprop address</text><text x="212.71" y="98.81" lengthAdjust="spacingAndGlyphs" style="font-size:8.8px;font-family:&quot;Liberation Sans Narrow&quot;" textLength="39.69">owner name</text><text x="280.64" y="98.81" lengthAdjust="spacingAndGlyphs" style="font-size:8.8px;font-family:&quot;Liberation Sans Narrow&quot;" textLength="40.5">wdfi address</text><text x="32.63" y="64.23" lengthAdjust="spacingAndGlyphs" style="font-size:12px;font-family:&quot;Liberation Sans Narrow&quot;" textLength="246.76">includes 3 parcels, 10 units, and 2 distinct owner names.</text><text x="32.63" y="42.27" lengthAdjust="spacingAndGlyphs" style="font-size:18px;font-weight:700;font-family:&quot;Liberation Sans Narrow&quot;" textLength="136.92">G HI-LO LLC Group</text></g></svg>