<svg xmlns="http://www.w3.org/2000/svg" width="576" height="672" class="svglite" viewBox="0 0 432 504"><defs><style><![CDATA[.svglite line,.svglite polyline,.svglite polygon,.svglite path,.svglite circle{fill:none;stroke:#000000;stroke-linecap:round;stroke-linejoin:round;stroke-miterlimit:10.00}]]></style></defs><rect width="100%" height="100%" style="stroke-linecap:round;stroke-linejoin:round;stroke-miterlimit:10.00;stroke:none;fill:#FFFFFF"/><defs><clipPath id="cpMC4wMHw0MzIuMDB8MC4wMHw1MDQuMDA="><path d="M0 0h432v504H0z"/></clipPath></defs><g clip-path="url(#cpMC4wMHw0MzIuMDB8MC4wMHw1MDQuMDA=)"><path d="M0 0h432v504H0z" style="stroke-width:1.07;stroke:none;fill:#FFFFFF"/></g><defs><clipPath id="cpMzIuNjN8NDAyLjExfDEyMS43OHw0NzEuMzc="><path d="M32.63 121.78h369.48v349.59H32.63z"/></clipPath></defs><g clip-path="url(#cpMzIuNjN8NDAyLjExfDEyMS43OHw0NzEuMzc=)"><path d="m133.4 376.03.84-.8.85-.81.85-.8.85-.8.85-.81.85-.8.84-.8.85-.8.85-.81.85-.8.85-.8.84-.8.85-.81.85-.8.85-.8.85-.8.85-.81.84-.8.85-.8.85-.8.85-.81.85-.8.84-.8.85-.8.85-.81.85-.8.85-.8.85-.8.84-.81.85-.8.85-.8.85-.8.85-.81.85-.8.84-.8.85-.81.85-.8.85-.8.85-.8.84-.81.85-.8.85-.8.85-.8.85-.81.85-.8.84-.8.85-.8.85-.81.85-.8.85-.8.84-.8.85-.81.85-.8.85-.8.85-.8.85-.81.84-.8.85-.8.85-.8.85-.81.85-.8.85-.8.84-.8.85-.81.85-.8.85-.8.85-.8.84-.81.85-.8.85-.8.85-.81.85-.8.85-.8.84-.8.85-.81.85-.8.85-.8.85-.8.84-.81.85-.8.85-.8.85-.8.85-.81.85-.8.84-.8.85-.8.85-.81.85-.8.85-.8.85-.8.84-.81.85-.8.85-.8.85-.8.85-.81.84-.8.85-.8.85-.8.85-.81m-83.97 79.46-.85.8-.85.8-.85.81-.85.8-.85.8-.84.8-.85.81-.85.8-.85.8-.85.8-.84.81-.85.8-.85.8-.85.8-.85.81-.85.8-.84.8-.85.8-.85.81-.85.8-.85.8-.84.8-.85.81-.85.8-.85.8-.85.8-.85.81-.84.8-.85.8-.85.8-.85.81-.85.8-.85.8-.84.8-.85.81-.85.8-.85.8-.85.81-.84.8-.85.8-.85.8-.85.81-.85.8-.85.8-.84.8-.85.81-.85.8-.85.8-.85.8-.84.81-.85.8-.85.8-.85.8-.85.81-.85.8-.84.8-.85.8-.85.81-.85.8-.85.8-.85.8-.84.81-.85.8-.85.8-.85.8-.85.81-.84.8-.85.8-.85.8-.85.81-.85.8-.85.8-.84.81-.85.8-.85.8-.85.8-.85.81-.85.8-.84.8-.85.8-.85.81-.85.8-.85.8-.84.8-.85.81-.85.8-.85.8-.85.8-.85.81-.84.8-.85.8-.85.8-.85.81-.85.8-.84.8-.85.8-.85.81-.85.8-.85.8m251.92-238.36-.84.81-.85.8-.85.8-.85.8-.85.81-.85.8-.84.8-.85.8-.85.81-.85.8-.85.8-.85.8-.84.81-.85.8-.85.8-.85.8-.85.81-.84.8-.85.8-.85.8-.85.81-.85.8-.85.8-.84.8-.85.81-.85.8-.85.8-.85.8-.85.81-.84.8-.85.8-.85.8-.85.81-.85.8-.84.8-.85.8-.85.81-.85.8-.85.8-.85.8-.84.81-.85.8-.85.8-.85.8-.85.81-.84.8-.85.8-.85.8-.85.81-.85.8-.85.8-.84.8-.85.81-.85.8-.85.8-.85.8-.85.81-.84.8-.85.8-.85.8-.85.81-.85.8-.84.8-.85.8-.85.81-.85.8-.85.8-.85.8-.84.81-.85.8-.85.8-.85.8-.85.81-.85.8-.84.8-.85.81-.85.8-.85.8-.85.8-.84.81-.85.8-.85.8-.85.8-.85.81-.85.8-.84.8-.85.8-.85.81-.85.8-.85.8-.84.8-.85.81-.85.8-.85.8-.85.8-.85.81-.84.8-.85.8-.85.8m83.97-79.45.85-.8.85-.8.85-.8.85-.81.84-.8.85-.8.85-.8.85-.81.85-.8.85-.8.84-.8.85-.81.85-.8.85-.8.85-.8.84-.81.85-.8.85-.8.85-.8.85-.81.85-.8.84-.8.85-.8.85-.81.85-.8.85-.8.85-.8.84-.81.85-.8.85-.8.85-.8.85-.81.84-.8.85-.8.85-.8.85-.81.85-.8.85-.8.84-.8.85-.81.85-.8.85-.8.85-.8.85-.81.84-.8.85-.8.85-.8.85-.81.85-.8.84-.8.85-.8.85-.81.85-.8.85-.8.85-.8.84-.81.85-.8.85-.8.85-.8.85-.81.84-.8.85-.8.85-.8.85-.81.85-.8.85-.8.84-.8.85-.81.85-.8.85-.8.85-.8.85-.81.84-.8.85-.8.85-.8.85-.81.85-.8.84-.8.85-.81.85-.8.85-.8.85-.8.85-.81.84-.8.85-.8.85-.8.85-.81.85-.8.85-.8.84-.8.85-.81.85-.8.85-.8.85-.8.84-.81.85-.8.85-.8.85-.8.85-.81" style="stroke-width:1.07;stroke:#000000;stroke-opacity:0.10;stroke-linecap:butt"/><path d="m133.4 365.52 9.09 15.76H124.3zm167.94-150.61 1.92 3.32h-3.83z" style="stroke-width:0.71;stroke:none;fill:#00BA38"/><circle cx="217.37" cy="296.57" r="6.76" style="stroke-width:0.71;stroke:none;fill:#F8766D"/><circle cx="49.42" cy="455.48" r="1.42" style="stroke-width:0.71;stroke:none;fill:#F8766D"/><path d="M383.9 139.1h2.84v-2.85h-2.84z" style="stroke-width:0.71;stroke:none;fill:#619CFF"/><path d="m137.87 371.39-3.69 3.83M296.84 221.8l3.72-3.87m-78.54 74.02-3.85 3.83" style="stroke-width:0.53;stroke:#BFBFBF"/><path d="M126.25 371.39h36.04l-.09-.01.35-.01.34-.07.32-.12.3-.18.27-.22.23-.26.19-.29.13-.32.09-.34.03-.34h0v-6.97h0l-.03-.34-.09-.34-.13-.32-.19-.29-.23-.26-.27-.22-.3-.18-.32-.12-.34-.07-.26-.02h-36.04l.26.02-.35-.02-.34.05-.34.09-.31.15-.29.2-.25.24-.21.28-.16.31-.11.33-.05.34-.01.17v6.97l.01-.18v.35l.05.34.11.33.16.31.21.28.25.24.29.2.31.15.34.09.34.04z" style="stroke-width:0.53;fill:#FFFFFF;fill-opacity:0.50"/><text x="144.27" y="367.79" lengthAdjust="spacingAndGlyphs" style="font-size:5.69px;font-family:Arial" text-anchor="middle" textLength="33.16">G HI-LO LLC</text><path d="M263.77 233.09h53.42l-.08-.01.34-.01.34-.07.33-.12.3-.18.27-.22.23-.26.19-.29.13-.32.09-.34.02-.34h0v-6.97h0l-.02-.34-.09-.34-.13-.32-.19-.29-.23-.26-.27-.22-.3-.18-.33-.12-.34-.07-.26-.02h-53.42l.26.02-.35-.01-.34.04-.34.09-.31.15-.29.2-.25.24-.21.28-.16.31-.11.33-.05.34-.01.17v6.97l.01-.18v.35l.05.34.11.33.16.31.21.28.25.24.29.2.31.15.34.09.34.04z" style="stroke-width:0.53;fill:#FFFFFF;fill-opacity:0.50"/><text x="290.48" y="229.49" lengthAdjust="spacingAndGlyphs" style="font-size:5.69px;font-family:Arial" text-anchor="middle" textLength="50.54">WILLY BRAND LLC</text><path d="M200.28 291.95h64.49l-.09-.01.35-.01.34-.07.33-.12.3-.18.27-.22.23-.26.18-.29.14-.32.08-.34.03-.34h0v-15.16h0l-.03-.35-.08-.34-.14-.32-.18-.29-.23-.26-.27-.22-.3-.17-.33-.13-.34-.07-.26-.01h-64.49l.26.01-.35-.01-.34.04-.34.1-.31.15-.29.2-.25.24-.2.27-.17.31-.11.33-.05.34-.01.18v15.16l.01-.18v.35l.05.34.11.33.17.31.2.28.25.24.29.2.31.15.34.09.34.04z" style="stroke-width:0.53;fill:#FFFFFF;fill-opacity:0.50"/><text x="232.53" y="280.15" lengthAdjust="spacingAndGlyphs" style="font-size:5.69px;font-family:Arial" text-anchor="middle" textLength="44.23">2500 N 35TH ST,</text><text x="232.53" y="288.35" lengthAdjust="spacingAndGlyphs" style="font-size:5.69px;font-family:Arial" text-anchor="middle" textLength="61.61">MILWAUKEE, WI 53210</text><path d="M56.09 465.22h64.49-.08l.34-.02.35-.07.32-.12.3-.18.27-.22.23-.26.19-.29.13-.32.09-.34.02-.34h0V447.9h0l-.02-.35-.09-.33-.13-.32-.19-.3-.23-.26-.27-.22-.3-.17-.32-.12-.35-.07-.26-.02H56.09l.26.02-.34-.02-.35.04-.33.1-.32.15-.28.2-.25.24-.21.28-.16.3-.11.33-.06.35-.01.17v15.16l.01-.18v.35l.06.34.11.33.16.31.21.28.25.24.28.2.32.15.33.09.35.05z" style="stroke-width:0.53;fill:#FFFFFF;fill-opacity:0.50"/><text x="88.34" y="453.42" lengthAdjust="spacingAndGlyphs" style="font-size:5.69px;font-family:Arial" text-anchor="middle" textLength="38.55">2601 35TH ST,</text><text x="88.34" y="461.62" lengthAdjust="spacingAndGlyphs" style="font-size:5.69px;font-family:Arial" text-anchor="middle" textLength="61.61">MILWAUKEE, WI 53210</text><path d="M311.93 147.41h66.72-.09l.35-.01.34-.07.32-.13.3-.17.27-.22.23-.26.19-.29.13-.32.09-.34.03-.35h0v-15.16h0l-.03-.34-.09-.34-.13-.32-.19-.29-.23-.26-.27-.22-.3-.18-.32-.12-.34-.07-.26-.02h-66.72l.26.02-.35-.01-.34.04-.34.09-.31.15-.29.2-.25.24-.2.28-.17.31-.11.33-.05.34-.01.17v15.16l.01-.17v.35l.05.34.11.33.17.31.2.27.25.24.29.2.31.15.34.1.34.04z" style="stroke-width:0.53;fill:#FFFFFF;fill-opacity:0.50"/><text x="345.29" y="135.62" lengthAdjust="spacingAndGlyphs" style="font-size:5.69px;font-family:Arial" text-anchor="middle" textLength="63.84">6185 ROSETREE PASS,</text><text x="345.29" y="143.81" lengthAdjust="spacingAndGlyphs" style="font-size:5.69px;font-family:Arial" text-anchor="middle" textLength="62.86">NEW BERLIN, WI 53151</text></g><g clip-path="url(#cpMC4wMHw0MzIuMDB8MC4wMHw1MDQuMDA=)"><circle cx="124.98" cy="96.71" r="1.95" style="stroke-width:0.71;stroke:none;fill:#F8766D"/><path d="m201.33 93.67 2.63 4.56h-5.26z" style="stroke-width:0.71;stroke:none;fill:#00BA38"/><path d="M267.31 98.66h3.91v-3.91h-3.91z" style="stroke-width:0.71;stroke:none;fill:#619CFF"/><text x="139.09" y="99.86" lengthAdjust="spacingAndGlyphs" style="font-size:8.80px;font-family:Arial Narrow" textLength="48.12">mprop address</text><text x="215.45" y="99.86" lengthAdjust="spacingAndGlyphs" style="font-size:8.80px;font-family:Arial Narrow" textLength="39.69">owner name</text><text x="283.38" y="99.86" lengthAdjust="spacingAndGlyphs" style="font-size:8.80px;font-family:Arial Narrow" textLength="40.5">wdfi address</text><text x="32.63" y="65.12" lengthAdjust="spacingAndGlyphs" style="font-size:12.00px;font-family:Arial Narrow" textLength="241.29">includes 3 parcels, 3 units, and 2 distinct owner names.</text><text x="32.63" y="42.78" lengthAdjust="spacingAndGlyphs" style="font-size:18.00px;font-weight:bold;font-family:Arial Narrow" textLength="289.42">G HI-LO LLC -- WILLY BRAND LLC Group</text></g></svg>