<svg xmlns="http://www.w3.org/2000/svg" width="384" height="480" class="svglite" viewBox="0 0 288 360"><defs><style><![CDATA[.svglite line,.svglite polyline,.svglite polygon,.svglite path,.svglite circle{fill:none;stroke:#000000;stroke-linecap:round;stroke-linejoin:round;stroke-miterlimit:10.00}]]></style></defs><rect width="100%" height="100%" style="stroke-linecap:round;stroke-linejoin:round;stroke-miterlimit:10.00;stroke:none;fill:#FFFFFF"/><defs><clipPath id="cpMC4wMHwyODguMDB8MC4wMHwzNjAuMDA="><path d="M0 0h288v360H0z"/></clipPath></defs><g clip-path="url(#cpMC4wMHwyODguMDB8MC4wMHwzNjAuMDA=)"><path d="M0 0h288v360H0z" style="stroke-width:1.07;stroke:none;fill:#FFFFFF"/></g><defs><clipPath id="cpMzIuNjN8MjU4LjExfDE0MS4yMnwzMjcuMzc="><path d="M32.63 141.22h225.48v186.15H32.63z"/></clipPath></defs><g clip-path="url(#cpMzIuNjN8MjU4LjExfDE0MS4yMnwzMjcuMzc=)"><path d="m247.86 149.69-.69.57-.69.57-.69.56-.69.57-.69.57-.69.57-.69.57-.69.57-.69.57-.69.57-.69.57-.69.57-.69.57-.69.57-.69.57-.69.57-.69.57-.69.57-.69.57-.69.57-.69.57-.69.57-.69.57-.69.57-.69.57-.69.57-.69.57-.69.57-.69.57-.69.57-.69.57-.69.57-.69.57-.69.57-.69.57-.69.57-.69.57-.69.57-.69.57-.69.57-.69.57-.7.57-.69.57-.69.57-.69.57-.69.57-.69.57-.69.57-.69.57-.69.56-.69.57-.69.57-.69.57-.69.57-.69.57-.69.57-.69.57-.69.57-.69.57-.69.57-.69.57-.69.57-.69.57-.69.57-.69.57-.69.57-.69.57-.69.57-.69.57-.69.57-.69.57-.69.57-.69.57-.69.57-.69.57-.69.57-.69.57-.69.57-.69.57-.69.57-.69.57-.69.57-.69.57-.69.57-.69.57-.69.57-.69.57-.69.57-.69.57-.69.57-.69.57-.69.57-.69.57-.69.57-.7.57-.69.56-.69.57-.69.57-.69.57m-68.32 56.41.69-.57.69-.57.69-.57.69-.57.69-.57.69-.57.69-.57.69-.56.69-.57.69-.57.69-.57.69-.57.69-.57.69-.57.69-.57.69-.57.69-.57.69-.57.69-.57.69-.57.69-.57.69-.57.69-.57.69-.57.69-.57.69-.57.69-.57.69-.57.69-.57.69-.57.69-.57.69-.57.69-.57.69-.57.69-.57.69-.57.69-.57.69-.57.69-.57.69-.57.69-.57.69-.57.69-.57.69-.57.69-.57.69-.57.69-.57.69-.57.69-.57.69-.57.7-.57.69-.57.69-.57.69-.57.69-.57.69-.56.69-.57.69-.57.69-.57.69-.57.69-.57.69-.57.69-.57.69-.57.69-.57.69-.57.69-.57.69-.57.69-.57.69-.57.69-.57.69-.57.69-.57.69-.57.69-.57.69-.57.69-.57.69-.57.69-.57.69-.57.69-.57.69-.57.69-.57.69-.57.69-.57.69-.57.69-.57.69-.57.69-.57.69-.57.69-.57.69-.57.69-.57.69-.57.69-.57.69-.57.69-.57.69-.57.69-.57m-68.32 56.41-.69.57-.69.57-.69.57-.7.57-.69.57-.69.57-.69.57-.69.57-.69.57-.69.57-.69.57-.69.57-.69.57-.69.57-.69.57-.69.57-.69.57-.69.57-.69.57-.69.57-.69.57-.69.57-.69.57-.69.57-.69.57-.69.57-.69.57-.69.57-.69.57-.69.57-.69.57-.69.57-.69.57-.69.57-.69.57-.69.57-.69.57-.69.56-.69.57-.69.57-.69.57-.69.57-.69.57-.69.57-.69.57-.69.57-.69.57-.69.57-.69.57-.69.57-.69.57-.69.57-.69.57-.69.57-.69.57-.69.57-.7.57-.69.57-.69.57-.69.57-.69.57-.69.57-.69.57-.69.57-.69.57-.69.57-.69.57-.69.57-.69.57-.69.57-.69.57-.69.57-.69.57-.69.57-.69.57-.69.57-.69.57-.69.57-.69.57-.69.57-.69.57-.69.56-.69.57-.69.57-.69.57-.69.57-.69.57-.69.57-.69.57-.69.57-.69.57-.69.57-.69.57-.69.57-.69.57-.69.57-.69.57-.69.57-.69.57" style="stroke-width:1.07;stroke:#000000;stroke-opacity:0.10;stroke-linecap:butt"/><path d="m247.86 147.48 1.92 3.31h-3.83zM111.21 260.29l1.91 3.32h-3.83z" style="stroke-width:0.71;stroke:none;fill:#00BA38"/><circle cx="179.53" cy="206.09" r="6.76" style="stroke-width:0.71;stroke:none;fill:#F8766D"/><path d="M41.46 320.33h2.84v-2.84h-2.84z" style="stroke-width:0.71;stroke:none;fill:#619CFF"/><path d="m242.6 154.3 4.39-3.85M106.11 267.12l4.24-3.84m74.49-61.79-4.43 3.84M48.35 314.31l-4.58 3.85" style="stroke-width:0.53;stroke:#BFBFBF"/><path d="M212.5 165.59h39.85l-.08-.01.34-.01.34-.07.33-.12.3-.18.27-.22.23-.26.18-.29.14-.32.08-.34.03-.34h0v-6.97h0l-.03-.34-.08-.34-.14-.32-.18-.29-.23-.26-.27-.22-.3-.18-.33-.12-.34-.07-.26-.02H212.5l.26.02-.35-.02-.34.05-.34.09-.31.15-.29.2-.25.24-.21.28-.16.31-.11.33-.05.34-.01.17v6.97l.01-.18v.35l.05.34.11.33.16.31.21.28.25.24.29.2.31.14.34.1.34.04z" style="stroke-width:0.53;fill:#FFFFFF;fill-opacity:0.50"/><text x="232.43" y="161.99" lengthAdjust="spacingAndGlyphs" style="font-size:5.69px;font-family:Arial" text-anchor="middle" textLength="36.97">GARY BAKER</text><path d="M74.11 278.4h49.31-.08l.34-.01.35-.07.32-.13.3-.17.27-.22.23-.26.19-.3.13-.32.09-.33.02-.35h0v-6.96h0l-.02-.35-.09-.34-.13-.32-.19-.29-.23-.26-.27-.22-.3-.17-.32-.13-.35-.07-.26-.01H74.11l.26.01-.35-.01-.34.04-.33.1-.32.15-.28.2-.26.24-.2.27-.17.31-.11.33-.05.34-.01.18v6.96l.01-.17v.34l.05.35.11.33.17.31.2.27.26.24.28.2.32.15.33.1.34.04z" style="stroke-width:0.53;fill:#FFFFFF;fill-opacity:0.50"/><text x="98.77" y="274.8" lengthAdjust="spacingAndGlyphs" style="font-size:5.69px;font-family:Arial" text-anchor="middle" textLength="46.43">HOMEWARD LLC</text><path d="M167.34 201.49h59.11-.09l.35-.01.34-.07.32-.13.31-.17.27-.22.23-.26.18-.29.14-.32.08-.34.03-.35h0v-15.15h0l-.03-.35-.08-.34-.14-.32-.18-.29-.23-.26-.27-.22-.31-.18-.32-.12-.34-.07-.26-.01h-59.11l.26.01-.34-.01-.35.04-.33.1-.32.15-.28.19-.25.24-.21.28-.16.31-.11.33-.06.34-.01.18v15.15l.01-.17v.35l.06.34.11.33.16.31.21.28.25.24.28.19.32.15.33.1.35.04z" style="stroke-width:0.53;fill:#FFFFFF;fill-opacity:0.50"/><text x="196.9" y="189.7" lengthAdjust="spacingAndGlyphs" style="font-size:5.69px;font-family:Arial" text-anchor="middle" textLength="56.22">1023 CHESWICK DR,</text><text x="196.9" y="197.89" lengthAdjust="spacingAndGlyphs" style="font-size:5.69px;font-family:Arial" text-anchor="middle" textLength="49.59">GURNEE, IL 60031</text><path d="M38.39 314.31h66.68-.09l.35-.01.34-.07.32-.13.3-.17.27-.22.23-.26.19-.29.14-.32.08-.34.03-.35h0V297h0l-.03-.35-.08-.34-.14-.32-.19-.29-.23-.26-.27-.22-.3-.18-.32-.12-.34-.07-.26-.01H38.39l.26.01-.35-.01-.34.04-.34.1-.31.14-.29.2-.25.24-.21.28-.16.31-.11.33-.06.34v15.33-.17.35l.06.34.11.33.16.31.21.27.25.25.29.19.31.15.34.1.34.04z" style="stroke-width:0.53;fill:#FFFFFF;fill-opacity:0.50"/><text x="71.73" y="302.52" lengthAdjust="spacingAndGlyphs" style="font-size:5.69px;font-family:Arial" text-anchor="middle" textLength="63.8">75 CHESTNUT HILL RD,</text><text x="71.73" y="310.71" lengthAdjust="spacingAndGlyphs" style="font-size:5.69px;font-family:Arial" text-anchor="middle" textLength="50.56">SUSSEX, WI 53089</text></g><g clip-path="url(#cpMC4wMHwyODguMDB8MC4wMHwzNjAuMDA=)"><circle cx="52.98" cy="116.15" r="1.95" style="stroke-width:0.71;stroke:none;fill:#F8766D"/><path d="m129.33 113.11 2.63 4.56h-5.26z" style="stroke-width:0.71;stroke:none;fill:#00BA38"/><path d="M195.31 118.1h3.91v-3.91h-3.91z" style="stroke-width:0.71;stroke:none;fill:#619CFF"/><text x="67.09" y="119.3" lengthAdjust="spacingAndGlyphs" style="font-size:8.80px;font-family:Arial Narrow" textLength="48.12">mprop address</text><text x="143.45" y="119.3" lengthAdjust="spacingAndGlyphs" style="font-size:8.80px;font-family:Arial Narrow" textLength="39.69">owner name</text><text x="211.38" y="119.3" lengthAdjust="spacingAndGlyphs" style="font-size:8.80px;font-family:Arial Narrow" textLength="40.5">wdfi address</text><text x="32.63" y="84.56" lengthAdjust="spacingAndGlyphs" style="font-size:12.00px;font-family:Arial Narrow" textLength="241.29">includes 2 parcels, 8 units, and 2 distinct owner names.</text><text x="32.63" y="42.78" lengthAdjust="spacingAndGlyphs" style="font-size:18.00px;font-weight:bold;font-family:Arial Narrow" textLength="238.62">GARY BAKER -- HOMEWARD LLC</text><text x="32.63" y="62.22" lengthAdjust="spacingAndGlyphs" style="font-size:18.00px;font-weight:bold;font-family:Arial Narrow" textLength="44.27">Group</text></g></svg>