<svg xmlns="http://www.w3.org/2000/svg" class="svglite" width="768" height="768" viewBox="0 0 576 576"><defs><style>.svglite circle,.svglite line,.svglite polygon,.svglite polyline,.svglite rect{fill:none;stroke:#000;stroke-linecap:round;stroke-linejoin:round;stroke-miterlimit:10}.svglite text{white-space:pre}</style></defs><rect width="100%" height="100%" style="stroke:none;fill:#fff"/><defs><clipPath id="cpMC4wMHw1NzYuMDB8MC4wMHw1NzYuMDA="><path d="M0 0h576v576H0z"/></clipPath></defs><g clip-path="url(#cpMC4wMHw1NzYuMDB8MC4wMHw1NzYuMDA=)"><path style="stroke-width:1.07;stroke:none;fill:#fff" d="M0 0h576v576H0z"/></g><defs><clipPath id="cpMzIuNjN8NTQ2LjExfDEyMS43OHw1NDMuMzc="><path d="M32.63 121.78h513.48v421.59H32.63z"/></clipPath></defs><g clip-path="url(#cpMzIuNjN8NTQ2LjExfDEyMS43OHw1NDMuMzc=)"><path style="stroke-width:1.07;stroke:#000;stroke-opacity:.1;stroke-linecap:butt" d="m522.77 395.87-2.36-.64-2.35-.64-2.36-.63-2.36-.64-2.36-.64-2.35-.64-2.36-.64-2.36-.64-2.36-.64-2.35-.64-2.36-.64-2.36-.64-2.36-.64-2.35-.64-2.36-.64-2.36-.64-2.36-.64-2.35-.64-2.36-.63-2.36-.64-2.36-.64-2.36-.64-2.35-.64-2.36-.64-2.36-.64-2.36-.64-2.35-.64-2.36-.64-2.36-.64-2.36-.64-2.35-.64-2.36-.64-2.36-.64-2.36-.63-2.35-.64-2.36-.64-2.36-.64-2.36-.64-2.35-.64-2.36-.64-2.36-.64-2.36-.64-2.35-.64-2.36-.64-2.36-.64-2.36-.64-2.36-.64-2.35-.64-2.36-.63-2.36-.64-2.36-.64-2.35-.64-2.36-.64-2.36-.64-2.36-.64-2.35-.64-2.36-.64-2.36-.64-2.36-.64-2.35-.64-2.36-.64-2.36-.64-2.36-.64-2.35-.63-2.36-.64-2.36-.64-2.36-.64-2.35-.64-2.36-.64-2.36-.64-2.36-.64-2.36-.64-2.35-.64-2.36-.64-2.36-.64-2.36-.64-2.35-.64-2.36-.64-2.36-.63-2.36-.64-2.35-.64-2.36-.64-2.36-.64-2.36-.64-2.35-.64-2.36-.64-2.36-.64-2.36-.64-2.35-.64-2.36-.64-2.36-.64-2.36-.64-2.35-.64-2.36-.63-2.36-.64-2.36-.64-2.35-.64-2.36-.64-2.36-.64M366.46 140.95l-.78 1.93-.78 1.94-.77 1.93-.78 1.94-.78 1.94-.78 1.93-.78 1.94-.78 1.93-.78 1.94-.78 1.93-.77 1.94-.78 1.94-.78 1.93-.78 1.94-.78 1.93-.78 1.94-.78 1.93-.78 1.94-.77 1.94-.78 1.93-.78 1.94-.78 1.93-.78 1.94-.78 1.93-.78 1.94-.77 1.93-.78 1.94-.78 1.94-.78 1.93-.78 1.94-.78 1.93-.78 1.94-.78 1.93-.77 1.94-.78 1.94-.78 1.93-.78 1.94-.78 1.93-.78 1.94-.78 1.93-.78 1.94-.77 1.94-.78 1.93-.78 1.94-.78 1.93-.78 1.94-.78 1.93-.78 1.94-.78 1.94-.77 1.93-.78 1.94-.78 1.93-.78 1.94-.78 1.93-.78 1.94-.78 1.93-.77 1.94-.78 1.94-.78 1.93-.78 1.94-.78 1.93-.78 1.94-.78 1.93-.78 1.94-.77 1.94-.78 1.93-.78 1.94-.78 1.93-.78 1.94-.78 1.93-.78 1.94-.78 1.94-.77 1.93-.78 1.94-.78 1.93-.78 1.94-.78 1.93-.78 1.94-.78 1.94-.77 1.93-.78 1.94-.78 1.93-.78 1.94-.78 1.93-.78 1.94-.78 1.93-.78 1.94-.77 1.94-.78 1.93-.78 1.94-.78 1.93-.78 1.94-.78 1.93-.78 1.94-.78 1.94-.77 1.93-.78 1.94-.78 1.93-.78 1.94M55.97 269.28l2.36.64 2.35.64 2.36.64 2.36.64 2.36.64 2.35.64 2.36.64 2.36.64 2.36.64 2.35.64 2.36.64 2.36.64 2.36.64 2.35.63 2.36.64 2.36.64 2.36.64 2.35.64 2.36.64 2.36.64 2.36.64 2.35.64 2.36.64 2.36.64 2.36.64 2.36.64 2.35.64 2.36.64 2.36.63 2.36.64 2.35.64 2.36.64 2.36.64 2.36.64 2.35.64 2.36.64 2.36.64 2.36.64 2.35.64 2.36.64 2.36.64 2.36.64 2.35.64 2.36.63 2.36.64 2.36.64 2.35.64 2.36.64 2.36.64 2.36.64 2.36.64 2.35.64 2.36.64 2.36.64 2.36.64 2.35.64 2.36.64 2.36.64 2.36.63 2.35.64 2.36.64 2.36.64 2.36.64 2.35.64 2.36.64 2.36.64 2.36.64 2.35.64 2.36.64 2.36.64 2.36.64 2.35.64 2.36.64 2.36.63 2.36.64 2.36.64 2.35.64 2.36.64 2.36.64 2.36.64 2.35.64 2.36.64 2.36.64 2.36.64 2.35.64 2.36.64 2.36.64 2.36.64 2.35.63 2.36.64 2.36.64 2.36.64 2.35.64 2.36.64 2.36.64 2.36.64 2.35.64 2.36.64 2.36.64"/><path style="stroke-width:1.07;stroke:#000;stroke-opacity:.1;stroke-linecap:butt" d="m212.28 524.21.78-1.94.78-1.93.77-1.94.78-1.93.78-1.94.78-1.93.78-1.94.78-1.94.78-1.93.78-1.94.77-1.93.78-1.94.78-1.93.78-1.94.78-1.94.78-1.93.78-1.94.77-1.93.78-1.94.78-1.93.78-1.94.78-1.94.78-1.93.78-1.94.78-1.93.77-1.94.78-1.93.78-1.94.78-1.94.78-1.93.78-1.94.78-1.93.78-1.94.77-1.93.78-1.94.78-1.93.78-1.94.78-1.94.78-1.93.78-1.94.78-1.93.77-1.94.78-1.93.78-1.94.78-1.94.78-1.93.78-1.94.78-1.93.77-1.94.78-1.93.78-1.94.78-1.94.78-1.93.78-1.94.78-1.93.78-1.94.77-1.93.78-1.94.78-1.94.78-1.93.78-1.94.78-1.93.78-1.94.78-1.93.77-1.94.78-1.93.78-1.94.78-1.94.78-1.93.78-1.94.78-1.93.77-1.94.78-1.93.78-1.94.78-1.94.78-1.93.78-1.94.78-1.93.78-1.94.77-1.93.78-1.94.78-1.94.78-1.93.78-1.94.78-1.93.78-1.94.78-1.93.77-1.94.78-1.94.78-1.93.78-1.94.78-1.93.78-1.94.78-1.93.78-1.94.77-1.93.78-1.94.78-1.94.78-1.93"/><path style="stroke-width:.71;stroke:none;fill:#00bfc4" d="m522.77 393.66 1.92 3.32h-3.83zM366.46 138.74l1.92 3.31h-3.83zM55.97 267.07l1.91 3.32h-3.83zM212.28 522l1.91 3.31h-3.83z"/><circle cx="289.37" cy="332.58" r="6.76" style="stroke-width:.71;stroke:none;fill:#f8766d"/><path style="stroke-width:.53;stroke:#bfbfbf" d="m361.15 145.52 4.43-3.81M217.36 519.64l-4.22 3.8M294.67 328.02l-4.42 3.8"/><path style="stroke-width:.53;fill:#fff;fill-opacity:.5" d="M455.97 401.49h60.05-.09l.35-.01.34-.07.33-.13.3-.17.27-.22.23-.26.18-.29.14-.32.08-.34.03-.35v-6.96l-.03-.35-.08-.33-.14-.32-.18-.3-.23-.26-.27-.22-.3-.17-.33-.12-.34-.07-.26-.02h-60.05l.26.02-.34-.02-.35.04-.33.1-.32.15-.28.2-.25.24-.21.28-.16.3-.11.33-.06.35-.01.17v6.96l.01-.17v.35l.06.34.11.33.16.31.21.28.25.24.28.19.32.15.33.1.35.04z"/><text x="486" y="397.89" text-anchor="middle" style="font-size:5.69px;font-family:&quot;Arial&quot;" textLength="57.17" lengthAdjust="spacingAndGlyphs">GREGORY M PONTO</text><path style="stroke-width:.53;fill:#fff;fill-opacity:.5" d="M319.63 165h58.79-.09l.35-.02.34-.07.33-.12.3-.17.27-.22.23-.26.18-.3.14-.32.08-.33.03-.35v-15.16l-.03-.34-.08-.34-.14-.32-.18-.29-.23-.26-.27-.22-.3-.18-.33-.12-.34-.07-.26-.02h-58.79l.26.02-.34-.02-.35.05-.33.09-.32.15-.28.2-.25.24-.21.28-.16.31-.11.33-.06.34-.01.17v15.16l.01-.17v.34l.06.35.11.33.16.3.21.28.25.24.28.2.32.15.33.1.35.04z"/><text x="349.03" y="153.21" text-anchor="middle" style="font-size:5.69px;font-family:&quot;Arial&quot;" textLength="55.91" lengthAdjust="spacingAndGlyphs">GREGORY MICHAEL</text><text x="349.03" y="161.4" text-anchor="middle" style="font-size:5.69px;font-family:&quot;Arial&quot;" textLength="20.22" lengthAdjust="spacingAndGlyphs">PONTO</text><path style="stroke-width:.53;fill:#fff;fill-opacity:.5" d="M62.76 274.91h50.58-.09l.35-.02.34-.07.32-.12.3-.18.27-.21.23-.27.19-.29.14-.32.08-.34.03-.34v-6.97l-.03-.34-.08-.34-.14-.32-.19-.29-.23-.26-.27-.22-.3-.18-.32-.12-.34-.07-.26-.02H62.76l.26.02-.34-.01-.35.04-.33.1-.32.14-.28.2-.25.24-.21.28-.16.31-.11.33-.06.34-.01.17v6.97l.01-.18v.35l.06.34.11.33.16.31.21.28.25.24.28.2.32.15.33.09.35.05z"/><text x="88.05" y="271.31" text-anchor="middle" style="font-size:5.69px;font-family:&quot;Arial&quot;" textLength="47.69" lengthAdjust="spacingAndGlyphs">GM PONTO 2 LLC</text><path style="stroke-width:.53;fill:#fff;fill-opacity:.5" d="M199.45 519.64h50.57l-.08-.01.34-.01.34-.07.33-.12.3-.18.27-.22.23-.26.18-.29.14-.32.08-.34.03-.34v-6.97l-.03-.34-.08-.34-.14-.32-.18-.29-.23-.26-.27-.22-.3-.18-.33-.12-.34-.07-.26-.02h-50.57l.26.02-.35-.01-.34.04-.34.09-.31.15-.29.2-.25.24-.21.28-.16.31-.11.33-.05.34-.01.17v6.97l.01-.18v.35l.05.34.11.33.16.31.21.28.25.24.29.2.31.15.34.09.34.04z"/><text x="224.74" y="516.04" text-anchor="middle" style="font-size:5.69px;font-family:&quot;Arial&quot;" textLength="47.69" lengthAdjust="spacingAndGlyphs">GM PONTO 3 LLC</text><path style="stroke-width:.53;fill:#fff;fill-opacity:.5" d="M274.59 328.02h64.49l-.09-.01.35-.01.34-.07.32-.12.3-.18.27-.22.23-.26.19-.29.14-.32.08-.34.03-.34V310.7l-.03-.35-.08-.34-.14-.31-.19-.3-.23-.26-.27-.22-.3-.17-.32-.13-.34-.07-.26-.01h-64.49l.26.01-.35-.01-.35.04-.33.1-.31.15-.29.2-.25.24-.21.27-.16.31-.11.33-.06.35v15.33-.18.35l.06.34.11.33.16.31.21.28.25.24.29.2.31.15.33.09.35.04z"/><text x="306.83" y="316.22" text-anchor="middle" style="font-size:5.69px;font-family:&quot;Arial&quot;" textLength="47.71" lengthAdjust="spacingAndGlyphs">4550 S 123RD ST,</text><text x="306.83" y="324.42" text-anchor="middle" style="font-size:5.69px;font-family:&quot;Arial&quot;" textLength="61.61" lengthAdjust="spacingAndGlyphs">MILWAUKEE, WI 53228</text></g><g clip-path="url(#cpMC4wMHw1NzYuMDB8MC4wMHw1NzYuMDA=)"><circle cx="231.34" cy="96.71" r="1.95" style="stroke-width:.71;stroke:none;fill:#f8766d"/><path style="stroke-width:.71;stroke:none;fill:#00bfc4" d="m307.7 93.67 2.63 4.56h-5.26z"/><text x="245.46" y="99.86" style="font-size:8.8px;font-family:&quot;Arial Narrow&quot;" textLength="48.12" lengthAdjust="spacingAndGlyphs">mprop address</text><text x="321.82" y="99.86" style="font-size:8.8px;font-family:&quot;Arial Narrow&quot;" textLength="39.69" lengthAdjust="spacingAndGlyphs">owner name</text><text x="32.63" y="65.12" style="font-size:12px;font-family:&quot;Arial Narrow&quot;" textLength="246.76" lengthAdjust="spacingAndGlyphs">includes 4 parcels, 15 units, and 4 distinct owner names.</text><text x="32.63" y="42.78" style="font-size:18px;font-weight:700;font-family:&quot;Arial Narrow&quot;" textLength="173.58" lengthAdjust="spacingAndGlyphs">GM PONTO 2 LLC Group</text></g></svg>