<svg xmlns="http://www.w3.org/2000/svg" width="384" height="480" class="svglite" viewBox="0 0 288 360"><defs><style><![CDATA[.svglite polyline,.svglite polygon,.svglite path,.svglite circle{fill:none;stroke:#000000;stroke-linecap:round;stroke-linejoin:round;stroke-miterlimit:10.00}.svglite text{white-space:pre}]]></style></defs><rect width="100%" height="100%" style="stroke-linecap:round;stroke-linejoin:round;stroke-miterlimit:10.00;stroke:none;fill:#FFFFFF"/><defs><clipPath id="cpMC4wMHwyODguMDB8MC4wMHwzNjAuMDA="><path d="M0 0h288v360H0z"/></clipPath></defs><g clip-path="url(#cpMC4wMHwyODguMDB8MC4wMHwzNjAuMDA=)"><path d="M0 0h288v360H0z" style="stroke-width:1.07;stroke:none;fill:#FFFFFF"/></g><defs><clipPath id="cpMzIuNjN8MjU4LjExfDE0MS41OHwzMjcuMzc="><path d="M32.63 141.58h225.48v185.8H32.63z"/></clipPath></defs><g clip-path="url(#cpMzIuNjN8MjU4LjExfDE0MS41OHwzMjcuMzc=)"><path d="m247.86 290.98-1.38.11-1.38.11-1.38.11-1.38.12-1.38.12-1.37.13-1.38.13-1.37.13-1.37.14-1.38.14-1.37.14-1.37.15-1.36.15-1.37.15-1.37.16-1.36.16-1.36.16-1.37.17-1.36.17-1.36.18-1.35.18-1.36.18-1.36.19-1.35.19-1.36.19-1.35.2-1.35.2-1.35.2-1.35.21-1.35.21-1.34.21-1.35.22-1.34.22-1.35.23-1.34.23-1.34.23-1.34.23-1.34.24-1.33.25-1.34.24-1.33.25-1.34.26-1.33.25-1.33.27-1.33.26-1.33.27-1.33.27-1.32.28-1.33.27-1.32.29-1.33.28-1.32.29-1.32.29-1.32.3-1.32.3-1.31.3-1.32.31-1.31.31-1.32.32-1.31.31-1.31.33-1.31.32-1.31.33-1.3.33-1.31.34-1.31.34-1.3.34-1.3.35-1.3.35-1.3.35-1.3.36-1.3.36-1.3.36-1.29.37-1.3.37-1.29.38-1.29.38-1.29.38-1.29.38-1.29.39-1.29.4-1.28.39-1.29.4-1.28.41-1.29.4-1.28.41-1.28.42-1.28.42-1.27.42-1.28.42-1.28.43-1.27.43-1.27.44-1.27.44-1.27.44-1.27.45-1.27.45-1.27.45-1.27.46m131.08-27.95-1.98-.7-1.98-.7-1.99-.69-1.99-.69-1.99-.68-1.99-.67-1.99-.67-1.99-.67-2-.65-2-.66-2-.64-2-.65-2-.63-2.01-.63-2.01-.63-2.01-.62-2.01-.61-2.01-.61-2.01-.6-2.02-.6-2.02-.59-2.02-.59-2.02-.58-2.02-.57-2.03-.57-2.03-.56-2.03-.56-2.03-.55-2.03-.55-2.03-.54-2.04-.54-2.04-.53-2.04-.52-2.04-.52-2.04-.51-2.05-.51-2.04-.5-2.05-.5-2.05-.49-2.06-.49-2.05-.48-2.06-.47-2.05-.47-2.06-.46-2.07-.46-2.06-.45-2.06-.45-2.07-.44-2.07-.43-2.07-.43-2.07-.43-2.08-.42-2.07-.41-2.08-.41-2.08-.4-2.08-.39-2.09-.39-2.08-.39-2.09-.38-2.09-.37-2.09-.37-2.09-.36-2.09-.36-2.1-.35-2.1-.35-2.1-.34-2.1-.33-2.1-.33-2.1-.33-2.11-.31-2.11-.32-2.11-.3-2.11-.31-2.12-.29-2.11-.29-2.12-.29-2.12-.27-2.12-.28-2.12-.27-2.13-.26-2.12-.26-2.13-.25-2.13-.24-2.14-.24-2.13-.24-2.14-.23-2.13-.22-2.14-.22-2.14-.21-2.15-.2-2.14-.21-2.15-.19-2.15-.19-2.15-.19-2.15-.17-2.15-.18-2.16-.16-2.15-.17-2.16-.15" style="stroke-width:1.07;stroke:#000000;stroke-opacity:0.10;stroke-linecap:butt"/><path d="m247.86 290.98-1.26.46-1.27.45-1.27.45-1.27.45-1.27.44-1.27.44-1.27.44-1.28.43-1.27.43-1.28.42-1.28.42-1.28.42-1.28.41-1.28.42-1.28.4-1.28.41-1.29.4-1.28.39-1.29.4-1.29.38-1.29.39-1.29.38-1.29.38-1.29.38-1.3.37-1.29.37-1.3.36-1.3.36-1.3.36-1.3.35-1.3.35-1.3.35-1.31.34-1.3.34-1.31.34-1.3.33-1.31.33-1.31.32-1.31.32-1.32.32-1.31.32-1.31.31-1.32.3-1.32.31-1.31.3-1.32.29-1.32.3-1.33.29-1.32.28-1.32.28-1.33.28-1.32.28-1.33.27-1.33.27-1.33.26-1.33.26-1.33.26-1.34.25-1.33.25-1.34.25-1.34.24-1.33.24-1.34.24-1.34.23-1.35.23-1.34.23-1.34.22-1.35.22-1.35.21-1.34.21-1.35.21-1.35.2-1.35.2-1.36.2-1.35.19-1.35.19-1.36.19-1.36.18-1.36.18-1.36.17-1.36.18-1.36.16-1.36.17-1.37.16-1.36.16-1.37.15-1.37.15-1.37.15-1.37.14-1.37.14-1.37.14-1.37.13-1.38.13-1.38.12-1.37.13-1.38.11-1.38.12-1.38.11-1.39.11m131.08-27.95-2.16-.15-2.15-.17-2.16-.16-2.15-.18-2.15-.18-2.16-.18-2.14-.19-2.15-.2-2.14-.2-2.15-.2-2.14-.21-2.14-.22-2.14-.23-2.13-.22-2.13-.24-2.14-.24-2.13-.24-2.13-.26-2.12-.25-2.13-.26-2.12-.27-2.12-.28-2.12-.28-2.12-.28-2.11-.29-2.12-.3-2.11-.3-2.11-.3-2.11-.32-2.11-.31-2.1-.33-2.1-.33-2.1-.33-2.1-.34-2.1-.35-2.1-.35-2.09-.36-2.09-.36-2.09-.37-2.09-.37-2.09-.38-2.09-.39-2.08-.39-2.08-.39-2.08-.4-2.08-.41-2.07-.42-2.08-.41-2.07-.43-2.07-.43-2.07-.43-2.07-.44-2.06-.45-2.06-.45-2.07-.46-2.06-.46-2.05-.47-2.06-.48-2.05-.48-2.06-.48-2.05-.49-2.05-.5-2.04-.5-2.05-.51-2.04-.51-2.04-.52-2.04-.52-2.04-.53-2.04-.54-2.03-.54-2.03-.55-2.04-.55-2.02-.56-2.03-.56-2.03-.57-2.02-.58-2.02-.58-2.02-.58-2.02-.59-2.02-.6-2.01-.6-2.01-.61-2.01-.61-2.01-.62-2.01-.63-2.01-.63-2-.64-2-.64-2-.64-2-.66-2-.65-1.99-.67-1.99-.67-2-.67-1.98-.68-1.99-.69-1.99-.69-1.98-.7-1.98-.7" style="stroke-width:1.07;stroke:#000000;stroke-opacity:0.10;stroke-linecap:butt"/><path d="m100.05 150.02.17 1.71.16 1.7.17 1.71.17 1.71.17 1.7.17 1.71.17 1.71.17 1.7.17 1.71.17 1.7.17 1.71.17 1.71.16 1.7.17 1.71.17 1.7.17 1.71.17 1.71.17 1.7.17 1.71.17 1.7.17 1.71.17 1.71.17 1.7.16 1.71.17 1.71.17 1.7.17 1.71.17 1.7.17 1.71.17 1.71.17 1.7.17 1.71.17 1.7.17 1.71.16 1.71.17 1.7.17 1.71.17 1.7.17 1.71.17 1.71.17 1.7.17 1.71.17 1.71.17 1.7.17 1.71.16 1.7.17 1.71.17 1.71.17 1.7.17 1.71.17 1.7.17 1.71.17 1.71.17 1.7.17 1.71.16 1.7.17 1.71.17 1.71.17 1.7.17 1.71.17 1.7.17 1.71.17 1.71.17 1.7.17 1.71.17 1.71.16 1.7.17 1.71.17 1.7.17 1.71.17 1.71.17 1.7.17 1.71.17 1.7.17 1.71.17 1.71.17 1.7.16 1.71.17 1.7.17 1.71.17 1.71.17 1.7.17 1.71.17 1.71.17 1.7.17 1.71.17 1.7.17 1.71.16 1.71.17 1.7.17 1.71.17 1.7.17 1.71.17 1.71.17 1.7.17 1.71.17 1.7.17 1.71.16 1.71m-16.73-168.91-.58 1-.58.99-.58.99-.57 1-.58.99-.58 1-.58.99-.57 1-.58.99-.58.99-.58 1-.57.99-.58 1-.58.99-.58 1-.57.99-.58.99-.58 1-.58.99-.57 1-.58.99-.58.99-.58 1-.57.99-.58 1-.58.99-.58 1-.57.99-.58.99-.58 1-.57.99-.58 1-.58.99-.58.99-.57 1-.58.99-.58 1-.58.99-.57 1-.58.99-.58.99-.58 1-.57.99-.58 1-.58.99-.58 1-.57.99-.58.99-.58 1-.58.99-.57 1-.58.99-.58.99-.58 1-.57.99-.58 1-.58.99-.58 1-.57.99-.58.99-.58 1-.58.99-.57 1-.58.99-.58 1-.58.99-.57.99-.58 1-.58.99-.58 1-.57.99-.58.99-.58 1-.58.99-.57 1-.58.99-.58 1-.58.99-.57.99-.58 1-.58.99-.58 1-.57.99-.58.99-.58 1-.58.99-.57 1-.58.99-.58 1-.58.99-.57.99-.58 1-.58.99-.58 1-.57.99-.58 1-.58.99-.58.99-.57 1m0 0 .45.91.46.9.46.9.47.9.48.89.48.89.49.89.5.88.5.87.51.88.51.87.52.86.52.86.53.86.54.85.54.85.55.84.56.84.56.84.56.83.58.83.58.83.58.82.59.81.6.82.6.8.61.81.61.8.63.8.62.79.63.79.64.78.65.78.65.78.66.77.66.77.67.76.67.76.68.76.69.75.69.75.7.74.7.74.71.74.72.73.72.73.73.72.74.72.74.72.74.71.76.71.76.7.76.7.77.7.78.69.78.69.79.68.79.68.8.68.81.67.81.67.82.66.82.66.84.66.83.65.84.64.85.65.86.64.86.63.86.63.88.63.87.63.89.61.89.62.9.61.9.61.91.6.91.6.92.6.93.59.93.58.94.59.94.58.95.57.96.57.96.57.97.56.97.56.98.56.99.55.99.55 1 .54 1 .54 1.01.53 1.02.53 1.02.53 1.03.52 1.03.52 1.04.52" style="stroke-width:1.07;stroke:#000000;stroke-opacity:0.10;stroke-linecap:butt"/><path d="m42.88 248.45.74.71.75.71.75.71.74.72.75.71.75.71.74.71.75.71.75.71.74.72.75.71.75.71.74.71.75.71.75.72.74.71.75.71.74.71.75.71.75.72.74.71.75.71.75.71.74.71.75.72.75.71.74.71.75.71.75.71.74.72.75.71.75.71.74.71.75.71.75.71.74.72.75.71.75.71.74.71.75.71.75.72.74.71.75.71.74.71.75.71.75.72.74.71.75.71.75.71.74.71.75.72.75.71.74.71.75.71.75.71.74.71.75.72.75.71.74.71.75.71.75.71.74.72.75.71.75.71.74.71.75.71.75.72.74.71.75.71.75.71.74.71.75.72.74.71.75.71.75.71.74.71.75.72.75.71.74.71.75.71.75.71.74.71.75.72.75.71.74.71.75.71.75.71.74.72.75.71.75.71.74.71.75.71.75.72.74.71.75.71.75.71.74.71.75.72.74.71" style="stroke-width:1.07;stroke:#000000;stroke-opacity:0.10;stroke-linecap:butt"/><path d="m42.88 248.45 1.04.51 1.03.52 1.03.52 1.02.53 1.02.53 1.01.54 1 .54 1 .54.99.55.99.55.98.55.97.56.97.56.96.57.96.57.95.58.94.58.94.58.94.59.92.59.92.59.92.6.9.61.91.6.89.61.89.62.89.62.88.62.87.63.86.63.87.64.85.64.85.64.84.65.84.65.83.66.82.65.82.67.81.67.81.67.8.67.79.68.79.69.79.68.77.7.77.69.77.7.76.71.75.7.74.72.74.71.74.72.73.73.72.72.72.74.71.73.7.74.7.75.69.74.69.76.68.75.68.76.66.77.67.77.65.77.65.77.65.78.64.79.63.79.63.79.62.8.61.8.61.8.6.81.6.81.59.82.59.82.57.82.58.83.56.83.57.84.55.84.55.85.54.84.54.86.53.85.52.86.52.87.52.87.5.87.5.88.5.88.49.88.48.89.48.9.47.89.46.9.46.91.45.91" style="stroke-width:1.07;stroke:#000000;stroke-opacity:0.10;stroke-linecap:butt"/><path d="m247.86 282.9 7 12.12h-13.99zM100.05 147.81l1.91 3.32h-3.83z" style="stroke-width:0.71;stroke:none;fill:#00BA38"/><path d="M36.12 255.2h13.51v-13.51H36.12z" style="stroke-width:0.71;stroke:none;fill:#619CFF"/><circle cx="116.78" cy="318.93" r="6.76" style="stroke-width:0.71;stroke:none;fill:#F8766D"/><path d="m105.3 154.63-4.38-3.84" style="fill:none;stroke-linecap:round;stroke-linejoin:round;stroke-miterlimit:10.00;stroke-width:0.53;stroke:#BFBFBF"/><path d="M174.58 300.75h66.31-.09l.35-.01.34-.07.33-.13.3-.17.27-.22.23-.26.18-.29.14-.32.08-.34.03-.35h0v-15.22h0l-.03-.35-.08-.33-.14-.32-.18-.3-.23-.26-.27-.22-.3-.17-.33-.12-.34-.07-.26-.02h-66.31l.26.02-.35-.02-.34.04-.34.1-.31.15-.29.2-.25.24-.21.28-.16.3-.11.33-.05.35-.01.17v15.22l.01-.17v.35l.05.34.11.33.16.31.21.27.25.25.29.19.31.15.34.1.34.04z" style="stroke-width:0.53;fill:#FFFFFF;fill-opacity:0.50"/><text x="207.73" y="288.96" lengthAdjust="spacingAndGlyphs" style="font-size:5.69px;font-family:&quot;Liberation Sans&quot;" text-anchor="middle" textLength="63.43">GRANDVIEW HOMES 1</text><text x="207.73" y="297.15" lengthAdjust="spacingAndGlyphs" style="font-size:5.69px;font-family:&quot;Liberation Sans&quot;" text-anchor="middle" textLength="10.31">LLC</text><path d="M83.89 174.17h63.08-.09l.35-.02.34-.07.32-.12.31-.17.26-.22.24-.26.18-.3.14-.32.08-.33.03-.35h0v-15.22h0l-.03-.35-.08-.34-.14-.32-.18-.29-.24-.26-.26-.22-.31-.17-.32-.13-.34-.07-.26-.01H83.89l.26.01-.35-.01-.34.04-.34.1-.31.15-.29.19-.25.25-.21.27-.16.31-.11.33-.05.34-.01.18v15.22l.01-.17v.34l.05.35.11.33.16.3.21.28.25.24.29.2.31.15.34.1.34.04z" style="stroke-width:0.53;fill:#FFFFFF;fill-opacity:0.50"/><text x="115.43" y="162.37" lengthAdjust="spacingAndGlyphs" style="font-size:5.69px;font-family:&quot;Liberation Sans&quot;" text-anchor="middle" textLength="60.2">GRANDVIEW CAPITAL</text><text x="115.43" y="170.57" lengthAdjust="spacingAndGlyphs" style="font-size:5.69px;font-family:&quot;Liberation Sans&quot;" text-anchor="middle" textLength="10.31">LLC</text><path d="M49.86 262.32h69.02l-.09-.01.35-.01.34-.07.32-.12.3-.18.27-.22.23-.26.19-.29.14-.32.08-.34.03-.34h0v-23.42h0l-.03-.35-.08-.33-.14-.32-.19-.3-.23-.26-.27-.22-.3-.17-.32-.12-.34-.07-.26-.02H49.86l.26.02-.35-.02-.34.04-.34.1-.31.15-.29.2-.25.24-.21.28-.16.3-.11.33-.06.35v23.59-.18.35l.06.34.11.33.16.31.21.28.25.24.29.2.31.15.34.09.34.04z" style="stroke-width:0.53;fill:#FFFFFF;fill-opacity:0.50"/><text x="84.37" y="242.33" lengthAdjust="spacingAndGlyphs" style="font-size:5.69px;font-family:&quot;Liberation Sans&quot;" text-anchor="middle" textLength="66.14">36W995 RED GATE RD,</text><text x="84.37" y="250.52" lengthAdjust="spacingAndGlyphs" style="font-size:5.69px;font-family:&quot;Liberation Sans&quot;" text-anchor="middle" textLength="53.74">SAINT CHARLES, IL</text><text x="84.37" y="258.72" lengthAdjust="spacingAndGlyphs" style="font-size:5.69px;font-family:&quot;Liberation Sans&quot;" text-anchor="middle" textLength="18.11">60175</text><path d="M82.2 314.29h69.02-.09l.35-.01.34-.07.32-.12.31-.18.27-.22.23-.26.18-.29.14-.32.08-.34.03-.35h0v-23.41h0l-.03-.35-.08-.34-.14-.32-.18-.29-.23-.26-.27-.22-.31-.17-.32-.13-.34-.07-.26-.01H82.2l.26.01-.35-.01-.34.04-.34.1-.31.15-.29.2-.25.24-.21.27-.16.31-.11.33-.05.34-.01.18v23.41l.01-.17v.35l.05.34.11.33.16.31.21.28.25.24.29.2.31.14.34.1.34.04z" style="stroke-width:0.53;fill:#FFFFFF;fill-opacity:0.50"/><text x="116.71" y="294.31" lengthAdjust="spacingAndGlyphs" style="font-size:5.69px;font-family:&quot;Liberation Sans&quot;" text-anchor="middle" textLength="66.14">36W995 RED GATE RD,</text><text x="116.71" y="302.5" lengthAdjust="spacingAndGlyphs" style="font-size:5.69px;font-family:&quot;Liberation Sans&quot;" text-anchor="middle" textLength="53.74">SAINT CHARLES, IL</text><text x="116.71" y="310.69" lengthAdjust="spacingAndGlyphs" style="font-size:5.69px;font-family:&quot;Liberation Sans&quot;" text-anchor="middle" textLength="18.11">60175</text></g><g clip-path="url(#cpMC4wMHwyODguMDB8MC4wMHwzNjAuMDA=)"><circle cx="50.25" cy="116.5" r="1.95" style="stroke-width:0.71;stroke:none;fill:#F8766D"/><path d="m126.6 113.46 2.63 4.56h-5.27z" style="stroke-width:0.71;stroke:none;fill:#00BA38"/><path d="M192.57 118.45h3.91v-3.91h-3.91z" style="stroke-width:0.71;stroke:none;fill:#619CFF"/><text x="64.37" y="119.66" lengthAdjust="spacingAndGlyphs" style="font-size:8.80px;font-weight:0;font-family:&quot;Nimbus Sans Narrow&quot;" textLength="48.11">mprop address</text><text x="140.72" y="119.66" lengthAdjust="spacingAndGlyphs" style="font-size:8.80px;font-weight:0;font-family:&quot;Nimbus Sans Narrow&quot;" textLength="39.69">owner name</text><text x="208.64" y="119.66" lengthAdjust="spacingAndGlyphs" style="font-size:8.80px;font-weight:0;font-family:&quot;Nimbus Sans Narrow&quot;" textLength="40.49">wdfi address</text><text x="32.63" y="84.79" lengthAdjust="spacingAndGlyphs" style="font-size:12.00px;font-weight:0;font-family:&quot;Nimbus Sans Narrow&quot;" textLength="241.18">includes 3 parcels, 3 units, and 2 distinct owner names.</text><text x="32.63" y="42.81" lengthAdjust="spacingAndGlyphs" style="font-size:18.00px;font-weight:0;font-family:&quot;Nimbus Sans Narrow&quot;" textLength="209.14">GRANDVIEW HOMES 1 LLC --</text><text x="32.63" y="62.25" lengthAdjust="spacingAndGlyphs" style="font-size:18.00px;font-weight:0;font-family:&quot;Nimbus Sans Narrow&quot;" textLength="241.11">GRANDVIEW CAPITAL LLC Group</text></g></svg>