<svg xmlns="http://www.w3.org/2000/svg" width="384" height="384" class="svglite" viewBox="0 0 288 288"><defs><style><![CDATA[.svglite line,.svglite polyline,.svglite polygon,.svglite path,.svglite circle{fill:none;stroke:#000000;stroke-linecap:round;stroke-linejoin:round;stroke-miterlimit:10.00}.svglite text{white-space:pre}]]></style></defs><rect width="100%" height="100%" style="stroke-linecap:round;stroke-linejoin:round;stroke-miterlimit:10.00;stroke:none;fill:#FFFFFF"/><defs><clipPath id="cpMC4wMHwyODguMDB8MC4wMHwyODguMDA="><path d="M0 0h288v288H0z"/></clipPath></defs><g clip-path="url(#cpMC4wMHwyODguMDB8MC4wMHwyODguMDA=)"><path d="M0 0h288v288H0z" style="stroke-width:1.07;stroke:none;fill:#FFFFFF"/></g><defs><clipPath id="cpMzIuNjN8MjU4LjExfDEyMS43OHwyNTUuMzc="><path d="M32.63 121.78h225.48v133.59H32.63z"/></clipPath></defs><g clip-path="url(#cpMzIuNjN8MjU4LjExfDEyMS43OHwyNTUuMzc=)"><path d="m247.86 127.86-.69.41-.69.4-.69.41-.69.41-.69.41-.69.41-.69.41-.69.41-.69.41-.69.41-.69.4-.69.41-.69.41-.69.41-.69.41-.69.41-.69.41-.69.41-.69.41-.69.4-.69.41-.69.41-.69.41-.69.41-.69.41-.69.41-.69.41-.69.41-.69.4-.69.41-.69.41-.69.41-.69.41-.69.41-.69.41-.69.41-.69.41-.69.4-.69.41-.69.41-.69.41-.7.41-.69.41-.69.41-.69.41-.69.41-.69.4-.69.41-.69.41-.69.41-.69.41-.69.41-.69.41-.69.41-.69.41-.69.41-.69.4-.69.41-.69.41-.69.41-.69.41-.69.41-.69.41-.69.41-.69.41-.69.4-.69.41-.69.41-.69.41-.69.41-.69.41-.69.41-.69.41-.69.41-.69.4-.69.41-.69.41-.69.41-.69.41-.69.41-.69.41-.69.41-.69.41-.69.4-.69.41-.69.41-.69.41-.69.41-.69.41-.69.41-.69.41-.69.41-.69.4-.69.41-.7.41-.69.41-.69.41-.69.41-.69.41m-68.32 40.48.69-.41.69-.41.69-.41.69-.41.69-.41.69-.4.69-.41.69-.41.69-.41.69-.41.69-.41.69-.41.69-.41.69-.41.69-.4.69-.41.69-.41.69-.41.69-.41.69-.41.69-.41.69-.41.69-.41.69-.4.69-.41.69-.41.69-.41.69-.41.69-.41.69-.41.69-.41.69-.41.69-.4.69-.41.69-.41.69-.41.69-.41.69-.41.69-.41.69-.41.69-.41.69-.4.69-.41.69-.41.69-.41.69-.41.69-.41.69-.41.69-.41.69-.41.7-.4.69-.41.69-.41.69-.41.69-.41.69-.41.69-.41.69-.41.69-.41.69-.4.69-.41.69-.41.69-.41.69-.41.69-.41.69-.41.69-.41.69-.41.69-.41.69-.4.69-.41.69-.41.69-.41.69-.41.69-.41.69-.41.69-.41.69-.41.69-.4.69-.41.69-.41.69-.41.69-.41.69-.41.69-.41.69-.41.69-.41.69-.4.69-.41.69-.41.69-.41.69-.41.69-.41.69-.41.69-.41.69-.41.69-.4.69-.41.69-.41m-68.32 40.48-.69.41-.69.41-.69.41-.7.41-.69.4-.69.41-.69.41-.69.41-.69.41-.69.41-.69.41-.69.41-.69.41-.69.4-.69.41-.69.41-.69.41-.69.41-.69.41-.69.41-.69.41-.69.41-.69.4-.69.41-.69.41-.69.41-.69.41-.69.41-.69.41-.69.41-.69.41-.69.4-.69.41-.69.41-.69.41-.69.41-.69.41-.69.41-.69.41-.69.41-.69.4-.69.41-.69.41-.69.41-.69.41-.69.41-.69.41-.69.41-.69.41-.69.4-.69.41-.69.41-.69.41-.69.41-.69.41-.69.41-.7.41-.69.41-.69.4-.69.41-.69.41-.69.41-.69.41-.69.41-.69.41-.69.41-.69.41-.69.4-.69.41-.69.41-.69.41-.69.41-.69.41-.69.41-.69.41-.69.41-.69.4-.69.41-.69.41-.69.41-.69.41-.69.41-.69.41-.69.41-.69.41-.69.4-.69.41-.69.41-.69.41-.69.41-.69.41-.69.41-.69.41-.69.41-.69.4-.69.41-.69.41-.69.41-.69.41" style="stroke-width:1.07;stroke:#000000;stroke-opacity:0.10;stroke-linecap:butt"/><path d="m247.86 125.65 1.92 3.31h-3.83zm-136.65 80.96 1.91 3.31h-3.83z" style="stroke-width:0.71;stroke:none;fill:#00BA38"/><circle cx="179.53" cy="168.34" r="6.76" style="stroke-width:0.71;stroke:none;fill:#F8766D"/><path d="M41.46 250.72h2.84v-2.84h-2.84z" style="stroke-width:0.71;stroke:none;fill:#619CFF"/><path d="m240.69 132.31 6.17-3.83m-128.77 75.88-5.91 3.83m61.2-36.07 5.15-3.16M50.11 244.89l-6.22 3.79" style="stroke-width:0.53;stroke:#BFBFBF"/><path d="M194.8 143.59h57.52-.09l.35-.02.34-.07.33-.12.3-.17.27-.22.23-.26.18-.3.14-.32.08-.34.03-.34h0v-6.96h0l-.03-.35-.08-.34-.14-.32-.18-.29-.23-.26-.27-.22-.3-.18-.33-.12-.34-.07-.26-.01H194.8l.26.01-.35-.01-.34.04-.34.1-.31.14-.29.2-.25.24-.21.28-.16.31-.11.33-.05.34-.01.18v6.96l.01-.18v.35l.05.34.11.33.16.31.21.28.25.24.29.2.31.15.34.09.34.05z" style="stroke-width:0.53;fill:#FFFFFF;fill-opacity:0.50"/><text x="223.56" y="139.99" lengthAdjust="spacingAndGlyphs" style="font-size:5.69px;font-family:&quot;Arial&quot;" text-anchor="middle" textLength="54.64">LEONARD C GRANT</text><path d="M95.86 204.36h64.8-.08l.34-.02.34-.07.33-.12.3-.17.27-.22.23-.26.19-.3.13-.32.08-.34.03-.34h0v-6.96h0l-.03-.35-.08-.34-.13-.32-.19-.29-.23-.26-.27-.22-.3-.18-.33-.12-.34-.07-.26-.01h-64.8l.26.01-.34-.01-.35.04-.33.1-.32.14-.28.2-.25.24-.21.28-.16.31-.11.33-.06.34-.01.18v6.96l.01-.18v.35l.06.34.11.33.16.31.21.28.25.24.28.2.32.15.33.09.35.05z" style="stroke-width:0.53;fill:#FFFFFF;fill-opacity:0.50"/><text x="128.26" y="200.76" lengthAdjust="spacingAndGlyphs" style="font-size:5.69px;font-family:&quot;Arial&quot;" text-anchor="middle" textLength="61.92">GRANT A LEGACY LLC</text><path d="M124.46 191.6h64.5-.09l.35-.02.34-.07.32-.12.3-.17.27-.22.23-.26.19-.3.13-.32.09-.33.03-.35h0v-15.16h0l-.03-.34-.09-.34-.13-.32-.19-.3-.23-.26-.27-.22-.3-.17-.32-.12-.34-.07-.26-.02h-64.5l.27.02-.35-.02-.35.05-.33.09-.32.15-.28.2-.25.24-.21.28-.16.31-.11.32-.06.35-.01.17v15.16l.01-.18v.35l.06.35.11.33.16.3.21.28.25.24.28.2.32.15.33.09.35.05z" style="stroke-width:0.53;fill:#FFFFFF;fill-opacity:0.50"/><text x="156.71" y="179.8" lengthAdjust="spacingAndGlyphs" style="font-size:5.69px;font-family:&quot;Arial&quot;" text-anchor="middle" textLength="43.92">PO BOX 090405,</text><text x="156.71" y="188" lengthAdjust="spacingAndGlyphs" style="font-size:5.69px;font-family:&quot;Arial&quot;" text-anchor="middle" textLength="61.61">MILWAUKEE, WI 53209</text><path d="M41.42 244.89h64.49-.08l.34-.01.34-.07.33-.12.3-.18.27-.22.23-.26.19-.29.13-.32.09-.34.02-.35h0v-23.35h0l-.02-.34-.09-.34-.13-.32-.19-.29-.23-.27-.27-.22-.3-.17-.33-.12-.34-.07-.26-.02H41.42l.26.02-.34-.02-.35.05-.33.09-.32.15-.28.2-.25.24-.21.28-.16.31-.11.33-.06.34-.01.17v23.35l.01-.17v.35l.06.34.11.33.16.31.21.28.25.24.28.19.32.15.33.1.35.04z" style="stroke-width:0.53;fill:#FFFFFF;fill-opacity:0.50"/><text x="73.67" y="224.91" lengthAdjust="spacingAndGlyphs" style="font-size:5.69px;font-family:&quot;Arial&quot;" text-anchor="middle" textLength="48.65">5995 N TEUTONIA</text><text x="73.67" y="233.1" lengthAdjust="spacingAndGlyphs" style="font-size:5.69px;font-family:&quot;Arial&quot;" text-anchor="middle" textLength="46.76">AVE, UNIT 90405,</text><text x="73.67" y="241.29" lengthAdjust="spacingAndGlyphs" style="font-size:5.69px;font-family:&quot;Arial&quot;" text-anchor="middle" textLength="61.61">MILWAUKEE, WI 53209</text></g><g clip-path="url(#cpMC4wMHwyODguMDB8MC4wMHwyODguMDA=)"><circle cx="52.98" cy="96.71" r="1.95" style="stroke-width:0.71;stroke:none;fill:#F8766D"/><path d="m129.33 93.67 2.63 4.56h-5.26z" style="stroke-width:0.71;stroke:none;fill:#00BA38"/><path d="M195.31 98.66h3.91v-3.91h-3.91z" style="stroke-width:0.71;stroke:none;fill:#619CFF"/><text x="67.09" y="99.86" lengthAdjust="spacingAndGlyphs" style="font-size:8.80px;font-family:&quot;Arial Narrow&quot;" textLength="48.12">mprop address</text><text x="143.45" y="99.86" lengthAdjust="spacingAndGlyphs" style="font-size:8.80px;font-family:&quot;Arial Narrow&quot;" textLength="39.69">owner name</text><text x="211.38" y="99.86" lengthAdjust="spacingAndGlyphs" style="font-size:8.80px;font-family:&quot;Arial Narrow&quot;" textLength="40.5">wdfi address</text><text x="32.63" y="65.12" lengthAdjust="spacingAndGlyphs" style="font-size:12.00px;font-family:&quot;Arial Narrow&quot;" textLength="241.29">includes 2 parcels, 6 units, and 2 distinct owner names.</text><text x="32.63" y="42.78" lengthAdjust="spacingAndGlyphs" style="font-size:18.00px;font-weight:bold;font-family:&quot;Arial Narrow&quot;" textLength="212.67">GRANT A LEGACY LLC Group</text></g></svg>