<svg xmlns="http://www.w3.org/2000/svg" width="768" height="768" viewBox="0 0 576 576"><g class="svglite"><defs><style><![CDATA[.svglite line,.svglite polyline,.svglite polygon,.svglite path,.svglite circle{fill:none;stroke:#000000;stroke-linecap:round;stroke-linejoin:round;stroke-miterlimit:10.00}.svglite text{white-space:pre}.svglite g.glyphgroup path{fill:inherit;stroke:none}]]></style></defs><rect width="100%" height="100%" style="stroke-linecap:round;stroke-linejoin:round;stroke-miterlimit:10.00;stroke:none;fill:#FFFFFF"/><defs><clipPath id="cpMC4wMHw1NzYuMDB8MC4wMHw1NzYuMDA="><path d="M0 0h576v576H0z"/></clipPath></defs><g clip-path="url(#cpMC4wMHw1NzYuMDB8MC4wMHw1NzYuMDA=)"><path d="M0 0h576v576H0z" style="stroke-width:1.07;stroke:none;fill:#FFFFFF"/></g><defs><clipPath id="cpMjkuODl8NTQ2LjExfDEyMi4xNHw1NDYuMTE="><path d="M29.89 122.14h516.22v423.97H29.89z"/></clipPath></defs><g clip-path="url(#cpMjkuODl8NTQ2LjExfDEyMi4xNHw1NDYuMTE=)"><path d="m522.65 268.24-1.97-.22-1.98-.22-1.97-.22-1.97-.22-1.97-.23-1.98-.22-1.97-.22-1.97-.22-1.97-.22-1.97-.22-1.98-.22-1.97-.22-1.97-.23-1.97-.22-1.98-.22-1.97-.22-1.97-.22-1.97-.22-1.97-.22-1.98-.22-1.97-.23-1.97-.22-1.97-.22-1.97-.22-1.98-.22-1.97-.22-1.97-.22-1.97-.22-1.98-.23-1.97-.22-1.97-.22-1.97-.22-1.97-.22-1.98-.22-1.97-.22-1.97-.22-1.97-.23-1.98-.22-1.97-.22-1.97-.22-1.97-.22-1.97-.22-1.98-.22-1.97-.22-1.97-.23-1.97-.22-1.97-.22-1.98-.22-1.97-.22-1.97-.22-1.97-.22-1.98-.22-1.97-.23-1.97-.22-1.97-.22-1.97-.22-1.98-.22-1.97-.22-1.97-.22-1.97-.22-1.97-.23-1.98-.22-1.97-.22-1.97-.22-1.97-.22-1.98-.22-1.97-.22-1.97-.22-1.97-.23-1.97-.22-1.98-.22-1.97-.22-1.97-.22-1.97-.22-1.98-.22-1.97-.22-1.97-.23-1.97-.22-1.97-.22-1.98-.22-1.97-.22-1.97-.22-1.97-.22-1.97-.22-1.98-.23-1.97-.22-1.97-.22-1.97-.22-1.98-.22-1.97-.22-1.97-.22-1.97-.22-1.97-.23-1.98-.22-1.97-.22-1.97-.22-1.97-.22-1.98-.22-1.97-.22" style="stroke-width:1.07;stroke:#000000;stroke-opacity:0.10;stroke-linecap:butt"/><path d="m517.86 221.98-1.92.25-1.92.25-1.93.24-1.92.25-1.92.24-1.93.25-1.92.25-1.93.24-1.92.25-1.92.24-1.93.25-1.92.25-1.93.24-1.92.25-1.92.24-1.93.25-1.92.25-1.92.24-1.93.25-1.92.24-1.93.25-1.92.25-1.92.24-1.93.25-1.92.24-1.93.25-1.92.25-1.92.24-1.93.25-1.92.24-1.92.25-1.93.25-1.92.24-1.93.25-1.92.24-1.92.25-1.93.25-1.92.24-1.93.25-1.92.24-1.92.25-1.93.25-1.92.24-1.93.25-1.92.24-1.92.25-1.93.25-1.92.24-1.92.25-1.93.24-1.92.25-1.93.25-1.92.24-1.92.25-1.93.24-1.92.25-1.93.25-1.92.24-1.92.25-1.93.24-1.92.25-1.92.25-1.93.24-1.92.25-1.93.24-1.92.25-1.92.25-1.93.24-1.92.25-1.93.24-1.92.25-1.92.25-1.93.24-1.92.25-1.92.24-1.93.25-1.92.25-1.93.24-1.92.25-1.92.24-1.93.25-1.92.25-1.93.24-1.92.25-1.92.24-1.93.25-1.92.25-1.92.24-1.93.25-1.92.24-1.93.25-1.92.25-1.92.24-1.93.25-1.92.24-1.93.25-1.92.25-1.92.24-1.93.25" style="stroke-width:1.07;stroke:#000000;stroke-opacity:0.10;stroke-linecap:butt"/><path d="m484.22 172.55-1.58.74-1.59.75-1.58.74-1.59.75-1.58.74-1.58.75-1.59.75-1.58.74-1.59.75-1.58.74-1.58.75-1.59.74-1.58.75-1.59.74-1.58.75-1.58.74-1.59.75-1.58.74-1.59.75-1.58.74-1.58.75-1.59.75-1.58.74-1.59.75-1.58.74-1.58.75-1.59.74-1.58.75-1.59.74-1.58.75-1.58.74-1.59.75-1.58.74-1.59.75-1.58.74-1.58.75-1.59.75-1.58.74-1.59.75-1.58.74-1.58.75-1.59.74-1.58.75-1.59.74-1.58.75-1.58.74-1.59.75-1.58.74-1.59.75-1.58.75-1.58.74-1.59.75-1.58.74-1.59.75-1.58.74-1.58.75-1.59.74-1.58.75-1.59.74-1.58.75-1.58.74-1.59.75-1.58.74-1.59.75-1.58.75-1.58.74-1.59.75-1.58.74-1.59.75-1.58.74-1.58.75-1.59.74-1.58.75-1.59.74-1.58.75-1.59.74-1.58.75-1.58.75-1.59.74-1.58.75-1.59.74-1.58.75-1.58.74-1.59.75-1.58.74-1.59.75-1.58.74-1.58.75-1.59.74-1.58.75-1.59.74-1.58.75-1.58.75-1.59.74-1.58.75-1.59.74-1.58.75-1.58.74-1.59.75m-165.94-26.43 1.67.27 1.68.27 1.67.27 1.68.26 1.68.27 1.67.27 1.68.26 1.67.27 1.68.27 1.68.26 1.67.27 1.68.27 1.68.26 1.67.27 1.68.27 1.67.26 1.68.27 1.68.27 1.67.27 1.68.26 1.68.27 1.67.27 1.68.26 1.67.27 1.68.27 1.68.26 1.67.27 1.68.27 1.68.26 1.67.27 1.68.27 1.67.27 1.68.26 1.68.27 1.67.27 1.68.26 1.68.27 1.67.27 1.68.26 1.67.27 1.68.27 1.68.26 1.67.27 1.68.27 1.68.26 1.67.27 1.68.27 1.67.27 1.68.26 1.68.27 1.67.27 1.68.26 1.68.27 1.67.27 1.68.26 1.67.27 1.68.27 1.68.26 1.67.27 1.68.27 1.68.27 1.67.26 1.68.27 1.67.27 1.68.26 1.68.27 1.67.27 1.68.26 1.68.27 1.67.27 1.68.26 1.67.27 1.68.27 1.68.26 1.67.27 1.68.27 1.68.27 1.67.26 1.68.27 1.67.27 1.68.26 1.68.27 1.67.27 1.68.26 1.68.27 1.67.27 1.68.26 1.67.27 1.68.27 1.68.27 1.67.26 1.68.27 1.68.27 1.67.26 1.68.27 1.67.27 1.68.26 1.68.27 1.67.27m-165.94-26.43-1.1-.62-1.09-.62-1.09-.62-1.09-.63-1.09-.62-1.1-.62-1.09-.62-1.09-.63-1.09-.62-1.09-.62-1.1-.62-1.09-.63-1.09-.62-1.09-.62-1.09-.63-1.1-.62-1.09-.62-1.09-.62-1.09-.63-1.09-.62-1.1-.62-1.09-.62-1.09-.63-1.09-.62-1.09-.62-1.1-.62-1.09-.63-1.09-.62-1.09-.62-1.09-.63-1.1-.62-1.09-.62-1.09-.62-1.09-.63-1.09-.62-1.09-.62-1.1-.62-1.09-.63-1.09-.62-1.09-.62-1.09-.62-1.1-.63-1.09-.62-1.09-.62-1.09-.63-1.09-.62-1.1-.62-1.09-.62-1.09-.63-1.09-.62-1.09-.62-1.1-.62-1.09-.63-1.09-.62-1.09-.62-1.09-.62-1.1-.63-1.09-.62-1.09-.62-1.09-.63-1.09-.62-1.1-.62-1.09-.62-1.09-.63-1.09-.62-1.09-.62-1.1-.62-1.09-.63-1.09-.62-1.09-.62-1.09-.62-1.09-.63-1.1-.62-1.09-.62-1.09-.63-1.09-.62-1.09-.62-1.1-.62-1.09-.63-1.09-.62-1.09-.62-1.09-.62-1.1-.63-1.09-.62-1.09-.62-1.09-.62-1.09-.63-1.1-.62-1.09-.62-1.09-.63-1.09-.62-1.09-.62-1.1-.62-1.09-.63-1.09-.62-1.09-.62-1.09-.62-1.1-.63-1.09-.62m394.77 131.46-1.22-.44-1.22-.44-1.22-.43-1.22-.44-1.22-.44-1.22-.44-1.22-.44-1.22-.43-1.22-.44-1.22-.44-1.22-.44-1.22-.44-1.22-.44-1.22-.43-1.21-.44-1.22-.44-1.22-.44-1.22-.44-1.22-.44-1.22-.43-1.22-.44-1.22-.44-1.22-.44-1.22-.44-1.22-.44-1.22-.43-1.22-.44-1.22-.44-1.22-.44-1.21-.44-1.22-.44-1.22-.43-1.22-.44-1.22-.44-1.22-.44-1.22-.44-1.22-.44-1.22-.43-1.22-.44-1.22-.44-1.22-.44-1.22-.44-1.22-.44-1.21-.43-1.22-.44-1.22-.44-1.22-.44-1.22-.44-1.22-.44-1.22-.43-1.22-.44-1.22-.44-1.22-.44-1.22-.44-1.22-.44-1.22-.43-1.22-.44-1.22-.44-1.21-.44-1.22-.44-1.22-.44-1.22-.43-1.22-.44-1.22-.44-1.22-.44-1.22-.44-1.22-.44-1.22-.43-1.22-.44-1.22-.44-1.22-.44-1.22-.44-1.22-.44-1.21-.43-1.22-.44-1.22-.44-1.22-.44-1.22-.44-1.22-.44-1.22-.43-1.22-.44-1.22-.44-1.22-.44-1.22-.44-1.22-.44-1.22-.43-1.22-.44-1.21-.44-1.22-.44-1.22-.44-1.22-.44-1.22-.43-1.22-.44-1.22-.44-1.22-.44-1.22-.44-1.22-.44-1.22-.43-1.22-.44m31.36-104.93-.32 1.06-.31 1.06-.32 1.06-.32 1.06-.31 1.06-.32 1.06-.32 1.06-.31 1.06-.32 1.06-.32 1.06-.31 1.06-.32 1.06-.32 1.06-.31 1.06-.32 1.06-.32 1.06-.31 1.06-.32 1.06-.32 1.06-.31 1.06-.32 1.06-.32 1.06-.31 1.06-.32 1.06-.32 1.06-.31 1.06-.32 1.06-.32 1.06-.31 1.06-.32 1.06-.32 1.06-.31 1.06-.32 1.05-.32 1.06-.32 1.06-.31 1.06-.32 1.06-.32 1.06-.31 1.06-.32 1.06-.32 1.06-.31 1.06-.32 1.06-.32 1.06-.31 1.06-.32 1.06-.32 1.06-.31 1.06-.32 1.06-.32 1.06-.31 1.06-.32 1.06-.32 1.06-.31 1.06-.32 1.06-.32 1.06-.31 1.06-.32 1.06-.32 1.06-.31 1.06-.32 1.06-.32 1.06-.31 1.06-.32 1.06-.32 1.06-.31 1.06-.32 1.06-.32 1.06-.31 1.06-.32 1.06-.32 1.06-.32 1.06-.31 1.06-.32 1.06-.32 1.06-.31 1.06-.32 1.06-.32 1.06-.31 1.06-.32 1.06-.32 1.06-.31 1.06-.32 1.06-.32 1.06-.31 1.06-.32 1.06-.32 1.06-.31 1.06-.32 1.06-.32 1.06-.31 1.06-.32 1.06-.32 1.06-.31 1.06-.32 1.06-.32 1.06-.31 1.06-.32 1.06-.32 1.06m31.36-104.93.51.44.5.44.51.44.51.44.5.45.51.44.5.44.51.44.51.44.5.44.51.44.51.44.5.45.51.44.5.44.51.44.51.44.5.44.51.44.5.44.51.45.51.44.5.44.51.44.51.44.5.44.51.44.5.44.51.45.51.44.5.44.51.44.5.44.51.44.51.44.5.45.51.44.51.44.5.44.51.44.5.44.51.44.51.44.5.45.51.44.5.44.51.44.51.44.5.44.51.44.51.44.5.45.51.44.5.44.51.44.51.44.5.44.51.44.5.45.51.44.51.44.5.44.51.44.51.44.5.44.51.44.5.45.51.44.51.44.5.44.51.44.5.44.51.44.51.44.5.45.51.44.51.44.5.44.51.44.5.44.51.44.51.44.5.45.51.44.5.44.51.44.51.44.5.44.51.44.51.45.5.44.51.44.5.44.51.44.51.44.5.44.51.44.5.45.51.44m100.02 327.6-.9-.72-.9-.72-.91-.72-.9-.72-.9-.71-.91-.72-.9-.72-.9-.72-.91-.72-.9-.72-.9-.71-.91-.72-.9-.72-.9-.72-.91-.72-.9-.72-.9-.72-.91-.71-.9-.72-.9-.72-.91-.72-.9-.72-.9-.72-.91-.71-.9-.72-.9-.72-.91-.72-.9-.72-.9-.72-.91-.72-.9-.71-.9-.72-.91-.72-.9-.72-.9-.72-.9-.72-.91-.71-.9-.72-.9-.72-.91-.72-.9-.72-.9-.72-.91-.72-.9-.71-.9-.72-.91-.72-.9-.72-.9-.72-.91-.72-.9-.71-.9-.72-.91-.72-.9-.72-.9-.72-.91-.72-.9-.72-.9-.71-.91-.72-.9-.72-.9-.72-.91-.72-.9-.72-.9-.71-.91-.72-.9-.72-.9-.72-.91-.72-.9-.72-.9-.72-.9-.71-.91-.72-.9-.72-.9-.72-.91-.72-.9-.72-.9-.71-.91-.72-.9-.72-.9-.72-.91-.72-.9-.72-.9-.71-.91-.72-.9-.72-.9-.72-.91-.72-.9-.72-.9-.72-.91-.71-.9-.72-.9-.72-.91-.72-.9-.72-.9-.72-.91-.71-.9-.72-.9-.72-.91-.72-.9-.72" style="stroke-width:1.07;stroke:#000000;stroke-opacity:0.10;stroke-linecap:butt"/><path d="m233.87 151.05.94.96.95.97.94.96.95.96.94.96.95.97.94.96.95.96.94.96.95.97.94.96.95.96.94.96.95.97.94.96.95.96.94.96.95.97.94.96.94.96.95.96.94.97.95.96.94.96.95.96.94.97.95.96.94.96.95.96.94.97.95.96.94.96.95.96.94.97.95.96.94.96.95.96.94.97.95.96.94.96.95.96.94.97.94.96.95.96.94.96.95.97.94.96.95.96.94.96.95.97.94.96.95.96.94.96.95.97.94.96.95.96.94.96.95.97.94.96.95.96.94.96.95.97.94.96.95.96.94.96.94.97.95.96.94.96.95.96.94.97.95.96.94.96.95.96.94.97.95.96.94.96.95.96.94.97.95.96.94.96.95.96.94.97.95.96.94.96.95.96.94.97.95.96.94.96.94.96.95.97.94.96.95.96.94.96.95.96.94.97.95.96.94.96.95.96.94.97m-93.53-95.29-1.82.07-1.83.08-1.82.07-1.82.07-1.83.08-1.82.07-1.82.07-1.83.08-1.82.07-1.82.07-1.83.07-1.82.08-1.83.07-1.82.07-1.82.08-1.83.07-1.82.07-1.82.07-1.83.08-1.82.07-1.82.07-1.83.08-1.82.07-1.82.07-1.83.07-1.82.08-1.82.07-1.83.07-1.82.08-1.82.07-1.83.07-1.82.08-1.82.07-1.83.07-1.82.07-1.82.08-1.83.07-1.82.07-1.82.08-1.83.07-1.82.07-1.82.07-1.83.08-1.82.07-1.82.07-1.83.08-1.82.07-1.82.07-1.83.07-1.82.08-1.82.07-1.83.07-1.82.08-1.82.07-1.83.07-1.82.08-1.82.07-1.83.07-1.82.07-1.82.08-1.83.07-1.82.07-1.82.08-1.83.07-1.82.07-1.83.07-1.82.08-1.82.07-1.83.07-1.82.08-1.82.07-1.83.07-1.82.07-1.82.08-1.83.07-1.82.07-1.82.08-1.83.07-1.82.07-1.82.08-1.83.07-1.82.07-1.82.07-1.83.08-1.82.07-1.82.07-1.83.08-1.82.07-1.82.07-1.83.07-1.82.08-1.82.07-1.83.07-1.82.08-1.82.07-1.83.07-1.82.07-1.82.08-1.83.07" style="stroke-width:1.07;stroke:#000000;stroke-opacity:0.10;stroke-linecap:butt"/><path d="m117.15 247.87 2.12-.01 2.12-.02 2.13-.01 2.12-.02 2.13-.02 2.12-.01 2.12-.02 2.13-.01 2.12-.02 2.13-.01 2.12-.02 2.12-.01 2.13-.02 2.12-.02 2.12-.01 2.13-.02 2.12-.01 2.13-.02 2.12-.01 2.12-.02 2.13-.01 2.12-.02 2.12-.01 2.13-.02 2.12-.02 2.13-.01 2.12-.02 2.12-.01 2.13-.02 2.12-.01 2.12-.02 2.13-.01 2.12-.02 2.13-.02 2.12-.01 2.12-.02 2.13-.01 2.12-.02 2.13-.01 2.12-.02 2.12-.01 2.13-.02 2.12-.01 2.12-.02 2.13-.02 2.12-.01 2.13-.02 2.12-.01 2.12-.02 2.13-.01 2.12-.02 2.12-.01 2.13-.02 2.12-.02 2.13-.01 2.12-.02 2.12-.01 2.13-.02 2.12-.01 2.12-.02 2.13-.01 2.12-.02 2.13-.01 2.12-.02 2.12-.02 2.13-.01 2.12-.02 2.13-.01 2.12-.02 2.12-.01 2.13-.02 2.12-.01 2.12-.02 2.13-.02 2.12-.01 2.13-.02 2.12-.01 2.12-.02 2.13-.01 2.12-.02 2.12-.01 2.13-.02 2.12-.01 2.13-.02 2.12-.02 2.12-.01 2.13-.02 2.12-.01 2.12-.02 2.13-.01 2.12-.02 2.13-.01 2.12-.02 2.12-.02 2.13-.01 2.12-.02 2.13-.01 2.12-.02 2.12-.01m-210.25 1.53-.65-.9-.64-.91-.65-.9-.64-.91-.64-.9-.65-.91-.64-.9-.65-.91-.64-.9-.65-.91-.64-.9-.65-.91-.64-.9-.64-.91-.65-.9-.64-.91-.65-.9-.64-.91-.65-.9-.64-.91-.65-.9-.64-.91-.64-.9-.65-.91-.64-.9-.65-.91-.64-.91-.65-.9-.64-.91-.64-.9-.65-.91-.64-.9-.65-.91-.64-.9-.65-.91-.64-.9-.65-.91-.64-.9-.64-.91-.65-.9-.64-.91-.65-.9-.64-.91-.65-.9-.64-.91-.64-.9-.65-.91-.64-.9-.65-.91-.64-.9-.65-.91-.64-.9-.65-.91-.64-.9-.64-.91-.65-.9-.64-.91-.65-.9-.64-.91-.65-.9-.64-.91-.64-.9-.65-.91-.64-.9-.65-.91-.64-.9-.65-.91-.64-.9-.65-.91-.64-.9-.64-.91-.65-.9-.64-.91-.65-.9-.64-.91-.65-.9-.64-.91-.65-.9-.64-.91-.64-.9-.65-.91-.64-.9-.65-.91-.64-.9-.65-.91-.64-.9-.64-.91-.65-.9-.64-.91-.65-.9-.64-.91-.65-.9-.64-.91-.65-.9-.64-.91-.64-.9-.65-.91-.64-.9-.65-.91M392.4 345.23l-.65-1-.66-1-.66-1-.65-1-.66-1-.66-.99-.65-1-.66-1-.66-1-.65-1-.66-1-.66-1-.65-1-.66-1-.65-.99-.66-1-.66-1-.65-1-.66-1-.66-1-.65-1-.66-1-.66-1-.65-1-.66-.99-.66-1-.65-1-.66-1-.66-1-.65-1-.66-1-.66-1-.65-1-.66-.99-.66-1-.65-1-.66-1-.66-1-.65-1-.66-1-.66-1-.65-1-.66-.99-.66-1-.65-1-.66-1-.66-1-.65-1-.66-1-.66-1-.65-1-.66-.99-.65-1-.66-1-.66-1-.65-1-.66-1-.66-1-.65-1-.66-1-.66-.99-.65-1-.66-1-.66-1-.65-1-.66-1-.66-1-.65-1-.66-1-.66-.99-.65-1-.66-1-.66-1-.65-1-.66-1-.66-1-.65-1-.66-1-.66-.99-.65-1-.66-1-.66-1-.65-1-.66-1-.66-1-.65-1-.66-1-.66-.99-.65-1-.66-1-.65-1-.66-1-.66-1-.65-1-.66-1-.66-1-.65-.99-.66-1-.66-1m-137.76 49.38 1.39-.49 1.39-.5 1.39-.5 1.4-.5 1.39-.5 1.39-.5 1.39-.5 1.39-.5 1.39-.5 1.4-.49 1.39-.5 1.39-.5 1.39-.5 1.39-.5 1.39-.5 1.39-.5 1.4-.5 1.39-.5 1.39-.49 1.39-.5 1.39-.5 1.39-.5 1.4-.5 1.39-.5 1.39-.5 1.39-.5 1.39-.5 1.39-.49 1.39-.5 1.4-.5 1.39-.5 1.39-.5 1.39-.5 1.39-.5 1.39-.5 1.4-.49 1.39-.5 1.39-.5 1.39-.5 1.39-.5 1.39-.5 1.39-.5 1.4-.5 1.39-.5 1.39-.49 1.39-.5 1.39-.5 1.39-.5 1.4-.5 1.39-.5 1.39-.5 1.39-.5 1.39-.5 1.39-.49 1.39-.5 1.4-.5 1.39-.5 1.39-.5 1.39-.5 1.39-.5 1.39-.5 1.4-.49 1.39-.5 1.39-.5 1.39-.5 1.39-.5 1.39-.5 1.39-.5 1.4-.5 1.39-.5 1.39-.49 1.39-.5 1.39-.5 1.39-.5 1.4-.5 1.39-.5 1.39-.5 1.39-.5 1.39-.5 1.39-.49 1.39-.5 1.4-.5 1.39-.5 1.39-.5 1.39-.5 1.39-.5 1.39-.5 1.4-.5 1.39-.49 1.39-.5 1.39-.5 1.39-.5 1.39-.5 1.39-.5 1.4-.5 1.39-.5 1.39-.49 1.39-.5 1.39-.5m-69.04 95.16.7-.96.7-.96.7-.96.69-.96.7-.96.7-.96.7-.97.69-.96.7-.96.7-.96.7-.96.69-.96.7-.96.7-.96.7-.97.69-.96.7-.96.7-.96.69-.96.7-.96.7-.96.7-.96.69-.97.7-.96.7-.96.7-.96.69-.96.7-.96.7-.96.7-.96.69-.97.7-.96.7-.96.69-.96.7-.96.7-.96.7-.96.69-.96.7-.97.7-.96.7-.96.69-.96.7-.96.7-.96.7-.96.69-.97.7-.96.7-.96.7-.96.69-.96.7-.96.7-.96.69-.96.7-.97.7-.96.7-.96.69-.96.7-.96.7-.96.7-.96.69-.96.7-.97.7-.96.7-.96.69-.96.7-.96.7-.96.69-.96.7-.96.7-.97.7-.96.69-.96.7-.96.7-.96.7-.96.69-.96.7-.96.7-.97.7-.96.69-.96.7-.96.7-.96.69-.96.7-.96.7-.96.7-.97.69-.96.7-.96.7-.96.7-.96.69-.96.7-.96.7-.96.7-.97.69-.96.7-.96.7-.96.7-.96.69-.96m-69.04 95.16-.37.98-.37.99-.37.98-.37.98-.37.98-.37.98-.37.98-.37.98-.37.98-.37.98-.37.98-.37.98-.37.98-.37.98-.37.98-.37.99-.37.98-.37.98-.37.98-.37.98-.37.98-.37.98-.37.98-.37.98-.37.98-.37.98-.37.98-.37.98-.37.99-.37.98-.37.98-.38.98-.37.98-.37.98-.37.98-.37.98-.37.98-.37.98-.37.98-.37.98-.37.98-.37.98-.37.99-.37.98-.37.98-.37.98-.37.98-.37.98-.37.98-.37.98-.37.98-.37.98-.37.98-.37.98-.37.98-.37.99-.37.98-.37.98-.37.98-.37.98-.37.98-.37.98-.37.98-.38.98-.37.98-.37.98-.37.98-.37.98-.37.99-.37.98-.37.98-.37.98-.37.98-.37.98-.37.98-.37.98-.37.98-.37.98-.37.98-.37.98-.37.98-.37.98-.37.99-.37.98-.37.98-.37.98-.37.98-.37.98-.37.98-.37.98-.37.98-.37.98-.37.98-.37.98-.37.98-.38.99-.37.98-.37.98-.37.98m287.19 74.1-1.63.14-1.64.14-1.63.15-1.64.14-1.63.14-1.64.15-1.63.14-1.64.14-1.63.14-1.64.15-1.63.14-1.64.14-1.63.15-1.64.14-1.63.14-1.64.14-1.63.15-1.64.14-1.64.14-1.63.15-1.64.14-1.63.14-1.64.14-1.63.15-1.64.14-1.63.14-1.64.15-1.63.14-1.64.14-1.63.14-1.64.15-1.63.14-1.64.14-1.63.15-1.64.14-1.63.14-1.64.14-1.63.15-1.64.14-1.63.14-1.64.15-1.63.14-1.64.14-1.63.14-1.64.15-1.63.14-1.64.14-1.63.14-1.64.15-1.63.14-1.64.14-1.63.15-1.64.14-1.63.14-1.64.14-1.63.15-1.64.14-1.63.14-1.64.15-1.63.14-1.64.14-1.63.14-1.64.15-1.63.14-1.64.14-1.63.15-1.64.14-1.63.14-1.64.14-1.63.15-1.64.14-1.63.14-1.64.15-1.63.14-1.64.14-1.64.14-1.63.15-1.64.14-1.63.14-1.64.15-1.63.14-1.64.14-1.63.14-1.64.15-1.63.14-1.64.14-1.63.15-1.64.14-1.63.14-1.64.14-1.63.15-1.64.14-1.63.14-1.64.15-1.63.14-1.64.14-1.63.14-1.64.15-1.63.14m-144.3-342.63 1.26.63 1.26.63 1.25.62 1.26.63 1.26.63 1.26.63 1.26.62 1.26.63 1.26.63 1.26.63 1.26.62 1.26.63 1.26.63 1.26.63 1.26.62 1.26.63 1.26.63 1.26.63 1.26.62 1.26.63 1.25.63 1.26.63 1.26.62 1.26.63 1.26.63 1.26.63 1.26.62 1.26.63 1.26.63 1.26.63 1.26.62 1.26.63 1.26.63 1.26.63 1.26.62 1.26.63 1.26.63 1.26.63 1.26.62 1.25.63 1.26.63 1.26.63 1.26.63 1.26.62 1.26.63 1.26.63 1.26.63 1.26.62 1.26.63 1.26.63 1.26.63 1.26.62 1.26.63 1.26.63 1.26.63 1.26.62 1.26.63 1.25.63 1.26.63 1.26.62 1.26.63 1.26.63 1.26.63 1.26.62 1.26.63 1.26.63 1.26.63 1.26.62 1.26.63 1.26.63 1.26.63 1.26.62 1.26.63 1.26.63 1.26.63 1.26.62 1.25.63 1.26.63 1.26.63 1.26.62 1.26.63 1.26.63 1.26.63 1.26.62 1.26.63 1.26.63 1.26.63 1.26.62 1.26.63 1.26.63 1.26.63 1.26.62 1.26.63 1.26.63 1.25.63 1.26.62 1.26.63 1.26.63 1.26.63" style="stroke-width:1.07;stroke:#000000;stroke-opacity:0.10;stroke-linecap:butt"/><path d="m202.72 184.21-1.51-.26-1.51-.26-1.51-.27-1.51-.26-1.51-.26-1.51-.26-1.5-.26-1.51-.27-1.51-.26-1.51-.26-1.51-.26-1.51-.26-1.51-.27-1.51-.26-1.5-.26-1.51-.26-1.51-.26-1.51-.27-1.51-.26-1.51-.26-1.51-.26-1.51-.26-1.5-.27-1.51-.26-1.51-.26-1.51-.26-1.51-.26-1.51-.27-1.51-.26-1.51-.26-1.5-.26-1.51-.26-1.51-.27-1.51-.26-1.51-.26-1.51-.26-1.51-.26-1.51-.27-1.5-.26-1.51-.26-1.51-.26-1.51-.26-1.51-.27-1.51-.26-1.51-.26-1.5-.26-1.51-.26-1.51-.27-1.51-.26-1.51-.26-1.51-.26-1.51-.26-1.51-.27-1.5-.26-1.51-.26-1.51-.26-1.51-.26-1.51-.27-1.51-.26-1.51-.26-1.51-.26-1.5-.26-1.51-.27-1.51-.26-1.51-.26-1.51-.26-1.51-.26-1.51-.27-1.51-.26-1.5-.26-1.51-.26-1.51-.26-1.51-.27-1.51-.26-1.51-.26-1.51-.26-1.51-.27-1.5-.26-1.51-.26-1.51-.26-1.51-.26-1.51-.27-1.51-.26-1.51-.26-1.51-.26-1.5-.26-1.51-.27-1.51-.26-1.51-.26-1.51-.26-1.51-.26-1.51-.27-1.51-.26-1.5-.26-1.51-.26-1.51-.26-1.51-.27-1.51-.26-1.51-.26M392.4 345.23l.28.97.27.97.27.98.28.97.27.97.27.98.28.97.27.97.27.98.28.97.27.97.27.98.28.97.27.97.28.98.27.97.27.97.28.98.27.97.27.97.28.97.27.98.27.97.28.97.27.98.27.97.28.97.27.98.27.97.28.97.27.98.27.97.28.97.27.98.27.97.28.97.27.98.27.97.28.97.27.97.27.98.28.97.27.97.27.98.28.97.27.97.27.98.28.97.27.97.27.98.28.97.27.97.27.98.28.97.27.97.27.98.28.97.27.97.27.98.28.97.27.97.28.97.27.98.27.97.28.97.27.98.27.97.28.97.27.98.27.97.28.97.27.98.27.97.28.97.27.98.27.97.28.97.27.98.27.97.28.97.27.97.27.98.28.97.27.97.27.98.28.97.27.97.27.98.28.97.27.97.27.98.28.97.27.97.27.98.28.97.27.97.27.98.28.97.27.97" style="stroke-width:1.07;stroke:#000000;stroke-opacity:0.10;stroke-linecap:butt"/><path d="m262.58 521.9 1.58-.81 1.59-.81 1.58-.81 1.59-.82 1.58-.81 1.59-.81 1.58-.81 1.59-.81 1.58-.81 1.59-.81 1.58-.82 1.59-.81 1.58-.81 1.58-.81 1.59-.81 1.58-.81 1.59-.81 1.58-.82 1.59-.81 1.58-.81 1.59-.81 1.58-.81 1.59-.81 1.58-.81 1.59-.82 1.58-.81 1.59-.81 1.58-.81 1.59-.81 1.58-.81 1.59-.81 1.58-.82 1.59-.81 1.58-.81 1.59-.81 1.58-.81 1.58-.81 1.59-.81 1.58-.82 1.59-.81 1.58-.81 1.59-.81 1.58-.81 1.59-.81 1.58-.81 1.59-.81 1.58-.82 1.59-.81 1.58-.81 1.59-.81 1.58-.81 1.59-.81 1.58-.81 1.59-.82 1.58-.81 1.59-.81 1.58-.81 1.59-.81 1.58-.81 1.58-.81 1.59-.82 1.58-.81 1.59-.81 1.58-.81 1.59-.81 1.58-.81 1.59-.81 1.58-.82 1.59-.81 1.58-.81 1.59-.81 1.58-.81 1.59-.81 1.58-.81 1.59-.82 1.58-.81 1.59-.81 1.58-.81 1.59-.81 1.58-.81 1.59-.81 1.58-.81 1.58-.82 1.59-.81 1.58-.81 1.59-.81 1.58-.81 1.59-.81 1.58-.81 1.59-.82 1.58-.81 1.59-.81 1.58-.81 1.59-.81 1.58-.81 1.59-.81 1.58-.82 1.59-.81 1.58-.81m-10.6-256.47-1.35.42-1.34.42-1.33.43-1.32.43-1.3.44-1.3.44-1.29.44-1.27.45-1.26.45-1.26.46-1.24.46-1.23.46-1.22.47-1.21.47-1.2.48-1.19.48-1.18.49-1.17.49-1.15.49-1.15.5-1.13.5-1.13.5-1.11.51-1.11.51-1.09.52-1.08.52-1.07.53-1.06.53-1.05.53-1.04.54-1.02.54-1.02.54-1.01.55-.99.56-.99.56-.97.56-.96.56-.95.57-.94.58-.94.58-.92.58-.9.58-.9.59-.89.6-.88.6-.86.6-.86.61-.84.61-.84.61-.82.62-.81.62-.8.63-.79.63-.78.63-.77.64-.76.65-.75.64-.73.65-.73.66-.72.66-.7.66-.69.67-.69.67-.67.67-.66.68-.65.69-.64.69-.63.69-.62.69-.61.7-.59.71-.59.7-.58.72-.56.71-.55.72-.55.73-.53.72-.52.74-.51.73-.5.74-.49.75-.48.74-.47.76-.45.75-.45.76-.44.77-.42.77-.41.77-.41.78-.39.78-.38.78-.37.79-.36.79-.35.8-.34.8-.33.81-.32.81-.3.81-.3.82" style="stroke-width:1.07;stroke:#000000;stroke-opacity:0.10;stroke-linecap:butt"/><path d="m408.87 185.1-1.25.45-1.25.46-1.24.46-1.22.47-1.22.47-1.21.47-1.2.48-1.2.48-1.18.48-1.18.49-1.16.49-1.16.49-1.15.49-1.14.5-1.13.51-1.12.5-1.12.51-1.1.51-1.1.52-1.08.52-1.08.52-1.07.53-1.06.52-1.05.54-1.05.53-1.03.54-1.03.54-1.01.55-1.01.55-1 .55-.99.56-.98.56-.97.56-.97.56-.95.57-.95.57-.94.58-.93.58-.92.58-.91.59-.9.58-.89.6-.89.59-.87.6-.87.6-.86.61-.85.61-.84.61-.83.61-.82.62-.82.62-.8.63-.8.63-.79.63-.77.63-.77.64-.77.65-.75.64-.74.65-.74.65-.72.66-.72.65-.71.67-.7.66-.69.67-.68.67-.67.68-.67.67-.65.69-.65.68-.64.69-.63.69-.62.7-.61.69-.6.71-.6.7-.58.71-.58.71-.57.71-.55.72-.55.72-.55.73-.53.73-.52.73-.52.73-.5.74-.5.74-.49.75-.48.75-.47.75-.46.75-.45.76-.45.76-.43.76-.43.77-.42.77-.41.78-.4.78-.39.78" style="stroke-width:1.07;stroke:#000000;stroke-opacity:0.10;stroke-linecap:butt"/><path d="m408.87 185.1-1.16.49-1.15.49-1.14.5-1.14.5-1.13.5-1.13.51-1.11.51-1.12.51-1.1.51-1.1.51-1.09.52-1.08.52-1.08.53-1.06.52-1.07.53-1.05.53-1.05.53-1.04.54-1.04.54-1.03.54-1.02.54-1.01.55-1.01.55-1 .55-1 .55-.98.56-.98.56-.98.56-.97.57-.96.56-.95.57-.94.58-.94.57-.94.58-.92.58-.92.58-.91.58-.91.59-.9.59-.89.6-.88.59-.88.6-.87.6-.86.6-.86.61-.85.61-.85.61-.83.61-.83.62-.82.62-.82.62-.81.62-.8.63-.8.63-.79.63-.78.63-.77.64-.77.64-.76.64-.76.64-.74.65-.75.65-.73.65-.73.66-.72.65-.71.66-.71.67-.7.66-.69.67-.68.67-.68.67-.68.68-.66.68-.66.68-.65.68-.65.68-.63.69-.64.69-.62.7-.62.69-.61.7-.6.7-.6.71-.59.7-.58.71-.58.71-.57.72-.56.71-.56.72-.54.72-.55.73-.53.73-.53.73-.52.73-.52.73-.5.74-.51.74-.49.74-.49.75" style="stroke-width:1.07;stroke:#000000;stroke-opacity:0.10;stroke-linecap:butt"/><path d="m408.87 185.1-1.06.52-1.06.54-1.05.53-1.05.53-1.04.54-1.04.53-1.03.54-1.03.54-1.03.55-1.02.54-1.01.55-1.01.55-1 .55-1 .55-.99.55-.99.56-.99.56-.98.56-.97.56-.97.56-.97.57-.96.56-.95.57-.95.57-.95.58-.94.57-.93.58-.93.58-.93.58-.92.58-.92.58-.91.59-.9.58-.9.59-.9.59-.89.6-.89.59-.88.6-.88.6-.87.6-.87.6-.86.6-.85.61-.86.6-.84.61-.85.62-.83.61-.84.61-.82.62-.83.62-.82.62-.81.62-.81.63-.8.62-.8.63-.79.63-.79.63-.78.63-.78.64-.78.64-.77.63-.76.65-.76.64-.75.64-.75.65-.75.65-.74.65-.73.65-.73.65-.73.66-.72.65-.71.66-.71.66-.71.67-.7.66-.7.67-.69.67-.68.67-.68.67-.68.67-.67.68-.67.68-.66.68-.66.68-.65.68-.64.69-.65.68-.63.69-.64.69-.62.69-.62.7-.62.69-.61.7-.61.7-.61.7-.59.71-.6.7-.58.71-.59.71" style="stroke-width:1.07;stroke:#000000;stroke-opacity:0.10;stroke-linecap:butt"/><path d="m408.87 185.1-.97.56-.96.57-.96.56-.96.57-.95.57-.96.57-.94.57-.95.57-.94.58-.94.57-.94.58-.94.57-.93.58-.93.58-.92.58-.92.58-.92.58-.92.59-.92.58-.91.58-.9.59-.91.59-.9.59-.9.59-.9.59-.89.59-.89.59-.89.6-.88.59-.88.6-.88.6-.88.6-.87.6-.87.6-.87.6-.86.6-.86.61-.86.6-.86.61-.85.61-.85.6-.84.61-.85.61-.84.62-.84.61-.83.61-.83.62-.83.62-.83.61-.82.62-.82.62-.82.62-.81.62-.81.63-.81.62-.81.63-.8.62-.8.63-.79.63-.8.63-.79.63-.79.63-.78.63-.78.64-.78.63-.78.64-.77.64-.77.64-.77.63-.76.65-.76.64-.76.64-.76.64-.75.65-.75.65-.75.64-.74.65-.74.65-.74.65-.73.65-.73.66-.73.65-.73.66-.72.65-.72.66-.72.66-.71.66-.72.66-.7.66-.71.66-.7.67-.7.66-.7.67-.69.66-.69.67-.69.67-.69.67-.68.67-.68.68" style="stroke-width:1.07;stroke:#000000;stroke-opacity:0.10;stroke-linecap:butt"/><path d="m408.87 185.1-.87.6-.87.6-.87.6-.87.6-.86.6-.87.61-.86.6-.87.6-.86.6-.86.61-.86.6-.86.61-.86.6-.86.61-.86.6-.86.61-.85.61-.85.6-.86.61-.85.61-.85.61-.85.6-.85.61-.85.61-.85.61-.84.61-.85.61-.84.61-.85.61-.84.61-.84.61-.84.62-.84.61-.84.61-.84.61-.83.62-.84.61-.83.62-.84.61-.83.62-.83.61-.83.62-.83.61-.83.62-.83.62-.83.61-.82.62-.83.62-.82.62-.82.61-.83.62-.82.62-.82.62-.82.62-.81.62-.82.62-.82.63-.81.62-.82.62-.81.62-.81.62-.81.63-.81.62-.81.62-.81.63-.81.62-.8.63-.81.62-.8.63-.81.62-.8.63-.8.63-.8.62-.8.63-.8.63-.8.63-.79.63-.8.63-.79.62-.8.63-.79.63-.79.63-.79.64-.79.63-.79.63-.79.63-.78.63-.79.63-.78.64-.79.63-.78.63-.78.64-.78.63-.78.64-.78.63-.78.64-.78.63-.77.64-.78.64m81.47-61.24-.77.63-.78.64-.78.64-.77.63-.78.64-.78.63-.78.64-.79.63-.78.63-.78.64-.79.63-.78.63-.79.63-.79.64-.79.63-.79.63-.79.63-.79.63-.79.63-.79.63-.8.63-.79.63-.8.63-.8.62-.8.63-.8.63-.8.63-.8.62-.8.63-.8.63-.81.62-.8.63-.81.62-.81.63-.81.62-.8.62-.81.63-.82.62-.81.62-.81.63-.82.62-.81.62-.82.62-.81.62-.82.62-.82.62-.82.62-.82.62-.82.62-.83.62-.82.62-.82.61-.83.62-.83.62-.83.62-.82.61-.83.62-.83.61-.84.62-.83.61-.83.62-.84.61-.83.62-.84.61-.84.61-.84.62-.84.61-.84.61-.84.61-.84.61-.84.61-.85.61-.84.61-.85.61-.85.61-.85.61-.84.61-.85.61-.86.61-.85.6-.85.61-.86.61-.85.6-.86.61-.85.61-.86.6-.86.61-.86.6-.86.61-.86.6-.87.6-.86.61-.87.6-.86.6-.87.6-.87.6-.87.61-.87.6-.87.6" style="stroke-width:1.07;stroke:#000000;stroke-opacity:0.10;stroke-linecap:butt"/><path d="m408.87 185.1-.68.67-.68.67-.69.67-.68.67-.69.67-.7.67-.69.66-.7.67-.71.66-.7.66-.71.67-.71.66-.72.66-.71.66-.72.65-.73.66-.72.65-.73.66-.73.65-.74.65-.74.65-.74.65-.74.65-.75.65-.75.64-.75.65-.75.64-.76.65-.76.64-.77.64-.77.64-.77.64-.77.63-.77.64-.78.64-.79.63-.78.63-.79.64-.79.63-.79.63-.8.62-.8.63-.8.63-.81.62-.8.63-.82.62-.81.62-.82.62-.82.62-.82.62-.82.62-.83.61-.84.62-.83.61-.84.62-.84.61-.84.61-.85.61-.85.61-.85.61-.85.6-.86.61-.86.6-.87.61-.86.6-.87.6-.88.6-.87.6-.88.59-.88.6-.89.6-.89.59-.89.59-.89.6-.9.59-.9.59-.9.59-.9.58-.91.59-.91.58-.92.59-.91.58-.92.58-.92.59-.93.58-.93.57-.93.58-.93.58-.94.57-.94.58-.95.57-.94.57-.95.57-.95.57-.96.57-.96.57-.96.57-.96.56-.97.57" style="stroke-width:1.07;stroke:#000000;stroke-opacity:0.10;stroke-linecap:butt"/><path d="m408.87 185.1-.58.71-.59.7-.59.71-.6.7-.6.7-.61.7-.61.7-.62.7-.62.69-.63.69-.63.69-.64.69-.64.69-.65.68-.65.69-.66.68-.66.68-.67.68-.67.67-.67.67-.68.68-.69.67-.69.67-.7.66-.7.67-.7.66-.71.66-.72.66-.72.66-.72.65-.73.66-.74.65-.74.65-.74.65-.75.64-.76.65-.76.64-.76.64-.77.64-.77.64-.78.63-.79.63-.78.64-.8.63-.8.62-.8.63-.81.62-.81.63-.82.62-.82.61-.83.62-.83.62-.84.61-.84.61-.85.61-.85.61-.86.6-.86.61-.87.6-.87.6-.88.6-.88.59-.89.6-.89.59-.89.59-.9.59-.91.59-.91.58-.92.59-.92.58-.92.58-.93.58-.94.57-.94.58-.94.57-.95.57-.96.57-.96.57-.96.56-.97.56-.98.57-.98.56-.98.55-.99.56-1 .55-.99.56-1.01.55-1.01.54-1.01.55-1.02.55-1.02.54-1.03.54-1.04.54-1.03.54-1.05.53-1.04.54-1.06.53-1.05.53-1.07.53" style="stroke-width:1.07;stroke:#000000;stroke-opacity:0.10;stroke-linecap:butt"/><path d="m408.87 185.1-.49.74-.49.74-.5.74-.51.74-.51.74-.53.73-.52.73-.54.72-.54.73-.55.72-.56.72-.56.72-.57.71-.57.71-.59.71-.59.71-.59.7-.61.7-.61.7-.62.7-.62.69-.63.69-.64.69-.65.69-.65.68-.66.68-.66.68-.67.67-.68.68-.69.67-.69.66-.7.67-.71.66-.71.66-.72.66-.73.65-.73.65-.74.65-.75.65-.75.65-.77.64-.76.64-.78.63-.78.64-.79.63-.79.63-.81.62-.81.63-.81.62-.82.62-.83.61-.84.62-.84.61-.86.61-.85.6-.87.6-.87.61-.87.59-.89.6-.89.59-.9.59-.9.59-.92.58-.91.59-.93.58-.93.57-.94.58-.95.57-.95.57-.96.57-.97.56-.97.56-.98.56-.99.56-.99.55-1 .56-1.01.54-1.02.55-1.02.54-1.03.55-1.03.53-1.04.54-1.05.53-1.06.53-1.06.53-1.07.53-1.08.52-1.08.52-1.09.52-1.1.52-1.1.51-1.11.51-1.12.51-1.12.5-1.13.5-1.14.5-1.15.5-1.15.5-1.16.49" style="stroke-width:1.07;stroke:#000000;stroke-opacity:0.10;stroke-linecap:butt"/><path d="m408.87 185.1-.39.78-.4.78-.41.77-.42.77-.42.77-.44.76-.44.77-.46.75-.46.76-.47.75-.48.75-.49.74-.49.74-.51.74-.52.74-.52.73-.53.73-.54.72-.55.72-.56.72-.57.71-.57.72-.59.7-.59.71-.61.7-.61.7-.62.69-.63.7-.64.68-.64.69-.66.68-.66.68-.68.67-.68.68-.69.66-.7.67-.71.66-.71.66-.73.65-.73.66-.75.64-.75.65-.76.64-.77.64-.78.63-.79.64-.8.62-.8.63-.81.62-.83.62-.83.62-.84.61-.85.61-.86.6-.86.6-.88.6-.88.6-.9.59-.9.59-.91.58-.92.59-.93.57-.94.58-.94.57-.96.57-.96.57-.97.56-.99.56-.99.55-1 .56-1 .54-1.02.55-1.03.54-1.03.54-1.04.54-1.05.53-1.06.53-1.07.52-1.08.53-1.09.52-1.1.51-1.1.51-1.11.51-1.13.51-1.13.5-1.14.5-1.15.5-1.15.49-1.17.49-1.17.48-1.19.49-1.19.48-1.2.47-1.21.47-1.22.47-1.23.47-1.24.46-1.24.46-1.26.46" style="stroke-width:1.07;stroke:#000000;stroke-opacity:0.10;stroke-linecap:butt"/><path d="m408.87 185.1-.29.81-.31.82-.32.81-.33.8-.33.8-.35.8-.36.79-.37.79-.39.79-.39.78-.4.77-.42.78-.42.77-.44.76-.44.76-.46.76-.47.75-.48.75-.48.74-.51.74-.51.74-.52.73-.53.73-.54.72-.56.72-.56.72-.58.71-.58.71-.6.7-.61.7-.62.7-.62.69-.64.69-.66.68-.66.68-.67.67-.68.68-.7.66-.7.67-.72.66-.72.65-.74.65-.75.65-.75.64-.77.64-.78.64-.79.63-.81.62-.81.63-.82.61-.83.62-.85.61-.85.61-.87.6-.88.6-.88.59-.9.59-.91.59-.92.58-.93.58-.94.57-.96.57-.96.57-.97.56-.99.56-.99.55-1.01.55-1.01.55-1.03.54-1.04.53-1.05.54-1.06.53-1.07.52-1.08.52-1.09.52-1.1.51-1.12.51-1.12.51-1.14.5-1.14.5-1.16.49-1.17.49-1.17.48-1.19.48-1.2.48-1.21.47-1.22.47-1.24.47-1.24.46-1.25.45-1.27.45-1.27.45-1.29.45-1.29.44-1.31.43-1.32.44-1.33.42-1.34.43-1.35.42M221.7 438.6l1.27.89 1.27.89 1.26.89 1.27.89 1.26.89 1.27.9 1.26.89 1.27.89 1.27.89 1.26.89 1.27.89 1.26.89 1.27.9 1.26.89 1.27.89 1.27.89 1.26.89 1.27.89 1.26.89 1.27.89 1.27.9 1.26.89 1.27.89 1.26.89 1.27.89 1.26.89 1.27.89 1.27.9 1.26.89 1.27.89 1.26.89 1.27.89 1.27.89 1.26.89 1.27.89 1.26.9 1.27.89 1.26.89 1.27.89 1.27.89 1.26.89 1.27.89 1.26.9 1.27.89 1.26.89 1.27.89 1.27.89 1.26.89 1.27.89 1.26.89 1.27.9 1.27.89 1.26.89 1.27.89 1.26.89 1.27.89 1.26.89 1.27.9 1.27.89 1.26.89 1.27.89 1.26.89 1.27.89 1.26.89 1.27.89 1.27.9 1.26.89 1.27.89 1.26.89 1.27.89 1.27.89 1.26.89 1.27.9 1.26.89 1.27.89 1.26.89 1.27.89 1.27.89 1.26.89 1.27.89 1.26.9 1.27.89 1.27.89 1.26.89 1.27.89 1.26.89 1.27.89 1.26.9 1.27.89 1.27.89 1.26.89 1.27.89 1.26.89 1.27.89 1.26.9 1.27.89 1.27.89 1.26.89 1.27.89" style="stroke-width:1.07;stroke:#000000;stroke-opacity:0.10;stroke-linecap:butt"/><path d="m522.65 266.03 1.91 3.32h-3.83zm-4.79-46.26 1.92 3.32h-3.83zm-33.64-49.43 1.91 3.31h-3.82zM161.46 217.7l1.91 3.32h-3.83zm286.66 69.82 1.91 3.32h-3.83zM358.76 139.2l1.92 3.31h-3.83zm150.13 368.79 4.08 7.06h-8.16zM233.87 148.84l1.91 3.32h-3.83zm-116.72 96.82 1.91 3.32h-3.83zm275.25 94.86 4.08 7.06h-8.16zm-202.76-47.01 1.91 3.32h-3.82zm68.72 45.78 1.92 3.32h-3.83zM202.72 182l1.91 3.32h-3.83zm59.86 337.69 1.91 3.31h-3.83z" style="stroke-width:0.71;stroke:none;fill:#00BA38"/><path d="M407.45 186.52h2.84v-2.84h-2.84zm-187.17 253.5h2.85v-2.84h-2.85z" style="stroke-width:0.71;stroke:none;fill:#619CFF"/><circle cx="327.4" cy="246.34" r="6.76" style="stroke-width:0.71;stroke:none;fill:#F8766D"/><path d="M49.15 162.48h8.41v-8.42h-8.41z" style="stroke-width:0.71;stroke:none;fill:#619CFF"/><circle cx="419.47" cy="441.57" r="3.7" style="stroke-width:0.71;stroke:none;fill:#F8766D"/><circle cx="347.02" cy="526.84" r="1.42" style="stroke-width:0.71;stroke:none;fill:#F8766D"/><path d="m517.26 263.58 4.58 3.96m-8.73-45.96 3.69.31m-27.4-54.02-4.39 3.96m-328.78 52.81 4.43-4.01m282.33 73.73 4.33-3.91m-84.47-156.54-3.58 6.56m144.24 367.58 4.57 3.95M111.93 252.59l4.43-4m281.43 91.99-4.58 3.95m-198.36-53.52-4.42 4m62.76 51.17 4.38-3.96m.27 184.36 3.98-3.93m-45.51-79.4 4.59-3.96M58.11 159.21l-3.71-.73m370.41 278.48-4.53 3.91m-78.02 89.25 3.88-2.67" style="stroke-width:0.53;stroke:#BFBFBF"/><path d="M471.79 263.58h66.93-.09l.35-.01.34-.07.32-.12.3-.18.27-.22.23-.26.19-.29.13-.32.09-.34.03-.35h0v-14.99h0l-.03-.34-.09-.34-.13-.32-.19-.3-.23-.26-.27-.22-.3-.17-.32-.12-.34-.07-.26-.02h-66.93l.26.02-.35-.02-.34.05-.34.09-.31.15-.29.2-.25.24-.21.28-.16.31-.11.33-.05.34-.01.17v14.99l.01-.17v.35l.05.34.11.33.16.31.21.28.25.24.29.19.31.15.34.1.34.04z" style="stroke-width:0.53;fill:#FFFFFF;fill-opacity:0.50"/><text x="505.25" y="251.79" lengthAdjust="spacingAndGlyphs" style="font-size:5.69px;font-family:&quot;Liberation Sans&quot;" text-anchor="middle" textLength="64.05">GREATER SPRING HILL</text><text x="505.25" y="259.98" lengthAdjust="spacingAndGlyphs" style="font-size:5.69px;font-family:&quot;Liberation Sans&quot;" text-anchor="middle" textLength="12.02">NBC</text><path d="M436.06 227.13h74.89-.09l.35-.01.34-.07.33-.13.3-.17.27-.22.23-.26.18-.29.14-.32.08-.34.03-.35h0v-6.79h0l-.03-.35-.08-.34-.14-.32-.18-.29-.23-.26-.27-.22-.3-.18-.33-.12-.34-.07-.26-.01h-74.89l.26.01-.35-.01-.35.04-.33.1-.31.15-.29.19-.25.24-.21.28-.16.31-.11.33-.06.34v6.97-.17.35l.06.34.11.33.16.31.21.28.25.24.29.19.31.15.33.1.35.04z" style="stroke-width:0.53;fill:#FFFFFF;fill-opacity:0.50"/><text x="473.5" y="223.53" lengthAdjust="spacingAndGlyphs" style="font-size:5.69px;font-family:&quot;Liberation Sans&quot;" text-anchor="middle" textLength="72.02">TONGULA L WASHINGTON</text><path d="M458.49 167.87h76.41-.09l.35-.02.34-.06.32-.13.3-.17.27-.22.23-.26.19-.3.14-.32.08-.33.03-.35h0v-6.8h0l-.03-.34-.08-.34-.14-.32-.19-.29-.23-.26-.27-.22-.3-.18-.32-.12-.34-.07-.26-.02h-76.41l.26.02-.35-.01-.35.04-.33.09-.31.15-.29.2-.25.24-.21.28-.16.31-.11.33-.06.34v6.97-.17.34l.06.35.11.33.16.31.21.27.25.24.29.2.31.15.33.1.35.04z" style="stroke-width:0.53;fill:#FFFFFF;fill-opacity:0.50"/><text x="496.69" y="164.27" lengthAdjust="spacingAndGlyphs" style="font-size:5.69px;font-family:&quot;Liberation Sans&quot;" text-anchor="middle" textLength="73.53">DANNY WASHINGTON AND</text><path d="M121.87 235.76h54.26l-.09-.01.35-.01.34-.07.32-.12.31-.18.27-.22.23-.26.18-.29.14-.32.08-.34.03-.34h0v-6.8h0l-.03-.35-.08-.33-.14-.32-.18-.3-.23-.26-.27-.22-.31-.17-.32-.13-.34-.06-.26-.02h-54.26l.26.02-.34-.02-.35.04-.33.1-.32.15-.28.2-.25.24-.21.28-.16.3-.11.33-.06.35-.01.17v6.8l.01-.18v.35l.06.34.11.33.16.31.21.28.25.24.28.2.32.15.33.09.35.04z" style="stroke-width:0.53;fill:#FFFFFF;fill-opacity:0.50"/><text x="149" y="232.16" lengthAdjust="spacingAndGlyphs" style="font-size:5.69px;font-family:&quot;Liberation Sans&quot;" text-anchor="middle" textLength="51.38">DELFAST 3718 LLC</text><path d="M404.14 305.47h63.13-.09l.35-.01.34-.07.32-.12.3-.18.27-.22.23-.26.19-.29.14-.32.08-.34.03-.35h0v-6.79h0l-.03-.35-.08-.34-.14-.32-.19-.29-.23-.26-.27-.22-.3-.17-.32-.13-.34-.07-.26-.01h-63.13l.26.01-.35-.01-.34.04-.34.1-.31.15-.29.19-.25.25-.21.27-.16.31-.11.33-.06.34v6.97-.17.35l.06.34.11.33.16.31.21.28.25.24.29.2.31.14.34.1.34.04z" style="stroke-width:0.53;fill:#FFFFFF;fill-opacity:0.50"/><text x="435.7" y="301.87" lengthAdjust="spacingAndGlyphs" style="font-size:5.69px;font-family:&quot;Liberation Sans&quot;" text-anchor="middle" textLength="60.25">DANNY WASHINGTON</text><path d="M365.01 136.86h39.43-.09l.35-.01.34-.07.33-.12.3-.18.27-.22.23-.26.18-.29.14-.32.08-.34.03-.35h0v-6.79h0l-.03-.35-.08-.34-.14-.32-.18-.29-.23-.26-.27-.22-.3-.17-.33-.13-.34-.07-.26-.01h-39.43l.26.01-.34-.01-.35.04-.33.1-.32.15-.28.19-.25.25-.21.27-.16.31-.11.33-.06.34-.01.18v6.79l.01-.17v.35l.06.34.11.33.16.31.21.28.25.24.28.2.32.14.33.1.35.04z" style="stroke-width:0.53;fill:#FFFFFF;fill-opacity:0.50"/><text x="384.73" y="133.26" lengthAdjust="spacingAndGlyphs" style="font-size:5.69px;font-family:&quot;Liberation Sans&quot;" text-anchor="middle" textLength="36.55">DELFAST INC</text><path d="M458.83 508.05h65.35-.09l.35-.02.34-.07.32-.12.31-.17.26-.22.24-.26.18-.3.14-.32.08-.34.03-.34h0V490.9h0l-.03-.35-.08-.34-.14-.32-.18-.29-.24-.26-.26-.22-.31-.17-.32-.13-.34-.07-.26-.01h-65.35l.26.01-.35-.01-.34.04-.34.1-.31.15-.29.19-.25.24-.21.28-.16.31-.11.33-.05.34-.01.18v14.99l.01-.18v.35l.05.35.11.33.16.3.21.28.25.24.29.2.31.15.34.09.34.05z" style="stroke-width:0.53;fill:#FFFFFF;fill-opacity:0.50"/><text x="491.5" y="496.25" lengthAdjust="spacingAndGlyphs" style="font-size:5.69px;font-family:&quot;Liberation Sans&quot;" text-anchor="middle" textLength="62.47">GREATER SPRINGHILL</text><text x="491.5" y="504.45" lengthAdjust="spacingAndGlyphs" style="font-size:5.69px;font-family:&quot;Liberation Sans&quot;" text-anchor="middle" textLength="31.92">MISSIONAR</text><path d="M197.37 164.28h54.26-.09l.35-.01.34-.07.32-.12.31-.18.26-.22.24-.26.18-.29.14-.32.08-.34.03-.35h0v-6.79h0l-.03-.35-.08-.34-.14-.32-.18-.29-.24-.26-.26-.22-.31-.17-.32-.13-.34-.07-.26-.01h-54.26l.26.01-.34-.01-.35.04-.33.1-.32.15-.28.19-.25.24-.21.28-.16.31-.11.33-.06.34-.01.18v6.79l.01-.17v.35l.06.34.11.33.16.31.21.28.25.24.28.19.32.15.33.1.35.04z" style="stroke-width:0.53;fill:#FFFFFF;fill-opacity:0.50"/><text x="224.5" y="160.68" lengthAdjust="spacingAndGlyphs" style="font-size:5.69px;font-family:&quot;Liberation Sans&quot;" text-anchor="middle" textLength="51.38">DELFAST 3733 LLC</text><path d="M77.53 263.71h54.26-.09l.35-.02.34-.07.32-.12.3-.18.27-.21.23-.27.19-.29.14-.32.08-.34.03-.34h0v-6.8h0l-.03-.35-.08-.33-.14-.32-.19-.3-.23-.26-.27-.22-.3-.17-.32-.12-.34-.07-.26-.02H77.53l.26.02-.35-.02-.34.04-.33.1-.32.15-.28.2-.26.24-.2.28-.17.3-.11.33-.05.35-.01.17v6.8l.01-.18v.35l.05.34.11.33.17.31.2.28.26.24.28.2.32.15.33.09.34.05z" style="stroke-width:0.53;fill:#FFFFFF;fill-opacity:0.50"/><text x="104.66" y="260.11" lengthAdjust="spacingAndGlyphs" style="font-size:5.69px;font-family:&quot;Liberation Sans&quot;" text-anchor="middle" textLength="51.38">DELFAST 3412 LLC</text><path d="M376.38 340.58h66.93-.09l.35-.02.34-.07.33-.12.3-.17.27-.22.23-.26.18-.3.14-.32.08-.34.03-.34h0v-14.99h0l-.03-.35-.08-.34-.14-.32-.18-.29-.23-.26-.27-.22-.3-.17-.33-.13-.34-.07-.26-.01h-66.93l.26.01-.34-.01-.35.04-.33.1-.32.15-.28.19-.25.24-.21.28-.16.31-.11.33-.06.34-.01.18v14.99l.01-.18v.35l.06.35.11.33.16.3.21.28.25.24.28.2.32.15.33.09.35.05z" style="stroke-width:0.53;fill:#FFFFFF;fill-opacity:0.50"/><text x="409.85" y="328.78" lengthAdjust="spacingAndGlyphs" style="font-size:5.69px;font-family:&quot;Liberation Sans&quot;" text-anchor="middle" textLength="64.05">GREATER SPRING HILL</text><text x="409.85" y="336.98" lengthAdjust="spacingAndGlyphs" style="font-size:5.69px;font-family:&quot;Liberation Sans&quot;" text-anchor="middle" textLength="27.81">MISSIONA</text><path d="M175.03 291.01h54.14-.08l.34-.01.34-.07.33-.12.3-.18.27-.22.23-.26.19-.29.13-.32.09-.34.02-.35h0v-6.79h0l-.02-.35-.09-.34-.13-.32-.19-.29-.23-.26-.27-.22-.3-.17-.33-.13-.34-.07-.26-.01h-54.14l.26.01-.35-.01-.34.04-.34.1-.31.15-.29.19-.25.25-.21.27-.16.31-.11.33-.06.34v6.97-.17.35l.06.34.11.33.16.31.21.28.25.24.29.19.31.15.34.1.34.04z" style="stroke-width:0.53;fill:#FFFFFF;fill-opacity:0.50"/><text x="202.1" y="287.41" lengthAdjust="spacingAndGlyphs" style="font-size:5.69px;font-family:&quot;Liberation Sans&quot;" text-anchor="middle" textLength="51.27">DELFSAT 3213 LLC</text><path d="M218.73 357.29h54.26-.09l.35-.01.34-.07.32-.12.31-.18.26-.22.23-.26.19-.29.14-.32.08-.34.03-.35h0v-6.79h0l-.03-.35-.08-.34-.14-.32-.19-.29-.23-.26-.26-.22-.31-.17-.32-.13-.34-.07-.26-.01h-54.26l.26.01-.34-.01-.35.04-.33.1-.32.15-.28.19-.25.25-.21.27-.16.31-.11.33-.06.34-.01.18v6.79l.01-.17v.35l.06.34.11.33.16.31.21.28.25.24.28.19.32.15.33.1.35.04z" style="stroke-width:0.53;fill:#FFFFFF;fill-opacity:0.50"/><text x="245.86" y="353.69" lengthAdjust="spacingAndGlyphs" style="font-size:5.69px;font-family:&quot;Liberation Sans&quot;" text-anchor="middle" textLength="51.38">DELFAST 2919 LLC</text><path d="M184.99 182.12h54.25-.08l.34-.01.35-.07.32-.13.3-.17.27-.22.23-.26.19-.29.13-.32.09-.34.02-.35h0v-6.8h0l-.02-.34-.09-.34-.13-.32-.19-.29-.23-.26-.27-.22-.3-.18-.32-.12-.35-.07-.26-.02h-54.25l.26.02-.35-.01-.34.04-.34.1-.31.14-.29.2-.25.24-.21.28-.16.31-.11.33-.05.34-.01.17v6.8l.01-.17v.35l.05.34.11.33.16.31.21.27.25.24.29.2.31.15.34.1.34.04z" style="stroke-width:0.53;fill:#FFFFFF;fill-opacity:0.50"/><text x="212.12" y="178.52" lengthAdjust="spacingAndGlyphs" style="font-size:5.69px;font-family:&quot;Liberation Sans&quot;" text-anchor="middle" textLength="51.38">DELFAST 2765 LLC</text><path d="M188.75 542.48h66.93-.09l.35-.01.34-.07.32-.13.3-.17.27-.22.23-.26.19-.29.13-.32.09-.34.03-.35h0v-14.99h0l-.03-.34-.09-.34-.13-.32-.19-.3-.23-.26-.27-.22-.3-.17-.32-.12-.34-.07-.26-.02h-66.93l.26.02-.35-.02-.34.05-.34.09-.31.15-.29.2-.25.24-.21.28-.16.31-.11.32-.05.35-.01.17v14.99l.01-.17v.35l.05.34.11.33.16.31.21.28.25.24.29.19.31.15.34.1.34.04z" style="stroke-width:0.53;fill:#FFFFFF;fill-opacity:0.50"/><text x="222.21" y="530.69" lengthAdjust="spacingAndGlyphs" style="font-size:5.69px;font-family:&quot;Liberation Sans&quot;" text-anchor="middle" textLength="64.05">GREATER SPRING HILL</text><text x="222.21" y="538.88" lengthAdjust="spacingAndGlyphs" style="font-size:5.69px;font-family:&quot;Liberation Sans&quot;" text-anchor="middle" textLength="24.02">MBC INC</text><path d="M358.91 214.98h60.61-.08l.34-.02.34-.07.33-.12.3-.17.27-.22.23-.26.19-.3.13-.32.09-.33.02-.35h0v-23.19h0l-.02-.34-.09-.34-.13-.32-.19-.29-.23-.26-.27-.22-.3-.18-.33-.12-.34-.07-.26-.02h-60.61l.26.02-.35-.02-.34.05-.34.09-.31.15-.29.2-.25.24-.21.28-.16.31-.11.33-.05.34-.01.17v23.19l.01-.18v.35l.05.35.11.33.16.3.21.28.25.24.29.2.31.15.34.09.34.05z" style="stroke-width:0.53;fill:#FFFFFF;fill-opacity:0.50"/><text x="389.22" y="194.99" lengthAdjust="spacingAndGlyphs" style="font-size:5.69px;font-family:&quot;Liberation Sans&quot;" text-anchor="middle" textLength="52.75">8808 W FIEBRANTZ</text><text x="389.22" y="203.18" lengthAdjust="spacingAndGlyphs" style="font-size:5.69px;font-family:&quot;Liberation Sans&quot;" text-anchor="middle" textLength="57.73">AVE, MILWAUKEE, WI</text><text x="389.22" y="211.38" lengthAdjust="spacingAndGlyphs" style="font-size:5.69px;font-family:&quot;Liberation Sans&quot;" text-anchor="middle" textLength="15.78">53222</text><path d="M172.33 462.56h63.85-.09l.35-.01.34-.07.33-.12.3-.18.27-.22.23-.26.18-.29.14-.32.08-.34.03-.35h0v-14.99h0l-.03-.34-.08-.34-.14-.32-.18-.29-.23-.26-.27-.22-.3-.18-.33-.12-.34-.07-.26-.02h-63.85l.26.02-.34-.01-.35.04-.33.09-.32.15-.28.2-.25.24-.21.28-.16.31-.11.33-.06.34-.01.17v14.99l.01-.17v.35l.06.34.11.33.16.31.21.28.25.24.28.2.32.14.33.1.35.04z" style="stroke-width:0.53;fill:#FFFFFF;fill-opacity:0.50"/><text x="204.26" y="450.77" lengthAdjust="spacingAndGlyphs" style="font-size:5.69px;font-family:&quot;Liberation Sans&quot;" text-anchor="middle" textLength="59.61">8808 FIEBRANTZ AVE,</text><text x="204.26" y="458.96" lengthAdjust="spacingAndGlyphs" style="font-size:5.69px;font-family:&quot;Liberation Sans&quot;" text-anchor="middle" textLength="60.97">MILWAUKEE, WI 53222</text><path d="M316.76 243.97h60.62-.09l.35-.02.34-.07.32-.12.3-.17.27-.22.23-.26.19-.3.13-.32.09-.33.03-.35h0v-23.19h0l-.03-.34-.09-.34-.13-.32-.19-.29-.23-.26-.27-.22-.3-.18-.32-.12-.34-.07-.26-.02h-60.62l.26.02-.35-.01-.34.04-.34.09-.31.15-.29.2-.25.24-.2.28-.17.31-.11.33-.05.34-.01.17v23.19l.01-.17v.34l.05.35.11.33.17.3.2.28.25.24.29.2.31.15.34.1.34.04z" style="stroke-width:0.53;fill:#FFFFFF;fill-opacity:0.50"/><text x="347.07" y="223.98" lengthAdjust="spacingAndGlyphs" style="font-size:5.69px;font-family:&quot;Liberation Sans&quot;" text-anchor="middle" textLength="52.75">8808 W FIEBRANTZ</text><text x="347.07" y="232.18" lengthAdjust="spacingAndGlyphs" style="font-size:5.69px;font-family:&quot;Liberation Sans&quot;" text-anchor="middle" textLength="57.73">AVE, MILWAUKEE, WI</text><text x="347.07" y="240.37" lengthAdjust="spacingAndGlyphs" style="font-size:5.69px;font-family:&quot;Liberation Sans&quot;" text-anchor="middle" textLength="15.78">53222</text><path d="M60.27 172.99h66.81-.09l.35-.02.34-.07.32-.12.3-.17.27-.22.23-.26.19-.3.13-.32.09-.34.03-.34h0v-23.19h0l-.03-.34-.09-.34-.13-.32-.19-.29-.23-.26-.27-.22-.3-.18-.32-.12-.34-.07-.26-.02H60.27l.26.02-.34-.02-.35.05-.33.09-.32.15-.28.2-.25.24-.21.28-.16.31-.11.33-.06.34-.01.17v23.19l.01-.18v.35l.06.35.11.33.16.3.21.28.25.24.28.2.32.15.33.09.35.05z" style="stroke-width:0.53;fill:#FFFFFF;fill-opacity:0.50"/><text x="93.68" y="153" lengthAdjust="spacingAndGlyphs" style="font-size:5.69px;font-family:&quot;Liberation Sans&quot;" text-anchor="middle" textLength="63.92">12605 NORTH AVE, STE</text><text x="93.68" y="161.19" lengthAdjust="spacingAndGlyphs" style="font-size:5.69px;font-family:&quot;Liberation Sans&quot;" text-anchor="middle" textLength="59.39">197, BROOKFIELD, WI</text><text x="93.68" y="169.39" lengthAdjust="spacingAndGlyphs" style="font-size:5.69px;font-family:&quot;Liberation Sans&quot;" text-anchor="middle" textLength="15.78">53005</text><path d="M404.94 436.96h63.85-.09l.35-.01.34-.07.33-.13.3-.17.27-.22.23-.26.18-.3.14-.32.08-.33.03-.35h0v-14.99h0l-.03-.35-.08-.33-.14-.32-.18-.3-.23-.26-.27-.22-.3-.17-.33-.13-.34-.06-.26-.02h-63.85l.26.02-.35-.02-.34.04-.34.1-.31.15-.29.2-.25.24-.2.28-.17.3-.11.33-.05.35-.01.17v14.99l.01-.17v.34l.05.35.11.33.17.31.2.27.25.24.29.2.31.15.34.1.34.04z" style="stroke-width:0.53;fill:#FFFFFF;fill-opacity:0.50"/><text x="436.87" y="425.17" lengthAdjust="spacingAndGlyphs" style="font-size:5.69px;font-family:&quot;Liberation Sans&quot;" text-anchor="middle" textLength="43.58">3500 N 26TH ST,</text><text x="436.87" y="433.36" lengthAdjust="spacingAndGlyphs" style="font-size:5.69px;font-family:&quot;Liberation Sans&quot;" text-anchor="middle" textLength="60.97">MILWAUKEE, WI 53206</text><path d="M276.25 542.5h63.85-.09l.35-.02.34-.07.32-.12.3-.17.27-.22.23-.26.19-.3.14-.32.08-.33.03-.35h0v-14.99h0l-.03-.35-.08-.34-.14-.32-.19-.29-.23-.26-.27-.22-.3-.17-.32-.13-.34-.07-.26-.01h-63.85l.26.01-.35-.01-.34.04-.34.1-.31.15-.29.2-.25.24-.21.27-.16.31-.11.33-.05.34-.01.18v14.99l.01-.17v.34l.05.35.11.33.16.3.21.28.25.24.29.2.31.15.34.1.34.04z" style="stroke-width:0.53;fill:#FFFFFF;fill-opacity:0.50"/><text x="308.17" y="530.71" lengthAdjust="spacingAndGlyphs" style="font-size:5.69px;font-family:&quot;Liberation Sans&quot;" text-anchor="middle" textLength="59.61">8808 FIEBRANTZ AVE,</text><text x="308.17" y="538.9" lengthAdjust="spacingAndGlyphs" style="font-size:5.69px;font-family:&quot;Liberation Sans&quot;" text-anchor="middle" textLength="60.97">MILWAUKEE, WI 53222</text></g><g clip-path="url(#cpMC4wMHw1NzYuMDB8MC4wMHw1NzYuMDA=)"><circle cx="192.83" cy="97.06" r="1.95" style="stroke-width:0.71;stroke:none;fill:#F8766D"/><path d="m269.23 94.02 2.63 4.56h-5.26z" style="stroke-width:0.71;stroke:none;fill:#00BA38"/><path d="M335.23 99.01h3.91V95.1h-3.91z" style="stroke-width:0.71;stroke:none;fill:#619CFF"/><text x="206.95" y="100.22" lengthAdjust="spacingAndGlyphs" style="font-size:8.80px;font-weight:0;font-family:&quot;Nimbus Sans Narrow&quot;" textLength="48.16">mprop address</text><text x="283.35" y="100.22" lengthAdjust="spacingAndGlyphs" style="font-size:8.80px;font-weight:0;font-family:&quot;Nimbus Sans Narrow&quot;" textLength="39.72">owner name</text><text x="351.31" y="100.22" lengthAdjust="spacingAndGlyphs" style="font-size:8.80px;font-weight:0;font-family:&quot;Nimbus Sans Narrow&quot;" textLength="40.5">wdfi address</text><text x="29.89" y="65.35" lengthAdjust="spacingAndGlyphs" style="font-size:12.00px;font-weight:0;font-family:&quot;Nimbus Sans Narrow&quot;" textLength="257.58">includes 16 parcels, 22 units, and 14 distinct owner names.</text><text x="29.89" y="42.81" lengthAdjust="spacingAndGlyphs" style="font-size:18.00px;font-weight:0;font-family:&quot;Nimbus Sans Narrow&quot;" textLength="320.67">GREATER SPRING HILL MISSIONA etc Group</text></g></g></svg>