<svg xmlns="http://www.w3.org/2000/svg" width="768" height="768" viewBox="0 0 576 576"><g class="svglite"><defs><style><![CDATA[.svglite line,.svglite polyline,.svglite polygon,.svglite path,.svglite circle{fill:none;stroke:#000000;stroke-linecap:round;stroke-linejoin:round;stroke-miterlimit:10.00}.svglite text{white-space:pre}.svglite g.glyphgroup path{fill:inherit;stroke:none}]]></style></defs><rect width="100%" height="100%" style="stroke-linecap:round;stroke-linejoin:round;stroke-miterlimit:10.00;stroke:none;fill:#FFFFFF"/><defs><clipPath id="cpMC4wMHw1NzYuMDB8MC4wMHw1NzYuMDA="><path d="M0 0h576v576H0z"/></clipPath></defs><g clip-path="url(#cpMC4wMHw1NzYuMDB8MC4wMHw1NzYuMDA=)"><path d="M0 0h576v576H0z" style="stroke-width:1.07;stroke:none;fill:#FFFFFF"/></g><defs><clipPath id="cpMjkuODl8NTQ2LjExfDEyMi4xNHw1NDYuMTE="><path d="M29.89 122.14h516.22v423.97H29.89z"/></clipPath></defs><g clip-path="url(#cpMjkuODl8NTQ2LjExfDEyMi4xNHw1NDYuMTE=)"><path d="m522.65 349.99-1.34-.46-1.33-.46-1.34-.45-1.34-.46-1.33-.44-1.34-.45-1.35-.44-1.34-.43-1.34-.43-1.35-.43-1.35-.43-1.34-.42-1.35-.42-1.35-.42-1.36-.41-1.35-.41-1.35-.4-1.36-.4-1.36-.4-1.36-.4-1.36-.39-1.36-.38-1.36-.39-1.36-.38-1.37-.37-1.37-.38-1.36-.37-1.37-.36-1.37-.37-1.37-.36-1.38-.35-1.37-.35-1.38-.35-1.37-.35-1.38-.34-1.38-.34-1.38-.33-1.38-.33-1.39-.33-1.38-.33-1.39-.32-1.39-.31-1.38-.32-1.39-.31-1.4-.3-1.39-.31-1.39-.3-1.4-.29-1.39-.3-1.4-.28-1.4-.29-1.4-.28-1.4-.28-1.41-.28-1.4-.27-1.41-.27-1.4-.26-1.41-.26-1.41-.26-1.41-.25-1.41-.25-1.42-.25-1.41-.24-1.42-.24-1.41-.24-1.42-.23-1.42-.23-1.42-.23-1.43-.22-1.42-.22-1.43-.22-1.42-.21-1.43-.21-1.43-.2-1.43-.2-1.43-.2-1.44-.19-1.43-.2-1.44-.18-1.43-.19-1.44-.18-1.44-.17-1.44-.18-1.44-.17-1.45-.16-1.44-.17-1.45-.16-1.44-.15-1.45-.15-1.45-.15-1.45-.15-1.46-.14-1.45-.14-1.46-.13-1.45-.13-1.46-.13-1.46-.13-1.46-.12-1.46-.11m90.43-85.51-.91.86-.91.87-.92.86-.91.87-.91.86-.92.86-.91.87-.92.86-.91.86-.91.87-.92.86-.91.86-.91.87-.92.86-.91.87-.91.86-.92.86-.91.87-.91.86-.92.86-.91.87-.91.86-.92.87-.91.86-.91.86-.92.87-.91.86-.91.86-.92.87-.91.86-.92.86-.91.87-.91.86-.92.87-.91.86-.91.86-.92.87-.91.86-.91.86-.92.87-.91.86-.91.87-.92.86-.91.86-.91.87-.92.86-.91.86-.91.87-.92.86-.91.86-.92.87-.91.86-.91.87-.92.86-.91.86-.91.87-.92.86-.91.86-.91.87-.92.86-.91.87-.91.86-.92.86-.91.87-.91.86-.92.86-.91.87-.91.86-.92.86-.91.87-.91.86-.92.87-.91.86-.92.86-.91.87-.91.86-.92.86-.91.87-.91.86-.92.87-.91.86-.91.86-.92.87-.91.86-.91.86-.92.87-.91.86-.91.86-.92.87-.91.86-.91.87-.92.86-.91.86-.92.87-.91.86-.91.86-.92.87-.91.86-.91.87" style="stroke-width:1.07;stroke:#000000;stroke-opacity:0.10;stroke-linecap:butt"/><path d="m262.52 263.53 1.23.58 1.23.59 1.23.58 1.23.58 1.23.59 1.22.58 1.23.59 1.23.58 1.23.58 1.23.59 1.23.58 1.23.59 1.23.58 1.23.59 1.23.58 1.23.58 1.23.59 1.23.58 1.23.59 1.23.58 1.23.59 1.23.58 1.23.58 1.23.59 1.23.58 1.23.59 1.23.58 1.23.59 1.23.58 1.23.58 1.23.59 1.23.58 1.23.59 1.23.58 1.23.58 1.23.59 1.23.58 1.23.59 1.23.58 1.23.59 1.23.58 1.23.58 1.23.59 1.23.58 1.23.59 1.23.58 1.23.59 1.23.58 1.23.58 1.23.59 1.23.58 1.23.59 1.23.58 1.23.59 1.23.58 1.23.58 1.23.59 1.23.58 1.22.59 1.23.58 1.23.58 1.23.59 1.23.58 1.23.59 1.23.58 1.23.59 1.23.58 1.23.58 1.23.59 1.23.58 1.23.59 1.23.58 1.23.59 1.23.58 1.23.58 1.23.59 1.23.58 1.23.59 1.23.58 1.23.59 1.23.58 1.23.58 1.23.59 1.23.58 1.23.59 1.23.58 1.23.58 1.23.59 1.23.58 1.23.59 1.23.58 1.23.59 1.23.58 1.23.58 1.23.59 1.23.58 1.23.59 1.23.58 1.23.59M53.35 141.41l.75.87.76.88.76.86.77.86.78.86.78.85.78.84.79.84.8.84.8.83.81.82.81.82.82.81.83.81.83.81.83.79.85.8.84.79.86.78.86.78.86.77.87.77.88.76.88.76.88.75.9.75.89.74.91.74.91.73.91.72.92.72.93.72.93.71.94.71.94.7.95.69.95.69.96.69.97.68.97.67.98.67.98.67.99.66.99.65 1 .65 1.01.64 1.01.64 1.01.64 1.03.62 1.02.63 1.04.62 1.04.61 1.04.61 1.05.6 1.06.6 1.06.59 1.06.59 1.08.58 1.08.57 1.08.58 1.09.56 1.09.56 1.11.56 1.1.55 1.11.55 1.12.54 1.12.53 1.13.53 1.14.53 1.14.52 1.14.51 1.16.51 1.15.51 1.17.5 1.16.49 1.18.49 1.18.49 1.18.47 1.19.48 1.2.47 1.2.46 1.21.46 1.21.45 1.22.45 1.23.44 1.23.44 1.23.43 1.25.43 1.24.42 1.26.42 1.25.41 1.27.41 1.27.4 1.27.39 1.28.4 1.29.38 1.29.38 1.3.38 1.31.37" style="stroke-width:1.07;stroke:#000000;stroke-opacity:0.10;stroke-linecap:butt"/><path d="m53.35 141.41 1.03.62 1.03.63 1.03.62 1.02.62 1.03.62 1.03.63 1.03.62 1.02.62 1.03.63 1.03.62 1.03.62 1.02.63 1.03.62 1.03.62 1.03.63 1.02.62 1.03.62 1.03.63 1.03.62 1.02.62 1.03.63 1.03.62 1.03.62 1.03.63 1.02.62 1.03.62 1.03.63 1.03.62 1.02.62 1.03.63 1.03.62 1.03.62 1.02.63 1.03.62 1.03.62 1.03.63 1.02.62 1.03.62 1.03.62 1.03.63 1.02.62 1.03.62 1.03.63 1.03.62 1.02.62 1.03.63 1.03.62 1.03.62 1.03.63 1.02.62 1.03.62 1.03.63 1.03.62 1.02.62 1.03.63 1.03.62 1.03.62 1.02.63 1.03.62 1.03.62 1.03.63 1.02.62 1.03.62 1.03.63 1.03.62 1.02.62 1.03.63 1.03.62 1.03.62 1.02.63 1.03.62 1.03.62 1.03.63 1.03.62 1.02.62 1.03.62 1.03.63 1.03.62 1.02.62 1.03.63 1.03.62 1.03.62 1.02.63 1.03.62 1.03.62 1.03.63 1.02.62 1.03.62 1.03.63 1.03.62 1.02.62 1.03.63 1.03.62 1.03.62 1.02.63 1.03.62 1.03.62 1.03.63 1.03.62m107.43 60.42-1.09-.61-1.08-.61-1.09-.61-1.08-.61-1.09-.61-1.09-.61-1.08-.62-1.09-.61-1.08-.61-1.09-.61-1.08-.61-1.09-.61-1.08-.61-1.09-.61-1.08-.61-1.09-.61-1.08-.61-1.09-.61-1.08-.61-1.09-.61-1.08-.61-1.09-.61-1.08-.61-1.09-.61-1.08-.61-1.09-.61-1.08-.61-1.09-.61-1.08-.61-1.09-.61-1.08-.61-1.09-.61-1.08-.61-1.09-.61-1.08-.61-1.09-.61-1.08-.61-1.09-.61-1.09-.61-1.08-.61-1.09-.61-1.08-.61-1.09-.62-1.08-.61-1.09-.61-1.08-.61-1.09-.61-1.08-.61-1.09-.61-1.08-.61-1.09-.61-1.08-.61-1.09-.61-1.08-.61-1.09-.61-1.08-.61-1.09-.61-1.08-.61-1.09-.61-1.08-.61-1.09-.61-1.08-.61-1.09-.61-1.08-.61-1.09-.61-1.08-.61-1.09-.61-1.08-.61-1.09-.61-1.09-.61-1.08-.61-1.09-.61-1.08-.61-1.09-.61-1.08-.61-1.09-.61-1.08-.61-1.09-.61-1.08-.62-1.09-.61-1.08-.61-1.09-.61-1.08-.61-1.09-.61-1.08-.61-1.09-.61-1.08-.61-1.09-.61-1.08-.61-1.09-.61-1.08-.61-1.09-.61-1.08-.61-1.09-.61-1.08-.61-1.09-.61-1.08-.61-1.09-.61-1.08-.61m367.56 146.88-1.46-.12-1.46-.12-1.46-.12-1.46-.13-1.46-.13-1.45-.14-1.46-.14-1.45-.14-1.45-.14-1.45-.15-1.45-.16-1.45-.15-1.44-.16-1.45-.16-1.44-.17-1.44-.17-1.45-.17-1.43-.18-1.44-.18-1.44-.18-1.44-.19-1.43-.19-1.43-.2-1.43-.19-1.44-.21-1.42-.2-1.43-.21-1.43-.21-1.42-.22-1.43-.22-1.42-.22-1.42-.22-1.42-.23-1.42-.24-1.42-.23-1.41-.24-1.42-.25-1.41-.24-1.41-.25-1.42-.26-1.4-.26-1.41-.26-1.41-.26-1.41-.27-1.4-.27-1.4-.28-1.4-.27-1.4-.29-1.4-.28-1.4-.29-1.4-.29-1.39-.3-1.4-.3-1.39-.3-1.39-.31-1.39-.31-1.39-.31-1.39-.32-1.38-.32-1.39-.33-1.38-.32-1.38-.33-1.38-.34-1.38-.34-1.38-.34-1.38-.34-1.37-.35-1.38-.36-1.37-.35-1.37-.36-1.37-.36-1.37-.37-1.37-.37-1.37-.37-1.36-.38-1.37-.38-1.36-.38-1.36-.39-1.36-.39-1.36-.4-1.35-.39-1.36-.41-1.36-.4-1.35-.41-1.35-.41-1.35-.42-1.35-.41-1.35-.43-1.35-.42-1.34-.43-1.35-.44-1.34-.43-1.34-.44-1.34-.44-1.34-.45-1.34-.45-1.33-.46-1.34-.45-1.33-.46" style="stroke-width:1.07;stroke:#000000;stroke-opacity:0.10;stroke-linecap:butt"/><path d="m347.64 426.83.37-1.07.37-1.06.37-1.07.37-1.06.37-1.07.37-1.06.37-1.07.37-1.06.37-1.07.37-1.06.37-1.07.37-1.06.37-1.07.37-1.07.37-1.06.37-1.07.37-1.06.37-1.07.37-1.06.37-1.07.37-1.06.37-1.07.37-1.06.37-1.07.37-1.06.37-1.07.37-1.06.37-1.07.37-1.06.37-1.07.37-1.07.37-1.06.37-1.07.37-1.06.37-1.07.37-1.06.37-1.07.37-1.06.37-1.07.37-1.06.37-1.07.37-1.06.37-1.07.37-1.06.37-1.07.37-1.06.37-1.07.37-1.07.37-1.06.37-1.07.37-1.06.37-1.07.37-1.06.37-1.07.37-1.06.37-1.07.37-1.06.37-1.07.37-1.06.37-1.07.37-1.06.37-1.07.37-1.06.37-1.07.37-1.06.37-1.07.37-1.07.37-1.06.37-1.07.37-1.06.37-1.07.37-1.06.37-1.07.37-1.06.37-1.07.37-1.06.37-1.07.37-1.06.37-1.07.37-1.06.37-1.07.37-1.06.37-1.07.37-1.07.37-1.06.37-1.07.37-1.06.37-1.07.37-1.06.37-1.07.37-1.06.37-1.07.37-1.06.37-1.07.37-1.06.37-1.07.37-1.06.37-1.07.37-1.06M53.35 141.41l1.31.37 1.29.37 1.3.39 1.28.38 1.28.39 1.28.4 1.27.4 1.26.41 1.26.41 1.25.42 1.25.42 1.24.43 1.24.43 1.23.44 1.22.44 1.22.45 1.22.45 1.2.46 1.21.46 1.19.47 1.19.47 1.19.48 1.18.49 1.17.49 1.17.49 1.16.5 1.16.5 1.15.51 1.15.52 1.14.52 1.13.52 1.13.53 1.13.54 1.11.54 1.12.55 1.1.55 1.1.55 1.1.56 1.09.57 1.08.57 1.08.58 1.07.58 1.07.59 1.06.59 1.06.6 1.05.6 1.04.61 1.04.61 1.03.62 1.03.62 1.02.63 1.02.64 1.01.63 1.01.65.99.65 1 .65.99.66.98.66.98.67.97.68.96.68.96.68.96.69.95.7.94.7.94.71.93.71.93.71.92.72.91.73.91.73.9.74.9.74.89.75.89.75.88.76.88.76.87.77.86.77.86.78.85.78.85.79.84.79.84.8.83.81.82.8.82.82.82.82.81.82.8.83.79.84.8.84.78.84.78.85.77.86.77.86.77.86.75.87.76.88m192.55 223.72-.17 1.01-.16 1.01-.17 1.01-.17 1.01-.16 1.01-.17 1.01-.16 1.01-.17 1.01-.17 1.01-.16 1.01-.17 1.01-.16 1.01-.17 1.01-.17 1.01-.16 1.01-.17 1.01-.16 1.01-.17 1.01-.17 1.01-.16 1.01-.17 1.01-.17 1.01-.16 1.01-.17 1.01-.16 1.01-.17 1.01-.17 1.01-.16 1.01-.17 1.01-.16 1.02-.17 1.01-.17 1.01-.16 1.01-.17 1.01-.16 1.01-.17 1.01-.17 1.01-.16 1.01-.17 1.01-.16 1.01-.17 1.01-.17 1.01-.16 1.01-.17 1.01-.17 1.01-.16 1.01-.17 1.01-.16 1.01-.17 1.01-.17 1.01-.16 1.01-.17 1.01-.16 1.01-.17 1.01-.17 1.01-.16 1.01-.17 1.01-.16 1.01-.17 1.01-.17 1.01-.16 1.01-.17 1.01-.16 1.01-.17 1.01-.17 1.01-.16 1.01-.17 1.01-.17 1.01-.16 1.01-.17 1.01-.16 1.01-.17 1.01-.17 1.01-.16 1.01-.17 1.02-.16 1.01-.17 1.01-.17 1.01-.16 1.01-.17 1.01-.16 1.01-.17 1.01-.17 1.01-.16 1.01-.17 1.01-.16 1.01-.17 1.01-.17 1.01-.16 1.01-.17 1.01-.17 1.01-.16 1.01-.17 1.01-.16 1.01-.17 1.01-.17 1.01-.16 1.01-.17 1.01-.16 1.01" style="stroke-width:1.07;stroke:#000000;stroke-opacity:0.10;stroke-linecap:butt"/><path d="m522.65 343.63 5.5 9.54h-11.01zM474.7 233.65l1.92 3.32h-3.83zm-212.18 23.52 5.5 9.54h-11.01zM53.35 133.33l7 12.12H46.36zm294.29 287.14 5.51 9.54h-11.02z" style="stroke-width:0.71;stroke:none;fill:#00BFC4"/><circle cx="384.27" cy="321.37" r="6.76" style="stroke-width:0.71;stroke:none;fill:#F8766D"/><circle cx="155.09" cy="203.11" r="6.04" style="stroke-width:0.71;stroke:none;fill:#F8766D"/><circle cx="331.2" cy="526.84" r="1.42" style="stroke-width:0.71;stroke:none;fill:#F8766D"/><path d="m517.8 353.65 4-3.02m-41.75-119.38-4.54 3.91m-218.18 33.05 4.39-3.97M58.09 141.47l-3.67-.05m298.59 280.77-4.56 3.94m41.32-109.43-4.69 3.98M160.56 198.47l-4.66 3.95m170.42 326.15 3.87-1.37" style="stroke-width:0.53;stroke:#BFBFBF"/><path d="M467.35 369.03h48.29-.09l.35-.02.34-.07.33-.12.3-.17.27-.22.23-.26.18-.3.14-.32.08-.34.03-.34h0v-14.99h0l-.03-.35-.08-.34-.14-.32-.18-.29-.23-.26-.27-.22-.3-.17-.33-.13-.34-.07-.26-.01h-48.29l.26.01-.34-.01-.35.04-.33.1-.32.15-.28.19-.25.24-.21.28-.16.31-.11.33-.06.34-.01.18v14.99l.01-.18v.35l.06.34.11.33.16.31.21.28.25.24.28.2.32.15.33.09.35.05z" style="stroke-width:0.53;fill:#FFFFFF;fill-opacity:0.50"/><text x="491.5" y="357.23" lengthAdjust="spacingAndGlyphs" style="font-size:5.69px;font-family:&quot;Liberation Sans&quot;" text-anchor="middle" textLength="45.41">US BANK TRUST</text><text x="491.5" y="365.43" lengthAdjust="spacingAndGlyphs" style="font-size:5.69px;font-family:&quot;Liberation Sans&quot;" text-anchor="middle" textLength="40.77">COMPANY NAT</text><path d="M460.44 231.25h63.27-.09l.35-.02.34-.07.32-.12.3-.17.27-.22.23-.26.19-.3.14-.32.08-.33.03-.35h0V214.1h0l-.03-.35-.08-.34-.14-.32-.19-.29-.23-.26-.27-.22-.3-.17-.32-.13-.34-.07-.26-.01h-63.27l.26.01-.35-.01-.35.04-.33.1-.31.15-.29.19-.25.25-.21.27-.16.31-.11.33-.06.34v15.17-.18.35l.06.35.11.33.16.3.21.28.25.24.29.2.31.15.33.09.35.05z" style="stroke-width:0.53;fill:#FFFFFF;fill-opacity:0.50"/><text x="492.07" y="219.45" lengthAdjust="spacingAndGlyphs" style="font-size:5.69px;font-family:&quot;Liberation Sans&quot;" text-anchor="middle" textLength="60.39">BEAR STEAMS ASSET</text><text x="492.07" y="227.65" lengthAdjust="spacingAndGlyphs" style="font-size:5.69px;font-family:&quot;Liberation Sans&quot;" text-anchor="middle" textLength="36.69">BACKED SEC</text><path d="M229.55 279.33h40.9-.09l.35-.02.34-.07.32-.12.31-.18.26-.22.23-.26.19-.29.14-.32.08-.34.03-.34h0v-6.8h0l-.03-.35-.08-.33-.14-.32-.19-.3-.23-.26-.26-.22-.31-.17-.32-.12-.34-.07-.26-.02h-40.9l.26.02-.34-.02-.35.04-.33.1-.32.15-.28.2-.25.24-.21.28-.16.3-.11.33-.06.35-.01.17v6.8l.01-.18v.35l.06.34.11.33.16.31.21.28.25.24.28.2.32.15.33.09.35.05z" style="stroke-width:0.53;fill:#FFFFFF;fill-opacity:0.50"/><text x="250" y="275.73" lengthAdjust="spacingAndGlyphs" style="font-size:5.69px;font-family:&quot;Liberation Sans&quot;" text-anchor="middle" textLength="38.02">AAIA RML LLC</text><path d="M60.25 151.13h79.02l-.08-.01.34-.01.34-.07.33-.12.3-.18.27-.22.23-.26.19-.29.13-.32.09-.34.02-.34h0v-15h0l-.02-.34-.09-.34-.13-.32-.19-.29-.23-.26-.27-.22-.3-.18-.33-.12-.34-.07-.26-.02H60.25l.26.02-.34-.01-.35.04-.33.09-.32.15-.28.2-.25.24-.21.28-.16.31-.11.33-.06.34-.01.17v15l.01-.18v.35l.06.34.11.33.16.31.21.28.25.24.28.2.32.15.33.09.35.04z" style="stroke-width:0.53;fill:#FFFFFF;fill-opacity:0.50"/><text x="99.76" y="139.33" lengthAdjust="spacingAndGlyphs" style="font-size:5.69px;font-family:&quot;Liberation Sans&quot;" text-anchor="middle" textLength="76.14">GROUNDFLOOR HOLDINGS</text><text x="99.76" y="147.53" lengthAdjust="spacingAndGlyphs" style="font-size:5.69px;font-family:&quot;Liberation Sans&quot;" text-anchor="middle" textLength="19.91">GA LLC</text><path d="M332.71 422.19h64.6l-.08-.01.34-.01.34-.07.33-.12.3-.18.27-.22.23-.26.19-.29.13-.32.08-.34.03-.34h0v-15h0l-.03-.34-.08-.34-.13-.32-.19-.29-.23-.26-.27-.22-.3-.18-.33-.12-.34-.07-.26-.02h-64.6l.26.02-.34-.01-.35.04-.33.1-.32.14-.28.2-.25.24-.21.28-.16.31-.11.33-.06.34-.01.17v15l.01-.18v.35l.06.34.11.33.16.31.21.28.25.24.28.2.32.15.33.09.35.04z" style="stroke-width:0.53;fill:#FFFFFF;fill-opacity:0.50"/><text x="365.01" y="410.39" lengthAdjust="spacingAndGlyphs" style="font-size:5.69px;font-family:&quot;Liberation Sans&quot;" text-anchor="middle" textLength="61.72">FEDERAL HOME LOAN</text><text x="365.01" y="418.59" lengthAdjust="spacingAndGlyphs" style="font-size:5.69px;font-family:&quot;Liberation Sans&quot;" text-anchor="middle" textLength="38.75">MORTGAGE C</text><path d="M375.53 316.7h62.3-.09l.35-.01.34-.07.33-.13.3-.17.27-.22.23-.26.18-.29.14-.32.08-.34.03-.35h0v-23.18h0l-.03-.35-.08-.34-.14-.32-.18-.29-.23-.26-.27-.22-.3-.18-.33-.12-.34-.07-.26-.01h-62.3l.26.01-.35-.01-.34.04-.34.1-.31.15-.29.19-.25.24-.21.28-.16.31-.11.33-.05.34-.01.18v23.18l.01-.17v.35l.05.34.11.33.16.31.21.27.25.25.29.19.31.15.34.1.34.04z" style="stroke-width:0.53;fill:#FFFFFF;fill-opacity:0.50"/><text x="406.68" y="296.71" lengthAdjust="spacingAndGlyphs" style="font-size:5.69px;font-family:&quot;Liberation Sans&quot;" text-anchor="middle" textLength="59.42">3217 S DECKER LAKE</text><text x="406.68" y="304.91" lengthAdjust="spacingAndGlyphs" style="font-size:5.69px;font-family:&quot;Liberation Sans&quot;" text-anchor="middle" textLength="50.36">DR, WEST VALLEY</text><text x="406.68" y="313.1" lengthAdjust="spacingAndGlyphs" style="font-size:5.69px;font-family:&quot;Liberation Sans&quot;" text-anchor="middle" textLength="39.78">CITY, UT 84119</text><path d="M149.18 198.47h56.59-.09l.35-.01.34-.07.32-.12.3-.18.27-.22.23-.26.19-.29.14-.32.08-.34.03-.35h0v-23.18h0l-.03-.35-.08-.34-.14-.32-.19-.29-.23-.26-.27-.22-.3-.17-.32-.13-.34-.07-.26-.01h-56.59l.26.01-.34-.01-.35.04-.33.1-.32.15-.28.2-.25.24-.21.27-.16.31-.11.33-.06.34-.01.18v23.18l.01-.17v.35l.06.34.11.33.16.31.21.28.25.24.28.19.32.15.33.1.35.04z" style="stroke-width:0.53;fill:#FFFFFF;fill-opacity:0.50"/><text x="177.48" y="178.49" lengthAdjust="spacingAndGlyphs" style="font-size:5.69px;font-family:&quot;Liberation Sans&quot;" text-anchor="middle" textLength="50.23">83 SOUTH ST, STE</text><text x="177.48" y="186.68" lengthAdjust="spacingAndGlyphs" style="font-size:5.69px;font-family:&quot;Liberation Sans&quot;" text-anchor="middle" textLength="53.7">302, FREEHOLD, NJ</text><text x="177.48" y="194.87" lengthAdjust="spacingAndGlyphs" style="font-size:5.69px;font-family:&quot;Liberation Sans&quot;" text-anchor="middle" textLength="15.78">07728</text><path d="M268.75 542.51h55.41-.08l.34-.01.34-.07.33-.13.3-.17.27-.22.23-.26.19-.29.13-.32.09-.34.02-.35h0v-23.18h0l-.02-.35-.09-.34-.13-.32-.19-.29-.23-.26-.27-.22-.3-.17-.33-.13-.34-.07-.26-.01h-55.41l.26.01-.34-.01-.35.04-.33.1-.32.15-.28.19-.25.24-.21.28-.16.31-.11.33-.06.34-.01.18v23.18l.01-.17v.35l.06.34.11.33.16.31.21.27.25.25.28.19.32.15.33.1.35.04z" style="stroke-width:0.53;fill:#FFFFFF;fill-opacity:0.50"/><text x="296.46" y="522.52" lengthAdjust="spacingAndGlyphs" style="font-size:5.69px;font-family:&quot;Liberation Sans&quot;" text-anchor="middle" textLength="37.91">7730 S UNION</text><text x="296.46" y="530.72" lengthAdjust="spacingAndGlyphs" style="font-size:5.69px;font-family:&quot;Liberation Sans&quot;" text-anchor="middle" textLength="51">PARK AVE, STE 40,</text><text x="296.46" y="538.91" lengthAdjust="spacingAndGlyphs" style="font-size:5.69px;font-family:&quot;Liberation Sans&quot;" text-anchor="middle" textLength="52.53">MIDVALE, UT 84047</text></g><g clip-path="url(#cpMC4wMHw1NzYuMDB8MC4wMHw1NzYuMDA=)"><circle cx="227.2" cy="97.06" r="1.95" style="stroke-width:0.71;stroke:none;fill:#F8766D"/><path d="m303.6 94.02 2.63 4.56h-5.26z" style="stroke-width:0.71;stroke:none;fill:#00BFC4"/><text x="241.32" y="100.22" lengthAdjust="spacingAndGlyphs" style="font-size:8.80px;font-weight:0;font-family:&quot;Nimbus Sans Narrow&quot;" textLength="48.16">mprop address</text><text x="317.72" y="100.22" lengthAdjust="spacingAndGlyphs" style="font-size:8.80px;font-weight:0;font-family:&quot;Nimbus Sans Narrow&quot;" textLength="39.72">owner name</text><text x="29.89" y="65.35" lengthAdjust="spacingAndGlyphs" style="font-size:12.00px;font-weight:0;font-family:&quot;Nimbus Sans Narrow&quot;" textLength="252.11">includes 10 parcels, 15 units, and 5 distinct owner names.</text><text x="29.89" y="42.81" lengthAdjust="spacingAndGlyphs" style="font-size:18.00px;font-weight:0;font-family:&quot;Nimbus Sans Narrow&quot;" textLength="332.11">GROUNDFLOOR HOLDINGS GA LLC etc Group</text></g></g></svg>