<svg xmlns="http://www.w3.org/2000/svg" width="384" height="384" class="svglite" viewBox="0 0 288 288"><defs><style>.svglite circle,.svglite line,.svglite polygon,.svglite polyline,.svglite rect{fill:none;stroke:#000;stroke-linecap:round;stroke-linejoin:round;stroke-miterlimit:10}.svglite text{white-space:pre}</style></defs><rect width="100%" height="100%" style="stroke:none;fill:#fff"/><defs><clipPath id="cpMC4wMHwyODguMDB8MC4wMHwyODguMDA="><path d="M0 0h288v288H0z"/></clipPath></defs><g clip-path="url(#cpMC4wMHwyODguMDB8MC4wMHwyODguMDA=)"><path d="M0 0h288v288H0z" style="stroke-width:1.07;stroke:none;fill:#fff"/></g><defs><clipPath id="cpMzIuNjN8MjU4LjExfDEyMS43OHwyNTUuMzc="><path d="M32.63 121.78h225.48v133.59H32.63z"/></clipPath></defs><g clip-path="url(#cpMzIuNjN8MjU4LjExfDEyMS43OHwyNTUuMzc=)"><path d="m132.54 208.82 2.89-.4 2.83-.39 2.79-.4 2.74-.39 2.69-.4 2.65-.39 2.59-.4 2.56-.4 2.5-.39 2.46-.4 2.41-.4 2.36-.4 2.32-.4 2.27-.39 2.22-.4 2.18-.4 2.13-.4 2.08-.4 2.03-.4 1.99-.4 1.94-.4 1.89-.4 1.85-.4 1.8-.41 1.75-.4 1.7-.4 1.66-.4 1.61-.4 1.57-.41 1.51-.4 1.47-.4 1.43-.41 1.37-.4 1.33-.41 1.28-.4 1.24-.41 1.18-.4 1.15-.41 1.09-.4 1.04-.41 1-.4.96-.41.9-.41.86-.41.81-.4.77-.41.71-.41.67-.41.63-.41.57-.4.53-.41.48-.41.44-.41.38-.41.35-.41.29-.41.25-.41.2-.42.15-.41.1-.41.06-.41.01-.41-.03-.42-.09-.41-.12-.41-.18-.42-.23-.41-.27-.41-.31-.42-.37-.41-.41-.42-.46-.41-.51-.42-.55-.41-.6-.42-.65-.42-.69-.41-.74-.42-.79-.42-.84-.41-.88-.42-.93-.42-.97-.42-1.03-.42-1.07-.42-1.12-.42-1.16-.42-1.21-.42-1.26-.42-1.31-.42-1.35-.42-1.4-.42-1.45-.42-1.49-.42-1.54-.42-1.59-.42-1.64-.43-1.68-.42-1.73-.42M132.54 208.82l-2.88.39-2.83.4-2.79.39-2.74.4-2.69.4-2.65.39-2.6.4-2.55.4-2.5.39-2.46.4-2.41.4-2.36.4-2.32.39-2.27.4-2.22.4-2.18.4-2.13.4-2.08.4-2.03.4-1.99.4-1.94.4-1.89.4-1.85.4-1.8.4-1.75.41-1.7.4-1.66.4-1.61.4-1.57.41-1.51.4-1.47.4-1.43.41-1.37.4-1.33.4-1.28.41-1.24.4-1.18.41-1.15.4-1.09.41-1.05.41-.99.4-.96.41-.9.41-.86.4-.81.41-.77.41-.71.41-.67.4-.63.41-.57.41-.53.41-.48.41-.44.41-.38.41-.35.41-.29.41-.25.41-.2.41-.15.42-.1.41-.06.41-.01.41.03.41.09.42.13.41.17.41.23.42.27.41.31.42.37.41.41.42.46.41.51.42.55.41.6.42.65.41.69.42.74.42.79.42.84.41.88.42.93.42.97.42 1.03.42 1.07.41 1.12.42 1.16.42 1.21.42 1.26.42 1.31.42 1.35.42 1.4.43 1.45.42 1.49.42 1.54.42 1.59.42 1.64.42 1.68.43 1.73.42M246.58 127.86l-1.34.4-1.33.41-1.31.4-1.3.4-1.28.41-1.27.4-1.25.41-1.23.4-1.22.41-1.2.4-1.19.41-1.17.4-1.16.41-1.14.4-1.12.41-1.11.41-1.1.4-1.07.41-1.07.4-1.04.41-1.03.4-1.02.41-1 .41-.98.4-.97.41-.95.41-.94.4-.92.41-.91.41-.88.4-.88.41-.86.41-.84.41-.83.4-.81.41-.79.41-.78.41-.77.4-.75.41-.73.41-.72.41-.7.41-.68.4-.67.41-.66.41-.64.41-.62.41-.61.41-.59.41-.57.4-.56.41-.55.41-.53.41-.51.41-.5.41-.48.41-.47.41-.45.41-.43.41-.42.41-.4.41-.39.41-.37.41-.36.41-.34.41-.33.41-.31.41-.29.41-.28.41-.26.41-.25.41-.23.41-.21.42-.2.41-.19.41-.16.41-.16.41-.13.41-.13.41-.1.42-.09.41-.07.41-.06.41-.05.41-.02.42-.01.41v.41l.02.41.04.42.05.41.06.41.09.41.09.42.12.41.13.41.14.42.16.41.18.41.19.42" style="stroke-width:1.07;stroke:#000;stroke-opacity:.1;stroke-linecap:butt"/><path d="m132.54 208.82 1.35-.41 1.33-.4 1.31-.4 1.3-.41 1.28-.4 1.27-.41 1.25-.4 1.23-.41 1.22-.4 1.2-.41 1.19-.4 1.17-.41 1.16-.4 1.14-.41 1.12-.4 1.11-.41 1.1-.41 1.07-.4 1.07-.41 1.04-.4 1.03-.41 1.02-.41 1-.4.98-.41.97-.41.95-.4.94-.41.92-.41.9-.4.89-.41.88-.41.86-.4.84-.41.82-.41.82-.41.79-.4.78-.41.77-.41.74-.41.74-.4.71-.41.71-.41.68-.41.67-.41.66-.41.63-.4.63-.41.6-.41.6-.41.57-.41.56-.41.55-.41.53-.41.51-.41.5-.4.48-.41.46-.41.45-.41.44-.41.42-.41.4-.41.39-.41.37-.41.36-.41.34-.41.32-.41.31-.41.3-.42.28-.41.26-.41.24-.41.24-.41.21-.41.2-.41.18-.41.17-.41.15-.42.14-.41.12-.41.11-.41.09-.41.07-.41.06-.42.04-.41.03-.41.01-.41v-.42l-.02-.41-.04-.41-.05-.41-.07-.42-.08-.41-.1-.41-.11-.42-.13-.41-.15-.41-.16-.42-.17-.41-.2-.41M132.54 208.82l-1.34.4-1.33.41-1.31.4-1.3.41-1.28.4-1.27.41-1.25.4-1.23.41-1.22.4-1.2.41-1.19.4-1.17.41-1.16.4-1.14.41-1.12.4-1.11.41-1.1.4-1.07.41-1.07.41-1.04.4-1.03.41-1.02.4-1 .41-.98.41-.97.4-.95.41-.94.41-.92.4-.9.41-.89.41-.88.4-.86.41-.84.41-.83.41-.81.4-.79.41-.78.41-.77.41-.74.4-.74.41-.71.41-.71.41-.68.41-.67.4-.66.41-.63.41-.63.41-.6.41-.6.41-.57.41-.56.41-.55.4-.53.41-.51.41-.5.41-.48.41-.46.41-.45.41-.44.41-.42.41-.4.41-.39.41-.37.41-.36.41-.34.41-.32.41-.31.41-.3.41-.28.41-.26.41-.24.42-.23.41-.22.41-.2.41-.18.41-.17.41-.15.41-.14.41-.12.42-.11.41-.09.41-.07.41-.06.41-.04.42-.03.41-.01.41v.41l.02.42.04.41.05.41.07.41.08.42.1.41.11.41.13.42.15.41.16.41.17.42.2.41M246.58 127.86l.2.41.17.41.16.42.15.41.13.41.11.42.1.41.08.41.07.42.05.41.04.41.02.41v.42l-.01.41-.03.41-.04.41-.06.41-.07.42-.09.41-.11.41-.12.41-.13.41-.16.41-.17.42-.18.41-.2.41-.21.41-.24.41-.24.41-.26.41-.28.41-.3.41-.31.41-.32.41-.34.42-.36.41-.37.41-.39.41-.4.41-.42.41-.44.41-.45.4-.46.41-.48.41-.5.41-.51.41-.53.41-.55.41-.56.41-.57.41-.6.41-.6.41-.63.41-.63.4-.66.41-.67.41-.69.41-.7.41-.71.4-.74.41-.74.41-.77.41-.78.41-.79.4-.82.41-.82.41-.84.41-.86.4-.88.41-.89.41-.9.4-.92.41-.94.41-.95.4-.97.41-.98.41-1 .4-1.02.41-1.03.41-1.05.4-1.06.41-1.07.4-1.1.41-1.11.4-1.12.41-1.14.41-1.16.4-1.17.41-1.19.4-1.2.41-1.22.4-1.24.41-1.25.4-1.26.41-1.28.4-1.3.4-1.31.41-1.33.4-1.35.41" style="stroke-width:1.07;stroke:#000;stroke-opacity:.1;stroke-linecap:butt"/><path d="m132.54 208.82-.19-.41-.17-.42-.17-.41-.14-.41-.13-.42-.11-.41-.1-.41-.09-.42-.06-.41-.05-.41-.04-.42-.02-.41v-.41l.01-.41.02-.41.05-.42.06-.41.07-.41.09-.41.11-.41.12-.42.13-.41.16-.41.16-.41.19-.41.2-.41.21-.41.23-.42.25-.41.26-.41.28-.41.29-.41.31-.41.33-.41.34-.41.36-.41.37-.41.39-.41.4-.41.42-.41.43-.41.45-.41.47-.41.48-.41.5-.41.51-.41.53-.41.55-.41.56-.4.57-.41.59-.41.61-.41.62-.41.64-.41.66-.41.67-.4.68-.41.7-.41.72-.41.73-.41.75-.41.77-.4.78-.41.79-.41.81-.41.83-.4.84-.41.86-.41.87-.4.89-.41.91-.41.92-.41.94-.4.95-.41.97-.4.98-.41 1-.41 1.02-.4 1.03-.41 1.04-.41 1.06-.4 1.08-.41 1.1-.4 1.11-.41 1.12-.4 1.14-.41 1.16-.41 1.17-.4 1.19-.41 1.2-.4 1.22-.41 1.23-.4 1.25-.41 1.27-.4 1.28-.4 1.3-.41 1.31-.4 1.33-.41 1.34-.4M132.54 208.82l.2.41.17.42.16.41.15.41.13.42.11.41.1.41.09.42.06.41.05.41.04.41.02.42v.41l-.01.41-.03.41-.04.41-.06.42-.07.41-.09.41-.11.41-.12.41-.13.42-.16.41-.16.41-.19.41-.2.41-.21.41-.23.41-.25.41-.26.42-.28.41-.29.41-.31.41-.33.41-.34.41-.36.41-.37.41-.39.41-.4.41-.42.41-.43.41-.45.41-.47.41-.48.41-.5.41-.51.41-.53.4-.55.41-.56.41-.57.41-.59.41-.61.41-.62.41-.64.41-.66.4-.67.41-.68.41-.7.41-.72.41-.73.41-.75.4-.77.41-.78.41-.79.41-.81.4-.83.41-.84.41-.86.41-.87.4-.89.41-.91.41-.92.4-.94.41-.95.41-.97.4-.98.41-1 .41-1.02.4-1.03.41-1.04.4-1.06.41-1.08.41-1.1.4-1.1.41-1.13.4-1.14.41-1.16.4-1.17.41-1.19.4-1.2.41-1.22.4-1.23.41-1.25.4-1.27.41-1.28.4-1.3.41-1.31.4-1.33.41-1.34.4" style="stroke-width:1.07;stroke:#000;stroke-opacity:.1;stroke-linecap:butt"/><path d="m132.54 208.82-1.72-.42-1.69-.43-1.63-.42-1.59-.42-1.54-.42-1.5-.42-1.44-.43-1.4-.42-1.35-.42-1.31-.42-1.26-.42-1.21-.42-1.17-.42-1.11-.42-1.07-.42-1.03-.41-.97-.42-.93-.42-.89-.42-.83-.42-.79-.41-.74-.42-.7-.42-.64-.41-.6-.42-.56-.42-.5-.41-.46-.42-.41-.41-.37-.42-.32-.41-.27-.41-.22-.42-.18-.41-.13-.41-.08-.42-.04-.41.02-.41.05-.41.11-.42.15-.41.2-.41.25-.41.29-.41.34-.41.39-.41.44-.41.48-.41.53-.41.57-.41.63-.41.67-.41.71-.4.77-.41.81-.41.86-.41.9-.4.95-.41 1-.41 1.05-.4 1.09-.41 1.14-.4 1.19-.41 1.24-.4 1.28-.41 1.33-.4 1.37-.41 1.42-.4 1.47-.4 1.52-.41 1.56-.4 1.62-.4 1.65-.4 1.71-.41 1.75-.4 1.8-.4 1.85-.4 1.89-.4 1.94-.4 1.99-.4 2.03-.4 2.08-.4 2.13-.4 2.18-.4 2.22-.4 2.27-.4 2.32-.4 2.36-.39 2.41-.4 2.46-.4 2.5-.4 2.55-.39 2.6-.4 2.65-.4 2.69-.39 2.74-.4 2.79-.39 2.83-.4 2.88-.39M132.54 208.82l1.73.42 1.69.42 1.63.43 1.59.42 1.54.42 1.49.42 1.45.42 1.4.42 1.35.43 1.31.42 1.26.42 1.21.42 1.17.42 1.11.41 1.07.42 1.03.42.97.42.93.42.89.42.83.41.79.42.74.42.69.41.65.42.6.42.56.41.5.42.46.41.41.42.37.41.32.42.27.41.22.42.18.41.13.41.08.42.03.41-.01.41-.05.41-.11.41-.15.42-.2.41-.25.41-.29.41-.34.41-.39.41-.44.41-.48.41-.53.41-.57.41-.63.4-.67.41-.71.41-.77.41-.81.41-.86.4-.9.41-.95.41-1 .4-1.05.41-1.09.4-1.14.41-1.19.41-1.24.4-1.28.4-1.33.41-1.37.4-1.42.41-1.47.4-1.52.4-1.56.41-1.62.4-1.65.4-1.71.4-1.75.41-1.8.4-1.85.4-1.89.4-1.94.4-1.99.4-2.03.4-2.08.4-2.13.4-2.18.4-2.22.4-2.27.4-2.31.39-2.37.4-2.41.4-2.46.4-2.5.39-2.55.4-2.6.4-2.65.39-2.69.4-2.74.39-2.79.4-2.83.4-2.88.39" style="stroke-width:1.07;stroke:#000;stroke-opacity:.1;stroke-linecap:butt"/><path d="m132.54 200.74 7 12.12h-13.99zM246.58 125.65l1.92 3.31h-3.83z" style="stroke-width:.71;stroke:none;fill:#00ba38"/><circle cx="189.56" cy="168.34" r="6.76" style="stroke-width:.71;stroke:none;fill:#f8766d"/><path d="M70.33 254.49h10.39v-10.38H70.33z" style="stroke-width:.71;stroke:none;fill:#619cff"/><path d="m125.37 213.27 6.17-3.83M239.64 132.29l5.96-3.8M182.44 172.76l6.12-3.8M72.87 244.84l2.17 3.65" style="stroke-width:.53;stroke:#bfbfbf"/><path d="M73.03 232.75h71.12-.09l.35-.01.34-.07.32-.13.3-.17.27-.22.23-.26.19-.3.14-.32.08-.33.03-.35v-15.16l-.03-.34-.08-.34-.14-.32-.19-.29-.23-.26-.27-.22-.3-.18-.32-.12-.34-.07-.26-.02H73.03l.26.02-.35-.01-.35.04-.33.09-.31.15-.29.2-.25.24-.21.28-.16.31-.11.33-.06.34v15.33-.17.34l.06.35.11.33.16.31.21.27.25.24.29.2.31.15.33.1.35.04z" style="stroke-width:.53;fill:#fff;fill-opacity:.5"/><text x="108.59" y="220.96" lengthAdjust="spacingAndGlyphs" style="font-size:5.69px;font-family:&quot;Arial&quot;" text-anchor="middle" textLength="68.24">HAND MKE PROPERTIES</text><text x="108.59" y="229.15" lengthAdjust="spacingAndGlyphs" style="font-size:5.69px;font-family:&quot;Arial&quot;" text-anchor="middle" textLength="10.43">LLC</text><path d="M203.36 143.57h48.99-.08l.34-.02.34-.07.33-.12.3-.17.27-.22.23-.26.18-.3.14-.32.08-.33.03-.35v-6.96l-.03-.35-.08-.34-.14-.32-.18-.29-.23-.26-.27-.22-.3-.18-.33-.12-.34-.07-.26-.01h-48.99l.26.01-.35-.01-.35.04-.33.1-.31.15-.29.19-.25.24-.21.28-.16.31-.11.33-.06.34v7.14-.18.35l.06.35.11.33.16.3.21.28.25.24.29.2.31.15.33.09.35.05z" style="stroke-width:.53;fill:#fff;fill-opacity:.5"/><text x="227.85" y="139.97" lengthAdjust="spacingAndGlyphs" style="font-size:5.69px;font-family:&quot;Arial&quot;" text-anchor="middle" textLength="46.12">JOSEPH R HAND</text><path d="M132.32 192.23h66.7-.09l.35-.01.34-.07.32-.12.3-.18.27-.22.23-.26.19-.29.14-.32.08-.34.03-.35v-15.15l-.03-.35-.08-.34-.14-.32-.19-.29-.23-.26-.27-.22-.3-.17-.32-.13-.34-.07-.26-.01h-66.7l.26.01-.35-.01-.35.04-.33.1-.31.15-.29.19-.25.24-.21.28-.16.31-.11.33-.06.34v15.33-.17.35l.06.34.11.33.16.31.21.28.25.24.29.19.31.15.33.1.35.04z" style="stroke-width:.53;fill:#fff;fill-opacity:.5"/><text x="165.67" y="180.44" lengthAdjust="spacingAndGlyphs" style="font-size:5.69px;font-family:&quot;Arial&quot;" text-anchor="middle" textLength="63.82">10480 STONEGATE DR,</text><text x="165.67" y="188.63" lengthAdjust="spacingAndGlyphs" style="font-size:5.69px;font-family:&quot;Arial&quot;" text-anchor="middle" textLength="50.86">FISHERS, IN 46040</text><path d="M38.39 244.84h68.6-.09l.35-.02.34-.07.33-.12.3-.17.27-.22.23-.26.18-.3.14-.32.08-.33.03-.35v-15.16l-.03-.34-.08-.34-.14-.32-.18-.29-.23-.27-.27-.21-.3-.18-.33-.12-.34-.07-.26-.02h-68.6l.26.02-.35-.02-.34.05-.34.09-.31.15-.29.2-.25.24-.21.28-.16.31-.11.33-.06.34v15.33-.17.34l.06.35.11.33.16.3.21.28.25.24.29.2.31.15.34.1.34.04z" style="stroke-width:.53;fill:#fff;fill-opacity:.5"/><text x="72.69" y="233.05" lengthAdjust="spacingAndGlyphs" style="font-size:5.69px;font-family:&quot;Arial&quot;" text-anchor="middle" textLength="65.72">2725 N PROSPECT AVE,</text><text x="72.69" y="241.24" lengthAdjust="spacingAndGlyphs" style="font-size:5.69px;font-family:&quot;Arial&quot;" text-anchor="middle" textLength="61.61">MILWAUKEE, WI 53211</text></g><g clip-path="url(#cpMC4wMHwyODguMDB8MC4wMHwyODguMDA=)"><circle cx="52.98" cy="96.71" r="1.95" style="stroke-width:.71;stroke:none;fill:#f8766d"/><path d="m129.33 93.67 2.63 4.56h-5.26z" style="stroke-width:.71;stroke:none;fill:#00ba38"/><path d="M195.31 98.66h3.91v-3.91h-3.91z" style="stroke-width:.71;stroke:none;fill:#619cff"/><text x="67.09" y="99.86" lengthAdjust="spacingAndGlyphs" style="font-size:8.8px;font-family:&quot;Arial Narrow&quot;" textLength="48.12">mprop address</text><text x="143.45" y="99.86" lengthAdjust="spacingAndGlyphs" style="font-size:8.8px;font-family:&quot;Arial Narrow&quot;" textLength="39.69">owner name</text><text x="211.38" y="99.86" lengthAdjust="spacingAndGlyphs" style="font-size:8.8px;font-family:&quot;Arial Narrow&quot;" textLength="40.5">wdfi address</text><text x="32.63" y="65.12" lengthAdjust="spacingAndGlyphs" style="font-size:12px;font-family:&quot;Arial Narrow&quot;" textLength="246.76">includes 6 parcels, 14 units, and 2 distinct owner names.</text><text x="32.63" y="42.78" lengthAdjust="spacingAndGlyphs" style="font-size:18px;font-weight:700;font-family:&quot;Arial Narrow&quot;" textLength="259.91">HAND MKE PROPERTIES LLC Group</text></g></svg>