<svg xmlns="http://www.w3.org/2000/svg" width="768" height="768" class="svglite" viewBox="0 0 576 576"><defs><style><![CDATA[.svglite line,.svglite polyline,.svglite polygon,.svglite path,.svglite circle{fill:none;stroke:#000000;stroke-linecap:round;stroke-linejoin:round;stroke-miterlimit:10.00}.svglite text{white-space:pre}]]></style></defs><rect width="100%" height="100%" style="stroke-linecap:round;stroke-linejoin:round;stroke-miterlimit:10.00;stroke:none;fill:#FFFFFF"/><defs><clipPath id="cpMC4wMHw1NzYuMDB8MC4wMHw1NzYuMDA="><path d="M0 0h576v576H0z"/></clipPath></defs><g clip-path="url(#cpMC4wMHw1NzYuMDB8MC4wMHw1NzYuMDA=)"><path d="M0 0h576v576H0z" style="stroke-width:1.07;stroke:none;fill:#FFFFFF"/></g><defs><clipPath id="cpMzIuNjN8NTQ2LjExfDEyMC44Nnw1NDMuMzc="><path d="M32.63 120.86h513.48v422.51H32.63z"/></clipPath></defs><g clip-path="url(#cpMzIuNjN8NTQ2LjExfDEyMC44Nnw1NDMuMzc=)"><path d="m408.35 435.49 1.16.9 1.16.89 1.15.9 1.16.89 1.15.9 1.16.89 1.15.9 1.16.9 1.16.89 1.15.9 1.16.89 1.15.9 1.16.89 1.16.9 1.15.9 1.16.89 1.15.9 1.16.89 1.15.9 1.16.89 1.16.9 1.15.9 1.16.89 1.15.9 1.16.89 1.15.9 1.16.89 1.16.9 1.15.9 1.16.89 1.15.9 1.16.89 1.15.9 1.16.89 1.16.9 1.15.9 1.16.89 1.15.9 1.16.89 1.15.9 1.16.89 1.16.9 1.15.9 1.16.89 1.15.9 1.16.89 1.15.9 1.16.89 1.16.9 1.15.9 1.16.89 1.15.9 1.16.89 1.15.9 1.16.89 1.16.9 1.15.9 1.16.89 1.15.9 1.16.89 1.15.9 1.16.9 1.16.89 1.15.9 1.16.89 1.15.9 1.16.89 1.15.9 1.16.9 1.16.89 1.15.9 1.16.89 1.15.9 1.16.89 1.15.9 1.16.9 1.16.89 1.15.9 1.16.89 1.15.9 1.16.89 1.15.9 1.16.9 1.16.89 1.15.9 1.16.89 1.15.9 1.16.89 1.15.9 1.16.9 1.16.89 1.15.9 1.16.89 1.15.9 1.16.89 1.15.9 1.16.9 1.16.89 1.15.9m-114.42-88.68.46-1.15.43-1.15.42-1.15.4-1.15.38-1.14.37-1.14.35-1.14.33-1.14.32-1.14.29-1.13.28-1.14.27-1.13.25-1.13.23-1.12.21-1.13.2-1.12.17-1.12.17-1.12.14-1.12.13-1.11.11-1.11.09-1.12.08-1.1.06-1.11.04-1.11.03-1.1.01-1.1-.01-1.1-.02-1.1-.05-1.09-.06-1.1-.07-1.09-.1-1.09-.11-1.08-.12-1.09-.15-1.08-.16-1.08-.18-1.08-.19-1.08-.22-1.08-.23-1.07-.24-1.07-.27-1.07-.28-1.07-.29-1.07-.32-1.06-.33-1.06-.35-1.06-.36-1.06-.39-1.06-.4-1.05-.41-1.05-.44-1.05-.45-1.05-.47-1.05-.48-1.04-.5-1.04-.52-1.04-.54-1.04-.55-1.04-.57-1.03-.59-1.04-.6-1.03-.62-1.03-.64-1.02-.66-1.03-.67-1.02-.69-1.02-.7-1.02-.73-1.02-.74-1.01-.75-1.01-.78-1.01-.79-1.01-.81-1.01-.82-1.01-.85-1-.86-1-.87-1-.9-1-.91-.99-.92-.99-.95-1-.96-.98-.98-.99-.99-.99-1.02-.98-1.03-.98-1.04-.98-1.07-.98-1.08-.98-1.1-.97-1.11-.97-1.13-.97-1.15-.97-1.17-.96-1.18-.97-1.2-.96-1.22-.96" style="stroke-width:1.07;stroke:#000000;stroke-opacity:0.10;stroke-linecap:butt"/><path d="m488.28 359.38-2.32-.24-2.33-.24-2.32-.23-2.32-.24-2.32-.23-2.32-.22-2.33-.22-2.32-.23-2.32-.21-2.33-.22-2.32-.21-2.33-.21-2.32-.21-2.33-.2-2.32-.21-2.33-.2-2.33-.19-2.33-.2-2.32-.19-2.33-.19-2.33-.18-2.33-.19-2.33-.18-2.33-.18-2.33-.17-2.33-.17-2.33-.17-2.33-.17-2.33-.17-2.33-.16-2.34-.16-2.33-.16-2.33-.15-2.34-.15-2.33-.15-2.33-.15-2.34-.14-2.33-.14-2.34-.14-2.33-.13-2.34-.14-2.34-.13-2.33-.12-2.34-.13-2.34-.12-2.34-.12-2.34-.12-2.34-.11-2.34-.11-2.34-.11-2.34-.11-2.34-.1-2.34-.1-2.34-.1-2.34-.1-2.34-.09-2.34-.09-2.35-.09-2.34-.08-2.34-.08-2.35-.08-2.34-.08-2.35-.08-2.34-.07-2.35-.07-2.34-.06-2.35-.07-2.35-.06-2.35-.05-2.34-.06-2.35-.05-2.35-.05-2.35-.05-2.35-.05-2.35-.04-2.35-.04-2.35-.03-2.35-.04-2.35-.03-2.35-.03-2.35-.03-2.35-.02-2.36-.02-2.35-.02-2.35-.01-2.36-.02-2.35-.01h-2.36l-2.35-.01h-7.07l-2.35.01-2.36.01-2.36.01-2.36.01-2.35.02-2.36.02-2.36.02m231.64 10.78-1.14-.36-1.14-.35-1.15-.35-1.14-.35-1.14-.35-1.15-.35-1.14-.34-1.15-.35-1.15-.34-1.15-.34-1.15-.34-1.15-.34-1.15-.34-1.15-.33-1.16-.34-1.15-.33-1.16-.33-1.15-.33-1.16-.33-1.16-.33-1.16-.33-1.16-.32-1.16-.33-1.17-.32-1.16-.32-1.17-.32-1.16-.32-1.17-.31-1.17-.32-1.17-.31-1.17-.32-1.17-.31-1.17-.31-1.18-.31-1.17-.31-1.18-.3-1.17-.31-1.18-.3-1.18-.3-1.18-.3-1.18-.3-1.18-.3-1.19-.3-1.18-.29-1.18-.3-1.19-.29-1.19-.29-1.19-.29-1.18-.29-1.19-.29-1.2-.28-1.19-.29-1.19-.28-1.19-.28-1.2-.28-1.2-.28-1.19-.28-1.2-.28-1.2-.27-1.2-.27-1.2-.28-1.21-.27-1.2-.27-1.2-.26-1.21-.27-1.2-.27-1.21-.26-1.21-.26-1.21-.27-1.21-.26-1.21-.25-1.22-.26-1.21-.26-1.21-.25-1.22-.26-1.22-.25-1.21-.25-1.22-.25-1.22-.25-1.22-.24-1.23-.25-1.22-.24-1.22-.24-1.23-.25-1.22-.23-1.23-.24-1.23-.24-1.23-.24-1.23-.23-1.23-.23-1.23-.23-1.23-.24-1.24-.22-1.23-.23-1.24-.23-1.24-.22-1.24-.23-1.24-.22-1.24-.22m-165.37-84.2.16 1.08.17 1.09.17 1.08.19 1.09.18 1.08.2 1.08.2 1.08.22 1.08.21 1.08.23 1.07.23 1.08.24 1.07.25 1.08.26 1.07.26 1.07.27 1.07.28 1.06.28 1.07.29 1.07.3 1.06.31 1.07.31 1.06.33 1.06.32 1.06.34 1.06.34 1.05.36 1.06.35 1.06.37 1.05.37 1.05.38 1.05.39 1.05.4 1.05.4 1.05.41 1.05.42 1.04.42 1.05.43 1.04.44 1.04.45 1.04.46 1.04.46 1.04.47 1.04.47 1.03.49 1.04.49 1.03.5 1.03.5 1.04.51 1.03.53 1.02.52 1.03.54 1.03.54 1.02.55 1.03.56 1.02.56 1.02.58 1.02.58 1.02.58 1.02.6 1.02.6 1.01.61 1.02.61 1.01.63 1.02.63 1.01.64 1.01.64 1 .66 1.01.66 1.01.67 1 .67 1.01.68 1 .7 1 .69 1 .71 1 .71 1 .72 1 .73.99.73 1 .74.99.75.99.76.99.76.99.77.99.78.99.79.99.79.98.8.98.81.99.82.98.82.98.83.98.84.98.84.97.85.98.86.97.87.98.88.97.88.97" style="stroke-width:1.07;stroke:#000000;stroke-opacity:0.10;stroke-linecap:butt"/><path d="m205.09 246.74 1.3 1.08 1.31 1.08 1.31 1.07 1.32 1.07 1.33 1.07 1.33 1.06 1.34 1.05 1.35 1.05 1.36 1.05 1.37 1.04 1.37 1.04 1.38 1.03 1.39 1.02 1.4 1.02 1.4 1.02 1.41 1.01 1.42 1.01 1.43 1 1.43 1 1.44 1 1.45.98 1.46.99 1.47.98 1.47.97 1.48.97 1.49.97 1.49.96 1.5.95 1.51.95 1.52.95 1.53.94 1.53.93 1.54.94 1.55.92 1.56.92 1.56.92 1.57.91 1.58.91 1.59.9 1.59.9 1.6.9 1.61.88 1.62.89 1.62.88 1.64.87 1.64.87 1.64.87 1.66.86 1.66.85 1.67.85 1.68.85 1.69.84 1.69.83 1.7.84 1.71.82 1.71.83 1.73.81 1.73.81 1.74.81 1.75.81 1.75.79 1.76.8 1.77.79 1.78.78 1.78.78 1.79.77 1.8.77 1.81.77 1.82.76 1.82.75 1.83.75 1.84.75 1.84.74 1.86.74 1.86.73 1.87.73 1.87.72 1.89.72 1.89.71 1.9.71 1.9.7 1.92.7 1.92.69 1.93.69 1.94.68 1.94.68 1.95.68 1.96.67 1.97.66 1.97.66 1.99.66 1.99.65 2 .64 2 .65 2.01.63 2.03.63 2.02.63 2.04.62 2.04.62m37.89 104.55-.91-1.22-.93-1.21-.94-1.21-.96-1.2-.96-1.19-.98-1.19-.99-1.17-1.01-1.17-1.01-1.17-1.03-1.16-1.05-1.15-1.05-1.14-1.07-1.13-1.08-1.13-1.09-1.13-1.1-1.11-1.12-1.11-1.13-1.1-1.14-1.09-1.16-1.09-1.17-1.08-1.18-1.07-1.19-1.07-1.21-1.06-1.21-1.05-1.23-1.05-1.25-1.04-1.25-1.03-1.27-1.02-1.28-1.02-1.3-1.01-1.3-1-1.32-1-1.33-.99-1.35-.98-1.35-.98-1.37-.97-1.38-.96-1.4-.95-1.4-.95-1.42-.94-1.44-.93-1.44-.93-1.46-.92-1.47-.91-1.48-.91-1.49-.9-1.51-.89-1.52-.88-1.53-.88-1.55-.87-1.56-.86-1.57-.86-1.58-.85-1.59-.84-1.61-.84-1.62-.83-1.64-.82-1.64-.81-1.66-.81-1.67-.8-1.68-.8-1.7-.78-1.71-.78-1.72-.78-1.73-.76-1.75-.76-1.76-.75-1.77-.75-1.78-.74-1.8-.73-1.81-.72-1.82-.72-1.84-.71-1.84-.7-1.86-.7-1.87-.69-1.89-.68-1.9-.68-1.91-.66-1.92-.66-1.93-.66-1.95-.65-1.96-.64-1.97-.63-1.99-.63-2-.62-2.01-.61-2.02-.6-2.04-.6-2.04-.59-2.06-.59-2.08-.57-2.08-.57-2.1-.57-2.11-.55-2.13-.55-2.13-.55-2.15-.53m151.71 86.89.27-1.13.25-1.13.24-1.13.23-1.12.21-1.13.2-1.12.19-1.12.17-1.12.16-1.12.15-1.12.13-1.12.12-1.11.11-1.11.09-1.11.09-1.11.06-1.11.06-1.11.04-1.1.03-1.11.01-1.1v-1.1l-.01-1.1-.03-1.09-.03-1.1-.06-1.09-.06-1.1-.08-1.09-.09-1.09-.1-1.08-.12-1.09-.13-1.09-.15-1.08-.16-1.08-.17-1.08-.18-1.08-.2-1.08-.21-1.07-.22-1.08-.24-1.07-.25-1.07-.26-1.07-.28-1.07-.29-1.07-.3-1.06-.32-1.07-.33-1.06-.34-1.06-.36-1.06-.37-1.06-.38-1.05-.4-1.06-.41-1.05-.42-1.05-.44-1.05-.44-1.05-.47-1.05-.47-1.04-.49-1.05-.5-1.04-.52-1.04-.53-1.04-.54-1.04-.55-1.03-.57-1.04-.58-1.03-.6-1.03-.6-1.03-.63-1.03-.63-1.03-.65-1.02-.66-1.03-.67-1.02-.69-1.02-.7-1.02-.71-1.02-.73-1.01-.74-1.02-.75-1.01-.77-1.01-.78-1.01-.79-1.01-.81-1.01-.82-1.01-.83-1-.85-1-.86-1-.87-1-.89-1-.9-1-.91-.99-.92-1-.94-.99-.96-.99-.96-.99-.98-.99-.99-.98-1.01-.99-1.01-.98-1.04-.98" style="stroke-width:1.07;stroke:#000000;stroke-opacity:0.10;stroke-linecap:butt"/><path d="m451.39 271.09-1.96.78-1.97.79-1.97.78-1.96.78-1.97.78-1.97.79-1.97.78-1.96.78-1.97.79-1.97.78-1.97.78-1.96.79-1.97.78-1.97.78-1.96.78-1.97.79-1.97.78-1.97.78-1.96.79-1.97.78-1.97.78-1.97.78-1.96.79-1.97.78-1.97.78-1.96.79-1.97.78-1.97.78-1.97.78-1.96.79-1.97.78-1.97.78-1.96.79-1.97.78-1.97.78-1.97.79-1.96.78-1.97.78-1.97.78-1.97.79-1.96.78-1.97.78-1.97.79-1.96.78-1.97.78-1.97.78-1.97.79-1.96.78-1.97.78-1.97.79-1.96.78-1.97.78-1.97.78-1.97.79-1.96.78-1.97.78-1.97.79-1.97.78-1.96.78-1.97.78-1.97.79-1.96.78-1.97.78-1.97.79-1.97.78-1.96.78-1.97.79-1.97.78-1.97.78-1.96.78-1.97.79-1.97.78-1.96.78-1.97.79-1.97.78-1.97.78-1.96.78-1.97.79-1.97.78-1.96.78-1.97.79-1.97.78-1.97.78-1.96.78-1.97.79-1.97.78-1.97.78-1.96.79-1.97.78-1.97.78-1.96.78-1.97.79-1.97.78-1.97.78-1.96.79-1.97.78-1.97.78-1.97.79-1.96.78m194.75-77.51-.81.61-.82.6-.82.6-.82.61-.81.6-.82.61-.82.6-.82.61-.81.6-.82.61-.82.6-.82.61-.81.6-.82.6-.82.61-.82.6-.81.61-.82.6-.82.61-.82.6-.81.61-.82.6-.82.61-.82.6-.81.6-.82.61-.82.6-.82.61-.81.6-.82.61-.82.6-.82.61-.81.6-.82.61-.82.6-.82.6-.81.61-.82.6-.82.61-.82.6-.81.61-.82.6-.82.61-.82.6-.81.61-.82.6-.82.6-.81.61-.82.6-.82.61-.82.6-.81.61-.82.6-.82.61-.82.6-.81.61-.82.6-.82.6-.82.61-.81.6-.82.61-.82.6-.82.61-.81.6-.82.61-.82.6-.82.61-.81.6-.82.6-.82.61-.82.6-.81.61-.82.6-.82.61-.82.6-.81.61-.82.6-.82.61-.82.6-.81.6-.82.61-.82.6-.82.61-.81.6-.82.61-.82.6-.82.61-.81.6-.82.61-.82.6-.82.6-.81.61-.82.6-.82.61-.82.6-.81.61-.82.6-.82.61-.82.6" style="stroke-width:1.07;stroke:#000000;stroke-opacity:0.10;stroke-linecap:butt"/><path d="m329.67 244.74-.83 1.03-.83 1.03-.82 1.03-.83 1.03-.82 1.03-.82 1.03-.82 1.03-.81 1.03-.82 1.03-.81 1.04-.81 1.03-.81 1.03-.81 1.03-.8 1.04-.81 1.03-.8 1.04-.8 1.03-.8 1.04-.79 1.03-.8 1.04-.79 1.04-.79 1.03-.79 1.04-.78 1.04-.79 1.04-.78 1.04-.78 1.04-.78 1.04-.78 1.04-.77 1.04-.78 1.04-.77 1.04-.77 1.04-.77 1.05-.76 1.04-.77 1.04-.76 1.04-.76 1.05-.76 1.04-.75 1.05-.76 1.04-.75 1.05-.75 1.04-.75 1.05-.75 1.05-.74 1.05-.75 1.04-.74 1.05-.74 1.05-.74 1.05-.73 1.05-.74 1.05-.73 1.05-.73 1.05-.73 1.05-.72 1.05-.73 1.05-.72 1.06-.72 1.05-.72 1.05-.72 1.06-.71 1.05-.72 1.06-.71 1.05-.71 1.06-.7 1.05-.71 1.06-.7 1.05-.71 1.06-.7 1.06-.69 1.06-.7 1.06-.69 1.05-.7 1.06-.69 1.06-.69 1.06-.68 1.06-.69 1.06-.68 1.06-.68 1.07-.68 1.06-.68 1.06-.68 1.06-.67 1.07-.67 1.06-.67 1.07-.67 1.06-.67 1.07-.66 1.06-.66 1.07-.66 1.06-.66 1.07-.66 1.07-.66 1.06-.65 1.07-.65 1.07-.65 1.07-.65 1.07-.64 1.07m73.03-103.86.34.88.33.89.34.88.34.88.35.88.34.88.34.88.35.88.35.88.35.88.35.88.35.88.36.88.35.88.36.88.36.88.36.88.36.88.37.87.36.88.37.88.37.88.37.87.37.88.37.88.37.87.38.88.38.87.38.88.38.88.38.87.39.88.38.87.39.87.39.88.39.87.39.88.39.87.4.87.39.88.4.87.4.87.4.87.4.88.41.87.4.87.41.87.41.87.41.87.41.87.42.87.41.87.42.87.42.87.42.87.42.87.42.87.43.87.42.87.43.87.43.87.43.86.43.87.44.87.43.87.44.86.44.87.44.87.44.86.44.87.45.86.44.87.45.87.45.86.45.87.45.86.46.86.45.87.46.86.46.87.46.86.46.86.47.87.46.86.47.86.47.86.46.86.48.87.47.86.47.86.48.86.48.86.48.86.48.86.48.86.48.86.49.86.49.86.48.86M60.23 308.76l1.98.41 1.99.4 1.98.4 1.99.4 1.98.41 1.98.4 1.99.4 1.98.4 1.99.4 1.98.41 1.98.4 1.99.4 1.98.4 1.98.41 1.99.4 1.98.4 1.99.4 1.98.41 1.98.4 1.99.4 1.98.4 1.99.41 1.98.4 1.98.4 1.99.4 1.98.4 1.99.41 1.98.4 1.98.4 1.99.4 1.98.41 1.99.4 1.98.4 1.98.4 1.99.41 1.98.4 1.98.4 1.99.4 1.98.41 1.99.4 1.98.4 1.98.4 1.99.41 1.98.4 1.99.4 1.98.4 1.98.4 1.99.41 1.98.4 1.99.4 1.98.4 1.98.41 1.99.4 1.98.4 1.99.4 1.98.41 1.98.4 1.99.4 1.98.4 1.99.41 1.98.4 1.98.4 1.99.4 1.98.41 1.98.4 1.99.4 1.98.4 1.99.4 1.98.41 1.98.4 1.99.4 1.98.4 1.99.41 1.98.4 1.98.4 1.99.4 1.98.41 1.99.4 1.98.4 1.98.4 1.99.41 1.98.4 1.99.4 1.98.4 1.98.4 1.99.41 1.98.4 1.98.4 1.99.4 1.98.41 1.99.4 1.98.4 1.98.4 1.99.41 1.98.4 1.99.4 1.98.4 1.98.41 1.99.4m231.64 10.78-2.34-.11-2.34-.11-2.34-.11-2.34-.11-2.34-.11-2.34-.11-2.34-.11-2.34-.11-2.34-.1-2.34-.11-2.34-.11-2.34-.11-2.34-.11-2.34-.11-2.34-.11-2.34-.11-2.34-.11-2.34-.1-2.34-.11-2.34-.11-2.34-.11-2.34-.11-2.34-.11-2.34-.11-2.34-.11-2.34-.1-2.34-.11-2.34-.11-2.34-.11-2.34-.11-2.34-.11-2.34-.11-2.34-.11-2.34-.11-2.34-.1-2.34-.11-2.34-.11-2.34-.11-2.34-.11-2.33-.11-2.34-.11-2.34-.11-2.34-.11-2.34-.1-2.34-.11-2.34-.11-2.34-.11-2.34-.11-2.34-.11-2.34-.11-2.34-.11-2.34-.11-2.34-.1-2.34-.11-2.34-.11-2.34-.11-2.34-.11-2.34-.11-2.34-.11-2.34-.11-2.34-.11-2.34-.1-2.34-.11-2.34-.11-2.34-.11-2.34-.11-2.34-.11-2.34-.11-2.34-.11-2.34-.1-2.34-.11-2.34-.11-2.34-.11-2.34-.11-2.34-.11-2.34-.11-2.34-.11-2.34-.11-2.34-.1-2.34-.11-2.34-.11-2.34-.11-2.34-.11-2.34-.11-2.34-.11-2.34-.11-2.33-.11-2.34-.1-2.34-.11-2.34-.11-2.34-.11-2.34-.11-2.34-.11-2.34-.11-2.34-.11-2.34-.11-2.34-.1-2.34-.11-2.34-.11m231.64 10.78-1.19-.29-1.19-.29-1.19-.29-1.19-.28-1.19-.29-1.19-.29-1.19-.28-1.19-.29-1.19-.29-1.19-.29-1.19-.28-1.19-.29-1.19-.29-1.19-.29-1.19-.28-1.19-.29-1.19-.29-1.19-.28-1.19-.29-1.19-.29-1.19-.29-1.19-.28-1.19-.29-1.19-.29-1.19-.28-1.19-.29-1.19-.29-1.19-.29-1.19-.28-1.19-.29-1.19-.29-1.19-.29-1.19-.28-1.19-.29-1.19-.29-1.19-.28-1.19-.29-1.19-.29-1.19-.29-1.19-.28-1.19-.29-1.19-.29-1.19-.28-1.19-.29-1.19-.29-1.19-.29-1.19-.28-1.19-.29-1.2-.29-1.19-.29-1.19-.28-1.19-.29-1.19-.29-1.19-.28-1.19-.29-1.19-.29-1.19-.29-1.19-.28-1.19-.29-1.19-.29-1.19-.28-1.19-.29-1.19-.29-1.19-.29-1.19-.28-1.19-.29-1.19-.29-1.19-.29-1.19-.28-1.19-.29-1.19-.29-1.19-.28-1.19-.29-1.19-.29-1.19-.29-1.19-.28-1.19-.29-1.19-.29-1.19-.28-1.19-.29-1.19-.29-1.19-.29-1.19-.28-1.19-.29-1.19-.29-1.19-.29-1.19-.28-1.19-.29-1.19-.29-1.19-.28-1.19-.29-1.19-.29-1.19-.29-1.19-.28-1.19-.29-1.19-.29-1.19-.28-1.19-.29-1.19-.29" style="stroke-width:1.07;stroke:#000000;stroke-opacity:0.10;stroke-linecap:butt"/><path d="m408.35 435.49-1.07-1.13-1.08-1.13-1.08-1.13-1.1-1.12-1.11-1.11-1.12-1.11-1.13-1.1-1.13-1.1-1.15-1.09-1.15-1.09-1.17-1.08-1.17-1.08-1.18-1.07-1.2-1.06-1.2-1.07-1.21-1.05-1.22-1.05-1.23-1.05-1.24-1.04-1.25-1.03-1.26-1.03-1.27-1.03-1.28-1.02-1.29-1.01-1.29-1.01-1.31-1-1.31-1-1.33-.99-1.33-.99-1.35-.98-1.35-.98-1.36-.97-1.38-.97-1.38-.96-1.39-.96-1.4-.95-1.41-.94-1.42-.94-1.43-.94-1.43-.93-1.45-.92-1.46-.92-1.47-.92-1.47-.91-1.49-.9-1.49-.9-1.51-.89-1.51-.89-1.52-.88-1.53-.88-1.55-.87-1.55-.87-1.56-.86-1.57-.86-1.58-.85-1.59-.85-1.6-.84-1.6-.83-1.62-.83-1.63-.83-1.63-.82-1.65-.81-1.66-.81-1.66-.81-1.67-.8-1.69-.79-1.69-.79-1.7-.78-1.71-.78-1.73-.78-1.73-.76-1.74-.77-1.75-.75-1.75-.75-1.77-.75-1.78-.74-1.79-.74-1.79-.73-1.81-.73-1.82-.72-1.82-.71-1.84-.71-1.84-.71-1.85-.7-1.86-.69-1.88-.69-1.88-.68-1.89-.68-1.9-.68-1.91-.66-1.92-.67-1.93-.65-1.94-.66-1.94-.64-1.96-.65-1.97-.63-1.97-.63-1.99-.63-1.99-.62m151.71 86.89.09-1.11.07-1.11.06-1.11.05-1.1.04-1.11.04-1.1.02-1.1.02-1.11v-2.2l-.02-1.09-.02-1.1-.03-1.1-.05-1.09-.05-1.1-.06-1.09-.07-1.09-.08-1.09-.09-1.09-.1-1.09-.11-1.09-.11-1.09-.13-1.08-.14-1.09-.15-1.08-.15-1.08-.17-1.08-.17-1.08-.18-1.08-.2-1.08-.2-1.08-.21-1.07-.23-1.08-.23-1.07-.24-1.07-.25-1.07-.26-1.07-.27-1.07-.28-1.07-.28-1.07-.3-1.06-.31-1.07-.32-1.06-.32-1.07-.34-1.06-.34-1.06-.36-1.06-.36-1.06-.37-1.05-.39-1.06-.39-1.05-.4-1.06-.41-1.05-.42-1.05-.43-1.05-.44-1.05-.45-1.05-.46-1.05-.47-1.04-.47-1.05-.49-1.04-.5-1.05-.5-1.04-.52-1.04-.52-1.04-.54-1.04-.54-1.03-.55-1.04-.57-1.04-.57-1.03-.58-1.03-.59-1.04-.6-1.03-.61-1.03-.62-1.03-.63-1.02-.64-1.03-.64-1.03-.66-1.02-.67-1.02-.67-1.03-.69-1.02-.69-1.02-.71-1.02-.71-1.01-.72-1.02-.74-1.02-.74-1.01-.75-1.01-.76-1.02-.77-1.01-.78-1.01-.79-1.01-.8-1.01-.81-1-.82-1.01-.82-1-.84-1.01-.85-1" style="stroke-width:1.07;stroke:#000000;stroke-opacity:0.10;stroke-linecap:butt"/><path d="m408.35 435.49-1.22-1.05-1.23-1.04-1.24-1.05-1.24-1.03-1.25-1.04-1.26-1.03-1.26-1.03-1.27-1.02-1.27-1.02-1.28-1.02-1.29-1.02-1.29-1.01-1.3-1-1.31-1.01-1.31-1-1.32-.99-1.32-1-1.34-.98-1.33-.99-1.35-.98-1.35-.98-1.35-.98-1.37-.97-1.37-.97-1.37-.96-1.38-.96-1.39-.96-1.39-.96-1.4-.95-1.41-.95-1.41-.94-1.42-.94-1.43-.94-1.43-.93-1.44-.93-1.44-.93-1.45-.92-1.46-.92-1.46-.92-1.47-.91-1.48-.91-1.48-.9-1.49-.91-1.5-.89-1.5-.9-1.5-.89-1.52-.89-1.52-.88-1.52-.88-1.54-.88-1.54-.88-1.54-.87-1.55-.86-1.56-.87-1.56-.86-1.57-.86-1.58-.85-1.58-.85-1.59-.84-1.6-.85-1.6-.84-1.61-.83-1.61-.83-1.62-.83-1.63-.83-1.63-.82-1.64-.82-1.65-.81-1.65-.82-1.66-.8-1.66-.81-1.67-.8-1.68-.8-1.68-.79-1.69-.79-1.7-.79-1.7-.78-1.71-.78-1.71-.78-1.73-.77-1.72-.77-1.74-.76-1.74-.77-1.74-.76-1.76-.75-1.75-.75-1.77-.75-1.77-.75-1.78-.74-1.78-.74-1.79-.73-1.8-.73-1.8-.73-1.81-.72-1.82-.72-1.82-.72-1.83-.72-1.83-.71-1.84-.7m151.71 86.89-.1-1.09-.11-1.09-.12-1.08-.12-1.09-.13-1.08-.13-1.09-.14-1.08-.14-1.09-.15-1.08-.16-1.08-.16-1.08-.17-1.08-.17-1.08-.18-1.08-.18-1.08-.19-1.08-.2-1.08-.2-1.08-.2-1.07-.22-1.08-.22-1.07-.22-1.08-.23-1.07-.23-1.07-.24-1.08-.25-1.07-.25-1.07-.26-1.07-.26-1.07-.27-1.07-.28-1.07-.28-1.07-.29-1.06-.29-1.07-.3-1.06-.3-1.07-.31-1.06-.31-1.07-.32-1.06-.33-1.06-.33-1.07-.34-1.06-.34-1.06-.35-1.06-.35-1.06-.36-1.06-.37-1.05-.37-1.06-.38-1.06-.38-1.05-.39-1.06-.39-1.05-.4-1.06-.41-1.05-.41-1.05-.42-1.06-.42-1.05-.43-1.05-.43-1.05-.44-1.05-.45-1.05-.45-1.05-.45-1.04-.46-1.05-.47-1.05-.48-1.04-.48-1.05-.48-1.04-.49-1.04-.5-1.05-.5-1.04-.51-1.04-.51-1.04-.52-1.04-.52-1.04-.53-1.04-.54-1.04-.54-1.04-.55-1.03-.55-1.04-.56-1.04-.56-1.03-.57-1.04-.58-1.03-.58-1.03-.59-1.04-.59-1.03-.6-1.03-.6-1.03-.61-1.03-.62-1.03-.62-1.03-.63-1.03-.63-1.02-.64-1.03-.64-1.03-.65-1.02-.66-1.03-.66-1.02m-165.37-84.2.34 1.05.35 1.06.35 1.06.35 1.05.35 1.06.36 1.06.36 1.05.37 1.05.37 1.06.37 1.05.38 1.05.38 1.05.38 1.05.39 1.05.39 1.05.4 1.05.4 1.05.4 1.05.4 1.05.42 1.04.41 1.05.42 1.04.42 1.05.42 1.04.43 1.05.43 1.04.44 1.04.44 1.05.44 1.04.45 1.04.45 1.04.45 1.04.46 1.04.46 1.03.47 1.04.47 1.04.47 1.04.48 1.03.48 1.04.48 1.03.49 1.04.49 1.03.49 1.03.5 1.04.5 1.03.51 1.03.51 1.03.51 1.03.52 1.03.52 1.03.53 1.03.52 1.02.53 1.03.54 1.03.54 1.02.54 1.03.55 1.02.55 1.03.55 1.02.56 1.02.56 1.03.57 1.02.56 1.02.58 1.02.57 1.02.58 1.02.59 1.02.58 1.02.59 1.01.6 1.02.6 1.02.6 1.01.6 1.02.61 1.01.61 1.02.62 1.01.62 1.01.63 1.02.62 1.01.63 1.01.64 1.01.64 1.01.64 1.01.65 1.01.65 1.01.65 1 .66 1.01.66 1.01.66 1 .67 1.01.67 1 .68 1.01.68 1 .68 1 .68 1.01.7 1 .69 1 .7 1 .7 1m-51.55-101.86 1.45.99 1.45.98 1.46.99 1.46.98 1.46.98 1.47.98 1.48.97 1.47.97 1.49.97 1.48.96 1.5.96 1.49.96 1.5.96 1.51.95 1.51.95 1.52.95 1.52.95 1.52.94 1.53.94 1.53.93 1.54.94 1.54.93 1.55.92 1.55.93 1.56.92 1.56.92 1.56.92 1.57.91 1.58.91 1.58.91 1.58.9 1.59.9 1.59.9 1.6.9 1.6.89 1.61.89 1.61.89 1.61.89 1.62.88 1.63.88 1.63.87 1.63.88 1.64.87 1.64.86 1.65.87 1.65.86 1.66.86 1.66.86 1.66.85 1.68.85 1.67.85 1.68.84 1.68.85 1.69.83 1.7.84 1.69.83 1.71.83 1.7.83 1.71.83 1.72.82 1.72.82 1.73.81 1.73.82 1.73.81 1.74.81 1.74.8 1.75.8 1.75.8 1.76.8 1.76.79 1.77.79 1.77.79 1.78.79 1.78.78 1.78.78 1.79.77 1.79.78 1.8.77 1.8.76 1.81.77 1.81.76 1.82.76 1.82.76 1.83.75 1.83.75 1.83.75 1.84.74 1.85.75 1.85.74 1.85.73 1.86.74 1.86.73 1.87.72 1.87.73 1.87.72 1.88.72 1.89.72 1.89.71 1.89.71M55.97 386.18l2.02-.38 2.03-.38 2.03-.38 2.03-.38 2.02-.38 2.03-.38 2.03-.38 2.02-.38 2.03-.38 2.03-.38 2.02-.38 2.03-.37 2.03-.38 2.03-.38 2.02-.38 2.03-.38 2.03-.38 2.02-.38 2.03-.38 2.03-.38 2.02-.38 2.03-.38 2.03-.38 2.03-.38 2.02-.38 2.03-.38 2.03-.38 2.02-.38 2.03-.38 2.03-.38 2.02-.38 2.03-.38 2.03-.38 2.02-.38 2.03-.38 2.03-.38 2.03-.38 2.02-.38 2.03-.37 2.03-.38 2.02-.38 2.03-.38 2.03-.38 2.02-.38 2.03-.38 2.03-.38 2.03-.38 2.02-.38 2.03-.38 2.03-.38 2.02-.38 2.03-.38 2.03-.38 2.02-.38 2.03-.38 2.03-.38 2.03-.38 2.02-.38 2.03-.38 2.03-.38 2.02-.38 2.03-.38 2.03-.38 2.02-.38 2.03-.37 2.03-.38 2.02-.38 2.03-.38 2.03-.38 2.03-.38 2.02-.38 2.03-.38 2.03-.38 2.02-.38 2.03-.38 2.03-.38 2.02-.38 2.03-.38 2.03-.38 2.03-.38 2.02-.38 2.03-.38 2.03-.38 2.02-.38 2.03-.38 2.03-.38 2.02-.38 2.03-.38 2.03-.38 2.03-.38 2.02-.37 2.03-.38 2.03-.38 2.02-.38 2.03-.38 2.03-.38 2.02-.38 2.03-.38 2.03-.38" style="stroke-width:1.07;stroke:#000000;stroke-opacity:0.10;stroke-linecap:butt"/><path d="m205.09 246.74.52 1.03.53 1.02.52 1.03.52 1.03.52 1.03.52 1.03.52 1.03.52 1.03.52 1.03.52 1.03.52 1.02.52 1.03.52 1.03.52 1.03.52 1.03.52 1.03.53 1.03.52 1.03.52 1.03.52 1.02.52 1.03.52 1.03.52 1.03.52 1.03.52 1.03.52 1.03.52 1.03.52 1.03.52 1.02.52 1.03.52 1.03.52 1.03.53 1.03.52 1.03.52 1.03.52 1.03.52 1.03.52 1.02.52 1.03.52 1.03.52 1.03.52 1.03.52 1.03.52 1.03.52 1.03.52 1.03.52 1.03.52 1.02.53 1.03.52 1.03.52 1.03.52 1.03.52 1.03.52 1.03.52 1.03.52 1.03.52 1.02.52 1.03.52 1.03.52 1.03.52 1.03.52 1.03.52 1.03.53 1.03.52 1.03.52 1.02.52 1.03.52 1.03.52 1.03.52 1.03.52 1.03.52 1.03.52 1.03.52 1.03.52 1.02.52 1.03.52 1.03.52 1.03.52 1.03.53 1.03.52 1.03.52 1.03.52 1.03.52 1.02.52 1.03.52 1.03.52 1.03.52 1.03.52 1.03.52 1.03.52 1.03.52 1.03.52 1.02.52 1.03.53 1.03.52 1.03.52 1.03.52 1.03.52 1.03m-51.55-101.86 1.6.89 1.6.9 1.6.9 1.6.89 1.6.89 1.6.9 1.61.89 1.6.89 1.61.89 1.61.89 1.61.88 1.61.89 1.62.89 1.61.88 1.62.88 1.62.89 1.62.88 1.62.88 1.62.88 1.63.88 1.62.88 1.63.87 1.63.88 1.63.88 1.63.87 1.64.87 1.63.88 1.64.87 1.64.87 1.64.87 1.64.87 1.64.86 1.65.87 1.64.87 1.65.86 1.65.87 1.65.86 1.65.86 1.66.86 1.65.86 1.66.86 1.66.86 1.66.86 1.66.85 1.66.86 1.67.85 1.66.86 1.67.85 1.67.85 1.67.85 1.67.85 1.67.85 1.68.85 1.67.84 1.68.85 1.68.84 1.68.85 1.69.84 1.68.84 1.69.84 1.68.84 1.69.84 1.69.84 1.69.84 1.7.83 1.69.84 1.7.83 1.7.84 1.69.83 1.71.83 1.7.83 1.7.83 1.71.83 1.7.83 1.71.82 1.71.83 1.71.82 1.72.83 1.71.82 1.72.82 1.72.82 1.71.82 1.73.82 1.72.82 1.72.82 1.73.82 1.72.81 1.73.82 1.73.81 1.73.81 1.74.81 1.73.81 1.74.81 1.73.81 1.74.81 1.74.81 1.74.8 1.75.81 1.74.8m37.89 104.55-1.37-.96-1.39-.97-1.38-.96-1.39-.95-1.39-.96-1.39-.95-1.4-.96-1.4-.95-1.4-.95-1.41-.94-1.41-.95-1.41-.94-1.42-.95-1.42-.94-1.42-.94-1.43-.93-1.43-.94-1.43-.93-1.43-.93-1.44-.93-1.44-.93-1.45-.93-1.44-.92-1.46-.93-1.45-.92-1.46-.92-1.46-.92-1.46-.91-1.47-.92-1.47-.91-1.47-.91-1.47-.91-1.48-.91-1.49-.9-1.48-.91-1.49-.9-1.49-.9-1.5-.9-1.49-.89-1.5-.9-1.51-.89-1.51-.89-1.51-.89-1.51-.89-1.52-.89-1.52-.88-1.52-.89-1.53-.88-1.53-.88-1.53-.87-1.53-.88-1.54-.87-1.54-.88-1.55-.87-1.55-.87-1.55-.86-1.55-.87-1.56-.86-1.56-.86-1.57-.86-1.56-.86-1.57-.86-1.58-.85-1.57-.86-1.58-.85-1.59-.85-1.58-.85-1.59-.84-1.59-.85-1.6-.84-1.6-.84-1.6-.84-1.6-.84-1.61-.83-1.61-.84-1.62-.83-1.61-.83-1.62-.83-1.63-.83-1.63-.82-1.63-.83-1.63-.82-1.63-.82-1.64-.82-1.65-.81-1.64-.82-1.65-.81-1.65-.81-1.66-.81-1.66-.81-1.66-.81-1.66-.8-1.67-.8-1.67-.8-1.67-.8-1.68-.8-1.68-.8-1.69-.79-1.68-.79" style="stroke-width:1.07;stroke:#000000;stroke-opacity:0.10;stroke-linecap:butt"/><path d="m408.35 435.49-.29-1.07-.29-1.06-.29-1.07-.3-1.07-.29-1.06-.3-1.07-.31-1.06-.3-1.07-.3-1.06-.31-1.07-.31-1.06-.31-1.07-.31-1.06-.32-1.06-.31-1.07-.32-1.06-.32-1.07-.33-1.06-.32-1.06-.33-1.06-.32-1.07-.33-1.06-.33-1.06-.34-1.06-.33-1.06-.34-1.06-.34-1.07-.34-1.06-.34-1.06-.35-1.06-.35-1.06-.35-1.06-.35-1.06-.35-1.06-.35-1.06-.36-1.06-.36-1.05-.36-1.06-.36-1.06-.36-1.06-.37-1.06-.37-1.06-.37-1.05-.37-1.06-.37-1.06-.38-1.05-.37-1.06-.38-1.06-.38-1.05-.38-1.06-.39-1.06-.39-1.05-.38-1.06-.39-1.05-.4-1.06-.39-1.05-.4-1.06-.4-1.05-.39-1.05-.41-1.06-.4-1.05-.41-1.06-.4-1.05-.41-1.05-.41-1.05-.42-1.06-.41-1.05-.42-1.05-.42-1.05-.42-1.06-.42-1.05-.42-1.05-.43-1.05-.43-1.05-.43-1.05-.43-1.05-.43-1.05-.44-1.05-.44-1.05-.44-1.05-.44-1.05-.44-1.05-.45-1.05-.44-1.05-.45-1.04-.45-1.05-.46-1.05-.45-1.05-.46-1.05-.46-1.04-.46-1.05-.46-1.05-.46-1.04-.47-1.05-.47-1.05-.47-1.04-.47-1.05-.47-1.04-.48-1.05m37.89 104.55-1.53-.88-1.53-.88-1.53-.87-1.54-.88-1.53-.88-1.53-.88-1.53-.87-1.54-.88-1.53-.88-1.53-.88-1.53-.88-1.54-.87-1.53-.88-1.53-.88-1.53-.88-1.54-.87-1.53-.88-1.53-.88-1.53-.88-1.54-.87-1.53-.88-1.53-.88-1.53-.88-1.54-.88-1.53-.87-1.53-.88-1.53-.88-1.54-.88-1.53-.87-1.53-.88-1.53-.88-1.54-.88-1.53-.87-1.53-.88-1.53-.88-1.54-.88-1.53-.88-1.53-.87-1.53-.88-1.54-.88-1.53-.88-1.53-.87-1.53-.88-1.53-.88-1.54-.88-1.53-.87-1.53-.88-1.53-.88-1.54-.88-1.53-.88-1.53-.87-1.53-.88-1.54-.88-1.53-.88-1.53-.87-1.53-.88-1.54-.88-1.53-.88-1.53-.87-1.53-.88-1.54-.88-1.53-.88-1.53-.88-1.53-.87-1.54-.88-1.53-.88-1.53-.88-1.53-.87-1.54-.88-1.53-.88-1.53-.88-1.53-.87-1.54-.88-1.53-.88-1.53-.88-1.53-.88-1.54-.87-1.53-.88-1.53-.88-1.53-.88-1.54-.87-1.53-.88-1.53-.88-1.53-.88-1.54-.87-1.53-.88-1.53-.88-1.53-.88-1.54-.88-1.53-.87-1.53-.88-1.53-.88-1.54-.88-1.53-.87-1.53-.88-1.53-.88-1.54-.88-1.53-.87-1.53-.88" style="stroke-width:1.07;stroke:#000000;stroke-opacity:0.10;stroke-linecap:butt"/><path d="m408.35 435.49-.47-1.05-.47-1.04-.48-1.05-.47-1.04-.46-1.05-.47-1.05-.46-1.04-.47-1.05-.46-1.05-.45-1.04-.46-1.05-.46-1.05-.45-1.05-.45-1.05-.45-1.04-.45-1.05-.44-1.05-.44-1.05-.44-1.05-.44-1.05-.44-1.05-.44-1.05-.43-1.05-.43-1.05-.43-1.05-.43-1.05-.43-1.05-.42-1.05-.42-1.05-.43-1.06-.41-1.05-.42-1.05-.42-1.05-.41-1.06-.41-1.05-.41-1.05-.41-1.05-.4-1.06-.41-1.05-.4-1.06-.4-1.05-.39-1.05-.4-1.06-.39-1.05-.4-1.06-.39-1.05-.39-1.06-.38-1.05-.39-1.06-.38-1.06-.38-1.05-.38-1.06-.38-1.06-.37-1.05-.37-1.06-.38-1.06-.37-1.05-.36-1.06-.37-1.06-.36-1.06-.36-1.06-.36-1.06-.36-1.05-.36-1.06-.35-1.06-.36-1.06-.35-1.06-.35-1.06-.34-1.06-.35-1.06-.34-1.06-.34-1.06-.34-1.07-.34-1.06-.33-1.06-.34-1.06-.33-1.06-.33-1.06-.33-1.07-.32-1.06-.33-1.06-.32-1.06-.32-1.07-.32-1.06-.31-1.06-.32-1.07-.31-1.06-.31-1.07-.31-1.06-.31-1.07-.3-1.06-.31-1.07-.3-1.06-.3-1.07-.29-1.06-.3-1.07-.29-1.07-.3-1.06-.29-1.07M135.61 453.29l1.22-1.06 1.22-1.05 1.23-1.06 1.22-1.06 1.22-1.06 1.22-1.05 1.23-1.06 1.22-1.06 1.22-1.06 1.22-1.05 1.23-1.06 1.22-1.06 1.22-1.06 1.22-1.05 1.23-1.06 1.22-1.06 1.22-1.06 1.22-1.05 1.23-1.06 1.22-1.06 1.22-1.06 1.22-1.05 1.23-1.06 1.22-1.06 1.22-1.06 1.22-1.05 1.23-1.06 1.22-1.06 1.22-1.06 1.22-1.05 1.23-1.06 1.22-1.06 1.22-1.06 1.22-1.05 1.23-1.06 1.22-1.06 1.22-1.06 1.22-1.05 1.23-1.06 1.22-1.06 1.22-1.06 1.22-1.05 1.23-1.06 1.22-1.06 1.22-1.06 1.22-1.05 1.23-1.06 1.22-1.06 1.22-1.06 1.22-1.05 1.23-1.06 1.22-1.06 1.22-1.06 1.22-1.05 1.23-1.06 1.22-1.06 1.22-1.06 1.22-1.05 1.23-1.06 1.22-1.06 1.22-1.06 1.22-1.05 1.23-1.06 1.22-1.06 1.22-1.06 1.22-1.05 1.23-1.06 1.22-1.06 1.22-1.06 1.22-1.05 1.23-1.06 1.22-1.06 1.22-1.06 1.22-1.05 1.23-1.06 1.22-1.06 1.22-1.06 1.22-1.05 1.23-1.06 1.22-1.06 1.22-1.06 1.22-1.05 1.23-1.06 1.22-1.06 1.22-1.06 1.22-1.05 1.23-1.06 1.22-1.06 1.22-1.06 1.22-1.05 1.23-1.06 1.22-1.06 1.22-1.06 1.23-1.05 1.22-1.06 1.22-1.06 1.22-1.06 1.23-1.05 1.22-1.06" style="stroke-width:1.07;stroke:#000000;stroke-opacity:0.10;stroke-linecap:butt"/><path d="m488.28 359.38-2.36.02-2.36.02-2.36.01-2.36.02-2.35.01-2.36.01h-4.71l-2.36.01-2.35-.01h-2.36l-2.35-.01-2.36-.01-2.35-.01-2.36-.02-2.35-.02-2.35-.02-2.35-.02-2.36-.03-2.35-.03-2.35-.03-2.35-.03-2.35-.04-2.35-.04-2.35-.04-2.35-.05-2.35-.04-2.35-.05-2.34-.06-2.35-.05-2.35-.06-2.34-.06-2.35-.06-2.35-.07-2.34-.07-2.35-.07-2.34-.07-2.35-.08-2.34-.08-2.35-.08-2.34-.09-2.34-.09-2.34-.09-2.35-.09-2.34-.09-2.34-.1-2.34-.1-2.34-.11-2.34-.1-2.34-.11-2.34-.11-2.34-.12-2.34-.11-2.34-.12-2.33-.13-2.34-.12-2.34-.13-2.33-.13-2.34-.13-2.34-.14-2.33-.14-2.34-.14-2.33-.14-2.34-.15-2.33-.15-2.33-.15-2.34-.15-2.33-.16-2.33-.16-2.33-.16-2.34-.16-2.33-.17-2.33-.17-2.33-.17-2.33-.18-2.33-.18-2.33-.18-2.33-.18-2.32-.19-2.33-.19-2.33-.19-2.33-.19-2.32-.2-2.33-.2-2.33-.2-2.32-.21-2.33-.2-2.32-.21-2.33-.22-2.32-.21-2.33-.22-2.32-.22-2.32-.23-2.32-.22-2.33-.23-2.32-.23-2.32-.24-2.32-.23-2.32-.24m231.64 10.78-1.24-.23-1.24-.22-1.24-.22-1.24-.23-1.24-.22-1.23-.23-1.24-.23-1.23-.23-1.23-.23-1.23-.23-1.23-.24-1.23-.23-1.23-.24-1.23-.24-1.22-.24-1.23-.24-1.22-.24-1.22-.25-1.23-.24-1.22-.25-1.22-.25-1.22-.24-1.21-.26-1.22-.25-1.22-.25-1.21-.26-1.21-.25-1.22-.26-1.21-.26-1.21-.26-1.21-.26-1.21-.26-1.21-.27-1.2-.26-1.21-.27-1.2-.27-1.2-.27-1.21-.27-1.2-.27-1.2-.27-1.2-.28-1.2-.27-1.19-.28-1.2-.28-1.2-.28-1.19-.28-1.19-.29-1.19-.28-1.2-.29-1.19-.28-1.18-.29-1.19-.29-1.19-.29-1.19-.3-1.18-.29-1.18-.3-1.19-.29-1.18-.3-1.18-.3-1.18-.3-1.18-.3-1.18-.31-1.17-.3-1.18-.31-1.17-.31-1.18-.3-1.17-.31-1.17-.32-1.17-.31-1.17-.31-1.17-.32-1.17-.32-1.16-.31-1.17-.32-1.16-.33-1.17-.32-1.16-.32-1.16-.33-1.16-.32-1.16-.33-1.16-.33-1.15-.33-1.16-.33-1.15-.34-1.16-.33-1.15-.34-1.15-.33-1.15-.34-1.15-.34-1.15-.35-1.15-.34-1.15-.34-1.14-.35-1.15-.34-1.14-.35-1.14-.35-1.15-.35-1.14-.36-1.14-.35m37.89 104.55-1.68-.79-1.69-.8-1.68-.79-1.67-.8-1.68-.8-1.67-.8-1.67-.8-1.66-.81-1.66-.8-1.66-.81-1.65-.81-1.66-.81-1.65-.81-1.64-.82-1.64-.82-1.64-.81-1.64-.82-1.63-.83-1.63-.82-1.63-.83-1.62-.82-1.62-.83-1.62-.83-1.61-.83-1.62-.84-1.6-.83-1.61-.84-1.6-.84-1.6-.84-1.59-.84-1.6-.85-1.59-.85-1.58-.84-1.58-.85-1.58-.85-1.58-.86-1.57-.85-1.57-.86-1.57-.86-1.57-.86-1.56-.86-1.55-.86-1.56-.87-1.55-.87-1.55-.87-1.54-.87-1.54-.87-1.54-.87-1.54-.88-1.53-.88-1.53-.88-1.53-.88-1.52-.88-1.52-.88-1.52-.89-1.51-.89-1.51-.89-1.51-.89-1.5-.89-1.5-.9-1.5-.9-1.5-.89-1.49-.91-1.49-.9-1.48-.9-1.48-.91-1.48-.9-1.48-.91-1.47-.91-1.47-.92-1.47-.91-1.46-.92-1.46-.92-1.46-.91-1.45-.93-1.45-.92-1.45-.92-1.44-.93-1.45-.93-1.43-.93-1.44-.93-1.43-.93-1.43-.94-1.43-.94-1.42-.94-1.42-.94-1.41-.94-1.42-.94-1.41-.95-1.4-.95-1.41-.94-1.4-.96-1.39-.95-1.4-.95-1.39-.96-1.39-.96-1.38-.96-1.38-.96-1.38-.96" style="stroke-width:1.07;stroke:#000000;stroke-opacity:0.10;stroke-linecap:butt"/><path d="m408.35 435.49-.66-1.02-.65-1.03-.65-1.02-.64-1.03-.64-1.03-.63-1.02-.63-1.03-.62-1.03-.62-1.03-.61-1.03-.6-1.03-.6-1.03-.59-1.03-.59-1.04-.58-1.03-.58-1.03-.57-1.04-.56-1.03-.56-1.04-.55-1.03-.55-1.04-.54-1.04-.54-1.04-.53-1.04-.52-1.04-.52-1.04-.52-1.04-.5-1.04-.5-1.04-.5-1.05-.49-1.04-.49-1.04-.48-1.05-.47-1.04-.47-1.05-.46-1.05-.46-1.04-.45-1.05-.44-1.05-.44-1.05-.43-1.05-.43-1.05-.43-1.05-.41-1.06-.41-1.05-.41-1.05-.4-1.06-.39-1.05-.39-1.06-.38-1.05-.38-1.06-.37-1.06-.37-1.05-.36-1.06-.35-1.06-.35-1.06-.34-1.06-.34-1.06-.33-1.07-.33-1.06-.32-1.06-.31-1.07-.31-1.06-.31-1.07-.29-1.06-.3-1.07-.28-1.06-.28-1.07-.28-1.07-.27-1.07-.26-1.07-.26-1.07-.25-1.07-.25-1.07-.24-1.08-.23-1.07-.23-1.07-.23-1.08-.21-1.07-.22-1.08-.2-1.07-.21-1.08-.19-1.08-.19-1.08-.18-1.08-.18-1.08-.18-1.08-.16-1.08-.16-1.08-.16-1.08-.15-1.08-.14-1.09-.14-1.08-.14-1.09-.12-1.08-.13-1.09-.11-1.08-.11-1.09-.11-1.09m-165.37-84.2-.62-1.08-.63-1.08-.62-1.08-.63-1.07-.63-1.08-.62-1.08-.63-1.08-.63-1.07-.62-1.08-.63-1.08-.62-1.08-.63-1.07-.63-1.08-.62-1.08-.63-1.08-.62-1.07-.63-1.08-.63-1.08-.62-1.08-.63-1.07-.63-1.08-.62-1.08-.63-1.08-.62-1.07-.63-1.08-.63-1.08-.62-1.07-.63-1.08-.63-1.08-.62-1.08-.63-1.07-.62-1.08-.63-1.08-.63-1.08-.62-1.07-.63-1.08-.62-1.08-.63-1.08-.63-1.07-.62-1.08-.63-1.08-.63-1.08-.62-1.07-.63-1.08-.62-1.08-.63-1.08-.63-1.07-.62-1.08-.63-1.08-.62-1.08-.63-1.07-.63-1.08-.62-1.08-.63-1.08-.63-1.07-.62-1.08-.63-1.08-.62-1.08-.63-1.07-.63-1.08-.62-1.08-.63-1.08-.63-1.07-.62-1.08-.63-1.08-.62-1.08-.63-1.07-.63-1.08-.62-1.08-.63-1.08-.62-1.07-.63-1.08-.63-1.08-.62-1.08-.63-1.07-.63-1.08-.62-1.08-.63-1.08-.62-1.07-.63-1.08-.63-1.08-.62-1.08-.63-1.07-.62-1.08-.63-1.08-.63-1.08-.62-1.07-.63-1.08-.63-1.08-.62-1.08-.63-1.07-.62-1.08-.63-1.08-.63-1.07-.62-1.08-.63-1.08-.63-1.08-.62-1.07-.63-1.08m61.99 106.67 1.75.8 1.74.81 1.74.8 1.75.81 1.73.81 1.74.8 1.74.81 1.73.81 1.73.82 1.74.81 1.73.81 1.72.82 1.73.81 1.73.82 1.72.82 1.72.81 1.72.82 1.72.82 1.72.82 1.72.83 1.71.82 1.71.82 1.71.83 1.71.82 1.71.83 1.71.83 1.71.83 1.7.83 1.7.83 1.7.83 1.7.83 1.7.83 1.7.84 1.69.83 1.69.84 1.7.84 1.69.84 1.68.83 1.69.84 1.69.85 1.68.84 1.68.84 1.69.84 1.68.85 1.67.85 1.68.84 1.67.85 1.68.85 1.67.85 1.67.85 1.67.85 1.67.85 1.66.86 1.67.85 1.66.86 1.66.85 1.66.86 1.66.86 1.66.86 1.65.86 1.65.86 1.66.86 1.65.86 1.65.87 1.64.86 1.65.87 1.64.86 1.65.87 1.64.87 1.64.87 1.64.87 1.63.87 1.64.87 1.63.88 1.64.87 1.63.88 1.63.87 1.62.88 1.63.88 1.62.88 1.63.88 1.62.88 1.62.88 1.62.88 1.61.89 1.62.88 1.61.89 1.62.88 1.61.89 1.61.89 1.6.89 1.61.89 1.61.89 1.6.89 1.6.9 1.6.89 1.6.9 1.6.89 1.59.9m37.89 104.55-1.84-.71-1.83-.71-1.83-.71-1.82-.72-1.82-.72-1.8-.72-1.81-.73-1.79-.73-1.79-.74-1.79-.73-1.78-.75-1.77-.74-1.76-.75-1.76-.75-1.75-.76-1.75-.76-1.74-.76-1.73-.76-1.73-.77-1.72-.78-1.72-.77-1.71-.78-1.7-.79-1.69-.78-1.69-.79-1.69-.8-1.67-.79-1.68-.81-1.66-.8-1.66-.81-1.65-.81-1.65-.81-1.64-.82-1.63-.82-1.63-.83-1.62-.83-1.61-.83-1.61-.84-1.6-.84-1.6-.84-1.58-.84-1.59-.85-1.57-.86-1.57-.85-1.57-.86-1.56-.87-1.55-.87-1.54-.87-1.54-.87-1.53-.88-1.53-.88-1.52-.88-1.51-.89-1.51-.89-1.5-.9-1.5-.9-1.48-.9-1.49-.9-1.47-.91-1.47-.92-1.47-.91-1.45-.92-1.45-.93-1.45-.92-1.44-.93-1.43-.94-1.42-.93-1.42-.94-1.42-.95-1.4-.94-1.4-.96-1.4-.95-1.39-.96-1.38-.96-1.37-.96-1.37-.97-1.36-.98-1.36-.97-1.35-.98-1.34-.98-1.34-.99-1.33-.99-1.33-.99-1.32-1-1.31-1-1.31-1-1.29-1.01-1.3-1.01-1.29-1.01-1.28-1.02-1.27-1.02-1.27-1.02-1.26-1.03-1.26-1.03-1.25-1.04-1.24-1.04-1.24-1.04-1.23-1.04-1.22-1.05" style="stroke-width:1.07;stroke:#000000;stroke-opacity:0.10;stroke-linecap:butt"/><path d="m408.35 435.49-.84-1-.84-1.01-.83-1-.81-1.01-.81-1-.8-1.01-.79-1.01-.78-1.01-.77-1.01-.76-1.02-.75-1.01-.75-1.01-.73-1.02-.72-1.02-.71-1.01-.71-1.02-.69-1.02-.69-1.02-.68-1.03-.66-1.02-.66-1.02-.65-1.03-.63-1.03-.63-1.02-.62-1.03-.61-1.03-.6-1.03-.59-1.04-.58-1.03-.58-1.03-.56-1.04-.55-1.04-.55-1.03-.53-1.04-.52-1.04-.52-1.04-.5-1.04-.5-1.05-.49-1.04-.48-1.05-.46-1.04-.46-1.05-.45-1.05-.44-1.05-.43-1.05-.42-1.05-.41-1.05-.4-1.06-.4-1.05-.38-1.06-.37-1.05-.37-1.06-.35-1.06-.34-1.06-.34-1.06-.33-1.07-.31-1.06-.31-1.07-.3-1.06-.29-1.07-.27-1.07-.27-1.07-.26-1.07-.25-1.07-.24-1.07-.24-1.07-.22-1.08-.21-1.07-.2-1.08-.2-1.08-.18-1.08-.18-1.08-.16-1.08-.16-1.08-.14-1.08-.14-1.09-.13-1.08-.12-1.09-.1-1.09-.1-1.09-.09-1.09-.08-1.09-.07-1.09-.06-1.09-.06-1.1-.04-1.09-.03-1.1-.02-1.1-.02-1.09v-2.2l.02-1.11.02-1.1.03-1.1.05-1.11.05-1.1.06-1.11.07-1.11.08-1.11m37.89 104.55-1.99-.62-1.99-.63-1.97-.63-1.97-.64-1.95-.64-1.95-.65-1.94-.65-1.93-.66-1.92-.66-1.91-.67-1.9-.67-1.89-.68-1.88-.68-1.87-.69-1.87-.7-1.85-.7-1.84-.7-1.84-.71-1.82-.72-1.82-.72-1.8-.72-1.8-.73-1.79-.74-1.77-.74-1.77-.75-1.76-.75-1.75-.76-1.74-.76-1.73-.77-1.72-.77-1.71-.78-1.71-.78-1.69-.79-1.68-.79-1.68-.8-1.66-.81-1.66-.81-1.64-.81-1.64-.82-1.63-.83-1.61-.83-1.61-.83-1.6-.85-1.59-.84-1.58-.85-1.57-.86-1.56-.86-1.55-.87-1.54-.87-1.54-.88-1.52-.88-1.51-.89-1.51-.89-1.49-.9-1.49-.91-1.47-.91-1.47-.91-1.46-.92-1.44-.92-1.44-.93-1.43-.94-1.42-.94-1.41-.95-1.4-.95-1.39-.95-1.38-.96-1.37-.97-1.37-.97-1.35-.98-1.34-.98-1.34-.99-1.32-.99-1.32-1-1.31-1-1.29-1.01-1.29-1.02-1.28-1.02-1.27-1.02-1.25-1.03-1.25-1.04-1.24-1.04-1.23-1.04-1.23-1.05-1.21-1.06-1.2-1.06-1.19-1.06-1.19-1.08-1.17-1.07-1.16-1.08-1.16-1.09-1.15-1.09-1.13-1.1-1.13-1.1-1.12-1.11-1.1-1.12-1.1-1.11-1.09-1.13-1.08-1.13-1.07-1.13" style="stroke-width:1.07;stroke:#000000;stroke-opacity:0.10;stroke-linecap:butt"/><path d="m408.35 435.49-1.03-.98-1.02-.98-1-.99-.99-.98-.98-.99-.97-.99-.95-.99-.94-.99-.92-1-.91-.99-.9-1-.89-1-.87-1-.86-1-.85-1-.83-1-.82-1.01-.81-1.01-.79-1.01-.78-1.01-.77-1.01-.75-1.01-.74-1.02-.73-1.01-.71-1.02-.7-1.02-.69-1.02-.67-1.02-.66-1.03-.65-1.02-.64-1.03-.62-1.03-.61-1.03-.59-1.03-.58-1.03-.57-1.04-.55-1.03-.55-1.04-.52-1.04-.52-1.04-.5-1.04-.49-1.05-.48-1.04-.46-1.05-.45-1.05-.43-1.05-.42-1.05-.41-1.05-.4-1.06-.38-1.05-.37-1.06-.36-1.06-.34-1.06-.33-1.06-.32-1.07-.3-1.06-.29-1.07-.28-1.07-.26-1.07-.25-1.07-.24-1.07-.22-1.08-.21-1.07-.2-1.08-.18-1.08-.18-1.08-.15-1.08-.15-1.08-.13-1.09-.12-1.08-.1-1.09-.09-1.09-.08-1.09-.07-1.1-.05-1.09-.04-1.1-.02-1.09-.01-1.1v-1.1l.01-1.1.03-1.11.04-1.1.06-1.11.06-1.11.08-1.11.1-1.11.1-1.11.12-1.11.14-1.12.15-1.12.16-1.12.17-1.12.19-1.12.2-1.12.21-1.13.22-1.12.24-1.13.26-1.13.26-1.13m-165.37-84.2.71 1 .69 1 .7 1 .69 1 .68 1 .69 1 .68 1.01.67 1 .67 1.01.67 1 .67 1.01.66 1 .65 1.01.66 1.01.65 1.01.64 1.01.64 1 .64 1.01.64 1.01.63 1.02.63 1.01.62 1.01.62 1.01.62 1.02.61 1.01.61 1.02.6 1.01.61 1.02.59 1.01.6 1.02.59 1.02.59 1.02.58 1.01.58 1.02.57 1.02.58 1.02.57 1.03.56 1.02.56 1.02.56 1.02.55 1.03.55 1.02.55 1.03.54 1.02.54 1.03.54 1.02.53 1.03.53 1.03.52 1.03.52 1.03.52 1.02.51 1.03.51 1.04.51 1.03.5 1.03.5 1.03.49 1.03.49 1.04.49 1.03.49 1.04.48 1.03.47 1.04.47 1.03.47 1.04.47 1.04.46 1.04.46 1.04.45 1.04.45 1.04.45 1.04.44 1.04.44 1.04.44 1.04.43 1.05.43 1.04.42 1.04.43 1.05.41 1.05.42 1.04.41 1.05.4 1.05.41 1.04.39 1.05.4 1.05.39 1.05.39 1.05.38 1.05.38 1.05.38 1.06.37 1.05.37 1.05.37 1.05.36 1.06.36 1.05.36 1.06.35 1.06.34 1.05.35 1.06.34 1.06m-51.55-101.86 1.9.71 1.89.71 1.88.72 1.88.72 1.88.72 1.87.72 1.87.73 1.86.73 1.86.74 1.85.73 1.85.74 1.84.74 1.84.75 1.84.75 1.83.75 1.83.75 1.82.76 1.81.76 1.82.76 1.8.76 1.81.77 1.79.77 1.8.77 1.79.78 1.78.78 1.78.78 1.78.79 1.77.78 1.76.8 1.77.79 1.75.79 1.76.8 1.74.81 1.75.8 1.74.81 1.73.81 1.73.81 1.73.82 1.72.82 1.71.82 1.71.83 1.71.82 1.7.83 1.7.84 1.7.83 1.68.84 1.69.84 1.68.85 1.67.85 1.67.85 1.67.85 1.66.86 1.66.86 1.65.86 1.65.86 1.64.87 1.64.87 1.63.87 1.63.88 1.63.88 1.62.88 1.61.89 1.61.88 1.61.89 1.6.9 1.6.89 1.59.9 1.59.91 1.58.9 1.58.91 1.58.91 1.57.91 1.56.92 1.56.92 1.56.92 1.55.92 1.55.93 1.54.93 1.54.93 1.53.94 1.53.94 1.52.94 1.52.95 1.52.94 1.51.95 1.5.96 1.5.95 1.5.96 1.49.97 1.49.96 1.48.97 1.48.97 1.48.97 1.47.98 1.46.98 1.46.98 1.46.98 1.45.99 1.44.99" style="stroke-width:1.07;stroke:#000000;stroke-opacity:0.10;stroke-linecap:butt"/><path d="m205.09 246.74.89.97.87.97.87.97.86.98.85.97.84.98.84.98.83.98.83.98.81.98.81.98.8.98.79.99.79.99.78.98.77.99.76.99.76.99.75.99.74 1 .74.99.72 1 .72.99.71 1 .71 1 .7 1 .69 1 .68 1.01.68 1 .66 1.01.66 1 .66 1.01.64 1.01.64 1.01.63 1.01.63 1.01.61 1.02.61 1.01.6 1.02.6 1.01.59 1.02.58 1.02.57 1.02.56 1.02.56 1.03.55 1.02.54 1.03.54 1.02.53 1.03.52 1.03.51 1.03.51 1.03.49 1.03.5 1.04.48 1.03.48 1.04.46 1.03.47 1.04.45 1.04.45 1.04.44 1.04.43 1.05.42 1.04.42 1.05.41 1.04.4 1.05.4 1.05.39 1.05.38 1.05.37 1.06.37 1.05.36 1.05.35 1.06.34 1.06.34 1.06.33 1.06.32 1.06.31 1.06.31 1.06.3 1.07.29 1.06.29 1.07.27 1.07.27 1.07.27 1.07.25 1.07.25 1.07.24 1.08.23 1.07.23 1.08.22 1.08.21 1.07.2 1.08.2 1.08.19 1.09.18 1.08.17 1.09.17 1.08.16 1.09m-51.55-101.86 2.05.61 2.03.63 2.03.62 2.02.63 2.02.64 2 .64 2 .65 1.99.65 1.98.65 1.98.67 1.97.66 1.96.67 1.95.67 1.94.68 1.94.69 1.93.69 1.92.69 1.91.7 1.91.7 1.9.71 1.89.71 1.88.72 1.88.72 1.87.73 1.86.73 1.85.74 1.85.74 1.84.74 1.83.75 1.82.76 1.82.76 1.8.76 1.8.77 1.79.78 1.79.78 1.78.78 1.77.79 1.76.79 1.75.8 1.75.8 1.74.81 1.73.81 1.72.82 1.72.82 1.71.83 1.7.83 1.69.84 1.69.84 1.68.85 1.67.85 1.66.85 1.65.86 1.65.87 1.64.87 1.63.87 1.63.88 1.61.88 1.61.89 1.61.9 1.59.89 1.59.91 1.58.9 1.57.92 1.56.91 1.56.93 1.55.92 1.54.93 1.53.94 1.53.94 1.51.95 1.51.95 1.51.95 1.49.96 1.49.97 1.48.97 1.47.97 1.47.98 1.45.98 1.45.99 1.45.99 1.43 1 1.43 1.01 1.42 1 1.41 1.02 1.4 1.01 1.4 1.02 1.39 1.03 1.38 1.03 1.37 1.04 1.37 1.04 1.35 1.04 1.35 1.06 1.35 1.05 1.33 1.06 1.33 1.06 1.32 1.07 1.31 1.08 1.31 1.08 1.29 1.08m37.89 104.55-2.14-.54-2.14-.54-2.12-.55-2.11-.55-2.1-.57-2.09-.57-2.07-.58-2.06-.58-2.05-.59-2.04-.6-2.02-.61-2.01-.61-2-.62-1.98-.62-1.98-.64-1.96-.64-1.94-.64-1.94-.66-1.92-.66-1.91-.67-1.9-.67-1.88-.68-1.87-.69-1.86-.7-1.85-.7-1.84-.71-1.82-.72-1.81-.72-1.79-.74-1.79-.73-1.77-.75-1.76-.75-1.74-.76-1.74-.77-1.72-.77-1.71-.78-1.69-.79-1.69-.79-1.67-.8-1.66-.81-1.64-.81-1.63-.82-1.63-.83-1.6-.84-1.6-.84-1.58-.85-1.57-.86-1.56-.86-1.54-.87-1.54-.88-1.52-.88-1.5-.9-1.5-.9-1.48-.9-1.47-.91-1.46-.92-1.44-.93-1.43-.93-1.42-.94-1.41-.95-1.39-.96-1.39-.96-1.36-.97-1.36-.97-1.34-.98-1.34-.99-1.31-1-1.31-1-1.29-1.01-1.29-1.02-1.26-1.03-1.26-1.03-1.24-1.03-1.23-1.05-1.22-1.05-1.21-1.06-1.19-1.07-1.18-1.07-1.17-1.08-1.15-1.09-1.15-1.09-1.13-1.1-1.11-1.11-1.11-1.12-1.09-1.12-1.08-1.13-1.07-1.13-1.05-1.15-1.04-1.15-1.03-1.15-1.02-1.17-1-1.17-1-1.18-.98-1.18-.96-1.19-.96-1.2-.94-1.21-.93-1.21-.91-1.22m151.71 86.89-1.21-.96-1.2-.96-1.18-.97-1.17-.96-1.15-.97-1.13-.97-1.12-.97-1.09-.97-1.08-.98-1.07-.98-1.05-.98-1.02-.98-1.02-.98-.99-.99-.98-.99-.96-.98-.95-1-.93-.99-.91-.99-.89-1-.88-1-.86-1-.84-1-.82-1.01-.81-1.01-.79-1.01-.78-1.01-.75-1.01-.74-1.01-.73-1.02-.7-1.02-.69-1.02-.68-1.02-.65-1.03-.64-1.02-.62-1.03-.6-1.03-.59-1.04-.57-1.03-.55-1.04-.54-1.04-.52-1.04-.5-1.04-.49-1.04-.46-1.05-.45-1.05-.44-1.05-.41-1.05-.4-1.05-.39-1.06-.36-1.06-.35-1.06-.33-1.06-.32-1.06-.3-1.07-.28-1.07-.26-1.07-.25-1.07-.23-1.07-.21-1.08-.19-1.08-.18-1.07-.16-1.09-.15-1.08-.13-1.09-.11-1.08-.09-1.09-.08-1.09-.05-1.1-.05-1.09-.02-1.1-.01-1.1.01-1.1.02-1.1.05-1.11.06-1.11.07-1.1.1-1.12.11-1.11.13-1.11.14-1.12.16-1.12.18-1.12.2-1.12.21-1.13.23-1.12.25-1.13.26-1.13.29-1.14.29-1.13.32-1.14.33-1.14.35-1.14.37-1.14.38-1.14.4-1.15.42-1.15.43-1.15.45-1.15" style="stroke-width:1.07;stroke:#000000;stroke-opacity:0.10;stroke-linecap:butt"/><path d="m329.67 244.74-.64 1.07-.65 1.07-.65 1.07-.65 1.07-.66 1.07-.65 1.06-.66 1.07-.66 1.07-.66 1.06-.66 1.07-.66 1.06-.67 1.07-.67 1.06-.67 1.07-.67 1.06-.67 1.07-.68 1.06-.68 1.06-.68 1.06-.68 1.06-.68 1.07-.69 1.06-.68 1.06-.69 1.06-.69 1.06-.7 1.06-.69 1.05-.7 1.06-.69 1.06-.7 1.06-.71 1.06-.7 1.05-.71 1.06-.7 1.05-.71 1.06-.72 1.05-.71 1.06-.71 1.05-.72 1.06-.72 1.05-.72 1.05-.72 1.05-.73 1.06-.72 1.05-.73 1.05-.73 1.05-.73 1.05-.74 1.05-.73 1.05-.74 1.05-.74 1.05-.74 1.05-.75 1.04-.74 1.05-.75 1.05-.75 1.04-.75 1.05-.75 1.05-.76 1.04-.75 1.05-.76 1.04-.76 1.04-.76 1.05-.77 1.04-.76 1.04-.77 1.05-.77 1.04-.77 1.04-.78 1.04-.77 1.04-.78 1.04-.78 1.04-.78 1.04-.78 1.04-.79 1.04-.78 1.04-.79 1.03-.79 1.04-.79 1.04-.8 1.04-.79 1.03-.8 1.04-.8 1.03-.8 1.04-.81 1.03-.8 1.04-.81 1.03-.81 1.03-.81 1.03-.81 1.04-.82 1.03-.81 1.03-.82 1.03-.82 1.03-.82 1.03-.83 1.03-.82 1.03-.83 1.03-.83 1.03m73.03-103.86.49.86.49.86.48.86.49.86.48.86.48.86.48.86.48.86.47.86.48.86.47.87.47.86.47.86.47.86.46.86.47.87.46.86.47.86.46.87.45.86.46.86.46.87.45.86.45.87.46.86.44.87.45.86.45.87.44.86.45.87.44.87.44.86.44.87.43.87.44.86.43.87.44.87.43.87.43.86.42.87.43.87.42.87.43.87.42.87.42.87.42.87.41.87.42.87.41.87.41.87.41.87.41.87.41.87.41.87.4.88.4.87.4.87.4.87.4.88.4.87.39.87.4.88.39.87.39.87.39.88.38.87.39.88.38.87.39.88.38.87.38.88.37.87.38.88.38.88.37.87.37.88.37.88.37.87.36.88.37.88.36.88.37.88.36.87.36.88.35.88.36.88.35.88.36.88.35.88.35.88.34.88.35.88.35.88.34.88.34.88.34.88.34.89.34.88.33.88m-92.78 103.75-.21-.87-.21-.87-.22-.87-.21-.87-.21-.87-.21-.87-.22-.87-.21-.87-.21-.87-.21-.87-.22-.86-.21-.87-.21-.87-.21-.87-.22-.87-.21-.87-.21-.87-.21-.87-.22-.87-.21-.87-.21-.87-.22-.87-.21-.87-.21-.87-.21-.87-.22-.87-.21-.87-.21-.87-.21-.87-.22-.87-.21-.87-.21-.87-.21-.87-.22-.87-.21-.87-.21-.87-.21-.87-.22-.86-.21-.87-.21-.87-.21-.87-.22-.87-.21-.87-.21-.87-.21-.87-.22-.87-.21-.87-.21-.87-.21-.87-.22-.87-.21-.87-.21-.87-.21-.87-.22-.87-.21-.87-.21-.87-.21-.87-.22-.87-.21-.87-.21-.87-.21-.87-.22-.87-.21-.87-.21-.87-.22-.86-.21-.87-.21-.87-.21-.87-.22-.87-.21-.87-.21-.87-.21-.87-.22-.87-.21-.87-.21-.87-.21-.87-.22-.87-.21-.87-.21-.87-.21-.87-.22-.87-.21-.87-.21-.87-.21-.87-.22-.87-.21-.87-.21-.87-.21-.87-.22-.87-.21-.87-.21-.86-.21-.87-.22-.87-.21-.87-.21-.87-.21-.87-.22-.87-.21-.87-.21-.87" style="stroke-width:1.07;stroke:#000000;stroke-opacity:0.10;stroke-linecap:butt"/><path d="m277.68 434.69.94-1.05.94-1.05.93-1.04.94-1.05.94-1.05.93-1.05.94-1.04.94-1.05.94-1.05.93-1.05.94-1.05.94-1.04.93-1.05.94-1.05.94-1.05.94-1.05.93-1.04.94-1.05.94-1.05.94-1.05.93-1.05.94-1.04.94-1.05.93-1.05.94-1.05.94-1.05.94-1.04.93-1.05.94-1.05.94-1.05.93-1.05.94-1.04.94-1.05.94-1.05.93-1.05.94-1.05.94-1.04.93-1.05.94-1.05.94-1.05.94-1.05.93-1.04.94-1.05.94-1.05.93-1.05.94-1.05.94-1.04.94-1.05.93-1.05.94-1.05.94-1.05.94-1.04.93-1.05.94-1.05.94-1.05.93-1.05.94-1.04.94-1.05.94-1.05.93-1.05.94-1.05.94-1.04.93-1.05.94-1.05.94-1.05.94-1.05.93-1.04.94-1.05.94-1.05.93-1.05.94-1.05.94-1.04.94-1.05.93-1.05.94-1.05.94-1.05.94-1.04.93-1.05.94-1.05.94-1.05.93-1.05.94-1.04.94-1.05.94-1.05.93-1.05.94-1.05.94-1.04.93-1.05.94-1.05.94-1.05.94-1.05.93-1.04.94-1.05.94-1.05.93-1.05.94-1.05.94-1.04.94-1.05.93-1.05" style="stroke-width:1.07;stroke:#000000;stroke-opacity:0.10;stroke-linecap:butt"/><path d="m408.35 428.09 6.41 11.1h-12.81zm79.93-73.37 4.03 6.98h-8.07zM205.09 240.66l5.27 9.12h-10.53zm246.3 28.22 1.92 3.32h-3.83zM329.67 240.8l3.41 5.91h-6.82zM60.23 306.55l1.91 3.32h-3.82zm-4.26 77.42 1.91 3.32h-3.83zm79.64 67.11 1.91 3.32h-3.83zm142.07-18.6 1.92 3.32h-3.83z" style="stroke-width:0.71;stroke:none;fill:#00BA38"/><circle cx="522.77" cy="524.17" r="1.42" style="stroke-width:0.71;stroke:none;fill:#F8766D"/><path d="M363.82 337.58h13.28V324.3h-13.28z" style="stroke-width:0.71;stroke:none;fill:#619CFF"/><circle cx="256.64" cy="348.6" r="6.76" style="stroke-width:0.71;stroke:none;fill:#F8766D"/><circle cx="143.1" cy="140.07" r="1.42" style="stroke-width:0.71;stroke:none;fill:#F8766D"/><path d="m403.02 440.1 4.46-3.85m86.17-81.52-4.5 3.89M199.96 251.37l4.28-3.86m241.99 28.24 4.31-3.89M335.1 240.05l-4.55 3.93M130.46 457.94l4.29-3.88m137.75-14.69 4.32-3.9m241.07 88.15 3.62.41M375.87 326.27l-4.53 3.91m-120.13 23.11 4.55-3.93m-107.78-212.6-3.89 2.64" style="stroke-width:0.53;stroke:#BFBFBF"/><path d="M358.65 459.64h64.39-.08l.34-.02.34-.06.33-.13.3-.17.27-.22.23-.26.19-.3.13-.32.09-.33.02-.35h0v-15.22h0l-.02-.35-.09-.34-.13-.32-.19-.29-.23-.26-.27-.22-.3-.17-.33-.13-.34-.07-.26-.01h-64.39l.26.01-.34-.01-.35.04-.33.1-.32.15-.28.2-.25.24-.21.27-.16.31-.11.33-.06.34-.01.18v15.22l.01-.17v.34l.06.35.11.33.16.3.21.28.25.24.28.2.32.15.33.1.35.04z" style="stroke-width:0.53;fill:#FFFFFF;fill-opacity:0.50"/><text x="390.85" y="447.85" lengthAdjust="spacingAndGlyphs" style="font-size:5.69px;font-family:&quot;Liberation Sans&quot;" text-anchor="middle" textLength="61.51">HAWTHORNE &amp; SONS</text><text x="390.85" y="456.04" lengthAdjust="spacingAndGlyphs" style="font-size:5.69px;font-family:&quot;Liberation Sans&quot;" text-anchor="middle" textLength="46.89">PROPERTIES LLC</text><path d="M472.01 354.73h67.56-.09l.35-.02.34-.07.33-.12.3-.17.27-.22.23-.26.18-.3.14-.32.08-.34.03-.34h0v-15.22h0l-.03-.35-.08-.34-.14-.32-.18-.29-.23-.26-.27-.22-.3-.17-.33-.13-.34-.07-.26-.01h-67.56l.26.01-.34-.01-.35.04-.33.1-.32.15-.28.19-.25.24-.21.28-.16.31-.11.33-.06.34-.01.18v15.22l.01-.18v.35l.06.35.11.32.16.31.21.28.25.24.28.2.32.15.33.09.35.05z" style="stroke-width:0.53;fill:#FFFFFF;fill-opacity:0.50"/><text x="505.79" y="342.93" lengthAdjust="spacingAndGlyphs" style="font-size:5.69px;font-family:&quot;Liberation Sans&quot;" text-anchor="middle" textLength="64.68">EMACHE ENTERPRISES</text><text x="505.79" y="351.13" lengthAdjust="spacingAndGlyphs" style="font-size:5.69px;font-family:&quot;Liberation Sans&quot;" text-anchor="middle" textLength="10.31">LLC</text><path d="M157.29 262.71h70.51-.09l.35-.01.34-.07.32-.13.3-.17.27-.22.23-.26.19-.29.14-.32.08-.34.03-.35h0v-7.02h0l-.03-.35-.08-.34-.14-.32-.19-.29-.23-.26-.27-.22-.3-.18-.32-.12-.34-.07-.26-.01h-70.51l.27.01-.35-.01-.35.04-.33.1-.32.14-.28.2-.25.24-.21.28-.16.31-.11.33-.06.34-.01.18v7.02l.01-.17v.35l.06.34.11.33.16.31.21.27.25.25.28.19.32.15.33.1.35.04z" style="stroke-width:0.53;fill:#FFFFFF;fill-opacity:0.50"/><text x="192.55" y="259.11" lengthAdjust="spacingAndGlyphs" style="font-size:5.69px;font-family:&quot;Liberation Sans&quot;" text-anchor="middle" textLength="67.62">PHASES UNLIMITED LLC</text><path d="M403.25 287.1h71.2-.09l.35-.02.34-.07.32-.12.3-.17.27-.22.23-.26.19-.3.14-.32.08-.34.03-.34h0v-7.03h0l-.03-.35-.08-.33-.14-.32-.19-.3-.23-.26-.27-.22-.3-.17-.32-.12-.34-.07-.26-.02h-71.2l.26.02-.35-.02-.35.04-.33.1-.31.15-.29.2-.25.24-.21.28-.16.3-.11.33-.06.35v7.2-.18.35l.06.34.11.33.16.31.21.28.25.24.29.2.31.15.33.09.35.05z" style="stroke-width:0.53;fill:#FFFFFF;fill-opacity:0.50"/><text x="438.85" y="283.5" lengthAdjust="spacingAndGlyphs" style="font-size:5.69px;font-family:&quot;Liberation Sans&quot;" text-anchor="middle" textLength="68.32">SHANE PROPERTIES LLC</text><path d="M316.65 240.05h61.17l-.09-.01.35-.01.34-.07.32-.12.3-.18.27-.22.23-.26.19-.29.13-.32.09-.34.03-.34h0v-15.23h0l-.03-.34-.09-.34-.13-.32-.19-.29-.23-.26-.27-.22-.3-.18-.32-.12-.34-.07-.26-.02h-61.17l.26.02-.35-.01-.34.04-.33.09-.32.15-.28.2-.26.24-.2.28-.17.31-.11.33-.05.34-.01.17v15.23l.01-.18v.35l.05.34.11.33.17.31.2.28.26.24.28.2.32.15.33.09.34.04z" style="stroke-width:0.53;fill:#FFFFFF;fill-opacity:0.50"/><text x="347.23" y="228.25" lengthAdjust="spacingAndGlyphs" style="font-size:5.69px;font-family:&quot;Liberation Sans&quot;" text-anchor="middle" textLength="37.51">HAWTHORNE</text><text x="347.23" y="236.45" lengthAdjust="spacingAndGlyphs" style="font-size:5.69px;font-family:&quot;Liberation Sans&quot;" text-anchor="middle" textLength="58.28">DEVELOPMENTS LLC</text><path d="M67.14 314.37h64.99-.09l.35-.01.34-.07.32-.13.31-.17.26-.22.23-.26.19-.29.14-.32.08-.34.03-.35h0v-7.02h0l-.03-.35-.08-.34-.14-.32-.19-.29-.23-.26-.26-.22-.31-.18-.32-.12-.34-.07-.26-.01H67.14l.26.01-.35-.01-.34.04-.34.1-.31.15-.29.19-.25.24-.2.28-.17.31-.11.33-.05.34-.01.18v7.02l.01-.17v.35l.05.34.11.33.17.31.2.28.25.24.29.19.31.15.34.1.34.04z" style="stroke-width:0.53;fill:#FFFFFF;fill-opacity:0.50"/><text x="99.63" y="310.77" lengthAdjust="spacingAndGlyphs" style="font-size:5.69px;font-family:&quot;Liberation Sans&quot;" text-anchor="middle" textLength="62.11">TIFFANY HAWTHORNE</text><path d="M62.86 391.38h73.1-.09l.35-.01.34-.07.33-.12.3-.18.27-.22.23-.26.18-.29.14-.32.08-.34.03-.35h0v-7.02h0l-.03-.35-.08-.34-.14-.32-.18-.29-.23-.26-.27-.22-.3-.17-.33-.13-.34-.07-.26-.01h-73.1l.26.01-.35-.01-.34.04-.34.1-.31.15-.29.19-.25.24-.21.28-.16.31-.11.33-.05.34-.01.18v7.02l.01-.17v.35l.05.34.11.33.16.31.21.28.25.24.29.19.31.15.34.1.34.04z" style="stroke-width:0.53;fill:#FFFFFF;fill-opacity:0.50"/><text x="99.41" y="387.78" lengthAdjust="spacingAndGlyphs" style="font-size:5.69px;font-family:&quot;Liberation Sans&quot;" text-anchor="middle" textLength="70.22">MICHAEL S HAWTHORNE</text><path d="M99.59 469.29h46.98-.09l.35-.02.34-.07.32-.12.3-.18.27-.22.23-.26.19-.29.13-.32.09-.34.03-.34h0v-7.03h0l-.03-.35-.09-.33-.13-.32-.19-.3-.23-.26-.27-.22-.3-.17-.32-.12-.34-.07-.26-.02H99.59l.26.02-.34-.02-.35.04-.33.1-.32.15-.28.2-.25.24-.21.28-.16.3-.11.33-.06.35-.01.17v7.03l.01-.18v.35l.06.34.11.33.16.31.21.28.25.24.28.2.32.15.33.09.35.05z" style="stroke-width:0.53;fill:#FFFFFF;fill-opacity:0.50"/><text x="123.08" y="465.69" lengthAdjust="spacingAndGlyphs" style="font-size:5.69px;font-family:&quot;Liberation Sans&quot;" text-anchor="middle" textLength="44.09">TIFFANY GREER</text><path d="M239.01 450.72h52.26-.09l.35-.02.34-.06.32-.13.3-.17.27-.22.23-.26.19-.3.14-.32.08-.33.03-.35h0v-7.03h0l-.03-.34-.08-.34-.14-.32-.19-.29-.23-.26-.27-.22-.3-.18-.32-.12-.34-.07-.26-.02h-52.26l.26.02-.35-.02-.34.05-.34.09-.31.15-.29.2-.25.24-.21.28-.16.31-.11.33-.05.34-.01.17v7.03l.01-.17v.34l.05.35.11.33.16.3.21.28.25.24.29.2.31.15.34.1.34.04z" style="stroke-width:0.53;fill:#FFFFFF;fill-opacity:0.50"/><text x="265.14" y="447.12" lengthAdjust="spacingAndGlyphs" style="font-size:5.69px;font-family:&quot;Liberation Sans&quot;" text-anchor="middle" textLength="49.38">LYDIA SHANE LLC</text><path d="M448.51 533.39h67.22-.09l.35-.02.34-.07.33-.12.3-.17.27-.22.23-.26.18-.3.14-.32.08-.33.03-.35h0v-15.22h0l-.03-.35-.08-.34-.14-.32-.18-.29-.23-.26-.27-.22-.3-.17-.33-.13-.34-.07-.26-.01h-67.22l.26.01-.34-.01-.35.04-.33.1-.32.15-.28.19-.25.25-.21.27-.16.31-.12.33-.05.34-.01.18v15.22l.01-.17v.34l.05.35.12.33.16.3.21.28.25.24.28.2.32.15.33.1.35.04z" style="stroke-width:0.53;fill:#FFFFFF;fill-opacity:0.50"/><text x="482.12" y="521.59" lengthAdjust="spacingAndGlyphs" style="font-size:5.69px;font-family:&quot;Liberation Sans&quot;" text-anchor="middle" textLength="47.49">6681 SIDNEY PL,</text><text x="482.12" y="529.79" lengthAdjust="spacingAndGlyphs" style="font-size:5.69px;font-family:&quot;Liberation Sans&quot;" text-anchor="middle" textLength="64.34">MILWAUKEE, WI 53209</text><path d="M354.41 326.27h67.22l-.09-.01.35-.01.34-.07.32-.12.3-.18.27-.22.23-.26.19-.29.14-.32.08-.34.03-.34h0v-15.23h0l-.03-.34-.08-.34-.14-.32-.19-.29-.23-.26-.27-.22-.3-.18-.32-.12-.34-.07-.26-.02h-67.22l.26.02-.35-.01-.34.04-.34.09-.31.15-.29.2-.25.24-.21.28-.16.31-.11.33-.06.34v15.4-.18.35l.06.34.11.33.16.31.21.28.25.24.29.2.31.15.34.09.34.04z" style="stroke-width:0.53;fill:#FFFFFF;fill-opacity:0.50"/><text x="388.02" y="314.47" lengthAdjust="spacingAndGlyphs" style="font-size:5.69px;font-family:&quot;Liberation Sans&quot;" text-anchor="middle" textLength="53.55">6681 N SIDNEY PL,</text><text x="388.02" y="322.67" lengthAdjust="spacingAndGlyphs" style="font-size:5.69px;font-family:&quot;Liberation Sans&quot;" text-anchor="middle" textLength="64.34">MILWAUKEE, WI 53209</text><path d="M205.47 372.83h67.22-.09l.35-.01.34-.07.33-.13.3-.17.27-.22.23-.26.18-.29.14-.32.08-.34.03-.35h0v-15.22h0l-.03-.35-.08-.33-.14-.32-.18-.3-.23-.26-.27-.22-.3-.17-.33-.12-.34-.07-.26-.02h-67.22l.26.02-.35-.02-.34.05-.34.09-.31.15-.29.2-.25.24-.21.28-.16.3-.11.33-.05.35-.01.17v15.22l.01-.17v.35l.05.34.11.33.16.31.21.28.25.24.29.19.31.15.34.1.34.04z" style="stroke-width:0.53;fill:#FFFFFF;fill-opacity:0.50"/><text x="239.08" y="361.04" lengthAdjust="spacingAndGlyphs" style="font-size:5.69px;font-family:&quot;Liberation Sans&quot;" text-anchor="middle" textLength="59.9">2207 KENBOERN DR,</text><text x="239.08" y="369.23" lengthAdjust="spacingAndGlyphs" style="font-size:5.69px;font-family:&quot;Liberation Sans&quot;" text-anchor="middle" textLength="64.34">MILWAUKEE, WI 53209</text><path d="M150.14 144h67.22-.08l.34-.01.34-.07.33-.12.3-.18.27-.22.23-.26.19-.29.13-.32.09-.34.02-.35h0v-15.22h0l-.02-.34-.09-.34-.13-.32-.19-.29-.23-.27-.27-.21-.3-.18-.33-.12-.34-.07-.26-.02h-67.22l.27.02-.35-.02-.35.05-.33.09-.32.15-.28.2-.25.24-.21.28-.16.31-.11.33-.06.34-.01.17v15.22l.01-.17v.35l.06.34.11.33.16.31.21.28.25.24.28.19.32.15.33.1.35.04z" style="stroke-width:0.53;fill:#FFFFFF;fill-opacity:0.50"/><text x="183.75" y="132.21" lengthAdjust="spacingAndGlyphs" style="font-size:5.69px;font-family:&quot;Liberation Sans&quot;" text-anchor="middle" textLength="61.26">2207 GLENDALE AVE,</text><text x="183.75" y="140.4" lengthAdjust="spacingAndGlyphs" style="font-size:5.69px;font-family:&quot;Liberation Sans&quot;" text-anchor="middle" textLength="64.34">MILWAUKEE, WI 53211</text></g><g clip-path="url(#cpMC4wMHw1NzYuMDB8MC4wMHw1NzYuMDA=)"><circle cx="194.24" cy="95.78" r="1.95" style="stroke-width:0.71;stroke:none;fill:#F8766D"/><path d="m270.59 92.74 2.63 4.56h-5.26z" style="stroke-width:0.71;stroke:none;fill:#00BA38"/><path d="M336.57 97.74h3.91v-3.91h-3.91z" style="stroke-width:0.71;stroke:none;fill:#619CFF"/><text x="208.36" y="98.81" lengthAdjust="spacingAndGlyphs" style="font-size:8.80px;font-family:&quot;Liberation Sans Narrow&quot;" textLength="48.12">mprop address</text><text x="284.71" y="98.81" lengthAdjust="spacingAndGlyphs" style="font-size:8.80px;font-family:&quot;Liberation Sans Narrow&quot;" textLength="39.69">owner name</text><text x="352.64" y="98.81" lengthAdjust="spacingAndGlyphs" style="font-size:8.80px;font-family:&quot;Liberation Sans Narrow&quot;" textLength="40.5">wdfi address</text><text x="32.63" y="64.23" lengthAdjust="spacingAndGlyphs" style="font-size:12.00px;font-family:&quot;Liberation Sans Narrow&quot;" textLength="252.23">includes 26 parcels, 37 units, and 9 distinct owner names.</text><text x="32.63" y="42.27" lengthAdjust="spacingAndGlyphs" style="font-size:18.00px;font-weight:bold;font-family:&quot;Liberation Sans Narrow&quot;" textLength="363.25">HAWTHORNE &amp; SONS PROPERTIES LLC etc Group</text></g></svg>