<svg xmlns="http://www.w3.org/2000/svg" width="768" height="768" viewBox="0 0 576 576"><g class="svglite"><defs><style><![CDATA[.svglite line,.svglite polyline,.svglite polygon,.svglite path,.svglite circle{fill:none;stroke:#000000;stroke-linecap:round;stroke-linejoin:round;stroke-miterlimit:10.00}.svglite text{white-space:pre}.svglite g.glyphgroup path{fill:inherit;stroke:none}]]></style></defs><rect width="100%" height="100%" style="stroke-linecap:round;stroke-linejoin:round;stroke-miterlimit:10.00;stroke:none;fill:#FFFFFF"/><defs><clipPath id="cpMC4wMHw1NzYuMDB8MC4wMHw1NzYuMDA="><path d="M0 0h576v576H0z"/></clipPath></defs><g clip-path="url(#cpMC4wMHw1NzYuMDB8MC4wMHw1NzYuMDA=)"><path d="M0 0h576v576H0z" style="stroke-width:1.07;stroke:none;fill:#FFFFFF"/></g><defs><clipPath id="cpMjkuODl8NTQ2LjExfDEyMi4xNHw1NDYuMTE="><path d="M29.89 122.14h516.22v423.97H29.89z"/></clipPath></defs><g clip-path="url(#cpMjkuODl8NTQ2LjExfDEyMi4xNHw1NDYuMTE=)"><path d="m187.9 442.26.66-.68.65-.68.66-.68.65-.68.66-.68.65-.67.66-.68.66-.68.65-.68.66-.68.65-.67.66-.68.65-.68.66-.68.65-.68.66-.68.65-.67.66-.68.66-.68.65-.68.66-.68.65-.67.66-.68.65-.68.66-.68.65-.68.66-.67.65-.68.66-.68.66-.68.65-.68.66-.68.65-.67.66-.68.65-.68.66-.68.65-.68.66-.67.65-.68.66-.68.65-.68.66-.68.66-.68.65-.67.66-.68.65-.68.66-.68.65-.68.66-.67.65-.68.66-.68.65-.68.66-.68.66-.67.65-.68.66-.68.65-.68.66-.68.65-.68.66-.67.65-.68.66-.68.65-.68.66-.68.66-.67.65-.68.66-.68.65-.68.66-.68.65-.68.66-.67.65-.68.66-.68.65-.68.66-.68.65-.67.66-.68.66-.68.65-.68.66-.68.65-.67.66-.68.65-.68.66-.68.65-.68.66-.68.65-.67.66-.68.66-.68.65-.68.66-.68.65-.67.66-.68.65-.68.66-.68.65-.68.66-.68.65-.67.66-.68M367.42 150.5l-.3.87-.29.86-.3.87-.29.87-.3.86-.29.87-.3.87-.29.86-.29.87-.3.86-.29.87-.3.87-.29.86-.3.87-.29.86-.3.87-.29.87-.3.86-.29.87-.3.86-.29.87-.3.87-.29.86-.3.87-.29.87-.3.86-.29.87-.3.86-.29.87-.29.87-.3.86-.29.87-.3.86-.29.87-.3.87-.29.86-.3.87-.29.87-.3.86-.29.87-.3.86-.29.87-.3.87-.29.86-.3.87-.29.86-.3.87-.29.87-.3.86-.29.87-.29.86-.3.87-.29.87-.3.86-.29.87-.3.87-.29.86-.3.87-.29.86-.3.87-.29.87-.3.86-.29.87-.3.86-.29.87-.3.87-.29.86-.3.87-.29.86-.3.87-.29.87-.29.86-.3.87-.29.87-.3.86-.29.87-.3.86-.29.87-.3.87-.29.86-.3.87-.29.86-.3.87-.29.87-.3.86-.29.87-.3.86-.29.87-.3.87-.29.86-.3.87-.29.87-.29.86-.3.87-.29.86-.3.87-.29.87-.3.86-.29.87m-92.84 43.32-.71-.9-.72-.88-.72-.88-.72-.87-.74-.86-.73-.85-.74-.85-.75-.83-.75-.83-.76-.82-.76-.81-.77-.81-.77-.79-.77-.79-.78-.78-.79-.77-.79-.77-.8-.75-.8-.75-.8-.74-.81-.73-.82-.73-.82-.71-.83-.71-.83-.7-.83-.69-.84-.68-.85-.68-.85-.67-.86-.66-.86-.65-.86-.64-.87-.63-.88-.63-.88-.62-.88-.61-.89-.6-.9-.6-.9-.58-.91-.58-.91-.57-.91-.56-.92-.56-.93-.55-.93-.53-.93-.53-.94-.52-.95-.52-.95-.5-.95-.5-.96-.49-.97-.48-.97-.48-.97-.46-.98-.46-.98-.45-.99-.44-1-.43-1-.43-1-.41-1.01-.41-1.02-.4-1.02-.4-1.02-.38-1.03-.38-1.03-.37-1.04-.36-1.05-.35-1.05-.34-1.05-.34-1.06-.33-1.06-.32-1.07-.31-1.08-.31-1.08-.29-1.08-.29-1.09-.28-1.09-.27-1.1-.26-1.11-.26-1.11-.25-1.11-.24-1.12-.23-1.12-.22-1.13-.22-1.13-.2-1.14-.2-1.15-.19-1.15-.19-1.15-.17-1.16-.17-1.16-.16-1.17-.15-1.17-.14-1.18-.13-1.18-.13-1.19-.12-1.2-.11-1.19-.1m283.07 13.05-.96-.07-.97-.07-.97-.07-.96-.07-.97-.08-.97-.07-.96-.07-.97-.07-.97-.07-.96-.07-.97-.08-.97-.07-.96-.07-.97-.07-.97-.07-.96-.07-.97-.08-.97-.07-.96-.07-.97-.07-.97-.07-.96-.08-.97-.07-.97-.07-.96-.07-.97-.07-.97-.07-.96-.08-.97-.07-.97-.07-.96-.07-.97-.07-.97-.07-.96-.08-.97-.07-.97-.07-.96-.07-.97-.07-.97-.08-.97-.07-.96-.07-.97-.07-.97-.07-.96-.07-.97-.08-.97-.07-.96-.07-.97-.07-.97-.07-.96-.07-.97-.08-.97-.07-.96-.07-.97-.07-.97-.07-.96-.08-.97-.07-.97-.07-.96-.07-.97-.07-.97-.07-.96-.08-.97-.07-.97-.07-.96-.07-.97-.07-.97-.08-.96-.07-.97-.07-.97-.07-.96-.07-.97-.07-.97-.08-.96-.07-.97-.07-.97-.07-.96-.07-.97-.07-.97-.08-.97-.07-.96-.07-.97-.07-.97-.07-.96-.08-.97-.07-.97-.07-.96-.07-.97-.07-.97-.07-.96-.08-.97-.07-.97-.07-.96-.07-.97-.07-.97-.07-.96-.08-.97-.07-.97-.07-.96-.07m95.7 7.1.9-.19.9-.19.89-.2.9-.19.89-.19.9-.19.9-.2.89-.19.9-.19.89-.2.9-.19.9-.19.89-.2.9-.19.89-.19.9-.2.9-.19.89-.19.9-.19.89-.2.9-.19.9-.19.89-.2.9-.19.89-.19.9-.2.9-.19.89-.19.9-.2.89-.19.9-.19.9-.19.89-.2.9-.19.89-.19.9-.2.9-.19.89-.19.9-.2.89-.19.9-.19.9-.2.89-.19.9-.19.89-.19.9-.2.9-.19.89-.19.9-.2.89-.19.9-.19.9-.2.89-.19.9-.19.89-.2.9-.19.9-.19.89-.19.9-.2.89-.19.9-.19.9-.2.89-.19.9-.19.89-.2.9-.19.9-.19.89-.2.9-.19.89-.19.9-.19.9-.2.89-.19.9-.19.89-.2.9-.19.9-.19.89-.2.9-.19.89-.19.9-.2.9-.19.89-.19.9-.19.89-.2.9-.19.9-.19.89-.2.9-.19.89-.19.9-.2.9-.19.89-.19.9-.19.89-.2.9-.19.9-.19.89-.2.9-.19" style="stroke-width:1.07;stroke:#000000;stroke-opacity:0.10;stroke-linecap:butt"/><path d="m245.4 279.57-.76-.82-.76-.8-.77-.81-.77-.79-.78-.79-.78-.78-.78-.78-.79-.76-.79-.77-.8-.75-.8-.75-.8-.75-.81-.73-.81-.73-.82-.73-.82-.71-.82-.71-.83-.71-.83-.7-.84-.69-.84-.68-.84-.68-.85-.67-.85-.67-.86-.66-.86-.65-.86-.65-.87-.64-.87-.63-.87-.63-.88-.62-.89-.61-.88-.61-.9-.6-.89-.59-.9-.59-.9-.58-.91-.58-.91-.57-.92-.56-.92-.55-.92-.55-.93-.55-.93-.53-.93-.53-.94-.53-.94-.51-.95-.51-.95-.51-.96-.5-.96-.49-.96-.48-.97-.48-.97-.47-.97-.47-.98-.46-.98-.45-.99-.44-.99-.44-.99-.44-1-.42-1.01-.42-1-.42-1.01-.4-1.02-.41-1.02-.39-1.02-.39-1.02-.38-1.04-.37-1.03-.37-1.04-.36-1.04-.36-1.05-.35-1.05-.34-1.05-.34-1.06-.33-1.06-.32-1.07-.32-1.07-.31-1.07-.3-1.08-.3-1.08-.29-1.09-.29-1.09-.27-1.09-.28-1.1-.26-1.1-.26-1.11-.25-1.11-.25-1.11-.24-1.12-.23-1.12-.23-1.13-.22-1.13-.21-1.13-.21-1.14-.2-1.14-.19-1.14-.19-1.15-.18" style="stroke-width:1.07;stroke:#000000;stroke-opacity:0.10;stroke-linecap:butt"/><path d="m245.4 279.57-.81-.74-.81-.73-.81-.72-.82-.72-.82-.72-.83-.71-.82-.71-.83-.7-.84-.69-.83-.69-.84-.69-.84-.68-.85-.68-.84-.67-.86-.67-.85-.66-.86-.66-.85-.65-.87-.65-.86-.64-.87-.64-.87-.63-.88-.63-.87-.62-.89-.62-.88-.62-.88-.61-.89-.6-.9-.6-.89-.59-.9-.59-.9-.59-.91-.58-.9-.57-.91-.57-.92-.57-.91-.56-.92-.56-.92-.55-.93-.54-.93-.54-.93-.54-.93-.53-.94-.53-.94-.52-.94-.52-.95-.51-.95-.51-.95-.5-.95-.5-.96-.49-.96-.49-.97-.48-.96-.48-.97-.47-.98-.47-.97-.47-.98-.45-.98-.46-.99-.45-.98-.44-1-.44-.99-.44-1-.43-.99-.42-1.01-.42-1-.42-1.01-.41-1.01-.4-1.02-.4-1.02-.4-1.02-.39-1.02-.39-1.03-.38-1.02-.38-1.04-.37-1.03-.36-1.04-.37-1.04-.35-1.05-.36-1.04-.34-1.05-.35-1.06-.33-1.05-.34-1.06-.33-1.06-.32-1.07-.32-1.07-.31-1.07-.31-1.07-.3-1.08-.3-1.08-.3-1.08-.29-1.09-.28-1.09-.28-1.09-.28-1.1-.27-1.09-.26-1.1-.26m94.53 49.27.94-.44.94-.44.93-.44.94-.43.94-.44.94-.44.94-.44.93-.43.94-.44.94-.44.94-.44.93-.43.94-.44.94-.44.94-.44.94-.43.93-.44.94-.44.94-.44.94-.43.93-.44.94-.44.94-.44.94-.43.93-.44.94-.44.94-.44.94-.43.94-.44.93-.44.94-.44.94-.44.94-.43.93-.44.94-.44.94-.44.94-.43.94-.44.93-.44.94-.44.94-.43.94-.44.93-.44.94-.44.94-.43.94-.44.93-.44.94-.44.94-.43.94-.44.94-.44.93-.44.94-.43.94-.44.94-.44.93-.44.94-.43.94-.44.94-.44.94-.44.93-.43.94-.44.94-.44.94-.44.93-.43.94-.44.94-.44.94-.44.93-.43.94-.44.94-.44.94-.44.94-.44.93-.43.94-.44.94-.44.94-.44.93-.43.94-.44.94-.44.94-.44.94-.43.93-.44.94-.44.94-.44.94-.43.93-.44.94-.44.94-.44.94-.43.93-.44.94-.44.94-.44.94-.43.94-.44.93-.44.94-.44.94-.43.94-.44" style="stroke-width:1.07;stroke:#000000;stroke-opacity:0.10;stroke-linecap:butt"/><path d="m245.4 279.57-.86-.66-.86-.65-.86-.65-.86-.65-.87-.64-.86-.64-.87-.64-.87-.63-.88-.63-.87-.63-.88-.62-.88-.62-.88-.62-.89-.61-.88-.61-.89-.61-.89-.6-.89-.6-.89-.6-.9-.6-.89-.59-.9-.59-.91-.58-.9-.58-.9-.58-.91-.58-.91-.57-.91-.57-.91-.56-.92-.56-.92-.56-.92-.56-.92-.55-.92-.55-.93-.55-.92-.54-.93-.54-.93-.54-.94-.53-.93-.53-.94-.53-.94-.52-.94-.52-.94-.52-.95-.51-.94-.51-.95-.51-.95-.5-.96-.5-.95-.5-.96-.5-.96-.49-.96-.48-.96-.49-.96-.48-.97-.48-.97-.47-.97-.48-.97-.46-.98-.47-.98-.46-.97-.46-.98-.46-.99-.45-.98-.45-.99-.44-.99-.45-.99-.44-.99-.43-1-.44-.99-.43-1-.42-1-.43-1-.42-1.01-.41-1.01-.42-1-.41-1.01-.4-1.02-.41-1.01-.4-1.02-.4-1.02-.39-1.02-.39-1.02-.39-1.02-.39-1.03-.38-1.03-.37-1.03-.38-1.03-.37-1.04-.37-1.03-.37-1.04-.36-1.04-.36-1.04-.35-1.05-.35-1.04-.35-1.05-.35-1.05-.34-1.05-.34" style="stroke-width:1.07;stroke:#000000;stroke-opacity:0.10;stroke-linecap:butt"/><path d="m245.4 279.57-.9-.58-.91-.58-.91-.57-.91-.57-.91-.57-.91-.57-.91-.57-.92-.56-.91-.57-.92-.56-.91-.56-.92-.56-.92-.56-.92-.55-.92-.55-.92-.56-.92-.55-.92-.55-.93-.55-.92-.54-.93-.55-.93-.54-.92-.54-.93-.54-.93-.54-.93-.53-.94-.54-.93-.53-.93-.53-.94-.53-.93-.53-.94-.53-.94-.52-.94-.53-.94-.52-.94-.52-.94-.52-.94-.52-.95-.51-.94-.51-.95-.52-.95-.51-.94-.51-.95-.5-.95-.51-.95-.5-.96-.51-.95-.5-.95-.5-.96-.49-.95-.5-.96-.49-.96-.5-.96-.49-.96-.49-.96-.49-.96-.48-.96-.49-.97-.48-.96-.48-.97-.48-.96-.48-.97-.48-.97-.47-.97-.47-.97-.48-.97-.47-.98-.47-.97-.46-.97-.47-.98-.46-.98-.46-.97-.46-.98-.46-.98-.46-.98-.46-.98-.45-.99-.45-.98-.45-.99-.45-.98-.45-.99-.45-.99-.44-.98-.44-.99-.44-.99-.44-1-.44-.99-.44-.99-.43-1-.44-.99-.43-1-.43-1-.43-1-.42-1-.43-1-.42-1-.42-1-.42-1-.42" style="stroke-width:1.07;stroke:#000000;stroke-opacity:0.10;stroke-linecap:butt"/><path d="m245.4 279.57-.95-.5-.96-.5-.95-.5-.96-.49-.95-.5-.96-.5-.95-.5-.96-.49-.95-.5-.96-.5-.95-.5-.96-.5-.95-.49-.96-.5-.95-.5-.96-.5-.95-.49-.96-.5-.95-.5-.96-.5-.95-.49-.96-.5-.95-.5-.96-.5-.95-.49-.96-.5-.95-.5-.96-.5-.95-.5-.96-.49-.95-.5-.96-.5-.95-.5-.96-.49-.95-.5-.95-.5-.96-.5-.95-.49-.96-.5-.95-.5-.96-.5-.95-.5-.96-.49-.95-.5-.96-.5-.95-.5-.96-.49-.95-.5-.96-.5-.95-.5-.96-.49-.95-.5-.96-.5-.95-.5-.96-.49-.95-.5-.96-.5-.95-.5-.96-.5-.95-.49-.96-.5-.95-.5-.96-.5-.95-.49-.96-.5-.95-.5-.96-.5-.95-.49-.96-.5-.95-.5-.96-.5-.95-.49-.96-.5-.95-.5-.96-.5-.95-.5-.96-.49-.95-.5-.96-.5-.95-.5-.96-.49-.95-.5-.96-.5-.95-.5-.96-.49-.95-.5-.95-.5-.96-.5-.95-.5-.96-.49-.95-.5-.96-.5-.95-.5-.96-.49-.95-.5-.96-.5-.95-.5-.96-.49-.95-.5" style="stroke-width:1.07;stroke:#000000;stroke-opacity:0.10;stroke-linecap:butt"/><path d="m245.4 279.57-1-.42-1-.42-1.01-.42-1-.43-1-.42-.99-.43-1-.43-1-.43-.99-.43-1-.43-.99-.44-1-.43-.99-.44-.99-.44-.99-.44-.99-.44-.98-.45-.99-.44-.99-.45-.98-.45-.98-.45-.99-.45-.98-.46-.98-.45-.98-.46-.98-.46-.98-.46-.97-.46-.98-.47-.97-.46-.98-.47-.97-.47-.97-.47-.97-.47-.97-.47-.97-.48-.97-.48-.97-.47-.96-.48-.97-.49-.96-.48-.96-.48-.96-.49-.97-.49-.96-.49-.95-.49-.96-.49-.96-.5-.96-.49-.95-.5-.95-.5-.96-.5-.95-.5-.95-.51-.95-.5-.95-.51-.95-.51-.94-.51-.95-.51-.94-.51-.95-.52-.94-.52-.94-.52-.94-.52-.94-.52-.94-.52-.94-.53-.94-.52-.93-.53-.94-.53-.93-.53-.94-.54-.93-.53-.93-.54-.93-.54-.93-.53-.93-.55-.92-.54-.93-.54-.93-.55-.92-.55-.92-.55-.92-.55-.93-.55-.92-.55-.92-.56-.91-.56-.92-.56-.92-.56-.91-.56-.92-.56-.91-.57-.91-.57-.91-.56-.91-.57-.91-.58-.91-.57-.91-.58-.9-.57m39.56-78.19-.4.79-.4.79-.4.79-.4.79-.4.79-.4.79-.4.79-.4.79-.39.79-.4.79-.4.79-.4.79-.4.79-.4.79-.4.79-.4.79-.4.79-.4.79-.4.79-.4.79-.4.79-.4.79-.4.79-.4.79-.4.79-.4.79-.4.79-.4.79-.4.79-.4.79-.4.79-.4.79-.4.79-.4.79-.4.78-.4.79-.4.79-.39.79-.4.79-.4.79-.4.79-.4.79-.4.79-.4.79-.4.79-.4.79-.4.79-.4.79-.4.79-.4.79-.4.79-.4.79-.4.79-.4.79-.4.79-.4.79-.4.79-.4.79-.4.79-.4.79-.4.79-.4.79-.4.79-.4.79-.4.79-.4.79-.39.79-.4.79-.4.79-.4.79-.4.79-.4.79-.4.78-.4.79-.4.79-.4.79-.4.79-.4.79-.4.79-.4.79-.4.79-.4.79-.4.79-.4.79-.4.79-.4.79-.4.79-.4.79-.4.79-.4.79-.4.79-.4.79-.4.79-.4.79-.4.79-.39.79-.4.79-.4.79-.4.79" style="stroke-width:1.07;stroke:#000000;stroke-opacity:0.10;stroke-linecap:butt"/><path d="m245.4 279.57-1.05-.34-1.05-.35-1.05-.34-1.05-.35-1.04-.35-1.04-.36-1.04-.36-1.04-.36-1.04-.36-1.03-.37-1.03-.38-1.03-.37-1.03-.38-1.03-.38-1.02-.38-1.03-.39-1.02-.39-1.01-.4-1.02-.4-1.02-.4-1.01-.4-1.01-.41-1.01-.41-1-.41-1.01-.42-1-.42-1-.42-1-.43-1-.43-.99-.43-.99-.44-.99-.44-.99-.44-.99-.45-.98-.45-.99-.45-.98-.45-.98-.46-.97-.47-.98-.46-.97-.47-.97-.47-.97-.48-.97-.47-.96-.49-.97-.48-.96-.49-.95-.49-.96-.49-.96-.5-.95-.5-.95-.51-.95-.5-.95-.51-.94-.52-.94-.52-.95-.52-.93-.52-.94-.53-.94-.53-.93-.53-.93-.54-.93-.54-.93-.54-.92-.54-.92-.55-.93-.56-.92-.55-.91-.56-.92-.56-.91-.57-.91-.57-.91-.57-.91-.57-.9-.58-.91-.58-.9-.59-.9-.59-.89-.59-.9-.59-.89-.6-.89-.6-.89-.61-.89-.6-.89-.61-.88-.62-.88-.61-.88-.63-.88-.62-.87-.63-.88-.63-.87-.63-.87-.64-.87-.63-.86-.65-.87-.64-.86-.65-.86-.66-.85-.65m94.53 49.27.03.97.03.96.03.97.03.97.03.97.03.97.03.96.04.97.03.97.04.97.04.96.03.97.04.97.04.97.04.96.05.97.04.97.04.97.05.96.04.97.05.97.05.96.05.97.05.97.05.96.05.97.05.97.05.96.06.97.05.97.06.96.06.97.06.97.05.96.06.97.07.96.06.97.06.97.07.96.06.97.07.96.06.97.07.97.07.96.07.97.07.96.07.97.08.96.07.97.07.96.08.97.08.96.07.97.08.96.08.97.08.96.08.97.09.96.08.97.08.96.09.97.08.96.09.96.09.97.09.96.09.97.09.96.09.96.09.97.1.96.09.97.1.96.1.96.09.97.1.96.1.96.1.97.1.96.11.96.1.97.1.96.11.96.11.97.1.96.11.96.11.97.11.96.11.96.11.96.12.97.11.96.12.96.11.97.12.96.12.96.12.96.12.96.12.97.12.96" style="stroke-width:1.07;stroke:#000000;stroke-opacity:0.10;stroke-linecap:butt"/><path d="m245.4 279.57.12.96.12.96.12.96.12.97.12.96.12.96.11.96.12.97.11.96.12.96.11.96.11.97.11.96.11.96.11.96.11.97.1.96.11.96.1.97.1.96.11.96.1.97.1.96.1.96.1.97.1.96.09.97.1.96.09.96.1.97.09.96.09.96.09.97.09.96.09.97.09.96.09.97.08.96.09.96.08.97.09.96.08.97.08.96.08.97.08.96.08.97.08.96.07.97.08.96.07.97.08.96.07.97.07.96.07.97.07.96.07.97.07.97.07.96.06.97.07.96.06.97.06.96.07.97.06.97.06.96.06.97.05.97.06.96.06.97.05.96.06.97.05.97.05.96.05.97.06.97.05.96.04.97.05.97.05.97.04.96.05.97.04.97.05.96.04.97.04.97.04.97.04.96.03.97.04.97.04.97.03.96.04.97.03.97.03.97.03.97.03.96.03.97.03.97.03.97m-7.39-95.55-1.1-.26-1.1-.27-1.09-.27-1.09-.27-1.09-.28-1.09-.29-1.08-.29-1.08-.29-1.08-.3-1.07-.31-1.07-.3-1.07-.32-1.07-.32-1.06-.32-1.06-.33-1.06-.33-1.05-.34-1.05-.34-1.05-.35-1.04-.35-1.04-.36-1.04-.36-1.04-.37-1.03-.37-1.03-.38-1.02-.38-1.03-.38-1.02-.39-1.01-.4-1.02-.4-1.01-.41-1.01-.41-1-.41-1.01-.42-1-.43-.99-.43-1-.43-.99-.44-.99-.45-.98-.45-.98-.45-.98-.46-.98-.46-.97-.47-.97-.47-.97-.48-.96-.49-.96-.48-.96-.5-.95-.49-.96-.51-.94-.5-.95-.52-.94-.51-.94-.53-.94-.52-.93-.53-.94-.54-.92-.54-.93-.55-.92-.55-.92-.55-.92-.57-.91-.56-.91-.57-.91-.58-.9-.58-.9-.58-.9-.59-.9-.59-.89-.6-.89-.61-.88-.61-.89-.61-.88-.62-.87-.62-.88-.63-.87-.64-.87-.63-.86-.65-.87-.64-.86-.66-.85-.65-.86-.67-.85-.66-.85-.68-.84-.67-.84-.68-.84-.69-.84-.69-.83-.7-.83-.7-.83-.7-.82-.72-.82-.71-.82-.72-.81-.73-.81-.73-.81-.73m-28.56-88.89.29.9.29.89.29.9.29.9.29.9.28.9.29.89.29.9.29.9.29.9.29.9.28.89.29.9.29.9.29.9.29.89.29.9.29.9.28.9.29.9.29.89.29.9.29.9.29.9.28.9.29.89.29.9.29.9.29.9.29.89.28.9.29.9.29.9.29.9.29.89.29.9.28.9.29.9.29.9.29.89.29.9.29.9.29.9.28.9.29.89.29.9.29.9.29.9.29.89.28.9.29.9.29.9.29.9.29.89.29.9.28.9.29.9.29.9.29.89.29.9.29.9.29.9.28.89.29.9.29.9.29.9.29.9.29.89.28.9.29.9.29.9.29.9.29.89.29.9.28.9.29.9.29.89.29.9.29.9.29.9.28.9.29.89.29.9.29.9.29.9.29.9.29.89.28.9.29.9.29.9.29.9.29.89.29.9.28.9.29.9.29.89.29.9.29.9.29.9" style="stroke-width:1.07;stroke:#000000;stroke-opacity:0.10;stroke-linecap:butt"/><path d="m245.4 279.57-1.15-.18-1.14-.19-1.15-.2-1.13-.2-1.14-.2-1.13-.22-1.12-.22-1.12-.22-1.12-.24-1.12-.24-1.11-.24-1.1-.26-1.1-.25-1.1-.27-1.09-.27-1.09-.28-1.09-.28-1.08-.29-1.08-.3-1.07-.31-1.07-.31-1.07-.31-1.06-.33-1.06-.33-1.06-.33-1.05-.35-1.04-.34-1.04-.36-1.04-.36-1.04-.37-1.03-.38-1.02-.38-1.03-.39-1.01-.39-1.02-.4-1.01-.41-1.01-.41-1-.42-1-.43-.99-.43-.99-.44-.99-.45-.98-.45-.98-.46-.98-.46-.97-.48-.96-.47-.97-.49-.95-.49-.96-.5-.95-.5-.95-.51-.94-.52-.94-.52-.93-.53-.94-.54-.92-.54-.93-.55-.92-.56-.91-.56-.91-.57-.91-.57-.9-.58-.9-.59-.9-.6-.89-.6-.89-.61-.88-.61-.88-.62-.87-.63-.88-.63-.86-.64-.87-.65-.86-.65-.85-.66-.85-.66-.85-.68-.84-.67-.84-.69-.84-.69-.83-.7-.83-.7-.82-.71-.82-.72-.82-.72-.81-.73-.81-.74-.8-.74-.8-.75-.8-.76-.79-.76-.79-.77-.78-.77-.78-.79-.78-.78-.77-.8-.77-.8-.76-.81-.76-.81" style="stroke-width:1.07;stroke:#000000;stroke-opacity:0.10;stroke-linecap:butt"/><path d="m245.4 279.57-1.2-.11-1.19-.11-1.19-.11-1.18-.13-1.18-.14-1.17-.14-1.17-.15-1.17-.16-1.15-.16-1.16-.18-1.15-.18-1.14-.19-1.14-.2-1.13-.21-1.13-.21-1.12-.23-1.12-.23-1.12-.24-1.11-.25-1.1-.25-1.1-.26-1.09-.28-1.09-.28-1.09-.28-1.07-.3-1.08-.3-1.07-.32-1.06-.32-1.06-.32-1.05-.34-1.05-.34-1.05-.36-1.04-.36-1.03-.37-1.03-.37-1.03-.39-1.02-.39-1.01-.4-1.01-.41-1-.42-1-.42-1-.44-.99-.44-.98-.45-.98-.45-.98-.47-.97-.47-.96-.48-.96-.49-.96-.5-.95-.51-.94-.51-.94-.52-.94-.53-.93-.54-.92-.55-.92-.55-.92-.56-.91-.57-.9-.58-.9-.59-.9-.59-.89-.6-.88-.62-.88-.61-.88-.63-.87-.64-.87-.64-.86-.65-.85-.66-.85-.67-.85-.67-.84-.68-.83-.7-.84-.69-.82-.71-.82-.72-.82-.72-.81-.73-.8-.74-.81-.75-.79-.76-.79-.76-.79-.77-.78-.78-.78-.79-.77-.8-.76-.8-.76-.81-.76-.82-.75-.83-.75-.84-.74-.84-.74-.86-.73-.86-.72-.87-.73-.87-.71-.89-.71-.89m-85.65-44.64.86.45.87.45.86.45.87.45.86.46.87.45.86.45.87.45.86.45.87.45.87.45.86.45.87.45.86.45.87.45.86.46.87.45.86.45.87.45.86.45.87.45.86.45.87.45.86.45.87.45.86.45.87.46.86.45.87.45.86.45.87.45.86.45.87.45.86.45.87.45.86.45.87.45.86.45.87.46.86.45.87.45.86.45.87.45.86.45.87.45.86.45.87.45.86.45.87.45.87.46.86.45.87.45.86.45.87.45.86.45.87.45.86.45.87.45.86.45.87.45.86.45.87.46.86.45.87.45.86.45.87.45.86.45.87.45.86.45.87.45.86.45.87.45.86.46.87.45.86.45.87.45.86.45.87.45.86.45.87.45.86.45.87.45.86.45.87.45.86.46.87.45.86.45.87.45.86.45.87.45.87.45.86.45.87.45.86.45.87.45.86.46.87.45.86.45.87.45m-97.52 23.19.99-.24.98-.23.99-.24.98-.23.99-.24.98-.23.99-.23.98-.24.99-.23.98-.24.99-.23.98-.23.99-.24.98-.23.99-.24.98-.23.99-.24.98-.23.99-.23.98-.24.99-.23.98-.24.99-.23.98-.24.99-.23.98-.23.99-.24.98-.23.99-.24.98-.23.99-.23.98-.24.99-.23.98-.24.99-.23.98-.24.99-.23.98-.23.99-.24.98-.23.99-.24.98-.23.99-.24.98-.23.99-.23.98-.24.99-.23.98-.24.99-.23.98-.24.99-.23.98-.23.99-.24.98-.23.99-.24.98-.23.99-.23.98-.24.99-.23.98-.24.99-.23.98-.24.99-.23.98-.23.99-.24.98-.23.99-.24.98-.23.99-.24.98-.23.99-.23.98-.24.99-.23.98-.24.99-.23.98-.23.99-.24.98-.23.99-.24.98-.23.99-.24.98-.23.99-.23.98-.24.99-.23.98-.24.99-.23.98-.24.99-.23.98-.23.99-.24.98-.23.99-.24.98-.23.99-.24.98-.23.99-.23.98-.24.99-.23" style="stroke-width:1.07;stroke:#000000;stroke-opacity:0.10;stroke-linecap:butt"/><path d="m98.37 301.74.53-.72.53-.72.53-.72.53-.73.53-.72.53-.72.53-.72.53-.72.53-.72.53-.73.53-.72.53-.72.53-.72.53-.72.53-.72.53-.72.53-.73.53-.72.53-.72.53-.72.53-.72.53-.72.53-.73.53-.72.53-.72.53-.72.53-.72.53-.72.53-.73.54-.72.53-.72.53-.72.53-.72.53-.72.53-.73.53-.72.53-.72.53-.72.53-.72.53-.72.53-.73.53-.72.53-.72.53-.72.53-.72.53-.72.53-.73.53-.72.53-.72.53-.72.53-.72.53-.72.53-.73.53-.72.53-.72.53-.72.53-.72.53-.72.53-.73.53-.72.53-.72.53-.72.54-.72.53-.72.53-.73.53-.72.53-.72.53-.72.53-.72.53-.72.53-.73.53-.72.53-.72.53-.72.53-.72.53-.72.53-.73.53-.72.53-.72.53-.72.53-.72.53-.72.53-.73.53-.72.53-.72.53-.72.53-.72.53-.72.53-.73.53-.72.53-.72.53-.72.53-.72.53-.72.53-.73.54-.72.53-.72.53-.72.53-.72M308.64 447l-.56-.73-.57-.72-.56-.73-.57-.72-.56-.73-.56-.73-.57-.72-.56-.73-.57-.72-.56-.73-.56-.73-.57-.72-.56-.73-.57-.72-.56-.73-.57-.73-.56-.72-.56-.73-.57-.72-.56-.73-.57-.73-.56-.72-.56-.73-.57-.73-.56-.72-.57-.73-.56-.72-.57-.73-.56-.73-.56-.72-.57-.73-.56-.72-.57-.73-.56-.73-.56-.72-.57-.73-.56-.72-.57-.73-.56-.73-.57-.72-.56-.73-.56-.72-.57-.73-.56-.73-.57-.72-.56-.73-.56-.73-.57-.72-.56-.73-.57-.72-.56-.73-.57-.73-.56-.72-.56-.73-.57-.72-.56-.73-.57-.73-.56-.72-.56-.73-.57-.72-.56-.73-.57-.73-.56-.72-.56-.73-.57-.72-.56-.73-.57-.73-.56-.72-.57-.73-.56-.73-.56-.72-.57-.73-.56-.72-.57-.73-.56-.73-.56-.72-.57-.73-.56-.72-.57-.73-.56-.73-.57-.72-.56-.73-.56-.72-.57-.73-.56-.73-.57-.72-.56-.73-.56-.72-.57-.73-.56-.73-.57-.72-.56-.73-.57-.72-.56-.73-.56-.73-.57-.72-.56-.73-.57-.73-.56-.72M308.64 447l.28.81.28.8.28.81.28.81.29.8.28.81.28.81.28.8.28.81.28.81.28.8.28.81.28.8.28.81.29.81.28.8.28.81.28.81.28.8.28.81.28.81.28.8.28.81.28.81.29.8.28.81.28.81.28.8.28.81.28.8.28.81.28.81.28.8.28.81.28.81.29.8.28.81.28.81.28.8.28.81.28.81.28.8.28.81.28.81.28.8.29.81.28.8.28.81.28.81.28.8.28.81.28.81.28.8.28.81.28.81.29.8.28.81.28.81.28.8.28.81.28.8.28.81.28.81.28.8.28.81.28.81.29.8.28.81.28.81.28.8.28.81.28.81.28.8.28.81.28.81.28.8.29.81.28.8.28.81.28.81.28.8.28.81.28.81.28.8.28.81.28.81.29.8.28.81.28.81.28.8.28.81.28.81.28.8.28.81.28.8.28.81.28.81.29.8.28.81" style="stroke-width:1.07;stroke:#000000;stroke-opacity:0.10;stroke-linecap:butt"/><path d="m187.9 440.05 1.92 3.31h-3.83zm179.52-291.76 1.91 3.32h-3.83zM245.4 269.63l8.6 14.9h-17.2zm188.54-28.49 1.92 3.32h-3.83zM190.43 149.9l1.92 3.32h-3.83zm-68.12-10.7 1.92 3.31h-3.83zm-57.09 44.25 1.91 3.32H63.3zm-11.87 67.83 1.92 3.31h-3.83zm45.02 48.25 1.91 3.32h-3.83zm210.27 145.26 1.91 3.32h-3.82z" style="stroke-width:0.71;stroke:none;fill:#00BA38"/><circle cx="252.79" cy="375.12" r="3.81" style="stroke-width:0.71;stroke:none;fill:#F8766D"/><circle cx="338.24" cy="236.25" r="3.37" style="stroke-width:0.71;stroke:none;fill:#F8766D"/><circle cx="150.87" cy="230.3" r="6.76" style="stroke-width:0.71;stroke:none;fill:#F8766D"/><path d="M521.23 225.66h2.84v-2.84h-2.84zm-186.19 302.6h2.84v-2.84h-2.84z" style="stroke-width:0.71;stroke:none;fill:#619CFF"/><path d="m182.75 446.91 4.36-3.94M372.6 145.82l-4.39 3.97M240.02 284.21l4.57-3.95m184.13-32.18 4.43-4.01m-237.4-87.36-4.51-3.9m-73.8-14.74 3.99 2.74m-50.88 40.25-4.52 3.9M58.7 258.1l-4.54-3.92m38.79 52.24 4.61-3.98m216.29 139.85-4.42 4m-51.17-75.8-4.66 3.94m79.2-133.48 4.63-4m-181.06-11.32-4.69 3.98m365.51-10 4.64 3.94m-190.2 306.6 3.95-2.71" style="stroke-width:0.53;stroke:#BFBFBF"/><path d="M156.04 458.02h38.82-.09l.35-.01.34-.07.33-.13.3-.17.27-.22.23-.26.18-.29.14-.32.08-.34.03-.35h0v-6.79h0l-.03-.35-.08-.34-.14-.32-.18-.29-.23-.26-.27-.22-.3-.18-.33-.12-.34-.07-.26-.01h-38.82l.26.01-.35-.01-.34.04-.33.1-.32.14-.28.2-.25.24-.21.28-.17.31-.11.33-.05.34-.01.18v6.79l.01-.17v.35l.05.34.11.33.17.31.21.27.25.25.28.19.32.15.33.1.34.04z" style="stroke-width:0.53;fill:#FFFFFF;fill-opacity:0.50"/><text x="175.45" y="454.42" lengthAdjust="spacingAndGlyphs" style="font-size:5.69px;font-family:&quot;Liberation Sans&quot;" text-anchor="middle" textLength="35.94">ALICIA DAVIS</text><path d="M349.92 145.82h59.79l-.09-.01.35-.01.34-.07.32-.12.3-.18.27-.22.23-.26.19-.29.13-.32.09-.34.03-.34h0v-6.8h0l-.03-.35-.09-.34-.13-.31-.19-.3-.23-.26-.27-.22-.3-.17-.32-.13-.34-.07-.26-.01h-59.79l.26.01-.35-.01-.34.04-.34.1-.31.15-.29.2-.25.24-.21.27-.16.31-.11.33-.05.35-.01.17v6.8l.01-.18v.35l.05.34.11.33.16.31.21.28.25.24.29.2.31.15.34.09.34.04z" style="stroke-width:0.53;fill:#FFFFFF;fill-opacity:0.50"/><text x="379.81" y="142.22" lengthAdjust="spacingAndGlyphs" style="font-size:5.69px;font-family:&quot;Liberation Sans&quot;" text-anchor="middle" textLength="56.91">SEDGWICK DANIELS</text><path d="M202.14 303.52h51.66-.09l.35-.01.34-.07.33-.12.3-.18.27-.22.23-.26.18-.29.14-.32.08-.34.03-.35h0v-14.99h0l-.03-.34-.08-.34-.14-.32-.18-.3-.23-.26-.27-.22-.3-.17-.33-.12-.34-.07-.26-.02h-51.66l.26.02-.35-.02-.34.05-.34.09-.31.15-.29.2-.25.24-.21.28-.16.31-.11.33-.05.34-.01.17v14.99l.01-.17v.35l.05.34.11.33.16.31.21.28.25.24.29.19.31.15.34.1.34.04z" style="stroke-width:0.53;fill:#FFFFFF;fill-opacity:0.50"/><text x="227.97" y="291.73" lengthAdjust="spacingAndGlyphs" style="font-size:5.69px;font-family:&quot;Liberation Sans&quot;" text-anchor="middle" textLength="48.78">HOLY REDEEMER</text><text x="227.97" y="299.92" lengthAdjust="spacingAndGlyphs" style="font-size:5.69px;font-family:&quot;Liberation Sans&quot;" text-anchor="middle" textLength="47.94">EVANGELISTICAL</text><path d="M394.94 259.19h53.03-.09l.35-.01.34-.07.32-.12.3-.18.27-.22.23-.26.19-.29.13-.32.09-.34.03-.35h0v-6.79h0l-.03-.35-.09-.34-.13-.32-.19-.29-.23-.26-.27-.22-.3-.17-.32-.13-.34-.07-.26-.01h-53.03l.27.01-.35-.01-.35.04-.33.1-.32.15-.28.19-.25.25-.21.27-.16.31-.11.33-.06.34-.01.18v6.79l.01-.17v.35l.06.34.11.33.16.31.21.28.25.24.28.2.32.14.33.1.35.04z" style="stroke-width:0.53;fill:#FFFFFF;fill-opacity:0.50"/><text x="421.46" y="255.59" lengthAdjust="spacingAndGlyphs" style="font-size:5.69px;font-family:&quot;Liberation Sans&quot;" text-anchor="middle" textLength="50.14">SD HERITAGE LLC</text><path d="M174.09 176.02h67.35-.09l.35-.02.34-.07.32-.12.3-.18.27-.22.23-.26.19-.29.14-.32.08-.34.03-.34h0v-14.99h0l-.03-.35-.08-.34-.14-.32-.19-.29-.23-.26-.27-.22-.3-.18-.32-.12-.34-.07-.26-.01h-67.35l.26.01-.35-.01-.34.04-.34.1-.31.15-.29.19-.25.24-.21.28-.16.31-.11.33-.05.34-.01.18v14.99l.01-.18v.35l.05.34.11.33.16.31.21.28.25.24.29.2.31.15.34.09.34.05z" style="stroke-width:0.53;fill:#FFFFFF;fill-opacity:0.50"/><text x="207.76" y="164.22" lengthAdjust="spacingAndGlyphs" style="font-size:5.69px;font-family:&quot;Liberation Sans&quot;" text-anchor="middle" textLength="64.47">HR HOUSING PROJECT</text><text x="207.76" y="172.42" lengthAdjust="spacingAndGlyphs" style="font-size:5.69px;font-family:&quot;Liberation Sans&quot;" text-anchor="middle" textLength="25.27">NO 1 LLC</text><path d="M37.38 145.05h77.9-.09l.35-.02.34-.07.32-.12.3-.17.27-.22.23-.26.19-.3.14-.32.08-.34.03-.34h0V127.9h0l-.03-.35-.08-.34-.14-.32-.19-.29-.23-.26-.27-.22-.3-.17-.32-.13-.34-.07-.26-.01h-77.9l.26.01-.35-.01-.34.04-.33.1-.32.15-.28.19-.26.24-.2.28-.17.31-.11.33-.05.34-.01.18v14.99l.01-.18v.35l.05.35.11.32.17.31.2.28.26.24.28.2.32.15.33.09.34.05z" style="stroke-width:0.53;fill:#FFFFFF;fill-opacity:0.50"/><text x="76.33" y="133.25" lengthAdjust="spacingAndGlyphs" style="font-size:5.69px;font-family:&quot;Liberation Sans&quot;" text-anchor="middle" textLength="75.02">HOLY REDEEMER CHURCH</text><text x="76.33" y="141.45" lengthAdjust="spacingAndGlyphs" style="font-size:5.69px;font-family:&quot;Liberation Sans&quot;" text-anchor="middle" textLength="22.42">OF GOD</text><path d="M57 181.06h51.11-.08l.34-.01.34-.07.33-.13.3-.17.27-.22.23-.26.19-.3.13-.32.09-.33.02-.35h0v-14.99h0l-.02-.35-.09-.33-.13-.32-.19-.3-.23-.26-.27-.22-.3-.17-.33-.12-.34-.07-.26-.02H57l.26.02-.35-.02-.34.04-.34.1-.31.15-.29.2-.25.24-.21.28-.16.3-.11.33-.05.35-.01.17v14.99l.01-.17v.34l.05.35.11.33.16.31.21.27.25.24.29.2.31.15.34.1.34.04z" style="stroke-width:0.53;fill:#FFFFFF;fill-opacity:0.50"/><text x="82.56" y="169.27" lengthAdjust="spacingAndGlyphs" style="font-size:5.69px;font-family:&quot;Liberation Sans&quot;" text-anchor="middle" textLength="47.56">BISHOP&apos;S CREEK</text><text x="82.56" y="177.46" lengthAdjust="spacingAndGlyphs" style="font-size:5.69px;font-family:&quot;Liberation Sans&quot;" text-anchor="middle" textLength="48.23">COMMUNITY DEV</text><path d="M46.05 277.42h49.37l-.09-.01.35-.01.34-.07.32-.12.3-.18.27-.22.23-.26.19-.29.13-.32.09-.34.03-.34h0v-15h0l-.03-.34-.09-.34-.13-.32-.19-.29-.23-.26-.27-.22-.3-.18-.32-.12-.34-.07-.26-.02H46.05l.26.02-.35-.01-.34.04-.34.09-.31.15-.29.2-.25.24-.2.28-.17.31-.11.33-.05.34-.01.17v15l.01-.18v.35l.05.34.11.33.17.31.2.28.25.24.29.2.31.14.34.1.34.04z" style="stroke-width:0.53;fill:#FFFFFF;fill-opacity:0.50"/><text x="70.73" y="265.62" lengthAdjust="spacingAndGlyphs" style="font-size:5.69px;font-family:&quot;Liberation Sans&quot;" text-anchor="middle" textLength="46.48">BISHOPS CREEK</text><text x="70.73" y="273.82" lengthAdjust="spacingAndGlyphs" style="font-size:5.69px;font-family:&quot;Liberation Sans&quot;" text-anchor="middle" textLength="35.06">COMMUNITY</text><path d="M55.72 325.73h50.44-.08l.34-.01.34-.07.33-.13.3-.17.27-.22.23-.26.19-.29.13-.32.08-.34.03-.35h0v-14.99h0l-.03-.35-.08-.33-.13-.32-.19-.3-.23-.26-.27-.22-.3-.17-.33-.12-.34-.07-.26-.02H55.72l.26.02-.35-.02-.34.04-.34.1-.31.15-.29.2-.25.24-.21.28-.16.3-.11.33-.05.35-.01.17v14.99l.01-.17v.35l.05.34.11.33.16.31.21.27.25.24.29.2.31.15.34.1.34.04z" style="stroke-width:0.53;fill:#FFFFFF;fill-opacity:0.50"/><text x="80.94" y="313.94" lengthAdjust="spacingAndGlyphs" style="font-size:5.69px;font-family:&quot;Liberation Sans&quot;" text-anchor="middle" textLength="47.56">BISHOP&apos;S CREEK</text><text x="80.94" y="322.13" lengthAdjust="spacingAndGlyphs" style="font-size:5.69px;font-family:&quot;Liberation Sans&quot;" text-anchor="middle" textLength="35.06">COMMUNITY</text><path d="M291.04 442.29h60.16-.09l.35-.02.34-.07.32-.12.31-.17.27-.22.23-.26.18-.3.14-.32.08-.34.03-.34h0v-6.8h0l-.03-.35-.08-.33-.14-.32-.18-.3-.23-.26-.27-.22-.31-.17-.32-.12-.34-.07-.26-.02h-60.16l.26.02-.35-.02-.34.04-.34.1-.31.15-.29.2-.25.24-.21.28-.16.3-.11.33-.06.35v6.97-.18.35l.06.34.11.33.16.31.21.28.25.24.29.2.31.15.34.09.34.05z" style="stroke-width:0.53;fill:#FFFFFF;fill-opacity:0.50"/><text x="321.12" y="438.69" lengthAdjust="spacingAndGlyphs" style="font-size:5.69px;font-family:&quot;Liberation Sans&quot;" text-anchor="middle" textLength="57.28">JT REAL ESTATE LLC</text><path d="M243.57 370.49h63.24l-.09-.01.35-.01.34-.07.32-.12.3-.18.27-.22.23-.26.19-.29.14-.32.08-.34.03-.34h0v-23.19h0l-.03-.35-.08-.33-.14-.32-.19-.3-.23-.26-.27-.22-.3-.17-.32-.12-.34-.07-.26-.02h-63.24l.26.02-.35-.02-.34.04-.34.1-.31.15-.29.2-.25.24-.21.28-.16.3-.11.33-.06.35v23.36-.18.35l.06.34.11.33.16.31.21.28.25.24.29.2.31.15.34.09.34.04z" style="stroke-width:0.53;fill:#FFFFFF;fill-opacity:0.50"/><text x="275.19" y="350.5" lengthAdjust="spacingAndGlyphs" style="font-size:5.69px;font-family:&quot;Liberation Sans&quot;" text-anchor="middle" textLength="60.36">6933 W BROWN DEER</text><text x="275.19" y="358.69" lengthAdjust="spacingAndGlyphs" style="font-size:5.69px;font-family:&quot;Liberation Sans&quot;" text-anchor="middle" textLength="54.98">RD, MILWAUKEE, WI</text><text x="275.19" y="366.89" lengthAdjust="spacingAndGlyphs" style="font-size:5.69px;font-family:&quot;Liberation Sans&quot;" text-anchor="middle" textLength="15.78">53223</text><path d="M288.86 260.26h63.85-.09l.35-.01.34-.07.32-.13.3-.17.27-.22.23-.26.19-.29.14-.32.08-.34.03-.35h0v-14.99h0l-.03-.35-.08-.33-.14-.32-.19-.3-.23-.26-.27-.22-.3-.17-.32-.12-.34-.07-.26-.02h-63.85l.26.02-.35-.02-.34.04-.34.1-.31.15-.29.2-.25.24-.21.28-.16.3-.11.33-.06.35v15.16-.17.35l.06.34.11.33.16.31.21.27.25.24.29.2.31.15.34.1.34.04z" style="stroke-width:0.53;fill:#FFFFFF;fill-opacity:0.50"/><text x="320.78" y="248.47" lengthAdjust="spacingAndGlyphs" style="font-size:5.69px;font-family:&quot;Liberation Sans&quot;" text-anchor="middle" textLength="54.98">1400 W SPRUCE CT,</text><text x="320.78" y="256.66" lengthAdjust="spacingAndGlyphs" style="font-size:5.69px;font-family:&quot;Liberation Sans&quot;" text-anchor="middle" textLength="60.97">MILWAUKEE, WI 53217</text><path d="M141.37 225.63h63.85-.09l.35-.01.34-.07.33-.13.3-.17.27-.22.23-.26.18-.29.14-.32.08-.34.03-.35h0v-23.18h0l-.03-.35-.08-.34-.14-.32-.18-.29-.23-.26-.27-.22-.3-.17-.33-.13-.34-.07-.26-.01h-63.85l.26.01-.35-.01-.34.04-.33.1-.32.15-.29.19-.25.24-.2.28-.17.31-.11.33-.05.34-.01.18v23.18l.01-.17v.35l.05.34.11.33.17.31.2.27.25.25.29.19.32.15.33.1.34.04z" style="stroke-width:0.53;fill:#FFFFFF;fill-opacity:0.50"/><text x="173.3" y="205.64" lengthAdjust="spacingAndGlyphs" style="font-size:5.69px;font-family:&quot;Liberation Sans&quot;" text-anchor="middle" textLength="45.8">3500 W MOTHER</text><text x="173.3" y="213.84" lengthAdjust="spacingAndGlyphs" style="font-size:5.69px;font-family:&quot;Liberation Sans&quot;" text-anchor="middle" textLength="36.45">DANIELS WA,</text><text x="173.3" y="222.03" lengthAdjust="spacingAndGlyphs" style="font-size:5.69px;font-family:&quot;Liberation Sans&quot;" text-anchor="middle" textLength="60.97">MILWAUKEE, WI 53209</text><path d="M466.45 219.61h67.64-.08l.34-.01.34-.07.33-.12.3-.18.27-.22.23-.26.19-.29.13-.32.09-.34.02-.35h0v-23.18h0l-.02-.35-.09-.34-.13-.32-.19-.29-.23-.26-.27-.22-.3-.17-.33-.13-.34-.07-.26-.01h-67.64l.26.01-.35-.01-.34.04-.34.1-.31.15-.29.2-.25.24-.21.27-.16.31-.11.33-.06.34v23.36-.17.35l.06.34.11.33.16.31.21.28.25.24.29.19.31.15.34.1.34.04z" style="stroke-width:0.53;fill:#FFFFFF;fill-opacity:0.50"/><text x="500.27" y="199.63" lengthAdjust="spacingAndGlyphs" style="font-size:5.69px;font-family:&quot;Liberation Sans&quot;" text-anchor="middle" textLength="64.77">3500 MOTHER DANIELS</text><text x="500.27" y="207.82" lengthAdjust="spacingAndGlyphs" style="font-size:5.69px;font-family:&quot;Liberation Sans&quot;" text-anchor="middle" textLength="58.36">WAY, MILWAUKEE, WI</text><text x="500.27" y="216.01" lengthAdjust="spacingAndGlyphs" style="font-size:5.69px;font-family:&quot;Liberation Sans&quot;" text-anchor="middle" textLength="15.78">53209</text><path d="M261.81 542.51h67.66-.09l.35-.01.34-.07.33-.13.3-.17.27-.22.23-.26.18-.29.14-.32.08-.34.03-.35h0v-14.99h0l-.03-.35-.08-.33-.14-.32-.18-.3-.23-.26-.27-.22-.3-.17-.33-.12-.34-.07-.26-.02h-67.66l.26.02-.35-.02-.34.04-.34.1-.31.15-.29.2-.25.24-.21.28-.16.3-.11.33-.05.35-.01.17v14.99l.01-.17v.35l.05.34.11.33.16.31.21.27.25.25.29.19.31.15.34.1.34.04z" style="stroke-width:0.53;fill:#FFFFFF;fill-opacity:0.50"/><text x="295.64" y="530.72" lengthAdjust="spacingAndGlyphs" style="font-size:5.69px;font-family:&quot;Liberation Sans&quot;" text-anchor="middle" textLength="64.78">6933 BROWN DEER RD,</text><text x="295.64" y="538.91" lengthAdjust="spacingAndGlyphs" style="font-size:5.69px;font-family:&quot;Liberation Sans&quot;" text-anchor="middle" textLength="60.97">MILWAUKEE, WI 53223</text></g><g clip-path="url(#cpMC4wMHw1NzYuMDB8MC4wMHw1NzYuMDA=)"><circle cx="192.83" cy="97.06" r="1.95" style="stroke-width:0.71;stroke:none;fill:#F8766D"/><path d="m269.23 94.02 2.63 4.56h-5.26z" style="stroke-width:0.71;stroke:none;fill:#00BA38"/><path d="M335.23 99.01h3.91V95.1h-3.91z" style="stroke-width:0.71;stroke:none;fill:#619CFF"/><text x="206.95" y="100.22" lengthAdjust="spacingAndGlyphs" style="font-size:8.80px;font-weight:0;font-family:&quot;Nimbus Sans Narrow&quot;" textLength="48.16">mprop address</text><text x="283.35" y="100.22" lengthAdjust="spacingAndGlyphs" style="font-size:8.80px;font-weight:0;font-family:&quot;Nimbus Sans Narrow&quot;" textLength="39.72">owner name</text><text x="351.31" y="100.22" lengthAdjust="spacingAndGlyphs" style="font-size:8.80px;font-weight:0;font-family:&quot;Nimbus Sans Narrow&quot;" textLength="40.5">wdfi address</text><text x="29.89" y="65.35" lengthAdjust="spacingAndGlyphs" style="font-size:12.00px;font-weight:0;font-family:&quot;Nimbus Sans Narrow&quot;" textLength="257.58">includes 23 parcels, 91 units, and 10 distinct owner names.</text><text x="29.89" y="42.81" lengthAdjust="spacingAndGlyphs" style="font-size:18.00px;font-weight:0;font-family:&quot;Nimbus Sans Narrow&quot;" textLength="335.41">HOLY REDEEMER EVANGELISTICAL etc Group</text></g></g></svg>