<svg xmlns="http://www.w3.org/2000/svg" width="576" height="672" viewBox="0 0 432 504"><g class="svglite"><defs><style><![CDATA[.svglite line,.svglite polyline,.svglite polygon,.svglite path,.svglite circle{fill:none;stroke:#000000;stroke-linecap:round;stroke-linejoin:round;stroke-miterlimit:10.00}.svglite text{white-space:pre}.svglite g.glyphgroup path{fill:inherit;stroke:none}]]></style></defs><rect width="100%" height="100%" style="stroke-linecap:round;stroke-linejoin:round;stroke-miterlimit:10.00;stroke:none;fill:#FFFFFF"/><defs><clipPath id="cpMC4wMHw0MzIuMDB8MC4wMHw1MDQuMDA="><path d="M0 0h432v504H0z"/></clipPath></defs><g clip-path="url(#cpMC4wMHw0MzIuMDB8MC4wMHw1MDQuMDA=)"><path d="M0 0h432v504H0z" style="stroke-width:1.07;stroke:none;fill:#FFFFFF"/></g><defs><clipPath id="cpMjkuODl8NDAyLjExfDEyMi4xNHw0NzQuMTE="><path d="M29.89 122.14h372.22v351.97H29.89z"/></clipPath></defs><g clip-path="url(#cpMjkuODl8NDAyLjExfDEyMi4xNHw0NzQuMTE=)"><path d="m46.81 287.79 1.71.1 1.71.11 1.7.1 1.71.1 1.71.11 1.71.1 1.71.11 1.71.1 1.71.11 1.71.1 1.71.11 1.71.1 1.7.1 1.71.11 1.71.1 1.71.11 1.71.1 1.71.11 1.71.1 1.71.11 1.71.1 1.71.1 1.7.11 1.71.1 1.71.11 1.71.1 1.71.11 1.71.1 1.71.1 1.71.11 1.71.1 1.71.11 1.7.1 1.71.11 1.71.1 1.71.11 1.71.1 1.71.1 1.71.11 1.71.1 1.71.11 1.71.1 1.7.11 1.71.1 1.71.11 1.71.1 1.71.1 1.71.11 1.71.1 1.71.11 1.71.1 1.71.11 1.71.1 1.7.11 1.71.1 1.71.1 1.71.11 1.71.1 1.71.11 1.71.1 1.71.11 1.71.1 1.71.11 1.7.1 1.71.1 1.71.11 1.71.1 1.71.11 1.71.1 1.71.11 1.71.1 1.71.11 1.71.1 1.7.1 1.71.11 1.71.1 1.71.11 1.71.1 1.71.11 1.71.1 1.71.1 1.71.11 1.71.1 1.7.11 1.71.1 1.71.11 1.71.1 1.71.11 1.71.1 1.71.1 1.71.11 1.71.1 1.71.11 1.7.1 1.71.11 1.71.1 1.71.11 1.71.1 1.71.1m169.19 10.34-1.67-.7-1.68-.69-1.68-.67-1.68-.67-1.68-.65-1.68-.64-1.68-.62-1.68-.62-1.68-.6-1.68-.59-1.68-.58-1.69-.57-1.68-.55-1.69-.54-1.68-.53-1.69-.52-1.69-.51-1.68-.49-1.69-.48-1.69-.47-1.69-.46-1.69-.44-1.69-.44-1.69-.42-1.7-.41-1.69-.39-1.69-.39-1.7-.37-1.69-.36-1.7-.35-1.7-.33-1.69-.32-1.7-.32-1.7-.29-1.7-.29-1.7-.28-1.7-.26-1.7-.25-1.7-.24-1.7-.22-1.71-.22-1.7-.2-1.7-.19-1.71-.18-1.7-.16-1.71-.15-1.71-.14-1.71-.13-1.7-.12-1.71-.1-1.71-.1-1.71-.08-1.71-.06-1.72-.06-1.71-.04-1.71-.04-1.71-.02h-3.43l-1.72.02-1.72.03-1.71.04-1.72.05-1.72.07-1.72.08-1.72.09-1.72.1-1.72.12-1.72.12-1.72.14-1.73.15-1.72.16-1.72.18-1.73.19-1.72.2-1.73.21-1.73.22-1.73.24-1.72.25-1.73.26-1.73.27-1.73.28-1.73.3-1.74.31-1.73.32-1.73.33-1.73.35-1.74.36-1.73.37-1.74.38-1.74.39-1.73.41-1.74.42-1.74.43-1.74.44-1.74.46-1.74.46-1.74.48-1.74.49m76.12 159.99-.51-1.75-.53-1.74-.52-1.75-.53-1.74-.54-1.74-.54-1.74-.55-1.73-.55-1.73-.56-1.73-.56-1.72-.57-1.73-.58-1.72-.57-1.71-.59-1.72-.59-1.71-.59-1.71-.6-1.71-.6-1.7-.61-1.7-.62-1.7-.62-1.69-.62-1.7-.63-1.69-.64-1.68-.64-1.69-.64-1.68-.65-1.68-.66-1.68-.66-1.67-.66-1.67-.68-1.67-.67-1.66-.68-1.67-.69-1.66-.69-1.65-.7-1.66-.7-1.65-.71-1.65-.71-1.64-.72-1.65-.72-1.64-.73-1.64-.73-1.63-.74-1.63-.74-1.63-.75-1.63-.75-1.62-.76-1.63-.77-1.61-.76-1.62-.78-1.61-.78-1.61-.78-1.61-.79-1.61-.8-1.6-.8-1.6-.8-1.6-.81-1.59-.82-1.59-.82-1.59-.82-1.59-.83-1.58-.84-1.58-.84-1.58-.85-1.57-.85-1.57-.85-1.57-.87-1.57-.86-1.57-.87-1.56-.88-1.56-.88-1.55-.89-1.55-.89-1.55-.9-1.55-.9-1.55-.91-1.54-.92-1.54-.91-1.54-.93-1.53-.93-1.53-.93-1.53-.94-1.53-.94-1.52-.95-1.52-.96-1.52-.95-1.51-.97-1.51-.97-1.51-.97-1.51-.98-1.5-.99-1.5-.99-1.5-1-1.5-1-1.49-1-1.49-1.01-1.49-1.02-1.48-1.02-1.49m76.12 159.99-1.02-1.48-1.01-1.48-1.02-1.49-1-1.49-1-1.49-1-1.5-.99-1.5-.98-1.5-.98-1.5-.98-1.51-.97-1.51-.96-1.51-.96-1.52-.96-1.51-.95-1.52-.94-1.53-.94-1.52-.93-1.53-.93-1.53-.92-1.54-.92-1.53-.91-1.54-.91-1.55-.91-1.54-.89-1.55-.9-1.55-.88-1.55-.89-1.56-.87-1.56-.87-1.56-.87-1.56-.86-1.57-.86-1.57-.85-1.57-.85-1.57-.84-1.58-.83-1.58-.83-1.59-.83-1.58-.82-1.59-.82-1.59-.81-1.6-.8-1.59-.8-1.6-.8-1.61-.78-1.6-.79-1.61-.78-1.61-.77-1.61-.77-1.62-.77-1.62-.75-1.62-.76-1.62-.75-1.63-.74-1.63-.74-1.63-.73-1.64-.73-1.63-.72-1.65-.72-1.64-.71-1.65-.71-1.64-.7-1.66-.7-1.65-.69-1.66-.68-1.66-.69-1.66-.67-1.66-.67-1.67-.67-1.67-.66-1.68-.65-1.67-.66-1.68-.64-1.68-.64-1.69-.64-1.69-.63-1.69-.62-1.69-.62-1.69-.61-1.7-.61-1.7-.61-1.71-.6-1.7-.59-1.71-.59-1.71-.58-1.72-.58-1.71-.57-1.72-.57-1.73-.57-1.72-.55-1.73-.56-1.73-.54-1.74-.55-1.73-.53-1.74-.53-1.74-.53-1.75-.52-1.75-.52-1.75" style="stroke-width:1.07;stroke:#000000;stroke-opacity:0.10;stroke-linecap:butt"/><path d="m385.19 308.46-1.71-.1-1.71-.11-1.7-.1-1.71-.11-1.71-.1-1.71-.1-1.71-.11-1.71-.1-1.71-.11-1.71-.1-1.71-.11-1.71-.1-1.7-.1-1.71-.11-1.71-.1-1.71-.11-1.71-.1-1.71-.11-1.71-.1-1.71-.11-1.71-.1-1.71-.1-1.7-.11-1.71-.1-1.71-.11-1.71-.1-1.71-.11-1.71-.1-1.71-.11-1.71-.1-1.71-.1-1.71-.11-1.7-.1-1.71-.11-1.71-.1-1.71-.11-1.71-.1-1.71-.11-1.71-.1-1.71-.1-1.71-.11-1.71-.1-1.7-.11-1.71-.1-1.71-.11-1.71-.1-1.71-.11-1.71-.1-1.71-.1-1.71-.11-1.71-.1-1.71-.11-1.71-.1-1.7-.11-1.71-.1-1.71-.11-1.71-.1-1.71-.1-1.71-.11-1.71-.1-1.71-.11-1.71-.1-1.71-.11-1.7-.1-1.71-.1-1.71-.11-1.71-.1-1.71-.11-1.71-.1-1.71-.11-1.71-.1-1.71-.11-1.71-.1-1.7-.1-1.71-.11-1.71-.1-1.71-.11-1.71-.1-1.71-.11-1.71-.1-1.71-.11-1.71-.1-1.71-.1-1.7-.11-1.71-.1-1.71-.11-1.71-.1-1.71-.11-1.71-.1-1.71-.11-1.71-.1-1.71-.1-1.71-.11-1.7-.1-1.71-.11-1.71-.1-1.71-.11-1.71-.1-1.71-.11" style="stroke-width:1.07;stroke:#000000;stroke-opacity:0.10;stroke-linecap:butt"/><path d="m309.07 148.47-1.41 1.19-1.4 1.19-1.4 1.2-1.38 1.2-1.37 1.21-1.37 1.22-1.35 1.22-1.35 1.23-1.33 1.24-1.33 1.24-1.31 1.25-1.31 1.26-1.3 1.27-1.28 1.27-1.28 1.27-1.27 1.29-1.26 1.29-1.25 1.3-1.23 1.3-1.23 1.31-1.22 1.32-1.21 1.32-1.2 1.34-1.19 1.33-1.18 1.35-1.18 1.35-1.16 1.36-1.15 1.36-1.14 1.37-1.13 1.38-1.13 1.38-1.11 1.4-1.1 1.39-1.1 1.41-1.08 1.41-1.08 1.42-1.06 1.42-1.06 1.43-1.05 1.44-1.03 1.45-1.03 1.45-1.02 1.46-1 1.46-1 1.47-.99 1.48-.98 1.48-.97 1.5-.96 1.49-.95 1.51-.94 1.51-.93 1.52-.92 1.52-.91 1.54-.9 1.53-.89 1.55-.89 1.55-.87 1.56-.86 1.56-.85 1.58-.85 1.58-.83 1.58-.83 1.59-.81 1.6-.81 1.61-.79 1.61-.79 1.62-.77 1.62-.77 1.63-.76 1.64-.75 1.65-.73 1.65-.73 1.66-.72 1.66-.71 1.68-.7 1.68-.69 1.68-.68 1.69-.67 1.7-.66 1.71-.65 1.71-.64 1.72-.63 1.72-.63 1.74-.61 1.74-.6 1.74-.59 1.75-.59 1.76-.57 1.77-.57 1.77-.55 1.78-.55 1.79-.53 1.79-.53 1.8-.51 1.8-.51 1.82-.5 1.82-.48 1.82-.48 1.84-.47 1.83m-93.07 149.66.94-1.52.94-1.51.94-1.51.94-1.51.94-1.51.94-1.51.94-1.52.94-1.51.94-1.51.94-1.51.94-1.51.94-1.51.94-1.52.94-1.51.94-1.51.94-1.51.94-1.51.94-1.51.94-1.52.94-1.51.94-1.51.94-1.51.94-1.51.94-1.51.94-1.52.94-1.51.94-1.51.94-1.51.94-1.51.94-1.51.94-1.52.94-1.51.94-1.51.94-1.51.94-1.51.94-1.51.94-1.51.94-1.52.94-1.51.94-1.51.94-1.51.94-1.51.94-1.51.94-1.52.94-1.51.94-1.51.94-1.51.94-1.51.95-1.51.94-1.52.94-1.51.94-1.51.94-1.51.94-1.51.94-1.51.94-1.52.94-1.51.94-1.51.94-1.51.94-1.51.94-1.51.94-1.52.94-1.51.94-1.51.94-1.51.94-1.51.94-1.51.94-1.52.94-1.51.94-1.51.94-1.51.94-1.51.94-1.51.94-1.51.94-1.52.94-1.51.94-1.51.94-1.51.94-1.51.94-1.51.94-1.52.94-1.51.94-1.51.94-1.51.94-1.51.94-1.51.94-1.52.94-1.51.94-1.51.94-1.51.94-1.51.94-1.51.94-1.52.94-1.51.94-1.51.94-1.51.94-1.51.94-1.51.94-1.52" style="stroke-width:1.07;stroke:#000000;stroke-opacity:0.10;stroke-linecap:butt"/><path d="m309.07 148.47-.94 1.52-.94 1.51-.94 1.51-.94 1.51-.94 1.51-.94 1.51-.94 1.52-.94 1.51-.94 1.51-.94 1.51-.94 1.51-.94 1.51-.94 1.52-.94 1.51-.94 1.51-.94 1.51-.94 1.51-.94 1.51-.94 1.51-.94 1.52-.94 1.51-.94 1.51-.94 1.51-.94 1.51-.94 1.51-.94 1.52-.94 1.51-.94 1.51-.94 1.51-.94 1.51-.94 1.51-.94 1.52-.94 1.51-.94 1.51-.94 1.51-.94 1.51-.94 1.51-.94 1.52-.94 1.51-.94 1.51-.94 1.51-.94 1.51-.94 1.51-.94 1.52-.94 1.51-.94 1.51-.94 1.51-.94 1.51-.95 1.51-.94 1.52-.94 1.51-.94 1.51-.94 1.51-.94 1.51-.94 1.51-.94 1.51-.94 1.52-.94 1.51-.94 1.51-.94 1.51-.94 1.51-.94 1.51-.94 1.52-.94 1.51-.94 1.51-.94 1.51-.94 1.51-.94 1.51-.94 1.52-.94 1.51-.94 1.51-.94 1.51-.94 1.51-.94 1.51-.94 1.52-.94 1.51-.94 1.51-.94 1.51-.94 1.51-.94 1.51-.94 1.52-.94 1.51-.94 1.51-.94 1.51-.94 1.51-.94 1.51-.94 1.52-.94 1.51-.94 1.51-.94 1.51-.94 1.51-.94 1.51-.94 1.51-.94 1.52-.94 1.51-.94 1.51-.94 1.51-.94 1.51-.94 1.51m169.19 10.34-1.74.49-1.74.48-1.74.47-1.74.46-1.74.44-1.74.43-1.73.42-1.74.4-1.74.4-1.73.38-1.74.37-1.73.36-1.74.34-1.73.34-1.73.32-1.73.31-1.73.29-1.73.29-1.73.27-1.73.26-1.73.25-1.73.23-1.73.23-1.72.21-1.73.2-1.72.19-1.73.17-1.72.17-1.72.15-1.73.14-1.72.12-1.72.12-1.72.1-1.72.09-1.72.08-1.72.06-1.71.06-1.72.04-1.72.03-1.71.01-1.72.01-1.71-.01-1.72-.02-1.71-.03-1.71-.04-1.71-.06-1.71-.07-1.71-.08-1.71-.09-1.71-.1-1.71-.12-1.71-.13-1.71-.14-1.7-.15-1.71-.17-1.7-.17-1.71-.19-1.7-.21-1.7-.21-1.71-.23-1.7-.23-1.7-.25-1.7-.27-1.7-.27-1.7-.29-1.7-.3-1.69-.31-1.7-.32-1.7-.34-1.69-.34-1.7-.36-1.69-.38-1.7-.38-1.69-.4-1.69-.41-1.69-.42-1.7-.43-1.69-.44-1.69-.46-1.68-.47-1.69-.48-1.69-.49-1.69-.51-1.68-.52-1.69-.53-1.68-.54-1.69-.55-1.68-.57-1.69-.58-1.68-.59-1.68-.6-1.68-.62-1.68-.63-1.68-.64-1.68-.65-1.68-.66-1.68-.68-1.67-.69-1.68-.7" style="stroke-width:1.07;stroke:#000000;stroke-opacity:0.10;stroke-linecap:butt"/><path d="m309.07 148.47-.47 1.84-.48 1.84-.48 1.82-.5 1.82-.51 1.81-.51 1.81-.53 1.8-.53 1.79-.55 1.79-.55 1.78-.57 1.77-.57 1.77-.59 1.75-.59 1.76-.6 1.74-.61 1.74-.63 1.73-.63 1.73-.64 1.72-.65 1.71-.66 1.71-.67 1.7-.68 1.69-.69 1.68-.7 1.68-.71 1.67-.72 1.67-.73 1.66-.73 1.65-.75 1.65-.76 1.63-.77 1.64-.77 1.62-.79 1.62-.79 1.61-.81 1.61-.81 1.6-.83 1.59-.83 1.58-.85 1.58-.85 1.57-.86 1.57-.88 1.56-.88 1.55-.89 1.54-.9 1.54-.91 1.53-.92 1.53-.93 1.52-.94 1.51-.95 1.5-.96 1.5-.97 1.49-.98 1.49-.99 1.48-1 1.47-1 1.46-1.02 1.46-1.03 1.45-1.03 1.45-1.05 1.44-1.06 1.43-1.06 1.42-1.08 1.42-1.08 1.41-1.1 1.41-1.1 1.39-1.11 1.39-1.13 1.39-1.13 1.38-1.14 1.37-1.15 1.36-1.16 1.36-1.18 1.35-1.18 1.35-1.19 1.33-1.2 1.33-1.21 1.33-1.22 1.32-1.23 1.31-1.24 1.3-1.24 1.3-1.26 1.29-1.27 1.28-1.28 1.28-1.28 1.27-1.3 1.27-1.31 1.25-1.31 1.25-1.33 1.25-1.33 1.24-1.35 1.23-1.35 1.22-1.37 1.22-1.37 1.21-1.38 1.2-1.4 1.2-1.4 1.19-1.41 1.18" style="stroke-width:1.07;stroke:#000000;stroke-opacity:0.10;stroke-linecap:butt"/><path d="m139.88 138.14.77 1.61.76 1.62.77 1.61.77 1.62.77 1.62.77 1.61.77 1.62.77 1.61.77 1.62.77 1.62.77 1.61.76 1.62.77 1.61.77 1.62.77 1.62.77 1.61.77 1.62.77 1.61.77 1.62.77 1.62.76 1.61.77 1.62.77 1.62.77 1.61.77 1.62.77 1.61.77 1.62.77 1.62.77 1.61.76 1.62.77 1.61.77 1.62.77 1.62.77 1.61.77 1.62.77 1.61.77 1.62.77 1.62.76 1.61.77 1.62.77 1.61.77 1.62.77 1.62.77 1.61.77 1.62.77 1.61.77 1.62.77 1.62.76 1.61.77 1.62.77 1.61.77 1.62.77 1.62.77 1.61.77 1.62.77 1.61.77 1.62.76 1.62.77 1.61.77 1.62.77 1.61.77 1.62.77 1.62.77 1.61.77 1.62.77 1.62.76 1.61.77 1.62.77 1.61.77 1.62.77 1.62.77 1.61.77 1.62.77 1.61.77 1.62.76 1.62.77 1.61.77 1.62.77 1.61.77 1.62.77 1.62.77 1.61.77 1.62.77 1.61.77 1.62.76 1.62.77 1.61.77 1.62.77 1.61.77 1.62.77 1.62.77 1.61.77 1.62.77 1.61.76 1.62.77 1.62.77 1.61.77 1.62.77 1.61" style="stroke-width:1.07;stroke:#000000;stroke-opacity:0.10;stroke-linecap:butt"/><path d="m46.81 285.58 1.91 3.31h-3.83zm338.38 16.96 5.13 8.88h-10.25zm-93.07 150.74 4.19 7.25h-8.37zm16.95-310.73 5.13 8.88h-10.26zM122.93 445.56l1.91 3.32h-3.82zm16.95-309.63 1.91 3.31h-3.83z" style="stroke-width:0.71;stroke:none;fill:#00BFC4"/><circle cx="216" cy="298.12" r="6.76" style="stroke-width:0.71;stroke:none;fill:#F8766D"/><path d="M51.53 287.79h-3.66m332.62 20.59 3.64.06m-96.66 152 3.7-1.85m13.17-305.41 3.97-3.95m-180.7 293.89-3.92 3.9m20.79-311.2-3.65 1.84m79.86 155.8-3.93 3.91" style="stroke-width:0.53;stroke:#BFBFBF"/><path d="M53.69 297.44h63.14-.08l.34-.01.34-.07.33-.12.3-.18.27-.22.23-.26.19-.29.13-.32.09-.34.02-.35h0v-14.99h0l-.02-.34-.09-.34-.13-.32-.19-.29-.23-.27-.27-.21-.3-.18-.33-.12-.34-.07-.26-.02H53.69l.26.02-.35-.02-.34.05-.34.09-.31.15-.29.2-.25.24-.21.28-.16.31-.11.33-.06.34v15.16-.17.35l.06.34.11.33.16.31.21.28.25.24.29.19.31.15.34.1.34.04z" style="stroke-width:0.53;fill:#FFFFFF;fill-opacity:0.50"/><text x="85.26" y="285.65" lengthAdjust="spacingAndGlyphs" style="font-size:5.69px;font-family:&quot;Liberation Sans&quot;" text-anchor="middle" textLength="60.27">HORACE TUCKER SR,</text><text x="85.26" y="293.84" lengthAdjust="spacingAndGlyphs" style="font-size:5.69px;font-family:&quot;Liberation Sans&quot;" text-anchor="middle" textLength="48.27">UNEEDA TUCKER</text><path d="M326.24 313.94h52.09-.09l.35-.02.34-.07.32-.12.31-.17.26-.22.23-.26.19-.3.14-.32.08-.34.03-.34h0v-6.8h0l-.03-.34-.08-.34-.14-.32-.19-.3-.23-.26-.26-.22-.31-.17-.32-.12-.34-.07-.26-.02h-52.09l.27.02-.35-.02-.35.05-.33.09-.32.15-.28.2-.25.24-.21.28-.16.3-.11.33-.06.35-.01.17v6.8l.01-.18v.35l.06.35.11.32.16.31.21.28.25.24.28.2.32.15.33.09.35.05z" style="stroke-width:0.53;fill:#FFFFFF;fill-opacity:0.50"/><text x="352.29" y="310.34" lengthAdjust="spacingAndGlyphs" style="font-size:5.69px;font-family:&quot;Liberation Sans&quot;" text-anchor="middle" textLength="49.2">HORACE TUCKER</text><path d="M227.85 470.51h57.46l-.09-.01.35-.01.34-.07.32-.12.31-.18.26-.22.23-.26.19-.29.14-.32.08-.34.03-.34h0v-15h0l-.03-.34-.08-.34-.14-.32-.19-.29-.23-.26-.26-.22-.31-.18-.32-.12-.34-.07-.26-.02h-57.46l.26.02-.35-.01-.34.04-.34.09-.31.15-.29.2-.25.24-.21.28-.16.31-.11.33-.05.34-.01.17v15l.01-.18v.35l.05.34.11.33.16.31.21.28.25.24.29.2.31.14.34.1.34.04z" style="stroke-width:0.53;fill:#FFFFFF;fill-opacity:0.50"/><text x="256.58" y="458.71" lengthAdjust="spacingAndGlyphs" style="font-size:5.69px;font-family:&quot;Liberation Sans&quot;" text-anchor="middle" textLength="54.58">HORACE TUCKER &amp;</text><text x="256.58" y="466.91" lengthAdjust="spacingAndGlyphs" style="font-size:5.69px;font-family:&quot;Liberation Sans&quot;" text-anchor="middle" textLength="34.16">VNEEDA HW</text><path d="M267.06 172.49h53.66-.08l.35-.02.34-.07.32-.12.3-.17.27-.22.23-.26.19-.3.13-.32.09-.34.02-.34h0v-14.99h0l-.02-.35-.09-.34-.13-.32-.19-.29-.23-.26-.27-.22-.3-.17-.32-.13-.34-.07-.27-.01h-53.66l.26.01-.34-.01-.35.04-.33.1-.32.15-.28.19-.25.24-.21.28-.16.31-.11.33-.06.34-.01.18v14.99l.01-.18v.35l.06.34.11.33.16.31.21.28.25.24.28.2.32.15.33.09.35.05z" style="stroke-width:0.53;fill:#FFFFFF;fill-opacity:0.50"/><text x="293.89" y="160.69" lengthAdjust="spacingAndGlyphs" style="font-size:5.69px;font-family:&quot;Liberation Sans&quot;" text-anchor="middle" textLength="50.78">HORACE TUCKER,</text><text x="293.89" y="168.89" lengthAdjust="spacingAndGlyphs" style="font-size:5.69px;font-family:&quot;Liberation Sans&quot;" text-anchor="middle" textLength="48.27">UNEEDA TUCKER</text><path d="M109.13 443.12h57.9-.09l.35-.02.34-.07.32-.12.3-.17.27-.22.23-.26.19-.3.14-.32.08-.33.03-.35h0v-14.99h0l-.03-.35-.08-.34-.14-.32-.19-.29-.23-.26-.27-.22-.3-.17-.32-.13-.34-.07-.26-.01h-57.9l.26.01-.35-.01-.34.04-.33.1-.32.15-.28.2-.26.24-.2.27-.17.31-.11.33-.05.34-.01.18v14.99l.01-.17v.34l.05.35.11.33.17.3.2.28.26.24.28.2.32.15.33.1.34.04z" style="stroke-width:0.53;fill:#FFFFFF;fill-opacity:0.50"/><text x="138.08" y="431.33" lengthAdjust="spacingAndGlyphs" style="font-size:5.69px;font-family:&quot;Liberation Sans&quot;" text-anchor="middle" textLength="55.02">HORACE &amp; UNEEDA</text><text x="138.08" y="439.52" lengthAdjust="spacingAndGlyphs" style="font-size:5.69px;font-family:&quot;Liberation Sans&quot;" text-anchor="middle" textLength="23.39">TUCKER</text><path d="M146.64 145.06h68.52-.09l.35-.02.34-.07.32-.12.3-.17.27-.22.23-.26.19-.3.13-.32.09-.33.03-.35h0v-14.99h0l-.03-.35-.09-.34-.13-.32-.19-.29-.23-.26-.27-.22-.3-.17-.32-.13-.34-.07-.26-.01h-68.52l.26.01-.35-.01-.35.04-.33.1-.31.15-.29.19-.25.25-.21.27-.16.31-.11.33-.06.34v15.17-.18.35l.06.35.11.33.16.3.21.28.25.24.29.2.31.15.33.09.35.05z" style="stroke-width:0.53;fill:#FFFFFF;fill-opacity:0.50"/><text x="180.9" y="133.26" lengthAdjust="spacingAndGlyphs" style="font-size:5.69px;font-family:&quot;Liberation Sans&quot;" text-anchor="middle" textLength="65.64">HORACE TUCKER SR &amp;,</text><text x="180.9" y="141.46" lengthAdjust="spacingAndGlyphs" style="font-size:5.69px;font-family:&quot;Liberation Sans&quot;" text-anchor="middle" textLength="59.02">VNEEDA TUCKER HW</text><path d="M199.23 293.46h63.85-.08l.34-.02.34-.07.33-.12.3-.17.27-.22.23-.26.19-.3.13-.32.09-.33.02-.35h0v-14.99h0l-.02-.35-.09-.34-.13-.32-.19-.29-.23-.26-.27-.22-.3-.17-.33-.13-.34-.07-.26-.01h-63.85l.27.01-.35-.01-.35.04-.33.1-.32.15-.28.2-.25.24-.21.27-.16.31-.11.33-.06.34-.01.18v14.99l.01-.17v.34l.06.35.11.33.16.3.21.28.25.24.28.2.32.15.33.1.35.04z" style="stroke-width:0.53;fill:#FFFFFF;fill-opacity:0.50"/><text x="231.16" y="281.67" lengthAdjust="spacingAndGlyphs" style="font-size:5.69px;font-family:&quot;Liberation Sans&quot;" text-anchor="middle" textLength="48.55">1845 W DAISY LN,</text><text x="231.16" y="289.86" lengthAdjust="spacingAndGlyphs" style="font-size:5.69px;font-family:&quot;Liberation Sans&quot;" text-anchor="middle" textLength="60.97">MILWAUKEE, WI 53209</text></g><g clip-path="url(#cpMC4wMHw0MzIuMDB8MC4wMHw1MDQuMDA=)"><circle cx="155.2" cy="97.06" r="1.95" style="stroke-width:0.71;stroke:none;fill:#F8766D"/><path d="m231.6 94.02 2.63 4.56h-5.26z" style="stroke-width:0.71;stroke:none;fill:#00BFC4"/><text x="169.32" y="100.22" lengthAdjust="spacingAndGlyphs" style="font-size:8.80px;font-weight:0;font-family:&quot;Nimbus Sans Narrow&quot;" textLength="48.16">mprop address</text><text x="245.72" y="100.22" lengthAdjust="spacingAndGlyphs" style="font-size:8.80px;font-weight:0;font-family:&quot;Nimbus Sans Narrow&quot;" textLength="39.72">owner name</text><text x="29.89" y="65.35" lengthAdjust="spacingAndGlyphs" style="font-size:12.00px;font-weight:0;font-family:&quot;Nimbus Sans Narrow&quot;" textLength="252.11">includes 11 parcels, 21 units, and 6 distinct owner names.</text><text x="29.89" y="42.81" lengthAdjust="spacingAndGlyphs" style="font-size:18.00px;font-weight:0;font-family:&quot;Nimbus Sans Narrow&quot;" textLength="203.34">HORACE TUCKER etc Group</text></g></g></svg>