<svg xmlns="http://www.w3.org/2000/svg" width="576" height="672" class="svglite" viewBox="0 0 432 504"><defs><style><![CDATA[.svglite line,.svglite polyline,.svglite polygon,.svglite path,.svglite circle{fill:none;stroke:#000000;stroke-linecap:round;stroke-linejoin:round;stroke-miterlimit:10.00}]]></style></defs><rect width="100%" height="100%" style="stroke-linecap:round;stroke-linejoin:round;stroke-miterlimit:10.00;stroke:none;fill:#FFFFFF"/><defs><clipPath id="cpMC4wMHw0MzIuMDB8MC4wMHw1MDQuMDA="><path d="M0 0h432v504H0z"/></clipPath></defs><g clip-path="url(#cpMC4wMHw0MzIuMDB8MC4wMHw1MDQuMDA=)"><path d="M0 0h432v504H0z" style="stroke-width:1.07;stroke:none;fill:#FFFFFF"/></g><defs><clipPath id="cpMzIuNjN8NDAyLjExfDE0MS4yMnw0NzEuMzc="><path d="M32.63 141.22h369.48v330.15H32.63z"/></clipPath></defs><g clip-path="url(#cpMzIuNjN8NDAyLjExfDE0MS4yMnw0NzEuMzc=)"><path d="m283.12 356.74.67 1.01.67 1.01.66 1 .67 1.01.67 1 .67 1.01.67 1.01.66 1 .67 1.01.67 1.01.67 1 .66 1.01.67 1 .67 1.01.67 1.01.67 1 .66 1.01.67 1.01.67 1 .67 1.01.67 1 .66 1.01.67 1.01.67 1 .67 1.01.67 1.01.66 1 .67 1.01.67 1.01.67 1 .67 1.01.66 1 .67 1.01.67 1.01.67 1 .67 1.01.66 1.01.67 1 .67 1.01.67 1 .67 1.01.66 1.01.67 1 .67 1.01.67 1.01.67 1 .66 1.01.67 1 .67 1.01.67 1.01.67 1 .66 1.01.67 1.01.67 1 .67 1.01.67 1.01.66 1 .67 1.01.67 1 .67 1.01.67 1.01.66 1 .67 1.01.67 1.01.67 1 .67 1.01.66 1 .67 1.01.67 1.01.67 1 .67 1.01.66 1.01.67 1 .67 1.01.67 1 .67 1.01.66 1.01.67 1 .67 1.01.67 1.01.67 1 .66 1.01.67 1 .67 1.01.67 1.01.67 1 .66 1.01.67 1.01.67 1 .67 1.01.67 1.01.66 1 .67 1.01.67 1 .67 1.01.67 1.01.66 1 .67 1.01.67 1.01m-66.13-99.63-.58-1.26-.59-1.26-.58-1.26-.59-1.27-.58-1.26-.58-1.26-.59-1.26-.58-1.26-.59-1.27-.58-1.26-.58-1.26-.59-1.26-.58-1.27-.59-1.26-.58-1.26-.58-1.26-.59-1.26-.58-1.27-.59-1.26-.58-1.26-.58-1.26-.59-1.26-.58-1.27-.58-1.26-.59-1.26-.58-1.26-.59-1.27-.58-1.26-.58-1.26-.59-1.26-.58-1.26-.59-1.27-.58-1.26-.58-1.26-.59-1.26-.58-1.26-.59-1.27-.58-1.26-.58-1.26-.59-1.26-.58-1.27-.59-1.26-.58-1.26-.58-1.26-.59-1.26-.58-1.27-.59-1.26-.58-1.26-.58-1.26-.59-1.27-.58-1.26-.58-1.26-.59-1.26-.58-1.26-.59-1.27-.58-1.26-.58-1.26-.59-1.26-.58-1.26-.59-1.27-.58-1.26-.58-1.26-.59-1.26-.58-1.27-.59-1.26-.58-1.26-.58-1.26-.59-1.26-.58-1.27-.59-1.26-.58-1.26-.58-1.26-.59-1.26-.58-1.27-.58-1.26-.59-1.26-.58-1.26-.59-1.27-.58-1.26-.58-1.26-.59-1.26-.58-1.26-.59-1.27-.58-1.26-.58-1.26-.59-1.26-.58-1.27-.59-1.26-.58-1.26-.58-1.26-.59-1.26-.58-1.27-.59-1.26-.58-1.26-.58-1.26-.59-1.26-.58-1.27-.58-1.26-.59-1.26" style="stroke-width:1.07;stroke:#000000;stroke-opacity:0.10;stroke-linecap:butt"/><path d="m190.34 156.23-6.13 1.17-5.99 1.17-5.86 1.17-5.72 1.17-5.58 1.17-5.45 1.16-5.31 1.17-5.17 1.17-5.04 1.17-4.9 1.17-4.77 1.17-4.63 1.16-4.49 1.17-4.36 1.17-4.22 1.17-4.09 1.16-3.94 1.17-3.82 1.17-3.67 1.17-3.54 1.16-3.41 1.17-3.26 1.17-3.14 1.16-2.99 1.17-2.86 1.17-2.72 1.16-2.59 1.17-2.45 1.16-2.31 1.17-2.18 1.17-2.04 1.16-1.91 1.17-1.77 1.16-1.63 1.17-1.5 1.16-1.36 1.17-1.22 1.16-1.09 1.17-.96 1.16-.81 1.17-.68 1.16-.54 1.17-.41 1.16-.27 1.16-.14 1.17v1.16l.14 1.16.27 1.17.41 1.16.55 1.17.68 1.16.82 1.16.96 1.16 1.09 1.17 1.22 1.16 1.37 1.16 1.5 1.17 1.63 1.16 1.78 1.16 1.9 1.16 2.05 1.16 2.18 1.17 2.32 1.16 2.45 1.16 2.59 1.16 2.72 1.16 2.86 1.16 3 1.17 3.14 1.16 3.27 1.16 3.4 1.16 3.55 1.16 3.67 1.16 3.82 1.16 3.95 1.16 4.09 1.16 4.22 1.16 4.36 1.16 4.5 1.16 4.63 1.16 4.77 1.16 4.9 1.16 5.04 1.16 5.18 1.16 5.31 1.16 5.45 1.16 5.59 1.16 5.72 1.16 5.86 1.15 5.99 1.16 6.14 1.16 6.26 1.16 6.4 1.16 6.54 1.16 6.68 1.15 6.81 1.16 6.95 1.16 7.08 1.16 7.22 1.15" style="stroke-width:1.07;stroke:#000000;stroke-opacity:0.10;stroke-linecap:butt"/><path d="m190.34 156.23-4.03.77-3.93.76-3.85.77-3.76.77-3.67.77-3.57.76-3.49.77-3.4.76-3.31.77-3.22.77-3.14.76-3.04.77-2.95.77-2.86.76-2.78.77-2.68.76-2.6.77-2.5.76-2.42.77-2.33.77-2.24.76-2.15.77-2.05.76-1.97.77-1.89.76-1.79.77-1.7.76-1.61.77-1.52.76-1.44.77-1.34.76-1.26.77-1.16.76-1.08.77-.99.76-.89.76-.81.77-.72.76-.63.77-.54.76-.45.76-.36.77-.28.76-.18.77-.09.76-.01.76.09.77.17.76.27.76.35.77.44.76.53.76.63.77.71.76.8.76.89.76.97.77 1.07.76 1.16.76 1.25.76 1.33.77 1.43.76 1.51.76 1.61.76 1.69.76 1.78.77 1.88.76 1.96.76 2.05.76 2.14.76 2.23.77 2.32.76 2.41.76 2.5.76 2.58.76 2.68.76 2.76.76 2.86.76 2.94.77 3.04.76 3.12.76 3.21.76 3.31.76 3.39.76 3.48.76 3.57.76 3.66.76 3.75.76 3.84.76 3.92.76 4.02.76 4.11.76 4.19.76 4.29.76 4.37.76 4.46.76 4.56.76 4.64.76 4.73.76m-34.97-75.56.54 1.16.55 1.17.55 1.16.54 1.16.55 1.17.54 1.16.55 1.16.55 1.17.54 1.16.55 1.16.54 1.17.55 1.16.55 1.16.54 1.17.55 1.16.54 1.16.55 1.17.55 1.16.54 1.17.55 1.16.55 1.16.54 1.17.55 1.16.54 1.16.55 1.17.55 1.16.54 1.16.55 1.17.54 1.16.55 1.16.55 1.17.54 1.16.55 1.16.54 1.17.55 1.16.55 1.16.54 1.17.55 1.16.55 1.16.54 1.17.55 1.16.54 1.16.55 1.17.55 1.16.54 1.16.55 1.17.54 1.16.55 1.16.55 1.17.54 1.16.55 1.16.55 1.17.54 1.16.55 1.16.54 1.17.55 1.16.55 1.16.54 1.17.55 1.16.54 1.16.55 1.17.55 1.16.54 1.16.55 1.17.54 1.16.55 1.16.55 1.17.54 1.16.55 1.16.55 1.17.54 1.16.55 1.16.54 1.17.55 1.16.55 1.16.54 1.17.55 1.16.54 1.16.55 1.17.55 1.16.54 1.16.55 1.17.55 1.16.54 1.16.55 1.17.54 1.16.55 1.16.55 1.17.54 1.16.55 1.16.54 1.17.55 1.16.55 1.16.54 1.17.55 1.16.54 1.16.55 1.17.55 1.16.54 1.16" style="stroke-width:1.07;stroke:#000000;stroke-opacity:0.10;stroke-linecap:butt"/><path d="m190.34 156.23.35.76.35.77.36.76.35.76.35.77.36.76.35.76.35.77.36.76.35.76.35.77.36.76.35.76.35.77.36.76.35.76.35.77.36.76.35.76.35.77.36.76.35.76.35.76.36.77.35.76.35.76.36.77.35.76.35.76.36.77.35.76.35.76.35.77.36.76.35.76.35.77.36.76.35.76.35.77.36.76.35.76.35.77.36.76.35.76.35.77.36.76.35.76.35.77.36.76.35.76.35.76.36.77.35.76.35.76.36.77.35.76.35.76.36.77.35.76.35.76.36.77.35.76.35.76.36.77.35.76.35.76.36.77.35.76.35.76.36.77.35.76.35.76.36.77.35.76.35.76.36.77.35.76.35.76.36.76.35.77.35.76.36.76.35.77.35.76.36.76.35.77.35.76.36.76.35.77.35.76.36.76.35.77.35.76.35.76.36.77.35.76.35.76.36.77.35.76m-34.97-75.56 7.22 1.16 7.08 1.16 6.95 1.15 6.81 1.16 6.68 1.16 6.53 1.16 6.41 1.16 6.26 1.15 6.14 1.16 5.99 1.16 5.86 1.16 5.72 1.16 5.59 1.16 5.44 1.16 5.32 1.16 5.18 1.16 5.04 1.16 4.9 1.15 4.77 1.16 4.63 1.16 4.5 1.16 4.36 1.16 4.22 1.16 4.09 1.16 3.95 1.17 3.82 1.16 3.67 1.16 3.55 1.16 3.4 1.16 3.27 1.16 3.14 1.16 3 1.16 2.86 1.16 2.72 1.16 2.59 1.17 2.45 1.16 2.32 1.16 2.18 1.16 2.05 1.16 1.9 1.17 1.78 1.16 1.63 1.16 1.5 1.16 1.37 1.17 1.22 1.16 1.09 1.16.96 1.16.82 1.17.68 1.16.54 1.16.41 1.17.28 1.16.14 1.16v1.17l-.14 1.16-.27 1.17-.41 1.16-.54 1.17-.68 1.16-.82 1.16-.95 1.17-1.09 1.16-1.22 1.17-1.36 1.16-1.5 1.17-1.63 1.16-1.77 1.17-1.91 1.16-2.04 1.17-2.18 1.17-2.31 1.16-2.45 1.17-2.59 1.16-2.72 1.17-2.86 1.17-2.99 1.16-3.14 1.17-3.26 1.17-3.41 1.16-3.54 1.17-3.67 1.17-3.82 1.16-3.94 1.17-4.09 1.17-4.22 1.17-4.36 1.16-4.49 1.17-4.63 1.17-4.77 1.17-4.9 1.17-5.04 1.16-5.17 1.17-5.31 1.17-5.45 1.17-5.58 1.17-5.72 1.17-5.86 1.17-5.99 1.17-6.13 1.16" style="stroke-width:1.07;stroke:#000000;stroke-opacity:0.10;stroke-linecap:butt"/><path d="m190.34 156.23 4.73.76 4.64.76 4.55.76 4.47.76 4.37.76 4.29.76 4.19.76 4.11.76 4.02.76 3.92.76 3.84.76 3.75.76 3.66.76 3.57.76 3.48.76 3.39.76 3.3.76 3.22.76 3.12.76 3.03.76 2.95.77 2.85.76 2.77.76 2.68.76 2.58.76 2.5.76 2.41.76 2.32.76 2.23.77 2.14.76 2.05.76 1.96.76 1.87.76 1.79.77 1.69.76 1.6.76 1.52.76 1.42.76 1.34.77 1.25.76 1.15.76 1.07.76.98.77.89.76.8.76.71.76.62.77.54.76.44.76.35.77.27.76.17.76.09.77-.01.76-.09.76-.19.77-.27.76-.36.77-.45.76-.54.76-.63.77-.72.76-.81.77-.9.76-.98.76-1.08.77-1.16.76-1.26.77-1.34.76-1.44.77-1.52.76-1.61.77-1.71.76-1.79.77-1.88.76-1.97.77-2.06.76-2.15.77-2.23.76-2.33.77-2.42.77-2.5.76-2.6.77-2.68.76-2.78.77-2.86.76-2.95.77-3.05.77-3.13.76-3.22.77-3.31.77-3.4.76-3.49.77-3.58.76-3.66.77-3.76.77-3.85.77-3.93.76-4.03.77m0 0-3.25.4-3.18.41-3.11.4-3.04.4-2.97.4-2.9.41-2.83.4-2.76.4-2.68.41-2.62.4-2.55.4-2.48.4-2.41.41-2.33.4-2.27.4-2.2.4-2.12.41-2.06.4-1.98.4-1.92.4-1.84.4-1.78.41-1.7.4-1.64.4-1.56.4-1.5.4-1.42.4-1.35.41-1.29.4-1.21.4-1.14.4-1.07.4-1 .4-.94.4-.86.41-.79.4-.72.4-.65.4-.58.4-.51.4-.44.4-.37.4-.3.4-.23.4-.15.4-.09.4-.02.4.05.4.12.4.2.4.26.4.33.4.41.4.47.4.55.4.61.4.68.4.76.4.82.4.9.4.97.4 1.03.4 1.11.4 1.18.4 1.24.4 1.32.4 1.39.4 1.45.4 1.53.4 1.6.39 1.67.4 1.74.4 1.81.4 1.88.4 1.95.4 2.02.4 2.09.39 2.16.4 2.23.4 2.3.4 2.37.4 2.44.4 2.51.39 2.59.4 2.65.4 2.72.4 2.8.4 2.86.39 2.93.4 3.01.4 3.07.4 3.14.39 3.22.4 3.28.4 3.36.4 3.42.39 3.5.4 3.57.4 3.63.39" style="stroke-width:1.07;stroke:#000000;stroke-opacity:0.10;stroke-linecap:butt"/><path d="m225.31 231.79-.95.4-.94.4-.9.4-.89.4-.86.4-.84.41-.81.4-.79.4-.77.4-.74.4-.73.4-.69.4-.68.4-.65.4-.62.4-.61.41-.58.4-.55.4-.54.4-.51.4-.48.4-.47.4-.44.4-.41.4-.4.4-.37.4-.34.4-.32.4-.3.4-.28.41-.25.4-.23.4-.2.4-.19.4-.16.4-.13.4-.11.4-.09.4-.06.4-.05.4-.01.4v.4l.03.4.05.4.08.4.1.4.12.4.15.4.17.4.19.4.21.4.24.4.27.4.28.4.31.4.34.4.35.4.38.4.41.4.42.4.46.4.47.4.5.4.52.4.54.4.57.4.59.4.61.4.64.4.66.4.69.4.71.4.73.4.75.4.78.4.8.4.83.4.85.4.87.4.9.4.91.4.95.4.96.4.99.4 1.02.39 1.03.4 1.06.4 1.08.4 1.11.4 1.13.4 1.15.4 1.18.4 1.2.4 1.22.4 1.25.4 1.27.4 1.3.4 1.31.4 1.34.39" style="stroke-width:1.07;stroke:#000000;stroke-opacity:0.10;stroke-linecap:butt"/><path d="m225.31 231.79 1.34.4 1.32.4 1.29.4 1.27.4 1.25.39 1.22.4 1.2.4 1.18.4 1.15.4 1.13.4 1.11.4 1.08.4 1.06.4 1.04.4 1.01.4.99.4.97.4.94.4.92.4.89.4.88.4.84.39.83.4.8.4.78.4.76.4.73.4.71.4.68.4.66.4.64.4.61.4.6.4.56.4.55.4.52.4.5.4.47.4.45.4.43.4.4.4.38.4.36.4.33.4.31.4.29.4.26.4.24.4.22.4.19.4.17.4.14.4.13.4.1.4.07.4.05.4.03.4.01.4-.02.4-.04.4-.07.4-.08.4-.12.41-.13.4-.16.4-.18.4-.21.4-.23.4-.25.4-.27.4-.3.4-.32.4-.35.4-.37.4-.39.4-.42.4-.44.4-.46.4-.49.4-.51.41-.53.4-.56.4-.58.4-.6.4-.63.4-.65.4-.67.4-.7.4-.72.4-.75.4-.76.41-.79.4-.82.4-.84.4-.86.4-.88.4-.91.4-.93.4-.96.4" style="stroke-width:1.07;stroke:#000000;stroke-opacity:0.10;stroke-linecap:butt"/><path d="m225.31 231.79 3.64.4 3.56.39 3.5.4 3.42.4 3.36.39 3.29.4 3.21.4 3.14.4 3.08.39 3 .4 2.94.4 2.86.4 2.79.4 2.72.39 2.66.4 2.58.4 2.51.4 2.44.4 2.37.39 2.31.4 2.23.4 2.16.4 2.09.4 2.02.4 1.95.39 1.88.4 1.81.4 1.73.4 1.67.4 1.6.4 1.53.4 1.46.4 1.38.4 1.32.39 1.25.4 1.18.4 1.1.4 1.04.4.96.4.9.4.82.4.76.4.68.4.62.4.54.4.48.4.4.4.33.4.27.4.19.4.12.4.06.4-.02.4-.09.4-.16.4-.23.4-.3.4-.37.4-.44.4-.51.4-.58.41-.65.4-.72.4-.79.4-.86.4-.93.4-1 .4-1.08.4-1.14.4-1.21.41-1.28.4-1.36.4-1.42.4-1.49.4-1.57.4-1.63.41-1.71.4-1.77.4-1.85.4-1.91.4-1.99.41-2.05.4-2.13.4-2.2.4-2.26.4-2.34.41-2.41.4-2.48.4-2.54.41-2.62.4-2.69.4-2.76.4-2.83.41-2.9.4-2.97.4-3.04.41-3.11.4-3.18.4-3.25.4" style="stroke-width:1.07;stroke:#000000;stroke-opacity:0.10;stroke-linecap:butt"/><path d="m283.12 354.53 1.91 3.32h-3.83zm-92.78-207.28 7.78 13.47h-15.56z" style="stroke-width:0.71;stroke:none;fill:#00BA38"/><path d="M218.56 238.55h13.51v-13.52h-13.51z" style="stroke-width:0.71;stroke:none;fill:#619CFF"/><circle cx="349.25" cy="456.37" r="1.42" style="stroke-width:0.71;stroke:none;fill:#F8766D"/><circle cx="244.4" cy="271.4" r="5.78" style="stroke-width:0.71;stroke:none;fill:#F8766D"/><path d="m288.06 352.11-4.11 3.85M185.36 160.9l4.14-3.89m40.77 70.12-4.13 3.88m128.04 220.68-4.1 3.89m-100.75-188.8-4.09 3.84" style="stroke-width:0.53;stroke:#BFBFBF"/><path d="M265.68 352.11h67.02l-.09-.01.35-.01.34-.07.33-.12.3-.18.27-.22.23-.26.18-.29.14-.32.08-.34.03-.34h0v-15.16h0l-.03-.35-.08-.33-.14-.32-.18-.3-.23-.26-.27-.22-.3-.17-.33-.12-.34-.07-.26-.02h-67.02l.26.02-.35-.02-.34.04-.33.1-.32.15-.28.2-.26.24-.2.28-.17.3-.11.33-.05.35-.01.17v15.16l.01-.18v.35l.05.34.11.33.17.31.2.28.26.24.28.2.32.15.33.09.34.04z" style="stroke-width:0.53;fill:#FFFFFF;fill-opacity:0.50"/><text x="299.19" y="340.31" lengthAdjust="spacingAndGlyphs" style="font-size:5.69px;font-family:Arial" text-anchor="middle" textLength="64.14">2210 N BOOTH STREET</text><text x="299.19" y="348.51" lengthAdjust="spacingAndGlyphs" style="font-size:5.69px;font-family:Arial" text-anchor="middle" textLength="10.43">LLC</text><path d="M141.8 180.38h64.8-.08l.35-.02.34-.07.32-.12.3-.17.27-.22.23-.26.19-.3.13-.32.09-.34.02-.34h0v-15.16h0l-.02-.35-.09-.33-.13-.32-.19-.3-.23-.26-.27-.22-.3-.17-.32-.12-.34-.07-.27-.02h-64.8l.27.02-.35-.02-.35.04-.33.1-.32.15-.28.2-.25.24-.21.28-.16.3-.11.33-.06.35-.01.17v15.16l.01-.18v.35l.06.34.11.33.16.31.21.28.25.24.28.2.32.15.33.09.35.05z" style="stroke-width:0.53;fill:#FFFFFF;fill-opacity:0.50"/><text x="174.2" y="168.58" lengthAdjust="spacingAndGlyphs" style="font-size:5.69px;font-family:Arial" text-anchor="middle" textLength="61.92">HUNTER PROPERTIES</text><text x="174.2" y="176.78" lengthAdjust="spacingAndGlyphs" style="font-size:5.69px;font-family:Arial" text-anchor="middle" textLength="10.43">LLC</text><path d="M209.18 227.13h64.49-.09l.35-.01.34-.07.32-.12.3-.18.27-.22.23-.26.19-.29.13-.32.09-.34.03-.35h0v-15.15h0l-.03-.35-.09-.34-.13-.32-.19-.29-.23-.26-.27-.22-.3-.17-.32-.13-.34-.07-.26-.01h-64.49l.26.01-.35-.01-.35.04-.33.1-.31.15-.29.19-.25.25-.21.27-.16.31-.11.33-.06.34v15.33-.17.35l.06.34.11.33.16.31.21.28.25.24.29.2.31.14.33.1.35.04z" style="stroke-width:0.53;fill:#FFFFFF;fill-opacity:0.50"/><text x="241.42" y="215.34" lengthAdjust="spacingAndGlyphs" style="font-size:5.69px;font-family:Arial" text-anchor="middle" textLength="43.92">PO BOX 170221,</text><text x="241.42" y="223.53" lengthAdjust="spacingAndGlyphs" style="font-size:5.69px;font-family:Arial" text-anchor="middle" textLength="61.61">MILWAUKEE, WI 53217</text><path d="M331.86 451.69h64.49-.08l.34-.02.34-.06.33-.13.3-.17.27-.22.23-.26.18-.3.14-.32.08-.33.03-.35h0v-15.16h0l-.03-.34-.08-.34-.14-.32-.18-.29-.23-.26-.27-.22-.3-.18-.33-.12-.34-.07-.26-.02h-64.49l.26.02-.35-.01-.34.04-.33.09-.32.15-.28.2-.26.24-.2.28-.17.31-.11.33-.05.34-.01.17v15.16l.01-.17v.34l.05.35.11.33.17.31.2.27.26.24.28.2.32.15.33.1.34.04z" style="stroke-width:0.53;fill:#FFFFFF;fill-opacity:0.50"/><text x="364.11" y="439.9" lengthAdjust="spacingAndGlyphs" style="font-size:5.69px;font-family:Arial" text-anchor="middle" textLength="43.92">PO BOX 170221,</text><text x="364.11" y="448.09" lengthAdjust="spacingAndGlyphs" style="font-size:5.69px;font-family:Arial" text-anchor="middle" textLength="61.61">MILWAUKEE, WI 17022</text><path d="M228.22 266.78h64.49l-.09-.01.35-.01.34-.07.33-.12.3-.18.27-.22.23-.26.18-.29.14-.32.08-.34.03-.34h0v-15.16h0l-.03-.35-.08-.34-.14-.32-.18-.29-.23-.26-.27-.22-.3-.17-.33-.13-.34-.07-.26-.01h-64.49l.26.01-.35-.01-.34.04-.34.1-.31.15-.29.2-.25.24-.21.27-.16.31-.11.33-.05.34-.01.18v15.16l.01-.18v.35l.05.34.11.33.16.31.21.28.25.24.29.2.31.14.34.1.34.04z" style="stroke-width:0.53;fill:#FFFFFF;fill-opacity:0.50"/><text x="260.46" y="254.98" lengthAdjust="spacingAndGlyphs" style="font-size:5.69px;font-family:Arial" text-anchor="middle" textLength="43.92">PO BOX 170221,</text><text x="260.46" y="263.18" lengthAdjust="spacingAndGlyphs" style="font-size:5.69px;font-family:Arial" text-anchor="middle" textLength="61.61">MILWAUKEE, WI 53217</text></g><g clip-path="url(#cpMC4wMHw0MzIuMDB8MC4wMHw1MDQuMDA=)"><circle cx="124.98" cy="116.15" r="1.95" style="stroke-width:0.71;stroke:none;fill:#F8766D"/><path d="m201.33 113.11 2.63 4.56h-5.26z" style="stroke-width:0.71;stroke:none;fill:#00BA38"/><path d="M267.31 118.1h3.91v-3.91h-3.91z" style="stroke-width:0.71;stroke:none;fill:#619CFF"/><text x="139.09" y="119.3" lengthAdjust="spacingAndGlyphs" style="font-size:8.80px;font-family:Arial Narrow" textLength="48.12">mprop address</text><text x="215.45" y="119.3" lengthAdjust="spacingAndGlyphs" style="font-size:8.80px;font-family:Arial Narrow" textLength="39.69">owner name</text><text x="283.38" y="119.3" lengthAdjust="spacingAndGlyphs" style="font-size:8.80px;font-family:Arial Narrow" textLength="40.5">wdfi address</text><text x="32.63" y="84.56" lengthAdjust="spacingAndGlyphs" style="font-size:12.00px;font-family:Arial Narrow" textLength="246.76">includes 4 parcels, 13 units, and 2 distinct owner names.</text><text x="32.63" y="42.78" lengthAdjust="spacingAndGlyphs" style="font-size:18.00px;font-weight:bold;font-family:Arial Narrow" textLength="316.52">HUNTER PROPERTIES LLC -- 2210 N BOOTH</text><text x="32.63" y="62.22" lengthAdjust="spacingAndGlyphs" style="font-size:18.00px;font-weight:bold;font-family:Arial Narrow" textLength="139.37">STREET LLC Group</text></g></svg>