<svg xmlns="http://www.w3.org/2000/svg" width="576" height="576" class="svglite" viewBox="0 0 432 432"><defs><style>.svglite circle,.svglite line,.svglite polygon,.svglite polyline,.svglite rect{fill:none;stroke:#000;stroke-linecap:round;stroke-linejoin:round;stroke-miterlimit:10}.svglite text{white-space:pre}</style></defs><rect width="100%" height="100%" style="stroke:none;fill:#fff"/><defs><clipPath id="cpMC4wMHw0MzIuMDB8MC4wMHw0MzIuMDA="><path d="M0 0h432v432H0z"/></clipPath></defs><g clip-path="url(#cpMC4wMHw0MzIuMDB8MC4wMHw0MzIuMDA=)"><path d="M0 0h432v432H0z" style="stroke-width:1.07;stroke:none;fill:#fff"/></g><defs><clipPath id="cpMzIuNjN8NDAyLjExfDEyMC44NnwzOTkuMzc="><path d="M32.63 120.86h369.48v278.51H32.63z"/></clipPath></defs><g clip-path="url(#cpMzIuNjN8NDAyLjExfDEyMC44NnwzOTkuMzc=)"><path d="m295.34 238-.92.08-.92.08-.92.09-.92.08-.91.09-.92.08-.92.09-.92.08-.92.09-.92.08-.92.08-.92.09-.92.08-.92.09-.92.08-.92.09-.92.08-.92.08-.92.09-.92.08-.92.09-.92.08-.92.09-.91.08-.92.08-.92.09-.92.08-.92.09-.92.08-.92.09-.92.08-.92.08-.92.09-.92.08-.92.09-.92.08-.92.09-.92.08-.92.08-.92.09-.92.08-.91.09-.92.08-.92.09-.92.08-.92.08-.92.09-.92.08-.92.09-.92.08-.92.09-.92.08-.92.08-.92.09-.92.08-.92.09-.92.08-.92.09-.92.08-.91.08-.92.09-.92.08-.92.09-.92.08-.92.09-.92.08-.92.08-.92.09-.92.08-.92.09-.92.08-.92.09-.92.08-.92.08-.92.09-.92.08-.92.09-.91.08-.92.09-.92.08-.92.08-.92.09-.92.08-.92.09-.92.08-.92.09-.92.08-.92.08-.92.09-.92.08-.92.09-.92.08-.92.09-.92.08-.92.08-.92.09-.91.08-.92.09-.92.08M108.98 255.08l-.27-1.63-.27-1.63-.29-1.62-.28-1.61-.3-1.6-.3-1.6-.31-1.58-.32-1.58-.32-1.57-.33-1.56-.34-1.55-.34-1.55-.35-1.53-.36-1.53-.36-1.52-.37-1.51-.38-1.5-.38-1.5-.39-1.48-.4-1.48-.4-1.47-.41-1.46-.42-1.45-.43-1.45-.43-1.43-.44-1.43-.44-1.42-.45-1.41-.46-1.4-.47-1.4-.47-1.38-.48-1.38-.48-1.37-.5-1.36-.5-1.35-.5-1.35-.52-1.33-.52-1.33-.52-1.32-.54-1.31-.54-1.3-.54-1.3-.56-1.29-.56-1.27-.57-1.27-.57-1.26-.58-1.26-.59-1.24-.6-1.24-.6-1.23-.61-1.22-.61-1.21-.62-1.2-.63-1.19-.64-1.19-.64-1.18-.65-1.17-.65-1.16-.67-1.15-.67-1.15-.67-1.13-.69-1.13-.69-1.12-.69-1.11-.71-1.11-.71-1.09-.71-1.09-.73-1.07-.73-1.07-.74-1.07-.74-1.05-.75-1.04-.76-1.04-.77-1.03-.77-1.02-.78-1.01-.78-1-.79-1-.8-.98-.81-.98-.81-.97-.82-.96-.83-.96-.83-.94-.84-.94-.84-.93-.86-.92-.86-.91-.86-.9-.88-.9-.88-.88-.89-.88-.89-.87-.9-.86-.91-.86-.91-.84-.92-.84-.93-.83-.94-.82M108.98 255.08l-.9.96-.89.97-.88.97-.87.98-.86.99-.86 1-.85 1.01-.84 1.01-.83 1.02-.83 1.02-.81 1.04-.81 1.04-.8 1.05-.8 1.06-.78 1.06-.78 1.07-.77 1.08-.76 1.09-.76 1.1-.74 1.1-.74 1.11-.73 1.12-.72 1.12-.71 1.14-.71 1.14-.7 1.15-.69 1.15-.68 1.16-.67 1.17-.67 1.18-.66 1.19-.65 1.19-.64 1.2-.64 1.21-.62 1.22-.62 1.22-.61 1.23-.61 1.24-.59 1.25-.59 1.25-.58 1.26-.57 1.27-.56 1.28-.56 1.28-.54 1.3-.54 1.3-.53 1.3-.53 1.32-.51 1.32-.51 1.33-.5 1.34-.49 1.34-.49 1.35-.47 1.36-.47 1.37-.46 1.37-.45 1.39-.45 1.39-.43 1.39-.43 1.41-.42 1.41-.42 1.42-.4 1.43-.4 1.44-.39 1.44-.38 1.45-.37 1.46-.36 1.46-.36 1.48-.35 1.48-.34 1.49-.33 1.49-.33 1.51-.32 1.51-.31 1.52-.3 1.52-.29 1.54-.29 1.54-.27 1.55-.27 1.55-.27 1.57-.25 1.57-.24 1.58-.24 1.58-.23 1.6-.23 1.6-.21 1.61-.21 1.62-.19 1.62-.19 1.63-.19 1.64-.17 1.65-.17 1.66-.16 1.66-.15 1.67-.14 1.67-.13 1.69-.13 1.69-.12 1.7M295.34 238l.91-.04.91-.04.91-.03.91-.04.91-.04.92-.04.91-.05.91-.04.91-.04.91-.05.91-.04.91-.05.91-.05.91-.04.91-.05.91-.05.91-.06.91-.05.91-.05.91-.06.91-.05.91-.06.91-.05.91-.06.91-.06.91-.06.91-.06.91-.07.9-.06.91-.06.91-.07.91-.06.91-.07.91-.07.91-.07.91-.07.91-.07.91-.07.91-.07.91-.08.91-.07.91-.08.91-.07.9-.08.91-.08.91-.08.91-.08.91-.08.91-.08.91-.09.91-.08.91-.08.9-.09.91-.09.91-.09.91-.09.91-.09.91-.09.91-.09.9-.09.91-.1.91-.09.91-.1.91-.09.91-.1.9-.1.91-.1.91-.1.91-.1.91-.11.91-.1.9-.1.91-.11.91-.11.91-.1.91-.11.9-.11.91-.11.91-.11.91-.11.9-.12.91-.11.91-.12.91-.11.9-.12.91-.12.91-.12.91-.12.9-.12.91-.12.91-.12.91-.13.9-.12.91-.13.91-.13.91-.12.9-.13.91-.13.91-.13" style="stroke-width:1.07;stroke:#000;stroke-opacity:.1;stroke-linecap:butt"/><path d="m108.98 255.08-.32-1.57-.33-1.57-.33-1.55-.33-1.56-.35-1.54-.34-1.54-.36-1.53-.36-1.52-.36-1.52-.37-1.51-.38-1.5-.38-1.5-.39-1.49-.4-1.48-.4-1.47-.4-1.47-.42-1.46-.41-1.45-.43-1.45-.42-1.44-.44-1.43-.44-1.42-.45-1.42-.45-1.41-.46-1.41-.46-1.39-.47-1.39-.47-1.39-.48-1.37-.49-1.37-.49-1.36-.5-1.36-.5-1.35-.51-1.34-.52-1.33-.52-1.33-.53-1.32-.53-1.31-.54-1.3-.54-1.3-.55-1.29-.56-1.29-.56-1.27-.57-1.27-.57-1.27-.58-1.25-.58-1.25-.59-1.24-.6-1.24-.6-1.23-.61-1.22-.61-1.21-.62-1.21-.62-1.2-.63-1.19-.64-1.19-.64-1.18-.65-1.17-.65-1.16-.66-1.16-.67-1.15-.67-1.14-.67-1.14-.69-1.13-.68-1.12-.7-1.12-.7-1.1-.7-1.1-.71-1.1-.72-1.09-.72-1.08-.73-1.07-.73-1.07-.74-1.05-.75-1.06-.75-1.04-.76-1.04-.76-1.03-.77-1.02-.77-1.02-.78-1.01-.79-1-.79-1-.8-.99-.8-.98-.81-.97-.81-.97-.82-.96-.83-.95-.83-.95-.84-.94-.84-.93-.85-.93-.86-.91-.86-.91-.86-.91-.88-.89-.87-.89-.89-.89M108.98 255.08l-.84 1.02-.84 1.01-.82 1.03-.82 1.03-.82 1.04-.8 1.04-.8 1.05-.8 1.06-.78 1.06-.78 1.07-.78 1.08-.76 1.08-.76 1.09-.75 1.1-.75 1.1-.74 1.11-.73 1.12-.73 1.12-.71 1.13-.72 1.13-.7 1.15-.7 1.14-.69 1.16-.68 1.16-.68 1.17-.67 1.17-.67 1.18-.65 1.19-.65 1.19-.65 1.2-.63 1.21-.64 1.21-.62 1.22-.61 1.23-.61 1.23-.61 1.24-.59 1.24-.59 1.25-.59 1.26-.57 1.27-.57 1.27-.56 1.28-.56 1.28-.55 1.29-.54 1.3-.53 1.3-.53 1.31-.52 1.32-.52 1.32-.5 1.33-.5 1.34-.5 1.34-.49 1.35-.48 1.35-.47 1.37-.47 1.37-.46 1.37-.45 1.38-.45 1.39-.44 1.39-.43 1.41-.43 1.4-.41 1.42-.42 1.42-.4 1.42-.4 1.44-.39 1.44-.39 1.44-.38 1.46-.37 1.45-.36 1.47-.36 1.47-.35 1.48-.35 1.49-.34 1.49-.33 1.5-.32 1.5-.32 1.51-.31 1.52-.3 1.52-.3 1.53-.29 1.54-.28 1.54-.28 1.55-.27 1.56-.26 1.56-.26 1.57-.25 1.58-.24 1.58-.24 1.59-.22 1.6-.23 1.6-.21 1.61-.21 1.61-.2 1.62-.2 1.63-.18 1.63-.19 1.65-.17 1.64" style="stroke-width:1.07;stroke:#000;stroke-opacity:.1;stroke-linecap:butt"/><path d="m108.98 255.08-.37-1.51-.38-1.5-.38-1.5-.38-1.49-.39-1.49-.4-1.48-.4-1.48-.4-1.47-.41-1.46-.41-1.46-.42-1.45-.42-1.45-.43-1.44-.43-1.44-.44-1.42-.44-1.43-.44-1.42-.46-1.41-.45-1.41-.46-1.4-.47-1.39-.47-1.39-.47-1.38-.48-1.38-.48-1.37-.49-1.37-.5-1.36-.49-1.35-.51-1.35-.5-1.35-.52-1.33-.51-1.34-.52-1.32-.53-1.32-.53-1.32-.54-1.3-.54-1.31-.54-1.29-.55-1.3-.56-1.28-.56-1.28-.56-1.27-.57-1.27-.57-1.27-.58-1.25-.58-1.25-.59-1.25-.59-1.24-.6-1.23-.6-1.23-.61-1.22-.61-1.22-.61-1.21-.62-1.2-.63-1.2-.63-1.2-.63-1.18-.64-1.18-.65-1.18-.65-1.17-.65-1.17-.66-1.15-.66-1.16-.67-1.14-.67-1.15-.68-1.13-.68-1.13-.68-1.13-.7-1.11-.69-1.12-.7-1.1-.71-1.1-.71-1.1-.71-1.09-.72-1.08-.72-1.08-.73-1.07-.74-1.07-.74-1.06-.74-1.06-.75-1.05-.75-1.04-.76-1.04-.76-1.03-.76-1.03-.77-1.02-.78-1.01-.78-1.01-.79-1-.79-1-.79-.99-.8-.99-.8-.98-.81-.97-.82-.97-.81-.96-.83-.96-.83-.95-.83-.95M108.98 255.08l-.79 1.07-.78 1.07-.77 1.07-.77 1.09-.76 1.08-.76 1.09-.75 1.1-.74 1.1-.74 1.11-.74 1.12-.73 1.11-.72 1.13-.72 1.13-.71 1.13-.71 1.14-.7 1.15-.69 1.15-.69 1.16-.68 1.16-.68 1.17-.67 1.17-.67 1.18-.66 1.18-.65 1.19-.65 1.2-.65 1.2-.64 1.2-.63 1.21-.62 1.22-.63 1.22-.61 1.23-.61 1.23-.6 1.24-.6 1.24-.6 1.25-.58 1.25-.58 1.26-.58 1.27-.57 1.27-.56 1.27-.56 1.28-.56 1.29-.54 1.29-.54 1.3-.54 1.3-.53 1.31-.53 1.31-.51 1.32-.52 1.33-.51 1.33-.5 1.33-.49 1.34-.49 1.35-.49 1.35-.48 1.35-.47 1.37-.47 1.36-.46 1.38-.46 1.37-.45 1.39-.45 1.39-.44 1.39-.43 1.4-.43 1.41-.42 1.41-.42 1.41-.41 1.42-.4 1.43-.4 1.43-.4 1.44-.39 1.44-.38 1.45-.38 1.46-.37 1.46-.37 1.46-.36 1.47-.35 1.48-.35 1.48-.34 1.48-.34 1.49-.33 1.5-.33 1.5-.32 1.51-.32 1.52-.3 1.51-.31 1.53-.3 1.53-.29 1.53-.29 1.54-.28 1.55-.27 1.55-.27 1.56-.27 1.56-.25 1.57-.26 1.57-.24 1.58-.24 1.58-.24 1.59-.23 1.59" style="stroke-width:1.07;stroke:#000;stroke-opacity:.1;stroke-linecap:butt"/><path d="m108.98 255.08-.42-1.44-.43-1.45-.43-1.44-.43-1.43-.44-1.43-.44-1.42-.44-1.42-.45-1.42-.45-1.41-.46-1.41-.45-1.4-.47-1.4-.46-1.39-.47-1.39-.48-1.39-.47-1.38-.48-1.37-.49-1.38-.49-1.36-.49-1.36-.49-1.36-.5-1.36-.51-1.34-.5-1.35-.51-1.34-.52-1.33-.51-1.34-.52-1.32-.53-1.32-.53-1.32-.53-1.31-.53-1.31-.54-1.31-.55-1.3-.54-1.29-.55-1.29-.56-1.29-.56-1.28-.56-1.28-.56-1.27-.57-1.27-.57-1.26-.58-1.26-.58-1.26-.58-1.25-.59-1.24-.59-1.24-.59-1.24-.6-1.23-.6-1.23-.61-1.22-.61-1.22-.61-1.22-.62-1.21-.62-1.2-.62-1.2-.63-1.2-.63-1.19-.63-1.19-.64-1.18-.64-1.18-.65-1.18-.65-1.17-.65-1.16-.66-1.16-.66-1.16-.66-1.15-.67-1.15-.67-1.14-.67-1.14-.68-1.13-.68-1.13-.69-1.13-.69-1.12-.69-1.11-.7-1.11-.7-1.11-.7-1.1-.71-1.1-.71-1.09-.72-1.09-.72-1.09-.72-1.08-.73-1.07-.73-1.07-.73-1.07-.74-1.06-.74-1.06-.74-1.05-.75-1.05-.75-1.05-.76-1.04-.76-1.03-.76-1.03-.77-1.03-.77-1.02-.77-1.02-.78-1.01-.78-1.01M108.98 255.08l-.73 1.12-.73 1.12-.72 1.13-.71 1.13-.71 1.14-.71 1.13-.7 1.15-.7 1.15-.7 1.15-.68 1.16-.69 1.16-.68 1.16-.67 1.17-.67 1.18-.67 1.17-.66 1.19-.66 1.18-.65 1.2-.65 1.19-.64 1.2-.64 1.21-.64 1.2-.63 1.22-.62 1.21-.63 1.23-.61 1.22-.61 1.23-.61 1.24-.6 1.23-.6 1.25-.6 1.25-.59 1.25-.58 1.25-.58 1.26-.58 1.27-.57 1.27-.56 1.27-.57 1.28-.55 1.28-.56 1.29-.54 1.29-.55 1.29-.54 1.3-.53 1.31-.53 1.3-.53 1.32-.52 1.31-.52 1.32-.51 1.33-.51 1.33-.5 1.33-.5 1.34-.49 1.34-.49 1.35-.49 1.35-.48 1.36-.47 1.36-.48 1.36-.46 1.37-.46 1.37-.46 1.38-.46 1.38-.44 1.39-.45 1.39-.44 1.39-.43 1.4-.43 1.4-.43 1.41-.42 1.41-.42 1.42-.41 1.42-.41 1.42-.4 1.43-.4 1.44-.4 1.43-.39 1.45-.38 1.44-.38 1.45-.38 1.46-.37 1.46-.37 1.46-.36 1.47-.36 1.47-.35 1.48-.35 1.48-.34 1.48-.34 1.49-.34 1.5-.33 1.49-.33 1.51-.32 1.5-.32 1.51-.31 1.52-.31 1.52-.3 1.52-.3 1.53-.29 1.53-.29 1.54-.29 1.54" style="stroke-width:1.07;stroke:#000;stroke-opacity:.1;stroke-linecap:butt"/><path d="m108.98 255.08-.47-1.38-.48-1.38-.48-1.38-.48-1.38-.48-1.37-.49-1.37-.49-1.36-.49-1.36-.5-1.36-.49-1.36-.5-1.35-.5-1.35-.51-1.35-.51-1.34-.51-1.34-.51-1.34-.51-1.33-.52-1.33-.52-1.33-.53-1.32-.52-1.32-.53-1.32-.53-1.32-.53-1.31-.54-1.3-.54-1.31-.54-1.3-.54-1.3-.55-1.29-.55-1.3-.55-1.28-.56-1.29-.55-1.28-.56-1.28-.57-1.28-.56-1.27-.57-1.27-.57-1.27-.57-1.26-.58-1.26-.57-1.26-.59-1.25-.58-1.25-.58-1.25-.59-1.24-.59-1.24-.6-1.24-.59-1.23-.6-1.23-.6-1.23-.61-1.23-.61-1.22-.61-1.22-.61-1.21-.61-1.21-.62-1.21-.62-1.21-.62-1.2-.63-1.2-.62-1.19-.63-1.2-.64-1.19-.63-1.18-.64-1.19-.64-1.18-.65-1.17-.64-1.18-.65-1.17-.65-1.16-.66-1.17-.65-1.16-.66-1.16-.66-1.15-.67-1.15-.66-1.15-.67-1.14-.68-1.15-.67-1.13-.68-1.14-.68-1.13-.68-1.13-.69-1.12-.68-1.13-.7-1.12-.69-1.11-.69-1.11-.7-1.11-.7-1.11-.71-1.1-.7-1.1-.71-1.1-.71-1.09-.72-1.09-.71-1.09-.72-1.08-.73-1.08-.72-1.08-.73-1.08-.73-1.07M108.98 255.08l-.67 1.17-.68 1.18-.66 1.18-.67 1.18-.66 1.18-.65 1.19-.66 1.19-.65 1.19-.65 1.2-.64 1.2-.64 1.2-.64 1.21-.63 1.21-.63 1.21-.63 1.22-.62 1.21-.62 1.23-.62 1.22-.61 1.23-.61 1.23-.61 1.24-.6 1.24-.6 1.24-.59 1.25-.6 1.24-.59 1.26-.58 1.25-.58 1.26-.58 1.26-.58 1.27-.57 1.26-.57 1.28-.57 1.27-.56 1.28-.56 1.28-.55 1.28-.55 1.29-.55 1.29-.55 1.3-.54 1.29-.54 1.3-.53 1.31-.53 1.3-.53 1.31-.53 1.32-.52 1.31-.52 1.32-.51 1.33-.51 1.32-.51 1.33-.5 1.34-.5 1.33-.5 1.34-.5 1.34-.49 1.35-.48 1.35-.49 1.35-.48 1.36-.48 1.35-.47 1.37-.47 1.36-.47 1.37-.46 1.37-.46 1.38-.46 1.38-.45 1.38-.45 1.38-.45 1.39-.44 1.39-.44 1.39-.43 1.4-.44 1.4-.43 1.41-.42 1.4-.43 1.42-.42 1.41-.41 1.42-.41 1.42-.41 1.42-.41 1.43-.4 1.43-.4 1.43-.4 1.44-.39 1.44-.39 1.44-.38 1.45-.38 1.45-.38 1.45-.38 1.45-.37 1.46-.37 1.47-.36 1.46-.36 1.47-.36 1.47-.36 1.48-.35 1.48-.34 1.48-.35 1.48-.34 1.49" style="stroke-width:1.07;stroke:#000;stroke-opacity:.1;stroke-linecap:butt"/><path d="m108.98 255.08-.53-1.32-.52-1.32-.53-1.32-.53-1.31-.53-1.32-.53-1.31-.54-1.31-.53-1.31-.54-1.31-.54-1.3-.54-1.3-.54-1.3-.54-1.3-.55-1.3-.55-1.29-.54-1.3-.55-1.29-.55-1.29-.56-1.29-.55-1.28-.56-1.29-.56-1.28-.55-1.28-.57-1.27-.56-1.28-.56-1.27-.57-1.28-.56-1.27-.57-1.26-.57-1.27-.58-1.27-.57-1.26-.57-1.26-.58-1.26-.58-1.25-.58-1.26-.58-1.25-.58-1.25-.59-1.25-.58-1.25-.59-1.24-.59-1.25-.59-1.24-.59-1.24-.59-1.24-.6-1.23-.6-1.23-.6-1.24-.6-1.23-.6-1.22-.6-1.23-.6-1.22-.61-1.23-.61-1.22-.61-1.21-.61-1.22-.61-1.22-.62-1.21-.61-1.21-.62-1.21-.62-1.2-.62-1.21-.62-1.2-.62-1.2-.63-1.2-.63-1.2-.62-1.19-.63-1.2-.64-1.19-.63-1.19-.63-1.19-.64-1.18-.64-1.19-.64-1.18-.64-1.18-.64-1.17-.64-1.18-.65-1.17-.65-1.18-.64-1.17-.65-1.17-.66-1.16-.65-1.17-.65-1.16-.66-1.16-.66-1.16-.66-1.16-.66-1.15-.66-1.15-.67-1.15-.66-1.15-.67-1.15-.67-1.15-.67-1.14-.67-1.14-.68-1.14-.67-1.14-.68-1.13-.68-1.14M108.98 255.08l-.62 1.23-.62 1.22-.61 1.23-.61 1.23-.61 1.23-.61 1.24-.6 1.23-.61 1.24-.6 1.24-.6 1.25-.59 1.24-.6 1.25-.59 1.25-.59 1.25-.58 1.26-.59 1.25-.58 1.26-.58 1.26-.58 1.26-.57 1.27-.58 1.26-.57 1.27-.57 1.28-.56 1.27-.57 1.27-.56 1.28-.56 1.28-.56 1.28-.55 1.29-.56 1.28-.55 1.29-.55 1.29-.54 1.3-.55 1.29-.54 1.3-.54 1.3-.53 1.3-.54 1.3-.53 1.31-.53 1.31-.53 1.31-.53 1.31-.52 1.31-.52 1.32-.52 1.32-.52 1.32-.51 1.32-.51 1.33-.51 1.33-.51 1.33-.51 1.33-.5 1.33-.5 1.34-.5 1.34-.5 1.34-.49 1.34-.49 1.34-.49 1.35-.49 1.35-.48 1.35-.49 1.35-.48 1.36-.47 1.36-.48 1.36-.47 1.36-.48 1.36-.46 1.37-.47 1.37-.47 1.37-.46 1.37-.46 1.38-.46 1.37-.45 1.38-.46 1.38-.45 1.39-.44 1.38-.45 1.39-.45 1.39-.44 1.39-.44 1.4-.43 1.39-.44 1.4-.43 1.4-.43 1.41-.43 1.4-.43 1.41-.42 1.41-.42 1.41-.42 1.42-.42 1.41-.41 1.42-.42 1.42-.41 1.42-.4 1.43-.41 1.42-.4 1.43-.41 1.43-.39 1.44-.4 1.43" style="stroke-width:1.07;stroke:#000;stroke-opacity:.1;stroke-linecap:butt"/><path d="m108.98 255.08-.58-1.26-.57-1.25-.58-1.26-.58-1.26-.58-1.26-.57-1.25-.58-1.26-.58-1.25-.58-1.26-.58-1.25-.58-1.25-.59-1.26-.58-1.25-.58-1.25-.58-1.25-.59-1.25-.58-1.25-.59-1.25-.58-1.24-.59-1.25-.59-1.25-.58-1.24-.59-1.25-.59-1.24-.59-1.25-.59-1.24-.58-1.24-.59-1.24-.6-1.25-.59-1.24-.59-1.24-.59-1.24-.59-1.23-.6-1.24-.59-1.24-.59-1.24-.6-1.23-.59-1.24-.6-1.23-.6-1.24-.59-1.23-.6-1.23-.6-1.24-.6-1.23-.6-1.23-.6-1.23-.6-1.23-.6-1.23-.6-1.23-.6-1.23-.6-1.22-.6-1.23-.61-1.23-.6-1.22-.6-1.23-.61-1.22-.6-1.22-.61-1.23-.61-1.22-.6-1.22-.61-1.22-.61-1.22-.61-1.22-.61-1.22-.61-1.22-.61-1.21-.61-1.22-.61-1.22-.61-1.21-.61-1.22-.61-1.21-.62-1.22-.61-1.21-.61-1.21-.62-1.21-.61-1.22-.62-1.21-.62-1.21-.61-1.21-.62-1.2-.62-1.21-.62-1.21-.61-1.21-.62-1.2-.62-1.21-.62-1.2-.63-1.21-.62-1.2-.62-1.2-.62-1.21-.62-1.2-.63-1.2-.62-1.2-.63-1.2-.62-1.2-.63-1.2-.62-1.19-.63-1.2-.63-1.2M108.98 255.08l-.56 1.28-.57 1.28-.56 1.28-.56 1.28-.56 1.28-.55 1.28-.56 1.28-.55 1.29-.56 1.28-.55 1.29-.55 1.29-.55 1.28-.55 1.29-.55 1.29-.55 1.3-.55 1.29-.54 1.29-.54 1.3-.55 1.29-.54 1.3-.54 1.3-.54 1.3-.54 1.3-.53 1.3-.54 1.3-.54 1.31-.53 1.3-.53 1.31-.53 1.3-.53 1.31-.53 1.31-.53 1.31-.53 1.31-.52 1.32-.53 1.31-.52 1.31-.52 1.32-.53 1.32-.52 1.31-.51 1.32-.52 1.32-.52 1.32-.51 1.32-.52 1.33-.51 1.32-.51 1.33-.52 1.32-.51 1.33-.5 1.33-.51 1.33-.51 1.33-.5 1.33-.51 1.33-.5 1.34-.5 1.33-.5 1.34-.5 1.34-.5 1.33-.5 1.34-.5 1.34-.49 1.35-.5 1.34-.49 1.34-.49 1.35-.49 1.34-.49 1.35-.49 1.35-.49 1.35-.48 1.35-.49 1.35-.48 1.35-.48 1.35-.49 1.36-.48 1.35-.48 1.36-.47 1.36-.48 1.36-.48 1.36-.47 1.36-.48 1.36-.47 1.36-.47 1.37-.47 1.36-.47 1.37-.47 1.37-.46 1.36-.47 1.37-.46 1.37-.47 1.38-.46 1.37-.46 1.37-.46 1.38-.46 1.37-.46 1.38-.46 1.38-.45 1.38-.46 1.38-.45 1.38-.45 1.38M108.98 255.08l-.63-1.19-.62-1.2-.63-1.2-.63-1.2-.62-1.2-.63-1.2-.62-1.2-.62-1.2-.63-1.2-.62-1.2-.62-1.2-.62-1.21-.62-1.2-.62-1.21-.62-1.2-.62-1.21-.62-1.2-.62-1.21-.62-1.21-.62-1.21-.61-1.21-.62-1.21-.61-1.21-.62-1.21-.61-1.21-.62-1.21-.61-1.22-.61-1.21-.62-1.22-.61-1.21-.61-1.22-.61-1.21-.61-1.22-.61-1.22-.61-1.22-.61-1.21-.61-1.22-.61-1.22-.6-1.23-.61-1.22-.61-1.22-.6-1.22-.61-1.23-.6-1.22-.61-1.22-.6-1.23-.6-1.23-.61-1.22-.6-1.23-.6-1.23-.6-1.23-.6-1.22-.6-1.23-.6-1.24-.6-1.23-.6-1.23-.6-1.23-.59-1.23-.6-1.24-.6-1.23-.59-1.24-.6-1.23-.59-1.24-.6-1.23-.59-1.24-.6-1.24-.59-1.24-.59-1.24-.59-1.24-.59-1.24-.59-1.24-.59-1.24-.59-1.25-.59-1.24-.59-1.24-.59-1.25-.59-1.24-.58-1.25-.59-1.24-.59-1.25-.58-1.25-.59-1.25-.58-1.25-.58-1.25-.59-1.25-.58-1.25-.58-1.25-.58-1.25-.58-1.25-.59-1.26-.58-1.25-.57-1.26-.58-1.25-.58-1.26-.58-1.25-.58-1.26-.58-1.26-.57-1.26-.58-1.26" style="stroke-width:1.07;stroke:#000;stroke-opacity:.1;stroke-linecap:butt"/><path d="m108.98 255.08-.51 1.33-.51 1.33-.5 1.33-.51 1.33-.51 1.33-.51 1.33-.5 1.33-.51 1.33-.51 1.33-.51 1.33-.5 1.33-.51 1.33-.51 1.33-.51 1.33-.51 1.33-.5 1.33-.51 1.33-.51 1.33-.51 1.33-.5 1.33-.51 1.32-.51 1.33-.51 1.33-.5 1.33-.51 1.33-.51 1.33-.51 1.33-.51 1.33-.5 1.33-.51 1.33-.51 1.33-.51 1.33-.5 1.33-.51 1.33-.51 1.33-.51 1.33-.5 1.33-.51 1.33-.51 1.33-.51 1.33-.51 1.33-.5 1.33-.51 1.33-.51 1.33-.51 1.32-.5 1.33-.51 1.33-.51 1.33-.51 1.33-.5 1.33-.51 1.33-.51 1.33-.51 1.33-.5 1.33-.51 1.33-.51 1.33-.51 1.33-.51 1.33-.5 1.33-.51 1.33-.51 1.33-.51 1.33-.5 1.33-.51 1.33-.51 1.33-.51 1.33-.5 1.33-.51 1.33-.51 1.33-.51 1.32-.51 1.33-.5 1.33-.51 1.33-.51 1.33-.51 1.33-.5 1.33-.51 1.33-.51 1.33-.51 1.33-.5 1.33-.51 1.33-.51 1.33-.51 1.33-.51 1.33-.5 1.33-.51 1.33-.51 1.33-.51 1.33-.5 1.33-.51 1.33-.51 1.33-.51 1.33-.5 1.33-.51 1.32-.51 1.33-.51 1.33-.51 1.33-.5 1.33-.51 1.33M108.98 255.08l-.68-1.13-.68-1.14-.67-1.13-.67-1.14-.68-1.14-.67-1.15-.67-1.14-.66-1.15-.67-1.15-.66-1.15-.67-1.15-.66-1.16-.66-1.16-.66-1.15-.65-1.17-.66-1.16-.65-1.16-.65-1.17-.65-1.17-.65-1.17-.65-1.17-.64-1.17-.65-1.18-.64-1.18-.64-1.18-.64-1.18-.64-1.18-.64-1.19-.63-1.19-.63-1.19-.63-1.19-.63-1.19-.63-1.2-.63-1.19-.62-1.2-.63-1.2-.62-1.21-.62-1.2-.62-1.21-.62-1.21-.61-1.21-.62-1.21-.61-1.21-.61-1.22-.61-1.22-.61-1.22-.6-1.22-.61-1.22-.6-1.23-.6-1.23-.6-1.23-.6-1.23-.6-1.23-.59-1.24-.6-1.24-.59-1.24-.59-1.24-.59-1.24-.59-1.25-.58-1.24-.59-1.25-.58-1.25-.58-1.26-.58-1.25-.58-1.26-.57-1.26-.58-1.26-.57-1.26-.57-1.26-.57-1.27-.57-1.27-.57-1.27-.57-1.27-.56-1.27-.56-1.28-.56-1.28-.56-1.28-.56-1.28-.56-1.28-.55-1.29-.55-1.29-.55-1.29-.55-1.29-.55-1.29-.55-1.29-.54-1.3-.55-1.3-.54-1.3-.54-1.3-.54-1.31-.54-1.31-.53-1.3-.54-1.31-.53-1.32-.53-1.31-.53-1.32-.53-1.32-.52-1.32-.53-1.32" style="stroke-width:1.07;stroke:#000;stroke-opacity:.1;stroke-linecap:butt"/><path d="m108.98 255.08-.45 1.39-.46 1.38-.45 1.38-.46 1.38-.45 1.38-.46 1.37-.46 1.38-.46 1.37-.46 1.38-.46 1.37-.47 1.37-.46 1.37-.47 1.37-.46 1.37-.47 1.37-.47 1.36-.47 1.37-.47 1.36-.47 1.37-.48 1.36-.47 1.36-.48 1.36-.48 1.36-.47 1.36-.48 1.35-.48 1.36-.49 1.35-.48 1.36-.48 1.35-.49 1.35-.48 1.35-.49 1.35-.49 1.35-.49 1.34-.49 1.35-.49 1.34-.49 1.35-.5 1.34-.49 1.34-.5 1.34-.5 1.34-.5 1.34-.5 1.34-.5 1.33-.5 1.34-.5 1.33-.51 1.33-.5 1.34-.51 1.33-.51 1.33-.5 1.32-.51 1.33-.52 1.33-.51 1.32-.51 1.33-.52 1.32-.51 1.32-.52 1.32-.52 1.32-.52 1.32-.52 1.32-.52 1.32-.52 1.31-.52 1.32-.53 1.31-.52 1.31-.53 1.31-.53 1.31-.53 1.31-.53 1.31-.53 1.31-.53 1.3-.54 1.31-.53 1.3-.54 1.3-.53 1.31-.54 1.3-.54 1.3-.54 1.29-.54 1.3-.55 1.3-.54 1.29-.55 1.3-.54 1.29-.55 1.29-.55 1.29-.55 1.29-.55 1.29-.55 1.29-.55 1.28-.56 1.29-.55 1.28-.56 1.29-.56 1.28-.55 1.28-.56 1.28-.57 1.28-.56 1.28-.56 1.27M108.98 255.08l-.73-1.07-.73-1.07-.72-1.08-.72-1.08-.72-1.08-.72-1.09-.71-1.09-.72-1.09-.7-1.1-.71-1.1-.7-1.1-.71-1.11-.69-1.11-.7-1.11-.69-1.12-.69-1.12-.69-1.12-.69-1.13-.68-1.12-.68-1.14-.68-1.13-.67-1.14-.67-1.14-.67-1.15-.67-1.14-.66-1.15-.67-1.16-.66-1.16-.65-1.16-.66-1.16-.65-1.17-.65-1.17-.64-1.17-.65-1.18-.64-1.18-.63-1.18-.64-1.19-.63-1.19-.63-1.19-.63-1.2-.63-1.19-.62-1.21-.62-1.2-.62-1.21-.61-1.21-.61-1.22-.61-1.22-.61-1.22-.6-1.22-.6-1.23-.6-1.23-.6-1.24-.59-1.23-.6-1.24-.58-1.25-.59-1.24-.58-1.26-.58-1.25-.58-1.26-.58-1.26-.57-1.26-.57-1.26-.57-1.27-.56-1.28-.56-1.27-.56-1.28-.56-1.28-.56-1.29-.55-1.29-.55-1.29-.54-1.3-.55-1.29-.54-1.31-.54-1.3-.53-1.31-.54-1.31-.53-1.31-.53-1.32-.52-1.32-.53-1.33-.52-1.32-.51-1.33-.52-1.34-.51-1.33-.51-1.34-.51-1.35-.5-1.34-.51-1.35-.5-1.35-.49-1.36-.5-1.36-.49-1.36-.49-1.37-.48-1.37-.49-1.37-.48-1.37-.48-1.38-.47-1.38-.48-1.39" style="stroke-width:1.07;stroke:#000;stroke-opacity:.1;stroke-linecap:butt"/><path d="m108.98 255.08-.4 1.44-.4 1.43-.4 1.43-.4 1.43-.41 1.43-.4 1.42-.41 1.43-.42 1.42-.41 1.41-.42 1.42-.42 1.41-.42 1.42-.42 1.41-.43 1.4-.43 1.41-.43 1.4-.43 1.4-.44 1.4-.43 1.4-.44 1.39-.45 1.39-.44 1.39-.45 1.39-.44 1.39-.46 1.38-.45 1.38-.45 1.38-.46 1.38-.46 1.37-.46 1.38-.47 1.37-.47 1.37-.47 1.36-.47 1.37-.47 1.36-.48 1.36-.47 1.36-.49 1.35-.48 1.36-.48 1.35-.49 1.35-.49 1.34-.49 1.35-.5 1.34-.49 1.34-.5 1.34-.5 1.33-.5 1.34-.51 1.33-.51 1.33-.51 1.33-.51 1.32-.51 1.33-.52 1.32-.52 1.32-.52 1.31-.53 1.32-.52 1.31-.53 1.31-.53 1.31-.53 1.3-.54 1.31-.53 1.3-.54 1.3-.55 1.29-.54 1.3-.55 1.29-.54 1.29-.55 1.29-.56 1.29-.55 1.28-.56 1.28-.56 1.28-.56 1.28-.57 1.28-.56 1.27-.57 1.27-.57 1.27-.58 1.27-.57 1.26-.58 1.27-.58 1.26-.58 1.25-.59 1.26-.58 1.25-.59 1.26-.6 1.25-.59 1.24-.6 1.25-.59 1.24-.6 1.24-.61 1.24-.6 1.24-.61 1.23-.61 1.24-.61 1.23-.62 1.22-.61 1.23-.62 1.22M108.98 255.08l-.78-1.01-.78-1.01-.77-1.02-.77-1.02-.77-1.02-.76-1.03-.76-1.04-.76-1.04-.75-1.04-.75-1.05-.74-1.05-.74-1.06-.74-1.06-.73-1.07-.73-1.07-.73-1.08-.72-1.08-.72-1.08-.71-1.09-.72-1.09-.7-1.1-.71-1.1-.7-1.11-.7-1.11-.69-1.12-.69-1.12-.68-1.12-.69-1.13-.67-1.14-.68-1.14-.67-1.14-.67-1.15-.66-1.15-.66-1.15-.66-1.16-.65-1.17-.65-1.17-.65-1.17-.64-1.18-.64-1.18-.63-1.19-.63-1.19-.63-1.2-.62-1.2-.62-1.21-.62-1.21-.61-1.21-.61-1.22-.61-1.22-.6-1.23-.59-1.23-.6-1.24-.59-1.24-.59-1.25-.58-1.25-.58-1.25-.58-1.26-.57-1.27-.57-1.26-.56-1.28-.56-1.27-.56-1.29-.55-1.28-.55-1.29-.55-1.3-.54-1.3-.54-1.3-.54-1.31-.53-1.31-.53-1.32-.52-1.32-.53-1.33-.51-1.33-.52-1.34-.51-1.34-.5-1.34-.51-1.35-.49-1.35-.5-1.36-.49-1.36-.49-1.37-.48-1.37-.48-1.38-.48-1.38-.47-1.38-.47-1.39-.47-1.39-.46-1.4-.46-1.4-.46-1.41-.45-1.41-.45-1.42-.44-1.42-.44-1.43-.44-1.42-.43-1.44-.43-1.44-.43-1.44-.42-1.45" style="stroke-width:1.07;stroke:#000;stroke-opacity:.1;stroke-linecap:butt"/><path d="m108.98 255.08-.34 1.49-.35 1.49-.34 1.48-.36 1.48-.35 1.47-.36 1.48-.36 1.46-.36 1.47-.37 1.46-.37 1.46-.38 1.46-.38 1.45-.38 1.45-.39 1.45-.38 1.44-.4 1.44-.39 1.44-.4 1.43-.4 1.43-.41 1.43-.41 1.42-.41 1.42-.42 1.42-.41 1.41-.43 1.41-.42 1.41-.43 1.4-.44 1.4-.43 1.4-.44 1.4-.45 1.39-.44 1.38-.45 1.39-.45 1.38-.46 1.38-.46 1.37-.47 1.38-.46 1.36-.47 1.37-.48 1.36-.47 1.36-.48 1.36-.49 1.35-.48 1.35-.5 1.34-.49 1.35-.5 1.33-.5 1.34-.5 1.33-.51 1.33-.51 1.33-.52 1.32-.51 1.32-.52 1.32-.53 1.31-.53 1.31-.53 1.31-.53 1.3-.54 1.3-.54 1.3-.55 1.29-.55 1.3-.55 1.28-.55 1.29-.56 1.28-.56 1.28-.57 1.27-.57 1.27-.57 1.27-.58 1.26-.58 1.27-.58 1.25-.58 1.26-.59 1.25-.6 1.25-.59 1.25-.6 1.24-.6 1.24-.61 1.23-.61 1.23-.61 1.23-.62 1.23-.62 1.22-.62 1.22-.63 1.22-.63 1.21-.63 1.21-.64 1.21-.64 1.2-.64 1.2-.65 1.2-.65 1.19-.66 1.19-.65 1.19-.66 1.18-.67 1.18-.67 1.18-.67 1.17-.67 1.17M295.34 238l.91-.13.91-.13.9-.13.91-.13.91-.13.91-.12.9-.13.91-.12.91-.13.9-.12.91-.12.91-.12.91-.12.9-.12.91-.11.91-.12.91-.11.91-.12.9-.11.91-.11.91-.12.91-.11.9-.11.91-.1.91-.11.91-.11.91-.1.9-.11.91-.1.91-.1.91-.11.91-.1.91-.1.9-.1.91-.09.91-.1.91-.1.91-.09.91-.09.9-.1.91-.09.91-.09.91-.09.91-.09.91-.09.91-.09.9-.08.91-.09.91-.08.91-.08.91-.09.91-.08.91-.08.91-.08.91-.08.9-.07.91-.08.91-.08.91-.07.91-.07.91-.08.91-.07.91-.07.91-.07.91-.07.91-.07.91-.06.91-.07.91-.06.9-.07.91-.06.91-.06.91-.06.91-.06.91-.06.91-.06.91-.06.91-.06.91-.05.91-.05.91-.06.91-.05.91-.05.91-.05.91-.05.91-.05.91-.05.91-.04.91-.05.91-.04.91-.05.91-.04.91-.04.91-.04.92-.04.91-.04.91-.04.91-.04.91-.03M108.98 255.08l-.83-.94-.83-.95-.82-.96-.82-.96-.82-.97-.8-.98-.81-.98-.8-.98-.79-.99-.79-1-.79-1.01-.78-1-.77-1.02-.77-1.02-.77-1.03-.76-1.03-.76-1.04-.75-1.04-.75-1.05-.74-1.05-.74-1.06-.73-1.07-.73-1.07-.73-1.08-.72-1.08-.71-1.09-.71-1.1-.71-1.1-.7-1.11-.69-1.11-.69-1.12-.69-1.12-.68-1.13-.68-1.14-.67-1.14-.67-1.15-.66-1.15-.66-1.16-.65-1.16-.65-1.17-.65-1.18-.63-1.18-.64-1.19-.63-1.19-.62-1.2-.62-1.21-.62-1.21-.61-1.21-.61-1.23-.6-1.22-.6-1.24-.59-1.24-.59-1.24-.58-1.25-.58-1.26-.57-1.26-.57-1.27-.56-1.27-.56-1.28-.56-1.29-.55-1.29-.54-1.3-.54-1.3-.54-1.31-.53-1.31-.52-1.32-.53-1.33-.51-1.33-.51-1.34-.51-1.34-.5-1.35-.5-1.35-.5-1.37-.48-1.36-.49-1.37-.48-1.38-.47-1.38-.47-1.39-.47-1.4-.46-1.4-.45-1.41-.45-1.41-.45-1.42-.44-1.42-.44-1.43-.43-1.43-.43-1.45-.42-1.44-.42-1.46-.41-1.45-.41-1.47-.4-1.47-.4-1.47-.4-1.48-.39-1.49-.38-1.49-.38-1.5-.38-1.51-.37-1.51" style="stroke-width:1.07;stroke:#000;stroke-opacity:.1;stroke-linecap:butt"/><path d="m108.98 255.08-.29 1.54-.29 1.54-.29 1.53-.3 1.53-.3 1.53-.31 1.52-.31 1.51-.32 1.51-.32 1.51-.33 1.5-.33 1.5-.34 1.49-.34 1.49-.34 1.49-.35 1.48-.35 1.48-.36 1.47-.36 1.47-.37 1.46-.37 1.46-.38 1.45-.38 1.45-.39 1.45-.38 1.44-.4 1.44-.4 1.43-.4 1.43-.41 1.43-.41 1.42-.42 1.41-.42 1.42-.43 1.4-.43 1.41-.43 1.39-.44 1.4-.45 1.39-.45 1.39-.45 1.38-.46 1.37-.46 1.38-.47 1.36-.47 1.37-.47 1.36-.48 1.35-.49 1.36-.49 1.34-.49 1.35-.5 1.33-.5 1.34-.51 1.33-.51 1.32-.52 1.32-.52 1.32-.53 1.31-.53 1.31-.53 1.3-.54 1.3-.55 1.3-.54 1.29-.56 1.29-.56 1.28-.56 1.27-.56 1.28-.57 1.27-.58 1.26-.58 1.26-.59 1.26-.58 1.25-.6 1.25-.6 1.24-.6 1.24-.61 1.23-.61 1.23-.62 1.23-.62 1.22-.62 1.22-.63 1.21-.64 1.21-.64 1.21-.64 1.2-.65 1.19-.65 1.19-.66 1.19-.66 1.18-.67 1.18-.67 1.17-.67 1.17-.68 1.17-.69 1.16-.69 1.16-.69 1.15-.7 1.15-.7 1.14-.71 1.14-.71 1.14-.71 1.13-.73 1.12-.72 1.12-.73 1.12M108.98 255.08l-.88-.88-.88-.89-.87-.9-.87-.9-.86-.91-.86-.92-.84-.92-.85-.94-.84-.94-.83-.94-.82-.96-.82-.96-.82-.96-.81-.98-.8-.98-.8-.99-.79-.99-.79-1.01-.78-1.01-.77-1.01-.77-1.03-.76-1.03-.76-1.03-.75-1.05-.74-1.05-.74-1.06-.74-1.07-.73-1.07-.72-1.08-.72-1.09-.71-1.09-.7-1.1-.7-1.11-.69-1.11-.69-1.13-.68-1.13-.68-1.13-.67-1.15-.67-1.15-.66-1.15-.65-1.17-.65-1.17-.64-1.18-.64-1.18-.63-1.2-.62-1.2-.62-1.2-.61-1.22-.61-1.22-.6-1.23-.6-1.23-.59-1.24-.58-1.25-.58-1.26-.57-1.26-.57-1.27-.56-1.28-.56-1.28-.55-1.29-.54-1.3-.54-1.31-.53-1.31-.53-1.32-.52-1.33-.51-1.33-.51-1.34-.51-1.35-.5-1.35-.49-1.36-.48-1.37-.48-1.38-.48-1.38-.47-1.39-.46-1.4-.46-1.4-.45-1.41-.45-1.42-.44-1.43-.43-1.43-.43-1.44-.43-1.44-.41-1.46-.41-1.46-.41-1.46-.4-1.48-.39-1.48-.39-1.49-.39-1.49-.37-1.51-.37-1.5-.37-1.52-.36-1.53-.35-1.53-.35-1.53-.34-1.55-.34-1.55-.33-1.56-.33-1.56-.32-1.58" style="stroke-width:1.07;stroke:#000;stroke-opacity:.1;stroke-linecap:butt"/><path d="m108.98 255.08-.23 1.6-.24 1.59-.24 1.58-.24 1.58-.26 1.57-.26 1.57-.26 1.56-.27 1.56-.27 1.55-.29 1.54-.28 1.54-.29 1.54-.3 1.53-.31 1.52-.31 1.52-.31 1.51-.32 1.51-.33 1.5-.33 1.5-.34 1.49-.34 1.49-.35 1.48-.35 1.48-.37 1.47-.36 1.46-.37 1.46-.38 1.45-.38 1.45-.39 1.44-.4 1.44-.4 1.43-.4 1.43-.41 1.42-.42 1.42-.42 1.41-.43 1.4-.44 1.4-.44 1.4-.44 1.39-.45 1.38-.46 1.38-.46 1.37-.47 1.37-.47 1.36-.48 1.36-.49 1.35-.49 1.35-.49 1.34-.51 1.33-.5 1.33-.52 1.32-.52 1.32-.52 1.32-.53 1.3-.54 1.31-.54 1.29-.55 1.3-.55 1.28-.56 1.28-.56 1.28-.57 1.27-.58 1.26-.58 1.26-.59 1.26-.59 1.25-.6 1.24-.6 1.24-.61 1.23-.62 1.23-.62 1.22-.62 1.21-.64 1.21-.63 1.21-.65 1.2-.65 1.19-.65 1.19-.66 1.19-.67 1.18-.67 1.17-.68 1.17-.68 1.16-.69 1.16-.7 1.15-.7 1.14-.7 1.14-.71 1.14-.72 1.13-.72 1.12-.73 1.12-.74 1.11-.74 1.11-.74 1.11-.75 1.09-.76 1.09-.76 1.09-.77 1.08-.78 1.08-.78 1.07-.78 1.06M108.98 255.08l.96-.09.97-.08.96-.09.96-.09.96-.09.97-.09.96-.08.96-.09.97-.09.96-.09.96-.09.97-.09.96-.08.96-.09.96-.09.97-.09.96-.09.96-.09.97-.08.96-.09.96-.09.97-.09.96-.09.96-.09.96-.08.97-.09.96-.09.96-.09.97-.09.96-.09.96-.08.97-.09.96-.09.96-.09.96-.09.97-.09.96-.08.96-.09.97-.09.96-.09.96-.09.97-.09.96-.08.96-.09.96-.09.97-.09.96-.09.96-.08.97-.09.96-.09.96-.09.97-.09.96-.09.96-.08.96-.09.97-.09.96-.09.96-.09.97-.09.96-.08.96-.09.97-.09.96-.09.96-.09.96-.09.97-.08.96-.09.96-.09.97-.09.96-.09.96-.09.97-.08.96-.09.96-.09.96-.09.97-.09.96-.09.96-.08.97-.09.96-.09.96-.09.97-.09.96-.09.96-.08.96-.09.97-.09.96-.09.96-.09.97-.08.96-.09.96-.09.97-.09.96-.09.96-.09.96-.08.97-.09.96-.09.96-.09.97-.09" style="stroke-width:1.07;stroke:#000;stroke-opacity:.1;stroke-linecap:butt"/><path d="m108.98 255.08-.17 1.65-.19 1.64-.18 1.64-.2 1.62-.2 1.62-.21 1.62-.21 1.61-.23 1.6-.23 1.59-.23 1.59-.24 1.59-.25 1.57-.26 1.57-.26 1.56-.27 1.56-.28 1.55-.28 1.54-.29 1.54-.3 1.53-.3 1.53-.31 1.51-.32 1.51-.32 1.51-.34 1.5-.33 1.49-.35 1.48-.35 1.48-.36 1.48-.36 1.46-.37 1.46-.38 1.45-.39 1.45-.39 1.44-.4 1.43-.4 1.43-.42 1.42-.42 1.41-.42 1.41-.43 1.4-.44 1.4-.45 1.38-.45 1.39-.46 1.37-.47 1.37-.47 1.36-.49 1.36-.48 1.35-.5 1.34-.5 1.33-.5 1.33-.52 1.33-.52 1.31-.53 1.31-.53 1.31-.55 1.29-.54 1.3-.56 1.28-.56 1.28-.57 1.27-.58 1.26-.58 1.26-.59 1.25-.59 1.25-.61 1.24-.61 1.23-.61 1.23-.63 1.22-.63 1.21-.63 1.2-.65 1.2-.65 1.2-.65 1.18-.67 1.19-.67 1.17-.68 1.17-.68 1.16-.69 1.15-.7 1.15-.71 1.14-.71 1.14-.72 1.13-.72 1.12-.73 1.11-.74 1.11-.75 1.11-.75 1.09-.76 1.09-.77 1.08-.77 1.08-.78 1.07-.78 1.07-.8 1.05-.8 1.05-.8 1.05-.82 1.04-.82 1.03-.83 1.02-.83 1.02-.84 1.01M108.98 255.08l-.94-.82-.92-.83-.92-.83-.92-.85-.91-.85-.9-.86-.89-.87-.89-.88-.88-.89-.87-.89-.87-.91-.86-.91-.85-.92-.85-.93-.84-.93-.83-.95-.83-.95-.82-.96-.81-.97-.81-.98-.8-.99-.79-.99-.78-1-.78-1.02-.77-1.02-.77-1.02-.76-1.04-.75-1.05-.74-1.05-.74-1.06-.73-1.07-.72-1.08-.72-1.08-.71-1.1-.7-1.1-.7-1.11-.69-1.12-.68-1.13-.68-1.14-.67-1.14-.66-1.16-.66-1.16-.65-1.17-.64-1.17-.64-1.19-.63-1.2-.62-1.2-.61-1.21-.61-1.22-.6-1.23-.6-1.23-.59-1.25-.58-1.25-.57-1.26-.57-1.27-.56-1.28-.55-1.29-.55-1.29-.54-1.3-.53-1.31-.53-1.32-.52-1.33-.51-1.34-.51-1.34-.5-1.35-.49-1.36-.49-1.37-.48-1.38-.47-1.39-.47-1.39-.45-1.4-.46-1.42-.44-1.42-.44-1.42-.43-1.44-.43-1.44-.41-1.46-.42-1.46-.4-1.47-.4-1.47-.39-1.49-.38-1.49-.38-1.51-.37-1.51-.36-1.52-.36-1.52-.35-1.54-.34-1.54-.34-1.56-.33-1.56-.32-1.57-.32-1.57-.31-1.59-.3-1.59-.29-1.61-.29-1.61-.28-1.61-.28-1.63-.27-1.64" style="stroke-width:1.07;stroke:#000;stroke-opacity:.1;stroke-linecap:butt"/><path d="m108.98 255.08-.12 1.7-.13 1.7-.13 1.68-.14 1.68-.15 1.67-.16 1.66-.17 1.66-.17 1.64-.19 1.64-.19 1.63-.2 1.63-.2 1.62-.22 1.61-.22 1.6-.23 1.59-.24 1.59-.24 1.58-.26 1.57-.26 1.56-.27 1.56-.27 1.55-.29 1.54-.29 1.53-.31 1.53-.3 1.52-.32 1.51-.33 1.5-.33 1.5-.34 1.49-.35 1.48-.36 1.47-.36 1.47-.38 1.46-.38 1.45-.38 1.44-.4 1.43-.41 1.43-.41 1.42-.42 1.42-.43 1.4-.43 1.4-.45 1.39-.45 1.38-.46 1.38-.47 1.36-.47 1.36-.49 1.36-.49 1.34-.5 1.34-.51 1.33-.51 1.32-.53 1.31-.53 1.31-.54 1.3-.54 1.29-.56 1.29-.56 1.27-.57 1.27-.58 1.26-.59 1.26-.59 1.24-.61 1.24-.61 1.23-.62 1.23-.62 1.21-.64 1.21-.64 1.2-.65 1.2-.66 1.18-.67 1.18-.67 1.17-.68 1.17-.69 1.15-.7 1.15-.71 1.14-.71 1.13-.72 1.13-.73 1.12-.74 1.11-.75 1.1-.75 1.09-.76 1.09-.77 1.08-.78 1.07-.78 1.07-.8 1.06-.8 1.05-.81 1.04-.81 1.03-.83 1.03-.83 1.02-.84 1.01-.85 1.01-.86.99-.86.99-.88.98-.88.98-.88.96-.9.96" style="stroke-width:1.07;stroke:#000;stroke-opacity:.1;stroke-linecap:butt"/><path d="m295.34 233.49 3.91 6.76h-7.81zM108.98 244.58l9.1 15.76h-18.2z" style="stroke-width:.71;stroke:none;fill:#00ba38"/><circle cx="204.32" cy="246.34" r="1.42" style="stroke-width:.71;stroke:none;fill:#f8766d"/><circle cx="49.42" cy="133.52" r="6.55" style="stroke-width:.71;stroke:none;fill:#f8766d"/><path d="M51.96 393.47h13.52v-13.51H51.96z" style="stroke-width:.71;stroke:none;fill:#619cff"/><circle cx="385.32" cy="229.75" r="1.42" style="stroke-width:.71;stroke:none;fill:#f8766d"/><path d="m289.73 242.64 4.71-3.9M114.72 250.44l-4.83 3.91M204.47 251.01l-.12-3.66M55.3 138.09l-4.95-3.85M64.63 382.12l-4.98 3.87M379.37 225.14l5.02 3.89" style="stroke-width:.53;stroke:#bfbfbf"/><path d="M252.63 253.98h58.11-.08l.34-.01.35-.07.32-.12.3-.18.27-.22.23-.26.19-.29.13-.32.09-.34.02-.35v-7.02l-.02-.35-.09-.34-.13-.32-.19-.29-.23-.26-.27-.22-.3-.17-.32-.13-.35-.07-.26-.01h-58.11l.26.01-.35-.01-.35.04-.33.1-.31.15-.29.19-.25.24-.21.28-.16.31-.11.33-.06.34v7.2-.17.35l.06.34.11.33.16.31.21.28.25.24.29.19.31.15.33.1.35.04z" style="stroke-width:.53;fill:#fff;fill-opacity:.5"/><text x="281.68" y="250.38" lengthAdjust="spacingAndGlyphs" style="font-size:5.69px;font-family:&quot;Liberation Sans&quot;" text-anchor="middle" textLength="55.24">SHAWN ACKERMAN</text><path d="M93.4 250.44h62.91-.09l.35-.01.34-.07.33-.13.3-.17.27-.22.23-.26.18-.29.14-.32.08-.34.03-.35v-15.22l-.03-.35-.08-.33-.14-.32-.18-.3-.23-.26-.27-.22-.3-.17-.33-.12-.34-.07-.26-.02H93.4l.26.02-.35-.02-.35.04-.33.1-.31.15-.29.2-.25.24-.21.28-.16.3-.11.33-.06.35v15.39-.17.35l.06.34.11.33.16.31.21.27.25.25.29.19.31.15.33.1.35.04z" style="stroke-width:.53;fill:#fff;fill-opacity:.5"/><text x="124.85" y="238.65" lengthAdjust="spacingAndGlyphs" style="font-size:5.69px;font-family:&quot;Liberation Sans&quot;" text-anchor="middle" textLength="60.03">IKEPTIT REAL ESTATE</text><text x="124.85" y="246.84" lengthAdjust="spacingAndGlyphs" style="font-size:5.69px;font-family:&quot;Liberation Sans&quot;" text-anchor="middle" textLength="10.31">LLC</text><path d="M167.83 270.55h73.28-.09l.35-.01.34-.07.32-.13.3-.17.27-.22.23-.26.19-.29.14-.32.08-.34.03-.35v-15.22l-.03-.35-.08-.33-.14-.32-.19-.3-.23-.26-.27-.22-.3-.17-.32-.12-.34-.07-.26-.02h-73.28l.26.02-.35-.02-.35.04-.33.1-.31.15-.29.2-.25.24-.21.28-.16.3-.11.33-.06.35v15.39-.17.35l.06.34.11.33.16.31.21.27.25.25.29.19.31.15.33.1.35.04z" style="stroke-width:.53;fill:#fff;fill-opacity:.5"/><text x="204.47" y="258.76" lengthAdjust="spacingAndGlyphs" style="font-size:5.69px;font-family:&quot;Liberation Sans&quot;" text-anchor="middle" textLength="70.4">1979 MARCUS AVE, NEW</text><text x="204.47" y="266.95" lengthAdjust="spacingAndGlyphs" style="font-size:5.69px;font-family:&quot;Liberation Sans&quot;" text-anchor="middle" textLength="63.42">HYDE PARK, NY 11042</text><path d="M38.64 165.82h70.49-.09l.35-.01.34-.07.32-.13.3-.17.27-.22.23-.26.19-.29.14-.32.08-.34.03-.35v-23.41l-.03-.35-.08-.34-.14-.32-.19-.29-.23-.26-.27-.22-.3-.18-.32-.12-.34-.07-.26-.01H38.64l.26.01-.35-.01-.34.04-.34.1-.31.14-.29.2-.25.24-.21.28-.16.31-.11.33-.05.34-.01.18v23.41l.01-.17v.35l.05.34.11.33.16.31.21.27.25.24.29.2.31.15.34.1.34.04z" style="stroke-width:.53;fill:#fff;fill-opacity:.5"/><text x="73.88" y="145.83" lengthAdjust="spacingAndGlyphs" style="font-size:5.69px;font-family:&quot;Liberation Sans&quot;" text-anchor="middle" textLength="67.61">1979 MARCUS AVE, STE</text><text x="73.88" y="154.03" lengthAdjust="spacingAndGlyphs" style="font-size:5.69px;font-family:&quot;Liberation Sans&quot;" text-anchor="middle" textLength="63.73">210, NEW HYDE PARK,</text><text x="73.88" y="162.22" lengthAdjust="spacingAndGlyphs" style="font-size:5.69px;font-family:&quot;Liberation Sans&quot;" text-anchor="middle" textLength="27.65">NY 11042</text><path d="M49.91 382.12h66.61-.09l.35-.01.34-.07.32-.12.3-.18.27-.22.23-.26.19-.29.14-.32.08-.34.03-.35v-23.41l-.03-.35-.08-.34-.14-.32-.19-.29-.23-.26-.27-.22-.3-.17-.32-.13-.34-.07-.26-.01H49.91l.26.01-.35-.01-.34.04-.34.1-.31.15-.29.2-.25.24-.21.27-.16.31-.11.33-.05.34-.01.18v23.41l.01-.17v.35l.05.34.11.33.16.31.21.28.25.24.29.2.31.14.34.1.34.04z" style="stroke-width:.53;fill:#fff;fill-opacity:.5"/><text x="83.21" y="362.14" lengthAdjust="spacingAndGlyphs" style="font-size:5.69px;font-family:&quot;Liberation Sans&quot;" text-anchor="middle" textLength="54.8">1979 MARCUS, STE</text><text x="83.21" y="370.33" lengthAdjust="spacingAndGlyphs" style="font-size:5.69px;font-family:&quot;Liberation Sans&quot;" text-anchor="middle" textLength="63.73">210, NEW HYDE PARK,</text><text x="83.21" y="378.52" lengthAdjust="spacingAndGlyphs" style="font-size:5.69px;font-family:&quot;Liberation Sans&quot;" text-anchor="middle" textLength="27.65">NY 11042</text><path d="M322.93 225.14h73.39-.08l.34-.02.34-.07.33-.12.3-.17.27-.22.23-.26.19-.3.13-.32.09-.33.02-.35v-15.22l-.02-.35-.09-.34-.13-.32-.19-.29-.23-.26-.27-.22-.3-.17-.33-.13-.34-.07-.26-.01h-73.39l.26.01-.35-.01-.35.04-.33.1-.31.15-.29.19-.25.25-.21.27-.16.31-.11.33-.06.34v15.4-.17.34l.06.35.11.33.16.3.21.28.25.24.29.2.31.15.33.1.35.04z" style="stroke-width:.53;fill:#fff;fill-opacity:.5"/><text x="359.63" y="213.35" lengthAdjust="spacingAndGlyphs" style="font-size:5.69px;font-family:&quot;Liberation Sans&quot;" text-anchor="middle" textLength="70.52">272 BEDFORD AVE, NEW</text><text x="359.63" y="221.54" lengthAdjust="spacingAndGlyphs" style="font-size:5.69px;font-family:&quot;Liberation Sans&quot;" text-anchor="middle" textLength="63.42">HYDE PARK, NY 11040</text></g><g clip-path="url(#cpMC4wMHw0MzIuMDB8MC4wMHw0MzIuMDA=)"><circle cx="124.98" cy="95.78" r="1.95" style="stroke-width:.71;stroke:none;fill:#f8766d"/><path d="m201.33 92.74 2.63 4.56h-5.26z" style="stroke-width:.71;stroke:none;fill:#00ba38"/><path d="M267.31 97.74h3.91v-3.91h-3.91z" style="stroke-width:.71;stroke:none;fill:#619cff"/><text x="139.09" y="98.81" lengthAdjust="spacingAndGlyphs" style="font-size:8.8px;font-family:&quot;Liberation Sans Narrow&quot;" textLength="48.12">mprop address</text><text x="215.45" y="98.81" lengthAdjust="spacingAndGlyphs" style="font-size:8.8px;font-family:&quot;Liberation Sans Narrow&quot;" textLength="39.69">owner name</text><text x="283.38" y="98.81" lengthAdjust="spacingAndGlyphs" style="font-size:8.8px;font-family:&quot;Liberation Sans Narrow&quot;" textLength="40.5">wdfi address</text><text x="32.63" y="64.23" lengthAdjust="spacingAndGlyphs" style="font-size:12px;font-family:&quot;Liberation Sans Narrow&quot;" textLength="252.23">includes 18 parcels, 46 units, and 2 distinct owner names.</text><text x="32.63" y="42.27" lengthAdjust="spacingAndGlyphs" style="font-size:18px;font-weight:700;font-family:&quot;Liberation Sans Narrow&quot;" textLength="241.91">IKEPTIT REAL ESTATE LLC Group</text></g></svg>