<svg xmlns="http://www.w3.org/2000/svg" width="384" height="480" class="svglite" viewBox="0 0 288 360"><defs><style><![CDATA[.svglite line,.svglite polyline,.svglite polygon,.svglite path,.svglite circle{fill:none;stroke:#000000;stroke-linecap:round;stroke-linejoin:round;stroke-miterlimit:10.00}.svglite text{white-space:pre}]]></style></defs><rect width="100%" height="100%" style="stroke-linecap:round;stroke-linejoin:round;stroke-miterlimit:10.00;stroke:none;fill:#FFFFFF"/><defs><clipPath id="cpMC4wMHwyODguMDB8MC4wMHwzNjAuMDA="><path d="M0 0h288v360H0z"/></clipPath></defs><g clip-path="url(#cpMC4wMHwyODguMDB8MC4wMHwzNjAuMDA=)"><path d="M0 0h288v360H0z" style="stroke-width:1.07;stroke:none;fill:#FFFFFF"/></g><defs><clipPath id="cpMzIuNjN8MjU4LjExfDE0MC4zMHwzMjcuMzc="><path d="M32.63 140.3h225.48v187.07H32.63z"/></clipPath></defs><g clip-path="url(#cpMzIuNjN8MjU4LjExfDE0MC4zMHwzMjcuMzc=)"><path d="m247.86 266.85-1.22-.23-1.22-.22-1.22-.22-1.23-.22-1.22-.23-1.22-.22-1.22-.22-1.23-.22-1.22-.22-1.22-.23-1.22-.22-1.22-.22-1.23-.22-1.22-.23-1.22-.22-1.22-.22-1.23-.22-1.22-.23-1.22-.22-1.22-.22-1.22-.22-1.23-.22-1.22-.23-1.22-.22-1.22-.22-1.23-.22-1.22-.23-1.22-.22-1.22-.22-1.22-.22-1.23-.22-1.22-.23-1.22-.22-1.22-.22-1.23-.22-1.22-.23-1.22-.22-1.22-.22-1.22-.22-1.23-.23-1.22-.22-1.22-.22-1.22-.22-1.23-.22-1.22-.23-1.22-.22-1.22-.22-1.22-.22-1.23-.23-1.22-.22-1.22-.22-1.22-.22-1.23-.22-1.22-.23-1.22-.22-1.22-.22-1.22-.22-1.23-.23-1.22-.22-1.22-.22-1.22-.22-1.23-.23-1.22-.22-1.22-.22-1.22-.22-1.22-.22-1.23-.23-1.22-.22-1.22-.22-1.22-.22-1.23-.23-1.22-.22-1.22-.22-1.22-.22-1.22-.22-1.23-.23-1.22-.22-1.22-.22-1.22-.22-1.23-.23-1.22-.22-1.22-.22-1.22-.22-1.22-.23-1.23-.22-1.22-.22-1.22-.22-1.22-.22-1.23-.23-1.22-.22-1.22-.22-1.22-.22-1.22-.23-1.23-.22-1.22-.22-1.22-.22-1.22-.23-1.23-.22-1.22-.22m-37.01-96.03.37.97.38.97.37.97.37.97.38.97.37.97.38.97.37.97.37.97.38.97.37.97.37.97.38.97.37.97.38.97.37.97.37.97.38.97.37.97.38.97.37.97.37.97.38.97.37.97.38.97.37.97.37.97.38.97.37.97.37.97.38.97.37.97.38.97.37.97.37.97.38.97.37.97.38.97.37.97.37.97.38.97.37.97.37.97.38.97.37.97.38.97.37.97.37.97.38.97.37.97.38.97.37.97.37.97.38.97.37.97.38.97.37.97.37.97.38.97.37.97.37.97.38.97.37.97.38.97.37.97.37.97.38.97.37.97.38.97.37.97.37.97.38.97.37.97.38.97.37.97.37.97.38.97.37.97.37.97.38.97.37.97.38.97.37.97.37.97.38.97.37.97.38.97.37.97.37.97.38.97.37.97.38.97.37.97.37.97.38.97.37.97.37.97.38.97.37.97m-83.98 74.03 1.07-.58 1.08-.58 1.06-.58 1.06-.59 1.06-.59 1.06-.6 1.04-.6 1.05-.6 1.04-.6 1.03-.61 1.03-.61 1.03-.62 1.02-.62 1.01-.62 1.01-.63 1.01-.63 1-.63 1-.64.99-.64.99-.64.98-.65.98-.65.98-.65.97-.66.96-.66.96-.66.96-.67.95-.67.94-.68.94-.68.94-.68.93-.68.93-.69.92-.69.92-.7.91-.7.91-.7.91-.71.9-.71.89-.71.89-.72.89-.72.88-.72.88-.73.87-.73.86-.73.87-.74.85-.74.86-.74.85-.75.84-.75.84-.76.83-.75.83-.77.83-.76.82-.77.81-.77.81-.78.81-.78.8-.78.8-.79.79-.78.79-.8.78-.79.78-.8.78-.81.76-.8.77-.81.76-.82.75-.82.76-.82.74-.82.74-.83.74-.83.73-.83.73-.84.72-.84.72-.85.71-.85.71-.85.71-.86.69-.85.7-.87.69-.86.68-.87.69-.88.67-.87.67-.88.67-.88.66-.89.66-.89.65-.9.65-.89.64-.9.64-.91.64-.91.63-.91.62-.91.62-.92m-83.98 74.03.62-.92.62-.91.63-.91.64-.91.63-.91.65-.9.65-.89.65-.9.66-.89.66-.89.67-.88.67-.88.67-.88.68-.87.69-.87.69-.86.69-.87.7-.86.71-.85.71-.85.71-.85.72-.85.72-.84.73-.84.73-.83.74-.83.74-.83.74-.82.75-.82.76-.82.76-.82.76-.81.77-.8.78-.81.78-.8.78-.79.79-.8.79-.79.8-.78.8-.78.81-.78.81-.78.81-.77.82-.77.83-.76.83-.77.83-.75.84-.76.84-.75.85-.75.86-.74.85-.74.87-.74.86-.73.87-.73.88-.73.88-.73.89-.72.89-.71.89-.71.9-.71.91-.71.9-.7.92-.7.92-.7.92-.69.93-.69.93-.68.94-.69.94-.67.94-.68.95-.67.96-.67.96-.66.96-.66.97-.66.98-.65.98-.65.98-.65.99-.64.99-.64 1-.64 1-.63 1.01-.63 1.01-.63 1.01-.62 1.02-.62 1.03-.62 1.03-.61 1.03-.61 1.04-.6 1.05-.6 1.04-.6 1.06-.6 1.05-.59 1.07-.59 1.06-.58 1.08-.58 1.07-.58" style="stroke-width:1.07;stroke:#000000;stroke-opacity:0.10;stroke-linecap:butt"/><path d="m247.86 264.64 1.92 3.31h-3.83zM89.85 146.6l1.91 3.31h-3.83zM42.88 311.87l6.06 10.5H36.81z" style="stroke-width:0.71;stroke:none;fill:#00BFC4"/><circle cx="126.86" cy="244.84" r="6.76" style="stroke-width:0.71;stroke:none;fill:#F8766D"/><path d="m94.73 153.4-4.04-3.81M47.55 315.88l-3.67 2.35m77.75-68.84 4.36-3.79" style="stroke-width:0.53;stroke:#BFBFBF"/><path d="M206.01 272.52h35.02-.09l.35-.02.34-.07.32-.12.3-.17.27-.22.23-.26.19-.3.14-.32.08-.33.03-.35h0v-7.03h0l-.03-.34-.08-.34-.14-.32-.19-.3-.23-.26-.27-.22-.3-.17-.32-.12-.34-.07-.26-.02h-35.02l.26.02-.35-.02-.35.05-.33.09-.31.15-.29.2-.25.24-.21.28-.16.31-.11.33-.06.34v7.2-.17.34l.06.35.11.33.16.3.21.28.25.24.29.2.31.15.33.1.35.04z" style="stroke-width:0.53;fill:#FFFFFF;fill-opacity:0.50"/><text x="223.52" y="268.92" lengthAdjust="spacingAndGlyphs" style="font-size:5.69px;font-family:&quot;Liberation Sans&quot;" text-anchor="middle" textLength="32.14">IRIA RIFLEY</text><path d="M69.81 164.74h60.83-.08l.34-.01.34-.07.33-.13.3-.17.27-.22.23-.26.19-.29.13-.32.09-.34.02-.35h0v-7.02h0l-.02-.35-.09-.34-.13-.32-.19-.29-.23-.26-.27-.22-.3-.18-.33-.12-.34-.07-.26-.01H69.81l.26.01-.35-.01-.34.04-.33.1-.32.14-.29.2-.25.24-.2.28-.17.31-.11.33-.05.34-.01.18v7.02l.01-.17v.35l.05.34.11.33.17.31.2.28.25.24.29.19.32.15.33.1.34.04z" style="stroke-width:0.53;fill:#FFFFFF;fill-opacity:0.50"/><text x="100.23" y="161.14" lengthAdjust="spacingAndGlyphs" style="font-size:5.69px;font-family:&quot;Liberation Sans&quot;" text-anchor="middle" textLength="57.95">IRIA LATRELL RILLEY</text><path d="M49.71 319.85h34.92-.09l.35-.02.34-.07.33-.12.3-.17.27-.22.23-.26.18-.3.14-.32.08-.33.03-.35h0v-7.03h0l-.03-.34-.08-.34-.14-.32-.18-.3-.23-.26-.27-.22-.3-.17-.33-.12-.34-.07-.26-.02H49.71l.26.02-.35-.02-.34.05-.34.09-.31.15-.29.2-.25.24-.21.28-.16.31-.11.32-.05.35-.01.17v7.03l.01-.17v.34l.05.35.11.33.16.3.21.28.25.24.29.2.31.15.34.1.34.04z" style="stroke-width:0.53;fill:#FFFFFF;fill-opacity:0.50"/><text x="67.17" y="316.25" lengthAdjust="spacingAndGlyphs" style="font-size:5.69px;font-family:&quot;Liberation Sans&quot;" text-anchor="middle" textLength="32.04">IRIA RILLEY</text><path d="M75.99 268.94h67.22l-.09-.01.35-.01.34-.07.32-.12.31-.18.26-.22.24-.26.18-.29.14-.32.08-.34.03-.34h0v-15.23h0l-.03-.34-.08-.34-.14-.32-.18-.29-.24-.26-.26-.22-.31-.18-.32-.12-.34-.07-.26-.02H75.99l.26.02-.35-.01-.34.04-.34.09-.31.15-.29.2-.25.24-.21.28-.16.31-.11.33-.05.34-.01.17v15.23l.01-.18v.35l.05.34.11.33.16.31.21.28.25.24.29.2.31.14.34.1.34.04z" style="stroke-width:0.53;fill:#FFFFFF;fill-opacity:0.50"/><text x="109.6" y="257.14" lengthAdjust="spacingAndGlyphs" style="font-size:5.69px;font-family:&quot;Liberation Sans&quot;" text-anchor="middle" textLength="43.24">PO BOX 12920,</text><text x="109.6" y="265.34" lengthAdjust="spacingAndGlyphs" style="font-size:5.69px;font-family:&quot;Liberation Sans&quot;" text-anchor="middle" textLength="64.34">MILWAUKEE, WI 53212</text></g><g clip-path="url(#cpMC4wMHwyODguMDB8MC4wMHwzNjAuMDA=)"><circle cx="84.61" cy="115.22" r="1.95" style="stroke-width:0.71;stroke:none;fill:#F8766D"/><path d="m160.96 112.18 2.63 4.56h-5.26z" style="stroke-width:0.71;stroke:none;fill:#00BFC4"/><text x="98.72" y="118.25" lengthAdjust="spacingAndGlyphs" style="font-size:8.80px;font-family:&quot;Liberation Sans Narrow&quot;" textLength="48.12">mprop address</text><text x="175.08" y="118.25" lengthAdjust="spacingAndGlyphs" style="font-size:8.80px;font-family:&quot;Liberation Sans Narrow&quot;" textLength="39.69">owner name</text><text x="32.63" y="83.67" lengthAdjust="spacingAndGlyphs" style="font-size:12.00px;font-family:&quot;Liberation Sans Narrow&quot;" textLength="241.29">includes 4 parcels, 8 units, and 3 distinct owner names.</text><text x="32.63" y="42.27" lengthAdjust="spacingAndGlyphs" style="font-size:18.00px;font-weight:bold;font-family:&quot;Liberation Sans Narrow&quot;" textLength="202.56">IRIA RILLEY -- IRIA LATRELL</text><text x="32.63" y="61.71" lengthAdjust="spacingAndGlyphs" style="font-size:18.00px;font-weight:bold;font-family:&quot;Liberation Sans Narrow&quot;" textLength="203.93">RILLEY -- IRIA RIFLEY Group</text></g></svg>