<svg xmlns="http://www.w3.org/2000/svg" width="768" height="768" class="svglite" viewBox="0 0 576 576"><defs><style><![CDATA[.svglite line,.svglite polyline,.svglite polygon,.svglite path,.svglite circle{fill:none;stroke:#000000;stroke-linecap:round;stroke-linejoin:round;stroke-miterlimit:10.00}.svglite text{white-space:pre}]]></style></defs><rect width="100%" height="100%" style="stroke-linecap:round;stroke-linejoin:round;stroke-miterlimit:10.00;stroke:none;fill:#FFFFFF"/><defs><clipPath id="cpMC4wMHw1NzYuMDB8MC4wMHw1NzYuMDA="><path d="M0 0h576v576H0z"/></clipPath></defs><g clip-path="url(#cpMC4wMHw1NzYuMDB8MC4wMHw1NzYuMDA=)"><path d="M0 0h576v576H0z" style="stroke-width:1.07;stroke:none;fill:#FFFFFF"/></g><defs><clipPath id="cpMzIuNjN8NTQ2LjExfDEyMC44Nnw1NDMuMzc="><path d="M32.63 120.86h513.48v422.51H32.63z"/></clipPath></defs><g clip-path="url(#cpMzIuNjN8NTQ2LjExfDEyMC44Nnw1NDMuMzc=)"><path d="m297.23 489.15-.73-1.78-.74-1.77-.75-1.77-.74-1.77-.75-1.77-.76-1.76-.76-1.76-.76-1.76-.76-1.75-.77-1.75-.77-1.75-.77-1.75-.78-1.74-.78-1.74-.78-1.74-.79-1.73-.79-1.74-.79-1.72-.8-1.73-.8-1.72-.81-1.73-.8-1.71-.81-1.72-.82-1.71-.81-1.71-.82-1.71-.83-1.7-.83-1.7-.83-1.7-.83-1.69-.84-1.7-.84-1.69-.84-1.68-.85-1.69-.85-1.68-.85-1.68-.86-1.67-.86-1.67-.87-1.67-.86-1.67-.87-1.66-.88-1.67-.87-1.65-.89-1.66-.88-1.65-.89-1.65-.89-1.65-.89-1.64-.9-1.65-.9-1.63-.9-1.64-.91-1.63-.91-1.63-.92-1.63-.91-1.63-.92-1.62-.93-1.62-.92-1.61-.94-1.62-.93-1.61-.94-1.61-.94-1.6-.94-1.6-.95-1.6-.95-1.6-.95-1.59-.96-1.59-.96-1.59-.97-1.59-.96-1.58-.97-1.58-.98-1.57-.98-1.58-.98-1.57-.98-1.57-.99-1.56-.99-1.57-.99-1.56-1-1.55-1-1.56-1-1.55-1.01-1.55-1.01-1.54-1.02-1.55-1.01-1.54-1.03-1.53-1.02-1.54-1.03-1.53-1.03-1.53-1.03-1.52-1.04-1.53-1.04-1.52-1.04-1.52-1.05-1.51-1.05-1.51-1.06-1.51-1.05-1.51-1.07-1.5-1.06-1.5m65.54-178.72-1.2 1.5-1.19 1.51-1.18 1.51-1.17 1.52-1.16 1.52-1.15 1.54-1.14 1.53-1.12 1.55-1.12 1.55-1.1 1.55-1.09 1.57-1.08 1.57-1.07 1.57-1.06 1.58-1.05 1.59-1.04 1.59-1.02 1.6-1.02 1.61-1 1.61-.99 1.62-.99 1.63-.97 1.63-.96 1.63-.95 1.65-.93 1.65-.93 1.65-.92 1.67-.9 1.66-.89 1.68-.89 1.68-.87 1.69-.86 1.69-.85 1.7-.84 1.71-.82 1.71-.82 1.72-.81 1.72-.79 1.73-.78 1.74-.78 1.74-.76 1.75-.75 1.76-.74 1.76-.72 1.77-.72 1.77-.71 1.78-.69 1.79-.69 1.79-.67 1.8-.66 1.8-.65 1.82-.64 1.81-.63 1.83-.62 1.83-.61 1.83-.59 1.85-.59 1.84-.57 1.86-.56 1.86-.56 1.87-.54 1.87-.53 1.88-.51 1.89-.51 1.89-.5 1.9-.48 1.9-.48 1.91-.46 1.92-.45 1.93-.45 1.92-.43 1.94-.42 1.94-.4 1.95-.4 1.96-.39 1.96-.37 1.96-.37 1.98-.35 1.98-.34 1.98-.33 1.99-.32 2-.31 2.01-.3 2.01-.29 2.01-.27 2.03-.27 2.02-.25 2.04-.25 2.04-.23 2.05-.22 2.05-.21 2.06-.2 2.07-.18 2.07-.18 2.08-.17 2.09-.15 2.09-.15 2.1-.13 2.1-.12 2.11m-62.2-186.84.25 2.08.26 2.07.26 2.08.28 2.06.28 2.07.29 2.06.3 2.06.3 2.05.32 2.05.32 2.04.33 2.04.33 2.04.35 2.03.35 2.03.36 2.03.36 2.02.38 2.01.38 2.02.39 2.01.4 2 .4 2 .42 2 .42 1.99.43 1.99.43 1.99.45 1.98.45 1.98.46 1.97.46 1.97.48 1.97.48 1.96.49 1.96.5 1.95.5 1.95.52 1.95.52 1.94.53 1.94.53 1.93.55 1.94.55 1.92.56 1.92.56 1.92.58 1.92.58 1.91.59 1.91.6 1.9.6 1.9.62 1.89.62 1.89.63 1.89.63 1.89.64 1.87.66 1.88.66 1.87.66 1.87.68 1.86.68 1.86.69 1.86.7 1.85.7 1.85.71 1.84.72 1.84.73 1.84.74 1.83.74 1.83.75 1.82.76 1.82.77 1.82.77 1.81.79 1.81.79 1.81.79 1.8.81 1.79.81 1.8.82 1.79.83 1.78.84 1.78.84 1.78.85 1.77.86 1.77.87 1.77.87 1.76.88 1.75.89 1.76.9 1.75.91 1.74.91 1.75.92 1.73.93 1.74.93 1.73.95 1.72.95 1.72.96 1.72.96 1.72.98 1.71.98 1.7.99 1.71 1 1.69 1 1.7" style="stroke-width:1.07;stroke:#000000;stroke-opacity:0.10;stroke-linecap:butt"/><path d="m273.61 148.19-.84 1.7-.84 1.71-.84 1.71-.83 1.71-.82 1.71-.83 1.71-.82 1.72-.81 1.72-.82 1.72-.81 1.72-.8 1.72-.8 1.73-.8 1.73-.8 1.73-.79 1.73-.78 1.74-.79 1.73-.78 1.74-.77 1.74-.77 1.75-.77 1.74-.77 1.75-.76 1.75-.76 1.75-.75 1.75-.75 1.76-.75 1.76-.74 1.76-.74 1.76-.74 1.76-.73 1.77-.73 1.76-.72 1.77-.72 1.78-.72 1.77-.71 1.78-.71 1.78-.71 1.78-.7 1.78-.7 1.78-.69 1.79-.7 1.79-.68 1.79-.69 1.79-.68 1.8-.67 1.79-.68 1.8-.67 1.8-.66 1.81-.66 1.8-.66 1.81-.66 1.81-.65 1.81-.65 1.81-.64 1.82-.64 1.82-.64 1.82-.63 1.82-.63 1.82-.62 1.83-.62 1.83-.62 1.83-.62 1.83-.61 1.83-.6 1.84-.61 1.84-.6 1.84-.59 1.84-.59 1.85-.59 1.84-.59 1.85-.58 1.85-.58 1.86-.57 1.85-.57 1.86-.57 1.86-.56 1.86-.56 1.86-.55 1.87-.56 1.86-.54 1.87-.55 1.87-.54 1.88-.54 1.87-.53 1.88-.53 1.88-.52 1.88-.53 1.89-.52 1.88-.51 1.89-.51 1.89-.51 1.89-.5 1.9-.5 1.9-.5 1.89-.49 1.9-.49 1.91-.49 1.9-.48 1.91" style="stroke-width:1.07;stroke:#000000;stroke-opacity:0.10;stroke-linecap:butt"/><path d="m373.24 309.31-1.7-.33-1.7-.32-1.71-.32-1.7-.3-1.7-.29-1.7-.28-1.7-.28-1.7-.26-1.7-.25-1.69-.24-1.7-.23-1.69-.22-1.7-.21-1.69-.19-1.7-.19-1.69-.18-1.69-.17-1.7-.15-1.69-.15-1.69-.14-1.69-.12-1.68-.12-1.69-.1-1.69-.09-1.69-.09-1.68-.07-1.69-.06-1.68-.05-1.68-.05-1.69-.03-1.68-.02-1.68-.01h-1.68l-1.68.01-1.68.02-1.68.03-1.68.05-1.67.05-1.68.06-1.68.07-1.67.09-1.68.09-1.67.11-1.67.11-1.67.13-1.68.13-1.67.15-1.67.16-1.67.16-1.66.18-1.67.19-1.67.2-1.66.21-1.67.22-1.66.23-1.67.24-1.66.25-1.67.26-1.66.27-1.66.28-1.66.3-1.66.3-1.66.31-1.66.33-1.65.33-1.66.35-1.66.35-1.65.37-1.66.37-1.65.39-1.65.4-1.66.4-1.65.42-1.65.43-1.65.44-1.65.45-1.65.46-1.65.47-1.64.48-1.65.49-1.65.5-1.64.52-1.65.52-1.64.53-1.64.54-1.64.56-1.65.56-1.64.58-1.64.58-1.64.6-1.64.6-1.63.62-1.64.63-1.64.63-1.63.65-1.64.66-1.63.67-1.64.68-1.63.69m165.17-17.6 1.55.31 1.54.29 1.54.28 1.54.28 1.54.26 1.54.26 1.54.24 1.54.24 1.53.23 1.54.21 1.54.21 1.53.2 1.54.19 1.53.18 1.53.17 1.54.16 1.53.15 1.53.14 1.53.14 1.53.12 1.53.11 1.53.11 1.53.09 1.52.09 1.53.07 1.53.07 1.52.05 1.53.05 1.52.04 1.52.03 1.53.02 1.52.01 1.52-.01h1.52l1.52-.02 1.52-.03 1.52-.04 1.52-.05 1.52-.05 1.51-.07 1.52-.08 1.51-.08 1.52-.1 1.51-.1 1.52-.11 1.51-.13 1.51-.13 1.51-.14 1.52-.15 1.51-.16 1.51-.17 1.5-.18 1.51-.19 1.51-.2 1.51-.21 1.5-.22 1.51-.22 1.51-.24 1.5-.25 1.5-.25 1.51-.27 1.5-.27 1.5-.29 1.5-.29 1.5-.3 1.5-.31 1.5-.33 1.5-.33 1.5-.34 1.5-.35 1.49-.36 1.5-.37 1.49-.37 1.5-.39 1.49-.4 1.5-.41 1.49-.41 1.49-.43 1.49-.43 1.49-.45 1.49-.45 1.49-.47 1.49-.47 1.49-.48 1.49-.49 1.48-.51 1.49-.51 1.48-.52 1.49-.53 1.48-.54 1.49-.54 1.48-.56 1.48-.57 1.48-.58 1.48-.58 1.49-.6 1.47-.6 1.48-.62 1.48-.62" style="stroke-width:1.07;stroke:#000000;stroke-opacity:0.10;stroke-linecap:butt"/><path d="m373.24 309.31-1.66.18-1.67.18-1.67.18-1.67.18-1.67.17-1.67.18-1.67.18-1.66.18-1.67.17-1.67.18-1.67.18-1.67.18-1.67.17-1.66.18-1.67.18-1.67.18-1.67.18-1.67.17-1.67.18-1.66.18-1.67.18-1.67.17-1.67.18-1.67.18-1.67.18-1.66.17-1.67.18-1.67.18-1.67.18-1.67.18-1.67.17-1.67.18-1.66.18-1.67.18-1.67.17-1.67.18-1.67.18-1.67.18-1.66.18-1.67.17-1.67.18-1.67.18-1.67.18-1.67.17-1.66.18-1.67.18-1.67.18-1.67.17-1.67.18-1.67.18-1.67.18-1.66.18-1.67.17-1.67.18-1.67.18-1.67.18-1.67.17-1.66.18-1.67.18-1.67.18-1.67.18-1.67.17-1.67.18-1.66.18-1.67.18-1.67.17-1.67.18-1.67.18-1.67.18-1.67.17-1.66.18-1.67.18-1.67.18-1.67.18-1.67.17-1.67.18-1.66.18-1.67.18-1.67.17-1.67.18-1.67.18-1.67.18-1.66.18-1.67.17-1.67.18-1.67.18-1.67.18-1.67.17-1.67.18-1.66.18-1.67.18-1.67.17-1.67.18-1.67.18-1.67.18-1.66.18-1.67.17-1.67.18-1.67.18m165.17-17.6 1.51-.16 1.51-.16 1.52-.16 1.51-.16 1.51-.16 1.51-.16 1.51-.16 1.51-.16 1.51-.16 1.51-.16 1.51-.17 1.51-.16 1.51-.16 1.51-.16 1.51-.16 1.51-.16 1.51-.16 1.51-.16 1.51-.16 1.51-.16 1.51-.16 1.51-.17 1.51-.16 1.51-.16 1.51-.16 1.51-.16 1.51-.16 1.51-.16 1.52-.16 1.51-.16 1.51-.16 1.51-.16 1.51-.17 1.51-.16 1.51-.16 1.51-.16 1.51-.16 1.51-.16 1.51-.16 1.51-.16 1.51-.16 1.51-.16 1.51-.16 1.51-.16 1.51-.17 1.51-.16 1.51-.16 1.51-.16 1.51-.16 1.51-.16 1.51-.16 1.51-.16 1.51-.16 1.51-.16 1.51-.16 1.52-.17 1.51-.16 1.51-.16 1.51-.16 1.51-.16 1.51-.16 1.51-.16 1.51-.16 1.51-.16 1.51-.16 1.51-.16 1.51-.17 1.51-.16 1.51-.16 1.51-.16 1.51-.16 1.51-.16 1.51-.16 1.51-.16 1.51-.16 1.51-.16 1.51-.16 1.51-.17 1.51-.16 1.51-.16 1.51-.16 1.52-.16 1.51-.16 1.51-.16 1.51-.16 1.51-.16 1.51-.16 1.51-.16 1.51-.16 1.51-.17 1.51-.16 1.51-.16 1.51-.16 1.51-.16 1.51-.16 1.51-.16 1.51-.16 1.51-.16 1.51-.16m-466.8-33.32 1.47.91 1.47.9 1.47.9 1.47.9 1.48.89 1.47.89 1.48.88 1.48.88 1.48.87 1.48.87 1.48.86 1.49.86 1.48.85 1.49.85 1.49.84 1.49.84 1.49.84 1.49.83 1.49.82 1.5.82 1.5.81 1.49.81 1.5.81 1.5.8 1.51.79 1.5.8 1.5.78 1.51.78 1.51.78 1.51.77 1.51.77 1.51.76 1.51.76 1.52.75 1.51.74 1.52.75 1.52.73 1.52.74 1.52.73 1.52.72 1.52.72 1.53.71 1.53.71 1.53.7 1.52.7 1.54.7 1.53.69 1.53.68 1.54.68 1.53.68 1.54.67 1.54.66 1.54.66 1.54.66 1.55.65 1.54.65 1.55.64 1.54.64 1.55.63 1.55.62 1.55.63 1.56.61 1.55.62 1.56.61 1.55.6 1.56.6 1.56.59 1.56.59 1.57.58 1.56.58 1.56.58 1.57.56 1.57.57 1.57.56 1.57.55 1.57.55 1.58.55 1.57.54 1.58.54 1.57.53 1.58.52 1.58.52 1.59.52 1.58.51 1.58.51 1.59.5 1.59.5 1.58.49 1.59.49 1.6.48 1.59.48 1.59.47 1.6.47 1.6.46 1.59.46 1.6.46 1.6.44 1.61.45 1.6.44" style="stroke-width:1.07;stroke:#000000;stroke-opacity:0.10;stroke-linecap:butt"/><path d="m55.97 260.07 1.6.43 1.6.45 1.61.45 1.59.45 1.6.46 1.6.46 1.6.47 1.59.48 1.59.47 1.59.49 1.59.48 1.59.5 1.59.49 1.59.51 1.58.5 1.58.51 1.58.52 1.59.52 1.57.53 1.58.53 1.58.53 1.57.54 1.58.55 1.57.55 1.57.56 1.57.55 1.57.57 1.56.57 1.57.57 1.56.58 1.57.59 1.56.58 1.56.6 1.55.6 1.56.6 1.56.61 1.55.61 1.55.62 1.56.62 1.55.63 1.54.63 1.55.63 1.55.65 1.54.64 1.55.65 1.54.66 1.54.66 1.54.67 1.54.67 1.53.67 1.54.68 1.53.69 1.53.69 1.53.69 1.53.7 1.53.7 1.53.71 1.52.72 1.53.71 1.52.73 1.52.73 1.52.73 1.52.74 1.52.74 1.51.75 1.52.75 1.51.76 1.51.76 1.51.76 1.51.78 1.51.77 1.5.78 1.51.79 1.5.79 1.5.79 1.51.8 1.49.81 1.5.81 1.5.81 1.49.82 1.5.83 1.49.83 1.49.83 1.49.84 1.49.84 1.49.85 1.48.86 1.49.85 1.48.87 1.48.86 1.48.88 1.48.87 1.48.89 1.47.88 1.48.89 1.47.9 1.47.9 1.47.91 1.47.91m65.54-178.72-.48 1.91-.49 1.9-.49 1.9-.49 1.9-.5 1.9-.5 1.9-.5 1.89-.51 1.9-.51 1.89-.51 1.88-.52 1.89-.52 1.88-.53 1.89-.53 1.88-.53 1.87-.54 1.88-.54 1.87-.55 1.87-.54 1.87-.56 1.87-.55 1.87-.56 1.86-.56 1.86-.57 1.86-.57 1.86-.57 1.85-.58 1.86-.58 1.85-.59 1.85-.58 1.84-.6 1.85-.59 1.84-.6 1.84-.61 1.84-.6 1.83-.61 1.84-.62 1.83-.62 1.83-.62 1.83-.62 1.82-.63 1.83-.63 1.82-.64 1.82-.64 1.82-.64 1.81-.65 1.82-.65 1.81-.66 1.81-.65 1.81-.67 1.8-.66 1.8-.67 1.8-.67 1.8-.68 1.8-.68 1.8-.69 1.79-.68 1.79-.7 1.79-.69 1.78-.7 1.79-.7 1.78-.71 1.78-.71 1.78-.71 1.78-.72 1.77-.72 1.77-.72 1.77-.73 1.77-.73 1.77-.74 1.76-.74 1.76-.74 1.76-.75 1.76-.75 1.75-.75 1.76-.76 1.75-.76 1.75-.77 1.75-.76 1.74-.78 1.74-.77 1.75-.78 1.73-.79 1.74-.78 1.74-.79 1.73-.8 1.73-.8 1.73-.8 1.72-.8 1.73-.81 1.72-.81 1.72-.82 1.72-.82 1.72-.83 1.71-.82 1.71-.83 1.71-.84 1.71-.84 1.71-.84 1.7m-62.2-186.84.62 1.88.63 1.89.63 1.89.63 1.89.63 1.88.63 1.89.62 1.89.63 1.89.63 1.88.63 1.89.63 1.89.63 1.89.62 1.88.63 1.89.63 1.89.63 1.88.63 1.89.63 1.89.62 1.89.63 1.88.63 1.89.63 1.89.63 1.89.63 1.88.62 1.89.63 1.89.63 1.88.63 1.89.63 1.89.63 1.89.62 1.88.63 1.89.63 1.89.63 1.89.63 1.88.63 1.89.62 1.89.63 1.88.63 1.89.63 1.89.63 1.89.63 1.88.62 1.89.63 1.89.63 1.89.63 1.88.63 1.89.63 1.89.62 1.88.63 1.89.63 1.89.63 1.89.63 1.88.63 1.89.62 1.89.63 1.89.63 1.88.63 1.89.63 1.89.63 1.88.62 1.89.63 1.89.63 1.89.63 1.88.63 1.89.63 1.89.62 1.89.63 1.88.63 1.89.63 1.89.63 1.88.63 1.89.62 1.89.63 1.89.63 1.88.63 1.89.63 1.89.63 1.89.62 1.88.63 1.89.63 1.89.63 1.88.63 1.89.63 1.89.62 1.89.63 1.88.63 1.89.63 1.89.63 1.89.63 1.88.62 1.89.63 1.89.63 1.89.63 1.88.63 1.89.63 1.89.62 1.88.63 1.89.63 1.89" style="stroke-width:1.07;stroke:#000000;stroke-opacity:0.10;stroke-linecap:butt"/><path d="m67.39 424.94 1.42-.99 1.42-.99 1.42-.99 1.43-.99 1.42-.99 1.42-.99 1.42-.99 1.42-.99 1.42-.99 1.42-.99 1.42-.99 1.42-.99 1.42-.99 1.43-.99 1.42-.99 1.42-.99 1.42-.99 1.42-.99 1.42-.99 1.42-.99 1.42-.99 1.42-.99 1.42-.99 1.43-1 1.42-.99 1.42-.99 1.42-.99 1.42-.99 1.42-.99 1.42-.99 1.42-.99 1.42-.99 1.42-.99 1.43-.99 1.42-.99 1.42-.99 1.42-.99 1.42-.99 1.42-.99 1.42-.99 1.42-.99 1.42-.99 1.42-.99 1.43-.99 1.42-.99 1.42-.99 1.42-.99 1.42-.99 1.42-.99 1.42-.99 1.42-.99 1.42-.99 1.42-.99 1.43-.99 1.42-.99 1.42-.99 1.42-.99 1.42-.99 1.42-.99 1.42-.99 1.42-.99 1.42-.99 1.42-.99 1.43-.99 1.42-.99 1.42-.99 1.42-.99 1.42-.99 1.42-.99 1.42-1 1.42-.99 1.42-.99 1.42-.99 1.43-.99 1.42-.99 1.42-.99 1.42-.99 1.42-.99 1.42-.99 1.42-.99 1.42-.99 1.42-.99 1.42-.99 1.43-.99 1.42-.99 1.42-.99 1.42-.99 1.42-.99 1.42-.99 1.42-.99 1.42-.99 1.42-.99 1.42-.99 1.43-.99 1.42-.99 1.42-.99 1.42-.99 1.42-.99 1.42-.99m89.16 162.24-1.06-1.5-1.06-1.5-1.06-1.51-1.05-1.51-1.05-1.51-1.05-1.52-1.04-1.51-1.05-1.52-1.03-1.53-1.04-1.52-1.03-1.53-1.03-1.53-1.02-1.54-1.02-1.54-1.02-1.54-1.01-1.54-1.01-1.54-1.01-1.55-1-1.55-1.01-1.56-.99-1.56-1-1.56-.99-1.56-.98-1.56-.99-1.57-.98-1.57-.98-1.58-.97-1.57-.97-1.58-.97-1.59-.96-1.58-.96-1.59-.96-1.59-.96-1.59-.95-1.6-.94-1.6-.95-1.6-.94-1.61-.94-1.6-.93-1.61-.93-1.62-.93-1.61-.92-1.62-.92-1.63-.92-1.62-.91-1.63-.91-1.63-.91-1.63-.91-1.64-.9-1.64-.89-1.64-.9-1.64-.89-1.65-.89-1.65-.88-1.65-.88-1.66-.88-1.66-.87-1.66-.87-1.66-.87-1.67-.86-1.67-.86-1.67-.86-1.68-.85-1.68-.86-1.68-.84-1.68-.85-1.69-.84-1.69-.83-1.69-.84-1.69-.83-1.7-.83-1.7-.82-1.71-.82-1.7-.82-1.71-.81-1.71-.81-1.72-.81-1.72-.8-1.72-.8-1.72-.8-1.73-.79-1.73-.8-1.73-.78-1.73-.79-1.74-.78-1.74-.77-1.74-.78-1.75-.77-1.75-.77-1.75-.76-1.75-.76-1.76-.76-1.76-.75-1.76-.75-1.77-.75-1.77-.74-1.77-.74-1.77-.74-1.78" style="stroke-width:1.07;stroke:#000000;stroke-opacity:0.10;stroke-linecap:butt"/><path d="m172.48 524.17.36-2 .36-1.99.36-1.99.36-1.99.36-2 .36-1.99.36-1.99.35-1.99.36-2 .36-1.99.36-1.99.36-1.99.36-2 .36-1.99.36-1.99.36-1.99.36-2 .36-1.99.36-1.99.36-1.99.36-2 .36-1.99.36-1.99.36-1.99.36-2 .36-1.99.36-1.99.35-1.99.36-2 .36-1.99.36-1.99.36-1.99.36-2 .36-1.99.36-1.99.36-1.99.36-2 .36-1.99.36-1.99.36-1.99.36-2 .36-1.99.36-1.99.36-1.99.36-2 .36-1.99.36-1.99.36-1.99.35-2 .36-1.99.36-1.99.36-1.99.36-2 .36-1.99.36-1.99.36-1.99.36-2 .36-1.99.36-1.99.36-1.99.36-2 .36-1.99.36-1.99.36-1.99.36-2 .36-1.99.36-1.99.36-1.99.36-2 .35-1.99.36-1.99.36-1.99.36-2 .36-1.99.36-1.99.36-1.99.36-2 .36-1.99.36-1.99.36-1.99.36-2 .36-1.99.36-1.99.36-1.99.36-2 .36-1.99.36-1.99.36-1.99.36-2 .35-1.99.36-1.99.36-1.99.36-2 .36-1.99.36-1.99.36-1.99.36-2 .36-1.99.36-1.99m65.54-178.72-.12 2.11-.13 2.1-.15 2.1-.15 2.09-.17 2.09-.17 2.08-.19 2.07-.2 2.06-.21 2.06-.22 2.06-.23 2.05-.25 2.04-.25 2.03-.27 2.03-.27 2.03-.29 2.01-.3 2.01-.31 2.01-.32 1.99-.33 2-.34 1.98-.35 1.98-.37 1.97-.37 1.97-.39 1.96-.39 1.96-.41 1.95-.42 1.94-.43 1.93-.44 1.93-.46 1.93-.46 1.91-.47 1.91-.49 1.91-.5 1.9-.5 1.89-.52 1.89-.53 1.88-.54 1.87-.56 1.87-.56 1.86-.57 1.85-.59 1.85-.59 1.84-.61 1.84-.62 1.83-.63 1.82-.64 1.82-.65 1.81-.66 1.81-.67 1.8-.69 1.79-.69 1.79-.71 1.78-.71 1.77-.73 1.77-.74 1.76-.75 1.76-.76 1.75-.78 1.74-.78 1.74-.79 1.73-.81 1.72-.82 1.72-.82 1.71-.84 1.71-.85 1.7-.86 1.69-.87 1.69-.89 1.68-.89 1.67-.9 1.67-.92 1.66-.93 1.66-.93 1.65-.95 1.64-.96 1.64-.97 1.63-.99 1.63-.99 1.62-1 1.61-1.02 1.6-1.02 1.6-1.04 1.6-1.05 1.59-1.06 1.58-1.07 1.57-1.08 1.57-1.09 1.56-1.1 1.56-1.12 1.55-1.12 1.54-1.14 1.54-1.15 1.53-1.16 1.53-1.17 1.52-1.18 1.51-1.19 1.51-1.2 1.5m-62.2-186.84 1 1.69 1 1.7.99 1.7.98 1.71.97 1.71.97 1.71.96 1.72.95 1.72.94 1.73.94 1.73.93 1.73.92 1.74.91 1.74.91 1.75.89 1.75.89 1.75.89 1.76.87 1.76.87 1.77.86 1.76.85 1.78.84 1.78.84 1.78.82 1.78.82 1.79.82 1.79.8 1.8.8 1.8.79 1.81.78 1.8.78 1.82.76 1.81.76 1.82.75 1.83.75 1.83.73 1.83.73 1.83.72 1.84.71 1.85.71 1.85.7 1.85.69 1.85.68 1.86.67 1.87.67 1.86.66 1.88.65 1.87.64 1.88.64 1.88.63 1.89.62 1.89.61 1.9.61 1.9.6 1.9.59 1.91.58 1.91.57 1.91.57 1.92.56 1.92.55 1.93.54 1.93.54 1.94.53 1.93.52 1.95.51 1.94.51 1.95.49 1.96.49 1.96.49 1.96.47 1.96.47 1.97.46 1.98.45 1.98.44 1.98.44 1.98.43 1.99.42 2 .41 1.99.41 2 .39 2.01.39 2.01.39 2.01.37 2.02.37 2.02.36 2.03.35 2.02.34 2.04.34 2.03.33 2.04.32 2.05.31 2.05.31 2.05.3 2.06.29 2.06.28 2.06.27 2.07.27 2.07.26 2.08.25 2.08" style="stroke-width:1.07;stroke:#000000;stroke-opacity:0.10;stroke-linecap:butt"/><path d="m373.24 309.31-1.63.69-1.63.68-1.64.67-1.63.66-1.64.65-1.63.64-1.64.62-1.64.62-1.64.61-1.64.59-1.64.59-1.64.57-1.64.56-1.64.56-1.65.54-1.64.54-1.64.52-1.65.51-1.65.5-1.64.49-1.65.48-1.65.47-1.65.46-1.65.45-1.65.44-1.65.43-1.65.42-1.65.41-1.66.39-1.65.39-1.65.38-1.66.36-1.66.36-1.65.34-1.66.34-1.66.32-1.66.31-1.66.31-1.66.29-1.66.28-1.66.27-1.66.26-1.67.26-1.66.24-1.67.23-1.66.22-1.67.2-1.66.2-1.67.19-1.67.18-1.67.17-1.67.15-1.67.15-1.67.14-1.67.12-1.68.12-1.67.1-1.67.09-1.68.09-1.67.07-1.68.06-1.68.06-1.68.04-1.67.03-1.68.02-1.68.01h-1.68l-1.69-.01-1.68-.02-1.68-.03-1.68-.04-1.69-.05-1.68-.07-1.69-.07-1.69-.08-1.68-.1-1.69-.1-1.69-.12-1.69-.12-1.69-.14-1.69-.14-1.69-.16-1.69-.17-1.7-.17-1.69-.19-1.7-.2-1.69-.21-1.7-.22-1.69-.23-1.7-.24-1.7-.25-1.7-.26-1.7-.27-1.7-.28-1.7-.3-1.7-.3-1.7-.31-1.71-.33-1.7-.33m165.17-17.6 1.48-.62 1.48-.62 1.48-.6 1.48-.6 1.48-.58 1.48-.58 1.49-.57 1.48-.56 1.48-.54 1.49-.54 1.48-.53 1.49-.52 1.48-.51 1.49-.51 1.49-.49 1.48-.48 1.49-.47 1.49-.47 1.49-.45 1.49-.45 1.5-.43 1.49-.43 1.49-.41 1.49-.41 1.5-.4 1.49-.38 1.5-.38 1.49-.37 1.5-.36 1.5-.35 1.5-.34 1.49-.33 1.5-.33 1.5-.31 1.5-.3 1.5-.29 1.51-.29 1.5-.27 1.5-.27 1.51-.25 1.5-.25 1.51-.23 1.5-.23 1.51-.22 1.5-.21 1.51-.2 1.51-.19 1.51-.18 1.51-.17 1.51-.16 1.51-.15 1.51-.14 1.52-.13 1.51-.13 1.51-.11 1.52-.1 1.51-.1 1.52-.08 1.51-.08 1.52-.07 1.52-.05 1.52-.05 1.51-.04 1.52-.03 1.52-.02h4.57l1.52.02 1.53.03 1.52.04 1.52.05 1.53.05 1.53.07 1.52.07 1.53.09 1.53.09 1.53.11 1.53.11 1.53.12 1.53.14 1.53.14 1.53.15 1.53.16 1.54.17 1.53.18 1.54.19 1.53.2 1.54.21 1.53.21 1.54.23 1.54.24 1.54.24 1.54.26 1.54.26 1.54.28 1.54.28 1.54.29 1.54.31" style="stroke-width:1.07;stroke:#000000;stroke-opacity:0.10;stroke-linecap:butt"/><path d="m297.23 484.8 3.77 6.53h-7.53zm-23.62-342.53 5.13 8.88h-10.26zm-127.74-7.44 4.53 7.86h-9.07zm227.37 169.24 4.54 7.86h-9.07zM55.97 255.71l3.77 6.53H52.2zm11.42 167.02 1.92 3.32h-3.83zm105.09 99.23 1.91 3.31h-3.83z" style="stroke-width:0.71;stroke:none;fill:#00BA38"/><circle cx="208.07" cy="326.91" r="6.76" style="stroke-width:0.71;stroke:none;fill:#F8766D"/><path d="M519.4 296.76h6.74v-6.74h-6.74z" style="stroke-width:0.71;stroke:none;fill:#619CFF"/><path d="m292.09 493.79 4.29-3.87m-17.59-346.41-4.32 3.9m-133.8-2.65 4.34-3.92m223.11 173.09 4.27-3.84M60.85 257.44l-3.82 2.05m15.25 164.83-3.63.46m109.06 94.66-4.37 3.95m29.33-191.82 4.52-3.9" style="stroke-width:0.53;stroke:#BFBFBF"/><path d="M255.66 505.14h58.04l-.09-.01.35-.01.34-.07.32-.12.3-.18.27-.22.23-.26.19-.29.14-.32.08-.34.03-.34h0v-7.03h0l-.03-.35-.08-.33-.14-.32-.19-.3-.23-.26-.27-.22-.3-.17-.32-.13-.34-.06-.26-.02h-58.04l.26.02-.34-.02-.35.04-.33.1-.32.15-.28.2-.25.24-.21.28-.16.3-.11.33-.06.35-.01.17v7.03l.01-.18v.35l.06.34.11.33.16.31.21.28.25.24.28.2.32.15.33.09.35.04z" style="stroke-width:0.53;fill:#FFFFFF;fill-opacity:0.50"/><text x="284.68" y="501.54" lengthAdjust="spacingAndGlyphs" style="font-size:5.69px;font-family:&quot;Liberation Sans&quot;" text-anchor="middle" textLength="55.15">JAMES ROBINSON II</text><path d="M253.41 143.51H319h-.09l.35-.02.34-.06.32-.13.31-.17.26-.22.24-.26.18-.3.14-.32.08-.33.03-.35h0v-7.03h0l-.03-.34-.08-.34-.14-.32-.18-.29-.24-.26-.26-.22-.31-.18-.32-.12-.34-.07-.26-.02h-65.59l.26.02-.35-.01-.35.04-.33.09-.31.15-.29.2-.25.24-.21.28-.16.31-.11.33-.06.34v7.2-.17.34l.06.35.11.33.16.31.21.27.25.24.29.2.31.15.33.1.35.04z" style="stroke-width:0.53;fill:#FFFFFF;fill-opacity:0.50"/><text x="286.2" y="139.91" lengthAdjust="spacingAndGlyphs" style="font-size:5.69px;font-family:&quot;Liberation Sans&quot;" text-anchor="middle" textLength="62.71">JAMES T ROBINSON JR</text><path d="M103.11 156.11h60.31-.09l.35-.02.34-.07.32-.12.3-.18.27-.21.23-.27.19-.29.13-.32.09-.34.03-.34h0v-7.03h0l-.03-.35-.09-.33-.13-.32-.19-.3-.23-.26-.27-.22-.3-.17-.32-.12-.34-.07-.26-.02h-60.31l.26.02-.35-.02-.34.04-.34.1-.31.15-.29.2-.25.24-.21.28-.16.3-.11.33-.05.35-.01.17v7.03l.01-.18v.35l.05.34.11.33.16.31.21.28.25.24.29.2.31.15.34.09.34.05z" style="stroke-width:0.53;fill:#FFFFFF;fill-opacity:0.50"/><text x="133.26" y="152.51" lengthAdjust="spacingAndGlyphs" style="font-size:5.69px;font-family:&quot;Liberation Sans&quot;" text-anchor="middle" textLength="57.43">JAMES ROBINSON JR</text><path d="M328.18 325.27h64.99-.09l.35-.01.34-.07.33-.12.3-.18.27-.22.23-.26.18-.29.14-.32.08-.34.03-.35h0v-7.02h0l-.03-.35-.08-.34-.14-.32-.18-.29-.23-.26-.27-.22-.3-.17-.33-.13-.34-.07-.26-.01h-64.99l.26.01-.34-.01-.35.04-.33.1-.32.15-.28.19-.25.24-.21.28-.16.31-.11.33-.06.34-.01.18v7.02l.01-.17v.35l.06.34.11.33.16.31.21.28.25.24.28.2.32.14.33.1.35.04z" style="stroke-width:0.53;fill:#FFFFFF;fill-opacity:0.50"/><text x="360.68" y="321.67" lengthAdjust="spacingAndGlyphs" style="font-size:5.69px;font-family:&quot;Liberation Sans&quot;" text-anchor="middle" textLength="62.11">JAMES ROBINSON LLC</text><path d="M63.01 262.28h58.15-.08l.34-.02.34-.07.33-.12.3-.17.27-.22.23-.26.18-.3.14-.32.08-.33.03-.35h0v-7.03h0l-.03-.34-.08-.34-.14-.32-.18-.3-.23-.26-.27-.22-.3-.17-.33-.12-.34-.07-.26-.02H63.01l.26.02-.35-.02-.34.05-.34.09-.31.15-.29.2-.25.24-.21.28-.16.31-.11.32-.06.35v7.2-.17.34l.06.35.11.33.16.3.21.28.25.24.29.2.31.15.34.1.34.04z" style="stroke-width:0.53;fill:#FFFFFF;fill-opacity:0.50"/><text x="92.09" y="258.68" lengthAdjust="spacingAndGlyphs" style="font-size:5.69px;font-family:&quot;Liberation Sans&quot;" text-anchor="middle" textLength="55.27">JAMES T ROBINSON</text><path d="M74.44 429.98h63.31-.08l.35-.01.34-.07.32-.13.3-.17.27-.22.23-.26.19-.29.13-.32.09-.34.02-.35h0v-7.02h0l-.02-.35-.09-.34-.13-.32-.19-.29-.23-.26-.27-.22-.3-.18-.32-.12-.34-.07-.27-.01H74.44l.26.01-.35-.01-.34.04-.34.1-.31.15-.29.19-.25.24-.21.28-.16.31-.11.33-.05.34-.01.18v7.02l.01-.17v.35l.05.34.11.33.16.31.21.28.25.24.29.19.31.15.34.1.34.04z" style="stroke-width:0.53;fill:#FFFFFF;fill-opacity:0.50"/><text x="106.1" y="426.38" lengthAdjust="spacingAndGlyphs" style="font-size:5.69px;font-family:&quot;Liberation Sans&quot;" text-anchor="middle" textLength="60.44">JAMES T ROBINSON II</text><path d="M154.22 519.44h61.79-.09l.35-.01.34-.07.33-.13.3-.17.27-.22.23-.26.18-.29.14-.32.08-.34.03-.35h0v-7.03h0l-.03-.34-.08-.34-.14-.32-.18-.29-.23-.26-.27-.22-.3-.18-.33-.12-.34-.07-.26-.02h-61.79l.26.02-.35-.01-.34.04-.34.09-.31.15-.29.2-.25.24-.21.28-.16.31-.11.33-.05.34-.01.17v7.03l.01-.17v.35l.05.34.11.33.16.31.21.27.25.24.29.2.31.15.34.1.34.04z" style="stroke-width:0.53;fill:#FFFFFF;fill-opacity:0.50"/><text x="185.11" y="515.84" lengthAdjust="spacingAndGlyphs" style="font-size:5.69px;font-family:&quot;Liberation Sans&quot;" text-anchor="middle" textLength="58.91">THERESA ROBINSON</text><path d="M156.18 351.12h68.65l-.08-.01.34-.01.34-.07.33-.12.3-.18.27-.22.23-.26.18-.29.14-.32.08-.34.03-.34h0v-15.23h0l-.03-.34-.08-.34-.14-.32-.18-.29-.23-.26-.27-.22-.3-.18-.33-.12-.34-.07-.26-.02h-68.65l.26.02-.35-.01-.34.04-.34.1-.31.14-.29.2-.25.24-.21.28-.16.31-.11.33-.05.34-.01.17v15.23l.01-.18v.35l.05.34.11.33.16.31.21.28.25.24.29.2.31.15.34.09.34.04z" style="stroke-width:0.53;fill:#FFFFFF;fill-opacity:0.50"/><text x="190.51" y="339.32" lengthAdjust="spacingAndGlyphs" style="font-size:5.69px;font-family:&quot;Liberation Sans&quot;" text-anchor="middle" textLength="65.77">8129 KENSINGTON DR,</text><text x="190.51" y="347.52" lengthAdjust="spacingAndGlyphs" style="font-size:5.69px;font-family:&quot;Liberation Sans&quot;" text-anchor="middle" textLength="56.71">MEQUON, WI 53097</text><path d="M447.94 307.7h67.94-.08l.34-.01.34-.07.33-.12.3-.18.27-.22.23-.26.19-.29.13-.32.08-.34.03-.35h0v-23.41h0l-.03-.35-.08-.34-.13-.32-.19-.29-.23-.26-.27-.22-.3-.17-.33-.13-.34-.07-.26-.01h-67.94l.26.01-.35-.01-.35.04-.33.1-.31.15-.29.19-.25.25-.21.27-.16.31-.11.33-.06.34v23.59-.17.35l.06.34.11.33.16.31.21.28.25.24.29.19.31.15.33.1.35.04z" style="stroke-width:0.53;fill:#FFFFFF;fill-opacity:0.50"/><text x="481.91" y="287.72" lengthAdjust="spacingAndGlyphs" style="font-size:5.69px;font-family:&quot;Liberation Sans&quot;" text-anchor="middle" textLength="52.69">2060 ALLEN BLVD,</text><text x="481.91" y="295.91" lengthAdjust="spacingAndGlyphs" style="font-size:5.69px;font-family:&quot;Liberation Sans&quot;" text-anchor="middle" textLength="65.07">APT 8, MIDDLETON, WI</text><text x="481.91" y="304.1" lengthAdjust="spacingAndGlyphs" style="font-size:5.69px;font-family:&quot;Liberation Sans&quot;" text-anchor="middle" textLength="18.11">53562</text></g><g clip-path="url(#cpMC4wMHw1NzYuMDB8MC4wMHw1NzYuMDA=)"><circle cx="194.24" cy="95.78" r="1.95" style="stroke-width:0.71;stroke:none;fill:#F8766D"/><path d="m270.59 92.74 2.63 4.56h-5.26z" style="stroke-width:0.71;stroke:none;fill:#00BA38"/><path d="M336.57 97.74h3.91v-3.91h-3.91z" style="stroke-width:0.71;stroke:none;fill:#619CFF"/><text x="208.36" y="98.81" lengthAdjust="spacingAndGlyphs" style="font-size:8.80px;font-family:&quot;Liberation Sans Narrow&quot;" textLength="48.12">mprop address</text><text x="284.71" y="98.81" lengthAdjust="spacingAndGlyphs" style="font-size:8.80px;font-family:&quot;Liberation Sans Narrow&quot;" textLength="39.69">owner name</text><text x="352.64" y="98.81" lengthAdjust="spacingAndGlyphs" style="font-size:8.80px;font-family:&quot;Liberation Sans Narrow&quot;" textLength="40.5">wdfi address</text><text x="32.63" y="64.23" lengthAdjust="spacingAndGlyphs" style="font-size:12.00px;font-family:&quot;Liberation Sans Narrow&quot;" textLength="252.23">includes 16 parcels, 31 units, and 7 distinct owner names.</text><text x="32.63" y="42.27" lengthAdjust="spacingAndGlyphs" style="font-size:18.00px;font-weight:bold;font-family:&quot;Liberation Sans Narrow&quot;" textLength="244.38">JAMES T ROBINSON JR etc Group</text></g></svg>