<svg xmlns="http://www.w3.org/2000/svg" width="768" height="768" class="svglite" viewBox="0 0 576 576"><defs><style>.svglite circle,.svglite line,.svglite polygon,.svglite polyline,.svglite rect{fill:none;stroke:#000;stroke-linecap:round;stroke-linejoin:round;stroke-miterlimit:10}.svglite text{white-space:pre}</style></defs><rect width="100%" height="100%" style="stroke:none;fill:#fff"/><defs><clipPath id="cpMC4wMHw1NzYuMDB8MC4wMHw1NzYuMDA="><path d="M0 0h576v576H0z"/></clipPath></defs><g clip-path="url(#cpMC4wMHw1NzYuMDB8MC4wMHw1NzYuMDA=)"><path d="M0 0h576v576H0z" style="stroke-width:1.07;stroke:none;fill:#fff"/></g><defs><clipPath id="cpMzIuNjN8NTQ2LjExfDEyMC44Nnw1NDMuMzc="><path d="M32.63 120.86h513.48v422.51H32.63z"/></clipPath></defs><g clip-path="url(#cpMzIuNjN8NTQ2LjExfDEyMC44Nnw1NDMuMzc=)"><path d="m394.38 419.31-1.39-1.16-1.4-1.16-1.39-1.15-1.4-1.16-1.4-1.16-1.4-1.15-1.4-1.15-1.4-1.15-1.4-1.15-1.4-1.15-1.41-1.15-1.4-1.15-1.41-1.14-1.4-1.15-1.41-1.14-1.41-1.14-1.4-1.14-1.41-1.14-1.41-1.14-1.41-1.14-1.42-1.14-1.41-1.13-1.41-1.13-1.41-1.14-1.42-1.13-1.41-1.13-1.42-1.13-1.42-1.13-1.41-1.12-1.42-1.13-1.42-1.12-1.42-1.13-1.42-1.12-1.43-1.12-1.42-1.12-1.42-1.12-1.43-1.11-1.42-1.12-1.43-1.11-1.42-1.12-1.43-1.11-1.43-1.11-1.43-1.11-1.43-1.11-1.43-1.11-1.43-1.1-1.43-1.11-1.44-1.1-1.43-1.11-1.43-1.1-1.44-1.1-1.44-1.1-1.43-1.1-1.44-1.09-1.44-1.1-1.44-1.09-1.44-1.1-1.44-1.09-1.44-1.09-1.45-1.09-1.44-1.09-1.44-1.09-1.45-1.08-1.44-1.09-1.45-1.08-1.45-1.08-1.45-1.09-1.45-1.08-1.45-1.08-1.45-1.07-1.45-1.08-1.45-1.08-1.45-1.07-1.46-1.07-1.45-1.08-1.46-1.07-1.45-1.07-1.46-1.07-1.46-1.06-1.46-1.07-1.46-1.06-1.46-1.07-1.46-1.06-1.46-1.06-1.47-1.06-1.46-1.06-1.46-1.06-1.47-1.06-1.46-1.05-1.47-1.06-1.47-1.05-1.47-1.05-1.47-1.05-1.47-1.05-1.47-1.05-1.47-1.05-1.47-1.04-1.48-1.05-1.47-1.04M394.38 419.31l1.26 1.11 1.26 1.11 1.26 1.11 1.26 1.11 1.27 1.11 1.26 1.1 1.26 1.11 1.27 1.1 1.26 1.11 1.27 1.1 1.26 1.1 1.27 1.1 1.27 1.1 1.27 1.1 1.27 1.09 1.27 1.1 1.27 1.09 1.27 1.1 1.28 1.09 1.27 1.09 1.27 1.09 1.28 1.09 1.27 1.09 1.28 1.08 1.28 1.09 1.28 1.09 1.28 1.08 1.28 1.08 1.28 1.08 1.28 1.08 1.28 1.08 1.28 1.08 1.29 1.08 1.28 1.08 1.29 1.07 1.28 1.07 1.29 1.08 1.29 1.07 1.28 1.07 1.29 1.07 1.29 1.07 1.29 1.07 1.3 1.06 1.29 1.07 1.29 1.06 1.29 1.07 1.3 1.06 1.29 1.06 1.3 1.06 1.3 1.06 1.29 1.06 1.3 1.06 1.3 1.05 1.3 1.06 1.3 1.05 1.3 1.05 1.31 1.05 1.3 1.06 1.3 1.04 1.31 1.05 1.3 1.05 1.31 1.05 1.31 1.04 1.3 1.05 1.31 1.04 1.31 1.04 1.31 1.04 1.31 1.04 1.31 1.04 1.32 1.04 1.31 1.04 1.31 1.03 1.32 1.04 1.31 1.03 1.32 1.03 1.32 1.03 1.32 1.03 1.31 1.03 1.32 1.03 1.32 1.03 1.32 1.02 1.33 1.03 1.32 1.02 1.32 1.02 1.33 1.03 1.32 1.02 1.33 1.02 1.32 1.01 1.33 1.02 1.33 1.02 1.33 1.01 1.32 1.02 1.33 1.01 1.34 1.01 1.33 1.01 1.33 1.01 1.33 1.01 1.34 1.01 1.33 1.01M394.38 419.31l-1.47-1.04-1.47-1.05-1.48-1.04-1.47-1.05-1.47-1.05-1.47-1.05-1.47-1.05-1.47-1.05-1.46-1.06-1.47-1.05-1.47-1.06-1.46-1.05-1.47-1.06-1.46-1.06-1.46-1.06-1.47-1.06-1.46-1.06-1.46-1.07-1.46-1.06-1.46-1.07-1.45-1.07-1.46-1.06-1.46-1.07-1.45-1.08-1.46-1.07-1.45-1.07-1.46-1.08-1.45-1.07-1.45-1.08-1.45-1.08-1.45-1.08-1.45-1.08-1.45-1.08-1.45-1.08-1.44-1.08-1.45-1.09-1.44-1.09-1.45-1.08-1.44-1.09-1.44-1.09-1.45-1.09-1.44-1.1-1.44-1.09-1.44-1.09-1.44-1.1-1.43-1.1-1.44-1.09-1.44-1.1-1.43-1.1-1.44-1.11-1.43-1.1-1.43-1.1-1.44-1.11-1.43-1.1-1.43-1.11-1.43-1.11-1.43-1.11-1.43-1.11-1.42-1.11-1.43-1.12-1.43-1.11-1.42-1.12-1.43-1.12-1.42-1.11-1.42-1.12-1.42-1.13-1.42-1.12-1.42-1.12-1.42-1.12-1.42-1.13-1.42-1.13-1.42-1.12-1.41-1.13-1.42-1.13-1.41-1.13-1.42-1.14-1.41-1.13-1.41-1.14-1.41-1.13-1.41-1.14-1.41-1.14-1.41-1.14-1.41-1.14-1.41-1.14-1.4-1.14-1.41-1.15-1.4-1.14-1.41-1.15-1.4-1.15-1.4-1.15-1.41-1.15-1.4-1.15-1.4-1.15-1.4-1.16-1.39-1.15-1.4-1.16-1.4-1.15-1.4-1.16-1.39-1.16" style="stroke-width:1.07;stroke:#000;stroke-opacity:.1;stroke-linecap:butt"/><path d="m394.38 419.31 1.34 1.01 1.33 1.01 1.34 1 1.33 1.01 1.33 1.02 1.33 1.01 1.33 1.01 1.33 1.01 1.33 1.02 1.33 1.02 1.32 1.01 1.33 1.02 1.33 1.02 1.32 1.02 1.32 1.02 1.33 1.03 1.32 1.02 1.32 1.03 1.32 1.02 1.32 1.03 1.32 1.03 1.32 1.03 1.32 1.03 1.32 1.03 1.31 1.03 1.32 1.03 1.31 1.04 1.32 1.03 1.31 1.04 1.31 1.04 1.31 1.04 1.31 1.04 1.31 1.04 1.31 1.04 1.31 1.04 1.31 1.05 1.31 1.04 1.3 1.05 1.31 1.05 1.3 1.04 1.31 1.05 1.3 1.05 1.3 1.06 1.3 1.05 1.3 1.05 1.3 1.06 1.3 1.05 1.3 1.06 1.3 1.06 1.29 1.06 1.3 1.06 1.3 1.06 1.29 1.06 1.29 1.06 1.3 1.07 1.29 1.06 1.29 1.07 1.29 1.07 1.29 1.07 1.29 1.07 1.29 1.07 1.29 1.07 1.28 1.07 1.29 1.08 1.28 1.07 1.29 1.08 1.28 1.08 1.29 1.07 1.28 1.08 1.28 1.09 1.28 1.08 1.28 1.08 1.28 1.08 1.28 1.09 1.27 1.08 1.28 1.09 1.28 1.09 1.27 1.09 1.28 1.09 1.27 1.09 1.27 1.09 1.28 1.1 1.27 1.09 1.27 1.1 1.27 1.09 1.27 1.1 1.26 1.1 1.27 1.1 1.27 1.1 1.26 1.1 1.27 1.1 1.26 1.11 1.27 1.1 1.26 1.11 1.26 1.11 1.26 1.11 1.26 1.11 1.26 1.11 1.26 1.11M330.65 140.07l-.79 1.72-.79 1.72-.79 1.71-.8 1.72-.79 1.72-.79 1.72-.79 1.72-.79 1.72-.79 1.72-.79 1.72-.79 1.72-.79 1.71-.79 1.72-.79 1.72-.8 1.72-.79 1.72-.79 1.72-.79 1.72-.79 1.72-.79 1.72-.79 1.71-.79 1.72-.79 1.72-.79 1.72-.79 1.72-.8 1.72-.79 1.72-.79 1.72-.79 1.72-.79 1.71-.79 1.72-.79 1.72-.79 1.72-.79 1.72-.79 1.72-.79 1.72-.79 1.72-.8 1.72-.79 1.71-.79 1.72-.79 1.72-.79 1.72-.79 1.72-.79 1.72-.79 1.72-.79 1.72-.79 1.72-.79 1.71-.8 1.72-.79 1.72-.79 1.72-.79 1.72-.79 1.72-.79 1.72-.79 1.72-.79 1.72-.79 1.71-.79 1.72-.79 1.72-.8 1.72-.79 1.72-.79 1.72-.79 1.72-.79 1.72-.79 1.72-.79 1.71-.79 1.72-.79 1.72-.79 1.72-.79 1.72-.8 1.72-.79 1.72-.79 1.72-.79 1.72-.79 1.71-.79 1.72-.79 1.72-.79 1.72-.79 1.72-.79 1.72-.79 1.72-.8 1.72-.79 1.71-.79 1.72-.79 1.72-.79 1.72-.79 1.72-.79 1.72-.79 1.72-.79 1.72-.79 1.72-.79 1.71-.8 1.72-.79 1.72-.79 1.72-.79 1.72-.79 1.72-.79 1.72-.79 1.72" style="stroke-width:1.07;stroke:#000;stroke-opacity:.1;stroke-linecap:butt"/><path d="m126.26 223.88 1.21.98 1.22.97 1.21.97 1.21.97 1.22.97 1.22.96 1.22.96 1.22.97 1.22.95 1.22.96 1.22.95 1.23.96 1.23.95 1.22.94 1.23.95 1.23.94 1.23.95 1.24.94 1.23.93 1.24.94 1.23.93 1.24.93 1.24.93 1.24.93 1.24.92 1.25.93 1.24.92 1.25.92 1.24.91 1.25.92 1.25.91 1.25.91 1.25.91 1.26.9 1.25.91 1.26.9 1.25.9 1.26.9 1.26.89 1.26.89 1.26.9 1.27.88 1.26.89 1.27.89 1.26.88 1.27.88 1.27.88 1.27.87 1.28.88 1.27.87 1.27.87 1.28.87 1.28.87 1.28.86 1.28.86 1.28.86 1.28.86 1.28.85 1.29.86 1.29.85 1.28.85 1.29.84 1.29.85 1.29.84 1.3.84 1.29.84 1.3.84 1.29.83 1.3.84 1.3.83 1.3.82 1.3.83 1.31.82 1.3.83 1.3.82 1.31.81 1.31.82 1.31.81 1.31.81 1.31.81 1.31.81 1.32.8 1.31.81 1.32.8 1.32.8 1.32.79 1.32.8 1.32.79 1.33.79 1.32.79 1.33.78 1.32.79 1.33.78 1.33.78 1.33.78 1.34.77 1.33.78 1.33.77 1.34.77M126.26 223.88l.13 2 .12 1.99.13 2 .14 2 .13 1.99.14 2 .14 1.99.15 1.99.15 2 .15 1.99.15 1.99.16 1.99.16 2 .16 1.99.16 1.99.17 1.99.17 1.99.18 1.99.17 1.99.18 1.98.18 1.99.19 1.99.19 1.99.19 1.98.19 1.99.2 1.99.2 1.98.2 1.99.21 1.98.2 1.98.22 1.99.21 1.98.22 1.98.22 1.99.22 1.98.22 1.98.23 1.98.23 1.98.24 1.98.24 1.98.24 1.98.24 1.98.24 1.98.25 1.97.26 1.98.25 1.98.26 1.98.26 1.97.26 1.98.27 1.97.27 1.98.27 1.97.27 1.98.28 1.97.28 1.97.28 1.98.29 1.97.29 1.97.29 1.97.3 1.97.29 1.97.3 1.97.31 1.97.31 1.97.3 1.97.32 1.97.31 1.97.32 1.96.32 1.97.32 1.97.33 1.96.33 1.97.33 1.96.34 1.97.34 1.96.34 1.97.34 1.96.35 1.96.35 1.96.35 1.97.36 1.96.36 1.96.36 1.96.36 1.96.37 1.96.37 1.96.37 1.96.38 1.96.38 1.96.38 1.95.38 1.96.39 1.96.39 1.95.39 1.96.4 1.96.4 1.95.4 1.96.41 1.95.4 1.95" style="stroke-width:1.07;stroke:#000;stroke-opacity:.1;stroke-linecap:butt"/><path d="m55.97 362.22 2.09-.05 2.1-.05 2.09-.06 2.09-.08 2.09-.08 2.08-.09 2.09-.11 2.08-.11 2.07-.12 2.08-.13 2.07-.14 2.07-.15 2.07-.17 2.07-.17 2.06-.18 2.07-.19 2.06-.2 2.05-.21 2.06-.22 2.05-.23 2.05-.24 2.05-.25 2.05-.26 2.04-.27 2.04-.28 2.04-.29 2.04-.3 2.03-.31 2.03-.32 2.03-.32 2.03-.34 2.02-.35 2.03-.36 2.02-.37 2.02-.37 2.01-.39 2.02-.4 2.01-.41 2.01-.41 2-.43 2.01-.44 2-.44 2-.46 2-.47 1.99-.47 1.99-.49 1.99-.49 1.99-.51 1.99-.51 1.98-.53 1.98-.53 1.98-.55 1.98-.55 1.97-.57 1.98-.57 1.97-.59 1.96-.59 1.97-.6 1.96-.62 1.96-.62 1.96-.63 1.96-.65 1.95-.65 1.95-.66 1.95-.67 1.95-.69 1.94-.69 1.94-.7 1.94-.71 1.94-.72 1.94-.73 1.93-.75 1.93-.75 1.93-.76 1.93-.77 1.92-.78 1.92-.79 1.92-.8 1.92-.81 1.91-.82 1.91-.83 1.91-.84 1.91-.85 1.91-.86 1.9-.87 1.9-.87 1.9-.89 1.89-.9 1.9-.91 1.89-.92 1.89-.93 1.89-.93 1.88-.95 1.88-.96 1.88-.97 1.88-.97 1.88-.99 1.87-1 1.87-1M55.97 362.22l.85.81.85.81.86.81.86.8.86.79.87.79.86.79.87.78.88.78.87.77.88.76.88.77.88.75.88.75.89.75.89.74.89.74.9.73.9.73.9.73.9.71.9.72.91.71.91.7.92.7.91.69.92.69.92.69.92.67.93.68.92.67.94.66.93.66.93.66.94.65.94.65.95.64.94.63.95.63.95.63.95.62.96.62.96.61.96.61.96.6.97.6.97.59.97.59.97.58.98.58.98.57.98.57.98.56.99.56.99.55.99.55.99.55 1 .54 1 .53 1 .53 1 .53 1.01.52 1.01.51 1.01.51 1.01.51 1.02.5 1.02.49 1.02.49 1.03.49 1.02.48 1.03.48 1.03.47 1.04.47 1.03.46 1.04.45 1.05.46 1.04.44 1.05.45 1.05.43 1.05.44 1.05.42 1.06.43 1.06.42 1.06.41 1.07.41 1.07.4 1.07.4 1.07.4 1.07.39 1.08.38 1.08.38 1.08.37 1.09.37 1.09.37 1.09.36 1.09.36 1.09.35 1.1.34 1.1.34" style="stroke-width:1.07;stroke:#000;stroke-opacity:.1;stroke-linecap:butt"/><path d="m55.97 362.22 2.06-.21 2.05-.21 2.06-.22 2.05-.22 2.06-.23 2.05-.24 2.05-.24 2.05-.25 2.04-.26 2.05-.26 2.04-.27 2.04-.27 2.04-.29 2.04-.29 2.04-.29 2.04-.3 2.03-.31 2.03-.32 2.03-.32 2.03-.33 2.03-.33 2.03-.35 2.02-.34 2.03-.36 2.02-.36 2.02-.37 2.02-.37 2.02-.38 2.01-.39 2.02-.39 2.01-.41 2.01-.4 2.01-.42 2.01-.42 2.01-.42 2-.44 2-.44 2.01-.44 2-.46 2-.46 1.99-.46 2-.47 1.99-.48 2-.49 1.99-.49 1.99-.5 1.99-.51 1.98-.51 1.99-.52 1.98-.52 1.98-.53 1.98-.54 1.98-.55 1.98-.55 1.98-.55 1.97-.57 1.97-.57 1.98-.58 1.97-.58 1.96-.59 1.97-.6 1.97-.6 1.96-.61 1.96-.62 1.96-.62 1.96-.63 1.96-.64 1.96-.64 1.95-.65 1.95-.66 1.95-.66 1.95-.67 1.95-.67 1.95-.69 1.94-.69 1.95-.69 1.94-.7 1.94-.71 1.94-.72 1.94-.72 1.93-.73 1.94-.73 1.93-.74 1.93-.75 1.93-.75 1.93-.77 1.93-.76 1.92-.78 1.93-.78 1.92-.78 1.92-.8 1.92-.8 1.92-.8 1.91-.82 1.92-.82 1.91-.82 1.91-.84 1.91-.84 1.91-.84M55.97 362.22l.89.73.9.73.89.73.9.73.9.72.9.72.91.72.9.71.91.71.91.71.91.7.91.7.91.7.92.7.91.69.92.68.92.69.93.68.92.68.92.67.93.67.93.67.93.67.93.66.94.66.93.65.94.65.94.65.94.65.94.64.95.64.94.64.95.63.95.63.95.62.95.63.96.62.95.61.96.62.96.61.96.6.96.61.97.6.96.6.97.59.97.59.97.59.97.58.98.58.97.58.98.58.98.57.98.57.98.56.99.56.98.56.99.56.99.55.99.55 1 .54.99.55 1 .54 1 .53 1 .54 1 .52 1 .53 1.01.52 1 .52 1.01.52 1.01.51 1.01.51 1.01.51 1.02.51 1.02.5 1.01.49 1.02.5 1.03.49 1.02.49 1.03.48 1.02.48 1.03.48 1.03.47 1.03.48 1.04.46 1.03.47 1.04.46 1.04.46 1.04.46 1.04.45 1.04.45 1.05.44 1.05.45 1.04.43 1.06.44 1.05.43 1.05.43 1.06.43 1.05.42 1.06.42" style="stroke-width:1.07;stroke:#000;stroke-opacity:.1;stroke-linecap:butt"/><path d="m55.97 362.22 2.02-.37 2.02-.37 2.02-.37 2.02-.37 2.02-.38 2.01-.38 2.02-.38 2.02-.39 2.01-.39 2.02-.4 2.01-.39 2.01-.4 2.01-.41 2.02-.41 2.01-.41 2.01-.41 2.01-.42 2-.42 2.01-.42 2.01-.43 2-.43 2.01-.43 2-.44 2.01-.44 2-.44 2-.45 2-.45 2-.45 2-.46 2-.45 2-.47 2-.46 1.99-.47 2-.48 2-.47 1.99-.48 1.99-.48 2-.49 1.99-.49 1.99-.49 1.99-.5 1.99-.49 1.99-.51 1.99-.5 1.99-.51 1.98-.51 1.99-.52 1.98-.52 1.99-.52 1.98-.52 1.98-.53 1.99-.53 1.98-.54 1.98-.54 1.98-.54 1.98-.54 1.98-.55 1.97-.55 1.98-.56 1.98-.55 1.97-.57 1.98-.56 1.97-.57 1.97-.57 1.97-.57 1.98-.58 1.97-.58 1.97-.58 1.96-.59 1.97-.59 1.97-.6 1.97-.59 1.96-.6 1.97-.61 1.96-.6 1.97-.61 1.96-.62 1.96-.61 1.96-.62 1.96-.63 1.96-.62 1.96-.63 1.96-.64 1.96-.63 1.96-.64 1.95-.65 1.96-.64 1.95-.65 1.95-.65 1.96-.66 1.95-.66 1.95-.66 1.95-.67 1.95-.67 1.95-.67 1.95-.68 1.95-.68 1.94-.68 1.95-.68M55.97 362.22l.93.65.94.66.93.65.94.65.94.65.94.65.94.65.94.65.94.64.94.64.95.64.94.64.94.64.95.64.95.63.94.63.95.63.95.63.95.63.95.63.95.62.96.63.95.62.95.62.96.62.95.61.96.62.96.61.96.61.96.61.96.61.96.61.96.6.96.61.97.6.96.6.96.6.97.6.97.59.96.6.97.59.97.59.97.59.97.59.98.58.97.59.97.58.98.58.97.58.98.58.98.57.97.58.98.57.98.57.98.57.98.57.98.57.99.56.98.57.99.56.98.56.99.56.98.55.99.56.99.55.99.56.99.55.99.55.99.54 1 .55.99.54 1 .55.99.54 1 .54 1 .53.99.54 1 .53 1 .54 1 .53 1 .53 1.01.52 1 .53 1 .53 1.01.52 1 .52 1.01.52 1.01.52 1.01.52 1.01.51 1.01.51 1.01.52 1.01.51 1.01.5 1.01.51 1.02.51 1.01.5 1.02.5 1.02.5 1.01.5" style="stroke-width:1.07;stroke:#000;stroke-opacity:.1;stroke-linecap:butt"/><path d="m55.97 362.22 1.98-.53 1.99-.52 1.98-.53 1.98-.52 1.99-.53 1.98-.52 1.98-.53 1.99-.52 1.98-.53 1.98-.52 1.99-.53 1.98-.52 1.99-.53 1.98-.52 1.98-.53 1.99-.52 1.98-.53 1.98-.52 1.99-.53 1.98-.52 1.98-.53 1.99-.52 1.98-.53 1.99-.52 1.98-.53 1.98-.52 1.99-.53 1.98-.53 1.98-.52 1.99-.53 1.98-.52 1.98-.53 1.99-.52 1.98-.53 1.99-.52 1.98-.53 1.98-.52 1.99-.53 1.98-.52 1.98-.53 1.99-.52 1.98-.53 1.98-.52 1.99-.53 1.98-.52 1.99-.53 1.98-.52 1.98-.53 1.99-.52 1.98-.53 1.98-.52 1.99-.53 1.98-.52 1.99-.53 1.98-.52 1.98-.53 1.99-.52 1.98-.53 1.98-.52 1.99-.53 1.98-.52 1.98-.53 1.99-.52 1.98-.53 1.99-.52 1.98-.53 1.98-.52 1.99-.53 1.98-.52 1.98-.53 1.99-.52 1.98-.53 1.98-.52 1.99-.53 1.98-.52 1.99-.53 1.98-.52 1.98-.53 1.99-.52 1.98-.53 1.98-.52 1.99-.53 1.98-.52 1.98-.53 1.99-.52 1.98-.53 1.99-.52 1.98-.53 1.98-.52 1.99-.53 1.98-.52 1.98-.53 1.99-.52 1.98-.53 1.99-.52 1.98-.53 1.98-.52 1.99-.53 1.98-.52M55.97 362.22l.97.57.98.58.98.58.97.58.98.58.97.57.98.58.98.58.97.58.98.58.98.57.97.58.98.58.97.58.98.58.98.57.97.58.98.58.97.58.98.58.98.57.97.58.98.58.97.58.98.57.98.58.97.58.98.58.98.58.97.57.98.58.97.58.98.58.98.58.97.57.98.58.97.58.98.58.98.58.97.57.98.58.97.58.98.58.98.58.97.57.98.58.98.58.97.58.98.58.97.57.98.58.98.58.97.58.98.58.97.57.98.58.98.58.97.58.98.58.97.57.98.58.98.58.97.58.98.57.98.58.97.58.98.58.97.58.98.57.98.58.97.58.98.58.97.58.98.57.98.58.97.58.98.58.97.58.98.57.98.58.97.58.98.58.98.58.97.57.98.58.97.58.98.58.98.58.97.57.98.58.97.58.98.58.98.58.97.57.98.58.97.58.98.58.98.58.97.57" style="stroke-width:1.07;stroke:#000;stroke-opacity:.1;stroke-linecap:butt"/><path d="m55.97 362.22 1.94-.69 1.95-.68 1.95-.68 1.95-.68 1.95-.67 1.95-.67 1.95-.66 1.95-.67 1.95-.66 1.95-.65 1.96-.65 1.95-.65 1.96-.65 1.95-.64 1.96-.64 1.96-.64 1.95-.63 1.96-.63 1.96-.63 1.96-.62 1.97-.62 1.96-.62 1.96-.61 1.96-.61 1.97-.61 1.96-.6 1.97-.6 1.97-.6 1.96-.59 1.97-.6 1.97-.58 1.97-.59 1.97-.58 1.97-.57 1.98-.58 1.97-.57 1.97-.57 1.98-.56 1.97-.56 1.98-.56 1.97-.56 1.98-.55 1.98-.54 1.98-.55 1.98-.54 1.98-.54 1.98-.53 1.98-.54 1.99-.52 1.98-.53 1.98-.52 1.99-.52 1.99-.51 1.98-.52 1.99-.5 1.99-.51 1.99-.5 1.99-.5 1.99-.5 1.99-.49 1.99-.49 1.99-.48 2-.49 1.99-.48 2-.47 1.99-.47 2-.47 2-.47 2-.46 1.99-.46 2-.46 2-.45 2.01-.45 2-.45 2-.44 2-.44 2.01-.44 2-.43 2.01-.43 2.01-.43 2-.42 2.01-.42 2.01-.42 2.01-.41 2.01-.41 2.01-.41 2.01-.4 2.02-.4 2.01-.4 2.02-.39 2.01-.39 2.02-.39 2.01-.39 2.02-.38 2.02-.38 2.02-.37 2.02-.37 2.02-.37 2.02-.36M55.97 362.22l1.02.5 1.01.5 1.02.5 1.01.5 1.02.51 1.01.5 1.01.51 1.01.51 1.02.51 1.01.52 1 .51 1.01.52 1.01.52 1.01.52 1 .52 1.01.52 1 .53 1 .52 1.01.53 1 .53 1 .53 1 .54 1 .53 1 .54.99.53 1 .54.99.54 1 .55.99.54 1 .55.99.54.99.55.99.55.99.56.99.55.99.55.98.56.99.56.99.56.98.56.98.57.99.56.98.57.98.57.98.57.98.57.98.57.98.57.97.58.98.58.97.58.98.58.97.58.97.59.98.58.97.59.97.59.97.59.97.59.96.6.97.59.97.6.96.6.97.6.96.6.96.61.96.6.96.61.96.61.96.61.96.61.96.61.96.62.95.61.96.62.95.62.95.62.96.63.95.62.95.63.95.62.95.63.95.64.94.63.95.63.95.64.94.64.94.64.95.64.94.64.94.64.94.65.94.65.94.64.94.65.94.66.93.65.94.66.93.65" style="stroke-width:1.07;stroke:#000;stroke-opacity:.1;stroke-linecap:butt"/><path d="m55.97 362.22 1.91-.85 1.91-.84 1.91-.83 1.91-.83 1.92-.82 1.91-.81 1.92-.81 1.92-.8 1.92-.79 1.92-.79 1.92-.78 1.93-.77 1.93-.77 1.93-.76 1.93-.76 1.93-.74 1.93-.75 1.93-.73 1.94-.73 1.94-.72 1.94-.72 1.94-.7 1.94-.71 1.94-.69 1.95-.69 1.95-.68 1.94-.68 1.95-.67 1.96-.66 1.95-.66 1.95-.64 1.96-.65 1.96-.63 1.96-.63 1.96-.63 1.96-.61 1.96-.61 1.97-.61 1.96-.6 1.97-.59 1.97-.58 1.97-.58 1.98-.57 1.97-.56 1.98-.56 1.97-.55 1.98-.55 1.98-.53 1.99-.54 1.98-.52 1.98-.52 1.99-.51 1.99-.51 1.99-.5 1.99-.49 1.99-.48 2-.48 1.99-.48 2-.46 2-.46 2-.45 2-.45 2.01-.44 2-.43 2.01-.43 2.01-.42 2.01-.41 2.01-.41 2.01-.4 2.01-.4 2.02-.38 2.02-.38 2.02-.38 2.02-.37 2.02-.36 2.02-.35 2.03-.35 2.03-.34 2.02-.34 2.03-.33 2.03-.32 2.04-.31 2.03-.31 2.04-.3 2.03-.3 2.04-.29 2.04-.28 2.05-.28 2.04-.27 2.04-.26 2.05-.26 2.05-.25 2.05-.24 2.05-.24 2.05-.23 2.06-.22 2.05-.22 2.06-.21 2.06-.2M55.97 362.22l1.06.42 1.05.42 1.06.43 1.05.43 1.06.43 1.05.43 1.04.44 1.05.45 1.05.44 1.04.45 1.04.45 1.04.46 1.04.46 1.04.46 1.03.46 1.04.47 1.03.47 1.03.48 1.03.48 1.03.48 1.02.48 1.02.49 1.03.49 1.02.5 1.01.49 1.02.5 1.02.51 1.01.5 1.01.51 1.01.52 1.01.51 1.01.52 1 .53 1 .52 1.01.53.99.54 1 .53 1 .54.99.54 1 .55.99.55.99.55.99.56.98.56.99.56.98.56.98.57.98.57.98.58.97.57.98.59.97.58.97.59.97.59.97.59.97.6.96.6.96.6.96.61.96.61.96.61.96.62.95.62.95.62.95.63.95.63.95.63.95.64.94.64.94.64.94.65.94.65.94.65.93.65.94.66.93.66.93.67.93.67.93.67.92.67.93.68.92.68.92.69.92.68.91.69.92.7.91.69.91.71.91.7.91.71.91.71.9.71.91.72.9.72.9.72.9.72.89.73.9.74.89.73" style="stroke-width:1.07;stroke:#000;stroke-opacity:.1;stroke-linecap:butt"/><path d="m55.97 362.22 1.87-1.01 1.87-1 1.88-.98 1.87-.98 1.88-.97 1.89-.96 1.88-.94 1.89-.94 1.89-.93 1.89-.92 1.89-.91 1.9-.89 1.9-.89 1.9-.88 1.9-.87 1.91-.86 1.9-.85 1.91-.84 1.92-.83 1.91-.82 1.92-.81 1.92-.8 1.92-.79 1.92-.78 1.93-.77 1.93-.76 1.93-.75 1.93-.74 1.94-.73 1.93-.73 1.94-.71 1.95-.7 1.94-.69 1.95-.68 1.95-.68 1.95-.66 1.95-.65 1.96-.64 1.96-.64 1.96-.62 1.96-.61 1.96-.61 1.97-.59 1.97-.59 1.97-.57 1.98-.56 1.97-.56 1.98-.54 1.99-.54 1.98-.52 1.98-.52 1.99-.5 1.99-.5 2-.49 1.99-.47 2-.47 2-.45 2-.45 2.01-.44 2-.42 2.01-.42 2.01-.41 2.02-.39 2.01-.39 2.02-.38 2.02-.37 2.02-.36 2.03-.34 2.03-.34 2.03-.33 2.03-.32 2.03-.31 2.04-.3 2.04-.29 2.04-.28 2.04-.27 2.05-.26 2.05-.24 2.05-.25 2.05-.23 2.05-.22 2.06-.21 2.06-.2 2.06-.19 2.07-.18 2.06-.17 2.07-.16 2.07-.15 2.08-.15 2.07-.13 2.08-.12 2.08-.11 2.08-.1 2.09-.1 2.09-.08 2.09-.07 2.09-.07 2.09-.05 2.1-.04M55.97 362.22l1.1.34 1.1.34 1.09.35 1.09.36 1.09.36 1.09.36 1.09.37 1.08.38 1.08.38 1.08.38 1.07.39 1.07.4 1.07.4 1.07.4 1.07.41 1.06.41 1.06.42 1.06.42 1.05.43 1.05.44 1.05.43 1.05.45 1.04.44 1.05.45 1.04.46 1.03.46 1.04.47 1.03.47 1.03.48 1.03.48 1.02.49 1.02.49 1.02.49 1.02.5 1.01.51 1.01.51 1.01.51 1.01.52 1 .53 1 .53 1 .53 1 .54.99.55 1 .54.98.56.99.56.98.56.98.57.98.57.98.58.97.58.97.59.97.59.97.6.96.6.96.61.96.61.96.62.95.62.95.63.95.63.95.63.94.64.94.65.94.65.93.65.94.67.93.66.92.67.93.67.92.68.92.69.92.69.92.69.91.7.91.7.91.71.9.72.9.71.9.73.9.72.9.74.89.74.89.74.89.74.88.76.88.75.88.77.88.76.87.77.88.78.87.78.86.79.87.79.86.79.86.8.86.81.85.81.85.81M126.26 223.88l1.28.87 1.27.88 1.27.87 1.28.87 1.27.87 1.27.88 1.28.87 1.27.87 1.27.87 1.28.87 1.27.88 1.28.87 1.27.87 1.27.87 1.28.88 1.27.87 1.27.87 1.28.87 1.27.87 1.27.88 1.28.87 1.27.87 1.28.87 1.27.88 1.27.87 1.28.87 1.27.87 1.27.88 1.28.87 1.27.87 1.27.87 1.28.87 1.27.88 1.27.87 1.28.87 1.27.87 1.28.88 1.27.87 1.27.87 1.28.87 1.27.87 1.27.88 1.28.87 1.27.87 1.27.87 1.28.88 1.27.87 1.28.87 1.27.87 1.27.88 1.28.87 1.27.87 1.27.87 1.28.87 1.27.88 1.27.87 1.28.87 1.27.87 1.28.88 1.27.87 1.27.87 1.28.87 1.27.88 1.27.87 1.28.87 1.27.87 1.27.87 1.28.88 1.27.87 1.27.87 1.28.87 1.27.88 1.28.87 1.27.87 1.27.87 1.28.87 1.27.88 1.27.87 1.28.87 1.27.87 1.27.88 1.28.87 1.27.87 1.28.87 1.27.88 1.27.87 1.28.87 1.27.87 1.27.87 1.28.88 1.27.87 1.27.87 1.28.87 1.27.88 1.28.87 1.27.87 1.27.87 1.28.87 1.27.88" style="stroke-width:1.07;stroke:#000;stroke-opacity:.1;stroke-linecap:butt"/><path d="m126.26 223.88.27 1.98.26 1.97.27 1.98.27 1.97.26 1.98.27 1.97.26 1.98.27 1.97.27 1.98.26 1.97.27 1.98.26 1.97.27 1.98.27 1.98.26 1.97.27 1.98.27 1.97.26 1.98.27 1.97.26 1.98.27 1.97.27 1.98.26 1.97.27 1.98.26 1.97.27 1.98.27 1.97.26 1.98.27 1.97.26 1.98.27 1.97.27 1.98.26 1.98.27 1.97.26 1.98.27 1.97.27 1.98.26 1.97.27 1.98.26 1.97.27 1.98.27 1.97.26 1.98.27 1.97.27 1.98.26 1.97.27 1.98.26 1.97.27 1.98.27 1.97.26 1.98.27 1.98.26 1.97.27 1.98.27 1.97.26 1.98.27 1.97.26 1.98.27 1.97.27 1.98.26 1.97.27 1.98.26 1.97.27 1.98.27 1.97.26 1.98.27 1.97.26 1.98.27 1.97.27 1.98.26 1.98.27 1.97.27 1.98.26 1.97.27 1.98.26 1.97.27 1.98.27 1.97.26 1.98.27 1.97.26 1.98.27 1.97.27 1.98.26 1.97.27 1.98.26 1.97.27 1.98.27 1.98.26 1.97.27 1.98.26 1.97.27 1.98.27 1.97.26 1.98.27 1.97.26 1.98.27 1.97.27 1.98.26 1.97M126.26 223.88l1.34.77 1.33.77 1.34.78 1.33.77 1.33.78 1.33.78 1.33.78 1.33.78 1.32.79 1.33.79 1.32.79 1.32.79 1.32.8 1.32.79 1.32.8 1.32.8 1.31.8 1.32.81 1.31.81 1.31.81 1.31.81 1.31.81 1.31.82 1.31.81 1.3.82 1.31.82 1.3.83 1.3.82 1.3.83 1.3.83 1.3.84 1.3.83 1.29.84 1.29.84 1.3.84 1.29.84 1.29.84 1.29.85 1.29.85 1.28.85 1.29.85 1.28.86 1.28.86 1.28.86 1.28.86 1.28.86 1.28.87 1.28.87 1.27.87 1.28.87 1.27.87 1.27.88 1.27.88 1.27.88 1.26.88 1.27.89 1.26.88 1.27.89 1.26.89 1.26.9 1.26.89 1.26.9 1.26.9 1.25.9 1.26.91 1.25.9 1.25.91 1.25.91 1.25.91 1.25.92 1.25.91 1.24.92 1.25.92 1.24.92 1.24.93 1.24.93 1.24.93 1.24.93 1.24.93 1.23.94 1.23.93 1.24.94 1.23.94 1.23.95 1.23.94 1.23.95 1.22.95 1.23.95 1.22.96 1.22.95 1.23.96 1.22.96 1.21.97 1.22.96 1.22.97 1.21.97 1.22.97 1.21.97 1.21.98" style="stroke-width:1.07;stroke:#000;stroke-opacity:.1;stroke-linecap:butt"/><path d="m126.26 223.88.41 1.96.4 1.95.41 1.95.4 1.96.39 1.95.39 1.96.39 1.96.39 1.95.39 1.96.38 1.96.38 1.96.37 1.96.38 1.95.37 1.96.36 1.96.37 1.96.36 1.96.36 1.97.35 1.96.36 1.96.35 1.96.34 1.97.35 1.96.34 1.96.34 1.97.33 1.96.33 1.97.33 1.96.33 1.97.32 1.96.32 1.97.32 1.97.32 1.97.31 1.97.31 1.96.31 1.97.3 1.97.3 1.97.3 1.97.29 1.97.3 1.98.28 1.97.29 1.97.28 1.97.29 1.97.27 1.98.28 1.97.27 1.98.27 1.97.26 1.98.27 1.97.26 1.98.26 1.98.25 1.97.25 1.98.25 1.98.25 1.98.24 1.97.24 1.98.24 1.98.23 1.98.23 1.98.23 1.99.23 1.98.22 1.98.22 1.98.22 1.98.21 1.99.21 1.98.21 1.98.2 1.99.21 1.98.2 1.99.19 1.98.2 1.99.19 1.99.19 1.98.18 1.99.18 1.99.18 1.99.18 1.99.17 1.99.17 1.99.17 1.99.17 1.99.16 1.99.16 1.99.15 1.99.16 1.99.15 2 .15 1.99.14 1.99.14 2 .14 1.99.14 2 .13 1.99.13 2 .13 2 .12 1.99M152.6 419.43l1.48-.61 1.48-.62 1.46-.64 1.45-.64 1.45-.66 1.43-.66 1.42-.67 1.42-.69 1.4-.69 1.4-.7 1.38-.72 1.38-.72 1.36-.74 1.36-.74 1.34-.75 1.34-.77 1.33-.77 1.31-.78 1.31-.8 1.3-.8 1.29-.81 1.28-.83 1.27-.83 1.25-.84 1.25-.86 1.24-.86 1.23-.88 1.22-.88 1.22-.89 1.2-.91 1.19-.91 1.18-.92 1.17-.94 1.16-.94 1.16-.95 1.14-.96 1.13-.98 1.13-.98 1.11-.99 1.11-1.01 1.09-1.01 1.09-1.02 1.07-1.04 1.07-1.04 1.05-1.05 1.05-1.07 1.03-1.07 1.03-1.08 1.02-1.1 1.01-1.1.99-1.11.99-1.12.98-1.14.97-1.14.96-1.15.95-1.17.94-1.17.93-1.18.92-1.19.91-1.21.9-1.21.89-1.22.88-1.24.88-1.24.86-1.25.85-1.26.84-1.28.84-1.28.82-1.29.81-1.3.81-1.32.79-1.32.79-1.33.77-1.34.77-1.36.76-1.36.74-1.37.74-1.38.72-1.4.72-1.4.71-1.41.7-1.42.69-1.44.67-1.44.67-1.45.66-1.46.65-1.48.64-1.48.63-1.49.62-1.5.61-1.52.6-1.52.59-1.53.59-1.54.57-1.55.56-1.57.55-1.57.55-1.58.53-1.59" style="stroke-width:1.07;stroke:#000;stroke-opacity:.1;stroke-linecap:butt"/><path d="m152.6 419.43 1.41-.69 1.39-.71 1.39-.71 1.38-.72 1.37-.73 1.36-.73 1.35-.75 1.35-.75 1.34-.76 1.33-.78 1.32-.77 1.31-.79 1.31-.8 1.3-.8 1.29-.81 1.28-.82 1.27-.83 1.27-.84 1.26-.84 1.25-.86 1.24-.86 1.23-.87 1.23-.88 1.21-.88 1.21-.9 1.2-.9 1.2-.91 1.18-.92 1.18-.93 1.17-.94 1.16-.94 1.15-.96 1.15-.96 1.13-.97 1.13-.97 1.12-.99 1.11-1 1.11-1 1.09-1.01 1.09-1.02 1.08-1.03 1.07-1.04 1.07-1.04 1.05-1.05 1.05-1.06 1.04-1.07 1.03-1.08 1.03-1.09 1.01-1.09 1.01-1.11 1-1.11.99-1.12.98-1.13.98-1.13.97-1.15.96-1.15.95-1.16.94-1.17.94-1.18.92-1.18.92-1.2.91-1.2.9-1.21.9-1.22.89-1.23.87-1.24.87-1.24.87-1.25.85-1.26.85-1.27.84-1.28.83-1.29.82-1.29.81-1.3.81-1.31.8-1.32.79-1.33.78-1.34.77-1.34.77-1.35.75-1.36.75-1.37.74-1.38.74-1.39.72-1.39.72-1.4.71-1.41.7-1.42.69-1.43.69-1.44.68-1.44.66-1.45.66-1.46.66-1.47.64-1.48.64-1.49.63-1.49.62-1.5.61-1.51" style="stroke-width:1.07;stroke:#000;stroke-opacity:.1;stroke-linecap:butt"/><path d="m152.6 419.43 1.33-.77 1.31-.79 1.31-.79 1.31-.79 1.3-.81 1.29-.81 1.28-.82 1.28-.82 1.27-.83 1.27-.84 1.26-.84 1.25-.85 1.25-.86 1.24-.86 1.23-.87 1.23-.88 1.22-.88 1.21-.89 1.21-.9 1.2-.9 1.2-.91 1.18-.92 1.19-.92 1.17-.93 1.17-.94 1.16-.94 1.16-.95 1.15-.96 1.14-.96 1.14-.97 1.13-.98 1.12-.98 1.12-.99 1.11-1 1.1-1 1.1-1.01 1.09-1.01 1.09-1.03 1.08-1.03 1.07-1.03 1.06-1.05 1.06-1.05 1.06-1.05 1.04-1.07 1.04-1.07 1.04-1.07 1.02-1.09 1.02-1.09 1.02-1.09 1-1.1 1.01-1.11.99-1.12.99-1.12.98-1.13.98-1.14.96-1.14.97-1.15.95-1.16.95-1.16.94-1.17.94-1.18.93-1.18.93-1.19.91-1.19.91-1.21.91-1.21.9-1.21.89-1.23.88-1.23.88-1.23.87-1.24.87-1.25.86-1.26.85-1.26.85-1.27.84-1.28.83-1.28.83-1.29.82-1.3.81-1.3.81-1.31.8-1.31.79-1.33.79-1.33.78-1.33.78-1.34.77-1.35.76-1.36.76-1.36.74-1.37.75-1.38.73-1.38.73-1.39.73-1.39.72-1.41.71-1.41.7-1.41.7-1.42.69-1.43" style="stroke-width:1.07;stroke:#000;stroke-opacity:.1;stroke-linecap:butt"/><path d="m152.6 419.43 1.25-.86 1.24-.86 1.23-.87 1.23-.87 1.23-.88 1.22-.88 1.21-.89 1.21-.89 1.21-.9 1.2-.91 1.2-.9 1.19-.92 1.19-.92 1.18-.92 1.17-.93 1.18-.93 1.16-.94 1.17-.94 1.15-.95 1.16-.95 1.14-.96 1.15-.97 1.14-.96 1.13-.98 1.13-.97 1.12-.99 1.12-.99 1.11-.99 1.11-1 1.11-1 1.1-1.01 1.09-1.01 1.09-1.02 1.09-1.02 1.08-1.03 1.07-1.03 1.07-1.04 1.07-1.05 1.06-1.04 1.06-1.06 1.05-1.06 1.04-1.06 1.04-1.07 1.04-1.07 1.03-1.08 1.03-1.08 1.02-1.09 1.02-1.09 1.01-1.1 1.01-1.1 1-1.11 1-1.11.99-1.12.99-1.12.98-1.13.98-1.14.98-1.13.96-1.15.97-1.14.96-1.16.95-1.15.95-1.17.95-1.17.94-1.17.93-1.18.93-1.18.93-1.19.92-1.19.91-1.2.91-1.2.91-1.21.9-1.21.9-1.22.89-1.22.88-1.23.89-1.23.87-1.24.87-1.24.87-1.25.86-1.25.86-1.26.85-1.26.85-1.27.85-1.27.83-1.28.84-1.28.83-1.29.82-1.29.82-1.3.81-1.3.81-1.31.81-1.31.79-1.32.8-1.33.79-1.32.78-1.34.78-1.33.78-1.35.77-1.34" style="stroke-width:1.07;stroke:#000;stroke-opacity:.1;stroke-linecap:butt"/><path d="m152.6 419.43 1.17-.94 1.16-.94 1.16-.95 1.16-.95 1.15-.95 1.15-.96 1.14-.96 1.15-.96 1.14-.97 1.13-.97 1.14-.97 1.13-.98 1.12-.98 1.13-.98 1.12-.99 1.12-.99 1.11-.99 1.11-1 1.11-.99 1.1-1.01 1.1-1 1.1-1.01 1.1-1.02 1.09-1.01 1.09-1.02 1.08-1.03 1.08-1.02 1.08-1.03 1.08-1.04 1.07-1.03 1.07-1.04 1.06-1.05 1.07-1.04 1.05-1.05 1.06-1.05 1.05-1.06 1.05-1.06 1.05-1.06 1.04-1.07 1.04-1.07 1.04-1.07 1.03-1.08 1.03-1.08 1.03-1.08 1.02-1.09 1.02-1.09 1.02-1.09 1.01-1.1 1.01-1.1 1.01-1.1 1.01-1.11 1-1.11 1-1.11.99-1.12.99-1.12.99-1.12.98-1.12.99-1.13.97-1.14.98-1.13.97-1.14.97-1.15.97-1.14.96-1.15.96-1.15.95-1.16.96-1.16.95-1.16.94-1.17.95-1.17.94-1.17.93-1.18.94-1.18.93-1.18.92-1.19.93-1.19.92-1.19.91-1.2.92-1.19.91-1.21.91-1.2.9-1.21.9-1.22.9-1.21.89-1.22.9-1.22.88-1.23.89-1.23.88-1.23.88-1.24.87-1.24.88-1.24.86-1.25.87-1.25.86-1.25.86-1.25.86-1.26.85-1.27.85-1.26" style="stroke-width:1.07;stroke:#000;stroke-opacity:.1;stroke-linecap:butt"/><path d="m152.6 419.43 1.09-1.02 1.08-1.02 1.09-1.03 1.08-1.02 1.08-1.03 1.08-1.03 1.08-1.03 1.07-1.04 1.07-1.03 1.08-1.04 1.07-1.03 1.07-1.04 1.06-1.05 1.07-1.04 1.06-1.04 1.06-1.05 1.07-1.05 1.05-1.05 1.06-1.05 1.06-1.05 1.05-1.06 1.06-1.05 1.05-1.06 1.05-1.06 1.04-1.06 1.05-1.07 1.04-1.06 1.05-1.07 1.04-1.07 1.04-1.06 1.04-1.08 1.03-1.07 1.04-1.07 1.03-1.08 1.03-1.08 1.03-1.08 1.03-1.08 1.03-1.08 1.02-1.09 1.03-1.08 1.02-1.09 1.02-1.09 1.02-1.09 1.02-1.1 1.01-1.09 1.02-1.1 1.01-1.09 1.01-1.1 1.01-1.11 1.01-1.1 1-1.1 1.01-1.11 1-1.11 1-1.11 1-1.11 1-1.11.99-1.12 1-1.11.99-1.12.99-1.12.99-1.12.99-1.12.99-1.13.98-1.12.99-1.13.98-1.13.98-1.13.98-1.14.97-1.13.98-1.14.97-1.14.97-1.14.97-1.14.97-1.14.97-1.14.97-1.15.96-1.15.96-1.15.96-1.15.96-1.15.96-1.16.96-1.15.95-1.16.95-1.16.95-1.16.95-1.16.95-1.17.95-1.16.94-1.17.95-1.17.94-1.17.94-1.18.93-1.17.94-1.18.94-1.17.93-1.18.93-1.19.93-1.18.93-1.18" style="stroke-width:1.07;stroke:#000;stroke-opacity:.1;stroke-linecap:butt"/><path d="m152.6 419.43 1.01-1.1 1.01-1.1 1.01-1.11 1-1.1 1.01-1.1 1.01-1.1 1.01-1.11 1-1.1 1.01-1.1 1.01-1.11 1.01-1.1 1-1.1 1.01-1.11 1.01-1.1 1.01-1.1 1-1.1 1.01-1.11 1.01-1.1 1.01-1.1 1-1.11 1.01-1.1 1.01-1.1 1.01-1.11 1-1.1 1.01-1.1 1.01-1.1 1.01-1.11 1-1.1 1.01-1.1 1.01-1.11 1.01-1.1 1-1.1 1.01-1.11 1.01-1.1 1.01-1.1 1-1.1 1.01-1.11 1.01-1.1 1.01-1.1 1-1.11 1.01-1.1 1.01-1.1 1.01-1.11 1-1.1 1.01-1.1 1.01-1.1 1.01-1.11 1.01-1.1 1-1.1 1.01-1.11 1.01-1.1 1.01-1.1 1-1.11 1.01-1.1 1.01-1.1 1.01-1.1 1-1.11 1.01-1.1 1.01-1.1 1.01-1.11 1-1.1 1.01-1.1 1.01-1.11 1.01-1.1 1-1.1 1.01-1.1 1.01-1.11 1.01-1.1 1-1.1 1.01-1.11 1.01-1.1 1.01-1.1 1-1.11 1.01-1.1 1.01-1.1 1.01-1.1 1-1.11 1.01-1.1 1.01-1.1 1.01-1.11 1-1.1 1.01-1.1 1.01-1.11 1.01-1.1 1-1.1 1.01-1.1 1.01-1.11 1.01-1.1 1-1.1 1.01-1.11 1.01-1.1 1.01-1.1 1-1.1 1.01-1.11 1.01-1.1 1.01-1.1 1-1.11 1.01-1.1 1.01-1.1" style="stroke-width:1.07;stroke:#000;stroke-opacity:.1;stroke-linecap:butt"/><path d="m152.6 419.43.93-1.18.93-1.18.93-1.19.94-1.18.93-1.17.94-1.18.94-1.17.94-1.18.94-1.17.94-1.17.95-1.17.94-1.16.95-1.17.95-1.16.95-1.16.95-1.16.96-1.16.95-1.15.96-1.16.96-1.15.96-1.15.96-1.15.97-1.15.96-1.15.97-1.14.97-1.14.97-1.14.97-1.14.97-1.14.98-1.14.98-1.13.98-1.14.98-1.13.98-1.13.98-1.12.99-1.13.98-1.13.99-1.12.99-1.12.99-1.12.99-1.12 1-1.11 1-1.12.99-1.11 1-1.11 1-1.11 1.01-1.11 1-1.11 1.01-1.1 1-1.1 1.01-1.11 1.01-1.1 1.02-1.09 1.01-1.1 1.02-1.09 1.01-1.1 1.02-1.09 1.02-1.09 1.02-1.09 1.03-1.08 1.02-1.09 1.03-1.08 1.03-1.08 1.03-1.08 1.03-1.08 1.03-1.08 1.04-1.07 1.04-1.07 1.03-1.08 1.04-1.06 1.05-1.07 1.04-1.07 1.04-1.06 1.05-1.07 1.05-1.06 1.05-1.06 1.05-1.06 1.05-1.05 1.05-1.06 1.06-1.05 1.06-1.05 1.06-1.05 1.06-1.05 1.06-1.05 1.06-1.04 1.07-1.04 1.07-1.05 1.07-1.04 1.07-1.03 1.07-1.04 1.07-1.03 1.08-1.04 1.07-1.03 1.08-1.03 1.08-1.03 1.08-1.02 1.09-1.03 1.08-1.02 1.09-1.02" style="stroke-width:1.07;stroke:#000;stroke-opacity:.1;stroke-linecap:butt"/><path d="m152.6 419.43.85-1.26.86-1.27.85-1.26.86-1.25.86-1.25.87-1.25.87-1.25.87-1.24.87-1.24.88-1.24.88-1.23.89-1.23.89-1.23.89-1.22.89-1.22.9-1.21.9-1.22.91-1.21.9-1.2.92-1.21.91-1.19.92-1.2.92-1.19.92-1.19.93-1.19.93-1.18.93-1.18.94-1.18.94-1.17.94-1.17.95-1.17.95-1.16.95-1.16.95-1.16.96-1.15.97-1.15.96-1.14.97-1.15.97-1.14.98-1.13.98-1.14.98-1.13.98-1.12.99-1.12.99-1.12 1-1.12 1-1.11 1-1.11 1-1.11 1.01-1.1 1.01-1.1 1.01-1.1 1.02-1.09 1.02-1.09 1.02-1.09 1.03-1.08 1.03-1.08 1.03-1.08 1.04-1.07 1.04-1.07 1.04-1.07 1.05-1.06 1.05-1.06 1.05-1.05 1.06-1.06 1.06-1.05 1.06-1.04 1.07-1.05 1.06-1.04 1.08-1.03 1.07-1.04 1.08-1.03 1.08-1.02 1.09-1.03 1.09-1.02 1.09-1.01 1.09-1.02 1.1-1.01 1.1-1 1.1-1 1.11-1 1.11-1 1.12-.99 1.11-.99 1.12-.99 1.13-.98 1.13-.98 1.13-.98 1.13-.97 1.14-.97 1.13-.97 1.15-.96 1.14-.96 1.15-.96 1.16-.95 1.15-.95 1.16-.95 1.16-.94 1.17-.94" style="stroke-width:1.07;stroke:#000;stroke-opacity:.1;stroke-linecap:butt"/><path d="m152.6 419.43.77-1.34.78-1.35.78-1.33.78-1.34.79-1.32.8-1.33.8-1.32.8-1.31.81-1.31.81-1.3.82-1.3.83-1.29.83-1.29.83-1.28.84-1.28.84-1.27.85-1.27.85-1.26.86-1.26.86-1.25.87-1.25.87-1.24.88-1.24.88-1.23.89-1.23.89-1.22.89-1.22.9-1.21.91-1.21.91-1.2.92-1.2.92-1.19.92-1.19.93-1.18.94-1.18.94-1.17.94-1.17.95-1.17.96-1.15.95-1.16.97-1.14.97-1.15.97-1.13.98-1.14.98-1.13.99-1.12.99-1.12 1-1.11 1-1.11 1.01-1.1 1.01-1.1 1.02-1.09 1.02-1.09 1.03-1.08 1.03-1.08 1.04-1.07 1.04-1.07 1.05-1.06 1.05-1.06 1.05-1.06 1.06-1.04 1.07-1.05 1.07-1.04 1.08-1.03 1.08-1.03 1.08-1.02 1.09-1.02 1.1-1.01 1.09-1.01 1.11-1 1.11-1 1.11-.99 1.12-.99 1.12-.98 1.13-.98 1.14-.98 1.13-.96 1.15-.97 1.15-.96 1.15-.95 1.16-.95 1.16-.94 1.17-.94 1.17-.93 1.17-.93 1.19-.92 1.18-.92 1.19-.92 1.2-.9 1.2-.91 1.21-.9 1.21-.89 1.21-.89 1.22-.88 1.23-.88 1.23-.87 1.24-.87 1.23-.86 1.25-.86" style="stroke-width:1.07;stroke:#000;stroke-opacity:.1;stroke-linecap:butt"/><path d="m152.6 419.43.69-1.43.7-1.42.71-1.41.71-1.41.71-1.41.73-1.39.73-1.39.73-1.38.75-1.38.75-1.37.75-1.36.77-1.36.76-1.35.78-1.34.78-1.33.79-1.33.79-1.33.8-1.31.81-1.31.82-1.3.82-1.3.82-1.29.84-1.28.84-1.28.84-1.27.86-1.26.85-1.26.87-1.25.87-1.24.88-1.23.89-1.23.89-1.23.9-1.21.9-1.21.91-1.2.92-1.2.92-1.19.93-1.18.94-1.18.94-1.17.95-1.16.96-1.16.96-1.15.97-1.14.97-1.14.98-1.13.99-1.12 1-1.12 1-1.11 1.01-1.1 1.01-1.09 1.02-1.09 1.03-1.09 1.03-1.07 1.04-1.07 1.05-1.07 1.05-1.05 1.06-1.05 1.06-1.05 1.08-1.03 1.07-1.03 1.09-1.03 1.09-1.01 1.1-1.01 1.1-1 1.11-1 1.12-.99 1.12-.98 1.14-.98 1.13-.97 1.14-.96 1.15-.96 1.16-.95 1.16-.94 1.17-.94 1.18-.93 1.18-.92 1.19-.92 1.19-.91 1.2-.9 1.21-.9 1.21-.89 1.22-.88 1.23-.88 1.23-.87 1.24-.86 1.25-.86 1.25-.85 1.26-.84 1.27-.84 1.27-.83 1.28-.82 1.28-.82 1.3-.81 1.29-.81 1.31-.79 1.31-.79 1.32-.79 1.32-.77" style="stroke-width:1.07;stroke:#000;stroke-opacity:.1;stroke-linecap:butt"/><path d="m152.6 419.43.62-1.51.62-1.5.62-1.49.64-1.49.65-1.48.65-1.47.66-1.46.67-1.45.67-1.44.69-1.44.69-1.43.7-1.42.71-1.41.72-1.4.72-1.39.74-1.39.74-1.38.75-1.36.76-1.37.76-1.35.78-1.34.78-1.34.79-1.33.8-1.32.8-1.31.81-1.3.83-1.29.83-1.29.84-1.28.84-1.27.86-1.26.86-1.25.87-1.24.88-1.24.88-1.23.9-1.22.9-1.21.91-1.2.92-1.2.93-1.18.93-1.18.95-1.17.95-1.16.96-1.15.96-1.15.98-1.13.98-1.13.99-1.12 1-1.11 1.01-1.11 1.02-1.09 1.02-1.09 1.03-1.08 1.04-1.07 1.05-1.06 1.05-1.05 1.07-1.04 1.07-1.04 1.08-1.03 1.09-1.02 1.1-1.01 1.1-1 1.11-1 1.12-.99 1.13-.97 1.14-.97 1.14-.96 1.15-.96 1.17-.94 1.16-.94 1.18-.93 1.19-.92 1.19-.91 1.2-.9 1.21-.9 1.22-.88 1.22-.88 1.24-.87 1.24-.86 1.25-.86 1.25-.84 1.27-.84 1.27-.83 1.29-.82 1.29-.81 1.29-.8 1.31-.8 1.31-.79 1.33-.77 1.33-.78 1.33-.76 1.35-.75 1.35-.75 1.37-.73 1.37-.73 1.38-.72 1.38-.71 1.4-.71 1.4-.69" style="stroke-width:1.07;stroke:#000;stroke-opacity:.1;stroke-linecap:butt"/><path d="m152.6 419.43.54-1.59.54-1.58.55-1.57.56-1.57.58-1.55.58-1.54.59-1.53.6-1.52.61-1.52.62-1.5.63-1.49.64-1.48.65-1.48.66-1.46.67-1.45.68-1.44.69-1.44.69-1.42.71-1.41.72-1.4.72-1.4.74-1.38.75-1.37.75-1.36.77-1.36.77-1.34.79-1.33.79-1.32.81-1.32.81-1.3.83-1.29.83-1.28.84-1.28.85-1.26.87-1.25.87-1.24.88-1.24.89-1.22.9-1.21.91-1.21.92-1.19.93-1.18.94-1.17.95-1.17.96-1.15.97-1.14.98-1.14.99-1.12 1-1.11 1-1.1 1.02-1.1 1.03-1.08 1.03-1.07 1.05-1.07 1.06-1.05 1.06-1.04 1.08-1.04 1.08-1.02 1.1-1.01 1.1-1.01 1.12-.99 1.12-.98 1.13-.98 1.15-.96 1.15-.95 1.16-.94 1.17-.94 1.18-.92 1.2-.91 1.2-.91 1.21-.89 1.22-.88 1.23-.88 1.24-.86 1.25-.86 1.26-.84 1.27-.83 1.27-.83 1.29-.81 1.3-.8 1.31-.8 1.32-.78 1.32-.77 1.34-.77 1.35-.75 1.35-.74 1.37-.74 1.37-.72 1.39-.72 1.39-.7 1.41-.69 1.41-.69 1.42-.67 1.44-.66 1.44-.66 1.45-.64 1.47-.64 1.47-.62 1.48-.61" style="stroke-width:1.07;stroke:#000;stroke-opacity:.1;stroke-linecap:butt"/><path d="m394.38 414.71 3.99 6.9h-7.97zM330.65 137.86l1.91 3.31h-3.83zM126.26 218.28l4.85 8.4h-9.7zM55.97 354.14l6.99 12.11H48.97z" style="stroke-width:.71;stroke:none;fill:#00ba38"/><path d="M146.56 425.47h12.08v-12.08h-12.08z" style="stroke-width:.71;stroke:none;fill:#619cff"/><circle cx="252.35" cy="310.24" r="6.76" style="stroke-width:.71;stroke:none;fill:#f8766d"/><path d="M519.81 527.13h5.92v-5.92h-5.92z" style="stroke-width:.71;stroke:none;fill:#619cff"/><path d="m388.96 424 4.55-3.93M335.18 132.79l-3.95 6.34M121.1 228.54l4.3-3.88M158.1 414.77l-4.61 3.91M257.79 305.62l-4.55 3.86" style="stroke-width:.53;stroke:#bfbfbf"/><path d="M348.48 443.55h56.71l-.09-.01.35-.01.34-.07.33-.12.3-.18.27-.22.23-.26.18-.29.14-.32.08-.34.03-.34v-15.23l-.03-.34-.08-.34-.14-.32-.18-.29-.23-.26-.27-.22-.3-.18-.33-.12-.34-.07-.26-.02h-56.71l.27.02-.35-.01-.35.04-.33.09-.32.15-.28.2-.25.24-.21.28-.16.31-.11.33-.06.34-.01.17v15.23l.01-.18v.35l.06.34.11.33.16.31.21.28.25.24.28.2.32.15.33.09.35.04z" style="stroke-width:.53;fill:#fff;fill-opacity:.5"/><text x="376.84" y="431.75" lengthAdjust="spacingAndGlyphs" style="font-size:5.69px;font-family:&quot;Liberation Sans&quot;" text-anchor="middle" textLength="53.83">TEUTONIA AVENUE</text><text x="376.84" y="439.95" lengthAdjust="spacingAndGlyphs" style="font-size:5.69px;font-family:&quot;Liberation Sans&quot;" text-anchor="middle" textLength="49.82">APARTMENTS LLC</text><path d="M337.34 135.82h60.51l-.08-.01.34-.01.34-.07.33-.12.3-.18.27-.22.23-.26.19-.29.13-.32.09-.34.02-.34v-7.03l-.02-.35-.09-.34-.13-.32-.19-.29-.23-.26-.27-.22-.3-.17-.33-.13-.34-.07-.26-.01h-60.51l.26.01-.35-.01-.34.04-.34.1-.31.15-.29.2-.25.24-.21.27-.16.31-.11.33-.06.34v7.21-.18.35l.06.34.11.33.16.31.21.28.25.24.29.2.31.15.34.09.34.04z" style="stroke-width:.53;fill:#fff;fill-opacity:.5"/><text x="367.6" y="132.22" lengthAdjust="spacingAndGlyphs" style="font-size:5.69px;font-family:&quot;Liberation Sans&quot;" text-anchor="middle" textLength="57.64">NICOLE FERNHABER</text><path d="M84.02 239.89h59.46-.09l.35-.02.34-.07.32-.12.3-.17.27-.22.23-.26.19-.3.14-.32.08-.34.03-.34v-7.03l-.03-.35-.08-.33-.14-.32-.19-.3-.23-.26-.27-.22-.3-.17-.32-.12-.34-.07-.26-.02H84.02l.26.02-.35-.02-.34.04-.34.1-.31.15-.29.2-.25.24-.21.28-.16.3-.11.33-.05.35-.01.17v7.03l.01-.18v.35l.05.34.11.33.16.31.21.28.25.24.29.2.31.15.34.09.34.05z" style="stroke-width:.53;fill:#fff;fill-opacity:.5"/><text x="113.75" y="236.29" lengthAdjust="spacingAndGlyphs" style="font-size:5.69px;font-family:&quot;Liberation Sans&quot;" text-anchor="middle" textLength="56.58">CARMEN PLACE LLC</text><path d="M62.9 368.28h60.79-.09l.35-.02.34-.07.32-.12.3-.17.27-.22.23-.26.19-.3.14-.32.08-.33.03-.35v-7.03l-.03-.34-.08-.34-.14-.32-.19-.3-.23-.26-.27-.22-.3-.17-.32-.12-.34-.07-.26-.02H62.9l.27.02-.35-.02-.35.05-.33.09-.32.15-.28.2-.25.24-.21.28-.16.31-.11.33-.06.34-.01.17v7.03l.01-.17v.34l.06.35.11.33.16.3.21.28.25.24.28.2.32.15.33.1.35.04z" style="stroke-width:.53;fill:#fff;fill-opacity:.5"/><text x="93.3" y="364.68" lengthAdjust="spacingAndGlyphs" style="font-size:5.69px;font-family:&quot;Liberation Sans&quot;" text-anchor="middle" textLength="57.9">JNF PROPERTIES LLC</text><path d="M144.16 414.77h61.92-.08l.34-.01.34-.07.33-.13.3-.17.27-.22.23-.26.19-.29.13-.32.09-.34.02-.35V389.2l-.02-.35-.09-.34-.13-.32-.19-.29-.23-.26-.27-.22-.3-.17-.33-.13-.34-.07-.26-.01h-61.92l.26.01-.34-.01-.35.04-.33.1-.32.15-.28.19-.25.24-.21.28-.16.31-.11.33-.06.34-.01.18v23.41l.01-.17v.35l.06.34.11.33.16.31.21.28.25.24.28.19.32.15.33.1.35.04z" style="stroke-width:.53;fill:#fff;fill-opacity:.5"/><text x="175.12" y="394.78" lengthAdjust="spacingAndGlyphs" style="font-size:5.69px;font-family:&quot;Liberation Sans&quot;" text-anchor="middle" textLength="56.88">4710 W WISCONSIN</text><text x="175.12" y="402.98" lengthAdjust="spacingAndGlyphs" style="font-size:5.69px;font-family:&quot;Liberation Sans&quot;" text-anchor="middle" textLength="59.04">AVE, MILWAUKEE, WI</text><text x="175.12" y="411.17" lengthAdjust="spacingAndGlyphs" style="font-size:5.69px;font-family:&quot;Liberation Sans&quot;" text-anchor="middle" textLength="18.11">53208</text><path d="M243.87 305.62h61.92-.08l.34-.01.34-.07.33-.13.3-.17.27-.22.23-.26.19-.3.13-.32.08-.33.03-.35v-23.42l-.03-.34-.08-.34-.13-.32-.19-.29-.23-.26-.27-.22-.3-.18-.33-.12-.34-.07-.26-.02h-61.92l.26.02-.34-.01-.35.04-.33.1-.32.14-.28.2-.25.24-.21.28-.16.31-.11.33-.06.34-.01.17v23.42l.01-.17v.34l.06.35.11.33.16.31.21.27.25.24.28.2.32.15.33.1.35.04z" style="stroke-width:.53;fill:#fff;fill-opacity:.5"/><text x="274.83" y="285.63" lengthAdjust="spacingAndGlyphs" style="font-size:5.69px;font-family:&quot;Liberation Sans&quot;" text-anchor="middle" textLength="56.88">4710 W WISCONSIN</text><text x="274.83" y="293.83" lengthAdjust="spacingAndGlyphs" style="font-size:5.69px;font-family:&quot;Liberation Sans&quot;" text-anchor="middle" textLength="59.04">AVE, MILWAUKEE, WI</text><text x="274.83" y="302.02" lengthAdjust="spacingAndGlyphs" style="font-size:5.69px;font-family:&quot;Liberation Sans&quot;" text-anchor="middle" textLength="18.11">53208</text><path d="M448.6 533.29h67.22-.08l.34-.02.35-.07.32-.12.3-.17.27-.22.23-.26.19-.3.13-.32.09-.34.02-.34v-15.22l-.02-.35-.09-.34-.13-.32-.19-.29-.23-.26-.27-.22-.3-.18-.32-.12-.35-.07-.26-.01H448.6l.27.01-.35-.01-.35.04-.33.1-.32.15-.28.19-.25.24-.21.28-.16.31-.11.33-.06.34-.01.18v15.22l.01-.18v.35l.06.34.11.33.16.31.21.28.25.24.28.2.32.15.33.09.35.05z" style="stroke-width:.53;fill:#fff;fill-opacity:.5"/><text x="482.21" y="521.49" lengthAdjust="spacingAndGlyphs" style="font-size:5.69px;font-family:&quot;Liberation Sans&quot;" text-anchor="middle" textLength="53.99">4931 GREENFIELD,</text><text x="482.21" y="529.69" lengthAdjust="spacingAndGlyphs" style="font-size:5.69px;font-family:&quot;Liberation Sans&quot;" text-anchor="middle" textLength="64.34">MILWAUKEE, WI 53214</text></g><g clip-path="url(#cpMC4wMHw1NzYuMDB8MC4wMHw1NzYuMDA=)"><circle cx="196.98" cy="95.78" r="1.95" style="stroke-width:.71;stroke:none;fill:#f8766d"/><path d="m273.33 92.74 2.63 4.56h-5.26z" style="stroke-width:.71;stroke:none;fill:#00ba38"/><path d="M339.31 97.74h3.91v-3.91h-3.91z" style="stroke-width:.71;stroke:none;fill:#619cff"/><text x="211.09" y="98.81" lengthAdjust="spacingAndGlyphs" style="font-size:8.8px;font-family:&quot;Liberation Sans Narrow&quot;" textLength="48.12">mprop address</text><text x="287.45" y="98.81" lengthAdjust="spacingAndGlyphs" style="font-size:8.8px;font-family:&quot;Liberation Sans Narrow&quot;" textLength="39.69">owner name</text><text x="355.38" y="98.81" lengthAdjust="spacingAndGlyphs" style="font-size:8.8px;font-family:&quot;Liberation Sans Narrow&quot;" textLength="40.5">wdfi address</text><text x="32.63" y="64.23" lengthAdjust="spacingAndGlyphs" style="font-size:12px;font-family:&quot;Liberation Sans Narrow&quot;" textLength="252.23">includes 13 parcels, 35 units, and 4 distinct owner names.</text><text x="32.63" y="42.27" lengthAdjust="spacingAndGlyphs" style="font-size:18px;font-weight:700;font-family:&quot;Liberation Sans Narrow&quot;" textLength="208.27">JNF PROPERTIES LLC Group</text></g></svg>