<svg xmlns="http://www.w3.org/2000/svg" width="960" height="960" class="svglite" viewBox="0 0 720 720"><defs><style><![CDATA[.svglite line,.svglite polyline,.svglite polygon,.svglite path,.svglite circle{fill:none;stroke:#000000;stroke-linecap:round;stroke-linejoin:round;stroke-miterlimit:10.00}.svglite text{white-space:pre}]]></style></defs><rect width="100%" height="100%" style="stroke-linecap:round;stroke-linejoin:round;stroke-miterlimit:10.00;stroke:none;fill:#FFFFFF"/><defs><clipPath id="cpMC4wMHw3MjAuMDB8MC4wMHw3MjAuMDA="><path d="M0 0h720v720H0z"/></clipPath></defs><g clip-path="url(#cpMC4wMHw3MjAuMDB8MC4wMHw3MjAuMDA=)"><path d="M0 0h720v720H0z" style="stroke-width:1.07;stroke:none;fill:#FFFFFF"/></g><defs><clipPath id="cpMzIuNjN8NjkwLjExfDEyMC44Nnw2ODcuMzc="><path d="M32.63 120.86h657.48v566.51H32.63z"/></clipPath></defs><g clip-path="url(#cpMzIuNjN8NjkwLjExfDEyMC44Nnw2ODcuMzc=)"><path d="m398.52 357.27-.9.96-.9.97-.9.96-.9.97-.89.97-.9.97-.89.97-.89.97-.89.97-.89.97-.89.98-.88.97-.88.97-.89.98-.88.98-.87.98-.88.97-.88.98-.87.98-.87.99-.88.98-.87.98-.86.98-.87.99-.87.98-.86.99-.86.99-.86.99-.86.98-.86.99-.85 1-.86.99-.85.99-.85.99-.85 1-.85.99-.85 1-.84.99-.84 1-.85 1-.84 1-.83 1-.84 1-.84 1-.83 1.01-.83 1-.84 1-.83 1.01-.82 1.01-.83 1-.83 1.01-.82 1.01-.82 1.01-.82 1.01-.82 1.01-.82 1.01-.81 1.02-.82 1.01-.81 1.02-.81 1.01-.81 1.02-.81 1.02-.81 1.01-.8 1.02-.8 1.02-.81 1.02-.8 1.03-.8 1.02-.79 1.02-.8 1.03-.79 1.02-.8 1.03-.79 1.03-.79 1.02-.79 1.03-.78 1.03-.79 1.03-.78 1.03-.78 1.04-.78 1.03-.78 1.03-.78 1.04-.78 1.03-.77 1.04-.77 1.04-.77 1.03-.77 1.04-.77 1.04-.77 1.04-.76 1.05-.77 1.04-.76 1.04-.76 1.05-.76 1.04-.76 1.05-.75 1.04-.76 1.05-.75 1.05-.75 1.05m81.83-99.7.64 1.12.64 1.11.64 1.12.65 1.12.65 1.11.65 1.11.66 1.11.66 1.11.66 1.11.66 1.1.67 1.11.67 1.1.68 1.1.68 1.1.68 1.1.68 1.09.69 1.1.69 1.09.7 1.09.69 1.09.71 1.08.7 1.09.71 1.08.71 1.09.71 1.08.72 1.08.71 1.07.73 1.08.72 1.07.73 1.08.73 1.07.74 1.06.74 1.07.74 1.07.75 1.06.74 1.06.75 1.07.76 1.05.76 1.06.76 1.06.76 1.05.77 1.05.77 1.05.77 1.05.78 1.05.78 1.05.78 1.04.79 1.04.79 1.04.79 1.04.79 1.04.8 1.04.81 1.03.8 1.03.81 1.03.81 1.03.81 1.03.82 1.03.82 1.02.83 1.02.83 1.03.83 1.01.83 1.02.84 1.02.84 1.01.84 1.02.85 1.01.84 1.01.86 1 .85 1.01.86 1 .86 1.01.87 1 .87 1 .87 1 .88.99.87 1 .88.99.89.99.89.99.89.99.89.98.9.99.9.98.9.98.91.98.91.98.91.98.92.97.92.97.92.97.92.97.93.97.93.97.94.96.94.97.94.96.94.96.95.95m-299.57-49 1.15 1 1.15 1 1.16.98 1.17.97 1.16.96 1.18.94 1.18.94 1.18.93 1.19.91 1.2.91 1.2.89 1.2.88 1.21.87 1.22.86 1.22.85 1.23.84 1.23.83 1.24.81 1.24.81 1.25.79 1.25.78 1.26.78 1.26.76 1.27.75 1.28.73 1.28.73 1.28.72 1.29.7 1.3.7 1.3.68 1.31.68 1.31.66 1.32.65 1.32.64 1.32.62 1.34.62 1.34.61 1.34.59 1.35.59 1.35.57 1.36.56 1.37.55 1.37.54 1.37.53 1.38.52 1.39.51 1.39.5 1.39.48 1.41.47 1.4.47 1.41.45 1.42.44 1.42.43 1.43.42 1.44.41 1.44.39 1.44.39 1.45.37 1.45.37 1.46.35 1.47.34 1.47.33 1.47.32 1.49.31 1.48.3 1.49.28 1.5.28 1.5.26 1.51.26 1.51.24 1.52.23 1.52.22 1.53.21 1.54.2 1.54.19 1.54.17 1.55.17 1.56.15 1.56.14 1.56.14 1.57.12 1.58.11 1.58.1 1.59.08 1.59.08 1.6.07 1.6.05 1.61.05 1.61.03 1.62.02 1.63.01h1.63l1.63-.01 1.64-.02 1.64-.04 1.66-.04 1.65-.06 1.66-.06 1.67-.08M177.4 411.14l-.92-.86-.94-.85-.94-.84-.94-.83-.95-.83-.95-.81-.96-.8-.96-.8-.97-.79-.97-.77-.97-.77-.98-.76-.99-.75-.99-.74-.99-.73-1-.73-1.01-.71-1.01-.7-1.01-.7-1.02-.69-1.02-.67-1.03-.67-1.03-.66-1.04-.65-1.04-.64-1.05-.63-1.05-.63-1.06-.61-1.06-.6-1.07-.6-1.07-.59-1.07-.57-1.08-.57-1.09-.56-1.09-.55-1.09-.54-1.1-.53-1.1-.53-1.11-.51-1.12-.5-1.11-.5-1.13-.49-1.12-.47-1.14-.47-1.13-.46-1.14-.45-1.15-.44-1.15-.43-1.16-.42-1.16-.42-1.16-.4-1.17-.4-1.18-.38-1.18-.38-1.18-.37-1.19-.36-1.19-.35-1.2-.34-1.2-.33-1.21-.32-1.22-.32-1.21-.3-1.22-.3-1.23-.28-1.23-.28-1.24-.27-1.24-.26-1.25-.25-1.25-.24-1.25-.23-1.26-.22-1.27-.21-1.26-.21-1.28-.19-1.28-.19-1.28-.18-1.29-.16-1.29-.16-1.3-.15-1.3-.14-1.31-.13-1.31-.13-1.32-.11-1.32-.1-1.33-.1-1.33-.08-1.33-.08-1.34-.07-1.35-.06-1.35-.05-1.35-.04-1.36-.03-1.36-.02-1.37-.02h-1.38l-1.37.01-1.39.01-1.38.02-1.4.04" style="stroke-width:1.07;stroke:#000000;stroke-opacity:0.10;stroke-linecap:butt"/><path d="m177.4 411.14 1.19.93 1.18.92 1.19.92 1.2.9 1.2.89 1.2.88 1.21.88 1.22.86 1.22.86 1.22.84 1.23.84 1.23.82 1.24.82 1.24.81 1.25.8 1.25.78 1.25.78 1.26.77 1.27.76 1.27.75 1.27.74 1.28.73 1.28.72 1.29.71 1.29.7 1.3.7 1.3.68 1.31.67 1.31.67 1.31.65 1.32.65 1.33.63 1.32.63 1.34.61 1.34.61 1.34.59 1.35.59 1.35.58 1.35.57 1.36.56 1.37.55 1.37.53 1.38.53 1.37.52 1.39.52 1.39.5 1.39.49 1.4.48 1.4.47 1.41.47 1.41.45 1.42.44 1.42.44 1.42.42 1.43.42 1.44.4 1.43.4 1.45.39 1.45.37 1.45.37 1.46.36 1.46.35 1.46.33 1.48.33 1.47.32 1.48.31 1.49.3 1.49.29 1.49.29 1.5.27 1.5.26 1.51.25 1.51.25 1.52.23 1.52.22 1.53.22 1.53.2 1.53.2 1.54.18 1.55.18 1.55.17 1.55.15 1.56.15 1.56.14 1.57.13 1.57.12 1.58.1 1.58.1 1.59.09 1.59.09 1.59.07 1.6.06 1.61.05 1.61.04 1.61.03 1.62.03 1.62.01 1.63.01 1.63-.01M177.4 411.14l-.96-.8-.96-.79-.97-.79-.97-.77-.98-.77-.98-.76-.98-.75-.99-.75-.99-.73-1-.73-1-.72-1-.72-1.01-.7-1.01-.7-1.02-.69-1.02-.68-1.03-.67-1.03-.67-1.03-.66-1.04-.65-1.04-.64-1.05-.63-1.05-.63-1.05-.62-1.06-.61-1.06-.6-1.07-.6-1.07-.58-1.07-.58-1.08-.57-1.08-.57-1.09-.55-1.09-.55-1.09-.54-1.1-.53-1.11-.53-1.1-.51-1.11-.51-1.12-.5-1.12-.49-1.12-.49-1.13-.47-1.13-.47-1.14-.46-1.14-.46-1.14-.44-1.15-.44-1.15-.43-1.16-.42-1.16-.41-1.16-.41-1.17-.4-1.18-.39-1.17-.38-1.18-.37-1.19-.37-1.19-.36-1.19-.35-1.2-.34-1.2-.33-1.21-.33-1.21-.32-1.21-.31-1.22-.3-1.22-.3-1.23-.29-1.23-.28-1.23-.27-1.24-.26-1.24-.26-1.25-.24-1.25-.24-1.25-.24-1.26-.22-1.27-.22-1.26-.21-1.27-.2-1.28-.19-1.28-.18-1.28-.18-1.29-.17-1.29-.16-1.3-.15-1.3-.15-1.3-.14-1.31-.13-1.31-.12-1.32-.11-1.32-.11-1.32-.1-1.33-.09-1.33-.08-1.34-.07-1.34-.07-1.35-.06-1.34-.05-1.36-.04-1.36-.04-1.36-.02" style="stroke-width:1.07;stroke:#000000;stroke-opacity:0.10;stroke-linecap:butt"/><path d="m177.4 411.14 1.22.86 1.22.85 1.23.84 1.22.84 1.24.83 1.23.81 1.24.81 1.25.81 1.24.79 1.25.79 1.26.78 1.26.77 1.26.76 1.27.75 1.27.75 1.28.74 1.27.73 1.29.72 1.28.71 1.29.71 1.3.7 1.3.68 1.3.69 1.3.67 1.31.66 1.32.66 1.32.65 1.32.64 1.32.63 1.33.63 1.34.62 1.33.6 1.34.6 1.35.6 1.35.58 1.35.58 1.36.57 1.36.56 1.36.55 1.37.54 1.37.54 1.38.52 1.38.52 1.38.52 1.39.5 1.39.49 1.39.49 1.4.48 1.41.47 1.4.46 1.41.46 1.42.45 1.42.43 1.42.44 1.43.42 1.43.41 1.43.41 1.44.4 1.44.39 1.45.38 1.44.37 1.46.37 1.46.36 1.46.35 1.46.34 1.47.33 1.47.33 1.48.31 1.48.31 1.49.3 1.48.3 1.5.28 1.49.28 1.5.27 1.51.26 1.51.25 1.51.25 1.51.23 1.52.23 1.53.22 1.52.21 1.53.21 1.54.19 1.54.19 1.54.18 1.55.17 1.55.17 1.55.15 1.56.15 1.56.14 1.57.13 1.57.12 1.57.12 1.58.11 1.58.1 1.59.09 1.59.08 1.59.07 1.6.07M177.4 411.14l-.99-.74-.99-.73-1-.73-1-.72-1-.72-1.01-.7-1.01-.7-1.02-.7-1.02-.68-1.02-.68-1.02-.68-1.03-.66-1.03-.66-1.04-.66-1.04-.65-1.04-.64-1.05-.63-1.05-.63-1.05-.62-1.06-.61-1.06-.61-1.06-.6-1.07-.59-1.07-.59-1.07-.58-1.08-.57-1.08-.57-1.08-.56-1.09-.55-1.09-.55-1.1-.54-1.09-.53-1.11-.53-1.1-.52-1.11-.51-1.11-.51-1.12-.5-1.12-.49-1.12-.49-1.12-.48-1.13-.48-1.14-.46-1.13-.46-1.14-.46-1.14-.44-1.15-.44-1.15-.44-1.15-.42-1.16-.42-1.16-.42-1.17-.4-1.16-.4-1.17-.4-1.18-.38-1.18-.38-1.18-.38-1.18-.36-1.19-.36-1.19-.36-1.2-.34-1.2-.34-1.2-.34-1.2-.32-1.21-.32-1.22-.32-1.21-.3-1.22-.3-1.22-.3-1.23-.29-1.23-.28-1.23-.27-1.24-.27-1.24-.26-1.25-.25-1.24-.25-1.25-.24-1.26-.23-1.26-.23-1.26-.22-1.26-.21-1.27-.21-1.27-.2-1.28-.19-1.27-.19-1.29-.18-1.28-.17-1.29-.17-1.29-.16-1.3-.15-1.3-.15-1.3-.14-1.31-.13-1.31-.13-1.31-.12-1.32-.11-1.32-.1-1.32-.1-1.33-.1-1.33-.08" style="stroke-width:1.07;stroke:#000000;stroke-opacity:0.10;stroke-linecap:butt"/><path d="m177.4 411.14 1.26.79 1.25.78 1.26.77 1.26.77 1.26.76 1.27.75 1.27.75 1.27.74 1.28.74 1.28.72 1.28.72 1.29.72 1.29.71 1.29.7 1.3.69 1.29.69 1.31.68 1.3.68 1.31.66 1.31.67 1.32.65 1.31.65 1.33.64 1.32.64 1.33.62 1.33.63 1.33.61 1.34.61 1.34.6 1.34.6 1.35.59 1.35.58 1.35.57 1.36.57 1.36.56 1.36.56 1.37.55 1.36.54 1.38.54 1.37.53 1.38.52 1.38.51 1.39.51 1.38.51 1.39.49 1.4.49 1.4.48 1.4.48 1.4.47 1.41.46 1.41.46 1.41.45 1.42.44 1.42.44 1.42.43 1.43.42 1.42.42 1.44.41 1.43.4 1.44.4 1.44.39 1.45.38 1.45.38 1.45.37 1.45.36 1.46.36 1.46.35 1.47.34 1.46.34 1.47.33 1.48.33 1.47.31 1.48.31 1.49.31 1.48.3 1.49.29 1.5.28 1.49.28 1.5.27 1.5.26 1.51.26 1.51.25 1.51.25 1.51.24 1.52.23 1.52.22 1.53.22 1.52.21 1.54.21 1.53.19 1.54.2 1.54.18 1.54.18 1.55.17 1.55.17 1.55.15 1.56.16 1.56.14 1.56.14M177.4 411.14l-1.02-.68-1.02-.68-1.03-.67-1.03-.66-1.03-.66-1.04-.65-1.04-.65-1.04-.64-1.04-.64-1.05-.63-1.05-.63-1.05-.62-1.06-.62-1.05-.61-1.07-.6-1.06-.6-1.07-.59-1.07-.59-1.07-.58-1.07-.58-1.08-.57-1.08-.57-1.09-.56-1.08-.56-1.09-.55-1.1-.54-1.09-.54-1.1-.53-1.1-.53-1.1-.52-1.11-.52-1.11-.51-1.11-.51-1.12-.5-1.12-.5-1.12-.49-1.12-.48-1.13-.48-1.13-.47-1.13-.47-1.13-.46-1.14-.46-1.14-.45-1.14-.45-1.15-.44-1.15-.43-1.15-.43-1.16-.43-1.15-.42-1.17-.41-1.16-.41-1.16-.4-1.17-.4-1.18-.39-1.17-.39-1.18-.38-1.18-.37-1.18-.37-1.19-.37-1.19-.36-1.19-.35-1.19-.35-1.2-.34-1.2-.34-1.2-.33-1.21-.32-1.21-.32-1.21-.32-1.21-.31-1.22-.3-1.22-.3-1.22-.3-1.23-.28-1.23-.29-1.23-.27-1.23-.28-1.24-.26-1.24-.26-1.24-.26-1.25-.25-1.25-.24-1.25-.24-1.25-.23-1.26-.23-1.26-.22-1.26-.22-1.27-.21-1.27-.21-1.27-.2-1.27-.19-1.28-.19-1.28-.19-1.28-.18-1.29-.17-1.29-.17-1.29-.16-1.29-.16-1.3-.15-1.3-.14" style="stroke-width:1.07;stroke:#000000;stroke-opacity:0.10;stroke-linecap:butt"/><path d="m177.4 411.14 1.29.71 1.29.71 1.29.71 1.29.7 1.3.69 1.3.69 1.3.69 1.3.68 1.31.67 1.3.67 1.31.66 1.32.66 1.31.66 1.32.64 1.32.65 1.32.63 1.33.64 1.33.62 1.33.63 1.33.61 1.34.62 1.33.6 1.34.61 1.35.59 1.34.59 1.35.59 1.35.58 1.35.58 1.36.57 1.35.56 1.36.57 1.37.55 1.36.55 1.37.55 1.37.54 1.37.53 1.38.53 1.37.53 1.38.52 1.38.51 1.39.51 1.39.5 1.39.5 1.39.5 1.39.49 1.4.48 1.4.48 1.4.47 1.41.47 1.4.46 1.41.46 1.41.45 1.42.45 1.41.44 1.42.44 1.43.43 1.42.43 1.43.42 1.43.42 1.43.41 1.43.4 1.44.41 1.44.39 1.44.39 1.44.39 1.45.38 1.45.37 1.45.37 1.45.37 1.46.36 1.46.35 1.46.35 1.46.35 1.47.34 1.47.33 1.47.33 1.47.33 1.48.31 1.48.32 1.48.31 1.48.3 1.49.3 1.49.29 1.49.29 1.49.28 1.5.28 1.5.27 1.5.27 1.5.26 1.51.26 1.5.25 1.51.25 1.52.24 1.51.24 1.52.23 1.52.22 1.53.22 1.52.22 1.53.21M177.4 411.14l-1.05-.62-1.05-.62-1.06-.61-1.06-.61-1.06-.61-1.06-.6-1.07-.59-1.07-.59-1.07-.59-1.07-.58-1.07-.58-1.08-.58-1.08-.57-1.08-.56-1.08-.57-1.09-.55-1.09-.56-1.09-.55-1.09-.54-1.09-.54-1.1-.54-1.1-.53-1.1-.53-1.1-.52-1.11-.52-1.1-.52-1.11-.51-1.12-.51-1.11-.5-1.12-.5-1.12-.49-1.12-.49-1.12-.49-1.12-.48-1.13-.48-1.13-.47-1.13-.47-1.14-.46-1.13-.46-1.14-.46-1.14-.45-1.15-.45-1.14-.44-1.15-.44-1.15-.43-1.15-.44-1.15-.42-1.16-.42-1.16-.42-1.16-.41-1.16-.41-1.17-.41-1.16-.4-1.17-.4-1.17-.39-1.18-.39-1.17-.38-1.18-.38-1.18-.38-1.18-.37-1.19-.36-1.19-.37-1.19-.35-1.19-.36-1.19-.35-1.2-.34-1.19-.34-1.2-.34-1.21-.33-1.2-.33-1.21-.33-1.21-.32-1.21-.31-1.21-.31-1.22-.31-1.22-.31-1.22-.29-1.22-.3-1.22-.29-1.23-.29-1.23-.28-1.23-.27-1.23-.28-1.24-.27-1.24-.26-1.24-.26-1.24-.26-1.24-.25-1.25-.25-1.25-.24-1.25-.24-1.25-.24-1.26-.23-1.26-.22-1.26-.23-1.26-.22-1.26-.21-1.27-.21-1.27-.2" style="stroke-width:1.07;stroke:#000000;stroke-opacity:0.10;stroke-linecap:butt"/><path d="m177.4 411.14 1.32.64 1.33.64 1.32.64 1.33.63 1.32.63 1.33.62 1.33.62 1.34.62 1.33.62 1.34.61 1.34.6 1.34.6 1.34.6 1.34.6 1.35.59 1.34.59 1.35.58 1.35.58 1.35.58 1.36.57 1.35.57 1.36.57 1.36.56 1.36.56 1.36.55 1.37.55 1.36.55 1.37.55 1.37.54 1.37.53 1.38.54 1.37.52 1.38.53 1.38.52 1.38.52 1.38.51 1.39.52 1.38.5 1.39.51 1.39.5 1.39.49 1.39.49 1.4.49 1.39.49 1.4.48 1.4.48 1.4.47 1.41.47 1.4.47 1.41.46 1.41.46 1.41.45 1.41.46 1.41.45 1.42.44 1.42.44 1.42.44 1.42.43 1.42.43 1.42.43 1.43.42 1.43.42 1.43.41 1.43.42 1.43.4 1.44.41 1.44.4 1.43.39 1.44.4 1.45.39 1.44.38 1.45.38 1.44.38 1.45.38 1.45.37 1.46.37 1.45.36 1.46.36 1.46.36 1.46.35 1.46.35 1.46.34 1.47.34 1.46.34 1.47.34 1.47.33 1.47.32 1.48.33 1.47.32 1.48.31 1.48.32 1.48.3 1.48.31 1.49.3 1.49.3 1.48.29 1.49.29 1.5.29 1.49.28M177.4 411.14l-1.08-.56-1.08-.56-1.09-.56-1.09-.55-1.09-.55-1.09-.55-1.09-.54-1.1-.54-1.09-.54-1.1-.53-1.1-.54-1.1-.52-1.1-.53-1.11-.52-1.1-.52-1.11-.52-1.11-.51-1.11-.51-1.11-.51-1.11-.51-1.12-.5-1.11-.5-1.12-.49-1.12-.49-1.12-.49-1.12-.49-1.13-.48-1.12-.48-1.13-.48-1.13-.47-1.13-.47-1.13-.47-1.14-.47-1.13-.46-1.14-.46-1.14-.45-1.14-.46-1.14-.45-1.14-.44-1.15-.45-1.14-.44-1.15-.44-1.15-.43-1.15-.43-1.15-.43-1.16-.43-1.15-.42-1.16-.42-1.16-.42-1.16-.41-1.16-.41-1.17-.41-1.16-.4-1.17-.4-1.17-.4-1.17-.4-1.17-.39-1.17-.39-1.18-.38-1.17-.39-1.18-.38-1.18-.37-1.18-.38-1.18-.37-1.19-.37-1.18-.36-1.19-.36-1.19-.36-1.19-.36-1.19-.35-1.2-.35-1.19-.35-1.2-.34-1.2-.34-1.2-.34-1.2-.33-1.2-.34-1.2-.33-1.21-.32-1.21-.32-1.21-.32-1.21-.32-1.21-.31-1.22-.31-1.21-.31-1.22-.3-1.22-.31-1.22-.29-1.22-.3-1.22-.29-1.23-.29-1.23-.29-1.22-.28-1.23-.28-1.24-.28-1.23-.27-1.23-.27-1.24-.27-1.24-.26" style="stroke-width:1.07;stroke:#000000;stroke-opacity:0.10;stroke-linecap:butt"/><path d="m402.38 555.93-.68-1.11-.68-1.11-.69-1.11-.69-1.1-.69-1.1-.7-1.1-.7-1.1-.71-1.09-.71-1.09-.71-1.09-.72-1.09-.72-1.09-.72-1.08-.73-1.08-.73-1.08-.74-1.08-.74-1.07-.74-1.07-.75-1.07-.75-1.07-.76-1.07-.76-1.06-.76-1.06-.76-1.06-.77-1.05-.78-1.06-.78-1.05-.78-1.05-.78-1.05-.79-1.04-.8-1.04-.79-1.04-.8-1.04-.81-1.04-.81-1.03-.81-1.03-.82-1.03-.81-1.03-.83-1.02-.83-1.02-.83-1.02-.83-1.02-.84-1.02-.84-1.01-.85-1.01-.85-1.01-.85-1.01-.86-1-.86-1-.87-1-.87-1-.87-.99-.88-1-.88-.99-.88-.99-.89-.98-.9-.98-.89-.99-.9-.98-.91-.97-.9-.98-.91-.97-.92-.97-.92-.97-.92-.96-.93-.97-.93-.96-.93-.96-.94-.95-.94-.96-.95-.95-.95-.95-.95-.95-.96-.94-.96-.95-.96-.94-.97-.93-.97-.94-.98-.93-.98-.94-.98-.93-.99-.92-.99-.93-1-.92-1-.92-1-.92-1-.92-1.02-.91-1.01-.91-1.02-.91-1.02-.91-1.03-.9-1.02-.9-1.04-.9-1.03-.9-1.05-.9-1.04-.89-1.05-.89-1.05-.89m85.69 98.96 1.15-.76 1.14-.76 1.14-.76 1.12-.77 1.12-.77 1.11-.78 1.11-.78 1.09-.79 1.09-.79 1.08-.79 1.07-.8 1.06-.8 1.05-.81 1.05-.81 1.03-.82 1.03-.82 1.02-.82 1.02-.83 1-.83 1-.84.99-.84.98-.85.97-.85.97-.85.95-.86.95-.87.94-.86.93-.88.93-.87.91-.88.91-.89.9-.89.89-.89.89-.9.87-.9.87-.91.86-.91.85-.92.84-.92.83-.92.83-.93.82-.93.81-.94.8-.94.8-.95.78-.95.78-.95.77-.96.76-.96.75-.97.75-.97.74-.98.73-.98.72-.98.71-.99.7-1 .7-1 .69-1 .68-1 .67-1.01.67-1.02.65-1.02.65-1.02.64-1.03.63-1.03.63-1.04.61-1.04.61-1.05.6-1.05.59-1.05.58-1.06.58-1.06.56-1.07.56-1.07.55-1.08.55-1.08.53-1.08.53-1.09.51-1.09.51-1.1.51-1.1.49-1.11.49-1.11.47-1.11.47-1.12.46-1.13.46-1.12.44-1.14.44-1.13.43-1.14.42-1.15.41-1.15.41-1.15.39-1.16.39-1.16.38-1.17.37-1.17.37-1.18.35-1.18m-299.57-49 1.36.57 1.35.57 1.36.57 1.36.56 1.36.56 1.36.56 1.36.56 1.36.56 1.37.55 1.36.55 1.37.55 1.36.55 1.37.54 1.37.54 1.37.54 1.37.54 1.37.54 1.38.53 1.37.53 1.38.53 1.37.53 1.38.52 1.38.53 1.38.52 1.38.51 1.38.52 1.38.51 1.38.51 1.39.51 1.39.51 1.38.51 1.39.5 1.39.5 1.39.5 1.39.49 1.39.5 1.39.49 1.4.49 1.39.49 1.4.48 1.4.48 1.4.48 1.4.48 1.4.48 1.4.47 1.4.47 1.4.47 1.41.47 1.41.47 1.4.46 1.41.46 1.41.46 1.41.45 1.41.46 1.41.45 1.42.45 1.41.45 1.42.44 1.41.45 1.42.44 1.42.44 1.42.43 1.42.44 1.42.43 1.42.43 1.43.43 1.42.42 1.43.42 1.42.43 1.43.41 1.43.42 1.43.42 1.43.41 1.44.41 1.43.41 1.43.4 1.44.4 1.44.41 1.43.39 1.44.4 1.44.4 1.44.39 1.44.39 1.45.39 1.44.38 1.45.39 1.44.38 1.45.38 1.45.37 1.45.38 1.45.37 1.45.37 1.45.37 1.46.36 1.45.37 1.46.36 1.45.36 1.46.36 1.46.35M177.4 411.14l-1.11-.5-1.12-.5-1.11-.5-1.12-.5-1.12-.5-1.12-.49-1.12-.49-1.12-.49-1.12-.49-1.12-.48-1.12-.49-1.13-.48-1.12-.48-1.13-.48-1.13-.48-1.13-.47-1.13-.48-1.13-.47-1.13-.47-1.13-.47-1.13-.46-1.14-.47-1.13-.46-1.14-.46-1.13-.46-1.14-.46-1.14-.45-1.14-.46-1.14-.45-1.14-.45-1.14-.45-1.15-.44-1.14-.45-1.15-.44-1.14-.44-1.15-.44-1.15-.44-1.15-.43-1.15-.43-1.15-.44-1.15-.43-1.16-.42-1.15-.43-1.15-.42-1.16-.43-1.16-.42-1.15-.42-1.16-.41-1.16-.42-1.16-.41-1.16-.41-1.17-.41-1.16-.41-1.16-.41-1.17-.4-1.17-.41-1.16-.4-1.17-.4-1.17-.39-1.17-.4-1.17-.39-1.17-.39-1.18-.39-1.17-.39-1.17-.39-1.18-.38-1.18-.38-1.17-.38-1.18-.38-1.18-.38-1.18-.38-1.18-.37-1.19-.37-1.18-.37-1.18-.37-1.19-.36-1.18-.37-1.19-.36-1.19-.36-1.19-.36-1.19-.36-1.19-.35-1.19-.36-1.19-.35-1.2-.35-1.19-.35-1.2-.34-1.19-.35-1.2-.34-1.2-.34-1.2-.34-1.2-.34-1.2-.33-1.2-.33-1.2-.34-1.21-.33-1.2-.32-1.21-.33-1.21-.32" style="stroke-width:1.07;stroke:#000000;stroke-opacity:0.10;stroke-linecap:butt"/><path d="m402.38 555.93-.75-1.07-.76-1.06-.76-1.07-.76-1.06-.76-1.06-.77-1.06-.76-1.06-.77-1.05-.78-1.06-.77-1.05-.78-1.05-.77-1.06-.79-1.04-.78-1.05-.78-1.05-.79-1.05-.79-1.04-.79-1.04-.8-1.05-.8-1.04-.8-1.03-.8-1.04-.8-1.04-.81-1.03-.8-1.04-.82-1.03-.81-1.03-.81-1.03-.82-1.03-.82-1.02-.82-1.03-.83-1.02-.82-1.03-.83-1.02-.83-1.02-.84-1.02-.83-1.01-.84-1.02-.84-1.01-.85-1.02-.84-1.01-.85-1.01-.85-1.01-.85-1.01-.85-1-.86-1.01-.86-1-.86-1-.86-1-.87-1-.87-1-.87-1-.87-.99-.87-1-.88-.99-.88-.99-.88-.99-.88-.99-.89-.99-.89-.98-.89-.99-.89-.98-.9-.98-.9-.98-.9-.98-.9-.98-.9-.98-.91-.97-.91-.98-.91-.97-.91-.97-.92-.97-.92-.97-.92-.97-.92-.96-.92-.97-.93-.96-.93-.96-.93-.96-.94-.96-.93-.96-.94-.95-.94-.96-.95-.95-.94-.95-.95-.95-.95-.95-.95-.95-.96-.95-.96-.94-.95-.95-.97-.94-.96-.94-.97-.94-.96-.94-.98-.94-.97-.93-.97-.94-.98-.93m85.69 98.96 1.08-.8 1.07-.79 1.07-.8 1.05-.81 1.06-.81 1.04-.81 1.04-.81 1.03-.82 1.03-.82 1.02-.83 1.01-.83 1.01-.83 1-.84.99-.84.98-.84.98-.85.98-.85.96-.85.96-.86.95-.86.95-.87.94-.87.93-.87.93-.87.92-.88.91-.88.91-.89.9-.89.89-.89.89-.9.88-.9.87-.9.86-.91.86-.91.86-.92.84-.91.84-.92.84-.93.82-.93.82-.93.82-.94.8-.94.8-.94.8-.94.78-.95.78-.96.78-.95.76-.96.76-.97.76-.97.74-.97.74-.97.74-.98.72-.98.72-.99.72-.99.71-.99.7-.99.69-1 .69-1.01.68-1 .67-1.01.67-1.02.66-1.01.65-1.02.65-1.03.64-1.03.63-1.03.63-1.03.62-1.04.62-1.04.6-1.05.6-1.05.6-1.05.59-1.06.58-1.06.57-1.06.57-1.07.56-1.07.55-1.07.55-1.08.54-1.08.54-1.08.52-1.09.52-1.09.52-1.1.51-1.1.5-1.1.49-1.1.49-1.11.48-1.12.48-1.11.46-1.12.47-1.12.45-1.13.45-1.13.44-1.14.43-1.13.43-1.15m-78.45-102.87-.73-.94-.72-.94-.73-.94-.73-.94-.73-.93-.72-.94-.73-.94-.73-.94-.73-.94-.72-.93-.73-.94-.73-.94-.72-.94-.73-.94-.73-.93-.73-.94-.72-.94-.73-.94-.73-.94-.72-.94-.73-.93-.73-.94-.73-.94-.72-.94-.73-.94-.73-.93-.73-.94-.72-.94-.73-.94-.73-.94-.72-.93-.73-.94-.73-.94-.73-.94-.72-.94-.73-.93-.73-.94-.73-.94-.72-.94-.73-.94-.73-.93-.72-.94-.73-.94-.73-.94-.73-.94-.72-.93-.73-.94-.73-.94-.73-.94-.72-.94-.73-.93-.73-.94-.72-.94-.73-.94-.73-.94-.73-.93-.72-.94-.73-.94-.73-.94-.73-.94-.72-.93-.73-.94-.73-.94-.72-.94-.73-.94-.73-.93-.73-.94-.72-.94-.73-.94-.73-.94-.73-.93-.72-.94-.73-.94-.73-.94-.72-.94-.73-.93-.73-.94-.73-.94-.72-.94-.73-.94-.73-.93-.73-.94-.72-.94-.73-.94-.73-.94-.72-.93-.73-.94-.73-.94-.73-.94-.72-.94-.73-.93-.73-.94-.73-.94-.72-.94-.73-.94-.73-.93-.72-.94-.73-.94-.73-.94m72 92.87.72 1.07.71 1.08.72 1.08.72 1.08.72 1.08.72 1.07.73 1.08.72 1.07.73 1.07.73 1.08.73 1.07.73 1.07.74 1.07.73 1.07.74 1.06.74 1.07.74 1.07.74 1.06.74 1.07.75 1.06.74 1.07.75 1.06.75 1.06.75 1.06.76 1.06.75 1.06.76 1.06.75 1.06.76 1.05.76 1.06.77 1.05.76 1.06.76 1.05.77 1.05.77 1.05.77 1.06.77 1.05.78 1.04.77 1.05.78 1.05.78 1.05.78 1.04.78 1.05.78 1.04.78 1.04.79 1.05.79 1.04.79 1.04.79 1.04.79 1.04.79 1.04.8 1.04.8 1.03.8 1.04.8 1.03.8 1.04.8 1.03.81 1.03.8 1.03.81 1.04.81 1.03.81 1.02.82 1.03.81 1.03.82 1.03.82 1.02.81 1.03.83 1.02.82 1.03.82 1.02.83 1.02.83 1.02.82 1.02.83 1.02.84 1.02.83 1.02.84 1.01.83 1.02.84 1.02.84 1.01.84 1.01.85 1.02.84 1.01.85 1.01.84 1.01.85 1.01.86 1.01.85 1 .85 1.01.86 1.01.86 1 .85 1.01.87 1 .86 1 .86 1.01.87 1 .86 1 .87 1 .87.99m-299.57-49 1.39.5 1.39.5 1.39.49 1.39.5 1.4.5 1.39.49 1.39.5 1.39.49 1.39.49 1.4.5 1.39.49 1.39.49 1.4.49 1.39.49 1.4.49 1.39.49 1.4.48 1.39.49 1.4.48 1.39.49 1.4.48 1.4.49 1.39.48 1.4.48 1.4.48 1.4.48 1.4.48 1.4.48 1.4.48 1.4.48 1.4.48 1.4.47 1.4.48 1.4.47 1.4.48 1.4.47 1.4.47 1.41.47 1.4.47 1.4.47 1.41.47 1.4.47 1.41.47 1.4.47 1.41.47 1.4.46 1.41.47 1.4.46 1.41.46 1.41.47 1.4.46 1.41.46 1.41.46 1.41.46 1.41.46 1.41.46 1.41.46 1.41.45 1.41.46 1.41.46 1.41.45 1.41.46 1.41.45 1.41.45 1.41.45 1.42.45 1.41.45 1.41.45 1.42.45 1.41.45 1.41.45 1.42.45 1.41.44 1.42.45 1.41.44 1.42.45 1.42.44 1.41.44 1.42.44 1.42.44 1.42.44 1.42.44 1.41.44 1.42.44 1.42.44 1.42.43 1.42.44 1.42.43 1.42.44 1.42.43 1.42.43 1.43.44 1.42.43 1.42.43 1.42.43 1.43.43 1.42.43 1.42.42 1.43.43M177.4 411.14l-1.14-.44-1.15-.45-1.14-.44-1.15-.44-1.14-.44-1.15-.44-1.15-.44-1.15-.44-1.14-.44-1.15-.43-1.15-.44-1.15-.44-1.15-.43-1.15-.44-1.15-.43-1.14-.44-1.16-.43-1.15-.43-1.15-.44-1.15-.43-1.15-.43-1.15-.43-1.15-.43-1.15-.43-1.16-.43-1.15-.43-1.15-.42-1.16-.43-1.15-.43-1.16-.42-1.15-.43-1.15-.42-1.16-.43-1.16-.42-1.15-.42-1.16-.42-1.15-.42-1.16-.43-1.16-.42-1.15-.42-1.16-.41-1.16-.42-1.16-.42-1.16-.42-1.16-.41-1.16-.42-1.15-.41-1.16-.42-1.16-.41-1.17-.42-1.16-.41-1.16-.41-1.16-.41-1.16-.41-1.16-.42-1.17-.41-1.16-.4-1.16-.41-1.16-.41-1.17-.41-1.16-.41-1.17-.4-1.16-.41-1.17-.4-1.16-.41-1.17-.4-1.16-.4-1.17-.41-1.16-.4-1.17-.4-1.17-.4-1.17-.4-1.16-.4-1.17-.4-1.17-.4-1.17-.39-1.17-.4-1.17-.4-1.17-.39-1.17-.4-1.17-.39-1.17-.4-1.17-.39-1.17-.39-1.17-.4-1.17-.39-1.18-.39-1.17-.39-1.17-.39-1.17-.39-1.18-.39-1.17-.39-1.18-.38-1.17-.39-1.17-.39-1.18-.38-1.18-.39-1.17-.38-1.18-.38" style="stroke-width:1.07;stroke:#000000;stroke-opacity:0.10;stroke-linecap:butt"/><path d="m402.38 555.93-.83-1.02-.83-1.03-.83-1.02-.83-1.02-.83-1.02-.83-1.02-.83-1.01-.84-1.02-.83-1.02-.84-1.02-.83-1.02-.84-1.01-.84-1.02-.84-1.02-.83-1.01-.84-1.02-.84-1.01-.85-1.01-.84-1.02-.84-1.01-.84-1.01-.85-1.02-.84-1.01-.85-1.01-.85-1.01-.84-1.01-.85-1.01-.85-1.01-.85-1.01-.85-1.01-.85-1.01-.85-1-.85-1.01-.86-1.01-.85-1-.86-1.01-.85-1-.86-1.01-.86-1-.85-1.01-.86-1-.86-1.01-.86-1-.86-1-.87-1-.86-1-.86-1-.86-1.01-.87-1-.87-.99-.86-1-.87-1-.87-1-.87-1-.86-1-.87-.99-.88-1-.87-.99-.87-1-.87-1-.88-.99-.87-.99-.88-1-.87-.99-.88-.99-.88-1-.88-.99-.88-.99-.88-.99-.88-.99-.88-.99-.88-.99-.88-.99-.89-.99-.88-.99-.89-.98-.88-.99-.89-.99-.89-.99-.89-.98-.89-.99-.89-.98-.89-.99-.89-.98-.89-.98-.89-.99-.9-.98-.89-.98-.9-.99-.89-.98-.9-.98-.9-.98-.9-.98-.89-.98-.9-.98-.9-.98-.91-.97-.9-.98-.9-.98m85.69 98.96 1.01-.83 1-.84.99-.84.99-.84.99-.84.98-.85.98-.85.97-.85.96-.85.96-.86.96-.86.95-.86.94-.87.94-.87.93-.87.93-.87.93-.88.92-.88.91-.88.91-.88.9-.89.9-.89.89-.9.89-.89.88-.9.88-.9.87-.91.87-.9.86-.91.86-.91.85-.92.85-.92.84-.92.83-.92.83-.93.83-.93.82-.93.82-.93.81-.94.8-.94.8-.94.8-.95.79-.95.78-.95.78-.95.77-.96.77-.96.77-.96.76-.96.75-.97.75-.97.74-.97.74-.98.73-.98.73-.98.72-.98.72-.99.71-.99.71-.99.7-1 .7-1 .69-1 .68-1 .69-1.01.67-1 .67-1.02.67-1.01.66-1.02.65-1.02.65-1.02.65-1.03.64-1.02.63-1.03.63-1.04.63-1.03.62-1.04.61-1.05.61-1.04.6-1.05.6-1.05.59-1.05.59-1.06.59-1.05.57-1.07.58-1.06.56-1.07.57-1.07.55-1.07.56-1.07.54-1.08.54-1.08.54-1.09.53-1.08.53-1.09.52-1.09.52-1.1.51-1.09.5-1.1.5-1.11m-283.56 63.5 1.3-.61 1.29-.61 1.29-.61 1.3-.61 1.29-.62 1.29-.61 1.29-.62 1.29-.62 1.28-.62 1.29-.62 1.29-.62 1.28-.63 1.28-.62 1.28-.63 1.29-.63 1.28-.63 1.28-.63 1.27-.63 1.28-.63 1.28-.64 1.27-.63 1.28-.64 1.27-.64 1.27-.64 1.27-.64 1.27-.64 1.27-.64 1.27-.65 1.26-.65 1.27-.64 1.27-.65 1.26-.65 1.26-.65 1.26-.66 1.26-.65 1.26-.65 1.26-.66 1.26-.66 1.26-.66 1.25-.66 1.26-.66 1.25-.66 1.25-.67 1.25-.66 1.25-.67 1.25-.67 1.25-.67 1.25-.67 1.25-.67 1.24-.67 1.24-.68 1.25-.68 1.24-.67 1.24-.68 1.24-.68 1.24-.68 1.24-.69 1.24-.68 1.23-.68 1.24-.69 1.23-.69 1.23-.69 1.24-.69 1.23-.69 1.23-.69 1.22-.7 1.23-.69 1.23-.7 1.22-.7 1.23-.7 1.22-.7 1.23-.7 1.22-.7 1.22-.71 1.22-.7 1.22-.71 1.21-.71 1.22-.71 1.22-.71 1.21-.71 1.21-.72 1.22-.71 1.21-.72 1.21-.72 1.21-.72 1.2-.72 1.21-.72 1.21-.72 1.2-.73 1.21-.72 1.2-.73 1.2-.73 1.2-.73 1.2-.73 1.2-.73 1.2-.73 1.2-.74 1.19-.73 1.2-.74m-123.28 66.67-1.19.38-1.18.38-1.19.38-1.18.37-1.19.39-1.18.38-1.19.38-1.18.38-1.18.39-1.18.39-1.18.38-1.18.39-1.18.39-1.18.4-1.18.39-1.18.39-1.17.4-1.18.39-1.17.4-1.18.4-1.17.4-1.18.4-1.17.4-1.17.41-1.17.4-1.17.41-1.17.41-1.17.4-1.17.41-1.17.41-1.17.42-1.16.41-1.17.41-1.16.42-1.17.42-1.16.41-1.17.42-1.16.42-1.16.43-1.16.42-1.16.42-1.16.43-1.16.42-1.16.43-1.16.43-1.16.43-1.15.43-1.16.43-1.16.44-1.15.43-1.15.44-1.16.44-1.15.44-1.15.44-1.15.44-1.15.44-1.15.44-1.15.45-1.15.44-1.15.45-1.15.45-1.15.45-1.14.45-1.15.45-1.14.45-1.15.46-1.14.45-1.14.46-1.14.46-1.15.46-1.14.46-1.14.46-1.14.46-1.14.46-1.13.47-1.14.47-1.14.46-1.13.47-1.14.47-1.13.47-1.14.48-1.13.47-1.13.47-1.14.48-1.13.48-1.13.48-1.13.48-1.13.48-1.13.48-1.13.48-1.12.49-1.13.48-1.13.49-1.12.49-1.13.49-1.12.49-1.13.49-1.12.49-1.12.5m98.31-155.57 1.43.43 1.42.42 1.43.43 1.42.43 1.42.43 1.42.43 1.43.43 1.42.44 1.42.43 1.42.43 1.42.44 1.42.43 1.42.44 1.42.43 1.42.44 1.42.44 1.42.44 1.42.44 1.41.44 1.42.44 1.42.44 1.42.44 1.41.44 1.42.45 1.41.44 1.42.45 1.41.44 1.42.45 1.41.45 1.42.45 1.41.45 1.41.45 1.42.45 1.41.45 1.41.45 1.41.45 1.41.46 1.42.45 1.41.45 1.41.46 1.41.46 1.41.45 1.41.46 1.41.46 1.4.46 1.41.46 1.41.46 1.41.46 1.41.46 1.4.47 1.41.46 1.41.46 1.4.47 1.41.47 1.4.46 1.41.47 1.4.47 1.4.47 1.41.47 1.4.47 1.41.47 1.4.47 1.4.47 1.4.47 1.4.48 1.4.47 1.41.48 1.4.47 1.4.48 1.4.48 1.4.48 1.4.48 1.39.48 1.4.48 1.4.48 1.4.48 1.4.48 1.39.49 1.4.48 1.4.49 1.39.48 1.4.49 1.39.49 1.4.48 1.39.49 1.4.49 1.39.49 1.39.49 1.4.49 1.39.5 1.39.49 1.39.49 1.4.5 1.39.49 1.39.5 1.39.5 1.39.49 1.39.5 1.39.5M177.4 411.14l-1.17-.38-1.18-.39-1.17-.38-1.18-.39-1.17-.39-1.18-.38-1.17-.39-1.17-.39-1.18-.39-1.17-.39-1.17-.38-1.18-.4-1.17-.39-1.17-.39-1.17-.39-1.17-.39-1.17-.4-1.18-.39-1.17-.4-1.17-.39-1.17-.4-1.16-.39-1.17-.4-1.17-.4-1.17-.4-1.17-.4-1.17-.39-1.16-.4-1.17-.41-1.17-.4-1.16-.4-1.17-.4-1.17-.4-1.16-.41-1.17-.4-1.16-.41-1.17-.4-1.16-.41-1.16-.41-1.17-.4-1.16-.41-1.17-.41-1.16-.41-1.16-.41-1.16-.41-1.16-.41-1.17-.41-1.16-.41-1.16-.42-1.16-.41-1.16-.42-1.16-.41-1.16-.42-1.16-.41-1.16-.42-1.15-.41-1.16-.42-1.16-.42-1.16-.42-1.16-.42-1.15-.42-1.16-.42-1.16-.42-1.15-.42-1.16-.43-1.15-.42-1.16-.42-1.15-.43-1.16-.42-1.15-.43-1.16-.42-1.15-.43-1.15-.43-1.16-.43-1.15-.43-1.15-.42-1.15-.43-1.15-.43-1.16-.44-1.15-.43-1.15-.43-1.15-.43-1.15-.44-1.15-.43-1.15-.44-1.15-.43-1.15-.44-1.14-.43-1.15-.44-1.15-.44-1.15-.44-1.14-.44-1.15-.43-1.15-.44-1.14-.45-1.15-.44-1.15-.44-1.14-.44-1.15-.44" style="stroke-width:1.07;stroke:#000000;stroke-opacity:0.10;stroke-linecap:butt"/><path d="m177.4 411.14 1.46.35 1.46.36 1.46.36 1.45.36 1.46.37 1.45.36 1.45.37 1.45.37 1.46.37 1.44.38 1.45.37 1.45.38 1.45.38 1.44.39 1.44.38 1.45.39 1.44.39 1.44.39 1.44.4 1.44.4 1.44.39 1.43.41 1.44.4 1.43.41 1.44.4 1.43.41 1.43.42 1.43.41 1.43.42 1.43.41 1.42.43 1.43.42 1.43.42 1.42.43 1.42.43 1.42.43 1.42.44 1.42.43 1.42.44 1.42.44 1.42.45 1.41.44 1.42.45 1.41.45 1.41.45 1.41.46 1.41.45 1.41.46 1.41.46 1.41.46 1.4.47 1.41.47 1.4.47 1.4.47 1.41.47 1.4.48 1.4.48 1.39.48 1.4.48 1.4.49 1.39.48 1.4.49 1.39.49 1.39.5 1.39.49 1.39.5 1.39.5 1.39.5 1.39.51 1.38.51 1.39.51 1.38.51 1.38.51 1.39.52 1.38.51 1.38.53 1.37.52 1.38.52 1.38.53 1.37.53 1.38.53 1.37.53 1.37.54 1.37.54 1.37.54 1.37.54 1.37.54 1.37.55 1.36.55 1.37.55 1.36.55 1.36.56 1.36.56 1.36.56 1.36.56 1.36.56 1.36.57 1.35.57 1.36.57M177.4 411.14l-1.2-.32-1.21-.33-1.2-.33-1.21-.33-1.2-.33-1.2-.33-1.2-.34-1.2-.34-1.2-.33-1.2-.35-1.2-.34-1.2-.34-1.19-.35-1.2-.35-1.19-.35-1.19-.35-1.19-.35-1.19-.36-1.19-.35-1.19-.36-1.19-.36-1.19-.37-1.18-.36-1.19-.37-1.18-.36-1.19-.37-1.18-.38-1.18-.37-1.18-.37-1.18-.38-1.18-.38-1.18-.38-1.17-.38-1.18-.39-1.17-.38-1.18-.39-1.17-.39-1.17-.39-1.17-.4-1.17-.39-1.17-.4-1.17-.4-1.17-.4-1.16-.4-1.17-.41-1.16-.4-1.17-.41-1.16-.41-1.16-.41-1.16-.42-1.16-.41-1.16-.42-1.16-.42-1.15-.42-1.16-.42-1.15-.42-1.16-.43-1.15-.43-1.15-.43-1.15-.43-1.15-.43-1.15-.44-1.15-.44-1.15-.44-1.14-.44-1.15-.44-1.14-.44-1.15-.45-1.14-.45-1.14-.45-1.14-.45-1.14-.45-1.14-.46-1.14-.45-1.14-.46-1.13-.46-1.14-.47-1.13-.46-1.13-.47-1.14-.47-1.13-.47-1.13-.47-1.13-.47-1.13-.48-1.12-.47-1.13-.48-1.12-.48-1.13-.49-1.12-.48-1.13-.49-1.12-.48-1.12-.49-1.12-.5-1.12-.49-1.11-.5-1.12-.49-1.12-.5-1.11-.5-1.12-.5m339.87 185.72-.91.85-.91.86-.91.85-.91.86-.9.85-.91.86-.91.85-.91.86-.91.85-.91.86-.91.85-.9.86-.91.85-.91.86-.91.86-.91.85-.91.86-.91.85-.9.86-.91.85-.91.86-.91.85-.91.86-.91.85-.91.86-.9.85-.91.86-.91.85-.91.86-.91.85-.91.86-.91.85-.9.86-.91.85-.91.86-.91.85-.91.86-.91.85-.91.86-.9.85-.91.86-.91.85-.91.86-.91.85-.91.86-.91.85-.9.86-.91.85-.91.86-.91.86-.91.85-.91.86-.91.85-.9.86-.91.85-.91.86-.91.85-.91.86-.91.85-.91.86-.9.85-.91.86-.91.85-.91.86-.91.85-.91.86-.91.85-.9.86-.91.85-.91.86-.91.85-.91.86-.91.85-.91.86-.9.85-.91.86-.91.85-.91.86-.91.85-.91.86-.91.85-.9.86-.91.85-.91.86-.91.85-.91.86-.91.86-.91.85-.9.86-.91.85-.91.86-.91.85-.91.86-.91.85-.91.86-.91.85-.9.86-.91.85-.91.86m89.95-84.66.93-.87.93-.88.93-.87.92-.88.92-.88.92-.88.91-.88.91-.89.9-.88.9-.89.9-.89.9-.89.89-.9.88-.9.88-.89.88-.9.88-.91.87-.9.87-.91.86-.91.86-.91.86-.91.85-.91.85-.92.85-.92.84-.92.84-.92.83-.93.83-.92.83-.93.82-.93.82-.93.82-.94.81-.93.81-.94.81-.94.8-.94.8-.95.79-.94.79-.95.79-.95.78-.95.78-.95.78-.96.77-.96.77-.96.76-.96.76-.96.76-.97.75-.97.75-.97.75-.97.74-.97.74-.98.73-.97.73-.98.73-.98.73-.99.72-.98.71-.99.72-.99.71-.99.7-.99.7-1 .7-.99.7-1 .69-1 .68-1.01.69-1 .68-1.01.67-1.01.67-1.01.67-1.01.67-1.02.66-1.01.66-1.02.65-1.02.65-1.03.65-1.02.64-1.03.64-1.02.63-1.04.64-1.03.62-1.03.63-1.04.62-1.04.62-1.04.61-1.04.61-1.04.6-1.05.61-1.05.6-1.05.59-1.05.59-1.06.59-1.05.58-1.06.58-1.06.58-1.06.57-1.07" style="stroke-width:1.07;stroke:#000000;stroke-opacity:0.10;stroke-linecap:butt"/><path d="m177.4 411.14 1.5.28 1.49.29 1.49.29 1.49.29 1.48.3 1.49.3 1.48.31 1.48.31 1.48.31 1.48.31 1.47.32 1.48.33 1.47.32 1.47.33 1.47.34 1.47.34 1.46.34 1.47.34 1.46.35 1.46.35 1.45.36 1.46.36 1.46.36 1.45.37 1.45.37 1.45.38 1.45.38 1.44.38 1.45.38 1.44.39 1.44.4 1.44.39 1.43.4 1.44.41 1.43.41 1.43.41 1.43.41 1.43.42 1.43.42 1.42.43 1.43.43 1.42.43 1.42.44 1.41.44 1.42.45 1.41.44 1.42.46 1.41.45 1.41.46 1.4.46 1.41.47 1.4.47 1.4.47 1.4.48 1.4.48 1.4.49 1.39.49 1.39.49 1.4.5 1.38.49 1.39.51 1.39.51 1.38.51 1.38.51 1.38.52 1.38.52 1.38.53 1.37.52 1.38.54 1.37.53 1.37.54 1.37.55 1.36.55 1.37.55 1.36.55 1.36.56 1.36.56 1.36.57 1.35.57 1.36.57 1.35.58 1.35.58 1.35.58 1.35.59 1.34.59 1.35.6 1.34.6 1.34.6 1.34.61 1.33.61 1.34.61 1.33.62 1.33.62 1.33.62 1.33.63 1.32.63 1.33.64 1.32.64 1.32.64M177.4 411.14l-1.23-.27-1.24-.26-1.23-.27-1.24-.28-1.23-.27-1.23-.29-1.23-.28-1.22-.28-1.23-.29-1.22-.3-1.22-.29-1.23-.3-1.21-.3-1.22-.3-1.22-.31-1.21-.31-1.21-.32-1.21-.31-1.21-.32-1.21-.32-1.21-.33-1.2-.33-1.21-.33-1.2-.33-1.2-.34-1.2-.34-1.19-.35-1.2-.34-1.19-.35-1.19-.36-1.19-.35-1.19-.36-1.19-.36-1.19-.37-1.18-.37-1.18-.37-1.18-.37-1.18-.38-1.18-.38-1.18-.38-1.17-.39-1.17-.39-1.18-.39-1.17-.39-1.16-.4-1.17-.4-1.17-.41-1.16-.41-1.16-.41-1.16-.41-1.16-.42-1.16-.42-1.16-.42-1.15-.42-1.15-.43-1.15-.43-1.15-.44-1.15-.44-1.15-.44-1.14-.44-1.14-.45-1.15-.45-1.14-.45-1.13-.46-1.14-.46-1.14-.46-1.13-.46-1.13-.47-1.13-.47-1.13-.48-1.13-.47-1.13-.48-1.12-.49-1.12-.48-1.12-.49-1.12-.49-1.12-.5-1.12-.5-1.11-.5-1.12-.5-1.11-.51-1.11-.51-1.11-.52-1.1-.51-1.11-.52-1.1-.52-1.1-.53-1.1-.53-1.1-.53-1.1-.54-1.1-.53-1.09-.54-1.09-.55-1.09-.54-1.09-.55-1.09-.56-1.09-.55-1.08-.56-1.09-.56m339.87 185.72-.28 1.07-.27 1.06-.28 1.07-.28 1.07-.27 1.07-.28 1.06-.28 1.07-.27 1.07-.28 1.07-.28 1.06-.27 1.07-.28 1.07-.27 1.07-.28 1.06-.28 1.07-.27 1.07-.28 1.07-.28 1.07-.27 1.06-.28 1.07-.28 1.07-.27 1.07-.28 1.06-.27 1.07-.28 1.07-.28 1.07-.27 1.06-.28 1.07-.28 1.07-.27 1.07-.28 1.06-.28 1.07-.27 1.07-.28 1.07-.27 1.06-.28 1.07-.28 1.07-.27 1.07-.28 1.07-.28 1.06-.27 1.07-.28 1.07-.28 1.07-.27 1.06-.28 1.07-.28 1.07-.27 1.07-.28 1.06-.27 1.07-.28 1.07-.28 1.07-.27 1.06-.28 1.07-.28 1.07-.27 1.07-.28 1.06-.28 1.07-.27 1.07-.28 1.07-.27 1.06-.28 1.07-.28 1.07-.27 1.07-.28 1.07-.28 1.06-.27 1.07-.28 1.07-.28 1.07-.27 1.06-.28 1.07-.27 1.07-.28 1.07-.28 1.06-.27 1.07-.28 1.07-.28 1.07-.27 1.06-.28 1.07-.28 1.07-.27 1.07-.28 1.06-.28 1.07-.27 1.07-.28 1.07-.27 1.07-.28 1.06-.28 1.07-.27 1.07-.28 1.07-.28 1.06-.27 1.07-.28 1.07-.28 1.07-.27 1.06-.28 1.07-.27 1.07-.28 1.07-.28 1.06-.27 1.07m27.36-105.69.86-.91.86-.91.86-.91.85-.92.86-.91.85-.92.85-.91.84-.92.85-.92.84-.92.84-.92.84-.93.83-.92.83-.92.84-.93.82-.93.83-.93.82-.93.83-.93.82-.93.81-.93.82-.94.81-.93.81-.94.81-.94.81-.94.8-.94.81-.94.8-.94.79-.94.8-.95.79-.95.79-.94.79-.95.79-.95.78-.95.79-.95.78-.96.77-.95.78-.96.77-.96.77-.95.77-.96.77-.96.76-.96.77-.97.76-.96.75-.97.76-.96.75-.97.75-.97.75-.97.75-.97.75-.97.74-.98.74-.97.74-.98.73-.97.74-.98.73-.98.73-.98.72-.98.73-.99.72-.98.72-.98.72-.99.71-.99.72-.99.71-.99.71-.99.71-.99.7-.99.7-1 .7-.99.7-1 .7-1 .69-1 .69-1 .69-1 .69-1 .68-1.01.69-1 .68-1.01.67-1.01.68-1.01.67-1.01.68-1.01.67-1.01.66-1.01.67-1.02.66-1.02.66-1.01.66-1.02.65-1.02.66-1.02.65-1.02.65-1.03.65-1.02.64-1.03" style="stroke-width:1.07;stroke:#000000;stroke-opacity:0.10;stroke-linecap:butt"/><path d="m177.4 411.14 1.53.21 1.53.22 1.52.22 1.52.22 1.52.24 1.51.23 1.52.24 1.51.25 1.51.25 1.5.26 1.51.26 1.5.27 1.5.27 1.49.28 1.49.28 1.5.29 1.48.29 1.49.3 1.48.3 1.48.31 1.48.32 1.48.32 1.47.32 1.47.33 1.47.33 1.47.34 1.46.35 1.46.35 1.46.35 1.46.36 1.45.37 1.45.37 1.45.37 1.45.38 1.44.39 1.45.39 1.43.4 1.44.4 1.44.4 1.43.41 1.43.42 1.42.42 1.43.43 1.42.43 1.42.44 1.41.44 1.42.45 1.41.45 1.41.46 1.41.46 1.4.47 1.4.47 1.4.48 1.4.49 1.39.48 1.4.5 1.39.5 1.38.5 1.39.51 1.38.51 1.38.52 1.38.53 1.37.53 1.37.53 1.37.54 1.37.55 1.37.55 1.36.55 1.36.57 1.36.56 1.35.57 1.35.58 1.35.58 1.35.59 1.35.59 1.34.59 1.34.61 1.34.6 1.33.62 1.34.61 1.33.63 1.32.62 1.33.64 1.32.63 1.32.65 1.32.65 1.32.65 1.31.66 1.31.66 1.31.67 1.3.67 1.31.68 1.3.69 1.29.69 1.3.69 1.29.7 1.29.71 1.29.71 1.29.71M177.4 411.14l-1.26-.21-1.27-.21-1.27-.21-1.26-.22-1.26-.22-1.26-.23-1.25-.23-1.25-.23-1.25-.24-1.25-.25-1.25-.24-1.24-.26-1.25-.25-1.24-.26-1.23-.27-1.24-.27-1.23-.27-1.23-.28-1.23-.28-1.23-.29-1.22-.29-1.23-.29-1.22-.3-1.21-.3-1.22-.31-1.21-.31-1.22-.32-1.2-.32-1.21-.32-1.21-.33-1.2-.33-1.2-.34-1.2-.34-1.19-.35-1.2-.35-1.19-.35-1.19-.36-1.18-.36-1.19-.37-1.18-.37-1.18-.38-1.18-.37-1.18-.39-1.17-.39-1.17-.39-1.17-.4-1.17-.4-1.16-.4-1.17-.41-1.16-.41-1.15-.42-1.16-.42-1.15-.43-1.16-.43-1.15-.43-1.14-.44-1.15-.45-1.14-.44-1.14-.46-1.14-.45-1.14-.46-1.13-.47-1.13-.47-1.13-.47-1.13-.48-1.12-.48-1.13-.48-1.12-.49-1.12-.5-1.11-.49-1.12-.51-1.11-.5-1.11-.52-1.11-.51-1.1-.52-1.1-.52-1.11-.53-1.09-.53-1.1-.54-1.09-.54-1.1-.55-1.09-.55-1.08-.55-1.09-.56-1.08-.56-1.08-.57-1.08-.57-1.08-.57-1.07-.58-1.08-.58-1.07-.59-1.06-.59-1.07-.6-1.06-.6-1.06-.6-1.06-.61-1.06-.62-1.05-.61-1.06-.62m339.87 185.72.45.98.45.98.44.98.45.98.45.99.45.98.45.98.44.98.45.98.45.98.45.99.45.98.45.98.44.98.45.98.45.98.45.99.45.98.45.98.44.98.45.98.45.98.45.99.45.98.45.98.44.98.45.98.45.98.45.99.45.98.45.98.44.98.45.98.45.98.45.99.45.98.45.98.44.98.45.98.45.98.45.99.45.98.45.98.44.98.45.98.45.98.45.99.45.98.45.98.44.98.45.98.45.98.45.99.45.98.44.98.45.98.45.98.45.98.45.99.45.98.44.98.45.98.45.98.45.98.45.99.45.98.44.98.45.98.45.98.45.98.45.99.45.98.44.98.45.98.45.98.45.98.45.99.45.98.44.98.45.98.45.98.45.98.45.99.45.98.44.98.45.98.45.98.45.98.45.99.45.98.44.98.45.98.45.98.45.98.45.99.45.98.44.98.45.98.45.98m-44.38-97.18.79-.95.79-.95.79-.95.78-.95.79-.95.79-.95.78-.95.78-.95.79-.95.78-.95.78-.95.79-.96.78-.95.78-.95.78-.96.77-.95.78-.96.78-.95.78-.96.77-.95.78-.96.77-.95.77-.96.78-.96.77-.96.77-.95.77-.96.77-.96.77-.96.77-.96.76-.96.77-.96.77-.96.76-.96.77-.96.76-.97.76-.96.77-.96.76-.96.76-.97.76-.96.76-.97.76-.96.75-.97.76-.96.76-.97.75-.96.76-.97.75-.97.76-.97.75-.96.75-.97.75-.97.75-.97.75-.97.75-.97.75-.97.75-.97.74-.97.75-.97.75-.97.74-.98.74-.97.75-.97.74-.97.74-.98.74-.97.74-.98.74-.97.74-.98.74-.97.74-.98.73-.98.74-.97.73-.98.74-.98.73-.98.73-.98.74-.97.73-.98.73-.98.73-.98.73-.98.72-.98.73-.99.73-.98.73-.98.72-.98.73-.98.72-.99.72-.98.73-.99.72-.98.72-.99.72-.98.72-.99.72-.98.71-.99.72-.99" style="stroke-width:1.07;stroke:#000000;stroke-opacity:0.10;stroke-linecap:butt"/><path d="m177.4 411.14 1.57.14 1.56.14 1.55.16 1.56.15 1.55.17 1.54.17 1.55.18 1.54.18 1.53.2 1.54.19 1.53.21 1.53.21 1.52.22 1.52.22 1.52.23 1.51.24 1.52.25 1.5.25 1.51.26 1.5.26 1.5.27 1.5.28 1.49.28 1.49.29 1.49.3 1.48.31 1.48.31 1.48.31 1.47.33 1.47.33 1.47.34 1.46.34 1.46.35 1.46.36 1.45.36 1.46.37 1.44.38 1.45.38 1.44.39 1.44.4 1.44.4 1.43.41 1.43.42 1.42.42 1.43.43 1.42.44 1.41.44 1.42.45 1.41.46 1.4.46 1.41.47 1.4.48 1.39.48 1.4.49 1.39.49 1.39.51 1.38.51 1.38.51 1.38.52 1.38.53 1.37.54 1.37.54 1.36.55 1.37.56 1.35.56 1.36.57 1.35.57 1.35.58 1.35.59 1.34.6 1.34.6 1.34.61 1.33.61 1.33.63 1.33.62 1.33.64 1.32.64 1.32.65 1.31.65 1.31.67 1.31.66 1.31.68 1.3.68 1.3.69 1.29.69 1.3.7 1.28.71 1.29.72 1.28.72 1.28.72 1.28.74 1.27.74 1.27.75 1.27.75 1.26.76 1.27.77 1.25.77 1.26.78 1.25.79M177.4 411.14l-1.3-.15-1.29-.15-1.3-.15-1.29-.17-1.29-.16-1.28-.18-1.28-.18-1.28-.18-1.28-.19-1.27-.2-1.28-.2-1.26-.2-1.27-.21-1.26-.22-1.26-.22-1.26-.23-1.25-.23-1.25-.24-1.25-.25-1.25-.25-1.24-.25-1.24-.26-1.24-.27-1.23-.27-1.23-.28-1.23-.28-1.23-.29-1.22-.29-1.22-.3-1.22-.31-1.21-.3-1.21-.32-1.21-.32-1.21-.33-1.2-.33-1.2-.34-1.2-.34-1.19-.35-1.2-.35-1.19-.36-1.18-.36-1.18-.37-1.19-.38-1.17-.38-1.18-.38-1.17-.4-1.17-.39-1.16-.41-1.17-.4-1.16-.42-1.16-.42-1.15-.42-1.15-.43-1.15-.44-1.15-.44-1.14-.44-1.14-.45-1.14-.46-1.14-.46-1.13-.47-1.13-.48-1.12-.48-1.13-.48-1.12-.49-1.12-.49-1.11-.51-1.11-.5-1.11-.51-1.11-.52-1.1-.52-1.1-.53-1.1-.54-1.1-.53-1.09-.55-1.09-.55-1.09-.55-1.08-.56-1.08-.57-1.08-.57-1.07-.58-1.08-.58-1.07-.59-1.06-.59-1.07-.6-1.06-.61-1.06-.61-1.05-.61-1.05-.62-1.05-.63-1.05-.63-1.05-.64-1.04-.64-1.04-.65-1.03-.65-1.03-.66-1.03-.67-1.03-.67-1.03-.67-1.02-.68" style="stroke-width:1.07;stroke:#000000;stroke-opacity:0.10;stroke-linecap:butt"/><path d="m177.4 411.14 1.6.07 1.59.07 1.59.08 1.59.09 1.58.1 1.58.11 1.57.12 1.57.12 1.57.13 1.56.14 1.56.15 1.55.15 1.55.17 1.55.17 1.54.18 1.54.19 1.54.19 1.53.21 1.53.21 1.52.22 1.52.23 1.52.23 1.51.25 1.51.25 1.5.26 1.5.27 1.5.28 1.49.28 1.49.3 1.48.3 1.48.31 1.48.31 1.47.33 1.47.33 1.47.34 1.46.35 1.45.36 1.46.37 1.45.37 1.44.38 1.45.39 1.43.4 1.44.41 1.43.41 1.42.43 1.43.43 1.41.43 1.42.45 1.41.46 1.41.46 1.4.47 1.4.48 1.39.49 1.4.49 1.38.51 1.39.51 1.38.52 1.37.52 1.37.54 1.37.54 1.37.56 1.36.56 1.35.56 1.36.58 1.34.58 1.35.6 1.34.6 1.34.6 1.33.62 1.33.63 1.33.63 1.32.64 1.31.65 1.32.66 1.31.66 1.3.67 1.31.69 1.29.68 1.3.7 1.29.71 1.29.71 1.28.72 1.28.73 1.27.74 1.27.75 1.27.75 1.26.76 1.26.77 1.26.78 1.25.79 1.25.79 1.24.81 1.24.81 1.24.82 1.23.82 1.23.84 1.22.84 1.22.85 1.22.86M177.4 411.14l-1.33-.09-1.32-.09-1.33-.1-1.32-.11-1.31-.11-1.32-.12-1.31-.13-1.3-.13-1.31-.14-1.29-.15-1.3-.15-1.29-.16-1.29-.17-1.29-.17-1.28-.18-1.28-.19-1.27-.19-1.27-.2-1.27-.21-1.27-.21-1.26-.22-1.26-.23-1.25-.23-1.25-.24-1.25-.25-1.24-.25-1.24-.26-1.24-.27-1.23-.27-1.23-.28-1.23-.29-1.22-.29-1.22-.3-1.22-.31-1.21-.31-1.21-.32-1.2-.33-1.21-.33-1.19-.34-1.2-.35-1.19-.35-1.19-.36-1.18-.37-1.19-.37-1.17-.38-1.18-.39-1.17-.39-1.17-.4-1.16-.41-1.16-.41-1.16-.42-1.15-.43-1.15-.43-1.15-.44-1.14-.45-1.14-.45-1.14-.46-1.13-.47-1.13-.47-1.13-.48-1.12-.49-1.12-.49-1.11-.5-1.11-.51-1.11-.51-1.11-.52-1.1-.53-1.1-.54-1.09-.54-1.09-.54-1.09-.56-1.08-.56-1.09-.56-1.07-.58-1.08-.58-1.07-.58-1.06-.6-1.07-.6-1.06-.6-1.05-.62-1.06-.62-1.05-.63-1.04-.63-1.04-.64-1.04-.65-1.04-.65-1.03-.66-1.03-.67-1.03-.67-1.02-.68-1.02-.69-1.01-.69-1.01-.7-1.01-.71-1-.71-1-.72-1-.73-1-.73-.99-.74m339.87 185.72-.9-.98-.91-.98-.9-.98-.9-.97-.9-.98-.9-.98-.9-.98-.89-.98-.9-.98-.9-.99-.89-.98-.9-.98-.89-.98-.89-.99-.9-.98-.89-.98-.89-.99-.89-.98-.89-.99-.88-.99-.89-.98-.89-.99-.89-.99-.88-.98-.89-.99-.88-.99-.88-.99-.88-.99-.89-.99-.88-.99-.88-.99-.88-.99-.87-1-.88-.99-.88-.99-.88-.99-.87-1-.88-.99-.87-1-.87-.99-.88-1-.87-.99-.87-1-.87-1-.87-.99-.87-1-.86-1-.87-1-.87-1-.86-1-.87-1-.86-1-.87-1-.86-1-.86-1-.86-1-.86-1.01-.86-1-.86-1-.86-1.01-.85-1-.86-1.01-.86-1-.85-1.01-.85-1-.86-1.01-.85-1.01-.85-1.01-.85-1-.85-1.01-.85-1.01-.85-1.01-.85-1.01-.85-1.01-.84-1.01-.85-1.01-.84-1.02-.85-1.01-.84-1.01-.85-1.01-.84-1.02-.84-1.01-.84-1.02-.84-1.01-.84-1.02-.84-1.01-.83-1.02-.84-1.02-.83-1.01-.84-1.02-.83-1.02-.84-1.02-.83-1.02-.83-1.02-.83-1.02-.83-1.02-.83-1.02-.83-1.02-.83-1.02m85.69 98.96.72-.99.71-.99.72-.98.72-.99.72-.98.72-.99.73-.98.72-.99.72-.98.72-.98.73-.99.73-.98.72-.98.73-.98.73-.98.72-.98.73-.98.73-.98.73-.98.74-.98.73-.98.73-.98.73-.98.74-.98.73-.97.74-.98.73-.98.74-.97.74-.98.74-.97.74-.98.74-.97.74-.98.74-.97.74-.98.75-.97.74-.97.75-.97.74-.98.75-.97.74-.97.75-.97.75-.97.75-.97.75-.97.75-.97.75-.97.75-.96.75-.97.76-.97.75-.97.76-.96.75-.97.76-.97.76-.96.75-.97.76-.96.76-.97.76-.96.76-.96.76-.97.77-.96.76-.96.76-.96.77-.97.76-.96.77-.96.77-.96.76-.96.77-.96.77-.96.77-.96.77-.95.77-.96.77-.96.78-.96.77-.95.77-.96.78-.96.78-.95.77-.96.78-.95.78-.96.78-.95.77-.95.78-.96.79-.95.78-.95.78-.96.78-.95.79-.95.78-.95.79-.95.78-.95.79-.95.79-.95.78-.95.79-.95.79-.95m-78.45-102.87-.83 1-.82 1.01-.83 1.01-.83 1-.82 1.01-.83 1.01-.83 1.01-.82 1-.83 1.01-.83 1.01-.82 1-.83 1.01-.83 1.01-.82 1-.83 1.01-.82 1.01-.83 1.01-.83 1-.82 1.01-.83 1.01-.83 1-.82 1.01-.83 1.01-.83 1.01-.82 1-.83 1.01-.83 1.01-.82 1-.83 1.01-.83 1.01-.82 1.01-.83 1-.83 1.01-.82 1.01-.83 1-.83 1.01-.82 1.01-.83 1.01-.83 1-.82 1.01-.83 1.01-.83 1-.82 1.01-.83 1.01-.83 1.01-.82 1-.83 1.01-.83 1.01-.82 1-.83 1.01-.83 1.01-.82 1.01-.83 1-.83 1.01-.82 1.01-.83 1-.82 1.01-.83 1.01-.83 1.01-.82 1-.83 1.01-.83 1.01-.82 1-.83 1.01-.83 1.01-.82 1.01-.83 1-.83 1.01-.82 1.01-.83 1-.83 1.01-.82 1.01-.83 1.01-.83 1-.82 1.01-.83 1.01-.83 1-.82 1.01-.83 1.01-.83 1.01-.82 1-.83 1.01-.83 1.01-.82 1-.83 1.01-.83 1.01-.82 1.01-.83 1-.83 1.01-.82 1.01-.83 1-.83 1.01-.82 1.01-.83 1-.82 1.01-.83 1.01-.83 1.01-.82 1-.83 1.01m81.83-99.7.79 1.03.8 1.04.79 1.04.79 1.04.79 1.04.8 1.04.79 1.04.79 1.04.79 1.04.79 1.04.8 1.04.79 1.04.79 1.03.79 1.04.8 1.04.79 1.04.79 1.04.79 1.04.8 1.04.79 1.04.79 1.04.79 1.04.8 1.04.79 1.04.79 1.03.79 1.04.8 1.04.79 1.04.79 1.04.79 1.04.8 1.04.79 1.04.79 1.04.79 1.04.8 1.04.79 1.04.79 1.04.79 1.03.8 1.04.79 1.04.79 1.04.79 1.04.8 1.04.79 1.04.79 1.04.79 1.04.8 1.04.79 1.04.79 1.04.79 1.03.79 1.04.8 1.04.79 1.04.79 1.04.79 1.04.8 1.04.79 1.04.79 1.04.79 1.04.8 1.04.79 1.04.79 1.03.79 1.04.8 1.04.79 1.04.79 1.04.79 1.04.8 1.04.79 1.04.79 1.04.79 1.04.8 1.04.79 1.04.79 1.04.79 1.03.8 1.04.79 1.04.79 1.04.79 1.04.8 1.04.79 1.04.79 1.04.79 1.04.8 1.04.79 1.04.79 1.04.79 1.03.8 1.04.79 1.04.79 1.04.79 1.04.79 1.04.8 1.04.79 1.04.79 1.04.79 1.04.8 1.04.79 1.04.79 1.03" style="stroke-width:1.07;stroke:#000000;stroke-opacity:0.10;stroke-linecap:butt"/><path d="m193.41 523.64 1.25-.67 1.24-.67 1.25-.68 1.24-.67 1.25-.67 1.24-.68 1.25-.67 1.24-.67 1.25-.68 1.24-.67 1.25-.67 1.24-.68 1.25-.67 1.24-.67 1.25-.68 1.24-.67 1.25-.67 1.24-.68 1.25-.67 1.25-.68 1.24-.67 1.25-.67 1.24-.68 1.25-.67 1.24-.67 1.25-.68 1.24-.67 1.25-.67 1.24-.68 1.25-.67 1.24-.67 1.25-.68 1.24-.67 1.25-.67 1.24-.68 1.25-.67 1.24-.67 1.25-.68 1.24-.67 1.25-.67 1.25-.68 1.24-.67 1.25-.67 1.24-.68 1.25-.67 1.24-.68 1.25-.67 1.24-.67 1.25-.68 1.24-.67 1.25-.67 1.24-.68 1.25-.67 1.24-.67 1.25-.68 1.24-.67 1.25-.67 1.24-.68 1.25-.67 1.24-.67 1.25-.68 1.25-.67 1.24-.67 1.25-.68 1.24-.67 1.25-.67 1.24-.68 1.25-.67 1.24-.68 1.25-.67 1.24-.67 1.25-.68 1.24-.67 1.25-.67 1.24-.68 1.25-.67 1.24-.67 1.25-.68 1.24-.67 1.25-.67 1.24-.68 1.25-.67 1.24-.67 1.25-.68 1.25-.67 1.24-.67 1.25-.68 1.24-.67 1.25-.67 1.24-.68 1.25-.67 1.24-.68 1.25-.67 1.24-.67 1.25-.68 1.24-.67 1.25-.67 1.24-.68 1.25-.67m-123.28 66.67-1.15.44-1.16.43-1.15.44-1.16.43-1.15.44-1.16.43-1.15.44-1.16.43-1.15.44-1.16.43-1.15.44-1.16.43-1.15.44-1.16.43-1.15.44-1.16.43-1.15.44-1.16.43-1.15.44-1.15.43-1.16.44-1.15.43-1.16.44-1.15.43-1.16.44-1.15.43-1.16.44-1.15.43-1.16.44-1.15.43-1.16.44-1.15.43-1.16.44-1.15.43-1.16.44-1.15.43-1.16.44-1.15.43-1.15.44-1.16.43-1.15.44-1.16.43-1.15.44-1.16.43-1.15.44-1.16.43-1.15.44-1.16.43-1.15.44-1.16.43-1.15.44-1.16.43-1.15.44-1.16.43-1.15.44-1.16.43-1.15.44-1.16.43-1.15.44-1.15.43-1.16.44-1.15.43-1.16.44-1.15.43-1.16.44-1.15.43-1.16.44-1.15.43-1.16.44-1.15.43-1.16.44-1.15.43-1.16.44-1.15.43-1.16.44-1.15.43-1.16.44-1.15.43-1.16.44-1.15.43-1.15.44-1.16.43-1.15.44-1.16.43-1.15.44-1.16.43-1.15.44-1.16.43-1.15.44-1.16.43-1.15.44-1.16.43-1.15.44-1.16.43-1.15.44-1.16.43-1.15.44-1.16.43-1.15.44" style="stroke-width:1.07;stroke:#000000;stroke-opacity:0.10;stroke-linecap:butt"/><path d="m303.78 377.72.13.81.13.8.13.8.13.8.13.8.13.8.13.8.13.8.13.8.13.8.13.8.13.8.13.8.13.8.13.8.13.8.13.8.14.8.13.8.13.8.13.8.13.8.13.81.13.8.13.8.13.8.13.8.13.8.13.8.13.8.13.8.13.8.13.8.13.8.13.8.13.8.13.8.13.8.13.8.13.8.13.8.14.8.13.8.13.81.13.8.13.8.13.8.13.8.13.8.13.8.13.8.13.8.13.8.13.8.13.8.13.8.13.8.13.8.13.8.13.8.13.8.13.8.13.8.13.8.13.8.14.81.13.8.13.8.13.8.13.8.13.8.13.8.13.8.13.8.13.8.13.8.13.8.13.8.13.8.13.8.13.8.13.8.13.8.13.8.13.8.13.8.13.8.13.81.13.8.14.8.13.8.13.8.13.8.13.8.13.8.13.8.13.8.13.8.13.8m85.69 98.96-.98-.94-.97-.93-.98-.94-.97-.93-.97-.94-.96-.94-.97-.94-.96-.94-.96-.95-.95-.94-.96-.95-.95-.95-.95-.95-.95-.95-.95-.95-.94-.95-.94-.96-.94-.95-.94-.96-.93-.96-.93-.96-.93-.96-.93-.97-.92-.96-.93-.97-.92-.96-.91-.97-.92-.97-.91-.97-.92-.97-.9-.98-.91-.97-.91-.98-.9-.98-.9-.98-.89-.98-.9-.98-.89-.98-.89-.99-.89-.98-.89-.99-.88-.99-.88-.99-.88-.99-.88-.99-.87-1-.88-.99-.87-1-.87-1-.86-1-.86-1-.86-1-.86-1.01-.86-1-.85-1.01-.86-1-.85-1.01-.84-1.01-.85-1.02-.84-1.01-.84-1.01-.84-1.02-.83-1.02-.84-1.01-.83-1.02-.83-1.03-.83-1.02-.82-1.02-.82-1.03-.82-1.02-.82-1.03-.81-1.03-.82-1.03-.81-1.03-.81-1.04-.8-1.03-.81-1.04-.8-1.04-.8-1.04-.79-1.04-.8-1.04-.79-1.04-.79-1.05-.79-1.04-.78-1.05-.79-1.05-.78-1.05-.78-1.05-.77-1.05-.78-1.05-.77-1.06-.77-1.06-.77-1.05-.76-1.06-.76-1.06-.76-1.07-.76-1.06-.76-1.06-.75-1.07m85.69 98.96.64-1.03.65-1.02.65-1.02.65-1.03.66-1.02.65-1.02.66-1.01.66-1.02.66-1.02.67-1.01.67-1.02.66-1.01.68-1.01.67-1.01.68-1.01.67-1.01.68-1 .69-1.01.68-1 .69-1.01.69-1 .69-1 .69-1 .7-1 .7-.99.7-1 .7-.99.71-1 .7-.99.71-.99.71-.99.72-.99.71-.99.72-.98.72-.99.72-.98.73-.98.72-.99.73-.98.74-.98.73-.97.73-.98.74-.98.74-.97.75-.98.74-.97.75-.97.75-.97.75-.97.75-.96.76-.97.75-.97.76-.96.77-.96.76-.96.77-.96.77-.96.77-.96.77-.96.78-.95.77-.96.78-.95.79-.95.78-.96.79-.95.79-.94.79-.95.79-.95.8-.94.79-.95.8-.94.81-.94.8-.94.81-.94.81-.94.81-.94.81-.93.82-.94.81-.93.82-.93.83-.93.82-.93.83-.93.83-.93.83-.92.83-.93.83-.92.84-.92.84-.93.84-.92.85-.92.84-.91.85-.92.85-.92.86-.91.85-.91.86-.91.86-.92.86-.91m-74.59 95.79 1.02.65 1.03.65 1.03.65 1.03.65 1.03.65 1.02.65 1.03.65 1.03.65 1.03.65 1.03.65 1.03.64 1.04.65 1.03.65 1.03.64 1.03.65 1.04.64 1.03.64 1.04.65 1.03.64 1.04.64 1.03.64 1.04.64 1.04.64 1.03.64 1.04.64 1.04.64 1.04.64 1.04.64 1.04.63 1.04.64 1.04.64 1.04.63 1.04.64 1.04.63 1.04.64 1.05.63 1.04.63 1.04.63 1.05.64 1.04.63 1.05.63 1.05.63 1.04.63 1.05.62 1.05.63 1.04.63 1.05.63 1.05.62 1.05.63 1.05.63 1.05.62 1.05.63 1.05.62 1.05.62 1.06.63 1.05.62 1.05.62 1.05.62 1.06.62 1.05.62 1.06.62 1.05.62 1.06.62 1.06.62 1.05.61 1.06.62 1.06.62 1.06.61 1.06.62 1.05.61 1.06.62 1.06.61 1.07.61 1.06.61 1.06.62 1.06.61 1.06.61 1.07.61 1.06.61 1.06.61 1.07.61 1.06.6 1.07.61 1.06.61 1.07.6 1.07.61 1.06.6 1.07.61 1.07.6 1.07.61 1.07.6 1.07.6 1.07.6 1.07.61 1.07.6 1.07.6 1.07.6 1.08.6 1.07.59" style="stroke-width:1.07;stroke:#000000;stroke-opacity:0.10;stroke-linecap:butt"/><path d="m402.38 555.93.57-1.07.58-1.06.58-1.06.58-1.06.59-1.05.59-1.06.59-1.05.6-1.05.61-1.05.6-1.04.61-1.05.61-1.04.62-1.04.62-1.04.63-1.03.62-1.04.64-1.03.63-1.03.64-1.03.64-1.03.65-1.02.65-1.02.65-1.03.66-1.01.66-1.02.67-1.02.67-1.01.67-1.01.67-1.01.68-1 .69-1.01.68-1 .7-1 .69-1 .7-1 .7-.99.71-1 .7-.99.72-.99.71-.99.72-.98.73-.98.73-.99.73-.97.73-.98.74-.98.74-.97.75-.97.75-.97.75-.97.76-.96.76-.97.77-.96.76-.96.78-.96.77-.95.78-.96.78-.95.79-.95.79-.95.79-.94.8-.95.8-.94.81-.94.81-.94.81-.93.82-.94.82-.93.82-.93.83-.93.83-.92.83-.93.84-.92.84-.92.85-.92.85-.91.85-.92.86-.91.86-.91.86-.91.87-.91.87-.9.88-.9.88-.9.88-.9.88-.9.89-.89.9-.9.9-.89.9-.89.9-.88.91-.89.91-.88.92-.88.92-.88.92-.88.93-.87.93-.87.93-.88m-236.64-82.27.77.8.77.8.77.8.77.8.78.8.77.8.77.8.77.8.77.8.77.79.77.8.78.8.77.8.77.8.77.8.77.8.77.8.77.8.77.79.78.8.77.8.77.8.77.8.77.8.77.8.77.8.77.8.78.8.77.79.77.8.77.8.77.8.77.8.77.8.78.8.77.8.77.8.77.79.77.8.77.8.77.8.77.8.78.8.77.8.77.8.77.8.77.8.77.79.77.8.77.8.78.8.77.8.77.8.77.8.77.8.77.8.77.79.78.8.77.8.77.8.77.8.77.8.77.8.77.8.77.8.78.8.77.79.77.8.77.8.77.8.77.8.77.8.77.8.78.8.77.8.77.79.77.8.77.8.77.8.77.8.78.8.77.8.77.8.77.8.77.8.77.79.77.8.77.8.78.8.77.8.77.8.77.8.77.8.77.8.77.79.77.8.78.8.77.8.77.8" style="stroke-width:1.07;stroke:#000000;stroke-opacity:0.10;stroke-linecap:butt"/><path d="m177.4 411.14 1.64-.01 1.62.01 1.63.01 1.61.03 1.62.03 1.61.04 1.6.05 1.6.06 1.59.08 1.6.08 1.58.09 1.58.1 1.58.1 1.57.12 1.57.13 1.56.14 1.56.15 1.55.15 1.55.17 1.55.18 1.54.18 1.53.2 1.53.2 1.53.22 1.52.22 1.52.24 1.51.24 1.51.25 1.5.26 1.5.28 1.5.28 1.49.29 1.48.3 1.48.31 1.48.32 1.47.33 1.46.34 1.47.34 1.45.36 1.46.37 1.44.38 1.45.38 1.44.4 1.43.4 1.43.42 1.43.42 1.42.44 1.41.44 1.42.45 1.4.47 1.4.47 1.4.48 1.4.49 1.38.51 1.39.51 1.38.52 1.37.53 1.37.54 1.37.54 1.36.56 1.36.57 1.35.58 1.34.59 1.35.59 1.34.61 1.33.61 1.33.63 1.32.64 1.32.64 1.32.65 1.31.67 1.3.67 1.3.68 1.3.7 1.29.7 1.29.71 1.28.72 1.28.73 1.28.74 1.27.75 1.26.76 1.26.77 1.26.78 1.25.78 1.24.8 1.24.81 1.24.82 1.23.82 1.23.84 1.23.84 1.21.86 1.22.86 1.21.88 1.2.88 1.2.89 1.2.91 1.19.91 1.19.92 1.18.93M177.4 411.14l-1.36-.03-1.35-.03-1.36-.05-1.35-.05-1.34-.05-1.34-.07-1.34-.08-1.33-.08-1.33-.09-1.33-.1-1.32-.1-1.31-.12-1.31-.12-1.31-.13-1.31-.14-1.3-.14-1.29-.15-1.29-.17-1.29-.16-1.28-.18-1.28-.19-1.28-.19-1.27-.2-1.27-.21-1.26-.21-1.26-.23-1.25-.23-1.26-.24-1.24-.25-1.24-.25-1.24-.27-1.24-.27-1.23-.28-1.22-.29-1.23-.29-1.21-.3-1.22-.32-1.21-.31-1.2-.33-1.2-.34-1.2-.34-1.19-.35-1.19-.36-1.19-.36-1.18-.38-1.18-.38-1.17-.39-1.17-.4-1.16-.4-1.16-.42-1.16-.42-1.15-.43-1.15-.43-1.14-.45-1.14-.45-1.14-.46-1.13-.47-1.13-.48-1.12-.48-1.12-.49-1.12-.5-1.11-.51-1.11-.52-1.1-.52-1.1-.53-1.09-.54-1.09-.55-1.09-.56-1.08-.56-1.08-.57-1.08-.58-1.07-.59-1.06-.59-1.07-.6-1.05-.62-1.06-.61-1.05-.63-1.04-.63-1.04-.65-1.04-.65-1.04-.65-1.03-.67-1.02-.67-1.02-.69-1.02-.68-1.01-.7-1.01-.71-1.01-.71-1-.72-.99-.73-.99-.74-.99-.74-.99-.75-.98-.76-.97-.77-.98-.78-.96-.78-.97-.79-.96-.8m339.87 185.72 1.07.6 1.07.6 1.08.6 1.07.6 1.07.6 1.07.6 1.07.6 1.07.6 1.07.61 1.07.6 1.07.6 1.06.61 1.07.6 1.07.61 1.06.61 1.07.6 1.07.61 1.06.61 1.07.61 1.06.61 1.06.6 1.07.61 1.06.62 1.06.61 1.06.61 1.06.61 1.06.61 1.06.62 1.06.61 1.06.62 1.06.61 1.06.62 1.06.61 1.06.62 1.05.62 1.06.61 1.06.62 1.05.62 1.06.62 1.05.62 1.05.62 1.06.62 1.05.62 1.05.63 1.06.62 1.05.62 1.05.63 1.05.62 1.05.63 1.05.62 1.05.63 1.05.62 1.04.63 1.05.63 1.05.63 1.05.63 1.04.63 1.05.63 1.04.63 1.05.63 1.04.63 1.05.63 1.04.63 1.04.64 1.05.63 1.04.63 1.04.64 1.04.64 1.04.63 1.04.64 1.04.63 1.04.64 1.04.64 1.04.64 1.04.64 1.03.64 1.04.64 1.04.64 1.03.64 1.04.64 1.03.65 1.04.64 1.03.64 1.04.65 1.03.64 1.03.65 1.03.64 1.03.65 1.04.65 1.03.64 1.03.65 1.03.65 1.03.65 1.02.65 1.03.65 1.03.65 1.03.65 1.02.65 1.03.65m-103.92-61.92.5-1.1.5-1.1.52-1.1.51-1.1.52-1.09.53-1.09.53-1.08.54-1.09.54-1.08.54-1.07.56-1.08.55-1.07.57-1.07.56-1.07.58-1.06.57-1.06.59-1.06.59-1.06.59-1.05.6-1.05.6-1.05.61-1.04.61-1.04.62-1.04.63-1.04.63-1.03.63-1.03.64-1.03.65-1.03.65-1.02.65-1.02.66-1.02.67-1.01.67-1.01.68-1.01.68-1.01.68-1 .69-1 .7-1 .7-.99.71-1 .71-.99.72-.98.72-.99.73-.98.73-.98.74-.97.74-.98.75-.97.75-.96.76-.97.77-.96.77-.96.77-.96.78-.95.78-.95.79-.95.8-.94.8-.95.8-.94.81-.93.82-.94.82-.93.83-.93.83-.93.83-.92.84-.92.85-.92.85-.91.86-.92.86-.9.87-.91.87-.91.88-.9.88-.9.89-.89.89-.89.9-.9.9-.88.91-.89.91-.88.92-.88.93-.88.93-.87.93-.87.94-.87.94-.86.95-.87.96-.86.96-.85.96-.86.97-.85.98-.85.98-.85.99-.84.99-.84.99-.84 1.01-.83 1-.84m-74.59 95.79 1.33.09 1.33.1 1.33.1 1.33.09 1.33.1 1.34.1 1.33.09 1.33.1 1.33.1 1.33.09 1.33.1 1.33.1 1.33.09 1.33.1 1.34.1 1.33.09 1.33.1 1.33.1 1.33.09 1.33.1 1.33.1 1.33.09 1.33.1 1.34.1 1.33.09 1.33.1 1.33.1 1.33.09 1.33.1 1.33.1 1.33.09 1.33.1 1.34.09 1.33.1 1.33.1 1.33.09 1.33.1 1.33.1 1.33.09 1.33.1 1.33.1 1.34.09 1.33.1 1.33.1 1.33.09 1.33.1 1.33.1 1.33.09 1.33.1 1.33.1 1.34.09 1.33.1 1.33.1 1.33.09 1.33.1 1.33.1 1.33.09 1.33.1 1.33.1 1.34.09 1.33.1 1.33.1 1.33.09 1.33.1 1.33.1 1.33.09 1.33.1 1.33.09 1.34.1 1.33.1 1.33.09 1.33.1 1.33.1 1.33.09 1.33.1 1.33.1 1.34.09 1.33.1 1.33.1 1.33.09 1.33.1 1.33.1 1.33.09 1.33.1 1.33.1 1.34.09 1.33.1 1.33.1 1.33.09 1.33.1 1.33.1 1.33.09 1.33.1 1.33.1 1.34.09 1.33.1 1.33.1 1.33.09 1.33.1" style="stroke-width:1.07;stroke:#000000;stroke-opacity:0.10;stroke-linecap:butt"/><path d="m402.38 555.93.43-1.14.43-1.14.44-1.13.45-1.14.46-1.12.46-1.13.46-1.12.48-1.11.48-1.11.49-1.11.49-1.11.5-1.1.51-1.1.52-1.1.52-1.09.52-1.09.54-1.08.54-1.08.55-1.08.55-1.07.56-1.07.57-1.07.57-1.06.59-1.06.58-1.06.6-1.05.6-1.05.6-1.04.62-1.05.62-1.04.63-1.03.63-1.03.64-1.03.65-1.02.65-1.02.66-1.02.67-1.01.67-1.01.68-1.01.69-1 .69-1 .71-1 .7-.99.72-.99.72-.99.72-.98.74-.98.74-.97.74-.97.76-.97.76-.96.76-.96.78-.96.78-.95.78-.95.8-.95.8-.94.8-.94.82-.94.82-.93.82-.93.84-.92.84-.92.84-.92.86-.92.86-.91.86-.9.88-.91.87-.9.89-.89.89-.9.9-.89.91-.88.91-.89.92-.87.93-.88.93-.87.94-.87.95-.86.95-.87.96-.85.96-.86.98-.85.98-.85.98-.84.99-.84 1-.84 1.01-.83 1.01-.83 1.02-.82 1.03-.83 1.03-.81 1.04-.82 1.04-.81 1.06-.81 1.06-.8 1.06-.8 1.07-.8 1.08-.8m-78.45-102.87.69-.97.7-.96.69-.97.69-.96.69-.97.7-.96.69-.97.69-.96.69-.97.7-.96.69-.97.69-.96.69-.97.69-.96.7-.97.69-.96.69-.97.69-.96.7-.97.69-.96.69-.97.69-.96.7-.97.69-.96.69-.97.69-.96.7-.97.69-.96.69-.97.69-.96.7-.97.69-.96.69-.97.69-.96.7-.97.69-.96.69-.97.69-.96.7-.97.69-.96.69-.97.69-.96.7-.97.69-.96.69-.97.69-.96.7-.97.69-.96.69-.97.69-.96.7-.97.69-.96.69-.97.69-.96.7-.97.69-.96.69-.97.69-.96.7-.97.69-.96.69-.97.69-.96.7-.97.69-.96.69-.97.69-.96.7-.97.69-.96.69-.97.69-.96.7-.96.69-.97.69-.96.69-.97.7-.96.69-.97.69-.96.69-.97.7-.96.69-.97.69-.96.69-.97.7-.96.69-.97.69-.96.69-.97.7-.96.69-.97.69-.96.69-.97.7-.96.69-.97.69-.96.69-.97.69-.96.7-.97.69-.96.69-.97.69-.96m-68.55 95.53.87.99.87 1 .87 1 .86 1 .87 1.01.86 1 .86 1 .86 1.01.85 1 .86 1.01.85 1.01.86 1 .85 1.01.85 1.01.85 1.01.84 1.01.85 1.01.84 1.02.84 1.01.84 1.01.84 1.02.84 1.02.83 1.01.84 1.02.83 1.02.83 1.02.83 1.02.82 1.02.83 1.02.82 1.02.83 1.03.82 1.02.82 1.03.81 1.02.82 1.03.82 1.03.81 1.03.81 1.02.81 1.03.81 1.04.81 1.03.8 1.03.8 1.03.81 1.04.8 1.03.79 1.04.8 1.03.8 1.04.79 1.04.79 1.04.79 1.04.79 1.04.79 1.04.79 1.04.78 1.05.79 1.04.78 1.05.78 1.04.77 1.05.78 1.05.78 1.05.77 1.04.77 1.05.77 1.06.77 1.05.77 1.05.76 1.05.77 1.06.76 1.05.76 1.06.76 1.05.76 1.06.75 1.06.76 1.06.75 1.06.75 1.06.75 1.06.75 1.06.75 1.07.74 1.06.74 1.07.75 1.06.74 1.07.73 1.07.74 1.06.74 1.07.73 1.07.73 1.07.73 1.07.73 1.08.73 1.07.73 1.07.72 1.08.72 1.07.72 1.08.72 1.08.72 1.08.72 1.08.71 1.07m-78.45-102.87-.75 1.04-.75 1.05-.76 1.05-.75 1.05-.76 1.04-.76 1.05-.76 1.04-.76 1.05-.77 1.04-.76 1.04-.77 1.04-.77 1.04-.77 1.04-.77 1.04-.77 1.04-.77 1.03-.78 1.04-.78 1.03-.78 1.04-.78 1.03-.78 1.03-.78 1.03-.79 1.03-.79 1.03-.78 1.03-.79 1.03-.79 1.03-.8 1.02-.79 1.03-.8 1.02-.79 1.03-.8 1.02-.8 1.02-.81 1.02-.8 1.02-.8 1.02-.81 1.02-.81 1.02-.81 1.01-.81 1.02-.81 1.01-.82 1.02-.81 1.01-.82 1.01-.82 1.02-.82 1.01-.82 1.01-.83 1-.82 1.01-.83 1.01-.83 1.01-.82 1-.84 1.01-.83 1-.83 1-.84 1-.84 1.01-.83 1-.85 1-.84.99-.84 1-.85 1-.84.99-.85 1-.85.99-.85 1-.85.99-.86.99-.85.99-.86.99-.86.99-.86.99-.86.99-.87.98-.86.99-.87.98-.87.99-.86.98-.88.98-.87.98-.87.98-.88.98-.88.98-.87.98-.89.97-.88.98-.88.98-.89.97-.88.97-.89.98-.89.97-.89.97-.89.97-.9.97-.89.97-.9.96-.9.97-.9.97-.9.96" style="stroke-width:1.07;stroke:#000000;stroke-opacity:0.10;stroke-linecap:butt"/><path d="m398.52 357.27.95.95.94.96.94.96.94.97.94.96.93.97.93.97.92.97.93.97.92.97.91.97.91.98.91.98.91.98.9.98.9.98.9.99.9.98.89.99.88.99.89.99.88.99.88 1 .87.99.87 1 .87 1 .87 1 .86 1.01.86 1 .85 1.01.86 1 .85 1.01.84 1.01.85 1.02.84 1.01.83 1.02.84 1.02.83 1.01.82 1.03.83 1.02.82 1.02.82 1.03.81 1.03.81 1.03.81 1.03.81 1.03.8 1.03.8 1.04.79 1.04.8 1.04.78 1.04.79 1.04.78 1.04.78 1.05.78 1.05.77 1.05.77 1.05.77 1.05.77 1.05.76 1.06.75 1.06.76 1.05.75 1.07.75 1.06.74 1.06.74 1.07.74 1.06.74 1.07.73 1.07.73 1.08.72 1.07.73 1.08.72 1.07.71 1.08.72 1.08.71 1.09.7 1.08.71 1.09.7 1.08.69 1.09.7 1.09.69 1.09.69 1.1.68 1.09.68 1.1.68 1.1.68 1.1.67 1.1.67 1.11.66 1.1.67 1.11.66 1.11.65 1.11.65 1.11.65 1.11.65 1.12.64 1.12.64 1.11.64 1.12m-47.11-22.44-1.14.2-1.14.19-1.15.19-1.14.2-1.14.19-1.15.2-1.14.19-1.14.2-1.15.19-1.14.2-1.14.19-1.15.2-1.14.19-1.14.2-1.14.19-1.15.19-1.14.2-1.14.19-1.15.2-1.14.19-1.14.2-1.15.19-1.14.2-1.14.19-1.15.2-1.14.19-1.14.2-1.15.19-1.14.2-1.14.19-1.15.19-1.14.2-1.14.19-1.15.2-1.14.19-1.14.2-1.14.19-1.15.2-1.14.19-1.14.2-1.15.19-1.14.2-1.14.19-1.15.19-1.14.2-1.14.19-1.15.2-1.14.19-1.14.2-1.15.19-1.14.2-1.14.19-1.15.2-1.14.19-1.14.2-1.14.19-1.15.2-1.14.19-1.14.19-1.15.2-1.14.19-1.14.2-1.15.19-1.14.2-1.14.19-1.15.2-1.14.19-1.14.2-1.15.19-1.14.2-1.14.19-1.15.2-1.14.19-1.14.19-1.15.2-1.14.19-1.14.2-1.14.19-1.15.2-1.14.19-1.14.2-1.15.19-1.14.2-1.14.19-1.15.2-1.14.19-1.14.19-1.15.2-1.14.19-1.14.2-1.15.19-1.14.2-1.14.19-1.15.2-1.14.19-1.14.2-1.14.19-1.15.2-1.14.19" style="stroke-width:1.07;stroke:#000000;stroke-opacity:0.10;stroke-linecap:butt"/><path d="m429.86 437.7 1.47-.11 1.46-.11 1.46-.11 1.46-.11 1.47-.1 1.46-.11 1.46-.11 1.46-.11 1.47-.11 1.46-.11 1.46-.11 1.46-.11 1.47-.11 1.46-.1 1.46-.11 1.46-.11 1.47-.11 1.46-.11 1.46-.11 1.46-.11 1.47-.11 1.46-.11 1.46-.1 1.46-.11 1.47-.11 1.46-.11 1.46-.11 1.47-.11 1.46-.11 1.46-.11 1.46-.11 1.47-.1 1.46-.11 1.46-.11 1.46-.11 1.47-.11 1.46-.11 1.46-.11 1.46-.11 1.47-.11 1.46-.1 1.46-.11 1.46-.11 1.47-.11 1.46-.11 1.46-.11 1.46-.11 1.47-.11 1.46-.11 1.46-.1 1.46-.11 1.47-.11 1.46-.11 1.46-.11 1.46-.11 1.47-.11 1.46-.11 1.46-.11 1.47-.1 1.46-.11 1.46-.11 1.46-.11 1.47-.11 1.46-.11 1.46-.11 1.46-.11 1.47-.11 1.46-.1 1.46-.11 1.46-.11 1.47-.11 1.46-.11 1.46-.11 1.46-.11 1.47-.11 1.46-.11 1.46-.11 1.46-.1 1.47-.11 1.46-.11 1.46-.11 1.46-.11 1.47-.11 1.46-.11 1.46-.11 1.47-.11 1.46-.1 1.46-.11 1.46-.11 1.47-.11 1.46-.11 1.46-.11 1.46-.11 1.47-.11 1.46-.11 1.46-.1 1.46-.11 1.47-.11 1.46-.11M424.3 158.86l.43 1.03.43 1.04.44 1.04.43 1.04.43 1.04.43 1.04.43 1.04.44 1.04.43 1.04.43 1.04.43 1.04.43 1.04.44 1.04.43 1.03.43 1.04.43 1.04.43 1.04.44 1.04.43 1.04.43 1.04.43 1.04.43 1.04.44 1.04.43 1.04.43 1.04.43 1.03.44 1.04.43 1.04.43 1.04.43 1.04.43 1.04.44 1.04.43 1.04.43 1.04.43 1.04.43 1.04.44 1.04.43 1.04.43 1.03.43 1.04.43 1.04.44 1.04.43 1.04.43 1.04.43 1.04.43 1.04.44 1.04.43 1.04.43 1.04.43 1.04.43 1.04.44 1.03.43 1.04.43 1.04.43 1.04.44 1.04.43 1.04.43 1.04.43 1.04.43 1.04.44 1.04.43 1.04.43 1.04.43 1.03.43 1.04.44 1.04.43 1.04.43 1.04.43 1.04.43 1.04.44 1.04.43 1.04.43 1.04.43 1.04.43 1.04.44 1.04.43 1.03.43 1.04.43 1.04.44 1.04.43 1.04.43 1.04.43 1.04.43 1.04.44 1.04.43 1.04.43 1.04.43 1.04.43 1.03.44 1.04.43 1.04.43 1.04.43 1.04.43 1.04.44 1.04.43 1.04.43 1.04.43 1.04.43 1.04" style="stroke-width:1.07;stroke:#000000;stroke-opacity:0.10;stroke-linecap:butt"/><path d="m575.87 212.67-1.1.5-1.1.49-1.1.5-1.1.5-1.1.49-1.09.5-1.1.49-1.1.5-1.1.49-1.1.5-1.1.49-1.1.5-1.1.5-1.1.49-1.1.5-1.09.49-1.1.5-1.1.49-1.1.5-1.1.49-1.1.5-1.1.5-1.1.49-1.1.5-1.09.49-1.1.5-1.1.49-1.1.5-1.1.5-1.1.49-1.1.5-1.1.49-1.1.5-1.09.49-1.1.5-1.1.49-1.1.5-1.1.5-1.1.49-1.1.5-1.1.49-1.1.5-1.1.49-1.09.5-1.1.49-1.1.5-1.1.5-1.1.49-1.1.5-1.1.49-1.1.5-1.1.49-1.09.5-1.1.5-1.1.49-1.1.5-1.1.49-1.1.5-1.1.49-1.1.5-1.1.49-1.09.5-1.1.5-1.1.49-1.1.5-1.1.49-1.1.5-1.1.49-1.1.5-1.1.49-1.1.5-1.09.5-1.1.49-1.1.5-1.1.49-1.1.5-1.1.49-1.1.5-1.1.49-1.1.5-1.09.5-1.1.49-1.1.5-1.1.49-1.1.5-1.1.49-1.1.5-1.1.5-1.1.49-1.09.5-1.1.49-1.1.5-1.1.49-1.1.5-1.1.49-1.1.5-1.1.5-1.1.49-1.1.5m108.8-49.07.85-.66.85-.67.86-.67.85-.67.85-.66.85-.67.85-.67.86-.67.85-.66.85-.67.85-.67.85-.66.86-.67.85-.67.85-.67.85-.66.85-.67.86-.67.85-.67.85-.66.85-.67.85-.67.86-.66.85-.67.85-.67.85-.67.86-.66.85-.67.85-.67.85-.67.85-.66.86-.67.85-.67.85-.66.85-.67.85-.67.86-.67.85-.66.85-.67.85-.67.85-.67.86-.66.85-.67.85-.67.85-.66.86-.67.85-.67.85-.67.85-.66.85-.67.86-.67.85-.67.85-.66.85-.67.85-.67.86-.66.85-.67.85-.67.85-.67.85-.66.86-.67.85-.67.85-.67.85-.66.86-.67.85-.67.85-.66.85-.67.85-.67.86-.67.85-.66.85-.67.85-.67.85-.67.86-.66.85-.67.85-.67.85-.66.85-.67.86-.67.85-.67.85-.66.85-.67.85-.67.86-.67.85-.66.85-.67.85-.67.86-.66.85-.67.85-.67.85-.67.85-.66.86-.67.85-.67.85-.67.85-.66.85-.67.86-.67M177.4 411.14l1.67-.08 1.66-.06 1.66-.06 1.65-.04 1.64-.04 1.64-.02 1.64-.01h1.63l1.62.01 1.62.02 1.61.03 1.61.05 1.6.05 1.6.07 1.59.08 1.59.08 1.58.1 1.58.11 1.57.12 1.57.14 1.56.14 1.55.15 1.55.17 1.55.17 1.54.19 1.53.2 1.53.21 1.52.22 1.52.23 1.51.24 1.51.26 1.5.26 1.5.28 1.49.28 1.49.3 1.48.31 1.47.32 1.47.33 1.47.34 1.46.35 1.45.37 1.45.37 1.45.39 1.44.39 1.43.41 1.43.42 1.42.43 1.42.44 1.41.45 1.41.47 1.4.47 1.4.49 1.39.49 1.38.51 1.38.52 1.38.53 1.37.54 1.36.55 1.36.56 1.36.57 1.34.59 1.35.59 1.34.61 1.33.62 1.33.62 1.32.64 1.31.65 1.32.67 1.3.67 1.3.68 1.3.7 1.29.7 1.28.72 1.28.73 1.28.73 1.27.75 1.26.76 1.26.78 1.25.78 1.25.79 1.24.81 1.24.81 1.23.83 1.23.84 1.22.85 1.22.86 1.21.87 1.21.88 1.2.89 1.19.91 1.19.91 1.19.93 1.17.94 1.18.94 1.17.96 1.16.97 1.16.98 1.15 1 1.15 1M177.4 411.14l-1.39.03-1.39.03-1.38.01h-2.75l-1.37-.01-1.36-.03-1.36-.03-1.36-.04-1.35-.05-1.34-.06-1.34-.06-1.34-.08-1.33-.09-1.32-.09-1.33-.11-1.31-.11-1.31-.12-1.31-.13-1.3-.14-1.3-.15-1.29-.16-1.29-.17-1.29-.18-1.27-.18-1.28-.2-1.27-.2-1.26-.21-1.26-.23-1.26-.23-1.25-.24-1.24-.25-1.24-.26-1.24-.27-1.23-.27-1.23-.29-1.22-.29-1.22-.31-1.21-.31-1.21-.32-1.2-.34-1.2-.34-1.19-.35-1.19-.36-1.19-.36-1.18-.38-1.17-.39-1.17-.39-1.17-.41-1.16-.41-1.15-.42-1.15-.43-1.15-.45-1.14-.44-1.14-.46-1.13-.47-1.13-.48-1.12-.49-1.12-.49-1.11-.51-1.11-.51-1.1-.52-1.1-.53-1.1-.54-1.09-.55-1.08-.56-1.08-.57-1.08-.58-1.07-.58-1.06-.6-1.06-.6-1.06-.62-1.05-.62-1.05-.63-1.04-.64-1.04-.65-1.03-.66-1.03-.67-1.02-.68-1.02-.68-1.02-.7-1-.7-1.01-.72-1-.72-.99-.73-.99-.74-.99-.75-.98-.76-.98-.77-.97-.78-.96-.79-.97-.79-.95-.81-.96-.81-.94-.82-.95-.83-.93-.85-.94-.85-.93-.85m339.87 185.72-1.05-.89-1.05-.89-1.05-.9-1.04-.89-1.03-.9-1.04-.9-1.03-.9-1.02-.91-1.03-.9-1.01-.91-1.02-.91-1.01-.92-1-.91-1.01-.92-1-.92-.99-.92-.99-.93-.99-.93-.98-.92-.98-.94-.98-.93-.97-.94-.97-.94-.97-.94-.96-.94-.95-.94-.96-.95-.95-.95-.94-.95-.94-.96-.94-.95-.94-.96-.93-.96-.92-.97-.92-.96-.92-.97-.92-.97-.91-.97-.91-.98-.9-.98-.9-.98-.9-.98-.89-.98-.89-.99-.88-.98-.88-1-.88-.99-.87-.99-.87-1-.87-1-.86-1-.86-1.01-.85-1-.85-1.01-.85-1.01-.84-1.01-.84-1.02-.84-1.02-.83-1.02-.82-1.02-.83-1.02-.82-1.03-.81-1.03-.82-1.03-.8-1.03-.81-1.04-.8-1.04-.8-1.04-.79-1.04-.79-1.05-.78-1.04-.79-1.05-.77-1.05-.78-1.06-.77-1.05-.76-1.06-.77-1.06-.76-1.07-.75-1.06-.75-1.07-.75-1.07-.74-1.07-.74-1.07-.74-1.08-.73-1.08-.73-1.08-.72-1.08-.72-1.09-.72-1.09-.71-1.09-.71-1.09-.71-1.09-.7-1.1-.7-1.1-.69-1.1-.69-1.11-.69-1.1-.68-1.11-.68-1.11m85.69 98.96.35-1.18.37-1.18.37-1.17.38-1.16.39-1.17.39-1.16.41-1.15.41-1.15.42-1.14.43-1.14.44-1.14.44-1.13.46-1.13.46-1.12.47-1.12.47-1.12.49-1.11.49-1.1.51-1.11.51-1.09.51-1.1.53-1.09.53-1.08.55-1.08.55-1.08.56-1.07.56-1.06.58-1.07.58-1.06.59-1.05.6-1.05.61-1.05.61-1.04.63-1.03.63-1.04.64-1.02.65-1.03.65-1.02.67-1.01.67-1.01.68-1.01.69-1 .7-1 .7-.99.71-.99.72-.99.73-.98.74-.97.75-.98.75-.96.76-.97.77-.96.78-.95.78-.95.8-.95.8-.94.81-.93.82-.94.83-.93.83-.92.84-.92.85-.92.86-.91.87-.9.88-.91.88-.89.89-.9.9-.89.91-.88.91-.88.93-.88.93-.87.94-.87.95-.86.95-.86.97-.86.97-.85.98-.84.99-.85 1-.83 1-.84 1.02-.83 1.02-.82 1.03-.82 1.03-.82 1.05-.81 1.05-.81 1.07-.8 1.07-.8 1.07-.79 1.09-.79 1.09-.79 1.11-.78 1.11-.78 1.12-.77 1.12-.77 1.14-.76 1.14-.76 1.15-.76" style="stroke-width:1.07;stroke:#000000;stroke-opacity:0.10;stroke-linecap:butt"/><path d="m217.95 468.33 1-.11 1-.12 1-.11.99-.12 1-.11 1-.12 1-.11.99-.12 1-.11 1-.11 1-.12.99-.11 1-.12 1-.11.99-.12 1-.11 1-.12 1-.11.99-.12 1-.11 1-.12 1-.11.99-.12 1-.11 1-.12 1-.11.99-.12 1-.11 1-.12.99-.11 1-.11 1-.12 1-.11.99-.12 1-.11 1-.12 1-.11.99-.12 1-.11 1-.12.99-.11 1-.12 1-.11 1-.12.99-.11 1-.12 1-.11 1-.12.99-.11 1-.12 1-.11 1-.12.99-.11 1-.11 1-.12.99-.11 1-.12 1-.11 1-.12.99-.11 1-.12 1-.11 1-.12.99-.11 1-.12 1-.11.99-.12 1-.11 1-.12 1-.11.99-.12 1-.11 1-.12 1-.11.99-.11 1-.12 1-.11 1-.12.99-.11 1-.12 1-.11.99-.12 1-.11 1-.12 1-.11.99-.12 1-.11 1-.12 1-.11.99-.12 1-.11 1-.12.99-.11 1-.12 1-.11 1-.12.99-.11 1-.11 1-.12m-36.32 75.72.36-.77.37-.76.37-.77.36-.76.37-.77.37-.76.37-.77.36-.76.37-.77.37-.76.36-.77.37-.76.37-.77.36-.76.37-.76.37-.77.36-.76.37-.77.37-.76.36-.77.37-.76.37-.77.37-.76.36-.77.37-.76.37-.77.36-.76.37-.77.37-.76.36-.77.37-.76.37-.77.36-.76.37-.77.37-.76.36-.77.37-.76.37-.77.37-.76.36-.77.37-.76.37-.76.36-.77.37-.76.37-.77.36-.76.37-.77.37-.76.36-.77.37-.76.37-.77.37-.76.36-.77.37-.76.37-.77.36-.76.37-.77.37-.76.36-.77.37-.76.37-.77.36-.76.37-.77.37-.76.36-.77.37-.76.37-.77.37-.76.36-.76.37-.77.37-.76.36-.77.37-.76.37-.77.36-.76.37-.77.37-.76.36-.77.37-.76.37-.77.36-.76.37-.77.37-.76.37-.77.36-.76.37-.77.37-.76.36-.77.37-.76.37-.77.36-.76.37-.77.37-.76.36-.77.37-.76.37-.76.36-.77.37-.76.37-.77m-123.28 66.67 1.2-.73 1.19-.74 1.2-.73 1.2-.74 1.2-.73 1.2-.73 1.2-.73 1.2-.73 1.2-.72 1.21-.73 1.2-.72 1.21-.73 1.2-.72 1.21-.72 1.21-.72 1.21-.72 1.21-.71 1.22-.72 1.21-.71 1.21-.71 1.22-.71 1.22-.71 1.21-.71 1.22-.71 1.22-.71 1.22-.7 1.22-.7 1.23-.71 1.22-.7 1.22-.7 1.23-.7 1.23-.69 1.22-.7 1.23-.69 1.23-.69 1.23-.7 1.24-.69 1.23-.69 1.23-.68 1.24-.69 1.23-.69 1.24-.68 1.24-.68 1.24-.68 1.24-.68 1.24-.68 1.24-.68 1.24-.68 1.25-.67 1.24-.67 1.25-.68 1.25-.67 1.25-.67 1.25-.66 1.25-.67 1.25-.67 1.25-.66 1.25-.66 1.26-.67 1.25-.66 1.26-.66 1.26-.65 1.26-.66 1.25-.66 1.27-.65 1.26-.65 1.26-.65 1.26-.65 1.27-.65 1.26-.65 1.27-.65 1.27-.64 1.27-.64 1.27-.65 1.27-.64 1.27-.64 1.27-.64 1.28-.63 1.27-.64 1.28-.63 1.28-.64 1.27-.63 1.28-.63 1.28-.63 1.28-.63 1.29-.62 1.28-.63 1.28-.62 1.29-.62 1.29-.63 1.28-.62 1.29-.61 1.29-.62 1.29-.62 1.29-.61 1.3-.62 1.29-.61 1.29-.61 1.3-.61m-123.28 66.67-1.12.5-1.12.49-1.13.49-1.12.49-1.13.49-1.12.49-1.13.49-1.13.48-1.12.49-1.13.48-1.13.48-1.13.48-1.13.48-1.13.48-1.13.48-1.14.48-1.13.47-1.13.47-1.14.48-1.13.47-1.14.47-1.13.47-1.14.46-1.14.47-1.13.46-1.14.47-1.14.46-1.14.46-1.14.46-1.15.46-1.14.46-1.14.46-1.14.45-1.15.46-1.14.45-1.15.45-1.14.45-1.15.45-1.15.45-1.15.45-1.15.44-1.15.45-1.15.44-1.15.44-1.15.44-1.15.44-1.15.44-1.16.44-1.15.44-1.15.43-1.16.43-1.16.44-1.15.43-1.16.43-1.16.43-1.16.43-1.16.42-1.16.43-1.16.42-1.16.42-1.16.43-1.16.42-1.17.42-1.16.41-1.17.42-1.16.42-1.17.41-1.16.41-1.17.42-1.17.41-1.17.41-1.17.4-1.17.41-1.17.41-1.17.4-1.17.41-1.17.4-1.18.4-1.17.4-1.18.4-1.17.4-1.18.39-1.17.4-1.18.39-1.18.39-1.18.4-1.18.39-1.18.38-1.18.39-1.18.39-1.18.38-1.18.39-1.19.38-1.18.38-1.19.38-1.18.38-1.19.38-1.18.38-1.19.38" style="stroke-width:1.07;stroke:#000000;stroke-opacity:0.10;stroke-linecap:butt"/><path d="m398.52 352.12 4.45 7.72h-8.9zM177.4 403.25l6.84 11.84h-13.67zm224.98 145.6 6.13 10.62h-12.26zm-208.97-29.49 3.71 6.43h-7.42zm110.37-143.85 1.91 3.32h-3.83zm-63.45.15 1.91 3.32h-3.82zm189.53 59.83 1.92 3.32h-3.83zm-5.56-278.84 1.91 3.31h-3.83zm151.57 53.81 1.91 3.32h-3.83zM217.95 466.12l1.92 3.32h-3.83zm62.42 64.36 1.91 3.31h-3.83z" style="stroke-width:0.71;stroke:none;fill:#00BA38"/><circle cx="316.69" cy="456.97" r="6.76" style="stroke-width:0.71;stroke:none;fill:#F8766D"/><path d="M471.78 465.34h10.39v-10.39h-10.39zM57.44 375.28h10.15v-10.15H57.44z" style="stroke-width:0.71;stroke:none;fill:#619CFF"/><circle cx="326.52" cy="264.4" r="1.42" style="stroke-width:0.71;stroke:none;fill:#F8766D"/><path d="M76.33 569.46h5.51v-5.51h-5.51z" style="stroke-width:0.71;stroke:none;fill:#619CFF"/><circle cx="312.43" cy="640.59" r="1.42" style="stroke-width:0.71;stroke:none;fill:#F8766D"/><circle cx="375.02" cy="661.62" r="1.42" style="stroke-width:0.71;stroke:none;fill:#F8766D"/><circle cx="446.76" cy="653.11" r="1.42" style="stroke-width:0.71;stroke:none;fill:#F8766D"/><circle cx="506.3" cy="617.85" r="2.36" style="stroke-width:0.71;stroke:none;fill:#F8766D"/><circle cx="534.16" cy="565.49" r="1.42" style="stroke-width:0.71;stroke:none;fill:#F8766D"/><circle cx="467.07" cy="261.74" r="2.76" style="stroke-width:0.71;stroke:none;fill:#F8766D"/><path d="M573.24 428.34h2.84v-2.84h-2.84zm85.57-280.31h2.84v-2.84h-2.84z" style="stroke-width:0.71;stroke:none;fill:#619CFF"/><path d="m403.46 352.59-4.11 3.89m-217.04 50.03-4.07 3.84M397.2 560.62l4.32-3.92m-213.03-28.41 4.09-3.86m116.33-142.06-4.28-3.87m-69.53-5.37 4.38 3.97m185.12 55.82 4.41 4.01m-9.8-273.25 4.26-4.03m147.28 57.66 4.26-3.86M219.23 463.71l-.99 3.58m67.32 60.7-4.34 3.92m30.26-70.32 4.35-3.85m155.84 7.12 4.44-3.95M67.29 373.08l-3.76-2.26m257.79-101.8 4.34-3.85M76.45 571.39l2.1-3.73m228.64 68.28 4.38 3.88m68.17 27.99-4.04-5.3m76.32-14.08-4.4 3.92m63.87-39.1-4.33 3.84m32.2-56.22-4.34 3.85m-73.23-298.28 4.42-3.94m103.14 169.14 4.45-3.95m81.59-284.54 3.88 2.78" style="stroke-width:0.53;stroke:#BFBFBF"/><path d="M374.54 352.59h71.8-.09l.35-.01.34-.07.33-.13.3-.17.27-.22.23-.26.18-.29.14-.32.08-.34.03-.35h0v-7.02h0l-.03-.35-.08-.34-.14-.32-.18-.29-.23-.26-.27-.22-.3-.18-.33-.12-.34-.07-.26-.01h-71.8l.26.01-.35-.01-.35.04-.33.1-.31.15-.29.19-.25.24-.21.28-.16.31-.11.33-.06.34v7.2-.17.35l.06.34.11.33.16.31.21.28.25.24.29.19.31.15.33.1.35.04z" style="stroke-width:0.53;fill:#FFFFFF;fill-opacity:0.50"/><text x="410.44" y="348.99" lengthAdjust="spacingAndGlyphs" style="font-size:5.69px;font-family:&quot;Liberation Sans&quot;" text-anchor="middle" textLength="68.93">HASCO PROPERTIES LLC</text><path d="M156.31 406.51h66.21-.09l.35-.01.34-.07.32-.13.3-.17.27-.22.23-.26.19-.29.14-.32.08-.34.03-.35h0v-7.02h0l-.03-.35-.08-.34-.14-.32-.19-.29-.23-.26-.27-.22-.3-.18-.32-.12-.34-.07-.26-.01h-66.21l.26.01-.34-.01-.35.04-.33.1-.32.14-.28.2-.25.24-.21.28-.16.31-.11.33-.06.34-.01.18v7.02l.01-.17v.35l.06.34.11.33.16.31.21.27.25.25.28.19.32.15.33.1.35.04z" style="stroke-width:0.53;fill:#FFFFFF;fill-opacity:0.50"/><text x="189.41" y="402.91" lengthAdjust="spacingAndGlyphs" style="font-size:5.69px;font-family:&quot;Liberation Sans&quot;" text-anchor="middle" textLength="63.32">JRP INVESTMENTS LLC</text><path d="M360.7 580.16h49.77-.09l.35-.02.34-.07.33-.12.3-.17.27-.22.23-.26.18-.3.14-.32.08-.34.03-.34h0v-15.22h0l-.03-.35-.08-.34-.14-.32-.18-.29-.23-.26-.27-.22-.3-.18-.33-.12-.34-.07-.26-.01H360.7l.26.01-.35-.01-.34.04-.34.1-.31.15-.29.19-.25.24-.21.28-.16.31-.11.33-.05.34-.01.18V578l.01-.18v.35l.05.34.11.33.16.31.21.28.25.24.29.2.31.15.34.09.34.05z" style="stroke-width:0.53;fill:#FFFFFF;fill-opacity:0.50"/><text x="385.59" y="568.36" lengthAdjust="spacingAndGlyphs" style="font-size:5.69px;font-family:&quot;Liberation Sans&quot;" text-anchor="middle" textLength="40.65">GENEVATOWN</text><text x="385.59" y="576.56" lengthAdjust="spacingAndGlyphs" style="font-size:5.69px;font-family:&quot;Liberation Sans&quot;" text-anchor="middle" textLength="46.89">PROPERTIES LLC</text><path d="M146.93 539.63h68.95-.09l.35-.01.34-.07.32-.12.3-.18.27-.22.23-.26.19-.29.14-.32.08-.34.03-.35h0v-7.02h0l-.03-.35-.08-.34-.14-.32-.19-.29-.23-.26-.27-.22-.3-.17-.32-.13-.34-.07-.26-.01h-68.95l.26.01-.35-.01-.34.04-.34.1-.31.15-.29.19-.25.24-.21.28-.16.31-.11.33-.05.34-.01.18v7.02l.01-.17v.35l.05.34.11.33.16.31.21.28.25.24.29.19.31.15.34.1.34.04z" style="stroke-width:0.53;fill:#FFFFFF;fill-opacity:0.50"/><text x="181.4" y="536.03" lengthAdjust="spacingAndGlyphs" style="font-size:5.69px;font-family:&quot;Liberation Sans&quot;" text-anchor="middle" textLength="66.07">DNL INVESTMENTS LLC</text><path d="M283.22 401.91h74.71-.08l.34-.02.34-.07.33-.12.3-.18.27-.22.23-.26.18-.29.14-.32.08-.34.03-.34h0v-15.22h0l-.03-.35-.08-.34-.14-.32-.18-.29-.23-.26-.27-.22-.3-.18-.33-.12-.34-.07-.26-.01h-74.71l.26.01-.35-.01-.34.04-.34.1-.31.14-.29.2-.25.24-.21.28-.16.31-.11.33-.06.34v15.4-.18.35l.06.34.11.33.16.31.21.28.25.24.29.2.31.15.34.09.34.05z" style="stroke-width:0.53;fill:#FFFFFF;fill-opacity:0.50"/><text x="320.58" y="390.11" lengthAdjust="spacingAndGlyphs" style="font-size:5.69px;font-family:&quot;Liberation Sans&quot;" text-anchor="middle" textLength="71.83">GENEVATOWN PROPERTY</text><text x="320.58" y="398.31" lengthAdjust="spacingAndGlyphs" style="font-size:5.69px;font-family:&quot;Liberation Sans&quot;" text-anchor="middle" textLength="10.31">LLC</text><path d="M199.69 373.13h47.63-.09l.35-.01.34-.07.32-.13.3-.17.27-.22.23-.26.19-.29.13-.32.09-.34.03-.35h0v-15.22h0l-.03-.34-.09-.34-.13-.32-.19-.3-.23-.26-.27-.22-.3-.17-.32-.12-.34-.07-.26-.02h-47.63l.26.02-.35-.02-.34.05-.34.09-.31.15-.29.2-.25.24-.21.28-.16.31-.11.32-.06.35v15.39-.17.35l.06.34.11.33.16.31.21.28.25.24.29.19.31.15.34.1.34.04z" style="stroke-width:0.53;fill:#FFFFFF;fill-opacity:0.50"/><text x="223.5" y="361.34" lengthAdjust="spacingAndGlyphs" style="font-size:5.69px;font-family:&quot;Liberation Sans&quot;" text-anchor="middle" textLength="36.35">SILVER PROP</text><text x="223.5" y="369.53" lengthAdjust="spacingAndGlyphs" style="font-size:5.69px;font-family:&quot;Liberation Sans&quot;" text-anchor="middle" textLength="44.75">SOLUTIONS LLC</text><path d="M381.13 432.92h63.75-.09l.35-.01.34-.07.33-.12.3-.18.27-.22.23-.26.18-.29.14-.32.08-.34.03-.35h0v-15.22h0l-.03-.34-.08-.34-.14-.32-.18-.3-.23-.26-.27-.22-.3-.17-.33-.12-.34-.07-.26-.02h-63.75l.26.02-.35-.02-.34.05-.34.09-.31.15-.29.2-.25.24-.21.28-.16.31-.11.33-.05.34-.01.17v15.22l.01-.17v.35l.05.34.11.33.16.31.21.28.25.24.29.19.31.15.34.1.34.04z" style="stroke-width:0.53;fill:#FFFFFF;fill-opacity:0.50"/><text x="413" y="421.13" lengthAdjust="spacingAndGlyphs" style="font-size:5.69px;font-family:&quot;Liberation Sans&quot;" text-anchor="middle" textLength="60.87">NEW CENTURY HOME</text><text x="413" y="429.32" lengthAdjust="spacingAndGlyphs" style="font-size:5.69px;font-family:&quot;Liberation Sans&quot;" text-anchor="middle" textLength="27.53">CARE LLC</text><path d="M377.02 175.03h70.31-.08l.34-.02.34-.07.33-.12.3-.17.27-.22.23-.26.19-.3.13-.32.08-.34.03-.34h0v-7.03h0l-.03-.35-.08-.33-.13-.32-.19-.3-.23-.26-.27-.22-.3-.17-.33-.12-.34-.07-.26-.02h-70.31l.26.02-.35-.02-.34.04-.34.1-.31.15-.29.2-.25.24-.21.28-.16.3-.11.33-.06.35v7.2-.18.35l.06.35.11.32.16.31.21.28.25.24.29.2.31.15.34.09.34.05z" style="stroke-width:0.53;fill:#FFFFFF;fill-opacity:0.50"/><text x="412.17" y="171.43" lengthAdjust="spacingAndGlyphs" style="font-size:5.69px;font-family:&quot;Liberation Sans&quot;" text-anchor="middle" textLength="67.44">HASCO PROPERTIES LIC</text><path d="M532.53 236.85h53.32-.08l.34-.02.34-.07.33-.12.3-.18.27-.22.23-.26.19-.29.13-.32.09-.34.02-.34h0v-15.22h0l-.02-.35-.09-.34-.13-.32-.19-.29-.23-.26-.27-.22-.3-.18-.33-.12-.34-.07-.26-.01h-53.32l.26.01-.35-.01-.34.04-.34.1-.31.14-.29.2-.25.24-.21.28-.16.31-.11.33-.05.34-.01.18v15.22l.01-.18v.35l.05.34.11.33.16.31.21.28.25.24.29.2.31.15.34.09.34.05z" style="stroke-width:0.53;fill:#FFFFFF;fill-opacity:0.50"/><text x="559.19" y="225.05" lengthAdjust="spacingAndGlyphs" style="font-size:5.69px;font-family:&quot;Liberation Sans&quot;" text-anchor="middle" textLength="50.44">SILVER PROPERTY</text><text x="559.19" y="233.25" lengthAdjust="spacingAndGlyphs" style="font-size:5.69px;font-family:&quot;Liberation Sans&quot;" text-anchor="middle" textLength="44.75">SOLUTIONS LLC</text><path d="M192.61 463.71h53.32-.09l.35-.02.34-.06.33-.13.3-.17.27-.22.23-.26.18-.3.14-.32.08-.33.03-.35h0v-15.22h0l-.03-.35-.08-.33-.14-.32-.18-.3-.23-.26-.27-.22-.3-.17-.33-.13-.34-.07-.26-.01h-53.32l.26.01-.35-.01-.35.04-.33.1-.31.15-.29.2-.25.24-.21.27-.16.31-.11.33-.06.35v15.39-.17.34l.06.35.11.33.16.31.21.27.25.24.29.2.31.15.33.1.35.04z" style="stroke-width:0.53;fill:#FFFFFF;fill-opacity:0.50"/><text x="219.27" y="451.92" lengthAdjust="spacingAndGlyphs" style="font-size:5.69px;font-family:&quot;Liberation Sans&quot;" text-anchor="middle" textLength="50.44">SILVER PROPERTY</text><text x="219.27" y="460.11" lengthAdjust="spacingAndGlyphs" style="font-size:5.69px;font-family:&quot;Liberation Sans&quot;" text-anchor="middle" textLength="37.61">SOLUTIONS L</text><path d="M266.63 527.99h61.17-.09l.35-.02.34-.07.32-.12.3-.17.27-.22.23-.26.19-.3.14-.32.08-.33.03-.35h0v-15.22h0l-.03-.35-.08-.34-.14-.32-.19-.29-.23-.26-.27-.22-.3-.17-.32-.13-.34-.07-.26-.01h-61.17l.26.01-.35-.01-.35.04-.33.1-.31.15-.29.19-.25.24-.21.28-.16.31-.11.33-.06.34v15.4-.18.35l.06.35.11.33.16.3.21.28.25.24.29.2.31.15.33.1.35.04z" style="stroke-width:0.53;fill:#FFFFFF;fill-opacity:0.50"/><text x="297.21" y="516.19" lengthAdjust="spacingAndGlyphs" style="font-size:5.69px;font-family:&quot;Liberation Sans&quot;" text-anchor="middle" textLength="58.29">CMF PROPERTIES OF</text><text x="297.21" y="524.39" lengthAdjust="spacingAndGlyphs" style="font-size:5.69px;font-family:&quot;Liberation Sans&quot;" text-anchor="middle" textLength="33.16">WISCONSIN</text><path d="M257.59 489.33h75.34-.09l.35-.02.34-.07.32-.12.31-.17.26-.22.24-.26.18-.3.14-.32.08-.33.03-.35h0v-23.42h0l-.03-.34-.08-.34-.14-.32-.18-.29-.24-.26-.26-.22-.31-.18-.32-.12-.34-.07-.26-.02h-75.34l.26.02-.35-.01-.34.04-.34.09-.31.15-.29.2-.25.24-.21.28-.16.31-.11.33-.06.34v23.59-.17.34l.06.35.11.33.16.3.21.28.25.24.29.2.31.15.34.1.34.04z" style="stroke-width:0.53;fill:#FFFFFF;fill-opacity:0.50"/><text x="295.26" y="469.34" lengthAdjust="spacingAndGlyphs" style="font-size:5.69px;font-family:&quot;Liberation Sans&quot;" text-anchor="middle" textLength="72.46">1369 PORT WASHINGTON</text><text x="295.26" y="477.53" lengthAdjust="spacingAndGlyphs" style="font-size:5.69px;font-family:&quot;Liberation Sans&quot;" text-anchor="middle" textLength="50.26">RD, GRAFTON, WI</text><text x="295.26" y="485.73" lengthAdjust="spacingAndGlyphs" style="font-size:5.69px;font-family:&quot;Liberation Sans&quot;" text-anchor="middle" textLength="18.11">53024</text><path d="M417.76 492.59h75.34-.09l.35-.01.34-.07.33-.13.3-.17.27-.22.23-.26.18-.29.14-.32.08-.34.03-.35h0v-23.41h0l-.03-.35-.08-.34-.14-.32-.18-.29-.23-.26-.27-.22-.3-.17-.33-.13-.34-.07-.26-.01h-75.34l.26.01-.35-.01-.34.04-.34.1-.31.15-.29.19-.25.24-.21.28-.16.31-.11.33-.05.34-.01.18v23.41l.01-.17v.35l.05.34.11.33.16.31.21.28.25.24.29.19.31.15.34.1.34.04z" style="stroke-width:0.53;fill:#FFFFFF;fill-opacity:0.50"/><text x="455.43" y="472.6" lengthAdjust="spacingAndGlyphs" style="font-size:5.69px;font-family:&quot;Liberation Sans&quot;" text-anchor="middle" textLength="72.46">1369 PORT WASHINGTON</text><text x="455.43" y="480.8" lengthAdjust="spacingAndGlyphs" style="font-size:5.69px;font-family:&quot;Liberation Sans&quot;" text-anchor="middle" textLength="37.22">RD, APT 361,</text><text x="455.43" y="488.99" lengthAdjust="spacingAndGlyphs" style="font-size:5.69px;font-family:&quot;Liberation Sans&quot;" text-anchor="middle" textLength="58.23">GRAFTON, WI 53024</text><path d="M69.45 388.09h75.35l-.09-.01.35-.01.34-.07.32-.12.3-.18.27-.22.23-.26.19-.29.13-.32.09-.34.03-.34h0v-23.42h0l-.03-.35-.09-.33-.13-.32-.19-.3-.23-.26-.27-.22-.3-.17-.32-.13-.34-.06-.26-.02H69.45l.26.02-.34-.02-.35.04-.33.1-.32.15-.28.2-.25.24-.21.27-.16.31-.11.33-.06.35-.01.17v23.42l.01-.18v.35l.06.34.11.33.16.31.21.28.25.24.28.2.32.15.33.09.35.04z" style="stroke-width:0.53;fill:#FFFFFF;fill-opacity:0.50"/><text x="107.12" y="368.1" lengthAdjust="spacingAndGlyphs" style="font-size:5.69px;font-family:&quot;Liberation Sans&quot;" text-anchor="middle" textLength="72.46">1369 PORT WASHINGTON</text><text x="107.12" y="376.29" lengthAdjust="spacingAndGlyphs" style="font-size:5.69px;font-family:&quot;Liberation Sans&quot;" text-anchor="middle" textLength="62.2">RD, # 369, GRAFTON,</text><text x="107.12" y="384.49" lengthAdjust="spacingAndGlyphs" style="font-size:5.69px;font-family:&quot;Liberation Sans&quot;" text-anchor="middle" textLength="27.22">WI 53024</text><path d="M274.5 296.76h61.11l-.09-.01.35-.01.34-.07.33-.12.3-.18.27-.22.23-.26.18-.29.14-.32.08-.34.03-.34h0v-23.42h0l-.03-.35-.08-.33-.14-.32-.18-.3-.23-.26-.27-.22-.3-.17-.33-.12-.34-.07-.26-.02H274.5l.26.02-.34-.02-.35.04-.33.1-.32.15-.28.2-.25.24-.21.28-.16.3-.11.33-.06.35-.01.17v23.42l.01-.18v.35l.06.34.11.33.16.31.21.28.25.24.28.2.32.15.33.09.35.04z" style="stroke-width:0.53;fill:#FFFFFF;fill-opacity:0.50"/><text x="305.06" y="276.77" lengthAdjust="spacingAndGlyphs" style="font-size:5.69px;font-family:&quot;Liberation Sans&quot;" text-anchor="middle" textLength="37.28">1369 N PORT</text><text x="305.06" y="284.96" lengthAdjust="spacingAndGlyphs" style="font-size:5.69px;font-family:&quot;Liberation Sans&quot;" text-anchor="middle" textLength="47.1">WASINGTON RD,</text><text x="305.06" y="293.16" lengthAdjust="spacingAndGlyphs" style="font-size:5.69px;font-family:&quot;Liberation Sans&quot;" text-anchor="middle" textLength="58.23">GRAFTON, WI 53024</text><path d="M38.39 599.12h75.34-.08l.34-.01.34-.07.33-.12.3-.18.27-.22.23-.26.19-.29.13-.32.09-.34.02-.35h0v-23.41h0l-.02-.35-.09-.34-.13-.32-.19-.29-.23-.26-.27-.22-.3-.17-.33-.13-.34-.07-.26-.01H38.39l.26.01-.34-.01-.35.04-.33.1-.32.15-.28.19-.25.25-.21.27-.16.31-.11.33-.06.34-.01.18v23.41l.01-.17v.35l.06.34.11.33.16.31.21.28.25.24.28.19.32.15.33.1.35.04z" style="stroke-width:0.53;fill:#FFFFFF;fill-opacity:0.50"/><text x="76.06" y="579.14" lengthAdjust="spacingAndGlyphs" style="font-size:5.69px;font-family:&quot;Liberation Sans&quot;" text-anchor="middle" textLength="72.46">1369 PORT WASHINGTON</text><text x="76.06" y="587.33" lengthAdjust="spacingAndGlyphs" style="font-size:5.69px;font-family:&quot;Liberation Sans&quot;" text-anchor="middle" textLength="62.2">RD, # 361, GRAFTON,</text><text x="76.06" y="595.52" lengthAdjust="spacingAndGlyphs" style="font-size:5.69px;font-family:&quot;Liberation Sans&quot;" text-anchor="middle" textLength="27.22">WI 53024</text><path d="M259.73 635.94h62.41l-.09-.01.35-.01.34-.07.32-.12.3-.18.27-.22.23-.26.19-.29.13-.32.09-.34.03-.34h0v-23.42h0l-.03-.35-.09-.33-.13-.32-.19-.3-.23-.26-.27-.22-.3-.17-.32-.12-.34-.07-.26-.02h-62.41l.26.02-.35-.02-.35.04-.33.1-.31.15-.29.2-.25.24-.21.28-.16.3-.11.33-.06.35v23.59-.18.35l.06.34.11.33.16.31.21.28.25.24.29.2.31.15.33.09.35.04z" style="stroke-width:0.53;fill:#FFFFFF;fill-opacity:0.50"/><text x="290.93" y="615.95" lengthAdjust="spacingAndGlyphs" style="font-size:5.69px;font-family:&quot;Liberation Sans&quot;" text-anchor="middle" textLength="37.28">1369 N PORT</text><text x="290.93" y="624.14" lengthAdjust="spacingAndGlyphs" style="font-size:5.69px;font-family:&quot;Liberation Sans&quot;" text-anchor="middle" textLength="59.53">WASINGTON ROADU,</text><text x="290.93" y="632.34" lengthAdjust="spacingAndGlyphs" style="font-size:5.69px;font-family:&quot;Liberation Sans&quot;" text-anchor="middle" textLength="58.23">GRAFTON, WI 53024</text><path d="M381.9 683.73h61.18-.08l.34-.02.35-.07.32-.12.3-.17.27-.22.23-.26.19-.3.13-.32.09-.33.02-.35h0v-15.22h0l-.02-.35-.09-.34-.13-.32-.19-.29-.23-.26-.27-.22-.3-.17-.32-.13-.35-.07-.26-.01H381.9l.26.01-.35-.01-.34.04-.34.1-.31.15-.29.19-.25.24-.21.28-.16.31-.11.33-.05.34-.01.18v15.22l.01-.17v.34l.05.35.11.33.16.3.21.28.25.24.29.2.31.15.34.1.34.04z" style="stroke-width:0.53;fill:#FFFFFF;fill-opacity:0.50"/><text x="412.49" y="671.93" lengthAdjust="spacingAndGlyphs" style="font-size:5.69px;font-family:&quot;Liberation Sans&quot;" text-anchor="middle" textLength="58.31">1369 GRAFTON AVE,</text><text x="412.49" y="680.13" lengthAdjust="spacingAndGlyphs" style="font-size:5.69px;font-family:&quot;Liberation Sans&quot;" text-anchor="middle" textLength="58.23">GRAFTON, WI 53024</text><path d="M437.73 648.43h61.1-.08l.34-.01.34-.07.33-.12.3-.18.27-.22.23-.26.19-.29.13-.32.09-.34.02-.35h0v-23.41h0l-.02-.35-.09-.34-.13-.32-.19-.29-.23-.26-.27-.22-.3-.17-.33-.13-.34-.07-.26-.01h-61.1l.26.01-.35-.01-.34.04-.34.1-.31.15-.29.19-.25.25-.21.27-.16.31-.11.33-.06.34v23.59-.17.35l.06.34.11.33.16.31.21.28.25.24.29.19.31.15.34.1.34.04z" style="stroke-width:0.53;fill:#FFFFFF;fill-opacity:0.50"/><text x="468.28" y="628.45" lengthAdjust="spacingAndGlyphs" style="font-size:5.69px;font-family:&quot;Liberation Sans&quot;" text-anchor="middle" textLength="37.28">1369 N PORT</text><text x="468.28" y="636.64" lengthAdjust="spacingAndGlyphs" style="font-size:5.69px;font-family:&quot;Liberation Sans&quot;" text-anchor="middle" textLength="57.33">WASINGTON RD UN,</text><text x="468.28" y="644.83" lengthAdjust="spacingAndGlyphs" style="font-size:5.69px;font-family:&quot;Liberation Sans&quot;" text-anchor="middle" textLength="58.23">GRAFTON, WI 53024</text><path d="M490.07 613.25h75.34-.09l.35-.02.34-.06.33-.13.3-.17.27-.22.23-.26.18-.3.14-.32.08-.33.03-.35h0v-23.42h0l-.03-.34-.08-.34-.14-.32-.18-.29-.23-.26-.27-.22-.3-.18-.33-.12-.34-.07-.26-.02h-75.34l.26.02-.35-.01-.34.04-.34.09-.31.15-.29.2-.25.24-.21.28-.16.31-.11.33-.05.34-.01.17v23.42l.01-.17v.34l.05.35.11.33.16.3.21.28.25.24.29.2.31.15.34.1.34.04z" style="stroke-width:0.53;fill:#FFFFFF;fill-opacity:0.50"/><text x="527.74" y="593.26" lengthAdjust="spacingAndGlyphs" style="font-size:5.69px;font-family:&quot;Liberation Sans&quot;" text-anchor="middle" textLength="72.46">1369 PORT WASHINGTON</text><text x="527.74" y="601.46" lengthAdjust="spacingAndGlyphs" style="font-size:5.69px;font-family:&quot;Liberation Sans&quot;" text-anchor="middle" textLength="55.68">RD 3, GRAFTON, WI</text><text x="527.74" y="609.65" lengthAdjust="spacingAndGlyphs" style="font-size:5.69px;font-family:&quot;Liberation Sans&quot;" text-anchor="middle" textLength="18.11">53024</text><path d="M525.07 560.87h61.1-.08l.34-.01.35-.07.32-.13.3-.17.27-.22.23-.26.19-.29.13-.32.09-.34.02-.35h0V535.3h0l-.02-.35-.09-.34-.13-.32-.19-.29-.23-.26-.27-.22-.3-.18-.32-.12-.35-.07-.26-.01h-61.1l.26.01-.35-.01-.34.04-.34.1-.31.15-.29.19-.25.24-.21.28-.16.31-.11.33-.06.34v23.59-.17.35l.06.34.11.33.16.31.21.27.25.25.29.19.31.15.34.1.34.04z" style="stroke-width:0.53;fill:#FFFFFF;fill-opacity:0.50"/><text x="555.62" y="540.88" lengthAdjust="spacingAndGlyphs" style="font-size:5.69px;font-family:&quot;Liberation Sans&quot;" text-anchor="middle" textLength="37.28">1369 N PORT</text><text x="555.62" y="549.08" lengthAdjust="spacingAndGlyphs" style="font-size:5.69px;font-family:&quot;Liberation Sans&quot;" text-anchor="middle" textLength="52.52">WASINGTON RD S,</text><text x="555.62" y="557.27" lengthAdjust="spacingAndGlyphs" style="font-size:5.69px;font-family:&quot;Liberation Sans&quot;" text-anchor="middle" textLength="58.23">GRAFTON, WI 53024</text><path d="M414.98 294.17h61.11-.09l.35-.01.34-.07.32-.13.3-.17.27-.22.23-.26.19-.29.14-.32.08-.34.03-.35h0V268.6h0l-.03-.35-.08-.34-.14-.32-.19-.29-.23-.26-.27-.22-.3-.18-.32-.12-.34-.07-.26-.01h-61.11l.26.01-.35-.01-.34.04-.33.1-.32.15-.29.19-.25.24-.2.28-.17.31-.11.33-.05.34-.01.18v23.41l.01-.17v.35l.05.34.11.33.17.31.2.27.25.24.29.2.32.15.33.1.34.04z" style="stroke-width:0.53;fill:#FFFFFF;fill-opacity:0.50"/><text x="445.53" y="274.18" lengthAdjust="spacingAndGlyphs" style="font-size:5.69px;font-family:&quot;Liberation Sans&quot;" text-anchor="middle" textLength="37.28">1369 N PORT</text><text x="445.53" y="282.38" lengthAdjust="spacingAndGlyphs" style="font-size:5.69px;font-family:&quot;Liberation Sans&quot;" text-anchor="middle" textLength="56.15">WASINGTON RD 36,</text><text x="445.53" y="290.57" lengthAdjust="spacingAndGlyphs" style="font-size:5.69px;font-family:&quot;Liberation Sans&quot;" text-anchor="middle" textLength="58.23">GRAFTON, WI 53024</text><path d="M512.14 459.38h81.9-.08l.34-.02.34-.07.33-.12.3-.17.27-.22.23-.26.19-.3.13-.32.08-.34.03-.34h0V433.8h0l-.03-.34-.08-.34-.13-.32-.19-.3-.23-.26-.27-.22-.3-.17-.33-.12-.34-.07-.26-.02h-81.9l.26.02-.35-.02-.35.05-.33.09-.31.15-.29.2-.25.24-.21.28-.16.31-.11.33-.06.34v23.59-.18.35l.06.35.11.32.16.31.21.28.25.24.29.2.31.15.33.09.35.05z" style="stroke-width:0.53;fill:#FFFFFF;fill-opacity:0.50"/><text x="553.09" y="439.39" lengthAdjust="spacingAndGlyphs" style="font-size:5.69px;font-family:&quot;Liberation Sans&quot;" text-anchor="middle" textLength="79.03">W175N11117 STONEWOOD</text><text x="553.09" y="447.58" lengthAdjust="spacingAndGlyphs" style="font-size:5.69px;font-family:&quot;Liberation Sans&quot;" text-anchor="middle" textLength="37.1">DR, STE 206,</text><text x="553.09" y="455.78" lengthAdjust="spacingAndGlyphs" style="font-size:5.69px;font-family:&quot;Liberation Sans&quot;" text-anchor="middle" textLength="73.67">GERMANTOWN, WI 53022</text><path d="M577.89 154.23h75.34-.08l.35-.01.34-.07.32-.12.3-.18.27-.22.23-.26.19-.29.13-.32.09-.34.02-.35h0v-23.41h0l-.02-.35-.09-.34-.13-.32-.19-.29-.23-.26-.27-.22-.3-.17-.32-.13-.34-.07-.27-.01h-75.34l.26.01-.34-.01-.35.04-.33.1-.32.15-.28.2-.25.24-.21.27-.16.31-.11.33-.06.34-.01.18v23.41l.01-.17v.35l.06.34.11.33.16.31.21.28.25.24.28.2.32.14.33.1.35.04z" style="stroke-width:0.53;fill:#FFFFFF;fill-opacity:0.50"/><text x="615.56" y="134.25" lengthAdjust="spacingAndGlyphs" style="font-size:5.69px;font-family:&quot;Liberation Sans&quot;" text-anchor="middle" textLength="72.46">1369 PORT WASHINGTON</text><text x="615.56" y="142.44" lengthAdjust="spacingAndGlyphs" style="font-size:5.69px;font-family:&quot;Liberation Sans&quot;" text-anchor="middle" textLength="37.1">RD, STE 361,</text><text x="615.56" y="150.63" lengthAdjust="spacingAndGlyphs" style="font-size:5.69px;font-family:&quot;Liberation Sans&quot;" text-anchor="middle" textLength="58.23">GRAFTON, WI 53024</text></g><g clip-path="url(#cpMC4wMHw3MjAuMDB8MC4wMHw3MjAuMDA=)"><circle cx="266.24" cy="95.78" r="1.95" style="stroke-width:0.71;stroke:none;fill:#F8766D"/><path d="m342.59 92.74 2.63 4.56h-5.26z" style="stroke-width:0.71;stroke:none;fill:#00BA38"/><path d="M408.57 97.74h3.91v-3.91h-3.91z" style="stroke-width:0.71;stroke:none;fill:#619CFF"/><text x="280.36" y="98.81" lengthAdjust="spacingAndGlyphs" style="font-size:8.80px;font-family:&quot;Liberation Sans Narrow&quot;" textLength="48.12">mprop address</text><text x="356.71" y="98.81" lengthAdjust="spacingAndGlyphs" style="font-size:8.80px;font-family:&quot;Liberation Sans Narrow&quot;" textLength="39.69">owner name</text><text x="424.64" y="98.81" lengthAdjust="spacingAndGlyphs" style="font-size:8.80px;font-family:&quot;Liberation Sans Narrow&quot;" textLength="40.5">wdfi address</text><text x="32.63" y="64.23" lengthAdjust="spacingAndGlyphs" style="font-size:12.00px;font-family:&quot;Liberation Sans Narrow&quot;" textLength="256.98">includes 43 parcels, 52 units, and 11 distinct owner names.</text><text x="32.63" y="42.27" lengthAdjust="spacingAndGlyphs" style="font-size:18.00px;font-weight:bold;font-family:&quot;Liberation Sans Narrow&quot;" textLength="244.1">JRP INVESTMENTS LLC etc Group</text></g></svg>