<svg xmlns="http://www.w3.org/2000/svg" width="768" height="768" class="svglite" viewBox="0 0 576 576"><defs><style><![CDATA[.svglite line,.svglite polyline,.svglite polygon,.svglite path,.svglite circle{fill:none;stroke:#000000;stroke-linecap:round;stroke-linejoin:round;stroke-miterlimit:10.00}.svglite text{white-space:pre}]]></style></defs><rect width="100%" height="100%" style="stroke-linecap:round;stroke-linejoin:round;stroke-miterlimit:10.00;stroke:none;fill:#FFFFFF"/><defs><clipPath id="cpMC4wMHw1NzYuMDB8MC4wMHw1NzYuMDA="><path d="M0 0h576v576H0z"/></clipPath></defs><g clip-path="url(#cpMC4wMHw1NzYuMDB8MC4wMHw1NzYuMDA=)"><path d="M0 0h576v576H0z" style="stroke-width:1.07;stroke:none;fill:#FFFFFF"/></g><defs><clipPath id="cpMzIuNjN8NTQ2LjExfDEyMS43OHw1NDMuMzc="><path d="M32.63 121.78h513.48v421.59H32.63z"/></clipPath></defs><g clip-path="url(#cpMzIuNjN8NTQ2LjExfDEyMS43OHw1NDMuMzc=)"><path d="m140.42 350.97 1.37.68 1.38.69 1.37.68 1.37.68 1.37.69 1.38.68 1.37.68 1.37.69 1.37.68 1.38.68 1.37.68 1.37.69 1.37.68 1.38.68 1.37.69 1.37.68 1.37.68 1.38.69 1.37.68 1.37.68 1.37.68 1.38.69 1.37.68 1.37.68 1.37.69 1.38.68 1.37.68 1.37.69 1.37.68 1.38.68 1.37.69 1.37.68 1.37.68 1.38.68 1.37.69 1.37.68 1.37.68 1.38.69 1.37.68 1.37.68 1.37.69 1.38.68 1.37.68 1.37.69 1.37.68 1.38.68 1.37.68 1.37.69 1.37.68 1.38.68 1.37.69 1.37.68 1.37.68 1.38.69 1.37.68 1.37.68 1.37.68 1.38.69 1.37.68 1.37.68 1.37.69 1.38.68 1.37.68 1.37.69 1.37.68 1.38.68 1.37.69 1.37.68 1.37.68 1.38.68 1.37.69 1.37.68 1.37.68 1.38.69 1.37.68 1.37.68 1.37.69 1.38.68 1.37.68 1.37.69 1.37.68 1.38.68 1.37.68 1.37.69 1.37.68 1.38.68 1.37.69 1.37.68 1.37.68 1.38.69 1.37.68 1.37.68 1.37.68 1.38.69 1.37.68 1.37.68 1.37.69 1.38.68 1.37.68m77.77-100.83-.79 1.02-.78 1.02-.79 1.02-.78 1.01-.79 1.02-.78 1.02-.79 1.02-.78 1.02-.79 1.02-.79 1.01-.78 1.02-.79 1.02-.78 1.02-.79 1.02-.78 1.02-.79 1.02-.78 1.01-.79 1.02-.79 1.02-.78 1.02-.79 1.02-.78 1.02-.79 1.02-.78 1.01-.79 1.02-.78 1.02-.79 1.02-.79 1.02-.78 1.02-.79 1.02-.78 1.01-.79 1.02-.78 1.02-.79 1.02-.78 1.02-.79 1.02-.79 1.01-.78 1.02-.79 1.02-.78 1.02-.79 1.02-.78 1.02-.79 1.02-.78 1.01-.79 1.02-.79 1.02-.78 1.02-.79 1.02-.78 1.02-.79 1.02-.78 1.01-.79 1.02-.78 1.02-.79 1.02-.79 1.02-.78 1.02-.79 1.02-.78 1.01-.79 1.02-.78 1.02-.79 1.02-.78 1.02-.79 1.02-.79 1.01-.78 1.02-.79 1.02-.78 1.02-.79 1.02-.78 1.02-.79 1.02-.78 1.01-.79 1.02-.79 1.02-.78 1.02-.79 1.02-.78 1.02-.79 1.02-.78 1.01-.79 1.02-.79 1.02-.78 1.02-.79 1.02-.78 1.02-.79 1.02-.78 1.01-.79 1.02-.78 1.02-.79 1.02-.79 1.02-.78 1.02-.79 1.01-.78 1.02-.79 1.02-.78 1.02-.79 1.02-.78 1.02-.79 1.02-.79 1.01-.78 1.02M55.97 198.22l1.58.49 1.58.49 1.58.49 1.58.49 1.58.49 1.58.49 1.58.48 1.58.49 1.58.49 1.58.49 1.58.49 1.58.49 1.57.49 1.58.49 1.58.49 1.58.49 1.58.49 1.58.49 1.58.49 1.58.49 1.58.49 1.58.49 1.58.49 1.58.49 1.58.48 1.58.49 1.58.49 1.58.49 1.58.49 1.58.49 1.58.49 1.58.49 1.58.49 1.58.49 1.58.49 1.58.49 1.58.49 1.58.49 1.58.49 1.58.49 1.58.49 1.58.48 1.58.49 1.58.49 1.58.49 1.58.49 1.58.49 1.58.49 1.58.49 1.58.49 1.58.49 1.58.49 1.58.49 1.58.49 1.58.49 1.58.49 1.57.49 1.58.49 1.58.49 1.58.48 1.58.49 1.58.49 1.58.49 1.58.49 1.58.49 1.58.49 1.58.49 1.58.49 1.58.49 1.58.49 1.58.49 1.58.49 1.58.49 1.58.49 1.58.49 1.58.49 1.58.49 1.58.48 1.58.49 1.58.49 1.58.49 1.58.49 1.58.49 1.58.49 1.58.49 1.58.49 1.58.49 1.58.49 1.58.49 1.58.49 1.58.49 1.58.49 1.58.49 1.58.49 1.58.48 1.58.49 1.58.49 1.58.49 1.58.49m53.6-105.72-.54 1.07-.54 1.06-.54 1.07-.54 1.07-.55 1.07-.54 1.07-.54 1.06-.54 1.07-.54 1.07-.54 1.07-.54 1.06-.55 1.07-.54 1.07-.54 1.07-.54 1.07-.54 1.06-.54 1.07-.54 1.07-.55 1.07-.54 1.07-.54 1.06-.54 1.07-.54 1.07-.54 1.07-.54 1.07-.55 1.06-.54 1.07-.54 1.07-.54 1.07-.54 1.07-.54 1.06-.55 1.07-.54 1.07-.54 1.07-.54 1.07-.54 1.06-.54 1.07-.54 1.07-.55 1.07-.54 1.06-.54 1.07-.54 1.07-.54 1.07-.54 1.07-.54 1.06-.55 1.07-.54 1.07-.54 1.07-.54 1.07-.54 1.06-.54 1.07-.54 1.07-.55 1.07-.54 1.07-.54 1.06-.54 1.07-.54 1.07-.54 1.07-.55 1.07-.54 1.06-.54 1.07-.54 1.07-.54 1.07-.54 1.07-.54 1.06-.55 1.07-.54 1.07-.54 1.07-.54 1.06-.54 1.07-.54 1.07-.54 1.07-.55 1.07-.54 1.06-.54 1.07-.54 1.07-.54 1.07-.54 1.07-.54 1.06-.55 1.07-.54 1.07-.54 1.07-.54 1.07-.54 1.06-.54 1.07-.55 1.07-.54 1.07-.54 1.07-.54 1.06-.54 1.07-.54 1.07-.54 1.07-.55 1.07-.54 1.06-.54 1.07-.54 1.07-.54 1.07-.54 1.06-.54 1.07" style="stroke-width:1.07;stroke:#000000;stroke-opacity:0.10;stroke-linecap:butt"/><path d="m140.42 350.97.73-1.05.73-1.06.72-1.05.73-1.05.73-1.06.72-1.05.73-1.05.73-1.06.72-1.05.73-1.05.73-1.06.72-1.05.73-1.06.73-1.05.72-1.05.73-1.06.73-1.05.72-1.05.73-1.06.73-1.05.72-1.05.73-1.06.73-1.05.72-1.05.73-1.06.73-1.05.72-1.05.73-1.06.73-1.05.72-1.05.73-1.06.73-1.05.72-1.06.73-1.05.73-1.05.72-1.06.73-1.05.73-1.05.72-1.06.73-1.05.73-1.05.72-1.06.73-1.05.73-1.05.72-1.06.73-1.05.73-1.05.72-1.06.73-1.05.73-1.06.72-1.05.73-1.05.73-1.06.72-1.05.73-1.05.73-1.06.72-1.05.73-1.05.73-1.06.72-1.05.73-1.05.73-1.06.72-1.05.73-1.05.73-1.06.72-1.05.73-1.05.73-1.06.72-1.05.73-1.06.73-1.05.72-1.05.73-1.06.73-1.05.72-1.05.73-1.06.73-1.05.72-1.05.73-1.06.73-1.05.72-1.05.73-1.06.73-1.05.73-1.05.72-1.06.73-1.05.73-1.06.72-1.05.73-1.05.73-1.06.72-1.05.73-1.05.73-1.06.72-1.05.73-1.05.73-1.06.72-1.05.73-1.05.73-1.06m141.7 71.09 1.7-.11 1.71-.12 1.7-.11 1.71-.12 1.7-.11 1.7-.12 1.71-.11 1.7-.11 1.71-.12 1.7-.11 1.7-.12 1.71-.11 1.7-.11 1.71-.12 1.7-.11 1.7-.12 1.71-.11 1.7-.12 1.71-.11 1.7-.11 1.71-.12 1.7-.11 1.7-.12 1.71-.11 1.7-.11 1.71-.12 1.7-.11 1.7-.12 1.71-.11 1.7-.12 1.71-.11 1.7-.11 1.7-.12 1.71-.11 1.7-.12 1.71-.11 1.7-.12 1.7-.11 1.71-.11 1.7-.12 1.71-.11 1.7-.12 1.7-.11 1.71-.11 1.7-.12 1.71-.11 1.7-.12 1.7-.11 1.71-.12 1.7-.11 1.71-.11 1.7-.12 1.71-.11 1.7-.12 1.7-.11 1.71-.11 1.7-.12 1.71-.11 1.7-.12 1.7-.11 1.71-.12 1.7-.11 1.71-.11 1.7-.12 1.7-.11 1.71-.12 1.7-.11 1.71-.11 1.7-.12 1.7-.11 1.71-.12 1.7-.11 1.71-.12 1.7-.11 1.7-.11 1.71-.12 1.7-.11 1.71-.12 1.7-.11 1.7-.11 1.71-.12 1.7-.11 1.71-.12 1.7-.11 1.71-.12 1.7-.11 1.7-.11 1.71-.12 1.7-.11 1.71-.12 1.7-.11 1.7-.11 1.71-.12 1.7-.11 1.71-.12 1.7-.11 1.7-.12 1.71-.11 1.7-.11M284.39 524.21l-.08-1.07-.09-1.06-.08-1.07-.08-1.07-.08-1.06-.08-1.07-.08-1.07-.09-1.07-.08-1.06-.08-1.07-.08-1.07-.08-1.06-.08-1.07-.09-1.07-.08-1.06-.08-1.07-.08-1.07-.08-1.06-.08-1.07-.09-1.07-.08-1.06-.08-1.07-.08-1.07-.08-1.06-.08-1.07-.09-1.07-.08-1.07-.08-1.06-.08-1.07-.08-1.07-.08-1.06-.09-1.07-.08-1.07-.08-1.06-.08-1.07-.08-1.07-.08-1.06-.09-1.07-.08-1.07-.08-1.06-.08-1.07-.08-1.07-.09-1.06-.08-1.07-.08-1.07-.08-1.06-.08-1.07-.08-1.07-.09-1.07-.08-1.06-.08-1.07-.08-1.07-.08-1.06-.08-1.07-.09-1.07-.08-1.06-.08-1.07-.08-1.07-.08-1.06-.08-1.07-.09-1.07-.08-1.06-.08-1.07-.08-1.07-.08-1.06-.08-1.07-.09-1.07-.08-1.07-.08-1.06-.08-1.07-.08-1.07-.08-1.06-.09-1.07-.08-1.07-.08-1.06-.08-1.07-.08-1.07-.08-1.06-.09-1.07-.08-1.07-.08-1.06-.08-1.07-.08-1.07-.09-1.06-.08-1.07-.08-1.07-.08-1.06-.08-1.07-.08-1.07-.09-1.07-.08-1.06-.08-1.07-.08-1.07-.08-1.06-.08-1.07-.09-1.07-.08-1.06-.08-1.07-.08-1.07m77.77-100.83-1.43-.72-1.43-.72-1.43-.71-1.44-.72-1.43-.72-1.43-.72-1.43-.72-1.43-.71-1.43-.72-1.43-.72-1.43-.72-1.44-.72-1.43-.72-1.43-.71-1.43-.72-1.43-.72-1.43-.72-1.43-.72-1.44-.71-1.43-.72-1.43-.72-1.43-.72-1.43-.72-1.43-.71-1.43-.72-1.44-.72-1.43-.72-1.43-.72-1.43-.71-1.43-.72-1.43-.72-1.43-.72-1.43-.72-1.44-.71-1.43-.72-1.43-.72-1.43-.72-1.43-.72-1.43-.71-1.43-.72-1.44-.72-1.43-.72-1.43-.72-1.43-.71-1.43-.72-1.43-.72-1.43-.72-1.44-.72-1.43-.71-1.43-.72-1.43-.72-1.43-.72-1.43-.72-1.43-.72-1.43-.71-1.44-.72-1.43-.72-1.43-.72-1.43-.72-1.43-.71-1.43-.72-1.43-.72-1.44-.72-1.43-.72-1.43-.71-1.43-.72-1.43-.72-1.43-.72-1.43-.72-1.44-.71-1.43-.72-1.43-.72-1.43-.72-1.43-.72-1.43-.71-1.43-.72-1.43-.72-1.44-.72-1.43-.72-1.43-.71-1.43-.72-1.43-.72-1.43-.72-1.43-.72-1.44-.71-1.43-.72-1.43-.72-1.43-.72-1.43-.72-1.43-.71-1.43-.72-1.43-.72-1.44-.72-1.43-.72-1.43-.72-1.43-.71-1.43-.72-1.43-.72-1.43-.72" style="stroke-width:1.07;stroke:#000000;stroke-opacity:0.10;stroke-linecap:butt"/><path d="m140.42 343.97 6.06 10.5h-12.12zm213.65-35.19 7.78 13.47h-15.56zM55.97 196.01l1.91 3.31h-3.83zm210-57.27 1.92 3.31h-3.83zM284.39 522l1.91 3.31h-3.83z" style="stroke-width:0.71;stroke:none;fill:#00BFC4"/><circle cx="276.3" cy="418.59" r="5.78" style="stroke-width:0.71;stroke:none;fill:#F8766D"/><circle cx="212.37" cy="246.67" r="6.76" style="stroke-width:0.71;stroke:none;fill:#F8766D"/><circle cx="522.77" cy="306.46" r="1.42" style="stroke-width:0.71;stroke:none;fill:#F8766D"/><path d="m135.09 355.57 4.45-3.84m219.94-38.64-4.53 3.91m-94.12-171.42 4.28-3.86m24.4 377.87-4.26 3.85m-3.51-109.45-4.55 3.85m-59.4-175.76-4.54 3.84m304.69 62.01 3.64-1.11" style="stroke-width:0.53;stroke:#BFBFBF"/><path d="M96.74 375.04h52.48-.09l.35-.01.34-.07.32-.13.3-.17.27-.22.23-.26.19-.29.13-.32.09-.34.03-.35h0v-15.15h0l-.03-.35-.09-.34-.13-.32-.19-.29-.23-.26-.27-.22-.3-.18-.32-.12-.34-.07-.26-.01H96.74l.26.01-.34-.01-.35.04-.33.1-.32.15-.28.19-.25.24-.21.28-.17.31-.11.33-.05.34-.01.18v15.15l.01-.17v.35l.05.34.11.33.17.31.21.28.25.24.28.19.32.15.33.1.35.04z" style="stroke-width:0.53;fill:#FFFFFF;fill-opacity:0.50"/><text x="122.98" y="363.25" lengthAdjust="spacingAndGlyphs" style="font-size:5.69px;font-family:&quot;Arial&quot;" text-anchor="middle" textLength="49.59">JUDY A KONRATH</text><text x="122.98" y="371.44" lengthAdjust="spacingAndGlyphs" style="font-size:5.69px;font-family:&quot;Arial&quot;" text-anchor="middle" textLength="40.44">IRREVOCABLE</text><path d="M345.36 313.09h52.47-.08l.34-.02.35-.07.32-.12.3-.17.27-.22.23-.26.19-.3.13-.32.09-.33.02-.35h0v-15.16h0l-.02-.34-.09-.34-.13-.32-.19-.29-.23-.26-.27-.22-.3-.18-.32-.12-.35-.07-.26-.02h-52.47l.26.02-.35-.02-.34.05-.33.09-.32.15-.29.2-.25.24-.2.28-.17.31-.11.33-.05.34-.01.17v15.16l.01-.17v.34l.05.35.11.33.17.3.2.28.25.24.29.2.32.15.33.1.34.04z" style="stroke-width:0.53;fill:#FFFFFF;fill-opacity:0.50"/><text x="371.6" y="301.3" lengthAdjust="spacingAndGlyphs" style="font-size:5.69px;font-family:&quot;Arial&quot;" text-anchor="middle" textLength="49.59">JUDY A KONRATH</text><text x="371.6" y="309.49" lengthAdjust="spacingAndGlyphs" style="font-size:5.69px;font-family:&quot;Arial&quot;" text-anchor="middle" textLength="45.5">IRREVOCABLE T</text><path d="M62.96 208.24h65.43-.09l.35-.01.34-.07.33-.13.3-.17.27-.22.23-.26.18-.3.14-.32.08-.33.03-.35h0v-15.16h0l-.03-.34-.08-.34-.14-.32-.18-.29-.23-.26-.27-.22-.3-.18-.33-.12-.34-.07-.26-.02H62.96l.26.02-.34-.01-.35.04-.33.09-.32.15-.28.2-.25.24-.21.28-.16.31-.11.33-.06.34-.01.17v15.16l.01-.17v.34l.06.35.11.33.16.31.21.27.25.24.28.2.32.15.33.1.35.04z" style="stroke-width:0.53;fill:#FFFFFF;fill-opacity:0.50"/><text x="95.68" y="196.45" lengthAdjust="spacingAndGlyphs" style="font-size:5.69px;font-family:&quot;Arial&quot;" text-anchor="middle" textLength="62.55">THE JUDY A KONRATH</text><text x="95.68" y="204.64" lengthAdjust="spacingAndGlyphs" style="font-size:5.69px;font-family:&quot;Arial&quot;" text-anchor="middle" textLength="33.49">IRREVOCAB</text><path d="M227.89 156.86h51.21-.09l.35-.02.34-.07.33-.12.3-.17.27-.22.23-.26.18-.3.14-.32.08-.33.03-.35h0v-6.96h0l-.03-.35-.08-.34-.14-.32-.18-.29-.23-.26-.27-.22-.3-.17-.33-.13-.34-.07-.26-.01h-51.21l.26.01-.35-.01-.35.04-.33.1-.31.15-.29.19-.25.25-.21.27-.16.31-.11.33-.06.34v7.14-.17.34l.06.35.11.33.16.3.21.28.25.24.29.2.31.15.33.1.35.04z" style="stroke-width:0.53;fill:#FFFFFF;fill-opacity:0.50"/><text x="253.49" y="153.26" lengthAdjust="spacingAndGlyphs" style="font-size:5.69px;font-family:&quot;Arial&quot;" text-anchor="middle" textLength="48.33">LANCE KONRATH</text><path d="M263.83 519.59h66.06-.09l.35-.01.34-.07.32-.13.3-.17.27-.22.23-.26.19-.29.14-.32.08-.34.03-.35h0v-6.96h0l-.03-.35-.08-.33-.14-.32-.19-.3-.23-.26-.27-.22-.3-.17-.32-.12-.34-.07-.26-.02h-66.06l.26.02-.34-.02-.35.04-.33.1-.32.15-.28.2-.25.24-.21.28-.16.3-.11.33-.06.35-.01.17v6.96l.01-.17v.35l.06.34.11.33.16.31.21.28.25.24.28.19.32.15.33.1.35.04z" style="stroke-width:0.53;fill:#FFFFFF;fill-opacity:0.50"/><text x="296.86" y="515.99" lengthAdjust="spacingAndGlyphs" style="font-size:5.69px;font-family:&quot;Arial&quot;" text-anchor="middle" textLength="63.17">JUDY A KONRATH TOD</text><path d="M262.71 413.99h72.07l-.09-.01.35-.01.34-.07.32-.12.3-.18.27-.22.23-.26.19-.29.13-.32.09-.34.03-.34h0v-23.36h0l-.03-.34-.09-.34-.13-.32-.19-.29-.23-.26-.27-.22-.3-.18-.32-.12-.34-.07-.26-.02h-72.07l.26.02-.35-.01-.34.04-.33.1-.32.14-.28.2-.26.24-.2.28-.17.31-.11.33-.05.34-.01.17v23.36l.01-.18v.35l.05.34.11.33.17.31.2.28.26.24.28.2.32.15.33.09.34.04z" style="stroke-width:0.53;fill:#FFFFFF;fill-opacity:0.50"/><text x="298.74" y="394" lengthAdjust="spacingAndGlyphs" style="font-size:5.69px;font-family:&quot;Arial&quot;" text-anchor="middle" textLength="61.28">N68W20963 HI MOUNT</text><text x="298.74" y="402.19" lengthAdjust="spacingAndGlyphs" style="font-size:5.69px;font-family:&quot;Arial&quot;" text-anchor="middle" textLength="69.18">CT, MENOMONEE FALLS,</text><text x="298.74" y="410.39" lengthAdjust="spacingAndGlyphs" style="font-size:5.69px;font-family:&quot;Arial&quot;" text-anchor="middle" textLength="24.33">WI 53051</text><path d="M198.77 242.08h72.07-.09l.35-.01.34-.07.33-.12.3-.18.27-.22.23-.26.18-.29.14-.32.08-.34.03-.35h0v-23.35h0l-.03-.34-.08-.34-.14-.32-.18-.29-.23-.26-.27-.22-.3-.18-.33-.12-.34-.07-.26-.02h-72.07l.26.02-.34-.01-.35.04-.33.09-.32.15-.28.2-.25.24-.21.28-.16.31-.11.33-.06.34-.01.17v23.35l.01-.17v.35l.06.34.11.33.16.31.21.28.25.24.28.2.32.14.33.1.35.04z" style="stroke-width:0.53;fill:#FFFFFF;fill-opacity:0.50"/><text x="234.81" y="222.1" lengthAdjust="spacingAndGlyphs" style="font-size:5.69px;font-family:&quot;Arial&quot;" text-anchor="middle" textLength="61.6">N68W20963 HI-MOUNT</text><text x="234.81" y="230.29" lengthAdjust="spacingAndGlyphs" style="font-size:5.69px;font-family:&quot;Arial&quot;" text-anchor="middle" textLength="69.18">CT, MENOMONEE FALLS,</text><text x="234.81" y="238.48" lengthAdjust="spacingAndGlyphs" style="font-size:5.69px;font-family:&quot;Arial&quot;" text-anchor="middle" textLength="24.33">WI 53051</text><path d="M458.88 317.79h56.9l-.09-.01.35-.01.34-.07.33-.12.3-.18.27-.22.23-.26.18-.29.14-.32.08-.34.03-.34h0v-15.16h0l-.03-.35-.08-.33-.14-.32-.18-.3-.23-.26-.27-.22-.3-.17-.33-.13-.34-.06-.26-.02h-56.9l.26.02-.35-.02-.34.04-.34.1-.31.15-.29.2-.25.24-.21.27-.16.31-.11.33-.05.35-.01.17v15.16l.01-.18v.35l.05.34.11.33.16.31.21.28.25.24.29.2.31.15.34.09.34.04z" style="stroke-width:0.53;fill:#FFFFFF;fill-opacity:0.50"/><text x="487.33" y="305.99" lengthAdjust="spacingAndGlyphs" style="font-size:5.69px;font-family:&quot;Arial&quot;" text-anchor="middle" textLength="54.02">227 TAMARACK RD,</text><text x="487.33" y="314.19" lengthAdjust="spacingAndGlyphs" style="font-size:5.69px;font-family:&quot;Arial&quot;" text-anchor="middle" textLength="50.56">SUSSEX, WI 53089</text></g><g clip-path="url(#cpMC4wMHw1NzYuMDB8MC4wMHw1NzYuMDA=)"><circle cx="231.34" cy="96.71" r="1.95" style="stroke-width:0.71;stroke:none;fill:#F8766D"/><path d="m307.7 93.67 2.63 4.56h-5.26z" style="stroke-width:0.71;stroke:none;fill:#00BFC4"/><text x="245.46" y="99.86" lengthAdjust="spacingAndGlyphs" style="font-size:8.80px;font-family:&quot;Arial Narrow&quot;" textLength="48.12">mprop address</text><text x="321.82" y="99.86" lengthAdjust="spacingAndGlyphs" style="font-size:8.80px;font-family:&quot;Arial Narrow&quot;" textLength="39.69">owner name</text><text x="32.63" y="65.12" lengthAdjust="spacingAndGlyphs" style="font-size:12.00px;font-family:&quot;Arial Narrow&quot;" textLength="246.76">includes 8 parcels, 13 units, and 5 distinct owner names.</text><text x="32.63" y="42.78" lengthAdjust="spacingAndGlyphs" style="font-size:18.00px;font-weight:bold;font-family:&quot;Arial Narrow&quot;" textLength="302.61">JUDY A KONRATH IRREVOCABLE T Group</text></g></svg>