<svg xmlns="http://www.w3.org/2000/svg" width="768" height="768" class="svglite" viewBox="0 0 576 576"><defs><style><![CDATA[.svglite line,.svglite polyline,.svglite polygon,.svglite path,.svglite circle{fill:none;stroke:#000000;stroke-linecap:round;stroke-linejoin:round;stroke-miterlimit:10.00}.svglite text{white-space:pre}]]></style></defs><rect width="100%" height="100%" style="stroke-linecap:round;stroke-linejoin:round;stroke-miterlimit:10.00;stroke:none;fill:#FFFFFF"/><defs><clipPath id="cpMC4wMHw1NzYuMDB8MC4wMHw1NzYuMDA="><path d="M0 0h576v576H0z"/></clipPath></defs><g clip-path="url(#cpMC4wMHw1NzYuMDB8MC4wMHw1NzYuMDA=)"><path d="M0 0h576v576H0z" style="stroke-width:1.07;stroke:none;fill:#FFFFFF"/></g><defs><clipPath id="cpMzIuNjN8NTQ2LjExfDEyMi4xNHw1NDMuMzc="><path d="M32.63 122.14h513.48v421.24H32.63z"/></clipPath></defs><g clip-path="url(#cpMzIuNjN8NTQ2LjExfDEyMi4xNHw1NDMuMzc=)"><path d="m264.58 385.9.08-1.28.06-1.27.06-1.27.05-1.27.05-1.27.03-1.27.03-1.27.02-1.27.02-1.27v-3.8l-.02-1.27-.02-1.26-.03-1.26-.04-1.27-.04-1.26-.05-1.26-.06-1.26-.07-1.26-.07-1.26-.09-1.26-.08-1.26-.1-1.26-.1-1.25-.11-1.26-.12-1.26-.13-1.25-.13-1.26-.14-1.25-.15-1.25-.15-1.25-.17-1.26-.16-1.25-.18-1.25-.19-1.25-.19-1.24-.2-1.25-.2-1.25-.22-1.25-.22-1.24-.23-1.25-.23-1.24-.24-1.25-.26-1.24-.25-1.24-.27-1.24-.27-1.24-.28-1.24-.29-1.24-.29-1.24-.3-1.24-.31-1.24-.32-1.23-.32-1.24-.34-1.24-.33-1.23-.35-1.23-.35-1.24-.36-1.23-.37-1.23-.38-1.23-.38-1.23-.39-1.23-.4-1.23-.4-1.23-.42-1.23-.42-1.23-.42-1.22-.44-1.23-.44-1.22-.45-1.23-.45-1.22-.47-1.22-.47-1.23-.48-1.22-.48-1.22-.5-1.22-.5-1.22-.51-1.22-.51-1.22-.52-1.21-.53-1.22-.54-1.22-.55-1.21-.55-1.22-.56-1.21-.56-1.21-.58-1.22-.58-1.21-.59-1.21-.59-1.21-.61-1.21-.61-1.21-.62-1.21-.62-1.2-.64-1.21-.64-1.21-.64-1.2m28.43 122.72-1.68-1.29-1.69-1.29-1.7-1.27-1.71-1.27-1.72-1.26-1.72-1.25-1.74-1.24-1.74-1.23-1.75-1.22-1.76-1.22-1.77-1.21-1.78-1.2-1.79-1.19-1.79-1.18-1.81-1.17-1.81-1.16-1.82-1.16-1.83-1.15-1.84-1.14-1.85-1.13-1.85-1.12-1.87-1.11-1.87-1.11-1.88-1.1-1.9-1.08-1.89-1.08-1.91-1.07-1.92-1.07-1.92-1.05-1.94-1.05-1.94-1.03-1.95-1.03-1.96-1.02-1.97-1.01-1.98-1.01-1.98-.99-2-.99-2-.98-2.01-.97-2.02-.96-2.03-.95-2.04-.94-2.05-.94-2.05-.92-2.07-.92-2.07-.91-2.08-.9-2.09-.9-2.1-.88-2.11-.88-2.11-.86-2.13-.86-2.13-.85-2.14-.85-2.15-.83-2.16-.82-2.17-.82-2.18-.81-2.18-.8-2.2-.79-2.2-.78-2.21-.77-2.22-.77-2.23-.76-2.23-.75-2.25-.74-2.26-.73-2.26-.72-2.27-.71-2.28-.71-2.29-.7-2.3-.69-2.3-.68-2.32-.67-2.32-.66-2.34-.66-2.34-.64-2.35-.64-2.35-.63-2.37-.62-2.38-.62-2.38-.6-2.39-.6-2.41-.58-2.41-.58-2.42-.57-2.42-.56-2.44-.56-2.45-.54-2.45-.54-2.46-.52-2.47-.52-2.48-.51-2.49-.51-2.5-.49-2.5-.49-2.52-.47-2.52-.47-2.53-.46" style="stroke-width:1.07;stroke:#000000;stroke-opacity:0.10;stroke-linecap:butt"/><path d="m264.58 385.9-.16-1.25-.17-1.25-.18-1.25-.17-1.26-.18-1.25-.18-1.24-.18-1.25-.18-1.25-.19-1.25-.19-1.25-.19-1.25-.19-1.25-.2-1.25-.2-1.24-.2-1.25-.2-1.25-.21-1.25-.21-1.24-.21-1.25-.21-1.25-.22-1.24-.22-1.25-.22-1.25-.22-1.24-.23-1.25-.23-1.24-.23-1.25-.23-1.24-.24-1.25-.24-1.24-.24-1.24-.24-1.25-.25-1.24-.24-1.24-.25-1.25-.26-1.24-.25-1.24-.26-1.25-.26-1.24-.26-1.24-.27-1.24-.27-1.24-.27-1.24-.27-1.24-.27-1.25-.28-1.24-.28-1.24-.28-1.24-.29-1.24-.29-1.24-.28-1.24-.3-1.23-.29-1.24-.3-1.24-.3-1.24-.3-1.24-.3-1.24-.31-1.23-.31-1.24-.31-1.24-.32-1.24-.31-1.23-.32-1.24-.32-1.24-.33-1.23-.32-1.24-.33-1.23-.33-1.24-.34-1.23-.33-1.24-.34-1.23-.34-1.24-.35-1.23-.34-1.24-.35-1.23-.35-1.23-.36-1.24-.35-1.23-.36-1.23-.36-1.24-.37-1.23-.36-1.23-.37-1.23-.37-1.23-.37-1.24-.38-1.23-.38-1.23-.38-1.23-.38-1.23-.39-1.23-.38-1.23-.39-1.23-.4-1.23-.39-1.23-.4-1.23-.4-1.23-.4-1.23-.41-1.22-.4-1.23m28.43 122.72-1.85-1.13-1.86-1.12-1.86-1.11-1.87-1.11-1.87-1.11-1.88-1.1-1.88-1.09-1.89-1.09-1.9-1.09-1.9-1.08-1.9-1.07-1.91-1.07-1.92-1.07-1.92-1.06-1.92-1.05-1.93-1.05-1.94-1.04-1.94-1.04-1.94-1.04-1.96-1.02-1.95-1.03-1.96-1.02-1.97-1.01-1.97-1.01-1.98-1-1.98-1-1.99-.99-1.99-.99-2-.98-2-.98-2.01-.97-2.02-.97-2.02-.96-2.02-.96-2.03-.95-2.03-.95-2.04-.94-2.05-.94-2.05-.93-2.05-.93-2.06-.92-2.07-.92-2.07-.91-2.08-.9-2.08-.91-2.08-.89-2.1-.89-2.09-.89-2.1-.88-2.11-.88-2.11-.87-2.12-.86-2.12-.86-2.13-.86-2.14-.85-2.13-.84-2.15-.84-2.15-.84-2.15-.83-2.16-.82-2.16-.82-2.17-.82-2.18-.81-2.18-.8-2.18-.8-2.19-.8-2.2-.79-2.2-.78-2.21-.78-2.21-.77-2.21-.77-2.23-.77-2.22-.75-2.23-.76-2.24-.75-2.24-.74-2.25-.74-2.25-.73-2.26-.73-2.26-.72-2.27-.72-2.28-.71-2.28-.71-2.28-.7-2.29-.7-2.29-.69-2.3-.69-2.31-.68-2.31-.68-2.31-.67-2.32-.67-2.33-.66-2.33-.66-2.33-.65-2.35-.65-2.34-.64-2.35-.63-2.36-.63-2.36-.63" style="stroke-width:1.07;stroke:#000000;stroke-opacity:0.10;stroke-linecap:butt"/><path d="m431.93 337.28-1.98-.75-1.97-.75-1.98-.75-1.98-.74-1.98-.75-1.97-.75-1.98-.75-1.98-.75-1.98-.75-1.97-.74-1.98-.75-1.98-.75-1.98-.75-1.98-.75-1.97-.75-1.98-.75-1.98-.74-1.98-.75-1.97-.75-1.98-.75-1.98-.75-1.98-.75-1.97-.75-1.98-.74-1.98-.75-1.98-.75-1.97-.75-1.98-.75-1.98-.75-1.98-.75-1.97-.74-1.98-.75-1.98-.75-1.98-.75-1.98-.75-1.97-.75-1.98-.74-1.98-.75-1.98-.75-1.97-.75-1.98-.75-1.98-.75-1.98-.75-1.97-.74-1.98-.75-1.98-.75-1.98-.75-1.97-.75-1.98-.75-1.98-.75-1.98-.74-1.97-.75-1.98-.75-1.98-.75-1.98-.75-1.98-.75-1.97-.74-1.98-.75-1.98-.75-1.98-.75-1.97-.75-1.98-.75-1.98-.75-1.98-.74-1.97-.75-1.98-.75-1.98-.75-1.98-.75-1.97-.75-1.98-.75-1.98-.74-1.98-.75-1.97-.75-1.98-.75-1.98-.75-1.98-.75-1.98-.74-1.97-.75-1.98-.75-1.98-.75-1.98-.75-1.97-.75-1.98-.75-1.98-.74-1.98-.75-1.97-.75-1.98-.75-1.98-.75-1.98-.75-1.97-.75-1.98-.74-1.98-.75-1.98-.75-1.98-.75-1.97-.75-1.98-.75-1.98-.75-1.98-.74-1.97-.75m195.78 74.1-1.06 1.64-1.06 1.63-1.06 1.64-1.06 1.63-1.06 1.64-1.06 1.64-1.06 1.63-1.06 1.64-1.06 1.63-1.06 1.64-1.06 1.64-1.06 1.63-1.07 1.64-1.06 1.64-1.06 1.63-1.06 1.64-1.06 1.63-1.06 1.64-1.06 1.64-1.06 1.63-1.06 1.64-1.06 1.63-1.06 1.64-1.06 1.64-1.06 1.63-1.06 1.64-1.06 1.63-1.06 1.64-1.06 1.64-1.06 1.63-1.06 1.64-1.06 1.63-1.07 1.64-1.06 1.64-1.06 1.63-1.06 1.64-1.06 1.64-1.06 1.63-1.06 1.64-1.06 1.63-1.06 1.64-1.06 1.64-1.06 1.63-1.06 1.64-1.06 1.63-1.06 1.64-1.06 1.64-1.06 1.63-1.06 1.64-1.06 1.63-1.06 1.64-1.07 1.64-1.06 1.63-1.06 1.64-1.06 1.63-1.06 1.64-1.06 1.64-1.06 1.63-1.06 1.64-1.06 1.64-1.06 1.63-1.06 1.64-1.06 1.63-1.06 1.64-1.06 1.64-1.06 1.63-1.06 1.64-1.06 1.63-1.06 1.64-1.06 1.64-1.06 1.63-1.07 1.64-1.06 1.63-1.06 1.64-1.06 1.64-1.06 1.63-1.06 1.64-1.06 1.63-1.06 1.64-1.06 1.64-1.06 1.63-1.06 1.64-1.06 1.64-1.06 1.63-1.06 1.64-1.06 1.63-1.06 1.64-1.06 1.64-1.06 1.63-1.06 1.64-1.07 1.63-1.06 1.64-1.06 1.64-1.06 1.63-1.06 1.64-1.06 1.63-1.06 1.64-1.06 1.64-1.06 1.63m42.79-357.26-1.35 1.22-1.35 1.23-1.35 1.22-1.35 1.22-1.35 1.23-1.35 1.22-1.35 1.23-1.35 1.22-1.35 1.23-1.35 1.22-1.35 1.22-1.35 1.23-1.34 1.22-1.35 1.23-1.35 1.22-1.35 1.22-1.35 1.23-1.35 1.22-1.35 1.23-1.35 1.22-1.35 1.22-1.35 1.23-1.35 1.22-1.35 1.23-1.35 1.22-1.35 1.23-1.34 1.22-1.35 1.22-1.35 1.23-1.35 1.22-1.35 1.23-1.35 1.22-1.35 1.22-1.35 1.23-1.35 1.22-1.35 1.23-1.35 1.22-1.35 1.23-1.35 1.22-1.35 1.22-1.34 1.23-1.35 1.22-1.35 1.23-1.35 1.22-1.35 1.22-1.35 1.23-1.35 1.22-1.35 1.23-1.35 1.22-1.35 1.22-1.35 1.23-1.35 1.22-1.35 1.23-1.35 1.22-1.34 1.23-1.35 1.22-1.35 1.22-1.35 1.23-1.35 1.22-1.35 1.23-1.35 1.22-1.35 1.22-1.35 1.23-1.35 1.22-1.35 1.23-1.35 1.22-1.35 1.23-1.35 1.22-1.34 1.22-1.35 1.23-1.35 1.22-1.35 1.23-1.35 1.22-1.35 1.22-1.35 1.23-1.35 1.22-1.35 1.23-1.35 1.22-1.35 1.23-1.35 1.22-1.35 1.22-1.35 1.23-1.34 1.22-1.35 1.23-1.35 1.22-1.35 1.22-1.35 1.23-1.35 1.22-1.35 1.23-1.35 1.22-1.35 1.22-1.35 1.23-1.35 1.22-1.35 1.23-1.35 1.22-1.35 1.23-1.34 1.22-1.35 1.22-1.35 1.23M109.59 412.21l.43 1.13.43 1.13.43 1.13.43 1.13.43 1.14.43 1.13.43 1.13.43 1.13.43 1.13.43 1.13.43 1.13.43 1.14.43 1.13.43 1.13.43 1.13.43 1.13.43 1.13.43 1.13.43 1.14.43 1.13.43 1.13.43 1.13.43 1.13.43 1.13.43 1.14.43 1.13.43 1.13.43 1.13.43 1.13.43 1.13.43 1.13.43 1.14.43 1.13.43 1.13.43 1.13.43 1.13.43 1.13.43 1.13.43 1.14.43 1.13.43 1.13.43 1.13.43 1.13.43 1.13.43 1.13.43 1.14.43 1.13.43 1.13.43 1.13.43 1.13.43 1.13.43 1.14.43 1.13.43 1.13.43 1.13.43 1.13.43 1.13.43 1.13.43 1.14.43 1.13.43 1.13.43 1.13.43 1.13.43 1.13.43 1.13.43 1.14.43 1.13.43 1.13.43 1.13.43 1.13.43 1.13.43 1.14.43 1.13.43 1.13.43 1.13.43 1.13.43 1.13.43 1.13.43 1.14.43 1.13.43 1.13.43 1.13.43 1.13.43 1.13.43 1.13.43 1.14.43 1.13.43 1.13.43 1.13.43 1.13.43 1.13.43 1.13.43 1.14.43 1.13.43 1.13.43 1.13.43 1.13.43 1.13.43 1.14m-42.57-112.02 2.11.96 2.11.97 2.11.96 2.12.96 2.11.96 2.12.96 2.12.95 2.13.96 2.12.95 2.13.95 2.12.95 2.13.94 2.13.95 2.14.94 2.13.94 2.14.94 2.14.94 2.14.93 2.14.94 2.14.93 2.15.93 2.14.93 2.15.93 2.15.92 2.15.93 2.16.92 2.15.92 2.16.92 2.16.91 2.16.92 2.16.91 2.17.91 2.16.91 2.17.91 2.17.9 2.17.91 2.17.9 2.18.9 2.18.9 2.17.9 2.18.89 2.18.89 2.19.9 2.18.89 2.19.88 2.19.89 2.19.88 2.19.89 2.19.88 2.2.88 2.2.87 2.2.88 2.2.87 2.2.88 2.2.87 2.21.87 2.21.86 2.21.87 2.21.86 2.21.86 2.22.86 2.21.86 2.22.86 2.22.85 2.22.85 2.22.85 2.23.85 2.23.85 2.23.85 2.23.84 2.23.84 2.23.84 2.24.84 2.23.84 2.24.83 2.24.84 2.25.83 2.24.83 2.25.83 2.24.82 2.25.83 2.25.82 2.26.82 2.25.82 2.26.82 2.26.81 2.26.82 2.26.81 2.26.81 2.27.81 2.26.8 2.27.81 2.27.8 2.27.8 2.28.8 2.27.8 2.28.8 2.28.79 2.28.79" style="stroke-width:1.07;stroke:#000000;stroke-opacity:0.10;stroke-linecap:butt"/><path d="m101.08 141.28 1.36 1.24 1.37 1.23 1.36 1.23 1.36 1.23 1.37 1.23 1.36 1.23 1.37 1.23 1.36 1.23 1.37 1.24 1.36 1.23 1.36 1.23 1.37 1.23 1.36 1.23 1.37 1.23 1.36 1.23 1.37 1.23 1.36 1.24 1.36 1.23 1.37 1.23 1.36 1.23 1.37 1.23 1.36 1.23 1.37 1.23 1.36 1.23 1.37 1.24 1.36 1.23 1.36 1.23 1.37 1.23 1.36 1.23 1.37 1.23 1.36 1.23 1.37 1.23 1.36 1.24 1.36 1.23 1.37 1.23 1.36 1.23 1.37 1.23 1.36 1.23 1.37 1.23 1.36 1.23 1.36 1.24 1.37 1.23 1.36 1.23 1.37 1.23 1.36 1.23 1.37 1.23 1.36 1.23 1.37 1.23 1.36 1.24 1.36 1.23 1.37 1.23 1.36 1.23 1.37 1.23 1.36 1.23 1.37 1.23 1.36 1.23 1.36 1.24 1.37 1.23 1.36 1.23 1.37 1.23 1.36 1.23 1.37 1.23 1.36 1.23 1.36 1.23 1.37 1.24 1.36 1.23 1.37 1.23 1.36 1.23 1.37 1.23 1.36 1.23 1.37 1.23 1.36 1.23 1.36 1.24 1.37 1.23 1.36 1.23 1.37 1.23 1.36 1.23 1.37 1.23 1.36 1.23 1.36 1.23 1.37 1.24 1.36 1.23 1.37 1.23 1.36 1.23 1.37 1.23 1.36 1.23 1.36 1.23 1.37 1.23 1.36 1.24 1.37 1.23 1.36 1.23 1.37 1.23 1.36 1.23 1.37 1.23 1.36 1.23 1.36 1.23 1.37 1.24 1.36 1.23 1.37 1.23m28.43 122.72-.4-1.23-.41-1.23-.4-1.23-.4-1.23-.4-1.23-.39-1.23-.4-1.23-.39-1.23-.39-1.23-.38-1.23-.38-1.23-.38-1.23-.38-1.23-.38-1.23-.37-1.23-.37-1.23-.37-1.23-.36-1.24-.37-1.23-.36-1.23-.36-1.23-.35-1.24-.36-1.23-.35-1.23-.35-1.24-.34-1.23-.35-1.24-.34-1.23-.34-1.24-.33-1.23-.34-1.24-.33-1.23-.33-1.24-.32-1.23-.33-1.24-.32-1.24-.32-1.23-.31-1.24-.32-1.24-.31-1.23-.31-1.24-.31-1.24-.3-1.24-.3-1.23-.3-1.24-.3-1.24-.29-1.24-.3-1.24-.29-1.24-.28-1.24-.29-1.24-.28-1.24-.28-1.24-.28-1.24-.27-1.24-.27-1.24-.27-1.24-.27-1.24-.27-1.25-.26-1.24-.26-1.24-.26-1.24-.25-1.24-.26-1.25-.25-1.24-.24-1.24-.25-1.25-.24-1.24-.24-1.24-.24-1.25-.24-1.24-.23-1.25-.23-1.24-.23-1.25-.23-1.24-.22-1.25-.22-1.25-.22-1.24-.22-1.25-.21-1.24-.21-1.25-.21-1.25-.21-1.24-.2-1.25-.2-1.25-.2-1.25-.2-1.25-.19-1.24-.19-1.25-.19-1.25-.19-1.25-.18-1.25-.18-1.25-.18-1.25-.18-1.25-.17-1.25-.18-1.25-.17-1.25-.16-1.25m28.43 122.72-2.02-.96-2.02-.96-2.03-.95-2.03-.96-2.03-.95-2.03-.95-2.03-.95-2.03-.95-2.04-.94-2.04-.95-2.04-.94-2.04-.94-2.04-.94-2.05-.93-2.04-.94-2.05-.93-2.05-.94-2.05-.93-2.06-.92-2.05-.93-2.06-.93-2.06-.92-2.06-.92-2.06-.92-2.07-.92-2.06-.92-2.07-.91-2.07-.91-2.07-.92-2.07-.91-2.08-.9-2.07-.91-2.08-.9-2.08-.91-2.08-.9-2.08-.9-2.09-.9-2.08-.89-2.09-.9-2.09-.89-2.09-.89-2.1-.89-2.09-.89-2.1-.88-2.1-.89-2.1-.88-2.1-.88-2.1-.88-2.11-.88-2.11-.88-2.11-.87-2.11-.87-2.11-.87-2.11-.87-2.12-.87-2.12-.86-2.12-.87-2.12-.86-2.12-.86-2.12-.86-2.13-.86-2.13-.85-2.13-.86-2.13-.85-2.13-.85-2.14-.85-2.13-.84-2.14-.85-2.14-.84-2.14-.85-2.15-.84-2.14-.83-2.15-.84-2.15-.84-2.15-.83-2.15-.83-2.16-.83-2.15-.83-2.16-.83-2.16-.82-2.16-.82-2.16-.83-2.17-.81-2.16-.82-2.17-.82-2.17-.81-2.17-.82-2.17-.81-2.18-.81-2.18-.81-2.17-.8-2.18-.81-2.19-.8-2.18-.8-2.18-.8-2.19-.8-2.19-.79-2.19-.8-2.19-.79" style="stroke-width:1.07;stroke:#000000;stroke-opacity:0.10;stroke-linecap:butt"/><path d="m109.59 412.21 1.27-1.51 1.28-1.5 1.28-1.51 1.28-1.5 1.28-1.51 1.28-1.5 1.27-1.51 1.28-1.5 1.28-1.51 1.28-1.51 1.28-1.5 1.28-1.51 1.27-1.5 1.28-1.51 1.28-1.5 1.28-1.51 1.28-1.5 1.28-1.51 1.27-1.5 1.28-1.51 1.28-1.5 1.28-1.51 1.28-1.51 1.28-1.5 1.28-1.51 1.27-1.5 1.28-1.51 1.28-1.5 1.28-1.51 1.28-1.5 1.28-1.51 1.27-1.5 1.28-1.51 1.28-1.5 1.28-1.51 1.28-1.5 1.28-1.51 1.27-1.51 1.28-1.5 1.28-1.51 1.28-1.5 1.28-1.51 1.28-1.5 1.27-1.51 1.28-1.5 1.28-1.51 1.28-1.5 1.28-1.51 1.28-1.5 1.28-1.51 1.27-1.51 1.28-1.5 1.28-1.51 1.28-1.5 1.28-1.51 1.28-1.5 1.27-1.51 1.28-1.5 1.28-1.51 1.28-1.5 1.28-1.51 1.28-1.5 1.27-1.51 1.28-1.5 1.28-1.51 1.28-1.51 1.28-1.5 1.28-1.51 1.27-1.5 1.28-1.51 1.28-1.5 1.28-1.51 1.28-1.5 1.28-1.51 1.28-1.5 1.27-1.51 1.28-1.5 1.28-1.51 1.28-1.51 1.28-1.5 1.28-1.51 1.27-1.5 1.28-1.51 1.28-1.5 1.28-1.51 1.28-1.5 1.28-1.51 1.27-1.5 1.28-1.51 1.28-1.5 1.28-1.51 1.28-1.5 1.28-1.51 1.27-1.51 1.28-1.5 1.28-1.51 1.28-1.5 1.28-1.51 1.28-1.5M109.59 412.21l2.28.79 2.27.79 2.28.8 2.28.8 2.27.8 2.27.8 2.27.8 2.27.81 2.27.8 2.26.81 2.27.81 2.26.82 2.26.81 2.26.81 2.25.82 2.26.82 2.25.82 2.25.82 2.25.83 2.25.82 2.25.83 2.24.83 2.24.83 2.24.84 2.24.83 2.24.84 2.23.84 2.24.84 2.23.84 2.23.84 2.23.85 2.23.85 2.22.85 2.22.85 2.23.85 2.22.85 2.21.86 2.22.86 2.21.86 2.22.86 2.21.86 2.21.87 2.21.86 2.2.87 2.21.87 2.2.88 2.2.87 2.2.88 2.2.87 2.19.88 2.2.88 2.19.89 2.19.88 2.19.89 2.18.88 2.19.89 2.18.9 2.18.89 2.18.89 2.18.9 2.18.9 2.17.9 2.17.9 2.18.91 2.17.9 2.16.91 2.17.91 2.16.91 2.17.91 2.16.92 2.16.91 2.15.92 2.16.92 2.15.92 2.15.93 2.15.92 2.15.93 2.15.93 2.14.93 2.15.93 2.14.94 2.14.93 2.14.94 2.13.94 2.14.94 2.13.94 2.13.95 2.13.94 2.13.95 2.13.95 2.12.95 2.12.96 2.12.95 2.12.96 2.12.96 2.11.96 2.12.96 2.11.97 2.11.96" style="stroke-width:1.07;stroke:#000000;stroke-opacity:0.10;stroke-linecap:butt"/><path d="m264.58 385.9-1.13 1.39-1.14 1.4-1.13 1.4-1.14 1.4-1.14 1.39-1.13 1.4-1.14 1.4-1.13 1.4-1.14 1.39-1.13 1.4-1.14 1.4-1.13 1.39-1.14 1.4-1.14 1.4-1.13 1.4-1.14 1.39-1.13 1.4-1.14 1.4-1.13 1.4-1.14 1.39-1.14 1.4-1.13 1.4-1.14 1.39-1.13 1.4-1.14 1.4-1.13 1.4-1.14 1.39-1.13 1.4-1.14 1.4-1.14 1.39-1.13 1.4-1.14 1.4-1.13 1.4-1.14 1.39-1.13 1.4-1.14 1.4-1.14 1.4-1.13 1.39-1.14 1.4-1.13 1.4-1.14 1.39-1.13 1.4-1.14 1.4-1.13 1.4-1.14 1.39-1.14 1.4-1.13 1.4-1.14 1.4-1.13 1.39-1.14 1.4-1.13 1.4-1.14 1.39-1.14 1.4-1.13 1.4-1.14 1.4-1.13 1.39-1.14 1.4-1.13 1.4-1.14 1.4-1.14 1.39-1.13 1.4-1.14 1.4-1.13 1.39-1.14 1.4-1.13 1.4-1.14 1.4-1.13 1.39-1.14 1.4-1.14 1.4-1.13 1.39-1.14 1.4-1.13 1.4-1.14 1.4-1.13 1.39-1.14 1.4-1.14 1.4-1.13 1.4-1.14 1.39-1.13 1.4-1.14 1.4-1.13 1.39-1.14 1.4-1.13 1.4-1.14 1.4-1.14 1.39-1.13 1.4-1.14 1.4-1.13 1.4-1.14 1.39-1.13 1.4-1.14 1.4-1.14 1.39-1.13 1.4-1.14 1.4-1.13 1.4-1.14 1.39-1.13 1.4-1.14 1.4-1.13 1.4M264.58 385.9l-2.19-.8-2.19-.79-2.19-.8-2.19-.79-2.18-.8-2.18-.8-2.19-.81-2.18-.8-2.17-.81-2.18-.81-2.18-.8-2.17-.82-2.17-.81-2.17-.81-2.17-.82-2.16-.82-2.17-.82-2.16-.82-2.16-.82-2.16-.83-2.16-.82-2.15-.83-2.16-.83-2.15-.83-2.15-.84-2.15-.83-2.15-.84-2.14-.84-2.15-.84-2.14-.84-2.14-.84-2.14-.85-2.13-.85-2.14-.84-2.13-.85-2.13-.86-2.13-.85-2.13-.86-2.13-.85-2.12-.86-2.12-.86-2.12-.87-2.12-.86-2.12-.86-2.12-.87-2.11-.87-2.11-.87-2.11-.87-2.11-.88-2.11-.87-2.11-.88-2.1-.88-2.1-.88-2.1-.88-2.1-.89-2.1-.88-2.09-.89-2.1-.89-2.09-.89-2.09-.9-2.09-.89-2.08-.9-2.09-.89-2.08-.9-2.08-.91-2.08-.9-2.08-.9-2.07-.91-2.08-.91-2.07-.91-2.07-.91-2.07-.91-2.07-.92-2.06-.91-2.07-.92-2.06-.92-2.06-.92-2.06-.93-2.06-.92-2.05-.93-2.06-.93-2.05-.93-2.05-.93-2.05-.93-2.04-.94-2.05-.94-2.04-.93-2.04-.94-2.04-.95-2.04-.94-2.03-.95-2.04-.94-2.03-.95-2.03-.95-2.03-.95-2.03-.96-2.03-.95-2.02-.96-2.02-.96m208.61 86.71-.64-1.21-.65-1.2-.63-1.21-.62-1.21-.62-1.21-.61-1.21-.61-1.21-.59-1.21-.59-1.21-.58-1.21-.58-1.21-.56-1.22-.56-1.21-.56-1.21-.54-1.22-.54-1.22-.53-1.21-.52-1.22-.52-1.22-.5-1.22-.5-1.22-.5-1.22-.48-1.22-.48-1.22-.47-1.22-.47-1.22-.45-1.23-.45-1.22-.44-1.23-.44-1.22-.42-1.23-.42-1.23-.42-1.22-.4-1.23-.4-1.23-.39-1.23-.38-1.23-.38-1.23-.37-1.23-.36-1.24-.35-1.23-.35-1.23-.33-1.24-.34-1.23-.32-1.24-.32-1.24-.31-1.23-.3-1.24-.29-1.24-.29-1.24-.28-1.24-.27-1.24-.27-1.24-.26-1.25-.25-1.24-.24-1.24-.23-1.25-.23-1.24-.22-1.25-.22-1.25-.2-1.24-.2-1.25-.19-1.25-.19-1.25-.18-1.25-.17-1.25-.16-1.25-.15-1.25-.15-1.26-.14-1.25-.13-1.25-.13-1.26-.12-1.25-.11-1.26-.1-1.26-.1-1.25-.08-1.26-.09-1.26-.07-1.26-.07-1.26-.06-1.26-.05-1.27-.04-1.26-.04-1.26-.03-1.26-.02-1.27-.02-1.26v-3.8l.02-1.27.02-1.27.03-1.27.03-1.27.05-1.27.05-1.27.06-1.28.06-1.27.08-1.27" style="stroke-width:1.07;stroke:#000000;stroke-opacity:0.10;stroke-linecap:butt"/><path d="m264.58 385.9-2.36-.63-2.36-.63-2.35-.64-2.34-.64-2.34-.64-2.34-.66-2.33-.65-2.33-.66-2.32-.67-2.31-.67-2.31-.68-2.31-.68-2.3-.69-2.29-.69-2.29-.7-2.28-.7-2.28-.71-2.28-.71-2.26-.72-2.27-.72-2.26-.73-2.25-.74-2.25-.73-2.24-.75-2.24-.75-2.23-.75-2.22-.76-2.23-.76-2.21-.77-2.21-.77-2.21-.78-2.2-.79-2.2-.79-2.19-.79-2.18-.8-2.18-.81-2.18-.8-2.17-.82-2.16-.82-2.16-.82-2.15-.83-2.15-.84-2.15-.84-2.13-.84-2.14-.86-2.13-.85-2.12-.86-2.12-.87-2.11-.87-2.11-.87-2.1-.88-2.09-.89-2.1-.89-2.08-.9-2.08-.9-2.08-.91-2.07-.91-2.07-.91-2.06-.93-2.05-.92-2.05-.93-2.05-.94-2.04-.94-2.03-.95-2.03-.95-2.02-.96-2.02-.96-2.02-.97-2-.97-2.01-.98-2-.98-1.99-.99-1.99-.99-1.98-1-1.98-1.01-1.97-1-1.97-1.02-1.96-1.02-1.95-1.02-1.95-1.03-1.95-1.03-1.94-1.04-1.94-1.04-1.93-1.05-1.92-1.06-1.92-1.06-1.92-1.06-1.91-1.07-1.9-1.08-1.9-1.07-1.9-1.09-1.89-1.09-1.88-1.09-1.88-1.1-1.87-1.11-1.87-1.11-1.86-1.11-1.86-1.13-1.85-1.12m208.61 86.71 2.61.58 2.61.59 2.61.59 2.6.59 2.61.59 2.61.58 2.61.59 2.61.59 2.6.59 2.61.58 2.61.59 2.61.59 2.61.59 2.6.58 2.61.59 2.61.59 2.61.59 2.61.58 2.6.59 2.61.59 2.61.59 2.61.59 2.61.58 2.6.59 2.61.59 2.61.59 2.61.58 2.61.59 2.6.59 2.61.59 2.61.58 2.61.59 2.61.59 2.6.59 2.61.58 2.61.59 2.61.59 2.61.59 2.6.58 2.61.59 2.61.59 2.61.59 2.61.59 2.6.58 2.61.59 2.61.59 2.61.59 2.61.58 2.6.59 2.61.59 2.61.59 2.61.58 2.61.59 2.6.59 2.61.59 2.61.58 2.61.59 2.61.59 2.6.59 2.61.59 2.61.58 2.61.59 2.6.59 2.61.59 2.61.58 2.61.59 2.61.59 2.6.59 2.61.58 2.61.59 2.61.59 2.61.59 2.6.58 2.61.59 2.61.59 2.61.59 2.61.58 2.6.59 2.61.59 2.61.59 2.61.59 2.61.58 2.6.59 2.61.59 2.61.59 2.61.58 2.61.59 2.6.59 2.61.59 2.61.58 2.61.59 2.61.59 2.6.59 2.61.58 2.61.59 2.61.59 2.61.59 2.6.59 2.61.58" style="stroke-width:1.07;stroke:#000000;stroke-opacity:0.10;stroke-linecap:butt"/><path d="m264.58 385.9-2.53-.46-2.52-.47-2.52-.48-2.5-.48-2.5-.5-2.49-.5-2.48-.51-2.47-.52-2.46-.53-2.45-.53-2.45-.55-2.44-.55-2.42-.56-2.42-.57-2.41-.58-2.4-.59-2.4-.59-2.38-.61-2.38-.61-2.36-.62-2.36-.63-2.35-.64-2.34-.65-2.34-.65-2.32-.66-2.32-.68-2.3-.68-2.3-.69-2.29-.69-2.28-.71-2.27-.71-2.26-.73-2.26-.73-2.24-.74-2.24-.75-2.23-.75-2.22-.77-2.21-.77-2.2-.79-2.2-.79-2.18-.8-2.18-.8-2.17-.82-2.16-.82-2.15-.84-2.14-.84-2.13-.85-2.13-.86-2.11-.87-2.11-.87-2.1-.89-2.09-.89-2.08-.9-2.07-.91-2.07-.92-2.05-.93-2.05-.93-2.04-.94-2.02-.96-2.03-.96-2.01-.97-2-.97-2-.99-1.98-1-1.98-1-1.97-1.01-1.96-1.02-1.95-1.03-1.94-1.04-1.93-1.04-1.93-1.06-1.92-1.06-1.9-1.07-1.9-1.08-1.89-1.09-1.89-1.09-1.87-1.11-1.86-1.11-1.86-1.13-1.85-1.13-1.84-1.14-1.83-1.14-1.82-1.16-1.81-1.16-1.81-1.18-1.79-1.18-1.79-1.19-1.78-1.2-1.76-1.2-1.77-1.22-1.75-1.22-1.74-1.24-1.74-1.24-1.72-1.25-1.72-1.25-1.71-1.27-1.7-1.28-1.69-1.28-1.68-1.29m0 0 2.06.14 2.07.13 2.05.12 2.05.11 2.05.09 2.04.09 2.04.08 2.03.07 2.03.05 2.02.05 2.02.04 2.01.02 2 .02 2 .01 2-.01 1.99-.01 1.99-.03 1.98-.03 1.98-.05 1.97-.05 1.96-.07 1.96-.08 1.96-.08 1.95-.1 1.95-.11 1.94-.11 1.93-.13 1.93-.14 1.93-.15 1.92-.16 1.92-.16 1.91-.18 1.9-.19 1.9-.2 1.9-.21 1.89-.22 1.88-.23 1.88-.24 1.88-.25 1.87-.26 1.87-.28 1.86-.28 1.85-.29 1.85-.3 1.85-.31 1.84-.33 1.83-.33 1.83-.34 1.83-.36 1.82-.36 1.81-.37 1.81-.39 1.81-.39 1.8-.41 1.79-.41 1.79-.43 1.79-.43 1.78-.45 1.77-.46 1.77-.46 1.76-.48 1.76-.49 1.76-.49 1.75-.51 1.74-.52 1.74-.53 1.74-.54 1.73-.54 1.72-.56 1.72-.57 1.71-.58 1.71-.59 1.71-.6 1.7-.61 1.69-.62 1.69-.63 1.68-.64 1.68-.65 1.68-.67 1.66-.67 1.67-.68 1.66-.69 1.65-.7 1.65-.72 1.64-.72 1.64-.73 1.64-.75 1.62-.75 1.63-.77 1.62-.77 1.61-.78 1.61-.8 1.6-.8 1.6-.82 1.59-.83 1.59-.83 1.59-.85 1.57-.86 1.58-.86" style="stroke-width:1.07;stroke:#000000;stroke-opacity:0.10;stroke-linecap:butt"/><path d="m55.97 299.19 1.99-.01 2-.01 1.99-.02 1.98-.02 1.98-.04 1.98-.04 1.98-.05 1.97-.05 1.96-.06 1.97-.07 1.96-.08 1.96-.09 1.95-.09 1.95-.1 1.94-.11 1.95-.11 1.94-.12 1.93-.13 1.93-.14 1.93-.14 1.92-.15 1.92-.16 1.92-.17 1.92-.17 1.91-.18 1.9-.19 1.9-.19 1.9-.21 1.9-.21 1.89-.21 1.89-.23 1.88-.23 1.89-.24 1.87-.24 1.88-.26 1.87-.26 1.86-.27 1.87-.27 1.86-.29 1.85-.29 1.85-.29 1.85-.31 1.85-.31 1.84-.32 1.84-.33 1.83-.33 1.83-.34 1.83-.35 1.82-.36 1.82-.36 1.82-.38 1.81-.37 1.81-.39 1.81-.39 1.8-.4 1.8-.41 1.79-.42 1.79-.42 1.79-.43 1.79-.43 1.78-.45 1.77-.45 1.78-.46 1.77-.47 1.76-.47 1.76-.48 1.76-.49 1.76-.5 1.75-.5 1.75-.51 1.74-.52 1.74-.52 1.74-.53 1.73-.54 1.73-.55 1.73-.56 1.72-.56 1.72-.57 1.72-.57 1.71-.59 1.71-.59 1.7-.6 1.71-.6 1.69-.62 1.7-.62 1.69-.62 1.68-.64 1.69-.64 1.68-.65 1.67-.66 1.68-.66 1.67-.67 1.66-.68 1.66-.69 1.66-.69 1.65-.7 1.66-.71 1.64-.72 1.65-.72" style="stroke-width:1.07;stroke:#000000;stroke-opacity:0.10;stroke-linecap:butt"/><path d="m55.97 299.19 1.92-.15 1.93-.15 1.92-.16 1.92-.16 1.92-.17 1.91-.17 1.91-.17 1.91-.18 1.91-.18 1.91-.19 1.9-.19 1.9-.2 1.9-.2 1.9-.2 1.9-.21 1.89-.22 1.89-.22 1.89-.22 1.89-.23 1.88-.23 1.89-.24 1.88-.24 1.87-.24 1.88-.25 1.87-.25 1.88-.26 1.87-.26 1.86-.27 1.87-.27 1.86-.28 1.86-.28 1.86-.28 1.86-.29 1.85-.3 1.86-.29 1.85-.31 1.84-.3 1.85-.31 1.84-.32 1.84-.32 1.84-.32 1.84-.33 1.84-.33 1.83-.34 1.83-.34 1.83-.35 1.83-.35 1.82-.35 1.82-.36 1.82-.37 1.82-.37 1.82-.37 1.81-.38 1.81-.38 1.81-.38 1.81-.39 1.8-.4 1.8-.4 1.8-.4 1.8-.41 1.8-.41 1.79-.42 1.8-.42 1.78-.42 1.79-.43 1.79-.44 1.78-.43 1.78-.45 1.78-.45 1.78-.45 1.77-.45 1.78-.46 1.77-.47 1.76-.47 1.77-.47 1.76-.48 1.77-.48 1.75-.49 1.76-.49 1.76-.5 1.75-.5 1.75-.5 1.75-.51 1.75-.51 1.74-.52 1.74-.52 1.74-.53 1.74-.53 1.74-.54 1.73-.54 1.73-.54 1.73-.55 1.73-.55 1.72-.56 1.73-.56 1.72-.57 1.72-.57 1.71-.57 1.72-.58" style="stroke-width:1.07;stroke:#000000;stroke-opacity:0.10;stroke-linecap:butt"/><path d="m55.97 299.19 1.85-.29 1.86-.3 1.85-.29 1.85-.3 1.86-.29 1.85-.3 1.85-.3 1.85-.31 1.85-.3 1.85-.31 1.85-.3 1.84-.31 1.85-.31 1.85-.31 1.84-.31 1.85-.32 1.84-.31 1.84-.32 1.84-.32 1.85-.32 1.84-.32 1.84-.32 1.84-.32 1.84-.33 1.83-.33 1.84-.33 1.84-.33 1.83-.33 1.84-.33 1.83-.34 1.84-.33 1.83-.34 1.83-.34 1.83-.34 1.83-.34 1.83-.34 1.83-.35 1.83-.34 1.83-.35 1.83-.35 1.82-.35 1.83-.35 1.82-.36 1.83-.35 1.82-.36 1.82-.36 1.83-.35 1.82-.37 1.82-.36 1.82-.36 1.82-.37 1.82-.36 1.81-.37 1.82-.37 1.82-.37 1.81-.37 1.82-.38 1.81-.37 1.82-.38 1.81-.38 1.81-.38 1.81-.38 1.81-.38 1.81-.39 1.81-.38 1.81-.39 1.81-.39 1.81-.39 1.8-.39 1.81-.39 1.8-.4 1.81-.4 1.8-.39 1.8-.4 1.8-.4 1.81-.4 1.8-.41 1.8-.4 1.8-.41 1.79-.41 1.8-.41 1.8-.41 1.79-.41 1.8-.41 1.8-.42 1.79-.41 1.79-.42 1.8-.42 1.79-.42 1.79-.42 1.79-.43 1.79-.42 1.79-.43 1.79-.43 1.78-.43 1.79-.43 1.79-.43 1.78-.44 1.79-.43" style="stroke-width:1.07;stroke:#000000;stroke-opacity:0.10;stroke-linecap:butt"/><path d="m55.97 299.19 1.78-.44 1.79-.43 1.78-.43 1.79-.43 1.79-.43 1.79-.43 1.79-.43 1.79-.42 1.79-.43 1.79-.42 1.79-.42 1.79-.42 1.8-.42 1.79-.42 1.79-.41 1.8-.41 1.8-.42 1.79-.41 1.8-.41 1.8-.4 1.8-.41 1.8-.41 1.8-.4 1.8-.4 1.8-.4 1.8-.4 1.81-.4 1.8-.39 1.81-.4 1.8-.39 1.81-.39 1.81-.39 1.8-.39 1.81-.39 1.81-.38 1.81-.39 1.81-.38 1.81-.38 1.82-.38 1.81-.38 1.81-.38 1.82-.37 1.81-.38 1.82-.37 1.81-.37 1.82-.37 1.82-.37 1.82-.37 1.82-.36 1.82-.37 1.82-.36 1.82-.36 1.82-.36 1.82-.36 1.83-.35 1.82-.36 1.83-.35 1.82-.35 1.83-.35 1.83-.35 1.82-.35 1.83-.35 1.83-.34 1.83-.34 1.83-.35 1.83-.34 1.84-.33 1.83-.34 1.83-.34 1.84-.33 1.83-.34 1.84-.33 1.83-.33 1.84-.33 1.84-.32 1.84-.33 1.84-.32 1.84-.32 1.84-.33 1.84-.32 1.84-.31 1.85-.32 1.84-.32 1.84-.31 1.85-.31 1.84-.31 1.85-.31 1.85-.31 1.85-.31 1.85-.3 1.85-.31 1.85-.3 1.85-.3 1.85-.3 1.85-.3 1.85-.29 1.86-.3 1.85-.29 1.86-.29" style="stroke-width:1.07;stroke:#000000;stroke-opacity:0.10;stroke-linecap:butt"/><path d="m55.97 299.19 1.71-.58 1.72-.58 1.72-.57 1.72-.56 1.72-.56 1.73-.56 1.72-.55 1.73-.55 1.73-.55 1.74-.54 1.73-.53 1.74-.53 1.74-.53 1.74-.52 1.75-.52 1.74-.51 1.75-.51 1.75-.51 1.76-.5 1.75-.49 1.76-.49 1.76-.49 1.76-.48 1.76-.48 1.77-.47 1.77-.47 1.77-.47 1.77-.46 1.78-.46 1.77-.45 1.78-.45 1.78-.44 1.79-.44 1.78-.43 1.79-.43 1.79-.43 1.79-.42 1.8-.41 1.79-.42 1.8-.4 1.8-.41 1.8-.4 1.81-.39 1.81-.39 1.8-.39 1.82-.38 1.81-.37 1.82-.38 1.81-.37 1.82-.36 1.83-.36 1.82-.35 1.83-.35 1.82-.35 1.84-.34 1.83-.34 1.83-.33 1.84-.33 1.84-.32 1.84-.32 1.85-.32 1.84-.31 1.85-.31 1.85-.3 1.85-.3 1.86-.29 1.85-.29 1.86-.28 1.86-.28 1.87-.28 1.86-.27 1.87-.27 1.87-.26 1.87-.26 1.87-.25 1.88-.25 1.88-.25 1.88-.24 1.88-.23 1.89-.24 1.88-.22 1.89-.23 1.89-.21 1.9-.22 1.89-.21 1.9-.2 1.9-.2 1.9-.2 1.91-.19 1.9-.19 1.91-.18 1.91-.18 1.91-.18 1.92-.17 1.92-.16 1.92-.16 1.92-.16 1.92-.15 1.93-.15" style="stroke-width:1.07;stroke:#000000;stroke-opacity:0.10;stroke-linecap:butt"/><path d="m55.97 299.19 1.64-.72 1.65-.72 1.65-.71 1.65-.7 1.66-.69 1.66-.69 1.67-.68 1.67-.67 1.67-.66 1.68-.66 1.68-.65 1.68-.64 1.69-.64 1.69-.63 1.69-.62 1.7-.61 1.7-.61 1.71-.59 1.7-.6 1.72-.58 1.71-.58 1.72-.57 1.72-.56 1.73-.55 1.73-.55 1.73-.54 1.74-.53 1.74-.53 1.75-.51 1.74-.51 1.76-.51 1.75-.49 1.76-.49 1.76-.48 1.77-.48 1.77-.46 1.77-.46 1.78-.45 1.78-.45 1.78-.44 1.79-.42 1.79-.43 1.8-.41 1.79-.41 1.81-.4 1.8-.39 1.81-.39 1.81-.38 1.82-.37 1.82-.36 1.82-.36 1.83-.35 1.83-.34 1.84-.33 1.83-.33 1.85-.32 1.84-.31 1.85-.31 1.85-.3 1.86-.29 1.86-.28 1.86-.28 1.87-.26 1.87-.27 1.87-.25 1.88-.25 1.88-.23 1.89-.24 1.88-.22 1.9-.22 1.89-.21 1.9-.2 1.9-.19 1.91-.19 1.91-.18 1.91-.18 1.92-.16 1.92-.16 1.92-.15 1.93-.14 1.93-.14 1.94-.13 1.94-.12 1.94-.12 1.95-.1 1.95-.1 1.95-.1 1.96-.08 1.96-.08 1.96-.07 1.97-.06 1.97-.06 1.97-.05 1.98-.04 1.98-.03 1.99-.03 1.99-.02 1.99-.01h2" style="stroke-width:1.07;stroke:#000000;stroke-opacity:0.10;stroke-linecap:butt"/><path d="m55.97 299.19 1.57-.87 1.58-.85 1.58-.85 1.59-.84 1.59-.82 1.6-.82 1.61-.8 1.6-.8 1.62-.78 1.62-.78 1.62-.76 1.63-.76 1.63-.74 1.64-.73 1.64-.73 1.65-.71 1.66-.7 1.66-.69 1.66-.69 1.67-.67 1.67-.66 1.68-.65 1.69-.64 1.68-.63 1.7-.62 1.7-.61 1.7-.6 1.71-.59 1.72-.58 1.71-.57 1.73-.56 1.73-.55 1.73-.54 1.74-.52 1.75-.52 1.75-.51 1.75-.5 1.76-.48 1.76-.48 1.77-.47 1.78-.45 1.78-.45 1.78-.43 1.79-.43 1.8-.41 1.8-.41 1.8-.39 1.81-.39 1.82-.37 1.82-.37 1.82-.35 1.83-.34 1.84-.34 1.84-.32 1.84-.31 1.85-.3 1.86-.3 1.86-.28 1.86-.27 1.87-.26 1.88-.25 1.88-.24 1.89-.23 1.89-.22 1.89-.21 1.9-.2 1.91-.19 1.91-.18 1.91-.17 1.92-.16 1.93-.14 1.93-.14 1.94-.13 1.94-.12 1.94-.1 1.96-.1 1.95-.09 1.96-.07 1.97-.07 1.97-.05 1.98-.05 1.98-.03 1.98-.03 1.99-.01 2-.01 2 .01 2.01.01 2.01.03 2.02.04 2.02.04 2.02.06 2.04.07 2.03.08 2.04.08 2.05.1 2.05.11 2.06.12 2.06.13 2.07.14m90.79 236.07-1.81.12-1.82.11-1.81.12-1.81.12-1.81.12-1.81.13-1.81.13-1.81.13-1.8.14-1.81.14-1.8.14-1.81.14-1.8.15-1.8.15-1.8.15-1.8.16-1.8.16-1.8.16-1.79.16-1.8.17-1.79.17-1.8.17-1.79.18-1.79.18-1.79.18-1.79.18-1.79.19-1.79.19-1.78.19-1.79.19-1.78.2-1.79.2-1.78.21-1.78.2-1.78.21-1.78.22-1.78.21-1.78.22-1.77.22-1.78.22-1.77.23-1.78.23-1.77.23-1.77.24-1.77.24-1.77.24-1.77.24-1.77.25-1.76.25-1.77.25-1.76.25-1.77.26-1.76.26-1.76.27-1.76.26-1.76.27-1.76.27-1.76.28-1.75.28-1.76.28-1.75.28-1.76.29-1.75.29-1.75.29-1.75.29-1.75.3-1.75.3-1.75.31-1.74.3-1.75.31-1.74.31-1.75.32-1.74.32-1.74.32-1.74.32-1.74.33-1.74.33-1.74.33-1.73.33-1.74.34-1.73.34-1.74.34-1.73.35-1.73.35-1.73.35-1.73.36-1.73.35-1.73.36-1.72.37-1.73.36-1.72.37-1.73.37-1.72.38-1.72.38-1.72.38-1.72.38-1.72.38-1.72.39-1.71.4" style="stroke-width:1.07;stroke:#000000;stroke-opacity:0.10;stroke-linecap:butt"/><path d="m326.94 499.25-1.76.25-1.77.26-1.77.25-1.76.25-1.77.25-1.76.26-1.77.25-1.76.25-1.77.25-1.76.25-1.77.26-1.77.25-1.76.25-1.77.25-1.76.26-1.77.25-1.76.25-1.77.25-1.76.26-1.77.25-1.76.25-1.77.25-1.77.25-1.76.26-1.77.25-1.76.25-1.77.25-1.76.26-1.77.25-1.76.25-1.77.25-1.77.25-1.76.26-1.77.25-1.76.25-1.77.25-1.76.26-1.77.25-1.76.25-1.77.25-1.77.25-1.76.26-1.77.25-1.76.25-1.77.25-1.76.26-1.77.25-1.76.25-1.77.25-1.76.25-1.77.26-1.77.25-1.76.25-1.77.25-1.76.26-1.77.25-1.76.25-1.77.25-1.76.26-1.77.25-1.77.25-1.76.25-1.77.25-1.76.26-1.77.25-1.76.25-1.77.25-1.76.26-1.77.25-1.76.25-1.77.25-1.77.25-1.76.26-1.77.25-1.76.25-1.77.25-1.76.26-1.77.25-1.76.25-1.77.25-1.77.25-1.76.26-1.77.25-1.76.25-1.77.25-1.76.26-1.77.25-1.76.25-1.77.25-1.77.26-1.76.25-1.77.25-1.76.25-1.77.25-1.76.26-1.77.25-1.76.25-1.77.25-1.76.26" style="stroke-width:1.07;stroke:#000000;stroke-opacity:0.10;stroke-linecap:butt"/><path d="m326.94 499.25-1.72.39-1.71.39-1.72.39-1.72.38-1.72.38-1.72.38-1.73.37-1.72.38-1.72.37-1.73.36-1.73.36-1.72.36-1.73.36-1.73.36-1.73.35-1.73.35-1.74.34-1.73.35-1.74.34-1.73.34-1.74.33-1.74.33-1.73.33-1.74.33-1.74.32-1.75.32-1.74.32-1.74.31-1.75.32-1.74.31-1.75.3-1.75.31-1.74.3-1.75.29-1.75.3-1.76.29-1.75.29-1.75.29-1.76.28-1.75.28-1.76.28-1.76.27-1.75.28-1.76.26-1.76.27-1.77.27-1.76.26-1.76.25-1.77.26-1.76.25-1.77.25-1.77.25-1.76.24-1.77.24-1.77.24-1.78.23-1.77.24-1.77.23-1.78.22-1.77.23-1.78.22-1.78.22-1.77.21-1.78.21-1.78.21-1.79.21-1.78.2-1.78.21-1.79.19-1.78.2-1.79.19-1.79.19-1.78.19-1.79.18-1.79.18-1.8.18-1.79.18-1.79.17-1.8.17-1.79.17-1.8.16-1.8.16-1.79.16-1.8.15-1.8.16-1.81.15-1.8.14-1.8.15-1.81.14-1.8.14-1.81.13-1.8.14-1.81.13-1.81.12-1.81.13-1.81.12-1.82.12-1.81.11-1.81.12" style="stroke-width:1.07;stroke:#000000;stroke-opacity:0.10;stroke-linecap:butt"/><path d="m264.58 376.68 7.99 13.83H256.6zm167.35-41.61 1.92 3.32h-3.83zm-62.2-195.29 1.91 3.31h-3.83zM109.59 406.86l4.62 8.02h-9.25zm-8.51-267.79 1.91 3.32h-3.83z" style="stroke-width:0.71;stroke:none;fill:#00BA38"/><path d="M50.04 305.12H61.9v-11.86H50.04zm272.63 198.41h8.54v-8.55h-8.54z" style="stroke-width:0.71;stroke:none;fill:#619CFF"/><circle cx="236.15" cy="263.18" r="6.76" style="stroke-width:0.71;stroke:none;fill:#F8766D"/><circle cx="152.16" cy="524.23" r="3.44" style="stroke-width:0.71;stroke:none;fill:#F8766D"/><circle cx="522.77" cy="444.07" r="1.42" style="stroke-width:0.71;stroke:none;fill:#F8766D"/><path d="m259.35 390.62 4.37-3.95m173.43-54.08-4.36 3.92m-68.28-189.82 4.36-3.93M104.23 416.82l4.48-3.85m-2.83-274.94-3.82 2.59m230.21 354.04-4.45 3.83m-97.06-230.66 4.51-3.89m-87.91 263.54 3.81-2.59" style="stroke-width:0.53;stroke:#BFBFBF"/><path d="M219.39 401.96h65.11-.08l.35-.01.34-.07.32-.13.3-.17.27-.22.23-.26.19-.29.13-.32.09-.34.02-.35h0v-7.02h0l-.02-.35-.09-.34-.13-.32-.19-.29-.23-.26-.27-.22-.3-.18-.32-.12-.34-.07-.27-.01h-65.11l.26.01-.35-.01-.34.04-.34.1-.31.15-.29.19-.25.24-.21.28-.16.31-.11.33-.05.34-.01.18v7.02l.01-.17v.35l.05.34.11.33.16.31.21.28.25.24.29.19.31.15.34.1.34.04z" style="stroke-width:0.53;fill:#FFFFFF;fill-opacity:0.50"/><text x="251.95" y="398.36" lengthAdjust="spacingAndGlyphs" style="font-size:5.69px;font-family:&quot;Liberation Sans&quot;" text-anchor="middle" textLength="62.24">JWH INVESTMENT LLC</text><path d="M410.92 332.59h67.38l-.09-.01.35-.01.34-.07.33-.12.3-.18.27-.22.23-.26.18-.29.14-.32.08-.34.03-.34h0v-7.03h0l-.03-.35-.08-.34-.14-.32-.18-.29-.23-.26-.27-.22-.3-.17-.33-.13-.34-.07-.26-.01h-67.38l.26.01-.34-.01-.35.04-.33.1-.32.15-.28.2-.25.24-.21.27-.16.31-.11.33-.06.34-.01.18v7.03l.01-.18v.35l.06.34.11.33.16.31.21.28.25.24.28.2.32.15.33.09.35.04z" style="stroke-width:0.53;fill:#FFFFFF;fill-opacity:0.50"/><text x="444.61" y="328.99" lengthAdjust="spacingAndGlyphs" style="font-size:5.69px;font-family:&quot;Liberation Sans&quot;" text-anchor="middle" textLength="64.5">HEBA K PROPERTY LLC</text><path d="M331.93 158.04h50.37-.09l.35-.02.34-.07.33-.12.3-.18.27-.22.23-.26.18-.29.14-.32.08-.34.03-.34h0v-7.03h0l-.03-.35-.08-.33-.14-.32-.18-.3-.23-.26-.27-.22-.3-.17-.33-.12-.34-.07-.26-.02h-50.37l.26.02-.35-.02-.34.04-.34.1-.31.15-.29.2-.25.24-.21.28-.16.3-.11.33-.05.35-.01.17v7.03l.01-.18v.35l.05.34.11.33.16.31.21.28.25.24.29.2.31.15.34.09.34.05z" style="stroke-width:0.53;fill:#FFFFFF;fill-opacity:0.50"/><text x="357.11" y="154.44" lengthAdjust="spacingAndGlyphs" style="font-size:5.69px;font-family:&quot;Liberation Sans&quot;" text-anchor="middle" textLength="47.49">ASHRAF KHALED</text><path d="M58.98 436.37h66.17l-.09-.01.35-.01.34-.07.33-.12.3-.18.27-.22.23-.26.18-.29.14-.32.08-.34.03-.34h0v-15.23h0l-.03-.34-.08-.34-.14-.32-.18-.29-.23-.26-.27-.22-.3-.18-.33-.12-.34-.07-.26-.02H58.98l.26.02-.35-.01-.34.04-.33.09-.32.15-.28.2-.26.24-.2.28-.17.31-.11.33-.05.34-.01.17v15.23l.01-.18v.35l.05.34.11.33.17.31.2.28.26.24.28.2.32.15.33.09.34.04z" style="stroke-width:0.53;fill:#FFFFFF;fill-opacity:0.50"/><text x="92.07" y="424.57" lengthAdjust="spacingAndGlyphs" style="font-size:5.69px;font-family:&quot;Liberation Sans&quot;" text-anchor="middle" textLength="63.29">A &amp; B CAPITAL REALTY</text><text x="92.07" y="432.77" lengthAdjust="spacingAndGlyphs" style="font-size:5.69px;font-family:&quot;Liberation Sans&quot;" text-anchor="middle" textLength="10.31">LLC</text><path d="M108.04 145.28h58.3-.08l.34-.02.34-.07.33-.12.3-.17.27-.22.23-.26.19-.3.13-.32.09-.33.02-.35h0V127.9h0l-.02-.35-.09-.34-.13-.32-.19-.29-.23-.26-.27-.22-.3-.17-.33-.13-.34-.07-.26-.01h-58.3l.26.01-.34-.01-.35.04-.33.1-.32.15-.28.19-.25.24-.21.28-.16.31-.11.33-.06.34-.01.18v15.22l.01-.17v.34l.06.35.11.33.16.3.21.28.25.24.28.2.32.15.33.1.35.04z" style="stroke-width:0.53;fill:#FFFFFF;fill-opacity:0.50"/><text x="137.19" y="133.48" lengthAdjust="spacingAndGlyphs" style="font-size:5.69px;font-family:&quot;Liberation Sans&quot;" text-anchor="middle" textLength="55.42">ASHRAF ABDULLAH</text><text x="137.19" y="141.68" lengthAdjust="spacingAndGlyphs" style="font-size:5.69px;font-family:&quot;Liberation Sans&quot;" text-anchor="middle" textLength="23.03">KHALED</text><path d="M62.84 308.95h71.53-.09l.35-.02.34-.07.33-.12.3-.17.27-.22.23-.26.18-.3.14-.32.08-.33.03-.35h0v-15.22h0l-.03-.35-.08-.34-.14-.32-.18-.29-.23-.26-.27-.22-.3-.17-.33-.13-.34-.07-.26-.01H62.84l.26.01-.35-.01-.34.04-.34.1-.31.15-.29.19-.25.25-.21.27-.16.31-.11.33-.05.34-.01.18v15.22l.01-.17v.34l.05.35.11.33.16.3.21.28.25.24.29.2.31.15.34.1.34.04z" style="stroke-width:0.53;fill:#FFFFFF;fill-opacity:0.50"/><text x="98.6" y="297.15" lengthAdjust="spacingAndGlyphs" style="font-size:5.69px;font-family:&quot;Liberation Sans&quot;" text-anchor="middle" textLength="62.2">12250 N LAKE SHORE</text><text x="98.6" y="305.35" lengthAdjust="spacingAndGlyphs" style="font-size:5.69px;font-family:&quot;Liberation Sans&quot;" text-anchor="middle" textLength="68.65">DR, MEQUON, WI 53092</text><path d="M308.93 494.66h70.96-.08l.34-.01.34-.07.33-.13.3-.17.27-.22.23-.26.19-.29.13-.32.09-.34.02-.35h0v-15.22h0l-.02-.35-.09-.33-.13-.32-.19-.3-.23-.26-.27-.22-.3-.17-.33-.12-.34-.07-.26-.02h-70.96l.26.02-.35-.02-.34.04-.34.1-.31.15-.29.2-.25.24-.21.28-.16.3-.11.33-.05.35-.01.17v15.22l.01-.17v.35l.05.34.11.33.16.31.21.28.25.24.29.19.31.15.34.1.34.04z" style="stroke-width:0.53;fill:#FFFFFF;fill-opacity:0.50"/><text x="344.41" y="482.87" lengthAdjust="spacingAndGlyphs" style="font-size:5.69px;font-family:&quot;Liberation Sans&quot;" text-anchor="middle" textLength="68.08">12250 LAKE SHORE DR,</text><text x="344.41" y="491.06" lengthAdjust="spacingAndGlyphs" style="font-size:5.69px;font-family:&quot;Liberation Sans&quot;" text-anchor="middle" textLength="56.71">MEQUON, WI 53092</text><path d="M182.82 287.37h71.53-.09l.35-.02.34-.07.32-.12.31-.18.26-.22.24-.26.18-.29.14-.32.08-.34.03-.34h0v-15.22h0l-.03-.35-.08-.34-.14-.32-.18-.29-.24-.26-.26-.22-.31-.18-.32-.12-.34-.07-.26-.01h-71.53l.26.01-.35-.01-.35.04-.33.1-.31.14-.29.2-.25.24-.21.28-.16.31-.11.33-.06.34v15.4-.18.35l.06.34.11.33.16.31.21.28.25.24.29.2.31.15.33.09.35.05z" style="stroke-width:0.53;fill:#FFFFFF;fill-opacity:0.50"/><text x="218.58" y="275.57" lengthAdjust="spacingAndGlyphs" style="font-size:5.69px;font-family:&quot;Liberation Sans&quot;" text-anchor="middle" textLength="62.2">12250 N LAKE SHORE</text><text x="218.58" y="283.77" lengthAdjust="spacingAndGlyphs" style="font-size:5.69px;font-family:&quot;Liberation Sans&quot;" text-anchor="middle" textLength="68.65">DR, MEQUON, WI 53092</text><path d="M74.24 539.77h70.96-.09l.35-.01.34-.07.33-.13.3-.17.27-.22.23-.26.18-.29.14-.32.08-.34.03-.35h0v-15.22h0l-.03-.35-.08-.33-.14-.32-.18-.3-.23-.26-.27-.22-.3-.17-.33-.12-.34-.07-.26-.02H74.24l.26.02-.35-.02-.35.04-.33.1-.31.15-.29.2-.25.24-.21.28-.16.3-.11.33-.06.35v15.39-.17.35l.06.34.11.33.16.31.21.27.25.25.29.19.31.15.33.1.35.04z" style="stroke-width:0.53;fill:#FFFFFF;fill-opacity:0.50"/><text x="109.72" y="527.98" lengthAdjust="spacingAndGlyphs" style="font-size:5.69px;font-family:&quot;Liberation Sans&quot;" text-anchor="middle" textLength="68.08">12250 LAKE SHORE DR,</text><text x="109.72" y="536.17" lengthAdjust="spacingAndGlyphs" style="font-size:5.69px;font-family:&quot;Liberation Sans&quot;" text-anchor="middle" textLength="56.71">MEQUON, WI 53092</text><path d="M444.34 453.59h71.53-.09l.35-.01.34-.07.33-.13.3-.17.27-.22.23-.26.18-.29.14-.32.08-.34.03-.35h0v-15.22h0l-.03-.35-.08-.33-.14-.32-.18-.3-.23-.26-.27-.22-.3-.17-.33-.12-.34-.07-.26-.02h-71.53l.26.02-.35-.02-.34.04-.34.1-.31.15-.29.2-.25.24-.21.28-.16.3-.11.33-.05.35-.01.17v15.22l.01-.17v.35l.05.34.11.33.16.31.21.27.25.25.29.19.31.15.34.1.34.04z" style="stroke-width:0.53;fill:#FFFFFF;fill-opacity:0.50"/><text x="480.1" y="441.8" lengthAdjust="spacingAndGlyphs" style="font-size:5.69px;font-family:&quot;Liberation Sans&quot;" text-anchor="middle" textLength="62.2">12550 N LAKE SHORE</text><text x="480.1" y="449.99" lengthAdjust="spacingAndGlyphs" style="font-size:5.69px;font-family:&quot;Liberation Sans&quot;" text-anchor="middle" textLength="68.65">DR, MEQUON, WI 53092</text></g><g clip-path="url(#cpMC4wMHw1NzYuMDB8MC4wMHw1NzYuMDA=)"><circle cx="194.25" cy="97.06" r="1.95" style="stroke-width:0.71;stroke:none;fill:#F8766D"/><path d="m270.6 94.02 2.63 4.56h-5.27z" style="stroke-width:0.71;stroke:none;fill:#00BA38"/><path d="M336.57 99.01h3.91V95.1h-3.91z" style="stroke-width:0.71;stroke:none;fill:#619CFF"/><text x="208.37" y="100.22" lengthAdjust="spacingAndGlyphs" style="font-size:8.80px;font-weight:0;font-family:&quot;Nimbus Sans Narrow&quot;" textLength="48.11">mprop address</text><text x="284.72" y="100.22" lengthAdjust="spacingAndGlyphs" style="font-size:8.80px;font-weight:0;font-family:&quot;Nimbus Sans Narrow&quot;" textLength="39.69">owner name</text><text x="352.64" y="100.22" lengthAdjust="spacingAndGlyphs" style="font-size:8.80px;font-weight:0;font-family:&quot;Nimbus Sans Narrow&quot;" textLength="40.49">wdfi address</text><text x="32.63" y="65.35" lengthAdjust="spacingAndGlyphs" style="font-size:12.00px;font-weight:0;font-family:&quot;Nimbus Sans Narrow&quot;" textLength="252.12">includes 11 parcels, 14 units, and 5 distinct owner names.</text><text x="32.63" y="42.81" lengthAdjust="spacingAndGlyphs" style="font-size:18.00px;font-weight:0;font-family:&quot;Nimbus Sans Narrow&quot;" textLength="238.69">JWH INVESTMENT LLC etc Group</text></g></svg>