<svg xmlns="http://www.w3.org/2000/svg" width="576" height="672" class="svglite" viewBox="0 0 432 504"><defs><style><![CDATA[.svglite line,.svglite polyline,.svglite polygon,.svglite path,.svglite circle{fill:none;stroke:#000000;stroke-linecap:round;stroke-linejoin:round;stroke-miterlimit:10.00}]]></style></defs><rect width="100%" height="100%" style="stroke-linecap:round;stroke-linejoin:round;stroke-miterlimit:10.00;stroke:none;fill:#FFFFFF"/><defs><clipPath id="cpMC4wMHw0MzIuMDB8MC4wMHw1MDQuMDA="><path d="M0 0h432v504H0z"/></clipPath></defs><g clip-path="url(#cpMC4wMHw0MzIuMDB8MC4wMHw1MDQuMDA=)"><path d="M0 0h432v504H0z" style="stroke-width:1.07;stroke:none;fill:#FFFFFF"/></g><defs><clipPath id="cpMzIuNjN8NDAyLjExfDE0MS4yMnw0NzEuMzc="><path d="M32.63 141.22h369.48v330.15H32.63z"/></clipPath></defs><g clip-path="url(#cpMzIuNjN8NDAyLjExfDE0MS4yMnw0NzEuMzc=)"><path d="m178.21 272.5-.42-.63-.43-.61-.43-.62-.42-.61-.43-.6-.43-.6-.43-.6-.42-.59-.43-.58-.43-.59-.43-.57-.43-.58-.43-.57-.43-.56-.44-.56-.43-.55-.43-.56-.43-.54-.44-.54-.43-.54-.43-.53-.44-.53-.43-.53-.44-.52-.44-.51-.43-.51-.44-.51-.44-.5-.44-.49-.43-.5-.44-.48-.44-.49-.44-.48-.44-.47-.44-.47-.44-.47-.45-.46-.44-.45-.44-.46-.44-.44-.45-.45-.44-.44-.45-.43-.44-.43-.45-.42-.44-.42-.45-.42-.44-.41-.45-.41-.45-.4-.45-.4-.44-.39-.45-.39-.45-.39-.45-.38-.45-.37-.45-.38-.46-.36-.45-.36-.45-.36-.45-.36-.45-.34-.46-.35-.45-.34-.46-.33-.45-.33-.46-.33-.45-.32-.46-.32-.45-.31-.46-.31-.46-.31-.46-.29-.46-.3-.45-.29-.46-.29-.46-.28-.46-.27-.47-.28-.46-.26-.46-.27-.46-.26-.46-.25-.47-.25-.46-.25-.46-.24-.47-.24-.46-.23-.47-.23-.46-.22-.47-.22-.47-.21-.46-.21-.47-.21-.47-.2-.47-.19-.47-.19-.47-.19-.47-.18" style="stroke-width:1.07;stroke:#000000;stroke-opacity:0.10;stroke-linecap:butt"/><path d="m178.21 272.5-1.23-1.81-1.24-1.8-1.24-1.79-1.24-1.77-1.24-1.76-1.24-1.75-1.25-1.73-1.24-1.72-1.25-1.71-1.25-1.69-1.25-1.69-1.25-1.66-1.25-1.66-1.25-1.64-1.26-1.63-1.25-1.62-1.26-1.6-1.26-1.59-1.26-1.58-1.26-1.56-1.26-1.55-1.27-1.54-1.26-1.53-1.27-1.51-1.26-1.5-1.27-1.48-1.27-1.47-1.28-1.46-1.27-1.45-1.27-1.43-1.28-1.42-1.28-1.41-1.27-1.4-1.28-1.38-1.29-1.37-1.28-1.35-1.28-1.34-1.29-1.33-1.28-1.32-1.29-1.3-1.29-1.29-1.29-1.28-1.29-1.26-1.29-1.25-1.3-1.24-1.29-1.23-1.3-1.21-1.3-1.2-1.3-1.18-1.3-1.18-1.3-1.16-1.31-1.14-1.3-1.14-1.31-1.12-1.3-1.1-1.31-1.1-1.31-1.08-1.31-1.07-1.32-1.05-1.31-1.05-1.32-1.02-1.31-1.02-1.32-1-1.32-.99-1.32-.98-1.32-.96-1.33-.96-1.32-.93-1.33-.93-1.33-.91-1.32-.9-1.33-.88-1.34-.88-1.33-.86-1.33-.84-1.34-.84-1.33-.82-1.34-.8-1.34-.8-1.34-.78-1.35-.77-1.34-.75-1.34-.75-1.35-.73-1.35-.71-1.34-.7-1.35-.69-1.36-.68-1.35-.67-1.35-.65-1.36-.63-1.35-.63-1.36-.61-1.36-.6-1.36-.59-1.36-.57-1.37-.56-1.36-.54-1.37-.54m224.2 202.31-1.41-1.27-1.42-1.28-1.41-1.27-1.41-1.27-1.41-1.28-1.41-1.27-1.41-1.27-1.41-1.28-1.41-1.27-1.42-1.27-1.41-1.28-1.41-1.27-1.41-1.28-1.41-1.27-1.41-1.27-1.41-1.28-1.41-1.27-1.42-1.27-1.41-1.28-1.41-1.27-1.41-1.27-1.41-1.28-1.41-1.27-1.41-1.27-1.41-1.28-1.42-1.27-1.41-1.27-1.41-1.28-1.41-1.27-1.41-1.27-1.41-1.28-1.41-1.27-1.41-1.27-1.42-1.28-1.41-1.27-1.41-1.28-1.41-1.27-1.41-1.27-1.41-1.28-1.41-1.27-1.41-1.27-1.42-1.28-1.41-1.27-1.41-1.27-1.41-1.28-1.41-1.27-1.41-1.27-1.41-1.28-1.41-1.27-1.42-1.27-1.41-1.28-1.41-1.27-1.41-1.27-1.41-1.28-1.41-1.27-1.41-1.27-1.41-1.28-1.42-1.27-1.41-1.28-1.41-1.27-1.41-1.27-1.41-1.28-1.41-1.27-1.41-1.27-1.41-1.28-1.41-1.27-1.42-1.27-1.41-1.28-1.41-1.27-1.41-1.27-1.41-1.28-1.41-1.27-1.41-1.27-1.41-1.28-1.42-1.27-1.41-1.27-1.41-1.28-1.41-1.27-1.41-1.27-1.41-1.28-1.41-1.27-1.41-1.28-1.42-1.27-1.41-1.27-1.41-1.28-1.41-1.27-1.41-1.27-1.41-1.28-1.41-1.27-1.41-1.27-1.42-1.28-1.41-1.27-1.41-1.27-1.41-1.28-1.41-1.27-1.41-1.27-1.41-1.28-1.41-1.27-1.42-1.27m139.72 126.07 1.12.99 1.13.98 1.13.99 1.13.99 1.13.98 1.13.99 1.12.98 1.13.99 1.13.99 1.13.98 1.13.99 1.13.99 1.12.98 1.13.99 1.13.99 1.13.98 1.13.99 1.13.99 1.12.98 1.13.99 1.13.98 1.13.99 1.13.99 1.13.98 1.12.99 1.13.99 1.13.98 1.13.99 1.13.99 1.13.98 1.12.99 1.13.99 1.13.98 1.13.99 1.13.98 1.12.99 1.13.99 1.13.98 1.13.99 1.13.99 1.13.98 1.12.99 1.13.99 1.13.98 1.13.99 1.13.99 1.13.98 1.12.99 1.13.98 1.13.99 1.13.99 1.13.98 1.13.99 1.12.99 1.13.98 1.13.99 1.13.99 1.13.98 1.13.99 1.12.99 1.13.98 1.13.99 1.13.98 1.13.99 1.13.99 1.12.98 1.13.99 1.13.99 1.13.98 1.13.99 1.13.99 1.12.98 1.13.99 1.13.99 1.13.98 1.13.99 1.12.98 1.13.99 1.13.99 1.13.98 1.13.99 1.13.99 1.12.98 1.13.99 1.13.99 1.13.98 1.13.99 1.13.98 1.12.99 1.13.99 1.13.98 1.13.99 1.13.99 1.13.98 1.12.99 1.13.99 1.13.98 1.13.99 1.13.99" style="stroke-width:1.07;stroke:#000000;stroke-opacity:0.10;stroke-linecap:butt"/><path d="m178.21 272.5-.47-.19-.47-.18-.47-.19-.47-.2-.46-.2-.47-.21-.47-.21-.46-.21-.47-.22-.47-.22-.46-.23-.47-.23-.46-.24-.47-.24-.46-.24-.46-.26-.46-.25-.47-.26-.46-.26-.46-.27-.46-.27-.46-.28-.46-.28-.46-.29-.46-.29-.46-.29-.45-.3-.46-.31-.46-.3-.46-.32-.45-.31-.46-.33-.45-.32-.46-.33-.45-.34-.46-.34-.45-.34-.45-.35-.46-.36-.45-.35-.45-.37-.45-.36-.45-.37-.45-.38-.45-.38-.45-.38-.45-.39-.45-.4-.45-.39-.44-.41-.45-.4-.45-.42-.44-.41-.45-.42-.44-.43-.45-.43-.44-.43-.45-.44-.44-.44-.44-.45-.45-.45-.44-.46-.44-.46-.44-.47-.44-.47-.44-.47-.44-.48-.44-.48-.44-.49-.44-.49-.44-.5-.43-.5-.44-.51-.44-.51-.43-.51-.44-.52-.44-.53-.43-.52-.43-.54-.44-.53-.43-.55-.43-.54-.44-.55-.43-.56-.43-.56-.43-.56-.43-.57-.43-.57-.43-.58-.43-.58-.43-.59-.43-.59-.43-.6-.42-.6-.43-.6-.43-.61-.42-.61-.43-.62-.43-.62" style="stroke-width:1.07;stroke:#000000;stroke-opacity:0.10;stroke-linecap:butt"/><path d="m178.21 272.5-1.36-.54-1.37-.54-1.36-.56-1.36-.57-1.36-.59-1.36-.6-1.36-.61-1.36-.63-1.35-.63-1.36-.65-1.35-.67-1.35-.68-1.35-.69-1.35-.7-1.35-.71-1.34-.73-1.35-.75-1.34-.75-1.34-.77-1.34-.78-1.34-.79-1.34-.81-1.34-.82-1.33-.84-1.34-.84-1.33-.86-1.33-.88-1.33-.88-1.33-.9-1.33-.91-1.32-.93-1.33-.93-1.32-.95-1.32-.97-1.33-.98-1.31-.99-1.32-1-1.32-1.02-1.32-1.02-1.31-1.05-1.31-1.05-1.31-1.07-1.31-1.08-1.31-1.1-1.31-1.1-1.31-1.12-1.3-1.14-1.3-1.14-1.31-1.16-1.3-1.18-1.3-1.18-1.3-1.2-1.29-1.21-1.3-1.23-1.29-1.24-1.3-1.25-1.29-1.26-1.29-1.28-1.29-1.29-1.28-1.3-1.29-1.32-1.29-1.33-1.28-1.34-1.28-1.35-1.28-1.37-1.28-1.38-1.28-1.4-1.28-1.41-1.27-1.42-1.28-1.43-1.27-1.45-1.27-1.46-1.27-1.47-1.27-1.48-1.27-1.5-1.27-1.51-1.26-1.53-1.26-1.54-1.27-1.55-1.26-1.56-1.26-1.58-1.26-1.59-1.25-1.6-1.26-1.62-1.25-1.63-1.26-1.64-1.25-1.66-1.25-1.66-1.25-1.69-1.25-1.69-1.24-1.71-1.25-1.72-1.24-1.73-1.24-1.75-1.25-1.76-1.24-1.77-1.23-1.79-1.24-1.8-1.24-1.81" style="stroke-width:1.07;stroke:#000000;stroke-opacity:0.10;stroke-linecap:butt"/><path d="m49.42 156.4.77 1.61.77 1.59.77 1.58.78 1.55.77 1.54.78 1.53.78 1.5.78 1.49.78 1.47.78 1.46.79 1.44.78 1.42.79 1.4.79 1.39.8 1.37.79 1.35.8 1.33.79 1.32.8 1.3.8 1.28.81 1.27.8 1.25.81 1.23.81 1.22.81 1.19.81 1.18.81 1.17.82 1.15.81 1.12.82 1.12.82 1.09.82 1.08.83 1.06.82 1.04.83 1.03.83 1.01.83.99.83.98.84.96.83.94.84.92.84.91.84.89.84.87.85.86.84.84.85.82.85.8.85.79.86.77.85.75.86.74.86.72.86.7.86.68.86.67.87.65.87.63.87.62.87.6.87.58.87.56.88.55.88.53.88.52.88.49.88.48.89.46.88.45.89.43.89.41.89.39.9.38.89.36.9.34.9.32.9.31.9.29.9.28.91.25.9.24.91.22.91.21.92.19.91.17.92.15.92.14.91.12.93.1.92.09.92.06.93.06.93.03.93.02h.93l.93-.02.94-.03.94-.06.93-.06" style="stroke-width:1.07;stroke:#000000;stroke-opacity:0.10;stroke-linecap:butt"/><path d="m49.42 156.4.86.77.85.77.85.77.86.77.85.77.85.77.86.77.85.77.85.77.86.77.85.77.85.77.86.77.85.77.85.77.86.77.85.77.85.77.86.77.85.77.85.77.86.77.85.77.85.77.86.77.85.77.85.77.86.77.85.77.85.77.86.77.85.77.85.77.86.77.85.77.85.77.86.77.85.77.85.77.86.77.85.77.85.77.86.77.85.77.85.77.86.77.85.77.85.77.86.77.85.77.85.77.86.77.85.77.85.77.86.77.85.77.85.77.86.77.85.77.85.77.86.77.85.77.85.77.86.77.85.77.85.77.86.77.85.77.85.77.86.77.85.77.85.77.86.77.85.77.85.77.86.77.85.77.85.77.86.77.85.78.85.77.86.77.85.77.85.77.86.77.85.77.85.77.86.77.85.77.85.77.86.77.85.77.85.77.86.77.85.77.85.77.86.77.85.77.85.77" style="stroke-width:1.07;stroke:#000000;stroke-opacity:0.10;stroke-linecap:butt"/><path d="m49.42 156.4.94-.07.94-.05.93-.03.94-.02h.93l.93.02.93.03.92.05.93.07.92.09.92.1.92.12.92.14.92.15.91.17.91.19.91.2.91.23.91.24.9.25.91.28.9.29.9.31.9.32.9.34.89.36.9.38.89.39.89.41.89.43.88.45.89.46.88.48.88.49.88.52.88.53.87.54.88.57.87.58.87.6.87.62.87.63.86.65.87.67.86.68.86.7.86.72.85.74.86.75.85.77.85.79.85.8.85.82.85.84.84.86.85.87.84.89.84.91.83.92.84.94.84.96.83.97.83 1 .83 1.01.82 1.02.83 1.05.82 1.06.83 1.08.82 1.09.81 1.11.82 1.13.82 1.15.81 1.16.81 1.18.81 1.2.81 1.22.81 1.23.8 1.25.8 1.26.8 1.29.8 1.3.8 1.32.8 1.33.79 1.35.79 1.37.79 1.39.79 1.4.79 1.42.79 1.44.78 1.45.78 1.48.78 1.48.78 1.51.78 1.52.77 1.54.78 1.56.77 1.58.77 1.59.76 1.61" style="stroke-width:1.07;stroke:#000000;stroke-opacity:0.10;stroke-linecap:butt"/><path d="m178.21 264.42 7 12.12h-13.99zm95.41 92.08 1.91 3.31h-3.83z" style="stroke-width:0.71;stroke:none;fill:#00BA38"/><path d="M44.23 161.6h10.39v-10.39H44.23z" style="stroke-width:0.71;stroke:none;fill:#619CFF"/><circle cx="133.9" cy="232.64" r="6.76" style="stroke-width:0.71;stroke:none;fill:#F8766D"/><path d="M383.9 457.79h2.84v-2.85h-2.84z" style="stroke-width:0.71;stroke:none;fill:#619CFF"/><path d="m183.18 267.83-4.14 3.88m89.6 91.68 4.14-3.9M54.49 161.07l-4.23-3.89m88.73 70.77-4.24 3.91" style="stroke-width:0.53;stroke:#BFBFBF"/><path d="M166.51 267.83h55.65-.09l.35-.01.34-.07.32-.13.3-.17.27-.22.23-.26.19-.29.13-.32.09-.34.03-.35h0v-15.15h0l-.03-.35-.09-.34-.13-.32-.19-.29-.23-.26-.27-.22-.3-.17-.32-.13-.34-.07-.26-.01h-55.65l.26.01-.34-.01-.35.04-.33.1-.32.15-.28.19-.25.24-.21.28-.16.31-.11.33-.06.34-.01.18v15.15l.01-.17v.35l.06.34.11.33.16.31.21.28.25.24.28.19.32.15.33.1.35.04z" style="stroke-width:0.53;fill:#FFFFFF;fill-opacity:0.50"/><text x="194.33" y="256.04" lengthAdjust="spacingAndGlyphs" style="font-size:5.69px;font-family:Arial" text-anchor="middle" textLength="43.61">K&amp;L PROPERTY</text><text x="194.33" y="264.23" lengthAdjust="spacingAndGlyphs" style="font-size:5.69px;font-family:Arial" text-anchor="middle" textLength="52.76">MANAGEMENT LLC</text><path d="M224.78 382.86h65.44-.09l.35-.01.34-.07.32-.13.31-.17.26-.22.23-.26.19-.29.14-.32.08-.34.03-.35h0v-15.15h0l-.03-.35-.08-.34-.14-.32-.19-.29-.23-.26-.26-.22-.31-.18-.32-.12-.34-.07-.26-.01h-65.44l.26.01-.35-.01-.34.04-.34.1-.31.15-.29.19-.25.24-.21.28-.16.31-.11.33-.06.34v15.33-.17.35l.06.34.11.33.16.31.21.28.25.24.29.19.31.15.34.1.34.04z" style="stroke-width:0.53;fill:#FFFFFF;fill-opacity:0.50"/><text x="257.5" y="371.07" lengthAdjust="spacingAndGlyphs" style="font-size:5.69px;font-family:Arial" text-anchor="middle" textLength="62.56">K&amp;L PROPERTY MGMT</text><text x="257.5" y="379.26" lengthAdjust="spacingAndGlyphs" style="font-size:5.69px;font-family:Arial" text-anchor="middle" textLength="10.43">LLC</text><path d="M38.41 188.74h63.85-.08l.34-.01.34-.07.33-.12.3-.18.27-.22.23-.26.19-.29.13-.32.09-.34.02-.35h0v-23.35h0l-.02-.34-.09-.34-.13-.32-.19-.29-.23-.26-.27-.22-.3-.18-.33-.12-.34-.07-.26-.02H38.41l.26.02-.35-.01-.35.04-.33.09-.31.15-.29.2-.25.24-.21.28-.16.31-.11.33-.06.34v23.52-.17.35l.06.34.11.33.16.31.21.28.25.24.29.2.31.14.33.1.35.04z" style="stroke-width:0.53;fill:#FFFFFF;fill-opacity:0.50"/><text x="70.34" y="168.76" lengthAdjust="spacingAndGlyphs" style="font-size:5.69px;font-family:Arial" text-anchor="middle" textLength="60.98">9194 S ARBOR CREEK</text><text x="70.34" y="176.95" lengthAdjust="spacingAndGlyphs" style="font-size:5.69px;font-family:Arial" text-anchor="middle" textLength="54.64">DR, OAK CREEK, WI</text><text x="70.34" y="185.14" lengthAdjust="spacingAndGlyphs" style="font-size:5.69px;font-family:Arial" text-anchor="middle" textLength="15.8">53154</text><path d="M122.7 227.95h63.86-.09l.35-.01.34-.07.33-.13.3-.17.27-.22.23-.26.18-.3.14-.32.08-.33.03-.35h0v-23.35h0l-.03-.35-.08-.33-.14-.32-.18-.3-.23-.26-.27-.22-.3-.17-.33-.12-.34-.07-.26-.02H122.7l.26.02-.34-.02-.35.04-.33.1-.32.15-.28.2-.25.24-.21.28-.16.3-.11.33-.06.35-.01.17v23.35l.01-.17v.34l.06.35.11.33.16.31.21.27.25.24.28.2.32.15.33.1.35.04z" style="stroke-width:0.53;fill:#FFFFFF;fill-opacity:0.50"/><text x="154.63" y="207.96" lengthAdjust="spacingAndGlyphs" style="font-size:5.69px;font-family:Arial" text-anchor="middle" textLength="60.98">9194 S ARBOR CREEK</text><text x="154.63" y="216.16" lengthAdjust="spacingAndGlyphs" style="font-size:5.69px;font-family:Arial" text-anchor="middle" textLength="54.64">DR, OAK CREEK, WI</text><text x="154.63" y="224.35" lengthAdjust="spacingAndGlyphs" style="font-size:5.69px;font-family:Arial" text-anchor="middle" textLength="15.8">53154</text><path d="M316.5 466.1h61.97l-.08-.01.34-.01.35-.07.32-.12.3-.18.27-.22.23-.26.19-.29.13-.32.09-.34.02-.34h0v-15.16h0l-.02-.35-.09-.34-.13-.32-.19-.29-.23-.26-.27-.22-.3-.17-.32-.13-.35-.07-.26-.01H316.5l.26.01-.34-.01-.35.04-.33.1-.32.15-.28.2-.25.24-.21.27-.16.31-.11.33-.06.34-.01.18v15.16l.01-.18v.35l.06.34.11.33.16.31.21.28.25.24.28.2.32.14.33.1.35.04z" style="stroke-width:0.53;fill:#FFFFFF;fill-opacity:0.50"/><text x="347.49" y="454.3" lengthAdjust="spacingAndGlyphs" style="font-size:5.69px;font-family:Arial" text-anchor="middle" textLength="59.09">6323 S LAKEVIEW LN,</text><text x="347.49" y="462.5" lengthAdjust="spacingAndGlyphs" style="font-size:5.69px;font-family:Arial" text-anchor="middle" textLength="51.8">DURAND, WI 54736</text></g><g clip-path="url(#cpMC4wMHw0MzIuMDB8MC4wMHw1MDQuMDA=)"><circle cx="124.98" cy="116.15" r="1.95" style="stroke-width:0.71;stroke:none;fill:#F8766D"/><path d="m201.33 113.11 2.63 4.56h-5.26z" style="stroke-width:0.71;stroke:none;fill:#00BA38"/><path d="M267.31 118.1h3.91v-3.91h-3.91z" style="stroke-width:0.71;stroke:none;fill:#619CFF"/><text x="139.09" y="119.3" lengthAdjust="spacingAndGlyphs" style="font-size:8.80px;font-family:Arial Narrow" textLength="48.12">mprop address</text><text x="215.45" y="119.3" lengthAdjust="spacingAndGlyphs" style="font-size:8.80px;font-family:Arial Narrow" textLength="39.69">owner name</text><text x="283.38" y="119.3" lengthAdjust="spacingAndGlyphs" style="font-size:8.80px;font-family:Arial Narrow" textLength="40.5">wdfi address</text><text x="32.63" y="84.56" lengthAdjust="spacingAndGlyphs" style="font-size:12.00px;font-family:Arial Narrow" textLength="241.29">includes 3 parcels, 5 units, and 2 distinct owner names.</text><text x="32.63" y="42.78" lengthAdjust="spacingAndGlyphs" style="font-size:18.00px;font-weight:bold;font-family:Arial Narrow" textLength="307.76">K&amp;L PROPERTY MANAGEMENT LLC -- K&amp;L</text><text x="32.63" y="62.22" lengthAdjust="spacingAndGlyphs" style="font-size:18.00px;font-weight:bold;font-family:Arial Narrow" textLength="211.28">PROPERTY MGMT LLC Group</text></g></svg>