<svg xmlns="http://www.w3.org/2000/svg" width="576" height="672" viewBox="0 0 432 504"><g class="svglite"><defs><style><![CDATA[.svglite line,.svglite polyline,.svglite polygon,.svglite path,.svglite circle{fill:none;stroke:#000000;stroke-linecap:round;stroke-linejoin:round;stroke-miterlimit:10.00}.svglite text{white-space:pre}.svglite g.glyphgroup path{fill:inherit;stroke:none}]]></style></defs><rect width="100%" height="100%" style="stroke-linecap:round;stroke-linejoin:round;stroke-miterlimit:10.00;stroke:none;fill:#FFFFFF"/><defs><clipPath id="cpMC4wMHw0MzIuMDB8MC4wMHw1MDQuMDA="><path d="M0 0h432v504H0z"/></clipPath></defs><g clip-path="url(#cpMC4wMHw0MzIuMDB8MC4wMHw1MDQuMDA=)"><path d="M0 0h432v504H0z" style="stroke-width:1.07;stroke:none;fill:#FFFFFF"/></g><defs><clipPath id="cpMjkuODl8NDAyLjExfDEyMi4xNHw0NzQuMTE="><path d="M29.89 122.14h372.22v351.97H29.89z"/></clipPath></defs><g clip-path="url(#cpMjkuODl8NDAyLjExfDEyMi4xNHw0NzQuMTE=)"><path d="m46.81 287.79 1.71.1 1.71.11 1.7.1 1.71.1 1.71.11 1.71.1 1.71.11 1.71.1 1.71.11 1.71.1 1.71.11 1.71.1 1.7.1 1.71.11 1.71.1 1.71.11 1.71.1 1.71.11 1.71.1 1.71.11 1.71.1 1.71.1 1.7.11 1.71.1 1.71.11 1.71.1 1.71.11 1.71.1 1.71.1 1.71.11 1.71.1 1.71.11 1.7.1 1.71.11 1.71.1 1.71.11 1.71.1 1.71.1 1.71.11 1.71.1 1.71.11 1.71.1 1.7.11 1.71.1 1.71.11 1.71.1 1.71.1 1.71.11 1.71.1 1.71.11 1.71.1 1.71.11 1.71.1 1.7.11 1.71.1 1.71.1 1.71.11 1.71.1 1.71.11 1.71.1 1.71.11 1.71.1 1.71.11 1.7.1 1.71.1 1.71.11 1.71.1 1.71.11 1.71.1 1.71.11 1.71.1 1.71.11 1.71.1 1.7.1 1.71.11 1.71.1 1.71.11 1.71.1 1.71.11 1.71.1 1.71.1 1.71.11 1.71.1 1.7.11 1.71.1 1.71.11 1.71.1 1.71.11 1.71.1 1.71.1 1.71.11 1.71.1 1.71.11 1.7.1 1.71.11 1.71.1 1.71.11 1.71.1 1.71.1m169.19 10.34-1.66-.88-1.67-.87-1.67-.86-1.67-.84-1.67-.82-1.67-.81-1.67-.79-1.67-.77-1.67-.76-1.68-.74-1.67-.73-1.68-.71-1.68-.7-1.67-.68-1.68-.66-1.68-.65-1.68-.63-1.68-.61-1.68-.6-1.69-.58-1.68-.57-1.69-.55-1.68-.54-1.69-.52-1.68-.5-1.69-.49-1.69-.47-1.69-.46-1.69-.44-1.69-.42-1.7-.41-1.69-.39-1.69-.37-1.7-.36-1.69-.35-1.7-.33-1.7-.31-1.7-.29-1.7-.28-1.7-.27-1.7-.25-1.7-.23-1.7-.21-1.71-.2-1.7-.19-1.71-.17-1.7-.15-1.71-.13-1.71-.13-1.71-.1-1.71-.09-1.71-.07-1.71-.06-1.71-.04-1.72-.02-1.71-.01-1.72.01-1.71.02-1.72.04-1.72.05-1.71.08-1.72.08-1.72.11-1.73.11-1.72.14-1.72.15-1.73.17-1.72.18-1.73.2-1.72.21-1.73.23-1.73.25-1.73.26-1.73.28-1.73.3-1.73.31-1.73.32-1.74.35-1.73.35-1.73.38-1.74.39-1.74.41-1.74.42-1.73.44-1.74.45-1.74.47-1.75.49-1.74.5-1.74.52-1.75.53-1.74.55-1.75.57-1.74.58-1.75.6-1.75.61-1.75.63-1.75.65-1.75.66-1.75.67m76.12 159.99-.67-1.66-.68-1.67-.68-1.66-.68-1.67-.68-1.66-.68-1.66-.69-1.66-.69-1.66-.69-1.66-.69-1.65-.69-1.66-.7-1.65-.69-1.66-.7-1.65-.7-1.65-.71-1.65-.7-1.65-.71-1.65-.71-1.65-.71-1.65-.71-1.64-.72-1.65-.71-1.64-.72-1.65-.72-1.64-.73-1.64-.72-1.64-.73-1.64-.73-1.63-.73-1.64-.73-1.64-.73-1.63-.74-1.63-.74-1.64-.74-1.63-.74-1.63-.74-1.63-.75-1.63-.75-1.62-.74-1.63-.76-1.62-.75-1.63-.76-1.62-.75-1.62-.76-1.63-.76-1.62-.77-1.61-.76-1.62-.77-1.62-.77-1.62-.77-1.61-.77-1.61-.78-1.62-.77-1.61-.78-1.61-.78-1.61-.78-1.61-.79-1.61-.78-1.6-.79-1.61-.79-1.6-.79-1.61-.8-1.6-.79-1.6-.8-1.6-.8-1.6-.8-1.6-.81-1.6-.8-1.6-.81-1.59-.81-1.6-.81-1.59-.82-1.59-.81-1.59-.82-1.59-.82-1.59-.82-1.59-.82-1.59-.83-1.58-.82-1.59-.83-1.58-.83-1.59-.84-1.58-.83-1.58-.84-1.58-.83-1.58-.84-1.58-.85-1.58-.84-1.57-.85-1.58-.85-1.57-.85-1.57-.85-1.58-.85-1.57-.86-1.57-.86-1.56-.85-1.57-.87-1.57-.86-1.57" style="stroke-width:1.07;stroke:#000000;stroke-opacity:0.10;stroke-linecap:butt"/><path d="m385.19 308.46-1.68-.66-1.67-.65-1.68-.64-1.68-.63-1.69-.62-1.68-.6-1.68-.6-1.68-.58-1.69-.57-1.68-.56-1.68-.55-1.69-.54-1.69-.53-1.68-.51-1.69-.51-1.69-.49-1.69-.48-1.68-.47-1.69-.46-1.69-.44-1.7-.44-1.69-.42-1.69-.41-1.69-.4-1.7-.39-1.69-.38-1.69-.37-1.7-.35-1.7-.35-1.69-.33-1.7-.32-1.7-.31-1.7-.3-1.69-.28-1.7-.28-1.7-.26-1.71-.26-1.7-.24-1.7-.23-1.7-.22-1.71-.2-1.7-.2-1.7-.18-1.71-.18-1.7-.16-1.71-.15-1.71-.14-1.71-.12-1.7-.12-1.71-.1-1.71-.1-1.71-.08-1.71-.07-1.72-.06-1.71-.04-1.71-.04-1.71-.03-1.72-.01h-1.71l-1.72.01-1.71.02-1.72.03-1.72.05-1.72.05-1.71.07-1.72.08-1.72.09-1.72.1-1.72.11-1.73.12-1.72.14-1.72.14-1.72.16-1.73.17-1.72.18-1.73.19-1.72.21-1.73.21-1.73.23-1.72.23-1.73.25-1.73.26-1.73.28-1.73.28-1.73.29-1.73.31-1.74.32-1.73.33-1.73.34-1.74.35-1.73.36-1.74.37-1.73.39-1.74.4-1.74.41-1.73.42-1.74.43-1.74.44-1.74.45m93.07-149.65-.94 1.52-.94 1.51-.94 1.51-.94 1.51-.94 1.51-.94 1.51-.94 1.52-.94 1.51-.94 1.51-.94 1.51-.94 1.51-.94 1.51-.94 1.52-.94 1.51-.94 1.51-.94 1.51-.94 1.51-.94 1.51-.94 1.51-.94 1.52-.94 1.51-.94 1.51-.94 1.51-.94 1.51-.94 1.51-.94 1.52-.94 1.51-.94 1.51-.94 1.51-.94 1.51-.94 1.51-.94 1.52-.94 1.51-.94 1.51-.94 1.51-.94 1.51-.94 1.51-.94 1.52-.94 1.51-.94 1.51-.94 1.51-.94 1.51-.94 1.51-.94 1.52-.94 1.51-.94 1.51-.94 1.51-.94 1.51-.95 1.51-.94 1.52-.94 1.51-.94 1.51-.94 1.51-.94 1.51-.94 1.51-.94 1.51-.94 1.52-.94 1.51-.94 1.51-.94 1.51-.94 1.51-.94 1.51-.94 1.52-.94 1.51-.94 1.51-.94 1.51-.94 1.51-.94 1.51-.94 1.52-.94 1.51-.94 1.51-.94 1.51-.94 1.51-.94 1.51-.94 1.52-.94 1.51-.94 1.51-.94 1.51-.94 1.51-.94 1.51-.94 1.52-.94 1.51-.94 1.51-.94 1.51-.94 1.51-.94 1.51-.94 1.52-.94 1.51-.94 1.51-.94 1.51-.94 1.51-.94 1.51-.94 1.51-.94 1.52-.94 1.51-.94 1.51-.94 1.51-.94 1.51-.94 1.51m-93.07 149.66.94-1.52.94-1.51.94-1.51.94-1.51.94-1.51.94-1.51.94-1.52.94-1.51.94-1.51.94-1.51.94-1.51.94-1.51.94-1.52.94-1.51.94-1.51.94-1.51.94-1.51.94-1.51.94-1.52.94-1.51.94-1.51.94-1.51.94-1.51.94-1.51.94-1.52.94-1.51.94-1.51.94-1.51.94-1.51.94-1.51.94-1.52.94-1.51.94-1.51.94-1.51.94-1.51.94-1.51.94-1.51.94-1.52.94-1.51.94-1.51.94-1.51.94-1.51.94-1.51.94-1.52.94-1.51.94-1.51.94-1.51.94-1.51.95-1.51.94-1.52.94-1.51.94-1.51.94-1.51.94-1.51.94-1.51.94-1.52.94-1.51.94-1.51.94-1.51.94-1.51.94-1.51.94-1.52.94-1.51.94-1.51.94-1.51.94-1.51.94-1.51.94-1.52.94-1.51.94-1.51.94-1.51.94-1.51.94-1.51.94-1.51.94-1.52.94-1.51.94-1.51.94-1.51.94-1.51.94-1.51.94-1.52.94-1.51.94-1.51.94-1.51.94-1.51.94-1.51.94-1.52.94-1.51.94-1.51.94-1.51.94-1.51.94-1.51.94-1.52.94-1.51.94-1.51.94-1.51.94-1.51.94-1.51.94-1.52" style="stroke-width:1.07;stroke:#000000;stroke-opacity:0.10;stroke-linecap:butt"/><path d="m385.19 308.46-1.69-.44-1.69-.43-1.69-.43-1.69-.41-1.69-.42-1.7-.4-1.69-.4-1.69-.39-1.7-.39-1.69-.38-1.7-.37-1.69-.36-1.7-.36-1.69-.35-1.7-.34-1.69-.34-1.7-.33-1.7-.32-1.69-.32-1.7-.31-1.7-.3-1.7-.3-1.7-.29-1.7-.28-1.7-.27-1.7-.27-1.7-.27-1.7-.25-1.7-.25-1.7-.24-1.7-.23-1.7-.23-1.71-.22-1.7-.22-1.7-.2-1.71-.2-1.7-.2-1.71-.18-1.7-.18-1.71-.18-1.7-.16-1.71-.16-1.7-.15-1.71-.15-1.71-.14-1.71-.13-1.7-.12-1.71-.12-1.71-.11-1.71-.11-1.71-.1-1.71-.09-1.71-.08-1.71-.08-1.71-.07-1.71-.06-1.71-.06-1.72-.05-1.71-.04-1.71-.04-1.71-.02-1.72-.03-1.71-.01-1.72-.01h-3.42l-1.72.01-1.72.02-1.71.03-1.72.03-1.72.04-1.71.05-1.72.05-1.72.06-1.72.06-1.72.08-1.71.08-1.72.09-1.72.09-1.72.1-1.72.11-1.73.11-1.72.12-1.72.13-1.72.14-1.72.14-1.73.15-1.72.15-1.72.17-1.73.16-1.72.18-1.73.18-1.72.19-1.73.2-1.72.2-1.73.21-1.73.22-1.72.22-1.73.23m76.12 159.99-.86-1.56-.86-1.57-.86-1.57-.86-1.57-.86-1.57-.85-1.57-.85-1.57-.85-1.57-.85-1.58-.85-1.57-.84-1.58-.84-1.57-.84-1.58-.84-1.58-.84-1.58-.83-1.58-.83-1.58-.84-1.59-.82-1.58-.83-1.59-.83-1.58-.82-1.59-.82-1.59-.82-1.59-.82-1.59-.81-1.59-.81-1.59-.82-1.6-.81-1.59-.8-1.6-.81-1.59-.8-1.6-.8-1.6-.8-1.6-.8-1.6-.8-1.6-.79-1.6-.79-1.61-.79-1.6-.79-1.61-.79-1.6-.78-1.61-.79-1.61-.78-1.61-.77-1.61-.78-1.61-.78-1.62-.77-1.61-.77-1.62-.77-1.61-.77-1.62-.76-1.62-.76-1.62-.76-1.62-.76-1.62-.76-1.62-.76-1.62-.75-1.63-.75-1.62-.75-1.63-.75-1.63-.74-1.63-.75-1.62-.74-1.63-.74-1.64-.74-1.63-.73-1.63-.74-1.64-.73-1.63-.73-1.64-.73-1.64-.73-1.64-.72-1.63-.72-1.65-.72-1.64-.72-1.64-.72-1.64-.71-1.65-.72-1.64-.71-1.65-.71-1.65-.7-1.65-.71-1.65-.7-1.65-.7-1.65-.7-1.65-.7-1.66-.7-1.65-.69-1.66-.69-1.66-.69-1.65-.69-1.66-.69-1.66-.68-1.66-.68-1.67-.68-1.66-.68-1.66-.68-1.67-.67-1.67m-76.12-159.98.77 1.61.76 1.62.77 1.61.77 1.62.77 1.62.77 1.61.77 1.62.77 1.61.77 1.62.77 1.62.77 1.61.76 1.62.77 1.61.77 1.62.77 1.62.77 1.61.77 1.62.77 1.61.77 1.62.77 1.62.76 1.61.77 1.62.77 1.62.77 1.61.77 1.62.77 1.61.77 1.62.77 1.62.77 1.61.76 1.62.77 1.61.77 1.62.77 1.62.77 1.61.77 1.62.77 1.61.77 1.62.77 1.62.76 1.61.77 1.62.77 1.61.77 1.62.77 1.62.77 1.61.77 1.62.77 1.61.77 1.62.77 1.62.76 1.61.77 1.62.77 1.61.77 1.62.77 1.62.77 1.61.77 1.62.77 1.61.77 1.62.76 1.62.77 1.61.77 1.62.77 1.61.77 1.62.77 1.62.77 1.61.77 1.62.77 1.62.76 1.61.77 1.62.77 1.61.77 1.62.77 1.62.77 1.61.77 1.62.77 1.61.77 1.62.76 1.62.77 1.61.77 1.62.77 1.61.77 1.62.77 1.62.77 1.61.77 1.62.77 1.61.77 1.62.76 1.62.77 1.61.77 1.62.77 1.61.77 1.62.77 1.62.77 1.61.77 1.62.77 1.61.76 1.62.77 1.62.77 1.61.77 1.62.77 1.61" style="stroke-width:1.07;stroke:#000000;stroke-opacity:0.10;stroke-linecap:butt"/><path d="m385.19 308.46-1.7-.21-1.7-.22-1.71-.21-1.7-.21-1.7-.21-1.71-.2-1.7-.2-1.7-.2-1.71-.2-1.7-.2-1.71-.19-1.7-.19-1.7-.19-1.71-.19-1.7-.18-1.71-.18-1.7-.18-1.71-.18-1.7-.17-1.71-.18-1.7-.17-1.71-.17-1.71-.16-1.7-.17-1.71-.16-1.7-.16-1.71-.15-1.71-.16-1.7-.15-1.71-.15-1.71-.15-1.7-.14-1.71-.15-1.71-.14-1.7-.14-1.71-.13-1.71-.14-1.71-.13-1.7-.13-1.71-.12-1.71-.13-1.71-.12-1.7-.12-1.71-.12-1.71-.12-1.71-.11-1.71-.11-1.71-.11-1.71-.11-1.71-.1-1.7-.1-1.71-.1-1.71-.1-1.71-.1-1.71-.09-1.71-.09-1.71-.09-1.71-.08-1.71-.09-1.71-.08-1.71-.08-1.71-.08-1.71-.07-1.71-.07-1.72-.07-1.71-.07-1.71-.07-1.71-.06-1.71-.06-1.71-.06-1.71-.06-1.72-.05-1.71-.05-1.71-.05-1.71-.05-1.71-.05-1.72-.04-1.71-.04-1.71-.04-1.71-.03-1.72-.04-1.71-.03-1.71-.03-1.72-.03-1.71-.02-1.71-.02-1.72-.02-1.71-.02-1.71-.02-1.72-.01-1.71-.01-1.72-.01h-1.71l-1.72-.01h-5.14l-1.71.01H216" style="stroke-width:1.07;stroke:#000000;stroke-opacity:0.10;stroke-linecap:butt"/><path d="m385.19 308.46-1.71.01h-1.72l-1.71.01h-3.43l-1.72-.01h-1.71l-1.71-.01-1.72-.01-1.71-.02-1.72-.01-1.71-.02-1.71-.02-1.72-.02-1.71-.03-1.71-.02-1.72-.03-1.71-.03-1.71-.04-1.72-.03-1.71-.04-1.71-.04-1.71-.05-1.72-.04-1.71-.05-1.71-.05-1.71-.05-1.71-.05-1.72-.06-1.71-.06-1.71-.06-1.71-.06-1.71-.07-1.71-.07-1.71-.07-1.71-.07-1.71-.08-1.71-.07-1.71-.08-1.72-.08-1.71-.09-1.71-.08-1.71-.09-1.7-.09-1.71-.1-1.71-.09-1.71-.1-1.71-.1-1.71-.1-1.71-.11-1.71-.1-1.71-.11-1.71-.11-1.71-.12-1.7-.11-1.71-.12-1.71-.12-1.71-.12-1.71-.13-1.7-.13-1.71-.12-1.71-.14-1.71-.13-1.7-.14-1.71-.14-1.71-.14-1.71-.14-1.7-.15-1.71-.14-1.71-.15-1.7-.16-1.71-.15-1.7-.16-1.71-.16-1.71-.16-1.7-.16-1.71-.17-1.7-.17-1.71-.17-1.7-.17-1.71-.17-1.7-.18-1.71-.18-1.7-.18-1.71-.19-1.7-.18-1.71-.19-1.7-.19-1.71-.2-1.7-.19-1.7-.2-1.71-.2-1.7-.2-1.7-.21-1.71-.2-1.7-.21-1.7-.22-1.71-.21-1.7-.22" style="stroke-width:1.07;stroke:#000000;stroke-opacity:0.10;stroke-linecap:butt"/><path d="m385.19 308.46-1.72.23-1.73.23-1.73.21-1.72.21-1.73.21-1.73.19-1.72.19-1.73.19-1.72.17-1.72.17-1.73.16-1.72.16-1.72.15-1.73.14-1.72.14-1.72.12-1.72.12-1.72.12-1.72.11-1.72.1-1.72.09-1.72.09-1.72.08-1.72.07-1.72.07-1.72.06-1.71.05-1.72.05-1.72.04-1.72.03-1.71.02-1.72.02-1.71.02h-3.43l-1.72-.01-1.71-.02-1.71-.02-1.72-.03-1.71-.03-1.71-.05-1.71-.05-1.72-.05-1.71-.07-1.71-.07-1.71-.07-1.71-.09-1.71-.09-1.71-.1-1.71-.1-1.71-.11-1.7-.12-1.71-.12-1.71-.14-1.71-.13-1.7-.15-1.71-.15-1.71-.16-1.7-.17-1.71-.17-1.7-.18-1.71-.19-1.7-.19-1.7-.2-1.71-.21-1.7-.21-1.7-.22-1.71-.23-1.7-.23-1.7-.24-1.7-.25-1.7-.26-1.7-.26-1.7-.27-1.7-.27-1.7-.29-1.7-.28-1.7-.3-1.7-.3-1.69-.31-1.7-.32-1.7-.32-1.69-.33-1.7-.34-1.7-.34-1.69-.35-1.7-.36-1.69-.37-1.7-.37-1.69-.38-1.69-.38-1.7-.39-1.69-.4-1.69-.41-1.7-.41-1.69-.42-1.69-.42-1.69-.44-1.69-.44" style="stroke-width:1.07;stroke:#000000;stroke-opacity:0.10;stroke-linecap:butt"/><path d="m385.19 308.46-1.74.46-1.74.44-1.73.43-1.74.42-1.74.41-1.74.4-1.73.38-1.74.38-1.73.36-1.74.35-1.73.34-1.73.33-1.73.32-1.73.3-1.74.3-1.73.28-1.73.27-1.72.26-1.73.25-1.73.24-1.73.23-1.72.21-1.73.2-1.73.2-1.72.18-1.72.17-1.73.15-1.72.15-1.72.14-1.72.12-1.72.11-1.72.1-1.72.09-1.72.08-1.72.07-1.72.05-1.72.04-1.71.04-1.72.02-1.71.01h-1.72l-1.71-.02-1.72-.02-1.71-.04-1.71-.05-1.71-.05-1.71-.07-1.71-.09-1.71-.09-1.71-.1-1.71-.12-1.71-.13-1.71-.14-1.7-.15-1.71-.16-1.7-.17-1.71-.18-1.7-.2-1.71-.21-1.7-.21-1.7-.23-1.7-.25-1.7-.25-1.7-.26-1.7-.28-1.7-.28-1.7-.3-1.7-.31-1.7-.32-1.69-.34-1.7-.34-1.69-.36-1.7-.36-1.69-.38-1.7-.39-1.69-.4-1.69-.41-1.69-.43-1.69-.43-1.69-.45-1.69-.46-1.69-.46-1.69-.49-1.69-.49-1.68-.5-1.69-.52-1.69-.52-1.68-.54-1.69-.55-1.68-.56-1.68-.57-1.69-.58-1.68-.6-1.68-.6-1.68-.62-1.68-.63-1.68-.64-1.68-.65-1.68-.67" style="stroke-width:1.07;stroke:#000000;stroke-opacity:0.10;stroke-linecap:butt"/><path d="m385.19 308.46-1.75.68-1.75.66-1.75.65-1.75.63-1.75.61-1.75.6-1.74.58-1.75.57-1.74.55-1.75.53-1.74.52-1.74.5-1.74.49-1.74.47-1.74.45-1.74.44-1.74.42-1.74.41-1.73.39-1.74.37-1.73.36-1.74.34-1.73.33-1.73.31-1.73.3-1.73.27-1.73.27-1.73.24-1.73.23-1.72.22-1.73.2-1.72.18-1.73.17-1.72.15-1.72.13-1.72.12-1.72.11-1.72.08-1.72.07-1.72.06-1.72.04-1.71.02-1.72.01-1.71-.01-1.71-.03-1.72-.04-1.71-.05-1.71-.07-1.71-.09-1.71-.11-1.71-.12-1.7-.13-1.71-.16-1.71-.16-1.7-.19-1.7-.2-1.71-.22-1.7-.23-1.7-.25-1.7-.26-1.7-.28-1.7-.3-1.7-.31-1.69-.33-1.7-.34-1.69-.36-1.7-.37-1.69-.4-1.69-.4-1.7-.43-1.69-.44-1.69-.45-1.68-.47-1.69-.49-1.69-.51-1.69-.51-1.68-.54-1.69-.55-1.68-.57-1.68-.58-1.68-.6-1.69-.62-1.68-.63-1.68-.64-1.67-.67-1.68-.68-1.68-.69-1.67-.71-1.68-.73-1.67-.74-1.68-.76-1.67-.78-1.67-.79-1.67-.8-1.67-.83-1.67-.83-1.67-.86-1.66-.87-1.67-.89" style="stroke-width:1.07;stroke:#000000;stroke-opacity:0.10;stroke-linecap:butt"/><path d="m46.81 285.58 1.91 3.31h-3.83zm338.38 14.58 7.19 12.45h-14.37zM292.12 453.6l3.91 6.77h-7.81zm16.95-307.34 1.91 3.32h-3.82zm-186.14 299.3 1.91 3.32h-3.82zm16.95-309.63 1.91 3.31h-3.83z" style="stroke-width:0.71;stroke:none;fill:#00BFC4"/><circle cx="216" cy="298.12" r="6.76" style="stroke-width:0.71;stroke:none;fill:#F8766D"/><path d="m51.55 287.8-3.68-.01m332.64 20.35 3.62.25m-96.75 152.06 3.79-1.86m13.19-305.43 3.95-3.93M127.44 443.09l-3.77 3.92m21.03-304.17-4.06-3.96m80.1 154.53-3.98 3.96" style="stroke-width:0.53;stroke:#BFBFBF"/><path d="M53.71 297.45h53.01-.09l.35-.01.34-.07.32-.13.31-.17.26-.22.23-.26.19-.29.14-.32.08-.34.03-.35h0V280.3h0l-.03-.34-.08-.34-.14-.32-.19-.3-.23-.26-.26-.22-.31-.17-.32-.12-.34-.07-.26-.02H53.71l.26.02-.34-.02-.35.05-.33.09-.32.15-.28.2-.25.24-.21.28-.16.31-.11.32-.06.35-.01.17v14.99l.01-.17v.35l.06.34.11.33.16.31.21.28.25.24.28.19.32.15.33.1.35.04z" style="stroke-width:0.53;fill:#FFFFFF;fill-opacity:0.50"/><text x="80.22" y="285.66" lengthAdjust="spacingAndGlyphs" style="font-size:5.69px;font-family:&quot;Liberation Sans&quot;" text-anchor="middle" textLength="48.98">DIA MOUA XIONG,</text><text x="80.22" y="293.85" lengthAdjust="spacingAndGlyphs" style="font-size:5.69px;font-family:&quot;Liberation Sans&quot;" text-anchor="middle" textLength="50.12">STANLEY T XIONG</text><path d="M330.58 313.69h47.77-.08l.35-.01.34-.07.32-.12.3-.18.27-.22.23-.26.19-.29.13-.32.09-.34.02-.35h0v-6.79h0l-.02-.35-.09-.34-.13-.32-.19-.29-.23-.26-.27-.22-.3-.17-.32-.13-.34-.07-.27-.01h-47.77l.26.01-.34-.01-.35.04-.33.1-.32.15-.28.19-.25.25-.21.27-.16.31-.11.33-.06.34-.01.18v6.79l.01-.17v.35l.06.34.11.33.16.31.21.28.25.24.28.2.32.14.33.1.35.04z" style="stroke-width:0.53;fill:#FFFFFF;fill-opacity:0.50"/><text x="354.47" y="310.09" lengthAdjust="spacingAndGlyphs" style="font-size:5.69px;font-family:&quot;Liberation Sans&quot;" text-anchor="middle" textLength="44.89">KA HOUA XIONG</text><path d="M229.58 470.51h55.64-.08l.34-.01.34-.07.33-.13.3-.17.27-.22.23-.26.18-.29.14-.32.08-.34.03-.35h0v-14.99h0l-.03-.35-.08-.33-.14-.32-.18-.3-.23-.26-.27-.22-.3-.17-.33-.12-.34-.07-.26-.02h-55.64l.26.02-.35-.02-.35.04-.33.1-.31.15-.29.2-.25.24-.21.28-.16.3-.11.33-.06.35v15.16-.17.35l.06.34.11.33.16.31.21.27.25.25.29.19.31.15.33.1.35.04z" style="stroke-width:0.53;fill:#FFFFFF;fill-opacity:0.50"/><text x="257.4" y="458.72" lengthAdjust="spacingAndGlyphs" style="font-size:5.69px;font-family:&quot;Liberation Sans&quot;" text-anchor="middle" textLength="52.77">STANLEY TSIMOUA</text><text x="257.4" y="466.91" lengthAdjust="spacingAndGlyphs" style="font-size:5.69px;font-family:&quot;Liberation Sans&quot;" text-anchor="middle" textLength="18.33">XIONG</text><path d="M259.16 172.47h69.48-.09l.35-.02.34-.07.32-.12.3-.17.27-.22.23-.26.19-.3.13-.32.09-.33.03-.35h0v-14.99h0l-.03-.35-.09-.34-.13-.32-.19-.29-.23-.26-.27-.22-.3-.17-.32-.13-.34-.07-.26-.01h-69.48l.26.01-.35-.01-.34.04-.33.1-.32.15-.28.19-.26.25-.2.27-.17.31-.11.33-.05.34-.01.18v14.99l.01-.18v.35l.05.35.11.33.17.3.2.28.26.24.28.2.32.15.33.09.34.05z" style="stroke-width:0.53;fill:#FFFFFF;fill-opacity:0.50"/><text x="293.9" y="160.67" lengthAdjust="spacingAndGlyphs" style="font-size:5.69px;font-family:&quot;Liberation Sans&quot;" text-anchor="middle" textLength="66.59">KA HOUA XIONG, KATHY</text><text x="293.9" y="168.87" lengthAdjust="spacingAndGlyphs" style="font-size:5.69px;font-family:&quot;Liberation Sans&quot;" text-anchor="middle" textLength="21.08">X VANG</text><path d="M114.33 443.09h38.91-.08l.34-.02.34-.07.33-.12.3-.17.27-.22.23-.26.19-.3.13-.32.09-.33.02-.35h0v-6.8h0l-.02-.34-.09-.34-.13-.32-.19-.3-.23-.26-.27-.22-.3-.17-.33-.12-.34-.07-.26-.02h-38.91l.26.02-.34-.02-.35.05-.33.09-.32.15-.28.2-.25.24-.21.28-.16.31-.11.33-.06.34-.01.17v6.8l.01-.17v.34l.06.35.11.33.16.3.21.28.25.24.28.2.32.15.33.1.35.04z" style="stroke-width:0.53;fill:#FFFFFF;fill-opacity:0.50"/><text x="133.79" y="439.49" lengthAdjust="spacingAndGlyphs" style="font-size:5.69px;font-family:&quot;Liberation Sans&quot;" text-anchor="middle" textLength="36.03">YENG XIONG</text><path d="M124.45 170.35h69.88l-.09-.01.35-.01.34-.07.32-.12.3-.18.27-.22.23-.26.19-.29.14-.32.08-.34.03-.34h0V145h0l-.03-.35-.08-.33-.14-.32-.19-.3-.23-.26-.27-.22-.3-.17-.32-.13-.34-.06-.26-.02h-69.88l.26.02-.35-.02-.35.04-.33.1-.31.15-.29.2-.25.24-.21.28-.16.3-.11.33-.06.35v23.36-.18.35l.06.34.11.33.16.31.21.28.25.24.29.2.31.14.33.1.35.04z" style="stroke-width:0.53;fill:#FFFFFF;fill-opacity:0.50"/><text x="159.39" y="150.36" lengthAdjust="spacingAndGlyphs" style="font-size:5.69px;font-family:&quot;Liberation Sans&quot;" text-anchor="middle" textLength="58.17">YENG XIONG NKA KA</text><text x="159.39" y="158.55" lengthAdjust="spacingAndGlyphs" style="font-size:5.69px;font-family:&quot;Liberation Sans&quot;" text-anchor="middle" textLength="67">HOUA XIONG, DIA MOUA</text><text x="159.39" y="166.75" lengthAdjust="spacingAndGlyphs" style="font-size:5.69px;font-family:&quot;Liberation Sans&quot;" text-anchor="middle" textLength="18.33">XIONG</text><path d="M199.26 293.41h63.85-.09l.35-.01.34-.07.33-.13.3-.17.27-.22.23-.26.18-.29.14-.32.08-.34.03-.35h0v-14.99h0l-.03-.35-.08-.33-.14-.32-.18-.3-.23-.26-.27-.22-.3-.17-.33-.12-.34-.07-.26-.02h-63.85l.26.02-.34-.02-.35.04-.33.1-.32.15-.28.2-.25.24-.21.28-.16.3-.11.33-.06.35-.01.17v14.99l.01-.17v.35l.06.34.11.33.16.31.21.27.25.24.28.2.32.15.33.1.35.04z" style="stroke-width:0.53;fill:#FFFFFF;fill-opacity:0.50"/><text x="231.19" y="281.62" lengthAdjust="spacingAndGlyphs" style="font-size:5.69px;font-family:&quot;Liberation Sans&quot;" text-anchor="middle" textLength="43.58">1953 N 34TH ST,</text><text x="231.19" y="289.81" lengthAdjust="spacingAndGlyphs" style="font-size:5.69px;font-family:&quot;Liberation Sans&quot;" text-anchor="middle" textLength="60.97">MILWAUKEE, WI 53208</text></g><g clip-path="url(#cpMC4wMHw0MzIuMDB8MC4wMHw1MDQuMDA=)"><circle cx="155.2" cy="97.06" r="1.95" style="stroke-width:0.71;stroke:none;fill:#F8766D"/><path d="m231.6 94.02 2.63 4.56h-5.26z" style="stroke-width:0.71;stroke:none;fill:#00BFC4"/><text x="169.32" y="100.22" lengthAdjust="spacingAndGlyphs" style="font-size:8.80px;font-weight:0;font-family:&quot;Nimbus Sans Narrow&quot;" textLength="48.16">mprop address</text><text x="245.72" y="100.22" lengthAdjust="spacingAndGlyphs" style="font-size:8.80px;font-weight:0;font-family:&quot;Nimbus Sans Narrow&quot;" textLength="39.72">owner name</text><text x="29.89" y="65.35" lengthAdjust="spacingAndGlyphs" style="font-size:12.00px;font-weight:0;font-family:&quot;Nimbus Sans Narrow&quot;" textLength="252.11">includes 14 parcels, 25 units, and 6 distinct owner names.</text><text x="29.89" y="42.81" lengthAdjust="spacingAndGlyphs" style="font-size:18.00px;font-weight:0;font-family:&quot;Nimbus Sans Narrow&quot;" textLength="194.36">KA HOUA XIONG etc Group</text></g></g></svg>