<svg xmlns="http://www.w3.org/2000/svg" width="576" height="672" class="svglite" viewBox="0 0 432 504"><defs><style><![CDATA[.svglite line,.svglite polyline,.svglite polygon,.svglite path,.svglite circle{fill:none;stroke:#000000;stroke-linecap:round;stroke-linejoin:round;stroke-miterlimit:10.00}.svglite text{white-space:pre}]]></style></defs><rect width="100%" height="100%" style="stroke-linecap:round;stroke-linejoin:round;stroke-miterlimit:10.00;stroke:none;fill:#FFFFFF"/><defs><clipPath id="cpMC4wMHw0MzIuMDB8MC4wMHw1MDQuMDA="><path d="M0 0h432v504H0z"/></clipPath></defs><g clip-path="url(#cpMC4wMHw0MzIuMDB8MC4wMHw1MDQuMDA=)"><path d="M0 0h432v504H0z" style="stroke-width:1.07;stroke:none;fill:#FFFFFF"/></g><defs><clipPath id="cpMzIuNjN8NDAyLjExfDEyMC44Nnw0NzEuMzc="><path d="M32.63 120.86h369.48v350.51H32.63z"/></clipPath></defs><g clip-path="url(#cpMzIuNjN8NDAyLjExfDEyMC44Nnw0NzEuMzc=)"><path d="m378.93 400.12-.97-1.63-.98-1.61-.99-1.6-1-1.59-1.02-1.57-1.02-1.57-1.03-1.55-1.04-1.54-1.05-1.53-1.07-1.51-1.07-1.51-1.08-1.49-1.1-1.48-1.1-1.47-1.11-1.46-1.13-1.44-1.13-1.43-1.14-1.42-1.16-1.41-1.16-1.4-1.18-1.38-1.18-1.37-1.2-1.36-1.2-1.35-1.22-1.33-1.22-1.33-1.24-1.31-1.25-1.3-1.25-1.29-1.27-1.27-1.28-1.27-1.28-1.25-1.3-1.24-1.31-1.22-1.32-1.22-1.32-1.2-1.34-1.19-1.35-1.18-1.36-1.17-1.37-1.16-1.38-1.14-1.39-1.13-1.39-1.12-1.41-1.11-1.42-1.09-1.43-1.09-1.44-1.07-1.45-1.06-1.46-1.04-1.47-1.04-1.49-1.02-1.49-1.01-1.5-1-1.51-.99-1.52-.97-1.53-.97-1.54-.95-1.56-.94-1.56-.92-1.57-.92-1.59-.9-1.59-.89-1.6-.88-1.62-.87-1.62-.85-1.63-.84-1.65-.83-1.65-.82-1.67-.81-1.67-.79-1.69-.79-1.69-.77-1.71-.76-1.71-.74-1.73-.74-1.73-.72-1.75-.71-1.76-.7-1.76-.68-1.78-.68-1.79-.66-1.79-.65-1.81-.64-1.82-.62-1.83-.62-1.83-.6-1.85-.59-1.86-.58-1.87-.56-1.88-.56-1.89-.54-1.9-.53-1.9-.52-1.92-.5-1.93-.5-1.94-.48-1.95-.47-1.96-.46-1.97-.44m151.98-94.47-1.6.88-1.59.88-1.59.88-1.59.88-1.58.89-1.59.88-1.59.89-1.58.89-1.59.89-1.58.89-1.58.89-1.58.9-1.58.89-1.57.9-1.58.9-1.58.9-1.57.9-1.57.91-1.57.9-1.57.91-1.57.91-1.57.91-1.57.91-1.56.91-1.57.92-1.56.91-1.57.92-1.56.92-1.56.92-1.55.93-1.56.92-1.56.93-1.55.92-1.56.93-1.55.93-1.55.93-1.55.94-1.55.93-1.55.94-1.55.94-1.54.94-1.55.94-1.54.94-1.54.95-1.54.95-1.54.94-1.54.95-1.54.95-1.54.96-1.53.95-1.54.96-1.53.95-1.53.96-1.53.96-1.53.96-1.53.97-1.52.96-1.53.97-1.53.97-1.52.97-1.52.97-1.52.97-1.52.98-1.52.97-1.52.98-1.51.98-1.52.98-1.51.98-1.52.99-1.51.98-1.51.99-1.51.99-1.51.99-1.5.99-1.51.99-1.5 1-1.51 1-1.5.99-1.5 1-1.5 1.01-1.5 1-1.5 1-1.49 1.01-1.5 1.01-1.49 1-1.49 1.02-1.5 1.01-1.49 1.01-1.49 1.02-1.48 1.01-1.49 1.02-1.49 1.02-1.48 1.02-1.49 1.03-1.48 1.02-1.48 1.03-1.48 1.03-1.48 1.03-1.47 1.03" style="stroke-width:1.07;stroke:#000000;stroke-opacity:0.10;stroke-linecap:butt"/><path d="m378.93 400.12-1.1-1.48-1.1-1.47-1.11-1.46-1.12-1.45-1.13-1.44-1.13-1.43-1.14-1.42-1.15-1.42-1.16-1.4-1.16-1.4-1.17-1.38-1.18-1.38-1.19-1.37-1.2-1.36-1.2-1.35-1.21-1.34-1.22-1.34-1.22-1.32-1.24-1.31-1.24-1.31-1.25-1.3-1.25-1.28-1.27-1.28-1.27-1.27-1.28-1.26-1.29-1.25-1.29-1.25-1.3-1.23-1.31-1.22-1.32-1.22-1.33-1.21-1.33-1.19-1.34-1.19-1.35-1.18-1.35-1.17-1.37-1.16-1.37-1.16-1.38-1.14-1.38-1.13-1.4-1.13-1.4-1.12-1.41-1.1-1.42-1.1-1.42-1.09-1.43-1.08-1.44-1.07-1.45-1.06-1.46-1.06-1.46-1.04-1.47-1.04-1.48-1.02-1.48-1.02-1.5-1.01-1.5-1-1.51-.99-1.51-.98-1.53-.97-1.53-.96-1.54-.96-1.55-.94-1.55-.94-1.56-.92-1.57-.92-1.58-.91-1.59-.9-1.59-.89-1.6-.88-1.61-.87-1.62-.87-1.62-.85-1.63-.85-1.64-.83-1.65-.83-1.65-.82-1.66-.81-1.67-.8-1.68-.79-1.68-.78-1.7-.78-1.7-.76-1.7-.76-1.72-.74-1.72-.74-1.73-.73-1.74-.72-1.75-.71-1.75-.7-1.76-.69-1.77-.69-1.78-.67-1.78-.67-1.8-.65-1.8-.65-1.8-.64-1.82-.63-1.82-.62-1.83-.61-1.84-.6-1.84-.59" style="stroke-width:1.07;stroke:#000000;stroke-opacity:0.10;stroke-linecap:butt"/><path d="m378.93 400.12-1.22-1.33-1.23-1.33-1.23-1.31-1.23-1.31-1.24-1.31-1.25-1.3-1.25-1.29-1.26-1.29-1.26-1.28-1.27-1.28-1.27-1.27-1.28-1.26-1.28-1.26-1.28-1.25-1.3-1.25-1.29-1.24-1.31-1.23-1.3-1.23-1.32-1.22-1.31-1.21-1.33-1.21-1.32-1.21-1.34-1.19-1.33-1.2-1.35-1.18-1.35-1.18-1.35-1.17-1.36-1.17-1.36-1.16-1.37-1.16-1.37-1.15-1.38-1.14-1.39-1.14-1.39-1.13-1.39-1.12-1.4-1.12-1.4-1.12-1.41-1.1-1.42-1.11-1.42-1.09-1.42-1.09-1.43-1.08-1.44-1.08-1.44-1.07-1.44-1.07-1.45-1.06-1.46-1.05-1.46-1.05-1.46-1.04-1.47-1.03-1.48-1.03-1.48-1.02-1.49-1.02-1.49-1.01-1.49-1.01-1.5-1-1.51-.99-1.51-.99-1.52-.98-1.52-.97-1.53-.97-1.53-.96-1.54-.96-1.54-.95-1.55-.95-1.55-.94-1.56-.93-1.56-.92-1.57-.93-1.57-.91-1.58-.91-1.58-.9-1.59-.9-1.59-.89-1.6-.88-1.6-.88-1.61-.88-1.61-.86-1.62-.86-1.63-.86-1.62-.85-1.64-.84-1.64-.84-1.64-.83-1.65-.82-1.65-.82-1.66-.81-1.67-.81-1.67-.8-1.67-.79-1.68-.79-1.69-.78-1.69-.78-1.69-.77-1.7-.77-1.71-.75-1.71-.76-1.71-.74-1.72-.74" style="stroke-width:1.07;stroke:#000000;stroke-opacity:0.10;stroke-linecap:butt"/><path d="m378.93 400.12-1.35-1.18-1.34-1.18-1.36-1.18-1.35-1.17-1.35-1.17-1.36-1.17-1.36-1.17-1.37-1.16-1.36-1.16-1.37-1.15-1.37-1.15-1.38-1.15-1.37-1.15-1.38-1.14-1.38-1.14-1.39-1.14-1.38-1.13-1.39-1.14-1.39-1.12-1.4-1.13-1.4-1.12-1.39-1.12-1.41-1.12-1.4-1.11-1.41-1.11-1.41-1.11-1.41-1.1-1.41-1.1-1.42-1.1-1.42-1.1-1.42-1.09-1.43-1.09-1.42-1.08-1.43-1.09-1.44-1.08-1.43-1.07-1.44-1.08-1.44-1.07-1.44-1.07-1.45-1.06-1.44-1.06-1.45-1.06-1.46-1.06-1.45-1.05-1.46-1.05-1.46-1.05-1.46-1.04-1.47-1.05-1.47-1.03-1.47-1.04-1.47-1.03-1.48-1.03-1.48-1.03-1.48-1.02-1.48-1.02-1.49-1.02-1.48-1.01-1.5-1.01-1.49-1.01-1.5-1-1.49-1.01-1.51-.99-1.5-1-1.51-.99-1.5-.99-1.52-.99-1.51-.98-1.52-.99-1.52-.97-1.52-.98-1.52-.97-1.53-.97-1.53-.96-1.53-.97-1.53-.96-1.54-.95-1.54-.96-1.54-.95-1.55-.95-1.54-.94-1.55-.94-1.56-.94-1.55-.94-1.56-.93-1.56-.93-1.56-.93-1.57-.92-1.56-.92-1.57-.92-1.58-.92-1.57-.91-1.58-.91-1.58-.9-1.58-.9-1.59-.9-1.59-.9-1.59-.89-1.59-.9-1.59-.88" style="stroke-width:1.07;stroke:#000000;stroke-opacity:0.10;stroke-linecap:butt"/><path d="m378.93 400.12-1.47-1.04-1.47-1.03-1.47-1.04-1.47-1.03-1.47-1.04-1.47-1.03-1.47-1.04-1.48-1.03-1.47-1.04-1.47-1.03-1.47-1.04-1.47-1.03-1.47-1.04-1.47-1.03-1.47-1.04-1.47-1.03-1.47-1.04-1.47-1.03-1.47-1.04-1.47-1.03-1.47-1.04-1.47-1.03-1.48-1.04-1.47-1.03-1.47-1.04-1.47-1.03-1.47-1.04-1.47-1.03-1.47-1.04-1.47-1.03-1.47-1.04-1.47-1.03-1.47-1.04-1.47-1.03-1.47-1.04-1.47-1.03-1.47-1.04-1.48-1.03-1.47-1.04-1.47-1.03-1.47-1.04-1.47-1.03-1.47-1.04-1.47-1.03-1.47-1.04-1.47-1.03-1.47-1.04-1.47-1.03-1.47-1.04-1.47-1.04-1.47-1.03-1.47-1.04-1.47-1.03-1.48-1.04-1.47-1.03-1.47-1.04-1.47-1.03-1.47-1.04-1.47-1.03-1.47-1.04-1.47-1.03-1.47-1.04-1.47-1.03-1.47-1.04-1.47-1.03-1.47-1.04-1.47-1.03-1.47-1.04-1.48-1.03-1.47-1.04-1.47-1.03-1.47-1.04-1.47-1.03-1.47-1.04-1.47-1.03-1.47-1.04-1.47-1.03-1.47-1.04-1.47-1.03-1.47-1.04-1.47-1.03-1.47-1.04-1.47-1.03-1.48-1.04-1.47-1.03-1.47-1.04-1.47-1.03-1.47-1.04-1.47-1.03-1.47-1.04-1.47-1.03-1.47-1.04-1.47-1.03-1.47-1.04-1.47-1.03-1.47-1.04-1.47-1.03-1.47-1.04-1.47-1.03" style="stroke-width:1.07;stroke:#000000;stroke-opacity:0.10;stroke-linecap:butt"/><path d="m378.93 400.12-1.6-.89-1.59-.89-1.59-.89-1.59-.9-1.58-.9-1.59-.9-1.58-.91-1.57-.91-1.58-.91-1.57-.91-1.57-.92-1.57-.92-1.56-.93-1.57-.92-1.56-.93-1.55-.94-1.56-.93-1.55-.94-1.55-.94-1.55-.95-1.54-.95-1.55-.95-1.53-.95-1.54-.96-1.54-.96-1.53-.96-1.53-.97-1.52-.96-1.53-.98-1.52-.97-1.52-.98-1.52-.98-1.51-.98-1.51-.99-1.51-.99-1.51-.99-1.5-1-1.5-1-1.5-1-1.5-1.01-1.49-1-1.49-1.02-1.49-1.01-1.49-1.02-1.48-1.02-1.48-1.02-1.48-1.03-1.47-1.02-1.48-1.04-1.47-1.03-1.47-1.04-1.46-1.04-1.46-1.04-1.46-1.05-1.46-1.05-1.46-1.06-1.45-1.05-1.45-1.06-1.45-1.06-1.44-1.07-1.45-1.07-1.44-1.07-1.43-1.07-1.44-1.08-1.43-1.08-1.43-1.08-1.43-1.09-1.42-1.09-1.43-1.09-1.42-1.09-1.41-1.1-1.42-1.1-1.41-1.11-1.41-1.11-1.4-1.11-1.41-1.11-1.4-1.11-1.4-1.12-1.4-1.13-1.39-1.12-1.39-1.13-1.39-1.13-1.39-1.14-1.38-1.13-1.38-1.14-1.38-1.15-1.38-1.14-1.37-1.15-1.37-1.15-1.37-1.16-1.37-1.16-1.36-1.16-1.36-1.16-1.36-1.17-1.36-1.17-1.35-1.17-1.35-1.18-1.35-1.18-1.34-1.18m-51.67-160.86.52 1.63.52 1.62.53 1.63.52 1.62.52 1.63.52 1.62.52 1.63.53 1.62.52 1.63.52 1.62.52 1.63.52 1.62.52 1.63.53 1.62.52 1.63.52 1.62.52 1.63.52 1.62.53 1.63.52 1.62.52 1.63.52 1.62.52 1.62.53 1.63.52 1.62.52 1.63.52 1.62.52 1.63.52 1.62.53 1.63.52 1.62.52 1.63.52 1.62.52 1.63.53 1.62.52 1.63.52 1.62.52 1.63.52 1.62.53 1.63.52 1.62.52 1.63.52 1.62.52 1.62.52 1.63.53 1.62.52 1.63.52 1.62.52 1.63.52 1.62.53 1.63.52 1.62.52 1.63.52 1.62.52 1.63.52 1.62.53 1.63.52 1.62.52 1.63.52 1.62.52 1.63.53 1.62.52 1.63.52 1.62.52 1.62.52 1.63.53 1.62.52 1.63.52 1.62.52 1.63.52 1.62.52 1.63.53 1.62.52 1.63.52 1.62.52 1.63.52 1.62.53 1.63.52 1.62.52 1.63.52 1.62.52 1.63.53 1.62.52 1.63.52 1.62.52 1.63.52 1.62.52 1.62.53 1.63.52 1.62.52 1.63.52 1.62.52 1.63.53 1.62.52 1.63.52 1.62.52 1.63.52 1.62.53 1.63" style="stroke-width:1.07;stroke:#000000;stroke-opacity:0.10;stroke-linecap:butt"/><path d="m378.93 400.12-1.72-.74-1.72-.75-1.71-.75-1.7-.76-1.7-.76-1.7-.77-1.69-.78-1.68-.78-1.68-.79-1.68-.8-1.67-.8-1.66-.8-1.66-.82-1.65-.81-1.65-.83-1.65-.83-1.64-.84-1.63-.84-1.63-.85-1.62-.85-1.62-.86-1.62-.87-1.6-.87-1.61-.88-1.6-.89-1.59-.89-1.59-.89-1.58-.91-1.58-.9-1.57-.92-1.57-.92-1.56-.93-1.56-.93-1.55-.94-1.55-.94-1.54-.95-1.54-.96-1.53-.96-1.52-.97-1.53-.98-1.51-.98-1.51-.99-1.51-.99-1.5-1-1.5-1-1.49-1.01-1.48-1.02-1.49-1.02-1.47-1.03-1.47-1.04-1.47-1.04-1.46-1.05-1.45-1.05-1.45-1.06-1.45-1.06-1.44-1.07-1.43-1.08-1.43-1.09-1.43-1.08-1.42-1.1-1.41-1.1-1.41-1.11-1.41-1.11-1.4-1.12-1.39-1.13-1.39-1.13-1.38-1.13-1.38-1.15-1.38-1.15-1.36-1.15-1.37-1.16-1.36-1.17-1.35-1.17-1.35-1.18-1.34-1.19-1.34-1.19-1.33-1.2-1.33-1.2-1.32-1.21-1.32-1.22-1.31-1.22-1.31-1.23-1.3-1.23-1.3-1.24-1.29-1.24-1.29-1.26-1.28-1.25-1.28-1.27-1.27-1.27-1.27-1.27-1.26-1.28-1.25-1.29-1.25-1.29-1.25-1.3-1.24-1.31-1.24-1.31-1.23-1.32-1.22-1.32-1.22-1.33m151.98-94.47-1.48 1.04-1.48 1.03-1.48 1.02-1.48 1.03-1.48 1.02-1.49 1.03-1.48 1.02-1.49 1.02-1.48 1.02-1.49 1.01-1.49 1.02-1.49 1.01-1.49 1.02-1.5 1.01-1.49 1.01-1.49 1-1.5 1.01-1.5 1-1.5 1.01-1.5 1-1.5 1-1.5 1-1.5.99-1.51 1-1.5.99-1.51.99-1.51.99-1.51.99-1.51.99-1.51.98-1.51.99-1.52.98-1.51.98-1.52.98-1.52.98-1.52.97-1.52.98-1.52.97-1.52.97-1.52.97-1.53.97-1.52.97-1.53.96-1.53.97-1.53.96-1.53.96-1.53.96-1.53.96-1.54.95-1.53.96-1.54.95-1.54.95-1.53.95-1.54.95-1.54.94-1.55.95-1.54.94-1.54.94-1.55.94-1.55.94-1.55.94-1.55.93-1.55.94-1.55.93-1.55.93-1.55.93-1.56.93-1.56.92-1.55.93-1.56.92-1.56.92-1.56.92-1.56.92-1.57.91-1.56.92-1.57.91-1.57.91-1.56.91-1.57.91-1.57.91-1.57.91-1.58.9-1.57.9-1.58.9-1.57.9-1.58.9-1.58.9-1.58.89-1.58.89-1.58.9-1.59.88-1.58.89-1.59.89-1.58.88-1.59.89-1.59.88-1.59.88-1.59.88-1.59.88" style="stroke-width:1.07;stroke:#000000;stroke-opacity:0.10;stroke-linecap:butt"/><path d="m378.93 400.12-1.85-.6-1.83-.6-1.83-.61-1.83-.62-1.81-.63-1.81-.64-1.8-.64-1.79-.66-1.79-.66-1.77-.68-1.77-.68-1.76-.69-1.76-.71-1.74-.71-1.74-.71-1.73-.73-1.73-.74-1.71-.75-1.71-.75-1.7-.77-1.69-.77-1.69-.78-1.67-.79-1.67-.8-1.66-.81-1.66-.82-1.65-.83-1.63-.84-1.64-.84-1.62-.86-1.62-.86-1.6-.87-1.61-.89-1.59-.89-1.58-.9-1.58-.9-1.57-.92-1.56-.93-1.56-.94-1.55-.94-1.54-.95-1.53-.97-1.52-.97-1.52-.98-1.51-.99-1.5-1-1.49-1.01-1.49-1.01-1.48-1.03-1.47-1.03-1.46-1.05-1.46-1.05-1.44-1.06-1.44-1.08-1.44-1.08-1.42-1.08-1.42-1.1-1.41-1.11-1.4-1.12-1.39-1.12-1.39-1.14-1.38-1.14-1.37-1.15-1.36-1.16-1.36-1.17-1.35-1.18-1.34-1.19-1.33-1.2-1.33-1.2-1.31-1.22-1.31-1.22-1.31-1.24-1.29-1.24-1.29-1.25-1.28-1.26-1.27-1.27-1.26-1.28-1.26-1.29-1.25-1.3-1.24-1.3-1.23-1.32-1.23-1.32-1.22-1.33-1.21-1.34-1.2-1.35-1.19-1.36-1.19-1.37-1.18-1.38-1.17-1.39-1.17-1.39-1.16-1.41-1.14-1.41-1.15-1.43-1.13-1.43-1.13-1.44-1.11-1.45-1.12-1.46-1.1-1.47-1.09-1.47" style="stroke-width:1.07;stroke:#000000;stroke-opacity:0.10;stroke-linecap:butt"/><path d="m378.93 400.12-1.97-.45-1.96-.46-1.95-.47-1.94-.48-1.93-.49-1.92-.51-1.91-.51-1.9-.53-1.89-.55-1.88-.55-1.87-.57-1.85-.57-1.85-.59-1.84-.61-1.83-.61-1.82-.63-1.8-.63-1.8-.65-1.79-.67-1.77-.67-1.77-.69-1.76-.7-1.74-.71-1.74-.72-1.72-.73-1.72-.75-1.71-.76-1.69-.77-1.69-.78-1.67-.8-1.66-.8-1.66-.82-1.64-.83-1.64-.84-1.62-.86-1.61-.86-1.61-.88-1.59-.89-1.58-.91-1.58-.91-1.56-.93-1.55-.94-1.54-.95-1.53-.96-1.53-.98-1.51-.98-1.5-1-1.49-1.01-1.48-1.03-1.47-1.03-1.46-1.05-1.45-1.06-1.44-1.07-1.43-1.08-1.42-1.1-1.41-1.1-1.4-1.12-1.39-1.13-1.38-1.15-1.37-1.15-1.36-1.17-1.34-1.18-1.34-1.19-1.33-1.2-1.32-1.22-1.3-1.23-1.3-1.24-1.29-1.25-1.28-1.26-1.26-1.28-1.26-1.29-1.24-1.3-1.24-1.31-1.23-1.32-1.21-1.34-1.21-1.34-1.19-1.36-1.19-1.38-1.17-1.38-1.17-1.4-1.15-1.4-1.15-1.42-1.13-1.44-1.12-1.44-1.12-1.46-1.1-1.46-1.09-1.48-1.09-1.5-1.07-1.5-1.06-1.52-1.05-1.52-1.05-1.54-1.03-1.56-1.02-1.56-1.01-1.58-1-1.59-.99-1.6-.98-1.61-.97-1.62M49.42 292.7l1.86.14 1.85.14 1.86.14 1.85.14 1.86.13 1.85.14 1.86.13 1.85.13 1.86.13 1.85.12 1.86.13 1.85.12 1.86.12 1.85.12 1.86.11 1.85.12 1.86.11 1.86.11 1.85.11 1.86.11 1.85.1 1.86.11 1.86.1 1.85.1 1.86.09 1.85.1 1.86.09 1.86.1 1.85.09 1.86.08 1.86.09 1.85.08 1.86.09 1.86.08 1.85.07 1.86.08 1.86.08 1.85.07 1.86.07 1.86.07 1.85.07 1.86.06 1.86.06 1.86.07 1.85.05 1.86.06 1.86.06 1.86.05 1.85.05 1.86.05 1.86.05 1.86.05 1.86.04 1.85.04 1.86.05 1.86.03 1.86.04 1.86.04 1.85.03 1.86.03 1.86.03 1.86.03 1.86.02 1.86.02 1.86.03 1.85.02 1.86.01 1.86.02 1.86.01 1.86.01 1.86.01 1.86.01 1.86.01h1.86l1.85.01h3.72l1.86-.01h1.86l1.86-.01 1.86-.01 1.86-.01 1.86-.01 1.86-.02 1.86-.01 1.86-.02 1.86-.02 1.86-.02 1.86-.03 1.86-.02 1.86-.03 1.86-.03 1.86-.03 1.86-.04 1.86-.03 1.86-.04 1.86-.04 1.86-.04 1.87-.04" style="stroke-width:1.07;stroke:#000000;stroke-opacity:0.10;stroke-linecap:butt"/><path d="m49.42 292.7 1.86-.05 1.86-.04 1.86-.04 1.86-.03 1.87-.04 1.86-.03 1.86-.03 1.86-.03 1.86-.03 1.86-.03 1.86-.02 1.86-.02 1.86-.02 1.86-.02 1.86-.02 1.86-.01 1.86-.02 1.86-.01 1.86-.01h1.86l1.85-.01h7.44l1.86.01h1.86l1.86.01 1.86.01 1.86.01 1.86.02 1.85.01 1.86.02 1.86.02 1.86.02 1.86.02 1.86.03 1.86.03 1.85.03 1.86.03 1.86.03 1.86.03 1.86.04 1.86.04 1.85.04 1.86.04 1.86.05 1.86.04 1.86.05 1.85.05 1.86.05 1.86.06 1.86.05 1.85.06 1.86.06 1.86.06 1.86.06 1.85.07 1.86.07 1.86.07 1.85.07 1.86.07 1.86.07 1.85.08 1.86.08 1.86.08 1.85.08 1.86.09 1.86.08 1.85.09 1.86.09 1.86.09 1.85.09 1.86.1 1.86.1 1.85.1 1.86.1 1.85.1 1.86.11 1.86.1 1.85.11 1.86.11 1.85.12 1.86.11 1.85.12 1.86.12 1.85.12 1.86.12 1.86.12 1.85.13 1.86.13 1.85.13 1.86.13 1.85.13 1.86.14 1.85.13 1.86.14 1.85.14 1.86.15m-62 157.79.62-1.59.63-1.6.62-1.59.63-1.6.63-1.59.62-1.59.63-1.6.63-1.59.62-1.59.63-1.6.62-1.59.63-1.6.63-1.59.62-1.59.63-1.6.63-1.59.62-1.6.63-1.59.62-1.59.63-1.6.63-1.59.62-1.6.63-1.59.63-1.59.62-1.6.63-1.59.62-1.59.63-1.6.63-1.59.62-1.6.63-1.59.63-1.59.62-1.6.63-1.59.62-1.6.63-1.59.63-1.59.62-1.6.63-1.59.63-1.59.62-1.6.63-1.59.62-1.6.63-1.59.63-1.59.62-1.6.63-1.59.63-1.6.62-1.59.63-1.59.62-1.6.63-1.59.63-1.59.62-1.6.63-1.59.63-1.6.62-1.59.63-1.59.62-1.6.63-1.59.63-1.6.62-1.59.63-1.59.63-1.6.62-1.59.63-1.6.62-1.59.63-1.59.63-1.6.62-1.59.63-1.59.63-1.6.62-1.59.63-1.6.62-1.59.63-1.59.63-1.6.62-1.59.63-1.6.63-1.59.62-1.59.63-1.6.62-1.59.63-1.59.63-1.6.62-1.59.63-1.6.63-1.59.62-1.59.63-1.6.62-1.59.63-1.6.63-1.59.62-1.59.63-1.6.63-1.59.62-1.6.63-1.59.63-1.59" style="stroke-width:1.07;stroke:#000000;stroke-opacity:0.10;stroke-linecap:butt"/><path d="m378.93 391.64 7.35 12.72h-14.7zm6.39-192.88 3.83 6.64h-7.67zm-203.65-64.18 1.91 3.32h-3.82zM49.42 288.27l3.84 6.64h-7.67zm121.92 164.96 1.91 3.32h-3.83z" style="stroke-width:0.71;stroke:none;fill:#00BFC4"/><circle cx="233.34" cy="297.65" r="6.76" style="stroke-width:0.71;stroke:none;fill:#F8766D"/><path d="m380.57 202.04 3.63.87m-207.24-61.42 3.91-3.9m-5.04 313.17-3.72 3.87m65.97-161.62-3.94 3.85" style="stroke-width:0.53;stroke:#BFBFBF"/><path d="M314.66 405.8h57.38-.09l.35-.01.34-.07.33-.13.3-.17.27-.22.23-.26.18-.29.14-.32.08-.34.03-.35h0v-7.03h0l-.03-.34-.08-.34-.14-.32-.18-.29-.23-.26-.27-.22-.3-.18-.33-.12-.34-.07-.26-.02h-57.38l.26.02-.35-.01-.35.04-.33.1-.31.14-.29.2-.25.24-.21.28-.16.31-.11.33-.06.34v7.2-.17.35l.06.34.11.33.16.31.21.27.25.24.29.2.31.15.33.1.35.04z" style="stroke-width:0.53;fill:#FFFFFF;fill-opacity:0.50"/><text x="343.35" y="402.2" lengthAdjust="spacingAndGlyphs" style="font-size:5.69px;font-family:&quot;Liberation Sans&quot;" text-anchor="middle" textLength="54.5">KENNETH MITSCHE</text><path d="M336.63 207.67h41.78-.08l.34-.02.35-.07.32-.12.3-.17.27-.22.23-.26.19-.3.13-.32.09-.33.02-.35h0v-7.03h0l-.02-.34-.09-.34-.13-.32-.19-.3-.23-.26-.27-.22-.3-.17-.32-.12-.35-.07-.26-.02h-41.78l.26.02-.34-.02-.35.05-.33.09-.32.15-.28.2-.25.24-.21.28-.16.31-.11.33-.06.34-.01.17v7.03l.01-.17v.34l.06.35.11.33.16.3.21.28.25.24.28.2.32.15.33.1.35.04z" style="stroke-width:0.53;fill:#FFFFFF;fill-opacity:0.50"/><text x="357.52" y="204.07" lengthAdjust="spacingAndGlyphs" style="font-size:5.69px;font-family:&quot;Liberation Sans&quot;" text-anchor="middle" textLength="38.9">KEN MITSCHE</text><path d="M141.53 161.03h49.77-.08l.35-.01.34-.07.32-.13.3-.17.27-.22.23-.26.19-.29.13-.32.09-.34.02-.35h0v-15.22h0l-.02-.34-.09-.34-.13-.32-.19-.3-.23-.26-.27-.22-.3-.17-.32-.12-.34-.07-.27-.02h-49.77l.26.02-.35-.02-.34.05-.33.09-.32.15-.28.2-.26.24-.2.28-.17.31-.11.32-.05.35-.01.17v15.22l.01-.17v.35l.05.34.11.33.17.31.2.28.26.24.28.19.32.15.33.1.34.04z" style="stroke-width:0.53;fill:#FFFFFF;fill-opacity:0.50"/><text x="166.42" y="149.24" lengthAdjust="spacingAndGlyphs" style="font-size:5.69px;font-family:&quot;Liberation Sans&quot;" text-anchor="middle" textLength="34.07">KENNY&apos;S AZ</text><text x="166.42" y="157.43" lengthAdjust="spacingAndGlyphs" style="font-size:5.69px;font-family:&quot;Liberation Sans&quot;" text-anchor="middle" textLength="46.89">PROPERTIES LLC</text><path d="M56.19 298.38h63.44-.08l.34-.01.34-.07.33-.13.3-.17.27-.22.23-.26.19-.29.13-.32.09-.34.02-.35h0v-7.02h0l-.02-.35-.09-.34-.13-.32-.19-.29-.23-.26-.27-.22-.3-.18-.33-.12-.34-.07-.26-.01H56.19l.26.01-.35-.01-.35.04-.33.1-.31.14-.29.2-.25.24-.21.28-.16.31-.11.33-.06.34v7.2-.17.35l.06.34.11.33.16.31.21.27.25.25.29.19.31.15.33.1.35.04z" style="stroke-width:0.53;fill:#FFFFFF;fill-opacity:0.50"/><text x="87.91" y="294.78" lengthAdjust="spacingAndGlyphs" style="font-size:5.69px;font-family:&quot;Liberation Sans&quot;" text-anchor="middle" textLength="60.57">KENNETH N MITSCHE</text><path d="M150.2 450.76h64.11-.09l.35-.02.34-.07.32-.12.3-.17.27-.22.23-.26.19-.3.13-.32.09-.34.03-.34h0v-7.03h0l-.03-.35-.09-.33-.13-.32-.19-.3-.23-.26-.27-.22-.3-.17-.32-.12-.34-.07-.26-.02H150.2l.26.02-.34-.02-.35.04-.33.1-.32.15-.28.2-.25.24-.21.28-.16.3-.11.33-.06.35-.01.17v7.03l.01-.18v.35l.06.35.11.32.16.31.21.28.25.24.28.2.32.15.33.09.35.05z" style="stroke-width:0.53;fill:#FFFFFF;fill-opacity:0.50"/><text x="182.25" y="447.16" lengthAdjust="spacingAndGlyphs" style="font-size:5.69px;font-family:&quot;Liberation Sans&quot;" text-anchor="middle" textLength="61.22">KENNETH M MITSCHE</text><path d="M219.37 293.01h66.97l-.08-.01.34-.01.34-.07.33-.12.3-.18.27-.22.23-.26.19-.29.13-.32.08-.34.03-.34h0v-23.42h0l-.03-.35-.08-.33-.13-.32-.19-.3-.23-.26-.27-.22-.3-.17-.33-.12-.34-.07-.26-.02h-66.97l.26.02-.35-.02-.34.04-.34.1-.31.15-.29.2-.25.24-.21.28-.16.3-.11.33-.05.35-.01.17v23.42l.01-.18v.35l.05.34.11.33.16.31.21.28.25.24.29.2.31.15.34.09.34.04z" style="stroke-width:0.53;fill:#FFFFFF;fill-opacity:0.50"/><text x="252.86" y="273.02" lengthAdjust="spacingAndGlyphs" style="font-size:5.69px;font-family:&quot;Liberation Sans&quot;" text-anchor="middle" textLength="64.09">6230 S PENNSYLVANIA</text><text x="252.86" y="281.21" lengthAdjust="spacingAndGlyphs" style="font-size:5.69px;font-family:&quot;Liberation Sans&quot;" text-anchor="middle" textLength="49.59">AVE, CUDAHY, WI</text><text x="252.86" y="289.41" lengthAdjust="spacingAndGlyphs" style="font-size:5.69px;font-family:&quot;Liberation Sans&quot;" text-anchor="middle" textLength="18.11">53110</text></g><g clip-path="url(#cpMC4wMHw0MzIuMDB8MC4wMHw1MDQuMDA=)"><circle cx="156.61" cy="95.78" r="1.95" style="stroke-width:0.71;stroke:none;fill:#F8766D"/><path d="m232.96 92.74 2.63 4.56h-5.26z" style="stroke-width:0.71;stroke:none;fill:#00BFC4"/><text x="170.72" y="98.81" lengthAdjust="spacingAndGlyphs" style="font-size:8.80px;font-family:&quot;Liberation Sans Narrow&quot;" textLength="48.12">mprop address</text><text x="247.08" y="98.81" lengthAdjust="spacingAndGlyphs" style="font-size:8.80px;font-family:&quot;Liberation Sans Narrow&quot;" textLength="39.69">owner name</text><text x="32.63" y="64.23" lengthAdjust="spacingAndGlyphs" style="font-size:12.00px;font-family:&quot;Liberation Sans Narrow&quot;" textLength="252.23">includes 15 parcels, 21 units, and 5 distinct owner names.</text><text x="32.63" y="42.27" lengthAdjust="spacingAndGlyphs" style="font-size:18.00px;font-weight:bold;font-family:&quot;Liberation Sans Narrow&quot;" textLength="215.64">KENNETH MITSCHE etc Group</text></g></svg>