<svg xmlns="http://www.w3.org/2000/svg" width="768" height="768" class="svglite" viewBox="0 0 576 576"><defs><style>.svglite circle,.svglite line,.svglite polygon,.svglite polyline,.svglite rect{fill:none;stroke:#000;stroke-linecap:round;stroke-linejoin:round;stroke-miterlimit:10}.svglite text{white-space:pre}</style></defs><rect width="100%" height="100%" style="stroke:none;fill:#fff"/><defs><clipPath id="cpMC4wMHw1NzYuMDB8MC4wMHw1NzYuMDA="><path d="M0 0h576v576H0z"/></clipPath></defs><g clip-path="url(#cpMC4wMHw1NzYuMDB8MC4wMHw1NzYuMDA=)"><path d="M0 0h576v576H0z" style="stroke-width:1.07;stroke:none;fill:#fff"/></g><defs><clipPath id="cpMzIuNjN8NTQ2LjExfDEyMC44Nnw1NDMuMzc="><path d="M32.63 120.86h513.48v422.51H32.63z"/></clipPath></defs><g clip-path="url(#cpMzIuNjN8NTQ2LjExfDEyMC44Nnw1NDMuMzc=)"><path d="m149.33 447.35-.94.77-.95.78-.94.78-.94.77-.95.78-.94.77-.94.78-.95.77-.94.78-.94.78-.94.77-.95.78-.94.77-.94.78-.95.78-.94.77-.94.78-.95.77-.94.78-.94.78-.95.77-.94.78-.94.77-.94.78-.95.78-.94.77-.94.78-.95.77-.94.78-.94.78-.95.77-.94.78-.94.77-.94.78-.95.78-.94.77-.94.78-.95.77-.94.78-.94.78-.95.77-.94.78-.94.77-.95.78-.94.78-.94.77-.94.78-.95.77-.94.78-.94.78-.95.77-.94.78-.94.77-.95.78-.94.78-.94.77-.94.78-.95.77-.94.78-.94.77-.95.78-.94.78-.94.77-.95.78-.94.77-.94.78-.94.78-.95.77-.94.78-.94.77-.95.78-.94.78-.94.77-.95.78-.94.77-.94.78-.95.78-.94.77-.94.78-.94.77-.95.78-.94.78-.94.77-.95.78-.94.77-.94.78-.95.78-.94.77-.94.78-.94.77-.95.78-.94.78-.94.77-.95.78-.94.77-.94.78-.95.78-.94.77-.94.78M149.33 447.35l.94-.78.94-.77.95-.78.94-.78.94-.77.95-.78.94-.77.94-.78.95-.78.94-.77.94-.78.94-.77.95-.78.94-.78.94-.77.95-.78.94-.77.94-.78.95-.78.94-.77.94-.78.95-.77.94-.78.94-.78.94-.77.95-.78.94-.77.94-.78.95-.78.94-.77.94-.78.95-.77.94-.78.94-.78.94-.77.95-.78.94-.77.94-.78.95-.78.94-.77.94-.78.95-.77.94-.78.94-.77.95-.78.94-.78.94-.77.94-.78.95-.77.94-.78.94-.78.95-.77.94-.78.94-.77.95-.78.94-.78.94-.77.94-.78.95-.77.94-.78.94-.78.95-.77.94-.78.94-.77.95-.78.94-.78.94-.77.95-.78.94-.77.94-.78.94-.78.95-.77.94-.78.94-.77.95-.78.94-.78.94-.77.95-.78.94-.77.94-.78.94-.78.95-.77.94-.78.94-.77.95-.78.94-.78.94-.77.95-.78.94-.77.94-.78.95-.77.94-.78.94-.78.94-.77.95-.78.94-.77.94-.78.95-.78.94-.77M336.05 293.71l.94-.78.95-.77.94-.78.94-.78.94-.77.95-.78.94-.77.94-.78.95-.78.94-.77.94-.78.95-.77.94-.78.94-.78.95-.77.94-.78.94-.77.94-.78.95-.78.94-.77.94-.78.95-.77.94-.78.94-.78.95-.77.94-.78.94-.77.94-.78.95-.78.94-.77.94-.78.95-.77.94-.78.94-.78.95-.77.94-.78.94-.77.95-.78.94-.78.94-.77.94-.78.95-.77.94-.78.94-.78.95-.77.94-.78.94-.77.95-.78.94-.78.94-.77.94-.78.95-.77.94-.78.94-.77.95-.78.94-.78.94-.77.95-.78.94-.77.94-.78.95-.78.94-.77.94-.78.94-.77.95-.78.94-.78.94-.77.95-.78.94-.77.94-.78.95-.78.94-.77.94-.78.94-.77.95-.78.94-.78.94-.77.95-.78.94-.77.94-.78.95-.78.94-.77.94-.78.94-.77.95-.78.94-.78.94-.77.95-.78.94-.77.94-.78.95-.78.94-.77.94-.78.95-.77.94-.78.94-.78.94-.77.95-.78.94-.77M336.05 293.71l-.94.77-.95.78-.94.77-.94.78-.95.78-.94.77-.94.78-.94.77-.95.78-.94.78-.94.77-.95.78-.94.77-.94.78-.95.78-.94.77-.94.78-.94.77-.95.78-.94.78-.94.77-.95.78-.94.77-.94.78-.95.78-.94.77-.94.78-.95.77-.94.78-.94.78-.94.77-.95.78-.94.77-.94.78-.95.78-.94.77-.94.78-.95.77-.94.78-.94.78-.94.77-.95.78-.94.77-.94.78-.95.78-.94.77-.94.78-.95.77-.94.78-.94.78-.94.77-.95.78-.94.77-.94.78-.95.78-.94.77-.94.78-.95.77-.94.78-.94.77-.95.78-.94.78-.94.77-.94.78-.95.77-.94.78-.94.78-.95.77-.94.78-.94.77-.95.78-.94.78-.94.77-.94.78-.95.77-.94.78-.94.78-.95.77-.94.78-.94.77-.95.78-.94.78-.94.77-.95.78-.94.77-.94.78-.94.78-.95.77-.94.78-.94.77-.95.78-.94.78-.94.77-.95.78-.94.77-.94.78-.94.78-.95.77-.94.78M522.77 140.07l-.94.77-.94.78-.95.78-.94.77-.94.78-.95.77-.94.78-.94.78-.95.77-.94.78-.94.77-.94.78-.95.78-.94.77-.94.78-.95.77-.94.78-.94.77-.95.78-.94.78-.94.77-.95.78-.94.77-.94.78-.94.78-.95.77-.94.78-.94.77-.95.78-.94.78-.94.77-.95.78-.94.77-.94.78-.94.78-.95.77-.94.78-.94.77-.95.78-.94.78-.94.77-.95.78-.94.77-.94.78-.95.78-.94.77-.94.78-.94.77-.95.78-.94.78-.94.77-.95.78-.94.77-.94.78-.95.78-.94.77-.94.78-.94.77-.95.78-.94.77-.94.78-.95.78-.94.77-.94.78-.95.77-.94.78-.94.78-.95.77-.94.78-.94.77-.94.78-.95.78-.94.77-.94.78-.95.77-.94.78-.94.78-.95.77-.94.78-.94.77-.94.78-.95.78-.94.77-.94.78-.95.77-.94.78-.94.78-.95.77-.94.78-.94.77-.95.78-.94.78-.94.77-.94.78-.95.77-.94.78-.94.78-.95.77-.94.78" style="stroke-width:1.07;stroke:#000;stroke-opacity:.1;stroke-linecap:butt"/><path d="m149.33 445.14 1.91 3.31h-3.83zM336.05 291.5l1.91 3.31h-3.82zM522.77 137.86l1.92 3.31h-3.83z" style="stroke-width:.71;stroke:none;fill:#00ba38"/><circle cx="55.97" cy="524.17" r="1.42" style="stroke-width:.71;stroke:none;fill:#f8766d"/><path d="M235.93 377.28h13.52v-13.51h-13.52z" style="stroke-width:.71;stroke:none;fill:#619cff"/><circle cx="429.41" cy="216.89" r="6.76" style="stroke-width:.71;stroke:none;fill:#f8766d"/><path d="m144 451.95 4.45-3.84M341.43 289.06l-4.5 3.89M248.1 365.94l-4.52 3.84M434.75 212.28l-4.46 3.85" style="stroke-width:.53;stroke:#bfbfbf"/><path d="M103.78 471.49h56.09-.09l.35-.02.34-.06.33-.13.3-.17.27-.22.23-.26.18-.3.14-.32.08-.33.03-.35v-15.22l-.03-.35-.08-.34-.14-.32-.18-.29-.23-.26-.27-.22-.3-.17-.33-.13-.34-.07-.26-.01h-56.09l.26.01-.34-.01-.35.04-.33.1-.32.15-.28.2-.25.24-.21.27-.16.31-.11.33-.06.34-.01.18v15.22l.01-.17v.34l.06.35.11.33.16.3.21.28.25.24.28.2.32.15.33.1.35.04z" style="stroke-width:.53;fill:#fff;fill-opacity:.5"/><text x="131.83" y="459.7" lengthAdjust="spacingAndGlyphs" style="font-size:5.69px;font-family:&quot;Liberation Sans&quot;" text-anchor="middle" textLength="53.21">LOVE JONES OASIS</text><text x="131.83" y="467.89" lengthAdjust="spacingAndGlyphs" style="font-size:5.69px;font-family:&quot;Liberation Sans&quot;" text-anchor="middle" textLength="46.89">PROPERTIES LLC</text><path d="M318.08 289.06H389h-.09l.35-.02.34-.07.33-.12.3-.17.27-.22.23-.26.18-.3.14-.32.08-.33.03-.35v-15.22l-.03-.35-.08-.34-.14-.32-.18-.29-.23-.26-.27-.22-.3-.17-.33-.13-.34-.07-.26-.01h-70.92l.26.01-.35-.01-.34.04-.33.1-.32.15-.28.19-.26.24-.2.28-.17.31-.11.33-.05.34-.01.18v15.22l.01-.18v.35l.05.35.11.33.17.3.2.28.26.24.28.2.32.15.33.09.34.05z" style="stroke-width:.53;fill:#fff;fill-opacity:.5"/><text x="353.54" y="277.26" lengthAdjust="spacingAndGlyphs" style="font-size:5.69px;font-family:&quot;Liberation Sans&quot;" text-anchor="middle" textLength="68.04">LENTON REALTY GROUP</text><text x="353.54" y="285.46" lengthAdjust="spacingAndGlyphs" style="font-size:5.69px;font-family:&quot;Liberation Sans&quot;" text-anchor="middle" textLength="10.31">LLC</text><path d="M464.88 146.79h50.99-.09l.35-.01.34-.07.33-.13.3-.17.27-.22.23-.26.18-.29.14-.32.08-.34.03-.35v-7.02l-.03-.35-.08-.34-.14-.32-.18-.29-.23-.26-.27-.22-.3-.18-.33-.12-.34-.07-.26-.01h-50.99l.26.01-.35-.01-.34.04-.34.1-.31.15-.29.19-.25.24-.21.28-.16.31-.11.33-.05.34-.01.18v7.02l.01-.17v.35l.05.34.11.33.16.31.21.28.25.24.29.19.31.15.34.1.34.04z" style="stroke-width:.53;fill:#fff;fill-opacity:.5"/><text x="490.37" y="143.19" lengthAdjust="spacingAndGlyphs" style="font-size:5.69px;font-family:&quot;Liberation Sans&quot;" text-anchor="middle" textLength="48.11">TRINA A NELSON</text><path d="M62.83 533.98h67.21-.08l.34-.02.35-.07.32-.12.3-.17.27-.22.23-.26.19-.3.13-.32.09-.33.02-.35V516.6l-.02-.35-.09-.34-.13-.32-.19-.29-.23-.26-.27-.22-.3-.17-.32-.13-.35-.07-.26-.01H62.83l.26.01-.35-.01-.35.04-.33.1-.31.15-.29.19-.25.24-.21.28-.16.31-.11.33-.06.34v15.4-.18.35l.06.35.11.33.16.3.21.28.25.24.29.2.31.15.33.09.35.05z" style="stroke-width:.53;fill:#fff;fill-opacity:.5"/><text x="96.43" y="522.18" lengthAdjust="spacingAndGlyphs" style="font-size:5.69px;font-family:&quot;Liberation Sans&quot;" text-anchor="middle" textLength="48.05">2761 N 58TH ST,</text><text x="96.43" y="530.38" lengthAdjust="spacingAndGlyphs" style="font-size:5.69px;font-family:&quot;Liberation Sans&quot;" text-anchor="middle" textLength="64.34">MILWAUKEE, WI 53210</text><path d="M234.22 365.94H296h-.08l.34-.02.34-.07.33-.12.3-.17.27-.22.23-.26.18-.3.14-.32.08-.33.03-.35v-23.42l-.03-.34-.08-.34-.14-.32-.18-.29-.23-.26-.27-.22-.3-.18-.33-.12-.34-.07-.26-.02h-61.78l.26.02-.35-.01-.34.04-.34.09-.31.15-.29.2-.25.24-.21.28-.16.31-.11.33-.05.34-.01.17v23.42l.01-.17v.34l.05.35.11.33.16.3.21.28.25.24.29.2.31.15.34.1.34.04z" style="stroke-width:.53;fill:#fff;fill-opacity:.5"/><text x="265.11" y="345.95" lengthAdjust="spacingAndGlyphs" style="font-size:5.69px;font-family:&quot;Liberation Sans&quot;" text-anchor="middle" textLength="58.66">777 JEFFERSON, STE</text><text x="265.11" y="354.15" lengthAdjust="spacingAndGlyphs" style="font-size:5.69px;font-family:&quot;Liberation Sans&quot;" text-anchor="middle" textLength="58.9">408, MILWAUKEE, WI</text><text x="265.11" y="362.34" lengthAdjust="spacingAndGlyphs" style="font-size:5.69px;font-family:&quot;Liberation Sans&quot;" text-anchor="middle" textLength="18.11">53202</text><path d="M413.84 212.28H480h-.08l.34-.02.34-.07.33-.12.3-.18.27-.22.23-.26.19-.29.13-.32.09-.34.02-.34V194.9l-.02-.35-.09-.34-.13-.32-.19-.29-.23-.26-.27-.22-.3-.18-.33-.12-.34-.07-.26-.01h-66.16l.26.01-.35-.01-.35.04-.33.1-.31.14-.29.2-.25.24-.21.28-.16.31-.11.33-.06.34v15.4-.18.35l.06.34.11.33.16.31.21.28.25.24.29.2.31.15.33.09.35.05z" style="stroke-width:.53;fill:#fff;fill-opacity:.5"/><text x="446.92" y="200.48" lengthAdjust="spacingAndGlyphs" style="font-size:5.69px;font-family:&quot;Liberation Sans&quot;" text-anchor="middle" textLength="51.03">44 SUNRIDGE DR,</text><text x="446.92" y="208.68" lengthAdjust="spacingAndGlyphs" style="font-size:5.69px;font-family:&quot;Liberation Sans&quot;" text-anchor="middle" textLength="63.29">WAUKESHA, WI 53189</text></g><g clip-path="url(#cpMC4wMHw1NzYuMDB8MC4wMHw1NzYuMDA=)"><circle cx="196.98" cy="95.78" r="1.95" style="stroke-width:.71;stroke:none;fill:#f8766d"/><path d="m273.33 92.74 2.63 4.56h-5.26z" style="stroke-width:.71;stroke:none;fill:#00ba38"/><path d="M339.31 97.74h3.91v-3.91h-3.91z" style="stroke-width:.71;stroke:none;fill:#619cff"/><text x="211.09" y="98.81" lengthAdjust="spacingAndGlyphs" style="font-size:8.8px;font-family:&quot;Liberation Sans Narrow&quot;" textLength="48.12">mprop address</text><text x="287.45" y="98.81" lengthAdjust="spacingAndGlyphs" style="font-size:8.8px;font-family:&quot;Liberation Sans Narrow&quot;" textLength="39.69">owner name</text><text x="355.38" y="98.81" lengthAdjust="spacingAndGlyphs" style="font-size:8.8px;font-family:&quot;Liberation Sans Narrow&quot;" textLength="40.5">wdfi address</text><text x="32.63" y="64.23" lengthAdjust="spacingAndGlyphs" style="font-size:12px;font-family:&quot;Liberation Sans Narrow&quot;" textLength="241.29">includes 3 parcels, 4 units, and 3 distinct owner names.</text><text x="32.63" y="42.27" lengthAdjust="spacingAndGlyphs" style="font-size:18px;font-weight:700;font-family:&quot;Liberation Sans Narrow&quot;" textLength="261.35">LENTON REALTY GROUP LLC Group</text></g></svg>