<svg xmlns="http://www.w3.org/2000/svg" width="384" height="480" class="svglite" viewBox="0 0 288 360"><defs><style><![CDATA[.svglite line,.svglite polyline,.svglite polygon,.svglite path,.svglite circle{fill:none;stroke:#000000;stroke-linecap:round;stroke-linejoin:round;stroke-miterlimit:10.00}.svglite text{white-space:pre}]]></style></defs><rect width="100%" height="100%" style="stroke-linecap:round;stroke-linejoin:round;stroke-miterlimit:10.00;stroke:none;fill:#FFFFFF"/><defs><clipPath id="cpMC4wMHwyODguMDB8MC4wMHwzNjAuMDA="><path d="M0 0h288v360H0z"/></clipPath></defs><g clip-path="url(#cpMC4wMHwyODguMDB8MC4wMHwzNjAuMDA=)"><path d="M0 0h288v360H0z" style="stroke-width:1.07;stroke:none;fill:#FFFFFF"/></g><defs><clipPath id="cpMzIuNjN8MjU4LjExfDE0MC4zMHwzMjcuMzc="><path d="M32.63 140.3h225.48v187.07H32.63z"/></clipPath></defs><g clip-path="url(#cpMzIuNjN8MjU4LjExfDE0MC4zMHwzMjcuMzc=)"><path d="m111.2 262.18.69-.57.69-.57.69-.58.69-.57.69-.57.69-.57.69-.58.69-.57.7-.57.69-.57.69-.58.69-.57.69-.57.69-.58.69-.57.69-.57.69-.57.69-.58.69-.57.69-.57.69-.57.69-.58.69-.57.69-.57.69-.57.69-.58.69-.57.69-.57.69-.57.69-.58.69-.57.69-.57.69-.57.69-.58.69-.57.69-.57.69-.57.69-.58.69-.57.69-.57.69-.58.69-.57.69-.57.69-.57.69-.58.69-.57.69-.57.69-.57.69-.58.69-.57.69-.57.69-.57.69-.58.69-.57.69-.57.69-.57.69-.58.69-.57.69-.57.69-.57.69-.58.7-.57.69-.57.69-.58.69-.57.69-.57.69-.57.69-.58.69-.57.69-.57.69-.57.69-.58.69-.57.69-.57.69-.57.69-.58.69-.57.69-.57.69-.57.69-.58.69-.57.69-.57.69-.57.69-.58.69-.57.69-.57.69-.58.69-.57.69-.57.69-.57.69-.58.69-.57.69-.57.69-.57.69-.58.69-.57.69-.57.69-.57.69-.58m-68.33 56.69-.69.57-.69.58-.69.57-.69.57-.69.57-.69.58-.69.57-.69.57-.69.57-.69.58-.69.57-.69.57-.69.58-.69.57-.69.57-.69.57-.69.58-.69.57-.69.57-.69.57-.69.58-.69.57-.69.57-.69.57-.69.58-.69.57-.69.57-.69.57-.69.58-.69.57-.69.57-.69.57-.69.58-.69.57-.69.57-.69.58-.69.57-.69.57-.69.57-.69.58-.69.57-.69.57-.69.57-.69.58-.69.57-.69.57-.69.57-.69.58-.69.57-.69.57-.7.57-.69.58-.69.57-.69.57-.69.57-.69.58-.69.57-.69.57-.69.58-.69.57-.69.57-.69.57-.69.58-.69.57-.69.57-.69.57-.69.58-.69.57-.69.57-.69.57-.69.58-.69.57-.69.57-.69.57-.69.58-.69.57-.69.57-.69.57-.69.58-.69.57-.69.57-.69.57-.69.58-.69.57-.69.57-.69.58-.69.57-.69.57-.69.57-.69.58-.69.57-.69.57-.69.57-.69.58-.69.57-.69.57-.69.57-.69.58-.69.57m204.98-170.06-.69.57-.69.57-.69.57-.69.58-.69.57-.69.57-.69.57-.69.58-.69.57-.69.57-.69.57-.69.58-.69.57-.69.57-.69.57-.69.58-.69.57-.69.57-.69.58-.69.57-.69.57-.69.57-.69.58-.69.57-.69.57-.69.57-.69.58-.69.57-.69.57-.69.57-.69.58-.69.57-.69.57-.69.57-.69.58-.69.57-.69.57-.7.57-.69.58-.69.57-.69.57-.69.58-.69.57-.69.57-.69.57-.69.58-.69.57-.69.57-.69.57-.69.58-.69.57-.69.57-.69.57-.69.58-.69.57-.69.57-.69.57-.69.58-.69.57-.69.57-.69.57-.69.58-.69.57-.69.57-.69.58-.69.57-.69.57-.69.57-.69.58-.69.57-.69.57-.69.57-.69.58-.69.57-.69.57-.69.57-.69.58-.69.57-.69.57-.69.57-.69.58-.69.57-.69.57-.69.57-.7.58-.69.57-.69.57-.69.58-.69.57-.69.57-.69.57-.69.58-.69.57-.69.57-.69.57-.69.58-.69.57-.69.57-.69.57" style="stroke-width:1.07;stroke:#000000;stroke-opacity:0.10;stroke-linecap:butt"/><path d="m111.2 259.97 1.92 3.32h-3.83zM247.86 146.6l1.92 3.31h-3.83z" style="stroke-width:0.71;stroke:none;fill:#00BA38"/><circle cx="179.53" cy="205.49" r="6.76" style="stroke-width:0.71;stroke:none;fill:#F8766D"/><path d="M41.46 320.29h2.84v-2.84h-2.84z" style="stroke-width:0.71;stroke:none;fill:#619CFF"/><path d="m105.93 266.77 4.4-3.83m132.35-109.52 4.32-3.85m-72.73 60.51 4.39-3.82M48.33 314.29l-4.56 3.83" style="stroke-width:0.53;stroke:#BFBFBF"/><path d="M61.66 286.31h64.47-.09l.35-.01.34-.07.33-.13.3-.17.27-.22.23-.26.18-.29.14-.32.08-.34.03-.35h0v-15.22h0l-.03-.35-.08-.33-.14-.32-.18-.3-.23-.26-.27-.22-.3-.17-.33-.12-.34-.07-.26-.02H61.66l.26.02-.35-.02-.34.04-.33.1-.32.15-.28.2-.26.24-.2.28-.17.3-.11.33-.05.35-.01.17v15.22l.01-.17v.35l.05.34.11.33.17.31.2.27.26.25.28.19.32.15.33.1.34.04z" style="stroke-width:0.53;fill:#FFFFFF;fill-opacity:0.50"/><text x="93.9" y="274.52" lengthAdjust="spacingAndGlyphs" style="font-size:5.69px;font-family:&quot;Liberation Sans&quot;" text-anchor="middle" textLength="61.59">LILLZELL PROPERTIES</text><text x="93.9" y="282.71" lengthAdjust="spacingAndGlyphs" style="font-size:5.69px;font-family:&quot;Liberation Sans&quot;" text-anchor="middle" textLength="10.31">LLC</text><path d="M214.68 164.77h37.67l-.08-.01.34-.01.34-.07.33-.12.3-.18.27-.22.23-.26.18-.29.14-.32.08-.34.03-.34h0v-7.03h0l-.03-.35-.08-.33-.14-.32-.18-.3-.23-.26-.27-.22-.3-.17-.33-.13-.34-.06-.26-.02h-37.67l.26.02-.35-.02-.34.04-.33.1-.32.15-.28.2-.26.24-.2.27-.17.31-.11.33-.05.35-.01.17v7.03l.01-.18v.35l.05.34.11.33.17.31.2.28.26.24.28.2.32.15.33.09.34.04z" style="stroke-width:0.53;fill:#FFFFFF;fill-opacity:0.50"/><text x="233.52" y="161.17" lengthAdjust="spacingAndGlyphs" style="font-size:5.69px;font-family:&quot;Liberation Sans&quot;" text-anchor="middle" textLength="34.79">LILLIAN COX</text><path d="M128.63 229.62h67.22-.09l.35-.01.34-.07.32-.13.3-.17.27-.22.23-.26.19-.29.13-.32.09-.34.03-.35h0v-15.22h0l-.03-.35-.09-.33-.13-.32-.19-.3-.23-.26-.27-.22-.3-.17-.32-.12-.34-.07-.26-.02h-67.22l.26.02-.35-.02-.35.04-.33.1-.31.15-.29.2-.25.24-.21.28-.16.3-.11.33-.06.35v15.39-.17.35l.06.34.11.33.16.31.21.27.25.25.29.19.31.15.33.1.35.04z" style="stroke-width:0.53;fill:#FFFFFF;fill-opacity:0.50"/><text x="162.24" y="217.83" lengthAdjust="spacingAndGlyphs" style="font-size:5.69px;font-family:&quot;Liberation Sans&quot;" text-anchor="middle" textLength="46.86">PO BOX 250736,</text><text x="162.24" y="226.02" lengthAdjust="spacingAndGlyphs" style="font-size:5.69px;font-family:&quot;Liberation Sans&quot;" text-anchor="middle" textLength="64.34">MILWAUKEE, WI 53225</text><path d="M43.88 314.29h67.22l-.09-.01.35-.01.34-.07.32-.12.3-.18.27-.22.23-.26.19-.29.14-.32.08-.34.03-.34h0v-15.22h0l-.03-.35-.08-.34-.14-.32-.19-.29-.23-.26-.27-.22-.3-.18-.32-.12-.34-.07-.26-.01H43.88l.26.01-.35-.01-.34.04-.34.1-.31.14-.29.2-.25.24-.21.28-.16.31-.11.33-.05.34-.01.18v15.22l.01-.18v.35l.05.34.11.33.16.31.21.28.25.24.29.2.31.15.34.09.34.04z" style="stroke-width:0.53;fill:#FFFFFF;fill-opacity:0.50"/><text x="77.49" y="302.49" lengthAdjust="spacingAndGlyphs" style="font-size:5.69px;font-family:&quot;Liberation Sans&quot;" text-anchor="middle" textLength="53.68">7824 CUSTER AVE,</text><text x="77.49" y="310.69" lengthAdjust="spacingAndGlyphs" style="font-size:5.69px;font-family:&quot;Liberation Sans&quot;" text-anchor="middle" textLength="64.34">MILWAUKEE, WI 53218</text></g><g clip-path="url(#cpMC4wMHwyODguMDB8MC4wMHwzNjAuMDA=)"><circle cx="50.24" cy="115.22" r="1.95" style="stroke-width:0.71;stroke:none;fill:#F8766D"/><path d="m126.59 112.18 2.63 4.56h-5.26z" style="stroke-width:0.71;stroke:none;fill:#00BA38"/><path d="M192.57 117.18h3.91v-3.91h-3.91z" style="stroke-width:0.71;stroke:none;fill:#619CFF"/><text x="64.36" y="118.25" lengthAdjust="spacingAndGlyphs" style="font-size:8.80px;font-family:&quot;Liberation Sans Narrow&quot;" textLength="48.12">mprop address</text><text x="140.71" y="118.25" lengthAdjust="spacingAndGlyphs" style="font-size:8.80px;font-family:&quot;Liberation Sans Narrow&quot;" textLength="39.69">owner name</text><text x="208.64" y="118.25" lengthAdjust="spacingAndGlyphs" style="font-size:8.80px;font-family:&quot;Liberation Sans Narrow&quot;" textLength="40.5">wdfi address</text><text x="32.63" y="83.67" lengthAdjust="spacingAndGlyphs" style="font-size:12.00px;font-family:&quot;Liberation Sans Narrow&quot;" textLength="241.29">includes 2 parcels, 3 units, and 2 distinct owner names.</text><text x="32.63" y="42.27" lengthAdjust="spacingAndGlyphs" style="font-size:18.00px;font-weight:bold;font-family:&quot;Liberation Sans Narrow&quot;" textLength="178.71">LILLIAN COX -- LILLZELL</text><text x="32.63" y="61.71" lengthAdjust="spacingAndGlyphs" style="font-size:18.00px;font-weight:bold;font-family:&quot;Liberation Sans Narrow&quot;" textLength="176.28">PROPERTIES LLC Group</text></g></svg>