<svg xmlns="http://www.w3.org/2000/svg" width="384" height="384" class="svglite" viewBox="0 0 288 288"><defs><style>.svglite circle,.svglite line,.svglite polygon,.svglite polyline,.svglite rect{fill:none;stroke:#000;stroke-linecap:round;stroke-linejoin:round;stroke-miterlimit:10}.svglite text{white-space:pre}</style></defs><rect width="100%" height="100%" style="stroke:none;fill:#fff"/><defs><clipPath id="cpMC4wMHwyODguMDB8MC4wMHwyODguMDA="><path d="M0 0h288v288H0z"/></clipPath></defs><g clip-path="url(#cpMC4wMHwyODguMDB8MC4wMHwyODguMDA=)"><path d="M0 0h288v288H0z" style="stroke-width:1.07;stroke:none;fill:#fff"/></g><defs><clipPath id="cpMzIuNjN8MjU4LjExfDEyMS43OHwyNTUuMzc="><path d="M32.63 121.78h225.48v133.59H32.63z"/></clipPath></defs><g clip-path="url(#cpMzIuNjN8MjU4LjExfDEyMS43OHwyNTUuMzc=)"><path d="m247.86 127.86-1.03.61-1.04.61-1.03.62-1.04.61-1.03.61-1.04.62-1.03.61-1.04.61-1.03.62-1.04.61-1.04.61-1.03.62-1.04.61-1.03.61-1.04.62-1.03.61-1.04.61-1.03.62-1.04.61-1.03.61-1.04.62-1.03.61-1.04.61-1.03.62-1.04.61-1.03.61-1.04.62-1.04.61-1.03.61-1.04.62-1.03.61-1.04.61-1.03.62-1.04.61-1.03.61-1.04.62-1.03.61-1.04.61-1.03.62-1.04.61-1.03.61-1.04.62-1.03.61-1.04.61-1.03.62-1.04.61-1.04.61-1.03.62-1.04.61-1.03.61-1.04.62-1.03.61-1.04.62-1.03.61-1.04.61-1.03.62-1.04.61-1.03.61-1.04.62-1.03.61-1.04.61-1.03.62-1.04.61-1.04.61-1.03.62-1.04.61-1.03.61-1.04.62-1.03.61-1.04.61-1.03.62-1.04.61-1.03.61-1.04.62-1.03.61-1.04.61-1.03.62-1.04.61-1.03.61-1.04.62-1.03.61-1.04.61-1.04.62-1.03.61-1.04.61-1.03.62-1.04.61-1.03.61-1.04.62-1.03.61-1.04.61-1.03.62-1.04.61-1.03.61-1.04.62-1.03.61-1.04.61-1.03.62-1.04.61M42.88 249.3l1.03-.61 1.04-.62 1.03-.61 1.04-.61 1.03-.62 1.04-.61 1.03-.61 1.04-.62 1.03-.61 1.04-.61 1.04-.62 1.03-.61 1.04-.61 1.03-.62 1.04-.61 1.03-.61 1.04-.62 1.03-.61 1.04-.61 1.03-.62 1.04-.61 1.03-.61 1.04-.62 1.03-.61 1.04-.61 1.03-.62 1.04-.61 1.03-.61 1.04-.62 1.04-.61 1.03-.61 1.04-.62 1.03-.61 1.04-.61 1.03-.62 1.04-.61 1.03-.61 1.04-.62 1.03-.61 1.04-.61 1.03-.62 1.04-.61 1.03-.61 1.04-.62 1.03-.61 1.04-.61 1.04-.62 1.03-.61 1.04-.61 1.03-.62 1.04-.61 1.03-.61 1.04-.62 1.03-.61 1.04-.61 1.03-.62 1.04-.61 1.03-.61 1.04-.62 1.03-.61 1.04-.61 1.03-.62 1.04-.61 1.04-.61 1.03-.62 1.04-.61 1.03-.61 1.04-.62 1.03-.61 1.04-.61 1.03-.62 1.04-.61 1.03-.61 1.04-.62 1.03-.61 1.04-.61 1.03-.62 1.04-.61 1.03-.61 1.04-.62 1.03-.61 1.04-.61 1.04-.62 1.03-.61 1.04-.61 1.03-.62 1.04-.61 1.03-.61 1.04-.62 1.03-.61 1.04-.61 1.03-.62 1.04-.61 1.03-.61 1.04-.62 1.03-.61 1.04-.61 1.03-.62 1.04-.61" style="stroke-width:1.07;stroke:#000;stroke-opacity:.1;stroke-linecap:butt"/><path d="m247.86 125.65 1.92 3.31h-3.83zM42.88 247.09l1.91 3.32h-3.83z" style="stroke-width:.71;stroke:none;fill:#00bfc4"/><circle cx="145.37" cy="188.58" r="6.76" style="stroke-width:.71;stroke:none;fill:#f8766d"/><path d="m240.84 132.26 6.03-3.78M47.18 242.37l-3.8 6.12M138.31 192.96l6.06-3.76" style="stroke-width:.53;stroke:#bfbfbf"/><path d="M200.68 143.54h51.21-.09l.35-.01.34-.07.33-.13.3-.17.27-.22.23-.26.18-.29.14-.32.08-.34.03-.35v-6.96l-.03-.35-.08-.33-.14-.32-.18-.3-.23-.26-.27-.22-.3-.17-.33-.12-.34-.07-.26-.02h-51.21l.27.02-.35-.02-.35.04-.33.1-.32.15-.28.2-.25.24-.21.28-.16.3-.11.33-.06.35-.01.17v6.96l.01-.17v.35l.06.34.11.33.16.31.21.27.25.25.28.19.32.15.33.1.35.04z" style="stroke-width:.53;fill:#fff;fill-opacity:.5"/><text x="226.29" y="139.94" lengthAdjust="spacingAndGlyphs" style="font-size:5.69px;font-family:&quot;Arial&quot;" text-anchor="middle" textLength="48.33">PHILIP J HARBOR</text><path d="M49.34 245.1h61.96l-.09-.01.35-.01.34-.07.32-.12.31-.18.27-.22.23-.26.18-.29.14-.32.08-.34.03-.34v-6.97l-.03-.34-.08-.34-.14-.32-.18-.29-.23-.26-.27-.22-.31-.18-.32-.12-.34-.07-.26-.02H49.34l.26.02-.34-.02-.35.05-.33.09-.32.15-.28.2-.25.24-.21.28-.16.31-.11.33-.06.34-.01.17v6.97l.01-.18v.35l.06.34.11.33.16.31.21.28.25.24.28.2.32.15.33.09.35.04z" style="stroke-width:.53;fill:#fff;fill-opacity:.5"/><text x="80.32" y="241.5" lengthAdjust="spacingAndGlyphs" style="font-size:5.69px;font-family:&quot;Arial&quot;" text-anchor="middle" textLength="59.08">LINDA FAYE HARBOR</text><path d="M89.3 212.44h64.49l-.09-.01.35-.01.34-.07.32-.12.31-.18.26-.22.24-.26.18-.29.14-.32.08-.34.03-.34v-15.16l-.03-.35-.08-.34-.14-.32-.18-.29-.24-.26-.26-.22-.31-.17-.32-.13-.34-.07-.26-.01H89.3l.26.01-.35-.01-.34.04-.34.1-.31.15-.29.2-.25.24-.21.27-.16.31-.11.33-.06.34v15.34-.18.35l.06.34.11.33.16.31.21.28.25.24.29.2.31.15.34.09.34.04z" style="stroke-width:.53;fill:#fff;fill-opacity:.5"/><text x="121.54" y="200.64" lengthAdjust="spacingAndGlyphs" style="font-size:5.69px;font-family:&quot;Arial&quot;" text-anchor="middle" textLength="41.07">2850 N 6TH ST,</text><text x="121.54" y="208.84" lengthAdjust="spacingAndGlyphs" style="font-size:5.69px;font-family:&quot;Arial&quot;" text-anchor="middle" textLength="61.61">MILWAUKEE, WI 53212</text></g><g clip-path="url(#cpMC4wMHwyODguMDB8MC4wMHwyODguMDA=)"><circle cx="87.34" cy="96.71" r="1.95" style="stroke-width:.71;stroke:none;fill:#f8766d"/><path d="m163.7 93.67 2.63 4.56h-5.26z" style="stroke-width:.71;stroke:none;fill:#00bfc4"/><text x="101.46" y="99.86" lengthAdjust="spacingAndGlyphs" style="font-size:8.8px;font-family:&quot;Arial Narrow&quot;" textLength="48.12">mprop address</text><text x="177.82" y="99.86" lengthAdjust="spacingAndGlyphs" style="font-size:8.8px;font-family:&quot;Arial Narrow&quot;" textLength="39.69">owner name</text><text x="32.63" y="65.12" lengthAdjust="spacingAndGlyphs" style="font-size:12px;font-family:&quot;Arial Narrow&quot;" textLength="241.29">includes 2 parcels, 4 units, and 2 distinct owner names.</text><text x="32.63" y="42.78" lengthAdjust="spacingAndGlyphs" style="font-size:18px;font-weight:700;font-family:&quot;Arial Narrow&quot;" textLength="203.09">LINDA FAYE HARBOR Group</text></g></svg>