<svg xmlns="http://www.w3.org/2000/svg" width="576" height="672" class="svglite" viewBox="0 0 432 504"><defs><style><![CDATA[.svglite line,.svglite polyline,.svglite polygon,.svglite path,.svglite circle{fill:none;stroke:#000000;stroke-linecap:round;stroke-linejoin:round;stroke-miterlimit:10.00}]]></style></defs><rect width="100%" height="100%" style="stroke-linecap:round;stroke-linejoin:round;stroke-miterlimit:10.00;stroke:none;fill:#FFFFFF"/><defs><clipPath id="cpMC4wMHw0MzIuMDB8MC4wMHw1MDQuMDA="><path d="M0 0h432v504H0z"/></clipPath></defs><g clip-path="url(#cpMC4wMHw0MzIuMDB8MC4wMHw1MDQuMDA=)"><path d="M0 0h432v504H0z" style="stroke-width:1.07;stroke:none;fill:#FFFFFF"/></g><defs><clipPath id="cpMzIuNjN8NDAyLjExfDE0MS4yMnw0NzEuMzc="><path d="M32.63 141.22h369.48v330.15H32.63z"/></clipPath></defs><g clip-path="url(#cpMzIuNjN8NDAyLjExfDE0MS4yMnw0NzEuMzc=)"><path d="m385.32 243.48-1.87-.16-1.86-.15-1.86-.14-1.86-.14-1.86-.14-1.86-.13-1.86-.12-1.86-.12-1.85-.11-1.86-.1-1.85-.1-1.85-.1-1.86-.08-1.85-.09-1.85-.07-1.85-.07-1.84-.06-1.85-.06-1.85-.06-1.84-.04-1.84-.04-1.85-.04-1.84-.03-1.84-.02-1.84-.01-1.84-.02h-3.67l-1.84.01-1.83.01-1.83.02-1.84.02-1.83.03-1.83.04-1.83.04-1.83.05-1.82.05-1.83.06-1.82.07-1.83.07-1.82.08-1.82.08-1.83.09-1.82.09-1.81.1-1.82.11-1.82.11-1.82.12-1.81.12-1.81.13-1.82.14-1.81.14-1.81.15-1.81.15-1.81.16-1.81.17-1.8.17-1.81.18-1.8.18-1.81.19-1.8.19-1.8.21-1.8.2-1.8.21-1.8.22-1.8.23-1.8.23-1.79.23-1.8.25-1.79.24-1.79.26-1.79.26-1.79.26-1.79.27-1.79.28-1.79.28-1.78.29-1.79.3-1.78.3-1.79.3-1.78.32-1.78.32-1.78.32-1.78.33-1.78.34-1.77.34-1.78.35-1.78.35-1.77.36-1.77.36-1.77.38-1.78.37-1.77.39-1.76.38-1.77.4-1.77.4-1.77.41-1.76.41-1.76.42" style="stroke-width:1.07;stroke:#000000;stroke-opacity:0.10;stroke-linecap:butt"/><path d="m385.32 243.48-1.77.42-1.76.41-1.77.41-1.76.4-1.77.4-1.77.38-1.77.39-1.77.37-1.77.38-1.78.36-1.77.36-1.78.35-1.77.35-1.78.34-1.78.34-1.78.33-1.78.32-1.78.32-1.78.32-1.78.3-1.79.3-1.78.3-1.79.29-1.79.28-1.78.28-1.79.27-1.79.26-1.8.26-1.79.26-1.79.24-1.8.25-1.79.23-1.8.23-1.8.23-1.79.22-1.8.21-1.8.2-1.81.21-1.8.19-1.8.19-1.81.18-1.8.18-1.81.17-1.81.17-1.81.16-1.81.15-1.81.15-1.81.14-1.81.14-1.82.13-1.81.12-1.82.12-1.81.11-1.82.11-1.82.1-1.82.09-1.82.09-1.82.08-1.83.08-1.82.07-1.83.07-1.82.06-1.83.05-1.83.05-1.83.04-1.83.04-1.83.03-1.83.02-1.84.02-1.83.01-1.84.01h-3.67l-1.84-.02-1.84-.01-1.84-.03-1.84-.02-1.84-.04-1.85-.04-1.84-.05-1.85-.05-1.84-.06-1.85-.06-1.85-.07-1.85-.07-1.85-.09-1.85-.08-1.85-.1-1.86-.1-1.85-.1-1.86-.11-1.86-.12-1.85-.12-1.86-.13-1.86-.14-1.86-.14-1.87-.14-1.86-.15-1.86-.16m-91.25-100.14.53 1.16.54 1.15.55 1.16.56 1.14.56 1.15.57 1.14.58 1.14.59 1.14.59 1.13.61 1.14.61 1.12.62 1.13.62 1.12.64 1.12.64 1.12.65 1.11.66 1.11.67 1.11.68 1.1.68 1.1.69 1.1.7 1.09.7 1.1.72 1.09.72 1.08.73 1.09.74 1.08.75 1.07.75 1.08.77 1.07.77 1.07.77 1.06.79 1.06.8 1.06.8 1.06.81 1.05.82 1.05.82 1.05.84 1.05.84 1.04.85 1.04.86 1.03.86 1.03.88 1.03.88 1.03.89 1.02.9 1.02.9 1.02.92 1.01.92 1.02.93 1 .93 1.01.95 1 .95 1 .96 1 .97.99.98.99.99.99.99.98 1 .99 1.01.98 1.02.97 1.02.97 1.04.97 1.04.97 1.05.96 1.05.96 1.07.96 1.07.96 1.08.95 1.09.95 1.1.94 1.1.95 1.11.94 1.12.93 1.13.94 1.14.93 1.14.92 1.16.93 1.16.92 1.17.92 1.17.92 1.19.91 1.19.91 1.2.91 1.21.9 1.21.9 1.23.9 1.23.89 1.24.89 1.25.89 1.25.89 1.27.88 1.27.88 1.28.88 1.29.87 1.29.87 1.3.87 1.32.87m-80.03 102.38 1.21-.9 1.2-.91 1.19-.91 1.18-.92 1.18-.91 1.16-.92 1.16-.92 1.15-.93 1.14-.92 1.14-.93 1.12-.94 1.12-.93 1.11-.94 1.1-.94 1.09-.94 1.09-.94 1.08-.95 1.06-.95 1.07-.96 1.05-.95 1.04-.96 1.04-.96 1.03-.96 1.02-.97 1.01-.97 1-.97 1-.97.98-.98.98-.98.97-.98.97-.99.95-.98.95-.99.94-.99.93-1 .92-1 .91-1 .91-1 .9-1 .89-1.01.88-1.01.87-1.02.87-1.01.85-1.02.85-1.02.84-1.03.84-1.02.82-1.03.82-1.03.81-1.04.8-1.03.79-1.04.78-1.04.78-1.05.76-1.05.76-1.05.76-1.05.74-1.05.73-1.06.73-1.06.72-1.07.71-1.06.7-1.07.7-1.07.68-1.07.68-1.08.67-1.08.66-1.08.66-1.08.64-1.09.64-1.09.63-1.09.62-1.1.61-1.09.61-1.1.6-1.11.58-1.1.58-1.11.58-1.11.56-1.11.56-1.12.55-1.11.54-1.13.53-1.12.52-1.12.52-1.13.5-1.13.5-1.14.49-1.13.49-1.14.47-1.14.47-1.15.46-1.15.45-1.15.44-1.15.43-1.15.43-1.16.42-1.16.41-1.16m-80.03 102.38-1.15.87-1.14.86-1.13.87-1.13.87-1.12.87-1.11.88-1.11.88-1.09.88-1.09.88-1.08.89-1.08.89-1.06.89-1.06.89-1.05.9-1.04.9-1.04.9-1.02.9-1.02.91-1.01.91-1.01.91-.99.91-.99.92-.98.92-.97.92-.97.92-.95.93-.95.93-.94.93-.94.93-.92.94-.92.93-.91.95-.9.94-.9.94-.88.95-.88.95-.88.96-.86.95-.85.96-.85.96-.84.97-.84.96-.82.97-.82.97-.81.98-.8.97-.79.98-.79.98-.78.98-.77.99-.76.99-.76.99-.74.99-.74 1-.74 1-.72 1-.72 1-.7 1.01-.7 1.01-.7 1.01-.68 1.01-.68 1.02-.67 1.02-.66 1.02-.66 1.02-.64 1.03-.64 1.03-.63 1.03-.63 1.03-.61 1.04-.61 1.03-.6 1.04-.59 1.05-.59 1.04-.57 1.05-.57 1.05-.56 1.06-.56 1.05-.54 1.06-.54 1.06-.53 1.07-.52 1.06-.52 1.07-.5 1.07-.5 1.07-.5 1.08-.48 1.08-.47 1.08-.47 1.08-.46 1.09-.46 1.09-.44 1.09-.44 1.09-.43 1.1-.42 1.1-.41 1.1-.41 1.1-.4 1.11-.39 1.11" style="stroke-width:1.07;stroke:#000000;stroke-opacity:0.10;stroke-linecap:butt"/><path d="m125.71 358.75.41-1.16.42-1.16.43-1.16.43-1.15.44-1.15.45-1.15.46-1.15.47-1.15.47-1.14.49-1.14.49-1.13.5-1.14.5-1.13.52-1.13.52-1.12.54-1.13.54-1.12.54-1.11.56-1.12.56-1.11.58-1.11.58-1.11.59-1.1.59-1.11.61-1.1.61-1.09.62-1.1.63-1.09.64-1.09.64-1.09.66-1.08.66-1.08.67-1.08.68-1.08.68-1.07.7-1.07.7-1.07.71-1.06.72-1.07.73-1.06.73-1.06.75-1.05.75-1.05.76-1.05.76-1.05.78-1.05.78-1.04.8-1.04.8-1.03.8-1.04.82-1.03.82-1.03.84-1.02.84-1.03.85-1.02.85-1.02.87-1.01.87-1.02.88-1.01.89-1.01.9-1 .91-1 .91-1 .92-1 .93-1 .94-.99.95-.99.95-.99.97-.98.97-.98.98-.98.98-.98 1-.97 1-.97 1.02-.97 1.01-.97 1.03-.96 1.04-.96 1.04-.96 1.06-.95 1.06-.96 1.06-.95 1.08-.95 1.09-.94 1.09-.94 1.1-.94 1.11-.94 1.12-.93 1.12-.94 1.14-.93 1.14-.92 1.15-.93 1.16-.92 1.16-.92 1.18-.91 1.18-.92 1.19-.91 1.2-.91 1.21-.9m-80.03 102.38-.39 1.11-.39 1.11-.41 1.1-.41 1.1-.43 1.1-.42 1.1-.44 1.09-.45 1.09-.45 1.09-.46 1.08-.47 1.09-.47 1.08-.49 1.08-.49 1.07-.5 1.08-.51 1.07-.51 1.07-.52 1.06-.53 1.07-.54 1.06-.55 1.05-.55 1.06-.56 1.05-.57 1.05-.58 1.05-.58 1.05-.59 1.04-.6 1.04-.61 1.04-.62 1.04-.62 1.03-.63 1.03-.64 1.03-.65 1.03-.65 1.02-.66 1.02-.67 1.02-.68 1.02-.68 1.01-.7 1.01-.7 1.01-.71 1.01-.71 1-.73 1-.73 1-.74.99-.75 1-.75.99-.76.99-.78.98-.77.99-.79.98-.79.98-.81.97-.8.98-.82.97-.83.96-.83.97-.84.96-.85.97-.85.95-.87.96-.87.95-.88.95-.89.95-.89.95-.9.94-.91.94-.92.94-.93.94-.93.93-.94.93-.95.93-.96.93-.96.92-.97.92-.98.92-.99.92-1 .91-1 .91-1.01.91-1.02.91-1.03.9-1.03.9-1.04.9-1.05.89-1.06.9-1.07.89-1.07.89-1.08.88-1.09.89-1.1.88-1.1.88-1.11.87-1.12.88-1.13.87-1.13.87-1.15.86-1.15.87m65.07-300.14 1.31.87 1.31.86 1.29.88 1.29.87 1.28.88 1.27.88 1.26.88 1.26.89 1.25.88 1.24.9 1.23.89 1.22.9 1.22.9 1.21.9 1.2.91 1.19.91 1.18.91 1.18.92 1.17.92 1.16.92 1.15.92 1.15.93 1.13.93 1.13.94 1.12.93 1.11.94 1.11.95 1.1.94 1.09.95 1.08.95 1.07.96 1.06.95 1.06.97 1.05.96 1.04.97 1.03.97 1.03.97 1.02.97 1.01.98 1 .98.99.99.99.99.97.99.97.99.96 1 .96 1 .94 1 .94 1 .93 1.01.92 1.01.91 1.02.91 1.02.9 1.02.89 1.02.88 1.03.87 1.03.87 1.03.86 1.03.85 1.04.84 1.04.83 1.05.83 1.04.82 1.06.81 1.05.8 1.05.8 1.06.78 1.07.78 1.06.77 1.07.76 1.07.76 1.08.74 1.07.74 1.08.73 1.09.73 1.08.71 1.09.71 1.09.7 1.1.69 1.1.68 1.1.68 1.1.66 1.11.66 1.11.65 1.11.65 1.12.63 1.12.63 1.12.62 1.12.61 1.13.6 1.13.6 1.14.59 1.13.58 1.14.57 1.15.56 1.14.56 1.15.54 1.15.54 1.16.54 1.16" style="stroke-width:1.07;stroke:#000000;stroke-opacity:0.10;stroke-linecap:butt"/><path d="m385.32 241.27 1.91 3.32h-3.83zm-270.83-87.25 1.91 3.32h-3.82zm11.22 202.52 1.92 3.32h-3.83z" style="stroke-width:0.71;stroke:none;fill:#00BA38"/><circle cx="205.74" cy="256.37" r="6.76" style="stroke-width:0.71;stroke:none;fill:#F8766D"/><path d="M48 457.79h2.84v-2.85H48z" style="stroke-width:0.71;stroke:none;fill:#619CFF"/><path d="m109.74 160.89 3.94-3.86m16.76 197.09-3.91 3.83m84.19-106.17-4.14 3.81M54.42 451.77l-4.16 3.82" style="stroke-width:0.53;stroke:#BFBFBF"/><path d="M333.3 249.04h45.2-.08l.34-.02.35-.07.32-.12.3-.17.27-.22.23-.26.19-.3.13-.32.09-.34.02-.34h0v-6.96h0l-.02-.35-.09-.34-.13-.32-.19-.29-.23-.26-.27-.22-.3-.18-.32-.12-.35-.07-.26-.01h-45.2l.26.01-.35-.01-.35.04-.33.1-.31.14-.29.2-.25.24-.21.28-.16.31-.11.33-.06.34v7.14-.18.35l.06.34.11.33.16.31.21.28.25.24.29.2.31.15.33.09.35.05z" style="stroke-width:0.53;fill:#FFFFFF;fill-opacity:0.50"/><text x="355.9" y="245.44" lengthAdjust="spacingAndGlyphs" style="font-size:5.69px;font-family:Arial" text-anchor="middle" textLength="42.33">LINSEY COHEN</text><path d="M77.5 172.17h50.89-.09l.35-.02.34-.07.32-.12.31-.17.27-.22.23-.26.18-.3.14-.32.08-.34.03-.34h0v-6.96h0l-.03-.35-.08-.34-.14-.32-.18-.29-.23-.26-.27-.22-.31-.18-.32-.12-.34-.07-.26-.01H77.5l.26.01-.35-.01-.34.04-.34.1-.31.15-.29.19-.25.24-.21.28-.16.31-.11.33-.05.34-.01.18v6.96l.01-.18v.35l.05.34.11.33.16.31.21.28.25.24.29.2.31.15.34.09.34.05z" style="stroke-width:0.53;fill:#FFFFFF;fill-opacity:0.50"/><text x="102.94" y="168.57" lengthAdjust="spacingAndGlyphs" style="font-size:5.69px;font-family:Arial" text-anchor="middle" textLength="48.01">LINSEY N COHEN</text><path d="M114.42 354.12h45.53-.08l.34-.02.34-.07.33-.12.3-.17.27-.22.23-.26.19-.3.13-.32.09-.33.02-.35h0V345h0l-.02-.35-.09-.34-.13-.32-.19-.29-.23-.26-.27-.22-.3-.17-.33-.13-.34-.07-.26-.01h-45.53l.26.01-.35-.01-.34.04-.33.1-.32.15-.29.19-.25.24-.2.28-.17.31-.11.33-.05.34-.01.18v6.96l.01-.17v.34l.05.35.11.33.17.3.2.28.25.24.29.2.32.15.33.1.34.04z" style="stroke-width:0.53;fill:#FFFFFF;fill-opacity:0.50"/><text x="137.19" y="350.52" lengthAdjust="spacingAndGlyphs" style="font-size:5.69px;font-family:Arial" text-anchor="middle" textLength="42.65">RAEJAE WI LLC</text><path d="M197.74 251.78h57.21-.09l.35-.02.34-.07.32-.12.3-.17.27-.22.23-.26.19-.3.14-.32.08-.33.03-.35h0v-23.35h0l-.03-.35-.08-.34-.14-.32-.19-.29-.23-.26-.27-.22-.3-.17-.32-.13-.34-.07-.26-.01h-57.21l.26.01-.34-.01-.35.04-.33.1-.32.15-.28.2-.25.24-.21.27-.16.31-.11.33-.06.34-.01.18v23.35l.01-.17v.34l.06.35.11.33.16.3.21.28.25.24.28.2.32.15.33.1.35.04z" style="stroke-width:0.53;fill:#FFFFFF;fill-opacity:0.50"/><text x="226.35" y="231.79" lengthAdjust="spacingAndGlyphs" style="font-size:5.69px;font-family:Arial" text-anchor="middle" textLength="54.03">188 LAKEWOOD PL,</text><text x="226.35" y="239.98" lengthAdjust="spacingAndGlyphs" style="font-size:5.69px;font-family:Arial" text-anchor="middle" textLength="54.32">HIGHLAND PARK, IL</text><text x="226.35" y="248.18" lengthAdjust="spacingAndGlyphs" style="font-size:5.69px;font-family:Arial" text-anchor="middle" textLength="15.8">60035</text><path d="M38.76 451.77h62.58l-.09-.01.35-.01.34-.07.32-.12.3-.18.27-.22.23-.26.19-.29.14-.32.08-.34.03-.34h0v-23.35h0l-.03-.35-.08-.34-.14-.32-.19-.29-.23-.26-.27-.22-.3-.18-.32-.12-.34-.07-.26-.01H38.76l.26.01-.34-.01-.35.04-.33.1-.32.14-.28.2-.25.24-.21.28-.16.31-.11.33-.06.34-.01.18v23.35l.01-.18v.35l.06.34.11.33.16.31.21.28.25.24.28.2.32.15.33.09.35.04z" style="stroke-width:0.53;fill:#FFFFFF;fill-opacity:0.50"/><text x="70.05" y="431.78" lengthAdjust="spacingAndGlyphs" style="font-size:5.69px;font-family:Arial" text-anchor="middle" textLength="47.72">222 LA SALLE ST,</text><text x="70.05" y="439.97" lengthAdjust="spacingAndGlyphs" style="font-size:5.69px;font-family:Arial" text-anchor="middle" textLength="59.7">STE 300, CHICAGO, IL</text><text x="70.05" y="448.17" lengthAdjust="spacingAndGlyphs" style="font-size:5.69px;font-family:Arial" text-anchor="middle" textLength="15.8">60601</text></g><g clip-path="url(#cpMC4wMHw0MzIuMDB8MC4wMHw1MDQuMDA=)"><circle cx="124.98" cy="116.15" r="1.95" style="stroke-width:0.71;stroke:none;fill:#F8766D"/><path d="m201.33 113.11 2.63 4.56h-5.26z" style="stroke-width:0.71;stroke:none;fill:#00BA38"/><path d="M267.31 118.1h3.91v-3.91h-3.91z" style="stroke-width:0.71;stroke:none;fill:#619CFF"/><text x="139.09" y="119.3" lengthAdjust="spacingAndGlyphs" style="font-size:8.80px;font-family:Arial Narrow" textLength="48.12">mprop address</text><text x="215.45" y="119.3" lengthAdjust="spacingAndGlyphs" style="font-size:8.80px;font-family:Arial Narrow" textLength="39.69">owner name</text><text x="283.38" y="119.3" lengthAdjust="spacingAndGlyphs" style="font-size:8.80px;font-family:Arial Narrow" textLength="40.5">wdfi address</text><text x="32.63" y="84.56" lengthAdjust="spacingAndGlyphs" style="font-size:12.00px;font-family:Arial Narrow" textLength="246.76">includes 6 parcels, 12 units, and 3 distinct owner names.</text><text x="32.63" y="42.78" lengthAdjust="spacingAndGlyphs" style="font-size:18.00px;font-weight:bold;font-family:Arial Narrow" textLength="331.57">LINSEY COHEN -- LINSEY N COHEN -- RAEJAE</text><text x="32.63" y="62.22" lengthAdjust="spacingAndGlyphs" style="font-size:18.00px;font-weight:bold;font-family:Arial Narrow" textLength="99.19">WI LLC Group</text></g></svg>