<svg xmlns="http://www.w3.org/2000/svg" width="768" height="768" class="svglite" viewBox="0 0 576 576"><defs><style>.svglite circle,.svglite line,.svglite polygon,.svglite polyline,.svglite rect{fill:none;stroke:#000;stroke-linecap:round;stroke-linejoin:round;stroke-miterlimit:10}.svglite text{white-space:pre}</style></defs><rect width="100%" height="100%" style="stroke:none;fill:#fff"/><defs><clipPath id="cpMC4wMHw1NzYuMDB8MC4wMHw1NzYuMDA="><path d="M0 0h576v576H0z"/></clipPath></defs><g clip-path="url(#cpMC4wMHw1NzYuMDB8MC4wMHw1NzYuMDA=)"><path d="M0 0h576v576H0z" style="stroke-width:1.07;stroke:none;fill:#fff"/></g><defs><clipPath id="cpMzIuNjN8NTQ2LjExfDEyMC44Nnw1NDMuMzc="><path d="M32.63 120.86h513.48v422.51H32.63z"/></clipPath></defs><g clip-path="url(#cpMzIuNjN8NTQ2LjExfDEyMC44Nnw1NDMuMzc=)"><path d="m272.35 516.16-.61-1.72-.61-1.73-.61-1.73-.61-1.73-.61-1.73-.61-1.73-.61-1.73-.62-1.73-.61-1.72-.61-1.73-.61-1.73-.61-1.73-.61-1.73-.61-1.73-.61-1.73-.61-1.73-.61-1.72-.62-1.73-.61-1.73-.61-1.73-.61-1.73-.61-1.73-.61-1.73-.61-1.73-.61-1.72-.61-1.73-.62-1.73-.61-1.73-.61-1.73-.61-1.73-.61-1.73-.61-1.73-.61-1.72-.61-1.73-.61-1.73-.61-1.73-.62-1.73-.61-1.73-.61-1.73-.61-1.73-.61-1.72-.61-1.73-.61-1.73-.61-1.73-.61-1.73-.62-1.73-.61-1.73-.61-1.73-.61-1.72-.61-1.73-.61-1.73-.61-1.73-.61-1.73-.61-1.73-.61-1.73-.62-1.73-.61-1.72-.61-1.73-.61-1.73-.61-1.73-.61-1.73-.61-1.73-.61-1.73-.61-1.73-.62-1.72-.61-1.73-.61-1.73-.61-1.73-.61-1.73-.61-1.73-.61-1.73-.61-1.73-.61-1.72-.62-1.73-.61-1.73-.61-1.73-.61-1.73-.61-1.73-.61-1.73-.61-1.73-.61-1.72-.61-1.73-.61-1.73-.62-1.73-.61-1.73-.61-1.73-.61-1.73-.61-1.73-.61-1.72-.61-1.73-.61-1.73-.61-1.73-.62-1.73-.61-1.73-.61-1.73-.61-1.73-.61-1.72-.61-1.73-.61-1.73M337.36 437.8l-1.27-.93-1.27-.94-1.27-.94-1.26-.94-1.27-.93-1.27-.94-1.27-.94-1.27-.93-1.26-.94-1.27-.94-1.27-.94-1.27-.93-1.26-.94-1.27-.94-1.27-.94-1.27-.93-1.26-.94-1.27-.94-1.27-.93-1.27-.94-1.26-.94-1.27-.94-1.27-.93-1.27-.94-1.27-.94-1.26-.93-1.27-.94-1.27-.94-1.27-.94-1.26-.93-1.27-.94-1.27-.94-1.27-.94-1.26-.93-1.27-.94-1.27-.94-1.27-.93-1.26-.94-1.27-.94-1.27-.94-1.27-.93-1.27-.94-1.26-.94-1.27-.93-1.27-.94-1.27-.94-1.26-.94-1.27-.93-1.27-.94-1.27-.94-1.26-.94-1.27-.93-1.27-.94-1.27-.94-1.26-.93-1.27-.94-1.27-.94-1.27-.94-1.27-.93-1.26-.94-1.27-.94-1.27-.93-1.27-.94-1.26-.94-1.27-.94-1.27-.93-1.27-.94-1.26-.94-1.27-.94-1.27-.93-1.27-.94-1.26-.94-1.27-.93-1.27-.94-1.27-.94-1.27-.94-1.26-.93-1.27-.94-1.27-.94-1.27-.93-1.26-.94-1.27-.94-1.27-.94-1.27-.93-1.26-.94-1.27-.94-1.27-.94-1.27-.93-1.26-.94-1.27-.94-1.27-.93-1.27-.94-1.27-.94-1.26-.94-1.27-.93-1.27-.94-1.27-.94-1.26-.93-1.27-.94M378.52 307.27l-1.68.38-1.69.38-1.68.38-1.68.38-1.69.38-1.68.39-1.68.38-1.69.38-1.68.38-1.68.38-1.69.38-1.68.38-1.68.38-1.69.39-1.68.38-1.68.38-1.69.38-1.68.38-1.69.38-1.68.38-1.68.39-1.69.38-1.68.38-1.68.38-1.69.38-1.68.38-1.68.38-1.69.38-1.68.39-1.68.38-1.69.38-1.68.38-1.68.38-1.69.38-1.68.38-1.68.39-1.69.38-1.68.38-1.68.38-1.69.38-1.68.38-1.68.38-1.69.38-1.68.39-1.68.38-1.69.38-1.68.38-1.69.38-1.68.38-1.68.38-1.69.38-1.68.39-1.68.38-1.69.38-1.68.38-1.68.38-1.69.38-1.68.38-1.68.39-1.69.38-1.68.38-1.68.38-1.69.38-1.68.38-1.68.38-1.69.38-1.68.39-1.68.38-1.69.38-1.68.38-1.68.38-1.69.38-1.68.38-1.69.39-1.68.38-1.68.38-1.69.38-1.68.38-1.68.38-1.69.38-1.68.38-1.68.39-1.69.38-1.68.38-1.68.38-1.69.38-1.68.38-1.68.38-1.69.38-1.68.39-1.68.38-1.69.38-1.68.38-1.68.38-1.69.38-1.68.38-1.68.39-1.69.38-1.68.38M378.52 307.27l1.46-.3 1.45-.31 1.46-.3 1.46-.3 1.46-.3 1.45-.31 1.46-.3 1.46-.3 1.45-.3 1.46-.31 1.46-.3 1.46-.3 1.45-.3 1.46-.31 1.46-.3 1.45-.3 1.46-.3 1.46-.31 1.46-.3 1.45-.3 1.46-.3 1.46-.31 1.45-.3 1.46-.3 1.46-.3 1.45-.31 1.46-.3 1.46-.3 1.46-.3 1.45-.31 1.46-.3 1.46-.3 1.45-.3 1.46-.31 1.46-.3 1.46-.3 1.45-.3 1.46-.31 1.46-.3 1.45-.3 1.46-.3 1.46-.31 1.46-.3 1.45-.3 1.46-.3 1.46-.31 1.45-.3 1.46-.3 1.46-.3 1.45-.31 1.46-.3 1.46-.3 1.46-.3 1.45-.31 1.46-.3 1.46-.3 1.45-.3 1.46-.31 1.46-.3 1.46-.3 1.45-.3 1.46-.31 1.46-.3 1.45-.3 1.46-.3 1.46-.31 1.46-.3 1.45-.3 1.46-.3 1.46-.31 1.45-.3 1.46-.3 1.46-.3 1.45-.31 1.46-.3 1.46-.3 1.46-.3 1.45-.31 1.46-.3 1.46-.3 1.45-.3 1.46-.31 1.46-.3 1.46-.3 1.45-.3 1.46-.31 1.46-.3 1.45-.3 1.46-.3 1.46-.31 1.46-.3 1.45-.3 1.46-.3 1.46-.31 1.45-.3 1.46-.3 1.46-.3 1.45-.31 1.46-.3" style="stroke-width:1.07;stroke:#000;stroke-opacity:.1;stroke-linecap:butt"/><path d="m224.54 140.07-.12 2.07-.13 2.07-.13 2.07-.13 2.07-.13 2.07-.13 2.07-.12 2.07-.13 2.07-.13 2.07-.13 2.07-.13 2.07-.12 2.07-.13 2.07-.13 2.07-.13 2.07-.13 2.07-.12 2.07-.13 2.07-.13 2.07-.13 2.07-.13 2.07-.13 2.07-.12 2.07-.13 2.07-.13 2.07-.13 2.07-.13 2.07-.12 2.07-.13 2.07-.13 2.07-.13 2.07-.13 2.07-.12 2.07-.13 2.07-.13 2.07-.13 2.08-.13 2.07-.13 2.07-.12 2.07-.13 2.07-.13 2.07-.13 2.07-.13 2.07-.12 2.07-.13 2.07-.13 2.07-.13 2.07-.13 2.07-.12 2.07-.13 2.07-.13 2.07-.13 2.07-.13 2.07-.13 2.07-.12 2.07-.13 2.07-.13 2.07-.13 2.07-.13 2.07-.12 2.07-.13 2.07-.13 2.07-.13 2.07-.13 2.07-.13 2.07-.12 2.07-.13 2.07-.13 2.07-.13 2.07-.13 2.07-.12 2.07-.13 2.07-.13 2.07-.13 2.07-.13 2.07-.12 2.07-.13 2.07-.13 2.07-.13 2.07-.13 2.07-.13 2.07-.12 2.07-.13 2.07-.13 2.07-.13 2.08-.13 2.07-.12 2.07-.13 2.07-.13 2.07-.13 2.07-.13 2.07-.12 2.07-.13 2.07-.13 2.07-.13 2.07-.13 2.07-.13 2.07-.12 2.07-.13 2.07M224.54 140.07l.6.73.6.73.59.73.6.73.6.73.59.73.6.73.59.73.6.73.6.73.59.73.6.73.6.73.59.73.6.73.6.73.59.74.6.73.59.73.6.73.6.73.59.73.6.73.6.73.59.73.6.73.59.73.6.73.6.73.59.73.6.73.6.73.59.73.6.73.6.73.59.73.6.73.59.73.6.74.6.73.59.73.6.73.6.73.59.73.6.73.6.73.59.73.6.73.59.73.6.73.6.73.59.73.6.73.6.73.59.73.6.73.6.73.59.73.6.73.59.73.6.74.6.73.59.73.6.73.6.73.59.73.6.73.6.73.59.73.6.73.59.73.6.73.6.73.59.73.6.73.6.73.59.73.6.73.6.73.59.73.6.73.59.73.6.73.6.74.59.73.6.73.6.73.59.73.6.73.59.73.6.73.6.73.59.73.6.73.6.73.59.73.6.73.6.73.59.73M161.59 194.34l.51 1.53.51 1.52.5 1.52.51 1.52.51 1.52.51 1.53.51 1.52.5 1.52.51 1.52.51 1.52.51 1.53.5 1.52.51 1.52.51 1.52.51 1.52.51 1.53.5 1.52.51 1.52.51 1.52.51 1.52.5 1.53.51 1.52.51 1.52.51 1.52.51 1.52.5 1.53.51 1.52.51 1.52.51 1.52.5 1.52.51 1.52.51 1.53.51 1.52.51 1.52.5 1.52.51 1.52.51 1.53.51 1.52.5 1.52.51 1.52.51 1.52.51 1.53.5 1.52.51 1.52.51 1.52.51 1.52.51 1.53.5 1.52.51 1.52.51 1.52.51 1.52.5 1.53.51 1.52.51 1.52.51 1.52.51 1.52.5 1.53.51 1.52.51 1.52.51 1.52.5 1.52.51 1.53.51 1.52.51 1.52.51 1.52.5 1.52.51 1.53.51 1.52.51 1.52.5 1.52.51 1.52.51 1.53.51 1.52.5 1.52.51 1.52.51 1.52.51 1.52.51 1.53.5 1.52.51 1.52.51 1.52.51 1.52.5 1.53.51 1.52.51 1.52.51 1.52.51 1.52.5 1.53.51 1.52.51 1.52.51 1.52.5 1.52.51 1.53.51 1.52.51 1.52.51 1.52.5 1.52.51 1.53.51 1.52" style="stroke-width:1.07;stroke:#000;stroke-opacity:.1;stroke-linecap:butt"/><path d="m161.59 194.34 1.23.19 1.24.18 1.23.18 1.23.18 1.23.19 1.24.18 1.23.18 1.23.18 1.23.18 1.23.19 1.24.18 1.23.18 1.23.18 1.23.19 1.24.18 1.23.18 1.23.18 1.23.18 1.23.19 1.24.18 1.23.18 1.23.18 1.23.18 1.24.19 1.23.18 1.23.18 1.23.18 1.23.19 1.24.18 1.23.18 1.23.18 1.23.18 1.24.19 1.23.18 1.23.18 1.23.18 1.23.19 1.24.18 1.23.18 1.23.18 1.23.18 1.24.19 1.23.18 1.23.18 1.23.18 1.23.19 1.24.18 1.23.18 1.23.18 1.23.18 1.24.19 1.23.18 1.23.18 1.23.18 1.23.19 1.24.18 1.23.18 1.23.18 1.23.18 1.24.19 1.23.18 1.23.18 1.23.18 1.23.19 1.24.18 1.23.18 1.23.18 1.23.18 1.24.19 1.23.18 1.23.18 1.23.18 1.23.18 1.24.19 1.23.18 1.23.18 1.23.18 1.24.19 1.23.18 1.23.18 1.23.18 1.23.18 1.24.19 1.23.18 1.23.18 1.23.18 1.24.19 1.23.18 1.23.18 1.23.18 1.23.18 1.24.19 1.23.18 1.23.18 1.23.18 1.24.19 1.23.18 1.23.18 1.23.18M69.07 250.56l1.45.95 1.44.95 1.44.96 1.44.95 1.45.96 1.44.95 1.44.96 1.44.95 1.45.95 1.44.96 1.44.95 1.44.96 1.44.95 1.45.95 1.44.96 1.44.95 1.44.96 1.45.95 1.44.96 1.44.95 1.44.95 1.44.96 1.45.95 1.44.96 1.44.95 1.44.95 1.45.96 1.44.95 1.44.96 1.44.95 1.44.96 1.45.95 1.44.95 1.44.96 1.44.95 1.45.96 1.44.95 1.44.95 1.44.96 1.45.95 1.44.96 1.44.95 1.44.95 1.44.96 1.45.95 1.44.96 1.44.95 1.44.96 1.45.95 1.44.95 1.44.96 1.44.95 1.44.96 1.45.95 1.44.95 1.44.96 1.44.95 1.45.96 1.44.95 1.44.96 1.44.95 1.44.95 1.45.96 1.44.95 1.44.96 1.44.95 1.45.95 1.44.96 1.44.95 1.44.96 1.45.95 1.44.96 1.44.95 1.44.95 1.44.96 1.45.95 1.44.96 1.44.95 1.44.95 1.45.96 1.44.95 1.44.96 1.44.95 1.44.96 1.45.95 1.44.95 1.44.96 1.44.95 1.45.96 1.44.95 1.44.95 1.44.96 1.44.95 1.45.96 1.44.95 1.44.96 1.44.95 1.45.95 1.44.96M55.97 365.06l1.59-.05 1.59-.05 1.58-.06 1.59-.06 1.59-.06 1.59-.07 1.58-.06 1.59-.08 1.59-.07 1.58-.08 1.59-.08 1.59-.08 1.58-.09 1.59-.09 1.58-.09 1.58-.1 1.59-.1 1.58-.1 1.59-.11 1.58-.11 1.58-.11 1.59-.12 1.58-.11 1.58-.13 1.58-.12 1.58-.13 1.59-.13 1.58-.13 1.58-.14 1.58-.14 1.58-.14 1.58-.15 1.58-.15 1.58-.15 1.58-.16 1.57-.16 1.58-.16 1.58-.16 1.58-.17 1.58-.17 1.57-.18 1.58-.17 1.58-.18 1.57-.19 1.58-.19 1.58-.19 1.57-.19 1.58-.19 1.57-.2 1.58-.21 1.57-.2 1.57-.21 1.58-.21 1.57-.22 1.57-.22 1.58-.22 1.57-.22 1.57-.23 1.57-.23 1.58-.23 1.57-.24 1.57-.24 1.57-.24 1.57-.25 1.57-.25 1.57-.25 1.57-.25 1.57-.26 1.57-.26 1.57-.27 1.57-.27 1.56-.27 1.57-.27 1.57-.28 1.57-.28 1.56-.28 1.57-.29 1.57-.29 1.56-.29 1.57-.3 1.57-.3 1.56-.3 1.57-.3 1.56-.31 1.57-.31 1.56-.32 1.56-.32 1.57-.32 1.56-.32 1.56-.33 1.57-.33 1.56-.33 1.56-.34 1.56-.34 1.57-.34 1.56-.35 1.56-.35 1.56-.35 1.56-.35M95.85 467.3l1.22-1.18 1.21-1.18 1.21-1.18 1.22-1.18 1.21-1.19 1.21-1.18 1.21-1.19 1.21-1.18 1.21-1.19 1.2-1.19 1.21-1.19 1.2-1.19 1.21-1.19 1.2-1.19 1.21-1.2 1.2-1.2 1.2-1.19 1.2-1.2 1.2-1.2 1.2-1.2 1.19-1.2 1.2-1.2 1.2-1.21 1.19-1.2 1.19-1.21 1.2-1.21 1.19-1.2 1.19-1.21 1.19-1.22 1.19-1.21 1.19-1.21 1.19-1.21 1.18-1.22 1.19-1.22 1.18-1.21 1.19-1.22 1.18-1.22 1.18-1.22 1.19-1.23 1.18-1.22 1.18-1.23 1.18-1.22 1.17-1.23 1.18-1.23 1.18-1.23 1.17-1.23 1.18-1.23 1.17-1.23 1.17-1.23 1.17-1.24 1.18-1.24 1.17-1.23 1.16-1.24 1.17-1.24 1.17-1.24 1.17-1.25 1.16-1.24 1.17-1.24 1.16-1.25 1.16-1.25 1.17-1.24 1.16-1.25 1.16-1.25 1.16-1.25 1.16-1.26 1.15-1.25 1.16-1.25 1.16-1.26 1.15-1.26 1.15-1.26 1.16-1.26 1.15-1.26 1.15-1.26 1.15-1.26 1.15-1.27 1.15-1.26 1.15-1.27 1.15-1.26 1.14-1.27 1.15-1.27 1.14-1.27 1.14-1.28 1.15-1.27 1.14-1.27 1.14-1.28 1.14-1.28 1.14-1.28 1.14-1.27 1.13-1.28 1.14-1.29 1.14-1.28 1.13-1.28 1.13-1.29 1.14-1.28 1.13-1.29 1.13-1.29 1.13-1.29 1.13-1.29 1.13-1.29" style="stroke-width:1.07;stroke:#000;stroke-opacity:.1;stroke-linecap:butt"/><path d="m95.85 467.3 1.13-1.29 1.13-1.3 1.13-1.28 1.13-1.29 1.13-1.29 1.14-1.29 1.13-1.28 1.13-1.29 1.14-1.28 1.14-1.28 1.13-1.28 1.14-1.28 1.14-1.28 1.14-1.27 1.14-1.28 1.14-1.27 1.15-1.28 1.14-1.27 1.14-1.27 1.15-1.27 1.14-1.27 1.15-1.27 1.15-1.26 1.15-1.27 1.15-1.26 1.15-1.27 1.15-1.26 1.15-1.26 1.16-1.26 1.15-1.26 1.15-1.25 1.16-1.26 1.16-1.25 1.15-1.26 1.16-1.25 1.16-1.25 1.16-1.25 1.16-1.25 1.17-1.25 1.16-1.25 1.16-1.24 1.17-1.25 1.16-1.24 1.17-1.24 1.17-1.24 1.17-1.24 1.16-1.24 1.17-1.24 1.18-1.23 1.17-1.24 1.17-1.23 1.17-1.24 1.18-1.23 1.17-1.23 1.18-1.23 1.18-1.23 1.17-1.22 1.18-1.23 1.18-1.22 1.18-1.23 1.19-1.22 1.18-1.22 1.18-1.22 1.18-1.22 1.19-1.22 1.19-1.21 1.18-1.22 1.19-1.21 1.19-1.22 1.19-1.21 1.19-1.21 1.19-1.21 1.19-1.21 1.2-1.21 1.19-1.2 1.19-1.21 1.2-1.2 1.2-1.2 1.19-1.2 1.2-1.21 1.2-1.19 1.2-1.2 1.2-1.2 1.2-1.2 1.21-1.19 1.2-1.19 1.21-1.2 1.2-1.19 1.21-1.19 1.2-1.19 1.21-1.18 1.21-1.19 1.21-1.18 1.21-1.19 1.21-1.18 1.22-1.18 1.21-1.18 1.21-1.18 1.22-1.18" style="stroke-width:1.07;stroke:#000;stroke-opacity:.1;stroke-linecap:butt"/><path d="m55.97 365.06 1.57-.2 1.58-.21 1.57-.2 1.58-.2 1.57-.2 1.58-.21 1.57-.2 1.58-.2 1.57-.2 1.57-.2 1.58-.21 1.57-.2 1.58-.2 1.57-.2 1.58-.21 1.57-.2 1.58-.2 1.57-.2 1.58-.21 1.57-.2 1.58-.2 1.57-.2 1.57-.21 1.58-.2 1.57-.2 1.58-.2 1.57-.21 1.58-.2 1.57-.2 1.58-.2 1.57-.21 1.58-.2 1.57-.2 1.58-.2 1.57-.21 1.58-.2 1.57-.2 1.57-.2 1.58-.21 1.57-.2 1.58-.2 1.57-.2 1.58-.21 1.57-.2 1.58-.2 1.57-.2 1.58-.21 1.57-.2 1.58-.2 1.57-.2 1.58-.2 1.57-.21 1.57-.2 1.58-.2 1.57-.2 1.58-.21 1.57-.2 1.58-.2 1.57-.2 1.58-.21 1.57-.2 1.58-.2 1.57-.2 1.58-.21 1.57-.2 1.57-.2 1.58-.2 1.57-.21 1.58-.2 1.57-.2 1.58-.2 1.57-.21 1.58-.2 1.57-.2 1.58-.2 1.57-.21 1.58-.2 1.57-.2 1.58-.2 1.57-.21 1.57-.2 1.58-.2 1.57-.2 1.58-.21 1.57-.2 1.58-.2 1.57-.2 1.58-.21 1.57-.2 1.58-.2 1.57-.2 1.58-.21 1.57-.2 1.58-.2 1.57-.2 1.57-.2 1.58-.21 1.57-.2 1.58-.2" style="stroke-width:1.07;stroke:#000;stroke-opacity:.1;stroke-linecap:butt"/><path d="m55.97 365.06 1.56-.36 1.56-.35 1.56-.35 1.56-.34 1.56-.34 1.56-.34 1.57-.34 1.56-.33 1.56-.33 1.57-.33 1.56-.33 1.56-.32 1.57-.31 1.56-.32 1.56-.31 1.57-.31 1.56-.3 1.57-.31 1.57-.29 1.56-.3 1.57-.29 1.56-.29 1.57-.29 1.57-.28 1.57-.28 1.56-.28 1.57-.27 1.57-.28 1.57-.26 1.57-.27 1.57-.26 1.57-.26 1.57-.25 1.57-.26 1.57-.24 1.57-.25 1.57-.24 1.57-.24 1.57-.24 1.57-.23 1.57-.23 1.58-.23 1.57-.23 1.57-.22 1.57-.22 1.58-.21 1.57-.21 1.58-.21 1.57-.21 1.58-.2 1.57-.2 1.58-.19 1.57-.2 1.58-.19 1.57-.18 1.58-.19 1.58-.18 1.57-.18 1.58-.17 1.58-.17 1.58-.17 1.57-.16 1.58-.17 1.58-.16 1.58-.15 1.58-.15 1.58-.15 1.58-.15 1.58-.14 1.58-.14 1.58-.14 1.58-.13 1.58-.14 1.58-.12 1.59-.13 1.58-.12 1.58-.12 1.58-.11 1.59-.11 1.58-.11 1.58-.11 1.59-.1 1.58-.1 1.59-.1 1.58-.09 1.59-.09 1.58-.09 1.59-.08 1.58-.08 1.59-.08 1.59-.08 1.58-.07 1.59-.07 1.59-.06 1.58-.06 1.59-.06 1.59-.06 1.59-.05 1.59-.05" style="stroke-width:1.07;stroke:#000;stroke-opacity:.1;stroke-linecap:butt"/><path d="m177.87 524.17.34-1.81.35-1.81.34-1.81.34-1.81.35-1.81.34-1.81.34-1.81.35-1.81.34-1.81.34-1.81.35-1.81.34-1.81.34-1.81.35-1.81.34-1.81.34-1.81.35-1.81.34-1.81.34-1.8.35-1.81.34-1.81.34-1.81.35-1.81.34-1.81.34-1.81.35-1.81.34-1.81.34-1.81.35-1.81.34-1.81.34-1.81.35-1.81.34-1.81.34-1.81.35-1.81.34-1.81.34-1.81.35-1.81.34-1.81.34-1.81.35-1.81.34-1.81.34-1.81.35-1.8.34-1.81.34-1.81.35-1.81.34-1.81.34-1.81.35-1.81.34-1.81.34-1.81.35-1.81.34-1.81.34-1.81.35-1.81.34-1.81.34-1.81.35-1.81.34-1.81.34-1.81.35-1.81.34-1.81.34-1.81.35-1.81.34-1.81.34-1.81.35-1.8.34-1.81.34-1.81.35-1.81.34-1.81.34-1.81.35-1.81.34-1.81.34-1.81.35-1.81.34-1.81.34-1.81.35-1.81.34-1.81.34-1.81.35-1.81.34-1.81.34-1.81.35-1.81.34-1.81.34-1.81.35-1.81.34-1.81.34-1.81.35-1.8.34-1.81.34-1.81.35-1.81.34-1.81.34-1.81.35-1.81.34-1.81M283.58 212.38l-1.24.96-1.23.96-1.22.97-1.21.97-1.2.99-1.19.99-1.18 1-1.17 1.01-1.15 1.02-1.15 1.02-1.14 1.03-1.12 1.04-1.12 1.05-1.1 1.06-1.1 1.06-1.08 1.07-1.07 1.08-1.06 1.09-1.06 1.1-1.04 1.1-1.03 1.11-1.02 1.12-1.01 1.13-1 1.13-.98 1.14-.98 1.15-.97 1.16-.96 1.17-.94 1.17-.94 1.19-.92 1.19-.92 1.19-.9 1.21-.89 1.21-.89 1.22-.87 1.23-.86 1.24-.85 1.25-.84 1.25-.83 1.26-.82 1.27-.81 1.28-.8 1.28-.79 1.29-.78 1.3-.76 1.31-.76 1.32-.74 1.32-.74 1.33-.72 1.34-.72 1.35-.7 1.36-.69 1.36-.69 1.37-.67 1.38-.66 1.39-.65 1.39-.64 1.4-.63 1.42-.62 1.41-.61 1.43-.59 1.44-.59 1.44-.58 1.45-.56 1.46-.56 1.46-.54 1.48-.54 1.48-.52 1.49-.52 1.49-.5 1.51-.49 1.51-.48 1.52-.47 1.53-.46 1.54-.45 1.54-.44 1.56-.43 1.56-.42 1.57-.41 1.57-.4 1.59-.38 1.59-.38 1.6-.36 1.61-.36 1.61-.34 1.62-.34 1.64-.32 1.64-.31 1.64-.31 1.66-.29 1.66-.28 1.67-.27 1.68-.26 1.69-.25 1.69-.24 1.7-.23 1.71-.21 1.72-.21 1.73" style="stroke-width:1.07;stroke:#000;stroke-opacity:.1;stroke-linecap:butt"/><path d="m283.58 212.38-1.15 1.03-1.13 1.03-1.14 1.03-1.12 1.05-1.11 1.05-1.1 1.05-1.1 1.06-1.09 1.07-1.08 1.08-1.07 1.08-1.06 1.09-1.05 1.09-1.04 1.1-1.04 1.11-1.03 1.12-1.01 1.12-1.01 1.12-1 1.14-1 1.14-.98 1.14-.98 1.15-.96 1.16-.96 1.17-.95 1.17-.94 1.18-.93 1.18-.92 1.2-.92 1.19-.9 1.21-.9 1.21-.89 1.22-.88 1.22-.87 1.23-.86 1.24-.86 1.24-.84 1.25-.84 1.26-.83 1.26-.82 1.27-.81 1.27-.8 1.28-.79 1.29-.79 1.3-.78 1.3-.76 1.3-.76 1.32-.75 1.32-.74 1.33-.74 1.33-.72 1.34-.72 1.35-.71 1.35-.69 1.36-.69 1.36-.69 1.37-.67 1.38-.66 1.39-.66 1.39-.64 1.4-.64 1.4-.63 1.41-.62 1.42-.61 1.42-.61 1.43-.59 1.44-.59 1.44-.58 1.45-.57 1.46-.56 1.46-.55 1.47-.54 1.47-.54 1.49-.52 1.48-.52 1.5-.51 1.5-.5 1.51-.49 1.51-.48 1.52-.48 1.53-.46 1.53-.46 1.54-.45 1.55-.43 1.55-.44 1.56-.42 1.56-.41 1.58-.41 1.57-.39 1.59-.39 1.59-.38 1.6-.37 1.6-.36 1.61-.35 1.62-.35 1.62-.33 1.63-.33 1.64-.32 1.64-.31 1.65-.3 1.66" style="stroke-width:1.07;stroke:#000;stroke-opacity:.1;stroke-linecap:butt"/><path d="m283.58 212.38-1.05 1.1-1.05 1.09-1.04 1.11-1.03 1.11-1.03 1.11-1.02 1.12-1.01 1.13-1.01 1.12-1 1.14-.99 1.14-.99 1.14-.98 1.15-.97 1.15-.97 1.16-.96 1.17-.95 1.17-.95 1.17-.94 1.18-.93 1.18-.92 1.19-.92 1.2-.92 1.2-.9 1.2-.9 1.21-.89 1.22-.89 1.22-.88 1.22-.87 1.23-.87 1.23-.86 1.24-.85 1.25-.84 1.25-.84 1.25-.83 1.26-.83 1.27-.82 1.26-.81 1.28-.8 1.28-.8 1.28-.79 1.29-.79 1.3-.78 1.3-.77 1.3-.76 1.31-.76 1.32-.75 1.32-.75 1.32-.74 1.33-.73 1.33-.72 1.34-.72 1.35-.71 1.35-.7 1.35-.7 1.36-.69 1.37-.69 1.37-.67 1.37-.68 1.38-.66 1.39-.66 1.39-.65 1.39-.64 1.4-.64 1.41-.63 1.41-.62 1.41-.62 1.42-.61 1.43-.6 1.43-.6 1.43-.59 1.44-.58 1.45-.58 1.45-.57 1.45-.56 1.46-.56 1.47-.55 1.47-.54 1.47-.54 1.48-.53 1.49-.52 1.49-.52 1.5-.51 1.5-.5 1.5-.5 1.51-.49 1.52-.48 1.52-.47 1.52-.47 1.53-.47 1.54-.45 1.54-.45 1.54-.44 1.55-.44 1.56-.43 1.56-.42 1.57-.42 1.57-.4 1.57-.41 1.58-.39 1.59" style="stroke-width:1.07;stroke:#000;stroke-opacity:.1;stroke-linecap:butt"/><path d="m283.58 212.38-.96 1.17-.95 1.16-.95 1.18-.95 1.17-.94 1.18-.93 1.18-.93 1.19-.93 1.19-.92 1.19-.92 1.2-.91 1.2-.91 1.2-.9 1.21-.9 1.21-.89 1.21-.89 1.22-.88 1.22-.88 1.23-.87 1.22-.87 1.24-.86 1.23-.86 1.24-.85 1.24-.85 1.25-.85 1.25-.84 1.26-.83 1.25-.83 1.26-.83 1.27-.82 1.27-.81 1.27-.82 1.27-.8 1.28-.8 1.28-.8 1.29-.79 1.29-.79 1.29-.78 1.3-.78 1.3-.77 1.3-.77 1.31-.76 1.31-.76 1.32-.75 1.32-.75 1.32-.74 1.32-.74 1.33-.74 1.33-.73 1.34-.72 1.34-.72 1.34-.71 1.35-.71 1.35-.71 1.36-.7 1.35-.7 1.36-.69 1.37-.68 1.37-.68 1.37-.68 1.38-.67 1.37-.67 1.39-.66 1.38-.66 1.39-.65 1.4-.65 1.39-.64 1.4-.64 1.41-.63 1.41-.63 1.41-.63 1.41-.61 1.42-.62 1.42-.61 1.43-.6 1.43-.6 1.43-.6 1.44-.59 1.44-.58 1.44-.58 1.45-.58 1.45-.57 1.45-.57 1.46-.56 1.46-.55 1.47-.56 1.47-.54 1.47-.54 1.48-.54 1.48-.53 1.48-.53 1.49-.53 1.49-.51 1.49-.52 1.5-.51 1.5-.5 1.5-.5 1.51-.49 1.51-.49 1.52" style="stroke-width:1.07;stroke:#000;stroke-opacity:.1;stroke-linecap:butt"/><path d="m283.58 212.38-.86 1.24-.87 1.23-.86 1.24-.85 1.24-.86 1.25-.85 1.24-.85 1.25-.84 1.25-.84 1.25-.84 1.25-.84 1.26-.83 1.26-.84 1.26-.82 1.26-.83 1.26-.82 1.27-.82 1.27-.82 1.27-.81 1.27-.81 1.28-.81 1.28-.81 1.28-.8 1.28-.8 1.28-.79 1.29-.8 1.29-.79 1.29-.79 1.29-.78 1.29-.78 1.3-.78 1.3-.78 1.3-.77 1.3-.77 1.31-.77 1.31-.76 1.31-.77 1.31-.75 1.31-.76 1.32-.75 1.32-.75 1.32-.75 1.32-.75 1.32-.74 1.33-.74 1.33-.73 1.33-.74 1.33-.73 1.34-.72 1.34-.73 1.34-.72 1.34-.72 1.34-.71 1.35-.72 1.35-.71 1.35-.71 1.35-.7 1.35-.7 1.36-.7 1.36-.7 1.36-.69 1.37-.69 1.36-.68 1.37-.69 1.37-.68 1.37-.68 1.37-.67 1.38-.68 1.38-.67 1.38-.66 1.38-.67 1.39-.66 1.38-.66 1.39-.65 1.4-.66 1.39-.64 1.39-.65 1.4-.65 1.4-.64 1.4-.63 1.41-.64 1.4-.63 1.41-.63 1.41-.63 1.42-.62 1.41-.62 1.42-.62 1.42-.62 1.42-.61 1.42-.61 1.43-.6 1.43-.61 1.43-.6 1.43-.6 1.43-.59 1.44-.59 1.44-.59 1.44-.59 1.44-.58 1.45" style="stroke-width:1.07;stroke:#000;stroke-opacity:.1;stroke-linecap:butt"/><path d="m283.58 212.38-.77 1.31-.77 1.3-.77 1.31-.77 1.3-.77 1.31-.76 1.31-.77 1.31-.76 1.31-.77 1.31-.76 1.31-.76 1.31-.76 1.32-.76 1.31-.76 1.31-.76 1.32-.76 1.31-.75 1.32-.76 1.32-.75 1.31-.76 1.32-.75 1.32-.75 1.32-.75 1.32-.75 1.32-.75 1.32-.75 1.33-.74 1.32-.75 1.32-.74 1.33-.75 1.32-.74 1.33-.74 1.33-.74 1.32-.74 1.33-.74 1.33-.74 1.33-.73 1.33-.74 1.33-.74 1.33-.73 1.34-.73 1.33-.73 1.33-.74 1.34-.73 1.33-.73 1.34-.72 1.34-.73 1.33-.73 1.34-.72 1.34-.73 1.34-.72 1.34-.72 1.34-.73 1.35-.72 1.34-.72 1.34-.71 1.35-.72 1.34-.72 1.35-.71 1.34-.72 1.35-.71 1.35-.72 1.34-.71 1.35-.71 1.35-.71 1.35-.71 1.36-.71 1.35-.7 1.35-.71 1.35-.71 1.36-.7 1.35-.7 1.36-.71 1.35-.7 1.36-.7 1.36-.7 1.36-.7 1.36-.69 1.36-.7 1.36-.7 1.36-.69 1.36-.69 1.36-.7 1.37-.69 1.36-.69 1.36-.69 1.37-.69 1.37-.69 1.36-.68 1.37-.69 1.37-.68 1.37-.69 1.37-.68 1.37-.68 1.37-.69 1.37-.68 1.38-.68 1.37-.67 1.37-.68 1.38" style="stroke-width:1.07;stroke:#000;stroke-opacity:.1;stroke-linecap:butt"/><path d="m283.58 212.38-.68 1.38-.67 1.37-.68 1.37-.68 1.38-.68 1.37-.69 1.37-.68 1.37-.68 1.37-.69 1.37-.69 1.37-.68 1.37-.69 1.36-.69 1.37-.69 1.37-.69 1.36-.69 1.36-.7 1.37-.69 1.36-.69 1.36-.7 1.36-.7 1.36-.69 1.36-.7 1.36-.7 1.36-.7 1.36-.7 1.36-.71 1.35-.7 1.36-.7 1.35-.71 1.36-.71 1.35-.7 1.35-.71 1.35-.71 1.36-.71 1.35-.71 1.35-.71 1.35-.72 1.34-.71 1.35-.71 1.35-.72 1.34-.72 1.35-.72 1.34-.71 1.35-.72 1.34-.72 1.34-.73 1.35-.72 1.34-.72 1.34-.73 1.34-.72 1.34-.73 1.34-.73 1.33-.72 1.34-.73 1.34-.73 1.33-.73 1.34-.74 1.33-.73 1.33-.73 1.34-.74 1.33-.73 1.33-.74 1.33-.74 1.33-.74 1.33-.74 1.33-.74 1.32-.74 1.33-.74 1.33-.75 1.32-.74 1.33-.75 1.32-.74 1.32-.75 1.33-.75 1.32-.75 1.32-.75 1.32-.75 1.32-.75 1.32-.76 1.32-.75 1.31-.76 1.32-.75 1.32-.76 1.31-.76 1.32-.76 1.31-.76 1.31-.76 1.32-.76 1.31-.76 1.31-.77 1.31-.76 1.31-.77 1.31-.76 1.31-.77 1.31-.77 1.3-.77 1.31-.77 1.3-.77 1.31" style="stroke-width:1.07;stroke:#000;stroke-opacity:.1;stroke-linecap:butt"/><path d="m283.58 212.38-.58 1.45-.59 1.44-.59 1.44-.59 1.44-.59 1.44-.6 1.43-.6 1.43-.61 1.43-.6 1.43-.61 1.43-.61 1.42-.62 1.42-.62 1.42-.62 1.42-.62 1.41-.63 1.42-.63 1.41-.63 1.4-.64 1.41-.63 1.41-.64 1.4-.65 1.4-.64 1.4-.65 1.39-.66 1.39-.65 1.4-.66 1.39-.66 1.38-.67 1.39-.66 1.38-.67 1.38-.68 1.38-.67 1.38-.68 1.37-.68 1.37-.68 1.37-.69 1.37-.69 1.36-.69 1.37-.7 1.36-.7 1.36-.7 1.36-.7 1.35-.71 1.35-.71 1.35-.71 1.35-.72 1.35-.72 1.34-.72 1.34-.73 1.34-.72 1.34-.73 1.34-.74 1.33-.73 1.33-.74 1.33-.74 1.33-.75 1.32-.74 1.32-.76 1.32-.75 1.32-.75 1.32-.76 1.31-.77 1.31-.76 1.31-.77 1.31-.77 1.31-.77 1.3-.78 1.3-.78 1.3-.78 1.3-.78 1.29-.79 1.29-.79 1.29-.8 1.29-.79 1.29-.8 1.28-.8 1.28-.81 1.28-.81 1.28-.81 1.28-.81 1.27-.82 1.27-.82 1.27-.82 1.27-.83 1.26-.82 1.26-.83 1.26-.84 1.26-.84 1.26-.84 1.25-.84 1.25-.84 1.25-.85 1.25-.85 1.24-.86 1.25-.85 1.24-.86 1.24-.87 1.23-.86 1.24" style="stroke-width:1.07;stroke:#000;stroke-opacity:.1;stroke-linecap:butt"/><path d="m283.58 212.38-.49 1.52-.49 1.51-.5 1.51-.5 1.5-.51 1.5-.52 1.5-.51 1.49-.53 1.49-.52 1.49-.54 1.48-.53 1.48-.55 1.48-.54 1.47-.56 1.47-.55 1.47-.56 1.46-.57 1.46-.57 1.45-.58 1.45-.58 1.45-.58 1.44-.59 1.44-.6 1.44-.6 1.43-.6 1.43-.61 1.43-.61 1.42-.62 1.42-.63 1.41-.63 1.41-.63 1.41-.64 1.41-.64 1.4-.65 1.39-.65 1.4-.66 1.39-.66 1.38-.67 1.39-.67 1.37-.68 1.38-.68 1.37-.68 1.37-.69 1.37-.7 1.36-.7 1.35-.7 1.36-.72 1.35-.71 1.35-.72 1.34-.72 1.34-.73 1.34-.74 1.33-.74 1.33-.74 1.32-.75 1.32-.75 1.32-.76 1.32-.76 1.31-.77 1.31-.77 1.3-.78 1.3-.78 1.3-.79 1.29-.79 1.29-.8 1.29-.8 1.28-.8 1.28-.82 1.27-.81 1.27-.82 1.27-.83 1.27-.83 1.26-.83 1.25-.84 1.26-.85 1.25-.84 1.25-.86 1.24-.86 1.24-.86 1.23-.87 1.24-.87 1.22-.88 1.23-.88 1.22-.89 1.22-.89 1.21-.9 1.21-.9 1.21-.91 1.2-.91 1.2-.92 1.2-.92 1.19-.93 1.19-.93 1.19-.93 1.18-.94 1.18-.95 1.17-.95 1.18-.95 1.16-.96 1.17" style="stroke-width:1.07;stroke:#000;stroke-opacity:.1;stroke-linecap:butt"/><path d="m283.58 212.38-.39 1.59-.41 1.58-.4 1.57-.42 1.57-.42 1.57-.43 1.56-.44 1.56-.44 1.55-.45 1.54-.45 1.54-.47 1.54-.47 1.53-.47 1.52-.48 1.52-.49 1.52-.5 1.51-.5 1.5-.51 1.5-.52 1.5-.52 1.49-.53 1.49-.54 1.48-.54 1.47-.55 1.47-.56 1.47-.56 1.46-.57 1.45-.58 1.45-.58 1.45-.59 1.44-.6 1.43-.6 1.43-.61 1.43-.62 1.42-.62 1.41-.63 1.41-.64 1.41-.64 1.4-.65 1.39-.66 1.39-.66 1.39-.68 1.38-.67 1.37-.69 1.37-.69 1.37-.7 1.36-.7 1.35-.71 1.35-.72 1.35-.72 1.34-.73 1.33-.74 1.33-.75 1.32-.75 1.32-.76 1.32-.76 1.31-.77 1.3-.78 1.3-.79 1.3-.79 1.29-.8 1.28-.8 1.28-.81 1.28-.82 1.26-.83 1.27-.83 1.26-.84 1.25-.84 1.25-.85 1.25-.86 1.24-.87 1.23-.87 1.23-.88 1.22-.89 1.22-.89 1.22-.9 1.21-.9 1.2-.92 1.2-.91 1.2-.93 1.19-.93 1.18-.94 1.18-.95 1.17-.95 1.17-.96 1.17-.97 1.16-.97 1.15-.98 1.15-.99 1.14-.99 1.14-1 1.14-1.01 1.12-1.01 1.13-1.02 1.12-1.03 1.11-1.03 1.11-1.04 1.1-1.05 1.1-1.05 1.1" style="stroke-width:1.07;stroke:#000;stroke-opacity:.1;stroke-linecap:butt"/><path d="m283.58 212.38-.3 1.66-.31 1.65-.32 1.64-.32 1.64-.34 1.63-.35 1.62-.35 1.62-.36 1.61-.37 1.6-.38 1.6-.39 1.59-.39 1.59-.41 1.57-.41 1.58-.42 1.56-.43 1.56-.44 1.55-.45 1.55-.46 1.54-.46 1.53-.48 1.53-.48 1.52-.49 1.51-.5 1.51-.51 1.5-.52 1.5-.52 1.48-.54 1.49-.54 1.47-.55 1.47-.56 1.46-.57 1.46-.58 1.45-.59 1.44-.59 1.44-.6 1.43-.62 1.42-.62 1.42-.63 1.41-.64 1.4-.64 1.4-.66 1.39-.66 1.39-.67 1.38-.69 1.37-.69 1.36-.69 1.36-.71 1.35-.72 1.35-.72 1.34-.73 1.33-.75 1.33-.75 1.32-.76 1.32-.76 1.3-.78 1.3-.78 1.3-.8 1.29-.8 1.28-.81 1.27-.82 1.27-.83 1.26-.84 1.26-.84 1.25-.86 1.24-.86 1.24-.87 1.23-.88 1.22-.89 1.22-.9 1.21-.9 1.21-.92 1.19-.92 1.2-.93 1.18-.94 1.18-.95 1.17-.96 1.17-.96 1.16-.98 1.15-.98 1.14-.99 1.14-1.01 1.14-1 1.12-1.02 1.12-1.03 1.12-1.04 1.11-1.04 1.1-1.05 1.09-1.06 1.09-1.07 1.08-1.08 1.08-1.09 1.07-1.09 1.06-1.11 1.05-1.11 1.05-1.12 1.05-1.13 1.03-1.14 1.03-1.15 1.03" style="stroke-width:1.07;stroke:#000;stroke-opacity:.1;stroke-linecap:butt"/><path d="m283.58 212.38-.21 1.73-.21 1.72-.23 1.71-.24 1.7-.25 1.69-.26 1.69-.27 1.68-.28 1.67-.29 1.66-.31 1.66-.31 1.64-.32 1.64-.34 1.64-.34 1.62-.35 1.61-.37 1.61-.38 1.6-.38 1.59-.4 1.59-.41 1.57-.42 1.57-.43 1.56-.43 1.56-.45 1.54-.47 1.54-.47 1.53-.48 1.52-.49 1.51-.5 1.51-.52 1.49-.52 1.49-.54 1.48-.54 1.48-.56 1.46-.56 1.46-.58 1.45-.59 1.44-.59 1.44-.61 1.43-.62 1.41-.63 1.42-.64 1.4-.65 1.39-.66 1.39-.67 1.38-.69 1.37-.69 1.36-.7 1.36-.72 1.35-.72 1.34-.74 1.33-.74 1.32-.76 1.32-.76 1.31-.78 1.3-.79 1.29-.8 1.28-.81 1.28-.82 1.27-.83 1.26-.84 1.25-.85 1.25-.86 1.24-.87 1.23-.88 1.22-.9 1.21-.9 1.21-.92 1.19-.92 1.19-.94 1.19-.94 1.17-.96 1.17-.97 1.16-.97 1.15-.99 1.14-1 1.13-1.01 1.13-1.02 1.12-1.03 1.11-1.04 1.1-1.06 1.1-1.06 1.09-1.07 1.08-1.08 1.07-1.1 1.06-1.1 1.06-1.12 1.05-1.12 1.04-1.14 1.03-1.15 1.02-1.15 1.02-1.17 1.01-1.18 1-1.19.99-1.2.99-1.21.97-1.22.97-1.23.96-1.24.96" style="stroke-width:1.07;stroke:#000;stroke-opacity:.1;stroke-linecap:butt"/><path d="m272.35 513.95 1.92 3.32h-3.83zM337.36 435.59l1.91 3.32h-3.83zM378.52 305.06l1.91 3.31h-3.82zM224.54 137.86l1.92 3.31h-3.83zM161.59 192.13l1.92 3.32h-3.83zM69.07 248.35l1.92 3.31h-3.83zM55.97 359.31l4.98 8.62h-9.96zM95.85 462.59l4.08 7.06h-8.16zM177.87 521.96l1.92 3.31h-3.83z" style="stroke-width:.71;stroke:none;fill:#00ba38"/><path d="M280.55 215.41h6.06v-6.06h-6.06z" style="stroke-width:.71;stroke:none;fill:#619cff"/><circle cx="211.86" cy="345.02" r="6.76" style="stroke-width:.71;stroke:none;fill:#f8766d"/><path d="M521.35 278.74h2.84v-2.84h-2.84z" style="stroke-width:.71;stroke:none;fill:#619cff"/><path d="m267.63 524.05 4.16-6.95M342.73 433.15l-4.5 3.89M373.2 311.86l4.44-3.83M220.06 143.9l3.6-3.08M166.44 190.17l-3.97 3.42M74.32 245.81l-4.39 3.97M61.14 360.39l-4.31 3.9M90.74 471.91l4.25-3.84M173.12 527.41l3.77-2.57M289 207.78l-4.53 3.85M217.31 340.39l-4.56 3.88" style="stroke-width:.53;stroke:#bfbfbf"/><path d="M213.18 539.77h52.29-.09l.35-.01.34-.07.33-.13.3-.17.27-.22.23-.26.18-.29.14-.32.08-.34.03-.35v-15.22l-.03-.35-.08-.33-.14-.32-.18-.3-.23-.26-.27-.22-.3-.17-.33-.12-.34-.07-.26-.02h-52.29l.26.02-.35-.02-.35.04-.33.1-.31.15-.29.2-.25.24-.21.28-.16.3-.11.33-.06.35v15.39-.17.35l.06.34.11.33.16.31.21.27.25.25.29.19.31.15.33.1.35.04z" style="stroke-width:.53;fill:#fff;fill-opacity:.5"/><text x="239.32" y="527.98" lengthAdjust="spacingAndGlyphs" style="font-size:5.69px;font-family:&quot;Liberation Sans&quot;" text-anchor="middle" textLength="45.37">NORTH WILLOW</text><text x="239.32" y="536.17" lengthAdjust="spacingAndGlyphs" style="font-size:5.69px;font-family:&quot;Liberation Sans&quot;" text-anchor="middle" textLength="49.41">APARTMENTS INC</text><path d="M316.84 433.15h76.02-.09l.35-.01.34-.07.33-.12.3-.18.27-.22.23-.26.18-.29.14-.32.08-.34.03-.35v-15.22l-.03-.34-.08-.34-.14-.32-.18-.3-.23-.26-.27-.22-.3-.17-.33-.12-.34-.07-.26-.02h-76.02l.26.02-.35-.02-.35.05-.33.09-.31.15-.29.2-.25.24-.21.28-.16.31-.11.33-.06.34v15.39-.17.35l.06.34.11.33.16.31.21.28.25.24.29.19.31.15.33.1.35.04z" style="stroke-width:.53;fill:#fff;fill-opacity:.5"/><text x="354.85" y="421.36" lengthAdjust="spacingAndGlyphs" style="font-size:5.69px;font-family:&quot;Liberation Sans&quot;" text-anchor="middle" textLength="73.14">WOODVIEW APARTMENTS</text><text x="354.85" y="429.55" lengthAdjust="spacingAndGlyphs" style="font-size:5.69px;font-family:&quot;Liberation Sans&quot;" text-anchor="middle" textLength="9.91">INC</text><path d="M337.89 331.4h46.36-.09l.35-.01.34-.07.33-.12.3-.18.27-.22.23-.26.18-.29.14-.32.08-.34.03-.35v-15.22l-.03-.34-.08-.34-.14-.32-.18-.3-.23-.26-.27-.22-.3-.17-.33-.12-.34-.07-.26-.02h-46.36l.26.02-.35-.02-.34.05-.34.09-.31.15-.29.2-.25.24-.21.28-.16.31-.11.33-.05.34-.01.17v15.22l.01-.17v.35l.05.34.11.33.16.31.21.28.25.24.29.19.31.15.34.1.34.04z" style="stroke-width:.53;fill:#fff;fill-opacity:.5"/><text x="361.07" y="319.61" lengthAdjust="spacingAndGlyphs" style="font-size:5.69px;font-family:&quot;Liberation Sans&quot;" text-anchor="middle" textLength="39.05">LSS HOUSING</text><text x="361.07" y="327.8" lengthAdjust="spacingAndGlyphs" style="font-size:5.69px;font-family:&quot;Liberation Sans&quot;" text-anchor="middle" textLength="43.48">GRANVILLE INC</text><path d="M179.72 163.44h56.66-.08l.34-.01.34-.07.33-.12.3-.18.27-.22.23-.26.19-.29.13-.32.09-.34.02-.35v-15.22l-.02-.34-.09-.34-.13-.32-.19-.3-.23-.26-.27-.22-.3-.17-.33-.12-.34-.07-.26-.02h-56.66l.26.02-.35-.02-.34.05-.34.09-.31.15-.29.2-.25.24-.21.28-.16.31-.11.33-.05.34-.01.17v15.22l.01-.17v.35l.05.34.11.33.16.31.21.28.25.24.29.19.31.15.34.1.34.04z" style="stroke-width:.53;fill:#fff;fill-opacity:.5"/><text x="208.05" y="151.65" lengthAdjust="spacingAndGlyphs" style="font-size:5.69px;font-family:&quot;Liberation Sans&quot;" text-anchor="middle" textLength="53.78">LSS HOUSING MILL</text><text x="208.05" y="159.84" lengthAdjust="spacingAndGlyphs" style="font-size:5.69px;font-family:&quot;Liberation Sans&quot;" text-anchor="middle" textLength="28.31">ROAD INC</text><path d="M142.23 190.17h72.45-.08l.34-.01.34-.07.33-.12.3-.18.27-.22.23-.26.18-.29.14-.32.08-.34.03-.35v-15.22l-.03-.34-.08-.34-.14-.32-.18-.29-.23-.26-.27-.22-.3-.18-.33-.12-.34-.07-.26-.02h-72.45l.26.02-.35-.02-.34.05-.34.09-.31.15-.29.2-.25.24-.21.28-.16.31-.11.33-.05.34-.01.17v15.22l.01-.17v.35l.05.34.11.33.16.31.21.28.25.24.29.2.31.14.34.1.34.04z" style="stroke-width:.53;fill:#fff;fill-opacity:.5"/><text x="178.46" y="178.38" lengthAdjust="spacingAndGlyphs" style="font-size:5.69px;font-family:&quot;Liberation Sans&quot;" text-anchor="middle" textLength="69.57">LSS HOUSING HAMPTON</text><text x="178.46" y="186.57" lengthAdjust="spacingAndGlyphs" style="font-size:5.69px;font-family:&quot;Liberation Sans&quot;" text-anchor="middle" textLength="9.91">INC</text><path d="M54.89 245.81h53.65-.09l.35-.02.34-.06.33-.13.3-.17.27-.22.23-.26.18-.3.14-.32.08-.33.03-.35v-7.03l-.03-.34-.08-.34-.14-.32-.18-.29-.23-.26-.27-.22-.3-.18-.33-.12-.34-.07-.26-.02H54.89l.26.02-.34-.01-.35.04-.33.09-.32.15-.28.2-.25.24-.21.28-.16.31-.11.33-.06.34-.01.17v7.03l.01-.17v.34l.06.35.11.33.16.3.21.28.25.24.28.2.32.15.33.1.35.04z" style="stroke-width:.53;fill:#fff;fill-opacity:.5"/><text x="81.72" y="242.21" lengthAdjust="spacingAndGlyphs" style="font-size:5.69px;font-family:&quot;Liberation Sans&quot;" text-anchor="middle" textLength="50.77">LSS HOUSING INC</text><path d="M47.61 360.39h41.93-.08l.34-.02.35-.07.32-.12.3-.17.27-.22.23-.26.19-.3.13-.32.09-.33.02-.35v-7.03l-.02-.34-.09-.34-.13-.32-.19-.3-.23-.26-.27-.22-.3-.17-.32-.12-.35-.07-.26-.02H47.61l.26.02-.35-.02-.34.05-.33.09-.32.15-.28.2-.26.24-.2.28-.17.3-.11.33-.05.35-.01.17v7.03l.01-.18v.35l.05.35.11.33.17.3.2.28.26.24.28.2.32.15.33.1.34.04z" style="stroke-width:.53;fill:#fff;fill-opacity:.5"/><text x="68.58" y="356.79" lengthAdjust="spacingAndGlyphs" style="font-size:5.69px;font-family:&quot;Liberation Sans&quot;" text-anchor="middle" textLength="39.05">LSS HOUSING</text><path d="M52.88 483.26h61-.09l.35-.02.34-.07.33-.12.3-.17.27-.22.23-.26.18-.3.14-.32.08-.33.03-.35v-7.03l-.03-.35-.08-.33-.14-.32-.18-.3-.23-.26-.27-.22-.3-.17-.33-.12-.34-.07-.26-.02h-61l.26.02-.34-.02-.35.05-.33.09-.32.15-.28.2-.25.24-.21.28-.16.3-.11.33-.06.35-.01.17v7.03l.01-.18v.35l.06.35.11.33.16.3.21.28.25.24.28.2.32.15.33.1.35.04z" style="stroke-width:.53;fill:#fff;fill-opacity:.5"/><text x="83.38" y="479.66" lengthAdjust="spacingAndGlyphs" style="font-size:5.69px;font-family:&quot;Liberation Sans&quot;" text-anchor="middle" textLength="58.12">LSS HOUSING HOME</text><path d="M112.22 539.76h58.74l-.09-.01.35-.01.34-.07.33-.12.3-.18.27-.22.23-.26.18-.29.14-.32.08-.34.03-.34v-15.23l-.03-.34-.08-.34-.14-.32-.18-.29-.23-.26-.27-.22-.3-.18-.33-.12-.34-.07-.26-.02h-58.74l.26.02-.34-.01-.35.04-.33.09-.32.15-.28.2-.25.24-.21.28-.16.31-.11.33-.06.34-.01.17v15.23l.01-.18v.35l.06.34.11.33.16.31.21.28.25.24.28.2.32.15.33.09.35.04z" style="stroke-width:.53;fill:#fff;fill-opacity:.5"/><text x="141.59" y="527.96" lengthAdjust="spacingAndGlyphs" style="font-size:5.69px;font-family:&quot;Liberation Sans&quot;" text-anchor="middle" textLength="55.86">LSS HOUSING 26TH</text><text x="141.59" y="536.16" lengthAdjust="spacingAndGlyphs" style="font-size:5.69px;font-family:&quot;Liberation Sans&quot;" text-anchor="middle" textLength="33.42">STREET INC</text><path d="M272.4 207.78h67.22-.09l.35-.01.34-.07.32-.12.3-.18.27-.22.23-.26.19-.29.14-.32.08-.34.03-.35v-23.41l-.03-.35-.08-.34-.14-.32-.19-.29-.23-.26-.27-.22-.3-.17-.32-.13-.34-.07-.26-.01H272.4l.26.01-.35-.01-.34.04-.34.1-.31.15-.29.2-.25.24-.21.27-.16.31-.11.33-.06.34v23.59-.17.35l.06.34.11.33.16.31.21.28.25.24.29.2.31.14.34.1.34.04z" style="stroke-width:.53;fill:#fff;fill-opacity:.5"/><text x="306.01" y="187.8" lengthAdjust="spacingAndGlyphs" style="font-size:5.69px;font-family:&quot;Liberation Sans&quot;" text-anchor="middle" textLength="63.16">6737 W WASHINGTON</text><text x="306.01" y="195.99" lengthAdjust="spacingAndGlyphs" style="font-size:5.69px;font-family:&quot;Liberation Sans&quot;" text-anchor="middle" textLength="39.48">ST, STE 2275,</text><text x="306.01" y="204.18" lengthAdjust="spacingAndGlyphs" style="font-size:5.69px;font-family:&quot;Liberation Sans&quot;" text-anchor="middle" textLength="64.34">MILWAUKEE, WI 53214</text><path d="M200.71 340.39h67.21-.08l.35-.01.34-.07.32-.12.3-.18.27-.22.23-.26.19-.29.13-.32.09-.34.02-.35v-23.41l-.02-.35-.09-.34-.13-.31-.19-.3-.23-.26-.27-.22-.3-.17-.32-.13-.34-.07-.27-.01h-67.21l.26.01-.35-.01-.35.04-.33.1-.31.15-.29.2-.25.24-.21.27-.16.31-.11.33-.06.35v23.58-.17.35l.06.34.11.33.16.31.21.28.25.24.29.2.31.14.33.1.35.04z" style="stroke-width:.53;fill:#fff;fill-opacity:.5"/><text x="234.32" y="320.41" lengthAdjust="spacingAndGlyphs" style="font-size:5.69px;font-family:&quot;Liberation Sans&quot;" text-anchor="middle" textLength="63.16">6737 W WASHINGTON</text><text x="234.32" y="328.6" lengthAdjust="spacingAndGlyphs" style="font-size:5.69px;font-family:&quot;Liberation Sans&quot;" text-anchor="middle" textLength="39.48">ST, STE 2275,</text><text x="234.32" y="336.79" lengthAdjust="spacingAndGlyphs" style="font-size:5.69px;font-family:&quot;Liberation Sans&quot;" text-anchor="middle" textLength="64.34">MILWAUKEE, WI 53214</text><path d="M448.67 287.13h67.22l-.08-.01.34-.01.34-.07.33-.12.3-.18.27-.22.23-.26.18-.29.14-.32.08-.34.03-.34v-15.22l-.03-.35-.08-.34-.14-.32-.18-.29-.23-.26-.27-.22-.3-.18-.33-.12-.34-.07-.26-.01h-67.22l.26.01-.34-.01-.35.04-.33.1-.32.14-.28.2-.25.24-.21.28-.16.31-.11.33-.06.34-.01.18v15.22l.01-.18v.35l.06.34.11.33.16.31.21.28.25.24.28.2.32.15.33.09.35.04z" style="stroke-width:.53;fill:#fff;fill-opacity:.5"/><text x="482.28" y="275.33" lengthAdjust="spacingAndGlyphs" style="font-size:5.69px;font-family:&quot;Liberation Sans&quot;" text-anchor="middle" textLength="60">7500 GRANVILLE RD,</text><text x="482.28" y="283.53" lengthAdjust="spacingAndGlyphs" style="font-size:5.69px;font-family:&quot;Liberation Sans&quot;" text-anchor="middle" textLength="64.34">MILWAUKEE, WI 53224</text></g><g clip-path="url(#cpMC4wMHw1NzYuMDB8MC4wMHw1NzYuMDA=)"><circle cx="194.24" cy="95.78" r="1.95" style="stroke-width:.71;stroke:none;fill:#f8766d"/><path d="m270.59 92.74 2.63 4.56h-5.26z" style="stroke-width:.71;stroke:none;fill:#00ba38"/><path d="M336.57 97.74h3.91v-3.91h-3.91z" style="stroke-width:.71;stroke:none;fill:#619cff"/><text x="208.36" y="98.81" lengthAdjust="spacingAndGlyphs" style="font-size:8.8px;font-family:&quot;Liberation Sans Narrow&quot;" textLength="48.12">mprop address</text><text x="284.71" y="98.81" lengthAdjust="spacingAndGlyphs" style="font-size:8.8px;font-family:&quot;Liberation Sans Narrow&quot;" textLength="39.69">owner name</text><text x="352.64" y="98.81" lengthAdjust="spacingAndGlyphs" style="font-size:8.8px;font-family:&quot;Liberation Sans Narrow&quot;" textLength="40.5">wdfi address</text><text x="32.63" y="64.23" lengthAdjust="spacingAndGlyphs" style="font-size:12px;font-family:&quot;Liberation Sans Narrow&quot;" textLength="252.23">includes 12 parcels, 77 units, and 9 distinct owner names.</text><text x="32.63" y="42.27" lengthAdjust="spacingAndGlyphs" style="font-size:18px;font-weight:700;font-family:&quot;Liberation Sans Narrow&quot;" textLength="150.06">LSS HOUSING Group</text></g></svg>