<svg xmlns="http://www.w3.org/2000/svg" width="576" height="672" class="svglite" viewBox="0 0 432 504"><defs><style><![CDATA[.svglite line,.svglite polyline,.svglite polygon,.svglite path,.svglite circle{fill:none;stroke:#000000;stroke-linecap:round;stroke-linejoin:round;stroke-miterlimit:10.00}]]></style></defs><rect width="100%" height="100%" style="stroke-linecap:round;stroke-linejoin:round;stroke-miterlimit:10.00;stroke:none;fill:#FFFFFF"/><defs><clipPath id="cpMC4wMHw0MzIuMDB8MC4wMHw1MDQuMDA="><path d="M0 0h432v504H0z"/></clipPath></defs><g clip-path="url(#cpMC4wMHw0MzIuMDB8MC4wMHw1MDQuMDA=)"><path d="M0 0h432v504H0z" style="stroke-width:1.07;stroke:none;fill:#FFFFFF"/></g><defs><clipPath id="cpMzIuNjN8NDAyLjExfDE0MS4yMnw0NzEuMzc="><path d="M32.63 141.22h369.48v330.15H32.63z"/></clipPath></defs><g clip-path="url(#cpMzIuNjN8NDAyLjExfDE0MS4yMnw0NzEuMzc=)"><path d="m166.81 348.19-.31 1.09-.31 1.09-.32 1.1-.31 1.09-.31 1.09-.32 1.1-.31 1.09-.32 1.09-.31 1.09-.31 1.1-.32 1.09-.31 1.09-.31 1.09-.32 1.1-.31 1.09-.32 1.09-.31 1.1-.31 1.09-.32 1.09-.31 1.09-.31 1.1-.32 1.09-.31 1.09-.31 1.09-.32 1.1-.31 1.09-.32 1.09-.31 1.09-.31 1.1-.32 1.09-.31 1.09-.31 1.1-.32 1.09-.31 1.09-.32 1.09-.31 1.1-.31 1.09-.32 1.09-.31 1.09-.31 1.1-.32 1.09-.31 1.09-.32 1.1-.31 1.09-.31 1.09-.32 1.09-.31 1.1-.31 1.09-.32 1.09-.31 1.09-.32 1.1-.31 1.09-.31 1.09-.32 1.09-.31 1.1-.31 1.09-.32 1.09-.31 1.1-.31 1.09-.32 1.09-.31 1.09-.32 1.1-.31 1.09-.31 1.09-.32 1.09-.31 1.1-.31 1.09-.32 1.09-.31 1.09-.32 1.1-.31 1.09-.31 1.09-.32 1.1-.31 1.09-.31 1.09-.32 1.09-.31 1.1-.32 1.09-.31 1.09-.31 1.09-.32 1.1-.31 1.09-.31 1.09-.32 1.1-.31 1.09-.32 1.09-.31 1.09-.31 1.1-.32 1.09-.31 1.09-.31 1.09-.32 1.1-.31 1.09-.31 1.09-.32 1.09-.31 1.1-.32 1.09-.31 1.09-.31 1.1m31.05-108.18.33-1.15.33-1.14.33-1.15.33-1.15.33-1.14.33-1.15.33-1.14.33-1.15.33-1.15.32-1.14.33-1.15.33-1.14.33-1.15.33-1.15.33-1.14.33-1.15.33-1.14.33-1.15.33-1.15.33-1.14.32-1.15.33-1.14.33-1.15.33-1.15.33-1.14.33-1.15.33-1.15.33-1.14.33-1.15.33-1.14.32-1.15.33-1.15.33-1.14.33-1.15.33-1.14.33-1.15.33-1.15.33-1.14.33-1.15.33-1.14.33-1.15.32-1.15.33-1.14.33-1.15.33-1.14.33-1.15.33-1.15.33-1.14.33-1.15.33-1.15.33-1.14.32-1.15.33-1.14.33-1.15.33-1.15.33-1.14.33-1.15.33-1.14.33-1.15.33-1.15.33-1.14.33-1.15.32-1.14.33-1.15.33-1.15.33-1.14.33-1.15.33-1.15.33-1.14.33-1.15.33-1.14.33-1.15.32-1.15.33-1.14.33-1.15.33-1.14.33-1.15.33-1.15.33-1.14.33-1.15.33-1.14.33-1.15.33-1.15.32-1.14.33-1.15.33-1.14.33-1.15.33-1.15.33-1.14.33-1.15.33-1.15.33-1.14.33-1.15.32-1.14.33-1.15.33-1.15.33-1.14.33-1.15.33-1.14m185.93-46.76-1.88.47-1.88.47-1.88.48-1.87.47-1.88.47-1.88.47-1.88.47-1.88.48-1.88.47-1.87.47-1.88.47-1.88.48-1.88.47-1.88.47-1.87.47-1.88.47-1.88.48-1.88.47-1.88.47-1.87.47-1.88.48-1.88.47-1.88.47-1.88.47-1.87.48-1.88.47-1.88.47-1.88.47-1.88.47-1.87.48-1.88.47-1.88.47-1.88.47-1.88.48-1.87.47-1.88.47-1.88.47-1.88.48-1.88.47-1.87.47-1.88.47-1.88.47-1.88.48-1.88.47-1.88.47-1.87.47-1.88.48-1.88.47-1.88.47-1.88.47-1.87.48-1.88.47-1.88.47-1.88.47-1.88.47-1.87.48-1.88.47-1.88.47-1.88.47-1.88.48-1.87.47-1.88.47-1.88.47-1.88.48-1.88.47-1.87.47-1.88.47-1.88.47-1.88.48-1.88.47-1.87.47-1.88.47-1.88.48-1.88.47-1.88.47-1.87.47-1.88.48-1.88.47-1.88.47-1.88.47-1.88.47-1.87.48-1.88.47-1.88.47-1.88.47-1.88.48-1.87.47-1.88.47-1.88.47-1.88.48-1.88.47-1.87.47-1.88.47-1.88.47-1.88.48-1.88.47-1.87.47-1.88.47-1.88.48m-149.97-78.5 1.52.79 1.51.8 1.52.79 1.51.79 1.52.8 1.51.79 1.52.79 1.51.79 1.52.8 1.51.79 1.52.79 1.51.8 1.52.79 1.51.79 1.51.79 1.52.8 1.51.79 1.52.79 1.51.8 1.52.79 1.51.79 1.52.79 1.51.8 1.52.79 1.51.79 1.52.8 1.51.79 1.52.79 1.51.79 1.52.8 1.51.79 1.52.79 1.51.8 1.52.79 1.51.79 1.52.79 1.51.8 1.52.79 1.51.79 1.52.8 1.51.79 1.51.79 1.52.79 1.51.8 1.52.79 1.51.79 1.52.8 1.51.79 1.52.79 1.51.79 1.52.8 1.51.79 1.52.79 1.51.8 1.52.79 1.51.79 1.52.8 1.51.79 1.52.79 1.51.79 1.52.8 1.51.79 1.52.79 1.51.8 1.52.79 1.51.79 1.52.79 1.51.8 1.52.79 1.51.79 1.51.8 1.52.79 1.51.79 1.52.79 1.51.8 1.52.79 1.51.79 1.52.8 1.51.79 1.52.79 1.51.79 1.52.8 1.51.79 1.52.79 1.51.8 1.52.79 1.51.79 1.52.79 1.51.8 1.52.79 1.51.79 1.52.8 1.51.79 1.52.79 1.51.79 1.52.8 1.51.79 1.51.79 1.52.8" style="stroke-width:1.07;stroke:#000000;stroke-opacity:0.10;stroke-linecap:butt"/><path d="m166.81 340.11 7 12.12h-13.99zm218.51-154.35 1.91 3.31h-3.83zm-335.9-31.74 1.92 3.32h-3.83z" style="stroke-width:0.71;stroke:none;fill:#00BFC4"/><circle cx="135.76" cy="456.37" r="1.42" style="stroke-width:0.71;stroke:none;fill:#F8766D"/><circle cx="199.39" cy="234.73" r="6.76" style="stroke-width:0.71;stroke:none;fill:#F8766D"/><path d="m171.57 343.53-3.94 3.86M140.7 451.72l-4.11 3.86m67.74-225.49-4.11 3.85" style="stroke-width:0.53;stroke:#BFBFBF"/><path d="M155.12 343.53h46.47-.08l.34-.02.34-.07.33-.12.3-.18.27-.22.23-.26.19-.29.13-.32.09-.34.02-.34h0v-6.97h0l-.02-.34-.09-.34-.13-.32-.19-.29-.23-.26-.27-.22-.3-.18-.33-.12-.34-.07-.26-.02h-46.47l.27.02-.35-.01-.35.04-.33.1-.32.14-.28.2-.25.24-.21.28-.16.31-.11.33-.06.34-.01.17v6.97l.01-.18v.35l.06.34.11.33.16.31.21.28.25.24.28.2.32.15.33.09.35.05z" style="stroke-width:0.53;fill:#FFFFFF;fill-opacity:0.50"/><text x="178.36" y="339.93" lengthAdjust="spacingAndGlyphs" style="font-size:5.69px;font-family:Arial" text-anchor="middle" textLength="43.59">LUCAN T SMITH</text><path d="M337.06 193.79h41.41-.09l.35-.01.34-.07.33-.13.3-.17.27-.22.23-.26.18-.29.14-.32.08-.34.03-.35h0v-6.96h0l-.03-.35-.08-.33-.14-.32-.18-.3-.23-.26-.27-.22-.3-.17-.33-.12-.34-.07-.26-.02h-41.41l.26.02-.35-.02-.35.04-.33.1-.31.15-.29.2-.25.24-.21.28-.16.3-.11.33-.06.35v7.13-.17.35l.06.34.11.33.16.31.21.28.25.24.29.19.31.15.33.1.35.04z" style="stroke-width:0.53;fill:#FFFFFF;fill-opacity:0.50"/><text x="357.76" y="190.19" lengthAdjust="spacingAndGlyphs" style="font-size:5.69px;font-family:Arial" text-anchor="middle" textLength="38.53">LUCAN SMITH</text><path d="M56.22 161.87h59.75l-.09-.01.35-.01.34-.07.32-.12.31-.18.26-.22.23-.26.19-.29.14-.32.08-.34.03-.34h0v-6.97h0l-.03-.34-.08-.34-.14-.32-.19-.29-.23-.26-.26-.22-.31-.18-.32-.12-.34-.07-.26-.02H56.22l.26.02-.34-.01-.35.04-.33.09-.32.15-.28.2-.25.24-.21.28-.16.31-.11.33-.06.34-.01.17v6.97l.01-.18v.35l.06.34.11.33.16.31.21.28.25.24.28.2.32.15.33.09.35.04z" style="stroke-width:0.53;fill:#FFFFFF;fill-opacity:0.50"/><text x="86.1" y="158.27" lengthAdjust="spacingAndGlyphs" style="font-size:5.69px;font-family:Arial" text-anchor="middle" textLength="56.87">JERWAYNE G SMITH</text><path d="M119.61 451.72h64.49-.09l.35-.01.34-.07.33-.12.3-.18.27-.22.23-.26.18-.29.14-.32.08-.34.03-.35h0v-15.15h0l-.03-.35-.08-.34-.14-.32-.18-.29-.23-.26-.27-.22-.3-.17-.33-.13-.34-.07-.26-.01h-64.49l.26.01-.35-.01-.34.04-.34.1-.31.15-.29.19-.25.25-.21.27-.16.31-.11.33-.05.34-.01.18v15.15l.01-.17v.35l.05.34.11.33.16.31.21.28.25.24.29.19.31.15.34.1.34.04z" style="stroke-width:0.53;fill:#FFFFFF;fill-opacity:0.50"/><text x="151.85" y="439.93" lengthAdjust="spacingAndGlyphs" style="font-size:5.69px;font-family:Arial" text-anchor="middle" textLength="44.23">5326 N 60TH ST,</text><text x="151.85" y="448.12" lengthAdjust="spacingAndGlyphs" style="font-size:5.69px;font-family:Arial" text-anchor="middle" textLength="61.61">MILWAUKEE, WI 53218</text><path d="M183.23 230.09h64.49l-.09-.01.35-.01.34-.07.32-.12.31-.18.27-.22.23-.26.18-.29.14-.32.08-.34.03-.34h0v-15.16h0l-.03-.35-.08-.34-.14-.31-.18-.3-.23-.26-.27-.22-.31-.17-.32-.13-.34-.07-.26-.01h-64.49l.26.01-.35-.01-.34.04-.34.1-.31.15-.29.2-.25.24-.21.27-.16.31-.11.33-.05.35-.01.17v15.16l.01-.18v.35l.05.34.11.33.16.31.21.28.25.24.29.2.31.15.34.09.34.04z" style="stroke-width:0.53;fill:#FFFFFF;fill-opacity:0.50"/><text x="215.47" y="218.29" lengthAdjust="spacingAndGlyphs" style="font-size:5.69px;font-family:Arial" text-anchor="middle" textLength="44.23">4202 N 48TH ST,</text><text x="215.47" y="226.49" lengthAdjust="spacingAndGlyphs" style="font-size:5.69px;font-family:Arial" text-anchor="middle" textLength="61.61">MILWAUKEE, WI 53216</text></g><g clip-path="url(#cpMC4wMHw0MzIuMDB8MC4wMHw1MDQuMDA=)"><circle cx="159.34" cy="116.15" r="1.95" style="stroke-width:0.71;stroke:none;fill:#F8766D"/><path d="m235.7 113.11 2.63 4.56h-5.26z" style="stroke-width:0.71;stroke:none;fill:#00BFC4"/><text x="173.46" y="119.3" lengthAdjust="spacingAndGlyphs" style="font-size:8.80px;font-family:Arial Narrow" textLength="48.12">mprop address</text><text x="249.82" y="119.3" lengthAdjust="spacingAndGlyphs" style="font-size:8.80px;font-family:Arial Narrow" textLength="39.69">owner name</text><text x="32.63" y="84.56" lengthAdjust="spacingAndGlyphs" style="font-size:12.00px;font-family:Arial Narrow" textLength="241.29">includes 4 parcels, 4 units, and 3 distinct owner names.</text><text x="32.63" y="42.78" lengthAdjust="spacingAndGlyphs" style="font-size:18.00px;font-weight:bold;font-family:Arial Narrow" textLength="293.56">LUCAN T SMITH -- JERWAYNE G SMITH --</text><text x="32.63" y="62.22" lengthAdjust="spacingAndGlyphs" style="font-size:18.00px;font-weight:bold;font-family:Arial Narrow" textLength="150.03">LUCAN SMITH Group</text></g></svg>