<svg xmlns="http://www.w3.org/2000/svg" width="768" height="768" viewBox="0 0 576 576"><g class="svglite"><defs><style><![CDATA[.svglite line,.svglite polyline,.svglite polygon,.svglite path,.svglite circle{fill:none;stroke:#000000;stroke-linecap:round;stroke-linejoin:round;stroke-miterlimit:10.00}.svglite text{white-space:pre}.svglite g.glyphgroup path{fill:inherit;stroke:none}]]></style></defs><rect width="100%" height="100%" style="stroke-linecap:round;stroke-linejoin:round;stroke-miterlimit:10.00;stroke:none;fill:#FFFFFF"/><defs><clipPath id="cpMC4wMHw1NzYuMDB8MC4wMHw1NzYuMDA="><path d="M0 0h576v576H0z"/></clipPath></defs><g clip-path="url(#cpMC4wMHw1NzYuMDB8MC4wMHw1NzYuMDA=)"><path d="M0 0h576v576H0z" style="stroke-width:1.07;stroke:none;fill:#FFFFFF"/></g><defs><clipPath id="cpMjkuODl8NTQ2LjExfDE0MS41OHw1NDYuMTE="><path d="M29.89 141.58h516.22v404.53H29.89z"/></clipPath></defs><g clip-path="url(#cpMjkuODl8NTQ2LjExfDE0MS41OHw1NDYuMTE=)"><path d="m296.66 165.73-.78.9-.78.89-.78.89-.78.89-.78.9-.78.89-.78.89-.78.89-.78.9-.78.89-.78.89-.79.89-.78.9-.78.89-.78.89-.78.89-.78.9-.78.89-.78.89-.78.89-.78.9-.78.89-.78.89-.78.89-.78.9-.78.89-.78.89-.78.89-.78.89-.78.9-.78.89-.78.89-.78.89-.78.9-.79.89-.78.89-.78.89-.78.9-.78.89-.78.89-.78.89-.78.9-.78.89-.78.89-.78.89-.78.9-.78.89-.78.89-.78.89-.78.9-.78.89-.78.89-.78.89-.78.9-.78.89-.78.89-.79.89-.78.89-.78.9-.78.89-.78.89-.78.89-.78.9-.78.89-.78.89-.78.89-.78.9-.78.89-.78.89-.78.89-.78.9-.78.89-.78.89-.78.89-.78.9-.78.89-.78.89-.78.89-.79.9-.78.89-.78.89-.78.89-.78.89-.78.9-.78.89-.78.89-.78.89-.78.9-.78.89-.78.89-.78.89-.78.9-.78.89-.78.89-.78.89-.78.9-.78.89-.78.89-.78.89m-72.28-94.11.73.95.73.95.73.95.73.95.73.95.73.95.73.95.73.95.73.95.73.95.73.95.73.95.73.95.73.95.73.96.73.95.73.95.73.95.73.95.73.95.73.95.73.95.73.95.73.95.73.95.73.95.73.95.73.95.73.96.73.95.73.95.73.95.73.95.73.95.73.95.73.95.73.95.73.95.73.95.73.95.73.95.73.95.73.95.73.96.73.95.73.95.73.95.73.95.73.95.73.95.73.95.73.95.73.95.73.95.73.95.73.95.73.95.73.96.73.95.73.95.73.95.73.95.73.95.73.95.73.95.73.95.73.95.73.95.73.95.73.95.73.95.73.95.73.96.73.95.73.95.73.95.73.95.73.95.73.95.73.95.73.95.73.95.73.95.73.95.73.95.73.95.73.96.73.95.73.95.73.95.73.95.73.95.74.95.73.95.73.95.73.95.73.95.73.95.73.95m156.16 23.41 1.49.04 1.48.05 1.49.04 1.48.04 1.49.04 1.48.05 1.49.04 1.49.04 1.48.04 1.49.04 1.48.05 1.49.04 1.48.04 1.49.04 1.49.05 1.48.04 1.49.04 1.48.04 1.49.04 1.48.05 1.49.04 1.49.04 1.48.04 1.49.05 1.48.04 1.49.04 1.48.04 1.49.04 1.49.05 1.48.04 1.49.04 1.48.04 1.49.05 1.48.04 1.49.04 1.49.04 1.48.05 1.49.04 1.48.04 1.49.04 1.48.04 1.49.05 1.49.04 1.48.04 1.49.04 1.48.05 1.49.04 1.48.04 1.49.04 1.49.04 1.48.05 1.49.04 1.48.04 1.49.04 1.49.05 1.48.04 1.49.04 1.48.04 1.49.04 1.48.05 1.49.04 1.49.04 1.48.04 1.49.05 1.48.04 1.49.04 1.48.04 1.49.04 1.49.05 1.48.04 1.49.04 1.48.04 1.49.05 1.48.04 1.49.04 1.49.04 1.48.05 1.49.04 1.48.04 1.49.04 1.48.04 1.49.05 1.49.04 1.48.04 1.49.04 1.48.05 1.49.04 1.48.04 1.49.04 1.49.04 1.48.05 1.49.04 1.48.04 1.49.04 1.48.05 1.49.04 1.49.04 1.48.04 1.49.04M64.9 240.01l1.56.14 1.56.15 1.56.14 1.56.14 1.56.14 1.56.14 1.56.15 1.56.14 1.56.14 1.56.14 1.56.15 1.56.14 1.56.14 1.57.14 1.56.14 1.56.15 1.56.14 1.56.14 1.56.14 1.56.14 1.56.15 1.56.14 1.56.14 1.56.14 1.56.15 1.56.14 1.56.14 1.56.14 1.56.14 1.56.15 1.57.14 1.56.14 1.56.14 1.56.14 1.56.15 1.56.14 1.56.14 1.56.14 1.56.15 1.56.14 1.56.14 1.56.14 1.56.14 1.56.15 1.56.14 1.56.14 1.56.14 1.57.14 1.56.15 1.56.14 1.56.14 1.56.14 1.56.15 1.56.14 1.56.14 1.56.14 1.56.14 1.56.15 1.56.14 1.56.14 1.56.14 1.56.14 1.56.15 1.56.14 1.57.14 1.56.14 1.56.15 1.56.14 1.56.14 1.56.14 1.56.14 1.56.15 1.56.14 1.56.14 1.56.14 1.56.14 1.56.15 1.56.14 1.56.14 1.56.14 1.56.15 1.57.14 1.56.14 1.56.14 1.56.14 1.56.15 1.56.14 1.56.14 1.56.14 1.56.14 1.56.15 1.56.14 1.56.14 1.56.14 1.56.14 1.56.15 1.56.14 1.57.14 1.56.14M115.26 443.65l-.63.85-.62.85-.63.84-.63.85-.62.85-.63.85-.62.85-.63.85-.62.85-.63.85-.62.85-.63.85-.62.85-.63.85-.62.85-.63.85-.62.84-.63.85-.62.85-.63.85-.63.85-.62.85-.63.85-.62.85-.63.85-.62.85-.63.85-.62.85-.63.85-.62.84-.63.85-.62.85-.63.85-.62.85-.63.85-.62.85-.63.85-.63.85-.62.85-.63.85-.62.85-.63.85-.62.85-.63.84-.62.85-.63.85-.62.85-.63.85-.62.85-.63.85-.62.85-.63.85-.62.85-.63.85-.62.85-.63.85-.63.85-.62.84-.63.85-.62.85-.63.85-.62.85-.63.85-.62.85-.63.85-.62.85-.63.85-.62.85-.63.85-.62.85-.63.84-.62.85-.63.85-.63.85-.62.85-.63.85-.62.85-.63.85-.62.85-.63.85-.62.85-.63.85-.62.85-.63.85-.62.84-.63.85-.62.85-.63.85-.62.85-.63.85-.63.85-.62.85-.63.85-.62.85-.63.85-.62.85-.63.85-.62.84-.63.85m61.91-84.07.58-.9.58-.9.59-.9.58-.9.59-.9.58-.9.58-.9.59-.9.58-.9.59-.9.58-.9.58-.9.59-.9.58-.9.59-.9.58-.9.58-.9.59-.9.58-.9.59-.9.58-.9.58-.9.59-.9.58-.9.59-.9.58-.9.58-.9.59-.9.58-.9.59-.9.58-.9.58-.9.59-.9.58-.9.59-.9.58-.9.58-.9.59-.9.58-.9.59-.9.58-.9.58-.9.59-.9.58-.9.59-.9.58-.9.58-.9.59-.9.58-.9.59-.9.58-.9.58-.9.59-.9.58-.9.59-.9.58-.9.58-.9.59-.9.58-.9.59-.9.58-.9.58-.9.59-.9.58-.9.59-.9.58-.9.58-.9.59-.9.58-.9.59-.9.58-.9.58-.9.59-.9.58-.9.59-.9.58-.9.58-.9.59-.9.58-.9.59-.9.58-.9.58-.9.59-.9.58-.9.59-.9.58-.9.58-.9.59-.9.58-.9.59-.9.58-.9.58-.9.59-.9.58-.9.59-.9.58-.9.58-.9.59-.9.58-.9m202.49-77.06-1.58-.23-1.58-.24-1.57-.24-1.58-.23-1.58-.24-1.57-.24-1.58-.23-1.58-.24-1.58-.24-1.57-.23-1.58-.24-1.58-.24-1.58-.23-1.57-.24-1.58-.23-1.58-.24-1.58-.24-1.57-.23-1.58-.24-1.58-.24-1.58-.23-1.57-.24-1.58-.24-1.58-.23-1.58-.24-1.57-.24-1.58-.23-1.58-.24-1.58-.24-1.57-.23-1.58-.24-1.58-.23-1.57-.24-1.58-.24-1.58-.23-1.58-.24-1.57-.24-1.58-.23-1.58-.24-1.58-.24-1.57-.23-1.58-.24-1.58-.24-1.58-.23-1.57-.24-1.58-.23-1.58-.24-1.58-.24-1.57-.23-1.58-.24-1.58-.24-1.58-.23-1.57-.24-1.58-.24-1.58-.23-1.58-.24-1.57-.24-1.58-.23-1.58-.24-1.58-.23-1.57-.24-1.58-.24-1.58-.23-1.57-.24-1.58-.24-1.58-.23-1.58-.24-1.57-.24-1.58-.23-1.58-.24-1.58-.24-1.57-.23-1.58-.24-1.58-.24-1.58-.23-1.57-.24-1.58-.23-1.58-.24-1.58-.24-1.57-.23-1.58-.24-1.58-.24-1.58-.23-1.57-.24-1.58-.24-1.58-.23-1.58-.24-1.57-.24-1.58-.23-1.58-.24-1.58-.23-1.57-.24-1.58-.24-1.58-.23-1.57-.24-1.58-.24-1.58-.23-1.58-.24-1.57-.24m-46.33 100.47 1.04-.9 1.02-.9 1.01-.9 1-.91.99-.91.98-.91.97-.91.95-.92.94-.92.93-.92.92-.92.91-.93.9-.92.88-.93.88-.94.86-.93.85-.94.84-.94.82-.94.82-.94.8-.95.79-.95.78-.95.77-.96.76-.95.75-.96.73-.96.72-.96.72-.97.69-.97.69-.97.68-.97.66-.97.66-.98.64-.98.63-.98.62-.99.6-.98.6-.99.58-.99.57-1 .57-.99.54-1 .54-1 .53-1.01.51-1 .5-1.01.5-1.01.48-1.01.46-1.02.46-1.01.44-1.02.44-1.02.42-1.03.41-1.03.4-1.02.38-1.04.38-1.03.36-1.04.36-1.03.34-1.04.32-1.05.32-1.04.31-1.05.29-1.05.28-1.05.28-1.06.26-1.06.24-1.06.24-1.06.22-1.06.22-1.07.2-1.07.19-1.07.18-1.07.16-1.08.16-1.08.14-1.08.14-1.08.12-1.09.1-1.08.1-1.09.09-1.1.07-1.09.06-1.1.06-1.1.04-1.1.02-1.1.02-1.11v-2.22l-.02-1.11-.03-1.12-.04-1.12-.06-1.12-.06-1.12-.08-1.13-.08-1.13-.1-1.13" style="stroke-width:1.07;stroke:#000000;stroke-opacity:0.10;stroke-linecap:butt"/><path d="m173.07 354.55.66-.97.65-.98.65-.98.65-.98.64-.98.64-.98.63-.98.63-.98.63-.98.62-.99.62-.98.61-.99.61-.98.61-.99.6-.99.6-.98.6-.99.59-.99.59-.99.58-.99.58-1 .58-.99.57-.99.57-1 .56-.99.56-1 .56-1 .55-.99.55-1 .54-1 .55-1 .53-1 .54-1 .53-1 .52-1.01.52-1 .52-1.01.52-1 .51-1.01.5-1.01.51-1 .49-1.01.5-1.01.49-1.01.49-1.01.48-1.01.48-1.02.48-1.01.47-1.01.47-1.02.46-1.01.46-1.02.46-1.02.45-1.02.45-1.01.44-1.02.44-1.02.44-1.03.43-1.02.43-1.02.43-1.02.42-1.03.42-1.02.41-1.03.41-1.03.41-1.02.4-1.03.4-1.03.39-1.03.39-1.03.39-1.03.38-1.03.38-1.04.38-1.03.37-1.03.37-1.04.36-1.04.36-1.03.36-1.04.35-1.04.35-1.04.34-1.04.34-1.04.34-1.04.33-1.04.33-1.05.33-1.04.32-1.04.31-1.05.32-1.05.31-1.04.3-1.05.31-1.05.29-1.05.3-1.05.29-1.05.28-1.05.29-1.05.28-1.06" style="stroke-width:1.07;stroke:#000000;stroke-opacity:0.10;stroke-linecap:butt"/><path d="m173.07 354.55.28-1.05.28-1.05.29-1.05.29-1.06.29-1.05.3-1.05.3-1.04.31-1.05.31-1.05.31-1.04.32-1.05.32-1.04.33-1.05.33-1.04.33-1.04.34-1.05.34-1.04.34-1.04.35-1.04.35-1.03.36-1.04.36-1.04.36-1.03.37-1.04.37-1.03.37-1.04.38-1.03.39-1.03.38-1.03.39-1.03.4-1.03.4-1.03.4-1.03.41-1.03.41-1.03.41-1.02.42-1.03.42-1.02.42-1.02.43-1.03.44-1.02.43-1.02.44-1.02.45-1.02.45-1.02.45-1.02.46-1.01.46-1.02.46-1.02.47-1.01.47-1.01.48-1.02.48-1.01.48-1.01.49-1.01.49-1.01.49-1.01.5-1.01.5-1.01.51-1.01.51-1 .52-1.01.51-1 .53-1.01.52-1 .53-1 .53-1 .54-1 .54-1 .55-1 .55-1 .55-1 .56-1 .56-.99.56-1 .57-.99.57-.99.58-1 .58-.99.58-.99.59-.99.59-.99.6-.99.6-.99.6-.99.6-.98.62-.99.61-.98.62-.99.62-.98.63-.98.63-.99.63-.98.64-.98.64-.98.65-.97.65-.98.65-.98.66-.98" style="stroke-width:1.07;stroke:#000000;stroke-opacity:0.10;stroke-linecap:butt"/><path d="m173.07 354.55-.1-1.13-.09-1.13-.07-1.12-.07-1.12-.05-1.12-.04-1.12-.03-1.12-.02-1.11-.01-1.11.01-1.11.01-1.11.03-1.1.04-1.11.05-1.1.07-1.09.07-1.1.09-1.09.09-1.09.11-1.09.12-1.08.13-1.09.15-1.08.15-1.08.17-1.07.18-1.08.19-1.07.2-1.07.21-1.06.23-1.07.23-1.06.25-1.06.26-1.06.27-1.05.29-1.05.29-1.05.31-1.05.31-1.05.33-1.04.34-1.04.35-1.04.37-1.03.37-1.04.39-1.03.4-1.03.41-1.02.42-1.03.43-1.02.45-1.02.45-1.02.47-1.01.48-1.01.49-1.01.51-1.01.51-1.01.53-1 .53-1 .55-1 .56-1 .57-.99.59-.99.59-.99.61-.99.62-.98.63-.98.64-.98.65-.98.67-.97.67-.98.69-.97.7-.96.71-.97.73-.96.73-.96.75-.96.75-.96.77-.95.78-.95.8-.95.8-.95.81-.94.83-.95.84-.93.85-.94.86-.94.87-.93.89-.93.9-.93.9-.92.92-.93.93-.92.95-.91.95-.92.97-.91.97-.92.99-.9 1-.91 1.02-.91 1.02-.9 1.04-.9" style="stroke-width:1.07;stroke:#000000;stroke-opacity:0.10;stroke-linecap:butt"/><path d="m296.66 163.52 1.91 3.32h-3.82zm-149.54-5.77 1.91 3.32h-3.83zm228.44 112.74 6.06 10.5H369.5zM64.9 237.8l1.91 3.32h-3.83zm50.36 203.64 1.91 3.31h-3.83z" style="stroke-width:0.71;stroke:none;fill:#00BA38"/><path d="M171.65 355.97h2.84v-2.84h-2.84z" style="stroke-width:0.71;stroke:none;fill:#619CFF"/><circle cx="219.4" cy="254.08" r="6.76" style="stroke-width:0.71;stroke:none;fill:#F8766D"/><circle cx="522.65" cy="281.67" r="1.42" style="stroke-width:0.71;stroke:none;fill:#F8766D"/><circle cx="53.35" cy="527.72" r="1.42" style="stroke-width:0.71;stroke:none;fill:#F8766D"/><path d="m291.29 170.36 4.56-3.93m-143.92-9.5-3.91 2.47m222.17 122.72 4.56-3.93M63.37 244.73l1.2-3.7m56.02 198.03-4.53 3.89m62.73-93.02-4.89 3.95m51.17-104.38-4.84 3.91m297.64 29 3.72-.57M58.27 528.72l-3.87-.78" style="stroke-width:0.53;stroke:#BFBFBF"/><path d="M260.9 181.47h45.63-.09l.35-.01.34-.07.33-.12.3-.18.27-.22.23-.26.18-.29.14-.32.08-.34.03-.35h0v-6.79h0l-.03-.35-.08-.34-.14-.32-.18-.29-.23-.26-.27-.22-.3-.17-.33-.13-.34-.07-.26-.01H260.9l.26.01-.35-.01-.34.04-.34.1-.31.15-.29.19-.25.25-.21.27-.16.31-.11.33-.05.34-.01.18v6.79l.01-.17v.35l.05.34.11.33.16.31.21.28.25.24.29.2.31.14.34.1.34.04z" style="stroke-width:0.53;fill:#FFFFFF;fill-opacity:0.50"/><text x="283.71" y="177.87" lengthAdjust="spacingAndGlyphs" style="font-size:5.69px;font-family:&quot;Liberation Sans&quot;" text-anchor="middle" textLength="42.75">SMART REI LLC</text><path d="M154.09 164.5h60.41l-.08-.01.34-.01.34-.07.33-.12.3-.18.27-.22.23-.26.18-.29.14-.32.08-.34.03-.34h0v-14.99h0l-.03-.35-.08-.34-.14-.32-.18-.29-.23-.26-.27-.22-.3-.18-.33-.12-.34-.07-.26-.01h-60.41l.26.01-.35-.01-.34.04-.33.1-.32.14-.28.2-.26.24-.2.28-.17.31-.11.33-.05.34-.01.18v14.99l.01-.18v.35l.05.34.11.33.17.31.2.28.26.24.28.2.32.15.33.09.34.04z" style="stroke-width:0.53;fill:#FFFFFF;fill-opacity:0.50"/><text x="184.3" y="152.7" lengthAdjust="spacingAndGlyphs" style="font-size:5.69px;font-family:&quot;Liberation Sans&quot;" text-anchor="middle" textLength="57.53">MARC DYKES LEGAL</text><text x="184.3" y="160.9" lengthAdjust="spacingAndGlyphs" style="font-size:5.69px;font-family:&quot;Liberation Sans&quot;" text-anchor="middle" textLength="32.56">OWNER VIA</text><path d="M342.36 293.23h40.51-.09l.35-.01.34-.07.32-.13.3-.17.27-.22.23-.26.19-.29.13-.32.09-.34.03-.35h0v-6.79h0l-.03-.35-.09-.34-.13-.32-.19-.29-.23-.26-.27-.22-.3-.18-.32-.12-.34-.07-.26-.01h-40.51l.26.01-.35-.01-.34.04-.34.1-.31.15-.29.19-.25.24-.21.28-.16.31-.11.33-.05.34-.01.18v6.79l.01-.17v.35l.05.34.11.33.16.31.21.28.25.24.29.19.31.15.34.1.34.04z" style="stroke-width:0.53;fill:#FFFFFF;fill-opacity:0.50"/><text x="362.61" y="289.63" lengthAdjust="spacingAndGlyphs" style="font-size:5.69px;font-family:&quot;Liberation Sans&quot;" text-anchor="middle" textLength="37.62">MARC DYKES</text><path d="M35.65 255.85h55.33-.09l.35-.02.34-.06.33-.13.3-.17.27-.22.23-.26.18-.3.14-.32.08-.33.03-.35h0v-6.8h0l-.03-.34-.08-.34-.14-.32-.18-.29-.23-.26-.27-.22-.3-.18-.33-.12-.34-.07-.26-.02H35.65l.26.02-.35-.01-.34.04-.34.09-.31.15-.29.2-.25.24-.21.28-.16.31-.11.33-.06.34v6.97-.17.34l.06.35.11.33.16.31.21.27.25.24.29.2.31.15.34.1.34.04z" style="stroke-width:0.53;fill:#FFFFFF;fill-opacity:0.50"/><text x="63.31" y="252.25" lengthAdjust="spacingAndGlyphs" style="font-size:5.69px;font-family:&quot;Liberation Sans&quot;" text-anchor="middle" textLength="52.45">NITZAN CHAI EZRA</text><path d="M95.91 439.06h64.51-.09l.35-.02.34-.07.32-.12.3-.17.27-.22.23-.26.19-.3.14-.32.08-.34.03-.34h0v-6.8h0l-.03-.34-.08-.34-.14-.32-.19-.3-.23-.26-.27-.22-.3-.17-.32-.12-.34-.07-.26-.02H95.91l.26.02-.35-.02-.34.05-.33.09-.32.15-.28.2-.26.24-.2.28-.17.31-.11.32-.05.35-.01.17v6.8l.01-.18v.35l.05.35.11.33.17.3.2.28.26.24.28.2.32.15.33.09.34.05z" style="stroke-width:0.53;fill:#FFFFFF;fill-opacity:0.50"/><text x="128.16" y="435.46" lengthAdjust="spacingAndGlyphs" style="font-size:5.69px;font-family:&quot;Liberation Sans&quot;" text-anchor="middle" textLength="61.62">REVIVING HOMES LLC</text><path d="M164.61 349.93h63.85-.08l.34-.02.34-.07.33-.12.3-.17.27-.22.23-.26.19-.3.13-.32.09-.34.02-.34h0v-23.19h0l-.02-.34-.09-.34-.13-.32-.19-.29-.23-.26-.27-.22-.3-.18-.33-.12-.34-.07-.26-.02h-63.85l.26.02-.34-.02-.35.05-.33.09-.32.15-.28.2-.25.24-.21.28-.16.31-.11.33-.06.34-.01.17v23.19l.01-.18v.35l.06.35.11.33.16.3.21.28.25.24.28.2.32.15.33.09.35.05z" style="stroke-width:0.53;fill:#FFFFFF;fill-opacity:0.50"/><text x="196.54" y="329.94" lengthAdjust="spacingAndGlyphs" style="font-size:5.69px;font-family:&quot;Liberation Sans&quot;" text-anchor="middle" textLength="51.19">1660 N PROSPECT</text><text x="196.54" y="338.13" lengthAdjust="spacingAndGlyphs" style="font-size:5.69px;font-family:&quot;Liberation Sans&quot;" text-anchor="middle" textLength="43.06">AVE, UNIT 1910,</text><text x="196.54" y="346.33" lengthAdjust="spacingAndGlyphs" style="font-size:5.69px;font-family:&quot;Liberation Sans&quot;" text-anchor="middle" textLength="60.97">MILWAUKEE, WI 53202</text><path d="M210.87 249.5h63.85-.09l.35-.02.34-.06.32-.13.3-.17.27-.22.23-.26.19-.3.14-.32.08-.33.03-.35h0v-23.18h0l-.03-.35-.08-.34-.14-.32-.19-.29-.23-.26-.27-.22-.3-.18-.32-.12-.34-.07-.26-.01h-63.85l.26.01-.35-.01-.34.04-.34.1-.31.14-.29.2-.25.24-.21.28-.16.31-.11.33-.05.34-.01.18v23.18l.01-.17v.34l.05.35.11.33.16.31.21.27.25.24.29.2.31.15.34.1.34.04z" style="stroke-width:0.53;fill:#FFFFFF;fill-opacity:0.50"/><text x="242.79" y="229.51" lengthAdjust="spacingAndGlyphs" style="font-size:5.69px;font-family:&quot;Liberation Sans&quot;" text-anchor="middle" textLength="51.19">1660 N PROSPECT</text><text x="242.79" y="237.71" lengthAdjust="spacingAndGlyphs" style="font-size:5.69px;font-family:&quot;Liberation Sans&quot;" text-anchor="middle" textLength="43.06">AVE, UNIT 1910,</text><text x="242.79" y="245.9" lengthAdjust="spacingAndGlyphs" style="font-size:5.69px;font-family:&quot;Liberation Sans&quot;" text-anchor="middle" textLength="60.97">MILWAUKEE, WI 53202</text><path d="M450.39 296.18h65.32l-.09-.01.35-.01.34-.07.32-.12.31-.18.26-.22.23-.26.19-.29.14-.32.08-.34.03-.34h0v-23.19h0l-.03-.35-.08-.33-.14-.32-.19-.3-.23-.26-.26-.22-.31-.17-.32-.13-.34-.06-.26-.02h-65.32l.26.02-.35-.02-.34.04-.34.1-.31.15-.29.2-.25.24-.21.28-.16.3-.11.33-.05.35-.01.17v23.19l.01-.18v.35l.05.34.11.33.16.31.21.28.25.24.29.2.31.14.34.1.34.04z" style="stroke-width:0.53;fill:#FFFFFF;fill-opacity:0.50"/><text x="483.05" y="276.19" lengthAdjust="spacingAndGlyphs" style="font-size:5.69px;font-family:&quot;Liberation Sans&quot;" text-anchor="middle" textLength="59.2">1600 PROSPECT AVE,</text><text x="483.05" y="284.38" lengthAdjust="spacingAndGlyphs" style="font-size:5.69px;font-family:&quot;Liberation Sans&quot;" text-anchor="middle" textLength="62.44">UNIT 191, MILWAUKEE,</text><text x="483.05" y="292.58" lengthAdjust="spacingAndGlyphs" style="font-size:5.69px;font-family:&quot;Liberation Sans&quot;" text-anchor="middle" textLength="24.31">WI 53202</text><path d="M60.43 542.51h62.16-.09l.35-.01.34-.07.32-.13.3-.17.27-.22.23-.26.19-.29.14-.32.08-.34.03-.35h0v-23.18h0l-.03-.35-.08-.34-.14-.32-.19-.29-.23-.26-.27-.22-.3-.17-.32-.13-.34-.07-.26-.01H60.43l.26.01-.35-.01-.35.04-.33.1-.31.15-.29.19-.25.24-.21.28-.16.31-.11.33-.06.34v23.36-.17.35l.06.34.11.33.16.31.21.27.25.25.29.19.31.15.33.1.35.04z" style="stroke-width:0.53;fill:#FFFFFF;fill-opacity:0.50"/><text x="91.51" y="522.52" lengthAdjust="spacingAndGlyphs" style="font-size:5.69px;font-family:&quot;Liberation Sans&quot;" text-anchor="middle" textLength="59.2">1660 PROSPECT AVE,</text><text x="91.51" y="530.72" lengthAdjust="spacingAndGlyphs" style="font-size:5.69px;font-family:&quot;Liberation Sans&quot;" text-anchor="middle" textLength="59.28">UNIT 19, MILWAUKEE,</text><text x="91.51" y="538.91" lengthAdjust="spacingAndGlyphs" style="font-size:5.69px;font-family:&quot;Liberation Sans&quot;" text-anchor="middle" textLength="24.31">WI 53202</text></g><g clip-path="url(#cpMC4wMHw1NzYuMDB8MC4wMHw1NzYuMDA=)"><circle cx="192.83" cy="116.5" r="1.95" style="stroke-width:0.71;stroke:none;fill:#F8766D"/><path d="m269.23 113.46 2.63 4.56h-5.26z" style="stroke-width:0.71;stroke:none;fill:#00BA38"/><path d="M335.23 118.45h3.91v-3.91h-3.91z" style="stroke-width:0.71;stroke:none;fill:#619CFF"/><text x="206.95" y="119.66" lengthAdjust="spacingAndGlyphs" style="font-size:8.80px;font-weight:0;font-family:&quot;Nimbus Sans Narrow&quot;" textLength="48.16">mprop address</text><text x="283.35" y="119.66" lengthAdjust="spacingAndGlyphs" style="font-size:8.80px;font-weight:0;font-family:&quot;Nimbus Sans Narrow&quot;" textLength="39.72">owner name</text><text x="351.31" y="119.66" lengthAdjust="spacingAndGlyphs" style="font-size:8.80px;font-weight:0;font-family:&quot;Nimbus Sans Narrow&quot;" textLength="40.5">wdfi address</text><text x="29.89" y="84.79" lengthAdjust="spacingAndGlyphs" style="font-size:12.00px;font-weight:0;font-family:&quot;Nimbus Sans Narrow&quot;" textLength="246.64">includes 6 parcels, 11 units, and 5 distinct owner names.</text><text x="29.89" y="42.81" lengthAdjust="spacingAndGlyphs" style="font-size:18.00px;font-weight:0;font-family:&quot;Nimbus Sans Narrow&quot;" textLength="345.3">MARC DYKES -- 1600 PROSPECT AVE, UNIT 191,</text><text x="29.89" y="62.25" lengthAdjust="spacingAndGlyphs" style="font-size:18.00px;font-weight:0;font-family:&quot;Nimbus Sans Narrow&quot;" textLength="236.2">MILWAUKEE, WI 53202 etc Group</text></g></g></svg>