<svg xmlns="http://www.w3.org/2000/svg" class="svglite" width="768" height="768" viewBox="0 0 576 576"><defs><style>.svglite circle,.svglite line,.svglite polygon,.svglite polyline,.svglite rect{fill:none;stroke:#000;stroke-linecap:round;stroke-linejoin:round;stroke-miterlimit:10}.svglite text{white-space:pre}</style></defs><rect width="100%" height="100%" style="stroke:none;fill:#fff"/><defs><clipPath id="cpMC4wMHw1NzYuMDB8MC4wMHw1NzYuMDA="><path d="M0 0h576v576H0z"/></clipPath></defs><g clip-path="url(#cpMC4wMHw1NzYuMDB8MC4wMHw1NzYuMDA=)"><path style="stroke-width:1.07;stroke:none;fill:#fff" d="M0 0h576v576H0z"/></g><defs><clipPath id="cpMzIuNjN8NTQ2LjExfDEyMS43OHw1NDMuMzc="><path d="M32.63 121.78h513.48v421.59H32.63z"/></clipPath></defs><g clip-path="url(#cpMzIuNjN8NTQ2LjExfDEyMS43OHw1NDMuMzc=)"><path style="stroke-width:1.07;stroke:#000;stroke-opacity:.1;stroke-linecap:butt" d="m522.77 524.21-1.66-1.94-1.66-1.93-1.67-1.94-1.68-1.93-1.67-1.92-1.68-1.93-1.68-1.92-1.69-1.92-1.68-1.91-1.7-1.92-1.69-1.91-1.7-1.9-1.7-1.91-1.71-1.9-1.7-1.9-1.71-1.89-1.72-1.9-1.72-1.89-1.72-1.89-1.72-1.88-1.73-1.88-1.73-1.88-1.74-1.88-1.74-1.87-1.74-1.87-1.74-1.87-1.75-1.87-1.75-1.86-1.76-1.86-1.76-1.86-1.76-1.85-1.76-1.85-1.77-1.85-1.77-1.84-1.78-1.85-1.78-1.84-1.78-1.83-1.78-1.84-1.79-1.83-1.79-1.83-1.8-1.83-1.79-1.82-1.81-1.82-1.8-1.82-1.81-1.81-1.81-1.81-1.81-1.81-1.82-1.81-1.82-1.8-1.83-1.8-1.83-1.8-1.83-1.8-1.83-1.79-1.84-1.79-1.84-1.79-1.85-1.78-1.84-1.78-1.85-1.78-1.86-1.78-1.86-1.77-1.86-1.77-1.86-1.77-1.87-1.76-1.87-1.76-1.88-1.76-1.87-1.76-1.89-1.75-1.88-1.75-1.89-1.75-1.89-1.74-1.89-1.74-1.9-1.74-1.9-1.74-1.91-1.73-1.9-1.73-1.92-1.73-1.91-1.73-1.92-1.72-1.92-1.72-1.92-1.72-1.93-1.71-1.93-1.71-1.94-1.71-1.93-1.71-1.94-1.7-1.95-1.7-1.95-1.7-1.95-1.69-1.95-1.69-1.96-1.69-1.96-1.69-1.96-1.68-1.97-1.68-1.97-1.68-1.98-1.67-1.97-1.67-1.99-1.67-1.98-1.67-1.99-1.66M354.52 140.95l-.31 2.06-.31 2.06-.3 2.06-.3 2.06-.3 2.06-.29 2.07-.29 2.06-.29 2.06-.28 2.06-.28 2.07-.27 2.06-.27 2.06-.27 2.07-.26 2.06-.26 2.06-.26 2.07-.25 2.06-.25 2.07-.24 2.06-.24 2.07-.24 2.06-.23 2.07-.23 2.06-.22 2.07-.22 2.06-.22 2.07-.21 2.06-.21 2.07-.21 2.07-.2 2.06-.2 2.07-.19 2.07-.19 2.06-.19 2.07-.18 2.07-.18 2.07-.17 2.07-.17 2.06-.17 2.07-.16 2.07-.16 2.07-.16 2.07-.15 2.07-.15 2.07-.14 2.07-.14 2.07-.14 2.07-.13 2.07-.13 2.07-.13 2.07-.12 2.07-.12 2.07-.11 2.07-.11 2.07-.11 2.07-.1 2.07-.1 2.08-.09 2.07-.09 2.07-.09 2.07-.08 2.08-.08 2.07-.08 2.07-.07 2.07-.07 2.08-.06 2.07-.06 2.07-.06 2.08-.05 2.07-.05 2.08-.04 2.07-.04 2.08-.04 2.07-.03 2.08-.03 2.07-.03 2.08-.02 2.07-.02 2.08-.01 2.08-.01 2.07-.01 2.08v6.23l.01 2.08.01 2.07.02 2.08.02 2.08.02 2.08.03 2.07.03 2.08.04 2.08.04 2.08.04 2.08.05 2.08.05 2.08.05 2.08.06 2.08.06 2.08M354.52 140.95l-2.31 2.07-2.31 2.08-2.31 2.08-2.31 2.08-2.29 2.09-2.3 2.08-2.29 2.1-2.29 2.09-2.28 2.1-2.28 2.1-2.27 2.11-2.27 2.11-2.27 2.11-2.26 2.12-2.26 2.12-2.25 2.12-2.25 2.12-2.25 2.13-2.24 2.13-2.24 2.14-2.23 2.13-2.23 2.15-2.22 2.14-2.22 2.15-2.22 2.15-2.21 2.15-2.21 2.16-2.21 2.16-2.2 2.17-2.19 2.16-2.19 2.17-2.19 2.18-2.19 2.17-2.18 2.18-2.17 2.19-2.17 2.18-2.17 2.19-2.16 2.2-2.16 2.19-2.16 2.2-2.15 2.21-2.14 2.2-2.15 2.21-2.14 2.22-2.13 2.21-2.13 2.22-2.13 2.22-2.12 2.23-2.12 2.23-2.11 2.23-2.11 2.24-2.1 2.23-2.11 2.25-2.09 2.24-2.1 2.25-2.08 2.25-2.09 2.26-2.08 2.25-2.08 2.27-2.07 2.26-2.07 2.27-2.06 2.27-2.06 2.27-2.06 2.28-2.05 2.28-2.05 2.29-2.04 2.28-2.04 2.29-2.04 2.3-2.03 2.29-2.02 2.3-2.03 2.31-2.02 2.3-2.01 2.31-2.01 2.32-2.01 2.31-2 2.32-2 2.33-1.99 2.32-1.99 2.33-1.99 2.34-1.98 2.33-1.98 2.34-1.97 2.34-1.97 2.35-1.97 2.35-1.96 2.35-1.96 2.36-1.95 2.35-1.95 2.37-1.94 2.36-1.94 2.37-1.94 2.37-1.93 2.38-1.93 2.38-1.92 2.38-1.92 2.38-1.92 2.39-1.91 2.39"/><path style="stroke-width:1.07;stroke:#000;stroke-opacity:.1;stroke-linecap:butt" d="m354.52 140.95.06 2.08.06 2.08.06 2.08.05 2.08.04 2.08.05 2.07.04 2.08.03 2.08.03 2.08.03 2.08.03 2.08.02 2.07.01 2.08.01 2.08.01 2.08.01 2.07v4.16l-.01 2.07-.01 2.08-.02 2.08-.01 2.07-.03 2.08-.02 2.07-.03 2.08-.03 2.07-.04 2.08-.04 2.07-.05 2.08-.05 2.07-.05 2.08-.05 2.07-.07 2.07-.06 2.08-.07 2.07-.07 2.07-.07 2.08-.08 2.07-.09 2.07-.08 2.07-.09 2.08-.1 2.07-.1 2.07-.1 2.07-.11 2.07-.11 2.07-.11 2.08-.12 2.07-.12 2.07-.12 2.07-.13 2.07-.13 2.07-.14 2.07-.14 2.07-.15 2.07-.14 2.07-.16 2.07-.15 2.06-.16 2.07-.16 2.07-.17 2.07-.17 2.07-.18 2.07-.18 2.06-.18 2.07-.19 2.07-.19 2.07-.19 2.06-.2 2.07-.2 2.07-.2 2.06-.21 2.07-.22 2.07-.21 2.06-.22 2.07-.23 2.06-.23 2.07-.23 2.06-.23 2.07-.24 2.06-.25 2.07-.25 2.06-.25 2.07-.25 2.06-.26 2.06-.26 2.07-.27 2.06-.27 2.06-.28 2.07-.27 2.06-.28 2.06-.29 2.07-.29 2.06-.29 2.06-.3 2.06-.3 2.06-.31 2.06-.31 2.07-.31 2.06M354.52 140.95l-1.91 2.39-1.92 2.39-1.92 2.38-1.92 2.38-1.93 2.38-1.93 2.38-1.94 2.37-1.94 2.37-1.94 2.36-1.95 2.36-1.95 2.36-1.96 2.36-1.96 2.35-1.97 2.35-1.97 2.34-1.97 2.35-1.98 2.34-1.98 2.33-1.99 2.33-1.99 2.33-1.99 2.33-2 2.32-2 2.32-2.01 2.32-2.01 2.31-2.01 2.31-2.02 2.31-2.02 2.3-2.03 2.3-2.03 2.3-2.04 2.29-2.04 2.29-2.04 2.29-2.05 2.29-2.05 2.28-2.06 2.27-2.06 2.28-2.06 2.27-2.07 2.27-2.07 2.26-2.08 2.26-2.08 2.26-2.08 2.26-2.09 2.25-2.1 2.25-2.09 2.24-2.1 2.24-2.11 2.24-2.11 2.24-2.11 2.23-2.12 2.23-2.12 2.22-2.13 2.23-2.13 2.22-2.13 2.21-2.14 2.21-2.14 2.21-2.15 2.21-2.15 2.2-2.16 2.2-2.16 2.2-2.16 2.19-2.17 2.19-2.17 2.19-2.17 2.18-2.18 2.18-2.19 2.18-2.18 2.17-2.2 2.17-2.19 2.17-2.2 2.17-2.21 2.16-2.21 2.15-2.21 2.16-2.21 2.15-2.23 2.15-2.22 2.14-2.23 2.14-2.23 2.14-2.24 2.14-2.24 2.13-2.25 2.13-2.25 2.12-2.25 2.12-2.26 2.12-2.26 2.12-2.27 2.11-2.27 2.11-2.27 2.1-2.28 2.11-2.28 2.09-2.29 2.1-2.29 2.09-2.29 2.09-2.3 2.09-2.31 2.08-2.3 2.08-2.32 2.08-2.31 2.07M522.77 524.21l-1.99-1.66-1.98-1.67-1.98-1.67-1.98-1.67-1.97-1.68-1.97-1.67-1.97-1.68-1.97-1.69-1.96-1.68-1.95-1.69-1.96-1.69-1.95-1.7-1.95-1.7-1.94-1.7-1.94-1.7-1.94-1.7-1.93-1.71-1.94-1.71-1.92-1.72-1.93-1.71-1.92-1.72-1.92-1.73-1.91-1.72-1.91-1.73-1.91-1.73-1.9-1.73-1.9-1.74-1.9-1.74-1.9-1.74-1.89-1.75-1.89-1.74-1.88-1.75-1.88-1.76-1.88-1.75-1.87-1.76-1.88-1.76-1.86-1.77-1.87-1.77-1.86-1.77-1.86-1.77-1.85-1.77-1.85-1.78-1.85-1.78-1.84-1.79-1.85-1.78-1.83-1.79-1.84-1.8-1.83-1.79-1.83-1.8-1.82-1.8-1.82-1.8-1.82-1.81-1.82-1.81-1.81-1.81-1.81-1.82-1.8-1.81-1.8-1.82-1.8-1.83-1.79-1.82-1.8-1.83-1.78-1.83-1.79-1.84-1.78-1.84-1.78-1.84-1.77-1.84-1.77-1.84-1.77-1.85-1.77-1.85-1.76-1.86-1.76-1.86-1.75-1.86-1.75-1.86-1.75-1.86-1.75-1.87-1.74-1.87-1.74-1.88-1.73-1.87-1.73-1.88-1.73-1.88-1.73-1.89-1.72-1.89-1.72-1.89-1.71-1.89-1.71-1.9-1.71-1.89-1.71-1.91-1.7-1.9-1.7-1.91-1.69-1.91-1.69-1.91-1.69-1.92-1.69-1.92-1.68-1.92-1.68-1.92-1.67-1.93-1.67-1.93-1.67-1.93-1.67-1.93-1.66-1.94"/><path style="stroke-width:1.07;stroke:#000;stroke-opacity:.1;stroke-linecap:butt" d="m55.97 209.98 2.76 1.59 2.77 1.59 2.77 1.58 2.78 1.58 2.77 1.57 2.78 1.57 2.79 1.56 2.78 1.56 2.79 1.56 2.79 1.55 2.79 1.54 2.79 1.54 2.8 1.54 2.8 1.53 2.8 1.53 2.8 1.53 2.81 1.52 2.81 1.51 2.81 1.51 2.82 1.51 2.81 1.5 2.82 1.5 2.82 1.49 2.83 1.49 2.83 1.48 2.83 1.48 2.83 1.48 2.83 1.47 2.84 1.47 2.84 1.46 2.84 1.46 2.85 1.45 2.85 1.45 2.85 1.44 2.85 1.44 2.85 1.44 2.86 1.43 2.86 1.42 2.86 1.43 2.87 1.41 2.87 1.42 2.87 1.41 2.87 1.4 2.87 1.4 2.88 1.4 2.88 1.39 2.89 1.38 2.88 1.39 2.89 1.37 2.89 1.38 2.89 1.36 2.9 1.37 2.9 1.36 2.9 1.35 2.9 1.36 2.91 1.34 2.9 1.34 2.92 1.34 2.91 1.34 2.92 1.32 2.91 1.33 2.92 1.32 2.93 1.31 2.92 1.32 2.93 1.3 2.93 1.3 2.94 1.3 2.93 1.29 2.94 1.29 2.94 1.29 2.95 1.28 2.94 1.27 2.95 1.28 2.95 1.26 2.96 1.26 2.95 1.26 2.96 1.26 2.96 1.24 2.97 1.25 2.97 1.24 2.96 1.23 2.98 1.24 2.97 1.22 2.98 1.22 2.98 1.22 2.98 1.22 2.98 1.2 2.99 1.21 2.99 1.2 2.99 1.2 3 1.19 2.99 1.18 3 1.19 3 1.17 3.01 1.18 3.01 1.17 3.01 1.16 3.01 1.16 3.01 1.16M55.97 209.98l.76 1.6.77 1.6.77 1.6.77 1.6.77 1.6.78 1.6.78 1.59.78 1.59.79 1.59.79 1.59.79 1.59.79 1.59.8 1.59.8 1.58.8 1.58.81 1.59.81 1.58.81 1.58.81 1.57.82 1.58.82 1.58.82 1.57.83 1.57.83 1.57.83 1.57.83 1.57.84 1.57.84 1.56.84 1.57.85 1.56.84 1.56.86 1.56.85 1.56.86 1.55.86 1.56.86 1.55.86 1.56.87 1.55.87 1.55.88 1.55.87 1.55.88 1.54.88 1.55.89 1.54.89 1.54.89 1.54.89 1.54.9 1.54.9 1.53.9 1.54.9 1.53.91 1.53.91 1.53.91 1.53.92 1.53.92 1.53.92 1.52.93 1.53.92 1.52.93 1.52.94 1.52.93 1.52.94 1.52.94 1.51.95 1.52.95 1.51.95 1.51.95 1.51.96 1.51.95 1.51.97 1.5.96 1.51.97 1.5.97 1.5.97 1.5.98 1.5.97 1.5.99 1.49.98 1.5.99 1.49.99 1.49.99 1.49.99 1.49 1 1.49 1 1.49 1.01 1.48 1.01 1.48 1 1.49 1.02 1.48 1.01 1.48 1.02 1.48 1.02 1.47 1.03 1.48 1.02 1.47 1.03 1.47 1.03 1.48 1.04 1.46 1.04 1.47 1.04 1.47"/><path style="stroke-width:1.07;stroke:#000;stroke-opacity:.1;stroke-linecap:butt" d="m55.97 209.98 3.01 1.16 3.01 1.16 3.01 1.16 3.01 1.17 3.01 1.17 3 1.18 3 1.18 3 1.19 2.99 1.19 2.99 1.2 2.99 1.2 2.99 1.2 2.98 1.21 2.98 1.21 2.98 1.22 2.98 1.22 2.97 1.23 2.98 1.23 2.96 1.24 2.97 1.24 2.97 1.24 2.96 1.25 2.96 1.25 2.95 1.26 2.96 1.26 2.95 1.27 2.95 1.27 2.94 1.28 2.95 1.28 2.94 1.28 2.94 1.29 2.93 1.29 2.94 1.3 2.93 1.3 2.93 1.31 2.92 1.31 2.93 1.32 2.92 1.32 2.92 1.32 2.91 1.33 2.91 1.33 2.92 1.34 2.9 1.34 2.91 1.35 2.9 1.35 2.9 1.36 2.9 1.36 2.9 1.36 2.89 1.37 2.89 1.37 2.89 1.38 2.88 1.38 2.89 1.39 2.88 1.39 2.88 1.4 2.87 1.4 2.87 1.4 2.87 1.41 2.87 1.41 2.87 1.42 2.86 1.42 2.86 1.43 2.86 1.43 2.85 1.43 2.85 1.44 2.85 1.45 2.85 1.45 2.85 1.45 2.84 1.46 2.84 1.46 2.84 1.47 2.83 1.47 2.83 1.47 2.83 1.48 2.83 1.49 2.83 1.48 2.82 1.5 2.82 1.5 2.81 1.5 2.82 1.5 2.81 1.51 2.81 1.52 2.81 1.52 2.8 1.52 2.8 1.53 2.8 1.53 2.8 1.54 2.79 1.54 2.8 1.55 2.78 1.55 2.79 1.56 2.78 1.56 2.79 1.56 2.78 1.57 2.77 1.57 2.78 1.58 2.77 1.58 2.77 1.59 2.76 1.59M55.97 209.98l1.04 1.47 1.04 1.46 1.03 1.47 1.03 1.48 1.03 1.47 1.03 1.47 1.02 1.48 1.03 1.47 1.01 1.48 1.02 1.48 1.01 1.48 1.01 1.48 1.01 1.49 1 1.48 1 1.49 1 1.49 1 1.49.99 1.49.99 1.49.99 1.49.98 1.5.98 1.49.98 1.5.98 1.5.97 1.5.97 1.5.97 1.5.96 1.51.96 1.5.96 1.51.96 1.51.95 1.51.95 1.51.95 1.51.94 1.52.94 1.51.94 1.52.94 1.52.93 1.52.93 1.52.93 1.52.92 1.53.93 1.52.92 1.53.91 1.53.92 1.52.91 1.54.9 1.53.91 1.53.9 1.54.9 1.53.9 1.54.89 1.54.89 1.54.89 1.54.88 1.54.88 1.55.88 1.54.88 1.55.87 1.55.88 1.55.86 1.55.87 1.55.86 1.56.86 1.55.86 1.56.85 1.56.85 1.56.85 1.56.85 1.56.84 1.57.84 1.56.83 1.57.84 1.57.83 1.57.83 1.57.82 1.57.83 1.57.82 1.58.81 1.58.82 1.57.81 1.58.81 1.58.8 1.58.81 1.59.8 1.58.79 1.59.8 1.59.79 1.59.79 1.59.78 1.59.79 1.59.78 1.59.77 1.6.78 1.6.77 1.6.77 1.6.77 1.6.76 1.6M145.27 361.93l2.06.59 2.06.57 2.06.55 2.06.54 2.05.53 2.06.51 2.05.49 2.05.48 2.05.47 2.05.45 2.04.43 2.05.42 2.04.4 2.05.39 2.04.37 2.04.36 2.03.34 2.04.33 2.03.31 2.04.3 2.03.28 2.03.26 2.03.25 2.03.24 2.02.22 2.03.2 2.02.19 2.02.18 2.02.16 2.02.14 2.02.13 2.01.11 2.01.1 2.02.08 2.01.07 2.01.05 2.01.04 2 .02 2.01.01 2-.01 2-.03 2-.04 2-.05 2-.07 1.99-.09 2-.1 1.99-.11 1.99-.14 1.99-.14 1.99-.16 1.99-.18 1.99-.19 1.98-.21 1.98-.22 1.98-.24 1.98-.25 1.98-.27 1.98-.29 1.97-.29 1.98-.32 1.97-.33 1.97-.34 1.97-.36 1.97-.38 1.96-.39 1.97-.41 1.96-.42 1.96-.43 1.96-.45 1.96-.47 1.96-.48 1.95-.5 1.96-.51 1.95-.53 1.95-.55 1.95-.55 1.95-.58 1.95-.59 1.94-.6 1.94-.62 1.95-.64 1.94-.65 1.94-.66 1.93-.68 1.94-.7 1.94-.71 1.93-.73 1.93-.74 1.93-.75 1.93-.78 1.93-.78 1.92-.81 1.93-.81 1.92-.84 1.92-.85 1.92-.86 1.92-.88 1.92-.89 1.91-.91"/><path style="stroke-width:1.07;stroke:#000;stroke-opacity:.1;stroke-linecap:butt" d="m145.27 361.93 2.03.29 2.03.28 2.03.26 2.03.26 2.03.25 2.03.25 2.03.23 2.02.22 2.03.21 2.02.21 2.03.19 2.02.19 2.02.18 2.02.17 2.02.16 2.02.15 2.02.14 2.01.13 2.02.12 2.02.11 2.01.11 2.01.09 2.02.09 2.01.07 2.01.07 2.01.06 2.01.05 2.01.04 2 .03 2.01.02 2.01.01 2 .01 2-.01 2.01-.02 2-.02 2-.03 2-.05 2-.05 2-.06 2-.07 1.99-.08 2-.09 1.99-.09 2-.11 1.99-.12 1.99-.12 1.99-.14 1.99-.14 1.99-.15 1.99-.16 1.99-.17 1.99-.18 1.98-.19 1.99-.2 1.98-.21 1.98-.22 1.99-.22 1.98-.24 1.98-.24 1.98-.25 1.98-.27 1.97-.27 1.98-.28 1.98-.29 1.97-.3 1.98-.3 1.97-.32 1.97-.33 1.97-.33 1.97-.35 1.97-.35 1.97-.37 1.97-.37 1.97-.38 1.96-.39 1.97-.4 1.96-.41 1.97-.42 1.96-.42 1.96-.44 1.96-.45 1.96-.45 1.96-.47 1.96-.47 1.96-.48 1.95-.49 1.96-.5 1.95-.51 1.96-.52 1.95-.53 1.95-.54 1.95-.54 1.95-.56 1.95-.56 1.95-.58 1.95-.58 1.94-.59 1.95-.6 1.94-.61"/><path style="stroke-width:1.07;stroke:#000;stroke-opacity:.1;stroke-linecap:butt" d="m145.27 361.93 2-.01 2-.02 2.01-.02 2-.02 2-.02 2-.03 2-.03 2.01-.03 2-.04 2-.04 2-.04 2-.05 2-.04 2-.06 1.99-.05 2-.06 2-.06 2-.06 2-.07 1.99-.07 2-.07 2-.08 2-.08 1.99-.08 2-.09 1.99-.09 2-.09 1.99-.09 2-.1 1.99-.1 2-.1 1.99-.11 1.99-.11 2-.11 1.99-.12 1.99-.12 2-.12 1.99-.12 1.99-.13 1.99-.13 1.99-.14 1.99-.13 1.99-.15 1.99-.14 1.99-.14 1.99-.15 1.99-.16 1.99-.15 1.99-.16 1.99-.16 1.99-.17 1.99-.16 1.98-.18 1.99-.17 1.99-.18 1.99-.18 1.98-.18 1.99-.19 1.98-.18 1.99-.2 1.98-.19 1.99-.2 1.98-.2 1.99-.21 1.98-.2 1.99-.21 1.98-.22 1.98-.21 1.99-.22 1.98-.23 1.98-.22 1.98-.23 1.98-.23 1.99-.24 1.98-.24 1.98-.24 1.98-.24 1.98-.25 1.98-.25 1.98-.25 1.98-.26 1.98-.26 1.97-.26 1.98-.26 1.98-.27 1.98-.28 1.98-.27 1.97-.28 1.98-.28 1.98-.28 1.97-.29 1.98-.29 1.97-.29 1.98-.3 1.98-.3 1.97-.3 1.97-.3 1.98-.31 1.97-.31M145.27 361.93l1.97-.31 1.98-.31 1.97-.3 1.98-.31 1.97-.3 1.98-.29 1.97-.29 1.98-.29 1.97-.29 1.98-.28 1.98-.29 1.97-.27 1.98-.28 1.98-.27 1.98-.27 1.98-.26 1.98-.27 1.97-.26 1.98-.25 1.98-.25 1.98-.25 1.98-.25 1.98-.25 1.98-.24 1.99-.23 1.98-.24 1.98-.23 1.98-.23 1.98-.23 1.99-.22 1.98-.22 1.98-.22 1.98-.21 1.99-.21 1.98-.21 1.99-.2 1.98-.2 1.99-.2 1.98-.2 1.99-.19 1.98-.19 1.99-.18 1.99-.19 1.98-.18 1.99-.17 1.99-.18 1.98-.17 1.99-.17 1.99-.16 1.99-.16 1.99-.16 1.99-.16 1.99-.15 1.99-.15 1.99-.14 1.99-.15 1.99-.14 1.99-.14 1.99-.13 1.99-.13 1.99-.13 1.99-.12 2-.13 1.99-.11 1.99-.12 2-.11 1.99-.11 1.99-.11 2-.1 1.99-.1 2-.1 1.99-.1 2-.09 1.99-.09 2-.08 2-.08 1.99-.08 2-.08 2-.07 1.99-.07 2-.07 2-.06 2-.06 2-.06 2-.06 1.99-.05 2-.05 2-.04 2-.05 2-.03 2.01-.04 2-.03 2-.03 2-.03 2-.03 2-.02 2.01-.02 2-.01 2-.01"/><path style="stroke-width:1.07;stroke:#000;stroke-opacity:.1;stroke-linecap:butt" d="m145.27 361.93 1.94-.61 1.95-.6 1.95-.59 1.94-.59 1.95-.57 1.95-.56 1.95-.56 1.95-.55 1.95-.53 1.96-.53 1.95-.52 1.95-.51 1.96-.5 1.96-.49 1.95-.48 1.96-.48 1.96-.46 1.96-.46 1.96-.44 1.96-.44 1.96-.43 1.97-.41 1.96-.41 1.97-.4 1.96-.39 1.97-.38 1.97-.38 1.97-.36 1.97-.35 1.97-.35 1.97-.33 1.97-.33 1.97-.32 1.98-.31 1.97-.3 1.98-.29 1.98-.28 1.97-.27 1.98-.26 1.98-.25 1.98-.25 1.98-.23 1.99-.23 1.98-.21 1.98-.21 1.99-.2 1.99-.19 1.98-.18 1.99-.17 1.99-.16 1.99-.15 1.99-.15 1.99-.13 1.99-.13 1.99-.11 2-.11 1.99-.1 2-.09 2-.07 1.99-.07 2-.07 2-.05 2-.04 2-.03 2-.03 2.01-.01 2-.01h2l2.01.02 2.01.02 2 .03 2.01.04 2.01.05 2.01.06 2.01.06 2.01.08 2.02.09 2.01.09 2.01.1 2.02.12 2.02.12 2.01.13 2.02.14 2.02.15 2.02.16 2.02.17 2.02.18 2.03.18 2.02.2 2.02.2 2.03.22 2.02.22 2.03.23 2.03.24 2.03.25 2.03.26 2.03.27 2.03.28 2.03.29"/><path style="stroke-width:1.07;stroke:#000;stroke-opacity:.1;stroke-linecap:butt" d="m145.27 361.93 1.91-.91 1.92-.89 1.92-.88 1.92-.87 1.92-.85 1.92-.83 1.93-.82 1.92-.8 1.93-.79 1.93-.77 1.93-.76 1.93-.74 1.94-.72 1.93-.72 1.94-.69 1.93-.68 1.94-.67 1.94-.65 1.95-.63 1.94-.62 1.95-.61 1.94-.59 1.95-.57 1.95-.56 1.95-.54 1.95-.53 1.96-.51 1.95-.5 1.96-.48 1.96-.47 1.96-.45 1.96-.44 1.96-.42 1.97-.4 1.97-.39 1.96-.38 1.97-.36 1.97-.34 1.98-.33 1.97-.32 1.97-.3 1.98-.28 1.98-.27 1.98-.25 1.98-.24 1.98-.22 1.99-.21 1.98-.19 1.99-.18 1.99-.16 1.99-.15 1.99-.13 1.99-.11 2-.11 1.99-.08 2-.07 2-.06 2-.03 2-.03 2-.01 2.01.01 2.01.02 2 .04 2.01.05 2.01.07 2.02.08 2.01.1 2.02.11 2.01.13 2.02.14 2.02.16 2.02.17 2.02.19 2.03.21 2.03.22 2.02.23 2.03.25 2.03.27 2.03.28 2.04.3 2.03.31 2.04.33 2.04.34 2.03.36 2.05.37 2.04.39 2.04.4 2.05.42 2.04.43 2.05.45 2.05.46 2.05.48 2.06.5 2.05.51 2.05.52 2.06.54 2.06.56 2.06.57 2.06.59"/><path style="stroke-width:.71;stroke:none;fill:#00ba38" d="m522.77 522 1.92 3.31h-3.83zM354.52 138.74l1.92 3.31h-3.83zM55.97 207.77l1.91 3.31h-3.83z"/><path style="stroke-width:.71;stroke:none;fill:#619cff" d="M140.07 367.12h10.39v-10.38h-10.39z"/><circle cx="342.13" cy="345.93" r="6.76" style="stroke-width:.71;stroke:none;fill:#f8766d"/><path style="stroke-width:.53;stroke:#bfbfbf" d="m349.15 145.58 4.49-3.87M150.59 357.34l-4.44 3.83M347.48 341.32l-4.47 3.85"/><path style="stroke-width:.53;fill:#fff;fill-opacity:.5" d="M452.67 529.53h63.23-.09l.35-.02.34-.06.32-.13.3-.17.27-.22.23-.26.19-.3.14-.32.08-.33.03-.35v-6.96l-.03-.35-.08-.34-.14-.32-.19-.29-.23-.26-.27-.22-.3-.17-.32-.13-.34-.07-.26-.01h-63.23l.26.01-.34-.01-.35.04-.33.1-.32.15-.28.19-.25.25-.21.27-.16.31-.11.33-.06.34-.01.18v6.96l.01-.17v.34l.06.35.11.33.16.3.21.28.25.24.28.2.32.15.33.1.35.04z"/><text x="484.29" y="525.93" text-anchor="middle" style="font-size:5.69px;font-family:&quot;Arial&quot;" textLength="60.34" lengthAdjust="spacingAndGlyphs">MARIA ARTEAGA TOD</text><path style="stroke-width:.53;fill:#fff;fill-opacity:.5" d="M303.05 165.06h67.97l-.08-.01.34-.01.35-.07.32-.12.3-.18.27-.22.23-.26.19-.29.13-.32.09-.34.02-.34v-15.16l-.02-.35-.09-.34-.13-.32-.19-.29-.23-.26-.27-.22-.3-.17-.32-.13-.35-.07-.26-.01h-67.97l.26.01-.35-.01-.34.04-.34.1-.31.15-.29.2-.25.24-.21.27-.16.31-.11.33-.05.34-.01.18v15.16l.01-.18v.35l.05.34.11.33.16.31.21.28.25.24.29.2.31.14.34.1.34.04z"/><text x="337.04" y="153.26" text-anchor="middle" style="font-size:5.69px;font-family:&quot;Arial&quot;" textLength="65.1" lengthAdjust="spacingAndGlyphs">NAVARTE PROPERTIES</text><text x="337.04" y="161.46" text-anchor="middle" style="font-size:5.69px;font-family:&quot;Arial&quot;" textLength="10.43" lengthAdjust="spacingAndGlyphs">LLC</text><path style="stroke-width:.53;fill:#fff;fill-opacity:.5" d="M62.85 215.56h64.81l-.09-.01.35-.01.34-.07.33-.12.3-.18.27-.22.23-.26.18-.29.14-.32.08-.34.03-.34v-6.97l-.03-.34-.08-.34-.14-.32-.18-.29-.23-.26-.27-.22-.3-.18-.33-.12-.34-.07-.26-.02H62.85l.26.02-.34-.01-.35.04-.33.09-.32.15-.28.2-.25.24-.21.28-.16.31-.11.33-.06.34-.01.17v6.97l.01-.18v.35l.06.34.11.33.16.31.21.28.25.24.28.2.32.15.33.09.35.04z"/><text x="95.26" y="211.96" text-anchor="middle" style="font-size:5.69px;font-family:&quot;Arial&quot;" textLength="61.93" lengthAdjust="spacingAndGlyphs">Y&amp;R PROPERTIES LLC</text><path style="stroke-width:.53;fill:#fff;fill-opacity:.5" d="M130.44 357.34h64.49-.09l.35-.01.34-.07.32-.13.31-.17.27-.22.23-.26.18-.29.14-.32.08-.34.03-.35v-15.15l-.03-.35-.08-.34-.14-.32-.18-.29-.23-.26-.27-.22-.31-.18-.32-.12-.34-.07-.26-.01h-64.49l.26.01-.35-.01-.34.04-.34.1-.31.15-.29.19-.25.24-.21.28-.16.31-.11.33-.05.34-.01.18v15.15l.01-.17v.35l.05.34.11.33.16.31.21.27.25.25.29.19.31.15.34.1.34.04z"/><text x="162.68" y="345.55" text-anchor="middle" style="font-size:5.69px;font-family:&quot;Arial&quot;" textLength="43.92" lengthAdjust="spacingAndGlyphs">3476 S 44TH ST,</text><text x="162.68" y="353.74" text-anchor="middle" style="font-size:5.69px;font-family:&quot;Arial&quot;" textLength="61.61" lengthAdjust="spacingAndGlyphs">MILWAUKEE, WI 53219</text><path style="stroke-width:.53;fill:#fff;fill-opacity:.5" d="M327.37 341.32h64.49-.09l.35-.02.34-.07.32-.12.3-.17.27-.22.23-.26.19-.3.14-.32.08-.34.03-.34V324l-.03-.35-.08-.33-.14-.32-.19-.3-.23-.26-.27-.22-.3-.17-.32-.12-.34-.07-.26-.02h-64.49l.26.02-.35-.02-.35.04-.33.1-.31.15-.29.2-.25.24-.21.28-.16.3-.11.33-.06.35v15.33-.18.35l.06.34.11.33.16.31.21.28.25.24.29.2.31.15.33.09.35.05z"/><text x="359.61" y="329.52" text-anchor="middle" style="font-size:5.69px;font-family:&quot;Arial&quot;" textLength="43.92" lengthAdjust="spacingAndGlyphs">3476 S 44TH ST,</text><text x="359.61" y="337.72" text-anchor="middle" style="font-size:5.69px;font-family:&quot;Arial&quot;" textLength="61.61" lengthAdjust="spacingAndGlyphs">MILWAUKEE, WI 53219</text></g><g clip-path="url(#cpMC4wMHw1NzYuMDB8MC4wMHw1NzYuMDA=)"><circle cx="196.98" cy="96.71" r="1.95" style="stroke-width:.71;stroke:none;fill:#f8766d"/><path style="stroke-width:.71;stroke:none;fill:#00ba38" d="m273.33 93.67 2.63 4.56h-5.26z"/><path style="stroke-width:.71;stroke:none;fill:#619cff" d="M339.31 98.66h3.91v-3.91h-3.91z"/><text x="211.09" y="99.86" style="font-size:8.8px;font-family:&quot;Arial Narrow&quot;" textLength="48.12" lengthAdjust="spacingAndGlyphs">mprop address</text><text x="287.45" y="99.86" style="font-size:8.8px;font-family:&quot;Arial Narrow&quot;" textLength="39.69" lengthAdjust="spacingAndGlyphs">owner name</text><text x="355.38" y="99.86" style="font-size:8.8px;font-family:&quot;Arial Narrow&quot;" textLength="40.5" lengthAdjust="spacingAndGlyphs">wdfi address</text><text x="32.63" y="65.12" style="font-size:12px;font-family:&quot;Arial Narrow&quot;" textLength="246.76" lengthAdjust="spacingAndGlyphs">includes 6 parcels, 14 units, and 3 distinct owner names.</text><text x="32.63" y="42.78" style="font-size:18px;font-weight:700;font-family:&quot;Arial Narrow&quot;" textLength="207.22" lengthAdjust="spacingAndGlyphs">MARIA ARTEAGA TOD Group</text></g></svg>