<svg xmlns="http://www.w3.org/2000/svg" class="svglite" width="768" height="768" viewBox="0 0 576 576"><defs><style>.svglite circle,.svglite line,.svglite polygon,.svglite polyline,.svglite rect{fill:none;stroke:#000;stroke-linecap:round;stroke-linejoin:round;stroke-miterlimit:10}.svglite text{white-space:pre}</style></defs><rect width="100%" height="100%" style="stroke:none;fill:#fff"/><defs><clipPath id="cpMC4wMHw1NzYuMDB8MC4wMHw1NzYuMDA="><path d="M0 0h576v576H0z"/></clipPath></defs><g clip-path="url(#cpMC4wMHw1NzYuMDB8MC4wMHw1NzYuMDA=)"><path style="stroke-width:1.07;stroke:none;fill:#fff" d="M0 0h576v576H0z"/></g><defs><clipPath id="cpMzIuNjN8NTQ2LjExfDEyMS43OHw1NDMuMzc="><path d="M32.63 121.78h513.48v421.59H32.63z"/></clipPath></defs><g clip-path="url(#cpMzIuNjN8NTQ2LjExfDEyMS43OHw1NDMuMzc=)"><path style="stroke-width:1.07;stroke:#000;stroke-opacity:.1;stroke-linecap:butt" d="m522.77 140.95-1.57 1.29-1.57 1.29-1.57 1.29-1.58 1.29-1.57 1.29-1.57 1.29-1.57 1.29-1.57 1.29-1.57 1.29-1.58 1.29-1.57 1.29-1.57 1.29-1.57 1.29-1.57 1.29-1.57 1.29-1.58 1.29-1.57 1.3-1.57 1.29-1.57 1.29-1.57 1.29-1.57 1.29-1.58 1.29-1.57 1.29-1.57 1.29-1.57 1.29-1.57 1.29-1.57 1.29-1.58 1.29-1.57 1.29-1.57 1.29-1.57 1.29-1.57 1.29-1.58 1.29-1.57 1.29-1.57 1.29-1.57 1.29-1.57 1.29-1.57 1.29-1.58 1.29-1.57 1.3-1.57 1.29-1.57 1.29-1.57 1.29-1.57 1.29-1.58 1.29-1.57 1.29-1.57 1.29-1.57 1.29-1.57 1.29-1.57 1.29-1.58 1.29-1.57 1.29-1.57 1.29-1.57 1.29-1.57 1.29-1.58 1.29-1.57 1.29-1.57 1.29-1.57 1.29-1.57 1.29-1.57 1.29-1.58 1.3-1.57 1.29-1.57 1.29-1.57 1.29-1.57 1.29-1.57 1.29-1.58 1.29-1.57 1.29-1.57 1.29-1.57 1.29-1.57 1.29-1.57 1.29-1.58 1.29-1.57 1.29-1.57 1.29-1.57 1.29-1.57 1.29-1.57 1.29-1.58 1.29-1.57 1.29-1.57 1.29-1.57 1.29-1.57 1.29-1.58 1.3-1.57 1.29-1.57 1.29-1.57 1.29-1.57 1.29-1.57 1.29-1.58 1.29-1.57 1.29-1.57 1.29-1.57 1.29-1.57 1.29-1.57 1.29-1.58 1.29-1.57 1.29-1.57 1.29M211.57 396.46l1.57-1.29 1.57-1.29 1.57-1.29 1.58-1.29 1.57-1.3 1.57-1.29 1.57-1.29 1.57-1.29 1.57-1.29 1.58-1.29 1.57-1.29 1.57-1.29 1.57-1.29 1.57-1.29 1.58-1.29 1.57-1.29 1.57-1.29 1.57-1.29 1.57-1.29 1.57-1.29 1.58-1.29 1.57-1.29 1.57-1.29 1.57-1.29 1.57-1.29 1.57-1.29 1.58-1.3 1.57-1.29 1.57-1.29 1.57-1.29 1.57-1.29 1.57-1.29 1.58-1.29 1.57-1.29 1.57-1.29 1.57-1.29 1.57-1.29 1.58-1.29 1.57-1.29 1.57-1.29 1.57-1.29 1.57-1.29 1.57-1.29 1.58-1.29 1.57-1.29 1.57-1.29 1.57-1.29 1.57-1.29 1.57-1.3 1.58-1.29 1.57-1.29 1.57-1.29 1.57-1.29 1.57-1.29 1.57-1.29 1.58-1.29 1.57-1.29 1.57-1.29 1.57-1.29 1.57-1.29 1.57-1.29 1.58-1.29 1.57-1.29 1.57-1.29 1.57-1.29 1.57-1.29 1.58-1.29 1.57-1.29 1.57-1.29 1.57-1.3 1.57-1.29 1.57-1.29 1.58-1.29 1.57-1.29 1.57-1.29 1.57-1.29 1.57-1.29 1.57-1.29 1.58-1.29 1.57-1.29 1.57-1.29 1.57-1.29 1.57-1.29 1.57-1.29 1.58-1.29 1.57-1.29 1.57-1.29 1.57-1.29 1.57-1.29 1.57-1.29 1.58-1.29 1.57-1.3 1.57-1.29 1.57-1.29 1.57-1.29 1.58-1.29 1.57-1.29 1.57-1.29 1.57-1.29M211.57 396.46l-1.57 1.29-1.57 1.29-1.58 1.29-1.57 1.29-1.57 1.29-1.57 1.29-1.57 1.29-1.57 1.29-1.58 1.29-1.57 1.29-1.57 1.29-1.57 1.29-1.57 1.29-1.57 1.29-1.58 1.29-1.57 1.29-1.57 1.29-1.57 1.29-1.57 1.3-1.58 1.29-1.57 1.29-1.57 1.29-1.57 1.29-1.57 1.29-1.57 1.29-1.58 1.29-1.57 1.29-1.57 1.29-1.57 1.29-1.57 1.29-1.57 1.29-1.58 1.29-1.57 1.29-1.57 1.29-1.57 1.29-1.57 1.29-1.57 1.29-1.58 1.29-1.57 1.29-1.57 1.29-1.57 1.29-1.57 1.29-1.58 1.3-1.57 1.29-1.57 1.29-1.57 1.29-1.57 1.29-1.57 1.29-1.58 1.29-1.57 1.29-1.57 1.29-1.57 1.29-1.57 1.29-1.57 1.29-1.58 1.29-1.57 1.29-1.57 1.29-1.57 1.29-1.57 1.29-1.57 1.29-1.58 1.29-1.57 1.29-1.57 1.29-1.57 1.29-1.57 1.29-1.58 1.3-1.57 1.29-1.57 1.29-1.57 1.29-1.57 1.29-1.57 1.29-1.58 1.29-1.57 1.29-1.57 1.29-1.57 1.29-1.57 1.29-1.57 1.29-1.58 1.29-1.57 1.29-1.57 1.29-1.57 1.29-1.57 1.29-1.57 1.29-1.58 1.29-1.57 1.29-1.57 1.29-1.57 1.29-1.57 1.29-1.57 1.3-1.58 1.29-1.57 1.29-1.57 1.29-1.57 1.29-1.57 1.29-1.58 1.29-1.57 1.29-1.57 1.29-1.57 1.29-1.57 1.29"/><path style="stroke-width:.71;stroke:none;fill:#00ba38" d="m522.77 138.74 1.92 3.31h-3.83zM211.57 394.25l1.91 3.31h-3.82z"/><circle cx="367.17" cy="268.7" r="6.76" style="stroke-width:.71;stroke:none;fill:#f8766d"/><path style="stroke-width:.71;stroke:none;fill:#619cff" d="M54.55 525.63h2.84v-2.84h-2.84z"/><path style="stroke-width:.53;stroke:#bfbfbf" d="m206.3 401 4.39-3.79M372.49 264.21l-4.43 3.74"/><path style="stroke-width:.53;fill:#fff;fill-opacity:.5" d="M445.31 150.68h70.79-.08l.34-.01.35-.07.32-.13.3-.17.27-.22.23-.26.19-.29.13-.32.09-.34.02-.35v-15.16l-.02-.34-.09-.34-.13-.32-.19-.29-.23-.26-.27-.22-.3-.18-.32-.12-.35-.07-.26-.02h-70.79l.26.02-.35-.01-.35.04-.33.1-.31.14-.29.2-.25.24-.21.28-.16.31-.11.33-.06.34v15.33-.17.35l.06.34.11.33.16.31.21.27.25.24.29.2.31.15.33.1.35.04z"/><text x="480.71" y="138.89" text-anchor="middle" style="font-size:5.69px;font-family:&quot;Arial&quot;" textLength="67.92" lengthAdjust="spacingAndGlyphs">THE SIDNEY GOLDBERG</text><text x="480.71" y="147.08" text-anchor="middle" style="font-size:5.69px;font-family:&quot;Arial&quot;" textLength="20.54" lengthAdjust="spacingAndGlyphs">FAMILY</text><path style="stroke-width:.53;fill:#fff;fill-opacity:.5" d="M161.14 420.47h66.08-.09l.35-.01.34-.07.32-.13.31-.17.27-.22.23-.26.18-.29.14-.32.08-.34.03-.35v-15.15l-.03-.35-.08-.34-.14-.32-.18-.29-.23-.26-.27-.22-.31-.18-.32-.12-.34-.07-.26-.01h-66.08l.26.01-.34-.01-.35.04-.33.1-.32.15-.28.19-.25.24-.21.28-.16.31-.11.33-.06.34-.01.18v15.15l.01-.17v.35l.06.34.11.33.16.31.21.27.25.25.28.19.32.15.33.1.35.04z"/><text x="194.18" y="408.68" text-anchor="middle" style="font-size:5.69px;font-family:&quot;Arial&quot;" textLength="63.19" lengthAdjust="spacingAndGlyphs">MARLEW INVESTMENT</text><text x="194.18" y="416.87" text-anchor="middle" style="font-size:5.69px;font-family:&quot;Arial&quot;" textLength="10.43" lengthAdjust="spacingAndGlyphs">LLC</text><path style="stroke-width:.53;fill:#fff;fill-opacity:.5" d="M353.62 264.21h71.74l-.09-.01.35-.01.34-.07.32-.12.31-.18.26-.22.23-.26.19-.29.14-.32.08-.34.03-.34v-23.36l-.03-.34-.08-.34-.14-.32-.19-.29-.23-.26-.26-.22-.31-.18-.32-.12-.34-.07-.26-.02h-71.74l.26.02-.34-.01-.35.04-.33.1-.32.14-.28.2-.25.24-.21.28-.16.31-.11.33-.06.34-.01.17v23.36l.01-.18v.35l.06.34.11.33.16.31.21.28.25.24.28.2.32.15.33.09.35.04z"/><text x="389.49" y="244.22" text-anchor="middle" style="font-size:5.69px;font-family:&quot;Arial&quot;" textLength="68.85" lengthAdjust="spacingAndGlyphs">9800 W BLUEMOUND RD,</text><text x="389.49" y="252.41" text-anchor="middle" style="font-size:5.69px;font-family:&quot;Arial&quot;" textLength="59.08" lengthAdjust="spacingAndGlyphs">STOP 2, MILWAUKEE,</text><text x="389.49" y="260.61" text-anchor="middle" style="font-size:5.69px;font-family:&quot;Arial&quot;" textLength="24.33" lengthAdjust="spacingAndGlyphs">WI 53226</text><path style="stroke-width:.53;fill:#fff;fill-opacity:.5" d="M62.63 533.95h72.38l-.09-.01.35-.01.34-.07.32-.12.3-.18.27-.22.23-.26.19-.29.14-.32.08-.34.03-.34v-15.16l-.03-.35-.08-.33-.14-.32-.19-.3-.23-.26-.27-.22-.3-.17-.32-.13-.34-.07-.26-.01H62.63l.26.01-.34-.01-.35.04-.33.1-.32.15-.28.2-.25.24-.21.27-.16.31-.11.33-.06.35-.01.17v15.16l.01-.18v.35l.06.34.11.33.16.31.21.28.25.24.28.2.32.15.33.09.35.04z"/><text x="98.82" y="522.15" text-anchor="middle" style="font-size:5.69px;font-family:&quot;Arial&quot;" textLength="39.8" lengthAdjust="spacingAndGlyphs">1 ASHTON SQ,</text><text x="98.82" y="530.35" text-anchor="middle" style="font-size:5.69px;font-family:&quot;Arial&quot;" textLength="69.49" lengthAdjust="spacingAndGlyphs">GREENSBORO, NC 27408</text></g><g clip-path="url(#cpMC4wMHw1NzYuMDB8MC4wMHw1NzYuMDA=)"><circle cx="196.98" cy="96.71" r="1.95" style="stroke-width:.71;stroke:none;fill:#f8766d"/><path style="stroke-width:.71;stroke:none;fill:#00ba38" d="m273.33 93.67 2.63 4.56h-5.26z"/><path style="stroke-width:.71;stroke:none;fill:#619cff" d="M339.31 98.66h3.91v-3.91h-3.91z"/><text x="211.09" y="99.86" style="font-size:8.8px;font-family:&quot;Arial Narrow&quot;" textLength="48.12" lengthAdjust="spacingAndGlyphs">mprop address</text><text x="287.45" y="99.86" style="font-size:8.8px;font-family:&quot;Arial Narrow&quot;" textLength="39.69" lengthAdjust="spacingAndGlyphs">owner name</text><text x="355.38" y="99.86" style="font-size:8.8px;font-family:&quot;Arial Narrow&quot;" textLength="40.5" lengthAdjust="spacingAndGlyphs">wdfi address</text><text x="32.63" y="65.12" style="font-size:12px;font-family:&quot;Arial Narrow&quot;" textLength="246.76" lengthAdjust="spacingAndGlyphs">includes 2 parcels, 38 units, and 2 distinct owner names.</text><text x="32.63" y="42.78" style="font-size:18px;font-weight:700;font-family:&quot;Arial Narrow&quot;" textLength="246.77" lengthAdjust="spacingAndGlyphs">MARLEW INVESTMENT LLC Group</text></g></svg>