<svg xmlns="http://www.w3.org/2000/svg" width="768" height="768" class="svglite" viewBox="0 0 576 576"><defs><style><![CDATA[.svglite line,.svglite polyline,.svglite polygon,.svglite path,.svglite circle{fill:none;stroke:#000000;stroke-linecap:round;stroke-linejoin:round;stroke-miterlimit:10.00}.svglite text{white-space:pre}]]></style></defs><rect width="100%" height="100%" style="stroke-linecap:round;stroke-linejoin:round;stroke-miterlimit:10.00;stroke:none;fill:#FFFFFF"/><defs><clipPath id="cpMC4wMHw1NzYuMDB8MC4wMHw1NzYuMDA="><path d="M0 0h576v576H0z"/></clipPath></defs><g clip-path="url(#cpMC4wMHw1NzYuMDB8MC4wMHw1NzYuMDA=)"><path d="M0 0h576v576H0z" style="stroke-width:1.07;stroke:none;fill:#FFFFFF"/></g><defs><clipPath id="cpMzIuNjN8NTQ2LjExfDEyMi4xNHw1NDMuMzc="><path d="M32.63 122.14h513.48v421.24H32.63z"/></clipPath></defs><g clip-path="url(#cpMzIuNjN8NTQ2LjExfDEyMi4xNHw1NDMuMzc=)"><path d="m396.72 420.42-1.43-1.15-1.44-1.15-1.43-1.15-1.43-1.15-1.44-1.15-1.43-1.15-1.43-1.15-1.44-1.15-1.43-1.15-1.43-1.15-1.44-1.15-1.43-1.15-1.43-1.15-1.44-1.15-1.43-1.15-1.43-1.15-1.43-1.15-1.44-1.15-1.43-1.15-1.43-1.15-1.44-1.15-1.43-1.15-1.43-1.15-1.44-1.15-1.43-1.15-1.43-1.15-1.44-1.15-1.43-1.15-1.43-1.15-1.43-1.15-1.44-1.15-1.43-1.15-1.43-1.15-1.44-1.15-1.43-1.15-1.43-1.15-1.44-1.15-1.43-1.15-1.43-1.15-1.44-1.15-1.43-1.14-1.43-1.15-1.43-1.15-1.44-1.15-1.43-1.15-1.43-1.15-1.44-1.15-1.43-1.15-1.43-1.15-1.44-1.15-1.43-1.15-1.43-1.15-1.44-1.15-1.43-1.15-1.43-1.15-1.43-1.15-1.44-1.15-1.43-1.15-1.43-1.15-1.44-1.15-1.43-1.15-1.43-1.15-1.44-1.15-1.43-1.15-1.43-1.15-1.44-1.15-1.43-1.15-1.43-1.15-1.43-1.15-1.44-1.15-1.43-1.15-1.43-1.15-1.44-1.15-1.43-1.15-1.43-1.15-1.44-1.15-1.43-1.15-1.43-1.15-1.44-1.15-1.43-1.15-1.43-1.15-1.43-1.15-1.44-1.15-1.43-1.15-1.43-1.15-1.44-1.15-1.43-1.15-1.43-1.15-1.44-1.15-1.43-1.15-1.43-1.15-1.44-1.15-1.43-1.15-1.43-1.15-1.43-1.15-1.44-1.15-1.43-1.15-1.43-1.15-1.44-1.15m141.88 113.84 1.27 1.05 1.27 1.05 1.28 1.05 1.27 1.05 1.27 1.05 1.28 1.04 1.27 1.05 1.27 1.05 1.28 1.05 1.27 1.05 1.27 1.05 1.28 1.05 1.27 1.04 1.27 1.05 1.28 1.05 1.27 1.05 1.27 1.05 1.28 1.05 1.27 1.04 1.27 1.05 1.28 1.05 1.27 1.05 1.27 1.05 1.28 1.05 1.27 1.05 1.27 1.04 1.28 1.05 1.27 1.05 1.27 1.05 1.28 1.05 1.27 1.05 1.27 1.05 1.28 1.04 1.27 1.05 1.27 1.05 1.28 1.05 1.27 1.05 1.27 1.05 1.28 1.04 1.27 1.05 1.27 1.05 1.28 1.05 1.27 1.05 1.27 1.05 1.28 1.05 1.27 1.04 1.27 1.05 1.28 1.05 1.27 1.05 1.27 1.05 1.27 1.05 1.28 1.05 1.27 1.04 1.27 1.05 1.28 1.05 1.27 1.05 1.27 1.05 1.28 1.05 1.27 1.04 1.27 1.05 1.28 1.05 1.27 1.05 1.27 1.05 1.28 1.05 1.27 1.05 1.27 1.04 1.28 1.05 1.27 1.05 1.27 1.05 1.28 1.05 1.27 1.05 1.27 1.05 1.28 1.04 1.27 1.05 1.27 1.05 1.28 1.05 1.27 1.05 1.27 1.05 1.28 1.05 1.27 1.04 1.27 1.05 1.28 1.05 1.27 1.05 1.27 1.05 1.28 1.05 1.27 1.04 1.27 1.05 1.28 1.05 1.27 1.05 1.27 1.05 1.28 1.05 1.27 1.05 1.27 1.04 1.28 1.05 1.27 1.05 1.27 1.05 1.28 1.05 1.27 1.05 1.27 1.05M407.66 215.71l-1.58.88-1.58.87-1.58.87-1.58.88-1.58.87-1.58.88-1.58.87-1.57.88-1.58.88-1.57.88-1.58.88-1.57.89-1.58.88-1.57.88-1.57.89-1.57.88-1.57.89-1.57.89-1.56.89-1.57.89-1.57.89-1.56.89-1.57.89-1.56.89-1.56.9-1.57.89-1.56.9-1.56.9-1.56.89-1.56.9-1.56.9-1.56.9-1.55.91-1.56.9-1.55.9-1.56.91-1.55.9-1.55.91-1.56.91-1.55.9-1.55.91-1.55.91-1.55.92-1.55.91-1.54.91-1.55.91-1.55.92-1.54.92-1.55.91-1.54.92-1.54.92-1.54.92-1.55.92-1.54.92-1.54.92-1.53.93-1.54.92-1.54.93-1.54.92-1.53.93-1.54.93-1.53.93-1.54.93-1.53.93-1.53.93-1.53.93-1.53.94-1.53.93-1.53.94-1.53.93-1.52.94-1.53.94-1.53.94-1.52.94-1.53.94-1.52.94-1.52.95-1.52.94-1.52.95-1.52.94-1.52.95-1.52.95-1.52.95-1.52.95-1.51.95-1.52.95-1.51.95-1.52.96-1.51.95-1.51.96-1.51.95-1.51.96-1.51.96-1.51.96-1.51.96-1.51.96-1.51.96-1.5.96-1.51.97m152.82-90.87-1.51.97-1.5.96-1.51.96-1.51.96-1.5.96-1.51.96-1.51.96-1.51.96-1.52.96-1.51.95-1.51.96-1.52.95-1.51.95-1.52.95-1.51.95-1.52.95-1.52.95-1.51.95-1.52.95-1.52.94-1.53.95-1.52.94-1.52.95-1.52.94-1.53.94-1.52.94-1.53.94-1.52.94-1.53.94-1.53.93-1.53.94-1.53.93-1.53.94-1.53.93-1.53.93-1.53.93-1.54.93-1.53.93-1.54.93-1.53.93-1.54.92-1.53.93-1.54.92-1.54.93-1.54.92-1.54.92-1.54.92-1.55.92-1.54.92-1.54.92-1.55.92-1.54.91-1.55.92-1.54.91-1.55.91-1.55.92-1.55.91-1.55.91-1.55.91-1.55.91-1.55.9-1.56.91-1.55.9-1.55.91-1.56.9-1.56.91-1.55.9-1.56.9-1.56.9-1.56.9-1.56.9-1.56.89-1.56.9-1.56.89-1.57.9-1.56.89-1.56.89-1.57.9-1.57.89-1.56.89-1.57.88-1.57.89-1.57.89-1.57.88-1.57.89-1.57.88-1.58.89-1.57.88-1.57.88-1.58.88-1.57.88-1.58.88-1.58.87-1.58.88-1.57.88-1.58.87-1.58.87-1.59.88-1.58.87m-21.02-165.3-.35 1.72-.33 1.72-.33 1.72-.31 1.72-.3 1.72-.29 1.71-.27 1.72-.27 1.71-.25 1.71-.25 1.71-.23 1.71-.22 1.71-.21 1.71-.2 1.71-.18 1.7-.18 1.71-.16 1.7-.15 1.7-.15 1.71-.13 1.7-.11 1.7-.11 1.69-.1 1.7-.08 1.7-.07 1.69-.06 1.7-.05 1.69-.04 1.69-.03 1.7-.01 1.69-.01 1.69.01 1.68.02 1.69.03 1.69.04 1.68.05 1.69.07 1.68.07 1.68.09 1.68.1 1.68.11 1.68.12 1.68.13 1.68.15 1.67.15 1.68.17 1.67.18 1.67.19 1.68.2 1.67.21 1.67.22 1.66.24 1.67.25 1.67.25 1.66.27 1.67.28 1.66.3 1.66.3 1.67.31 1.66.33 1.66.34 1.65.35 1.66.36 1.66.37 1.65.38 1.66.4 1.65.4 1.65.42 1.65.43 1.65.44 1.65.45 1.65.46 1.65.48 1.64.48 1.65.5 1.64.51 1.64.52 1.64.53 1.64.54 1.64.56 1.64.56 1.64.58 1.64.59 1.63.6 1.64.61 1.63.62 1.63.64 1.63.64 1.63.66 1.63.67 1.63.68 1.63.69 1.62.7 1.63.71 1.62.73 1.63.74 1.62.74 1.62.76 1.62.77 1.62" style="stroke-width:1.07;stroke:#000000;stroke-opacity:0.10;stroke-linecap:butt"/><path d="m233.82 141.28-.21 1.71-.2 1.71-.19 1.71-.18 1.7-.17 1.71-.16 1.7-.16 1.7-.14 1.7-.14 1.71-.13 1.7-.12 1.7-.11 1.7-.11 1.69-.09 1.7-.09 1.7-.08 1.69-.07 1.7-.06 1.69-.05 1.7-.04 1.69-.04 1.69-.03 1.69-.02 1.7-.01 1.69v1.68l.01 1.69.02 1.69.02 1.69.03 1.68.05 1.69.05 1.68.05 1.69.07 1.68.08 1.68.08 1.68.09 1.68.1 1.68.11 1.68.12 1.68.13 1.68.14 1.67.14 1.68.15 1.67.16 1.68.17 1.67.18 1.68.19 1.67.19 1.67.21 1.67.21 1.67.22 1.67.23 1.67.24 1.66.24 1.67.26 1.66.26 1.67.27 1.66.29 1.67.28 1.66.3 1.66.31 1.66.31 1.66.33 1.66.33 1.66.34 1.66.35 1.66.36 1.65.36 1.66.38 1.65.38 1.66.39 1.65.4 1.65.41 1.66.42 1.65.43 1.65.43 1.65.44 1.64.45 1.65.46 1.65.47 1.65.48 1.64.49 1.65.49 1.64.5 1.64.52 1.65.52 1.64.52 1.64.54 1.64.55 1.64.55 1.64.56 1.63.57 1.64.58 1.64.59 1.63.6 1.64.61 1.63.61 1.63.62 1.64.63 1.63" style="stroke-width:1.07;stroke:#000000;stroke-opacity:0.10;stroke-linecap:butt"/><path d="m233.82 141.28-.07 1.7-.06 1.69-.06 1.7-.04 1.69-.05 1.69-.04 1.7-.03 1.69-.03 1.69-.02 1.69-.01 1.69-.01 1.69-.01 1.69v1.69l.01 1.69.01 1.69.02 1.68.03 1.69.03 1.69.03 1.68.05 1.69.04 1.68.06 1.69.05 1.68.07 1.68.07 1.68.07 1.69.09 1.68.08 1.68.09 1.68.1 1.68.11 1.68.11 1.68.11 1.68.12 1.67.13 1.68.13 1.68.14 1.68.15 1.67.15 1.68.15 1.67.16 1.68.17 1.67.17 1.67.18 1.68.18 1.67.19 1.67.2 1.67.2 1.67.21 1.67.21 1.67.22 1.67.22 1.67.23 1.67.23 1.66.25 1.67.24 1.67.25 1.66.26 1.67.27 1.66.27 1.67.27 1.66.28 1.67.29 1.66.29 1.66.3 1.66.3 1.66.31 1.67.32 1.66.32 1.66.32 1.65.33 1.66.34 1.66.35 1.66.34 1.66.36 1.65.36 1.66.37 1.66.37 1.65.38 1.65.38 1.66.39 1.65.39 1.66.4 1.65.41 1.65.41 1.65.42 1.65.42 1.65.43 1.65.43 1.65.44 1.65.45 1.65.45 1.65.46 1.64.46 1.65.47 1.65.48 1.64.48 1.65.48 1.64.49 1.65" style="stroke-width:1.07;stroke:#000000;stroke-opacity:0.10;stroke-linecap:butt"/><path d="m233.82 141.28.07 1.69.08 1.68.08 1.68.08 1.68.08 1.68.09 1.68.09 1.69.09 1.68.1 1.68.09 1.68.11 1.68.1 1.68.11 1.67.11 1.68.11 1.68.11 1.68.12 1.68.12 1.68.13 1.67.13 1.68.13 1.68.13 1.68.13 1.67.14 1.68.14 1.67.15 1.68.14 1.68.15 1.67.16 1.68.15 1.67.16 1.68.16 1.67.16 1.67.17 1.68.17 1.67.17 1.67.18 1.68.18 1.67.18 1.67.18 1.68.19 1.67.19 1.67.19 1.67.2 1.67.19 1.67.21 1.67.2 1.67.21 1.67.21 1.67.21 1.67.21 1.67.22 1.67.22 1.67.23 1.67.22 1.67.23 1.67.23 1.66.24 1.67.24 1.67.24 1.67.24 1.66.25 1.67.25 1.67.25 1.66.25 1.67.26 1.66.26 1.67.27 1.66.26 1.67.27 1.66.28 1.67.27 1.66.28 1.66.28 1.67.28 1.66.29 1.66.29 1.67.29 1.66.3 1.66.29 1.66.3 1.66.31 1.66.3 1.67.31 1.66.31 1.66.32 1.66.32 1.66.32 1.66.32 1.66.33 1.66.33 1.66.33 1.65.33 1.66.34 1.66.34 1.66.35 1.66.34 1.65.35 1.66.35 1.66" style="stroke-width:1.07;stroke:#000000;stroke-opacity:0.10;stroke-linecap:butt"/><path d="m233.82 141.28.21 1.67.21 1.67.22 1.67.21 1.67.21 1.67.21 1.67.21 1.67.22 1.67.21 1.67.21 1.67.21 1.67.22 1.67.21 1.67.21 1.67.21 1.67.22 1.67.21 1.67.21 1.67.21 1.67.22 1.67.21 1.67.21 1.67.21 1.67.21 1.67.22 1.67.21 1.66.21 1.67.21 1.67.22 1.67.21 1.67.21 1.67.21 1.67.22 1.67.21 1.67.21 1.67.21 1.67.22 1.67.21 1.67.21 1.67.21 1.67.22 1.67.21 1.67.21 1.67.21 1.67.21 1.67.22 1.67.21 1.67.21 1.67.21 1.67.22 1.67.21 1.67.21 1.67.21 1.66.22 1.67.21 1.67.21 1.67.21 1.67.22 1.67.21 1.67.21 1.67.21 1.67.22 1.67.21 1.67.21 1.67.21 1.67.21 1.67.22 1.67.21 1.67.21 1.67.21 1.67.22 1.67.21 1.67.21 1.67.21 1.67.22 1.67.21 1.67.21 1.67.21 1.67.22 1.67.21 1.66.21 1.67.21 1.67.21 1.67.22 1.67.21 1.67.21 1.67.21 1.67.22 1.67.21 1.67.21 1.67.21 1.67.22 1.67.21 1.67.21 1.67.21 1.67.22 1.67.21 1.67.21 1.67.21 1.67" style="stroke-width:1.07;stroke:#000000;stroke-opacity:0.10;stroke-linecap:butt"/><path d="m95.21 268.72 1.62.38 1.61.38 1.61.38 1.61.39 1.62.38 1.61.38 1.61.38 1.61.39 1.62.38 1.61.38 1.61.38 1.61.39 1.62.38 1.61.38 1.61.38 1.61.38 1.62.39 1.61.38 1.61.38 1.61.38 1.62.39 1.61.38 1.61.38 1.61.38 1.61.39 1.62.38 1.61.38 1.61.38 1.61.39 1.62.38 1.61.38 1.61.38 1.61.39 1.62.38 1.61.38 1.61.38 1.61.39 1.62.38 1.61.38 1.61.38 1.61.39 1.62.38 1.61.38 1.61.38 1.61.39 1.62.38 1.61.38 1.61.38 1.61.39 1.61.38 1.62.38 1.61.38 1.61.39 1.61.38 1.62.38 1.61.38 1.61.39 1.61.38 1.62.38 1.61.38 1.61.38 1.61.39 1.62.38 1.61.38 1.61.38 1.61.39 1.62.38 1.61.38 1.61.38 1.61.39 1.62.38 1.61.38 1.61.38 1.61.39 1.62.38 1.61.38 1.61.38 1.61.39 1.61.38 1.62.38 1.61.38 1.61.39 1.61.38 1.62.38 1.61.38 1.61.39 1.61.38 1.62.38 1.61.38 1.61.39 1.61.38 1.62.38 1.61.38 1.61.39 1.61.38 1.62.38 1.61.38 1.61.39 1.61.38M95.21 268.72l.68 1.5.68 1.5.68 1.5.68 1.51.68 1.5.67 1.5.68 1.5.68 1.51.68 1.5.68 1.5.67 1.5.68 1.51.68 1.5.68 1.5.68 1.5.67 1.51.68 1.5.68 1.5.68 1.5.68 1.51.68 1.5.67 1.5.68 1.5.68 1.51.68 1.5.68 1.5.67 1.5.68 1.51.68 1.5.68 1.5.68 1.5.68 1.51.67 1.5.68 1.5.68 1.5.68 1.51.68 1.5.67 1.5.68 1.5.68 1.51.68 1.5.68 1.5.67 1.51.68 1.5.68 1.5.68 1.5.68 1.51.68 1.5.67 1.5.68 1.5.68 1.51.68 1.5.68 1.5.67 1.5.68 1.51.68 1.5.68 1.5.68 1.5.67 1.51.68 1.5.68 1.5.68 1.5.68 1.51.68 1.5.67 1.5.68 1.5.68 1.51.68 1.5.68 1.5.67 1.5.68 1.51.68 1.5.68 1.5.68 1.5.68 1.51.67 1.5.68 1.5.68 1.5.68 1.51.68 1.5.67 1.5.68 1.5.68 1.51.68 1.5.68 1.5.67 1.5.68 1.51.68 1.5.68 1.5.68 1.5.68 1.51.67 1.5.68 1.5.68 1.5.68 1.51.68 1.5.67 1.5.68 1.5.68 1.51" style="stroke-width:1.07;stroke:#000000;stroke-opacity:0.10;stroke-linecap:butt"/><path d="m233.82 141.28.35 1.66.35 1.66.35 1.66.34 1.65.34 1.66.34 1.66.33 1.66.33 1.66.33 1.66.33 1.66.32 1.65.32 1.66.32 1.66.32 1.66.31 1.67.31 1.66.3 1.66.31 1.66.3 1.66.3 1.66.29 1.66.29 1.67.29 1.66.29 1.66.28 1.67.28 1.66.28 1.66.28 1.67.27 1.66.27 1.66.26 1.67.27 1.66.26 1.67.26 1.67.25 1.66.25 1.67.25 1.66.25 1.67.24 1.67.24 1.66.24 1.67.24 1.67.23 1.67.23 1.66.23 1.67.22 1.67.22 1.67.22 1.67.21 1.67.22 1.67.21 1.67.2 1.67.21 1.67.2 1.67.19 1.67.2 1.67.19 1.67.19 1.67.19 1.68.18 1.67.18 1.67.18 1.67.18 1.68.17 1.67.17 1.67.17 1.68.16 1.67.16 1.68.16 1.67.16 1.68.15 1.67.15 1.68.14 1.67.15 1.68.14 1.67.14 1.68.13 1.68.14 1.67.13 1.68.12 1.68.13 1.68.12 1.67.12 1.68.11 1.68.11 1.68.11 1.68.11 1.68.11 1.68.1 1.68.1 1.68.09 1.68.09 1.68.09 1.68.09 1.68.08 1.68.09 1.68.07 1.68.08 1.69.07 1.68" style="stroke-width:1.07;stroke:#000000;stroke-opacity:0.10;stroke-linecap:butt"/><path d="m233.82 141.28.49 1.65.49 1.64.48 1.65.47 1.64.47 1.65.46 1.65.46 1.64.45 1.65.45 1.65.44 1.65.43 1.65.43 1.65.42 1.65.42 1.65.41 1.65.41 1.65.4 1.66.39 1.65.39 1.65.39 1.66.37 1.65.38 1.66.36 1.65.36 1.66.36 1.66.35 1.65.34 1.66.34 1.66.33 1.66.33 1.66.32 1.66.31 1.66.31 1.66.3 1.66.3 1.66.29 1.66.29 1.67.28 1.66.28 1.66.26 1.67.27 1.66.26 1.67.25 1.66.25 1.67.24 1.67.23 1.67.23 1.66.22 1.67.22 1.67.21 1.67.21 1.67.2 1.67.2 1.67.19 1.67.18 1.68.18 1.67.17 1.67.17 1.68.16 1.67.16 1.68.15 1.67.14 1.68.14 1.67.13 1.68.13 1.68.12 1.68.11 1.67.11 1.68.11 1.68.1 1.68.09 1.68.09 1.68.08 1.69.07 1.68.07 1.68.07 1.68.06 1.69.05 1.68.05 1.69.04 1.68.03 1.69.03 1.68.03 1.69.02 1.69.01 1.68.01 1.69v1.69l-.01 1.69-.01 1.69-.01 1.69-.02 1.69-.03 1.69-.03 1.7-.04 1.69-.04 1.69-.05 1.69-.06 1.7-.06 1.69-.07 1.7" style="stroke-width:1.07;stroke:#000000;stroke-opacity:0.10;stroke-linecap:butt"/><path d="m233.82 141.28.63 1.64.62 1.63.62 1.63.6 1.63.6 1.64.59 1.64.58 1.63.57 1.64.56 1.64.55 1.63.55 1.64.54 1.64.53 1.64.52 1.65.51 1.64.5 1.64.49 1.65.49 1.64.48 1.65.47 1.64.46 1.65.45 1.65.44 1.65.44 1.65.42 1.65.42 1.65.41 1.65.4 1.65.39 1.65.38 1.66.38 1.65.36 1.66.36 1.66.35 1.65.34 1.66.33 1.66.33 1.66.31 1.66.31 1.66.3 1.66.29 1.66.28 1.67.27 1.66.26 1.67.26 1.66.24 1.67.24 1.67.23 1.66.22 1.67.21 1.67.21 1.67.19 1.67.19 1.68.18 1.67.17 1.67.16 1.68.15 1.67.15 1.68.13 1.67.13 1.68.12 1.68.11 1.68.1 1.68.09 1.68.08 1.68.08 1.68.07 1.69.06 1.68.05 1.68.04 1.69.03 1.69.02 1.68.02 1.69.01 1.69v1.69l-.01 1.69-.02 1.69-.03 1.69-.03 1.69-.05 1.69-.05 1.7-.06 1.69-.07 1.7-.08 1.69-.09 1.7-.09 1.7-.11 1.7-.11 1.7-.12 1.7-.13 1.7-.14 1.7-.14 1.7-.16 1.7-.16 1.71-.17 1.7-.18 1.71-.19 1.7-.2 1.71-.21 1.71" style="stroke-width:1.07;stroke:#000000;stroke-opacity:0.10;stroke-linecap:butt"/><path d="m233.82 141.28.77 1.62.76 1.62.75 1.62.73 1.63.73 1.62.71 1.62.7 1.63.69 1.62.68 1.63.67 1.63.66 1.63.64 1.63.64 1.63.62 1.63.61 1.64.6 1.63.59 1.64.58 1.63.56 1.64.56 1.64.54 1.64.53 1.64.52 1.64.51 1.64.5 1.65.48 1.64.48 1.65.46 1.64.45 1.65.44 1.65.43 1.65.42 1.65.4 1.65.4 1.66.38 1.65.37 1.66.36 1.65.35 1.66.34 1.66.33 1.66.31 1.66.31 1.66.29 1.66.28 1.66.27 1.67.26 1.66.24 1.67.24 1.67.22 1.67.21 1.67.2 1.67.19 1.67.18 1.67.17 1.67.15 1.68.15 1.68.13 1.67.12 1.68.11 1.68.1 1.68.09 1.68.07 1.68.07 1.69.05 1.68.04 1.68.03 1.69.02 1.69.01 1.69-.01 1.69-.01 1.69-.03 1.69-.04 1.69-.05 1.69-.06 1.7-.07 1.69-.08 1.7-.1 1.7-.11 1.7-.11 1.7-.13 1.7-.14 1.7-.16 1.7-.16 1.71-.18 1.7-.18 1.71-.2 1.7-.21 1.71-.22 1.71-.23 1.71-.24 1.71-.26 1.71-.27 1.72-.27 1.71-.29 1.72-.3 1.71-.31 1.72-.33 1.72-.33 1.72-.35 1.72M55.97 379.37l2.01-.74 2.01-.73 2-.74 2.01-.73 2.01-.74 2.01-.73 2.01-.74 2.01-.73 2.01-.74 2.01-.74 2.01-.73 2-.74 2.01-.73 2.01-.74 2.01-.73 2.01-.74 2.01-.73 2.01-.74 2.01-.73 2-.74 2.01-.73 2.01-.74 2.01-.73 2.01-.74 2.01-.73 2.01-.74 2.01-.73 2.01-.74 2-.73 2.01-.74 2.01-.74 2.01-.73 2.01-.74 2.01-.73 2.01-.74 2.01-.73 2-.74 2.01-.73 2.01-.74 2.01-.73 2.01-.74 2.01-.73 2.01-.74 2.01-.73 2.01-.74 2-.73 2.01-.74 2.01-.73 2.01-.74 2.01-.74 2.01-.73 2.01-.74 2.01-.73 2.01-.74 2-.73 2.01-.74 2.01-.73 2.01-.74 2.01-.73 2.01-.74 2.01-.73 2.01-.74 2-.73 2.01-.74 2.01-.73 2.01-.74 2.01-.73 2.01-.74 2.01-.73 2.01-.74 2.01-.74 2-.73 2.01-.74 2.01-.73 2.01-.74 2.01-.73 2.01-.74 2.01-.73 2.01-.74 2-.73 2.01-.74 2.01-.73 2.01-.74 2.01-.73 2.01-.74 2.01-.73 2.01-.74 2.01-.73 2-.74 2.01-.73 2.01-.74 2.01-.74 2.01-.73 2.01-.74 2.01-.73 2.01-.74 2.01-.73 2-.74 2.01-.73M55.97 379.37l1.07.38 1.08.39 1.07.38 1.08.39 1.07.38 1.08.39 1.07.38 1.07.39 1.08.38 1.07.39 1.08.38 1.07.39 1.08.38 1.07.39 1.08.38 1.07.38 1.08.39 1.07.38 1.07.39 1.08.38 1.07.39 1.08.38 1.07.39 1.08.38 1.07.39 1.08.38 1.07.39 1.08.38 1.07.39 1.07.38 1.08.39 1.07.38 1.08.39 1.07.38 1.08.39 1.07.38 1.08.39 1.07.38 1.08.39 1.07.38 1.08.39 1.07.38 1.07.39 1.08.38 1.07.39 1.08.38 1.07.39 1.08.38 1.07.38 1.08.39 1.07.38 1.08.39 1.07.38 1.07.39 1.08.38 1.07.39 1.08.38 1.07.39 1.08.38 1.07.39 1.08.38 1.07.39 1.08.38 1.07.39 1.07.38 1.08.39 1.07.38 1.08.39 1.07.38 1.08.39 1.07.38 1.08.39 1.07.38 1.08.39 1.07.38 1.08.39 1.07.38 1.07.39 1.08.38 1.07.39 1.08.38 1.07.38 1.08.39 1.07.38 1.08.39 1.07.38 1.08.39 1.07.38 1.07.39 1.08.38 1.07.39 1.08.38 1.07.39 1.08.38 1.07.39 1.08.38 1.07.39 1.08.38 1.07.39m0 0 1.54-.76 1.53-.76 1.52-.78 1.51-.77 1.49-.79 1.48-.8 1.47-.8 1.46-.81 1.44-.81 1.43-.83 1.42-.83 1.41-.83 1.39-.85 1.38-.85 1.37-.86 1.36-.87 1.34-.88 1.33-.88 1.32-.89 1.31-.9 1.29-.9 1.28-.92 1.27-.92 1.26-.92 1.25-.94 1.23-.94 1.22-.95 1.21-.96 1.19-.96 1.18-.97 1.17-.98 1.16-.99 1.15-.99 1.13-1.01 1.12-1 1.11-1.02 1.09-1.02 1.09-1.04 1.07-1.03 1.06-1.05 1.04-1.05 1.04-1.06 1.02-1.07 1.01-1.08.99-1.08.99-1.09.97-1.1.96-1.1.94-1.12.94-1.12.92-1.12.91-1.14.9-1.14.88-1.15.87-1.16.86-1.16.85-1.18.84-1.18.82-1.18.81-1.2.8-1.2.78-1.21.77-1.21.76-1.23.75-1.23.74-1.24.72-1.24.71-1.26.7-1.26.69-1.27.67-1.27.66-1.28.65-1.3.63-1.29.63-1.31.61-1.31.6-1.32.59-1.33.57-1.33.56-1.35.55-1.35.54-1.35.52-1.37.51-1.37.5-1.38.49-1.39.47-1.39.47-1.4.45-1.41.43-1.42.43-1.42.41-1.43.4-1.44.39-1.45.38-1.45.36-1.46.35-1.47.34-1.48.32-1.48" style="stroke-width:1.07;stroke:#000000;stroke-opacity:0.10;stroke-linecap:butt"/><path d="m162.35 417.47 1.45-.82 1.44-.81 1.43-.83 1.41-.83 1.41-.84 1.4-.84 1.38-.85 1.38-.86 1.37-.86 1.35-.87 1.34-.88 1.34-.88 1.32-.89 1.31-.89 1.31-.9 1.29-.91 1.28-.91 1.27-.92 1.26-.93 1.25-.93 1.24-.94 1.23-.94 1.21-.95 1.21-.96 1.2-.96 1.18-.97 1.18-.98 1.17-.98 1.15-.99 1.15-.99 1.13-1.01 1.12-1 1.12-1.02 1.1-1.02 1.09-1.02 1.08-1.03 1.07-1.04 1.06-1.05 1.05-1.05 1.04-1.06 1.03-1.06 1.02-1.07 1.01-1.08.99-1.08.99-1.09.98-1.09.96-1.1.96-1.11.94-1.11.94-1.12.92-1.13.91-1.13.91-1.14.89-1.15.88-1.15.87-1.16.86-1.16.85-1.17.84-1.18.83-1.18.82-1.19.81-1.19.8-1.21.78-1.2.78-1.22.77-1.22.75-1.23.75-1.23.73-1.24.73-1.24.71-1.26.7-1.25.7-1.27.68-1.27.67-1.28.66-1.28.65-1.29.64-1.29.63-1.31.62-1.3.61-1.32.6-1.32.58-1.33.58-1.33.57-1.34.55-1.34.55-1.36.53-1.36.53-1.36.51-1.37.5-1.38.5-1.38.48-1.39.47-1.4.46-1.4.45-1.41.44-1.41.43-1.42.42-1.43" style="stroke-width:1.07;stroke:#000000;stroke-opacity:0.10;stroke-linecap:butt"/><path d="m162.35 417.47 1.36-.87 1.34-.88 1.34-.87 1.33-.89 1.32-.89 1.32-.89 1.3-.9 1.29-.91 1.29-.91 1.28-.91 1.27-.92 1.26-.93 1.25-.93 1.25-.93 1.23-.94 1.23-.95 1.22-.95 1.21-.95 1.2-.96 1.19-.97 1.18-.97 1.18-.98 1.16-.98 1.16-.99 1.15-.99 1.14-1 1.13-1 1.13-1 1.11-1.02 1.11-1.01 1.1-1.03 1.08-1.02 1.09-1.04 1.07-1.04 1.06-1.04 1.05-1.05 1.05-1.05 1.04-1.06 1.03-1.06 1.02-1.07 1.01-1.08 1-1.07 1-1.09.98-1.09.98-1.09.97-1.1.96-1.11.95-1.11.94-1.11.94-1.12.92-1.13.92-1.13.91-1.13.9-1.14.89-1.15.88-1.15.88-1.16.86-1.16.86-1.16.85-1.17.84-1.18.83-1.18.82-1.19.81-1.19.81-1.2.8-1.2.78-1.21.78-1.21.77-1.22.77-1.22.75-1.23.75-1.23.73-1.24.73-1.24.72-1.25.71-1.25.7-1.26.7-1.27.68-1.27.68-1.27.66-1.28.66-1.28.65-1.29.65-1.3.63-1.3.62-1.3.62-1.31.61-1.32.6-1.32.59-1.32.58-1.33.57-1.34.57-1.34.55-1.35.55-1.35.54-1.35.53-1.36.52-1.37.51-1.37" style="stroke-width:1.07;stroke:#000000;stroke-opacity:0.10;stroke-linecap:butt"/><path d="m162.35 417.47 1.26-.93 1.26-.93 1.25-.93 1.24-.93 1.23-.95 1.23-.94 1.22-.95 1.22-.95 1.21-.96 1.2-.96 1.19-.96 1.19-.97 1.18-.97 1.18-.98 1.17-.98 1.16-.98 1.15-.99 1.15-.99 1.14-1 1.14-1 1.13-1.01 1.12-1 1.11-1.02 1.11-1.01 1.1-1.02 1.1-1.03 1.09-1.03 1.08-1.03 1.07-1.03 1.07-1.04 1.06-1.05 1.06-1.05 1.04-1.05 1.05-1.06 1.03-1.06 1.03-1.06 1.02-1.07 1.01-1.07 1.01-1.08 1-1.08 1-1.08.98-1.09.99-1.09.97-1.1.97-1.1.96-1.1.95-1.11.95-1.11.94-1.12.94-1.12.92-1.12.92-1.13.92-1.13.91-1.14.9-1.14.89-1.14.89-1.15.88-1.15.87-1.16.87-1.16.86-1.16.86-1.17.84-1.17.84-1.18.84-1.18.83-1.18.82-1.19.81-1.19.81-1.2.8-1.2.79-1.2.79-1.21.78-1.21.77-1.22.77-1.22.76-1.22.75-1.23.75-1.23.74-1.24.73-1.24.73-1.24.72-1.25.72-1.25.7-1.26.7-1.26.7-1.26.68-1.27.68-1.27.68-1.28.66-1.27.66-1.29.66-1.29.64-1.29.64-1.29.64-1.3.62-1.31.62-1.3.62-1.32.6-1.31" style="stroke-width:1.07;stroke:#000000;stroke-opacity:0.10;stroke-linecap:butt"/><path d="m162.35 417.47 1.17-.98 1.16-.99 1.16-.98 1.16-.99 1.14-.99 1.15-1 1.14-1 1.13-1 1.13-1 1.13-1.01 1.12-1 1.12-1.02 1.11-1.01 1.1-1.02 1.1-1.02 1.1-1.02 1.09-1.03 1.09-1.03 1.08-1.03 1.08-1.03 1.07-1.04 1.07-1.04 1.06-1.04 1.06-1.05 1.06-1.05 1.04-1.05 1.05-1.05 1.04-1.06 1.03-1.06 1.03-1.06 1.03-1.07 1.02-1.07 1.01-1.07 1.01-1.08 1.01-1.07 1-1.08 1-1.09.99-1.08.99-1.09.98-1.09.98-1.1.97-1.09.97-1.1.96-1.11.96-1.1.95-1.11.95-1.11.94-1.12.94-1.12.94-1.12.93-1.12.92-1.12.92-1.13.91-1.13.92-1.14.9-1.14.9-1.14.9-1.14.89-1.14.89-1.15.88-1.15.87-1.16.88-1.16.86-1.16.87-1.16.85-1.16.86-1.17.85-1.17.84-1.18.84-1.18.83-1.18.83-1.18.83-1.18.81-1.19.82-1.19.81-1.2.81-1.2.8-1.2.79-1.2.79-1.2.79-1.21.78-1.21.78-1.22.77-1.21.77-1.22.76-1.23.76-1.22.75-1.23.75-1.23.74-1.24.74-1.23.73-1.24.73-1.25.72-1.24.72-1.25.72-1.25.71-1.26.7-1.25.7-1.26" style="stroke-width:1.07;stroke:#000000;stroke-opacity:0.10;stroke-linecap:butt"/><path d="m162.35 417.47 1.08-1.04 1.07-1.04 1.07-1.04 1.06-1.04 1.07-1.04 1.06-1.05 1.05-1.04 1.06-1.05 1.05-1.05 1.05-1.05 1.04-1.06 1.05-1.05 1.04-1.06 1.04-1.06 1.03-1.06 1.03-1.06 1.03-1.06 1.03-1.07 1.02-1.06 1.02-1.07 1.02-1.07 1.01-1.08 1.01-1.07 1.01-1.08 1.01-1.07 1-1.08 1-1.08 1-1.09.99-1.08.99-1.09.99-1.08.99-1.09.98-1.09.98-1.1.98-1.09.97-1.1.98-1.09.96-1.1.97-1.11.96-1.1.96-1.1.96-1.11.95-1.11.96-1.11.94-1.11.95-1.11.94-1.12.94-1.11.94-1.12.93-1.12.94-1.12.92-1.13.93-1.12.92-1.13.92-1.13.92-1.13.91-1.13.92-1.13.9-1.14.91-1.14.9-1.14.9-1.14.9-1.14.89-1.14.89-1.15.89-1.15.89-1.15.88-1.15.88-1.15.88-1.15.87-1.16.87-1.16.87-1.16.87-1.16.86-1.16.86-1.16.86-1.17.85-1.17.85-1.17.85-1.17.85-1.17.84-1.18.84-1.17.83-1.18.84-1.18.83-1.18.83-1.19.82-1.18.83-1.19.82-1.19.81-1.19.82-1.19.81-1.19.81-1.2.8-1.2.8-1.2.8-1.2.8-1.2.79-1.2" style="stroke-width:1.07;stroke:#000000;stroke-opacity:0.10;stroke-linecap:butt"/><path d="m162.35 417.47.98-1.09.98-1.1.98-1.09.98-1.09.98-1.1.97-1.09.98-1.1.97-1.1.98-1.09.97-1.1.97-1.1.97-1.1.97-1.1.97-1.09.97-1.1.96-1.11.97-1.1.96-1.1.97-1.1.96-1.1.96-1.11.96-1.1.96-1.11.96-1.1.96-1.11.96-1.1.95-1.11.96-1.11.95-1.11.96-1.11.95-1.1.95-1.11.95-1.11.95-1.12.95-1.11.95-1.11.94-1.11.95-1.12.94-1.11.95-1.11.94-1.12.94-1.11.94-1.12.94-1.12.94-1.11.94-1.12.94-1.12.93-1.12.94-1.12.93-1.12.94-1.12.93-1.12.93-1.12.93-1.13.93-1.12.93-1.12.93-1.13.92-1.12.93-1.13.92-1.12.93-1.13.92-1.12.92-1.13.92-1.13.92-1.13.92-1.13.92-1.13.92-1.13.91-1.13.92-1.13.91-1.13.92-1.14.91-1.13.91-1.13.91-1.14.91-1.13.91-1.14.91-1.13.9-1.14.91-1.14.9-1.13.91-1.14.9-1.14.9-1.14.9-1.14.9-1.14.9-1.14.9-1.15.9-1.14.89-1.14.9-1.14.89-1.15.89-1.14.9-1.15.89-1.14.89-1.15.89-1.15.89-1.14.88-1.15m-92.49 110.89.89-1.15.89-1.15.89-1.15.89-1.14.89-1.15.89-1.14.89-1.15.9-1.14.89-1.14.9-1.15.89-1.14.9-1.14.9-1.14.9-1.14.9-1.14.9-1.14.91-1.14.9-1.14.91-1.14.9-1.14.91-1.13.91-1.14.9-1.13.91-1.14.91-1.13.91-1.14.92-1.13.91-1.13.91-1.13.92-1.14.92-1.13.91-1.13.92-1.13.92-1.13.92-1.12.92-1.13.92-1.13.93-1.13.92-1.12.92-1.13.93-1.12.93-1.13.92-1.12.93-1.13.93-1.12.93-1.12.93-1.12.94-1.13.93-1.12.93-1.12.94-1.12.93-1.11.94-1.12.94-1.12.94-1.12.94-1.11.94-1.12.94-1.12.94-1.11.95-1.12.94-1.11.95-1.11.95-1.12.94-1.11.95-1.11.95-1.11.95-1.11.95-1.11.96-1.11.95-1.11.95-1.11.96-1.1.96-1.11.95-1.11.96-1.1.96-1.11.96-1.1.96-1.11.96-1.1.97-1.1.96-1.11.96-1.1.97-1.1.97-1.1.96-1.1.97-1.1.97-1.1.97-1.1.97-1.09.98-1.1.97-1.1.98-1.1.97-1.09.98-1.1.97-1.09.98-1.09.98-1.1.98-1.09.98-1.09" style="stroke-width:1.07;stroke:#000000;stroke-opacity:0.10;stroke-linecap:butt"/><path d="m162.35 417.47.79-1.21.8-1.2.8-1.2.8-1.2.81-1.2.81-1.19.81-1.19.81-1.2.82-1.19.82-1.18.82-1.19.83-1.19.82-1.18.83-1.18.84-1.18.84-1.18.84-1.18.84-1.17.84-1.17.85-1.18.85-1.17.86-1.16.85-1.17.86-1.16.87-1.17.86-1.16.87-1.16.87-1.16.87-1.15.88-1.16.88-1.15.88-1.15.89-1.15.89-1.15.89-1.14.89-1.15.9-1.14.9-1.14.9-1.14.91-1.13.91-1.14.91-1.13.91-1.14.92-1.13.92-1.13.92-1.12.93-1.13.93-1.12.93-1.12.93-1.12.94-1.12.94-1.12.94-1.11.95-1.12.95-1.11.95-1.11.95-1.11.96-1.1.96-1.11.96-1.1.97-1.1.97-1.1.97-1.1.97-1.09.98-1.1.98-1.09.98-1.09.99-1.09.99-1.09.99-1.09.99-1.08 1-1.08 1-1.08 1-1.08 1.01-1.08 1.01-1.07 1.01-1.08 1.02-1.07 1.01-1.07 1.02-1.07 1.03-1.07 1.02-1.06 1.03-1.07 1.03-1.06 1.04-1.06 1.04-1.06 1.04-1.05 1.04-1.06 1.04-1.05 1.05-1.05 1.06-1.05 1.05-1.05 1.06-1.05 1.06-1.04 1.06-1.05 1.07-1.04 1.07-1.04 1.07-1.04 1.07-1.03" style="stroke-width:1.07;stroke:#000000;stroke-opacity:0.10;stroke-linecap:butt"/><path d="m162.35 417.47.7-1.26.71-1.26.71-1.25.71-1.25.72-1.25.72-1.25.73-1.24.74-1.24.73-1.24.75-1.23.75-1.23.75-1.23.76-1.23.76-1.22.76-1.22.78-1.22.77-1.21.78-1.21.79-1.21.79-1.21.8-1.2.8-1.2.8-1.2.81-1.19.82-1.19.82-1.19.82-1.19.83-1.18.84-1.18.83-1.18.85-1.17.85-1.17.85-1.17.86-1.17.86-1.16.87-1.16.87-1.16.88-1.15.88-1.15.88-1.15.9-1.15.89-1.14.9-1.14.91-1.14.91-1.13.91-1.13.92-1.13.93-1.13.93-1.12.93-1.12.94-1.12.94-1.11.95-1.11.96-1.11.95-1.11.97-1.1.97-1.1.97-1.1.98-1.09.98-1.09.98-1.09 1-1.09.99-1.08 1-1.08 1.01-1.08 1.01-1.07 1.02-1.08 1.02-1.06 1.02-1.07 1.03-1.06 1.03-1.06 1.04-1.06 1.05-1.06 1.05-1.05 1.05-1.05 1.06-1.04 1.06-1.04 1.07-1.04 1.07-1.04 1.08-1.04 1.08-1.03 1.09-1.03 1.09-1.02 1.1-1.03 1.1-1.02 1.11-1.01 1.11-1.02 1.11-1.01 1.12-1.01 1.13-1.01 1.13-1 1.13-1 1.14-1 1.15-.99 1.15-.99 1.15-.99 1.16-.99 1.16-.98 1.17-.98" style="stroke-width:1.07;stroke:#000000;stroke-opacity:0.10;stroke-linecap:butt"/><path d="m162.35 417.47.61-1.32.61-1.31.62-1.31.63-1.3.63-1.3.64-1.3.65-1.29.65-1.29.66-1.28.67-1.28.67-1.28.68-1.27.69-1.27.69-1.26.7-1.26.71-1.25.71-1.26.72-1.24.73-1.25.73-1.24.74-1.23.75-1.24.75-1.22.76-1.23.77-1.22.77-1.21.79-1.21.78-1.21.8-1.21.8-1.2.8-1.19.82-1.19.82-1.19.83-1.19.83-1.18.84-1.17.85-1.17.85-1.17.86-1.17.87-1.16.87-1.15.88-1.15.89-1.15.9-1.15.9-1.14.9-1.13.92-1.13.92-1.13.93-1.13.93-1.12.94-1.11.95-1.11.95-1.11.97-1.11.96-1.1.98-1.09.98-1.1.99-1.08.99-1.09 1-1.08 1.01-1.07 1.01-1.08 1.03-1.06 1.02-1.07 1.04-1.06 1.04-1.06 1.05-1.05 1.05-1.05 1.06-1.04 1.07-1.04 1.08-1.04 1.08-1.03 1.09-1.03 1.09-1.02 1.1-1.02 1.11-1.02 1.11-1.01 1.13-1.01 1.12-1 1.14-1 1.14-1 1.15-.99 1.15-.99 1.17-.99 1.16-.98 1.18-.97 1.18-.97 1.19-.97 1.19-.97 1.21-.96 1.2-.95 1.22-.96 1.22-.95 1.23-.94 1.24-.94 1.24-.94 1.25-.93 1.25-.93 1.26-.92" style="stroke-width:1.07;stroke:#000000;stroke-opacity:0.10;stroke-linecap:butt"/><path d="m162.35 417.47.51-1.37.52-1.37.54-1.36.53-1.36.55-1.35.56-1.35.56-1.34.57-1.33.59-1.33.59-1.33.6-1.32.6-1.31.62-1.31.62-1.31.64-1.3.64-1.29.65-1.29.66-1.29.67-1.27.67-1.28.69-1.27.69-1.26.7-1.26.71-1.25.72-1.25.73-1.25.74-1.23.74-1.24.76-1.22.76-1.23.77-1.21.78-1.22.79-1.2.79-1.21.81-1.19.81-1.2.83-1.18.83-1.18.84-1.18.84-1.17.86-1.17.87-1.16.87-1.16.88-1.15.9-1.14.89-1.14.91-1.14.92-1.13.93-1.12.93-1.12.94-1.12.95-1.11.96-1.1.97-1.1.98-1.1.99-1.09.99-1.08 1-1.08 1.02-1.07 1.02-1.07 1.02-1.07 1.04-1.05 1.05-1.06 1.05-1.05 1.07-1.04 1.07-1.04 1.08-1.03 1.09-1.03 1.1-1.02 1.1-1.02 1.12-1.01 1.12-1.01 1.13-1 1.14-1 1.15-.99 1.16-.98 1.17-.99 1.17-.97 1.18-.97 1.2-.97 1.2-.96 1.21-.96 1.22-.95 1.22-.94 1.24-.94 1.24-.94 1.25-.93 1.26-.92 1.27-.92 1.28-.92 1.29-.91 1.29-.9 1.31-.9 1.31-.9 1.32-.89 1.33-.88 1.34-.88 1.35-.87 1.35-.87" style="stroke-width:1.07;stroke:#000000;stroke-opacity:0.10;stroke-linecap:butt"/><path d="m162.35 417.47.42-1.43.43-1.42.44-1.42.45-1.4.46-1.41.47-1.39.49-1.39.49-1.39.5-1.37.52-1.37.52-1.37.54-1.36.54-1.35.56-1.35.56-1.34.58-1.33.59-1.33.6-1.32.6-1.31.62-1.31.63-1.3.64-1.3.65-1.29.66-1.28.68-1.28.68-1.27.69-1.26.7-1.26.72-1.25.72-1.25.74-1.24.74-1.23.76-1.23.76-1.22.78-1.21.79-1.21.79-1.2.81-1.2.82-1.18.83-1.19.84-1.17.85-1.17.86-1.17.87-1.16.88-1.15.9-1.14.9-1.14.91-1.13.93-1.13.93-1.12.94-1.11.96-1.11.97-1.1.97-1.1.99-1.09 1-1.08 1-1.08 1.02-1.07 1.03-1.06 1.04-1.06 1.05-1.05 1.06-1.04 1.07-1.04 1.08-1.03 1.09-1.03 1.11-1.02 1.11-1.01 1.12-1.01 1.14-1 1.14-1 1.16-.98 1.16-.99 1.18-.97 1.18-.97 1.2-.96 1.21-.96 1.22-.95 1.23-.95 1.23-.94 1.25-.93 1.26-.92 1.28-.92 1.28-.92 1.29-.9 1.3-.9 1.31-.9 1.33-.88 1.33-.89 1.34-.87 1.36-.87 1.36-.86 1.38-.86 1.39-.85 1.39-.85 1.41-.83 1.42-.83 1.42-.83 1.44-.82 1.45-.81" style="stroke-width:1.07;stroke:#000000;stroke-opacity:0.10;stroke-linecap:butt"/><path d="m162.35 417.47.33-1.49.33-1.47.35-1.47.37-1.46.37-1.46.39-1.44.4-1.44.41-1.43.43-1.43.44-1.41.45-1.41.46-1.4.47-1.4.49-1.38.5-1.38.51-1.38.53-1.36.53-1.36.55-1.35.56-1.34.58-1.34.58-1.32.6-1.32.61-1.32.63-1.3.63-1.3.65-1.29.66-1.28.68-1.28.68-1.27.7-1.26.71-1.25.73-1.25.73-1.24.75-1.23.76-1.22.77-1.22.79-1.21.8-1.2.81-1.19.82-1.19.83-1.18.85-1.17.86-1.17.87-1.15.89-1.15.89-1.15.91-1.13.92-1.13.94-1.12.95-1.11.95-1.11.98-1.09.98-1.09 1-1.09 1.01-1.07 1.02-1.07 1.03-1.06 1.05-1.05 1.05-1.05 1.08-1.04 1.08-1.03 1.09-1.02 1.11-1.02 1.12-1.01 1.14-1 1.14-1 1.16-.98 1.17-.98 1.18-.97 1.2-.97 1.21-.95 1.21-.95 1.24-.95 1.24-.93 1.26-.93 1.27-.92 1.28-.91 1.3-.91 1.3-.89 1.32-.89 1.33-.89 1.35-.87 1.35-.87 1.37-.86 1.38-.85 1.4-.85 1.4-.84 1.42-.83 1.43-.82 1.45-.82 1.45-.81 1.47-.8 1.48-.79 1.5-.79 1.5-.78 1.52-.77 1.53-.77 1.54-.75" style="stroke-width:1.07;stroke:#000000;stroke-opacity:0.10;stroke-linecap:butt"/><path d="m396.72 418.21 1.91 3.32h-3.83zm10.94-207.01 3.91 6.77h-7.82zm-173.84-78.63 7.55 13.07h-15.1zM95.21 266.51l1.92 3.31H93.3zM55.97 377.16l1.91 3.31h-3.83z" style="stroke-width:0.71;stroke:none;fill:#00BA38"/><path d="M159.45 420.37h5.8v-5.8h-5.8z" style="stroke-width:0.71;stroke:none;fill:#619CFF"/><circle cx="254.84" cy="306.58" r="6.76" style="stroke-width:0.71;stroke:none;fill:#F8766D"/><path d="M521.35 525.65h2.84v-2.85h-2.84z" style="stroke-width:0.71;stroke:none;fill:#619CFF"/><path d="m391.58 425.05 4.28-3.85m16.91-210.08-4.25 3.82M228.69 145.9l4.27-3.84M90.04 273.37l4.32-3.88m73.26 143.44-4.39 3.78m96.88-114.67-4.39 3.78" style="stroke-width:0.53;stroke:#BFBFBF"/><path d="M352.66 436.39h63.11-.09l.35-.01.34-.07.32-.12.3-.18.27-.22.23-.26.19-.29.13-.32.09-.34.03-.35h0v-7.02h0l-.03-.35-.09-.34-.13-.32-.19-.29-.23-.26-.27-.22-.3-.18-.32-.12-.34-.07-.26-.01h-63.11l.26.01-.35-.01-.34.04-.34.1-.31.15-.29.19-.25.24-.21.28-.16.31-.11.33-.06.34v7.2-.17.35l.06.34.11.33.16.31.21.28.25.24.29.19.31.15.34.1.34.04z" style="stroke-width:0.53;fill:#FFFFFF;fill-opacity:0.50"/><text x="384.21" y="432.79" lengthAdjust="spacingAndGlyphs" style="font-size:5.69px;font-family:&quot;Liberation Sans&quot;" text-anchor="middle" textLength="60.23">3324/6 DOWNER LLC</text><path d="M385.52 211.12h69.31-.09l.35-.01.34-.07.33-.13.3-.17.27-.22.23-.26.18-.29.14-.32.08-.34.03-.35h0v-7.02h0l-.03-.35-.08-.34-.14-.32-.18-.29-.23-.26-.27-.22-.3-.18-.33-.12-.34-.07-.26-.01h-69.31l.26.01-.35-.01-.35.04-.33.1-.31.14-.29.2-.25.24-.21.28-.16.31-.11.33-.06.34v7.2-.17.35l.06.34.11.33.16.31.21.27.25.25.29.19.31.15.33.1.35.04z" style="stroke-width:0.53;fill:#FFFFFF;fill-opacity:0.50"/><text x="420.17" y="207.52" lengthAdjust="spacingAndGlyphs" style="font-size:5.69px;font-family:&quot;Liberation Sans&quot;" text-anchor="middle" textLength="66.43">COLLEEN M MCGUIGAN</text><path d="M188.88 157.25h64.87l-.09-.01.35-.01.34-.07.33-.12.3-.18.27-.22.23-.26.18-.29.14-.32.08-.34.03-.34h0v-7.03h0l-.03-.35-.08-.34-.14-.32-.18-.29-.23-.26-.27-.22-.3-.17-.33-.13-.34-.07-.26-.01h-64.87l.26.01-.35-.01-.34.04-.34.1-.31.15-.29.2-.25.24-.21.27-.16.31-.11.33-.06.34v7.21-.18.35l.06.34.11.33.16.31.21.28.25.24.29.2.31.15.34.09.34.04z" style="stroke-width:0.53;fill:#FFFFFF;fill-opacity:0.50"/><text x="221.31" y="153.65" lengthAdjust="spacingAndGlyphs" style="font-size:5.69px;font-family:&quot;Liberation Sans&quot;" text-anchor="middle" textLength="61.99">MCG PROPERTIES LLC</text><path d="M49.25 284.72h66.73-.08l.34-.02.35-.07.32-.12.3-.17.27-.22.23-.26.19-.3.13-.32.09-.33.02-.35h0v-7.03h0l-.02-.34-.09-.34-.13-.32-.19-.3-.23-.26-.27-.22-.3-.17-.32-.12-.35-.07-.26-.02H49.25l.26.02-.34-.02-.35.05-.33.09-.32.15-.28.2-.25.24-.21.28-.16.31-.11.33-.06.34-.01.17v7.03l.01-.17v.34l.06.35.11.33.16.3.21.28.25.24.28.2.32.15.33.1.35.04z" style="stroke-width:0.53;fill:#FFFFFF;fill-opacity:0.50"/><text x="82.62" y="281.12" lengthAdjust="spacingAndGlyphs" style="font-size:5.69px;font-family:&quot;Liberation Sans&quot;" text-anchor="middle" textLength="63.85">2951/53 DOWNER LLC</text><path d="M62.71 385.02h56.24-.09l.35-.01.34-.07.32-.13.3-.17.27-.22.23-.26.19-.29.13-.32.09-.34.03-.35h0v-7.03h0l-.03-.34-.09-.34-.13-.32-.19-.29-.23-.26-.27-.22-.3-.18-.32-.12-.34-.07-.26-.02H62.71l.26.02-.34-.01-.35.04-.33.09-.32.15-.28.2-.25.24-.21.28-.16.31-.11.33-.06.34-.01.17v7.03l.01-.17v.35l.06.34.11.33.16.31.21.27.25.24.28.2.32.15.33.1.35.04z" style="stroke-width:0.53;fill:#FFFFFF;fill-opacity:0.50"/><text x="90.83" y="381.42" lengthAdjust="spacingAndGlyphs" style="font-size:5.69px;font-family:&quot;Liberation Sans&quot;" text-anchor="middle" textLength="53.35">BARTLETT AVE LLC</text><path d="M146.18 412.93h67.22-.09l.35-.01.34-.07.33-.13.3-.17.27-.22.23-.26.18-.29.14-.32.08-.34.03-.35h0v-15.22h0l-.03-.35-.08-.33-.14-.32-.18-.3-.23-.26-.27-.22-.3-.17-.33-.12-.34-.07-.26-.02h-67.22l.26.02-.34-.02-.35.05-.33.09-.32.15-.28.2-.25.24-.21.28-.16.3-.11.33-.06.35-.01.17v15.22l.01-.17v.35l.06.34.11.33.16.31.21.28.25.24.28.19.32.15.33.1.35.04z" style="stroke-width:0.53;fill:#FFFFFF;fill-opacity:0.50"/><text x="179.79" y="401.14" lengthAdjust="spacingAndGlyphs" style="font-size:5.69px;font-family:&quot;Liberation Sans&quot;" text-anchor="middle" textLength="42.1">8152 N IVY ST,</text><text x="179.79" y="409.33" lengthAdjust="spacingAndGlyphs" style="font-size:5.69px;font-family:&quot;Liberation Sans&quot;" text-anchor="middle" textLength="64.34">MILWAUKEE, WI 53223</text><path d="M238.72 302.04h67.22-.09l.35-.01.34-.07.32-.13.3-.17.27-.22.23-.26.19-.29.13-.32.09-.34.03-.35h0v-15.22h0l-.03-.35-.09-.33-.13-.32-.19-.3-.23-.26-.27-.22-.3-.17-.32-.12-.34-.07-.26-.02h-67.22l.26.02-.35-.02-.35.04-.33.1-.31.15-.29.2-.25.24-.21.28-.16.3-.11.33-.06.35v15.39-.17.35l.06.34.11.33.16.31.21.27.25.25.29.19.31.15.33.1.35.04z" style="stroke-width:0.53;fill:#FFFFFF;fill-opacity:0.50"/><text x="272.33" y="290.25" lengthAdjust="spacingAndGlyphs" style="font-size:5.69px;font-family:&quot;Liberation Sans&quot;" text-anchor="middle" textLength="42.1">8152 N IVY ST,</text><text x="272.33" y="298.44" lengthAdjust="spacingAndGlyphs" style="font-size:5.69px;font-family:&quot;Liberation Sans&quot;" text-anchor="middle" textLength="64.34">MILWAUKEE, WI 53223</text><path d="M448.85 534h67.22-.09l.35-.02.34-.07.33-.12.3-.17.27-.22.23-.26.18-.3.14-.32.08-.34.03-.34h0v-15.22h0l-.03-.35-.08-.34-.14-.32-.18-.29-.23-.26-.27-.22-.3-.17-.33-.13-.34-.07-.26-.01h-67.22l.26.01-.34-.01-.35.04-.33.1-.32.15-.28.19-.25.24-.21.28-.16.31-.12.33-.05.34-.01.18v15.22l.01-.18v.35l.05.35.12.32.16.31.21.28.25.24.28.2.32.15.33.09.35.05z" style="stroke-width:0.53;fill:#FFFFFF;fill-opacity:0.50"/><text x="482.46" y="522.2" lengthAdjust="spacingAndGlyphs" style="font-size:5.69px;font-family:&quot;Liberation Sans&quot;" text-anchor="middle" textLength="36.04">8152 IVY ST,</text><text x="482.46" y="530.4" lengthAdjust="spacingAndGlyphs" style="font-size:5.69px;font-family:&quot;Liberation Sans&quot;" text-anchor="middle" textLength="64.34">MILWAUKEE, WI 53223</text></g><g clip-path="url(#cpMC4wMHw1NzYuMDB8MC4wMHw1NzYuMDA=)"><circle cx="194.25" cy="97.06" r="1.95" style="stroke-width:0.71;stroke:none;fill:#F8766D"/><path d="m270.6 94.02 2.63 4.56h-5.27z" style="stroke-width:0.71;stroke:none;fill:#00BA38"/><path d="M336.57 99.01h3.91V95.1h-3.91z" style="stroke-width:0.71;stroke:none;fill:#619CFF"/><text x="208.37" y="100.22" lengthAdjust="spacingAndGlyphs" style="font-size:8.80px;font-weight:0;font-family:&quot;Nimbus Sans Narrow&quot;" textLength="48.11">mprop address</text><text x="284.72" y="100.22" lengthAdjust="spacingAndGlyphs" style="font-size:8.80px;font-weight:0;font-family:&quot;Nimbus Sans Narrow&quot;" textLength="39.69">owner name</text><text x="352.64" y="100.22" lengthAdjust="spacingAndGlyphs" style="font-size:8.80px;font-weight:0;font-family:&quot;Nimbus Sans Narrow&quot;" textLength="40.49">wdfi address</text><text x="32.63" y="65.35" lengthAdjust="spacingAndGlyphs" style="font-size:12.00px;font-weight:0;font-family:&quot;Nimbus Sans Narrow&quot;" textLength="252.12">includes 14 parcels, 29 units, and 5 distinct owner names.</text><text x="32.63" y="42.81" lengthAdjust="spacingAndGlyphs" style="font-size:18.00px;font-weight:0;font-family:&quot;Nimbus Sans Narrow&quot;" textLength="240.35">MCG PROPERTIES LLC etc Group</text></g></svg>