<svg xmlns="http://www.w3.org/2000/svg" width="384" height="480" class="svglite" viewBox="0 0 288 360"><defs><style><![CDATA[.svglite line,.svglite polyline,.svglite polygon,.svglite path,.svglite circle{fill:none;stroke:#000000;stroke-linecap:round;stroke-linejoin:round;stroke-miterlimit:10.00}.svglite text{white-space:pre}]]></style></defs><rect width="100%" height="100%" style="stroke-linecap:round;stroke-linejoin:round;stroke-miterlimit:10.00;stroke:none;fill:#FFFFFF"/><defs><clipPath id="cpMC4wMHwyODguMDB8MC4wMHwzNjAuMDA="><path d="M0 0h288v360H0z"/></clipPath></defs><g clip-path="url(#cpMC4wMHwyODguMDB8MC4wMHwzNjAuMDA=)"><path d="M0 0h288v360H0z" style="stroke-width:1.07;stroke:none;fill:#FFFFFF"/></g><defs><clipPath id="cpMzIuNjN8MjU4LjExfDE0MC4zMHwzMjcuMzc="><path d="M32.63 140.3h225.48v187.07H32.63z"/></clipPath></defs><g clip-path="url(#cpMzIuNjN8MjU4LjExfDE0MC4zMHwzMjcuMzc=)"><path d="m247.86 148.81-.69.57-.69.57-.69.57-.69.58-.69.57-.69.57-.69.57-.69.58-.69.57-.69.57-.69.57-.69.58-.69.57-.69.57-.69.57-.69.58-.69.57-.69.57-.69.58-.69.57-.69.57-.69.57-.69.58-.69.57-.69.57-.69.57-.69.58-.69.57-.69.57-.69.57-.69.58-.69.57-.69.57-.69.57-.69.58-.69.57-.69.57-.69.57-.69.58-.69.57-.69.57-.7.58-.69.57-.69.57-.69.57-.69.58-.69.57-.69.57-.69.57-.69.58-.69.57-.69.57-.69.57-.69.58-.69.57-.69.57-.69.57-.69.58-.69.57-.69.57-.69.57-.69.58-.69.57-.69.57-.69.58-.69.57-.69.57-.69.57-.69.58-.69.57-.69.57-.69.57-.69.58-.69.57-.69.57-.69.57-.69.58-.69.57-.69.57-.69.57-.69.58-.69.57-.69.57-.69.57-.69.58-.69.57-.69.57-.69.58-.69.57-.69.57-.69.57-.69.58-.69.57-.69.57-.7.57-.69.58-.69.57-.69.57-.69.57m-68.32 56.69-.69.57-.69.58-.69.57-.7.57-.69.58-.69.57-.69.57-.69.57-.69.58-.69.57-.69.57-.69.57-.69.58-.69.57-.69.57-.69.57-.69.58-.69.57-.69.57-.69.57-.69.58-.69.57-.69.57-.69.57-.69.58-.69.57-.69.57-.69.57-.69.58-.69.57-.69.57-.69.58-.69.57-.69.57-.69.57-.69.58-.69.57-.69.57-.69.57-.69.58-.69.57-.69.57-.69.57-.69.58-.69.57-.69.57-.69.57-.69.58-.69.57-.69.57-.69.57-.69.58-.69.57-.69.57-.69.57-.69.58-.7.57-.69.57-.69.58-.69.57-.69.57-.69.57-.69.58-.69.57-.69.57-.69.57-.69.58-.69.57-.69.57-.69.57-.69.58-.69.57-.69.57-.69.57-.69.58-.69.57-.69.57-.69.57-.69.58-.69.57-.69.57-.69.58-.69.57-.69.57-.69.57-.69.58-.69.57-.69.57-.69.57-.69.58-.69.57-.69.57-.69.57-.69.58-.69.57-.69.57-.69.57-.69.58-.69.57m68.33-56.69.69-.57.69-.57.69-.58.69-.57.69-.57.69-.57.69-.58.69-.57.69-.57.69-.57.69-.58.69-.57.69-.57.69-.57.69-.58.69-.57.69-.57.69-.57.69-.58.69-.57.69-.57.69-.58.69-.57.69-.57.69-.57.69-.58.69-.57.69-.57.69-.57.69-.58.69-.57.69-.57.69-.57.69-.58.69-.57.69-.57.69-.57.69-.58.69-.57.69-.57.69-.57.69-.58.69-.57.69-.57.69-.58.69-.57.69-.57.69-.57.69-.58.69-.57.7-.57.69-.57.69-.58.69-.57.69-.57.69-.57.69-.58.69-.57.69-.57.69-.57.69-.58.69-.57.69-.57.69-.57.69-.58.69-.57.69-.57.69-.58.69-.57.69-.57.69-.57.69-.58.69-.57.69-.57.69-.57.69-.58.69-.57.69-.57.69-.57.69-.58.69-.57.69-.57.69-.57.69-.58.69-.57.69-.57.69-.57.69-.58.69-.57.69-.57.69-.58.69-.57.69-.57.69-.57.69-.58.69-.57.69-.57.69-.57.69-.58" style="stroke-width:1.07;stroke:#000000;stroke-opacity:0.10;stroke-linecap:butt"/><path d="m247.86 146.6 1.92 3.31h-3.83zM111.21 251.68l9.09 15.76h-18.19z" style="stroke-width:0.71;stroke:none;fill:#00BFC4"/><circle cx="179.53" cy="205.49" r="6.76" style="stroke-width:0.71;stroke:none;fill:#F8766D"/><circle cx="42.88" cy="318.87" r="1.42" style="stroke-width:0.71;stroke:none;fill:#F8766D"/><path d="m242.61 153.43 4.38-3.86M116.31 257.54l-4.25 3.87m62.16-51.28 4.44-3.87M48.29 314.25l-4.53 3.87" style="stroke-width:0.53;stroke:#BFBFBF"/><path d="M211.6 164.78h40.75l-.08-.01.34-.01.34-.07.33-.12.3-.18.27-.22.23-.26.18-.29.14-.32.08-.34.03-.34h0v-7.03h0l-.03-.35-.08-.34-.14-.32-.18-.29-.23-.26-.27-.22-.3-.17-.33-.13-.34-.07-.26-.01H211.6l.26.01-.35-.01-.34.04-.34.1-.31.15-.29.19-.25.25-.21.27-.16.31-.11.33-.05.34-.01.18v7.03l.01-.18v.35l.05.34.11.33.16.31.21.28.25.24.29.2.31.14.34.1.34.04z" style="stroke-width:0.53;fill:#FFFFFF;fill-opacity:0.50"/><text x="231.98" y="161.18" lengthAdjust="spacingAndGlyphs" style="font-size:5.69px;font-family:&quot;Liberation Sans&quot;" text-anchor="middle" textLength="37.87">WANENG LEE</text><path d="M101.38 257.54h44.53l-.09-.01.35-.01.34-.07.33-.12.3-.18.27-.22.23-.26.18-.29.14-.32.08-.34.03-.34h0v-7.03h0l-.03-.35-.08-.33-.14-.32-.18-.3-.23-.26-.27-.22-.3-.17-.33-.13-.34-.07-.26-.01h-44.53l.26.01-.35-.01-.34.04-.34.1-.31.15-.29.2-.25.24-.21.27-.16.31-.11.33-.06.35v7.2-.18.35l.06.34.11.33.16.31.21.28.25.24.29.2.31.15.34.09.34.04z" style="stroke-width:0.53;fill:#FFFFFF;fill-opacity:0.50"/><text x="123.64" y="253.94" lengthAdjust="spacingAndGlyphs" style="font-size:5.69px;font-family:&quot;Liberation Sans&quot;" text-anchor="middle" textLength="41.65">MEE YANG LEE</text><path d="M126.24 229.67h71.85-.09l.35-.02.34-.07.33-.12.3-.17.27-.22.23-.26.18-.3.14-.32.08-.34.03-.34h0v-15.22h0l-.03-.35-.08-.34-.14-.32-.18-.29-.23-.26-.27-.22-.3-.18-.33-.12-.34-.07-.26-.01h-71.85l.26.01-.35-.01-.34.04-.33.1-.32.15-.29.19-.25.24-.2.28-.17.31-.11.33-.05.34-.01.18v15.22l.01-.18v.35l.05.34.11.33.17.31.2.28.25.24.29.2.32.15.33.09.34.05z" style="stroke-width:0.53;fill:#FFFFFF;fill-opacity:0.50"/><text x="162.17" y="217.87" lengthAdjust="spacingAndGlyphs" style="font-size:5.69px;font-family:&quot;Liberation Sans&quot;" text-anchor="middle" textLength="68.97">3142 RUNWAY AVE, EAU</text><text x="162.17" y="226.07" lengthAdjust="spacingAndGlyphs" style="font-size:5.69px;font-family:&quot;Liberation Sans&quot;" text-anchor="middle" textLength="51.21">CLAIRE, WI 54703</text><path d="M38.4 314.25h55.86-.09l.35-.02.34-.07.32-.12.3-.17.27-.22.23-.26.19-.3.13-.32.09-.33.03-.35h0v-15.22h0l-.03-.35-.09-.34-.13-.32-.19-.29-.23-.26-.27-.22-.3-.17-.32-.13-.34-.07-.26-.01H38.4l.26.01-.35-.01-.34.04-.34.1-.31.15-.29.2-.25.24-.21.27-.16.31-.11.33-.05.34-.01.18v15.22l.01-.17v.34l.05.35.11.33.16.3.21.28.25.24.29.2.31.15.34.1.34.04z" style="stroke-width:0.53;fill:#FFFFFF;fill-opacity:0.50"/><text x="66.33" y="302.46" lengthAdjust="spacingAndGlyphs" style="font-size:5.69px;font-family:&quot;Liberation Sans&quot;" text-anchor="middle" textLength="49.87">N9826 550TH ST,</text><text x="66.33" y="310.65" lengthAdjust="spacingAndGlyphs" style="font-size:5.69px;font-family:&quot;Liberation Sans&quot;" text-anchor="middle" textLength="52.98">COLFAX, WI 54730</text></g><g clip-path="url(#cpMC4wMHwyODguMDB8MC4wMHwzNjAuMDA=)"><circle cx="84.61" cy="115.22" r="1.95" style="stroke-width:0.71;stroke:none;fill:#F8766D"/><path d="m160.96 112.18 2.63 4.56h-5.26z" style="stroke-width:0.71;stroke:none;fill:#00BFC4"/><text x="98.72" y="118.25" lengthAdjust="spacingAndGlyphs" style="font-size:8.80px;font-family:&quot;Liberation Sans Narrow&quot;" textLength="48.12">mprop address</text><text x="175.08" y="118.25" lengthAdjust="spacingAndGlyphs" style="font-size:8.80px;font-family:&quot;Liberation Sans Narrow&quot;" textLength="39.69">owner name</text><text x="32.63" y="83.67" lengthAdjust="spacingAndGlyphs" style="font-size:12.00px;font-family:&quot;Liberation Sans Narrow&quot;" textLength="241.29">includes 3 parcels, 3 units, and 2 distinct owner names.</text><text x="32.63" y="42.27" lengthAdjust="spacingAndGlyphs" style="font-size:18.00px;font-weight:bold;font-family:&quot;Liberation Sans Narrow&quot;" textLength="227.17">MEE YANG LEE -- WANENG LEE</text><text x="32.63" y="61.71" lengthAdjust="spacingAndGlyphs" style="font-size:18.00px;font-weight:bold;font-family:&quot;Liberation Sans Narrow&quot;" textLength="44.27">Group</text></g></svg>