<svg xmlns="http://www.w3.org/2000/svg" width="768" height="768" class="svglite" viewBox="0 0 576 576"><defs><style><![CDATA[.svglite line,.svglite polyline,.svglite polygon,.svglite path,.svglite circle{fill:none;stroke:#000000;stroke-linecap:round;stroke-linejoin:round;stroke-miterlimit:10.00}.svglite text{white-space:pre}]]></style></defs><rect width="100%" height="100%" style="stroke-linecap:round;stroke-linejoin:round;stroke-miterlimit:10.00;stroke:none;fill:#FFFFFF"/><defs><clipPath id="cpMC4wMHw1NzYuMDB8MC4wMHw1NzYuMDA="><path d="M0 0h576v576H0z"/></clipPath></defs><g clip-path="url(#cpMC4wMHw1NzYuMDB8MC4wMHw1NzYuMDA=)"><path d="M0 0h576v576H0z" style="stroke-width:1.07;stroke:none;fill:#FFFFFF"/></g><defs><clipPath id="cpMzIuNjN8NTQ2LjExfDEyMi4xNHw1NDMuMzc="><path d="M32.63 122.14h513.48v421.24H32.63z"/></clipPath></defs><g clip-path="url(#cpMzIuNjN8NTQ2LjExfDEyMi4xNHw1NDMuMzc=)"><path d="m308.49 263.23.76-.71.74-.72.73-.71.73-.72.71-.72.69-.71.69-.72.68-.72.66-.71.66-.72.64-.72.63-.72.62-.72.61-.72.6-.71.58-.72.58-.72.56-.72.55-.73.54-.72.53-.72.52-.72.51-.72.49-.72.48-.73.48-.72.46-.72.45-.73.44-.72.42-.72.42-.73.4-.72.4-.73.38-.73.37-.72.36-.73.35-.72.34-.73.32-.73.32-.73.3-.72.29-.73.28-.73.27-.73.26-.73.24-.73.24-.73.22-.73.21-.73.21-.73.18-.73.18-.73.17-.74.16-.73.14-.73.13-.73.13-.74.11-.73.1-.73.08-.74.08-.73.06-.74.06-.73.04-.74.03-.74.02-.73.01-.74v-.74l-.02-.73-.02-.74-.04-.74-.04-.74-.06-.73-.07-.74-.09-.74-.09-.74-.1-.74-.12-.74-.13-.74-.14-.74-.14-.75-.17-.74-.17-.74-.18-.74-.2-.74-.2-.75-.22-.74-.23-.74-.24-.75-.25-.74-.26-.75-.28-.74-.28-.75-.3-.74-.31-.75-.32-.74-.33-.75-.34-.75-.35-.74" style="stroke-width:1.07;stroke:#000000;stroke-opacity:0.10;stroke-linecap:butt"/><path d="m308.49 263.23-.35-.75-.34-.74-.33-.75-.32-.75-.31-.74-.3-.75-.28-.74-.28-.75-.26-.74-.25-.75-.24-.74-.23-.74-.22-.75-.21-.74-.19-.74-.18-.74-.18-.75-.16-.74-.15-.74-.14-.74-.12-.74-.12-.74-.1-.74-.1-.74-.08-.74-.07-.74-.06-.74-.05-.74-.03-.73-.03-.74-.01-.74v-1.47l.02-.74.04-.73.04-.74.05-.73.07-.74.07-.73.09-.74.1-.73.11-.74.12-.73.14-.73.14-.73.16-.74.16-.73.18-.73.19-.73.2-.73.22-.73.22-.73.23-.73.25-.73.26-.73.27-.73.28-.73.29-.73.3-.73.32-.72.32-.73.34-.73.35-.73.36-.72.37-.73.38-.72.39-.73.41-.72.41-.73.43-.72.44-.73.45-.72.46-.72.47-.73.49-.72.49-.72.51-.72.52-.73.53-.72.54-.72.55-.72.56-.72.57-.72.59-.72.6-.72.61-.72.62-.72.63-.71.64-.72.65-.72.67-.72.67-.71.69-.72.7-.72.71-.71.72-.72.74-.71.74-.72.76-.71m-19.91 72.36-.19.7-.19.71-.2.7-.19.7-.19.7-.2.7-.19.71-.19.7-.2.7-.19.7-.19.71-.2.7-.19.7-.19.7-.2.7-.19.71-.19.7-.2.7-.19.7-.19.71-.19.7-.2.7-.19.7-.19.71-.2.7-.19.7-.19.7-.2.7-.19.71-.19.7-.2.7-.19.7-.19.71-.2.7-.19.7-.19.7-.19.7-.2.71-.19.7-.19.7-.2.7-.19.71-.19.7-.2.7-.19.7-.19.71-.2.7-.19.7-.19.7-.2.7-.19.71-.19.7-.2.7-.19.7-.19.71-.19.7-.2.7-.19.7-.19.7-.2.71-.19.7-.19.7-.2.7-.19.71-.19.7-.2.7-.19.7-.19.7-.2.71-.19.7-.19.7-.2.7-.19.71-.19.7-.19.7-.2.7-.19.71-.19.7-.2.7-.19.7-.19.7-.2.71-.19.7-.19.7-.2.7-.19.71-.19.7-.2.7-.19.7-.19.7-.19.71-.2.7-.19.7-.19.7-.2.71-.19.7-.19.7-.2.7-.19.7m131.01 191.48-1.72-.51-1.71-.5-1.72-.5-1.72-.5-1.72-.5-1.71-.5-1.72-.5-1.72-.5-1.72-.5-1.71-.5-1.72-.5-1.72-.5-1.72-.51-1.71-.5-1.72-.5-1.72-.5-1.72-.5-1.71-.5-1.72-.5-1.72-.5-1.72-.5-1.71-.5-1.72-.5-1.72-.5-1.72-.51-1.71-.5-1.72-.5-1.72-.5-1.72-.5-1.71-.5-1.72-.5-1.72-.5-1.72-.5-1.71-.5-1.72-.5-1.72-.5-1.72-.51-1.71-.5-1.72-.5-1.72-.5-1.72-.5-1.71-.5-1.72-.5-1.72-.5-1.72-.5-1.72-.5-1.71-.5-1.72-.5-1.72-.51-1.72-.5-1.71-.5-1.72-.5-1.72-.5-1.72-.5-1.71-.5-1.72-.5-1.72-.5-1.72-.5-1.71-.5-1.72-.5-1.72-.5-1.72-.51-1.71-.5-1.72-.5-1.72-.5-1.72-.5-1.71-.5-1.72-.5-1.72-.5-1.72-.5-1.71-.5-1.72-.5-1.72-.5-1.72-.51-1.71-.5-1.72-.5-1.72-.5-1.72-.5-1.71-.5-1.72-.5-1.72-.5-1.72-.5-1.71-.5-1.72-.5-1.72-.5-1.72-.51-1.71-.5-1.72-.5-1.72-.5-1.72-.5-1.71-.5-1.72-.5-1.72-.5-1.72-.5-1.72-.5-1.71-.5-1.72-.5-1.72-.51-1.72-.5m272.43-322.69-1.96.4-1.96.39-1.97.39-1.96.4-1.97.39-1.96.39-1.96.39-1.97.4-1.96.39-1.96.39-1.97.4-1.96.39-1.96.39-1.97.4-1.96.39-1.96.39-1.97.4-1.96.39-1.96.39-1.97.39-1.96.4-1.96.39-1.97.39-1.96.4-1.96.39-1.97.39-1.96.4-1.96.39-1.97.39-1.96.39-1.96.4-1.97.39-1.96.39-1.96.4-1.97.39-1.96.39-1.96.4-1.97.39-1.96.39-1.96.4-1.97.39-1.96.39-1.96.39-1.97.4-1.96.39-1.96.39-1.97.4-1.96.39-1.96.39-1.97.4-1.96.39-1.97.39-1.96.4-1.96.39-1.97.39-1.96.39-1.96.4-1.97.39-1.96.39-1.96.4-1.97.39-1.96.39-1.96.4-1.97.39-1.96.39-1.96.39-1.97.4-1.96.39-1.96.39-1.97.4-1.96.39-1.96.39-1.97.4-1.96.39-1.96.39-1.97.4-1.96.39-1.96.39-1.97.39-1.96.4-1.96.39-1.97.39-1.96.4-1.96.39-1.97.39-1.96.4-1.96.39-1.97.39-1.96.4-1.96.39-1.97.39-1.96.39-1.96.4-1.97.39-1.96.39-1.96.4-1.97.39-1.96.39-1.96.4m-170.04-49.59 1.72.51 1.71.5 1.72.5 1.72.5 1.72.5 1.71.5 1.72.5 1.72.5 1.72.5 1.71.5 1.72.5 1.72.5 1.72.5 1.71.51 1.72.5 1.72.5 1.72.5 1.71.5 1.72.5 1.72.5 1.72.5 1.71.5 1.72.5 1.72.5 1.72.5 1.71.51 1.72.5 1.72.5 1.72.5 1.71.5 1.72.5 1.72.5 1.72.5 1.71.5 1.72.5 1.72.5 1.72.5 1.71.51 1.72.5 1.72.5 1.72.5 1.71.5 1.72.5 1.72.5 1.72.5 1.71.5 1.72.5 1.72.5 1.72.5 1.72.51 1.71.5 1.72.5 1.72.5 1.72.5 1.71.5 1.72.5 1.72.5 1.72.5 1.71.5 1.72.5 1.72.5 1.72.51 1.71.5 1.72.5 1.72.5 1.72.5 1.71.5 1.72.5 1.72.5 1.72.5 1.71.5 1.72.5 1.72.5 1.72.51 1.71.5 1.72.5 1.72.5 1.72.5 1.71.5 1.72.5 1.72.5 1.72.5 1.71.5 1.72.5 1.72.5 1.72.51 1.71.5 1.72.5 1.72.5 1.72.5 1.71.5 1.72.5 1.72.5 1.72.5 1.71.5 1.72.5 1.72.5 1.72.5 1.72.51m-58.15 211.41.19-.7.19-.71.2-.7.19-.7.19-.7.2-.71.19-.7.19-.7.2-.7.19-.7.19-.71.2-.7.19-.7.19-.7.2-.71.19-.7.19-.7.19-.7.2-.7.19-.71.19-.7.2-.7.19-.7.19-.71.2-.7.19-.7.19-.7.2-.7.19-.71.19-.7.2-.7.19-.7.19-.71.2-.7.19-.7.19-.7.19-.71.2-.7.19-.7.19-.7.2-.7.19-.71.19-.7.2-.7.19-.7.19-.71.2-.7.19-.7.19-.7.2-.7.19-.71.19-.7.19-.7.2-.7.19-.71.19-.7.2-.7.19-.7.19-.7.2-.71.19-.7.19-.7.2-.7.19-.71.19-.7.2-.7.19-.7.19-.71.2-.7.19-.7.19-.7.19-.7.2-.71.19-.7.19-.7.2-.7.19-.71.19-.7.2-.7.19-.7.19-.7.2-.71.19-.7.19-.7.2-.7.19-.71.19-.7.2-.7.19-.7.19-.7.19-.71.2-.7.19-.7.19-.7.2-.71.19-.7.19-.7.2-.7.19-.71M55.97 513.56l1.96-.4 1.96-.39 1.97-.39 1.96-.4 1.96-.39 1.97-.39 1.96-.4 1.97-.39 1.96-.39 1.96-.39 1.97-.4 1.96-.39 1.96-.39 1.97-.4 1.96-.39 1.96-.39 1.97-.4 1.96-.39 1.96-.39 1.97-.39 1.96-.4 1.96-.39 1.97-.39 1.96-.4 1.96-.39 1.97-.39 1.96-.4 1.96-.39 1.97-.39 1.96-.4 1.96-.39 1.97-.39 1.96-.39 1.96-.4 1.97-.39 1.96-.39 1.96-.4 1.97-.39 1.96-.39 1.96-.4 1.97-.39 1.96-.39 1.96-.4 1.97-.39 1.96-.39 1.96-.39 1.97-.4 1.96-.39 1.96-.39 1.97-.4 1.96-.39 1.96-.39 1.97-.4 1.96-.39 1.97-.39 1.96-.39 1.96-.4 1.97-.39 1.96-.39 1.96-.4 1.97-.39 1.96-.39 1.96-.4 1.97-.39 1.96-.39 1.96-.4 1.97-.39 1.96-.39 1.96-.39 1.97-.4 1.96-.39 1.96-.39 1.97-.4 1.96-.39 1.96-.39 1.97-.4 1.96-.39 1.96-.39 1.97-.4 1.96-.39 1.96-.39 1.97-.39 1.96-.4 1.96-.39 1.97-.39 1.96-.4 1.96-.39 1.97-.39 1.96-.4 1.96-.39 1.97-.39 1.96-.39 1.96-.4 1.97-.39 1.96-.39 1.96-.4 1.97-.39 1.96-.39 1.96-.4" style="stroke-width:1.07;stroke:#000000;stroke-opacity:0.10;stroke-linecap:butt"/><path d="m270.25 402.28-.2.73-.2.73-.21.73-.2.73-.2.73-.2.73-.2.74-.2.73-.2.73-.2.73-.2.73-.2.73-.21.73-.2.73-.2.73-.2.73-.2.73-.2.74-.2.73-.2.73-.2.73-.2.73-.21.73-.2.73-.2.73-.2.73-.2.73-.2.74-.2.73-.2.73-.2.73-.21.73-.2.73-.2.73-.2.73-.2.73-.2.73-.2.73-.2.74-.2.73-.2.73-.21.73-.2.73-.2.73-.2.73-.2.73-.2.73-.2.73-.2.74-.2.73-.21.73-.2.73-.2.73-.2.73-.2.73-.2.73-.2.73-.2.73-.2.74-.2.73-.21.73-.2.73-.2.73-.2.73-.2.73-.2.73-.2.73-.2.73-.2.73-.2.74-.21.73-.2.73-.2.73-.2.73-.2.73-.2.73-.2.73-.2.73-.2.73-.21.74-.2.73-.2.73-.2.73-.2.73-.2.73-.2.73-.2.73-.2.73-.2.73-.21.74-.2.73-.2.73-.2.73-.2.73-.2.73-.2.73-.2.73-.2.73-.21.73" style="stroke-width:1.07;stroke:#000000;stroke-opacity:0.10;stroke-linecap:butt"/><path d="m308.49 254.25 7.78 13.47h-15.56zm111.89 267.76 1.92 3.32h-3.83zm102.39-372.27 1.92 3.32h-3.83zm-364.41-10.67 1.91 3.32h-3.83zm111.89 256.21 6.06 10.5h-12.12zM55.97 511.35l1.91 3.31h-3.83z" style="stroke-width:0.71;stroke:none;fill:#00BFC4"/><circle cx="328.4" cy="190.87" r="6.76" style="stroke-width:0.71;stroke:none;fill:#F8766D"/><circle cx="289.37" cy="332.75" r="4.5" style="stroke-width:0.71;stroke:none;fill:#F8766D"/><circle cx="250.34" cy="474.64" r="5.78" style="stroke-width:0.71;stroke:none;fill:#F8766D"/><path d="m303.3 267.91 4.33-3.91m118.11 255.61-4.48 3.86M153.17 145.95l4.33-3.89m118.09 255.62-4.46 3.84m62.76-215.3-4.61 3.89m-45.39 147.28 4.59-3.88m-43.6 145.75 4.58-3.87" style="stroke-width:0.53;stroke:#BFBFBF"/><path d="M262.58 279.26h66.69l-.08-.01.34-.01.34-.07.33-.12.3-.18.27-.22.23-.26.19-.29.13-.32.09-.34.02-.34h0v-7.03h0l-.02-.35-.09-.33-.13-.32-.19-.3-.23-.26-.27-.22-.3-.17-.33-.13-.34-.07-.26-.01h-66.69l.26.01-.35-.01-.34.04-.34.1-.31.15-.29.2-.25.24-.21.27-.16.31-.11.33-.05.35-.01.17v7.03l.01-.18v.35l.05.34.11.33.16.31.21.28.25.24.29.2.31.15.34.09.34.04z" style="stroke-width:0.53;fill:#FFFFFF;fill-opacity:0.50"/><text x="295.93" y="275.66" lengthAdjust="spacingAndGlyphs" style="font-size:5.69px;font-family:&quot;Liberation Sans&quot;" text-anchor="middle" textLength="63.81">MFA 2022-INV2 TRUST</text><path d="M404.14 519.61h67.63-.09l.35-.02.34-.07.32-.12.3-.17.27-.22.23-.26.19-.3.14-.32.08-.34.03-.34h0v-15.22h0l-.03-.35-.08-.34-.14-.32-.19-.29-.23-.26-.27-.22-.3-.17-.32-.13-.34-.07-.26-.01h-67.63l.26.01-.35-.01-.35.04-.33.1-.31.15-.29.19-.25.24-.21.28-.16.31-.11.33-.06.34v15.4-.18.35l.06.35.11.32.16.31.21.28.25.24.29.2.31.15.33.09.35.05z" style="stroke-width:0.53;fill:#FFFFFF;fill-opacity:0.50"/><text x="437.95" y="507.81" lengthAdjust="spacingAndGlyphs" style="font-size:5.69px;font-family:&quot;Liberation Sans&quot;" text-anchor="middle" textLength="64.75">STANWICH MORTGAGE</text><text x="437.95" y="516.01" lengthAdjust="spacingAndGlyphs" style="font-size:5.69px;font-family:&quot;Liberation Sans&quot;" text-anchor="middle" textLength="27.79">LOAN TRT</text><path d="M448.79 157.76h67.06-.09l.35-.01.34-.07.32-.13.31-.17.26-.22.24-.26.18-.29.14-.32.08-.34.03-.35h0v-7.02h0l-.03-.35-.08-.34-.14-.32-.18-.29-.24-.26-.26-.22-.31-.18-.32-.12-.34-.07-.26-.01h-67.06l.26.01-.35-.01-.34.04-.34.1-.31.15-.29.19-.25.24-.21.28-.16.31-.11.33-.06.34v7.2-.17.35l.06.34.11.33.16.31.21.28.25.24.29.19.31.15.34.1.34.04z" style="stroke-width:0.53;fill:#FFFFFF;fill-opacity:0.50"/><text x="482.32" y="154.16" lengthAdjust="spacingAndGlyphs" style="font-size:5.69px;font-family:&quot;Liberation Sans&quot;" text-anchor="middle" textLength="64.18">MFA 2022-RTL1 TRUST</text><path d="M115.16 157.3h61.12-.08l.34-.02.34-.07.33-.12.3-.17.27-.22.23-.26.19-.3.13-.32.09-.33.02-.35h0v-7.03h0l-.02-.34-.09-.34-.13-.32-.19-.3-.23-.26-.27-.22-.3-.17-.33-.12-.34-.07-.26-.02h-61.12l.26.02-.34-.02-.35.05-.33.09-.32.15-.28.2-.25.24-.21.28-.16.31-.11.33-.06.34-.01.17v7.03l.01-.17v.34l.06.35.11.33.16.3.21.28.25.24.28.2.32.15.33.1.35.04z" style="stroke-width:0.53;fill:#FFFFFF;fill-opacity:0.50"/><text x="145.72" y="153.7" lengthAdjust="spacingAndGlyphs" style="font-size:5.69px;font-family:&quot;Liberation Sans&quot;" text-anchor="middle" textLength="58.24">MFRA TRUST 2021-1</text><path d="M253.99 397.68h67.48-.08l.34-.02.34-.06.33-.13.3-.17.27-.22.23-.26.19-.3.13-.32.09-.33.02-.35h0V380.3h0l-.02-.35-.09-.34-.13-.31-.19-.3-.23-.26-.27-.22-.3-.17-.33-.13-.34-.07-.26-.01h-67.48l.26.01-.35-.01-.34.04-.34.1-.31.15-.29.2-.25.24-.21.27-.16.31-.11.33-.06.35v15.39-.17.34l.06.35.11.33.16.3.21.28.25.24.29.2.31.15.34.1.34.04z" style="stroke-width:0.53;fill:#FFFFFF;fill-opacity:0.50"/><text x="287.73" y="385.89" lengthAdjust="spacingAndGlyphs" style="font-size:5.69px;font-family:&quot;Liberation Sans&quot;" text-anchor="middle" textLength="64.61">WILMINGTON SAVINGS</text><text x="287.73" y="394.08" lengthAdjust="spacingAndGlyphs" style="font-size:5.69px;font-family:&quot;Liberation Sans&quot;" text-anchor="middle" textLength="31.61">FUND SOCI</text><path d="M62.99 523.31h64.94-.09l.35-.02.34-.07.32-.12.3-.17.27-.22.23-.26.19-.3.14-.32.08-.33.03-.35h0v-15.22h0l-.03-.35-.08-.34-.14-.32-.19-.29-.23-.26-.27-.22-.3-.17-.32-.13-.34-.07-.26-.01H62.99l.26.01-.35-.01-.34.04-.34.1-.31.15-.29.19-.25.25-.21.27-.16.31-.11.33-.05.34-.01.18v15.22l.01-.17v.34l.05.35.11.33.16.3.21.28.25.24.29.2.31.15.34.1.34.04z" style="stroke-width:0.53;fill:#FFFFFF;fill-opacity:0.50"/><text x="95.46" y="511.52" lengthAdjust="spacingAndGlyphs" style="font-size:5.69px;font-family:&quot;Liberation Sans&quot;" text-anchor="middle" textLength="62.06">QUERCUS MORTGAGE</text><text x="95.46" y="519.71" lengthAdjust="spacingAndGlyphs" style="font-size:5.69px;font-family:&quot;Liberation Sans&quot;" text-anchor="middle" textLength="36.73">INVESTMENT</text><path d="M319.05 186.22h63.85-.08l.34-.02.34-.07.33-.12.3-.17.27-.22.23-.26.19-.3.13-.32.09-.34.02-.34h0v-23.42h0l-.02-.34-.09-.34-.13-.32-.19-.3-.23-.26-.27-.22-.3-.17-.33-.12-.34-.07-.26-.02h-63.85l.26.02-.34-.02-.35.05-.33.09-.32.15-.28.2-.25.24-.21.28-.16.31-.11.33-.06.34-.01.17v23.42l.01-.18v.35l.06.35.11.32.16.31.21.28.25.24.28.2.32.15.33.09.35.05z" style="stroke-width:0.53;fill:#FFFFFF;fill-opacity:0.50"/><text x="350.98" y="166.23" lengthAdjust="spacingAndGlyphs" style="font-size:5.69px;font-family:&quot;Liberation Sans&quot;" text-anchor="middle" textLength="59.75">201 MCBEE AVE, STE</text><text x="350.98" y="174.42" lengthAdjust="spacingAndGlyphs" style="font-size:5.69px;font-family:&quot;Liberation Sans&quot;" text-anchor="middle" textLength="60.97">300, GREENVILLE, SC</text><text x="350.98" y="182.62" lengthAdjust="spacingAndGlyphs" style="font-size:5.69px;font-family:&quot;Liberation Sans&quot;" text-anchor="middle" textLength="18.11">29601</text><path d="M234.83 365.13h63.93-.08l.34-.02.34-.07.33-.12.3-.17.27-.22.23-.26.19-.3.13-.32.09-.34.02-.34h0v-23.42h0l-.02-.34-.09-.34-.13-.32-.19-.3-.23-.26-.27-.22-.3-.17-.33-.12-.34-.07-.26-.02h-63.93l.26.02-.35-.02-.34.05-.34.09-.31.15-.29.2-.25.24-.21.28-.16.31-.11.33-.06.34v23.59-.18.35l.06.35.11.33.16.3.21.28.25.24.29.2.31.15.34.09.34.05z" style="stroke-width:0.53;fill:#FFFFFF;fill-opacity:0.50"/><text x="266.8" y="345.14" lengthAdjust="spacingAndGlyphs" style="font-size:5.69px;font-family:&quot;Liberation Sans&quot;" text-anchor="middle" textLength="55.07">1 VANDERBILT AVE,</text><text x="266.8" y="353.33" lengthAdjust="spacingAndGlyphs" style="font-size:5.69px;font-family:&quot;Liberation Sans&quot;" text-anchor="middle" textLength="61.06">FL 48, NEW YORK, NY</text><text x="266.8" y="361.53" lengthAdjust="spacingAndGlyphs" style="font-size:5.69px;font-family:&quot;Liberation Sans&quot;" text-anchor="middle" textLength="18.11">10017</text><path d="M193.91 507h67.81-.09l.35-.02.34-.07.32-.12.3-.17.27-.22.23-.26.19-.3.14-.32.08-.34.03-.34h0v-23.42h0l-.03-.34-.08-.34-.14-.32-.19-.3-.23-.26-.27-.22-.3-.17-.32-.12-.34-.07-.26-.02h-67.81l.26.02-.35-.02-.34.05-.34.09-.31.15-.29.2-.25.24-.21.28-.16.31-.11.32-.05.35-.01.17v23.42l.01-.18v.35l.05.34.11.33.16.31.21.28.25.24.29.2.31.15.34.09.34.05z" style="stroke-width:0.53;fill:#FFFFFF;fill-opacity:0.50"/><text x="227.81" y="487.01" lengthAdjust="spacingAndGlyphs" style="font-size:5.69px;font-family:&quot;Liberation Sans&quot;" text-anchor="middle" textLength="60.06">1600 DOUGLASS RD,</text><text x="227.81" y="495.2" lengthAdjust="spacingAndGlyphs" style="font-size:5.69px;font-family:&quot;Liberation Sans&quot;" text-anchor="middle" textLength="64.93">STE 200, ANAHEIM, CA</text><text x="227.81" y="503.4" lengthAdjust="spacingAndGlyphs" style="font-size:5.69px;font-family:&quot;Liberation Sans&quot;" text-anchor="middle" textLength="18.11">92806</text></g><g clip-path="url(#cpMC4wMHw1NzYuMDB8MC4wMHw1NzYuMDA=)"><circle cx="228.61" cy="97.06" r="1.95" style="stroke-width:0.71;stroke:none;fill:#F8766D"/><path d="m304.96 94.02 2.63 4.56h-5.26z" style="stroke-width:0.71;stroke:none;fill:#00BFC4"/><text x="242.73" y="100.22" lengthAdjust="spacingAndGlyphs" style="font-size:8.80px;font-weight:0;font-family:&quot;Nimbus Sans Narrow&quot;" textLength="48.11">mprop address</text><text x="319.08" y="100.22" lengthAdjust="spacingAndGlyphs" style="font-size:8.80px;font-weight:0;font-family:&quot;Nimbus Sans Narrow&quot;" textLength="39.69">owner name</text><text x="32.63" y="65.35" lengthAdjust="spacingAndGlyphs" style="font-size:12.00px;font-weight:0;font-family:&quot;Nimbus Sans Narrow&quot;" textLength="246.65">includes 9 parcels, 17 units, and 6 distinct owner names.</text><text x="32.63" y="42.81" lengthAdjust="spacingAndGlyphs" style="font-size:18.00px;font-weight:0;font-family:&quot;Nimbus Sans Narrow&quot;" textLength="233.79">MFA 2022-INV2 TRUST etc Group</text></g></svg>