<svg xmlns="http://www.w3.org/2000/svg" width="576" height="576" class="svglite" viewBox="0 0 432 432"><defs><style>.svglite circle,.svglite line,.svglite polygon,.svglite polyline,.svglite rect{fill:none;stroke:#000;stroke-linecap:round;stroke-linejoin:round;stroke-miterlimit:10}.svglite text{white-space:pre}</style></defs><rect width="100%" height="100%" style="stroke:none;fill:#fff"/><defs><clipPath id="cpMC4wMHw0MzIuMDB8MC4wMHw0MzIuMDA="><path d="M0 0h432v432H0z"/></clipPath></defs><g clip-path="url(#cpMC4wMHw0MzIuMDB8MC4wMHw0MzIuMDA=)"><path d="M0 0h432v432H0z" style="stroke-width:1.07;stroke:none;fill:#fff"/></g><defs><clipPath id="cpMzIuNjN8NDAyLjExfDEyMS43OHwzOTkuMzc="><path d="M32.63 121.78h369.48v277.59H32.63z"/></clipPath></defs><g clip-path="url(#cpMzIuNjN8NDAyLjExfDEyMS43OHwzOTkuMzc=)"><path d="m288.47 310.85-.99-.78-1-.78-.99-.78-.99-.78-1-.77-.99-.78-.99-.78-1-.78-.99-.78-.99-.78-1-.77-.99-.78-.99-.78-.99-.78-1-.78-.99-.78-.99-.78-1-.77-.99-.78-.99-.78-1-.78-.99-.78-.99-.78-1-.77-.99-.78-.99-.78-1-.78-.99-.78-.99-.78-1-.77-.99-.78-.99-.78-.99-.78-1-.78-.99-.78-.99-.78-1-.77-.99-.78-.99-.78-1-.78-.99-.78-.99-.78-1-.77-.99-.78-.99-.78-1-.78-.99-.78-.99-.78-1-.77-.99-.78-.99-.78-1-.78-.99-.78-.99-.78-.99-.78-1-.77-.99-.78-.99-.78-1-.78-.99-.78-.99-.78-1-.77-.99-.78-.99-.78-1-.78-.99-.78-.99-.78-1-.77-.99-.78-.99-.78-1-.78-.99-.78-.99-.78-1-.78-.99-.77-.99-.78-.99-.78-1-.78-.99-.78-.99-.78-1-.77-.99-.78-.99-.78-1-.78-.99-.78-.99-.78-1-.78-.99-.77-.99-.78-1-.78-.99-.78-.99-.78-1-.78-.99-.77-.99-.78-.99-.78-1-.78-.99-.78-.99-.78M288.47 310.85l.98.76.98.77.97.77.98.76.98.77.98.77.98.77.98.76.97.77.98.77.98.76.98.77.98.77.98.76.97.77.98.77.98.76.98.77.98.77.97.76.98.77.98.77.98.76.98.77.98.77.97.76.98.77.98.77.98.76.98.77.98.77.97.76.98.77.98.77.98.76.98.77.98.77.97.76.98.77.98.77.98.76.98.77.97.77.98.76.98.77.98.77.98.76.98.77.97.77.98.76.98.77.98.77.98.76.98.77.97.77.98.77.98.76.98.77.98.77.98.76.97.77.98.77.98.76.98.77.98.77.97.76.98.77.98.77.98.76.98.77.98.77.97.76.98.77.98.77.98.76.98.77.98.77.97.76.98.77.98.77.98.76.98.77.98.77.97.76.98.77.98.77.98.76.98.77.97.77.98.76.98.77.98.77.98.76.98.77.97.77.98.76.98.77.98.77.98.76M160.33 134.4l.3 1.01.31 1 .3 1 .3 1.01.3 1 .3 1.01.3 1 .3 1 .3 1.01.31 1 .3 1 .3 1.01.3 1 .3 1.01.3 1 .3 1 .3 1.01.3 1 .31 1.01.3 1 .3 1 .3 1.01.3 1 .3 1 .3 1.01.3 1 .3 1.01.31 1 .3 1 .3 1.01.3 1 .3 1.01.3 1 .3 1 .3 1.01.3 1 .31 1 .3 1.01.3 1 .3 1.01.3 1 .3 1 .3 1.01.3 1 .3 1.01.31 1 .3 1 .3 1.01.3 1 .3 1 .3 1.01.3 1 .3 1.01.3 1 .31 1 .3 1.01.3 1 .3 1.01.3 1 .3 1 .3 1.01.3 1 .3 1 .31 1.01.3 1 .3 1.01.3 1 .3 1 .3 1.01.3 1 .3 1.01.31 1 .3 1 .3 1.01.3 1 .3 1.01.3 1 .3 1 .3 1.01.3 1 .31 1 .3 1.01.3 1 .3 1.01.3 1 .3 1 .3 1.01.3 1 .3 1.01.31 1 .3 1 .3 1.01.3 1 .3 1 .3 1.01.3 1 .3 1.01.3 1 .31 1M160.33 134.4l-1.12.66-1.12.66-1.12.65-1.12.66-1.12.66-1.12.66-1.12.66-1.12.65-1.12.66-1.12.66-1.12.66-1.12.65-1.12.66-1.12.66-1.12.66-1.12.65-1.12.66-1.12.66-1.12.66-1.12.65-1.12.66-1.12.66-1.12.66-1.12.65-1.12.66-1.12.66-1.12.66-1.13.65-1.12.66-1.12.66-1.12.66-1.12.66-1.12.65-1.12.66-1.12.66-1.12.66-1.12.65-1.12.66-1.12.66-1.12.66-1.12.65-1.12.66-1.12.66-1.12.66-1.12.65-1.12.66-1.12.66-1.12.66-1.12.65-1.12.66-1.12.66-1.12.66-1.12.65-1.12.66-1.12.66-1.12.66-1.12.66-1.12.65-1.12.66-1.13.66-1.12.66-1.12.65-1.12.66-1.12.66-1.12.66-1.12.65-1.12.66-1.12.66-1.12.66-1.12.65-1.12.66-1.12.66-1.12.66-1.12.65-1.12.66-1.12.66-1.12.66-1.12.65-1.12.66-1.12.66-1.12.66-1.12.66-1.12.65-1.12.66-1.12.66-1.12.66-1.12.65-1.12.66-1.12.66-1.12.66-1.13.65-1.12.66-1.12.66-1.12.66-1.12.65-1.12.66-1.12.66-1.12.66-1.12.65M49.42 199.5l1.3.59 1.3.58 1.3.57 1.3.57 1.3.57 1.31.56 1.31.56 1.32.55 1.31.54 1.32.54 1.32.54 1.32.53 1.33.53 1.33.52 1.33.52 1.33.51 1.34.5 1.34.51 1.34.49 1.34.5 1.35.48 1.35.49 1.35.47 1.36.48 1.35.47 1.36.46 1.37.46 1.36.45 1.37.45 1.37.44 1.37.44 1.37.43 1.38.43 1.38.43 1.39.42 1.38.41 1.39.41 1.39.41 1.39.4 1.4.39 1.4.39 1.4.39 1.4.38 1.41.37 1.4.37 1.42.37 1.41.36 1.42.35 1.41.36 1.43.34 1.42.34 1.43.34 1.43.33 1.43.33 1.43.32 1.44.32 1.44.31 1.44.31 1.45.3 1.44.3 1.45.29 1.45.29 1.46.28 1.46.28 1.46.27 1.46.27 1.47.26 1.46.26 1.47.26 1.48.24 1.47.25 1.48.24 1.48.23 1.48.23 1.49.23 1.49.22 1.49.21 1.49.21 1.5.21 1.5.2 1.5.19 1.5.19 1.51.19 1.51.18 1.51.17 1.52.17 1.51.17 1.52.16 1.52.16 1.53.15 1.53.15 1.53.14 1.53.13 1.53.14 1.54.12 1.54.13 1.54.11 1.55.12 1.55.1" style="stroke-width:1.07;stroke:#000;stroke-opacity:.1;stroke-linecap:butt"/><path d="m49.42 199.5 1.55.11 1.55.11 1.54.12 1.54.12 1.54.13 1.53.13 1.53.14 1.53.14 1.53.15 1.52.15 1.53.16 1.52.16 1.51.16 1.52.17 1.51.18 1.51.18 1.5.19 1.51.19 1.5.19 1.5.2 1.49.21 1.5.21 1.49.21 1.49.22 1.48.23 1.49.23 1.48.23 1.48.24 1.47.24 1.47.25 1.47.26 1.47.25 1.47.27 1.46.27 1.46.27 1.46.28 1.45.28 1.46.29 1.45.29 1.44.3 1.45.3 1.44.31 1.44.31 1.44.32 1.43.32 1.43.33 1.43.33 1.43.33 1.42.35 1.42.34 1.42.35 1.42.36 1.41.36 1.41.37 1.41.37 1.41.37 1.4.38 1.4.39 1.4.39 1.4.39 1.39.4 1.39.41 1.39.41 1.38.41 1.39.42 1.38.42 1.37.43 1.38.44 1.37.44 1.37.44 1.37.45 1.36.45 1.36.46 1.36.46 1.36.47 1.36.47 1.35.48 1.35.48 1.34.49 1.35.49 1.34.5 1.34.5 1.33.51 1.34.51 1.33.52 1.33.52 1.32.53 1.33.53 1.32.53 1.32.55 1.31.54 1.32.55 1.31.56 1.3.56 1.31.56 1.3.57 1.3.58 1.3.58 1.3.58" style="stroke-width:1.07;stroke:#000;stroke-opacity:.1;stroke-linecap:butt"/><path d="m288.47 308.64 1.91 3.31h-3.82zM160.33 132.19l1.92 3.32h-3.83z" style="stroke-width:.71;stroke:none;fill:#00ba38"/><path d="M48 200.93h2.84v-2.85H48z" style="stroke-width:.71;stroke:none;fill:#619cff"/><circle cx="190.15" cy="233.78" r="6.76" style="stroke-width:.71;stroke:none;fill:#f8766d"/><path d="M383.9 388.18h2.84v-2.85h-2.84z" style="stroke-width:.71;stroke:none;fill:#619cff"/><path d="m282.7 315.39 4.85-3.82M166.1 138.94l-4.85-3.81M184.39 238.33l4.83-3.82M379.47 382.23l4.92 3.81" style="stroke-width:.53;stroke:#bfbfbf"/><path d="M237.99 334.87h62.91-.09l.35-.01.34-.07.33-.13.3-.17.27-.22.23-.26.18-.29.14-.32.08-.34.03-.35v-15.16l-.03-.34-.08-.34-.14-.32-.18-.29-.23-.26-.27-.22-.3-.18-.33-.12-.34-.07-.26-.02h-62.91l.26.02-.34-.01-.35.04-.33.09-.32.15-.28.2-.25.24-.21.28-.16.31-.11.33-.06.34-.01.17v15.16l.01-.17v.35l.06.34.11.33.16.31.21.27.25.24.28.2.32.15.33.1.35.04z" style="stroke-width:.53;fill:#fff;fill-opacity:.5"/><text x="269.45" y="323.08" lengthAdjust="spacingAndGlyphs" style="font-size:5.69px;font-family:&quot;Arial&quot;" text-anchor="middle" textLength="60.03">MGD INVESTMENTS 4</text><text x="269.45" y="331.27" lengthAdjust="spacingAndGlyphs" style="font-size:5.69px;font-family:&quot;Arial&quot;" text-anchor="middle" textLength="10.43">LLC</text><path d="M147.9 158.42h62.91-.09l.35-.01.34-.07.32-.13.31-.17.27-.22.23-.26.18-.3.14-.32.08-.33.03-.35V141.1l-.03-.34-.08-.34-.14-.32-.18-.29-.23-.26-.27-.22-.31-.18-.32-.12-.34-.07-.26-.02H147.9l.26.02-.34-.01-.35.04-.33.09-.32.15-.28.2-.25.24-.21.28-.16.31-.11.33-.06.34-.01.17v15.16l.01-.17v.34l.06.35.11.33.16.31.21.27.25.24.28.2.32.15.33.1.35.04z" style="stroke-width:.53;fill:#fff;fill-opacity:.5"/><text x="179.36" y="146.63" lengthAdjust="spacingAndGlyphs" style="font-size:5.69px;font-family:&quot;Arial&quot;" text-anchor="middle" textLength="60.03">MGD INVESTMENTS 5</text><text x="179.36" y="154.82" lengthAdjust="spacingAndGlyphs" style="font-size:5.69px;font-family:&quot;Arial&quot;" text-anchor="middle" textLength="10.43">LLC</text><path d="M56.32 209.25h74.88l-.08-.01.34-.01.34-.07.33-.12.3-.18.27-.22.23-.26.19-.29.13-.32.09-.34.02-.34v-15.16l-.02-.35-.09-.34-.13-.32-.19-.29-.23-.26-.27-.22-.3-.17-.33-.13-.34-.07-.26-.01H56.32l.26.01-.35-.01-.35.04-.33.1-.31.15-.29.2-.25.24-.21.27-.16.31-.11.33-.06.34v15.34-.18.35l.06.34.11.33.16.31.21.28.25.24.29.2.31.14.33.1.35.04z" style="stroke-width:.53;fill:#fff;fill-opacity:.5"/><text x="93.76" y="197.45" lengthAdjust="spacingAndGlyphs" style="font-size:5.69px;font-family:&quot;Arial&quot;" text-anchor="middle" textLength="42.96">1101 W 2ND ST,</text><text x="93.76" y="205.65" lengthAdjust="spacingAndGlyphs" style="font-size:5.69px;font-family:&quot;Arial&quot;" text-anchor="middle" textLength="72.01">OCONOMOWOC, WI 53066</text><path d="M133.71 257.8h74.88-.08l.34-.01.35-.07.32-.13.3-.17.27-.22.23-.26.19-.29.13-.32.09-.34.02-.35v-15.15l-.02-.35-.09-.34-.13-.32-.19-.29-.23-.26-.27-.22-.3-.18-.32-.12-.35-.07-.26-.01h-74.88l.26.01-.35-.01-.35.04-.33.1-.31.14-.29.2-.25.24-.21.28-.16.31-.11.33-.06.34v15.33-.17.35l.06.34.11.33.16.31.21.27.25.24.29.2.31.15.33.1.35.04z" style="stroke-width:.53;fill:#fff;fill-opacity:.5"/><text x="171.15" y="246.01" lengthAdjust="spacingAndGlyphs" style="font-size:5.69px;font-family:&quot;Arial&quot;" text-anchor="middle" textLength="42.96">1101 W 2ND ST,</text><text x="171.15" y="254.2" lengthAdjust="spacingAndGlyphs" style="font-size:5.69px;font-family:&quot;Arial&quot;" text-anchor="middle" textLength="72.01">OCONOMOWOC, WI 53066</text><path d="M326.58 382.23h68.6-.09l.35-.01.34-.07.33-.13.3-.17.27-.22.23-.26.18-.29.14-.32.08-.34.03-.35v-23.35l-.03-.35-.08-.33-.14-.32-.18-.3-.23-.26-.27-.22-.3-.17-.33-.12-.34-.07-.26-.02h-68.6l.26.02-.35-.02-.34.04-.34.1-.31.15-.29.2-.25.24-.21.28-.16.3-.11.33-.05.35-.01.17v23.35l.01-.17v.35l.05.34.11.33.16.31.21.27.25.25.29.19.31.15.34.1.34.04z" style="stroke-width:.53;fill:#fff;fill-opacity:.5"/><text x="360.88" y="362.24" lengthAdjust="spacingAndGlyphs" style="font-size:5.69px;font-family:&quot;Arial&quot;" text-anchor="middle" textLength="65.72">1660 N PROSPECT AVE,</text><text x="360.88" y="370.44" lengthAdjust="spacingAndGlyphs" style="font-size:5.69px;font-family:&quot;Arial&quot;" text-anchor="middle" textLength="60.02">UNIT 22, MILWAUKEE,</text><text x="360.88" y="378.63" lengthAdjust="spacingAndGlyphs" style="font-size:5.69px;font-family:&quot;Arial&quot;" text-anchor="middle" textLength="24.33">WI 53202</text></g><g clip-path="url(#cpMC4wMHw0MzIuMDB8MC4wMHw0MzIuMDA=)"><circle cx="124.98" cy="96.71" r="1.95" style="stroke-width:.71;stroke:none;fill:#f8766d"/><path d="m201.33 93.67 2.63 4.56h-5.26z" style="stroke-width:.71;stroke:none;fill:#00ba38"/><path d="M267.31 98.66h3.91v-3.91h-3.91z" style="stroke-width:.71;stroke:none;fill:#619cff"/><text x="139.09" y="99.86" lengthAdjust="spacingAndGlyphs" style="font-size:8.8px;font-family:&quot;Arial Narrow&quot;" textLength="48.12">mprop address</text><text x="215.45" y="99.86" lengthAdjust="spacingAndGlyphs" style="font-size:8.8px;font-family:&quot;Arial Narrow&quot;" textLength="39.69">owner name</text><text x="283.38" y="99.86" lengthAdjust="spacingAndGlyphs" style="font-size:8.8px;font-family:&quot;Arial Narrow&quot;" textLength="40.5">wdfi address</text><text x="32.63" y="65.12" lengthAdjust="spacingAndGlyphs" style="font-size:12px;font-family:&quot;Arial Narrow&quot;" textLength="241.29">includes 2 parcels, 2 units, and 2 distinct owner names.</text><text x="32.63" y="42.78" lengthAdjust="spacingAndGlyphs" style="font-size:18px;font-weight:700;font-family:&quot;Arial Narrow&quot;" textLength="236.97">MGD INVESTMENTS 4 LLC Group</text></g></svg>