<svg xmlns="http://www.w3.org/2000/svg" width="576" height="672" class="svglite" viewBox="0 0 432 504"><defs><style><![CDATA[.svglite line,.svglite polyline,.svglite polygon,.svglite path,.svglite circle{fill:none;stroke:#000000;stroke-linecap:round;stroke-linejoin:round;stroke-miterlimit:10.00}]]></style></defs><rect width="100%" height="100%" style="stroke-linecap:round;stroke-linejoin:round;stroke-miterlimit:10.00;stroke:none;fill:#FFFFFF"/><defs><clipPath id="cpMC4wMHw0MzIuMDB8MC4wMHw1MDQuMDA="><path d="M0 0h432v504H0z"/></clipPath></defs><g clip-path="url(#cpMC4wMHw0MzIuMDB8MC4wMHw1MDQuMDA=)"><path d="M0 0h432v504H0z" style="stroke-width:1.07;stroke:none;fill:#FFFFFF"/></g><defs><clipPath id="cpMzIuNjN8NDAyLjExfDEyMS43OHw0NzEuMzc="><path d="M32.63 121.78h369.48v349.59H32.63z"/></clipPath></defs><g clip-path="url(#cpMzIuNjN8NDAyLjExfDEyMS43OHw0NzEuMzc=)"><path d="m296.77 359.42-.94-1.02-.94-1.01-.94-1.02-.93-1.02-.94-1.02-.94-1.01-.94-1.02-.94-1.02-.94-1.02-.93-1.02-.94-1.01-.94-1.02-.94-1.02-.94-1.02-.93-1.01-.94-1.02-.94-1.02-.94-1.02-.94-1.02-.94-1.01-.93-1.02-.94-1.02-.94-1.02-.94-1.01-.94-1.02-.93-1.02-.94-1.02-.94-1.01-.94-1.02-.94-1.02-.93-1.02-.94-1.02-.94-1.01-.94-1.02-.94-1.02-.94-1.02-.93-1.01-.94-1.02-.94-1.02-.94-1.02-.94-1.02-.93-1.01-.94-1.02-.94-1.02-.94-1.02-.94-1.01-.94-1.02-.93-1.02-.94-1.02-.94-1.01-.94-1.02-.94-1.02-.93-1.02-.94-1.02-.94-1.01-.94-1.02-.94-1.02-.94-1.02-.93-1.01-.94-1.02-.94-1.02-.94-1.02-.94-1.02-.93-1.01-.94-1.02-.94-1.02-.94-1.02-.94-1.01-.93-1.02-.94-1.02-.94-1.02-.94-1.01-.94-1.02-.94-1.02-.93-1.02-.94-1.02-.94-1.01-.94-1.02-.94-1.02-.93-1.02-.94-1.01-.94-1.02-.94-1.02-.94-1.02-.94-1.02-.93-1.01-.94-1.02-.94-1.02-.94-1.02-.94-1.01-.93-1.02-.94-1.02-.94-1.02-.94-1.02-.94-1.01-.93-1.02-.94-1.02-.94-1.02-.94-1.01m92.88 100.75.89.97.9.97.89.97.9.97.89.97.89.97.9.97.89.97.9.97.89.97.9.98.89.97.9.97.89.97.89.97.9.97.89.97.9.97.89.97.9.97.89.97.9.97.89.97.89.97.9.97.89.97.9.97.89.97.9.97.89.97.9.97.89.97.89.97.9.97.89.97.9.97.89.97.9.97.89.97.9.97.89.97.89.97.9.97.89.98.9.97.89.97.9.97.89.97.9.97.89.97.89.97.9.97.89.97.9.97.89.97.9.97.89.97.9.97.89.97.89.97.9.97.89.97.9.97.89.97.9.97.89.97.9.97.89.97.89.97.9.97.89.97.9.97.89.97.9.97.89.97.9.97.89.98.89.97.9.97.89.97.9.97.89.97.9.97.89.97.9.97.89.97.89.97.9.97.89.97.9.97.89.97.9.97.89.97.9.97.89.97.89.97.9.97.89.97.9.97M255.83 137.67l-.52 1.23-.53 1.22-.52 1.22-.53 1.22-.52 1.23-.53 1.22-.52 1.22-.53 1.22-.52 1.22-.53 1.23-.52 1.22-.52 1.22-.53 1.22-.52 1.22-.53 1.23-.52 1.22-.53 1.22-.52 1.22-.53 1.23-.52 1.22-.53 1.22-.52 1.22-.53 1.22-.52 1.23-.53 1.22-.52 1.22-.52 1.22-.53 1.22-.52 1.23-.53 1.22-.52 1.22-.53 1.22-.52 1.23-.53 1.22-.52 1.22-.53 1.22-.52 1.22-.53 1.23-.52 1.22-.52 1.22-.53 1.22-.52 1.22-.53 1.23-.52 1.22-.53 1.22-.52 1.22-.53 1.23-.52 1.22-.53 1.22-.52 1.22-.53 1.22-.52 1.23-.53 1.22-.52 1.22-.52 1.22-.53 1.22-.52 1.23-.53 1.22-.52 1.22-.53 1.22-.52 1.23-.53 1.22-.52 1.22-.53 1.22-.52 1.22-.53 1.23-.52 1.22-.53 1.22-.52 1.22-.52 1.22-.53 1.23-.52 1.22-.53 1.22-.52 1.22-.53 1.22-.52 1.23-.53 1.22-.52 1.22-.53 1.22-.52 1.23-.53 1.22-.52 1.22-.52 1.22-.53 1.22-.52 1.23-.53 1.22-.52 1.22-.53 1.22-.52 1.22-.53 1.23-.52 1.22-.53 1.22-.52 1.22-.53 1.23-.52 1.22-.53 1.22-.52 1.22-.52 1.22-.53 1.23" style="stroke-width:1.07;stroke:#000000;stroke-opacity:0.10;stroke-linecap:butt"/><path d="m49.42 268.43 1.56-.09 1.56-.1 1.56-.1 1.56-.1 1.56-.1 1.56-.1 1.56-.1 1.56-.1 1.56-.09 1.57-.1 1.56-.1 1.56-.1 1.56-.1 1.56-.1 1.56-.1 1.56-.09 1.56-.1 1.56-.1 1.56-.1 1.56-.1 1.56-.1 1.56-.1 1.56-.1 1.56-.09 1.56-.1 1.56-.1 1.56-.1 1.56-.1 1.56-.1 1.56-.1 1.56-.09 1.56-.1 1.56-.1 1.56-.1 1.56-.1 1.56-.1 1.56-.1 1.56-.1 1.56-.09 1.56-.1 1.56-.1 1.56-.1 1.56-.1 1.56-.1 1.57-.1 1.56-.09 1.56-.1 1.56-.1 1.56-.1 1.56-.1 1.56-.1 1.56-.1 1.56-.1 1.56-.09 1.56-.1 1.56-.1 1.56-.1 1.56-.1 1.56-.1 1.56-.1 1.56-.09 1.56-.1 1.56-.1 1.56-.1 1.56-.1 1.56-.1 1.56-.1 1.56-.1 1.56-.09 1.56-.1 1.56-.1 1.56-.1 1.56-.1 1.56-.1 1.56-.1 1.56-.09 1.56-.1 1.56-.1 1.56-.1 1.57-.1 1.56-.1 1.56-.1 1.56-.1 1.56-.09 1.56-.1 1.56-.1 1.56-.1 1.56-.1 1.56-.1 1.56-.1 1.56-.09 1.56-.1 1.56-.1 1.56-.1 1.56-.1 1.56-.1 1.56-.1 1.56-.1 1.56-.09" style="stroke-width:1.07;stroke:#000000;stroke-opacity:0.10;stroke-linecap:butt"/><path d="m296.77 351.34 6.99 12.12h-13.99zm-40.94-215.88 1.92 3.32h-3.83zM49.42 266.22l1.92 3.32h-3.83z" style="stroke-width:0.71;stroke:none;fill:#00BFC4"/><circle cx="203.89" cy="258.67" r="6.76" style="stroke-width:0.71;stroke:none;fill:#F8766D"/><circle cx="385.32" cy="455.48" r="1.42" style="stroke-width:0.71;stroke:none;fill:#F8766D"/><path d="m301.25 354.77-3.7 3.84M251.38 142.3l3.67-3.81m-46.5 115.54-3.86 3.84" style="stroke-width:0.53;stroke:#BFBFBF"/><path d="M274.66 354.77h66.07-.09l.35-.02.34-.07.33-.12.3-.17.27-.22.23-.26.18-.3.14-.32.08-.33.03-.35h0v-6.96h0l-.03-.35-.08-.34-.14-.32-.18-.29-.23-.26-.27-.22-.3-.18-.33-.12-.34-.07-.26-.01h-66.07l.26.01-.34-.01-.35.04-.33.1-.32.15-.28.19-.25.24-.21.28-.16.31-.11.33-.06.34-.01.18v6.96l.01-.17v.34l.06.35.11.33.16.3.21.28.25.24.28.2.32.15.33.1.35.04z" style="stroke-width:0.53;fill:#FFFFFF;fill-opacity:0.50"/><text x="307.7" y="351.17" lengthAdjust="spacingAndGlyphs" style="font-size:5.69px;font-family:Arial" text-anchor="middle" textLength="63.19">MIGUEL ANGEL PEREZ</text><path d="M219.73 153.58h50.59-.09l.35-.01.34-.07.32-.13.3-.17.27-.22.23-.26.19-.29.13-.32.09-.34.03-.35h0v-6.96h0l-.03-.35-.09-.34-.13-.31-.19-.3-.23-.26-.27-.22-.3-.17-.32-.13-.34-.07-.26-.01h-50.59l.26.01-.35-.01-.34.04-.34.1-.31.15-.29.2-.25.24-.21.27-.16.31-.11.33-.05.35-.01.17v6.96l.01-.17v.35l.05.34.11.33.16.31.21.27.25.24.29.2.31.15.34.1.34.04z" style="stroke-width:0.53;fill:#FFFFFF;fill-opacity:0.50"/><text x="245.02" y="149.98" lengthAdjust="spacingAndGlyphs" style="font-size:5.69px;font-family:Arial" text-anchor="middle" textLength="47.71">MIGUEL A PEREZ</text><path d="M56.18 274.03h37.31-.08l.34-.01.34-.07.33-.13.3-.17.27-.22.23-.26.19-.29.13-.32.09-.34.02-.35h0v-6.96h0l-.02-.35-.09-.33-.13-.32-.19-.3-.23-.26-.27-.22-.3-.17-.33-.12-.34-.07-.26-.02H56.18l.26.02-.34-.02-.35.04-.33.1-.32.15-.28.2-.25.24-.21.28-.16.3-.11.33-.06.35-.01.17v6.96l.01-.17v.35l.06.34.11.33.16.31.21.28.25.24.28.19.32.15.33.1.35.04z" style="stroke-width:0.53;fill:#FFFFFF;fill-opacity:0.50"/><text x="74.84" y="270.43" lengthAdjust="spacingAndGlyphs" style="font-size:5.69px;font-family:Arial" text-anchor="middle" textLength="34.43">YENNY RUIZ</text><path d="M186.86 254.03h64.5-.09l.35-.01.34-.07.32-.13.3-.17.27-.22.23-.26.19-.29.13-.32.09-.34.03-.35h0v-15.15h0l-.03-.35-.09-.34-.13-.32-.19-.29-.23-.26-.27-.22-.3-.17-.32-.13-.34-.07-.26-.01h-64.5l.27.01-.35-.01-.35.04-.33.1-.32.15-.28.19-.25.24-.21.28-.16.31-.11.33-.06.34-.01.18v15.15l.01-.17v.35l.06.34.11.33.16.31.21.28.25.24.28.19.32.15.33.1.35.04z" style="stroke-width:0.53;fill:#FFFFFF;fill-opacity:0.50"/><text x="219.11" y="242.24" lengthAdjust="spacingAndGlyphs" style="font-size:5.69px;font-family:Arial" text-anchor="middle" textLength="44.55">3046 S 42ND ST,</text><text x="219.11" y="250.43" lengthAdjust="spacingAndGlyphs" style="font-size:5.69px;font-family:Arial" text-anchor="middle" textLength="61.61">MILWAUKEE, WI 53215</text><path d="M311.31 465.22h67.34-.09l.35-.02.34-.07.32-.12.31-.17.26-.22.24-.26.18-.3.14-.32.08-.33.03-.35h0V447.9h0l-.03-.34-.08-.34-.14-.32-.18-.3-.24-.26-.26-.22-.31-.17-.32-.12-.34-.07-.26-.02h-67.34l.26.02-.35-.02-.34.05-.34.09-.31.15-.29.2-.25.24-.21.28-.16.31-.11.33-.06.34v15.33-.18.35l.06.35.11.33.16.3.21.28.25.24.29.2.31.15.34.1.34.04z" style="stroke-width:0.53;fill:#FFFFFF;fill-opacity:0.50"/><text x="344.98" y="453.42" lengthAdjust="spacingAndGlyphs" style="font-size:5.69px;font-family:Arial" text-anchor="middle" textLength="64.46">3010 W KIMBERLY AVE,</text><text x="344.98" y="461.62" lengthAdjust="spacingAndGlyphs" style="font-size:5.69px;font-family:Arial" text-anchor="middle" textLength="61.61">MILWAUKEE, WI 53221</text></g><g clip-path="url(#cpMC4wMHw0MzIuMDB8MC4wMHw1MDQuMDA=)"><circle cx="159.34" cy="96.71" r="1.95" style="stroke-width:0.71;stroke:none;fill:#F8766D"/><path d="m235.7 93.67 2.63 4.56h-5.26z" style="stroke-width:0.71;stroke:none;fill:#00BFC4"/><text x="173.46" y="99.86" lengthAdjust="spacingAndGlyphs" style="font-size:8.80px;font-family:Arial Narrow" textLength="48.12">mprop address</text><text x="249.82" y="99.86" lengthAdjust="spacingAndGlyphs" style="font-size:8.80px;font-family:Arial Narrow" textLength="39.69">owner name</text><text x="32.63" y="65.12" lengthAdjust="spacingAndGlyphs" style="font-size:12.00px;font-family:Arial Narrow" textLength="241.29">includes 4 parcels, 7 units, and 3 distinct owner names.</text><text x="32.63" y="42.78" lengthAdjust="spacingAndGlyphs" style="font-size:18.00px;font-weight:bold;font-family:Arial Narrow" textLength="197.94">MIGUEL A PEREZ etc Group</text></g></svg>