<svg xmlns="http://www.w3.org/2000/svg" width="768" height="768" class="svglite" viewBox="0 0 576 576"><defs><style><![CDATA[.svglite line,.svglite polyline,.svglite polygon,.svglite path,.svglite circle{fill:none;stroke:#000000;stroke-linecap:round;stroke-linejoin:round;stroke-miterlimit:10.00}.svglite text{white-space:pre}]]></style></defs><rect width="100%" height="100%" style="stroke-linecap:round;stroke-linejoin:round;stroke-miterlimit:10.00;stroke:none;fill:#FFFFFF"/><defs><clipPath id="cpMC4wMHw1NzYuMDB8MC4wMHw1NzYuMDA="><path d="M0 0h576v576H0z"/></clipPath></defs><g clip-path="url(#cpMC4wMHw1NzYuMDB8MC4wMHw1NzYuMDA=)"><path d="M0 0h576v576H0z" style="stroke-width:1.07;stroke:none;fill:#FFFFFF"/></g><defs><clipPath id="cpMzIuNjN8NTQ2LjExfDEyMC44Nnw1NDMuMzc="><path d="M32.63 120.86h513.48v422.51H32.63z"/></clipPath></defs><g clip-path="url(#cpMzIuNjN8NTQ2LjExfDEyMC44Nnw1NDMuMzc=)"><path d="m522.77 238.71-1.66-.57-1.67-.57-1.67-.57-1.68-.55-1.68-.55-1.68-.53-1.68-.53-1.69-.53-1.69-.51-1.7-.51-1.69-.49-1.71-.5-1.7-.48-1.71-.47-1.71-.47-1.71-.46-1.72-.45-1.72-.44-1.72-.44-1.73-.42-1.73-.42-1.74-.42-1.73-.4-1.74-.39-1.75-.39-1.74-.38-1.75-.37-1.76-.37-1.76-.35-1.76-.35-1.76-.34-1.77-.33-1.77-.33-1.77-.31-1.77-.31-1.78-.3-1.79-.3-1.78-.28-1.79-.28-1.8-.27-1.79-.26-1.8-.25-1.8-.24-1.81-.24-1.81-.23-1.81-.22-1.82-.21-1.82-.21-1.82-.2-1.82-.19-1.83-.18-1.84-.17-1.83-.17-1.84-.16-1.84-.15-1.85-.14-1.85-.13-1.85-.13-1.85-.12-1.86-.11-1.86-.1-1.87-.1-1.87-.08-1.87-.08-1.87-.07-1.88-.06-1.88-.06-1.89-.05-1.88-.04-1.9-.03-1.89-.02-1.9-.02h-3.8l-1.91.01-1.91.01-1.91.03-1.92.03-1.92.04-1.93.05-1.92.05-1.93.07-1.94.07-1.94.08-1.94.09-1.94.09-1.95.1-1.95.12-1.95.11-1.96.13-1.96.14-1.96.14-1.97.15-1.97.16-1.97.17-1.97.17-1.98.18-1.99.19-1.98.2m-75.67 80.47 1.34-.68 1.33-.68 1.31-.68 1.3-.69 1.29-.69 1.28-.69 1.27-.69 1.26-.7 1.24-.7 1.23-.7 1.22-.7 1.21-.71 1.2-.71 1.19-.72 1.17-.71 1.16-.72 1.15-.72 1.14-.73 1.13-.72 1.12-.73 1.1-.74 1.09-.73 1.08-.74 1.07-.74 1.06-.75 1.04-.74 1.04-.75 1.02-.75 1.01-.76 1-.76.98-.76.98-.76.96-.76.95-.77.94-.77.93-.78.92-.78.9-.77.89-.79.89-.78.87-.79.85-.79.85-.79.83-.8.83-.8.81-.8.8-.81.78-.8.78-.81.77-.82.75-.81.74-.82.73-.82.72-.82.7-.83.69-.83.69-.83.67-.84.66-.84.64-.84.64-.84.62-.85.62-.84.6-.86.58-.85.58-.86.57-.86.55-.86.54-.86.53-.87.52-.87.51-.88.49-.87.49-.88.47-.88.46-.89.45-.89.43-.89.43-.89.41-.89.4-.9.39-.9.38-.91.37-.9.35-.91.34-.92.34-.91.31-.92.31-.92.3-.92.28-.93.28-.93.26-.93.25-.93.23-.94.23-.94.21-.94.21-.95.19-.95m-75.67 80.47-1.26.64-1.24.64-1.24.64-1.23.65-1.21.64-1.21.65-1.19.66-1.18.65-1.17.66-1.16.66-1.15.67-1.14.66-1.13.67-1.12.67-1.1.68-1.09.67-1.09.68-1.07.68-1.06.69-1.05.69-1.04.69-1.03.69-1.01.69-1.01.7-1 .7-.98.7-.97.71-.96.71-.95.71-.94.71-.93.72-.92.71-.91.73-.89.72-.89.72-.87.73-.86.73-.86.74-.84.74-.83.73-.81.75-.81.74-.8.75-.78.75-.78.75-.76.75-.76.76-.74.76-.73.76-.72.77-.7.77-.7.77-.69.77-.67.77-.67.78-.65.78-.64.79-.64.78-.62.79-.6.79-.6.8-.59.79-.58.8-.56.8-.56.81-.54.8-.53.81-.52.81-.51.82-.5.82-.49.82-.48.82-.46.82-.46.83-.44.83-.43.83-.43.84-.41.84-.4.84-.39.84-.37.85-.37.84-.36.86-.34.85-.34.86-.32.85-.31.87-.3.86-.29.87-.28.86-.27.88-.25.87-.25.88-.23.88-.23.88-.21.88-.2.89-.19.89-.18.89m2.92-214.08 1.45.59 1.46.58 1.45.58 1.46.59 1.45.58 1.45.59 1.46.58 1.45.59 1.46.58 1.45.59 1.46.58 1.45.59 1.45.58 1.46.59 1.45.58 1.46.58 1.45.59 1.45.58 1.46.59 1.45.58 1.46.59 1.45.58 1.46.59 1.45.58 1.45.59 1.46.58 1.45.58 1.46.59 1.45.58 1.46.59 1.45.58 1.45.59 1.46.58 1.45.59 1.46.58 1.45.59 1.45.58 1.46.58 1.45.59 1.46.58 1.45.59 1.46.58 1.45.59 1.45.58 1.46.59 1.45.58 1.46.59 1.45.58 1.46.58 1.45.59 1.45.58 1.46.59 1.45.58 1.46.59 1.45.58 1.46.59 1.45.58 1.45.59 1.46.58 1.45.58 1.46.59 1.45.58 1.45.59 1.46.58 1.45.59 1.46.58 1.45.59 1.46.58 1.45.59 1.45.58 1.46.59 1.45.58 1.46.58 1.45.59 1.46.58 1.45.59 1.45.58 1.46.59 1.45.58 1.46.59 1.45.58 1.45.59 1.46.58 1.45.58 1.46.59 1.45.58 1.46.59 1.45.58 1.45.59 1.46.58 1.45.59 1.46.58 1.45.59 1.46.58 1.45.58 1.45.59 1.46.58 1.45.59 1.46.58" style="stroke-width:1.07;stroke:#000000;stroke-opacity:0.10;stroke-linecap:butt"/><path d="m522.77 238.71-1.72-.44-1.72-.45-1.72-.44-1.73-.43-1.72-.43-1.73-.42-1.73-.41-1.74-.42-1.73-.4-1.74-.4-1.74-.4-1.75-.39-1.74-.38-1.75-.38-1.75-.38-1.75-.37-1.75-.36-1.76-.36-1.75-.35-1.76-.35-1.77-.34-1.76-.34-1.77-.33-1.77-.33-1.77-.32-1.77-.32-1.78-.31-1.77-.3-1.78-.3-1.79-.3-1.78-.29-1.79-.28-1.78-.28-1.8-.28-1.79-.27-1.79-.26-1.8-.26-1.8-.25-1.8-.25-1.8-.24-1.81-.24-1.81-.23-1.81-.23-1.81-.22-1.82-.21-1.81-.21-1.82-.21-1.82-.2-1.83-.19-1.82-.19-1.83-.19-1.83-.18-1.83-.17-1.84-.17-1.83-.16-1.84-.16-1.84-.15-1.85-.15-1.84-.14-1.85-.14-1.85-.13-1.85-.13-1.85-.12-1.86-.11-1.86-.11-1.86-.11-1.86-.1-1.87-.09-1.86-.09-1.87-.09-1.88-.08-1.87-.07-1.87-.07-1.88-.06-1.88-.06-1.89-.05-1.88-.05-1.89-.04-1.89-.04-1.89-.03-1.89-.02-1.9-.02-1.89-.02-1.9-.01h-5.72l-1.9.01-1.92.02-1.91.02-1.91.03-1.92.03-1.92.04-1.92.04-1.93.05-1.92.05-1.93.06-1.93.06-1.93.07" style="stroke-width:1.07;stroke:#000000;stroke-opacity:0.10;stroke-linecap:butt"/><path d="m522.77 238.71-1.77-.32-1.77-.31-1.78-.32-1.77-.31-1.78-.3-1.78-.31-1.78-.3-1.78-.3-1.78-.3-1.78-.3-1.78-.29-1.79-.29-1.78-.29-1.79-.28-1.78-.28-1.79-.28-1.79-.28-1.79-.27-1.79-.28-1.8-.26-1.79-.27-1.8-.26-1.79-.26-1.8-.26-1.8-.26-1.8-.25-1.8-.25-1.8-.25-1.8-.24-1.81-.25-1.8-.24-1.81-.23-1.8-.24-1.81-.23-1.81-.23-1.81-.23-1.81-.22-1.82-.22-1.81-.22-1.81-.22-1.82-.21-1.82-.21-1.81-.21-1.82-.2-1.82-.21-1.82-.2-1.83-.19-1.82-.2-1.83-.19-1.82-.19-1.83-.19-1.83-.18-1.82-.18-1.83-.18-1.84-.18-1.83-.17-1.83-.17-1.83-.17-1.84-.17-1.84-.16-1.83-.16-1.84-.16-1.84-.15-1.84-.16-1.85-.15-1.84-.14-1.84-.15-1.85-.14-1.84-.14-1.85-.14-1.85-.13-1.85-.13-1.85-.13-1.85-.13-1.86-.12-1.85-.12-1.85-.12-1.86-.12-1.86-.11-1.86-.11-1.86-.11-1.86-.1-1.86-.11-1.86-.1-1.87-.09-1.86-.1-1.87-.09-1.86-.09-1.87-.09-1.87-.08-1.87-.08-1.87-.08-1.88-.08-1.87-.07-1.87-.07-1.88-.07-1.88-.06-1.87-.07-1.88-.06m-75.67 80.47 1.11-.73 1.1-.74 1.1-.73 1.08-.74 1.08-.74 1.08-.74 1.06-.74 1.06-.74 1.06-.74 1.04-.75 1.04-.75 1.03-.75 1.02-.75 1.02-.75 1.01-.76 1-.75 1-.76.99-.76.98-.76.98-.77.96-.76.97-.77.95-.77.95-.77.94-.77.93-.77.92-.78.92-.77.92-.78.9-.78.9-.78.89-.78.88-.79.88-.78.87-.79.86-.79.86-.79.84-.8.85-.79.83-.8.83-.79.82-.8.81-.81.81-.8.8-.8.79-.81.79-.81.77-.81.78-.81.76-.81.76-.81.75-.82.74-.82.74-.82.73-.82.72-.82.71-.83.71-.82.7-.83.7-.83.68-.83.68-.83.68-.84.66-.83.66-.84.65-.84.65-.84.64-.84.63-.85.62-.84.62-.85.61-.85.6-.85.6-.85.58-.86.59-.85.57-.86.57-.86.56-.86.55-.86.55-.87.54-.86.53-.87.53-.87.52-.87.51-.87.5-.88.5-.87.49-.88.48-.88.48-.88.47-.88.46-.89.46-.88.44-.89.45-.89.43-.89.43-.89.42-.9m-75.67 80.47-1.04.69-1.04.69-1.03.69-1.02.69-1.02.7-1.01.69-1 .7-1 .7-.99.7-.98.71-.98.7-.97.71-.97.7-.95.71-.95.71-.95.71-.94.72-.93.71-.92.72-.92.72-.91.72-.9.72-.9.72-.89.73-.89.72-.88.73-.87.73-.86.73-.86.73-.85.74-.85.73-.84.74-.83.74-.82.74-.82.74-.81.74-.81.75-.8.74-.79.75-.79.75-.77.75-.78.76-.76.75-.76.76-.75.75-.75.76-.74.76-.73.76-.73.77-.72.76-.71.77-.71.77-.7.77-.69.77-.69.77-.68.78-.67.77-.67.78-.66.78-.65.78-.65.78-.64.79-.63.78-.63.79-.62.79-.61.79-.61.79-.6.79-.59.8-.59.79-.58.8-.57.8-.57.8-.56.8-.56.81-.54.8-.54.81-.54.81-.53.81-.52.81-.51.81-.51.82-.5.82-.5.81-.48.82-.48.83-.48.82-.47.82-.46.83-.45.83-.45.83-.44.83-.44.83-.43.83-.42.84-.42.83-.4.84-.41.84-.39.84" style="stroke-width:1.07;stroke:#000000;stroke-opacity:0.10;stroke-linecap:butt"/><path d="m522.77 238.71-1.82-.19-1.83-.19-1.82-.19-1.83-.18-1.83-.19-1.82-.19-1.83-.19-1.82-.19-1.83-.19-1.82-.19-1.83-.19-1.83-.19-1.82-.19-1.83-.19-1.82-.19-1.83-.19-1.82-.19-1.83-.19-1.82-.19-1.83-.19-1.83-.19-1.82-.19-1.83-.19-1.82-.19-1.83-.19-1.82-.19-1.83-.19-1.83-.19-1.82-.18-1.83-.19-1.82-.19-1.83-.19-1.82-.19-1.83-.19-1.82-.19-1.83-.19-1.83-.19-1.82-.19-1.83-.19-1.82-.19-1.83-.19-1.82-.19-1.83-.19-1.82-.19-1.83-.19-1.83-.19-1.82-.19-1.83-.19-1.82-.19-1.83-.19-1.82-.19-1.83-.19-1.83-.19-1.82-.19-1.83-.18-1.82-.19-1.83-.19-1.82-.19-1.83-.19-1.82-.19-1.83-.19-1.83-.19-1.82-.19-1.83-.19-1.82-.19-1.83-.19-1.82-.19-1.83-.19-1.83-.19-1.82-.19-1.83-.19-1.82-.19-1.83-.19-1.82-.19-1.83-.19-1.82-.19-1.83-.19-1.83-.19-1.82-.19-1.83-.18-1.82-.19-1.83-.19-1.82-.19-1.83-.19-1.82-.19-1.83-.19-1.83-.19-1.82-.19-1.83-.19-1.82-.19-1.83-.19-1.82-.19-1.83-.19-1.83-.19-1.82-.19-1.83-.19-1.82-.19-1.83-.19-1.82-.19" style="stroke-width:1.07;stroke:#000000;stroke-opacity:0.10;stroke-linecap:butt"/><path d="m522.77 238.71-1.88-.06-1.88-.06-1.87-.07-1.88-.06-1.87-.07-1.88-.08-1.87-.07-1.87-.08-1.87-.08-1.87-.09-1.87-.08-1.87-.09-1.86-.1-1.87-.09-1.86-.1-1.86-.1-1.86-.1-1.87-.1-1.85-.11-1.86-.11-1.86-.12-1.86-.11-1.85-.12-1.86-.12-1.85-.12-1.85-.13-1.85-.13-1.85-.13-1.85-.14-1.85-.13-1.84-.14-1.85-.14-1.84-.15-1.85-.15-1.84-.15-1.84-.15-1.84-.15-1.84-.16-1.83-.16-1.84-.17-1.84-.16-1.83-.17-1.83-.17-1.84-.17-1.83-.18-1.83-.18-1.83-.18-1.82-.19-1.83-.18-1.83-.19-1.82-.2-1.82-.19-1.83-.2-1.82-.2-1.82-.2-1.82-.21-1.82-.2-1.81-.21-1.82-.22-1.81-.21-1.82-.22-1.81-.22-1.81-.23-1.81-.22-1.81-.23-1.81-.24-1.8-.23-1.81-.24-1.81-.24-1.8-.24-1.8-.24-1.8-.25-1.8-.25-1.8-.26-1.8-.25-1.8-.26-1.8-.26-1.79-.26-1.79-.27-1.8-.27-1.79-.27-1.79-.27-1.79-.28-1.79-.28-1.78-.28-1.79-.29-1.79-.28-1.78-.29-1.78-.3-1.79-.29-1.78-.3-1.78-.3-1.77-.3-1.78-.31-1.78-.31-1.77-.31-1.78-.31-1.77-.32-1.77-.32m-75.67 80.47.88-.79.88-.78.87-.79.87-.79.87-.79.87-.78.87-.79.86-.79.86-.79.86-.79.85-.79.86-.8.85-.79.85-.79.84-.79.85-.8.84-.79.84-.8.83-.79.84-.8.83-.8.83-.79.83-.8.82-.8.83-.8.82-.8.81-.8.82-.8.81-.8.81-.8.81-.81.81-.8.8-.8.8-.81.8-.8.8-.8.8-.81.79-.81.79-.8.79-.81.78-.81.78-.81.79-.81.77-.81.78-.81.77-.81.77-.81.77-.81.77-.81.76-.81.77-.82.76-.81.75-.82.76-.81.75-.82.75-.81.75-.82.74-.82.75-.81.74-.82.74-.82.73-.82.74-.82.73-.82.73-.82.72-.82.73-.83.72-.82.72-.82.72-.83.71-.82.72-.82.71-.83.7-.83.71-.82.7-.83.71-.83.69-.83.7-.82.69-.83.7-.83.69-.83.68-.84.69-.83.68-.83.68-.83.68-.84.67-.83.68-.83.67-.84.66-.83.67-.84.66-.84.67-.83.65-.84.66-.84.66-.84.65-.84.65-.84m-75.67 80.47-.82.74-.83.74-.82.74-.82.74-.82.74-.82.74-.81.75-.82.74-.8.74-.81.75-.81.74-.8.75-.8.74-.8.75-.8.75-.79.75-.79.74-.79.75-.79.75-.79.75-.78.75-.78.75-.78.75-.78.75-.77.76-.77.75-.77.75-.77.75-.77.76-.76.75-.76.76-.76.75-.76.76-.75.76-.76.75-.75.76-.74.76-.75.76-.74.76-.75.76-.73.76-.74.76-.74.76-.73.76-.73.77-.73.76-.72.76-.73.77-.72.76-.72.77-.72.76-.71.77-.71.77-.71.76-.71.77-.71.77-.7.77-.71.77-.69.77-.7.77-.7.77-.69.77-.69.77-.69.77-.69.78-.68.77-.68.77-.68.78-.68.77-.67.78-.68.77-.67.78-.67.78-.66.78-.67.77-.66.78-.66.78-.66.78-.65.78-.66.78-.65.78-.65.78-.64.79-.65.78-.64.78-.64.79-.64.78-.63.79-.64.78-.63.79-.63.78-.63.79-.62.79-.62.79-.62.78-.62.79-.62.79-.61.79-.61.79" style="stroke-width:1.07;stroke:#000000;stroke-opacity:0.10;stroke-linecap:butt"/><path d="m266.37 300.41.65-.84.65-.84.66-.84.65-.84.66-.83.67-.84.66-.84.66-.83.67-.84.67-.83.68-.84.67-.83.68-.84.68-.83.68-.83.69-.83.68-.83.69-.83.69-.83.7-.83.7-.83.69-.83.71-.83.7-.83.7-.82.71-.83.71-.82.72-.83.71-.82.72-.83.72-.82.72-.82.72-.82.73-.83.73-.82.73-.82.74-.82.73-.82.74-.82.74-.81.74-.82.75-.82.75-.82.75-.81.75-.82.76-.81.75-.82.76-.81.76-.81.77-.82.77-.81.76-.81.78-.81.77-.81.78-.81.77-.81.78-.81.79-.81.78-.81.79-.8.79-.81.79-.81.8-.8.79-.81.8-.8.81-.81.8-.8.81-.8.81-.81.81-.8.81-.8.82-.8.81-.8.82-.8.83-.8.82-.8.83-.79.83-.8.83-.8.84-.79.83-.8.84-.79.84-.8.85-.79.84-.8.85-.79.85-.79.86-.79.85-.8.86-.79.86-.79.86-.79.87-.78.87-.79.86-.79.88-.79.87-.79.88-.78.88-.79m-75.67 80.47-.61.79-.61.79-.62.79-.62.79-.62.79-.62.78-.62.79-.63.79-.63.79-.63.78-.63.79-.64.78-.64.79-.64.78-.64.78-.65.79-.64.78-.65.78-.65.78-.66.78-.65.78-.66.78-.66.78-.66.78-.67.78-.66.78-.67.77-.67.78-.67.77-.68.78-.68.78-.68.77-.68.77-.68.78-.69.77-.69.77-.69.77-.69.78-.7.77-.69.77-.7.77-.71.77-.7.76-.71.77-.7.77-.72.77-.71.76-.71.77-.72.77-.72.76-.72.77-.73.76-.72.76-.73.77-.73.76-.73.76-.74.76-.73.76-.74.76-.75.76-.74.76-.75.76-.74.76-.75.76-.76.76-.75.75-.76.76-.76.75-.76.76-.76.75-.77.76-.77.75-.77.76-.77.75-.77.75-.78.75-.78.75-.78.75-.78.75-.79.75-.79.75-.79.75-.79.75-.79.75-.8.74-.8.75-.8.74-.8.75-.81.74-.8.75-.81.74-.82.75-.81.74-.82.74-.82.74-.82.74-.82.74-.82.74-.83.74" style="stroke-width:1.07;stroke:#000000;stroke-opacity:0.10;stroke-linecap:butt"/><path d="m266.37 300.41.42-.9.43-.89.43-.89.45-.89.44-.88.46-.89.46-.88.47-.89.48-.88.48-.88.49-.87.5-.88.5-.87.51-.88.52-.87.53-.87.53-.86.54-.87.55-.86.55-.87.56-.86.57-.86.57-.85.58-.86.59-.85.6-.86.6-.85.61-.85.62-.84.62-.85.63-.84.64-.85.65-.84.65-.84.66-.84.66-.83.68-.84.68-.83.68-.83.7-.83.7-.83.71-.82.71-.83.72-.82.73-.82.74-.82.74-.82.75-.81.76-.82.76-.81.78-.81.77-.81.79-.81.79-.81.8-.8.81-.8.81-.8.82-.8.83-.8.83-.8.84-.79.85-.8.86-.79.86-.79.87-.78.88-.79.88-.78.89-.79.9-.78.9-.78.92-.78.91-.77.93-.78.93-.77.94-.77.95-.77.95-.77.96-.77.97-.76.98-.76.98-.77.99-.76.99-.75 1.01-.76 1.01-.75 1.02-.76 1.02-.75 1.03-.75 1.04-.75 1.04-.74 1.06-.75 1.06-.74 1.06-.74 1.07-.74 1.09-.74 1.08-.74 1.1-.73 1.1-.74 1.11-.73m-75.67 80.47-.39.84-.4.84-.41.84-.42.84-.42.83-.43.83-.43.84-.45.83-.44.83-.46.82-.46.83-.47.82-.47.83-.49.82-.48.82-.5.82-.5.81-.51.82-.51.81-.52.81-.53.81-.54.81-.54.81-.54.81-.56.8-.56.8-.57.8-.57.8-.58.8-.59.8-.59.79-.6.79-.61.8-.61.79-.62.79-.63.78-.63.79-.64.78-.65.78-.65.78-.66.78-.67.78-.67.78-.68.77-.69.77-.69.78-.7.77-.71.76-.71.77-.72.77-.73.76-.73.76-.74.76-.75.76-.75.76-.76.75-.76.76-.77.75-.78.75-.79.75-.79.75-.8.75-.81.74-.81.74-.82.74-.82.74-.83.74-.84.74-.85.74-.85.73-.86.73-.86.73-.87.73-.88.73-.89.73-.89.72-.9.72-.9.72-.91.72-.92.72-.92.72-.93.71-.94.72-.95.71-.95.71-.95.71-.97.71-.97.7-.98.71-.98.7-.99.7-1 .7-1 .7-1.01.7-1.02.69-1.02.69-1.03.7-1.04.69-1.04.68M55.97 524.17l.7-.75.7-.74.7-.75.7-.74.7-.75.7-.74.7-.75.7-.74.7-.75.7-.74.7-.75.7-.74.7-.75.7-.74.7-.74.7-.75.7-.74.7-.75.7-.74.71-.75.7-.74.7-.75.7-.74.7-.75.7-.74.7-.75.7-.74.7-.75.7-.74.7-.75.7-.74.7-.75.7-.74.7-.75.7-.74.7-.75.7-.74.7-.75.7-.74.7-.75.7-.74.7-.75.7-.74.7-.74.7-.75.7-.74.71-.75.7-.74.7-.75.7-.74.7-.75.7-.74.7-.75.7-.74.7-.75.7-.74.7-.75.7-.74.7-.75.7-.74.7-.75.7-.74.7-.75.7-.74.7-.75.7-.74.7-.75.7-.74.7-.75.7-.74.7-.74.7-.75.7-.74.71-.75.7-.74.7-.75.7-.74.7-.75.7-.74.7-.75.7-.74.7-.75.7-.74.7-.75.7-.74.7-.75.7-.74.7-.75.7-.74.7-.75.7-.74.7-.75.7-.74.7-.75.7-.74.7-.75.7-.74.7-.75.7-.74" style="stroke-width:1.07;stroke:#000000;stroke-opacity:0.10;stroke-linecap:butt"/><path d="m266.37 300.41.19-.95.21-.94.21-.95.23-.94.23-.93.25-.94.26-.93.28-.93.28-.93.3-.92.3-.92.32-.92.34-.91.34-.91.35-.91.37-.91.38-.9.39-.91.4-.89.41-.9.43-.89.43-.89.45-.89.46-.88.47-.89.49-.88.49-.87.51-.88.52-.87.53-.86.54-.87.55-.86.57-.86.57-.86.59-.85.6-.85.62-.85.62-.85.64-.84.64-.84.66-.84.67-.84.68-.83.7-.83.7-.82.72-.83.73-.82.74-.82.75-.81.77-.81.77-.81.79-.81.8-.81.81-.8.83-.8.83-.79.85-.8.85-.79.87-.79.89-.78.89-.78.9-.78.92-.78.93-.77.94-.78.95-.76.96-.77.98-.76.98-.76 1-.76 1.01-.76 1.02-.75 1.04-.75 1.04-.74 1.06-.75 1.07-.74 1.08-.74 1.09-.73 1.1-.73 1.12-.73 1.13-.73 1.14-.73 1.15-.72 1.16-.72 1.17-.71 1.19-.72 1.2-.71 1.2-.7 1.23-.71 1.23-.7 1.24-.7 1.26-.7 1.27-.69 1.27-.69 1.3-.69 1.3-.69 1.31-.68 1.33-.68 1.34-.68m-75.67 80.47-.18.89-.19.89-.2.89-.21.88-.23.89-.23.88-.25.87-.25.88-.27.87-.28.87-.29.86-.3.87-.31.86-.32.86-.34.85-.34.86-.36.85-.37.85-.37.84-.39.85-.4.84-.41.83-.42.84-.44.83-.44.83-.46.83-.46.82-.48.83-.49.82-.5.81-.51.82-.52.81-.53.81-.54.81-.56.8-.56.8-.58.8-.59.8-.59.79-.61.79-.62.79-.64.79-.64.78-.65.78-.67.78-.67.77-.69.78-.69.77-.71.76-.72.77-.73.76-.74.76-.76.76-.76.75-.77.76-.79.75-.8.74-.8.75-.82.74-.83.74-.84.73-.86.74-.86.73-.87.73-.89.72-.89.73-.91.72-.92.72-.93.71-.93.72-.96.71-.96.7-.97.71-.98.7-1 .7-1.01.7-1.01.69-1.03.7-1.04.69-1.05.68-1.06.69-1.07.68-1.09.68-1.09.68-1.1.67-1.12.67-1.13.67-1.14.67-1.14.66-1.16.66-1.18.66-1.18.66-1.19.65-1.21.65-1.21.65-1.23.64-1.23.65-1.25.64-1.26.63m327.62-137.44-1.93.07-1.93.07-1.93.05-1.93.06-1.92.05-1.92.04-1.92.04-1.92.03-1.91.03-1.92.02-1.91.01-1.91.01-1.9.01h-3.81l-1.9-.01-1.9-.02-1.89-.02-1.89-.03-1.9-.03-1.88-.03-1.89-.05-1.89-.04-1.88-.06-1.88-.05-1.88-.07-1.87-.06-1.88-.08-1.87-.08-1.87-.08-1.86-.09-1.87-.09-1.86-.1-1.86-.11-1.86-.11-1.86-.12-1.85-.12-1.85-.12-1.85-.13-1.85-.14-1.85-.14-1.84-.15-1.84-.15-1.84-.16-1.83-.16-1.84-.17-1.83-.18-1.83-.18-1.83-.18-1.82-.19-1.83-.19-1.82-.2-1.82-.21-1.81-.21-1.82-.22-1.81-.22-1.81-.22-1.81-.24-1.81-.23-1.8-.25-1.8-.24-1.8-.26-1.8-.25-1.79-.27-1.8-.27-1.79-.27-1.79-.28-1.78-.28-1.79-.29-1.78-.3-1.78-.3-1.78-.31-1.77-.31-1.77-.31-1.77-.33-1.77-.32-1.77-.33-1.76-.34-1.77-.34-1.76-.35-1.75-.36-1.76-.35-1.75-.37-1.76-.37-1.74-.37-1.75-.38-1.75-.39-1.74-.39-1.74-.39-1.74-.4-1.73-.41-1.74-.41-1.73-.42-1.73-.42-1.73-.43-1.72-.43-1.72-.44-1.72-.44-1.72-.45" style="stroke-width:1.07;stroke:#000000;stroke-opacity:0.10;stroke-linecap:butt"/><path d="m417.14 140.07-.75.8-.76.81-.76.81-.76.8-.76.81-.76.81-.76.81-.75.8-.76.81-.76.81-.76.8-.76.81-.76.81-.76.8-.76.81-.75.81-.76.8-.76.81-.76.81-.76.8-.76.81-.76.81-.75.8-.76.81-.76.81-.76.81-.76.8-.76.81-.76.81-.76.8-.75.81-.76.81-.76.8-.76.81-.76.81-.76.8-.76.81-.75.81-.76.8-.76.81-.76.81-.76.8-.76.81-.76.81-.76.8-.75.81-.76.81-.76.81-.76.8-.76.81-.76.81-.76.8-.75.81-.76.81-.76.8-.76.81-.76.81-.76.8-.76.81-.76.81-.75.8-.76.81-.76.81-.76.8-.76.81-.76.81-.76.8-.75.81-.76.81-.76.81-.76.8-.76.81-.76.81-.76.8-.76.81-.75.81-.76.8-.76.81-.76.81-.76.8-.76.81-.76.81-.75.8-.76.81-.76.81-.76.8-.76.81-.76.81-.76.8-.76.81-.75.81-.76.81-.76.8-.76.81-.76.81-.76.8-.76.81-.75.81-.76.8" style="stroke-width:1.07;stroke:#000000;stroke-opacity:0.10;stroke-linecap:butt"/><path d="m522.77 238.71-1.98.2-1.99.19-1.98.19-1.97.17-1.98.17-1.97.16-1.96.15-1.97.14-1.96.13-1.95.13-1.96.12-1.95.11-1.94.11-1.95.09-1.94.09-1.93.08-1.94.07-1.93.06-1.92.06-1.93.05-1.92.04-1.92.03-1.91.02-1.91.02-1.91.01h-1.9l-1.9-.01-1.9-.01-1.9-.03-1.89-.03-1.89-.04-1.88-.04-1.88-.06-1.88-.06-1.87-.07-1.88-.08-1.86-.09-1.87-.09-1.86-.11-1.86-.11-1.85-.11-1.86-.13-1.84-.13-1.85-.15-1.84-.15-1.84-.15-1.84-.17-1.83-.17-1.83-.19-1.82-.19-1.82-.19-1.82-.21-1.82-.21-1.81-.22-1.81-.23-1.81-.24-1.8-.24-1.8-.26-1.8-.26-1.79-.27-1.79-.27-1.78-.29-1.79-.29-1.78-.3-1.77-.31-1.78-.32-1.77-.32-1.76-.33-1.77-.34-1.76-.35-1.75-.36-1.76-.36-1.75-.37-1.74-.38-1.75-.39-1.74-.39-1.74-.41-1.73-.41-1.73-.42-1.73-.43-1.72-.43-1.72-.44-1.72-.46-1.71-.45-1.71-.47-1.71-.48-1.71-.48-1.7-.49-1.7-.5-1.69-.5-1.69-.52-1.69-.52-1.68-.53-1.69-.54-1.67-.54-1.68-.56-1.67-.56-1.67-.57-1.66-.58M195.15 376.15l-1.24.63-1.22.63-1.21.63-1.21.63-1.19.64-1.18.63-1.17.64-1.16.65-1.15.64-1.13.65-1.13.65-1.12.66-1.1.65-1.1.66-1.08.66-1.07.66-1.07.67-1.05.67-1.04.67-1.03.67-1.02.68-1 .68-1 .68-.99.69-.97.68-.97.69-.95.69-.95.7-.93.69-.92.7-.91.7-.9.71-.89.71-.88.7-.87.72-.85.71-.85.72-.83.72-.83.72-.81.73-.8.72-.8.73-.78.73-.77.74-.76.74-.75.74-.73.74-.73.75-.72.74-.7.75-.7.76-.68.75-.67.76-.67.76-.65.76-.64.77-.63.77-.62.77-.6.77-.6.78-.59.77-.57.79-.57.78-.55.78-.55.79-.53.79-.52.8-.51.79-.5.8-.49.8-.48.81-.47.8-.46.81-.44.81-.44.82-.42.82-.42.81-.4.83-.39.82-.38.83-.37.83-.36.83-.35.83-.34.84-.33.84-.31.84-.31.85-.29.84-.29.85-.27.85-.26.86-.26.86-.24.86-.23.86-.22.86-.2.87-.2.87-.19.87-.18.88" style="stroke-width:1.07;stroke:#000000;stroke-opacity:0.10;stroke-linecap:butt"/><path d="m195.15 376.15-1.03.68-1.01.68-1.01.67-1.01.68-.99.69-.99.68-.99.68-.98.69-.97.69-.96.69-.96.69-.95.69-.95.69-.94.7-.93.69-.92.7-.92.7-.92.7-.9.71-.9.7-.9.71-.88.7-.88.71-.88.71-.87.72-.86.71-.85.71-.85.72-.84.72-.84.72-.82.72-.83.72-.81.73-.81.72-.8.73-.8.73-.79.73-.78.73-.78.73-.77.74-.76.74-.76.73-.75.74-.75.74-.74.75-.73.74-.72.75-.72.74-.71.75-.71.75-.7.75-.69.76-.69.75-.67.76-.68.76-.66.76-.66.76-.66.76-.65.76-.64.77-.63.77-.63.77-.62.77-.61.77-.61.77-.6.78-.6.77-.59.78-.58.78-.58.78-.57.78-.56.79-.55.78-.55.79-.55.79-.53.79-.54.79-.52.79-.52.8-.51.79-.5.8-.5.8-.49.8-.49.8-.48.81-.47.8-.46.81-.46.81-.46.81-.44.81-.44.81-.43.82-.43.81-.42.82-.42.82-.4.82-.4.82-.4.82-.39.83" style="stroke-width:1.07;stroke:#000000;stroke-opacity:0.10;stroke-linecap:butt"/><path d="m195.15 376.15-.81.73-.81.73-.81.72-.8.73-.81.73-.8.72-.8.73-.79.73-.8.73-.79.73-.79.73-.79.73-.78.73-.78.73-.79.74-.77.73-.78.73-.78.74-.77.73-.77.74-.77.73-.76.74-.77.73-.76.74-.76.74-.76.74-.75.74-.75.73-.75.74-.75.74-.75.74-.74.75-.75.74-.74.74-.73.74-.74.75-.73.74-.74.74-.72.75-.73.74-.73.75-.72.74-.72.75-.72.75-.71.75-.72.74-.71.75-.71.75-.71.75-.7.75-.71.75-.7.75-.7.76-.69.75-.7.75-.69.75-.69.76-.69.75-.69.76-.68.75-.68.76-.68.76-.68.75-.67.76-.68.76-.67.76-.67.75-.66.76-.67.76-.66.76-.66.77-.66.76-.65.76-.66.76-.65.76-.65.77-.64.76-.65.77-.64.76-.64.77-.64.76-.64.77-.63.77-.63.76-.63.77-.63.77-.63.77-.62.77-.62.77-.62.77-.62.77-.61.77-.62.78-.61.77-.6.77-.61.78-.6.77-.61.77-.6.78" style="stroke-width:1.07;stroke:#000000;stroke-opacity:0.10;stroke-linecap:butt"/><path d="m195.15 376.15-.6.78-.6.77-.61.78-.6.77-.61.78-.61.77-.61.77-.62.77-.62.77-.62.77-.62.77-.62.77-.63.77-.62.77-.63.77-.64.77-.63.76-.64.77-.63.77-.64.76-.65.77-.64.76-.65.77-.65.76-.65.76-.65.76-.66.77-.66.76-.66.76-.66.76-.66.76-.67.76-.67.76-.67.76-.67.75-.68.76-.68.76-.68.76-.68.75-.68.76-.69.75-.69.76-.69.75-.69.75-.69.76-.7.75-.7.75-.7.75-.7.75-.71.75-.71.75-.71.75-.71.75-.71.75-.72.75-.72.74-.72.75-.72.75-.73.74-.72.75-.73.74-.73.75-.74.74-.73.74-.74.74-.74.75-.74.74-.75.74-.74.74-.75.74-.75.74-.76.74-.75.74-.76.74-.76.73-.76.74-.76.74-.77.73-.77.74-.77.73-.77.74-.78.73-.77.73-.78.74-.78.73-.79.73-.78.73-.79.73-.79.73-.79.73-.79.73-.8.73-.8.73-.8.73-.8.73-.81.72-.8.73-.81.72-.82.73" style="stroke-width:1.07;stroke:#000000;stroke-opacity:0.10;stroke-linecap:butt"/><path d="m195.15 376.15-.39.83-.39.82-.41.83-.4.82-.42.81-.42.82-.42.82-.44.81-.44.82-.44.81-.45.81-.46.81-.47.8-.47.81-.48.8-.49.8-.49.81-.5.79-.5.8-.51.8-.52.79-.52.8-.53.79-.54.79-.54.79-.55.78-.56.79-.56.78-.57.78-.58.79-.58.77-.59.78-.59.78-.61.77-.6.78-.62.77-.62.77-.63.77-.63.76-.64.77-.65.76-.65.77-.66.76-.67.76-.67.75-.68.76-.69.76-.69.75-.7.75-.71.75-.71.75-.72.75-.72.74-.73.75-.74.74-.74.74-.76.74-.75.74-.77.74-.77.73-.77.73-.79.74-.79.73-.79.72-.81.73-.8.73-.82.72-.82.72-.83.73-.84.72-.84.71-.85.72-.85.72-.86.71-.87.71-.87.71-.88.71-.89.71-.89.7-.9.71-.91.7-.91.7-.92.7-.93.7-.93.7-.94.69-.95.7-.95.69-.96.69-.96.69-.97.68-.98.69-.98.69-.99.68-1 .68-1.01.68-1.01.68-1.01.67-1.03.68" style="stroke-width:1.07;stroke:#000000;stroke-opacity:0.10;stroke-linecap:butt"/><path d="m195.15 376.15-.18.88-.19.87-.19.87-.21.87-.22.86-.23.87-.24.86-.25.85-.27.86-.27.85-.28.85-.3.85-.3.84-.32.85-.33.83-.34.84-.34.84-.36.83-.38.83-.38.82-.39.83-.4.82-.42.82-.42.82-.44.81-.44.81-.46.81-.47.81-.47.8-.49.8-.5.8-.52.8-.52.79-.53.79-.54.79-.56.79-.56.78-.58.78-.59.78-.59.77-.61.78-.62.77-.63.77-.64.76-.65.76-.66.76-.68.76-.68.76-.7.75-.7.75-.72.75-.72.74-.74.75-.75.74-.76.73-.77.74-.78.73-.79.73-.81.73-.81.72-.82.73-.84.72-.85.71-.85.72-.87.71-.88.71-.89.71-.9.7-.91.7-.92.7-.93.7-.95.69-.95.69-.96.69-.98.69-.99.68-.99.68-1.01.68-1.02.68-1.03.67-1.04.67-1.05.67-1.06.67-1.08.66-1.08.66-1.09.66-1.11.66-1.12.65-1.12.65-1.14.65-1.15.65-1.16.64-1.17.64-1.18.64-1.19.63-1.2.64-1.22.63-1.22.62-1.24.63" style="stroke-width:1.07;stroke:#000000;stroke-opacity:0.10;stroke-linecap:butt"/><path d="m522.77 231.07 6.62 11.46h-13.24zm-256.4 62.17 6.21 10.75h-12.42zm-68.3-133.38 1.91 3.32h-3.83zm-142.1 362.1 1.91 3.31h-3.83zm361.17-384.1 1.92 3.31h-3.83z" style="stroke-width:0.71;stroke:none;fill:#00BA38"/><path d="M190.54 380.76h9.22v-9.22h-9.22z" style="stroke-width:0.71;stroke:none;fill:#619CFF"/><circle cx="342.04" cy="219.94" r="6.76" style="stroke-width:0.71;stroke:none;fill:#F8766D"/><circle cx="125.3" cy="450.43" r="1.42" style="stroke-width:0.71;stroke:none;fill:#F8766D"/><path d="m517.97 239.81 3.57-.82m-250.03 56.79-4.28 3.85m-74.52-132.92 4.48-3.88m224.5-30.05-3.96 6.36M200.5 371.52l-4.47 3.87m151.4-160.12-4.52 3.91m-223 235.92 4.52-3.91" style="stroke-width:0.53;stroke:#BFBFBF"/><path d="M461.63 245.52h54.18-.08l.34-.01.34-.07.33-.13.3-.17.27-.22.23-.26.19-.29.13-.32.09-.34.02-.35h0v-7.02h0l-.02-.35-.09-.34-.13-.32-.19-.29-.23-.26-.27-.22-.3-.18-.33-.12-.34-.07-.26-.01h-54.18l.26.01-.34-.01-.35.04-.33.1-.32.15-.28.19-.25.24-.21.28-.16.31-.11.33-.06.34-.01.18v7.02l.01-.17v.35l.06.34.11.33.16.31.21.28.25.24.28.19.32.15.33.1.35.04z" style="stroke-width:0.53;fill:#FFFFFF;fill-opacity:0.50"/><text x="488.72" y="241.92" lengthAdjust="spacingAndGlyphs" style="font-size:5.69px;font-family:&quot;Liberation Sans&quot;" text-anchor="middle" textLength="51.3">BENJAMIN J SMITH</text><path d="M258.03 295.78h41.8-.09l.35-.02.34-.07.32-.12.31-.17.26-.22.24-.26.18-.3.14-.32.08-.33.03-.35h0v-7.03h0l-.03-.34-.08-.34-.14-.32-.18-.3-.24-.26-.26-.22-.31-.17-.32-.12-.34-.07-.26-.02h-41.8l.26.02-.35-.02-.35.05-.33.09-.31.15-.29.2-.25.24-.21.28-.16.31-.11.33-.06.34v7.2-.17.34l.06.35.11.33.16.3.21.28.25.24.29.2.31.15.33.1.35.04z" style="stroke-width:0.53;fill:#FFFFFF;fill-opacity:0.50"/><text x="278.93" y="292.18" lengthAdjust="spacingAndGlyphs" style="font-size:5.69px;font-family:&quot;Liberation Sans&quot;" text-anchor="middle" textLength="38.92">MILTOWN LLC</text><path d="M153.1 186.25h54.95-.08l.34-.02.35-.07.32-.12.3-.18.27-.21.23-.27.19-.29.13-.32.09-.34.02-.34h0v-15.22h0l-.02-.35-.09-.34-.13-.32-.19-.29-.23-.26-.27-.22-.3-.18-.32-.12-.35-.07-.26-.01H153.1l.26.01-.34-.01-.35.04-.33.1-.32.15-.28.19-.25.24-.21.28-.16.31-.11.33-.06.34-.01.18v15.22l.01-.18v.35l.06.34.11.33.16.31.21.28.25.24.28.2.32.15.33.09.35.05z" style="stroke-width:0.53;fill:#FFFFFF;fill-opacity:0.50"/><text x="180.58" y="174.45" lengthAdjust="spacingAndGlyphs" style="font-size:5.69px;font-family:&quot;Liberation Sans&quot;" text-anchor="middle" textLength="52.07">BENJAMIN JEROME</text><text x="180.58" y="182.65" lengthAdjust="spacingAndGlyphs" style="font-size:5.69px;font-family:&quot;Liberation Sans&quot;" text-anchor="middle" textLength="17.95">SMITH</text><path d="M62.97 534.21h68.15-.08l.34-.02.34-.07.33-.12.3-.17.27-.22.23-.26.19-.3.13-.32.08-.33.03-.35h0v-15.22h0l-.03-.35-.08-.34-.13-.32-.19-.29-.23-.26-.27-.22-.3-.17-.33-.13-.34-.07-.26-.01H62.97l.26.01-.35-.01-.34.04-.34.1-.31.15-.29.19-.25.24-.21.28-.16.31-.11.33-.06.34v15.4-.17.34l.06.35.11.33.16.3.21.28.25.24.29.2.31.15.34.1.34.04z" style="stroke-width:0.53;fill:#FFFFFF;fill-opacity:0.50"/><text x="97.05" y="522.41" lengthAdjust="spacingAndGlyphs" style="font-size:5.69px;font-family:&quot;Liberation Sans&quot;" text-anchor="middle" textLength="65.28">BENJAMIN J SMITH DBA</text><text x="97.05" y="530.61" lengthAdjust="spacingAndGlyphs" style="font-size:5.69px;font-family:&quot;Liberation Sans&quot;" text-anchor="middle" textLength="21.18">MILTON</text><path d="M423.85 135.81H492h-.09l.35-.02.34-.07.33-.12.3-.17.27-.22.23-.26.18-.3.14-.32.08-.33.03-.35h0v-7.03h0l-.03-.34-.08-.34-.14-.32-.18-.29-.23-.27-.27-.21-.3-.18-.33-.12-.34-.07-.26-.02h-68.15l.26.02-.35-.02-.35.05-.33.09-.31.15-.29.2-.25.24-.21.28-.16.31-.11.33-.06.34v7.2-.17.34l.06.35.11.33.16.3.21.28.25.24.29.2.31.15.33.1.35.04z" style="stroke-width:0.53;fill:#FFFFFF;fill-opacity:0.50"/><text x="457.92" y="132.21" lengthAdjust="spacingAndGlyphs" style="font-size:5.69px;font-family:&quot;Liberation Sans&quot;" text-anchor="middle" textLength="65.28">BENJAMIN J SMITH DBA</text><path d="M179 371.52h67.22-.09l.35-.01.34-.07.32-.12.3-.18.27-.22.23-.26.19-.29.14-.32.08-.34.03-.35h0v-15.22h0l-.03-.34-.08-.34-.14-.32-.19-.29-.23-.26-.27-.22-.3-.18-.32-.12-.34-.07-.26-.02H179l.26.02-.35-.02-.34.05-.34.09-.31.15-.29.2-.25.24-.21.28-.16.31-.11.33-.06.34v15.39-.17.35l.06.34.11.33.16.31.21.28.25.24.29.2.31.14.34.1.34.04z" style="stroke-width:0.53;fill:#FFFFFF;fill-opacity:0.50"/><text x="212.61" y="359.73" lengthAdjust="spacingAndGlyphs" style="font-size:5.69px;font-family:&quot;Liberation Sans&quot;" text-anchor="middle" textLength="48.05">9037 N 86TH ST,</text><text x="212.61" y="367.92" lengthAdjust="spacingAndGlyphs" style="font-size:5.69px;font-family:&quot;Liberation Sans&quot;" text-anchor="middle" textLength="64.34">MILWAUKEE, WI 53224</text><path d="M325.94 215.27h67.22-.08l.34-.01.34-.07.33-.12.3-.18.27-.22.23-.26.19-.29.13-.32.09-.34.02-.35h0v-15.22h0l-.02-.34-.09-.34-.13-.32-.19-.29-.23-.27-.27-.22-.3-.17-.33-.12-.34-.07-.26-.02h-67.22l.27.02-.35-.02-.35.05-.33.09-.32.15-.28.2-.25.24-.21.28-.16.31-.11.33-.06.34-.01.17v15.22l.01-.17v.35l.06.34.11.33.16.31.21.28.25.24.28.19.32.15.33.1.35.04z" style="stroke-width:0.53;fill:#FFFFFF;fill-opacity:0.50"/><text x="359.55" y="203.48" lengthAdjust="spacingAndGlyphs" style="font-size:5.69px;font-family:&quot;Liberation Sans&quot;" text-anchor="middle" textLength="46.86">PO BOX 101021,</text><text x="359.55" y="211.67" lengthAdjust="spacingAndGlyphs" style="font-size:5.69px;font-family:&quot;Liberation Sans&quot;" text-anchor="middle" textLength="64.34">MILWAUKEE, WI 53210</text><path d="M74.16 474.64h67.22-.08l.34-.02.34-.07.33-.12.3-.17.27-.22.23-.26.19-.3.13-.32.09-.33.02-.35h0v-15.22h0l-.02-.35-.09-.34-.13-.32-.19-.29-.23-.26-.27-.22-.3-.17-.33-.13-.34-.07-.26-.01H74.16l.26.01-.34-.01-.35.04-.33.1-.32.15-.28.19-.25.24-.21.28-.16.31-.11.33-.06.34-.01.18v15.22l.01-.18v.35l.06.35.11.33.16.3.21.28.25.24.28.2.32.15.33.09.35.05z" style="stroke-width:0.53;fill:#FFFFFF;fill-opacity:0.50"/><text x="107.77" y="462.84" lengthAdjust="spacingAndGlyphs" style="font-size:5.69px;font-family:&quot;Liberation Sans&quot;" text-anchor="middle" textLength="48.05">9037 N 86TH ST,</text><text x="107.77" y="471.04" lengthAdjust="spacingAndGlyphs" style="font-size:5.69px;font-family:&quot;Liberation Sans&quot;" text-anchor="middle" textLength="64.34">MILWAUKEE, WI 53224</text></g><g clip-path="url(#cpMC4wMHw1NzYuMDB8MC4wMHw1NzYuMDA=)"><circle cx="194.24" cy="95.78" r="1.95" style="stroke-width:0.71;stroke:none;fill:#F8766D"/><path d="m270.59 92.74 2.63 4.56h-5.26z" style="stroke-width:0.71;stroke:none;fill:#00BA38"/><path d="M336.57 97.74h3.91v-3.91h-3.91z" style="stroke-width:0.71;stroke:none;fill:#619CFF"/><text x="208.36" y="98.81" lengthAdjust="spacingAndGlyphs" style="font-size:8.80px;font-family:&quot;Liberation Sans Narrow&quot;" textLength="48.12">mprop address</text><text x="284.71" y="98.81" lengthAdjust="spacingAndGlyphs" style="font-size:8.80px;font-family:&quot;Liberation Sans Narrow&quot;" textLength="39.69">owner name</text><text x="352.64" y="98.81" lengthAdjust="spacingAndGlyphs" style="font-size:8.80px;font-family:&quot;Liberation Sans Narrow&quot;" textLength="40.5">wdfi address</text><text x="32.63" y="64.23" lengthAdjust="spacingAndGlyphs" style="font-size:12.00px;font-family:&quot;Liberation Sans Narrow&quot;" textLength="252.23">includes 16 parcels, 30 units, and 5 distinct owner names.</text><text x="32.63" y="42.27" lengthAdjust="spacingAndGlyphs" style="font-size:18.00px;font-weight:bold;font-family:&quot;Liberation Sans Narrow&quot;" textLength="150.33">MILTOWN LLC Group</text></g></svg>