<svg xmlns="http://www.w3.org/2000/svg" width="768" height="768" viewBox="0 0 576 576"><g class="svglite"><defs><style><![CDATA[.svglite line,.svglite polyline,.svglite polygon,.svglite path,.svglite circle{fill:none;stroke:#000000;stroke-linecap:round;stroke-linejoin:round;stroke-miterlimit:10.00}.svglite text{white-space:pre}.svglite g.glyphgroup path{fill:inherit;stroke:none}]]></style></defs><rect width="100%" height="100%" style="stroke-linecap:round;stroke-linejoin:round;stroke-miterlimit:10.00;stroke:none;fill:#FFFFFF"/><defs><clipPath id="cpMC4wMHw1NzYuMDB8MC4wMHw1NzYuMDA="><path d="M0 0h576v576H0z"/></clipPath></defs><g clip-path="url(#cpMC4wMHw1NzYuMDB8MC4wMHw1NzYuMDA=)"><path d="M0 0h576v576H0z" style="stroke-width:1.07;stroke:none;fill:#FFFFFF"/></g><defs><clipPath id="cpMjkuODl8NTQ2LjExfDEyMi4xNHw1NDYuMTE="><path d="M29.89 122.14h516.22v423.97H29.89z"/></clipPath></defs><g clip-path="url(#cpMjkuODl8NTQ2LjExfDEyMi4xNHw1NDYuMTE=)"><path d="m243.99 431.64-.65-1.17-.66-1.16-.66-1.15-.66-1.15-.67-1.14-.68-1.14-.68-1.12-.68-1.13-.69-1.11-.7-1.11-.69-1.1-.71-1.09-.71-1.09-.71-1.08-.72-1.07-.72-1.07-.73-1.06-.73-1.06-.74-1.04-.74-1.04-.75-1.04-.75-1.02-.76-1.02-.76-1.02-.76-1-.77-1-.78-1-.78-.98-.79-.98-.79-.98-.79-.96-.8-.96-.81-.95-.81-.95-.81-.94-.82-.93-.82-.93-.83-.92-.84-.91-.83-.9-.85-.9-.85-.9-.85-.88-.86-.88-.86-.87-.87-.87-.87-.86-.88-.85-.88-.84-.88-.84-.9-.83-.89-.83-.9-.82-.91-.81-.91-.8-.91-.8-.93-.79-.92-.79-.93-.77-.94-.77-.93-.77-.95-.76-.95-.75-.95-.74-.96-.74-.97-.73-.96-.72-.98-.72-.98-.71-.98-.71-.99-.69-.99-.69-1-.69-1-.67-1.01-.67-1.01-.67-1.01-.65-1.03-.65-1.02-.65-1.03-.63-1.04-.63-1.04-.63-1.05-.61-1.05-.61-1.05-.6-1.06-.6-1.07-.59-1.07-.58-1.07-.58-1.08-.57-1.08-.56-1.09-.56-1.1-.54-1.1-.55-1.1-.53-1.11-.53-1.11-.52-1.12-.52-1.12-.51m87.78 83 1.29-.16 1.29-.17 1.29-.17 1.28-.19 1.28-.19 1.28-.21 1.27-.21 1.27-.22 1.27-.23 1.26-.23 1.26-.25 1.26-.25 1.25-.27 1.25-.27 1.25-.28 1.24-.29 1.24-.29 1.24-.31 1.23-.31 1.23-.33 1.23-.33 1.22-.34 1.22-.35 1.22-.36 1.21-.36 1.21-.38 1.21-.38 1.2-.39 1.2-.4 1.2-.41 1.19-.42 1.19-.42 1.19-.44 1.18-.44 1.18-.45 1.18-.46 1.17-.47 1.17-.48 1.17-.48 1.17-.5 1.16-.5 1.15-.51 1.16-.52 1.15-.53 1.14-.54 1.15-.54 1.14-.56 1.13-.56 1.14-.57 1.13-.58 1.12-.59 1.13-.6 1.12-.61 1.11-.61 1.12-.62 1.11-.64 1.1-.64 1.11-.64 1.1-.66 1.09-.67 1.1-.67 1.09-.69 1.08-.69 1.09-.7 1.08-.71 1.07-.71 1.08-.73 1.07-.73 1.06-.75 1.07-.75 1.06-.76 1.05-.77 1.06-.78 1.05-.78 1.04-.8 1.05-.8 1.04-.81 1.04-.82 1.03-.83 1.03-.84 1.03-.85 1.02-.85 1.02-.86 1.02-.88 1.01-.88 1.01-.88 1.01-.9 1-.91 1-.91 1-.93.99-.93.99-.94.99-.95.98-.96.98-.96.98-.98.97-.98.97-.99.97-1" style="stroke-width:1.07;stroke:#000000;stroke-opacity:0.10;stroke-linecap:butt"/><path d="m243.99 431.64-.68-1.13-.68-1.12-.69-1.12-.69-1.11-.7-1.11-.7-1.1-.7-1.09-.71-1.09-.71-1.08-.72-1.08-.72-1.07-.72-1.06-.73-1.06-.74-1.05-.74-1.05-.74-1.04-.74-1.03-.75-1.03-.76-1.02-.76-1.02-.76-1.01-.77-1-.77-1-.78-.99-.78-.99-.78-.98-.79-.98-.79-.97-.8-.96-.8-.96-.81-.95-.81-.94-.81-.94-.82-.93-.82-.93-.83-.92-.83-.92-.84-.91-.84-.9-.84-.9-.85-.89-.85-.89-.86-.88-.86-.87-.87-.87-.87-.86-.87-.86-.88-.85-.88-.84-.89-.84-.89-.83-.89-.83-.9-.82-.91-.82-.91-.8-.91-.81-.91-.79-.92-.79-.93-.79-.93-.78-.93-.77-.94-.77-.94-.76-.95-.75-.95-.75-.95-.75-.96-.73-.96-.74-.97-.72-.97-.72-.98-.72-.98-.7-.98-.7-.99-.7-1-.69-.99-.68-1-.68-1.01-.67-1.01-.67-1.01-.66-1.02-.66-1.03-.64-1.02-.65-1.03-.63-1.04-.63-1.04-.63-1.04-.62-1.05-.61-1.05-.61-1.06-.6-1.06-.59-1.07-.59-1.07-.58-1.07-.58-1.08-.57-1.08-.57-1.09-.56-1.09-.55-1.09-.55m87.78 83 1.27-.21 1.27-.22 1.27-.22 1.27-.23 1.26-.24 1.26-.25 1.25-.25 1.26-.27 1.25-.27 1.25-.27 1.24-.29 1.24-.29 1.24-.3 1.24-.31 1.23-.31 1.23-.33 1.23-.33 1.22-.34 1.22-.34 1.22-.35 1.22-.37 1.21-.36 1.21-.38 1.21-.38 1.2-.39 1.2-.4 1.2-.41 1.19-.41 1.2-.42 1.18-.43 1.19-.44 1.18-.44 1.18-.45 1.18-.46 1.18-.47 1.17-.48 1.16-.48 1.17-.49 1.16-.49 1.16-.51 1.16-.51 1.15-.52 1.15-.53 1.15-.53 1.15-.54 1.14-.55 1.14-.56 1.13-.57 1.14-.57 1.13-.58 1.12-.59 1.13-.59 1.12-.61 1.12-.61 1.11-.61 1.11-.63 1.11-.63 1.11-.64 1.1-.65 1.1-.66 1.1-.66 1.1-.67 1.09-.68 1.09-.69 1.08-.69 1.09-.7 1.08-.71 1.07-.72 1.08-.72 1.07-.73 1.07-.74 1.06-.75 1.07-.75 1.06-.77 1.05-.77 1.06-.77 1.05-.79 1.04-.79 1.05-.8 1.04-.81 1.04-.81 1.04-.82 1.03-.83 1.03-.84 1.03-.85 1.02-.85 1.02-.86 1.02-.87 1.01-.87 1.02-.89 1.01-.89 1-.89 1.01-.91 1-.91.99-.92 1-.93.99-.94.99-.94.99-.95" style="stroke-width:1.07;stroke:#000000;stroke-opacity:0.10;stroke-linecap:butt"/><path d="m243.99 431.64-.71-1.09-.71-1.09-.71-1.08-.72-1.07-.72-1.07-.73-1.07-.72-1.05-.74-1.06-.73-1.05-.74-1.04-.74-1.04-.75-1.04-.75-1.02-.75-1.03-.76-1.02-.76-1.01-.77-1.01-.77-1-.77-1-.78-.99-.78-.99-.78-.98-.79-.98-.79-.97-.79-.97-.8-.96-.8-.96-.81-.95-.81-.95-.81-.94-.82-.93-.82-.93-.82-.93-.83-.92-.83-.92-.83-.91-.84-.9-.85-.9-.84-.9-.85-.89-.86-.88-.85-.88-.86-.87-.87-.87-.87-.87-.87-.86-.87-.85-.88-.85-.89-.84-.88-.84-.89-.83-.9-.83-.89-.83-.91-.81-.9-.82-.91-.8-.91-.81-.92-.79-.92-.8-.92-.78-.93-.78-.93-.78-.93-.77-.94-.77-.94-.76-.95-.76-.95-.75-.95-.74-.96-.74-.96-.74-.96-.73-.97-.72-.97-.72-.98-.72-.98-.71-.98-.7-.98-.7-.99-.7-1-.69-.99-.68-1.01-.68-1-.67-1.01-.67-1.01-.66-1.02-.66-1.02-.65-1.02-.65-1.02-.65-1.04-.63-1.03-.64-1.04-.62-1.04-.63-1.04-.61-1.05-.61-1.05-.61-1.06-.6-1.06-.6-1.06-.59-1.07-.59m87.78 83 1.25-.26 1.25-.26 1.25-.28 1.25-.27 1.25-.29 1.24-.29 1.24-.3 1.24-.3 1.23-.31 1.23-.32 1.23-.33 1.23-.33 1.22-.34 1.22-.34 1.22-.35 1.22-.36 1.22-.36 1.21-.37 1.21-.38 1.2-.38 1.21-.39 1.2-.4 1.2-.4 1.19-.41 1.2-.42 1.19-.42 1.19-.43 1.18-.44 1.19-.44 1.18-.45 1.18-.45 1.17-.47 1.18-.46 1.17-.48 1.17-.48 1.16-.49 1.16-.49 1.17-.51 1.15-.5 1.16-.52 1.15-.52 1.15-.53 1.15-.53 1.15-.54 1.14-.55 1.14-.55 1.14-.56 1.13-.57 1.13-.58 1.13-.58 1.13-.58 1.13-.6 1.12-.6 1.12-.6 1.12-.62 1.11-.62 1.11-.62 1.11-.63 1.11-.64 1.11-.65 1.1-.65 1.1-.66 1.09-.67 1.1-.67 1.09-.68 1.09-.68 1.09-.69 1.08-.7 1.08-.71 1.08-.71 1.08-.72 1.07-.72 1.07-.73 1.07-.74 1.07-.74 1.06-.75 1.06-.76 1.06-.77 1.06-.77 1.05-.77 1.05-.79 1.05-.79 1.05-.79 1.04-.81 1.04-.81 1.04-.81 1.04-.83 1.03-.83 1.03-.83 1.03-.84 1.02-.85 1.03-.86 1.02-.86 1.02-.87 1.01-.88 1.01-.88 1.01-.89 1.01-.89 1.01-.9" style="stroke-width:1.07;stroke:#000000;stroke-opacity:0.10;stroke-linecap:butt"/><path d="m243.99 431.64-.74-1.05-.73-1.05-.74-1.04-.75-1.04-.74-1.03-.75-1.03-.76-1.03-.75-1.02-.76-1.02-.76-1.01-.77-1.01-.77-1-.77-1-.77-1-.78-.99-.78-.98-.78-.99-.79-.97-.79-.98-.79-.97-.8-.96-.8-.96-.8-.96-.81-.95-.81-.95-.81-.94-.81-.94-.82-.93-.82-.93-.83-.93-.82-.92-.83-.91-.84-.92-.83-.91-.84-.9-.85-.9-.84-.89-.85-.89-.86-.89-.85-.88-.86-.88-.86-.87-.87-.87-.86-.87-.87-.86-.88-.85-.88-.85-.88-.85-.88-.84-.89-.84-.89-.84-.89-.83-.9-.82-.89-.82-.91-.82-.9-.81-.91-.81-.91-.8-.92-.8-.91-.8-.93-.79-.92-.78-.93-.78-.93-.78-.93-.77-.94-.77-.94-.77-.94-.76-.95-.75-.94-.75-.96-.75-.95-.74-.96-.74-.96-.74-.97-.73-.96-.72-.97-.72-.98-.72-.98-.71-.98-.71-.98-.7-.99-.7-.98-.69-1-.69-.99-.69-1-.68-1-.68-1.01-.67-1.01-.67-1.01-.67-1.01-.65-1.02-.66-1.02-.65-1.03-.65-1.02-.64-1.03-.64-1.04-.63-1.03-.63-1.04-.63m87.78 83 1.23-.31 1.24-.31 1.23-.32 1.23-.33 1.22-.33 1.23-.33 1.22-.34 1.22-.35 1.22-.35 1.22-.36 1.21-.37 1.21-.36 1.21-.38 1.21-.38 1.21-.39 1.2-.39 1.2-.39 1.2-.41 1.2-.41 1.19-.41 1.2-.42 1.19-.42 1.18-.43 1.19-.44 1.18-.44 1.19-.45 1.18-.45 1.17-.46 1.18-.46 1.17-.47 1.17-.48 1.17-.48 1.17-.48 1.16-.49 1.17-.5 1.16-.5 1.15-.51 1.16-.52 1.15-.51 1.16-.53 1.15-.53 1.14-.54 1.15-.54 1.14-.54 1.14-.56 1.14-.55 1.14-.57 1.13-.57 1.13-.57 1.13-.58 1.13-.59 1.13-.59 1.12-.6 1.12-.6 1.12-.61 1.12-.61 1.11-.62 1.12-.62 1.11-.63 1.11-.64 1.1-.64 1.11-.65 1.1-.65 1.1-.66 1.1-.66 1.09-.67 1.1-.68 1.09-.68 1.09-.68 1.08-.69 1.09-.7 1.08-.7 1.08-.71 1.08-.71 1.08-.72 1.07-.73 1.07-.73 1.07-.73 1.07-.74 1.06-.75 1.07-.75 1.06-.76 1.06-.76 1.05-.77 1.06-.78 1.05-.78 1.05-.78 1.05-.79 1.05-.8 1.04-.8 1.04-.81 1.04-.81 1.04-.82 1.03-.83 1.04-.83 1.03-.83 1.03-.84 1.02-.85 1.03-.85" style="stroke-width:1.07;stroke:#000000;stroke-opacity:0.10;stroke-linecap:butt"/><path d="m243.99 431.64-.77-1.01-.76-1.01-.77-1.01-.77-1-.77-1-.77-.99-.78-1-.78-.98-.78-.99-.79-.98-.78-.98-.79-.97-.79-.97-.8-.97-.8-.96-.8-.96-.8-.95-.8-.96-.81-.95-.81-.94-.81-.94-.82-.94-.82-.94-.82-.93-.82-.92-.83-.93-.82-.92-.83-.91-.84-.92-.83-.91-.84-.9-.84-.91-.85-.89-.84-.9-.85-.89-.85-.89-.85-.89-.86-.88-.86-.87-.86-.88-.86-.87-.87-.86-.87-.87-.87-.86-.87-.85-.88-.86-.88-.85-.88-.84-.88-.84-.89-.84-.89-.84-.89-.83-.9-.83-.89-.82-.9-.82-.9-.82-.91-.81-.91-.81-.91-.81-.91-.8-.91-.8-.92-.79-.92-.8-.92-.78-.93-.79-.92-.78-.93-.78-.94-.77-.93-.77-.94-.77-.94-.76-.94-.76-.95-.76-.95-.75-.95-.75-.95-.75-.95-.74-.96-.74-.96-.73-.97-.74-.96-.72-.97-.73-.97-.72-.97-.72-.98-.71-.98-.71-.98-.71-.98-.7-.99-.7-.99-.69-.99-.7-.99-.69-1-.68-1-.68-1-.68-1-.67-1.01-.68-1.01-.66-1.01-.67m87.78 83 1.21-.36 1.22-.36 1.21-.37 1.21-.37 1.21-.37 1.21-.38 1.21-.39 1.2-.39 1.2-.39 1.2-.4 1.2-.4 1.2-.41 1.19-.41 1.2-.42 1.19-.42 1.19-.43 1.19-.43 1.19-.43 1.18-.44 1.18-.45 1.18-.45 1.18-.45 1.18-.46 1.18-.46 1.17-.46 1.17-.48 1.17-.47 1.17-.48 1.17-.49 1.17-.49 1.16-.49 1.16-.5 1.16-.5 1.16-.51 1.16-.51 1.15-.52 1.15-.52 1.16-.53 1.15-.53 1.14-.53 1.15-.54 1.14-.54 1.15-.55 1.14-.55 1.14-.56 1.13-.56 1.14-.57 1.13-.57 1.13-.58 1.13-.58 1.13-.58 1.13-.59 1.12-.6 1.13-.59 1.12-.61 1.12-.61 1.12-.61 1.11-.61 1.12-.62 1.11-.63 1.11-.63 1.11-.64 1.1-.63 1.11-.65 1.1-.65 1.11-.65 1.1-.66 1.09-.66 1.1-.67 1.1-.67 1.09-.67 1.09-.68 1.09-.69 1.09-.69 1.08-.69 1.09-.7 1.08-.7 1.08-.71 1.08-.71 1.08-.72 1.07-.72 1.08-.72 1.07-.73 1.07-.74 1.07-.74 1.06-.74 1.07-.75 1.06-.75 1.06-.76 1.06-.76 1.06-.77 1.05-.77 1.06-.77 1.05-.78 1.05-.79 1.05-.79 1.05-.79 1.04-.8 1.05-.8" style="stroke-width:1.07;stroke:#000000;stroke-opacity:0.10;stroke-linecap:butt"/><path d="m243.99 431.64-.79-.97-.79-.97-.8-.97-.79-.97-.8-.96-.8-.96-.8-.96-.8-.95-.81-.96-.81-.95-.81-.94-.81-.95-.81-.94-.82-.94-.81-.93-.82-.93-.82-.93-.83-.93-.82-.92-.83-.93-.83-.91-.83-.92-.83-.91-.84-.91-.83-.91-.84-.91-.84-.9-.85-.9-.84-.89-.85-.9-.85-.89-.85-.89-.85-.88-.86-.89-.85-.88-.86-.87-.86-.88-.87-.87-.86-.87-.87-.86-.87-.87-.87-.86-.87-.86-.88-.85-.87-.85-.88-.85-.88-.85-.88-.84-.89-.84-.89-.84-.88-.84-.89-.83-.9-.83-.89-.83-.9-.82-.9-.82-.9-.82-.9-.82-.9-.81-.91-.81-.91-.81-.91-.81-.91-.8-.92-.8-.91-.79-.92-.8-.92-.79-.92-.79-.93-.78-.92-.79-.93-.78-.93-.77-.94-.78-.93-.77-.94-.77-.93-.77-.94-.76-.95-.76-.94-.76-.95-.75-.95-.76-.95-.75-.95-.74-.95-.75-.96-.74-.96-.74-.96-.73-.96-.74-.96-.73-.97-.72-.97-.73-.97-.72-.97-.72-.97-.72-.98-.71-.98-.71-.98-.71-.98-.7-.98-.71m87.78 83 1.19-.41 1.2-.41 1.19-.41 1.2-.42 1.19-.42 1.19-.43 1.19-.42 1.19-.44 1.18-.43 1.19-.44 1.18-.44 1.18-.45 1.19-.45 1.17-.45 1.18-.46 1.18-.46 1.18-.46 1.17-.47 1.17-.47 1.17-.47 1.17-.48 1.17-.48 1.17-.49 1.16-.49 1.17-.49 1.16-.49 1.16-.5 1.16-.51 1.16-.5 1.16-.51 1.16-.51 1.15-.52 1.15-.52 1.16-.52 1.15-.53 1.15-.53 1.14-.54 1.15-.53 1.15-.55 1.14-.54 1.14-.55 1.14-.55 1.14-.56 1.14-.56 1.14-.56 1.13-.56 1.14-.57 1.13-.58 1.13-.57 1.13-.58 1.13-.59 1.13-.59 1.13-.59 1.12-.59 1.12-.6 1.13-.6 1.12-.61 1.11-.6 1.12-.62 1.12-.61 1.11-.62 1.12-.62 1.11-.63 1.11-.63 1.11-.63 1.11-.64 1.1-.64 1.11-.64 1.1-.65 1.11-.65 1.1-.66 1.1-.65 1.1-.66 1.09-.67 1.1-.67 1.09-.67 1.1-.68 1.09-.68 1.09-.68 1.09-.68 1.09-.69 1.08-.7 1.09-.69 1.08-.7 1.08-.71 1.08-.71 1.08-.71 1.08-.71 1.08-.72 1.07-.72 1.08-.73 1.07-.72 1.07-.74 1.07-.73 1.07-.74 1.06-.74 1.07-.75 1.06-.75 1.07-.75" style="stroke-width:1.07;stroke:#000000;stroke-opacity:0.10;stroke-linecap:butt"/><path d="m243.99 431.64-.82-.93-.82-.94-.82-.93-.82-.93-.82-.93-.83-.92-.82-.93-.83-.92-.83-.92-.83-.91-.83-.92-.83-.91-.84-.91-.83-.91-.84-.91-.84-.91-.84-.9-.84-.9-.84-.9-.85-.9-.84-.9-.85-.89-.85-.89-.85-.89-.85-.89-.85-.88-.86-.89-.85-.88-.86-.88-.86-.88-.86-.87-.86-.88-.86-.87-.86-.87-.87-.87-.87-.86-.86-.87-.87-.86-.87-.86-.88-.86-.87-.86-.88-.85-.87-.85-.88-.85-.88-.85-.88-.85-.88-.84-.89-.84-.88-.84-.89-.84-.89-.84-.89-.83-.89-.84-.89-.83-.89-.82-.9-.83-.9-.82-.89-.83-.9-.82-.9-.82-.91-.81-.9-.82-.91-.81-.9-.81-.91-.81-.91-.81-.91-.8-.91-.8-.92-.8-.91-.8-.92-.8-.91-.79-.92-.8-.92-.79-.93-.79-.92-.78-.92-.79-.93-.78-.93-.78-.93-.78-.93-.78-.93-.77-.93-.78-.94-.77-.93-.77-.94-.76-.94-.77-.94-.76-.94-.76-.95-.76-.94-.76-.95-.76-.95-.75-.94-.75-.96-.75-.95-.75-.95-.74-.95-.75-.96-.74m87.78 83 1.17-.46 1.18-.46 1.18-.46 1.17-.46 1.18-.47 1.17-.47 1.17-.47 1.17-.47 1.17-.48 1.17-.48 1.17-.48 1.17-.49 1.17-.48 1.16-.49 1.17-.49 1.16-.5 1.16-.49 1.16-.5 1.16-.51 1.16-.5 1.16-.51 1.16-.51 1.16-.51 1.15-.51 1.16-.52 1.15-.52 1.15-.52 1.15-.53 1.15-.53 1.15-.53 1.15-.53 1.15-.53 1.15-.54 1.14-.54 1.15-.54 1.14-.55 1.14-.54 1.15-.55 1.14-.56 1.14-.55 1.14-.56 1.13-.56 1.14-.56 1.14-.57 1.13-.56 1.14-.57 1.13-.58 1.13-.57 1.13-.58 1.13-.58 1.13-.58 1.13-.59 1.13-.59 1.12-.59 1.13-.59 1.12-.6 1.13-.59 1.12-.6 1.12-.61 1.12-.6 1.12-.61 1.12-.61 1.11-.61 1.12-.62 1.12-.62 1.11-.62 1.11-.62 1.12-.63 1.11-.62 1.11-.64 1.11-.63 1.11-.63 1.1-.64 1.11-.64 1.11-.65 1.1-.64 1.1-.65 1.11-.65 1.1-.66 1.1-.65 1.1-.66 1.1-.66 1.1-.66 1.09-.67 1.1-.67 1.09-.67 1.1-.67 1.09-.68 1.09-.68 1.09-.68 1.09-.68 1.09-.69 1.09-.69 1.09-.69 1.08-.69 1.09-.7 1.08-.7 1.08-.7 1.09-.7" style="stroke-width:1.07;stroke:#000000;stroke-opacity:0.10;stroke-linecap:butt"/><path d="m243.99 431.64-.85-.9-.84-.89-.85-.9-.85-.89-.85-.89-.85-.89-.85-.89-.85-.89-.85-.89-.85-.88-.86-.89-.85-.88-.85-.88-.86-.88-.86-.88-.86-.88-.85-.88-.86-.88-.86-.87-.86-.87-.87-.88-.86-.87-.86-.87-.87-.87-.86-.87-.87-.86-.87-.87-.86-.86-.87-.87-.87-.86-.87-.86-.87-.86-.88-.86-.87-.86-.87-.85-.88-.86-.87-.85-.88-.85-.88-.85-.88-.85-.87-.85-.88-.85-.89-.85-.88-.84-.88-.85-.88-.84-.89-.84-.88-.84-.89-.84-.88-.84-.89-.84-.89-.84-.89-.83-.89-.83-.89-.84-.89-.83-.89-.83-.9-.83-.89-.82-.9-.83-.89-.83-.9-.82-.9-.82-.9-.82-.9-.82-.9-.82-.9-.82-.9-.82-.9-.82-.91-.81-.9-.81-.91-.82-.9-.81-.91-.81-.91-.8-.91-.81-.9-.81-.92-.8-.91-.81-.91-.8-.91-.8-.92-.8-.91-.8-.92-.8-.91-.8-.92-.79-.92-.8-.92-.79-.92-.79-.92-.79-.92-.79-.92-.79-.92-.79-.93-.78-.92-.79-.93-.78-.93-.79-.92-.78-.93-.78m87.78 83 1.16-.51 1.15-.5 1.16-.51 1.16-.51 1.16-.51 1.15-.52 1.16-.51 1.15-.52 1.16-.52 1.15-.52 1.15-.52 1.15-.52 1.16-.53 1.15-.52 1.15-.53 1.15-.53 1.15-.53 1.15-.53 1.15-.53 1.14-.54 1.15-.53 1.15-.54 1.14-.54 1.15-.54 1.14-.55 1.15-.54 1.14-.54 1.14-.55 1.15-.55 1.14-.55 1.14-.55 1.14-.55 1.14-.56 1.14-.55 1.14-.56 1.14-.56 1.13-.56 1.14-.56 1.14-.57 1.13-.56 1.14-.57 1.13-.57 1.14-.57 1.13-.57 1.14-.57 1.13-.58 1.13-.57 1.13-.58 1.13-.58 1.13-.58 1.13-.58 1.13-.58 1.13-.59 1.13-.58 1.12-.59 1.13-.59 1.13-.59 1.12-.59 1.13-.6 1.12-.59 1.12-.6 1.13-.6 1.12-.6 1.12-.6 1.12-.6 1.12-.61 1.12-.6 1.12-.61 1.12-.61 1.12-.61 1.12-.61 1.12-.62 1.11-.61 1.12-.62 1.11-.61 1.12-.62 1.11-.63 1.12-.62 1.11-.62 1.11-.63 1.11-.63 1.11-.62 1.12-.63 1.11-.64 1.11-.63 1.1-.63 1.11-.64 1.11-.64 1.11-.64 1.1-.64 1.11-.64 1.11-.64 1.1-.65 1.1-.65 1.11-.64 1.1-.65 1.1-.66 1.11-.65 1.1-.65" style="stroke-width:1.07;stroke:#000000;stroke-opacity:0.10;stroke-linecap:butt"/><path d="m243.99 431.64-.88-.86-.87-.85-.87-.86-.88-.86-.87-.85-.87-.86-.88-.86-.87-.85-.88-.85-.87-.86-.88-.85-.88-.86-.87-.85-.88-.85-.87-.85-.88-.86-.88-.85-.88-.85-.87-.85-.88-.85-.88-.85-.88-.85-.88-.85-.88-.85-.88-.84-.88-.85-.88-.85-.88-.85-.88-.84-.88-.85-.88-.85-.88-.84-.88-.85-.89-.84-.88-.85-.88-.84-.88-.84-.89-.85-.88-.84-.88-.84-.89-.84-.88-.84-.89-.85-.88-.84-.89-.84-.88-.84-.89-.84-.89-.83-.88-.84-.89-.84-.89-.84-.88-.84-.89-.83-.89-.84-.89-.84-.88-.83-.89-.84-.89-.83-.89-.84-.89-.83-.89-.84-.89-.83-.89-.83-.89-.84-.89-.83-.89-.83-.89-.83-.9-.83-.89-.84-.89-.83-.89-.83-.9-.83-.89-.83-.89-.82-.9-.83-.89-.83-.89-.83-.9-.83-.89-.82-.9-.83-.89-.82-.9-.83-.9-.83-.89-.82-.9-.83-.9-.82-.89-.82-.9-.83-.9-.82-.9-.82-.89-.82-.9-.83-.9-.82-.9-.82-.9-.82-.9-.82-.9-.82-.9-.82-.9-.82m87.78 83 1.14-.55 1.14-.56 1.13-.56 1.14-.55 1.14-.56 1.14-.56 1.14-.56 1.14-.56 1.14-.56 1.13-.56 1.14-.56 1.14-.56 1.14-.56 1.13-.56 1.14-.56 1.14-.57 1.13-.56 1.14-.57 1.14-.56 1.13-.57 1.14-.56 1.13-.57 1.14-.56 1.14-.57 1.13-.57 1.14-.57 1.13-.57 1.13-.56 1.14-.57 1.13-.57 1.14-.57 1.13-.58 1.13-.57 1.14-.57 1.13-.57 1.13-.58 1.14-.57 1.13-.57 1.13-.58 1.13-.57 1.13-.58 1.14-.58 1.13-.57 1.13-.58 1.13-.58 1.13-.58 1.13-.57 1.13-.58 1.13-.58 1.13-.58 1.13-.58 1.13-.59 1.13-.58 1.13-.58 1.13-.58 1.13-.59 1.13-.58 1.13-.58 1.12-.59 1.13-.58 1.13-.59 1.13-.59 1.13-.58 1.12-.59 1.13-.59 1.13-.59 1.12-.58 1.13-.59 1.13-.59 1.12-.59 1.13-.59 1.12-.6 1.13-.59 1.13-.59 1.12-.59 1.13-.6 1.12-.59 1.12-.59 1.13-.6 1.12-.59 1.13-.6 1.12-.6 1.12-.59 1.13-.6 1.12-.6 1.12-.6 1.13-.6 1.12-.6 1.12-.6 1.12-.6 1.13-.6 1.12-.6 1.12-.6 1.12-.6 1.12-.61 1.12-.6 1.13-.6 1.12-.61 1.12-.6m-111.88 57.44-.9-.82-.9-.82-.9-.82-.9-.82-.9-.82-.9-.82-.9-.82-.9-.82-.9-.82-.9-.83-.89-.82-.9-.82-.9-.83-.9-.82-.89-.83-.9-.82-.89-.83-.9-.82-.9-.83-.89-.82-.9-.83-.89-.83-.89-.83-.9-.82-.89-.83-.9-.83-.89-.83-.89-.83-.89-.83-.9-.83-.89-.83-.89-.83-.89-.83-.89-.84-.89-.83-.89-.83-.89-.83-.89-.84-.89-.83-.89-.84-.89-.83-.89-.84-.89-.83-.89-.84-.89-.83-.88-.84-.89-.84-.89-.84-.89-.83-.88-.84-.89-.84-.89-.84-.88-.84-.89-.84-.88-.84-.89-.84-.88-.84-.89-.84-.88-.85-.88-.84-.89-.84-.88-.84-.88-.85-.89-.84-.88-.85-.88-.84-.88-.84-.88-.85-.89-.85-.88-.84-.88-.85-.88-.85-.88-.84-.88-.85-.88-.85-.88-.85-.87-.85-.88-.85-.88-.85-.88-.85-.88-.85-.88-.85-.87-.85-.88-.85-.88-.85-.87-.86-.88-.85-.88-.85-.87-.86-.88-.85-.87-.86-.88-.85-.87-.86-.87-.85-.88-.86-.87-.85-.88-.86-.87-.86-.87-.86" style="stroke-width:1.07;stroke:#000000;stroke-opacity:0.10;stroke-linecap:butt"/><path d="m243.99 431.64 1.12-.6 1.12-.61 1.12-.6 1.12-.61 1.12-.6 1.12-.6 1.12-.6 1.13-.6 1.12-.61 1.12-.6 1.12-.6 1.13-.6 1.12-.59 1.12-.6 1.12-.6 1.13-.6 1.12-.6 1.13-.59 1.12-.6 1.12-.59 1.13-.6 1.12-.59 1.13-.6 1.12-.59 1.13-.59 1.12-.59 1.13-.6 1.12-.59 1.13-.59 1.13-.59 1.12-.59 1.13-.59 1.13-.59 1.12-.58 1.13-.59 1.13-.59 1.13-.59 1.12-.58 1.13-.59 1.13-.58 1.13-.59 1.13-.58 1.12-.59 1.13-.58 1.13-.58 1.13-.59 1.13-.58 1.13-.58 1.13-.58 1.13-.58 1.13-.58 1.13-.58 1.13-.58 1.13-.58 1.13-.57 1.14-.58 1.13-.58 1.13-.57 1.13-.58 1.13-.57 1.14-.58 1.13-.57 1.13-.58 1.13-.57 1.14-.57 1.13-.57 1.13-.58 1.14-.57 1.13-.57 1.13-.57 1.14-.57 1.13-.57 1.14-.57 1.13-.56 1.14-.57 1.13-.57 1.14-.57 1.13-.56 1.14-.57 1.14-.56 1.13-.57 1.14-.56 1.13-.56 1.14-.57 1.14-.56 1.14-.56 1.13-.56 1.14-.56 1.14-.57 1.14-.56 1.13-.55 1.14-.56 1.14-.56 1.14-.56 1.14-.56 1.14-.55 1.14-.56 1.14-.56 1.14-.55m-111.88 57.44-.93-.78-.93-.78-.93-.78-.92-.79-.93-.78-.92-.79-.92-.79-.93-.78-.92-.79-.92-.79-.92-.8-.92-.79-.92-.79-.91-.8-.92-.8-.91-.79-.92-.8-.91-.8-.92-.81-.91-.8-.91-.8-.91-.81-.91-.8-.91-.81-.91-.81-.9-.81-.91-.81-.9-.81-.91-.82-.9-.81-.91-.82-.9-.81-.9-.82-.9-.82-.9-.82-.9-.82-.89-.83-.9-.82-.9-.83-.89-.82-.9-.83-.89-.83-.89-.83-.89-.83-.9-.83-.89-.84-.88-.83-.89-.84-.89-.83-.89-.84-.88-.84-.89-.84-.88-.84-.89-.85-.88-.84-.88-.85-.88-.84-.88-.85-.88-.85-.88-.85-.87-.85-.88-.86-.88-.85-.87-.85-.87-.86-.88-.86-.87-.86-.87-.86-.87-.86-.87-.86-.87-.86-.87-.87-.87-.86-.86-.87-.87-.87-.86-.87-.86-.87-.87-.87-.86-.87-.86-.88-.86-.87-.86-.88-.86-.87-.86-.88-.85-.88-.86-.88-.86-.89-.85-.88-.85-.88-.86-.89-.85-.89-.85-.89-.85-.89-.85-.89-.85-.89-.84-.89-.85-.89-.85-.9-.84-.9" style="stroke-width:1.07;stroke:#000000;stroke-opacity:0.10;stroke-linecap:butt"/><path d="m243.99 431.64 1.1-.65 1.1-.66 1.1-.65 1.1-.65 1.11-.65 1.1-.64 1.11-.65 1.1-.64 1.11-.64 1.11-.65 1.1-.63 1.11-.64 1.11-.64 1.11-.63 1.11-.64 1.11-.63 1.11-.63 1.11-.63 1.11-.62 1.11-.63 1.12-.62 1.11-.63 1.11-.62 1.12-.62 1.11-.62 1.12-.61 1.12-.62 1.11-.61 1.12-.61 1.12-.61 1.12-.61 1.12-.61 1.12-.61 1.12-.6 1.12-.6 1.12-.6 1.13-.6 1.12-.6 1.12-.6 1.13-.6 1.12-.59 1.13-.59 1.12-.59 1.13-.59 1.13-.59 1.12-.59 1.13-.58 1.13-.58 1.13-.59 1.13-.58 1.13-.57 1.13-.58 1.13-.58 1.14-.57 1.13-.57 1.13-.58 1.14-.56 1.13-.57 1.14-.57 1.13-.56 1.14-.57 1.14-.56 1.14-.56 1.13-.56 1.14-.56 1.14-.55 1.14-.56 1.14-.55 1.14-.55 1.15-.55 1.14-.55 1.14-.55 1.15-.54 1.14-.55 1.14-.54 1.15-.54 1.15-.54 1.14-.54 1.15-.53 1.15-.54 1.15-.53 1.14-.53 1.15-.53 1.15-.53 1.15-.53 1.16-.53 1.15-.52 1.15-.52 1.15-.52 1.16-.52 1.15-.52 1.16-.52 1.15-.51 1.16-.52 1.15-.51 1.16-.51 1.16-.51 1.16-.51 1.16-.5m-111.88 57.44-.96-.74-.95-.74-.96-.75-.95-.75-.95-.75-.95-.75-.95-.75-.94-.76-.95-.75-.94-.76-.94-.76-.94-.77-.94-.76-.94-.77-.94-.77-.93-.77-.93-.77-.94-.78-.93-.77-.93-.78-.92-.78-.93-.79-.92-.78-.93-.79-.92-.79-.92-.79-.92-.79-.92-.8-.91-.79-.92-.8-.91-.8-.92-.8-.91-.81-.91-.81-.9-.8-.91-.82-.9-.81-.91-.81-.9-.82-.9-.82-.9-.82-.9-.82-.9-.83-.89-.82-.89-.83-.9-.83-.89-.83-.89-.84-.88-.83-.89-.84-.89-.84-.88-.85-.88-.84-.88-.85-.88-.84-.88-.85-.88-.86-.87-.85-.88-.86-.87-.85-.87-.86-.87-.87-.87-.86-.87-.87-.86-.87-.86-.87-.87-.87-.86-.87-.86-.88-.86-.88-.85-.88-.86-.88-.85-.88-.86-.89-.85-.88-.85-.89-.85-.9-.84-.89-.85-.9-.84-.89-.84-.9-.85-.9-.84-.91-.83-.9-.84-.91-.84-.91-.83-.91-.83-.92-.84-.91-.83-.92-.82-.92-.83-.92-.83-.92-.82-.93-.82-.93-.83-.93-.82-.93-.81-.93-.82-.94" style="stroke-width:1.07;stroke:#000000;stroke-opacity:0.10;stroke-linecap:butt"/><path d="m243.99 431.64 1.08-.7 1.08-.7 1.09-.7 1.08-.7 1.09-.69 1.08-.69 1.09-.69 1.09-.69 1.09-.68 1.09-.68 1.09-.68 1.1-.68 1.09-.67 1.09-.67 1.1-.67 1.1-.67 1.09-.66 1.1-.66 1.1-.66 1.1-.66 1.11-.65 1.1-.65 1.1-.65 1.11-.65 1.1-.64 1.11-.64 1.11-.64 1.1-.63 1.11-.64 1.11-.63 1.12-.63 1.11-.62 1.11-.62 1.12-.63 1.11-.61 1.12-.62 1.12-.61 1.11-.61 1.12-.61 1.12-.61 1.12-.6 1.13-.6 1.12-.6 1.12-.59 1.13-.6 1.13-.59 1.12-.58 1.13-.59 1.13-.58 1.13-.58 1.13-.58 1.13-.57 1.14-.58 1.13-.57 1.14-.57 1.13-.56 1.14-.56 1.14-.56 1.13-.56 1.14-.56 1.15-.55 1.14-.55 1.14-.55 1.14-.54 1.15-.54 1.14-.54 1.15-.54 1.15-.53 1.15-.54 1.15-.53 1.15-.52 1.15-.53 1.15-.52 1.16-.52 1.15-.52 1.16-.51 1.15-.51 1.16-.51 1.16-.51 1.16-.51 1.16-.5 1.16-.5 1.16-.49 1.17-.5 1.16-.49 1.17-.49 1.16-.49 1.17-.48 1.17-.48 1.17-.48 1.17-.48 1.17-.47 1.17-.48 1.18-.46 1.17-.47 1.17-.47 1.18-.46 1.18-.46 1.18-.45m-111.88 57.44-.99-.7-.98-.71-.98-.71-.98-.71-.97-.71-.98-.72-.97-.72-.97-.72-.97-.72-.96-.73-.97-.73-.96-.73-.96-.74-.96-.74-.95-.74-.96-.74-.95-.75-.95-.75-.95-.75-.94-.76-.95-.76-.94-.76-.94-.76-.94-.77-.93-.76-.94-.78-.93-.77-.93-.78-.93-.78-.93-.78-.92-.79-.92-.79-.92-.79-.92-.79-.92-.8-.91-.8-.91-.8-.92-.81-.9-.8-.91-.81-.9-.82-.91-.81-.9-.82-.9-.82-.89-.83-.9-.83-.89-.83-.89-.83-.89-.83-.89-.84-.88-.84-.88-.85-.88-.84-.88-.85-.88-.86-.87-.85-.88-.86-.87-.86-.87-.86-.86-.87-.87-.87-.86-.87-.86-.87-.86-.88-.86-.88-.85-.88-.86-.89-.85-.89-.84-.89-.85-.89-.85-.9-.84-.9-.84-.9-.84-.9-.84-.91-.83-.91-.84-.92-.83-.91-.83-.92-.82-.92-.83-.93-.82-.92-.82-.93-.82-.94-.82-.93-.81-.94-.82-.94-.81-.94-.81-.95-.8-.95-.81-.95-.8-.96-.8-.95-.8-.96-.8-.97-.8-.96-.79-.97-.79-.97-.79-.98" style="stroke-width:1.07;stroke:#000000;stroke-opacity:0.10;stroke-linecap:butt"/><path d="m243.99 431.64 1.06-.75 1.06-.75 1.07-.75 1.07-.74 1.06-.74 1.07-.74 1.07-.73 1.08-.73 1.07-.72 1.08-.72 1.07-.72 1.08-.72 1.08-.71 1.08-.7 1.08-.71 1.09-.7 1.08-.7 1.09-.69 1.08-.69 1.09-.68 1.09-.69 1.1-.68 1.09-.67 1.09-.67 1.1-.67 1.1-.67 1.09-.66 1.1-.66 1.11-.65 1.1-.65 1.1-.65 1.11-.64 1.1-.64 1.11-.64 1.11-.63 1.11-.63 1.12-.63 1.11-.62 1.11-.62 1.12-.62 1.12-.61 1.12-.61 1.12-.6 1.12-.6 1.12-.6 1.13-.6 1.12-.59 1.13-.58 1.13-.59 1.13-.58 1.13-.57 1.13-.58 1.14-.57 1.13-.56 1.14-.57 1.14-.56 1.14-.55 1.14-.55 1.14-.55 1.15-.55 1.14-.54 1.15-.54 1.15-.53 1.14-.53 1.16-.53 1.15-.52 1.15-.52 1.16-.52 1.15-.51 1.16-.51 1.16-.51 1.16-.5 1.16-.5 1.16-.49 1.17-.5 1.16-.48 1.17-.49 1.17-.48 1.17-.48 1.17-.47 1.17-.47 1.18-.47 1.17-.46 1.18-.46 1.18-.46 1.18-.45 1.18-.45 1.18-.45 1.18-.44 1.19-.44 1.19-.44 1.18-.43 1.19-.43 1.19-.42 1.2-.42 1.19-.42 1.19-.42 1.2-.41 1.2-.4m-111.88 57.44-1.02-.66-1-.67-1.01-.67-1-.68-1.01-.67-1-.69-.99-.68-1-.69-.99-.69-.99-.7-.98-.7-.98-.7-.99-.71-.97-.71-.98-.71-.97-.72-.97-.72-.97-.72-.97-.73-.96-.73-.96-.74-.96-.74-.96-.74-.95-.74-.95-.75-.95-.76-.94-.75-.94-.76-.95-.77-.93-.76-.94-.77-.93-.78-.93-.78-.93-.78-.92-.78-.93-.79-.91-.79-.92-.8-.92-.8-.91-.8-.91-.81-.91-.81-.9-.81-.9-.82-.9-.82-.9-.82-.89-.83-.89-.83-.89-.83-.89-.84-.88-.84-.89-.85-.87-.85-.88-.85-.88-.86-.87-.86-.87-.86-.86-.87-.87-.87-.86-.87-.85-.88-.86-.88-.85-.89-.86-.88-.84-.9-.85-.89-.84-.9-.84-.9-.84-.91-.84-.91-.83-.91-.83-.92-.83-.92-.82-.92-.83-.93-.82-.93-.82-.94-.81-.93-.81-.94-.81-.95-.81-.95-.81-.95-.8-.96-.8-.96-.8-.96-.79-.97-.79-.97-.79-.97-.79-.98-.78-.98-.79-.98-.78-.99-.77-.99-.78-1-.77-1-.77-1-.77-1-.76-1.01-.76-1.02" style="stroke-width:1.07;stroke:#000000;stroke-opacity:0.10;stroke-linecap:butt"/><path d="m243.99 431.64 1.04-.8 1.05-.8 1.04-.79 1.05-.79 1.05-.79 1.05-.78 1.06-.77 1.05-.77 1.06-.77 1.06-.76 1.06-.76 1.07-.75 1.06-.75 1.07-.74 1.07-.74 1.07-.74 1.07-.73 1.07-.72 1.08-.73 1.07-.71 1.08-.71 1.08-.71 1.09-.7 1.08-.7 1.09-.7 1.08-.69 1.09-.68 1.09-.68 1.1-.68 1.09-.67 1.1-.66 1.1-.67 1.1-.65 1.1-.66 1.1-.64 1.11-.65 1.11-.64 1.1-.63 1.11-.63 1.12-.63 1.11-.62 1.12-.62 1.12-.61 1.11-.6 1.13-.61 1.12-.6 1.12-.59 1.13-.59 1.13-.58 1.13-.58 1.13-.58 1.13-.57 1.14-.57 1.14-.56 1.14-.56 1.14-.55 1.14-.55 1.14-.54 1.15-.54 1.15-.54 1.15-.53 1.15-.52 1.15-.52 1.16-.52 1.15-.51 1.16-.51 1.16-.5 1.16-.5 1.17-.5 1.16-.49 1.17-.48 1.17-.48 1.17-.48 1.17-.47 1.18-.46 1.17-.47 1.18-.45 1.18-.46 1.18-.45 1.18-.44 1.19-.44 1.18-.43 1.19-.43 1.19-.43 1.19-.42 1.2-.42 1.19-.41 1.2-.41 1.2-.4 1.2-.4 1.2-.39 1.21-.39 1.2-.39 1.21-.38 1.21-.37 1.21-.38 1.21-.36 1.22-.37 1.22-.35m-111.88 57.44-1.04-.62-1.04-.63-1.03-.64-1.03-.64-1.03-.64-1.02-.64-1.02-.66-1.02-.65-1.02-.66-1.01-.67-1.01-.66-1-.68-1-.67-1-.69-1-.68-.99-.69-.99-.7-.99-.7-.98-.7-.98-.71-.98-.71-.97-.71-.97-.73-.97-.72-.96-.73-.96-.73-.96-.74-.96-.74-.95-.75-.95-.75-.95-.76-.94-.76-.94-.76-.93-.77-.94-.77-.93-.78-.93-.78-.92-.79-.92-.79-.92-.8-.91-.79-.91-.81-.91-.81-.91-.81-.9-.81-.9-.83-.9-.82-.89-.83-.89-.83-.88-.84-.89-.85-.88-.84-.88-.85-.87-.86-.87-.86-.87-.86-.86-.87-.87-.88-.85-.87-.86-.89-.85-.88-.85-.89-.85-.9-.84-.9-.84-.9-.84-.91-.83-.91-.83-.92-.83-.92-.82-.92-.82-.93-.82-.94-.82-.94-.81-.94-.81-.95-.8-.95-.81-.95-.79-.96-.8-.97-.79-.97-.79-.97-.79-.98-.78-.98-.79-.99-.77-.99-.78-.99-.77-1-.77-1.01-.76-1.01-.76-1.01-.76-1.01-.76-1.03-.75-1.02-.75-1.03-.75-1.04-.74-1.03-.74-1.05-.74-1.04-.73-1.06" style="stroke-width:1.07;stroke:#000000;stroke-opacity:0.10;stroke-linecap:butt"/><path d="m243.99 431.64 1.02-.85 1.03-.85 1.03-.84 1.03-.83 1.03-.83 1.03-.83 1.04-.82 1.04-.81 1.04-.81 1.05-.8 1.04-.8 1.05-.79 1.05-.79 1.05-.78 1.06-.77 1.06-.77 1.05-.76 1.07-.76 1.06-.75 1.06-.75 1.07-.74 1.07-.74 1.07-.73 1.08-.72 1.07-.72 1.08-.71 1.08-.71 1.08-.7 1.09-.7 1.09-.69 1.09-.69 1.09-.68 1.09-.67 1.1-.67 1.09-.66 1.1-.66 1.11-.65 1.1-.65 1.11-.64 1.1-.64 1.12-.63 1.11-.62 1.11-.62 1.12-.62 1.12-.6 1.12-.61 1.12-.59 1.13-.59 1.13-.59 1.13-.58 1.13-.58 1.13-.56 1.14-.57 1.14-.56 1.14-.55 1.14-.55 1.15-.54 1.15-.53 1.15-.53 1.15-.53 1.15-.52 1.16-.51 1.16-.51 1.16-.5 1.16-.5 1.16-.49 1.17-.49 1.17-.48 1.17-.47 1.17-.47 1.18-.46 1.18-.46 1.18-.45 1.18-.45 1.18-.44 1.19-.44 1.19-.43 1.19-.42 1.19-.42 1.19-.42 1.2-.4 1.2-.41 1.2-.39 1.21-.4 1.2-.38 1.21-.38 1.21-.38 1.21-.37 1.22-.36 1.21-.36 1.22-.35 1.22-.35 1.22-.34 1.23-.34 1.23-.33 1.23-.32 1.23-.32 1.23-.31 1.24-.31m-111.88 57.44-1.07-.59-1.06-.59-1.06-.59-1.06-.6-1.05-.61-1.05-.61-1.05-.62-1.04-.62-1.04-.63-1.03-.63-1.03-.64-1.03-.64-1.02-.65-1.02-.65-1.01-.66-1.02-.67-1-.66-1.01-.68-1-.68-1-.68-.99-.69-.99-.69-.99-.7-.98-.71-.98-.71-.97-.71-.97-.72-.97-.73-.97-.73-.96-.73-.95-.74-.96-.75-.94-.75-.95-.76-.94-.76-.94-.76-.94-.78-.93-.77-.92-.78-.93-.79-.92-.79-.91-.8-.91-.8-.91-.81-.91-.81-.9-.82-.9-.82-.89-.83-.89-.83-.89-.84-.88-.85-.88-.85-.88-.85-.87-.86-.87-.86-.86-.87-.86-.88-.86-.88-.85-.88-.85-.89-.85-.89-.84-.9-.84-.91-.83-.91-.84-.92-.82-.92-.83-.92-.82-.93-.81-.94-.82-.94-.81-.95-.8-.95-.8-.96-.8-.96-.8-.96-.79-.98-.79-.97-.78-.99-.78-.98-.77-1-.78-.99-.77-1.01-.76-1.01-.76-1.01-.76-1.02-.75-1.02-.75-1.03-.75-1.03-.74-1.04-.74-1.05-.74-1.05-.73-1.05-.73-1.06-.72-1.07-.72-1.07-.72-1.07-.71-1.08-.71-1.09-.71-1.09" style="stroke-width:1.07;stroke:#000000;stroke-opacity:0.10;stroke-linecap:butt"/><path d="m243.99 431.64 1-.9 1.01-.9 1.01-.88 1.01-.89 1.02-.87 1.02-.87 1.02-.86 1.02-.86 1.02-.85 1.03-.84 1.03-.84 1.04-.83 1.03-.82 1.04-.82 1.04-.81 1.04-.8 1.05-.8 1.05-.79 1.05-.78 1.05-.78 1.06-.77 1.06-.76 1.06-.76 1.06-.75 1.07-.74 1.07-.74 1.07-.73 1.07-.73 1.08-.71 1.08-.72 1.08-.7 1.09-.7 1.08-.69 1.09-.69 1.09-.67 1.1-.68 1.1-.66 1.09-.66 1.11-.65 1.1-.65 1.11-.64 1.11-.63 1.11-.63 1.12-.62 1.11-.61 1.12-.61 1.13-.6 1.12-.59 1.13-.59 1.13-.58 1.13-.57 1.14-.57 1.13-.56 1.14-.55 1.15-.55 1.14-.54 1.15-.53 1.15-.53 1.15-.52 1.16-.52 1.16-.51 1.16-.5 1.16-.49 1.17-.49 1.17-.48 1.17-.48 1.17-.47 1.18-.46 1.17-.45 1.19-.45 1.18-.45 1.19-.43 1.18-.43 1.2-.42 1.19-.42 1.2-.41 1.19-.4 1.21-.4 1.2-.39 1.21-.38 1.21-.38 1.21-.37 1.21-.36 1.22-.36 1.22-.35 1.22-.35 1.22-.33 1.23-.34 1.23-.32 1.23-.32 1.24-.31 1.23-.3 1.24-.3 1.25-.29 1.24-.29 1.25-.28 1.25-.27 1.25-.26 1.26-.26m-111.88 57.44-1.1-.55-1.09-.55-1.09-.56-1.08-.56-1.08-.58-1.07-.57-1.07-.59-1.06-.58-1.07-.6-1.05-.6-1.05-.61-1.05-.61-1.05-.62-1.04-.62-1.03-.63-1.03-.64-1.03-.64-1.02-.65-1.02-.66-1.01-.66-1.01-.66-1.01-.67-1-.68-1-.69-.99-.69-.99-.69-.98-.7-.99-.71-.97-.71-.97-.72-.97-.73-.96-.73-.96-.74-.96-.74-.95-.75-.94-.76-.95-.76-.93-.76-.94-.78-.93-.78-.92-.78-.92-.79-.92-.8-.91-.8-.91-.81-.9-.82-.9-.82-.9-.82-.89-.83-.88-.84-.89-.85-.87-.85-.88-.85-.87-.87-.86-.86-.86-.88-.86-.88-.85-.88-.85-.9-.85-.89-.84-.91-.83-.91-.83-.91-.83-.92-.82-.93-.82-.93-.82-.94-.81-.95-.8-.95-.8-.96-.8-.96-.79-.97-.79-.97-.79-.99-.78-.98-.77-.99-.78-1-.76-1.01-.77-1.01-.76-1.01-.75-1.03-.75-1.03-.75-1.03-.74-1.04-.74-1.05-.73-1.05-.73-1.06-.73-1.06-.72-1.07-.71-1.08-.72-1.08-.7-1.09-.71-1.09-.7-1.1-.69-1.1-.69-1.12-.69-1.11-.68-1.13-.68-1.13" style="stroke-width:1.07;stroke:#000000;stroke-opacity:0.10;stroke-linecap:butt"/><path d="m243.99 431.64.98-.95.99-.94.99-.94 1-.93 1-.92 1-.91 1-.91 1.01-.9 1.01-.89 1.01-.88 1.01-.88 1.02-.86 1.02-.86 1.03-.86 1.02-.84 1.03-.84 1.04-.83 1.03-.82 1.04-.82 1.04-.8 1.05-.8 1.05-.8 1.05-.78 1.05-.78 1.06-.77 1.06-.76 1.06-.75 1.06-.75 1.07-.74 1.07-.73 1.08-.72 1.08-.72 1.08-.71 1.08-.7 1.08-.69 1.09-.69 1.1-.68 1.09-.67 1.1-.66 1.1-.66 1.1-.65 1.11-.64 1.11-.63 1.11-.63 1.12-.62 1.11-.61 1.13-.6 1.12-.59 1.13-.59 1.13-.58 1.13-.58 1.14-.56 1.14-.56 1.14-.55 1.14-.54 1.15-.54 1.15-.52 1.15-.52 1.16-.51 1.16-.51 1.16-.5 1.17-.49 1.17-.48 1.17-.47 1.17-.47 1.18-.46 1.18-.45 1.18-.44 1.19-.44 1.19-.43 1.19-.42 1.19-.41 1.2-.41 1.2-.4 1.21-.39 1.2-.38 1.21-.38 1.21-.37 1.22-.36 1.22-.35 1.22-.35 1.22-.33 1.23-.33 1.23-.33 1.23-.31 1.24-.31 1.24-.3 1.24-.29 1.25-.29 1.24-.28 1.25-.27 1.26-.26 1.25-.25 1.26-.25 1.27-.24 1.26-.23 1.27-.23 1.27-.21 1.28-.21m-111.88 57.44-1.13-.51-1.11-.51-1.12-.53-1.11-.52-1.1-.54-1.1-.54-1.09-.55-1.09-.56-1.08-.56-1.08-.57-1.08-.57-1.07-.59-1.06-.59-1.06-.59-1.06-.6-1.05-.61-1.04-.62-1.05-.62-1.03-.63-1.03-.64-1.03-.64-1.02-.65-1.02-.66-1.01-.66-1.01-.67-1-.68-1-.68-.99-.69-.99-.7-.98-.7-.98-.72-.97-.71-.97-.73-.96-.73-.96-.73-.96-.75-.95-.75-.94-.76-.94-.76-.93-.77-.93-.78-.93-.78-.92-.8-.92-.79-.91-.81-.9-.81-.9-.82-.9-.82-.89-.83-.89-.84-.88-.85-.88-.85-.87-.86-.87-.86-.86-.88-.86-.87-.85-.89-.85-.89-.84-.9-.84-.91-.83-.91-.83-.92-.83-.92-.81-.94-.82-.94-.81-.94-.8-.95-.8-.96-.8-.97-.79-.97-.78-.98-.78-.99-.78-.99-.77-1-.77-1.01-.76-1.01-.76-1.02-.75-1.03-.74-1.03-.75-1.04-.73-1.05-.74-1.05-.72-1.06-.73-1.07-.71-1.08-.72-1.08-.71-1.08-.7-1.1-.7-1.1-.69-1.11-.69-1.11-.69-1.12-.68-1.13-.67-1.13-.67-1.14-.66-1.15-.66-1.16-.66-1.16-.65-1.17" style="stroke-width:1.07;stroke:#000000;stroke-opacity:0.10;stroke-linecap:butt"/><path d="m243.99 431.64.96-1 .97-.99.98-.99.97-.97.98-.97.99-.95.98-.95.99-.94 1-.94.99-.92 1-.91 1.01-.91 1-.9 1.01-.89 1.02-.88 1.01-.87 1.02-.86 1.03-.86 1.02-.84 1.03-.84 1.04-.83 1.03-.82 1.04-.81 1.05-.81 1.04-.79 1.05-.79 1.06-.77 1.05-.77 1.06-.76 1.07-.75 1.06-.75 1.07-.73 1.08-.73 1.08-.72 1.08-.7 1.08-.71 1.09-.69 1.09-.68 1.09-.67 1.1-.67 1.1-.66 1.1-.65 1.11-.64 1.11-.63 1.11-.62 1.12-.62 1.12-.6 1.12-.6 1.13-.59 1.13-.58 1.13-.57 1.14-.56 1.14-.56 1.14-.54 1.15-.54 1.15-.53 1.15-.52 1.16-.51 1.16-.51 1.16-.49 1.17-.49 1.17-.47 1.17-.47 1.18-.46 1.18-.45 1.18-.45 1.19-.43 1.19-.43 1.19-.41 1.2-.41 1.2-.4 1.2-.39 1.21-.39 1.21-.37 1.21-.37 1.22-.35 1.22-.35 1.22-.34 1.23-.33 1.23-.33 1.23-.31 1.24-.31 1.24-.29 1.24-.29 1.25-.28 1.25-.27 1.25-.27 1.26-.25 1.26-.25 1.26-.23 1.27-.23 1.27-.22 1.28-.21 1.27-.21 1.28-.19 1.29-.19 1.28-.17 1.29-.17 1.3-.16m46.52-136.44-.87-.05-.87-.04-.87-.04-.87-.04-.87-.05-.87-.04-.87-.04-.88-.04-.87-.05-.87-.04-.87-.04-.87-.04-.87-.05-.87-.04-.87-.04-.87-.04-.87-.05-.87-.04-.87-.04-.87-.04-.87-.05-.87-.04-.87-.04-.87-.04-.87-.05-.87-.04-.87-.04-.87-.04-.87-.05-.87-.04-.88-.04-.87-.04-.87-.05-.87-.04-.87-.04-.87-.04-.87-.05-.87-.04-.87-.04-.87-.04-.87-.05-.87-.04-.87-.04-.87-.04-.87-.05-.87-.04-.87-.04-.87-.04-.87-.05-.87-.04-.87-.04-.87-.04-.88-.05-.87-.04-.87-.04-.87-.04-.87-.05-.87-.04-.87-.04-.87-.04-.87-.05-.87-.04-.87-.04-.87-.04-.87-.05-.87-.04-.87-.04-.87-.04-.87-.05-.87-.04-.87-.04-.87-.04-.87-.05-.87-.04-.88-.04-.87-.04-.87-.05-.87-.04-.87-.04-.87-.04-.87-.05-.87-.04-.87-.04-.87-.04-.87-.05-.87-.04-.87-.04-.87-.04-.87-.05-.87-.04-.87-.04-.87-.04-.87-.05-.87-.04-.87-.04-.87-.04-.88-.05-.87-.04-.87-.04m86.18 4.21-.47 1.37-.47 1.38-.47 1.38-.47 1.38-.47 1.38-.47 1.37-.47 1.38-.47 1.38-.47 1.38-.47 1.38-.47 1.38-.47 1.37-.47 1.38-.47 1.38-.47 1.38-.47 1.38-.47 1.37-.47 1.38-.47 1.38-.47 1.38-.47 1.38-.47 1.38-.47 1.37-.47 1.38-.47 1.38-.47 1.38-.47 1.38-.47 1.37-.47 1.38-.47 1.38-.47 1.38-.47 1.38-.47 1.38-.47 1.37-.47 1.38-.47 1.38-.47 1.38-.47 1.38-.47 1.38-.47 1.37-.47 1.38-.47 1.38-.47 1.38-.47 1.38-.47 1.37-.47 1.38-.47 1.38-.47 1.38-.47 1.38-.47 1.38-.47 1.37-.47 1.38-.47 1.38-.47 1.38-.47 1.38-.47 1.37-.47 1.38-.47 1.38-.47 1.38-.47 1.38-.47 1.38-.47 1.37-.47 1.38-.47 1.38-.47 1.38-.47 1.38-.47 1.37-.47 1.38-.47 1.38-.47 1.38-.47 1.38-.47 1.38-.47 1.37-.47 1.38-.47 1.38-.47 1.38-.47 1.38-.47 1.37-.47 1.38-.47 1.38-.47 1.38-.47 1.38-.46 1.38-.47 1.37-.47 1.38-.47 1.38-.47 1.38-.47 1.38-.47 1.38-.47 1.37-.47 1.38-.47 1.38-.47 1.38-.47 1.38-.47 1.37-.47 1.38-.47 1.38-.47 1.38-.47 1.38m-105.34-61.72-.96.37-.95.36-.95.37-.95.36-.96.37-.95.36-.95.37-.96.37-.95.36-.95.37-.95.36-.96.37-.95.36-.95.37-.95.36-.96.37-.95.36-.95.37-.95.36-.96.37-.95.36-.95.37-.96.36-.95.37-.95.36-.95.37-.96.36-.95.37-.95.37-.95.36-.96.37-.95.36-.95.37-.96.36-.95.37-.95.36-.95.37-.96.36-.95.37-.95.36-.95.37-.96.36-.95.37-.95.36-.96.37-.95.36-.95.37-.95.37-.96.36-.95.37-.95.36-.95.37-.96.36-.95.37-.95.36-.95.37-.96.36-.95.37-.95.36-.96.37-.95.36-.95.37-.95.36-.96.37-.95.36-.95.37-.95.37-.96.36-.95.37-.95.36-.96.37-.95.36-.95.37-.95.36-.96.37-.95.36-.95.37-.95.36-.96.37-.95.36-.95.37-.95.36-.96.37-.95.36-.95.37-.96.37-.95.36-.95.37-.95.36-.96.37-.95.36-.95.37-.95.36-.96.37-.95.36-.95.37-.96.36-.95.37-.95.36" style="stroke-width:1.07;stroke:#000000;stroke-opacity:0.10;stroke-linecap:butt"/><path d="m250.53 312.48 1.06.63 1.06.62 1.07.62 1.06.63 1.07.62 1.06.62 1.06.63 1.07.62 1.06.62 1.07.63 1.06.62 1.06.62 1.07.63 1.06.62 1.07.62 1.06.63 1.07.62 1.06.62 1.06.63 1.07.62 1.06.62 1.07.63 1.06.62 1.06.62 1.07.63 1.06.62 1.07.62 1.06.63 1.06.62 1.07.62 1.06.63 1.07.62 1.06.62 1.06.63 1.07.62 1.06.62 1.07.63 1.06.62 1.06.62 1.07.63 1.06.62 1.07.62 1.06.63 1.06.62 1.07.62 1.06.63 1.07.62 1.06.62 1.06.63 1.07.62 1.06.63 1.07.62 1.06.62 1.06.63 1.07.62 1.06.62 1.07.63 1.06.62 1.06.62 1.07.63 1.06.62 1.07.62 1.06.63 1.06.62 1.07.62 1.06.63 1.07.62 1.06.62 1.07.63 1.06.62 1.06.62 1.07.63 1.06.62 1.07.62 1.06.63 1.06.62 1.07.62 1.06.63 1.07.62 1.06.62 1.06.63 1.07.62 1.06.62 1.07.63 1.06.62 1.06.62 1.07.63 1.06.62 1.07.62 1.06.63 1.06.62 1.07.62 1.06.63 1.07.62 1.06.62 1.06.63 1.07.62 1.06.62 1.07.63m-112.6-232.79.74.93.74.93.73.93.74.93.74.93.73.93.74.93.74.93.73.94.74.93.74.93.73.93.74.93.74.93.73.93.74.93.74.93.73.93.74.93.74.93.73.93.74.93.74.94.73.93.74.93.74.93.74.93.73.93.74.93.74.93.73.93.74.93.74.93.73.93.74.93.74.93.73.94.74.93.74.93.73.93.74.93.74.93.73.93.74.93.74.93.73.93.74.93.74.93.73.93.74.93.74.94.73.93.74.93.74.93.74.93.73.93.74.93.74.93.73.93.74.93.74.93.73.93.74.93.74.93.73.94.74.93.74.93.73.93.74.93.74.93.73.93.74.93.74.93.73.93.74.93.74.93.73.93.74.93.74.93.73.94.74.93.74.93.74.93.73.93.74.93.74.93.73.93.74.93.74.93.73.93.74.93.74.93.73.93.74.94.74.93.73.93.74.93.74.93.73.93m-72.94-92.14-.9.7-.91.7-.91.7-.9.7-.91.7-.9.7-.91.7-.9.7-.91.7-.91.7-.9.7-.91.7-.9.7-.91.7-.9.7-.91.7-.91.7-.9.7-.91.7-.9.7-.91.7-.9.7-.91.7-.91.7-.9.7-.91.7-.9.7-.91.7-.9.7-.91.7-.91.7-.9.7-.91.7-.9.7-.91.7-.9.7-.91.7-.91.7-.9.7-.91.7-.9.7-.91.7-.9.7-.91.7-.91.7-.9.7-.91.7-.9.7-.91.7-.9.7-.91.7-.91.7-.9.7-.91.7-.9.7-.91.7-.9.7-.91.71-.91.7-.9.7-.91.7-.9.7-.91.7-.9.7-.91.7-.91.7-.9.7-.91.7-.9.7-.91.7-.9.7-.91.7-.91.7-.9.7-.91.7-.9.7-.91.7-.9.7-.91.7-.91.7-.9.7-.91.7-.9.7-.91.7-.9.7-.91.7-.91.7-.9.7-.91.7-.9.7-.91.7-.9.7-.91.7-.91.7-.9.7-.91.7-.9.7-.91.7-.9.7M63.2 281.49l.94.68.94.68.94.67.94.68.94.68.94.68.94.68.94.68.94.67.94.68.94.68.93.68.94.68.94.68.94.67.94.68.94.68.94.68.94.68.94.68.94.67.94.68.94.68.94.68.94.68.94.68.94.67.94.68.94.68.94.68.93.68.94.68.94.67.94.68.94.68.94.68.94.68.94.68.94.67.94.68.94.68.94.68.94.68.94.68.94.67.94.68.94.68.94.68.94.68.93.68.94.67.94.68.94.68.94.68.94.68.94.68.94.67.94.68.94.68.94.68.94.68.94.68.94.67.94.68.94.68.94.68.94.68.94.68.93.67.94.68.94.68.94.68.94.68.94.68.94.67.94.68.94.68.94.68.94.68.94.68.94.67.94.68.94.68.94.68.94.68.94.68.94.67.93.68.94.68.94.68.94.68.94.68.94.67.94.68.94.68.94.68.94.68.94.68.94.67m283.76 110.72.84.68.83.68.84.69.83.68.84.68.83.68.84.68.84.68.83.68.84.69.83.68.84.68.83.68.84.68.83.68.84.69.83.68.84.68.83.68.84.68.83.68.84.69.83.68.84.68.83.68.84.68.83.68.84.69.83.68.84.68.83.68.84.68.83.68.84.69.83.68.84.68.83.68.84.68.83.68.84.69.83.68.84.68.83.68.84.68.83.68.84.68.83.69.84.68.83.68.84.68.83.68.84.68.83.69.84.68.83.68.84.68.83.68.84.68.83.69.84.68.83.68.84.68.83.68.84.68.83.69.84.68.83.68.84.68.83.68.84.68.84.69.83.68.84.68.83.68.84.68.83.68.84.68.83.69.84.68.83.68.84.68.83.68.84.68.83.69.84.68.83.68.84.68.83.68.84.68.83.69.84.68.83.68.84.68.83.68.84.68.83.69.84.68.83.68.84.68" style="stroke-width:1.07;stroke:#000000;stroke-opacity:0.10;stroke-linecap:butt"/><path d="m439.97 459.36-.85-.86-.84-.86-.85-.86-.85-.86-.85-.86-.85-.86-.85-.86-.85-.86-.85-.86-.85-.86-.85-.86-.85-.86-.85-.86-.85-.86-.85-.86-.85-.86-.85-.86-.85-.86-.85-.86-.85-.86-.85-.86-.85-.86-.85-.86-.85-.87-.84-.86-.85-.86-.85-.86-.85-.86-.85-.86-.85-.86-.85-.86-.85-.86-.85-.86-.85-.86-.85-.86-.85-.86-.85-.86-.85-.86-.85-.86-.85-.86-.85-.86-.85-.86-.85-.86-.85-.86-.85-.86-.85-.86-.85-.86-.85-.86-.84-.86-.85-.86-.85-.86-.85-.86-.85-.86-.85-.86-.85-.86-.85-.86-.85-.86-.85-.86-.85-.86-.85-.86-.85-.86-.85-.86-.85-.86-.85-.86-.85-.86-.85-.87-.85-.86-.85-.86-.85-.86-.85-.86-.85-.86-.85-.86-.84-.86-.85-.86-.85-.86-.85-.86-.85-.86-.85-.86-.85-.86-.85-.86-.85-.86-.85-.86-.85-.86-.85-.86-.85-.86-.85-.86-.85-.86-.85-.86-.85-.86-.85-.86-.85-.86-.85-.86-.85-.86-.85-.86-.85-.86-.84-.86-.85-.86-.85-.86-.85-.86m-90.49-1.91.54-1.39.53-1.39.54-1.39.53-1.39.54-1.39.53-1.39.54-1.4.53-1.39.53-1.39.54-1.39.53-1.39.53-1.4.53-1.39.53-1.39.53-1.4.53-1.39.53-1.39.53-1.4.53-1.39.52-1.4.53-1.39.53-1.4.52-1.39.53-1.4.53-1.39.52-1.4.52-1.4.53-1.39.52-1.4.52-1.4.53-1.39.52-1.4.52-1.4.52-1.4.52-1.39.52-1.4.52-1.4.52-1.4.52-1.4.52-1.4.52-1.4.51-1.4.52-1.4.52-1.4.51-1.4.52-1.4.51-1.4.52-1.4.51-1.4.51-1.4.52-1.4.51-1.4.51-1.41.51-1.4.51-1.4.52-1.4.51-1.41.51-1.4.5-1.4.51-1.41.51-1.4.51-1.41.51-1.4.5-1.4.51-1.41.51-1.4.5-1.41.51-1.41.5-1.4.5-1.41.51-1.4.5-1.41.5-1.41.51-1.4.5-1.41.5-1.41.5-1.41.5-1.4.5-1.41.5-1.41.5-1.41.5-1.41.49-1.41.5-1.41.5-1.4.49-1.41.5-1.41.5-1.41.49-1.41.49-1.42.5-1.41.49-1.41.5-1.41.49-1.41.49-1.41.49-1.41.49-1.42.49-1.41.49-1.41" style="stroke-width:1.07;stroke:#000000;stroke-opacity:0.10;stroke-linecap:butt"/><path d="m265.38 372.29.91.2.91.19.91.2.92.18.91.19.91.18.91.18.91.17.91.17.91.17.92.16.91.16.91.15.91.15.91.15.92.15.91.14.91.13.91.14.91.13.92.12.91.12.91.12.91.12.92.11.91.11.91.1.91.1.92.1.91.09.91.09.92.08.91.09.91.07.91.08.92.07.91.07.91.06.92.06.91.05.91.06.92.05.91.04.92.04.91.04.91.03.92.03.91.03.91.02.92.02.91.02.92.01.91.01h2.74l.92-.01.91-.01.92-.01.91-.02.92-.02.91-.02.92-.03.91-.03.92-.04.91-.04.92-.04.91-.05.92-.05.91-.05.92-.06.91-.06.92-.07.91-.07.92-.07.91-.08.92-.08.91-.08.92-.09.92-.09.91-.09.92-.1.91-.1.92-.11.92-.11.91-.11.92-.12.91-.12.92-.12.92-.13.91-.13.92-.14.92-.13.91-.15.92-.14.92-.15.91-.16.92-.15.92-.16m-90.49-1.91-.11 1.49-.1 1.5-.1 1.49-.1 1.49-.1 1.5-.09 1.49-.1 1.49-.09 1.5-.09 1.49-.09 1.49-.08 1.5-.08 1.49-.09 1.5-.08 1.49-.07 1.49-.08 1.5-.07 1.49-.07 1.49-.07 1.5-.07 1.49-.06 1.49-.07 1.5-.06 1.49-.06 1.5-.06 1.49-.05 1.49-.05 1.5-.06 1.49-.04 1.49-.05 1.5-.05 1.49-.04 1.5-.04 1.49-.04 1.49-.04 1.5-.03 1.49-.03 1.49-.04 1.5-.02 1.49-.03 1.5-.03 1.49-.02 1.49-.02 1.5-.02 1.49-.02 1.5-.01 1.49-.01 1.49-.01 1.5-.01 1.49-.01 1.5v1.49l-.01 1.49v2.99l.01 1.5v1.49l.01 1.49.01 1.5.01 1.49.01 1.5.02 1.49.02 1.49.02 1.5.02 1.49.02 1.5.03 1.49.03 1.5.03 1.49.03 1.49.03 1.5.04 1.49.03 1.5.04 1.49.05 1.5.04 1.49.05 1.49.04 1.5.05 1.49.05 1.5.06 1.49.05 1.5.06 1.49.06 1.49.06 1.5.07 1.49.06 1.5.07 1.49.07 1.5.07 1.49.08 1.5.07 1.49.08 1.5.08 1.49.09 1.49.08 1.5.09 1.49.08 1.5.09 1.49.1 1.5" style="stroke-width:1.07;stroke:#000000;stroke-opacity:0.10;stroke-linecap:butt"/><path d="m265.38 372.29.91.16.91.16.92.15.91.15.91.15.91.14.91.14.92.14.91.14.91.13.91.13.91.13.92.13.91.12.91.12.91.11.92.12.91.11.91.11.91.1.92.1.91.1.91.1.92.09.91.09.91.09.91.09.92.08.91.08.91.07.92.08.91.07.91.07.92.06.91.06.91.06.92.06.91.05.91.05.92.05.91.05.91.04.92.04.91.03.92.04.91.03.91.03.92.02.91.02.91.02.92.02.91.01.92.01.91.01.92.01h1.82l.92-.01h.91l.92-.01.91-.01.92-.02.91-.02.92-.02.91-.02.91-.03.92-.03.91-.03.92-.03.91-.04.92-.04.91-.05.92-.04.91-.05.92-.05.91-.06.92-.06.92-.06.91-.06.92-.07.91-.07.92-.07.91-.07.92-.08.91-.08.92-.09.91-.08.92-.09.92-.09.91-.1.92-.1.91-.1.92-.1.92-.11.91-.11.92-.11.91-.11.92-.12.92-.12m-90.49-1.91.49-1.41.49-1.42.49-1.41.49-1.41.5-1.41.49-1.41.49-1.41.5-1.42.49-1.41.49-1.41.5-1.41.49-1.41.5-1.41.5-1.41.49-1.41.5-1.41.5-1.4.5-1.41.5-1.41.5-1.41.5-1.41.5-1.41.5-1.4.5-1.41.5-1.41.5-1.4.5-1.41.51-1.41.5-1.4.5-1.41.51-1.41.5-1.4.51-1.41.51-1.4.5-1.41.51-1.4.51-1.41.5-1.4.51-1.4.51-1.41.51-1.4.51-1.4.51-1.41.51-1.4.51-1.4.51-1.41.51-1.4.52-1.4.51-1.4.51-1.4.52-1.4.51-1.4.52-1.4.51-1.41.52-1.4.51-1.4.52-1.4.52-1.4.52-1.39.51-1.4.52-1.4.52-1.4.52-1.4.52-1.4.52-1.4.52-1.39.53-1.4.52-1.4.52-1.4.52-1.39.53-1.4.52-1.4.52-1.39.53-1.4.52-1.39.53-1.4.53-1.39.52-1.4.53-1.39.53-1.4.53-1.39.52-1.4.53-1.39.53-1.39.53-1.4.53-1.39.54-1.39.53-1.4.53-1.39.53-1.39.53-1.39.54-1.39.53-1.4.54-1.39.53-1.39.54-1.39.53-1.39.54-1.39.53-1.39" style="stroke-width:1.07;stroke:#000000;stroke-opacity:0.10;stroke-linecap:butt"/><path d="m265.38 372.29.91.12.92.12.91.11.91.11.91.12.92.1.91.11.91.11.91.1.92.1.91.1.91.1.91.09.92.09.91.09.91.09.92.09.91.08.91.09.91.08.92.08.91.07.91.08.92.07.91.07.91.07.92.06.91.07.91.06.92.06.91.06.91.05.92.06.91.05.91.05.92.05.91.04.91.05.92.04.91.04.92.04.91.03.91.03.92.04.91.03.91.02.92.03.91.02.92.02.91.02.91.02.92.01.91.02.92.01.91.01.92.01h4.57l.91-.01h.92l.91-.01.91-.01.92-.02.91-.01.92-.02.91-.02.92-.02.91-.02.92-.03.91-.03.92-.03.91-.03.92-.03.91-.04.92-.04.91-.04.92-.04.91-.04.92-.05.91-.05.92-.05.91-.05.92-.05.91-.06.92-.06.91-.06.92-.06.91-.06.92-.07.91-.07.92-.07.91-.07.92-.08.92-.07.91-.08.92-.08m-90.49-1.91-.06 1.49-.05 1.5-.05 1.49-.06 1.49-.05 1.5-.05 1.49-.05 1.5-.05 1.49-.05 1.49-.05 1.5-.04 1.49-.05 1.49-.04 1.5-.04 1.49-.05 1.5-.04 1.49-.04 1.49-.04 1.5-.03 1.49-.04 1.5-.04 1.49-.03 1.49-.04 1.5-.03 1.49-.03 1.49-.03 1.5-.03 1.49-.03 1.5-.03 1.49-.03 1.49-.02 1.5-.03 1.49-.02 1.5-.02 1.49-.03 1.49-.02 1.5-.02 1.49-.01 1.5-.02 1.49-.02 1.49-.02 1.5-.01 1.49-.01 1.5-.02 1.49-.01 1.49-.01 1.5-.01 1.49-.01 1.5-.01 1.49v1.49l-.01 1.5v1.49l-.01 1.5v8.96l.01 1.49v1.5l.01 1.49v1.5l.01 1.49.01 1.49.01 1.5.01 1.49.01 1.5.01 1.49.02 1.49.01 1.5.02 1.49.01 1.5.02 1.49.02 1.5.02 1.49.02 1.49.02 1.5.02 1.49.03 1.5.02 1.49.03 1.49.02 1.5.03 1.49.03 1.5.03 1.49.03 1.5.03 1.49.03 1.49.04 1.5.03 1.49.04 1.5.04 1.49.03 1.5.04 1.49.04 1.49.04 1.5.04 1.49.05 1.5" style="stroke-width:1.07;stroke:#000000;stroke-opacity:0.10;stroke-linecap:butt"/><path d="m265.38 372.29.91.08.92.08.91.07.91.08.92.07.91.08.91.07.92.07.91.07.91.07.92.06.91.07.91.06.91.07.92.06.91.06.91.06.92.06.91.06.92.05.91.06.91.05.92.05.91.05.91.05.92.05.91.05.91.05.92.04.91.04.91.05.92.04.91.04.91.04.92.04.91.03.92.04.91.03.91.03.92.03.91.04.92.02.91.03.91.03.92.02.91.03.91.02.92.02.91.02.92.02.91.02.91.02.92.01.91.02.92.01.91.01.92.01.91.01.91.01.92.01h.91l.92.01h6.4l.91-.01.91-.01h.92l.91-.01.92-.01.91-.01.92-.02.91-.01.92-.01.91-.02.92-.02.91-.02.91-.02.92-.02.91-.02.92-.02.91-.03.92-.03.91-.02.92-.03.91-.03.92-.03.91-.03.92-.04.91-.03.92-.04.91-.03.92-.04.91-.04.92-.04m-90.49-1.91-.01 1.49v1.5l-.01 1.49-.01 1.5v1.49l-.01 1.49-.01 1.5v1.49l-.01 1.5-.01 1.49v1.49l-.01 1.5-.01 1.49v1.5l-.01 1.49-.01 1.49v1.5l-.01 1.49-.01 1.5v1.49l-.01 1.49-.01 1.5v1.49l-.01 1.5-.01 1.49v1.49l-.01 1.5-.01 1.49v1.5l-.01 1.49-.01 1.49v1.5l-.01 1.49-.01 1.5v1.49l-.01 1.49-.01 1.5v1.49l-.01 1.5-.01 1.49v1.49l-.01 1.5-.01 1.49v1.5l-.01 1.49-.01 1.49v1.5l-.01 1.49-.01 1.5v1.49l-.01 1.49-.01 1.5v1.49l-.01 1.5-.01 1.49v1.49l-.01 1.5-.01 1.49-.01 1.5v1.49l-.01 1.49-.01 1.5v1.49l-.01 1.5-.01 1.49v1.49l-.01 1.5-.01 1.49v1.5l-.01 1.49-.01 1.49v1.5l-.01 1.49-.01 1.5v1.49l-.01 1.49-.01 1.5v1.49l-.01 1.5-.01 1.49v1.49l-.01 1.5-.01 1.49v1.5l-.01 1.49-.01 1.49v1.5l-.01 1.49-.01 1.5v1.49l-.01 1.49-.01 1.5v1.49l-.01 1.5-.01 1.49v1.49l-.01 1.5-.01 1.49v1.5" style="stroke-width:1.07;stroke:#000000;stroke-opacity:0.10;stroke-linecap:butt"/><path d="m265.38 372.29.91.04.92.04.91.04.92.03.91.04.91.04.92.04.91.03.91.04.92.03.91.04.92.03.91.04.91.03.92.04.91.03.91.03.92.03.91.04.92.03.91.03.91.03.92.03.91.03.91.03.92.03.91.03.92.02.91.03.91.03.92.03.91.02.92.03.91.03.91.02.92.03.91.02.91.02.92.03.91.02.92.02.91.03.91.02.92.02.91.02.92.02.91.02.91.02.92.02.91.02.92.02.91.02.91.02.92.02.91.01.92.02.91.02.91.01.92.02.91.01.92.02.91.01.92.02.91.01.91.01.92.02.91.01.92.01.91.01.91.01.92.01.91.01.92.01.91.01.91.01.92.01.91.01.92.01h.91l.92.01.91.01h.91l.92.01.91.01h1.83l.91.01h.92l.91.01h2.75l.91.01h5.49m-302.52 6.3 1.05-.3 1.04-.3 1.05-.3 1.04-.3 1.04-.3 1.05-.3 1.04-.3 1.04-.3 1.05-.31 1.04-.3 1.04-.3 1.05-.31 1.04-.3 1.04-.31 1.05-.3 1.04-.31 1.04-.31 1.04-.3 1.05-.31 1.04-.31 1.04-.31 1.04-.3 1.04-.31 1.05-.31 1.04-.31 1.04-.31 1.04-.32 1.04-.31 1.04-.31 1.04-.31 1.04-.32 1.05-.31 1.04-.31 1.04-.32 1.04-.31 1.04-.32 1.04-.31 1.04-.32 1.04-.32 1.04-.31 1.04-.32 1.04-.32 1.04-.32 1.04-.32 1.04-.32 1.04-.32 1.04-.32 1.04-.32 1.03-.32 1.04-.32 1.04-.32 1.04-.32 1.04-.33 1.04-.32 1.04-.33 1.04-.32 1.03-.33 1.04-.32 1.04-.33 1.04-.32 1.03-.33 1.04-.33 1.04-.33 1.04-.32 1.03-.33 1.04-.33 1.04-.33 1.04-.33 1.03-.33 1.04-.33 1.04-.34 1.03-.33 1.04-.33 1.04-.33 1.03-.34 1.04-.33 1.03-.33 1.04-.34 1.04-.33 1.03-.34 1.04-.34 1.03-.33 1.04-.34 1.03-.34 1.04-.34 1.03-.33 1.04-.34 1.03-.34 1.04-.34 1.03-.34 1.04-.34 1.03-.34 1.04-.35 1.03-.34 1.03-.34 1.04-.34 1.03-.35 1.04-.34 1.03-.35m109.17 23.65.04 1.49.05 1.5.04 1.49.04 1.5.03 1.49.04 1.5.04 1.49.03 1.49.04 1.5.03 1.49.04 1.5.03 1.49.03 1.5.03 1.49.03 1.49.02 1.5.03 1.49.03 1.5.02 1.49.02 1.49.03 1.5.02 1.49.02 1.5.02 1.49.02 1.5.01 1.49.02 1.49.02 1.5.01 1.49.01 1.5.02 1.49.01 1.49.01 1.5.01 1.49.01 1.5v1.49l.01 1.5.01 1.49v2.99l.01 1.49v5.98l-.01 1.49v2.99l-.01 1.49-.01 1.5-.01 1.49v1.5l-.01 1.49-.01 1.49-.02 1.5-.01 1.49-.01 1.5-.02 1.49-.01 1.49-.02 1.5-.02 1.49-.02 1.5-.02 1.49-.02 1.49-.02 1.5-.02 1.49-.03 1.5-.02 1.49-.03 1.49-.02 1.5-.03 1.49-.03 1.49-.03 1.5-.03 1.49-.03 1.5-.04 1.49-.03 1.49-.04 1.5-.03 1.49-.04 1.5-.04 1.49-.04 1.49-.04 1.5-.04 1.49-.04 1.49-.04 1.5-.05 1.49-.04 1.5-.05 1.49-.04 1.49-.05 1.5-.05 1.49-.05 1.49-.05 1.5-.05 1.49-.06 1.5-.05 1.49-.06 1.49-.05 1.5" style="stroke-width:1.07;stroke:#000000;stroke-opacity:0.10;stroke-linecap:butt"/><path d="M265.38 372.29h6.4l.91.01h2.75l.91.01h.92l.91.01h.91l.92.01h.91l.92.01.91.01h.92l.91.01.91.01.92.01h.91l.92.01.91.01.91.01.92.01.91.01.92.02.91.01.92.01.91.01.91.01.92.02.91.01.92.01.91.02.91.01.92.02.91.01.92.02.91.02.91.01.92.02.91.02.92.02.91.01.91.02.92.02.91.02.92.02.91.02.91.02.92.03.91.02.92.02.91.02.91.02.92.03.91.02.92.03.91.02.91.03.92.02.91.03.92.02.91.03.91.03.92.02.91.03.91.03.92.03.91.03.92.03.91.03.91.03.92.03.91.03.92.03.91.03.91.04.92.03.91.03.91.03.92.04.91.03.92.04.91.03.91.04.92.03.91.04.91.04.92.03.91.04.92.04.91.04.91.04.92.04m-302.52 6.3 1.04-.34 1.03-.35 1.03-.34 1.04-.34 1.03-.35 1.04-.34 1.03-.34 1.03-.34 1.04-.34 1.03-.34 1.04-.34 1.03-.34 1.04-.34 1.03-.34 1.04-.34 1.03-.33 1.04-.34 1.03-.34 1.04-.33 1.04-.34 1.03-.34 1.04-.33 1.03-.33 1.04-.34 1.04-.33 1.03-.34 1.04-.33 1.04-.33 1.03-.33 1.04-.33 1.04-.33 1.03-.33 1.04-.33 1.04-.33 1.03-.33 1.04-.33 1.04-.33 1.04-.32 1.03-.33 1.04-.33 1.04-.32 1.04-.33 1.04-.32 1.04-.33 1.03-.32 1.04-.33 1.04-.32 1.04-.32 1.04-.32 1.04-.33 1.04-.32 1.04-.32 1.03-.32 1.04-.32 1.04-.32 1.04-.32 1.04-.32 1.04-.31 1.04-.32 1.04-.32 1.04-.32 1.04-.31 1.04-.32 1.04-.31 1.04-.32 1.05-.31 1.04-.32 1.04-.31 1.04-.31 1.04-.32 1.04-.31 1.04-.31 1.04-.31 1.04-.31 1.05-.31 1.04-.31 1.04-.31 1.04-.31 1.04-.31 1.05-.3 1.04-.31 1.04-.31 1.04-.31 1.05-.3 1.04-.31 1.04-.3 1.04-.31 1.05-.3 1.04-.31 1.04-.3 1.05-.3 1.04-.3 1.05-.31 1.04-.3 1.04-.3 1.05-.3 1.04-.3 1.04-.3 1.05-.3m109.17 23.65-1.09-.29-1.1-.28-1.09-.29-1.1-.28-1.1-.29-1.09-.28-1.1-.28-1.09-.28-1.1-.28-1.09-.28-1.1-.27-1.1-.28-1.09-.28-1.1-.27-1.1-.27-1.1-.28-1.09-.27-1.1-.27-1.1-.27-1.1-.27-1.09-.26-1.1-.27-1.1-.26-1.1-.27-1.1-.26-1.1-.26-1.1-.27-1.1-.26-1.09-.26-1.1-.26-1.1-.25-1.1-.26-1.1-.25-1.1-.26-1.1-.25-1.1-.26-1.11-.25-1.1-.25-1.1-.25-1.1-.25-1.1-.24-1.1-.25-1.1-.25-1.1-.24-1.11-.25-1.1-.24-1.1-.24-1.1-.24-1.11-.24-1.1-.24-1.1-.24-1.1-.23-1.11-.24-1.1-.23-1.1-.24-1.11-.23-1.1-.23-1.11-.23-1.1-.23-1.1-.23-1.11-.23-1.1-.23-1.11-.22-1.1-.23-1.11-.22-1.1-.23-1.11-.22-1.11-.22-1.1-.22-1.11-.22-1.1-.22-1.11-.21-1.11-.22-1.1-.22-1.11-.21-1.11-.21-1.1-.22-1.11-.21-1.11-.21-1.11-.21-1.1-.21-1.11-.2-1.11-.21-1.11-.2-1.11-.21-1.1-.2-1.11-.2-1.11-.21-1.11-.2-1.11-.2-1.11-.19-1.11-.2-1.11-.2-1.11-.19-1.11-.2-1.11-.19-1.11-.19-1.11-.2-1.11-.19" style="stroke-width:1.07;stroke:#000000;stroke-opacity:0.10;stroke-linecap:butt"/><path d="m265.38 372.29.92-.04.91-.04.92-.04.91-.04.92-.03.91-.04.91-.03.92-.03.91-.03.92-.03.91-.03.92-.03.91-.02.92-.03.91-.02.92-.02.91-.03.92-.02.91-.01.92-.02.91-.02.92-.01.91-.02.91-.01.92-.01.91-.01.92-.01.91-.01h.92l.91-.01h.92l.91-.01h3.66l.91.01h.92l.91.01.91.01h.92l.91.01.92.01.91.02.91.01.92.01.91.02.92.02.91.01.91.02.92.02.91.03.92.02.91.02.91.03.92.02.91.03.92.03.91.03.91.03.92.04.91.03.91.04.92.03.91.04.92.04.91.04.91.04.92.04.91.05.91.04.92.05.91.04.91.05.92.05.91.05.91.06.92.05.91.05.92.06.91.06.91.06.92.06.91.06.91.06.92.06.91.07.91.06.92.07.91.07.91.07.91.07.92.07.91.07.91.08.92.07.91.08.91.08.92.08m62.78-81.93-1.04-.59-1.03-.6-1.04-.59-1.03-.59-1.04-.59-1.03-.6-1.04-.59-1.03-.59-1.03-.6-1.04-.59-1.03-.59-1.04-.6-1.03-.59-1.04-.59-1.03-.6-1.04-.59-1.03-.59-1.04-.6-1.03-.59-1.04-.59-1.03-.59-1.04-.6-1.03-.59-1.03-.59-1.04-.6-1.03-.59-1.04-.59-1.03-.6-1.04-.59-1.03-.59-1.04-.6-1.03-.59-1.04-.59-1.03-.6-1.04-.59-1.03-.59-1.04-.6-1.03-.59-1.04-.59-1.03-.59-1.03-.6-1.04-.59-1.03-.59-1.04-.6-1.03-.59-1.04-.59-1.03-.6-1.04-.59-1.03-.59-1.04-.6-1.03-.59-1.04-.59-1.03-.6-1.04-.59-1.03-.59-1.03-.6-1.04-.59-1.03-.59-1.04-.59-1.03-.6-1.04-.59-1.03-.59-1.04-.6-1.03-.59-1.04-.59-1.03-.6-1.04-.59-1.03-.59-1.04-.6-1.03-.59-1.03-.59-1.04-.6-1.03-.59-1.04-.59-1.03-.6-1.04-.59-1.03-.59-1.04-.59-1.03-.6-1.04-.59-1.03-.59-1.04-.6-1.03-.59-1.04-.59-1.03-.6-1.04-.59-1.03-.59-1.03-.6-1.04-.59-1.03-.59-1.04-.6-1.03-.59-1.04-.59-1.03-.6-1.04-.59-1.03-.59-1.04-.59-1.03-.6-1.04-.59m102.44 58.72-.64.83-.63.83-.63.82-.64.83-.63.83-.64.83-.63.82-.64.83-.63.83-.63.83-.64.82-.63.83-.64.83-.63.83-.63.82-.64.83-.63.83-.64.83-.63.82-.64.83-.63.83-.63.83-.64.82-.63.83-.64.83-.63.83-.63.82-.64.83-.63.83-.64.83-.63.82-.64.83-.63.83-.63.83-.64.82-.63.83-.64.83-.63.83-.63.83-.64.82-.63.83-.64.83-.63.83-.64.82-.63.83-.63.83-.64.83-.63.82-.64.83-.63.83-.63.83-.64.82-.63.83-.64.83-.63.83-.64.82-.63.83-.63.83-.64.83-.63.82-.64.83-.63.83-.63.83-.64.82-.63.83-.64.83-.63.83-.63.82-.64.83-.63.83-.64.83-.63.82-.64.83-.63.83-.63.83-.64.82-.63.83-.64.83-.63.83-.63.82-.64.83-.63.83-.64.83-.63.82-.64.83-.63.83-.63.83-.64.82-.63.83-.64.83-.63.83-.63.82-.64.83-.63.83-.64.83-.63.82-.64.83-.63.83-.63.83M97.43 462.27l.59-1.15.59-1.15.6-1.14.59-1.15.59-1.15.6-1.15.59-1.14.6-1.15.59-1.15.59-1.15.6-1.14.59-1.15.59-1.15.6-1.15.59-1.15.6-1.14.59-1.15.59-1.15.6-1.15.59-1.14.6-1.15.59-1.15.59-1.15.6-1.15.59-1.14.59-1.15.6-1.15.59-1.15.6-1.14.59-1.15.59-1.15.6-1.15.59-1.15.59-1.14.6-1.15.59-1.15.6-1.15.59-1.14.59-1.15.6-1.15.59-1.15.59-1.15.6-1.14.59-1.15.6-1.15.59-1.15.59-1.14.6-1.15.59-1.15.59-1.15.6-1.14.59-1.15.6-1.15.59-1.15.59-1.15.6-1.14.59-1.15.59-1.15.6-1.15.59-1.14.6-1.15.59-1.15.59-1.15.6-1.15.59-1.14.59-1.15.6-1.15.59-1.15.6-1.14.59-1.15.59-1.15.6-1.15.59-1.15.59-1.14.6-1.15.59-1.15.6-1.15.59-1.14.59-1.15.6-1.15.59-1.15.6-1.14.59-1.15.59-1.15.6-1.15.59-1.15.59-1.14.6-1.15.59-1.15.6-1.15.59-1.14.59-1.15.6-1.15.59-1.15.59-1.15.6-1.14.59-1.15.6-1.15.59-1.15m109.17 23.65.09 1.49.09 1.5.09 1.49.09 1.5.08 1.49.08 1.5.08 1.49.08 1.5.08 1.49.07 1.5.07 1.49.07 1.49.07 1.5.07 1.49.06 1.5.06 1.49.06 1.5.06 1.49.06 1.5.05 1.49.05 1.49.05 1.5.05 1.49.05 1.5.04 1.49.04 1.5.04 1.49.04 1.49.04 1.5.03 1.49.03 1.5.03 1.49.03 1.5.02 1.49.03 1.49.02 1.5.02 1.49.02 1.5.01 1.49.02 1.49.01 1.5.01 1.49v1.5l.01 1.49v7.47l-.01 1.5-.01 1.49-.01 1.49-.01 1.5-.02 1.49-.01 1.49-.02 1.5-.02 1.49-.03 1.5-.02 1.49-.03 1.49-.03 1.5-.03 1.49-.03 1.5-.04 1.49-.03 1.49-.04 1.5-.04 1.49-.05 1.5-.04 1.49-.05 1.49-.05 1.5-.05 1.49-.05 1.49-.06 1.5-.05 1.49-.06 1.5-.06 1.49-.07 1.49-.06 1.5-.07 1.49-.07 1.49-.07 1.5-.07 1.49-.08 1.49-.08 1.5-.08 1.49-.08 1.5-.08 1.49-.09 1.49-.08 1.5-.09 1.49-.1 1.49-.09 1.5-.1 1.49-.09 1.49-.1 1.5-.1 1.49-.11 1.49-.1 1.5" style="stroke-width:1.07;stroke:#000000;stroke-opacity:0.10;stroke-linecap:butt"/><path d="m265.38 372.29.92-.08.91-.08.92-.08.91-.07.92-.07.91-.07.92-.07.91-.07.92-.06.92-.07.91-.06.92-.05.91-.06.92-.05.91-.06.92-.05.91-.04.92-.05.91-.04.92-.05.91-.04.92-.03.91-.04.92-.03.91-.04.92-.03.91-.02.91-.03.92-.02.91-.02.92-.02.91-.02.92-.02.91-.01.92-.01.91-.01.92-.01h.91l.91-.01h1.83l.92.01h.91l.92.01.91.01.91.01.92.01.91.02.92.01.91.02.91.02.92.03.91.02.92.03.91.03.91.03.92.04.91.03.91.04.92.04.91.04.92.04.91.05.91.05.92.05.91.05.91.05.92.06.91.06.91.06.92.06.91.06.91.07.92.07.91.07.91.07.92.07.91.08.91.08.92.08.91.08.91.09.91.08.92.09.91.09.91.1.92.09.91.1.91.1.91.1.92.1.91.11.91.1.91.11.92.11.91.12.91.11.91.12.92.12m-90.49-1.91-1.1-.24-1.1-.24-1.11-.24-1.1-.24-1.1-.23-1.11-.24-1.1-.24-1.1-.24-1.1-.24-1.11-.24-1.1-.24-1.1-.24-1.11-.24-1.1-.23-1.1-.24-1.1-.24-1.11-.24-1.1-.24-1.1-.24-1.1-.24-1.11-.24-1.1-.24-1.1-.23-1.11-.24-1.1-.24-1.1-.24-1.1-.24-1.11-.24-1.1-.24-1.1-.24-1.1-.23-1.11-.24-1.1-.24-1.1-.24-1.11-.24-1.1-.24-1.1-.24-1.1-.24-1.11-.24-1.1-.23-1.1-.24-1.1-.24-1.11-.24-1.1-.24-1.1-.24-1.11-.24-1.1-.24-1.1-.24-1.1-.23-1.11-.24-1.1-.24-1.1-.24-1.1-.24-1.11-.24-1.1-.24-1.1-.24-1.11-.23-1.1-.24-1.1-.24-1.1-.24-1.11-.24-1.1-.24-1.1-.24-1.1-.24-1.11-.24-1.1-.23-1.1-.24-1.11-.24-1.1-.24-1.1-.24-1.1-.24-1.11-.24-1.1-.24-1.1-.24-1.11-.23-1.1-.24-1.1-.24-1.1-.24-1.11-.24-1.1-.24-1.1-.24-1.1-.24-1.11-.24-1.1-.23-1.1-.24-1.11-.24-1.1-.24-1.1-.24-1.1-.24-1.11-.24-1.1-.24-1.1-.23-1.1-.24-1.11-.24-1.1-.24-1.1-.24-1.11-.24-1.1-.24-1.1-.24" style="stroke-width:1.07;stroke:#000000;stroke-opacity:0.10;stroke-linecap:butt"/><path d="m265.38 372.29.92-.12.91-.12.92-.11.92-.12.91-.11.92-.1.91-.11.92-.1.92-.09.91-.1.92-.09.91-.09.92-.09.91-.08.92-.08.91-.08.92-.07.92-.08.91-.07.92-.06.91-.07.92-.06.91-.05.92-.06.91-.05.92-.05.91-.05.92-.04.91-.04.92-.04.91-.03.92-.04.91-.03.92-.02.91-.03.92-.02.91-.01.92-.02.91-.01.91-.01.92-.01h2.74l.92.01h.91l.91.01.92.02.91.01.92.02.91.03.91.02.92.03.91.03.92.03.91.04.91.04.92.04.91.05.91.04.92.05.91.06.91.05.92.06.91.07.91.06.92.07.91.07.91.07.92.08.91.08.91.08.92.09.91.08.91.09.91.1.92.09.91.1.91.1.92.11.91.11.91.11.91.11.92.12.91.12.91.12.91.12.91.13.92.13.91.14.91.13.91.14.92.14.91.15.91.15.91.15.91.15.91.16.92.16m-90.49-1.91-1.11-.19-1.11-.19-1.11-.2-1.11-.19-1.11-.19-1.11-.2-1.11-.2-1.11-.19-1.11-.2-1.11-.2-1.11-.2-1.11-.2-1.11-.2-1.1-.21-1.11-.2-1.11-.21-1.11-.2-1.11-.21-1.1-.21-1.11-.21-1.11-.21-1.11-.21-1.1-.21-1.11-.22-1.11-.21-1.1-.22-1.11-.21-1.11-.22-1.1-.22-1.11-.22-1.1-.22-1.11-.22-1.11-.22-1.1-.22-1.11-.23-1.1-.22-1.11-.23-1.1-.23-1.11-.22-1.1-.23-1.1-.23-1.11-.23-1.1-.24-1.11-.23-1.1-.23-1.1-.24-1.11-.23-1.1-.24-1.1-.24-1.1-.24-1.11-.24-1.1-.24-1.1-.24-1.1-.24-1.11-.25-1.1-.24-1.1-.25-1.1-.24-1.1-.25-1.1-.25-1.1-.25-1.1-.25-1.11-.25-1.1-.25-1.1-.26-1.1-.25-1.1-.26-1.1-.25-1.1-.26-1.1-.26-1.09-.26-1.1-.26-1.1-.26-1.1-.26-1.1-.27-1.1-.26-1.1-.27-1.1-.26-1.09-.27-1.1-.27-1.1-.27-1.1-.27-1.09-.27-1.1-.27-1.1-.28-1.1-.27-1.09-.28-1.1-.27-1.1-.28-1.09-.28-1.1-.28-1.09-.28-1.1-.28-1.1-.28-1.09-.28-1.1-.29-1.09-.28-1.1-.29-1.09-.29" style="stroke-width:1.07;stroke:#000000;stroke-opacity:0.10;stroke-linecap:butt"/><path d="m265.38 372.29.92-.16.91-.16.92-.15.92-.15.91-.15.92-.14.92-.14.91-.13.92-.13.92-.13.91-.13.92-.12.92-.11.91-.12.92-.11.91-.1.92-.1.92-.1.91-.1.92-.09.91-.08.92-.09.91-.08.92-.07.91-.08.92-.06.92-.07.91-.06.92-.06.91-.05.92-.05.91-.05.92-.04.91-.04.92-.04.91-.03.92-.03.91-.02.92-.03.91-.01.91-.02.92-.01h.91l.92-.01h.91l.92.01.91.01.91.01.92.01.91.02.92.03.91.02.91.03.92.04.91.04.92.04.91.04.91.05.92.05.91.06.91.06.92.06.91.07.91.07.92.07.91.08.91.08.91.09.92.09.91.09.91.1.92.1.91.1.91.11.91.11.92.11.91.12.91.12.91.13.91.13.92.13.91.14.91.14.91.14.92.15.91.15.91.16.91.16.91.16.91.17.92.17.91.17.91.18.91.18.91.18.91.19.91.19.92.2.91.2M153.61 210.72l-.55 1.41-.54 1.4-.53 1.41-.52 1.41-.5 1.4-.49 1.41-.48 1.41-.47 1.4-.46 1.41-.44 1.4-.43 1.41-.42 1.4-.41 1.4-.4 1.41-.39 1.4-.37 1.41-.36 1.4-.35 1.4-.34 1.4-.33 1.4-.31 1.41-.31 1.4-.29 1.4-.28 1.4-.27 1.4-.25 1.4-.25 1.4-.23 1.4-.22 1.4-.21 1.4-.2 1.4-.18 1.4-.18 1.39-.16 1.4-.15 1.4-.14 1.4-.13 1.39-.11 1.4-.1 1.4-.1 1.39-.08 1.4-.06 1.39-.06 1.4-.04 1.39-.04 1.4-.02 1.39-.01 1.4.01 1.39.01 1.39.03 1.4.04 1.39.05 1.39.06 1.4.07 1.39.09 1.39.09 1.39.11 1.39.12 1.39.13 1.39.15 1.39.15 1.39.17 1.39.18 1.39.19 1.39.2 1.39.22 1.39.23 1.39.23 1.38.25 1.39.27 1.39.27 1.39.28 1.38.3 1.39.31 1.39.32 1.38.33 1.39.35 1.38.35 1.39.37 1.38.38 1.39.39 1.38.41 1.38.41 1.39.43 1.38.44 1.38.45 1.39.46 1.38.47 1.38.49 1.38.49 1.38.51 1.38.52 1.39.54 1.38.54 1.38.56 1.38.56 1.38.58 1.38.6 1.37.6 1.38" style="stroke-width:1.07;stroke:#000000;stroke-opacity:0.10;stroke-linecap:butt"/><path d="m153.61 210.72-.51 1.41-.49 1.4-.48 1.41-.48 1.4-.46 1.41-.45 1.4-.44 1.41-.43 1.4-.41 1.41-.41 1.4-.4 1.41-.38 1.4-.38 1.4-.36 1.4-.35 1.41-.35 1.4-.33 1.4-.32 1.4-.31 1.4-.3 1.41-.28 1.4-.28 1.4-.27 1.4-.25 1.4-.25 1.4-.23 1.4-.22 1.4-.21 1.4-.21 1.4-.19 1.39-.18 1.4-.16 1.4-.16 1.4-.15 1.4-.14 1.39-.12 1.4-.12 1.4-.1 1.39-.09 1.4-.08 1.39-.08 1.4-.06 1.4-.05 1.39-.03 1.4-.03 1.39-.02 1.39v2.79l.02 1.4.02 1.39.04 1.39.05 1.39.06 1.4.07 1.39.08 1.39.09 1.39.1 1.39.11 1.39.13 1.4.13 1.39.15 1.39.15 1.39.17 1.39.18 1.38.19 1.39.2 1.39.21 1.39.22 1.39.23 1.39.24 1.39.26 1.38.26 1.39.28 1.39.28 1.38.3 1.39.31 1.39.32 1.38.33 1.39.34 1.38.35 1.39.36 1.38.37 1.39.39 1.38.39 1.39.41 1.38.41 1.38.43 1.39.44 1.38.45 1.38.46 1.38.47 1.39.48 1.38.49 1.38.5 1.38.52 1.38.52 1.38.54 1.38.54 1.38.56 1.38" style="stroke-width:1.07;stroke:#000000;stroke-opacity:0.10;stroke-linecap:butt"/><path d="m153.61 210.72-.46 1.4-.45 1.41-.44 1.4-.43 1.41-.42 1.4-.41 1.41-.39 1.4-.39 1.4-.38 1.41-.37 1.4-.36 1.4-.35 1.41-.34 1.4-.33 1.4-.32 1.4-.31 1.4-.3 1.41-.29 1.4-.28 1.4-.27 1.4-.26 1.4-.25 1.4-.24 1.4-.23 1.4-.22 1.4-.22 1.4-.2 1.39-.19 1.4-.18 1.4-.17 1.4-.16 1.4-.15 1.4-.15 1.39-.13 1.4-.12 1.4-.11 1.39-.11 1.4-.09 1.4-.08 1.39-.07 1.4-.07 1.39-.05 1.4-.04 1.39-.03 1.4-.03 1.39-.01 1.4v2.78l.02 1.4.03 1.39.03 1.39.05 1.4.05 1.39.07 1.39.08 1.39.08 1.39.1 1.4.1 1.39.12 1.39.12 1.39.14 1.39.14 1.39.16 1.39.16 1.39.18 1.39.18 1.39.2 1.39.2 1.38.21 1.39.23 1.39.23 1.39.25 1.39.25 1.38.26 1.39.28 1.39.28 1.39.29 1.38.31 1.39.31 1.38.32 1.39.34 1.39.34 1.38.35 1.39.36 1.38.38 1.39.38 1.38.39 1.38.4 1.39.42 1.38.42 1.38.43 1.39.44 1.38.45 1.38.46 1.39.47 1.38.49 1.38.49 1.38.5 1.38.51 1.38" style="stroke-width:1.07;stroke:#000000;stroke-opacity:0.10;stroke-linecap:butt"/><path d="m153.61 210.72-.42 1.4-.4 1.41-.39 1.4-.39 1.4-.38 1.41-.36 1.4-.36 1.4-.35 1.41-.34 1.4-.33 1.4-.33 1.4-.31 1.4-.3 1.41-.3 1.4-.29 1.4-.27 1.4-.27 1.4-.26 1.4-.26 1.4-.24 1.4-.23 1.4-.22 1.4-.22 1.4-.21 1.4-.19 1.4-.19 1.39-.18 1.4-.17 1.4-.16 1.4-.16 1.4-.14 1.39-.14 1.4-.12 1.4-.12 1.39-.11 1.4-.09 1.4-.09 1.39-.09 1.4-.07 1.39-.06 1.4-.06 1.39-.04 1.4-.04 1.39-.02 1.4-.02 1.39-.01 1.4v1.39l.01 1.39.01 1.4.03 1.39.03 1.39.05 1.4.05 1.39.06 1.39.07 1.39.08 1.4.09 1.39.1 1.39.11 1.39.11 1.39.13 1.39.13 1.39.15 1.39.15 1.39.16 1.39.17 1.39.18 1.39.18 1.39.2 1.39.2 1.39.22 1.39.22 1.38.23 1.39.24 1.39.25 1.39.26 1.39.27 1.38.28 1.39.28 1.39.3 1.38.3 1.39.32 1.38.32 1.39.33 1.39.34 1.38.35 1.39.35 1.38.37 1.39.37 1.38.39 1.39.39 1.38.4 1.38.41 1.39.42 1.38.43 1.38.44 1.39.45 1.38.45 1.38.47 1.38" style="stroke-width:1.07;stroke:#000000;stroke-opacity:0.10;stroke-linecap:butt"/><path d="m153.61 210.72-.37 1.4-.36 1.41-.35 1.4-.34 1.4-.33 1.4-.33 1.4-.32 1.41-.31 1.4-.3 1.4-.29 1.4-.29 1.4-.28 1.4-.27 1.4-.26 1.4-.25 1.4-.25 1.4-.24 1.4-.23 1.4-.22 1.4-.21 1.4-.21 1.4-.2 1.4-.19 1.4-.18 1.4-.17 1.39-.17 1.4-.16 1.4-.15 1.4-.14 1.39-.13 1.4-.13 1.4-.12 1.39-.11 1.4-.1 1.4-.09 1.39-.09 1.4-.07 1.4-.07 1.39-.07 1.4-.05 1.39-.05 1.4-.03 1.39-.03 1.4-.02 1.39-.02 1.39v2.79l.01 1.4.02 1.39.02 1.39.04 1.4.04 1.39.05 1.39.06 1.39.06 1.4.08 1.39.08 1.39.09 1.39.1 1.39.11 1.39.11 1.39.12 1.39.13 1.4.14 1.39.15 1.39.15 1.39.17 1.39.17 1.39.17 1.38.19 1.39.19 1.39.21 1.39.21 1.39.22 1.39.22 1.39.24 1.38.24 1.39.25 1.39.26 1.39.26 1.38.28 1.39.28 1.39.29 1.39.3 1.38.31 1.39.31 1.38.32 1.39.33 1.39.34 1.38.35 1.39.35 1.38.37 1.39.37 1.38.38 1.38.38 1.39.4 1.38.4 1.39.41 1.38.42 1.38" style="stroke-width:1.07;stroke:#000000;stroke-opacity:0.10;stroke-linecap:butt"/><path d="m153.61 210.72-.32 1.4-.32 1.4-.3 1.4-.3 1.41-.29 1.4-.29 1.4-.27 1.4-.28 1.4-.26 1.4-.25 1.4-.25 1.4-.25 1.4-.23 1.4-.23 1.4-.22 1.4-.21 1.4-.21 1.4-.2 1.39-.19 1.4-.19 1.4-.18 1.4-.17 1.4-.16 1.4-.16 1.39-.15 1.4-.14 1.4-.14 1.4-.13 1.39-.12 1.4-.12 1.4-.1 1.39-.11 1.4-.09 1.4-.09 1.39-.08 1.4-.07 1.39-.06 1.4-.06 1.39-.05 1.4-.05 1.39-.04 1.4-.03 1.39-.02 1.4-.01 1.39-.01 1.4-.01 1.39.01 1.39.01 1.4.02 1.39.03 1.39.03 1.4.04 1.39.05 1.39.05 1.39.06 1.4.07 1.39.08 1.39.08 1.39.09 1.39.1 1.4.1 1.39.11 1.39.12 1.39.13 1.39.13 1.39.14 1.39.14 1.39.16 1.39.16 1.39.17 1.39.17 1.39.18 1.39.19 1.39.2 1.39.2 1.39.21 1.38.22 1.39.22 1.39.23 1.39.24 1.39.25 1.38.25 1.39.26 1.39.26 1.39.28 1.38.28 1.39.29 1.39.29 1.38.3 1.39.31 1.39.32 1.38.32 1.39.33 1.38.34 1.39.34 1.38.35 1.39.36 1.38.37 1.39.37 1.38" style="stroke-width:1.07;stroke:#000000;stroke-opacity:0.10;stroke-linecap:butt"/><path d="m153.61 210.72-.28 1.4-.27 1.4-.26 1.4-.25 1.4-.25 1.4-.24 1.4-.24 1.4-.23 1.4-.23 1.4-.22 1.4-.21 1.4-.2 1.4-.2 1.4-.2 1.39-.19 1.4-.18 1.4-.17 1.4-.17 1.4-.17 1.4-.15 1.39-.16 1.4-.14 1.4-.14 1.4-.13 1.39-.13 1.4-.12 1.4-.12 1.39-.1 1.4-.11 1.4-.09 1.39-.09 1.4-.09 1.39-.07 1.4-.08 1.4-.06 1.39-.06 1.4-.05 1.39-.05 1.4-.04 1.39-.04 1.4-.03 1.39-.02 1.4-.01 1.39-.02 1.39v2.79l.01 1.4.01 1.39.02 1.39.03 1.39.03 1.4.04 1.39.05 1.39.05 1.4.05 1.39.07 1.39.07 1.39.07 1.39.08 1.4.09 1.39.09 1.39.1 1.39.11 1.39.11 1.39.12 1.39.12 1.39.13 1.4.14 1.39.14 1.39.15 1.39.16 1.39.16 1.39.17 1.39.17 1.39.18 1.38.18 1.39.19 1.39.2 1.39.21 1.39.21 1.39.21 1.39.22 1.39.23 1.38.24 1.39.24 1.39.24 1.39.26 1.38.26 1.39.26 1.39.27 1.39.28 1.38.28 1.39.29 1.39.3 1.38.3 1.39.31 1.39.31 1.38.32 1.39.33 1.38" style="stroke-width:1.07;stroke:#000000;stroke-opacity:0.10;stroke-linecap:butt"/><path d="m153.61 210.72-.23 1.4-.22 1.4-.22 1.4-.21 1.4-.21 1.4-.2 1.39-.2 1.4-.19 1.4-.19 1.4-.18 1.4-.17 1.4-.17 1.39-.17 1.4-.16 1.4-.15 1.4-.15 1.4-.15 1.39-.14 1.4-.13 1.4-.13 1.39-.12 1.4-.12 1.4-.12 1.4-.11 1.39-.1 1.4-.1 1.39-.09 1.4-.09 1.4-.08 1.39-.08 1.4-.07 1.39-.07 1.4-.06 1.39-.05 1.4-.06 1.4-.04 1.39-.04 1.39-.04 1.4-.03 1.39-.03 1.4-.02 1.39-.01 1.4-.01 1.39-.01 1.4v1.39l.01 1.39.01 1.4.02 1.39.02 1.39.02 1.4.04 1.39.03 1.39.04 1.39.05 1.4.05 1.39.06 1.39.06 1.39.07 1.4.07 1.39.08 1.39.09 1.39.08 1.39.1 1.4.1 1.39.1 1.39.11 1.39.11 1.39.12 1.39.13 1.39.13 1.39.13 1.39.14 1.39.15 1.39.15 1.39.16 1.39.16 1.39.16 1.39.17 1.39.18 1.39.18 1.39.19 1.39.19 1.39.2 1.39.2 1.39.21 1.39.21 1.38.22 1.39.22 1.39.23 1.39.23 1.39.24 1.38.25 1.39.25 1.39.25 1.39.26 1.39.26 1.38.27 1.39.28 1.39.28 1.38" style="stroke-width:1.07;stroke:#000000;stroke-opacity:0.10;stroke-linecap:butt"/><path d="m153.61 210.72-.19 1.4-.17 1.4-.18 1.39-.16 1.4-.17 1.4-.16 1.4-.15 1.4-.16 1.39-.14 1.4-.15 1.4-.14 1.4-.13 1.39-.13 1.4-.13 1.4-.12 1.39-.12 1.4-.11 1.4-.11 1.39-.11 1.4-.1 1.4-.09 1.39-.1 1.4-.08 1.39-.09 1.4-.08 1.4-.07 1.39-.07 1.4-.07 1.39-.06 1.4-.06 1.39-.06 1.4-.05 1.39-.04 1.4-.04 1.39-.04 1.4-.03 1.39-.03 1.4-.03 1.39-.02 1.4-.01 1.39-.02 1.4v1.39l-.01 1.39v1.4l.01 1.39.01 1.39.01 1.4.02 1.39.02 1.39.03 1.4.03 1.39.03 1.39.04 1.4.05 1.39.04 1.39.06 1.39.05 1.4.06 1.39.07 1.39.06 1.39.08 1.4.07 1.39.09 1.39.08 1.39.09 1.39.1 1.39.09 1.4.11 1.39.1 1.39.11 1.39.12 1.39.12 1.39.12 1.39.13 1.39.13 1.39.14 1.39.14 1.39.15 1.39.14 1.39.16 1.39.16 1.39.16 1.39.16 1.39.17 1.39.18 1.39.18 1.39.18 1.39.19 1.39.19 1.39.2 1.39.2 1.39.2 1.39.21 1.38.21 1.39.22 1.39.22 1.39.23 1.39.23 1.39.23 1.38" style="stroke-width:1.07;stroke:#000000;stroke-opacity:0.10;stroke-linecap:butt"/><path d="m153.61 210.72-.14 1.4-.13 1.39-.13 1.4-.13 1.4-.12 1.39-.12 1.4-.11 1.4-.11 1.39-.11 1.4-.11 1.4-.1 1.39-.1 1.4-.1 1.4-.09 1.39-.09 1.4-.08 1.39-.08 1.4-.08 1.4-.08 1.39-.07 1.4-.07 1.39-.07 1.4-.06 1.39-.06 1.4-.06 1.39-.05 1.4-.05 1.4-.04 1.39-.05 1.39-.04 1.4-.03 1.39-.04 1.4-.03 1.39-.02 1.4-.03 1.39-.02 1.4-.01 1.39-.02 1.4-.01 1.39v1.39l-.01 1.4v1.39l.01 1.39v1.4l.01 1.39.02 1.4.01 1.39.02 1.39.03 1.4.02 1.39.03 1.39.03 1.39.04 1.4.04 1.39.04 1.39.05 1.4.05 1.39.05 1.39.06 1.39.06 1.4.06 1.39.06 1.39.07 1.39.08 1.39.07 1.4.08 1.39.08 1.39.09 1.39.09 1.39.09 1.39.1 1.4.09 1.39.11 1.39.1 1.39.11 1.39.11 1.39.12 1.39.12 1.39.12 1.39.12 1.4.13 1.39.13 1.39.14 1.39.14 1.39.14 1.39.14 1.39.15 1.39.15 1.39.16 1.39.16 1.39.16 1.39.16 1.39.17 1.39.17 1.39.18 1.39.18 1.39.18 1.38.18 1.39.19 1.39" style="stroke-width:1.07;stroke:#000000;stroke-opacity:0.10;stroke-linecap:butt"/><path d="m153.61 210.72-.09 1.4-.09 1.39-.08 1.4-.09 1.39-.08 1.4-.07 1.39-.08 1.4-.07 1.4-.07 1.39-.07 1.4-.06 1.39-.07 1.4-.06 1.39-.06 1.4-.05 1.39-.06 1.4-.05 1.39-.05 1.4-.04 1.39-.05 1.4-.04 1.39-.04 1.4-.04 1.39-.03 1.4-.03 1.39-.04 1.4-.02 1.39-.03 1.4-.02 1.39-.02 1.4-.02 1.39-.02 1.39-.01 1.4-.01 1.39-.01 1.4-.01 1.39v6.97l.01 1.39.01 1.4.01 1.39.02 1.39.02 1.4.01 1.39.03 1.39.02 1.4.03 1.39.02 1.39.04 1.4.03 1.39.03 1.39.04 1.39.04 1.4.05 1.39.04 1.39.05 1.4.05 1.39.05 1.39.06 1.39.05 1.4.06 1.39.06 1.39.07 1.39.06 1.39.07 1.4.07 1.39.08 1.39.07 1.39.08 1.39.08 1.4.08 1.39.09 1.39.09 1.39.09 1.39.09 1.39.09 1.4.1 1.39.1 1.39.1 1.39.1 1.39.11 1.39.11 1.39.11 1.39.11 1.4.12 1.39.12 1.39.12 1.39.12 1.39.13 1.39.12 1.39.13 1.39.14 1.39.13 1.39.14 1.39.14 1.39.14 1.39" style="stroke-width:1.07;stroke:#000000;stroke-opacity:0.10;stroke-linecap:butt"/><path d="m153.61 210.72-.05 1.39-.04 1.4-.04 1.39-.04 1.4-.03 1.39-.04 1.4-.03 1.39-.04 1.4-.03 1.39-.03 1.4-.03 1.39-.03 1.4-.02 1.39-.03 1.39-.02 1.4-.02 1.39-.02 1.4-.02 1.39-.02 1.4-.01 1.39L153 240l-.01 1.4-.01 1.39-.01 1.4-.01 1.39-.01 1.4-.01 1.39v1.39l-.01 1.4v4.18l.01 1.39v2.79l.01 1.39.01 1.4.01 1.39.01 1.39.01 1.4.01 1.39.02 1.39.02 1.4.01 1.39.02 1.39.02 1.4.03 1.39.02 1.39.02 1.4.03 1.39.03 1.39.03 1.4.03 1.39.03 1.39.03 1.4.04 1.39.03 1.39.04 1.4.04 1.39.04 1.39.04 1.39.05 1.4.04 1.39.05 1.39.04 1.39.05 1.4.05 1.39.05 1.39.06 1.39.05 1.4.06 1.39.06 1.39.05 1.39.06 1.4.07 1.39.06 1.39.06 1.39.07 1.4.07 1.39.07 1.39.07 1.39.07 1.39.07 1.4.07 1.39.08 1.39.08 1.39.08 1.39.08 1.4.08 1.39.08 1.39.08 1.39.09 1.39.09 1.39.09 1.4.09 1.39.09 1.39.09 1.39.09 1.39.1 1.39" style="stroke-width:1.07;stroke:#000000;stroke-opacity:0.10;stroke-linecap:butt"/><path d="M153.61 210.72v2.79l.01 1.39v1.39l.01 1.4v1.39l.01 1.4v1.39l.01 1.39.01 1.4.01 1.39.01 1.39v1.4l.01 1.39.01 1.39.01 1.4.01 1.39.02 1.4.01 1.39.01 1.39.01 1.4.02 1.39.01 1.39.01 1.4.02 1.39.01 1.39.02 1.4.01 1.39.02 1.39.02 1.4.01 1.39.02 1.39.02 1.4.02 1.39.02 1.39.02 1.4.02 1.39.02 1.39.02 1.4.02 1.39.02 1.39.03 1.4.02 1.39.02 1.39.03 1.4.02 1.39.03 1.39.02 1.4.03 1.39.02 1.39.03 1.4.03 1.39.03 1.39.02 1.39.03 1.4.03 1.39.03 1.39.03 1.4.03 1.39.03 1.39.03 1.4.04 1.39.03 1.39.03 1.4.03 1.39.04 1.39.03 1.39.04 1.4.03 1.39.04 1.39.03 1.4.04 1.39.04 1.39.04 1.39.03 1.4.04 1.39.04 1.39.04 1.4.04 1.39.04 1.39.04 1.39.04 1.4.05 1.39.04 1.39.04 1.4.04 1.39.05 1.39.04 1.39.05 1.4.04 1.39.05 1.39.04 1.39.05 1.4.05 1.39.04 1.39.05 1.4.05 1.39.05 1.39.05 1.39" style="stroke-width:1.07;stroke:#000000;stroke-opacity:0.10;stroke-linecap:butt"/><path d="m153.61 210.72.05 1.39.04 1.39.05 1.4.05 1.39.05 1.39.05 1.4.04 1.39.05 1.39.04 1.39.05 1.4.04 1.39.05 1.39.04 1.39.04 1.4.05 1.39.04 1.39.04 1.4.04 1.39.04 1.39.04 1.39.04 1.4.04 1.39.04 1.39.04 1.4.04 1.39.04 1.39.03 1.39.04 1.4.04 1.39.03 1.39.04 1.4.03 1.39.04 1.39.03 1.39.03 1.4.04 1.39.03 1.39.03 1.4.03 1.39.03 1.39.03 1.4.03 1.39.03 1.39.03 1.39.03 1.4.03 1.39.03 1.39.02 1.4.03 1.39.03 1.39.02 1.4.03 1.39.02 1.39.03 1.4.02 1.39.03 1.39.02 1.4.02 1.39.02 1.39.02 1.4.03 1.39.02 1.39.02 1.4.02 1.39.02 1.39.01 1.4.02 1.39.02 1.39.02 1.4.01 1.39.02 1.39.02 1.4.01 1.39.02 1.39.01 1.4.02 1.39.01 1.39.01 1.4.02 1.39.01 1.39.01 1.4.01 1.39.01 1.39.01 1.4.01 1.39.01 1.4.01 1.39.01 1.39.01 1.4v1.39l.01 1.39.01 1.4v1.39l.01 1.39v1.4l.01 1.39v1.4l.01 1.39v1.39" style="stroke-width:1.07;stroke:#000000;stroke-opacity:0.10;stroke-linecap:butt"/><path d="m153.61 210.72.09 1.39.1 1.39.09 1.39.09 1.4.09 1.39.09 1.39.08 1.39.09 1.39.08 1.39.09 1.4.08 1.39.08 1.39.08 1.39.07 1.39.08 1.39.07 1.4.08 1.39.07 1.39.07 1.39.07 1.4.07 1.39.06 1.39.07 1.39.06 1.39.06 1.4.06 1.39.06 1.39.06 1.39.05 1.4.06 1.39.05 1.39.05 1.39.05 1.4.05 1.39.05 1.39.04 1.39.05 1.4.04 1.39.04 1.39.04 1.39.04 1.4.04 1.39.04 1.39.03 1.4.04 1.39.03 1.39.03 1.4.03 1.39.03 1.39.02 1.39.03 1.4.02 1.39.02 1.39.02 1.4.02 1.39.02 1.39.02 1.4.01 1.39.01 1.39.02 1.4.01 1.39.01 1.4v1.39l.01 1.39.01 1.4v8.36l-.01 1.39v1.4l-.01 1.39-.01 1.4-.01 1.39-.01 1.39-.02 1.4-.01 1.39-.02 1.4-.01 1.39-.02 1.39-.02 1.4-.03 1.39-.02 1.4-.02 1.39-.03 1.4-.03 1.39-.03 1.4-.03 1.39-.03 1.4-.03 1.39-.03 1.39-.04 1.4-.04 1.39-.04 1.4-.04 1.39-.04 1.4-.04 1.39" style="stroke-width:1.07;stroke:#000000;stroke-opacity:0.10;stroke-linecap:butt"/><path d="m153.61 210.72.14 1.39.14 1.39.13 1.39.14 1.39.13 1.39.13 1.39.13 1.39.12 1.39.13 1.39.12 1.4.11 1.39.12 1.39.11 1.39.12 1.39.1 1.39.11 1.39.1 1.39.11 1.39.1 1.4.09 1.39.1 1.39.09 1.39.09 1.39.09 1.39.08 1.39.08 1.4.08 1.39.08 1.39.08 1.39.07 1.39.07 1.4.07 1.39.07 1.39.06 1.39.06 1.39.06 1.4.06 1.39.05 1.39.06 1.39.05 1.4.04 1.39.05 1.39.04 1.4.04 1.39.04 1.39.04 1.39.03 1.4.03 1.39.03 1.39.03 1.4.02 1.39.02 1.39.02 1.4.02 1.39.01 1.39.01 1.4.01 1.39.01 1.39.01 1.4v4.18l-.01 1.39v1.4l-.01 1.39-.01 1.39-.02 1.4-.01 1.39-.02 1.4-.02 1.39-.03 1.4-.02 1.39-.03 1.4-.03 1.39-.03 1.39-.04 1.4-.03 1.39-.04 1.4-.05 1.39-.04 1.4-.05 1.39-.05 1.4-.05 1.39-.05 1.4-.06 1.39-.06 1.4-.06 1.39-.06 1.4-.07 1.4-.06 1.39-.07 1.4-.08 1.39-.07 1.4-.08 1.39-.08 1.4-.08 1.4-.09 1.39-.08 1.4-.09 1.39" style="stroke-width:1.07;stroke:#000000;stroke-opacity:0.10;stroke-linecap:butt"/><path d="m153.61 210.72.18 1.39.19 1.39.18 1.39.18 1.39.17 1.39.17 1.39.17 1.39.17 1.38.16 1.39.16 1.39.15 1.39.15 1.39.15 1.39.15 1.4.14 1.39.14 1.39.13 1.39.13 1.39.13 1.39.13 1.39.12 1.39.12 1.39.11 1.39.11 1.39.11 1.39.11 1.39.1 1.4.1 1.39.09 1.39.1 1.39.09 1.39.08 1.39.08 1.39.08 1.4.08 1.39.07 1.39.07 1.39.07 1.39.06 1.4.06 1.39.05 1.39.06 1.39.05 1.4.04 1.39.04 1.39.04 1.4.04 1.39.03 1.39.03 1.39.03 1.4.02 1.39.02 1.39.02 1.4.01 1.39.01 1.39.01 1.4v4.18l-.01 1.39-.01 1.4-.01 1.39-.02 1.4-.02 1.39-.02 1.39-.03 1.4-.03 1.39-.03 1.4-.04 1.39-.04 1.4-.04 1.39-.05 1.4-.05 1.39-.05 1.4-.05 1.39-.06 1.4-.07 1.39-.06 1.4-.07 1.4-.07 1.39-.08 1.4-.08 1.39-.08 1.4-.09 1.39-.09 1.4-.09 1.4-.1 1.39-.09 1.4-.11 1.4-.1 1.39-.11 1.4-.11 1.39-.12 1.4-.12 1.4-.12 1.4-.13 1.39-.12 1.4-.14 1.4-.13 1.39" style="stroke-width:1.07;stroke:#000000;stroke-opacity:0.10;stroke-linecap:butt"/><path d="m153.61 210.72.23 1.39.23 1.39.23 1.38.22 1.39.21 1.39.22 1.39.2 1.39.21 1.39.2 1.39.2 1.38.19 1.39.18 1.39.19 1.39.18 1.39.17 1.39.17 1.39.17 1.39.16 1.39.16 1.39.15 1.39.15 1.39.14 1.39.15 1.39.13 1.39.13 1.39.13 1.39.13 1.39.12 1.39.11 1.39.11 1.4.11 1.39.1 1.39.1 1.39.09 1.39.09 1.39.09 1.39.08 1.4.08 1.39.07 1.39.07 1.39.06 1.39.06 1.4.06 1.39.05 1.39.05 1.39.04 1.4.04 1.39.04 1.39.03 1.4.02 1.39.03 1.39.01 1.4.02 1.39.01 1.39V290l-.01 1.4-.01 1.39-.02 1.4-.02 1.39-.02 1.39-.03 1.4-.03 1.39-.04 1.4-.04 1.39-.05 1.4-.05 1.39-.05 1.4-.06 1.39-.06 1.4-.07 1.4-.07 1.39-.08 1.4-.08 1.39-.08 1.4-.09 1.39-.09 1.4-.1 1.4-.1 1.39-.1 1.4-.11 1.4-.12 1.39-.11 1.4-.13 1.4-.12 1.39-.13 1.4-.14 1.4-.14 1.39-.14 1.4-.15 1.4-.15 1.4-.16 1.39-.16 1.4-.16 1.4-.17 1.4-.17 1.4-.18 1.4-.18 1.39" style="stroke-width:1.07;stroke:#000000;stroke-opacity:0.10;stroke-linecap:butt"/><path d="m153.61 210.72.28 1.39.27 1.38.27 1.39.27 1.39.25 1.39.26 1.38.25 1.39.24 1.39.24 1.39.23 1.38.23 1.39.23 1.39.21 1.39.22 1.39.2 1.39.21 1.38.19 1.39.2 1.39.18 1.39.18 1.39.18 1.39.17 1.39.17 1.39.16 1.39.16 1.39.15 1.39.14 1.39.14 1.39.14 1.39.13 1.39.12 1.39.12 1.39.12 1.39.1 1.39.11 1.4.1 1.39.09 1.39.09 1.39.08 1.39.08 1.39.07 1.4.07 1.39.06 1.39.06 1.39.05 1.4.05 1.39.04 1.39.04 1.39.03 1.4.03 1.39.02 1.39.01 1.4.01 1.39.01 1.39v2.79l-.01 1.4-.02 1.39-.02 1.39-.03 1.4-.03 1.39-.03 1.4-.04 1.39-.05 1.4-.05 1.39-.06 1.4-.06 1.39-.07 1.4-.07 1.39-.08 1.4-.08 1.4-.09 1.39-.09 1.4-.1 1.39-.1 1.4-.11 1.4-.11 1.39-.12 1.4-.12 1.4-.13 1.39-.14 1.4-.14 1.4-.14 1.4-.15 1.39-.16 1.4-.16 1.4-.16 1.4-.17 1.4-.18 1.39-.18 1.4-.19 1.4-.19 1.4-.19 1.4-.2 1.4-.21 1.4-.21 1.4-.22 1.39-.22 1.4-.23 1.4" style="stroke-width:1.07;stroke:#000000;stroke-opacity:0.10;stroke-linecap:butt"/><path d="m153.61 210.72.32 1.39.32 1.38.32 1.39.3 1.38.31 1.39.29 1.39.29 1.38.28 1.39.28 1.39.27 1.38.27 1.39.26 1.39.25 1.39.25 1.38.24 1.39.23 1.39.23 1.39.22 1.39.22 1.38.21 1.39.2 1.39.2 1.39.19 1.39.19 1.39.18 1.39.17 1.39.17 1.39.16 1.39.15 1.39.15 1.39.14 1.39.14 1.39.13 1.39.13 1.39.11 1.39.12 1.39.1 1.39.1 1.39.09 1.39.09 1.4.08 1.39.08 1.39.07 1.39.06 1.39.06 1.4.05 1.39.04 1.39.04 1.39.03 1.4.03 1.39.02 1.39.01 1.4.01 1.39v2.79l-.01 1.39-.02 1.4-.02 1.39-.03 1.4-.03 1.39-.04 1.4-.05 1.39-.05 1.4-.06 1.39-.07 1.4-.07 1.39-.08 1.4-.08 1.39-.09 1.4-.1 1.4-.1 1.39-.11 1.4-.11 1.4-.13 1.39-.12 1.4-.13 1.4-.14 1.39-.15 1.4-.15 1.4-.16 1.4-.16 1.4-.17 1.39-.18 1.4-.18 1.4-.19 1.4-.19 1.4-.2 1.4-.21 1.39-.21 1.4-.22 1.4-.22 1.4-.23 1.4-.24 1.4-.24 1.4-.25 1.4-.26 1.4-.26 1.4-.27 1.4-.27 1.4" style="stroke-width:1.07;stroke:#000000;stroke-opacity:0.10;stroke-linecap:butt"/><path d="m153.61 210.72.37 1.38.36 1.39.36 1.38.35 1.39.35 1.38.33 1.39.33 1.39.33 1.38.31 1.39.31 1.38.3 1.39.3 1.39.29 1.38.28 1.39.27 1.39.27 1.38.26 1.39.25 1.39.24 1.39.24 1.38.23 1.39.23 1.39.21 1.39.21 1.39.21 1.39.19 1.38.19 1.39.18 1.39.18 1.39.17 1.39.16 1.39.15 1.39.15 1.39.14 1.39.13 1.39.12 1.39.12 1.39.11 1.4.11 1.39.09 1.39.09 1.39.09 1.39.07 1.39.07 1.4.06 1.39.06 1.39.04 1.39.04 1.4.04 1.39.02 1.39.02 1.4.02 1.39v2.79l-.01 1.39-.02 1.4-.02 1.39-.03 1.39-.04 1.4-.04 1.39-.05 1.4-.06 1.39-.07 1.4-.07 1.4-.08 1.39-.09 1.4-.09 1.39-.1 1.4-.11 1.4-.11 1.39-.13 1.4-.12 1.4-.14 1.39-.14 1.4-.15 1.4-.16 1.4-.17 1.39-.17 1.4-.18 1.4-.18 1.4-.19 1.4-.2 1.4-.21 1.4-.21 1.39-.23 1.4-.22 1.4-.24 1.4-.24 1.4-.25 1.4-.26 1.4-.26 1.4-.27 1.4-.28 1.41-.28 1.4-.29 1.4-.3 1.4-.31 1.4-.31 1.4-.32 1.4" style="stroke-width:1.07;stroke:#000000;stroke-opacity:0.10;stroke-linecap:butt"/><path d="m153.61 210.72.41 1.38.42 1.39.4 1.38.39 1.38.39 1.39.38 1.38.37 1.39.36 1.38.36 1.39.34 1.38.34 1.39.33 1.38.32 1.39.32 1.39.3 1.38.3 1.39.29 1.38.29 1.39.27 1.39.27 1.39.26 1.38.25 1.39.24 1.39.23 1.39.23 1.38.22 1.39.21 1.39.2 1.39.19 1.39.19 1.39.18 1.39.17 1.39.16 1.39.16 1.39.14 1.39.14 1.39.13 1.39.12 1.39.12 1.39.11 1.39.09 1.39.09 1.39.09 1.4.07 1.39.07 1.39.06 1.39.05 1.39.04 1.4.03 1.39.03 1.39.02 1.4.01 1.39v1.39l-.01 1.4-.01 1.39-.02 1.4-.03 1.39-.04 1.4-.05 1.39-.05 1.4-.06 1.39-.07 1.4-.08 1.39-.08 1.4-.1 1.4-.1 1.39-.11 1.4-.12 1.39-.12 1.4-.14 1.4-.14 1.4-.15 1.39-.16 1.4-.16 1.4-.18 1.4-.18 1.4-.19 1.39-.2 1.4-.2 1.4-.22 1.4-.22 1.4-.23 1.4-.24 1.4-.24 1.4-.26 1.4-.26 1.4-.27 1.4-.28 1.4-.28 1.4-.3 1.4-.3 1.41-.31 1.4-.31 1.4-.33 1.4-.33 1.4-.35 1.41-.35 1.4-.35 1.4-.37 1.4" style="stroke-width:1.07;stroke:#000000;stroke-opacity:0.10;stroke-linecap:butt"/><path d="m153.61 210.72.46 1.38.46 1.38.44 1.39.44 1.38.43 1.38.42 1.39.41 1.38.4 1.38.4 1.39.38 1.38.38 1.39.36 1.38.36 1.39.35 1.38.34 1.39.33 1.38.32 1.39.31 1.38.31 1.39.29 1.39.29 1.38.27 1.39.27 1.39.26 1.38.25 1.39.24 1.39.23 1.39.23 1.39.21 1.39.21 1.38.19 1.39.19 1.39.18 1.39.17 1.39.16 1.39.15 1.39.14 1.39.14 1.39.12 1.39.12 1.39.1 1.39.1 1.4.09 1.39.08 1.39.07 1.39.06 1.39.06 1.4.04 1.39.04 1.39.02 1.39.02 1.4.01 1.39v1.4l-.01 1.39-.02 1.39-.03 1.4-.03 1.39-.05 1.4-.05 1.39-.07 1.4-.07 1.39-.08 1.4-.09 1.4-.1 1.39-.11 1.4-.11 1.4-.13 1.39-.13 1.4-.15 1.4-.15 1.4-.16 1.39-.17 1.4-.18 1.4-.19 1.4-.2 1.4-.2 1.4-.22 1.39-.22 1.4-.24 1.4-.24 1.4-.25 1.4-.26 1.4-.27 1.4-.28 1.41-.28 1.4-.3 1.4-.31 1.4-.31 1.4-.32 1.4-.33 1.4-.34 1.41-.35 1.4-.36 1.4-.37 1.41-.38 1.4-.38 1.4-.4 1.41-.4 1.4-.41 1.4" style="stroke-width:1.07;stroke:#000000;stroke-opacity:0.10;stroke-linecap:butt"/><path d="m153.61 210.72.51 1.38.5 1.38.49 1.38.48 1.39.47 1.38.46 1.38.45 1.38.45 1.39.43 1.38.42 1.38.41 1.39.4 1.38.4 1.38.38 1.39.37 1.38.36 1.39.36 1.38.34 1.39.33 1.38.32 1.39.32 1.38.3 1.39.29 1.39.29 1.38.27 1.39.27 1.39.25 1.39.24 1.38.24 1.39.22 1.39.22 1.39.2 1.39.19 1.39.19 1.38.17 1.39.17 1.39.15 1.39.15 1.39.13 1.39.13 1.4.11 1.39.11 1.39.09 1.39.09 1.39.08 1.39.06 1.39.06 1.4.04 1.39.04 1.39.03 1.4.01 1.39.01 1.39v1.4l-.02 1.39-.02 1.4-.03 1.39-.05 1.4-.05 1.39-.06 1.4-.07 1.39-.09 1.4-.09 1.39-.1 1.4-.11 1.4-.13 1.39-.13 1.4-.14 1.4-.15 1.4-.16 1.39-.18 1.4-.18 1.4-.19 1.4-.2 1.4-.21 1.4-.22 1.4-.23 1.39-.24 1.4-.25 1.4-.26 1.41-.27 1.4-.28 1.4-.29 1.4-.3 1.4-.31 1.4-.32 1.4-.33 1.4-.34 1.41-.35 1.4-.36 1.4-.37 1.4-.38 1.41-.39 1.4-.4 1.41-.41 1.4-.42 1.4-.43 1.41-.43 1.4-.45 1.41-.46 1.4" style="stroke-width:1.07;stroke:#000000;stroke-opacity:0.10;stroke-linecap:butt"/><path d="m153.61 210.72.55 1.38.55 1.38.53 1.38.53 1.38.51 1.38.51 1.38.49 1.38.48 1.39.47 1.38.46 1.38.45 1.38.44 1.39.42 1.38.42 1.38.4 1.39.4 1.38.38 1.39.38 1.38.36 1.38.35 1.39.34 1.38.33 1.39.32 1.39.31 1.38.29 1.39.29 1.39.27 1.38.27 1.39.25 1.39.25 1.39.23 1.38.22 1.39.21 1.39.2 1.39.19 1.39.18 1.39.16 1.39.16 1.39.14 1.39.14 1.39.12 1.39.12 1.39.1 1.39.09 1.39.08 1.39.07 1.4.06 1.39.05 1.39.03 1.39.03 1.4.02 1.39v1.39l-.01 1.4-.01 1.39-.03 1.4-.04 1.39-.05 1.4-.06 1.39-.07 1.4-.08 1.39-.1 1.4-.1 1.4-.11 1.39-.13 1.4-.14 1.4-.14 1.39-.16 1.4-.17 1.4-.18 1.4-.19 1.4-.2 1.4-.21 1.4-.22 1.39-.24 1.4-.24 1.4-.26 1.4-.26 1.4-.28 1.41-.29 1.4-.3 1.4-.31 1.4-.32 1.4-.33 1.4-.34 1.41-.35 1.4-.37 1.4-.37 1.4-.39 1.41-.39 1.4-.41 1.41-.42 1.4-.43 1.4-.44 1.41-.45 1.4-.46 1.41-.47 1.4-.48 1.41-.5 1.41-.5 1.4" style="stroke-width:1.07;stroke:#000000;stroke-opacity:0.10;stroke-linecap:butt"/><path d="m153.61 210.72.6 1.38.59 1.38.58 1.38.57 1.38.55 1.38.55 1.38.53 1.38.52 1.38.51 1.38.5 1.38.48 1.38.48 1.38.46 1.39.45 1.38.44 1.38.42 1.39.42 1.38.4 1.38.39 1.39.38 1.38.37 1.39.36 1.38.34 1.39.33 1.38.32 1.39.31 1.38.3 1.39.29 1.39.27 1.38.26 1.39.25 1.39.24 1.39.23 1.38.21 1.39.2 1.39.19 1.39.18 1.39.17 1.39.16 1.39.14 1.39.13 1.39.12 1.39.11 1.39.1 1.39.08 1.4.08 1.39.06 1.39.05 1.39.04 1.4.02 1.39.02 1.39v1.4l-.01 1.39-.02 1.39-.03 1.4-.05 1.39-.05 1.4-.07 1.39-.08 1.4-.09 1.4-.1 1.39-.12 1.4-.13 1.4-.13 1.39-.15 1.4-.17 1.4-.17 1.4-.19 1.4-.19 1.39-.21 1.4-.22 1.4-.24 1.4-.24 1.4-.26 1.4-.27 1.4-.28 1.4-.29 1.41-.3 1.4-.32 1.4-.32 1.4-.34 1.4-.35 1.4-.36 1.41-.38 1.4-.38 1.4-.4 1.41-.41 1.4-.42 1.41-.43 1.4-.45 1.41-.46 1.4-.46 1.41-.48 1.4-.5 1.41-.5 1.4-.51 1.41-.53 1.41-.54 1.41-.55 1.4" style="stroke-width:1.07;stroke:#000000;stroke-opacity:0.10;stroke-linecap:butt"/><path d="m243.99 423.29 7.23 12.53h-14.47zm158.4-187.75 1.91 3.32h-3.83zm-151.86 74.73 1.91 3.32h-3.83zm-7.26-171.07 1.92 3.31h-3.83zM63.2 279.28l1.92 3.31h-3.83zm376.77 177.87 1.92 3.32h-3.83zm-174.59-91.54 5.79 10.02H259.6zM53.35 376.8l3.21 5.55h-6.41zm365.3-86.74 1.91 3.32h-3.83zm-321.22 170 1.91 3.32h-3.83z" style="stroke-width:0.71;stroke:none;fill:#00BA38"/><path d="M152.18 212.14h2.85v-2.84h-2.85z" style="stroke-width:0.71;stroke:none;fill:#619CFF"/><circle cx="156.21" cy="348.64" r="6.21" style="stroke-width:0.71;stroke:none;fill:#F8766D"/><path d="M349.11 380.95h13.51v-13.51h-13.51z" style="stroke-width:0.71;stroke:none;fill:#619CFF"/><circle cx="316.21" cy="233.55" r="3.34" style="stroke-width:0.71;stroke:none;fill:#F8766D"/><circle cx="522.65" cy="526.84" r="1.42" style="stroke-width:0.71;stroke:none;fill:#F8766D"/><circle cx="264.72" cy="520.2" r="3.34" style="stroke-width:0.71;stroke:none;fill:#F8766D"/><path d="m238.83 436.29 4.36-3.93m164.4-199.31-4.41 3.99m-158.06 80.11 4.6-3.97m-11.79-167.16 4.53-3.91M68.45 276.75l-4.46 4.02M445.37 454.7l-4.59 3.96m-170.22-91.05-4.39 3.96M60.22 388.01l-6.15-6.72m359.26-84.43 4.51-3.89M102.65 457.55l-4.43 4m60.82-255.43-4.62 3.91m-3.71 143.27 4.69-3.97m205.82 20.24-4.55 3.93m-45.88-135.36 4.61-3.9m202.5 293.88 3.72-1m-261.66-3.37 3.9-2.91" style="stroke-width:0.53;stroke:#BFBFBF"/><path d="M213.99 447.41h35.09-.08l.34-.02.34-.07.33-.12.3-.18.27-.21.23-.27.19-.29.13-.32.09-.34.02-.34v-6.8l-.02-.35-.09-.33-.13-.32-.19-.3-.23-.26-.27-.22-.3-.17-.33-.12-.34-.07-.26-.02h-35.09l.26.02-.35-.02-.35.04-.33.1-.31.15-.29.2-.25.24-.21.28-.16.3-.11.33-.06.35v6.97-.18.35l.06.34.11.33.16.31.21.28.25.24.29.2.31.15.33.09.35.05z" style="stroke-width:0.53;fill:#FFFFFF;fill-opacity:0.50"/><text x="231.53" y="443.81" lengthAdjust="spacingAndGlyphs" style="font-size:5.69px;font-family:&quot;Liberation Sans&quot;" text-anchor="middle" textLength="32.22">MKE 88 LLC</text><path d="M381.62 233.05h66.47-.09l.35-.02.34-.07.33-.12.3-.17.27-.22.23-.26.18-.3.14-.32.08-.33.03-.35v-6.8l-.03-.34-.08-.34-.14-.32-.18-.29-.23-.26-.27-.22-.3-.18-.33-.12-.34-.07-.26-.02h-66.47l.26.02-.35-.02-.34.05-.34.09-.31.15-.29.2-.25.24-.21.28-.16.31-.11.33-.06.34v6.97-.17.34l.06.35.11.33.16.3.21.28.25.24.29.2.31.15.34.1.34.04z" style="stroke-width:0.53;fill:#FFFFFF;fill-opacity:0.50"/><text x="414.85" y="229.45" lengthAdjust="spacingAndGlyphs" style="font-size:5.69px;font-family:&quot;Liberation Sans&quot;" text-anchor="middle" textLength="63.59">3042 N PALMER ST LLC</text><path d="M202.02 336.46h62.1-.08l.34-.02.34-.07.33-.12.3-.17.27-.22.23-.26.19-.3.13-.32.08-.33.03-.35v-14.99l-.03-.35-.08-.34-.13-.32-.19-.29-.23-.26-.27-.22-.3-.17-.33-.13-.34-.07-.26-.01h-62.1l.26.01-.34-.01-.35.04-.33.1-.32.15-.28.2-.25.24-.21.27-.16.31-.11.33-.06.34-.01.18v14.99l.01-.17v.34l.06.35.11.33.16.3.21.28.25.24.28.2.32.15.33.1.35.04z" style="stroke-width:0.53;fill:#FFFFFF;fill-opacity:0.50"/><text x="233.07" y="324.67" lengthAdjust="spacingAndGlyphs" style="font-size:5.69px;font-family:&quot;Liberation Sans&quot;" text-anchor="middle" textLength="59.22">2968 N SHEPARD AVE</text><text x="233.07" y="332.86" lengthAdjust="spacingAndGlyphs" style="font-size:5.69px;font-family:&quot;Liberation Sans&quot;" text-anchor="middle" textLength="10.42">LLC</text><path d="M195.91 165.33h60.02-.09l.35-.01.34-.07.32-.13.3-.17.27-.22.23-.26.19-.29.14-.32.08-.34.03-.35v-14.99l-.03-.35-.08-.33-.14-.32-.19-.3-.23-.26-.27-.22-.3-.17-.32-.12-.34-.07-.26-.02h-60.02l.26.02-.35-.02-.35.04-.33.1-.31.15-.29.2-.25.24-.21.28-.16.3-.11.33-.06.35v15.16-.17.35l.06.34.11.33.16.31.21.27.25.24.29.2.31.15.33.1.35.04z" style="stroke-width:0.53;fill:#FFFFFF;fill-opacity:0.50"/><text x="225.92" y="153.54" lengthAdjust="spacingAndGlyphs" style="font-size:5.69px;font-family:&quot;Liberation Sans&quot;" text-anchor="middle" textLength="57.14">1200-1202 N 46TH ST</text><text x="225.92" y="161.73" lengthAdjust="spacingAndGlyphs" style="font-size:5.69px;font-family:&quot;Liberation Sans&quot;" text-anchor="middle" textLength="10.42">LLC</text><path d="M48.62 276.75h54.23l-.08-.01.34-.01.35-.07.32-.12.3-.18.27-.22.23-.26.19-.29.13-.32.09-.34.02-.34v-6.8l-.02-.35-.09-.33-.13-.32-.19-.3-.23-.26-.27-.22-.3-.17-.32-.13-.35-.06-.26-.02H48.62l.26.02-.35-.02-.35.04-.33.1-.31.15-.29.2-.25.24-.21.28-.16.3-.11.33-.06.35v6.97-.18.35l.06.34.11.33.16.31.21.28.25.24.29.2.31.15.33.09.35.04z" style="stroke-width:0.53;fill:#FFFFFF;fill-opacity:0.50"/><text x="75.73" y="273.15" lengthAdjust="spacingAndGlyphs" style="font-size:5.69px;font-family:&quot;Liberation Sans&quot;" text-anchor="middle" textLength="51.36">915 N 24TH ST LLC</text><path d="M424.61 454.7h65.66-.09l.35-.01.34-.07.32-.13.3-.17.27-.22.23-.26.19-.29.14-.32.08-.34.03-.35v-14.99l-.03-.35-.08-.33-.14-.32-.19-.3-.23-.26-.27-.22-.3-.17-.32-.12-.34-.07-.26-.02h-65.66l.26.02-.35-.02-.35.04-.33.1-.31.15-.29.2-.25.24-.21.28-.16.3-.11.33-.06.35v15.16-.17.35l.06.34.11.33.16.31.21.27.25.24.29.2.31.15.33.1.35.04z" style="stroke-width:0.53;fill:#FFFFFF;fill-opacity:0.50"/><text x="457.44" y="442.91" lengthAdjust="spacingAndGlyphs" style="font-size:5.69px;font-family:&quot;Liberation Sans&quot;" text-anchor="middle" textLength="62.78">1242 W HIGHLAND AVE</text><text x="457.44" y="451.1" lengthAdjust="spacingAndGlyphs" style="font-size:5.69px;font-family:&quot;Liberation Sans&quot;" text-anchor="middle" textLength="10.42">LLC</text><path d="M253.8 367.61h48.02-.09l.35-.02.34-.07.33-.12.3-.18.27-.21.23-.27.18-.29.14-.32.08-.34.03-.34v-6.8l-.03-.35-.08-.33-.14-.32-.18-.3-.23-.26-.27-.22-.3-.17-.33-.12-.34-.07-.26-.02H253.8l.26.02-.35-.02-.34.04-.34.1-.31.15-.29.2-.25.24-.21.28-.16.3-.11.33-.05.35-.01.17v6.8l.01-.18v.35l.05.34.11.33.16.31.21.28.25.24.29.2.31.15.34.09.34.05z" style="stroke-width:0.53;fill:#FFFFFF;fill-opacity:0.50"/><text x="277.81" y="364.01" lengthAdjust="spacingAndGlyphs" style="font-size:5.69px;font-family:&quot;Liberation Sans&quot;" text-anchor="middle" textLength="45.14">53204/53215 LLC</text><path d="M35.65 407.32h56.19-.09l.35-.02.34-.07.33-.12.3-.17.27-.22.23-.26.18-.3.14-.32.08-.33.03-.35v-14.99l-.03-.35-.08-.34-.14-.32-.18-.29-.23-.26-.27-.22-.3-.17-.33-.13-.34-.07-.26-.01H35.65l.26.01-.35-.01-.34.04-.34.1-.31.15-.29.2-.25.24-.21.27-.16.31-.11.33-.06.34v15.17-.17.34l.06.35.11.33.16.3.21.28.25.24.29.2.31.15.34.1.34.04z" style="stroke-width:0.53;fill:#FFFFFF;fill-opacity:0.50"/><text x="63.74" y="395.53" lengthAdjust="spacingAndGlyphs" style="font-size:5.69px;font-family:&quot;Liberation Sans&quot;" text-anchor="middle" textLength="34.09">2008-2028 W</text><text x="63.74" y="403.72" lengthAdjust="spacingAndGlyphs" style="font-size:5.69px;font-family:&quot;Liberation Sans&quot;" text-anchor="middle" textLength="53.31">GREENFIELD AVE L</text><path d="M369.88 316.17h62.84-.09l.35-.01.34-.07.32-.12.3-.18.27-.22.23-.26.19-.29.13-.32.09-.34.03-.35v-14.99l-.03-.34-.09-.34-.13-.32-.19-.3-.23-.26-.27-.22-.3-.17-.32-.12-.34-.07-.26-.02h-62.84l.26.02-.34-.02-.35.05-.33.09-.32.15-.28.2-.25.24-.21.28-.16.31-.11.33-.06.34-.01.17v14.99l.01-.17v.35l.06.34.11.33.16.31.21.28.25.24.28.19.32.15.33.1.35.04z" style="stroke-width:0.53;fill:#FFFFFF;fill-opacity:0.50"/><text x="401.3" y="304.38" lengthAdjust="spacingAndGlyphs" style="font-size:5.69px;font-family:&quot;Liberation Sans&quot;" text-anchor="middle" textLength="59.95">735 W WINDLAKE AVE</text><text x="401.3" y="312.57" lengthAdjust="spacingAndGlyphs" style="font-size:5.69px;font-family:&quot;Liberation Sans&quot;" text-anchor="middle" textLength="10.42">LLC</text><path d="M82.95 457.55h53.92-.08l.34-.02.34-.07.33-.12.3-.17.27-.22.23-.26.18-.3.14-.32.08-.33.03-.35v-6.8l-.03-.34-.08-.34-.14-.32-.18-.29-.23-.26-.27-.22-.3-.18-.33-.12-.34-.07-.26-.02H82.95l.26.02-.35-.02-.35.05-.33.09-.31.15-.29.2-.25.24-.21.28-.16.31-.11.33-.06.34v6.97-.17.34l.06.35.11.33.16.3.21.28.25.24.29.2.31.15.33.1.35.04z" style="stroke-width:0.53;fill:#FFFFFF;fill-opacity:0.50"/><text x="109.91" y="453.95" lengthAdjust="spacingAndGlyphs" style="font-size:5.69px;font-family:&quot;Liberation Sans&quot;" text-anchor="middle" textLength="51.05">1559 S 9TH ST LLC</text><path d="M144.35 206.12h63.22-.09l.35-.02.34-.07.33-.12.3-.17.27-.22.23-.26.18-.3.14-.32.08-.33.03-.35v-23.19l-.03-.34-.08-.34-.14-.32-.18-.29-.23-.26-.27-.22-.3-.18-.33-.12-.34-.07-.26-.02h-63.22l.26.02-.35-.01-.35.04-.33.09-.31.15-.29.2-.25.24-.21.28-.16.31-.11.33-.06.34v23.36-.17.34l.06.35.11.33.16.3.21.28.25.24.29.2.31.15.33.1.35.04z" style="stroke-width:0.53;fill:#FFFFFF;fill-opacity:0.50"/><text x="175.96" y="186.13" lengthAdjust="spacingAndGlyphs" style="font-size:5.69px;font-family:&quot;Liberation Sans&quot;" text-anchor="middle" textLength="47.48">6650 W STATE ST</text><text x="175.96" y="194.33" lengthAdjust="spacingAndGlyphs" style="font-size:5.69px;font-family:&quot;Liberation Sans&quot;" text-anchor="middle" textLength="60.34">D107, MILWAUKEE, WI</text><text x="175.96" y="202.52" lengthAdjust="spacingAndGlyphs" style="font-size:5.69px;font-family:&quot;Liberation Sans&quot;" text-anchor="middle" textLength="15.78">53213</text><path d="M102.2 380.81h63.22-.08l.34-.02.34-.07.33-.12.3-.17.27-.22.23-.26.18-.3.14-.32.08-.33.03-.35v-23.19l-.03-.34-.08-.34-.14-.32-.18-.29-.23-.26-.27-.22-.3-.18-.33-.12-.34-.07-.26-.02H102.2l.26.02-.35-.01-.34.04-.34.09-.31.15-.29.2-.25.24-.21.28-.16.31-.11.33-.05.34-.01.17v23.19l.01-.17v.34l.05.35.11.33.16.3.21.28.25.24.29.2.31.15.34.1.34.04z" style="stroke-width:0.53;fill:#FFFFFF;fill-opacity:0.50"/><text x="133.81" y="360.82" lengthAdjust="spacingAndGlyphs" style="font-size:5.69px;font-family:&quot;Liberation Sans&quot;" text-anchor="middle" textLength="47.48">6650 W STATE ST</text><text x="133.81" y="369.02" lengthAdjust="spacingAndGlyphs" style="font-size:5.69px;font-family:&quot;Liberation Sans&quot;" text-anchor="middle" textLength="60.34">D107, MILWAUKEE, WI</text><text x="133.81" y="377.21" lengthAdjust="spacingAndGlyphs" style="font-size:5.69px;font-family:&quot;Liberation Sans&quot;" text-anchor="middle" textLength="15.78">53213</text><path d="M341.33 369.57h63.84-.08l.34-.01.35-.07.32-.13.3-.17.27-.22.23-.26.19-.29.13-.32.09-.34.02-.35v-14.99l-.02-.35-.09-.33-.13-.32-.19-.3-.23-.26-.27-.22-.3-.17-.32-.12-.35-.07-.26-.02h-63.84l.26.02-.35-.02-.35.04-.33.1-.31.15-.29.2-.25.24-.21.28-.16.3-.11.33-.06.35v15.16-.17.35l.06.34.11.33.16.31.21.27.25.24.29.2.31.15.33.1.35.04z" style="stroke-width:0.53;fill:#FFFFFF;fill-opacity:0.50"/><text x="373.25" y="357.78" lengthAdjust="spacingAndGlyphs" style="font-size:5.69px;font-family:&quot;Liberation Sans&quot;" text-anchor="middle" textLength="57.16">6650 STATE ST D107,</text><text x="373.25" y="365.97" lengthAdjust="spacingAndGlyphs" style="font-size:5.69px;font-family:&quot;Liberation Sans&quot;" text-anchor="middle" textLength="60.97">MILWAUKEE, WI 53213</text><path d="M261.87 265.64h63.96-.09l.35-.01.34-.07.32-.12.3-.18.27-.22.23-.26.19-.29.14-.32.08-.34.03-.35V240.3l-.03-.35-.08-.34-.14-.32-.19-.29-.23-.26-.27-.22-.3-.17-.32-.13-.34-.07-.26-.01h-63.96l.26.01-.35-.01-.34.04-.34.1-.31.15-.29.2-.25.24-.21.27-.16.31-.11.33-.05.34-.01.18v23.18l.01-.17v.35l.05.34.11.33.16.31.21.28.25.24.29.19.31.15.34.1.34.04z" style="stroke-width:0.53;fill:#FFFFFF;fill-opacity:0.50"/><text x="293.85" y="245.66" lengthAdjust="spacingAndGlyphs" style="font-size:5.69px;font-family:&quot;Liberation Sans&quot;" text-anchor="middle" textLength="61.08">6650 W STATE ST, STE</text><text x="293.85" y="253.85" lengthAdjust="spacingAndGlyphs" style="font-size:5.69px;font-family:&quot;Liberation Sans&quot;" text-anchor="middle" textLength="60.34">D107, MILWAUKEE, WI</text><text x="293.85" y="262.04" lengthAdjust="spacingAndGlyphs" style="font-size:5.69px;font-family:&quot;Liberation Sans&quot;" text-anchor="middle" textLength="15.78">53213</text><path d="M451.89 541.95h63.85-.09l.35-.01.34-.07.32-.13.31-.17.26-.22.24-.26.18-.29.14-.32.08-.34.03-.35v-23.18l-.03-.35-.08-.34-.14-.32-.18-.29-.24-.26-.26-.22-.31-.17-.32-.13-.34-.07-.26-.01h-63.85l.26.01-.35-.01-.34.04-.34.1-.31.15-.29.19-.25.25-.21.27-.16.31-.11.33-.05.34-.01.18v23.18l.01-.17v.35l.05.34.11.33.16.31.21.28.25.24.29.19.31.15.34.1.34.04z" style="stroke-width:0.53;fill:#FFFFFF;fill-opacity:0.50"/><text x="483.81" y="521.96" lengthAdjust="spacingAndGlyphs" style="font-size:5.69px;font-family:&quot;Liberation Sans&quot;" text-anchor="middle" textLength="38.64">6650 W STATE</text><text x="483.81" y="530.16" lengthAdjust="spacingAndGlyphs" style="font-size:5.69px;font-family:&quot;Liberation Sans&quot;" text-anchor="middle" textLength="39.69">ST, UNIT D107,</text><text x="483.81" y="538.35" lengthAdjust="spacingAndGlyphs" style="font-size:5.69px;font-family:&quot;Liberation Sans&quot;" text-anchor="middle" textLength="60.97">MILWAUKEE, WI 53213</text><path d="M198.68 542.5h59.12l-.09-.01.35-.01.34-.07.32-.12.31-.18.26-.22.24-.26.18-.29.14-.32.08-.34.03-.34v-23.19l-.03-.35-.08-.33-.14-.32-.18-.3-.24-.26-.26-.22-.31-.17-.32-.12-.34-.07-.26-.02h-59.12l.26.02-.34-.02-.35.04-.33.1-.32.15-.28.2-.25.24-.21.28-.16.3-.11.33-.06.35-.01.17v23.19l.01-.18v.35l.06.34.11.33.16.31.21.28.25.24.28.2.32.15.33.09.35.04z" style="stroke-width:0.53;fill:#FFFFFF;fill-opacity:0.50"/><text x="228.24" y="522.51" lengthAdjust="spacingAndGlyphs" style="font-size:5.69px;font-family:&quot;Liberation Sans&quot;" text-anchor="middle" textLength="53.06">6650 W STATE ST D</text><text x="228.24" y="530.7" lengthAdjust="spacingAndGlyphs" style="font-size:5.69px;font-family:&quot;Liberation Sans&quot;" text-anchor="middle" textLength="56.23">107, MILWAUKEE, WI</text><text x="228.24" y="538.9" lengthAdjust="spacingAndGlyphs" style="font-size:5.69px;font-family:&quot;Liberation Sans&quot;" text-anchor="middle" textLength="15.78">53213</text></g><g clip-path="url(#cpMC4wMHw1NzYuMDB8MC4wMHw1NzYuMDA=)"><circle cx="192.83" cy="97.06" r="1.95" style="stroke-width:0.71;stroke:none;fill:#F8766D"/><path d="m269.23 94.02 2.63 4.56h-5.26z" style="stroke-width:0.71;stroke:none;fill:#00BA38"/><path d="M335.23 99.01h3.91V95.1h-3.91z" style="stroke-width:0.71;stroke:none;fill:#619CFF"/><text x="206.95" y="100.22" lengthAdjust="spacingAndGlyphs" style="font-size:8.80px;font-weight:0;font-family:&quot;Nimbus Sans Narrow&quot;" textLength="48.16">mprop address</text><text x="283.35" y="100.22" lengthAdjust="spacingAndGlyphs" style="font-size:8.80px;font-weight:0;font-family:&quot;Nimbus Sans Narrow&quot;" textLength="39.72">owner name</text><text x="351.31" y="100.22" lengthAdjust="spacingAndGlyphs" style="font-size:8.80px;font-weight:0;font-family:&quot;Nimbus Sans Narrow&quot;" textLength="40.5">wdfi address</text><text x="29.89" y="65.35" lengthAdjust="spacingAndGlyphs" style="font-size:12.00px;font-weight:0;font-family:&quot;Nimbus Sans Narrow&quot;" textLength="263.05">includes 37 parcels, 188 units, and 10 distinct owner names.</text><text x="29.89" y="42.81" lengthAdjust="spacingAndGlyphs" style="font-size:18.00px;font-weight:0;font-family:&quot;Nimbus Sans Narrow&quot;" textLength="159.91">MKE 88 LLC etc Group</text></g></g></svg>