<svg xmlns="http://www.w3.org/2000/svg" width="768" height="768" viewBox="0 0 576 576"><g class="svglite"><defs><style><![CDATA[.svglite line,.svglite polyline,.svglite polygon,.svglite path,.svglite circle{fill:none;stroke:#000000;stroke-linecap:round;stroke-linejoin:round;stroke-miterlimit:10.00}.svglite text{white-space:pre}.svglite g.glyphgroup path{fill:inherit;stroke:none}]]></style></defs><rect width="100%" height="100%" style="stroke-linecap:round;stroke-linejoin:round;stroke-miterlimit:10.00;stroke:none;fill:#FFFFFF"/><defs><clipPath id="cpMC4wMHw1NzYuMDB8MC4wMHw1NzYuMDA="><path d="M0 0h576v576H0z"/></clipPath></defs><g clip-path="url(#cpMC4wMHw1NzYuMDB8MC4wMHw1NzYuMDA=)"><path d="M0 0h576v576H0z" style="stroke-width:1.07;stroke:none;fill:#FFFFFF"/></g><defs><clipPath id="cpMjkuODl8NTQ2LjExfDEyMi4xNHw1NDYuMTE="><path d="M29.89 122.14h516.22v423.97H29.89z"/></clipPath></defs><g clip-path="url(#cpMjkuODl8NTQ2LjExfDEyMi4xNHw1NDYuMTE=)"><path d="m171.45 363.38 1.36-.89 1.36-.88 1.36-.89 1.37-.89 1.36-.89 1.36-.89 1.36-.89 1.36-.89 1.36-.89 1.36-.89 1.36-.89 1.36-.89 1.36-.89 1.37-.89 1.36-.88 1.36-.89 1.36-.89 1.36-.89 1.36-.89 1.36-.89 1.36-.89 1.36-.89 1.37-.89 1.36-.89 1.36-.89 1.36-.89 1.36-.88 1.36-.89 1.36-.89 1.36-.89 1.36-.89 1.37-.89 1.36-.89 1.36-.89 1.36-.89 1.36-.89 1.36-.89 1.36-.89 1.36-.88 1.36-.89 1.36-.89 1.37-.89 1.36-.89 1.36-.89 1.36-.89 1.36-.89 1.36-.89 1.36-.89 1.36-.89 1.36-.89 1.37-.88 1.36-.89 1.36-.89 1.36-.89 1.36-.89 1.36-.89 1.36-.89 1.36-.89 1.36-.89 1.37-.89 1.36-.89 1.36-.89 1.36-.89 1.36-.88 1.36-.89 1.36-.89 1.36-.89 1.36-.89 1.37-.89 1.36-.89 1.36-.89 1.36-.89 1.36-.89 1.36-.89 1.36-.89 1.36-.88 1.36-.89 1.36-.89 1.37-.89 1.36-.89 1.36-.89 1.36-.89 1.36-.89 1.36-.89 1.36-.89 1.36-.89 1.36-.89 1.37-.88 1.36-.89 1.36-.89 1.36-.89 1.36-.89 1.36-.89 1.36-.89 1.36-.89 1.36-.89 1.37-.89 1.36-.89 1.36-.89m-134.75 88.03-1.19.51-1.2.5-1.19.5-1.19.5-1.19.5-1.2.5-1.19.51-1.19.5-1.2.5-1.19.5-1.19.5-1.19.5-1.2.51-1.19.5-1.19.5-1.2.5-1.19.5-1.19.5-1.19.51-1.2.5-1.19.5-1.19.5-1.2.5-1.19.51-1.19.5-1.19.5-1.2.5-1.19.5-1.19.5-1.2.51-1.19.5-1.19.5-1.2.5-1.19.5-1.19.5-1.19.51-1.2.5-1.19.5-1.19.5-1.2.5-1.19.5-1.19.51-1.19.5-1.2.5-1.19.5-1.19.5-1.2.51-1.19.5-1.19.5-1.19.5-1.2.5-1.19.5-1.19.51-1.2.5-1.19.5-1.19.5-1.2.5-1.19.5-1.19.51-1.19.5-1.2.5-1.19.5-1.19.5-1.2.5-1.19.51-1.19.5-1.19.5-1.2.5-1.19.5-1.19.5-1.2.51-1.19.5-1.19.5-1.19.5-1.2.5-1.19.51-1.19.5-1.2.5-1.19.5-1.19.5-1.19.5-1.2.51-1.19.5-1.19.5-1.2.5-1.19.5-1.19.5-1.2.51-1.19.5-1.19.5-1.19.5-1.2.5-1.19.5-1.19.51-1.2.5-1.19.5-1.19.5-1.19.5-1.2.51m348.77-8.93 1.05.89 1.06.89 1.07.87 1.06.87 1.07.86 1.07.85 1.08.84 1.08.84 1.08.82 1.09.82 1.09.8 1.09.8 1.1.79 1.1.79 1.1.77 1.1.76 1.11.76 1.12.75 1.11.74 1.12.73 1.12.72 1.13.71 1.13.71 1.13.7 1.13.68 1.14.68 1.14.67 1.15.66 1.15.66 1.15.64 1.15.64 1.16.63 1.16.62 1.17.61 1.17.6 1.17.59 1.17.59 1.18.57 1.18.57 1.19.56 1.18.55 1.2.54 1.19.54 1.2.52 1.2.52 1.2.51 1.21.49 1.21.49 1.22.49 1.21.47 1.22.47 1.23.45 1.23.45 1.23.44 1.23.43 1.24.42 1.24.41 1.24.41 1.25.4 1.25.38 1.25.38 1.26.37 1.26.36 1.26.36 1.27.34 1.27.34 1.27.33 1.28.32 1.28.31 1.28.3 1.29.29 1.29.29 1.29.27 1.3.27 1.3.26 1.3.25 1.31.24 1.31.23 1.31.23 1.32.22 1.32.2 1.32.2 1.32.19 1.33.18 1.34.18 1.33.16 1.34.16 1.34.15 1.35.14 1.35.13 1.35.12 1.36.11 1.36.11 1.36.09 1.36.09 1.37.08 1.37.07 1.38.06 1.38.05m-120.53-46.86-.08 1.39-.07 1.38-.06 1.38-.06 1.38-.04 1.38-.03 1.37-.02 1.37-.02 1.37v1.36l.01 1.37.01 1.35.03 1.36.03 1.35.05 1.35.05 1.35.06 1.34.08 1.34.08 1.34.09 1.33.1 1.33.12 1.33.12 1.32.13 1.32.14 1.32.15 1.32.16 1.31.16 1.31.18 1.31.19 1.3.2 1.3.2 1.3.22 1.29.23 1.29.23 1.29.25 1.29.25 1.28.27 1.28.27 1.27.28 1.28.3 1.27.3 1.26.31 1.27.32 1.26.34 1.26.34 1.25.35 1.25.36 1.25.37 1.25.37 1.24.39 1.24.4 1.24.41 1.23.42 1.23.42 1.23.44 1.22.45 1.22.45 1.22.47 1.22.47 1.21.49 1.21.49 1.2.5 1.21.52 1.2.52 1.19.53 1.2.54 1.19.55 1.19.57 1.18.57 1.18.58 1.18.58 1.18.6 1.17.61 1.17.62 1.17.63 1.16.64 1.16.64 1.16.66 1.15.67 1.15.67 1.15.69 1.15.69 1.14.7 1.14.72 1.13.72 1.14.74 1.13.74 1.12.75 1.13.76 1.12.77 1.12.78 1.11.79 1.11.8 1.11.81 1.11.82 1.1.83 1.1.84 1.1.85 1.09.85 1.09" style="stroke-width:1.07;stroke:#000000;stroke-opacity:0.10;stroke-linecap:butt"/><path d="m402.12 404.13 1.09.8 1.09.79 1.1.79 1.1.78 1.1.77 1.11.77 1.11.76 1.11.75 1.11.75 1.11.74 1.12.73 1.12.73 1.12.72 1.13.71 1.13.71 1.13.7 1.13.69 1.14.69 1.14.68 1.14.67 1.14.67 1.15.66 1.14.65 1.16.65 1.15.64 1.15.63 1.16.63 1.16.62 1.17.61 1.16.61 1.17.6 1.18.59 1.17.59 1.18.58 1.17.58 1.19.56 1.18.56 1.19.56 1.19.54 1.19.54 1.19.54 1.2.52 1.2.52 1.2.52 1.21.5 1.2.5 1.21.5 1.22.48 1.21.48 1.22.48 1.22.46 1.22.46 1.23.46 1.22.44 1.23.44 1.24.44 1.23.42 1.24.42 1.24.42 1.24.4 1.25.4 1.25.4 1.25.38 1.25.38 1.26.38 1.26.36 1.26.36 1.26.36 1.27.34 1.27.34 1.27.34 1.27.32 1.28.32 1.28.32 1.28.3 1.28.3 1.29.3 1.29.28 1.29.28 1.29.28 1.3.26 1.3.26 1.3.26 1.3.24 1.31.24 1.31.24 1.31.22 1.32.22 1.31.22 1.32.2 1.33.2 1.32.2 1.33.18 1.33.18 1.33.18 1.34.16 1.33.16 1.34.16 1.35.14m-120.53-46.86.01 1.36.02 1.35.03 1.36.04 1.35.04 1.35.05 1.34.06 1.35.07 1.34.08 1.34.08 1.34.09 1.33.1 1.33.1 1.33.12 1.33.12 1.32.13 1.33.13 1.32.14 1.31.16 1.32.16 1.31.16 1.31.18 1.31.18 1.3.19 1.31.2 1.3.2 1.29.21 1.3.22 1.29.23 1.29.24 1.29.24 1.29.25 1.28.26 1.28.27 1.28.27 1.28.28 1.27.29 1.27.3 1.27.3 1.27.31 1.26.32 1.26.33 1.26.34 1.26.34 1.25.35 1.25.36 1.25.36 1.25.38 1.24.38 1.24.39 1.24.39 1.24.41 1.24.41 1.23.42 1.23.42 1.23.44 1.22.44 1.22.45 1.22.46 1.22.46 1.22.48 1.21.48 1.21.49 1.21.49 1.2.5 1.2.52 1.21.51 1.19.53 1.2.54 1.19.54 1.19.55 1.19.55 1.19.57 1.18.57 1.18.58 1.18.59 1.18.59 1.17.61 1.17.61 1.17.61 1.17.63 1.16.63 1.16.65 1.16.64 1.16.66 1.15.66 1.16.68 1.15.68 1.14.68 1.15.7 1.14.7 1.14.71 1.14.72 1.13.72 1.13.74 1.13.74 1.13.74 1.13.76 1.12.76 1.12M405.4 276.02l-1-.2-1-.19-1-.2-1.01-.18-1-.19-1-.18-1-.17-1-.17-1-.17-1-.16-1-.16-1-.16-1-.15-1.01-.15-1-.14-1-.14-1-.14-1-.13-1-.13-1-.12-1-.12-1.01-.12-1-.11-1-.11-1-.11-1-.1-1-.09-1-.1-1-.08-1.01-.09-1-.08-1-.08-1-.07-1-.07-1-.07-1.01-.06-1-.06-1-.05-1-.05-1-.05-1-.04-1.01-.04-1-.03-1-.03-1-.03-1-.02-1.01-.02-1-.01-1-.01-1-.01h-3.01l-1 .01-1 .02-1 .01-1.01.02-1 .03-1 .03-1 .03-1.01.04-1 .04-1 .04-1 .05-1.01.05-1 .06-1 .06-1 .06-1.01.07-1 .07-1 .08-1 .08-1.01.08-1 .09-1 .09-1 .09-1.01.1-1 .1-1 .11-1 .11-1.01.12-1 .12-1 .12-1.01.13-1 .13-1 .13-1 .14-1.01.14-1 .15-1 .15-1.01.15-1 .16-1 .16-1.01.17-1 .17-1 .17-1.01.18-1 .18-1 .18m99.2.67-1.4.46-1.4.46-1.4.46-1.39.48-1.39.47-1.39.48-1.38.49-1.39.49-1.38.5-1.37.5-1.38.51-1.37.51-1.37.51-1.36.52-1.37.53-1.36.53-1.36.54-1.35.54-1.36.54-1.35.56-1.34.55-1.35.56-1.34.57-1.34.57-1.33.57-1.34.59-1.33.58-1.33.59-1.32.6-1.33.6-1.32.6-1.31.61-1.32.62-1.31.62-1.31.63-1.31.63-1.3.63-1.3.64-1.3.65-1.3.65-1.29.65-1.29.66-1.29.67-1.28.67-1.29.67-1.28.68-1.27.69-1.28.69-1.27.69-1.27.7-1.26.71-1.27.71-1.26.71-1.26.72-1.25.73-1.26.73-1.25.73-1.24.74-1.25.75-1.24.75-1.24.75-1.24.76-1.23.76-1.23.77-1.23.78-1.22.78-1.23.78-1.22.79-1.22.8-1.21.79-1.21.81-1.21.81-1.21.81-1.2.82-1.2.83-1.2.82-1.2.84-1.19.84-1.19.84-1.19.85-1.19.85-1.18.86-1.18.87-1.18.86-1.17.88-1.17.88-1.17.88-1.17.89-1.16.89-1.16.9-1.16.9-1.16.91-1.15.92-1.15.91-1.15.93-1.14.93-1.14.93-1.14.94-1.14.94" style="stroke-width:1.07;stroke:#000000;stroke-opacity:0.10;stroke-linecap:butt"/><path d="m405.4 276.02-1-.12-1.01-.12-1-.12-1-.11-1-.12-1-.11-1-.11-1-.1-1-.1-1.01-.11-1-.09-1-.1-1-.09-1-.09-1-.09-1-.09-1.01-.08-1-.09-1-.08-1-.07-1-.08-1-.07-1.01-.07-1-.07-1-.06-1-.07-1-.06-1-.06-1.01-.05-1-.06-1-.05-1-.05-1-.04-1-.05-1.01-.04-1-.04-1-.04-1-.03-1-.03-1.01-.04-1-.02-1-.03-1-.02-1-.02-1-.02-1.01-.02-1-.01-1-.01-1-.01-1-.01h-5.01l-1.01.01-1 .01-1 .01-1 .02-1.01.01-1 .02-1 .02-1 .03-1 .02-1.01.03-1 .03-1 .04-1 .03-1.01.04-1 .04-1 .04-1 .05-1.01.05-1 .05-1 .05-1 .05-1 .06-1.01.06-1 .06-1 .06-1 .07-1.01.07-1 .07-1 .07-1.01.08-1 .08-1 .08-1 .08-1.01.08-1 .09-1 .09-1 .09-1.01.1-1 .09-1 .1-1 .11-1.01.1-1 .11-1 .1m99.2.67-1.35.55-1.35.56-1.34.56-1.35.56-1.34.57-1.34.57-1.34.57-1.33.57-1.34.58-1.33.58-1.34.59-1.33.58-1.32.59-1.33.6-1.33.59-1.32.6-1.32.6-1.32.61-1.32.6-1.32.61-1.32.62-1.31.61-1.31.62-1.32.63-1.31.62-1.3.63-1.31.63-1.3.64-1.31.63-1.3.64-1.3.65-1.3.64-1.29.65-1.3.65-1.29.66-1.29.66-1.29.66-1.29.66-1.29.67-1.28.67-1.29.67-1.28.68-1.28.68-1.28.68-1.27.69-1.28.68-1.27.7-1.28.69-1.27.7-1.27.7-1.26.7-1.27.7-1.26.71-1.26.72-1.27.71-1.26.72-1.25.72-1.26.72-1.25.73-1.26.73-1.25.73-1.25.74-1.24.74-1.25.74-1.25.74-1.24.75-1.24.75-1.24.75-1.24.76-1.23.76-1.24.76-1.23.77-1.23.77-1.23.77-1.23.77-1.23.78-1.22.78-1.23.78-1.22.79-1.22.79-1.22.79-1.22.8-1.21.79-1.22.81-1.21.8-1.21.81-1.21.81-1.21.81-1.2.82-1.21.82-1.2.82-1.2.82-1.2.83-1.2.83-1.19.84-1.2.83-1.19.84-1.19.85-1.19.84m122.35 58.82 1.13.7 1.12.71 1.14.69 1.13.7 1.14.68 1.13.69 1.14.68 1.14.67 1.14.67 1.15.66 1.15.66 1.14.65 1.15.65 1.16.65 1.15.64 1.15.63 1.16.64 1.16.62 1.16.62 1.16.62 1.17.61 1.16.61 1.17.6 1.17.6 1.17.59 1.18.59 1.17.58 1.18.58 1.18.57 1.18.57 1.18.56 1.19.56 1.18.56 1.19.55 1.19.54 1.2.54 1.19.54 1.19.53 1.2.52 1.2.52 1.2.52 1.2.51 1.21.51 1.21.5 1.2.5 1.21.49 1.22.49 1.21.48 1.22.48 1.21.47 1.22.47 1.22.47 1.23.45 1.22.46 1.23.45 1.23.44 1.23.44 1.23.44 1.23.43 1.24.42 1.24.43 1.24.41 1.24.41 1.24.41 1.24.4 1.25.4 1.25.39 1.25.39 1.25.38 1.26.38 1.25.37 1.26.37 1.26.37 1.26.36 1.26.35 1.27.35 1.27.34 1.26.34 1.27.34 1.28.33 1.27.33 1.28.32 1.27.31 1.28.31 1.29.31 1.28.3 1.28.3 1.29.29 1.29.29 1.29.28 1.29.28 1.3.27 1.29.27 1.3.27 1.3.26 1.3.25 1.31.25 1.3.24 1.31.24m-120.53-46.86.1 1.33.12 1.32.12 1.33.12 1.32.13 1.32.14 1.32.14 1.32.15 1.32.15 1.31.16 1.31.16 1.32.18 1.3.17 1.31.18 1.31.19 1.3.2 1.3.19 1.3.21 1.3.21 1.3.22 1.29.22 1.29.23 1.29.23 1.29.24 1.29.25 1.28.25 1.29.25 1.28.27 1.28.26 1.28.28 1.27.28 1.28.28 1.27.29 1.27.3 1.27.3 1.26.31 1.27.32 1.26.32 1.26.32 1.26.33 1.26.34 1.26.34 1.25.35 1.25.35 1.25.36 1.25.37 1.25.37 1.24.38 1.25.38 1.24.39 1.24.39 1.24.4 1.23.41 1.24.41 1.23.42 1.23.42 1.23.43 1.22.44 1.23.44 1.22.44 1.22.45 1.22.46 1.22.46 1.22.47 1.21.48 1.21.48 1.21.49 1.21.49 1.21.5 1.2.5 1.21.51 1.2.51 1.2.52 1.19.53 1.2.53 1.19.54 1.2.54 1.19.55 1.18.56 1.19.56 1.19.56 1.18.58 1.18.58 1.18.58 1.18.59 1.17.59 1.18.6 1.17.61 1.17.61 1.17.62 1.16.63 1.17.63 1.16.63 1.16.64 1.16.65 1.16.65 1.15.66 1.16.66 1.15.67 1.15" style="stroke-width:1.07;stroke:#000000;stroke-opacity:0.10;stroke-linecap:butt"/><path d="m405.4 276.02-1-.05-1.01-.04-1-.04-1-.05-1-.04-1-.04-1.01-.04-1-.04-1-.04-1-.04-1-.03-1-.04-1.01-.04-1-.03-1-.04-1-.03-1-.03-1.01-.03-1-.03-1-.03-1-.03-1-.03-1-.03-1.01-.03-1-.02-1-.03-1-.02-1-.03-1.01-.02-1-.02-1-.03-1-.02-1-.02-1.01-.02-1-.01-1-.02-1-.02-1-.02-1.01-.01-1-.01-1-.02-1-.01-1-.01-1.01-.02-1-.01-1-.01h-1l-1-.01-1.01-.01-1-.01h-1l-1-.01h-1l-1.01-.01h-8.01l-1 .01h-1.01l-1 .01h-1l-1 .01-1 .01h-1.01l-1 .01-1 .01-1 .01-1.01.01-1 .02-1 .01-1 .01-1 .02-1.01.01-1 .02-1 .02-1 .01-1 .02-1.01.02-1 .02-1 .02-1 .02-1.01.03-1 .02-1 .02-1 .03-1 .02-1.01.03-1 .03-1 .02-1 .03-1.01.03-1 .03-1 .03-1 .03m99.2.67-1.3.65-1.29.65-1.3.66-1.29.65-1.29.66-1.3.65-1.29.66-1.29.66-1.29.66-1.29.66-1.29.66-1.29.66-1.29.66-1.29.67-1.29.66-1.28.67-1.29.67-1.29.66-1.28.67-1.29.67-1.28.67-1.29.68-1.28.67-1.28.67-1.29.68-1.28.67-1.28.68-1.28.68-1.28.68-1.28.68-1.28.68-1.28.68-1.28.68-1.27.69-1.28.68-1.28.69-1.27.69-1.28.69-1.27.68-1.28.69-1.27.7-1.28.69-1.27.69-1.27.69-1.27.7-1.27.69-1.27.7-1.27.7-1.27.7-1.27.7-1.27.7-1.27.7-1.27.7-1.26.71-1.27.7-1.26.71-1.27.71-1.26.7-1.27.71-1.26.71-1.27.71-1.26.72-1.26.71-1.26.71-1.26.72-1.26.71-1.26.72-1.26.72-1.26.72-1.26.72-1.26.72-1.25.72-1.26.72-1.26.72-1.25.73-1.26.73-1.25.72-1.25.73-1.26.73-1.25.73-1.25.73-1.25.73-1.25.73-1.26.74-1.25.73-1.25.74-1.24.73-1.25.74-1.25.74-1.25.74-1.24.74-1.25.74-1.25.74-1.24.75-1.25.74-1.24.75-1.24.74-1.25.75-1.24.75m122.35 58.82 1.16.61 1.17.61 1.16.61 1.17.6 1.17.61 1.17.6 1.17.59 1.17.6 1.17.59 1.17.58 1.18.59 1.17.58 1.18.58 1.18.58 1.18.57 1.18.57 1.18.57 1.18.56 1.19.56 1.18.56 1.19.56 1.18.55 1.19.55 1.19.55 1.19.55 1.19.54 1.19.54 1.2.53 1.19.54 1.2.53 1.19.53 1.2.52 1.2.52 1.2.52 1.2.52 1.2.51 1.21.51 1.2.51 1.21.5 1.2.51 1.21.5 1.21.49 1.21.49 1.21.5 1.21.48 1.22.49 1.21.48 1.21.48 1.22.48 1.22.47 1.22.47 1.22.47 1.22.46 1.22.46 1.22.46 1.23.46 1.22.45 1.23.45 1.23.45 1.22.45 1.23.44 1.23.44 1.24.43 1.23.44 1.23.43 1.24.42 1.23.43 1.24.42 1.24.42 1.24.42 1.24.41 1.24.41 1.24.41 1.25.4 1.24.41 1.25.39 1.24.4 1.25.39 1.25.39 1.25.39 1.25.39 1.26.38 1.25.38 1.25.37 1.26.38 1.26.37 1.26.37 1.25.36 1.26.36 1.27.36 1.26.36 1.26.35 1.27.35 1.26.35 1.27.34 1.27.35 1.27.34 1.27.33 1.27.33m-120.53-46.86.2 1.3.2 1.29.21 1.3.21 1.3.22 1.29.22 1.29.23 1.3.22 1.29.24 1.29.23 1.28.24 1.29.24 1.29.25 1.28.25 1.28.26 1.29.26 1.28.26 1.28.26 1.28.27 1.27.28 1.28.28 1.27.28 1.28.28 1.27.29 1.27.29 1.27.3 1.27.3 1.27.31 1.26.31 1.27.31 1.26.31 1.26.32 1.27.33 1.26.32 1.26.34 1.25.33 1.26.34 1.26.34 1.25.35 1.25.35 1.25.35 1.25.36 1.25.36 1.25.37 1.25.37 1.24.37 1.25.38 1.24.38 1.24.38 1.24.39 1.24.4 1.24.39 1.24.4 1.24.41 1.23.4 1.23.42 1.24.41 1.23.42 1.23.42 1.22.43 1.23.43 1.23.44 1.22.43 1.23.45 1.22.44 1.22.45 1.22.46 1.22.45 1.22.46 1.21.47 1.22.47 1.21.47 1.22.48 1.21.48 1.21.48 1.21.49 1.2.49 1.21.5 1.21.5 1.2.5 1.2.51 1.21.51 1.2.52 1.2.51 1.19.53 1.2.52 1.2.53 1.19.54 1.19.54 1.2.54 1.19.54 1.19.55 1.19.55 1.18.56 1.19.56 1.18.57 1.19.57 1.18.57 1.18.57 1.18" style="stroke-width:1.07;stroke:#000000;stroke-opacity:0.10;stroke-linecap:butt"/><path d="m402.12 404.13 1.2.52 1.2.52 1.2.51 1.2.52 1.2.52 1.2.51 1.2.52 1.2.51 1.21.51 1.2.52 1.2.51 1.21.51 1.2.5 1.2.51 1.21.51 1.2.5 1.21.51 1.21.5 1.2.51 1.21.5 1.2.5 1.21.5 1.21.5 1.21.5 1.21.49 1.2.5 1.21.5 1.21.49 1.21.49 1.21.5 1.21.49 1.21.49 1.22.49 1.21.49 1.21.48 1.21.49 1.21.49 1.22.48 1.21.48 1.22.49 1.21.48 1.21.48 1.22.48 1.21.48 1.22.48 1.22.48 1.21.47 1.22.48 1.22.47 1.21.47 1.22.48 1.22.47 1.22.47 1.22.47 1.22.47 1.22.47 1.22.46 1.22.47 1.22.46 1.22.47 1.22.46 1.22.46 1.22.46 1.23.46 1.22.46 1.22.46 1.23.46 1.22.45 1.22.46 1.23.45 1.22.46 1.23.45 1.23.45 1.22.45 1.23.45 1.23.45 1.22.45 1.23.44 1.23.45 1.23.44 1.23.45 1.23.44 1.23.44 1.23.44 1.23.44 1.23.44 1.23.44 1.23.44 1.23.43 1.23.44 1.23.43 1.24.44 1.23.43 1.23.43 1.24.43 1.23.43 1.24.43 1.23.43 1.24.42m-120.53-46.86.29 1.27.3 1.27.3 1.26.3 1.27.3 1.27.31 1.26.3 1.27.31 1.27.31 1.26.31 1.26.32 1.27.31 1.26.32 1.26.32 1.26.32 1.26.33 1.26.32 1.26.33 1.26.33 1.26.33 1.26.33 1.26.34 1.25.33 1.26.34 1.25.34 1.26.35 1.25.34 1.26.35 1.25.35 1.25.35 1.25.35 1.25.35 1.25.36 1.25.36 1.25.36 1.25.36 1.25.36 1.25.37 1.24.37 1.25.37 1.25.37 1.24.37 1.25.38 1.24.37 1.24.38 1.25.38 1.24.39 1.24.38 1.24.39 1.24.39 1.24.39 1.24.39 1.24.39 1.23.4 1.24.4 1.24.4 1.23.4 1.24.4 1.23.41 1.24.41 1.23.41 1.23.41 1.24.41 1.23.42 1.23.42 1.23.42 1.23.42 1.23.42 1.23.42 1.22.43 1.23.43 1.23.43 1.22.43 1.23.44 1.22.43 1.23.44 1.22.44 1.23.45 1.22.44 1.22.45 1.22.44 1.22.45 1.22.46 1.22.45 1.22.45 1.22.46 1.22.46 1.21.46 1.22.47 1.22.46 1.21.47 1.22.47 1.21.47 1.21.47 1.22.48 1.21.47 1.21.48 1.21.48 1.21.48 1.21m-51.37-367.17-.84 1.17-.83 1.17-.84 1.17-.84 1.17-.84 1.17-.84 1.16-.84 1.17-.84 1.17-.84 1.17-.83 1.17-.84 1.17-.84 1.17-.84 1.16-.84 1.17-.84 1.17-.84 1.17-.83 1.17-.84 1.17-.84 1.17-.84 1.16-.84 1.17-.84 1.17-.84 1.17-.83 1.17-.84 1.17-.84 1.16-.84 1.17-.84 1.17-.84 1.17-.84 1.17-.84 1.17-.83 1.17-.84 1.16-.84 1.17-.84 1.17-.84 1.17-.84 1.17-.84 1.17-.83 1.16-.84 1.17-.84 1.17-.84 1.17-.84 1.17-.84 1.17-.84 1.17-.83 1.16-.84 1.17-.84 1.17-.84 1.17-.84 1.17-.84 1.17-.84 1.17-.84 1.16-.83 1.17-.84 1.17-.84 1.17-.84 1.17-.84 1.17-.84 1.16-.84 1.17-.83 1.17-.84 1.17-.84 1.17-.84 1.17-.84 1.17-.84 1.16-.84 1.17-.83 1.17-.84 1.17-.84 1.17-.84 1.17-.84 1.16-.84 1.17-.84 1.17-.84 1.17-.83 1.17-.84 1.17-.84 1.17-.84 1.16-.84 1.17-.84 1.17-.84 1.17-.83 1.17-.84 1.17-.84 1.17-.84 1.16-.84 1.17-.84 1.17-.84 1.17-.83 1.17-.84 1.17-.84 1.16-.84 1.17-.84 1.17-.84 1.17-.84 1.17-.84 1.17-.83 1.17-.84 1.16m95.92 128.78-.97-1.3-.97-1.3-.97-1.3-.97-1.31-.97-1.3-.97-1.3-.97-1.3-.96-1.3-.97-1.3-.97-1.3-.97-1.3-.97-1.3-.97-1.3-.97-1.3-.97-1.3-.97-1.3-.96-1.31-.97-1.3-.97-1.3-.97-1.3-.97-1.3-.97-1.3-.97-1.3-.97-1.3-.97-1.3-.96-1.3-.97-1.3-.97-1.3-.97-1.3-.97-1.3-.97-1.31-.97-1.3-.97-1.3-.97-1.3-.96-1.3-.97-1.3-.97-1.3-.97-1.3-.97-1.3-.97-1.3-.97-1.3-.97-1.3-.96-1.3-.97-1.31-.97-1.3-.97-1.3-.97-1.3-.97-1.3-.97-1.3-.97-1.3-.97-1.3-.96-1.3-.97-1.3-.97-1.3-.97-1.3-.97-1.3-.97-1.3-.97-1.31-.97-1.3-.97-1.3-.96-1.3-.97-1.3-.97-1.3-.97-1.3-.97-1.3-.97-1.3-.97-1.3-.97-1.3-.97-1.3-.96-1.3-.97-1.31-.97-1.3-.97-1.3-.97-1.3-.97-1.3-.97-1.3-.97-1.3-.97-1.3-.96-1.3-.97-1.3-.97-1.3-.97-1.3-.97-1.3-.97-1.3-.97-1.31-.97-1.3-.97-1.3-.96-1.3-.97-1.3-.97-1.3-.97-1.3-.97-1.3-.97-1.3-.97-1.3-.97-1.3-.97-1.3-.96-1.3-.97-1.31-.97-1.3" style="stroke-width:1.07;stroke:#000000;stroke-opacity:0.10;stroke-linecap:butt"/><path d="m402.12 404.13.39 1.24.38 1.24.39 1.24.39 1.24.39 1.24.39 1.23.39 1.24.39 1.24.38 1.24.39 1.24.39 1.24.39 1.24.39 1.24.39 1.24.39 1.24.39 1.24.38 1.24.39 1.24.39 1.24.39 1.24.39 1.24.39 1.24.39 1.24.38 1.24.39 1.24.39 1.24.39 1.23.39 1.24.39 1.24.39 1.24.39 1.24.38 1.24.39 1.24.39 1.24.39 1.24.39 1.24.39 1.24.39 1.24.38 1.24.39 1.24.39 1.24.39 1.24.39 1.24.39 1.24.39 1.24.39 1.24.38 1.24.39 1.23.39 1.24.39 1.24.39 1.24.39 1.24.39 1.24.38 1.24.39 1.24.39 1.24.39 1.24.39 1.24.39 1.24.39 1.24.39 1.24.38 1.24.39 1.24.39 1.24.39 1.24.39 1.24.39 1.24.39 1.24.38 1.23.39 1.24.39 1.24.39 1.24.39 1.24.39 1.24.39 1.24.39 1.24.38 1.24.39 1.24.39 1.24.39 1.24.39 1.24.39 1.24.39 1.24.38 1.24.39 1.24.39 1.24.39 1.24.39 1.24.39 1.24.39 1.23.38 1.24.39 1.24.39 1.24.39 1.24.39 1.24.39 1.24.39 1.24.39 1.24.38 1.24m-38.47-122.71 1.23.42 1.24.43 1.23.43 1.24.43 1.23.43 1.23.43 1.24.43 1.23.44 1.23.43 1.23.44 1.24.43 1.23.44 1.23.44 1.23.44 1.23.44 1.23.44 1.23.44 1.23.44 1.23.45 1.23.44 1.22.45 1.23.45 1.23.44 1.23.45 1.22.45 1.23.45 1.22.45 1.23.46 1.22.45 1.23.45 1.22.46 1.23.46 1.22.45 1.22.46 1.23.46 1.22.46 1.22.46 1.22.46 1.23.47 1.22.46 1.22.46 1.22.47 1.22.47 1.22.46 1.22.47 1.22.47 1.21.47 1.22.48 1.22.47 1.22.47 1.22.48 1.21.47 1.22.48 1.21.47 1.22.48 1.22.48 1.21.48 1.22.48 1.21.48 1.21.49 1.22.48 1.21.49 1.21.48 1.21.49 1.22.49 1.21.49 1.21.48 1.21.5 1.21.49 1.21.49 1.21.49 1.21.5 1.21.49 1.21.5 1.21.5 1.2.49 1.21.5 1.21.5 1.21.5 1.2.51 1.21.5 1.2.5 1.21.51 1.21.5 1.2.51 1.2.51 1.21.51 1.2.51 1.21.51 1.2.51 1.2.51 1.2.51 1.2.52 1.21.51 1.2.52 1.2.52 1.2.52 1.2.51 1.2.52" style="stroke-width:1.07;stroke:#000000;stroke-opacity:0.10;stroke-linecap:butt"/><path d="m402.12 404.13.48 1.21.48 1.21.48 1.21.48 1.21.47 1.21.47 1.22.47 1.21.47 1.21.47 1.22.46 1.21.47 1.22.46 1.21.46 1.22.46 1.22.45 1.22.46 1.22.45 1.22.45 1.22.45 1.22.44 1.22.45 1.22.44 1.22.44 1.23.44 1.22.43 1.22.44 1.23.43 1.22.43 1.23.43 1.23.43 1.22.42 1.23.42 1.23.43 1.23.42 1.23.41 1.23.42 1.23.41 1.23.41 1.23.41 1.24.41 1.23.41 1.23.4 1.24.4 1.23.4 1.24.4 1.24.4 1.23.39 1.24.39 1.24.39 1.24.39 1.24.39 1.24.38 1.24.39 1.24.38 1.24.38 1.25.37 1.24.38 1.24.37 1.25.38 1.24.36 1.25.37 1.24.37 1.25.36 1.25.36 1.25.36 1.24.36 1.25.36 1.25.35 1.25.35 1.26.35 1.25.35 1.25.35 1.25.34 1.26.35 1.25.34 1.25.34 1.26.33 1.26.34 1.25.33 1.26.33 1.26.33 1.26.33 1.25.33 1.26.32 1.26.32 1.27.32 1.26.32 1.26.31 1.26.32 1.26.31 1.27.31 1.26.31 1.27.31 1.26.3 1.27.3 1.27.3 1.26.3 1.27.3 1.27.29 1.27m-38.47-122.71 1.27.33 1.27.34 1.27.34 1.27.34 1.26.34 1.27.35 1.26.35 1.27.35 1.26.36 1.26.36 1.26.36 1.26.37 1.26.36 1.25.37 1.26.38 1.25.37 1.26.38 1.25.39 1.25.38 1.25.39 1.25.39 1.25.39 1.25.4 1.24.4 1.25.4 1.24.4 1.24.41 1.25.41 1.24.42 1.24.41 1.23.42 1.24.42 1.24.43 1.23.43 1.24.43 1.23.43 1.23.44 1.23.43 1.23.45 1.23.44 1.23.45 1.22.45 1.23.45 1.22.46 1.23.46 1.22.46 1.22.47 1.22.46 1.22.47 1.21.48 1.22.47 1.22.48 1.21.48 1.21.49 1.21.49 1.22.49 1.21.49 1.2.5 1.21.5 1.21.5 1.2.5 1.21.51 1.2.51 1.2.51 1.2.52 1.2.52 1.2.52 1.2.53 1.2.52 1.19.54 1.2.53 1.19.54 1.19.53 1.19.55 1.19.54 1.19.55 1.19.55 1.19.55 1.18.56 1.19.56 1.18.56 1.18.57 1.19.56 1.18.57 1.17.58 1.18.57 1.18.58 1.18.58 1.17.59 1.17.59 1.18.59 1.17.59 1.17.6 1.17.6 1.17.6 1.16.6 1.17.61 1.16.61 1.17.61" style="stroke-width:1.07;stroke:#000000;stroke-opacity:0.10;stroke-linecap:butt"/><path d="m402.12 404.13.57 1.18.58 1.18.56 1.18.57 1.18.56 1.19.56 1.19.55 1.18.55 1.19.54 1.19.55 1.19.53 1.19.54 1.2.53 1.19.52 1.2.53 1.19.52 1.2.51 1.2.51 1.2.51 1.2.5 1.21.5 1.2.5 1.21.49 1.2.49 1.21.48 1.21.48 1.21.48 1.21.47 1.22.47 1.21.47 1.21.46 1.22.46 1.22.45 1.22.45 1.22.44 1.22.45 1.22.44 1.22.43 1.23.43 1.23.43 1.22.42 1.23.42 1.23.42 1.23.41 1.23.4 1.24.41 1.23.4 1.24.4 1.24.39 1.23.39 1.24.38 1.24.38 1.25.38 1.24.37 1.24.37 1.25.37 1.25.36 1.24.36 1.25.35 1.25.35 1.26.35 1.25.34 1.25.34 1.26.34 1.25.33 1.26.32 1.26.33 1.26.32 1.26.31 1.27.32 1.26.3 1.26.31 1.27.3 1.27.3 1.27.29 1.27.29 1.27.28 1.27.29 1.27.27 1.28.28 1.28.27 1.27.26 1.28.27 1.28.25 1.28.26 1.28.25 1.29.25 1.28.24 1.29.24 1.28.24 1.29.23 1.29.23 1.29.22 1.29.22 1.3.22 1.29.21 1.3.21 1.29.2 1.3.2 1.3M405.4 276.02l-1 .03-1.01.03-1 .03-1 .03-1 .03-1.01.03-1 .02-1 .03-1 .03-1.01.02-1 .02-1 .03-1 .02-1 .02-1.01.02-1 .02-1 .02-1 .02-1 .02-1.01.01-1 .02-1 .02-1 .01-1.01.01-1 .02-1 .01-1 .01-1 .01-1.01.01-1 .01-1 .01h-1l-1 .01-1.01.01h-1l-1 .01h-3.01l-1 .01h-2l-1.01-.01h-3l-1-.01h-1.01l-1-.01-1-.01h-1l-1-.01-1.01-.01-1-.01-1-.01-1-.01-1-.02-1.01-.01-1-.01-1-.02-1-.01-1-.02-1.01-.02-1-.01-1-.02-1-.02-1-.02-1.01-.02-1-.02-1-.03-1-.02-1-.02-1-.03-1.01-.02-1-.03-1-.03-1-.02-1-.03-1.01-.03-1-.03-1-.03-1-.04-1-.03-1.01-.03-1-.04-1-.03-1-.04-1-.03-1-.04-1.01-.04-1-.04-1-.04-1-.04-1-.04-1.01-.04-1-.04-1-.05-1-.04-1-.05m99.2.67-1.25.75-1.24.74-1.24.75-1.25.75-1.24.74-1.25.75-1.24.74-1.25.74-1.24.74-1.25.74-1.25.74-1.25.74-1.25.73-1.25.74-1.25.73-1.25.74-1.25.73-1.25.73-1.25.73-1.26.73-1.25.73-1.25.73-1.26.72-1.25.73-1.26.73-1.25.72-1.26.72-1.26.72-1.25.72-1.26.72-1.26.72-1.26.72-1.26.72-1.26.71-1.26.72-1.26.71-1.26.71-1.27.72-1.26.71-1.26.71-1.27.71-1.26.7-1.27.71-1.26.71-1.27.7-1.27.71-1.26.7-1.27.7-1.27.7-1.27.7-1.27.7-1.27.7-1.27.69-1.27.7-1.27.7-1.27.69-1.28.69-1.27.69-1.27.7-1.28.69-1.27.68-1.28.69-1.27.69-1.28.69-1.28.68-1.28.68-1.27.69-1.28.68-1.28.68-1.28.68-1.28.68-1.28.68-1.28.68-1.29.67-1.28.68-1.28.67-1.29.67-1.28.68-1.28.67-1.29.67-1.28.67-1.29.66-1.29.67-1.28.67-1.29.66-1.29.67-1.29.66-1.29.66-1.29.66-1.29.66-1.29.66-1.29.66-1.3.66-1.29.65-1.29.66-1.29.65-1.3.66-1.29.65-1.3.65" style="stroke-width:1.07;stroke:#000000;stroke-opacity:0.10;stroke-linecap:butt"/><path d="m264.67 141.41.42 1.35.42 1.35.42 1.36.42 1.35.42 1.35.42 1.36.42 1.35.42 1.35.42 1.36.41 1.35.42 1.35.42 1.35.42 1.36.42 1.35.42 1.35.42 1.36.42 1.35.42 1.35.42 1.36.42 1.35.42 1.35.42 1.35.42 1.36.42 1.35.42 1.35.42 1.36.42 1.35.42 1.35.41 1.36.42 1.35.42 1.35.42 1.35.42 1.36.42 1.35.42 1.35.42 1.36.42 1.35.42 1.35.42 1.36.42 1.35.42 1.35.42 1.35.42 1.36.42 1.35.42 1.35.42 1.36.42 1.35.41 1.35.42 1.35.42 1.36.42 1.35.42 1.35.42 1.36.42 1.35.42 1.35.42 1.36.42 1.35.42 1.35.42 1.35.42 1.36.42 1.35.42 1.35.42 1.36.42 1.35.42 1.35.42 1.36.41 1.35.42 1.35.42 1.35.42 1.36.42 1.35.42 1.35.42 1.36.42 1.35.42 1.35.42 1.36.42 1.35.42 1.35.42 1.35.42 1.36.42 1.35.42 1.35.42 1.36.42 1.35.41 1.35.42 1.36.42 1.35.42 1.35.42 1.35.42 1.36.42 1.35.42 1.35.42 1.36.42 1.35.42 1.35.42 1.36.42 1.35.42 1.35.42 1.35m-109.92-30.5 1.09.39 1.09.39 1.09.39 1.08.39 1.09.39 1.09.38 1.09.38 1.09.39 1.09.38 1.09.37 1.1.38 1.09.37 1.09.38 1.09.37 1.1.36 1.09.37 1.1.37 1.09.36 1.1.36 1.09.36 1.1.36 1.1.36 1.09.35 1.1.36 1.1.35 1.1.35 1.1.35 1.1.34 1.1.35 1.1.34 1.1.34 1.1.34 1.1.34 1.11.33 1.1.34 1.1.33 1.11.33 1.1.33 1.11.33 1.1.32 1.11.33 1.1.32 1.11.32 1.11.32 1.11.32 1.1.31 1.11.31 1.11.32 1.11.31 1.11.3 1.11.31 1.11.3 1.12.31 1.11.3 1.11.3 1.11.3 1.12.29 1.11.3 1.12.29 1.11.29 1.12.29 1.11.29 1.12.28 1.12.29 1.11.28 1.12.28 1.12.28 1.12.27 1.12.28 1.12.27 1.12.27 1.12.27 1.12.27 1.12.27 1.12.26 1.13.27 1.12.26 1.12.26 1.13.25 1.12.26 1.13.25 1.12.26 1.13.25 1.12.25 1.13.24 1.13.25 1.13.24 1.12.25 1.13.24 1.13.23 1.13.24 1.13.24 1.13.23 1.13.23 1.14.23 1.13.23 1.13.23 1.13.22 1.14.22m-109.92-30.5.77 1.08.77 1.08.77 1.07.77 1.08.77 1.07.78 1.08.77 1.07.78 1.07.78 1.07.78 1.06.78 1.07.79 1.06.78 1.07.79 1.06.79 1.06.79 1.06.79 1.06.79 1.06.8 1.05.79 1.06.8 1.05.8 1.05.8 1.05.8 1.05.81 1.05.8 1.04.81 1.05.81 1.04.81 1.05.81 1.04.82 1.04.81 1.04.82 1.03.82 1.04.81 1.03.83 1.04.82 1.03.82 1.03.83 1.03.83 1.03.83 1.02.83 1.03.83 1.02.83 1.03.84 1.02.84 1.02.83 1.02.84 1.01.85 1.02.84 1.01.84 1.02.85 1.01.85 1.01.85 1.01.85 1.01.85 1 .86 1.01.85 1 .86 1.01.86 1 .86 1 .86 1 .87 1 .86.99.87 1 .87.99.87.99.87.99.87.99.88.99.87.99.88.98.88.99.88.98.88.98.89.98.88.98.89.98.89.98.89.97.89.98.89.97.9.97.89.97.9.97.9.97.9.96.91.97.9.96.91.96.9.96.91.96.91.96.92.96.91.95.91.96.92.95.92.95.92.95" style="stroke-width:1.07;stroke:#000000;stroke-opacity:0.10;stroke-linecap:butt"/><path d="m196.28 244.85 1.11.31 1.11.3 1.11.31 1.11.31 1.11.31 1.11.31 1.11.31 1.12.3 1.11.31 1.11.31 1.11.31 1.11.31 1.11.3 1.11.31 1.11.31 1.11.31 1.11.31 1.11.3 1.11.31 1.11.31 1.11.31 1.11.31 1.11.31 1.11.3 1.11.31 1.11.31 1.11.31 1.11.31 1.11.3 1.11.31 1.11.31 1.11.31 1.11.31 1.11.31 1.11.3 1.11.31 1.11.31 1.11.31 1.11.31 1.11.3 1.11.31 1.11.31 1.11.31 1.11.31 1.11.3 1.11.31 1.11.31 1.11.31 1.12.31 1.11.31 1.11.3 1.11.31 1.11.31 1.11.31 1.11.31 1.11.3 1.11.31 1.11.31 1.11.31 1.11.31 1.11.3 1.11.31 1.11.31 1.11.31 1.11.31 1.11.31 1.11.3 1.11.31 1.11.31 1.11.31 1.11.31 1.11.3 1.11.31 1.11.31 1.11.31 1.11.31 1.11.3 1.11.31 1.11.31 1.11.31 1.11.31 1.11.31 1.11.3 1.11.31 1.11.31 1.11.31 1.11.31 1.11.3 1.12.31 1.11.31 1.11.31 1.11.31 1.11.31 1.11.3 1.11.31 1.11.31 1.11.31 1.11.31 1.11.3m-109.92-30.5.85 1.01.84 1.02.84 1.01.85 1.02.84 1.01.84 1.02.85 1.01.84 1.02.84 1.01.85 1.02.84 1.01.84 1.02.85 1.01.84 1.02.84 1.01.85 1.01.84 1.02.84 1.01.85 1.02.84 1.01.84 1.02.85 1.01.84 1.02.84 1.01.85 1.02.84 1.01.84 1.02.85 1.01.84 1.02.84 1.01.85 1.02.84 1.01.84 1.02.85 1.01.84 1.02.84 1.01.85 1.02.84 1.01.84 1.01.85 1.02.84 1.01.84 1.02.85 1.01.84 1.02.84 1.01.85 1.02.84 1.01.84 1.02.85 1.01.84 1.02.84 1.01.85 1.02.84 1.01.84 1.02.84 1.01.85 1.02.84 1.01.84 1.02.85 1.01.84 1.01.84 1.02.85 1.01.84 1.02.84 1.01.85 1.02.84 1.01.84 1.02.85 1.01.84 1.02.84 1.01.85 1.02.84 1.01.84 1.02.85 1.01.84 1.02.84 1.01.85 1.02.84 1.01.84 1.02.85 1.01.84 1.02.84 1.01.85 1.01.84 1.02.84 1.01.85 1.02.84 1.01.84 1.02.85 1.01.84 1.02.84 1.01.85 1.02.84 1.01.84 1.02.85 1.01.84 1.02.84 1.01.85 1.02.84 1.01m125.63-69.29-1.01.11-1 .1-1 .11-1 .1-1.01.1-1 .09-1 .1-1 .09-1.01.09-1 .09-1 .08-1 .09-1.01.08-1 .07-1 .08-1.01.07-1 .07-1 .07-1 .07-1.01.06-1 .06-1 .06-1 .06-1.01.05-1 .06-1 .05-1 .04-1 .05-1.01.04-1 .04-1 .04-1 .04-1.01.03-1 .03-1 .03-1 .02-1.01.03-1 .02-1 .02-1 .02-1 .01-1.01.01-1 .01-1 .01h-1l-1 .01h-2.01l-1-.01-1-.01h-1l-1.01-.02-1-.01-1-.02-1-.01-1-.03-1.01-.02-1-.02-1-.03-1-.03-1-.03-1.01-.04-1-.04-1-.04-1-.04-1-.04-1-.05-1.01-.05-1-.05-1-.05-1-.06-1-.06-1-.06-1.01-.06-1-.07-1-.07-1-.07-1-.07-1-.07-1.01-.08-1-.08-1-.08-1-.09-1-.08-1-.09-1-.09-1.01-.1-1-.09-1-.1-1-.1-1-.11-1-.1-1-.11-1.01-.11-1-.11-1-.12-1-.11-1-.12-1-.13m99.2.67-1.19.84-1.19.85-1.2.84-1.19.83-1.2.84-1.19.83-1.2.83-1.2.82-1.21.82-1.2.82-1.21.82-1.2.81-1.21.81-1.21.81-1.22.8-1.21.81-1.22.79-1.21.8-1.22.79-1.22.79-1.22.79-1.23.78-1.22.78-1.23.78-1.23.77-1.23.77-1.23.77-1.23.77-1.24.76-1.23.76-1.24.76-1.24.75-1.24.75-1.25.75-1.24.74-1.25.74-1.25.74-1.25.74-1.25.73-1.25.73-1.25.73-1.26.72-1.26.72-1.26.72-1.26.71-1.26.72-1.26.7-1.27.71-1.27.7-1.27.7-1.27.7-1.27.69-1.27.7-1.28.68-1.27.69-1.28.68-1.28.68-1.29.68-1.28.67-1.28.67-1.29.67-1.29.66-1.29.66-1.29.66-1.29.66-1.3.65-1.3.65-1.29.64-1.3.65-1.31.64-1.3.63-1.3.64-1.31.63-1.31.63-1.31.62-1.31.63-1.31.62-1.31.61-1.32.62-1.32.61-1.32.6-1.32.61-1.32.6-1.32.6-1.33.59-1.33.6-1.33.59-1.33.58-1.33.59-1.33.58-1.34.58-1.34.57-1.33.57-1.34.57-1.35.57-1.34.56-1.34.56-1.35.56-1.35.55m122.35 58.82 1.3.24 1.31.24 1.3.25 1.3.26 1.3.26 1.3.26 1.3.27 1.29.27 1.29.28 1.29.28 1.29.29 1.29.29 1.29.3 1.28.3 1.28.31 1.28.31 1.28.32 1.27.32 1.28.32 1.27.33 1.27.34 1.27.34 1.27.34 1.26.35 1.26.36 1.26.36 1.26.36 1.26.37 1.26.37 1.25.38 1.25.38 1.25.39 1.25.39 1.25.4 1.24.4 1.25.41 1.24.41 1.24.42 1.24.42 1.23.42 1.24.43 1.23.44 1.23.44 1.23.44 1.22.45 1.23.46 1.22.46 1.22.46 1.22.47 1.22.47 1.21.48 1.22.48 1.21.49 1.21.49 1.21.5 1.2.5 1.21.51 1.2.51 1.2.52 1.2.52 1.2.53 1.2.53 1.19.53 1.19.54 1.19.55 1.19.55 1.19.55 1.18.56 1.18.56 1.18.57 1.18.58 1.18.57 1.18.59 1.17.58 1.17.6 1.17.59 1.17.61 1.17.6 1.16.61 1.16.62 1.16.62 1.16.63 1.16.63 1.16.63 1.15.64 1.15.65 1.15.65 1.15.65 1.15.66 1.14.67 1.14.66 1.14.68 1.14.68 1.14.68 1.13.69 1.14.69 1.13.7 1.13.7 1.13.7m-120.53-46.86.67 1.15.66 1.15.66 1.15.65 1.16.65 1.16.64 1.16.64 1.16.63 1.16.62 1.16.62 1.17.61 1.17.61 1.17.6 1.17.59 1.18.59 1.17.59 1.18.57 1.18.58 1.18.56 1.18.56 1.19.56 1.18.55 1.19.54 1.19.54 1.19.53 1.2.53 1.19.52 1.2.51 1.2.51 1.2.51 1.2.49 1.21.5 1.21.48 1.2.48 1.22.48 1.21.47 1.21.46 1.22.46 1.21.45 1.22.44 1.23.45 1.22.43 1.22.43 1.23.42 1.23.42 1.23.41 1.23.41 1.24.4 1.23.39 1.24.39 1.24.38 1.24.38 1.24.37 1.25.37 1.25.36 1.24.35 1.25.35 1.26.34 1.25.34 1.26.33 1.25.33 1.26.32 1.27.31 1.26.31 1.26.3 1.27.3 1.27.29 1.27.28 1.27.28 1.28.28 1.27.27 1.28.26 1.28.26 1.28.25 1.28.24 1.29.24 1.29.23 1.29.23 1.29.22 1.29.22 1.29.21 1.3.21 1.3.2 1.3.19 1.3.19 1.3.18 1.31.18 1.3.17 1.31.16 1.31.16 1.32.15 1.31.15 1.32.14 1.31.14 1.32.13 1.33.12 1.32.12 1.32.12 1.33.1 1.33" style="stroke-width:1.07;stroke:#000000;stroke-opacity:0.10;stroke-linecap:butt"/><path d="m196.28 244.85 1.14.22 1.13.23 1.13.22 1.13.23 1.14.23 1.13.23 1.13.24 1.13.23 1.13.24 1.13.24 1.13.24 1.12.24 1.13.24 1.13.25 1.13.25 1.12.24 1.13.26 1.12.25 1.13.25 1.12.26 1.13.26 1.12.26 1.12.26 1.13.26 1.12.26 1.12.27 1.12.27 1.12.27 1.12.27 1.12.27 1.12.28 1.12.28 1.12.27 1.12.29 1.11.28 1.12.28 1.12.29 1.11.28 1.12.29 1.11.29 1.12.3 1.11.29 1.12.3 1.11.29 1.11.3 1.11.3 1.12.31 1.11.3 1.11.31 1.11.31 1.11.31 1.11.31 1.11.31 1.1.32 1.11.31 1.11.32 1.11.32 1.1.32 1.11.33 1.1.32 1.11.33 1.1.33 1.11.33 1.1.33 1.1.34 1.11.33 1.1.34 1.1.34 1.1.34 1.1.34 1.1.35 1.1.35 1.1.34 1.1.35 1.1.36 1.1.35 1.09.35 1.1.36 1.1.36 1.09.36 1.1.36 1.09.36 1.1.37 1.09.37 1.1.37 1.09.37 1.09.37 1.09.37 1.1.38 1.09.38 1.09.38 1.09.38 1.09.38 1.09.39 1.09.38 1.09.39 1.08.39 1.09.39 1.09.39m-109.92-30.5.92.95.92.95.92.95.91.96.92.95.91.96.91.96.91.96.91.96.9.96.91.96.9.97.9.96.9.97.9.97.9.97.89.97.89.97.9.98.89.97.89.98.88.98.89.97.88.99.88.98.89.98.87.98.88.99.88.99.87.99.88.99.87.99.87.99.87.99.86 1 .87.99.86 1 .86 1 .86 1 .86 1 .86 1.01.86 1 .85 1 .85 1.01.85 1.01.85 1.01.85 1.01.85 1.01.84 1.02.85 1.01.84 1.02.84 1.01.84 1.02.83 1.02.84 1.02.83 1.03.84 1.02.83 1.03.83 1.02.82 1.03.83 1.03.82 1.03.83 1.03.82 1.04.82 1.03.82 1.04.81 1.03.82 1.04.81 1.04.81 1.04.81 1.05.81 1.04.81 1.04.81 1.05.8 1.05.8 1.05.8 1.05.8 1.05.8 1.05.8 1.06.79 1.05.8 1.06.79 1.06.79 1.06.79 1.06.78 1.06.79 1.06.78 1.07.78 1.07.78 1.06.78 1.07.78 1.07.78 1.07.77 1.08.77 1.07.78 1.08.77 1.07.76 1.08.77 1.08m122.35 58.82 1.34.14 1.34.16 1.34.16 1.33.16 1.34.18 1.33.18 1.32.18 1.33.2 1.32.2 1.32.2 1.32.22 1.31.22 1.31.22 1.31.24 1.31.24 1.3.24 1.31.26 1.3.26 1.29.26 1.3.28 1.29.28 1.29.28 1.28.3 1.29.3 1.28.3 1.28.32 1.27.32 1.28.32 1.27.34 1.27.34 1.26.35 1.27.35 1.26.36 1.26.37 1.25.37 1.26.38 1.25.39 1.24.39 1.25.4 1.24.41 1.24.41 1.24.42 1.24.43 1.23.43 1.23.44 1.23.45 1.22.45 1.23.46 1.22.47 1.21.47 1.22.48 1.21.49 1.21.49 1.21.5 1.2.51 1.2.51 1.2.52 1.2.53 1.2.53 1.19.54 1.19.55 1.18.55 1.19.56 1.18.57 1.18.57 1.18.58 1.17.59 1.17.59 1.17.6 1.17.61 1.16.61 1.16.62 1.16.63 1.16.63 1.15.64 1.15.65 1.15.65 1.14.66 1.15.67 1.14.67 1.14.68 1.13.69 1.14.69 1.13.7 1.12.71 1.13.71 1.12.72 1.12.73 1.12.73 1.12.74 1.11.75 1.11.75 1.11.76 1.1.77 1.1.77 1.1.78 1.1.79 1.1.79 1.09.8m-120.53-46.86.76 1.12.76 1.12.74 1.13.75 1.12.73 1.13.72 1.14.72 1.13.71 1.14.7 1.14.7 1.14.69 1.14.68 1.15.67 1.15.66 1.15.66 1.16.65 1.15.64 1.16.63 1.17.63 1.16.61 1.17.62 1.17.6 1.17.59 1.17.59 1.18.58 1.18.57 1.18.57 1.18.56 1.19.54 1.18.55 1.2.53 1.19.53 1.19.52 1.2.51 1.2.5 1.21.5 1.2.48 1.21.48 1.21.48 1.21.46 1.22.46 1.22.45 1.22.44 1.22.44 1.22.42 1.23.42 1.23.41 1.23.41 1.24.39 1.23.39 1.24.38 1.25.38 1.24.36 1.25.36 1.25.35 1.25.34 1.25.34 1.26.33 1.26.32 1.26.31 1.26.3 1.27.3 1.27.29 1.27.28 1.27.27 1.28.27 1.28.26 1.28.25 1.28.24 1.29.24 1.29.23 1.29.22 1.29.21 1.29.21 1.3.19 1.3.19 1.31.18 1.3.18 1.31.17 1.31.15 1.31.16 1.32.14 1.31.14 1.32.12 1.32.13 1.33.11 1.33.1 1.33.1 1.33.09 1.33.09 1.34.07 1.34.07 1.34.06 1.34.05 1.35.04 1.35.04 1.35.03 1.36.02 1.35.01 1.36" style="stroke-width:1.07;stroke:#000000;stroke-opacity:0.10;stroke-linecap:butt"/><path d="m402.12 404.13 1.38.05 1.37.06 1.37.07 1.37.08 1.37.09 1.36.1 1.36.1 1.35.11 1.36.13 1.34.13 1.35.14 1.34.14 1.34.16 1.34.16 1.33.18 1.33.18 1.33.19 1.32.2 1.32.21 1.31.21 1.32.23 1.31.23 1.3.24 1.31.25 1.3.26 1.29.27 1.29.28 1.29.28 1.29.29 1.28.31 1.28.31 1.28.32 1.27.32 1.27.34 1.27.34 1.26.36 1.26.36 1.26.37 1.26.38 1.25.39 1.24.39 1.25.41 1.24.41 1.23.42 1.24.43 1.23.44 1.23.45 1.22.46 1.22.46 1.22.48 1.21.48 1.21.49 1.21.5 1.21.51 1.2.51 1.19.53 1.2.53 1.19.54 1.19.55 1.18.56 1.18.57 1.18.58 1.18.58 1.17.59 1.17.61 1.16.61 1.16.62 1.16.62 1.16.64 1.15.64 1.15.66 1.14.66 1.14.67 1.14.68 1.14.69 1.13.69 1.13.71 1.12.71 1.12.72 1.12.73 1.12.74 1.11.75 1.11.76 1.11.76 1.1.78 1.1.78 1.09.79 1.1.8 1.09.81 1.08.81 1.08.83 1.08.83 1.08.84 1.07.85 1.07.86 1.07.87 1.06.88 1.06.88 1.06.89m-120.53-46.86.85 1.09.85 1.09.84 1.1.83 1.1.82 1.1.81 1.11.8 1.11.79 1.11.78 1.11.77 1.12.76 1.12.75 1.12.75 1.13.73 1.13.72 1.13.72 1.14.7 1.14.7 1.14.68 1.15.68 1.15.66 1.15.66 1.15.65 1.16.63 1.16.63 1.16.62 1.17.61 1.17.6 1.17.59 1.18.58 1.18.57 1.18.56 1.18.55 1.19.54 1.19.53 1.2.52 1.19.52 1.2.5 1.21.49 1.2.49 1.21.47 1.21.47 1.22.45 1.22.45 1.22.44 1.22.42 1.23.42 1.23.41 1.23.4 1.24.39 1.24.38 1.24.36 1.25.36 1.25.36 1.25.34 1.25.33 1.26.32 1.26.31 1.26.3 1.27.3 1.27.28 1.27.27 1.28.27 1.28.25 1.28.25 1.29.23 1.28.23 1.3.22 1.29.2 1.3.2 1.3.19 1.3.18 1.31.17 1.31.15 1.31.15 1.32.14 1.31.13 1.33.13 1.32.11 1.33.1 1.33.09 1.33.08 1.34.08 1.34.06 1.34.05 1.35.05 1.35.03 1.35.03 1.35.01 1.36.01 1.36v1.37l-.02 1.36-.02 1.37-.03 1.38-.04 1.37-.05 1.38-.07 1.39-.07 1.38-.08 1.39M405.4 276.02l-1.01.18-1 .19-1 .17-1.01.18-1 .17-1 .16-1.01.16-1 .16-1 .16-1 .15-1.01.14-1 .14-1 .14-1.01.14-1 .13-1 .12-1 .13-1.01.12-1 .11-1 .11-1.01.11-1 .1-1 .1-1 .1-1.01.09-1 .08-1 .09-1 .08-1.01.07-1 .07-1 .07-1 .07-1.01.06-1 .05-1 .05-1 .05-1.01.05-1 .04-1 .03-1 .04-1.01.02-1 .03-1 .02-1 .02-1 .01-1.01.01h-4.01l-1-.02-1-.01-1-.02-1-.02-1.01-.03-1-.03-1-.03-1-.04-1-.04-1-.05-1.01-.05-1-.05-1-.06-1-.06-1-.07-1-.07-1.01-.07-1-.08-1-.08-1-.08-1-.09-1-.09-1-.1-1.01-.1-1-.11-1-.11-1-.11-1-.11-1-.12-1-.13-1.01-.13-1-.13-1-.14-1-.14-1-.14-1-.15-1-.15-1-.15-1-.16-1-.17-1.01-.17-1-.17-1-.17-1-.18-1-.18-1-.19-1-.19-1-.2-1-.2m99.2.67-1.14.94-1.14.94-1.14.93-1.15.93-1.14.92-1.15.92-1.16.92-1.15.91-1.16.9-1.16.9-1.16.89-1.17.89-1.17.88-1.17.88-1.18.88-1.17.86-1.18.87-1.19.86-1.18.85-1.19.85-1.19.84-1.19.84-1.2.84-1.2.82-1.2.83-1.2.82-1.21.81-1.21.81-1.21.81-1.22.79-1.21.8-1.22.79-1.23.78-1.22.78-1.23.78-1.23.77-1.24.76-1.23.76-1.24.75-1.24.75-1.25.75-1.25.74-1.25.73-1.25.73-1.25.73-1.26.72-1.26.71-1.27.71-1.26.71-1.27.7-1.27.69-1.28.69-1.28.69-1.28.68-1.28.67-1.28.67-1.29.67-1.29.66-1.29.65-1.3.65-1.3.65-1.3.64-1.3.63-1.31.63-1.31.63-1.31.62-1.32.62-1.32.61-1.32.6-1.32.6-1.32.6-1.33.59-1.33.58-1.34.59-1.33.57-1.34.57-1.35.57-1.34.56-1.35.55-1.35.56-1.35.54-1.36.54-1.35.54-1.36.53-1.37.53-1.36.52-1.37.51-1.37.51-1.38.51-1.38.5-1.37.5-1.39.49-1.38.49-1.39.48-1.39.47-1.39.48-1.4.46-1.4.46-1.4.46m0 0 .59-.58.58-.59.57-.59.57-.59.56-.59.56-.6.55-.6.54-.6.53-.6.53-.61.52-.61.52-.61.51-.61.5-.62.5-.62.49-.62.48-.62.48-.63.46-.63.47-.63.45-.64.46-.63.44-.64.44-.64.43-.65.42-.64.42-.65.41-.65.4-.66.4-.65.39-.66.39-.66.37-.67.38-.67.36-.66.36-.68.35-.67.35-.68.34-.68.33-.68.32-.68.32-.69.32-.69.3-.69.3-.69.3-.7.28-.7.28-.7.28-.7.26-.71.26-.71.26-.71.24-.72.24-.71.24-.72.23-.72.22-.73.21-.72.21-.73.2-.73.2-.74.19-.74.18-.73.17-.75.17-.74.16-.75.16-.75.15-.75.14-.75.14-.76.13-.76.12-.76.12-.76.11-.77.1-.77.1-.77.09-.78.08-.77.08-.78.07-.79.06-.78.06-.79.05-.79.05-.79.03-.79.03-.8.03-.8.02-.8.01-.8v-2.43l-.02-.82-.02-.81-.03-.82-.03-.83-.04-.82-.05-.83-.05-.83" style="stroke-width:1.07;stroke:#000000;stroke-opacity:0.10;stroke-linecap:butt"/><path d="m279.77 345.31.53-.6.53-.61.53-.61.51-.61.52-.61.5-.62.5-.61.5-.62.49-.62.49-.63.48-.62.47-.63.47-.63.46-.63.46-.63.45-.64.45-.64.44-.64.44-.64.43-.64.42-.65.42-.65.42-.65.4-.65.41-.65.4-.66.39-.66.38-.66.39-.66.37-.67.37-.66.37-.67.36-.67.35-.68.35-.67.34-.68.34-.68.33-.68.33-.68.32-.69.32-.69.31-.69.3-.69.3-.69.3-.7.29-.7.28-.7.28-.7.27-.71.27-.7.26-.71.25-.71.25-.71.25-.72.24-.72.23-.72.23-.72.23-.72.21-.73.22-.72.2-.73.2-.73.2-.74.19-.73.19-.74.18-.74.17-.74.17-.75.16-.75.16-.74.15-.75.15-.76.14-.75.14-.76.13-.76.12-.76.12-.76.12-.77.11-.76.1-.77.1-.77.09-.78.09-.77.08-.78.07-.78.08-.78.06-.79.06-.78.05-.79.05-.79.05-.79.03-.8.04-.79.02-.8.03-.8.01-.81.01-.8.01-.81v-.81" style="stroke-width:1.07;stroke:#000000;stroke-opacity:0.10;stroke-linecap:butt"/><path d="m279.77 345.31.48-.62.48-.63.47-.63.47-.63.46-.63.46-.63.45-.64.45-.63.45-.64.44-.64.44-.64.43-.65.43-.64.42-.65.42-.65.42-.65.41-.65.41-.65.4-.66.4-.65.39-.66.39-.66.38-.66.38-.66.38-.67.37-.67.37-.66.36-.67.36-.68.35-.67.35-.67.35-.68.34-.68.34-.68.33-.68.33-.68.32-.69.32-.68.31-.69.32-.69.3-.69.3-.7.3-.69.29-.7.29-.7.29-.7.28-.7.27-.7.27-.71.27-.7.26-.71.26-.71.26-.71.24-.72.25-.71.24-.72.24-.72.23-.72.23-.72.22-.72.22-.73.21-.72.21-.73.21-.73.2-.73.2-.74.19-.73.19-.74.18-.74.18-.74.18-.74.17-.74.17-.75.16-.74.16-.75.15-.75.15-.75.14-.76.14-.75.14-.76.13-.76.13-.76.12-.76.12-.76.12-.77.11-.77.1-.76.1-.77.1-.78.09-.77.09-.77.08-.78.08-.78.08-.78.07-.78.06-.79.07-.78.05-.79.06-.79" style="stroke-width:1.07;stroke:#000000;stroke-opacity:0.10;stroke-linecap:butt"/><path d="m279.77 345.31.43-.64.42-.65.42-.65.42-.65.41-.65.41-.65.41-.65.41-.66.4-.65.4-.66.39-.66.39-.65.39-.66.38-.67.39-.66.37-.66.38-.67.37-.66.37-.67.36-.67.37-.67.35-.67.36-.68.35-.67.35-.68.35-.67.34-.68.34-.68.33-.68.33-.68.33-.68.33-.69.32-.68.32-.69.32-.69.31-.69.31-.69.31-.69.3-.69.3-.7.29-.69.3-.7.29-.7.28-.69.29-.71.28-.7.27-.7.28-.7.27-.71.26-.71.27-.7.26-.71.26-.71.25-.71.25-.72.25-.71.24-.72.24-.71.24-.72.23-.72.24-.72.22-.72.23-.73.22-.72.22-.73.21-.72.21-.73.21-.73.21-.73.2-.73.2-.73.19-.74.19-.73.19-.74.19-.74.18-.74.18-.74.17-.74.17-.74.17-.75.17-.74.16-.75.16-.75.15-.75.16-.75.15-.75.14-.75.14-.76.14-.75.14-.76.13-.76.13-.76.13-.76.12-.76.12-.76.12-.77.11-.76.11-.77.11-.77" style="stroke-width:1.07;stroke:#000000;stroke-opacity:0.10;stroke-linecap:butt"/><path d="m279.77 345.31.37-.66.38-.67.37-.67.36-.67.37-.67.36-.67.36-.67.36-.67.36-.67.35-.67.35-.68.35-.67.35-.68.35-.67.34-.68.34-.68.34-.68.34-.68.33-.68.33-.68.33-.68.33-.69.33-.68.32-.69.32-.68.32-.69.32-.69.31-.68.32-.69.31-.69.3-.69.31-.7.3-.69.31-.69.3-.7.29-.69.3-.7.29-.69.29-.7.29-.7.29-.7.28-.7.28-.7.28-.7.28-.7.28-.71.27-.7.27-.7.27-.71.27-.71.26-.7.27-.71.26-.71.26-.71.25-.71.25-.71.26-.72.25-.71.24-.71.25-.72.24-.72.24-.71.24-.72.24-.72.23-.72.23-.72.23-.72.23-.72.23-.72.22-.73.22-.72.22-.72.22-.73.21-.73.21-.72.21-.73.21-.73.21-.73.2-.73.2-.73.2-.74.2-.73.19-.74.2-.73.19-.74.19-.73.18-.74.19-.74.18-.74.18-.74.18-.74.17-.74.17-.74.18-.75.16-.74.17-.75.17-.74.16-.75.16-.75" style="stroke-width:1.07;stroke:#000000;stroke-opacity:0.10;stroke-linecap:butt"/><path d="m279.77 345.31.32-.69.32-.68.32-.69.32-.69.31-.68.32-.69.31-.69.31-.69.31-.69.32-.69.3-.69.31-.69.31-.69.31-.69.3-.7.31-.69.3-.69.3-.69.3-.7.3-.69.3-.7.3-.69.29-.7.3-.69.29-.7.3-.7.29-.69.29-.7.29-.7.29-.7.28-.69.29-.7.29-.7.28-.7.28-.7.29-.7.28-.71.28-.7.28-.7.27-.7.28-.7.28-.71.27-.7.28-.71.27-.7.27-.71.27-.7.27-.71.27-.7.26-.71.27-.71.26-.7.27-.71.26-.71.26-.71.26-.71.26-.71.26-.71.26-.71.25-.71.26-.71.25-.71.25-.71.26-.72.25-.71.25-.71.24-.72.25-.71.25-.71.24-.72.25-.71.24-.72.24-.72.24-.71.24-.72.24-.72.24-.72.23-.71.24-.72.23-.72.24-.72.23-.72.23-.72.23-.72.23-.72.23-.73.22-.72.23-.72.22-.72.23-.73.22-.72.22-.73.22-.72.22-.72.22-.73.21-.73.22-.72.21-.73.22-.73" style="stroke-width:1.07;stroke:#000000;stroke-opacity:0.10;stroke-linecap:butt"/><path d="m279.77 345.31.27-.71.26-.7.27-.71.27-.71.27-.7.26-.71.27-.71.27-.7.26-.71.27-.71.27-.7.26-.71.27-.71.27-.7.26-.71.27-.71.27-.7.27-.71.26-.71.27-.7.27-.71.26-.7.27-.71.27-.71.26-.7.27-.71.27-.71.26-.7.27-.71.27-.71.27-.7.26-.71.27-.71.27-.7.26-.71.27-.71.27-.7.26-.71.27-.71.27-.7.26-.71.27-.71.27-.7.27-.71.26-.71.27-.7.27-.71.26-.71.27-.7.27-.71.26-.71.27-.7.27-.71.27-.71.26-.7.27-.71.27-.71.26-.7.27-.71.27-.71.26-.7.27-.71.27-.71.26-.7.27-.71.27-.71.27-.7.26-.71.27-.71.27-.7.26-.71.27-.71.27-.7.26-.71.27-.71.27-.7.26-.71.27-.71.27-.7.27-.71.26-.71.27-.7.27-.71.26-.71.27-.7.27-.71.26-.71.27-.7.27-.71.27-.71.26-.7.27-.71.27-.71.26-.7.27-.71.27-.71.26-.7.27-.71.27-.71" style="stroke-width:1.07;stroke:#000000;stroke-opacity:0.10;stroke-linecap:butt"/><path d="m279.77 345.31.21-.73.22-.72.21-.73.22-.72.22-.73.22-.73.22-.72.22-.72.22-.73.22-.72.23-.72.22-.73.23-.72.23-.72.23-.72.23-.72.23-.72.23-.72.23-.72.24-.72.23-.72.24-.72.24-.72.24-.71.24-.72.24-.72.24-.71.24-.72.24-.72.25-.71.25-.71.24-.72.25-.71.25-.72.25-.71.25-.71.26-.71.25-.72.26-.71.25-.71.26-.71.26-.71.26-.71.26-.71.26-.71.26-.7.26-.71.27-.71.26-.71.27-.7.27-.71.27-.7.27-.71.27-.7.27-.71.28-.7.27-.71.28-.7.27-.7.28-.71.28-.7.28-.7.28-.7.28-.7.29-.7.28-.7.29-.7.28-.7.29-.7.29-.7.29-.7.29-.69.29-.7.3-.7.29-.69.29-.7.3-.69.3-.7.3-.69.3-.7.3-.69.3-.69.3-.7.31-.69.3-.69.31-.69.3-.69.31-.7.31-.69.31-.69.32-.68.31-.69.31-.69.32-.69.31-.69.32-.69.32-.68.32-.69.32-.69" style="stroke-width:1.07;stroke:#000000;stroke-opacity:0.10;stroke-linecap:butt"/><path d="m279.77 345.31.16-.75.16-.74.17-.75.16-.74.17-.75.17-.74.18-.74.17-.75.18-.74.18-.74.18-.74.19-.73.18-.74.19-.74.19-.73.19-.74.2-.73.2-.74.19-.73.21-.73.2-.73.21-.73.2-.73.21-.73.22-.73.21-.72.22-.73.22-.73.22-.72.22-.72.23-.73.22-.72.23-.72.24-.72.23-.72.24-.72.24-.71.24-.72.24-.72.24-.71.25-.71.25-.72.25-.71.26-.71.25-.71.26-.71.26-.71.26-.71.27-.71.27-.7.26-.71.28-.7.27-.71.28-.7.27-.7.28-.71.29-.7.28-.7.29-.7.29-.69.29-.7.29-.7.29-.69.3-.7.3-.69.3-.7.31-.69.3-.69.31-.69.31-.69.32-.69.31-.69.32-.69.32-.68.32-.69.32-.68.33-.69.33-.68.33-.68.33-.68.33-.69.34-.68.34-.67.34-.68.34-.68.35-.68.35-.67.35-.68.35-.67.35-.67.36-.68.36-.67.36-.67.36-.67.37-.67.36-.67.37-.66.37-.67.38-.67" style="stroke-width:1.07;stroke:#000000;stroke-opacity:0.10;stroke-linecap:butt"/><path d="m279.77 345.31.11-.77.11-.76.11-.77.12-.76.12-.77.12-.76.13-.76.13-.76.13-.76.13-.75.14-.76.15-.75.14-.76.15-.75.15-.75.16-.75.16-.75.16-.74.17-.75.16-.74.18-.74.17-.75.18-.74.18-.74.19-.73.19-.74.19-.74.19-.73.2-.73.2-.74.21-.73.21-.72.21-.73.21-.73.22-.72.22-.73.22-.72.23-.72.23-.72.24-.72.24-.72.24-.72.24-.71.25-.72.25-.71.25-.71.26-.71.26-.71.26-.71.27-.71.27-.7.27-.71.28-.7.28-.7.28-.7.29-.7.29-.7.29-.69.3-.7.3-.69.3-.7.31-.69.31-.69.31-.69.32-.69.32-.68.32-.69.32-.68.33-.68.34-.69.33-.68.34-.67.34-.68.35-.68.35-.67.35-.68.35-.67.36-.67.36-.67.37-.67.37-.67.37-.67.37-.66.38-.67.38-.66.39-.66.39-.66.39-.66.39-.66.4-.65.4-.66.41-.65.4-.66.41-.65.42-.65.42-.65.42-.64.42-.65.43-.65" style="stroke-width:1.07;stroke:#000000;stroke-opacity:0.10;stroke-linecap:butt"/><path d="m279.77 345.31.05-.79.06-.78.06-.79.07-.78.07-.78.08-.78.07-.78.09-.78.09-.78.09-.77.1-.77.1-.77.1-.77.11-.77.12-.76.12-.76.12-.77.13-.76.13-.75.13-.76.14-.76.15-.75.15-.75.15-.75.16-.75.16-.75.17-.74.17-.75.17-.74.18-.74.19-.74.19-.73.19-.74.2-.73.2-.73.2-.73.21-.73.22-.73.22-.72.22-.73.23-.72.23-.72.24-.72.24-.71.24-.72.25-.71.26-.71.25-.71.27-.71.26-.71.28-.7.27-.71.28-.7.29-.7.28-.7.3-.69.29-.7.31-.69.3-.69.31-.69.32-.69.32-.69.32-.68.33-.69.33-.68.34-.68.34-.67.34-.68.35-.68.36-.67.36-.67.36-.67.37-.67.37-.67.38-.66.38-.66.38-.67.39-.66.39-.65.4-.66.4-.65.41-.66.41-.65.42-.65.41-.65.43-.64.43-.65.43-.64.44-.64.44-.64.44-.64.45-.64.46-.63.46-.64.46-.63.47-.63.47-.62.48-.63.48-.63" style="stroke-width:1.07;stroke:#000000;stroke-opacity:0.10;stroke-linecap:butt"/><path d="M279.77 345.31v-.81l.01-.8.01-.81.01-.8.02-.8.03-.8.03-.8.04-.79.04-.79.05-.79.06-.79.06-.79.06-.78.07-.78.08-.78.08-.78.09-.78.09-.77.1-.77.1-.77.11-.77.11-.76.12-.77.13-.76.13-.76.14-.75.14-.76.14-.75.16-.75.16-.75.16-.75.17-.74.17-.74.18-.74.19-.74.19-.74.19-.73.2-.73.21-.73.21-.73.22-.72.23-.73.22-.72.24-.72.24-.72.24-.71.25-.71.26-.71.26-.71.27-.71.27-.7.28-.71.28-.7.29-.69.29-.7.3-.7.31-.69.31-.69.32-.69.32-.68.32-.68.34-.69.33-.68.35-.67.35-.68.35-.67.36-.67.37-.67.37-.67.37-.66.38-.67.39-.66.39-.66.4-.65.4-.66.41-.65.42-.65.42-.65.42-.64.43-.65.44-.64.44-.64.45-.64.45-.63.46-.64.46-.63.47-.63.47-.62.48-.63.49-.62.49-.62.49-.62.5-.62.51-.61.51-.62.52-.61.52-.61.53-.6.54-.61" style="stroke-width:1.07;stroke:#000000;stroke-opacity:0.10;stroke-linecap:butt"/><path d="m279.77 345.31-.05-.83-.05-.83-.04-.82-.04-.82-.02-.82-.02-.82-.02-.81-.01-.81v-.81l.01-.81.01-.8.02-.81.02-.8.03-.79.04-.8.05-.79.05-.79.06-.79.06-.78.07-.78.08-.78.08-.78.09-.77.1-.77.1-.77.11-.77.12-.76.12-.77.13-.76.14-.75.14-.76.15-.75.15-.75.17-.74.17-.75.17-.74.18-.74.19-.74.2-.73.2-.73.21-.73.21-.73.22-.72.23-.72.23-.72.24-.72.25-.71.25-.72.27-.7.26-.71.28-.71.28-.7.28-.7.3-.69.3-.7.3-.69.31-.69.32-.68.33-.69.33-.68.34-.68.35-.68.35-.67.36-.67.36-.67.37-.67.38-.66.39-.66.39-.66.4-.66.4-.65.41-.65.42-.65.42-.65.43-.64.44-.64.44-.64.45-.64.46-.63.46-.63.47-.63.48-.63.48-.62.49-.63.5-.61.5-.62.51-.61.51-.62.53-.6.53-.61.53-.61.54-.6.55-.6.56-.59.56-.6.56-.59.58-.59.58-.58.59-.59m134.39 251.49 1.12-.45 1.12-.45 1.1-.46 1.1-.47 1.1-.48 1.09-.48 1.08-.48 1.08-.5 1.07-.5 1.06-.5 1.06-.52 1.06-.52 1.04-.52 1.04-.54 1.04-.54 1.03-.54 1.02-.55 1.02-.56 1.01-.57 1.01-.57 1-.58 1-.58.98-.59.99-.6.97-.6.97-.61.97-.62.96-.62.95-.63.95-.64.94-.64.93-.65.93-.66.93-.66.91-.67.92-.68.9-.68.9-.69.89-.69.89-.7.88-.71.88-.71.87-.72.87-.73.85-.74.86-.74.84-.74.84-.76.84-.76.83-.76.82-.77.82-.78.81-.79.8-.79.8-.8.8-.8.78-.82.78-.81.78-.83.77-.83.76-.84.76-.84.75-.85.75-.86.74-.86.73-.87.73-.88.72-.88.72-.89.71-.9.71-.9.7-.91.69-.91.68-.92.69-.93.67-.94.67-.94.66-.95.66-.95.65-.96.65-.97.64-.97.63-.98.63-.99.62-.99.62-1 .61-1.01.6-1.01.6-1.02.59-1.02.59-1.04.58-1.03.57-1.05.57-1.05.57-1.06.55-1.06.55-1.07.55-1.08.54-1.09" style="stroke-width:1.07;stroke:#000000;stroke-opacity:0.10;stroke-linecap:butt"/><path d="m440.59 526.84 1.06-.51 1.06-.52 1.05-.52 1.05-.53 1.04-.53 1.04-.54 1.03-.54 1.03-.55 1.02-.55 1.02-.56 1.01-.57 1.01-.56 1-.58 1-.58 1-.58.99-.59.98-.6.98-.6.98-.6.97-.61.96-.62.96-.62.96-.63.95-.63.95-.63.94-.65.94-.64.93-.65.93-.66.92-.66.92-.67.92-.67.91-.68.9-.68.9-.69.89-.7.89-.7.89-.7.88-.71.88-.71.87-.72.87-.73.86-.73.85-.73.86-.74.84-.75.85-.75.84-.75.83-.76.83-.77.82-.77.82-.78.82-.78.81-.79.8-.79.8-.8.8-.8.79-.81.78-.81.79-.82.77-.82.78-.83.76-.83.77-.84.75-.84.76-.85.74-.86.75-.86.74-.86.73-.87.73-.88.73-.88.72-.88.71-.89.71-.9.71-.9.7-.91.7-.91.69-.91.68-.93.69-.92.67-.94.68-.93.66-.94.67-.95.66-.96.65-.95.65-.97.64-.97.64-.97.64-.98.63-.98.62-.99.62-1 .62-.99.61-1.01.61-1.01.6-1.01.6-1.03" style="stroke-width:1.07;stroke:#000000;stroke-opacity:0.10;stroke-linecap:butt"/><path d="m440.59 526.84 1.01-.57 1-.58.99-.59.99-.58.99-.6.99-.59.98-.6.98-.6.97-.61.97-.61.97-.61.96-.62.96-.62.96-.63.95-.63.95-.63.95-.64.94-.64.94-.65.93-.65.93-.65.93-.66.93-.66.92-.66.92-.67.91-.68.91-.67.91-.68.9-.69.9-.69.9-.69.89-.69.89-.7.88-.71.89-.71.87-.71.88-.71.87-.72.87-.73.86-.72.86-.73.86-.74.85-.74.85-.74.85-.75.84-.75.84-.75.84-.76.83-.76.83-.77.83-.77.82-.77.82-.78.81-.78.81-.79.81-.79.8-.79.8-.8.8-.8.79-.8.79-.81.79-.82.78-.81.78-.82.78-.83.77-.83.77-.83.76-.83.76-.84.76-.85.76-.85.75-.85.74-.85.75-.86.74-.87.73-.86.74-.87.73-.88.72-.88.73-.88.71-.89.72-.89.71-.89.71-.9.7-.9.71-.91.69-.91.7-.91.69-.92.68-.92.69-.93.68-.93.67-.93.68-.94.67-.94.66-.95.66-.95.66-.95.66-.96" style="stroke-width:1.07;stroke:#000000;stroke-opacity:0.10;stroke-linecap:butt"/><path d="m440.59 526.84.95-.64.94-.64.94-.64.94-.65.93-.65.94-.65.93-.66.93-.65.92-.66.92-.67.93-.66.91-.67.92-.67.91-.67.92-.68.91-.67.9-.69.91-.68.9-.68.9-.69.9-.69.89-.7.89-.69.89-.7.89-.7.89-.71.88-.7.88-.71.88-.71.88-.72.87-.72.87-.71.87-.73.87-.72.86-.73.86-.73.86-.73.86-.74.85-.73.86-.74.85-.75.85-.74.84-.75.84-.75.84-.75.84-.76.84-.76.83-.76.83-.76.83-.77.83-.77.82-.77.82-.77.82-.78.82-.78.82-.78.81-.78.81-.79.8-.79.81-.79.8-.8.8-.79.8-.8.8-.81.79-.8.79-.81.79-.81.79-.81.78-.82.78-.81.78-.83.78-.82.77-.82.77-.83.77-.83.77-.84.77-.83.76-.84.76-.84.76-.85.75-.84.76-.85.75-.85.74-.86.75-.86.74-.86.75-.86.73-.86.74-.87.74-.87.73-.87.73-.88.72-.87.73-.88.72-.89.72-.88.72-.89.71-.89.72-.9" style="stroke-width:1.07;stroke:#000000;stroke-opacity:0.10;stroke-linecap:butt"/><path d="m440.59 526.84.89-.7.89-.71.88-.7.88-.71.89-.71.88-.7.88-.71.88-.72.87-.71.88-.71.87-.72.88-.72.87-.71.87-.72.87-.72.87-.73.87-.72.86-.72.87-.73.86-.73.87-.73.86-.73.86-.73.86-.73.86-.73.86-.74.85-.73.86-.74.85-.74.85-.74.85-.74.85-.74.85-.75.85-.74.85-.75.84-.75.85-.75.84-.75.84-.75.84-.75.84-.76.84-.75.84-.76.83-.76.84-.76.83-.76.83-.76.83-.77.83-.76.83-.77.83-.76.83-.77.82-.77.83-.77.82-.78.82-.77.82-.78.82-.77.82-.78.82-.78.81-.78.82-.78.81-.78.81-.79.81-.78.81-.79.81-.79.81-.79.81-.79.8-.79.81-.79.8-.8.8-.8.8-.79.8-.8.8-.8.79-.8.8-.8.79-.81.8-.8.79-.81.79-.81.79-.81.79-.81.79-.81.78-.81.79-.81.78-.82.79-.82.78-.81.78-.82.78-.82.77-.83.78-.82.78-.82.77-.83.77-.83.78-.83.77-.83" style="stroke-width:1.07;stroke:#000000;stroke-opacity:0.10;stroke-linecap:butt"/><path d="m440.59 526.84.83-.77.83-.76.83-.77.83-.76.83-.77.83-.77.83-.76.82-.77.83-.76.83-.77.83-.77.83-.76.83-.77.83-.77.83-.76.83-.77.82-.76.83-.77.83-.77.83-.76.83-.77.83-.76.83-.77.83-.77.82-.76.83-.77.83-.76.83-.77.83-.77.83-.76.83-.77.83-.77.83-.76.82-.77.83-.76.83-.77.83-.77.83-.76.83-.77.83-.76.83-.77.82-.77.83-.76.83-.77.83-.76.83-.77.83-.77.83-.76.83-.77.83-.77.82-.76.83-.77.83-.76.83-.77.83-.77.83-.76.83-.77.83-.76.82-.77.83-.77.83-.76.83-.77.83-.76.83-.77.83-.77.83-.76.83-.77.82-.77.83-.76.83-.77.83-.76.83-.77.83-.77.83-.76.83-.77.82-.76.83-.77.83-.77.83-.76.83-.77.83-.77.83-.76.83-.77.83-.76.82-.77.83-.77.83-.76.83-.77.83-.76.83-.77.83-.77.83-.76.82-.77.83-.76.83-.77.83-.77.83-.76.83-.77.83-.77" style="stroke-width:1.07;stroke:#000000;stroke-opacity:0.10;stroke-linecap:butt"/><path d="m440.59 526.84.78-.83.77-.83.77-.82.77-.83.78-.82.78-.83.78-.82.77-.82.78-.82.79-.82.78-.81.78-.82.79-.81.78-.82.79-.81.79-.81.79-.81.79-.81.79-.8.8-.81.79-.8.8-.8.79-.8.8-.8.8-.8.8-.8.8-.8.81-.79.8-.79.81-.8.8-.79.81-.79.81-.78.81-.79.81-.79.81-.78.81-.78.82-.79.81-.78.82-.77.82-.78.82-.78.82-.77.82-.78.82-.77.83-.77.82-.77.83-.77.83-.77.83-.76.83-.77.83-.76.83-.76.83-.77.84-.76.83-.75.84-.76.84-.76.84-.75.84-.75.84-.76.84-.75.85-.75.84-.74.85-.75.85-.75.85-.74.85-.74.85-.74.85-.74.86-.74.85-.74.86-.74.85-.73.86-.74.86-.73.86-.73.86-.73.87-.73.86-.72.87-.73.86-.73.87-.72.87-.72.87-.72.87-.72.87-.72.88-.72.87-.71.88-.72.88-.71.87-.71.88-.71.89-.71.88-.71.88-.7.89-.71.88-.7.89-.71" style="stroke-width:1.07;stroke:#000000;stroke-opacity:0.10;stroke-linecap:butt"/><path d="m440.59 526.84.72-.89.71-.89.72-.89.72-.89.72-.88.73-.88.72-.88.73-.87.74-.88.73-.86.74-.87.74-.87.74-.86.74-.86.75-.86.75-.85.75-.85.75-.85.75-.85.76-.84.76-.84.77-.84.76-.84.77-.83.77-.83.77-.83.77-.83.78-.82.78-.82.78-.82.79-.81.78-.82.79-.81.79-.8.79-.81.8-.8.8-.8.8-.8.8-.79.81-.8.8-.78.81-.79.82-.79.81-.78.82-.78.82-.77.82-.78.82-.77.83-.77.83-.76.83-.77.83-.76.84-.76.84-.75.84-.75.84-.76.85-.74.84-.75.85-.74.86-.74.85-.74.86-.73.86-.74.86-.73.86-.72.87-.73.87-.72.87-.72.88-.72.87-.71.88-.71.88-.71.88-.71.89-.7.89-.7.89-.7.89-.7.9-.69.89-.69.9-.69.9-.69.91-.68.91-.68.91-.68.91-.67.91-.68.92-.67.92-.66.92-.67.92-.66.93-.66.92-.66.93-.65.94-.65.93-.65.94-.65.94-.64.94-.65.95-.64" style="stroke-width:1.07;stroke:#000000;stroke-opacity:0.10;stroke-linecap:butt"/><path d="m440.59 526.84.66-.96.66-.95.66-.95.67-.94.66-.94.68-.94.67-.94.68-.92.69-.93.68-.92.69-.92.7-.91.7-.91.7-.91.7-.9.71-.9.71-.9.72-.89.72-.88.72-.89.72-.87.73-.88.74-.87.73-.87.74-.86.75-.86.74-.86.76-.85.75-.85.76-.84.76-.84.76-.84.77-.83.77-.83.78-.82.78-.82.78-.82.79-.81.79-.81.79-.81.8-.8.8-.79.8-.8.81-.79.81-.78.82-.78.81-.78.83-.78.82-.77.83-.76.83-.76.84-.76.84-.76.84-.75.85-.74.85-.75.85-.74.86-.73.86-.73.86-.73.87-.72.87-.72.88-.72.88-.71.88-.71.88-.7.89-.7.9-.7.89-.69.9-.69.9-.68.91-.68.91-.68.92-.67.91-.67.92-.67.93-.66.93-.65.93-.66.93-.65.94-.64.95-.64.94-.64.95-.63.95-.63.96-.63.96-.62.96-.62.97-.62.97-.61.98-.6.97-.61.98-.59.99-.6.99-.59.99-.59 1-.58.99-.58 1.01-.58" style="stroke-width:1.07;stroke:#000000;stroke-opacity:0.10;stroke-linecap:butt"/><path d="m440.59 526.84.6-1.02.6-1.01.61-1.01.61-1.01.62-1 .62-.99.62-.99.63-.99.64-.98.64-.97.64-.97.65-.96.66-.96.65-.95.67-.95.67-.94.67-.94.68-.93.68-.93.68-.92.7-.92.69-.91.7-.9.71-.91.71-.89.72-.89.72-.89.72-.88.73-.87.73-.87.74-.87.75-.86.75-.85.75-.85.76-.84.76-.84.77-.84.77-.82.78-.83.78-.82.78-.81.79-.81.8-.8.8-.8.81-.79.81-.78.81-.79.82-.77.82-.77.83-.77.84-.76.83-.76.85-.75.84-.74.86-.74.85-.74.87-.73.86-.72.87-.72.88-.72.88-.71.89-.7.89-.7.89-.69.9-.69.91-.68.91-.68.91-.67.92-.67.92-.66.93-.66.93-.65.94-.65.94-.64.95-.64.95-.63.96-.62.96-.63.96-.61.98-.61.97-.61.98-.6.99-.59.99-.59.99-.59 1-.58 1-.57 1.01-.57 1.01-.56 1.02-.56 1.03-.55 1.02-.55 1.03-.55 1.04-.53 1.04-.54 1.05-.52 1.05-.53 1.06-.51 1.06-.52" style="stroke-width:1.07;stroke:#000000;stroke-opacity:0.10;stroke-linecap:butt"/><path d="m440.59 526.84.54-1.08.55-1.08.55-1.07.56-1.07.56-1.05.57-1.06.57-1.04.58-1.04.59-1.03.59-1.03.6-1.02.6-1.01.61-1 .62-1 .62-1 .63-.98.63-.98.64-.98.65-.96.65-.96.66-.96.66-.95.67-.94.68-.93.68-.93.68-.92.7-.92.7-.91.7-.9.71-.89.72-.89.72-.89.73-.87.73-.87.74-.87.75-.85.75-.85.76-.85.76-.84.77-.83.78-.82.78-.82.79-.81.79-.81.8-.79.8-.8.81-.78.82-.78.82-.77.83-.77.84-.76.84-.75.85-.75.85-.74.86-.73.86-.73.87-.72.88-.71.88-.71.89-.7.89-.7.9-.69.91-.68.91-.67.92-.67.92-.67.93-.65.93-.65.94-.64.95-.64.95-.63.96-.62.97-.62.97-.61.98-.6.98-.6.99-.59.99-.59 1-.58 1.01-.57 1.01-.56 1.02-.56 1.02-.55 1.03-.55 1.04-.54 1.04-.53 1.05-.53 1.05-.52 1.06-.51 1.06-.51 1.08-.5 1.07-.49 1.09-.49 1.08-.48 1.1-.47 1.1-.47 1.11-.46 1.11-.46 1.12-.45" style="stroke-width:1.07;stroke:#000000;stroke-opacity:0.10;stroke-linecap:butt"/><path d="m171.45 361.17 1.91 3.32h-3.82zm230.67 33.17 8.47 14.68h-16.95zm3.28-125.89 6.55 11.35h-13.1zm-16.18-110.99 1.92 3.32h-3.83zM264.67 139.2l1.91 3.31h-3.82zm-68.39 100.05 4.85 8.4h-9.69z" style="stroke-width:0.71;stroke:none;fill:#00BA38"/><path d="M273.99 351.09h11.56v-11.56h-11.56zM434.3 533.13h12.59v-12.58H434.3z" style="stroke-width:0.71;stroke:none;fill:#619CFF"/><circle cx="306.2" cy="275.35" r="6.76" style="stroke-width:0.71;stroke:none;fill:#F8766D"/><path d="M51.93 414.48h2.84v-2.85h-2.84z" style="stroke-width:0.71;stroke:none;fill:#619CFF"/><circle cx="522.65" cy="450.99" r="6.04" style="stroke-width:0.71;stroke:none;fill:#F8766D"/><path d="m166.3 368.03 4.36-3.93m236.82 35.39-4.56 3.94m-2.88-122.79 4.55-3.92m-20.72-112.43 4.54-3.92m-119.78-26.4-3.46 6.5m-63.48 99.71-4.6 3.97m88.03 96.54-4.54 3.92m155.13 185.57 4-2.74M300.85 279.97l4.54-3.92M58.21 410.36l-3.92 2.18m463.62 38.45h3.67" style="stroke-width:0.53;stroke:#BFBFBF"/><path d="M136.18 379.15h45.64-.09l.35-.02.34-.07.33-.12.3-.17.27-.22.23-.26.18-.3.14-.32.08-.33.03-.35v-6.8l-.03-.34-.08-.34-.14-.32-.18-.29-.23-.26-.27-.22-.3-.18-.33-.12-.34-.07-.26-.02h-45.64l.26.02-.35-.01-.35.04-.33.09-.31.15-.29.2-.25.24-.21.28-.16.31-.11.33-.06.34v6.97-.17.34l.06.35.11.33.16.3.21.28.25.24.29.2.31.15.33.1.35.04z" style="stroke-width:0.53;fill:#FFFFFF;fill-opacity:0.50"/><text x="159" y="375.55" lengthAdjust="spacingAndGlyphs" style="font-size:5.69px;font-family:&quot;Liberation Sans&quot;" text-anchor="middle" textLength="42.77">PB REALTY LLC</text><path d="M385.6 399.49h67.87-.09l.35-.01.34-.07.32-.12.31-.18.26-.22.24-.26.18-.29.14-.32.08-.34.03-.35v-14.99l-.03-.34-.08-.34-.14-.32-.18-.29-.24-.27-.26-.21-.31-.18-.32-.12-.34-.07-.26-.02H385.6l.26.02-.34-.02-.35.05-.33.09-.32.15-.28.2-.25.24-.21.28-.16.31-.11.33-.06.34-.01.17v14.99l.01-.17v.35l.06.34.11.33.16.31.21.28.25.24.28.19.32.15.33.1.35.04z" style="stroke-width:0.53;fill:#FFFFFF;fill-opacity:0.50"/><text x="419.54" y="387.7" lengthAdjust="spacingAndGlyphs" style="font-size:5.69px;font-family:&quot;Liberation Sans&quot;" text-anchor="middle" textLength="64.98">MM ELITE PROPERTIES</text><text x="419.54" y="395.89" lengthAdjust="spacingAndGlyphs" style="font-size:5.69px;font-family:&quot;Liberation Sans&quot;" text-anchor="middle" textLength="10.42">LLC</text><path d="M356.63 299.95h62.74-.09l.35-.01.34-.07.32-.12.31-.18.26-.22.24-.26.18-.29.14-.32.08-.34.03-.35V282.8l-.03-.34-.08-.34-.14-.32-.18-.29-.24-.26-.26-.22-.31-.18-.32-.12-.34-.07-.26-.02h-62.74l.26.02-.35-.01-.34.04-.34.09-.31.15-.29.2-.25.24-.21.28-.16.31-.11.33-.05.34-.01.17v14.99l.01-.17v.35l.05.34.11.33.16.31.21.28.25.24.29.2.31.14.34.1.34.04z" style="stroke-width:0.53;fill:#FFFFFF;fill-opacity:0.50"/><text x="388" y="288.16" lengthAdjust="spacingAndGlyphs" style="font-size:5.69px;font-family:&quot;Liberation Sans&quot;" text-anchor="middle" textLength="59.86">PANJAB PROPERTIES</text><text x="388" y="296.35" lengthAdjust="spacingAndGlyphs" style="font-size:5.69px;font-family:&quot;Liberation Sans&quot;" text-anchor="middle" textLength="10.42">LLC</text><path d="M346.13 183.6h51.45-.09l.35-.01.34-.07.32-.12.3-.18.27-.22.23-.26.19-.29.14-.32.08-.34.03-.35v-14.99l-.03-.34-.08-.34-.14-.32-.19-.29-.23-.26-.27-.22-.3-.18-.32-.12-.34-.07-.26-.02h-51.45l.27.02-.35-.01-.35.04-.33.09-.32.15-.28.2-.25.24-.21.28-.16.31-.11.33-.06.34-.01.17v14.99l.01-.17v.35l.06.34.11.33.16.31.21.28.25.24.28.2.32.14.33.1.35.04z" style="stroke-width:0.53;fill:#FFFFFF;fill-opacity:0.50"/><text x="371.86" y="171.81" lengthAdjust="spacingAndGlyphs" style="font-size:5.69px;font-family:&quot;Liberation Sans&quot;" text-anchor="middle" textLength="43.92">SINGH &amp; SIFIGH</text><text x="371.86" y="180" lengthAdjust="spacingAndGlyphs" style="font-size:5.69px;font-family:&quot;Liberation Sans&quot;" text-anchor="middle" textLength="48.56">PROPERTIES LLC</text><path d="M270.79 136.89h70.94-.08l.34-.02.35-.07.32-.12.3-.17.27-.22.23-.26.19-.3.13-.32.09-.33.02-.35v-6.8l-.02-.34-.09-.34-.13-.32-.19-.3-.23-.26-.27-.22-.3-.17-.32-.12-.35-.07-.26-.02h-70.94l.26.02-.35-.02-.34.05-.33.09-.32.15-.28.2-.26.24-.2.28-.17.31-.11.33-.05.34-.01.17v6.8l.01-.17v.34l.05.35.11.33.17.3.2.28.26.24.28.2.32.15.33.1.34.04z" style="stroke-width:0.53;fill:#FFFFFF;fill-opacity:0.50"/><text x="306.26" y="133.29" lengthAdjust="spacingAndGlyphs" style="font-size:5.69px;font-family:&quot;Liberation Sans&quot;" text-anchor="middle" textLength="68.06">PANJAB PROPRTIES LLC</text><path d="M188 240.18h51.44l-.09-.01.35-.01.34-.07.33-.12.3-.18.27-.22.23-.26.18-.29.14-.32.08-.34.03-.34v-14.99l-.03-.35-.08-.34-.14-.32-.18-.29-.23-.26-.27-.22-.3-.18-.33-.12-.34-.07-.26-.01H188l.26.01-.35-.01-.35.04-.33.1-.31.14-.29.2-.25.24-.21.28-.16.31-.11.33-.06.34v15.17-.18.35l.06.34.11.33.16.31.21.28.25.24.29.2.31.15.33.09.35.04z" style="stroke-width:0.53;fill:#FFFFFF;fill-opacity:0.50"/><text x="213.72" y="228.38" lengthAdjust="spacingAndGlyphs" style="font-size:5.69px;font-family:&quot;Liberation Sans&quot;" text-anchor="middle" textLength="42.98">SINGH &amp; SINGH</text><text x="213.72" y="236.58" lengthAdjust="spacingAndGlyphs" style="font-size:5.69px;font-family:&quot;Liberation Sans&quot;" text-anchor="middle" textLength="48.56">PROPERTIES LLC</text><path d="M267.91 340.69h58.47-.09l.35-.01.34-.07.33-.13.3-.17.27-.22.23-.26.18-.29.14-.32.08-.34.03-.35v-14.99l-.03-.35-.08-.33-.14-.32-.18-.3-.23-.26-.27-.22-.3-.17-.33-.12-.34-.07-.26-.02h-58.47l.26.02-.35-.02-.34.04-.34.1-.31.15-.29.2-.25.24-.21.28-.16.3-.11.33-.05.35-.01.17v14.99l.01-.17v.35l.05.34.11.33.16.31.21.27.25.24.29.2.31.15.34.1.34.04z" style="stroke-width:0.53;fill:#FFFFFF;fill-opacity:0.50"/><text x="297.15" y="328.9" lengthAdjust="spacingAndGlyphs" style="font-size:5.69px;font-family:&quot;Liberation Sans&quot;" text-anchor="middle" textLength="48.75">4005 W DORY DR,</text><text x="297.15" y="337.09" lengthAdjust="spacingAndGlyphs" style="font-size:5.69px;font-family:&quot;Liberation Sans&quot;" text-anchor="middle" textLength="55.59">FRANKLIN, WI 53132</text><path d="M366.54 542.51h67.01-.09l.35-.01.34-.07.32-.13.3-.17.27-.22.23-.26.19-.29.14-.32.08-.34.03-.35v-14.99l-.03-.35-.08-.33-.14-.32-.19-.3-.23-.26-.27-.22-.3-.17-.32-.12-.34-.07-.26-.02h-67.01l.26.02-.34-.02-.35.04-.33.1-.32.15-.28.2-.25.24-.21.28-.16.3-.11.33-.06.35-.01.17v14.99l.01-.17v.35l.06.34.11.33.16.31.21.27.25.25.28.19.32.15.33.1.35.04z" style="stroke-width:0.53;fill:#FFFFFF;fill-opacity:0.50"/><text x="400.05" y="530.72" lengthAdjust="spacingAndGlyphs" style="font-size:5.69px;font-family:&quot;Liberation Sans&quot;" text-anchor="middle" textLength="63.2">1245 BRANDYWINE LN,</text><text x="400.05" y="538.91" lengthAdjust="spacingAndGlyphs" style="font-size:5.69px;font-family:&quot;Liberation Sans&quot;" text-anchor="middle" textLength="64.12">BROOKFIELD, WI 53045</text><path d="M259.6 299.28h58.47-.09l.35-.02.34-.07.33-.12.3-.17.27-.22.23-.26.18-.3.14-.32.08-.33.03-.35v-14.99l-.03-.35-.08-.34-.14-.31-.18-.3-.23-.26-.27-.22-.3-.17-.33-.13-.34-.07-.26-.01H259.6l.26.01-.35-.01-.35.04-.33.1-.31.15-.29.2-.25.24-.21.27-.16.31-.11.33-.06.35v15.16-.17.34l.06.35.11.33.16.3.21.28.25.24.29.2.31.15.33.1.35.04z" style="stroke-width:0.53;fill:#FFFFFF;fill-opacity:0.50"/><text x="288.83" y="287.49" lengthAdjust="spacingAndGlyphs" style="font-size:5.69px;font-family:&quot;Liberation Sans&quot;" text-anchor="middle" textLength="48.75">4005 W DORY DR,</text><text x="288.83" y="295.68" lengthAdjust="spacingAndGlyphs" style="font-size:5.69px;font-family:&quot;Liberation Sans&quot;" text-anchor="middle" textLength="55.59">FRANKLIN, WI 53132</text><path d="M60.37 419.06h58.47l-.09-.01.35-.01.34-.07.33-.12.3-.18.27-.22.23-.26.18-.29.14-.32.08-.34.03-.34v-15l-.03-.34-.08-.34-.14-.32-.18-.29-.23-.26-.27-.22-.3-.18-.33-.12-.34-.07-.26-.02H60.37l.26.02-.35-.01-.34.04-.34.09-.31.15-.29.2-.25.24-.21.28-.16.31-.11.33-.06.34v15.17-.18.35l.06.34.11.33.16.31.21.28.25.24.29.2.31.15.34.09.34.04z" style="stroke-width:0.53;fill:#FFFFFF;fill-opacity:0.50"/><text x="89.6" y="407.26" lengthAdjust="spacingAndGlyphs" style="font-size:5.69px;font-family:&quot;Liberation Sans&quot;" text-anchor="middle" textLength="41.8">4005 DORY DR,</text><text x="89.6" y="415.46" lengthAdjust="spacingAndGlyphs" style="font-size:5.69px;font-family:&quot;Liberation Sans&quot;" text-anchor="middle" textLength="55.59">FRANKLIN, WI 53132</text><path d="M448.75 460.65h67l-.09-.01.35-.01.34-.07.33-.12.3-.18.27-.22.23-.26.18-.29.14-.32.08-.34.03-.34v-15l-.03-.34-.08-.34-.14-.32-.18-.29-.23-.26-.27-.22-.3-.18-.33-.12-.34-.07-.26-.02h-67l.26.02-.35-.01-.35.04-.33.1-.31.14-.29.2-.25.24-.21.28-.16.31-.11.33-.06.34v15.17-.18.35l.06.34.11.33.16.31.21.28.25.24.29.2.31.15.33.09.35.04z" style="stroke-width:0.53;fill:#FFFFFF;fill-opacity:0.50"/><text x="482.25" y="448.85" lengthAdjust="spacingAndGlyphs" style="font-size:5.69px;font-family:&quot;Liberation Sans&quot;" text-anchor="middle" textLength="63.2">1245 BRANDYWINE LN,</text><text x="482.25" y="457.05" lengthAdjust="spacingAndGlyphs" style="font-size:5.69px;font-family:&quot;Liberation Sans&quot;" text-anchor="middle" textLength="64.12">BROOKFIELD, WI 53045</text></g><g clip-path="url(#cpMC4wMHw1NzYuMDB8MC4wMHw1NzYuMDA=)"><circle cx="192.83" cy="97.06" r="1.95" style="stroke-width:0.71;stroke:none;fill:#F8766D"/><path d="m269.23 94.02 2.63 4.56h-5.26z" style="stroke-width:0.71;stroke:none;fill:#00BA38"/><path d="M335.23 99.01h3.91V95.1h-3.91z" style="stroke-width:0.71;stroke:none;fill:#619CFF"/><text x="206.95" y="100.22" lengthAdjust="spacingAndGlyphs" style="font-size:8.80px;font-weight:0;font-family:&quot;Nimbus Sans Narrow&quot;" textLength="48.16">mprop address</text><text x="283.35" y="100.22" lengthAdjust="spacingAndGlyphs" style="font-size:8.80px;font-weight:0;font-family:&quot;Nimbus Sans Narrow&quot;" textLength="39.72">owner name</text><text x="351.31" y="100.22" lengthAdjust="spacingAndGlyphs" style="font-size:8.80px;font-weight:0;font-family:&quot;Nimbus Sans Narrow&quot;" textLength="40.5">wdfi address</text><text x="29.89" y="65.35" lengthAdjust="spacingAndGlyphs" style="font-size:12.00px;font-weight:0;font-family:&quot;Nimbus Sans Narrow&quot;" textLength="252.11">includes 23 parcels, 60 units, and 6 distinct owner names.</text><text x="29.89" y="42.81" lengthAdjust="spacingAndGlyphs" style="font-size:18.00px;font-weight:0;font-family:&quot;Nimbus Sans Narrow&quot;" textLength="276.38">MM ELITE PROPERTIES LLC etc Group</text></g></g></svg>