<svg xmlns="http://www.w3.org/2000/svg" width="768" height="768" class="svglite" viewBox="0 0 576 576"><defs><style>.svglite circle,.svglite line,.svglite polygon,.svglite polyline,.svglite rect{fill:none;stroke:#000;stroke-linecap:round;stroke-linejoin:round;stroke-miterlimit:10}.svglite text{white-space:pre}</style></defs><rect width="100%" height="100%" style="stroke:none;fill:#fff"/><defs><clipPath id="cpMC4wMHw1NzYuMDB8MC4wMHw1NzYuMDA="><path d="M0 0h576v576H0z"/></clipPath></defs><g clip-path="url(#cpMC4wMHw1NzYuMDB8MC4wMHw1NzYuMDA=)"><path d="M0 0h576v576H0z" style="stroke-width:1.07;stroke:none;fill:#fff"/></g><defs><clipPath id="cpMzIuNjN8NTQ2LjExfDEyMC44Nnw1NDMuMzc="><path d="M32.63 120.86h513.48v422.51H32.63z"/></clipPath></defs><g clip-path="url(#cpMzIuNjN8NTQ2LjExfDEyMC44Nnw1NDMuMzc=)"><path d="m175.71 397.02 1.32-.52 1.32-.53 1.31-.53 1.31-.55 1.3-.55 1.3-.57 1.29-.57 1.28-.58 1.28-.6 1.28-.6 1.27-.61 1.26-.62 1.26-.63 1.25-.64 1.24-.64 1.24-.66 1.24-.67 1.23-.67 1.22-.68 1.22-.7 1.21-.7 1.21-.71 1.2-.72 1.2-.73 1.19-.74 1.19-.75 1.18-.76 1.17-.77 1.17-.77 1.16-.79 1.16-.8 1.15-.8 1.15-.81 1.14-.83 1.13-.83 1.13-.84 1.13-.85 1.12-.86 1.11-.87 1.11-.87 1.1-.89 1.1-.9 1.09-.9 1.08-.92 1.08-.92 1.08-.93 1.07-.95 1.06-.95 1.06-.96 1.05-.97 1.05-.98 1.04-.99 1.04-.99 1.03-1.01 1.02-1.02 1.02-1.02 1.01-1.04 1.01-1.04 1-1.05 1-1.07.99-1.07.99-1.08.98-1.09.97-1.1.97-1.11.97-1.11.95-1.13.96-1.14.94-1.14.95-1.16.93-1.16.93-1.17.93-1.18.92-1.19.91-1.21.91-1.2.9-1.22.9-1.23.89-1.24.89-1.25.88-1.25.87-1.27.87-1.27.87-1.28.86-1.3.85-1.3.85-1.31.84-1.32.84-1.33.83-1.34.82-1.35.82-1.35.82-1.37.8-1.38.81-1.38.8-1.39.79-1.41.78-1.41.79-1.42M175.71 397.02l-.95-.83-.95-.82-.96-.81-.96-.79-.96-.79-.96-.77-.96-.76-.96-.75-.97-.74-.97-.72-.97-.71-.97-.71-.97-.69-.98-.67-.98-.67-.97-.66-.99-.64-.98-.63-.98-.62-.99-.61-.99-.59-.99-.59-.99-.57-1-.56-.99-.55-1-.54-1-.52-1-.52-1.01-.5-1-.49-1.01-.48-1.01-.46-1.01-.46-1.01-.44-1.02-.43-1.01-.42-1.02-.41-1.02-.4-1.03-.38-1.02-.38-1.03-.36-1.02-.35-1.03-.33-1.04-.33-1.03-.31-1.03-.31-1.04-.29-1.04-.28-1.04-.26-1.05-.26-1.04-.24-1.05-.23-1.05-.22-1.05-.21-1.05-.2-1.05-.18-1.06-.18-1.06-.16-1.06-.15-1.06-.14-1.06-.12-1.07-.12-1.07-.1-1.06-.09-1.08-.08-1.07-.07-1.07-.05-1.08-.05-1.08-.03-1.08-.02-1.08-.01h-1.09l-1.08.02-1.09.03-1.09.03-1.09.05-1.1.07-1.09.07-1.1.08-1.1.1-1.1.11-1.1.12-1.11.13-1.1.15-1.11.15-1.11.17-1.11.18-1.12.19-1.11.2-1.12.22-1.12.22-1.12.24-1.13.25-1.12.26-1.13.27-1.13.29-1.13.3-1.13.3-1.14.33" style="stroke-width:1.07;stroke:#000;stroke-opacity:.1;stroke-linecap:butt"/><path d="m175.71 397.02 1.25-.65 1.24-.65 1.24-.66 1.23-.67 1.23-.67 1.23-.68 1.22-.69 1.22-.69 1.21-.7 1.21-.71 1.21-.71 1.2-.72 1.2-.73 1.2-.73 1.19-.74 1.18-.75 1.19-.75 1.18-.76 1.17-.77 1.17-.77 1.17-.78 1.16-.78 1.16-.8 1.16-.79 1.15-.81 1.14-.81 1.15-.82 1.14-.83 1.13-.83 1.13-.84 1.13-.84 1.13-.85 1.11-.86 1.12-.87 1.11-.87 1.11-.87 1.1-.89 1.1-.89 1.1-.9 1.09-.9 1.09-.91 1.08-.92 1.08-.92 1.08-.93 1.07-.94 1.07-.94 1.06-.95 1.06-.96 1.06-.97 1.05-.97 1.05-.97 1.05-.99 1.04-.98 1.03-1 1.04-1 1.02-1.01 1.03-1.02 1.02-1.02 1.02-1.03 1.01-1.04 1.01-1.04 1-1.05 1-1.05 1-1.07.99-1.07.99-1.07.99-1.08.98-1.09.98-1.1.97-1.1.97-1.11.97-1.11.96-1.12.95-1.13.96-1.14.95-1.14.94-1.14.94-1.16.94-1.16.94-1.17.93-1.17.92-1.18.92-1.19.92-1.19.92-1.2.91-1.21.9-1.21.9-1.22.9-1.23.9-1.23.89-1.24.88-1.25.88-1.25.88-1.26.88-1.27.87-1.27.86-1.28.87-1.29.86-1.29M175.71 397.02l-.97-.7-.98-.7-.97-.68-.98-.68-.97-.66-.98-.66-.98-.65-.98-.64-.99-.63-.98-.62-.99-.61-.99-.6-.98-.6-1-.58-.99-.58-.99-.56-1-.56-.99-.55-1-.54-1-.53-1-.52-1-.51-1.01-.5-1-.49-1.01-.49-1.01-.47-1.01-.47-1.01-.45-1.01-.45-1.01-.44-1.02-.43-1.01-.42-1.02-.41-1.02-.4-1.02-.39-1.03-.38-1.02-.38-1.03-.36-1.02-.36-1.03-.35-1.03-.33-1.03-.33-1.04-.32-1.03-.31-1.04-.3-1.03-.29-1.04-.29-1.04-.27-1.04-.27-1.05-.25-1.04-.25-1.05-.23-1.04-.23-1.05-.22-1.05-.21-1.05-.2-1.06-.19-1.05-.19-1.06-.17-1.06-.16-1.05-.16-1.07-.14-1.06-.14-1.06-.13-1.07-.12-1.06-.11-1.07-.1-1.07-.09-1.07-.08-1.07-.07-1.08-.06-1.07-.06-1.08-.04-1.08-.04-1.07-.03-1.09-.02h-2.16l-1.09.01-1.08.01-1.09.03-1.09.04-1.09.05-1.1.05-1.09.07-1.09.07-1.1.08-1.1.09-1.1.1-1.1.11-1.1.12-1.11.13-1.1.14-1.11.15-1.11.15-1.11.17-1.11.17-1.11.18-1.12.2M175.71 397.02l-1.21 1.02-1.21 1.02-1.21 1.03-1.21 1.02-1.21 1.02-1.21 1.02-1.21 1.02-1.21 1.03-1.21 1.02-1.21 1.02-1.21 1.02-1.2 1.02-1.21 1.03-1.21 1.02-1.21 1.02-1.21 1.02-1.21 1.02-1.21 1.03-1.21 1.02-1.21 1.02-1.21 1.02-1.21 1.02-1.21 1.03-1.21 1.02-1.21 1.02-1.21 1.02-1.21 1.02-1.21 1.03-1.21 1.02-1.21 1.02-1.21 1.02-1.21 1.02-1.2 1.03-1.21 1.02-1.21 1.02-1.21 1.02-1.21 1.02-1.21 1.03-1.21 1.02-1.21 1.02-1.21 1.02-1.21 1.02-1.21 1.03-1.21 1.02-1.21 1.02-1.21 1.02-1.21 1.02-1.21 1.03-1.21 1.02-1.21 1.02-1.21 1.02-1.21 1.02-1.2 1.03-1.21 1.02-1.21 1.02-1.21 1.02-1.21 1.02-1.21 1.03-1.21 1.02-1.21 1.02-1.21 1.02-1.21 1.02-1.21 1.03-1.21 1.02-1.21 1.02-1.21 1.02-1.21 1.02-1.21 1.03-1.21 1.02-1.21 1.02-1.21 1.02-1.21 1.02-1.2 1.03-1.21 1.02-1.21 1.02-1.21 1.02-1.21 1.02-1.21 1.03-1.21 1.02-1.21 1.02-1.21 1.02-1.21 1.02-1.21 1.03-1.21 1.02-1.21 1.02-1.21 1.02-1.21 1.02-1.21 1.03-1.21 1.02-1.21 1.02-1.21 1.02-1.21 1.02-1.21 1.03-1.2 1.02-1.21 1.02-1.21 1.02-1.21 1.02-1.21 1.03-1.21 1.02" style="stroke-width:1.07;stroke:#000;stroke-opacity:.1;stroke-linecap:butt"/><path d="m175.71 397.02-.99-.58-1-.56-.99-.57-.99-.55-1-.55-1-.54-1-.54-1-.53-1-.52-1-.52-1-.51-1-.5-1.01-.5-1-.49-1.01-.48-1.01-.48-1.01-.47-1.01-.46-1.01-.46-1.01-.45-1.01-.45-1.02-.44-1.01-.43-1.02-.42-1.01-.42-1.02-.41-1.02-.41-1.02-.4-1.02-.39-1.02-.39-1.03-.38-1.02-.37-1.03-.36-1.02-.36-1.03-.36-1.03-.34-1.03-.34-1.03-.34-1.03-.33-1.03-.32-1.04-.31-1.03-.31-1.04-.3-1.03-.29-1.04-.29-1.04-.28-1.04-.28-1.04-.27-1.04-.26-1.05-.25-1.04-.25-1.04-.25-1.05-.23-1.05-.23-1.05-.22-1.05-.22-1.05-.21-1.05-.2-1.05-.2-1.05-.19-1.06-.18-1.05-.18-1.06-.17-1.06-.16-1.06-.16-1.06-.15-1.06-.15-1.06-.14-1.06-.13-1.06-.12-1.07-.12-1.07-.11-1.06-.11-1.07-.1-1.07-.09-1.07-.08-1.07-.08-1.07-.08-1.08-.06-1.07-.06-1.08-.05-1.07-.05-1.08-.04-1.08-.03-1.08-.03-1.08-.02-1.08-.02h-3.25l-1.09.01-1.08.02-1.09.03-1.09.03-1.09.04-1.09.04-1.09.05-1.09.06-1.1.07M175.71 397.02l1.17-.78 1.16-.78 1.17-.78 1.16-.79 1.16-.79 1.16-.8 1.15-.8 1.15-.8 1.15-.81 1.15-.81 1.14-.82 1.15-.82 1.14-.82 1.13-.83 1.14-.83 1.13-.84 1.13-.84 1.13-.84 1.13-.85 1.12-.85 1.12-.85 1.12-.86 1.12-.87 1.11-.87 1.11-.87 1.11-.87 1.11-.88 1.1-.88 1.11-.89 1.1-.89 1.09-.9 1.1-.9 1.09-.9 1.09-.91 1.09-.91 1.09-.91 1.08-.92 1.08-.92 1.08-.93 1.07-.93 1.08-.93 1.07-.94 1.07-.94 1.07-.95 1.06-.95 1.06-.96 1.06-.95 1.06-.97 1.05-.96 1.06-.97 1.05-.98 1.04-.97 1.05-.99 1.04-.98 1.04-.99 1.04-.99 1.04-1 1.03-1 1.03-1.01 1.03-1.01 1.02-1.01 1.03-1.02 1.02-1.02 1.02-1.03 1.02-1.03 1.01-1.03 1.01-1.04 1.01-1.04 1.01-1.04 1-1.05 1.01-1.05 1-1.06 1-1.06.99-1.07.99-1.07.99-1.07.99-1.07.99-1.09.98-1.08.98-1.09.98-1.09.98-1.1.97-1.1.97-1.1.97-1.11.97-1.11.97-1.12.96-1.12.96-1.12.95-1.13.96-1.13.95-1.14.95-1.14.95-1.14.95-1.15.94-1.15.94-1.16.94-1.16.94-1.16" style="stroke-width:1.07;stroke:#000;stroke-opacity:.1;stroke-linecap:butt"/><path d="m175.71 397.02-1.01-.45-1.02-.44-1.01-.44-1.01-.44-1.02-.43-1.01-.42-1.02-.43-1.02-.42-1.01-.41-1.02-.42-1.02-.4-1.02-.41-1.02-.4-1.02-.4-1.02-.39-1.02-.39-1.03-.38-1.02-.38-1.02-.38-1.03-.37-1.02-.37-1.03-.37-1.02-.36-1.03-.35-1.03-.36-1.03-.35-1.02-.34-1.03-.34-1.03-.34-1.03-.33-1.04-.33-1.03-.33-1.03-.32-1.03-.32-1.04-.31-1.03-.31-1.04-.31-1.03-.3-1.04-.3-1.03-.3-1.04-.29-1.04-.28-1.04-.29-1.04-.28-1.04-.27-1.04-.27-1.04-.27-1.04-.26-1.04-.26-1.05-.26-1.04-.25-1.04-.25-1.05-.24-1.04-.24-1.05-.23-1.05-.24-1.04-.22-1.05-.23-1.05-.22-1.05-.22-1.05-.21-1.05-.21-1.05-.2-1.05-.2-1.06-.2-1.05-.19-1.05-.19-1.06-.18-1.05-.19-1.06-.17-1.05-.18-1.06-.16-1.06-.17-1.06-.16-1.05-.16-1.06-.15-1.06-.15-1.06-.15-1.07-.14-1.06-.14-1.06-.13-1.06-.13-1.07-.13-1.06-.12-1.07-.12-1.06-.11-1.07-.11-1.06-.11-1.07-.1-1.07-.1-1.07-.1-1.07-.09-1.07-.08-1.07-.09-1.07-.08-1.07-.07-1.07-.07-1.08-.07-1.07-.06M404.24 337.15l-1.24-.44-1.24-.44-1.24-.44-1.24-.44-1.25-.44-1.24-.43-1.24-.43-1.25-.43-1.24-.43-1.24-.43-1.25-.43-1.24-.42-1.25-.43-1.24-.42-1.25-.42-1.25-.42-1.24-.42-1.25-.41-1.25-.41-1.24-.42-1.25-.41-1.25-.41-1.25-.4-1.24-.41-1.25-.41-1.25-.4-1.25-.4-1.25-.4-1.25-.4-1.25-.39-1.25-.4-1.25-.39-1.25-.4-1.25-.39-1.25-.38-1.26-.39-1.25-.39-1.25-.38-1.25-.38-1.26-.39-1.25-.37-1.25-.38-1.26-.38-1.25-.37-1.26-.38-1.25-.37-1.26-.37-1.25-.37-1.26-.36-1.25-.37-1.26-.36-1.26-.36-1.25-.36-1.26-.36-1.26-.36-1.26-.36-1.25-.35-1.26-.35-1.26-.36-1.26-.34-1.26-.35-1.26-.35-1.26-.34-1.26-.35-1.26-.34-1.26-.34-1.26-.34-1.26-.33-1.27-.34-1.26-.33-1.26-.34-1.26-.33-1.26-.33-1.27-.32-1.26-.33-1.27-.32-1.26-.33-1.26-.32-1.27-.32-1.26-.32-1.27-.31-1.26-.32-1.27-.31-1.27-.31-1.26-.31-1.27-.31-1.27-.31-1.26-.3-1.27-.31-1.27-.3-1.27-.3-1.27-.3-1.27-.3-1.26-.29-1.27-.3-1.27-.29-1.27-.29-1.27-.29-1.27-.29M175.71 397.02l1.09-.91 1.09-.9 1.09-.91 1.09-.91 1.09-.91 1.08-.91 1.09-.92 1.09-.91 1.08-.92 1.09-.91 1.08-.92 1.08-.92 1.08-.92 1.08-.93 1.08-.92 1.08-.93 1.08-.92 1.08-.93 1.08-.93 1.07-.93 1.08-.93 1.07-.94 1.08-.93 1.07-.94 1.07-.93 1.07-.94 1.07-.94 1.07-.94 1.07-.94 1.07-.95 1.07-.94 1.06-.95 1.07-.95 1.06-.95 1.07-.95 1.06-.95 1.06-.95 1.07-.95 1.06-.96 1.06-.96 1.06-.95 1.06-.96 1.05-.97 1.06-.96 1.06-.96 1.05-.97 1.06-.96 1.05-.97 1.06-.97 1.05-.97 1.05-.97 1.05-.97 1.05-.98 1.05-.97 1.05-.98 1.05-.98 1.04-.97 1.05-.99 1.04-.98 1.05-.98 1.04-.98 1.04-.99 1.05-.99 1.04-.99 1.04-.99 1.04-.99 1.04-.99 1.04-.99 1.03-1 1.04-.99 1.03-1 1.04-1 1.03-1 1.04-1 1.03-1.01 1.03-1 1.03-1.01 1.03-1 1.03-1.01 1.03-1.01 1.03-1.01 1.03-1.01 1.02-1.02 1.03-1.01 1.02-1.02 1.03-1.01 1.02-1.02 1.02-1.02 1.02-1.03 1.02-1.02 1.02-1.02 1.02-1.03 1.02-1.02 1.02-1.03 1.02-1.03 1.01-1.03 1.02-1.03 1.01-1.04 1.02-1.03" style="stroke-width:1.07;stroke:#000;stroke-opacity:.1;stroke-linecap:butt"/><path d="m175.71 397.02-1.03-.32-1.04-.32-1.03-.31-1.03-.32-1.04-.31-1.03-.32-1.03-.31-1.04-.31-1.03-.31-1.04-.3-1.03-.31-1.04-.31-1.03-.3-1.04-.3-1.03-.3-1.04-.3-1.04-.3-1.03-.3-1.04-.29-1.04-.3-1.03-.29-1.04-.29-1.04-.29-1.04-.29-1.03-.29-1.04-.29-1.04-.28-1.04-.29-1.04-.28-1.04-.28-1.03-.28-1.04-.28-1.04-.28-1.04-.28-1.04-.27-1.04-.27-1.04-.28-1.04-.27-1.04-.27-1.05-.27-1.04-.26-1.04-.27-1.04-.26-1.04-.27-1.04-.26-1.05-.26-1.04-.26-1.04-.26-1.04-.25-1.05-.26-1.04-.25-1.04-.26-1.05-.25-1.04-.25-1.04-.25-1.05-.24-1.04-.25-1.05-.25-1.04-.24-1.05-.24-1.04-.24-1.05-.24-1.04-.24-1.05-.24-1.05-.23-1.04-.24-1.05-.23-1.05-.23-1.04-.23-1.05-.23-1.05-.23-1.05-.23-1.04-.22-1.05-.23-1.05-.22-1.05-.22-1.05-.22-1.05-.22-1.04-.22-1.05-.21-1.05-.22-1.05-.21-1.05-.22-1.05-.21-1.05-.21-1.05-.2-1.05-.21-1.06-.21-1.05-.2-1.05-.2-1.05-.21-1.05-.2-1.05-.2-1.06-.19-1.05-.2-1.05-.2-1.05-.19-1.06-.19-1.05-.19M175.71 397.02l1.01-1.03 1.02-1.04 1.01-1.03 1.02-1.03 1.02-1.03 1.01-1.03 1.02-1.02 1.02-1.03 1.02-1.02 1.02-1.03 1.02-1.02 1.03-1.02 1.02-1.02 1.02-1.01 1.03-1.02 1.02-1.01 1.03-1.02 1.03-1.01 1.02-1.01 1.03-1.01 1.03-1.01 1.03-1.01 1.03-1 1.03-1.01 1.04-1 1.03-1 1.03-1 1.04-1 1.04-1 1.03-.99 1.04-1 1.04-.99 1.04-.99 1.04-1 1.04-.99 1.04-.98 1.04-.99 1.04-.99 1.05-.98 1.04-.98 1.05-.99 1.04-.98 1.05-.98 1.05-.97 1.05-.98 1.04-.98 1.05-.97 1.06-.97 1.05-.97 1.05-.97 1.05-.97 1.06-.97 1.05-.97 1.06-.96 1.05-.96 1.06-.97 1.06-.96 1.06-.96 1.06-.95 1.06-.96 1.06-.96 1.06-.95 1.06-.95 1.07-.96 1.06-.95 1.07-.94 1.06-.95 1.07-.95 1.07-.94 1.06-.95 1.07-.94 1.07-.94 1.07-.94 1.07-.94 1.08-.94 1.07-.93 1.07-.94 1.08-.93 1.07-.93 1.08-.93 1.08-.93 1.07-.93 1.08-.93 1.08-.92 1.08-.92 1.08-.93 1.08-.92 1.09-.92 1.08-.92 1.08-.91 1.09-.92 1.08-.92 1.09-.91 1.09-.91 1.09-.91 1.08-.91 1.09-.91 1.09-.91 1.1-.9M175.71 397.02l-1.05-.19-1.06-.19-1.05-.2-1.05-.19-1.05-.2-1.06-.2-1.05-.2-1.05-.2-1.05-.2-1.05-.2-1.05-.21-1.06-.2-1.05-.21-1.05-.21-1.05-.21-1.05-.21-1.05-.21-1.05-.22-1.05-.21-1.05-.22-1.04-.21-1.05-.22-1.05-.22-1.05-.23-1.05-.22-1.05-.22-1.04-.23-1.05-.22-1.05-.23-1.05-.23-1.04-.23-1.05-.23-1.05-.24-1.04-.23-1.05-.24-1.05-.23-1.04-.24-1.05-.24-1.04-.24-1.05-.25-1.04-.24-1.05-.24-1.04-.25-1.05-.25-1.04-.25-1.04-.25-1.05-.25-1.04-.25-1.04-.26-1.05-.25-1.04-.26-1.04-.26-1.04-.26-1.05-.26-1.04-.26-1.04-.26-1.04-.27-1.04-.26-1.04-.27-1.05-.27-1.04-.27-1.04-.27-1.04-.27-1.04-.27-1.04-.28-1.04-.28-1.04-.27-1.04-.28-1.03-.28-1.04-.28-1.04-.29-1.04-.28-1.04-.29-1.04-.28-1.03-.29-1.04-.29-1.04-.29-1.04-.29-1.03-.3-1.04-.29-1.04-.3-1.03-.29-1.04-.3-1.04-.3-1.03-.3-1.04-.31-1.03-.3-1.04-.3-1.03-.31-1.04-.31-1.03-.31-1.04-.31-1.03-.31-1.03-.31-1.04-.32-1.03-.31-1.03-.32-1.04-.32-1.03-.31M404.24 337.15l-1.27-.29-1.27-.29-1.27-.29-1.27-.29-1.27-.3-1.27-.29-1.27-.3-1.26-.3-1.27-.3-1.27-.3-1.27-.31-1.26-.3-1.27-.31-1.27-.31-1.27-.31-1.26-.31-1.27-.31-1.26-.32-1.27-.32-1.26-.31-1.27-.32-1.26-.32-1.27-.33-1.26-.32-1.26-.33-1.27-.33-1.26-.32-1.26-.34-1.26-.33-1.27-.33-1.26-.34-1.26-.33-1.26-.34-1.26-.34-1.26-.34-1.26-.35-1.26-.34-1.26-.35-1.26-.35-1.26-.35-1.26-.35-1.26-.35-1.26-.35-1.25-.36-1.26-.36-1.26-.36-1.25-.36-1.26-.36-1.26-.36-1.25-.37-1.26-.36-1.25-.37-1.26-.37-1.25-.37-1.26-.38-1.25-.37-1.26-.38-1.25-.38-1.25-.38-1.26-.38-1.25-.38-1.25-.38-1.25-.39-1.26-.39-1.25-.39-1.25-.39-1.25-.39-1.25-.39-1.25-.4-1.25-.39-1.25-.4-1.25-.4-1.25-.4-1.25-.41-1.25-.4-1.25-.41-1.24-.4-1.25-.41-1.25-.41-1.25-.42-1.24-.41-1.25-.42-1.25-.41-1.24-.42-1.25-.42-1.24-.42-1.25-.43-1.24-.42-1.25-.43-1.24-.43-1.24-.43-1.25-.43-1.24-.43-1.24-.44-1.25-.43-1.24-.44-1.24-.44-1.24-.44-1.24-.44" style="stroke-width:1.07;stroke:#000;stroke-opacity:.1;stroke-linecap:butt"/><path d="m175.71 397.02.94-1.16.93-1.16.94-1.16.95-1.15.94-1.15.95-1.14.95-1.14.95-1.14.96-1.13.96-1.13.96-1.12.96-1.12.96-1.12.97-1.11.97-1.11.97-1.1.98-1.1.97-1.1.98-1.09.98-1.09.99-1.09.98-1.08.99-1.07.99-1.08.99-1.06 1-1.07 1-1.06 1-1.06 1-1.05 1-1.05 1.01-1.04 1.01-1.05 1.01-1.03 1.02-1.04 1.02-1.02 1.01-1.03 1.03-1.02 1.02-1.02 1.03-1.01 1.02-1.01 1.04-1.01 1.03-1 1.03-1 1.04-.99 1.04-.99 1.05-.99 1.04-.98 1.05-.98 1.05-.97 1.05-.97 1.06-.97 1.05-.96 1.06-.96 1.06-.95 1.07-.95 1.07-.95 1.06-.94 1.08-.94 1.07-.93 1.08-.93 1.07-.93 1.09-.92 1.08-.92 1.08-.92 1.09-.91 1.09-.9 1.1-.91 1.09-.89 1.1-.9 1.1-.89 1.1-.89 1.1-.88 1.11-.88 1.11-.88 1.11-.87 1.12-.86 1.11-.87 1.12-.86 1.12-.85 1.13-.85 1.12-.85 1.13-.84 1.13-.84 1.13-.84 1.14-.83 1.14-.83 1.14-.82 1.14-.82 1.15-.82 1.14-.81 1.15-.81 1.15-.8 1.16-.8 1.16-.8 1.16-.79 1.16-.79 1.16-.78 1.17-.78 1.17-.78M175.71 397.02l-1.07-.06-1.08-.07-1.07-.07-1.07-.08-1.07-.08-1.07-.08-1.07-.09-1.07-.09-1.07-.09-1.07-.1-1.07-.1-1.06-.11-1.07-.11-1.06-.12-1.07-.11-1.06-.13-1.07-.12-1.06-.13-1.06-.14-1.06-.14-1.07-.14-1.06-.14-1.06-.15-1.06-.16-1.05-.15-1.06-.17-1.06-.16-1.06-.17-1.05-.17-1.06-.18-1.05-.18-1.06-.19-1.05-.18-1.05-.2-1.06-.19-1.05-.2-1.05-.21-1.05-.21-1.05-.21-1.05-.22-1.05-.22-1.05-.22-1.04-.23-1.05-.23-1.05-.24-1.04-.24-1.05-.24-1.04-.25-1.04-.25-1.05-.25-1.04-.26-1.04-.27-1.04-.26-1.04-.27-1.04-.28-1.04-.28-1.04-.28-1.04-.29-1.04-.29-1.03-.29-1.04-.3-1.03-.3-1.04-.31-1.03-.31-1.04-.31-1.03-.32-1.03-.32-1.03-.33-1.04-.33-1.03-.33-1.03-.34-1.02-.34-1.03-.35-1.03-.35-1.03-.35-1.03-.36-1.02-.36-1.03-.36-1.02-.37-1.03-.38-1.02-.37-1.02-.38-1.03-.39-1.02-.39-1.02-.39-1.02-.4-1.02-.4-1.02-.4-1.02-.41-1.01-.41-1.02-.42-1.02-.42-1.02-.42-1.01-.43-1.02-.43-1.01-.43-1.01-.44-1.02-.45-1.01-.44" style="stroke-width:1.07;stroke:#000;stroke-opacity:.1;stroke-linecap:butt"/><path d="m175.71 397.02.86-1.29.86-1.29.87-1.28.87-1.27.87-1.27.88-1.26.88-1.25.89-1.25.89-1.24.89-1.23.9-1.23.9-1.22.91-1.21.91-1.21.91-1.2.92-1.19.92-1.19.93-1.18.93-1.17.93-1.17.94-1.16.94-1.16.95-1.14.95-1.15.95-1.13.96-1.13.96-1.12.96-1.11.97-1.11.98-1.1.97-1.1.99-1.09.98-1.08.99-1.08.99-1.06 1-1.07 1-1.05 1.01-1.05 1.01-1.04 1.01-1.04 1.01-1.03 1.03-1.02 1.02-1.02 1.03-1.01 1.03-1 1.04-1 1.04-.99 1.04-.98 1.05-.98 1.05-.97 1.06-.96 1.06-.96 1.06-.95 1.07-.94 1.08-.94 1.07-.93 1.08-.92 1.09-.92 1.08-.91 1.1-.9 1.09-.9 1.1-.89 1.1-.89 1.11-.87 1.11-.88 1.12-.86 1.12-.86 1.12-.85 1.13-.85 1.13-.83 1.14-.84 1.14-.82 1.14-.82 1.15-.81 1.15-.81 1.15-.8 1.16-.79 1.17-.78 1.16-.78 1.17-.77 1.18-.77 1.18-.76 1.18-.75 1.19-.75 1.19-.74 1.19-.73 1.2-.73 1.21-.72 1.2-.71 1.21-.71 1.22-.7 1.22-.69 1.22-.69 1.22-.68 1.23-.67 1.24-.67 1.24-.66 1.24-.65 1.25-.65M175.71 397.02l-1.09.06-1.1.06-1.09.05-1.09.05-1.09.04-1.09.03-1.09.02-1.08.02-1.09.01-1.08.01h-1.09l-1.08-.01-1.08-.01-1.08-.02-1.08-.03-1.08-.03-1.08-.04-1.07-.05-1.08-.05-1.07-.06-1.08-.07-1.07-.07-1.07-.08-1.07-.09-1.07-.09-1.07-.1-1.06-.1-1.07-.12-1.07-.11-1.06-.13-1.06-.13-1.06-.14-1.06-.14-1.06-.15-1.06-.16-1.06-.16-1.06-.18-1.05-.17-1.06-.19-1.05-.19-1.05-.19-1.05-.21-1.05-.21-1.05-.21-1.05-.22-1.05-.23-1.04-.24-1.05-.24-1.04-.25-1.05-.26-1.04-.26-1.04-.27-1.04-.27-1.04-.28-1.04-.29-1.03-.3-1.04-.3-1.03-.3-1.04-.32-1.03-.32-1.03-.33-1.03-.33-1.03-.34-1.03-.35-1.03-.35-1.02-.36-1.03-.37-1.02-.37-1.03-.38-1.02-.39-1.02-.39-1.02-.4-1.02-.4-1.02-.41-1.01-.42-1.02-.43-1.01-.43-1.02-.44-1.01-.44-1.01-.45-1.01-.46-1.01-.46-1.01-.48-1.01-.47-1.01-.49-1-.49-1.01-.49-1-.51-1-.51-1-.51-1-.53-1-.53-1-.53-1-.54-.99-.55-1-.56-.99-.56-1-.57-.99-.57M270.02 140.07l.1 1.62.1 1.63.1 1.62.1 1.63.1 1.63.1 1.62.1 1.63.1 1.62.1 1.63.1 1.62.1 1.63.1 1.62.1 1.63.1 1.62.1 1.63.09 1.63.1 1.62.1 1.63.1 1.62.1 1.63.1 1.62.1 1.63.1 1.62.1 1.63.1 1.62.1 1.63.1 1.63.1 1.62.1 1.63.1 1.62.1 1.63.1 1.62.1 1.63.1 1.62.1 1.63.1 1.62.1 1.63.1 1.63.1 1.62.1 1.63.1 1.62.1 1.63.1 1.62.1 1.63.1 1.62.1 1.63.1 1.62.1 1.63.1 1.63.1 1.62.1 1.63.1 1.62.1 1.63.1 1.62.1 1.63.1 1.62.1 1.63.1 1.62.09 1.63.1 1.63.1 1.62.1 1.63.1 1.62.1 1.63.1 1.62.1 1.63.1 1.62.1 1.63.1 1.62.1 1.63.1 1.63.1 1.62.1 1.63.1 1.62.1 1.63.1 1.62.1 1.63.1 1.62.1 1.63.1 1.62.1 1.63.1 1.63.1 1.62.1 1.63.1 1.62.1 1.63.1 1.62.1 1.63.1 1.62.1 1.63.1 1.63.1 1.62.1 1.63.1 1.62.1 1.63.1 1.62.1 1.63.1 1.62.1 1.63" style="stroke-width:1.07;stroke:#000;stroke-opacity:.1;stroke-linecap:butt"/><path d="m175.71 397.02.78-1.42.79-1.41.79-1.41.8-1.39.8-1.39.81-1.37.81-1.37.82-1.36.83-1.34.83-1.34.84-1.33.84-1.32.85-1.31.85-1.3.86-1.3.86-1.28.87-1.27.88-1.27.88-1.26.88-1.24.89-1.24.9-1.23.9-1.22.91-1.21.92-1.2.92-1.19.92-1.18.93-1.17.94-1.17.94-1.15.95-1.15.95-1.13.96-1.13.96-1.12.97-1.1.98-1.1.98-1.09.98-1.08.99-1.08 1-1.06 1-1.05 1.01-1.04 1.02-1.04 1.01-1.02 1.03-1.02 1.03-1.01 1.04-.99 1.04-.99 1.04-.98 1.06-.97 1.05-.96 1.07-.95 1.07-.95 1.07-.93 1.08-.92 1.09-.92 1.09-.9 1.09-.9 1.11-.89 1.1-.88 1.12-.86 1.12-.86 1.12-.85 1.13-.84 1.14-.84 1.14-.82 1.14-.81 1.16-.81 1.15-.79 1.17-.79 1.17-.77 1.17-.77 1.18-.76 1.18-.75 1.2-.74 1.19-.73 1.2-.72 1.21-.71 1.21-.7 1.22-.7 1.23-.68 1.23-.68 1.23-.66 1.24-.66 1.25-.65 1.25-.63 1.26-.63 1.26-.62 1.27-.61 1.27-.6 1.28-.6 1.29-.58 1.29-.57 1.29-.57 1.3-.55 1.31-.55 1.31-.54 1.32-.52 1.33-.52M175.71 397.02l-1.12.19-1.11.19-1.11.17-1.11.16-1.11.16-1.11.15-1.1.13-1.11.13-1.1.12-1.1.11-1.1.1-1.1.09-1.09.09-1.1.07-1.09.06-1.1.06-1.09.05-1.09.03-1.09.03-1.08.02-1.09.01h-1.08l-1.08-.01-1.09-.02-1.07-.02-1.08-.04-1.08-.05-1.07-.05-1.08-.06-1.07-.08-1.07-.08-1.07-.09-1.07-.1-1.06-.11-1.07-.12-1.06-.12-1.06-.14-1.06-.15-1.06-.15-1.06-.17-1.06-.17-1.05-.18-1.06-.19-1.05-.2-1.05-.21-1.05-.22-1.04-.23-1.05-.24-1.04-.24-1.05-.26-1.04-.26-1.04-.28-1.04-.28-1.03-.29-1.04-.3-1.03-.31-1.04-.32-1.03-.33-1.03-.34-1.03-.35-1.02-.35-1.03-.37-1.02-.37-1.03-.38-1.02-.4-1.02-.4-1.02-.41-1.01-.42-1.02-.43-1.01-.44-1.01-.44-1.01-.46-1.01-.46-1.01-.48-1.01-.48-1-.5-1.01-.5-1-.51-1-.52-1-.53-1-.54-.99-.55-1-.55-.99-.57-.99-.57-.99-.59-.99-.59-.99-.6-.99-.62-.98-.62-.99-.63-.98-.64-.98-.64-.98-.66-.97-.67-.98-.67-.97-.69-.98-.69-.97-.7M175.71 397.02l-.21 1.28-.22 1.29-.21 1.28-.21 1.29-.21 1.28-.22 1.29-.21 1.28-.21 1.28-.21 1.29-.22 1.28-.21 1.29-.21 1.28-.21 1.29-.22 1.28-.21 1.28-.21 1.29-.21 1.28-.22 1.29-.21 1.28-.21 1.29-.22 1.28-.21 1.28-.21 1.29-.21 1.28-.22 1.29-.21 1.28-.21 1.29-.21 1.28-.22 1.29-.21 1.28-.21 1.28-.21 1.29-.22 1.28-.21 1.29-.21 1.28-.21 1.29-.22 1.28-.21 1.28-.21 1.29-.21 1.28-.22 1.29-.21 1.28-.21 1.29-.22 1.28-.21 1.28-.21 1.29-.21 1.28-.22 1.29-.21 1.28-.21 1.29-.21 1.28-.22 1.28-.21 1.29-.21 1.28-.21 1.29-.22 1.28-.21 1.29-.21 1.28-.21 1.28-.22 1.29-.21 1.28-.21 1.29-.21 1.28-.22 1.29-.21 1.28-.21 1.28-.21 1.29-.22 1.28-.21 1.29-.21 1.28-.22 1.29-.21 1.28-.21 1.29-.21 1.28-.22 1.28-.21 1.29-.21 1.28-.21 1.29-.22 1.28-.21 1.29-.21 1.28-.21 1.28-.22 1.29-.21 1.28-.21 1.29-.21 1.28-.22 1.29-.21 1.28-.21 1.28-.21 1.29-.22 1.28-.21 1.29-.21 1.28-.22 1.29-.21 1.28-.21 1.28-.21 1.29-.22 1.28-.21 1.29" style="stroke-width:1.07;stroke:#000;stroke-opacity:.1;stroke-linecap:butt"/><path d="m175.71 397.02-1.14.32-1.13.31-1.13.3-1.13.28-1.13.27-1.12.26-1.13.25-1.12.24-1.12.23-1.11.21-1.12.21-1.12.19-1.11.18-1.11.16-1.11.16-1.1.14-1.11.13-1.1.13-1.1.1-1.1.1-1.1.09-1.09.07-1.1.06-1.09.05-1.09.04-1.09.03-1.08.01h-2.17l-1.08-.03-1.08-.03-1.08-.04-1.07-.06-1.07-.06-1.08-.08-1.06-.1-1.07-.1-1.07-.11-1.06-.13-1.06-.14-1.06-.15-1.06-.16-1.06-.17-1.05-.19-1.05-.19-1.05-.21-1.05-.22-1.05-.23-1.04-.25-1.05-.25-1.04-.27-1.04-.28-1.04-.29-1.03-.3-1.03-.32-1.04-.32-1.03-.34-1.02-.35-1.03-.36-1.02-.37-1.03-.39-1.02-.39-1.02-.41-1.01-.42-1.02-.43-1.01-.45-1.01-.45-1.01-.47-1.01-.48-1-.49-1.01-.5-1-.51-1-.53-1-.54-.99-.54-1-.57-.99-.57-.99-.58-.99-.6-.99-.61-.98-.62-.98-.63-.99-.64-.97-.65-.98-.67-.98-.68-.97-.69-.97-.7-.97-.71-.97-.73-.97-.74-.96-.75-.96-.76-.96-.77-.96-.78-.96-.8-.95-.8-.96-.82-.95-.83M404.24 337.15l1.2.21 1.2.2 1.19.21 1.2.2 1.2.21 1.2.21 1.19.2 1.2.21 1.2.2 1.2.21 1.19.2 1.2.21 1.2.21 1.19.2 1.2.21 1.2.2 1.2.21 1.19.21 1.2.2 1.2.21 1.2.2 1.19.21 1.2.2 1.2.21 1.19.21 1.2.2 1.2.21 1.2.2 1.19.21 1.2.21 1.2.2 1.2.21 1.19.2 1.2.21 1.2.21 1.19.2 1.2.21 1.2.2 1.2.21 1.19.2 1.2.21 1.2.21 1.2.2 1.19.21 1.2.2 1.2.21 1.19.21 1.2.2 1.2.21 1.2.2 1.19.21 1.2.21 1.2.2 1.2.21 1.19.2 1.2.21 1.2.2 1.19.21 1.2.21 1.2.2 1.2.21 1.19.2 1.2.21 1.2.21 1.2.2 1.19.21 1.2.2 1.2.21 1.19.2 1.2.21 1.2.21 1.2.2 1.19.21 1.2.2 1.2.21 1.19.21 1.2.2 1.2.21 1.2.2 1.19.21 1.2.21 1.2.2 1.2.21 1.19.2 1.2.21 1.2.2 1.19.21 1.2.21 1.2.2 1.2.21 1.19.2 1.2.21 1.2.21 1.2.2 1.19.21 1.2.2 1.2.21 1.19.21 1.2.2M72.45 371.74l.28 1.99.29 1.99.3 1.98.31 1.97.32 1.96.33 1.95.35 1.94.35 1.94.37 1.92.38 1.91.39 1.91.4 1.89.41 1.89.42 1.88.44 1.86.44 1.86.46 1.85.47 1.84.48 1.83.49 1.82.51 1.81.51 1.8.52 1.79.54 1.78.55 1.78.56 1.76.57 1.76.58 1.74.59 1.74.61 1.73.61 1.71.63 1.71.64 1.7.65 1.69.66 1.68.67 1.67.69 1.66.69 1.65.71 1.65.71 1.63.73 1.62.74 1.62.75 1.6.77 1.6.77 1.58.79 1.58.79 1.57.81 1.56.82 1.55.83 1.54.84 1.53.85 1.52.87 1.51.87 1.5.89 1.49.9 1.49.91 1.47.92 1.47.93 1.45.95 1.45.95 1.44.97 1.42.97 1.42.99 1.41 1 1.4 1.01 1.39 1.03 1.38 1.03 1.37 1.04 1.36 1.06 1.36 1.07 1.34 1.08 1.33 1.09 1.33 1.1 1.31 1.11 1.31 1.13 1.3 1.13 1.28 1.15 1.28 1.16 1.27 1.17 1.26 1.18 1.25 1.19 1.24 1.2 1.23 1.22 1.22 1.22 1.22 1.24 1.2 1.25 1.19 1.26 1.19 1.27 1.17 1.28 1.17 1.3 1.15 1.3 1.15 1.32 1.14 1.32 1.13 1.34 1.12 1.35 1.1 1.36 1.11 1.38 1.09 1.38 1.08" style="stroke-width:1.07;stroke:#000;stroke-opacity:.1;stroke-linecap:butt"/><path d="m72.45 371.74.4 1.89.41 1.89.42 1.88.42 1.88.44 1.86.44 1.86.45 1.86.47 1.84.47 1.84.47 1.83.49 1.82.5 1.82.5 1.81.52 1.8.52 1.79.53 1.79.54 1.78.55 1.77.56 1.77.57 1.76.57 1.75.59 1.74.59 1.74.6 1.72.61 1.73.62 1.71.63 1.71.64 1.7.64 1.69.66 1.68.66 1.68.67 1.67.68 1.67.69 1.65.7 1.65.71 1.64.72 1.64.72 1.62.73 1.62.75 1.62.75 1.6.76 1.6.77 1.59.77 1.58.79 1.58.8 1.57.8 1.56.81 1.55.83 1.55.83 1.54.83 1.53.85 1.53.86 1.52.86 1.51.88 1.5.88 1.5.89 1.49.91 1.48.9 1.47.92 1.47.93 1.46.94 1.45.94 1.45.95 1.43.97 1.43.97 1.43.98 1.41.99 1.41.99 1.4 1.01 1.4 1.01 1.38 1.03 1.38 1.03 1.38 1.04 1.36 1.05 1.36 1.06 1.35 1.07 1.34 1.08 1.34 1.08 1.33 1.09 1.32 1.11 1.31 1.11 1.31 1.12 1.3 1.13 1.29 1.14 1.29 1.14 1.28 1.16 1.27 1.16 1.26 1.18 1.26 1.18 1.25 1.19 1.24 1.2 1.23 1.21 1.23 1.21 1.22 1.23 1.21 1.23 1.21 1.25 1.19 1.25 1.19 1.26 1.19" style="stroke-width:1.07;stroke:#000;stroke-opacity:.1;stroke-linecap:butt"/><path d="m72.45 371.74.52 1.79.53 1.79.54 1.78.54 1.78.55 1.77.55 1.77.56 1.77.57 1.75.57 1.76.58 1.74.59 1.75.59 1.73.6 1.74.6 1.72.61 1.72.62 1.72.62 1.71.63 1.71.64 1.7.64 1.69.65 1.69.65 1.69.66 1.68.67 1.67.67 1.67.68 1.67.69 1.66.69 1.65.7 1.65.71 1.64.71 1.64.71 1.64.73 1.62.73 1.63.73 1.61.75 1.62.75 1.6.75 1.61.76 1.59.77 1.59.77 1.59.78 1.58.79 1.58.79 1.57.8 1.56.81 1.57.81 1.55.82 1.55.82 1.55.83 1.54.84 1.53.84 1.53.85 1.52.86 1.52.86 1.52.87 1.5.87 1.51.88 1.5.89 1.49.89 1.49.9 1.48.91 1.48.91 1.47.92 1.47.92 1.46.93 1.45.94 1.46.94 1.44.95 1.44.96 1.44.96 1.43.97 1.42.97 1.42.98 1.42.99 1.41 1 1.4 1 1.4 1 1.4 1.01 1.39 1.02 1.38 1.03 1.38 1.03 1.37 1.04 1.37 1.04 1.36 1.05 1.36 1.06 1.36 1.06 1.34 1.07 1.34 1.07 1.34 1.09 1.33 1.08 1.33 1.1 1.32 1.1 1.32 1.1 1.31 1.12 1.31 1.12 1.3 1.12 1.29 1.13 1.29 1.14 1.29" style="stroke-width:1.07;stroke:#000;stroke-opacity:.1;stroke-linecap:butt"/><path d="m72.45 371.74.65 1.69.65 1.69.65 1.68.66 1.69.66 1.68.66 1.67.67 1.68.67 1.67.68 1.66.68 1.67.68 1.66.69 1.66.69 1.65.7 1.66.69 1.64.71 1.65.7 1.64.71 1.64.72 1.64.71 1.63.72 1.63.73 1.63.73 1.62.73 1.62.74 1.62.74 1.62.74 1.61.75 1.61.75 1.6.75 1.6.76 1.6.77 1.6.76 1.59.77 1.59.78 1.59.77 1.58.79 1.58.78 1.58.79 1.57.79 1.57.8 1.57.8 1.56.8 1.57.81 1.55.81 1.56.82 1.55.82 1.55.82 1.55.83 1.54.83 1.54.83 1.54.84 1.53.84 1.53.85 1.53.85 1.52.85 1.52.86 1.52.86 1.52.86 1.51.87 1.51.87 1.5.88 1.5.88 1.5.88 1.5.89 1.49.89 1.49.89 1.49.9 1.48.9 1.48.91 1.48.91 1.47.91 1.47.92 1.47.92 1.47.92 1.46.93 1.46.93 1.45.94 1.46.94 1.45.94 1.44.95 1.44.95 1.44.95 1.44.96 1.44.96 1.43.97 1.42.97 1.43.97 1.42.98 1.42.98 1.41.99 1.41.99 1.41.99 1.41.99 1.4 1 1.4 1.01 1.4 1.01 1.39 1.01 1.39 1.01 1.39" style="stroke-width:1.07;stroke:#000;stroke-opacity:.1;stroke-linecap:butt"/><path d="m72.45 371.74.77 1.59.77 1.59.77 1.58.77 1.59.78 1.59.77 1.58.78 1.59.78 1.58.78 1.58.78 1.58.78 1.58.78 1.58.78 1.58.79 1.58.79 1.58.78 1.57.79 1.57.79 1.58.79 1.57.8 1.57.79 1.57.8 1.57.79 1.57.8 1.56.8 1.57.8 1.56.8 1.57.8 1.56.81 1.56.8 1.56.81 1.56.81 1.56.81 1.56.81 1.55.81 1.56.81 1.55.82 1.56.81 1.55.82 1.55.82 1.55.82 1.55.82 1.55.82 1.54.82 1.55.82 1.54.83 1.55.83 1.54.82 1.54.83 1.54.83 1.54.84 1.54.83 1.54.83 1.54.84 1.53.83 1.54.84 1.53.84 1.53.84 1.53.84 1.53.85 1.53.84 1.53.85 1.53.84 1.53.85 1.52.85 1.53.85 1.52.85 1.52.86 1.52.85 1.52.86 1.52.85 1.52.86 1.51.86 1.52.86 1.52.86 1.51.86 1.51.87 1.51.86 1.51.87 1.51.87 1.51.87 1.51.87 1.51.87 1.5.87 1.51.88 1.5.87 1.5.88 1.5.88 1.5.88 1.5.88 1.5.88 1.5.88 1.49.89 1.5.88 1.49.89 1.5.89 1.49.89 1.49.89 1.49.89 1.49" style="stroke-width:1.07;stroke:#000;stroke-opacity:.1;stroke-linecap:butt"/><path d="m72.45 371.74.89 1.48.89 1.49.89 1.49.89 1.5.89 1.49.88 1.49.89 1.5.88 1.49.88 1.5.88 1.5.88 1.5.88 1.5.88 1.5.87 1.5.88 1.51.87 1.5.87 1.51.87 1.5.87 1.51.87 1.51.87 1.51.86 1.51.87 1.51.86 1.51.86 1.52.86 1.51.86 1.52.86 1.51.86 1.52.85 1.52.86 1.52.85 1.52.85 1.52.85 1.53.85 1.52.85 1.53.85 1.52.84 1.53.85 1.53.84 1.53.84 1.53.84 1.53.84 1.53.84 1.54.83 1.53.84 1.54.83 1.53.84 1.54.83 1.54.83 1.54.83 1.54.83 1.54.82 1.54.83 1.55.82 1.54.83 1.55.82 1.55.82 1.54.82 1.55.81 1.55.82 1.55.82 1.56.81 1.55.81 1.55.82 1.56.81 1.56.8 1.55.81 1.56.81 1.56.8 1.56.81 1.56.8 1.56.8 1.57.8 1.56.8 1.57.8 1.57.8 1.56.79 1.57.8 1.57.79 1.57.79 1.57.79 1.58.79 1.57.79 1.58.78 1.57.79 1.58.78 1.58.78 1.58.79 1.58.78 1.58.78 1.58.77 1.58.78 1.59.77 1.58.78 1.59.77 1.59.77 1.59.77 1.59.77 1.59" style="stroke-width:1.07;stroke:#000;stroke-opacity:.1;stroke-linecap:butt"/><path d="m72.45 371.74 1.02 1.38 1.01 1.39 1 1.4 1.01 1.39 1 1.4.99 1.4 1 1.41.99 1.41.98 1.41.98 1.42.98 1.41.97 1.42.97 1.43.97 1.43.96 1.43.96 1.43.95 1.44.95 1.44.95 1.44.94 1.45.94 1.45.94 1.45.93 1.45.93 1.46.93 1.46.92 1.47.91 1.47.92 1.47.91 1.47.9 1.48.9 1.48.9 1.48.9 1.49.89 1.49.88 1.49.89 1.5.88 1.5.87 1.5.87 1.51.87 1.51.87 1.51.86 1.51.85 1.52.86 1.52.85 1.53.84 1.52.84 1.53.84 1.54.84 1.53.83 1.54.82 1.55.83 1.54.81 1.55.82 1.55.81 1.56.81 1.56.8 1.56.8 1.56.8 1.57.79 1.57.79 1.58.79 1.57.78 1.58.78 1.59.77 1.58.77 1.59.77 1.59.76 1.6.76 1.6.75 1.6.75 1.61.75 1.61.75 1.61.74 1.61.73 1.62.73 1.62.73 1.62.73 1.63.72 1.63.72 1.63.71 1.64.71 1.64.71 1.64.7 1.65.7 1.65.69 1.65.69 1.65.69 1.66.68 1.66.68 1.67.68 1.66.67 1.68.67 1.67.66 1.68.67 1.68.65 1.68.66 1.69.65 1.68.64 1.7" style="stroke-width:1.07;stroke:#000;stroke-opacity:.1;stroke-linecap:butt"/><path d="m72.45 371.74 1.14 1.28 1.13 1.29 1.13 1.3 1.12 1.3 1.11 1.3 1.1 1.31 1.11 1.32 1.09 1.32 1.09 1.33 1.08 1.33 1.07 1.34 1.07 1.34 1.07 1.35 1.05 1.35 1.05 1.36 1.05 1.36 1.03 1.37 1.03 1.37 1.03 1.38 1.02 1.39 1.01 1.38 1.01 1.4 1 1.4.99 1.4.99 1.41.98 1.42.97 1.42.97 1.42.96 1.43.96 1.44.95 1.44.94 1.45.94 1.45.93 1.45.93 1.47.91 1.46.92 1.48.9 1.47.9 1.49.9 1.48.88 1.5.88 1.49.88 1.51.87 1.51.86 1.51.85 1.52.85 1.52.84 1.53.84 1.54.83 1.54.83 1.54.81 1.55.82 1.56.8 1.56.8 1.56.79 1.57.79 1.58.78 1.58.77 1.59.77 1.59.76 1.6.76 1.6.75 1.61.74 1.61.73 1.62.73 1.62.73 1.63.72 1.63.71 1.64.7 1.64.7 1.65.69 1.66.69 1.65.68 1.67.67 1.67.67 1.67.66 1.68.65 1.69.65 1.69.64 1.69.64 1.71.63 1.7.62 1.71.62 1.72.61 1.72.61 1.73.59 1.73.6 1.74.58 1.74.58 1.75.57 1.75.57 1.76.56 1.76.55 1.77.55 1.77.54 1.78.54 1.78.53 1.79.52 1.8" style="stroke-width:1.07;stroke:#000;stroke-opacity:.1;stroke-linecap:butt"/><path d="m72.45 371.74 1.26 1.18 1.25 1.19 1.25 1.2 1.23 1.2 1.23 1.21 1.22 1.22 1.2 1.23 1.2 1.24 1.19 1.24 1.19 1.25 1.17 1.25 1.16 1.26 1.16 1.28 1.15 1.27 1.13 1.29 1.13 1.29 1.12 1.3 1.12 1.31 1.1 1.31 1.09 1.32 1.09 1.33 1.07 1.34 1.07 1.34 1.06 1.35 1.05 1.36 1.04 1.37 1.03 1.37 1.03 1.38 1.01 1.38 1.01 1.4 1 1.4.99 1.41.98 1.42.97 1.42.96 1.43.95 1.44.95 1.44.93 1.45.93 1.46.92 1.47.91 1.48.9 1.48.89 1.49.88 1.49.88 1.51.86 1.51.86 1.51.85 1.53.84 1.53.83 1.54.82 1.55.81 1.55.81 1.56.79 1.57.79 1.58.78 1.58.76 1.59.76 1.6.76 1.61.74 1.61.73 1.62.73 1.63.71 1.63.71 1.64.7 1.65.69 1.66.68 1.66.67 1.67.67 1.68.65 1.68.65 1.7.63 1.7.63 1.7.62 1.72.61 1.72.6 1.73.6 1.73.58 1.75.58 1.75.56 1.75.56 1.77.55 1.77.54 1.78.53 1.79.53 1.79.51 1.81.5 1.8.5 1.82.49 1.82.48 1.83.47 1.84.46 1.85.45 1.85.45 1.86.43 1.87.43 1.87.41 1.88.41 1.89.4 1.9" style="stroke-width:1.07;stroke:#000;stroke-opacity:.1;stroke-linecap:butt"/><path d="m72.45 371.74 1.39 1.08 1.37 1.09 1.36 1.1 1.35 1.11 1.34 1.12 1.33 1.12 1.31 1.14 1.31 1.15 1.29 1.16 1.28 1.16 1.27 1.18 1.26 1.18 1.25 1.19 1.24 1.21 1.23 1.21 1.21 1.22 1.2 1.23 1.2 1.24 1.18 1.25 1.17 1.26 1.15 1.27 1.15 1.28 1.14 1.29 1.12 1.29 1.11 1.31 1.11 1.31 1.09 1.33 1.07 1.33 1.07 1.35 1.06 1.35 1.04 1.36 1.04 1.37 1.02 1.38 1.01 1.39 1 1.4.99 1.41.98 1.42.96 1.43.96 1.43.94 1.45.93 1.45.92 1.47.91 1.47.9 1.49.89 1.49.87 1.5.87 1.51.85 1.53.84 1.53.83 1.54.82 1.54.81 1.56.8 1.57.78 1.58.78 1.58.76 1.6.75 1.61.74 1.61.73 1.62.72 1.64.7 1.64.7 1.65.68 1.66.67 1.67.66 1.68.65 1.69.64 1.7.63 1.71.61 1.72.61 1.72.59 1.74.58 1.75.57 1.75.56 1.76.55 1.78.54 1.78.52 1.79.52 1.8.5 1.82.49 1.82.48 1.83.47 1.83.46 1.85.44 1.86.44 1.87.42 1.87.42 1.89.4 1.89.39 1.91.37 1.91.37 1.93.36 1.93.34 1.94.34 1.95.32 1.96.31 1.97.3 1.98.29 1.99.27 2" style="stroke-width:1.07;stroke:#000;stroke-opacity:.1;stroke-linecap:butt"/><path d="m175.71 386.94 8.73 15.12h-17.46zM404.24 331.23l5.13 8.88h-10.25zM270.02 137.86l1.91 3.31h-3.83z" style="stroke-width:.71;stroke:none;fill:#00ba38"/><path d="M65.97 378.22h12.96v-12.97H65.97z" style="stroke-width:.71;stroke:none;fill:#619cff"/><circle cx="279.9" cy="300.99" r="6.76" style="stroke-width:.71;stroke:none;fill:#f8766d"/><circle cx="55.97" cy="498.2" r="1.42" style="stroke-width:.71;stroke:none;fill:#f8766d"/><circle cx="154.66" cy="524.17" r="1.42" style="stroke-width:.71;stroke:none;fill:#f8766d"/><circle cx="522.77" cy="357.53" r="1.42" style="stroke-width:.71;stroke:none;fill:#f8766d"/><path d="m170.51 401.72 4.34-3.93M409.38 332.51l-4.28 3.87M264.68 144.68l4.46-3.85M285.25 296.36l-4.48 3.87M61.37 493.57l-4.52 3.87M159.36 527.39l-3.72-2.55" style="stroke-width:.53;stroke:#bfbfbf"/><path d="M130.18 413.07h65.84l-.08-.01.34-.01.34-.07.33-.12.3-.18.27-.22.23-.26.19-.29.13-.32.09-.34.02-.34v-7.03l-.02-.35-.09-.33-.13-.32-.19-.3-.23-.26-.27-.22-.3-.17-.33-.13-.34-.07-.26-.01h-65.84l.26.01-.35-.01-.34.04-.34.1-.31.15-.29.2-.25.24-.21.27-.16.31-.11.33-.05.35-.01.17v7.03l.01-.18v.35l.05.34.11.33.16.31.21.28.25.24.29.2.31.15.34.09.34.04z" style="stroke-width:.53;fill:#fff;fill-opacity:.5"/><text x="163.1" y="409.47" lengthAdjust="spacingAndGlyphs" style="font-size:5.69px;font-family:&quot;Liberation Sans&quot;" text-anchor="middle" textLength="62.96">MWK PROPERTIES LLC</text><path d="M391.54 332.51h50.53-.09l.35-.01.34-.07.32-.12.3-.18.27-.22.23-.26.19-.29.13-.32.09-.34.03-.35v-7.02l-.03-.35-.09-.34-.13-.32-.19-.29-.23-.26-.27-.22-.3-.17-.32-.13-.34-.07-.26-.01h-50.53l.26.01-.34-.01-.35.04-.33.1-.32.15-.28.19-.25.24-.21.28-.16.31-.11.33-.06.34-.01.18v7.02l.01-.17v.35l.06.34.11.33.16.31.21.28.25.24.28.19.32.15.33.1.35.04z" style="stroke-width:.53;fill:#fff;fill-opacity:.5"/><text x="416.8" y="328.91" lengthAdjust="spacingAndGlyphs" style="font-size:5.69px;font-family:&quot;Liberation Sans&quot;" text-anchor="middle" textLength="47.64">MICHAEL KAISER</text><path d="M215.47 164.22h74.08-.09l.35-.01.34-.07.32-.13.3-.17.27-.22.23-.26.19-.29.14-.32.08-.34.03-.35v-15.22l-.03-.35-.08-.33-.14-.32-.19-.3-.23-.26-.27-.22-.3-.17-.32-.12-.34-.07-.26-.02h-74.08l.26.02-.35-.02-.35.04-.33.1-.31.15-.29.2-.25.24-.21.28-.16.3-.11.33-.06.35v15.39-.17.35l.06.34.11.33.16.31.21.27.25.25.29.19.31.15.33.1.35.04z" style="stroke-width:.53;fill:#fff;fill-opacity:.5"/><text x="252.51" y="152.43" lengthAdjust="spacingAndGlyphs" style="font-size:5.69px;font-family:&quot;Liberation Sans&quot;" text-anchor="middle" textLength="71.2">EQUITY TRUST COMPANY</text><text x="252.51" y="160.62" lengthAdjust="spacingAndGlyphs" style="font-size:5.69px;font-family:&quot;Liberation Sans&quot;" text-anchor="middle" textLength="25.75">CUSTODI</text><path d="M79.31 381.85h78.84-.08l.34-.02.34-.07.33-.12.3-.17.27-.22.23-.26.19-.3.13-.32.08-.33.03-.35v-15.22l-.03-.35-.08-.34-.13-.32-.19-.29-.23-.26-.27-.22-.3-.17-.33-.13-.34-.07-.26-.01H79.31l.26.01-.34-.01-.35.04-.33.1-.32.15-.28.19-.25.25-.21.27-.16.31-.11.33-.06.34-.01.18v15.22l.01-.17v.34l.06.35.11.33.16.3.21.28.25.24.28.2.32.15.33.1.35.04z" style="stroke-width:.53;fill:#fff;fill-opacity:.5"/><text x="118.73" y="370.05" lengthAdjust="spacingAndGlyphs" style="font-size:5.69px;font-family:&quot;Liberation Sans&quot;" text-anchor="middle" textLength="47.37">1030 KEATS CIR,</text><text x="118.73" y="378.25" lengthAdjust="spacingAndGlyphs" style="font-size:5.69px;font-family:&quot;Liberation Sans&quot;" text-anchor="middle" textLength="75.96">OCONOMOWOC, WI 53066</text><path d="M257.93 296.36h78.84-.09l.35-.01.34-.07.33-.13.3-.17.27-.22.23-.26.18-.3.14-.32.08-.33.03-.35v-15.22l-.03-.35-.08-.33-.14-.32-.18-.3-.23-.26-.27-.22-.3-.17-.33-.13-.34-.06-.26-.02h-78.84l.26.02-.35-.02-.34.04-.33.1-.32.15-.28.2-.26.24-.2.27-.17.31-.11.33-.05.35-.01.17v15.22l.01-.17v.34l.05.35.11.33.17.31.2.27.26.24.28.2.32.15.33.1.34.04z" style="stroke-width:.53;fill:#fff;fill-opacity:.5"/><text x="297.35" y="284.57" lengthAdjust="spacingAndGlyphs" style="font-size:5.69px;font-family:&quot;Liberation Sans&quot;" text-anchor="middle" textLength="36">PO BOX 904,</text><text x="297.35" y="292.76" lengthAdjust="spacingAndGlyphs" style="font-size:5.69px;font-family:&quot;Liberation Sans&quot;" text-anchor="middle" textLength="75.96">OCONOMOWOC, WI 53066</text><path d="M38.39 493.57h74.36-.09l.35-.01.34-.07.33-.13.3-.17.27-.22.23-.26.18-.29.14-.32.08-.34.03-.35v-15.22l-.03-.35-.08-.33-.14-.32-.18-.3-.23-.26-.27-.22-.3-.17-.33-.12-.34-.07-.26-.02H38.39l.26.02-.35-.02-.34.04-.34.1-.31.15-.29.2-.25.24-.21.28-.16.3-.11.33-.06.35v15.39-.17.35l.06.34.11.33.16.31.21.28.25.24.29.19.31.15.34.1.34.04z" style="stroke-width:.53;fill:#fff;fill-opacity:.5"/><text x="75.57" y="481.78" lengthAdjust="spacingAndGlyphs" style="font-size:5.69px;font-family:&quot;Liberation Sans&quot;" text-anchor="middle" textLength="36">PO BOX 904,</text><text x="75.57" y="489.97" lengthAdjust="spacingAndGlyphs" style="font-size:5.69px;font-family:&quot;Liberation Sans&quot;" text-anchor="middle" textLength="71.48">OCNOMOWOC, WI 53066</text><path d="M161.52 539.75h78.84-.09l.35-.02.34-.07.33-.12.3-.17.27-.22.23-.26.18-.3.14-.32.08-.33.03-.35v-15.22l-.03-.35-.08-.34-.14-.32-.18-.29-.23-.26-.27-.22-.3-.17-.33-.13-.34-.07-.26-.01h-78.84l.26.01-.35-.01-.34.04-.34.1-.31.15-.29.2-.25.24-.21.27-.16.31-.11.33-.05.34-.01.18v15.22l.01-.17v.34l.05.35.11.33.16.3.21.28.25.24.29.2.31.15.34.1.34.04z" style="stroke-width:.53;fill:#fff;fill-opacity:.5"/><text x="200.94" y="527.96" lengthAdjust="spacingAndGlyphs" style="font-size:5.69px;font-family:&quot;Liberation Sans&quot;" text-anchor="middle" textLength="47.37">1030 KEATS CIR,</text><text x="200.94" y="536.15" lengthAdjust="spacingAndGlyphs" style="font-size:5.69px;font-family:&quot;Liberation Sans&quot;" text-anchor="middle" textLength="75.96">OCONOMOWOC, WI 53066</text><path d="M445.34 367.39h70.54-.08l.34-.01.34-.07.33-.13.3-.17.27-.22.23-.26.19-.29.13-.32.09-.34.02-.35v-15.22l-.02-.35-.09-.33-.13-.32-.19-.3-.23-.26-.27-.22-.3-.17-.33-.12-.34-.07-.26-.02h-70.54l.26.02-.35-.02-.34.04-.34.1-.31.15-.29.2-.25.24-.21.28-.16.3-.11.33-.06.35v15.39-.17.35l.06.34.11.33.16.31.21.27.25.24.29.2.31.15.34.1.34.04z" style="stroke-width:.53;fill:#fff;fill-opacity:.5"/><text x="480.61" y="355.6" lengthAdjust="spacingAndGlyphs" style="font-size:5.69px;font-family:&quot;Liberation Sans&quot;" text-anchor="middle" textLength="67.67">932 W OKLAHOMA AVE,</text><text x="480.61" y="363.79" lengthAdjust="spacingAndGlyphs" style="font-size:5.69px;font-family:&quot;Liberation Sans&quot;" text-anchor="middle" textLength="64.34">MILWAUKEE, WI 53215</text></g><g clip-path="url(#cpMC4wMHw1NzYuMDB8MC4wMHw1NzYuMDA=)"><circle cx="196.98" cy="95.78" r="1.95" style="stroke-width:.71;stroke:none;fill:#f8766d"/><path d="m273.33 92.74 2.63 4.56h-5.26z" style="stroke-width:.71;stroke:none;fill:#00ba38"/><path d="M339.31 97.74h3.91v-3.91h-3.91z" style="stroke-width:.71;stroke:none;fill:#619cff"/><text x="211.09" y="98.81" lengthAdjust="spacingAndGlyphs" style="font-size:8.8px;font-family:&quot;Liberation Sans Narrow&quot;" textLength="48.12">mprop address</text><text x="287.45" y="98.81" lengthAdjust="spacingAndGlyphs" style="font-size:8.8px;font-family:&quot;Liberation Sans Narrow&quot;" textLength="39.69">owner name</text><text x="355.38" y="98.81" lengthAdjust="spacingAndGlyphs" style="font-size:8.8px;font-family:&quot;Liberation Sans Narrow&quot;" textLength="40.5">wdfi address</text><text x="32.63" y="64.23" lengthAdjust="spacingAndGlyphs" style="font-size:12px;font-family:&quot;Liberation Sans Narrow&quot;" textLength="252.23">includes 14 parcels, 19 units, and 3 distinct owner names.</text><text x="32.63" y="42.27" lengthAdjust="spacingAndGlyphs" style="font-size:18px;font-weight:700;font-family:&quot;Liberation Sans Narrow&quot;" textLength="217.27">MWK PROPERTIES LLC Group</text></g></svg>