<svg xmlns="http://www.w3.org/2000/svg" width="576" height="576" class="svglite" viewBox="0 0 432 432"><defs><style>.svglite circle,.svglite line,.svglite polygon,.svglite polyline,.svglite rect{fill:none;stroke:#000;stroke-linecap:round;stroke-linejoin:round;stroke-miterlimit:10}.svglite text{white-space:pre}</style></defs><rect width="100%" height="100%" style="stroke:none;fill:#fff"/><defs><clipPath id="cpMC4wMHw0MzIuMDB8MC4wMHw0MzIuMDA="><path d="M0 0h432v432H0z"/></clipPath></defs><g clip-path="url(#cpMC4wMHw0MzIuMDB8MC4wMHw0MzIuMDA=)"><path d="M0 0h432v432H0z" style="stroke-width:1.07;stroke:none;fill:#fff"/></g><defs><clipPath id="cpMzIuNjN8NDAyLjExfDEyMS43OHwzOTkuMzc="><path d="M32.63 121.78h369.48v277.59H32.63z"/></clipPath></defs><g clip-path="url(#cpMzIuNjN8NDAyLjExfDEyMS43OHwzOTkuMzc=)"><path d="m216.97 292.68.81-.84.81-.85.81-.84.81-.84.81-.85.81-.84.81-.84.81-.85.81-.84.81-.84.81-.84.81-.85.81-.84.81-.84.81-.85.81-.84.81-.84.81-.85.81-.84.81-.84.81-.84.81-.85.81-.84.81-.84.81-.85.81-.84.81-.84.81-.85.81-.84.81-.84.81-.85.81-.84.81-.84.81-.84.82-.85.81-.84.81-.84.81-.85.81-.84.81-.84.81-.85.81-.84.81-.84.81-.84.81-.85.81-.84.81-.84.81-.85.81-.84.81-.84.81-.85.81-.84.81-.84.81-.84.81-.85.81-.84.81-.84.81-.85.81-.84.81-.84.81-.85.81-.84.81-.84.81-.84.81-.85.81-.84.81-.84.81-.85.81-.84.81-.84.81-.85.81-.84.81-.84.81-.84.81-.85.81-.84.81-.84.81-.85.81-.84.81-.84.81-.85.81-.84.81-.84.81-.84.81-.85.81-.84.81-.84.81-.85.81-.84.81-.84.81-.85.81-.84.81-.84.81-.84.81-.85.81-.84.82-.84.81-.85.81-.84M216.97 292.68l-.01-1-.02-1-.04-1-.04-.99-.06-.99-.06-.99-.08-.98-.09-.99-.1-.98-.11-.98-.12-.97-.14-.97-.14-.97-.16-.97-.16-.97-.18-.96-.19-.96-.2-.96-.21-.95-.23-.96-.23-.95-.25-.95-.25-.94-.27-.94-.28-.94-.29-.94-.3-.94-.31-.93-.33-.93-.33-.93-.35-.92-.35-.93-.37-.92-.38-.91-.39-.92-.4-.91-.41-.91-.43-.91-.43-.9-.45-.91-.46-.9-.47-.89-.48-.9-.49-.89-.5-.89-.51-.89-.53-.88-.53-.89-.55-.88-.56-.87-.57-.88-.58-.87-.59-.87-.6-.87-.61-.86-.63-.87-.63-.86-.65-.85-.66-.86-.67-.85-.68-.85-.69-.85-.7-.84-.72-.84-.72-.84-.74-.84-.75-.84-.76-.83-.77-.83-.78-.82-.79-.83-.8-.82-.82-.82-.83-.82-.83-.81-.85-.81-.86-.81-.87-.81-.88-.81-.9-.8-.9-.8-.91-.79-.93-.8-.94-.79-.95-.79-.96-.79-.97-.78-.98-.78-.99-.78-1.01-.78-1.01-.77-1.03-.77-1.04-.77-1.05-.77-1.06-.76-1.07-.77-1.08-.76-1.1-.75-1.1-.76M216.97 292.68l-1.69.11-1.7.12-1.69.12-1.69.11-1.69.12-1.69.11-1.7.12-1.69.12-1.69.11-1.69.12-1.7.11-1.69.12-1.69.12-1.69.11-1.7.12-1.69.11-1.69.12-1.69.12-1.7.11-1.69.12-1.69.11-1.69.12-1.7.12-1.69.11-1.69.12-1.69.11-1.7.12-1.69.12-1.69.11-1.69.12-1.69.11-1.7.12-1.69.12-1.69.11-1.69.12-1.7.11-1.69.12-1.69.12-1.69.11-1.7.12-1.69.11-1.69.12-1.69.12-1.7.11-1.69.12-1.69.11-1.69.12-1.7.12-1.69.11-1.69.12-1.69.11-1.7.12-1.69.12-1.69.11-1.69.12-1.69.11-1.7.12-1.69.11-1.69.12-1.69.12-1.7.11-1.69.12-1.69.11-1.69.12-1.7.12-1.69.11-1.69.12-1.69.11-1.7.12-1.69.12-1.69.11-1.69.12-1.7.11-1.69.12-1.69.12-1.69.11-1.69.12-1.7.11-1.69.12-1.69.12-1.69.11-1.7.12-1.69.11-1.69.12-1.69.12-1.7.11-1.69.12-1.69.11-1.69.12-1.7.12-1.69.11-1.69.12-1.69.11-1.7.12-1.69.12-1.69.11-1.69.12-1.7.11-1.69.12" style="stroke-width:1.07;stroke:#000;stroke-opacity:.1;stroke-linecap:butt"/><path d="m216.97 292.68-.38-.92-.38-.92-.38-.91-.38-.92-.4-.92-.39-.91-.4-.91-.4-.92-.4-.91-.41-.91-.42-.91-.41-.91-.42-.91-.43-.9-.42-.91-.44-.91-.43-.9-.44-.91-.44-.9-.45-.9-.45-.9-.45-.91-.46-.9-.46-.89-.46-.9-.47-.9-.48-.9-.47-.89-.48-.9-.48-.89-.49-.9-.49-.89-.5-.89-.5-.89-.5-.89-.5-.89-.51-.89-.52-.89-.51-.88-.52-.89-.53-.88-.53-.89-.53-.88-.53-.88-.54-.88-.55-.89-.54-.88-.55-.87-.56-.88-.56-.88-.56-.88-.56-.87-.57-.88-.57-.87-.58-.87-.58-.88-.58-.87-.59-.87-.59-.87-.6-.87-.6-.87-.6-.86-.61-.87-.61-.87-.61-.86-.62-.86-.62-.87-.62-.86-.63-.86-.63-.86-.64-.86-.64-.86-.64-.86-.65-.86-.65-.85-.66-.86-.65-.85-.67-.86-.66-.85-.67-.85-.68-.85-.67-.85-.68-.85-.69-.85-.69-.85-.69-.85-.69-.84-.7-.85-.71-.84-.7-.85-.71-.84-.72-.84-.72-.85-.72-.84-.72-.84-.73-.83-.73-.84-.74-.84-.74-.84M216.97 292.68l-.31.95-.31.95-.3.95-.31.95-.31.95-.31.95-.3.95-.31.95-.31.95-.3.95-.31.95-.31.95-.31.95-.3.95-.31.95-.31.95-.31.95-.3.95-.31.95-.31.95-.31.95-.3.95-.31.95-.31.95-.31.95-.3.96-.31.95-.31.95-.31.95-.3.95-.31.95-.31.95-.31.95-.3.95-.31.95-.31.95-.31.95-.3.95-.31.95-.31.95-.31.95-.3.95-.31.95-.31.95-.31.95-.3.95-.31.95-.31.95-.3.95-.31.95-.31.95-.31.95-.3.95-.31.95-.31.95-.31.95-.3.95-.31.95-.31.95-.31.95-.3.95-.31.95-.31.96-.31.95-.3.95-.31.95-.31.95-.31.95-.3.95-.31.95-.31.95-.31.95-.3.95-.31.95-.31.95-.31.95-.3.95-.31.95-.31.95-.31.95-.3.95-.31.95-.31.95-.3.95-.31.95-.31.95-.31.95-.3.95-.31.95-.31.95-.31.95-.3.95-.31.95-.31.95-.31.95-.3.95-.31.95-.31.95-.31.95M216.97 292.68l-.74-.84-.74-.84-.73-.83-.73-.84-.72-.84-.73-.84-.71-.84-.72-.85-.71-.84-.71-.84-.7-.85-.7-.84-.69-.85-.7-.85-.68-.84-.69-.85-.68-.85-.68-.85-.67-.86-.67-.85-.66-.85-.67-.85-.65-.86-.66-.86-.65-.85-.65-.86-.64-.86-.64-.86-.64-.86-.63-.86-.63-.86-.62-.86-.62-.86-.62-.87-.62-.86-.6-.87-.61-.86-.6-.87-.6-.87-.6-.87-.59-.87-.59-.87-.58-.87-.58-.87-.58-.88-.57-.87-.57-.88-.56-.87-.57-.88-.55-.88-.56-.87-.55-.88-.55-.88-.54-.88-.54-.88-.53-.89-.54-.88-.52-.88-.53-.89-.52-.89-.52-.88-.51-.89-.51-.89-.5-.89-.51-.89-.49-.89-.5-.89-.49-.89-.49-.9-.48-.89-.48-.89-.48-.9-.47-.9-.47-.89-.46-.9-.46-.9-.46-.9-.45-.9-.45-.91-.45-.9-.44-.9-.44-.91-.44-.9-.43-.91-.43-.9-.42-.91-.42-.91-.42-.91-.41-.91-.41-.91-.4-.91-.4-.91-.4-.92-.4-.91-.39-.92-.38-.91-.39-.92-.38-.92-.37-.92M216.97 292.68l1.46.5 1.46.5 1.47.5 1.46.5 1.46.5 1.46.5 1.46.5 1.47.5 1.46.5 1.46.5 1.46.5 1.46.49 1.47.5 1.46.5 1.46.5 1.46.5 1.46.5 1.47.5 1.46.5 1.46.5 1.46.5 1.47.5 1.46.5 1.46.5 1.46.5 1.46.5 1.47.5 1.46.5 1.46.5 1.46.5 1.46.5 1.47.5 1.46.5 1.46.5 1.46.5 1.46.5 1.47.5 1.46.5 1.46.5 1.46.5 1.47.5 1.46.5 1.46.5 1.46.5 1.46.5 1.47.5 1.46.49 1.46.5 1.46.5 1.46.5 1.47.5 1.46.5 1.46.5 1.46.5 1.46.5 1.47.5 1.46.5 1.46.5 1.46.5 1.46.5 1.47.5 1.46.5 1.46.5 1.46.5 1.47.5 1.46.5 1.46.5 1.46.5 1.46.5 1.47.5 1.46.5 1.46.5 1.46.5 1.46.5 1.47.5 1.46.5 1.46.5 1.46.5 1.46.5 1.47.5 1.46.5 1.46.5 1.46.49 1.46.5 1.47.5 1.46.5 1.46.5 1.46.5 1.47.5 1.46.5 1.46.5 1.46.5 1.46.5 1.47.5 1.46.5 1.46.5 1.46.5 1.46.5 1.47.5" style="stroke-width:1.07;stroke:#000;stroke-opacity:.1;stroke-linecap:butt"/><path d="m216.97 292.68-1.11-.76-1.09-.75-1.08-.76-1.07-.76-1.06-.77-1.05-.76-1.04-.77-1.03-.78-1.01-.77-1.01-.78-.99-.78-.98-.78-.97-.78-.96-.79-.95-.79-.94-.79-.93-.79-.91-.8-.91-.8-.89-.8-.88-.81-.87-.8-.86-.81-.85-.82-.84-.81-.82-.82-.82-.82-.8-.82-.79-.82-.78-.83-.77-.83-.76-.83-.75-.84-.74-.83-.72-.84-.72-.85-.7-.84-.69-.85-.68-.85-.67-.85-.66-.85-.65-.86-.63-.86-.63-.86-.61-.87-.6-.87-.6-.87-.58-.87-.56-.87-.56-.88-.55-.88-.54-.88-.52-.89-.51-.89-.5-.89-.5-.89-.48-.89-.46-.9-.46-.9-.45-.9-.43-.91-.43-.91-.41-.91-.4-.91-.39-.91-.38-.92-.37-.92-.36-.92-.34-.93-.34-.93-.32-.93-.31-.93-.3-.94-.29-.93-.28-.94-.27-.95-.25-.94-.25-.95-.23-.95-.23-.95-.21-.96-.2-.96-.19-.96-.18-.96-.16-.97-.16-.96-.14-.97-.14-.98-.12-.97-.11-.98-.1-.98-.09-.98-.08-.99-.07-.99-.05-.99-.05-.99-.03-1-.02-1-.01-1M385.32 134.4l-.89.76-.89.75-.89.76-.89.75-.89.76-.89.76-.89.75-.9.76-.89.75-.89.76-.89.76-.89.75-.89.76-.89.75-.89.76-.89.75-.89.76-.89.76-.89.75-.89.76-.89.75-.89.76-.89.75-.89.76-.89.76-.89.75-.89.76-.89.75-.89.76-.89.75-.89.76-.89.76-.89.75-.89.76-.89.75-.89.76-.89.75-.89.76-.9.76-.89.75-.89.76-.89.75-.89.76-.89.75-.89.76-.89.76-.89.75-.89.76-.89.75-.89.76-.89.75-.89.76-.89.76-.89.75-.89.76-.89.75-.89.76-.89.76-.89.75-.89.76-.89.75-.89.76-.89.75-.89.76-.89.76-.89.75-.89.76-.89.75-.89.76-.9.75-.89.76-.89.76-.89.75-.89.76-.89.75-.89.76-.89.75-.89.76-.89.76-.89.75-.89.76-.89.75-.89.76-.89.75-.89.76-.89.76-.89.75-.89.76-.89.75-.89.76-.89.75-.89.76-.89.76-.89.75-.89.76-.89.75-.89.76-.89.75-.89.76M161.74 205.81l1.35.34 1.34.33 1.35.33 1.35.31 1.35.32 1.35.3 1.34.3 1.35.3 1.35.28 1.35.28 1.36.28 1.35.27 1.35.26 1.35.26 1.35.25 1.36.24 1.35.24 1.35.23 1.36.23 1.35.22 1.36.21 1.36.21 1.35.2 1.36.19 1.36.19 1.35.18 1.36.18 1.36.17 1.36.16 1.36.16 1.36.15 1.36.15 1.36.14 1.36.13 1.36.13 1.36.12 1.36.11 1.37.11 1.36.1 1.36.1 1.37.09 1.36.08 1.37.08 1.36.07 1.37.07 1.37.06 1.36.05 1.37.05 1.37.04 1.36.03 1.37.03 1.37.02 1.37.02 1.37.01h2.74l1.37-.01 1.37-.01 1.38-.03 1.37-.02 1.37-.04 1.38-.04 1.37-.04 1.37-.05 1.38-.06 1.37-.07 1.38-.07 1.37-.07 1.38-.09 1.38-.08 1.37-.1 1.38-.1 1.38-.11 1.38-.11 1.38-.12 1.38-.13 1.38-.13 1.38-.14 1.38-.14 1.38-.15 1.38-.16 1.38-.16 1.39-.17 1.38-.18 1.38-.18 1.39-.19 1.38-.19 1.39-.2 1.38-.21 1.39-.21 1.38-.22 1.39-.22 1.39-.23 1.38-.24 1.39-.24 1.39-.25 1.39-.26 1.39-.26 1.39-.27" style="stroke-width:1.07;stroke:#000;stroke-opacity:.1;stroke-linecap:butt"/><path d="m161.74 205.81 1.36.14 1.36.13 1.36.13 1.36.13 1.37.13 1.36.12 1.36.13 1.36.12 1.36.12 1.36.11 1.37.12 1.36.11 1.36.11 1.36.11 1.37.11 1.36.1 1.36.1 1.37.1 1.36.1 1.36.1 1.37.09 1.36.09 1.37.09 1.36.09 1.37.09 1.36.08 1.36.08 1.37.08 1.36.08 1.37.07 1.36.08 1.37.07 1.37.07 1.36.07 1.37.06 1.36.07 1.37.06 1.37.06 1.36.05 1.37.06 1.37.05 1.36.05 1.37.05 1.37.05 1.36.04 1.37.04 1.37.04 1.37.04 1.36.04 1.37.03 1.37.04 1.37.03 1.37.02 1.37.03 1.36.03 1.37.02 1.37.02 1.37.02 1.37.01 1.37.01 1.37.02 1.37.01h1.37l1.37.01h6.8500000000000005l1.37-.01 1.38-.01 1.37-.01 1.37-.01 1.37-.02 1.37-.01 1.37-.02 1.37-.02 1.38-.03 1.37-.02 1.37-.03 1.37-.03 1.38-.03 1.37-.03 1.37-.04 1.38-.04 1.37-.04 1.37-.04 1.38-.04 1.37-.05 1.37-.05 1.38-.05 1.37-.05 1.38-.05 1.37-.06 1.38-.06 1.37-.06 1.38-.06 1.37-.06 1.38-.07M161.74 205.81l1.37-.06 1.38-.07 1.37-.06 1.38-.06 1.37-.06 1.38-.05 1.37-.06 1.38-.05 1.37-.05 1.37-.05 1.38-.04 1.37-.05 1.38-.04 1.37-.04 1.37-.04 1.37-.03 1.38-.03 1.37-.04 1.37-.03 1.38-.02 1.37-.03 1.37-.02 1.37-.02 1.37-.02 1.38-.02 1.37-.01 1.37-.02 1.37-.01 1.37-.01h1.37l1.37-.01h4.11l1.37.01h1.37l1.37.01 1.37.01 1.37.01 1.37.01 1.37.02 1.37.02 1.37.02 1.37.02 1.37.02 1.37.03 1.37.03 1.36.03 1.37.03 1.37.04 1.37.03 1.37.04 1.36.04 1.37.04 1.37.05 1.37.04 1.36.05 1.37.05 1.37.06 1.36.05 1.37.06 1.37.06 1.36.06 1.37.06 1.36.07 1.37.07 1.36.06 1.37.08 1.37.07 1.36.08 1.37.07 1.36.08 1.36.08 1.37.09 1.36.08 1.37.09 1.36.09 1.37.09 1.36.1 1.36.09 1.37.1 1.36.1 1.36.1 1.37.11 1.36.11 1.36.1 1.37.11 1.36.12 1.36.11 1.36.12 1.36.12 1.37.12 1.36.12 1.36.13 1.36.12 1.36.13 1.36.13 1.36.14 1.37.13" style="stroke-width:1.07;stroke:#000;stroke-opacity:.1;stroke-linecap:butt"/><path d="m161.74 205.81 1.39-.26 1.39-.27 1.39-.25 1.38-.25 1.39-.24 1.39-.24 1.39-.23 1.38-.23 1.39-.21 1.38-.22 1.39-.2 1.38-.2 1.39-.2 1.38-.19 1.39-.18 1.38-.17 1.38-.17 1.38-.16 1.38-.16 1.39-.15 1.38-.15 1.38-.13 1.38-.14 1.38-.12 1.38-.12 1.37-.12 1.38-.1 1.38-.11 1.38-.09 1.37-.09 1.38-.08 1.38-.08 1.37-.07 1.38-.06 1.37-.06 1.38-.05 1.37-.05 1.37-.04 1.38-.03 1.37-.03 1.37-.02 1.37-.02h1.37l1.37-.01 1.37.01 1.37.01 1.37.01 1.37.02 1.37.03 1.37.04 1.37.04 1.36.04 1.37.06 1.37.06 1.36.06 1.37.07 1.36.08 1.37.08 1.36.09 1.36.1 1.37.1 1.36.11 1.36.12 1.36.12 1.37.12 1.36.14 1.36.14 1.36.14 1.36.15 1.36.16 1.36.16 1.35.17 1.36.18 1.36.18 1.36.19 1.35.2 1.36.2 1.36.21 1.35.21 1.36.22 1.35.22 1.35.24 1.36.23 1.35.25 1.35.25 1.36.25 1.35.27 1.35.27 1.35.27 1.35.28 1.35.29 1.35.29 1.35.3 1.35.31 1.35.31 1.34.32 1.35.32 1.35.33 1.35.34" style="stroke-width:1.07;stroke:#000;stroke-opacity:.1;stroke-linecap:butt"/><path d="m216.97 282.17 9.1 15.76h-18.2zM385.32 132.19l1.91 3.32h-3.83z" style="stroke-width:.71;stroke:none;fill:#00ba38"/><path d="M154.98 212.57h13.52v-13.51h-13.52z" style="stroke-width:.71;stroke:none;fill:#619cff"/><circle cx="297.18" cy="209.22" r="4.5" style="stroke-width:.71;stroke:none;fill:#f8766d"/><circle cx="49.42" cy="304.16" r="1.42" style="stroke-width:.71;stroke:none;fill:#f8766d"/><circle cx="186.53" cy="386.75" r="1.42" style="stroke-width:.71;stroke:none;fill:#f8766d"/><circle cx="361.72" cy="342.15" r="1.42" style="stroke-width:.71;stroke:none;fill:#f8766d"/><path d="m211.15 297.27 4.9-3.87M379.52 138.97l4.88-3.84M155.92 210.4l4.9-3.86M291.39 213.79l4.86-3.84M192.34 382.18l-4.89 3.85M363.94 337.56l-1.77 3.65" style="stroke-width:.53;stroke:#bfbfbf"/><path d="M162.32 316.75h71.12-.09l.35-.02.34-.07.33-.12.3-.17.27-.22.23-.26.18-.3.14-.32.08-.34.03-.34v-15.16l-.03-.35-.08-.33-.14-.32-.18-.3-.23-.26-.27-.22-.3-.17-.33-.12-.34-.07-.26-.02h-71.12l.26.02-.35-.02-.34.04-.34.1-.31.15-.29.2-.25.24-.21.28-.16.3-.11.33-.06.35v15.33-.18.35l.06.34.11.33.16.31.21.28.25.24.29.2.31.15.34.09.34.05z" style="stroke-width:.53;fill:#fff;fill-opacity:.5"/><text x="197.88" y="304.95" lengthAdjust="spacingAndGlyphs" style="font-size:5.69px;font-family:&quot;Arial&quot;" text-anchor="middle" textLength="68.24">NACIONAL TAX SERVICE</text><text x="197.88" y="313.15" lengthAdjust="spacingAndGlyphs" style="font-size:5.69px;font-family:&quot;Arial&quot;" text-anchor="middle" textLength="10.43">LLC</text><path d="M343.98 158.45h44.58-.09l.35-.01.34-.07.33-.13.3-.17.27-.22.23-.26.18-.3.14-.31.08-.34.03-.35v-15.16l-.03-.34-.08-.34-.14-.32-.18-.29-.23-.26-.27-.22-.3-.18-.33-.12-.34-.07-.26-.02h-44.58l.26.02-.35-.01-.34.04-.34.09-.31.15-.29.2-.25.24-.21.28-.16.31-.11.33-.05.34-.01.17v15.16l.01-.17v.34l.05.35.11.33.16.31.21.27.25.24.29.2.31.15.34.1.34.04z" style="stroke-width:.53;fill:#fff;fill-opacity:.5"/><text x="366.27" y="146.66" lengthAdjust="spacingAndGlyphs" style="font-size:5.69px;font-family:&quot;Arial&quot;" text-anchor="middle" textLength="41.7">NACIONAL TAX</text><text x="366.27" y="154.85" lengthAdjust="spacingAndGlyphs" style="font-size:5.69px;font-family:&quot;Arial&quot;" text-anchor="middle" textLength="40.76">SERVICES LLC</text><path d="M109.16 229.88h67.02-.09l.35-.01.34-.07.32-.13.31-.17.26-.22.23-.26.19-.3.14-.32.08-.33.03-.35v-15.16l-.03-.34-.08-.34-.14-.32-.19-.29-.23-.26-.26-.22-.31-.18-.32-.12-.34-.07-.26-.02h-67.02l.26.02-.35-.01-.34.04-.34.09-.31.15-.29.2-.25.24-.21.28-.16.31-.11.33-.05.34-.01.17v15.16l.01-.17v.34l.05.35.11.33.16.31.21.27.25.24.29.2.31.15.34.1.34.04z" style="stroke-width:.53;fill:#fff;fill-opacity:.5"/><text x="142.67" y="218.09" lengthAdjust="spacingAndGlyphs" style="font-size:5.69px;font-family:&quot;Arial&quot;" text-anchor="middle" textLength="64.14">3303 W NATIONAL AVE,</text><text x="142.67" y="226.28" lengthAdjust="spacingAndGlyphs" style="font-size:5.69px;font-family:&quot;Arial&quot;" text-anchor="middle" textLength="61.61">MILWAUKEE, WI 53215</text><path d="M244.63 233.26h67.02-.09l.35-.01.34-.07.32-.13.3-.17.27-.22.23-.26.19-.29.13-.32.09-.34.03-.35v-15.15l-.03-.35-.09-.34-.13-.32-.19-.29-.23-.26-.27-.22-.3-.18-.32-.12-.34-.07-.26-.01h-67.02l.26.01-.35-.01-.34.04-.34.1-.31.14-.29.2-.25.24-.21.28-.16.31-.11.33-.06.34v15.33-.17.35l.06.34.11.33.16.31.21.27.25.25.29.19.31.15.34.1.34.04z" style="stroke-width:.53;fill:#fff;fill-opacity:.5"/><text x="278.14" y="221.47" lengthAdjust="spacingAndGlyphs" style="font-size:5.69px;font-family:&quot;Arial&quot;" text-anchor="middle" textLength="64.14">3303 W NATIONAL AVE,</text><text x="278.14" y="229.66" lengthAdjust="spacingAndGlyphs" style="font-size:5.69px;font-family:&quot;Arial&quot;" text-anchor="middle" textLength="61.61">MILWAUKEE, WI 53215</text><path d="M56.43 313.84h64.49-.08l.34-.02.34-.07.33-.12.3-.17.27-.22.23-.26.19-.3.13-.32.08-.33.03-.35v-15.16l-.03-.34-.08-.34-.13-.32-.19-.29-.23-.26-.27-.22-.3-.18-.33-.12-.34-.07-.26-.02H56.43l.26.02-.34-.01-.35.04-.33.09-.32.15-.28.2-.25.24-.21.28-.16.31-.12.33-.05.34-.01.17v15.16l.01-.17v.34l.05.35.12.33.16.3.21.28.25.24.28.2.32.15.33.1.35.04z" style="stroke-width:.53;fill:#fff;fill-opacity:.5"/><text x="88.68" y="302.05" lengthAdjust="spacingAndGlyphs" style="font-size:5.69px;font-family:&quot;Arial&quot;" text-anchor="middle" textLength="43.92">2071 S 25TH ST,</text><text x="88.68" y="310.24" lengthAdjust="spacingAndGlyphs" style="font-size:5.69px;font-family:&quot;Arial&quot;" text-anchor="middle" textLength="61.61">MILWAUKEE, WI 53204</text><path d="M173.33 382.18h64.49-.08l.34-.02.34-.07.33-.12.3-.17.27-.22.23-.26.19-.3.13-.32.09-.34.02-.34v-15.16l-.02-.35-.09-.33-.13-.32-.19-.3-.23-.26-.27-.22-.3-.17-.33-.12-.34-.07-.26-.02h-64.49l.26.02-.34-.02-.35.04-.33.1-.32.15-.28.2-.25.24-.21.28-.16.3-.11.33-.06.35-.01.17v15.16l.01-.18v.35l.06.34.11.33.16.31.21.28.25.24.28.2.32.15.33.09.35.05z" style="stroke-width:.53;fill:#fff;fill-opacity:.5"/><text x="205.58" y="370.38" lengthAdjust="spacingAndGlyphs" style="font-size:5.69px;font-family:&quot;Arial&quot;" text-anchor="middle" textLength="43.92">3170 S 38TH ST,</text><text x="205.58" y="378.58" lengthAdjust="spacingAndGlyphs" style="font-size:5.69px;font-family:&quot;Arial&quot;" text-anchor="middle" textLength="61.61">MILWAUKEE, WI 53215</text><path d="M331.86 337.56h64.49-.08l.34-.02.34-.07.33-.12.3-.17.27-.22.23-.26.18-.3.14-.32.08-.33.03-.35v-15.16l-.03-.34-.08-.34-.14-.32-.18-.3-.23-.26-.27-.22-.3-.17-.33-.12-.34-.07-.26-.02h-64.49l.26.02-.35-.02-.34.05-.33.09-.32.15-.28.2-.26.24-.2.28-.17.31-.11.33-.05.34-.01.17v15.16l.01-.17v.34l.05.35.11.33.17.3.2.28.26.24.28.2.32.15.33.1.34.04z" style="stroke-width:.53;fill:#fff;fill-opacity:.5"/><text x="364.11" y="325.76" lengthAdjust="spacingAndGlyphs" style="font-size:5.69px;font-family:&quot;Arial&quot;" text-anchor="middle" textLength="58.77">3303 W NATONAL AV,</text><text x="364.11" y="333.96" lengthAdjust="spacingAndGlyphs" style="font-size:5.69px;font-family:&quot;Arial&quot;" text-anchor="middle" textLength="61.61">MILWAUKEE, WI 53215</text></g><g clip-path="url(#cpMC4wMHw0MzIuMDB8MC4wMHw0MzIuMDA=)"><circle cx="124.98" cy="96.71" r="1.95" style="stroke-width:.71;stroke:none;fill:#f8766d"/><path d="m201.33 93.67 2.63 4.56h-5.26z" style="stroke-width:.71;stroke:none;fill:#00ba38"/><path d="M267.31 98.66h3.91v-3.91h-3.91z" style="stroke-width:.71;stroke:none;fill:#619cff"/><text x="139.09" y="99.86" lengthAdjust="spacingAndGlyphs" style="font-size:8.8px;font-family:&quot;Arial Narrow&quot;" textLength="48.12">mprop address</text><text x="215.45" y="99.86" lengthAdjust="spacingAndGlyphs" style="font-size:8.8px;font-family:&quot;Arial Narrow&quot;" textLength="39.69">owner name</text><text x="283.38" y="99.86" lengthAdjust="spacingAndGlyphs" style="font-size:8.8px;font-family:&quot;Arial Narrow&quot;" textLength="40.5">wdfi address</text><text x="32.63" y="65.12" lengthAdjust="spacingAndGlyphs" style="font-size:12px;font-family:&quot;Arial Narrow&quot;" textLength="241.29">includes 5 parcels, 8 units, and 2 distinct owner names.</text><text x="32.63" y="42.78" lengthAdjust="spacingAndGlyphs" style="font-size:18px;font-weight:700;font-family:&quot;Arial Narrow&quot;" textLength="259.96">NACIONAL TAX SERVICE LLC Group</text></g></svg>