<svg xmlns="http://www.w3.org/2000/svg" width="960" height="960" class="svglite" viewBox="0 0 720 720"><defs><style>.svglite circle,.svglite line,.svglite polygon,.svglite polyline,.svglite rect{fill:none;stroke:#000;stroke-linecap:round;stroke-linejoin:round;stroke-miterlimit:10}.svglite text{white-space:pre}</style></defs><rect width="100%" height="100%" style="stroke:none;fill:#fff"/><defs><clipPath id="cpMC4wMHw3MjAuMDB8MC4wMHw3MjAuMDA="><path d="M0 0h720v720H0z"/></clipPath></defs><g clip-path="url(#cpMC4wMHw3MjAuMDB8MC4wMHw3MjAuMDA=)"><path d="M0 0h720v720H0z" style="stroke-width:1.07;stroke:none;fill:#fff"/></g><defs><clipPath id="cpMzIuNjN8NjkwLjExfDEyMC44Nnw2ODcuMzc="><path d="M32.63 120.86h657.48v566.51H32.63z"/></clipPath></defs><g clip-path="url(#cpMzIuNjN8NjkwLjExfDEyMC44Nnw2ODcuMzc=)"><path d="m154.71 466.47-.94-.33-.93-.32-.93-.33-.93-.33-.93-.33-.93-.33-.93-.32-.93-.33-.94-.33-.93-.33-.93-.33-.93-.32-.93-.33-.93-.33-.93-.33-.93-.33-.94-.32-.93-.33-.93-.33-.93-.33-.93-.32-.93-.33-.93-.33-.93-.33-.94-.33-.93-.32-.93-.33-.93-.33-.93-.33-.93-.33-.93-.32-.93-.33-.94-.33-.93-.33-.93-.33-.93-.32-.93-.33-.93-.33-.93-.33-.93-.33-.94-.32-.93-.33-.93-.33-.93-.33-.93-.32-.93-.33-.93-.33-.93-.33-.93-.33-.94-.32-.93-.33-.93-.33-.93-.33-.93-.33-.93-.32-.93-.33-.93-.33-.94-.33-.93-.33-.93-.32-.93-.33-.93-.33-.93-.33-.93-.33-.93-.32-.94-.33-.93-.33-.93-.33-.93-.32-.93-.33-.93-.33-.93-.33-.93-.33-.94-.32-.93-.33-.93-.33-.93-.33-.93-.33-.93-.32-.93-.33-.93-.33-.94-.33-.93-.33-.93-.32-.93-.33-.93-.33-.93-.33-.93-.32-.93-.33-.94-.33-.93-.33-.93-.33-.93-.32-.93-.33-.93-.33-.93-.33-.93-.33-.94-.32-.93-.33M154.71 466.47l.53-.22.53-.23.53-.22.53-.23.53-.23.53-.22.53-.23.53-.23.53-.23.52-.24.53-.23.53-.23.52-.23.53-.24.52-.23.52-.24.53-.24.52-.24.52-.23.52-.24.52-.24.52-.25.52-.24.51-.24.52-.24.52-.25.51-.24.52-.25.51-.25.52-.25.51-.24.51-.25.52-.25.51-.26.51-.25.51-.25.51-.25.51-.26.5-.25.51-.26.51-.26.5-.26.51-.25.5-.26.51-.26.5-.27.5-.26.51-.26.5-.26.5-.27.5-.26.5-.27.5-.27.5-.26.49-.27.5-.27.5-.27.49-.27.5-.28.49-.27.5-.27.49-.28.49-.27.49-.28.49-.28.49-.27.49-.28.49-.28.49-.28.49-.28.49-.28.48-.29.49-.28.48-.29.49-.28.48-.29.49-.28.48-.29.48-.29.48-.29.48-.29.48-.29.48-.29.48-.29.48-.3.48-.29.47-.3.48-.29.47-.3.48-.3.47-.3.48-.3.47-.3.47-.3.47-.3.47-.3.47-.3.47-.31.47-.3M222.37 579.31l.39-.85.39-.85.38-.86.39-.85.39-.85.39-.85.39-.86.38-.85.39-.85.39-.85.39-.86.39-.85.39-.85.38-.85.39-.86.39-.85.39-.85.39-.85.39-.86.38-.85.39-.85.39-.85.39-.86.39-.85.39-.85.38-.85.39-.85.39-.86.39-.85.39-.85.39-.85.38-.86.39-.85.39-.85.39-.85.39-.86.39-.85.38-.85.39-.85.39-.86.39-.85.39-.85.39-.85.38-.86.39-.85.39-.85.39-.85.39-.86.39-.85.38-.85.39-.85.39-.86.39-.85.39-.85.39-.85.38-.85.39-.86.39-.85.39-.85.39-.85.39-.86.38-.85.39-.85.39-.85.39-.86.39-.85.39-.85.38-.85.39-.86.39-.85.39-.85.39-.85.39-.86.38-.85.39-.85.39-.85.39-.86.39-.85.39-.85.38-.85.39-.86.39-.85.39-.85.39-.85.39-.86.38-.85.39-.85.39-.85.39-.85.39-.86.39-.85.38-.85.39-.85.39-.86.39-.85.39-.85.39-.85.38-.86.39-.85M222.37 579.31l.48.77.48.76.48.77.49.76.49.76.49.76.5.76.49.75.5.76.5.75.51.75.51.75.51.75.51.75.51.75.52.74.52.74.52.74.53.74.53.74.53.74.53.73.54.74.53.73.54.73.55.73.54.73.55.72.55.73.56.72.55.72.56.72.56.72.57.72.56.72.57.71.57.71.58.71.57.71.58.71.58.71.59.7.58.71.59.7.6.7.59.7.6.7.6.7.6.69.6.69.61.69.61.7.61.68.62.69.62.69.62.68.62.68.62.69.63.68.63.67.64.68.63.68.64.67.64.67.64.67.65.67.65.67.65.67.65.66.66.66.66.67.66.66.66.65.67.66.67.66.67.65.67.65.68.66.68.65.68.64.68.65.69.65.69.64.69.64.7.64.69.64.7.64.71.64.7.63.71.63.71.64.71.63.71.62.72.63.72.63.73.62.72.62.73.63.73.62M222.37 579.31l-1.06-.02-1.06-.01-1.06-.02-1.06-.02-1.07-.01-1.06-.02-1.06-.02-1.06-.02-1.06-.01-1.06-.02-1.06-.02-1.06-.01-1.06-.02-1.06-.02-1.06-.01-1.07-.02-1.06-.02-1.06-.01-1.06-.02-1.06-.02-1.06-.02-1.06-.01-1.06-.02-1.06-.02-1.06-.01-1.06-.02-1.06-.02-1.07-.01-1.06-.02-1.06-.02-1.06-.02-1.06-.01-1.06-.02-1.06-.02-1.06-.01-1.06-.02-1.06-.02-1.06-.01-1.06-.02-1.07-.02-1.06-.02-1.06-.01-1.06-.02-1.06-.02-1.06-.01-1.06-.02-1.06-.02-1.06-.01-1.06-.02-1.06-.02-1.06-.02-1.07-.01-1.06-.02-1.06-.02-1.06-.01-1.06-.02-1.06-.02-1.06-.01-1.06-.02-1.06-.02-1.06-.02-1.06-.01-1.06-.02-1.07-.02-1.06-.01-1.06-.02-1.06-.02-1.06-.01-1.06-.02-1.06-.02-1.06-.01-1.06-.02-1.06-.02-1.06-.02-1.06-.01-1.07-.02-1.06-.02-1.06-.01-1.06-.02-1.06-.02-1.06-.01-1.06-.02-1.06-.02-1.06-.02-1.06-.01-1.06-.02-1.06-.02-1.07-.01-1.06-.02-1.06-.02-1.06-.01-1.06-.02-1.06-.02-1.06-.02-1.06-.01-1.06-.02-1.06-.02-1.06-.01-1.06-.02" style="stroke-width:1.07;stroke:#000;stroke-opacity:.1;stroke-linecap:butt"/><path d="m222.37 579.31.56.72.56.72.57.71.56.72.57.71.57.72.57.71.57.72.56.71.58.72.57.71.57.71.57.71.58.71.57.72.58.71.57.71.58.7.58.71.58.71.58.71.58.71.58.7.58.71.59.71.58.7.59.71.58.7.59.7.59.71.58.7.59.7.59.7.6.71.59.7.59.7.59.7.6.7.59.69.6.7.6.7.59.7.6.69.6.7.6.7.6.69.61.7.6.69.6.69.61.7.6.69.61.69.61.69.61.7.61.69.61.69.61.69.61.69.61.68.61.69.62.69.61.69.62.68.61.69.62.69.62.68.62.69.62.68.62.68.62.69.63.68.62.68.62.68.63.69.63.68.62.68.63.68.63.68.63.68.63.67.63.68.63.68.64.68.63.67.63.68.64.67.64.68.63.67.64.68.64.67.64.67.64.67.64.68.64.67.65.67.64.67.65.67.64.67.65.67M660.23 216.98l-1.04.09-1.03.09-1.03.1-1.03.1-1.03.1-1.02.11-1.03.1-1.03.11-1.02.11-1.03.12-1.02.11-1.03.12-1.02.12-1.02.13-1.02.12-1.02.13-1.02.13-1.02.14-1.02.13-1.02.14-1.01.14-1.02.15-1.01.14-1.02.15-1.01.15-1.01.16-1.01.15-1.01.16-1.01.16-1.01.16-1.01.17-1.01.17-1.01.17-1 .17-1.01.18-1 .18-1.01.18-1 .18-1 .19-1 .18-1 .19-1 .2-1 .19-1 .2-1 .2-.99.2-1 .21-.99.21-1 .21-.99.21-1 .21-.99.22-.99.22-.99.22-.99.23-.99.23-.98.22-.99.24-.99.23-.98.24-.99.24-.98.24-.99.25-.98.24-.98.25-.98.25-.98.26-.98.26-.98.26-.98.26-.97.26-.98.27-.98.27-.97.27-.97.27-.98.28-.97.28-.97.28-.97.29-.97.28-.97.29-.97.29-.97.3-.96.29-.97.3-.96.3-.97.31-.96.3-.97.31-.96.31-.96.32-.96.31-.96.32-.96.32-.96.33-.95.32-.96.33-.96.33-.95.33" style="stroke-width:1.07;stroke:#000;stroke-opacity:.1;stroke-linecap:butt"/><path d="m660.23 216.98-1.01.17-1.01.17-1 .18-1.01.17-1 .18-1.01.18-1 .17-1.01.18-1 .18-1.01.18-1 .18-1 .18-1.01.18-1 .19-1 .18-1 .18-1.01.19-1 .19-1 .18-1 .19-1 .19-1 .19-1 .19-1 .19-1 .19-1 .2-1 .19-1 .19-1 .2-1 .2-1 .19-1 .2-.99.2-1 .2-1 .2-1 .2-.99.2-1 .2-1 .21-.99.2-1 .21-.99.2-1 .21-1 .21-.99.21-.99.21-1 .21-.99.21-1 .21-.99.21-.99.21-1 .22-.99.21-.99.22-.99.22-1 .21-.99.22-.99.22-.99.22-.99.22-.99.22-.99.23-.99.22-.99.22-.99.23-.99.22-.99.23-.99.23-.99.23-.98.23-.99.23-.99.23-.99.23-.99.23-.98.23-.99.24-.99.23-.98.24-.99.23-.98.24-.99.24-.98.24-.99.24-.98.24-.99.24-.98.24-.99.24-.98.25-.98.24-.99.25-.98.24-.98.25-.98.25-.98.25-.99.25-.98.25-.98.25-.98.25-.98.25M473.81 602.88l-.58-.74-.57-.73-.58-.73-.58-.73-.58-.73-.58-.73-.57-.74-.58-.73-.58-.73-.58-.73-.57-.73-.58-.73-.58-.74-.58-.73-.57-.73-.58-.73-.58-.73-.58-.73-.58-.74-.57-.73-.58-.73-.58-.73-.58-.73-.57-.74-.58-.73-.58-.73-.58-.73-.57-.73-.58-.73-.58-.74-.58-.73-.58-.73-.57-.73-.58-.73-.58-.73-.58-.74-.57-.73-.58-.73-.58-.73-.58-.73-.57-.73-.58-.74-.58-.73-.58-.73-.58-.73-.57-.73-.58-.74-.58-.73-.58-.73-.57-.73-.58-.73-.58-.73-.58-.74-.57-.73-.58-.73-.58-.73-.58-.73-.58-.73-.57-.74-.58-.73-.58-.73-.58-.73-.57-.73-.58-.73-.58-.74-.58-.73-.57-.73-.58-.73-.58-.73-.58-.74-.58-.73-.57-.73-.58-.73-.58-.73-.58-.73-.57-.74-.58-.73-.58-.73-.58-.73-.57-.73-.58-.73-.58-.74-.58-.73-.58-.73-.57-.73-.58-.73-.58-.73-.58-.74-.57-.73-.58-.73-.58-.73-.58-.73-.57-.74-.58-.73-.58-.73-.58-.73-.58-.73-.57-.73-.58-.74" style="stroke-width:1.07;stroke:#000;stroke-opacity:.1;stroke-linecap:butt"/><path d="m660.23 216.98-.98.25-.99.25-.98.25-.98.26-.98.24-.98.25-.98.25-.99.25-.98.24-.98.25-.99.25-.98.24-.98.24-.99.24-.98.25-.99.24-.98.24-.99.23-.98.24-.99.24-.98.24-.99.23-.98.24-.99.23-.99.23-.99.24-.98.23-.99.23-.99.23-.99.23-.99.23-.98.22-.99.23-.99.22-.99.23-.99.22-.99.23-.99.22-.99.22-.99.22-1 .22-.99.22-.99.22-.99.22-.99.21-1 .22-.99.21-.99.22-.99.21-1 .21-.99.22-1 .21-.99.21-.99.21-1 .21-.99.2-1 .21-1 .21-.99.2-1 .21-.99.2-1 .2-1 .2-.99.2-1 .2-1 .2-1 .2-1 .2-.99.2-1 .19-1 .2-1 .19-1 .2-1 .19-1 .19-1 .19-1 .19-1 .19-1 .19-1 .19-1.01.19-1 .18-1 .19-1 .18-1.01.19-1 .18-1 .18-1 .18-1.01.18-1 .18-1.01.18-1 .18-1.01.18-1 .17-1.01.18-1 .18-1.01.17-1 .17-1.01.17" style="stroke-width:1.07;stroke:#000;stroke-opacity:.1;stroke-linecap:butt"/><path d="m564.95 156.41-.03.82-.03.82-.03.83-.03.82-.03.83-.03.82-.03.83-.03.82-.04.83-.03.82-.03.82-.03.83-.03.82-.03.83-.03.82-.03.83-.04.82-.03.83-.03.82-.03.82-.03.83-.03.82-.03.83-.03.82-.03.83-.04.82-.03.83-.03.82-.03.82-.03.83-.03.82-.03.83-.03.82-.04.83-.03.82-.03.83-.03.82-.03.82-.03.83-.03.82-.03.83-.03.82-.04.83-.03.82-.03.83-.03.82-.03.82-.03.83-.03.82-.03.83-.03.82-.04.83-.03.82-.03.83-.03.82-.03.82-.03.83-.03.82-.03.83-.04.82-.03.83-.03.82-.03.83-.03.82-.03.82-.03.83-.03.82-.03.83-.04.82-.03.83-.03.82-.03.83-.03.82-.03.82-.03.83-.03.82-.03.83-.04.82-.03.83-.03.82-.03.82-.03.83-.03.82-.03.83-.03.82-.04.83-.03.82-.03.83-.03.82-.03.82-.03.83-.03.82-.03.83-.03.82-.04.83-.03.82-.03.83-.03.82-.03.82M495.91 306.46l.66-.7.67-.69.67-.69.66-.69.67-.69.67-.69.66-.69.67-.69.66-.7.67-.69.67-.69.66-.69.67-.69.67-.69.66-.69.67-.69.67-.7.66-.69.67-.69.66-.69.67-.69.67-.69.66-.69.67-.69.67-.69.66-.7.67-.69.66-.69.67-.69.67-.69.66-.69.67-.69.67-.69.66-.7.67-.69.66-.69.67-.69.67-.69.66-.69.67-.69.67-.69.66-.7.67-.69.66-.69.67-.69.67-.69.66-.69.67-.69.67-.69.66-.7.67-.69.66-.69.67-.69.67-.69.66-.69.67-.69.67-.69.66-.7.67-.69.66-.69.67-.69.67-.69.66-.69.67-.69.67-.69.66-.69.67-.7.67-.69.66-.69.67-.69.66-.69.67-.69.67-.69.66-.69.67-.7.67-.69.66-.69.67-.69.66-.69.67-.69.67-.69.66-.69.67-.7.67-.69.66-.69.67-.69.66-.69.67-.69.67-.69.66-.69.67-.7.67-.69.66-.69.67-.69.66-.69.67-.69.67-.69.66-.69.67-.7M495.91 306.46l-.59.73-.59.74-.59.73-.59.73-.59.74-.59.73-.59.74-.59.73-.59.74-.59.73-.59.74-.59.73-.59.74-.59.73-.59.74-.59.73-.59.74-.59.73-.59.74-.59.73-.59.74-.59.73-.59.74-.59.73-.59.73-.59.74-.59.73-.59.74-.59.73-.59.74-.59.73-.59.74-.59.73-.59.74-.59.73-.59.74-.59.73-.59.74-.58.73-.59.74-.59.73-.59.74-.59.73-.59.73-.59.74-.59.73-.59.74-.59.73-.59.74-.59.73-.59.74-.59.73-.59.74-.59.73-.59.74-.59.73-.59.74-.59.73-.59.74-.59.73-.59.74-.59.73-.59.74-.59.73-.59.73-.59.74-.59.73-.59.74-.59.73-.59.74-.59.73-.59.74-.59.73-.59.74-.59.73-.59.74-.59.73-.59.74-.59.73-.59.74-.59.73-.59.74-.59.73-.59.73-.59.74-.59.73-.59.74-.59.73-.59.74-.59.73-.59.74-.59.73-.59.74-.59.73-.59.74-.58.73-.59.74-.59.73-.59.74M363.48 455.77l.4.82.4.82.41.81.41.82.41.81.41.81.42.82.42.81.42.81.43.8.42.81.43.8.44.81.43.8.44.8.44.8.45.8.45.79.45.8.45.79.46.8.45.79.47.79.46.79.47.79.47.78.47.79.47.78.48.78.48.78.49.78.48.78.49.78.5.77.49.78.5.77.5.77.5.77.51.77.51.77.51.76.51.77.52.76.52.76.52.77.53.76.53.75.53.76.53.76.54.75.54.75.54.75.55.75.54.75.55.75.56.75.55.74.56.75.57.74.56.74.57.74.57.74.57.73.58.74.58.73.58.74.58.73.59.73.59.73.59.72.6.73.59.73.61.72.6.72.61.72.6.72.62.72.61.72.62.71.62.72.62.71.63.71.63.71.63.71.63.71.64.7.64.71.64.7.65.71.65.7.65.7.65.69.66.7.66.7.66.69.67.69.67.7.67.69.67.68M363.48 455.77l.93-.65.94-.66.92-.66.93-.66.92-.66.91-.66.91-.67.91-.67.91-.67.9-.68.89-.67.9-.68.88-.68.89-.69.88-.68.88-.69.87-.7.87-.69.87-.7.86-.7.86-.7.85-.7.85-.71.85-.71.85-.71.83-.71.84-.72.83-.72.83-.72.82-.72.82-.73.82-.73.81-.73.81-.74.81-.73.8-.74.8-.74.79-.75.79-.74.79-.75.78-.75.78-.76.77-.75.77-.76.77-.76.76-.76.76-.77.76-.77.75-.77.75-.77.74-.78.74-.78.74-.78.73-.78.73-.79.72-.79.72-.79.72-.79.71-.8.71-.79.71-.8.7-.81.7-.8.7-.81.69-.81.68-.82.69-.81.67-.82.68-.82.67-.82.67-.83.66-.83.66-.83.66-.83.65-.83.65-.84.65-.84.64-.84.63-.85.64-.85.63-.85.62-.85.62-.86.62-.85.62-.86.61-.87.6-.86.61-.87.6-.87.59-.87.59-.88.59-.87.58-.88.58-.89.58-.88.57-.89.57-.89.56-.89.57-.89" style="stroke-width:1.07;stroke:#000;stroke-opacity:.1;stroke-linecap:butt"/><path d="m363.48 455.77.49.77.49.78.5.77.49.78.49.77.5.78.5.77.49.77.5.78.5.77.5.77.51.77.5.77.5.77.5.77.51.77.51.77.5.77.51.77.51.76.51.77.51.77.51.76.51.77.52.76.51.77.52.76.51.77.52.76.52.76.52.77.52.76.52.76.52.76.52.76.53.76.52.76.53.76.52.76.53.76.53.76.53.76.53.75.53.76.53.76.54.75.53.76.54.75.53.76.54.75.54.76.53.75.54.75.54.75.55.76.54.75.54.75.55.75.54.75.55.75.54.75.55.75.55.75.55.74.55.75.55.75.56.75.55.74.55.75.56.74.56.75.55.74.56.75.56.74.56.74.56.75.56.74.57.74.56.74.56.74.57.74.57.74.56.74.57.74.57.74.57.74.57.74.57.73.58.74.57.74.58.73.57.74.58.73.58.74.58.73.58.74.58.73.58.73.58.73M363.48 455.77l.84-.71.84-.72.84-.71.83-.72.84-.72.83-.72.83-.72.83-.72.82-.72.83-.73.82-.72.82-.73.82-.73.81-.72.82-.73.81-.74.81-.73.81-.73.81-.74.8-.73.81-.74.8-.74.8-.74.79-.74.8-.74.79-.75.8-.74.79-.75.78-.75.79-.75.78-.75.79-.75.78-.75.77-.75.78-.76.78-.75.77-.76.77-.76.77-.76.76-.76.77-.76.76-.77.76-.76.76-.77.76-.76.76-.77.75-.77.75-.77.75-.78.75-.77.74-.77.75-.78.74-.78.74-.78.74-.77.74-.79.73-.78.73-.78.73-.79.73-.78.73-.79.72-.79.73-.79.72-.79.72-.79.71-.79.72-.8.71-.79.72-.8.7-.8.71-.8.71-.8.7-.8.7-.8.7-.81.7-.8.7-.81.69-.81.7-.81.69-.81.69-.81.68-.81.69-.82.68-.81.68-.82.68-.82.68-.82.67-.82.68-.82.67-.82.67-.83.67-.82.66-.83.66-.83.67-.83.66-.83.66-.83.65-.83.66-.83M542.29 386.7l.93.47.92.47.92.47.92.48.92.47.93.47.92.47.92.47.92.48.92.47.93.47.92.47.92.48.92.47.92.47.93.47.92.47.92.48.92.47.92.47.93.47.92.47.92.48.92.47.92.47.93.47.92.48.92.47.92.47.92.47.93.47.92.48.92.47.92.47.92.47.93.47.92.48.92.47.92.47.93.47.92.48.92.47.92.47.92.47.93.47.92.48.92.47.92.47.92.47.93.48.92.47.92.47.92.47.92.47.93.48.92.47.92.47.92.47.92.47.93.48.92.47.92.47.92.47.92.48.93.47.92.47.92.47.92.47.92.48.93.47.92.47.92.47.92.47.92.48.93.47.92.47.92.47.92.48.92.47.93.47.92.47.92.47.92.48.93.47.92.47.92.47.92.47.92.48.93.47.92.47.92.47.92.48.92.47.93.47.92.47.92.47.92.48.92.47.93.47M542.29 386.7l-1.05-.12-1.05-.12-1.06-.12-1.05-.11-1.06-.12-1.05-.11-1.05-.11-1.06-.12-1.05-.11-1.06-.11-1.05-.11-1.06-.11-1.05-.11-1.06-.1-1.05-.11-1.06-.11-1.05-.1-1.06-.1-1.05-.11-1.06-.1-1.06-.1-1.05-.1-1.06-.1-1.05-.1-1.06-.1-1.06-.09-1.05-.1-1.06-.09-1.05-.1-1.06-.09-1.06-.09-1.05-.1-1.06-.09-1.06-.09-1.05-.08-1.06-.09-1.06-.09-1.06-.09-1.05-.08-1.06-.09-1.06-.08-1.06-.08-1.05-.08-1.06-.09-1.06-.08-1.06-.08-1.06-.07-1.05-.08-1.06-.08-1.06-.07-1.06-.08-1.06-.07-1.06-.08-1.05-.07-1.06-.07-1.06-.07-1.06-.07-1.06-.07-1.06-.07-1.06-.06-1.06-.07-1.06-.06-1.06-.07-1.06-.06-1.06-.07-1.06-.06-1.06-.06-1.06-.06-1.06-.06-1.06-.06-1.06-.05-1.06-.06-1.06-.05-1.06-.06-1.06-.05-1.06-.06-1.06-.05-1.06-.05-1.06-.05-1.06-.05-1.07-.05-1.06-.05-1.06-.04-1.06-.05-1.06-.04-1.06-.05-1.07-.04-1.06-.04-1.06-.05-1.06-.04-1.06-.04-1.07-.04-1.06-.03-1.06-.04-1.06-.04-1.07-.03-1.06-.04-1.06-.03-1.06-.03M375.88 349.05v-.5l-.01-.51-.01-.5-.01-.51v-.5l-.01-.5-.01-.51v-.5l-.01-.51-.01-.5-.01-.5V343l-.01-.5-.01-.51v-.5l-.01-.51-.01-.5-.01-.5v-.51l-.01-.5-.01-.51v-.5l-.01-.5-.01-.51-.01-.5v-.51l-.01-.5-.01-.51v-.5l-.01-.5-.01-.51-.01-.5v-.51l-.01-.5-.01-.5-.01-.51v-.5l-.01-.51-.01-.5v-.51l-.01-.5-.01-.5-.01-.51v-.5l-.01-.51-.01-.5v-.5l-.01-.51-.01-.5-.01-.51v-.5l-.01-.51-.01-.5v-.5l-.01-.51-.01-.5-.01-.51v-.5l-.01-.5-.01-.51v-.5l-.01-.51-.01-.5-.01-.51v-.5l-.01-.5-.01-.51v-.5l-.01-.51-.01-.5-.01-.5v-.51l-.01-.5-.01-.51v-.5l-.01-.51-.01-.5-.01-.5v-.51l-.01-.5-.01-.51v-.5l-.01-.51-.01-.5-.01-.5v-.51l-.01-.5-.01-.51-.01-.5v-.5l-.01-.51-.01-.5v-.51l-.01-.5-.01-.51-.01-.5v-.5l-.01-.51-.01-.5" style="stroke-width:1.07;stroke:#000;stroke-opacity:.1;stroke-linecap:butt"/><path d="m375.88 349.05.63.31.62.3.62.3.62.31.63.3.62.31.62.3.62.31.63.3.62.31.62.3.62.3.63.31.62.3.62.31.62.3.63.31.62.3.62.31.62.3.63.31.62.3.62.3.62.31.63.3.62.31.62.3.62.31.63.3.62.31.62.3.62.3.63.31.62.3.62.31.62.3.63.31.62.3.62.31.63.3.62.31.62.3.62.3.63.31.62.3.62.31.62.3.63.31.62.3.62.31.62.3.63.3.62.31.62.3.62.31.63.3.62.31.62.3.62.31.63.3.62.31.62.3.62.3.63.31.62.3.62.31.62.3.63.31.62.3.62.31.62.3.63.3.62.31.62.3.62.31.63.3.62.31.62.3.62.31.63.3.62.31.62.3.62.3.63.31.62.3.62.31.62.3.63.31.62.3.62.31.63.3.62.3.62.31.62.3.63.31.62.3.62.31.62.3.63.31M495.5 438.1l.85.58.85.58.85.58.85.58.84.58.85.58.85.57.85.58.85.58.84.58.85.58.85.58.85.58.84.58.85.57.85.58.85.58.85.58.84.58.85.58.85.58.85.58.85.58.84.57.85.58.85.58.85.58.85.58.84.58.85.58.85.58.85.57.85.58.84.58.85.58.85.58.85.58.84.58.85.58.85.58.85.57.85.58.84.58.85.58.85.58.85.58.85.58.84.58.85.57.85.58.85.58.85.58.84.58.85.58.85.58.85.58.84.58.85.57.85.58.85.58.85.58.84.58.85.58.85.58.85.58.85.57.84.58.85.58.85.58.85.58.85.58.84.58.85.58.85.58.85.57.84.58.85.58.85.58.85.58.85.58.84.58.85.58.85.57.85.58.85.58.84.58.85.58.85.58.85.58.85.58.84.58.85.57.85.58.85.58.84.58.85.58.85.58.85.58.85.58M495.5 438.1l-.58-.59-.59-.6-.58-.59-.59-.6-.58-.59-.59-.6-.59-.59-.58-.6-.59-.59-.58-.6-.59-.59-.58-.6-.59-.59-.59-.6-.58-.59-.59-.6-.58-.59-.59-.6-.58-.59-.59-.6-.59-.59-.58-.6-.59-.59-.58-.6-.59-.59-.58-.6-.59-.59-.59-.6-.58-.59-.59-.6-.58-.59-.59-.6-.59-.59-.58-.6-.59-.59-.58-.6-.59-.59-.58-.6-.59-.59-.59-.6-.58-.59-.59-.6-.58-.59-.59-.6-.58-.59-.59-.6-.59-.59-.58-.6-.59-.59-.58-.6-.59-.59-.58-.6-.59-.59-.59-.6-.58-.59-.59-.6-.58-.59-.59-.6-.58-.59-.59-.6-.59-.59-.58-.6-.59-.59-.58-.6-.59-.59-.58-.6-.59-.59-.59-.6-.58-.59-.59-.6-.58-.59-.59-.6-.59-.59-.58-.6-.59-.59-.58-.6-.59-.59-.58-.6-.59-.59-.59-.6-.58-.59-.59-.6-.58-.59-.59-.6-.58-.59-.59-.6-.59-.59-.58-.6-.59-.59-.58-.6-.59-.59-.58-.6-.59-.59-.59-.6-.58-.59-.59-.6-.58-.59-.59-.6-.58-.59M660.23 216.98l-.96.33-.95.33-.96.33-.96.33-.96.32-.96.32-.95.32-.97.32-.96.31-.96.31-.96.31-.96.31-.97.3-.96.3-.97.3-.97.3-.96.29-.97.29-.97.29-.97.29-.97.28-.97.28-.98.28-.97.28-.97.27-.98.28-.97.27-.98.26-.98.27-.97.26-.98.26-.98.25-.98.26-.98.25-.99.25-.98.25-.98.24-.98.24-.99.24-.99.24-.98.24-.99.23-.99.23-.99.23-.99.22-.99.22-.99.22-.99.22-.99.22-1 .21-.99.21-.99.21-1 .2-1 .2-.99.2-1 .2-1 .2-1 .19-1 .19-1 .19-1.01.18-1 .19-1 .18-1.01.18-1 .17-1.01.17-1.01.18-1 .16-1.01.17-1.01.16-1.01.16-1.01.16-1.01.16-1.02.15-1.01.15-1.01.15-1.02.15-1.01.14-1.02.14-1.02.14-1.01.14-1.02.13-1.02.13-1.02.13-1.02.13-1.03.12-1.02.12-1.02.12-1.03.12-1.02.11-1.03.11-1.02.11-1.03.11-1.03.1-1.03.1-1.03.1-1.03.1-1.03.09-1.03.09M154.71 466.47l1.05.33 1.05.33 1.06.33 1.06.33 1.05.33 1.06.32 1.05.33 1.06.32 1.06.33 1.06.32 1.05.32 1.06.32 1.06.32 1.06.32 1.06.32 1.06.32 1.06.31 1.06.32 1.06.31 1.06.32 1.06.31 1.06.31 1.07.32 1.06.31 1.06.31 1.07.3 1.06.31 1.06.31 1.07.3 1.06.31 1.07.3 1.06.31 1.07.3 1.06.3 1.07.3 1.07.3 1.07.3 1.06.3 1.07.3 1.07.29 1.07.3 1.07.29 1.07.3 1.07.29 1.07.29 1.07.29 1.07.29 1.07.29 1.07.29 1.07.29 1.07.28 1.08.29 1.07.28 1.07.29 1.08.28 1.07.28 1.07.28 1.08.28 1.07.28 1.08.28 1.07.28 1.08.28 1.08.27 1.07.28 1.08.27 1.08.27 1.08.28 1.07.27 1.08.27 1.08.27 1.08.27 1.08.26 1.08.27 1.08.27 1.08.26 1.08.27 1.08.26 1.08.26 1.09.26 1.08.26 1.08.26 1.09.26 1.08.26 1.08.26 1.09.26 1.08.25 1.09.26 1.08.25 1.09.25 1.08.25 1.09.25 1.09.25 1.08.25 1.09.25 1.09.25 1.09.25 1.08.24 1.09.25 1.09.24M154.71 466.47l.5-.26.5-.27.5-.26.5-.27.5-.26.5-.27.5-.26.5-.26.5-.27.5-.26.51-.27.5-.26.5-.27.5-.26.5-.27.5-.26.5-.27.5-.26.5-.26.5-.27.5-.26.5-.27.51-.26.5-.27.5-.26.5-.27.5-.26.5-.26.5-.27.5-.26.5-.27.5-.26.5-.27.51-.26.5-.27.5-.26.5-.27.5-.26.5-.26.5-.27.5-.26.5-.27.5-.26.5-.27.51-.26.5-.27.5-.26.5-.26.5-.27.5-.26.5-.27.5-.26.5-.27.5-.26.5-.27.5-.26.51-.27.5-.26.5-.26.5-.27.5-.26.5-.27.5-.26.5-.27.5-.26.5-.27.5-.26.51-.26.5-.27.5-.26.5-.27.5-.26.5-.27.5-.26.5-.27.5-.26.5-.27.5-.26.51-.26.5-.27.5-.26.5-.27.5-.26.5-.27.5-.26.5-.27.5-.26.5-.26.5-.27.5-.26.51-.27.5-.26.5-.27.5-.26.5-.27.5-.26.5-.27.5-.26.5-.26M154.71 466.47l1.08.25 1.09.24 1.09.25 1.09.24 1.09.25 1.09.25 1.08.25 1.09.25 1.09.25 1.08.25 1.09.25 1.08.26 1.09.25 1.08.26 1.09.25 1.08.26 1.08.26 1.09.26 1.08.26 1.08.26 1.08.26 1.09.26 1.08.27 1.08.26 1.08.27 1.08.26 1.08.27 1.08.27 1.08.27 1.08.26 1.07.28 1.08.27 1.08.27 1.08.27 1.08.28 1.07.27 1.08.28 1.07.27 1.08.28 1.08.28 1.07.28 1.07.28 1.08.28 1.07.28 1.08.29 1.07.28 1.07.28 1.08.29 1.07.29 1.07.28 1.07.29 1.07.29 1.07.29 1.07.29 1.07.29 1.07.3 1.07.29 1.07.29 1.07.3 1.07.3 1.07.29 1.06.3 1.07.3 1.07.3 1.06.3 1.07.3 1.07.3 1.06.31 1.07.3 1.06.31 1.06.3 1.07.31 1.06.31 1.07.31 1.06.31 1.06.31 1.06.31 1.07.31 1.06.31 1.06.32 1.06.31 1.06.32 1.06.31 1.06.32 1.06.32 1.06.32 1.06.32 1.05.32 1.06.32 1.06.33 1.06.32 1.05.32 1.06.33 1.06.33 1.05.32 1.06.33 1.05.33 1.06.33 1.05.33" style="stroke-width:1.07;stroke:#000;stroke-opacity:.1;stroke-linecap:butt"/><path d="m154.71 466.47.46-.3.47-.31.47-.3.48-.3.47-.31.47-.3.47-.3.48-.3.47-.29.47-.3.48-.3.48-.3.47-.29.48-.29.48-.3.48-.29.48-.29.48-.29.48-.29.48-.29.48-.29.48-.29.49-.29.48-.28.48-.29.49-.28.49-.29.48-.28.49-.28.49-.28.49-.28.48-.28.49-.28.49-.28.5-.27.49-.28.49-.28.49-.27.5-.27.49-.28.5-.27.49-.27.5-.27.49-.27.5-.27.5-.27.5-.26.5-.27.5-.26.5-.27.5-.26.5-.27.51-.26.5-.26.5-.26.51-.26.5-.26.51-.26.51-.25.51-.26.5-.25.51-.26.51-.25.51-.25.51-.26.51-.25.52-.25.51-.25.51-.25.51-.24.52-.25.51-.25.52-.24.52-.25.51-.24.52-.24.52-.25.52-.24.52-.24.52-.24.52-.24.52-.24.53-.23.52-.24.52-.23.53-.24.52-.23.53-.24.52-.23.53-.23.53-.23.53-.23.53-.23.53-.23.53-.22.53-.23.53-.23.53-.22.53-.22M363.48 455.77l.58.73.58.73.58.74.58.73.58.73.58.74.58.73.57.74.58.74.57.73.57.74.58.74.57.73.57.74.57.74.57.74.56.74.57.74.56.74.57.74.56.74.57.74.56.75.56.74.56.74.56.75.56.74.55.74.56.75.56.74.55.75.55.75.56.74.55.75.55.75.55.75.55.74.54.75.55.75.55.75.54.75.55.75.54.75.54.76.54.75.54.75.54.75.54.76.54.75.54.75.53.76.54.75.53.76.54.76.53.75.53.76.53.76.53.75.53.76.52.76.53.76.53.76.52.76.52.76.53.76.52.76.52.76.52.77.52.76.52.76.51.77.52.76.52.76.51.77.51.76.52.77.51.77.51.76.51.77.51.77.51.77.5.76.51.77.5.77.51.77.5.77.5.77.51.77.5.77.5.78.49.77.5.77.5.78.49.77.5.77.49.78.5.77.49.78.49.77M363.48 455.77l.75-.78.75-.77.74-.77.75-.78.75-.77.75-.77.74-.78.75-.77.75-.77.75-.78.75-.77.74-.77.75-.78.75-.77.75-.77.74-.78.75-.77.75-.77.75-.78.75-.77.74-.77.75-.78.75-.77.75-.77.75-.78.74-.77.75-.78.75-.77.75-.77.74-.78.75-.77.75-.77.75-.78.75-.77.74-.77.75-.78.75-.77.75-.77.75-.78.74-.77.75-.77.75-.78.75-.77.74-.77.75-.78.75-.77.75-.77.75-.78.74-.77.75-.77.75-.78.75-.77.74-.78.75-.77.75-.77.75-.78.75-.77.74-.77.75-.78.75-.77.75-.77.75-.78.74-.77.75-.77.75-.78.75-.77.74-.77.75-.78.75-.77.75-.77.75-.78.74-.77.75-.77.75-.78.75-.77.75-.77.74-.78.75-.77.75-.77.75-.78.74-.77.75-.78.75-.77.75-.77.75-.78.74-.77.75-.77.75-.78.75-.77.75-.77.74-.78.75-.77.75-.77.75-.78.74-.77.75-.77.75-.78.75-.77.75-.77" style="stroke-width:1.07;stroke:#000;stroke-opacity:.1;stroke-linecap:butt"/><path d="m363.48 455.77.67.69.67.69.67.69.67.69.66.7.66.69.66.7.65.7.65.7.65.7.64.7.65.7.64.71.63.7.64.71.63.71.63.71.63.71.62.72.62.71.62.72.61.71.61.72.61.72.61.72.6.72.6.73.6.72.6.73.59.73.59.72.59.73.58.74.58.73.58.73.58.74.57.74.57.73.57.74.56.74.57.75.55.74.56.75.55.74.55.75.55.75.55.75.54.75.54.75.54.76.53.75.53.76.53.76.53.76.52.76.52.76.52.76.51.77.51.76.51.77.51.77.5.77.5.77.5.78.49.77.5.78.48.77.49.78.48.78.49.78.47.78.48.79.47.78.47.79.47.78.46.79.46.79.46.8.46.79.45.79.45.8.45.79.44.8.45.8.44.8.43.81.44.8.43.8.42.81.43.81.42.81.42.81.42.81.41.81.41.81.41.82.41.82.4.82.4.81M363.48 455.77l.65-.84.66-.83.66-.83.66-.83.66-.83.66-.83.67-.82.67-.83.67-.82.67-.83.67-.82.68-.82.67-.82.68-.82.68-.81.69-.82.68-.81.69-.82.69-.81.69-.81.69-.81.7-.81.69-.8.7-.81.7-.8.7-.81.71-.8.7-.8.71-.8.71-.8.71-.79.71-.8.72-.79.72-.8.72-.79.72-.79.72-.79.73-.79.72-.78.73-.79.73-.78.73-.79.74-.78.74-.78.73-.78.74-.78.75-.78.74-.77.75-.78.74-.77.75-.77.76-.77.75-.77.75-.77.76-.77.76-.77.76-.76.77-.76.76-.77.77-.76.77-.76.77-.76.77-.75.77-.76.78-.75.78-.76.78-.75.78-.75.79-.75.78-.75.79-.75.79-.74.79-.75.79-.74.8-.74.8-.75.8-.74.8-.73.8-.74.81-.74.8-.73.81-.74.81-.73.82-.73.81-.73.82-.73.82-.73.82-.72.82-.73.82-.72.83-.73.83-.72.83-.72.83-.72.83-.72.84-.71.83-.72.84-.71.85-.71M363.48 455.77l-1.04.39-1.03.4-1.04.39-1.04.4-1.04.4-1.03.39-1.04.4-1.04.39-1.03.4-1.04.39-1.04.4-1.04.39-1.03.4-1.04.39-1.04.4-1.03.4-1.04.39-1.04.4-1.03.39-1.04.4-1.04.39-1.04.4-1.03.39-1.04.4-1.04.4-1.03.39-1.04.4-1.04.39-1.03.4-1.04.39-1.04.4-1.04.39-1.03.4-1.04.39-1.04.4-1.03.4-1.04.39-1.04.4-1.04.39-1.03.4-1.04.39-1.04.4-1.03.39-1.04.4-1.04.39-1.03.4-1.04.4-1.04.39-1.04.4-1.03.39-1.04.4-1.04.39-1.03.4-1.04.39-1.04.4-1.03.4-1.04.39-1.04.4-1.04.39-1.03.4-1.04.39-1.04.4-1.03.39-1.04.4-1.04.39-1.04.4-1.03.4-1.04.39-1.04.4-1.03.39-1.04.4-1.04.39-1.03.4-1.04.39-1.04.4-1.04.39-1.03.4-1.04.4-1.04.39-1.03.4-1.04.39-1.04.4-1.03.39-1.04.4-1.04.39-1.04.4-1.03.4-1.04.39-1.04.4-1.03.39-1.04.4-1.04.39-1.04.4-1.03.39-1.04.4-1.04.39-1.03.4-1.04.4-1.04.39" style="stroke-width:1.07;stroke:#000;stroke-opacity:.1;stroke-linecap:butt"/><path d="m363.48 455.77.56-.9.56-.89.57-.89.58-.89.57-.88.58-.88.59-.88.58-.88.59-.88.6-.87.6-.87.6-.87.61-.86.61-.86.61-.86.62-.86.62-.86.63-.85.63-.85.63-.85.64-.84.64-.84.64-.84.65-.84.66-.84.65-.83.66-.83.67-.83.66-.82.67-.83.68-.82.68-.82.68-.81.69-.81.69-.81.69-.81.7-.81.7-.8.71-.8.71-.8.71-.8.72-.79.72-.79.73-.79.73-.78.73-.79.73-.78.74-.78.75-.77.75-.78.75-.77.75-.77.76-.76.77-.76.76-.77.77-.75.78-.76.78-.75.78-.76.79-.74.78-.75.8-.74.8-.75.8-.73.8-.74.81-.73.81-.74.82-.72.82-.73.82-.73.83-.72.83-.72.84-.71.84-.72.84-.71.85-.71.85-.7.86-.71.85-.7.87-.7.86-.7.87-.69.88-.69.87-.69.89-.69.88-.68.89-.68.89-.68.9-.68.9-.68.9-.67.91-.67.91-.66.92-.67.92-.66.92-.66.93-.66.93-.65.94-.65M542.29 386.7l.97-.26.96-.25.97-.25.96-.25.97-.26.96-.25.97-.25.96-.25.97-.26.96-.25.97-.25.96-.25.96-.26.97-.25.96-.25.97-.26.96-.25.97-.25.96-.25.97-.26.96-.25.97-.25.96-.25.97-.26.96-.25.97-.25.96-.25.97-.26.96-.25.96-.25.97-.26.96-.25.97-.25.96-.25.97-.26.96-.25.97-.25.96-.25.97-.26.96-.25.97-.25.96-.26.97-.25.96-.25.97-.25.96-.26.96-.25.97-.25.96-.25.97-.26.96-.25.97-.25.96-.25.97-.26.96-.25.97-.25.96-.26.97-.25.96-.25.97-.25.96-.26.96-.25.97-.25.96-.25.97-.26.96-.25.97-.25.96-.26.97-.25.96-.25.97-.25.96-.26.97-.25.96-.25.97-.25.96-.26.97-.25.96-.25.96-.25.97-.26.96-.25.97-.25.96-.26.97-.25.96-.25.97-.25.96-.26.97-.25.96-.25.97-.25.96-.26.97-.25.96-.25.97-.26.96-.25.96-.25.97-.25.96-.26.97-.25M542.29 386.7l-1.06-.04-1.06-.03-1.07-.03-1.06-.04-1.06-.04-1.06-.03-1.07-.04-1.06-.04-1.06-.04-1.06-.04-1.06-.04-1.07-.04-1.06-.05-1.06-.04-1.06-.05-1.06-.04-1.06-.05-1.07-.05-1.06-.05-1.06-.05-1.06-.05-1.06-.05-1.06-.05-1.06-.05-1.06-.06-1.06-.05-1.06-.06-1.06-.05-1.06-.06-1.06-.06-1.06-.06-1.06-.06-1.06-.06-1.06-.06-1.06-.06-1.06-.07-1.06-.06-1.06-.07-1.06-.06-1.06-.07-1.06-.07-1.06-.07-1.06-.07-1.06-.07-1.06-.07-1.06-.07-1.05-.07-1.06-.08-1.06-.07-1.06-.08-1.06-.08-1.06-.07-1.05-.08-1.06-.08-1.06-.08-1.06-.08-1.06-.08-1.05-.09-1.06-.08-1.06-.08-1.05-.09-1.06-.09-1.06-.08-1.06-.09-1.05-.09-1.06-.09-1.06-.09-1.05-.09-1.06-.09-1.06-.1-1.05-.09-1.06-.1-1.06-.09-1.05-.1-1.06-.1-1.05-.1-1.06-.1-1.06-.1-1.05-.1-1.06-.1-1.05-.1-1.06-.11-1.05-.1-1.06-.11-1.05-.1-1.06-.11-1.05-.11-1.06-.11-1.05-.11-1.06-.11-1.05-.11-1.06-.11-1.05-.12-1.05-.11-1.06-.11-1.05-.12-1.06-.12-1.05-.12-1.05-.11M352.64 217.8l.23.82.23.82.22.83.23.82.23.82.23.82.22.82.23.82.23.83.23.82.23.82.22.82.23.82.23.82.23.83.22.82.23.82.23.82.23.82.22.82.23.82.23.83.23.82.22.82.23.82.23.82.23.82.22.83.23.82.23.82.23.82.22.82.23.82.23.83.23.82.22.82.23.82.23.82.23.82.23.82.22.83.23.82.23.82.23.82.22.82.23.82.23.83.23.82.22.82.23.82.23.82.23.82.22.83.23.82.23.82.23.82.22.82.23.82.23.83.23.82.22.82.23.82.23.82.23.82.23.82.22.83.23.82.23.82.23.82.22.82.23.82.23.83.23.82.22.82.23.82.23.82.23.82.22.83.23.82.23.82.23.82.22.82.23.82.23.82.23.83.22.82.23.82.23.82.23.82.22.82.23.83.23.82.23.82.23.82.22.82.23.82.23.83.23.82.22.82M352.64 217.8l-.47-.72-.46-.72-.47-.72-.47-.71-.47-.72-.46-.72-.47-.72-.47-.72-.47-.72-.46-.72-.47-.72-.47-.72-.47-.72-.46-.72-.47-.71-.47-.72-.47-.72-.47-.72-.46-.72-.47-.72-.47-.72-.47-.72-.46-.72-.47-.72-.47-.72-.47-.71-.46-.72-.47-.72-.47-.72-.47-.72-.46-.72-.47-.72-.47-.72-.47-.72-.46-.72-.47-.72-.47-.71-.47-.72-.46-.72-.47-.72-.47-.72-.47-.72-.46-.72-.47-.72-.47-.72-.47-.72-.47-.71-.46-.72-.47-.72-.47-.72-.47-.72-.46-.72-.47-.72-.47-.72-.47-.72-.46-.72-.47-.72-.47-.71-.47-.72-.46-.72-.47-.72-.47-.72-.47-.72-.46-.72-.47-.72-.47-.72-.47-.72-.46-.72-.47-.71-.47-.72-.47-.72-.46-.72-.47-.72-.47-.72-.47-.72-.47-.72-.46-.72-.47-.72-.47-.72-.47-.71-.46-.72-.47-.72-.47-.72-.47-.72-.46-.72-.47-.72-.47-.72-.47-.72-.46-.72-.47-.72-.47-.71-.47-.72-.46-.72-.47-.72-.47-.72-.47-.72-.46-.72-.47-.72-.47-.72M282.58 271.54l.93.27.94.28.93.28.94.28.94.28.93.28.94.28.93.28.94.27.93.28.94.28.93.28.94.28.93.28.94.28.93.28.94.28.93.27.94.28.93.28.94.28.94.28.93.28.94.28.93.28.94.27.93.28.94.28.93.28.94.28.93.28.94.28.93.28.94.28.93.27.94.28.93.28.94.28.94.28.93.28.94.28.93.28.94.27.93.28.94.28.93.28.94.28.93.28.94.28.93.28.94.28.93.27.94.28.93.28.94.28.94.28.93.28.94.28.93.28.94.27.93.28.94.28.93.28.94.28.93.28.94.28.93.28.94.27.93.28.94.28.93.28.94.28.94.28.93.28.94.28.93.28.94.27.93.28.94.28.93.28.94.28.93.28.94.28.93.28.94.27.93.28.94.28.93.28.94.28.94.28.93.28.94.28.93.28.94.27.93.28.94.28.93.28.94.28.93.28M222.37 579.31l-.77.53-.77.53-.77.53-.77.53-.77.53-.76.53-.77.53-.77.53-.77.53-.77.53-.77.53-.77.53-.77.53-.76.53-.77.53-.77.53-.77.53-.77.53-.77.53-.77.53-.77.53-.76.53-.77.53-.77.53-.77.53-.77.53-.77.53-.77.53-.77.53-.76.53-.77.53-.77.53-.77.53-.77.53-.77.53-.77.53-.77.53-.76.53-.77.53-.77.53-.77.53-.77.53-.77.53-.77.53-.77.53-.76.53-.77.53-.77.53-.77.53-.77.53-.77.53-.77.53-.77.53-.76.53-.77.53-.77.53-.77.53-.77.53-.77.53-.77.53-.77.53-.76.53-.77.53-.77.53-.77.53-.77.53-.77.53-.77.53-.77.53-.76.53-.77.53-.77.53-.77.53-.77.53-.77.53-.77.53-.77.53-.76.53-.77.53-.77.53-.77.53-.77.53-.77.53-.77.53-.77.53-.76.53-.77.53-.77.53-.77.53-.77.53-.77.53-.77.53-.77.53-.76.53-.77.53-.77.53-.77.53-.77.53-.77.53M222.37 579.31l.65.67.64.67.65.67.64.67.64.67.65.67.64.67.64.67.64.68.64.67.63.67.64.68.64.67.63.68.64.67.63.68.64.68.63.68.63.67.63.68.63.68.63.68.63.68.62.68.63.68.62.68.63.68.62.69.62.68.63.68.62.69.62.68.62.68.61.69.62.69.62.68.62.69.61.69.61.68.62.69.61.69.61.69.61.69.61.69.61.69.61.69.61.69.6.7.61.69.6.69.61.7.6.69.6.69.6.7.6.7.6.69.6.7.6.7.6.69.59.7.6.7.59.7.6.7.59.7.59.7.59.7.59.7.59.71.59.7.59.7.59.71.58.7.59.71.58.7.58.71.59.7.58.71.58.71.58.7.58.71.58.71.57.71.58.71.58.71.57.71.58.71.57.72.57.71.57.71.57.71.57.72.57.71.57.72.57.71.56.72.57.71.56.72.57.72.56.72M222.37 579.31l-.07.83-.07.83-.07.83-.07.84-.07.83-.07.83-.06.83-.07.83-.07.83-.07.83-.07.84-.07.83-.07.83-.07.83-.07.83-.06.83-.07.83-.07.84-.07.83-.07.83-.07.83-.07.83-.07.83-.07.83-.07.84-.06.83-.07.83-.07.83-.07.83-.07.83-.07.83-.07.84-.07.83-.07.83-.06.83-.07.83-.07.83-.07.83-.07.84-.07.83-.07.83-.07.83-.07.83-.07.83-.06.83-.07.84-.07.83-.07.83-.07.83-.07.83-.07.83-.07.83-.07.84-.06.83-.07.83-.07.83-.07.83-.07.83-.07.83-.07.84-.07.83-.07.83-.06.83-.07.83-.07.83-.07.83-.07.84-.07.83-.07.83-.07.83-.07.83-.07.83-.06.83-.07.84-.07.83-.07.83-.07.83-.07.83-.07.83-.07.83-.07.84-.06.83-.07.83-.07.83-.07.83-.07.83-.07.83-.07.84-.07.83-.07.83-.07.83-.06.83-.07.83-.07.83-.07.84-.07.83-.07.83-.07.83-.07.83" style="stroke-width:1.07;stroke:#000;stroke-opacity:.1;stroke-linecap:butt"/><path d="m222.37 579.31.73.62.73.62.72.62.72.63.72.62.72.63.72.63.71.63.71.63.71.64.7.63.7.64.7.63.7.64.7.64.69.65.69.64.68.65.69.64.68.65.68.65.68.65.67.65.67.66.67.65.67.66.66.66.66.66.66.66.66.67.65.66.65.67.65.66.64.67.65.67.64.68.64.67.63.68.64.67.63.68.62.68.63.68.62.68.62.69.62.68.61.69.62.69.61.69.6.69.61.7.6.69.6.7.6.7.59.69.59.71.59.7.59.7.58.71.59.7.58.71.57.71.58.71.57.72.57.71.56.72.57.71.56.72.56.72.55.72.56.73.55.72.54.73.55.73.54.73.54.73.54.73.54.73.53.74.53.73.53.74.52.74.53.74.52.75.51.74.52.75.51.74.51.75.51.75.5.75.51.76.49.75.5.76.5.76.49.76.49.76.48.76.49.76.48.77.48.77M437.52 379.2l-.19-1.04-.2-1.04-.21-1.03-.22-1.02-.22-1.02-.24-1.01-.24-1.01-.25-1.01-.27-1-.27-1-.28-.99-.29-.99-.29-.98-.31-.97-.31-.98-.33-.97-.33-.96-.35-.96-.35-.95-.36-.95-.37-.95-.37-.94-.39-.93-.4-.93-.4-.93-.42-.92-.42-.91-.43-.92-.44-.9-.45-.91-.46-.89-.47-.9-.48-.89-.49-.88-.49-.88-.5-.87-.52-.87-.52-.87-.53-.86-.54-.85-.55-.85-.56-.85-.56-.84-.58-.84-.58-.83-.6-.83-.6-.82-.61-.82-.62-.81-.63-.81-.64-.8-.65-.8-.66-.8-.66-.79-.68-.78-.68-.78-.69-.78-.7-.77-.72-.77-.71-.76-.73-.76-.74-.75-.75-.75-.75-.74-.77-.74-.77-.73-.78-.73-.79-.72-.8-.72-.81-.72-.82-.71-.83-.7-.83-.71-.85-.69-.85-.69-.87-.69-.87-.68-.88-.68-.89-.67-.9-.67-.91-.66-.91-.66-.93-.66-.94-.65-.94-.64-.95-.64-.96-.63-.97-.64-.98-.62-.99-.62-1-.62-1.01-.61-1.01-.61-1.03-.6-1.03-.6-1.04-.59-1.06-.59-1.06-.58-1.07-.58" style="stroke-width:1.07;stroke:#000;stroke-opacity:.1;stroke-linecap:butt"/><path d="m437.52 379.2-.29-.99-.3-.99-.3-.98-.31-.97-.31-.97-.32-.97-.33-.97-.34-.96-.34-.96-.35-.95-.36-.95-.37-.95-.37-.94-.38-.94-.38-.94-.39-.93-.4-.93-.41-.93-.41-.92-.42-.92-.43-.91-.43-.91-.45-.91-.44-.9-.46-.9-.46-.9-.47-.89-.48-.89-.48-.89-.49-.88-.5-.88-.5-.87-.51-.87-.52-.87-.52-.86-.54-.86-.54-.86-.54-.85-.55-.85-.56-.84-.57-.84-.58-.84-.58-.84-.58-.83-.6-.82-.6-.83-.61-.82-.61-.81-.63-.82-.63-.8-.63-.81-.65-.8-.65-.8-.66-.79-.66-.79-.67-.79-.68-.78-.69-.78-.69-.78-.7-.77-.71-.77-.71-.76-.72-.76-.73-.76-.73-.76-.74-.75-.75-.74-.76-.75-.76-.74-.77-.73-.77-.73-.79-.73-.79-.73-.8-.72-.8-.72-.81-.71-.82-.71-.82-.71-.84-.7-.84-.7-.84-.69-.86-.7-.86-.68-.86-.69-.88-.68-.88-.68-.89-.67-.89-.67-.9-.67-.91-.66-.92-.66-.92-.66-.93-.65-.94-.65-.94-.64-.95-.64-.96-.64-.96-.63-.98-.63" style="stroke-width:1.07;stroke:#000;stroke-opacity:.1;stroke-linecap:butt"/><path d="m437.52 379.2-.39-.94-.39-.93-.4-.94-.4-.92-.4-.93-.41-.92-.42-.92-.42-.92-.42-.92-.43-.91-.44-.91-.44-.91-.44-.9-.45-.9-.46-.9-.46-.9-.46-.9-.47-.89-.48-.89-.48-.88-.48-.89-.49-.88-.5-.88-.5-.88-.5-.87-.51-.87-.52-.87-.52-.87-.52-.86-.53-.86-.54-.86-.54-.85-.54-.86-.55-.85-.56-.84-.56-.85-.56-.84-.57-.84-.58-.84-.58-.83-.58-.84-.59-.83-.6-.82-.6-.83-.6-.82-.61-.82-.62-.81-.62-.82-.62-.81-.63-.81-.64-.8-.64-.81-.64-.8-.65-.8-.65-.79-.66-.8-.67-.79-.67-.78-.67-.79-.68-.78-.69-.78-.69-.78-.69-.77-.7-.78-.71-.77-.7-.76-.72-.77-.72-.76-.72-.76-.73-.75-.74-.76-.74-.75-.74-.75-.75-.74-.75-.75-.76-.74-.77-.74-.77-.73-.77-.74-.78-.73-.79-.72-.79-.73-.79-.72-.8-.72-.8-.72-.81-.72-.82-.71-.82-.71-.82-.7-.83-.71-.83-.7-.84-.7-.85-.7-.85-.69-.85-.69-.86-.69-.86-.69-.87-.68-.88-.68" style="stroke-width:1.07;stroke:#000;stroke-opacity:.1;stroke-linecap:butt"/><path d="m437.52 379.2-.49-.89-.48-.88-.49-.89-.49-.88-.5-.87-.5-.88-.5-.88-.5-.87-.51-.87-.51-.88-.51-.87-.52-.86-.52-.87-.52-.87-.53-.86-.52-.86-.53-.86-.54-.86-.53-.86-.54-.85-.55-.86-.54-.85-.55-.85-.55-.85-.56-.85-.56-.84-.56-.85-.56-.84-.57-.84-.57-.84-.57-.84-.58-.84-.58-.83-.58-.84-.58-.83-.59-.83-.59-.83-.6-.82-.59-.83-.6-.82-.61-.83-.6-.82-.61-.82-.61-.82-.62-.81-.61-.82-.62-.81-.63-.81-.63-.81-.62-.81-.64-.81-.63-.8-.64-.81-.64-.8-.65-.8-.65-.8-.65-.8-.65-.79-.66-.8-.66-.79-.66-.79-.66-.79-.67-.79-.68-.79-.67-.78-.68-.79-.68-.78-.68-.78-.69-.78-.69-.78-.69-.77-.7-.78-.69-.77-.71-.77-.7-.77-.71-.77-.71-.76-.71-.77-.72-.76-.72-.76-.72-.76-.73-.76-.72-.76-.74-.76-.73-.75-.74-.75-.74-.75-.74-.75-.75-.75-.75-.75-.75-.74-.76-.74-.75-.75-.76-.74-.77-.73-.77-.74-.77-.74-.77-.73-.78-.73" style="stroke-width:1.07;stroke:#000;stroke-opacity:.1;stroke-linecap:butt"/><path d="m437.52 379.2-.59-.84-.58-.83-.58-.83-.58-.84-.59-.83-.58-.83-.59-.83-.59-.83-.59-.83-.59-.83-.59-.83-.59-.83-.59-.83-.6-.83-.59-.82-.6-.83-.59-.82-.6-.83-.6-.82-.6-.83-.6-.82-.6-.83-.61-.82-.6-.82-.6-.82-.61-.82-.61-.82-.61-.82-.6-.82-.61-.82-.61-.82-.62-.82-.61-.82-.61-.81-.62-.82-.61-.82-.62-.81-.62-.82-.62-.81-.62-.82-.62-.81-.62-.81-.62-.81-.63-.82-.62-.81-.63-.81-.62-.81-.63-.81-.63-.81-.63-.81-.63-.8-.63-.81-.63-.81-.64-.8-.63-.81-.64-.81-.63-.8-.64-.81-.64-.8-.64-.8-.64-.81-.64-.8-.65-.8-.64-.8-.64-.8-.65-.8-.65-.8-.64-.8-.65-.8-.65-.8-.65-.8-.65-.79-.66-.8-.65-.8-.66-.79-.65-.8-.66-.79-.66-.8-.65-.79-.66-.79-.66-.8-.67-.79-.66-.79-.66-.79-.67-.79-.66-.79-.67-.79-.67-.79-.67-.79-.67-.78-.67-.79-.67-.79-.67-.79-.67-.78-.68-.79-.67-.78-.68-.78-.68-.79-.68-.78" style="stroke-width:1.07;stroke:#000;stroke-opacity:.1;stroke-linecap:butt"/><path d="m437.52 379.2-.68-.79-.68-.78-.68-.78-.67-.79-.68-.78-.67-.79-.67-.79-.68-.78-.67-.79-.67-.79-.66-.79-.67-.79-.67-.79-.66-.79-.67-.79-.66-.79-.66-.79-.67-.79-.66-.79-.66-.8-.66-.79-.65-.79-.66-.8-.66-.79-.65-.8-.65-.79-.66-.8-.65-.8-.65-.8-.65-.79-.65-.8-.64-.8-.65-.8-.65-.8-.64-.8-.65-.81-.64-.8-.64-.8-.64-.8-.64-.81-.64-.8-.64-.8-.63-.81-.64-.8-.63-.81-.64-.81-.63-.8-.63-.81-.63-.81-.63-.81-.63-.81-.63-.81-.63-.81-.62-.81-.63-.81-.62-.81-.62-.81-.62-.82-.62-.81-.62-.81-.62-.82-.62-.81-.62-.82-.61-.82-.62-.81-.61-.82-.61-.82-.62-.81-.61-.82-.61-.82-.61-.82-.6-.82-.61-.82-.61-.82-.6-.82-.6-.83-.61-.82-.6-.82-.6-.83-.6-.82-.6-.83-.6-.82-.59-.83-.6-.82-.59-.83-.6-.83-.59-.83-.59-.82-.59-.83-.59-.83-.59-.83-.59-.83-.59-.83-.58-.84-.59-.83-.58-.83-.58-.83-.59-.84-.58-.83" style="stroke-width:1.07;stroke:#000;stroke-opacity:.1;stroke-linecap:butt"/><path d="m437.52 379.2-.78-.74-.77-.73-.77-.73-.77-.74-.77-.74-.76-.74-.76-.74-.75-.74-.75-.75-.75-.75-.75-.74-.74-.75-.74-.75-.74-.76-.74-.75-.73-.75-.73-.76-.72-.76-.72-.76-.72-.76-.72-.77-.71-.76-.71-.77-.71-.77-.71-.77-.7-.77-.7-.77-.69-.77-.69-.78-.69-.78-.69-.78-.68-.78-.68-.78-.68-.78-.68-.79-.67-.78-.67-.79-.66-.79-.66-.79-.66-.8-.66-.79-.65-.8-.66-.8-.64-.79-.65-.81-.64-.8-.64-.8-.63-.81-.64-.8-.63-.81-.62-.81-.63-.81-.62-.82-.62-.81-.61-.82-.61-.82-.61-.82-.61-.82-.6-.82-.6-.83-.6-.82-.59-.83-.59-.83-.59-.83-.58-.83-.58-.83-.58-.84-.58-.84-.57-.83-.57-.84-.57-.85-.56-.84-.56-.84-.56-.85-.56-.85-.55-.85-.55-.85-.54-.85-.55-.85-.54-.86-.53-.86-.54-.86-.53-.86-.53-.86-.52-.86-.52-.87-.52-.86-.52-.87-.51-.87-.51-.87-.51-.87-.5-.88-.5-.87-.5-.88-.5-.88-.49-.88-.49-.88-.48-.89-.49-.88" style="stroke-width:1.07;stroke:#000;stroke-opacity:.1;stroke-linecap:butt"/><path d="m437.52 379.2-.88-.69-.87-.68-.86-.68-.86-.69-.85-.7-.85-.69-.85-.7-.84-.7-.83-.7-.83-.7-.83-.71-.81-.71-.82-.71-.81-.72-.8-.71-.8-.72-.8-.73-.79-.72-.78-.73-.78-.73-.77-.73-.77-.74-.77-.74-.76-.74-.75-.74-.75-.75-.74-.75-.74-.75-.74-.75-.73-.76-.72-.76-.72-.76-.72-.76-.71-.77-.7-.77-.7-.77-.69-.78-.69-.77-.69-.78-.68-.79-.67-.78-.67-.79-.67-.79-.66-.79-.65-.8-.65-.8-.65-.8-.64-.8-.63-.81-.63-.81-.62-.81-.62-.81-.62-.82-.61-.82-.6-.82-.6-.82-.6-.83-.59-.83-.58-.83-.58-.84-.58-.83-.57-.84-.56-.85-.56-.84-.56-.85-.55-.85-.54-.85-.54-.86-.54-.86-.53-.86-.52-.86-.52-.87-.52-.86-.51-.88-.5-.87-.5-.88-.5-.88-.49-.88-.48-.88-.48-.89-.48-.89-.47-.89-.46-.89-.46-.9-.46-.9-.45-.9-.44-.91-.44-.91-.44-.91-.43-.91-.42-.91-.42-.92-.42-.92-.41-.93-.41-.92-.4-.93-.39-.93-.39-.94-.39-.93" style="stroke-width:1.07;stroke:#000;stroke-opacity:.1;stroke-linecap:butt"/><path d="m437.52 379.2-.98-.63-.96-.64-.96-.63-.95-.65-.94-.64-.94-.65-.93-.65-.92-.66-.92-.66-.91-.66-.9-.66-.9-.67-.88-.68-.88-.68-.88-.68-.87-.68-.86-.69-.85-.69-.85-.7-.83-.7-.84-.7-.82-.71-.82-.71-.81-.71-.81-.72-.79-.72-.79-.72-.79-.73-.77-.73-.77-.74-.76-.74-.76-.74-.75-.75-.74-.75-.73-.75-.73-.76-.72-.76-.72-.77-.7-.77-.7-.77-.69-.77-.69-.78-.68-.79-.67-.78-.67-.79-.65-.8-.65-.8-.65-.8-.63-.8-.63-.81-.63-.81-.61-.82-.61-.82-.6-.82-.6-.83-.59-.83-.58-.83-.57-.84-.57-.84-.56-.85-.55-.85-.55-.85-.53-.85-.54-.86-.52-.87-.52-.86-.51-.88-.5-.87-.5-.88-.49-.88-.48-.88-.48-.89-.47-.9-.46-.89-.46-.9-.45-.91-.44-.9-.43-.91-.43-.92-.42-.92-.41-.92-.41-.92-.4-.93-.39-.93-.39-.94-.37-.94-.37-.94-.37-.95-.36-.95-.35-.96-.34-.96-.34-.96-.33-.96-.32-.97-.31-.97-.31-.98-.3-.98-.3-.98-.29-.99" style="stroke-width:1.07;stroke:#000;stroke-opacity:.1;stroke-linecap:butt"/><path d="m437.52 379.2-1.07-.58-1.06-.59-1.06-.58-1.04-.6-1.03-.6-1.03-.6-1.01-.61-1.01-.61-1-.61-.99-.62-.98-.63-.97-.63-.96-.64-.95-.64-.95-.64-.93-.65-.93-.65-.91-.66-.91-.67-.9-.66-.89-.68-.88-.67-.87-.69-.87-.68-.85-.69-.85-.7-.83-.7-.83-.71-.82-.71-.81-.71-.8-.72-.79-.73-.78-.72-.77-.74-.77-.74-.75-.74-.75-.75-.74-.75-.73-.76-.72-.76-.71-.76-.7-.78-.69-.77-.68-.78-.68-.79-.66-.79-.66-.79-.65-.8-.64-.81-.63-.8-.62-.82-.61-.82-.6-.82-.6-.83-.58-.83-.58-.83-.56-.85-.56-.84-.55-.85-.54-.86-.53-.86-.52-.86-.52-.87-.5-.88-.5-.88-.48-.88-.48-.89-.47-.89-.46-.9-.45-.9-.44-.91-.43-.91-.42-.92-.42-.92-.4-.92-.4-.94-.39-.93-.37-.94-.37-.94-.36-.95-.36-.96-.34-.96-.33-.96-.33-.97-.31-.97-.31-.98-.3-.98-.28-.99-.28-.99-.27-1-.27-1-.25-1-.24-1.01-.24-1.02-.22-1.02-.22-1.02-.21-1.03-.2-1.03-.19-1.04M204.29 440.29l.47.62.48.62.47.62.48.61.48.62.48.61.48.62.49.61.48.61.49.61.49.6.5.61.49.6.5.61.5.6.5.6.5.6.51.59.51.6.51.59.51.6.51.59.52.59.52.59.52.58.52.59.52.58.53.59.53.58.53.58.53.58.53.57.54.58.54.57.54.58.54.57.54.57.55.57.55.57.55.56.55.57.56.56.55.56.56.56.56.56.57.56.56.56.57.55.57.55.57.55.57.56.57.54.58.55.58.55.58.54.58.55.59.54.59.54.59.54.59.54.59.53.6.54.59.53.6.53.61.53.6.53.6.53.61.53.61.52.61.52.62.53.61.52.62.52.62.51.62.52.63.52.62.51.63.51.63.51.63.51.64.51.63.51.64.5.64.51.64.5.65.5.65.5.64.5.65.49.66.5.65.49.66.49.66.5.66.48.66.49.67.49.66.48.67.49.67.48" style="stroke-width:1.07;stroke:#000;stroke-opacity:.1;stroke-linecap:butt"/><path d="m204.29 440.29.54.57.54.58.54.57.54.57.54.58.54.57.54.57.54.57.55.57.54.57.54.58.55.56.54.57.55.57.55.57.55.57.54.57.55.56.55.57.55.57.55.56.56.57.55.56.55.57.56.56.55.56.56.57.55.56.56.56.56.56.55.56.56.56.56.56.56.56.56.56.56.56.57.56.56.55.56.56.57.56.56.55.57.56.56.55.57.56.57.55.56.56.57.55.57.55.57.56.57.55.58.55.57.55.57.55.57.55.58.55.57.55.58.55.58.55.57.54.58.55.58.55.58.54.58.55.58.54.58.55.58.54.58.55.59.54.58.54.59.55.58.54.59.54.58.54.59.54.59.54.59.54.59.54.59.54.59.54.59.53.59.54.59.54.6.53.59.54.59.54.6.53.6.54.59.53.6.53.6.54.6.53.6.53.6.53.6.53.6.53.6.53.6.53.61.53.6.53" style="stroke-width:1.07;stroke:#000;stroke-opacity:.1;stroke-linecap:butt"/><path d="m204.29 440.29.61.52.6.53.6.53.61.53.6.53.6.54.6.53.6.53.6.53.59.53.6.54.6.53.6.54.59.53.6.54.59.53.59.54.6.54.59.53.59.54.59.54.59.54.59.54.59.54.59.54.58.54.59.54.58.54.59.54.58.54.59.55.58.54.58.54.59.55.58.54.58.55.58.54.58.55.57.55.58.54.58.55.58.55.57.55.58.55.57.55.57.55.58.55.57.55.57.55.57.55.57.55.57.56.57.55.57.55.57.56.56.55.57.56.56.55.57.56.56.56.57.55.56.56.56.56.56.56.56.56.56.56.56.55.56.57.56.56.56.56.55.56.56.56.56.56.55.57.55.56.56.57.55.56.55.56.55.57.55.57.55.56.55.57.55.57.55.57.54.56.55.57.55.57.54.57.55.57.54.57.54.57.55.58.54.57.54.57.54.57.54.58.54.57.54.58.53.57" style="stroke-width:1.07;stroke:#000;stroke-opacity:.1;stroke-linecap:butt"/><path d="m204.29 440.29.67.48.67.48.67.49.66.48.67.49.66.49.66.49.65.5.66.49.65.49.65.5.65.5.65.5.64.5.64.5.64.51.64.5.64.51.63.5.63.51.63.51.63.52.63.51.62.52.62.51.62.52.62.52.62.52.61.52.61.53.61.52.61.53.61.52.6.53.6.53.6.54.6.53.59.53.6.54.59.54.59.54.59.54.58.54.58.54.58.55.58.54.58.55.58.55.57.55.57.55.57.56.57.55.56.56.56.56.56.55.56.56.56.57.55.56.56.56.55.57.54.57.55.57.55.57.54.57.54.57.54.58.53.57.54.58.53.58.53.58.53.58.52.58.53.59.52.58.52.59.52.59.51.59.52.59.51.59.51.6.5.59.51.6.5.6.51.6.49.6.5.6.5.61.49.6.49.61.49.61.49.61.48.61.49.61.48.62.48.61.47.62.48.62.47.62.47.62" style="stroke-width:1.07;stroke:#000;stroke-opacity:.1;stroke-linecap:butt"/><path d="m154.71 460.35 5.3 9.18H149.4zM222.37 572.31l6.06 10.5h-12.12zM660.23 209.98l6.06 10.5h-12.13zM473.81 600.67l1.92 3.31h-3.83zM564.95 154.2l1.92 3.31h-3.83zM495.91 304.25l1.91 3.31h-3.83zM363.48 448.03l6.7 11.61h-13.4zM542.29 381.72l4.31 7.47h-8.62zM375.88 346.84l1.92 3.32h-3.83zM495.5 435.89l1.92 3.32h-3.83zM352.64 215.59l1.92 3.32h-3.83zM282.58 269.33l1.91 3.31h-3.83z" style="stroke-width:.71;stroke:none;fill:#00ba38"/><path d="M430.76 385.95h13.51v-13.51h-13.51zM200.36 444.22h7.87v-7.87h-7.87z" style="stroke-width:.71;stroke:none;fill:#619cff"/><circle cx="62.51" cy="434.01" r="1.42" style="stroke-width:.71;stroke:none;fill:#f8766d"/><circle cx="260.81" cy="494.92" r="4.5" style="stroke-width:.71;stroke:none;fill:#f8766d"/><path d="M277.74 652.45h9v-9.01h-9z" style="stroke-width:.71;stroke:none;fill:#619cff"/><circle cx="117.35" cy="577.63" r="1.42" style="stroke-width:.71;stroke:none;fill:#f8766d"/><circle cx="561.87" cy="238.02" r="5.4" style="stroke-width:.71;stroke:none;fill:#f8766d"/><circle cx="416.62" cy="530.43" r="4.98" style="stroke-width:.71;stroke:none;fill:#f8766d"/><circle cx="633.58" cy="433.44" r="1.42" style="stroke-width:.71;stroke:none;fill:#f8766d"/><circle cx="375.17" cy="299.14" r="3.94" style="stroke-width:.71;stroke:none;fill:#f8766d"/><circle cx="579.45" cy="495.41" r="1.42" style="stroke-width:.71;stroke:none;fill:#f8766d"/><circle cx="637.8" cy="361.68" r="1.42" style="stroke-width:.71;stroke:none;fill:#f8766d"/><path d="M304.93 148.03h2.84v-2.84h-2.84z" style="stroke-width:.71;stroke:none;fill:#619cff"/><circle cx="146.26" cy="631.78" r="1.42" style="stroke-width:.71;stroke:none;fill:#f8766d"/><circle cx="215.54" cy="661.62" r="1.42" style="stroke-width:.71;stroke:none;fill:#f8766d"/><path d="m149.56 471.13 4.29-3.89M227.47 574.47l-4.27 4.05M655.01 212.25l4.36 3.96M468.82 607.6l4.16-3.93M569.86 151.78l-4.07 3.84M501.14 301.71l-4.38 3.97M368.65 451.08l-4.32 3.91M537.03 391.47l4.41-4M370.79 353.89l4.26-4.05M500.59 433.27l-4.25 4.04M357.83 213.1l-4.34 3.93M277.49 276.36l4.26-4.03M442.81 374.49l-4.43 3.94M209.55 435.62l-4.4 3.9M65.18 438.93l-2.14-3.95M255.58 499.57l4.37-3.88M287.45 643.22l-4.36 3.95M112.21 582.28l4.28-3.88M556.69 242.72l4.33-3.92M411.44 535.13l4.33-3.92M628.43 438.1l4.29-3.89M369.86 303.86l4.45-3.96M574.34 500.03l4.25-3.85M642.78 356.96l-4.15 3.93M311.22 140.31l-4.18 5.41M151.59 627.13l-4.46 3.89M210.86 667.8l4.01-5.28" style="stroke-width:.53;stroke:#bfbfbf"/><path d="M101.69 490.68h72.94l-.09-.01.35-.01.34-.07.33-.12.3-.18.27-.22.23-.26.18-.29.14-.32.08-.34.03-.34v-15.23l-.03-.34-.08-.34-.14-.32-.18-.29-.23-.26-.27-.22-.3-.18-.33-.12-.34-.07-.26-.02h-72.94l.26.02-.34-.01-.35.04-.33.1-.32.14-.28.2-.25.24-.21.28-.16.31-.11.33-.06.34-.01.17v15.23l.01-.18v.35l.06.34.11.33.16.31.21.28.25.24.28.2.32.15.33.09.35.04z" style="stroke-width:.53;fill:#fff;fill-opacity:.5"/><text x="138.16" y="478.88" lengthAdjust="spacingAndGlyphs" style="font-size:5.69px;font-family:&quot;Liberation Sans&quot;" text-anchor="middle" textLength="70.06">TECH SAVVY SOLUTIONS</text><text x="138.16" y="487.08" lengthAdjust="spacingAndGlyphs" style="font-size:5.69px;font-family:&quot;Liberation Sans&quot;" text-anchor="middle" textLength="10.31">LLC</text><path d="M198.86 574.47h71.32-.09l.35-.02.34-.07.32-.12.31-.17.27-.22.23-.26.18-.3.14-.32.08-.33.03-.35v-7.03l-.03-.35-.08-.33-.14-.32-.18-.3-.23-.26-.27-.22-.31-.17-.32-.12-.34-.07-.26-.02h-71.32l.26.02-.34-.02-.35.05-.33.09-.32.15-.28.2-.25.24-.21.28-.16.3-.11.33-.06.35-.01.17v7.03l.01-.18v.35l.06.35.11.33.16.3.21.28.25.24.28.2.32.15.33.09.35.05z" style="stroke-width:.53;fill:#fff;fill-opacity:.5"/><text x="234.52" y="570.87" lengthAdjust="spacingAndGlyphs" style="font-size:5.69px;font-family:&quot;Liberation Sans&quot;" text-anchor="middle" textLength="68.44">COKES ENTERPRISE LLC</text><path d="M614.47 212.25h57.92-.09l.35-.02.34-.07.32-.12.3-.17.27-.22.23-.26.19-.3.14-.32.08-.34.03-.34v-15.22l-.03-.35-.08-.34-.14-.32-.19-.29-.23-.26-.27-.22-.3-.17-.32-.13-.34-.07-.26-.01h-57.92l.26.01-.35-.01-.34.04-.34.1-.31.15-.29.19-.25.24-.2.28-.17.31-.11.33-.05.34-.01.18v15.22l.01-.18v.35l.05.35.11.33.17.3.2.28.25.24.29.2.31.15.34.09.34.05z" style="stroke-width:.53;fill:#fff;fill-opacity:.5"/><text x="643.43" y="200.45" lengthAdjust="spacingAndGlyphs" style="font-size:5.69px;font-family:&quot;Liberation Sans&quot;" text-anchor="middle" textLength="55.04">NORTHSHORE RLTY</text><text x="643.43" y="208.65" lengthAdjust="spacingAndGlyphs" style="font-size:5.69px;font-family:&quot;Liberation Sans&quot;" text-anchor="middle" textLength="42.36">HOLDINGS LLC</text><path d="M444.11 618.95h35.34-.09l.35-.01.34-.07.33-.13.3-.17.27-.22.23-.26.18-.29.14-.32.08-.34.03-.35v-7.03l-.03-.34-.08-.34-.14-.32-.18-.29-.23-.26-.27-.22-.3-.18-.33-.12-.34-.07-.26-.02h-35.34l.26.02-.35-.01-.35.04-.33.09-.31.15-.29.2-.25.24-.21.28-.16.31-.11.33-.06.34v7.2-.17.35l.06.34.11.33.16.31.21.27.25.24.29.2.31.15.33.1.35.04z" style="stroke-width:.53;fill:#fff;fill-opacity:.5"/><text x="461.78" y="615.35" lengthAdjust="spacingAndGlyphs" style="font-size:5.69px;font-family:&quot;Liberation Sans&quot;" text-anchor="middle" textLength="32.46">NATA NASH</text><path d="M544.3 151.78h65.4l-.09-.01.35-.01.34-.07.33-.12.3-.18.27-.22.23-.26.18-.29.14-.32.08-.34.03-.34v-7.03l-.03-.35-.08-.33-.14-.32-.18-.3-.23-.26-.27-.22-.3-.17-.33-.13-.34-.07-.26-.01h-65.4l.26.01-.34-.01-.35.04-.33.1-.32.15-.28.2-.25.24-.21.27-.16.31-.11.33-.06.35-.01.17v7.03l.01-.18v.35l.06.34.11.33.16.31.21.28.25.24.28.2.32.15.33.09.35.04z" style="stroke-width:.53;fill:#fff;fill-opacity:.5"/><text x="577" y="148.18" lengthAdjust="spacingAndGlyphs" style="font-size:5.69px;font-family:&quot;Liberation Sans&quot;" text-anchor="middle" textLength="62.52">NORTHSHORE REALTY</text><path d="M480.05 301.71h65.4-.09l.35-.01.34-.07.33-.12.3-.18.27-.22.23-.26.18-.29.14-.32.08-.34.03-.35v-15.22l-.03-.34-.08-.34-.14-.32-.18-.29-.23-.26-.27-.22-.3-.18-.33-.12-.34-.07-.26-.02h-65.4l.26.02-.34-.02-.35.05-.33.09-.32.15-.28.2-.25.24-.21.28-.16.31-.11.33-.06.34-.01.17v15.22l.01-.17v.35l.06.34.11.33.16.31.21.28.25.24.28.2.32.14.33.1.35.04z" style="stroke-width:.53;fill:#fff;fill-opacity:.5"/><text x="512.75" y="289.92" lengthAdjust="spacingAndGlyphs" style="font-size:5.69px;font-family:&quot;Liberation Sans&quot;" text-anchor="middle" textLength="62.52">NORTHSHORE REALTY</text><text x="512.75" y="298.11" lengthAdjust="spacingAndGlyphs" style="font-size:5.69px;font-family:&quot;Liberation Sans&quot;" text-anchor="middle" textLength="42.36">HOLDINGS LLC</text><path d="M351.59 451.08h57.21-.09l.35-.02.34-.07.32-.12.3-.17.27-.22.23-.26.19-.3.14-.32.08-.33.03-.35V433.7l-.03-.35-.08-.34-.14-.32-.19-.29-.23-.26-.27-.22-.3-.17-.32-.13-.34-.07-.26-.01h-57.21l.26.01-.34-.01-.35.04-.33.1-.32.15-.28.19-.25.25-.21.27-.16.31-.11.33-.06.34-.01.18v15.22l.01-.17v.34l.06.35.11.33.16.3.21.28.25.24.28.2.32.15.33.1.35.04z" style="stroke-width:.53;fill:#fff;fill-opacity:.5"/><text x="380.19" y="439.28" lengthAdjust="spacingAndGlyphs" style="font-size:5.69px;font-family:&quot;Liberation Sans&quot;" text-anchor="middle" textLength="54.32">NASH HOLDINGS &amp;</text><text x="380.19" y="447.48" lengthAdjust="spacingAndGlyphs" style="font-size:5.69px;font-family:&quot;Liberation Sans&quot;" text-anchor="middle" textLength="52.46">INVESTMENTS LLC</text><path d="M497.75 411.01h55.34-.08l.34-.01.34-.07.33-.13.3-.17.27-.22.23-.26.19-.29.13-.32.09-.34.02-.35v-15.22l-.02-.35-.09-.33-.13-.32-.19-.3-.23-.26-.27-.22-.3-.17-.33-.12-.34-.07-.26-.02h-55.34l.26.02-.34-.02-.35.04-.33.1-.32.15-.28.2-.25.24-.21.28-.16.3-.11.33-.06.35-.01.17v15.22l.01-.17v.35l.06.34.11.33.16.31.21.27.25.24.28.2.32.15.33.1.35.04z" style="stroke-width:.53;fill:#fff;fill-opacity:.5"/><text x="525.42" y="399.22" lengthAdjust="spacingAndGlyphs" style="font-size:5.69px;font-family:&quot;Liberation Sans&quot;" text-anchor="middle" textLength="36.73">B&amp;C FUTURE</text><text x="525.42" y="407.41" lengthAdjust="spacingAndGlyphs" style="font-size:5.69px;font-family:&quot;Liberation Sans&quot;" text-anchor="middle" textLength="52.46">INVESTMENTS LLC</text><path d="M332.31 365.23h62.93-.09l.35-.01.34-.07.33-.12.3-.18.27-.22.23-.26.18-.29.14-.32.08-.34.03-.35v-7.02l-.03-.35-.08-.34-.14-.32-.18-.29-.23-.26-.27-.22-.3-.17-.33-.13-.34-.07-.26-.01h-62.93l.26.01-.35-.01-.35.04-.33.1-.31.15-.29.19-.25.24-.21.28-.16.31-.11.33-.06.34v7.2-.17.35l.06.34.11.33.16.31.21.28.25.24.29.2.31.14.33.1.35.04z" style="stroke-width:.53;fill:#fff;fill-opacity:.5"/><text x="363.77" y="361.63" lengthAdjust="spacingAndGlyphs" style="font-size:5.69px;font-family:&quot;Liberation Sans&quot;" text-anchor="middle" textLength="60.06">1 TEN PARTNERS LLC</text><path d="M475.69 433.27h63.88-.09l.35-.01.34-.07.32-.12.3-.18.27-.22.23-.26.19-.29.13-.32.09-.34.03-.35v-7.02l-.03-.35-.09-.34-.13-.32-.19-.29-.23-.26-.27-.22-.3-.17-.32-.13-.34-.07-.26-.01h-63.88l.26.01-.35-.01-.34.04-.34.1-.31.15-.29.19-.25.24-.21.28-.16.31-.11.33-.06.34v7.2-.17.35l.06.34.11.33.16.31.21.28.25.24.29.19.31.15.34.1.34.04z" style="stroke-width:.53;fill:#fff;fill-opacity:.5"/><text x="507.63" y="429.67" lengthAdjust="spacingAndGlyphs" style="font-size:5.69px;font-family:&quot;Liberation Sans&quot;" text-anchor="middle" textLength="61">GOOD REALTORS LLC</text><path d="M336.99 213.1h64.77-.08l.35-.01.34-.07.32-.13.3-.17.27-.22.23-.26.19-.29.13-.32.09-.34.02-.35v-15.22l-.02-.34-.09-.34-.13-.32-.19-.3-.23-.26-.27-.22-.3-.17-.32-.12-.34-.07-.27-.02h-64.77l.26.02-.34-.02-.35.05-.33.09-.32.15-.28.2-.25.24-.21.28-.16.31-.11.32-.06.35-.01.17v15.22l.01-.17v.35l.06.34.11.33.16.31.21.28.25.24.28.19.32.15.33.1.35.04z" style="stroke-width:.53;fill:#fff;fill-opacity:.5"/><text x="369.38" y="201.31" lengthAdjust="spacingAndGlyphs" style="font-size:5.69px;font-family:&quot;Liberation Sans&quot;" text-anchor="middle" textLength="61.89">DREAMBIG PROPERTY</text><text x="369.38" y="209.5" lengthAdjust="spacingAndGlyphs" style="font-size:5.69px;font-family:&quot;Liberation Sans&quot;" text-anchor="middle" textLength="44.75">SOLUTIONS LLC</text><path d="M248.74 287.71h43.33-.08l.34-.02.35-.07.32-.12.3-.17.27-.22.23-.26.19-.3.13-.32.09-.33.02-.35v-7.03l-.02-.34-.09-.34-.13-.32-.19-.3-.23-.26-.27-.22-.3-.17-.32-.12-.35-.07-.26-.02h-43.33l.26.02-.35-.02-.34.05-.34.09-.31.15-.29.2-.25.24-.21.28-.16.31-.11.33-.06.34v7.2-.17.34l.06.35.11.33.16.3.21.28.25.24.29.2.31.15.34.1.34.04z" style="stroke-width:.53;fill:#fff;fill-opacity:.5"/><text x="270.41" y="284.11" lengthAdjust="spacingAndGlyphs" style="font-size:5.69px;font-family:&quot;Liberation Sans&quot;" text-anchor="middle" textLength="40.46">1TP LAND TRT</text><path d="M426.48 374.49h65.16l-.09-.01.35-.01.34-.07.33-.12.3-.18.27-.22.23-.26.18-.29.14-.32.08-.34.03-.34v-23.42l-.03-.35-.08-.33-.14-.32-.18-.3-.23-.26-.27-.22-.3-.17-.33-.12-.34-.07-.26-.02h-65.16l.26.02-.35-.02-.34.04-.33.1-.32.15-.29.2-.25.24-.2.28-.17.3-.11.33-.05.35-.01.17v23.42l.01-.18v.35l.05.34.11.33.17.31.2.28.25.24.29.2.32.15.33.09.34.04z" style="stroke-width:.53;fill:#fff;fill-opacity:.5"/><text x="459.06" y="354.5" lengthAdjust="spacingAndGlyphs" style="font-size:5.69px;font-family:&quot;Liberation Sans&quot;" text-anchor="middle" textLength="61.56">5215 IRONWOOD RD,</text><text x="459.06" y="362.69" lengthAdjust="spacingAndGlyphs" style="font-size:5.69px;font-family:&quot;Liberation Sans&quot;" text-anchor="middle" textLength="62.28">STE 202, MILWAUKEE,</text><text x="459.06" y="370.89" lengthAdjust="spacingAndGlyphs" style="font-size:5.69px;font-family:&quot;Liberation Sans&quot;" text-anchor="middle" textLength="27.22">WI 53217</text><path d="M190.68 435.62h70.24l-.09-.01.35-.01.34-.07.33-.12.3-.18.27-.22.23-.26.18-.29.14-.32.08-.34.03-.34v-23.42l-.03-.35-.08-.33-.14-.32-.18-.3-.23-.26-.27-.22-.3-.17-.33-.12-.34-.07-.26-.02h-70.24l.26.02-.35-.02-.34.04-.34.1-.31.15-.29.2-.25.24-.21.28-.16.3-.11.33-.06.35v23.59-.18.35l.06.34.11.33.16.31.21.28.25.24.29.2.31.15.34.09.34.04z" style="stroke-width:.53;fill:#fff;fill-opacity:.5"/><text x="225.8" y="415.63" lengthAdjust="spacingAndGlyphs" style="font-size:5.69px;font-family:&quot;Liberation Sans&quot;" text-anchor="middle" textLength="45.63">93 HILLSIDE LN,</text><text x="225.8" y="423.82" lengthAdjust="spacingAndGlyphs" style="font-size:5.69px;font-family:&quot;Liberation Sans&quot;" text-anchor="middle" textLength="67.36">MENOMONEE FALLS, WI</text><text x="225.8" y="432.02" lengthAdjust="spacingAndGlyphs" style="font-size:5.69px;font-family:&quot;Liberation Sans&quot;" text-anchor="middle" textLength="18.11">53051</text><path d="M67.34 463.95h70.24-.08l.35-.02.34-.07.32-.12.3-.17.27-.22.23-.26.19-.3.13-.32.09-.34.02-.34v-23.42l-.02-.34-.09-.34-.13-.32-.19-.3-.23-.26-.27-.22-.3-.17-.32-.12-.34-.07-.27-.02H67.34l.26.02-.35-.02-.34.05-.33.09-.32.15-.28.2-.26.24-.2.28-.17.31-.11.32-.05.35-.01.17v23.42l.01-.18v.35l.05.34.11.33.17.31.2.28.26.24.28.2.32.15.33.09.34.05z" style="stroke-width:.53;fill:#fff;fill-opacity:.5"/><text x="102.46" y="443.96" lengthAdjust="spacingAndGlyphs" style="font-size:5.69px;font-family:&quot;Liberation Sans&quot;" text-anchor="middle" textLength="62.43">78 APPLETON AVE 16,</text><text x="102.46" y="452.15" lengthAdjust="spacingAndGlyphs" style="font-size:5.69px;font-family:&quot;Liberation Sans&quot;" text-anchor="middle" textLength="67.36">MENOMONEE FALLS, WI</text><text x="102.46" y="460.35" lengthAdjust="spacingAndGlyphs" style="font-size:5.69px;font-family:&quot;Liberation Sans&quot;" text-anchor="middle" textLength="18.11">53051</text><path d="M204.18 527.3h70.24-.08l.34-.01.34-.07.33-.13.3-.17.27-.22.23-.26.19-.29.13-.32.09-.34.02-.35v-23.41l-.02-.35-.09-.34-.13-.32-.19-.29-.23-.26-.27-.22-.3-.18-.33-.12-.34-.07-.26-.01h-70.24l.26.01-.35-.01-.34.04-.34.1-.31.15-.29.19-.25.24-.21.28-.16.31-.11.33-.05.34-.01.18v23.41l.01-.17v.35l.05.34.11.33.16.31.21.27.25.25.29.19.31.15.34.1.34.04z" style="stroke-width:.53;fill:#fff;fill-opacity:.5"/><text x="239.3" y="507.31" lengthAdjust="spacingAndGlyphs" style="font-size:5.69px;font-family:&quot;Liberation Sans&quot;" text-anchor="middle" textLength="45.63">93 HILLSIDE LN,</text><text x="239.3" y="515.51" lengthAdjust="spacingAndGlyphs" style="font-size:5.69px;font-family:&quot;Liberation Sans&quot;" text-anchor="middle" textLength="67.36">MENOMONEE FALLS, WI</text><text x="239.3" y="523.7" lengthAdjust="spacingAndGlyphs" style="font-size:5.69px;font-family:&quot;Liberation Sans&quot;" text-anchor="middle" textLength="18.11">53051</text><path d="M265.4 643.22h67.22-.09l.35-.01.34-.07.32-.13.3-.17.27-.22.23-.26.19-.29.13-.32.09-.34.03-.35v-15.22l-.03-.34-.09-.34-.13-.32-.19-.3-.23-.26-.27-.22-.3-.17-.32-.12-.34-.07-.26-.02H265.4l.26.02-.35-.02-.35.05-.33.09-.31.15-.29.2-.25.24-.21.28-.16.3-.11.33-.06.35v15.39-.17.35l.06.34.11.33.16.31.21.28.25.24.29.19.31.15.33.1.35.04z" style="stroke-width:.53;fill:#fff;fill-opacity:.5"/><text x="299.01" y="631.43" lengthAdjust="spacingAndGlyphs" style="font-size:5.69px;font-family:&quot;Liberation Sans&quot;" text-anchor="middle" textLength="63.32">7330 W LINCOLN AVE,</text><text x="299.01" y="639.62" lengthAdjust="spacingAndGlyphs" style="font-size:5.69px;font-family:&quot;Liberation Sans&quot;" text-anchor="middle" textLength="64.34">MILWAUKEE, WI 53219</text><path d="M67.01 601.82h67.22-.09l.35-.02.34-.07.33-.12.3-.18.27-.22.23-.26.18-.29.14-.32.08-.34.03-.34v-15.22l-.03-.35-.08-.34-.14-.32-.18-.29-.23-.26-.27-.22-.3-.18-.33-.12-.34-.07-.26-.01H67.01l.26.01-.35-.01-.34.04-.34.1-.31.14-.29.2-.25.24-.21.28-.16.31-.11.33-.05.34-.01.18v15.22l.01-.18v.35l.05.34.11.33.16.31.21.28.25.24.29.2.31.15.34.09.34.05z" style="stroke-width:.53;fill:#fff;fill-opacity:.5"/><text x="100.62" y="590.02" lengthAdjust="spacingAndGlyphs" style="font-size:5.69px;font-family:&quot;Liberation Sans&quot;" text-anchor="middle" textLength="61.62">4878 WATERVIEW CT,</text><text x="100.62" y="598.22" lengthAdjust="spacingAndGlyphs" style="font-size:5.69px;font-family:&quot;Liberation Sans&quot;" text-anchor="middle" textLength="64.34">MILWAUKEE, WI 53220</text><path d="M511.53 262.26h67.22-.08l.34-.02.34-.07.33-.12.3-.18.27-.22.23-.26.19-.29.13-.32.09-.34.02-.34v-15.22l-.02-.35-.09-.34-.13-.32-.19-.29-.23-.26-.27-.22-.3-.18-.33-.12-.34-.07-.26-.01h-67.22l.26.01-.34-.01-.35.04-.33.1-.32.14-.28.2-.25.24-.21.28-.16.31-.11.33-.06.34-.01.18v15.22l.01-.18v.35l.06.34.11.33.16.31.21.28.25.24.28.2.32.15.33.09.35.05z" style="stroke-width:.53;fill:#fff;fill-opacity:.5"/><text x="545.14" y="250.46" lengthAdjust="spacingAndGlyphs" style="font-size:5.69px;font-family:&quot;Liberation Sans&quot;" text-anchor="middle" textLength="46.86">PO BOX 241418,</text><text x="545.14" y="258.66" lengthAdjust="spacingAndGlyphs" style="font-size:5.69px;font-family:&quot;Liberation Sans&quot;" text-anchor="middle" textLength="64.34">MILWAUKEE, WI 53224</text><path d="M366.21 554.67h67.22-.09l.35-.02.34-.06.33-.13.3-.17.27-.22.23-.26.18-.3.14-.32.08-.33.03-.35v-15.22l-.03-.35-.08-.33-.14-.32-.18-.3-.23-.26-.27-.22-.3-.17-.33-.13-.34-.07-.26-.01h-67.22l.26.01-.35-.01-.34.04-.34.1-.31.15-.29.2-.25.24-.21.27-.16.31-.11.33-.05.35-.01.17v15.22l.01-.17v.34l.05.35.11.33.16.31.21.27.25.24.29.2.31.15.34.1.34.04z" style="stroke-width:.53;fill:#fff;fill-opacity:.5"/><text x="399.82" y="542.88" lengthAdjust="spacingAndGlyphs" style="font-size:5.69px;font-family:&quot;Liberation Sans&quot;" text-anchor="middle" textLength="48.05">5109 N 64TH ST,</text><text x="399.82" y="551.07" lengthAdjust="spacingAndGlyphs" style="font-size:5.69px;font-family:&quot;Liberation Sans&quot;" text-anchor="middle" textLength="64.34">MILWAUKEE, WI 53218</text><path d="M583.29 457.64h67.22-.09l.35-.01.34-.07.33-.13.3-.17.27-.22.23-.26.18-.29.14-.32.08-.34.03-.35v-15.22l-.03-.35-.08-.33-.14-.32-.18-.3-.23-.26-.27-.22-.3-.17-.33-.12-.34-.07-.26-.02h-67.22l.26.02-.34-.02-.35.04-.33.1-.32.15-.28.2-.25.24-.21.28-.17.3-.11.33-.05.35-.01.17v15.22l.01-.17v.35l.05.34.11.33.17.31.21.27.25.25.28.19.32.15.33.1.35.04z" style="stroke-width:.53;fill:#fff;fill-opacity:.5"/><text x="616.9" y="445.85" lengthAdjust="spacingAndGlyphs" style="font-size:5.69px;font-family:&quot;Liberation Sans&quot;" text-anchor="middle" textLength="48.05">3931 N 35TH ST,</text><text x="616.9" y="454.04" lengthAdjust="spacingAndGlyphs" style="font-size:5.69px;font-family:&quot;Liberation Sans&quot;" text-anchor="middle" textLength="64.34">MILWAUKEE, WI 53216</text><path d="M321.03 331.6h65.16-.09l.35-.02.34-.07.32-.12.3-.17.27-.22.23-.26.19-.3.13-.32.09-.34.03-.34v-23.42l-.03-.34-.09-.34-.13-.32-.19-.3-.23-.26-.27-.22-.3-.17-.32-.12-.34-.07-.26-.02h-65.16l.26.02-.35-.02-.35.05-.33.09-.31.15-.29.2-.25.24-.21.28-.16.31-.11.33-.06.34v23.59-.18.35l.06.35.11.33.16.3.21.28.25.24.29.2.31.15.33.09.35.05z" style="stroke-width:.53;fill:#fff;fill-opacity:.5"/><text x="353.61" y="311.61" lengthAdjust="spacingAndGlyphs" style="font-size:5.69px;font-family:&quot;Liberation Sans&quot;" text-anchor="middle" textLength="61.56">5215 IRONWOOD RD,</text><text x="353.61" y="319.8" lengthAdjust="spacingAndGlyphs" style="font-size:5.69px;font-family:&quot;Liberation Sans&quot;" text-anchor="middle" textLength="62.28">STE 202, MILWAUKEE,</text><text x="353.61" y="328" lengthAdjust="spacingAndGlyphs" style="font-size:5.69px;font-family:&quot;Liberation Sans&quot;" text-anchor="middle" textLength="27.22">WI 53217</text><path d="M529.11 519.57h67.22-.08l.34-.01.34-.07.33-.13.3-.17.27-.22.23-.26.19-.29.13-.32.09-.34.02-.35v-15.22l-.02-.35-.09-.33-.13-.32-.19-.3-.23-.26-.27-.22-.3-.17-.33-.13-.34-.06-.26-.02h-67.22l.26.02-.34-.02-.35.04-.33.1-.32.15-.28.2-.25.24-.21.28-.16.3-.11.33-.06.35-.01.17v15.22l.01-.17v.35l.06.34.11.33.16.31.21.27.25.24.28.2.32.15.33.1.35.04z" style="stroke-width:.53;fill:#fff;fill-opacity:.5"/><text x="562.72" y="507.78" lengthAdjust="spacingAndGlyphs" style="font-size:5.69px;font-family:&quot;Liberation Sans&quot;" text-anchor="middle" textLength="50.67">2220 BUFFUM ST,</text><text x="562.72" y="515.97" lengthAdjust="spacingAndGlyphs" style="font-size:5.69px;font-family:&quot;Liberation Sans&quot;" text-anchor="middle" textLength="64.34">MILWAUKEE, WI 53212</text><path d="M615.33 356.96h69.02-.08l.34-.01.34-.07.33-.12.3-.18.27-.22.23-.26.18-.29.14-.32.08-.34.03-.35v-23.41l-.03-.35-.08-.34-.14-.31-.18-.3-.23-.26-.27-.22-.3-.17-.33-.13-.34-.07-.26-.01h-69.02l.26.01-.35-.01-.35.04-.33.1-.31.15-.29.2-.25.24-.21.27-.16.31-.11.33-.06.35v23.58-.17.35l.06.34.11.33.16.31.21.28.25.24.29.2.31.14.33.1.35.04z" style="stroke-width:.53;fill:#fff;fill-opacity:.5"/><text x="649.84" y="336.98" lengthAdjust="spacingAndGlyphs" style="font-size:5.69px;font-family:&quot;Liberation Sans&quot;" text-anchor="middle" textLength="63.43">3931 N 35TH ST, UNIT</text><text x="649.84" y="345.17" lengthAdjust="spacingAndGlyphs" style="font-size:5.69px;font-family:&quot;Liberation Sans&quot;" text-anchor="middle" textLength="66.15">16473, MILWAUKEE, WI</text><text x="649.84" y="353.36" lengthAdjust="spacingAndGlyphs" style="font-size:5.69px;font-family:&quot;Liberation Sans&quot;" text-anchor="middle" textLength="18.11">53216</text><path d="M313.38 144h66.15-.09l.35-.01.34-.07.32-.12.3-.18.27-.22.23-.26.19-.29.14-.32.08-.34.03-.35v-15.22l-.03-.34-.08-.34-.14-.32-.19-.29-.23-.27-.27-.21-.3-.18-.32-.12-.34-.07-.26-.02h-66.15l.26.02-.35-.02-.34.05-.34.09-.31.15-.29.2-.25.24-.21.28-.16.31-.11.33-.05.34-.01.17v15.22l.01-.17v.35l.05.34.11.33.16.31.21.28.25.24.29.19.31.15.34.1.34.04z" style="stroke-width:.53;fill:#fff;fill-opacity:.5"/><text x="346.45" y="132.21" lengthAdjust="spacingAndGlyphs" style="font-size:5.69px;font-family:&quot;Liberation Sans&quot;" text-anchor="middle" textLength="46.86">2761 ALLIED ST,</text><text x="346.45" y="140.4" lengthAdjust="spacingAndGlyphs" style="font-size:5.69px;font-family:&quot;Liberation Sans&quot;" text-anchor="middle" textLength="63.27">GREEN BAY, WI 54304</text><path d="M145.75 627.13h67.22-.09l.35-.02.34-.07.33-.12.3-.17.27-.22.23-.26.18-.3.14-.32.08-.33.03-.35v-15.22l-.03-.35-.08-.34-.14-.32-.18-.29-.23-.26-.27-.22-.3-.17-.33-.13-.34-.07-.26-.01h-67.22l.26.01-.35-.01-.34.04-.33.1-.32.15-.28.2-.26.24-.2.27-.17.31-.11.33-.05.34-.01.18v15.22l.01-.17v.34l.05.35.11.33.17.3.2.28.26.24.28.2.32.15.33.1.34.04z" style="stroke-width:.53;fill:#fff;fill-opacity:.5"/><text x="179.36" y="615.34" lengthAdjust="spacingAndGlyphs" style="font-size:5.69px;font-family:&quot;Liberation Sans&quot;" text-anchor="middle" textLength="55.87">809 W BURNAM ST,</text><text x="179.36" y="623.53" lengthAdjust="spacingAndGlyphs" style="font-size:5.69px;font-family:&quot;Liberation Sans&quot;" text-anchor="middle" textLength="64.34">MILWAUKEE, WI 53204</text><path d="M141.48 683.74h67.22l-.09-.01.35-.01.34-.07.32-.12.3-.18.27-.22.23-.26.19-.29.14-.32.08-.34.03-.34v-15.23l-.03-.34-.08-.34-.14-.32-.19-.29-.23-.26-.27-.22-.3-.18-.32-.12-.34-.07-.26-.02h-67.22l.26.02-.35-.01-.34.04-.34.1-.31.14-.29.2-.25.24-.21.28-.16.31-.11.33-.05.34-.01.17v15.23l.01-.18v.35l.05.34.11.33.16.31.21.28.25.24.29.2.31.15.34.09.34.04z" style="stroke-width:.53;fill:#fff;fill-opacity:.5"/><text x="175.09" y="671.94" lengthAdjust="spacingAndGlyphs" style="font-size:5.69px;font-family:&quot;Liberation Sans&quot;" text-anchor="middle" textLength="55.89">7330 LINCOLN AVE,</text><text x="175.09" y="680.14" lengthAdjust="spacingAndGlyphs" style="font-size:5.69px;font-family:&quot;Liberation Sans&quot;" text-anchor="middle" textLength="64.34">MILWAUKEE, WI 53219</text></g><g clip-path="url(#cpMC4wMHw3MjAuMDB8MC4wMHw3MjAuMDA=)"><circle cx="266.24" cy="95.78" r="1.95" style="stroke-width:.71;stroke:none;fill:#f8766d"/><path d="m342.59 92.74 2.63 4.56h-5.26z" style="stroke-width:.71;stroke:none;fill:#00ba38"/><path d="M408.57 97.74h3.91v-3.91h-3.91z" style="stroke-width:.71;stroke:none;fill:#619cff"/><text x="280.36" y="98.81" lengthAdjust="spacingAndGlyphs" style="font-size:8.8px;font-family:&quot;Liberation Sans Narrow&quot;" textLength="48.12">mprop address</text><text x="356.71" y="98.81" lengthAdjust="spacingAndGlyphs" style="font-size:8.8px;font-family:&quot;Liberation Sans Narrow&quot;" textLength="39.69">owner name</text><text x="424.64" y="98.81" lengthAdjust="spacingAndGlyphs" style="font-size:8.8px;font-family:&quot;Liberation Sans Narrow&quot;" textLength="40.5">wdfi address</text><text x="32.63" y="64.23" lengthAdjust="spacingAndGlyphs" style="font-size:12px;font-family:&quot;Liberation Sans Narrow&quot;" textLength="257.7">includes 25 parcels, 38 units, and 12 distinct owner names.</text><text x="32.63" y="42.27" lengthAdjust="spacingAndGlyphs" style="font-size:18px;font-weight:700;font-family:&quot;Liberation Sans Narrow&quot;" textLength="328.79">NASH HOLDINGS &amp; INVESTMENTS LLC Group</text></g></svg>