<svg xmlns="http://www.w3.org/2000/svg" width="576" height="672" class="svglite" viewBox="0 0 432 504"><defs><style><![CDATA[.svglite line,.svglite polyline,.svglite polygon,.svglite path,.svglite circle{fill:none;stroke:#000000;stroke-linecap:round;stroke-linejoin:round;stroke-miterlimit:10.00}.svglite text{white-space:pre}]]></style></defs><rect width="100%" height="100%" style="stroke-linecap:round;stroke-linejoin:round;stroke-miterlimit:10.00;stroke:none;fill:#FFFFFF"/><defs><clipPath id="cpMC4wMHw0MzIuMDB8MC4wMHw1MDQuMDA="><path d="M0 0h432v504H0z"/></clipPath></defs><g clip-path="url(#cpMC4wMHw0MzIuMDB8MC4wMHw1MDQuMDA=)"><path d="M0 0h432v504H0z" style="stroke-width:1.07;stroke:none;fill:#FFFFFF"/></g><defs><clipPath id="cpMzIuNjN8NDAyLjExfDE0MC4zMHw0NzEuMzc="><path d="M32.63 140.3h369.48v331.07H32.63z"/></clipPath></defs><g clip-path="url(#cpMzIuNjN8NDAyLjExfDE0MC4zMHw0NzEuMzc=)"><path d="m302.99 338.95-.86-.33-.87-.33-.86-.34-.87-.33-.86-.34-.87-.33-.86-.34-.87-.33-.86-.34-.86-.33-.87-.34-.86-.33-.87-.34-.86-.33-.87-.34-.86-.33-.87-.34-.86-.33-.87-.33-.86-.34-.87-.33-.86-.34-.87-.33-.86-.34-.87-.33-.86-.34-.87-.33-.86-.34-.87-.33-.86-.34-.87-.33-.86-.34-.87-.33-.86-.34-.87-.33-.86-.33-.87-.34-.86-.33-.87-.34-.86-.33-.87-.34-.86-.33-.87-.34-.86-.33-.87-.34-.86-.33-.87-.34-.86-.33-.87-.34-.86-.33-.87-.33-.86-.34-.87-.33-.86-.34-.86-.33-.87-.34-.86-.33-.87-.34-.86-.33-.87-.34-.86-.33-.87-.34-.86-.33-.87-.34-.86-.33-.87-.34-.86-.33-.87-.33-.86-.34-.87-.33-.86-.34-.87-.33-.86-.34-.87-.33-.86-.34-.87-.33-.86-.34-.87-.33-.86-.34-.87-.33-.86-.34-.87-.33-.86-.34-.87-.33-.86-.33-.87-.34-.86-.33-.87-.34-.86-.33-.87-.34-.86-.33-.87-.34-.86-.33-.87-.34-.86-.33-.87-.34-.86-.33-.87-.34-.86-.33m85.62 33.13.54 1.55.55 1.53.54 1.53.55 1.53.55 1.51.55 1.51.56 1.5.56 1.49.56 1.49.56 1.47.57 1.47.57 1.47.57 1.45.58 1.45.58 1.44.58 1.44.58 1.43.59 1.42.59 1.41.59 1.4.6 1.4.6 1.39.6 1.38.6 1.38.61 1.37.61 1.36.61 1.35.61 1.35.62 1.34.62 1.33.63 1.32.62 1.32.63 1.31.63 1.3.64 1.3.63 1.29.64 1.28.65 1.27.64 1.27.65 1.26.65 1.25.66 1.24.65 1.24.66 1.23.67 1.22.66 1.21.67 1.21.67 1.2.67 1.19.68 1.19.68 1.18.68 1.17.69 1.16.68 1.16.69 1.15.7 1.14.69 1.13.7 1.13.7 1.12.71 1.11.7 1.11.72 1.1.71 1.09.71 1.08.72 1.08.72 1.06.73 1.07.72 1.05.73 1.05.74 1.04.73 1.03.74 1.02.74 1.02.74 1.01.75 1 .75 1 .75.99.76.98.75.97.76.97.77.95.76.96.77.94.77.94.78.93.77.92.78.91.79.91.78.9.79.9.79.88.8.88.79.87.8.86.8.86.81.85.81.84.81.84.81.82M131.74 272.7l.87.34.86.33.87.34.86.33.87.33.86.34.87.33.86.34.87.33.86.34.87.33.86.34.87.33.86.34.87.33.86.33.87.34.86.33.87.34.86.33.87.34.86.33.87.34.86.33.87.34.86.33.87.33.86.34.87.33.86.34.87.33.86.34.87.33.86.34.87.33.86.33.87.34.86.33.87.34.86.33.87.34.86.33.87.34.86.33.87.34.86.33.86.33.87.34.86.33.87.34.86.33.87.34.86.33.87.34.86.33.87.34.86.33.87.33.86.34.87.33.86.34.87.33.86.34.87.33.86.34.87.33.86.34.87.33.86.33.87.34.86.33.87.34.86.33.87.34.86.33.87.34.86.33.87.33.86.34.87.33.86.34.87.33.86.34.87.33.86.34.87.33.86.34.87.33.86.33.87.34.86.33.87.34.86.33.87.34.86.33.87.34.86.33.87.34.86.33m-85.63-33.12-.54-1.54-.54-1.54-.54-1.53-.55-1.52-.55-1.51-.55-1.51-.56-1.5-.56-1.49-.56-1.49-.57-1.48-.56-1.47-.57-1.46-.58-1.46-.57-1.44-.58-1.45-.58-1.43-.59-1.43-.58-1.42-.59-1.41-.6-1.4-.59-1.4-.6-1.39-.6-1.38-.6-1.38-.61-1.37-.61-1.36-.61-1.35-.62-1.35-.62-1.34-.62-1.33-.62-1.32-.63-1.32-.62-1.31-.64-1.3-.63-1.3-.64-1.28-.64-1.28-.64-1.28-.65-1.26-.65-1.26-.65-1.25-.65-1.25-.66-1.23-.66-1.23-.66-1.23-.67-1.21-.66-1.21-.67-1.2-.68-1.19-.67-1.19-.68-1.17-.69-1.17-.68-1.17-.69-1.15-.69-1.15-.69-1.14-.7-1.14-.7-1.12-.7-1.12-.7-1.12-.71-1.1-.71-1.1-.71-1.09-.72-1.08-.72-1.08-.72-1.07-.72-1.06-.73-1.05-.73-1.05-.73-1.04-.74-1.03-.74-1.02-.74-1.02-.74-1.01-.75-1-.75-1-.75-.99-.75-.98-.76-.97-.76-.97-.76-.95-.77-.96-.77-.94-.77-.94-.77-.93-.78-.92-.78-.91-.78-.91-.79-.9-.79-.89-.79-.89-.79-.88-.8-.87-.8-.86-.8-.86-.81-.85-.8-.84-.82-.83-.81-.83m66.97 117.35-.82.61-.83.6-.83.6-.83.61-.82.6-.83.6-.83.61-.83.6-.82.61-.83.6-.83.6-.83.61-.82.6-.83.6-.83.61-.83.6-.82.6-.83.61-.83.6-.83.61-.82.6-.83.6-.83.61-.83.6-.82.6-.83.61-.83.6-.83.61-.82.6-.83.6-.83.61-.83.6-.82.6-.83.61-.83.6-.83.61-.82.6-.83.6-.83.61-.83.6-.82.6-.83.61-.83.6-.83.6-.82.61-.83.6-.83.61-.83.6-.82.6-.83.61-.83.6-.83.6-.82.61-.83.6-.83.61-.83.6-.82.6-.83.61-.83.6-.83.6-.82.61-.83.6-.83.61-.83.6-.82.6-.83.61-.83.6-.83.6-.82.61-.83.6-.83.6-.83.61-.82.6-.83.61-.83.6-.83.6-.82.61-.83.6-.83.6-.83.61-.82.6-.83.61-.83.6-.83.6-.82.61-.83.6-.83.6-.83.61-.83.6-.82.61-.83.6-.83.6-.83.61-.82.6-.83.6-.83.61-.83.6-.82.6-.83.61m81.92-59.77-.81-.83-.81-.83-.81-.84-.8-.85-.81-.86-.79-.86-.8-.87-.8-.88-.79-.88-.79-.9-.78-.9-.78-.9-.78-.92-.78-.92-.78-.93-.77-.94-.77-.94-.76-.95-.76-.96-.77-.97-.75-.97-.76-.98-.75-.99-.75-.99-.75-1.01-.74-1.01-.74-1.01-.74-1.03-.73-1.03-.74-1.04-.72-1.05-.73-1.05-.73-1.06-.72-1.07-.72-1.07-.71-1.09-.71-1.09-.71-1.1-.71-1.1-.71-1.11-.7-1.12-.7-1.13-.69-1.13-.7-1.14-.69-1.15-.68-1.16-.69-1.16-.68-1.17-.68-1.18-.68-1.19-.67-1.19-.67-1.2-.67-1.21-.66-1.21-.67-1.22-.66-1.23-.65-1.24-.66-1.24-.65-1.25-.65-1.26-.64-1.27-.65-1.27-.64-1.28-.63-1.29-.64-1.3-.63-1.3-.63-1.31-.63-1.31-.62-1.33-.62-1.33-.62-1.34-.61-1.35-.61-1.35-.61-1.36-.61-1.37-.6-1.37-.61-1.39-.59-1.39-.6-1.39-.59-1.41-.59-1.41-.59-1.42-.58-1.43-.58-1.43-.58-1.44-.58-1.45-.57-1.46-.57-1.46-.57-1.47-.56-1.48-.57-1.48-.55-1.5-.56-1.5-.55-1.5-.55-1.52-.55-1.52-.55-1.53-.54-1.53-.54-1.55m238.22 183.6.83-.6.83-.6.83-.61.82-.6.83-.6.83-.61.83-.6.82-.6.83-.61.83-.6.83-.6.82-.61.83-.6.83-.6.83-.61.82-.6.83-.6.83-.61.83-.6.83-.61.82-.6.83-.6.83-.61.83-.6.82-.6.83-.61.83-.6.83-.6.82-.61.83-.6.83-.6.83-.61.82-.6.83-.6.83-.61.83-.6.82-.6.83-.61.83-.6.83-.61.82-.6.83-.6.83-.61.83-.6.82-.6.83-.61.83-.6.83-.6.82-.61.83-.6.83-.6.83-.61.82-.6.83-.6.83-.61.83-.6.82-.6.83-.61.83-.6.83-.61.82-.6.83-.6.83-.61.83-.6.82-.6.83-.61.83-.6.83-.6.82-.61.83-.6.83-.6.83-.61.82-.6.83-.6.83-.61.83-.6.83-.6.82-.61.83-.6.83-.6.83-.61.82-.6.83-.61.83-.6.83-.6.82-.61.83-.6.83-.6.83-.61.82-.6.83-.6.83-.61.83-.6.82-.6.83-.61.83-.6.83-.6.82-.61.83-.6m-81.93 59.74.82.83.81.84.81.84.8.85.8.85.8.87.8.87.79.88.79.88.79.9.79.9.78.9.78.92.78.92.77.93.77.94.77.94.77.95.76.96.76.97.76.97.76.98.75.99.75 1 .74 1 .75 1.01.74 1.02.73 1.02.74 1.03.73 1.04.73 1.05.73 1.05.72 1.06.72 1.07.72 1.08.72 1.08.71 1.09.71 1.1.71 1.1.7 1.12.7 1.12.7 1.12.7 1.14.69 1.14.69 1.15.69 1.16.69 1.16.68 1.17.68 1.18.67 1.18.68 1.2.67 1.2.67 1.2.66 1.22.66 1.22.66 1.23.66 1.24.65 1.24.65 1.25.65 1.26.65 1.27.64 1.27.64 1.28.64 1.29.63 1.29.64 1.31.62 1.31.63 1.31.62 1.33.62 1.33.62 1.34.62 1.35.61 1.35.61 1.36.6 1.37.61 1.37.6 1.39.6 1.39.59 1.4.6 1.4.59 1.41.58 1.42.59 1.43.58 1.43.58 1.44.57 1.45.57 1.46.57 1.46.57 1.47.57 1.48.56 1.49.56 1.49.55 1.5.56 1.51.55 1.51.55 1.52.54 1.53.54 1.54.54 1.54m0 0 .36-1.71.35-1.71.35-1.71.35-1.71.34-1.72.34-1.71.33-1.72.33-1.72.32-1.73.32-1.72.32-1.73.31-1.72.31-1.73.3-1.73.3-1.73.29-1.74.29-1.73.29-1.74.28-1.74.28-1.74.27-1.74.27-1.74.27-1.75.26-1.74.25-1.75.26-1.75.24-1.75.25-1.76.24-1.75.23-1.76.24-1.75.22-1.76.23-1.77.21-1.76.22-1.76.21-1.77.2-1.77.21-1.77.19-1.77.2-1.77.19-1.77.18-1.78.18-1.78.18-1.78.17-1.78.17-1.78.16-1.78.16-1.79.16-1.79.15-1.79.14-1.79.15-1.79.14-1.79.13-1.8.13-1.8.13-1.8.12-1.8.11-1.8.12-1.8.11-1.81.1-1.8.1-1.81.1-1.81.09-1.82.09-1.81.08-1.81.08-1.82.08-1.82.07-1.82.06-1.82.07-1.82.05-1.83.06-1.83.05-1.82.04-1.83.05-1.84.03-1.83.04-1.83.02-1.84.03-1.84.02-1.84.01-1.84.02-1.84v-1.85l.01-1.84v-1.85l-.01-1.85-.01-1.85-.01-1.85-.02-1.86-.02-1.85-.03-1.86-.03-1.86-.03-1.86-.04-1.86-.04-1.87-.05-1.86-.05-1.87-.06-1.87M64.77 155.35l-.36 1.71-.35 1.71-.35 1.71-.35 1.72-.34 1.71-.33 1.72-.34 1.72-.32 1.72-.33 1.72-.32 1.73-.31 1.72-.32 1.73-.3 1.73-.31 1.73-.29 1.73-.3 1.73-.29 1.74-.28 1.73-.29 1.74-.27 1.74-.28 1.74-.27 1.75-.26 1.74-.26 1.75-.26 1.75-.25 1.75-.25 1.75-.24 1.75-.24 1.76-.24 1.75-.23 1.76-.23 1.76-.22 1.76-.22 1.77-.21 1.76-.21 1.77-.21 1.76-.2 1.77-.2 1.77-.19 1.78-.19 1.77-.18 1.78-.19 1.78-.17 1.77-.17 1.79-.17 1.78-.17 1.78-.16 1.79-.15 1.79-.15 1.78-.15 1.8-.14 1.79-.14 1.79-.13 1.8-.13 1.79-.13 1.8-.12 1.8-.12 1.81-.11 1.8-.11 1.8-.1 1.81-.1 1.81-.1 1.81-.09 1.81-.09 1.82-.08 1.81-.08 1.82-.08 1.82-.07 1.82-.07 1.82-.06 1.82-.06 1.83-.05 1.82-.05 1.83-.04 1.83-.05 1.83-.03 1.84-.04 1.83-.02 1.84-.03 1.84-.02 1.84-.02 1.84-.01 1.84v1.84l-.01 1.85v1.85l.01 1.85.01 1.85.01 1.85.02 1.86.02 1.85.03 1.86.03 1.86.03 1.86.04 1.86.04 1.87.05 1.86.05 1.87.06 1.87m14.95-177.12.06 1.87.05 1.87.05 1.86.04 1.87.04 1.86.03 1.86.03 1.86.03 1.86.02 1.85.02 1.86.01 1.85.01 1.85.01 1.85v1.85l-.01 1.85v1.84l-.01 1.84-.02 1.84-.02 1.84-.02 1.84-.03 1.84-.04 1.83-.03 1.84-.04 1.83-.05 1.83-.05 1.83-.05 1.82-.06 1.83-.06 1.82-.07 1.82-.07 1.82-.08 1.82-.08 1.82-.08 1.81-.09 1.82-.09 1.81-.1 1.81-.1 1.81-.1 1.8-.11 1.81-.11 1.8-.12 1.81-.12 1.8-.13 1.8-.13 1.79-.13 1.8-.14 1.79-.14 1.79-.15 1.8-.15 1.78-.15 1.79-.16 1.79-.17 1.78-.17 1.78-.17 1.79-.17 1.77-.18 1.78-.19 1.78-.19 1.77-.19 1.78-.2 1.77-.2 1.77-.21 1.76-.21 1.77-.21 1.76-.22 1.77-.22 1.76-.23 1.76-.23 1.76-.24 1.75-.24 1.76-.24 1.75-.25 1.75-.25 1.75-.26 1.75-.26 1.75-.26 1.74-.27 1.75-.28 1.74-.27 1.74-.28 1.74-.29 1.73-.29 1.74-.3 1.73-.29 1.73-.31 1.73-.3 1.73-.32 1.73-.31 1.72-.32 1.73-.33 1.72-.32 1.72-.34 1.72-.33 1.72-.34 1.71-.35 1.72-.35 1.71-.35 1.71-.36 1.71" style="stroke-width:1.07;stroke:#000000;stroke-opacity:0.10;stroke-linecap:butt"/><path d="m369.96 456.32-.05-1.87-.06-1.86-.04-1.87-.05-1.86-.03-1.87-.04-1.86-.03-1.86-.03-1.85-.02-1.86-.02-1.85-.01-1.86-.01-1.85v-5.54l.01-1.85.01-1.84.01-1.84.02-1.84.03-1.84.03-1.83.03-1.84.04-1.83.04-1.83.04-1.83.05-1.83.06-1.83.06-1.82.06-1.83.07-1.82.07-1.82.07-1.82.08-1.81.08-1.82.09-1.81.09-1.81.1-1.81.1-1.81.11-1.81.1-1.81.12-1.8.12-1.8.12-1.8.12-1.8.13-1.8.14-1.79.14-1.8.14-1.79.14-1.79.16-1.79.15-1.79.16-1.78.16-1.79.17-1.78.17-1.78.18-1.78.18-1.78.19-1.77.19-1.78.19-1.77.2-1.77.2-1.77.2-1.77.21-1.76.22-1.77.22-1.76.22-1.76.23-1.76.23-1.76.23-1.76.24-1.75.25-1.75.25-1.76.25-1.75.26-1.74.26-1.75.26-1.75.27-1.74.27-1.74.28-1.74.28-1.74.29-1.74.29-1.73.3-1.73.29-1.74.31-1.73.3-1.73.32-1.72.31-1.73.32-1.72.33-1.72.32-1.72.34-1.72.33-1.72.34-1.72.35-1.71.35-1.71.35-1.71.36-1.71" style="stroke-width:1.07;stroke:#000000;stroke-opacity:0.10;stroke-linecap:butt"/><path d="m302.99 328.45 9.1 15.76H293.9zM131.74 262.2l9.1 15.76h-18.19z" style="stroke-width:0.71;stroke:none;fill:#00BA38"/><path d="M363.21 463.08h13.51v-13.51h-13.51zM58.01 162.11h13.52V148.6H58.01z" style="stroke-width:0.71;stroke:none;fill:#619CFF"/><circle cx="217.37" cy="305.82" r="6.76" style="stroke-width:0.71;stroke:none;fill:#F8766D"/><circle cx="49.82" cy="332.47" r="1.42" style="stroke-width:0.71;stroke:none;fill:#F8766D"/><circle cx="384.92" cy="279.21" r="1.42" style="stroke-width:0.71;stroke:none;fill:#F8766D"/><path d="m298.05 343.61 4.11-3.87M136.5 268.02l-3.94 3.88M69.78 159.98l-4.17-3.85m156.75 144.99-4.16 3.92" style="stroke-width:0.53;stroke:#BFBFBF"/><path d="M252.67 363.15h68.43-.08l.34-.02.34-.07.33-.12.3-.17.27-.22.23-.26.18-.3.14-.32.08-.34.03-.34h0v-15.22h0l-.03-.35-.08-.34-.14-.32-.18-.29-.23-.26-.27-.22-.3-.17-.33-.13-.34-.07-.26-.01h-68.43l.26.01-.34-.01-.35.04-.33.1-.32.15-.28.19-.25.24-.21.28-.16.31-.11.33-.06.34-.01.18v15.22l.01-.18v.35l.06.35.11.32.16.31.21.28.25.24.28.2.32.15.33.09.35.05z" style="stroke-width:0.53;fill:#FFFFFF;fill-opacity:0.50"/><text x="286.89" y="351.35" lengthAdjust="spacingAndGlyphs" style="font-size:5.69px;font-family:&quot;Liberation Sans&quot;" text-anchor="middle" textLength="65.55">UTICA LAKE HOLDINGS</text><text x="286.89" y="359.55" lengthAdjust="spacingAndGlyphs" style="font-size:5.69px;font-family:&quot;Liberation Sans&quot;" text-anchor="middle" textLength="10.31">LLC</text><path d="M109.19 268.02h68.17-.09l.35-.02.34-.07.32-.12.3-.17.27-.22.23-.26.19-.3.13-.32.09-.33.03-.35h0v-7.03h0l-.03-.34-.09-.34-.13-.32-.19-.29-.23-.27-.27-.21-.3-.18-.32-.12-.34-.07-.26-.02h-68.17l.26.02-.34-.02-.35.05-.33.09-.32.15-.28.2-.25.24-.21.28-.16.31-.11.33-.06.34-.01.17v7.03l.01-.17v.34l.06.35.11.33.16.3.21.28.25.24.28.2.32.15.33.1.35.04z" style="stroke-width:0.53;fill:#FFFFFF;fill-opacity:0.50"/><text x="143.27" y="264.42" lengthAdjust="spacingAndGlyphs" style="font-size:5.69px;font-family:&quot;Liberation Sans&quot;" text-anchor="middle" textLength="65.28">NEL INVESTMENTS LLC</text><path d="M294.74 466.13h68.39-.09l.35-.02.34-.07.33-.12.3-.17.27-.22.23-.26.18-.3.14-.32.08-.34.03-.34h0v-15.22h0l-.03-.35-.08-.34-.14-.32-.18-.29-.23-.26-.27-.22-.3-.18-.33-.12-.34-.07-.26-.01h-68.39l.26.01-.35-.01-.35.04-.33.1-.31.15-.29.19-.25.24-.21.28-.16.31-.11.33-.06.34v15.4-.18.35l.06.34.11.33.16.31.21.28.25.24.29.2.31.15.33.09.35.05z" style="stroke-width:0.53;fill:#FFFFFF;fill-opacity:0.50"/><text x="328.93" y="454.33" lengthAdjust="spacingAndGlyphs" style="font-size:5.69px;font-family:&quot;Liberation Sans&quot;" text-anchor="middle" textLength="65.51">W370S1647 UTICA RD,</text><text x="328.93" y="462.53" lengthAdjust="spacingAndGlyphs" style="font-size:5.69px;font-family:&quot;Liberation Sans&quot;" text-anchor="middle" textLength="60.51">DOUSMAN, WI 53118</text><path d="M51.38 187.71h68.06-.09l.35-.01.34-.07.32-.13.3-.17.27-.22.23-.26.19-.29.13-.32.09-.34.03-.35h0v-23.41h0l-.03-.35-.09-.34-.13-.32-.19-.29-.23-.26-.27-.22-.3-.17-.32-.13-.34-.07-.26-.01H51.38l.26.01-.35-.01-.34.04-.33.1-.32.15-.28.19-.26.24-.2.28-.17.31-.11.33-.05.34-.01.18v23.41l.01-.17v.35l.05.34.11.33.17.31.2.28.26.24.28.19.32.15.33.1.34.04z" style="stroke-width:0.53;fill:#FFFFFF;fill-opacity:0.50"/><text x="85.41" y="167.72" lengthAdjust="spacingAndGlyphs" style="font-size:5.69px;font-family:&quot;Liberation Sans&quot;" text-anchor="middle" textLength="52.78">2625 GREELEY ST,</text><text x="85.41" y="175.92" lengthAdjust="spacingAndGlyphs" style="font-size:5.69px;font-family:&quot;Liberation Sans&quot;" text-anchor="middle" textLength="65.17">UNIT 245, MILWAUKEE,</text><text x="85.41" y="184.11" lengthAdjust="spacingAndGlyphs" style="font-size:5.69px;font-family:&quot;Liberation Sans&quot;" text-anchor="middle" textLength="27.22">WI 53207</text><path d="M199.91 301.12h67.22-.09l.35-.02.34-.07.33-.12.3-.17.27-.22.23-.26.18-.3.14-.32.08-.34.03-.34h0v-15.22h0l-.03-.35-.08-.34-.14-.32-.18-.29-.23-.26-.27-.22-.3-.18-.33-.12-.34-.07-.26-.01h-67.22l.26.01-.35-.01-.34.04-.34.1-.31.15-.29.19-.25.24-.21.28-.16.31-.11.33-.05.34-.01.18v15.22l.01-.18v.35l.05.34.11.33.16.31.21.28.25.24.29.2.31.15.34.09.34.05z" style="stroke-width:0.53;fill:#FFFFFF;fill-opacity:0.50"/><text x="233.52" y="289.32" lengthAdjust="spacingAndGlyphs" style="font-size:5.69px;font-family:&quot;Liberation Sans&quot;" text-anchor="middle" textLength="52.78">2625 GREELEY ST,</text><text x="233.52" y="297.52" lengthAdjust="spacingAndGlyphs" style="font-size:5.69px;font-family:&quot;Liberation Sans&quot;" text-anchor="middle" textLength="64.34">MILWAUKEE, WI 53207</text><path d="M56.69 346.34h68.05l-.08-.01.34-.01.34-.07.33-.12.3-.18.27-.22.23-.26.19-.29.13-.32.09-.34.02-.34h0v-23.42h0l-.02-.35-.09-.33-.13-.32-.19-.3-.23-.26-.27-.22-.3-.17-.33-.12-.34-.07-.26-.02H56.69l.26.02-.35-.02-.34.04-.34.1-.31.15-.29.2-.25.24-.21.28-.16.3-.11.33-.05.35-.01.17v23.42l.01-.18v.35l.05.34.11.33.16.31.21.28.25.24.29.2.31.15.34.09.34.04z" style="stroke-width:0.53;fill:#FFFFFF;fill-opacity:0.50"/><text x="90.72" y="326.35" lengthAdjust="spacingAndGlyphs" style="font-size:5.69px;font-family:&quot;Liberation Sans&quot;" text-anchor="middle" textLength="52.78">2625 GREELEY ST,</text><text x="90.72" y="334.54" lengthAdjust="spacingAndGlyphs" style="font-size:5.69px;font-family:&quot;Liberation Sans&quot;" text-anchor="middle" textLength="65.17">UNIT 245, MILWAUKEE,</text><text x="90.72" y="342.74" lengthAdjust="spacingAndGlyphs" style="font-size:5.69px;font-family:&quot;Liberation Sans&quot;" text-anchor="middle" textLength="27.22">WI 53207</text><path d="M309.71 288.96h68.39-.09l.35-.02.34-.06.32-.13.31-.17.26-.22.23-.26.19-.3.14-.32.08-.33.03-.35h0v-15.22h0l-.03-.35-.08-.34-.14-.32-.19-.29-.23-.26-.26-.22-.31-.17-.32-.13-.34-.07-.26-.01h-68.39l.26.01-.35-.01-.35.04-.33.1-.31.15-.29.2-.25.24-.21.27-.16.31-.11.33-.06.34v15.4-.17.34l.06.35.11.33.16.3.21.28.25.24.29.2.31.15.33.1.35.04z" style="stroke-width:0.53;fill:#FFFFFF;fill-opacity:0.50"/><text x="343.9" y="277.17" lengthAdjust="spacingAndGlyphs" style="font-size:5.69px;font-family:&quot;Liberation Sans&quot;" text-anchor="middle" textLength="65.51">W370S1647 UTICA RD,</text><text x="343.9" y="285.36" lengthAdjust="spacingAndGlyphs" style="font-size:5.69px;font-family:&quot;Liberation Sans&quot;" text-anchor="middle" textLength="60.51">DOUSMAN, WI 53118</text></g><g clip-path="url(#cpMC4wMHw0MzIuMDB8MC4wMHw1MDQuMDA=)"><circle cx="122.24" cy="115.22" r="1.95" style="stroke-width:0.71;stroke:none;fill:#F8766D"/><path d="m198.59 112.18 2.63 4.56h-5.26z" style="stroke-width:0.71;stroke:none;fill:#00BA38"/><path d="M264.57 117.18h3.91v-3.91h-3.91z" style="stroke-width:0.71;stroke:none;fill:#619CFF"/><text x="136.36" y="118.25" lengthAdjust="spacingAndGlyphs" style="font-size:8.80px;font-family:&quot;Liberation Sans Narrow&quot;" textLength="48.12">mprop address</text><text x="212.71" y="118.25" lengthAdjust="spacingAndGlyphs" style="font-size:8.80px;font-family:&quot;Liberation Sans Narrow&quot;" textLength="39.69">owner name</text><text x="280.64" y="118.25" lengthAdjust="spacingAndGlyphs" style="font-size:8.80px;font-family:&quot;Liberation Sans Narrow&quot;" textLength="40.5">wdfi address</text><text x="32.63" y="83.67" lengthAdjust="spacingAndGlyphs" style="font-size:12.00px;font-family:&quot;Liberation Sans Narrow&quot;" textLength="241.29">includes 4 parcels, 6 units, and 2 distinct owner names.</text><text x="32.63" y="42.27" lengthAdjust="spacingAndGlyphs" style="font-size:18.00px;font-weight:bold;font-family:&quot;Liberation Sans Narrow&quot;" textLength="277.96">NEL INVESTMENTS LLC -- UTICA LAKE</text><text x="32.63" y="61.71" lengthAdjust="spacingAndGlyphs" style="font-size:18.00px;font-weight:bold;font-family:&quot;Liberation Sans Narrow&quot;" textLength="159.06">HOLDINGS LLC Group</text></g></svg>