<svg xmlns="http://www.w3.org/2000/svg" width="576" height="576" class="svglite" viewBox="0 0 432 432"><defs><style><![CDATA[.svglite line,.svglite polyline,.svglite polygon,.svglite path,.svglite circle{fill:none;stroke:#000000;stroke-linecap:round;stroke-linejoin:round;stroke-miterlimit:10.00}.svglite text{white-space:pre}]]></style></defs><rect width="100%" height="100%" style="stroke-linecap:round;stroke-linejoin:round;stroke-miterlimit:10.00;stroke:none;fill:#FFFFFF"/><defs><clipPath id="cpMC4wMHw0MzIuMDB8MC4wMHw0MzIuMDA="><path d="M0 0h432v432H0z"/></clipPath></defs><g clip-path="url(#cpMC4wMHw0MzIuMDB8MC4wMHw0MzIuMDA=)"><path d="M0 0h432v432H0z" style="stroke-width:1.07;stroke:none;fill:#FFFFFF"/></g><defs><clipPath id="cpMzIuNjN8NDAyLjExfDEyMS43OHwzOTkuMzc="><path d="M32.63 121.78h369.48v277.59H32.63z"/></clipPath></defs><g clip-path="url(#cpMzIuNjN8NDAyLjExfDEyMS43OHwzOTkuMzc=)"><path d="m385.32 302.25-1.7-.42-1.7-.42-1.69-.42-1.7-.42-1.69-.42-1.7-.42-1.7-.42-1.69-.42-1.7-.42-1.7-.43-1.69-.42-1.7-.42-1.7-.42-1.69-.42-1.7-.42-1.7-.42-1.69-.42-1.7-.42-1.7-.42-1.69-.43-1.7-.42-1.69-.42-1.7-.42-1.7-.42-1.69-.42-1.7-.42-1.7-.42-1.69-.42-1.7-.42-1.7-.43-1.69-.42-1.7-.42-1.7-.42-1.69-.42-1.7-.42-1.69-.42-1.7-.42-1.7-.42-1.69-.42-1.7-.42-1.7-.43-1.69-.42-1.7-.42-1.7-.42-1.69-.42-1.7-.42-1.7-.42-1.69-.42-1.7-.42-1.69-.42-1.7-.43-1.7-.42-1.69-.42-1.7-.42-1.7-.42-1.69-.42-1.7-.42-1.7-.42-1.69-.42-1.7-.42-1.7-.43-1.69-.42-1.7-.42-1.69-.42-1.7-.42-1.7-.42-1.69-.42-1.7-.42-1.7-.42-1.69-.42-1.7-.42-1.7-.43-1.69-.42-1.7-.42-1.7-.42-1.69-.42-1.7-.42-1.69-.42-1.7-.42-1.7-.42-1.69-.42-1.7-.43-1.7-.42-1.69-.42-1.7-.42-1.7-.42-1.69-.42-1.7-.42-1.7-.42-1.69-.42-1.7-.42-1.7-.42-1.69-.43-1.7-.42-1.69-.42-1.7-.42-1.7-.42-1.69-.42-1.7-.42m55.47-126.18-.56 1.28-.56 1.27-.56 1.28-.56 1.27-.56 1.27-.56 1.28-.56 1.27-.56 1.28-.56 1.27-.56 1.28-.56 1.27-.56 1.28-.56 1.27-.56 1.28-.56 1.27-.56 1.27-.56 1.28-.56 1.27-.56 1.28-.56 1.27-.56 1.28-.57 1.27-.56 1.28-.56 1.27-.56 1.27-.56 1.28-.56 1.27-.56 1.28-.56 1.27-.56 1.28-.56 1.27-.56 1.28-.56 1.27-.56 1.28-.56 1.27-.56 1.27-.56 1.28-.56 1.27-.56 1.28-.56 1.27-.56 1.28-.56 1.27-.56 1.28-.56 1.27-.56 1.27-.56 1.28-.56 1.27-.56 1.28-.56 1.27-.56 1.28-.56 1.27-.56 1.28-.57 1.27-.56 1.28-.56 1.27-.56 1.27-.56 1.28-.56 1.27-.56 1.28-.56 1.27-.56 1.28-.56 1.27-.56 1.28-.56 1.27-.56 1.28-.56 1.27-.56 1.27-.56 1.28-.56 1.27-.56 1.28-.56 1.27-.56 1.28-.56 1.27-.56 1.28-.56 1.27-.56 1.27-.56 1.28-.56 1.27-.56 1.28-.56 1.27-.56 1.28-.56 1.27-.56 1.28-.57 1.27-.56 1.28-.56 1.27-.56 1.27-.56 1.28-.56 1.27-.56 1.28-.56 1.27-.56 1.28-.56 1.27-.56 1.28-.56 1.27-.56 1.27-.56 1.28-.56 1.27-.56 1.28M49.42 218.9l1.7.42 1.7.42 1.69.43 1.7.42 1.69.42 1.7.42 1.7.42 1.69.42 1.7.42 1.7.42 1.69.42 1.7.42 1.7.43 1.69.42 1.7.42 1.7.42 1.69.42 1.7.42 1.69.42 1.7.42 1.7.42 1.69.42 1.7.43 1.7.42 1.69.42 1.7.42 1.7.42 1.69.42 1.7.42 1.7.42 1.69.42 1.7.42 1.69.42 1.7.43 1.7.42 1.69.42 1.7.42 1.7.42 1.69.42 1.7.42 1.7.42 1.69.42 1.7.42 1.7.43 1.69.42 1.7.42 1.7.42 1.69.42 1.7.42 1.69.42 1.7.42 1.7.42 1.69.42 1.7.42 1.7.43 1.69.42 1.7.42 1.7.42 1.69.42 1.7.42 1.7.42 1.69.42 1.7.42 1.69.42 1.7.43 1.7.42 1.69.42 1.7.42 1.7.42 1.69.42 1.7.42 1.7.42 1.69.42 1.7.42 1.7.43 1.69.42 1.7.42 1.69.42 1.7.42 1.7.42 1.69.42 1.7.42 1.7.42 1.69.42 1.7.42 1.7.43 1.69.42 1.7.42 1.7.42 1.69.42 1.7.42 1.69.42 1.7.42 1.7.42 1.69.42 1.7.43 1.7.42 1.69.42 1.7.42M161.9 386.75l.56-1.27.56-1.27.56-1.28.56-1.27.56-1.28.56-1.27.56-1.28.56-1.27.56-1.28.56-1.27.56-1.27.56-1.28.56-1.27.56-1.28.56-1.27.56-1.28.56-1.27.56-1.28.56-1.27.56-1.28.56-1.27.56-1.27.57-1.28.56-1.27.56-1.28.56-1.27.56-1.28.56-1.27.56-1.28.56-1.27.56-1.28.56-1.27.56-1.27.56-1.28.56-1.27.56-1.28.56-1.27.56-1.28.56-1.27.56-1.28.56-1.27.56-1.27.56-1.28.56-1.27.56-1.28.56-1.27.56-1.28.56-1.27.56-1.28.56-1.27.56-1.28.56-1.27.56-1.27.57-1.28.56-1.27.56-1.28.56-1.27.56-1.28.56-1.27.56-1.28.56-1.27.56-1.27.56-1.28.56-1.27.56-1.28.56-1.27.56-1.28.56-1.27.56-1.28.56-1.27.56-1.28.56-1.27.56-1.27.56-1.28.56-1.27.56-1.28.56-1.27.56-1.28.56-1.27.56-1.28.56-1.27.56-1.28.56-1.27.56-1.27.57-1.28.56-1.27.56-1.28.56-1.27.56-1.28.56-1.27.56-1.28.56-1.27.56-1.27.56-1.28.56-1.27.56-1.28.56-1.27.56-1.28.56-1.27" style="stroke-width:1.07;stroke:#000000;stroke-opacity:0.10;stroke-linecap:butt"/><path d="m385.32 300.04 1.91 3.32h-3.83zM272.84 132.19l1.92 3.32h-3.83zm-223.42 84.5 1.92 3.32h-3.83zM161.9 384.54l1.91 3.32h-3.83z" style="stroke-width:0.71;stroke:none;fill:#00BFC4"/><circle cx="217.37" cy="260.58" r="6.76" style="stroke-width:0.71;stroke:none;fill:#F8766D"/><path d="m380.47 308.69 4.19-5.56M277.79 131.9l-3.84 1.94M54.36 220.68l-3.73-1.34m105.48 162.85 4.87 3.84m62.23-130.06-4.92 3.88" style="stroke-width:0.53;stroke:#BFBFBF"/><path d="M344.47 317.08h33.84l-.09-.01.35-.01.34-.07.32-.12.3-.18.27-.22.23-.26.19-.29.14-.32.08-.34.03-.34h0v-6.97h0l-.03-.34-.08-.34-.14-.32-.19-.29-.23-.27-.27-.21-.3-.18-.32-.12-.34-.07-.26-.02h-33.84l.26.02-.34-.02-.35.05-.33.09-.32.15-.28.2-.25.24-.21.28-.16.31-.11.33-.06.34-.01.17v6.97l.01-.18v.35l.06.34.11.33.16.31.21.28.25.24.28.2.32.14.33.1.35.04z" style="stroke-width:0.53;fill:#FFFFFF;fill-opacity:0.50"/><text x="361.39" y="313.48" lengthAdjust="spacingAndGlyphs" style="font-size:5.69px;font-family:&quot;Arial&quot;" text-anchor="middle" textLength="30.95">TONY NHIA</text><path d="M279.95 136.67h37.93l-.08-.01.34-.01.34-.07.33-.12.3-.18.27-.22.23-.26.19-.29.13-.32.08-.34.03-.34h0v-6.97h0l-.03-.34-.08-.34-.13-.32-.19-.29-.23-.26-.27-.22-.3-.18-.33-.12-.34-.07-.26-.02h-37.93l.26.02-.35-.01-.35.04-.33.09-.31.15-.29.2-.25.24-.21.28-.16.31-.11.33-.06.34v7.14-.18.35l.06.34.11.33.16.31.21.28.25.24.29.2.31.15.33.09.35.04z" style="stroke-width:0.53;fill:#FFFFFF;fill-opacity:0.50"/><text x="298.91" y="133.07" lengthAdjust="spacingAndGlyphs" style="font-size:5.69px;font-family:&quot;Arial&quot;" text-anchor="middle" textLength="35.06">TONY N HER</text><path d="M56.52 226.56h41.73-.08l.34-.01.34-.07.33-.12.3-.18.27-.22.23-.26.19-.29.13-.32.09-.34.02-.35h0v-6.96h0l-.02-.34-.09-.34-.13-.32-.19-.3-.23-.26-.27-.22-.3-.17-.33-.12-.34-.07-.26-.02H56.52l.26.02-.34-.02-.35.05-.33.09-.32.15-.28.2-.25.24-.21.28-.17.3-.11.33-.05.35-.01.17v6.96l.01-.17v.35l.05.34.11.33.17.31.21.28.25.24.28.19.32.15.33.1.35.04z" style="stroke-width:0.53;fill:#FFFFFF;fill-opacity:0.50"/><text x="77.39" y="222.96" lengthAdjust="spacingAndGlyphs" style="font-size:5.69px;font-family:&quot;Arial&quot;" text-anchor="middle" textLength="38.85">NHIASUE HER</text><path d="M110.78 382.19h64.16-.09l.35-.01.34-.07.32-.13.3-.17.27-.22.23-.26.19-.29.14-.32.08-.34.03-.35h0v-15.16h0l-.03-.34-.08-.34-.14-.32-.19-.29-.23-.26-.27-.22-.3-.18-.32-.12-.34-.07-.26-.02h-64.16l.27.02-.35-.01-.35.04-.33.1-.32.14-.28.2-.25.24-.21.28-.16.31-.11.33-.06.34-.01.17v15.16l.01-.17v.35l.06.34.11.33.16.31.21.27.25.24.28.2.32.15.33.1.35.04z" style="stroke-width:0.53;fill:#FFFFFF;fill-opacity:0.50"/><text x="142.86" y="370.4" lengthAdjust="spacingAndGlyphs" style="font-size:5.69px;font-family:&quot;Arial&quot;" text-anchor="middle" textLength="61.27">NHIA S HER &amp; PANG C</text><text x="142.86" y="378.59" lengthAdjust="spacingAndGlyphs" style="font-size:5.69px;font-family:&quot;Arial&quot;" text-anchor="middle" textLength="12">HER</text><path d="M204.21 255.97h64.49-.09l.35-.02.34-.06.32-.13.3-.17.27-.22.23-.26.19-.3.14-.32.08-.33.03-.35h0v-15.16h0l-.03-.34-.08-.34-.14-.32-.19-.29-.23-.26-.27-.22-.3-.18-.32-.12-.34-.07-.26-.02h-64.49l.26.02-.35-.01-.35.04-.33.09-.31.15-.29.2-.25.24-.21.28-.16.31-.11.33-.06.34v15.33-.17.34l.06.35.11.33.16.31.21.27.25.24.29.2.31.15.33.1.35.04z" style="stroke-width:0.53;fill:#FFFFFF;fill-opacity:0.50"/><text x="236.45" y="244.18" lengthAdjust="spacingAndGlyphs" style="font-size:5.69px;font-family:&quot;Arial&quot;" text-anchor="middle" textLength="53.7">5103 HEMLOCK RD,</text><text x="236.45" y="252.37" lengthAdjust="spacingAndGlyphs" style="font-size:5.69px;font-family:&quot;Arial&quot;" text-anchor="middle" textLength="61.61">MILWAUKEE, WI 53223</text></g><g clip-path="url(#cpMC4wMHw0MzIuMDB8MC4wMHw0MzIuMDA=)"><circle cx="159.34" cy="96.71" r="1.95" style="stroke-width:0.71;stroke:none;fill:#F8766D"/><path d="m235.7 93.67 2.63 4.56h-5.26z" style="stroke-width:0.71;stroke:none;fill:#00BFC4"/><text x="173.46" y="99.86" lengthAdjust="spacingAndGlyphs" style="font-size:8.80px;font-family:&quot;Arial Narrow&quot;" textLength="48.12">mprop address</text><text x="249.82" y="99.86" lengthAdjust="spacingAndGlyphs" style="font-size:8.80px;font-family:&quot;Arial Narrow&quot;" textLength="39.69">owner name</text><text x="32.63" y="65.12" lengthAdjust="spacingAndGlyphs" style="font-size:12.00px;font-family:&quot;Arial Narrow&quot;" textLength="241.29">includes 4 parcels, 7 units, and 4 distinct owner names.</text><text x="32.63" y="42.78" lengthAdjust="spacingAndGlyphs" style="font-size:18.00px;font-weight:bold;font-family:&quot;Arial Narrow&quot;" textLength="243.55">NHIA S HER &amp; PANG C HER Group</text></g></svg>