<svg xmlns="http://www.w3.org/2000/svg" class="svglite" width="768" height="768" viewBox="0 0 576 576"><defs><style>.svglite circle,.svglite line,.svglite polygon,.svglite polyline,.svglite rect{fill:none;stroke:#000;stroke-linecap:round;stroke-linejoin:round;stroke-miterlimit:10}.svglite text{white-space:pre}</style></defs><rect width="100%" height="100%" style="stroke:none;fill:#fff"/><defs><clipPath id="cpMC4wMHw1NzYuMDB8MC4wMHw1NzYuMDA="><path d="M0 0h576v576H0z"/></clipPath></defs><g clip-path="url(#cpMC4wMHw1NzYuMDB8MC4wMHw1NzYuMDA=)"><path style="stroke-width:1.07;stroke:none;fill:#fff" d="M0 0h576v576H0z"/></g><defs><clipPath id="cpMzIuNjN8NTQ2LjExfDEyMS43OHw1NDMuMzc="><path d="M32.63 121.78h513.48v421.59H32.63z"/></clipPath></defs><g clip-path="url(#cpMzIuNjN8NTQ2LjExfDEyMS43OHw1NDMuMzc=)"><path style="stroke-width:1.07;stroke:#000;stroke-opacity:.1;stroke-linecap:butt" d="m281.37 274.87-1.18-.62-1.18-.63-1.18-.63-1.18-.62-1.18-.63-1.18-.63-1.18-.62-1.18-.63-1.18-.63-1.17-.62-1.18-.63-1.18-.63-1.18-.62-1.18-.63-1.18-.63-1.18-.62-1.18-.63-1.18-.63-1.18-.62-1.18-.63-1.18-.63-1.18-.62-1.17-.63-1.18-.63-1.18-.63-1.18-.62-1.18-.63-1.18-.63-1.18-.62-1.18-.63-1.18-.63-1.18-.62-1.18-.63-1.18-.63-1.17-.62-1.18-.63-1.18-.63-1.18-.62-1.18-.63-1.18-.63-1.18-.62-1.18-.63-1.18-.63-1.18-.62-1.18-.63-1.18-.63-1.18-.62-1.17-.63-1.18-.63-1.18-.62-1.18-.63-1.18-.63-1.18-.62-1.18-.63-1.18-.63-1.18-.62-1.18-.63-1.18-.63-1.18-.62-1.18-.63-1.17-.63-1.18-.62-1.18-.63-1.18-.63-1.18-.62-1.18-.63-1.18-.63-1.18-.63-1.18-.62-1.18-.63-1.18-.63-1.18-.62-1.17-.63-1.18-.63-1.18-.62-1.18-.63-1.18-.63-1.18-.62-1.18-.63-1.18-.63-1.18-.62-1.18-.63-1.18-.63-1.18-.62-1.18-.63-1.17-.63-1.18-.62-1.18-.63-1.18-.63-1.18-.62-1.18-.63-1.18-.63-1.18-.62-1.18-.63-1.18-.63-1.18-.62-1.18-.63-1.17-.63-1.18-.62M281.37 274.87l1.19-.37 1.2-.38 1.19-.39 1.19-.39 1.19-.39 1.19-.4 1.19-.4 1.18-.4 1.18-.41 1.18-.42 1.18-.42 1.18-.42 1.18-.43 1.17-.43 1.17-.44 1.18-.44 1.16-.45 1.17-.45 1.17-.45 1.16-.46 1.16-.47 1.16-.46 1.16-.48 1.16-.47 1.16-.48 1.15-.49 1.15-.49 1.15-.49 1.15-.5 1.15-.5 1.14-.51 1.15-.51 1.14-.52 1.14-.52 1.14-.53 1.14-.52 1.13-.54 1.14-.54 1.13-.54 1.13-.55 1.13-.55 1.12-.55 1.13-.56 1.12-.57 1.12-.57 1.12-.57 1.12-.58 1.12-.58 1.11-.59 1.12-.59 1.11-.59 1.11-.6 1.1-.61 1.11-.6 1.11-.62 1.1-.61 1.1-.63 1.1-.62 1.1-.63 1.09-.64 1.1-.64 1.09-.64 1.09-.65 1.09-.65 1.09-.66 1.09-.66 1.08-.66 1.08-.67 1.08-.68 1.08-.68 1.08-.68 1.08-.69 1.07-.69 1.07-.7 1.07-.7 1.07-.7 1.07-.71 1.07-.72 1.06-.72 1.06-.72 1.06-.72 1.06-.74 1.06-.73 1.05-.74 1.06-.75 1.05-.75 1.05-.75 1.05-.76 1.05-.76 1.04-.77 1.05-.77 1.04-.77 1.04-.78 1.04-.79 1.03-.79 1.04-.79 1.03-.8 1.03-.8 1.03-.81M522.77 380.8l-1.37-.13-1.37-.14-1.37-.13-1.37-.13-1.38-.13-1.37-.14-1.37-.13-1.37-.13-1.37-.14-1.37-.13-1.37-.13-1.38-.13-1.37-.14-1.37-.13-1.37-.13-1.37-.14-1.37-.13-1.37-.13-1.38-.14-1.37-.13-1.37-.13-1.37-.13-1.37-.14-1.37-.13-1.38-.13-1.37-.14-1.37-.13-1.37-.13-1.37-.13-1.37-.14-1.37-.13-1.38-.13-1.37-.14-1.37-.13-1.37-.13-1.37-.14-1.37-.13-1.37-.13-1.38-.13-1.37-.14-1.37-.13-1.37-.13-1.37-.14-1.37-.13-1.38-.13-1.37-.13-1.37-.14-1.37-.13-1.37-.13-1.37-.14-1.37-.13-1.38-.13-1.37-.14-1.37-.13-1.37-.13-1.37-.13-1.37-.14-1.37-.13-1.38-.13-1.37-.14-1.37-.13-1.37-.13-1.37-.13-1.37-.14-1.37-.13-1.38-.13-1.37-.14-1.37-.13-1.37-.13-1.37-.14-1.37-.13-1.38-.13-1.37-.13-1.37-.14-1.37-.13-1.37-.13-1.37-.14-1.37-.13-1.38-.13-1.37-.13-1.37-.14-1.37-.13-1.37-.13-1.37-.14-1.37-.13-1.38-.13-1.37-.14-1.37-.13-1.37-.13-1.37-.13-1.37-.14-1.37-.13-1.38-.13-1.37-.14-1.37-.13-1.37-.13-1.37-.13-1.37-.14-1.38-.13M55.97 140.95l1.1.72 1.09.73 1.1.73 1.1.72 1.1.73 1.09.72 1.1.73 1.1.73 1.1.72 1.09.73 1.1.72 1.1.73 1.1.73 1.09.72 1.1.73 1.1.72 1.1.73 1.09.73 1.1.72 1.1.73 1.1.72 1.09.73 1.1.73 1.1.72 1.1.73 1.09.72 1.1.73 1.1.73 1.1.72 1.09.73 1.1.72 1.1.73 1.1.73 1.09.72 1.1.73 1.1.73 1.1.72 1.09.73 1.1.72 1.1.73 1.1.73 1.1.72 1.09.73 1.1.72 1.1.73 1.1.73 1.09.72 1.1.73 1.1.72 1.1.73 1.09.73 1.1.72 1.1.73 1.1.72 1.09.73 1.1.73 1.1.72 1.1.73 1.09.72 1.1.73 1.1.73 1.1.72 1.09.73 1.1.72 1.1.73 1.1.73 1.09.72 1.1.73 1.1.72 1.1.73 1.09.73 1.1.72 1.1.73 1.1.72 1.09.73 1.1.73 1.1.72 1.1.73 1.09.73 1.1.72 1.1.73 1.1.72 1.09.73 1.1.73 1.1.72 1.1.73 1.1.72 1.09.73 1.1.73 1.1.72 1.1.73 1.09.72 1.1.73 1.1.73 1.1.72 1.09.73 1.1.72 1.1.73 1.1.73M362.46 524.21l.25-1.58.25-1.58.24-1.59.25-1.58.25-1.58.25-1.58.25-1.58.24-1.58.25-1.58.25-1.59.25-1.58.24-1.58.25-1.58.25-1.58.25-1.58.25-1.58.24-1.59.25-1.58.25-1.58.25-1.58.24-1.58.25-1.58.25-1.59.25-1.58.25-1.58.24-1.58.25-1.58.25-1.58.25-1.58.24-1.59.25-1.58.25-1.58.25-1.58.25-1.58.24-1.58.25-1.59.25-1.58.25-1.58.25-1.58.24-1.58.25-1.58.25-1.58.25-1.59.24-1.58.25-1.58.25-1.58.25-1.58.25-1.58.24-1.58.25-1.59.25-1.58.25-1.58.24-1.58.25-1.58.25-1.58.25-1.59.25-1.58.24-1.58.25-1.58.25-1.58.25-1.58.25-1.58.24-1.59.25-1.58.25-1.58.25-1.58.24-1.58.25-1.58.25-1.59.25-1.58.25-1.58.24-1.58.25-1.58.25-1.58.25-1.58.24-1.59.25-1.58.25-1.58.25-1.58.25-1.58.24-1.58.25-1.58.25-1.59.25-1.58.25-1.58.24-1.58.25-1.58.25-1.58.25-1.59.24-1.58.25-1.58.25-1.58.25-1.58.25-1.58.24-1.58.25-1.59.25-1.58.25-1.58.24-1.58M281.37 274.87l1.06.94 1.07.94 1.07.93 1.07.94 1.06.94 1.07.94 1.07.93 1.06.94 1.07.94 1.07.93 1.06.94 1.07.94 1.07.93 1.06.94 1.07.94 1.07.94 1.07.93 1.06.94 1.07.94 1.07.93 1.06.94 1.07.94 1.07.94 1.06.93 1.07.94 1.07.94 1.06.93 1.07.94 1.07.94 1.07.93 1.06.94 1.07.94 1.07.94 1.06.93 1.07.94 1.07.94 1.06.93 1.07.94 1.07.94 1.07.93 1.06.94 1.07.94 1.07.94 1.06.93 1.07.94 1.07.94 1.06.93 1.07.94 1.07.94 1.06.94 1.07.93 1.07.94 1.07.94 1.06.93 1.07.94 1.07.94 1.06.93 1.07.94 1.07.94 1.06.94 1.07.93 1.07.94 1.06.94 1.07.93 1.07.94 1.07.94 1.06.93 1.07.94 1.07.94 1.06.94 1.07.93 1.07.94 1.06.94 1.07.93 1.07.94 1.06.94 1.07.93 1.07.94 1.07.94 1.06.94 1.07.93 1.07.94 1.06.94 1.07.93 1.07.94 1.06.94 1.07.94 1.07.93 1.07.94 1.06.94 1.07.93 1.07.94 1.06.94 1.07.93 1.07.94 1.06.94 1.07.94 1.07.93 1.06.94"/><path style="stroke-width:1.07;stroke:#000;stroke-opacity:.1;stroke-linecap:butt" d="m281.37 274.87 1.03-.8 1.03-.8 1.03-.8 1.04-.8 1.03-.78 1.04-.79 1.04-.78 1.05-.77 1.04-.77 1.04-.77 1.05-.76 1.05-.76 1.05-.76 1.05-.74 1.06-.75 1.05-.74 1.06-.74 1.06-.73 1.06-.72 1.06-.73 1.06-.72 1.07-.71 1.07-.71 1.07-.7 1.07-.7 1.07-.7 1.07-.69 1.08-.69 1.08-.68 1.08-.68 1.08-.68 1.08-.67 1.09-.66 1.08-.66 1.09-.66 1.09-.65 1.09-.65 1.09-.64 1.1-.64 1.09-.64 1.1-.63 1.1-.63 1.1-.62 1.1-.61 1.11-.62 1.11-.61 1.1-.6 1.11-.6 1.12-.59 1.11-.6 1.11-.58 1.12-.58 1.12-.58 1.12-.58 1.12-.56 1.12-.57 1.13-.56 1.13-.55 1.12-.56 1.13-.54 1.14-.55 1.13-.53 1.13-.54 1.14-.53 1.14-.52 1.14-.52 1.14-.52 1.15-.51 1.14-.51 1.15-.5 1.15-.5 1.15-.49 1.15-.49 1.15-.49 1.16-.48 1.16-.48 1.16-.47 1.16-.47 1.16-.46 1.16-.46 1.17-.45 1.17-.45 1.17-.45 1.17-.44 1.17-.44 1.17-.43 1.18-.43 1.18-.42 1.18-.42 1.18-.42 1.18-.41 1.18-.4 1.19-.41 1.19-.39 1.19-.4 1.19-.39 1.19-.38 1.2-.38 1.19-.38"/><path style="stroke-width:1.07;stroke:#000;stroke-opacity:.1;stroke-linecap:butt" d="m391.57 216.37-.47 1.51-.47 1.52-.46 1.51-.45 1.51-.44 1.51-.43 1.51-.43 1.51-.41 1.52-.41 1.51-.39 1.51-.39 1.52-.38 1.51-.37 1.51-.36 1.52-.36 1.51-.34 1.52-.34 1.52-.33 1.51-.31 1.52-.31 1.51-.3 1.52-.3 1.52-.28 1.52-.27 1.52-.27 1.52-.26 1.51-.24 1.52-.24 1.52-.23 1.52-.23 1.52-.21 1.53-.2 1.52-.2 1.52-.18 1.52-.18 1.52-.17 1.53-.16 1.52-.15 1.52-.15 1.53-.13 1.52-.13 1.53-.11 1.52-.11 1.53-.1 1.52-.09 1.53-.08 1.52-.07 1.53-.07 1.53-.05 1.53-.05 1.52-.04 1.53-.02 1.53-.02 1.53-.01 1.53-.01 1.53.01 1.53.01 1.53.03 1.53.03 1.53.04 1.53.05 1.54.06 1.53.07 1.53.08 1.53.08 1.54.1 1.53.1 1.53.11 1.54.12 1.53.13 1.54.14 1.53.14 1.54.16 1.54.16 1.53.18 1.54.18 1.54.19 1.54.2 1.53.21 1.54.21 1.54.23 1.54.24 1.54.24 1.54.25 1.54.26 1.54.27 1.54.28 1.54.29 1.55.29 1.54.31 1.54.31 1.54.32 1.55.33 1.54.34 1.54.35 1.55.36 1.54.37 1.55.37 1.54.38 1.55"/><path style="stroke-width:1.07;stroke:#000;stroke-opacity:.1;stroke-linecap:butt" d="m391.57 216.37-.04 1.53-.05 1.53-.05 1.53-.04 1.53-.05 1.52-.04 1.53-.05 1.53-.05 1.53-.04 1.53-.05 1.52-.05 1.53-.04 1.53-.05 1.53-.04 1.53-.05 1.52-.05 1.53-.04 1.53-.05 1.53-.05 1.53-.04 1.52-.05 1.53-.04 1.53-.05 1.53-.05 1.53-.04 1.52-.05 1.53-.05 1.53-.04 1.53-.05 1.52-.04 1.53-.05 1.53-.05 1.53-.04 1.53-.05 1.52-.05 1.53-.04 1.53-.05 1.53-.04 1.53-.05 1.52-.05 1.53-.04 1.53-.05 1.53-.05 1.53-.04 1.52-.05 1.53-.04 1.53-.05 1.53-.05 1.53-.04 1.52-.05 1.53-.05 1.53-.04 1.53-.05 1.52-.04 1.53-.05 1.53-.05 1.53-.04 1.53-.05 1.52-.05 1.53-.04 1.53-.05 1.53-.04 1.53-.05 1.52-.05 1.53-.04 1.53-.05 1.53-.05 1.53-.04 1.52-.05 1.53-.04 1.53-.05 1.53-.05 1.53-.04 1.52-.05 1.53-.05 1.53-.04 1.53-.05 1.53-.04 1.52-.05 1.53-.05 1.53-.04 1.53-.05 1.52-.05 1.53-.04 1.53-.05 1.53-.04 1.53-.05 1.52-.05 1.53-.04 1.53-.05 1.53-.05 1.53-.04 1.52-.05 1.53-.04 1.53-.05 1.53-.05 1.53-.04 1.52-.05 1.53-.05 1.53"/><path style="stroke-width:1.07;stroke:#000;stroke-opacity:.1;stroke-linecap:butt" d="m391.57 216.37.39 1.55.37 1.55.37 1.54.36 1.55.34 1.54.34 1.54.33 1.55.33 1.54.31 1.54.31 1.55.29 1.54.29 1.54.28 1.54.27 1.54.26 1.54.25 1.54.24 1.54.24 1.54.22 1.54.22 1.54.21 1.54.2 1.54.19 1.54.18 1.53.17 1.54.17 1.54.15 1.53.15 1.54.14 1.54.13 1.53.12 1.54.11 1.53.1 1.53.1 1.54.08 1.53.08 1.53.07 1.54.06 1.53.05 1.53.04 1.53.03 1.53.02 1.53.02 1.54.01 1.53-.01 1.53-.01 1.52-.02 1.53-.03 1.53-.03 1.53-.05 1.53-.06 1.53-.06 1.52-.07 1.53-.08 1.53-.09 1.52-.1 1.53-.11 1.52-.12 1.53-.12 1.52-.14 1.53-.14 1.52-.15 1.53-.16 1.52-.17 1.52-.18 1.52-.18 1.53-.2 1.52-.2 1.52-.22 1.52-.22 1.52-.23 1.52-.24 1.52-.25 1.52-.25 1.52-.27 1.52-.27 1.52-.29 1.51-.29 1.52-.3 1.52-.31 1.52-.32 1.51-.32 1.52-.34 1.52-.34 1.51-.36 1.52-.36 1.51-.37 1.52-.38 1.51-.39 1.51-.4 1.52-.4 1.51-.42 1.51-.42 1.51-.43 1.52-.44 1.51-.45 1.51-.46 1.51-.47 1.51-.48 1.51"/><path style="stroke-width:.71;stroke:none;fill:#00ba38" d="m281.37 266.8 6.99 12.11h-13.99zM522.77 378.59l1.92 3.32h-3.83zM55.97 138.74l1.91 3.31h-3.83zM362.46 522l1.91 3.31h-3.82z"/><path style="stroke-width:.71;stroke:none;fill:#619cff" d="M386.38 221.57h10.39v-10.39h-10.39z"/><circle cx="164.63" cy="212.83" r="5.19" style="stroke-width:.71;stroke:none;fill:#f8766d"/><circle cx="386.99" cy="367.64" r="6.76" style="stroke-width:.71;stroke:none;fill:#f8766d"/><path style="stroke-width:.53;stroke:#bfbfbf" d="m286.69 270.28-4.44 3.84M518 385.12l3.92-3.54M367.64 519.55l-4.32 3.89M396.95 211.74l-4.5 3.88M159.2 217.41l4.54-3.83M392.33 363.04l-4.46 3.84"/><path style="stroke-width:.53;fill:#fff;fill-opacity:.5" d="M265.44 270.28h66.71-.09l.35-.01.34-.07.33-.13.3-.17.27-.22.23-.26.18-.29.14-.32.08-.34.03-.35v-15.15l-.03-.35-.08-.34-.14-.32-.18-.29-.23-.26-.27-.22-.3-.18-.33-.12-.34-.07-.26-.01h-66.71l.26.01-.34-.01-.35.04-.33.1-.32.14-.28.2-.25.24-.21.28-.16.31-.11.33-.06.34-.01.18v15.15l.01-.17v.35l.06.34.11.33.16.31.21.27.25.25.28.19.32.15.33.1.35.04z"/><text x="298.8" y="258.49" text-anchor="middle" style="font-size:5.69px;font-family:&quot;Arial&quot;" textLength="63.83" lengthAdjust="spacingAndGlyphs">NICHOLS REALESTATE</text><text x="298.8" y="266.68" text-anchor="middle" style="font-size:5.69px;font-family:&quot;Arial&quot;" textLength="10.43" lengthAdjust="spacingAndGlyphs">LLC</text><path style="stroke-width:.53;fill:#fff;fill-opacity:.5" d="M465.58 393.49h50.26-.08l.34-.02.35-.07.32-.12.3-.17.27-.22.23-.26.19-.3.13-.32.09-.33.02-.35v-6.96l-.02-.35-.09-.34-.13-.32-.19-.29-.23-.26-.27-.22-.3-.17-.32-.13-.35-.07-.26-.01h-50.26l.26.01-.35-.01-.34.04-.33.1-.32.15-.29.19-.25.24-.2.28-.17.31-.11.33-.05.34-.01.18v6.96l.01-.17v.34l.05.35.11.33.17.3.2.28.25.24.29.2.32.15.33.1.34.04z"/><text x="490.71" y="389.89" text-anchor="middle" style="font-size:5.69px;font-family:&quot;Arial&quot;" textLength="47.38" lengthAdjust="spacingAndGlyphs">ATIYAH NICHOLS</text><path style="stroke-width:.53;fill:#fff;fill-opacity:.5" d="M62.86 150.58h67.34-.08l.34-.01.35-.07.32-.13.3-.17.27-.22.23-.26.19-.29.13-.32.09-.34.02-.35v-15.16l-.02-.34-.09-.34-.13-.32-.19-.29-.23-.26-.27-.22-.3-.18-.32-.12-.35-.07-.26-.02H62.86l.26.02-.34-.01-.35.04-.33.1-.32.14-.28.2-.25.24-.21.28-.16.31-.11.33-.06.34-.01.17v15.16l.01-.17v.35l.06.34.11.33.16.31.21.27.25.24.28.2.32.15.33.1.35.04z"/><text x="96.53" y="138.79" text-anchor="middle" style="font-size:5.69px;font-family:&quot;Arial&quot;" textLength="64.46" lengthAdjust="spacingAndGlyphs">CACHE JAMES BETTER</text><text x="96.53" y="146.98" text-anchor="middle" style="font-size:5.69px;font-family:&quot;Arial&quot;" textLength="30.64" lengthAdjust="spacingAndGlyphs">LIVING LLC</text><path style="stroke-width:.53;fill:#fff;fill-opacity:.5" d="M347.56 519.55h55-.08l.34-.02.34-.07.33-.12.3-.17.27-.22.23-.26.18-.3.14-.32.08-.33.03-.35v-6.96l-.03-.35-.08-.34-.14-.32-.18-.29-.23-.26-.27-.22-.3-.18-.33-.12-.34-.07-.26-.01h-55l.26.01-.35-.01-.34.04-.33.1-.32.15-.28.19-.26.24-.2.28-.17.31-.11.33-.05.34-.01.18v6.96l.01-.18v.35l.05.35.11.33.17.3.2.28.26.24.28.2.32.15.33.09.34.05z"/><text x="375.06" y="515.95" text-anchor="middle" style="font-size:5.69px;font-family:&quot;Arial&quot;" textLength="52.12" lengthAdjust="spacingAndGlyphs">ATIYAH L NICHOLS</text><path style="stroke-width:.53;fill:#fff;fill-opacity:.5" d="M376.82 211.74h64.49l-.09-.01.35-.01.34-.07.33-.12.3-.18.27-.22.23-.26.18-.29.14-.32.08-.34.03-.34v-15.16l-.03-.35-.08-.33-.14-.32-.18-.3-.23-.26-.27-.22-.3-.17-.33-.13-.34-.06-.26-.02h-64.49l.26.02-.35-.02-.34.04-.34.1-.31.15-.29.2-.25.24-.21.28-.16.3-.11.33-.05.35-.01.17v15.16l.01-.18v.35l.05.34.11.33.16.31.21.28.25.24.29.2.31.15.34.09.34.04z"/><text x="409.07" y="199.94" text-anchor="middle" style="font-size:5.69px;font-family:&quot;Arial&quot;" textLength="55.3" lengthAdjust="spacingAndGlyphs">7355 N CASSIE AVE,</text><text x="409.07" y="208.14" text-anchor="middle" style="font-size:5.69px;font-family:&quot;Arial&quot;" textLength="61.61" lengthAdjust="spacingAndGlyphs">MILWAUKEE, WI 53224</text><path style="stroke-width:.53;fill:#fff;fill-opacity:.5" d="M107.26 245.09h69.85l-.08-.01.34-.01.34-.07.33-.12.3-.18.27-.22.23-.26.19-.29.13-.32.09-.34.02-.34v-23.36l-.02-.34-.09-.34-.13-.32-.19-.29-.23-.26-.27-.22-.3-.18-.33-.12-.34-.07-.26-.02h-69.85l.26.02-.35-.01-.34.04-.34.09-.31.15-.29.2-.25.24-.21.28-.16.31-.11.33-.05.34-.01.17v23.36l.01-.18v.35l.05.34.11.33.16.31.21.28.25.24.29.2.31.14.34.1.34.04z"/><text x="142.19" y="225.1" text-anchor="middle" style="font-size:5.69px;font-family:&quot;Arial&quot;" textLength="34.44" lengthAdjust="spacingAndGlyphs">PO BOX 248,</text><text x="142.19" y="233.29" text-anchor="middle" style="font-size:5.69px;font-family:&quot;Arial&quot;" textLength="66.97" lengthAdjust="spacingAndGlyphs">MENOMONEE FALLS, WI</text><text x="142.19" y="241.49" text-anchor="middle" style="font-size:5.69px;font-family:&quot;Arial&quot;" textLength="15.8" lengthAdjust="spacingAndGlyphs">53051</text><path style="stroke-width:.53;fill:#fff;fill-opacity:.5" d="M372.2 363.04h64.49-.09l.35-.01.34-.07.33-.13.3-.17.27-.22.23-.26.18-.29.14-.32.08-.34.03-.35v-15.15l-.03-.35-.08-.34-.14-.32-.18-.29-.23-.26-.27-.22-.3-.18-.33-.12-.34-.07-.26-.01H372.2l.26.01-.35-.01-.34.04-.34.1-.31.15-.29.19-.25.24-.21.28-.16.31-.11.33-.05.34-.01.18v15.15l.01-.17v.35l.05.34.11.33.16.31.21.27.25.25.29.19.31.15.34.1.34.04z"/><text x="404.45" y="351.25" text-anchor="middle" style="font-size:5.69px;font-family:&quot;Arial&quot;" textLength="55.3" lengthAdjust="spacingAndGlyphs">7355 N CASSIE AVE,</text><text x="404.45" y="359.44" text-anchor="middle" style="font-size:5.69px;font-family:&quot;Arial&quot;" textLength="61.61" lengthAdjust="spacingAndGlyphs">MILWAUKEE, WI 53224</text></g><g clip-path="url(#cpMC4wMHw1NzYuMDB8MC4wMHw1NzYuMDA=)"><circle cx="196.98" cy="96.71" r="1.95" style="stroke-width:.71;stroke:none;fill:#f8766d"/><path style="stroke-width:.71;stroke:none;fill:#00ba38" d="m273.33 93.67 2.63 4.56h-5.26z"/><path style="stroke-width:.71;stroke:none;fill:#619cff" d="M339.31 98.66h3.91v-3.91h-3.91z"/><text x="211.09" y="99.86" style="font-size:8.8px;font-family:&quot;Arial Narrow&quot;" textLength="48.12" lengthAdjust="spacingAndGlyphs">mprop address</text><text x="287.45" y="99.86" style="font-size:8.8px;font-family:&quot;Arial Narrow&quot;" textLength="39.69" lengthAdjust="spacingAndGlyphs">owner name</text><text x="355.38" y="99.86" style="font-size:8.8px;font-family:&quot;Arial Narrow&quot;" textLength="40.5" lengthAdjust="spacingAndGlyphs">wdfi address</text><text x="32.63" y="65.12" style="font-size:12px;font-family:&quot;Arial Narrow&quot;" textLength="241.29" lengthAdjust="spacingAndGlyphs">includes 5 parcels, 9 units, and 4 distinct owner names.</text><text x="32.63" y="42.78" style="font-size:18px;font-weight:700;font-family:&quot;Arial Narrow&quot;" textLength="247.9" lengthAdjust="spacingAndGlyphs">NICHOLS REALESTATE LLC Group</text></g></svg>