<svg xmlns="http://www.w3.org/2000/svg" width="384" height="480" class="svglite" viewBox="0 0 288 360"><defs><style><![CDATA[.svglite line,.svglite polyline,.svglite polygon,.svglite path,.svglite circle{fill:none;stroke:#000000;stroke-linecap:round;stroke-linejoin:round;stroke-miterlimit:10.00}]]></style></defs><rect width="100%" height="100%" style="stroke-linecap:round;stroke-linejoin:round;stroke-miterlimit:10.00;stroke:none;fill:#FFFFFF"/><defs><clipPath id="cpMC4wMHwyODguMDB8MC4wMHwzNjAuMDA="><path d="M0 0h288v360H0z"/></clipPath></defs><g clip-path="url(#cpMC4wMHwyODguMDB8MC4wMHwzNjAuMDA=)"><path d="M0 0h288v360H0z" style="stroke-width:1.07;stroke:none;fill:#FFFFFF"/></g><defs><clipPath id="cpMzIuNjN8MjU4LjExfDE4MC4xMHwzMjcuMzc="><path d="M32.63 180.1h225.48v147.27H32.63z"/></clipPath></defs><g clip-path="url(#cpMzIuNjN8MjU4LjExfDE4MC4xMHwzMjcuMzc=)"><path d="m247.86 279.72-1.22-.17-1.22-.18-1.22-.17-1.23-.18-1.22-.17-1.22-.18-1.22-.17-1.23-.18-1.22-.17-1.22-.18-1.22-.17-1.22-.18-1.23-.17-1.22-.18-1.22-.17-1.22-.18-1.23-.17-1.22-.18-1.22-.17-1.22-.18-1.22-.17-1.23-.18-1.22-.17-1.22-.18-1.22-.17-1.23-.18-1.22-.17-1.22-.18-1.22-.17-1.22-.18-1.23-.17-1.22-.18-1.22-.17-1.22-.18-1.23-.17-1.22-.18-1.22-.17-1.22-.18-1.22-.17-1.23-.18-1.22-.17-1.22-.18-1.22-.17-1.23-.18-1.22-.17-1.22-.18-1.22-.17-1.22-.18-1.23-.17-1.22-.18-1.22-.17-1.22-.18-1.23-.17-1.22-.18-1.22-.17-1.22-.18-1.22-.17-1.23-.18-1.22-.17-1.22-.18-1.22-.17-1.23-.18-1.22-.17-1.22-.18-1.22-.17-1.22-.18-1.23-.17-1.22-.18-1.22-.17-1.22-.18-1.23-.17-1.22-.18-1.22-.17-1.22-.18-1.22-.17-1.23-.18-1.22-.17-1.22-.18-1.22-.17-1.23-.18-1.22-.17-1.22-.18-1.22-.17-1.22-.18-1.23-.17-1.22-.18-1.22-.17-1.22-.18-1.23-.17-1.22-.17-1.22-.18-1.22-.17-1.22-.18-1.23-.17-1.22-.18-1.22-.17-1.22-.18-1.23-.17-1.22-.18m-37.01-75.6.37.76.38.77.37.76.37.76.38.77.37.76.38.76.37.77.37.76.38.76.37.77.37.76.38.77.37.76.38.76.37.77.37.76.38.76.37.77.38.76.37.77.37.76.38.76.37.77.38.76.37.76.37.77.38.76.37.76.37.77.38.76.37.77.38.76.37.76.37.77.38.76.37.76.38.77.37.76.37.76.38.77.37.76.37.77.38.76.37.76.38.77.37.76.37.76.38.77.37.76.38.76.37.77.37.76.38.77.37.76.38.76.37.77.37.76.38.76.37.77.37.76.38.76.37.77.38.76.37.77.37.76.38.76.37.77.38.76.37.76.37.77.38.76.37.77.38.76.37.76.37.77.38.76.37.76.37.77.38.76.37.76.38.77.37.76.37.77.38.76.37.76.38.77.37.76.37.76.38.77.37.76.38.76.37.77.37.76.38.77.37.76.37.76.38.77.37.76m-83.98 58.28.85-.59.84-.59.85-.59.85-.59.85-.58.85-.59.85-.59.84-.59.85-.59.85-.59.85-.59.85-.59.85-.58.84-.59.85-.59.85-.59.85-.59.85-.59.85-.59.84-.59.85-.58.85-.59.85-.59.85-.59.85-.59.84-.59.85-.59.85-.58.85-.59.85-.59.85-.59.84-.59.85-.59.85-.59.85-.59.85-.58.85-.59.84-.59.85-.59.85-.59.85-.59.85-.59.85-.58.84-.59.85-.59.85-.59.85-.59.85-.59.85-.59.84-.59.85-.58.85-.59.85-.59.85-.59.85-.59.84-.59.85-.59.85-.58.85-.59.85-.59.85-.59.84-.59.85-.59.85-.59.85-.59.85-.58.85-.59.84-.59.85-.59.85-.59.85-.59.85-.59.85-.58.84-.59.85-.59.85-.59.85-.59.85-.59.85-.59.84-.59.85-.58.85-.59.85-.59.85-.59.85-.59.84-.59.85-.59.85-.58.85-.59.85-.59.85-.59.84-.59.85-.59.85-.59.85-.59.85-.58.85-.59.84-.59.85-.59" style="stroke-width:1.07;stroke:#000000;stroke-opacity:0.10;stroke-linecap:butt"/><path d="m247.86 277.51 1.92 3.32h-3.83zM89.85 184.59l1.91 3.31h-3.83zM42.88 318.47l1.91 3.31h-3.83z" style="stroke-width:0.71;stroke:none;fill:#00BFC4"/><circle cx="126.86" cy="262.4" r="6.76" style="stroke-width:0.71;stroke:none;fill:#F8766D"/><path d="m88.82 191.27.82-3.56m-40.2 128.47-5.59 3.83m89.55-62.08-5.56 3.8" style="stroke-width:0.53;stroke:#BFBFBF"/><path d="M183.2 289.46h57.54-.09l.35-.02.34-.07.33-.12.3-.17.27-.22.23-.26.18-.3.14-.32.08-.33.03-.35h0v-15.16h0l-.03-.34-.08-.34-.14-.32-.18-.29-.23-.26-.27-.22-.3-.18-.33-.12-.34-.07-.26-.02H183.2l.26.02-.35-.02-.35.05-.33.09-.31.15-.29.2-.25.24-.21.28-.16.31-.11.33-.06.34v15.33-.17.34l.06.35.11.33.16.3.21.28.25.24.29.2.31.15.33.1.35.04z" style="stroke-width:0.53;fill:#FFFFFF;fill-opacity:0.50"/><text x="211.97" y="277.67" lengthAdjust="spacingAndGlyphs" style="font-size:5.69px;font-family:Arial" text-anchor="middle" textLength="54.66">NMB INVESTMENTS</text><text x="211.97" y="285.86" lengthAdjust="spacingAndGlyphs" style="font-size:5.69px;font-family:Arial" text-anchor="middle" textLength="36.66">PROPERTIES</text><path d="M51.19 210.75h75.23-.08l.34-.01.34-.07.33-.13.3-.17.27-.22.23-.26.19-.29.13-.32.09-.34.02-.35h0v-15.16h0l-.02-.34-.09-.34-.13-.32-.19-.29-.23-.26-.27-.22-.3-.18-.33-.12-.34-.07-.26-.02H51.19l.26.02-.35-.01-.34.04-.33.1-.32.14-.29.2-.25.24-.2.28-.17.31-.11.33-.05.34-.01.17v15.16l.01-.17v.35l.05.34.11.33.17.31.2.27.25.24.29.2.32.15.33.1.34.04z" style="stroke-width:0.53;fill:#FFFFFF;fill-opacity:0.50"/><text x="88.81" y="198.96" lengthAdjust="spacingAndGlyphs" style="font-size:5.69px;font-family:Arial" text-anchor="middle" textLength="72.35">NMB INVESTMENT PROPS</text><text x="88.81" y="207.15" lengthAdjust="spacingAndGlyphs" style="font-size:5.69px;font-family:Arial" text-anchor="middle" textLength="10.43">LLC</text><path d="M38.4 316.18h51.86-.09l.35-.02.34-.07.32-.12.3-.17.27-.22.23-.26.19-.3.14-.32.08-.33.03-.35h0v-6.96h0l-.03-.35-.08-.34-.14-.32-.19-.29-.23-.26-.27-.22-.3-.17-.32-.13-.34-.07-.26-.01H38.4l.26.01-.34-.01-.35.04-.33.1-.32.15-.28.19-.25.24-.21.28-.16.31-.11.33-.06.34-.01.18v6.96l.01-.17v.34l.06.35.11.33.16.3.21.28.25.24.28.2.32.15.33.1.35.04z" style="stroke-width:0.53;fill:#FFFFFF;fill-opacity:0.50"/><text x="64.33" y="312.58" lengthAdjust="spacingAndGlyphs" style="font-size:5.69px;font-family:Arial" text-anchor="middle" textLength="48.97">NIKOLA BOSNJAK</text><path d="M116.38 257.93h64.49l-.09-.01.35-.01.34-.07.32-.12.3-.18.27-.22.23-.26.19-.29.14-.32.08-.34.03-.34h0v-15.16h0l-.03-.35-.08-.34-.14-.32-.19-.29-.23-.26-.27-.22-.3-.17-.32-.13-.34-.07-.26-.01h-64.49l.26.01-.35-.01-.34.04-.34.1-.31.15-.29.2-.25.24-.21.27-.16.31-.11.33-.06.34v15.34-.18.35l.06.34.11.33.16.31.21.28.25.24.29.2.31.14.34.1.34.04z" style="stroke-width:0.53;fill:#FFFFFF;fill-opacity:0.50"/><text x="148.62" y="246.13" lengthAdjust="spacingAndGlyphs" style="font-size:5.69px;font-family:Arial" text-anchor="middle" textLength="60.65">9376 N CARLOTTA LN,</text><text x="148.62" y="254.33" lengthAdjust="spacingAndGlyphs" style="font-size:5.69px;font-family:Arial" text-anchor="middle" textLength="61.61">MILWAUKEE, WI 53223</text></g><g clip-path="url(#cpMC4wMHwyODguMDB8MC4wMHwzNjAuMDA=)"><circle cx="87.34" cy="155.03" r="1.95" style="stroke-width:0.71;stroke:none;fill:#F8766D"/><path d="m163.7 151.99 2.63 4.56h-5.26z" style="stroke-width:0.71;stroke:none;fill:#00BFC4"/><text x="101.46" y="158.18" lengthAdjust="spacingAndGlyphs" style="font-size:8.80px;font-family:Arial Narrow" textLength="48.12">mprop address</text><text x="177.82" y="158.18" lengthAdjust="spacingAndGlyphs" style="font-size:8.80px;font-family:Arial Narrow" textLength="39.69">owner name</text><text x="32.63" y="123.44" lengthAdjust="spacingAndGlyphs" style="font-size:12.00px;font-family:Arial Narrow" textLength="241.29">includes 3 parcels, 3 units, and 3 distinct owner names.</text><text x="32.63" y="42.78" lengthAdjust="spacingAndGlyphs" style="font-size:18.00px;font-weight:bold;font-family:Arial Narrow" textLength="183.94">NIKOLA BOSNJAK -- NMB</text><text x="32.63" y="62.22" lengthAdjust="spacingAndGlyphs" style="font-size:18.00px;font-weight:bold;font-family:Arial Narrow" textLength="197.6">INVESTMENT PROPS LLC --</text><text x="32.63" y="81.66" lengthAdjust="spacingAndGlyphs" style="font-size:18.00px;font-weight:bold;font-family:Arial Narrow" textLength="241.9">NMB INVESTMENTS PROPERTIES</text><text x="32.63" y="101.1" lengthAdjust="spacingAndGlyphs" style="font-size:18.00px;font-weight:bold;font-family:Arial Narrow" textLength="44.27">Group</text></g></svg>