<svg xmlns="http://www.w3.org/2000/svg" width="576" height="672" viewBox="0 0 432 504"><g class="svglite"><defs><style><![CDATA[.svglite line,.svglite polyline,.svglite polygon,.svglite path,.svglite circle{fill:none;stroke:#000000;stroke-linecap:round;stroke-linejoin:round;stroke-miterlimit:10.00}.svglite text{white-space:pre}.svglite g.glyphgroup path{fill:inherit;stroke:none}]]></style></defs><rect width="100%" height="100%" style="stroke-linecap:round;stroke-linejoin:round;stroke-miterlimit:10.00;stroke:none;fill:#FFFFFF"/><defs><clipPath id="cpMC4wMHw0MzIuMDB8MC4wMHw1MDQuMDA="><path d="M0 0h432v504H0z"/></clipPath></defs><g clip-path="url(#cpMC4wMHw0MzIuMDB8MC4wMHw1MDQuMDA=)"><path d="M0 0h432v504H0z" style="stroke-width:1.07;stroke:none;fill:#FFFFFF"/></g><defs><clipPath id="cpMzIuNjN8NDAyLjExfDE0MS41OHw0NzEuMzc="><path d="M32.63 141.58h369.48v329.8H32.63z"/></clipPath></defs><g clip-path="url(#cpMzIuNjN8NDAyLjExfDE0MS41OHw0NzEuMzc=)"><path d="m147.75 336.3 1.51-.86 1.49-.86 1.47-.87 1.47-.87 1.45-.87 1.44-.88 1.43-.89 1.41-.89 1.41-.89 1.39-.89 1.37-.9 1.37-.91 1.35-.91 1.34-.91 1.33-.92 1.32-.92 1.3-.93 1.29-.93 1.28-.93 1.26-.94 1.26-.94 1.24-.95 1.23-.95 1.21-.96 1.21-.96 1.19-.96 1.18-.97 1.17-.97 1.15-.98 1.14-.98 1.13-.98 1.12-.99 1.1-.99 1.1-1 1.08-1 1.06-1.01 1.06-1.01 1.04-1.01 1.03-1.02 1.02-1.02 1.01-1.03.99-1.03.98-1.04.97-1.04.95-1.04.95-1.05.93-1.05.92-1.06.9-1.06.9-1.06.88-1.07.87-1.07.85-1.08.85-1.08.83-1.09.82-1.09.81-1.09.79-1.1.78-1.1.77-1.11.76-1.11.74-1.12.74-1.12.72-1.12.7-1.13.7-1.13.68-1.14.67-1.14.66-1.14.65-1.15.63-1.15.62-1.16.61-1.16.59-1.17.59-1.17.57-1.17.56-1.18.54-1.18.54-1.19.52-1.19.51-1.2.49-1.2.49-1.2.47-1.21.46-1.21.45-1.22.43-1.22.42-1.22.41-1.23.4-1.23.39-1.24.37-1.24.36-1.25.35-1.25.33-1.25.32-1.26.31-1.26.3-1.27.29-1.27M147.75 336.3l-.35-1.27-.37-1.27-.39-1.26-.39-1.25-.41-1.25-.42-1.25-.44-1.24-.45-1.23-.46-1.23-.47-1.23-.49-1.21-.5-1.22-.51-1.21-.53-1.2-.54-1.2-.55-1.2-.57-1.18-.57-1.19-.59-1.18-.61-1.17-.61-1.17-.63-1.16-.65-1.16-.65-1.15-.67-1.15-.68-1.15-.7-1.13-.71-1.14-.72-1.12-.73-1.13-.75-1.11-.76-1.12-.77-1.1-.79-1.11-.79-1.09-.82-1.1-.82-1.08-.84-1.08-.85-1.08-.86-1.07-.88-1.07-.89-1.06-.9-1.06-.92-1.05-.92-1.04-.95-1.05-.95-1.03-.97-1.03-.98-1.03-.99-1.02-1.01-1.01-1.02-1.01-1.03-1.01-1.04-1-1.06-.99-1.07-.99-1.09-.99-1.09-.98-1.11-.97-1.13-.97-1.13-.97-1.15-.96-1.16-.95-1.18-.95-1.19-.95-1.2-.93-1.21-.94-1.23-.93-1.24-.92-1.25-.92-1.27-.91-1.28-.91-1.29-.9-1.3-.9-1.32-.9-1.33-.88-1.34-.89-1.36-.87-1.37-.88-1.38-.86-1.4-.87-1.41-.85-1.42-.86-1.43-.84-1.45-.85-1.46-.83-1.47-.84-1.49-.82-1.5-.82-1.51-.82-1.53-.81-1.54-.81-1.55-.8-1.56-.8-1.58-.79-1.59-.78-1.6-.78-1.62-.78-1.63-.77" style="stroke-width:1.07;stroke:#000000;stroke-opacity:0.10;stroke-linecap:butt"/><path d="m147.75 336.3 1.4-.9 1.38-.89 1.37-.91 1.36-.9 1.35-.91 1.34-.92 1.33-.91 1.32-.92 1.31-.93 1.3-.92 1.29-.94 1.28-.93 1.27-.94 1.26-.94 1.25-.94 1.24-.95 1.23-.95 1.22-.96 1.2-.95 1.2-.96 1.19-.97 1.18-.97 1.17-.97 1.15-.97 1.15-.98 1.14-.99 1.13-.98 1.11-.99 1.11-.99 1.1-1 1.08-1 1.08-1 1.07-1.01 1.05-1.01 1.05-1.01 1.04-1.02 1.02-1.02 1.02-1.02 1-1.03 1-1.03.98-1.03.98-1.04.96-1.04.96-1.04.94-1.05.94-1.05.92-1.06.91-1.05.91-1.06.89-1.07.89-1.07.87-1.07.86-1.07.86-1.08.84-1.08.83-1.09.82-1.09.82-1.09.8-1.1.79-1.1.78-1.1.78-1.11.76-1.1.75-1.12.74-1.11.73-1.12.72-1.13.71-1.12.7-1.13.7-1.14.68-1.13.67-1.14.66-1.15.65-1.15.64-1.15.63-1.15.62-1.16.61-1.16.59-1.16.59-1.17.58-1.17.57-1.18.56-1.18.55-1.18.54-1.18.53-1.19.51-1.2.51-1.19.5-1.2.49-1.2.47-1.21.47-1.21.46-1.21.45-1.22.43-1.22.43-1.22.42-1.23.4-1.23.4-1.23M147.75 336.3l-.46-1.23-.47-1.22-.49-1.22-.49-1.22-.51-1.21-.52-1.21-.53-1.2-.53-1.2-.55-1.2-.57-1.19-.57-1.18-.58-1.19-.59-1.17-.61-1.18-.61-1.17-.63-1.16-.63-1.16-.65-1.16-.66-1.15-.67-1.15-.68-1.14-.69-1.14-.7-1.14-.71-1.13-.72-1.13-.74-1.12-.74-1.12-.76-1.11-.76-1.11-.78-1.11-.79-1.1-.8-1.1-.81-1.09-.82-1.09-.83-1.08-.84-1.08-.85-1.08-.86-1.07-.88-1.07-.88-1.06-.9-1.06-.91-1.05-.91-1.05-.93-1.05-.94-1.04-.95-1.04-.96-1.03-.97-1.03-.99-1.03-.99-1.02-1-1.01-1.02-1.02-1.02-1-1.04-1.01-1.05-1-1.06-.99-1.07-.99-1.08-.99-1.09-.98-1.1-.98-1.11-.97-1.12-.97-1.14-.97-1.14-.96-1.16-.96-1.16-.95-1.18-.95-1.19-.94-1.2-.94-1.21-.94-1.22-.93-1.23-.92-1.24-.93-1.25-.92-1.27-.91-1.27-.91-1.29-.91-1.29-.9-1.31-.9-1.32-.89-1.33-.89-1.33-.88-1.35-.88-1.37-.88-1.37-.87-1.38-.87-1.39-.86-1.41-.86-1.41-.86-1.43-.85-1.44-.84-1.44-.84-1.46-.84-1.47-.84-1.48-.83-1.49-.82-1.5-.82-1.51-.82-1.53-.81" style="stroke-width:1.07;stroke:#000000;stroke-opacity:0.10;stroke-linecap:butt"/><path d="m147.75 336.3 1.29-.93 1.27-.94 1.26-.94 1.26-.94 1.25-.94 1.24-.95 1.23-.95 1.23-.95 1.22-.96 1.21-.96 1.2-.96 1.19-.96 1.19-.96 1.18-.97 1.17-.97 1.16-.98 1.15-.97 1.15-.98 1.14-.98 1.13-.99 1.12-.99 1.12-.99 1.1-.99 1.1-.99 1.09-1 1.09-1 1.07-1 1.07-1.01 1.06-1.01 1.05-1.01 1.05-1.01 1.03-1.02 1.03-1.02 1.02-1.02 1.01-1.03 1.01-1.02.99-1.03.99-1.04.98-1.03.98-1.04.96-1.04.96-1.04.95-1.05.94-1.05.93-1.05.93-1.05.91-1.06.91-1.06.9-1.06.9-1.07.88-1.06.88-1.07.87-1.08.86-1.07.86-1.08.85-1.08.83-1.08.83-1.09.83-1.09.81-1.09.81-1.1.8-1.09.79-1.1.78-1.1.78-1.11.76-1.11.76-1.11.76-1.11.74-1.12.74-1.11.72-1.12.72-1.13.72-1.12.7-1.13.7-1.14.68-1.13.68-1.14.68-1.14.66-1.14.66-1.14.65-1.15.64-1.15.63-1.16.63-1.15.61-1.16.61-1.16.61-1.16.59-1.17.59-1.17.57-1.17.57-1.18.57-1.17.55-1.18.55-1.19.53-1.18.53-1.19.53-1.19.51-1.19.51-1.2M147.75 336.3l-.56-1.19-.58-1.18-.59-1.18-.59-1.18-.61-1.17-.61-1.17-.62-1.17-.63-1.16-.64-1.16-.65-1.16-.65-1.15-.67-1.15-.67-1.15-.68-1.14-.69-1.14-.7-1.14-.71-1.13-.72-1.13-.72-1.13-.74-1.12-.74-1.12-.75-1.11-.76-1.12-.77-1.1-.77-1.11-.79-1.1-.79-1.1-.81-1.1-.81-1.09-.82-1.09-.83-1.08-.83-1.08-.85-1.08-.86-1.08-.86-1.07-.87-1.07-.88-1.06-.89-1.06-.9-1.06-.91-1.06-.91-1.05-.93-1.05-.93-1.04-.94-1.04-.95-1.04-.96-1.03-.97-1.03-.97-1.03-.99-1.02-.99-1.03-1-1.01-1.01-1.02-1.02-1.01-1.03-1-1.04-1.01-1.04-1-1.05-.99-1.07-1-1.07-.99-1.08-.98-1.09-.99-1.09-.98-1.11-.97-1.11-.98-1.13-.97-1.13-.96-1.14-.97-1.15-.96-1.16-.95-1.16-.95-1.18-.95-1.18-.95-1.19-.94-1.2-.94-1.21-.94-1.22-.93-1.23-.93-1.23-.92-1.25-.92-1.25-.92-1.26-.92-1.27-.91-1.28-.91-1.29-.9-1.29-.9-1.31-.9-1.31-.9-1.32-.89-1.34-.89-1.33-.88-1.35-.88-1.36-.88-1.36-.87-1.38-.88-1.38-.86-1.39-.87-1.4-.86-1.41-.86-1.42-.85" style="stroke-width:1.07;stroke:#000000;stroke-opacity:0.10;stroke-linecap:butt"/><path d="m147.75 336.3 1.18-.97 1.16-.97 1.16-.98 1.15-.97 1.15-.98 1.14-.98 1.14-.99 1.13-.98 1.12-.99 1.12-.99 1.12-.99 1.1-.99 1.11-.99 1.09-1 1.1-1 1.08-1 1.08-1 1.08-1 1.06-1.01 1.07-1 1.05-1.01 1.06-1.01 1.04-1.02 1.04-1.01 1.04-1.02 1.03-1.02 1.02-1.02 1.02-1.02 1.01-1.03 1.01-1.02 1-1.03.99-1.03.99-1.03.99-1.04.98-1.03.97-1.04.96-1.04.97-1.04.95-1.05.95-1.04.95-1.05.94-1.05.93-1.05.93-1.05.92-1.06.92-1.06.91-1.06.9-1.06.9-1.06.89-1.06.89-1.07.88-1.07.88-1.07.87-1.07.87-1.08.86-1.07.85-1.08.85-1.08.84-1.08.84-1.09.83-1.08.83-1.09.82-1.09.81-1.09.81-1.09.81-1.1.8-1.1.79-1.1.78-1.1.78-1.1.78-1.11.77-1.1.76-1.11.76-1.11.76-1.11.74-1.12.74-1.11.74-1.12.73-1.12.72-1.13.72-1.12.72-1.13.7-1.12.71-1.13.69-1.13.69-1.14.69-1.13.68-1.14.67-1.14.67-1.14.66-1.15.66-1.14.65-1.15.65-1.15.64-1.15.63-1.15.63-1.15.62-1.16.62-1.16M147.75 336.3l-.67-1.14-.68-1.15-.69-1.14-.7-1.14-.7-1.13-.7-1.13-.72-1.13-.72-1.13-.73-1.13-.73-1.12-.74-1.12-.75-1.12-.75-1.11-.76-1.12-.77-1.11-.77-1.1-.78-1.11-.78-1.1-.8-1.1-.79-1.1-.81-1.09-.81-1.09-.82-1.09-.82-1.09-.83-1.08-.84-1.09-.85-1.07-.85-1.08-.85-1.08-.87-1.07-.87-1.07-.87-1.06-.89-1.07-.89-1.06-.89-1.06-.9-1.05-.91-1.06-.92-1.05-.92-1.05-.93-1.04-.93-1.05-.94-1.04-.95-1.04-.96-1.03-.96-1.04-.97-1.03-.97-1.02-.98-1.03-.99-1.02-.99-1.02-1-1.02-1.01-1.02-1.01-1.01-1.02-1.01-1.02-1.01-1.04-1-1.03-1.01-1.05-1-1.05-.99-1.06-1-1.06-.99-1.07-.99-1.08-.99-1.09-.98-1.09-.99-1.09-.98-1.11-.97-1.11-.98-1.11-.97-1.13-.97-1.13-.97-1.13-.96-1.15-.96-1.14-.96-1.16-.96-1.16-.95-1.17-.96-1.17-.95-1.19-.94-1.18-.95-1.2-.94-1.2-.94-1.21-.93-1.21-.94-1.22-.93-1.23-.93-1.23-.92-1.24-.93-1.25-.92-1.25-.92-1.26-.91-1.27-.92-1.27-.91-1.28-.91-1.28-.9-1.29-.91-1.3-.9-1.31-.89-1.31-.9" style="stroke-width:1.07;stroke:#000000;stroke-opacity:0.10;stroke-linecap:butt"/><path d="m147.75 336.3 1.06-1.01 1.06-1.01 1.05-1.01 1.05-1.01 1.05-1.01 1.04-1.02 1.04-1.01 1.04-1.02 1.03-1.02 1.03-1.02 1.02-1.02 1.03-1.02 1.02-1.02 1.01-1.02 1.01-1.03 1.01-1.02 1.01-1.03 1-1.03 1-1.03.99-1.03 1-1.03.98-1.03.99-1.04.98-1.03.98-1.04.98-1.03.97-1.04.96-1.04.97-1.04.96-1.04.96-1.05.95-1.04.96-1.05.94-1.04.95-1.05.94-1.05.94-1.05.93-1.05.93-1.05.93-1.06.92-1.05.92-1.06.92-1.05.92-1.06.91-1.06.9-1.06.91-1.06.9-1.06.9-1.07.89-1.06.89-1.07.89-1.06.88-1.07.88-1.07.88-1.07.87-1.07.87-1.08.87-1.07.86-1.08.86-1.07.86-1.08.85-1.08.85-1.08.85-1.08.84-1.08.84-1.08.84-1.09.83-1.08.83-1.09.82-1.09.83-1.09.82-1.09.81-1.09.82-1.09.8-1.09.81-1.1.8-1.09.8-1.1.8-1.1.79-1.1.79-1.1.78-1.1.79-1.1.77-1.11.78-1.1.77-1.11.77-1.1.77-1.11.76-1.11.76-1.11.75-1.11.75-1.12.75-1.11.75-1.12.74-1.11.73-1.12.74-1.12.73-1.12.73-1.12M147.75 336.3l-.78-1.1-.78-1.11-.79-1.1-.8-1.09-.79-1.1-.81-1.1-.81-1.09-.81-1.09-.81-1.09-.82-1.09-.83-1.09-.83-1.08-.83-1.09-.84-1.08-.84-1.08-.84-1.08-.86-1.07-.85-1.08-.86-1.07-.86-1.07-.87-1.07-.87-1.07-.88-1.07-.88-1.06-.89-1.07-.88-1.06-.9-1.06-.9-1.06-.9-1.05-.91-1.06-.91-1.05-.91-1.05-.92-1.05-.93-1.05-.92-1.04-.94-1.05-.93-1.04-.95-1.04-.94-1.04-.95-1.04-.96-1.04-.95-1.03-.97-1.03-.96-1.03-.98-1.03-.97-1.03-.98-1.03-.99-1.02-.99-1.02-.99-1.02-1-1.02-1-1.02-1-1.01-1.02-1.02-1.01-1.01-1.02-1.01-1.02-1.01-1.03-1.01-1.03-1-1.04-1.01-1.04-1-1.05-1-1.04-1-1.06-.99-1.06-1-1.06-.99-1.07-.99-1.07-.99-1.07-.99-1.08-.99-1.09-.98-1.08-.99-1.1-.98-1.09-.98-1.11-.98-1.1-.97-1.11-.98-1.12-.97-1.12-.97-1.12-.97-1.13-.97-1.13-.96-1.13-.97-1.14-.96-1.15-.96-1.15-.96-1.15-.96-1.16-.96-1.16-.95-1.17-.95-1.17-.95-1.17-.95-1.18-.95-1.18-.95-1.19-.94-1.19-.94-1.2-.94-1.2-.94-1.21-.94" style="stroke-width:1.07;stroke:#000000;stroke-opacity:0.10;stroke-linecap:butt"/><path d="m147.75 336.3.95-1.05.95-1.04.95-1.05.94-1.05.95-1.04.94-1.05.94-1.05.95-1.05.94-1.05.93-1.05.94-1.05.94-1.05.93-1.05.94-1.05.93-1.05.93-1.05.94-1.05.93-1.06.92-1.05.93-1.05.93-1.06.92-1.05.93-1.05.92-1.06.92-1.05.92-1.06.92-1.06.92-1.05.92-1.06.92-1.06.91-1.05.92-1.06.91-1.06.91-1.06.91-1.06.91-1.06.91-1.06.91-1.06.9-1.06.91-1.06.9-1.06.9-1.06.91-1.06.9-1.07.9-1.06.89-1.06.9-1.06.9-1.07.89-1.06.9-1.07.89-1.06.89-1.07.89-1.06.89-1.07.89-1.07.88-1.06.89-1.07.89-1.07.88-1.07.88-1.07.88-1.07.88-1.06.88-1.07.88-1.07.88-1.08.87-1.07.88-1.07.87-1.07.87-1.07.87-1.07.87-1.08.87-1.07.87-1.07.87-1.08.86-1.07.87-1.08.86-1.07.86-1.08.86-1.07.86-1.08.86-1.07.86-1.08.86-1.08.85-1.08.86-1.08.85-1.07.85-1.08.85-1.08.85-1.08.85-1.08.85-1.08.85-1.08.84-1.08.84-1.09.85-1.08.84-1.08.84-1.08.84-1.09.84-1.08M147.75 336.3l-.88-1.06-.89-1.06-.89-1.06-.9-1.06-.89-1.06-.9-1.06-.9-1.06-.9-1.05-.91-1.06-.91-1.05-.9-1.06-.92-1.05-.91-1.05-.91-1.05-.92-1.05-.92-1.05-.92-1.05-.93-1.05-.92-1.05-.93-1.04-.93-1.05-.93-1.04-.94-1.05-.94-1.04-.94-1.04-.94-1.04-.94-1.04-.95-1.04-.94-1.04-.95-1.04-.96-1.03-.95-1.04-.96-1.04-.96-1.03-.96-1.03-.96-1.04-.96-1.03-.97-1.03-.97-1.03-.97-1.03-.98-1.03-.97-1.02-.98-1.03-.98-1.02-.98-1.03-.99-1.02-.99-1.03-.98-1.02-1-1.02-.99-1.02-.99-1.02-1-1.02-1-1.02-1-1.02-1.01-1.01-1-1.02-1.01-1.01-1.01-1.02-1.02-1.01-1.01-1.01-1.02-1.01-1.02-1.01-1.02-1.01-1.02-1.01-1.03-1.01-1.02-1.01-1.03-1-1.04-1.01-1.03-1-1.04-1-1.04-1.01-1.04-1-1.04-1-1.05-1-1.04-1-1.05-1-1.05-1-1.06-.99-1.05-1-1.06-.99-1.06-1-1.06-.99-1.07-.99-1.07-1-1.07-.99-1.07-.99-1.07-.99-1.07-.98-1.08-.99-1.08-.99-1.08-.98-1.09-.99-1.08-.98-1.09-.99-1.09-.98-1.1-.98-1.09-.98-1.1-.98-1.1-.98" style="stroke-width:1.07;stroke:#000000;stroke-opacity:0.10;stroke-linecap:butt"/><path d="m147.75 336.3.84-1.08.84-1.09.84-1.08.85-1.08.84-1.08.84-1.08.85-1.09.84-1.08.85-1.08.85-1.08.85-1.08.85-1.08.85-1.07.86-1.08.85-1.08.86-1.08.85-1.08.86-1.07.86-1.08.86-1.08.86-1.07.86-1.08.87-1.07.86-1.08.87-1.07.86-1.08.87-1.07.87-1.07.87-1.08.87-1.07.87-1.07.88-1.07.87-1.07.88-1.07.87-1.07.88-1.07.88-1.07.88-1.07.88-1.07.88-1.07.89-1.07.88-1.07.89-1.06.89-1.07.88-1.07.89-1.06.89-1.07.9-1.07.89-1.06.89-1.07.9-1.06.89-1.06.9-1.07.9-1.06.9-1.06.9-1.07.9-1.06.9-1.06.91-1.06.9-1.06.91-1.06.9-1.06.91-1.06.91-1.06.91-1.06.92-1.06.91-1.06.91-1.06.92-1.05.91-1.06.92-1.06.92-1.05.92-1.06.92-1.05.92-1.06.93-1.05.92-1.06.93-1.05.92-1.06.93-1.05.93-1.05.93-1.06.93-1.05.93-1.05.93-1.05.94-1.05.93-1.05.94-1.05.94-1.05.94-1.05.94-1.05.94-1.05.94-1.05.94-1.05.95-1.04.94-1.05.95-1.05.95-1.04.95-1.05M147.75 336.3l-.99-1.02-.99-1.02-.99-1.02-1-1.02-.99-1.02-.99-1.02-1-1.02-.99-1.02-.99-1.02-1-1.03-.99-1.02-.99-1.02-1-1.02-.99-1.02-.99-1.02-1-1.02-.99-1.02-.99-1.02-1-1.02-.99-1.02-.99-1.02-1-1.02-.99-1.02-.99-1.02-1-1.02-.99-1.03-.99-1.02-1-1.02-.99-1.02-.99-1.02-1-1.02-.99-1.02-.99-1.02-1-1.02-.99-1.02-.99-1.02-1-1.02-.99-1.02-.99-1.02-1-1.02-.99-1.02-.99-1.02-1-1.03-.99-1.02-.99-1.02-.99-1.02-1-1.02-.99-1.02-.99-1.02-1-1.02-.99-1.02-.99-1.02-1-1.02-.99-1.02-.99-1.02-1-1.02-.99-1.02-.99-1.02-1-1.03-.99-1.02-.99-1.02-1-1.02-.99-1.02-.99-1.02-1-1.02-.99-1.02-.99-1.02-1-1.02-.99-1.02-.99-1.02-1-1.02-.99-1.02-.99-1.02-1-1.02-.99-1.03-.99-1.02-1-1.02-.99-1.02-.99-1.02-1-1.02-.99-1.02-.99-1.02-1-1.02-.99-1.02-.99-1.02-1-1.02-.99-1.02-.99-1.02-1-1.02-.99-1.02-.99-1.02-.99-1.03-1-1.02-.99-1.02-.99-1.02-1-1.02-.99-1.02-.99-1.02-1-1.02" style="stroke-width:1.07;stroke:#000000;stroke-opacity:0.10;stroke-linecap:butt"/><path d="m147.75 336.3.73-1.12.73-1.12.74-1.12.74-1.12.74-1.11.74-1.12.75-1.11.75-1.11.76-1.12.76-1.11.76-1.11.76-1.11.77-1.1.77-1.11.78-1.1.78-1.11.78-1.1.79-1.1.78-1.1.8-1.1.79-1.1.8-1.1.8-1.09.81-1.1.81-1.09.81-1.09.82-1.09.82-1.09.82-1.09.82-1.09.83-1.09.84-1.08.83-1.09.84-1.08.85-1.08.84-1.08.85-1.08.86-1.08.85-1.08.86-1.07.87-1.08.86-1.07.87-1.07.88-1.08.87-1.07.88-1.07.89-1.06.88-1.07.89-1.07.9-1.06.89-1.07.91-1.06.9-1.06.91-1.06.91-1.06.91-1.06.92-1.05.92-1.06.92-1.05.93-1.06.93-1.05.94-1.05.93-1.05.95-1.05.94-1.05.95-1.04.95-1.05.95-1.04.96-1.04.96-1.05.97-1.04.97-1.04.97-1.03.97-1.04.98-1.04.98-1.03.99-1.04.99-1.03.99-1.03.99-1.03 1-1.03 1.01-1.03 1-1.03 1.01-1.02 1.01-1.03 1.02-1.02 1.02-1.02 1.02-1.02 1.02-1.02 1.03-1.02 1.04-1.02 1.03-1.02 1.04-1.01 1.04-1.02 1.05-1.01 1.05-1.01 1.05-1.01 1.06-1.01 1.06-1.01M147.75 336.3l-1.09-.98-1.1-.98-1.1-.98-1.09-.98-1.09-.98-1.09-.99-1.08-.98-1.09-.98-1.08-.99-1.08-.99-1.08-.98-1.07-.99-1.08-.99-1.07-.99-1.07-.99-1.06-.99-1.07-1-1.06-.99-1.06-.99-1.06-1-1.05-1-1.06-.99-1.05-1-1.05-1-1.05-1-1.04-1-1.05-1-1.04-1-1.03-1-1.04-1.01-1.04-1-1.03-1.01-1.03-1-1.03-1.01-1.02-1.01-1.03-1.01-1.02-1.01-1.02-1.01-1.01-1.01-1.02-1.01-1.01-1.01-1.01-1.02-1.01-1.01-1.01-1.02-1-1.01-1-1.02-1-1.02-1-1.02-.99-1.02-1-1.02-.99-1.02-.99-1.02-.98-1.03-.99-1.02-.98-1.02-.98-1.03-.98-1.03-.98-1.02-.97-1.03-.97-1.03-.97-1.03-.97-1.03-.96-1.03-.97-1.04-.96-1.03-.96-1.03-.95-1.04-.96-1.03-.95-1.04-.95-1.04-.95-1.04-.94-1.04-.95-1.04-.94-1.04-.94-1.04-.93-1.04-.94-1.05-.93-1.04-.93-1.05-.93-1.04-.93-1.05-.92-1.05-.92-1.05-.92-1.05-.92-1.05-.91-1.05-.92-1.05-.91-1.05-.91-1.06-.9-1.05-.91-1.06-.9-1.05-.9-1.06-.9-1.06-.9-1.06-.89-1.06-.89-1.06-.89-1.06-.89-1.06" style="stroke-width:1.07;stroke:#000000;stroke-opacity:0.10;stroke-linecap:butt"/><path d="m147.75 336.3.62-1.16.63-1.15.62-1.16.64-1.15.64-1.15.64-1.15.65-1.15.66-1.14.66-1.15.67-1.14.68-1.14.68-1.13.68-1.14.69-1.13.7-1.14.7-1.12.71-1.13.71-1.13.72-1.12.72-1.12.73-1.13.74-1.11.74-1.12.75-1.11.75-1.12.76-1.11.76-1.11.77-1.1.78-1.11.78-1.1.79-1.1.79-1.1.8-1.1.8-1.09.81-1.1.81-1.09.82-1.09.83-1.09.83-1.08.84-1.09.84-1.08.85-1.08.86-1.08.86-1.07.86-1.08.87-1.07.88-1.07.88-1.07.89-1.06.89-1.07.9-1.06.91-1.06.91-1.06.91-1.06.93-1.05.92-1.06.94-1.05.94-1.05.94-1.05.95-1.04.96-1.05.96-1.04.97-1.04.97-1.04.98-1.03.98-1.04.99-1.03 1-1.03 1-1.03 1-1.02 1.02-1.03 1.01-1.02 1.03-1.02 1.03-1.02 1.03-1.02 1.04-1.01 1.05-1.01 1.05-1.02 1.06-1.01 1.06-1 1.07-1.01 1.07-1 1.08-1 1.09-1 1.09-1 1.1-1 1.1-.99 1.11-.99 1.11-.99 1.12-.99 1.13-.99 1.13-.98 1.13-.98 1.14-.98 1.15-.98 1.15-.98 1.16-.98 1.17-.97 1.17-.97M147.75 336.3l-1.2-.94-1.2-.94-1.2-.94-1.19-.94-1.19-.94-1.18-.95-1.18-.95-1.18-.95-1.17-.95-1.16-.95-1.16-.95-1.16-.96-1.16-.96-1.14-.96-1.15-.96-1.14-.96-1.14-.96-1.13-.97-1.12-.97-1.13-.97-1.12-.97-1.11-.97-1.11-.98-1.11-.97-1.1-.98-1.1-.98-1.09-.98-1.09-.99-1.08-.98-1.08-.99-1.08-.99-1.07-.99-1.06-.99-1.07-.99-1.05-1-1.06-.99-1.05-1-1.04-1-1.04-1-1.04-1.01-1.03-1-1.03-1.01-1.02-1.01-1.02-1.01-1.02-1.01-1.01-1.01-1-1.02-1.01-1.02-.99-1.02-1-1.02-.99-1.02-.98-1.02-.98-1.03-.98-1.03-.97-1.03-.97-1.03-.96-1.03-.96-1.03-.95-1.04-.95-1.04-.95-1.04-.94-1.04-.94-1.04-.93-1.04-.93-1.05-.92-1.05-.92-1.05-.92-1.05-.91-1.05-.9-1.06-.91-1.05-.89-1.06-.9-1.06-.89-1.06-.88-1.06-.88-1.07-.88-1.07-.87-1.06-.87-1.07-.86-1.08-.86-1.07-.86-1.07-.85-1.08-.84-1.08-.85-1.08-.83-1.08-.84-1.08-.83-1.09-.82-1.09-.82-1.09-.82-1.09-.81-1.09-.8-1.09-.81-1.1-.8-1.09-.79-1.1-.79-1.1-.79-1.11-.78-1.1" style="stroke-width:1.07;stroke:#000000;stroke-opacity:0.10;stroke-linecap:butt"/><path d="m147.75 336.3.51-1.2.52-1.19.52-1.19.53-1.19.54-1.18.54-1.18.56-1.18.56-1.18.57-1.18.58-1.17.58-1.17.6-1.16.6-1.17.61-1.16.62-1.16.62-1.15.63-1.16.65-1.15.64-1.14.66-1.15.67-1.14.67-1.14.68-1.14.69-1.13.69-1.13.71-1.13.71-1.13.72-1.12.73-1.12.73-1.12.75-1.12.75-1.11.76-1.11.77-1.11.77-1.1.78-1.11.8-1.1.79-1.09.81-1.1.82-1.09.82-1.09.83-1.08.84-1.09.84-1.08.86-1.08.86-1.07.87-1.07.88-1.07.89-1.07.89-1.07.9-1.06.91-1.06.92-1.05.92-1.06.94-1.05.94-1.05.95-1.04.95-1.05.97-1.04.97-1.04.98-1.03.99-1.03 1-1.03 1-1.03 1.01-1.03 1.02-1.02 1.03-1.02 1.04-1.01 1.04-1.02 1.05-1.01 1.06-1.01 1.07-1 1.08-1.01 1.08-1 1.09-1 1.1-.99 1.11-.99 1.11-.99 1.12-.99 1.13-.98 1.14-.99 1.15-.97 1.15-.98 1.17-.97 1.17-.98 1.17-.96 1.19-.97 1.19-.96 1.21-.96 1.21-.96 1.21-.96 1.23-.95 1.23-.95 1.24-.94 1.25-.95 1.26-.94 1.27-.94 1.27-.94 1.28-.93M147.75 336.3l-1.31-.89-1.3-.9-1.3-.9-1.29-.91-1.29-.9-1.28-.91-1.27-.91-1.26-.92-1.26-.91-1.26-.92-1.24-.92-1.24-.93-1.23-.92-1.23-.93-1.22-.93-1.22-.94-1.2-.93-1.2-.94-1.2-.94-1.19-.95-1.18-.94-1.17-.95-1.17-.95-1.16-.96-1.16-.96-1.15-.95-1.14-.97-1.14-.96-1.13-.97-1.12-.97-1.12-.97-1.11-.97-1.1-.98-1.1-.98-1.09-.98-1.08-.99-1.08-.99-1.07-.99-1.06-.99-1.06-.99-1.05-1-1.05-1-1.04-1-1.03-1.01-1.03-1.01-1.01-1.01-1.02-1.01-1-1.02-1-1.01-1-1.03-.98-1.02-.98-1.02-.98-1.03-.96-1.03-.97-1.04-.95-1.03-.95-1.04-.94-1.04-.93-1.05-.93-1.04-.92-1.05-.92-1.05-.91-1.06-.9-1.05-.9-1.06-.89-1.06-.88-1.07-.88-1.06-.87-1.07-.86-1.07-.86-1.08-.85-1.07-.84-1.08-.84-1.09-.83-1.08-.82-1.09-.82-1.09-.81-1.09-.81-1.09-.8-1.1-.79-1.1-.78-1.1-.78-1.11-.78-1.1-.76-1.11-.76-1.12-.76-1.11-.74-1.12-.74-1.12-.74-1.12-.72-1.13-.72-1.12-.72-1.13-.71-1.14-.7-1.13-.69-1.14-.69-1.14-.68-1.14-.68-1.15" style="stroke-width:1.07;stroke:#000000;stroke-opacity:0.10;stroke-linecap:butt"/><path d="m147.75 336.3.4-1.23.41-1.23.41-1.23.43-1.22.44-1.22.44-1.22.46-1.21.47-1.21.48-1.21.48-1.2.5-1.2.51-1.19.52-1.2.53-1.18.53-1.19.55-1.18.56-1.18.57-1.17.58-1.18.59-1.16.6-1.17.61-1.16.62-1.16.63-1.15.64-1.15.65-1.15.66-1.14.67-1.14.68-1.14.69-1.13.7-1.13.71-1.13.72-1.12.73-1.12.74-1.12.76-1.11.76-1.11.77-1.11.78-1.1.79-1.1.81-1.1.81-1.09.82-1.09.83-1.08.85-1.09.85-1.07.86-1.08.88-1.07.88-1.07.89-1.06.91-1.06.91-1.06.93-1.06.93-1.05.95-1.05.95-1.04.97-1.04.97-1.04.99-1.03.99-1.03 1.01-1.03 1.01-1.02 1.03-1.02 1.03-1.02 1.05-1.01 1.06-1.01 1.06-1.01 1.08-1 1.09-1 1.09-1 1.11-.99 1.12-.99 1.12-.98 1.14-.98 1.15-.98 1.16-.98 1.17-.97 1.17-.97 1.19-.96 1.2-.97 1.21-.95 1.22-.96 1.23-.95 1.23-.95 1.25-.94 1.26-.94 1.27-.94 1.28-.93 1.29-.93 1.3-.93 1.31-.92 1.32-.92 1.33-.92 1.34-.91 1.35-.91 1.37-.91 1.37-.9 1.38-.9 1.39-.9M147.75 336.3l-1.41-.85-1.41-.86-1.4-.86-1.39-.87-1.38-.86-1.38-.87-1.36-.88-1.36-.88-1.35-.88-1.34-.88-1.33-.89-1.32-.89-1.31-.9-1.31-.89-1.29-.91-1.29-.9-1.28-.91-1.27-.91-1.26-.92-1.26-.91-1.24-.93-1.23-.92-1.23-.93-1.22-.93-1.21-.94-1.2-.94-1.19-.94-1.19-.95-1.17-.95-1.17-.95-1.16-.95-1.14-.96-1.14-.97-1.14-.96-1.12-.97-1.11-.97-1.11-.98-1.1-.98-1.08-.98-1.08-.99-1.08-.99-1.06-.99-1.05-1-1.05-1-1.03-1.01-1.03-1-1.02-1.01-1.01-1.02-1-1.01-1-1.02-.98-1.03-.98-1.03-.96-1.03-.96-1.03-.95-1.04-.94-1.04-.94-1.04-.92-1.05-.92-1.05-.9-1.06-.9-1.06-.89-1.06-.88-1.06-.87-1.07-.87-1.07-.85-1.08-.85-1.07-.84-1.09-.82-1.08-.82-1.09-.82-1.09-.8-1.1-.79-1.1-.79-1.1-.78-1.1-.76-1.11-.76-1.12-.75-1.11-.75-1.12-.73-1.12-.73-1.13-.71-1.13-.71-1.13-.7-1.14-.69-1.14-.68-1.14-.67-1.15-.67-1.15-.66-1.15-.64-1.16-.64-1.16-.63-1.16-.62-1.17-.61-1.17-.61-1.17-.59-1.18-.59-1.18-.58-1.18-.57-1.19" style="stroke-width:1.07;stroke:#000000;stroke-opacity:0.10;stroke-linecap:butt"/><path d="m147.75 336.3.29-1.27.3-1.27.31-1.26.32-1.26.34-1.25.34-1.25.37-1.25.37-1.24.38-1.24.4-1.23.41-1.23.42-1.22.44-1.22.44-1.22.46-1.21.47-1.21.49-1.2.5-1.2.5-1.2.53-1.19.53-1.18.55-1.19.55-1.18.58-1.17.58-1.17.6-1.17.6-1.16.62-1.15.64-1.16.64-1.15.66-1.14.67-1.14.68-1.14.7-1.13.71-1.13.72-1.12.73-1.12.74-1.12.76-1.11.77-1.1.78-1.11.8-1.09.8-1.1.82-1.09.84-1.08.84-1.09.86-1.07.87-1.08.88-1.07.89-1.06.91-1.06.92-1.06.93-1.05.94-1.05.96-1.04.96-1.04.98-1.04 1-1.03 1-1.02 1.02-1.03 1.03-1.02 1.04-1.01 1.06-1.01 1.07-1.01 1.08-1 1.09-.99 1.1-1 1.12-.99 1.13-.98 1.14-.98 1.16-.98 1.16-.97 1.18-.97 1.19-.96 1.21-.96 1.21-.96 1.23-.95 1.25-.95 1.25-.94 1.26-.94 1.28-.93 1.29-.93 1.31-.93 1.31-.92 1.33-.92 1.34-.91 1.36-.91 1.36-.9 1.38-.9 1.39-.9 1.4-.89 1.42-.89 1.42-.88 1.44-.88 1.46-.88 1.46-.87 1.48-.87 1.49-.86 1.5-.86M147.75 336.3l-1.52-.81-1.51-.82-1.5-.82-1.49-.82-1.48-.83-1.47-.84-1.46-.83-1.45-.85-1.43-.84-1.43-.85-1.42-.86-1.4-.86-1.39-.86-1.39-.87-1.37-.87-1.36-.88-1.35-.88-1.34-.88-1.33-.89-1.31-.89-1.31-.9-1.3-.9-1.28-.91-1.28-.91-1.26-.91-1.25-.92-1.24-.92-1.24-.93-1.22-.93-1.21-.94-1.19-.94-1.19-.94-1.18-.95-1.17-.95-1.15-.96-1.15-.96-1.13-.97-1.12-.97-1.12-.97-1.1-.98-1.09-.98-1.08-.99-1.07-.99-1.05-.99-1.05-1-1.04-1.01-1.02-1-1.02-1.02-1-1.01-1-1.02-.98-1.03-.97-1.03-.96-1.03-.95-1.04-.94-1.04-.93-1.05-.92-1.05-.9-1.05-.9-1.06-.88-1.06-.88-1.07-.86-1.07-.85-1.08-.85-1.08-.83-1.08-.82-1.09-.81-1.09-.8-1.1-.78-1.1-.78-1.11-.77-1.11-.75-1.11-.75-1.12-.73-1.12-.72-1.13-.71-1.13-.71-1.14-.69-1.14-.68-1.14-.66-1.15-.66-1.15-.65-1.16-.64-1.16-.62-1.16-.62-1.17-.6-1.18-.59-1.17-.59-1.19-.57-1.18-.56-1.19-.55-1.2-.54-1.2-.53-1.2-.51-1.21-.51-1.21-.5-1.22-.48-1.22-.47-1.22-.47-1.23m335.9-78.69-1.59.69-1.58.68-1.58.69-1.58.7-1.58.69-1.57.69-1.58.7-1.57.69-1.57.7-1.57.7-1.57.7-1.56.7-1.57.71-1.56.7-1.56.71-1.56.7-1.56.71-1.56.71-1.55.71-1.56.71-1.55.72-1.55.71-1.55.72-1.54.72-1.55.71-1.54.72-1.55.72-1.54.73-1.54.72-1.53.73-1.54.72-1.54.73-1.53.73-1.53.73-1.53.73-1.53.73-1.52.74-1.53.73-1.52.74-1.52.74-1.52.74-1.52.74-1.52.74-1.51.74-1.52.74-1.51.75-1.51.75-1.51.75-1.51.75-1.5.75-1.51.75-1.5.75-1.5.76-1.5.75-1.5.76-1.5.76-1.49.76-1.49.76-1.49.76-1.49.76-1.49.77-1.49.77-1.49.76-1.48.77-1.48.77-1.48.77-1.48.78-1.48.77-1.47.77-1.48.78-1.47.78-1.47.78-1.47.78-1.47.78-1.46.78-1.47.79-1.46.78-1.46.79-1.46.79-1.46.79-1.46.79-1.45.79-1.45.79-1.46.8-1.45.79-1.44.8-1.45.8-1.45.8-1.44.8-1.44.8-1.44.81-1.44.8-1.44.81-1.44.8-1.43.81-1.43.81-1.43.81-1.43.82-1.43.81" style="stroke-width:1.07;stroke:#000000;stroke-opacity:0.10;stroke-linecap:butt"/><path d="m385.32 156.57-1.51.75-1.5.75-1.51.75-1.51.75-1.5.75-1.51.75-1.5.75-1.51.75-1.51.75-1.5.76-1.51.75-1.5.75-1.51.75-1.5.75-1.51.75-1.51.75-1.5.75-1.51.75-1.5.75-1.51.75-1.51.75-1.5.75-1.51.75-1.5.76-1.51.75-1.5.75-1.51.75-1.51.75-1.5.75-1.51.75-1.5.75-1.51.75-1.51.75-1.5.75-1.51.75-1.5.75-1.51.76-1.5.75-1.51.75-1.51.75-1.5.75-1.51.75-1.5.75-1.51.75-1.51.75-1.5.75-1.51.75-1.5.75-1.51.75-1.5.75-1.51.76-1.51.75-1.5.75-1.51.75-1.5.75-1.51.75-1.51.75-1.5.75-1.51.75-1.5.75-1.51.75-1.51.75-1.5.75-1.51.75-1.5.76-1.51.75-1.5.75-1.51.75-1.51.75-1.5.75-1.51.75-1.5.75-1.51.75-1.51.75-1.5.75-1.51.75-1.5.75-1.51.76-1.5.75-1.51.75-1.51.75-1.5.75-1.51.75-1.5.75-1.51.75-1.51.75-1.5.75-1.51.75-1.5.75-1.51.75-1.5.75-1.51.76-1.51.75-1.5.75-1.51.75-1.5.75-1.51.75-1.51.75-1.5.75M147.75 336.3l-.14 1.21-.14 1.22-.14 1.21-.15 1.21-.14 1.22-.14 1.21-.14 1.21-.15 1.21-.14 1.22-.14 1.21-.14 1.21-.15 1.22-.14 1.21-.14 1.21-.14 1.21-.15 1.22-.14 1.21-.14 1.21-.14 1.22-.15 1.21-.14 1.21-.14 1.22-.14 1.21-.15 1.21-.14 1.21-.14 1.22-.14 1.21-.15 1.21-.14 1.22-.14 1.21-.14 1.21-.15 1.21-.14 1.22-.14 1.21-.14 1.21-.15 1.22-.14 1.21-.14 1.21-.14 1.22-.15 1.21-.14 1.21-.14 1.21-.14 1.22-.15 1.21-.14 1.21-.14 1.22-.14 1.21-.15 1.21-.14 1.21-.14 1.22-.14 1.21-.15 1.21-.14 1.22-.14 1.21-.14 1.21-.15 1.22-.14 1.21-.14 1.21-.14 1.21-.15 1.22-.14 1.21-.14 1.21-.14 1.22-.15 1.21-.14 1.21-.14 1.21-.14 1.22-.15 1.21-.14 1.21-.14 1.22-.14 1.21-.15 1.21-.14 1.22-.14 1.21-.14 1.21-.15 1.21-.14 1.22-.14 1.21-.14 1.21-.15 1.22-.14 1.21-.14 1.21-.14 1.21-.15 1.22-.14 1.21-.14 1.21-.14 1.22-.15 1.21-.14 1.21-.14 1.22-.14 1.21-.15 1.21-.14 1.21-.14 1.22-.14 1.21-.15 1.21-.14 1.22-.14 1.21-.14 1.21m14.1-120.08-1.62-.77-1.62-.78-1.6-.78-1.59-.78-1.58-.79-1.57-.8-1.55-.8-1.54-.81-1.52-.81-1.51-.82-1.5-.82-1.49-.82-1.47-.84-1.46-.83-1.45-.84-1.43-.85-1.43-.85-1.4-.86-1.4-.86-1.38-.87-1.37-.87-1.36-.88-1.34-.89-1.33-.88-1.32-.9-1.31-.89-1.29-.91-1.28-.91-1.26-.91-1.25-.92-1.24-.92-1.23-.93-1.22-.93-1.2-.94-1.18-.95-1.18-.95-1.16-.95-1.15-.96-1.14-.97-1.12-.96-1.11-.98-1.1-.98-1.08-.98-1.07-.99-1.06-1-1.04-1-1.04-1-1.02-1.02-1-1.01-1-1.02-.98-1.03-.96-1.03-.96-1.03-.94-1.04-.93-1.05-.91-1.05-.9-1.06-.89-1.06-.88-1.07-.86-1.07-.85-1.07-.84-1.09-.83-1.08-.81-1.1-.8-1.09-.78-1.1-.78-1.11-.76-1.11-.74-1.12-.74-1.12-.72-1.13-.7-1.14-.7-1.13-.68-1.15-.67-1.14-.66-1.16-.64-1.16-.63-1.16-.61-1.17-.61-1.17-.59-1.18-.58-1.18-.56-1.19-.55-1.2-.54-1.2-.53-1.2-.51-1.21-.5-1.21-.49-1.22-.47-1.23-.47-1.23-.44-1.23-.44-1.24-.42-1.25-.41-1.25-.4-1.25-.38-1.26-.37-1.27-.36-1.27" style="stroke-width:1.07;stroke:#000000;stroke-opacity:0.10;stroke-linecap:butt"/><path d="m385.32 156.57-1.43.81-1.43.81-1.43.82-1.43.81-1.44.8-1.43.81-1.44.81-1.44.8-1.44.81-1.44.8-1.45.8-1.44.8-1.45.8-1.45.8-1.45.79-1.45.8-1.45.79-1.46.79-1.45.79-1.46.79-1.46.79-1.46.79-1.47.78-1.46.79-1.47.78-1.46.78-1.47.78-1.47.78-1.48.78-1.47.77-1.48.78-1.47.77-1.48.78-1.48.77-1.49.77-1.48.77-1.48.76-1.49.77-1.49.76-1.49.77-1.49.76-1.49.76-1.5.76-1.49.76-1.5.76-1.5.75-1.5.76-1.51.75-1.5.75-1.51.75-1.5.75-1.51.75-1.51.75-1.52.74-1.51.75-1.51.74-1.52.74-1.52.74-1.52.74-1.52.74-1.53.74-1.52.73-1.53.74-1.52.73-1.53.73-1.54.73-1.53.73-1.53.73-1.54.72-1.54.73-1.54.72-1.54.72-1.54.72-1.54.72-1.55.72-1.55.72-1.55.72-1.55.71-1.55.71-1.55.72-1.56.71-1.55.71-1.56.7-1.56.71-1.56.71-1.57.7-1.56.7-1.57.71-1.56.7-1.57.7-1.58.69-1.57.7-1.57.7-1.58.69-1.58.69-1.57.69-1.59.69-1.58.69-1.58.69m-186.82 4.37 1.92.51 1.92.5 1.92.49 1.91.47 1.92.47 1.92.45 1.91.44 1.92.43 1.91.42 1.91.41 1.92.4 1.91.38 1.91.38 1.91.36 1.91.35 1.91.34 1.91.33 1.91.32 1.9.3 1.91.3 1.91.28 1.9.28 1.91.26 1.9.25 1.9.23 1.91.23 1.9.22 1.9.2 1.9.2 1.9.18 1.9.17 1.9.16 1.9.15 1.89.13 1.9.13 1.9.11 1.89.1 1.9.1 1.89.08 1.9.07 1.89.05 1.89.05 1.89.03 1.89.03 1.89.01h1.89l1.89-.01 1.89-.02 1.89-.03 1.89-.05 1.88-.05 1.89-.07 1.88-.08 1.89-.09 1.88-.1 1.88-.11 1.89-.12 1.88-.14 1.88-.14 1.88-.16 1.88-.17 1.88-.18 1.88-.19 1.88-.2 1.87-.22 1.88-.22 1.88-.24 1.87-.24 1.88-.26 1.87-.27 1.87-.29 1.88-.29 1.87-.3 1.87-.32 1.87-.32 1.87-.34 1.87-.35 1.87-.36 1.87-.37 1.86-.39 1.87-.39 1.87-.41 1.86-.42 1.87-.42 1.86-.44 1.86-.46 1.87-.46 1.86-.47 1.86-.49 1.86-.49 1.86-.51 1.86-.52 1.86-.53 1.86-.54 1.85-.55 1.86-.57 1.86-.57 1.85-.59 1.86-.6" style="stroke-width:1.07;stroke:#000000;stroke-opacity:0.10;stroke-linecap:butt"/><path d="m49.42 235.26 1.92.43 1.91.42 1.91.41 1.92.4 1.91.4 1.91.38 1.91.37 1.91.36 1.91.36 1.91.34 1.91.33 1.91.33 1.91.31 1.9.31 1.91.29 1.91.29 1.9.27 1.91.27 1.9.26 1.91.24 1.9.24 1.9.23 1.9.21 1.91.21 1.9.2 1.9.19 1.9.18 1.9.17 1.9.16 1.89.15 1.9.14 1.9.13 1.9.12 1.89.11 1.9.1 1.89.09 1.9.08 1.89.07 1.89.07 1.9.05 1.89.04 1.89.04 1.89.02 1.89.01 1.89.01 1.89-.01 1.89-.01 1.89-.03 1.88-.03 1.89-.05 1.89-.05 1.88-.06 1.89-.08 1.88-.08 1.89-.09 1.88-.1 1.89-.12 1.88-.12 1.88-.13 1.88-.14 1.88-.15 1.88-.16 1.88-.17 1.88-.18 1.88-.19 1.88-.2 1.88-.21 1.87-.22 1.88-.23 1.87-.23 1.88-.25 1.87-.26 1.88-.27 1.87-.27 1.87-.29 1.88-.29 1.87-.31 1.87-.32 1.87-.32 1.87-.34 1.87-.34 1.87-.35 1.87-.37 1.87-.37 1.86-.39 1.87-.39 1.87-.4 1.86-.41 1.87-.43 1.86-.43 1.87-.44 1.86-.45 1.86-.46 1.87-.47 1.86-.48 1.86-.49 1.86-.5 1.86-.51 1.86-.52" style="stroke-width:1.07;stroke:#000000;stroke-opacity:0.10;stroke-linecap:butt"/><path d="m49.42 235.26 1.91.35 1.91.35 1.91.33 1.91.33 1.91.32 1.91.31 1.9.3 1.91.3 1.91.28 1.9.28 1.91.27 1.9.27 1.91.25 1.9.25 1.9.24 1.91.23 1.9.22 1.9.21 1.9.21 1.9.2 1.9.19 1.9.18 1.9.17 1.9.17 1.9.16 1.9.15 1.9.14 1.89.13 1.9.13 1.9.11 1.89.11 1.9.1 1.89.1 1.9.08 1.89.08 1.9.07 1.89.06 1.89.05 1.89.05 1.9.03 1.89.03 1.89.02 1.89.02h3.78l1.89-.02 1.88-.02 1.89-.02 1.89-.04 1.89-.04 1.88-.06 1.89-.06 1.89-.06 1.88-.08 1.89-.09 1.88-.09 1.88-.1 1.89-.11 1.88-.11 1.88-.13 1.88-.13 1.88-.14 1.89-.15 1.88-.16 1.88-.17 1.88-.17 1.87-.18 1.88-.19 1.88-.2 1.88-.2 1.88-.22 1.87-.22 1.88-.23 1.88-.24 1.87-.24 1.88-.26 1.87-.26 1.87-.27 1.88-.28 1.87-.28 1.87-.3 1.88-.3 1.87-.31 1.87-.32 1.87-.33 1.87-.33 1.87-.34 1.87-.36 1.87-.35 1.86-.37 1.87-.38 1.87-.38 1.87-.39 1.86-.4 1.87-.41 1.86-.41 1.87-.43 1.86-.43 1.87-.44" style="stroke-width:1.07;stroke:#000000;stroke-opacity:0.10;stroke-linecap:butt"/><path d="m49.42 235.26 1.91.27 1.9.27 1.91.26 1.9.25 1.91.25 1.9.24 1.9.23 1.9.23 1.91.22 1.9.21 1.9.21 1.9.2 1.9.2 1.9.19 1.9.18 1.9.17 1.9.17 1.9.17 1.9.15 1.9.15 1.9.14 1.89.14 1.9.13 1.9.13 1.89.11 1.9.11 1.9.11 1.89.1 1.9.09 1.89.08 1.89.08 1.9.07 1.89.07 1.89.06 1.9.05 1.89.05 1.89.04 1.89.03 1.89.03 1.9.02 1.89.01 1.89.01h3.77l1.89-.02 1.89-.01 1.89-.03 1.89-.03 1.89-.04 1.88-.04 1.89-.05 1.89-.06 1.88-.06 1.89-.07 1.88-.08 1.89-.08 1.88-.09 1.89-.1 1.88-.1 1.88-.11 1.89-.11 1.88-.13 1.88-.12 1.88-.14 1.88-.14 1.88-.15 1.88-.15 1.88-.16 1.88-.17 1.88-.17 1.88-.18 1.88-.19 1.88-.19 1.88-.2 1.88-.21 1.87-.21 1.88-.22 1.88-.22 1.87-.23 1.88-.24 1.87-.25 1.88-.25 1.87-.25 1.88-.27 1.87-.27 1.88-.27 1.87-.29 1.87-.29 1.87-.29 1.88-.31 1.87-.3 1.87-.32 1.87-.32 1.87-.33 1.87-.34 1.87-.34 1.87-.34 1.87-.36 1.87-.36" style="stroke-width:1.07;stroke:#000000;stroke-opacity:0.10;stroke-linecap:butt"/><path d="m49.42 235.26 1.9.19 1.9.19 1.9.19 1.9.17 1.9.18 1.9.17 1.9.16 1.9.16 1.9.16 1.9.14 1.9.15 1.89.14 1.9.13 1.9.14 1.89.12 1.9.12 1.9.12 1.89.11 1.9.1 1.89.11 1.9.09 1.89.09 1.9.09 1.89.08 1.9.08 1.89.07 1.9.07 1.89.06 1.89.06 1.89.05 1.9.05 1.89.04 1.89.04 1.89.03 1.89.03 1.89.03 1.89.01 1.89.02 1.89.01h5.67l1.89-.01 1.89-.02 1.89-.02 1.89-.02 1.89-.03 1.88-.04 1.89-.04 1.89-.04 1.88-.05 1.89-.05 1.89-.06 1.88-.07 1.89-.06 1.88-.08 1.89-.08 1.88-.08 1.89-.09 1.88-.09 1.89-.1 1.88-.1 1.88-.11 1.89-.11 1.88-.11 1.88-.13 1.88-.12 1.89-.13 1.88-.14 1.88-.14 1.88-.15 1.88-.15 1.88-.15 1.88-.16 1.88-.17 1.88-.17 1.88-.17 1.88-.18 1.88-.19 1.88-.19 1.88-.19 1.87-.2 1.88-.21 1.88-.2 1.88-.22 1.87-.22 1.88-.22 1.88-.23 1.87-.23 1.88-.24 1.87-.24 1.88-.25 1.87-.25 1.88-.26 1.87-.26 1.88-.27 1.87-.27 1.88-.28 1.87-.28" style="stroke-width:1.07;stroke:#000000;stroke-opacity:0.10;stroke-linecap:butt"/><path d="m49.42 235.26 1.9.11 1.89.12 1.9.1 1.9.11 1.89.1 1.9.1 1.89.09 1.9.09 1.89.09 1.9.09 1.89.08 1.89.08 1.9.07 1.89.07 1.9.07 1.89.07 1.89.06 1.9.06 1.89.06 1.89.05 1.89.05 1.9.05 1.89.04 1.89.04 1.89.03 1.89.04 1.89.03 1.9.03 1.89.02 1.89.02 1.89.02 1.89.01 1.89.01 1.89.01h7.56l1.89-.01 1.88-.01 1.89-.02 1.89-.02 1.89-.02 1.89-.02 1.89-.03 1.88-.03 1.89-.04 1.89-.03 1.89-.05 1.88-.04 1.89-.05 1.89-.05 1.88-.05 1.89-.06 1.89-.06 1.88-.06 1.89-.07 1.88-.07 1.89-.07 1.88-.08 1.89-.08 1.88-.08 1.89-.09 1.88-.09 1.89-.09 1.88-.1 1.88-.09 1.89-.11 1.88-.1 1.88-.11 1.89-.11 1.88-.12 1.88-.12 1.89-.12 1.88-.12 1.88-.13 1.88-.13 1.88-.14 1.89-.13 1.88-.15 1.88-.14 1.88-.15 1.88-.15 1.88-.15 1.88-.16 1.88-.16 1.88-.16 1.88-.17 1.88-.17 1.88-.17 1.88-.18 1.88-.18 1.88-.18 1.88-.19 1.88-.19 1.87-.19 1.88-.2 1.88-.2 1.88-.2" style="stroke-width:1.07;stroke:#000000;stroke-opacity:0.10;stroke-linecap:butt"/><path d="m49.42 235.26 1.89.04 1.9.03 1.89.03 1.89.03 1.89.03 1.89.03 1.89.02 1.89.02 1.89.03 1.89.02 1.9.02 1.89.01 1.89.02 1.89.01 1.89.02 1.89.01 1.89.01h1.89l1.89.01h1.89l1.89.01h3.78l1.89-.01h3.77l1.89-.01 1.89-.01 1.89-.01 1.89-.01 1.89-.02 1.89-.01 1.89-.02 1.88-.02 1.89-.02 1.89-.02 1.89-.02 1.89-.03 1.89-.02 1.88-.03 1.89-.03 1.89-.03 1.89-.03 1.89-.04 1.88-.03 1.89-.04 1.89-.04 1.88-.04 1.89-.04 1.89-.05 1.89-.04 1.88-.05 1.89-.05 1.89-.05 1.88-.05 1.89-.06 1.89-.05 1.88-.06 1.89-.06 1.88-.06 1.89-.06 1.89-.06 1.88-.07 1.89-.07 1.88-.06 1.89-.07 1.88-.08 1.89-.07 1.88-.07 1.89-.08 1.88-.08 1.89-.08 1.88-.08 1.89-.08 1.88-.09 1.89-.08 1.88-.09 1.89-.09 1.88-.09 1.89-.09 1.88-.1 1.88-.09 1.89-.1 1.88-.1 1.89-.1 1.88-.1 1.88-.11 1.89-.1 1.88-.11 1.88-.11 1.89-.11 1.88-.11 1.88-.11 1.89-.12 1.88-.12 1.88-.11 1.88-.12 1.89-.13 1.88-.12" style="stroke-width:1.07;stroke:#000000;stroke-opacity:0.10;stroke-linecap:butt"/><path d="m49.42 235.26 1.89-.04 1.89-.05 1.88-.04 1.89-.05 1.89-.04 1.88-.04 1.89-.05 1.89-.04 1.89-.05 1.88-.04 1.89-.05 1.89-.04 1.88-.04 1.89-.05 1.89-.04 1.88-.05 1.89-.04 1.89-.04 1.89-.05 1.88-.04 1.89-.05 1.89-.04 1.88-.05 1.89-.04 1.89-.04 1.89-.05 1.88-.04 1.89-.05 1.89-.04 1.88-.04 1.89-.05 1.89-.04 1.88-.05 1.89-.04 1.89-.04 1.89-.05 1.88-.04 1.89-.05 1.89-.04 1.88-.05 1.89-.04 1.89-.04 1.88-.05 1.89-.04 1.89-.05 1.89-.04 1.88-.04 1.89-.05 1.89-.04 1.88-.05 1.89-.04 1.89-.04 1.89-.05 1.88-.04 1.89-.05 1.89-.04 1.88-.05 1.89-.04 1.89-.04 1.88-.05 1.89-.04 1.89-.05 1.89-.04 1.88-.04 1.89-.05 1.89-.04 1.88-.05 1.89-.04 1.89-.05 1.88-.04 1.89-.04 1.89-.05 1.89-.04 1.88-.05 1.89-.04 1.89-.04 1.88-.05 1.89-.04 1.89-.05 1.89-.04 1.88-.04 1.89-.05 1.89-.04 1.88-.05 1.89-.04 1.89-.05 1.88-.04 1.89-.04 1.89-.05 1.89-.04 1.88-.05 1.89-.04 1.89-.04 1.88-.05 1.89-.04 1.89-.05 1.88-.04 1.89-.05 1.89-.04" style="stroke-width:1.07;stroke:#000000;stroke-opacity:0.10;stroke-linecap:butt"/><path d="m49.42 235.26 1.88-.12 1.89-.12 1.88-.12 1.88-.12 1.89-.12 1.88-.12 1.88-.11 1.88-.11 1.89-.11 1.88-.11 1.88-.11 1.89-.1 1.88-.11 1.89-.1 1.88-.1 1.88-.1 1.89-.1 1.88-.09 1.88-.1 1.89-.09 1.88-.09 1.89-.09 1.88-.09 1.89-.08 1.88-.09 1.89-.08 1.88-.08 1.89-.08 1.88-.08 1.89-.08 1.88-.07 1.89-.07 1.88-.08 1.89-.07 1.88-.06 1.89-.07 1.89-.07 1.88-.06 1.89-.06 1.88-.06 1.89-.06 1.89-.06 1.88-.05 1.89-.06 1.89-.05 1.88-.05 1.89-.05 1.89-.05 1.88-.04 1.89-.05 1.89-.04 1.88-.04 1.89-.04 1.89-.04 1.89-.03 1.88-.04 1.89-.03 1.89-.03 1.89-.03 1.88-.03 1.89-.02 1.89-.03 1.89-.02 1.89-.02 1.89-.02 1.88-.02 1.89-.02 1.89-.01 1.89-.02 1.89-.01 1.89-.01 1.89-.01h1.89l1.89-.01h1.89l1.89-.01h3.77l1.89.01h1.89l1.89.01 1.89.01h1.89l1.89.02 1.89.01 1.89.01 1.9.02 1.89.01 1.89.02 1.89.02 1.89.03 1.89.02 1.89.02 1.89.03 1.89.03 1.89.03 1.9.03 1.89.04 1.89.03" style="stroke-width:1.07;stroke:#000000;stroke-opacity:0.10;stroke-linecap:butt"/><path d="m49.42 235.26 1.88-.2 1.88-.2 1.88-.2 1.87-.19 1.88-.19 1.88-.19 1.88-.18 1.88-.18 1.88-.18 1.88-.17 1.88-.17 1.88-.17 1.88-.16 1.88-.16 1.88-.16 1.88-.15 1.88-.15 1.88-.15 1.88-.14 1.89-.14 1.88-.14 1.88-.14 1.88-.13 1.88-.13 1.89-.12 1.88-.12 1.88-.12 1.88-.12 1.89-.11 1.88-.11 1.88-.1 1.89-.11 1.88-.09 1.88-.1 1.89-.09 1.88-.09 1.89-.09 1.88-.08 1.89-.08 1.88-.08 1.89-.07 1.88-.07 1.89-.07 1.89-.06 1.88-.06 1.89-.06 1.88-.05 1.89-.05 1.89-.05 1.88-.04 1.89-.04 1.89-.04 1.89-.04 1.88-.03 1.89-.03 1.89-.02 1.89-.02 1.89-.02 1.89-.02 1.89-.01 1.88-.01h7.56l1.89.01 1.89.01 1.89.01 1.89.02 1.89.02 1.9.03 1.89.02 1.89.03 1.89.04 1.89.03 1.89.04 1.9.05 1.89.04 1.89.05 1.89.05 1.9.06 1.89.06 1.89.06 1.9.07 1.89.07 1.89.07 1.9.07 1.89.08 1.9.08 1.89.09 1.89.09 1.9.09 1.89.09 1.9.1 1.89.1 1.9.11 1.9.11 1.89.11 1.9.11" style="stroke-width:1.07;stroke:#000000;stroke-opacity:0.10;stroke-linecap:butt"/><path d="m49.42 235.26 1.88-.28 1.87-.28 1.87-.27 1.88-.27 1.87-.26 1.88-.26 1.87-.25 1.88-.25 1.87-.24 1.88-.24 1.87-.23 1.88-.23 1.88-.22 1.87-.22 1.88-.21 1.88-.21 1.88-.21 1.87-.2 1.88-.19 1.88-.19 1.88-.19 1.88-.17 1.88-.18 1.88-.17 1.88-.17 1.88-.16 1.88-.15 1.88-.15 1.88-.15 1.88-.14 1.88-.14 1.89-.13 1.88-.12 1.88-.12 1.88-.12 1.89-.11 1.88-.11 1.88-.1 1.89-.1 1.88-.09 1.89-.09 1.88-.08 1.89-.08 1.88-.07 1.89-.07 1.88-.07 1.89-.06 1.89-.05 1.88-.05 1.89-.04 1.89-.04 1.89-.04 1.88-.03 1.89-.02 1.89-.02 1.89-.02 1.89-.01h5.67l1.89.01 1.89.02 1.89.01 1.89.03 1.89.03 1.89.03 1.89.04 1.89.04 1.9.05 1.89.05 1.89.06 1.9.06 1.89.07 1.89.07 1.9.08 1.89.08 1.9.09 1.89.09 1.9.1 1.89.1 1.9.1 1.89.11 1.9.12 1.9.12 1.89.13 1.9.13 1.9.13 1.9.14 1.89.15 1.9.15 1.9.15 1.9.16 1.9.16 1.9.17 1.9.18 1.9.18 1.9.18 1.9.19 1.9.19" style="stroke-width:1.07;stroke:#000000;stroke-opacity:0.10;stroke-linecap:butt"/><path d="m49.42 235.26 1.87-.36 1.87-.35 1.87-.35 1.87-.34 1.87-.34 1.87-.33 1.87-.32 1.87-.31 1.87-.31 1.88-.31 1.87-.29 1.87-.29 1.87-.29 1.88-.27 1.87-.27 1.88-.27 1.87-.25 1.88-.25 1.87-.25 1.88-.24 1.87-.23 1.88-.22 1.88-.22 1.87-.21 1.88-.21 1.88-.2 1.88-.19 1.88-.19 1.88-.18 1.88-.17 1.88-.17 1.88-.16 1.88-.15 1.88-.15 1.88-.14 1.88-.13 1.88-.13 1.89-.12 1.88-.12 1.88-.11 1.89-.1 1.88-.1 1.88-.09 1.89-.08 1.88-.08 1.89-.07 1.89-.06 1.88-.06 1.89-.05 1.89-.04 1.88-.04 1.89-.03 1.89-.02 1.89-.02 1.89-.01 1.89-.01h1.89l1.89.01 1.89.01 1.89.02 1.89.03 1.89.03 1.89.04 1.89.05 1.9.05 1.89.06 1.89.07 1.9.07 1.89.08 1.89.08 1.9.09 1.9.1 1.89.11 1.9.11 1.89.12 1.9.12 1.9.13 1.89.14 1.9.14 1.9.15 1.9.16 1.9.16 1.9.17 1.9.17 1.9.18 1.9.19 1.9.2 1.9.2 1.9.21 1.9.21 1.91.22 1.9.23 1.9.23 1.91.24 1.9.25 1.9.25 1.91.26 1.9.27 1.91.27" style="stroke-width:1.07;stroke:#000000;stroke-opacity:0.10;stroke-linecap:butt"/><path d="m49.42 235.26 1.87-.44 1.86-.43 1.87-.43 1.86-.41 1.87-.41 1.86-.4 1.87-.39 1.87-.38 1.87-.38 1.86-.36 1.87-.36 1.87-.35 1.87-.35 1.87-.33 1.87-.33 1.87-.32 1.88-.31 1.87-.3 1.87-.3 1.87-.28 1.88-.28 1.87-.27 1.88-.26 1.87-.26 1.88-.24 1.87-.24 1.88-.23 1.87-.22 1.88-.22 1.88-.2 1.88-.2 1.88-.19 1.88-.18 1.87-.17 1.88-.17 1.89-.16 1.88-.15 1.88-.14 1.88-.13 1.88-.12 1.88-.12 1.89-.11 1.88-.1 1.89-.09 1.88-.09 1.89-.07 1.88-.07 1.89-.06 1.88-.06 1.89-.04 1.89-.04 1.89-.02 1.89-.02 1.88-.02h1.89l1.89.01 1.89.01 1.89.02 1.9.03 1.89.03 1.89.05 1.89.05 1.9.06 1.89.07 1.89.08 1.9.08 1.89.1 1.9.1 1.89.11 1.9.11 1.9.13 1.89.13 1.9.14 1.9.15 1.9.16 1.9.17 1.9.17 1.9.18 1.9.19 1.9.2 1.9.21 1.9.21 1.91.22 1.9.24 1.9.23 1.91.25 1.9.25 1.9.27 1.91.27 1.91.28 1.9.28 1.91.3 1.91.3 1.9.31 1.91.32 1.91.33 1.91.34 1.91.34 1.91.35" style="stroke-width:1.07;stroke:#000000;stroke-opacity:0.10;stroke-linecap:butt"/><path d="m49.42 235.26 1.86-.52 1.86-.51 1.86-.5 1.86-.49 1.87-.48 1.86-.47 1.86-.46 1.86-.45 1.87-.44 1.86-.43 1.87-.43 1.86-.41 1.87-.4 1.87-.39 1.86-.39 1.87-.37 1.87-.36 1.87-.36 1.87-.34 1.87-.34 1.87-.32 1.87-.32 1.87-.3 1.88-.3 1.87-.29 1.87-.27 1.88-.27 1.87-.26 1.88-.25 1.87-.23 1.88-.23 1.88-.22 1.87-.21 1.88-.2 1.88-.19 1.88-.18 1.88-.17 1.88-.16 1.88-.15 1.88-.14 1.88-.13 1.89-.12 1.88-.12 1.88-.1 1.89-.09 1.88-.08 1.89-.08 1.88-.06 1.89-.05 1.89-.05 1.88-.03 1.89-.03 1.89-.01 1.89-.01 1.89.01 1.89.01 1.89.02 1.89.04 1.9.04 1.89.05 1.89.07 1.89.07 1.9.08 1.89.09 1.9.1 1.9.11 1.89.12 1.9.13 1.9.14 1.9.15 1.89.16 1.9.17 1.9.18 1.9.19 1.9.2 1.91.21 1.9.21 1.9.23 1.9.24 1.91.24 1.9.26 1.91.27 1.9.27 1.91.29 1.91.29 1.9.31 1.91.31 1.91.33 1.91.33 1.91.34 1.91.36 1.91.36 1.91.37 1.91.38 1.91.4 1.92.4 1.91.41 1.91.42 1.92.43" style="stroke-width:1.07;stroke:#000000;stroke-opacity:0.10;stroke-linecap:butt"/><path d="m49.42 235.26 1.86-.6 1.85-.58 1.86-.58 1.86-.56 1.85-.56 1.86-.54 1.86-.53 1.86-.52 1.86-.51 1.86-.49 1.86-.49 1.87-.47 1.86-.46 1.86-.45 1.87-.44 1.86-.43 1.87-.42 1.86-.41 1.87-.39 1.87-.38 1.86-.38 1.87-.36 1.87-.35 1.87-.33 1.87-.33 1.87-.32 1.88-.3 1.87-.29 1.87-.29 1.88-.27 1.87-.25 1.88-.25 1.87-.24 1.88-.22 1.88-.22 1.87-.2 1.88-.19 1.88-.18 1.88-.17 1.88-.16 1.88-.14 1.88-.14 1.89-.12 1.88-.11 1.88-.1 1.89-.09 1.88-.08 1.89-.07 1.88-.05 1.89-.05 1.89-.03 1.89-.02 1.89-.01h1.89l1.89.01 1.89.03 1.89.03 1.89.05 1.89.06 1.9.06 1.89.08 1.9.1 1.89.1 1.9.11 1.9.13 1.89.14 1.9.14 1.9.16 1.9.17 1.9.19 1.9.19 1.9.2 1.9.22 1.91.23 1.9.23 1.9.25 1.91.27 1.9.27 1.91.28 1.91.3 1.9.3 1.91.32 1.91.33 1.91.34 1.91.35 1.91.36 1.91.38 1.91.38 1.92.4 1.91.41 1.91.42 1.92.43 1.91.44 1.92.45 1.92.47 1.91.48 1.92.48 1.92.5 1.92.51" style="stroke-width:1.07;stroke:#000000;stroke-opacity:0.10;stroke-linecap:butt"/><path d="m147.75 326.41 8.57 14.84h-17.13zm237.57-175.19 4.63 8.02h-9.26z" style="stroke-width:0.71;stroke:none;fill:#00BA38"/><path d="M43.06 241.62h12.72V228.9H43.06z" style="stroke-width:0.71;stroke:none;fill:#619CFF"/><circle cx="236.24" cy="230.89" r="6.76" style="stroke-width:0.71;stroke:none;fill:#F8766D"/><circle cx="133.65" cy="456.38" r="1.42" style="stroke-width:0.71;stroke:none;fill:#F8766D"/><path d="m142.99 340.97 3.95-3.87m84.28-101.59 4.18-3.84m-96.81 220.07-4.11 3.86" style="stroke-width:0.53;stroke:#BFBFBF"/><path d="M99.75 352.09h73.03-.08l.34-.02.34-.07.33-.12.3-.17.27-.22.23-.26.19-.3.13-.32.08-.34.03-.34h0v-6.8h0l-.03-.35-.08-.33-.13-.32-.19-.3-.23-.26-.27-.22-.3-.17-.33-.12-.34-.07-.26-.02H99.75l.26.02-.35-.02-.35.04-.33.1-.31.15-.29.2-.25.24-.21.28-.16.3-.11.33-.06.35v6.97-.18.35l.06.34.11.33.16.31.21.28.25.24.29.2.31.15.33.09.35.05z" style="stroke-width:0.53;fill:#FFFFFF;fill-opacity:0.50"/><text x="136.26" y="348.49" lengthAdjust="spacingAndGlyphs" style="font-size:5.69px;font-family:&quot;Liberation Sans&quot;" text-anchor="middle" textLength="70.16">NORA INVESTMENTS LLC</text><path d="M319.11 162.1h59.37-.09l.35-.01.34-.07.32-.12.3-.18.27-.22.23-.26.19-.29.14-.32.08-.34.03-.35h0v-6.79h0l-.03-.35-.08-.34-.14-.32-.19-.29-.23-.26-.27-.22-.3-.17-.32-.13-.34-.07-.26-.01h-59.37l.26.01-.34-.01-.35.04-.33.1-.32.15-.28.19-.25.24-.21.28-.16.31-.11.33-.06.34-.01.18v6.79l.01-.17v.35l.06.34.11.33.16.31.21.28.25.24.28.19.32.15.33.1.35.04z" style="stroke-width:0.53;fill:#FFFFFF;fill-opacity:0.50"/><text x="348.8" y="158.5" lengthAdjust="spacingAndGlyphs" style="font-size:5.69px;font-family:&quot;Liberation Sans&quot;" text-anchor="middle" textLength="56.48">EUGENE NAYZBERG</text><path d="M56.24 249.02h66.29-.09l.35-.02.34-.07.33-.12.3-.17.27-.22.23-.26.18-.3.14-.32.08-.33.03-.35h0v-23.19h0l-.03-.34-.08-.34-.14-.32-.18-.29-.23-.26-.27-.22-.3-.18-.33-.12-.34-.07-.26-.02H56.24l.26.02-.34-.01-.35.04-.33.09-.32.15-.28.2-.25.24-.21.28-.16.31-.11.33-.06.34-.01.17v23.19l.01-.17v.34l.06.35.11.33.16.3.21.28.25.24.28.2.32.15.33.1.35.04z" style="stroke-width:0.53;fill:#FFFFFF;fill-opacity:0.50"/><text x="89.39" y="229.03" lengthAdjust="spacingAndGlyphs" style="font-size:5.69px;font-family:&quot;Liberation Sans&quot;" text-anchor="middle" textLength="63.41">4102 W CHERRYWOOD</text><text x="89.39" y="237.22" lengthAdjust="spacingAndGlyphs" style="font-size:5.69px;font-family:&quot;Liberation Sans&quot;" text-anchor="middle" textLength="54.03">LN, MILWAUKEE, WI</text><text x="89.39" y="245.42" lengthAdjust="spacingAndGlyphs" style="font-size:5.69px;font-family:&quot;Liberation Sans&quot;" text-anchor="middle" textLength="15.78">53209</text><path d="M182.52 263.02h66.29-.09l.35-.02.34-.07.32-.12.31-.18.27-.21.23-.27.18-.29.14-.32.08-.34.03-.34h0v-23.19h0l-.03-.34-.08-.34-.14-.32-.18-.3-.23-.26-.27-.22-.31-.17-.32-.12-.34-.07-.26-.02h-66.29l.26.02-.34-.02-.35.05-.33.09-.32.15-.28.2-.25.24-.21.28-.16.31-.11.32-.06.35-.01.17v23.19l.01-.18v.35l.06.34.11.33.16.31.21.28.25.24.28.2.32.15.33.09.35.05z" style="stroke-width:0.53;fill:#FFFFFF;fill-opacity:0.50"/><text x="215.67" y="243.03" lengthAdjust="spacingAndGlyphs" style="font-size:5.69px;font-family:&quot;Liberation Sans&quot;" text-anchor="middle" textLength="63.41">4102 W CHERRYWOOD</text><text x="215.67" y="251.22" lengthAdjust="spacingAndGlyphs" style="font-size:5.69px;font-family:&quot;Liberation Sans&quot;" text-anchor="middle" textLength="54.03">LN, MILWAUKEE, WI</text><text x="215.67" y="259.42" lengthAdjust="spacingAndGlyphs" style="font-size:5.69px;font-family:&quot;Liberation Sans&quot;" text-anchor="middle" textLength="15.78">53209</text><path d="M114.76 451.74h69.76-.09l.35-.01.34-.07.32-.13.31-.17.27-.22.23-.26.18-.29.14-.32.08-.34.03-.35h0v-14.99h0l-.03-.34-.08-.34-.14-.32-.18-.3-.23-.26-.27-.22-.31-.17-.32-.12-.34-.07-.26-.02h-69.76l.26.02-.34-.02-.35.05-.33.09-.32.15-.28.2-.25.24-.21.28-.16.3-.11.33-.06.35-.01.17v14.99l.01-.17v.35l.06.34.11.33.16.31.21.28.25.24.28.19.32.15.33.1.35.04z" style="stroke-width:0.53;fill:#FFFFFF;fill-opacity:0.50"/><text x="149.64" y="439.95" lengthAdjust="spacingAndGlyphs" style="font-size:5.69px;font-family:&quot;Liberation Sans&quot;" text-anchor="middle" textLength="66.88">4102 CHERRYWOOD LN,</text><text x="149.64" y="448.14" lengthAdjust="spacingAndGlyphs" style="font-size:5.69px;font-family:&quot;Liberation Sans&quot;" text-anchor="middle" textLength="60.97">MILWAUKEE, WI 53209</text></g><g clip-path="url(#cpMC4wMHw0MzIuMDB8MC4wMHw1MDQuMDA=)"><circle cx="122.2" cy="116.5" r="1.95" style="stroke-width:0.71;stroke:none;fill:#F8766D"/><path d="m198.6 113.46 2.63 4.56h-5.26z" style="stroke-width:0.71;stroke:none;fill:#00BA38"/><path d="M264.6 118.45h3.91v-3.91h-3.91z" style="stroke-width:0.71;stroke:none;fill:#619CFF"/><text x="136.32" y="119.66" lengthAdjust="spacingAndGlyphs" style="font-size:8.80px;font-weight:0;font-family:&quot;Nimbus Sans Narrow&quot;" textLength="48.16">mprop address</text><text x="212.72" y="119.66" lengthAdjust="spacingAndGlyphs" style="font-size:8.80px;font-weight:0;font-family:&quot;Nimbus Sans Narrow&quot;" textLength="39.72">owner name</text><text x="280.68" y="119.66" lengthAdjust="spacingAndGlyphs" style="font-size:8.80px;font-weight:0;font-family:&quot;Nimbus Sans Narrow&quot;" textLength="40.5">wdfi address</text><text x="32.63" y="84.79" lengthAdjust="spacingAndGlyphs" style="font-size:12.00px;font-weight:0;font-family:&quot;Nimbus Sans Narrow&quot;" textLength="252.11">includes 16 parcels, 17 units, and 2 distinct owner names.</text><text x="32.63" y="42.81" lengthAdjust="spacingAndGlyphs" style="font-size:18.00px;font-weight:0;font-family:&quot;Nimbus Sans Narrow&quot;" textLength="352.61">NORA INVESTMENTS LLC -- EUGENE NAYZBERG</text><text x="32.63" y="62.25" lengthAdjust="spacingAndGlyphs" style="font-size:18.00px;font-weight:0;font-family:&quot;Nimbus Sans Narrow&quot;" textLength="44.27">Group</text></g></g></svg>