<svg xmlns="http://www.w3.org/2000/svg" width="576" height="672" class="svglite" viewBox="0 0 432 504"><defs><style><![CDATA[.svglite line,.svglite polyline,.svglite polygon,.svglite path,.svglite circle{fill:none;stroke:#000000;stroke-linecap:round;stroke-linejoin:round;stroke-miterlimit:10.00}.svglite text{white-space:pre}]]></style></defs><rect width="100%" height="100%" style="stroke-linecap:round;stroke-linejoin:round;stroke-miterlimit:10.00;stroke:none;fill:#FFFFFF"/><defs><clipPath id="cpMC4wMHw0MzIuMDB8MC4wMHw1MDQuMDA="><path d="M0 0h432v504H0z"/></clipPath></defs><g clip-path="url(#cpMC4wMHw0MzIuMDB8MC4wMHw1MDQuMDA=)"><path d="M0 0h432v504H0z" style="stroke-width:1.07;stroke:none;fill:#FFFFFF"/></g><defs><clipPath id="cpMzIuNjN8NDAyLjExfDE0MC4zMHw0NzEuMzc="><path d="M32.63 140.3h369.48v331.07H32.63z"/></clipPath></defs><g clip-path="url(#cpMzIuNjN8NDAyLjExfDE0MC4zMHw0NzEuMzc=)"><path d="m183.37 342.49.87-.92.87-.92.85-.92.84-.93.82-.92.81-.93.8-.92.79-.93.78-.93.76-.93.75-.93.74-.93.72-.93.72-.94.7-.93.68-.94.68-.93.66-.94.65-.94.64-.94.62-.94.62-.94.6-.94.58-.95.58-.94.56-.95.55-.94.54-.95.52-.95.51-.95.5-.95.49-.95.47-.95.47-.95.45-.96.43-.95.43-.96.41-.95.4-.96.38-.96.38-.96.36-.96.35-.96.34-.97.32-.96.31-.96.3-.97.29-.97.27-.96.26-.97.25-.97.24-.97.22-.97.21-.98.2-.97.19-.97.17-.98.16-.98.15-.97.13-.98.13-.98.11-.98.1-.98.08-.99.08-.98.06-.98.05-.99.03-.98.02-.99.01-.99v-.99l-.01-.99-.03-.99-.04-.99-.05-.99-.07-1-.07-.99-.09-1-.1-1-.12-.99-.13-1-.14-1-.15-1-.16-1-.18-1.01-.19-1-.2-1-.22-1.01-.23-1.01-.24-1-.25-1.01-.26-1.01-.28-1.01-.29-1.01-.31-1.02-.31-1.01-.33-1.01-.34-1.02-.35-1.02m-25.87 95.89-.95-.83-.95-.83-.96-.83-.97-.81-.98-.81-.99-.81-.99-.8-1.01-.79-1.01-.79-1.02-.78-1.03-.78-1.04-.77-1.04-.76-1.06-.76-1.06-.75-1.07-.75-1.08-.74-1.08-.73-1.1-.73-1.1-.72-1.11-.72-1.12-.71-1.13-.71-1.14-.69-1.14-.7-1.16-.68-1.16-.68-1.17-.68-1.18-.67-1.19-.66-1.19-.66-1.2-.65-1.21-.64-1.22-.64-1.23-.63-1.24-.63-1.24-.62-1.26-.62-1.26-.61-1.27-.6-1.28-.6-1.28-.59-1.3-.58-1.3-.58-1.31-.58-1.32-.56-1.33-.56-1.34-.56-1.34-.55-1.36-.54-1.36-.54-1.37-.53-1.37-.53-1.39-.52-1.39-.51-1.41-.51-1.41-.5-1.42-.5-1.43-.49-1.43-.48-1.45-.48-1.45-.47-1.46-.47-1.47-.46-1.48-.45-1.48-.45-1.5-.44-1.5-.44-1.51-.43-1.52-.42-1.53-.42-1.53-.41-1.55-.41-1.55-.4-1.56-.4-1.57-.38-1.58-.39-1.58-.37-1.6-.38-1.6-.36-1.61-.36-1.62-.35-1.63-.35-1.63-.34-1.65-.33-1.65-.33-1.66-.33-1.67-.31-1.68-.32-1.68-.3-1.7-.3-1.7-.29-1.71-.29-1.72-.28-1.73-.28-1.73-.27-1.75-.26-1.75-.26-1.76-.25" style="stroke-width:1.07;stroke:#000000;stroke-opacity:0.10;stroke-linecap:butt"/><path d="m183.37 342.49.76-.93.76-.93.74-.93.73-.93.73-.93.71-.94.7-.93.69-.94.68-.93.68-.94.66-.94.65-.93.64-.94.63-.94.62-.94.61-.95.6-.94.59-.94.58-.94.57-.95.56-.94.55-.95.53-.95.53-.95.52-.94.51-.95.49-.95.49-.96.48-.95.46-.95.46-.95.45-.96.43-.95.43-.96.41-.95.41-.96.39-.96.39-.96.37-.96.36-.96.36-.96.34-.96.33-.97.33-.96.31-.96.3-.97.29-.97.29-.96.27-.97.26-.97.25-.97.24-.97.23-.97.22-.97.21-.97.2-.98.19-.97.18-.98.17-.97.16-.98.15-.98.13-.97.13-.98.12-.98.11-.98.09-.99.09-.98.08-.98.06-.98.06-.99.05-.98.03-.99.03-.99.01-.98.01-.99-.01-.99-.01-.99-.03-.99-.04-1-.04-.99-.06-.99-.07-.99-.07-1-.09-1-.1-.99-.11-1-.11-1-.13-1-.14-1-.15-1-.16-1-.17-1-.18-1-.19-1.01-.2-1-.21-1.01-.22-1-.23-1.01-.24-1.01m-25.87 95.89-1.01-.79-1.01-.78-1.03-.78-1.03-.78-1.03-.77-1.05-.76-1.05-.77-1.05-.75-1.07-.75-1.07-.75-1.08-.74-1.08-.73-1.1-.73-1.1-.73-1.1-.72-1.12-.71-1.12-.71-1.13-.71-1.13-.7-1.14-.69-1.15-.69-1.16-.69-1.16-.67-1.17-.68-1.18-.67-1.18-.66-1.19-.66-1.2-.66-1.21-.65-1.21-.64-1.22-.64-1.22-.64-1.24-.62-1.24-.63-1.25-.62-1.25-.61-1.26-.61-1.27-.6-1.28-.6-1.28-.6-1.29-.59-1.3-.58-1.3-.58-1.31-.57-1.32-.57-1.32-.57-1.33-.55-1.34-.56-1.35-.55-1.35-.54-1.36-.54-1.37-.53-1.37-.53-1.38-.52-1.39-.52-1.4-.52-1.4-.5-1.41-.51-1.42-.5-1.42-.49-1.43-.49-1.44-.48-1.44-.48-1.45-.47-1.46-.47-1.47-.46-1.47-.46-1.48-.45-1.49-.45-1.49-.44-1.5-.44-1.51-.43-1.51-.43-1.52-.42-1.53-.42-1.54-.41-1.54-.41-1.55-.4-1.56-.4-1.56-.39-1.57-.39-1.58-.38-1.59-.38-1.59-.37-1.6-.37-1.61-.36-1.61-.36-1.62-.35-1.63-.35-1.63-.34-1.64-.34-1.65-.33-1.66-.32-1.66-.33-1.67-.31-1.68-.32-1.68-.3-1.69-.3-1.7-.3" style="stroke-width:1.07;stroke:#000000;stroke-opacity:0.10;stroke-linecap:butt"/><path d="m183.37 342.49.65-.94.65-.93.63-.94.63-.94.62-.94.61-.95.61-.94.59-.94.59-.94.58-.95.57-.94.57-.95.56-.94.54-.95.54-.95.54-.94.52-.95.52-.95.51-.95.5-.95.49-.95.48-.95.48-.95.47-.96.46-.95.45-.95.45-.96.44-.95.42-.96.43-.95.41-.96.4-.96.4-.96.39-.95.38-.96.37-.96.37-.96.35-.96.35-.97.34-.96.34-.96.32-.97.32-.96.31-.96.3-.97.29-.97.29-.96.28-.97.27-.97.26-.97.25-.97.25-.97.23-.97.23-.97.22-.97.22-.97.2-.97.2-.98.19-.97.18-.98.17-.97.17-.98.16-.97.15-.98.14-.98.13-.98.13-.98.12-.98.11-.98.1-.98.09-.98.09-.98.07-.98.07-.99.07-.98.05-.99.05-.98.03-.99.03-.98.03-.99.01-.99.01-.99-.01-.99-.01-.99-.01-.99-.03-.99-.03-.99-.05-.99-.05-.99-.05-1-.07-.99-.07-1-.08-.99-.09-1-.1-.99-.11-1-.11-1-.12-1-.13-1m-25.87 95.89-1.07-.74-1.08-.74-1.08-.74-1.09-.73-1.09-.73-1.1-.73-1.11-.72-1.11-.72-1.12-.71-1.12-.71-1.13-.7-1.13-.7-1.14-.7-1.15-.69-1.15-.69-1.16-.68-1.16-.68-1.17-.68-1.17-.67-1.18-.67-1.19-.66-1.19-.66-1.2-.65-1.2-.65-1.21-.65-1.22-.64-1.22-.64-1.22-.64-1.24-.63-1.23-.62-1.25-.62-1.25-.62-1.25-.62-1.26-.61-1.27-.6-1.27-.6-1.28-.6-1.28-.59-1.29-.59-1.3-.59-1.3-.58-1.31-.57-1.31-.58-1.32-.56-1.32-.57-1.33-.56-1.34-.55-1.34-.56-1.35-.54-1.35-.55-1.36-.54-1.36-.53-1.37-.53-1.38-.53-1.38-.52-1.39-.52-1.39-.52-1.4-.51-1.41-.5-1.41-.51-1.41-.49-1.42-.5-1.43-.49-1.44-.48-1.43-.49-1.45-.47-1.45-.48-1.46-.47-1.46-.46-1.47-.46-1.47-.46-1.48-.45-1.49-.45-1.49-.45-1.49-.44-1.51-.43-1.51-.43-1.51-.43-1.52-.43-1.53-.42-1.53-.41-1.53-.41-1.55-.41-1.55-.4-1.55-.4-1.56-.4-1.57-.39-1.57-.39-1.58-.38-1.58-.38-1.59-.37-1.59-.37-1.6-.37-1.61-.36-1.61-.36-1.62-.35-1.62-.35-1.63-.35-1.64-.34" style="stroke-width:1.07;stroke:#000000;stroke-opacity:0.10;stroke-linecap:butt"/><path d="m183.37 342.49.54-.94.53-.95.53-.95.53-.95.51-.95.52-.94.5-.95.5-.95.5-.95.49-.96.48-.95.48-.95.47-.95.47-.95.46-.96.45-.95.45-.95.45-.96.43-.95.44-.96.42-.95.42-.96.42-.96.41-.95.4-.96.4-.96.39-.96.39-.96.38-.96.38-.96.37-.96.36-.96.36-.96.35-.96.35-.96.34-.96.33-.97.33-.96.33-.96.32-.97.31-.96.3-.97.31-.96.29-.97.29-.97.29-.96.27-.97.28-.97.26-.96.26-.97.26-.97.25-.97.24-.97.24-.97.24-.97.22-.97.22-.98.22-.97.21-.97.2-.97.2-.98.2-.97.18-.98.18-.97.18-.98.17-.97.16-.98.16-.97.16-.98.14-.98.15-.98.13-.97.13-.98.13-.98.12-.98.11-.98.11-.98.1-.98.09-.98.09-.99.09-.98.08-.98.07-.98.07-.99.06-.98.06-.99.05-.98.04-.99.04-.98.03-.99.03-.99.02-.98.02-.99.01-.99.01-.99-.01-.99v-.99l-.01-.99-.02-.99m-25.87 95.89-1.13-.7-1.14-.7-1.15-.69-1.14-.69-1.15-.69-1.16-.68-1.16-.68-1.17-.68-1.16-.68-1.18-.67-1.18-.67-1.18-.66-1.19-.67-1.19-.66-1.2-.65-1.2-.65-1.2-.65-1.21-.65-1.22-.64-1.21-.64-1.23-.64-1.22-.63-1.24-.63-1.23-.63-1.24-.62-1.25-.62-1.25-.62-1.25-.62-1.26-.61-1.27-.6-1.26-.61-1.28-.6-1.27-.6-1.29-.59-1.28-.59-1.29-.59-1.3-.59-1.3-.58-1.3-.58-1.31-.57-1.31-.58-1.32-.57-1.32-.56-1.33-.57-1.33-.55-1.33-.56-1.34-.55-1.34-.55-1.35-.55-1.36-.54-1.35-.55-1.37-.53-1.36-.54-1.37-.53-1.38-.52-1.38-.53-1.38-.52-1.39-.52-1.39-.51-1.4-.51-1.4-.51-1.41-.51-1.41-.5-1.42-.5-1.42-.49-1.42-.5-1.43-.48-1.44-.49-1.43-.48-1.45-.48-1.44-.48-1.45-.47-1.46-.47-1.46-.47-1.47-.46-1.47-.46-1.47-.46-1.48-.45-1.48-.45-1.49-.45-1.49-.44-1.5-.45-1.5-.43-1.5-.44-1.51-.43-1.52-.43-1.51-.42-1.53-.42-1.53-.42-1.53-.42-1.53-.41-1.54-.41-1.55-.4-1.55-.41-1.55-.4-1.56-.39-1.57-.39-1.57-.39-1.57-.39" style="stroke-width:1.07;stroke:#000000;stroke-opacity:0.10;stroke-linecap:butt"/><path d="m183.37 342.49.43-.95.42-.96.43-.95.41-.96.42-.96.41-.95.41-.96.4-.96.41-.96.39-.95.4-.96.39-.96.39-.96.38-.96.38-.96.38-.96.37-.96.37-.96.37-.96.37-.96.36-.96.35-.96.36-.96.35-.96.34-.97.35-.96.34-.96.33-.96.34-.97.33-.96.32-.96.33-.97.32-.96.31-.97.31-.96.31-.96.31-.97.3-.97.3-.96.3-.97.29-.96.29-.97.28-.97.28-.96.28-.97.28-.97.27-.97.27-.96.26-.97.26-.97.26-.97.25-.97.26-.97.24-.97.25-.97.24-.97.24-.97.23-.97.23-.97.23-.97.22-.97.22-.97.22-.98.21-.97.21-.97.21-.97.2-.98.2-.97.2-.97.19-.98.19-.97.19-.98.18-.97.18-.98.17-.97.18-.98.16-.97.17-.98.16-.97.16-.98.16-.98.15-.97.15-.98.14-.98.14-.98.14-.98.14-.97.13-.98.13-.98.12-.98.12-.98.12-.98.11-.98.11-.98.11-.98.11-.98.1-.98.09-.98.1-.99m-25.87 95.89-1.2-.65-1.2-.66-1.2-.65-1.21-.65-1.2-.64-1.22-.65-1.21-.64-1.22-.64-1.22-.64-1.23-.63-1.23-.64-1.23-.63-1.23-.62-1.24-.63-1.24-.62-1.25-.63-1.24-.61-1.25-.62-1.26-.62-1.25-.61-1.26-.61-1.27-.61-1.26-.6-1.27-.6-1.28-.61-1.27-.59-1.28-.6-1.29-.59-1.28-.6-1.29-.59-1.29-.58-1.3-.59-1.3-.58-1.3-.58-1.3-.58-1.31-.57-1.31-.58-1.32-.57-1.32-.57-1.32-.56-1.32-.57-1.33-.56-1.33-.56-1.33-.56-1.34-.55-1.34-.55-1.34-.55-1.35-.55-1.35-.55-1.35-.54-1.36-.54-1.36-.54-1.36-.54-1.37-.53-1.37-.54-1.37-.53-1.37-.52-1.38-.53-1.38-.52-1.39-.52-1.39-.52-1.39-.52-1.39-.51-1.4-.51-1.4-.51-1.41-.51-1.4-.5-1.41-.5-1.42-.5-1.41-.5-1.42-.5-1.43-.49-1.42-.49-1.43-.49-1.44-.49-1.43-.48-1.44-.48-1.45-.48-1.44-.48-1.45-.47-1.45-.48-1.46-.47-1.46-.46-1.46-.47-1.46-.46-1.47-.46-1.47-.46-1.48-.46-1.47-.45-1.49-.46-1.48-.45-1.49-.44-1.49-.45-1.49-.44-1.5-.44-1.5-.44-1.5-.43-1.51-.44-1.51-.43" style="stroke-width:1.07;stroke:#000000;stroke-opacity:0.10;stroke-linecap:butt"/><path d="m183.37 342.49.32-.96.31-.97.32-.96.31-.96.31-.97.31-.96.32-.97.3-.96.31-.97.31-.96.3-.97.31-.96.3-.97.31-.96.3-.97.3-.97.3-.96.29-.97.3-.96.3-.97.29-.96.29-.97.29-.97.3-.96.29-.97.28-.97.29-.96.29-.97.28-.97.29-.96.28-.97.28-.97.28-.96.28-.97.28-.97.28-.97.27-.96.28-.97.27-.97.28-.97.27-.96.27-.97.27-.97.27-.97.26-.97.27-.96.26-.97.27-.97.26-.97.26-.97.26-.97.26-.96.26-.97.25-.97.26-.97.25-.97.26-.97.25-.97.25-.97.25-.97.25-.97.25-.97.24-.97.25-.97.24-.97.25-.97.24-.97.24-.97.24-.97.24-.97.23-.97.24-.97.24-.97.23-.97.23-.97.23-.97.23-.97.23-.97.23-.97.23-.98.22-.97.23-.97.22-.97.23-.97.22-.97.22-.97.22-.98.21-.97.22-.97.22-.97.21-.97.22-.98.21-.97.21-.97.21-.97.21-.98.21-.97.2-.97.21-.98m-25.87 95.89-1.26-.61-1.26-.61-1.26-.61-1.27-.6-1.27-.61-1.26-.6-1.27-.6-1.28-.61-1.27-.6-1.28-.59-1.28-.6-1.28-.6-1.28-.59-1.28-.59-1.29-.6-1.28-.59-1.29-.59-1.3-.58-1.29-.59-1.3-.58-1.29-.59-1.3-.58-1.3-.58-1.31-.58-1.3-.58-1.31-.57-1.31-.58-1.31-.57-1.31-.58-1.31-.57-1.32-.57-1.32-.56-1.32-.57-1.32-.57-1.33-.56-1.32-.56-1.33-.57-1.33-.56-1.33-.55-1.34-.56-1.33-.56-1.34-.55-1.34-.56-1.34-.55-1.34-.55-1.35-.55-1.35-.54-1.35-.55-1.35-.55-1.35-.54-1.36-.54-1.35-.54-1.36-.54-1.36-.54-1.36-.54-1.37-.53-1.36-.54-1.37-.53-1.37-.53-1.38-.53-1.37-.53-1.38-.52-1.37-.53-1.38-.52-1.39-.53-1.38-.52-1.38-.52-1.39-.52-1.39-.52-1.39-.51-1.4-.52-1.39-.51-1.4-.51-1.4-.51-1.4-.51-1.4-.51-1.41-.51-1.4-.5-1.41-.5-1.41-.51-1.41-.5-1.42-.5-1.42-.5-1.41-.49-1.42-.5-1.43-.49-1.42-.49-1.43-.5-1.42-.49-1.43-.48-1.44-.49-1.43-.49-1.43-.48-1.44-.49-1.44-.48-1.44-.48-1.45-.48-1.44-.47-1.45-.48m133.95 53.81.2-.97.21-.97.21-.98.21-.97.21-.97.21-.97.21-.98.21-.97.22-.97.21-.97.22-.97.22-.98.22-.97.22-.97.22-.97.22-.97.23-.97.22-.98.23-.97.22-.97.23-.97.23-.97.23-.97.23-.97.24-.97.23-.97.24-.97.23-.98.24-.97.24-.97.24-.97.24-.97.24-.97.24-.97.25-.97.24-.97.25-.97.25-.97.25-.96.25-.97.25-.97.25-.97.25-.97.26-.97.25-.97.26-.97.26-.97.26-.97.26-.97.26-.96.26-.97.26-.97.27-.97.26-.97.27-.97.27-.96.27-.97.27-.97.27-.97.27-.96.28-.97.27-.97.28-.97.28-.96.27-.97.28-.97.28-.97.29-.96.28-.97.28-.97.29-.96.28-.97.29-.97.29-.96.29-.97.29-.97.29-.96.3-.97.29-.96.3-.97.29-.97.3-.96.3-.97.3-.96.3-.97.3-.96.31-.97.3-.96.31-.97.3-.96.31-.97.31-.96.31-.97.31-.96.32-.97.31-.96.31-.97.32-.96.32-.97" style="stroke-width:1.07;stroke:#000000;stroke-opacity:0.10;stroke-linecap:butt"/><path d="m183.37 342.49-1.32-.56-1.32-.57-1.33-.56-1.32-.57-1.33-.56-1.32-.57-1.33-.56-1.32-.56-1.33-.56-1.33-.57-1.32-.56-1.33-.56-1.33-.56-1.33-.56-1.33-.56-1.33-.56-1.34-.56-1.33-.56-1.33-.55-1.34-.56-1.33-.56-1.34-.55-1.33-.56-1.34-.55-1.33-.56-1.34-.55-1.34-.56-1.34-.55-1.34-.56-1.34-.55-1.34-.55-1.34-.55-1.34-.55-1.35-.55-1.34-.55-1.34-.55-1.35-.55-1.34-.55-1.35-.55-1.35-.55-1.34-.55-1.35-.55-1.35-.54-1.35-.55-1.35-.54-1.35-.55-1.35-.54-1.35-.55-1.35-.54-1.36-.55-1.35-.54-1.36-.54-1.35-.54-1.36-.55-1.35-.54-1.36-.54-1.36-.54-1.35-.54-1.36-.54-1.36-.54-1.36-.54-1.36-.53-1.36-.54-1.37-.54-1.36-.54-1.36-.53-1.37-.54-1.36-.53-1.37-.54-1.36-.53-1.37-.54-1.37-.53-1.36-.53-1.37-.53-1.37-.54-1.37-.53-1.37-.53-1.37-.53-1.37-.53-1.37-.53-1.38-.53-1.37-.53-1.37-.53-1.38-.53-1.38-.52-1.37-.53-1.38-.53-1.38-.52-1.37-.53-1.38-.52-1.38-.53-1.38-.52-1.38-.53-1.38-.52-1.38-.52-1.39-.53-1.38-.52-1.38-.52-1.39-.52m133.95 53.81.09-.98.1-.98.1-.98.1-.98.11-.98.11-.98.12-.98.11-.98.13-.98.12-.98.13-.98.13-.98.13-.98.14-.97.14-.98.15-.98.15-.98.15-.97.16-.98.15-.98.17-.97.16-.98.17-.98.17-.97.18-.98.18-.97.18-.98.19-.97.19-.98.19-.97.2-.97.2-.98.2-.97.21-.97.21-.97.21-.98.22-.97.22-.97.22-.97.23-.97.23-.97.23-.97.24-.98.24-.97.24-.97.25-.97.25-.96.26-.97.25-.97.27-.97.26-.97.27-.97.27-.97.27-.96.28-.97.29-.97.28-.96.29-.97.29-.97.3-.96.3-.97.3-.96.3-.97.31-.96.32-.97.31-.96.32-.97.32-.96.33-.96.33-.97.33-.96.34-.96.34-.96.34-.97.35-.96.35-.96.35-.96.36-.96.36-.96.36-.96.37-.97.37-.96.38-.95.37-.96.38-.96.39-.96.39-.96.39-.96.39-.96.4-.96.4-.95.41-.96.41-.96.41-.96.41-.95.42-.96.42-.95.43-.96.43-.96" style="stroke-width:1.07;stroke:#000000;stroke-opacity:0.10;stroke-linecap:butt"/><path d="m183.37 342.49-1.39-.52-1.38-.52-1.38-.52-1.38-.52-1.39-.53-1.38-.52-1.38-.52-1.38-.53-1.38-.52-1.38-.53-1.37-.52-1.38-.53-1.38-.53-1.37-.52-1.38-.53-1.37-.53-1.38-.53-1.37-.53-1.37-.53-1.38-.53-1.37-.53-1.37-.53-1.37-.53-1.37-.53-1.37-.53-1.37-.53-1.36-.54-1.37-.53-1.37-.54-1.36-.53-1.37-.53-1.36-.54-1.37-.54-1.36-.53-1.36-.54-1.36-.54-1.37-.53-1.36-.54-1.36-.54-1.36-.54-1.35-.54-1.36-.54-1.36-.54-1.36-.54-1.35-.54-1.36-.54-1.35-.54-1.36-.55-1.35-.54-1.35-.54-1.36-.55-1.35-.54-1.35-.55-1.35-.54-1.35-.55-1.35-.54-1.35-.55-1.35-.55-1.34-.55-1.35-.54-1.35-.55-1.34-.55-1.35-.55-1.34-.55-1.34-.55-1.35-.55-1.34-.55-1.34-.56-1.34-.55-1.34-.55-1.34-.55-1.34-.56-1.34-.55-1.33-.56-1.34-.55-1.34-.56-1.33-.55-1.34-.56-1.33-.56-1.34-.55-1.33-.56-1.33-.56-1.33-.56-1.34-.56-1.33-.56-1.33-.56-1.33-.56-1.32-.56-1.33-.56-1.33-.56-1.33-.56-1.32-.57-1.33-.56-1.32-.56-1.33-.57-1.32-.56-1.32-.57-1.33-.56-1.32-.57m133.95 53.81-.02-.99-.01-.99-.01-.99v-.99l.01-.98.01-.99.01-.99.03-.99.02-.98.04-.99.04-.99.04-.98.05-.99.06-.98.06-.98.07-.99.07-.98.08-.98.08-.99.09-.98.1-.98.1-.98.11-.98.11-.98.12-.98.12-.98.14-.98.13-.98.14-.97.15-.98.15-.98.16-.98.17-.97.17-.98.17-.97.18-.98.19-.97.19-.98.2-.97.21-.97.21-.97.21-.98.22-.97.23-.97.23-.97.24-.97.25-.97.25-.97.25-.97.26-.97.27-.97.27-.96.28-.97.29-.97.29-.96.29-.97.3-.97.31-.96.31-.97.32-.96.32-.96.33-.97.34-.96.34-.96.35-.96.35-.96.36-.97.36-.96.37-.96.38-.96.38-.96.38-.95.4-.96.39-.96.41-.96.41-.96.41-.95.42-.96.43-.95.43-.96.44-.95.44-.96.45-.95.46-.96.46-.95.47-.95.47-.95.48-.96.48-.95.49-.95.49-.95.5-.95.51-.95.51-.95.52-.95.52-.94.53-.95.54-.95.54-.95" style="stroke-width:1.07;stroke:#000000;stroke-opacity:0.10;stroke-linecap:butt"/><path d="m183.37 342.49-1.45-.47-1.44-.48-1.45-.48-1.44-.48-1.44-.48-1.43-.48-1.44-.49-1.43-.49-1.44-.48-1.42-.49-1.43-.49-1.43-.49-1.42-.49-1.42-.5-1.42-.49-1.42-.5-1.42-.5-1.41-.5-1.42-.5-1.41-.5-1.41-.51-1.4-.5-1.41-.51-1.4-.51-1.4-.5-1.4-.51-1.4-.52-1.39-.51-1.4-.51-1.39-.52-1.39-.52-1.38-.52-1.39-.52-1.38-.52-1.38-.52-1.38-.53-1.38-.52-1.38-.53-1.37-.53-1.38-.53-1.37-.53-1.36-.53-1.37-.53-1.36-.54-1.37-.54-1.36-.54-1.36-.53-1.35-.55-1.36-.54-1.35-.54-1.35-.55-1.35-.54-1.35-.55-1.34-.55-1.35-.55-1.34-.55-1.34-.55-1.34-.56-1.33-.55-1.34-.56-1.33-.56-1.33-.56-1.33-.56-1.32-.57-1.33-.56-1.32-.57-1.32-.56-1.32-.57-1.31-.57-1.32-.57-1.31-.57-1.31-.58-1.31-.57-1.31-.58-1.3-.58-1.31-.58-1.3-.58-1.3-.58-1.29-.58-1.3-.59-1.29-.58-1.29-.59-1.29-.59-1.29-.59-1.29-.59-1.28-.59-1.28-.6-1.28-.6-1.28-.59-1.28-.6-1.27-.6-1.27-.6-1.27-.6-1.27-.61-1.27-.6-1.26-.61-1.27-.61-1.26-.61-1.26-.61m133.95 53.81-.13-1-.12-.99-.12-1-.1-1-.1-1-.09-.99-.08-1-.07-.99-.07-1-.06-.99-.05-.99-.04-.99-.03-.99-.03-1-.02-.99-.01-.99v-.98l.01-.99.01-.99.02-.99.03-.98.04-.99.05-.99.05-.98.06-.98.07-.99.08-.98.09-.98.09-.98.1-.99.11-.98.12-.98.12-.97.14-.98.14-.98.15-.98.16-.97.16-.98.18-.98.18-.97.19-.98.19-.97.21-.97.21-.97.22-.98.23-.97.24-.97.25-.97.25-.97.26-.96.27-.97.28-.97.28-.97.3-.96.3-.97.31-.96.31-.97.33-.96.33-.96.34-.97.35-.96.36-.96.36-.96.38-.96.38-.96.39-.96.39-.96.41-.95.41-.96.42-.96.43-.95.44-.96.44-.95.46-.95.46-.96.46-.95.48-.95.49-.95.49-.95.5-.95.51-.95.51-.95.53-.95.53-.95.54-.94.55-.95.56-.95.56-.94.57-.95.58-.94.59-.94.6-.95.6-.94.62-.94.62-.94.62-.94.64-.94.65-.94.65-.94" style="stroke-width:1.07;stroke:#000000;stroke-opacity:0.10;stroke-linecap:butt"/><path d="m183.37 342.49-1.51-.43-1.51-.43-1.5-.44-1.5-.44-1.5-.44-1.49-.44-1.49-.44-1.49-.45-1.48-.45-1.48-.45-1.48-.46-1.48-.45-1.47-.46-1.47-.46-1.46-.47-1.46-.46-1.46-.47-1.46-.47-1.45-.47-1.45-.48-1.44-.48-1.45-.47-1.43-.49-1.44-.48-1.43-.49-1.43-.49-1.43-.49-1.42-.49-1.42-.49-1.42-.5-1.41-.5-1.42-.5-1.4-.51-1.41-.51-1.4-.51-1.4-.51-1.39-.51-1.39-.52-1.39-.52-1.38-.52-1.39-.52-1.37-.52-1.38-.53-1.37-.53-1.37-.53-1.37-.54-1.36-.53-1.36-.54-1.36-.54-1.35-.55-1.35-.54-1.34-.55-1.35-.55-1.34-.56-1.34-.55-1.33-.56-1.33-.56-1.33-.56-1.32-.56-1.32-.57-1.32-.57-1.31-.57-1.32-.57-1.3-.58-1.31-.58-1.3-.58-1.3-.58-1.3-.58-1.29-.59-1.29-.59-1.28-.59-1.29-.6-1.27-.59-1.28-.6-1.27-.6-1.27-.61-1.27-.6-1.26-.61-1.26-.61-1.26-.61-1.26-.62-1.25-.61-1.24-.62-1.25-.62-1.24-.63-1.24-.62-1.23-.63-1.23-.63-1.23-.63-1.23-.64-1.22-.64-1.22-.64-1.21-.64-1.21-.64-1.21-.65-1.21-.65-1.2-.65-1.2-.65-1.2-.66m133.95 53.81-.24-1-.23-1.01-.22-1.01-.21-1-.2-1.01-.19-1-.18-1-.17-1.01-.16-1-.15-1-.14-1-.13-1-.12-.99-.11-1-.09-1-.09-.99-.08-1-.07-.99-.05-1-.05-.99-.03-.99-.03-.99-.02-.99v-1.98l.02-.99.02-.98.04-.99.05-.98.05-.99.07-.98.07-.99.09-.98.1-.98.11-.98.11-.98.13-.98.14-.98.15-.97.16-.98.17-.98.18-.97.18-.97.2-.98.21-.97.23-.97.23-.97.24-.97.25-.97.26-.97.27-.97.28-.97.29-.96.31-.97.31-.96.32-.97.33-.96.35-.96.35-.96.37-.96.37-.96.38-.96.4-.96.4-.96.42-.95.42-.96.44-.96.45-.95.45-.95.47-.96.48-.95.48-.95.5-.95.51-.95.51-.95.53-.94.54-.95.55-.95.56-.94.57-.95.58-.94.59-.95.6-.94.61-.94.62-.94.63-.94.64-.94.65-.94.66-.93.67-.94.68-.94.7-.93.7-.94.71-.93.72-.93.74-.93.74-.94.75-.93.77-.93" style="stroke-width:1.07;stroke:#000000;stroke-opacity:0.10;stroke-linecap:butt"/><path d="m183.37 342.49-1.57-.38-1.57-.39-1.56-.4-1.56-.39-1.56-.4-1.55-.4-1.54-.41-1.54-.41-1.54-.41-1.53-.42-1.53-.41-1.52-.43-1.52-.42-1.52-.43-1.51-.43-1.5-.43-1.5-.44-1.5-.44-1.49-.45-1.49-.44-1.48-.45-1.48-.46-1.47-.46-1.47-.46-1.47-.46-1.46-.47-1.45-.47-1.46-.47-1.44-.47-1.44-.48-1.44-.49-1.44-.48-1.43-.49-1.42-.49-1.42-.5-1.42-.5-1.41-.5-1.4-.5-1.41-.51-1.39-.51-1.4-.52-1.39-.52-1.38-.52-1.38-.52-1.38-.53-1.37-.53-1.36-.53-1.36-.54-1.36-.54-1.36-.55-1.34-.54-1.35-.55-1.34-.56-1.33-.55-1.33-.56-1.33-.56-1.32-.57-1.32-.57-1.31-.57-1.31-.58-1.3-.58-1.3-.58-1.3-.58-1.29-.59-1.28-.59-1.28-.6-1.28-.6-1.27-.6-1.27-.6-1.27-.61-1.25-.61-1.26-.62-1.25-.61-1.24-.62-1.25-.63-1.23-.62-1.23-.63-1.23-.64-1.22-.63-1.22-.64-1.22-.65-1.21-.64-1.2-.65-1.2-.66-1.2-.65-1.19-.66-1.19-.66-1.18-.67-1.18-.67-1.17-.67-1.17-.67-1.17-.68-1.16-.68-1.15-.69-1.16-.69-1.14-.69-1.15-.69-1.13-.7-1.14-.7m335.9-76.05-1.78.35-1.78.34-1.78.34-1.78.35-1.78.34-1.77.34-1.78.34-1.78.35-1.78.34-1.78.34-1.78.35-1.78.34-1.77.34-1.78.35-1.78.34-1.78.34-1.78.35-1.78.34-1.78.34-1.77.35-1.78.34-1.78.34-1.78.35-1.78.34-1.78.34-1.78.34-1.77.35-1.78.34-1.78.34-1.78.35-1.78.34-1.78.34-1.78.35-1.77.34-1.78.34-1.78.35-1.78.34-1.78.34-1.78.35-1.78.34-1.77.34-1.78.34-1.78.35-1.78.34-1.78.34-1.78.35-1.78.34-1.77.34-1.78.35-1.78.34-1.78.34-1.78.35-1.78.34-1.78.34-1.77.35-1.78.34-1.78.34-1.78.35-1.78.34-1.78.34-1.78.34-1.77.35-1.78.34-1.78.34-1.78.35-1.78.34-1.78.34-1.78.35-1.77.34-1.78.34-1.78.35-1.78.34-1.78.34-1.78.35-1.78.34-1.78.34-1.77.35-1.78.34-1.78.34-1.78.34-1.78.35-1.78.34-1.78.34-1.77.35-1.78.34-1.78.34-1.78.35-1.78.34-1.78.34-1.78.35-1.77.34-1.78.34-1.78.35-1.78.34-1.78.34-1.78.34-1.78.35-1.77.34-1.78.34m-25.87 95.89-.35-1.01-.34-1.02-.33-1.01-.32-1.02-.3-1.01-.29-1.01-.28-1.01-.26-1.01-.26-1.01-.24-1.01-.22-1-.22-1.01-.2-1-.19-1.01-.18-1-.16-1-.16-1-.14-1-.12-1-.12-1-.1-.99-.09-1-.08-1-.06-.99-.06-.99-.03-.99-.03-.99-.02-.99v-.99l.01-.99.03-.99.03-.98.05-.99.06-.98.07-.99.09-.98.1-.98.11-.98.12-.98.14-.98.15-.98.16-.97.17-.98.19-.97.2-.98.21-.97.22-.97.24-.97.25-.97.26-.97.27-.97.29-.96.3-.97.31-.96.32-.97.34-.96.35-.96.36-.96.37-.96.39-.96.4-.96.41-.96.42-.95.44-.96.45-.95.46-.95.48-.96.48-.95.5-.95.52-.95.52-.94.54-.95.55-.95.56-.94.57-.95.59-.94.6-.94.61-.94.63-.94.63-.94.65-.94.67-.94.67-.94.69-.93.7-.94.71-.93.73-.93.74-.93.75-.93.76-.93.77-.93.79-.93.8-.93.81-.92.83-.93.84-.92.85-.92.86-.92.88-.93" style="stroke-width:1.07;stroke:#000000;stroke-opacity:0.10;stroke-linecap:butt"/><path d="m183.37 342.49-1.64-.34-1.63-.34-1.62-.35-1.62-.36-1.61-.36-1.6-.36-1.61-.36-1.59-.37-1.59-.38-1.58-.38-1.58-.38-1.57-.39-1.57-.39-1.56-.39-1.55-.4-1.55-.41-1.54-.4-1.54-.41-1.53-.42-1.53-.42-1.52-.42-1.51-.43-1.51-.43-1.5-.44-1.5-.44-1.49-.45-1.49-.44-1.48-.46-1.47-.45-1.47-.47-1.46-.46-1.46-.47-1.45-.47-1.44-.48-1.44-.48-1.44-.49-1.42-.49-1.43-.49-1.41-.5-1.41-.5-1.41-.51-1.4-.51-1.39-.51-1.39-.52-1.38-.53-1.38-.52-1.37-.53-1.36-.54-1.36-.54-1.35-.54-1.35-.55-1.34-.55-1.34-.56-1.33-.56-1.32-.56-1.32-.57-1.31-.57-1.31-.58-1.3-.58-1.3-.59-1.29-.58-1.28-.6-1.28-.59-1.27-.61-1.27-.6-1.26-.61-1.25-.61-1.25-.62-1.25-.62-1.23-.63-1.24-.63-1.22-.63-1.22-.64-1.22-.65-1.21-.64-1.2-.65-1.2-.66-1.19-.66-1.19-.66-1.18-.67-1.17-.67-1.17-.67-1.16-.68-1.16-.69-1.15-.69-1.15-.69-1.14-.69-1.13-.7-1.13-.71-1.12-.71-1.12-.71-1.11-.72-1.11-.72-1.1-.72-1.09-.73-1.09-.74-1.08-.73-1.08-.74-1.07-.75m82.39-133.33.68.95.67.95.69.94.68.95.68.94.69.95.69.94.69.95.69.94.7.94.69.95.7.94.71.94.7.94.71.94.7.94.71.94.72.94.71.94.72.93.72.94.72.94.72.93.73.94.73.94.73.93.73.93.73.94.74.93.74.93.74.93.74.94.75.93.75.93.74.93.76.93.75.92.76.93.75.93.76.93.77.92.76.93.77.92.77.93.77.92.77.93.78.92.78.92.78.93.78.92.78.92.79.92.79.92.79.92.79.92.8.92.79.92.8.91.8.92.81.92.8.91.81.92.81.91.82.92.81.91.82.91.82.92.82.91.82.91.83.91.82.91.83.91.83.91.84.91.84.91.83.91.84.9.85.91.84.91.85.9.85.91.85.9.85.91.86.9.86.9.86.91.86.9.86.9.87.9.87.9.87.9.87.9.88.9.88.9.88.9.88.9.88.89.89.9.89.89" style="stroke-width:1.07;stroke:#000000;stroke-opacity:0.10;stroke-linecap:butt"/><path d="m131.81 155.35.78.92.79.92.78.93.78.92.78.92.78.92.79.92.78.93.78.92.78.92.78.92.79.92.78.92.78.93.78.92.78.92.79.92.78.92.78.92.78.93.78.92.79.92.78.92.78.92.78.92.79.93.78.92.78.92.78.92.78.92.79.93.78.92.78.92.78.92.78.92.79.92.78.93.78.92.78.92.78.92.79.92.78.92.78.93.78.92.78.92.79.92.78.92.78.93.78.92.79.92.78.92.78.92.78.92.78.93.79.92.78.92.78.92.78.92.78.92.79.93.78.92.78.92.78.92.78.92.79.92.78.93.78.92.78.92.78.92.79.92.78.93.78.92.78.92.79.92.78.92.78.92.78.93.78.92.79.92.78.92.78.92.78.92.78.93.79.92.78.92.78.92.78.92.78.92.79.93.78.92.78.92.78.92.78.92.79.93.78.92.78.92.78.92.79.92.78.92m-25.87 95.89.13.73.13.72.13.73.14.72.13.73.13.73.13.72.13.73.13.72.14.73.13.72.13.73.13.72.13.73.13.72.14.73.13.73.13.72.13.73.13.72.14.73.13.72.13.73.13.72.13.73.13.73.14.72.13.73.13.72.13.73.13.72.13.73.14.72.13.73.13.72.13.73.13.73.13.72.14.73.13.72.13.73.13.72.13.73.14.72.13.73.13.72.13.73.13.73.13.72.14.73.13.72.13.73.13.72.13.73.13.72.14.73.13.72.13.73.13.73.13.72.13.73.14.72.13.73.13.72.13.73.13.72.13.73.14.72.13.73.13.73.13.72.13.73.14.72.13.73.13.72.13.73.13.72.13.73.14.72.13.73.13.73.13.72.13.73.13.72.14.73.13.72.13.73.13.72.13.73.13.72.14.73.13.73.13.72.13.73.13.72.14.73.13.72.13.73.13.72m-13.04-71.82-1.7-.29-1.69-.31-1.68-.3-1.68-.31-1.67-.32-1.66-.32-1.66-.33-1.65-.33-1.64-.34-1.63-.34-1.63-.35-1.62-.35-1.61-.36-1.61-.36-1.6-.36-1.59-.38-1.59-.37-1.57-.39-1.57-.38-1.57-.4-1.56-.39-1.55-.41-1.54-.4-1.53-.42-1.53-.41-1.53-.43-1.51-.42-1.51-.44-1.5-.43-1.49-.45-1.49-.44-1.48-.46-1.47-.45-1.47-.47-1.46-.47-1.45-.47-1.44-.48-1.44-.48-1.43-.49-1.42-.49-1.42-.5-1.41-.5-1.4-.51-1.4-.51-1.38-.52-1.39-.53-1.37-.52-1.37-.54-1.36-.54-1.35-.54-1.35-.55-1.33-.55-1.34-.56-1.32-.56-1.32-.57-1.31-.58-1.3-.58-1.3-.58-1.29-.59-1.28-.59-1.28-.6-1.27-.61-1.26-.6-1.25-.62-1.25-.62-1.24-.62-1.23-.63-1.23-.64-1.22-.64-1.21-.64-1.21-.65-1.2-.65-1.19-.66-1.18-.67-1.18-.67-1.17-.67-1.16-.68-1.16-.69-1.15-.69-1.14-.69-1.13-.7-1.13-.71-1.12-.71-1.12-.71-1.1-.72-1.1-.73-1.09-.73-1.09-.73-1.08-.74-1.07-.75-1.06-.75-1.06-.75-1.05-.76-1.05-.77-1.03-.77-1.03-.77-1.02-.78-1.02-.79-1.01-.79m133.95 53.81.22 1.15.22 1.15.22 1.15.22 1.15.22 1.15.22 1.15.22 1.15.23 1.15.22 1.15.22 1.15.22 1.15.22 1.15.22 1.15.22 1.15.22 1.15.22 1.15.22 1.15.22 1.15.22 1.15.23 1.15.22 1.15.22 1.15.22 1.15.22 1.15.22 1.15.22 1.15.22 1.15.22 1.15.22 1.15.22 1.15.22 1.15.22 1.15.23 1.15.22 1.15.22 1.15.22 1.15.22 1.15.22 1.15.22 1.15.22 1.15.22 1.15.22 1.14.22 1.15.22 1.15.23 1.15.22 1.15.22 1.15.22 1.15.22 1.15.22 1.15.22 1.15.22 1.15.22 1.15.22 1.15.22 1.15.22 1.15.23 1.15.22 1.15.22 1.15.22 1.15.22 1.15.22 1.15.22 1.15.22 1.15.22 1.15.22 1.15.22 1.15.22 1.15.22 1.15.23 1.15.22 1.15.22 1.15.22 1.15.22 1.15.22 1.15.22 1.15.22 1.15.22 1.15.22 1.15.22 1.15.22 1.15.23 1.15.22 1.15.22 1.15.22 1.15.22 1.15.22 1.15.22 1.15.22 1.15.22 1.15.22 1.15.22 1.15.22 1.14.23 1.15.22 1.15.22 1.15.22 1.15.22 1.15.22 1.15" style="stroke-width:1.07;stroke:#000000;stroke-opacity:0.10;stroke-linecap:butt"/><path d="m183.37 342.49-1.76-.25-1.75-.26-1.75-.26-1.73-.27-1.73-.27-1.72-.29-1.71-.28-1.7-.3-1.7-.3-1.68-.3-1.68-.31-1.67-.32-1.66-.32-1.65-.33-1.64-.34-1.64-.34-1.63-.35-1.62-.35-1.61-.36-1.6-.36-1.59-.37-1.59-.38-1.58-.38-1.57-.39-1.56-.4-1.55-.4-1.54-.4-1.54-.41-1.53-.42-1.52-.43-1.51-.43-1.5-.43-1.49-.45-1.49-.45-1.48-.45-1.47-.46-1.46-.47-1.45-.47-1.45-.48-1.43-.48-1.43-.49-1.42-.5-1.41-.5-1.4-.51-1.4-.51-1.38-.52-1.38-.52-1.37-.54-1.36-.53-1.36-.55-1.34-.55-1.34-.55-1.33-.56-1.32-.57-1.31-.57-1.3-.58-1.29-.59-1.29-.59-1.28-.6-1.27-.6-1.26-.61-1.25-.61-1.25-.63-1.24-.62-1.22-.64-1.22-.63-1.22-.65-1.2-.65-1.19-.66-1.19-.66-1.18-.67-1.17-.67-1.16-.68-1.15-.69-1.15-.69-1.14-.7-1.12-.71-1.12-.71-1.12-.71-1.1-.72-1.1-.73-1.08-.74-1.08-.74-1.07-.74-1.06-.76-1.06-.75-1.04-.77-1.04-.77-1.03-.77-1.02-.78-1.01-.79-1-.8-1-.8-.99-.8-.98-.81-.97-.82-.96-.82-.95-.83-.95-.84m82.39-133.33.89.9.89.89.88.9.88.9.88.9.88.89.87.9.88.9.87.9.87.9.86.9.87.91.86.9.86.9.86.9.85.91.86.9.85.91.85.9.85.91.84.9.84.91.85.91.83.91.84.9.83.91.84.91.83.91.82.91.83.92.82.91.82.91.82.91.82.92.81.91.82.91.81.92.8.91.81.92.8.92.81.91.8.92.79.92.8.92.79.92.79.92.79.92.79.92.78.92.78.92.78.92.78.92.78.93.77.92.77.93.77.92.77.93.76.92.76.93.76.93.76.92.76.93.75.93.75.93.75.93.75.93.75.93.74.93.74.93.74.94.74.93.73.93.73.94.73.93.73.94.73.93.72.94.72.93.72.94.72.94.71.94.71.94.71.93.71.94.71.94.7.95.7.94.7.94.7.94.7.94.69.95.69.94.69.95.69.94.68.95.68.94.68.95.68.95.68.94M49.42 288.68l1.98-.02 1.98-.03 1.97-.04 1.95-.05 1.96-.06 1.94-.06 1.94-.07 1.93-.08 1.92-.09 1.91-.1 1.91-.11 1.9-.11 1.89-.12 1.89-.13 1.87-.14 1.87-.14 1.86-.16 1.86-.16 1.85-.17 1.83-.18 1.84-.19 1.82-.19 1.82-.21 1.81-.21 1.8-.22 1.79-.23 1.79-.23 1.78-.25 1.77-.25 1.77-.26 1.75-.27 1.75-.28 1.74-.28 1.74-.3 1.72-.3 1.72-.31 1.72-.32 1.7-.32 1.7-.34 1.69-.34 1.68-.35 1.67-.36 1.67-.37 1.66-.38 1.65-.38 1.64-.39 1.64-.4 1.63-.41 1.62-.42 1.62-.42 1.6-.44 1.6-.44 1.59-.45 1.59-.46 1.58-.46 1.56-.48 1.57-.48 1.55-.49 1.55-.5 1.54-.5 1.53-.52 1.52-.52 1.52-.53 1.51-.54 1.5-.55 1.49-.56 1.49-.56 1.48-.58 1.47-.58 1.47-.59 1.45-.59 1.45-.61 1.44-.61 1.44-.62 1.43-.63 1.42-.64 1.41-.65 1.4-.65 1.4-.67 1.39-.67 1.38-.68 1.37-.68 1.37-.7 1.36-.7 1.35-.72 1.35-.72 1.33-.72 1.33-.74 1.32-.75 1.32-.75 1.3-.76 1.3-.77 1.29-.78 1.29-.78 1.28-.8 1.26-.8 1.27-.81 1.25-.82 1.25-.83" style="stroke-width:1.07;stroke:#000000;stroke-opacity:0.10;stroke-linecap:butt"/><path d="m49.42 288.68 1.94-.08 1.92-.08 1.92-.09 1.91-.1 1.91-.1 1.9-.12 1.9-.12 1.88-.12 1.88-.14 1.88-.14 1.87-.14 1.86-.16 1.85-.16 1.85-.17 1.84-.18 1.84-.18 1.83-.19 1.82-.2 1.81-.2 1.81-.21 1.81-.22 1.79-.23 1.79-.23 1.79-.24 1.77-.25 1.77-.25 1.77-.27 1.75-.26 1.76-.28 1.74-.28 1.74-.29 1.73-.3 1.72-.3 1.72-.32 1.71-.31 1.71-.33 1.7-.33 1.69-.34 1.69-.35 1.68-.35 1.67-.36 1.66-.37 1.66-.38 1.66-.38 1.64-.39 1.65-.4 1.63-.4 1.63-.41 1.62-.42 1.61-.42 1.61-.43 1.6-.44 1.6-.45 1.58-.45 1.59-.46 1.57-.47 1.57-.48 1.56-.48 1.56-.49 1.55-.49 1.54-.51 1.54-.51 1.53-.51 1.52-.53 1.52-.53 1.51-.54 1.5-.55 1.5-.55 1.49-.56 1.48-.57 1.48-.57 1.47-.58 1.47-.59 1.45-.6 1.46-.6 1.44-.61 1.44-.61 1.43-.63 1.43-.63 1.42-.64 1.41-.64 1.41-.66 1.4-.66 1.39-.66 1.39-.68 1.38-.68 1.37-.69 1.37-.69 1.36-.7 1.35-.71 1.35-.72 1.34-.72 1.34-.73 1.32-.74 1.33-.75 1.31-.75 1.31-.76 1.3-.76 1.3-.78" style="stroke-width:1.07;stroke:#000000;stroke-opacity:0.10;stroke-linecap:butt"/><path d="m49.42 288.68 1.89-.13 1.87-.14 1.88-.14 1.86-.15 1.87-.15 1.85-.16 1.85-.17 1.85-.17 1.84-.18 1.83-.18 1.83-.19 1.83-.2 1.81-.2 1.82-.21 1.8-.22 1.8-.22 1.8-.22 1.79-.24 1.78-.23 1.78-.25 1.78-.25 1.77-.26 1.76-.26 1.76-.27 1.75-.27 1.74-.28 1.75-.29 1.73-.29 1.73-.3 1.72-.31 1.72-.31 1.72-.31 1.7-.33 1.71-.32 1.69-.34 1.7-.34 1.68-.35 1.68-.35 1.68-.36 1.67-.36 1.66-.37 1.66-.38 1.65-.38 1.65-.39 1.64-.4 1.64-.4 1.63-.41 1.62-.41 1.62-.42 1.62-.42 1.6-.43 1.61-.44 1.6-.44 1.59-.45 1.58-.46 1.59-.46 1.57-.47 1.57-.47 1.57-.48 1.56-.48 1.55-.49 1.55-.5 1.54-.5 1.54-.51 1.53-.52 1.53-.52 1.52-.53 1.51-.53 1.51-.54 1.51-.55 1.5-.55 1.49-.55 1.49-.57 1.48-.57 1.48-.57 1.47-.58 1.46-.59 1.46-.59 1.46-.6 1.45-.61 1.44-.61 1.44-.62 1.43-.62 1.43-.63 1.42-.64 1.42-.64 1.41-.65 1.4-.65 1.4-.66 1.4-.66 1.39-.68 1.38-.67 1.38-.69 1.37-.69 1.37-.69 1.36-.7 1.35-.71 1.35-.72 1.35-.72" style="stroke-width:1.07;stroke:#000000;stroke-opacity:0.10;stroke-linecap:butt"/><path d="m49.42 288.68 1.84-.18 1.83-.19 1.82-.2 1.82-.19 1.82-.21 1.81-.21 1.81-.21 1.81-.22 1.79-.22 1.8-.23 1.79-.23 1.78-.24 1.78-.24 1.78-.25 1.77-.25 1.77-.26 1.76-.27 1.76-.26 1.75-.28 1.75-.27 1.75-.28 1.74-.29 1.73-.29 1.74-.3 1.72-.3 1.73-.31 1.71-.31 1.72-.32 1.71-.32 1.7-.33 1.7-.33 1.69-.33 1.7-.35 1.68-.34 1.68-.35 1.68-.36 1.67-.36 1.67-.37 1.67-.37 1.66-.37 1.65-.38 1.65-.39 1.65-.39 1.64-.4 1.63-.4 1.64-.4 1.62-.41 1.63-.42 1.62-.42 1.61-.42 1.61-.43 1.61-.44 1.6-.44 1.59-.44 1.59-.45 1.59-.46 1.58-.45 1.58-.47 1.58-.47 1.57-.47 1.56-.48 1.56-.49 1.56-.49 1.55-.49 1.54-.5 1.55-.5 1.54-.51 1.53-.51 1.53-.52 1.52-.53 1.52-.52 1.52-.54 1.51-.54 1.5-.54 1.51-.55 1.49-.55 1.5-.56 1.48-.56 1.49-.57 1.48-.57 1.47-.58 1.47-.58 1.47-.59 1.46-.59 1.46-.6 1.45-.6 1.45-.61 1.44-.61 1.44-.62 1.43-.62 1.43-.62 1.43-.64 1.42-.63 1.41-.64 1.42-.65 1.4-.65 1.41-.66 1.39-.66 1.4-.67" style="stroke-width:1.07;stroke:#000000;stroke-opacity:0.10;stroke-linecap:butt"/><path d="m49.42 288.68 1.79-.24 1.78-.24 1.78-.24 1.77-.25 1.78-.26 1.76-.25 1.77-.26 1.76-.27 1.76-.26 1.75-.28 1.75-.27 1.75-.28 1.75-.29 1.74-.28 1.73-.29 1.74-.3 1.73-.3 1.72-.3 1.72-.31 1.72-.31 1.72-.31 1.71-.32 1.71-.32 1.71-.33 1.7-.32 1.7-.34 1.69-.33 1.69-.35 1.69-.34 1.68-.35 1.69-.35 1.67-.36 1.68-.36 1.67-.36 1.66-.37 1.67-.37 1.66-.38 1.65-.37 1.66-.39 1.64-.38 1.65-.39 1.64-.4 1.64-.4 1.64-.4 1.63-.4 1.63-.41 1.62-.42 1.62-.42 1.62-.42 1.62-.42 1.61-.43 1.6-.43 1.61-.44 1.6-.44 1.59-.44 1.6-.45 1.59-.45 1.58-.46 1.59-.46 1.58-.46 1.57-.47 1.57-.47 1.57-.48 1.57-.47 1.56-.49 1.56-.48 1.55-.49 1.55-.5 1.55-.49 1.55-.51 1.54-.5 1.53-.51 1.54-.51 1.53-.52 1.53-.52 1.52-.53 1.52-.52 1.51-.54 1.52-.53 1.51-.54 1.5-.55 1.5-.54 1.5-.55 1.5-.56 1.49-.56 1.49-.56 1.48-.57 1.48-.57 1.48-.57 1.48-.58 1.47-.58 1.46-.59 1.47-.59 1.46-.59 1.46-.6 1.45-.6 1.45-.6 1.44-.61 1.45-.62" style="stroke-width:1.07;stroke:#000000;stroke-opacity:0.10;stroke-linecap:butt"/><path d="m49.42 288.68 1.74-.29 1.73-.29 1.74-.3 1.72-.3 1.73-.3 1.73-.31 1.72-.3 1.72-.31 1.71-.32 1.72-.31 1.71-.32 1.71-.32 1.71-.33 1.7-.32 1.7-.33 1.7-.33 1.7-.34 1.69-.34 1.69-.34 1.69-.34 1.69-.35 1.68-.34 1.69-.36 1.68-.35 1.67-.36 1.68-.36 1.67-.36 1.67-.36 1.66-.37 1.67-.37 1.66-.37 1.66-.38 1.66-.38 1.65-.38 1.65-.38 1.65-.39 1.65-.39 1.64-.39 1.65-.4 1.63-.39 1.64-.4 1.64-.41 1.63-.4 1.63-.41 1.62-.41 1.63-.42 1.62-.41 1.62-.42 1.62-.43 1.61-.42 1.61-.43 1.61-.43 1.61-.43 1.6-.44 1.6-.44 1.6-.44 1.6-.44 1.59-.45 1.6-.45 1.59-.45 1.58-.46 1.59-.45 1.58-.47 1.58-.46 1.57-.46 1.58-.47 1.57-.47 1.57-.48 1.57-.48 1.56-.48 1.56-.48 1.56-.48 1.56-.49 1.55-.49 1.55-.5 1.55-.49 1.55-.5 1.55-.5 1.54-.51 1.54-.5 1.53-.51 1.54-.52 1.53-.51 1.53-.52 1.53-.52 1.52-.52 1.52-.53 1.52-.53 1.52-.53 1.51-.53 1.51-.54 1.51-.54 1.51-.54 1.5-.55 1.51-.55 1.49-.55 1.5-.55 1.5-.56 1.49-.56" style="stroke-width:1.07;stroke:#000000;stroke-opacity:0.10;stroke-linecap:butt"/><path d="m49.42 288.68 1.69-.34 1.69-.35 1.68-.35 1.68-.35 1.69-.35 1.68-.35 1.68-.36 1.67-.35 1.68-.36 1.67-.36 1.68-.36 1.67-.36 1.67-.37 1.67-.36 1.66-.37 1.67-.37 1.66-.37 1.66-.37 1.66-.38 1.66-.37 1.66-.38 1.66-.38 1.65-.38 1.66-.38 1.65-.39 1.65-.38 1.65-.39 1.64-.39 1.65-.39 1.64-.39 1.65-.4 1.64-.39 1.64-.4 1.64-.4 1.63-.4 1.64-.4 1.63-.4 1.63-.41 1.64-.41 1.62-.4 1.63-.41 1.63-.42 1.62-.41 1.63-.42 1.62-.41 1.62-.42 1.62-.42 1.61-.42 1.62-.43 1.61-.42 1.62-.43 1.61-.43 1.61-.43 1.61-.43 1.6-.43 1.61-.44 1.6-.43 1.61-.44 1.6-.44 1.6-.44 1.59-.44 1.6-.45 1.59-.45 1.6-.44 1.59-.45 1.59-.45 1.59-.46 1.59-.45 1.58-.46 1.59-.46 1.58-.46 1.58-.46 1.58-.46 1.58-.46 1.57-.47 1.58-.47 1.57-.47 1.58-.47 1.57-.47 1.57-.47 1.56-.48 1.57-.48 1.56-.48 1.57-.48 1.56-.48 1.56-.48 1.56-.49 1.56-.49 1.55-.49 1.56-.49 1.55-.49 1.55-.49 1.55-.5 1.55-.5 1.55-.49 1.54-.5 1.54-.51 1.55-.5 1.54-.51" style="stroke-width:1.07;stroke:#000000;stroke-opacity:0.10;stroke-linecap:butt"/><path d="m49.42 288.68 1.64-.4 1.64-.4 1.64-.4 1.63-.4 1.64-.4 1.64-.4 1.63-.4 1.64-.4 1.63-.4 1.64-.41 1.63-.4 1.63-.4 1.64-.41 1.63-.4 1.63-.41 1.63-.41 1.63-.4 1.63-.41 1.63-.41 1.63-.41 1.63-.41 1.63-.41 1.63-.41 1.63-.41 1.62-.41 1.63-.41 1.62-.41 1.63-.42 1.62-.41 1.63-.41 1.62-.42 1.63-.41 1.62-.42 1.62-.42 1.62-.41 1.62-.42 1.62-.42 1.63-.42 1.61-.42 1.62-.42 1.62-.42 1.62-.42 1.62-.42 1.62-.42 1.61-.42 1.62-.42 1.62-.43 1.61-.42 1.62-.43 1.61-.42 1.61-.43 1.62-.42 1.61-.43 1.61-.43 1.61-.42 1.61-.43 1.62-.43 1.61-.43 1.61-.43 1.61-.43 1.6-.43 1.61-.43 1.61-.44 1.61-.43 1.6-.43 1.61-.44 1.61-.43 1.6-.43 1.61-.44 1.6-.44 1.6-.43 1.61-.44 1.6-.44 1.6-.43 1.6-.44 1.61-.44 1.6-.44 1.6-.44 1.6-.44 1.6-.45 1.59-.44 1.6-.44 1.6-.44 1.6-.45 1.59-.44 1.6-.45 1.6-.44 1.59-.45 1.6-.44 1.59-.45 1.6-.45 1.59-.44 1.59-.45 1.59-.45 1.6-.45 1.59-.45 1.59-.45 1.59-.45 1.59-.46M49.42 288.68l1.59-.45 1.59-.45 1.59-.45 1.59-.45 1.6-.45 1.59-.45 1.59-.45 1.59-.45 1.6-.45 1.59-.44 1.6-.45 1.59-.45 1.6-.44 1.59-.45 1.6-.44 1.6-.44 1.6-.45 1.6-.44 1.59-.44 1.6-.44 1.6-.44 1.6-.44 1.6-.44 1.61-.44 1.6-.44 1.6-.44 1.6-.44 1.61-.43 1.6-.44 1.6-.44 1.61-.43 1.6-.44 1.61-.43 1.61-.43 1.6-.44 1.61-.43 1.61-.43 1.61-.43 1.6-.43 1.61-.44 1.61-.43 1.61-.42 1.61-.43 1.62-.43 1.61-.43 1.61-.43 1.61-.42 1.62-.43 1.61-.43 1.61-.42 1.62-.42 1.61-.43 1.62-.42 1.62-.42 1.61-.43 1.62-.42 1.62-.42 1.62-.42 1.62-.42 1.61-.42 1.62-.42 1.62-.42 1.63-.42 1.62-.41 1.62-.42 1.62-.42 1.62-.41 1.63-.42 1.62-.41 1.63-.42 1.62-.41 1.63-.41 1.62-.41 1.63-.42 1.62-.41 1.63-.41 1.63-.41 1.63-.41 1.63-.41 1.63-.41 1.63-.4 1.63-.41 1.63-.41 1.63-.41 1.63-.4 1.63-.41 1.63-.4 1.64-.41 1.63-.4 1.64-.4 1.63-.4 1.64-.41 1.63-.4 1.64-.4 1.64-.4 1.63-.4 1.64-.4 1.64-.4 1.64-.4" style="stroke-width:1.07;stroke:#000000;stroke-opacity:0.10;stroke-linecap:butt"/><path d="m49.42 288.68 1.54-.51 1.55-.5 1.54-.5 1.54-.5 1.55-.5 1.55-.5 1.55-.49 1.55-.5 1.55-.49 1.56-.49 1.55-.49 1.56-.49 1.56-.48 1.56-.49 1.56-.48 1.56-.48 1.57-.48 1.57-.48 1.56-.47 1.57-.48 1.57-.47 1.58-.47 1.57-.47 1.58-.47 1.57-.46 1.58-.47 1.58-.46 1.58-.46 1.58-.46 1.59-.46 1.58-.45 1.59-.46 1.59-.45 1.59-.45 1.59-.45 1.6-.45 1.59-.45 1.6-.44 1.59-.44 1.6-.45 1.6-.44 1.61-.43 1.6-.44 1.61-.44 1.6-.43 1.61-.43 1.61-.43 1.61-.43 1.61-.42 1.62-.43 1.62-.42 1.61-.42 1.62-.42 1.62-.42 1.62-.42 1.63-.42 1.62-.41 1.63-.41 1.63-.41 1.62-.41 1.64-.41 1.63-.4 1.63-.41 1.64-.4 1.63-.4 1.64-.4 1.64-.39 1.64-.4 1.65-.39 1.64-.4 1.65-.39 1.64-.38 1.65-.39 1.65-.39 1.65-.38 1.66-.38 1.65-.38 1.66-.38 1.66-.38 1.66-.38 1.66-.37 1.66-.37 1.66-.37 1.67-.37 1.66-.37 1.67-.37 1.67-.36 1.67-.36 1.68-.37 1.67-.36 1.68-.35 1.67-.36 1.68-.35 1.68-.36 1.69-.35 1.68-.35 1.68-.34 1.69-.35 1.69-.35" style="stroke-width:1.07;stroke:#000000;stroke-opacity:0.10;stroke-linecap:butt"/><path d="m49.42 288.68 1.49-.56 1.5-.56 1.5-.55 1.49-.55 1.51-.55 1.5-.54 1.51-.55 1.51-.54 1.51-.53 1.51-.54 1.52-.53 1.52-.53 1.52-.52 1.52-.53 1.53-.52 1.53-.52 1.53-.51 1.54-.51 1.53-.51 1.54-.51 1.54-.5 1.55-.51 1.55-.49 1.54-.5 1.56-.49 1.55-.49 1.56-.49 1.56-.49 1.56-.48 1.56-.48 1.57-.48 1.57-.47 1.57-.47 1.58-.47 1.57-.47 1.58-.46 1.58-.46 1.59-.46 1.58-.45 1.59-.46 1.6-.45 1.59-.44 1.6-.45 1.6-.44 1.6-.44 1.6-.43 1.61-.44 1.61-.43 1.61-.42 1.61-.43 1.62-.42 1.62-.42 1.62-.42 1.63-.41 1.62-.41 1.63-.41 1.63-.41 1.64-.4 1.64-.4 1.63-.4 1.65-.39 1.64-.4 1.65-.39 1.65-.38 1.65-.39 1.65-.38 1.66-.38 1.66-.37 1.66-.38 1.66-.37 1.67-.36 1.67-.37 1.67-.36 1.68-.36 1.67-.36 1.68-.35 1.69-.35 1.68-.35 1.69-.35 1.69-.34 1.69-.34 1.69-.34 1.7-.33 1.7-.33 1.7-.33 1.7-.33 1.71-.32 1.71-.32 1.71-.32 1.72-.32 1.71-.31 1.72-.31 1.72-.31 1.73-.3 1.73-.31 1.72-.29 1.74-.3 1.73-.29 1.74-.3" style="stroke-width:1.07;stroke:#000000;stroke-opacity:0.10;stroke-linecap:butt"/><path d="m49.42 288.68 1.45-.61 1.44-.61 1.45-.61 1.45-.6 1.46-.59 1.46-.6 1.47-.59 1.46-.58 1.47-.59 1.48-.57 1.48-.58 1.48-.57 1.48-.56 1.49-.57 1.49-.56 1.5-.55 1.5-.55 1.5-.55 1.5-.54 1.51-.54 1.52-.54 1.51-.53 1.52-.53 1.52-.52 1.53-.53 1.53-.51 1.54-.52 1.53-.5 1.54-.51 1.55-.5 1.55-.5 1.55-.49 1.55-.49 1.56-.49 1.56-.48 1.57-.48 1.57-.48 1.57-.47 1.57-.46 1.58-.47 1.59-.46 1.58-.45 1.59-.45 1.6-.45 1.59-.45 1.6-.44 1.61-.43 1.6-.44 1.61-.42 1.62-.43 1.62-.42 1.62-.42 1.62-.41 1.63-.41 1.63-.41 1.64-.4 1.64-.4 1.64-.39 1.64-.39 1.65-.39 1.66-.38 1.65-.38 1.66-.38 1.67-.37 1.66-.36 1.67-.37 1.68-.36 1.67-.35 1.69-.36 1.68-.35 1.69-.34 1.69-.34 1.69-.34 1.7-.33 1.7-.33 1.71-.33 1.71-.32 1.71-.32 1.72-.31 1.72-.31 1.72-.31 1.72-.3 1.73-.3 1.74-.29 1.73-.29 1.74-.29 1.75-.28 1.75-.28 1.75-.28 1.75-.27 1.76-.27 1.76-.26 1.77-.26 1.76-.26 1.78-.25 1.77-.25 1.78-.25 1.78-.24 1.79-.24" style="stroke-width:1.07;stroke:#000000;stroke-opacity:0.10;stroke-linecap:butt"/><path d="m49.42 288.68 1.4-.67 1.39-.66 1.41-.65 1.4-.65 1.42-.65 1.41-.64 1.42-.64 1.43-.63 1.43-.63 1.43-.62 1.44-.62 1.44-.61 1.45-.61 1.45-.6 1.46-.6 1.46-.59 1.47-.58 1.47-.59 1.47-.58 1.48-.57 1.49-.57 1.48-.56 1.5-.56 1.49-.55 1.51-.55 1.5-.54 1.51-.54 1.52-.53 1.52-.53 1.52-.52 1.53-.52 1.53-.52 1.54-.5 1.54-.51 1.55-.5 1.55-.49 1.56-.49 1.56-.48 1.56-.48 1.57-.48 1.58-.47 1.58-.46 1.58-.46 1.59-.45 1.59-.45 1.59-.45 1.6-.44 1.61-.43 1.61-.43 1.61-.43 1.62-.42 1.63-.41 1.62-.41 1.64-.41 1.63-.4 1.64-.4 1.65-.39 1.65-.38 1.65-.38 1.66-.38 1.67-.37 1.67-.36 1.67-.37 1.68-.35 1.68-.35 1.68-.35 1.7-.34 1.69-.34 1.7-.33 1.7-.33 1.71-.32 1.72-.31 1.71-.32 1.73-.3 1.72-.3 1.73-.3 1.74-.29 1.74-.29 1.75-.28 1.75-.28 1.75-.27 1.76-.27 1.76-.26 1.77-.26 1.77-.25 1.78-.25 1.78-.24 1.78-.24 1.79-.24 1.8-.22 1.79-.23 1.81-.22 1.81-.21 1.81-.21 1.82-.2 1.82-.2 1.82-.19 1.83-.19 1.84-.19" style="stroke-width:1.07;stroke:#000000;stroke-opacity:0.10;stroke-linecap:butt"/><path d="m49.42 288.68 1.35-.72 1.35-.71 1.35-.71 1.36-.7 1.37-.7 1.37-.69 1.38-.68 1.38-.68 1.39-.67 1.4-.67 1.4-.66 1.4-.65 1.41-.65 1.42-.64 1.42-.63 1.43-.63 1.43-.63 1.44-.61 1.44-.62 1.45-.6 1.46-.6 1.46-.59 1.46-.59 1.47-.58 1.48-.58 1.48-.57 1.49-.56 1.49-.56 1.5-.55 1.51-.55 1.51-.53 1.51-.54 1.52-.53 1.53-.52 1.53-.51 1.54-.51 1.54-.5 1.55-.5 1.55-.49 1.56-.49 1.57-.48 1.57-.47 1.57-.47 1.58-.46 1.59-.45 1.59-.45 1.6-.45 1.61-.43 1.6-.43 1.62-.43 1.62-.42 1.62-.41 1.63-.41 1.64-.4 1.64-.39 1.65-.39 1.65-.38 1.66-.38 1.66-.37 1.67-.37 1.68-.36 1.68-.35 1.68-.35 1.7-.34 1.69-.33 1.71-.33 1.7-.32 1.72-.32 1.72-.31 1.72-.31 1.73-.29 1.73-.3 1.75-.28 1.74-.28 1.75-.28 1.76-.27 1.76-.26 1.77-.26 1.78-.25 1.78-.24 1.78-.24 1.79-.23 1.8-.23 1.8-.22 1.8-.21 1.82-.21 1.81-.21 1.83-.19 1.83-.19 1.83-.19 1.84-.18 1.85-.17 1.85-.16 1.85-.16 1.87-.16 1.86-.15 1.88-.14 1.87-.14 1.89-.13" style="stroke-width:1.07;stroke:#000000;stroke-opacity:0.10;stroke-linecap:butt"/><path d="m49.42 288.68 1.3-.77 1.3-.77 1.31-.76 1.31-.75 1.33-.75 1.32-.73 1.34-.73 1.34-.73 1.35-.71 1.35-.71 1.36-.71 1.37-.69 1.37-.69 1.38-.68 1.39-.67 1.39-.67 1.4-.66 1.41-.65 1.41-.65 1.42-.64 1.43-.63 1.43-.62 1.44-.62 1.44-.61 1.46-.6 1.45-.6 1.47-.58 1.47-.59 1.48-.57 1.48-.57 1.49-.56 1.5-.55 1.5-.55 1.51-.53 1.52-.54 1.52-.52 1.53-.52 1.54-.51 1.54-.5 1.55-.5 1.56-.49 1.56-.48 1.57-.47 1.57-.47 1.59-.46 1.58-.46 1.6-.44 1.6-.44 1.61-.43 1.61-.43 1.62-.42 1.63-.41 1.63-.4 1.65-.4 1.64-.39 1.66-.38 1.66-.37 1.66-.37 1.67-.36 1.68-.36 1.69-.34 1.69-.34 1.7-.34 1.71-.32 1.71-.32 1.72-.31 1.72-.31 1.73-.29 1.74-.29 1.74-.29 1.75-.27 1.76-.27 1.77-.26 1.77-.26 1.77-.24 1.79-.24 1.79-.24 1.79-.22 1.81-.22 1.8-.21 1.82-.21 1.82-.2 1.83-.19 1.84-.18 1.84-.18 1.85-.16 1.85-.17 1.86-.15 1.87-.15 1.88-.14 1.88-.13 1.88-.13 1.9-.12 1.9-.11 1.91-.11 1.91-.09 1.92-.1 1.92-.08 1.94-.08" style="stroke-width:1.07;stroke:#000000;stroke-opacity:0.10;stroke-linecap:butt"/><path d="m49.42 288.68 1.25-.83 1.25-.82 1.27-.81 1.26-.8 1.28-.79 1.29-.79 1.29-.78 1.3-.77 1.3-.76 1.32-.75 1.32-.74 1.33-.74 1.33-.73 1.35-.72 1.35-.71 1.36-.71 1.37-.69 1.37-.69 1.38-.68 1.39-.67 1.4-.66 1.4-.66 1.41-.64 1.42-.64 1.43-.63 1.44-.62 1.44-.62 1.45-.6 1.45-.6 1.47-.59 1.47-.58 1.48-.57 1.48-.57 1.5-.55 1.5-.55 1.51-.54 1.52-.53 1.52-.53 1.53-.51 1.54-.51 1.55-.5 1.55-.49 1.57-.48 1.56-.47 1.58-.47 1.59-.46 1.59-.45 1.6-.44 1.6-.43 1.62-.43 1.62-.41 1.63-.41 1.64-.4 1.64-.4 1.65-.38 1.66-.38 1.67-.36 1.67-.36 1.68-.35 1.69-.35 1.7-.33 1.7-.33 1.72-.32 1.72-.31 1.72-.3 1.74-.29 1.74-.29 1.75-.28 1.75-.26 1.77-.27 1.77-.25 1.78-.24 1.79-.24 1.79-.23 1.8-.22 1.81-.21 1.82-.2 1.82-.2 1.84-.18 1.83-.18 1.85-.17 1.86-.17 1.86-.15 1.87-.15 1.87-.14 1.89-.13 1.89-.12 1.9-.11 1.91-.11 1.91-.09 1.92-.09 1.93-.08 1.94-.07 1.94-.07 1.96-.05 1.95-.05 1.97-.04 1.98-.03 1.98-.03" style="stroke-width:1.07;stroke:#000000;stroke-opacity:0.10;stroke-linecap:butt"/><path d="m183.37 332.56 8.6 14.9h-17.2zm201.95-122.14 1.91 3.32h-3.83zm-253.51-60.31 4.54 7.86h-9.08z" style="stroke-width:0.71;stroke:none;fill:#00BA38"/><path d="M43.03 295.07h12.78v-12.78H43.03z" style="stroke-width:0.71;stroke:none;fill:#619CFF"/><circle cx="209.24" cy="246.6" r="6.76" style="stroke-width:0.71;stroke:none;fill:#F8766D"/><circle cx="196.41" cy="414.31" r="1.42" style="stroke-width:0.71;stroke:none;fill:#F8766D"/><circle cx="205.23" cy="456.32" r="1.42" style="stroke-width:0.71;stroke:none;fill:#F8766D"/><path d="m178.56 347.23 4-3.94m-55.47-183.3 3.91-3.84m83.32 85.76-4.24 3.92m-8.73 163.84-4.11 3.86m12.94 38.13-4.12 3.88" style="stroke-width:0.53;stroke:#BFBFBF"/><path d="M135.01 358.58h73.49-.08l.34-.02.34-.07.33-.12.3-.17.27-.22.23-.26.19-.3.13-.32.08-.33.03-.35h0v-7.03h0l-.03-.35-.08-.33-.13-.32-.19-.3-.23-.26-.27-.22-.3-.17-.33-.12-.34-.07-.26-.02h-73.49l.26.02-.34-.02-.35.05-.33.09-.32.15-.28.2-.25.24-.21.28-.16.3-.11.33-.06.35-.01.17v7.03l.01-.18v.35l.06.35.11.33.16.3.21.28.25.24.28.2.32.15.33.1.35.04z" style="stroke-width:0.53;fill:#FFFFFF;fill-opacity:0.50"/><text x="171.76" y="354.98" lengthAdjust="spacingAndGlyphs" style="font-size:5.69px;font-family:&quot;Liberation Sans&quot;" text-anchor="middle" textLength="70.61">NORA INVESTMENTS LLC</text><path d="M305.57 218.3h72.9-.08l.34-.02.35-.07.32-.12.3-.17.27-.22.23-.26.19-.3.13-.32.09-.33.02-.35h0v-7.03h0l-.02-.34-.09-.34-.13-.32-.19-.3-.23-.26-.27-.22-.3-.17-.32-.12-.35-.07-.26-.02h-72.9l.26.02-.34-.02-.35.05-.33.09-.32.15-.28.2-.25.24-.21.28-.16.31-.11.32-.06.35-.01.17v7.03l.01-.17v.34l.06.35.11.33.16.3.21.28.25.24.28.2.32.15.33.1.35.04z" style="stroke-width:0.53;fill:#FFFFFF;fill-opacity:0.50"/><text x="342.02" y="214.7" lengthAdjust="spacingAndGlyphs" style="font-size:5.69px;font-family:&quot;Liberation Sans&quot;" text-anchor="middle" textLength="70.02">NARA INVESTMENTS LLC</text><path d="M90.7 171.34h59.22-.09l.35-.01.34-.07.32-.13.3-.17.27-.22.23-.26.19-.29.14-.32.08-.34.03-.35h0v-7.03h0l-.03-.34-.08-.34-.14-.32-.19-.29-.23-.26-.27-.22-.3-.18-.32-.12-.34-.07-.26-.02H90.7l.26.02-.35-.01-.35.04-.33.1-.31.14-.29.2-.25.24-.21.28-.16.31-.11.33-.06.34v7.2-.17.35l.06.34.11.33.16.31.21.27.25.25.29.19.31.15.33.1.35.04z" style="stroke-width:0.53;fill:#FFFFFF;fill-opacity:0.50"/><text x="120.31" y="167.74" lengthAdjust="spacingAndGlyphs" style="font-size:5.69px;font-family:&quot;Liberation Sans&quot;" text-anchor="middle" textLength="56.34">EUGENE NAYZBERG</text><path d="M56.25 302.55h68.42-.08l.34-.01.34-.07.33-.13.3-.17.27-.22.23-.26.19-.29.13-.32.08-.34.03-.35h0v-23.41h0l-.03-.35-.08-.34-.13-.32-.19-.29-.23-.26-.27-.22-.3-.17-.33-.13-.34-.07-.26-.01H56.25l.26.01-.35-.01-.34.04-.33.1-.32.15-.29.19-.25.24-.2.28-.17.31-.11.33-.05.34-.01.18v23.41l.01-.17v.35l.05.34.11.33.17.31.2.27.25.25.29.19.32.15.33.1.34.04z" style="stroke-width:0.53;fill:#FFFFFF;fill-opacity:0.50"/><text x="90.46" y="282.56" lengthAdjust="spacingAndGlyphs" style="font-size:5.69px;font-family:&quot;Liberation Sans&quot;" text-anchor="middle" textLength="65.54">4102 W CHERRYWOOD</text><text x="90.46" y="290.76" lengthAdjust="spacingAndGlyphs" style="font-size:5.69px;font-family:&quot;Liberation Sans&quot;" text-anchor="middle" textLength="55.46">LN, MILWAUKEE, WI</text><text x="90.46" y="298.95" lengthAdjust="spacingAndGlyphs" style="font-size:5.69px;font-family:&quot;Liberation Sans&quot;" text-anchor="middle" textLength="18.11">53209</text><path d="M195.74 241.91h68.42-.08l.34-.02.34-.06.33-.13.3-.17.27-.22.23-.26.19-.3.13-.32.09-.33.02-.35h0v-23.42h0l-.02-.34-.09-.34-.13-.32-.19-.29-.23-.26-.27-.22-.3-.18-.33-.12-.34-.07-.26-.02h-68.42l.26.02-.34-.01-.35.04-.33.09-.32.15-.28.2-.25.24-.21.28-.16.31-.12.33-.05.34-.01.17v23.42l.01-.17v.34l.05.35.12.33.16.3.21.28.25.24.28.2.32.15.33.1.35.04z" style="stroke-width:0.53;fill:#FFFFFF;fill-opacity:0.50"/><text x="229.95" y="221.92" lengthAdjust="spacingAndGlyphs" style="font-size:5.69px;font-family:&quot;Liberation Sans&quot;" text-anchor="middle" textLength="65.54">4102 W CHERRYWOOD</text><text x="229.95" y="230.12" lengthAdjust="spacingAndGlyphs" style="font-size:5.69px;font-family:&quot;Liberation Sans&quot;" text-anchor="middle" textLength="55.46">LN, MILWAUKEE, WI</text><text x="229.95" y="238.31" lengthAdjust="spacingAndGlyphs" style="font-size:5.69px;font-family:&quot;Liberation Sans&quot;" text-anchor="middle" textLength="18.11">53209</text><path d="M176.5 409.67h72.02l-.08-.01.35-.01.34-.07.32-.12.3-.18.27-.22.23-.26.19-.29.13-.32.09-.34.02-.34h0v-15.23h0l-.02-.34-.09-.34-.13-.32-.19-.29-.23-.26-.27-.22-.3-.18-.32-.12-.34-.07-.27-.02H176.5l.26.02-.35-.01-.35.04-.33.1-.31.14-.29.2-.25.24-.21.28-.16.31-.11.33-.06.34v15.4-.18.35l.06.34.11.33.16.31.21.28.25.24.29.2.31.15.33.09.35.04z" style="stroke-width:0.53;fill:#FFFFFF;fill-opacity:0.50"/><text x="212.51" y="397.87" lengthAdjust="spacingAndGlyphs" style="font-size:5.69px;font-family:&quot;Liberation Sans&quot;" text-anchor="middle" textLength="69.15">4602 CHERRYWOOD LN,</text><text x="212.51" y="406.07" lengthAdjust="spacingAndGlyphs" style="font-size:5.69px;font-family:&quot;Liberation Sans&quot;" text-anchor="middle" textLength="64.34">MILWAUKEE, WI 53209</text><path d="M185.3 451.66h72.03-.09l.35-.01.34-.07.33-.13.3-.17.27-.22.23-.26.18-.29.14-.32.08-.34.03-.35h0v-15.22h0l-.03-.35-.08-.33-.14-.32-.18-.3-.23-.26-.27-.22-.3-.17-.33-.12-.34-.07-.26-.02H185.3l.26.02-.34-.02-.35.04-.33.1-.32.15-.28.2-.25.24-.21.28-.16.3-.11.33-.06.35-.01.17v15.22l.01-.17v.35l.06.34.11.33.16.31.21.27.25.25.28.19.32.15.33.1.35.04z" style="stroke-width:0.53;fill:#FFFFFF;fill-opacity:0.50"/><text x="221.32" y="439.87" lengthAdjust="spacingAndGlyphs" style="font-size:5.69px;font-family:&quot;Liberation Sans&quot;" text-anchor="middle" textLength="69.15">4102 CHERRYWOOD LN,</text><text x="221.32" y="448.06" lengthAdjust="spacingAndGlyphs" style="font-size:5.69px;font-family:&quot;Liberation Sans&quot;" text-anchor="middle" textLength="64.34">MILWAUKEE, WI 53209</text></g><g clip-path="url(#cpMC4wMHw0MzIuMDB8MC4wMHw1MDQuMDA=)"><circle cx="122.24" cy="115.22" r="1.95" style="stroke-width:0.71;stroke:none;fill:#F8766D"/><path d="m198.59 112.18 2.63 4.56h-5.26z" style="stroke-width:0.71;stroke:none;fill:#00BA38"/><path d="M264.57 117.18h3.91v-3.91h-3.91z" style="stroke-width:0.71;stroke:none;fill:#619CFF"/><text x="136.36" y="118.25" lengthAdjust="spacingAndGlyphs" style="font-size:8.80px;font-family:&quot;Liberation Sans Narrow&quot;" textLength="48.12">mprop address</text><text x="212.71" y="118.25" lengthAdjust="spacingAndGlyphs" style="font-size:8.80px;font-family:&quot;Liberation Sans Narrow&quot;" textLength="39.69">owner name</text><text x="280.64" y="118.25" lengthAdjust="spacingAndGlyphs" style="font-size:8.80px;font-family:&quot;Liberation Sans Narrow&quot;" textLength="40.5">wdfi address</text><text x="32.63" y="83.67" lengthAdjust="spacingAndGlyphs" style="font-size:12.00px;font-family:&quot;Liberation Sans Narrow&quot;" textLength="252.23">includes 18 parcels, 19 units, and 3 distinct owner names.</text><text x="32.63" y="42.27" lengthAdjust="spacingAndGlyphs" style="font-size:18.00px;font-weight:bold;font-family:&quot;Liberation Sans Narrow&quot;" textLength="350.68">NORA INVESTMENTS LLC -- EUGENE NAYZBERG</text><text x="32.63" y="61.71" lengthAdjust="spacingAndGlyphs" style="font-size:18.00px;font-weight:bold;font-family:&quot;Liberation Sans Narrow&quot;" textLength="246.23">-- NARA INVESTMENTS LLC Group</text></g></svg>