<svg xmlns="http://www.w3.org/2000/svg" width="384" height="384" class="svglite" viewBox="0 0 288 288"><defs><style>.svglite circle,.svglite line,.svglite polygon,.svglite polyline,.svglite rect{fill:none;stroke:#000;stroke-linecap:round;stroke-linejoin:round;stroke-miterlimit:10}.svglite text{white-space:pre}</style></defs><rect width="100%" height="100%" style="stroke:none;fill:#fff"/><defs><clipPath id="cpMC4wMHwyODguMDB8MC4wMHwyODguMDA="><path d="M0 0h288v288H0z"/></clipPath></defs><g clip-path="url(#cpMC4wMHwyODguMDB8MC4wMHwyODguMDA=)"><path d="M0 0h288v288H0z" style="stroke-width:1.07;stroke:none;fill:#fff"/></g><defs><clipPath id="cpMzIuNjN8MjU4LjExfDEyMC44NnwyNTUuMzc="><path d="M32.63 120.86h225.48v134.51H32.63z"/></clipPath></defs><g clip-path="url(#cpMzIuNjN8MjU4LjExfDEyMC44NnwyNTUuMzc=)"><path d="m247.86 229.03-1.32.2-1.33.21-1.32.2-1.32.2-1.33.21-1.32.2-1.33.21-1.32.2-1.32.21-1.33.2-1.32.2-1.33.21-1.32.2-1.32.21-1.33.2-1.32.21-1.33.2-1.32.2-1.32.21-1.33.2-1.32.21-1.33.2-1.32.21-1.32.2-1.33.21-1.32.2-1.33.2-1.32.21-1.32.2-1.33.21-1.32.2-1.33.21-1.32.2-1.32.2-1.33.21-1.32.2-1.33.21-1.32.2-1.32.21-1.33.2-1.32.21-1.33.2-1.32.2-1.32.21-1.33.2-1.32.21-1.33.2-1.32.21-1.32.2-1.33.2-1.32.21-1.33.2-1.32.21-1.32.2-1.33.21-1.32.2-1.33.21-1.32.2-1.32.2-1.33.21-1.32.2-1.33.21-1.32.2-1.32.21-1.33.2-1.32.2-1.33.21-1.32.2-1.32.21-1.33.2-1.32.21-1.33.2-1.32.2-1.32.21-1.33.2-1.32.21-1.33.2-1.32.21-1.32.2-1.33.21-1.32.2-1.33.2-1.32.21-1.32.2-1.33.21-1.32.2-1.33.21-1.32.2-1.32.2-1.33.21-1.32.2-1.33.21-1.32.2-1.32.21-1.33.2-1.32.21-1.33.2-1.32.2-1.33.21M247.86 229.03l-2.07-.31-2.07-.32-2.07-.31-2.07-.31-2.07-.31-2.07-.31-2.07-.31-2.07-.31-2.07-.31-2.07-.31-2.07-.31-2.07-.32-2.07-.31-2.08-.31-2.07-.31-2.07-.31-2.07-.31-2.07-.31-2.07-.31-2.07-.31-2.07-.32-2.07-.31-2.07-.31-2.07-.31-2.07-.31-2.07-.31-2.07-.31-2.07-.31-2.07-.31-2.07-.31-2.07-.32-2.08-.31-2.07-.31-2.07-.31-2.07-.31-2.07-.31-2.07-.31-2.07-.31-2.07-.31-2.07-.32-2.07-.31-2.07-.31-2.07-.31-2.07-.31-2.07-.31-2.07-.31-2.07-.31-2.07-.31-2.07-.31-2.08-.32-2.07-.31-2.07-.31-2.07-.31-2.07-.31-2.07-.31-2.07-.31-2.07-.31-2.07-.31-2.07-.31-2.07-.32-2.07-.31-2.07-.31-2.07-.31-2.07-.31-2.07-.31-2.07-.31-2.08-.31-2.07-.31-2.07-.32-2.07-.31-2.07-.31-2.07-.31-2.07-.31-2.07-.31-2.07-.31-2.07-.31-2.07-.31-2.07-.31-2.07-.32-2.07-.31-2.07-.31-2.07-.31-2.07-.31-2.07-.31-2.08-.31-2.07-.31-2.07-.31-2.07-.32-2.07-.31-2.07-.31-2.07-.31-2.07-.31-2.07-.31-2.07-.31-2.07-.31-2.07-.31-2.07-.31-2.07-.32-2.07-.31" style="stroke-width:1.07;stroke:#000;stroke-opacity:.1;stroke-linecap:butt"/><path d="m100.05 126.98-.59 1.27-.57 1.27-.55 1.26-.54 1.27-.52 1.27-.51 1.26-.49 1.27-.48 1.27-.46 1.26-.45 1.26-.43 1.27-.42 1.26-.4 1.26-.38 1.26-.37 1.26-.35 1.26-.34 1.26-.33 1.25-.3 1.26-.3 1.26-.27 1.25-.26 1.26-.25 1.25-.23 1.26-.22 1.25-.2 1.25-.18 1.25-.17 1.25-.16 1.25-.13 1.25-.13 1.25-.11 1.25-.09 1.25-.08 1.24-.06 1.25-.04 1.24-.03 1.25-.02 1.24v1.25l.02 1.24.03 1.24.04 1.24.06 1.24.08 1.24.09 1.24.11 1.24.12 1.23.14 1.24.15 1.24.17 1.23.19 1.24.2 1.23.21 1.23.23 1.23.25 1.24.26 1.23.28 1.23.29 1.23.31 1.23.32 1.22.34 1.23.35 1.23.37 1.22.39 1.23.4 1.22.41 1.23.43 1.22.45 1.22.46 1.22.48 1.23.49 1.22.51 1.22.52 1.21.54 1.22.55 1.22.57 1.22.58 1.21.6 1.22.62 1.21.63 1.22.65 1.21.66 1.21.67 1.21.7 1.22.7 1.21.73 1.21.74 1.21.75 1.2.77 1.21.78 1.21.8 1.2.82 1.21.83 1.2.84 1.21.87 1.2.87 1.2.89 1.21.91 1.2.92 1.2M100.05 126.98l-1.02.6-1.01.6-1 .61-.99.61-.98.61-.97.61-.96.62-.96.62-.94.62-.94.62-.92.63-.92.62-.91.63-.9.64-.89.63-.89.64-.87.64-.86.64-.86.65-.85.65-.83.65-.83.65-.82.65-.81.66-.8.66-.8.66-.78.66-.77.67-.77.67-.76.67-.74.68-.74.67-.73.68-.72.68-.72.69-.7.68-.69.69-.69.69-.67.69-.67.7-.66.7-.65.7-.64.7-.63.71-.62.7-.62.71-.6.72-.6.71-.58.72-.58.72-.57.72-.56.73-.55.72-.54.73-.53.73-.53.74-.51.73-.51.74-.49.75-.49.74-.48.75-.47.74-.46.76-.45.75-.45.75-.43.76-.42.76-.42.77-.41.76-.4.77-.39.77-.38.77-.37.78-.36.78-.35.78-.35.78-.33.78-.33.79-.32.79-.3.79-.3.8-.29.8-.29.79-.27.81-.26.8-.26.81-.24.81-.24.81-.23.81-.22.82-.21.82-.2.82-.19.82-.18.83-.18.83-.16.83-.16.83-.14.84-.14.83" style="stroke-width:1.07;stroke:#000;stroke-opacity:.1;stroke-linecap:butt"/><path d="m100.05 126.98-.29 1.25-.27 1.26-.27 1.25-.25 1.26-.25 1.25-.23 1.26-.23 1.25-.22 1.25-.21 1.26-.2 1.25-.19 1.25-.18 1.25-.18 1.25-.16 1.25-.15 1.25-.15 1.25-.13 1.25-.13 1.25-.12 1.25-.1 1.25-.1 1.24-.09 1.25-.08 1.25-.07 1.24-.07 1.25-.05 1.24-.04 1.25-.03 1.24-.03 1.25-.02 1.24v2.49l.01 1.24.02 1.24.04 1.24.04 1.24.04 1.24.06 1.24.07 1.24.08 1.24.08 1.24.1 1.24.1 1.24.12 1.24.12 1.23.13 1.24.14 1.24.15 1.23.16 1.24.17 1.23.18 1.24.19 1.23.19 1.24.21 1.23.22 1.23.22 1.24.23 1.23.25 1.23.25 1.23.26 1.23.27 1.23.28 1.23.29 1.23.3 1.23.31 1.23.31 1.23.33 1.23.33 1.22.35 1.23.35 1.23.37 1.23.37 1.22.38 1.23.39 1.22.4 1.23.41 1.22.42 1.22.42 1.23.44 1.22.45 1.22.45 1.22.47 1.23.47 1.22.48 1.22.5 1.22.5 1.22.51 1.22.52 1.22.53 1.22.53 1.21.55 1.22.56 1.22.57 1.22.57 1.21.58 1.22.6 1.21.6 1.22.61 1.21.62 1.22M100.05 126.98l-.84.65-.84.65-.83.65-.83.65-.81.66-.82.65-.81.66-.8.66-.8.66-.79.66-.79.66-.78.67-.78.66-.77.67-.76.67-.76.67-.76.67-.75.68-.74.67-.74.68-.74.68-.72.68-.73.68-.71.68-.72.68-.7.69-.7.68-.7.69-.69.69-.68.69-.68.69-.68.7-.67.69-.66.7-.66.7-.65.7-.65.7-.64.7-.64.7-.63.71-.63.71-.62.7-.61.71-.61.71-.61.72-.59.71-.6.72-.59.71-.58.72-.58.72-.57.72-.57.73-.56.72-.55.72-.55.73-.55.73-.54.73-.53.73-.53.73-.53.74-.51.73-.52.74-.5.74-.51.74-.49.74-.49.74-.49.75-.48.74-.48.75-.47.75-.46.75-.46.75-.45.76-.45.75-.44.76-.44.75-.43.76-.43.76-.42.76-.42.77-.41.76-.41.77-.4.77-.39.76-.39.78-.38.77-.38.77-.37.78-.37.77-.36.78-.36.78-.35.78-.35.78-.34.78-.34.79-.33.79-.32.78-.32.79-.31.79" style="stroke-width:1.07;stroke:#000;stroke-opacity:.1;stroke-linecap:butt"/><path d="m100.05 126.98.02 1.24.02 1.24.02 1.24.03 1.24.03 1.25.03 1.24.04 1.24.04 1.24.04 1.24.05 1.24.05 1.24.05 1.24.05 1.24.06 1.24.06 1.24.07 1.24.07 1.24.07 1.24.07 1.24.08 1.24.08 1.24.08 1.24.09 1.24.09 1.24.09 1.24.09 1.24.1 1.23.1 1.24.11 1.24.1 1.24.11 1.24.12 1.23.12 1.24.12 1.24.12 1.24.12 1.23.13 1.24.14 1.24.13 1.23.14 1.24.14 1.24.14 1.23.15 1.24.15 1.24.16 1.23.15 1.24.16 1.23.17 1.24.16 1.23.17 1.24.17 1.23.18 1.24.18 1.23.18 1.24.18 1.23.19 1.24.19 1.23.19 1.23.2 1.24.2 1.23.2 1.24.21 1.23.21 1.23.21 1.24.22 1.23.21 1.23.23 1.23.22 1.24.23 1.23.23 1.23.23 1.23.24 1.24.24 1.23.24 1.23.25 1.23.25 1.23.25 1.23.25 1.24.26 1.23.26 1.23.27 1.23.27 1.23.27 1.23.27 1.23.28 1.23.28 1.23.28 1.23.29 1.23.28 1.23.3 1.23.29 1.23.3 1.23.3 1.23.31 1.23.3 1.22.31 1.23.32 1.23.32 1.23.31 1.23M100.05 126.98l-.67.69-.66.7-.66.7-.66.69-.66.7-.66.7-.65.7-.66.7-.65.7-.65.7-.64.7-.65.7-.64.7-.64.71-.64.7-.64.7-.64.71-.63.7-.64.71-.63.7-.63.71-.63.7-.62.71-.63.71-.62.7-.62.71-.62.71-.61.71-.62.71-.61.71-.61.71-.61.71-.61.71-.61.72-.6.71-.61.71-.6.71-.6.72-.59.71-.6.72-.59.71-.59.72-.59.72-.59.71-.59.72-.58.72-.59.72-.58.71-.58.72-.57.72-.58.72-.57.72-.58.73-.57.72-.56.72-.57.72-.57.73-.56.72-.56.72-.56.73-.56.72-.55.73-.56.72-.55.73-.55.73-.55.73-.55.72-.54.73-.54.73-.55.73-.54.73-.53.73-.54.73-.53.73-.54.73-.53.74-.53.73-.52.73-.53.74-.52.73-.53.74-.52.73-.51.74-.52.73-.52.74-.51.74-.51.73-.51.74-.51.74-.5.74-.51.74-.5.74-.5.74-.5.74-.49.74-.5.74-.49.75-.49.74-.49.74M100.05 126.98l.32 1.23.31 1.22.32 1.23.31 1.23.31 1.23.3 1.23.3 1.23.3 1.23.29 1.23.3 1.23.29 1.23.28 1.23.28 1.22.28 1.24.28 1.23.28 1.23.27 1.23.26 1.23.27 1.23.26 1.23.26 1.23.25 1.23.25 1.23.25 1.23.25 1.24.24 1.23.24 1.23.24 1.23.23 1.23.23 1.24.23 1.23.23 1.23.22 1.23.22 1.24.21 1.23.21 1.23.21 1.24.21 1.23.2 1.23.2 1.24.2 1.23.19 1.23.19 1.24.19 1.23.18 1.24.18 1.23.18 1.24.18 1.23.17 1.24.17 1.23.17 1.24.16 1.23.16 1.24.16 1.23.15 1.24.15 1.24.15 1.23.14 1.24.14 1.23.14 1.24.14 1.24.13 1.24.13 1.23.12 1.24.13 1.24.12 1.23.11 1.24.12 1.24.11 1.24.11 1.24.1 1.23.1 1.24.1 1.24.09 1.24.1 1.24.09 1.24.08 1.23.08 1.24.08 1.24.08 1.24.07 1.24.08 1.24.06 1.24.07 1.24.06 1.24.06 1.24.05 1.24.05 1.24.05 1.24.05 1.24.04 1.25.04 1.24.04 1.24.03 1.24.03 1.24.03 1.24.03 1.24.02 1.25.01 1.24" style="stroke-width:1.07;stroke:#000;stroke-opacity:.1;stroke-linecap:butt"/><path d="m100.05 126.98-.49.74-.49.74-.5.75-.49.74-.5.74-.5.74-.5.74-.5.74-.5.74-.51.74-.51.74-.51.74-.51.73-.51.74-.52.74-.51.73-.52.74-.52.73-.52.74-.53.73-.52.74-.53.73-.53.73-.53.74-.53.73-.54.73-.53.73-.54.73-.54.73-.54.73-.55.73-.54.73-.55.72-.55.73-.55.73-.55.73-.55.72-.56.73-.56.72-.56.73-.56.72-.56.72-.57.73-.56.72-.57.72-.57.72-.57.73-.58.72-.57.72-.58.72-.58.72-.58.71-.58.72-.59.72-.58.72-.59.71-.59.72-.59.72-.6.71-.59.72-.6.71-.6.72-.6.71-.6.71-.61.71-.6.72-.61.71-.61.71-.61.71-.62.71-.61.71-.62.71-.62.71-.62.71-.62.7-.62.71-.63.71-.63.7-.63.71-.63.7-.63.71-.64.7-.63.71-.64.7-.64.7-.64.71-.65.7-.64.7-.65.7-.65.7-.65.7-.65.7-.66.7-.65.7-.66.7-.66.69-.66.7-.67.7-.66.69M100.05 126.98l.62 1.21.61 1.22.6 1.21.6 1.22.58 1.21.58 1.22.56 1.22.56 1.21.55 1.22.54 1.22.52 1.22.52 1.22.51 1.22.51 1.22.49 1.22.48 1.22.48 1.22.46 1.22.45 1.22.45 1.23.44 1.22.43 1.22.41 1.23.41 1.22.4 1.22.39 1.23.38 1.22.38 1.23.36 1.23.35 1.22.35 1.23.33 1.23.33 1.23.32 1.22.3 1.23.3 1.23.29 1.23.28 1.23.27 1.23.26 1.23.25 1.23.25 1.24.23 1.23.23 1.23.21 1.23.21 1.24.19 1.23.19 1.24.18 1.23.17 1.24.16 1.23.15 1.24.14 1.23.13 1.24.13 1.24.11 1.24.1 1.23.1 1.24.08 1.24.08 1.24.07 1.24.06 1.24.05 1.24.04 1.24.03 1.24.02 1.25.01 1.24v2.48l-.02 1.25-.02 1.24-.04 1.25-.04 1.24-.05 1.25-.06 1.24-.08 1.25-.08 1.25-.09 1.24-.09 1.25-.11 1.25-.12 1.25-.13 1.24-.13 1.25-.15 1.25-.15 1.25-.16 1.25-.18 1.25-.18 1.26-.19 1.25-.2 1.25-.21 1.25-.22 1.26-.22 1.25-.24 1.25-.25 1.26-.25 1.25-.27 1.26-.27 1.25-.29 1.26" style="stroke-width:1.07;stroke:#000;stroke-opacity:.1;stroke-linecap:butt"/><path d="m100.05 126.98-.32.79-.32.79-.32.78-.33.79-.34.79-.34.78-.34.78-.36.78-.35.78-.36.78-.37.78-.38.77-.37.77-.39.78-.39.77-.39.76-.4.77-.41.77-.41.76-.41.77-.42.76-.43.76-.43.76-.44.75-.44.76-.45.75-.46.76-.46.75-.46.75-.47.75-.48.75-.48.74-.48.75-.49.74-.5.74-.5.74-.51.74-.51.74-.52.73-.52.74-.53.73-.54.73-.54.73-.54.73-.55.73-.56.72-.56.73-.57.72-.57.72-.58.72-.58.72-.59.71-.59.72-.6.71-.61.72-.61.71-.61.71-.62.7-.63.71-.63.71-.63.7-.65.7-.64.7-.66.7-.66.7-.66.7-.67.69-.67.7-.68.69-.69.69-.69.69-.69.69-.7.68-.71.69-.71.68-.72.68-.72.69-.73.67-.73.68-.74.68-.75.67-.75.68-.75.67-.76.67-.77.67-.77.67-.78.66-.78.67-.78.66-.8.66-.8.66-.8.66-.81.66-.81.65-.82.66-.83.65-.83.65-.83.65-.84.65M100.05 126.98l.92 1.2.91 1.2.89 1.2.88 1.2.86 1.21.84 1.2.83 1.21.82 1.2.8 1.21.78 1.2.77 1.21.76 1.21.73 1.21.73 1.21.71 1.21.69 1.21.67 1.21.67 1.21.64 1.22.63 1.21.62 1.22.6 1.21.58 1.22.57 1.21.55 1.22.54 1.22.53 1.22.5 1.22.5 1.22.47 1.22.46 1.22.45 1.22.43 1.23.42 1.22.4 1.23.38 1.22.37 1.23.35 1.22.34 1.23.32 1.23.31 1.23.29 1.23.28 1.23.26 1.23.25 1.23.23 1.23.21 1.24.2 1.23.19 1.23.17 1.24.15 1.24.14 1.23.12 1.24.11 1.24.09 1.24.08 1.24.06 1.24.05 1.24.03 1.24.01 1.24v1.24l-.01 1.25-.04 1.24-.04 1.25-.06 1.24-.08 1.25-.09 1.25-.11 1.24-.12 1.25-.14 1.25-.16 1.25-.17 1.25-.18 1.25-.2 1.26-.22 1.25-.23 1.25-.24 1.26-.27 1.25-.27 1.26-.29 1.25-.31 1.26-.33 1.26-.33 1.26-.36 1.26-.37 1.26-.38 1.26-.4 1.26-.42 1.26-.43 1.26-.45 1.27-.46 1.26-.47 1.26-.5 1.27-.5 1.27-.53 1.26-.54 1.27-.55 1.27-.57 1.27-.59 1.27" style="stroke-width:1.07;stroke:#000;stroke-opacity:.1;stroke-linecap:butt"/><path d="m100.05 126.98-.14.83-.15.84-.15.83-.17.83-.17.83-.19.83-.19.82-.2.82-.21.82-.22.82-.23.81-.23.81-.25.81-.25.81-.27.8-.27.81-.28.79-.29.8-.3.8-.31.79-.32.79-.32.79-.34.78-.34.78-.36.78-.36.78-.37.78-.38.77-.39.77-.4.77-.41.76-.41.77-.43.76-.43.76-.44.75-.46.76-.46.75-.47.74-.48.75-.48.75-.5.74-.51.74-.51.73-.52.74-.54.73-.54.73-.55.72-.56.73-.57.72-.57.72-.59.72-.6.71-.6.72-.61.71-.63.7-.63.71-.64.7-.65.7-.66.7-.66.7-.68.69-.68.69-.7.69-.7.68-.71.69-.72.68-.73.68-.74.67-.75.68-.76.67-.76.67-.78.67-.78.66-.79.66-.8.66-.82.66-.82.65-.82.65-.84.65-.85.65-.85.65-.87.64-.87.64-.88.64-.89.63-.9.64-.91.63-.92.62-.93.63-.93.62-.95.62-.95.62-.97.62-.97.61-.98.61-.99.61-1 .61-1.01.6-1.01.6M42.88 198.23l.37.7.37.7.39.69.39.69.4.68.41.68.41.68.43.67.43.67.43.66.45.66.45.66.47.66.46.65.48.64.49.65.49.63.5.64.51.63.51.63.53.62.53.62.53.62.55.61.55.61.57.61.57.6.57.6.59.59.59.59.6.59.61.58.61.58.63.57.63.58.64.56.64.57.66.56.66.55.67.56.68.55.68.54.69.54.7.54.71.54.72.53.72.52.73.53.74.51.75.52.75.51.76.51.77.5.78.5.79.5.79.49.8.49.81.49.81.48.83.48.83.47.84.47.84.47.86.46.86.46.87.46.88.45.88.45.9.44.9.44.9.44.92.43.92.43.94.43.93.42.95.42.96.41.96.41.97.41.98.4.98.4.99.4 1 .39 1.01.39 1.02.38 1.02.38 1.04.38 1.03.37 1.05.37 1.06.37 1.06.36 1.07.36 1.08.35 1.08.35 1.1.35 1.1.34 1.1.34 1.12.34 1.12.33" style="stroke-width:1.07;stroke:#000;stroke-opacity:.1;stroke-linecap:butt"/><path d="m42.88 198.23.49.64.5.64.51.63.51.63.51.63.52.62.53.62.53.63.54.61.54.62.54.61.55.61.56.61.56.6.57.61.57.6.58.6.58.59.59.59.59.59.6.59.6.59.61.58.61.58.62.58.62.57.63.58.64.57.63.56.65.57.65.56.65.56.66.56.66.56.67.55.68.55.68.55.68.54.69.54.7.54.7.54.7.54.71.53.72.53.72.53.73.52.73.53.73.52.75.52.74.51.75.51.76.51.76.51.77.51.77.5.78.5.78.5.79.49.79.5.8.49.8.49.81.48.82.48.81.48.83.48.83.48.83.47.84.47.84.47.85.47.86.46.86.46.86.46.87.45.88.46.88.45.88.44.89.45.9.44.9.44.9.44.91.44.92.43.92.43.93.43.93.42.94.43.94.42.94.41.96.42.95.41.97.41.96.41.98.41.97.4.99.4.98.4 1 .4.99.39" style="stroke-width:1.07;stroke:#000;stroke-opacity:.1;stroke-linecap:butt"/><path d="m42.88 198.23.62.58.62.58.63.57.63.57.63.57.63.57.64.57.63.57.65.57.64.56.65.57.65.56.65.56.65.56.66.56.66.56.66.56.66.55.67.55.67.56.67.55.68.55.67.55.68.55.69.54.68.55.69.54.69.55.69.54.7.54.69.54.7.53.71.54.7.54.71.53.71.53.71.53.72.54.72.52.72.53.72.53.73.52.73.53.73.52.73.52.74.52.74.52.74.52.74.52.75.51.75.52.75.51.75.51.76.51.76.51.76.51.77.51.76.5.77.5.78.51.77.5.78.5.78.5.78.5.78.49.79.5.79.49.8.5.79.49.8.49.8.49.8.49.81.48.81.49.81.48.81.48.82.49.81.48.83.48.82.47.83.48.82.48.84.47.83.47.84.48.83.47.85.46.84.47.85.47.85.47.85.46.85.46.86.46.86.46.86.46.87.46.86.46.87.45.87.46" style="stroke-width:1.07;stroke:#000;stroke-opacity:.1;stroke-linecap:butt"/><path d="m42.88 198.23.74.52.75.51.75.52.74.52.75.51.75.52.74.51.75.52.75.51.74.52.75.51.75.52.74.51.75.52.75.51.74.52.75.52.74.51.75.52.75.51.74.52.75.51.75.52.74.51.75.52.75.51.74.52.75.51.75.52.74.52.75.51.75.52.74.51.75.52.75.51.74.52.75.51.75.52.74.51.75.52.75.51.74.52.75.52.74.51.75.52.75.51.74.52.75.51.75.52.74.51.75.52.75.51.74.52.75.52.75.51.74.52.75.51.75.52.74.51.75.52.75.51.74.52.75.51.75.52.74.51.75.52.75.52.74.51.75.52.75.51.74.52.75.51.74.52.75.51.75.52.74.51.75.52.75.51.74.52.75.52.75.51.74.52.75.51.75.52.74.51.75.52.75.51.74.52.75.51.75.52.74.52.75.51.75.52.74.51.75.52.75.51.74.52.75.51.74.52" style="stroke-width:1.07;stroke:#000;stroke-opacity:.1;stroke-linecap:butt"/><path d="m42.88 198.23.87.46.87.45.87.46.86.46.86.46.86.46.86.46.85.46.86.47.85.46.84.47.85.47.84.47.84.47.83.47.84.47.83.48.83.47.82.48.83.48.82.47.82.49.81.48.82.48.81.48.8.49.81.49.8.48.8.49.8.49.8.5.79.49.79.49.79.5.78.49.78.5.78.5.78.5.78.5.77.51.77.5.77.51.76.5.76.51.76.51.76.51.75.51.75.52.75.51.75.51.74.52.75.52.73.52.74.52.73.52.74.52.72.53.73.52.72.53.72.53.72.53.72.53.71.53.71.53.71.54.71.53.7.54.7.54.7.53.69.54.69.55.69.54.69.54.69.55.68.55.68.54.68.55.67.55.67.55.67.56.67.55.66.56.67.55.65.56.66.56.66.56.65.56.65.56.64.57.65.56.64.57.64.57.63.57.64.57.63.57.63.57.62.58.62.57.62.58" style="stroke-width:1.07;stroke:#000;stroke-opacity:.1;stroke-linecap:butt"/><path d="m42.88 198.23 1 .4.99.39.99.4.98.4.98.4.97.41.97.41.96.41.96.41.95.42.94.41.95.43.93.42.93.42.93.43.92.43.92.44.91.43.9.44.91.44.89.44.89.45.89.45.88.45.87.45.87.46.87.45.86.46.85.47.85.46.84.47.84.47.84.47.82.48.83.48.82.48.81.48.81.49.8.48.8.49.79.5.79.49.78.5.78.5.77.5.77.51.76.51.76.51.75.51.75.52.74.51.73.52.73.53.73.52.72.53.72.53.71.53.7.54.7.54.7.54.69.54.68.55.68.54.68.55.67.56.66.55.66.56.66.56.64.56.65.57.64.57.63.57.63.57.62.57.62.58.61.58.61.59.6.58.6.59.59.59.59.59.58.6.58.59.57.6.57.61.56.6.56.61.55.61.54.61.55.62.53.62.53.62.53.62.52.62.51.63.51.63.51.64.5.63.49.64" style="stroke-width:1.07;stroke:#000;stroke-opacity:.1;stroke-linecap:butt"/><path d="m42.88 198.23 1.12.34 1.12.33 1.11.34 1.1.34 1.09.35 1.09.35 1.07.36 1.07.35 1.07.37 1.05.36 1.05.37 1.04.37 1.03.38 1.02.38 1.02.39 1.01.38 1 .4.99.39.99.4.97.4.97.41.97.41.95.42.95.41.94.43.93.42.92.43.92.43.91.44.9.44.89.44.88.45.88.45.87.46.86.46.86.46.85.47.83.47.84.47.82.48.82.48.8.49.8.49.8.49.78.5.78.5.77.5.76.51.75.51.75.52.74.52.73.52.72.53.72.53.71.53.7.54.69.54.69.55.67.54.67.56.66.55.66.56.65.57.63.57.64.57.62.57.61.58.61.58.6.59.59.59.59.6.58.59.57.6.56.61.55.61.55.61.54.62.53.62.52.62.52.63.5.63.5.64.5.64.48.64.48.64.47.66.46.65.45.66.45.66.44.66.43.67.42.67.42.68.4.68.4.69.39.68.39.69.38.7.36.7" style="stroke-width:1.07;stroke:#000;stroke-opacity:.1;stroke-linecap:butt"/><path d="m247.86 226.82 1.92 3.31h-3.83zM100.05 117.19l8.47 14.68H91.57z" style="stroke-width:.71;stroke:none;fill:#00ba38"/><path d="M36.12 204.99h13.51v-13.51H36.12z" style="stroke-width:.71;stroke:none;fill:#619cff"/><circle cx="116.78" cy="249.26" r="6.76" style="stroke-width:.71;stroke:none;fill:#f8766d"/><path d="m47.83 195.66-3.86 2.01M123.24 244.79l-5.51 3.81" style="stroke-width:.53;stroke:#bfbfbf"/><path d="M174.67 238.56h65.98-.08l.34-.01.34-.07.33-.13.3-.17.27-.22.23-.26.19-.29.13-.32.08-.34.03-.35v-15.22l-.03-.35-.08-.33-.13-.32-.19-.3-.23-.26-.27-.22-.3-.17-.33-.12-.34-.07-.26-.02h-65.98l.26.02-.35-.02-.34.04-.33.1-.32.15-.28.2-.26.24-.2.28-.17.3-.11.33-.05.35-.01.17v15.22l.01-.17v.35l.05.34.11.33.17.31.2.27.26.25.28.19.32.15.33.1.34.04z" style="stroke-width:.53;fill:#fff;fill-opacity:.5"/><text x="207.66" y="226.77" lengthAdjust="spacingAndGlyphs" style="font-size:5.69px;font-family:&quot;Liberation Sans&quot;" text-anchor="middle" textLength="63.1">KOENEN APARTMENTS</text><text x="207.66" y="234.96" lengthAdjust="spacingAndGlyphs" style="font-size:5.69px;font-family:&quot;Liberation Sans&quot;" text-anchor="middle" textLength="10.31">LLC</text><path d="M61.09 150.94h78.24-.09l.35-.02.34-.07.32-.12.3-.18.27-.22.23-.26.19-.29.14-.32.08-.34.03-.34v-15.22l-.03-.35-.08-.34-.14-.32-.19-.29-.23-.26-.27-.22-.3-.18-.32-.12-.34-.07-.26-.01H61.09l.26.01-.34-.01-.35.04-.33.1-.32.14-.28.2-.25.24-.21.28-.16.31-.11.33-.06.34-.01.18v15.22l.01-.18v.35l.06.34.11.33.16.31.21.28.25.24.28.2.32.15.33.09.35.05z" style="stroke-width:.53;fill:#fff;fill-opacity:.5"/><text x="100.21" y="139.14" lengthAdjust="spacingAndGlyphs" style="font-size:5.69px;font-family:&quot;Liberation Sans&quot;" text-anchor="middle" textLength="75.36">NORTHLAND APARTMENTS</text><text x="100.21" y="147.34" lengthAdjust="spacingAndGlyphs" style="font-size:5.69px;font-family:&quot;Liberation Sans&quot;" text-anchor="middle" textLength="40.16">COMPANY LLC</text><path d="M49.99 206.85h67.22-.09l.35-.01.34-.07.32-.13.31-.17.26-.22.23-.26.19-.29.14-.32.08-.34.03-.35v-23.41l-.03-.35-.08-.34-.14-.32-.19-.29-.23-.26-.26-.22-.31-.18-.32-.12-.34-.07-.26-.01H49.99l.26.01-.35-.01-.34.04-.34.1-.31.14-.29.2-.25.24-.21.28-.16.31-.11.33-.05.34-.01.18v23.41l.01-.17v.35l.05.34.11.33.16.31.21.27.25.24.29.2.31.15.34.1.34.04z" style="stroke-width:.53;fill:#fff;fill-opacity:.5"/><text x="83.6" y="186.86" lengthAdjust="spacingAndGlyphs" style="font-size:5.69px;font-family:&quot;Liberation Sans&quot;" text-anchor="middle" textLength="54.48">2720 N FREDERICK</text><text x="83.6" y="195.06" lengthAdjust="spacingAndGlyphs" style="font-size:5.69px;font-family:&quot;Liberation Sans&quot;" text-anchor="middle" textLength="32.64">AVE, APT 1,</text><text x="83.6" y="203.25" lengthAdjust="spacingAndGlyphs" style="font-size:5.69px;font-family:&quot;Liberation Sans&quot;" text-anchor="middle" textLength="64.34">MILWAUKEE, WI 53211</text><path d="M95.95 244.79h67.22-.09l.35-.01.34-.07.33-.13.3-.17.27-.22.23-.26.18-.29.14-.32.08-.34.03-.35v-23.41l-.03-.35-.08-.34-.14-.32-.18-.29-.23-.26-.27-.22-.3-.18-.33-.12-.34-.07-.26-.01H95.95l.26.01-.35-.01-.34.04-.33.1-.32.15-.29.19-.25.24-.2.28-.17.31-.11.33-.05.34-.01.18v23.41l.01-.17v.35l.05.34.11.33.17.31.2.27.25.24.29.2.32.15.33.1.34.04z" style="stroke-width:.53;fill:#fff;fill-opacity:.5"/><text x="129.56" y="224.8" lengthAdjust="spacingAndGlyphs" style="font-size:5.69px;font-family:&quot;Liberation Sans&quot;" text-anchor="middle" textLength="54.48">2720 N FREDERICK</text><text x="129.56" y="233" lengthAdjust="spacingAndGlyphs" style="font-size:5.69px;font-family:&quot;Liberation Sans&quot;" text-anchor="middle" textLength="32.64">AVE, APT 1,</text><text x="129.56" y="241.19" lengthAdjust="spacingAndGlyphs" style="font-size:5.69px;font-family:&quot;Liberation Sans&quot;" text-anchor="middle" textLength="64.34">MILWAUKEE, WI 53211</text></g><g clip-path="url(#cpMC4wMHwyODguMDB8MC4wMHwyODguMDA=)"><circle cx="52.98" cy="95.78" r="1.95" style="stroke-width:.71;stroke:none;fill:#f8766d"/><path d="m129.33 92.74 2.63 4.56h-5.26z" style="stroke-width:.71;stroke:none;fill:#00ba38"/><path d="M195.31 97.74h3.91v-3.91h-3.91z" style="stroke-width:.71;stroke:none;fill:#619cff"/><text x="67.09" y="98.81" lengthAdjust="spacingAndGlyphs" style="font-size:8.8px;font-family:&quot;Liberation Sans Narrow&quot;" textLength="48.12">mprop address</text><text x="143.45" y="98.81" lengthAdjust="spacingAndGlyphs" style="font-size:8.8px;font-family:&quot;Liberation Sans Narrow&quot;" textLength="39.69">owner name</text><text x="211.38" y="98.81" lengthAdjust="spacingAndGlyphs" style="font-size:8.8px;font-family:&quot;Liberation Sans Narrow&quot;" textLength="40.5">wdfi address</text><text x="32.63" y="64.23" lengthAdjust="spacingAndGlyphs" style="font-size:12px;font-family:&quot;Liberation Sans Narrow&quot;" textLength="252.23">includes 7 parcels, 403 units, and 2 distinct owner names.</text><text x="32.63" y="42.27" lengthAdjust="spacingAndGlyphs" style="font-size:18px;font-weight:700;font-family:&quot;Liberation Sans Narrow&quot;" textLength="357.78">NORTHLAND APARTMENTS COMPANY LLC Group</text></g></svg>