<svg xmlns="http://www.w3.org/2000/svg" width="768" height="768" class="svglite" viewBox="0 0 576 576"><defs><style><![CDATA[.svglite line,.svglite polyline,.svglite polygon,.svglite path,.svglite circle{fill:none;stroke:#000000;stroke-linecap:round;stroke-linejoin:round;stroke-miterlimit:10.00}.svglite text{white-space:pre}]]></style></defs><rect width="100%" height="100%" style="stroke-linecap:round;stroke-linejoin:round;stroke-miterlimit:10.00;stroke:none;fill:#FFFFFF"/><defs><clipPath id="cpMC4wMHw1NzYuMDB8MC4wMHw1NzYuMDA="><path d="M0 0h576v576H0z"/></clipPath></defs><g clip-path="url(#cpMC4wMHw1NzYuMDB8MC4wMHw1NzYuMDA=)"><path d="M0 0h576v576H0z" style="stroke-width:1.07;stroke:none;fill:#FFFFFF"/></g><defs><clipPath id="cpMzIuNjN8NTQ2LjExfDEyMC44Nnw1NDMuMzc="><path d="M32.63 120.86h513.48v422.51H32.63z"/></clipPath></defs><g clip-path="url(#cpMzIuNjN8NTQ2LjExfDEyMC44Nnw1NDMuMzc=)"><path d="m229.79 481-.34.44-.35.44-.34.43-.34.44-.35.43-.34.44-.34.44-.35.43-.34.44-.34.43-.35.44-.34.44-.34.43-.35.44-.34.43-.34.44-.35.44-.34.43-.34.44-.35.43-.34.44-.34.44-.35.43-.34.44-.34.43-.35.44-.34.44-.34.43-.35.44-.34.43-.34.44-.35.44-.34.43-.34.44-.35.43-.34.44-.34.44-.35.43-.34.44-.34.43-.35.44-.34.44-.34.43-.35.44-.34.43-.34.44-.35.44-.34.43-.34.44-.35.43-.34.44-.34.44-.35.43-.34.44-.34.43-.35.44-.34.44-.34.43-.35.44-.34.43-.34.44-.35.44-.34.43-.34.44-.35.43-.34.44-.34.44-.35.43-.34.44-.34.43-.35.44-.34.44-.34.43-.35.44-.34.43-.35.44-.34.44-.34.43-.35.44-.34.43-.34.44-.35.44-.34.43-.34.44-.35.43-.34.44-.34.44-.35.43-.34.44-.34.43-.35.44-.34.44-.34.43-.35.44-.34.43-.34.44-.35.44-.34.43-.34.44m68.39-137.76-.26.46-.26.47-.26.47-.26.47-.26.47-.26.47-.26.46-.26.47-.26.47-.26.47-.26.47-.26.47-.26.46-.26.47-.26.47-.26.47-.26.47-.26.46-.26.47-.26.47-.26.47-.25.47-.26.47-.26.46-.26.47-.26.47-.26.47-.26.47-.26.46-.26.47-.26.47-.26.47-.26.47-.26.47-.26.46-.26.47-.26.47-.26.47-.26.47-.26.46-.26.47-.26.47-.26.47-.26.47-.26.47-.26.46-.25.47-.26.47-.26.47-.26.47-.26.46-.26.47-.26.47-.26.47-.26.47-.26.47-.26.46-.26.47-.26.47-.26.47-.26.47-.26.46-.26.47-.26.47-.26.47-.26.47-.26.47-.26.46-.26.47-.26.47-.26.47-.26.47-.25.47-.26.46-.26.47-.26.47-.26.47-.26.47-.26.46-.26.47-.26.47-.26.47-.26.47-.26.47-.26.46-.26.47-.26.47-.26.47-.26.47-.26.46-.26.47-.26.47-.26.47-.26.47-.26.47-.26.46-.26.47-.25.47-.26.47m25.7-46.35.53.4.54.39.54.4.55.39.55.4.55.39.56.39.56.38.56.39.57.38.57.39.58.38.57.38.59.37.58.38.59.37.59.38.6.37.59.37.61.36.6.37.61.37.61.36.62.36.62.36.62.36.63.35.63.36.64.35.63.35.64.35.65.35.65.35.65.34.65.35.66.34.66.34.67.33.67.34.67.34.68.33.67.33.69.33.68.33.69.33.7.32.69.33.71.32.7.32.71.32.71.31.71.32.72.31.72.31.73.31.72.31.74.31.73.31.74.3.74.3.75.3.75.3.75.3.76.29.76.3.76.29.77.29.77.29.77.29.78.28.78.29.79.28.79.28.79.28.79.28.8.27.8.28.81.27.81.27.81.27.82.27.82.27.82.26.83.26.83.26.83.26.84.26.84.26.84.25.85.26.85.25.86.25.85.25.87.24.86.25.87.24.87.24.88.24.88.24M229.79 481l.09-.48.09-.49.09-.49.08-.48.09-.49.09-.49.09-.49.08-.48.09-.49.09-.49.09-.49.09-.48.08-.49.09-.49.09-.49.09-.48.08-.49.09-.49.09-.48.09-.49.09-.49.08-.49.09-.48.09-.49.09-.49.08-.49.09-.48.09-.49.09-.49.09-.49.08-.48.09-.49.09-.49.09-.48.09-.49.08-.49.09-.49.09-.48.09-.49.08-.49.09-.49.09-.48.09-.49.09-.49.08-.49.09-.48.09-.49.09-.49.08-.48.09-.49.09-.49.09-.49.09-.48.08-.49.09-.49.09-.49.09-.48.08-.49.09-.49.09-.49.09-.48.09-.49.08-.49.09-.48.09-.49.09-.49.09-.49.08-.48.09-.49.09-.49.09-.49.08-.48.09-.49.09-.49.09-.49.09-.48.08-.49.09-.49.09-.48.09-.49.08-.49.09-.49.09-.48.09-.49.09-.49.08-.49.09-.48.09-.49.09-.49.09-.49.08-.48.09-.49.09-.49.09-.48.08-.49.09-.49.09-.49.09-.48.09-.49m116.58-213.88.89-.24.88-.24.88-.24.88-.24.88-.24.88-.24.88-.24.87-.24.87-.25.88-.24.87-.25.86-.24.87-.25.87-.25.86-.25.86-.25.86-.25.86-.25.86-.26.86-.25.85-.26.85-.25.85-.26.85-.26.85-.26.85-.26.84-.26.85-.26.84-.26.84-.27.84-.26.84-.27.83-.26.84-.27.83-.27.83-.27.83-.27.83-.27.83-.27.82-.27.82-.28.83-.27.82-.28.81-.27.82-.28.82-.28.81-.28.81-.28.82-.28.8-.29.81-.28.81-.28.8-.29.81-.28.8-.29.8-.29.8-.29.79-.29.8-.29.79-.29.8-.29.79-.3.79-.29.78-.3.79-.29.78-.3.79-.3.78-.3.78-.3.78-.3.77-.3.78-.31.77-.3.78-.3.77-.31.76-.31.77-.31.77-.3.76-.31.77-.31.76-.32.76-.31.75-.31.76-.32.76-.31.75-.32.75-.31.75-.32.75-.32.75-.32.74-.32.75-.32.74-.33.74-.32.74-.33.74-.32.74-.33.73-.32.73-.33m-80.13 27.96-1.02.19-1.01.19-1.01.2-1.01.19-1.01.2-1.01.2-1.01.2-1 .2-1.01.2-1 .2-1 .21-1 .2-1 .21-.99.2-1 .21-.99.21-1 .21-.99.21-.99.22-.99.21-.99.21-.98.22-.99.22-.98.22-.98.21-.98.22-.98.23-.98.22-.98.22-.97.23-.98.22-.97.23-.97.23-.97.23-.97.23-.97.23-.97.23-.96.23-.96.24-.96.23-.97.24-.95.24-.96.24-.96.24-.95.24-.96.24-.95.24-.95.25-.95.24-.95.25-.95.25-.94.25-.95.25-.94.25-.94.25-.94.25-.94.26-.94.25-.93.26-.94.26-.93.25-.93.26-.93.27-.93.26-.93.26-.93.26-.92.27-.93.27-.92.26-.92.27-.92.27-.92.27-.92.27-.91.28-.92.27-.91.28-.91.27-.91.28-.91.28-.91.28-.91.28-.9.28-.9.28-.91.29-.9.28-.9.29-.89.29-.9.28-.9.29-.89.29-.89.3-.89.29-.89.29-.89.3-.89.29-.89.3-.88.3-.88.3-.89.3m3.01 143.12-.26-.49-.26-.5-.26-.49-.27-.49-.26-.49-.27-.48-.27-.49-.28-.49-.28-.49-.28-.49-.28-.48-.28-.49-.29-.49-.29-.48-.29-.49-.3-.48-.3-.49-.3-.48-.3-.48-.31-.49-.31-.48-.31-.48-.31-.48-.32-.48-.32-.48-.32-.48-.32-.48-.33-.48-.33-.48-.33-.48-.33-.48-.34-.48-.34-.47-.34-.48-.34-.48-.35-.47-.35-.48-.35-.47-.36-.48-.36-.47-.36-.47-.36-.48-.36-.47-.37-.47-.37-.47-.37-.47-.38-.47-.38-.48-.38-.47-.38-.46-.39-.47-.39-.47-.39-.47-.39-.47-.4-.47-.4-.46-.4-.47-.4-.47-.41-.46-.41-.47-.41-.46-.41-.46-.42-.47-.42-.46-.42-.46-.43-.47-.42-.46-.43-.46-.43-.46-.44-.46-.44-.46-.44-.46-.44-.46-.45-.46-.44-.46-.45-.46-.46-.45-.45-.46-.46-.46-.46-.45-.46-.46-.47-.46-.47-.45-.47-.46-.47-.45-.48-.45-.48-.46-.48-.45-.48-.45-.49-.45-.49-.45-.49-.45-.5-.46-.49-.45-.5-.44-.5-.45-.51-.45-.51-.45-.51-.45" style="stroke-width:1.07;stroke:#000000;stroke-opacity:0.10;stroke-linecap:butt"/><path d="m264.19 386.41.7.32.71.31.71.32.71.32.7.32.71.32.71.32.71.32.7.31.71.32.71.32.71.32.7.32.71.32.71.32.71.31.7.32.71.32.71.32.71.32.7.32.71.32.71.31.71.32.7.32.71.32.71.32.71.32.7.32.71.31.71.32.71.32.7.32.71.32.71.32.71.32.7.32.71.31.71.32.71.32.7.32.71.32.71.32.71.32.7.31.71.32.71.32.71.32.7.32.71.32.71.32.71.31.7.32.71.32.71.32.71.32.7.32.71.32.71.31.71.32.7.32.71.32.71.32.71.32.7.32.71.31.71.32.71.32.7.32.71.32.71.32.71.32.7.32.71.31.71.32.71.32.7.32.71.32.71.32.71.32.7.31.71.32.71.32.7.32.71.32.71.32.71.32.7.31.71.32.71.32.71.32.7.32.71.32.71.32.71.31.7.32.71.32.71.32.71.32m-81.11-125.48-.41.46-.39.46-.4.47-.39.46-.39.47-.39.46-.38.47-.39.47-.38.46-.37.47-.38.47-.37.46-.37.47-.36.47-.37.47-.36.47-.36.47-.35.46-.36.47-.35.47-.34.47-.35.47-.34.48-.34.47-.34.47-.33.47-.34.47-.33.47-.32.48-.33.47-.32.47-.32.48-.31.47-.32.48-.31.47-.31.48-.3.47-.31.48-.3.47-.29.48-.3.47-.29.48-.29.48-.29.48-.28.47-.28.48-.28.48-.28.48-.28.48-.27.48-.27.48-.26.48-.26.48-.27.48-.25.48-.26.48-.25.48-.25.48-.25.49-.25.48-.24.48-.24.48-.24.49-.23.48-.23.49-.23.48-.23.48-.22.49-.22.49-.22.48-.22.49-.21.48-.21.49-.21.49-.21.48-.2.49-.2.49-.2.49-.19.49-.19.48-.19.49-.19.49-.18.49-.19.49-.18.49-.17.49-.18.5-.17.49-.17.49-.16.49-.16.49-.17.49-.15.5-.16.49-.15.49-.15.5-.15.49-.14.5-.15.49m26.88-47.45.21-.5.21-.49.21-.49.21-.49.2-.5.21-.49.2-.49.19-.49.2-.5.19-.49.18-.49.19-.5.18-.49.18-.49.18-.5.17-.49.18-.49.16-.5.17-.49.16-.49.16-.5.16-.49.16-.5.15-.49.15-.5.15-.49.14-.49.14-.5.14-.49.14-.5.13-.49.13-.5.13-.49.13-.5.12-.49.12-.5.11-.5.12-.49.11-.5.11-.49.11-.5.1-.49.1-.5.1-.5.09-.49.1-.5.08-.5.09-.49.09-.5.08-.5.08-.49.07-.5.08-.5.07-.49.06-.5.07-.5.06-.49.06-.5.06-.5.05-.5.05-.5.05-.49.05-.5.04-.5.04-.5.04-.5.04-.49.03-.5.03-.5.02-.5.03-.5.02-.5.02-.5.01-.49.02-.5.01-.5.01-.5v-2l-.01-.5-.01-.5-.01-.5-.01-.5-.02-.5-.02-.5-.02-.5-.03-.5-.02-.5-.03-.5-.04-.5-.03-.5-.04-.5-.04-.51-.05-.5-.04-.5-.05-.5-.06-.5m-79.32-33.41-.66-.35-.67-.35-.66-.35-.67-.35-.66-.35-.67-.35-.67-.36-.66-.35-.67-.35-.66-.35-.67-.35-.66-.35-.67-.35-.67-.35-.66-.35-.67-.35-.66-.36-.67-.35-.66-.35-.67-.35-.67-.35-.66-.35-.67-.35-.66-.35-.67-.35-.66-.35-.67-.36-.67-.35-.66-.35-.67-.35-.66-.35-.67-.35-.66-.35-.67-.35-.67-.35-.66-.35-.67-.36-.66-.35-.67-.35-.66-.35-.67-.35-.67-.35-.66-.35-.67-.35-.66-.35-.67-.35-.66-.36-.67-.35-.67-.35-.66-.35-.67-.35-.66-.35-.67-.35-.66-.35-.67-.35-.67-.35-.66-.36-.67-.35-.66-.35-.67-.35-.66-.35-.67-.35-.67-.35-.66-.35-.67-.35-.66-.35-.67-.36-.66-.35-.67-.35-.67-.35-.66-.35-.67-.35-.66-.35-.67-.35-.66-.35-.67-.35-.67-.35-.66-.36-.67-.35-.66-.35-.67-.35-.66-.35-.67-.35-.66-.35-.67-.35-.67-.35-.66-.35-.67-.36-.66-.35-.67-.35-.66-.35-.67-.35-.67-.35-.66-.35-.67-.35-.66-.35-.67-.35-.66-.36-.67-.35" style="stroke-width:1.07;stroke:#000000;stroke-opacity:0.10;stroke-linecap:butt"/><path d="m181.86 209.88.81.34.8.34.8.33.8.34.8.34.8.34.8.33.8.34.81.34.8.34.8.33.8.34.8.34.8.34.8.33.8.34.8.34.81.34.8.33.8.34.8.34.8.34.8.33.8.34.8.34.81.33.8.34.8.34.8.34.8.33.8.34.8.34.8.34.81.33.8.34.8.34.8.34.8.33.8.34.8.34.8.34.8.33.81.34.8.34.8.34.8.33.8.34.8.34.8.34.8.33.81.34.8.34.8.34.8.33.8.34.8.34.8.34.8.33.81.34.8.34.8.34.8.33.8.34.8.34.8.34.8.33.81.34.8.34.8.34.8.33.8.34.8.34.8.34.8.33.8.34.81.34.8.34.8.33.8.34.8.34.8.34.8.33.8.34.81.34.8.34.8.33.8.34.8.34.8.33.8.34.8.34.81.34.8.33.8.34.8.34.8.34.8.33.8.34.8.34m93.89-24.41.73-.33.74-.33.73-.33.74-.32.74-.33.74-.32.75-.32.74-.32.75-.33.74-.32.75-.31.75-.32.75-.32.76-.32.75-.31.76-.32.76-.31.76-.31.76-.31.76-.31.77-.31.76-.31.77-.31.77-.31.77-.3.77-.31.77-.3.78-.3.78-.31.77-.3.78-.3.79-.3.78-.3.78-.29.79-.3.79-.29.79-.3.79-.29.79-.3.79-.29.8-.29.8-.29.79-.29.81-.29.8-.28.8-.29.8-.28.81-.29.81-.28.81-.28.81-.29.81-.28.82-.28.81-.27.82-.28.82-.28.82-.27.82-.28.82-.27.83-.28.82-.27.83-.27.83-.27.83-.27.84-.27.83-.27.84-.26.83-.27.84-.26.84-.27.85-.26.84-.26.84-.26.85-.26.85-.26.85-.26.85-.25.85-.26.86-.26.85-.25.86-.25.86-.26.86-.25.86-.25.87-.25.86-.25.87-.24.87-.25.87-.25.87-.24.87-.25.88-.24.87-.24.88-.24.88-.24.88-.24.88-.24.89-.24.88-.23m-80.13 27.96-.88.3-.89.3-.88.29-.89.3-.88.3-.89.29-.89.3-.89.29-.9.29-.89.29-.9.29-.89.29-.9.29-.9.28-.9.29-.9.28-.91.28-.9.29-.91.28-.91.28-.9.27-.92.28-.91.28-.91.27-.91.28-.92.27-.92.27-.92.27-.92.27-.92.27-.92.27-.92.27-.93.26-.93.27-.92.26-.93.26-.93.26-.94.26-.93.26-.93.26-.94.25-.94.26-.94.25-.94.26-.94.25-.94.25-.94.25-.95.25-.95.25-.95.24-.95.25-.95.24-.95.25-.95.24-.96.24-.95.24-.96.24-.96.24-.96.23-.96.24-.97.23-.96.24-.97.23-.96.23-.97.23-.97.23-.98.23-.97.22-.97.23-.98.22-.97.23-.98.22-.98.22-.98.22-.99.22-.98.22-.98.22-.99.21-.99.22-.99.21-.99.21-.99.21-.99.21-1 .21-.99.21-1 .21-1 .2-1 .21-1 .2-1 .21-1.01.2-1 .2-1.01.2-1.01.19-1.01.2-1.01.2-1.01.19-1.01.2-1.02.19m3.01 143.12-.51-.45-.51-.45-.51-.45-.5-.45-.5-.45-.49-.45-.5-.45-.49-.45-.49-.45-.49-.45-.48-.45-.48-.46-.48-.45-.48-.45-.47-.46-.47-.45-.47-.46-.47-.45-.46-.46-.46-.45-.46-.46-.45-.46-.46-.45-.45-.46-.44-.46-.45-.46-.44-.46-.44-.46-.44-.46-.43-.46-.44-.46-.43-.46-.42-.46-.43-.47-.42-.46-.42-.46-.42-.47-.41-.46-.41-.47-.41-.46-.41-.47-.4-.46-.4-.47-.4-.47-.4-.46-.39-.47-.39-.47-.39-.47-.39-.47-.38-.47-.38-.47-.38-.47-.37-.47-.38-.47-.37-.47-.37-.47-.36-.48-.36-.47-.36-.47-.36-.48-.36-.47-.35-.48-.35-.47-.34-.48-.35-.47-.34-.48-.34-.48-.34-.47-.33-.48-.33-.48-.33-.48-.33-.48-.32-.48-.32-.48-.32-.48-.32-.48-.31-.48-.31-.48-.31-.49-.31-.48-.3-.48-.3-.49-.3-.48-.29-.49-.3-.48-.29-.49-.29-.48-.28-.49-.28-.49-.28-.48-.28-.49-.28-.49-.27-.49-.27-.49-.26-.49-.27-.49-.26-.49-.26-.49-.26-.49m37.95 46.49.88.23.87.24.87.25.87.24.87.24.86.25.86.25.85.25.85.25.85.25.85.26.84.25.83.26.84.26.83.26.82.27.83.26.82.27.81.26.82.27.8.27.81.28.8.27.8.28.8.27.79.28.79.28.78.29.78.28.78.29.77.28.77.29.77.29.76.3.76.29.76.3.75.29.75.3.75.3.74.31.74.3.74.3.73.31.73.31.72.31.72.31.72.32.72.31.71.32.7.32.71.32.7.32.7.32.69.33.69.33.69.32.68.33.68.34.67.33.68.33.67.34.66.34.66.34.66.34.66.34.65.35.65.35.64.34.64.35.64.35.63.36.63.35.63.36.62.36.62.36.62.36.61.36.61.36.61.37.6.37.6.37.59.37.6.37.58.38.59.37.58.38.58.38.57.38.57.38.57.39.56.38.56.39.56.39.55.39.55.39.55.4.54.39.54.4.54.4m-199.94 24.43 1.05-.1 1.06-.1 1.05-.09 1.05-.1 1.05-.1 1.06-.1 1.05-.09 1.05-.1 1.05-.1 1.06-.09 1.05-.1 1.05-.1 1.05-.1 1.05-.09 1.06-.1 1.05-.1 1.05-.1 1.05-.09 1.06-.1 1.05-.1 1.05-.09 1.05-.1 1.06-.1 1.05-.1 1.05-.09 1.05-.1 1.06-.1 1.05-.09 1.05-.1 1.05-.1 1.06-.1 1.05-.09 1.05-.1 1.05-.1 1.06-.09 1.05-.1 1.05-.1 1.05-.1 1.06-.09 1.05-.1 1.05-.1 1.05-.09 1.06-.1 1.05-.1 1.05-.1 1.05-.09 1.06-.1 1.05-.1 1.05-.09 1.05-.1 1.06-.1 1.05-.1 1.05-.09 1.05-.1 1.06-.1 1.05-.09 1.05-.1 1.05-.1 1.06-.1 1.05-.09 1.05-.1 1.05-.1 1.06-.09 1.05-.1 1.05-.1 1.05-.1 1.06-.09 1.05-.1 1.05-.1 1.05-.09 1.06-.1 1.05-.1 1.05-.1 1.05-.09 1.06-.1 1.05-.1 1.05-.09 1.05-.1 1.06-.1 1.05-.1 1.05-.09 1.05-.1 1.06-.1 1.05-.09 1.05-.1 1.05-.1 1.06-.1 1.05-.09 1.05-.1 1.05-.1 1.06-.09 1.05-.1 1.05-.1 1.05-.1 1.06-.09 1.05-.1 1.05-.1 1.05-.09 1.06-.1" style="stroke-width:1.07;stroke:#000000;stroke-opacity:0.10;stroke-linecap:butt"/><path d="m253.12 292.47-.15.49-.14.49-.15.5-.15.49-.15.5-.16.49-.16.49-.16.49-.16.5-.17.49-.16.49-.18.49-.17.49-.18.49-.17.49-.19.49-.18.49-.19.49-.19.49-.19.49-.2.49-.19.49-.2.49-.21.48-.2.49-.21.49-.21.48-.21.49-.22.49-.22.48-.22.49-.22.48-.23.49-.23.48-.23.49-.24.48-.23.48-.24.49-.25.48-.24.48-.25.48-.25.48-.25.49-.26.48-.26.48-.26.48-.26.48-.27.48-.26.48-.28.48-.27.48-.28.48-.28.47-.28.48-.28.48-.29.48-.29.48-.29.47-.3.48-.3.47-.3.48-.3.48-.3.47-.31.48-.31.47-.32.48-.31.47-.32.47-.32.48-.33.47-.32.47-.33.47-.34.48-.33.47-.34.47-.34.47-.34.47-.35.47-.34.47-.35.47-.36.47-.35.47-.36.47-.36.47-.37.47-.36.47-.37.46-.37.47-.38.47-.38.46-.37.47-.39.47-.38.46-.39.47-.39.46-.39.47-.4.46-.4.47-.4.46m26.88-47.45-.06-.51-.05-.5-.04-.5-.05-.5-.04-.5-.04-.5-.03-.5-.04-.5-.03-.5-.03-.5-.02-.5-.02-.5-.02-.5-.02-.51-.01-.5-.02-.5v-.49l-.01-.5v-2l.01-.5.01-.5.02-.5.01-.5.02-.5.02-.5.03-.5.02-.49.03-.5.03-.5.04-.5.04-.5.04-.5.04-.49.05-.5.05-.5.05-.5.05-.5.06-.49.06-.5.06-.5.06-.49.07-.5.07-.5.08-.5.07-.49.08-.5.08-.5.09-.49.08-.5.09-.5.1-.49.09-.5.1-.5.1-.49.1-.5.11-.49.11-.5.11-.49.11-.5.12-.5.12-.49.12-.5.13-.49.13-.5.13-.49.13-.5.14-.49.14-.5.14-.49.14-.5.15-.49.15-.49.15-.5.16-.49.15-.5.17-.49.16-.49.16-.5.17-.49.18-.5.17-.49.18-.49.18-.5.18-.49.18-.49.19-.5.19-.49.2-.49.19-.49.2-.5.2-.49.21-.49.21-.49.21-.5.21-.49.21-.49m171.66 189.97.91.2.9.2.91.2.91.2.91.19.91.2.91.2.91.2.9.2.91.19.91.2.91.2.91.2.91.2.9.19.91.2.91.2.91.2.91.2.91.19.9.2.91.2.91.2.91.2.91.19.91.2.91.2.9.2.91.2.91.19.91.2.91.2.91.2.9.2.91.19.91.2.91.2.91.2.91.2.9.19.91.2.91.2.91.2.91.2.91.19.91.2.9.2.91.2.91.2.91.19.91.2.91.2.9.2.91.2.91.19.91.2.91.2.91.2.9.2.91.19.91.2.91.2.91.2.91.2.91.19.9.2.91.2.91.2.91.2.91.19.91.2.9.2.91.2.91.2.91.19.91.2.91.2.9.2.91.2.91.19.91.2.91.2.91.2.91.2.9.19.91.2.91.2.91.2.91.2.91.19.9.2.91.2.91.2.91.2.91.19.91.2.91.2.9.2.91.2m-89.93-19.61-1-.15-.99-.16-1-.15-1-.16-.99-.15-1-.15-.99-.16-1-.15-1-.16-.99-.15-1-.16-1-.15-.99-.16-1-.15-.99-.16-1-.15-1-.16-.99-.15-1-.16-.99-.15-1-.15-1-.16-.99-.15-1-.16-.99-.15-1-.16-1-.15-.99-.16-1-.15-.99-.16-1-.15-1-.16-.99-.15-1-.16-.99-.15-1-.16-1-.15-.99-.15-1-.16-.99-.15-1-.16-1-.15-.99-.16-1-.15-1-.16-.99-.15-1-.16-.99-.15-1-.16-1-.15-.99-.16-1-.15-.99-.16-1-.15-1-.15-.99-.16-1-.15-.99-.16-1-.15-1-.16-.99-.15-1-.16-.99-.15-1-.16-1-.15-.99-.16-1-.15-.99-.16-1-.15-1-.15-.99-.16-1-.15-1-.16-.99-.15-1-.16-.99-.15-1-.16-1-.15-.99-.16-1-.15-.99-.16-1-.15-1-.16-.99-.15-1-.16-.99-.15-1-.15-1-.16-.99-.15-1-.16-.99-.15-1-.16-1-.15-.99-.16-1-.15-.99-.16-1-.15-1-.16-.99-.15m-216.74-78.76 1.1.01 1.1.01 1.1.01h1.1l1.09.01 1.1.01h1.1l1.1.01 1.1.01 1.1.01h1.1l1.09.01 1.1.01 1.1.01h1.1l1.1.01 1.1.01 1.09.01h1.1l1.1.01 1.1.01h1.1l1.1.01 1.1.01 1.09.01h1.1l1.1.01 1.1.01 1.1.01h1.1l1.1.01 1.09.01 1.1.01h1.1l1.1.01 1.1.01 1.1.01h1.09l1.1.01 1.1.01h1.1l1.1.01 1.1.01 1.1.01h1.09l1.1.01 1.1.01 1.1.01h1.1l1.1.01 1.1.01 1.09.01h1.1l1.1.01 1.1.01 1.1.01h1.1l1.09.01 1.1.01h1.1l1.1.01 1.1.01 1.1.01h1.1l1.09.01 1.1.01 1.1.01h1.1l1.1.01 1.1.01 1.1.01h1.09l1.1.01 1.1.01h1.1l1.1.01 1.1.01 1.1.01h1.09l1.1.01 1.1.01 1.1.01h1.1l1.1.01 1.09.01 1.1.01h1.1l1.1.01 1.1.01 1.1.01h1.1l1.09.01 1.1.01h1.1l1.1.01 1.1.01 1.1.01h1.1l1.09.01M55.97 140.07l.6.35.61.36.61.35.6.35.61.36.6.35.61.36.61.35.6.36.61.35.6.35.61.36.61.35.6.36.61.35.6.35.61.36.61.35.6.36.61.35.6.36.61.35.61.35.6.36.61.35.6.36.61.35.61.36.6.35.61.35.6.36.61.35.61.36.6.35.61.35.6.36.61.35.6.36.61.35.61.36.6.35.61.35.6.36.61.35.61.36.6.35.61.36.6.35.61.35.61.36.6.35.61.36.6.35.61.35.61.36.6.35.61.36.6.35.61.36.61.35.6.35.61.36.6.35.61.36.61.35.6.35.61.36.6.35.61.36.61.35.6.36.61.35.6.35.61.36.61.35.6.36.61.35.6.36.61.35.61.35.6.36.61.35.6.36.61.35.61.35.6.36.61.35.6.36.61.35.61.36.6.35.61.35.6.36.61.35.61.36.6.35.61.35.6.36.61.35m218.27 242.82-1.09-.02-1.09-.01-1.08-.01h-4.31l-1.07.01-1.07.01-1.06.02-1.07.02-1.06.02-1.06.02-1.05.03-1.05.03-1.06.04-1.04.04-1.05.04-1.04.05-1.04.04-1.04.06-1.04.05-1.03.06-1.03.06-1.03.07-1.03.07-1.02.07-1.03.07-1.01.08-1.02.09-1.01.08-1.02.09-1.01.09-1 .1-1.01.1-1 .1-1 .11-.99.11-1 .11-.99.11-.99.12-.99.13-.98.12-.98.13-.98.13-.98.14-.97.14-.97.14-.97.15-.97.15-.97.15-.96.16-.96.16-.96.16-.95.17-.95.17-.95.17-.95.18-.94.18-.95.18-.94.19-.93.19-.94.19-.93.2-.93.2-.93.2-.92.21-.93.21-.92.21-.91.22-.92.22-.91.22-.91.23-.91.23-.91.23-.9.24-.9.24-.9.24-.89.25-.9.25-.89.25-.88.26-.89.26-.88.27-.88.26-.88.27-.88.28-.87.28-.87.28-.87.28-.87.29-.86.29-.86.29-.86.3-.86.3-.85.31-.85.3-.85.31-.84.32" style="stroke-width:1.07;stroke:#000000;stroke-opacity:0.10;stroke-linecap:butt"/><path d="m334.23 417.95-1.01.09-1.01.1-1 .1-1.01.09-1 .1-1 .1-1.01.11-1 .1-1 .1-1 .11-1 .1-1 .11-1 .11-.99.11-1 .11-.99.11-1 .11-.99.11-.99.12-.99.12-1 .11-.99.12-.99.12-.98.12-.99.12-.99.12-.98.13-.99.12-.98.13-.99.13-.98.12-.98.13-.98.13-.98.14-.98.13-.98.13-.98.14-.98.13-.97.14-.98.14-.97.14-.98.14-.97.14-.97.14-.97.15-.97.14-.97.15-.97.15-.97.15-.97.15-.96.15-.97.15-.96.15-.97.15-.96.16-.96.16-.96.15-.96.16-.96.16-.96.16-.96.16-.96.17-.95.16-.96.17-.95.16-.96.17-.95.17-.95.17-.95.17-.95.17-.95.18-.95.17-.95.18-.95.17-.95.18-.94.18-.95.18-.94.18-.94.18-.95.18-.94.19-.94.18-.94.19-.94.19-.93.19-.94.19-.94.19-.93.19-.94.19-.93.2-.94.19-.93.2-.93.2-.93.2-.93.2-.93.2-.93.2-.93.2-.92.21m95.74-14.81-.93.2-.93.21-.93.2-.92.2-.93.2-.94.2-.93.2-.93.19-.93.2-.94.19-.93.2-.94.19-.94.19-.93.19-.94.19-.94.19-.94.18-.94.19-.94.18-.94.19-.95.18-.94.18-.95.18-.94.18-.95.18-.95.17-.94.18-.95.17-.95.18-.95.17-.96.17-.95.17-.95.17-.95.16-.96.17-.95.17-.96.16-.96.16-.96.16-.96.17-.96.16-.96.15-.96.16-.96.16-.96.15-.97.16-.96.15-.97.15-.96.15-.97.15-.97.15-.97.15-.97.14-.97.15-.97.14-.97.15-.97.14-.98.14-.97.14-.98.14-.97.13-.98.14-.98.13-.97.14-.98.13-.98.13-.99.13-.98.13-.98.13-.98.13-.99.12-.98.13-.99.12-.99.13-.98.12-.99.12-.99.12-.99.12-.99.11-.99.12-1 .11-.99.12-.99.11-1 .11-1 .11-.99.11-1 .11-1 .11-1 .1-1 .11-1 .1-1 .1-1 .1-1.01.1-1 .1-1 .1-1.01.1-1.01.09-1 .1" style="stroke-width:1.07;stroke:#000000;stroke-opacity:0.10;stroke-linecap:butt"/><path d="m334.23 417.95-.85.31-.85.31-.85.31-.85.31-.86.3-.86.29-.86.3-.86.29-.87.29-.87.28-.87.28-.87.28-.88.27-.87.27-.88.27-.89.27-.88.26-.89.25-.89.26-.89.25-.9.24-.9.25-.9.24-.9.24-.91.23-.9.23-.91.23-.92.22-.91.22-.92.22-.92.21-.92.21-.93.21-.93.2-.93.2-.93.2-.93.19-.94.19-.94.19-.94.18-.95.18-.95.18-.95.17-.95.17-.95.17-.96.16-.96.16-.96.16-.97.15-.96.15-.97.14-.97.15-.98.14-.98.13-.98.14-.98.13-.98.12-.99.12-.99.12-.99.12-.99.11-1 .11-1 .11-1 .1-1.01.1-1 .09-1.01.1-1.01.09-1.02.08-1.01.08-1.02.08-1.02.08-1.03.07-1.02.07-1.03.07-1.03.06-1.04.06-1.03.05-1.04.05-1.04.05-1.05.05-1.04.04-1.05.04-1.05.03-1.06.04-1.05.02-1.06.03-1.06.02-1.07.02-1.06.01-1.07.02h-1.07l-1.07.01h-2.16l-1.08-.01h-1.08l-1.09-.02-1.08-.01" style="stroke-width:1.07;stroke:#000000;stroke-opacity:0.10;stroke-linecap:butt"/><path d="m229.79 474.65 5.51 9.53h-11.02zm34.4-96.32 6.99 12.12h-13.99zm90.88-165.81 5.51 9.54h-11.02zm-101.95 73.59 5.5 9.53h-11.01zm-71.26-78.44 1.92 3.32h-3.83zm-47.57 232.5 1.91 3.31h-3.82zm298.55-9.12 1.91 3.32h-3.83zm-315.35-94.07 1.92 3.32h-3.83zM55.97 137.86l1.91 3.31h-3.83z" style="stroke-width:0.71;stroke:none;fill:#00BA38"/><path d="M328.19 423.99h12.08v-12.08h-12.08z" style="stroke-width:0.71;stroke:none;fill:#619CFF"/><circle cx="195.8" cy="524.17" r="1.42" style="stroke-width:0.71;stroke:none;fill:#F8766D"/><circle cx="238.49" cy="432.76" r="5.19" style="stroke-width:0.71;stroke:none;fill:#F8766D"/><circle cx="435.2" cy="190.92" r="4.09" style="stroke-width:0.71;stroke:none;fill:#F8766D"/><path d="M254.43 250.05h13.51v-13.52h-13.51z" style="stroke-width:0.71;stroke:none;fill:#619CFF"/><circle cx="226.24" cy="339.92" r="6.76" style="stroke-width:0.71;stroke:none;fill:#F8766D"/><circle cx="115.96" cy="175.13" r="4.09" style="stroke-width:0.71;stroke:none;fill:#F8766D"/><circle cx="522.77" cy="452.87" r="1.42" style="stroke-width:0.71;stroke:none;fill:#F8766D"/><path d="m268.44 381.73-3.49 3.84m84.75-162.06 4.49-3.88m-106.48 77.51 4.53-3.92m-65.02-87.97-4.48 3.87m-43.1 228.63-4.47 3.87m292.48-13.04 4.33 3.91m-319.89-88.63 4.52-3.91M61.16 144.76l-4.33-3.92m282.43 272.44-4.19 3.89m-101.72 20.21 4.28-3.85m203.03-247.24-4.57 3.87M255.7 247.94l4.6-3.9m-39.57 100.49 4.62-3.86M110.58 179.78l4.5-3.89m402.26 281.67 4.55-3.94" style="stroke-width:0.53;stroke:#BFBFBF"/><path d="M190.01 500.76h55.34-.09l.35-.01.34-.07.33-.13.3-.17.27-.22.23-.26.18-.29.14-.32.08-.34.03-.35h0v-15.22h0l-.03-.34-.08-.34-.14-.32-.18-.3-.23-.26-.27-.22-.3-.17-.33-.12-.34-.07-.26-.02h-55.34l.26.02-.35-.02-.34.05-.33.09-.32.15-.28.2-.26.24-.2.28-.17.3-.11.33-.05.35-.01.17v15.22l.01-.17v.35l.05.34.11.33.17.31.2.28.26.24.28.19.32.15.33.1.34.04z" style="stroke-width:0.53;fill:#FFFFFF;fill-opacity:0.50"/><text x="217.68" y="488.97" lengthAdjust="spacingAndGlyphs" style="font-size:5.69px;font-family:&quot;Liberation Sans&quot;" text-anchor="middle" textLength="33.85">YAG VALLEY</text><text x="217.68" y="497.16" lengthAdjust="spacingAndGlyphs" style="font-size:5.69px;font-family:&quot;Liberation Sans&quot;" text-anchor="middle" textLength="52.46">INVESTMENTS LLC</text><path d="M240.19 381.73h60.82-.09l.35-.01.34-.07.33-.13.3-.17.27-.22.23-.26.18-.29.14-.32.08-.34.03-.35h0v-15.22h0l-.03-.34-.08-.34-.14-.32-.18-.3-.23-.26-.27-.22-.3-.17-.33-.12-.34-.07-.26-.02h-60.82l.26.02-.35-.02-.34.05-.33.09-.32.15-.28.2-.26.24-.2.28-.17.31-.11.32-.05.35-.01.17v15.22l.01-.17v.35l.05.34.11.33.17.31.2.28.26.24.28.19.32.15.33.1.34.04z" style="stroke-width:0.53;fill:#FFFFFF;fill-opacity:0.50"/><text x="270.6" y="369.94" lengthAdjust="spacingAndGlyphs" style="font-size:5.69px;font-family:&quot;Liberation Sans&quot;" text-anchor="middle" textLength="57.94">ONE PROPERTY AT A</text><text x="270.6" y="378.13" lengthAdjust="spacingAndGlyphs" style="font-size:5.69px;font-family:&quot;Liberation Sans&quot;" text-anchor="middle" textLength="25.78">TIME LLC</text><path d="M308.01 243.06h59.08l-.09-.01.35-.01.34-.07.33-.12.3-.18.27-.22.23-.26.18-.29.14-.32.08-.34.03-.34h0v-15.23h0l-.03-.34-.08-.34-.14-.32-.18-.29-.23-.26-.27-.22-.3-.18-.33-.12-.34-.07-.26-.02h-59.08l.26.02-.35-.01-.34.04-.34.09-.31.15-.29.2-.25.24-.21.28-.16.31-.11.33-.06.34v15.4-.18.35l.06.34.11.33.16.31.21.28.25.24.29.2.31.14.34.1.34.04z" style="stroke-width:0.53;fill:#FFFFFF;fill-opacity:0.50"/><text x="337.55" y="231.26" lengthAdjust="spacingAndGlyphs" style="font-size:5.69px;font-family:&quot;Liberation Sans&quot;" text-anchor="middle" textLength="56.2">COMMUNITY LIVING</text><text x="337.55" y="239.46" lengthAdjust="spacingAndGlyphs" style="font-size:5.69px;font-family:&quot;Liberation Sans&quot;" text-anchor="middle" textLength="42.38">PLATFORM LLC</text><path d="M206.33 316.68h58.46-.09l.35-.02.34-.07.33-.12.3-.17.27-.22.23-.26.18-.3.14-.32.08-.34.03-.34h0V299.3h0l-.03-.35-.08-.34-.14-.32-.18-.29-.23-.26-.27-.22-.3-.17-.33-.13-.34-.07-.26-.01h-58.46l.26.01-.35-.01-.34.04-.34.1-.31.15-.29.19-.25.24-.21.28-.16.31-.11.33-.06.34v15.4-.18.35l.06.35.11.33.16.3.21.28.25.24.29.2.31.15.34.09.34.05z" style="stroke-width:0.53;fill:#FFFFFF;fill-opacity:0.50"/><text x="235.56" y="304.88" lengthAdjust="spacingAndGlyphs" style="font-size:5.69px;font-family:&quot;Liberation Sans&quot;" text-anchor="middle" textLength="55.58">MAB MANAGEMENT</text><text x="235.56" y="313.08" lengthAdjust="spacingAndGlyphs" style="font-size:5.69px;font-family:&quot;Liberation Sans&quot;" text-anchor="middle" textLength="40.16">COMPANY LLC</text><path d="M163.9 205.25h70.92-.08l.34-.01.34-.07.33-.13.3-.17.27-.22.23-.26.19-.29.13-.32.09-.34.02-.35h0v-15.22h0l-.02-.34-.09-.34-.13-.32-.19-.3-.23-.26-.27-.22-.3-.17-.33-.12-.34-.07-.26-.02H163.9l.26.02-.34-.02-.35.05-.33.09-.32.15-.28.2-.25.24-.21.28-.16.31-.11.32-.06.35-.01.17v15.22l.01-.17v.35l.06.34.11.33.16.31.21.28.25.24.28.19.32.15.33.1.35.04z" style="stroke-width:0.53;fill:#FFFFFF;fill-opacity:0.50"/><text x="199.36" y="193.46" lengthAdjust="spacingAndGlyphs" style="font-size:5.69px;font-family:&quot;Liberation Sans&quot;" text-anchor="middle" textLength="68.04">LENTON REALTY GROUP</text><text x="199.36" y="201.65" lengthAdjust="spacingAndGlyphs" style="font-size:5.69px;font-family:&quot;Liberation Sans&quot;" text-anchor="middle" textLength="10.31">LLC</text><path d="M121.65 437.75h60.07-.08l.34-.01.34-.07.33-.13.3-.17.27-.22.23-.26.19-.29.13-.32.08-.34.03-.35h0v-15.22h0l-.03-.35-.08-.33-.13-.32-.19-.3-.23-.26-.27-.22-.3-.17-.33-.12-.34-.07-.26-.02h-60.07l.26.02-.35-.02-.35.04-.33.1-.31.15-.29.2-.25.24-.21.28-.16.3-.11.33-.06.35v15.39-.17.35l.06.34.11.33.16.31.21.28.25.24.29.19.31.15.33.1.35.04z" style="stroke-width:0.53;fill:#FFFFFF;fill-opacity:0.50"/><text x="151.68" y="425.96" lengthAdjust="spacingAndGlyphs" style="font-size:5.69px;font-family:&quot;Liberation Sans&quot;" text-anchor="middle" textLength="40.44">EDEN GLOBAL</text><text x="151.68" y="434.15" lengthAdjust="spacingAndGlyphs" style="font-size:5.69px;font-family:&quot;Liberation Sans&quot;" text-anchor="middle" textLength="57.2">WISCONSIN HOLDIN</text><path d="M389.07 428.58h62.25-.08l.35-.01.34-.07.32-.13.3-.17.27-.22.23-.26.19-.29.13-.32.09-.34.02-.35h0v-7.02h0l-.02-.35-.09-.34-.13-.32-.19-.29-.23-.26-.27-.22-.3-.18-.32-.12-.34-.07-.27-.01h-62.25l.26.01-.35-.01-.35.04-.33.1-.31.14-.29.2-.25.24-.21.28-.16.31-.11.33-.06.34v7.2-.17.35l.06.34.11.33.16.31.21.27.25.25.29.19.31.15.33.1.35.04z" style="stroke-width:0.53;fill:#FFFFFF;fill-opacity:0.50"/><text x="420.2" y="424.98" lengthAdjust="spacingAndGlyphs" style="font-size:5.69px;font-family:&quot;Liberation Sans&quot;" text-anchor="middle" textLength="59.38">UPTOWN NORTH LLC</text><path d="M65.79 363.4h68.28-.09l.35-.01.34-.07.32-.13.3-.17.27-.22.23-.26.19-.3.14-.32.08-.33.03-.35h0v-15.22h0l-.03-.35-.08-.33-.14-.32-.19-.3-.23-.26-.27-.22-.3-.17-.32-.13-.34-.06-.26-.02H65.79l.26.02-.35-.02-.34.04-.34.1-.31.15-.29.2-.25.24-.21.27-.16.31-.11.33-.05.35-.01.17v15.22l.01-.17v.34l.05.35.11.33.16.31.21.27.25.24.29.2.31.15.34.1.34.04z" style="stroke-width:0.53;fill:#FFFFFF;fill-opacity:0.50"/><text x="99.93" y="351.61" lengthAdjust="spacingAndGlyphs" style="font-size:5.69px;font-family:&quot;Liberation Sans&quot;" text-anchor="middle" textLength="65.4">ONE PROPERTY AT THE</text><text x="99.93" y="359.8" lengthAdjust="spacingAndGlyphs" style="font-size:5.69px;font-family:&quot;Liberation Sans&quot;" text-anchor="middle" textLength="25.78">TIME LLC</text><path d="M43.03 156.1h50.99-.09l.35-.01.34-.07.33-.12.3-.18.27-.22.23-.26.18-.29.14-.32.08-.34.03-.35h0v-7.02h0l-.03-.35-.08-.34-.14-.32-.18-.29-.23-.26-.27-.22-.3-.17-.33-.13-.34-.07-.26-.01H43.03l.26.01-.35-.01-.34.04-.33.1-.32.15-.29.19-.25.25-.2.27-.17.31-.11.33-.05.34-.01.18v7.02l.01-.17v.35l.05.34.11.33.17.31.2.28.25.24.29.2.32.14.33.1.34.04z" style="stroke-width:0.53;fill:#FFFFFF;fill-opacity:0.50"/><text x="68.53" y="152.5" lengthAdjust="spacingAndGlyphs" style="font-size:5.69px;font-family:&quot;Liberation Sans&quot;" text-anchor="middle" textLength="48.11">TRINA A NELSON</text><path d="M312.52 413.28h65.16-.09l.35-.01.34-.07.32-.13.31-.17.26-.22.24-.26.18-.29.14-.32.08-.34.03-.35h0v-23.41h0l-.03-.35-.08-.34-.14-.32-.18-.29-.24-.26-.26-.22-.31-.17-.32-.13-.34-.07-.26-.01h-65.16l.26.01-.35-.01-.34.04-.34.1-.31.15-.29.19-.25.24-.21.28-.16.31-.11.33-.05.34-.01.18v23.41l.01-.17v.35l.05.34.11.33.16.31.21.28.25.24.29.19.31.15.34.1.34.04z" style="stroke-width:0.53;fill:#FFFFFF;fill-opacity:0.50"/><text x="345.1" y="393.29" lengthAdjust="spacingAndGlyphs" style="font-size:5.69px;font-family:&quot;Liberation Sans&quot;" text-anchor="middle" textLength="61.13">777 N JEFFERSON ST,</text><text x="345.1" y="401.49" lengthAdjust="spacingAndGlyphs" style="font-size:5.69px;font-family:&quot;Liberation Sans&quot;" text-anchor="middle" textLength="62.28">STE 408, MILWAUKEE,</text><text x="345.1" y="409.68" lengthAdjust="spacingAndGlyphs" style="font-size:5.69px;font-family:&quot;Liberation Sans&quot;" text-anchor="middle" textLength="27.22">WI 53202</text><path d="M173.91 523.98h68.07-.08l.34-.01.34-.07.33-.12.3-.18.27-.22.23-.26.19-.29.13-.32.08-.34.03-.35h0V506.6h0l-.03-.34-.08-.34-.13-.32-.19-.29-.23-.26-.27-.22-.3-.18-.33-.12-.34-.07-.26-.02h-68.07l.26.02-.34-.02-.35.05-.33.09-.32.15-.28.2-.25.24-.21.28-.16.31-.11.33-.06.34-.01.17v15.22l.01-.17v.35l.06.34.11.33.16.31.21.28.25.24.28.2.32.14.33.1.35.04z" style="stroke-width:0.53;fill:#FFFFFF;fill-opacity:0.50"/><text x="207.95" y="512.19" lengthAdjust="spacingAndGlyphs" style="font-size:5.69px;font-family:&quot;Liberation Sans&quot;" text-anchor="middle" textLength="65.19">100 WILBURN RD, SUN</text><text x="207.95" y="520.38" lengthAdjust="spacingAndGlyphs" style="font-size:5.69px;font-family:&quot;Liberation Sans&quot;" text-anchor="middle" textLength="52.77">PRAIRIE, WI 53590</text><path d="M193.33 465.12h65.16-.09l.35-.02.34-.06.33-.13.3-.17.27-.22.23-.26.18-.3.14-.32.08-.33.03-.35h0v-23.42h0l-.03-.34-.08-.34-.14-.32-.18-.29-.23-.26-.27-.22-.3-.18-.33-.12-.34-.07-.26-.02h-65.16l.26.02-.35-.01-.34.04-.34.09-.31.15-.29.2-.25.24-.21.28-.16.31-.11.33-.05.34-.01.17v23.42l.01-.17v.34l.05.35.11.33.16.3.21.28.25.24.29.2.31.15.34.1.34.04z" style="stroke-width:0.53;fill:#FFFFFF;fill-opacity:0.50"/><text x="225.91" y="445.13" lengthAdjust="spacingAndGlyphs" style="font-size:5.69px;font-family:&quot;Liberation Sans&quot;" text-anchor="middle" textLength="61.13">777 N JEFFERSON ST,</text><text x="225.91" y="453.33" lengthAdjust="spacingAndGlyphs" style="font-size:5.69px;font-family:&quot;Liberation Sans&quot;" text-anchor="middle" textLength="62.28">STE 408, MILWAUKEE,</text><text x="225.91" y="461.52" lengthAdjust="spacingAndGlyphs" style="font-size:5.69px;font-family:&quot;Liberation Sans&quot;" text-anchor="middle" textLength="27.22">WI 53202</text><path d="M424.58 186.29h66.19l-.09-.01.35-.01.34-.07.32-.12.3-.18.27-.22.23-.26.19-.29.14-.32.08-.34.03-.34h0v-23.42h0l-.03-.35-.08-.33-.14-.32-.19-.3-.23-.26-.27-.22-.3-.17-.32-.13-.34-.06-.26-.02h-66.19l.26.02-.35-.02-.35.04-.33.1-.31.15-.29.2-.25.24-.21.27-.16.31-.11.33-.06.35v23.59-.18.35l.06.34.11.33.16.31.21.28.25.24.29.2.31.14.33.1.35.04z" style="stroke-width:0.53;fill:#FFFFFF;fill-opacity:0.50"/><text x="457.67" y="166.3" lengthAdjust="spacingAndGlyphs" style="font-size:5.69px;font-family:&quot;Liberation Sans&quot;" text-anchor="middle" textLength="62.34">333 BROWN DEER RD</text><text x="457.67" y="174.49" lengthAdjust="spacingAndGlyphs" style="font-size:5.69px;font-family:&quot;Liberation Sans&quot;" text-anchor="middle" textLength="63.31">G925, MILWAUKEE, WI</text><text x="457.67" y="182.69" lengthAdjust="spacingAndGlyphs" style="font-size:5.69px;font-family:&quot;Liberation Sans&quot;" text-anchor="middle" textLength="18.11">53217</text><path d="M206.09 275.68h65.16-.09l.35-.01.34-.07.32-.13.31-.17.26-.22.24-.26.18-.3.14-.32.08-.33.03-.35h0V250.1h0l-.03-.34-.08-.34-.14-.32-.18-.29-.24-.26-.26-.22-.31-.18-.32-.12-.34-.07-.26-.02h-65.16l.26.02-.35-.01-.34.04-.34.1-.31.14-.29.2-.25.24-.21.28-.16.31-.11.33-.05.34-.01.17v23.42l.01-.17v.34l.05.35.11.33.16.31.21.27.25.24.29.2.31.15.34.1.34.04z" style="stroke-width:0.53;fill:#FFFFFF;fill-opacity:0.50"/><text x="238.67" y="255.69" lengthAdjust="spacingAndGlyphs" style="font-size:5.69px;font-family:&quot;Liberation Sans&quot;" text-anchor="middle" textLength="55.07">777 JEFFERSON ST,</text><text x="238.67" y="263.89" lengthAdjust="spacingAndGlyphs" style="font-size:5.69px;font-family:&quot;Liberation Sans&quot;" text-anchor="middle" textLength="62.28">STE 408, MILWAUKEE,</text><text x="238.67" y="272.08" lengthAdjust="spacingAndGlyphs" style="font-size:5.69px;font-family:&quot;Liberation Sans&quot;" text-anchor="middle" textLength="27.22">WI 53202</text><path d="M161.44 364.08h67.22l-.09-.01.35-.01.34-.07.32-.12.3-.18.27-.22.23-.26.19-.29.14-.32.08-.34.03-.34h0v-15.23h0l-.03-.34-.08-.34-.14-.32-.19-.29-.23-.26-.27-.22-.3-.18-.32-.12-.34-.07-.26-.02h-67.22l.26.02-.35-.01-.34.04-.34.09-.31.15-.29.2-.25.24-.21.28-.16.31-.11.33-.05.34-.01.17v15.23l.01-.18v.35l.05.34.11.33.16.31.21.28.25.24.29.2.31.14.34.1.34.04z" style="stroke-width:0.53;fill:#FFFFFF;fill-opacity:0.50"/><text x="195.05" y="352.28" lengthAdjust="spacingAndGlyphs" style="font-size:5.69px;font-family:&quot;Liberation Sans&quot;" text-anchor="middle" textLength="48.05">4267 N 66TH ST,</text><text x="195.05" y="360.48" lengthAdjust="spacingAndGlyphs" style="font-size:5.69px;font-family:&quot;Liberation Sans&quot;" text-anchor="middle" textLength="64.34">MILWAUKEE, WI 53216</text><path d="M65.37 199.33h66.17l-.09-.01.35-.01.34-.07.32-.12.31-.18.27-.22.23-.26.18-.29.14-.32.08-.34.03-.34h0v-15.23h0l-.03-.34-.08-.34-.14-.32-.18-.29-.23-.26-.27-.22-.31-.18-.32-.12-.34-.07-.26-.02H65.37l.26.02-.35-.01-.34.04-.34.09-.31.15-.29.2-.25.24-.2.28-.17.31-.11.33-.05.34-.01.17v15.23l.01-.18v.35l.05.34.11.33.17.31.2.28.25.24.29.2.31.15.34.09.34.04z" style="stroke-width:0.53;fill:#FFFFFF;fill-opacity:0.50"/><text x="98.45" y="187.53" lengthAdjust="spacingAndGlyphs" style="font-size:5.69px;font-family:&quot;Liberation Sans&quot;" text-anchor="middle" textLength="51.03">44 SUNRIDGE DR,</text><text x="98.45" y="195.73" lengthAdjust="spacingAndGlyphs" style="font-size:5.69px;font-family:&quot;Liberation Sans&quot;" text-anchor="middle" textLength="63.29">WAUKESHA, WI 53189</text><path d="M475.81 477.1h58.81-.08l.34-.01.34-.07.33-.13.3-.17.27-.22.23-.26.19-.29.13-.32.08-.34.03-.35h0v-15.22h0l-.03-.35-.08-.33-.13-.32-.19-.3-.23-.26-.27-.22-.3-.17-.33-.12-.34-.07-.26-.02h-58.81l.26.02-.34-.02-.35.04-.33.1-.32.15-.28.2-.25.24-.21.28-.16.3-.11.33-.06.35-.01.17v15.22l.01-.17v.35l.06.34.11.33.16.31.21.28.25.24.28.19.32.15.33.1.35.04z" style="stroke-width:0.53;fill:#FFFFFF;fill-opacity:0.50"/><text x="505.22" y="465.31" lengthAdjust="spacingAndGlyphs" style="font-size:5.69px;font-family:&quot;Liberation Sans&quot;" text-anchor="middle" textLength="55.93">2208 SCHRIBER ST,</text><text x="505.22" y="473.5" lengthAdjust="spacingAndGlyphs" style="font-size:5.69px;font-family:&quot;Liberation Sans&quot;" text-anchor="middle" textLength="51.97">AUSTIN, TX 78704</text></g><g clip-path="url(#cpMC4wMHw1NzYuMDB8MC4wMHw1NzYuMDA=)"><circle cx="194.24" cy="95.78" r="1.95" style="stroke-width:0.71;stroke:none;fill:#F8766D"/><path d="m270.59 92.74 2.63 4.56h-5.26z" style="stroke-width:0.71;stroke:none;fill:#00BA38"/><path d="M336.57 97.74h3.91v-3.91h-3.91z" style="stroke-width:0.71;stroke:none;fill:#619CFF"/><text x="208.36" y="98.81" lengthAdjust="spacingAndGlyphs" style="font-size:8.80px;font-family:&quot;Liberation Sans Narrow&quot;" textLength="48.12">mprop address</text><text x="284.71" y="98.81" lengthAdjust="spacingAndGlyphs" style="font-size:8.80px;font-family:&quot;Liberation Sans Narrow&quot;" textLength="39.69">owner name</text><text x="352.64" y="98.81" lengthAdjust="spacingAndGlyphs" style="font-size:8.80px;font-family:&quot;Liberation Sans Narrow&quot;" textLength="40.5">wdfi address</text><text x="32.63" y="64.23" lengthAdjust="spacingAndGlyphs" style="font-size:12.00px;font-family:&quot;Liberation Sans Narrow&quot;" textLength="252.23">includes 14 parcels, 18 units, and 9 distinct owner names.</text><text x="32.63" y="42.27" lengthAdjust="spacingAndGlyphs" style="font-size:18.00px;font-weight:bold;font-family:&quot;Liberation Sans Narrow&quot;" textLength="298.82">ONE PROPERTY AT A TIME LLC etc Group</text></g></svg>