<svg xmlns="http://www.w3.org/2000/svg" width="960" height="960" viewBox="0 0 720 720"><g class="svglite"><defs><style><![CDATA[.svglite line,.svglite polyline,.svglite polygon,.svglite path,.svglite circle{fill:none;stroke:#000000;stroke-linecap:round;stroke-linejoin:round;stroke-miterlimit:10.00}.svglite text{white-space:pre}.svglite g.glyphgroup path{fill:inherit;stroke:none}]]></style></defs><rect width="100%" height="100%" style="stroke-linecap:round;stroke-linejoin:round;stroke-miterlimit:10.00;stroke:none;fill:#FFFFFF"/><defs><clipPath id="cpMC4wMHw3MjAuMDB8MC4wMHw3MjAuMDA="><path d="M0 0h720v720H0z"/></clipPath></defs><g clip-path="url(#cpMC4wMHw3MjAuMDB8MC4wMHw3MjAuMDA=)"><path d="M0 0h720v720H0z" style="stroke-width:1.07;stroke:none;fill:#FFFFFF"/></g><defs><clipPath id="cpMjkuODl8NjkwLjExfDEyMi4xNHw2OTAuMTE="><path d="M29.89 122.14h660.22v567.97H29.89z"/></clipPath></defs><g clip-path="url(#cpMjkuODl8NjkwLjExfDEyMi4xNHw2OTAuMTE=)"><path d="m596.98 406.71.63-.24.64-.23.64-.24.64-.23.63-.23.64-.24.64-.23.64-.24.63-.23.64-.24.64-.23.64-.24.64-.23.63-.23.64-.24.64-.23.64-.24.63-.23.64-.24.64-.23.64-.24.63-.23.64-.24.64-.23.64-.23.63-.24.64-.23.64-.24.64-.23.64-.24.63-.23.64-.24.64-.23.64-.24.63-.23.64-.23.64-.24.64-.23.63-.24.64-.23.64-.24.64-.23.63-.24.64-.23.64-.24.64-.23.63-.23.64-.24.64-.23.64-.24.64-.23.63-.24.64-.23.64-.24.64-.23.63-.24.64-.23.64-.23.64-.24.63-.23.64-.24.64-.23.64-.24.63-.23.64-.24.64-.23.64-.24.64-.23.63-.23.64-.24.64-.23.64-.24.63-.23.64-.24.64-.23.64-.24.63-.23.64-.24.64-.23.64-.23.63-.24.64-.23.64-.24.64-.23.64-.24.63-.23.64-.24.64-.23.64-.23.63-.24.64-.23.64-.24.64-.23.63-.24.64-.23.64-.24.64-.23.63-.24.64-.23M277.71 589.65l.39-.66.38-.66.38-.66.39-.67.38-.66.38-.66.39-.66.38-.67.38-.66.39-.66.38-.67.38-.66.39-.66.38-.66.39-.67.38-.66.38-.66.39-.66.38-.67.38-.66.39-.66.38-.67.38-.66.39-.66.38-.66.38-.67.39-.66.38-.66.38-.66.39-.67.38-.66.38-.66.39-.67.38-.66.38-.66.39-.66.38-.67.38-.66.39-.66.38-.66.38-.67.39-.66.38-.66.38-.67.39-.66.38-.66.38-.66.39-.67.38-.66.38-.66.39-.66.38-.67.38-.66.39-.66.38-.67.38-.66.39-.66.38-.66.38-.67.39-.66.38-.66.39-.66.38-.67.38-.66.39-.66.38-.67.38-.66.39-.66.38-.66.38-.67.39-.66.38-.66.38-.66.39-.67.38-.66.38-.66.39-.67.38-.66.38-.66.39-.66.38-.67.38-.66.39-.66.38-.66.38-.67.39-.66.38-.66.38-.67.39-.66.38-.66.38-.66.39-.67.38-.66.38-.66.39-.66.38-.67.38-.66.39-.66.38-.67m236.64 14.15-.17-.86-.18-.85-.18-.86-.18-.86-.17-.85-.18-.86-.18-.86-.17-.85-.18-.86-.18-.86-.17-.85-.18-.86-.18-.86-.18-.85-.17-.86-.18-.86-.18-.85-.17-.86-.18-.86-.18-.85-.17-.86-.18-.86-.18-.85-.18-.86-.17-.86-.18-.85-.18-.86-.17-.85-.18-.86-.18-.86-.17-.85-.18-.86-.18-.86-.18-.85-.17-.86-.18-.86-.18-.85-.17-.86-.18-.86-.18-.85-.17-.86-.18-.86-.18-.85-.17-.86-.18-.86-.18-.85-.18-.86-.17-.86-.18-.85-.18-.86-.17-.86-.18-.85-.18-.86-.17-.86-.18-.85-.18-.86-.18-.86-.17-.85-.18-.86-.18-.86-.17-.85-.18-.86-.18-.86-.17-.85-.18-.86-.18-.86-.18-.85-.17-.86-.18-.86-.18-.85-.17-.86-.18-.86-.18-.85-.17-.86-.18-.86-.18-.85-.18-.86-.17-.86-.18-.85-.18-.86-.17-.86-.18-.85-.18-.86-.17-.86-.18-.85-.18-.86-.18-.86-.17-.85-.18-.86-.18-.86-.17-.85-.18-.86-.18-.86-.17-.85-.18-.86-.18-.85-.18-.86-.17-.86-.18-.85m17.52 84.8.36-.41.36-.42.36-.42.36-.41.36-.42.35-.42.36-.42.35-.43.35-.42.35-.43.35-.42.35-.43.34-.43.35-.43.34-.43.34-.43.34-.43.34-.44.34-.44.33-.43.34-.44.33-.44.34-.44.33-.44.33-.44.32-.45.33-.44.33-.45.32-.45.32-.45.33-.45.32-.45.32-.45.31-.45.32-.46.32-.46.31-.45.31-.46.31-.46.31-.46.31-.46.31-.47.3-.46.31-.47.3-.46.3-.47.3-.47.3-.47.3-.47.3-.48.29-.47.3-.48.29-.47.29-.48.29-.48.29-.48.29-.48.28-.48.29-.48.28-.49.28-.49.28-.48.28-.49.28-.49.28-.49.27-.49.27-.5.28-.49.27-.5.27-.49.27-.5.26-.5.27-.5.26-.5.27-.5.26-.51.26-.5.26-.51.26-.51.25-.5.26-.51.25-.52.25-.51.26-.51.25-.52.24-.51.25-.52.25-.52.24-.52.25-.52.24-.52.24-.52.24-.52.24-.53.23-.53.24-.52.23-.53.23-.53.24-.53" style="stroke-width:1.07;stroke:#000000;stroke-opacity:0.10;stroke-linecap:butt"/><path d="m596.98 406.71-.63.47-.63.47-.63.47-.63.47-.62.48-.63.47-.63.47-.63.47-.63.47-.63.47-.62.47-.63.48-.63.47-.63.47-.63.47-.62.47-.63.47-.63.48-.63.47-.63.47-.62.47-.63.47-.63.47-.63.47-.63.48-.63.47-.62.47-.63.47-.63.47-.63.47-.63.47-.62.48-.63.47-.63.47-.63.47-.63.47-.62.47-.63.47-.63.48-.63.47-.63.47-.63.47-.62.47-.63.47-.63.48-.63.47-.63.47-.62.47-.63.47-.63.47-.63.47-.63.48-.62.47-.63.47-.63.47-.63.47-.63.47-.63.47-.62.48-.63.47-.63.47-.63.47-.63.47-.62.47-.63.47-.63.48-.63.47-.63.47-.63.47-.62.47-.63.47-.63.48-.63.47-.63.47-.62.47-.63.47-.63.47-.63.47-.63.48-.62.47-.63.47-.63.47-.63.47-.63.47-.63.47-.62.48-.63.47-.63.47-.63.47-.63.47-.62.47-.63.47-.63.48-.63.47-.63.47-.62.47-.63.47-.63.47-.63.48M331.82 253.08l.05.81.04.81.05.8.05.81.04.81.05.8.05.81.04.81.05.8.05.81.04.81.05.8.05.81.05.81.04.8.05.81.05.81.04.8.05.81.05.81.04.8.05.81.05.81.04.8.05.81.05.81.04.81.05.8.05.81.04.81.05.8.05.81.05.81.04.8.05.81.05.81.04.8.05.81.05.81.04.8.05.81.05.81.04.8.05.81.05.81.04.8.05.81.05.81.04.8.05.81.05.81.05.8.04.81.05.81.05.8.04.81.05.81.05.8.04.81.05.81.05.8.04.81.05.81.05.8.04.81.05.81.05.8.05.81.04.81.05.8.05.81.04.81.05.8.05.81.04.81.05.8.05.81.04.81.05.8.05.81.04.81.05.8.05.81.04.81.05.8.05.81.05.81.04.8.05.81.05.81.04.8.05.81.05.81.04.8.05.81.05.81.04.8.05.81.05.81m65.82 118.26-.09.83-.08.83-.09.83-.09.82-.09.83-.08.83-.09.83-.08.83-.08.83-.09.83-.08.83-.08.83-.08.83-.08.83-.07.83-.08.83-.08.83-.08.83-.07.83-.07.83-.08.83-.07.83-.07.83-.08.83-.07.83-.07.83-.06.83-.07.84-.07.83-.07.83-.06.83-.07.83-.06.83-.07.83-.06.83-.06.83-.06.84-.06.83-.06.83-.06.83-.06.83-.06.83-.05.84-.06.83-.05.83-.06.83-.05.83-.05.84-.05.83-.06.83-.05.83-.05.84-.04.83-.05.83-.05.83-.05.84-.04.83-.05.83-.04.83-.04.84-.05.83-.04.83-.04.84-.04.83-.04.83-.04.84-.03.83-.04.83-.04.84-.03.83-.04.84-.03.83-.03.83-.04.84-.03.83-.03.84-.03.83-.03.83-.03.84-.02.83-.03.84-.03.83-.02.84-.03.83-.02.84-.02.83-.03.83-.02.84-.02.83-.02.84-.02.84-.01.83-.02.84-.02.83-.01.84-.02.83-.01.84-.02.83-.01.84m5.05-82.4.01-.7v-6.31l-.01-.71v-.7l-.01-.7v-.7l-.01-.7v-.7l-.01-.7-.01-.7-.01-.7-.01-.7-.01-.7-.01-.7-.01-.71-.01-.7-.01-.7-.02-.7-.01-.7-.01-.7-.02-.7-.02-.7-.01-.7-.02-.7-.02-.7-.02-.7-.01-.7-.02-.7-.03-.7-.02-.7-.02-.7-.02-.7-.02-.7-.03-.7-.02-.7-.03-.7-.02-.7-.03-.7-.03-.7-.02-.7-.03-.7-.03-.7-.03-.7-.03-.7-.03-.7-.03-.69-.03-.7-.04-.7-.03-.7-.04-.7-.03-.7-.04-.7-.03-.7-.04-.7-.04-.7-.03-.7-.04-.7-.04-.69-.04-.7-.04-.7-.04-.7-.05-.7-.04-.7-.04-.7-.05-.7-.04-.69-.05-.7-.04-.7-.05-.7-.05-.7-.05-.7-.04-.7-.05-.69-.05-.7-.05-.7-.05-.7-.06-.7-.05-.7-.05-.69-.06-.7-.05-.7-.06-.7-.05-.7-.06-.69-.06-.7-.05-.7-.06-.7-.06-.69-.06-.7-.06-.7-.06-.7m-54.59 61.06-.65.04-.65.04-.65.04-.65.05-.65.04-.65.05-.65.05-.64.05-.65.05-.65.05-.65.06-.65.06-.64.06-.65.06-.65.06-.65.06-.64.07-.65.07-.64.07-.65.07-.65.07-.64.07-.65.08-.64.08-.65.08-.64.08-.65.08-.64.09-.64.08-.65.09-.64.09-.64.09-.65.1-.64.09-.64.1-.64.1-.65.1-.64.1-.64.1-.64.11-.64.1-.64.11-.64.11-.64.11-.65.12-.64.11-.63.12-.64.12-.64.12-.64.12-.64.13-.64.12-.64.13-.64.13-.63.13-.64.13-.64.14-.64.13-.63.14-.64.14-.64.14-.63.15-.64.14-.64.15-.63.15-.64.15-.63.15-.64.15-.63.16-.64.15-.63.16-.63.16-.64.16-.63.17-.63.16-.64.17-.63.17-.63.17-.64.17-.63.17-.63.18-.63.18-.63.18-.63.18-.64.18-.63.18-.63.19-.63.19-.63.19-.63.19-.63.19-.63.19-.63.2-.62.2-.63.2-.63.2-.63.2-.63.21-.63.2m63.27-12.12.64-.5.63-.51.64-.52.63-.51.63-.52.62-.52.63-.52.63-.52.62-.53.62-.53.62-.53.61-.53.62-.53.61-.54.62-.54.61-.54.61-.54.6-.55.61-.55.6-.55.6-.55.6-.55.6-.56.6-.56.59-.56.6-.57.59-.56.59-.57.58-.57.59-.57.58-.58.59-.57.58-.58.58-.58.57-.59.58-.58.57-.59.58-.59.57-.59.57-.6.56-.59.57-.6.56-.6.56-.61.56-.6.56-.61.56-.61.55-.61.56-.62.55-.62.55-.61.55-.63.54-.62.55-.62.54-.63.54-.63.54-.64.54-.63.53-.64.54-.64.53-.64.53-.64.53-.65.52-.64.53-.65.52-.66.53-.65.52-.66.51-.66.52-.66.52-.66.51-.67.51-.66.51-.67.51-.68.5-.67.51-.68.5-.68.5-.68.5-.68.5-.69.49-.69.5-.69.49-.69.49-.69.49-.7.49-.7.48-.7.49-.7.48-.71.48-.71.48-.71.47-.71.48-.71.47-.72.47-.72.47-.72.47-.72.47-.73m152.89 156.24.29.72.3.72.29.72.29.72.3.72.3.72.3.72.3.71.3.72.3.71.3.71.31.72.31.71.3.71.31.71.31.7.31.71.32.71.31.7.31.71.32.7.32.7.32.7.32.7.32.7.32.7.33.7.32.7.33.69.33.7.32.69.34.69.33.7.33.69.33.69.34.69.34.68.33.69.34.69.34.68.35.69.34.68.34.68.35.69.35.68.34.68.35.67.35.68.36.68.35.67.35.68.36.67.36.68.35.67.36.67.36.67.37.67.36.67.36.66.37.67.37.67.37.66.37.66.37.67.37.66.37.66.38.66.37.66.38.66.38.65.38.66.38.65.38.66.39.65.38.65.39.65.38.65.39.65.39.65.39.65.4.65.39.64.4.65.39.64.4.64.4.64.4.65.4.63.4.64.41.64.4.64.41.63.41.64.41.63.41.64.41.63.41.63.41.63.42.63m-34.97-66.91.32-.45.32-.46.32-.45.31-.46.32-.45.32-.46.31-.45.32-.46.31-.45.31-.46.32-.46.31-.46.31-.45.32-.46.31-.46.31-.46.31-.46.31-.46.31-.46.31-.46.31-.46.31-.46.31-.47.31-.46.31-.46.3-.46.31-.47.31-.46.3-.47.31-.46.3-.47.31-.46.3-.47.3-.46.31-.47.3-.47.3-.47.3-.46.3-.47.31-.47.3-.47.3-.47.3-.47.29-.47.3-.47.3-.47.3-.47.3-.48.29-.47.3-.47.3-.47.29-.48.3-.47.29-.48.3-.47.29-.48.29-.47.3-.48.29-.47.29-.48.29-.48.29-.48.29-.47.29-.48.29-.48.29-.48.29-.48.29-.48.29-.48.29-.48.28-.48.29-.48.29-.48.28-.49.29-.48.28-.48.29-.49.28-.48.29-.48.28-.49.28-.48.28-.49.29-.49.28-.48.28-.49.28-.49.28-.48.28-.49.28-.49.28-.49.27-.49.28-.49.28-.49.28-.49.27-.49.28-.49.28-.49.27-.49.28-.49" style="stroke-width:1.07;stroke:#000000;stroke-opacity:0.10;stroke-linecap:butt"/><path d="m344.83 443.01-.64.13-.64.12-.64.12-.63.12-.64.13-.64.12-.64.12-.64.12-.64.13-.64.12-.64.12-.64.12-.64.13-.63.12-.64.12-.64.12-.64.12-.64.13-.64.12-.64.12-.64.12-.64.13-.64.12-.64.12-.63.12-.64.13-.64.12-.64.12-.64.12-.64.13-.64.12-.64.12-.64.12-.64.13-.64.12-.63.12-.64.12-.64.13-.64.12-.64.12-.64.12-.64.13-.64.12-.64.12-.64.12-.64.13-.63.12-.64.12-.64.12-.64.12-.64.13-.64.12-.64.12-.64.12-.64.13-.64.12-.63.12-.64.12-.64.13-.64.12-.64.12-.64.12-.64.13-.64.12-.64.12-.64.12-.64.13-.63.12-.64.12-.64.12-.64.13-.64.12-.64.12-.64.12-.64.13-.64.12-.64.12-.64.12-.63.13-.64.12-.64.12-.64.12-.64.12-.64.13-.64.12-.64.12-.64.12-.64.13-.64.12-.63.12-.64.12-.64.13-.64.12-.64.12-.64.12-.64.13-.64.12-.64.12-.64.12m63.27-12.12.58-.58.58-.58.58-.58.58-.58.57-.59.58-.58.58-.59.57-.58.58-.59.57-.58.58-.59.57-.59.57-.59.58-.59.57-.59.57-.59.57-.6.57-.59.57-.59.57-.6.56-.59.57-.6.57-.6.57-.59.56-.6.57-.6.56-.6.57-.6.56-.6.56-.6.56-.61.57-.6.56-.6.56-.61.56-.6.56-.61.56-.61.55-.61.56-.6.56-.61.56-.61.55-.62.56-.61.55-.61.56-.61.55-.62.55-.61.56-.62.55-.61.55-.62.55-.62.55-.61.55-.62.55-.62.55-.62.55-.63.54-.62.55-.62.55-.62.54-.63.55-.62.54-.63.54-.62.55-.63.54-.63.54-.63.54-.63.55-.63.54-.63.54-.63.53-.63.54-.64.54-.63.54-.63.54-.64.53-.64.54-.63.53-.64.54-.64.53-.64.53-.64.54-.64.53-.64.53-.64.53-.64.53-.65.53-.64.53-.65.53-.64.53-.65.53-.64.52-.65.53-.65.53-.65.52-.65.53-.65.52-.65.52-.66.53-.65m69.8 36.51.66.35.66.35.66.36.67.35.66.35.66.36.66.35.67.35.66.35.66.36.66.35.67.35.66.36.66.35.66.35.67.35.66.36.66.35.66.35.66.35.67.36.66.35.66.35.66.36.67.35.66.35.66.35.66.36.67.35.66.35.66.36.66.35.67.35.66.35.66.36.66.35.66.35.67.36.66.35.66.35.66.35.67.36.66.35.66.35.66.35.67.36.66.35.66.35.66.36.67.35.66.35.66.35.66.36.66.35.67.35.66.36.66.35.66.35.67.35.66.36.66.35.66.35.67.35.66.36.66.35.66.35.67.36.66.35.66.35.66.35.66.36.67.35.66.35.66.36.66.35.67.35.66.35.66.36.66.35.67.35.66.36.66.35.66.35.67.35.66.36.66.35.66.35.66.35.67.36.66.35.66.35.66.36.67.35.66.35.66.35.66.36.67.35.66.35.66.36m-65.57-34.93-.71-.37-.7-.37-.71-.37-.7-.37-.71-.36-.7-.37-.71-.37-.7-.37-.71-.37-.7-.37-.71-.37-.7-.37-.71-.36-.7-.37-.71-.37-.7-.37-.71-.37-.7-.37-.71-.37-.7-.37-.71-.36-.7-.37-.71-.37-.7-.37-.71-.37-.7-.37-.71-.37-.7-.37-.71-.36-.7-.37-.71-.37-.7-.37-.71-.37-.7-.37-.71-.37-.7-.37-.71-.36-.7-.37-.71-.37-.7-.37-.71-.37-.7-.37-.71-.37-.7-.37-.71-.37-.7-.36-.71-.37-.7-.37-.71-.37-.71-.37-.7-.37-.71-.37-.7-.37-.71-.36-.7-.37-.71-.37-.7-.37-.71-.37-.7-.37-.71-.37-.7-.37-.71-.36-.7-.37-.71-.37-.7-.37-.71-.37-.7-.37-.71-.37-.7-.37-.71-.36-.7-.37-.71-.37-.7-.37-.71-.37-.7-.37-.71-.37-.7-.37-.71-.36-.7-.37-.71-.37-.7-.37-.71-.37-.7-.37-.71-.37-.7-.37-.71-.36-.7-.37-.71-.37-.7-.37-.71-.37-.7-.37-.71-.37-.7-.37-.71-.36-.7-.37-.71-.37-.7-.37-.71-.37-.7-.37m-54.59 61.06-.29.82-.3.82-.29.82-.3.82-.29.82-.3.81-.29.82-.29.82-.3.82-.29.82-.3.82-.29.82-.3.81-.29.82-.3.82-.29.82-.3.82-.29.82-.29.82-.3.81-.29.82-.3.82-.29.82-.3.82-.29.82-.3.81-.29.82-.3.82-.29.82-.29.82-.3.82-.29.82-.3.81-.29.82-.3.82-.29.82-.3.82-.29.82-.3.81-.29.82-.29.82-.3.82-.29.82-.3.82-.29.82-.3.81-.29.82-.3.82-.29.82-.3.82-.29.82-.29.82-.3.81-.29.82-.3.82-.29.82-.3.82-.29.82-.3.81-.29.82-.3.82-.29.82-.29.82-.3.82-.29.82-.3.81-.29.82-.3.82-.29.82-.3.82-.29.82-.3.82-.29.81-.29.82-.3.82-.29.82-.3.82-.29.82-.3.81-.29.82-.3.82-.29.82-.3.82-.29.82-.3.82-.29.81-.29.82-.3.82-.29.82-.3.82-.29.82-.3.81-.29.82-.3.82-.29.82-.3.82-.29.82-.29.82-.3.81m29.16-81.03.53-.65.52-.65.52-.65.53-.65.52-.65.53-.65.53-.65.52-.65.53-.65.53-.64.53-.65.53-.64.53-.65.53-.64.53-.64.53-.65.53-.64.53-.64.54-.64.53-.64.54-.63.53-.64.54-.64.53-.64.54-.63.54-.64.54-.63.54-.63.53-.63.54-.64.54-.63.55-.63.54-.63.54-.62.54-.63.54-.63.55-.63.54-.62.55-.63.54-.62.55-.62.55-.63.54-.62.55-.62.55-.62.55-.62.55-.62.55-.62.55-.62.55-.61.55-.62.56-.61.55-.62.55-.61.56-.61.55-.62.56-.61.55-.61.56-.61.56-.61.55-.61.56-.61.56-.6.56-.61.56-.61.56-.6.56-.6.57-.61.56-.6.56-.6.56-.6.57-.6.56-.6.57-.6.56-.6.57-.6.57-.6.56-.59.57-.6.57-.59.57-.6.57-.59.57-.59.57-.59.57-.59.58-.59.57-.59.57-.59.58-.59.57-.59.58-.58.57-.59.58-.58.57-.59.58-.58.58-.58.58-.59.58-.58.58-.58m2.86 69.26-.01.83-.01.84-.02.84-.01.83-.02.84-.02.83-.01.84-.02.83-.02.84-.02.83-.02.84-.02.83-.02.84-.03.83-.02.84-.03.83-.02.84-.03.83-.02.83-.03.84-.03.83-.03.84-.03.83-.03.84-.03.83-.03.83-.04.84-.03.83-.03.84-.04.83-.04.83-.03.84-.04.83-.04.83-.04.84-.04.83-.04.83-.04.84-.04.83-.05.83-.04.84-.05.83-.04.83-.05.83-.05.84-.04.83-.05.83-.05.83-.05.84-.05.83-.05.83-.06.83-.05.84-.05.83-.06.83-.06.83-.05.83-.06.83-.06.84-.06.83-.06.83-.06.83-.06.83-.06.83-.06.84-.07.83-.06.83-.06.83-.07.83-.07.83-.06.83-.07.83-.07.83-.07.83-.07.83-.07.84-.08.83-.07.83-.07.83-.08.83-.07.83-.08.83-.08.83-.07.83-.08.83-.08.83-.08.83-.08.83-.08.83-.08.83-.09.82-.08.83-.09.83-.08.83-.09.83-.08.83-.09.83-.09.83-.09.83m5.05-82.4-.06-.7-.06-.7-.06-.69-.06-.7-.06-.7-.05-.7-.06-.7-.06-.69-.05-.7-.06-.7-.05-.7-.06-.7-.05-.69-.05-.7-.05-.7-.06-.7-.05-.7-.05-.7-.05-.69-.04-.7-.05-.7-.05-.7-.05-.7-.04-.7-.05-.69-.04-.7-.05-.7-.04-.7-.04-.7-.04-.7-.05-.7-.04-.7-.04-.69-.04-.7-.04-.7-.03-.7-.04-.7-.04-.7-.03-.7-.04-.7-.03-.7-.04-.7-.03-.7-.03-.7-.04-.69-.03-.7-.03-.7-.03-.7-.03-.7-.03-.7-.03-.7-.02-.7-.03-.7-.03-.7-.02-.7-.03-.7-.02-.7-.03-.7-.02-.7-.02-.7-.02-.7-.02-.7-.02-.7-.02-.7-.02-.7-.02-.7-.02-.7-.02-.7-.01-.7-.02-.7-.01-.7-.02-.7-.01-.7-.02-.7-.01-.7-.01-.7-.01-.7-.01-.71-.01-.7-.01-.7-.01-.7-.01-.7-.01-.7v-.7l-.01-.7v-.7l-.01-.7v-.7l-.01-.71v-6.31l.01-.7m50.76-61.28.38-.76.38-.76.38-.76.38-.76.39-.76.38-.76.38-.76.38-.76.38-.76.38-.76.38-.76.39-.76.38-.76.38-.76.38-.76.38-.76.38-.76.38-.76.39-.76.38-.76.38-.76.38-.76.38-.76.38-.76.38-.76.39-.76.38-.76.38-.76.38-.76.38-.76.38-.76.38-.76.39-.76.38-.76.38-.76.38-.76.38-.76.38-.76.38-.76.39-.76.38-.76.38-.76.38-.76.38-.76.38-.76.38-.76.39-.76.38-.76.38-.76.38-.76.38-.76.38-.76.38-.76.39-.76.38-.76.38-.76.38-.76.38-.76.38-.76.39-.76.38-.76.38-.76.38-.76.38-.76.38-.76.38-.76.39-.76.38-.76.38-.76.38-.76.38-.76.38-.76.38-.76.39-.76.38-.76.38-.76.38-.76.38-.76.38-.76.38-.76.39-.76.38-.76.38-.76.38-.76.38-.75.38-.76.38-.76.39-.76.38-.76.38-.76.38-.76.38-.76.38-.76.38-.76.39-.76.38-.76.38-.76.38-.76.38-.76m-37.76 75.23-.51.62-.52.62-.51.62-.51.62-.52.62-.51.62-.51.62-.51.62-.52.61-.51.62-.51.62-.51.62-.52.62-.51.62-.51.62-.52.62-.51.62-.51.62-.51.61-.52.62-.51.62-.51.62-.51.62-.52.62-.51.62-.51.62-.52.62-.51.61-.51.62-.51.62-.52.62-.51.62-.51.62-.51.62-.52.62-.51.62-.51.62-.52.61-.51.62-.51.62-.51.62-.52.62-.51.62-.51.62-.51.62-.52.62-.51.62-.51.61-.52.62-.51.62-.51.62-.51.62-.52.62-.51.62-.51.62-.51.62-.52.62-.51.61-.51.62-.52.62-.51.62-.51.62-.51.62-.52.62-.51.62-.51.62-.51.61-.52.62-.51.62-.51.62-.52.62-.51.62-.51.62-.51.62-.52.62-.51.62-.51.61-.52.62-.51.62-.51.62-.51.62-.52.62-.51.62-.51.62-.51.62-.52.62-.51.61-.51.62-.52.62-.51.62-.51.62-.51.62-.52.62-.51.62-.51.62-.51.62-.52.61-.51.62-.51.62m3.47-70.11.08-.86.09-.86.09-.85.09-.86.08-.86.09-.86.09-.85.08-.86.09-.86.09-.86.08-.85.09-.86.09-.86.09-.86.08-.85.09-.86.09-.86.08-.86.09-.85.09-.86.08-.86.09-.86.09-.85.09-.86.08-.86.09-.86.09-.86.08-.85.09-.86.09-.86.08-.86.09-.85.09-.86.09-.86.08-.86.09-.85.09-.86.08-.86.09-.86.09-.85.09-.86.08-.86.09-.86.09-.85.08-.86.09-.86.09-.86.08-.85.09-.86.09-.86.09-.86.08-.85.09-.86.09-.86.08-.86.09-.85.09-.86.08-.86.09-.86.09-.86.09-.85.08-.86.09-.86.09-.86.08-.85.09-.86.09-.86.09-.86.08-.85.09-.86.09-.86.08-.86.09-.85.09-.86.08-.86.09-.86.09-.85.09-.86.08-.86.09-.86.09-.85.08-.86.09-.86.09-.86.08-.85.09-.86.09-.86.09-.86.08-.85.09-.86.09-.86.08-.86.09-.86.09-.85.09-.86.08-.86.09-.86.09-.85.08-.86m-8.61 84.9-.04.71-.03.71-.04.7-.03.71-.04.71-.03.71-.04.71-.03.7-.04.71-.03.71-.04.71-.03.71-.04.71-.03.7-.04.71-.03.71-.04.71-.03.71-.04.71-.03.7-.04.71-.03.71-.04.71-.03.71-.04.7-.03.71-.04.71-.03.71-.04.71-.03.71-.04.7-.03.71-.04.71-.03.71-.04.71-.03.7-.04.71-.03.71-.04.71-.03.71-.04.71-.03.7-.04.71-.04.71-.03.71-.04.71-.03.71-.04.7-.03.71-.04.71-.03.71-.04.71-.03.7-.04.71-.03.71-.04.71-.03.71-.04.71-.03.7-.04.71-.03.71-.04.71-.03.71-.04.7-.03.71-.04.71-.03.71-.04.71-.03.71-.04.7-.03.71-.04.71-.03.71-.04.71-.03.7-.04.71-.03.71-.04.71-.03.71-.04.71-.03.7-.04.71-.03.71-.04.71-.03.71-.04.71-.03.7-.04.71-.03.71-.04.71-.03.71-.04.7-.03.71-.04.71-.03.71-.04.71-.03.71-.04.7-.03.71m152.89 156.24.36.68.35.67.35.68.36.67.35.68.35.68.35.67.36.68.35.67.35.68.36.67.35.68.35.68.36.67.35.68.35.67.36.68.35.68.35.67.36.68.35.67.35.68.36.68.35.67.35.68.36.67.35.68.35.67.36.68.35.68.35.67.36.68.35.67.35.68.35.68.36.67.35.68.35.67.36.68.35.67.35.68.36.68.35.67.35.68.36.67.35.68.35.68.36.67.35.68.35.67.36.68.35.68.35.67.36.68.35.67.35.68.36.67.35.68.35.68.35.67.36.68.35.67.35.68.36.68.35.67.35.68.36.67.35.68.35.67.36.68.35.68.35.67.36.68.35.67.35.68.36.68.35.67.35.68.36.67.35.68.35.68.36.67.35.68.35.67.35.68.36.67.35.68.35.68.36.67.35.68.35.67.36.68.35.68.35.67.36.68.35.67.35.68.36.67.35.68m-34.97-66.91.28-.49.27-.49.28-.5.27-.49.28-.49.28-.49.28-.49.27-.49.28-.49.28-.48.28-.49.28-.49.28-.49.28-.49.28-.48.28-.49.28-.48.29-.49.28-.48.28-.49.29-.48.28-.49.28-.48.29-.48.28-.49.29-.48.29-.48.28-.48.29-.48.29-.48.29-.49.28-.48.29-.47.29-.48.29-.48.29-.48.29-.48.29-.48.3-.47.29-.48.29-.48.29-.47.3-.48.29-.47.3-.48.29-.47.3-.48.29-.47.3-.47.29-.48.3-.47.3-.47.3-.47.29-.47.3-.47.3-.47.3-.47.3-.47.3-.47.3-.47.3-.47.31-.47.3-.47.3-.46.3-.47.31-.47.3-.46.31-.47.3-.46.31-.47.3-.46.31-.47.31-.46.3-.46.31-.47.31-.46.31-.46.31-.46.3-.46.31-.46.31-.46.32-.46.31-.46.31-.46.31-.46.31-.46.32-.46.31-.46.31-.45.32-.46.31-.46.32-.45.31-.46.32-.45.31-.46.32-.45.32-.46.32-.45.32-.45m-471.6-303.91.52.4.51.41.51.4.51.41.52.41.51.4.51.41.51.4.52.41.51.41.51.4.51.41.51.4.52.41.51.41.51.4.51.41.52.4.51.41.51.41.51.4.52.41.51.4.51.41.51.41.52.4.51.41.51.4.51.41.52.41.51.4.51.41.51.4.52.41.51.41.51.4.51.41.52.4.51.41.51.41.51.4.51.41.52.4.51.41.51.4.51.41.52.41.51.4.51.41.51.4.52.41.51.41.51.4.51.41.52.4.51.41.51.41.51.4.52.41.51.4.51.41.51.41.52.4.51.41.51.4.51.41.52.41.51.4.51.41.51.4.51.41.52.41.51.4.51.41.51.4.52.41.51.41.51.4.51.41.52.4.51.41.51.41.51.4.52.41.51.4.51.41.51.4.52.41.51.41.51.4.51.41.52.4.51.41.51.41.51.4.52.41.51.4.51.41.51.41m-50.73-40.19-.5-.4-.51-.4-.51-.4-.5-.4-.51-.4-.51-.4-.5-.4-.51-.4-.51-.4-.5-.4-.51-.39-.51-.4-.51-.4-.5-.4-.51-.4-.51-.4-.5-.4-.51-.4-.51-.4-.5-.4-.51-.4-.51-.4-.5-.4-.51-.39-.51-.4-.5-.4-.51-.4-.51-.4-.5-.4-.51-.4-.51-.4-.5-.4-.51-.4-.51-.4-.51-.4-.5-.39-.51-.4-.51-.4-.5-.4-.51-.4-.51-.4-.5-.4-.51-.4-.51-.4-.5-.4-.51-.4-.51-.4-.5-.4-.51-.39-.51-.4-.5-.4-.51-.4-.51-.4-.5-.4-.51-.4-.51-.4-.51-.4-.5-.4-.51-.4-.51-.4-.5-.4-.51-.39-.51-.4-.5-.4-.51-.4-.51-.4-.5-.4-.51-.4-.51-.4-.5-.4-.51-.4-.51-.4-.5-.4-.51-.4-.51-.39-.5-.4-.51-.4-.51-.4-.51-.4-.5-.4-.51-.4-.51-.4-.5-.4-.51-.4-.51-.4-.5-.4-.51-.4-.51-.39-.5-.4-.51-.4-.51-.4-.5-.4-.51-.4-.51-.4-.5-.4-.51-.4-.51-.4-.51-.4-.5-.4m209.32 160.23.68.25.68.25.68.25.68.25.68.25.68.25.68.25.68.25.68.25.68.25.67.25.68.25.68.25.68.25.68.25.68.25.68.25.68.25.68.25.68.25.68.26.67.25.68.25.68.25.68.25.68.25.68.25.68.25.68.25.68.25.68.25.68.25.68.25.67.25.68.25.68.25.68.25.68.25.68.25.68.25.68.25.68.25.68.25.68.25.67.25.68.25.68.25.68.25.68.25.68.25.68.25.68.25.68.25.68.25.68.25.68.25.67.25.68.25.68.25.68.25.68.25.68.25.68.25.68.25.68.25.68.25.68.25.67.25.68.25.68.25.68.25.68.25.68.25.68.25.68.25.68.25.68.25.68.25.68.25.67.26.68.25.68.25.68.25.68.25.68.25.68.25.68.25.68.25.68.25.68.25.67.25.68.25.68.25.68.25.68.25.68.25.68.25.68.25.68.25m-67.24-24.77-.56-.4-.57-.4-.57-.4-.57-.4-.57-.4-.57-.4-.57-.41-.57-.4-.57-.4-.57-.4-.57-.4-.57-.4-.56-.4-.57-.4-.57-.4-.57-.41-.57-.4-.57-.4-.57-.4-.57-.4-.57-.4-.57-.4-.57-.4-.56-.4-.57-.4-.57-.41-.57-.4-.57-.4-.57-.4-.57-.4-.57-.4-.57-.4-.57-.4-.57-.4-.56-.4-.57-.41-.57-.4-.57-.4-.57-.4-.57-.4-.57-.4-.57-.4-.57-.4-.57-.4-.57-.41-.57-.4-.56-.4-.57-.4-.57-.4-.57-.4-.57-.4-.57-.4-.57-.4-.57-.4-.57-.41-.57-.4-.57-.4-.56-.4-.57-.4-.57-.4-.57-.4-.57-.4-.57-.4-.57-.41-.57-.4-.57-.4-.57-.4-.57-.4-.56-.4-.57-.4-.57-.4-.57-.4-.57-.4-.57-.41-.57-.4-.57-.4-.57-.4-.57-.4-.57-.4-.56-.4-.57-.4-.57-.4-.57-.4-.57-.41-.57-.4-.57-.4-.57-.4-.57-.4-.57-.4-.57-.4-.57-.4-.56-.4-.57-.41-.57-.4-.57-.4-.57-.4-.57-.4-.57-.4-.57-.4" style="stroke-width:1.07;stroke:#000000;stroke-opacity:0.10;stroke-linecap:butt"/><path d="m552.31 538.19.42.63.41.63.41.63.42.63.41.64.41.63.4.64.41.63.41.64.4.64.4.64.4.64.4.64.4.64.4.64.4.64.39.65.39.64.4.65.39.65.39.65.39.65.38.65.39.65.39.65.38.65.38.66.38.65.38.66.38.65.38.66.37.66.38.66.37.66.38.66.37.67.37.66.36.66.37.67.37.67.36.66.37.67.36.67.36.67.36.67.36.67.35.68.36.67.35.68.36.67.35.68.35.68.35.68.35.67.34.69.35.68.34.68.35.68.34.69.34.68.34.69.34.69.33.68.34.69.33.69.34.69.33.7.33.69.33.69.32.7.33.69.33.7.32.7.32.7.32.7.32.7.32.7.32.7.32.7.31.71.32.7.31.71.31.71.31.71.31.7.31.71.3.72.31.71.3.71.3.71.31.72.3.71.29.72.3.72.3.72.29.72.3.72.29.72.29.72m-34.97-66.91.23-.53.24-.53.23-.53.24-.53.23-.52.24-.53.24-.52.24-.53.24-.52.25-.52.24-.52.25-.52.24-.51.25-.52.25-.51.25-.52.26-.51.25-.51.25-.51.26-.51.26-.51.26-.5.26-.51.26-.5.26-.5.27-.5.26-.51.27-.49.27-.5.27-.5.27-.49.27-.5.28-.49.27-.49.28-.49.28-.49.28-.49.28-.49.28-.48.28-.49.29-.48.28-.49.29-.48.29-.48.29-.48.29-.47.29-.48.29-.47.3-.48.3-.47.29-.47.3-.47.3-.47.31-.47.3-.47.3-.46.31-.47.31-.46.3-.46.31-.46.32-.46.31-.46.31-.46.32-.45.31-.46.32-.45.32-.46.32-.45.32-.45.33-.45.32-.44.33-.45.32-.45.33-.44.33-.44.33-.44.33-.44.34-.44.33-.44.34-.44.34-.43.34-.44.34-.43.34-.44.34-.43.35-.43.34-.42.35-.43.35-.43.35-.42.35-.43.35-.42.35-.42.36-.42.36-.42.35-.42.36-.41.36-.42.37-.41m42.95 172.91-.38-.6-.38-.6-.37-.6-.38-.6-.38-.59-.38-.6-.37-.6-.38-.6-.38-.6-.37-.59-.38-.6-.38-.6-.38-.6-.37-.6-.38-.59-.38-.6-.37-.6-.38-.6-.38-.6-.38-.59-.37-.6-.38-.6-.38-.6-.37-.6-.38-.59-.38-.6-.38-.6-.37-.6-.38-.59-.38-.6-.37-.6-.38-.6-.38-.6-.38-.59-.37-.6-.38-.6-.38-.6-.37-.6-.38-.59-.38-.6-.38-.6-.37-.6-.38-.6-.38-.59-.37-.6-.38-.6-.38-.6-.38-.6-.37-.59-.38-.6-.38-.6-.37-.6-.38-.59-.38-.6-.38-.6-.37-.6-.38-.6-.38-.59-.37-.6-.38-.6-.38-.6-.38-.6-.37-.59-.38-.6-.38-.6-.37-.6-.38-.6-.38-.59-.38-.6-.37-.6-.38-.6-.38-.6-.37-.59-.38-.6-.38-.6-.38-.6-.37-.6-.38-.59-.38-.6-.37-.6-.38-.6-.38-.59-.38-.6-.37-.6-.38-.6-.38-.6-.37-.59-.38-.6-.38-.6-.38-.6-.37-.6-.38-.59-.38-.6-.37-.6-.38-.6-.38-.6-.38-.59-.37-.6-.38-.6M344.83 443.01l-.63.21-.62.21-.63.2-.63.2-.63.2-.63.2-.63.19-.63.2-.63.19-.63.19-.63.19-.63.19-.63.18-.63.19-.63.18-.63.18-.63.18-.63.18-.64.17-.63.18-.63.17-.63.17-.64.17-.63.17-.63.16-.64.16-.63.17-.63.16-.64.16-.63.15-.64.16-.63.15-.64.15-.63.15-.64.15-.63.15-.64.14-.64.14-.63.15-.64.14-.64.13-.63.14-.64.13-.64.14-.64.13-.63.13-.64.12-.64.13-.64.12-.64.13-.64.12-.64.12-.64.11-.64.12-.64.11-.64.12-.64.11-.64.1-.64.11-.64.11-.64.1-.65.1-.64.1-.64.1-.64.1-.65.09-.64.1-.64.09-.65.09-.64.08-.64.09-.65.09-.64.08-.65.08-.64.08-.65.08-.64.07-.65.08-.64.07-.65.07-.64.07-.65.07-.65.06-.64.07-.65.06-.65.06-.65.06-.64.06-.65.05-.65.06-.65.05-.65.05-.65.05-.65.04-.65.05-.65.04-.65.05-.65.04-.65.03m63.27-12.12.47-.72.47-.73.47-.72.47-.72.47-.71.48-.72.47-.71.48-.71.48-.71.48-.7.49-.71.48-.7.49-.7.49-.69.49-.7.49-.69.5-.69.49-.69.5-.68.5-.69.5-.68.5-.68.51-.67.5-.68.51-.67.51-.67.51-.67.51-.66.52-.67.52-.66.51-.66.52-.65.53-.66.52-.65.53-.65.52-.65.53-.64.53-.65.53-.64.54-.64.53-.63.54-.64.54-.63.54-.63.54-.63.55-.62.54-.63.55-.62.55-.62.55-.62.56-.61.55-.61.56-.61.56-.61.56-.61.56-.6.56-.6.57-.6.56-.6.57-.59.57-.59.58-.59.57-.59.57-.59.58-.58.58-.58.58-.58.58-.58.59-.57.59-.57.58-.58.59-.56.59-.57.6-.56.59-.56.6-.56.6-.56.6-.55.6-.56.6-.55.61-.54.6-.55.61-.54.61-.55.62-.53.61-.54.61-.54.62-.53.62-.53.62-.53.62-.52.63-.53.62-.52.63-.52.63-.51.63-.52.64-.51.63-.51.64-.51m117.29-209.2-.29.74-.29.73-.29.73-.29.74-.29.73-.3.74-.29.73-.29.73-.29.74-.29.73-.29.74-.29.73-.29.74-.29.73-.29.73-.29.74-.29.73-.29.74-.29.73-.29.73-.29.74-.29.73-.3.74-.29.73-.29.74-.29.73-.29.73-.29.74-.29.73-.29.74-.29.73-.29.73-.29.74-.29.73-.29.74-.29.73-.29.74-.29.73-.29.73-.29.74-.3.73-.29.74-.29.73-.29.74-.29.73-.29.73-.29.74-.29.73-.29.74-.29.73-.29.73-.29.74-.29.73-.29.74-.29.73-.29.74-.29.73-.3.73-.29.74-.29.73-.29.74-.29.73-.29.73-.29.74-.29.73-.29.74-.29.73-.29.74-.29.73-.29.73-.29.74-.29.73-.29.74-.29.73-.29.73-.3.74-.29.73-.29.74-.29.73-.29.74-.29.73-.29.73-.29.74-.29.73-.29.74-.29.73-.29.74-.29.73-.29.73-.29.74-.29.73-.29.74-.3.73-.29.73-.29.74-.29.73-.29.74-.29.73-.29.74m-88.52 136.51-.46-.83-.45-.82-.47-.82-.46-.81-.47-.8-.47-.79-.48-.79-.48-.78-.48-.78-.49-.77-.49-.76-.49-.75-.5-.75-.5-.74-.51-.74-.51-.72-.51-.72-.52-.72-.52-.7-.53-.7-.52-.7-.54-.68-.53-.68-.54-.67-.54-.67-.55-.66-.55-.65-.56-.65-.55-.63-.57-.64-.56-.62-.57-.62-.57-.61-.58-.6-.58-.6-.58-.59-.59-.59-.59-.57-.6-.57-.6-.57-.6-.55-.6-.55-.61-.54-.62-.54-.62-.53-.62-.52-.62-.52-.63-.51-.63-.5-.64-.49-.64-.49-.64-.48-.65-.48-.65-.46-.65-.47-.66-.45-.66-.45-.67-.44-.67-.43-.67-.43-.68-.42-.68-.41-.68-.41-.69-.4-.69-.39-.7-.38-.7-.38-.7-.38-.71-.36-.71-.36-.71-.35-.72-.35-.72-.33-.73-.33-.73-.33-.73-.32-.73-.31-.74-.3-.75-.3-.75-.29-.75-.28-.75-.28-.76-.27-.76-.26-.77-.26-.77-.24-.77-.25-.78-.23-.78-.23-.78-.22-.79-.22-.79-.21-.8-.2-.8-.19-.8-.19-.81-.18-.81-.17-.81-.17-.82-.16" style="stroke-width:1.07;stroke:#000000;stroke-opacity:0.10;stroke-linecap:butt"/><path d="m399.42 381.95-.5-.74-.5-.74-.51-.74-.51-.73-.51-.73-.51-.72-.52-.71-.52-.71-.52-.71-.52-.7-.53-.69-.53-.69-.53-.69-.54-.68-.54-.67-.54-.67-.54-.66-.55-.66-.55-.66-.55-.64-.56-.65-.55-.64-.56-.63-.57-.63-.56-.62-.57-.62-.57-.61-.58-.61-.58-.6-.58-.6-.58-.59-.59-.59-.58-.58-.6-.58-.59-.57-.6-.57-.6-.56-.6-.55-.6-.56-.61-.54-.61-.54-.62-.54-.61-.53-.62-.53-.62-.52-.63-.51-.63-.51-.63-.51-.63-.5-.64-.49-.64-.49-.64-.49-.64-.48-.65-.47-.65-.47-.65-.46-.66-.46-.65-.46-.67-.45-.66-.44-.67-.44-.67-.43-.67-.43-.67-.42-.68-.42-.68-.42-.68-.4-.69-.41-.69-.39-.69-.4-.7-.38-.69-.39-.7-.37-.71-.37-.7-.37-.71-.36-.71-.36-.71-.35-.72-.35-.72-.34-.72-.34-.73-.33-.73-.32-.73-.32-.73-.32-.74-.31-.74-.31-.74-.3-.74-.29-.75-.29-.75-.29-.75-.28-.76-.27-.76-.27-.76-.27-.76-.25-.77-.26-.77-.25-.77-.24" style="stroke-width:1.07;stroke:#000000;stroke-opacity:0.10;stroke-linecap:butt"/><path d="m399.42 381.95-.55-.66-.54-.66-.55-.65-.55-.66-.56-.65-.55-.64-.56-.64-.55-.64-.56-.64-.57-.63-.56-.63-.56-.62-.57-.62-.57-.62-.57-.61-.57-.62-.58-.6-.58-.61-.57-.6-.58-.6-.59-.59-.58-.59-.59-.59-.58-.58-.59-.58-.59-.58-.6-.57-.59-.57-.6-.57-.6-.56-.6-.56-.6-.56-.61-.55-.6-.55-.61-.55-.61-.54-.61-.54-.62-.54-.61-.53-.62-.53-.62-.52-.62-.52-.62-.52-.63-.52-.62-.51-.63-.51-.63-.51-.63-.5-.64-.5-.63-.49-.64-.49-.64-.49-.64-.48-.65-.49-.64-.47-.65-.48-.65-.47-.65-.47-.65-.46-.66-.46-.65-.46-.66-.45-.66-.45-.66-.45-.67-.45-.66-.44-.67-.43-.67-.44-.67-.43-.67-.42-.68-.43-.68-.42-.67-.41-.68-.42-.69-.41-.68-.4-.69-.4-.69-.4-.69-.4-.69-.39-.69-.39-.7-.39-.69-.38-.7-.38-.7-.37-.71-.38-.7-.36-.71-.37-.71-.36-.71-.36-.71-.35-.71-.36-.72-.34-.72-.35-.72-.34-.72-.34-.72-.33-.73-.33-.72-.33" style="stroke-width:1.07;stroke:#000000;stroke-opacity:0.10;stroke-linecap:butt"/><path d="m399.42 381.95-.59-.58-.59-.57-.6-.58-.59-.57-.59-.57-.6-.57-.6-.57-.59-.57-.6-.56-.6-.57-.6-.56-.6-.56-.6-.56-.6-.55-.61-.56-.6-.55-.61-.55-.6-.55-.61-.55-.61-.55-.61-.54-.61-.54-.61-.54-.61-.54-.61-.54-.62-.54-.61-.53-.62-.53-.61-.54-.62-.52-.62-.53-.62-.53-.62-.52-.62-.52-.62-.52-.62-.52-.63-.52-.62-.52-.63-.51-.62-.51-.63-.51-.63-.51-.63-.51-.63-.5-.63-.51-.63-.5-.64-.5-.63-.5-.64-.49-.63-.5-.64-.49-.64-.49-.64-.49-.64-.49-.64-.49-.64-.48-.64-.49-.64-.48-.65-.48-.64-.47-.65-.48-.65-.48-.64-.47-.65-.47-.65-.47-.65-.47-.66-.46-.65-.47-.65-.46-.66-.46-.65-.46-.66-.46-.66-.45-.65-.46-.66-.45-.66-.45-.66-.45-.67-.45-.66-.44-.66-.44-.67-.45-.66-.44-.67-.44-.67-.43-.67-.44-.67-.43-.67-.43-.67-.43-.67-.43-.67-.43-.68-.42-.67-.43-.68-.42-.67-.42-.68-.42-.68-.41-.68-.42-.68-.41-.68-.41" style="stroke-width:1.07;stroke:#000000;stroke-opacity:0.10;stroke-linecap:butt"/><path d="m399.42 381.95-.64-.49-.63-.5-.64-.49-.64-.5-.63-.49-.64-.5-.63-.49-.64-.5-.64-.49-.63-.5-.64-.49-.63-.5-.64-.49-.64-.5-.63-.49-.64-.5-.63-.49-.64-.5-.64-.49-.63-.5-.64-.49-.63-.5-.64-.49-.64-.5-.63-.49-.64-.5-.63-.49-.64-.5-.64-.49-.63-.5-.64-.49-.63-.5-.64-.49-.64-.5-.63-.49-.64-.5-.63-.49-.64-.5-.63-.49-.64-.5-.64-.49-.63-.5-.64-.49-.63-.5-.64-.49-.64-.5-.63-.49-.64-.5-.63-.49-.64-.5-.64-.49-.63-.5-.64-.49-.63-.5-.64-.49-.64-.5-.63-.49-.64-.5-.63-.49-.64-.5-.64-.49-.63-.5-.64-.49-.63-.5-.64-.49-.64-.5-.63-.49-.64-.5-.63-.49-.64-.5-.64-.49-.63-.5-.64-.49-.63-.5-.64-.49-.64-.5-.63-.49-.64-.5-.63-.49-.64-.5-.64-.49-.63-.5-.64-.49-.63-.5-.64-.49-.63-.5-.64-.49-.64-.5-.63-.49-.64-.5-.63-.49-.64-.5-.64-.49-.63-.5-.64-.49-.63-.5-.64-.49-.64-.5-.63-.49" style="stroke-width:1.07;stroke:#000000;stroke-opacity:0.10;stroke-linecap:butt"/><path d="m399.42 381.95-.68-.41-.68-.41-.68-.42-.68-.41-.68-.42-.68-.42-.67-.42-.68-.43-.67-.42-.68-.43-.67-.43-.67-.43-.67-.43-.67-.43-.67-.44-.66-.43-.67-.44-.67-.44-.66-.45-.67-.44-.66-.44-.66-.45-.66-.45-.66-.45-.66-.45-.66-.46-.66-.45-.65-.46-.66-.46-.65-.46-.66-.46-.65-.47-.65-.46-.65-.47-.65-.47-.65-.47-.65-.47-.65-.48-.64-.47-.65-.48-.64-.48-.64-.48-.65-.49-.64-.48-.64-.49-.64-.49-.64-.49-.64-.49-.63-.49-.64-.5-.63-.49-.64-.5-.63-.5-.63-.5-.63-.51-.63-.5-.63-.51-.63-.51-.63-.51-.63-.51-.62-.51-.63-.52-.62-.52-.62-.52-.63-.52-.62-.52-.62-.52-.62-.53-.62-.53-.61-.52-.62-.54-.61-.53-.62-.53-.61-.54-.62-.54-.61-.53-.61-.55-.61-.54-.61-.54-.61-.55-.6-.55-.61-.55-.6-.55-.61-.55-.6-.56-.6-.55-.61-.56-.6-.56-.6-.56-.6-.57-.59-.56-.6-.57-.6-.57-.59-.57-.6-.57-.59-.57-.59-.58-.59-.57-.59-.58" style="stroke-width:1.07;stroke:#000000;stroke-opacity:0.10;stroke-linecap:butt"/><path d="m399.42 381.95-.73-.33-.72-.33-.73-.33-.72-.34-.72-.34-.72-.35-.71-.34-.72-.36-.71-.35-.71-.36-.71-.36-.7-.37-.71-.36-.7-.38-.7-.37-.7-.38-.7-.38-.69-.39-.7-.39-.69-.39-.69-.4-.69-.4-.68-.4-.69-.4-.68-.41-.68-.42-.68-.41-.68-.42-.67-.43-.67-.42-.68-.43-.66-.44-.67-.43-.67-.44-.66-.45-.66-.45-.66-.45-.66-.45-.66-.46-.65-.46-.66-.46-.65-.47-.65-.47-.64-.48-.65-.47-.64-.49-.64-.48-.64-.49-.64-.49-.64-.49-.63-.5-.63-.5-.63-.51-.63-.51-.63-.51-.62-.52-.63-.51-.62-.53-.62-.52-.61-.53-.62-.53-.61-.54-.61-.54-.61-.54-.61-.55-.61-.55-.6-.55-.61-.56-.6-.56-.6-.56-.59-.57-.6-.57-.59-.57-.59-.58-.59-.58-.59-.58-.59-.59-.58-.59-.58-.59-.58-.6-.58-.6-.58-.61-.57-.6-.57-.62-.57-.61-.57-.62-.57-.62-.57-.62-.56-.63-.56-.63-.56-.64-.56-.64-.56-.64-.55-.64-.55-.65-.55-.66-.55-.65-.55-.66-.54-.66" style="stroke-width:1.07;stroke:#000000;stroke-opacity:0.10;stroke-linecap:butt"/><path d="m399.42 381.95-.78-.24-.76-.25-.77-.26-.77-.25-.76-.27-.76-.27-.75-.27-.75-.28-.75-.29-.75-.29-.75-.29-.74-.3-.74-.31-.73-.31-.74-.32-.73-.32-.73-.32-.72-.33-.72-.34-.72-.34-.72-.35-.71-.35-.72-.36-.7-.36-.71-.36-.7-.38-.7-.37-.7-.39-.69-.38-.7-.4-.68-.39-.69-.41-.68-.4-.68-.42-.68-.42-.68-.42-.67-.43-.67-.43-.67-.44-.66-.44-.66-.45-.66-.46-.65-.46-.66-.46-.65-.47-.64-.47-.65-.48-.64-.49-.64-.49-.63-.49-.64-.5-.63-.51-.63-.51-.62-.51-.62-.52-.62-.53-.62-.53-.61-.54-.61-.54-.61-.54-.61-.56-.6-.55-.6-.56-.6-.57-.59-.57-.59-.58-.59-.58-.59-.59-.58-.59-.58-.6-.58-.6-.57-.61-.57-.61-.57-.62-.57-.62-.56-.63-.56-.63-.56-.64-.55-.65-.56-.64-.55-.66-.54-.66-.55-.66-.54-.67-.54-.67-.53-.68-.54-.69-.53-.69-.52-.69-.53-.7-.52-.71-.52-.71-.51-.71-.52-.72-.51-.73-.51-.73-.5-.73-.5-.75-.5-.74" style="stroke-width:1.07;stroke:#000000;stroke-opacity:0.10;stroke-linecap:butt"/><path d="m399.42 381.95-.82-.16-.81-.17-.82-.17-.8-.18-.81-.19-.8-.19-.79-.2-.79-.21-.79-.22-.79-.22-.78-.23-.77-.23-.78-.25-.77-.24-.76-.26-.77-.26-.75-.27-.76-.28-.75-.28-.75-.29-.74-.3-.74-.3-.74-.31-.73-.32-.73-.33-.72-.33-.73-.33-.71-.35-.72-.35-.71-.36-.7-.36-.71-.38-.7-.38-.69-.38-.69-.39-.69-.4-.69-.41-.68-.41-.67-.42-.68-.43-.67-.43-.66-.44-.66-.45-.66-.45-.66-.46-.65-.47-.64-.48-.65-.48-.64-.49-.63-.49-.63-.5-.63-.51-.63-.52-.62-.52-.62-.53-.61-.53-.61-.55-.61-.55-.6-.55-.6-.57-.59-.57-.59-.57-.59-.59-.59-.59-.58-.6-.57-.6-.58-.61-.56-.62-.57-.62-.56-.64-.56-.63-.55-.65-.55-.65-.55-.66-.54-.67-.54-.67-.54-.68-.53-.68-.53-.7-.52-.7-.52-.7-.52-.72-.51-.72-.51-.72-.51-.74-.5-.74-.5-.75-.5-.75-.49-.76-.48-.77-.49-.78-.48-.78-.47-.79-.48-.79-.46-.8-.47-.81-.46-.82-.46-.82-.45-.83m245.21 158.44-.43-.48-.42-.48-.42-.47-.42-.47-.43-.47-.42-.47-.43-.47-.43-.46-.43-.46-.43-.46-.43-.46-.43-.46-.44-.45-.43-.45-.44-.45-.43-.45-.44-.45-.44-.44-.44-.45-.44-.44-.44-.44-.45-.43-.44-.44-.45-.43-.44-.43-.45-.43-.45-.43-.45-.43-.45-.42-.45-.42-.45-.42-.46-.42-.45-.42-.46-.41-.46-.41-.45-.41-.46-.41-.46-.41-.47-.41-.46-.4-.46-.4-.47-.4-.46-.4-.47-.39-.47-.39-.47-.4-.47-.38-.47-.39-.47-.39-.48-.38-.47-.38-.48-.38-.47-.38-.48-.38-.48-.37-.48-.38-.48-.37-.48-.36-.49-.37-.48-.37-.48-.36-.49-.36-.49-.36-.49-.36-.49-.35-.49-.35-.49-.36-.49-.35-.5-.34-.49-.35-.5-.34-.49-.34-.5-.34-.5-.34-.5-.34-.5-.33-.51-.34-.5-.33-.51-.32-.5-.33-.51-.33-.51-.32-.51-.32-.51-.32-.51-.32-.51-.31-.51-.31-.52-.32-.51-.3-.52-.31-.52-.31-.52-.3-.52-.3-.52-.3-.52-.3-.52-.3-.53-.29-.52-.29-.53-.29" style="stroke-width:1.07;stroke:#000000;stroke-opacity:0.10;stroke-linecap:butt"/><path d="m581.67 491.39-.46-.42-.46-.41-.45-.42-.46-.41-.46-.41-.46-.41-.45-.42-.46-.41-.46-.41-.46-.41-.46-.4-.46-.41-.46-.41-.46-.41-.46-.4-.46-.41-.46-.4-.46-.41-.47-.4-.46-.4-.46-.41-.47-.4-.46-.4-.46-.4-.47-.4-.46-.4-.47-.4-.46-.39-.47-.4-.47-.4-.46-.39-.47-.4-.47-.39-.47-.4-.46-.39-.47-.39-.47-.4-.47-.39-.47-.39-.47-.39-.47-.39-.47-.39-.47-.38-.47-.39-.47-.39-.48-.39-.47-.38-.47-.39-.47-.38-.48-.39-.47-.38-.48-.38-.47-.38-.48-.38-.47-.38-.48-.38-.47-.38-.48-.38-.48-.38-.47-.38-.48-.38-.48-.37-.48-.38-.47-.37-.48-.38-.48-.37-.48-.37-.48-.38-.48-.37-.48-.37-.48-.37-.49-.37-.48-.37-.48-.37-.48-.36-.48-.37-.49-.37-.48-.36-.49-.37-.48-.36-.48-.37-.49-.36-.48-.37-.49-.36-.49-.36-.48-.36-.49-.36-.49-.36-.48-.36-.49-.36-.49-.36-.49-.35-.49-.36-.49-.35-.49-.36-.49-.35-.49-.36-.49-.35-.49-.35m46.88 38-.5-.36-.49-.35-.49-.35-.49-.36-.49-.35-.49-.36-.49-.36-.48-.35-.49-.36-.49-.36-.49-.36-.48-.36-.49-.36-.49-.36-.48-.36-.49-.36-.49-.37-.48-.36-.48-.36-.49-.37-.48-.36-.49-.37-.48-.37-.48-.36-.49-.37-.48-.37-.48-.37-.48-.37-.48-.37-.48-.37-.48-.37-.48-.38-.48-.37-.48-.37-.48-.38-.48-.37-.48-.38-.47-.37-.48-.38-.48-.38-.48-.38-.47-.38-.48-.37-.47-.38-.48-.39-.47-.38-.48-.38-.47-.38-.48-.38-.47-.39-.47-.38-.48-.39-.47-.38-.47-.39-.47-.39-.47-.38-.47-.39-.47-.39-.48-.39-.47-.39-.46-.39-.47-.39-.47-.4-.47-.39-.47-.39-.47-.4-.46-.39-.47-.4-.47-.39-.46-.4-.47-.4-.47-.39-.46-.4-.47-.4-.46-.4-.46-.4-.47-.4-.46-.4-.46-.41-.47-.4-.46-.4-.46-.41-.46-.4-.46-.41-.46-.4-.47-.41-.46-.41-.46-.4-.45-.41-.46-.41-.46-.41-.46-.41-.46-.41-.46-.42-.45-.41-.46-.41-.46-.42-.45-.41-.46-.41" style="stroke-width:1.07;stroke:#000000;stroke-opacity:0.10;stroke-linecap:butt"/><path d="m581.67 491.39-.53-.29-.53-.3-.52-.29-.52-.3-.53-.3-.52-.3-.52-.3-.52-.3-.51-.31-.52-.3-.52-.31-.51-.32-.51-.31-.52-.31-.51-.32-.51-.32-.51-.32-.51-.32-.5-.33-.51-.33-.5-.32-.51-.33-.5-.34-.5-.33-.5-.34-.5-.33-.5-.34-.5-.35-.49-.34-.5-.35-.49-.34-.49-.35-.5-.35-.49-.36-.49-.35-.49-.36-.48-.36-.49-.36-.48-.36-.49-.37-.48-.36-.48-.37-.49-.37-.48-.38-.47-.37-.48-.38-.48-.38-.47-.38-.48-.38-.47-.38-.47-.39-.48-.38-.47-.39-.47-.4-.46-.39-.47-.39-.47-.4-.46-.4-.47-.4-.46-.4-.46-.41-.46-.41-.46-.4-.46-.41-.46-.42-.45-.41-.46-.42-.45-.42-.45-.42-.46-.42-.45-.42-.45-.43-.44-.43-.45-.43-.45-.43-.44-.43-.45-.44-.44-.43-.44-.44-.44-.44-.44-.45-.44-.44-.44-.45-.44-.45-.43-.45-.44-.45-.43-.45-.43-.46-.44-.46-.43-.46-.42-.46-.43-.46-.43-.47-.43-.47-.42-.47-.42-.47-.43-.47-.42-.48-.42-.47M212.88 268.48l-.52-.41-.53-.42-.53-.41-.52-.41-.53-.41-.52-.41-.53-.42-.53-.41-.52-.41-.53-.41-.52-.42-.53-.41-.53-.41-.52-.41-.53-.42-.53-.41-.52-.41-.53-.41-.52-.41-.53-.42-.53-.41-.52-.41-.53-.41-.52-.42-.53-.41-.53-.41-.52-.41-.53-.41-.52-.42-.53-.41-.53-.41-.52-.41-.53-.42-.52-.41-.53-.41-.53-.41-.52-.41-.53-.42-.52-.41-.53-.41-.53-.41-.52-.42-.53-.41-.52-.41-.53-.41-.53-.41-.52-.42-.53-.41-.52-.41-.53-.41-.53-.42-.52-.41-.53-.41-.53-.41-.52-.41-.53-.42-.52-.41-.53-.41-.53-.41-.52-.42-.53-.41-.52-.41-.53-.41-.53-.42-.52-.41-.53-.41-.52-.41-.53-.41-.53-.42-.52-.41-.53-.41-.52-.41-.53-.42-.53-.41-.52-.41-.53-.41-.52-.41-.53-.42-.53-.41-.52-.41-.53-.41-.52-.42-.53-.41-.53-.41-.52-.41-.53-.41-.52-.42-.53-.41-.53-.41-.52-.41-.53-.42-.53-.41-.52-.41-.53-.41-.52-.41-.53-.42-.53-.41-.52-.41-.53-.41" style="stroke-width:1.07;stroke:#000000;stroke-opacity:0.10;stroke-linecap:butt"/><path d="m596.98 401.56 4.45 7.72h-8.91zM277.71 587.44l1.92 3.32h-3.83zm274.6-56.54 6.32 10.94H546zM331.82 250.87l1.91 3.32h-3.82zm70.46 195.2 4.46 7.71h-8.91zm-57.45-10.35 6.32 10.94h-12.63zm124.39-19.47 1.91 3.31h-3.83zm-19.04-97.79 1.91 3.32h-3.83zm-47.29-8.83 1.91 3.31h-3.83zM110.07 185.27l1.92 3.31h-3.83zm159.15 120.7 1.92 3.32h-3.83zm355.4 356.11 1.91 3.32h-3.83zM516.71 170.54l1.91 3.32h-3.83z" style="stroke-width:0.71;stroke:none;fill:#00BA38"/><path d="M392.66 388.71h13.51V375.2h-13.51zm184.32 107.36h9.37v-9.37h-9.37zM211.46 269.9h2.84v-2.84h-2.84z" style="stroke-width:0.71;stroke:none;fill:#619CFF"/><circle cx="660.1" cy="383.49" r="1.42" style="stroke-width:0.71;stroke:none;fill:#F8766D"/><circle cx="315.67" cy="524.04" r="3.31" style="stroke-width:0.71;stroke:none;fill:#F8766D"/><circle cx="534.79" cy="453.39" r="4.09" style="stroke-width:0.71;stroke:none;fill:#F8766D"/><circle cx="336.46" cy="332.95" r="3.31" style="stroke-width:0.71;stroke:none;fill:#F8766D"/><circle cx="397.23" cy="533.61" r="3.31" style="stroke-width:0.71;stroke:none;fill:#F8766D"/><circle cx="281.56" cy="455.13" r="4.09" style="stroke-width:0.71;stroke:none;fill:#F8766D"/><circle cx="587.28" cy="605.1" r="4.69" style="stroke-width:0.71;stroke:none;fill:#F8766D"/><circle cx="487.94" cy="245.44" r="3.31" style="stroke-width:0.71;stroke:none;fill:#F8766D"/><circle cx="411.5" cy="226.94" r="1.42" style="stroke-width:0.71;stroke:none;fill:#F8766D"/><circle cx="160.8" cy="227.67" r="1.42" style="stroke-width:0.71;stroke:none;fill:#F8766D"/><path d="M58.48 149.38h2.84v-2.85h-2.84z" style="stroke-width:0.71;stroke:none;fill:#619CFF"/><path d="m591.84 411.35 4.28-3.87M282.82 584.8l-4.27 4.06m268.56-45.96 4.35-3.94M326.6 257.81l4.37-3.95m76.52 202.06-4.35-3.94m-63.52-13.59 4.35 3.86m130.56-28.44-4.44 3.89m-14.7-92.31-4.36-3.94m-53.3-14.28 4.3 3.9M115.21 182.83l-4.28 3.87m153.1 116.85 4.33 3.86m351.51 363.45 4.09-5.66m-102.3-497.13-4.12 3.89M404.71 386.65l-4.43-3.93m176.18 113.29 4.34-3.86M207.62 263.81l4.4 3.9m442.89 111.08 4.34 3.93M310.43 528.8l4.39-3.98m16.38-187.21 4.39-3.9m56.44 204.61 4.35-3.94M276.4 459.81l4.31-3.9m301.43 153.84 4.29-3.88m-93.26-365.1-4.37 3.9m-72.01-22.43-4.42 3.93m-256.8-3.15 4.37 3.88m-95.29-82.62-3.83 2.96" style="stroke-width:0.53;stroke:#BFBFBF"/><path d="M552.61 430.66h55.34-.09l.35-.01.34-.07.32-.13.3-.17.27-.22.23-.26.19-.29.13-.32.09-.34.03-.35h0v-14.99h0l-.03-.35-.09-.33-.13-.32-.19-.3-.23-.26-.27-.22-.3-.17-.32-.12-.34-.07-.26-.02h-55.34l.26.02-.35-.02-.34.04-.33.1-.32.15-.28.2-.25.24-.21.28-.17.3-.11.33-.05.35-.01.17v14.99l.01-.17v.35l.05.34.11.33.17.31.21.27.25.24.28.2.32.15.33.1.34.04z" style="stroke-width:0.53;fill:#FFFFFF;fill-opacity:0.50"/><text x="580.28" y="418.87" lengthAdjust="spacingAndGlyphs" style="font-size:5.69px;font-family:&quot;Liberation Sans&quot;" text-anchor="middle" textLength="34.25">YAG VALLEY</text><text x="580.28" y="427.06" lengthAdjust="spacingAndGlyphs" style="font-size:5.69px;font-family:&quot;Liberation Sans&quot;" text-anchor="middle" textLength="52.45">INVESTMENTS LLC</text><path d="M263.89 584.8h51.65-.09l.35-.01.34-.07.32-.12.3-.18.27-.22.23-.26.19-.29.13-.32.09-.34.03-.35h0v-6.79h0l-.03-.35-.09-.34-.13-.32-.19-.29-.23-.26-.27-.22-.3-.17-.32-.13-.34-.07-.26-.01h-51.65l.26.01-.35-.01-.34.04-.34.1-.31.15-.29.19-.25.25-.21.27-.16.31-.11.33-.05.34-.01.18v6.79l.01-.17v.35l.05.34.11.33.16.31.21.28.25.24.29.2.31.14.34.1.34.04z" style="stroke-width:0.53;fill:#FFFFFF;fill-opacity:0.50"/><text x="289.71" y="581.2" lengthAdjust="spacingAndGlyphs" style="font-size:5.69px;font-family:&quot;Liberation Sans&quot;" text-anchor="middle" textLength="48.77">JASON L WATERS</text><path d="M505.15 562.22h60.92l-.08-.01.34-.01.34-.07.33-.12.3-.18.27-.22.23-.26.19-.29.13-.32.09-.34.02-.34h0v-15h0l-.02-.34-.09-.34-.13-.32-.19-.29-.23-.26-.27-.22-.3-.18-.33-.12-.34-.07-.26-.02h-60.92l.26.02-.35-.01-.34.04-.34.09-.31.15-.29.2-.25.24-.21.28-.16.31-.11.33-.06.34v15.17-.18.35l.06.34.11.33.16.31.21.28.25.24.29.2.31.14.34.1.34.04z" style="stroke-width:0.53;fill:#FFFFFF;fill-opacity:0.50"/><text x="535.61" y="550.42" lengthAdjust="spacingAndGlyphs" style="font-size:5.69px;font-family:&quot;Liberation Sans&quot;" text-anchor="middle" textLength="58.05">ONE PROPERTY AT A</text><text x="535.61" y="558.62" lengthAdjust="spacingAndGlyphs" style="font-size:5.69px;font-family:&quot;Liberation Sans&quot;" text-anchor="middle" textLength="25.58">TIME LLC</text><path d="M287.48 277.12h55.33-.09l.35-.01.34-.07.33-.13.3-.17.27-.22.23-.26.18-.29.14-.32.08-.34.03-.35h0v-14.99h0l-.03-.34-.08-.34-.14-.32-.18-.3-.23-.26-.27-.22-.3-.17-.33-.12-.34-.07-.26-.02h-55.33l.26.02-.35-.02-.35.05-.33.09-.31.15-.29.2-.25.24-.21.28-.16.3-.11.33-.06.35v15.16-.17.35l.06.34.11.33.16.31.21.28.25.24.29.19.31.15.33.1.35.04z" style="stroke-width:0.53;fill:#FFFFFF;fill-opacity:0.50"/><text x="315.14" y="265.33" lengthAdjust="spacingAndGlyphs" style="font-size:5.69px;font-family:&quot;Liberation Sans&quot;" text-anchor="middle" textLength="42.67">KOREN GROUP</text><text x="315.14" y="273.52" lengthAdjust="spacingAndGlyphs" style="font-size:5.69px;font-family:&quot;Liberation Sans&quot;" text-anchor="middle" textLength="52.45">INVESTMENTS LLC</text><path d="M388.84 475.23h60.38-.09l.35-.01.34-.07.32-.12.3-.18.27-.22.23-.26.19-.29.14-.32.08-.34.03-.35h0v-14.99h0l-.03-.34-.08-.34-.14-.32-.19-.29-.23-.27-.27-.21-.3-.18-.32-.12-.34-.07-.26-.02h-60.38l.26.02-.35-.02-.35.05-.33.09-.31.15-.29.2-.25.24-.21.28-.16.31-.11.33-.06.34v15.16-.17.35l.06.34.11.33.16.31.21.28.25.24.29.19.31.15.33.1.35.04z" style="stroke-width:0.53;fill:#FFFFFF;fill-opacity:0.50"/><text x="419.03" y="463.44" lengthAdjust="spacingAndGlyphs" style="font-size:5.69px;font-family:&quot;Liberation Sans&quot;" text-anchor="middle" textLength="57.5">A HOME AWAY FROM</text><text x="419.03" y="471.63" lengthAdjust="spacingAndGlyphs" style="font-size:5.69px;font-family:&quot;Liberation Sans&quot;" text-anchor="middle" textLength="29.06">HOME LLC</text><path d="M290.56 438.39h65.77-.09l.35-.01.34-.07.33-.12.3-.18.27-.22.23-.26.18-.29.14-.32.08-.34.03-.35h0v-23.18h0l-.03-.35-.08-.33-.14-.32-.18-.3-.23-.26-.27-.22-.3-.17-.33-.13-.34-.07-.26-.01h-65.77l.26.01-.35-.01-.34.04-.34.1-.31.15-.29.2-.25.24-.21.27-.16.31-.11.33-.05.35-.01.17v23.18l.01-.17v.35l.05.34.11.33.16.31.21.28.25.24.29.2.31.14.34.1.34.04z" style="stroke-width:0.53;fill:#FFFFFF;fill-opacity:0.50"/><text x="323.45" y="418.41" lengthAdjust="spacingAndGlyphs" style="font-size:5.69px;font-family:&quot;Liberation Sans&quot;" text-anchor="middle" textLength="38.25">WATERSVIEW</text><text x="323.45" y="426.6" lengthAdjust="spacingAndGlyphs" style="font-size:5.69px;font-family:&quot;Liberation Sans&quot;" text-anchor="middle" textLength="62.89">INVESTMENTS GROUP</text><text x="323.45" y="434.79" lengthAdjust="spacingAndGlyphs" style="font-size:5.69px;font-family:&quot;Liberation Sans&quot;" text-anchor="middle" textLength="10.42">LLC</text><path d="M463.97 413.81h71.53-.08l.34-.01.34-.07.33-.12.3-.18.27-.22.23-.26.19-.29.13-.32.08-.34.03-.35h0v-6.79h0l-.03-.35-.08-.34-.13-.32-.19-.29-.23-.26-.27-.22-.3-.17-.33-.13-.34-.07-.26-.01h-71.53l.26.01-.35-.01-.35.04-.33.1-.31.15-.29.19-.25.25-.21.27-.16.31-.11.33-.06.34v6.97-.17.35l.06.34.11.33.16.31.21.28.25.24.29.19.31.15.33.1.35.04z" style="stroke-width:0.53;fill:#FFFFFF;fill-opacity:0.50"/><text x="499.73" y="410.21" lengthAdjust="spacingAndGlyphs" style="font-size:5.69px;font-family:&quot;Liberation Sans&quot;" text-anchor="middle" textLength="68.66">LONE WOLF REALTY LLC</text><path d="M431.1 344.7h71.44-.08l.35-.01.34-.07.32-.13.3-.17.27-.22.23-.26.19-.29.13-.32.09-.34.02-.35h0v-14.99h0l-.02-.35-.09-.33-.13-.32-.19-.3-.23-.26-.27-.22-.3-.17-.32-.12-.34-.07-.27-.02H431.1l.26.02-.34-.02-.35.04-.33.1-.32.15-.28.2-.25.24-.21.28-.16.3-.11.33-.06.35-.01.17v14.99l.01-.17v.35l.06.34.11.33.16.31.21.27.25.24.28.2.32.15.33.1.35.04z" style="stroke-width:0.53;fill:#FFFFFF;fill-opacity:0.50"/><text x="466.82" y="332.91" lengthAdjust="spacingAndGlyphs" style="font-size:5.69px;font-family:&quot;Liberation Sans&quot;" text-anchor="middle" textLength="68.56">LENTON REALTY GROUP</text><text x="466.82" y="341.1" lengthAdjust="spacingAndGlyphs" style="font-size:5.69px;font-family:&quot;Liberation Sans&quot;" text-anchor="middle" textLength="10.42">LLC</text><path d="M357.23 307.17h58.05-.09l.35-.01.34-.07.32-.12.31-.18.27-.22.23-.26.18-.29.14-.32.08-.34.03-.35h0v-14.99h0l-.03-.34-.08-.34-.14-.32-.18-.3-.23-.26-.27-.22-.31-.17-.32-.12-.34-.07-.26-.02h-58.05l.26.02-.35-.02-.35.05-.33.09-.31.15-.29.2-.25.24-.21.28-.16.31-.11.33-.06.34v15.16-.17.35l.06.34.11.33.16.31.21.28.25.24.29.19.31.15.33.1.35.04z" style="stroke-width:0.53;fill:#FFFFFF;fill-opacity:0.50"/><text x="386.25" y="295.38" lengthAdjust="spacingAndGlyphs" style="font-size:5.69px;font-family:&quot;Liberation Sans&quot;" text-anchor="middle" textLength="55.17">COMMUNITY LIVING</text><text x="386.25" y="303.57" lengthAdjust="spacingAndGlyphs" style="font-size:5.69px;font-family:&quot;Liberation Sans&quot;" text-anchor="middle" textLength="42.53">PLATFORM LLC</text><path d="M90.9 182.83h71.59-.09l.35-.01.34-.07.32-.13.3-.17.27-.22.23-.26.19-.3.14-.32.08-.33.03-.35h0v-14.99h0l-.03-.35-.08-.33-.14-.32-.19-.3-.23-.26-.27-.22-.3-.17-.32-.12-.34-.07-.26-.02H90.9l.26.02-.34-.02-.35.04-.33.1-.32.15-.28.2-.25.24-.21.28-.16.3-.11.33-.06.35-.01.17v14.99l.01-.17v.34l.06.35.11.33.16.31.21.27.25.24.28.2.32.15.33.1.35.04z" style="stroke-width:0.53;fill:#FFFFFF;fill-opacity:0.50"/><text x="126.69" y="171.04" lengthAdjust="spacingAndGlyphs" style="font-size:5.69px;font-family:&quot;Liberation Sans&quot;" text-anchor="middle" textLength="68.7">CLEARVUE PROPERTIES</text><text x="126.69" y="179.23" lengthAdjust="spacingAndGlyphs" style="font-size:5.69px;font-family:&quot;Liberation Sans&quot;" text-anchor="middle" textLength="10.42">LLC</text><path d="M222.71 303.55h53.22-.08l.35-.01.34-.07.32-.13.3-.17.27-.22.23-.26.19-.29.13-.32.09-.34.02-.35h0V286.4h0l-.02-.34-.09-.34-.13-.32-.19-.3-.23-.26-.27-.22-.3-.17-.32-.12-.34-.07-.27-.02h-53.22l.26.02-.35-.02-.34.05-.34.09-.31.15-.29.2-.25.24-.2.28-.17.31-.11.33-.05.34-.01.17v14.99l.01-.17v.35l.05.34.11.33.17.31.2.28.25.24.29.19.31.15.34.1.34.04z" style="stroke-width:0.53;fill:#FFFFFF;fill-opacity:0.50"/><text x="249.32" y="291.76" lengthAdjust="spacingAndGlyphs" style="font-size:5.69px;font-family:&quot;Liberation Sans&quot;" text-anchor="middle" textLength="39.19">BRONZEVILLE</text><text x="249.32" y="299.95" lengthAdjust="spacingAndGlyphs" style="font-size:5.69px;font-family:&quot;Liberation Sans&quot;" text-anchor="middle" textLength="50.34">APARTMENTS LLC</text><path d="M549 686.51h68.71-.09l.35-.02.34-.07.33-.12.3-.17.27-.22.23-.26.18-.3.14-.32.08-.33.03-.35h0v-14.99h0l-.03-.35-.08-.34-.14-.32-.18-.29-.23-.26-.27-.22-.3-.17-.33-.13-.34-.07-.26-.01H549l.26.01-.34-.01-.35.04-.33.1-.32.15-.28.19-.25.25-.21.27-.16.31-.11.33-.06.34-.01.18v14.99l.01-.17v.34l.06.35.11.33.16.3.21.28.25.24.28.2.32.15.33.1.35.04z" style="stroke-width:0.53;fill:#FFFFFF;fill-opacity:0.50"/><text x="583.36" y="674.71" lengthAdjust="spacingAndGlyphs" style="font-size:5.69px;font-family:&quot;Liberation Sans&quot;" text-anchor="middle" textLength="65.83">ONE PROPERTY AT THE</text><text x="583.36" y="682.91" lengthAdjust="spacingAndGlyphs" style="font-size:5.69px;font-family:&quot;Liberation Sans&quot;" text-anchor="middle" textLength="25.58">TIME LLC</text><path d="M504.03 168.07h49.35-.09l.35-.02.34-.07.32-.12.3-.17.27-.22.23-.26.19-.3.14-.32.08-.34.03-.34h0v-6.8h0l-.03-.35-.08-.33-.14-.32-.19-.3-.23-.26-.27-.22-.3-.17-.32-.12-.34-.07-.26-.02h-49.35l.26.02-.35-.02-.34.04-.34.1-.31.15-.29.2-.25.24-.21.28-.16.3-.11.33-.05.35-.01.17v6.8l.01-.18v.35l.05.35.11.32.16.31.21.28.25.24.29.2.31.15.34.09.34.05z" style="stroke-width:0.53;fill:#FFFFFF;fill-opacity:0.50"/><text x="528.7" y="164.47" lengthAdjust="spacingAndGlyphs" style="font-size:5.69px;font-family:&quot;Liberation Sans&quot;" text-anchor="middle" textLength="46.47">TRINA A NELSON</text><path d="M389.3 414.16h63.22-.09l.35-.02.34-.07.33-.12.3-.17.27-.22.23-.26.18-.3.14-.32.08-.33.03-.35h0v-23.19h0l-.03-.34-.08-.34-.14-.32-.18-.29-.23-.26-.27-.22-.3-.18-.33-.12-.34-.07-.26-.02H389.3l.26.02-.35-.02-.35.05-.33.09-.31.15-.29.2-.25.24-.21.28-.16.31-.11.33-.06.34V412v-.18.35l.06.35.11.33.16.3.21.28.25.24.29.2.31.15.33.1.35.04z" style="stroke-width:0.53;fill:#FFFFFF;fill-opacity:0.50"/><text x="420.91" y="394.17" lengthAdjust="spacingAndGlyphs" style="font-size:5.69px;font-family:&quot;Liberation Sans&quot;" text-anchor="middle" textLength="54.66">777 JEFFERSON ST,</text><text x="420.91" y="402.36" lengthAdjust="spacingAndGlyphs" style="font-size:5.69px;font-family:&quot;Liberation Sans&quot;" text-anchor="middle" textLength="60.34">STE 408, MILWAUKEE,</text><text x="420.91" y="410.56" lengthAdjust="spacingAndGlyphs" style="font-size:5.69px;font-family:&quot;Liberation Sans&quot;" text-anchor="middle" textLength="24.31">WI 53202</text><path d="M528.68 523.51h63.23-.09l.35-.01.34-.07.32-.13.3-.17.27-.22.23-.26.19-.29.13-.32.09-.34.03-.35h0v-23.18h0l-.03-.35-.09-.34-.13-.32-.19-.29-.23-.26-.27-.22-.3-.18-.32-.12-.34-.07-.26-.01h-63.23l.26.01-.35-.01-.34.04-.33.1-.32.15-.28.19-.26.24-.2.28-.17.31-.11.33-.05.34-.01.18v23.18l.01-.17v.35l.05.34.11.33.17.31.2.27.26.24.28.2.32.15.33.1.34.04z" style="stroke-width:0.53;fill:#FFFFFF;fill-opacity:0.50"/><text x="560.29" y="503.52" lengthAdjust="spacingAndGlyphs" style="font-size:5.69px;font-family:&quot;Liberation Sans&quot;" text-anchor="middle" textLength="60.34">777 N JEFFERSON ST,</text><text x="560.29" y="511.72" lengthAdjust="spacingAndGlyphs" style="font-size:5.69px;font-family:&quot;Liberation Sans&quot;" text-anchor="middle" textLength="60.34">STE 408, MILWAUKEE,</text><text x="560.29" y="519.91" lengthAdjust="spacingAndGlyphs" style="font-size:5.69px;font-family:&quot;Liberation Sans&quot;" text-anchor="middle" textLength="24.31">WI 53202</text><path d="M160 263.81h62.91-.08l.34-.02.34-.07.33-.12.3-.17.27-.22.23-.26.19-.3.13-.32.08-.34.03-.34h0v-23.19h0l-.03-.34-.08-.34-.13-.32-.19-.3-.23-.26-.27-.22-.3-.17-.33-.12-.34-.07-.26-.02H160l.26.02-.35-.02-.34.05-.33.09-.32.15-.28.2-.26.24-.2.28-.17.31-.11.33-.05.34-.01.17v23.19l.01-.18v.35l.05.34.11.33.17.31.2.28.26.24.28.2.32.15.33.09.34.05z" style="stroke-width:0.53;fill:#FFFFFF;fill-opacity:0.50"/><text x="191.46" y="243.82" lengthAdjust="spacingAndGlyphs" style="font-size:5.69px;font-family:&quot;Liberation Sans&quot;" text-anchor="middle" textLength="54.66">777 JEFFERSON ST,</text><text x="191.46" y="252.01" lengthAdjust="spacingAndGlyphs" style="font-size:5.69px;font-family:&quot;Liberation Sans&quot;" text-anchor="middle" textLength="60.03">LOWR 2, MILWAUKEE,</text><text x="191.46" y="260.21" lengthAdjust="spacingAndGlyphs" style="font-size:5.69px;font-family:&quot;Liberation Sans&quot;" text-anchor="middle" textLength="24.31">WI 53202</text><path d="M610.85 378.79h65.13l-.08-.01.34-.01.34-.07.33-.12.3-.18.27-.22.23-.26.19-.29.13-.32.09-.34.02-.34h0v-14.99h0l-.02-.35-.09-.34-.13-.32-.19-.29-.23-.26-.27-.22-.3-.18-.33-.12-.34-.07-.26-.01h-65.13l.26.01-.34-.01-.35.04-.33.1-.32.14-.28.2-.25.24-.21.28-.16.31-.11.33-.06.34-.01.18v14.99l.01-.18v.35l.06.34.11.33.16.31.21.28.25.24.28.2.32.15.33.09.35.04z" style="stroke-width:0.53;fill:#FFFFFF;fill-opacity:0.50"/><text x="643.42" y="366.99" lengthAdjust="spacingAndGlyphs" style="font-size:5.69px;font-family:&quot;Liberation Sans&quot;" text-anchor="middle" textLength="62.25">100 WILBURN RD, SUN</text><text x="643.42" y="375.19" lengthAdjust="spacingAndGlyphs" style="font-size:5.69px;font-family:&quot;Liberation Sans&quot;" text-anchor="middle" textLength="50.23">PRAIRIE, WI 53590</text><path d="M267 548.11h63.84-.08l.34-.02.35-.07.32-.12.3-.18.27-.22.23-.26.19-.29.13-.32.09-.34.02-.34h0v-14.99h0l-.02-.35-.09-.34-.13-.32-.19-.29-.23-.26-.27-.22-.3-.18-.32-.12-.35-.07-.26-.01H267l.26.01-.35-.01-.35.04-.33.1-.31.15-.29.19-.25.24-.21.28-.16.31-.11.33-.06.34v15.17-.18.35l.06.34.11.33.16.31.21.28.25.24.29.2.31.15.33.09.35.05z" style="stroke-width:0.53;fill:#FFFFFF;fill-opacity:0.50"/><text x="298.92" y="536.31" lengthAdjust="spacingAndGlyphs" style="font-size:5.69px;font-family:&quot;Liberation Sans&quot;" text-anchor="middle" textLength="43.91">PO BOX 242162,</text><text x="298.92" y="544.51" lengthAdjust="spacingAndGlyphs" style="font-size:5.69px;font-family:&quot;Liberation Sans&quot;" text-anchor="middle" textLength="60.97">MILWAUKEE, WI 53224</text><path d="M505.31 465.37h63.22-.09l.35-.02.34-.07.33-.12.3-.17.27-.22.23-.26.18-.3.14-.32.08-.34.03-.34h0v-23.19h0l-.03-.34-.08-.34-.14-.32-.18-.3-.23-.26-.27-.22-.3-.17-.33-.12-.34-.07-.26-.02h-63.22l.26.02-.35-.02-.35.05-.33.09-.31.15-.29.2-.25.24-.21.28-.16.31-.11.33-.06.34v23.36-.18.35l.06.34.11.33.16.31.21.28.25.24.29.2.31.15.33.09.35.05z" style="stroke-width:0.53;fill:#FFFFFF;fill-opacity:0.50"/><text x="536.92" y="445.38" lengthAdjust="spacingAndGlyphs" style="font-size:5.69px;font-family:&quot;Liberation Sans&quot;" text-anchor="middle" textLength="60.34">777 N JEFFERSON ST,</text><text x="536.92" y="453.57" lengthAdjust="spacingAndGlyphs" style="font-size:5.69px;font-family:&quot;Liberation Sans&quot;" text-anchor="middle" textLength="60.34">STE 408, MILWAUKEE,</text><text x="536.92" y="461.77" lengthAdjust="spacingAndGlyphs" style="font-size:5.69px;font-family:&quot;Liberation Sans&quot;" text-anchor="middle" textLength="24.31">WI 53202</text><path d="M283.45 365.12h63.22-.09l.35-.02.34-.07.33-.12.3-.17.27-.22.23-.26.18-.3.14-.32.08-.33.03-.35h0v-23.19h0l-.03-.34-.08-.34-.14-.32-.18-.29-.23-.26-.27-.22-.3-.18-.33-.12-.34-.07-.26-.02h-63.22l.26.02-.35-.01-.35.04-.33.09-.31.15-.29.2-.25.24-.21.28-.16.31-.11.33-.06.34v23.36-.17.34l.06.35.11.33.16.3.21.28.25.24.29.2.31.15.33.1.35.04z" style="stroke-width:0.53;fill:#FFFFFF;fill-opacity:0.50"/><text x="315.06" y="345.13" lengthAdjust="spacingAndGlyphs" style="font-size:5.69px;font-family:&quot;Liberation Sans&quot;" text-anchor="middle" textLength="54.66">777 JEFFERSON ST,</text><text x="315.06" y="353.32" lengthAdjust="spacingAndGlyphs" style="font-size:5.69px;font-family:&quot;Liberation Sans&quot;" text-anchor="middle" textLength="60.34">STE 408, MILWAUKEE,</text><text x="315.06" y="361.52" lengthAdjust="spacingAndGlyphs" style="font-size:5.69px;font-family:&quot;Liberation Sans&quot;" text-anchor="middle" textLength="24.31">WI 53202</text><path d="M348.61 557.63h63.85-.09l.35-.02.34-.07.33-.12.3-.17.27-.22.23-.26.18-.3.14-.32.08-.33.03-.35h0v-14.99h0l-.03-.35-.08-.34-.14-.32-.18-.29-.23-.26-.27-.22-.3-.17-.33-.13-.34-.07-.26-.01h-63.85l.26.01-.35-.01-.34.04-.33.1-.32.15-.28.19-.26.25-.2.27-.17.31-.11.33-.05.34-.01.18v14.99l.01-.18v.35l.05.35.11.33.17.3.2.28.26.24.28.2.32.15.33.1.34.04z" style="stroke-width:0.53;fill:#FFFFFF;fill-opacity:0.50"/><text x="380.54" y="545.83" lengthAdjust="spacingAndGlyphs" style="font-size:5.69px;font-family:&quot;Liberation Sans&quot;" text-anchor="middle" textLength="45.27">4838 51ST BLVD,</text><text x="380.54" y="554.03" lengthAdjust="spacingAndGlyphs" style="font-size:5.69px;font-family:&quot;Liberation Sans&quot;" text-anchor="middle" textLength="60.97">MILWAUKEE, WI 53218</text><path d="M232.69 479.12h64.4-.09l.35-.01.34-.07.32-.13.3-.17.27-.22.23-.26.19-.29.13-.32.09-.34.03-.35h0v-14.99h0l-.03-.35-.09-.33-.13-.32-.19-.3-.23-.26-.27-.22-.3-.17-.32-.12-.34-.07-.26-.02h-64.4l.26.02-.35-.02-.34.04-.34.1-.31.15-.29.2-.25.24-.21.28-.16.3-.11.33-.05.35-.01.17v14.99l.01-.17v.35l.05.34.11.33.16.31.21.27.25.24.29.2.31.15.34.1.34.04z" style="stroke-width:0.53;fill:#FFFFFF;fill-opacity:0.50"/><text x="264.89" y="467.33" lengthAdjust="spacingAndGlyphs" style="font-size:5.69px;font-family:&quot;Liberation Sans&quot;" text-anchor="middle" textLength="61.52">9629 W PARKLAND CT,</text><text x="264.89" y="475.52" lengthAdjust="spacingAndGlyphs" style="font-size:5.69px;font-family:&quot;Liberation Sans&quot;" text-anchor="middle" textLength="60.97">MILWAUKEE, WI 53224</text><path d="M538.66 629.06h63.85-.09l.35-.01.34-.07.32-.13.31-.17.27-.22.23-.26.18-.3.14-.32.08-.33.03-.35h0v-14.99h0l-.03-.35-.08-.33-.14-.32-.18-.3-.23-.26-.27-.22-.31-.17-.32-.13-.34-.06-.26-.02h-63.85l.26.02-.35-.02-.34.04-.34.1-.31.15-.29.2-.25.24-.21.28-.16.3-.11.33-.05.35-.01.17v14.99l.01-.17v.34l.05.35.11.33.16.31.21.27.25.24.29.2.31.15.34.1.34.04z" style="stroke-width:0.53;fill:#FFFFFF;fill-opacity:0.50"/><text x="570.58" y="617.27" lengthAdjust="spacingAndGlyphs" style="font-size:5.69px;font-family:&quot;Liberation Sans&quot;" text-anchor="middle" textLength="43.58">4267 N 66TH ST,</text><text x="570.58" y="625.46" lengthAdjust="spacingAndGlyphs" style="font-size:5.69px;font-family:&quot;Liberation Sans&quot;" text-anchor="middle" textLength="60.97">MILWAUKEE, WI 53216</text><path d="M476.25 240.77h62.71l-.09-.01.35-.01.34-.07.33-.12.3-.18.27-.22.23-.26.18-.29.14-.32.08-.34.03-.34h0v-15h0l-.03-.34-.08-.34-.14-.32-.18-.29-.23-.26-.27-.22-.3-.18-.33-.12-.34-.07-.26-.02h-62.71l.26.02-.35-.01-.34.04-.33.1-.32.14-.28.2-.26.24-.2.28-.17.31-.11.33-.05.34-.01.17v15l.01-.18v.35l.05.34.11.33.17.31.2.28.26.24.28.2.32.15.33.09.34.04z" style="stroke-width:0.53;fill:#FFFFFF;fill-opacity:0.50"/><text x="507.61" y="228.97" lengthAdjust="spacingAndGlyphs" style="font-size:5.69px;font-family:&quot;Liberation Sans&quot;" text-anchor="middle" textLength="49.3">44 SUNRIDGE DR,</text><text x="507.61" y="237.17" lengthAdjust="spacingAndGlyphs" style="font-size:5.69px;font-family:&quot;Liberation Sans&quot;" text-anchor="middle" textLength="59.83">WAUKESHA, WI 53189</text><path d="M401.18 222.24h63.53-.08l.34-.01.34-.07.33-.13.3-.17.27-.22.23-.26.18-.29.14-.32.08-.34.03-.35h0V196.9h0l-.03-.35-.08-.34-.14-.32-.18-.29-.23-.26-.27-.22-.3-.18-.33-.12-.34-.07-.26-.01h-63.53l.26.01-.35-.01-.35.04-.33.1-.31.15-.29.19-.25.24-.21.28-.16.31-.11.33-.06.34v23.36-.17.35l.06.34.11.33.16.31.21.27.25.25.29.19.31.15.33.1.35.04z" style="stroke-width:0.53;fill:#FFFFFF;fill-opacity:0.50"/><text x="432.94" y="202.25" lengthAdjust="spacingAndGlyphs" style="font-size:5.69px;font-family:&quot;Liberation Sans&quot;" text-anchor="middle" textLength="60.05">333 BROWN DEER RD</text><text x="432.94" y="210.45" lengthAdjust="spacingAndGlyphs" style="font-size:5.69px;font-family:&quot;Liberation Sans&quot;" text-anchor="middle" textLength="60.66">G925, MILWAUKEE, WI</text><text x="432.94" y="218.64" lengthAdjust="spacingAndGlyphs" style="font-size:5.69px;font-family:&quot;Liberation Sans&quot;" text-anchor="middle" textLength="15.78">53217</text><path d="M107.95 223.02h62.91-.09l.35-.01.34-.07.32-.12.31-.18.26-.22.24-.26.18-.29.14-.32.08-.34.03-.35h0v-23.18h0l-.03-.35-.08-.34-.14-.32-.18-.29-.24-.26-.26-.22-.31-.17-.32-.13-.34-.07-.26-.01h-62.91l.26.01-.35-.01-.34.04-.34.1-.31.15-.29.2-.25.24-.21.27-.16.31-.11.33-.06.34v23.36-.17.35l.06.34.11.33.16.31.21.28.25.24.29.19.31.15.34.1.34.04z" style="stroke-width:0.53;fill:#FFFFFF;fill-opacity:0.50"/><text x="139.4" y="203.04" lengthAdjust="spacingAndGlyphs" style="font-size:5.69px;font-family:&quot;Liberation Sans&quot;" text-anchor="middle" textLength="54.66">777 JEFFERSON ST,</text><text x="139.4" y="211.23" lengthAdjust="spacingAndGlyphs" style="font-size:5.69px;font-family:&quot;Liberation Sans&quot;" text-anchor="middle" textLength="60.03">LOWR 2, MILWAUKEE,</text><text x="139.4" y="219.42" lengthAdjust="spacingAndGlyphs" style="font-size:5.69px;font-family:&quot;Liberation Sans&quot;" text-anchor="middle" textLength="24.31">WI 53202</text><path d="M66.81 153.25h66.38-.09l.35-.01.34-.07.32-.13.3-.17.27-.22.23-.26.19-.29.13-.32.09-.34.03-.35h0v-23.18h0l-.03-.35-.09-.34-.13-.32-.19-.29-.23-.26-.27-.22-.3-.18-.32-.12-.34-.07-.26-.01H66.81l.26.01-.35-.01-.35.04-.33.1-.31.15-.29.19-.25.24-.21.28-.16.31-.11.33-.06.34v23.36-.17.35l.06.34.11.33.16.31.21.27.25.24.29.2.31.15.33.1.35.04z" style="stroke-width:0.53;fill:#FFFFFF;fill-opacity:0.50"/><text x="100" y="133.26" lengthAdjust="spacingAndGlyphs" style="font-size:5.69px;font-family:&quot;Liberation Sans&quot;" text-anchor="middle" textLength="63.5">1345 N JEFFERSON ST,</text><text x="100" y="141.46" lengthAdjust="spacingAndGlyphs" style="font-size:5.69px;font-family:&quot;Liberation Sans&quot;" text-anchor="middle" textLength="60.97"># 168, MILWAUKEE, WI</text><text x="100" y="149.65" lengthAdjust="spacingAndGlyphs" style="font-size:5.69px;font-family:&quot;Liberation Sans&quot;" text-anchor="middle" textLength="15.78">53202</text></g><g clip-path="url(#cpMC4wMHw3MjAuMDB8MC4wMHw3MjAuMDA=)"><circle cx="264.83" cy="97.06" r="1.95" style="stroke-width:0.71;stroke:none;fill:#F8766D"/><path d="m341.23 94.02 2.63 4.56h-5.26z" style="stroke-width:0.71;stroke:none;fill:#00BA38"/><path d="M407.23 99.01h3.91V95.1h-3.91z" style="stroke-width:0.71;stroke:none;fill:#619CFF"/><text x="278.95" y="100.22" lengthAdjust="spacingAndGlyphs" style="font-size:8.80px;font-weight:0;font-family:&quot;Nimbus Sans Narrow&quot;" textLength="48.16">mprop address</text><text x="355.35" y="100.22" lengthAdjust="spacingAndGlyphs" style="font-size:8.80px;font-weight:0;font-family:&quot;Nimbus Sans Narrow&quot;" textLength="39.72">owner name</text><text x="423.31" y="100.22" lengthAdjust="spacingAndGlyphs" style="font-size:8.80px;font-weight:0;font-family:&quot;Nimbus Sans Narrow&quot;" textLength="40.5">wdfi address</text><text x="29.89" y="65.35" lengthAdjust="spacingAndGlyphs" style="font-size:12.00px;font-weight:0;font-family:&quot;Nimbus Sans Narrow&quot;" textLength="263.05">includes 21 parcels, 100 units, and 13 distinct owner names.</text><text x="29.89" y="42.81" lengthAdjust="spacingAndGlyphs" style="font-size:18.00px;font-weight:0;font-family:&quot;Nimbus Sans Narrow&quot;" textLength="301.8">ONE PROPERTY AT A TIME LLC etc Group</text></g></g></svg>