<svg xmlns="http://www.w3.org/2000/svg" width="384" height="480" viewBox="0 0 288 360"><g class="svglite"><defs><style><![CDATA[.svglite line,.svglite polyline,.svglite polygon,.svglite path,.svglite circle{fill:none;stroke:#000000;stroke-linecap:round;stroke-linejoin:round;stroke-miterlimit:10.00}.svglite text{white-space:pre}.svglite g.glyphgroup path{fill:inherit;stroke:none}]]></style></defs><rect width="100%" height="100%" style="stroke-linecap:round;stroke-linejoin:round;stroke-miterlimit:10.00;stroke:none;fill:#FFFFFF"/><defs><clipPath id="cpMC4wMHwyODguMDB8MC4wMHwzNjAuMDA="><path d="M0 0h288v360H0z"/></clipPath></defs><g clip-path="url(#cpMC4wMHwyODguMDB8MC4wMHwzNjAuMDA=)"><path d="M0 0h288v360H0z" style="stroke-width:1.07;stroke:none;fill:#FFFFFF"/></g><defs><clipPath id="cpMzIuNjN8MjU4LjExfDE0MS41OHwzMjcuMzc="><path d="M32.63 141.58h225.48v185.8H32.63z"/></clipPath></defs><g clip-path="url(#cpMzIuNjN8MjU4LjExfDE0MS41OHwzMjcuMzc=)"><path d="m111.2 262.63.69-.57.69-.57.69-.57.69-.57.69-.57.69-.57.69-.57.69-.56.7-.57.69-.57.69-.57.69-.57.69-.57.69-.57.69-.57.69-.56.69-.57.69-.57.69-.57.69-.57.69-.57.69-.57.69-.56.69-.57.69-.57.69-.57.69-.57.69-.57.69-.57.69-.57.69-.56.69-.57.69-.57.69-.57.69-.57.69-.57.69-.57.69-.57.69-.56.69-.57.69-.57.69-.57.69-.57.69-.57.69-.57.69-.56.69-.57.69-.57.69-.57.69-.57.69-.57.69-.57.69-.57.69-.56.69-.57.69-.57.69-.57.69-.57.69-.57.69-.57.69-.57.7-.56.69-.57.69-.57.69-.57.69-.57.69-.57.69-.57.69-.56.69-.57.69-.57.69-.57.69-.57.69-.57.69-.57.69-.57.69-.56.69-.57.69-.57.69-.57.69-.57.69-.57.69-.57.69-.57.69-.56.69-.57.69-.57.69-.57.69-.57.69-.57.69-.57.69-.57.69-.56.69-.57.69-.57.69-.57.69-.57.69-.57.69-.57m68.33-56.3-.69.57-.69.57-.69.57-.69.57-.69.57-.69.56-.69.57-.69.57-.69.57-.69.57-.69.57-.69.57-.69.57-.69.56-.69.57-.69.57-.69.57-.69.57-.69.57-.69.57-.69.57-.69.56-.69.57-.69.57-.69.57-.69.57-.69.57-.69.57-.69.56-.69.57-.69.57-.69.57-.69.57-.69.57-.69.57-.69.57-.69.56-.7.57-.69.57-.69.57-.69.57-.69.57-.69.57-.69.57-.69.56-.69.57-.69.57-.69.57-.69.57-.69.57-.69.57-.69.56-.69.57-.69.57-.69.57-.69.57-.69.57-.69.57-.69.57-.69.56-.69.57-.69.57-.69.57-.69.57-.69.57-.69.57-.69.57-.69.56-.69.57-.69.57-.69.57-.69.57-.69.57-.69.57-.69.57-.69.56-.69.57-.69.57-.69.57-.69.57-.69.57-.69.57-.69.56-.69.57-.7.57-.69.57-.69.57-.69.57-.69.57-.69.57-.69.56-.69.57-.69.57-.69.57-.69.57-.69.57-.69.57-.69.57-.69.56m-68.33 56.31-.69.56-.69.57-.69.57-.69.57-.69.57-.69.57-.69.57-.69.57-.69.56-.69.57-.69.57-.69.57-.69.57-.69.57-.69.57-.69.56-.69.57-.69.57-.69.57-.69.57-.69.57-.69.57-.69.57-.69.56-.69.57-.69.57-.69.57-.69.57-.69.57-.69.57-.69.57-.69.56-.69.57-.69.57-.69.57-.69.57-.69.57-.69.57-.69.56-.69.57-.69.57-.69.57-.69.57-.69.57-.69.57-.69.57-.69.56-.69.57-.69.57-.69.57-.7.57-.69.57-.69.57-.69.57-.69.56-.69.57-.69.57-.69.57-.69.57-.69.57-.69.57-.69.57-.69.56-.69.57-.69.57-.69.57-.69.57-.69.57-.69.57-.69.56-.69.57-.69.57-.69.57-.69.57-.69.57-.69.57-.69.57-.69.56-.69.57-.69.57-.69.57-.69.57-.69.57-.69.57-.69.57-.69.56-.69.57-.69.57-.69.57-.69.57-.69.57-.69.57-.69.56-.69.57-.69.57-.69.57-.69.57-.69.57-.69.57" style="stroke-width:1.07;stroke:#000000;stroke-opacity:0.10;stroke-linecap:butt"/><path d="m111.2 252.12 9.1 15.76h-18.2zm136.66-104.31 1.92 3.32h-3.83z" style="stroke-width:0.71;stroke:none;fill:#00BFC4"/><circle cx="179.53" cy="206.32" r="6.76" style="stroke-width:0.71;stroke:none;fill:#F8766D"/><circle cx="42.88" cy="318.93" r="1.42" style="stroke-width:0.71;stroke:none;fill:#F8766D"/><path d="m105.87 267.24 4.46-3.85m132.69-111.35 3.71-1.55m-72.54 60.46 4.46-3.87M48.37 314.3l-4.6 3.88" style="stroke-width:0.53;stroke:#BFBFBF"/><path d="M67.73 286.56h52.3l-.08-.01.34-.01.34-.07.33-.12.3-.18.27-.22.23-.26.19-.29.13-.32.08-.34.03-.34h0v-15h0l-.03-.34-.08-.34-.13-.32-.19-.29-.23-.26-.27-.22-.3-.18-.33-.12-.34-.07-.26-.02h-52.3l.26.02-.35-.01-.34.04-.34.09-.31.15-.29.2-.25.24-.21.28-.16.31-.11.33-.05.34-.01.17v15l.01-.18v.35l.05.34.11.33.16.31.21.28.25.24.29.2.31.14.34.1.34.04z" style="stroke-width:0.53;fill:#FFFFFF;fill-opacity:0.50"/><text x="93.88" y="274.76" lengthAdjust="spacingAndGlyphs" style="font-size:5.69px;font-family:&quot;Liberation Sans&quot;" text-anchor="middle" textLength="29.61">PAULINE C</text><text x="93.88" y="282.96" lengthAdjust="spacingAndGlyphs" style="font-size:5.69px;font-family:&quot;Liberation Sans&quot;" text-anchor="middle" textLength="49.42">NWAGBARAOCHA</text><path d="M163.06 157.91h77.8-.09l.35-.01.34-.07.33-.13.3-.17.27-.22.23-.26.18-.29.14-.32.08-.34.03-.35h0v-6.79h0l-.03-.35-.08-.34-.14-.32-.18-.29-.23-.26-.27-.22-.3-.18-.33-.12-.34-.07-.26-.01h-77.8l.26.01-.35-.01-.34.04-.34.1-.31.14-.29.2-.25.24-.21.28-.16.31-.11.33-.05.34-.01.18v6.79l.01-.17v.35l.05.34.11.33.16.31.21.27.25.25.29.19.31.15.34.1.34.04z" style="stroke-width:0.53;fill:#FFFFFF;fill-opacity:0.50"/><text x="201.96" y="154.31" lengthAdjust="spacingAndGlyphs" style="font-size:5.69px;font-family:&quot;Liberation Sans&quot;" text-anchor="middle" textLength="74.92">PAULINE NWAGBARAOCHA</text><path d="M129.52 230.26h65.33-.08l.34-.01.35-.07.32-.12.3-.18.27-.22.23-.26.19-.29.13-.32.09-.34.02-.35h0v-14.99h0l-.02-.34-.09-.34-.13-.32-.19-.29-.23-.26-.27-.22-.3-.18-.32-.12-.35-.07-.26-.02h-65.33l.26.02-.35-.01-.34.04-.33.09-.32.15-.28.2-.26.24-.2.28-.17.31-.11.33-.05.34-.01.17v14.99l.01-.17v.35l.05.34.11.33.17.31.2.28.26.24.28.2.32.14.33.1.34.04z" style="stroke-width:0.53;fill:#FFFFFF;fill-opacity:0.50"/><text x="162.19" y="218.47" lengthAdjust="spacingAndGlyphs" style="font-size:5.69px;font-family:&quot;Liberation Sans&quot;" text-anchor="middle" textLength="62.45">5500 W BROOKLYN PL,</text><text x="162.19" y="226.66" lengthAdjust="spacingAndGlyphs" style="font-size:5.69px;font-family:&quot;Liberation Sans&quot;" text-anchor="middle" textLength="60.97">MILWAUKEE, WI 53216</text><path d="M38.41 314.3h63.85-.09l.35-.01.34-.07.33-.12.3-.18.27-.22.23-.26.18-.29.14-.32.08-.34.03-.35h0v-14.99h0l-.03-.34-.08-.34-.14-.32-.18-.3-.23-.26-.27-.22-.3-.17-.33-.12-.34-.07-.26-.02H38.41l.26.02-.34-.02-.35.05-.33.09-.32.15-.28.2-.25.24-.21.28-.16.31-.11.33-.06.34-.01.17v14.99l.01-.17v.35l.06.34.11.33.16.31.21.28.25.24.28.19.32.15.33.1.35.04z" style="stroke-width:0.53;fill:#FFFFFF;fill-opacity:0.50"/><text x="70.34" y="302.51" lengthAdjust="spacingAndGlyphs" style="font-size:5.69px;font-family:&quot;Liberation Sans&quot;" text-anchor="middle" textLength="57.31">411 WISCONSIN AVE,</text><text x="70.34" y="310.7" lengthAdjust="spacingAndGlyphs" style="font-size:5.69px;font-family:&quot;Liberation Sans&quot;" text-anchor="middle" textLength="60.97">MILWAUKEE, WI 53202</text></g><g clip-path="url(#cpMC4wMHwyODguMDB8MC4wMHwzNjAuMDA=)"><circle cx="84.57" cy="116.5" r="1.95" style="stroke-width:0.71;stroke:none;fill:#F8766D"/><path d="m160.97 113.46 2.63 4.56h-5.26z" style="stroke-width:0.71;stroke:none;fill:#00BFC4"/><text x="98.69" y="119.66" lengthAdjust="spacingAndGlyphs" style="font-size:8.80px;font-weight:0;font-family:&quot;Nimbus Sans Narrow&quot;" textLength="48.16">mprop address</text><text x="175.09" y="119.66" lengthAdjust="spacingAndGlyphs" style="font-size:8.80px;font-weight:0;font-family:&quot;Nimbus Sans Narrow&quot;" textLength="39.72">owner name</text><text x="32.63" y="84.79" lengthAdjust="spacingAndGlyphs" style="font-size:12.00px;font-weight:0;font-family:&quot;Nimbus Sans Narrow&quot;" textLength="241.17">includes 3 parcels, 5 units, and 2 distinct owner names.</text><text x="32.63" y="42.81" lengthAdjust="spacingAndGlyphs" style="font-size:18.00px;font-weight:0;font-family:&quot;Nimbus Sans Narrow&quot;" textLength="230.39">PAULINE C NWAGBARAOCHA --</text><text x="32.63" y="62.25" lengthAdjust="spacingAndGlyphs" style="font-size:18.00px;font-weight:0;font-family:&quot;Nimbus Sans Narrow&quot;" textLength="250.08">PAULINE NWAGBARAOCHA Group</text></g></g></svg>