<svg xmlns="http://www.w3.org/2000/svg" width="768" height="768" viewBox="0 0 576 576"><g class="svglite"><defs><style><![CDATA[.svglite line,.svglite polyline,.svglite polygon,.svglite path,.svglite circle{fill:none;stroke:#000000;stroke-linecap:round;stroke-linejoin:round;stroke-miterlimit:10.00}.svglite text{white-space:pre}.svglite g.glyphgroup path{fill:inherit;stroke:none}]]></style></defs><rect width="100%" height="100%" style="stroke-linecap:round;stroke-linejoin:round;stroke-miterlimit:10.00;stroke:none;fill:#FFFFFF"/><defs><clipPath id="cpMC4wMHw1NzYuMDB8MC4wMHw1NzYuMDA="><path d="M0 0h576v576H0z"/></clipPath></defs><g clip-path="url(#cpMC4wMHw1NzYuMDB8MC4wMHw1NzYuMDA=)"><path d="M0 0h576v576H0z" style="stroke-width:1.07;stroke:none;fill:#FFFFFF"/></g><defs><clipPath id="cpMzIuNjN8NTQ2LjExfDEyMi4xNHw1NDMuMzc="><path d="M32.63 122.14h513.48v421.24H32.63z"/></clipPath></defs><g clip-path="url(#cpMzIuNjN8NTQ2LjExfDEyMi4xNHw1NDMuMzc=)"><path d="m373.76 286.69-1.5-.86-1.5-.85-1.5-.84-1.51-.82-1.5-.81-1.51-.8-1.51-.78-1.52-.77-1.52-.75-1.51-.75-1.53-.73-1.52-.71-1.53-.7-1.53-.69-1.53-.68-1.53-.66-1.54-.65-1.53-.64-1.55-.62-1.54-.61-1.54-.6-1.55-.58-1.55-.57-1.55-.56-1.56-.54-1.56-.53-1.56-.52-1.56-.5-1.56-.49-1.57-.48-1.57-.46-1.57-.45-1.58-.44-1.57-.42-1.58-.41-1.58-.4-1.59-.38-1.58-.37-1.59-.36-1.59-.34-1.59-.33-1.6-.32-1.6-.31-1.6-.29-1.6-.27-1.61-.27-1.6-.25-1.61-.24-1.62-.22-1.61-.21-1.62-.2-1.62-.18-1.62-.17-1.62-.16-1.63-.15-1.63-.13-1.63-.12-1.63-.1-1.64-.09-1.64-.08-1.64-.07-1.64-.05-1.65-.04-1.64-.02-1.65-.01h-1.66l-1.65.01-1.66.03-1.66.04-1.66.06-1.67.07-1.66.08-1.67.09-1.68.11-1.67.12-1.68.14-1.67.14-1.69.17-1.68.17-1.69.19-1.68.2-1.7.21-1.69.23-1.69.24-1.7.26-1.7.26-1.71.28-1.7.3-1.71.3-1.71.32-1.71.34-1.72.35-1.71.36-1.72.37-1.72.39-1.73.4-1.72.41-1.73.43-1.73.44m62.24-124.52-.63 1.26-.63 1.26-.62 1.26-.63 1.26-.63 1.25-.63 1.26-.63 1.26-.63 1.26-.63 1.25-.63 1.26-.62 1.26-.63 1.26-.63 1.25-.63 1.26-.63 1.26-.63 1.26-.63 1.26-.63 1.25-.62 1.26-.63 1.26-.63 1.26-.63 1.25-.63 1.26-.63 1.26-.63 1.26-.63 1.25-.62 1.26-.63 1.26-.63 1.26-.63 1.26-.63 1.25-.63 1.26-.63 1.26-.63 1.26-.62 1.25-.63 1.26-.63 1.26-.63 1.26-.63 1.25-.63 1.26-.63 1.26-.63 1.26-.62 1.26-.63 1.25-.63 1.26-.63 1.26-.63 1.26-.63 1.25-.63 1.26-.63 1.26-.62 1.26-.63 1.26-.63 1.25-.63 1.26-.63 1.26-.63 1.26-.63 1.25-.63 1.26-.62 1.26-.63 1.26-.63 1.25-.63 1.26-.63 1.26-.63 1.26-.63 1.26-.63 1.25-.62 1.26-.63 1.26-.63 1.26-.63 1.25-.63 1.26-.63 1.26-.63 1.26-.63 1.25-.62 1.26-.63 1.26-.63 1.26-.63 1.26-.63 1.25-.63 1.26-.63 1.26-.63 1.26-.62 1.25-.63 1.26-.63 1.26-.63 1.26-.63 1.26-.63 1.25-.63 1.26-.63 1.26-.62 1.26-.63 1.25-.63 1.26-.63 1.26-.63 1.26-.63 1.25-.63 1.26-.63 1.26-.62 1.26" style="stroke-width:1.07;stroke:#000000;stroke-opacity:0.10;stroke-linecap:butt"/><path d="m373.76 286.69-1.51-.8-1.51-.79-1.51-.78-1.52-.76-1.52-.75-1.52-.74-1.52-.73-1.52-.72-1.53-.7-1.53-.69-1.53-.68-1.53-.67-1.53-.66-1.54-.64-1.54-.63-1.54-.62-1.54-.61-1.55-.6-1.55-.58-1.55-.57-1.55-.56-1.55-.55-1.56-.53-1.56-.53-1.56-.51-1.56-.5-1.57-.49-1.56-.47-1.57-.47-1.58-.45-1.57-.44-1.58-.42-1.57-.42-1.58-.4-1.59-.39-1.58-.38-1.59-.37-1.59-.36-1.59-.34-1.59-.33-1.59-.32-1.6-.31-1.6-.29-1.6-.28-1.61-.28-1.6-.26-1.61-.24-1.61-.24-1.61-.22-1.62-.21-1.61-.2-1.62-.19-1.62-.17-1.63-.17-1.62-.15-1.63-.13-1.63-.13-1.63-.12-1.64-.1-1.63-.09-1.64-.08-1.64-.07-1.64-.05-1.65-.04-1.65-.03-1.64-.02-1.66-.01-1.65.01-1.66.01-1.65.03-1.66.04-1.66.06-1.67.06-1.67.08-1.66.09-1.67.1-1.68.12-1.67.12-1.68.14-1.68.15-1.68.16-1.68.17-1.69.19-1.69.2-1.69.21-1.69.22-1.69.23-1.7.25-1.7.26-1.7.27-1.7.28-1.71.29-1.71.31-1.71.32-1.71.33-1.71.34-1.72.35-1.71.37-1.72.38" style="stroke-width:1.07;stroke:#000000;stroke-opacity:0.10;stroke-linecap:butt"/><path d="m373.76 286.69-1.52-.74-1.52-.73-1.53-.71-1.52-.71-1.53-.7-1.53-.68-1.53-.67-1.53-.67-1.54-.65-1.54-.64-1.54-.63-1.54-.62-1.54-.61-1.55-.6-1.54-.59-1.55-.57-1.55-.57-1.56-.55-1.55-.55-1.56-.53-1.56-.52-1.56-.52-1.56-.5-1.56-.49-1.57-.48-1.57-.47-1.57-.46-1.57-.44-1.57-.44-1.58-.43-1.58-.41-1.58-.41-1.58-.39-1.58-.38-1.59-.38-1.59-.36-1.59-.35-1.59-.34-1.59-.33-1.6-.32-1.59-.3-1.6-.3-1.6-.29-1.61-.27-1.6-.27-1.61-.25-1.61-.25-1.61-.23-1.61-.22-1.62-.21-1.61-.2-1.62-.19-1.62-.18-1.62-.17-1.63-.15-1.62-.15-1.63-.14-1.63-.12-1.63-.12-1.64-.1-1.63-.09-1.64-.08-1.64-.08-1.64-.06-1.65-.05-1.64-.03-1.65-.03L266 261l-1.65-.01-1.65.01-1.66.01-1.66.03-1.65.04-1.67.04-1.66.06-1.66.07-1.67.08-1.67.09-1.67.1-1.67.11-1.68.12-1.67.14-1.68.14-1.68.16-1.68.16-1.69.18-1.68.18-1.69.2-1.69.21-1.69.22-1.7.23-1.69.24-1.7.25-1.7.26-1.7.28-1.7.28-1.71.3-1.71.3-1.7.32" style="stroke-width:1.07;stroke:#000000;stroke-opacity:0.10;stroke-linecap:butt"/><path d="m373.76 286.69-1.53-.68-1.53-.67-1.54-.65-1.53-.65-1.54-.64-1.54-.63-1.54-.62-1.55-.61-1.54-.6-1.55-.59-1.55-.58-1.55-.57-1.55-.56-1.55-.55-1.56-.55-1.55-.53-1.56-.53-1.56-.51-1.56-.51-1.57-.49-1.56-.49-1.57-.47-1.57-.47-1.57-.46-1.57-.45-1.57-.44-1.58-.43-1.58-.42-1.57-.41-1.59-.4-1.58-.39-1.58-.38-1.59-.37-1.58-.37-1.59-.35-1.59-.34-1.6-.34-1.59-.32-1.6-.32-1.59-.3-1.6-.3-1.6-.29-1.61-.27-1.6-.27-1.61-.26-1.61-.25-1.61-.24-1.61-.23-1.61-.22-1.61-.21-1.62-.2-1.62-.19-1.62-.19-1.62-.17-1.62-.16-1.63-.16-1.62-.14-1.63-.14-1.63-.12-1.63-.12-1.64-.11-1.63-.09-1.64-.09-1.64-.08-1.64-.07-1.64-.06-1.64-.05-1.65-.04-1.64-.03-1.65-.02-1.65-.01h-1.66l-1.65.01-1.66.01-1.65.03-1.66.03-1.66.05-1.66.05-1.67.07-1.66.07-1.67.09-1.67.09-1.67.1-1.67.11-1.68.12-1.67.13-1.68.15-1.68.14-1.68.16-1.68.17-1.69.18-1.68.19-1.69.2-1.69.2-1.69.22-1.7.22-1.69.24-1.7.24-1.69.26" style="stroke-width:1.07;stroke:#000000;stroke-opacity:0.10;stroke-linecap:butt"/><path d="m373.76 286.69-1.54-.62-1.55-.6-1.54-.6-1.55-.59-1.55-.58-1.55-.57-1.55-.57-1.55-.56-1.55-.54-1.56-.54-1.56-.54-1.55-.52-1.56-.51-1.57-.51-1.56-.5-1.56-.49-1.57-.48-1.57-.48-1.57-.46-1.57-.46-1.57-.45-1.57-.44-1.58-.44-1.57-.42-1.58-.42-1.58-.41-1.58-.4-1.58-.39-1.59-.38-1.58-.38-1.59-.36-1.59-.36-1.58-.35-1.6-.35-1.59-.33-1.59-.33-1.6-.32-1.59-.31-1.6-.3-1.6-.29-1.6-.29-1.61-.27-1.6-.27-1.61-.26-1.6-.25-1.61-.25-1.61-.23-1.61-.23-1.62-.22-1.61-.21-1.62-.2-1.62-.2-1.61-.18-1.63-.18-1.62-.17-1.62-.16-1.63-.16-1.62-.14-1.63-.14-1.63-.13-1.63-.12-1.63-.11-1.64-.1-1.63-.1-1.64-.09-1.64-.08-1.64-.07-1.64-.06-1.64-.06-1.64-.04-1.65-.04-1.65-.03-1.65-.02-1.65-.02h-3.3l-1.65.01-1.66.02-1.66.03-1.66.03-1.66.05-1.66.05-1.66.06-1.67.07-1.66.08-1.67.08-1.67.1-1.67.1-1.67.11-1.68.12-1.67.12-1.68.14-1.68.14-1.68.15-1.68.16-1.68.17-1.68.17-1.69.19-1.68.19m-25.93 136.25.44-1.35.44-1.36.44-1.35.43-1.35.43-1.35.42-1.36.42-1.35.42-1.36.41-1.35.41-1.36.41-1.35.4-1.36.4-1.36.4-1.36.39-1.35.39-1.36.38-1.36.38-1.36.38-1.36.37-1.36.37-1.36.36-1.37.37-1.36.35-1.36.36-1.37.35-1.36.35-1.36.34-1.37.34-1.36.34-1.37.33-1.37.33-1.36.32-1.37.32-1.37.32-1.37.31-1.37.31-1.37.31-1.37.3-1.37.3-1.37.3-1.37.29-1.37.29-1.37.28-1.38.28-1.37.28-1.38.27-1.37.27-1.38.26-1.37.27-1.38.25-1.37.26-1.38.25-1.38.25-1.38.24-1.38.24-1.38.24-1.38.23-1.38.23-1.38.22-1.38.22-1.38.22-1.38.21-1.39.21-1.38.21-1.38.2-1.39.2-1.38.2-1.39.19-1.38.19-1.39.18-1.39.18-1.38.18-1.39.17-1.39.17-1.39.17-1.39.16-1.39.16-1.39.15-1.39.15-1.39.15-1.4.14-1.39.14-1.39.14-1.4.13-1.39.13-1.39.12-1.4.13-1.4.11-1.39.12-1.4.11-1.4.1-1.39.11-1.4.1-1.4.09-1.4.09-1.4.09-1.4.08-1.4.09-1.4m-25.93 136.25-.59 1.19-.58 1.19-.57 1.2-.58 1.2-.57 1.19-.56 1.2-.57 1.2-.56 1.2-.55 1.2-.56 1.2-.55 1.2-.55 1.21-.54 1.2-.54 1.2-.54 1.21-.53 1.2-.53 1.21-.53 1.21-.52 1.21-.52 1.21-.52 1.21-.51 1.21-.51 1.21-.51 1.21-.51 1.22-.5 1.21-.49 1.22-.5 1.21-.49 1.22-.49 1.22-.48 1.22-.48 1.21-.48 1.22-.47 1.23-.47 1.22-.47 1.22-.46 1.22-.47 1.23-.45 1.22-.46 1.23-.45 1.22-.44 1.23-.45 1.23-.44 1.23-.44 1.23-.43 1.23-.43 1.23-.43 1.23-.42 1.24-.43 1.23-.41 1.24-.42 1.23-.41 1.24-.41 1.24-.4 1.24-.4 1.23-.4 1.24-.39 1.25-.39 1.24-.39 1.24-.39 1.24-.38 1.25-.38 1.24-.37 1.25-.37 1.24-.37 1.25-.36 1.25-.37 1.25-.35 1.25-.36 1.25-.35 1.25-.35 1.25-.34 1.26-.34 1.25-.34 1.25-.34 1.26-.33 1.26-.32 1.25-.33 1.26-.32 1.26-.32 1.26-.31 1.26-.32 1.26-.3 1.26-.31 1.27-.3 1.26-.3 1.27-.29 1.26-.29 1.27-.29 1.26-.29 1.27-.28 1.27-.28 1.27-.27 1.27-.27 1.27-.27 1.27-.27 1.28-.26 1.27-.26 1.28" style="stroke-width:1.07;stroke:#000000;stroke-opacity:0.10;stroke-linecap:butt"/><path d="m373.76 286.69-1.55-.55-1.56-.55-1.55-.54-1.56-.53-1.56-.52-1.56-.52-1.56-.51-1.56-.5-1.57-.5-1.56-.49-1.57-.48-1.56-.48-1.57-.47-1.57-.46-1.57-.45-1.57-.45-1.58-.44-1.57-.44-1.58-.42-1.58-.42-1.57-.41-1.58-.41-1.58-.4-1.59-.39-1.58-.39-1.58-.37-1.59-.38-1.59-.36-1.59-.36-1.59-.35-1.59-.34-1.59-.34-1.59-.33-1.6-.32-1.59-.31-1.6-.31-1.6-.3-1.6-.3-1.6-.29-1.6-.28-1.6-.27-1.61-.27-1.6-.26-1.61-.25-1.61-.25-1.61-.23-1.61-.24-1.61-.22-1.62-.22-1.61-.21-1.62-.2-1.61-.2-1.62-.19-1.62-.18-1.62-.18-1.62-.17-1.63-.16-1.62-.16-1.63-.15-1.62-.14-1.63-.13-1.63-.13-1.63-.12-1.64-.11-1.63-.11-1.63-.1-1.64-.09-1.64-.09-1.63-.08-1.64-.07-1.65-.06-1.64-.06-1.64-.05-1.65-.05-1.64-.03-1.65-.03-1.65-.03-1.65-.01-1.65-.01h-3.3l-1.66.01-1.65.02-1.66.03-1.66.03-1.66.04-1.66.05-1.66.05-1.66.06-1.67.07-1.66.07-1.67.08-1.67.09-1.67.1-1.67.1-1.67.11-1.67.11-1.68.13-1.67.13m-25.93 136.25.37-1.36.37-1.37.36-1.36.37-1.36.36-1.36.36-1.37.36-1.36.35-1.36.35-1.37.36-1.36.34-1.36.35-1.37.34-1.36.35-1.37.34-1.36.33-1.37.34-1.37.33-1.36.33-1.37.33-1.37.33-1.36.32-1.37.32-1.37.32-1.37.32-1.36.31-1.37.32-1.37.31-1.37.31-1.37.3-1.37.31-1.37.3-1.37.3-1.37.3-1.38.29-1.37.29-1.37.3-1.37.28-1.37.29-1.38.28-1.37.29-1.37.28-1.38.27-1.37.28-1.38.27-1.37.27-1.38.27-1.37.27-1.38.26-1.37.26-1.38.26-1.38.26-1.37.26-1.38.25-1.38.25-1.37.25-1.38.24-1.38.25-1.38.24-1.38.24-1.38.24-1.38.23-1.38.24-1.38.23-1.38.22-1.38.23-1.38.23-1.38.22-1.38.22-1.39.21-1.38.22-1.38.21-1.38.21-1.39.21-1.38.21-1.39.2-1.38.2-1.38.2-1.39.2-1.38.2-1.39.19-1.39.19-1.38.19-1.39.19-1.38.18-1.39.18-1.39.18-1.39.18-1.38.17-1.39.18-1.39.17-1.39.17-1.39.16-1.39.17-1.39.16-1.39.16-1.39.16-1.39.15-1.39.16-1.39m-25.93 136.25-.52 1.21-.52 1.21-.51 1.21-.51 1.21-.51 1.21-.51 1.21-.51 1.22-.5 1.21-.51 1.21-.5 1.22-.5 1.21-.49 1.22-.5 1.21-.49 1.22-.49 1.22-.49 1.21-.49 1.22-.48 1.22-.48 1.22-.48 1.22-.48 1.22-.48 1.22-.47 1.22-.48 1.22-.47 1.22-.47 1.22-.46 1.23-.47 1.22-.46 1.22-.46 1.23-.46 1.22-.46 1.23-.45 1.22-.45 1.23-.46 1.23-.44 1.22-.45 1.23-.45 1.23-.44 1.23-.44 1.23-.44 1.23-.44 1.23-.43 1.23-.43 1.23-.43 1.23-.43 1.23-.43 1.24-.43 1.23-.42 1.23-.42 1.24-.42 1.23-.42 1.24-.41 1.23-.41 1.24-.41 1.23-.41 1.24-.41 1.24-.41 1.24-.4 1.24-.4 1.24-.4 1.23-.4 1.24-.39 1.25-.39 1.24-.39 1.24-.39 1.24-.39 1.24-.39 1.25-.38 1.24-.38 1.24-.38 1.25-.38 1.24-.37 1.25-.37 1.24-.38 1.25-.37 1.25-.36 1.25-.37 1.24-.36 1.25-.36 1.25-.36 1.25-.36 1.25-.35 1.25-.36 1.25-.35 1.25-.35 1.25-.34 1.26-.35 1.25-.34 1.25-.34 1.26-.34 1.25-.34 1.26-.34 1.25-.33 1.26-.33 1.25-.33 1.26-.33 1.26-.32 1.26-.33 1.26" style="stroke-width:1.07;stroke:#000000;stroke-opacity:0.10;stroke-linecap:butt"/><path d="m373.76 286.69-1.56-.49-1.57-.49-1.57-.48-1.56-.47-1.57-.47-1.57-.46-1.57-.45-1.57-.45-1.58-.45-1.57-.44-1.58-.43-1.57-.43-1.58-.42-1.58-.42-1.57-.41-1.58-.4-1.59-.4-1.58-.39-1.58-.39-1.58-.38-1.59-.38-1.59-.37-1.58-.36-1.59-.36-1.59-.36-1.59-.34-1.59-.35-1.59-.33-1.6-.33-1.59-.33-1.6-.32-1.59-.31-1.6-.31-1.6-.3-1.6-.3-1.6-.29-1.6-.28-1.6-.28-1.6-.28-1.61-.26-1.6-.27-1.61-.25-1.61-.25-1.61-.25-1.61-.24-1.61-.23-1.61-.23-1.61-.22-1.61-.22-1.62-.21-1.61-.2-1.62-.2-1.62-.2-1.62-.19-1.62-.18-1.62-.18-1.62-.17-1.62-.16-1.63-.16-1.62-.16-1.63-.14-1.62-.15-1.63-.13-1.63-.14-1.63-.12-1.63-.12-1.63-.12-1.64-.1-1.63-.11-1.63-.09-1.64-.1-1.64-.08-1.64-.08-1.64-.08-1.64-.06-1.64-.07-1.64-.05-1.64-.06-1.65-.04-1.64-.04-1.65-.04-1.64-.02-1.65-.03-1.65-.02-1.65-.01h-4.96l-1.65.01-1.66.02-1.66.02-1.65.03-1.66.03-1.66.04-1.66.05-1.66.05-1.67.06-1.66.06-1.66.07" style="stroke-width:1.07;stroke:#000000;stroke-opacity:0.10;stroke-linecap:butt"/><path d="m373.76 286.69-1.58-.43-1.57-.42-1.58-.42-1.58-.42-1.58-.41-1.58-.4-1.58-.41-1.58-.39-1.58-.4-1.58-.38-1.59-.39-1.58-.38-1.59-.37-1.58-.37-1.59-.37-1.59-.36-1.58-.36-1.59-.35-1.59-.35-1.59-.34-1.6-.34-1.59-.34-1.59-.33-1.59-.32-1.6-.33-1.6-.31-1.59-.32-1.6-.3-1.6-.31-1.6-.3-1.59-.29-1.61-.29-1.6-.29-1.6-.28-1.6-.28-1.6-.27-1.61-.27-1.6-.26-1.61-.26-1.61-.26-1.6-.25-1.61-.25-1.61-.24-1.61-.24-1.61-.23-1.61-.23-1.61-.22-1.62-.22-1.61-.22-1.62-.21-1.61-.21-1.62-.2-1.61-.2-1.62-.19-1.62-.19-1.62-.18-1.62-.18-1.62-.18-1.62-.17-1.63-.17-1.62-.16-1.62-.16-1.63-.15-1.62-.15-1.63-.14-1.63-.14-1.63-.14-1.62-.13-1.63-.13-1.64-.12-1.63-.12-1.63-.11-1.63-.11-1.64-.1-1.63-.1-1.63-.1-1.64-.09-1.64-.09-1.64-.08-1.63-.08-1.64-.07-1.64-.07-1.64-.07-1.65-.06-1.64-.05-1.64-.06-1.65-.04-1.64-.05-1.65-.03-1.64-.04-1.65-.03-1.65-.02-1.65-.02-1.65-.02-1.65-.01-1.65-.01h-3.3l-1.65.01m-94.98-111.44.78 1.23.79 1.24.78 1.23.8 1.23.79 1.22.8 1.23.81 1.22.8 1.22.81 1.22.82 1.22.81 1.21.83 1.21.82 1.21.83 1.21.83 1.2.84 1.2.84 1.2.84 1.2.85 1.2.85 1.19.85 1.19.86 1.19.86 1.19.86 1.18.87 1.18.88 1.18.87 1.18.88 1.18.88 1.17.89 1.17.89 1.17.89 1.17.9 1.16.9 1.16.91 1.16.91 1.16.91 1.15.91 1.16.92 1.15.93 1.14.92 1.15.93 1.14.94 1.15.94 1.14.94 1.13.94 1.14.95 1.13.95 1.13.96 1.13.96 1.12.96 1.13.97 1.12.97 1.12.97 1.11.98 1.12.98 1.11.98 1.11.99 1.11.99 1.1 1 1.11 1 1.1 1 1.1 1.01 1.09 1.01 1.1 1.01 1.09 1.02 1.09 1.02 1.08 1.03 1.09 1.02 1.08 1.04 1.08 1.03 1.08 1.04 1.08 1.04 1.07 1.05 1.07 1.05 1.07 1.05 1.07 1.06 1.06 1.06 1.07 1.07 1.06 1.07 1.05 1.07 1.06 1.07 1.05 1.08 1.05 1.09 1.05 1.08 1.05 1.09 1.04 1.1 1.05 1.09 1.04 1.1 1.03 1.11 1.04 1.11 1.03 1.11 1.03 1.12 1.03 1.11 1.03 1.13 1.02 1.12 1.03 1.13 1.02 1.14 1.01 1.14 1.02" style="stroke-width:1.07;stroke:#000000;stroke-opacity:0.10;stroke-linecap:butt"/><path d="m373.76 286.69-1.59-.37-1.58-.36-1.59-.36-1.59-.36-1.59-.35-1.59-.35-1.59-.35-1.59-.34-1.59-.34-1.59-.34-1.6-.34-1.59-.33-1.59-.32-1.6-.33-1.59-.32-1.6-.32-1.59-.32-1.6-.31-1.6-.31-1.59-.3-1.6-.31-1.6-.29-1.6-.3-1.6-.29-1.6-.29-1.6-.29-1.6-.29-1.6-.28-1.61-.27-1.6-.28-1.6-.27-1.61-.27-1.6-.26-1.61-.26-1.6-.26-1.61-.26-1.61-.25-1.61-.25-1.6-.24-1.61-.25-1.61-.24-1.61-.23-1.61-.24-1.62-.23-1.61-.22-1.61-.23-1.61-.22-1.62-.21-1.61-.22-1.61-.21-1.62-.21-1.62-.2-1.61-.2-1.62-.2-1.62-.2-1.61-.19-1.62-.19-1.62-.18-1.62-.19-1.62-.17-1.62-.18-1.62-.17-1.63-.17-1.62-.17-1.62-.16-1.63-.16-1.62-.16-1.62-.16-1.63-.15-1.63-.14-1.62-.15-1.63-.14-1.63-.14-1.63-.13-1.62-.14-1.63-.12-1.63-.13-1.63-.12-1.63-.12-1.64-.12-1.63-.11-1.63-.11-1.63-.11-1.64-.1-1.63-.1-1.64-.1-1.63-.09-1.64-.09-1.64-.09-1.63-.08-1.64-.09-1.64-.07-1.64-.08-1.64-.07-1.64-.07-1.64-.06-1.64-.07-1.64-.06-1.64-.05" style="stroke-width:1.07;stroke:#000000;stroke-opacity:0.10;stroke-linecap:butt"/><path d="m373.76 286.69-1.6-.31-1.6-.3-1.59-.3-1.6-.3-1.6-.29-1.6-.3-1.6-.29-1.6-.29-1.6-.29-1.6-.29-1.61-.28-1.6-.29-1.6-.28-1.6-.28-1.6-.27-1.61-.28-1.6-.27-1.6-.27-1.61-.27-1.6-.27-1.61-.27-1.6-.26-1.61-.27-1.6-.26-1.61-.25-1.61-.26-1.6-.26-1.61-.25-1.61-.25-1.61-.25-1.6-.24-1.61-.25-1.61-.24-1.61-.24-1.61-.24-1.61-.24-1.61-.24-1.61-.23-1.61-.23-1.61-.23-1.61-.23-1.62-.23-1.61-.22-1.61-.22-1.61-.22-1.62-.22-1.61-.22-1.61-.21-1.62-.22-1.61-.21-1.62-.21-1.61-.2-1.62-.21-1.61-.2-1.62-.21-1.62-.19-1.61-.2-1.62-.2-1.62-.19-1.62-.19-1.62-.19-1.61-.19-1.62-.19-1.62-.18-1.62-.19-1.62-.18-1.62-.18-1.62-.17-1.62-.18-1.63-.17-1.62-.17-1.62-.17-1.62-.17-1.62-.16-1.63-.17-1.62-.16-1.63-.16-1.62-.16-1.62-.15-1.63-.16-1.62-.15-1.63-.15-1.63-.15-1.62-.14-1.63-.15-1.62-.14-1.63-.14-1.63-.14-1.63-.14-1.63-.13-1.62-.14-1.63-.13-1.63-.13-1.63-.12-1.63-.13-1.63-.12-1.63-.12-1.63-.12-1.63-.12" style="stroke-width:1.07;stroke:#000000;stroke-opacity:0.10;stroke-linecap:butt"/><path d="m373.76 286.69-1.61-.24-1.61-.25-1.61-.24-1.61-.24-1.61-.24-1.61-.24-1.61-.23-1.6-.24-1.61-.24-1.61-.23-1.62-.24-1.61-.24-1.61-.23-1.61-.23-1.61-.24-1.61-.23-1.61-.23-1.61-.23-1.61-.23-1.61-.23-1.61-.23-1.61-.23-1.62-.23-1.61-.23-1.61-.22-1.61-.23-1.61-.22-1.62-.23-1.61-.22-1.61-.23-1.61-.22-1.62-.22-1.61-.22-1.61-.23-1.61-.22-1.62-.22-1.61-.22-1.61-.21-1.62-.22-1.61-.22-1.61-.22-1.62-.21-1.61-.22-1.61-.21-1.62-.22-1.61-.21-1.62-.21-1.61-.22-1.62-.21-1.61-.21-1.62-.21-1.61-.21-1.61-.21-1.62-.21-1.62-.2-1.61-.21-1.62-.21-1.61-.2-1.62-.21-1.61-.2-1.62-.21-1.61-.2-1.62-.2-1.62-.21-1.61-.2-1.62-.2-1.62-.2-1.61-.2-1.62-.2-1.62-.2-1.61-.19-1.62-.2-1.62-.2-1.61-.19-1.62-.2-1.62-.19-1.62-.2-1.62-.19-1.61-.19-1.62-.19-1.62-.2-1.62-.19-1.62-.19-1.61-.19-1.62-.18-1.62-.19-1.62-.19-1.62-.19-1.62-.18-1.62-.19-1.62-.18-1.62-.19-1.62-.18-1.62-.19-1.62-.18-1.61-.18-1.62-.18-1.62-.18-1.62-.18" style="stroke-width:1.07;stroke:#000000;stroke-opacity:0.10;stroke-linecap:butt"/><path d="m373.76 286.69-1.62-.18-1.62-.18-1.62-.18-1.62-.19-1.62-.18-1.62-.18-1.62-.19-1.62-.18-1.62-.19-1.62-.18-1.62-.19-1.61-.18-1.62-.19-1.62-.19-1.62-.19-1.62-.19-1.62-.19-1.62-.19-1.61-.19-1.62-.19-1.62-.2-1.62-.19-1.61-.19-1.62-.2-1.62-.19-1.62-.2-1.61-.19-1.62-.2-1.62-.2-1.61-.2-1.62-.2-1.62-.2-1.61-.2-1.62-.2-1.62-.2-1.61-.2-1.62-.2-1.62-.21-1.61-.2-1.62-.21-1.61-.2-1.62-.21-1.61-.2-1.62-.21-1.61-.21-1.62-.21-1.61-.21-1.62-.21-1.61-.21-1.62-.21-1.61-.21-1.62-.21-1.61-.21-1.62-.22-1.61-.21-1.61-.22-1.62-.21-1.61-.22-1.61-.22-1.62-.21-1.61-.22-1.61-.22-1.62-.22-1.61-.22-1.61-.22-1.62-.22-1.61-.22-1.61-.22-1.61-.23-1.62-.22-1.61-.23-1.61-.22-1.61-.23-1.61-.22-1.62-.23-1.61-.23-1.61-.22-1.61-.23-1.61-.23-1.61-.23-1.61-.23-1.62-.23-1.61-.24-1.61-.23-1.61-.23-1.61-.24-1.61-.23-1.61-.23-1.61-.24-1.61-.24-1.61-.23-1.61-.24-1.61-.24-1.61-.24-1.61-.24-1.61-.24-1.61-.24-1.61-.24-1.6-.24" style="stroke-width:1.07;stroke:#000000;stroke-opacity:0.10;stroke-linecap:butt"/><path d="m118.94 154.36.84 1.19.84 1.2.85 1.2.85 1.19.85 1.2.85 1.19.86 1.19.85 1.19.86 1.19.87 1.18.86 1.19.87 1.18.87 1.18.87 1.18.87 1.18.88 1.17.88 1.18.88 1.17.89 1.18.88 1.17.89 1.17.89 1.16.9 1.17.89 1.17.9 1.16.9 1.16.91 1.16.9 1.16.91 1.16.91 1.15.92 1.16.91 1.15.92 1.15.92 1.15.92 1.15.93 1.15.93 1.14.93 1.14.93 1.15.94 1.14.93 1.14.94 1.13.95 1.14.94 1.14.95 1.13.95 1.13.95 1.13.95 1.13.96 1.13.96 1.12.96 1.13.97 1.12.96 1.12.97 1.12.97 1.12.98 1.11.97 1.12.98 1.11.98 1.12.99 1.11.98 1.1.99 1.11.99 1.11 1 1.1.99 1.11 1 1.1 1 1.1 1 1.1 1.01 1.09 1.01 1.1 1.01 1.09 1.01 1.1 1.01 1.09 1.02 1.09 1.02 1.08 1.02 1.09 1.03 1.09 1.03 1.08 1.02 1.08 1.04 1.08 1.03 1.08 1.04 1.08 1.04 1.08 1.04 1.07 1.04 1.07 1.05 1.07 1.05 1.07 1.05 1.07 1.05 1.07 1.06 1.07 1.06 1.06 1.06 1.06 1.06 1.06 1.07 1.06 1.07 1.06 1.07 1.06 1.07 1.05 1.08 1.06 1.08 1.05m-25.93 136.25.3-1.37.29-1.38.3-1.37.3-1.37.29-1.37.3-1.37.29-1.37.29-1.38.29-1.37.3-1.37.29-1.37.29-1.37.29-1.38.29-1.37.28-1.37.29-1.38.29-1.37.28-1.37.29-1.37.28-1.38.28-1.37.29-1.37.28-1.38.28-1.37.28-1.37.28-1.38.28-1.37.28-1.38.27-1.37.28-1.37.28-1.38.27-1.37.28-1.38.27-1.37.27-1.38.28-1.37.27-1.38.27-1.37.27-1.38.27-1.37.27-1.38.26-1.37.27-1.38.27-1.37.26-1.38.27-1.38.26-1.37.26-1.38.27-1.37.26-1.38.26-1.38.26-1.37.26-1.38.26-1.38.26-1.37.26-1.38.25-1.38.26-1.37.25-1.38.26-1.38.25-1.38.25-1.37.26-1.38.25-1.38.25-1.38.25-1.37.25-1.38.25-1.38.24-1.38.25-1.38.25-1.38.24-1.37.25-1.38.24-1.38.25-1.38.24-1.38.24-1.38.24-1.38.24-1.38.24-1.38.24-1.37.24-1.38.24-1.38.23-1.38.24-1.38.23-1.38.24-1.38.23-1.38.24-1.38.23-1.38.23-1.38.23-1.39.23-1.38.23-1.38.23-1.38.23-1.38.22-1.38.23-1.38.23-1.38m-25.93 136.25-.46 1.22-.45 1.23-.45 1.23-.45 1.22-.45 1.23-.45 1.23-.45 1.22-.45 1.23-.45 1.23-.45 1.22-.44 1.23-.45 1.23-.45 1.23-.44 1.23-.44 1.22-.45 1.23-.44 1.23-.44 1.23-.44 1.23-.45 1.23-.44 1.23-.44 1.23-.43 1.23-.44 1.23-.44 1.23-.44 1.23-.43 1.23-.44 1.23-.43 1.23-.44 1.23-.43 1.23-.43 1.23-.44 1.23-.43 1.23-.43 1.24-.43 1.23-.43 1.23-.43 1.23-.43 1.23-.42 1.24-.43 1.23-.43 1.23-.42 1.24-.43 1.23-.42 1.23-.43 1.24-.42 1.23-.42 1.23-.42 1.24-.42 1.23-.42 1.24-.42 1.23-.42 1.23-.42 1.24-.42 1.23-.41 1.24-.42 1.23-.42 1.24-.41 1.24-.42 1.23-.41 1.24-.41 1.23-.41 1.24-.42 1.24-.41 1.23-.41 1.24-.41 1.24-.41 1.23-.4 1.24-.41 1.24-.41 1.24-.41 1.23-.4 1.24-.41 1.24-.4 1.24-.4 1.24-.41 1.23-.4 1.24-.4 1.24-.4 1.24-.4 1.24-.4 1.24-.4 1.24-.4 1.24-.4 1.24-.4 1.24-.39 1.24-.4 1.24-.39 1.24-.4 1.24-.39 1.24-.39 1.24-.4 1.24-.39 1.25-.39 1.24-.39 1.24-.39 1.24-.39 1.24-.39 1.25m227.45-237.54-1.63-.12-1.63-.12-1.63-.12-1.63-.13-1.63-.12-1.63-.13-1.63-.13-1.63-.13-1.63-.13-1.63-.14-1.62-.13-1.63-.14-1.63-.14-1.63-.15-1.62-.14-1.63-.15-1.62-.15-1.63-.15-1.63-.15-1.62-.15-1.62-.16-1.63-.16-1.62-.16-1.63-.16-1.62-.16-1.62-.17-1.62-.16-1.63-.17-1.62-.17-1.62-.18-1.62-.17-1.62-.18-1.62-.18-1.62-.18-1.62-.18-1.62-.19-1.62-.18-1.62-.19-1.62-.19-1.62-.19-1.61-.2-1.62-.19-1.62-.2-1.61-.2-1.62-.2-1.62-.2-1.61-.21-1.62-.21-1.61-.21-1.62-.21-1.61-.21-1.61-.22-1.62-.21-1.61-.22-1.61-.22-1.62-.22-1.61-.23-1.61-.22-1.61-.23-1.61-.23-1.61-.23-1.62-.24-1.61-.23-1.61-.24-1.6-.24-1.61-.24-1.61-.25-1.61-.24-1.61-.25-1.61-.25-1.6-.25-1.61-.25-1.61-.25-1.6-.26-1.61-.26-1.61-.26-1.6-.26-1.61-.27-1.6-.26-1.61-.27-1.6-.27-1.6-.27-1.61-.28-1.6-.27-1.6-.28-1.61-.28-1.6-.28-1.6-.28-1.6-.29-1.6-.28-1.6-.29-1.6-.29-1.6-.3-1.6-.29-1.6-.3-1.6-.3-1.6-.3-1.6-.3-1.59-.3" style="stroke-width:1.07;stroke:#000000;stroke-opacity:0.10;stroke-linecap:butt"/><path d="m118.94 154.36.9 1.16.9 1.16.9 1.16.91 1.16.9 1.16.91 1.16.91 1.16.9 1.15.91 1.16.91 1.16.92 1.15.91 1.16.91 1.15.92 1.15.92 1.15.92 1.16.91 1.15.93 1.15.92 1.14.92 1.15.92 1.15.93 1.15.93 1.14.92 1.15.93 1.14.93 1.15.94 1.14.93 1.14.93 1.14.94 1.14.93 1.14.94 1.14.94 1.14.94 1.14.94 1.14.94 1.13.95 1.14.94 1.13.95 1.14.94 1.13.95 1.13.95 1.13.95 1.14.96 1.13.95 1.12.95 1.13.96 1.13.96 1.13.95 1.12.96 1.13.96 1.13.97 1.12.96 1.12.96 1.13.97 1.12.97 1.12.96 1.12.97 1.12.97 1.12.97 1.12.98 1.11.97 1.12.98 1.12.97 1.11.98 1.12.98 1.11.98 1.11.98 1.11.98 1.12.98 1.11.99 1.11.99 1.11.98 1.1.99 1.11.99 1.11.99 1.1.99 1.11 1 1.1.99 1.11 1 1.1.99 1.1 1 1.11 1 1.1 1 1.1 1 1.1 1.01 1.09 1 1.1 1.01 1.1 1 1.1 1.01 1.09 1.01 1.1 1.01 1.09 1.01 1.09 1.01 1.1 1.02 1.09 1.01 1.09 1.02 1.09 1.02 1.09 1.02 1.09m159.84 20.89-1.64-.06-1.64-.06-1.64-.06-1.65-.07-1.64-.06-1.64-.08-1.63-.07-1.64-.08-1.64-.08-1.64-.08-1.63-.09-1.64-.09-1.64-.1-1.63-.09-1.64-.1-1.63-.11-1.63-.1-1.64-.11-1.63-.12-1.63-.11-1.63-.12-1.63-.12-1.63-.13-1.63-.13-1.63-.13-1.63-.14-1.63-.13-1.62-.15-1.63-.14-1.62-.15-1.63-.15-1.63-.15-1.62-.16-1.62-.16-1.63-.16-1.62-.17-1.62-.17-1.62-.17-1.62-.18-1.62-.18-1.62-.18-1.62-.19-1.62-.19-1.62-.19-1.62-.19-1.61-.2-1.62-.2-1.61-.21-1.62-.21-1.61-.21-1.62-.21-1.61-.22-1.62-.22-1.61-.22-1.61-.23-1.61-.23-1.61-.23-1.61-.24-1.61-.24-1.61-.24-1.61-.25-1.61-.25-1.6-.25-1.61-.25-1.61-.26-1.6-.26-1.61-.27-1.6-.27-1.6-.27-1.61-.27-1.6-.28-1.6-.28-1.6-.28-1.6-.29-1.61-.29-1.6-.29-1.59-.3-1.6-.3-1.6-.3-1.6-.31-1.6-.31-1.59-.31-1.6-.32-1.59-.31-1.6-.33-1.59-.32-1.6-.33-1.59-.33-1.59-.33-1.59-.34-1.59-.34-1.6-.35-1.59-.34-1.59-.35-1.58-.36-1.59-.35-1.59-.36-1.59-.37-1.58-.36m-25.93 136.25.22-1.38.23-1.39.23-1.38.23-1.38.22-1.38.23-1.38.23-1.38.23-1.38.24-1.38.23-1.38.23-1.38.23-1.38.24-1.38.23-1.38.24-1.38.24-1.38.23-1.38.24-1.38.24-1.38.24-1.38.24-1.38.24-1.38.24-1.38.25-1.38.24-1.37.24-1.38.25-1.38.25-1.38.24-1.38.25-1.38.25-1.38.24-1.37.25-1.38.25-1.38.26-1.38.25-1.37.25-1.38.25-1.38.26-1.38.25-1.37.26-1.38.25-1.38.26-1.38.26-1.37.25-1.38.26-1.38.26-1.37.26-1.38.26-1.38.27-1.37.26-1.38.26-1.37.27-1.38.26-1.38.27-1.37.26-1.38.27-1.37.27-1.38.27-1.37.27-1.38.27-1.37.27-1.38.27-1.37.27-1.38.27-1.37.28-1.38.27-1.37.28-1.38.27-1.37.28-1.38.28-1.37.27-1.37.28-1.38.28-1.37.28-1.37.28-1.38.29-1.37.28-1.38.28-1.37.29-1.37.28-1.37.29-1.38.28-1.37.29-1.37.29-1.38.29-1.37.29-1.37.29-1.37.29-1.38.29-1.37.29-1.37.29-1.37.3-1.37.29-1.38.3-1.37.29-1.37.3-1.37.3-1.37.3-1.37m-25.93 136.25-.39 1.24-.39 1.24-.39 1.24-.39 1.24-.39 1.25-.39 1.24-.39 1.24-.4 1.24-.39 1.24-.4 1.24-.39 1.24-.4 1.24-.39 1.24-.4 1.24-.4 1.24-.4 1.24-.4 1.24-.4 1.24-.4 1.24-.4 1.24-.4 1.24-.4 1.24-.4 1.24-.41 1.23-.4 1.24-.41 1.24-.4 1.24-.41 1.24-.41 1.23-.4 1.24-.41 1.24-.41 1.24-.41 1.23-.41 1.24-.41 1.24-.41 1.23-.42 1.24-.41 1.23-.41 1.24-.42 1.24-.41 1.23-.42 1.24-.41 1.23-.42 1.24-.42 1.23-.42 1.24-.42 1.23-.42 1.24-.42 1.23-.42 1.24-.42 1.23-.42 1.23-.42 1.24-.43 1.23-.42 1.23-.43 1.24-.42 1.23-.43 1.23-.43 1.23-.42 1.24-.43 1.23-.43 1.23-.43 1.23-.43 1.24-.43 1.23-.43 1.23-.43 1.23-.44 1.23-.43 1.23-.44 1.23-.43 1.23-.44 1.23-.43 1.23-.44 1.23-.44 1.23-.43 1.23-.44 1.23-.44 1.23-.44 1.23-.44 1.23-.45 1.23-.44 1.23-.44 1.23-.44 1.23-.45 1.23-.44 1.22-.45 1.23-.44 1.23-.45 1.23-.45 1.22-.45 1.23-.45 1.23-.45 1.23-.45 1.22-.45 1.23-.45 1.23-.45 1.22-.45 1.23-.46 1.23" style="stroke-width:1.07;stroke:#000000;stroke-opacity:0.10;stroke-linecap:butt"/><path d="m118.94 154.36.96 1.12.96 1.13.96 1.12.96 1.13.96 1.12.96 1.13.96 1.13.95 1.12.96 1.13.96 1.12.96 1.13.96 1.12.96 1.13.96 1.12.96 1.13.96 1.13.96 1.12.96 1.13.96 1.12.96 1.13.96 1.12.96 1.13.95 1.13.96 1.12.96 1.13.96 1.12.96 1.13.96 1.12.96 1.13.96 1.13.96 1.12.96 1.13.96 1.12.96 1.13.96 1.12.96 1.13.96 1.13.96 1.12.95 1.13.96 1.12.96 1.13.96 1.12.96 1.13.96 1.13.96 1.12.96 1.13.96 1.12.96 1.13.96 1.12.96 1.13.96 1.13.96 1.12.96 1.13.95 1.12.96 1.13.96 1.12.96 1.13.96 1.12.96 1.13.96 1.13.96 1.12.96 1.13.96 1.12.96 1.13.96 1.12.96 1.13.96 1.13.96 1.12.95 1.13.96 1.12.96 1.13.96 1.12.96 1.13.96 1.13.96 1.12.96 1.13.96 1.12.96 1.13.96 1.12.96 1.13.96 1.13.96 1.12.96 1.13.95 1.12.96 1.13.96 1.12.96 1.13.96 1.13.96 1.12.96 1.13.96 1.12.96 1.13.96 1.12.96 1.13.96 1.13.96 1.12.96 1.13.96 1.12.96 1.13m-25.93 136.25.15-1.39.16-1.4.15-1.39.16-1.39.17-1.39.16-1.39.17-1.39.16-1.39.18-1.38.17-1.39.17-1.39.18-1.39.18-1.39.18-1.38.19-1.39.18-1.39.19-1.38.19-1.39.2-1.39.19-1.38.2-1.39.2-1.38.2-1.39.2-1.38.21-1.38.21-1.39.21-1.38.21-1.38.22-1.39.22-1.38.22-1.38.22-1.38.22-1.39.23-1.38.23-1.38.23-1.38.23-1.38.24-1.38.23-1.38.24-1.38.25-1.38.24-1.37.25-1.38.24-1.38.25-1.38.26-1.38.25-1.37.26-1.38.26-1.38.26-1.37.27-1.38.26-1.37.27-1.38.27-1.38.27-1.37.28-1.37.28-1.38.28-1.37.28-1.38.28-1.37.29-1.37.29-1.37.29-1.38.29-1.37.3-1.37.29-1.37.3-1.37.31-1.37.3-1.37.31-1.37.3-1.37.32-1.37.31-1.37.31-1.37.32-1.37.32-1.37.32-1.37.33-1.36.32-1.37.33-1.37.33-1.36.34-1.37.33-1.37.34-1.36.34-1.37.34-1.36.34-1.37.35-1.36.35-1.37.35-1.36.35-1.36.36-1.37.35-1.36.36-1.36.37-1.37.36-1.36.37-1.36.36-1.36.38-1.36m-25.93 136.25-.33 1.25-.32 1.26-.33 1.26-.33 1.26-.33 1.25-.33 1.26-.34 1.25-.33 1.26-.34 1.25-.35 1.26-.34 1.25-.34 1.25-.35 1.26-.35 1.25-.35 1.25-.35 1.25-.36 1.25-.36 1.25-.36 1.25-.36 1.25-.36 1.25-.37 1.25-.36 1.24-.37 1.25-.37 1.25-.38 1.24-.37 1.25-.38 1.24-.38 1.25-.38 1.24-.38 1.25-.39 1.24-.38 1.24-.39 1.24-.39 1.25-.4 1.24-.39 1.24-.4 1.24-.4 1.24-.4 1.24-.4 1.23-.41 1.24-.41 1.24-.4 1.24-.42 1.23-.41 1.24-.41 1.24-.42 1.23-.42 1.24-.42 1.23-.42 1.23-.43 1.24-.43 1.23-.42 1.23-.43 1.23-.44 1.23-.43 1.23-.44 1.23-.44 1.23-.44 1.23-.44 1.23-.45 1.23-.44 1.23-.45 1.23-.45 1.22-.46 1.23-.45 1.22-.46 1.23-.46 1.22-.46 1.23-.46 1.22-.47 1.22-.46 1.23-.47 1.22-.47 1.22-.47 1.22-.48 1.22-.48 1.22-.47 1.22-.48 1.22-.49 1.22-.48 1.22-.49 1.22-.49 1.22-.49 1.21-.49 1.22-.5 1.21-.49 1.22-.5 1.21-.5 1.22-.5 1.21-.51 1.22-.51 1.21-.5 1.21-.51 1.21-.52 1.21-.51 1.22-.52 1.21-.52 1.21" style="stroke-width:1.07;stroke:#000000;stroke-opacity:0.10;stroke-linecap:butt"/><path d="m187.99 402.05.08-1.4.08-1.41.09-1.4.09-1.4.1-1.4.1-1.39.1-1.4.11-1.4.11-1.4.11-1.39.12-1.4.12-1.4.12-1.39.13-1.4.13-1.39.14-1.39.14-1.4.14-1.39.15-1.39.15-1.39.16-1.4.15-1.39.17-1.39.16-1.39.17-1.38.17-1.39.18-1.39.18-1.39.19-1.39.18-1.38.2-1.39.19-1.38.2-1.39.2-1.38.21-1.39.21-1.38.21-1.38.22-1.39.22-1.38.23-1.38.22-1.38.24-1.38.23-1.38.24-1.38.25-1.38.24-1.38.25-1.37.26-1.38.26-1.38.26-1.37.26-1.38.27-1.38.28-1.37.27-1.37.28-1.38.29-1.37.29-1.37.29-1.38.29-1.37.3-1.37.3-1.37.31-1.37.31-1.37.31-1.37.32-1.37.32-1.36.33-1.37.33-1.37.33-1.37.33-1.36.34-1.37.35-1.36.34-1.37.35-1.36.36-1.36.36-1.37.36-1.36.36-1.36.37-1.36.38-1.36.37-1.36.38-1.36.39-1.36.38-1.36.4-1.36.39-1.36.4-1.36.4-1.35.41-1.36.41-1.35.41-1.36.42-1.35.42-1.36.43-1.35.42-1.35.44-1.36.43-1.35.44-1.35.45-1.35m-25.93 136.25-.26 1.27-.26 1.27-.27 1.28-.27 1.27-.27 1.27-.27 1.27-.28 1.27-.28 1.27-.29 1.27-.28 1.26-.3 1.27-.29 1.27-.3 1.26-.3 1.27-.31 1.26-.3 1.26-.31 1.26-.32 1.26-.32 1.26-.32 1.26-.32 1.26-.33 1.26-.33 1.25-.34 1.26-.34 1.25-.34 1.26-.34 1.25-.35 1.25-.35 1.25-.36 1.25-.35 1.25-.36 1.25-.37 1.25-.37 1.25-.37 1.24-.37 1.25-.38 1.25-.38 1.24-.39 1.24-.38 1.25-.39 1.24-.4 1.24-.4 1.24-.4 1.24-.4 1.23-.41 1.24-.41 1.24-.42 1.23-.41 1.24-.42 1.23-.43 1.24-.43 1.23-.43 1.23-.43 1.23-.44 1.23-.44 1.23-.44 1.23-.45 1.23-.45 1.22-.46 1.23-.45 1.22-.46 1.23-.47 1.22-.47 1.22-.47 1.23-.47 1.22-.48 1.22-.48 1.22-.48 1.22-.49 1.21-.49 1.22-.49 1.22-.5 1.21-.5 1.22-.51 1.21-.5 1.21-.51 1.21-.52 1.21-.52 1.21-.52 1.21-.52 1.21-.53 1.21-.53 1.21-.53 1.2-.54 1.21-.54 1.2-.54 1.21-.55 1.2-.55 1.2-.55 1.2-.56 1.2-.56 1.2-.56 1.2-.57 1.2-.57 1.2-.58 1.19-.57 1.2-.58 1.19-.59 1.2" style="stroke-width:1.07;stroke:#000000;stroke-opacity:0.10;stroke-linecap:butt"/><path d="M373.76 286.69h-4.96l-1.65-.01-1.65-.01-1.65-.01-1.65-.02-1.65-.03-1.64-.03-1.65-.03-1.64-.04-1.65-.04-1.64-.05-1.65-.05-1.64-.06-1.64-.06-1.64-.06-1.64-.07-1.64-.08-1.64-.07-1.64-.09-1.63-.08-1.64-.09-1.63-.1-1.64-.1-1.63-.11-1.64-.1-1.63-.12-1.63-.12-1.63-.12-1.63-.13-1.63-.13-1.63-.13-1.62-.14-1.63-.15-1.63-.15-1.62-.15-1.63-.16-1.62-.16-1.62-.17-1.62-.17-1.62-.17-1.62-.18-1.62-.19-1.62-.19-1.62-.19-1.62-.2-1.61-.2-1.62-.21-1.61-.21-1.62-.21-1.61-.22-1.61-.23-1.61-.23-1.61-.23-1.61-.24-1.61-.24-1.61-.24-1.61-.26-1.61-.25-1.6-.26-1.61-.26-1.6-.27-1.6-.28-1.61-.27-1.6-.29-1.6-.28-1.6-.29-1.6-.3-1.6-.3-1.6-.3-1.59-.31-1.6-.31-1.59-.32-1.6-.32-1.59-.33-1.6-.33-1.59-.33-1.59-.34-1.59-.35-1.59-.34-1.59-.36-1.59-.35-1.59-.37-1.58-.36-1.59-.37-1.58-.38-1.59-.38-1.58-.38-1.59-.39-1.58-.39-1.58-.4-1.58-.4-1.58-.41-1.58-.41-1.58-.41-1.57-.42-1.58-.42-1.57-.43m-94.98-111.44 1.02 1.08 1.02 1.09 1.01 1.09 1.02 1.1 1.01 1.09 1.01 1.09 1.02 1.09 1.01 1.1 1 1.09 1.01 1.1 1.01 1.09 1 1.1 1.01 1.1 1 1.1 1 1.1 1 1.1 1 1.1 1 1.1 1 1.1.99 1.1 1 1.11.99 1.1.99 1.11.99 1.1.99 1.11.99 1.11.99 1.11.99 1.11.98 1.11.98 1.11.99 1.11.98 1.11.98 1.11.98 1.12.97 1.11.98 1.12.97 1.11.98 1.12.97 1.12.97 1.12.97 1.11.97 1.12.97 1.12.97 1.13.96 1.12.97 1.12.96 1.12.96 1.13.96 1.12.96 1.13.96 1.12.96 1.13.95 1.13.96 1.13.95 1.13.95 1.13.95 1.13.95 1.13.95 1.13.95 1.14.94 1.13.95 1.14.94 1.13.94 1.14.95 1.13.94 1.14.93 1.14.94 1.14.94 1.14.93 1.14.94 1.14.93 1.14.93 1.15.93 1.14.93 1.14.93 1.15.93 1.15.92 1.14.92 1.15.93 1.15.92 1.15.92 1.15.92 1.15.92 1.15.91 1.15.92 1.15.92 1.16.91 1.15.91 1.16.91 1.15.91 1.16.91 1.16.91 1.15.9 1.16.91 1.16.9 1.16.9 1.16.91 1.17.9 1.16" style="stroke-width:1.07;stroke:#000000;stroke-opacity:0.10;stroke-linecap:butt"/><path d="m373.76 286.69-1.66.07-1.67.06-1.66.05-1.66.06-1.66.04-1.66.04-1.66.03-1.66.03-1.65.02-1.66.02-1.65.01-1.66.01h-1.65l-1.65-.01-1.65-.01-1.65-.02-1.65-.02-1.65-.03-1.64-.03-1.65-.04-1.64-.05-1.65-.05-1.64-.06-1.64-.06-1.64-.07-1.64-.07-1.64-.08-1.63-.09-1.64-.09-1.63-.1-1.64-.1-1.63-.11-1.63-.11-1.63-.12-1.63-.13-1.63-.13-1.63-.14-1.63-.14-1.62-.15-1.63-.15-1.62-.16-1.63-.17-1.62-.17-1.62-.18-1.62-.18-1.62-.19-1.61-.19-1.62-.2-1.62-.21-1.61-.21-1.61-.21-1.62-.23-1.61-.22-1.61-.24-1.61-.24-1.61-.24-1.6-.25-1.61-.26-1.61-.26-1.6-.27-1.6-.27-1.61-.28-1.6-.29-1.6-.29-1.6-.29-1.6-.31-1.59-.3-1.6-.32-1.59-.32-1.6-.32-1.59-.33-1.59-.34-1.59-.34-1.59-.35-1.59-.35-1.59-.36-1.59-.37-1.58-.37-1.59-.37-1.58-.38-1.59-.39-1.58-.4-1.58-.39-1.58-.41-1.58-.41-1.58-.42-1.57-.42-1.58-.42-1.57-.44-1.58-.44-1.57-.44-1.57-.45-1.57-.46-1.57-.46-1.57-.47-1.57-.47-1.56-.48-1.57-.48-1.56-.49m-94.98-111.44 1.08 1.05 1.07 1.05 1.08 1.06 1.07 1.05 1.07 1.06 1.06 1.06 1.07 1.06 1.06 1.06 1.06 1.07 1.05 1.06 1.06 1.07 1.05 1.07 1.05 1.07 1.04 1.07 1.05 1.07 1.04 1.08 1.04 1.07 1.03 1.08 1.04 1.08 1.03 1.08 1.03 1.08 1.03 1.09 1.02 1.08 1.02 1.09 1.02 1.09 1.02 1.09 1.02 1.09 1.01 1.09 1.01 1.09 1.01 1.1 1 1.1 1.01 1.09 1 1.11.99 1.1 1 1.1.99 1.1.99 1.11.99 1.11.99 1.11.98 1.11.98 1.11.98 1.11.98 1.12.97 1.12.97 1.11.97 1.12.97 1.12.96 1.13.96 1.12.96 1.13.96 1.12.96 1.13.95 1.13.95 1.13.94 1.14.95 1.13.94 1.14.94 1.14.94 1.14.93 1.14.94 1.14.93 1.14.93 1.15.92 1.14.92 1.15.92 1.15.92 1.15.92 1.16.91 1.15.91 1.16.91 1.15.91 1.16.9 1.16.9 1.16.9 1.17.9 1.16.89 1.17.89 1.17.89 1.17.89 1.17.88 1.17.88 1.17.88 1.18.88 1.18.88 1.17.87 1.18.87 1.18.86 1.19.87 1.18.86 1.19.86 1.18.86 1.19.85 1.19.86 1.2.85 1.19.85 1.19.84 1.2.84 1.2.85 1.2" style="stroke-width:1.07;stroke:#000000;stroke-opacity:0.10;stroke-linecap:butt"/><path d="m373.76 286.69-1.68.13-1.67.12-1.67.12-1.68.11-1.67.1-1.67.09-1.66.09-1.67.08-1.67.08-1.66.06-1.66.07-1.67.05-1.66.05-1.66.03-1.66.04-1.65.02-1.66.02-1.65.01-1.66.01h-1.65l-1.65-.01-1.65-.02-1.65-.02-1.64-.03-1.65-.04-1.64-.04-1.65-.05-1.64-.06-1.64-.07-1.64-.07-1.64-.08-1.64-.08-1.63-.1-1.64-.1-1.63-.1-1.63-.12-1.63-.12-1.63-.12-1.63-.14-1.63-.14-1.62-.15-1.63-.15-1.62-.17-1.62-.16-1.62-.18-1.62-.18-1.62-.19-1.62-.2-1.61-.21-1.62-.21-1.61-.21-1.61-.23-1.62-.23-1.6-.24-1.61-.25-1.61-.25-1.61-.26-1.6-.26-1.6-.28-1.61-.28-1.6-.29-1.6-.29-1.6-.3-1.59-.31-1.6-.32-1.59-.32-1.6-.33-1.59-.33-1.59-.35-1.59-.35-1.59-.36-1.58-.36-1.59-.37-1.58-.38-1.59-.38-1.58-.4-1.58-.39-1.58-.41-1.58-.41-1.58-.42-1.57-.43-1.58-.43-1.57-.44-1.57-.45-1.57-.46-1.57-.46-1.57-.47-1.57-.47-1.56-.48-1.57-.49-1.56-.5-1.56-.5-1.57-.51-1.56-.52-1.55-.53-1.56-.53-1.56-.54-1.55-.54-1.55-.55" style="stroke-width:1.07;stroke:#000000;stroke-opacity:0.10;stroke-linecap:butt"/><path d="m373.76 286.69-1.69.19-1.68.18-1.69.18-1.68.17-1.68.16-1.68.15-1.68.14-1.67.13-1.68.13-1.67.12-1.67.11-1.67.1-1.67.09-1.67.09-1.67.07-1.66.07-1.67.06-1.66.06-1.66.04-1.66.04-1.65.02-1.66.02-1.65.01-1.66.01-1.65-.01-1.65-.01-1.65-.02-1.64-.03-1.65-.04-1.64-.05-1.65-.05-1.64-.07-1.64-.07-1.64-.08-1.63-.08-1.64-.1-1.63-.1-1.63-.12-1.64-.12-1.62-.13-1.63-.13-1.63-.15-1.62-.15-1.63-.16-1.62-.17-1.62-.18-1.62-.19-1.62-.19-1.61-.2-1.62-.22-1.61-.21-1.61-.23-1.61-.24-1.61-.24-1.61-.25-1.6-.26-1.61-.27-1.6-.28-1.6-.28-1.6-.3-1.6-.3-1.6-.31-1.59-.32-1.6-.32-1.59-.34-1.59-.34-1.59-.35-1.59-.36-1.58-.37-1.59-.37-1.58-.39-1.58-.39-1.59-.4-1.57-.41-1.58-.41-1.58-.43-1.57-.43-1.58-.44-1.57-.45-1.57-.46-1.57-.47-1.57-.47-1.56-.48-1.57-.49-1.56-.5-1.56-.51-1.56-.52-1.56-.52-1.56-.53-1.55-.54-1.56-.55-1.55-.56-1.55-.56-1.55-.57-1.55-.59-1.54-.58-1.55-.6-1.54-.61-1.54-.61" style="stroke-width:1.07;stroke:#000000;stroke-opacity:0.10;stroke-linecap:butt"/><path d="m373.76 286.69-1.7.25-1.69.25-1.7.23-1.69.23-1.69.21-1.69.21-1.69.2-1.69.18-1.68.18-1.68.17-1.68.16-1.68.15-1.68.14-1.68.13-1.67.12-1.67.11-1.67.11-1.67.09-1.67.08-1.67.08-1.66.06-1.66.05-1.66.05-1.66.04-1.66.02-1.65.02-1.66.01-1.65-.01-1.65-.01-1.65-.02-1.65-.03-1.64-.04-1.65-.05-1.64-.06-1.64-.07-1.64-.08-1.63-.08-1.64-.1-1.63-.11-1.63-.11-1.63-.13-1.63-.13-1.63-.15-1.62-.15-1.62-.17-1.63-.17-1.62-.18-1.61-.19-1.62-.2-1.62-.22-1.61-.22-1.61-.23-1.61-.24-1.61-.24-1.6-.26-1.61-.27-1.6-.28-1.6-.29-1.6-.29-1.6-.31-1.59-.31-1.6-.33-1.59-.33-1.59-.35-1.59-.35-1.59-.36-1.58-.37-1.59-.39-1.58-.39-1.58-.4-1.58-.41-1.58-.42-1.57-.43-1.57-.44-1.58-.45-1.57-.45-1.57-.47-1.56-.48-1.57-.48-1.56-.5-1.56-.5-1.56-.52-1.56-.52-1.56-.54-1.55-.54-1.56-.55-1.55-.57-1.55-.57-1.55-.58-1.54-.59-1.55-.6-1.54-.61-1.54-.62-1.54-.63-1.54-.63-1.54-.65-1.53-.66-1.53-.67-1.53-.67m-94.98-111.44 1.14 1.01 1.13 1.02 1.13 1.02 1.13 1.02 1.12 1.02 1.12 1.03 1.12 1.03 1.11 1.03 1.11 1.03 1.1 1.04 1.1 1.04 1.1 1.04 1.09 1.04 1.09 1.04 1.09 1.05 1.08 1.05 1.08 1.05 1.08 1.05 1.07 1.06 1.07 1.06 1.06 1.06 1.06 1.06 1.06 1.06 1.05 1.07 1.05 1.07 1.05 1.07 1.04 1.08 1.04 1.07 1.04 1.08 1.03 1.08 1.03 1.08 1.02 1.09 1.02 1.09 1.02 1.09 1.02 1.09 1.01 1.09 1 1.1 1.01 1.1.99 1.1 1 1.1.99 1.11.99 1.1.99 1.11.98 1.12.97 1.11.98 1.12.97 1.12.97 1.12.96 1.12.96 1.13.95 1.12.96 1.13.94 1.14.95 1.13.94 1.14.94 1.14.93 1.14.93 1.14.93 1.15.92 1.15.92 1.15.92 1.15.91 1.16.91 1.15.9 1.16.9 1.16.9 1.17.89 1.16.89 1.17.89 1.17.88 1.18.88 1.17.88 1.18.87 1.18.87 1.18.87 1.19.86 1.18.85 1.19.86 1.19.85 1.2.85 1.19.84 1.2.84 1.2.83 1.2.84 1.21.82 1.2.83 1.21.82 1.21.82 1.22.81 1.21.81 1.22.81 1.22.8 1.22.8 1.23.8 1.23.79 1.23.79 1.23.78 1.23.79 1.24" style="stroke-width:1.07;stroke:#000000;stroke-opacity:0.10;stroke-linecap:butt"/><path d="m373.76 286.69-1.71.31-1.71.31-1.7.29-1.7.29-1.71.27-1.7.26-1.69.25-1.7.25-1.69.23-1.69.21-1.69.21-1.69.2-1.69.19-1.68.17-1.68.17-1.68.15-1.68.15-1.68.13-1.67.12-1.68.12-1.67.1-1.66.09-1.67.08-1.67.06-1.66.06-1.66.05-1.66.04-1.66.02-1.65.02h-1.65l-1.66-.01-1.65-.01-1.64-.03-1.65-.04-1.64-.05-1.64-.06-1.64-.07-1.64-.08-1.64-.1-1.63-.1-1.63-.11-1.63-.13-1.63-.13-1.63-.15-1.62-.16-1.62-.17-1.62-.17-1.62-.19-1.62-.2-1.61-.22-1.62-.22-1.61-.23-1.61-.24-1.6-.26-1.61-.26-1.6-.28-1.6-.28-1.6-.3-1.6-.31-1.59-.32-1.6-.33-1.59-.34-1.59-.35-1.58-.36-1.59-.37-1.58-.38-1.59-.4-1.58-.4-1.57-.42-1.58-.42-1.57-.44-1.58-.45-1.57-.46-1.56-.47-1.57-.48-1.57-.49-1.56-.5-1.56-.51-1.56-.52-1.55-.54-1.56-.54-1.55-.56-1.55-.56-1.55-.58-1.55-.59-1.54-.6-1.55-.6-1.54-.62-1.54-.64-1.53-.64-1.54-.65-1.53-.66-1.54-.67-1.53-.69-1.52-.69-1.53-.71-1.52-.72-1.52-.72-1.52-.74m159.84 20.89 1.51.04 1.5.03 1.51.04 1.5.04 1.51.04 1.5.04 1.51.03 1.5.04 1.51.04 1.5.04 1.51.04 1.5.03 1.51.04 1.5.04 1.51.04 1.5.04 1.51.03 1.5.04 1.51.04 1.5.04 1.51.04 1.5.03 1.51.04 1.5.04 1.51.04 1.5.04 1.51.04 1.51.03 1.5.04 1.51.04 1.5.04 1.51.04 1.5.03 1.51.04 1.5.04 1.51.04 1.5.04 1.51.03 1.5.04 1.51.04 1.5.04 1.51.04 1.5.03 1.51.04 1.5.04 1.51.04 1.5.04 1.51.03 1.5.04 1.51.04 1.5.04 1.51.04 1.5.03 1.51.04 1.5.04 1.51.04 1.5.04 1.51.04 1.51.03 1.5.04 1.51.04 1.5.04 1.51.04 1.5.03 1.51.04 1.5.04 1.51.04 1.5.04 1.51.03 1.5.04 1.51.04 1.5.04 1.51.04 1.5.03 1.51.04 1.5.04 1.51.04 1.5.04 1.51.03 1.5.04 1.51.04 1.5.04 1.51.04 1.5.03 1.51.04 1.5.04 1.51.04 1.51.04 1.5.04 1.51.03 1.5.04 1.51.04 1.5.04 1.51.04 1.5.03 1.51.04 1.5.04 1.51.04 1.5.04" style="stroke-width:1.07;stroke:#000000;stroke-opacity:0.10;stroke-linecap:butt"/><path d="m373.76 286.69-1.72.38-1.72.36-1.71.36-1.72.34-1.71.33-1.71.32-1.71.3-1.7.3-1.7.28-1.71.27-1.69.26-1.7.24-1.69.24-1.7.22-1.69.21-1.68.19-1.69.19-1.68.17-1.69.17-1.68.15-1.67.13-1.68.13-1.67.11-1.67.1-1.67.09-1.67.08-1.66.07-1.66.05-1.66.04-1.66.03-1.65.02h-3.31l-1.65-.02-1.65-.03-1.64-.04-1.64-.06-1.64-.07-1.64-.07-1.64-.1-1.63-.1-1.63-.11-1.63-.13-1.63-.14-1.63-.15-1.62-.16-1.62-.18-1.62-.18-1.62-.2-1.61-.21-1.61-.23-1.61-.23-1.61-.25-1.61-.26-1.6-.27-1.6-.28-1.6-.3-1.6-.31-1.6-.31-1.59-.34-1.59-.34-1.59-.35-1.58-.37-1.59-.38-1.58-.39-1.58-.41-1.58-.41-1.58-.43-1.57-.44-1.57-.45-1.57-.46-1.57-.48-1.56-.49-1.56-.5-1.57-.51-1.55-.52-1.56-.54-1.55-.54-1.56-.56-1.55-.58-1.54-.58-1.55-.6-1.54-.6-1.54-.62-1.54-.63-1.54-.65-1.54-.65-1.53-.67-1.53-.68-1.53-.69-1.52-.71-1.53-.71-1.52-.73-1.52-.74-1.52-.75-1.51-.77-1.51-.77-1.52-.79-1.5-.8M55.97 278.02l1.59-.12 1.6-.13 1.59-.12 1.6-.13 1.59-.12 1.6-.12 1.6-.13 1.59-.12 1.6-.12 1.59-.13 1.6-.12 1.59-.12 1.6-.13 1.59-.12 1.6-.12 1.59-.13 1.6-.12 1.6-.12 1.59-.13 1.6-.12 1.59-.12 1.6-.13 1.59-.12 1.6-.12 1.59-.13 1.6-.12 1.59-.12 1.6-.13 1.6-.12 1.59-.12 1.6-.13 1.59-.12 1.6-.13 1.59-.12 1.6-.12 1.59-.13 1.6-.12 1.59-.12 1.6-.13 1.59-.12 1.6-.12 1.6-.13 1.59-.12 1.6-.12 1.59-.13 1.6-.12 1.59-.12 1.6-.13 1.59-.12 1.6-.12 1.59-.13 1.6-.12 1.6-.12 1.59-.13 1.6-.12 1.59-.12 1.6-.13 1.59-.12 1.6-.12 1.59-.13 1.6-.12 1.59-.12 1.6-.13 1.6-.12 1.59-.13 1.6-.12 1.59-.12 1.6-.13 1.59-.12 1.6-.12 1.59-.13 1.6-.12 1.59-.12 1.6-.13 1.59-.12 1.6-.12 1.6-.13 1.59-.12 1.6-.12 1.59-.13 1.6-.12 1.59-.12 1.6-.13 1.59-.12 1.6-.12 1.59-.13 1.6-.12 1.6-.12 1.59-.13 1.6-.12 1.59-.12 1.6-.13 1.59-.12 1.6-.13 1.59-.12 1.6-.12 1.59-.13 1.6-.12 1.6-.12" style="stroke-width:1.07;stroke:#000000;stroke-opacity:0.10;stroke-linecap:butt"/><path d="m373.76 286.69-1.73.44-1.73.42-1.73.42-1.72.4-1.72.39-1.72.37-1.72.36-1.71.35-1.72.33-1.71.32-1.7.31-1.71.29-1.7.28-1.7.27-1.7.25-1.7.24-1.69.23-1.69.22-1.69.2-1.68.19-1.69.17-1.68.16-1.68.15-1.67.13-1.68.12-1.67.11-1.67.1-1.67.08-1.66.07-1.66.05-1.66.04-1.66.03-1.66.02h-1.65l-1.65-.01-1.65-.03-1.64-.04-1.65-.05-1.64-.06-1.64-.08-1.63-.09-1.64-.11-1.63-.12-1.63-.13-1.62-.14-1.63-.16-1.62-.17-1.62-.19-1.61-.19-1.62-.21-1.61-.23-1.61-.24-1.61-.25-1.6-.26-1.61-.28-1.6-.29-1.59-.3-1.6-.32-1.59-.33-1.59-.35-1.59-.35-1.59-.37-1.58-.39-1.58-.39-1.58-.41-1.58-.43-1.57-.43-1.57-.45-1.57-.47-1.57-.48-1.57-.49-1.56-.5-1.56-.52-1.55-.53-1.56-.54-1.55-.55-1.55-.57-1.55-.59-1.55-.59-1.54-.61-1.54-.63-1.54-.63-1.53-.65-1.54-.67-1.53-.67-1.53-.69-1.52-.7-1.53-.72-1.52-.73-1.52-.74-1.52-.76-1.51-.77-1.51-.78-1.51-.79-1.51-.81-1.5-.83-1.51-.83-1.5-.85-1.49-.86" style="stroke-width:1.07;stroke:#000000;stroke-opacity:0.10;stroke-linecap:butt"/><path d="m373.76 277.99 7.53 13.05h-15.06zm-97.6-138.92 1.92 3.32h-3.83zm-88.17 257.67 4.59 7.96h-9.18zm-69.05-247.98 4.85 8.39h-9.7zM55.97 275.81l1.91 3.31h-3.83z" style="stroke-width:0.71;stroke:none;fill:#00BA38"/><circle cx="213.92" cy="265.8" r="6.76" style="stroke-width:0.71;stroke:none;fill:#F8766D"/><path d="M142.9 527.63h6.82v-6.81h-6.82z" style="stroke-width:0.71;stroke:none;fill:#619CFF"/><circle cx="522.77" cy="290.46" r="1.42" style="stroke-width:0.71;stroke:none;fill:#F8766D"/><path d="m368.63 291.31 4.27-3.85m-92.35-153.59-3.83 6.47m-93.87 266.33 4.28-3.85M113.7 159.09l4.38-3.96M61.49 273.38l-4.63 3.89m162.42-16.1-4.49 3.87m-62.96 254.52-4.63 3.91M517.92 291.2l3.6-.55" style="stroke-width:0.53;stroke:#BFBFBF"/><path d="M333.57 302.43h55.68-.09l.35-.02.34-.07.33-.12.3-.17.27-.22.23-.26.18-.3.14-.32.08-.33.03-.35h0v-6.8h0l-.03-.34-.08-.34-.14-.32-.18-.29-.23-.26-.27-.22-.3-.18-.33-.12-.34-.07-.26-.02h-55.68l.26.02-.34-.01-.35.04-.33.09-.32.15-.28.2-.25.24-.21.28-.16.31-.11.33-.06.34-.01.17v6.8l.01-.17v.34l.06.35.11.33.16.3.21.28.25.24.28.2.32.15.33.1.35.04z" style="stroke-width:0.53;fill:#FFFFFF;fill-opacity:0.50"/><text x="361.41" y="298.83" lengthAdjust="spacingAndGlyphs" style="font-size:5.69px;font-family:&quot;Liberation Sans&quot;" text-anchor="middle" textLength="52.8">PETER VELIKANOV</text><path d="M282.71 136.85h55.68-.09l.35-.01.34-.07.32-.12.3-.18.27-.22.23-.26.19-.29.13-.32.09-.34.03-.35h0v-6.79h0l-.03-.35-.09-.34-.13-.32-.19-.29-.23-.26-.27-.22-.3-.17-.32-.13-.34-.07-.26-.01h-55.68l.26.01-.35-.01-.34.04-.34.1-.31.15-.29.19-.25.24-.21.28-.16.31-.11.33-.05.34-.01.18v6.79l.01-.17v.35l.05.34.11.33.16.31.21.28.25.24.29.19.31.15.34.1.34.04z" style="stroke-width:0.53;fill:#FFFFFF;fill-opacity:0.50"/><text x="310.55" y="133.25" lengthAdjust="spacingAndGlyphs" style="font-size:5.69px;font-family:&quot;Liberation Sans&quot;" text-anchor="middle" textLength="52.8">PETER VEILKANOV</text><path d="M160.01 417.79h31.01-.09l.35-.02.34-.07.32-.12.3-.18.27-.21.23-.27.19-.29.14-.32.08-.34.03-.34h0v-6.8h0l-.03-.35-.08-.33-.14-.32-.19-.3-.23-.26-.27-.22-.3-.17-.32-.12-.34-.07-.26-.02h-31.01l.26.02-.34-.02-.35.04-.33.1-.32.15-.28.2-.25.24-.21.28-.16.3-.11.33-.06.35-.01.17v6.8l.01-.18v.35l.06.34.11.33.16.31.21.28.25.24.28.2.32.15.33.09.35.05z" style="stroke-width:0.53;fill:#FFFFFF;fill-opacity:0.50"/><text x="175.52" y="414.19" lengthAdjust="spacingAndGlyphs" style="font-size:5.69px;font-family:&quot;Liberation Sans&quot;" text-anchor="middle" textLength="28.12">PMSK LLC</text><path d="M74.88 170.21h63.14-.08l.34-.02.34-.07.33-.12.3-.17.27-.22.23-.26.19-.3.13-.32.08-.33.03-.35h0v-6.8h0l-.03-.34-.08-.34-.13-.32-.19-.3-.23-.26-.27-.22-.3-.17-.33-.12-.34-.07-.26-.02H74.88l.26.02-.35-.02-.34.05-.34.09-.31.15-.29.2-.25.24-.21.28-.16.31-.11.32-.06.35v6.97-.18.35l.06.35.11.33.16.3.21.28.25.24.29.2.31.15.34.09.34.05z" style="stroke-width:0.53;fill:#FFFFFF;fill-opacity:0.50"/><text x="106.45" y="166.61" lengthAdjust="spacingAndGlyphs" style="font-size:5.69px;font-family:&quot;Liberation Sans&quot;" text-anchor="middle" textLength="60.27">VICTORIA VELIKANOV</text><path d="M51.27 273.38h60.42l-.08-.01.35-.01.34-.07.32-.12.3-.18.27-.22.23-.26.19-.29.13-.32.09-.34.02-.34h0v-6.8h0l-.02-.35-.09-.34-.13-.32-.19-.29-.23-.26-.27-.22-.3-.17-.32-.13-.34-.07-.27-.01H51.27l.26.01-.35-.01-.34.04-.34.1-.31.15-.29.2-.25.24-.21.27-.16.31-.11.33-.06.34v6.98-.18.35l.06.34.11.33.16.31.21.28.25.24.29.2.31.14.34.1.34.04z" style="stroke-width:0.53;fill:#FFFFFF;fill-opacity:0.50"/><text x="81.48" y="269.78" lengthAdjust="spacingAndGlyphs" style="font-size:5.69px;font-family:&quot;Liberation Sans&quot;" text-anchor="middle" textLength="57.55">PETER A VELIKANOV</text><path d="M199.59 261.17h63.42-.08l.34-.02.35-.07.32-.12.3-.17.27-.22.23-.26.19-.3.13-.32.09-.34.02-.34h0v-14.99h0l-.02-.35-.09-.34-.13-.32-.19-.29-.23-.26-.27-.22-.3-.17-.32-.13-.35-.07-.26-.01h-63.42l.26.01-.35-.01-.34.04-.34.1-.31.15-.29.19-.25.24-.21.28-.16.31-.11.33-.06.34v15.17-.18.35l.06.34.11.33.16.31.21.28.25.24.29.2.31.15.34.09.34.05z" style="stroke-width:0.53;fill:#FFFFFF;fill-opacity:0.50"/><text x="231.3" y="249.37" lengthAdjust="spacingAndGlyphs" style="font-size:5.69px;font-family:&quot;Liberation Sans&quot;" text-anchor="middle" textLength="60.23">4454 N MORRIS BLVD,</text><text x="231.3" y="257.57" lengthAdjust="spacingAndGlyphs" style="font-size:5.69px;font-family:&quot;Liberation Sans&quot;" text-anchor="middle" textLength="60.55">MILWAUKEE, WI 53211</text><path d="M136.13 519.56h65.32l-.09-.01.35-.01.34-.07.33-.12.3-.18.27-.22.23-.26.18-.29.14-.32.08-.34.03-.34h0v-23.19h0l-.03-.35-.08-.33-.14-.32-.18-.3-.23-.26-.27-.22-.3-.17-.33-.12-.34-.07-.26-.02h-65.32l.26.02-.34-.02-.35.04-.33.1-.32.15-.28.2-.25.24-.21.28-.16.3-.11.33-.06.35-.01.17v23.19l.01-.18v.35l.06.34.11.33.16.31.21.28.25.24.28.2.32.15.33.09.35.04z" style="stroke-width:0.53;fill:#FFFFFF;fill-opacity:0.50"/><text x="168.79" y="499.57" lengthAdjust="spacingAndGlyphs" style="font-size:5.69px;font-family:&quot;Liberation Sans&quot;" text-anchor="middle" textLength="60.89">4230 N OAKLAND AVE,</text><text x="168.79" y="507.76" lengthAdjust="spacingAndGlyphs" style="font-size:5.69px;font-family:&quot;Liberation Sans&quot;" text-anchor="middle" textLength="62.44">UNIT 314, MILWAUKEE,</text><text x="168.79" y="515.96" lengthAdjust="spacingAndGlyphs" style="font-size:5.69px;font-family:&quot;Liberation Sans&quot;" text-anchor="middle" textLength="23.89">WI 53211</text><path d="M447.27 300.87h68.49-.09l.35-.02.34-.07.32-.12.3-.17.27-.22.23-.26.19-.3.14-.32.08-.34.03-.34h0v-14.99h0l-.03-.35-.08-.34-.14-.32-.19-.29-.23-.26-.27-.22-.3-.17-.32-.13-.34-.07-.26-.01h-68.49l.26.01-.35-.01-.34.04-.34.1-.31.15-.29.19-.25.24-.21.28-.16.31-.11.33-.06.34v15.17-.18.35l.06.34.11.33.16.31.21.28.25.24.29.2.31.15.34.09.34.05z" style="stroke-width:0.53;fill:#FFFFFF;fill-opacity:0.50"/><text x="481.51" y="289.07" lengthAdjust="spacingAndGlyphs" style="font-size:5.69px;font-family:&quot;Liberation Sans&quot;" text-anchor="middle" textLength="52.44">4454 NMORRIS RD,</text><text x="481.51" y="297.27" lengthAdjust="spacingAndGlyphs" style="font-size:5.69px;font-family:&quot;Liberation Sans&quot;" text-anchor="middle" textLength="65.61">SHOREWOOD, WI 53211</text></g><g clip-path="url(#cpMC4wMHw1NzYuMDB8MC4wMHw1NzYuMDA=)"><circle cx="194.2" cy="97.06" r="1.95" style="stroke-width:0.71;stroke:none;fill:#F8766D"/><path d="m270.6 94.02 2.63 4.56h-5.26z" style="stroke-width:0.71;stroke:none;fill:#00BA38"/><path d="M336.6 99.01h3.91V95.1h-3.91z" style="stroke-width:0.71;stroke:none;fill:#619CFF"/><text x="208.32" y="100.22" lengthAdjust="spacingAndGlyphs" style="font-size:8.80px;font-weight:0;font-family:&quot;Nimbus Sans Narrow&quot;" textLength="48.16">mprop address</text><text x="284.72" y="100.22" lengthAdjust="spacingAndGlyphs" style="font-size:8.80px;font-weight:0;font-family:&quot;Nimbus Sans Narrow&quot;" textLength="39.72">owner name</text><text x="352.68" y="100.22" lengthAdjust="spacingAndGlyphs" style="font-size:8.80px;font-weight:0;font-family:&quot;Nimbus Sans Narrow&quot;" textLength="40.5">wdfi address</text><text x="32.63" y="65.35" lengthAdjust="spacingAndGlyphs" style="font-size:12.00px;font-weight:0;font-family:&quot;Nimbus Sans Narrow&quot;" textLength="252.11">includes 38 parcels, 46 units, and 5 distinct owner names.</text><text x="32.63" y="42.81" lengthAdjust="spacingAndGlyphs" style="font-size:18.00px;font-weight:0;font-family:&quot;Nimbus Sans Narrow&quot;" textLength="213.22">PETER VELIKANOV etc Group</text></g></g></svg>