<svg xmlns="http://www.w3.org/2000/svg" width="768" height="768" viewBox="0 0 576 576"><g class="svglite"><defs><style><![CDATA[.svglite line,.svglite polyline,.svglite polygon,.svglite path,.svglite circle{fill:none;stroke:#000000;stroke-linecap:round;stroke-linejoin:round;stroke-miterlimit:10.00}.svglite text{white-space:pre}.svglite g.glyphgroup path{fill:inherit;stroke:none}]]></style></defs><rect width="100%" height="100%" style="stroke-linecap:round;stroke-linejoin:round;stroke-miterlimit:10.00;stroke:none;fill:#FFFFFF"/><defs><clipPath id="cpMC4wMHw1NzYuMDB8MC4wMHw1NzYuMDA="><path d="M0 0h576v576H0z"/></clipPath></defs><g clip-path="url(#cpMC4wMHw1NzYuMDB8MC4wMHw1NzYuMDA=)"><path d="M0 0h576v576H0z" style="stroke-width:1.07;stroke:none;fill:#FFFFFF"/></g><defs><clipPath id="cpMjkuODl8NTQ2LjExfDEyMi4xNHw1NDYuMTE="><path d="M29.89 122.14h516.22v423.97H29.89z"/></clipPath></defs><g clip-path="url(#cpMjkuODl8NTQ2LjExfDEyMi4xNHw1NDYuMTE=)"><path d="m360.66 454.47-.22-.68-.21-.67-.23-.68-.23-.68-.23-.67-.25-.67-.24-.67-.26-.68-.26-.67-.27-.67-.27-.66-.28-.67-.29-.67-.29-.66-.3-.67-.31-.66-.31-.66-.32-.66-.32-.66-.33-.66-.34-.66-.34-.66-.35-.66-.36-.65-.36-.66-.37-.65-.37-.65-.38-.65-.39-.65-.4-.65-.4-.65-.4-.65-.41-.65-.42-.64-.43-.65-.43-.64-.44-.65-.44-.64-.45-.64-.46-.64-.46-.64-.47-.63-.47-.64-.49-.64-.48-.63-.5-.64-.5-.63-.5-.63-.52-.63-.52-.63-.52-.63-.53-.63-.54-.63-.55-.62-.55-.63-.55-.62-.57-.63-.57-.62-.57-.62-.59-.62-.58-.62-.6-.62-.6-.62-.61-.61-.61-.62-.62-.61-.63-.62-.63-.61-.64-.61-.64-.61-.65-.61-.66-.61-.66-.61-.68-.61-.67-.6-.68-.61-.69-.6-.7-.6-.7-.6-.71-.61-.71-.6-.72-.59-.73-.6-.73-.6-.74-.6-.75-.59-.75-.59-.76-.6-.76-.59-.77-.59-.78-.59-.78-.59-.79-.59-.8-.59-.8-.58-.81-.59-.81-.58-.82-.59-.83-.58m51.41 62.39-1.03-.75-1.04-.75-1.05-.74-1.05-.75-1.06-.73-1.07-.74-1.08-.73-1.09-.72-1.09-.73-1.1-.72-1.11-.72-1.11-.71-1.12-.71-1.14-.7-1.13-.71-1.15-.69-1.15-.7-1.17-.69-1.17-.69-1.17-.68-1.19-.69-1.19-.67-1.2-.68-1.21-.67-1.21-.67-1.23-.66-1.23-.66-1.24-.66-1.24-.65-1.26-.65-1.26-.64-1.27-.65-1.27-.64-1.29-.63-1.29-.63-1.3-.63-1.31-.63-1.32-.62-1.32-.62-1.33-.61-1.34-.61-1.35-.61-1.35-.6-1.36-.6-1.37-.6-1.38-.59-1.38-.59-1.4-.59-1.4-.58-1.41-.58-1.41-.57-1.42-.58-1.44-.56-1.43-.57-1.45-.56-1.46-.56-1.46-.55-1.47-.55-1.47-.55-1.49-.54-1.49-.54-1.5-.54-1.51-.53-1.52-.53-1.52-.53-1.53-.52-1.54-.52-1.55-.52-1.55-.51-1.56-.51-1.57-.5-1.58-.5-1.59-.5-1.59-.5-1.6-.49-1.61-.48-1.61-.49-1.63-.48-1.63-.47-1.64-.48-1.65-.47-1.65-.46-1.66-.47-1.67-.45-1.68-.46-1.69-.45-1.69-.45-1.7-.45-1.71-.44-1.71-.43-1.73-.44-1.73-.43-1.74-.43-1.75-.42-1.75-.42-1.76-.42-1.77-.41-1.78-.41-1.79-.41m18.28-215.99-.12.61-.12.61-.12.61-.11.61-.12.61-.11.61-.11.61-.11.61-.1.61-.11.61-.1.61-.1.62-.09.61-.1.61-.09.61-.09.61-.09.61-.09.61-.08.61-.09.61-.08.61-.08.61-.08.62-.07.61-.07.61-.07.61-.07.61-.07.61-.06.61-.07.61-.06.61-.06.61-.05.62-.06.61-.05.61-.05.61-.05.61-.05.61-.04.61-.04.61-.04.62-.04.61-.04.61-.03.61-.04.61-.03.61-.02.61-.03.61-.02.62-.03.61-.02.61-.01.61-.02.61-.01.61-.02.61-.01.62v.61l-.01.61v.61l-.01.61v.61l.01.61v.62l.01.61.01.61.01.61.01.61.01.61.02.62.02.61.02.61.02.61.03.61.02.61.03.62.03.61.03.61.04.61.04.61.04.61.04.62.04.61.04.61.05.61.05.61.05.62.05.61.06.61.06.61.06.61.06.61.06.62.07.61.06.61.07.61.07.61.08.62.07.61.08.61m2.19-60.52-.89-.43-.9-.44-.89-.42-.9-.43-.9-.43-.9-.43-.9-.43-.9-.42-.9-.43-.91-.43-.9-.42-.91-.43-.91-.42-.91-.42-.91-.42-.91-.43-.92-.42-.91-.42-.92-.42-.92-.42-.92-.42-.92-.41-.92-.42-.92-.42-.93-.42-.92-.41-.93-.42-.93-.41-.93-.42-.93-.41-.93-.41-.94-.41-.93-.42-.94-.41-.94-.41-.94-.41-.94-.41-.94-.41-.94-.4-.95-.41-.94-.41-.95-.4-.95-.41-.95-.41-.95-.4-.96-.4-.95-.41-.95-.4-.96-.4-.96-.4-.96-.4-.96-.4-.96-.4-.97-.4-.96-.4-.97-.4-.96-.4-.97-.39-.97-.4-.97-.4-.98-.39-.97-.39-.98-.4-.97-.39-.98-.39-.98-.4-.98-.39-.98-.39-.99-.39-.98-.39-.99-.39-.99-.38-.98-.39-.99-.39-1-.39-.99-.38-.99-.39-1-.38-1-.39-.99-.38-1-.38-1-.38-1.01-.39-1-.38-1-.38-1.01-.38-1.01-.38-1.01-.38-1.01-.37-1.01-.38-1.01-.38-1.02-.37-1.01-.38-1.02-.37-1.02-.38-1.02-.37-1.02-.38-1.02-.37-1.02-.37m247.35 124.58-1.5-.32-1.51-.32-1.5-.31-1.51-.31-1.5-.32-1.51-.31-1.51-.3-1.51-.31-1.52-.31-1.51-.3-1.51-.3-1.52-.3-1.52-.3-1.52-.3-1.52-.3-1.52-.3-1.52-.29-1.52-.29-1.53-.29-1.52-.29-1.53-.29-1.53-.29-1.53-.28-1.53-.29-1.53-.28-1.53-.28-1.54-.28-1.53-.28-1.54-.27-1.54-.28-1.54-.27-1.54-.27-1.54-.27-1.54-.27-1.55-.27-1.54-.27-1.55-.26-1.55-.26-1.55-.27-1.55-.26-1.55-.25-1.55-.26-1.55-.26-1.56-.25-1.56-.25-1.55-.26-1.56-.25-1.56-.24-1.56-.25-1.57-.25-1.56-.24-1.56-.24-1.57-.24-1.57-.24-1.57-.24-1.57-.24-1.57-.23-1.57-.24-1.57-.23-1.58-.23-1.57-.23-1.58-.23-1.58-.22-1.58-.23-1.58-.22-1.58-.23-1.59-.22-1.58-.22-1.59-.21-1.58-.22-1.59-.21-1.59-.22-1.59-.21-1.59-.21-1.6-.21-1.59-.21-1.6-.2-1.59-.21-1.6-.2-1.6-.2-1.6-.2-1.6-.2-1.61-.2-1.6-.19-1.61-.2-1.6-.19-1.61-.19-1.61-.19-1.61-.19-1.61-.18-1.61-.19-1.62-.18-1.61-.19-1.62-.18-1.62-.18-1.62-.17-1.62-.18-1.62-.18-1.62-.17m100.42-60.4-1.11.58-1.11.57-1.11.59-1.11.58-1.1.58-1.11.58-1.1.58-1.1.59-1.1.58-1.09.58-1.1.59-1.09.59-1.09.58-1.08.59-1.09.59-1.08.59-1.08.59-1.08.59-1.08.59-1.08.59-1.07.59-1.07.59-1.07.59-1.07.6-1.06.59-1.07.6-1.06.59-1.06.6-1.05.6-1.06.59-1.05.6-1.05.6-1.05.6-1.05.6-1.04.6-1.04.6-1.05.6-1.03.61-1.04.6-1.04.6-1.03.61-1.03.6-1.03.61-1.02.6-1.03.61-1.02.61-1.02.61-1.02.61-1.02.61-1.01.61-1.01.61-1.01.61-1.01.61-1.01.61-1 .62-1 .61-1 .61-1 .62-1 .62-.99.61-.99.62-.99.62-.99.62-.99.61-.98.62-.98.62-.98.62-.98.63-.98.62-.97.62-.97.63-.97.62-.97.62-.97.63-.96.63-.96.62-.96.63-.96.63-.96.63-.95.63-.95.62-.95.64-.95.63-.94.63-.95.63-.94.63-.94.64-.93.63-.94.64-.93.63-.93.64-.93.63-.93.64-.92.64-.93.64-.92.64-.92.64-.92.64-.91.64m100.42-60.4-1.88-.47-1.89-.46-1.88-.46-1.89-.46-1.89-.45-1.89-.46-1.9-.46-1.89-.45-1.9-.45-1.89-.45-1.9-.45-1.9-.45-1.9-.45-1.9-.45-1.91-.44-1.9-.45-1.91-.44-1.91-.44-1.9-.44-1.92-.44-1.91-.44-1.91-.44-1.91-.43-1.92-.44-1.92-.43-1.91-.43-1.92-.43-1.93-.43-1.92-.43-1.92-.43-1.93-.42-1.92-.43-1.93-.42-1.93-.43-1.93-.42-1.93-.42-1.93-.41-1.94-.42-1.93-.42-1.94-.41-1.94-.42-1.94-.41-1.94-.41-1.94-.41-1.95-.41-1.94-.41-1.95-.4-1.94-.41-1.95-.4-1.95-.4-1.96-.41-1.95-.4-1.95-.4-1.96-.39-1.96-.4-1.95-.4-1.96-.39-1.97-.39-1.96-.39-1.96-.39-1.97-.39-1.96-.39-1.97-.39-1.97-.38-1.97-.39-1.97-.38-1.98-.38-1.97-.38-1.98-.38-1.97-.38-1.98-.38-1.98-.38-1.98-.37-1.98-.37-1.99-.38-1.98-.37-1.99-.37-1.99-.36-1.99-.37-1.99-.37-1.99-.36-1.99-.37-2-.36-1.99-.36-2-.36-2-.36-2-.36-2-.35-2-.36-2.01-.35-2-.35-2.01-.36-2.01-.35-2.01-.34-2.01-.35-2.01-.35-2.01-.34-2.02-.35-2.01-.34" style="stroke-width:1.07;stroke:#000000;stroke-opacity:0.10;stroke-linecap:butt"/><path d="m431.8 226.34-1.98.13-1.98.12-1.97.13-1.98.13-1.98.12-1.97.13-1.98.13-1.97.13-1.98.13-1.97.13-1.98.13-1.97.13-1.97.13-1.98.14-1.97.13-1.97.13-1.98.14-1.97.13-1.97.14-1.97.14-1.97.13-1.98.14-1.97.14-1.97.14-1.97.14-1.97.14-1.97.14-1.97.14-1.97.14-1.97.14-1.97.15-1.97.14-1.96.15-1.97.14-1.97.15-1.97.14-1.97.15-1.96.15-1.97.15-1.97.14-1.96.15-1.97.15-1.97.15-1.96.16-1.97.15-1.96.15-1.97.15-1.96.16-1.97.15-1.96.16-1.96.15-1.97.16-1.96.15-1.96.16-1.97.16-1.96.16-1.96.16-1.96.16-1.97.16-1.96.16-1.96.16-1.96.16-1.96.17-1.96.16-1.96.16-1.96.17-1.96.16-1.96.17-1.96.17-1.96.16-1.96.17-1.96.17-1.96.17-1.95.17-1.96.17-1.96.17-1.96.17-1.95.17-1.96.18-1.96.17-1.95.17-1.96.18-1.95.17-1.96.18-1.95.18-1.96.17-1.95.18-1.96.18-1.95.18-1.96.18-1.95.18-1.95.18-1.96.18-1.95.18-1.95.18-1.95.19-1.96.18-1.95.19-1.95.18m54.36-89.69-.77.88-.77.88-.76.88-.76.89-.75.88-.75.88-.74.89-.74.88-.73.89-.73.88-.73.89-.72.88-.71.89-.72.89-.7.89-.71.88-.69.89-.7.89-.69.89-.68.89-.68.89-.68.9-.67.89-.67.89-.66.89-.66.9-.65.89-.65.9-.64.89-.64.9-.64.89-.63.9-.62.9-.62.89-.62.9-.61.9-.61.9-.6.9-.6.9-.6.9-.59.9-.58.9-.58.91-.58.9-.57.9-.57.91-.56.9-.56.91-.55.9-.55.91-.55.9-.54.91-.53.91-.53.91-.53.9-.52.91-.52.91-.51.91-.51.91-.5.91-.5.92-.5.91-.49.91-.48.91-.48.92-.48.91-.47.92-.47.91-.46.92-.46.91-.46.92-.45.92-.44.92-.44.91-.44.92-.43.92-.43.92-.42.92-.42.92-.41.93-.41.92-.41.92-.4.92-.39.93-.39.92-.39.92-.38.93-.38.93-.37.92-.37.93-.36.93-.36.92-.36.93-.35.93-.34.93-.34.93-.34.93-.33.93-.33.93m54.36-89.69-1.46-.17-1.46-.18-1.46-.17-1.46-.17-1.46-.17-1.46-.17-1.46-.17-1.47-.16-1.46-.17-1.46-.16-1.47-.16-1.46-.16-1.47-.16-1.46-.16-1.47-.15-1.47-.16-1.47-.15-1.46-.15-1.47-.15-1.47-.15-1.47-.15-1.47-.14-1.47-.15-1.47-.14-1.47-.14-1.48-.14-1.47-.14-1.47-.14-1.48-.13-1.47-.14-1.48-.13-1.47-.13-1.48-.14-1.47-.12-1.48-.13-1.48-.13-1.48-.12-1.48-.13-1.47-.12-1.48-.12-1.48-.12-1.49-.12-1.48-.11-1.48-.12-1.48-.11-1.48-.12-1.49-.11-1.48-.11-1.49-.11-1.48-.1-1.49-.11-1.48-.1-1.49-.1-1.49-.11-1.48-.1-1.49-.09-1.49-.1-1.49-.1-1.49-.09-1.49-.09-1.49-.1-1.49-.09-1.5-.09-1.49-.08-1.49-.09-1.49-.08-1.5-.09-1.49-.08-1.5-.08-1.49-.08-1.5-.07-1.5-.08-1.49-.08-1.5-.07-1.5-.07-1.5-.07-1.5-.07-1.5-.07-1.5-.07-1.5-.06-1.5-.06-1.5-.07-1.51-.06-1.5-.06-1.5-.05-1.51-.06-1.5-.06-1.51-.05-1.5-.05-1.51-.05-1.51-.05-1.51-.05-1.5-.05-1.51-.04-1.51-.05-1.51-.04-1.51-.04-1.51-.04-1.51-.04m-91.33 49.06 1.78.57 1.77.58 1.78.57 1.78.57 1.78.57 1.78.57 1.79.56 1.78.57 1.79.57 1.79.56 1.79.56 1.8.56 1.79.56 1.8.56 1.8.56 1.8.56 1.8.55 1.8.56 1.81.55 1.8.55 1.81.55 1.81.55 1.81.55 1.82.55 1.81.55 1.82.54 1.82.55 1.82.54 1.82.54 1.83.54 1.82.54 1.83.54 1.83.54 1.83.53 1.83.54 1.84.53 1.83.53 1.84.53 1.84.53 1.84.53 1.84.53 1.85.53 1.85.52 1.84.53 1.85.52 1.85.52 1.86.52 1.85.52 1.86.52 1.86.52 1.86.51 1.86.52 1.86.51 1.87.52 1.87.51 1.87.51 1.87.51 1.87.51 1.87.5 1.88.51 1.87.5 1.88.51 1.88.5 1.89.5 1.88.5 1.89.5 1.89.49 1.88.5 1.9.5 1.89.49 1.89.49 1.9.49 1.9.5 1.9.48 1.9.49 1.9.49 1.91.49 1.9.48 1.91.48 1.91.49 1.91.48 1.92.48 1.91.48 1.92.47 1.92.48 1.92.48 1.92.47 1.92.47 1.93.48 1.93.47 1.93.47 1.93.46 1.93.47 1.93.47 1.94.46 1.94.47 1.94.46 1.94.46 1.94.46M53.35 190.47l1.01-.47 1-.47 1-.47 1-.46.99-.47 1-.47.99-.47.99-.48.99-.47.99-.47.99-.47.98-.48.99-.47.98-.48.98-.47.98-.48.97-.47.98-.48.97-.48.97-.48.97-.48.97-.47.97-.48.97-.49.96-.48.96-.48.96-.48.96-.48.96-.49.95-.48.96-.49.95-.48.95-.49.95-.48.94-.49.95-.49.94-.48.95-.49.94-.49.94-.49.93-.49.94-.49.93-.5.94-.49.93-.49.93-.49.92-.5.93-.49.92-.5.92-.49.93-.5.91-.49.92-.5.92-.5.91-.5.92-.5.91-.5.91-.5.9-.5.91-.5.9-.5.91-.5.9-.51.9-.5.89-.5.9-.51.89-.5.9-.51.89-.51.89-.5.89-.51.88-.51.89-.51.88-.51.88-.51.88-.51.88-.51.87-.51.88-.51.87-.52.87-.51.87-.51.87-.52.87-.51.86-.52.87-.52.86-.51.86-.52.86-.52.85-.52.86-.52.85-.52.85-.52.85-.52.85-.52.85-.52.84-.52.85-.53.84-.52m108.84 181.31.45.72.45.71.45.72.46.72.45.71.46.72.47.72.46.71.47.72.47.71.47.72.48.71.47.71.48.72.48.71.49.71.48.71.49.72.49.71.49.71.5.71.5.71.5.71.5.71.51.71.5.71.51.71.51.71.52.7.51.71.52.71.52.71.53.7.52.71.53.71.53.7.53.71.54.7.54.71.54.7.54.7.54.71.55.7.55.7.55.71.55.7.56.7.56.7.56.7.56.7.56.7.57.7.57.7.57.7.58.7.58.7.58.7.58.69.58.7.59.7.59.7.59.69.59.7.6.69.59.7.6.69.61.7.6.69.61.7.61.69.61.69.61.7.62.69.62.69.62.69.62.7.63.69.63.69.63.69.63.69.64.69.63.69.64.69.65.68.64.69.65.69.65.69.65.69.65.68.66.69.66.69.66.68.66.69.67.68.66.69.67.68.68.69.67.68.68.68m-55.73-69.36-.51.73-.51.74-.5.74-.5.74-.49.73-.49.74-.49.74-.49.74-.48.74-.47.74-.47.74-.47.74-.47.74-.46.74-.45.74-.46.74-.45.75-.44.74-.45.74-.43.74-.44.75-.43.74-.43.74-.42.75-.42.74-.42.75-.41.74-.41.75-.4.74-.4.75-.4.74-.39.75-.39.75-.39.74-.38.75-.38.75-.37.75-.37.74-.37.75-.36.75-.36.75-.36.75-.35.75-.35.75-.34.75-.35.75-.33.75-.34.75-.33.75-.32.76-.32.75-.32.75-.32.75-.31.76-.3.75-.31.75-.3.76-.29.75-.3.76-.28.75-.29.76-.28.75-.28.76-.27.75-.27.76-.27.76-.26.75-.26.76-.25.76-.25.76-.25.76-.24.75-.24.76-.24.76-.23.76-.23.76-.22.76-.22.76-.22.76-.21.76-.21.77-.21.76-.2.76-.2.76-.19.76-.2.77-.18.76-.19.76-.18.77-.17.76-.17.77-.17.76-.17.77-.16.76-.15.77-.16.76-.15.77-.14.77-.15.76" style="stroke-width:1.07;stroke:#000000;stroke-opacity:0.10;stroke-linecap:butt"/><path d="m291.7 151.99-.62.9-.62.9-.62.89-.62.9-.62.9-.62.9-.61.9-.61.9-.61.89-.61.9-.61.9-.61.9-.6.9-.6.9-.61.9-.6.9-.6.9-.59.9-.6.9-.59.9-.6.91-.59.9-.59.9-.58.9-.59.9-.59.9-.58.9-.58.91-.58.9-.58.9-.58.9-.58.91-.57.9-.57.9-.58.91-.57.9-.56.9-.57.91-.57.9-.56.91-.56.9-.57.91-.55.9-.56.9-.56.91-.55.91-.56.9-.55.91-.55.9-.55.91-.55.9-.54.91-.55.91-.54.9-.54.91-.54.91-.54.9-.54.91-.53.91-.54.91-.53.9-.53.91-.53.91-.53.91-.53.91-.52.91-.52.91-.53.9-.52.91-.52.91-.51.91-.52.91-.51.91-.52.91-.51.91-.51.91-.51.91-.5.91-.51.92-.5.91-.5.91-.51.91-.49.91-.5.91-.5.91-.49.92-.5.91-.49.91-.49.91-.49.92-.49.91-.48.91-.49.92-.48.91-.48.91-.48.92-.48.91-.47.92-.48.91m54.36-89.69-1.48-.13-1.47-.13-1.48-.13-1.48-.13-1.47-.12-1.48-.13-1.48-.13-1.48-.12-1.47-.13-1.48-.12-1.48-.13-1.48-.12-1.48-.13-1.48-.12-1.47-.13-1.48-.12-1.48-.12-1.48-.12-1.48-.12-1.48-.12-1.48-.12-1.48-.12-1.48-.12-1.48-.12-1.48-.12-1.48-.12-1.48-.12-1.49-.11-1.48-.12-1.48-.12-1.48-.11-1.48-.12-1.48-.11-1.49-.12-1.48-.11-1.48-.11-1.48-.12-1.49-.11-1.48-.11-1.48-.11-1.49-.11-1.48-.12-1.48-.11-1.49-.1-1.48-.11-1.49-.11-1.48-.11-1.49-.11-1.48-.11-1.49-.1-1.48-.11-1.49-.11-1.48-.1-1.49-.11-1.48-.1-1.49-.1-1.49-.11-1.48-.1-1.49-.1-1.49-.11-1.48-.1-1.49-.1-1.49-.1-1.49-.1-1.48-.1-1.49-.1-1.49-.1-1.49-.1-1.49-.1-1.49-.09-1.48-.1-1.49-.1-1.49-.09-1.49-.1-1.49-.09-1.49-.1-1.49-.09-1.49-.1-1.49-.09-1.49-.09-1.49-.1-1.49-.09-1.49-.09-1.49-.09-1.5-.09-1.49-.09-1.49-.09-1.49-.09-1.49-.09-1.5-.09-1.49-.09-1.49-.08-1.49-.09-1.5-.09-1.49-.08-1.49-.09-1.5-.08-1.49-.09-1.49-.08" style="stroke-width:1.07;stroke:#000000;stroke-opacity:0.10;stroke-linecap:butt"/><path d="m61.85 226.22 1.76.18 1.76.18 1.76.19 1.76.18 1.76.18 1.76.18 1.77.18 1.76.18 1.76.18 1.76.18 1.76.18 1.77.17 1.76.18 1.76.18 1.77.17 1.76.18 1.76.17 1.77.17 1.76.18 1.77.17 1.76.17 1.77.17 1.76.18 1.77.17 1.77.17 1.76.17 1.77.16 1.77.17 1.76.17 1.77.17 1.77.17 1.77.16 1.76.17 1.77.16 1.77.17 1.77.16 1.77.16 1.77.17 1.77.16 1.77.16 1.77.16 1.77.16 1.77.16 1.77.16 1.77.16 1.77.16 1.78.16 1.77.15 1.77.16 1.77.16 1.78.15 1.77.16 1.77.15 1.78.16 1.77.15 1.77.15 1.78.16 1.77.15 1.78.15 1.77.15 1.78.15 1.78.15 1.77.15 1.78.15 1.77.14 1.78.15 1.78.15 1.77.14 1.78.15 1.78.14 1.78.15 1.78.14 1.78.15 1.77.14 1.78.14 1.78.14 1.78.14 1.78.15 1.78.14 1.78.13 1.78.14 1.78.14 1.79.14 1.78.14 1.78.13 1.78.14 1.78.14 1.79.13 1.78.14 1.78.13 1.78.13 1.79.14 1.78.13 1.79.13 1.78.13 1.78.13 1.79.13 1.78.13 1.79.13M61.85 226.22l.91-.85.9-.84.91-.84.9-.85.9-.84.9-.85.9-.84.89-.85.9-.85.89-.84.89-.85.89-.84.89-.85.89-.85.89-.85.88-.84.89-.85.88-.85.88-.85.88-.85.88-.85.87-.85.88-.85.87-.85.87-.85.87-.85.87-.85.87-.85.87-.85.86-.85.87-.85.86-.85.86-.86.86-.85.86-.85.85-.85.86-.86.85-.85.86-.85.85-.86.85-.85.84-.86.85-.85.85-.86.84-.85.84-.86.84-.85.84-.86.84-.86.84-.85.83-.86.84-.86.83-.86.83-.85.83-.86.83-.86.82-.86.83-.86.82-.86.82-.85.83-.86.82-.86.81-.86.82-.86.82-.87.81-.86.81-.86.81-.86.81-.86.81-.86.81-.86.8-.87.81-.86.8-.86.8-.87.8-.86.8-.86.79-.87.8-.86.79-.87.8-.86.79-.87.79-.86.79-.87.78-.86.79-.87.78-.86.78-.87.78-.87.78-.87.78-.86.78-.87.77-.87.78-.87.77-.86.77-.87.77-.87.77-.87.77-.87" style="stroke-width:1.07;stroke:#000000;stroke-opacity:0.10;stroke-linecap:butt"/><path d="m431.8 226.34-1.96.19-1.95.18-1.95.19-1.95.18-1.96.18-1.95.18-1.95.19-1.95.18-1.96.18-1.95.18-1.96.17-1.95.18-1.96.18-1.95.18-1.96.17-1.95.18-1.96.18-1.95.17-1.96.17-1.96.18-1.95.17-1.96.17-1.96.17-1.95.17-1.96.17-1.96.17-1.96.17-1.96.17-1.95.17-1.96.17-1.96.16-1.96.17-1.96.17-1.96.16-1.96.16-1.96.17-1.96.16-1.97.16-1.96.16-1.96.17-1.96.16-1.96.16-1.96.16-1.97.15-1.96.16-1.96.16-1.97.16-1.96.15-1.96.16-1.97.15-1.96.16-1.97.15-1.96.15-1.97.16-1.96.15-1.97.15-1.97.15-1.96.15-1.97.15-1.97.15-1.96.15-1.97.14-1.97.15-1.96.15-1.97.14-1.97.15-1.97.14-1.97.15-1.97.14-1.97.14-1.97.14-1.97.15-1.97.14-1.97.14-1.97.14-1.97.13-1.97.14-1.97.14-1.97.14-1.97.13-1.98.14-1.97.14-1.97.13-1.97.13-1.98.14-1.97.13-1.98.13-1.97.13-1.97.13-1.98.14-1.97.12-1.98.13-1.97.13-1.98.13-1.97.13-1.98.12-1.98.13-1.97.13-1.98.12m2.19-60.52-.02.61-.02.61-.03.61-.02.61-.02.61-.02.61-.02.62-.03.61-.02.61-.02.61-.02.61-.02.61-.03.61-.02.62-.02.61-.02.61-.03.61-.02.61-.02.61-.02.61-.02.61-.03.62-.02.61-.02.61-.02.61-.02.61-.03.61-.02.61-.02.62-.02.61-.03.61-.02.61-.02.61-.02.61-.02.61-.03.61-.02.62-.02.61-.02.61-.02.61-.03.61-.02.61-.02.61-.02.62-.03.61-.02.61-.02.61-.02.61-.02.61-.03.61-.02.62-.02.61-.02.61-.02.61-.03.61-.02.61-.02.61-.02.61-.02.62-.03.61-.02.61-.02.61-.02.61-.03.61-.02.61-.02.62-.02.61-.02.61-.03.61-.02.61-.02.61-.02.61-.02.62-.03.61-.02.61-.02.61-.02.61-.03.61-.02.61-.02.61-.02.62-.02.61-.03.61-.02.61-.02.61-.02.61-.02.61-.03.62-.02.61-.02.61-.02.61-.03.61-.02.61-.02.61-.02.62-.02.61-.03.61-.02.61-.02.61m2.19-60.52-.96-.41-.96-.4-.95-.4-.96-.4-.96-.4-.96-.4-.96-.4-.95-.41-.96-.4-.96-.4-.96-.4-.96-.4-.95-.4-.96-.4-.96-.41-.96-.4-.96-.4-.96-.4-.95-.4-.96-.4-.96-.41-.96-.4-.96-.4-.95-.4-.96-.4-.96-.4-.96-.4-.96-.41-.95-.4-.96-.4-.96-.4-.96-.4-.96-.4-.96-.4-.95-.41-.96-.4-.96-.4-.96-.4-.96-.4-.95-.4-.96-.4-.96-.41-.96-.4-.96-.4-.95-.4-.96-.4-.96-.4-.96-.41-.96-.4-.96-.4-.95-.4-.96-.4-.96-.4-.96-.4-.96-.41-.95-.4-.96-.4-.96-.4-.96-.4-.96-.4-.95-.4-.96-.41-.96-.4-.96-.4-.96-.4-.95-.4-.96-.4-.96-.41-.96-.4-.96-.4-.96-.4-.95-.4-.96-.4-.96-.4-.96-.41-.96-.4-.95-.4-.96-.4-.96-.4-.96-.4-.96-.4-.95-.41-.96-.4-.96-.4-.96-.4-.96-.4-.96-.4-.95-.4-.96-.41-.96-.4-.96-.4-.96-.4-.95-.4-.96-.4-.96-.41-.96-.4-.96-.4-.95-.4-.96-.4" style="stroke-width:1.07;stroke:#000000;stroke-opacity:0.10;stroke-linecap:butt"/><path d="m134.62 201.46.87.49.88.48.88.49.88.48.88.48.89.47.9.48.89.47.9.48.9.47.91.47.91.47.91.46.92.47.92.46.92.46.93.46.93.46.93.46.93.45.94.45.95.46.94.45.95.45.96.44.95.45.96.44.97.44.96.44.97.44.98.44.97.43.98.44.99.43.98.43.99.43 1 .43.99.42 1 .43 1.01.42 1.01.42 1.01.42 1.01.42 1.02.41 1.02.42 1.02.41 1.03.41 1.03.41 1.03.41 1.04.41 1.04.4 1.05.4 1.05.4 1.05.4 1.05.4 1.06.4 1.06.39 1.06.4 1.07.39 1.07.39 1.08.39 1.08.38 1.08.39 1.08.38 1.09.38 1.09.38 1.1.38 1.1.38 1.1.37 1.1.38 1.11.37 1.11.37 1.12.37 1.12.37 1.12.36 1.12.37 1.13.36 1.14.36 1.13.36 1.14.36 1.14.35 1.15.36 1.15.35 1.15.35 1.15.35 1.16.35 1.17.34 1.16.35 1.17.34 1.17.34 1.18.34 1.18.34 1.18.34 1.19.33 1.19.33 1.19.34 1.2.33 1.2.32 1.2.33m-102.72-40.22.35-.6.34-.59.34-.6.34-.6.32-.6.33-.6.32-.6.31-.6.31-.6.3-.6.3-.6.29-.6.29-.6.28-.6.28-.61.27-.6.27-.6.27-.6.25-.6.26-.6.24-.6.25-.61.23-.6.24-.6.22-.6.23-.61.22-.6.21-.6.21-.61.2-.6.2-.6.19-.61.18-.6.19-.61.17-.6.18-.6.16-.61.17-.6.15-.61.15-.6.15-.61.14-.6.14-.61.13-.6.13-.61.12-.61.12-.6.11-.61.11-.61.1-.6.09-.61.1-.61.08-.6.08-.61.08-.61.07-.61.07-.6.06-.61.05-.61.06-.61.04-.61.04-.6.04-.61.03-.61.03-.61.02-.61.01-.61.01-.61.01-.61v-1.22l-.01-.61-.02-.61-.02-.61-.02-.61-.03-.61-.04-.61-.04-.61-.04-.61-.05-.61-.05-.62-.06-.61-.07-.61-.07-.61-.07-.61-.08-.62-.09-.61-.09-.61-.09-.61-.1-.62-.11-.61-.11-.61-.12-.62-.12-.61-.12-.61-.13-.62-.14-.61-.14-.62-.14-.61" style="stroke-width:1.07;stroke:#000000;stroke-opacity:0.10;stroke-linecap:butt"/><path d="m291.7 151.99-.48.92-.47.91-.48.91-.48.92-.48.91-.48.91-.49.92-.49.91-.48.91-.49.92-.49.91-.49.91-.5.91-.49.92-.5.91-.5.91-.5.91-.5.91-.5.91-.5.92-.51.91-.5.91-.51.91-.51.91-.51.91-.52.91-.51.91-.52.91-.52.91-.51.91-.52.91-.53.91-.52.9-.53.91-.52.91-.53.91-.53.91-.53.91-.53.9-.54.91-.53.91-.54.91-.54.9-.54.91-.54.91-.54.9-.55.91-.54.91-.55.9-.55.91-.55.91-.55.9-.56.91-.55.9-.56.91-.56.9-.56.91-.56.9-.56.91-.56.9-.57.9-.57.91-.56.9-.58.9-.57.91-.57.9-.57.9-.58.91-.58.9-.58.9-.58.9-.58.91-.58.9-.59.9-.59.9-.58.9-.59.91-.6.9-.59.9-.59.9-.6.9-.6.9-.59.9-.6.9-.61.9-.6.9-.6.9-.61.9-.61.9-.61.9-.61.9-.61.89-.62.9-.61.9-.62.9-.62.9-.62.9-.62.89-.62.9m54.36-89.69-1.49-.08-1.5-.09-1.49-.08-1.49-.09-1.5-.08-1.49-.09-1.49-.09-1.5-.08-1.49-.09-1.49-.09-1.49-.09-1.49-.09-1.5-.09-1.49-.09-1.49-.09-1.49-.09-1.49-.09-1.49-.09-1.49-.1-1.49-.09-1.49-.09-1.49-.1-1.49-.09-1.49-.1-1.49-.09-1.49-.1-1.49-.09-1.49-.1-1.49-.1-1.49-.09-1.49-.1-1.48-.1-1.49-.1-1.49-.1-1.49-.1-1.48-.1-1.49-.1-1.49-.1-1.49-.1-1.48-.11-1.49-.1-1.49-.1-1.48-.11-1.49-.1-1.48-.1-1.49-.11-1.49-.1-1.48-.11-1.49-.11-1.48-.1-1.49-.11-1.48-.11-1.49-.11-1.48-.11-1.48-.11-1.49-.11-1.48-.11-1.49-.11-1.48-.11-1.48-.11-1.49-.11-1.48-.11-1.48-.12-1.48-.11-1.49-.11-1.48-.12-1.48-.11-1.48-.12-1.48-.11-1.49-.12-1.48-.12-1.48-.11-1.48-.12-1.48-.12-1.48-.12-1.48-.12-1.48-.12-1.48-.12-1.48-.12-1.48-.12-1.48-.12-1.48-.12-1.48-.12-1.48-.12-1.48-.13-1.48-.12-1.47-.13-1.48-.12-1.48-.13-1.48-.12-1.48-.13-1.47-.12-1.48-.13-1.48-.13-1.48-.13-1.47-.12-1.48-.13-1.48-.13-1.47-.13m108.84 181.31.56.7.56.7.57.7.56.7.56.7.56.7.57.7.56.7.56.7.57.7.56.7.56.71.56.7.57.7.56.7.56.7.57.7.56.7.56.7.57.7.56.7.56.7.56.7.57.7.56.7.56.7.57.7.56.71.56.7.56.7.57.7.56.7.56.7.57.7.56.7.56.7.57.7.56.7.56.7.56.7.57.7.56.7.56.71.57.7.56.7.56.7.56.7.57.7.56.7.56.7.57.7.56.7.56.7.57.7.56.7.56.7.56.7.57.71.56.7.56.7.57.7.56.7.56.7.56.7.57.7.56.7.56.7.57.7.56.7.56.7.57.7.56.7.56.71.56.7.57.7.56.7.56.7.57.7.56.7.56.7.56.7.57.7.56.7.56.7.57.7.56.7.56.7.57.71.56.7.56.7.56.7.57.7.56.7.56.7.57.7.56.7.56.7.56.7.57.7m-55.73-69.36-.39.74-.39.75-.38.75-.38.75-.39.74-.38.75-.38.75-.38.75-.37.74-.38.75-.37.75-.38.75-.37.74-.37.75-.37.75-.37.75-.36.75-.37.75-.37.75-.36.74-.36.75-.36.75-.36.75-.36.75-.36.75-.35.75-.36.75-.35.75-.35.75-.35.75-.35.75-.35.75-.35.75-.34.75-.35.75-.34.75-.34.75-.35.75-.34.75-.33.75-.34.75-.34.75-.33.75-.33.76-.34.75-.33.75-.33.75-.33.75-.32.75-.33.76-.32.75-.33.75-.32.75-.32.75-.32.76-.32.75-.32.75-.31.75-.32.76-.31.75-.31.75-.31.76-.31.75-.31.75-.31.76-.3.75-.31.75-.3.76-.3.75-.3.75-.3.76-.3.75-.3.76-.3.75-.29.76-.29.75-.3.76-.29.75-.29.75-.28.76-.29.75-.29.76-.28.76-.29.75-.28.76-.28.75-.28.76-.28.75-.27.76-.28.75-.27.76-.28.76-.27.75-.27.76-.27.76-.27.75-.27.76-.26.76-.27.75" style="stroke-width:1.07;stroke:#000000;stroke-opacity:0.10;stroke-linecap:butt"/><path d="m134.62 201.46.94.46.94.45.94.45.95.45.94.45.95.45.95.45.95.45.96.44.95.45.96.44.96.45.97.44.96.44.97.44.97.44.97.44.97.44.97.43.98.44.98.43.98.44.98.43.99.43.99.43.98.43 1 .43.99.43.99.42 1 .43 1 .42 1 .43 1 .42 1.01.42 1.01.42 1.01.42 1.01.42 1.01.42 1.02.42 1.01.41 1.02.42 1.02.41 1.03.42 1.02.41 1.03.41 1.03.41 1.03.41 1.03.41 1.04.4 1.04.41 1.04.4 1.04.41 1.04.4 1.05.4 1.05.41 1.04.4 1.06.4 1.05.39 1.06.4 1.05.4 1.06.39 1.07.4 1.06.39 1.07.39 1.06.4 1.07.39 1.08.39 1.07.38 1.08.39 1.07.39 1.08.38 1.09.39 1.08.38 1.09.39 1.08.38 1.09.38 1.1.38 1.09.38 1.1.38 1.1.37 1.1.38 1.1.37 1.1.38 1.11.37 1.11.37 1.11.37 1.11.37 1.12.37 1.11.37 1.12.37 1.12.37 1.12.36 1.13.37 1.13.36 1.12.36 1.14.36 1.13.36 1.13.36 1.14.36m-102.72-40.22.25-.6.25-.6.24-.6.24-.6.24-.61.23-.6.24-.6.22-.6.23-.61.22-.6.22-.6.22-.61.21-.6.21-.6.21-.61.21-.6.2-.6.19-.61.2-.6.19-.6.19-.61.19-.6.18-.61.18-.6.18-.6.17-.61.17-.6.17-.61.17-.6.16-.61.16-.6.15-.61.16-.6.15-.61.14-.6.15-.61.14-.6.14-.61.13-.6.13-.61.13-.6.13-.61.12-.61.12-.6.12-.61.11-.6.11-.61.11-.61.1-.6.11-.61.09-.61.1-.6.09-.61.09-.61.09-.6.08-.61.08-.61.08-.61.07-.6.08-.61.06-.61.07-.61.06-.6.06-.61.06-.61.05-.61.05-.61.05-.61.04-.6.04-.61.04-.61.04-.61.03-.61.03-.61.02-.61.03-.61.02-.6.01-.61.02-.61.01-.61v-.61l.01-.61v-1.83l-.01-.61-.01-.61-.02-.61-.01-.61-.02-.61-.02-.61-.03-.61-.03-.61-.03-.62-.03-.61-.04-.61-.04-.61-.05-.61-.04-.61m147.02 10.58-.33.93-.33.93-.34.93-.34.93-.34.93-.35.93-.36.93-.36.93-.36.92-.37.93-.37.93-.38.92-.38.93-.39.92-.39.93-.4.92-.4.92-.4.92-.41.93-.41.92-.42.92-.42.92-.43.92-.43.92-.44.92-.44.92-.44.91-.45.92-.46.92-.46.91-.46.92-.47.91-.47.92-.48.91-.48.92-.48.91-.49.91-.5.91-.5.92-.5.91-.51.91-.51.91-.52.91-.52.91-.53.91-.53.9-.54.91-.54.91-.54.9-.55.91-.55.91-.56.9-.56.91-.57.9-.57.9-.58.91-.58.9-.58.9-.59.9-.6.9-.6.9-.6.9-.61.9-.61.9-.62.9-.62.9-.63.89-.63.9-.63.9-.64.89-.64.9-.65.89-.66.9-.65.89-.67.89-.66.89-.67.9-.68.89-.68.89-.68.89-.69.89-.7.89-.69.89-.71.89-.7.88-.72.89-.71.89-.72.88-.73.89-.73.89-.73.88-.74.88-.74.89-.75.88-.76.88-.75.89-.76.88-.77.88-.77.88" style="stroke-width:1.07;stroke:#000000;stroke-opacity:0.10;stroke-linecap:butt"/><path d="m291.7 151.99-1.51-.04-1.51-.04-1.51-.04-1.51-.04-1.51-.05-1.51-.04-1.51-.05-1.51-.05-1.5-.05-1.51-.05-1.5-.05-1.51-.05-1.5-.06-1.51-.06-1.5-.05-1.51-.06-1.5-.06-1.5-.07-1.5-.06-1.5-.06-1.5-.07-1.5-.07-1.5-.07-1.5-.07-1.5-.07-1.5-.07-1.5-.08-1.49-.08-1.5-.07-1.49-.08-1.5-.08-1.49-.08-1.5-.09-1.49-.08-1.5-.09-1.49-.09-1.49-.08-1.49-.09-1.49-.1-1.49-.09-1.49-.09-1.49-.1-1.49-.1-1.49-.09-1.49-.1-1.48-.11-1.49-.1-1.49-.1-1.48-.11-1.49-.1-1.48-.11-1.49-.11-1.48-.11-1.48-.12-1.48-.11-1.49-.12-1.48-.11-1.48-.12-1.48-.12-1.48-.12-1.48-.12-1.48-.13-1.47-.12-1.48-.13-1.48-.13-1.48-.12-1.47-.14-1.48-.13-1.47-.13-1.48-.14-1.47-.13-1.47-.14-1.48-.14-1.47-.14-1.47-.14-1.47-.14-1.47-.15-1.47-.14-1.47-.15-1.47-.15-1.47-.15-1.47-.15-1.47-.15-1.46-.16-1.47-.15-1.46-.16-1.47-.16-1.46-.16-1.47-.16-1.46-.16-1.47-.17-1.46-.16-1.46-.17-1.46-.17-1.46-.17-1.46-.17-1.46-.17-1.46-.18-1.46-.17m247.35 124.58-1.54-.27-1.55-.27-1.54-.27-1.54-.27-1.55-.27-1.54-.26-1.55-.27-1.54-.26-1.55-.27-1.54-.27-1.55-.26-1.55-.26-1.54-.27-1.55-.26-1.55-.26-1.55-.27-1.55-.26-1.55-.26-1.55-.26-1.55-.26-1.55-.26-1.55-.26-1.55-.26-1.55-.26-1.56-.25-1.55-.26-1.55-.26-1.55-.25-1.56-.26-1.55-.25-1.56-.26-1.55-.25-1.56-.26-1.55-.25-1.56-.25-1.56-.26-1.56-.25-1.55-.25-1.56-.25-1.56-.25-1.56-.25-1.56-.25-1.56-.25-1.56-.25-1.56-.25-1.56-.24-1.56-.25-1.56-.25-1.56-.24-1.57-.25-1.56-.24-1.56-.25-1.57-.24-1.56-.25-1.56-.24-1.57-.24-1.57-.24-1.56-.24-1.57-.25-1.56-.24-1.57-.24-1.57-.24-1.57-.24-1.56-.23-1.57-.24-1.57-.24-1.57-.24-1.57-.23-1.57-.24-1.57-.24-1.57-.23-1.58-.24-1.57-.23-1.57-.23-1.57-.24-1.58-.23-1.57-.23-1.57-.23-1.58-.24-1.57-.23-1.58-.23-1.57-.23-1.58-.23-1.57-.22-1.58-.23-1.58-.23-1.58-.23-1.57-.23-1.58-.22-1.58-.23-1.58-.22-1.58-.23-1.58-.22-1.58-.23-1.58-.22-1.58-.22-1.59-.23-1.58-.22-1.58-.22" style="stroke-width:1.07;stroke:#000000;stroke-opacity:0.10;stroke-linecap:butt"/><path d="m239.53 181.16.08.61.07.61.08.61.07.61.07.62.07.61.06.61.06.61.06.61.06.62.06.61.06.61.05.61.05.61.05.62.05.61.04.61.04.61.05.61.03.61.04.62.04.61.03.61.03.61.03.61.02.61.03.62.02.61.02.61.02.61.02.61.01.61.01.62.01.61.01.61.01.61v.61l.01.61v.62l-.01.61v.61l-.01.61v.61l-.01.61-.02.61-.01.62-.02.61-.01.61-.02.61-.03.61-.02.61-.03.61-.02.61-.03.62-.04.61-.03.61-.04.61-.04.61-.04.61-.04.61-.04.61-.05.62-.05.61-.05.61-.05.61-.06.61-.05.61-.06.61-.06.61-.06.62-.07.61-.07.61-.07.61-.07.61-.07.61-.07.61-.08.61-.08.61-.08.61-.08.62-.09.61-.09.61-.09.61-.09.61-.09.61-.1.61-.09.61-.1.61-.1.61-.11.61-.1.61-.11.62-.11.61-.11.61-.12.61-.11.61-.12.61-.12.61-.12.61m2.19-60.52-1.02-.38-1.03-.37-1.02-.37-1.02-.38-1.01-.37-1.02-.38-1.02-.37-1.01-.38-1.01-.37-1.01-.38-1.01-.38-1.01-.38-1.01-.38-1.01-.38-1-.38-1.01-.38-1-.38-1-.38-1-.39-1-.38-.99-.38-1-.39-.99-.38-1-.39-.99-.39-.99-.38-.99-.39-.98-.39-.99-.39-.98-.39-.99-.39-.98-.39-.98-.39-.98-.39-.98-.39-.98-.4-.97-.39-.98-.4-.97-.39-.97-.4-.97-.39-.97-.4-.97-.4-.96-.39-.97-.4-.96-.4-.96-.4-.96-.4-.96-.4-.96-.4-.96-.41-.95-.4-.96-.4-.95-.41-.95-.4-.95-.4-.95-.41-.95-.41-.94-.4-.95-.41-.94-.41-.94-.41-.94-.41-.94-.41-.94-.41-.94-.41-.93-.41-.94-.41-.93-.42-.93-.41-.93-.41-.93-.42-.93-.41-.92-.42-.93-.42-.92-.41-.92-.42-.93-.42-.92-.42-.91-.42-.92-.42-.92-.42-.91-.42-.91-.42-.91-.42-.91-.43-.91-.42-.91-.42-.91-.43-.9-.42-.9-.43-.91-.43-.9-.42-.9-.43-.89-.43-.9-.43-.9-.43-.89-.43-.89-.43m215.98 313.06-.32-.66-.32-.66-.32-.66-.32-.66-.34-.66-.33-.66-.34-.66-.34-.66-.35-.65-.35-.66-.36-.66-.36-.65-.36-.66-.37-.65-.37-.65-.38-.65-.38-.66-.39-.65-.38-.65-.4-.65-.4-.65-.4-.64-.4-.65-.41-.65-.42-.65-.42-.64-.42-.65-.43-.64-.43-.64-.43-.65-.44-.64-.45-.64-.45-.64-.45-.64-.45-.64-.47-.64-.46-.64-.47-.64-.47-.64-.48-.63-.48-.64-.49-.64-.49-.63-.49-.63-.5-.64-.5-.63-.51-.63-.51-.63-.51-.64-.52-.63-.53-.62-.52-.63-.54-.63-.53-.63-.54-.63-.55-.62-.55-.63-.55-.62-.56-.63-.56-.62-.56-.62-.57-.63-.58-.62-.57-.62-.59-.62-.58-.62-.59-.62-.6-.62-.6-.62-.6-.61-.61-.62-.61-.61-.61-.62-.62-.61-.63-.62-.63-.61-.63-.61-.63-.62-.65-.61-.64-.61-.65-.61-.65-.61-.66-.61-.66-.6-.67-.61-.67-.61-.67-.6-.68-.61-.68-.61-.69-.6-.69-.6-.7-.61-.7-.6-.7-.6-.71-.6-.71-.6-.72-.6-.72-.6-.72-.6m51.41 62.39-1.13-.71-1.13-.7-1.14-.71-1.14-.7-1.15-.7-1.15-.69-1.16-.69-1.17-.69-1.17-.69-1.17-.69-1.19-.68-1.19-.68-1.19-.67-1.2-.68-1.21-.67-1.21-.67-1.22-.67-1.22-.66-1.23-.66-1.23-.66-1.24-.65-1.25-.66-1.25-.65-1.26-.65-1.26-.64-1.27-.64-1.28-.64-1.28-.64-1.29-.63-1.29-.64-1.3-.63-1.3-.62-1.31-.63-1.32-.62-1.32-.62-1.33-.61-1.33-.62-1.34-.61-1.34-.6-1.35-.61-1.36-.6-1.36-.6-1.37-.6-1.37-.59-1.38-.6-1.39-.59-1.39-.58-1.39-.59-1.41-.58-1.4-.58-1.42-.57-1.42-.58-1.42-.57-1.43-.57-1.44-.56-1.44-.57-1.45-.56-1.46-.55-1.46-.56-1.46-.55-1.47-.55-1.48-.55-1.48-.54-1.49-.55-1.5-.54-1.5-.53-1.51-.54-1.51-.53-1.51-.53-1.53-.52-1.53-.53-1.53-.52-1.54-.51-1.55-.52-1.55-.51-1.56-.51-1.57-.51-1.57-.51-1.57-.5-1.58-.5-1.59-.49-1.59-.5-1.6-.49-1.61-.49-1.61-.49-1.61-.48-1.62-.48-1.63-.48-1.63-.47-1.64-.48-1.65-.47-1.65-.47-1.66-.46-1.66-.46-1.67-.46-1.67-.46-1.68-.46-1.68-.45-1.7-.45" style="stroke-width:1.07;stroke:#000000;stroke-opacity:0.10;stroke-linecap:butt"/><path d="m360.66 454.47-.42-.65-.42-.64-.42-.65-.42-.64-.43-.65-.43-.64-.42-.65-.44-.64-.43-.64-.43-.65-.44-.64-.44-.64-.44-.64-.45-.65-.44-.64-.45-.64-.45-.64-.45-.64-.46-.64-.45-.64-.46-.64-.46-.64-.47-.64-.46-.64-.47-.63-.47-.64-.47-.64-.47-.64-.48-.63-.47-.64-.48-.64-.48-.63-.49-.64-.48-.63-.49-.64-.49-.63-.49-.64-.5-.63-.49-.64-.5-.63-.5-.63-.51-.64-.5-.63-.51-.63-.51-.63-.51-.63-.51-.64-.51-.63-.52-.63-.52-.63-.52-.63-.53-.63-.52-.63-.53-.62-.53-.63-.53-.63-.53-.63-.54-.63-.54-.62-.54-.63-.54-.63-.55-.62-.54-.63-.55-.63-.55-.62-.55-.63-.56-.62-.56-.62-.56-.63-.56-.62-.56-.63-.56-.62-.57-.62-.57-.62-.57-.63-.58-.62-.57-.62-.58-.62-.58-.62-.58-.62-.59-.62-.58-.62-.59-.62-.59-.62-.6-.62-.59-.62-.6-.62-.6-.61-.6-.62-.6-.62-.61-.61-.6-.62-.61-.62-.61-.61-.62-.62-.61-.61-.62-.62-.62-.61-.62-.62m51.41 62.39-1.22-.66-1.23-.67-1.22-.66-1.23-.66-1.24-.66-1.24-.66-1.24-.65-1.25-.65-1.25-.65-1.25-.65-1.26-.65-1.26-.65-1.27-.64-1.27-.64-1.27-.64-1.28-.64-1.28-.64-1.28-.64-1.29-.63-1.29-.63-1.3-.63-1.3-.63-1.3-.63-1.31-.62-1.31-.62-1.32-.63-1.32-.62-1.32-.61-1.33-.62-1.33-.61-1.34-.62-1.34-.61-1.34-.61-1.34-.6-1.35-.61-1.36-.6-1.36-.6-1.36-.6-1.36-.6-1.37-.6-1.38-.59-1.38-.6-1.38-.59-1.38-.59-1.39-.59-1.39-.58-1.4-.59-1.4-.58-1.4-.58-1.41-.58-1.41-.58-1.42-.57-1.42-.57-1.42-.58-1.43-.57-1.43-.56-1.44-.57-1.44-.57-1.44-.56-1.44-.56-1.46-.56-1.45-.56-1.46-.55-1.46-.56-1.47-.55-1.47-.55-1.47-.55-1.48-.55-1.48-.54-1.48-.55-1.49-.54-1.49-.54-1.5-.54-1.5-.53-1.51-.54-1.5-.53-1.52-.53-1.51-.53-1.52-.53-1.53-.53-1.52-.52-1.53-.52-1.54-.52-1.54-.52-1.54-.52-1.55-.52-1.55-.51-1.55-.51-1.56-.51-1.56-.51-1.57-.51-1.57-.5-1.57-.51-1.58-.5-1.58-.5-1.59-.49-1.59-.5-1.59-.49-1.6-.5M84.93 282.73l1.58-.39 1.57-.39 1.57-.39 1.57-.39 1.57-.4 1.57-.39 1.57-.39 1.57-.4 1.57-.39 1.57-.4 1.56-.39 1.57-.4 1.56-.4 1.57-.39 1.56-.4 1.56-.4 1.57-.4 1.56-.4 1.56-.4 1.56-.4 1.56-.4 1.56-.4 1.55-.4 1.56-.4 1.56-.41 1.55-.4 1.56-.4 1.55-.41 1.56-.4 1.55-.41 1.55-.4 1.56-.41 1.55-.41 1.55-.4 1.55-.41 1.55-.41 1.55-.41 1.54-.4 1.55-.41 1.55-.41 1.54-.41 1.55-.42 1.54-.41 1.54-.41 1.55-.41 1.54-.41 1.54-.42 1.54-.41 1.54-.41 1.54-.42 1.54-.41 1.54-.42 1.54-.42 1.53-.41 1.54-.42 1.53-.42 1.54-.42 1.53-.41 1.54-.42 1.53-.42 1.53-.42 1.53-.42 1.53-.42 1.53-.43 1.53-.42 1.53-.42 1.53-.42 1.52-.43 1.53-.42 1.53-.42 1.52-.43 1.53-.42 1.52-.43 1.52-.43 1.52-.42 1.53-.43 1.52-.43 1.52-.43 1.52-.42 1.51-.43 1.52-.43 1.52-.43 1.52-.43 1.51-.44 1.52-.43 1.51-.43 1.52-.43 1.51-.43 1.51-.44 1.51-.43 1.52-.44 1.51-.43 1.51-.44 1.5-.43 1.51-.44 1.51-.44 1.51-.43 1.5-.44 1.51-.44m123.32 212.79-.41.73-.41.73-.4.73-.41.73-.4.74-.41.73-.4.73-.41.73-.41.73-.4.73-.41.73-.4.73-.41.73-.4.73-.41.74-.41.73-.4.73-.41.73-.4.73-.41.73-.4.73-.41.73-.41.73-.4.73-.41.74-.4.73-.41.73-.41.73-.4.73-.41.73-.4.73-.41.73-.4.73-.41.73-.41.74-.4.73-.41.73-.4.73-.41.73-.4.73-.41.73-.41.73-.4.73-.41.74-.4.73-.41.73-.4.73-.41.73-.41.73-.4.73-.41.73-.4.73-.41.73-.4.74-.41.73-.41.73-.4.73-.41.73-.4.73-.41.73-.4.73-.41.73-.41.73-.4.74-.41.73-.4.73-.41.73-.41.73-.4.73-.41.73-.4.73-.41.73-.4.73-.41.74-.41.73-.4.73-.41.73-.4.73-.41.73-.4.73-.41.73-.41.73-.4.73-.41.74-.4.73-.41.73-.4.73-.41.73-.41.73-.4.73-.41.73-.4.73-.41.73-.4.74-.41.73-.41.73-.4.73-.41.73-.4.73" style="stroke-width:1.07;stroke:#000000;stroke-opacity:0.10;stroke-linecap:butt"/><path d="m360.66 454.47-1.32-.62-1.31-.62-1.32-.62-1.32-.62-1.32-.62-1.33-.62-1.32-.62-1.33-.61-1.33-.62-1.33-.61-1.33-.61-1.34-.62-1.33-.61-1.34-.61-1.34-.61-1.35-.61-1.34-.61-1.35-.6-1.34-.61-1.36-.61-1.35-.6-1.35-.6-1.36-.61-1.36-.6-1.36-.6-1.36-.6-1.36-.6-1.37-.6-1.36-.59-1.37-.6-1.38-.6-1.37-.59-1.37-.6-1.38-.59-1.38-.59-1.38-.59-1.39-.59-1.38-.59-1.39-.59-1.39-.59-1.39-.59-1.39-.58-1.39-.59-1.4-.58-1.4-.58-1.4-.59-1.4-.58-1.41-.58-1.4-.58-1.41-.58-1.41-.58-1.41-.57-1.42-.58-1.41-.57-1.42-.58-1.42-.57-1.42-.58-1.42-.57-1.43-.57-1.43-.57-1.43-.57-1.43-.57-1.43-.56-1.44-.57-1.43-.57-1.44-.56-1.44-.57-1.45-.56-1.44-.56-1.45-.56-1.45-.56-1.45-.56-1.45-.56-1.45-.56-1.46-.56-1.46-.55-1.46-.56-1.46-.55-1.46-.55-1.47-.56-1.47-.55-1.47-.55-1.47-.55-1.47-.55-1.48-.55-1.47-.54-1.48-.55-1.48-.55-1.49-.54-1.48-.54-1.49-.55-1.49-.54-1.49-.54-1.49-.54-1.5-.54-1.49-.54-1.5-.53-1.5-.54-1.51-.54M84.93 282.73l1.51-.43 1.51-.44 1.5-.44 1.51-.44 1.51-.43 1.51-.44 1.51-.43 1.51-.44 1.51-.43 1.51-.44 1.51-.43 1.52-.43 1.51-.44 1.52-.43 1.51-.43 1.52-.43 1.51-.43 1.52-.43 1.52-.43 1.52-.43 1.52-.43 1.52-.43 1.52-.42 1.52-.43 1.52-.43 1.53-.42 1.52-.43 1.52-.43 1.53-.42 1.52-.42 1.53-.43 1.53-.42 1.53-.42 1.52-.43 1.53-.42 1.53-.42 1.53-.42 1.53-.42 1.54-.42 1.53-.42 1.53-.42 1.54-.42 1.53-.42 1.54-.41 1.53-.42 1.54-.42 1.54-.41 1.53-.42 1.54-.42 1.54-.41 1.54-.41 1.54-.42 1.54-.41 1.55-.41 1.54-.42 1.54-.41 1.55-.41 1.54-.41 1.55-.41 1.54-.41 1.55-.41 1.55-.41 1.55-.41 1.55-.41 1.55-.4 1.55-.41 1.55-.41 1.55-.4 1.55-.41 1.56-.4 1.55-.41 1.55-.4 1.56-.4 1.56-.41 1.55-.4 1.56-.4 1.56-.4 1.56-.41 1.56-.4 1.56-.4 1.56-.4 1.56-.4 1.56-.39 1.56-.4 1.57-.4 1.56-.4 1.57-.39 1.56-.4 1.57-.4 1.57-.39 1.56-.4 1.57-.39 1.57-.4 1.57-.39 1.57-.39 1.57-.39 1.57-.4 1.58-.39 1.57-.39" style="stroke-width:1.07;stroke:#000000;stroke-opacity:0.10;stroke-linecap:butt"/><path d="m134.62 201.46 1.01.43 1 .42 1.01.42 1 .42 1.01.42 1.01.42 1.01.42 1.01.42 1.01.42 1.01.42 1.01.42 1.01.42 1.01.42 1.01.41 1.02.42 1.01.42 1.02.42 1.01.41 1.02.42 1.02.42 1.02.41 1.02.42 1.01.41 1.02.42 1.03.41 1.02.41 1.02.42 1.02.41 1.02.41 1.03.42 1.02.41 1.03.41 1.02.41 1.03.41 1.03.42 1.03.41 1.03.41 1.03.41 1.03.41 1.03.41 1.03.41 1.03.4 1.03.41 1.04.41 1.03.41 1.04.41 1.03.4 1.04.41 1.03.41 1.04.4 1.04.41 1.04.4 1.04.41 1.04.4 1.04.41 1.04.4 1.04.41 1.05.4 1.04.4 1.04.41 1.05.4 1.05.4 1.04.4 1.05.41 1.05.4 1.04.4 1.05.4 1.05.4 1.05.4 1.05.4 1.06.4 1.05.4 1.05.4 1.06.4 1.05.39 1.06.4 1.05.4 1.06.4 1.06.39 1.05.4 1.06.4 1.06.39 1.06.4 1.06.39 1.06.4 1.06.39 1.07.4 1.06.39 1.06.39 1.07.4 1.06.39 1.07.39 1.07.39 1.06.4 1.07.39 1.07.39 1.07.39 1.07.39 1.07.39m-102.72-40.22.15-.6.15-.61.15-.6.15-.61.15-.6.14-.61.15-.6.14-.61.14-.6.15-.61.14-.6.14-.61.14-.6.13-.61.14-.61.14-.6.13-.61.13-.6.14-.61.13-.6.13-.61.13-.6.13-.61.13-.61.12-.6.13-.61.12-.6.13-.61.12-.61.12-.6.12-.61.12-.6.12-.61.12-.61.12-.6.11-.61.12-.6.11-.61.11-.61.11-.6.11-.61.11-.61.11-.6.11-.61.11-.61.1-.6.11-.61.1-.6.1-.61.11-.61.1-.6.1-.61.09-.61.1-.6.1-.61.09-.61.1-.61.09-.6.09-.61.1-.61.09-.6.09-.61.08-.61.09-.6.09-.61.08-.61.09-.61.08-.6.08-.61.09-.61.08-.6.07-.61.08-.61.08-.61.08-.6.07-.61.08-.61.07-.61.07-.6.07-.61.07-.61.07-.61.07-.6.07-.61.07-.61.06-.61.06-.61.07-.6.06-.61.06-.61.06-.61.06-.6.06-.61.06-.61.05-.61.06-.61.05-.6.06-.61.05-.61m-91.33 49.06 1.86.52 1.86.51 1.86.52 1.86.52 1.85.51 1.86.52 1.86.52 1.86.52 1.86.51 1.86.52 1.86.52 1.85.52 1.86.51 1.86.52 1.86.52 1.86.51 1.86.52 1.85.52 1.86.52 1.86.51 1.86.52 1.86.52 1.86.52 1.86.51 1.85.52 1.86.52 1.86.52 1.86.51 1.86.52 1.86.52 1.85.51 1.86.52 1.86.52 1.86.52 1.86.51 1.86.52 1.86.52 1.85.52 1.86.51 1.86.52 1.86.52 1.86.51 1.86.52 1.85.52 1.86.52 1.86.51 1.86.52 1.86.52 1.86.52 1.86.51 1.85.52 1.86.52 1.86.51 1.86.52 1.86.52 1.86.52 1.85.51 1.86.52 1.86.52 1.86.52 1.86.51 1.86.52 1.86.52 1.85.52 1.86.51 1.86.52 1.86.52 1.86.51 1.86.52 1.85.52 1.86.52 1.86.51 1.86.52 1.86.52 1.86.52 1.86.51 1.85.52 1.86.52 1.86.51 1.86.52 1.86.52 1.86.52 1.85.51 1.86.52 1.86.52 1.86.52 1.86.51 1.86.52 1.86.52 1.85.51 1.86.52 1.86.52 1.86.52 1.86.51 1.86.52 1.85.52 1.86.52 1.86.51 1.86.52M53.35 190.47l.93-.5.92-.49.92-.5.92-.49.93-.5.92-.5.92-.49.92-.5.92-.49.93-.5.92-.49.92-.5.92-.49.93-.5.92-.5.92-.49.92-.5.93-.49.92-.5.92-.49.92-.5.93-.49.92-.5.92-.5.92-.49.93-.5.92-.49.92-.5.92-.49.93-.5.92-.49.92-.5.92-.5.93-.49.92-.5.92-.49.92-.5.93-.49.92-.5.92-.49.92-.5.93-.5.92-.49.92-.5.92-.49.93-.5.92-.49.92-.5.92-.49.93-.5.92-.49.92-.5.92-.5.93-.49.92-.5.92-.49.92-.5.93-.49.92-.5.92-.49.92-.5.93-.5.92-.49.92-.5.92-.49.93-.5.92-.49.92-.5.92-.49.93-.5.92-.5.92-.49.92-.5.93-.49.92-.5.92-.49.92-.5.93-.49.92-.5.92-.5.92-.49.93-.5.92-.49.92-.5.92-.49.93-.5.92-.49.92-.5.92-.5.93-.49.92-.5.92-.49.92-.5.92-.49.93-.5.92-.49.92-.5.92-.5.93-.49" style="stroke-width:1.07;stroke:#000000;stroke-opacity:0.10;stroke-linecap:butt"/><path d="m53.35 190.47 1.95.46 1.94.46 1.94.46 1.93.47 1.94.46 1.93.47 1.94.46 1.93.47 1.93.47 1.92.47 1.93.48 1.92.47 1.92.47 1.92.48 1.92.47 1.92.48 1.92.48 1.91.48 1.91.48 1.91.48 1.91.49 1.91.48 1.9.49 1.9.49 1.91.48 1.89.49 1.9.49 1.9.5 1.89.49 1.9.49 1.89.5 1.89.49 1.89.5 1.88.5 1.89.5 1.88.5 1.88.5 1.88.51 1.88.5 1.87.51 1.87.5 1.88.51 1.87.51 1.87.51 1.86.51 1.87.52 1.86.51 1.86.51 1.86.52 1.86.52 1.86.52 1.85.52 1.86.52 1.85.52 1.85.52 1.85.53 1.84.52 1.85.53 1.84.53 1.84.52 1.84.53 1.84.54 1.84.53 1.83.53 1.83.54 1.83.53 1.83.54 1.83.54 1.83.54 1.82.54 1.82.54 1.82.54 1.82.55 1.82.54 1.82.55 1.81.55 1.81.54 1.81.55 1.81.56 1.81.55 1.8.55 1.81.56 1.8.55 1.8.56 1.8.56 1.79.56 1.8.56 1.79.56 1.79.56 1.79.56 1.79.57 1.78.56 1.79.57 1.78.57 1.78.57 1.78.57 1.78.57 1.78.58 1.77.57M53.35 190.47l.84-.53.85-.52.84-.52.85-.52.85-.53.85-.52.85-.52.85-.52.86-.52.85-.51.86-.52.86-.52.86-.52.87-.51.86-.52.87-.51.87-.52.87-.51.87-.52.87-.51.87-.51.88-.51.88-.51.88-.52.88-.5.88-.51.89-.51.88-.51.89-.51.89-.51.89-.5.9-.51.89-.5.9-.51.89-.5.9-.51.9-.5.91-.5.9-.5.91-.51.9-.5.91-.5.91-.5.92-.5.91-.49.92-.5.92-.5.91-.5.93-.49.92-.5.92-.49.93-.5.92-.49.93-.49.93-.5.94-.49.93-.49.94-.49.93-.49.94-.49.94-.49.95-.49.94-.49.95-.48.94-.49.95-.49.95-.48.95-.49.96-.48.95-.49.96-.48.96-.48.96-.49.96-.48.96-.48.97-.48.97-.48.97-.48.97-.48.97-.47.97-.48.98-.48.97-.48.98-.47.98-.48.98-.47.99-.48.98-.47.99-.47.99-.48.99-.47.99-.47.99-.47 1-.47.99-.47 1-.47 1-.47 1-.46 1.01-.47m108.84 181.31-.17-.82-.16-.82-.16-.82-.17-.82-.16-.82-.16-.81-.17-.82-.16-.82-.16-.82-.17-.82-.16-.82-.16-.82-.17-.81-.16-.82-.16-.82-.17-.82-.16-.82-.16-.82-.17-.82-.16-.81-.16-.82-.17-.82-.16-.82-.16-.82-.17-.82-.16-.82-.17-.81-.16-.82-.16-.82-.17-.82-.16-.82-.16-.82-.17-.82-.16-.81-.16-.82-.17-.82-.16-.82-.16-.82-.17-.82-.16-.81-.16-.82-.17-.82-.16-.82-.16-.82-.17-.82-.16-.82-.16-.81-.17-.82-.16-.82-.16-.82-.17-.82-.16-.82-.16-.82-.17-.81-.16-.82-.16-.82-.17-.82-.16-.82-.16-.82-.17-.82-.16-.81-.16-.82-.17-.82-.16-.82-.16-.82-.17-.82-.16-.82-.16-.81-.17-.82-.16-.82-.16-.82-.17-.82-.16-.82-.17-.82-.16-.81-.16-.82-.17-.82-.16-.82-.16-.82-.17-.82-.16-.82-.16-.81-.17-.82-.16-.82-.16-.82-.17-.82-.16-.82-.16-.82-.17-.81-.16-.82-.16-.82-.17-.82-.16-.82-.16-.82-.17-.82-.16-.81-.16-.82-.17-.82-.16-.82m16.18 81.04-.27.75-.26.76-.27.76-.27.75-.27.76-.27.76-.27.75-.28.76-.27.76-.28.75-.27.76-.28.75-.28.76-.28.75-.28.76-.29.75-.28.76-.29.76-.29.75-.28.76-.29.75-.29.75-.3.76-.29.75-.29.76-.3.75-.3.76-.3.75-.3.76-.3.75-.3.75-.3.76-.31.75-.3.75-.31.76-.31.75-.31.75-.31.76-.31.75-.31.75-.32.76-.31.75-.32.75-.32.75-.32.76-.32.75-.32.75-.33.75-.32.75-.33.76-.32.75-.33.75-.33.75-.33.75-.33.75-.34.76-.33.75-.34.75-.34.75-.33.75-.34.75-.34.75-.35.75-.34.75-.34.75-.35.75-.35.75-.35.75-.35.75-.35.75-.35.75-.35.75-.36.75-.35.75-.36.75-.36.75-.36.75-.36.75-.36.75-.36.74-.37.75-.36.75-.37.75-.37.75-.37.75-.37.75-.37.74-.38.75-.37.75-.38.75-.37.75-.38.74-.38.75-.38.75-.38.74-.39.75-.38.75-.39.75-.39.74m-86.63-195.69 1.07.39 1.07.39 1.07.4 1.07.39 1.07.39 1.06.39 1.07.39 1.07.4 1.06.39 1.07.39 1.06.4 1.06.39 1.07.39 1.06.4 1.06.39 1.06.4 1.06.39 1.06.4 1.06.4 1.06.39 1.05.4 1.06.4 1.06.39 1.05.4 1.05.4 1.06.4 1.05.4 1.05.4 1.06.39 1.05.4 1.05.4 1.05.4 1.05.41 1.04.4 1.05.4 1.05.4 1.05.4 1.04.4 1.05.41 1.04.4 1.04.4 1.05.41 1.04.4 1.04.4 1.04.41 1.04.4 1.04.41 1.04.41 1.04.4 1.04.41 1.03.4 1.04.41 1.04.41 1.03.41 1.03.4 1.04.41 1.03.41 1.03.41 1.03.41 1.04.41 1.03.41 1.02.41 1.03.41 1.03.41 1.03.41 1.03.41 1.02.41 1.03.42 1.02.41 1.03.41 1.02.41 1.02.42 1.02.41 1.03.41 1.02.42 1.02.41 1.02.42 1.01.41 1.02.42 1.02.42 1.02.41 1.01.42 1.02.42 1.01.41 1.02.42 1.01.42 1.01.42 1.01.41 1.01.42 1.02.42 1.01.42 1 .42 1.01.42 1.01.42 1.01.42 1 .43 1.01.42 1.01.42 1 .42" style="stroke-width:1.07;stroke:#000000;stroke-opacity:0.10;stroke-linecap:butt"/><path d="m134.62 201.46.05-.6.06-.61.05-.61.06-.61.05-.61.06-.6.06-.61.06-.61.06-.61.06-.61.06-.6.06-.61.07-.61.06-.61.07-.61.07-.6.06-.61.07-.61.07-.61.08-.6.07-.61.07-.61.08-.61.07-.6.08-.61.07-.61.08-.61.08-.6.08-.61.08-.61.09-.6.08-.61.08-.61.09-.61.09-.6.08-.61.09-.61.09-.6.09-.61.09-.61.1-.61.09-.6.09-.61.1-.61.1-.6.09-.61.1-.61.1-.6.1-.61.1-.61.11-.6.1-.61.11-.61.1-.6.11-.61.1-.61.11-.6.11-.61.11-.6.12-.61.11-.61.11-.6.12-.61.11-.61.12-.6.12-.61.12-.6.12-.61.12-.61.12-.6.12-.61.12-.6.13-.61.12-.61.13-.6.13-.61.13-.6.13-.61.13-.6.13-.61.13-.61.14-.6.13-.61.14-.6.14-.61.13-.6.14-.61.14-.6.14-.61.14-.6.15-.61.14-.61.15-.6.14-.61.15-.6.15-.61.15-.6.15-.61.15-.6m193.08 39.87-1.01.61-1.01.61-1.02.61-1.01.61-1.02.61-1.01.61-1.02.61-1.01.61-1.02.61-1.01.61-1.01.61-1.02.61-1.01.61-1.02.61-1.01.61-1.02.61-1.01.61-1.01.61-1.02.61-1.01.61-1.02.61-1.01.61-1.02.61-1.01.61-1.02.61-1.01.61-1.01.61-1.02.61-1.01.61-1.02.61-1.01.61-1.02.61-1.01.61-1.01.61-1.02.61-1.01.61-1.02.61-1.01.61-1.02.61-1.01.61-1.02.61-1.01.61-1.01.61-1.02.61-1.01.61-1.02.61-1.01.61-1.02.61-1.01.61-1.02.61-1.01.61-1.01.61-1.02.61-1.01.61-1.02.61-1.01.61-1.02.61-1.01.61-1.01.61-1.02.61-1.01.62-1.02.61-1.01.61-1.02.61-1.01.61-1.02.61-1.01.61-1.01.61-1.02.61-1.01.61-1.02.61-1.01.61-1.02.61-1.01.61-1.01.61-1.02.61-1.01.61-1.02.61-1.01.61-1.02.61-1.01.61-1.02.61-1.01.61-1.01.61-1.02.61-1.01.61-1.02.61-1.01.61-1.02.61-1.01.61-1.01.61-1.02.61-1.01.61-1.02.61-1.01.61-1.02.61-1.01.61-1.02.61-1.01.61m100.42-60.4-1.95-.41-1.95-.4-1.95-.4-1.95-.4-1.95-.41-1.95-.4-1.95-.4-1.95-.41-1.95-.4-1.95-.4-1.95-.4-1.95-.41-1.95-.4-1.95-.4-1.95-.4-1.95-.41-1.95-.4-1.95-.4-1.95-.41-1.95-.4-1.95-.4-1.95-.4-1.95-.41-1.95-.4-1.95-.4-1.96-.4-1.95-.41-1.95-.4-1.95-.4-1.95-.4-1.95-.41-1.95-.4-1.95-.4-1.95-.41-1.95-.4-1.95-.4-1.95-.4-1.95-.41-1.95-.4-1.95-.4-1.95-.4-1.95-.41-1.95-.4-1.95-.4-1.95-.41-1.95-.4-1.95-.4-1.95-.4-1.95-.41-1.95-.4-1.95-.4-1.96-.4-1.95-.41-1.95-.4-1.95-.4-1.95-.41-1.95-.4-1.95-.4-1.95-.4-1.95-.41-1.95-.4-1.95-.4-1.95-.4-1.95-.41-1.95-.4-1.95-.4-1.95-.4-1.95-.41-1.95-.4-1.95-.4-1.95-.41-1.95-.4-1.95-.4-1.95-.4-1.95-.41-1.95-.4-1.95-.4-1.95-.4-1.96-.41-1.95-.4-1.95-.4-1.95-.41-1.95-.4-1.95-.4-1.95-.4-1.95-.41-1.95-.4-1.95-.4-1.95-.4-1.95-.41-1.95-.4-1.95-.4-1.95-.41-1.95-.4-1.95-.4-1.95-.4-1.95-.41-1.95-.4-1.95-.4" style="stroke-width:1.07;stroke:#000000;stroke-opacity:0.10;stroke-linecap:butt"/><path d="m392.03 265.99-1.58-.22-1.58-.23-1.59-.22-1.58-.22-1.58-.23-1.58-.22-1.58-.22-1.58-.23-1.58-.22-1.58-.23-1.58-.23-1.57-.22-1.58-.23-1.58-.23-1.57-.23-1.58-.23-1.58-.23-1.57-.23-1.58-.23-1.57-.23-1.58-.23-1.57-.23-1.57-.23-1.58-.23-1.57-.24-1.57-.23-1.57-.24-1.58-.23-1.57-.24-1.57-.23-1.57-.24-1.57-.23-1.57-.24-1.57-.24-1.57-.24-1.56-.24-1.57-.24-1.57-.24-1.57-.24-1.56-.24-1.57-.24-1.56-.24-1.57-.24-1.57-.24-1.56-.25-1.56-.24-1.57-.24-1.56-.25-1.56-.24-1.57-.25-1.56-.25-1.56-.24-1.56-.25-1.56-.25-1.56-.24-1.56-.25-1.56-.25-1.56-.25-1.56-.25-1.56-.25-1.56-.25-1.55-.25-1.56-.26-1.56-.25-1.56-.25-1.55-.25-1.56-.26-1.55-.25-1.56-.26-1.55-.25-1.56-.26-1.55-.25-1.55-.26-1.55-.26-1.56-.26-1.55-.25-1.55-.26-1.55-.26-1.55-.26-1.55-.26-1.55-.26-1.55-.26-1.55-.27-1.55-.26-1.55-.26-1.55-.26-1.54-.27-1.55-.26-1.55-.27-1.54-.26-1.55-.27-1.54-.26-1.55-.27-1.54-.27-1.55-.26-1.54-.27-1.54-.27-1.55-.27-1.54-.27m-102.72-40.22 1.14.36 1.13.36 1.14.36 1.13.36 1.12.37 1.13.36 1.13.36 1.12.37 1.12.37 1.12.36 1.11.37 1.12.37 1.11.37 1.11.37 1.11.37 1.11.38 1.1.37 1.1.38 1.1.37 1.1.38 1.1.38 1.09.38 1.1.38 1.09.38 1.08.38 1.09.38 1.08.38 1.09.39 1.08.39 1.07.38 1.08.39 1.08.39 1.07.39 1.07.39 1.07.39 1.06.39 1.06.4 1.07.39 1.06.4 1.05.39 1.06.4 1.05.4 1.06.4 1.05.4 1.04.4 1.05.4 1.04.41 1.04.4 1.04.41 1.04.4 1.04.41 1.03.41 1.03.41 1.03.41 1.03.41 1.02.41 1.03.41 1.02.42 1.02.41 1.02.42 1.01.41 1.01.42 1.02.42 1 .42 1.01.42 1.01.42 1 .43 1 .42 1 .42 1 .43.99.43 1 .43.99.42.99.43.98.43.99.44.98.43.98.43.98.44.98.43.97.44.97.44.97.43.97.44.97.44.96.44.97.45.96.44.96.44.95.45.96.45.95.44.95.45.95.45.94.45.95.45.94.45.94.46.94.45m-102.72-40.22-.05-.61-.04-.61-.04-.61-.04-.61-.03-.61-.03-.61-.03-.61-.03-.61-.02-.61-.02-.61-.02-.62-.01-.61-.01-.61-.01-.61v-2.43l.01-.61.01-.61.02-.61.01-.61.02-.61.03-.61.02-.61.03-.61.03-.61.04-.61.04-.6.04-.61.04-.61.05-.61.05-.61.05-.61.06-.6.06-.61.06-.61.06-.61.07-.61.07-.6.08-.61.08-.61.08-.61.08-.6.09-.61.09-.61.09-.6.09-.61.1-.61.1-.6.11-.61.11-.61.11-.6.11-.61.12-.61.12-.6.12-.61.12-.6.13-.61.14-.6.13-.61.14-.61.14-.6.14-.61.15-.6.15-.61.15-.6.16-.61.16-.6.16-.61.17-.6.16-.61.17-.6.18-.6.18-.61.18-.6.18-.61.19-.6.19-.6.19-.61.19-.6.2-.61.2-.6.21-.6.2-.61.22-.6.21-.6.22-.6.22-.61.22-.6.22-.6.23-.61.23-.6.24-.6.24-.6.24-.61.24-.6.25-.6.25-.6" style="stroke-width:1.07;stroke:#000000;stroke-opacity:0.10;stroke-linecap:butt"/><path d="m134.62 201.46 1.2.33 1.2.33 1.2.33 1.19.33 1.19.33 1.19.34 1.18.33 1.18.34 1.18.34 1.17.34 1.17.35 1.16.34 1.17.35 1.16.34 1.15.35 1.15.35 1.15.36 1.15.35 1.14.36 1.14.36 1.14.35 1.13.37 1.13.36 1.12.36 1.12.37 1.12.36 1.12.37 1.11.37 1.11.38 1.1.37 1.1.37 1.1.38 1.1.38 1.09.38 1.09.38 1.08.39 1.08.38 1.08.39 1.08.39 1.07.39 1.07.39 1.06.39 1.06.4 1.06.39 1.05.4 1.06.4 1.04.4 1.05.4 1.04.41 1.04.41 1.03.4 1.03.41 1.03.41 1.02.42 1.02.41 1.02.42 1.01.41 1.02.42 1 .42 1.01.43 1 .42.99.43 1 .42.99.43.98.43.99.44.98.43.97.44.98.43.97.44.96.44.97.44.96.45.95.44.96.45.95.45.94.45.95.45.94.45.93.46.94.45.93.46.92.46.92.46.92.47.92.46.91.47.91.47.91.47.9.47.9.47.89.47.9.48.89.48.88.48.88.48.88.48.88.48.87.49m-102.72-40.22-.14-.61-.15-.61-.13-.62-.13-.61-.13-.62-.12-.61-.11-.61-.11-.62-.11-.61-.1-.61-.09-.62-.09-.61-.09-.61-.08-.61-.07-.62-.07-.61-.07-.61-.06-.61-.05-.61-.05-.61-.05-.62-.04-.61-.03-.61-.03-.61-.02-.61-.02-.61-.02-.61-.01-.61v-1.83l.02-.61.01-.61.02-.61.03-.61.03-.6.03-.61.05-.61.04-.61.05-.61.06-.61.06-.6.07-.61.07-.61.07-.61.09-.6.08-.61.09-.61.1-.61.1-.6.11-.61.11-.6.12-.61.12-.61.13-.6.13-.61.13-.6.15-.61.14-.6.16-.61.15-.6.16-.61.17-.6.17-.61.18-.6.18-.61.19-.6.19-.6.2-.61.2-.6.21-.6.21-.61.22-.6.22-.6.23-.61.23-.6.24-.6.24-.6.25-.6.25-.61.26-.6.27-.6.26-.6.28-.6.27-.6.29-.6.29-.6.29-.61.3-.6.3-.6.31-.6.31-.6.32-.6.32-.6.33-.6.34-.59.33-.6.35-.6.35-.6m215.98 313.06-.52-.63-.52-.63-.52-.63-.52-.63-.52-.63-.52-.63-.52-.63-.52-.63-.52-.63-.52-.63-.52-.63-.52-.63-.51-.63-.52-.63-.52-.63-.52-.63-.52-.63-.52-.63-.52-.63-.52-.63-.52-.63-.52-.63-.52-.63-.52-.63-.52-.63-.52-.63-.51-.63-.52-.63-.52-.63-.52-.63-.52-.64-.52-.63-.52-.63-.52-.63-.52-.63-.52-.63-.52-.63-.52-.63-.52-.63-.51-.63-.52-.63-.52-.63-.52-.63-.52-.63-.52-.63-.52-.63-.52-.63-.52-.63-.52-.63-.52-.63-.52-.63-.52-.63-.52-.63-.51-.63-.52-.63-.52-.63-.52-.63-.52-.63-.52-.63-.52-.63-.52-.63-.52-.63-.52-.63-.52-.63-.52-.63-.52-.63-.52-.63-.51-.63-.52-.63-.52-.63-.52-.63-.52-.63-.52-.63-.52-.63-.52-.63-.52-.63-.52-.63-.52-.63-.52-.63-.52-.63-.52-.63-.51-.63-.52-.63-.52-.63-.52-.64-.52-.63-.52-.63-.52-.63-.52-.63-.52-.63-.52-.63-.52-.63-.52-.63-.52-.63-.52-.63-.51-.63-.52-.63-.52-.63-.52-.63m51.41 62.39-1.41-.58-1.41-.58-1.41-.58-1.41-.58-1.4-.57-1.41-.58-1.41-.58-1.41-.58-1.41-.58-1.41-.58-1.4-.58-1.41-.58-1.41-.58-1.41-.57-1.41-.58-1.4-.58-1.41-.58-1.41-.58-1.41-.58-1.41-.58-1.4-.58-1.41-.58-1.41-.58-1.41-.57-1.41-.58-1.4-.58-1.41-.58-1.41-.58-1.41-.58-1.41-.58-1.41-.58-1.4-.58-1.41-.58-1.41-.57-1.41-.58-1.41-.58-1.4-.58-1.41-.58-1.41-.58-1.41-.58-1.41-.58-1.4-.58-1.41-.57-1.41-.58-1.41-.58-1.41-.58-1.4-.58-1.41-.58-1.41-.58-1.41-.58-1.41-.58-1.41-.58-1.4-.57-1.41-.58-1.41-.58-1.41-.58-1.41-.58-1.4-.58-1.41-.58-1.41-.58-1.41-.58-1.41-.58-1.4-.57-1.41-.58-1.41-.58-1.41-.58-1.41-.58-1.4-.58-1.41-.58-1.41-.58-1.41-.58-1.41-.58-1.41-.57-1.4-.58-1.41-.58-1.41-.58-1.41-.58-1.41-.58-1.4-.58-1.41-.58-1.41-.58-1.41-.57-1.41-.58-1.4-.58-1.41-.58-1.41-.58-1.41-.58-1.41-.58-1.4-.58-1.41-.58-1.41-.58-1.41-.57-1.41-.58-1.41-.58-1.4-.58-1.41-.58-1.41-.58-1.41-.58-1.41-.58" style="stroke-width:1.07;stroke:#000000;stroke-opacity:0.10;stroke-linecap:butt"/><path d="m360.66 454.47-.63-.61-.62-.62-.61-.61-.62-.62-.61-.61-.61-.62-.61-.62-.61-.61-.61-.62-.6-.62-.6-.61-.6-.62-.6-.62-.59-.62-.59-.62-.59-.62-.59-.62-.59-.62-.58-.62-.58-.62-.59-.62-.57-.62-.58-.62-.57-.62-.57-.62-.57-.63-.57-.62-.57-.62-.56-.62-.56-.63-.56-.62-.56-.63-.55-.62-.55-.63-.56-.62-.54-.63-.55-.62-.55-.63-.54-.63-.54-.62-.54-.63-.53-.63-.54-.63-.53-.62-.53-.63-.53-.63-.52-.63-.52-.63-.53-.63-.51-.63-.52-.63-.52-.63-.51-.63-.51-.63-.51-.64-.51-.63-.5-.63-.5-.63-.5-.64-.5-.63-.5-.63-.49-.64-.49-.63-.49-.64-.49-.63-.49-.64-.48-.63-.48-.64-.48-.64-.48-.63-.48-.64-.47-.64-.47-.63-.47-.64-.47-.64-.46-.64-.46-.64-.46-.64-.46-.64-.46-.64-.45-.64-.46-.64-.45-.64-.44-.64-.45-.64-.44-.64-.44-.65-.44-.64-.44-.64-.44-.64-.43-.65-.43-.64-.43-.65-.43-.64-.42-.65-.43-.64-.42-.65-.42-.64-.41-.65m51.41 62.39-1.51-.54-1.5-.53-1.5-.54-1.49-.54-1.5-.54-1.49-.54-1.49-.54-1.49-.54-1.49-.54-1.48-.55-1.48-.54-1.49-.55-1.48-.54-1.47-.55-1.48-.55-1.47-.55-1.47-.55-1.47-.55-1.47-.55-1.47-.55-1.46-.56-1.46-.55-1.46-.55-1.46-.56-1.46-.56-1.45-.56-1.45-.55-1.45-.56-1.45-.56-1.45-.57-1.44-.56-1.45-.56-1.44-.57-1.44-.56-1.43-.57-1.44-.56-1.43-.57-1.43-.57-1.43-.57-1.43-.57-1.43-.57-1.42-.57-1.42-.57-1.42-.58-1.42-.57-1.41-.58-1.42-.57-1.41-.58-1.41-.58-1.41-.58-1.4-.58-1.41-.58-1.4-.58-1.4-.58-1.4-.59-1.4-.58-1.39-.59-1.39-.58-1.39-.59-1.39-.59-1.39-.58-1.38-.59-1.39-.59-1.38-.6-1.38-.59-1.38-.59-1.37-.59-1.37-.6-1.38-.6-1.37-.59-1.36-.6-1.37-.6-1.36-.6-1.36-.6-1.36-.6-1.36-.6-1.36-.6-1.35-.61-1.35-.6-1.36-.61-1.34-.6-1.35-.61-1.34-.61-1.35-.61-1.34-.61-1.34-.61-1.33-.61-1.34-.61-1.33-.62-1.33-.61-1.33-.61-1.33-.62-1.32-.62-1.33-.62-1.32-.61-1.32-.62-1.32-.62-1.31-.62-1.32-.63m32.27-74.43.67.68.68.68.67.69.67.68.67.69.66.68.67.69.66.68.66.69.65.69.66.68.65.69.65.69.64.69.65.68.64.69.64.69.64.69.63.69.64.69.63.69.62.69.63.69.62.7.63.69.61.69.62.69.61.7.62.69.61.69.6.7.61.69.6.7.6.69.6.7.59.69.6.7.59.69.59.7.58.7.59.7.58.69.58.7.58.7.57.7.57.7.57.7.57.7.56.7.57.7.56.7.56.7.55.7.56.7.55.71.55.7.54.7.55.71.54.7.54.7.54.71.53.7.53.71.53.7.53.71.53.71.52.7.52.71.52.71.52.71.51.7.51.71.51.71.51.71.5.71.51.71.5.71.49.71.5.71.49.71.49.71.49.72.49.71.48.71.48.71.48.72.48.71.47.71.48.72.47.71.46.72.47.71.46.72.46.72.46.71.45.72.46.72.45.71.45.72m-55.73-69.36-.15.76-.14.77-.15.77-.15.76-.16.77-.16.76-.17.77-.17.76-.17.77-.17.76-.18.77-.19.76-.18.76-.19.77-.2.76-.2.76-.2.76-.21.76-.2.77-.22.76-.22.76-.22.76-.22.76-.23.76-.23.76-.24.76-.24.76-.24.75-.25.76-.25.76-.25.76-.26.76-.26.75-.27.76-.27.76-.27.75-.28.76-.28.75-.28.76-.29.75-.3.76-.29.75-.3.76-.3.75-.31.75-.31.76-.32.75-.32.75-.32.75-.32.76-.33.75-.34.75-.33.75-.34.75-.35.75-.35.75-.35.75-.36.75-.36.75-.36.75-.37.75-.37.74-.37.75-.38.75-.38.75-.39.74-.39.75-.39.75-.4.74-.4.75-.4.74-.41.75-.41.74-.42.75-.42.74-.42.75-.43.74-.43.74-.44.75-.43.74-.45.74-.44.74-.45.75-.45.74-.46.74-.46.74-.47.74-.47.74-.47.74-.47.74-.48.74-.49.74-.48.74-.5.74-.49.73-.5.74-.5.74-.51.74-.51.73" style="stroke-width:1.07;stroke:#000000;stroke-opacity:0.10;stroke-linecap:butt"/><path d="m127.97 438.85 1.83-.47 1.83-.48 1.83-.47 1.83-.47 1.83-.47 1.83-.48 1.83-.47 1.84-.47 1.83-.47 1.83-.47 1.83-.48 1.83-.47 1.83-.47 1.83-.47 1.83-.48 1.83-.47 1.84-.47 1.83-.47 1.83-.48 1.83-.47 1.83-.47 1.83-.47 1.83-.48 1.83-.47 1.83-.47 1.84-.47 1.83-.48 1.83-.47 1.83-.47 1.83-.47 1.83-.47 1.83-.48 1.83-.47 1.83-.47 1.84-.47 1.83-.48 1.83-.47 1.83-.47 1.83-.47 1.83-.48 1.83-.47 1.83-.47 1.83-.47 1.84-.48 1.83-.47 1.83-.47 1.83-.47 1.83-.48 1.83-.47 1.83-.47 1.83-.47 1.84-.48 1.83-.47 1.83-.47 1.83-.47 1.83-.47 1.83-.48 1.83-.47 1.83-.47 1.83-.47 1.84-.48 1.83-.47 1.83-.47 1.83-.47 1.83-.48 1.83-.47 1.83-.47 1.83-.47 1.83-.48 1.84-.47 1.83-.47 1.83-.47 1.83-.48 1.83-.47 1.83-.47 1.83-.47 1.83-.48 1.83-.47 1.84-.47 1.83-.47 1.83-.47 1.83-.48 1.83-.47 1.83-.47 1.83-.47 1.83-.48 1.83-.47 1.84-.47 1.83-.47 1.83-.48 1.83-.47 1.83-.47 1.83-.47 1.83-.48 1.83-.47 1.83-.47 1.84-.47 1.83-.48 1.83-.47m-181.28 46.77.94-.42.94-.42.94-.42.95-.43.94-.42.94-.42.94-.42.94-.42.95-.42.94-.42.94-.42.94-.42.95-.43.94-.42.94-.42.94-.42.95-.42.94-.42.94-.42.94-.42.94-.43.95-.42.94-.42.94-.42.94-.42.95-.42.94-.42.94-.42.94-.42.95-.43.94-.42.94-.42.94-.42.94-.42.95-.42.94-.42.94-.42.94-.43.95-.42.94-.42.94-.42.94-.42.95-.42.94-.42.94-.42.94-.42.94-.43.95-.42.94-.42.94-.42.94-.42.95-.42.94-.42.94-.42.94-.43.95-.42.94-.42.94-.42.94-.42.94-.42.95-.42.94-.42.94-.42.94-.43.95-.42.94-.42.94-.42.94-.42.95-.42.94-.42.94-.42.94-.43.94-.42.95-.42.94-.42.94-.42.94-.42.95-.42.94-.42.94-.42.94-.43.95-.42.94-.42.94-.42.94-.42.94-.42.95-.42.94-.42.94-.43.94-.42.95-.42.94-.42.94-.42.94-.42.95-.42.94-.42.94-.42.94-.43.94-.42M61.85 226.22l1.79.13 1.78.13 1.79.13 1.78.13 1.78.13 1.79.13 1.78.13 1.79.14 1.78.13 1.78.13 1.78.14 1.79.13 1.78.14 1.78.13 1.78.14 1.78.14 1.79.14 1.78.14 1.78.13 1.78.14 1.78.14 1.78.14 1.78.15 1.78.14 1.78.14 1.77.14 1.78.15 1.78.14 1.78.14 1.78.15 1.78.15 1.77.14 1.78.15 1.78.15 1.77.14 1.78.15 1.78.15 1.77.15 1.78.15 1.77.15 1.78.15 1.77.15 1.78.16 1.77.15 1.77.15 1.78.16 1.77.15 1.77.16 1.78.15 1.77.16 1.77.15 1.77.16 1.78.16 1.77.16 1.77.16 1.77.16 1.77.16 1.77.16 1.77.16 1.77.16 1.77.16 1.77.17 1.77.16 1.77.16 1.77.17 1.77.16 1.76.17 1.77.16 1.77.17 1.77.17 1.76.17 1.77.16 1.77.17 1.76.17 1.77.17 1.77.17 1.76.17 1.77.18 1.76.17 1.77.17 1.76.17 1.77.18 1.76.17 1.76.18 1.77.17 1.76.18 1.76.18 1.77.17 1.76.18 1.76.18 1.76.18 1.77.18 1.76.18 1.76.18 1.76.18 1.76.18 1.76.18 1.76.19 1.76.18M61.85 226.22l.77-.87.77-.87.77-.87.77-.87.77-.87.77-.86.78-.87.78-.87.77-.87.78-.86.78-.87.79-.87.78-.86.79-.87.78-.87.79-.86.79-.87.79-.86.79-.87.8-.86.79-.87.8-.86.8-.86.8-.87.8-.86.8-.86.81-.87.8-.86.81-.86.81-.86.8-.86.82-.87.81-.86.81-.86.82-.86.81-.86.82-.86.82-.86.82-.86.83-.86.82-.86.82-.85.83-.86.83-.86.83-.86.83-.86.83-.85.84-.86.83-.86.84-.86.84-.85.83-.86.85-.85.84-.86.84-.85.85-.86.84-.85.85-.86.85-.85.85-.86.85-.85.86-.86.85-.85.86-.85.86-.85.86-.86.86-.85.86-.85.86-.85.87-.85.87-.86.86-.85.87-.85.87-.85.88-.85.87-.85.87-.85.88-.85.88-.84.88-.85.88-.85.88-.85.89-.85.88-.85.89-.84.88-.85.89-.85.89-.84.9-.85.89-.85.9-.84.89-.85.9-.84.9-.85.9-.84.9-.85.91-.84.9-.85.91-.84m247.35 124.58-1.62-.18-1.62-.17-1.62-.18-1.62-.18-1.62-.18-1.62-.18-1.61-.18-1.62-.18-1.61-.19-1.61-.18-1.61-.19-1.61-.19-1.61-.19-1.6-.2-1.61-.19-1.6-.2-1.61-.19-1.6-.2-1.6-.2-1.6-.2-1.6-.21-1.59-.2-1.6-.21-1.59-.2-1.6-.21-1.59-.21-1.59-.22-1.59-.21-1.59-.21-1.58-.22-1.59-.22-1.58-.22-1.59-.22-1.58-.22-1.58-.22-1.58-.23-1.58-.22-1.58-.23-1.57-.23-1.58-.23-1.57-.23-1.57-.24-1.57-.23-1.57-.24-1.57-.24-1.57-.24-1.57-.24-1.56-.24-1.56-.25-1.57-.24-1.56-.25-1.56-.25-1.56-.25-1.55-.25-1.56-.25-1.56-.25-1.55-.26-1.55-.26-1.55-.26-1.55-.26-1.55-.26-1.55-.26-1.55-.27-1.54-.26-1.55-.27-1.54-.27-1.54-.27-1.54-.27-1.54-.27-1.54-.28-1.54-.28-1.53-.27-1.54-.28-1.53-.28-1.53-.29-1.53-.28-1.53-.28-1.53-.29-1.53-.29-1.52-.29-1.53-.29-1.52-.29-1.52-.3-1.52-.29-1.52-.3-1.52-.3-1.52-.3-1.52-.3-1.51-.3-1.51-.31-1.52-.3-1.51-.31-1.51-.31-1.51-.31-1.5-.31-1.51-.31-1.5-.32-1.51-.31-1.5-.32m123.32 212.79-.73-.6-.72-.6-.72-.6-.71-.6-.71-.6-.7-.6-.7-.6-.69-.6-.69-.61-.69-.6-.68-.61-.68-.6-.68-.61-.67-.61-.66-.6-.67-.61-.65-.61-.66-.61-.65-.61-.64-.61-.64-.61-.64-.61-.63-.62-.63-.61-.62-.61-.62-.62-.62-.61-.61-.62-.61-.61-.6-.62-.6-.62-.59-.62-.59-.62-.59-.62-.58-.62-.58-.62-.57-.62-.57-.62-.57-.63-.56-.62-.56-.62-.55-.63-.55-.62-.54-.63-.54-.63-.54-.63-.53-.62-.53-.63-.52-.63-.52-.63-.52-.63-.51-.63-.5-.64-.51-.63-.5-.63-.49-.64-.49-.63-.49-.64-.48-.63-.47-.64-.48-.64-.47-.63-.46-.64-.46-.64-.46-.64-.45-.64-.45-.64-.44-.65-.44-.64-.44-.64-.43-.65-.43-.64-.42-.65-.42-.64-.41-.65-.41-.65-.41-.64-.4-.65-.4-.65-.39-.65-.39-.65-.39-.65-.38-.65-.37-.66-.38-.65-.36-.65-.37-.66-.36-.65-.35-.66-.36-.65-.34-.66-.35-.66-.34-.66-.33-.65-.33-.66-.33-.66-.32-.66-.32-.67-.31-.66" style="stroke-width:1.07;stroke:#000000;stroke-opacity:0.10;stroke-linecap:butt"/><path d="m360.66 454.47-1.6-.49-1.59-.5-1.59-.49-1.59-.5-1.58-.5-1.58-.5-1.57-.5-1.57-.51-1.57-.51-1.56-.5-1.56-.51-1.55-.52-1.55-.51-1.55-.52-1.54-.51-1.54-.52-1.54-.52-1.53-.53-1.52-.52-1.53-.53-1.52-.52-1.51-.53-1.52-.53-1.5-.54-1.51-.53-1.5-.54-1.5-.54-1.49-.54-1.49-.54-1.48-.54-1.48-.55-1.48-.55-1.47-.54-1.47-.56-1.47-.55-1.46-.55-1.46-.56-1.45-.56-1.45-.56-1.45-.56-1.44-.56-1.44-.57-1.44-.56-1.43-.57-1.43-.57-1.42-.57-1.42-.58-1.42-.57-1.41-.58-1.41-.58-1.4-.58-1.4-.58-1.4-.58-1.39-.59-1.39-.59-1.38-.59-1.38-.59-1.38-.59-1.38-.6-1.36-.59-1.37-.6-1.36-.6-1.36-.6-1.35-.61-1.36-.6-1.34-.61-1.34-.61-1.34-.61-1.34-.61-1.33-.62-1.33-.61-1.32-.62-1.32-.62-1.32-.62-1.31-.62-1.3-.63-1.31-.63-1.3-.62-1.3-.63-1.29-.64-1.29-.63-1.28-.64-1.28-.63-1.28-.64-1.27-.64-1.27-.64-1.27-.65-1.26-.64-1.26-.65-1.25-.65-1.25-.65-1.25-.66-1.24-.65-1.24-.66-1.23-.66-1.24-.66-1.22-.66-1.23-.66-1.22-.67m139.41 57.32-.83-.58-.82-.59-.82-.58-.81-.58-.8-.59-.79-.59-.79-.59-.79-.59-.77-.59-.77-.59-.77-.59-.76-.59-.75-.6-.74-.59-.74-.6-.74-.59-.72-.6-.72-.6-.72-.6-.71-.6-.7-.6-.69-.61-.69-.6-.68-.61-.68-.6-.67-.61-.67-.61-.65-.6-.65-.61-.65-.62-.64-.61-.63-.61-.63-.61-.62-.62-.61-.61-.61-.62-.6-.62-.59-.62-.59-.62-.58-.62-.58-.62-.57-.62-.56-.62-.56-.63-.55-.62-.54-.63-.54-.63-.53-.62-.53-.63-.52-.63-.51-.63-.51-.64-.5-.63-.49-.63-.49-.64-.48-.64-.48-.63-.47-.64-.46-.64-.46-.64-.45-.64-.44-.64-.44-.64-.43-.65-.42-.64-.42-.65-.41-.65-.41-.64-.4-.65-.39-.65-.39-.65-.38-.65-.38-.66-.37-.65-.36-.66-.35-.65-.35-.66-.35-.65-.33-.66-.33-.66-.33-.66-.32-.66-.31-.67-.3-.66-.3-.66-.3-.67-.28-.67-.28-.66-.28-.67-.26-.67-.27-.67-.25-.67-.25-.67-.24-.68-.24-.67-.23-.68-.22-.67-.22-.68-.21-.68" style="stroke-width:1.07;stroke:#000000;stroke-opacity:0.10;stroke-linecap:butt"/><path d="m360.66 454.47-1.7-.45-1.68-.45-1.68-.46-1.67-.45-1.67-.46-1.66-.47-1.66-.46-1.65-.47-1.65-.47-1.64-.47-1.63-.48-1.63-.48-1.62-.48-1.61-.48-1.61-.49-1.61-.49-1.6-.49-1.59-.49-1.59-.5-1.58-.5-1.57-.5-1.57-.51-1.57-.5-1.56-.51-1.55-.52-1.55-.51-1.54-.52-1.53-.52-1.53-.52-1.52-.53-1.52-.53-1.51-.53-1.51-.53-1.5-.54-1.5-.54-1.49-.54-1.48-.55-1.48-.54-1.47-.55-1.46-.56-1.46-.55-1.46-.56-1.45-.56-1.44-.56-1.44-.57-1.43-.57-1.42-.57-1.42-.57-1.42-.58-1.4-.58-1.41-.58-1.39-.58-1.39-.59-1.39-.59-1.38-.59-1.37-.6-1.37-.59-1.36-.6-1.36-.61-1.35-.6-1.34-.61-1.34-.61-1.33-.61-1.33-.62-1.32-.62-1.32-.62-1.31-.62-1.3-.63-1.3-.63-1.29-.63-1.29-.64-1.28-.63-1.28-.64-1.27-.65-1.26-.64-1.26-.65-1.25-.65-1.25-.65-1.24-.66-1.23-.66-1.23-.66-1.22-.66-1.22-.67-1.21-.67-1.21-.67-1.2-.67-1.19-.68-1.19-.68-1.18-.68-1.18-.69-1.17-.68-1.17-.69-1.16-.7-1.15-.69-1.15-.7-1.14-.7-1.14-.7-1.13-.71-1.13-.71m139.41 57.32 1.63.27 1.64.27 1.63.26 1.64.27 1.64.27 1.63.27 1.64.26 1.64.27 1.63.27 1.64.27 1.64.26 1.63.27 1.64.27 1.63.27 1.64.26 1.64.27 1.63.27 1.64.26 1.64.27 1.63.27 1.64.27 1.63.26 1.64.27 1.64.27 1.63.27 1.64.26 1.64.27 1.63.27 1.64.27 1.63.26 1.64.27 1.64.27 1.63.27 1.64.26 1.64.27 1.63.27 1.64.27 1.63.26 1.64.27 1.64.27 1.63.27 1.64.26 1.64.27 1.63.27 1.64.27 1.63.26 1.64.27 1.64.27 1.63.27 1.64.26 1.64.27 1.63.27 1.64.27 1.63.26 1.64.27 1.64.27 1.63.27 1.64.26 1.64.27 1.63.27 1.64.27 1.64.26 1.63.27 1.64.27 1.63.27 1.64.26 1.64.27 1.63.27 1.64.27 1.64.26 1.63.27 1.64.27 1.63.27 1.64.26 1.64.27 1.63.27 1.64.26 1.64.27 1.63.27 1.64.27 1.63.26 1.64.27 1.64.27 1.63.27 1.64.26 1.64.27 1.63.27 1.64.27 1.63.26 1.64.27 1.64.27 1.63.27 1.64.26 1.64.27 1.63.27 1.64.27 1.63.26 1.64.27 1.64.27" style="stroke-width:1.07;stroke:#000000;stroke-opacity:0.10;stroke-linecap:butt"/><path d="m360.66 454.47-1.79-.41-1.78-.41-1.77-.41-1.76-.42-1.75-.42-1.75-.42-1.74-.43-1.73-.43-1.73-.43-1.71-.44-1.71-.44-1.7-.45-1.69-.44-1.69-.46-1.68-.45-1.67-.46-1.66-.46-1.65-.47-1.65-.47-1.64-.47-1.63-.48-1.62-.48-1.62-.48-1.61-.49-1.6-.49-1.59-.5-1.59-.49-1.58-.5-1.57-.51-1.56-.51-1.55-.51-1.55-.52-1.54-.51-1.53-.53-1.52-.52-1.52-.53-1.51-.54-1.5-.53-1.49-.54-1.49-.55-1.47-.54-1.47-.55-1.46-.56-1.46-.56-1.45-.56-1.43-.56-1.44-.57-1.42-.57-1.41-.58-1.41-.58-1.4-.58-1.4-.59-1.38-.59-1.38-.59-1.37-.59-1.36-.61-1.35-.6-1.35-.61-1.34-.61-1.33-.61-1.32-.62-1.32-.62-1.31-.62-1.3-.63-1.29-.63-1.28-.64-1.28-.64-1.27-.64-1.26-.65-1.26-.65-1.24-.65-1.24-.66-1.23-.66-1.23-.66-1.21-.67-1.21-.67-1.2-.67-1.19-.68-1.19-.68-1.17-.69-1.17-.68-1.17-.7-1.15-.69-1.15-.7-1.13-.7-1.14-.71-1.12-.71-1.11-.71-1.11-.72-1.1-.72-1.09-.72-1.09-.73-1.08-.73-1.07-.73-1.06-.74-1.05-.74-1.05-.75-1.04-.75-1.03-.75m116.51-215.87-.91.64-.92.64-.92.64-.92.64-.92.64-.93.63-.92.64-.93.64-.93.63-.94.64-.93.64-.94.63-.94.63-.94.64-.94.63-.95.63-.95.63-.95.63-.95.63-.95.63-.96.63-.95.63-.96.62-.96.63-.97.63-.96.62-.97.63-.97.62-.97.63-.98.62-.97.62-.98.62-.98.62-.98.62-.99.62-.98.62-.99.62-.99.62-.99.62-1 .61-.99.62-1 .61-1 .62-1 .61-1.01.61-1 .62-1.01.61-1.01.61-1.02.61-1.01.61-1.02.61-1.01.61-1.02.61-1.03.61-1.02.6-1.03.61-1.03.6-1.03.61-1.03.6-1.04.61-1.03.6-1.04.6-1.04.61-1.04.6-1.05.6-1.05.6-1.04.6-1.06.6-1.05.59-1.05.6-1.06.6-1.06.59-1.06.6-1.06.59-1.07.6-1.07.59-1.07.6-1.07.59-1.07.59-1.07.59-1.08.59-1.08.59-1.08.59-1.09.59-1.08.59-1.09.58-1.09.59-1.09.59-1.09.58-1.1.59-1.1.58-1.1.58-1.1.59-1.1.58-1.11.58-1.1.58-1.11.58-1.12.58-1.11.58m100.42-60.4-2.01-.35-2.02-.34-2.01-.35-2.01-.34-2.01-.35-2.01-.35-2.01-.35-2.01-.35-2-.35-2.01-.36-2-.35-2-.36-2-.36-2-.35-1.99-.36-2-.37-2-.36-1.99-.36-1.99-.37-1.99-.36-1.99-.37-1.99-.37-1.98-.37-1.99-.37-1.98-.37-1.99-.38-1.98-.37-1.98-.38-1.98-.37-1.97-.38-1.98-.38-1.97-.38-1.98-.38-1.97-.39-1.97-.38-1.97-.39-1.97-.38-1.96-.39-1.97-.39-1.96-.39-1.96-.39-1.96-.4-1.96-.39-1.96-.39-1.96-.4-1.96-.4-1.95-.4-1.95-.4-1.95-.4-1.95-.4-1.95-.41-1.95-.4-1.95-.41-1.94-.41-1.95-.4-1.94-.41-1.94-.42-1.94-.41-1.94-.41-1.93-.42-1.94-.41-1.93-.42-1.94-.42-1.93-.42-1.93-.42-1.93-.42-1.93-.43-1.92-.42-1.93-.43-1.92-.42-1.92-.43-1.92-.43-1.92-.43-1.92-.43-1.92-.44-1.91-.43-1.92-.44-1.91-.43-1.91-.44-1.91-.44-1.91-.44-1.91-.44-1.91-.45-1.9-.44-1.9-.45-1.91-.44-1.9-.45-1.9-.45-1.89-.45-1.9-.45-1.9-.46-1.89-.45-1.89-.45-1.9-.46-1.89-.46-1.88-.46-1.89-.46-1.89-.46-1.88-.46" style="stroke-width:1.07;stroke:#000000;stroke-opacity:0.10;stroke-linecap:butt"/><path d="m221.25 397.15.95.13.94.12.94.12.94.12.94.11.94.1.93.11.94.1.93.1.94.09.93.09.93.09.93.08.93.08.92.07.93.08.93.06.92.07.92.06.93.06.92.05.92.05.91.05.92.04.92.04.91.03.92.04.91.02.91.03.91.02.91.02.91.01.91.01.91.01h2.71l.9-.01.9-.01.9-.02.9-.02.9-.02.9-.02.89-.03.9-.04.89-.03.89-.04.89-.05.89-.05.89-.05.89-.05.89-.06.88-.06.89-.07.88-.07.88-.07.88-.08.88-.08.88-.08.88-.09.88-.09.87-.09.88-.1.87-.1.87-.11.87-.11.87-.11.87-.12.87-.12.87-.12.86-.13.87-.13.86-.13.86-.14.86-.14.86-.15.86-.15.86-.15.86-.16.85-.16.86-.16.85-.17.85-.17.85-.17.85-.18.85-.18.85-.18.85-.19.84-.2.85-.19.84-.2.84-.2.84-.21.84-.21.84-.22.84-.21.84-.22.83-.23.84-.23" style="stroke-width:1.07;stroke:#000000;stroke-opacity:0.10;stroke-linecap:butt"/><path d="m221.25 397.15.94.1.93.1.94.09.93.09.93.09.93.08.93.08.93.08.92.07.93.07.92.07.93.07.92.06.93.06.92.05.92.06.92.05.92.04.91.05.92.04.92.03.91.04.92.03.91.03.91.02.91.03.91.02.91.01.91.01.91.01.91.01.9.01h.91l.9-.01h.9l.9-.01.91-.01.9-.02.89-.01.9-.02.9-.03.9-.02.89-.03.9-.04.89-.03.89-.04.89-.04.89-.05.89-.05.89-.05.89-.05.89-.06.88-.06.89-.06.88-.07.89-.07.88-.07.88-.08.88-.08.88-.08.88-.08.88-.09.87-.09.88-.1.87-.09.88-.1.87-.11.87-.1.87-.11.87-.12.87-.11.87-.12.87-.12.86-.13.87-.12.86-.13.87-.14.86-.14.86-.14.86-.14.86-.14.86-.15.86-.16.86-.15.85-.16.86-.16.85-.17.85-.16.86-.17.85-.18.85-.17.85-.18.85-.19.84-.18.85-.19.85-.19.84-.2.84-.2.85-.2" style="stroke-width:1.07;stroke:#000000;stroke-opacity:0.10;stroke-linecap:butt"/><path d="m221.25 397.15.93.07.93.07.92.07.93.06.92.07.92.05.92.06.92.05.92.06.92.05.92.04.92.05.92.04.91.04.92.03.91.04.92.03.91.03.91.02.92.03.91.02.91.02.91.01.91.02.9.01.91.01h.91l.9.01h1.81l.91-.01h.9l.9-.01.9-.01.9-.01.9-.02.9-.02.9-.02.9-.02.89-.03.9-.03.89-.03.9-.03.89-.04.89-.04.89-.04.9-.04.89-.05.89-.05.88-.05.89-.05.89-.06.89-.06.88-.06.89-.06.88-.07.88-.07.89-.07.88-.07.88-.08.88-.08.88-.08.88-.08.88-.09.87-.09.88-.09.88-.09.87-.1.88-.1.87-.1.87-.1.87-.11.88-.11.87-.11.87-.11.86-.12.87-.12.87-.12.87-.12.86-.13.87-.13.86-.13.87-.14.86-.13.86-.14.86-.14.86-.15.86-.14.86-.15.86-.15.86-.16.85-.15.86-.16.85-.16.86-.17.85-.16.85-.17.86-.17.85-.18" style="stroke-width:1.07;stroke:#000000;stroke-opacity:0.10;stroke-linecap:butt"/><path d="m221.25 397.15.92.05.92.04.92.04.91.04.92.03.91.04.92.03.91.03.92.03.91.03.91.02.91.03.91.02.91.01.91.02.91.02.91.01.91.01.9.01.91.01h.91l.9.01h1.81l.91-.01h.9l.9-.01h.9l.91-.02.9-.01.9-.01.9-.02.89-.02.9-.02.9-.02.9-.02.89-.03.9-.03.9-.03.89-.03.89-.03.9-.04.89-.03.89-.04.9-.05.89-.04.89-.04.89-.05.89-.05.89-.05.88-.05.89-.06.89-.06.89-.06.88-.06.89-.06.88-.06.88-.07.89-.07.88-.07.88-.07.89-.08.88-.07.88-.08.88-.08.88-.09.87-.08.88-.09.88-.09.88-.09.87-.09.88-.09.87-.1.88-.1.87-.1.88-.1.87-.1.87-.11.87-.1.87-.11.87-.12.87-.11.87-.11.87-.12.87-.12.87-.12.86-.13.87-.12.86-.13.87-.13.86-.13.87-.13.86-.14.86-.13.87-.14.86-.14.86-.15.86-.14.86-.15" style="stroke-width:1.07;stroke:#000000;stroke-opacity:0.10;stroke-linecap:butt"/><path d="m221.25 397.15.91.02.91.02.91.01.91.01.91.01.91.01.9.01.91.01.91.01h6.33l.9-.01h.9l.91-.01.9-.01.9-.01.9-.02.9-.01.9-.01.9-.02.9-.02.9-.02.89-.02.9-.02.9-.02.9-.03.89-.02.9-.03.89-.03.9-.03.89-.03.9-.04.89-.03.9-.04.89-.03.89-.04.89-.04.9-.04.89-.05.89-.04.89-.05.89-.04.89-.05.89-.05.89-.05.89-.06.88-.05.89-.06.89-.05.88-.06.89-.06.89-.06.88-.06.89-.07.88-.06.89-.07.88-.07.88-.07.89-.07.88-.07.88-.07.88-.08.88-.07.88-.08.88-.08.88-.08.88-.08.88-.09.88-.08.88-.09.88-.08.87-.09.88-.09.88-.09.87-.1.88-.09.87-.1.88-.09.87-.1.88-.1.87-.1.87-.11.88-.1.87-.11.87-.1.87-.11.87-.11.87-.11.87-.11.87-.12.87-.11.87-.12.87-.12.87-.12" style="stroke-width:1.07;stroke:#000000;stroke-opacity:0.10;stroke-linecap:butt"/><path d="m221.25 397.15.91-.01.9-.01.9-.01.9-.01.9-.02.9-.01.9-.02.9-.01.9-.02.9-.02.89-.02.9-.02.9-.02.9-.02.9-.02.9-.02.89-.03.9-.02.9-.03.89-.02.9-.03.89-.03.9-.03.9-.02.89-.04.9-.03.89-.03.9-.03.89-.04.89-.03.9-.03.89-.04.89-.04.9-.04.89-.03.89-.04.89-.04.9-.05.89-.04.89-.04.89-.04.89-.05.89-.04.89-.05.89-.05.89-.05.89-.04.89-.05.89-.05.89-.06.89-.05.89-.05.88-.05.89-.06.89-.05.89-.06.88-.06.89-.06.89-.05.88-.06.89-.06.88-.07.89-.06.89-.06.88-.06.88-.07.89-.06.88-.07.89-.07.88-.07.88-.06.89-.07.88-.07.88-.08.89-.07.88-.07.88-.07.88-.08.88-.07.88-.08.89-.08.88-.08.88-.07.88-.08.88-.08.88-.09.88-.08.87-.08.88-.08.88-.09.88-.08.88-.09.88-.09.87-.09.88-.08.88-.09.88-.09.87-.1.88-.09" style="stroke-width:1.07;stroke:#000000;stroke-opacity:0.10;stroke-linecap:butt"/><path d="m221.25 397.15.9-.03.89-.04.89-.04.9-.04.89-.04.89-.04.89-.04.9-.04.89-.04.89-.04.89-.04.89-.04.9-.04.89-.04.89-.04.89-.04.89-.04.9-.05.89-.04.89-.04.89-.04.89-.05.89-.04.89-.05.89-.04.89-.04.9-.05.89-.04.89-.05.89-.05.89-.04.89-.05.89-.04.89-.05.89-.05.89-.05.89-.04.89-.05.89-.05.89-.05.89-.05.89-.05.89-.04.89-.05.88-.05.89-.05.89-.05.89-.05.89-.06.89-.05.89-.05.89-.05.89-.05.88-.05.89-.06.89-.05.89-.05.89-.06.89-.05.88-.05.89-.06.89-.05.89-.06.88-.05.89-.06.89-.05.89-.06.88-.06.89-.05.89-.06.89-.06.88-.05.89-.06.89-.06.88-.06.89-.06.89-.06.88-.05.89-.06.88-.06.89-.06.89-.06.88-.06.89-.06.88-.07.89-.06.89-.06.88-.06.89-.06.88-.06.89-.07.88-.06.89-.06.88-.07.89-.06.88-.06.89-.07.88-.06.89-.07m-88 5.07.89-.06.88-.07.89-.06.88-.06.89-.07.88-.06.89-.07.88-.06.89-.06.88-.06.89-.07.89-.06.88-.06.89-.06.88-.06.89-.06.88-.06.89-.06.89-.06.88-.06.89-.06.89-.06.88-.06.89-.06.89-.06.88-.05.89-.06.89-.06.88-.05.89-.06.89-.06.89-.05.88-.06.89-.06.89-.05.89-.06.88-.05.89-.06.89-.05.89-.05.88-.06.89-.05.89-.05.89-.06.89-.05.89-.05.88-.05.89-.06.89-.05.89-.05.89-.05.89-.05.89-.05.89-.05.89-.05.89-.05.89-.05.88-.05.89-.05.89-.05.89-.04.89-.05.89-.05.89-.05.89-.04.89-.05.89-.05.89-.04.89-.05.9-.04.89-.05.89-.05.89-.04.89-.04.89-.05.89-.04.89-.05.89-.04.89-.04.9-.05.89-.04.89-.04.89-.04.89-.04.89-.05.9-.04.89-.04.89-.04.89-.04.89-.04.9-.04.89-.04.89-.04.89-.04.9-.04.89-.03.89-.04.89-.04.9-.04" style="stroke-width:1.07;stroke:#000000;stroke-opacity:0.10;stroke-linecap:butt"/><path d="m221.25 397.15.88-.09.88-.09.87-.09.88-.09.88-.09.88-.09.87-.08.88-.09.88-.09.88-.08.88-.08.88-.09.88-.08.88-.08.88-.08.88-.08.88-.08.88-.08.88-.07.88-.08.88-.08.88-.07.88-.07.89-.08.88-.07.88-.07.88-.07.89-.07.88-.07.88-.07.89-.06.88-.07.89-.07.88-.06.89-.06.88-.07.89-.06.88-.06.89-.06.89-.06.88-.06.89-.06.89-.05.88-.06.89-.06.89-.05.89-.05.89-.06.88-.05.89-.05.89-.05.89-.05.89-.05.89-.05.89-.04.89-.05.89-.05.89-.04.89-.04.89-.05.9-.04.89-.04.89-.04.89-.04.9-.04.89-.04.89-.03.9-.04.89-.04.89-.03.9-.03.89-.04.9-.03.89-.03.9-.03.89-.03.9-.03.89-.03.9-.02.9-.03.89-.02.9-.03.9-.02.89-.03.9-.02.9-.02.9-.02.9-.02.9-.02.89-.01.9-.02.9-.02.9-.01.9-.02.9-.01.9-.01.91-.02.9-.01.9-.01" style="stroke-width:1.07;stroke:#000000;stroke-opacity:0.10;stroke-linecap:butt"/><path d="m221.25 397.15.87-.12.87-.11.87-.12.87-.12.87-.11.87-.11.87-.11.87-.11.87-.11.87-.11.88-.1.87-.11.87-.1.87-.1.88-.1.87-.1.88-.1.87-.09.88-.1.87-.09.88-.09.88-.09.88-.09.87-.09.88-.08.88-.09.88-.08.88-.08.88-.08.88-.08.88-.08.88-.08.88-.07.88-.08.89-.07.88-.07.88-.07.89-.07.88-.06.88-.07.89-.06.89-.06.88-.06.89-.06.88-.06.89-.06.89-.05.89-.06.89-.05.88-.05.89-.05.89-.05.89-.05.89-.04.89-.05.9-.04.89-.04.89-.04.89-.04.9-.04.89-.03.89-.04.9-.03.89-.03.9-.03.89-.03.9-.03.9-.03.89-.02.9-.02.9-.03.9-.02.89-.02.9-.01.9-.02.9-.02.9-.01.9-.01.91-.01.9-.01.9-.01.9-.01h.9l.91-.01h3.61l.91.01h.91l.9.01h.91l.91.01.9.01.91.01.91.02.91.01.91.02.91.01" style="stroke-width:1.07;stroke:#000000;stroke-opacity:0.10;stroke-linecap:butt"/><path d="m221.25 397.15.86-.14.86-.15.86-.14.87-.14.86-.14.86-.14.86-.13.87-.14.86-.13.87-.13.86-.12.87-.13.87-.12.86-.12.87-.12.87-.12.87-.12.87-.11.87-.11.87-.11.87-.11.87-.1.88-.11.87-.1.87-.1.88-.1.87-.09.88-.1.88-.09.87-.09.88-.09.88-.08.88-.09.88-.08.88-.08.88-.08.88-.08.88-.07.88-.07.88-.07.89-.07.88-.07.89-.06.88-.07.89-.06.88-.06.89-.05.89-.06.89-.05.89-.05.88-.05.89-.05.9-.05.89-.04.89-.04.89-.04.89-.04.9-.03.89-.04.9-.03.89-.03.9-.03.89-.02.9-.03.9-.02.9-.02.9-.02.9-.01.9-.02.9-.01.9-.01.9-.01h.9l.91-.01h3.61l.91.01h.91l.9.01.91.02.91.01.91.01.91.02.91.02.91.02.91.02.91.03.92.02.91.03.91.03.92.04.91.03.92.04.92.04.91.04.92.04.92.04" style="stroke-width:1.07;stroke:#000000;stroke-opacity:0.10;stroke-linecap:butt"/><path d="m221.25 397.15.86-.17.85-.17.85-.17.85-.17.86-.16.85-.16.86-.16.86-.16.85-.15.86-.15.86-.15.86-.15.86-.14.86-.14.86-.14.87-.14.86-.13.86-.13.87-.13.87-.13.86-.12.87-.13.87-.11.87-.12.87-.11.87-.12.87-.1.87-.11.87-.1.88-.11.87-.09.88-.1.87-.09.88-.1.87-.08.88-.09.88-.08.88-.09.88-.07.88-.08.88-.08.89-.07.88-.07.89-.06.88-.06.89-.07.88-.05.89-.06.89-.05.89-.06.89-.04.89-.05.89-.04.89-.05.89-.03.9-.04.89-.03.89-.04.9-.02.9-.03.89-.02.9-.03.9-.01.9-.02.9-.01.9-.01.9-.01.91-.01h3.61l.91.01.91.01.91.01.91.01.9.02.91.02.92.02.91.02.91.03.91.03.92.03.91.03.92.04.91.04.92.04.92.04.92.05.92.05.92.05.92.05.92.06.92.06.93.06.92.07.93.06.92.07.93.07" style="stroke-width:1.07;stroke:#000000;stroke-opacity:0.10;stroke-linecap:butt"/><path d="m221.25 397.15.85-.2.84-.2.85-.19.84-.19.85-.19.85-.19.84-.18.85-.18.85-.18.86-.17.85-.17.85-.17.86-.16.85-.17.86-.15.85-.16.86-.15.86-.15.86-.15.86-.14.86-.14.86-.14.87-.13.86-.13.87-.13.86-.12.87-.13.87-.11.87-.12.87-.11.87-.11.87-.11.88-.1.87-.1.87-.1.88-.09.88-.09.87-.09.88-.09.88-.08.88-.08.88-.07.89-.08.88-.06.88-.07.89-.06.88-.07.89-.05.89-.06.89-.05.89-.05.89-.04.89-.04.89-.04.9-.04.89-.03.9-.03.89-.03.9-.02.9-.02.9-.02.9-.01.9-.02h.9l.9-.01h2.72l.9.01.91.01.91.01.91.02.91.02.91.02.91.03.92.02.91.04.92.03.91.04.92.04.92.04.91.05.92.05.93.05.92.06.92.06.92.06.93.06.92.07.93.07.93.08.92.08.93.08.93.08.93.09.94.09.93.09.93.09.94.1" style="stroke-width:1.07;stroke:#000000;stroke-opacity:0.10;stroke-linecap:butt"/><path d="m221.25 397.15.84-.23.83-.22.84-.22.84-.22.84-.21.84-.21.84-.21.84-.2.85-.2.84-.2.85-.19.84-.19.85-.19.85-.18.85-.17.85-.18.85-.17.86-.17.85-.16.86-.16.85-.16.86-.15.86-.15.86-.14.86-.14.86-.14.87-.14.86-.13.87-.12.86-.13.87-.12.87-.11.87-.12.87-.11.87-.1.88-.1.87-.1.88-.1.87-.09.88-.08.88-.09.88-.08.88-.08.88-.07.89-.07.88-.06.89-.07.88-.05.89-.06.89-.05.89-.05.89-.04.89-.04.9-.04.89-.03.9-.03.89-.03.9-.02.9-.02.9-.01.9-.01.9-.01.9-.01h.91l.9.01h.91l.91.01.91.02.91.01.91.03.91.02.91.03.92.03.91.04.92.04.92.04.92.04.92.05.92.06.92.06.92.06.93.06.92.07.93.07.93.08.92.08.93.08.93.08.94.09.93.1.93.1.94.1.94.1.93.11.94.11.94.11.94.12.94.13.95.12" style="stroke-width:1.07;stroke:#000000;stroke-opacity:0.10;stroke-linecap:butt"/><path d="m360.66 447.9 5.68 9.85h-11.37zM239.53 176.77l3.8 6.58h-7.6zm152.5 84.34 4.23 7.32h-8.45zm-54.27-84.22 3.81 6.58h-7.61zm94.04 45.7 3.24 5.63h-6.49zm-140.1-75.48 4.22 7.32h-8.45zM53.35 186.08l3.8 6.58h-7.6zm200.17 131.76 4.22 7.32h-8.45zM61.85 222.47l3.25 5.62h-6.5zm72.77-26.66 4.9 8.48h-9.8zm-49.69 83.17 3.25 5.63h-6.49zm43.04 157.66 1.91 3.31h-3.83z" style="stroke-width:0.71;stroke:none;fill:#00BA38"/><path d="M216.26 402.15h9.99v-9.99h-9.99z" style="stroke-width:0.71;stroke:none;fill:#619CFF"/><circle cx="309.25" cy="392.08" r="4.55" style="stroke-width:0.71;stroke:none;fill:#F8766D"/><circle cx="237.34" cy="241.68" r="6.76" style="stroke-width:0.71;stroke:none;fill:#F8766D"/><path d="M138.83 147.26h11.7v-11.7h-11.7z" style="stroke-width:0.71;stroke:none;fill:#619CFF"/><circle cx="320.49" cy="526.84" r="1.42" style="stroke-width:0.71;stroke:none;fill:#F8766D"/><circle cx="522.65" cy="480.95" r="1.42" style="stroke-width:0.71;stroke:none;fill:#F8766D"/><path d="m355.28 459.11 4.57-3.94M244.93 176.49l-4.59 3.97m146.5 90.21 4.4-3.97m-58.83-80.8 4.55-3.93m100.18 39.76-4.54 3.92m-135.5-78.33-4.59 3.97M58.2 186.88l-3.99 2.95m194.17 137.52 4.34-3.92M67.28 230.91l-4.62-3.99m77.39-20.76-4.62-4m-45.17 75.98-4.52 3.9m37.07 161.46 4.36-3.94m99.61-47.09-4.71 3.99m86.59.31.45-3.63m-77.16-146.8 4.58-3.96m-97.26-96.3 4.6-3.97m182.12 380.07-4.69 3.97m196.45-44.23 3.85-.76" style="stroke-width:0.53;stroke:#BFBFBF"/><path d="M308.75 478.42h68.95-.09l.35-.02.34-.06.32-.13.3-.17.27-.22.23-.26.19-.3.13-.32.09-.33.03-.35h0v-14.99h0l-.03-.35-.09-.33-.13-.32-.19-.3-.23-.26-.27-.22-.3-.17-.32-.13-.34-.06-.26-.02h-68.95l.26.02-.34-.02-.35.04-.33.1-.32.15-.28.2-.25.24-.21.27-.16.31-.11.33-.06.35-.01.17v14.99l.01-.17v.34l.06.35.11.33.16.31.21.27.25.24.28.2.32.15.33.1.35.04z" style="stroke-width:0.53;fill:#FFFFFF;fill-opacity:0.50"/><text x="343.22" y="466.63" lengthAdjust="spacingAndGlyphs" style="font-size:5.69px;font-family:&quot;Liberation Sans&quot;" text-anchor="middle" textLength="66.06">PLUS EV INVESTMENTS</text><text x="343.22" y="474.82" lengthAdjust="spacingAndGlyphs" style="font-size:5.69px;font-family:&quot;Liberation Sans&quot;" text-anchor="middle" textLength="10.42">LLC</text><path d="M228.07 176.49h57.74-.09l.35-.02.34-.07.32-.12.3-.17.27-.22.23-.26.19-.3.13-.32.09-.33.03-.35h0v-14.99h0l-.03-.35-.09-.34-.13-.32-.19-.29-.23-.26-.27-.22-.3-.17-.32-.13-.34-.07-.26-.01h-57.74l.26.01-.35-.01-.35.04-.33.1-.31.15-.29.19-.25.25-.21.27-.16.31-.11.33-.06.34v15.17-.17.34l.06.35.11.33.16.3.21.28.25.24.29.2.31.15.33.1.35.04z" style="stroke-width:0.53;fill:#FFFFFF;fill-opacity:0.50"/><text x="256.94" y="164.69" lengthAdjust="spacingAndGlyphs" style="font-size:5.69px;font-family:&quot;Liberation Sans&quot;" text-anchor="middle" textLength="54.86">LFG REAL ESTATE 1</text><text x="256.94" y="172.89" lengthAdjust="spacingAndGlyphs" style="font-size:5.69px;font-family:&quot;Liberation Sans&quot;" text-anchor="middle" textLength="10.42">LLC</text><path d="M354.96 281.79h49.1-.08l.34-.02.34-.07.33-.12.3-.17.27-.22.23-.26.19-.3.13-.32.09-.34.02-.34h0v-6.8h0l-.02-.35-.09-.33-.13-.32-.19-.3-.23-.26-.27-.22-.3-.17-.33-.12-.34-.07-.26-.02h-49.1l.27.02-.35-.02-.35.04-.33.1-.32.15-.28.2-.25.24-.21.28-.16.3-.11.33-.06.35-.01.17v6.8l.01-.18v.35l.06.34.11.33.16.31.21.28.25.24.28.2.32.15.33.09.35.05z" style="stroke-width:0.53;fill:#FFFFFF;fill-opacity:0.50"/><text x="379.51" y="278.19" lengthAdjust="spacingAndGlyphs" style="font-size:5.69px;font-family:&quot;Liberation Sans&quot;" text-anchor="middle" textLength="46.22">MICHAEL GOETZ</text><path d="M291.48 205.21h57.74-.09l.35-.02.34-.06.33-.13.3-.17.27-.22.23-.26.18-.3.14-.32.08-.33.03-.35h0v-14.99h0l-.03-.35-.08-.33-.14-.32-.18-.3-.23-.26-.27-.22-.3-.17-.33-.13-.34-.06-.26-.02h-57.74l.26.02-.35-.02-.34.04-.34.1-.31.15-.29.2-.25.24-.2.28-.17.3-.11.33-.05.35-.01.17v14.99l.01-.17v.34l.05.35.11.33.17.31.2.27.25.24.29.2.31.15.34.1.34.04z" style="stroke-width:0.53;fill:#FFFFFF;fill-opacity:0.50"/><text x="320.35" y="193.42" lengthAdjust="spacingAndGlyphs" style="font-size:5.69px;font-family:&quot;Liberation Sans&quot;" text-anchor="middle" textLength="54.86">LFG REAL ESTATE 3</text><text x="320.35" y="201.61" lengthAdjust="spacingAndGlyphs" style="font-size:5.69px;font-family:&quot;Liberation Sans&quot;" text-anchor="middle" textLength="10.42">LLC</text><path d="M422.42 221.73h53.44-.08l.35-.02.34-.07.32-.12.3-.17.27-.22.23-.26.19-.3.13-.32.09-.33.02-.35h0v-14.99h0l-.02-.35-.09-.34-.13-.32-.19-.29-.23-.26-.27-.22-.3-.17-.32-.13-.34-.07-.27-.01h-53.44l.26.01-.34-.01-.35.04-.33.1-.32.15-.28.2-.25.24-.21.27-.16.31-.11.33-.06.34-.01.18v14.99l.01-.17v.34l.06.35.11.33.16.3.21.28.25.24.28.2.32.15.33.1.35.04z" style="stroke-width:0.53;fill:#FFFFFF;fill-opacity:0.50"/><text x="449.14" y="209.94" lengthAdjust="spacingAndGlyphs" style="font-size:5.69px;font-family:&quot;Liberation Sans&quot;" text-anchor="middle" textLength="47.8">MICHAEL GOETZ,</text><text x="449.14" y="218.13" lengthAdjust="spacingAndGlyphs" style="font-size:5.69px;font-family:&quot;Liberation Sans&quot;" text-anchor="middle" textLength="50.56">NICHOLAS M HEIN</text><path d="M280.24 147.32h57.74-.09l.35-.01.34-.07.32-.12.3-.18.27-.22.23-.26.19-.29.13-.32.09-.34.03-.35h0v-14.99h0l-.03-.34-.09-.34-.13-.32-.19-.29-.23-.26-.27-.22-.3-.18-.32-.12-.34-.07-.26-.02h-57.74l.26.02-.35-.02-.35.05-.33.09-.31.15-.29.2-.25.24-.21.28-.16.31-.11.33-.06.34v15.16-.17.35l.06.34.11.33.16.31.21.28.25.24.29.19.31.15.33.1.35.04z" style="stroke-width:0.53;fill:#FFFFFF;fill-opacity:0.50"/><text x="309.11" y="135.53" lengthAdjust="spacingAndGlyphs" style="font-size:5.69px;font-family:&quot;Liberation Sans&quot;" text-anchor="middle" textLength="54.86">LFG REAL ESTATE 4</text><text x="309.11" y="143.72" lengthAdjust="spacingAndGlyphs" style="font-size:5.69px;font-family:&quot;Liberation Sans&quot;" text-anchor="middle" textLength="10.42">LLC</text><path d="M60.36 191.92h57.74-.08l.34-.02.34-.07.33-.12.3-.17.27-.22.23-.26.19-.3.13-.32.08-.34.03-.34h0v-14.99h0l-.03-.35-.08-.34-.13-.32-.19-.29-.23-.26-.27-.22-.3-.17-.33-.13-.34-.07-.26-.01H60.36l.26.01-.34-.01-.35.04-.33.1-.32.15-.28.19-.25.24-.21.28-.16.31-.11.33-.06.34-.01.18v14.99l.01-.18v.35l.06.35.11.33.16.3.21.28.25.24.28.2.32.15.33.09.35.05z" style="stroke-width:0.53;fill:#FFFFFF;fill-opacity:0.50"/><text x="89.23" y="180.12" lengthAdjust="spacingAndGlyphs" style="font-size:5.69px;font-family:&quot;Liberation Sans&quot;" text-anchor="middle" textLength="54.86">LFG REAL ESTATE 5</text><text x="89.23" y="188.32" lengthAdjust="spacingAndGlyphs" style="font-size:5.69px;font-family:&quot;Liberation Sans&quot;" text-anchor="middle" textLength="10.42">LLC</text><path d="M206.9 338.47h68.3-.09l.35-.02.34-.07.32-.12.31-.17.26-.22.24-.26.18-.3.14-.32.08-.34.03-.34h0v-6.8h0l-.03-.35-.08-.33-.14-.32-.18-.3-.24-.26-.26-.22-.31-.17-.32-.12-.34-.07-.26-.02h-68.3l.26.02-.35-.02-.35.04-.33.1-.31.15-.29.2-.25.24-.21.28-.16.3-.11.33-.06.35v6.97-.18.35l.06.34.11.33.16.31.21.28.25.24.29.2.31.15.33.09.35.05z" style="stroke-width:0.53;fill:#FFFFFF;fill-opacity:0.50"/><text x="241.05" y="334.87" lengthAdjust="spacingAndGlyphs" style="font-size:5.69px;font-family:&quot;Liberation Sans&quot;" text-anchor="middle" textLength="65.42">YSK INVESTMENTS LLC</text><path d="M50.43 250.22h57.74-.09l.35-.01.34-.07.32-.12.3-.18.27-.22.23-.26.19-.29.13-.32.09-.34.03-.35h0v-14.99h0l-.03-.34-.09-.34-.13-.32-.19-.29-.23-.26-.27-.22-.3-.18-.32-.12-.34-.07-.26-.02H50.43l.26.02-.35-.02-.35.05-.33.09-.31.15-.29.2-.25.24-.21.28-.16.31-.11.33-.06.34v15.16-.17.35l.06.34.11.33.16.31.21.28.25.24.29.19.31.15.33.1.35.04z" style="stroke-width:0.53;fill:#FFFFFF;fill-opacity:0.50"/><text x="79.3" y="238.43" lengthAdjust="spacingAndGlyphs" style="font-size:5.69px;font-family:&quot;Liberation Sans&quot;" text-anchor="middle" textLength="54.86">LFG REAL ESTATE 2</text><text x="79.3" y="246.62" lengthAdjust="spacingAndGlyphs" style="font-size:5.69px;font-family:&quot;Liberation Sans&quot;" text-anchor="middle" textLength="10.42">LLC</text><path d="M123.34 225.47h57.46-.08l.34-.02.34-.06.33-.13.3-.17.27-.22.23-.26.19-.3.13-.32.08-.33.03-.35h0v-14.99h0l-.03-.35-.08-.33-.13-.32-.19-.3-.23-.26-.27-.22-.3-.17-.33-.13-.34-.06-.26-.02h-57.46l.27.02-.35-.02-.35.04-.33.1-.32.15-.28.2-.25.24-.21.27-.16.31-.11.33-.06.35-.01.17v14.99l.01-.17v.34l.06.35.11.33.16.3.21.28.25.24.28.2.32.15.33.1.35.04z" style="stroke-width:0.53;fill:#FFFFFF;fill-opacity:0.50"/><text x="152.07" y="213.68" lengthAdjust="spacingAndGlyphs" style="font-size:5.69px;font-family:&quot;Liberation Sans&quot;" text-anchor="middle" textLength="54.58">CASH COW REALTY</text><text x="152.07" y="221.87" lengthAdjust="spacingAndGlyphs" style="font-size:5.69px;font-family:&quot;Liberation Sans&quot;" text-anchor="middle" textLength="32.75">GROUP LLC</text><path d="M76.96 278.14h50.67-.08l.35-.02.34-.07.32-.12.3-.18.27-.22.23-.26.19-.29.13-.32.09-.34.02-.34h0v-14.99h0l-.02-.35-.09-.34-.13-.32-.19-.29-.23-.26-.27-.22-.3-.18-.32-.12-.34-.07-.27-.01H76.96l.26.01-.35-.01-.34.04-.34.1-.31.15-.29.19-.25.24-.21.28-.16.31-.11.33-.06.34v15.17-.18.35l.06.34.11.33.16.31.21.28.25.24.29.2.31.15.34.09.34.05z" style="stroke-width:0.53;fill:#FFFFFF;fill-opacity:0.50"/><text x="102.3" y="266.34" lengthAdjust="spacingAndGlyphs" style="font-size:5.69px;font-family:&quot;Liberation Sans&quot;" text-anchor="middle" textLength="47.8">MICHAEL GOETZ,</text><text x="102.3" y="274.54" lengthAdjust="spacingAndGlyphs" style="font-size:5.69px;font-family:&quot;Liberation Sans&quot;" text-anchor="middle" textLength="44.25">NICHOLAS HEIN</text><path d="M81.12 454.62h68.92-.08l.34-.02.34-.06.33-.13.3-.17.27-.22.23-.26.18-.3.14-.32.08-.33.03-.35h0v-6.8h0l-.03-.34-.08-.34-.14-.32-.18-.29-.23-.26-.27-.22-.3-.18-.33-.12-.34-.07-.26-.02H81.12l.26.02-.35-.01-.35.04-.33.09-.31.15-.29.2-.25.24-.21.28-.16.31-.11.33-.06.34v6.97-.17.34l.06.35.11.33.16.3.21.28.25.24.29.2.31.15.33.1.35.04z" style="stroke-width:0.53;fill:#FFFFFF;fill-opacity:0.50"/><text x="115.58" y="451.02" lengthAdjust="spacingAndGlyphs" style="font-size:5.69px;font-family:&quot;Liberation Sans&quot;" text-anchor="middle" textLength="66.05">VND INVESTMENTS LLC</text><path d="M216.96 392.47h53.44-.09l.35-.01.34-.07.33-.13.3-.17.27-.22.23-.26.18-.29.14-.32.08-.34.03-.35h0v-23.18h0l-.03-.35-.08-.34-.14-.32-.18-.29-.23-.26-.27-.22-.3-.17-.33-.13-.34-.07-.26-.01h-53.44l.26.01-.35-.01-.34.04-.34.1-.31.15-.29.19-.25.24-.21.28-.16.31-.11.33-.05.34-.01.18v23.18l.01-.17v.35l.05.34.11.33.16.31.21.27.25.25.29.19.31.15.34.1.34.04z" style="stroke-width:0.53;fill:#FFFFFF;fill-opacity:0.50"/><text x="243.68" y="372.48" lengthAdjust="spacingAndGlyphs" style="font-size:5.69px;font-family:&quot;Liberation Sans&quot;" text-anchor="middle" textLength="50.56">405 SAN JUAN DR,</text><text x="243.68" y="380.68" lengthAdjust="spacingAndGlyphs" style="font-size:5.69px;font-family:&quot;Liberation Sans&quot;" text-anchor="middle" textLength="50.23">MORGAN HILL, CA</text><text x="243.68" y="388.87" lengthAdjust="spacingAndGlyphs" style="font-size:5.69px;font-family:&quot;Liberation Sans&quot;" text-anchor="middle" textLength="15.78">95037</text><path d="M281.93 424.27h53.44-.08l.34-.01.34-.07.33-.12.3-.18.27-.22.23-.26.19-.29.13-.32.09-.34.02-.35h0v-23.18h0l-.02-.35-.09-.34-.13-.32-.19-.29-.23-.26-.27-.22-.3-.17-.33-.13-.34-.07-.26-.01h-53.44l.26.01-.35-.01-.34.04-.34.1-.31.15-.29.19-.25.25-.2.27-.17.31-.11.33-.05.34-.01.18v23.18l.01-.17v.35l.05.34.11.33.17.31.2.28.25.24.29.19.31.15.34.1.34.04z" style="stroke-width:0.53;fill:#FFFFFF;fill-opacity:0.50"/><text x="308.65" y="404.28" lengthAdjust="spacingAndGlyphs" style="font-size:5.69px;font-family:&quot;Liberation Sans&quot;" text-anchor="middle" textLength="50.56">405 SAN JUAN DR,</text><text x="308.65" y="412.48" lengthAdjust="spacingAndGlyphs" style="font-size:5.69px;font-family:&quot;Liberation Sans&quot;" text-anchor="middle" textLength="50.23">MORGAN HILL, CA</text><text x="308.65" y="420.67" lengthAdjust="spacingAndGlyphs" style="font-size:5.69px;font-family:&quot;Liberation Sans&quot;" text-anchor="middle" textLength="15.78">95037</text><path d="M187.99 265.65h63.85l-.09-.01.35-.01.34-.07.33-.12.3-.18.27-.22.23-.26.18-.29.14-.32.08-.34.03-.34h0V248.5h0l-.03-.35-.08-.34-.14-.32-.18-.29-.23-.26-.27-.22-.3-.18-.33-.12-.34-.07-.26-.01h-63.85l.26.01-.34-.01-.35.04-.33.1-.32.14-.28.2-.25.24-.21.28-.16.31-.11.33-.06.34-.01.18v14.99l.01-.18v.35l.06.34.11.33.16.31.21.28.25.24.28.2.32.15.33.09.35.04z" style="stroke-width:0.53;fill:#FFFFFF;fill-opacity:0.50"/><text x="219.92" y="253.85" lengthAdjust="spacingAndGlyphs" style="font-size:5.69px;font-family:&quot;Liberation Sans&quot;" text-anchor="middle" textLength="54.16">3312 W ALVINA AVE,</text><text x="219.92" y="262.05" lengthAdjust="spacingAndGlyphs" style="font-size:5.69px;font-family:&quot;Liberation Sans&quot;" text-anchor="middle" textLength="60.97">MILWAUKEE, WI 53221</text><path d="M95.33 165.39h63.85-.09l.35-.01.34-.07.32-.13.3-.17.27-.22.23-.26.19-.29.14-.32.08-.34.03-.35h0v-14.99h0l-.03-.34-.08-.34-.14-.32-.19-.3-.23-.26-.27-.22-.3-.17-.32-.12-.34-.07-.26-.02H95.33l.26.02-.35-.02-.34.05-.34.09-.31.15-.29.2-.25.24-.21.28-.16.3-.11.33-.06.35v15.16-.17.35l.06.34.11.33.16.31.21.28.25.24.29.19.31.15.34.1.34.04z" style="stroke-width:0.53;fill:#FFFFFF;fill-opacity:0.50"/><text x="127.25" y="153.6" lengthAdjust="spacingAndGlyphs" style="font-size:5.69px;font-family:&quot;Liberation Sans&quot;" text-anchor="middle" textLength="47.2">3314 ALVINA AVE,</text><text x="127.25" y="161.79" lengthAdjust="spacingAndGlyphs" style="font-size:5.69px;font-family:&quot;Liberation Sans&quot;" text-anchor="middle" textLength="60.97">MILWAUKEE, WI 53221</text><path d="M316.16 522.18h53.44-.08l.34-.01.35-.07.32-.13.3-.17.27-.22.23-.26.19-.3.13-.32.09-.33.02-.35h0v-23.18h0l-.02-.35-.09-.34-.13-.32-.19-.29-.23-.26-.27-.22-.3-.18-.32-.12-.35-.07-.26-.01h-53.44l.26.01-.34-.01-.35.04-.33.1-.32.14-.28.2-.25.24-.21.28-.17.31-.11.33-.05.34-.01.18v23.18l.01-.17v.34l.05.35.11.33.17.31.21.27.25.24.28.2.32.15.33.1.35.04z" style="stroke-width:0.53;fill:#FFFFFF;fill-opacity:0.50"/><text x="342.88" y="502.19" lengthAdjust="spacingAndGlyphs" style="font-size:5.69px;font-family:&quot;Liberation Sans&quot;" text-anchor="middle" textLength="50.56">405 SAN JUAN DR,</text><text x="342.88" y="510.39" lengthAdjust="spacingAndGlyphs" style="font-size:5.69px;font-family:&quot;Liberation Sans&quot;" text-anchor="middle" textLength="50.23">MORGAN HILL, CA</text><text x="342.88" y="518.58" lengthAdjust="spacingAndGlyphs" style="font-size:5.69px;font-family:&quot;Liberation Sans&quot;" text-anchor="middle" textLength="15.78">48906</text><path d="M451.75 491.6h63.84-.08l.34-.02.34-.06.33-.13.3-.17.27-.22.23-.26.19-.3.13-.32.09-.33.02-.35h0v-14.99h0l-.02-.35-.09-.33-.13-.32-.19-.3-.23-.26-.27-.22-.3-.17-.33-.13-.34-.07-.26-.01h-63.84l.26.01-.35-.01-.35.04-.33.1-.31.15-.29.2-.25.24-.21.27-.16.31-.11.33-.06.35v15.16-.17.34l.06.35.11.33.16.3.21.28.25.24.29.2.31.15.33.1.35.04z" style="stroke-width:0.53;fill:#FFFFFF;fill-opacity:0.50"/><text x="483.67" y="479.81" lengthAdjust="spacingAndGlyphs" style="font-size:5.69px;font-family:&quot;Liberation Sans&quot;" text-anchor="middle" textLength="40.11">662 S 94TH ST,</text><text x="483.67" y="488" lengthAdjust="spacingAndGlyphs" style="font-size:5.69px;font-family:&quot;Liberation Sans&quot;" text-anchor="middle" textLength="60.97">MILWAUKEE, WI 53214</text></g><g clip-path="url(#cpMC4wMHw1NzYuMDB8MC4wMHw1NzYuMDA=)"><circle cx="192.83" cy="97.06" r="1.95" style="stroke-width:0.71;stroke:none;fill:#F8766D"/><path d="m269.23 94.02 2.63 4.56h-5.26z" style="stroke-width:0.71;stroke:none;fill:#00BA38"/><path d="M335.23 99.01h3.91V95.1h-3.91z" style="stroke-width:0.71;stroke:none;fill:#619CFF"/><text x="206.95" y="100.22" lengthAdjust="spacingAndGlyphs" style="font-size:8.80px;font-weight:0;font-family:&quot;Nimbus Sans Narrow&quot;" textLength="48.16">mprop address</text><text x="283.35" y="100.22" lengthAdjust="spacingAndGlyphs" style="font-size:8.80px;font-weight:0;font-family:&quot;Nimbus Sans Narrow&quot;" textLength="39.72">owner name</text><text x="351.31" y="100.22" lengthAdjust="spacingAndGlyphs" style="font-size:8.80px;font-weight:0;font-family:&quot;Nimbus Sans Narrow&quot;" textLength="40.5">wdfi address</text><text x="29.89" y="65.35" lengthAdjust="spacingAndGlyphs" style="font-size:12.00px;font-weight:0;font-family:&quot;Nimbus Sans Narrow&quot;" textLength="257.58">includes 43 parcels, 53 units, and 12 distinct owner names.</text><text x="29.89" y="42.81" lengthAdjust="spacingAndGlyphs" style="font-size:18.00px;font-weight:0;font-family:&quot;Nimbus Sans Narrow&quot;" textLength="278.83">PLUS EV INVESTMENTS LLC etc Group</text></g></g></svg>