<svg xmlns="http://www.w3.org/2000/svg" width="576" height="672" class="svglite" viewBox="0 0 432 504"><defs><style><![CDATA[.svglite line,.svglite polyline,.svglite polygon,.svglite path,.svglite circle{fill:none;stroke:#000000;stroke-linecap:round;stroke-linejoin:round;stroke-miterlimit:10.00}]]></style></defs><rect width="100%" height="100%" style="stroke-linecap:round;stroke-linejoin:round;stroke-miterlimit:10.00;stroke:none;fill:#FFFFFF"/><defs><clipPath id="cpMC4wMHw0MzIuMDB8MC4wMHw1MDQuMDA="><path d="M0 0h432v504H0z"/></clipPath></defs><g clip-path="url(#cpMC4wMHw0MzIuMDB8MC4wMHw1MDQuMDA=)"><path d="M0 0h432v504H0z" style="stroke-width:1.07;stroke:none;fill:#FFFFFF"/></g><defs><clipPath id="cpMzIuNjN8NDAyLjExfDEyMS43OHw0NzEuMzc="><path d="M32.63 121.78h369.48v349.59H32.63z"/></clipPath></defs><g clip-path="url(#cpMzIuNjN8NDAyLjExfDEyMS43OHw0NzEuMzc=)"><path d="m378.93 400.31-1.33-1.2-1.33-1.2-1.34-1.19-1.34-1.19-1.34-1.18-1.34-1.18-1.35-1.18-1.35-1.17-1.35-1.17-1.36-1.17-1.36-1.16-1.36-1.16-1.36-1.16-1.37-1.15-1.37-1.16-1.38-1.14-1.37-1.15-1.38-1.14-1.38-1.13-1.39-1.14-1.38-1.13-1.39-1.12-1.4-1.13-1.39-1.12-1.4-1.11-1.4-1.12-1.41-1.11-1.41-1.1-1.41-1.11-1.41-1.1-1.42-1.09-1.42-1.1-1.42-1.09-1.42-1.08-1.43-1.09-1.43-1.07-1.43-1.08-1.44-1.07-1.44-1.07-1.44-1.07-1.45-1.06-1.44-1.06-1.45-1.06-1.46-1.05-1.45-1.05-1.46-1.05-1.46-1.04-1.47-1.04-1.47-1.03-1.47-1.03-1.47-1.03-1.48-1.03-1.48-1.02-1.48-1.02-1.48-1.02-1.49-1.01-1.49-1.01-1.5-1-1.49-1-1.5-1-1.5-1-1.51-.99-1.51-.99-1.51-.98-1.51-.98-1.52-.98-1.52-.98-1.52-.97-1.53-.97-1.52-.96-1.53-.96-1.54-.96-1.53-.96-1.54-.95-1.55-.95-1.54-.94-1.55-.94-1.55-.94-1.56-.93-1.55-.94-1.56-.92-1.56-.93-1.57-.92-1.57-.92-1.57-.91-1.57-.91-1.58-.91-1.58-.9-1.58-.9-1.59-.9-1.59-.9-1.59-.89-1.59-.88-1.6-.89-1.6-.88-1.6-.88-1.61-.87-1.6-.87-1.61-.87" style="stroke-width:1.07;stroke:#000000;stroke-opacity:0.10;stroke-linecap:butt"/><path d="m385.32 203.89-1.8.61-1.79.61-1.78.62-1.78.63-1.77.63-1.77.64-1.76.65-1.76.66-1.75.66-1.75.67-1.74.68-1.74.68-1.73.69-1.72.7-1.72.71-1.72.71-1.71.72-1.7.72-1.7.74-1.7.74-1.68.75-1.69.75-1.68.76-1.67.77-1.67.78-1.66.78-1.65.79-1.66.79-1.64.81-1.64.81-1.64.82-1.63.82-1.62.83-1.62.84-1.62.85-1.61.85-1.6.86-1.6.87-1.59.87-1.59.88-1.59.89-1.57.9-1.57.9-1.57.91-1.56.92-1.56.92-1.55.93-1.55.94-1.54.94-1.53.95-1.53.96-1.53.97-1.52.97-1.51.98-1.51.99-1.5.99-1.5 1-1.49 1.01-1.49 1.02-1.48 1.02-1.48 1.03-1.47 1.03-1.47 1.05-1.46 1.05-1.46 1.05-1.45 1.07-1.44 1.07-1.44 1.08-1.44 1.08-1.42 1.1-1.43 1.1-1.42 1.1-1.41 1.12-1.41 1.12-1.4 1.12-1.4 1.14-1.39 1.14-1.39 1.15-1.38 1.16-1.38 1.16-1.37 1.17-1.36 1.18-1.37 1.18-1.35 1.19-1.35 1.2-1.35 1.2-1.33 1.22-1.34 1.22-1.33 1.22-1.32 1.24-1.32 1.24-1.31 1.24-1.31 1.26-1.3 1.26-1.3 1.27-1.29 1.27-1.29 1.29-1.28 1.29-1.27 1.29m-51.67-160.43-.14 1.8-.13 1.79-.11 1.79-.1 1.79-.09 1.78-.07 1.78-.06 1.77-.04 1.78-.04 1.76-.01 1.77-.01 1.76.01 1.76.02 1.75.04 1.75.05 1.74.06 1.75.07 1.74.09 1.73.11 1.73.11 1.73.13 1.73.15 1.72.15 1.72.17 1.71.19 1.71.2 1.71.21 1.7.22 1.7.24 1.69.25 1.7.27 1.69.27 1.68.3 1.68.3 1.68.32 1.67.33 1.68.35 1.66.36 1.67.37 1.66.39 1.65.4 1.66.41 1.64.43 1.65.44 1.64.46 1.64.46 1.64.49 1.63.49 1.62.51 1.63.52 1.62.54 1.62.54 1.61.57 1.61.57 1.61.59 1.6.61 1.6.61 1.59.63 1.59.64 1.59.66 1.59.67 1.58.69 1.58.69 1.57.72 1.57.72 1.57.74 1.56.75 1.56.76 1.55.78 1.56.8 1.54.8 1.55.82 1.54.83 1.54.85 1.53.86 1.53.87 1.53.89 1.53.9 1.51.91 1.52.93 1.51.94 1.51.95 1.51.97 1.5.98 1.5 1 1.49 1.01 1.5 1.02 1.48 1.03 1.49 1.05 1.48 1.07 1.47 1.07 1.48 1.09 1.47 1.1 1.46 1.12 1.47 1.13 1.45 1.14 1.46 1.16 1.45 1.17 1.45 1.19 1.44" style="stroke-width:1.07;stroke:#000000;stroke-opacity:0.10;stroke-linecap:butt"/><path d="m181.67 137.67.3 1.68.31 1.68.31 1.68.31 1.67.32 1.68.33 1.67.32 1.67.34 1.67.33 1.67.34 1.67.35 1.67.35 1.67.36 1.66.36 1.66.36 1.67.37 1.66.37 1.66.38 1.66.38 1.65.39 1.66.39 1.66.4 1.65.4 1.65.4 1.65.41 1.65.41 1.65.42 1.65.43 1.65.42 1.64.43 1.65.44 1.64.44 1.64.45 1.64.45 1.64.45 1.64.46 1.64.46 1.64.47 1.63.47 1.63.48 1.64.48 1.63.49 1.63.49 1.63.49 1.63.5 1.62.51 1.63.5 1.62.52 1.62.51 1.63.53 1.62.52 1.62.53 1.61.54 1.62.54 1.62.54 1.61.55 1.61.56 1.62.55 1.61.57 1.61.56 1.61.57 1.6.58 1.61.58 1.6.58 1.61.59 1.6.6 1.6.6 1.6.6 1.6.61 1.6.61 1.59.62 1.6.62 1.59.62 1.6.63 1.59.64 1.59.64 1.59.64 1.59.65 1.58.65 1.59.66 1.58.66 1.59.66 1.58.67 1.58.68 1.58.68 1.58.68 1.58.69 1.57.69 1.58.7 1.57.7 1.57.71 1.58.71 1.57.72 1.56.72 1.57.72 1.57.73 1.56.73 1.57.74 1.56.75 1.56m145.59 102.21-1.61-.87-1.61-.87-1.61-.88-1.6-.87-1.6-.88-1.59-.89-1.6-.88-1.59-.9-1.59-.89-1.58-.9-1.59-.9-1.58-.9-1.57-.91-1.58-.91-1.57-.91-1.57-.92-1.56-.92-1.56-.93-1.56-.92-1.56-.94-1.55-.93-1.56-.94-1.54-.94-1.55-.94-1.54-.95-1.54-.95-1.54-.96-1.53-.96-1.53-.96-1.53-.96-1.53-.97-1.52-.97-1.52-.98-1.51-.98-1.52-.98-1.51-.98-1.51-.99-1.5-.99-1.5-1-1.5-1-1.5-1-1.49-1-1.49-1.01-1.49-1.02-1.49-1.01-1.48-1.02-1.48-1.02-1.47-1.03-1.48-1.03-1.47-1.03-1.47-1.03-1.46-1.04-1.46-1.05-1.46-1.04-1.46-1.05-1.45-1.05-1.45-1.06-1.45-1.06-1.44-1.06-1.45-1.07-1.44-1.07-1.43-1.07-1.44-1.08-1.43-1.08-1.42-1.08-1.43-1.08-1.42-1.09-1.42-1.1-1.42-1.09-1.41-1.1-1.41-1.11-1.41-1.1-1.4-1.11-1.4-1.12-1.4-1.11-1.4-1.12-1.39-1.13-1.39-1.12-1.39-1.13-1.38-1.14-1.39-1.13-1.37-1.14-1.38-1.15-1.37-1.15-1.37-1.15-1.37-1.15-1.37-1.16-1.36-1.16-1.36-1.16-1.35-1.17-1.35-1.17-1.35-1.17-1.35-1.18-1.35-1.18-1.34-1.19-1.34-1.18-1.33-1.19-1.33-1.2-1.33-1.2" style="stroke-width:1.07;stroke:#000000;stroke-opacity:0.10;stroke-linecap:butt"/><path d="m181.67 137.67.74 1.57.74 1.56.73 1.56.73 1.57.73 1.57.72 1.56.71 1.57.72 1.57.7 1.57.7 1.58.7 1.57.69 1.58.69 1.57.69 1.58.68 1.58.67 1.58.67 1.58.67 1.58.66 1.58.66 1.59.65 1.58.65 1.59.64 1.59.64 1.59.63 1.59.63 1.59.63 1.59.62 1.6.62 1.59.61 1.6.61 1.6.6 1.6.6 1.6.59 1.6.59 1.6.59 1.6.58 1.61.57 1.61.57 1.6.57 1.61.56 1.61.56 1.61.55 1.61.55 1.62.55 1.61.54 1.62.53 1.61.53 1.62.53 1.62.52 1.62.52 1.62.51 1.63.51 1.62.5 1.63.5 1.62.5 1.63.49 1.63.48 1.63.49 1.63.47 1.63.47 1.64.47 1.63.47 1.64.45 1.64.46 1.63.45 1.64.44 1.64.44 1.65.44 1.64.43 1.64.43 1.65.42 1.65.42 1.64.42 1.65.4 1.65.41 1.66.4 1.65.4 1.65.39 1.66.38 1.65.39 1.66.37 1.66.38 1.66.36 1.66.37 1.66.36 1.67.35 1.66.35 1.67.35 1.67.34 1.66.34 1.67.33 1.67.33 1.68.32 1.67.32 1.67.32 1.68.31 1.68.3 1.67.31 1.68m151.98-94.21-1.54.95-1.53.95-1.54.95-1.53.96-1.54.95-1.53.95-1.54.95-1.53.95-1.54.95-1.53.96-1.54.95-1.53.95-1.54.95-1.54.95-1.53.95-1.54.96-1.53.95-1.54.95-1.53.95-1.54.95-1.53.95-1.54.96-1.53.95-1.54.95-1.53.95-1.54.95-1.53.95-1.54.96-1.53.95-1.54.95-1.53.95-1.54.95-1.53.95-1.54.96-1.53.95-1.54.95-1.53.95-1.54.95-1.53.95-1.54.96-1.53.95-1.54.95-1.54.95-1.53.95-1.54.95-1.53.96-1.54.95-1.53.95-1.54.95-1.53.95-1.54.95-1.53.96-1.54.95-1.53.95-1.54.95-1.53.95-1.54.95-1.53.96-1.54.95-1.53.95-1.54.95-1.53.95-1.54.95-1.53.96-1.54.95-1.53.95-1.54.95-1.53.95-1.54.95-1.53.96-1.54.95-1.54.95-1.53.95-1.54.95-1.53.95-1.54.96-1.53.95-1.54.95-1.53.95-1.54.95-1.53.95-1.54.96-1.53.95-1.54.95-1.53.95-1.54.95-1.53.95-1.54.96-1.53.95-1.54.95-1.53.95-1.54.95-1.53.95-1.54.96-1.53.95-1.54.95-1.53.95-1.54.95-1.53.95" style="stroke-width:1.07;stroke:#000000;stroke-opacity:0.10;stroke-linecap:butt"/><path d="m49.42 293.17 1.85.26 1.85.25 1.86.25 1.85.25 1.85.24 1.85.24 1.85.23 1.85.23 1.86.22 1.85.22 1.85.22 1.85.21 1.86.21 1.85.2 1.85.2 1.85.2 1.86.19 1.85.18 1.85.18 1.86.18 1.85.17 1.85.17 1.86.17 1.85.16 1.86.16 1.85.15 1.86.15 1.85.14 1.86.14 1.85.13 1.86.14 1.85.12 1.86.12 1.85.12 1.86.12 1.85.11 1.86.1 1.85.1 1.86.1 1.86.09 1.85.09 1.86.08 1.86.08 1.85.08 1.86.07 1.86.07 1.86.06 1.85.06 1.86.05 1.86.05 1.86.05 1.85.04 1.86.04 1.86.03 1.86.03 1.86.02 1.86.02 1.85.02 1.86.01 1.86.01h3.72l1.86-.01 1.86-.01 1.86-.01 1.86-.02 1.86-.02 1.86-.03 1.86-.03 1.86-.04 1.86-.04 1.86-.04 1.86-.05 1.86-.05 1.87-.06 1.86-.06 1.86-.06 1.86-.07 1.86-.08 1.86-.07 1.87-.09 1.86-.08 1.86-.09 1.86-.1 1.86-.1 1.87-.1 1.86-.11 1.86-.11 1.87-.12 1.86-.12 1.86-.12 1.87-.13 1.86-.14 1.86-.13 1.87-.15 1.86-.14 1.87-.15 1.86-.16 1.87-.16" style="stroke-width:1.07;stroke:#000000;stroke-opacity:0.10;stroke-linecap:butt"/><path d="m49.42 293.17 1.87-.16 1.86-.16 1.87-.15 1.86-.14 1.86-.14 1.87-.14 1.86-.14 1.86-.13 1.87-.12 1.86-.12 1.86-.12 1.87-.11 1.86-.11 1.86-.1 1.87-.1 1.86-.09 1.86-.1 1.86-.08 1.86-.08 1.87-.08 1.86-.08 1.86-.07 1.86-.06 1.86-.06 1.86-.06 1.86-.05 1.87-.05 1.86-.04 1.86-.04 1.86-.04 1.86-.03 1.86-.03 1.86-.02 1.86-.02 1.86-.01 1.86-.01 1.86-.01h1.86l1.85.01h1.86l1.86.01 1.86.02 1.86.02 1.86.02 1.86.03 1.86.04 1.85.03 1.86.04 1.86.05 1.86.05 1.85.05 1.86.06 1.86.06 1.86.07 1.85.07 1.86.08 1.86.08 1.85.08 1.86.09 1.86.09 1.85.1 1.86.1 1.85.11 1.86.11 1.86.11 1.85.12 1.86.12 1.85.13 1.86.13 1.85.13 1.86.14 1.85.14 1.86.15 1.85.16 1.85.15 1.86.16 1.85.17 1.86.17 1.85.17 1.85.18 1.86.18 1.85.19 1.85.19 1.86.19 1.85.2 1.85.2 1.85.21 1.86.21 1.85.22 1.85.22 1.85.22 1.86.23 1.85.24 1.85.23 1.85.24 1.85.25 1.85.25 1.85.26 1.86.25m-51.67-160.43 1.18 1.45 1.18 1.45 1.15 1.45 1.15 1.45 1.13 1.46 1.11 1.47 1.1 1.46 1.09 1.47 1.08 1.47 1.06 1.48 1.05 1.48 1.04 1.49 1.02 1.48 1.01 1.49.99 1.5.98 1.5.97 1.5.96 1.51.94 1.5.92 1.52.92 1.51.9 1.52.88 1.53.88 1.52.86 1.53.84 1.54.84 1.54.81 1.54.81 1.54.79 1.55.78 1.55.77 1.56.75 1.56.74 1.56.72 1.57.71 1.57.7 1.57.68 1.58.67 1.58.66 1.59.64 1.58.63 1.6.62 1.59.6 1.6.59 1.6.58 1.61.56 1.61.55 1.61.54 1.62.52 1.62.51 1.62.49 1.63.48 1.63.47 1.64.45 1.64.44 1.64.43 1.64.42 1.65.4 1.66.38 1.65.38 1.66.36 1.67.34 1.66.33 1.67.32 1.68.31 1.68.29 1.68.28 1.68.27 1.69.25 1.69.23 1.7.23 1.7.21 1.7.2 1.71.18 1.71.17 1.71.16 1.72.14 1.72.13 1.73.12 1.72.1 1.74.09 1.73.08 1.74.06 1.74.05 1.75.03 1.75.03 1.75v3.52l-.02 1.76-.03 1.77-.05 1.77-.06 1.78-.07 1.78-.08 1.78-.1 1.79-.12 1.78-.12 1.8-.14 1.79m-62 157.38.84-1.52.84-1.52.83-1.52.83-1.52.82-1.53.83-1.53.81-1.52.81-1.53.81-1.53.8-1.54.8-1.53.8-1.53.79-1.54.78-1.54.78-1.54.78-1.54.77-1.54.77-1.54.76-1.55.76-1.55.76-1.54.75-1.55.74-1.55.74-1.56.74-1.55.73-1.56.73-1.55.72-1.56.72-1.56.72-1.56.71-1.56.7-1.57.7-1.56.7-1.57.69-1.57.69-1.57.69-1.57.67-1.57.68-1.57.67-1.58.67-1.58.66-1.57.65-1.58.66-1.59.65-1.58.64-1.58.64-1.59.63-1.58.63-1.59.63-1.59.62-1.59.62-1.6.61-1.59.61-1.6.61-1.59.6-1.6.59-1.6.59-1.6.59-1.6.58-1.61.58-1.6.57-1.61.57-1.61.56-1.61.56-1.61.56-1.61.55-1.62.55-1.61.54-1.62.54-1.62.53-1.62.53-1.62.53-1.62.52-1.63.51-1.62.51-1.63.51-1.63.5-1.63.5-1.63.49-1.63.49-1.63.49-1.64.48-1.64.47-1.64.48-1.64.46-1.64.47-1.64.45-1.64.46-1.65.45-1.65.44-1.65.44-1.65.44-1.65.43-1.65.43-1.65.42-1.66.42-1.66.42-1.66.41-1.66m151.98-94.21-1.28 1.3-1.28 1.29-1.29 1.28-1.29 1.27-1.3 1.27-1.3 1.26-1.31 1.26-1.31 1.25-1.32 1.24-1.32 1.23-1.33 1.23-1.33 1.22-1.34 1.21-1.35 1.2-1.35 1.2-1.35 1.19-1.36 1.19-1.37 1.17-1.37 1.17-1.38 1.17-1.38 1.15-1.39 1.15-1.39 1.14-1.4 1.14-1.4 1.13-1.41 1.12-1.41 1.11-1.42 1.11-1.42 1.1-1.43 1.09-1.44 1.09-1.44 1.07-1.44 1.08-1.45 1.06-1.46 1.06-1.46 1.05-1.47 1.04-1.47 1.04-1.47 1.03-1.49 1.02-1.48 1.01-1.5 1.01-1.5 1-1.5 1-1.51.98-1.51.98-1.52.98-1.53.96-1.53.96-1.53.95-1.54.95-1.55.93-1.55.93-1.55.93-1.57.91-1.56.91-1.57.91-1.58.89-1.59.89-1.58.88-1.6.87-1.6.87-1.6.86-1.61.85-1.61.85-1.62.84-1.63.83-1.63.83-1.63.81-1.65.82-1.64.8-1.65.8-1.66.79-1.66.78-1.67.77-1.67.77-1.68.76-1.68.76-1.69.75-1.7.74-1.7.73-1.7.73-1.71.71-1.71.72-1.72.7-1.73.7-1.73.69-1.74.68-1.74.68-1.75.67-1.75.66-1.76.66-1.76.65-1.77.64-1.77.64-1.78.62-1.78.62-1.79.62-1.79.6m-62 157.38.4-1.66.42-1.66.42-1.65.42-1.66.43-1.65.43-1.66.44-1.65.44-1.65.44-1.65.45-1.64.46-1.65.45-1.64.47-1.65.46-1.64.48-1.64.47-1.64.48-1.63.49-1.64.49-1.63.49-1.64.5-1.63.5-1.63.51-1.63.51-1.62.51-1.63.52-1.62.53-1.63.53-1.62.53-1.62.54-1.62.54-1.61.55-1.62.55-1.61.56-1.61.56-1.62.56-1.61.57-1.6.57-1.61.58-1.61.58-1.6.59-1.6.59-1.6.59-1.6.6-1.6.61-1.6.61-1.59.61-1.6.62-1.59.62-1.59.63-1.59.63-1.59.63-1.59.64-1.58.64-1.59.65-1.58.66-1.58.65-1.58.66-1.58.67-1.57.67-1.58.68-1.57.68-1.58.68-1.57.69-1.57.69-1.56.7-1.57.7-1.57.7-1.56.71-1.56.72-1.56.72-1.56.72-1.56.73-1.56.73-1.55.74-1.56.74-1.55.74-1.55.75-1.55.76-1.55.76-1.54.76-1.55.77-1.54.77-1.55.78-1.54.78-1.54.78-1.53.79-1.54.8-1.54.8-1.53.8-1.53.81-1.53.81-1.53.81-1.53.83-1.53.82-1.52.83-1.52.83-1.53.84-1.52.85-1.52" style="stroke-width:1.07;stroke:#000000;stroke-opacity:0.10;stroke-linecap:butt"/><path d="m378.93 398.1 1.91 3.31h-3.82zm6.39-198.92 4.08 7.07h-8.16zm-203.65-67.25 4.98 8.62h-9.96zM49.42 290.96l1.92 3.31h-3.83zm121.92 162.31 1.91 3.32h-3.83z" style="stroke-width:0.71;stroke:none;fill:#00BFC4"/><circle cx="233.34" cy="298.1" r="6.76" style="stroke-width:0.71;stroke:none;fill:#F8766D"/><path d="m374.4 395.6 3.75 3.89M186.27 135.48l-3.56 1.7m-6.82 313.56-3.77 3.93m56.51-151.89 3.91-3.88" style="stroke-width:0.53;stroke:#BFBFBF"/><path d="M348.7 395.6h38.57-.08l.34-.01.35-.07.32-.13.3-.17.27-.22.23-.26.19-.29.13-.32.09-.34.02-.35h0v-6.96h0l-.02-.35-.09-.33-.13-.32-.19-.3-.23-.26-.27-.22-.3-.17-.32-.12-.35-.07-.26-.02H348.7l.26.02-.34-.02-.35.04-.33.1-.32.15-.28.2-.25.24-.21.28-.16.3-.11.33-.06.35-.01.17v6.96l.01-.17v.35l.06.34.11.33.16.31.21.28.25.24.28.19.32.15.33.1.35.04z" style="stroke-width:0.53;fill:#FFFFFF;fill-opacity:0.50"/><text x="367.99" y="392" lengthAdjust="spacingAndGlyphs" style="font-size:5.69px;font-family:Arial" text-anchor="middle" textLength="35.69">LUIS A LUGO</text><path d="M321.25 213.67h57.22-.09l.35-.01.34-.07.33-.13.3-.17.27-.22.23-.26.18-.29.14-.32.08-.34.03-.35h0v-15.16h0l-.03-.34-.08-.34-.14-.32-.18-.29-.23-.26-.27-.22-.3-.18-.33-.12-.34-.07-.26-.02h-57.22l.26.02-.35-.01-.35.04-.33.09-.31.15-.29.2-.25.24-.21.28-.16.31-.11.33-.06.34v15.33-.17.35l.06.34.11.33.16.31.21.27.25.24.29.2.31.15.33.1.35.04z" style="stroke-width:0.53;fill:#FFFFFF;fill-opacity:0.50"/><text x="349.86" y="201.88" lengthAdjust="spacingAndGlyphs" style="font-size:5.69px;font-family:Arial" text-anchor="middle" textLength="54.35">POWER PROPERTY</text><text x="349.86" y="210.07" lengthAdjust="spacingAndGlyphs" style="font-size:5.69px;font-family:Arial" text-anchor="middle" textLength="40.76">MANAGEMENT</text><path d="M188.43 144.87h76.17l-.08-.01.35-.01.34-.07.32-.12.3-.18.27-.22.23-.26.19-.29.13-.32.09-.34.02-.34h0v-15.16h0l-.02-.35-.09-.34-.13-.31-.19-.3-.23-.26-.27-.22-.3-.17-.32-.13-.34-.07-.27-.01h-76.17l.26.01-.35-.01-.34.04-.34.1-.31.15-.29.2-.25.24-.21.27-.16.31-.11.33-.05.35-.01.17v15.16l.01-.18v.35l.05.34.11.33.16.31.21.28.25.24.29.2.31.15.34.09.34.04z" style="stroke-width:0.53;fill:#FFFFFF;fill-opacity:0.50"/><text x="226.52" y="133.07" lengthAdjust="spacingAndGlyphs" style="font-size:5.69px;font-family:Arial" text-anchor="middle" textLength="73.3">POWER PROPERTY MGMT</text><text x="226.52" y="141.27" lengthAdjust="spacingAndGlyphs" style="font-size:5.69px;font-family:Arial" text-anchor="middle" textLength="9.78">INC</text><path d="M56.27 302.86h57.22-.08l.34-.02.35-.07.32-.12.3-.18.27-.21.23-.27.19-.29.13-.32.09-.34.02-.34h0v-15.16h0l-.02-.35-.09-.33-.13-.32-.19-.3-.23-.26-.27-.22-.3-.17-.32-.12-.35-.07-.26-.02H56.27l.26.02-.35-.02-.34.04-.34.1-.31.15-.29.2-.25.24-.21.28-.16.3-.11.33-.05.35-.01.17v15.16l.01-.18v.35l.05.34.11.33.16.31.21.28.25.24.29.2.31.15.34.09.34.05z" style="stroke-width:0.53;fill:#FFFFFF;fill-opacity:0.50"/><text x="84.88" y="291.06" lengthAdjust="spacingAndGlyphs" style="font-size:5.69px;font-family:Arial" text-anchor="middle" textLength="54.35">POWER PROPERTY</text><text x="84.88" y="299.26" lengthAdjust="spacingAndGlyphs" style="font-size:5.69px;font-family:Arial" text-anchor="middle" textLength="48.02">MANAGEMENT IN</text><path d="M165.69 450.74h33.2-.09l.35-.02.34-.07.33-.12.3-.17.27-.22.23-.26.18-.3.14-.32.08-.33.03-.35h0v-6.96h0l-.03-.35-.08-.34-.14-.32-.18-.29-.23-.26-.27-.22-.3-.17-.33-.13-.34-.07-.26-.01h-33.2l.26.01-.35-.01-.34.04-.33.1-.32.15-.28.19-.26.25-.2.27-.17.31-.11.33-.05.34-.01.18v6.96l.01-.17v.34l.05.35.11.33.17.3.2.28.26.24.28.2.32.15.33.1.34.04z" style="stroke-width:0.53;fill:#FFFFFF;fill-opacity:0.50"/><text x="182.29" y="447.14" lengthAdjust="spacingAndGlyphs" style="font-size:5.69px;font-family:Arial" text-anchor="middle" textLength="30.32">LUIS LUGO</text><path d="M185.86 322.26h64.49-.08l.34-.02.34-.06.33-.13.3-.17.27-.22.23-.26.19-.3.13-.32.09-.33.02-.35h0v-15.16h0l-.02-.34-.09-.34-.13-.32-.19-.29-.23-.26-.27-.22-.3-.18-.33-.12-.34-.07-.26-.02h-64.49l.26.02-.34-.01-.35.04-.33.09-.32.15-.28.2-.25.24-.21.28-.16.31-.11.33-.06.34-.01.17v15.16l.01-.17v.34l.06.35.11.33.16.3.21.28.25.24.28.2.32.15.33.1.35.04z" style="stroke-width:0.53;fill:#FFFFFF;fill-opacity:0.50"/><text x="218.11" y="310.47" lengthAdjust="spacingAndGlyphs" style="font-size:5.69px;font-family:Arial" text-anchor="middle" textLength="37.6">PO BOX 1953,</text><text x="218.11" y="318.66" lengthAdjust="spacingAndGlyphs" style="font-size:5.69px;font-family:Arial" text-anchor="middle" textLength="61.61">MILWAUKEE, WI 53201</text></g><g clip-path="url(#cpMC4wMHw0MzIuMDB8MC4wMHw1MDQuMDA=)"><circle cx="159.34" cy="96.71" r="1.95" style="stroke-width:0.71;stroke:none;fill:#F8766D"/><path d="m235.7 93.67 2.63 4.56h-5.26z" style="stroke-width:0.71;stroke:none;fill:#00BFC4"/><text x="173.46" y="99.86" lengthAdjust="spacingAndGlyphs" style="font-size:8.80px;font-family:Arial Narrow" textLength="48.12">mprop address</text><text x="249.82" y="99.86" lengthAdjust="spacingAndGlyphs" style="font-size:8.80px;font-family:Arial Narrow" textLength="39.69">owner name</text><text x="32.63" y="65.12" lengthAdjust="spacingAndGlyphs" style="font-size:12.00px;font-family:Arial Narrow" textLength="252.23">includes 13 parcels, 19 units, and 5 distinct owner names.</text><text x="32.63" y="42.78" lengthAdjust="spacingAndGlyphs" style="font-size:18.00px;font-weight:bold;font-family:Arial Narrow" textLength="293.31">POWER PROPERTY MGMT INC etc Group</text></g></svg>