<svg xmlns="http://www.w3.org/2000/svg" width="768" height="768" class="svglite" viewBox="0 0 576 576"><defs><style>.svglite circle,.svglite line,.svglite polygon,.svglite polyline,.svglite rect{fill:none;stroke:#000;stroke-linecap:round;stroke-linejoin:round;stroke-miterlimit:10}.svglite text{white-space:pre}</style></defs><rect width="100%" height="100%" style="stroke:none;fill:#fff"/><defs><clipPath id="cpMC4wMHw1NzYuMDB8MC4wMHw1NzYuMDA="><path d="M0 0h576v576H0z"/></clipPath></defs><g clip-path="url(#cpMC4wMHw1NzYuMDB8MC4wMHw1NzYuMDA=)"><path d="M0 0h576v576H0z" style="stroke-width:1.07;stroke:none;fill:#fff"/></g><defs><clipPath id="cpMzIuNjN8NTQ2LjExfDEyMC44Nnw1NDMuMzc="><path d="M32.63 120.86h513.48v422.51H32.63z"/></clipPath></defs><g clip-path="url(#cpMzIuNjN8NTQ2LjExfDEyMC44Nnw1NDMuMzc=)"><path d="m144.51 524.17 1.18-1.58 1.17-1.58 1.16-1.58 1.14-1.6 1.14-1.59 1.12-1.61 1.12-1.61 1.1-1.61 1.09-1.62 1.09-1.63 1.07-1.63 1.06-1.64 1.05-1.64 1.03-1.65 1.03-1.66 1.02-1.66 1-1.67 1-1.67.98-1.68.97-1.68.97-1.69.95-1.69.94-1.7.93-1.71.91-1.71.91-1.72.9-1.72.88-1.73.88-1.74.86-1.74.85-1.75.85-1.75.83-1.76.82-1.76.81-1.77.79-1.77.79-1.79.78-1.78.76-1.79.76-1.8.74-1.81.73-1.8.73-1.82.71-1.82.7-1.83.69-1.83.68-1.84.66-1.84.66-1.85.64-1.86.64-1.86.62-1.86.62-1.88.6-1.87.59-1.89.58-1.89.57-1.89.56-1.9.54-1.91.54-1.91.53-1.92.51-1.92.5-1.93.5-1.94.48-1.94.47-1.95.46-1.95.45-1.96.44-1.96.43-1.97.41-1.97.41-1.98.39-1.99.39-1.99.37-2 .36-2.01.35-2.01.34-2.01.33-2.02.32-2.03.31-2.03.29-2.04.29-2.04.27-2.05.27-2.06.25-2.06.24-2.06.23-2.08.23-2.07.2-2.09.2-2.09.19-2.09.18-2.1.16-2.11.16-2.11.14-2.12.13-2.13.13-2.12.11-2.14M144.51 524.17l-.52-1.68-.53-1.68-.54-1.66-.55-1.66-.55-1.65-.56-1.64-.57-1.63-.57-1.63-.58-1.62-.59-1.61-.6-1.6-.61-1.59-.61-1.59-.62-1.57-.63-1.57-.64-1.57-.64-1.55-.65-1.55-.66-1.54-.66-1.53-.68-1.52-.68-1.51-.69-1.51-.7-1.5-.7-1.49-.71-1.48-.72-1.48-.73-1.46-.73-1.46-.75-1.46-.75-1.44-.75-1.43-.77-1.43-.77-1.42-.78-1.41-.79-1.41-.8-1.39-.8-1.39-.81-1.38-.82-1.37-.82-1.37-.84-1.35-.84-1.35-.85-1.34-.85-1.33-.87-1.33-.87-1.31-.88-1.31-.88-1.3-.9-1.3-.9-1.28-.91-1.28-.92-1.27-.92-1.26-.94-1.25-.94-1.25-.94-1.24-.96-1.22-.96-1.23-.97-1.21-.98-1.21-.98-1.19-1-1.19-1-1.19-1.01-1.17-1.01-1.17-1.03-1.15-1.03-1.15-1.04-1.15-1.04-1.13-1.06-1.13-1.06-1.12-1.07-1.11-1.07-1.1-1.09-1.09-1.09-1.09-1.1-1.08-1.11-1.07-1.11-1.06-1.12-1.06-1.13-1.05-1.14-1.04-1.15-1.03-1.15-1.02-1.16-1.02-1.17-1-1.17-1-1.19-1-1.19-.98-1.2-.98-1.2-.96-1.21-.96-1.23-.96-1.22-.94-1.24-.94-1.24-.93-1.26-.92-1.26-.91-1.26-.9" style="stroke-width:1.07;stroke:#000;stroke-opacity:.1;stroke-linecap:butt"/><path d="m144.51 524.17 1.07-1.63 1.07-1.64 1.05-1.64 1.05-1.64 1.04-1.65 1.03-1.66 1.02-1.66 1.01-1.66 1-1.67 1-1.67.98-1.68.98-1.68.97-1.68.96-1.69.95-1.7.94-1.7.93-1.7.93-1.71.91-1.71.91-1.72.9-1.72.89-1.73.88-1.73.87-1.74.87-1.74.85-1.75.85-1.75.84-1.75.82-1.76.82-1.76.82-1.77.8-1.77.79-1.78.79-1.78.77-1.79.77-1.79.76-1.8.75-1.8.74-1.8.73-1.81.73-1.82.71-1.81.71-1.83.7-1.82.69-1.84.68-1.83.67-1.84.66-1.85.66-1.85.64-1.86.64-1.86.63-1.86.62-1.87.61-1.87.6-1.88.59-1.88.59-1.89.57-1.89.57-1.9.56-1.9.55-1.9.54-1.91.53-1.92.52-1.92.52-1.92.51-1.93.49-1.93.49-1.94.48-1.94.47-1.95.46-1.95.46-1.96.44-1.96.44-1.96.43-1.97.42-1.98.41-1.97.4-1.99.39-1.98.38-2 .38-1.99.36-2.01.36-2 .35-2.01.34-2.02.33-2.02.33-2.02.31-2.03.3-2.03.3-2.04.29-2.04.28-2.05.27-2.05.26-2.06.25-2.06.25-2.07.23-2.07.23-2.07.22-2.08M144.51 524.17l-.6-1.61-.6-1.59-.61-1.59-.61-1.59-.62-1.58-.63-1.57-.63-1.56-.64-1.56-.65-1.55-.65-1.55-.66-1.54-.66-1.53-.67-1.53-.68-1.52-.68-1.52-.68-1.51-.7-1.5-.7-1.49-.7-1.49-.72-1.49-.71-1.47-.73-1.47-.73-1.47-.73-1.45-.75-1.45-.74-1.45-.76-1.44-.76-1.43-.77-1.43-.77-1.42-.78-1.41-.78-1.41-.79-1.4-.8-1.39-.8-1.39-.81-1.38-.82-1.38-.82-1.36-.83-1.37-.83-1.35-.84-1.35-.85-1.35-.85-1.33-.86-1.33-.86-1.33-.87-1.32-.88-1.31-.88-1.3-.89-1.3-.89-1.3-.9-1.28-.91-1.28-.91-1.28-.92-1.26-.92-1.27-.94-1.25-.93-1.25-.94-1.24-.95-1.24-.96-1.23-.96-1.22-.97-1.22-.97-1.21-.98-1.2-.99-1.2-.99-1.19-1-1.19-1-1.17-1.01-1.18-1.02-1.16-1.02-1.16-1.03-1.16-1.03-1.14-1.04-1.14-1.05-1.14-1.05-1.13-1.06-1.12-1.06-1.11-1.07-1.11-1.08-1.11-1.08-1.09-1.09-1.09-1.1-1.09-1.1-1.07-1.1-1.07-1.12-1.07-1.12-1.06-1.12-1.05-1.13-1.05-1.14-1.04-1.14-1.03-1.15-1.02-1.16-1.03-1.16-1.01-1.17-1.01-1.17-1-1.18-.99-1.19-.99-1.19-.98" style="stroke-width:1.07;stroke:#000;stroke-opacity:.1;stroke-linecap:butt"/><path d="m144.51 524.17.96-1.69.96-1.69.96-1.69.94-1.7.94-1.7.94-1.71.92-1.7.92-1.72.92-1.71.91-1.72.9-1.72.89-1.72.89-1.73.88-1.73.87-1.74.87-1.74.86-1.74.86-1.74.85-1.75.84-1.76.83-1.75.83-1.76.82-1.76.82-1.77.81-1.77.8-1.77.8-1.78.79-1.78.78-1.78.78-1.79.77-1.79.76-1.79.76-1.8.75-1.8.74-1.8.74-1.81.73-1.81.72-1.81.72-1.82.71-1.82.71-1.82.69-1.83.69-1.83.69-1.84.68-1.84.67-1.84.66-1.84.66-1.85.66-1.85.64-1.86.64-1.86.63-1.86.63-1.86.62-1.87.61-1.87.61-1.88.6-1.88.59-1.88.59-1.89.58-1.89.57-1.89.57-1.9.56-1.9.55-1.9.55-1.91.54-1.91.53-1.91.53-1.92.52-1.92.52-1.92.51-1.93.5-1.93.49-1.93.49-1.94.48-1.94.48-1.94.47-1.95.46-1.95.46-1.96.45-1.96.44-1.96.43-1.96.43-1.97.43-1.97.41-1.98.41-1.98.41-1.98.39-1.98.39-1.99.39-1.99.38-2 .37-2 .36-2 .36-2.01.35-2.01.34-2.01.34-2.02.33-2.02.33-2.02M144.51 524.17l-.67-1.53-.68-1.52-.68-1.52-.68-1.51-.69-1.5-.7-1.51-.69-1.49-.71-1.5-.7-1.48-.72-1.49-.71-1.47-.72-1.48-.73-1.47-.73-1.46-.73-1.46-.74-1.45-.75-1.45-.75-1.45-.75-1.44-.76-1.43-.76-1.43-.77-1.43-.77-1.42-.77-1.42-.78-1.41-.79-1.41-.79-1.4-.79-1.4-.8-1.39-.8-1.39-.81-1.38-.81-1.38-.82-1.37-.82-1.37-.83-1.36-.83-1.36-.83-1.36-.84-1.35-.85-1.34-.84-1.34-.86-1.34-.86-1.33-.86-1.33-.87-1.32-.87-1.31-.87-1.32-.88-1.3-.89-1.31-.89-1.29-.89-1.3-.9-1.28-.91-1.29-.9-1.28-.92-1.27-.91-1.27-.93-1.26-.92-1.26-.93-1.26-.94-1.25-.94-1.24-.94-1.24-.95-1.24-.95-1.23-.96-1.23-.97-1.22-.96-1.22-.97-1.21-.98-1.2-.98-1.21-.99-1.2-.99-1.19-.99-1.19-1-1.18-1.01-1.18-1-1.17-1.02-1.17-1.01-1.17-1.03-1.16-1.02-1.15-1.03-1.15-1.04-1.15-1.04-1.14-1.04-1.13-1.05-1.14-1.06-1.12-1.06-1.12-1.06-1.12-1.07-1.11-1.07-1.11-1.08-1.1-1.08-1.1-1.08-1.09-1.09-1.09-1.1-1.09-1.1-1.08-1.1-1.07-1.11-1.07-1.11-1.06-1.12-1.06" style="stroke-width:1.07;stroke:#000;stroke-opacity:.1;stroke-linecap:butt"/><path d="m144.51 524.17.86-1.75.85-1.74.85-1.75.85-1.75.84-1.75.84-1.76.83-1.75.83-1.76.82-1.76.82-1.77.82-1.76.81-1.77.81-1.77.8-1.77.8-1.78.79-1.78.79-1.78.79-1.78.78-1.78.78-1.79.77-1.79.77-1.79.76-1.79.76-1.8.75-1.8.75-1.8.75-1.8.74-1.8.74-1.81.73-1.81.73-1.81.72-1.82.72-1.81.72-1.82.71-1.82.7-1.82.71-1.83.69-1.83.7-1.83.69-1.83.68-1.83.68-1.84.68-1.84.67-1.84.67-1.84.66-1.85.66-1.85.65-1.85.65-1.85.65-1.86.64-1.86.64-1.85.63-1.87.63-1.86.62-1.87.62-1.87.62-1.87.61-1.87.6-1.88.6-1.87.6-1.88.6-1.89.58-1.88.59-1.89.58-1.89.57-1.89.58-1.89.56-1.9.57-1.9.55-1.9.56-1.9.55-1.91.54-1.91.54-1.91.54-1.91.53-1.91.53-1.92.52-1.92.52-1.92.52-1.92.51-1.93.5-1.93.51-1.93.49-1.93.5-1.94.48-1.94.49-1.93.48-1.95.47-1.94.47-1.95.47-1.95.46-1.95.46-1.95.46-1.96.44-1.96.45-1.96.44-1.96.44-1.96.43-1.97M144.51 524.17l-.75-1.45-.75-1.45-.75-1.44-.75-1.44-.76-1.43-.76-1.43-.76-1.43-.77-1.43-.77-1.42-.77-1.42-.78-1.42-.78-1.41-.78-1.41-.78-1.41-.79-1.4-.79-1.4-.8-1.4-.79-1.39-.8-1.39-.81-1.39-.8-1.39-.81-1.38-.81-1.38-.82-1.37-.82-1.37-.82-1.37-.82-1.37-.83-1.36-.83-1.36-.84-1.36-.83-1.35-.84-1.35-.84-1.35-.85-1.34-.85-1.34-.85-1.34-.86-1.33-.85-1.33-.86-1.33-.87-1.32-.87-1.33-.87-1.31-.87-1.32-.87-1.31-.88-1.31-.89-1.31-.88-1.3-.89-1.3-.89-1.29-.9-1.3-.89-1.29-.9-1.28-.91-1.29-.9-1.28-.91-1.27-.92-1.28-.91-1.27-.92-1.26-.92-1.27-.93-1.26-.92-1.26-.93-1.25-.94-1.25-.94-1.25-.94-1.25-.94-1.24-.94-1.24-.95-1.24-.96-1.23-.95-1.23-.96-1.22-.96-1.23-.96-1.22-.97-1.21-.97-1.22-.98-1.21-.97-1.21-.98-1.2-.98-1.2-.99-1.2-.99-1.19-.99-1.19-.99-1.19-1-1.19-1-1.18-1.01-1.18-1-1.17-1.01-1.18-1.02-1.17-1.01-1.16-1.02-1.16-1.02-1.16-1.03-1.16-1.03-1.15-1.03-1.16-1.03-1.14-1.04-1.15-1.04-1.14-1.04-1.13" style="stroke-width:1.07;stroke:#000;stroke-opacity:.1;stroke-linecap:butt"/><path d="m144.51 524.17.75-1.8.75-1.8.75-1.8.74-1.81.75-1.8.74-1.8.74-1.81.74-1.81.73-1.81.73-1.81.73-1.81.73-1.81.73-1.81.72-1.81.73-1.82.72-1.82.71-1.81.72-1.82.71-1.82.71-1.82.71-1.82.71-1.83.7-1.82.7-1.83.7-1.82.7-1.83.7-1.83.69-1.83.69-1.83.69-1.83.69-1.84.68-1.83.69-1.84.68-1.83.68-1.84.67-1.84.68-1.84.67-1.84.67-1.84.66-1.85.67-1.84.66-1.85.66-1.85.66-1.84.66-1.85.65-1.85.65-1.86.65-1.85.65-1.85.65-1.86.64-1.85.64-1.86.64-1.86.64-1.86.63-1.86.64-1.86.63-1.87.62-1.86.63-1.87.62-1.86.62-1.87.62-1.87.62-1.87.62-1.87.61-1.87.61-1.88.61-1.87.6-1.88.61-1.87.6-1.88.6-1.88.6-1.88.59-1.88.6-1.88.59-1.89.59-1.88.58-1.89.59-1.89.58-1.88.58-1.89.58-1.89.57-1.9.58-1.89.57-1.89.57-1.9.56-1.89.57-1.9.56-1.9.56-1.9.56-1.9.56-1.9.55-1.91.55-1.9.55-1.91.55-1.9.55-1.91.54-1.91.54-1.91.54-1.91M144.51 524.17l-.82-1.37-.82-1.37-.83-1.37-.82-1.36-.83-1.37-.82-1.36-.83-1.36-.83-1.36-.84-1.36-.83-1.36-.83-1.35-.84-1.35-.84-1.36-.84-1.34-.84-1.35-.84-1.35-.85-1.35-.84-1.34-.85-1.34-.85-1.34-.85-1.34-.85-1.34-.85-1.33-.86-1.34-.85-1.33-.86-1.33-.86-1.33-.86-1.33-.87-1.32-.86-1.33-.86-1.32-.87-1.32-.87-1.32-.87-1.32-.87-1.32-.87-1.31-.88-1.31-.88-1.32-.87-1.31-.88-1.31-.88-1.3-.88-1.31-.89-1.3-.88-1.3-.89-1.31-.89-1.29-.89-1.3-.89-1.3-.89-1.29-.9-1.3-.89-1.29-.9-1.29-.9-1.28-.9-1.29-.9-1.29-.91-1.28-.9-1.28-.91-1.28-.9-1.28-.91-1.28-.92-1.27-.91-1.28-.91-1.27-.92-1.27-.91-1.27-.92-1.27-.92-1.26-.93-1.27-.92-1.26-.92-1.26-.93-1.26-.93-1.26-.93-1.25-.93-1.26-.93-1.25-.93-1.25-.94-1.25-.94-1.25-.93-1.25-.94-1.24-.95-1.25-.94-1.24-.94-1.24-.95-1.24-.95-1.24-.95-1.23-.95-1.24-.95-1.23-.95-1.23-.96-1.23-.95-1.23-.96-1.22-.96-1.23-.96-1.22-.97-1.22-.96-1.22-.97-1.22-.96-1.22-.97-1.21" style="stroke-width:1.07;stroke:#000;stroke-opacity:.1;stroke-linecap:butt"/><path d="m144.51 524.17.64-1.86.65-1.85.64-1.86.65-1.85.65-1.86.64-1.85.65-1.86.64-1.85.65-1.86.64-1.85.65-1.86.64-1.85.65-1.86.65-1.85.64-1.86.65-1.85.64-1.86.65-1.85.64-1.86.65-1.86.64-1.85.65-1.86.65-1.85.64-1.86.65-1.85.64-1.86.65-1.85.64-1.86.65-1.85.64-1.86.65-1.85.65-1.86.64-1.85.65-1.86.64-1.85.65-1.86.64-1.85.65-1.86.64-1.85.65-1.86.65-1.85.64-1.86.65-1.85.64-1.86.65-1.85.64-1.86.65-1.85.64-1.86.65-1.85.65-1.86.64-1.85.65-1.86.64-1.85.65-1.86.64-1.85.65-1.86.64-1.85.65-1.86.65-1.86.64-1.85.65-1.86.64-1.85.65-1.86.64-1.85.65-1.86.64-1.85.65-1.86.65-1.85.64-1.86.65-1.85.64-1.86.65-1.85.64-1.86.65-1.85.64-1.86.65-1.85.65-1.86.64-1.85.65-1.86.64-1.85.65-1.86.64-1.85.65-1.86.64-1.85.65-1.86.65-1.85.64-1.86.65-1.85.64-1.86.65-1.85.64-1.86.65-1.85.64-1.86.65-1.85.65-1.86.64-1.85.65-1.86.64-1.85.65-1.86M144.51 524.17l-.9-1.3-.89-1.29-.89-1.29-.9-1.29-.89-1.3-.9-1.29-.89-1.29-.9-1.3-.89-1.29-.9-1.29-.89-1.29-.89-1.3-.9-1.29-.89-1.29-.9-1.3-.89-1.29-.9-1.29-.89-1.29-.89-1.3-.9-1.29-.89-1.29-.9-1.3-.89-1.29-.9-1.29-.89-1.29-.89-1.3-.9-1.29-.89-1.29-.9-1.3-.89-1.29-.9-1.29-.89-1.29-.9-1.3-.89-1.29-.89-1.29-.9-1.3-.89-1.29-.9-1.29-.89-1.29-.9-1.3-.89-1.29-.89-1.29-.9-1.3-.89-1.29-.9-1.29-.89-1.29-.9-1.3-.89-1.29-.89-1.29-.9-1.3-.89-1.29-.9-1.29-.89-1.29-.9-1.3-.89-1.29-.9-1.29-.89-1.29-.89-1.3-.9-1.29-.89-1.29-.9-1.3-.89-1.29-.9-1.29-.89-1.29-.89-1.3-.9-1.29-.89-1.29-.9-1.3-.89-1.29-.9-1.29-.89-1.29-.89-1.3-.9-1.29-.89-1.29-.9-1.3-.89-1.29-.9-1.29-.89-1.29-.9-1.3-.89-1.29-.89-1.29-.9-1.3-.89-1.29-.9-1.29-.89-1.29-.9-1.3-.89-1.29-.89-1.29-.9-1.3-.89-1.29-.9-1.29-.89-1.29-.9-1.3-.89-1.29-.89-1.29-.9-1.3-.89-1.29-.9-1.29-.89-1.29M370.51 362.81l-1.63-.3-1.63-.29-1.64-.29-1.63-.3-1.63-.29-1.63-.29-1.63-.28-1.63-.29-1.63-.28-1.64-.29-1.63-.28-1.63-.28-1.63-.28-1.64-.28-1.63-.27-1.63-.28-1.63-.27-1.64-.27-1.63-.27-1.63-.27-1.64-.27-1.63-.26-1.63-.27-1.64-.26-1.63-.26-1.64-.26-1.63-.26-1.63-.26-1.64-.25-1.63-.26-1.64-.25-1.63-.25-1.64-.25-1.63-.25-1.64-.25-1.63-.24-1.64-.25-1.64-.24-1.63-.24-1.64-.24-1.63-.24-1.64-.24-1.64-.23-1.63-.24-1.64-.23-1.64-.23-1.63-.23-1.64-.23-1.64-.22-1.63-.23-1.64-.22-1.64-.22-1.64-.23-1.63-.22-1.64-.21-1.64-.22-1.64-.22-1.64-.21-1.64-.21-1.63-.21-1.64-.21-1.64-.21-1.64-.21-1.64-.2-1.64-.2-1.64-.21-1.64-.2-1.64-.2-1.64-.19-1.64-.2-1.64-.19-1.64-.2-1.64-.19-1.64-.19-1.64-.19-1.64-.19-1.64-.18-1.64-.19-1.64-.18-1.64-.18-1.64-.18-1.65-.18-1.64-.18-1.64-.17-1.64-.18-1.64-.17-1.65-.17-1.64-.17-1.64-.17-1.64-.17-1.65-.17-1.64-.16-1.64-.16-1.64-.16-1.65-.16-1.64-.16-1.64-.16-1.65-.16-1.64-.15" style="stroke-width:1.07;stroke:#000;stroke-opacity:.1;stroke-linecap:butt"/><path d="m144.51 524.17.54-1.91.54-1.91.54-1.91.55-1.91.54-1.91.55-1.9.55-1.91.56-1.9.55-1.9.56-1.9.56-1.9.57-1.9.56-1.9.57-1.89.57-1.9.57-1.89.57-1.9.58-1.89.58-1.89.58-1.89.58-1.89.58-1.88.59-1.89.59-1.88.59-1.89.59-1.88.6-1.88.6-1.88.6-1.88.6-1.88.6-1.88.61-1.87.61-1.88.61-1.87.61-1.87.61-1.87.62-1.87.62-1.87.62-1.87.63-1.87.62-1.86.63-1.87.63-1.86.63-1.86.64-1.86.63-1.86.64-1.86.65-1.86.64-1.85.64-1.86.65-1.85.65-1.86.65-1.85.66-1.85.65-1.85.66-1.85.66-1.84.67-1.85.66-1.84.67-1.85.67-1.84.67-1.84.67-1.84.68-1.84.68-1.84.68-1.84.68-1.83.69-1.84.68-1.83.69-1.83.69-1.83.7-1.83.69-1.83.7-1.83.7-1.83.7-1.82.71-1.83.71-1.82.7-1.82.71-1.82.72-1.82.71-1.82.72-1.82.72-1.81.72-1.82.73-1.81.72-1.82.73-1.81.73-1.81.73-1.81.74-1.81.74-1.8.74-1.81.74-1.8.74-1.81.75-1.8.75-1.8.75-1.8.75-1.8M144.51 524.17l-.97-1.22-.97-1.21-.96-1.22-.97-1.22-.96-1.22-.96-1.23-.96-1.22-.96-1.23-.96-1.23-.95-1.23-.96-1.23-.95-1.23-.95-1.23-.95-1.24-.94-1.24-.95-1.24-.95-1.24-.94-1.24-.94-1.24-.94-1.25-.94-1.25-.93-1.24-.94-1.25-.93-1.26-.94-1.25-.93-1.25-.93-1.26-.92-1.26-.93-1.26-.93-1.26-.92-1.26-.92-1.27-.92-1.26-.92-1.27-.92-1.27-.91-1.27-.92-1.27-.91-1.28-.91-1.27-.91-1.28-.91-1.28-.9-1.28-.91-1.28-.9-1.28-.9-1.29-.9-1.28-.9-1.29-.9-1.29-.9-1.29-.89-1.29-.89-1.3-.9-1.3-.89-1.29-.88-1.3-.89-1.3-.89-1.31-.88-1.3-.88-1.3-.88-1.31-.88-1.31-.88-1.31-.87-1.31-.88-1.32-.87-1.31-.87-1.32-.87-1.32-.87-1.32-.87-1.32-.86-1.32-.87-1.32-.86-1.33-.86-1.33-.86-1.33-.86-1.33-.86-1.33-.85-1.33-.85-1.34-.86-1.34-.85-1.34-.84-1.34-.85-1.34-.85-1.34-.84-1.35-.84-1.34-.85-1.35-.84-1.35-.83-1.35-.84-1.36-.84-1.35-.83-1.36-.83-1.36-.83-1.35-.83-1.37-.83-1.36-.82-1.36-.83-1.37-.82-1.37-.82-1.36-.82-1.37" style="stroke-width:1.07;stroke:#000;stroke-opacity:.1;stroke-linecap:butt"/><path d="m144.51 524.17.43-1.97.44-1.96.44-1.97.44-1.96.45-1.96.45-1.95.46-1.95.46-1.96.47-1.94.47-1.95.48-1.95.48-1.94.48-1.94.49-1.93.49-1.94.5-1.93.5-1.93.51-1.93.51-1.93.51-1.92.52-1.92.53-1.92.52-1.92.54-1.91.53-1.92.54-1.91.55-1.9.55-1.91.55-1.9.56-1.9.56-1.9.57-1.9.57-1.89.58-1.89.58-1.89.58-1.89.59-1.89.59-1.88.6-1.88.6-1.88.61-1.87.61-1.88.62-1.87.61-1.87.63-1.86.63-1.87.63-1.86.64-1.86.64-1.85.64-1.86.65-1.85.66-1.85.66-1.85.66-1.85.67-1.84.67-1.84.67-1.84.68-1.84.69-1.83.69-1.84.69-1.83.7-1.82.7-1.83.71-1.82.71-1.82.71-1.82.72-1.82.73-1.81.73-1.81.73-1.81.74-1.81.74-1.8.74-1.81.75-1.8.76-1.8.76-1.79.76-1.79.77-1.8.77-1.78.78-1.79.78-1.78.78-1.79.79-1.78.8-1.77.79-1.78.81-1.77.8-1.77.82-1.77.81-1.77.82-1.76.83-1.76.82-1.76.84-1.76.84-1.75.84-1.75.84-1.75.85-1.75.86-1.75.86-1.74M144.51 524.17l-1.05-1.14-1.04-1.14-1.03-1.14-1.04-1.15-1.03-1.15-1.03-1.16-1.02-1.15-1.02-1.16-1.02-1.17-1.02-1.16-1.01-1.17-1.01-1.17-1.01-1.18-1-1.18-1-1.18-1-1.18-.99-1.19-1-1.19-.98-1.2-.99-1.2-.98-1.2-.98-1.2-.98-1.21-.97-1.21-.97-1.21-.97-1.22-.96-1.22-.97-1.22-.95-1.23-.96-1.23-.95-1.23-.95-1.24-.95-1.24-.94-1.24-.94-1.24-.94-1.25-.93-1.25-.93-1.26-.93-1.26-.92-1.26-.92-1.26-.92-1.27-.92-1.27-.91-1.27-.91-1.28-.91-1.28-.9-1.29-.9-1.28-.9-1.29-.89-1.29-.89-1.3-.89-1.3-.89-1.3-.88-1.31-.88-1.31-.88-1.31-.87-1.31-.87-1.32-.87-1.32-.86-1.33-.86-1.32-.86-1.34-.85-1.33-.85-1.34-.85-1.34-.85-1.34-.84-1.35-.84-1.35-.84-1.35-.83-1.36-.83-1.36-.83-1.36-.82-1.36-.83-1.37-.81-1.38-.82-1.37-.81-1.38-.81-1.38-.81-1.38-.8-1.39-.8-1.39-.8-1.4-.79-1.4-.79-1.4-.79-1.4-.78-1.41-.79-1.41-.78-1.41-.77-1.42-.77-1.42-.77-1.42-.77-1.42-.76-1.43-.76-1.44-.76-1.43-.76-1.44-.75-1.44-.75-1.45-.74-1.44M370.51 362.81l-1.65-.15-1.64-.16-1.64-.16-1.65-.16-1.64-.16-1.64-.16-1.65-.16-1.64-.16-1.64-.17-1.64-.17-1.65-.17-1.64-.17-1.64-.17-1.64-.17-1.64-.18-1.65-.17-1.64-.18-1.64-.18-1.64-.18-1.64-.18-1.64-.18-1.64-.19-1.65-.18-1.64-.19-1.64-.19-1.64-.19-1.64-.19-1.64-.2-1.64-.19-1.64-.2-1.64-.19-1.64-.2-1.64-.2-1.64-.21-1.64-.2-1.63-.21-1.64-.2-1.64-.21-1.64-.21-1.64-.21-1.64-.21-1.64-.22-1.63-.21-1.64-.22-1.64-.21-1.64-.22-1.64-.23-1.63-.22-1.64-.22-1.64-.23-1.64-.22-1.63-.23-1.64-.23-1.64-.23-1.63-.23-1.64-.24-1.64-.23-1.63-.24-1.64-.24-1.63-.24-1.64-.24-1.63-.24-1.64-.25-1.64-.24-1.63-.25-1.64-.25-1.63-.25-1.64-.25-1.63-.25-1.64-.26-1.63-.25-1.63-.26-1.64-.26-1.63-.26-1.64-.26-1.63-.26-1.63-.27-1.64-.26-1.63-.27-1.63-.27-1.64-.27-1.63-.27-1.63-.27-1.64-.28-1.63-.27-1.63-.28-1.63-.28-1.64-.28-1.63-.28-1.63-.29-1.63-.28-1.63-.29-1.64-.28-1.63-.29-1.63-.29-1.63-.3-1.63-.29-1.63-.29-1.63-.3" style="stroke-width:1.07;stroke:#000;stroke-opacity:.1;stroke-linecap:butt"/><path d="m144.51 524.17.32-2.03.33-2.02.34-2.01.35-2.01.35-2.01.36-2.01.36-2 .37-2 .38-2 .38-1.99.39-1.99.4-1.98.4-1.99.41-1.98.42-1.97.42-1.97.43-1.97.44-1.97.44-1.96.45-1.95.46-1.96.46-1.95.47-1.95.47-1.94.48-1.94.49-1.94.5-1.94.5-1.93.51-1.92.51-1.93.52-1.92.53-1.91.54-1.92.54-1.91.54-1.9.56-1.91.56-1.9.57-1.89.57-1.9.58-1.89.59-1.88.59-1.88.6-1.88.61-1.88.61-1.87.62-1.87.62-1.87.64-1.86.64-1.86.64-1.85.65-1.85.66-1.85.67-1.85.67-1.84.68-1.83.68-1.84.69-1.83.7-1.83.71-1.82.71-1.82.71-1.82.73-1.81.73-1.82.74-1.8.74-1.81.75-1.8.76-1.79.76-1.8.77-1.79.78-1.78.78-1.79.79-1.78.79-1.77.81-1.77.81-1.77.81-1.77.82-1.76.83-1.76.84-1.76.84-1.75.85-1.75.85-1.74.86-1.75.87-1.73.88-1.74.88-1.73.89-1.73.89-1.72.9-1.73.91-1.71.91-1.72.92-1.71.93-1.71.93-1.7.94-1.7.95-1.7.95-1.69.96-1.69.97-1.69M144.51 524.17l-1.12-1.06-1.11-1.07-1.11-1.07-1.11-1.07-1.1-1.08-1.09-1.08-1.09-1.09-1.09-1.1-1.08-1.09-1.07-1.11-1.08-1.1-1.06-1.12-1.07-1.11-1.06-1.13-1.05-1.12-1.05-1.13-1.04-1.14-1.04-1.14-1.04-1.15-1.03-1.15-1.03-1.15-1.02-1.16-1.02-1.16-1.01-1.17-1.01-1.18-1-1.18-1-1.18-1-1.19-.99-1.19-.98-1.2-.98-1.2-.98-1.21-.97-1.21-.97-1.22-.96-1.22-.96-1.23-.95-1.23-.95-1.23-.95-1.24-.94-1.25-.93-1.25-.93-1.25-.93-1.26-.92-1.27-.92-1.27-.91-1.27-.91-1.28-.9-1.28-.9-1.29-.9-1.29-.88-1.3-.89-1.3-.88-1.31-.88-1.31-.87-1.32-.87-1.32-.86-1.33-.86-1.33-.85-1.33-.85-1.34-.84-1.35-.84-1.35-.84-1.35-.83-1.36-.82-1.37-.82-1.37-.82-1.37-.81-1.38-.81-1.38-.8-1.39-.8-1.39-.8-1.4-.79-1.4-.78-1.41-.78-1.41-.78-1.42-.77-1.42-.77-1.42-.76-1.43-.76-1.44-.75-1.44-.75-1.44-.74-1.45-.74-1.46-.73-1.46-.73-1.46-.73-1.47-.72-1.47-.72-1.48-.71-1.48-.71-1.49-.7-1.49-.7-1.5-.69-1.5-.69-1.51-.69-1.51-.68-1.52-.67-1.52-.67-1.52M174.67 140.07l.34 2.02.34 2.03.34 2.02.34 2.03.34 2.02.34 2.03.34 2.02.34 2.03.34 2.02.34 2.02.35 2.03.34 2.02.34 2.03.34 2.02.34 2.03.34 2.02.34 2.03.34 2.02.34 2.03.34 2.02.34 2.03.35 2.02.34 2.03.34 2.02.34 2.02.34 2.03.34 2.02.34 2.03.34 2.02.34 2.03.34 2.02.35 2.03.34 2.02.34 2.03.34 2.02.34 2.03.34 2.02.34 2.03.34 2.02.34 2.02.34 2.03.34 2.02.35 2.03.34 2.02.34 2.03.34 2.02.34 2.03.34 2.02.34 2.03.34 2.02.34 2.03.34 2.02.34 2.03.35 2.02.34 2.02.34 2.03.34 2.02.34 2.03.34 2.02.34 2.03.34 2.02.34 2.03.34 2.02.35 2.03.34 2.02.34 2.03.34 2.02.34 2.03.34 2.02.34 2.02.34 2.03.34 2.02.34 2.03.34 2.02.35 2.03.34 2.02.34 2.03.34 2.02.34 2.03.34 2.02.34 2.03.34 2.02.34 2.03.34 2.02.34 2.02.35 2.03.34 2.02.34 2.03.34 2.02.34 2.03.34 2.02.34 2.03.34 2.02.34 2.03.34 2.02.35 2.03.34 2.02.34 2.03.34 2.02M370.51 362.81l1.54.22 1.53.22 1.54.22 1.54.22 1.54.22 1.54.22 1.53.22 1.54.22 1.54.22 1.54.22 1.54.22 1.53.22 1.54.22 1.54.22 1.54.22 1.54.22 1.53.22 1.54.22 1.54.22 1.54.22 1.54.22 1.53.22 1.54.22 1.54.22 1.54.22 1.54.22 1.53.22 1.54.22 1.54.22 1.54.22 1.54.22 1.53.22 1.54.22 1.54.22 1.54.23 1.54.22 1.53.22 1.54.22 1.54.22 1.54.22 1.54.22 1.53.22 1.54.22 1.54.22 1.54.22 1.54.22 1.53.22 1.54.22 1.54.22 1.54.22 1.54.22 1.53.22 1.54.22 1.54.22 1.54.22 1.54.22 1.53.22 1.54.22 1.54.22 1.54.22 1.54.22 1.54.22 1.53.22 1.54.22 1.54.22 1.54.22 1.54.22 1.53.22 1.54.22 1.54.22 1.54.22 1.54.22 1.53.22 1.54.22 1.54.22 1.54.22 1.54.22 1.53.22 1.54.22 1.54.22 1.54.22 1.54.22 1.53.22 1.54.22 1.54.22 1.54.22 1.54.22 1.53.22 1.54.22 1.54.22 1.54.22 1.54.22 1.53.22 1.54.22 1.54.22 1.54.22 1.54.22 1.53.22 1.54.22" style="stroke-width:1.07;stroke:#000;stroke-opacity:.1;stroke-linecap:butt"/><path d="m144.51 524.17.22-2.08.22-2.08.24-2.07.24-2.06.26-2.06.26-2.06.27-2.05.28-2.05.28-2.04.3-2.04.31-2.03.31-2.03.32-2.03.34-2.02.34-2.01.34-2.01.36-2.01.37-2 .37-2 .39-1.99.39-1.99.4-1.98.41-1.98.42-1.97.43-1.97.43-1.97.45-1.96.45-1.95.46-1.95.48-1.95.48-1.94.48-1.94.5-1.93.51-1.93.51-1.92.53-1.92.53-1.92.54-1.91.55-1.9.56-1.9.56-1.9.58-1.89.58-1.89.6-1.88.6-1.88.61-1.87.62-1.87.63-1.87.63-1.86.65-1.85.65-1.85.67-1.85.67-1.84.68-1.84.69-1.83.7-1.83.7-1.82.72-1.82.72-1.81.73-1.81.75-1.81.75-1.8.75-1.79.77-1.79.78-1.79.78-1.78.8-1.78.8-1.77.81-1.77.82-1.76.83-1.76.84-1.76.84-1.75.86-1.74.86-1.74.88-1.74.88-1.73.89-1.73.89-1.72.91-1.72.92-1.71.92-1.71.94-1.7.94-1.7.95-1.7.96-1.69.97-1.69.97-1.68.99-1.67.99-1.68 1.01-1.66 1.01-1.67 1.02-1.66 1.03-1.65 1.04-1.65 1.04-1.64 1.06-1.64 1.06-1.64 1.08-1.63M144.51 524.17l-1.19-.99-1.19-.98-1.18-1-1.17-1-1.17-1.01-1.16-1.01-1.16-1.02-1.15-1.03-1.14-1.03-1.14-1.04-1.13-1.05-1.13-1.05-1.12-1.06-1.11-1.06-1.11-1.07-1.1-1.08-1.09-1.08-1.09-1.09-1.09-1.1-1.07-1.1-1.07-1.11-1.07-1.12-1.06-1.12-1.05-1.13-1.04-1.13-1.04-1.14-1.04-1.15-1.03-1.15-1.02-1.16-1.01-1.17-1.01-1.17-1.01-1.18-1-1.19-.99-1.19-.98-1.2-.98-1.2-.98-1.21-.96-1.22-.96-1.22-.96-1.23-.95-1.24-.94-1.24-.94-1.25-.93-1.25-.92-1.26-.92-1.27-.92-1.27-.9-1.28-.9-1.29-.9-1.29-.89-1.3-.88-1.31-.87-1.31-.87-1.32-.87-1.32-.86-1.33-.85-1.34-.84-1.34-.84-1.35-.84-1.36-.82-1.36-.82-1.37-.82-1.38-.81-1.38-.8-1.39-.8-1.39-.79-1.4-.79-1.41-.77-1.41-.78-1.42-.76-1.43-.76-1.43-.76-1.44-.75-1.44-.74-1.45-.74-1.46-.73-1.47-.72-1.47-.72-1.47-.71-1.49-.71-1.48-.7-1.5-.69-1.5-.69-1.51-.68-1.51-.67-1.53-.67-1.52-.67-1.54-.65-1.54-.66-1.54-.64-1.56-.64-1.55-.63-1.57-.63-1.57-.62-1.58-.61-1.58-.61-1.59-.61-1.6-.59-1.6" style="stroke-width:1.07;stroke:#000;stroke-opacity:.1;stroke-linecap:butt"/><path d="m144.51 524.17.11-2.14.12-2.13.13-2.12.15-2.12.15-2.11.17-2.11.18-2.1.18-2.09.2-2.09.21-2.09.22-2.08.23-2.07.24-2.06.26-2.07.26-2.05.28-2.05.28-2.04.3-2.04.31-2.03.31-2.03.33-2.02.34-2.02.35-2.01.37-2 .37-2 .38-1.99.4-1.99.4-1.98.42-1.97.43-1.97.44-1.97.45-1.95.46-1.96.47-1.94.48-1.94.49-1.94.51-1.93.51-1.92.53-1.92.53-1.91.55-1.91.56-1.9.57-1.9.58-1.89.59-1.88.6-1.88.61-1.87.63-1.87.63-1.86.65-1.85.65-1.85.67-1.85.68-1.83.69-1.84.7-1.82.71-1.82.72-1.82.73-1.81.75-1.8.75-1.8.77-1.79.77-1.79.79-1.78.8-1.77.81-1.77.82-1.77.83-1.75.84-1.76.85-1.74.87-1.74.87-1.74.89-1.73.89-1.72.91-1.72.92-1.71.93-1.71.94-1.7.95-1.69.96-1.69.97-1.69.99-1.68.99-1.67 1.01-1.66 1.01-1.66 1.03-1.66 1.04-1.65 1.05-1.64 1.06-1.64 1.07-1.63 1.08-1.63 1.09-1.62 1.11-1.61 1.11-1.61 1.13-1.61 1.13-1.6 1.15-1.59 1.16-1.58 1.17-1.59 1.18-1.57M144.51 524.17l-1.27-.91-1.26-.91-1.25-.92-1.24-.93-1.24-.94-1.23-.94-1.22-.95-1.21-.96-1.21-.97-1.2-.98-1.19-.98-1.18-.99-1.18-1-1.16-1.01-1.16-1.02-1.16-1.02-1.14-1.03-1.14-1.04-1.13-1.05-1.12-1.05-1.12-1.07-1.1-1.07-1.1-1.08-1.1-1.08-1.08-1.1-1.08-1.1-1.07-1.11-1.06-1.12-1.05-1.13-1.05-1.13-1.04-1.14-1.03-1.15-1.02-1.16-1.02-1.17-1.01-1.17-1-1.18-.99-1.19-.99-1.2-.97-1.21-.97-1.21-.97-1.22-.95-1.23-.95-1.24-.94-1.24-.93-1.26-.93-1.26-.91-1.27-.91-1.28-.9-1.28-.9-1.29-.89-1.3-.87-1.31-.88-1.32-.86-1.32-.86-1.34-.85-1.34-.84-1.34-.83-1.36-.83-1.37-.81-1.37-.82-1.38-.8-1.39-.79-1.39-.79-1.4-.78-1.42-.77-1.42-.77-1.42-.76-1.44-.75-1.44-.74-1.45-.73-1.46-.73-1.47-.72-1.47-.71-1.49-.71-1.49-.69-1.5-.69-1.5-.69-1.52-.67-1.52-.67-1.53-.65-1.54-.66-1.55-.64-1.55-.63-1.56-.63-1.57-.62-1.58-.62-1.59-.6-1.59-.6-1.6-.59-1.61-.58-1.62-.58-1.62-.57-1.64-.56-1.64-.55-1.65-.54-1.66-.54-1.66-.53-1.67-.52-1.68" style="stroke-width:1.07;stroke:#000;stroke-opacity:.1;stroke-linecap:butt"/><path d="m55.97 396.18 1.75.3 1.74.29 1.75.27 1.73.25 1.74.24 1.73.22 1.72.2 1.72.18 1.72.16 1.71.15 1.71.13 1.7.11 1.7.1 1.69.07 1.69.06 1.69.04 1.68.02 1.68.01 1.67-.01 1.67-.04 1.66-.04 1.67-.07 1.65-.08 1.65-.1 1.65-.12 1.64-.14 1.64-.15 1.64-.18 1.63-.19 1.62-.2 1.62-.23 1.62-.24 1.61-.26 1.61-.28 1.61-.3 1.6-.31 1.59-.34 1.59-.34 1.59-.37 1.58-.39 1.58-.4 1.58-.42 1.57-.44 1.56-.45 1.56-.48 1.56-.49 1.55-.51 1.55-.53 1.55-.54 1.54-.56 1.53-.58 1.53-.6 1.53-.62 1.52-.63 1.52-.65 1.52-.67 1.51-.68 1.5-.71 1.5-.72 1.5-.74 1.49-.76 1.49-.77 1.48-.79 1.48-.82 1.48-.82 1.47-.85 1.47-.86 1.46-.88 1.46-.9 1.45-.92 1.45-.93 1.45-.96 1.44-.97 1.44-.98 1.43-1.01 1.43-1.02 1.42-1.04 1.42-1.06 1.41-1.08 1.42-1.09 1.4-1.12 1.4-1.13 1.4-1.14 1.4-1.17 1.39-1.18 1.38-1.2 1.38-1.22 1.38-1.23 1.37-1.26 1.37-1.27 1.36-1.29 1.36-1.31 1.36-1.32 1.35-1.34 1.34-1.36 1.35-1.38 1.33-1.4 1.34-1.41 1.33-1.43" style="stroke-width:1.07;stroke:#000;stroke-opacity:.1;stroke-linecap:butt"/><path d="m55.97 396.18 1.72.17 1.71.16 1.71.14 1.71.13 1.7.11 1.7.1 1.7.08 1.69.07 1.69.05 1.68.04 1.69.02 1.67.01 1.68-.01 1.67-.02 1.67-.04 1.66-.05 1.66-.07 1.66-.08 1.65-.1 1.65-.11 1.64-.13 1.65-.14 1.63-.16 1.64-.17 1.63-.19 1.63-.2 1.62-.22 1.62-.23 1.62-.25 1.61-.26 1.61-.27 1.6-.3 1.6-.3 1.6-.33 1.6-.33 1.59-.36 1.58-.36 1.59-.39 1.58-.39 1.57-.42 1.58-.42 1.57-.44 1.56-.46 1.56-.47 1.56-.49 1.56-.5 1.55-.52 1.54-.53 1.55-.55 1.54-.56 1.53-.58 1.54-.59 1.52-.61 1.53-.62 1.52-.64 1.52-.65 1.51-.67 1.51-.68 1.51-.7 1.51-.71 1.5-.73 1.49-.74 1.49-.76 1.49-.77 1.49-.79 1.48-.8 1.48-.82 1.47-.83 1.47-.85 1.47-.86 1.46-.88 1.46-.89 1.46-.91 1.45-.92 1.45-.94 1.45-.95 1.44-.96 1.44-.99 1.43-.99 1.43-1.02 1.43-1.02 1.42-1.05 1.42-1.05 1.42-1.08 1.41-1.08 1.41-1.11 1.41-1.11 1.4-1.13 1.4-1.15 1.39-1.16 1.39-1.18 1.39-1.19 1.38-1.21 1.38-1.22 1.38-1.24 1.37-1.25 1.37-1.27 1.37-1.28 1.36-1.3" style="stroke-width:1.07;stroke:#000;stroke-opacity:.1;stroke-linecap:butt"/><path d="m55.97 396.18 1.68.03 1.69.03 1.68.02h1.67l1.68-.01 1.67-.02 1.67-.04 1.66-.05 1.66-.05 1.66-.08 1.66-.08 1.65-.1 1.65-.1 1.65-.12 1.64-.14 1.64-.14 1.64-.16 1.63-.17 1.64-.18 1.63-.19 1.62-.21 1.63-.22 1.62-.23 1.61-.24 1.62-.26 1.61-.27 1.61-.28 1.6-.29 1.6-.3 1.6-.32 1.6-.33 1.59-.34 1.59-.35 1.59-.37 1.59-.38 1.58-.39 1.58-.4 1.57-.42 1.57-.42 1.57-.44 1.57-.46 1.56-.46 1.57-.48 1.55-.48 1.56-.51 1.55-.51 1.55-.52 1.54-.54 1.55-.55 1.54-.56 1.53-.58 1.54-.59 1.53-.59 1.53-.62 1.52-.62 1.52-.64 1.52-.64 1.52-.66 1.51-.68 1.51-.68 1.51-.7 1.5-.71 1.5-.72 1.5-.73 1.5-.75 1.49-.76 1.49-.77 1.49-.78 1.48-.8 1.48-.81 1.48-.82 1.47-.83 1.47-.84 1.47-.86 1.47-.87 1.46-.88 1.46-.89 1.46-.91 1.45-.92 1.45-.93 1.45-.94 1.44-.96 1.44-.96 1.44-.98 1.44-1 1.43-1 1.43-1.02 1.43-1.02 1.42-1.05 1.42-1.05 1.42-1.06 1.42-1.08 1.41-1.09 1.41-1.1 1.4-1.12 1.41-1.13 1.4-1.14 1.39-1.15 1.4-1.16" style="stroke-width:1.07;stroke:#000;stroke-opacity:.1;stroke-linecap:butt"/><path d="m55.97 396.18 1.65-.1 1.65-.1 1.65-.12 1.65-.12 1.64-.13 1.64-.15 1.64-.15 1.64-.16 1.63-.17 1.64-.18 1.63-.19 1.62-.2 1.63-.21 1.62-.22 1.62-.22 1.62-.24 1.62-.25 1.61-.26 1.61-.26 1.61-.28 1.61-.28 1.61-.3 1.6-.3 1.6-.32 1.6-.32 1.59-.33 1.59-.35 1.59-.35 1.59-.36 1.59-.37 1.58-.38 1.58-.39 1.58-.4 1.58-.41 1.58-.42 1.57-.43 1.57-.44 1.57-.45 1.56-.45 1.56-.47 1.56-.48 1.56-.48 1.56-.5 1.55-.5 1.55-.52 1.55-.52 1.55-.54 1.54-.54 1.55-.55 1.54-.56 1.53-.58 1.54-.58 1.53-.59 1.53-.6 1.53-.61 1.53-.62 1.52-.63 1.52-.64 1.52-.65 1.52-.65 1.51-.67 1.52-.68 1.51-.68 1.5-.7 1.51-.7 1.5-.72 1.5-.72 1.5-.74 1.5-.74 1.49-.76 1.49-.76 1.49-.77 1.49-.78 1.48-.79 1.48-.8 1.48-.81 1.48-.82 1.47-.83 1.48-.84 1.47-.85 1.47-.86 1.46-.87 1.47-.88 1.46-.88 1.46-.9 1.45-.9 1.46-.92 1.45-.92 1.45-.94 1.45-.94 1.44-.96 1.44-.96 1.44-.97 1.44-.99 1.44-.99 1.43-1 1.43-1.01 1.43-1.02 1.43-1.03" style="stroke-width:1.07;stroke:#000;stroke-opacity:.1;stroke-linecap:butt"/><path d="m55.97 396.18 1.62-.23 1.62-.24 1.62-.24 1.61-.25 1.62-.25 1.61-.27 1.61-.27 1.61-.27 1.61-.28 1.6-.29 1.61-.3 1.6-.3 1.6-.31 1.6-.32 1.6-.32 1.59-.33 1.6-.34 1.59-.35 1.59-.35 1.59-.35 1.59-.37 1.59-.37 1.58-.38 1.58-.38 1.58-.39 1.58-.4 1.58-.41 1.58-.41 1.57-.42 1.58-.43 1.57-.43 1.57-.44 1.56-.44 1.57-.46 1.57-.46 1.56-.46 1.56-.48 1.56-.48 1.56-.49 1.55-.49 1.56-.5 1.55-.51 1.55-.51 1.55-.52 1.55-.53 1.55-.54 1.54-.54 1.55-.55 1.54-.55 1.54-.57 1.54-.57 1.53-.57 1.54-.58 1.53-.59 1.53-.6 1.53-.6 1.53-.61 1.53-.62 1.52-.62 1.53-.63 1.52-.64 1.52-.65 1.52-.65 1.51-.65 1.52-.67 1.51-.67 1.51-.68 1.51-.68 1.51-.69 1.51-.7 1.5-.71 1.51-.71 1.5-.72 1.5-.73 1.5-.73 1.49-.74 1.5-.74 1.49-.76 1.5-.76 1.49-.76 1.48-.78 1.49-.78 1.49-.79 1.48-.79 1.48-.8 1.48-.81 1.48-.81 1.48-.82 1.47-.83 1.48-.84 1.47-.84 1.47-.85 1.47-.85 1.47-.87 1.46-.87 1.47-.87 1.46-.88 1.46-.89 1.46-.9" style="stroke-width:1.07;stroke:#000;stroke-opacity:.1;stroke-linecap:butt"/><path d="m55.97 396.18 1.59-.37 1.58-.36 1.59-.37 1.59-.38 1.58-.37 1.58-.39 1.59-.38 1.58-.39 1.58-.4 1.58-.4 1.58-.4 1.57-.41 1.58-.41 1.58-.41 1.57-.42 1.57-.42 1.58-.43 1.57-.43 1.57-.44 1.57-.44 1.57-.44 1.57-.45 1.56-.45 1.57-.46 1.56-.46 1.57-.46 1.56-.47 1.56-.47 1.56-.48 1.56-.48 1.56-.48 1.56-.49 1.55-.49 1.56-.5 1.55-.5 1.56-.51 1.55-.51 1.55-.51 1.55-.52 1.55-.52 1.55-.52 1.55-.53 1.55-.54 1.54-.53 1.55-.55 1.54-.54 1.54-.55 1.55-.56 1.54-.55 1.54-.57 1.54-.56 1.53-.57 1.54-.58 1.54-.58 1.53-.58 1.54-.59 1.53-.59 1.53-.59 1.53-.6 1.53-.6 1.53-.61 1.53-.61 1.53-.62 1.52-.62 1.53-.62 1.52-.63 1.52-.63 1.53-.64 1.52-.64 1.52-.64 1.52-.65 1.51-.65 1.52-.66 1.52-.66 1.51-.66 1.52-.67 1.51-.67 1.51-.68 1.51-.68 1.51-.69 1.51-.69 1.51-.69 1.51-.7 1.5-.7 1.51-.7 1.5-.71 1.51-.72 1.5-.71 1.5-.73 1.5-.72 1.5-.73 1.5-.74 1.5-.73 1.49-.75 1.5-.74 1.49-.75 1.49-.76 1.5-.76 1.49-.76" style="stroke-width:1.07;stroke:#000;stroke-opacity:.1;stroke-linecap:butt"/><path d="m55.97 396.18 1.55-.5 1.56-.5 1.56-.5 1.55-.49 1.56-.51 1.55-.5 1.55-.5 1.56-.51 1.55-.5 1.55-.51 1.56-.51 1.55-.51 1.55-.51 1.55-.52 1.55-.51 1.56-.52 1.55-.51 1.55-.52 1.55-.52 1.55-.52 1.55-.53 1.55-.52 1.54-.53 1.55-.52 1.55-.53 1.55-.53 1.55-.53 1.54-.53 1.55-.54 1.55-.53 1.54-.54 1.55-.54 1.54-.53 1.55-.55 1.54-.54 1.55-.54 1.54-.54 1.55-.55 1.54-.55 1.54-.55 1.55-.55 1.54-.55 1.54-.55 1.54-.55 1.54-.56 1.55-.56 1.54-.56 1.54-.55 1.54-.57 1.54-.56 1.54-.56 1.54-.57 1.54-.56 1.53-.57 1.54-.57 1.54-.57 1.54-.57 1.54-.58 1.53-.57 1.54-.58 1.53-.57 1.54-.58 1.54-.58 1.53-.58 1.54-.59 1.53-.58 1.54-.59 1.53-.58 1.53-.59 1.54-.59 1.53-.59 1.53-.59 1.53-.6 1.54-.59 1.53-.6 1.53-.6 1.53-.59 1.53-.61 1.53-.6 1.53-.6 1.53-.6 1.53-.61 1.53-.61 1.53-.61 1.53-.61 1.52-.61 1.53-.61 1.53-.61 1.53-.62 1.52-.62 1.53-.62 1.53-.61 1.52-.63 1.53-.62 1.52-.62 1.53-.63 1.52-.62 1.52-.63 1.53-.63" style="stroke-width:1.07;stroke:#000;stroke-opacity:.1;stroke-linecap:butt"/><path d="m55.97 396.18 1.52-.63 1.53-.63 1.52-.63 1.52-.62 1.53-.63 1.53-.62 1.52-.62 1.53-.62 1.52-.62 1.53-.61 1.53-.62 1.52-.61 1.53-.62 1.53-.61 1.53-.61 1.53-.61 1.53-.6 1.53-.61 1.52-.6 1.53-.61 1.54-.6 1.53-.6 1.53-.6 1.53-.6 1.53-.59 1.53-.6 1.53-.59 1.54-.59 1.53-.59 1.53-.59 1.54-.59 1.53-.59 1.53-.58 1.54-.59 1.53-.58 1.54-.58 1.54-.58 1.53-.58 1.54-.58 1.53-.57 1.54-.58 1.54-.57 1.54-.57 1.53-.57 1.54-.57 1.54-.57 1.54-.57 1.54-.56 1.54-.57 1.54-.56 1.54-.56 1.54-.56 1.54-.56 1.54-.55 1.54-.56 1.54-.55 1.55-.56 1.54-.55 1.54-.55 1.55-.55 1.54-.54 1.54-.55 1.55-.54 1.54-.55 1.55-.54 1.54-.54 1.55-.54 1.54-.54 1.55-.53 1.55-.54 1.54-.53 1.55-.53 1.55-.53 1.54-.53 1.55-.53 1.55-.53 1.55-.52 1.55-.53 1.55-.52 1.55-.52 1.55-.52 1.55-.52 1.55-.52 1.55-.51 1.55-.52 1.55-.51 1.56-.51 1.55-.52 1.55-.5 1.55-.51 1.56-.51 1.55-.5 1.56-.51 1.55-.5 1.56-.5 1.55-.5 1.56-.5 1.55-.49 1.56-.5" style="stroke-width:1.07;stroke:#000;stroke-opacity:.1;stroke-linecap:butt"/><path d="m55.97 396.18 1.49-.77 1.49-.76 1.49-.75 1.5-.75 1.49-.75 1.5-.74 1.5-.74 1.5-.73 1.5-.73 1.5-.73 1.5-.72 1.5-.72 1.5-.71 1.51-.71 1.5-.71 1.51-.7 1.51-.69 1.5-.7 1.51-.69 1.51-.68 1.51-.68 1.52-.68 1.51-.67 1.51-.67 1.52-.67 1.51-.66 1.52-.65 1.52-.65 1.52-.65 1.52-.65 1.52-.64 1.52-.63 1.52-.63 1.53-.63 1.52-.63 1.53-.62 1.53-.61 1.52-.61 1.53-.61 1.53-.6 1.53-.6 1.54-.6 1.53-.59 1.53-.58 1.54-.59 1.53-.58 1.54-.57 1.54-.57 1.54-.57 1.54-.56 1.54-.56 1.54-.55 1.54-.55 1.55-.55 1.54-.54 1.55-.54 1.55-.53 1.54-.53 1.55-.53 1.55-.52 1.55-.51 1.55-.52 1.56-.51 1.55-.5 1.56-.5 1.55-.5 1.56-.49 1.56-.49 1.55-.49 1.56-.48 1.57-.47 1.56-.48 1.56-.46 1.56-.47 1.57-.46 1.56-.45 1.57-.46 1.57-.44 1.57-.45 1.57-.44 1.57-.43 1.57-.43 1.57-.43 1.57-.42 1.58-.42 1.57-.42 1.58-.41 1.58-.41 1.58-.4 1.58-.4 1.58-.39 1.58-.39 1.58-.39 1.59-.38 1.58-.38 1.59-.37 1.58-.37 1.59-.37 1.59-.36" style="stroke-width:1.07;stroke:#000;stroke-opacity:.1;stroke-linecap:butt"/><path d="m55.97 396.18 1.46-.9 1.46-.89 1.46-.88 1.46-.88 1.47-.87 1.47-.86 1.46-.86 1.48-.84 1.47-.85 1.47-.83 1.48-.83 1.47-.82 1.48-.82 1.48-.8 1.49-.8 1.48-.8 1.48-.79 1.49-.78 1.49-.77 1.49-.77 1.49-.76 1.5-.75 1.49-.75 1.5-.74 1.5-.73 1.5-.72 1.5-.72 1.5-.72 1.51-.7 1.5-.7 1.51-.69 1.51-.69 1.51-.67 1.52-.68 1.51-.66 1.52-.66 1.52-.65 1.52-.64 1.52-.64 1.52-.63 1.53-.62 1.53-.62 1.52-.61 1.53-.6 1.54-.6 1.53-.59 1.53-.58 1.54-.58 1.54-.57 1.54-.56 1.54-.56 1.54-.55 1.55-.54 1.54-.53 1.55-.53 1.55-.52 1.55-.52 1.56-.5 1.55-.5 1.56-.5 1.56-.49 1.56-.48 1.56-.47 1.56-.47 1.57-.46 1.56-.45 1.57-.45 1.57-.44 1.57-.43 1.57-.42 1.58-.42 1.57-.42 1.58-.4 1.58-.4 1.58-.39 1.59-.39 1.58-.38 1.59-.37 1.58-.36 1.59-.36 1.59-.35 1.6-.34 1.59-.34 1.6-.33 1.6-.33 1.6-.31 1.6-.31 1.6-.31 1.6-.29 1.61-.29 1.61-.28 1.61-.28 1.61-.27 1.61-.26 1.61-.26 1.62-.25 1.62-.24 1.62-.23 1.62-.23" style="stroke-width:1.07;stroke:#000;stroke-opacity:.1;stroke-linecap:butt"/><path d="m55.97 396.18 1.42-1.03 1.43-1.03 1.43-1.01 1.44-1 1.43-.99 1.44-.98 1.44-.97 1.44-.97 1.45-.95 1.45-.95 1.45-.93 1.45-.92 1.45-.92 1.46-.91 1.46-.89 1.46-.89 1.46-.88 1.47-.86 1.47-.86 1.47-.85 1.47-.84 1.48-.83 1.47-.82 1.48-.81 1.49-.8 1.48-.79 1.49-.78 1.49-.78 1.49-.76 1.49-.75 1.5-.75 1.49-.73 1.5-.73 1.51-.71 1.5-.71 1.51-.69 1.51-.69 1.51-.67 1.52-.67 1.51-.66 1.52-.65 1.52-.64 1.53-.63 1.52-.62 1.53-.61 1.53-.6 1.54-.59 1.53-.58 1.54-.57 1.54-.56 1.54-.55 1.55-.55 1.54-.53 1.55-.53 1.55-.51 1.56-.51 1.55-.49 1.56-.49 1.56-.47 1.56-.47 1.57-.46 1.57-.44 1.57-.44 1.57-.43 1.57-.42 1.58-.41 1.58-.4 1.58-.39 1.59-.38 1.58-.37 1.59-.36 1.59-.36 1.59-.34 1.6-.33 1.6-.33 1.6-.31 1.6-.31 1.61-.29 1.6-.29 1.61-.27 1.61-.27 1.62-.25 1.61-.25 1.62-.24 1.62-.23 1.63-.22 1.62-.21 1.63-.2 1.63-.19 1.63-.18 1.64-.17 1.63-.16 1.64-.15 1.64-.14 1.65-.13 1.65-.13 1.64-.11 1.65-.11 1.66-.09" style="stroke-width:1.07;stroke:#000;stroke-opacity:.1;stroke-linecap:butt"/><path d="m55.97 396.18 1.39-1.17 1.4-1.15 1.4-1.14 1.4-1.13 1.41-1.11 1.41-1.1 1.41-1.09 1.41-1.08 1.42-1.07 1.42-1.05 1.43-1.04 1.42-1.03 1.43-1.01 1.44-1.01 1.43-.99 1.44-.98 1.44-.97 1.45-.95 1.45-.95 1.45-.93 1.45-.91 1.46-.91 1.46-.89 1.46-.88 1.46-.87 1.47-.86 1.47-.85 1.48-.83 1.48-.82 1.48-.81 1.48-.79 1.49-.78 1.49-.78 1.49-.75 1.49-.75 1.5-.73 1.5-.73 1.51-.71 1.5-.69 1.51-.69 1.52-.67 1.51-.66 1.52-.65 1.52-.64 1.53-.62 1.53-.61 1.53-.6 1.53-.59 1.54-.57 1.54-.56 1.54-.55 1.55-.54 1.55-.53 1.55-.51 1.55-.5 1.56-.49 1.56-.48 1.57-.46 1.56-.45 1.57-.44 1.57-.43 1.58-.41 1.58-.41 1.58-.39 1.58-.37 1.59-.37 1.59-.35 1.6-.35 1.59-.32 1.6-.32 1.6-.31 1.61-.29 1.61-.28 1.61-.27 1.61-.25 1.62-.24 1.62-.24 1.62-.21 1.63-.21 1.63-.19 1.63-.19 1.64-.17 1.63-.15 1.65-.15 1.64-.13 1.65-.12 1.65-.11 1.65-.1 1.66-.08 1.65-.07 1.67-.06 1.66-.05 1.67-.03 1.67-.02 1.67-.01h1.68l1.68.01 1.68.03 1.69.04" style="stroke-width:1.07;stroke:#000;stroke-opacity:.1;stroke-linecap:butt"/><path d="m55.97 396.18 1.36-1.3 1.36-1.28 1.37-1.27 1.38-1.25 1.37-1.24 1.38-1.22 1.39-1.21 1.38-1.19 1.39-1.18 1.4-1.16 1.4-1.15 1.4-1.13 1.4-1.12 1.41-1.1 1.42-1.09 1.41-1.07 1.42-1.06 1.43-1.04 1.42-1.03 1.43-1.01 1.44-1 1.44-.98 1.44-.97 1.44-.95 1.45-.94 1.45-.92 1.46-.91 1.46-.89 1.46-.88 1.47-.86 1.47-.85 1.48-.83 1.48-.82 1.48-.8 1.48-.78 1.49-.78 1.49-.75 1.5-.75 1.5-.72 1.5-.72 1.51-.69 1.51-.69 1.52-.66 1.51-.66 1.53-.63 1.52-.62 1.53-.61 1.53-.59 1.54-.58 1.54-.56 1.54-.55 1.55-.53 1.55-.52 1.55-.5 1.56-.49 1.56-.47 1.57-.46 1.57-.44 1.57-.43 1.58-.41 1.58-.4 1.58-.38 1.59-.37 1.59-.35 1.59-.34 1.6-.32 1.6-.31 1.61-.29 1.61-.28 1.61-.26 1.62-.25 1.62-.23 1.62-.22 1.63-.2 1.63-.19 1.63-.17 1.64-.16 1.64-.14 1.65-.12 1.65-.12 1.65-.09 1.66-.09 1.66-.06 1.66-.06 1.67-.03 1.67-.03H189.72l1.68.03 1.69.04 1.69.05 1.69.07 1.69.08 1.7.1 1.71.11 1.7.13 1.72.14 1.71.16 1.72.17" style="stroke-width:1.07;stroke:#000;stroke-opacity:.1;stroke-linecap:butt"/><path d="m55.97 396.18 1.33-1.44 1.33-1.41 1.34-1.39 1.34-1.38 1.35-1.36 1.35-1.34 1.35-1.33 1.36-1.31 1.37-1.28 1.36-1.28 1.38-1.25 1.37-1.24 1.38-1.21 1.39-1.2 1.39-1.19 1.39-1.16 1.4-1.15 1.4-1.13 1.41-1.11 1.41-1.1 1.42-1.07 1.42-1.06 1.42-1.04 1.43-1.02 1.43-1.01 1.44-.99 1.44-.97 1.44-.95 1.45-.93 1.46-.92 1.46-.9 1.46-.88 1.47-.87 1.47-.84 1.47-.83 1.48-.81 1.49-.79 1.48-.78 1.5-.75 1.49-.74 1.5-.73 1.51-.7 1.51-.69 1.51-.67 1.52-.65 1.53-.63 1.52-.61 1.53-.6 1.54-.58 1.54-.56 1.54-.55 1.55-.53 1.55-.51 1.56-.49 1.56-.47 1.57-.46 1.57-.43 1.57-.42 1.58-.41 1.58-.38 1.59-.37 1.59-.35 1.6-.33 1.6-.32 1.6-.29 1.61-.28 1.61-.26 1.62-.24 1.62-.23 1.63-.21 1.63-.19 1.63-.17 1.64-.15 1.65-.14 1.64-.12 1.65-.1 1.66-.09 1.66-.06 1.67-.05 1.66-.03 1.68-.01h1.67l1.69.03 1.68.04 1.69.05 1.7.08 1.7.09 1.7.11 1.71.13 1.71.15 1.71.17 1.73.18 1.72.2 1.73.22 1.73.23 1.74.25 1.74.27 1.75.29 1.75.31" style="stroke-width:1.07;stroke:#000;stroke-opacity:.1;stroke-linecap:butt"/><path d="m144.51 514.68 8.21 14.23h-16.43zM370.51 357.35l4.73 8.19h-9.46zM174.67 137.86l1.91 3.31h-3.83z" style="stroke-width:.71;stroke:none;fill:#00ba38"/><path d="M49.87 402.28h12.2v-12.2h-12.2z" style="stroke-width:.71;stroke:none;fill:#619cff"/><circle cx="208.42" cy="340.51" r="6.76" style="stroke-width:.71;stroke:none;fill:#f8766d"/><circle cx="522.77" cy="384.6" r="1.42" style="stroke-width:.71;stroke:none;fill:#f8766d"/><path d="m139.99 531.4 3.94-6.3M375.62 358.19l-4.25 3.85M169.36 144.65l4.43-3.82M213.82 335.84l-4.52 3.91" style="stroke-width:.53;stroke:#bfbfbf"/><path d="M110.97 539.73h26.86-.09l.35-.02.34-.07.32-.12.3-.17.27-.22.23-.26.19-.3.14-.32.08-.34.03-.34v-7.03l-.03-.35-.08-.33-.14-.32-.19-.3-.23-.26-.27-.22-.3-.17-.32-.12-.34-.07-.26-.02h-26.86l.26.02-.35-.02-.34.04-.33.1-.32.15-.28.2-.26.24-.2.28-.17.3-.11.33-.05.35-.01.17v7.03l.01-.18v.35l.05.35.11.32.17.31.2.28.26.24.28.2.32.15.33.09.34.05z" style="stroke-width:.53;fill:#fff;fill-opacity:.5"/><text x="124.4" y="536.13" lengthAdjust="spacingAndGlyphs" style="font-size:5.69px;font-family:&quot;Liberation Sans&quot;" text-anchor="middle" textLength="23.98">QPR LLC</text><path d="M354.68 358.19h56.52-.09l.35-.01.34-.07.33-.13.3-.17.27-.22.23-.26.18-.29.14-.32.08-.34.03-.35V349l-.03-.34-.08-.34-.14-.32-.18-.29-.23-.26-.27-.22-.3-.18-.33-.12-.34-.07-.26-.02h-56.52l.26.02-.35-.01-.34.04-.34.1-.31.14-.29.2-.25.24-.2.28-.17.31-.11.33-.05.34-.01.17v7.03l.01-.17v.35l.05.34.11.33.17.31.2.27.25.25.29.19.31.15.34.1.34.04z" style="stroke-width:.53;fill:#fff;fill-opacity:.5"/><text x="382.94" y="354.59" lengthAdjust="spacingAndGlyphs" style="font-size:5.69px;font-family:&quot;Liberation Sans&quot;" text-anchor="middle" textLength="53.64">HASAN DHOONDIA</text><path d="M126.51 164.19h61.53-.09l.35-.01.34-.07.32-.12.31-.18.26-.22.24-.26.18-.29.14-.32.08-.34.03-.35v-15.22l-.03-.34-.08-.34-.14-.32-.18-.29-.24-.26-.26-.22-.31-.18-.32-.12-.34-.07-.26-.02h-61.53l.26.02-.34-.02-.35.05-.33.09-.32.15-.28.2-.25.24-.21.28-.16.31-.11.33-.06.34-.01.17v15.22l.01-.17v.35l.06.34.11.33.16.31.21.28.25.24.28.2.32.14.33.1.35.04z" style="stroke-width:.53;fill:#fff;fill-opacity:.5"/><text x="157.28" y="152.4" lengthAdjust="spacingAndGlyphs" style="font-size:5.69px;font-family:&quot;Liberation Sans&quot;" text-anchor="middle" textLength="58.64">QPR (QUALITY PRICE</text><text x="157.28" y="160.59" lengthAdjust="spacingAndGlyphs" style="font-size:5.69px;font-family:&quot;Liberation Sans&quot;" text-anchor="middle" textLength="12.52">AND</text><path d="M62.83 406.03h75.41-.09l.35-.01.34-.07.33-.12.3-.18.27-.22.23-.26.18-.29.14-.32.08-.34.03-.35v-15.22l-.03-.34-.08-.34-.14-.32-.18-.29-.23-.27-.27-.21-.3-.18-.33-.12-.34-.07-.26-.02H62.83l.26.02-.35-.02-.34.05-.34.09-.31.15-.29.2-.25.24-.21.28-.16.31-.11.33-.06.34v15.39-.17.35l.06.34.11.33.16.31.21.28.25.24.29.19.31.15.34.1.34.04z" style="stroke-width:.53;fill:#fff;fill-opacity:.5"/><text x="100.53" y="394.24" lengthAdjust="spacingAndGlyphs" style="font-size:5.69px;font-family:&quot;Liberation Sans&quot;" text-anchor="middle" textLength="72.53">1294 CHESTERWOOD LN,</text><text x="100.53" y="402.43" lengthAdjust="spacingAndGlyphs" style="font-size:5.69px;font-family:&quot;Liberation Sans&quot;" text-anchor="middle" textLength="62.13">PEWAUKEE, WI 53072</text><path d="M188.23 335.84h75.42-.09l.35-.01.34-.07.32-.13.3-.17.27-.22.23-.26.19-.29.13-.32.09-.34.03-.35v-15.22l-.03-.35-.09-.33-.13-.32-.19-.3-.23-.26-.27-.22-.3-.17-.32-.12-.34-.07-.26-.02h-75.42l.26.02-.34-.02-.35.04-.33.1-.32.15-.28.2-.25.24-.21.28-.16.3-.11.33-.06.35-.01.17v15.22l.01-.17v.35l.06.34.11.33.16.31.21.27.25.25.28.19.32.15.33.1.35.04z" style="stroke-width:.53;fill:#fff;fill-opacity:.5"/><text x="225.94" y="324.05" lengthAdjust="spacingAndGlyphs" style="font-size:5.69px;font-family:&quot;Liberation Sans&quot;" text-anchor="middle" textLength="72.53">1294 CHESTERWOOD LN,</text><text x="225.94" y="332.24" lengthAdjust="spacingAndGlyphs" style="font-size:5.69px;font-family:&quot;Liberation Sans&quot;" text-anchor="middle" textLength="62.13">PEWAUKEE, WI 53072</text><path d="M448.03 394.35h67.86-.09l.35-.02.34-.07.32-.12.31-.17.26-.22.24-.26.18-.3.14-.32.08-.33.03-.35v-15.22l-.03-.35-.08-.34-.14-.32-.18-.29-.24-.26-.26-.22-.31-.17-.32-.13-.34-.07-.26-.01h-67.86l.26.01-.35-.01-.34.04-.34.1-.31.15-.29.19-.25.25-.21.27-.16.31-.11.33-.05.34-.01.18v15.22l.01-.17v.34l.05.35.11.33.16.3.21.28.25.24.29.2.31.15.34.1.34.04z" style="stroke-width:.53;fill:#fff;fill-opacity:.5"/><text x="481.96" y="382.55" lengthAdjust="spacingAndGlyphs" style="font-size:5.69px;font-family:&quot;Liberation Sans&quot;" text-anchor="middle" textLength="64.98">1294 CHESTWOOD LA,</text><text x="481.96" y="390.75" lengthAdjust="spacingAndGlyphs" style="font-size:5.69px;font-family:&quot;Liberation Sans&quot;" text-anchor="middle" textLength="62.13">PEWAUKEE, WI 53072</text></g><g clip-path="url(#cpMC4wMHw1NzYuMDB8MC4wMHw1NzYuMDA=)"><circle cx="196.98" cy="95.78" r="1.95" style="stroke-width:.71;stroke:none;fill:#f8766d"/><path d="m273.33 92.74 2.63 4.56h-5.26z" style="stroke-width:.71;stroke:none;fill:#00ba38"/><path d="M339.31 97.74h3.91v-3.91h-3.91z" style="stroke-width:.71;stroke:none;fill:#619cff"/><text x="211.09" y="98.81" lengthAdjust="spacingAndGlyphs" style="font-size:8.8px;font-family:&quot;Liberation Sans Narrow&quot;" textLength="48.12">mprop address</text><text x="287.45" y="98.81" lengthAdjust="spacingAndGlyphs" style="font-size:8.8px;font-family:&quot;Liberation Sans Narrow&quot;" textLength="39.69">owner name</text><text x="355.38" y="98.81" lengthAdjust="spacingAndGlyphs" style="font-size:8.8px;font-family:&quot;Liberation Sans Narrow&quot;" textLength="40.5">wdfi address</text><text x="32.63" y="64.23" lengthAdjust="spacingAndGlyphs" style="font-size:12px;font-family:&quot;Liberation Sans Narrow&quot;" textLength="252.23">includes 15 parcels, 17 units, and 3 distinct owner names.</text><text x="32.63" y="42.27" lengthAdjust="spacingAndGlyphs" style="font-size:18px;font-weight:700;font-family:&quot;Liberation Sans Narrow&quot;" textLength="113.14">QPR LLC Group</text></g></svg>