<svg xmlns="http://www.w3.org/2000/svg" width="768" height="768" viewBox="0 0 576 576"><g class="svglite"><defs><style><![CDATA[.svglite line,.svglite polyline,.svglite polygon,.svglite path,.svglite circle{fill:none;stroke:#000000;stroke-linecap:round;stroke-linejoin:round;stroke-miterlimit:10.00}.svglite text{white-space:pre}.svglite g.glyphgroup path{fill:inherit;stroke:none}]]></style></defs><rect width="100%" height="100%" style="stroke-linecap:round;stroke-linejoin:round;stroke-miterlimit:10.00;stroke:none;fill:#FFFFFF"/><defs><clipPath id="cpMC4wMHw1NzYuMDB8MC4wMHw1NzYuMDA="><path d="M0 0h576v576H0z"/></clipPath></defs><g clip-path="url(#cpMC4wMHw1NzYuMDB8MC4wMHw1NzYuMDA=)"><path d="M0 0h576v576H0z" style="stroke-width:1.07;stroke:none;fill:#FFFFFF"/></g><defs><clipPath id="cpMjkuODl8NTQ2LjExfDE0MS41OHw1NDYuMTE="><path d="M29.89 141.58h516.22v404.53H29.89z"/></clipPath></defs><g clip-path="url(#cpMjkuODl8NTQ2LjExfDE0MS41OHw1NDYuMTE=)"><path d="m156.04 350.69 1.37-.14 1.36-.14 1.37-.15 1.36-.15 1.36-.16 1.36-.16 1.36-.17 1.36-.17 1.36-.18 1.35-.18 1.36-.19 1.35-.19 1.36-.2 1.35-.2 1.35-.21 1.35-.21 1.35-.22 1.34-.22 1.35-.23 1.34-.23 1.35-.24 1.34-.25 1.34-.25 1.34-.25 1.34-.26 1.34-.26 1.34-.27 1.33-.28 1.34-.27 1.33-.29 1.34-.29 1.33-.29 1.33-.3 1.33-.31 1.33-.31 1.32-.31 1.33-.32 1.32-.33 1.33-.33 1.32-.33 1.32-.35 1.32-.34 1.32-.35 1.32-.36 1.31-.36 1.32-.37 1.32-.37 1.31-.37 1.31-.38 1.31-.39 1.31-.39 1.31-.4 1.31-.4 1.31-.41 1.3-.41 1.31-.42 1.3-.42 1.3-.43 1.3-.43 1.3-.44 1.3-.44 1.3-.45 1.3-.45 1.29-.46 1.3-.46 1.29-.47 1.29-.47 1.29-.48 1.29-.48 1.29-.49 1.29-.5 1.28-.5 1.29-.5 1.28-.51 1.29-.51 1.28-.52 1.28-.53 1.28-.53 1.28-.53 1.28-.54 1.27-.54 1.28-.55 1.27-.56 1.27-.56 1.28-.56 1.27-.57 1.27-.58 1.27-.58 1.26-.59 1.27-.59 1.26-.59 1.27-.6 1.26-.61 1.26-.61 1.26-.62 1.26-.62 1.26-.62 1.26-.64 1.25-.63m-129.81 38.27-.77-1.33-.78-1.32-.78-1.3-.79-1.3-.79-1.3-.8-1.28-.81-1.28-.81-1.26-.81-1.26-.82-1.26-.83-1.24-.83-1.24-.84-1.22-.84-1.22-.85-1.22-.85-1.2-.86-1.19-.86-1.19-.87-1.18-.88-1.17-.88-1.16-.88-1.16-.9-1.15-.89-1.14-.9-1.13-.91-1.12-.91-1.11-.92-1.11-.93-1.1-.92-1.09-.94-1.08-.94-1.08-.94-1.06-.95-1.06-.96-1.05-.96-1.04-.97-1.04-.97-1.02-.98-1.02-.98-1.01-.99-1-.99-1-1-.98-1.01-.98-1.01-.97-1.01-.96-1.03-.95-1.02-.95-1.03-.94-1.04-.92-1.04-.93-1.05-.91-1.06-.9-1.05-.9-1.07-.89-1.07-.88-1.07-.87-1.08-.87-1.09-.85-1.09-.85-1.1-.84-1.1-.83-1.11-.83-1.11-.81-1.12-.81-1.12-.8-1.13-.79-1.14-.79-1.14-.77-1.14-.77-1.15-.76-1.16-.75-1.16-.74-1.17-.74-1.17-.73-1.18-.72-1.18-.71-1.19-.7-1.2-.69-1.2-.69-1.2-.68-1.21-.67-1.22-.66-1.22-.66-1.22-.64-1.24-.64-1.23-.63-1.25-.63-1.25-.61-1.25-.61-1.26-.59-1.26-.59-1.27-.59-1.28-.57-1.28-.57-1.29-.55-1.29-.55-1.29-.54-1.31-.54m248.95-98.74-.38 1.5-.38 1.51-.38 1.51-.37 1.51-.37 1.51-.36 1.51-.36 1.52-.36 1.51-.35 1.51-.34 1.52-.34 1.51-.34 1.52-.33 1.51-.33 1.52-.32 1.52-.32 1.51-.32 1.52-.31 1.52-.3 1.52-.3 1.52-.3 1.52-.29 1.53-.29 1.52-.28 1.52-.28 1.53-.27 1.52-.27 1.52-.27 1.53-.26 1.53-.25 1.52-.26 1.53-.24 1.53-.24 1.53-.24 1.53-.24 1.53-.23 1.53-.22 1.53-.22 1.53-.22 1.54-.21 1.53-.2 1.53-.2 1.54-.2 1.53-.2 1.54-.18 1.54-.19 1.53-.18 1.54-.17 1.54-.17 1.54-.17 1.54-.16 1.54-.16 1.54-.15 1.54-.15 1.55-.14 1.54-.14 1.54-.14 1.55-.13 1.54-.12 1.55-.12 1.54-.12 1.55-.11 1.55-.11 1.55-.1 1.55-.1 1.55-.1 1.55-.09 1.55-.08 1.55-.08 1.55-.08 1.55-.07 1.56-.07 1.55-.06 1.56-.06 1.55-.06 1.56-.05 1.55-.04 1.56-.04 1.56-.04 1.56-.03 1.56-.03 1.56-.02 1.56-.02 1.56-.01 1.56-.01 1.56v4.7l.01 1.56.01 1.57.02 1.56.02 1.57.03 1.57.03 1.57.04 1.57.04 1.57.04 1.57.05 1.57.05 1.57" style="stroke-width:1.07;stroke:#000000;stroke-opacity:0.10;stroke-linecap:butt"/><path d="m302.3 159.97.06 1.57.05 1.57.04 1.57.04 1.57.04 1.57.03 1.57.03 1.56.02 1.57.02 1.57.01 1.56.01 1.57v4.69l-.01 1.56-.01 1.56-.02 1.56-.03 1.57-.02 1.56-.03 1.55-.04 1.56-.04 1.56-.05 1.56-.05 1.56-.05 1.55-.06 1.56-.06 1.55-.07 1.56-.07 1.55-.08 1.55-.08 1.55-.08 1.56-.09 1.55-.1 1.55-.1 1.55-.1 1.55-.11 1.54-.11 1.55-.12 1.55-.12 1.55-.12 1.54-.13 1.55-.14 1.54-.14 1.54-.14 1.55-.15 1.54-.15 1.54-.16 1.54-.16 1.54-.17 1.54-.17 1.54-.17 1.54-.18 1.54-.19 1.54-.19 1.53-.19 1.54-.2 1.54-.2 1.53-.21 1.53-.21 1.54-.21 1.53-.22 1.53-.23 1.53-.23 1.53-.23 1.54-.24 1.52-.24 1.53-.25 1.53-.25 1.53-.25 1.53-.26 1.52-.27 1.53-.27 1.52-.27 1.53-.28 1.52-.28 1.53-.29 1.52-.29 1.52-.3 1.52-.3 1.52-.3 1.52-.31 1.52-.32 1.52-.32 1.52-.32 1.51-.33 1.52-.33 1.52-.34 1.51-.34 1.52-.34 1.51-.35 1.51-.36 1.52-.36 1.51-.36 1.51-.37 1.51-.37 1.51-.38 1.51-.38 1.51-.39 1.51m-129.81 38.27 1.26-.64 1.25-.63 1.26-.63 1.26-.62 1.26-.62 1.26-.61 1.27-.6 1.26-.6 1.27-.6 1.26-.59 1.27-.59 1.27-.58 1.27-.57 1.27-.57 1.27-.57 1.27-.56 1.28-.55 1.27-.55 1.28-.55 1.28-.54 1.27-.53 1.28-.53 1.28-.52 1.29-.52 1.28-.52 1.28-.51 1.29-.5 1.29-.5 1.28-.49 1.29-.49 1.29-.48 1.29-.48 1.29-.48 1.3-.46 1.29-.47 1.3-.46 1.29-.45 1.3-.45 1.3-.44 1.3-.44 1.3-.43 1.3-.43 1.31-.42 1.3-.42 1.31-.41 1.3-.4 1.31-.41 1.31-.39 1.31-.39 1.31-.39 1.32-.38 1.31-.38 1.31-.37 1.32-.37 1.32-.36 1.31-.35 1.32-.35 1.32-.35 1.32-.34 1.33-.34 1.32-.33 1.33-.32 1.32-.32 1.33-.32 1.33-.31 1.33-.3 1.33-.3 1.33-.3 1.33-.29 1.33-.28 1.34-.28 1.34-.27 1.33-.27 1.34-.27 1.34-.26 1.34-.25 1.34-.25 1.35-.24 1.34-.24 1.34-.24 1.35-.22 1.35-.23 1.35-.21 1.35-.22 1.35-.21 1.35-.2 1.35-.2 1.36-.19 1.35-.19 1.36-.18 1.35-.18 1.36-.17 1.36-.17 1.36-.16 1.36-.15 1.37-.16 1.36-.14 1.37-.15 1.36-.13m-129.81 38.27-1.04-.93-1.03-.93-1.04-.93-1.04-.93-1.04-.93-1.03-.93-1.04-.93-1.04-.93-1.04-.93-1.03-.92-1.04-.93-1.04-.93-1.03-.93-1.04-.93-1.04-.93-1.04-.93-1.03-.93-1.04-.93-1.04-.93-1.03-.92-1.04-.93-1.04-.93-1.04-.93-1.03-.93-1.04-.93-1.04-.93-1.04-.93-1.03-.93-1.04-.93-1.04-.93-1.03-.92-1.04-.93-1.04-.93-1.04-.93-1.03-.93-1.04-.93-1.04-.93-1.04-.93-1.03-.93-1.04-.93-1.04-.92-1.03-.93-1.04-.93-1.04-.93-1.04-.93-1.03-.93-1.04-.93-1.04-.93-1.04-.93-1.03-.93-1.04-.92-1.04-.93-1.03-.93-1.04-.93-1.04-.93-1.04-.93-1.03-.93-1.04-.93-1.04-.93-1.03-.93-1.04-.93-1.04-.92-1.04-.93-1.03-.93-1.04-.93-1.04-.93-1.04-.93-1.03-.93-1.04-.93-1.04-.93-1.03-.93-1.04-.92-1.04-.93-1.04-.93-1.03-.93-1.04-.93-1.04-.93-1.04-.93-1.03-.93-1.04-.93-1.04-.93-1.03-.92-1.04-.93-1.04-.93-1.04-.93-1.03-.93-1.04-.93-1.04-.93-1.03-.93-1.04-.93-1.04-.93-1.04-.93-1.03-.92-1.04-.93-1.04-.93-1.04-.93-1.03-.93-1.04-.93-1.04-.93m102.69 91.98-.71 1.26-.72 1.26-.71 1.27-.72 1.26-.71 1.26-.72 1.27-.71 1.26-.72 1.27-.71 1.26-.72 1.26-.71 1.27-.72 1.26-.71 1.26-.72 1.27-.71 1.26-.72 1.27-.71 1.26-.72 1.26-.71 1.27-.72 1.26-.71 1.26-.71 1.27-.72 1.26-.71 1.27-.72 1.26-.71 1.26-.72 1.27-.71 1.26-.72 1.27-.71 1.26-.72 1.26-.71 1.27-.72 1.26-.71 1.26-.72 1.27-.71 1.26-.72 1.27-.71 1.26-.72 1.26-.71 1.27-.72 1.26-.71 1.26-.71 1.27-.72 1.26-.71 1.27-.72 1.26-.71 1.26-.72 1.27-.71 1.26-.72 1.26-.71 1.27-.72 1.26-.71 1.27-.72 1.26-.71 1.26-.72 1.27-.71 1.26-.72 1.26-.71 1.27-.72 1.26-.71 1.27-.72 1.26-.71 1.26-.71 1.27-.72 1.26-.71 1.26-.72 1.27-.71 1.26-.72 1.27-.71 1.26-.72 1.26-.71 1.27-.72 1.26-.71 1.26-.72 1.27-.71 1.26L101 448l-.71 1.26-.72 1.26-.71 1.27-.72 1.26-.71 1.26-.71 1.27-.72 1.26-.71 1.27-.72 1.26-.71 1.26-.72 1.27-.71 1.26-.72 1.26-.71 1.27-.72 1.26-.71 1.27-.72 1.26-.71 1.26-.72 1.27-.71 1.26-.72 1.26-.71 1.27" style="stroke-width:1.07;stroke:#000000;stroke-opacity:0.10;stroke-linecap:butt"/><path d="m156.04 350.69-1.3-.54-1.3-.54-1.29-.55-1.29-.56-1.28-.56-1.27-.58-1.27-.58-1.27-.59-1.26-.6-1.25-.6-1.25-.62-1.24-.62-1.24-.63-1.23-.64-1.23-.64-1.22-.66-1.22-.66-1.21-.67-1.2-.68-1.2-.69-1.2-.69-1.18-.71-1.19-.71-1.18-.72-1.17-.72-1.17-.74-1.16-.74-1.15-.75-1.15-.76-1.15-.77-1.14-.78-1.13-.78-1.13-.79-1.13-.8-1.12-.81-1.11-.82-1.11-.82-1.1-.83-1.1-.84-1.09-.85-1.08-.86-1.08-.86-1.08-.87-1.07-.88-1.06-.89-1.06-.9-1.06-.9-1.04-.92-1.05-.92-1.03-.93-1.04-.93-1.02-.95-1.02-.95-1.02-.96-1.01-.97-1-.98-1-.99-1-.99-.99-1-.98-1.01-.98-1.02-.97-1.03-.97-1.03-.96-1.04-.95-1.05-.95-1.06-.95-1.07-.94-1.07-.93-1.08-.93-1.09-.93-1.1-.91-1.11-.92-1.11-.9-1.13-.91-1.13-.89-1.14-.89-1.14-.89-1.16-.88-1.16-.87-1.17-.87-1.18-.87-1.19-.86-1.19-.85-1.21-.85-1.21-.84-1.22-.84-1.23-.83-1.23-.82-1.25-.82-1.25-.82-1.26-.81-1.27-.8-1.27-.8-1.29-.8-1.29-.79-1.3-.78-1.31-.78-1.31-.77-1.33m350.21 127.65-1.19-.75-1.19-.74-1.19-.75-1.19-.75-1.19-.75-1.18-.74-1.19-.75-1.19-.75-1.19-.74-1.19-.75-1.19-.75-1.19-.74-1.19-.75-1.19-.75-1.18-.74-1.19-.75-1.19-.75-1.19-.74-1.19-.75-1.19-.75-1.19-.75-1.19-.74-1.19-.75-1.19-.75-1.18-.74-1.19-.75-1.19-.75-1.19-.74-1.19-.75-1.19-.75-1.19-.74-1.19-.75-1.19-.75-1.18-.74-1.19-.75-1.19-.75-1.19-.75-1.19-.74-1.19-.75-1.19-.75-1.19-.74-1.19-.75-1.19-.75-1.18-.74-1.19-.75-1.19-.75-1.19-.74-1.19-.75-1.19-.75-1.19-.74-1.19-.75-1.19-.75-1.18-.75-1.19-.74-1.19-.75-1.19-.75-1.19-.74-1.19-.75-1.19-.75-1.19-.74-1.19-.75-1.19-.75-1.18-.74-1.19-.75-1.19-.75-1.19-.74-1.19-.75-1.19-.75-1.19-.75-1.19-.74-1.19-.75-1.18-.75-1.19-.74-1.19-.75-1.19-.75-1.19-.74-1.19-.75-1.19-.75-1.19-.74-1.19-.75-1.19-.75-1.18-.74-1.19-.75-1.19-.75-1.19-.75-1.19-.74-1.19-.75-1.19-.75-1.19-.74-1.19-.75-1.18-.75-1.19-.74-1.19-.75-1.19-.75-1.19-.74-1.19-.75-1.19-.75-1.19-.74-1.19-.75m117.71 73.94.22 1.51.22 1.51.23 1.5.24 1.5.23 1.51.24 1.5.25 1.5.25 1.49.25 1.5.26 1.49.26 1.5.27 1.49.27 1.49.27 1.48.28 1.49.29 1.48.28 1.48.29 1.49.3 1.47.3 1.48.3 1.48.31 1.47.31 1.47.32 1.48.32 1.46.32 1.47.33 1.47.33 1.46.34 1.46.34 1.47.35 1.46.35 1.45.35 1.46.36 1.45.36 1.46.37 1.45.37 1.45.37 1.44.38 1.45.38 1.44.39 1.45.39 1.44.4 1.44.4 1.44.4 1.43.41 1.44.41 1.43.41 1.43.42 1.43.43 1.43.43 1.42.43 1.43.44 1.42.44 1.42.44 1.42.45 1.42.46 1.42.45 1.41.46 1.42.47 1.41.47 1.41.47 1.4.48 1.41.49 1.41.48 1.4.49 1.4.5 1.4.5 1.4.5 1.4.51 1.39.51 1.39.52 1.39.52 1.39.52 1.39.53 1.39.53 1.38.54 1.39.54 1.38.54 1.38.55 1.38.56 1.38.55 1.37.56 1.37.57 1.38.57 1.37.57 1.36.58 1.37.58 1.37.59 1.36.59 1.36.6 1.36.6 1.36.6 1.36.61 1.35.61 1.36.61 1.35.62 1.35.63 1.35.63 1.34m-42.01-141.36 1.2-.61 1.21-.6 1.2-.61 1.2-.61 1.2-.6 1.21-.61 1.2-.6 1.2-.61 1.21-.61 1.2-.6 1.2-.61 1.2-.6 1.21-.61 1.2-.61 1.2-.6 1.21-.61 1.2-.61 1.2-.6 1.2-.61 1.21-.6 1.2-.61 1.2-.61 1.21-.6 1.2-.61 1.2-.61 1.21-.6 1.2-.61 1.2-.6 1.2-.61 1.21-.61 1.2-.6 1.2-.61 1.21-.6 1.2-.61 1.2-.61 1.2-.6 1.21-.61 1.2-.61 1.2-.6 1.21-.61 1.2-.6 1.2-.61 1.2-.61 1.21-.6 1.2-.61 1.2-.6 1.21-.61 1.2-.61 1.2-.6 1.2-.61 1.21-.61 1.2-.6 1.2-.61 1.21-.6 1.2-.61 1.2-.61 1.21-.6 1.2-.61 1.2-.61 1.2-.6 1.21-.61 1.2-.6 1.2-.61 1.21-.61 1.2-.6 1.2-.61 1.2-.6 1.21-.61 1.2-.61 1.2-.6 1.21-.61 1.2-.61 1.2-.6 1.2-.61 1.21-.6 1.2-.61 1.2-.61 1.21-.6 1.2-.61 1.2-.6 1.21-.61 1.2-.61 1.2-.6 1.2-.61 1.21-.61 1.2-.6 1.2-.61 1.21-.6 1.2-.61 1.2-.61 1.2-.6 1.21-.61 1.2-.6 1.2-.61 1.21-.61 1.2-.6 1.2-.61 1.2-.61 1.21-.6" style="stroke-width:1.07;stroke:#000000;stroke-opacity:0.10;stroke-linecap:butt"/><path d="m403.56 386.36.63 1.35.62 1.34.62 1.36.62 1.35.61 1.35.61 1.36.6 1.35.6 1.36.59 1.36.59 1.36.59 1.37.58 1.36.58 1.37.58 1.37.57 1.37.56 1.37.56 1.37.56 1.38.55 1.38.55 1.37.55 1.38.54 1.39.53 1.38.54 1.38.53 1.39.52 1.39.52 1.39.52 1.39.51 1.39.5 1.4.51 1.39.5 1.4.49 1.4.49 1.4.49 1.41.48 1.4.48 1.41.47 1.41.47 1.41.47 1.41.46 1.41.46 1.42.45 1.41.45 1.42.45 1.42.44 1.42.44 1.42.43 1.43.43 1.43.42 1.42.42 1.43.42 1.43.41 1.44.41 1.43.4 1.44.4 1.44.39 1.43.4 1.45.38 1.44.39 1.44.37 1.45.38 1.45.37 1.45.36 1.45.37 1.45.35 1.45.36 1.46.35 1.46.34 1.46.34 1.46.34 1.46.33 1.47.33 1.46.33 1.47.32 1.47.31 1.47.31 1.47.31 1.48.31 1.47.3 1.48.29 1.48.29 1.48.29 1.48.28 1.49.28 1.48.28 1.49.27 1.49.26 1.49.26 1.49.26 1.49.26 1.5.25 1.5.24 1.5.24 1.5.24 1.5.23 1.5.23 1.51.23 1.51.22 1.5" style="stroke-width:1.07;stroke:#000000;stroke-opacity:0.10;stroke-linecap:butt"/><path d="m156.04 342.61 6.99 12.11h-13.98zm146.26-189 5.51 9.53H296.8zM403.56 380l5.51 9.54h-11.02z" style="stroke-width:0.71;stroke:none;fill:#00BA38"/><circle cx="285.85" cy="312.42" r="6.76" style="stroke-width:0.71;stroke:none;fill:#F8766D"/><path d="M48.16 263.91h10.39v-10.39H48.16z" style="stroke-width:0.71;stroke:none;fill:#619CFF"/><circle cx="85.28" cy="475.8" r="1.42" style="stroke-width:0.71;stroke:none;fill:#F8766D"/><path d="M441.48 531.81h8.17v-8.17h-8.17z" style="stroke-width:0.71;stroke:none;fill:#619CFF"/><circle cx="522.65" cy="326.35" r="1.42" style="stroke-width:0.71;stroke:none;fill:#F8766D"/><path d="m150.65 355.32 4.58-3.94m151.91-198.02-4.21 5.74m95.05 231.85 4.76-3.91m-122.52-69.98 4.81-3.96M58.25 257.63l-3.86.85m36.57 212.73-4.85 3.92m365.09 47.96-4.81 3.96m71.38-200.58 3.81-.09" style="stroke-width:0.53;stroke:#BFBFBF"/><path d="M114.77 366.44h56.48-.09l.35-.02.34-.07.32-.12.31-.17.26-.22.24-.26.18-.3.14-.32.08-.33.03-.35h0v-6.8h0l-.03-.34-.08-.34-.14-.32-.18-.29-.24-.26-.26-.22-.31-.18-.32-.12-.34-.07-.26-.02h-56.48l.27.02-.35-.02-.35.05-.33.09-.32.15-.28.2-.25.24-.21.28-.16.31-.11.33-.06.34-.01.17v6.8l.01-.17v.34l.06.35.11.33.16.3.21.28.25.24.28.2.32.15.33.1.35.04z" style="stroke-width:0.53;fill:#FFFFFF;fill-opacity:0.50"/><text x="143.01" y="362.84" lengthAdjust="spacingAndGlyphs" style="font-size:5.69px;font-family:&quot;Liberation Sans&quot;" text-anchor="middle" textLength="53.59">REI PLATFORM LLC</text><path d="M309.3 156.3h59.8-.09l.35-.02.34-.07.32-.12.3-.17.27-.22.23-.26.19-.3.14-.32.08-.34.03-.34h0v-6.8h0l-.03-.35-.08-.33-.14-.32-.19-.3-.23-.26-.27-.22-.3-.17-.32-.12-.34-.07-.26-.02h-59.8l.26.02-.35-.02-.35.04-.33.1-.31.15-.29.2-.25.24-.21.28-.16.3-.11.33-.06.35v6.97-.18.35l.06.34.11.33.16.31.21.28.25.24.29.2.31.15.33.09.35.05z" style="stroke-width:0.53;fill:#FFFFFF;fill-opacity:0.50"/><text x="339.2" y="152.7" lengthAdjust="spacingAndGlyphs" style="font-size:5.69px;font-family:&quot;Liberation Sans&quot;" text-anchor="middle" textLength="56.92">SHAPRECE NABORS</text><path d="M356.37 410.26h58.05-.09l.35-.01.34-.07.33-.13.3-.17.27-.22.23-.26.18-.3.14-.32.08-.33.03-.35h0v-14.99h0l-.03-.35-.08-.33-.14-.32-.18-.3-.23-.26-.27-.22-.3-.17-.33-.13-.34-.06-.26-.02h-58.05l.26.02-.35-.02-.34.04-.34.1-.31.15-.29.2-.25.24-.21.28-.16.3-.11.33-.05.35-.01.17v14.99l.01-.17v.34l.05.35.11.33.16.31.21.27.25.24.29.2.31.15.34.1.34.04z" style="stroke-width:0.53;fill:#FFFFFF;fill-opacity:0.50"/><text x="385.4" y="398.47" lengthAdjust="spacingAndGlyphs" style="font-size:5.69px;font-family:&quot;Liberation Sans&quot;" text-anchor="middle" textLength="55.17">COMMUNITY LIVING</text><text x="385.4" y="406.66" lengthAdjust="spacingAndGlyphs" style="font-size:5.69px;font-family:&quot;Liberation Sans&quot;" text-anchor="middle" textLength="42.53">PLATFORM LLC</text><path d="M235.69 336.37h63.85-.09l.35-.02.34-.07.32-.12.31-.17.26-.22.23-.26.19-.3.14-.32.08-.34.03-.34h0v-14.99h0l-.03-.35-.08-.34-.14-.32-.19-.29-.23-.26-.26-.22-.31-.17-.32-.13-.34-.07-.26-.01h-63.85l.26.01-.35-.01-.34.04-.34.1-.31.15-.29.19-.25.24-.21.28-.16.31-.11.33-.05.34-.01.18v14.99l.01-.18v.35l.05.35.11.32.16.31.21.28.25.24.29.2.31.15.34.09.34.05z" style="stroke-width:0.53;fill:#FFFFFF;fill-opacity:0.50"/><text x="267.61" y="324.57" lengthAdjust="spacingAndGlyphs" style="font-size:5.69px;font-family:&quot;Liberation Sans&quot;" text-anchor="middle" textLength="43.91">PO BOX 100731,</text><text x="267.61" y="332.77" lengthAdjust="spacingAndGlyphs" style="font-size:5.69px;font-family:&quot;Liberation Sans&quot;" text-anchor="middle" textLength="60.97">MILWAUKEE, WI 53210</text><path d="M60.41 271.33h65.11-.09l.35-.01.34-.07.33-.13.3-.17.27-.22.23-.26.18-.29.14-.32.08-.34.03-.35h0v-23.18h0l-.03-.35-.08-.34-.14-.32-.18-.29-.23-.26-.27-.22-.3-.17-.33-.13-.34-.07-.26-.01H60.41l.26.01-.35-.01-.35.04-.33.1-.31.15-.29.19-.25.25-.21.27-.16.31-.11.33-.06.34v23.36-.17.35l.06.34.11.33.16.31.21.28.25.24.29.19.31.15.33.1.35.04z" style="stroke-width:0.53;fill:#FFFFFF;fill-opacity:0.50"/><text x="92.96" y="251.34" lengthAdjust="spacingAndGlyphs" style="font-size:5.69px;font-family:&quot;Liberation Sans&quot;" text-anchor="middle" textLength="62.23">5521 CENTER ST, UNIT</text><text x="92.96" y="259.54" lengthAdjust="spacingAndGlyphs" style="font-size:5.69px;font-family:&quot;Liberation Sans&quot;" text-anchor="middle" textLength="57.17">100731, MILWAUKEE,</text><text x="92.96" y="267.73" lengthAdjust="spacingAndGlyphs" style="font-size:5.69px;font-family:&quot;Liberation Sans&quot;" text-anchor="middle" textLength="24.31">WI 53210</text><path d="M76.74 471.21h63.85-.09l.35-.02.34-.07.32-.12.3-.17.27-.22.23-.26.19-.3.14-.32.08-.33.03-.35h0v-23.19h0l-.03-.34-.08-.34-.14-.32-.19-.29-.23-.26-.27-.22-.3-.18-.32-.12-.34-.07-.26-.02H76.74l.26.02-.35-.01-.34.04-.34.1-.31.14-.29.2-.25.24-.21.28-.16.31-.11.33-.06.34v23.36-.17.34l.06.35.11.33.16.3.21.28.25.24.29.2.31.15.34.1.34.04z" style="stroke-width:0.53;fill:#FFFFFF;fill-opacity:0.50"/><text x="108.66" y="451.22" lengthAdjust="spacingAndGlyphs" style="font-size:5.69px;font-family:&quot;Liberation Sans&quot;" text-anchor="middle" textLength="57.5">8626 W GREENFIELD</text><text x="108.66" y="459.42" lengthAdjust="spacingAndGlyphs" style="font-size:5.69px;font-family:&quot;Liberation Sans&quot;" text-anchor="middle" textLength="34.66">AVE, STE 81,</text><text x="108.66" y="467.61" lengthAdjust="spacingAndGlyphs" style="font-size:5.69px;font-family:&quot;Liberation Sans&quot;" text-anchor="middle" textLength="60.97">MILWAUKEE, WI 53214</text><path d="M431.88 523.09h63.85l-.08-.01.34-.01.34-.07.33-.12.3-.18.27-.22.23-.26.18-.29.14-.32.08-.34.03-.34h0v-15h0l-.03-.34-.08-.34-.14-.32-.18-.29-.23-.26-.27-.22-.3-.18-.33-.12-.34-.07-.26-.02h-63.85l.26.02-.34-.01-.35.04-.33.09-.32.15-.28.2-.25.24-.21.28-.16.31-.11.33-.06.34-.01.17v15l.01-.18v.35l.06.34.11.33.16.31.21.28.25.24.28.2.32.14.33.1.35.04z" style="stroke-width:0.53;fill:#FFFFFF;fill-opacity:0.50"/><text x="463.81" y="511.29" lengthAdjust="spacingAndGlyphs" style="font-size:5.69px;font-family:&quot;Liberation Sans&quot;" text-anchor="middle" textLength="43.91">100731 PO BOX,</text><text x="463.81" y="519.49" lengthAdjust="spacingAndGlyphs" style="font-size:5.69px;font-family:&quot;Liberation Sans&quot;" text-anchor="middle" textLength="60.97">MILWAUKEE, WI 53210</text><path d="M445.73 340.22h69.88-.09l.35-.01.34-.07.33-.12.3-.18.27-.22.23-.26.18-.29.14-.32.08-.34.03-.35h0v-23.18h0l-.03-.35-.08-.33-.14-.32-.18-.3-.23-.26-.27-.22-.3-.17-.33-.13-.34-.06-.26-.02h-69.88l.26.02-.35-.02-.34.04-.34.1-.31.15-.29.2-.25.24-.21.27-.16.31-.11.33-.05.35-.01.17v23.18l.01-.17v.35l.05.34.11.33.16.31.21.28.25.24.29.2.31.14.34.1.34.04z" style="stroke-width:0.53;fill:#FFFFFF;fill-opacity:0.50"/><text x="480.67" y="320.24" lengthAdjust="spacingAndGlyphs" style="font-size:5.69px;font-family:&quot;Liberation Sans&quot;" text-anchor="middle" textLength="67">333 W BROWN DEER RD</text><text x="480.67" y="328.43" lengthAdjust="spacingAndGlyphs" style="font-size:5.69px;font-family:&quot;Liberation Sans&quot;" text-anchor="middle" textLength="60.66">G925, MILWAUKEE, WI</text><text x="480.67" y="336.62" lengthAdjust="spacingAndGlyphs" style="font-size:5.69px;font-family:&quot;Liberation Sans&quot;" text-anchor="middle" textLength="15.78">53217</text></g><g clip-path="url(#cpMC4wMHw1NzYuMDB8MC4wMHw1NzYuMDA=)"><circle cx="192.83" cy="116.5" r="1.95" style="stroke-width:0.71;stroke:none;fill:#F8766D"/><path d="m269.23 113.46 2.63 4.56h-5.26z" style="stroke-width:0.71;stroke:none;fill:#00BA38"/><path d="M335.23 118.45h3.91v-3.91h-3.91z" style="stroke-width:0.71;stroke:none;fill:#619CFF"/><text x="206.95" y="119.66" lengthAdjust="spacingAndGlyphs" style="font-size:8.80px;font-weight:0;font-family:&quot;Nimbus Sans Narrow&quot;" textLength="48.16">mprop address</text><text x="283.35" y="119.66" lengthAdjust="spacingAndGlyphs" style="font-size:8.80px;font-weight:0;font-family:&quot;Nimbus Sans Narrow&quot;" textLength="39.72">owner name</text><text x="351.31" y="119.66" lengthAdjust="spacingAndGlyphs" style="font-size:8.80px;font-weight:0;font-family:&quot;Nimbus Sans Narrow&quot;" textLength="40.5">wdfi address</text><text x="29.89" y="84.79" lengthAdjust="spacingAndGlyphs" style="font-size:12.00px;font-weight:0;font-family:&quot;Nimbus Sans Narrow&quot;" textLength="246.64">includes 7 parcels, 12 units, and 3 distinct owner names.</text><text x="29.89" y="42.81" lengthAdjust="spacingAndGlyphs" style="font-size:18.00px;font-weight:0;font-family:&quot;Nimbus Sans Narrow&quot;" textLength="438.69">REI PLATFORM LLC -- COMMUNITY LIVING PLATFORM LLC --</text><text x="29.89" y="62.25" lengthAdjust="spacingAndGlyphs" style="font-size:18.00px;font-weight:0;font-family:&quot;Nimbus Sans Narrow&quot;" textLength="198.44">SHAPRECE NABORS Group</text></g></g></svg>