<svg xmlns="http://www.w3.org/2000/svg" width="384" height="480" class="svglite" viewBox="0 0 288 360"><defs><style><![CDATA[.svglite line,.svglite polyline,.svglite polygon,.svglite path,.svglite circle{fill:none;stroke:#000000;stroke-linecap:round;stroke-linejoin:round;stroke-miterlimit:10.00}]]></style></defs><rect width="100%" height="100%" style="stroke-linecap:round;stroke-linejoin:round;stroke-miterlimit:10.00;stroke:none;fill:#FFFFFF"/><defs><clipPath id="cpMC4wMHwyODguMDB8MC4wMHwzNjAuMDA="><path d="M0 0h288v360H0z"/></clipPath></defs><g clip-path="url(#cpMC4wMHwyODguMDB8MC4wMHwzNjAuMDA=)"><path d="M0 0h288v360H0z" style="stroke-width:1.07;stroke:none;fill:#FFFFFF"/></g><defs><clipPath id="cpMzIuNjN8MjU4LjExfDE0MS4yMnwzMjcuMzc="><path d="M32.63 141.22h225.48v186.15H32.63z"/></clipPath></defs><g clip-path="url(#cpMzIuNjN8MjU4LjExfDE0MS4yMnwzMjcuMzc=)"><path d="m247.86 267.14-1.22-.22-1.22-.22-1.22-.22-1.23-.22-1.22-.22-1.22-.22-1.22-.22-1.23-.23-1.22-.22-1.22-.22-1.22-.22-1.22-.22-1.23-.22-1.22-.22-1.22-.22-1.22-.22-1.23-.23-1.22-.22-1.22-.22-1.22-.22-1.22-.22-1.23-.22-1.22-.22-1.22-.22-1.22-.23-1.23-.22-1.22-.22-1.22-.22-1.22-.22-1.22-.22-1.23-.22-1.22-.22-1.22-.22-1.22-.23-1.23-.22-1.22-.22-1.22-.22-1.22-.22-1.22-.22-1.23-.22-1.22-.22-1.22-.23-1.22-.22-1.23-.22-1.22-.22-1.22-.22-1.22-.22-1.22-.22-1.23-.22-1.22-.23-1.22-.22-1.22-.22-1.23-.22-1.22-.22-1.22-.22-1.22-.22-1.22-.22-1.23-.22-1.22-.23-1.22-.22-1.22-.22-1.23-.22-1.22-.22-1.22-.22-1.22-.22-1.22-.22-1.23-.23-1.22-.22-1.22-.22-1.22-.22-1.23-.22-1.22-.22-1.22-.22-1.22-.22-1.22-.22-1.23-.23-1.22-.22-1.22-.22-1.22-.22-1.23-.22-1.22-.22-1.22-.22-1.22-.22-1.22-.23-1.23-.22-1.22-.22-1.22-.22-1.22-.22-1.23-.22-1.22-.22-1.22-.22-1.22-.22-1.22-.23-1.23-.22-1.22-.22-1.22-.22-1.22-.22-1.23-.22-1.22-.22m-37.01-95.56-.07 1.07-.06 1.08-.05 1.07-.05 1.07-.03 1.07-.03 1.07-.01 1.06-.01 1.06.01 1.06.01 1.06.02 1.05.03 1.05.04 1.05.04 1.05.06 1.05.07 1.04.07 1.04.09 1.04.09 1.03.1 1.04.11 1.03.12 1.03.13 1.03.14 1.02.15 1.02.15 1.02.17 1.02.17 1.02.19 1.01.19 1.01.2 1.01.21 1.01.22 1 .23 1 .24 1 .25 1 .25.99.27 1 .27.99.29.99.29.98.3.98.31.99.32.97.33.98.34.98.34.97.36.97.36.97.38.96.38.96.39.96.4.96.41.96.42.95.43.95.44.95.45.95.45.95.47.94.47.94.48.94.49.93.5.93.51.94.52.92.53.93.54.92.54.93.56.92.56.91.57.92.59.91.59.91.6.91.61.9.62.91.62.9.64.9.65.9.65.89.66.89.68.89.68.89.69.88.7.89.71.88.72.88.72.87.74.88.74.87.76.87.76.86.77.87.79.86.79.86.8.86.8.85.82.86" style="stroke-width:1.07;stroke:#000000;stroke-opacity:0.10;stroke-linecap:butt"/><path d="m89.85 149.69.22 1 .23 1 .23 1 .24 1 .24 1 .24 1 .24 1 .25 1 .25.99.25 1 .26.99.26 1 .26.99.27.99.26.99.28 1 .27.99.28.99.28.99.28.98.29.99.29.99.29.98.29.99.3.98.3.99.31.98.31.98.31.98.31.98.32.98.32.98.32.98.32.98.33.97.33.98.34.97.34.98.34.97.34.98.35.97.35.97.35.97.36.97.35.97.37.97.36.96.37.97.37.97.37.96.38.97.38.96.38.96.39.97.39.96.39.96.4.96.39.96.4.96.41.95.41.96.41.96.41.95.42.96.41.95.43.95.42.96.43.95.43.95.44.95.43.95.44.95.45.94.44.95.45.95.45.94.46.95.46.94.46.94.46.95.47.94.47.94.48.94.47.94.48.94.48.93.49.94.49.94.49.93.49.94.5.93.5.94.51.93.5.93.51.93.52.93.51.93.52.93.52.93" style="stroke-width:1.07;stroke:#000000;stroke-opacity:0.10;stroke-linecap:butt"/><path d="m89.85 149.69.52.92.52.93.51.93.52.93.51.93.5.93.51.94.5.93.5.93.49.94.49.93.49.94.49.94.48.94.48.93.47.94.48.94.47.94.47.95.46.94.46.94.46.95.46.94.45.95.45.94.44.95.45.95.44.95.43.94.44.95.43.96.43.95.42.95.43.95.41.96.42.95.41.96.41.95.41.96.41.96.4.96.39.95.4.96.39.96.39.97.39.96.38.96.38.97.38.96.37.96.37.97.37.97.36.97.37.96.35.97.36.97.35.97.35.97.35.98.34.97.34.97.34.98.34.97.33.98.33.98.32.97.32.98.32.98.32.98.31.98.31.98.31.98.31.99.3.98.3.98.29.99.29.99.29.98.29.99.28.99.28.99.28.99.27.99.28.99.26.99.27.99.26 1 .26.99.26 1 .25.99.25 1 .25.99.24 1 .24 1 .24 1 .24 1 .23 1 .23 1 .22 1.01" style="stroke-width:1.07;stroke:#000000;stroke-opacity:0.10;stroke-linecap:butt"/><path d="m89.85 149.69.82.85.8.85.8.86.79.86.79.86.77.87.76.87.76.87.74.87.74.87.72.88.72.87.71.89.7.88.69.88.68.89.68.89.66.89.65.9.65.89.64.9.62.9.62.91.61.9.6.91.59.91.59.91.57.92.56.92.56.92.54.92.54.92.53.93.52.93.51.93.5.93.49.94.48.93.48.95.46.94.46.94.44.95.44.95.43.95.42.95.41.96.4.96.39.96.38.96.38.97.36.96.36.97.34.98.34.97.33.98.32.98.31.98.3.98.29.99.29.99.27.99.27.99.25.99.25 1 .24 1 .23 1 .22 1.01.21 1 .2 1.01.19 1.01.19 1.02.17 1.01.17 1.02.15 1.02.15 1.02.14 1.03.13 1.02.12 1.03.11 1.03.1 1.04.09 1.03.09 1.04.07 1.04.07 1.05.06 1.04.04 1.05.04 1.05.03 1.05.02 1.06.02 1.05v1.06l-.01 1.06-.01 1.07-.03 1.06-.03 1.07-.04 1.07-.06 1.07-.06 1.08-.07 1.08m-83.98 73.66.85-.74.84-.75.85-.74.85-.75.85-.74.85-.74.85-.75.84-.74.85-.75.85-.74.85-.74.85-.75.85-.74.84-.75.85-.74.85-.74.85-.75.85-.74.85-.75.84-.74.85-.74.85-.75.85-.74.85-.75.85-.74.84-.75.85-.74.85-.74.85-.75.85-.74.85-.75.84-.74.85-.74.85-.75.85-.74.85-.75.85-.74.84-.74.85-.75.85-.74.85-.75.85-.74.85-.74.84-.75.85-.74.85-.75.85-.74.85-.74.85-.75.84-.74.85-.75.85-.74.85-.75.85-.74.85-.74.84-.75.85-.74.85-.75.85-.74.85-.74.85-.75.84-.74.85-.75.85-.74.85-.74.85-.75.85-.74.84-.75.85-.74.85-.74.85-.75.85-.74.85-.75.84-.74.85-.75.85-.74.85-.74.85-.75.85-.74.84-.75.85-.74.85-.74.85-.75.85-.74.85-.75.84-.74.85-.74.85-.75.85-.74.85-.75.85-.74.84-.74.85-.75.85-.74.85-.75.85-.74.85-.74.84-.75.85-.74" style="stroke-width:1.07;stroke:#000000;stroke-opacity:0.10;stroke-linecap:butt"/><path d="m247.86 264.93 1.92 3.32h-3.83zM89.85 141.05 97.33 154H82.37zM42.88 316.7l1.91 3.32h-3.83z" style="stroke-width:0.71;stroke:none;fill:#00BFC4"/><circle cx="126.86" cy="245.25" r="6.76" style="stroke-width:0.71;stroke:none;fill:#F8766D"/><path d="m84.75 154.3 4.24-3.84M48.14 314.3l-4.39 3.85m88.42-77.51-4.43 3.85" style="stroke-width:0.53;stroke:#BFBFBF"/><path d="M192.27 272.78h48.68-.09l.35-.02.34-.07.33-.12.3-.17.27-.22.23-.26.18-.3.14-.32.08-.33.03-.35h0v-6.96h0l-.03-.35-.08-.34-.14-.32-.18-.29-.23-.26-.27-.22-.3-.17-.33-.13-.34-.07-.26-.01h-48.68l.26.01-.35-.01-.35.04-.33.1-.31.15-.29.19-.25.25-.21.27-.16.31-.11.33-.06.34v7.14-.17.34l.06.35.11.33.16.3.21.28.25.24.29.2.31.15.33.1.35.04z" style="stroke-width:0.53;fill:#FFFFFF;fill-opacity:0.50"/><text x="216.61" y="269.18" lengthAdjust="spacingAndGlyphs" style="font-size:5.69px;font-family:Arial" text-anchor="middle" textLength="45.81">RENEE D DEUEL</text><path d="M55.93 165.58h43-.09l.35-.01.34-.07.33-.12.3-.18.27-.22.23-.26.18-.29.14-.32.08-.34.03-.35h0v-6.96h0l-.03-.35-.08-.33-.14-.32-.18-.3-.23-.26-.27-.22-.3-.17-.33-.12-.34-.07-.26-.02h-43l.26.02-.35-.02-.35.04-.33.1-.31.15-.29.2-.25.24-.21.28-.16.3-.11.33-.06.35v7.13-.17.35l.06.34.11.33.16.31.21.28.25.24.29.19.31.15.33.1.35.04z" style="stroke-width:0.53;fill:#FFFFFF;fill-opacity:0.50"/><text x="77.43" y="161.98" lengthAdjust="spacingAndGlyphs" style="font-size:5.69px;font-family:Arial" text-anchor="middle" textLength="40.13">RENEE DEUEL</text><path d="M38.39 314.3h40.47-.09l.35-.02.34-.07.32-.12.31-.17.27-.22.23-.26.18-.3.14-.32.08-.34.03-.34h0v-6.96h0l-.03-.35-.08-.34-.14-.32-.18-.29-.23-.26-.27-.22-.31-.18-.32-.12-.34-.07-.26-.01H38.39l.26.01-.35-.01-.34.04-.34.1-.31.14-.29.2-.25.24-.21.28-.16.31-.11.33-.06.34v7.14-.18.35l.06.34.11.33.16.31.21.28.25.24.29.2.31.15.34.09.34.05z" style="stroke-width:0.53;fill:#FFFFFF;fill-opacity:0.50"/><text x="58.62" y="310.7" lengthAdjust="spacingAndGlyphs" style="font-size:5.69px;font-family:Arial" text-anchor="middle" textLength="37.59">GUY L DEUEL</text><path d="M111.99 240.64h64.49-.09l.35-.01.34-.07.33-.12.3-.18.27-.22.23-.26.18-.29.14-.32.08-.34.03-.35h0v-15.15h0l-.03-.35-.08-.34-.14-.32-.18-.29-.23-.26-.27-.22-.3-.17-.33-.13-.34-.07-.26-.01h-64.49l.26.01-.35-.01-.34.04-.34.1-.31.15-.29.19-.25.25-.21.27-.16.31-.11.33-.05.34-.01.18v15.15l.01-.17v.35l.05.34.11.33.16.31.21.28.25.24.29.2.31.14.34.1.34.04z" style="stroke-width:0.53;fill:#FFFFFF;fill-opacity:0.50"/><text x="144.23" y="228.85" lengthAdjust="spacingAndGlyphs" style="font-size:5.69px;font-family:Arial" text-anchor="middle" textLength="55.93">2139 W ALVINA AVE,</text><text x="144.23" y="237.04" lengthAdjust="spacingAndGlyphs" style="font-size:5.69px;font-family:Arial" text-anchor="middle" textLength="61.61">MILWAUKEE, WI 53221</text></g><g clip-path="url(#cpMC4wMHwyODguMDB8MC4wMHwzNjAuMDA=)"><circle cx="87.34" cy="116.15" r="1.95" style="stroke-width:0.71;stroke:none;fill:#F8766D"/><path d="m163.7 113.11 2.63 4.56h-5.26z" style="stroke-width:0.71;stroke:none;fill:#00BFC4"/><text x="101.46" y="119.3" lengthAdjust="spacingAndGlyphs" style="font-size:8.80px;font-family:Arial Narrow" textLength="48.12">mprop address</text><text x="177.82" y="119.3" lengthAdjust="spacingAndGlyphs" style="font-size:8.80px;font-family:Arial Narrow" textLength="39.69">owner name</text><text x="32.63" y="84.56" lengthAdjust="spacingAndGlyphs" style="font-size:12.00px;font-family:Arial Narrow" textLength="246.04">includes 6 parcels, 11 units, and 3 distinct owner names.</text><text x="32.63" y="42.78" lengthAdjust="spacingAndGlyphs" style="font-size:18.00px;font-weight:bold;font-family:Arial Narrow" textLength="221.44">RENEE DEUEL -- GUY L DEUEL</text><text x="32.63" y="62.22" lengthAdjust="spacingAndGlyphs" style="font-size:18.00px;font-weight:bold;font-family:Arial Narrow" textLength="181.76">-- RENEE D DEUEL Group</text></g></svg>