<svg xmlns="http://www.w3.org/2000/svg" class="svglite" width="768" height="768" viewBox="0 0 576 576"><defs><style>.svglite circle,.svglite line,.svglite polygon,.svglite polyline,.svglite rect{fill:none;stroke:#000;stroke-linecap:round;stroke-linejoin:round;stroke-miterlimit:10}.svglite text{white-space:pre}</style></defs><rect width="100%" height="100%" style="stroke:none;fill:#fff"/><defs><clipPath id="cpMC4wMHw1NzYuMDB8MC4wMHw1NzYuMDA="><path d="M0 0h576v576H0z"/></clipPath></defs><g clip-path="url(#cpMC4wMHw1NzYuMDB8MC4wMHw1NzYuMDA=)"><path style="stroke-width:1.07;stroke:none;fill:#fff" d="M0 0h576v576H0z"/></g><defs><clipPath id="cpMzIuNjN8NTQ2LjExfDEyMS43OHw1NDMuMzc="><path d="M32.63 121.78h513.48v421.59H32.63z"/></clipPath></defs><g clip-path="url(#cpMzIuNjN8NTQ2LjExfDEyMS43OHw1NDMuMzc=)"><path style="stroke-width:1.07;stroke:#000;stroke-opacity:.1;stroke-linecap:butt" d="m345.81 524.21-.84-2.2-.84-2.2-.84-2.19-.84-2.2-.84-2.2-.84-2.19-.84-2.2-.85-2.2-.84-2.2-.84-2.19-.84-2.2-.84-2.2-.84-2.2-.84-2.19-.84-2.2-.84-2.2-.84-2.2-.84-2.19-.84-2.2-.84-2.2-.84-2.2-.84-2.19-.84-2.2-.84-2.2-.84-2.19-.84-2.2-.84-2.2-.84-2.2-.84-2.19-.84-2.2-.84-2.2-.84-2.2-.85-2.19-.84-2.2-.84-2.2-.84-2.2-.84-2.19-.84-2.2-.84-2.2-.84-2.2-.84-2.19-.84-2.2-.84-2.2-.84-2.19-.84-2.2-.84-2.2-.84-2.2-.84-2.19-.84-2.2-.84-2.2-.84-2.2-.84-2.19-.84-2.2-.84-2.2-.84-2.2-.84-2.19-.84-2.2-.85-2.2-.84-2.19-.84-2.2-.84-2.2-.84-2.2-.84-2.19-.84-2.2-.84-2.2-.84-2.2-.84-2.19-.84-2.2-.84-2.2-.84-2.2-.84-2.19-.84-2.2-.84-2.2-.84-2.2-.84-2.19-.84-2.2-.84-2.2-.84-2.19-.84-2.2-.84-2.2-.84-2.2-.84-2.19-.85-2.2-.84-2.2-.84-2.2-.84-2.19-.84-2.2-.84-2.2-.84-2.2-.84-2.19-.84-2.2-.84-2.2-.84-2.2-.84-2.19-.84-2.2-.84-2.2-.84-2.19-.84-2.2-.84-2.2M345.81 524.21l1.07-1.58 1.07-1.58 1.07-1.58 1.07-1.58 1.06-1.58 1.07-1.58 1.07-1.58 1.07-1.58 1.07-1.58 1.07-1.58 1.07-1.57 1.07-1.58 1.07-1.58 1.07-1.58 1.07-1.58 1.07-1.58 1.07-1.58 1.07-1.58 1.07-1.58 1.07-1.58 1.07-1.58 1.06-1.58 1.07-1.58 1.07-1.58 1.07-1.58 1.07-1.58 1.07-1.58 1.07-1.58 1.07-1.57 1.07-1.58 1.07-1.58 1.07-1.58 1.07-1.58 1.07-1.58 1.07-1.58 1.07-1.58 1.07-1.58 1.07-1.58 1.06-1.58 1.07-1.58 1.07-1.58 1.07-1.58 1.07-1.58 1.07-1.58 1.07-1.58 1.07-1.58 1.07-1.58 1.07-1.57 1.07-1.58 1.07-1.58 1.07-1.58 1.07-1.58 1.07-1.58 1.07-1.58 1.07-1.58 1.06-1.58 1.07-1.58 1.07-1.58 1.07-1.58 1.07-1.58 1.07-1.58 1.07-1.58 1.07-1.58 1.07-1.58 1.07-1.58 1.07-1.57 1.07-1.58 1.07-1.58 1.07-1.58 1.07-1.58 1.07-1.58 1.07-1.58 1.06-1.58 1.07-1.58 1.07-1.58 1.07-1.58 1.07-1.58 1.07-1.58 1.07-1.58 1.07-1.58 1.07-1.58 1.07-1.58 1.07-1.58 1.07-1.57 1.07-1.58 1.07-1.58 1.07-1.58 1.07-1.58 1.06-1.58 1.07-1.58 1.07-1.58 1.07-1.58 1.07-1.58 1.07-1.58 1.07-1.58 1.07-1.58 1.07-1.58 1.07-1.58 1.07-1.58M522.77 190.11l-2.73.98-2.73.98-2.73.99-2.73.99-2.73.99-2.72 1-2.72 1.01-2.72 1-2.72 1.02-2.71 1.01-2.71 1.02-2.71 1.02-2.71 1.03-2.71 1.03-2.7 1.04-2.7 1.04-2.7 1.04-2.7 1.05-2.69 1.05-2.7 1.06-2.69 1.06-2.69 1.06-2.68 1.07-2.69 1.07-2.68 1.08-2.68 1.08-2.68 1.08-2.67 1.09-2.68 1.1-2.67 1.09-2.67 1.1-2.66 1.11-2.67 1.11-2.66 1.11-2.66 1.11-2.66 1.13-2.66 1.12-2.65 1.13-2.65 1.13-2.65 1.14-2.65 1.14-2.64 1.14-2.65 1.15-2.64 1.16-2.64 1.15-2.63 1.16-2.64 1.17-2.63 1.17-2.63 1.17-2.63 1.18-2.62 1.18-2.63 1.19-2.62 1.19-2.62 1.19-2.61 1.2-2.62 1.2-2.61 1.21-2.61 1.21-2.61 1.21-2.61 1.22-2.6 1.22-2.6 1.22-2.6 1.23-2.6 1.24-2.6 1.24-2.59 1.24-2.59 1.25-2.59 1.25-2.59 1.25-2.58 1.26-2.58 1.26-2.58 1.27-2.58 1.27-2.58 1.27-2.57 1.28-2.57 1.28-2.57 1.29-2.57 1.29-2.56 1.3-2.57 1.29-2.56 1.31-2.56 1.3-2.55 1.31-2.56 1.32-2.55 1.32-2.55 1.32-2.55 1.33-2.54 1.33-2.55 1.34-2.54 1.33-2.54 1.35-2.53 1.35-2.54 1.35-2.53 1.35-2.53 1.36-2.53 1.37-2.53 1.36-2.52 1.38-2.52 1.37"/><path style="stroke-width:1.07;stroke:#000;stroke-opacity:.1;stroke-linecap:butt" d="m356.34 140.95-.95 1.67-.94 1.68-.95 1.67-.95 1.67-.94 1.68-.95 1.67-.95 1.68-.94 1.67-.95 1.67-.95 1.68-.94 1.67-.95 1.68-.95 1.67-.94 1.67-.95 1.68-.95 1.67-.94 1.67-.95 1.68-.95 1.67-.94 1.68-.95 1.67-.95 1.67-.94 1.68-.95 1.67-.95 1.68-.95 1.67-.94 1.67-.95 1.68-.95 1.67-.94 1.68-.95 1.67-.95 1.67-.94 1.68-.95 1.67-.95 1.68-.94 1.67-.95 1.67-.95 1.68-.94 1.67-.95 1.68-.95 1.67-.94 1.67-.95 1.68-.95 1.67-.94 1.68-.95 1.67-.95 1.67-.94 1.68-.95 1.67-.95 1.68-.95 1.67-.94 1.67-.95 1.68-.95 1.67-.94 1.68-.95 1.67-.95 1.67-.94 1.68-.95 1.67-.95 1.68-.94 1.67-.95 1.67-.95 1.68-.94 1.67-.95 1.68-.95 1.67-.94 1.67-.95 1.68-.95 1.67-.94 1.68-.95 1.67-.95 1.67-.94 1.68-.95 1.67-.95 1.68-.95 1.67-.94 1.67-.95 1.68-.95 1.67-.94 1.68-.95 1.67-.95 1.67-.94 1.68-.95 1.67-.95 1.68-.94 1.67-.95 1.67-.95 1.68-.94 1.67-.95 1.68-.95 1.67-.94 1.67-.95 1.68-.95 1.67-.94 1.67-.95 1.68-.95 1.67-.94 1.68-.95 1.67M356.34 140.95l.96 2.29.97 2.29.96 2.29.96 2.29.97 2.3.96 2.29.96 2.29.97 2.29.96 2.29.96 2.3.96 2.29.97 2.29.96 2.29.96 2.29.97 2.3.96 2.29.96 2.29.97 2.29.96 2.29.96 2.29.96 2.3.97 2.29.96 2.29.96 2.29.97 2.29.96 2.3.96 2.29.97 2.29.96 2.29.96 2.29.96 2.3.97 2.29.96 2.29.96 2.29.97 2.29.96 2.3.96 2.29.97 2.29.96 2.29.96 2.29.96 2.29.97 2.3.96 2.29.96 2.29.97 2.29.96 2.29.96 2.3.97 2.29.96 2.29.96 2.29.96 2.29.97 2.3.96 2.29.96 2.29.97 2.29.96 2.29.96 2.29.97 2.3.96 2.29.96 2.29.96 2.29.97 2.29.96 2.3.96 2.29.97 2.29.96 2.29.96 2.29.97 2.3.96 2.29.96 2.29.96 2.29.97 2.29.96 2.29.96 2.3.97 2.29.96 2.29.96 2.29.97 2.29.96 2.3.96 2.29.96 2.29.97 2.29.96 2.29.96 2.3.97 2.29.96 2.29.96 2.29.97 2.29.96 2.29.96 2.3.96 2.29.97 2.29.96 2.29.96 2.29.97 2.3.96 2.29.96 2.29.97 2.29.96 2.29M70.8 155.37l1.94 1.53 1.94 1.52 1.94 1.53 1.93 1.53 1.94 1.53 1.94 1.53 1.94 1.53 1.93 1.52 1.94 1.53 1.94 1.53 1.94 1.53 1.93 1.53 1.94 1.53 1.94 1.52 1.94 1.53 1.93 1.53 1.94 1.53 1.94 1.53 1.94 1.53 1.93 1.52 1.94 1.53 1.94 1.53 1.93 1.53 1.94 1.53 1.94 1.52 1.94 1.53 1.93 1.53 1.94 1.53 1.94 1.53 1.94 1.53 1.93 1.52 1.94 1.53 1.94 1.53 1.94 1.53 1.93 1.53 1.94 1.53 1.94 1.52 1.94 1.53 1.93 1.53 1.94 1.53 1.94 1.53 1.94 1.53 1.93 1.52 1.94 1.53 1.94 1.53 1.94 1.53 1.93 1.53 1.94 1.53 1.94 1.52 1.94 1.53 1.93 1.53 1.94 1.53 1.94 1.53 1.93 1.53 1.94 1.52 1.94 1.53 1.94 1.53 1.93 1.53 1.94 1.53 1.94 1.53 1.94 1.52 1.93 1.53 1.94 1.53 1.94 1.53 1.94 1.53 1.93 1.53 1.94 1.52 1.94 1.53 1.94 1.53 1.93 1.53 1.94 1.53 1.94 1.53 1.94 1.52 1.93 1.53 1.94 1.53 1.94 1.53 1.94 1.53 1.93 1.53 1.94 1.52 1.94 1.53 1.94 1.53 1.93 1.53 1.94 1.53 1.94 1.53 1.93 1.52 1.94 1.53 1.94 1.53 1.94 1.53 1.93 1.53 1.94 1.53 1.94 1.52 1.94 1.53 1.93 1.53 1.94 1.53 1.94 1.53 1.94 1.53 1.93 1.52 1.94 1.53 1.94 1.53M55.97 429.72l2.09-1.24 2.08-1.24 2.09-1.25 2.09-1.24 2.08-1.24 2.09-1.25 2.09-1.24 2.09-1.24 2.08-1.25 2.09-1.24 2.09-1.24 2.09-1.24 2.08-1.25 2.09-1.24 2.09-1.24 2.08-1.25 2.09-1.24 2.09-1.24 2.09-1.24 2.08-1.25 2.09-1.24 2.09-1.24 2.09-1.25 2.08-1.24 2.09-1.24 2.09-1.25 2.08-1.24 2.09-1.24 2.09-1.24 2.09-1.25 2.08-1.24 2.09-1.24 2.09-1.25 2.09-1.24 2.08-1.24 2.09-1.24 2.09-1.25 2.08-1.24 2.09-1.24 2.09-1.25 2.09-1.24 2.08-1.24 2.09-1.24 2.09-1.25 2.09-1.24 2.08-1.24 2.09-1.25 2.09-1.24 2.08-1.24 2.09-1.25 2.09-1.24 2.09-1.24 2.08-1.24 2.09-1.25 2.09-1.24 2.09-1.24 2.08-1.25 2.09-1.24 2.09-1.24 2.08-1.24 2.09-1.25 2.09-1.24 2.09-1.24 2.08-1.25 2.09-1.24 2.09-1.24 2.09-1.25 2.08-1.24 2.09-1.24 2.09-1.24 2.08-1.25 2.09-1.24 2.09-1.24 2.09-1.25 2.08-1.24 2.09-1.24 2.09-1.24 2.09-1.25 2.08-1.24 2.09-1.24 2.09-1.25 2.08-1.24 2.09-1.24 2.09-1.25 2.09-1.24 2.08-1.24 2.09-1.24 2.09-1.25 2.09-1.24 2.08-1.24 2.09-1.25 2.09-1.24 2.08-1.24 2.09-1.24 2.09-1.25 2.09-1.24 2.08-1.24 2.09-1.25 2.09-1.24"/><path style="stroke-width:1.07;stroke:#000;stroke-opacity:.1;stroke-linecap:butt" d="m522.77 190.11-2.52 1.37-2.52 1.38-2.53 1.36-2.53 1.37-2.53 1.36-2.53 1.35-2.54 1.35-2.53 1.35-2.54 1.35-2.54 1.33-2.55 1.34-2.54 1.33-2.55 1.33-2.55 1.32-2.55 1.32-2.56 1.32-2.55 1.31-2.56 1.3-2.56 1.31-2.56 1.29-2.57 1.3-2.57 1.29-2.57 1.29-2.57 1.28-2.57 1.28-2.58 1.27-2.58 1.27-2.58 1.27-2.58 1.26-2.58 1.26-2.59 1.25-2.59 1.25-2.59 1.25-2.59 1.24-2.6 1.24-2.6 1.24-2.6 1.23-2.6 1.22-2.6 1.22-2.61 1.22-2.61 1.21-2.61 1.21-2.61 1.21-2.61 1.2-2.62 1.2-2.62 1.19-2.62 1.19-2.63 1.19-2.62 1.18-2.63 1.18-2.63 1.17-2.63 1.17-2.64 1.17-2.63 1.16-2.64 1.15-2.64 1.16-2.65 1.15-2.64 1.14-2.65 1.14-2.65 1.14-2.65 1.13-2.65 1.13-2.66 1.12-2.66 1.13-2.66 1.11-2.66 1.11-2.67 1.11-2.66 1.11-2.67 1.1-2.67 1.09-2.68 1.1-2.67 1.09-2.68 1.08-2.68 1.08-2.68 1.08-2.69 1.07-2.68 1.07-2.69 1.06-2.69 1.06-2.69 1.06-2.7 1.05-2.7 1.05-2.7 1.04-2.7 1.04-2.7 1.04-2.71 1.03-2.71 1.03-2.71 1.02-2.71 1.02-2.71 1.01-2.72 1.02-2.72 1-2.72 1.01-2.72 1-2.73.99-2.73.99-2.73.99-2.73.98-2.73.98"/><path style="stroke-width:1.07;stroke:#000;stroke-opacity:.1;stroke-linecap:butt" d="m451.68 367.84-1.63-1.34-1.64-1.32-1.64-1.31-1.65-1.29-1.65-1.28-1.66-1.27-1.67-1.25-1.67-1.23-1.68-1.22-1.68-1.21-1.69-1.19-1.69-1.18-1.7-1.16-1.71-1.15-1.71-1.13-1.71-1.12-1.73-1.1-1.72-1.09-1.74-1.07-1.74-1.06-1.74-1.05-1.75-1.03-1.76-1.01-1.76-1-1.77-.99-1.77-.97-1.78-.96-1.78-.94-1.8-.92-1.79-.92-1.8-.89-1.81-.89-1.81-.86-1.82-.86-1.83-.84-1.83-.82-1.83-.81-1.84-.79-1.85-.78-1.85-.77-1.86-.75-1.87-.73-1.87-.73-1.87-.7-1.89-.69-1.88-.68-1.89-.66-1.9-.65-1.91-.63-1.91-.62-1.91-.6-1.92-.59-1.93-.57-1.93-.56-1.94-.55-1.95-.53-1.94-.51-1.96-.5-1.96-.49-1.97-.47-1.97-.46-1.98-.44-1.98-.42-1.99-.42-2-.39-2-.39-2-.36-2.02-.36-2.01-.33-2.03-.33-2.03-.31-2.03-.29-2.04-.28-2.05-.27-2.05-.25-2.06-.23-2.06-.22-2.07-.21-2.07-.19-2.08-.18-2.09-.16-2.09-.15-2.1-.13-2.1-.12-2.11-.1-2.12-.09-2.12-.07-2.12-.06-2.13-.05-2.14-.02-2.14-.02h-2.15l-2.16.01-2.16.03-2.16.05-2.17.06-2.18.07-2.18.09-2.19.1"/><path style="stroke-width:1.07;stroke:#000;stroke-opacity:.1;stroke-linecap:butt" d="m451.68 367.84-1.74-1.05-1.75-1.04-1.75-1.03-1.75-1.02-1.76-1.02-1.76-1.01-1.76-.99-1.77-.99-1.77-.98-1.77-.97-1.78-.96-1.78-.96-1.78-.94-1.79-.94-1.79-.92-1.79-.92-1.8-.91-1.8-.9-1.8-.89-1.81-.89-1.81-.87-1.82-.87-1.82-.85-1.82-.85-1.82-.84-1.83-.83-1.83-.82-1.84-.81-1.83-.8-1.84-.8-1.85-.78-1.85-.78-1.85-.77-1.86-.76-1.85-.75-1.87-.74-1.86-.73-1.87-.73-1.87-.71-1.88-.71-1.88-.69-1.88-.69-1.89-.68-1.89-.67-1.89-.66-1.89-.66-1.9-.64-1.91-.64-1.9-.62-1.91-.62-1.92-.61-1.91-.6-1.92-.59-1.93-.59-1.92-.57-1.93-.56-1.94-.56-1.93-.55-1.94-.54-1.95-.53-1.95-.52-1.95-.51-1.95-.5-1.96-.5-1.96-.48-1.96-.48-1.97-.47-1.97-.46-1.98-.45-1.98-.44-1.98-.43-1.98-.42-1.99-.42-1.99-.4-2-.4-1.99-.39-2.01-.38-2-.37-2.01-.36-2.01-.36-2.02-.34-2.02-.34-2.02-.32-2.03-.32-2.02-.31-2.04-.3-2.03-.29-2.04-.28-2.05-.28-2.04-.26-2.05-.26-2.05-.25-2.06-.23-2.06-.23-2.06-.22-2.07-.22-2.07-.2-2.07-.19-2.08-.19"/><path style="stroke-width:1.07;stroke:#000;stroke-opacity:.1;stroke-linecap:butt" d="m451.68 367.84-1.86-.76-1.85-.76-1.86-.75-1.85-.76-1.86-.75-1.86-.74-1.86-.75-1.87-.74-1.86-.74-1.86-.73-1.87-.74-1.87-.73-1.86-.72-1.87-.73-1.87-.72-1.87-.72-1.88-.71-1.87-.71-1.87-.71-1.88-.71-1.88-.7-1.87-.7-1.88-.7-1.88-.69-1.88-.7-1.89-.68-1.88-.69-1.89-.68-1.88-.68-1.89-.68-1.89-.67-1.89-.67-1.89-.67-1.89-.67-1.89-.66-1.89-.66-1.9-.65-1.9-.66-1.89-.65-1.9-.64-1.9-.65-1.9-.64-1.9-.64-1.91-.63-1.9-.64-1.91-.63-1.9-.62-1.91-.63-1.91-.62-1.91-.62-1.91-.61-1.91-.61-1.91-.61-1.92-.61-1.91-.6-1.92-.6-1.92-.6-1.92-.59-1.92-.59-1.92-.59-1.92-.59-1.92-.58-1.93-.58-1.92-.58-1.93-.57-1.93-.57-1.93-.57-1.93-.56-1.93-.57-1.93-.56-1.94-.55-1.93-.56-1.94-.55-1.93-.54-1.94-.55-1.94-.54-1.94-.54-1.94-.53-1.95-.53-1.94-.53-1.95-.53-1.94-.53-1.95-.52-1.95-.51-1.95-.52-1.95-.51-1.95-.51-1.95-.51-1.96-.5-1.95-.5-1.96-.5-1.96-.49-1.96-.49-1.96-.49-1.96-.49-1.96-.48-1.96-.48-1.97-.48-1.96-.47"/><path style="stroke-width:1.07;stroke:#000;stroke-opacity:.1;stroke-linecap:butt" d="m451.68 367.84-1.97-.47-1.96-.48-1.96-.48-1.97-.48-1.96-.48-1.96-.49-1.96-.49-1.95-.5-1.96-.5-1.95-.5-1.96-.5-1.95-.51-1.95-.5-1.95-.52-1.95-.51-1.95-.52-1.95-.52-1.95-.52-1.94-.53-1.95-.53-1.94-.53-1.94-.54-1.94-.54-1.94-.54-1.94-.54-1.93-.55-1.94-.55-1.94-.55-1.93-.56-1.93-.56-1.93-.56-1.93-.57-1.93-.56-1.93-.57-1.93-.58-1.92-.58-1.93-.58-1.92-.58-1.92-.58-1.92-.59-1.92-.59-1.92-.6-1.92-.59-1.92-.61-1.91-.6-1.92-.6-1.91-.61-1.91-.62-1.91-.61-1.91-.62-1.91-.62-1.91-.62-1.91-.63-1.9-.63-1.91-.63-1.9-.64-1.9-.64-1.9-.64-1.9-.64-1.9-.65-1.9-.65-1.89-.65-1.9-.66-1.89-.66-1.89-.66-1.9-.66-1.89-.67-1.89-.67-1.88-.68-1.89-.67-1.89-.68-1.88-.69-1.89-.68-1.88-.69-1.88-.69-1.88-.7-1.88-.69-1.88-.7-1.87-.71-1.88-.7-1.87-.71-1.88-.71-1.87-.72-1.87-.72-1.87-.72-1.87-.72-1.87-.73-1.86-.73-1.87-.73-1.86-.74-1.87-.74-1.86-.74-1.86-.74-1.86-.75-1.86-.75-1.86-.75-1.85-.76-1.86-.76-1.85-.76"/><path style="stroke-width:1.07;stroke:#000;stroke-opacity:.1;stroke-linecap:butt" d="m451.68 367.84-2.08-.18-2.07-.2-2.07-.2-2.07-.21-2.06-.22-2.06-.23-2.06-.24-2.05-.25-2.05-.25-2.05-.27-2.04-.27-2.04-.28-2.04-.3-2.03-.3-2.03-.31-2.02-.31-2.03-.33-2.01-.34-2.02-.34-2.01-.35-2.01-.37-2.01-.37-2-.38-2-.38-1.99-.4-1.99-.41-1.99-.41-1.99-.43-1.98-.43-1.98-.44-1.97-.45-1.97-.46-1.97-.47-1.96-.47-1.96-.49-1.96-.49-1.96-.51-1.95-.51-1.94-.52-1.95-.53-1.94-.54-1.94-.55-1.93-.55-1.93-.57-1.93-.57-1.92-.58-1.92-.59-1.92-.6-1.91-.61-1.91-.62-1.91-.63-1.9-.63-1.9-.65-1.89-.65-1.9-.66-1.89-.67-1.88-.68-1.89-.69-1.87-.7-1.88-.71-1.87-.71-1.87-.72-1.87-.74-1.86-.74-1.86-.75-1.85-.76-1.85-.77-1.85-.77-1.85-.79-1.84-.79-1.84-.81-1.83-.81-1.83-.82-1.83-.83-1.83-.84-1.82-.84-1.81-.86-1.82-.87-1.81-.87-1.81-.88-1.8-.89-1.8-.9-1.8-.91-1.79-.92-1.79-.93-1.79-.93-1.78-.95-1.78-.95-1.78-.96-1.77-.97-1.77-.98-1.77-.99-1.76-1-1.76-1.01-1.76-1.01-1.75-1.02-1.75-1.04-1.75-1.04-1.74-1.05"/><path style="stroke-width:1.07;stroke:#000;stroke-opacity:.1;stroke-linecap:butt" d="m451.68 367.84-2.19.11-2.18.08-2.18.08-2.17.06-2.17.04-2.16.03-2.15.01h-2.15l-2.14-.01-2.14-.03-2.13-.04-2.13-.06-2.12-.08-2.11-.09-2.11-.1-2.1-.12-2.1-.13-2.09-.15-2.09-.16-2.08-.18-2.07-.19-2.07-.2-2.07-.22-2.05-.24-2.05-.25-2.05-.26-2.04-.28-2.04-.3-2.03-.31-2.02-.32-2.02-.34-2.01-.35-2.01-.37-2-.38-1.99-.4-1.99-.41-1.98-.43-1.98-.44-1.97-.46-1.97-.47-1.96-.48-1.96-.5-1.95-.52-1.94-.53-1.94-.54-1.93-.56-1.93-.57-1.92-.59-1.92-.61-1.91-.61-1.9-.64-1.9-.64-1.89-.67-1.89-.67-1.88-.69-1.87-.71-1.87-.72-1.87-.74-1.86-.75-1.85-.76-1.85-.78-1.84-.8-1.84-.81-1.83-.82-1.82-.84-1.82-.85-1.81-.87-1.81-.88-1.8-.9-1.8-.91-1.79-.93-1.78-.94-1.78-.96-1.77-.97-1.77-.98-1.76-1-1.76-1.02-1.75-1.03-1.75-1.04-1.74-1.06-1.73-1.07-1.73-1.09-1.72-1.11-1.72-1.11-1.71-1.14-1.7-1.14-1.7-1.17-1.7-1.17-1.68-1.2-1.69-1.2-1.67-1.22-1.67-1.24-1.67-1.25-1.66-1.26-1.65-1.28-1.65-1.3-1.64-1.31-1.64-1.32-1.63-1.34"/><path style="stroke-width:.71;stroke:none;fill:#00ba38" d="m345.81 522 1.91 3.31h-3.83zM522.77 184.19l5.13 8.88h-10.26zM356.34 138.74l1.92 3.31h-3.83zM70.8 153.16l1.92 3.31h-3.83zM55.97 427.51l1.91 3.32h-3.83z"/><path style="stroke-width:.71;stroke:none;fill:#619cff" d="M447.87 371.65h7.62v-7.61h-7.62z"/><circle cx="262.61" cy="306.67" r="6.76" style="stroke-width:.71;stroke:none;fill:#f8766d"/><path style="stroke-width:.53;stroke:#bfbfbf" d="m350.98 519.55-4.31 3.89M360.75 133.74l-3.84 6.27M75.94 150.74l-4.28 3.85M61.08 425.12l-4.25 3.83M446.32 372.47l4.48-3.87M267.97 302.04l-4.48 3.87"/><path style="stroke-width:.53;fill:#fff;fill-opacity:.5" d="M336.52 519.55h43.63-.09l.35-.02.34-.07.33-.12.3-.17.27-.22.23-.26.18-.3.14-.32.08-.33.03-.35v-6.96l-.03-.35-.08-.34-.14-.32-.18-.29-.23-.26-.27-.22-.3-.18-.33-.12-.34-.07-.26-.01h-43.63l.26.01-.35-.01-.34.04-.34.1-.31.15-.29.19-.25.24-.21.28-.16.31-.11.33-.06.34v7.14-.18.35l.06.35.11.33.16.3.21.28.25.24.29.2.31.15.34.09.34.05z"/><text x="358.33" y="515.95" text-anchor="middle" style="font-size:5.69px;font-family:&quot;Arial&quot;" textLength="40.75" lengthAdjust="spacingAndGlyphs">4590 92ND LLC</text><path style="stroke-width:.53;fill:#fff;fill-opacity:.5" d="M461.58 195.94h54.36-.09l.35-.02.34-.07.33-.12.3-.17.27-.22.23-.27.18-.29.14-.32.08-.34.03-.34v-6.97l-.03-.34-.08-.34-.14-.32-.18-.29-.23-.26-.27-.22-.3-.18-.33-.12-.34-.07-.26-.02h-54.36l.26.02-.35-.01-.34.04-.34.1-.31.14-.29.2-.25.24-.21.28-.16.31-.11.33-.05.34-.01.17v6.97l.01-.18v.35l.05.34.11.33.16.31.21.28.25.24.29.2.31.15.34.09.34.05z"/><text x="488.76" y="192.34" text-anchor="middle" style="font-size:5.69px;font-family:&quot;Arial&quot;" textLength="51.48" lengthAdjust="spacingAndGlyphs">RICHARD BERGER</text><path style="stroke-width:.53;fill:#fff;fill-opacity:.5" d="M362.91 136.73h43l-.09-.01.35-.01.34-.07.33-.12.3-.18.27-.22.23-.26.18-.29.14-.32.08-.34.03-.34v-6.97l-.03-.34-.08-.34-.14-.32-.18-.29-.23-.26-.27-.22-.3-.18-.33-.12-.34-.07-.26-.02h-43l.26.02-.35-.01-.35.04-.33.09-.31.15-.29.2-.25.24-.21.28-.16.31-.11.33-.06.34v7.14-.18.35l.06.34.11.33.16.31.21.28.25.24.29.2.31.15.33.09.35.04z"/><text x="384.41" y="133.13" text-anchor="middle" style="font-size:5.69px;font-family:&quot;Arial&quot;" textLength="40.13" lengthAdjust="spacingAndGlyphs">4772 80TH LLC</text><path style="stroke-width:.53;fill:#fff;fill-opacity:.5" d="M53.04 150.74h60.68-.09l.35-.01.34-.07.32-.12.3-.18.27-.22.23-.26.19-.29.14-.32.08-.34.03-.35v-6.96l-.03-.35-.08-.33-.14-.32-.19-.3-.23-.26-.27-.22-.3-.17-.32-.12-.34-.07-.26-.02H53.04l.26.02-.34-.02-.35.04-.33.1-.32.15-.28.2-.25.24-.21.28-.16.3-.11.33-.06.35-.01.17v6.96l.01-.17v.35l.06.34.11.33.16.31.21.28.25.24.28.19.32.15.33.1.35.04z"/><text x="83.38" y="147.14" text-anchor="middle" style="font-size:5.69px;font-family:&quot;Arial&quot;" textLength="57.79" lengthAdjust="spacingAndGlyphs">526 CONCORDIA LLC</text><path style="stroke-width:.53;fill:#fff;fill-opacity:.5" d="M50.14 425.12h36.68-.09l.35-.02.34-.06.33-.13.3-.17.27-.22.23-.26.18-.3.14-.32.08-.33.03-.35V416l-.03-.35-.08-.34-.14-.32-.18-.29-.23-.26-.27-.22-.3-.17-.33-.13-.34-.07-.26-.01H50.14l.26.01-.35-.01-.35.04-.33.1-.31.15-.29.19-.25.25-.21.27-.16.31-.11.33-.06.34v7.14-.17.34l.06.35.11.33.16.3.21.28.25.24.29.2.31.15.33.1.35.04z"/><text x="68.48" y="421.52" text-anchor="middle" style="font-size:5.69px;font-family:&quot;Arial&quot;" textLength="33.8" lengthAdjust="spacingAndGlyphs">922 4TH LLC</text><path style="stroke-width:.53;fill:#fff;fill-opacity:.5" d="M400.69 391.95h67.01-.08l.34-.02.34-.07.33-.12.3-.18.27-.22.23-.26.18-.29.14-.32.08-.34.03-.34v-15.16l-.03-.35-.08-.33-.14-.32-.18-.3-.23-.26-.27-.22-.3-.17-.33-.12-.34-.07-.26-.02h-67.01l.26.02-.34-.02-.35.04-.33.1-.32.15-.28.2-.25.24-.21.28-.17.3-.11.33-.05.35-.01.17v15.16l.01-.18v.35l.05.34.11.33.17.31.21.28.25.24.28.2.32.15.33.09.35.05z"/><text x="434.2" y="380.15" text-anchor="middle" style="font-size:5.69px;font-family:&quot;Arial&quot;" textLength="64.13" lengthAdjust="spacingAndGlyphs">2920 SANTA MARIA DR,</text><text x="434.2" y="388.35" text-anchor="middle" style="font-size:5.69px;font-family:&quot;Arial&quot;" textLength="64.13" lengthAdjust="spacingAndGlyphs">BROOKFIELD, WI 53005</text><path style="stroke-width:.53;fill:#fff;fill-opacity:.5" d="M246.59 302.04h67.01-.09l.35-.01.34-.07.32-.13.3-.17.27-.22.23-.26.19-.29.13-.32.09-.34.03-.35v-15.15l-.03-.35-.09-.34-.13-.32-.19-.29-.23-.26-.27-.22-.3-.18-.32-.12-.34-.07-.26-.01h-67.01l.26.01-.35-.01-.35.04-.33.1-.31.15-.29.19-.25.24-.21.28-.16.31-.11.33-.06.34v15.33-.17.35l.06.34.11.33.16.31.21.27.25.25.29.19.31.15.33.1.35.04z"/><text x="280.09" y="290.25" text-anchor="middle" style="font-size:5.69px;font-family:&quot;Arial&quot;" textLength="64.13" lengthAdjust="spacingAndGlyphs">2920 SANTA MARIA DR,</text><text x="280.09" y="298.44" text-anchor="middle" style="font-size:5.69px;font-family:&quot;Arial&quot;" textLength="64.13" lengthAdjust="spacingAndGlyphs">BROOKFIELD, WI 53005</text></g><g clip-path="url(#cpMC4wMHw1NzYuMDB8MC4wMHw1NzYuMDA=)"><circle cx="196.98" cy="96.71" r="1.95" style="stroke-width:.71;stroke:none;fill:#f8766d"/><path style="stroke-width:.71;stroke:none;fill:#00ba38" d="m273.33 93.67 2.63 4.56h-5.26z"/><path style="stroke-width:.71;stroke:none;fill:#619cff" d="M339.31 98.66h3.91v-3.91h-3.91z"/><text x="211.09" y="99.86" style="font-size:8.8px;font-family:&quot;Arial Narrow&quot;" textLength="48.12" lengthAdjust="spacingAndGlyphs">mprop address</text><text x="287.45" y="99.86" style="font-size:8.8px;font-family:&quot;Arial Narrow&quot;" textLength="39.69" lengthAdjust="spacingAndGlyphs">owner name</text><text x="355.38" y="99.86" style="font-size:8.8px;font-family:&quot;Arial Narrow&quot;" textLength="40.5" lengthAdjust="spacingAndGlyphs">wdfi address</text><text x="32.63" y="65.12" style="font-size:12px;font-family:&quot;Arial Narrow&quot;" textLength="246.76" lengthAdjust="spacingAndGlyphs">includes 6 parcels, 24 units, and 5 distinct owner names.</text><text x="32.63" y="42.78" style="font-size:18px;font-weight:700;font-family:&quot;Arial Narrow&quot;" textLength="183.65" lengthAdjust="spacingAndGlyphs">RICHARD BERGER Group</text></g></svg>