<svg xmlns="http://www.w3.org/2000/svg" width="576" height="672" class="svglite" viewBox="0 0 432 504"><defs><style><![CDATA[.svglite line,.svglite polyline,.svglite polygon,.svglite path,.svglite circle{fill:none;stroke:#000000;stroke-linecap:round;stroke-linejoin:round;stroke-miterlimit:10.00}.svglite text{white-space:pre}]]></style></defs><rect width="100%" height="100%" style="stroke-linecap:round;stroke-linejoin:round;stroke-miterlimit:10.00;stroke:none;fill:#FFFFFF"/><defs><clipPath id="cpMC4wMHw0MzIuMDB8MC4wMHw1MDQuMDA="><path d="M0 0h432v504H0z"/></clipPath></defs><g clip-path="url(#cpMC4wMHw0MzIuMDB8MC4wMHw1MDQuMDA=)"><path d="M0 0h432v504H0z" style="stroke-width:1.07;stroke:none;fill:#FFFFFF"/></g><defs><clipPath id="cpMzIuNjN8NDAyLjExfDE0MC4zMHw0NzEuMzc="><path d="M32.63 140.3h369.48v331.07H32.63z"/></clipPath></defs><g clip-path="url(#cpMzIuNjN8NDAyLjExfDE0MC4zMHw0NzEuMzc=)"><path d="m148.21 345.31.83-.66.82-.66.83-.66.82-.67.83-.66.83-.66.82-.66.83-.66.83-.67.82-.66.83-.66.82-.66.83-.66.83-.67.82-.66.83-.66.83-.66.82-.66.83-.67.82-.66.83-.66.83-.66.82-.66.83-.67.83-.66.82-.66.83-.66.83-.66.82-.67.83-.66.82-.66.83-.66.83-.66.82-.66.83-.67.83-.66.82-.66.83-.66.82-.66.83-.67.83-.66.82-.66.83-.66.83-.66.82-.67.83-.66.82-.66.83-.66.83-.66.82-.67.83-.66.83-.66.82-.66.83-.66.83-.67.82-.66.83-.66.82-.66.83-.66.83-.67.82-.66.83-.66.83-.66.82-.66.83-.67.82-.66.83-.66.83-.66.82-.66.83-.67.83-.66.82-.66.83-.66.82-.66.83-.67.83-.66.82-.66.83-.66.83-.66.82-.67.83-.66.82-.66.83-.66.83-.66.82-.67.83-.66.83-.66.82-.66.83-.66.83-.67.82-.66.83-.66.82-.66.83-.66.83-.67.82-.66.83-.66.83-.66.82-.66m-81.8 65.53-.87-.75-.88-.75-.88-.73-.88-.73-.88-.72-.89-.72-.88-.7-.9-.7-.89-.69-.89-.68-.9-.67-.9-.67-.91-.66-.9-.64-.91-.64-.91-.64-.92-.62-.91-.62-.92-.61-.92-.6-.93-.59-.92-.58-.93-.58-.93-.57-.94-.56-.93-.55-.94-.55-.95-.53-.94-.53-.95-.52-.95-.51-.95-.51-.95-.49-.96-.49-.96-.48-.96-.47-.97-.46-.96-.46-.97-.45-.98-.44-.97-.43-.98-.42-.98-.42-.98-.4-.99-.4-.98-.39-.99-.39-1-.37-.99-.37-1-.36-1-.35-1-.34-1.01-.33-1.01-.33-1.01-.32-1.01-.31-1.02-.3-1.01-.3-1.02-.28-1.03-.28-1.02-.27-1.03-.26-1.03-.26-1.04-.24-1.03-.24-1.04-.23-1.04-.22-1.05-.22-1.04-.2-1.05-.2-1.05-.19-1.06-.18-1.05-.17-1.06-.17-1.06-.16-1.07-.15-1.06-.14-1.07-.13-1.08-.13-1.07-.11-1.08-.11-1.08-.1-1.08-.1-1.08-.08-1.09-.08-1.09-.07-1.09-.06-1.1-.05-1.09-.04-1.1-.04-1.11-.03-1.1-.02-1.11-.01-1.11-.01-1.11.01-1.12.01-1.11.02-1.12.03-1.13.03m98.79 35.52-.22 1.14-.2 1.13-.21 1.13-.2 1.14-.19 1.13-.19 1.13-.18 1.13-.18 1.13-.17 1.13-.16 1.14-.17 1.13-.15 1.13-.15 1.13-.15 1.13-.14 1.13-.13 1.13-.13 1.13-.13 1.13-.11 1.13-.12 1.12-.11 1.13-.1 1.13-.1 1.13-.09 1.13-.08 1.13-.09 1.12-.07 1.13-.07 1.13-.07 1.12-.06 1.13-.05 1.12-.05 1.13-.05 1.13-.04 1.12-.03 1.13-.03 1.12-.02 1.13-.02 1.12-.01 1.12-.01 1.13v2.24l.01 1.13.02 1.12.02 1.12.02 1.13.03 1.12.04 1.12.04 1.12.04 1.12.05 1.12.06 1.12.06 1.13.07 1.12.07 1.12.08 1.12.08 1.11.09 1.12.1 1.12.1 1.12.1 1.12.11 1.12.11 1.12.13 1.12.12 1.11.13 1.12.14 1.12.14 1.11.15 1.12.15 1.12.16 1.11.16 1.12.17 1.11.17 1.12.18 1.12.19 1.11.18 1.11.2 1.12.2 1.11.21 1.12.21 1.11.21 1.11.22 1.12.23 1.11.23 1.11.24 1.12.24 1.11.25 1.11.25 1.11.26 1.11.27 1.11.27 1.11.27 1.11.28 1.12.28 1.11.3 1.11.29 1.11.3 1.1.31 1.11" style="stroke-width:1.07;stroke:#000000;stroke-opacity:0.10;stroke-linecap:butt"/><path d="m148.21 345.31-.96-.49-.95-.49-.96-.48-.96-.48-.96-.48-.96-.48-.96-.47-.96-.48-.97-.46-.96-.47-.97-.46-.96-.46-.97-.46-.96-.46-.97-.45-.97-.45-.97-.45-.97-.44-.97-.45-.98-.43-.97-.44-.97-.44-.98-.43-.97-.43-.98-.42-.98-.42-.98-.43-.98-.41-.98-.42-.98-.41-.98-.41-.98-.41-.98-.4-.99-.4-.98-.4-.99-.4-.99-.39-.98-.39-.99-.39-.99-.39-.99-.38-.99-.38-.99-.38-1-.37-.99-.38-1-.37-.99-.36-1-.37-.99-.36-1-.36-1-.35-1-.36-1-.35-1-.34-1-.35-1.01-.34-1-.34-1.01-.34-1-.33-1.01-.34-1-.33-1.01-.32-1.01-.33-1.01-.32-1.01-.32-1.01-.31-1.02-.32-1.01-.31-1.01-.3-1.02-.31-1.01-.3-1.02-.3-1.02-.3-1.02-.29-1.01-.29-1.02-.29-1.02-.29-1.03-.28-1.02-.28-1.02-.28-1.03-.28-1.02-.27-1.03-.27-1.02-.27-1.03-.26-1.03-.26-1.03-.26-1.03-.26-1.03-.25-1.03-.26-1.04-.24-1.03-.25-1.03-.24-1.04-.24-1.03-.24-1.04-.24-1.04-.23-1.04-.23-1.04-.23m258.7-92.59-.79.63-.79.64-.79.63-.79.63-.79.63-.79.63-.79.64-.79.63-.78.63-.79.63-.79.63-.79.64-.79.63-.79.63-.79.63-.79.64-.79.63-.79.63-.78.63-.79.63-.79.64-.79.63-.79.63-.79.63-.79.63-.79.64-.79.63-.78.63-.79.63-.79.63-.79.64-.79.63-.79.63-.79.63-.79.63-.79.64-.78.63-.79.63-.79.63-.79.63-.79.64-.79.63-.79.63-.79.63-.79.63-.79.64-.78.63-.79.63-.79.63-.79.64-.79.63-.79.63-.79.63-.79.63-.79.64-.78.63-.79.63-.79.63-.79.63-.79.64-.79.63-.79.63-.79.63-.79.63-.78.64-.79.63-.79.63-.79.63-.79.63-.79.64-.79.63-.79.63-.79.63-.79.63-.78.64-.79.63-.79.63-.79.63-.79.63-.79.64-.79.63-.79.63-.79.63-.78.63-.79.64-.79.63-.79.63-.79.63-.79.64-.79.63-.79.63-.79.63-.78.63-.79.64-.79.63-.79.63-.79.63-.79.63-.79.64m78.11-62.58.78-.62.77-.63.78-.62.78-.63.78-.62.78-.63.78-.62.78-.63.78-.62.78-.63.78-.62.78-.62.78-.63.78-.62.78-.63.78-.62.78-.63.78-.62.78-.63.78-.62.78-.63.78-.62.78-.63.78-.62.78-.63.78-.62.78-.63.78-.62.78-.63.78-.62.78-.63.78-.62.78-.62.78-.63.78-.62.78-.63.78-.62.78-.63.78-.62.78-.63.78-.62.78-.63.78-.62.78-.63.78-.62.78-.63.78-.62.78-.63.78-.62.78-.63.78-.62.78-.63.78-.62.78-.62.78-.63.78-.62.77-.63.78-.62.78-.63.78-.62.78-.63.78-.62.78-.63.78-.62.78-.63.78-.62.78-.63.78-.62.78-.63.78-.62.78-.63.78-.62.78-.62.78-.63.78-.62.78-.63.78-.62.78-.63.78-.62.78-.63.78-.62.78-.63.78-.62.78-.63.78-.62.78-.63.78-.62.78-.63.78-.62.78-.63.78-.62.78-.63.78-.62.78-.62.78-.63.78-.62.78-.63.78-.62.78-.63M148.21 345.31l.05 1.12.04 1.13.05 1.12.04 1.12.05 1.12.05 1.12.04 1.12.05 1.12.04 1.12.05 1.13.05 1.12.04 1.12.05 1.12.04 1.12.05 1.12.05 1.12.04 1.13.05 1.12.04 1.12.05 1.12.05 1.12.04 1.12.05 1.12.04 1.12.05 1.13.05 1.12.04 1.12.05 1.12.04 1.12.05 1.12.05 1.12.04 1.13.05 1.12.04 1.12.05 1.12.05 1.12.04 1.12.05 1.12.05 1.12.04 1.13.05 1.12.04 1.12.05 1.12.05 1.12.04 1.12.05 1.12.04 1.12.05 1.13.05 1.12.04 1.12.05 1.12.04 1.12.05 1.12.05 1.12.04 1.13.05 1.12.04 1.12.05 1.12.05 1.12.04 1.12.05 1.12.04 1.12.05 1.13.05 1.12.04 1.12.05 1.12.04 1.12.05 1.12.05 1.12.04 1.13.05 1.12.04 1.12.05 1.12.05 1.12.04 1.12.05 1.12.05 1.12.04 1.13.05 1.12.04 1.12.05 1.12.05 1.12.04 1.12.05 1.12.04 1.13.05 1.12.05 1.12.04 1.12.05 1.12.04 1.12.05 1.12.05 1.12.04 1.13.05 1.12.04 1.12.05 1.12.05 1.12.04 1.12.05 1.12" style="stroke-width:1.07;stroke:#000000;stroke-opacity:0.10;stroke-linecap:butt"/><path d="m148.21 345.31-1.04-.22-1.04-.23-1.04-.24-1.03-.23-1.04-.24-1.04-.24-1.03-.24-1.03-.25-1.04-.25-1.03-.25-1.03-.25-1.03-.26-1.03-.26-1.03-.26-1.02-.27-1.03-.26-1.03-.27-1.02-.28-1.03-.27-1.02-.28-1.02-.28-1.02-.29-1.02-.28-1.02-.29-1.02-.29-1.02-.3-1.02-.29-1.02-.3-1.01-.31-1.02-.3-1.01-.31-1.01-.31-1.02-.31-1.01-.32-1.01-.32-1.01-.32-1.01-.32-1-.33-1.01-.33-1.01-.33-1-.33-1.01-.34-1-.34-1-.34-1.01-.35-1-.35-1-.35-1-.35-1-.36-.99-.36-1-.36-1-.36-.99-.37-1-.37-.99-.37-.99-.38-1-.37-.99-.38-.99-.39-.99-.38-.98-.39-.99-.39-.99-.4-.99-.39-.98-.4-.98-.4-.99-.41-.98-.4-.98-.41-.98-.42-.98-.41-.98-.42-.98-.42-.98-.42-.97-.43-.98-.43-.98-.43-.97-.43-.97-.44-.97-.44-.98-.44-.97-.45-.97-.44-.97-.45-.96-.46-.97-.45-.97-.46-.96-.46-.97-.46-.96-.47-.96-.47-.97-.47-.96-.48-.96-.47-.96-.48-.96-.48-.95-.49-.96-.49-.96-.49m98.79 35.52.31 1.11.3 1.11.29 1.11.29 1.11.29 1.11.28 1.11.27 1.11.27 1.11.27 1.11.25 1.12.26 1.11.25 1.11.24 1.11.24 1.11.23 1.12.22 1.11.23 1.11.21 1.12.21 1.11.21 1.11.2 1.12.19 1.11.19 1.12.19 1.11.18 1.12.17 1.11.17 1.12.16 1.11.16 1.12.15 1.12.15 1.11.14 1.12.14 1.12.13 1.11.12 1.12.12 1.12.12 1.12.11 1.12.1 1.11.1 1.12.1 1.12.08 1.12.09 1.12.07 1.12.08 1.12.06 1.12.07 1.12.05 1.12.05 1.12.05 1.13.04 1.12.04 1.12.03 1.12.02 1.12.02 1.13.02 1.12v1.12l.01 1.12v1.13l-.01 1.12-.01 1.13-.02 1.12-.02 1.12-.03 1.13-.04 1.12-.03 1.13-.05 1.13-.05 1.12-.05 1.13-.06 1.12-.07 1.13-.07 1.13-.08 1.12-.08 1.13-.08 1.13-.1 1.13-.09 1.12-.11 1.13-.1 1.13-.12 1.13-.12 1.13-.12 1.13-.13 1.13-.13 1.13-.14 1.13-.15 1.13-.15 1.13-.16 1.13-.16 1.13-.16 1.13-.18 1.13-.17 1.13-.19 1.14-.18 1.13-.2 1.13-.19 1.13-.21 1.14-.21 1.13-.21 1.13" style="stroke-width:1.07;stroke:#000000;stroke-opacity:0.10;stroke-linecap:butt"/><path d="m148.21 345.31-1.12.04-1.12.03-1.12.02-1.12.01h-2.22l-1.11-.01-1.1-.02-1.1-.03-1.1-.04-1.1-.04-1.1-.06-1.09-.06-1.09-.07-1.09-.07-1.08-.09-1.08-.09-1.08-.1-1.08-.11-1.07-.12-1.07-.12-1.07-.14-1.07-.14-1.06-.15-1.07-.15-1.06-.17-1.05-.17-1.06-.18-1.05-.19-1.05-.2-1.04-.21-1.05-.21-1.04-.22-1.04-.23-1.03-.24-1.04-.25-1.03-.25-1.02-.26-1.03-.27-1.02-.28-1.02-.29-1.02-.29-1.02-.3-1.01-.32-1.01-.31-1.01-.33-1.01-.33-1-.35-1-.35-1-.36-.99-.36-1-.38-.99-.38-.98-.39-.99-.4-.98-.41-.98-.41-.98-.43-.97-.43-.98-.44-.97-.45-.96-.45-.97-.46-.96-.48-.96-.48-.96-.48-.95-.5-.95-.5-.95-.51-.95-.52-.94-.53-.94-.54-.94-.54-.94-.55-.93-.57-.94-.56-.93-.58-.92-.58-.93-.6-.92-.6-.92-.61-.91-.61-.92-.63-.91-.63-.91-.64-.9-.65-.9-.66-.91-.66-.89-.67-.9-.69-.89-.68-.89-.7-.89-.71-.89-.71-.88-.72-.88-.73-.88-.74-.87-.74-.88-.76" style="stroke-width:1.07;stroke:#000000;stroke-opacity:0.10;stroke-linecap:butt"/><path d="m148.21 334.81 9.1 15.76h-18.2zm159.91-119.82 1.91 3.32h-3.83z" style="stroke-width:0.71;stroke:none;fill:#00BA38"/><circle cx="230.01" cy="279.78" r="4.5" style="stroke-width:0.71;stroke:none;fill:#F8766D"/><path d="M42.67 316.55h13.51v-13.51H42.67z" style="stroke-width:0.71;stroke:none;fill:#619CFF"/><circle cx="152.77" cy="456.32" r="5.78" style="stroke-width:0.71;stroke:none;fill:#F8766D"/><path d="M383.9 156.77h2.84v-2.84h-2.84z" style="stroke-width:0.71;stroke:none;fill:#619CFF"/><path d="m143.26 349.98 4.12-3.88m165.71-133.58-4.14 3.9m-83.88 68 4.11-3.86m-71.45 171.09-4.13 3.89m226.98-293.45 4.09-5.82" style="stroke-width:0.53;stroke:#BFBFBF"/><path d="M104.44 369.52h55.34-.08l.34-.02.34-.07.33-.12.3-.17.27-.22.23-.26.19-.3.13-.32.09-.33.02-.35h0v-15.22h0l-.02-.35-.09-.34-.13-.32-.19-.29-.23-.26-.27-.22-.3-.17-.33-.13-.34-.07-.26-.01h-55.34l.26.01-.34-.01-.35.04-.33.1-.32.15-.28.19-.25.25-.21.27-.16.31-.11.33-.06.34-.01.18v15.22l.01-.17v.34l.06.35.11.33.16.3.21.28.25.24.28.2.32.15.33.1.35.04z" style="stroke-width:0.53;fill:#FFFFFF;fill-opacity:0.50"/><text x="132.11" y="357.73" lengthAdjust="spacingAndGlyphs" style="font-size:5.69px;font-family:&quot;Liberation Sans&quot;" text-anchor="middle" textLength="35.87">RISING STAR</text><text x="132.11" y="365.92" lengthAdjust="spacingAndGlyphs" style="font-size:5.69px;font-family:&quot;Liberation Sans&quot;" text-anchor="middle" textLength="52.46">INVESTMENTS LLC</text><path d="M299.37 212.52h49.77l-.09-.01.35-.01.34-.07.33-.12.3-.18.27-.22.23-.26.18-.29.14-.32.08-.34.03-.34h0v-15.23h0l-.03-.34-.08-.34-.14-.32-.18-.29-.23-.26-.27-.22-.3-.18-.33-.12-.34-.07-.26-.02h-49.77l.26.02-.35-.01-.34.04-.34.09-.31.15-.29.2-.25.24-.21.28-.16.31-.11.33-.06.34v15.4-.18.35l.06.34.11.33.16.31.21.28.25.24.29.2.31.14.34.1.34.04z" style="stroke-width:0.53;fill:#FFFFFF;fill-opacity:0.50"/><text x="324.25" y="200.72" lengthAdjust="spacingAndGlyphs" style="font-size:5.69px;font-family:&quot;Liberation Sans&quot;" text-anchor="middle" textLength="37.12">INTERURBAN</text><text x="324.25" y="208.92" lengthAdjust="spacingAndGlyphs" style="font-size:5.69px;font-family:&quot;Liberation Sans&quot;" text-anchor="middle" textLength="46.89">PROPERTIES LLC</text><path d="M180.29 303.97h67.21l-.08-.01.35-.01.34-.07.32-.12.3-.18.27-.22.23-.26.19-.29.13-.32.09-.34.02-.34h0v-15.23h0l-.02-.34-.09-.34-.13-.32-.19-.29-.23-.26-.27-.22-.3-.18-.32-.12-.34-.07-.27-.02h-67.21l.26.02-.35-.01-.35.04-.33.1-.31.14-.29.2-.25.24-.21.28-.16.31-.11.33-.06.34v15.4-.18.35l.06.34.11.33.16.31.21.28.25.24.29.2.31.15.33.09.35.04z" style="stroke-width:0.53;fill:#FFFFFF;fill-opacity:0.50"/><text x="213.9" y="292.17" lengthAdjust="spacingAndGlyphs" style="font-size:5.69px;font-family:&quot;Liberation Sans&quot;" text-anchor="middle" textLength="50.86">1616 E WOOD PL,</text><text x="213.9" y="300.37" lengthAdjust="spacingAndGlyphs" style="font-size:5.69px;font-family:&quot;Liberation Sans&quot;" text-anchor="middle" textLength="64.34">MILWAUKEE, WI 53211</text><path d="M56.37 323.67h62.86-.09l.35-.02.34-.07.32-.12.31-.17.26-.22.24-.26.18-.3.14-.32.08-.33.03-.35h0v-23.42h0l-.03-.34-.08-.34-.14-.32-.18-.29-.24-.26-.26-.22-.31-.18-.32-.12-.34-.07-.26-.02H56.37l.26.02-.35-.01-.35.04-.33.09-.31.15-.29.2-.25.24-.21.28-.16.31-.11.33-.06.34v23.59-.17.34l.06.35.11.33.16.3.21.28.25.24.29.2.31.15.33.1.35.04z" style="stroke-width:0.53;fill:#FFFFFF;fill-opacity:0.50"/><text x="87.8" y="303.68" lengthAdjust="spacingAndGlyphs" style="font-size:5.69px;font-family:&quot;Liberation Sans&quot;" text-anchor="middle" textLength="59.98">1609 W. EASTBROOK</text><text x="87.8" y="311.88" lengthAdjust="spacingAndGlyphs" style="font-size:5.69px;font-family:&quot;Liberation Sans&quot;" text-anchor="middle" textLength="48.99">CT., MEQUON, WI</text><text x="87.8" y="320.07" lengthAdjust="spacingAndGlyphs" style="font-size:5.69px;font-family:&quot;Liberation Sans&quot;" text-anchor="middle" textLength="18.11">53092</text><path d="M132.52 451.65h72.78-.09l.35-.01.34-.07.32-.12.3-.18.27-.22.23-.26.19-.29.13-.32.09-.34.03-.35h0v-15.22h0l-.03-.34-.09-.34-.13-.32-.19-.29-.23-.27-.27-.21-.3-.18-.32-.12-.34-.07-.26-.02h-72.78l.26.02-.35-.02-.34.05-.34.09-.31.15-.29.2-.25.24-.21.28-.16.31-.11.33-.06.34v15.39-.17.35l.06.34.11.33.16.31.21.28.25.24.29.19.31.15.34.1.34.04z" style="stroke-width:0.53;fill:#FFFFFF;fill-opacity:0.50"/><text x="168.91" y="439.86" lengthAdjust="spacingAndGlyphs" style="font-size:5.69px;font-family:&quot;Liberation Sans&quot;" text-anchor="middle" textLength="69.9">1609 W EASTBROOK CT,</text><text x="168.91" y="448.05" lengthAdjust="spacingAndGlyphs" style="font-size:5.69px;font-family:&quot;Liberation Sans&quot;" text-anchor="middle" textLength="56.71">MEQUON, WI 53092</text><path d="M307.95 185.76h70.47-.09l.35-.02.34-.07.33-.12.3-.17.27-.22.23-.26.18-.3.14-.32.08-.34.03-.34h0v-23.42h0l-.03-.34-.08-.34-.14-.32-.18-.3-.23-.26-.27-.22-.3-.17-.33-.12-.34-.07-.26-.02h-70.47l.26.02-.35-.02-.35.05-.33.09-.31.15-.29.2-.25.24-.21.28-.16.31-.11.32-.06.35v23.59-.18.35l.06.34.11.33.16.31.21.28.25.24.29.2.31.15.33.09.35.05z" style="stroke-width:0.53;fill:#FFFFFF;fill-opacity:0.50"/><text x="343.18" y="165.77" lengthAdjust="spacingAndGlyphs" style="font-size:5.69px;font-family:&quot;Liberation Sans&quot;" text-anchor="middle" textLength="67.59">1045 W GLEN OAKS LN,</text><text x="343.18" y="173.96" lengthAdjust="spacingAndGlyphs" style="font-size:5.69px;font-family:&quot;Liberation Sans&quot;" text-anchor="middle" textLength="63.76">STE 104, MEQUON, WI</text><text x="343.18" y="182.16" lengthAdjust="spacingAndGlyphs" style="font-size:5.69px;font-family:&quot;Liberation Sans&quot;" text-anchor="middle" textLength="18.11">53092</text></g><g clip-path="url(#cpMC4wMHw0MzIuMDB8MC4wMHw1MDQuMDA=)"><circle cx="122.24" cy="115.22" r="1.95" style="stroke-width:0.71;stroke:none;fill:#F8766D"/><path d="m198.59 112.18 2.63 4.56h-5.26z" style="stroke-width:0.71;stroke:none;fill:#00BA38"/><path d="M264.57 117.18h3.91v-3.91h-3.91z" style="stroke-width:0.71;stroke:none;fill:#619CFF"/><text x="136.36" y="118.25" lengthAdjust="spacingAndGlyphs" style="font-size:8.80px;font-family:&quot;Liberation Sans Narrow&quot;" textLength="48.12">mprop address</text><text x="212.71" y="118.25" lengthAdjust="spacingAndGlyphs" style="font-size:8.80px;font-family:&quot;Liberation Sans Narrow&quot;" textLength="39.69">owner name</text><text x="280.64" y="118.25" lengthAdjust="spacingAndGlyphs" style="font-size:8.80px;font-family:&quot;Liberation Sans Narrow&quot;" textLength="40.5">wdfi address</text><text x="32.63" y="83.67" lengthAdjust="spacingAndGlyphs" style="font-size:12.00px;font-family:&quot;Liberation Sans Narrow&quot;" textLength="246.04">includes 5 parcels, 11 units, and 2 distinct owner names.</text><text x="32.63" y="42.27" lengthAdjust="spacingAndGlyphs" style="font-size:18.00px;font-weight:bold;font-family:&quot;Liberation Sans Narrow&quot;" textLength="351.47">RISING STAR INVESTMENTS LLC -- INTERURBAN</text><text x="32.63" y="61.71" lengthAdjust="spacingAndGlyphs" style="font-size:18.00px;font-weight:bold;font-family:&quot;Liberation Sans Narrow&quot;" textLength="176.28">PROPERTIES LLC Group</text></g></svg>