<svg xmlns="http://www.w3.org/2000/svg" width="576" height="672" viewBox="0 0 432 504"><g class="svglite"><defs><style><![CDATA[.svglite line,.svglite polyline,.svglite polygon,.svglite path,.svglite circle{fill:none;stroke:#000000;stroke-linecap:round;stroke-linejoin:round;stroke-miterlimit:10.00}.svglite text{white-space:pre}.svglite g.glyphgroup path{fill:inherit;stroke:none}]]></style></defs><rect width="100%" height="100%" style="stroke-linecap:round;stroke-linejoin:round;stroke-miterlimit:10.00;stroke:none;fill:#FFFFFF"/><defs><clipPath id="cpMC4wMHw0MzIuMDB8MC4wMHw1MDQuMDA="><path d="M0 0h432v504H0z"/></clipPath></defs><g clip-path="url(#cpMC4wMHw0MzIuMDB8MC4wMHw1MDQuMDA=)"><path d="M0 0h432v504H0z" style="stroke-width:1.07;stroke:none;fill:#FFFFFF"/></g><defs><clipPath id="cpMjkuODl8NDAyLjExfDE0MS41OHw0NzQuMTE="><path d="M29.89 141.58h372.22v332.53H29.89z"/></clipPath></defs><g clip-path="url(#cpMjkuODl8NDAyLjExfDE0MS41OHw0NzQuMTE=)"><path d="m275 356.31.83 1.03.83 1.04.82 1.04.83 1.03.83 1.04.82 1.04.83 1.04.83 1.03.82 1.04.83 1.04.83 1.04.82 1.03.83 1.04.83 1.04.82 1.04.83 1.03.83 1.04.82 1.04.83 1.03.83 1.04.82 1.04.83 1.04.83 1.03.82 1.04.83 1.04.83 1.04.82 1.03.83 1.04.83 1.04.83 1.03.82 1.04.83 1.04.83 1.04.82 1.03.83 1.04.83 1.04.82 1.04.83 1.03.83 1.04.82 1.04.83 1.03.83 1.04.82 1.04.83 1.04.83 1.03.82 1.04.83 1.04.83 1.04.82 1.03.83 1.04.83 1.04.82 1.03.83 1.04.83 1.04.82 1.04.83 1.03.83 1.04.82 1.04.83 1.04.83 1.03.82 1.04.83 1.04.83 1.03.82 1.04.83 1.04.83 1.04.82 1.03.83 1.04.83 1.04.82 1.04.83 1.03.83 1.04.82 1.04.83 1.03.83 1.04.82 1.04.83 1.04.83 1.03.82 1.04.83 1.04.83 1.04.82 1.03.83 1.04.83 1.04.82 1.03.83 1.04.83 1.04.82 1.04.83 1.03.83 1.04.82 1.04.83 1.04.83 1.03.82 1.04.83 1.04.83 1.04.83 1.03.82 1.04.83 1.04M275 356.31l-1.65-.66-1.65-.65-1.66-.65-1.66-.64-1.67-.65-1.66-.63-1.67-.64-1.68-.63-1.67-.63-1.68-.62-1.68-.62-1.68-.62-1.69-.61-1.69-.61-1.69-.61-1.7-.6-1.7-.6-1.7-.6-1.7-.59-1.71-.59-1.71-.59-1.71-.58-1.72-.58-1.72-.58-1.72-.57-1.73-.57-1.72-.57-1.73-.56-1.74-.56-1.73-.56-1.74-.55-1.74-.55-1.75-.54-1.75-.54-1.75-.54-1.75-.54-1.76-.53-1.76-.53-1.76-.52-1.76-.52-1.77-.52-1.77-.52-1.78-.51-1.77-.5-1.78-.51-1.78-.5-1.79-.5-1.79-.49-1.79-.49-1.79-.49-1.8-.48-1.8-.48-1.8-.48-1.81-.47-1.8-.47-1.82-.47-1.81-.46-1.82-.46-1.82-.46-1.82-.45-1.83-.45-1.82-.45-1.84-.44-1.83-.44-1.84-.43-1.84-.44-1.84-.43-1.85-.42-1.85-.42-1.85-.42-1.85-.42-1.86-.41-1.86-.41-1.86-.4-1.87-.4-1.87-.4-1.87-.4-1.88-.39-1.87-.38-1.88-.39-1.89-.38-1.88-.38-1.89-.37-1.9-.37-1.89-.37-1.9-.36-1.9-.36-1.9-.36-1.91-.35-1.91-.35-1.91-.35-1.92-.34-1.91-.34-1.93-.34-1.92-.33-1.93-.33-1.93-.33-1.93-.32-1.93-.32M275 356.31l-.31-1.17-.32-1.16-.32-1.17-.31-1.16-.32-1.17-.31-1.17-.32-1.16-.32-1.17-.31-1.16-.32-1.17-.31-1.16-.32-1.17-.32-1.16-.31-1.17-.32-1.16-.32-1.17-.31-1.16-.32-1.17-.31-1.16-.32-1.17-.32-1.16-.31-1.17-.32-1.16-.31-1.17-.32-1.16-.32-1.17-.31-1.16-.32-1.17-.32-1.16-.31-1.17-.32-1.17-.31-1.16-.32-1.17-.32-1.16-.31-1.17-.32-1.16-.31-1.17-.32-1.16-.32-1.17-.31-1.16-.32-1.17-.32-1.16-.31-1.17-.32-1.16-.31-1.17-.32-1.16-.32-1.17-.31-1.16-.32-1.17-.31-1.16-.32-1.17-.32-1.16-.31-1.17-.32-1.16-.32-1.17-.31-1.16-.32-1.17-.31-1.17-.32-1.16-.32-1.17-.31-1.16-.32-1.17-.31-1.16-.32-1.17-.32-1.16-.31-1.17-.32-1.16-.32-1.17-.31-1.16-.32-1.17-.31-1.16-.32-1.17-.32-1.16-.31-1.17-.32-1.16-.31-1.17-.32-1.16-.32-1.17-.31-1.16-.32-1.17-.32-1.16-.31-1.17-.32-1.17-.31-1.16-.32-1.17-.32-1.16-.31-1.17-.32-1.16-.31-1.17-.32-1.16-.32-1.17-.31-1.16-.32-1.17-.32-1.16-.31-1.17-.32-1.16-.31-1.17-.32-1.16-.32-1.17M275 356.31l-1.93-.32-1.93-.33-1.93-.32-1.93-.33-1.93-.33-1.92-.34-1.91-.34-1.92-.34-1.91-.35-1.91-.35-1.91-.35-1.9-.36-1.9-.36-1.9-.36-1.9-.37-1.89-.37-1.89-.38-1.88-.37-1.89-.38-1.88-.39-1.88-.39-1.87-.39-1.87-.39-1.87-.4-1.87-.4-1.86-.41-1.86-.4-1.86-.42-1.85-.41-1.86-.42-1.84-.42-1.85-.43-1.84-.43-1.84-.43-1.84-.43-1.84-.44-1.83-.45-1.83-.44-1.82-.45-1.82-.45-1.82-.46-1.82-.46-1.81-.46-1.82-.47-1.8-.47-1.81-.47-1.8-.48-1.8-.48-1.8-.48-1.79-.49-1.79-.49-1.79-.5-1.79-.49-1.78-.5-1.78-.51-1.78-.51-1.77-.51-1.77-.51-1.77-.52-1.76-.52-1.77-.53-1.75-.52-1.76-.54-1.75-.53-1.76-.54-1.74-.54-1.75-.55-1.74-.55-1.74-.55-1.73-.55-1.74-.56-1.73-.56-1.73-.57-1.72-.57-1.72-.57-1.72-.58-1.72-.58-1.71-.58-1.71-.59-1.71-.59-1.7-.59-1.7-.6-1.7-.6-1.7-.6-1.69-.61-1.69-.61-1.69-.61-1.68-.62-1.68-.62-1.68-.63-1.68-.62-1.67-.63-1.67-.64-1.66-.64-1.67-.64-1.66-.64-1.66-.65-1.65-.65-1.65-.66" style="stroke-width:1.07;stroke:#000000;stroke-opacity:0.10;stroke-linecap:butt"/><path d="m385.19 156.69-1.43.85-1.43.85-1.42.86-1.43.85-1.43.85-1.43.85-1.43.85-1.43.85-1.43.85-1.43.85-1.43.85-1.43.86-1.43.85-1.43.85-1.42.85-1.43.85-1.43.85-1.43.85-1.43.85-1.43.85-1.43.86-1.43.85-1.43.85-1.43.85-1.43.85-1.43.85-1.43.85-1.42.85-1.43.85-1.43.86-1.43.85-1.43.85-1.43.85-1.43.85-1.43.85-1.43.85-1.43.85-1.43.85-1.43.86-1.42.85-1.43.85-1.43.85-1.43.85-1.43.85-1.43.85-1.43.85-1.43.85-1.43.86-1.43.85-1.43.85-1.43.85-1.42.85-1.43.85-1.43.85-1.43.85-1.43.85-1.43.86-1.43.85-1.43.85-1.43.85-1.43.85-1.43.85-1.43.85-1.42.85-1.43.85-1.43.86-1.43.85-1.43.85-1.43.85-1.43.85-1.43.85-1.43.85-1.43.85-1.43.85-1.43.86-1.42.85-1.43.85-1.43.85-1.43.85-1.43.85-1.43.85-1.43.85-1.43.85-1.43.86-1.43.85-1.43.85-1.43.85-1.43.85-1.42.85-1.43.85-1.43.85-1.43.85-1.43.86-1.43.85-1.43.85-1.43.85-1.43.85-1.43.85-1.43.85M46.81 202.3l1.99.39 1.98.39 1.99.39 1.99.39 1.99.39 1.99.39 1.99.39 1.99.39 1.99.39 1.99.39 1.98.39 1.99.39 1.99.39 1.99.39 1.99.39 1.99.39 1.99.39 1.99.39 1.99.39 1.98.39 1.99.4 1.99.39 1.99.39 1.99.39 1.99.39 1.99.39 1.99.39 1.99.39 1.98.39 1.99.39 1.99.39 1.99.39 1.99.39 1.99.39 1.99.39 1.99.39 1.98.39 1.99.39 1.99.39 1.99.39 1.99.39 1.99.4 1.99.39 1.99.39 1.99.39 1.98.39 1.99.39 1.99.39 1.99.39 1.99.39 1.99.39 1.99.39 1.99.39 1.99.39 1.98.39 1.99.39 1.99.39 1.99.39 1.99.39 1.99.39 1.99.39 1.99.39 1.99.39 1.98.4 1.99.39 1.99.39 1.99.39 1.99.39 1.99.39 1.99.39 1.99.39 1.98.39 1.99.39 1.99.39 1.99.39 1.99.39 1.99.39 1.99.39 1.99.39 1.99.39 1.98.39 1.99.39 1.99.39 1.99.39 1.99.4 1.99.39 1.99.39 1.99.39 1.99.39 1.98.39 1.99.39 1.99.39 1.99.39 1.99.39 1.99.39 1.99.39 1.99.39 1.99.39 1.98.39M46.81 202.3l.51 1.06.51 1.07.51 1.07.51 1.07.51 1.07.51 1.07.51 1.07.52 1.06.51 1.07.51 1.07.51 1.07.51 1.07.51 1.07.51 1.06.51 1.07.51 1.07.52 1.07.51 1.07.51 1.07.51 1.07.51 1.06.51 1.07.51 1.07.51 1.07.51 1.07.52 1.07.51 1.07.51 1.06.51 1.07.51 1.07.51 1.07.51 1.07.51 1.07.51 1.07.52 1.06.51 1.07.51 1.07.51 1.07.51 1.07.51 1.07.51 1.07.51 1.06.51 1.07.52 1.07.51 1.07.51 1.07.51 1.07.51 1.07.51 1.06.51 1.07.51 1.07.51 1.07.52 1.07.51 1.07.51 1.07.51 1.06.51 1.07.51 1.07.51 1.07.51 1.07.51 1.07.51 1.07.52 1.06.51 1.07.51 1.07.51 1.07.51 1.07.51 1.07.51 1.07.51 1.06.51 1.07.52 1.07.51 1.07.51 1.07.51 1.07.51 1.07.51 1.06.51 1.07.51 1.07.51 1.07.52 1.07.51 1.07.51 1.06.51 1.07.51 1.07.51 1.07.51 1.07.51 1.07.51 1.07.52 1.06.51 1.07.51 1.07.51 1.07.51 1.07.51 1.07.51 1.07.51 1.06.51 1.07.52 1.07m0 0 1.87-.4 1.86-.41 1.86-.41 1.85-.42 1.84-.42 1.83-.43 1.82-.44 1.82-.44 1.8-.44 1.8-.46 1.8-.45 1.78-.47 1.77-.47 1.77-.47 1.76-.48 1.75-.49 1.75-.49 1.73-.5 1.73-.5 1.72-.51 1.71-.51 1.7-.52 1.7-.53 1.68-.53 1.68-.54 1.67-.54 1.67-.55 1.65-.55 1.65-.56 1.64-.57 1.63-.57 1.62-.57 1.61-.59 1.61-.58 1.6-.6 1.59-.6 1.58-.6 1.58-.61 1.56-.62 1.56-.62 1.55-.63 1.54-.63 1.54-.64 1.52-.64 1.52-.65 1.51-.66 1.5-.66 1.5-.66 1.48-.68 1.48-.67 1.47-.69 1.46-.69 1.46-.69 1.44-.7 1.44-.71 1.43-.71 1.42-.72 1.41-.72 1.41-.73 1.4-.74 1.38-.74 1.39-.74 1.37-.75 1.36-.76 1.36-.76 1.35-.77 1.34-.78 1.33-.78 1.33-.78 1.32-.79 1.3-.8 1.31-.8 1.29-.81 1.28-.81 1.28-.82 1.27-.83 1.26-.83 1.25-.83 1.25-.85 1.23-.84 1.23-.86 1.22-.85 1.21-.87 1.21-.87 1.19-.88 1.19-.88 1.18-.88 1.17-.9 1.17-.89 1.15-.91 1.15-.91 1.14-.91 1.13-.92 1.13-.93 1.11-.93 1.11-.94 1.1-.94 1.09-.95 1.08-.96" style="stroke-width:1.07;stroke:#000000;stroke-opacity:0.10;stroke-linecap:butt"/><path d="m97.41 308.08 1.47-.68 1.48-.67 1.48-.68 1.48-.68 1.47-.68 1.48-.68 1.48-.67 1.48-.68 1.48-.68 1.47-.68 1.48-.68 1.48-.68 1.48-.67 1.47-.68 1.48-.68 1.48-.68 1.48-.68 1.48-.67 1.47-.68 1.48-.68 1.48-.68 1.48-.68 1.47-.67 1.48-.68 1.48-.68 1.48-.68 1.47-.68 1.48-.67 1.48-.68 1.48-.68 1.48-.68 1.47-.68 1.48-.67 1.48-.68 1.48-.68 1.47-.68 1.48-.68 1.48-.68 1.48-.67 1.48-.68 1.47-.68 1.48-.68 1.48-.68 1.48-.67 1.47-.68 1.48-.68 1.48-.68 1.48-.68 1.48-.67 1.47-.68 1.48-.68 1.48-.68 1.48-.68 1.47-.67 1.48-.68 1.48-.68 1.48-.68 1.48-.68 1.47-.67 1.48-.68 1.48-.68 1.48-.68 1.47-.68 1.48-.68 1.48-.67 1.48-.68 1.48-.68 1.47-.68 1.48-.68 1.48-.67 1.48-.68 1.47-.68 1.48-.68 1.48-.68 1.48-.67 1.48-.68 1.47-.68 1.48-.68 1.48-.68 1.48-.67 1.47-.68 1.48-.68 1.48-.68 1.48-.68 1.48-.68 1.47-.67 1.48-.68 1.48-.68 1.48-.68 1.47-.68 1.48-.67 1.48-.68 1.48-.68 1.48-.68 1.47-.68 1.48-.67 1.48-.68 1.48-.68 1.47-.68" style="stroke-width:1.07;stroke:#000000;stroke-opacity:0.10;stroke-linecap:butt"/><path d="m97.41 308.08 1.08-.95 1.09-.95 1.1-.95 1.11-.93 1.11-.94 1.13-.92 1.13-.92 1.14-.92 1.15-.91 1.15-.9 1.17-.9 1.17-.89 1.18-.89 1.19-.88 1.19-.88 1.21-.87 1.21-.86 1.22-.86 1.23-.85 1.23-.85 1.25-.84 1.25-.84 1.26-.83 1.27-.82 1.28-.82 1.28-.82 1.29-.81 1.3-.8 1.31-.79 1.32-.8 1.32-.78 1.34-.78 1.34-.77 1.35-.77 1.35-.77 1.37-.75 1.37-.75 1.38-.75 1.39-.74 1.4-.73 1.41-.73 1.41-.73 1.42-.71 1.43-.72 1.44-.7 1.44-.7 1.46-.7 1.46-.69 1.47-.68 1.48-.68 1.48-.67 1.5-.67 1.5-.66 1.51-.66 1.52-.65 1.52-.64 1.54-.64 1.54-.63 1.55-.63 1.56-.62 1.56-.62 1.58-.61 1.58-.6 1.59-.6 1.6-.59 1.61-.59 1.61-.58 1.62-.58 1.63-.57 1.64-.57 1.65-.56 1.65-.55 1.67-.55 1.67-.54 1.68-.54 1.68-.53 1.7-.52 1.7-.52 1.71-.52 1.72-.51 1.73-.5 1.73-.5 1.75-.49 1.75-.48 1.76-.49 1.76-.47 1.78-.47 1.78-.46 1.8-.46 1.8-.45 1.8-.45 1.82-.44 1.82-.44 1.83-.42 1.84-.43 1.85-.42 1.86-.41 1.86-.41 1.87-.4" style="stroke-width:1.07;stroke:#000000;stroke-opacity:0.10;stroke-linecap:butt"/><path d="m275 348.23 7 12.11h-13.99zm110.19-193.75 1.92 3.32h-3.83zm-338.38 45.6 1.91 3.32h-3.83z" style="stroke-width:0.71;stroke:none;fill:#00BA38"/><path d="M90.65 314.84h13.51v-13.51H90.65z" style="stroke-width:0.71;stroke:none;fill:#619CFF"/><circle cx="356.85" cy="459" r="1.42" style="stroke-width:0.71;stroke:none;fill:#F8766D"/><circle cx="243.7" cy="240.95" r="6.76" style="stroke-width:0.71;stroke:none;fill:#F8766D"/><path d="m270 361.01 4.17-3.92m-181.7-44.37 4.1-3.86M361.4 454.32l-3.76 3.86M248.66 236.29l-4.12 3.88" style="stroke-width:0.53;stroke:#BFBFBF"/><path d="M233.64 380.32h50.6-.09l.35-.01.34-.07.33-.13.3-.17.27-.22.23-.26.18-.29.14-.32.08-.34.03-.35h0v-14.99h0l-.03-.35-.08-.33-.14-.32-.18-.3-.23-.26-.27-.22-.3-.17-.33-.12-.34-.07-.26-.02h-50.6l.26.02-.35-.02-.34.04-.34.1-.31.15-.29.2-.25.24-.21.28-.16.3-.11.33-.05.35-.01.17v14.99l.01-.17v.35l.05.34.11.33.16.31.21.27.25.24.29.2.31.15.34.1.34.04z" style="stroke-width:0.53;fill:#FFFFFF;fill-opacity:0.50"/><text x="258.94" y="368.53" lengthAdjust="spacingAndGlyphs" style="font-size:5.69px;font-family:&quot;Liberation Sans&quot;" text-anchor="middle" textLength="31.83">RIVERVIEW</text><text x="258.94" y="376.72" lengthAdjust="spacingAndGlyphs" style="font-size:5.69px;font-family:&quot;Liberation Sans&quot;" text-anchor="middle" textLength="47.72">DIVERSIFIED LLC</text><path d="M308.28 166.34h70.06l-.08-.01.34-.01.35-.07.32-.12.3-.18.27-.22.23-.26.19-.29.13-.32.09-.34.02-.34h0v-15h0l-.02-.34-.09-.34-.13-.32-.19-.29-.23-.26-.27-.22-.3-.18-.32-.12-.35-.07-.26-.02h-70.06l.26.02-.35-.01-.35.04-.33.1-.31.14-.29.2-.25.24-.21.28-.16.31-.11.33-.06.34v15.17-.18.35l.06.34.11.33.16.31.21.28.25.24.29.2.31.15.33.09.35.04z" style="stroke-width:0.53;fill:#FFFFFF;fill-opacity:0.50"/><text x="343.31" y="154.54" lengthAdjust="spacingAndGlyphs" style="font-size:5.69px;font-family:&quot;Liberation Sans&quot;" text-anchor="middle" textLength="67.19">1925 NORTH PROSPECT</text><text x="343.31" y="162.74" lengthAdjust="spacingAndGlyphs" style="font-size:5.69px;font-family:&quot;Liberation Sans&quot;" text-anchor="middle" textLength="10.42">LLC</text><path d="M53.66 207.86h67.98-.09l.35-.01.34-.07.32-.13.3-.17.27-.22.23-.26.19-.29.14-.32.08-.34.03-.35h0v-6.8h0l-.03-.34-.08-.34-.14-.32-.19-.29-.23-.26-.27-.22-.3-.18-.32-.12-.34-.07-.26-.02H53.66l.26.02-.34-.01-.35.04-.33.1-.32.14-.28.2-.25.24-.21.28-.16.31-.11.33-.06.34-.01.17v6.8l.01-.17v.35l.06.34.11.33.16.31.21.27.25.24.28.2.32.15.33.1.35.04z" style="stroke-width:0.53;fill:#FFFFFF;fill-opacity:0.50"/><text x="87.65" y="204.26" lengthAdjust="spacingAndGlyphs" style="font-size:5.69px;font-family:&quot;Liberation Sans&quot;" text-anchor="middle" textLength="65.09">BORGER BUILDING LLC</text><path d="M49.8 332.03h63.23-.09l.35-.01.34-.07.32-.13.3-.17.27-.22.23-.26.19-.29.14-.32.08-.34.03-.35h0v-14.99h0l-.03-.35-.08-.33-.14-.32-.19-.3-.23-.26-.27-.22-.3-.17-.32-.12-.34-.07-.26-.02H49.8l.26.02-.34-.02-.35.04-.33.1-.32.15-.28.2-.25.24-.21.28-.16.3-.11.33-.06.35-.01.17v14.99l.01-.17v.35l.06.34.11.33.16.31.21.27.25.24.28.2.32.15.33.1.35.04z" style="stroke-width:0.53;fill:#FFFFFF;fill-opacity:0.50"/><text x="81.42" y="320.24" lengthAdjust="spacingAndGlyphs" style="font-size:5.69px;font-family:&quot;Liberation Sans&quot;" text-anchor="middle" textLength="31.89">7213 US-41,</text><text x="81.42" y="328.43" lengthAdjust="spacingAndGlyphs" style="font-size:5.69px;font-family:&quot;Liberation Sans&quot;" text-anchor="middle" textLength="60.34">CALEDONIA, WI 53108</text><path d="M335.77 454.32h60.58-.08l.34-.02.34-.07.33-.12.3-.18.27-.21.23-.27.18-.29.14-.32.08-.34.03-.34h0v-23.19h0l-.03-.34-.08-.34-.14-.32-.18-.3-.23-.26-.27-.22-.3-.17-.33-.12-.34-.07-.26-.02h-60.58l.26.02-.35-.02-.34.05-.34.09-.31.15-.29.2-.25.24-.21.28-.16.31-.11.32-.05.35-.01.17v23.19l.01-.18v.35l.05.34.11.33.16.31.21.28.25.24.29.2.31.15.34.09.34.05z" style="stroke-width:0.53;fill:#FFFFFF;fill-opacity:0.50"/><text x="366.06" y="434.33" lengthAdjust="spacingAndGlyphs" style="font-size:5.69px;font-family:&quot;Liberation Sans&quot;" text-anchor="middle" textLength="55.94">2800 E ENTERPRISE</text><text x="366.06" y="442.52" lengthAdjust="spacingAndGlyphs" style="font-size:5.69px;font-family:&quot;Liberation Sans&quot;" text-anchor="middle" textLength="34.66">AVE, STE 33,</text><text x="366.06" y="450.72" lengthAdjust="spacingAndGlyphs" style="font-size:5.69px;font-family:&quot;Liberation Sans&quot;" text-anchor="middle" textLength="57.7">APPLETON, WI 54913</text><path d="M228.11 236.29h63.22-.09l.35-.01.34-.07.33-.13.3-.17.27-.22.23-.26.18-.29.14-.32.08-.34.03-.35h0v-14.99h0l-.03-.34-.08-.34-.14-.32-.18-.3-.23-.26-.27-.22-.3-.17-.33-.12-.34-.07-.26-.02h-63.22l.26.02-.35-.02-.34.05-.34.09-.31.15-.29.2-.25.24-.21.28-.16.31-.11.33-.06.34v15.16-.17.35l.06.34.11.33.16.31.21.28.25.24.29.19.31.15.34.1.34.04z" style="stroke-width:0.53;fill:#FFFFFF;fill-opacity:0.50"/><text x="259.72" y="224.5" lengthAdjust="spacingAndGlyphs" style="font-size:5.69px;font-family:&quot;Liberation Sans&quot;" text-anchor="middle" textLength="31.89">7213 US-41,</text><text x="259.72" y="232.69" lengthAdjust="spacingAndGlyphs" style="font-size:5.69px;font-family:&quot;Liberation Sans&quot;" text-anchor="middle" textLength="60.34">CALEDONIA, WI 53108</text></g><g clip-path="url(#cpMC4wMHw0MzIuMDB8MC4wMHw1MDQuMDA=)"><circle cx="120.83" cy="116.5" r="1.95" style="stroke-width:0.71;stroke:none;fill:#F8766D"/><path d="m197.23 113.46 2.63 4.56h-5.26z" style="stroke-width:0.71;stroke:none;fill:#00BA38"/><path d="M263.23 118.45h3.91v-3.91h-3.91z" style="stroke-width:0.71;stroke:none;fill:#619CFF"/><text x="134.95" y="119.66" lengthAdjust="spacingAndGlyphs" style="font-size:8.80px;font-weight:0;font-family:&quot;Nimbus Sans Narrow&quot;" textLength="48.16">mprop address</text><text x="211.35" y="119.66" lengthAdjust="spacingAndGlyphs" style="font-size:8.80px;font-weight:0;font-family:&quot;Nimbus Sans Narrow&quot;" textLength="39.72">owner name</text><text x="279.31" y="119.66" lengthAdjust="spacingAndGlyphs" style="font-size:8.80px;font-weight:0;font-family:&quot;Nimbus Sans Narrow&quot;" textLength="40.5">wdfi address</text><text x="29.89" y="84.79" lengthAdjust="spacingAndGlyphs" style="font-size:12.00px;font-weight:0;font-family:&quot;Nimbus Sans Narrow&quot;" textLength="246.64">includes 4 parcels, 31 units, and 3 distinct owner names.</text><text x="29.89" y="42.81" lengthAdjust="spacingAndGlyphs" style="font-size:18.00px;font-weight:0;font-family:&quot;Nimbus Sans Narrow&quot;" textLength="319.86">RIVERVIEW DIVERSIFIED LLC -- 1925 NORTH</text><text x="29.89" y="62.25" lengthAdjust="spacingAndGlyphs" style="font-size:18.00px;font-weight:0;font-family:&quot;Nimbus Sans Narrow&quot;" textLength="353.42">PROSPECT LLC -- BORGER BUILDING LLC Group</text></g></g></svg>