<svg xmlns="http://www.w3.org/2000/svg" width="384" height="480" viewBox="0 0 288 360"><g class="svglite"><defs><style><![CDATA[.svglite line,.svglite polyline,.svglite polygon,.svglite path,.svglite circle{fill:none;stroke:#000000;stroke-linecap:round;stroke-linejoin:round;stroke-miterlimit:10.00}.svglite text{white-space:pre}.svglite g.glyphgroup path{fill:inherit;stroke:none}]]></style></defs><rect width="100%" height="100%" style="stroke-linecap:round;stroke-linejoin:round;stroke-miterlimit:10.00;stroke:none;fill:#FFFFFF"/><defs><clipPath id="cpMC4wMHwyODguMDB8MC4wMHwzNjAuMDA="><path d="M0 0h288v360H0z"/></clipPath></defs><g clip-path="url(#cpMC4wMHwyODguMDB8MC4wMHwzNjAuMDA=)"><path d="M0 0h288v360H0z" style="stroke-width:1.07;stroke:none;fill:#FFFFFF"/></g><defs><clipPath id="cpMjkuODl8MjU4LjExfDE2MS4wMnwzMzAuMTE="><path d="M29.89 161.02h228.22v169.09H29.89z"/></clipPath></defs><g clip-path="url(#cpMjkuODl8MjU4LjExfDE2MS4wMnwzMzAuMTE=)"><path d="m109.42 271.19.7-.52.7-.52.69-.52.7-.52.7-.51.7-.52.7-.52.7-.52.7-.51.69-.52.7-.52.7-.52.7-.51.7-.52.7-.52.7-.52.69-.51.7-.52.7-.52.7-.52.7-.51.7-.52.7-.52.69-.52.7-.51.7-.52.7-.52.7-.52.7-.51.7-.52.69-.52.7-.52.7-.52.7-.51.7-.52.7-.52.7-.52.69-.51.7-.52.7-.52.7-.52.7-.51.7-.52.7-.52.69-.52.7-.51.7-.52.7-.52.7-.52.7-.51.7-.52.69-.52.7-.52.7-.51.7-.52.7-.52.7-.52.7-.51.69-.52.7-.52.7-.52.7-.52.7-.51.7-.52.7-.52.69-.52.7-.51.7-.52.7-.52.7-.52.7-.51.7-.52.69-.52.7-.52.7-.51.7-.52.7-.52.7-.52.7-.51.69-.52.7-.52.7-.52.7-.51.7-.52.7-.52.7-.52.69-.51.7-.52.7-.52.7-.52.7-.52.7-.51.7-.52.69-.52.7-.52.7-.51.7-.52.7-.52.7-.52m-69.16 51.25-.7.51-.7.52-.7.52-.7.52-.69.51-.7.52-.7.52-.7.52-.7.51-.7.52-.7.52-.69.52-.7.51-.7.52-.7.52-.7.52-.7.51-.7.52-.69.52-.7.52-.7.51-.7.52-.7.52-.7.52-.7.51-.69.52-.7.52-.7.52-.7.52-.7.51-.7.52-.7.52-.69.52-.7.51-.7.52-.7.52-.7.52-.7.51-.7.52-.69.52-.7.52-.7.51-.7.52-.7.52-.7.52-.69.51-.7.52-.7.52-.7.52-.7.51-.7.52-.7.52-.69.52-.7.51-.7.52-.7.52-.7.52-.7.51-.7.52-.69.52-.7.52-.7.52-.7.51-.7.52-.7.52-.7.52-.69.51-.7.52-.7.52-.7.52-.7.51-.7.52-.7.52-.69.52-.7.51-.7.52-.7.52-.7.52-.7.51-.7.52-.69.52-.7.52-.7.51-.7.52-.7.52-.7.52-.7.51-.69.52-.7.52-.7.52-.7.52-.7.51-.7.52-.7.52-.69.52-.7.51-.7.52-.7.52-.7.52M247.74 168.7l-.7.52-.7.52-.7.52-.7.51-.69.52-.7.52-.7.52-.7.51-.7.52-.7.52-.7.52-.69.51-.7.52-.7.52-.7.52-.7.51-.7.52-.7.52-.7.52-.69.51-.7.52-.7.52-.7.52-.7.52-.7.51-.7.52-.69.52-.7.52-.7.51-.7.52-.7.52-.7.52-.7.51-.69.52-.7.52-.7.52-.7.51-.7.52-.7.52-.7.52-.69.51-.7.52-.7.52-.7.52-.7.51-.7.52-.7.52-.69.52-.7.51-.7.52-.7.52-.7.52-.7.52-.7.51-.69.52-.7.52-.7.52-.7.51-.7.52-.7.52-.7.52-.69.51-.7.52-.7.52-.7.52-.7.51-.7.52-.7.52-.69.52-.7.51-.7.52-.7.52-.7.52-.7.51-.7.52-.7.52-.69.52-.7.51-.7.52-.7.52-.7.52-.7.52-.7.51-.69.52-.7.52-.7.52-.7.51-.7.52-.7.52-.7.52-.69.51-.7.52-.7.52-.7.52-.7.51-.7.52-.7.52-.69.52-.7.51" style="stroke-width:1.07;stroke:#000000;stroke-opacity:0.10;stroke-linecap:butt"/><path d="m109.42 268.97 1.91 3.32h-3.83zm138.32-102.48 1.91 3.32h-3.83z" style="stroke-width:0.71;stroke:none;fill:#00BA38"/><circle cx="178.58" cy="219.94" r="6.76" style="stroke-width:0.71;stroke:none;fill:#F8766D"/><path d="M38.84 323.85h2.84V321h-2.84z" style="stroke-width:0.71;stroke:none;fill:#619CFF"/><path d="m103.52 275.78 5.06-3.94m133.2-98.56 5.11-3.93m-74.19 55.17 5.04-3.92M45.17 318.35l-4.09 3.39" style="stroke-width:0.53;stroke:#BFBFBF"/><path d="M59.4 295.09h61.57-.09l.35-.02.34-.07.33-.12.3-.17.27-.22.23-.26.18-.3.14-.32.08-.33.03-.35h0v-14.99h0l-.03-.35-.08-.34-.14-.32-.18-.29-.23-.26-.27-.22-.3-.17-.33-.13-.34-.07-.26-.01H59.4l.26.01-.35-.01-.34.04-.33.1-.32.15-.28.19-.26.25-.2.27-.17.31-.11.33-.05.34-.01.18v14.99l.01-.17v.34l.05.35.11.33.17.3.2.28.26.24.28.2.32.15.33.1.34.04z" style="stroke-width:0.53;fill:#FFFFFF;fill-opacity:0.50"/><text x="90.19" y="283.29" lengthAdjust="spacingAndGlyphs" style="font-size:5.69px;font-family:&quot;Liberation Sans&quot;" text-anchor="middle" textLength="58.69">RIVER STONE PLACE</text><text x="90.19" y="291.49" lengthAdjust="spacingAndGlyphs" style="font-size:5.69px;font-family:&quot;Liberation Sans&quot;" text-anchor="middle" textLength="10.42">LLC</text><path d="M198.14 192.59h54.19-.09l.35-.02.34-.07.33-.12.3-.17.27-.22.23-.26.18-.3.14-.32.08-.33.03-.35h0v-14.99h0l-.03-.35-.08-.34-.14-.32-.18-.29-.23-.26-.27-.22-.3-.17-.33-.13-.34-.07-.26-.01h-54.19l.26.01-.35-.01-.34.04-.34.1-.31.15-.29.19-.25.25-.21.27-.16.31-.11.33-.06.34v15.17-.18.35l.06.35.11.33.16.3.21.28.25.24.29.2.31.15.34.09.34.05z" style="stroke-width:0.53;fill:#FFFFFF;fill-opacity:0.50"/><text x="225.23" y="180.79" lengthAdjust="spacingAndGlyphs" style="font-size:5.69px;font-family:&quot;Liberation Sans&quot;" text-anchor="middle" textLength="51.31">WISCO PARTNERS</text><text x="225.23" y="188.99" lengthAdjust="spacingAndGlyphs" style="font-size:5.69px;font-family:&quot;Liberation Sans&quot;" text-anchor="middle" textLength="43.08">APARTMENTS L</text><path d="M127.45 243.83h63.85-.09l.35-.02.34-.07.32-.12.3-.17.27-.22.23-.26.19-.3.13-.32.09-.33.03-.35h0v-14.99h0l-.03-.35-.09-.34-.13-.32-.19-.29-.23-.26-.27-.22-.3-.17-.32-.13-.34-.07-.26-.01h-63.85l.26.01-.35-.01-.35.04-.33.1-.31.15-.29.19-.25.25-.21.27-.16.31-.11.33-.06.34v15.17-.17.34l.06.35.11.33.16.3.21.28.25.24.29.2.31.15.33.1.35.04z" style="stroke-width:0.53;fill:#FFFFFF;fill-opacity:0.50"/><text x="159.37" y="232.03" lengthAdjust="spacingAndGlyphs" style="font-size:5.69px;font-family:&quot;Liberation Sans&quot;" text-anchor="middle" textLength="54.58">504 W JUNEAU AVE,</text><text x="159.37" y="240.23" lengthAdjust="spacingAndGlyphs" style="font-size:5.69px;font-family:&quot;Liberation Sans&quot;" text-anchor="middle" textLength="60.97">MILWAUKEE, WI 53203</text><path d="M47.33 321.6h63.85-.09l.35-.02.34-.07.33-.12.3-.17.27-.22.23-.26.18-.3.14-.32.08-.33.03-.35h0v-14.99h0l-.03-.35-.08-.34-.14-.32-.18-.29-.23-.26-.27-.22-.3-.17-.33-.13-.34-.07-.26-.01H47.33l.26.01-.35-.01-.34.04-.34.1-.31.15-.29.19-.25.24-.21.28-.16.31-.11.33-.05.34-.01.18v14.99l.01-.18v.35l.05.35.11.33.16.3.21.28.25.24.29.2.31.15.34.09.34.05z" style="stroke-width:0.53;fill:#FFFFFF;fill-opacity:0.50"/><text x="79.25" y="309.8" lengthAdjust="spacingAndGlyphs" style="font-size:5.69px;font-family:&quot;Liberation Sans&quot;" text-anchor="middle" textLength="47.62">504 JUNEAU AVE,</text><text x="79.25" y="318" lengthAdjust="spacingAndGlyphs" style="font-size:5.69px;font-family:&quot;Liberation Sans&quot;" text-anchor="middle" textLength="60.97">MILWAUKEE, WI 53203</text></g><g clip-path="url(#cpMC4wMHwyODguMDB8MC4wMHwzNjAuMDA=)"><circle cx="48.83" cy="135.94" r="1.95" style="stroke-width:0.71;stroke:none;fill:#F8766D"/><path d="m125.23 132.9 2.63 4.56h-5.26z" style="stroke-width:0.71;stroke:none;fill:#00BA38"/><path d="M191.23 137.89h3.91v-3.91h-3.91z" style="stroke-width:0.71;stroke:none;fill:#619CFF"/><text x="62.95" y="139.1" lengthAdjust="spacingAndGlyphs" style="font-size:8.80px;font-weight:0;font-family:&quot;Nimbus Sans Narrow&quot;" textLength="48.16">mprop address</text><text x="139.35" y="139.1" lengthAdjust="spacingAndGlyphs" style="font-size:8.80px;font-weight:0;font-family:&quot;Nimbus Sans Narrow&quot;" textLength="39.72">owner name</text><text x="207.31" y="139.1" lengthAdjust="spacingAndGlyphs" style="font-size:8.80px;font-weight:0;font-family:&quot;Nimbus Sans Narrow&quot;" textLength="40.5">wdfi address</text><text x="29.89" y="104.23" lengthAdjust="spacingAndGlyphs" style="font-size:12.00px;font-weight:0;font-family:&quot;Nimbus Sans Narrow&quot;" textLength="246.64">includes 2 parcels, 86 units, and 2 distinct owner names.</text><text x="29.89" y="42.81" lengthAdjust="spacingAndGlyphs" style="font-size:18.00px;font-weight:0;font-family:&quot;Nimbus Sans Narrow&quot;" textLength="200.91">RIVER STONE PLACE LLC --</text><text x="29.89" y="62.25" lengthAdjust="spacingAndGlyphs" style="font-size:18.00px;font-weight:0;font-family:&quot;Nimbus Sans Narrow&quot;" textLength="255.03">WISCO PARTNERS APARTMENTS L</text><text x="29.89" y="81.69" lengthAdjust="spacingAndGlyphs" style="font-size:18.00px;font-weight:0;font-family:&quot;Nimbus Sans Narrow&quot;" textLength="44.27">Group</text></g></g></svg>