<svg xmlns="http://www.w3.org/2000/svg" width="384" height="384" class="svglite" viewBox="0 0 288 288"><defs><style>.svglite circle,.svglite line,.svglite polygon,.svglite polyline,.svglite rect{fill:none;stroke:#000;stroke-linecap:round;stroke-linejoin:round;stroke-miterlimit:10}.svglite text{white-space:pre}</style></defs><rect width="100%" height="100%" style="stroke:none;fill:#fff"/><defs><clipPath id="cpMC4wMHwyODguMDB8MC4wMHwyODguMDA="><path d="M0 0h288v288H0z"/></clipPath></defs><g clip-path="url(#cpMC4wMHwyODguMDB8MC4wMHwyODguMDA=)"><path d="M0 0h288v288H0z" style="stroke-width:1.07;stroke:none;fill:#fff"/></g><defs><clipPath id="cpMzIuNjN8MjU4LjExfDEyMC44NnwyNTUuMzc="><path d="M32.63 120.86h225.48v134.51H32.63z"/></clipPath></defs><g clip-path="url(#cpMzIuNjN8MjU4LjExfDEyMC44NnwyNTUuMzc=)"><path d="m113.1 208.5 2.98-.4 2.92-.4 2.87-.4 2.83-.4 2.78-.4 2.74-.4 2.69-.4 2.63-.4 2.6-.4 2.54-.41 2.5-.4 2.45-.4 2.4-.4 2.36-.4 2.31-.41 2.26-.4 2.21-.4 2.17-.41 2.11-.4 2.08-.4 2.02-.41 1.98-.4 1.93-.41 1.88-.4 1.83-.41 1.79-.4 1.74-.41 1.69-.4 1.65-.41 1.6-.41 1.55-.4 1.5-.41 1.46-.41 1.41-.41 1.36-.4 1.31-.41 1.27-.41 1.22-.41 1.17-.41 1.13-.41 1.08-.41 1.03-.41.98-.41.93-.41.89-.41.84-.41.8-.41.74-.41.7-.41.66-.41.6-.42.56-.41.51-.41.46-.41.41-.42.37-.41.32-.41.28-.42.22-.41.18-.41.13-.42.09-.41.03-.42-.01-.41-.06-.42-.1-.42-.15-.41-.2-.42-.25-.41-.3-.42-.34-.42-.39-.42-.43-.41-.49-.42-.53-.42-.58-.42-.62-.42-.68-.42-.72-.42-.77-.41-.81-.42-.86-.42-.91-.42-.96-.42-1.01-.43-1.05-.42-1.1-.42-1.14-.42-1.2-.42-1.24-.42-1.29-.43-1.33-.42-1.39-.42-1.43-.42-1.47-.43-1.53-.42-1.57-.42-1.62-.43-1.67-.42M242.16 126.98l-1.81.4-1.79.41-1.76.4-1.74.41-1.72.41-1.69.4-1.67.41-1.65.4-1.62.41-1.6.41-1.57.4-1.55.41-1.53.41-1.5.4-1.48.41-1.46.41-1.43.41-1.41.4-1.39.41-1.36.41-1.34.41-1.31.41-1.29.4-1.27.41-1.24.41-1.22.41-1.2.41-1.17.41-1.15.41-1.12.41-1.1.4-1.08.41-1.06.41-1.03.41-1 .41-.99.41-.96.41-.93.41-.91.41-.89.41-.87.41-.84.42-.82.41-.79.41-.77.41-.75.41-.72.41-.7.41-.67.41-.66.42-.62.41-.61.41-.58.41-.56.41-.53.42-.51.41-.49.41-.46.41-.44.42-.41.41-.39.41-.37.42-.35.41-.32.41-.29.42-.28.41-.25.41-.22.42-.2.41-.18.42-.16.41-.13.42-.11.41-.08.42-.06.41-.04.42-.01.41.01.42.04.41.05.42.09.41.1.42.13.41.15.42.18.42.2.41.22.42.25.42.27.41.3.42.31.42.35.41.36.42.39.42.41.42.44.41.46.42.48.42.51.42M113.1 208.5l-1.81.4-1.78.41-1.77.4-1.74.41-1.71.41-1.7.4-1.67.41-1.64.4-1.62.41-1.6.41-1.58.4-1.55.41-1.53.41-1.5.41-1.48.4-1.45.41-1.44.41-1.41.41-1.38.4-1.36.41-1.34.41-1.32.41-1.29.41-1.26.4-1.25.41-1.22.41-1.19.41-1.17.41-1.15.41-1.13.41-1.1.41-1.08.41-1.05.4-1.03.41-1.01.41-.98.41-.96.41-.94.41-.91.41-.89.41-.86.42-.84.41-.82.41-.79.41-.77.41-.75.41-.72.41-.7.41-.68.41-.65.42-.63.41-.6.41-.58.41-.56.41-.53.42-.51.41-.49.41-.46.41-.44.42-.42.41-.39.41-.37.42-.34.41-.32.41-.3.42-.27.41-.25.42-.23.41-.2.41-.18.42-.15.41-.13.42-.11.41-.08.42-.06.41-.04.42-.01.41.01.42.03.41.06.42.08.41.11.42.13.42.15.41.18.42.2.41.22.42.25.42.27.41.29.42.32.42.34.41.37.42.39.42.41.42.44.41.46.42.48.42.51.42" style="stroke-width:1.07;stroke:#000;stroke-opacity:.1;stroke-linecap:butt"/><path d="m113.1 208.5.66-.41.65-.42.65-.41.65-.41.65-.41.66-.41.65-.41.65-.42.65-.41.65-.41.65-.41.66-.41.65-.41.65-.42.65-.41.65-.41.66-.41.65-.41.65-.41.65-.42.65-.41.65-.41.66-.41.65-.41.65-.42.65-.41.65-.41.65-.41.66-.41.65-.41.65-.42.65-.41.65-.41.66-.41.65-.41.65-.41.65-.42.65-.41.65-.41.66-.41.65-.41.65-.41.65-.42.65-.41.66-.41.65-.41.65-.41.65-.41.65-.42.65-.41.66-.41.65-.41.65-.41.65-.42.65-.41.65-.41.66-.41.65-.41.65-.41.65-.42.65-.41.66-.41.65-.41.65-.41.65-.41.65-.42.65-.41.66-.41.65-.41.65-.41.65-.41.65-.42.66-.41.65-.41.65-.41.65-.41.65-.41.65-.42.66-.41.65-.41.65-.41.65-.41.65-.42.66-.41.65-.41.65-.41.65-.41.65-.41.65-.42.66-.41.65-.41.65-.41.65-.41.65-.41.65-.42.66-.41.65-.41.65-.41.65-.41M113.1 208.5l.51.42.49.41.46.42.43.42.42.42.39.41.36.42.34.42.32.42.3.41.27.42.24.42.23.41.2.42.18.41.15.42.13.42.1.41.08.42.06.41.04.42.01.41-.02.42-.03.41-.06.42-.09.41-.1.42-.14.41-.15.42-.18.41-.2.42-.23.41-.25.41-.27.42-.3.41-.32.42-.34.41-.37.41-.39.42-.42.41-.43.41-.47.41-.48.42-.51.41-.54.41-.55.41-.58.42-.61.41-.63.41-.65.41-.67.41-.7.41-.73.42-.74.41-.77.41-.8.41-.81.41-.84.41-.87.41-.89.41-.91.41-.93.41-.96.41-.99.41-1 .41-1.03.41-1.06.41-1.08.41-1.1.41-1.12.41-1.15.41-1.17.41-1.2.41-1.22.4-1.24.41-1.27.41-1.29.41-1.31.41-1.34.41-1.36.4-1.39.41-1.41.41-1.43.41-1.46.4-1.48.41-1.5.41-1.53.4-1.55.41-1.57.41-1.6.4-1.62.41-1.65.41-1.67.4-1.69.41-1.72.41-1.74.4-1.76.41-1.79.4-1.81.41" style="stroke-width:1.07;stroke:#000;stroke-opacity:.1;stroke-linecap:butt"/><path d="m113.1 208.5-1.66-.43-1.62-.42-1.57-.42-1.53-.43-1.48-.42-1.43-.42-1.38-.43-1.34-.42-1.29-.42-1.24-.42-1.19-.43-1.15-.42-1.1-.42-1.05-.42-1-.42-.96-.42-.91-.42-.86-.42-.82-.42-.77-.42-.72-.42-.67-.42-.62-.42-.58-.41-.53-.42-.49-.42-.44-.42-.38-.42-.35-.41-.29-.42-.25-.42-.2-.41-.15-.42-.11-.41-.05-.42-.02-.42.04-.41.08-.42.14-.41.17-.41.23-.42.27-.41.32-.42.37-.41.42-.41.46-.41.51-.42.56-.41.6-.41.65-.41.7-.41.75-.42.79-.41.84-.41.89-.41.94-.41.98-.41 1.03-.41 1.08-.41 1.12-.41 1.18-.41 1.22-.4 1.26-.41 1.32-.41 1.36-.41 1.41-.41 1.45-.4 1.51-.41 1.55-.41 1.6-.4 1.64-.41 1.7-.41 1.74-.4 1.78-.41 1.84-.4 1.88-.41 1.93-.4 1.98-.41 2.02-.4 2.07-.41 2.12-.4 2.17-.4 2.21-.41 2.26-.4 2.31-.4 2.35-.4 2.41-.41 2.45-.4 2.5-.4 2.54-.4 2.59-.4 2.64-.4 2.69-.4 2.73-.4 2.78-.4 2.83-.4 2.88-.4 2.92-.4 2.97-.4M242.16 126.98l.51.41.48.42.46.42.44.42.41.42.39.41.37.42.34.42.32.41.29.42.27.42.25.41.22.42.2.42.18.41.15.42.13.42.11.41.08.42.06.41.03.42.01.41-.01.42-.04.41-.06.42-.08.41-.11.42-.13.41-.15.42-.18.41-.21.42-.22.41-.25.41-.27.42-.3.41-.32.41-.35.42-.36.41-.4.41-.41.42-.44.41-.46.41-.49.42-.51.41-.53.41-.56.41-.58.41-.6.42-.63.41-.65.41-.68.41-.7.41-.72.41-.75.42-.77.41-.79.41-.82.41-.84.41-.86.41-.89.41-.92.41-.93.41-.96.41-.98.41-1.01.41-1.03.41-1.05.41-1.08.41-1.1.41-1.13.41-1.15.41-1.17.41-1.2.4-1.22.41-1.24.41-1.27.41-1.29.41-1.31.41-1.34.4-1.36.41-1.39.41-1.41.41-1.43.41-1.45.4-1.48.41-1.51.41-1.52.4-1.56.41-1.57.41-1.6.4-1.62.41-1.65.41-1.67.4-1.69.41-1.72.4-1.74.41-1.76.41-1.79.4-1.81.41" style="stroke-width:1.07;stroke:#000;stroke-opacity:.1;stroke-linecap:butt"/><path d="m113.1 197.99 9.1 15.76h-18.19zM242.16 124.77l1.92 3.31h-3.83z" style="stroke-width:.71;stroke:none;fill:#00bfc4"/><circle cx="177.63" cy="167.74" r="6.76" style="stroke-width:.71;stroke:none;fill:#f8766d"/><circle cx="48.58" cy="249.26" r="1.42" style="stroke-width:.71;stroke:none;fill:#f8766d"/><path d="m106.26 212.96 5.87-3.82M235.3 131.41l5.88-3.8M170.57 172.15l6.06-3.79M54.19 245.8l-4.6 2.84" style="stroke-width:.53;stroke:#bfbfbf"/><path d="M65.23 224.31h61.8-.09l.35-.02.34-.07.33-.12.3-.17.27-.22.23-.26.18-.3.14-.32.08-.34.03-.34v-7.03l-.03-.35-.08-.33-.14-.32-.18-.3-.23-.26-.27-.22-.3-.17-.33-.12-.34-.07-.26-.02h-61.8l.26.02-.35-.02-.35.04-.33.1-.31.15-.29.2-.25.24-.21.28-.16.3-.11.33-.06.35v7.2-.18.35l.06.34.11.33.16.31.21.28.25.24.29.2.31.15.33.09.35.05z" style="stroke-width:.53;fill:#fff;fill-opacity:.5"/><text x="96.13" y="220.71" lengthAdjust="spacingAndGlyphs" style="font-size:5.69px;font-family:&quot;Liberation Sans&quot;" text-anchor="middle" textLength="58.92">RUSSELL S BARNETT</text><path d="M195.96 142.75h56.39-.08l.34-.01.34-.07.33-.13.3-.17.27-.22.23-.26.18-.29.14-.32.08-.34.03-.35v-7.02l-.03-.35-.08-.34-.14-.32-.18-.29-.23-.26-.27-.22-.3-.18-.33-.12-.34-.07-.26-.01h-56.39l.26.01-.35-.01-.34.04-.33.1-.32.14-.28.2-.26.24-.2.28-.17.31-.11.33-.05.34-.01.18v7.02l.01-.17v.35l.05.34.11.33.17.31.2.28.26.24.28.19.32.15.33.1.34.04z" style="stroke-width:.53;fill:#fff;fill-opacity:.5"/><text x="224.16" y="139.15" lengthAdjust="spacingAndGlyphs" style="font-size:5.69px;font-family:&quot;Liberation Sans&quot;" text-anchor="middle" textLength="53.51">RUSSELL BARNETT</text><path d="M118.09 191.69h71.53-.08l.34-.02.34-.07.33-.12.3-.17.27-.22.23-.26.19-.3.13-.32.09-.33.02-.35v-15.22l-.02-.35-.09-.34-.13-.32-.19-.29-.23-.26-.27-.22-.3-.17-.33-.13-.34-.07-.26-.01h-71.53l.26.01-.35-.01-.34.04-.33.1-.32.15-.29.2-.25.24-.2.27-.17.31-.11.33-.05.34-.01.18v15.22l.01-.17v.34l.05.35.11.33.17.3.2.28.25.24.29.2.32.15.33.1.34.04z" style="stroke-width:.53;fill:#fff;fill-opacity:.5"/><text x="153.86" y="179.9" lengthAdjust="spacingAndGlyphs" style="font-size:5.69px;font-family:&quot;Liberation Sans&quot;" text-anchor="middle" textLength="64.05">13128 N FOX HOLLOW</text><text x="153.86" y="188.09" lengthAdjust="spacingAndGlyphs" style="font-size:5.69px;font-family:&quot;Liberation Sans&quot;" text-anchor="middle" textLength="68.65">RD, MEQUON, WI 53097</text><path d="M39.42 245.8h62.68l-.09-.01.35-.01.34-.07.32-.12.3-.18.27-.22.23-.26.19-.29.14-.32.08-.34.03-.34v-15.23l-.03-.34-.08-.34-.14-.32-.19-.29-.23-.26-.27-.22-.3-.18-.32-.12-.34-.07-.26-.02H39.42l.26.02-.35-.01-.34.04-.34.1-.31.14-.29.2-.25.24-.2.28-.17.31-.11.33-.05.34-.01.17v15.23l.01-.18v.35l.05.34.11.33.17.31.2.28.25.24.29.2.31.15.34.09.34.04z" style="stroke-width:.53;fill:#fff;fill-opacity:.5"/><text x="70.76" y="234" lengthAdjust="spacingAndGlyphs" style="font-size:5.69px;font-family:&quot;Liberation Sans&quot;" text-anchor="middle" textLength="59.8">13128 FOX HOLLOW,</text><text x="70.76" y="242.2" lengthAdjust="spacingAndGlyphs" style="font-size:5.69px;font-family:&quot;Liberation Sans&quot;" text-anchor="middle" textLength="56.71">MEQUON, WI 53097</text></g><g clip-path="url(#cpMC4wMHwyODguMDB8MC4wMHwyODguMDA=)"><circle cx="87.34" cy="95.78" r="1.95" style="stroke-width:.71;stroke:none;fill:#f8766d"/><path d="m163.7 92.74 2.63 4.56h-5.26z" style="stroke-width:.71;stroke:none;fill:#00bfc4"/><text x="101.46" y="98.81" lengthAdjust="spacingAndGlyphs" style="font-size:8.8px;font-family:&quot;Liberation Sans Narrow&quot;" textLength="48.12">mprop address</text><text x="177.82" y="98.81" lengthAdjust="spacingAndGlyphs" style="font-size:8.8px;font-family:&quot;Liberation Sans Narrow&quot;" textLength="39.69">owner name</text><text x="32.63" y="64.23" lengthAdjust="spacingAndGlyphs" style="font-size:12px;font-family:&quot;Liberation Sans Narrow&quot;" textLength="246.76">includes 7 parcels, 14 units, and 2 distinct owner names.</text><text x="32.63" y="42.27" lengthAdjust="spacingAndGlyphs" style="font-size:18px;font-weight:700;font-family:&quot;Liberation Sans Narrow&quot;" textLength="205.53">RUSSELL S BARNETT Group</text></g></svg>