<svg xmlns="http://www.w3.org/2000/svg" width="384" height="480" class="svglite" viewBox="0 0 288 360"><defs><style><![CDATA[.svglite line,.svglite polyline,.svglite polygon,.svglite path,.svglite circle{fill:none;stroke:#000000;stroke-linecap:round;stroke-linejoin:round;stroke-miterlimit:10.00}]]></style></defs><rect width="100%" height="100%" style="stroke-linecap:round;stroke-linejoin:round;stroke-miterlimit:10.00;stroke:none;fill:#FFFFFF"/><defs><clipPath id="cpMC4wMHwyODguMDB8MC4wMHwzNjAuMDA="><path d="M0 0h288v360H0z"/></clipPath></defs><g clip-path="url(#cpMC4wMHwyODguMDB8MC4wMHwzNjAuMDA=)"><path d="M0 0h288v360H0z" style="stroke-width:1.07;stroke:none;fill:#FFFFFF"/></g><defs><clipPath id="cpMzIuNjN8MjU4LjExfDE2MC42NnwzMjcuMzc="><path d="M32.63 160.66h225.48v166.71H32.63z"/></clipPath></defs><g clip-path="url(#cpMzIuNjN8MjU4LjExfDE2MC42NnwzMjcuMzc=)"><path d="m247.86 168.24-1.03.77-1.04.76-1.03.77-1.04.76-1.03.77-1.04.76-1.03.77-1.04.77-1.03.76-1.04.77-1.04.76-1.03.77-1.04.76-1.03.77-1.04.76-1.03.77-1.04.76-1.03.77-1.04.77-1.03.76-1.04.77-1.03.76-1.04.77-1.03.76-1.04.77-1.03.76-1.04.77-1.04.76-1.03.77-1.04.77-1.03.76-1.04.77-1.03.76-1.04.77-1.03.76-1.04.77-1.03.76-1.04.77-1.03.76-1.04.77-1.03.76-1.04.77-1.03.77-1.04.76-1.03.77-1.04.76-1.04.77-1.03.76-1.04.77-1.03.76-1.04.77-1.03.76-1.04.77-1.03.77-1.04.76-1.03.77-1.04.76-1.03.77-1.04.76-1.03.77-1.04.76-1.03.77-1.04.76-1.04.77-1.03.77-1.04.76-1.03.77-1.04.76-1.03.77-1.04.76-1.03.77-1.04.76-1.03.77-1.04.76-1.03.77-1.04.77-1.03.76-1.04.77-1.03.76-1.04.77-1.03.76-1.04.77-1.04.76-1.03.77-1.04.76-1.03.77-1.04.77-1.03.76-1.04.77-1.03.76-1.04.77-1.03.76-1.04.77-1.03.76-1.04.77-1.03.76-1.04.77-1.03.76-1.04.77M42.88 319.79l1.03-.76 1.04-.77 1.03-.76 1.04-.77 1.03-.76 1.04-.77 1.03-.76 1.04-.77 1.03-.76 1.04-.77 1.04-.76 1.03-.77 1.04-.77 1.03-.76 1.04-.77 1.03-.76 1.04-.77 1.03-.76 1.04-.77 1.03-.76 1.04-.77 1.03-.76 1.04-.77 1.03-.76 1.04-.77 1.03-.77 1.04-.76 1.03-.77 1.04-.76 1.04-.77 1.03-.76 1.04-.77 1.03-.76 1.04-.77 1.03-.76 1.04-.77 1.03-.77 1.04-.76 1.03-.77 1.04-.76 1.03-.77 1.04-.76 1.03-.77 1.04-.76 1.03-.77 1.04-.76 1.04-.77 1.03-.76 1.04-.77 1.03-.77 1.04-.76 1.03-.77 1.04-.76 1.03-.77 1.04-.76 1.03-.77 1.04-.76 1.03-.77 1.04-.76 1.03-.77 1.04-.76 1.03-.77 1.04-.77 1.04-.76 1.03-.77 1.04-.76 1.03-.77 1.04-.76 1.03-.77 1.04-.76 1.03-.77 1.04-.76 1.03-.77 1.04-.76 1.03-.77 1.04-.77 1.03-.76 1.04-.77 1.03-.76 1.04-.77 1.03-.76 1.04-.77 1.04-.76 1.03-.77 1.04-.76 1.03-.77 1.04-.76 1.03-.77 1.04-.77 1.03-.76 1.04-.77 1.03-.76 1.04-.77 1.03-.76 1.04-.77 1.03-.76 1.04-.77 1.03-.76 1.04-.77" style="stroke-width:1.07;stroke:#000000;stroke-opacity:0.10;stroke-linecap:butt"/><path d="m247.86 166.03 1.92 3.32h-3.83zM42.88 317.58l1.91 3.32h-3.83z" style="stroke-width:0.71;stroke:none;fill:#00BFC4"/><circle cx="145.37" cy="244.02" r="6.76" style="stroke-width:0.71;stroke:none;fill:#F8766D"/><path d="m241.84 172.79 5.08-3.84M48.97 315.2l-5.15 3.88m107.41-79.61-4.93 3.83" style="stroke-width:0.53;stroke:#BFBFBF"/><path d="M184.89 192.27h67.46l-.09-.01.35-.01.34-.07.33-.12.3-.18.27-.22.23-.26.18-.29.14-.32.08-.34.03-.34h0v-15.16h0l-.03-.35-.08-.33-.14-.32-.18-.3-.23-.26-.27-.22-.3-.17-.33-.13-.34-.06-.26-.02h-67.46l.26.02-.34-.02-.35.04-.33.1-.32.15-.28.2-.25.24-.21.27-.16.31-.11.33-.06.35-.01.17v15.16l.01-.18v.35l.06.34.11.33.16.31.21.28.25.24.28.2.32.15.33.09.35.04z" style="stroke-width:0.53;fill:#FFFFFF;fill-opacity:0.50"/><text x="218.62" y="180.47" lengthAdjust="spacingAndGlyphs" style="font-size:5.69px;font-family:Arial" text-anchor="middle" textLength="64.58">ST GABRIEL&apos;S CHURCH</text><text x="218.62" y="188.67" lengthAdjust="spacingAndGlyphs" style="font-size:5.69px;font-family:Arial" text-anchor="middle" textLength="7.9">OF</text><path d="M38.44 315.2h69.85-.09l.35-.02.34-.06.32-.13.3-.17.27-.22.23-.26.19-.3.13-.32.09-.33.03-.35h0v-15.16h0l-.03-.34-.09-.34-.13-.32-.19-.29-.23-.26-.27-.22-.3-.18-.32-.12-.34-.07-.26-.02H38.44l.26.02-.35-.01-.34.04-.34.09-.31.15-.29.2-.25.24-.21.28-.16.31-.11.33-.06.34v15.33-.17.34l.06.35.11.33.16.31.21.27.25.24.29.2.31.15.34.1.34.04z" style="stroke-width:0.53;fill:#FFFFFF;fill-opacity:0.50"/><text x="73.36" y="303.41" lengthAdjust="spacingAndGlyphs" style="font-size:5.69px;font-family:Arial" text-anchor="middle" textLength="66.97">SAINT GABRIELS COGIC</text><text x="73.36" y="311.6" lengthAdjust="spacingAndGlyphs" style="font-size:5.69px;font-family:Arial" text-anchor="middle" textLength="9.78">INC</text><path d="M132.44 239.47h64.5-.09l.35-.01.34-.07.32-.12.3-.18.27-.22.23-.26.19-.29.13-.32.09-.34.03-.35h0v-15.15h0l-.03-.35-.09-.34-.13-.32-.19-.29-.23-.26-.27-.22-.3-.17-.32-.13-.34-.07-.26-.01h-64.5l.27.01-.35-.01-.35.04-.33.1-.32.15-.28.19-.25.24-.21.28-.16.31-.11.33-.06.34-.01.18v15.15l.01-.17v.35l.06.34.11.33.16.31.21.28.25.24.28.19.32.15.33.1.35.04z" style="stroke-width:0.53;fill:#FFFFFF;fill-opacity:0.50"/><text x="164.69" y="227.68" lengthAdjust="spacingAndGlyphs" style="font-size:5.69px;font-family:Arial" text-anchor="middle" textLength="58.44">5600 N STANTON DR,</text><text x="164.69" y="235.87" lengthAdjust="spacingAndGlyphs" style="font-size:5.69px;font-family:Arial" text-anchor="middle" textLength="61.61">MILWAUKEE, WI 53209</text></g><g clip-path="url(#cpMC4wMHwyODguMDB8MC4wMHwzNjAuMDA=)"><circle cx="87.34" cy="135.59" r="1.95" style="stroke-width:0.71;stroke:none;fill:#F8766D"/><path d="m163.7 132.55 2.63 4.56h-5.26z" style="stroke-width:0.71;stroke:none;fill:#00BFC4"/><text x="101.46" y="138.74" lengthAdjust="spacingAndGlyphs" style="font-size:8.80px;font-family:Arial Narrow" textLength="48.12">mprop address</text><text x="177.82" y="138.74" lengthAdjust="spacingAndGlyphs" style="font-size:8.80px;font-family:Arial Narrow" textLength="39.69">owner name</text><text x="32.63" y="104" lengthAdjust="spacingAndGlyphs" style="font-size:12.00px;font-family:Arial Narrow" textLength="241.29">includes 2 parcels, 3 units, and 2 distinct owner names.</text><text x="32.63" y="42.78" lengthAdjust="spacingAndGlyphs" style="font-size:18.00px;font-weight:bold;font-family:Arial Narrow" textLength="206.64">SAINT GABRIELS COGIC INC</text><text x="32.63" y="62.22" lengthAdjust="spacingAndGlyphs" style="font-size:18.00px;font-weight:bold;font-family:Arial Narrow" textLength="209.29">-- ST GABRIEL&apos;S CHURCH OF</text><text x="32.63" y="81.66" lengthAdjust="spacingAndGlyphs" style="font-size:18.00px;font-weight:bold;font-family:Arial Narrow" textLength="44.27">Group</text></g></svg>