<svg xmlns="http://www.w3.org/2000/svg" class="svglite" width="768" height="768" viewBox="0 0 576 576"><defs><style>.svglite circle,.svglite line,.svglite polygon,.svglite polyline,.svglite rect{fill:none;stroke:#000;stroke-linecap:round;stroke-linejoin:round;stroke-miterlimit:10}.svglite text{white-space:pre}</style></defs><rect width="100%" height="100%" style="stroke:none;fill:#fff"/><defs><clipPath id="cpMC4wMHw1NzYuMDB8MC4wMHw1NzYuMDA="><path d="M0 0h576v576H0z"/></clipPath></defs><g clip-path="url(#cpMC4wMHw1NzYuMDB8MC4wMHw1NzYuMDA=)"><path style="stroke-width:1.07;stroke:none;fill:#fff" d="M0 0h576v576H0z"/></g><defs><clipPath id="cpMzIuNjN8NTQ2LjExfDEyMS43OHw1NDMuMzc="><path d="M32.63 121.78h513.48v421.59H32.63z"/></clipPath></defs><g clip-path="url(#cpMzIuNjN8NTQ2LjExfDEyMS43OHw1NDMuMzc=)"><path style="stroke-width:1.07;stroke:#000;stroke-opacity:.1;stroke-linecap:butt" d="m247.4 419.2.24-1.09.24-1.1.24-1.1.23-1.09.24-1.1.24-1.09.24-1.1.23-1.09.24-1.1.24-1.1.24-1.09.23-1.1.24-1.09.24-1.1.24-1.09.23-1.1.24-1.1.24-1.09.24-1.1.23-1.09.24-1.1.24-1.09.24-1.1.24-1.1.23-1.09.24-1.1.24-1.09.24-1.1.23-1.09.24-1.1.24-1.1.24-1.09.23-1.1.24-1.09.24-1.1.24-1.09.23-1.1.24-1.1.24-1.09.24-1.1.23-1.09.24-1.1.24-1.09.24-1.1.23-1.1.24-1.09.24-1.1.24-1.09.23-1.1.24-1.09.24-1.1.24-1.1.23-1.09.24-1.1.24-1.09.24-1.1.23-1.09.24-1.1.24-1.09.24-1.1.23-1.1.24-1.09.24-1.1.24-1.09.23-1.1.24-1.09.24-1.1.24-1.1.24-1.09.23-1.1.24-1.09.24-1.1.24-1.09.23-1.1.24-1.1.24-1.09.24-1.1.23-1.09.24-1.1.24-1.09.24-1.1.23-1.1.24-1.09.24-1.1.24-1.09.23-1.1.24-1.09.24-1.1.24-1.1.23-1.09.24-1.1.24-1.09.24-1.1.23-1.09.24-1.1.24-1.1.24-1.09.23-1.1.24-1.09M247.4 419.2l-.23 1.06-.23 1.06-.23 1.06-.23 1.06-.23 1.06-.23 1.07-.23 1.06-.23 1.06-.23 1.06-.23 1.06-.23 1.06-.23 1.06-.23 1.06-.23 1.06-.23 1.06-.23 1.06-.23 1.06-.23 1.06-.23 1.06-.23 1.06-.23 1.07-.23 1.06-.23 1.06-.23 1.06-.23 1.06-.23 1.06-.23 1.06-.23 1.06-.22 1.06-.23 1.06-.23 1.06-.23 1.06-.23 1.06-.23 1.06-.23 1.07-.23 1.06-.23 1.06-.23 1.06-.23 1.06-.23 1.06-.23 1.06-.23 1.06-.23 1.06-.23 1.06-.23 1.06-.23 1.06-.23 1.06-.23 1.06-.23 1.06-.23 1.07-.23 1.06-.23 1.06-.23 1.06-.23 1.06-.23 1.06-.23 1.06-.23 1.06-.23 1.06-.23 1.06-.23 1.06-.23 1.06-.23 1.06-.23 1.06-.23 1.07-.23 1.06-.23 1.06-.23 1.06-.23 1.06-.23 1.06-.23 1.06-.23 1.06-.23 1.06-.23 1.06-.23 1.06-.23 1.06-.23 1.06-.23 1.06-.23 1.06-.23 1.07-.23 1.06-.23 1.06-.23 1.06-.23 1.06-.23 1.06-.23 1.06-.23 1.06-.23 1.06-.23 1.06-.23 1.06-.23 1.06-.23 1.06-.23 1.06-.23 1.07-.23 1.06-.23 1.06-.23 1.06-.23 1.06-.23 1.06-.23 1.06M55.97 220.23l2.17.92 2.17.91 2.17.91 2.17.92 2.17.91 2.18.92 2.17.91 2.17.91 2.17.92 2.17.91 2.17.92 2.17.91 2.17.92 2.18.91 2.17.91 2.17.92 2.17.91 2.17.92 2.17.91 2.17.91 2.17.92 2.18.91 2.17.92 2.17.91 2.17.91 2.17.92 2.17.91 2.17.92 2.17.91 2.18.91 2.17.92 2.17.91 2.17.92 2.17.91 2.17.92 2.17.91 2.17.91 2.18.92 2.17.91 2.17.92 2.17.91 2.17.91 2.17.92 2.17.91 2.17.92 2.18.91 2.17.91 2.17.92 2.17.91 2.17.92 2.17.91 2.17.91 2.17.92 2.18.91 2.17.92 2.17.91 2.17.92 2.17.91 2.17.91 2.17.92 2.17.91 2.18.92 2.17.91 2.17.91 2.17.92 2.17.91 2.17.92 2.17.91 2.17.91 2.18.92 2.17.91 2.17.92 2.17.91 2.17.92 2.17.91 2.17.91 2.17.92 2.18.91 2.17.92 2.17.91 2.17.91 2.17.92 2.17.91 2.17.92 2.17.91 2.18.91 2.17.92 2.17.91 2.17.92 2.17.91 2.17.91 2.17.92 2.17.91 2.18.92 2.17.91 2.17.92 2.17.91 2.17.91 2.17.92M55.97 220.23l2.54-.8 2.54-.8 2.55-.8 2.54-.8 2.54-.8 2.55-.8 2.54-.8 2.54-.8 2.55-.81 2.54-.8 2.54-.8 2.54-.8 2.55-.8 2.54-.8 2.54-.8 2.55-.8 2.54-.8 2.54-.8 2.55-.8 2.54-.8 2.54-.81 2.55-.8 2.54-.8 2.54-.8 2.54-.8 2.55-.8 2.54-.8 2.54-.8 2.55-.8 2.54-.8 2.54-.8 2.55-.81 2.54-.8 2.54-.8 2.54-.8 2.55-.8 2.54-.8 2.54-.8 2.55-.8 2.54-.8 2.54-.8 2.55-.8 2.54-.8 2.54-.81 2.55-.8 2.54-.8 2.54-.8 2.54-.8 2.55-.8 2.54-.8 2.54-.8 2.55-.8 2.54-.8 2.54-.8 2.55-.8 2.54-.81 2.54-.8 2.55-.8 2.54-.8 2.54-.8 2.54-.8 2.55-.8 2.54-.8 2.54-.8 2.55-.8 2.54-.8 2.54-.81 2.55-.8 2.54-.8 2.54-.8 2.55-.8 2.54-.8 2.54-.8 2.54-.8 2.55-.8 2.54-.8 2.54-.8 2.55-.8 2.54-.81 2.54-.8 2.55-.8 2.54-.8 2.54-.8 2.54-.8 2.55-.8 2.54-.8 2.54-.8 2.55-.8 2.54-.8 2.54-.8 2.55-.81 2.54-.8 2.54-.8 2.55-.8 2.54-.8 2.54-.8 2.54-.8 2.55-.8 2.54-.8"/><path style="stroke-width:1.07;stroke:#000;stroke-opacity:.1;stroke-linecap:butt" d="m522.77 231.04-2.54.81-2.55.8-2.54.8-2.54.81-2.55.8-2.54.81-2.55.8-2.54.81-2.54.8-2.55.81-2.54.8-2.55.81-2.54.8-2.54.81-2.55.8-2.54.81-2.55.8-2.54.81-2.54.8-2.55.81-2.54.8-2.54.81-2.55.8-2.54.81-2.55.8-2.54.81-2.54.8-2.55.81-2.54.8-2.55.81-2.54.8-2.54.81-2.55.8-2.54.81-2.55.8-2.54.81-2.54.8-2.55.81-2.54.8-2.55.81-2.54.8-2.54.81-2.55.8-2.54.81-2.55.8-2.54.81-2.54.8-2.55.81-2.54.8-2.55.81-2.54.8-2.54.81-2.55.8-2.54.81-2.54.8-2.55.81-2.54.8-2.55.81-2.54.8-2.54.81-2.55.8-2.54.81-2.55.8-2.54.81-2.54.8-2.55.8-2.54.81-2.55.8-2.54.81-2.54.8-2.55.81-2.54.8-2.55.81-2.54.8-2.54.81-2.55.8-2.54.81-2.55.8-2.54.81-2.54.8-2.55.81-2.54.8-2.55.81-2.54.8-2.54.81-2.55.8-2.54.81-2.55.8-2.54.81-2.54.8-2.55.81-2.54.8-2.54.81-2.55.8-2.54.81-2.55.8-2.54.81-2.54.8-2.55.81M522.77 231.04l-2.17-.91-2.17-.91-2.17-.91-2.18-.91-2.17-.91-2.17-.91-2.17-.91-2.18-.91-2.17-.91-2.17-.91-2.17-.91-2.17-.91-2.18-.91-2.17-.91-2.17-.91-2.17-.91-2.17-.91-2.18-.91-2.17-.91-2.17-.91-2.17-.91-2.18-.91-2.17-.91-2.17-.91-2.17-.91-2.17-.91-2.18-.91-2.17-.91-2.17-.91-2.17-.91-2.17-.91-2.18-.91-2.17-.91-2.17-.91-2.17-.91-2.17-.91-2.18-.91-2.17-.91-2.17-.91-2.17-.91-2.18-.91-2.17-.91-2.17-.91-2.17-.91-2.17-.91-2.18-.91-2.17-.91-2.17-.91-2.17-.91-2.17-.91-2.18-.91-2.17-.91-2.17-.91-2.17-.91-2.18-.91-2.17-.91-2.17-.91-2.17-.91-2.17-.91-2.18-.91-2.17-.91-2.17-.91-2.17-.91-2.17-.91-2.18-.91-2.17-.91-2.17-.91-2.17-.91-2.18-.91-2.17-.91-2.17-.91-2.17-.91-2.17-.91-2.18-.91-2.17-.91-2.17-.91-2.17-.91-2.17-.91-2.18-.91-2.17-.91-2.17-.91-2.17-.91-2.18-.91-2.17-.91-2.17-.91-2.17-.91-2.17-.91-2.18-.91-2.17-.91-2.17-.91-2.17-.91-2.17-.91-2.18-.91-2.17-.91-2.17-.91-2.17-.91-2.17-.91-2.18-.91-2.17-.91"/><path style="stroke-width:.71;stroke:none;fill:#00ba38" d="m247.4 416.99 1.92 3.32h-3.83zM55.97 218.02l1.91 3.32h-3.83zM522.77 228.83l1.92 3.32h-3.83z"/><circle cx="270.92" cy="310.73" r="6.76" style="stroke-width:.71;stroke:none;fill:#f8766d"/><path style="stroke-width:.71;stroke:none;fill:#619cff" d="M223.22 525.63h2.84v-2.84h-2.84zM302.54 146.14h10.38v-10.39h-10.38z"/><path style="stroke-width:.53;stroke:#bfbfbf" d="m252.79 414.55-4.51 3.89M60.85 222.12l-3.73-1.44M276.29 306.1l-4.49 3.87M230.12 519.61l-4.59 3.85M302.27 145.52l4.57-3.82"/><path style="stroke-width:.53;fill:#fff;fill-opacity:.5" d="M228.88 414.55h72.07-.09l.35-.02.34-.06.33-.13.3-.17.27-.22.23-.26.18-.3.14-.32.08-.33.03-.35v-15.16l-.03-.34-.08-.34-.14-.32-.18-.29-.23-.26-.27-.22-.3-.18-.33-.12-.34-.07-.26-.02h-72.07l.26.02-.34-.01-.35.04-.33.09-.32.15-.28.2-.25.24-.21.28-.16.31-.11.33-.06.34-.01.17v15.16l.01-.17v.34l.06.35.11.33.16.3.21.28.25.24.28.2.32.15.33.1.35.04z"/><text x="264.92" y="402.76" text-anchor="middle" style="font-size:5.69px;font-family:&quot;Arial&quot;" textLength="69.18" lengthAdjust="spacingAndGlyphs">SANTORINI PROPERTIES</text><text x="264.92" y="410.95" text-anchor="middle" style="font-size:5.69px;font-family:&quot;Arial&quot;" textLength="10.43" lengthAdjust="spacingAndGlyphs">LLC</text><path style="stroke-width:.53;fill:#fff;fill-opacity:.5" d="M63.01 232.11h55.33-.09l.35-.02.34-.07.33-.12.3-.18.27-.22.23-.26.18-.29.14-.32.08-.34.03-.34v-15.16l-.03-.35-.08-.33-.14-.32-.18-.3-.23-.26-.27-.22-.3-.17-.33-.12-.34-.07-.26-.02H63.01l.26.02-.35-.02-.34.04-.34.1-.31.15-.29.2-.25.24-.21.28-.16.3-.11.33-.05.35-.01.17v15.16l.01-.18v.35l.05.34.11.33.16.31.21.28.25.24.29.2.31.15.34.09.34.05z"/><text x="90.67" y="220.31" text-anchor="middle" style="font-size:5.69px;font-family:&quot;Arial&quot;" textLength="30.95" lengthAdjust="spacingAndGlyphs">SANTORINI</text><text x="90.67" y="228.51" text-anchor="middle" style="font-size:5.69px;font-family:&quot;Arial&quot;" textLength="52.45" lengthAdjust="spacingAndGlyphs">INVESTMENTS LLC</text><path style="stroke-width:.53;fill:#fff;fill-opacity:.5" d="M439.74 240.74h76.17-.08l.34-.02.34-.06.33-.13.3-.17.27-.22.23-.26.18-.3.14-.32.08-.33.03-.35v-15.16l-.03-.34-.08-.34-.14-.32-.18-.29-.23-.26-.27-.22-.3-.18-.33-.12-.34-.07-.26-.02h-76.17l.26.02-.34-.01-.35.04-.33.09-.32.15-.28.2-.25.24-.21.28-.16.31-.11.33-.06.34-.01.17v15.16l.01-.17v.34l.06.35.11.33.16.3.21.28.25.24.28.2.32.15.33.1.35.04z"/><text x="477.83" y="228.95" text-anchor="middle" style="font-size:5.69px;font-family:&quot;Arial&quot;" textLength="73.29" lengthAdjust="spacingAndGlyphs">SANTORINI MANAGEMENT</text><text x="477.83" y="237.14" text-anchor="middle" style="font-size:5.69px;font-family:&quot;Arial&quot;" textLength="10.43" lengthAdjust="spacingAndGlyphs">LLC</text><path style="stroke-width:.53;fill:#fff;fill-opacity:.5" d="M256.16 306.1h64.49-.08l.34-.02.34-.07.33-.12.3-.17.27-.22.23-.26.19-.3.13-.32.09-.34.02-.34v-15.16l-.02-.35-.09-.33-.13-.32-.19-.3-.23-.26-.27-.22-.3-.17-.33-.12-.34-.07-.26-.02h-64.49l.26.02-.34-.02-.35.05-.33.09-.32.15-.28.2-.25.24-.21.28-.16.3-.11.33-.06.35-.01.17v15.16l.01-.18v.35l.06.35.11.32.16.31.21.28.25.24.28.2.32.15.33.09.35.05z"/><text x="288.41" y="294.3" text-anchor="middle" style="font-size:5.69px;font-family:&quot;Arial&quot;" textLength="40.76" lengthAdjust="spacingAndGlyphs">PO BOX 28884,</text><text x="288.41" y="302.5" text-anchor="middle" style="font-size:5.69px;font-family:&quot;Arial&quot;" textLength="61.61" lengthAdjust="spacingAndGlyphs">MILWAUKEE, WI 53228</text><path style="stroke-width:.53;fill:#fff;fill-opacity:.5" d="M219.04 519.61h66.07-.09l.35-.01.34-.07.33-.12.3-.18.27-.22.23-.26.18-.29.14-.32.08-.34.03-.35v-31.54l-.03-.35-.08-.34-.14-.32-.18-.29-.23-.26-.27-.22-.3-.17-.33-.13-.34-.07-.26-.01h-66.07l.26.01-.34-.01-.35.04-.33.1-.32.15-.28.2-.25.24-.21.27-.16.31-.11.33-.06.34-.01.18v31.54l.01-.17v.35l.06.34.11.33.16.31.21.28.25.24.28.19.32.15.33.1.35.04z"/><text x="252.08" y="491.43" text-anchor="middle" style="font-size:5.69px;font-family:&quot;Arial&quot;" textLength="31.29" lengthAdjust="spacingAndGlyphs">S75W17237</text><text x="252.08" y="499.63" text-anchor="middle" style="font-size:5.69px;font-family:&quot;Arial&quot;" textLength="58.77" lengthAdjust="spacingAndGlyphs">JANESVILLE, PO BOX</text><text x="252.08" y="507.82" text-anchor="middle" style="font-size:5.69px;font-family:&quot;Arial&quot;" textLength="63.19" lengthAdjust="spacingAndGlyphs">28884, MILWAUKEE, WI</text><text x="252.08" y="516.01" text-anchor="middle" style="font-size:5.69px;font-family:&quot;Arial&quot;" textLength="15.8" lengthAdjust="spacingAndGlyphs">53228</text><path style="stroke-width:.53;fill:#fff;fill-opacity:.5" d="M245.54 181.39h69.56-.08l.34-.02.34-.07.33-.12.3-.17.27-.22.23-.26.18-.3.14-.32.08-.34.03-.34v-31.55l-.03-.34-.08-.34-.14-.32-.18-.3-.23-.26-.27-.22-.3-.17-.33-.12-.34-.07-.26-.02h-69.56l.26.02-.35-.02-.35.05-.33.09-.31.15-.29.2-.25.24-.21.28-.16.31-.11.33-.06.34V179.23v-.18.35l.06.34.11.33.16.31.21.28.25.24.29.2.31.15.33.09.35.05z"/><text x="280.32" y="153.2" text-anchor="middle" style="font-size:5.69px;font-family:&quot;Arial&quot;" textLength="66.69" lengthAdjust="spacingAndGlyphs">S75W17237 JANESVILLE</text><text x="280.32" y="161.4" text-anchor="middle" style="font-size:5.69px;font-family:&quot;Arial&quot;" textLength="42.32" lengthAdjust="spacingAndGlyphs">RD., SUITE 100,</text><text x="280.32" y="169.59" text-anchor="middle" style="font-size:5.69px;font-family:&quot;Arial&quot;" textLength="40.76" lengthAdjust="spacingAndGlyphs">PO BOX 28884,</text><text x="280.32" y="177.79" text-anchor="middle" style="font-size:5.69px;font-family:&quot;Arial&quot;" textLength="61.61" lengthAdjust="spacingAndGlyphs">MILWAUKEE, WI 53228</text></g><g clip-path="url(#cpMC4wMHw1NzYuMDB8MC4wMHw1NzYuMDA=)"><circle cx="196.98" cy="96.71" r="1.95" style="stroke-width:.71;stroke:none;fill:#f8766d"/><path style="stroke-width:.71;stroke:none;fill:#00ba38" d="m273.33 93.67 2.63 4.56h-5.26z"/><path style="stroke-width:.71;stroke:none;fill:#619cff" d="M339.31 98.66h3.91v-3.91h-3.91z"/><text x="211.09" y="99.86" style="font-size:8.8px;font-family:&quot;Arial Narrow&quot;" textLength="48.12" lengthAdjust="spacingAndGlyphs">mprop address</text><text x="287.45" y="99.86" style="font-size:8.8px;font-family:&quot;Arial Narrow&quot;" textLength="39.69" lengthAdjust="spacingAndGlyphs">owner name</text><text x="355.38" y="99.86" style="font-size:8.8px;font-family:&quot;Arial Narrow&quot;" textLength="40.5" lengthAdjust="spacingAndGlyphs">wdfi address</text><text x="32.63" y="65.12" style="font-size:12px;font-family:&quot;Arial Narrow&quot;" textLength="246.76" lengthAdjust="spacingAndGlyphs">includes 3 parcels, 18 units, and 3 distinct owner names.</text><text x="32.63" y="42.78" style="font-size:18px;font-weight:700;font-family:&quot;Arial Narrow&quot;" textLength="271.14" lengthAdjust="spacingAndGlyphs">SANTORINI INVESTMENTS LLC Group</text></g></svg>