<svg xmlns="http://www.w3.org/2000/svg" width="768" height="768" viewBox="0 0 576 576"><g class="svglite"><defs><style><![CDATA[.svglite line,.svglite polyline,.svglite polygon,.svglite path,.svglite circle{fill:none;stroke:#000000;stroke-linecap:round;stroke-linejoin:round;stroke-miterlimit:10.00}.svglite text{white-space:pre}.svglite g.glyphgroup path{fill:inherit;stroke:none}]]></style></defs><rect width="100%" height="100%" style="stroke-linecap:round;stroke-linejoin:round;stroke-miterlimit:10.00;stroke:none;fill:#FFFFFF"/><defs><clipPath id="cpMC4wMHw1NzYuMDB8MC4wMHw1NzYuMDA="><path d="M0 0h576v576H0z"/></clipPath></defs><g clip-path="url(#cpMC4wMHw1NzYuMDB8MC4wMHw1NzYuMDA=)"><path d="M0 0h576v576H0z" style="stroke-width:1.07;stroke:none;fill:#FFFFFF"/></g><defs><clipPath id="cpMjkuODl8NTQ2LjExfDEyMi4xNHw1NDYuMTE="><path d="M29.89 122.14h516.22v423.97H29.89z"/></clipPath></defs><g clip-path="url(#cpMjkuODl8NTQ2LjExfDEyMi4xNHw1NDYuMTE=)"><path d="m158.4 422.32 1.3-.95 1.29-.97 1.28-.96 1.28-.98 1.27-.98 1.26-.99 1.25-.99 1.25-1.01 1.24-1 1.23-1.02 1.23-1.02 1.22-1.02 1.21-1.03 1.21-1.04 1.19-1.05 1.19-1.05 1.19-1.06 1.18-1.06 1.17-1.07 1.16-1.08 1.16-1.08 1.14-1.09 1.15-1.09 1.13-1.11 1.13-1.1 1.12-1.12 1.11-1.12 1.11-1.12 1.1-1.14 1.09-1.14 1.09-1.14 1.08-1.16 1.07-1.15 1.07-1.17 1.05-1.17 1.05-1.18 1.05-1.18 1.03-1.19 1.03-1.2 1.03-1.2 1.01-1.21 1.01-1.21 1-1.22 1-1.23.98-1.24.98-1.24.98-1.24.96-1.26.96-1.25.96-1.27.94-1.27.94-1.28.93-1.28.92-1.29.92-1.3.91-1.3.91-1.31.89-1.32.89-1.32.88-1.33.88-1.34.87-1.34.86-1.34.85-1.36.85-1.36.84-1.36.83-1.38.83-1.38.82-1.38.81-1.39.8-1.4.8-1.4.79-1.41.79-1.42.77-1.42.77-1.43.76-1.44.76-1.44.75-1.45.74-1.45.73-1.47.73-1.46.72-1.48.72-1.48.7-1.48.7-1.49.69-1.5.69-1.51.68-1.51.67-1.52.66-1.52.66-1.53.65-1.54.65-1.54.63-1.55.63-1.55.62-1.57.62-1.56.61-1.58M158.4 422.32l-1.06.97-1.06.98-1.06.97-1.06.97-1.06.97-1.06.97-1.06.97-1.07.97-1.06.97-1.06.97-1.06.97-1.06.97-1.06.97-1.06.97-1.06.97-1.06.97-1.07.97-1.06.97-1.06.98-1.06.97-1.06.97-1.06.97-1.06.97-1.06.97-1.07.97-1.06.97-1.06.97-1.06.97-1.06.97-1.06.97-1.06.97-1.06.97-1.06.97-1.07.97-1.06.97-1.06.97-1.06.98-1.06.97-1.06.97-1.06.97-1.06.97-1.06.97-1.07.97-1.06.97-1.06.97-1.06.97-1.06.97-1.06.97-1.06.97-1.06.97-1.06.97-1.07.97-1.06.97-1.06.98-1.06.97-1.06.97-1.06.97-1.06.97-1.06.97-1.06.97-1.07.97-1.06.97-1.06.97-1.06.97-1.06.97-1.06.97-1.06.97-1.06.97-1.06.97-1.07.97-1.06.97-1.06.98-1.06.97-1.06.97-1.06.97-1.06.97-1.06.97-1.06.97-1.07.97-1.06.97-1.06.97-1.06.97-1.06.97-1.06.97-1.06.97-1.06.97-1.06.97-1.07.97-1.06.98-1.06.97-1.06.97-1.06.97-1.06.97-1.06.97-1.06.97-1.06.97-1.07.97-1.06.97-1.06.97" style="stroke-width:1.07;stroke:#000000;stroke-opacity:0.10;stroke-linecap:butt"/><path d="m158.4 422.32 1.18-1.06 1.18-1.06 1.17-1.07 1.17-1.07 1.17-1.08 1.15-1.08 1.16-1.08 1.15-1.09 1.14-1.09 1.14-1.1 1.14-1.1 1.13-1.11 1.12-1.11 1.12-1.11 1.12-1.12 1.11-1.12 1.11-1.13 1.1-1.13 1.1-1.14 1.09-1.14 1.09-1.14 1.08-1.15 1.08-1.15 1.07-1.16 1.07-1.16 1.07-1.16 1.06-1.17 1.05-1.17 1.05-1.18 1.05-1.18 1.04-1.19 1.04-1.19 1.03-1.19 1.03-1.2 1.02-1.2 1.02-1.21 1.01-1.21 1.01-1.21 1-1.22 1-1.23 1-1.22.99-1.24.98-1.23.98-1.24.98-1.25.97-1.25.97-1.25.96-1.26.96-1.26.95-1.26.95-1.27.94-1.28.94-1.27.93-1.29.93-1.28.92-1.29.92-1.3.92-1.3.91-1.3.9-1.31.9-1.31.9-1.32.89-1.32.89-1.32.88-1.33.88-1.33.87-1.34.87-1.34.86-1.35.86-1.34.86-1.36.84-1.36.85-1.36.84-1.36.83-1.38.84-1.37.82-1.38.82-1.38.82-1.39.81-1.39.81-1.4.8-1.4.8-1.4.79-1.41.79-1.41.78-1.42.78-1.42.78-1.42.77-1.43.76-1.44.76-1.43.76-1.45.75-1.44.75-1.45.74-1.46.73-1.46.74-1.46.72-1.47.73-1.47m130.92 84.09-1.1-1.27-1.09-1.27-1.1-1.26-1.11-1.26-1.11-1.24-1.11-1.23-1.12-1.23-1.13-1.22-1.13-1.21-1.13-1.19-1.14-1.2-1.14-1.18-1.15-1.17-1.15-1.16-1.16-1.16-1.16-1.15-1.17-1.14-1.17-1.13-1.18-1.12-1.18-1.11-1.18-1.1-1.19-1.1-1.2-1.08-1.2-1.08-1.2-1.07-1.21-1.06-1.22-1.05-1.22-1.04-1.22-1.03-1.23-1.03-1.23-1.01-1.24-1.01-1.24-1-1.25-.99-1.25-.98-1.25-.97-1.27-.96-1.26-.96-1.27-.94-1.28-.94-1.28-.93-1.28-.92-1.29-.91-1.3-.9-1.29-.89-1.31-.89-1.31-.87-1.31-.87-1.32-.86-1.32-.85-1.33-.84-1.33-.83-1.33-.82-1.35-.82-1.34-.8-1.35-.8-1.36-.79-1.36-.78-1.36-.77-1.37-.76-1.38-.75-1.38-.75-1.38-.73-1.39-.73-1.39-.72-1.4-.71-1.4-.7-1.41-.69-1.41-.68-1.42-.68-1.42-.66-1.43-.66-1.43-.65-1.43-.64-1.44-.63-1.45-.62-1.45-.61-1.45-.61-1.46-.59-1.46-.59-1.47-.58-1.48-.57-1.47-.56-1.49-.55-1.48-.54-1.5-.54-1.49-.52-1.5-.52-1.51-.51-1.51-.5-1.52-.49-1.52-.48-1.52-.47-1.53-.47-1.54-.45-1.54-.45-1.54-.44-1.55-.43-1.55-.42m130.92 84.09-.12 1.71-.11 1.7-.09 1.7-.09 1.69-.07 1.69-.05 1.68-.05 1.68-.03 1.67-.02 1.67-.01 1.66v1.66l.02 1.65.03 1.65.04 1.64.05 1.64.07 1.64.07 1.63.09 1.62.1 1.62.12 1.62.12 1.61.14 1.6.15 1.6.17 1.6.17 1.59.19 1.59.2 1.58.21 1.58.23 1.57.23 1.57.25 1.56.26 1.56.27 1.55.29 1.55.3 1.54.31 1.54.32 1.53.34 1.53.34 1.53.36 1.52.37 1.51.39 1.51.39 1.51.41 1.5.42 1.49.43 1.49.45 1.49.45 1.48.47 1.48.49 1.47.49 1.47.51 1.46.51 1.46.53 1.45.55 1.45.55 1.44.57 1.44.58 1.43.59 1.43.61 1.42.61 1.42.63 1.42.64 1.41.66 1.4.66 1.4.68 1.4.69 1.39.7 1.38.72 1.38.72 1.38.74 1.37.75 1.37.77 1.36.77 1.36.79 1.35.8 1.35.81 1.34.83 1.34.83 1.33.85 1.33.86 1.32.88 1.32.88 1.32.9 1.31.91 1.3.93 1.3.93 1.29.95 1.29.96 1.29.97 1.28.98 1.28 1 1.27 1.01 1.26 1.02 1.26 1.03 1.26 1.05 1.25 1.06 1.25 1.07 1.24 1.08 1.24" style="stroke-width:1.07;stroke:#000000;stroke-opacity:0.10;stroke-linecap:butt"/><path d="m383.61 381.13-1.17-1.13-1.17-1.13-1.18-1.12-1.18-1.12-1.18-1.11-1.18-1.11-1.19-1.1-1.19-1.1-1.19-1.08-1.2-1.09-1.2-1.07-1.2-1.07-1.21-1.07-1.21-1.06-1.21-1.05-1.22-1.05-1.21-1.04-1.23-1.04-1.22-1.03-1.23-1.02-1.23-1.02-1.23-1.01-1.24-1.01-1.24-1-1.25-1-1.24-.99-1.25-.98-1.26-.98-1.25-.97-1.26-.97-1.27-.96-1.26-.95-1.27-.95-1.27-.94-1.28-.94-1.28-.93-1.28-.93-1.28-.92-1.29-.91-1.29-.91-1.3-.9-1.29-.89-1.3-.89-1.31-.89-1.3-.88-1.31-.87-1.32-.87-1.31-.86-1.32-.85-1.32-.85-1.33-.85-1.33-.83-1.33-.84-1.34-.82-1.33-.82-1.34-.82-1.35-.81-1.35-.8-1.35-.8-1.35-.79-1.36-.78-1.36-.78-1.36-.77-1.37-.77-1.37-.76-1.37-.76-1.38-.75-1.38-.75-1.38-.73-1.38-.74-1.39-.72-1.39-.72-1.4-.72-1.4-.71-1.4-.7-1.4-.7-1.41-.69-1.41-.69-1.41-.68-1.42-.67-1.42-.67-1.42-.66-1.43-.66-1.43-.65-1.43-.65-1.43-.64-1.44-.63-1.45-.63-1.44-.62-1.45-.62-1.45-.61-1.45-.6-1.46-.6-1.46-.59-1.47-.59-1.46-.58-1.47-.57-1.48-.57-1.47-.57m130.92 84.09.01 1.66.02 1.65.04 1.64.04 1.65.05 1.64.07 1.63.07 1.63.08 1.63.09 1.63.1 1.62.11 1.61.12 1.62.13 1.61.14 1.6.15 1.6.15 1.6.17 1.6.18 1.59.18 1.58.2 1.59.2 1.58.22 1.57.22 1.57.24 1.57.24 1.57.25 1.56.27 1.56.27 1.55.28 1.55.29 1.55.3 1.54.31 1.54.32 1.53.33 1.53.34 1.53.35 1.52.35 1.52.37 1.52.38 1.51.38 1.51.4 1.51.41 1.5.41 1.5.43 1.49.43 1.49.44 1.49.46 1.48.46 1.48.47 1.48.48 1.47.49 1.47.5 1.46.51 1.46.52 1.46.53 1.45.54 1.45.55 1.45.56 1.44.57 1.44.57 1.43.59 1.43.59 1.43.61 1.42.62 1.42.62 1.42.63 1.41.65 1.41.65 1.4.66 1.41.68 1.39.68 1.4.69 1.39.7 1.38.71 1.39.72 1.37.73 1.38.74 1.37.75 1.37.76 1.36.76 1.36.78 1.36.79 1.35.79 1.35.81 1.35.81 1.34.83 1.34.83 1.33.85 1.33.85 1.33.86 1.32.87 1.32.89 1.32.89 1.31.9 1.31.91 1.3.92 1.3.93 1.3.94 1.29.95 1.29" style="stroke-width:1.07;stroke:#000000;stroke-opacity:0.10;stroke-linecap:butt"/><path d="m383.61 381.13-1.25-.99-1.25-.99-1.24-.98-1.25-.99-1.26-.98-1.25-.98-1.25-.97-1.26-.97-1.26-.97-1.26-.97-1.26-.96-1.26-.96-1.27-.96-1.26-.95-1.27-.96-1.27-.94-1.27-.95-1.27-.94-1.28-.94-1.27-.94-1.28-.93-1.28-.93-1.28-.93-1.28-.93-1.28-.92-1.29-.92-1.28-.92-1.29-.91-1.29-.91-1.29-.91-1.29-.9-1.3-.9-1.29-.9-1.3-.9-1.3-.89-1.3-.89-1.3-.89-1.3-.88-1.31-.89-1.31-.87-1.3-.88-1.31-.87-1.32-.87-1.31-.87-1.31-.86-1.32-.86-1.32-.86-1.32-.86-1.32-.85-1.32-.85-1.32-.85-1.33-.84-1.33-.84-1.33-.84-1.33-.83-1.33-.84-1.33-.82-1.34-.83-1.33-.82-1.34-.82-1.34-.82-1.34-.82-1.34-.81-1.35-.81-1.34-.8-1.35-.8-1.35-.8-1.35-.8-1.35-.79-1.36-.8-1.35-.78-1.36-.79-1.36-.78-1.36-.78-1.36-.78-1.36-.77-1.37-.77-1.37-.77-1.36-.76-1.37-.77-1.37-.75-1.38-.76-1.37-.75-1.38-.75-1.37-.75-1.38-.75-1.38-.74-1.39-.74-1.38-.73-1.39-.73-1.38-.73-1.39-.73-1.39-.73-1.39-.72-1.4-.71-1.39-.72-1.4-.71-1.39-.71-1.4-.71m130.92 84.09.14 1.61.16 1.59.16 1.6.17 1.6.17 1.59.19 1.59.19 1.58.19 1.58.2 1.59.21 1.57.22 1.58.22 1.57.23 1.57.24 1.57.24 1.56.25 1.57.26 1.56.26 1.55.27 1.56.28 1.55.28 1.55.3 1.54.29 1.55.31 1.54.31 1.53.32 1.54.32 1.53.33 1.53.34 1.53.35 1.53.35 1.52.36 1.52.37 1.51.37 1.52.38 1.51.38 1.51.4 1.51.4 1.5.4 1.5.42 1.5.42 1.49.43 1.5.43 1.49.44 1.49.45 1.48.45 1.48.46 1.48.47 1.48.48 1.47.48 1.48.49 1.47.49 1.46.5 1.47.51 1.46.52 1.46.52 1.45.53 1.45.54 1.46.54 1.44.55 1.45.55 1.44.57 1.44.57 1.44.58 1.43.58 1.43.59 1.43.6 1.43.6 1.42.61 1.43.62 1.41.62 1.42.64 1.41.63 1.41.65 1.41.65 1.41.66 1.4.67 1.4.67 1.4.68 1.39.68 1.39.7 1.39.69 1.39.71 1.39.71 1.38.72 1.38.73 1.37.73 1.38.74 1.37.75 1.36.76 1.37.76 1.36.76 1.36.78 1.36.78 1.36.79 1.35.79 1.35.8 1.34.81 1.35.82 1.34M158.4 422.32l1.07-1.16 1.06-1.16 1.07-1.17 1.06-1.17 1.05-1.17 1.06-1.17 1.05-1.18 1.05-1.18 1.05-1.17 1.05-1.19 1.04-1.18 1.04-1.19 1.04-1.18 1.04-1.19 1.03-1.19 1.04-1.2 1.02-1.19 1.03-1.2 1.03-1.2 1.02-1.21 1.02-1.2 1.02-1.21 1.01-1.21 1.02-1.21 1.01-1.21 1.01-1.21 1-1.22 1.01-1.22 1-1.22 1-1.23.99-1.22 1-1.23.99-1.23.99-1.23.99-1.23.98-1.24.99-1.24.98-1.24.97-1.24.98-1.25.97-1.24.97-1.25.97-1.25.97-1.25.96-1.26.97-1.26.96-1.26.95-1.26.96-1.26.95-1.27.95-1.26.95-1.27.94-1.28.95-1.27.94-1.28.93-1.27.94-1.28.93-1.29.93-1.28.93-1.29.93-1.29.92-1.29.93-1.29.92-1.29.91-1.3.92-1.3.91-1.3.91-1.3.91-1.31.9-1.31.91-1.31.9-1.31.9-1.31.89-1.32.9-1.32.89-1.32.89-1.32.88-1.32.89-1.33.88-1.33.88-1.33.88-1.33.87-1.34.88-1.33.87-1.34.86-1.34.87-1.35.86-1.34.86-1.35.86-1.35.86-1.35.85-1.35.86-1.36.84-1.36.85-1.36.85-1.36.84-1.36.84-1.37.84-1.37m130.92 84.09 1.44-.25 1.44-.25 1.44-.26 1.44-.26 1.43-.27 1.44-.26 1.44-.27 1.43-.28 1.44-.27 1.43-.28 1.44-.29 1.43-.28 1.43-.29 1.43-.29 1.43-.3 1.43-.3 1.43-.3 1.43-.3 1.43-.31 1.43-.31 1.42-.32 1.43-.31 1.42-.32 1.43-.33 1.42-.32 1.42-.33 1.42-.33 1.42-.34 1.42-.34 1.42-.34 1.42-.35 1.42-.34 1.42-.35 1.41-.36 1.42-.36 1.41-.36 1.42-.36 1.41-.37 1.41-.37 1.42-.37 1.41-.37 1.41-.38 1.41-.38 1.41-.39 1.4-.39 1.41-.39 1.41-.39 1.4-.4 1.41-.4 1.4-.41 1.41-.4 1.4-.41 1.4-.42 1.4-.41 1.41-.42 1.39-.42 1.4-.43 1.4-.43 1.4-.43 1.4-.43 1.39-.44 1.4-.44 1.39-.45 1.4-.44 1.39-.45 1.39-.46 1.4-.45 1.39-.46 1.39-.46 1.39-.47 1.38-.47 1.39-.47 1.39-.48 1.39-.47 1.38-.48 1.39-.49 1.38-.49 1.39-.49 1.38-.49 1.38-.5 1.38-.5 1.38-.5 1.38-.5 1.38-.51 1.38-.52 1.38-.51 1.37-.52 1.38-.52 1.38-.53 1.37-.52 1.37-.53 1.38-.54 1.37-.53 1.37-.54 1.37-.55 1.37-.54 1.37-.55 1.37-.56 1.37-.55" style="stroke-width:1.07;stroke:#000000;stroke-opacity:0.10;stroke-linecap:butt"/><path d="m383.61 381.13.28 1.55.28 1.55.29 1.55.3 1.54.29 1.55.31 1.54.3 1.54.31 1.54.32 1.54.31 1.53.33 1.53.32 1.54.33 1.53.34 1.53.34 1.52.34 1.53.35 1.52.35 1.53.35 1.52.36 1.52.36 1.52.37 1.51.37 1.52.38 1.51.38 1.51.38 1.51.39 1.51.39 1.51.4 1.5.4 1.51.4 1.5.41 1.5.41 1.5.42 1.5.42 1.49.42 1.49.43 1.5.43 1.49.44 1.49.44 1.49.45 1.48.45 1.49.45 1.48.46 1.48.46 1.48.46 1.48.47 1.47.47 1.48.48 1.47.48 1.47.49 1.48.49 1.46.49 1.47.5 1.47.5 1.46.51 1.46.51 1.46.51 1.46.52 1.46.52 1.46.53 1.45.53 1.45.54 1.45.54 1.45.54 1.45.55 1.45.55 1.44.55 1.44.56 1.45.56 1.44.57 1.43.57 1.44.58 1.44.58 1.43.58 1.43.59 1.43.59 1.43.6 1.43.6 1.42.6 1.43.61 1.42.61 1.42.62 1.42.62 1.42.62 1.41.63 1.42.64 1.41.63 1.41.64 1.41.65 1.41.65 1.41.65 1.4.66 1.4.66 1.41.66 1.4.67 1.39.68 1.4.68 1.4.68 1.39M158.4 422.32l.96-1.26.95-1.27.95-1.26.95-1.27.95-1.26.96-1.27.95-1.26.95-1.27.95-1.27.96-1.26.95-1.27.95-1.26.95-1.27.96-1.26.95-1.27.95-1.26.95-1.27.96-1.26.95-1.27.95-1.27.95-1.26.95-1.27.96-1.26.95-1.27.95-1.26.95-1.27.96-1.26.95-1.27.95-1.26.95-1.27.96-1.27.95-1.26.95-1.27.95-1.26.96-1.27.95-1.26.95-1.27.95-1.26.95-1.27.96-1.26.95-1.27.95-1.27.95-1.26.96-1.27.95-1.26.95-1.27.95-1.26.96-1.27.95-1.26.95-1.27.95-1.27.96-1.26.95-1.27.95-1.26.95-1.27.95-1.26.96-1.27.95-1.26.95-1.27.95-1.26.96-1.27.95-1.27.95-1.26.95-1.27.96-1.26.95-1.27.95-1.26.95-1.27.96-1.26.95-1.27.95-1.26.95-1.27.96-1.27.95-1.26.95-1.27.95-1.26.95-1.27.96-1.26.95-1.27.95-1.26.95-1.27.96-1.26.95-1.27.95-1.27.95-1.26.96-1.27.95-1.26.95-1.27.95-1.26.96-1.27.95-1.26.95-1.27.95-1.27.95-1.26.96-1.27.95-1.26.95-1.27.95-1.26.96-1.27" style="stroke-width:1.07;stroke:#000000;stroke-opacity:0.10;stroke-linecap:butt"/><path d="m158.4 422.32.84-1.36.84-1.37.84-1.36.85-1.37.84-1.36.85-1.35.86-1.36.85-1.35.86-1.36.85-1.35.87-1.34.86-1.35.86-1.34.87-1.34.87-1.34.88-1.34.87-1.33.88-1.34.88-1.33.88-1.32.88-1.33.89-1.33.89-1.32.89-1.32.9-1.32.89-1.31.9-1.32.9-1.31.9-1.31.91-1.3.91-1.31.91-1.3.91-1.3.92-1.3.91-1.3.92-1.3.92-1.29.93-1.29.93-1.29.92-1.28.94-1.29.93-1.28.94-1.28.93-1.28.94-1.27.95-1.28.94-1.27.95-1.27.95-1.27.95-1.26.96-1.27.95-1.26.96-1.26.97-1.25.96-1.26.97-1.25.96-1.25.98-1.25.97-1.25.97-1.24.98-1.24.98-1.24.99-1.24.98-1.24.99-1.23.99-1.23.99-1.23 1-1.23.99-1.23 1-1.22 1-1.22 1.01-1.22 1-1.22 1.01-1.21 1.01-1.22 1.02-1.21 1.01-1.21 1.02-1.2 1.02-1.21 1.02-1.2 1.03-1.2 1.02-1.2 1.03-1.2 1.04-1.19 1.03-1.19 1.04-1.19 1.04-1.19 1.04-1.18 1.04-1.19 1.05-1.18 1.05-1.18 1.05-1.18 1.05-1.17 1.05-1.17 1.06-1.18 1.06-1.16 1.06-1.17 1.07-1.17 1.07-1.16m130.92 84.09-1.33-.85-1.32-.85-1.32-.84-1.32-.85-1.33-.85-1.32-.85-1.32-.85-1.32-.85-1.33-.85-1.32-.85-1.32-.85-1.32-.85-1.33-.85-1.32-.85-1.32-.85-1.32-.85-1.33-.85-1.32-.85-1.32-.85-1.32-.84-1.32-.85-1.33-.85-1.32-.85-1.32-.85-1.32-.85-1.33-.85-1.32-.85-1.32-.85-1.32-.85-1.33-.85-1.32-.85-1.32-.85-1.32-.85-1.33-.85-1.32-.85-1.32-.85-1.32-.84-1.33-.85-1.32-.85-1.32-.85-1.32-.85-1.33-.85-1.32-.85-1.32-.85-1.32-.85-1.33-.85-1.32-.85-1.32-.85-1.32-.85-1.32-.85-1.33-.85-1.32-.85-1.32-.85-1.32-.84-1.33-.85-1.32-.85-1.32-.85-1.32-.85-1.33-.85-1.32-.85-1.32-.85-1.32-.85-1.33-.85-1.32-.85-1.32-.85-1.32-.85-1.33-.85-1.32-.85-1.32-.85-1.32-.85-1.33-.84-1.32-.85-1.32-.85-1.32-.85-1.33-.85-1.32-.85-1.32-.85-1.32-.85-1.33-.85-1.32-.85-1.32-.85-1.32-.85-1.32-.85-1.33-.85-1.32-.85-1.32-.85-1.32-.84-1.33-.85-1.32-.85-1.32-.85-1.32-.85-1.33-.85-1.32-.85-1.32-.85-1.32-.85-1.33-.85-1.32-.85-1.32-.85-1.32-.85m130.92 84.09.41 1.5.42 1.5.41 1.5.42 1.49.42 1.5.43 1.49.42 1.5.42 1.49.43 1.49.43 1.5.43 1.49.42 1.49.44 1.49.43 1.49.43 1.5.44 1.48.43 1.49.44 1.49.44 1.49.44 1.49.45 1.49.44 1.48.44 1.49.45 1.48.45 1.49.45 1.48.45 1.49.45 1.48.45 1.48.46 1.49.45 1.48.46 1.48.46 1.48.46 1.48.46 1.48.46 1.48.46 1.48.47 1.48.47 1.47.46 1.48.47 1.48.47 1.47.48 1.48.47 1.47.48 1.48.47 1.47.48 1.48.48 1.47.48 1.47.48 1.47.48 1.47.49 1.48.48 1.47.49 1.47.49 1.46.49 1.47.49 1.47.49 1.47.5 1.47.49 1.46.5 1.47.5 1.46.49 1.47.51 1.46.5 1.47.5 1.46.51 1.46.5 1.46.51 1.47.51 1.46.51 1.46.51 1.46.51 1.46.52 1.46.51 1.46.52 1.45.52 1.46.52 1.46.52 1.45.52 1.46.53 1.46.52 1.45.53 1.45.53 1.46.52 1.45.54 1.45.53 1.46.53 1.45.54 1.45.53 1.45.54 1.45.54 1.45.54 1.45.54 1.45.54 1.44.55 1.45.54 1.45.55 1.44.55 1.45" style="stroke-width:1.07;stroke:#000000;stroke-opacity:0.10;stroke-linecap:butt"/><path d="m339.61 171.4-.88 1.27-.88 1.27-.88 1.27-.88 1.27-.87 1.27-.88 1.27-.88 1.27-.88 1.26-.88 1.27-.87 1.27-.88 1.27-.88 1.27-.88 1.27-.88 1.27-.87 1.27-.88 1.27-.88 1.27-.88 1.27-.88 1.26-.87 1.27-.88 1.27-.88 1.27-.88 1.27-.88 1.27-.87 1.27-.88 1.27-.88 1.27-.88 1.27-.88 1.27-.87 1.26-.88 1.27-.88 1.27-.88 1.27-.87 1.27-.88 1.27-.88 1.27-.88 1.27-.88 1.27-.87 1.27-.88 1.27-.88 1.26-.88 1.27-.88 1.27-.87 1.27-.88 1.27-.88 1.27-.88 1.27-.88 1.27-.87 1.27-.88 1.27-.88 1.27-.88 1.26-.88 1.27-.87 1.27-.88 1.27-.88 1.27-.88 1.27-.88 1.27-.87 1.27-.88 1.27-.88 1.27-.88 1.27-.88 1.26-.87 1.27-.88 1.27-.88 1.27-.88 1.27-.88 1.27-.87 1.27-.88 1.27-.88 1.27-.88 1.27-.88 1.27-.87 1.26-.88 1.27-.88 1.27-.88 1.27-.88 1.27-.87 1.27-.88 1.27-.88 1.27-.88 1.27-.88 1.27-.87 1.27-.88 1.26-.88 1.27-.88 1.27-.88 1.27-.87 1.27-.88 1.27-.88 1.27-.88 1.27-.88 1.27-.87 1.27-.88 1.27-.88 1.26-.88 1.27-.88 1.27-.87 1.27" style="stroke-width:1.07;stroke:#000000;stroke-opacity:0.10;stroke-linecap:butt"/><path d="m383.61 381.13-1.4-.7-1.4-.71-1.4-.71-1.39-.72-1.4-.72-1.39-.72-1.39-.72-1.39-.73-1.38-.73-1.39-.73-1.38-.74-1.38-.74-1.38-.74-1.38-.74-1.38-.75-1.38-.75-1.37-.75-1.37-.76-1.37-.76-1.37-.76-1.37-.77-1.37-.76-1.36-.77-1.37-.78-1.36-.77-1.36-.78-1.36-.79-1.35-.78-1.36-.79-1.35-.79-1.36-.79-1.35-.8-1.35-.8-1.34-.8-1.35-.81-1.34-.81-1.35-.81-1.34-.81-1.34-.82-1.34-.82-1.33-.82-1.34-.83-1.33-.83-1.33-.83-1.33-.84-1.33-.83-1.33-.84-1.32-.85-1.33-.84-1.32-.85-1.32-.86-1.32-.85-1.32-.86-1.31-.86-1.32-.86-1.31-.87-1.31-.87-1.31-.87-1.31-.88-1.31-.88-1.3-.88-1.31-.88-1.3-.89-1.3-.89-1.3-.89-1.3-.9-1.29-.9-1.3-.9-1.29-.91-1.29-.9-1.29-.92-1.29-.91-1.28-.92-1.29-.91-1.28-.93-1.28-.92-1.28-.93-1.28-.93-1.28-.94-1.27-.93-1.28-.94-1.27-.94-1.27-.95-1.27-.95-1.26-.95-1.27-.95-1.26-.96-1.27-.96-1.26-.97-1.26-.96-1.26-.97-1.25-.97-1.26-.98-1.25-.98-1.25-.98-1.25-.98-1.25-.99-1.25-.99-1.24-.99m130.92 84.09.54 1.45.55 1.45.55 1.44.54 1.45.54 1.45.55 1.45.54 1.45.53 1.44.54 1.45.54 1.46.53 1.45.54 1.45.53 1.45.53 1.45.53 1.46.53 1.45.52 1.45.53 1.46.52 1.45.52 1.46.53 1.46.52 1.45.51 1.46.52 1.46.52 1.46.51 1.46.51 1.46.52 1.46.51 1.46.5 1.46.51 1.46.51 1.46.5 1.46.51 1.47.5 1.46.5 1.47.5 1.46.5 1.47.49 1.46.5 1.47.49 1.47.49 1.46.5 1.47.49 1.47.48 1.47.49 1.47.49 1.47.48 1.47.48 1.47.49 1.47.48 1.47.47 1.48.48 1.47.48 1.47.47 1.48.48 1.47.47 1.48.47 1.48.47 1.47.47 1.48.46 1.48.47 1.48.46 1.47.47 1.48.46 1.48.46 1.48.45 1.48.46 1.49.46 1.48.45 1.48.46 1.48.45 1.49.45 1.48.45 1.48.44 1.49.45 1.49.44 1.48.45 1.49.44 1.49.44 1.48.44 1.49.44 1.49.44 1.49.43 1.49.43 1.49.44 1.49.43 1.49.43 1.49.43 1.5.42 1.49.43 1.49.42 1.5.43 1.49.42 1.5.42 1.49.42 1.5.42 1.5.41 1.49.42 1.5M158.4 422.32l.73-1.47.72-1.46.74-1.47.73-1.46.74-1.45.75-1.45.75-1.45.76-1.44.76-1.44.76-1.43.77-1.43.78-1.42.78-1.43.78-1.41.79-1.41.79-1.41.8-1.41.8-1.4.81-1.39.81-1.39.82-1.39.82-1.38.82-1.38.83-1.38.84-1.37.84-1.37.84-1.36.85-1.36.86-1.35.86-1.35.86-1.34.87-1.34.87-1.34.88-1.33.88-1.33.89-1.33.89-1.32.89-1.31.91-1.31.9-1.31.91-1.31.92-1.29.92-1.3.92-1.29.93-1.29.93-1.28.94-1.28.94-1.27.95-1.27.95-1.27.96-1.26.96-1.25.97-1.26.97-1.25.98-1.24.98-1.24.98-1.24.99-1.23 1-1.23 1-1.22 1-1.22 1.01-1.21 1.01-1.22 1.02-1.2 1.02-1.2 1.03-1.2 1.03-1.2 1.04-1.19 1.04-1.18 1.04-1.18 1.06-1.18 1.05-1.17 1.06-1.17 1.07-1.17 1.07-1.16 1.07-1.15 1.08-1.16 1.08-1.14 1.09-1.15 1.09-1.14 1.1-1.13 1.1-1.13 1.11-1.13 1.11-1.12 1.12-1.12 1.12-1.12 1.12-1.11 1.13-1.1 1.14-1.1 1.14-1.1 1.14-1.09 1.15-1.09 1.16-1.09 1.15-1.08 1.17-1.07 1.17-1.08 1.17-1.06 1.17-1.07 1.19-1.06m-41.23-155.63.42 1.57.42 1.57.41 1.57.42 1.58.42 1.57.41 1.57.42 1.57.42 1.58.41 1.57.42 1.57.42 1.57.41 1.57.42 1.58.41 1.57.42 1.57.42 1.57.41 1.57.42 1.58.42 1.57.41 1.57.42 1.57.42 1.57.41 1.58.42 1.57.41 1.57.42 1.57.42 1.57.41 1.58.42 1.57.42 1.57.41 1.57.42 1.57.42 1.58.41 1.57.42 1.57.41 1.57.42 1.57.42 1.58.41 1.57.42 1.57.42 1.57.41 1.58.42 1.57.42 1.57.41 1.57.42 1.57.41 1.58.42 1.57.42 1.57.41 1.57.42 1.57.42 1.58.41 1.57.42 1.57.42 1.57.41 1.57.42 1.58.41 1.57.42 1.57.42 1.57.41 1.57.42 1.58.42 1.57.41 1.57.42 1.57.42 1.57.41 1.58.42 1.57.42 1.57.41 1.57.42 1.57.41 1.58.42 1.57.42 1.57.41 1.57.42 1.57.42 1.58.41 1.57.42 1.57.42 1.57.41 1.58.42 1.57.41 1.57.42 1.57.42 1.57.41 1.58.42 1.57.42 1.57.41 1.57.42 1.57.42 1.58.41 1.57.42 1.57.41 1.57.42 1.57.42 1.58.41 1.57.42 1.57.42 1.57m130.92 84.09 1.4-.4 1.41-.4 1.4-.41 1.4-.4 1.41-.4 1.4-.41 1.41-.4 1.4-.41 1.41-.4 1.4-.4 1.41-.41 1.4-.4 1.4-.4 1.41-.41 1.4-.4 1.41-.41 1.4-.4 1.41-.4 1.4-.41 1.41-.4 1.4-.4 1.4-.41 1.41-.4 1.4-.4 1.41-.41 1.4-.4 1.41-.41 1.4-.4 1.41-.4 1.4-.41 1.4-.4 1.41-.4 1.4-.41 1.41-.4 1.4-.41 1.41-.4 1.4-.4 1.41-.41 1.4-.4 1.4-.4 1.41-.41 1.4-.4 1.41-.4 1.4-.41 1.41-.4 1.4-.41 1.41-.4 1.4-.4 1.4-.41 1.41-.4 1.4-.4 1.41-.41 1.4-.4 1.41-.41 1.4-.4 1.41-.4 1.4-.41 1.4-.4 1.41-.4 1.4-.41 1.41-.4 1.4-.4 1.41-.41 1.4-.4 1.41-.41 1.4-.4 1.4-.4 1.41-.41 1.4-.4 1.41-.4 1.4-.41 1.41-.4 1.4-.41 1.41-.4 1.4-.4 1.4-.41 1.41-.4 1.4-.4 1.41-.41 1.4-.4 1.41-.4 1.4-.41 1.41-.4 1.4-.41 1.4-.4 1.41-.4 1.4-.41 1.41-.4 1.4-.4 1.41-.41 1.4-.4 1.41-.4 1.4-.41 1.41-.4 1.4-.41 1.4-.4 1.41-.4 1.4-.41 1.41-.4" style="stroke-width:1.07;stroke:#000000;stroke-opacity:0.10;stroke-linecap:butt"/><path d="m383.61 381.13.68 1.4.68 1.39.67 1.4.67 1.4.66 1.4.67 1.4.65 1.4.66 1.41.65 1.4.64 1.41.64 1.41.64 1.41.63 1.42.63 1.41.62 1.42.62 1.41.62 1.42.61 1.42.61 1.43.61 1.42.6 1.43.59 1.42.59 1.43.59 1.43.59 1.43.57 1.44.58 1.43.57 1.44.57 1.44.56 1.44.56 1.44.56 1.44.55 1.45.55 1.44.54 1.45.54 1.45.53 1.45.53 1.45.53 1.46.52 1.45.52 1.46.51 1.46.51 1.46.51 1.46.5 1.47.5 1.46.49 1.47.49 1.47.49 1.47.48 1.47.48 1.47.47 1.48.47 1.48.47 1.47.46 1.48.46 1.49.45 1.48.45 1.48.44 1.49.44 1.49.44 1.49.43 1.49.43 1.49.43 1.49.42 1.5.41 1.5.41 1.5.41 1.5.41 1.5.4 1.5.39 1.51.39 1.5.39 1.51.39 1.51.37 1.51.38 1.52.37 1.51.37 1.52.36 1.52.36 1.52.36 1.52.35 1.52.34 1.52.35 1.53.34 1.53.33 1.53.33 1.53.33 1.53.32 1.53.32 1.54.31 1.54.31 1.53.31 1.55.3 1.54.3 1.54.29 1.55.29 1.54.29 1.55.28 1.55M158.4 422.32l.61-1.57.62-1.57.62-1.56.63-1.56.63-1.54.65-1.55.65-1.53.65-1.53.67-1.53.67-1.51.68-1.52.68-1.5.7-1.5.7-1.49.7-1.49.72-1.48.72-1.47.72-1.47.74-1.46.74-1.45.75-1.45.76-1.44.76-1.44.77-1.43.77-1.42.79-1.42.79-1.41.8-1.4.8-1.4.81-1.39.82-1.39.83-1.38.83-1.37.84-1.37.85-1.36.85-1.35.86-1.35.87-1.34.88-1.33.88-1.33.89-1.32.89-1.32.91-1.31.91-1.3.91-1.3.93-1.29.93-1.28.94-1.28.94-1.27.96-1.27.96-1.26.96-1.25.98-1.25.98-1.24.98-1.23 1-1.23 1-1.22 1.01-1.22 1.01-1.21 1.03-1.2 1.03-1.19 1.03-1.19 1.05-1.19 1.05-1.17 1.05-1.18 1.07-1.16 1.07-1.16 1.08-1.15 1.09-1.15 1.09-1.14 1.1-1.13 1.1-1.13 1.12-1.12 1.12-1.11 1.13-1.11 1.13-1.1 1.14-1.1 1.15-1.08 1.16-1.09 1.16-1.07 1.17-1.07 1.18-1.07 1.18-1.05 1.2-1.06 1.19-1.04 1.21-1.04 1.21-1.03 1.22-1.03 1.23-1.02 1.23-1.01 1.24-1.01 1.25-1 1.25-.99 1.26-.99 1.27-.98 1.28-.98 1.28-.97 1.29-.96 1.3-.96m130.92 84.09-1.48-.56-1.47-.57-1.47-.57-1.47-.59-1.46-.58-1.47-.6-1.45-.59-1.46-.61-1.45-.61-1.45-.61-1.44-.63-1.44-.62-1.44-.64-1.44-.64-1.43-.64-1.43-.65-1.43-.66-1.42-.66-1.42-.67-1.42-.68-1.41-.68-1.41-.68-1.41-.69-1.4-.7-1.4-.71-1.4-.7-1.39-.72-1.4-.72-1.38-.73-1.39-.73-1.38-.74-1.38-.74-1.38-.75-1.37-.76-1.37-.76-1.37-.77-1.36-.77-1.36-.78-1.36-.79-1.35-.79-1.35-.8-1.35-.8-1.34-.81-1.34-.81-1.34-.82-1.34-.83-1.33-.83-1.33-.84-1.32-.84-1.33-.85-1.31-.86-1.32-.86-1.31-.86-1.31-.88-1.31-.87-1.3-.89-1.3-.89-1.3-.9-1.3-.9-1.29-.91-1.28-.91-1.29-.92-1.28-.92-1.28-.93-1.27-.94-1.28-.94-1.27-.95-1.26-.96-1.26-.96-1.26-.96-1.26-.98-1.25-.97-1.25-.99-1.25-.99-1.24-.99-1.25-1-1.23-1.01-1.24-1.01-1.23-1.02-1.23-1.03-1.22-1.03-1.22-1.03-1.22-1.04-1.22-1.05-1.21-1.06-1.21-1.05-1.21-1.07-1.2-1.07-1.2-1.08-1.19-1.08-1.2-1.09-1.19-1.09-1.19-1.1-1.18-1.11-1.18-1.11-1.18-1.12-1.17-1.12-1.18-1.13-1.16-1.14" style="stroke-width:1.07;stroke:#000000;stroke-opacity:0.10;stroke-linecap:butt"/><path d="m383.61 381.13.81 1.35.81 1.34.8 1.35.8 1.35.78 1.35.79 1.35.77 1.36.77 1.36.76 1.36.75 1.37.75 1.37.74 1.37.73 1.37.73 1.38.72 1.38.71 1.38.71 1.38.7 1.39.69 1.39.69 1.39.68 1.4.67 1.39.66 1.4.66 1.41.65 1.4.65 1.41.64 1.41.63 1.41.62 1.42.62 1.42.61 1.42.61 1.42.59 1.43.59 1.43.59 1.43.58 1.44.57 1.43.56 1.44.56 1.45.54 1.44.55 1.45.53 1.45.53 1.45.53 1.46.51 1.46.51 1.46.5 1.46.5 1.47.49 1.47.48 1.47.47 1.47.47 1.48.46 1.48.46 1.48.44 1.49.44 1.49.44 1.49.43 1.49.42 1.5.41 1.49.41 1.5.4 1.51.39 1.5.39 1.51.37 1.52.38 1.51.36 1.52.36 1.52.35 1.52.35 1.52.34 1.53.33 1.53.33 1.53.31 1.54.32 1.54.3 1.54.3 1.54.29 1.55.28 1.55.28 1.55.27 1.55.26 1.56.26 1.56.25 1.56.25 1.57.23 1.56.23 1.57.22 1.58.22 1.57.21 1.58.2 1.58.2 1.58.19 1.59.18 1.59.17 1.59.17 1.59.16 1.6.16 1.6.15 1.6m-47.68-145.71-1.56-.42-1.55-.43-1.54-.43-1.54-.45-1.53-.46-1.53-.46-1.53-.47-1.52-.49-1.52-.49-1.51-.5-1.5-.5-1.5-.52-1.5-.53-1.49-.53-1.49-.54-1.48-.56-1.48-.56-1.47-.57-1.47-.57-1.47-.59-1.46-.6-1.45-.6-1.45-.61-1.45-.63-1.44-.63-1.43-.64-1.43-.64-1.43-.66-1.42-.67-1.42-.67-1.41-.68-1.41-.7-1.4-.7-1.4-.71-1.39-.71-1.39-.73-1.38-.74-1.38-.74-1.37-.75-1.37-.77-1.37-.77-1.36-.78-1.35-.79-1.36-.79-1.34-.81-1.34-.81-1.34-.83-1.33-.83-1.33-.84-1.32-.85-1.32-.86-1.31-.86-1.31-.88-1.3-.88-1.3-.9-1.3-.9-1.29-.91-1.28-.92-1.28-.93-1.28-.93-1.27-.95-1.26-.95-1.26-.97-1.26-.97-1.25-.98-1.25-.99-1.24-1-1.24-1-1.23-1.02-1.23-1.02-1.22-1.04-1.22-1.04-1.22-1.05-1.2-1.06-1.21-1.07-1.2-1.07-1.19-1.09-1.19-1.09-1.19-1.11-1.18-1.11-1.18-1.12-1.17-1.13-1.17-1.14-1.16-1.14-1.16-1.16-1.15-1.16-1.15-1.18-1.14-1.18-1.14-1.19-1.13-1.2-1.13-1.21-1.12-1.21-1.12-1.23-1.12-1.23-1.11-1.25-1.11-1.25-1.1-1.26-1.09-1.27-1.09-1.28" style="stroke-width:1.07;stroke:#000000;stroke-opacity:0.10;stroke-linecap:butt"/><path d="m383.61 381.13.94 1.29.94 1.3.93 1.29.92 1.3.91 1.31.91 1.31.89 1.31.88 1.31.87 1.32.86 1.33.86 1.32.84 1.33.84 1.34.82 1.34.82 1.34.8 1.34.8 1.35.78 1.36.78 1.35.77 1.36.76 1.37.74 1.36.74 1.37.73 1.38.72 1.38.71 1.38.7 1.39.7 1.39.68 1.39.67 1.4.66 1.4.66 1.4.64 1.41.63 1.42.63 1.41.61 1.42.61 1.42.59 1.43.59 1.43.58 1.44.57 1.44.55 1.44.55 1.44.54 1.45.53 1.46.52 1.45.51 1.46.5 1.47.49 1.47.48 1.47.48 1.47.46 1.48.45 1.49.44 1.48.44 1.49.42 1.5.42 1.49.4 1.51.4 1.5.39 1.51.37 1.51.37 1.52.36 1.52.35 1.52.33 1.53.33 1.53.32 1.54.31 1.54.3 1.54.29 1.54.29 1.55.27 1.56.26 1.56.25 1.56.25 1.56.23 1.57.22 1.57.22 1.58.2 1.58.2 1.58.19 1.59.17 1.59.17 1.59.16 1.6.15 1.6.13 1.61.13 1.61.12 1.61.11 1.62.1 1.62.09 1.62.09 1.63.07 1.63.06 1.64.05 1.64.04 1.64.04 1.65.02 1.65.02 1.65m-47.68-145.71 1.36-.55 1.37-.55 1.37-.55 1.37-.55 1.37-.54 1.37-.54 1.38-.54 1.37-.53 1.37-.53 1.38-.53 1.37-.53 1.38-.52 1.38-.52 1.37-.51 1.38-.51 1.38-.51 1.38-.51 1.38-.5 1.38-.5 1.39-.5 1.38-.49 1.38-.49 1.39-.49 1.38-.48 1.39-.48 1.38-.48 1.39-.48 1.39-.47 1.39-.47 1.39-.46 1.39-.47 1.39-.46 1.39-.45 1.39-.45 1.4-.45 1.39-.45 1.39-.45 1.4-.44 1.4-.43 1.39-.44 1.4-.43 1.4-.43 1.4-.42 1.4-.43 1.4-.42 1.4-.41 1.4-.41 1.41-.41 1.4-.41 1.4-.41 1.41-.4 1.41-.39 1.4-.4 1.41-.39 1.41-.39 1.41-.38 1.41-.38 1.41-.38 1.41-.38 1.41-.37 1.41-.37 1.42-.37 1.41-.36 1.41-.36 1.42-.36 1.42-.35 1.41-.35 1.42-.35 1.42-.35 1.42-.34 1.42-.34 1.42-.33 1.42-.33 1.43-.33 1.42-.33 1.42-.32 1.43-.32 1.42-.32 1.43-.31 1.43-.32 1.42-.3 1.43-.31 1.43-.3 1.43-.3 1.43-.29 1.43-.29 1.43-.29 1.44-.29 1.43-.28 1.43-.28 1.44-.28 1.44-.27 1.43-.27 1.44-.27 1.44-.26 1.44-.27 1.44-.25 1.44-.26 1.44-.25" style="stroke-width:1.07;stroke:#000000;stroke-opacity:0.10;stroke-linecap:butt"/><path d="m383.61 381.13 1.08 1.24 1.07 1.24 1.06 1.25 1.04 1.25 1.03 1.26 1.02 1.26 1.01 1.27 1 1.27.98 1.27.98 1.28.96 1.29.94 1.29.94 1.29.92 1.3.91 1.31.9 1.31.89 1.31.87 1.32.86 1.32.85 1.33.84 1.34.82 1.33.81 1.35.8 1.34.79 1.36.78 1.35.76 1.37.75 1.36.74 1.37.73 1.38.71 1.38.71 1.39.68 1.39.68 1.39.67 1.4.65 1.41.64 1.41.63 1.41.62 1.42.6 1.42.59 1.43.58 1.44.57 1.43.56 1.45.54 1.45.53 1.45.52 1.46.5 1.46.5 1.46.48 1.48.47 1.47.46 1.48.44 1.49.43 1.49.42 1.5.41 1.5.4 1.5.38 1.51.37 1.52.36 1.52.35 1.52.33 1.53.33 1.54.31 1.53.29 1.55.29 1.55.27 1.55.26 1.56.25 1.56.24 1.57.22 1.57.21 1.58.2 1.58.19 1.58.18 1.6.16 1.59.15 1.6.14 1.61.13 1.61.11 1.61.1 1.62.09 1.63.08 1.63.06 1.63.06 1.64.04 1.64.02 1.65.02 1.66v3.32l-.03 1.67-.03 1.67-.04 1.68-.06 1.68-.07 1.69-.08 1.69-.1 1.69-.1 1.7-.12 1.71M117.64 245.63l1.36.52 1.37.52 1.36.52 1.36.52 1.37.52 1.36.52 1.37.52 1.36.52 1.36.52 1.37.52 1.36.51 1.37.52 1.36.52 1.37.52 1.36.52 1.36.52 1.37.52 1.36.52 1.37.52 1.36.52 1.36.52 1.37.52 1.36.52 1.37.52 1.36.51 1.36.52 1.37.52 1.36.52 1.37.52 1.36.52 1.37.52 1.36.52 1.36.52 1.37.52 1.36.52 1.37.52 1.36.52 1.36.52 1.37.51 1.36.52 1.37.52 1.36.52 1.37.52 1.36.52 1.36.52 1.37.52 1.36.52 1.37.52 1.36.52 1.36.52 1.37.52 1.36.52 1.37.51 1.36.52 1.36.52 1.37.52 1.36.52 1.37.52 1.36.52 1.37.52 1.36.52 1.36.52 1.37.52 1.36.52 1.37.52 1.36.52 1.36.51 1.37.52 1.36.52 1.37.52 1.36.52 1.36.52 1.37.52 1.36.52 1.37.52 1.36.52 1.37.52 1.36.52 1.36.52 1.37.52 1.36.51 1.37.52 1.36.52 1.36.52 1.37.52 1.36.52 1.37.52 1.36.52 1.37.52 1.36.52 1.36.52 1.37.52 1.36.52 1.37.52 1.36.51 1.36.52 1.37.52 1.36.52 1.37.52" style="stroke-width:1.07;stroke:#000000;stroke-opacity:0.10;stroke-linecap:butt"/><path d="m158.4 414.63 6.67 11.54h-13.33zm225.21-41.93 7.3 12.65H376.3zm-44-203.51 1.91 3.32h-3.83zM211.46 139.2l1.92 3.31h-3.83zm-93.82 104.22 1.91 3.32h-3.83z" style="stroke-width:0.71;stroke:none;fill:#00BA38"/><circle cx="252.69" cy="297.04" r="6.76" style="stroke-width:0.71;stroke:none;fill:#F8766D"/><circle cx="53.35" cy="518.41" r="1.42" style="stroke-width:0.71;stroke:none;fill:#F8766D"/><path d="M425.86 532.26h10.85v-10.84h-10.85z" style="stroke-width:0.71;stroke:none;fill:#619CFF"/><circle cx="522.65" cy="341.17" r="3.31" style="stroke-width:0.71;stroke:none;fill:#F8766D"/><path d="m153.05 426.94 4.55-3.92m231.41-46.55-4.6 3.97m-49.92-204.42 4.32-3.9m-132.82-26.08 4.66-3.94m-87.81 98.83-4.41 3.99m139.66 47.46-4.6 3.96M58.14 517.08l-3.76 1.04m372.12 12.01 3.91-2.69m87.48-184.82 3.74-1.14" style="stroke-width:0.53;stroke:#BFBFBF"/><path d="M103.91 446.25h74.2-.08l.34-.01.34-.07.33-.13.3-.17.27-.22.23-.26.19-.29.13-.32.09-.34.02-.35h0V429.1h0l-.02-.35-.09-.33-.13-.32-.19-.3-.23-.26-.27-.22-.3-.17-.33-.12-.34-.07-.26-.02h-74.2l.26.02-.35-.02-.35.04-.33.1-.31.15-.29.2-.25.24-.21.28-.16.3-.11.33-.06.35v15.16-.17.35l.06.34.11.33.16.31.21.27.25.25.29.19.31.15.33.1.35.04z" style="stroke-width:0.53;fill:#FFFFFF;fill-opacity:0.50"/><text x="141.01" y="434.46" lengthAdjust="spacingAndGlyphs" style="font-size:5.69px;font-family:&quot;Liberation Sans&quot;" text-anchor="middle" textLength="71.33">GURSHAAN REAL ESTATE</text><text x="141.01" y="442.65" lengthAdjust="spacingAndGlyphs" style="font-size:5.69px;font-family:&quot;Liberation Sans&quot;" text-anchor="middle" textLength="9.8">INC</text><path d="M370.29 376.47h61.57l-.09-.01.35-.01.34-.07.33-.12.3-.18.27-.22.23-.26.18-.29.14-.32.08-.34.03-.34h0v-14.99h0l-.03-.35-.08-.34-.14-.32-.18-.29-.23-.26-.27-.22-.3-.18-.33-.12-.34-.07-.26-.01h-61.57l.26.01-.34-.01-.35.04-.33.1-.32.14-.28.2-.25.24-.21.28-.16.31-.11.33-.06.34-.01.18v14.99l.01-.18v.35l.06.34.11.33.16.31.21.28.25.24.28.2.32.15.33.09.35.04z" style="stroke-width:0.53;fill:#FFFFFF;fill-opacity:0.50"/><text x="401.08" y="364.67" lengthAdjust="spacingAndGlyphs" style="font-size:5.69px;font-family:&quot;Liberation Sans&quot;" text-anchor="middle" textLength="58.69">SHAAN REAL ESTATE</text><text x="401.08" y="372.87" lengthAdjust="spacingAndGlyphs" style="font-size:5.69px;font-family:&quot;Liberation Sans&quot;" text-anchor="middle" textLength="9.8">INC</text><path d="M290.15 187.14h74.2l-.08-.01.34-.01.35-.07.32-.12.3-.18.27-.22.23-.26.19-.29.13-.32.09-.34.02-.34h0v-6.8h0l-.02-.35-.09-.33-.13-.32-.19-.3-.23-.26-.27-.22-.3-.17-.32-.13-.35-.06-.26-.02h-74.2l.26.02-.35-.02-.35.04-.33.1-.31.15-.29.2-.25.24-.21.28-.16.3-.11.33-.06.35v6.97-.18.35l.06.34.11.33.16.31.21.28.25.24.29.2.31.15.33.09.35.04z" style="stroke-width:0.53;fill:#FFFFFF;fill-opacity:0.50"/><text x="327.25" y="183.54" lengthAdjust="spacingAndGlyphs" style="font-size:5.69px;font-family:&quot;Liberation Sans&quot;" text-anchor="middle" textLength="71.33">GURSHAAN REAL ESTATE</text><path d="M151.99 173.55h74.2-.08l.34-.02.35-.07.32-.12.3-.17.27-.22.23-.26.19-.3.13-.32.09-.34.02-.34h0V148.2h0l-.02-.34-.09-.34-.13-.32-.19-.29-.23-.27-.27-.21-.3-.18-.32-.12-.35-.07-.26-.02h-74.2l.26.02-.35-.02-.35.05-.33.09-.31.15-.29.2-.25.24-.21.28-.16.31-.11.33-.06.34v23.36-.18.35l.06.35.11.32.16.31.21.28.25.24.29.2.31.15.33.09.35.05z" style="stroke-width:0.53;fill:#FFFFFF;fill-opacity:0.50"/><text x="189.09" y="153.56" lengthAdjust="spacingAndGlyphs" style="font-size:5.69px;font-family:&quot;Liberation Sans&quot;" text-anchor="middle" textLength="71.33">GURSHAAN REAL ESTATE</text><text x="189.09" y="161.75" lengthAdjust="spacingAndGlyphs" style="font-size:5.69px;font-family:&quot;Liberation Sans&quot;" text-anchor="middle" textLength="49.62">INC, KHODE REAL</text><text x="189.09" y="169.95" lengthAdjust="spacingAndGlyphs" style="font-size:5.69px;font-family:&quot;Liberation Sans&quot;" text-anchor="middle" textLength="33.28">ESTATE LLC</text><path d="M105.51 240.93h49.33-.09l.35-.01.34-.07.33-.12.3-.18.27-.22.23-.26.18-.29.14-.32.08-.34.03-.35h0v-6.79h0l-.03-.35-.08-.34-.14-.32-.18-.29-.23-.26-.27-.22-.3-.17-.33-.13-.34-.07-.26-.01h-49.33l.26.01-.35-.01-.34.04-.34.1-.31.15-.29.19-.25.24-.21.28-.16.31-.11.33-.05.34-.01.18v6.79l.01-.17v.35l.05.34.11.33.16.31.21.28.25.24.29.19.31.15.34.1.34.04z" style="stroke-width:0.53;fill:#FFFFFF;fill-opacity:0.50"/><text x="130.18" y="237.33" lengthAdjust="spacingAndGlyphs" style="font-size:5.69px;font-family:&quot;Liberation Sans&quot;" text-anchor="middle" textLength="46.45">JASWANT SINGH</text><path d="M236.51 292.38h67.25-.09l.35-.02.34-.07.33-.12.3-.17.27-.22.23-.26.18-.3.14-.32.08-.34.03-.34h0v-14.99h0l-.03-.35-.08-.34-.14-.32-.18-.29-.23-.26-.27-.22-.3-.17-.33-.13-.34-.07-.26-.01h-67.25l.26.01-.35-.01-.35.04-.33.1-.31.15-.29.19-.25.24-.21.28-.16.31-.11.33-.06.34v15.17-.18.35l.06.35.11.33.16.3.21.28.25.24.29.2.31.15.33.09.35.05z" style="stroke-width:0.53;fill:#FFFFFF;fill-opacity:0.50"/><text x="270.13" y="280.58" lengthAdjust="spacingAndGlyphs" style="font-size:5.69px;font-family:&quot;Liberation Sans&quot;" text-anchor="middle" textLength="64.38">1049 W SUNRISE PASS,</text><text x="270.13" y="288.78" lengthAdjust="spacingAndGlyphs" style="font-size:5.69px;font-family:&quot;Liberation Sans&quot;" text-anchor="middle" textLength="60.67">OAK CREEK, WI 53154</text><path d="M60.3 526.65h64.93-.09l.35-.02.34-.07.32-.12.3-.18.27-.22.23-.26.19-.29.14-.32.08-.34.03-.34h0V509.5h0l-.03-.35-.08-.34-.14-.32-.19-.29-.23-.26-.27-.22-.3-.18-.32-.12-.34-.07-.26-.01H60.3l.26.01-.35-.01-.34.04-.34.1-.31.15-.29.19-.25.24-.21.28-.16.31-.11.33-.05.34-.01.18v14.99l.01-.18v.35l.05.34.11.33.16.31.21.28.25.24.29.2.31.15.34.09.34.05z" style="stroke-width:0.53;fill:#FFFFFF;fill-opacity:0.50"/><text x="92.76" y="514.85" lengthAdjust="spacingAndGlyphs" style="font-size:5.69px;font-family:&quot;Liberation Sans&quot;" text-anchor="middle" textLength="62.05">1049 W SUNSET PASS,</text><text x="92.76" y="523.05" lengthAdjust="spacingAndGlyphs" style="font-size:5.69px;font-family:&quot;Liberation Sans&quot;" text-anchor="middle" textLength="60.67">OAK CREEK, WI 53154</text><path d="M360.78 542.51h63.56-.09l.35-.02.34-.07.32-.12.3-.17.27-.22.23-.26.19-.3.14-.32.08-.34.03-.34h0v-14.99h0l-.03-.35-.08-.34-.14-.32-.19-.29-.23-.26-.27-.22-.3-.18-.32-.12-.34-.07-.26-.01h-63.56l.27.01-.35-.01-.35.04-.33.1-.32.15-.28.19-.25.24-.21.28-.16.31-.11.33-.06.34-.01.18v14.99l.01-.18v.35l.06.34.11.33.16.31.21.28.25.24.28.2.32.15.33.09.35.05z" style="stroke-width:0.53;fill:#FFFFFF;fill-opacity:0.50"/><text x="392.56" y="530.71" lengthAdjust="spacingAndGlyphs" style="font-size:5.69px;font-family:&quot;Liberation Sans&quot;" text-anchor="middle" textLength="57.42">1049 SUNRISE PASS,</text><text x="392.56" y="538.91" lengthAdjust="spacingAndGlyphs" style="font-size:5.69px;font-family:&quot;Liberation Sans&quot;" text-anchor="middle" textLength="60.67">OAK CREEK, WI 53154</text><path d="M452.17 352.38h63.56-.09l.35-.01.34-.07.32-.13.3-.17.27-.22.23-.26.19-.29.13-.32.09-.34.03-.35h0v-14.99h0l-.03-.35-.09-.33-.13-.32-.19-.3-.23-.26-.27-.22-.3-.17-.32-.12-.34-.07-.26-.02h-63.56l.26.02-.34-.02-.35.04-.33.1-.32.15-.28.2-.25.24-.21.28-.16.3-.11.33-.06.35-.01.17v14.99l.01-.17v.35l.06.34.11.33.16.31.21.27.25.25.28.19.32.15.33.1.35.04z" style="stroke-width:0.53;fill:#FFFFFF;fill-opacity:0.50"/><text x="483.95" y="340.59" lengthAdjust="spacingAndGlyphs" style="font-size:5.69px;font-family:&quot;Liberation Sans&quot;" text-anchor="middle" textLength="60.05">903 W RIVERSIDE DR,</text><text x="483.95" y="348.78" lengthAdjust="spacingAndGlyphs" style="font-size:5.69px;font-family:&quot;Liberation Sans&quot;" text-anchor="middle" textLength="60.67">OAK CREEK, WI 53154</text></g><g clip-path="url(#cpMC4wMHw1NzYuMDB8MC4wMHw1NzYuMDA=)"><circle cx="192.83" cy="97.06" r="1.95" style="stroke-width:0.71;stroke:none;fill:#F8766D"/><path d="m269.23 94.02 2.63 4.56h-5.26z" style="stroke-width:0.71;stroke:none;fill:#00BA38"/><path d="M335.23 99.01h3.91V95.1h-3.91z" style="stroke-width:0.71;stroke:none;fill:#619CFF"/><text x="206.95" y="100.22" lengthAdjust="spacingAndGlyphs" style="font-size:8.80px;font-weight:0;font-family:&quot;Nimbus Sans Narrow&quot;" textLength="48.16">mprop address</text><text x="283.35" y="100.22" lengthAdjust="spacingAndGlyphs" style="font-size:8.80px;font-weight:0;font-family:&quot;Nimbus Sans Narrow&quot;" textLength="39.72">owner name</text><text x="351.31" y="100.22" lengthAdjust="spacingAndGlyphs" style="font-size:8.80px;font-weight:0;font-family:&quot;Nimbus Sans Narrow&quot;" textLength="40.5">wdfi address</text><text x="29.89" y="65.35" lengthAdjust="spacingAndGlyphs" style="font-size:12.00px;font-weight:0;font-family:&quot;Nimbus Sans Narrow&quot;" textLength="252.11">includes 21 parcels, 40 units, and 5 distinct owner names.</text><text x="29.89" y="42.81" lengthAdjust="spacingAndGlyphs" style="font-size:18.00px;font-weight:0;font-family:&quot;Nimbus Sans Narrow&quot;" textLength="262.41">SHAAN REAL ESTATE INC etc Group</text></g></g></svg>