<svg xmlns="http://www.w3.org/2000/svg" width="768" height="768" viewBox="0 0 576 576"><g class="svglite"><defs><style><![CDATA[.svglite line,.svglite polyline,.svglite polygon,.svglite path,.svglite circle{fill:none;stroke:#000000;stroke-linecap:round;stroke-linejoin:round;stroke-miterlimit:10.00}.svglite text{white-space:pre}.svglite g.glyphgroup path{fill:inherit;stroke:none}]]></style></defs><rect width="100%" height="100%" style="stroke-linecap:round;stroke-linejoin:round;stroke-miterlimit:10.00;stroke:none;fill:#FFFFFF"/><defs><clipPath id="cpMC4wMHw1NzYuMDB8MC4wMHw1NzYuMDA="><path d="M0 0h576v576H0z"/></clipPath></defs><g clip-path="url(#cpMC4wMHw1NzYuMDB8MC4wMHw1NzYuMDA=)"><path d="M0 0h576v576H0z" style="stroke-width:1.07;stroke:none;fill:#FFFFFF"/></g><defs><clipPath id="cpMjkuODl8NTQ2LjExfDEyMi4xNHw1NDYuMTE="><path d="M29.89 122.14h516.22v423.97H29.89z"/></clipPath></defs><g clip-path="url(#cpMjkuODl8NTQ2LjExfDEyMi4xNHw1NDYuMTE=)"><path d="m178.59 385.76 1.43-.64 1.42-.65 1.42-.65 1.41-.66 1.41-.67 1.4-.67 1.39-.68 1.38-.68 1.38-.69 1.37-.7 1.37-.7 1.36-.71 1.35-.71 1.34-.72 1.34-.72 1.34-.73 1.32-.74 1.32-.74 1.32-.75 1.3-.75 1.3-.76 1.3-.76 1.28-.77 1.28-.78 1.28-.78 1.27-.79 1.26-.79 1.25-.8 1.25-.81 1.24-.81 1.24-.82 1.22-.82 1.23-.83 1.21-.83 1.21-.84 1.2-.85 1.2-.85 1.19-.86 1.18-.86 1.18-.87 1.17-.88 1.16-.88 1.16-.88 1.15-.9 1.14-.89 1.14-.91 1.13-.91 1.12-.91 1.12-.93 1.11-.92 1.1-.94 1.1-.93 1.09-.95 1.09-.95 1.08-.96 1.07-.96 1.06-.97 1.06-.97 1.06-.98 1.04-.98 1.04-1 1.03-.99 1.03-1 1.02-1.01 1.01-1.02 1.01-1.02 1-1.02.99-1.04.99-1.03.98-1.05.97-1.05.97-1.05.96-1.06.96-1.07.94-1.07.95-1.08.93-1.08.93-1.09.92-1.1.92-1.1.91-1.1.9-1.12.89-1.12.89-1.12.89-1.13.87-1.14.87-1.14.86-1.15.86-1.15.85-1.16.84-1.16.84-1.18.83-1.17.83-1.18.81-1.19.81-1.2.81-1.2.8-1.2.79-1.21m-109.99 91.79-1.26.6-1.27.6-1.26.6-1.27.6-1.26.6-1.27.6-1.27.6-1.26.6-1.27.6-1.26.6-1.27.59-1.26.6-1.27.6-1.26.6-1.27.6-1.26.6-1.27.6-1.26.6-1.27.6-1.26.6-1.27.6-1.26.6-1.27.6-1.26.6-1.27.6-1.26.59-1.27.6-1.26.6-1.27.6-1.26.6-1.27.6-1.26.6-1.27.6-1.26.6-1.27.6-1.26.6-1.27.6-1.26.6-1.27.6-1.26.59-1.27.6-1.26.6-1.27.6-1.26.6-1.27.6-1.26.6-1.27.6-1.26.6-1.27.6-1.26.6-1.27.6-1.26.6-1.27.6-1.26.59-1.27.6-1.26.6-1.27.6-1.26.6-1.27.6-1.26.6-1.27.6-1.26.6-1.27.6-1.26.6-1.27.6-1.26.6-1.27.6-1.26.6-1.27.59-1.26.6-1.27.6-1.26.6-1.27.6-1.26.6-1.27.6-1.26.6-1.27.6-1.26.6-1.27.6-1.26.6-1.27.6-1.26.6-1.27.59-1.26.6-1.27.6-1.26.6-1.27.6-1.26.6-1.27.6-1.26.6-1.27.6-1.26.6-1.27.6-1.26.6-1.27.6-1.26.6-1.27.59-1.26.6-1.27.6" style="stroke-width:1.07;stroke:#000000;stroke-opacity:0.10;stroke-linecap:butt"/><path d="m178.59 385.76 1.32-.74 1.32-.74 1.32-.74 1.31-.75 1.31-.75 1.3-.76 1.3-.76 1.29-.77 1.29-.77 1.29-.77 1.28-.78 1.27-.78 1.27-.78 1.27-.79 1.26-.79 1.26-.8 1.26-.79 1.25-.81 1.24-.81 1.25-.81 1.23-.81 1.24-.82 1.22-.82 1.23-.83 1.22-.83 1.21-.84 1.21-.83 1.21-.85 1.2-.84 1.2-.85 1.19-.86 1.19-.85 1.19-.86 1.18-.87 1.18-.87 1.17-.87 1.16-.88 1.17-.88 1.16-.88 1.15-.89 1.15-.9 1.15-.89 1.14-.9 1.14-.91 1.13-.9 1.13-.92 1.12-.91 1.12-.92 1.12-.92 1.11-.93 1.1-.93 1.11-.94 1.09-.94 1.1-.94 1.09-.95 1.08-.95 1.08-.95 1.08-.96 1.07-.96 1.07-.97 1.06-.97 1.06-.97 1.05-.98 1.05-.98 1.05-.98 1.04-.99 1.04-1 1.03-.99 1.03-1 1.02-1.01 1.02-1.01 1.02-1.01 1.01-1.02 1.01-1.02 1-1.02 1-1.03.99-1.03.99-1.03.98-1.04.98-1.05.98-1.04.97-1.06.97-1.05.96-1.06.96-1.06.96-1.07.95-1.07.94-1.07.94-1.08.94-1.08.93-1.09.93-1.09.93-1.09.92-1.1.91-1.1.91-1.11.91-1.1.9-1.12.9-1.11" style="stroke-width:1.07;stroke:#000000;stroke-opacity:0.10;stroke-linecap:butt"/><path d="m382.28 401.43-.57-1.33-.58-1.32-.59-1.32-.6-1.31-.6-1.31-.61-1.3-.62-1.3-.62-1.29-.64-1.29-.64-1.28-.65-1.28-.65-1.27-.67-1.27-.67-1.27-.68-1.25-.68-1.26-.7-1.25-.7-1.24-.71-1.24-.72-1.23-.72-1.23-.74-1.23-.74-1.21-.74-1.22-.76-1.21-.76-1.2-.77-1.2-.78-1.19-.79-1.19-.79-1.19-.8-1.18-.81-1.17-.82-1.17-.82-1.17-.84-1.16-.83-1.15-.85-1.15-.86-1.15-.86-1.14-.87-1.13-.88-1.13-.88-1.13-.9-1.12-.9-1.11-.9-1.11-.92-1.11-.92-1.1-.94-1.09-.93-1.09-.95-1.09-.95-1.08-.97-1.07-.97-1.07-.97-1.07-.99-1.06-.99-1.06-1-1.05-1.01-1.04-1.01-1.05-1.03-1.03-1.03-1.03-1.03-1.03-1.05-1.02-1.05-1.02-1.06-1.01-1.07-1-1.08-1.01-1.08-.99-1.09-.99-1.1-.99-1.11-.98-1.11-.98-1.13-.97-1.13-.97-1.13-.96-1.15-.96-1.15-.95-1.16-.95-1.17-.94-1.18-.94-1.18-.93-1.19-.93-1.2-.92-1.2-.91-1.22-.92-1.22-.91-1.23-.9-1.23-.9-1.25-.89-1.25-.89-1.26-.88-1.27-.88-1.27-.87-1.28-.87-1.29-.86-1.3-.86-1.31-.85-1.31-.85-1.32-.84m93.7 107.46-.68 1.26-.66 1.26-.65 1.26-.63 1.26-.63 1.26-.6 1.26-.6 1.26-.58 1.26-.57 1.26-.56 1.26-.54 1.26-.53 1.26-.51 1.26-.5 1.26-.49 1.26-.48 1.26-.46 1.26-.45 1.27-.43 1.26-.42 1.26-.41 1.26-.4 1.26-.38 1.27-.37 1.26-.35 1.26-.34 1.26-.33 1.27-.32 1.26-.3 1.26-.29 1.27-.27 1.26-.26 1.26-.25 1.27-.24 1.26-.22 1.27-.2 1.26-.2 1.27-.18 1.26-.17 1.27-.15 1.26-.14 1.27-.13 1.26-.12 1.27-.1 1.26-.08 1.27-.08 1.26-.06 1.27-.05 1.27-.03 1.26-.02 1.27-.01 1.27.01 1.26.02 1.27.03 1.27.05 1.27.06 1.26.07 1.27.08 1.27.1 1.27.12 1.27.12 1.27.14 1.26.16 1.27.16 1.27.18 1.27.2 1.27.2 1.27.22 1.27.23 1.27.25 1.27.26 1.27.27 1.27.29 1.27.3 1.27.31 1.27.33 1.27.34 1.27.36 1.28.36 1.27.38 1.27.4 1.27.4 1.27.42 1.27.44 1.28.44 1.27.46 1.27.48 1.27.49 1.28.5 1.27.51 1.27.53 1.28.54 1.27.55 1.27.57 1.28.58 1.27.59 1.28.61 1.27.62 1.28.64 1.27" style="stroke-width:1.07;stroke:#000000;stroke-opacity:0.10;stroke-linecap:butt"/><path d="m421.54 228.52-1.34.66-1.35.66-1.34.66-1.34.66-1.35.66-1.34.66-1.34.67-1.34.66-1.35.66-1.34.66-1.34.66-1.35.66-1.34.66-1.34.66-1.35.66-1.34.66-1.34.67-1.34.66-1.35.66-1.34.66-1.34.66-1.35.66-1.34.66-1.34.66-1.35.66-1.34.67-1.34.66-1.35.66-1.34.66-1.34.66-1.34.66-1.35.66-1.34.66-1.34.66-1.35.67-1.34.66-1.34.66-1.35.66-1.34.66-1.34.66-1.34.66-1.35.66-1.34.66-1.34.67-1.35.66-1.34.66-1.34.66-1.35.66-1.34.66-1.34.66-1.35.66-1.34.66-1.34.67-1.34.66-1.35.66-1.34.66-1.34.66-1.35.66-1.34.66-1.34.66-1.35.66-1.34.67-1.34.66-1.34.66-1.35.66-1.34.66-1.34.66-1.35.66-1.34.66-1.34.66-1.35.67-1.34.66-1.34.66-1.35.66-1.34.66-1.34.66-1.34.66-1.35.66-1.34.66-1.34.67-1.35.66-1.34.66-1.34.66-1.35.66-1.34.66-1.34.66-1.34.66-1.35.66-1.34.66-1.34.67-1.35.66-1.34.66-1.34.66-1.35.66-1.34.66-1.34.66-1.35.66-1.34.66-1.34.67m132.96-65.45 1.02-.88 1.02-.88 1.02-.88 1.02-.88 1.02-.88 1.02-.88 1.02-.88 1.02-.88 1.02-.88 1.02-.88 1.02-.88 1.02-.88 1.02-.88 1.03-.88 1.02-.88 1.02-.88 1.02-.88 1.02-.88 1.02-.88 1.02-.88 1.02-.88 1.02-.88 1.02-.88 1.02-.88 1.02-.88 1.02-.88 1.02-.88 1.02-.88 1.02-.88 1.02-.88 1.02-.88 1.02-.88 1.02-.88 1.02-.88 1.02-.88 1.02-.88 1.02-.88 1.02-.88 1.02-.88 1.03-.88 1.02-.88 1.02-.88 1.02-.88 1.02-.88 1.02-.88 1.02-.88 1.02-.88 1.02-.88 1.02-.88 1.02-.88 1.02-.88 1.02-.88 1.02-.88 1.02-.88 1.02-.88 1.02-.88 1.02-.88 1.02-.88 1.02-.88 1.02-.88 1.02-.88 1.02-.88 1.02-.88 1.02-.88 1.03-.88 1.02-.88 1.02-.87 1.02-.88 1.02-.88 1.02-.88 1.02-.88 1.02-.88 1.02-.88 1.02-.88 1.02-.88 1.02-.88 1.02-.88 1.02-.88 1.02-.88 1.02-.88 1.02-.88 1.02-.88 1.02-.88 1.02-.88 1.02-.88 1.02-.88 1.02-.88 1.02-.88 1.02-.88 1.02-.88 1.03-.88 1.02-.88 1.02-.88 1.02-.88 1.02-.88 1.02-.88 1.02-.88 1.02-.88 1.02-.88" style="stroke-width:1.07;stroke:#000000;stroke-opacity:0.10;stroke-linecap:butt"/><path d="m382.28 401.43-.7-1.24-.7-1.25-.71-1.24-.71-1.24-.72-1.23-.72-1.23-.73-1.23-.73-1.22-.74-1.22-.74-1.22-.75-1.21-.75-1.21-.76-1.21-.76-1.21-.77-1.2-.77-1.19-.78-1.2-.79-1.19-.79-1.19-.79-1.18-.8-1.18-.8-1.18-.81-1.17-.81-1.18-.82-1.16-.83-1.17-.83-1.16-.83-1.16-.84-1.15-.85-1.15-.85-1.15-.85-1.15-.86-1.14-.87-1.14-.87-1.13-.87-1.13-.88-1.13-.89-1.13-.89-1.12-.89-1.12-.9-1.11-.91-1.11-.91-1.11-.92-1.11-.92-1.1-.92-1.1-.93-1.09-.94-1.1-.94-1.08-.95-1.09-.95-1.08-.96-1.08-.96-1.08-.97-1.07-.97-1.07-.97-1.06-.99-1.07-.98-1.06-1-1.05-.99-1.05-1.01-1.05-1-1.05-1.02-1.04-1.01-1.04-1.03-1.04-1.02-1.03-1.04-1.03-1.04-1.03-1.04-1.02-1.05-1.02-1.05-1.01-1.06-1.02-1.06-1.01-1.07-1-1.07-1.01-1.08-1-1.09-.99-1.09-1-1.09-.99-1.1-.98-1.1-.99-1.11-.98-1.12-.97-1.12-.98-1.12-.97-1.13-.96-1.14-.97-1.14-.96-1.14-.96-1.15-.95-1.16-.95-1.16-.95-1.16-.94-1.17-.94-1.18-.94-1.18-.93-1.18-.93-1.2-.93-1.19-.92m93.7 107.46-.53 1.26-.52 1.26-.51 1.26-.5 1.27-.49 1.26-.48 1.26-.46 1.26-.46 1.26-.45 1.26-.43 1.26-.43 1.27-.42 1.26-.4 1.26-.4 1.26-.38 1.26-.38 1.27-.36 1.26-.35 1.26-.35 1.26-.33 1.27-.32 1.26-.31 1.26-.3 1.27-.29 1.26-.29 1.26-.27 1.27-.26 1.26-.24 1.27-.24 1.26-.23 1.26-.22 1.27-.21 1.26-.2 1.27-.18 1.26-.18 1.27-.17 1.26-.15 1.27-.15 1.26-.13 1.27-.13 1.26-.11 1.27-.11 1.26-.09 1.27-.08 1.27-.07 1.26-.07 1.27-.05 1.27-.04 1.26-.03 1.27-.02 1.27-.01 1.26v1.27l.01 1.27.02 1.26.03 1.27.04 1.27.05 1.27.07 1.26.07 1.27.08 1.27.1 1.27.1 1.27.11 1.26.13 1.27.13 1.27.15 1.27.16 1.27.16 1.27.18 1.27.19 1.27.19 1.27.21 1.27.22 1.27.23 1.26.24 1.27.25 1.27.26 1.28.27 1.27.28 1.27.29 1.27.3 1.27.31 1.27.33 1.27.33 1.27.34 1.27.35 1.27.37 1.27.37 1.28.39 1.27.39 1.27.41 1.27.41 1.27.43 1.27.44 1.28.44 1.27.46 1.27.47 1.27.48 1.28.49 1.27" style="stroke-width:1.07;stroke:#000000;stroke-opacity:0.10;stroke-linecap:butt"/><path d="m382.28 401.43-.82-1.16-.83-1.17-.82-1.16-.83-1.16-.84-1.16-.83-1.16-.84-1.16-.84-1.15-.84-1.15-.84-1.16-.85-1.15-.85-1.14-.85-1.15-.86-1.15-.85-1.14-.86-1.14-.87-1.14-.86-1.14-.87-1.13-.87-1.14-.87-1.13-.88-1.13-.88-1.13-.88-1.13-.88-1.13-.88-1.12-.89-1.13-.89-1.12-.9-1.12-.89-1.12-.9-1.12-.9-1.11-.9-1.11-.91-1.12-.91-1.11-.91-1.1-.91-1.11-.92-1.11-.92-1.1-.92-1.1-.92-1.1-.93-1.1-.92-1.1-.94-1.09-.93-1.1-.94-1.09-.93-1.09-.95-1.09-.94-1.09-.95-1.08-.95-1.09-.95-1.08-.95-1.08-.96-1.08-.96-1.07-.96-1.08-.96-1.07-.97-1.08-.97-1.07-.97-1.07-.98-1.06-.97-1.07-.98-1.06-.98-1.07-.99-1.06-.99-1.06-.99-1.05-.99-1.06-.99-1.05-1-1.06-1-1.05-1-1.05-1.01-1.04-1.01-1.05-1.01-1.04-1.01-1.05-1.01-1.04-1.02-1.04-1.02-1.04-1.02-1.03-1.03-1.04-1.03-1.03-1.03-1.03-1.03-1.03-1.04-1.03-1.03-1.02-1.05-1.03-1.04-1.02-1.04-1.02-1.05-1.02-1.05-1.02-1.06-1.02-1.05-1.01-1.06-1.01-1.06-1.02-1.07-1-1.06-1.01-1.07-1.01-1.07-1m93.7 107.46-.39 1.26-.37 1.27-.37 1.26-.36 1.26-.36 1.26-.35 1.27-.34 1.26-.33 1.26-.32 1.27-.32 1.26-.31 1.26-.31 1.27-.29 1.26-.29 1.26-.28 1.27-.27 1.26-.27 1.26-.26 1.27-.25 1.26-.24 1.27-.24 1.26-.23 1.26-.22 1.27-.21 1.26-.21 1.27-.2 1.26-.19 1.27-.18 1.26-.18 1.27-.17 1.26-.16 1.27-.15 1.26-.15 1.27-.14 1.26-.13 1.27-.13 1.26-.12 1.27-.11 1.26-.1 1.27-.09 1.27-.09 1.26-.08 1.27-.07 1.26-.07 1.27-.06 1.27-.05 1.26-.04 1.27-.04 1.27-.02 1.26-.02 1.27-.02 1.27v2.53l.01 1.27.01 1.26.03 1.27.03 1.27.04 1.27.04 1.26.06 1.27.06 1.27.07 1.27.07 1.27.09 1.26.09 1.27.09 1.27.11 1.27.11 1.27.12 1.26.13 1.27.14 1.27.14 1.27.15 1.27.16 1.27.16 1.27.17 1.27.18 1.27.19 1.26.19 1.27.21 1.27.21 1.27.21 1.27.23 1.27.23 1.27.24 1.27.25 1.27.25 1.27.26 1.27.27 1.27.28 1.27.28 1.27.29 1.27.3 1.27.31 1.28.31 1.27.32 1.27.33 1.27.33 1.27.35 1.27M178.59 385.76l1.22-.83 1.21-.83 1.22-.84 1.21-.84 1.21-.84 1.2-.84 1.21-.85 1.2-.84 1.2-.85 1.2-.85 1.19-.85 1.2-.86 1.19-.85 1.19-.86 1.18-.86 1.19-.86 1.18-.86 1.18-.87 1.18-.87 1.18-.86 1.17-.88 1.17-.87 1.17-.87 1.17-.88 1.17-.88 1.16-.88 1.16-.88 1.16-.89 1.16-.88 1.15-.89 1.15-.89 1.15-.9 1.15-.89 1.15-.9 1.14-.9 1.14-.9 1.14-.9 1.14-.9 1.13-.91 1.14-.91 1.13-.91 1.12-.91 1.13-.91 1.12-.92 1.13-.91 1.12-.92 1.11-.92 1.12-.93 1.11-.92 1.11-.93 1.11-.93 1.11-.93 1.1-.93 1.11-.94 1.1-.94 1.09-.93 1.1-.95 1.09-.94 1.09-.94 1.09-.95 1.09-.95 1.09-.95 1.08-.95 1.08-.96 1.08-.95 1.07-.96 1.08-.96 1.07-.96 1.07-.97 1.07-.96 1.06-.97 1.06-.97 1.07-.97 1.05-.97 1.06-.98 1.06-.98 1.05-.98 1.05-.98 1.05-.98 1.04-.99 1.05-.98 1.04-.99 1.04-.99 1.03-1 1.04-.99 1.03-1 1.03-1 1.03-1 1.03-1 1.02-1.01 1.02-1 1.02-1.01 1.02-1.01 1.01-1.01 1.02-1.02 1.01-1.01 1.01-1.02 1-1.02 1.01-1.02m93.7 107.46 1.38.46 1.38.45 1.38.45 1.38.45 1.38.45 1.39.44 1.38.45 1.39.44 1.38.43 1.39.44 1.38.43 1.39.43 1.39.43 1.39.42 1.39.42 1.39.42 1.39.42 1.4.41 1.39.42 1.39.4 1.4.41 1.4.41 1.39.4 1.4.4 1.4.4 1.4.39 1.4.39 1.4.39 1.4.39 1.4.39 1.4.38 1.41.38 1.4.38 1.41.37 1.4.37 1.41.37 1.41.37 1.41.37 1.4.36 1.41.36 1.42.36 1.41.35 1.41.36 1.41.35 1.42.34 1.41.35 1.42.34 1.41.34 1.42.34 1.42.34 1.42.33 1.42.33 1.42.33 1.42.33 1.42.32 1.42.32 1.43.32 1.42.31 1.42.32 1.43.31 1.43.31 1.42.3 1.43.31 1.43.3 1.43.3 1.43.29 1.43.3 1.43.29 1.44.29 1.43.28 1.43.29 1.44.28 1.44.28 1.43.27 1.44.28 1.44.27 1.44.27 1.44.26 1.44.27 1.44.26 1.44.26 1.45.26 1.44.25 1.44.25 1.45.25 1.45.25 1.44.24 1.45.24 1.45.24 1.45.24 1.45.23 1.45.24 1.45.23 1.45.22 1.46.23 1.45.22 1.46.22 1.45.22 1.46.21" style="stroke-width:1.07;stroke:#000000;stroke-opacity:0.10;stroke-linecap:butt"/><path d="m382.28 401.43-.24 1.27-.23 1.26-.23 1.26-.23 1.27-.22 1.26-.22 1.27-.21 1.26-.21 1.27-.2 1.26-.2 1.27-.2 1.26-.19 1.27-.18 1.26-.18 1.26-.18 1.27-.17 1.26-.17 1.27-.16 1.26-.16 1.27-.16 1.26-.15 1.27-.14 1.27-.14 1.26-.14 1.27-.13 1.26-.13 1.27-.12 1.26-.12 1.27-.11 1.26-.11 1.27-.11 1.26-.1 1.27-.1 1.27-.09 1.26-.09 1.27-.08 1.26-.08 1.27-.07 1.27-.07 1.26-.07 1.27-.06 1.26-.05 1.27-.06 1.27-.04 1.26-.05 1.27-.04 1.27-.03 1.26-.03 1.27-.02 1.27-.03 1.26-.01 1.27-.01 1.27-.01 1.26v3.81l.01 1.26.02 1.27.02 1.27.02 1.26.03 1.27.03 1.27.04 1.27.04 1.26.05 1.27.05 1.27.05 1.27.06 1.26.07 1.27.07 1.27.07 1.27.08 1.27.08 1.26.08 1.27.09 1.27.1 1.27.1 1.27.1 1.26.11 1.27.11 1.27.12 1.27.12 1.27.13 1.27.13 1.27.14 1.26.14 1.27.14 1.27.15 1.27.15 1.27.16 1.27.16 1.27.17 1.27.17 1.26.17 1.27.18 1.27.19 1.27.19 1.27.19 1.27.2 1.27M178.59 385.76l1.11-.92 1.11-.93 1.11-.93 1.11-.93 1.12-.92 1.11-.93 1.11-.93 1.11-.93 1.11-.92 1.11-.93 1.11-.93 1.11-.92 1.11-.93 1.11-.93 1.12-.93 1.11-.92 1.11-.93 1.11-.93 1.11-.93 1.11-.92 1.11-.93 1.11-.93 1.11-.92 1.11-.93 1.11-.93 1.12-.93 1.11-.92 1.11-.93 1.11-.93 1.11-.92 1.11-.93 1.11-.93 1.11-.93 1.11-.92 1.11-.93 1.12-.93 1.11-.93 1.11-.92 1.11-.93 1.11-.93 1.11-.92 1.11-.93 1.11-.93 1.11-.93 1.11-.92 1.12-.93 1.11-.93 1.11-.93 1.11-.92 1.11-.93 1.11-.93 1.11-.92 1.11-.93 1.11-.93 1.11-.93 1.12-.92 1.11-.93 1.11-.93 1.11-.92 1.11-.93 1.11-.93 1.11-.93 1.11-.92 1.11-.93 1.11-.93 1.12-.93 1.11-.92 1.11-.93 1.11-.93 1.11-.92 1.11-.93 1.11-.93 1.11-.93 1.11-.92 1.11-.93 1.12-.93 1.11-.92 1.11-.93 1.11-.93 1.11-.93 1.11-.92 1.11-.93 1.11-.93 1.11-.93 1.11-.92 1.12-.93 1.11-.93 1.11-.92 1.11-.93 1.11-.93 1.11-.93 1.11-.92 1.11-.93 1.11-.93 1.11-.93 1.12-.92 1.11-.93 1.11-.93 1.11-.92" style="stroke-width:1.07;stroke:#000000;stroke-opacity:0.10;stroke-linecap:butt"/><path d="m178.59 385.76 1-1.02 1.01-1.02 1.01-1.02 1.01-1.01 1.01-1.02 1.02-1.01 1.02-1.01 1.02-1.01 1.02-1.01 1.02-1 1.03-1 1.03-1 1.03-1 1.03-1 1.04-.99 1.03-1 1.04-.99 1.04-.99 1.05-.98 1.04-.99 1.05-.98 1.05-.98 1.05-.98 1.06-.98 1.05-.98 1.06-.97 1.06-.97 1.07-.97 1.06-.97 1.07-.97 1.07-.96 1.07-.96 1.08-.96 1.07-.96 1.08-.96 1.08-.95 1.08-.95 1.09-.95 1.09-.95 1.08-.95 1.1-.94 1.09-.95 1.1-.94 1.09-.94 1.1-.93 1.11-.94 1.1-.93 1.11-.93 1.11-.93 1.11-.93 1.11-.92 1.11-.93 1.12-.92 1.12-.92 1.12-.92 1.13-.91 1.12-.91 1.13-.92 1.13-.91 1.14-.9 1.13-.91 1.14-.9 1.14-.91 1.14-.9 1.14-.89 1.15-.9 1.15-.9 1.15-.89 1.15-.89 1.15-.89 1.16-.88 1.16-.89 1.16-.88 1.16-.88 1.17-.88 1.17-.88 1.17-.87 1.17-.88 1.17-.87 1.18-.87 1.18-.86 1.18-.87 1.18-.86 1.18-.86 1.19-.86 1.19-.86 1.19-.86 1.2-.85 1.19-.85 1.2-.85 1.2-.85 1.2-.85 1.21-.84 1.2-.84 1.21-.84 1.21-.84 1.22-.84 1.21-.83 1.22-.83m93.7 107.46-.95-1.08-.94-1.09-.95-1.08-.95-1.09-.94-1.09-.95-1.08-.95-1.09-.94-1.08-.95-1.09-.95-1.08-.94-1.09-.95-1.08-.95-1.09-.94-1.08-.95-1.09-.94-1.09-.95-1.08-.95-1.09-.94-1.08-.95-1.09-.95-1.08-.94-1.09-.95-1.08-.95-1.09-.94-1.09-.95-1.08-.95-1.09-.94-1.08-.95-1.09-.95-1.08-.94-1.09-.95-1.08-.94-1.09-.95-1.09-.95-1.08-.94-1.09-.95-1.08-.95-1.09-.94-1.08-.95-1.09-.95-1.08-.94-1.09-.95-1.09-.95-1.08-.94-1.09-.95-1.08-.95-1.09-.94-1.08-.95-1.09-.94-1.08-.95-1.09-.95-1.08-.94-1.09-.95-1.09-.95-1.08-.94-1.09-.95-1.08-.95-1.09-.94-1.08-.95-1.09-.95-1.08-.94-1.09-.95-1.09-.95-1.08-.94-1.09-.95-1.08-.94-1.09-.95-1.08-.95-1.09-.94-1.08-.95-1.09-.95-1.09-.94-1.08-.95-1.09-.95-1.08-.94-1.09-.95-1.08-.95-1.09-.94-1.08-.95-1.09-.95-1.08-.94-1.09-.95-1.09-.94-1.08-.95-1.09-.95-1.08-.94-1.09-.95-1.08-.95-1.09-.94-1.08-.95-1.09-.95-1.09-.94-1.08-.95-1.09-.95-1.08-.94-1.09-.95-1.08-.95-1.09-.94-1.08m93.7 107.46-.09 1.27-.1 1.26-.09 1.27-.09 1.27-.08 1.26-.09 1.27-.08 1.26-.09 1.27-.08 1.27-.08 1.26-.08 1.27-.08 1.26-.07 1.27-.07 1.27-.08 1.26-.07 1.27-.07 1.26-.07 1.27-.06 1.27-.07 1.26-.06 1.27-.07 1.27-.06 1.26-.06 1.27-.05 1.26-.06 1.27-.05 1.27-.06 1.26-.05 1.27-.05 1.27-.05 1.26-.05 1.27-.04 1.27-.05 1.26-.04 1.27-.04 1.26-.04 1.27-.04 1.27-.04 1.26-.03 1.27-.04 1.27-.03 1.26-.03 1.27-.03 1.27-.03 1.26-.03 1.27-.02 1.27-.02 1.26-.03 1.27-.02 1.27-.02 1.26-.01 1.27-.02 1.27-.02 1.26-.01 1.27-.01 1.27-.01 1.27-.01 1.26-.01 1.27v1.27l-.01 1.26v6.34l.01 1.27v1.26l.01 1.27.01 1.27.01 1.26.01 1.27.02 1.27.01 1.27.02 1.26.02 1.27.01 1.27.03 1.26.02 1.27.02 1.27.03 1.27.02 1.26.03 1.27.03 1.27.03 1.27.04 1.26.03 1.27.04 1.27.03 1.26.04 1.27.04 1.27.04 1.27.05 1.26.04 1.27.05 1.27.04 1.27.05 1.27.05 1.26.06 1.27m-75.95-355.25-.16 1.24-.15 1.23-.16 1.24-.16 1.23-.16 1.24-.16 1.24-.16 1.23-.16 1.24-.15 1.24-.16 1.23-.16 1.24-.16 1.23-.16 1.24-.16 1.24-.16 1.23-.16 1.24-.15 1.23-.16 1.24-.16 1.24-.16 1.23-.16 1.24-.16 1.23-.16 1.24-.15 1.24-.16 1.23-.16 1.24-.16 1.24-.16 1.23-.16 1.24-.16 1.23-.15 1.24-.16 1.24-.16 1.23-.16 1.24-.16 1.23-.16 1.24-.16 1.24-.16 1.23-.15 1.24-.16 1.24-.16 1.23-.16 1.24-.16 1.23-.16 1.24-.16 1.24-.15 1.23-.16 1.24-.16 1.23-.16 1.24-.16 1.24-.16 1.23-.16 1.24-.15 1.23-.16 1.24-.16 1.24-.16 1.23-.16 1.24-.16 1.24-.16 1.23-.15 1.24-.16 1.23-.16 1.24-.16 1.24-.16 1.23-.16 1.24-.16 1.23-.16 1.24-.15 1.24-.16 1.23-.16 1.24-.16 1.23-.16 1.24-.16 1.24-.16 1.23-.15 1.24-.16 1.24-.16 1.23-.16 1.24-.16 1.23-.16 1.24-.16 1.24-.15 1.23-.16 1.24-.16 1.23-.16 1.24-.16 1.24-.16 1.23-.16 1.24-.16 1.23-.15 1.24-.16 1.24-.16 1.23-.16 1.24-.16 1.24-.16 1.23-.16 1.24-.15 1.23-.16 1.24-.16 1.24" style="stroke-width:1.07;stroke:#000000;stroke-opacity:0.10;stroke-linecap:butt"/><path d="m382.28 401.43-1.07-1-1.07-1.01-1.07-1.01-1.06-1.01-1.06-1.01-1.06-1.01-1.06-1.02-1.05-1.01-1.05-1.02-1.05-1.02-1.04-1.02-1.05-1.02-1.04-1.03-1.04-1.02-1.03-1.03-1.03-1.03-1.04-1.03-1.02-1.04-1.03-1.03-1.02-1.04-1.02-1.03-1.02-1.04-1.01-1.04-1.02-1.05-1.01-1.04-1-1.05-1.01-1.05-1-1.04-1-1.06-1-1.05-.99-1.05-1-1.06-.99-1.06-.98-1.05-.99-1.07-.98-1.06-.98-1.06-.98-1.07-.97-1.07-.97-1.06-.97-1.08-.97-1.07-.96-1.07-.97-1.08-.95-1.07-.96-1.08-.96-1.08-.95-1.09-.95-1.08-.94-1.09-.95-1.08-.94-1.09-.94-1.09-.93-1.09-.94-1.1-.93-1.09-.93-1.1-.92-1.1-.93-1.1-.92-1.1-.92-1.11-.91-1.1-.91-1.11-.92-1.11-.9-1.11-.91-1.11-.9-1.11-.9-1.12-.9-1.11-.9-1.12-.89-1.12-.89-1.12-.89-1.13-.88-1.12-.89-1.13-.88-1.13-.88-1.13-.87-1.13-.87-1.13-.87-1.14-.87-1.13-.87-1.14-.86-1.14-.86-1.14-.86-1.15-.85-1.14-.85-1.15-.85-1.15-.85-1.15-.84-1.15-.85-1.15-.84-1.16-.83-1.15-.84-1.16-.83-1.16-.83-1.16-.83-1.16-.82-1.17-.82-1.16m93.7 107.46.05 1.27.05 1.27.05 1.27.05 1.26.04 1.27.05 1.27.04 1.27.04 1.26.04 1.27.04 1.27.04 1.27.04 1.26.03 1.27.03 1.27.03 1.27.03 1.26.03 1.27.03 1.27.02 1.26.03 1.27.02 1.27.02 1.27.02 1.26.02 1.27.01 1.27.02 1.26.01 1.27.01 1.27.02 1.27v1.26l.01 1.27.01 1.27v1.26l.01 1.27v3.8l-.01 1.27v1.27l-.01 1.26-.01 1.27v1.27l-.01 1.26-.02 1.27-.01 1.27-.01 1.26-.02 1.27-.02 1.27-.02 1.27-.02 1.26-.02 1.27-.02 1.27-.03 1.26-.03 1.27-.02 1.27-.03 1.26-.04 1.27-.03 1.27-.03 1.26-.04 1.27-.03 1.26-.04 1.27-.04 1.27-.04 1.26-.05 1.27-.04 1.27-.05 1.26-.05 1.27-.04 1.27-.05 1.26-.06 1.27-.05 1.27-.06 1.26-.05 1.27-.06 1.26-.06 1.27-.06 1.27-.06 1.26-.07 1.27-.06 1.27-.07 1.26-.07 1.27-.07 1.26-.07 1.27-.07 1.27-.07 1.26-.08 1.27-.08 1.26-.08 1.27-.08 1.27-.08 1.26-.08 1.27-.08 1.27-.09 1.26-.09 1.27-.09 1.26-.09 1.27-.09 1.26-.09 1.27M178.59 385.76l.9-1.11.9-1.12.91-1.11.91-1.1.91-1.1.92-1.1.93-1.09.93-1.09.93-1.09.94-1.08.94-1.08.94-1.07.95-1.07.96-1.07.96-1.06.96-1.06.97-1.06.97-1.05.97-1.04.98-1.05.99-1.04.99-1.03.99-1.03 1-1.03 1-1.03 1.01-1.02 1.01-1.01 1.02-1.01 1.02-1.01 1.02-1.01 1.03-1 1.03-1 1.04-.99 1.04-.99 1.04-.98 1.05-.98 1.06-.98 1.06-.98 1.06-.96 1.07-.97 1.07-.96 1.08-.96 1.08-.96 1.08-.95 1.09-.94 1.1-.95 1.09-.93 1.11-.94 1.1-.93 1.11-.93 1.12-.92 1.12-.92 1.12-.92 1.13-.91 1.13-.91 1.14-.9 1.14-.9 1.15-.9 1.15-.89 1.15-.89 1.16-.88 1.16-.88 1.17-.88 1.17-.87 1.18-.87 1.18-.87 1.19-.86 1.18-.86 1.2-.85 1.2-.85 1.2-.85 1.21-.84 1.21-.84 1.21-.83 1.22-.83 1.23-.83 1.22-.82 1.24-.82 1.23-.81 1.24-.82 1.25-.8 1.25-.81 1.26-.8 1.25-.79 1.27-.79 1.26-.79 1.28-.79 1.27-.78 1.28-.77 1.29-.78 1.29-.76 1.29-.77 1.3-.76 1.3-.76 1.31-.75 1.31-.75 1.31-.74 1.32-.75 1.33-.73m-92.91-106.56.94 1.07.94 1.08.94 1.08.93 1.07.94 1.08.94 1.08.94 1.07.94 1.08.94 1.07.93 1.08.94 1.08.94 1.07.94 1.08.94 1.08.94 1.07.94 1.08.93 1.08.94 1.07.94 1.08.94 1.07.94 1.08.94 1.08.93 1.07.94 1.08.94 1.08.94 1.07.94 1.08.94 1.08.94 1.07.93 1.08.94 1.07.94 1.08.94 1.08.94 1.07.94 1.08.94 1.08.93 1.07.94 1.08.94 1.08.94 1.07.94 1.08.94 1.07.93 1.08.94 1.08.94 1.07.94 1.08.94 1.08.94 1.07.94 1.08.93 1.07.94 1.08.94 1.08.94 1.07.94 1.08.94 1.08.93 1.07.94 1.08.94 1.08.94 1.07.94 1.08.94 1.07.94 1.08.93 1.08.94 1.07.94 1.08.94 1.08.94 1.07.94 1.08.93 1.08.94 1.07.94 1.08.94 1.07.94 1.08.94 1.08.94 1.07.93 1.08.94 1.08.94 1.07.94 1.08.94 1.08.94 1.07.93 1.08.94 1.07.94 1.08.94 1.08.94 1.07.94 1.08.94 1.08.93 1.07.94 1.08.94 1.08.94 1.07.94 1.08.94 1.07.93 1.08.94 1.08.94 1.07.94 1.08.94 1.08m93.7 107.46 1.42.34 1.41.33 1.42.34 1.42.33 1.42.34 1.42.34 1.41.33 1.42.34 1.42.33 1.42.34 1.42.33 1.41.34 1.42.34 1.42.33 1.42.34 1.41.33 1.42.34 1.42.33 1.42.34 1.42.34 1.41.33 1.42.34 1.42.33 1.42.34 1.42.33 1.41.34 1.42.33 1.42.34 1.42.34 1.41.33 1.42.34 1.42.33 1.42.34 1.42.33 1.41.34 1.42.34 1.42.33 1.42.34 1.42.33 1.41.34 1.42.33 1.42.34 1.42.34 1.41.33 1.42.34 1.42.33 1.42.34 1.42.33 1.41.34 1.42.33 1.42.34 1.42.34 1.42.33 1.41.34 1.42.33 1.42.34 1.42.33 1.41.34 1.42.34 1.42.33 1.42.34 1.42.33 1.41.34 1.42.33 1.42.34 1.42.33 1.42.34 1.41.34 1.42.33 1.42.34 1.42.33 1.42.34 1.41.33 1.42.34 1.42.34 1.42.33 1.41.34 1.42.33 1.42.34 1.42.33 1.42.34 1.41.34 1.42.33 1.42.34 1.42.33 1.42.34 1.41.33 1.42.34 1.42.33 1.42.34 1.41.34 1.42.33 1.42.34 1.42.33 1.42.34 1.41.33 1.42.34 1.42.34 1.42.33" style="stroke-width:1.07;stroke:#000000;stroke-opacity:0.10;stroke-linecap:butt"/><path d="m382.28 401.43.2 1.27.19 1.27.19 1.27.18 1.27.18 1.27.18 1.27.17 1.27.16 1.27.17 1.27.15 1.26.16 1.27.15 1.27.14 1.27.14 1.27.13 1.27.14 1.27.12 1.26.12 1.27.12 1.27.11 1.27.11 1.27.11 1.27.1 1.26.09 1.27.09 1.27.09 1.27.08 1.27.08 1.27.07 1.26.07 1.27.06 1.27.06 1.27.06 1.26.05 1.27.04 1.27.04 1.27.04 1.26.03 1.27.03 1.27.03 1.27.02 1.26.01 1.27.01 1.27.01 1.26v2.54l-.01 1.27-.01 1.26-.02 1.27-.02 1.27-.03 1.26-.02 1.27-.04 1.27-.04 1.26-.04 1.27-.05 1.27-.05 1.26-.06 1.27-.06 1.26-.06 1.27-.07 1.27-.08 1.26-.07 1.27-.09 1.26-.09 1.27-.09 1.27-.09 1.26-.1 1.27-.11 1.26-.11 1.27-.11 1.27-.12 1.26-.13 1.27-.12 1.26-.14 1.27-.13 1.26-.14 1.27-.15 1.26-.15 1.27-.15 1.26-.16 1.27-.17 1.26-.16 1.27-.18 1.26-.17 1.27-.18 1.26-.19 1.27-.19 1.26-.19 1.27-.2 1.26-.21 1.27-.2 1.26-.22 1.27-.21 1.26-.22 1.26-.23 1.27-.23 1.26-.23 1.27-.24 1.26M178.59 385.76l.79-1.21.8-1.2.8-1.2.81-1.2.82-1.19.83-1.18.83-1.18.83-1.17.85-1.16.85-1.16.85-1.16.87-1.14.87-1.14.87-1.14.89-1.13.89-1.13.89-1.11.9-1.12.91-1.1.92-1.11.92-1.09.93-1.09.93-1.08.94-1.08.95-1.07.96-1.07.96-1.06.96-1.06.98-1.05.98-1.04.99-1.04.99-1.03 1-1.02 1.01-1.02 1.01-1.02 1.02-1.01 1.03-1 1.03-1 1.04-.99 1.04-.98 1.06-.98 1.05-.98 1.07-.96 1.07-.97 1.08-.95 1.08-.95 1.1-.95 1.09-.94 1.11-.93 1.11-.93 1.12-.92 1.12-.91 1.13-.91 1.14-.91 1.14-.9 1.15-.89 1.16-.88 1.16-.89 1.17-.87 1.18-.87 1.18-.86 1.19-.86 1.2-.85 1.2-.85 1.21-.84 1.21-.83 1.22-.83 1.23-.82 1.24-.82 1.24-.81 1.25-.81 1.25-.8 1.26-.79 1.27-.79 1.27-.78 1.29-.78 1.28-.77 1.3-.76 1.3-.76 1.3-.76 1.32-.74 1.32-.74 1.32-.74 1.33-.73 1.34-.72 1.35-.72 1.35-.72 1.36-.7 1.37-.7 1.37-.7 1.38-.69 1.38-.68 1.39-.68 1.4-.67 1.41-.67 1.41-.66 1.41-.65 1.43-.65 1.43-.64" style="stroke-width:1.07;stroke:#000000;stroke-opacity:0.10;stroke-linecap:butt"/><path d="m382.28 401.43-1.2-.92-1.19-.93-1.18-.93-1.18-.93-1.18-.94-1.17-.94-1.17-.95-1.16-.94-1.15-.95-1.15-.96-1.15-.95-1.14-.96-1.13-.97-1.13-.96-1.13-.97-1.11-.98-1.12-.97-1.11-.99-1.1-.98-1.1-.99-1.1-.99-1.09-.99-1.08-.99-1.08-1-1.07-1.01-1.07-1-1.06-1.01-1.06-1.02-1.06-1.01-1.04-1.02-1.05-1.03-1.04-1.02-1.03-1.03-1.03-1.03-1.02-1.04-1.02-1.04-1.01-1.04-1.01-1.05-1-1.05-1-1.05-.99-1.06-.99-1.06-.98-1.06-.98-1.06-.97-1.07-.96-1.08-.97-1.07-.95-1.08-.95-1.08-.95-1.09-.94-1.09-.94-1.09-.93-1.09-.93-1.1-.92-1.1-.91-1.11-.91-1.11-.91-1.11-.9-1.12-.9-1.11-.89-1.13-.88-1.12-.88-1.13-.88-1.13-.87-1.14-.86-1.13-.86-1.15-.86-1.14-.85-1.15-.84-1.15-.84-1.15-.83-1.16-.83-1.16-.83-1.17-.82-1.17-.81-1.17-.81-1.17-.8-1.18-.8-1.18-.8-1.19-.79-1.18-.78-1.19-.78-1.2-.77-1.2-.77-1.2-.76-1.2-.76-1.21-.75-1.21-.75-1.21-.74-1.22-.74-1.22-.74-1.22-.72-1.23-.73-1.23-.71-1.24-.72-1.23-.7-1.24-.7-1.25-.7-1.24m93.7 107.46.34 1.27.34 1.27.33 1.28.32 1.27.31 1.27.31 1.27.29 1.27.3 1.27.28 1.27.28 1.27.26 1.27.27 1.27.25 1.27.25 1.27.24 1.27.23 1.27.22 1.27.22 1.27.21 1.27.2 1.27.2 1.27.18 1.27.18 1.27.17 1.27.17 1.26.16 1.27.15 1.27.14 1.27.13 1.27.13 1.27.12 1.27.12 1.27.1 1.26.1 1.27.09 1.27.08 1.27.08 1.27.07 1.26.06 1.27.05 1.27.05 1.27.04 1.26.03 1.27.02 1.27.02 1.27.01 1.26v1.27l-.01 1.27-.01 1.26-.02 1.27-.03 1.27-.04 1.26-.04 1.27-.05 1.27-.06 1.26-.06 1.27-.07 1.27-.08 1.26-.09 1.27-.1 1.26-.1 1.27-.11 1.26-.12 1.27-.12 1.27-.13 1.26-.14 1.27-.15 1.26-.15 1.27-.17 1.26-.17 1.27-.17 1.26-.19 1.27-.19 1.26-.2 1.27-.2 1.26-.22 1.26-.22 1.27-.23 1.26-.23 1.27-.25 1.26-.25 1.26-.26 1.27-.26 1.26-.27 1.27-.29 1.26-.28 1.26-.3 1.27-.3 1.26-.31 1.26-.32 1.27-.32 1.26-.34 1.26-.34 1.27-.34 1.26-.36 1.26-.36 1.26-.37 1.27-.38 1.26-.38 1.26" style="stroke-width:1.07;stroke:#000000;stroke-opacity:0.10;stroke-linecap:butt"/><path d="m382.28 401.43-1.32-.84-1.31-.85-1.31-.85-1.3-.86-1.29-.86-1.28-.87-1.28-.87-1.26-.88-1.26-.89-1.25-.88-1.25-.9-1.23-.89-1.23-.91-1.22-.9-1.22-.92-1.2-.91-1.2-.93-1.19-.92-1.19-.94-1.17-.93-1.17-.95-1.16-.94-1.15-.96-1.15-.95-1.14-.96-1.13-.97-1.12-.97-1.11-.98-1.11-.98-1.1-.99-1.09-.99-1.08-1-1.08-1-1.07-1-1.06-1.02-1.05-1.01-1.05-1.02-1.04-1.03-1.03-1.03-1.02-1.04-1.02-1.04-1-1.04-1-1.05-1-1.06-.98-1.06-.98-1.07-.97-1.07-.96-1.07-.95-1.08-.95-1.09-.94-1.09-.93-1.1-.92-1.1-.92-1.1-.91-1.11-.9-1.12-.89-1.12-.89-1.12-.87-1.13-.87-1.14-.87-1.14-.85-1.14-.85-1.15-.84-1.16-.83-1.16-.82-1.16-.82-1.17-.81-1.17-.8-1.18-.79-1.19-.79-1.19-.78-1.19-.77-1.2-.76-1.2-.76-1.21-.75-1.22-.74-1.22-.73-1.22-.72-1.23-.72-1.23-.71-1.24-.7-1.25-.7-1.24-.69-1.26-.67-1.26-.68-1.26-.66-1.27-.66-1.27-.64-1.28-.65-1.28-.63-1.29-.62-1.29-.62-1.3-.61-1.31-.61-1.3-.59-1.32-.59-1.31-.58-1.33-.57-1.32m93.7 107.46.49 1.28.48 1.27.46 1.27.46 1.27.45 1.28.43 1.27.43 1.27.42 1.27.4 1.27.4 1.28.38 1.27.38 1.27.36 1.27.35 1.27.35 1.27.33 1.27.32 1.28.31 1.27.31 1.27.29 1.27.28 1.27.27 1.27.26 1.27.25 1.27.24 1.27.23 1.27.21 1.27.21 1.27.2 1.27.19 1.27.17 1.26.17 1.27.16 1.27.14 1.27.14 1.27.12 1.27.12 1.27.1 1.27.09 1.26.09 1.27.07 1.27.06 1.27.05 1.26.05 1.27.03 1.27.02 1.27.01 1.26v1.27l-.01 1.27-.02 1.26-.03 1.27-.05 1.27-.05 1.26-.06 1.27-.07 1.27-.09 1.26-.09 1.27-.1 1.26-.12 1.27-.12 1.27-.14 1.26-.14 1.27-.16 1.26-.16 1.27-.18 1.26-.19 1.27-.2 1.26-.2 1.26-.22 1.27-.23 1.26-.24 1.27-.25 1.26-.26 1.26-.27 1.27-.28 1.26-.29 1.27-.3 1.26-.31 1.26-.33 1.27-.33 1.26-.34 1.26-.36 1.26-.36 1.27-.37 1.26-.39 1.26-.39 1.26-.41 1.27-.41 1.26-.43 1.26-.44 1.26-.44 1.26-.46 1.26-.47 1.27-.48 1.26-.49 1.26-.49 1.26-.51 1.26-.52 1.26-.53 1.26m2.05-125.41 1.46.22 1.45.21 1.46.22 1.45.23 1.45.22 1.46.23 1.45.23 1.45.23 1.45.23 1.45.24 1.45.24 1.44.24 1.45.25 1.45.24 1.44.25 1.45.25 1.44.26 1.44.25 1.45.26 1.44.27 1.44.26 1.44.27 1.44.27 1.44.27 1.43.27 1.44.28 1.44.28 1.43.28 1.44.28 1.43.29 1.43.29 1.43.29 1.44.29 1.43.3 1.43.3 1.42.3 1.43.3 1.43.31 1.43.31 1.42.31 1.43.31 1.42.32 1.42.31 1.43.32 1.42.33 1.42.32 1.42.33 1.42.33 1.42.34 1.42.33 1.41.34 1.42.34 1.42.34 1.41.35 1.41.35 1.42.35 1.41.35 1.41.36 1.41.35 1.41.36 1.41.37 1.41.36 1.41.37 1.4.37 1.41.37 1.4.38 1.41.37 1.4.38 1.41.39 1.4.38 1.4.39 1.4.39 1.4.39 1.4.4 1.4.39 1.39.4 1.4.41 1.4.4 1.39.41 1.4.41 1.39.41 1.39.42 1.39.41 1.4.42 1.39.42 1.39.43 1.38.43 1.39.42 1.39.44 1.39.43 1.38.44 1.39.44 1.38.44 1.38.44 1.39.45 1.38.45 1.38.45 1.38.45 1.38.46" style="stroke-width:1.07;stroke:#000000;stroke-opacity:0.10;stroke-linecap:butt"/><path d="m382.28 401.43.63 1.28.62 1.27.61 1.28.6 1.27.58 1.27.56 1.28.56 1.27.54 1.28.53 1.27.51 1.27.5 1.28.49 1.27.47 1.27.46 1.27.45 1.28.43 1.27.42 1.27.41 1.27.39 1.27.38 1.28.37 1.27.35 1.27.34 1.27.33 1.27.31 1.27.3 1.27.29 1.27.27 1.27.26 1.27.25 1.27.23 1.27.22 1.27.21 1.27.19 1.27.18 1.27.17 1.27.15 1.27.14 1.27.13 1.27.11 1.26.1 1.27.09 1.27.07 1.27.06 1.27.05 1.26.03 1.27.02 1.27v2.53l-.02 1.27-.04 1.27-.05 1.26-.06 1.27-.07 1.26-.09 1.27-.1 1.27-.11 1.26-.13 1.27-.14 1.26-.16 1.27-.16 1.26-.19 1.27-.19 1.26-.21 1.27-.22 1.26-.23 1.26-.25 1.27-.26 1.26-.28 1.27-.29 1.26-.3 1.26-.31 1.27-.33 1.26-.34 1.26-.36 1.26-.36 1.27-.39 1.26-.39 1.26-.41 1.26-.42 1.27-.44 1.26-.45 1.26-.46 1.26-.47 1.26-.49 1.26-.5 1.26-.52 1.26-.53 1.26-.54 1.27-.55 1.26-.57 1.26-.58 1.26-.6 1.26-.61 1.25-.62 1.26-.64 1.26-.65 1.26-.66 1.26-.67 1.26M147.79 272.88l1.42.21 1.42.21 1.43.22 1.42.21 1.42.21 1.42.22 1.42.21 1.43.21 1.42.22 1.42.21 1.42.21 1.42.21 1.43.22 1.42.21 1.42.21 1.42.22 1.42.21 1.43.21 1.42.22 1.42.21 1.42.21 1.43.21 1.42.22 1.42.21 1.42.21 1.42.22 1.43.21 1.42.21 1.42.22 1.42.21 1.42.21 1.43.21 1.42.22 1.42.21 1.42.21 1.42.22 1.43.21 1.42.21 1.42.22 1.42.21 1.43.21 1.42.21 1.42.22 1.42.21 1.42.21 1.43.22 1.42.21 1.42.21 1.42.22 1.42.21 1.43.21 1.42.21 1.42.22 1.42.21 1.43.21 1.42.22 1.42.21 1.42.21 1.42.22 1.43.21 1.42.21 1.42.21 1.42.22 1.42.21 1.43.21 1.42.22 1.42.21 1.42.21 1.42.22 1.43.21 1.42.21 1.42.21 1.42.22 1.43.21 1.42.21 1.42.22 1.42.21 1.42.21 1.43.22 1.42.21 1.42.21 1.42.21 1.42.22 1.43.21 1.42.21 1.42.22 1.42.21 1.43.21 1.42.22 1.42.21 1.42.21 1.42.21 1.43.22 1.42.21 1.42.21 1.42.22 1.42.21 1.43.21 1.42.22" style="stroke-width:1.07;stroke:#000000;stroke-opacity:0.10;stroke-linecap:butt"/><path d="m178.59 378.23 6.52 11.3h-13.04zm203.69 14.96 7.14 12.37h-14.28zm39.26-166.88 1.91 3.31h-3.82zm-117.26-56.93 1.92 3.32h-3.83zM195.67 185.2l1.91 3.31h-3.82zm-47.88 85.47 1.91 3.31h-3.83z" style="stroke-width:0.71;stroke:none;fill:#00BA38"/><circle cx="288.58" cy="293.97" r="6.76" style="stroke-width:0.71;stroke:none;fill:#F8766D"/><circle cx="53.35" cy="445.09" r="1.42" style="stroke-width:0.71;stroke:none;fill:#F8766D"/><path d="M374.92 532.14h10.61v-10.6h-10.61zm146.22-389.31h2.84v-2.84h-2.84z" style="stroke-width:0.71;stroke:none;fill:#619CFF"/><circle cx="522.65" cy="434.66" r="3.25" style="stroke-width:0.71;stroke:none;fill:#F8766D"/><path d="m173.24 390.38 4.54-3.92m209.9 10.31-4.59 3.97m33.24-167.51 4.42-4m-219.59-46.47-4.68 3.96m-43.53 81.49-4.37 3.95m145.35 17.19-4.54 3.92M58.18 445.44l-3.76-.27m320.94 85 3.99-2.73m138.37-387.91 3.84 1.49m-3.74 293.63 3.76.01" style="stroke-width:0.53;stroke:#BFBFBF"/><path d="M124.09 409.69h74.21-.09l.35-.02.34-.06.33-.13.3-.17.27-.22.23-.26.18-.3.14-.32.08-.33.03-.35h0v-14.99h0l-.03-.35-.08-.33-.14-.32-.18-.3-.23-.26-.27-.22-.3-.17-.33-.13-.34-.06-.26-.02h-74.21l.26.02-.34-.02-.35.04-.33.1-.32.15-.28.2-.25.24-.21.27-.16.31-.11.33-.06.35-.01.17v14.99l.01-.17v.34l.06.35.11.33.16.31.21.27.25.24.28.2.32.15.33.1.35.04z" style="stroke-width:0.53;fill:#FFFFFF;fill-opacity:0.50"/><text x="161.2" y="397.9" lengthAdjust="spacingAndGlyphs" style="font-size:5.69px;font-family:&quot;Liberation Sans&quot;" text-anchor="middle" textLength="71.33">GURSHAAN REAL ESTATE</text><text x="161.2" y="406.09" lengthAdjust="spacingAndGlyphs" style="font-size:5.69px;font-family:&quot;Liberation Sans&quot;" text-anchor="middle" textLength="9.8">INC</text><path d="M368.97 396.77h61.56l-.08-.01.34-.01.34-.07.33-.12.3-.18.27-.22.23-.26.19-.29.13-.32.09-.34.02-.34h0v-15h0l-.02-.34-.09-.34-.13-.32-.19-.29-.23-.26-.27-.22-.3-.18-.33-.12-.34-.07-.26-.02h-61.56l.26.02-.35-.01-.35.04-.33.09-.31.15-.29.2-.25.24-.21.28-.16.31-.11.33-.06.34v15.17-.18.35l.06.34.11.33.16.31.21.28.25.24.29.2.31.15.33.09.35.04z" style="stroke-width:0.53;fill:#FFFFFF;fill-opacity:0.50"/><text x="399.75" y="384.97" lengthAdjust="spacingAndGlyphs" style="font-size:5.69px;font-family:&quot;Liberation Sans&quot;" text-anchor="middle" textLength="58.69">SHAAN REAL ESTATE</text><text x="399.75" y="393.17" lengthAdjust="spacingAndGlyphs" style="font-size:5.69px;font-family:&quot;Liberation Sans&quot;" text-anchor="middle" textLength="9.8">INC</text><path d="M380.52 244.35h57.16l-.09-.01.35-.01.34-.07.33-.12.3-.18.27-.22.23-.26.18-.29.14-.32.08-.34.03-.34h0v-6.8h0l-.03-.35-.08-.34-.14-.32-.18-.29-.23-.26-.27-.22-.3-.17-.33-.13-.34-.07-.26-.01h-57.16l.26.01-.35-.01-.34.04-.34.1-.31.15-.29.2-.25.24-.21.27-.16.31-.11.33-.05.34-.01.18v6.8l.01-.18v.35l.05.34.11.33.16.31.21.28.25.24.29.2.31.14.34.1.34.04z" style="stroke-width:0.53;fill:#FFFFFF;fill-opacity:0.50"/><text x="409.1" y="240.75" lengthAdjust="spacingAndGlyphs" style="font-size:5.69px;font-family:&quot;Liberation Sans&quot;" text-anchor="middle" textLength="54.28">JESSE SPACES LLC</text><path d="M266.75 187.31h74.21-.08l.34-.02.34-.06.33-.13.3-.17.27-.22.23-.26.19-.3.13-.32.09-.33.02-.35h0v-6.8h0l-.02-.34-.09-.34-.13-.32-.19-.29-.23-.26-.27-.22-.3-.18-.33-.12-.34-.07-.26-.02h-74.21l.27.02-.35-.01-.35.04-.33.09-.32.15-.28.2-.25.24-.21.28-.16.31-.11.33-.06.34-.01.17v6.8l.01-.17v.34l.06.35.11.33.16.3.21.28.25.24.28.2.32.15.33.1.35.04z" style="stroke-width:0.53;fill:#FFFFFF;fill-opacity:0.50"/><text x="303.86" y="183.71" lengthAdjust="spacingAndGlyphs" style="font-size:5.69px;font-family:&quot;Liberation Sans&quot;" text-anchor="middle" textLength="71.33">GURSHAAN REAL ESTATE</text><path d="M180.97 182.76h74.21-.09l.35-.02.34-.07.32-.12.3-.17.27-.22.23-.26.19-.3.13-.32.09-.33.03-.35h0v-23.19h0l-.03-.34-.09-.34-.13-.32-.19-.29-.23-.26-.27-.22-.3-.18-.32-.12-.34-.07-.26-.02h-74.21l.26.02-.35-.01-.34.04-.34.09-.31.15-.29.2-.25.24-.21.28-.16.31-.11.33-.06.34v23.36-.17.34l.06.35.11.33.16.3.21.28.25.24.29.2.31.15.34.1.34.04z" style="stroke-width:0.53;fill:#FFFFFF;fill-opacity:0.50"/><text x="218.07" y="162.77" lengthAdjust="spacingAndGlyphs" style="font-size:5.69px;font-family:&quot;Liberation Sans&quot;" text-anchor="middle" textLength="71.33">GURSHAAN REAL ESTATE</text><text x="218.07" y="170.97" lengthAdjust="spacingAndGlyphs" style="font-size:5.69px;font-family:&quot;Liberation Sans&quot;" text-anchor="middle" textLength="49.62">INC, KHODE REAL</text><text x="218.07" y="179.16" lengthAdjust="spacingAndGlyphs" style="font-size:5.69px;font-family:&quot;Liberation Sans&quot;" text-anchor="middle" textLength="33.28">ESTATE LLC</text><path d="M135.5 268.21h49.33-.08l.34-.01.35-.07.32-.13.3-.17.27-.22.23-.26.19-.29.13-.32.09-.34.02-.35h0v-6.79h0l-.02-.35-.09-.34-.13-.32-.19-.29-.23-.26-.27-.22-.3-.17-.32-.13-.35-.07-.26-.01H135.5l.26.01-.35-.01-.34.04-.33.1-.32.15-.28.19-.26.24-.2.28-.17.31-.11.33-.05.34-.01.18v6.79l.01-.17v.35l.05.34.11.33.17.31.2.28.26.24.28.19.32.15.33.1.34.04z" style="stroke-width:0.53;fill:#FFFFFF;fill-opacity:0.50"/><text x="160.17" y="264.61" lengthAdjust="spacingAndGlyphs" style="font-size:5.69px;font-family:&quot;Liberation Sans&quot;" text-anchor="middle" textLength="46.45">JASWANT SINGH</text><path d="M272.34 289.35h67.25-.08l.34-.02.34-.07.33-.12.3-.18.27-.22.23-.26.19-.29.13-.32.08-.34.03-.34h0V272.2h0l-.03-.35-.08-.34-.13-.32-.19-.29-.23-.26-.27-.22-.3-.18-.33-.12-.34-.07-.26-.01h-67.25l.26.01-.35-.01-.34.04-.34.1-.31.15-.29.19-.25.24-.21.28-.16.31-.11.33-.06.34v15.17-.18.35l.06.34.11.33.16.31.21.28.25.24.29.2.31.15.34.09.34.05z" style="stroke-width:0.53;fill:#FFFFFF;fill-opacity:0.50"/><text x="305.96" y="277.55" lengthAdjust="spacingAndGlyphs" style="font-size:5.69px;font-family:&quot;Liberation Sans&quot;" text-anchor="middle" textLength="64.38">1049 W SUNRISE PASS,</text><text x="305.96" y="285.75" lengthAdjust="spacingAndGlyphs" style="font-size:5.69px;font-family:&quot;Liberation Sans&quot;" text-anchor="middle" textLength="60.67">OAK CREEK, WI 53154</text><path d="M60.34 455.1h64.93-.09l.35-.01.34-.07.33-.13.3-.17.27-.22.23-.26.18-.3.14-.31.08-.34.03-.35h0v-14.99h0l-.03-.35-.08-.33-.14-.32-.18-.3-.23-.26-.27-.22-.3-.17-.33-.12-.34-.07-.26-.02H60.34l.26.02-.34-.02-.35.04-.33.1-.32.15-.28.2-.25.24-.21.28-.16.3-.11.33-.06.35-.01.17v14.99l.01-.17v.34l.06.35.11.33.16.31.21.27.25.24.28.2.32.15.33.1.35.04z" style="stroke-width:0.53;fill:#FFFFFF;fill-opacity:0.50"/><text x="92.81" y="443.31" lengthAdjust="spacingAndGlyphs" style="font-size:5.69px;font-family:&quot;Liberation Sans&quot;" text-anchor="middle" textLength="62.05">1049 W SUNSET PASS,</text><text x="92.81" y="451.5" lengthAdjust="spacingAndGlyphs" style="font-size:5.69px;font-family:&quot;Liberation Sans&quot;" text-anchor="middle" textLength="60.67">OAK CREEK, WI 53154</text><path d="M309.64 542.51h63.56-.09l.35-.01.34-.07.32-.13.3-.17.27-.22.23-.26.19-.29.13-.32.09-.34.03-.35h0v-14.99h0l-.03-.35-.09-.33-.13-.32-.19-.3-.23-.26-.27-.22-.3-.17-.32-.12-.34-.07-.26-.02h-63.56l.26.02-.34-.02-.35.04-.33.1-.32.15-.28.2-.25.24-.21.28-.16.3-.11.33-.06.35-.01.17v14.99l.01-.17v.35l.06.34.11.33.16.31.21.27.25.25.28.19.32.15.33.1.35.04z" style="stroke-width:0.53;fill:#FFFFFF;fill-opacity:0.50"/><text x="341.42" y="530.72" lengthAdjust="spacingAndGlyphs" style="font-size:5.69px;font-family:&quot;Liberation Sans&quot;" text-anchor="middle" textLength="57.42">1049 SUNRISE PASS,</text><text x="341.42" y="538.91" lengthAdjust="spacingAndGlyphs" style="font-size:5.69px;font-family:&quot;Liberation Sans&quot;" text-anchor="middle" textLength="60.67">OAK CREEK, WI 53154</text><path d="M455.71 148.93h59.85-.09l.35-.01.34-.07.33-.13.3-.17.27-.22.23-.26.18-.3.14-.31.08-.34.03-.35h0v-14.99h0l-.03-.35-.08-.33-.14-.32-.18-.3-.23-.26-.27-.22-.3-.17-.33-.12-.34-.07-.26-.02h-59.85l.26.02-.35-.02-.34.04-.33.1-.32.15-.28.2-.26.24-.2.28-.17.3-.11.33-.05.35-.01.17v14.99l.01-.17v.35l.05.34.11.33.17.31.2.27.26.24.28.2.32.15.33.1.34.04z" style="stroke-width:0.53;fill:#FFFFFF;fill-opacity:0.50"/><text x="485.64" y="137.14" lengthAdjust="spacingAndGlyphs" style="font-size:5.69px;font-family:&quot;Liberation Sans&quot;" text-anchor="middle" textLength="56.97">3086 HOPEWELL DR,</text><text x="485.64" y="145.33" lengthAdjust="spacingAndGlyphs" style="font-size:5.69px;font-family:&quot;Liberation Sans&quot;" text-anchor="middle" textLength="49.38">AURORA, IL 60502</text><path d="M452.11 444.31h63.55-.08l.35-.02.34-.06.32-.13.3-.17.27-.22.23-.26.19-.3.13-.32.09-.33.02-.35h0v-14.99h0l-.02-.35-.09-.33-.13-.32-.19-.3-.23-.26-.27-.22-.3-.17-.32-.13-.34-.06-.27-.02h-63.55l.26.02-.34-.02-.35.04-.33.1-.32.15-.28.2-.25.24-.21.27-.16.31-.11.33-.06.35-.01.17v14.99l.01-.17v.34l.06.35.11.33.16.31.21.27.25.24.28.2.32.15.33.1.35.04z" style="stroke-width:0.53;fill:#FFFFFF;fill-opacity:0.50"/><text x="483.89" y="432.52" lengthAdjust="spacingAndGlyphs" style="font-size:5.69px;font-family:&quot;Liberation Sans&quot;" text-anchor="middle" textLength="60.05">903 W RIVERSIDE DR,</text><text x="483.89" y="440.71" lengthAdjust="spacingAndGlyphs" style="font-size:5.69px;font-family:&quot;Liberation Sans&quot;" text-anchor="middle" textLength="60.67">OAK CREEK, WI 53154</text></g><g clip-path="url(#cpMC4wMHw1NzYuMDB8MC4wMHw1NzYuMDA=)"><circle cx="192.83" cy="97.06" r="1.95" style="stroke-width:0.71;stroke:none;fill:#F8766D"/><path d="m269.23 94.02 2.63 4.56h-5.26z" style="stroke-width:0.71;stroke:none;fill:#00BA38"/><path d="M335.23 99.01h3.91V95.1h-3.91z" style="stroke-width:0.71;stroke:none;fill:#619CFF"/><text x="206.95" y="100.22" lengthAdjust="spacingAndGlyphs" style="font-size:8.80px;font-weight:0;font-family:&quot;Nimbus Sans Narrow&quot;" textLength="48.16">mprop address</text><text x="283.35" y="100.22" lengthAdjust="spacingAndGlyphs" style="font-size:8.80px;font-weight:0;font-family:&quot;Nimbus Sans Narrow&quot;" textLength="39.72">owner name</text><text x="351.31" y="100.22" lengthAdjust="spacingAndGlyphs" style="font-size:8.80px;font-weight:0;font-family:&quot;Nimbus Sans Narrow&quot;" textLength="40.5">wdfi address</text><text x="29.89" y="65.35" lengthAdjust="spacingAndGlyphs" style="font-size:12.00px;font-weight:0;font-family:&quot;Nimbus Sans Narrow&quot;" textLength="252.11">includes 22 parcels, 41 units, and 6 distinct owner names.</text><text x="29.89" y="42.81" lengthAdjust="spacingAndGlyphs" style="font-size:18.00px;font-weight:0;font-family:&quot;Nimbus Sans Narrow&quot;" textLength="262.41">SHAAN REAL ESTATE INC etc Group</text></g></g></svg>