<svg xmlns="http://www.w3.org/2000/svg" width="384" height="480" viewBox="0 0 288 360"><g class="svglite"><defs><style><![CDATA[.svglite line,.svglite polyline,.svglite polygon,.svglite path,.svglite circle{fill:none;stroke:#000000;stroke-linecap:round;stroke-linejoin:round;stroke-miterlimit:10.00}.svglite text{white-space:pre}.svglite g.glyphgroup path{fill:inherit;stroke:none}]]></style></defs><rect width="100%" height="100%" style="stroke-linecap:round;stroke-linejoin:round;stroke-miterlimit:10.00;stroke:none;fill:#FFFFFF"/><defs><clipPath id="cpMC4wMHwyODguMDB8MC4wMHwzNjAuMDA="><path d="M0 0h288v360H0z"/></clipPath></defs><g clip-path="url(#cpMC4wMHwyODguMDB8MC4wMHwzNjAuMDA=)"><path d="M0 0h288v360H0z" style="stroke-width:1.07;stroke:none;fill:#FFFFFF"/></g><defs><clipPath id="cpMjkuODl8MjU4LjExfDE2MS4wMnwzMzAuMTE="><path d="M29.89 161.02h228.22v169.09H29.89z"/></clipPath></defs><g clip-path="url(#cpMjkuODl8MjU4LjExfDE2MS4wMnwzMzAuMTE=)"><path d="m247.74 275.4-1.24-.2-1.24-.2-1.23-.2-1.24-.2-1.24-.2-1.23-.2-1.24-.21-1.24-.2-1.24-.2-1.23-.2-1.24-.2-1.24-.2-1.23-.2-1.24-.2-1.24-.2-1.23-.2-1.24-.2-1.24-.21-1.24-.2-1.23-.2-1.24-.2-1.24-.2-1.23-.2-1.24-.2-1.24-.2-1.24-.2-1.23-.2-1.24-.2-1.24-.21-1.23-.2-1.24-.2-1.24-.2-1.24-.2-1.23-.2-1.24-.2-1.24-.2-1.23-.2-1.24-.2-1.24-.2-1.23-.21-1.24-.2-1.24-.2-1.24-.2-1.23-.2-1.24-.2-1.24-.2-1.23-.2-1.24-.2-1.24-.2-1.24-.2-1.23-.21-1.24-.2-1.24-.2-1.23-.2-1.24-.2-1.24-.2-1.24-.2-1.23-.2-1.24-.2-1.24-.2-1.23-.2-1.24-.21-1.24-.2-1.23-.2-1.24-.2-1.24-.2-1.24-.2-1.23-.2-1.24-.2-1.24-.2-1.23-.2-1.24-.2-1.24-.21-1.24-.2-1.23-.2-1.24-.2-1.24-.2-1.23-.2-1.24-.2-1.24-.2-1.23-.2-1.24-.2-1.24-.21-1.24-.2-1.23-.2-1.24-.2-1.24-.2-1.23-.2-1.24-.2-1.24-.2-1.24-.2-1.23-.2-1.24-.2-1.24-.21-1.23-.2-1.24-.2-1.24-.2-1.24-.2-1.23-.2M87.8 168.7l-.02.97-.01.97v1.92l.01.96.02.96.03.96.03.95.05.95.05.95.06.95.07.95.08.94.08.95.1.94.1.94.11.94.12.93.12.94.14.93.14.93.15.93.16.92.16.93.18.92.18.92.19.92.2.92.21.92.21.91.23.91.23.91.24.91.25.91.25.9.27.9.27.9.28.9.29.9.3.9.3.89.31.89.33.89.33.89.33.88.35.89.35.88.36.88.38.88.37.88.39.87.39.88.41.87.41.87.42.86.43.87.43.86.44.87.46.86.46.85.46.86.48.86.48.85.5.85.5.85.51.85.51.84.53.84.53.85.54.84.55.83.56.84.57.83.57.84.58.83.59.83.6.82.61.83.61.82.63.82.63.82.64.82.64.82.66.81.66.81.67.81.68.81.69.81.7.8.7.81.71.8.73.8.72.79.74.8.75.79.75.8.76.79.77.78.78.79" style="stroke-width:1.07;stroke:#000000;stroke-opacity:0.10;stroke-linecap:butt"/><path d="m87.8 168.7.38.88.38.88.38.87.38.88.38.88.37.87.38.88.38.88.38.87.38.88.38.88.37.88.38.87.38.88.38.88.38.87.38.88.38.88.37.87.38.88.38.88.38.87.38.88.38.88.37.87.38.88.38.88.38.87.38.88.38.88.37.88.38.87.38.88.38.88.38.87.38.88.38.88.37.87.38.88.38.88.38.87.38.88.38.88.37.87.38.88.38.88.38.87.38.88.38.88.37.88.38.87.38.88.38.88.38.87.38.88.38.88.37.87.38.88.38.88.38.87.38.88.38.88.37.87.38.88.38.88.38.87.38.88.38.88.37.88.38.87.38.88.38.88.38.87.38.88.38.88.37.87.38.88.38.88.38.87.38.88.38.88.37.87.38.88.38.88.38.87.38.88.38.88.38.87.37.88.38.88.38.88.38.87.38.88.38.88.37.87.38.88.38.88.38.87.38.88" style="stroke-width:1.07;stroke:#000000;stroke-opacity:0.10;stroke-linecap:butt"/><path d="m40.26 322.43.86-.68.86-.68.86-.67.86-.68.85-.67.86-.68.86-.68.86-.67.86-.68.86-.67.86-.68.86-.68.85-.67.86-.68.86-.67.86-.68.86-.67.86-.68.86-.68.85-.67.86-.68.86-.67.86-.68.86-.68.86-.67.86-.68.86-.67.85-.68.86-.68.86-.67.86-.68.86-.67.86-.68.86-.68.85-.67.86-.68.86-.67.86-.68.86-.67.86-.68.86-.68.85-.67.86-.68.86-.67.86-.68.86-.68.86-.67.86-.68.86-.67.85-.68.86-.68.86-.67.86-.68.86-.67.86-.68.86-.68.85-.67.86-.68.86-.67.86-.68.86-.67.86-.68.86-.68.86-.67.85-.68.86-.67.86-.68.86-.68.86-.67.86-.68.86-.67.85-.68.86-.68.86-.67.86-.68.86-.67.86-.68.86-.68.85-.67.86-.68.86-.67.86-.68.86-.68.86-.67.86-.68.86-.67.85-.68.86-.67.86-.68.86-.68.86-.67.86-.68.86-.67.85-.68.86-.68.86-.67.86-.68.86-.67.86-.68" style="stroke-width:1.07;stroke:#000000;stroke-opacity:0.10;stroke-linecap:butt"/><path d="m87.8 168.7.78.79.77.79.76.79.76.79.74.79.74.8.73.8.72.8.71.8.7.8.7.8.69.81.68.81.67.81.66.81.66.82.65.81.63.82.64.82.62.82.61.82.61.83.6.83.59.83.58.83.57.83.57.83.56.84.55.84.54.84.53.84.53.84.51.85.51.85.5.84.5.86.48.85.48.85.47.86.46.86.45.86.44.86.44.86.42.87.42.87.41.87.41.87.39.87.39.88.38.87.37.88.36.88.35.88.35.89.34.88.33.89.32.89.31.89.31.9.29.89.29.9.28.9.27.9.27.9.25.91.25.9.24.91.23.91.23.91.21.92.21.91.2.92.19.92.18.92.18.92.17.93.15.93.15.92.15.93.13.94.13.93.11.94.11.93.1.94.1.95.08.94.08.94.07.95.06.95.05.95.05.95.03.96.03.95.02.96.01.96.01.96-.01.97-.01.96-.02.97" style="stroke-width:1.07;stroke:#000000;stroke-opacity:0.10;stroke-linecap:butt"/><path d="m247.74 273.19 1.91 3.32h-3.83zM87.8 160.63l7 12.11H80.81zM40.26 320.22l1.92 3.31h-3.83z" style="stroke-width:0.71;stroke:none;fill:#00BFC4"/><circle cx="125.27" cy="255.51" r="6.76" style="stroke-width:0.71;stroke:none;fill:#F8766D"/><path d="m44.98 319.76-3.65 2.06m78.12-61.79 4.89-3.8" style="stroke-width:0.53;stroke:#BFBFBF"/><path d="M178.32 280.96h62.52-.09l.35-.02.34-.07.33-.12.3-.17.27-.22.23-.26.18-.3.14-.32.08-.33.03-.35h0V272h0l-.03-.34-.08-.34-.14-.32-.18-.29-.23-.26-.27-.22-.3-.18-.33-.12-.34-.07-.26-.02h-62.52l.26.02-.35-.02-.34.05-.34.09-.31.15-.29.2-.25.24-.21.28-.16.31-.11.33-.05.34-.01.17v6.8l.01-.17v.34l.05.35.11.33.16.3.21.28.25.24.29.2.31.15.34.1.34.04z" style="stroke-width:0.53;fill:#FFFFFF;fill-opacity:0.50"/><text x="209.58" y="277.36" lengthAdjust="spacingAndGlyphs" style="font-size:5.69px;font-family:&quot;Liberation Sans&quot;" text-anchor="middle" textLength="59.64">SHARON VERSTRATE</text><path d="M53.37 192.54h69.47-.09l.35-.02.34-.07.33-.12.3-.17.27-.22.23-.26.18-.3.14-.32.08-.34.03-.34h0v-14.99h0l-.03-.35-.08-.34-.14-.32-.18-.29-.23-.26-.27-.22-.3-.18-.33-.12-.34-.07-.26-.01H53.37l.26.01-.35-.01-.35.04-.33.1-.31.15-.29.19-.25.24-.21.28-.16.31-.11.33-.06.34v15.17-.18.35l.06.34.11.33.16.31.21.28.25.24.29.2.31.15.33.09.35.05z" style="stroke-width:0.53;fill:#FFFFFF;fill-opacity:0.50"/><text x="88.1" y="180.74" lengthAdjust="spacingAndGlyphs" style="font-size:5.69px;font-family:&quot;Liberation Sans&quot;" text-anchor="middle" textLength="66.59">SHARON V VER STRATE</text><text x="88.1" y="188.94" lengthAdjust="spacingAndGlyphs" style="font-size:5.69px;font-family:&quot;Liberation Sans&quot;" text-anchor="middle" textLength="11.89">TOD</text><path d="M47.14 323.86h69.47-.08l.34-.01.34-.07.33-.13.3-.17.27-.22.23-.26.19-.29.13-.32.09-.34.02-.35h0v-6.79h0l-.02-.35-.09-.34-.13-.32-.19-.29-.23-.26-.27-.22-.3-.18-.33-.12-.34-.07-.26-.01H47.14l.26.01-.35-.01-.34.04-.34.1-.31.14-.29.2-.25.24-.21.28-.16.31-.11.33-.05.34-.01.18v6.79l.01-.17v.35l.05.34.11.33.16.31.21.27.25.25.29.19.31.15.34.1.34.04z" style="stroke-width:0.53;fill:#FFFFFF;fill-opacity:0.50"/><text x="81.88" y="320.26" lengthAdjust="spacingAndGlyphs" style="font-size:5.69px;font-family:&quot;Liberation Sans&quot;" text-anchor="middle" textLength="66.59">SHARON V VER STRATE</text><path d="M72.94 279.35h66.39l-.08-.01.34-.01.34-.07.33-.12.3-.18.27-.22.23-.26.19-.29.13-.32.09-.34.02-.34h0v-15h0l-.02-.34-.09-.34-.13-.32-.19-.29-.23-.26-.27-.22-.3-.18-.33-.12-.34-.07-.26-.02H72.94l.26.02-.35-.01-.34.04-.34.09-.31.15-.29.2-.25.24-.21.28-.16.31-.11.33-.05.34-.01.17v15l.01-.18v.35l.05.34.11.33.16.31.21.28.25.24.29.2.31.14.34.1.34.04z" style="stroke-width:0.53;fill:#FFFFFF;fill-opacity:0.50"/><text x="106.14" y="267.55" lengthAdjust="spacingAndGlyphs" style="font-size:5.69px;font-family:&quot;Liberation Sans&quot;" text-anchor="middle" textLength="34.44">PO BOX 693,</text><text x="106.14" y="275.75" lengthAdjust="spacingAndGlyphs" style="font-size:5.69px;font-family:&quot;Liberation Sans&quot;" text-anchor="middle" textLength="63.52">SHEBOYGAN, WI 53082</text></g><g clip-path="url(#cpMC4wMHwyODguMDB8MC4wMHwzNjAuMDA=)"><circle cx="83.2" cy="135.94" r="1.95" style="stroke-width:0.71;stroke:none;fill:#F8766D"/><path d="m159.6 132.9 2.63 4.56h-5.26z" style="stroke-width:0.71;stroke:none;fill:#00BFC4"/><text x="97.32" y="139.1" lengthAdjust="spacingAndGlyphs" style="font-size:8.80px;font-weight:0;font-family:&quot;Nimbus Sans Narrow&quot;" textLength="48.16">mprop address</text><text x="173.72" y="139.1" lengthAdjust="spacingAndGlyphs" style="font-size:8.80px;font-weight:0;font-family:&quot;Nimbus Sans Narrow&quot;" textLength="39.72">owner name</text><text x="29.89" y="104.23" lengthAdjust="spacingAndGlyphs" style="font-size:12.00px;font-weight:0;font-family:&quot;Nimbus Sans Narrow&quot;" textLength="241.17">includes 5 parcels, 5 units, and 3 distinct owner names.</text><text x="29.89" y="42.81" lengthAdjust="spacingAndGlyphs" style="font-size:18.00px;font-weight:0;font-family:&quot;Nimbus Sans Narrow&quot;" textLength="210.77">SHARON V VER STRATE TOD</text><text x="29.89" y="62.25" lengthAdjust="spacingAndGlyphs" style="font-size:18.00px;font-weight:0;font-family:&quot;Nimbus Sans Narrow&quot;" textLength="203.34">-- SHARON V VER STRATE --</text><text x="29.89" y="81.69" lengthAdjust="spacingAndGlyphs" style="font-size:18.00px;font-weight:0;font-family:&quot;Nimbus Sans Narrow&quot;" textLength="205.81">SHARON VERSTRATE Group</text></g></g></svg>