<svg xmlns="http://www.w3.org/2000/svg" width="576" height="576" class="svglite" viewBox="0 0 432 432"><defs><style><![CDATA[.svglite line,.svglite polyline,.svglite polygon,.svglite path,.svglite circle{fill:none;stroke:#000000;stroke-linecap:round;stroke-linejoin:round;stroke-miterlimit:10.00}.svglite text{white-space:pre}]]></style></defs><rect width="100%" height="100%" style="stroke-linecap:round;stroke-linejoin:round;stroke-miterlimit:10.00;stroke:none;fill:#FFFFFF"/><defs><clipPath id="cpMC4wMHw0MzIuMDB8MC4wMHw0MzIuMDA="><path d="M0 0h432v432H0z"/></clipPath></defs><g clip-path="url(#cpMC4wMHw0MzIuMDB8MC4wMHw0MzIuMDA=)"><path d="M0 0h432v432H0z" style="stroke-width:1.07;stroke:none;fill:#FFFFFF"/></g><defs><clipPath id="cpMzIuNjN8NDAyLjExfDEyMS43OHwzOTkuMzc="><path d="M32.63 121.78h369.48v277.59H32.63z"/></clipPath></defs><g clip-path="url(#cpMzIuNjN8NDAyLjExfDEyMS43OHwzOTkuMzc=)"><path d="m385.32 386.75-1.12-.84-1.12-.85-1.11-.85-1.12-.85-1.12-.85-1.11-.85-1.12-.85-1.12-.85-1.11-.85-1.12-.85-1.12-.85-1.12-.85-1.11-.85-1.12-.85-1.12-.85-1.11-.85-1.12-.85-1.12-.85-1.11-.85-1.12-.85-1.12-.85-1.11-.85-1.12-.85-1.12-.85-1.12-.85-1.11-.84-1.12-.85-1.12-.85-1.11-.85-1.12-.85-1.12-.85-1.11-.85-1.12-.85-1.12-.85-1.11-.85-1.12-.85-1.12-.85-1.12-.85-1.11-.85-1.12-.85-1.12-.85-1.11-.85-1.12-.85-1.12-.85-1.11-.85-1.12-.85-1.12-.85-1.11-.85-1.12-.85-1.12-.84-1.12-.85-1.11-.85-1.12-.85-1.12-.85-1.11-.85-1.12-.85-1.12-.85-1.11-.85-1.12-.85-1.12-.85-1.11-.85-1.12-.85-1.12-.85-1.12-.85-1.11-.85-1.12-.85-1.12-.85-1.11-.85-1.12-.85-1.12-.85-1.11-.85-1.12-.85-1.12-.85-1.11-.85-1.12-.84-1.12-.85-1.12-.85-1.11-.85-1.12-.85-1.12-.85-1.11-.85-1.12-.85-1.12-.85-1.11-.85-1.12-.85-1.12-.85-1.11-.85-1.12-.85-1.12-.85-1.11-.85-1.12-.85-1.12-.85-1.12-.85-1.11-.85-1.12-.85-1.12-.85-1.11-.85-1.12-.85-1.12-.84M134.33 197.8l.45.34.45.33.45.34.44.33.45.34.45.34.45.33.45.34.45.33.45.34.45.34.45.33.45.34.45.33.45.34.44.34.45.33.45.34.45.33.45.34.45.34.45.33.45.34.45.33.45.34.45.34.44.33.45.34.45.33.45.34.45.34.45.33.45.34.45.33.45.34.45.34.45.33.45.34.44.33.45.34.45.33.45.34.45.34.45.33.45.34.45.33.45.34.45.34.45.33.45.34.44.33.45.34.45.34.45.33.45.34.45.33.45.34.45.34.45.33.45.34.45.33.44.34.45.34.45.33.45.34.45.33.45.34.45.34.45.33.45.34.45.33.45.34.45.34.44.33.45.34.45.33.45.34.45.34.45.33.45.34.45.33.45.34.45.34.45.33.45.34.44.33.45.34.45.34.45.33.45.34.45.33.45.34.45.33.45.34.45.34.45.33.44.34.45.33.45.34m-44.46-33.26-.55-.75-.56-.75-.57-.74-.57-.75-.58-.74-.58-.74-.59-.74-.6-.73-.6-.74-.61-.73-.62-.72-.62-.73-.62-.72-.64-.73-.64-.71-.64-.72-.66-.72-.66-.71-.66-.71-.67-.71-.68-.7-.68-.71-.69-.7-.7-.7-.7-.69-.71-.7-.71-.69-.72-.69-.73-.69-.73-.68-.74-.69-.75-.68-.75-.68-.76-.67-.76-.68-.77-.67-.78-.67-.78-.66-.79-.67-.8-.66-.8-.66-.81-.66-.81-.66-.82-.65-.83-.65-.83-.65-.84-.65-.85-.65-.85-.64-.86-.64-.86-.64-.87-.63-.88-.64-.88-.63-.89-.63-.89-.62-.9-.63-.91-.62-.91-.62-.92-.62-.93-.61-.93-.62-.94-.61-.94-.61-.96-.6-.95-.61-.97-.6-.97-.6-.97-.6-.98-.59-.99-.6-1-.59-1-.59-1-.58-1.02-.59-1.02-.58-1.02-.58-1.03-.57-1.04-.58-1.05-.57-1.05-.57-1.05-.57-1.07-.57-1.07-.56-1.07-.56-1.08-.56-1.09-.56-1.09-.55-1.1-.56-1.11-.55-1.11-.54-1.12-.55-1.13-.54-1.13-.55-1.14-.53-1.14-.54-1.15-.54-1.16-.53-1.16-.53" style="stroke-width:1.07;stroke:#000000;stroke-opacity:0.10;stroke-linecap:butt"/><path d="m134.33 197.8 1.42 1.06 1.41 1.06 1.42 1.06 1.42 1.06 1.42 1.06 1.42 1.05 1.42 1.06 1.41 1.06 1.42 1.06 1.42 1.06 1.42 1.06 1.42 1.06 1.42 1.06 1.41 1.06 1.42 1.06 1.42 1.06 1.42 1.05 1.42 1.06 1.42 1.06 1.41 1.06 1.42 1.06 1.42 1.06 1.42 1.06 1.42 1.06 1.42 1.06 1.41 1.06 1.42 1.05 1.42 1.06 1.42 1.06 1.42 1.06 1.42 1.06 1.41 1.06 1.42 1.06 1.42 1.06 1.42 1.06 1.42 1.06 1.42 1.05 1.41 1.06 1.42 1.06 1.42 1.06 1.42 1.06 1.42 1.06 1.42 1.06 1.41 1.06 1.42 1.06 1.42 1.06 1.42 1.06 1.42 1.05 1.42 1.06 1.41 1.06 1.42 1.06 1.42 1.06 1.42 1.06 1.42 1.06 1.42 1.06 1.41 1.06 1.42 1.06 1.42 1.05 1.42 1.06 1.42 1.06 1.42 1.06 1.41 1.06 1.42 1.06 1.42 1.06 1.42 1.06 1.42 1.06 1.42 1.06 1.41 1.05 1.42 1.06 1.42 1.06 1.42 1.06 1.42 1.06 1.42 1.06 1.41 1.06 1.42 1.06 1.42 1.06 1.42 1.06 1.42 1.06 1.42 1.05 1.41 1.06 1.42 1.06 1.42 1.06 1.42 1.06 1.42 1.06 1.42 1.06 1.41 1.06 1.42 1.06 1.42 1.06 1.42 1.05 1.42 1.06 1.42 1.06 1.41 1.06 1.42 1.06 1.42 1.06 1.42 1.06 1.42 1.06 1.42 1.06 1.41 1.06 1.42 1.06M134.33 197.8l-1.16-.53-1.16-.53-1.15-.54-1.14-.53-1.14-.54-1.13-.54-1.13-.55-1.12-.54-1.11-.55-1.11-.55-1.1-.55-1.09-.56-1.09-.56-1.08-.55-1.07-.57-1.07-.56-1.07-.57-1.05-.56-1.05-.57-1.05-.58-1.04-.57-1.03-.58-1.02-.58-1.02-.58-1.02-.59-1-.58-1-.59-1-.59-.99-.59-.98-.6-.97-.6-.97-.6-.97-.6-.95-.6-.95-.61-.95-.61-.94-.61-.93-.61-.93-.62-.92-.62-.91-.62-.91-.62-.9-.62-.89-.63-.89-.63-.88-.63-.88-.64-.87-.63-.86-.64-.86-.64-.85-.64-.85-.65-.84-.64-.83-.65-.83-.66-.82-.65-.81-.66-.81-.65-.8-.66-.8-.67-.79-.66-.78-.67-.78-.67-.77-.67-.76-.68-.76-.67-.75-.68-.75-.68-.74-.68-.73-.69-.73-.69-.72-.69-.71-.69-.71-.69-.7-.7-.7-.7-.69-.7-.68-.7-.68-.71-.67-.71-.66-.71-.66-.71-.66-.72-.64-.71-.64-.72-.63-.72-.63-.73-.62-.72-.62-.73-.61-.73-.6-.73-.6-.74-.59-.74-.58-.74-.58-.74-.57-.74-.57-.75-.55-.75-.56-.75" style="stroke-width:1.07;stroke:#000000;stroke-opacity:0.10;stroke-linecap:butt"/><path d="m49.42 134.4.84 1.15.86 1.14.86 1.14.87 1.13.88 1.13.89 1.13.9 1.12.91 1.12.91 1.12.93 1.11.94 1.11.94 1.11.96 1.1.97 1.1.97 1.1.98 1.09 1 1.09 1 1.09 1.01 1.08 1.03 1.08 1.03 1.08 1.04 1.07 1.05 1.07 1.06 1.06 1.07 1.07 1.08 1.05 1.09 1.06 1.1 1.05 1.1 1.05 1.12 1.04 1.13 1.05 1.13 1.03 1.15 1.04 1.16 1.03 1.16 1.03 1.17 1.02 1.19 1.02 1.19 1.02 1.2 1.02 1.21 1.01 1.23 1 1.23 1.01 1.24 1 1.25.99 1.26 1 1.27.99 1.27.98 1.29.99 1.3.98 1.31.97 1.31.98 1.33.97 1.33.96 1.35.97 1.35.95 1.37.96 1.37.95 1.38.95 1.39.95 1.41.94 1.41.94 1.42.93 1.43.93 1.44.93 1.45.93 1.45.92 1.47.92 1.48.91 1.49.91 1.49.91 1.51.9 1.51.91 1.53.89 1.53.9 1.55.89 1.55.88 1.56.89 1.58.88 1.58.88 1.59.87 1.6.87 1.61.86 1.62.87 1.63.86 1.64.85 1.64.86 1.66.85 1.67.84 1.68.84 1.68.84 1.7.84 1.7.83 1.72.83 1.72.83 1.73.82 1.75.82 1.75.81 1.76.81 1.77.81M49.42 134.4l1.77.81 1.77.81 1.75.82 1.74.82 1.73.82 1.73.82 1.71.83 1.71.83 1.69.84 1.69.84 1.68.84 1.66.85 1.66.85 1.65.85 1.64.85 1.63.86 1.62.87 1.61.86 1.6.87 1.59.88 1.58.87 1.57.88 1.57.89 1.55.89 1.54.89 1.54.89 1.52.9 1.52.9 1.5.9 1.5.91 1.49.91 1.47.92 1.47.91 1.46.93 1.45.92 1.44.93 1.43.93 1.42.94 1.41.93 1.4.95 1.39.94 1.39.95 1.37.95 1.36.96 1.36.96 1.34.96 1.34.97 1.32.97 1.32.97 1.31.97 1.29.98 1.29.99 1.28.98 1.27.99 1.26 1 1.25 1 1.24 1 1.23 1 1.22 1.01 1.21 1.01 1.21 1.01 1.19 1.02 1.18 1.02 1.18 1.02 1.16 1.03 1.16 1.03 1.14 1.04 1.14 1.04 1.12 1.04 1.12 1.04 1.11 1.05 1.1 1.05 1.09 1.06 1.07 1.06 1.07 1.06 1.06 1.06 1.06 1.07 1.04 1.08 1.03 1.07 1.02 1.08 1.01 1.08 1.01 1.09.99 1.09.99 1.09.97 1.1.97 1.1.95 1.1.95 1.11.93 1.11.93 1.11.92 1.12.91 1.12.9 1.12.89 1.13.88 1.13.87 1.14.86 1.13.85 1.15.84 1.14" style="stroke-width:1.07;stroke:#000000;stroke-opacity:0.10;stroke-linecap:butt"/><path d="m385.32 384.54 1.91 3.32h-3.83zM134.33 187.29l9.1 15.76h-18.2z" style="stroke-width:0.71;stroke:none;fill:#00BA38"/><path d="M42.67 141.16h13.51v-13.51H42.67z" style="stroke-width:0.71;stroke:none;fill:#619CFF"/><circle cx="274.74" cy="302.65" r="6.76" style="stroke-width:0.71;stroke:none;fill:#F8766D"/><circle cx="178.79" cy="231.06" r="1.42" style="stroke-width:0.71;stroke:none;fill:#F8766D"/><path d="m139.86 193.25-4.63 3.81m-81.09-59.35-3.74-2.62m218.57 172.1 4.85-3.82m-89.27-76.85-4.84 3.81" style="stroke-width:0.53;stroke:#BFBFBF"/><path d="M322.79 392.4h55.62-.09l.35-.02.34-.07.33-.12.3-.18.27-.22.23-.26.18-.29.14-.32.08-.34.03-.34h0v-6.97h0l-.03-.34-.08-.34-.14-.32-.18-.29-.23-.26-.27-.22-.3-.18-.33-.12-.34-.07-.26-.02h-55.62l.26.02-.35-.01-.34.04-.33.09-.32.15-.28.2-.26.24-.2.28-.17.31-.11.33-.05.34-.01.17v6.97l.01-.18v.35l.05.34.11.33.17.31.2.28.26.24.28.2.32.15.33.09.34.05z" style="stroke-width:0.53;fill:#FFFFFF;fill-opacity:0.50"/><text x="350.6" y="388.8" lengthAdjust="spacingAndGlyphs" style="font-size:5.69px;font-family:&quot;Arial&quot;" text-anchor="middle" textLength="52.74">DENNIS W GRIFFIN</text><path d="M118.8 193.25h58.16-.09l.35-.01.34-.07.32-.13.3-.17.27-.22.23-.26.19-.29.14-.32.08-.34.03-.35h0v-6.96h0l-.03-.35-.08-.33-.14-.32-.19-.3-.23-.26-.27-.22-.3-.17-.32-.12-.34-.07-.26-.02H118.8l.26.02-.35-.02-.35.04-.33.1-.31.15-.29.2-.25.24-.21.28-.16.3-.11.33-.06.35v7.13-.17.35l.06.34.11.33.16.31.21.27.25.25.29.19.31.15.33.1.35.04z" style="stroke-width:0.53;fill:#FFFFFF;fill-opacity:0.50"/><text x="147.88" y="189.65" lengthAdjust="spacingAndGlyphs" style="font-size:5.69px;font-family:&quot;Arial&quot;" text-anchor="middle" textLength="55.28">SHORELANDRE LLC</text><path d="M56.3 153.35h66.39-.08l.35-.01.34-.07.32-.13.3-.17.27-.22.23-.26.19-.29.13-.32.09-.34.02-.35h0v-15.15h0l-.02-.35-.09-.34-.13-.32-.19-.29-.23-.26-.27-.22-.3-.18-.32-.12-.34-.07-.27-.01H56.3l.26.01-.35-.01-.35.04-.33.1-.31.15-.29.19-.25.24-.21.28-.16.31-.11.33-.06.34v15.33-.17.35l.06.34.11.33.16.31.21.28.25.24.29.19.31.15.33.1.35.04z" style="stroke-width:0.53;fill:#FFFFFF;fill-opacity:0.50"/><text x="89.5" y="141.56" lengthAdjust="spacingAndGlyphs" style="font-size:5.69px;font-family:&quot;Arial&quot;" text-anchor="middle" textLength="63.52">4119 N BARTLETT AVE,</text><text x="89.5" y="149.75" lengthAdjust="spacingAndGlyphs" style="font-size:5.69px;font-family:&quot;Arial&quot;" text-anchor="middle" textLength="61.61">MILWAUKEE, WI 53211</text><path d="M223.5 326.67h64.49-.09l.35-.01.34-.07.33-.13.3-.17.27-.22.23-.26.18-.3.14-.31.08-.34.03-.35h0v-15.16h0l-.03-.34-.08-.34-.14-.32-.18-.29-.23-.26-.27-.22-.3-.18-.33-.12-.34-.07-.26-.02H223.5l.26.02-.35-.01-.34.04-.34.09-.31.15-.29.2-.25.24-.21.28-.16.31-.11.33-.05.34-.01.17v15.16l.01-.17v.34l.05.35.11.33.16.31.21.27.25.24.29.2.31.15.34.1.34.04z" style="stroke-width:0.53;fill:#FFFFFF;fill-opacity:0.50"/><text x="255.74" y="314.88" lengthAdjust="spacingAndGlyphs" style="font-size:5.69px;font-family:&quot;Arial&quot;" text-anchor="middle" textLength="40.76">PO BOX 11635,</text><text x="255.74" y="323.07" lengthAdjust="spacingAndGlyphs" style="font-size:5.69px;font-family:&quot;Arial&quot;" text-anchor="middle" textLength="61.61">MILWAUKEE, WI 53211</text><path d="M164.59 226.52h66.39-.08l.34-.02.34-.07.33-.12.3-.17.27-.22.23-.26.19-.3.13-.32.09-.33.02-.35h0V209.2h0l-.02-.34-.09-.34-.13-.32-.19-.3-.23-.26-.27-.22-.3-.17-.33-.12-.34-.07-.26-.02h-66.39l.26.02-.35-.02-.35.05-.33.09-.31.15-.29.2-.25.24-.21.28-.16.31-.11.33-.06.34v15.33-.17.34l.06.35.11.33.16.3.21.28.25.24.29.2.31.15.33.1.35.04z" style="stroke-width:0.53;fill:#FFFFFF;fill-opacity:0.50"/><text x="197.78" y="214.72" lengthAdjust="spacingAndGlyphs" style="font-size:5.69px;font-family:&quot;Arial&quot;" text-anchor="middle" textLength="63.52">4119 N BARTLETT AVE,</text><text x="197.78" y="222.92" lengthAdjust="spacingAndGlyphs" style="font-size:5.69px;font-family:&quot;Arial&quot;" text-anchor="middle" textLength="61.61">MILWAUKEE, WI 53211</text></g><g clip-path="url(#cpMC4wMHw0MzIuMDB8MC4wMHw0MzIuMDA=)"><circle cx="124.98" cy="96.71" r="1.95" style="stroke-width:0.71;stroke:none;fill:#F8766D"/><path d="m201.33 93.67 2.63 4.56h-5.26z" style="stroke-width:0.71;stroke:none;fill:#00BA38"/><path d="M267.31 98.66h3.91v-3.91h-3.91z" style="stroke-width:0.71;stroke:none;fill:#619CFF"/><text x="139.09" y="99.86" lengthAdjust="spacingAndGlyphs" style="font-size:8.80px;font-family:&quot;Arial Narrow&quot;" textLength="48.12">mprop address</text><text x="215.45" y="99.86" lengthAdjust="spacingAndGlyphs" style="font-size:8.80px;font-family:&quot;Arial Narrow&quot;" textLength="39.69">owner name</text><text x="283.38" y="99.86" lengthAdjust="spacingAndGlyphs" style="font-size:8.80px;font-family:&quot;Arial Narrow&quot;" textLength="40.5">wdfi address</text><text x="32.63" y="65.12" lengthAdjust="spacingAndGlyphs" style="font-size:12.00px;font-family:&quot;Arial Narrow&quot;" textLength="241.29">includes 3 parcels, 8 units, and 2 distinct owner names.</text><text x="32.63" y="42.78" lengthAdjust="spacingAndGlyphs" style="font-size:18.00px;font-weight:bold;font-family:&quot;Arial Narrow&quot;" textLength="195.12">SHORELANDRE LLC Group</text></g></svg>