<svg xmlns="http://www.w3.org/2000/svg" width="576" height="672" class="svglite" viewBox="0 0 432 504"><defs><style><![CDATA[.svglite line,.svglite polyline,.svglite polygon,.svglite path,.svglite circle{fill:none;stroke:#000000;stroke-linecap:round;stroke-linejoin:round;stroke-miterlimit:10.00}.svglite text{white-space:pre}]]></style></defs><rect width="100%" height="100%" style="stroke-linecap:round;stroke-linejoin:round;stroke-miterlimit:10.00;stroke:none;fill:#FFFFFF"/><defs><clipPath id="cpMC4wMHw0MzIuMDB8MC4wMHw1MDQuMDA="><path d="M0 0h432v504H0z"/></clipPath></defs><g clip-path="url(#cpMC4wMHw0MzIuMDB8MC4wMHw1MDQuMDA=)"><path d="M0 0h432v504H0z" style="stroke-width:1.07;stroke:none;fill:#FFFFFF"/></g><defs><clipPath id="cpMzIuNjN8NDAyLjExfDE1OS43NHw0NzEuMzc="><path d="M32.63 159.74h369.48v311.63H32.63z"/></clipPath></defs><g clip-path="url(#cpMzIuNjN8NDAyLjExfDE1OS43NHw0NzEuMzc=)"><path d="M218.24 354.07v-1.14l-.01-1.14v-1.14l-.01-1.14v-1.14l-.01-1.14v-1.14l-.01-1.14-.01-1.14v-1.14l-.01-1.14v-1.14l-.01-1.14v-1.14l-.01-1.14v-1.14l-.01-1.14-.01-1.14v-1.14l-.01-1.14v-1.14l-.01-1.14v-1.14l-.01-1.14v-1.14l-.01-1.14-.01-1.14v-1.14l-.01-1.14v-1.14l-.01-1.14v-1.14l-.01-1.14v-1.14l-.01-1.14-.01-1.14v-1.14l-.01-1.14v-1.14l-.01-1.14v-1.14l-.01-1.14v-1.14l-.01-1.14v-1.14l-.01-1.14-.01-1.14v-1.14l-.01-1.14v-1.14l-.01-1.14v-1.14l-.01-1.14v-1.14l-.01-1.14-.01-1.14v-1.14l-.01-1.14v-1.14l-.01-1.14v-1.14l-.01-1.14v-1.14l-.01-1.14-.01-1.14v-1.14l-.01-1.14v-1.14l-.01-1.14v-1.14l-.01-1.14v-1.14l-.01-1.14-.01-1.14v-1.14l-.01-1.14v-1.14l-.01-1.14v-1.14l-.01-1.14v-1.14l-.01-1.14-.01-1.14v-1.14l-.01-1.14v-1.14l-.01-1.14v-1.14l-.01-1.14v-1.14l-.01-1.14-.01-1.14v-1.14l-.01-1.14v-1.14l-.01-1.14v-1.14l-.01-1.14v-1.14m.54 112.86-1.51.79-1.5.79-1.49.79-1.48.8-1.47.8-1.46.81-1.44.81-1.43.81-1.42.82-1.41.82-1.4.82-1.38.83-1.38.83-1.36.83-1.35.84-1.34.84-1.32.84-1.32.85-1.3.85-1.29.85-1.28.86-1.27.86-1.25.86-1.25.87-1.23.87-1.22.88-1.21.87-1.19.89-1.19.88-1.17.89-1.16.89-1.15.9-1.14.89-1.12.91-1.12.9-1.1.91-1.09.91-1.08.92-1.06.92-1.06.92-1.04.93-1.03.93-1.02.93-1.01.94-1 .94-.98.94-.97.95-.96.95-.95.95-.94.96-.93.96-.91.97-.9.96-.89.98-.88.97-.86.98-.86.98-.84.98-.83.99-.82.99-.81 1-.79 1-.79 1-.77 1.01-.76 1.01-.75 1.01-.73 1.01-.73 1.02-.71 1.03-.7 1.02-.69 1.03-.68 1.04-.67 1.03-.65 1.04-.64 1.05-.63 1.04-.62 1.05-.61 1.06-.59 1.06-.59 1.06-.57 1.06-.56 1.07-.55 1.07-.53 1.07-.53 1.08-.51 1.08-.5 1.09-.49 1.09-.47 1.09-.47 1.09-.45 1.1-.45 1.11-.43 1.1-.41 1.11-.41 1.11-.39 1.12-.39 1.12-.37 1.12-.36 1.13m259.84-274.94-1.7.68-1.69.68-1.69.68-1.7.68-1.69.68-1.69.68-1.69.68-1.7.68-1.69.68-1.69.68-1.7.68-1.69.68-1.69.68-1.7.68-1.69.68-1.69.68-1.7.67-1.69.68-1.69.68-1.7.68-1.69.68-1.69.68-1.7.68-1.69.68-1.69.68-1.69.68-1.7.68-1.69.68-1.69.68-1.7.68-1.69.68-1.69.68-1.7.68-1.69.68-1.69.68-1.7.68-1.69.68-1.69.68-1.7.68-1.69.68-1.69.68-1.69.68-1.7.68-1.69.68-1.69.68-1.7.68-1.69.68-1.69.68-1.7.68-1.69.68-1.69.68-1.7.68-1.69.68-1.69.68-1.7.68-1.69.68-1.69.68-1.7.68-1.69.68-1.69.68-1.69.68-1.7.68-1.69.68-1.69.68-1.7.68-1.69.68-1.69.68-1.7.68-1.69.68-1.69.68-1.7.68-1.69.68-1.69.68-1.7.68-1.69.68-1.69.68-1.69.67-1.7.68-1.69.68-1.69.68-1.7.68-1.69.68-1.69.68-1.7.68-1.69.68-1.69.68-1.7.68-1.69.68-1.69.68-1.7.68-1.69.68-1.69.68-1.7.68-1.69.68-1.69.68-1.69.68-1.7.68-1.69.68-1.69.68m.54 112.86.66 1.04.67 1.04.67 1.03.67 1.04.68 1.03.69 1.03.7 1.03.69 1.03.71 1.03.71 1.02.72 1.02.72 1.02.73 1.02.73 1.02.74 1.02.75 1.01.75 1.01.76 1.01.77 1.01.77 1.01.77 1 .78 1.01.79 1 .79 1 .8 1 .81.99.81 1 .82.99.82.99.83.99.83.99.84.98.85.99.85.98.86.98.86.98.87.98.88.97.88.98.89.97.89.97.9.97.91.96.91.97.91.96.93.96.93.96.93.96.94.96.95.95.95.96.96.95.96.95.97.94.98.95.98.95.99.94.99.94 1 .94 1 .93 1.01.94 1.02.93 1.02.94 1.03.93 1.04.92 1.04.93 1.04.93 1.05.92 1.06.92 1.07.92 1.07.92 1.07.92 1.08.91 1.09.91 1.09.91 1.1.91 1.11.91 1.11.91 1.12.9 1.12.9 1.13.9 1.13.9 1.14.9 1.15.89 1.15.9 1.16.89 1.16.89 1.17.89 1.18.89 1.18.88 1.19.88 1.19.89 1.2.88 1.2.87 1.21.88 1.22.87 1.22.88 1.23.87 1.24.87" style="stroke-width:1.07;stroke:#000000;stroke-opacity:0.10;stroke-linecap:butt"/><path d="m218.24 354.07-.93.96-.94.95-.94.96-.93.96-.94.95-.94.96-.93.96-.94.96-.94.95-.94.96-.93.96-.94.96-.94.95-.93.96-.94.96-.94.96-.93.95-.94.96-.94.96-.94.96-.93.95-.94.96-.94.96-.93.96-.94.95-.94.96-.93.96-.94.95-.94.96-.94.96-.93.96-.94.95-.94.96-.93.96-.94.96-.94.95-.93.96-.94.96-.94.96-.94.95-.93.96-.94.96-.94.96-.93.95-.94.96-.94.96-.93.95-.94.96-.94.96-.93.96-.94.95-.94.96-.94.96-.93.96-.94.95-.94.96-.93.96-.94.96-.94.95-.93.96-.94.96-.94.96-.94.95-.93.96-.94.96-.94.95-.93.96-.94.96-.94.96-.93.95-.94.96-.94.96-.94.96-.93.95-.94.96-.94.96-.93.96-.94.95-.94.96-.93.96-.94.96-.94.95-.94.96-.93.96-.94.95-.94.96-.93.96-.94.96-.94.95-.93.96-.94.96-.94.96-.94.95-.93.96-.94.96-.94.96-.93.95-.94.96-.94.96M49.42 174.4l1.7.67 1.7.68 1.7.67 1.7.68 1.7.67 1.7.68 1.7.67 1.7.68 1.7.67 1.7.67 1.7.68 1.7.67 1.7.68 1.7.67 1.7.68 1.7.67 1.7.68 1.7.67 1.7.68 1.7.67 1.7.68 1.7.67 1.7.68 1.7.67 1.7.68 1.7.67 1.7.68 1.69.67 1.7.68 1.7.67 1.7.68 1.7.67 1.7.68 1.7.67 1.7.68 1.7.67 1.7.68 1.7.67 1.7.68 1.7.67 1.7.68 1.7.67 1.7.68 1.7.67 1.7.68 1.7.67 1.7.68 1.7.67 1.7.68 1.7.67 1.7.68 1.7.67 1.7.68 1.7.67 1.7.68 1.7.67 1.7.68 1.7.67 1.7.68 1.7.67 1.7.67 1.7.68 1.7.67 1.7.68 1.69.67 1.7.68 1.7.67 1.7.68 1.7.67 1.7.68 1.7.67 1.7.68 1.7.67 1.7.68 1.7.67 1.7.68 1.7.67 1.7.68 1.7.67 1.7.68 1.7.67 1.7.68 1.7.67 1.7.68 1.7.67 1.7.68 1.7.67 1.7.68 1.7.67 1.7.68 1.7.67 1.7.68 1.7.67 1.7.68 1.7.67 1.7.68 1.7.67 1.7.68 1.7.67m.54 112.86 1.24.87 1.23.87 1.22.87 1.22.88 1.21.87 1.2.88 1.2.88 1.19.88 1.19.88 1.18.89 1.18.89 1.17.88 1.16.89 1.16.9 1.15.89 1.15.9 1.14.89 1.13.9 1.13.9 1.12.9 1.12.91 1.11.9 1.11.91 1.1.91 1.09.91 1.09.92 1.08.91 1.07.92 1.07.91 1.07.92 1.06.93 1.05.92 1.04.92 1.04.93 1.04.93 1.03.93 1.02.93 1.02.94 1.01.93 1 .94 1 .94 1 .94.98.94.98.94.98.95.97.95.96.95.96.95.95.95.95.96.94.95.94.96.92.96.93.96.91.97.91.96.91.97.9.97.89.97.89.97.88.97.88.98.87.97.86.98.86.98.85.99.85.98.84.99.83.99.83.98.82 1 .82.99.81.99.81 1 .8 1 .79 1 .79 1 .78 1 .78 1.01.77 1.01.76 1 .76 1.01.75 1.02.75 1.01.74 1.02.73 1.01.73 1.02.72 1.02.72 1.03.71 1.02.71 1.03.7 1.02.69 1.03.69 1.03.68 1.04.67 1.03.67 1.04.67 1.04.66 1.04" style="stroke-width:1.07;stroke:#000000;stroke-opacity:0.10;stroke-linecap:butt"/><path d="m218.24 354.07-.35 1.12-.38 1.13-.38 1.12-.39 1.11-.41 1.12-.42 1.1-.43 1.11-.44 1.1-.45 1.1-.47 1.1-.47 1.09-.49 1.09-.5 1.08-.52 1.08-.52 1.08-.54 1.08-.55 1.07-.55 1.07-.58 1.06-.58 1.06-.59 1.06-.61 1.05-.62 1.05-.63 1.05-.64 1.04-.66 1.04-.66 1.04-.68 1.03-.69 1.03-.7 1.03-.71 1.02-.73 1.02-.73 1.02-.75 1.01-.76 1.01-.77 1.01-.79 1-.79 1-.81.99-.82.99-.83.99-.84.99-.86.98-.86.98-.88.97-.89.97-.9.97-.92.96-.92.97-.94.95-.95.96-.96.95-.97.94-.99.95-.99.94-1.01.93-1.02.94-1.03.93-1.04.92-1.06.93-1.06.92-1.08.91-1.09.91-1.11.91-1.11.91-1.12.9-1.14.9-1.15.9-1.16.89-1.18.89-1.18.88-1.2.88-1.2.88-1.22.87-1.24.88-1.24.86-1.26.87-1.26.86-1.28.86-1.29.85-1.3.85-1.32.85-1.33.84-1.33.84-1.35.84-1.36.83-1.38.83-1.38.83-1.4.82-1.41.82-1.42.81-1.43.82-1.45.81-1.45.8-1.47.8-1.48.8-1.49.8-1.5.79-1.52.79" style="stroke-width:1.07;stroke:#000000;stroke-opacity:0.10;stroke-linecap:butt"/><path d="m125.48 448.85 1.89.34 1.88.33 1.89.32 1.88.31 1.89.31 1.88.31 1.89.29 1.88.29 1.89.28 1.88.28 1.89.26 1.88.26 1.88.26 1.89.25 1.88.24 1.89.23 1.88.22 1.89.22 1.88.22 1.88.2 1.89.2 1.88.19 1.89.18 1.88.18 1.89.17 1.88.17 1.88.15 1.89.15 1.88.15 1.89.13 1.88.13 1.88.12 1.89.12 1.88.11 1.88.1 1.89.09 1.88.09 1.89.08 1.88.07 1.88.07 1.89.06 1.88.05 1.88.05 1.89.04 1.88.03 1.88.02 1.89.02 1.88.01 1.88.01 1.89-.01 1.88-.01 1.88-.01 1.89-.03 1.88-.03 1.88-.03 1.89-.05 1.88-.05 1.88-.06 1.89-.06 1.88-.07 1.88-.08 1.88-.09 1.89-.09 1.88-.1 1.88-.11 1.89-.11 1.88-.12 1.88-.13 1.88-.13 1.89-.15 1.88-.14 1.88-.16 1.88-.16 1.89-.17 1.88-.18 1.88-.18 1.88-.19 1.89-.2 1.88-.2 1.88-.21 1.88-.22 1.88-.22 1.89-.24 1.88-.23 1.88-.25 1.88-.25 1.88-.26 1.89-.27 1.88-.27 1.88-.28 1.88-.29 1.88-.29 1.89-.3 1.88-.31 1.88-.31 1.88-.33 1.88-.32 1.88-.34 1.89-.34" style="stroke-width:1.07;stroke:#000000;stroke-opacity:0.10;stroke-linecap:butt"/><path d="M125.48 448.85h1.89l1.88-.01h3.77l1.88-.01h5.65l1.88-.01h5.65l1.89-.01h3.76l1.89-.01h5.64l1.89-.01h5.65l1.88-.01h3.77l1.88-.01h5.65l1.88-.01h5.65l1.89-.01h3.76l1.89-.01h5.65l1.88-.01h3.77l1.88-.01h5.65l1.88-.01h5.65l1.89-.01h3.76l1.89-.01h5.65l1.88-.01h5.65l1.88-.01h3.77l1.88-.01h5.65l1.88-.01h5.65l1.89-.01h3.76l1.89-.01h5.65l1.88-.01h5.65l1.88-.01h3.77l1.88-.01h5.65l1.89-.01h5.65l1.88-.01h3.77" style="stroke-width:1.07;stroke:#000000;stroke-opacity:0.10;stroke-linecap:butt"/><path d="m125.48 448.85 1.88-.34 1.89-.34 1.88-.33 1.88-.32 1.88-.31 1.88-.31 1.88-.3 1.89-.3 1.88-.28 1.88-.28 1.88-.28 1.88-.26 1.89-.26 1.88-.26 1.88-.24 1.88-.24 1.88-.23 1.89-.23 1.88-.21 1.88-.21 1.88-.21 1.89-.19 1.88-.19 1.88-.19 1.88-.17 1.89-.17 1.88-.17 1.88-.15 1.88-.15 1.89-.14 1.88-.13 1.88-.13 1.88-.12 1.89-.12 1.88-.1 1.88-.1 1.89-.1 1.88-.08 1.88-.08 1.88-.07 1.89-.07 1.88-.06 1.88-.05 1.89-.04 1.88-.04 1.88-.03 1.89-.02 1.88-.02 1.88-.01h3.77l1.88.01 1.88.02 1.89.03 1.88.03 1.89.04 1.88.04 1.88.06 1.89.06 1.88.06 1.88.08 1.89.08 1.88.08 1.88.1 1.89.1 1.88.11 1.89.11 1.88.12 1.88.13 1.89.14 1.88.14 1.89.15 1.88.16 1.88.16 1.89.17 1.88.18 1.89.18 1.88.2 1.88.19 1.89.21 1.88.21 1.89.22 1.88.23 1.89.23 1.88.24 1.89.25 1.88.25 1.88.26 1.89.27 1.88.27 1.89.29 1.88.28 1.89.3 1.88.3 1.89.31 1.88.32 1.89.32 1.88.33 1.89.34" style="stroke-width:1.07;stroke:#000000;stroke-opacity:0.10;stroke-linecap:butt"/><path d="m218.24 343.56 9.1 15.76h-18.19zM385.32 171.7l1.91 3.31h-3.83zm-335.9.49 1.92 3.31h-3.83z" style="stroke-width:0.71;stroke:none;fill:#00BA38"/><path d="M118.73 455.6h13.51v-13.51h-13.51z" style="stroke-width:0.71;stroke:none;fill:#619CFF"/><circle cx="217.7" cy="241.21" r="6.76" style="stroke-width:0.71;stroke:none;fill:#F8766D"/><circle cx="311.93" cy="448.58" r="5.19" style="stroke-width:0.71;stroke:none;fill:#F8766D"/><path d="m213.01 358.71 4.37-3.88m-96.61 97.66 3.79-2.93m98.4-213.01-4.4 3.89m98.58 203.52-4.35 3.85" style="stroke-width:0.53;stroke:#BFBFBF"/><path d="M171.71 378.25h58.89-.09l.35-.02.34-.07.33-.12.3-.17.27-.22.23-.26.18-.3.14-.32.08-.33.03-.35h0v-15.22h0l-.03-.35-.08-.34-.14-.32-.18-.29-.23-.26-.27-.22-.3-.17-.33-.13-.34-.07-.26-.01h-58.89l.26.01-.35-.01-.34.04-.34.1-.31.15-.29.19-.25.25-.2.27-.17.31-.11.33-.05.34-.01.18v15.22l.01-.17v.34l.05.35.11.33.17.3.2.28.25.24.29.2.31.15.34.1.34.04z" style="stroke-width:0.53;fill:#FFFFFF;fill-opacity:0.50"/><text x="201.16" y="366.45" lengthAdjust="spacingAndGlyphs" style="font-size:5.69px;font-family:&quot;Liberation Sans&quot;" text-anchor="middle" textLength="56.01">SMART PROPERTIES</text><text x="201.16" y="374.65" lengthAdjust="spacingAndGlyphs" style="font-size:5.69px;font-family:&quot;Liberation Sans&quot;" text-anchor="middle" textLength="52.46">INVESTMENTS LLC</text><path d="M319.45 179.55h58.89-.09l.35-.02.34-.07.32-.12.3-.18.27-.22.23-.26.19-.29.14-.32.08-.34.03-.34h0v-7.03h0l-.03-.35-.08-.33-.14-.32-.19-.3-.23-.26-.27-.22-.3-.17-.32-.12-.34-.07-.26-.02h-58.89l.26.02-.35-.02-.34.04-.34.1-.31.15-.29.2-.25.24-.21.28-.16.3-.11.33-.05.35-.01.17v7.03l.01-.18v.35l.05.34.11.33.16.31.21.28.25.24.29.2.31.15.34.09.34.05z" style="stroke-width:0.53;fill:#FFFFFF;fill-opacity:0.50"/><text x="348.89" y="175.95" lengthAdjust="spacingAndGlyphs" style="font-size:5.69px;font-family:&quot;Liberation Sans&quot;" text-anchor="middle" textLength="56.01">SMART PROPERTIES</text><path d="M56.33 184.22h51.22-.09l.35-.01.34-.07.32-.12.3-.18.27-.22.23-.26.19-.29.13-.32.09-.34.03-.35h0v-15.22h0l-.03-.34-.09-.34-.13-.32-.19-.29-.23-.26-.27-.22-.3-.18-.32-.12-.34-.07-.26-.02H56.33l.26.02-.35-.02-.34.05-.33.09-.32.15-.28.2-.26.24-.2.28-.17.31-.11.33-.05.34-.01.17v15.22l.01-.17v.35l.05.34.11.33.17.31.2.28.26.24.28.2.32.14.33.1.34.04z" style="stroke-width:0.53;fill:#FFFFFF;fill-opacity:0.50"/><text x="81.94" y="172.43" lengthAdjust="spacingAndGlyphs" style="font-size:5.69px;font-family:&quot;Liberation Sans&quot;" text-anchor="middle" textLength="27.61">MIGUEL A</text><text x="81.94" y="180.62" lengthAdjust="spacingAndGlyphs" style="font-size:5.69px;font-family:&quot;Liberation Sans&quot;" text-anchor="middle" textLength="48.33">ALANIS-MORENO</text><path d="M51.39 467.74h67.22-.08l.34-.01.34-.07.33-.13.3-.17.27-.22.23-.26.19-.29.13-.32.09-.34.02-.35h0v-15.22h0l-.02-.35-.09-.33-.13-.32-.19-.3-.23-.26-.27-.22-.3-.17-.33-.12-.34-.07-.26-.02H51.39l.26.02-.34-.02-.35.04-.33.1-.32.15-.28.2-.25.24-.21.28-.16.3-.11.33-.06.35-.01.17v15.22l.01-.17v.35l.06.34.11.33.16.31.21.27.25.25.28.19.32.15.33.1.35.04z" style="stroke-width:0.53;fill:#FFFFFF;fill-opacity:0.50"/><text x="85" y="455.95" lengthAdjust="spacingAndGlyphs" style="font-size:5.69px;font-family:&quot;Liberation Sans&quot;" text-anchor="middle" textLength="45.61">4186 124TH ST,</text><text x="85" y="464.14" lengthAdjust="spacingAndGlyphs" style="font-size:5.69px;font-family:&quot;Liberation Sans&quot;" text-anchor="middle" textLength="64.34">MILWAUKEE, WI 53228</text><path d="M201.21 236.55h67.22-.09l.35-.02.34-.07.33-.12.3-.17.27-.22.23-.26.18-.3.14-.32.08-.33.03-.35h0v-15.22h0l-.03-.35-.08-.34-.14-.32-.18-.29-.23-.26-.27-.22-.3-.17-.33-.13-.34-.07-.26-.01h-67.22l.26.01-.35-.01-.34.04-.34.1-.31.15-.29.19-.25.24-.2.28-.17.31-.11.33-.05.34-.01.18v15.22l.01-.18v.35l.05.35.11.33.17.3.2.28.25.24.29.2.31.15.34.1.34.04z" style="stroke-width:0.53;fill:#FFFFFF;fill-opacity:0.50"/><text x="234.82" y="224.75" lengthAdjust="spacingAndGlyphs" style="font-size:5.69px;font-family:&quot;Liberation Sans&quot;" text-anchor="middle" textLength="47.4">3371 S 35TH ST,</text><text x="234.82" y="232.95" lengthAdjust="spacingAndGlyphs" style="font-size:5.69px;font-family:&quot;Liberation Sans&quot;" text-anchor="middle" textLength="64.34">MILWAUKEE, WI 53215</text><path d="M295.37 443.96h67.22l-.09-.01.35-.01.34-.07.32-.12.3-.18.27-.22.23-.26.19-.29.14-.32.08-.34.03-.34h0v-15.23h0l-.03-.34-.08-.34-.14-.32-.19-.29-.23-.26-.27-.22-.3-.18-.32-.12-.34-.07-.26-.02h-67.22l.26.02-.35-.01-.34.04-.34.09-.31.15-.29.2-.25.24-.21.28-.16.31-.11.33-.05.34-.01.17v15.23l.01-.18v.35l.05.34.11.33.16.31.21.28.25.24.29.2.31.14.34.1.34.04z" style="stroke-width:0.53;fill:#FFFFFF;fill-opacity:0.50"/><text x="328.98" y="432.16" lengthAdjust="spacingAndGlyphs" style="font-size:5.69px;font-family:&quot;Liberation Sans&quot;" text-anchor="middle" textLength="45.61">4186 124TH ST,</text><text x="328.98" y="440.36" lengthAdjust="spacingAndGlyphs" style="font-size:5.69px;font-family:&quot;Liberation Sans&quot;" text-anchor="middle" textLength="64.34">MILWAUKEE, WI 53228</text></g><g clip-path="url(#cpMC4wMHw0MzIuMDB8MC4wMHw1MDQuMDA=)"><circle cx="122.24" cy="134.66" r="1.95" style="stroke-width:0.71;stroke:none;fill:#F8766D"/><path d="m198.59 131.62 2.63 4.56h-5.26z" style="stroke-width:0.71;stroke:none;fill:#00BA38"/><path d="M264.57 136.62h3.91v-3.91h-3.91z" style="stroke-width:0.71;stroke:none;fill:#619CFF"/><text x="136.36" y="137.69" lengthAdjust="spacingAndGlyphs" style="font-size:8.80px;font-family:&quot;Liberation Sans Narrow&quot;" textLength="48.12">mprop address</text><text x="212.71" y="137.69" lengthAdjust="spacingAndGlyphs" style="font-size:8.80px;font-family:&quot;Liberation Sans Narrow&quot;" textLength="39.69">owner name</text><text x="280.64" y="137.69" lengthAdjust="spacingAndGlyphs" style="font-size:8.80px;font-family:&quot;Liberation Sans Narrow&quot;" textLength="40.5">wdfi address</text><text x="32.63" y="103.11" lengthAdjust="spacingAndGlyphs" style="font-size:12.00px;font-family:&quot;Liberation Sans Narrow&quot;" textLength="241.29">includes 5 parcels, 7 units, and 3 distinct owner names.</text><text x="32.63" y="42.27" lengthAdjust="spacingAndGlyphs" style="font-size:18.00px;font-weight:bold;font-family:&quot;Liberation Sans Narrow&quot;" textLength="293.54">SMART PROPERTIES INVESTMENTS LLC</text><text x="32.63" y="61.71" lengthAdjust="spacingAndGlyphs" style="font-size:18.00px;font-weight:bold;font-family:&quot;Liberation Sans Narrow&quot;" textLength="285.09">-- MIGUEL A ALANIS-MORENO -- SMART</text><text x="32.63" y="81.15" lengthAdjust="spacingAndGlyphs" style="font-size:18.00px;font-weight:bold;font-family:&quot;Liberation Sans Narrow&quot;" textLength="143.5">PROPERTIES Group</text></g></svg>