<svg xmlns="http://www.w3.org/2000/svg" width="768" height="768" class="svglite" viewBox="0 0 576 576"><defs><style><![CDATA[.svglite line,.svglite polyline,.svglite polygon,.svglite path,.svglite circle{fill:none;stroke:#000000;stroke-linecap:round;stroke-linejoin:round;stroke-miterlimit:10.00}.svglite text{white-space:pre}]]></style></defs><rect width="100%" height="100%" style="stroke-linecap:round;stroke-linejoin:round;stroke-miterlimit:10.00;stroke:none;fill:#FFFFFF"/><defs><clipPath id="cpMC4wMHw1NzYuMDB8MC4wMHw1NzYuMDA="><path d="M0 0h576v576H0z"/></clipPath></defs><g clip-path="url(#cpMC4wMHw1NzYuMDB8MC4wMHw1NzYuMDA=)"><path d="M0 0h576v576H0z" style="stroke-width:1.07;stroke:none;fill:#FFFFFF"/></g><defs><clipPath id="cpMzIuNjN8NTQ2LjExfDE0MC4zMHw1NDMuMzc="><path d="M32.63 140.3h513.48v403.07H32.63z"/></clipPath></defs><g clip-path="url(#cpMzIuNjN8NTQ2LjExfDE0MC4zMHw1NDMuMzc=)"><path d="m266.67 382.26.53-1.14.52-1.14.5-1.14.49-1.14.47-1.14.46-1.13.44-1.14.42-1.13.41-1.14.4-1.13.38-1.13.37-1.13.35-1.13.33-1.13.32-1.13.3-1.13.29-1.13.28-1.12.26-1.13.24-1.12.23-1.13.21-1.12.2-1.12.18-1.12.17-1.12.15-1.12.14-1.12.12-1.12.11-1.11.09-1.12.08-1.11.06-1.12.04-1.11.03-1.11.02-1.11v-1.12l-.01-1.11-.04-1.1-.04-1.11-.06-1.11-.08-1.11-.09-1.1-.1-1.11-.13-1.1-.13-1.1-.15-1.1-.17-1.11-.18-1.1-.2-1.1-.21-1.09-.23-1.1-.24-1.1-.26-1.1-.28-1.09-.28-1.1-.31-1.09-.32-1.09-.33-1.09-.35-1.09-.37-1.09-.38-1.09-.39-1.09-.41-1.09-.43-1.09-.44-1.08-.45-1.09-.48-1.08-.48-1.08-.5-1.09-.52-1.08-.53-1.08-.55-1.08-.56-1.08-.58-1.08-.59-1.07-.61-1.08-.63-1.07-.63-1.08-.66-1.07-.67-1.08-.68-1.07-.7-1.07-.71-1.07-.73-1.07-.75-1.07-.76-1.07-.78-1.06-.79-1.07-.8-1.06-.82-1.07-.84-1.06-.85-1.07-.87-1.06-.88-1.06-.9-1.06-.91-1.06-.93-1.06-.94-1.05-.96-1.06m21.06 108.77 2.2-.89 2.18-.89 2.17-.89 2.15-.9 2.13-.91 2.11-.91 2.09-.92 2.08-.93 2.06-.93 2.04-.93 2.02-.95 2-.95 1.98-.95 1.97-.96 1.95-.97 1.93-.97 1.91-.98 1.89-.98 1.88-.99 1.86-1 1.84-1 1.82-1.01 1.8-1.01 1.79-1.02 1.76-1.02 1.75-1.03 1.73-1.04 1.71-1.05 1.7-1.04 1.68-1.06 1.65-1.06 1.64-1.07 1.62-1.07 1.61-1.08 1.58-1.08 1.57-1.09 1.55-1.1 1.53-1.1 1.51-1.11 1.5-1.11 1.47-1.12 1.46-1.13 1.44-1.13 1.42-1.14 1.41-1.14 1.38-1.15 1.37-1.16 1.35-1.16 1.33-1.16 1.31-1.18 1.3-1.18 1.28-1.18 1.25-1.19 1.25-1.2 1.22-1.2 1.2-1.21 1.19-1.21 1.17-1.22 1.15-1.23 1.13-1.23 1.11-1.24 1.1-1.25 1.07-1.25 1.06-1.25 1.04-1.26 1.02-1.27 1.01-1.27.99-1.28.96-1.29.95-1.29.94-1.3.91-1.3.89-1.31.88-1.31.86-1.32.84-1.33.83-1.33.8-1.34.79-1.35.77-1.35.75-1.35.73-1.37.71-1.36.7-1.38.68-1.38.66-1.38.64-1.39.62-1.4.61-1.41.58-1.41.57-1.41.55-1.42.53-1.43.52-1.43.5-1.44.47-1.45.46-1.45.44-1.45.43-1.47" style="stroke-width:1.07;stroke:#000000;stroke-opacity:0.10;stroke-linecap:butt"/><path d="m266.67 382.26.44-1.14.43-1.13.42-1.14.41-1.13.39-1.13.38-1.14.36-1.13.35-1.13.34-1.13.32-1.13.31-1.12.3-1.13.29-1.13.27-1.12.25-1.13.25-1.12.23-1.13.21-1.12.21-1.12.19-1.12.17-1.12.17-1.12.15-1.12.13-1.12.13-1.12.1-1.11.1-1.12.08-1.12.07-1.11.06-1.11.04-1.12.03-1.11.01-1.11.01-1.11-.01-1.11-.03-1.11-.04-1.11-.05-1.11-.06-1.1-.08-1.11-.09-1.11-.11-1.1-.12-1.1-.13-1.11-.15-1.1-.16-1.1-.17-1.1-.18-1.1-.2-1.1-.22-1.1-.22-1.1-.24-1.1-.25-1.09-.27-1.1-.28-1.09-.29-1.1-.31-1.09-.32-1.09-.33-1.1-.35-1.09-.36-1.09-.37-1.09-.39-1.09-.4-1.08-.42-1.09-.42-1.09-.44-1.08-.46-1.09-.47-1.08-.48-1.09-.49-1.08-.51-1.08-.52-1.08-.54-1.08-.54-1.08-.57-1.08-.57-1.08-.59-1.08-.6-1.07-.62-1.08-.63-1.08-.64-1.07-.65-1.07-.67-1.08-.68-1.07-.7-1.07-.71-1.07-.72-1.07-.74-1.07-.75-1.07-.76-1.07-.78-1.06-.79-1.07-.8-1.06-.82-1.07-.83-1.06-.84-1.07-.86-1.06-.87-1.06m21.06 108.77 2.11-.92 2.09-.92 2.08-.92 2.06-.93 2.04-.94 2.03-.94 2.01-.94 1.99-.95 1.98-.96 1.97-.96 1.94-.97 1.93-.97 1.92-.98 1.89-.98 1.88-.99 1.87-.99 1.85-1 1.83-1 1.82-1.01 1.8-1.02 1.78-1.02 1.77-1.02 1.75-1.03 1.74-1.04 1.72-1.04 1.7-1.05 1.69-1.05 1.67-1.05 1.65-1.07 1.64-1.06 1.62-1.08 1.6-1.07 1.59-1.09 1.58-1.08 1.55-1.1 1.54-1.1 1.53-1.1 1.51-1.11 1.49-1.12 1.47-1.12 1.46-1.12 1.45-1.13 1.42-1.14 1.41-1.14 1.4-1.15 1.37-1.15 1.37-1.16 1.34-1.16 1.33-1.17 1.31-1.17 1.3-1.18 1.28-1.18 1.27-1.19 1.24-1.19 1.24-1.2 1.21-1.21 1.2-1.21 1.18-1.21 1.17-1.23 1.15-1.22 1.14-1.23 1.11-1.24 1.11-1.24 1.08-1.25 1.07-1.25 1.05-1.26 1.04-1.26 1.02-1.27 1.01-1.27.98-1.28.98-1.29.95-1.28.94-1.3.92-1.3.91-1.3.89-1.31.88-1.32.86-1.32.84-1.33.82-1.33.81-1.34.8-1.34.77-1.35.76-1.35.75-1.36.73-1.36.71-1.37.7-1.37.68-1.38.66-1.39.65-1.39.63-1.39.61-1.4.6-1.41.58-1.41.57-1.42.55-1.42.53-1.42.52-1.44" style="stroke-width:1.07;stroke:#000000;stroke-opacity:0.10;stroke-linecap:butt"/><path d="m266.67 382.26.36-1.13.34-1.13.33-1.13.33-1.13.31-1.13.3-1.13.28-1.12.28-1.13.26-1.13.26-1.12.24-1.12.23-1.13.22-1.12.2-1.12.2-1.13.18-1.12.17-1.12.16-1.12.15-1.11.13-1.12.13-1.12.11-1.12.1-1.11.09-1.12.08-1.11.07-1.12.05-1.11.04-1.12.04-1.11.02-1.11v-2.22l-.01-1.11-.03-1.11-.04-1.11-.05-1.11-.06-1.1-.07-1.11-.09-1.11-.09-1.1-.11-1.11-.12-1.1-.13-1.1-.15-1.11-.15-1.1-.17-1.1-.17-1.1-.19-1.1-.2-1.1-.22-1.1-.22-1.1-.24-1.09-.25-1.1-.25-1.1-.28-1.09-.28-1.1-.29-1.09-.31-1.09-.31-1.1-.33-1.09-.34-1.09-.36-1.09-.36-1.09-.38-1.09-.38-1.09-.4-1.09-.41-1.09-.42-1.08-.44-1.09-.44-1.08-.46-1.09-.47-1.08-.48-1.09-.49-1.08-.5-1.08-.52-1.08-.53-1.08-.53-1.08-.55-1.08-.57-1.08-.57-1.08-.58-1.08-.6-1.08-.61-1.07-.62-1.08-.63-1.07-.64-1.08-.66-1.07-.66-1.08-.68-1.07-.69-1.07-.7-1.07-.72-1.07-.72-1.07-.74-1.07-.74-1.07-.76-1.07-.77-1.06-.79-1.07m21.06 108.77 2.01-.95 2-.95 1.99-.95 1.97-.96 1.96-.96 1.94-.97 1.93-.97 1.92-.98 1.9-.98 1.89-.99 1.87-.99 1.85-.99 1.85-1 1.83-1.01 1.81-1.01 1.8-1.01 1.79-1.02 1.77-1.03 1.76-1.03 1.74-1.03 1.73-1.04 1.71-1.04 1.7-1.05 1.69-1.05 1.67-1.05 1.66-1.07 1.64-1.06 1.63-1.07 1.61-1.08 1.6-1.08 1.59-1.08 1.57-1.09 1.55-1.09 1.55-1.1 1.52-1.11 1.52-1.1 1.5-1.12 1.48-1.11 1.47-1.12 1.46-1.13 1.44-1.13 1.43-1.14 1.41-1.14 1.4-1.14 1.39-1.15 1.37-1.16 1.35-1.16 1.34-1.16 1.33-1.17 1.31-1.17 1.3-1.18 1.29-1.18 1.27-1.19 1.25-1.19 1.24-1.2 1.23-1.2 1.21-1.2 1.2-1.21 1.19-1.22 1.17-1.22 1.15-1.22 1.14-1.23 1.13-1.24 1.11-1.23 1.1-1.25 1.08-1.24 1.07-1.26 1.06-1.25 1.04-1.27 1.03-1.26 1.01-1.27.99-1.28.99-1.28.97-1.28.95-1.29.94-1.3.93-1.3.91-1.3.9-1.31.88-1.31.87-1.32.85-1.32.84-1.33.83-1.33.81-1.34.8-1.34.78-1.34.77-1.35.75-1.36.74-1.36.73-1.36.71-1.37.7-1.38.68-1.37.67-1.39.65-1.38.64-1.4.63-1.39.61-1.41" style="stroke-width:1.07;stroke:#000000;stroke-opacity:0.10;stroke-linecap:butt"/><path d="m266.67 382.26.27-1.13.26-1.12.25-1.13.24-1.12.23-1.13.22-1.12.21-1.12.2-1.12.19-1.12.18-1.13.17-1.12.16-1.12.15-1.11.15-1.12.13-1.12.12-1.12.11-1.12.1-1.11.1-1.12.08-1.11.07-1.12.07-1.11.05-1.12.04-1.11.03-1.11.03-1.11.01-1.12.01-1.11-.01-1.11-.02-1.11-.02-1.11-.04-1.1-.04-1.11-.06-1.11-.06-1.11-.08-1.1-.08-1.11-.1-1.1-.1-1.11-.12-1.1-.12-1.11-.13-1.1-.15-1.1-.15-1.1-.16-1.11-.18-1.1-.18-1.1-.19-1.1-.21-1.1-.21-1.09-.22-1.1-.23-1.1-.25-1.1-.25-1.09-.26-1.1-.27-1.09-.28-1.1-.3-1.09-.3-1.1-.31-1.09-.32-1.09-.33-1.1-.34-1.09-.35-1.09-.36-1.09-.37-1.09-.38-1.09-.39-1.09-.4-1.08-.41-1.09-.42-1.09-.43-1.08-.44-1.09-.45-1.09-.46-1.08-.46-1.09-.48-1.08-.49-1.08-.5-1.08-.51-1.09-.51-1.08-.53-1.08-.54-1.08-.55-1.08-.55-1.08-.57-1.08-.58-1.08-.58-1.07-.6-1.08-.61-1.08-.61-1.07-.63-1.08-.64-1.07-.64-1.08-.66-1.07-.66-1.07-.68-1.08-.68-1.07-.7-1.07m21.06 108.77 1.92-.98 1.91-.98 1.9-.98 1.88-.99 1.87-.99 1.86-.99 1.85-1 1.83-1.01 1.83-1 1.8-1.01 1.8-1.02 1.79-1.02 1.77-1.02 1.76-1.03 1.75-1.03 1.73-1.04 1.73-1.04 1.71-1.04 1.69-1.05 1.69-1.05 1.67-1.06 1.66-1.06 1.65-1.06 1.64-1.07 1.62-1.07 1.61-1.08 1.6-1.08 1.59-1.08 1.57-1.09 1.56-1.09 1.55-1.1 1.54-1.1 1.52-1.1 1.51-1.11 1.5-1.11 1.49-1.12 1.47-1.12 1.47-1.12 1.45-1.13 1.43-1.13 1.43-1.14 1.41-1.14 1.4-1.15 1.39-1.15 1.37-1.15 1.37-1.16 1.35-1.16 1.33-1.16 1.33-1.17 1.31-1.17 1.3-1.18 1.29-1.18 1.28-1.19 1.26-1.19 1.25-1.19 1.24-1.2 1.23-1.2 1.21-1.2 1.2-1.21 1.19-1.22 1.18-1.21 1.16-1.23 1.15-1.22 1.14-1.23 1.13-1.23 1.11-1.24 1.1-1.24 1.09-1.25 1.08-1.25 1.07-1.25 1.05-1.26 1.04-1.26 1.03-1.27 1.01-1.27 1-1.27.99-1.28.98-1.28.97-1.29.95-1.29.94-1.3.93-1.29.91-1.31.91-1.3.89-1.31.88-1.32.86-1.32.85-1.32.85-1.33.82-1.33.82-1.33.8-1.34.8-1.34.78-1.35.76-1.35.76-1.36.74-1.35.73-1.37.71-1.36.71-1.38M266.67 382.26l-2.13.61-2.13.6-2.13.61-2.13.61-2.12.61-2.13.61-2.13.6-2.13.61-2.13.61-2.12.61-2.13.61-2.13.6-2.13.61-2.13.61-2.13.61-2.12.61-2.13.6-2.13.61-2.13.61-2.13.61-2.13.61-2.12.6-2.13.61-2.13.61-2.13.61-2.13.61-2.13.6-2.12.61-2.13.61-2.13.61-2.13.61-2.13.6-2.13.61-2.12.61-2.13.61-2.13.61-2.13.6-2.13.61-2.13.61-2.12.61-2.13.61-2.13.6-2.13.61-2.13.61-2.12.61-2.13.61-2.13.6-2.13.61-2.13.61-2.13.61-2.12.61-2.13.6-2.13.61-2.13.61-2.13.61-2.13.61-2.12.6-2.13.61-2.13.61-2.13.61-2.13.61-2.13.6-2.12.61-2.13.61-2.13.61-2.13.61-2.13.6-2.13.61-2.12.61-2.13.61-2.13.61-2.13.6-2.13.61-2.13.61-2.12.61-2.13.61-2.13.6-2.13.61-2.13.61-2.12.61-2.13.61-2.13.6-2.13.61-2.13.61-2.13.61-2.12.61-2.13.6-2.13.61-2.13.61-2.13.61-2.13.61-2.12.6-2.13.61-2.13.61-2.13.61-2.13.61-2.13.6-2.12.61-2.13.61" style="stroke-width:1.07;stroke:#000000;stroke-opacity:0.10;stroke-linecap:butt"/><path d="m266.67 382.26 1.83-1.01 1.81-1.01 1.81-1.01 1.8-1.01 1.78-1.02 1.78-1.03 1.76-1.02 1.76-1.03 1.74-1.03 1.73-1.04 1.73-1.04 1.71-1.04 1.7-1.05 1.69-1.05 1.68-1.05 1.67-1.06 1.66-1.06 1.65-1.06 1.64-1.07 1.63-1.07 1.62-1.08 1.61-1.07 1.59-1.08 1.59-1.09 1.57-1.08 1.57-1.1 1.55-1.09 1.55-1.1 1.53-1.1 1.53-1.1 1.51-1.11 1.5-1.11 1.49-1.12 1.48-1.12 1.47-1.12 1.46-1.12 1.45-1.13 1.44-1.13 1.43-1.14 1.42-1.14 1.41-1.14 1.39-1.15 1.39-1.15 1.38-1.15 1.36-1.15 1.36-1.16 1.34-1.17 1.34-1.16 1.32-1.17 1.31-1.18 1.31-1.17 1.29-1.18 1.28-1.18 1.27-1.19 1.26-1.19 1.25-1.2 1.24-1.19 1.23-1.2 1.22-1.21 1.2-1.2 1.2-1.21 1.19-1.22 1.18-1.22 1.16-1.22 1.16-1.22 1.14-1.23 1.14-1.23 1.12-1.24 1.11-1.23 1.11-1.24 1.09-1.25 1.08-1.25 1.07-1.25 1.06-1.26 1.05-1.25 1.04-1.27 1.03-1.26 1.02-1.27 1.01-1.27 1-1.28.98-1.28.98-1.28.97-1.29.95-1.28.95-1.3.93-1.29.93-1.3.91-1.31.9-1.3.9-1.31.88-1.32.87-1.31.86-1.32.85-1.33.84-1.32.83-1.33.82-1.34.81-1.34.8-1.34m126.11 78.57-2.02 1.82-2.01 1.82-2.02 1.82-2.02 1.83-2.02 1.82-2.01 1.82-2.02 1.82-2.02 1.82-2.02 1.83-2.02 1.82-2.01 1.82-2.02 1.82-2.02 1.82-2.02 1.83-2.01 1.82-2.02 1.82-2.02 1.82-2.02 1.82-2.01 1.82-2.02 1.83-2.02 1.82-2.02 1.82-2.02 1.82-2.01 1.82-2.02 1.83-2.02 1.82-2.02 1.82-2.01 1.82-2.02 1.82-2.02 1.82-2.02 1.83-2.01 1.82-2.02 1.82-2.02 1.82-2.02 1.82-2.02 1.83-2.01 1.82-2.02 1.82-2.02 1.82-2.02 1.82-2.01 1.82-2.02 1.83-2.02 1.82-2.02 1.82-2.01 1.82-2.02 1.82-2.02 1.83-2.02 1.82-2.02 1.82-2.01 1.82-2.02 1.82-2.02 1.82-2.02 1.83-2.01 1.82-2.02 1.82-2.02 1.82-2.02 1.82-2.01 1.83-2.02 1.82-2.02 1.82-2.02 1.82-2.02 1.82-2.01 1.82-2.02 1.83-2.02 1.82-2.02 1.82-2.01 1.82-2.02 1.82-2.02 1.83-2.02 1.82-2.01 1.82-2.02 1.82-2.02 1.82-2.02 1.83-2.02 1.82-2.01 1.82-2.02 1.82-2.02 1.82-2.02 1.82-2.01 1.83-2.02 1.82-2.02 1.82-2.02 1.82-2.02 1.82-2.01 1.83-2.02 1.82-2.02 1.82-2.02 1.82-2.01 1.82-2.02 1.82-2.02 1.83-2.02 1.82-2.01 1.82-2.02 1.82-2.02 1.82-2.02 1.83-2.02 1.82-2.01 1.82-2.02 1.82m199.75-180.36-1.24-.81-1.24-.81-1.25-.8-1.24-.81-1.25-.81-1.24-.81-1.25-.8-1.24-.81-1.25-.81-1.25-.8-1.25-.81-1.25-.8-1.25-.81-1.25-.8-1.25-.8-1.25-.81-1.25-.8-1.26-.81-1.25-.8-1.26-.8-1.25-.8-1.26-.81-1.25-.8-1.26-.8-1.26-.8-1.26-.8-1.25-.8-1.26-.8-1.26-.8-1.27-.8-1.26-.8-1.26-.8-1.26-.8-1.27-.8-1.26-.79-1.26-.8-1.27-.8-1.27-.8-1.26-.79-1.27-.8-1.27-.8-1.27-.79-1.27-.8-1.27-.79-1.27-.8-1.27-.79-1.27-.8-1.27-.79-1.28-.8-1.27-.79-1.27-.79-1.28-.8-1.28-.79-1.27-.79-1.28-.79-1.28-.79-1.28-.8-1.27-.79-1.28-.79-1.28-.79-1.29-.79-1.28-.79-1.28-.79-1.28-.79-1.29-.79-1.28-.79-1.28-.78-1.29-.79-1.29-.79-1.28-.79-1.29-.79-1.29-.78-1.29-.79-1.29-.79-1.29-.78-1.29-.79-1.29-.78-1.29-.79-1.29-.78-1.3-.79-1.29-.78-1.3-.79-1.29-.78-1.3-.78-1.29-.79-1.3-.78-1.3-.78-1.3-.78-1.3-.78-1.29-.79-1.31-.78-1.3-.78-1.3-.78-1.3-.78-1.3-.78-1.31-.78-1.3-.78-1.31-.78-1.3-.78M266.67 382.26l.18-1.12.17-1.12.17-1.12.16-1.12.15-1.12.14-1.12.13-1.12.13-1.12.12-1.11.1-1.12.11-1.12.09-1.11.08-1.12.08-1.11.07-1.12.06-1.11.06-1.12.04-1.11.04-1.11.03-1.11.02-1.12.01-1.11v-2.22l-.01-1.11-.02-1.11-.03-1.11-.03-1.11-.05-1.1-.05-1.11-.06-1.11-.07-1.11-.07-1.1-.09-1.11-.09-1.1-.1-1.11-.1-1.1-.12-1.11-.12-1.1-.14-1.1-.14-1.11-.15-1.1-.15-1.1-.17-1.1-.17-1.1-.18-1.1-.19-1.1-.19-1.1-.21-1.1-.21-1.1-.22-1.1-.23-1.1-.24-1.09-.24-1.1-.26-1.1-.26-1.09-.27-1.1-.27-1.09-.29-1.1-.29-1.09-.3-1.1-.31-1.09-.32-1.09-.32-1.09-.34-1.1-.34-1.09-.35-1.09-.36-1.09-.36-1.09-.38-1.09-.38-1.09-.39-1.09-.4-1.09-.4-1.08-.42-1.09-.42-1.09-.43-1.08-.44-1.09-.44-1.09-.46-1.08-.46-1.08-.47-1.09-.48-1.08-.48-1.09-.5-1.08-.5-1.08-.51-1.08-.52-1.08-.53-1.09-.53-1.08-.54-1.08-.56-1.08-.55-1.07-.57-1.08-.58-1.08-.58-1.08-.59-1.08-.6-1.07-.61-1.08" style="stroke-width:1.07;stroke:#000000;stroke-opacity:0.10;stroke-linecap:butt"/><path d="m266.67 382.26 1.73-1.04 1.73-1.04 1.72-1.04 1.7-1.04 1.7-1.05 1.7-1.05 1.68-1.05 1.67-1.06 1.67-1.06 1.65-1.06 1.65-1.06 1.64-1.07 1.63-1.07 1.63-1.07 1.61-1.08 1.61-1.07 1.59-1.08 1.59-1.09 1.58-1.08 1.57-1.09 1.56-1.09 1.56-1.1 1.54-1.1 1.54-1.1 1.53-1.1 1.52-1.11 1.51-1.1 1.5-1.12 1.49-1.11 1.49-1.12 1.47-1.12 1.47-1.12 1.46-1.13 1.45-1.12 1.44-1.14 1.44-1.13 1.42-1.14 1.42-1.14 1.41-1.14 1.39-1.14 1.4-1.15 1.38-1.15 1.37-1.15 1.36-1.16 1.36-1.16 1.35-1.16 1.34-1.17 1.33-1.16 1.32-1.17 1.31-1.18 1.31-1.17 1.29-1.18 1.29-1.18 1.28-1.19 1.27-1.18 1.26-1.19 1.25-1.2 1.25-1.19 1.23-1.2 1.23-1.2 1.22-1.21 1.21-1.2 1.2-1.21 1.19-1.21 1.19-1.22 1.17-1.22 1.17-1.22 1.16-1.22 1.15-1.23 1.14-1.23 1.13-1.23 1.12-1.23 1.12-1.24 1.11-1.24 1.09-1.24 1.09-1.25 1.08-1.25 1.08-1.25 1.06-1.25 1.06-1.26 1.04-1.26 1.04-1.26 1.03-1.27 1.02-1.27 1.01-1.27 1.01-1.27.99-1.28.99-1.28.97-1.28.97-1.28.96-1.29.96-1.29.94-1.3.93-1.29.93-1.3.92-1.3.91-1.31.9-1.31.89-1.31M266.67 382.26l.09-1.12.09-1.11.08-1.12.08-1.11.07-1.12.06-1.11.06-1.12.05-1.11.04-1.11.04-1.12.03-1.11.03-1.11.01-1.11.02-1.11v-3.34l-.01-1.11-.02-1.11-.03-1.1-.03-1.11-.04-1.11-.04-1.11-.05-1.11-.06-1.11-.06-1.1-.07-1.11-.07-1.11-.08-1.1-.09-1.11-.09-1.1-.1-1.11-.11-1.1-.11-1.11-.12-1.1-.13-1.1-.13-1.11-.13-1.1-.15-1.1-.15-1.11-.15-1.1-.17-1.1-.17-1.1-.17-1.1-.18-1.1-.19-1.1-.19-1.1-.2-1.1-.21-1.1-.21-1.1-.22-1.1-.23-1.09-.23-1.1-.24-1.1-.24-1.1-.25-1.09-.26-1.1-.26-1.09-.27-1.1-.27-1.09-.29-1.1-.28-1.09-.3-1.1-.3-1.09-.31-1.1-.31-1.09-.32-1.09-.32-1.09-.33-1.1-.34-1.09-.35-1.09-.35-1.09-.35-1.09-.37-1.09-.37-1.09-.37-1.09-.38-1.09-.39-1.09-.4-1.09-.4-1.08-.4-1.09-.42-1.09-.42-1.09-.42-1.08-.43-1.09-.44-1.08-.45-1.09-.45-1.09-.45-1.08-.47-1.09-.47-1.08-.47-1.08-.48-1.09-.49-1.08-.5-1.08-.5-1.09-.5-1.08-.52-1.08-.52-1.08" style="stroke-width:1.07;stroke:#000000;stroke-opacity:0.10;stroke-linecap:butt"/><path d="m266.67 382.26 1.64-1.07 1.63-1.07 1.63-1.07 1.62-1.07 1.61-1.08 1.61-1.07 1.6-1.08 1.6-1.08 1.58-1.09 1.58-1.08 1.58-1.09 1.57-1.09 1.56-1.1 1.55-1.09 1.55-1.1 1.54-1.1 1.53-1.1 1.53-1.1 1.52-1.11 1.51-1.1 1.51-1.11 1.5-1.12 1.49-1.11 1.49-1.12 1.48-1.12 1.47-1.12 1.47-1.12 1.46-1.12 1.45-1.13 1.45-1.13 1.44-1.13 1.43-1.14 1.43-1.13 1.42-1.14 1.41-1.14 1.41-1.14 1.4-1.15 1.39-1.15 1.39-1.15 1.38-1.15 1.37-1.15 1.37-1.16 1.36-1.15 1.35-1.16 1.35-1.17 1.34-1.16 1.33-1.17 1.33-1.17 1.32-1.17 1.31-1.17 1.31-1.17 1.3-1.18 1.29-1.18 1.29-1.18 1.28-1.19 1.27-1.18 1.27-1.19 1.26-1.19 1.25-1.19 1.24-1.2 1.24-1.2 1.24-1.2 1.22-1.2 1.22-1.2 1.21-1.21 1.21-1.2 1.2-1.21 1.19-1.22 1.19-1.21 1.18-1.22 1.17-1.22 1.17-1.22 1.16-1.22 1.15-1.23 1.14-1.22 1.14-1.23 1.14-1.23 1.12-1.24 1.12-1.23 1.11-1.24 1.11-1.24 1.1-1.25 1.09-1.24 1.09-1.25 1.07-1.25 1.08-1.25 1.06-1.25 1.06-1.26 1.05-1.26 1.05-1.26 1.04-1.26 1.03-1.26 1.03-1.27 1.01-1.27 1.02-1.27 1-1.27 1-1.28.99-1.28.99-1.28M266.67 382.26v-1.11l.01-1.11-.01-1.11v-1.12l-.01-1.11-.02-1.1-.02-1.11-.02-1.11-.03-1.11-.04-1.11-.04-1.11-.04-1.11-.05-1.11-.05-1.1-.05-1.11-.06-1.11-.07-1.11-.07-1.1-.07-1.11-.08-1.1-.08-1.11-.09-1.11-.09-1.1-.1-1.11-.1-1.1-.11-1.11-.11-1.1-.11-1.11-.12-1.1-.12-1.1-.13-1.11-.13-1.1-.14-1.1-.14-1.11-.15-1.1-.15-1.1-.15-1.1-.16-1.1-.16-1.11-.17-1.1-.17-1.1-.18-1.1-.18-1.1-.19-1.1-.19-1.1-.19-1.1-.2-1.1-.2-1.1-.21-1.1-.22-1.09-.21-1.1-.22-1.1-.23-1.1-.23-1.1-.24-1.09-.24-1.1-.24-1.1-.25-1.09-.25-1.1-.26-1.1-.26-1.09-.27-1.1-.27-1.09-.27-1.1-.28-1.09-.29-1.1-.29-1.09-.29-1.1-.3-1.09-.3-1.09-.31-1.1-.31-1.09-.31-1.09-.32-1.1-.33-1.09-.33-1.09-.33-1.09-.34-1.09-.34-1.1-.35-1.09-.35-1.09-.35-1.09-.36-1.09-.37-1.09-.37-1.09-.37-1.09-.38-1.09-.38-1.09-.39-1.09-.39-1.08-.4-1.09-.4-1.09-.4-1.09-.41-1.09-.42-1.08-.41-1.09-.43-1.09-.43-1.08-.43-1.09" style="stroke-width:1.07;stroke:#000000;stroke-opacity:0.10;stroke-linecap:butt"/><path d="m266.67 382.26 1.55-1.1 1.54-1.1 1.54-1.1 1.53-1.1 1.53-1.1 1.52-1.11 1.52-1.1 1.51-1.11 1.51-1.11 1.5-1.11 1.5-1.11 1.5-1.12 1.49-1.11 1.48-1.12 1.48-1.12 1.48-1.12 1.47-1.12 1.46-1.12 1.47-1.13 1.45-1.13 1.45-1.12 1.45-1.13 1.44-1.13 1.44-1.14 1.43-1.13 1.43-1.14 1.42-1.13 1.42-1.14 1.41-1.14 1.41-1.15 1.41-1.14 1.4-1.14 1.39-1.15 1.39-1.15 1.38-1.15 1.38-1.15 1.38-1.15 1.37-1.16 1.36-1.15 1.37-1.16 1.35-1.16 1.35-1.16 1.35-1.16 1.34-1.17 1.34-1.16 1.33-1.17 1.33-1.17 1.32-1.17 1.32-1.17 1.31-1.17 1.31-1.18 1.3-1.17 1.3-1.18 1.3-1.18 1.28-1.18 1.29-1.18 1.28-1.19 1.27-1.18 1.27-1.19 1.27-1.19 1.26-1.19 1.25-1.19 1.26-1.19 1.24-1.2 1.24-1.19 1.24-1.2 1.23-1.2 1.23-1.2 1.22-1.2 1.22-1.21 1.21-1.2 1.21-1.21 1.2-1.21 1.2-1.21 1.19-1.21 1.19-1.22 1.19-1.21 1.18-1.22 1.17-1.22 1.17-1.22 1.17-1.22 1.16-1.22 1.15-1.22 1.15-1.23 1.15-1.23 1.14-1.23 1.14-1.23 1.13-1.23 1.12-1.23 1.13-1.24 1.11-1.24 1.12-1.23 1.1-1.24 1.11-1.25 1.09-1.24 1.1-1.24 1.09-1.25 1.08-1.25 1.08-1.25M266.67 382.26l-.08-1.11-.09-1.1-.08-1.11-.09-1.11-.09-1.1-.1-1.11-.1-1.1-.1-1.11-.1-1.1-.1-1.11-.11-1.1-.11-1.11-.12-1.1-.11-1.1-.12-1.11-.12-1.1-.13-1.11-.12-1.1-.13-1.1-.13-1.11-.14-1.1-.14-1.1-.14-1.1-.14-1.11-.15-1.1-.14-1.1-.16-1.1-.15-1.11-.16-1.1-.15-1.1-.17-1.1-.16-1.1-.17-1.1-.17-1.1-.17-1.11-.17-1.1-.18-1.1-.18-1.1-.19-1.1-.18-1.1-.19-1.1-.19-1.1-.2-1.1-.19-1.1-.2-1.1-.2-1.1-.21-1.09-.21-1.1-.21-1.1-.21-1.1-.21-1.1-.22-1.1-.22-1.1-.23-1.09-.22-1.1-.23-1.1-.23-1.1-.24-1.09-.23-1.1-.24-1.1-.24-1.1-.25-1.09-.25-1.1-.25-1.1-.25-1.09-.26-1.1-.25-1.1-.26-1.09-.27-1.1-.26-1.09-.27-1.1-.28-1.09-.27-1.1-.28-1.09-.28-1.1-.28-1.09-.28-1.1-.29-1.09-.29-1.1-.3-1.09-.29-1.09-.3-1.1-.3-1.09-.31-1.1-.3-1.09-.31-1.09-.31-1.1-.32-1.09-.32-1.09-.32-1.09-.32-1.1-.32-1.09-.33-1.09-.33-1.09-.34-1.09-.33-1.1-.34-1.09-.34-1.09-.35-1.09" style="stroke-width:1.07;stroke:#000000;stroke-opacity:0.10;stroke-linecap:butt"/><path d="m266.67 382.26 1.45-1.13 1.45-1.13 1.45-1.13 1.44-1.13 1.45-1.13 1.44-1.13 1.43-1.13 1.44-1.14 1.43-1.13 1.42-1.14 1.43-1.13 1.42-1.14 1.42-1.14 1.42-1.14 1.41-1.14 1.41-1.14 1.41-1.14 1.4-1.15 1.4-1.14 1.4-1.15 1.4-1.14 1.39-1.15 1.39-1.15 1.39-1.15 1.38-1.15 1.39-1.15 1.38-1.15 1.37-1.15 1.37-1.15 1.38-1.16 1.36-1.15 1.37-1.16 1.36-1.16 1.36-1.16 1.35-1.15 1.36-1.16 1.35-1.17 1.35-1.16 1.34-1.16 1.34-1.16 1.34-1.17 1.34-1.16 1.33-1.17 1.33-1.17 1.33-1.17 1.32-1.17 1.32-1.17 1.32-1.17 1.32-1.17 1.31-1.17 1.31-1.18 1.31-1.17 1.3-1.18 1.3-1.17 1.3-1.18 1.3-1.18 1.29-1.18 1.29-1.18 1.29-1.18 1.28-1.18 1.28-1.19 1.28-1.18 1.28-1.19 1.27-1.18 1.27-1.19 1.27-1.19 1.26-1.19 1.27-1.19 1.25-1.19 1.26-1.19 1.25-1.19 1.25-1.2 1.25-1.19 1.24-1.2 1.25-1.19 1.23-1.2 1.24-1.2 1.23-1.2 1.23-1.2 1.23-1.2 1.22-1.2 1.22-1.2 1.22-1.21 1.22-1.2 1.21-1.21 1.21-1.2 1.21-1.21 1.2-1.21 1.2-1.21 1.2-1.21 1.2-1.21 1.19-1.21 1.19-1.22 1.19-1.21 1.18-1.22 1.18-1.21 1.18-1.22 1.18-1.22 1.17-1.22M266.67 382.26l-.17-1.1-.17-1.1-.17-1.11-.17-1.1-.18-1.1-.17-1.1-.17-1.1-.18-1.1-.17-1.1-.18-1.1-.18-1.1-.18-1.1-.18-1.1-.18-1.1-.18-1.1-.18-1.1-.18-1.1-.19-1.11-.18-1.1-.19-1.1-.19-1.1-.18-1.1-.19-1.1-.19-1.1-.19-1.1-.19-1.1-.19-1.1-.2-1.1-.19-1.09-.2-1.1-.19-1.1-.2-1.1-.2-1.1-.19-1.1-.2-1.1-.2-1.1-.2-1.1-.21-1.1-.2-1.1-.2-1.1-.21-1.1-.2-1.1-.21-1.1-.21-1.09-.21-1.1-.2-1.1-.21-1.1-.22-1.1-.21-1.1-.21-1.1-.21-1.1-.22-1.09-.21-1.1-.22-1.1-.22-1.1-.21-1.1-.22-1.1-.22-1.09-.22-1.1-.23-1.1-.22-1.1-.22-1.1-.23-1.1-.22-1.09-.23-1.1-.22-1.1-.23-1.1-.23-1.09-.23-1.1-.23-1.1-.23-1.1-.24-1.1-.23-1.09-.23-1.1-.24-1.1-.23-1.1-.24-1.09-.24-1.1-.24-1.1-.24-1.09-.24-1.1-.24-1.1-.24-1.1-.24-1.09-.25-1.1-.24-1.1-.25-1.09-.24-1.1-.25-1.1-.25-1.09-.25-1.1-.25-1.1-.25-1.09-.25-1.1-.26-1.1-.25-1.09-.25-1.1-.26-1.09-.26-1.1" style="stroke-width:1.07;stroke:#000000;stroke-opacity:0.10;stroke-linecap:butt"/><path d="m266.67 382.26 1.36-1.16 1.36-1.16 1.35-1.16 1.36-1.16 1.36-1.15 1.35-1.16 1.36-1.16 1.35-1.16 1.35-1.16 1.35-1.16 1.35-1.17 1.35-1.16 1.35-1.16 1.35-1.16 1.35-1.16 1.34-1.17 1.35-1.16 1.34-1.16 1.34-1.16 1.34-1.17 1.34-1.16 1.34-1.17 1.34-1.16 1.34-1.17 1.34-1.16 1.33-1.17 1.34-1.16 1.33-1.17 1.34-1.17 1.33-1.16 1.33-1.17 1.33-1.17 1.33-1.16 1.33-1.17 1.32-1.17 1.33-1.17 1.33-1.17 1.32-1.17 1.32-1.17 1.33-1.17 1.32-1.17 1.32-1.17 1.32-1.17 1.32-1.17 1.32-1.17 1.31-1.17 1.32-1.18 1.31-1.17 1.32-1.17 1.31-1.17 1.31-1.18 1.31-1.17 1.31-1.18 1.31-1.17 1.31-1.17 1.31-1.18 1.3-1.17 1.31-1.18 1.3-1.18 1.31-1.17 1.3-1.18 1.3-1.18 1.3-1.17 1.3-1.18 1.3-1.18 1.3-1.18 1.3-1.17 1.29-1.18 1.3-1.18 1.29-1.18 1.29-1.18 1.3-1.18 1.29-1.18 1.29-1.18 1.29-1.18 1.28-1.18 1.29-1.18 1.29-1.19 1.28-1.18 1.29-1.18 1.28-1.18 1.28-1.19 1.28-1.18 1.28-1.18 1.28-1.19 1.28-1.18 1.28-1.19 1.28-1.18 1.27-1.19 1.28-1.18 1.27-1.19 1.27-1.18 1.28-1.19 1.27-1.19 1.27-1.18 1.27-1.19 1.27-1.19 1.26-1.19 1.27-1.19M266.67 382.26l-.26-1.1-.25-1.1-.26-1.09-.25-1.1-.26-1.09-.25-1.1-.25-1.1-.25-1.09-.25-1.1-.25-1.1-.24-1.09-.25-1.1-.25-1.1-.24-1.09-.25-1.1-.24-1.1-.24-1.09-.24-1.1-.24-1.1-.24-1.1-.24-1.09-.24-1.1-.24-1.1-.23-1.1-.24-1.09-.23-1.1-.23-1.1-.24-1.1-.23-1.09-.23-1.1-.23-1.1-.23-1.1-.22-1.09-.23-1.1-.23-1.1-.22-1.1-.23-1.1-.22-1.09-.22-1.1-.22-1.1-.23-1.1-.22-1.1-.21-1.09-.22-1.1-.22-1.1-.22-1.1-.21-1.1-.22-1.1-.21-1.1-.21-1.09-.21-1.1-.21-1.1-.21-1.1-.21-1.1-.21-1.1-.21-1.1-.21-1.1-.2-1.1-.21-1.09-.2-1.1-.2-1.1-.2-1.1-.21-1.1-.2-1.1-.19-1.1-.2-1.1-.2-1.1-.2-1.1-.19-1.1-.2-1.1-.19-1.1-.19-1.1-.2-1.1-.19-1.1-.19-1.1-.19-1.1-.19-1.1-.18-1.1-.19-1.1-.19-1.1-.18-1.1-.19-1.1-.18-1.1-.18-1.1-.18-1.1-.18-1.1-.18-1.1-.18-1.1-.18-1.1-.18-1.1-.17-1.1-.18-1.1-.17-1.1-.17-1.11-.18-1.1-.17-1.1-.17-1.1-.17-1.1-.17-1.1" style="stroke-width:1.07;stroke:#000000;stroke-opacity:0.10;stroke-linecap:butt"/><path d="m266.67 382.26 1.26-1.19 1.27-1.19 1.27-1.19 1.27-1.18 1.27-1.19 1.27-1.19 1.27-1.18 1.27-1.19 1.28-1.19 1.27-1.18 1.28-1.19 1.28-1.18 1.27-1.19 1.28-1.18 1.28-1.18 1.28-1.19 1.28-1.18 1.29-1.18 1.28-1.19 1.28-1.18 1.29-1.18 1.29-1.18 1.28-1.18 1.29-1.19 1.29-1.18 1.29-1.18 1.29-1.18 1.29-1.18 1.3-1.18 1.29-1.18 1.3-1.18 1.29-1.17 1.3-1.18 1.3-1.18 1.29-1.18 1.3-1.18 1.3-1.17 1.31-1.18 1.3-1.18 1.3-1.17 1.31-1.18 1.3-1.17 1.31-1.18 1.31-1.17 1.3-1.18 1.31-1.17 1.31-1.18 1.31-1.17 1.32-1.17 1.31-1.18 1.31-1.17 1.32-1.17 1.31-1.17 1.32-1.18 1.32-1.17 1.32-1.17 1.32-1.17 1.32-1.17 1.32-1.17 1.32-1.17 1.33-1.17 1.32-1.17 1.33-1.17 1.32-1.17 1.33-1.17 1.33-1.16 1.33-1.17 1.33-1.17 1.33-1.17 1.33-1.16 1.33-1.17 1.34-1.17 1.33-1.16 1.34-1.17 1.34-1.16 1.33-1.17 1.34-1.16 1.34-1.17 1.34-1.16 1.34-1.16 1.35-1.17 1.34-1.16 1.35-1.16 1.34-1.17 1.35-1.16 1.35-1.16 1.34-1.16 1.35-1.16 1.35-1.16 1.35-1.16 1.36-1.16 1.35-1.16 1.35-1.16 1.36-1.16 1.35-1.16 1.36-1.16 1.36-1.16 1.36-1.16 1.36-1.16M266.67 382.26l-.35-1.09-.34-1.1-.34-1.09-.33-1.09-.34-1.09-.33-1.09-.32-1.09-.33-1.1-.32-1.09-.32-1.09-.32-1.09-.32-1.1-.31-1.09-.31-1.09-.3-1.1-.31-1.09-.3-1.09-.3-1.1-.29-1.09-.3-1.1-.29-1.09-.28-1.1-.29-1.09-.28-1.09-.28-1.1-.28-1.09-.27-1.1-.27-1.09-.27-1.1-.27-1.1-.26-1.09-.27-1.1-.25-1.09-.26-1.1-.25-1.1-.25-1.09-.25-1.1-.24-1.1-.25-1.09-.24-1.1-.23-1.1-.24-1.1-.23-1.09-.23-1.1-.22-1.1-.23-1.1-.22-1.1-.22-1.09-.21-1.1-.21-1.1-.21-1.1-.21-1.1-.21-1.1-.2-1.1-.2-1.1-.19-1.1-.2-1.1-.19-1.1-.19-1.1-.18-1.1-.19-1.1-.18-1.1-.17-1.1-.18-1.1-.17-1.1-.17-1.1-.17-1.1-.16-1.1-.16-1.1-.16-1.11-.16-1.1-.15-1.1-.15-1.1-.15-1.1-.15-1.11-.14-1.1-.14-1.1-.14-1.1-.13-1.11-.14-1.1-.13-1.1-.12-1.11-.13-1.1-.12-1.11-.12-1.1-.11-1.1-.12-1.11-.11-1.1-.1-1.11-.11-1.1-.1-1.11-.1-1.1-.1-1.11-.09-1.1-.1-1.11-.09-1.1-.08-1.11-.09-1.1-.08-1.11" style="stroke-width:1.07;stroke:#000000;stroke-opacity:0.10;stroke-linecap:butt"/><path d="m266.67 382.26 1.17-1.22 1.18-1.22 1.17-1.22 1.19-1.21 1.18-1.22 1.19-1.21 1.19-1.21 1.19-1.22 1.19-1.21 1.2-1.21 1.2-1.21 1.21-1.21 1.21-1.2 1.21-1.21 1.21-1.21 1.21-1.2 1.22-1.2 1.22-1.21 1.23-1.2 1.22-1.2 1.23-1.2 1.24-1.2 1.23-1.2 1.24-1.2 1.24-1.19 1.25-1.2 1.24-1.19 1.25-1.2 1.26-1.19 1.25-1.19 1.26-1.19 1.26-1.19 1.27-1.19 1.26-1.19 1.27-1.18 1.28-1.19 1.27-1.19 1.28-1.18 1.28-1.18 1.29-1.19 1.28-1.18 1.3-1.18 1.29-1.18 1.29-1.18 1.3-1.17 1.3-1.18 1.31-1.18 1.31-1.17 1.31-1.18 1.31-1.17 1.31-1.17 1.32-1.17 1.33-1.17 1.32-1.17 1.33-1.17 1.33-1.17 1.33-1.16 1.34-1.17 1.34-1.16 1.34-1.17 1.34-1.16 1.35-1.16 1.35-1.16 1.35-1.16 1.36-1.16 1.36-1.16 1.36-1.16 1.36-1.15 1.37-1.16 1.37-1.15 1.37-1.16 1.38-1.15 1.38-1.15 1.38-1.15 1.39-1.15 1.38-1.15 1.39-1.15 1.4-1.15 1.39-1.14 1.4-1.15 1.4-1.14 1.41-1.14 1.41-1.15 1.41-1.14 1.41-1.14 1.42-1.14 1.42-1.14 1.42-1.13 1.42-1.14 1.43-1.14 1.43-1.13 1.43-1.13 1.44-1.14 1.44-1.13 1.44-1.13 1.45-1.13 1.44-1.13 1.46-1.13 1.45-1.13M266.67 382.26l-.43-1.09-.43-1.09-.42-1.08-.42-1.09-.42-1.09-.41-1.08-.4-1.09-.4-1.09-.4-1.09-.39-1.09-.39-1.09-.38-1.09-.38-1.08-.37-1.09-.37-1.09-.37-1.09-.36-1.09-.35-1.09-.35-1.1-.35-1.09-.34-1.09-.34-1.09-.33-1.09-.33-1.09-.33-1.1-.32-1.09-.31-1.09-.31-1.09-.31-1.1-.3-1.09-.3-1.1-.29-1.09-.29-1.09-.29-1.1-.28-1.09-.27-1.1-.27-1.09-.27-1.1-.26-1.1-.26-1.09-.25-1.1-.25-1.09-.24-1.1-.24-1.1-.24-1.1-.23-1.09-.22-1.1-.23-1.1-.21-1.1-.22-1.1-.2-1.1-.21-1.1-.2-1.09-.19-1.1-.19-1.1-.19-1.1-.18-1.1-.18-1.11-.17-1.1-.17-1.1-.16-1.1-.16-1.1-.15-1.1-.15-1.1-.15-1.11-.14-1.1-.14-1.1-.13-1.11-.13-1.1-.12-1.1-.12-1.11-.11-1.1-.11-1.11-.11-1.1-.1-1.11-.1-1.1-.09-1.11-.08-1.1-.09-1.11-.08-1.1-.07-1.11-.07-1.11-.06-1.1-.07-1.11-.05-1.11-.05-1.11-.05-1.1-.04-1.11-.04-1.11-.03-1.11-.03-1.11-.03-1.11-.02-1.11-.01-1.11-.02-1.11v-1.11l-.01-1.11.01-1.11v-1.11" style="stroke-width:1.07;stroke:#000000;stroke-opacity:0.10;stroke-linecap:butt"/><path d="m266.67 382.26 1.08-1.25 1.08-1.25 1.09-1.25 1.09-1.24 1.1-1.24 1.1-1.24 1.11-1.24 1.11-1.24 1.12-1.24 1.12-1.24 1.13-1.23 1.13-1.23 1.14-1.23 1.14-1.23 1.14-1.23 1.16-1.22 1.15-1.23 1.16-1.22 1.17-1.22 1.17-1.22 1.17-1.22 1.18-1.22 1.18-1.21 1.19-1.22 1.2-1.21 1.19-1.21 1.21-1.21 1.21-1.2 1.21-1.21 1.22-1.2 1.22-1.21 1.22-1.2 1.24-1.2 1.23-1.19 1.24-1.2 1.25-1.2 1.25-1.19 1.26-1.19 1.26-1.19 1.26-1.19 1.27-1.19 1.28-1.18 1.28-1.19 1.28-1.18 1.29-1.18 1.3-1.18 1.29-1.18 1.31-1.17 1.31-1.18 1.31-1.17 1.32-1.17 1.32-1.17 1.33-1.17 1.33-1.17 1.34-1.16 1.34-1.17 1.34-1.16 1.35-1.16 1.36-1.16 1.36-1.16 1.37-1.15 1.37-1.16 1.37-1.15 1.38-1.15 1.39-1.15 1.39-1.15 1.39-1.14 1.4-1.15 1.4-1.14 1.41-1.15 1.42-1.14 1.41-1.13 1.43-1.14 1.42-1.14 1.44-1.13 1.43-1.13 1.45-1.14 1.44-1.12 1.45-1.13 1.46-1.13 1.46-1.12 1.47-1.13 1.47-1.12 1.47-1.12 1.48-1.12 1.49-1.12 1.49-1.11 1.49-1.11 1.5-1.12 1.51-1.11 1.51-1.11 1.51-1.11 1.52-1.1 1.52-1.11 1.53-1.1 1.53-1.1 1.54-1.1 1.54-1.1 1.55-1.1" style="stroke-width:1.07;stroke:#000000;stroke-opacity:0.10;stroke-linecap:butt"/><path d="m522.77 344.69-2.8-.72-2.8-.72-2.8-.72-2.8-.72-2.8-.72-2.8-.72-2.8-.71-2.79-.72-2.8-.72-2.8-.72-2.8-.72-2.8-.72-2.8-.72-2.8-.72-2.8-.72-2.8-.72-2.8-.72-2.8-.72-2.8-.72-2.8-.71-2.8-.72-2.8-.72-2.8-.72-2.8-.72-2.8-.72-2.8-.72-2.8-.72-2.8-.72-2.8-.72-2.8-.72-2.8-.72-2.79-.71-2.8-.72-2.8-.72-2.8-.72-2.8-.72-2.8-.72-2.8-.72-2.8-.72-2.8-.72-2.8-.72-2.8-.72-2.8-.72-2.8-.71-2.8-.72-2.8-.72-2.8-.72-2.8-.72-2.8-.72-2.8-.72-2.8-.72-2.8-.72-2.8-.72-2.8-.72-2.8-.72-2.79-.72-2.8-.71-2.8-.72-2.8-.72-2.8-.72-2.8-.72-2.8-.72-2.8-.72-2.8-.72-2.8-.72-2.8-.72-2.8-.72-2.8-.72-2.8-.71-2.8-.72-2.8-.72-2.8-.72-2.8-.72-2.8-.72-2.8-.72-2.8-.72-2.8-.72-2.8-.72-2.8-.72-2.79-.72-2.8-.71-2.8-.72-2.8-.72-2.8-.72-2.8-.72-2.8-.72-2.8-.72-2.8-.72-2.8-.72-2.8-.72-2.8-.72-2.8-.72-2.8-.72-2.8-.71-2.8-.72-2.8-.72-2.8-.72-2.8-.72-2.8-.72m277.16 71.2-1.3-.78-1.31-.78-1.3-.78-1.31-.78-1.3-.78-1.3-.78-1.3-.78-1.3-.78-1.3-.78-1.3-.78-1.3-.78-1.3-.79-1.3-.78-1.3-.78-1.29-.78-1.3-.79-1.29-.78-1.3-.79-1.29-.78-1.3-.78-1.29-.79-1.29-.78-1.29-.79-1.29-.79-1.29-.78-1.29-.79-1.29-.78-1.29-.79-1.29-.79-1.28-.79-1.29-.78-1.28-.79-1.29-.79-1.28-.79-1.29-.79-1.28-.79-1.28-.79-1.28-.79-1.29-.79-1.28-.79-1.28-.79-1.27-.79-1.28-.79-1.28-.79-1.28-.8-1.27-.79-1.28-.79-1.28-.79-1.27-.8-1.27-.79-1.28-.79-1.27-.8-1.27-.79-1.27-.8-1.27-.79-1.27-.8-1.27-.79-1.27-.8-1.27-.8-1.27-.79-1.26-.8-1.27-.8-1.26-.79-1.27-.8-1.26-.8-1.27-.8-1.26-.8-1.26-.8-1.26-.8-1.27-.8-1.26-.8-1.26-.8-1.25-.8-1.26-.8-1.26-.8-1.26-.8-1.25-.8-1.26-.8-1.25-.81-1.26-.8-1.25-.8-1.26-.8-1.25-.81-1.25-.8-1.25-.81-1.25-.8-1.25-.81-1.25-.8-1.25-.81-1.25-.8-1.25-.81-1.24-.8-1.25-.81-1.24-.81-1.25-.8-1.24-.81-1.25-.81-1.24-.81-1.24-.81M266.67 382.26l2.15.86 2.15.87 2.14.86 2.15.86 2.15.87 2.15.86 2.15.87 2.15.86 2.15.86 2.14.87 2.15.86 2.15.87 2.15.86 2.15.86 2.15.87 2.15.86 2.15.87 2.14.86 2.15.86 2.15.87 2.15.86 2.15.87 2.15.86 2.15.86 2.15.87 2.14.86 2.15.87 2.15.86 2.15.86 2.15.87 2.15.86 2.15.87 2.14.86 2.15.87 2.15.86 2.15.86 2.15.87 2.15.86 2.15.87 2.15.86 2.14.86 2.15.87 2.15.86 2.15.87 2.15.86 2.15.86 2.15.87 2.15.86 2.14.87 2.15.86 2.15.86 2.15.87 2.15.86 2.15.87 2.15.86 2.14.86 2.15.87 2.15.86 2.15.87 2.15.86 2.15.86 2.15.87 2.15.86 2.14.87 2.15.86 2.15.86 2.15.87 2.15.86 2.15.87 2.15.86 2.15.87 2.14.86 2.15.86 2.15.87 2.15.86 2.15.87 2.15.86 2.15.86 2.14.87 2.15.86 2.15.87 2.15.86 2.15.86 2.15.87 2.15.86 2.15.87 2.14.86 2.15.86 2.15.87 2.15.86 2.15.87 2.15.86 2.15.86 2.15.87 2.14.86 2.15.87 2.15.86 2.15.86 2.15.87" style="stroke-width:1.07;stroke:#000000;stroke-opacity:0.10;stroke-linecap:butt"/><path d="m266.67 382.26.98-1.28 1-1.28.99-1.28 1.01-1.27 1.01-1.27 1.02-1.27 1.03-1.26 1.03-1.27 1.04-1.26 1.04-1.26 1.05-1.26 1.06-1.26 1.07-1.25 1.07-1.25 1.08-1.25 1.09-1.25 1.09-1.24 1.1-1.24 1.1-1.25 1.12-1.23 1.12-1.24 1.12-1.23 1.13-1.24 1.14-1.23 1.15-1.22 1.15-1.23 1.16-1.22 1.17-1.22 1.17-1.22 1.18-1.22 1.18-1.21 1.2-1.21 1.2-1.21 1.2-1.21 1.21-1.21 1.22-1.2 1.23-1.2 1.23-1.2 1.24-1.2 1.25-1.19 1.25-1.2 1.26-1.19 1.27-1.19 1.27-1.18 1.28-1.19 1.29-1.18 1.29-1.18 1.3-1.17 1.31-1.18 1.31-1.17 1.32-1.17 1.32-1.17 1.34-1.17 1.34-1.16 1.34-1.16 1.36-1.16 1.36-1.16 1.36-1.16 1.38-1.15 1.38-1.15 1.38-1.15 1.4-1.15 1.4-1.14 1.4-1.15 1.42-1.14 1.42-1.14 1.42-1.13 1.44-1.14 1.44-1.13 1.44-1.13 1.46-1.12 1.46-1.13 1.46-1.12 1.48-1.12 1.48-1.12 1.48-1.12 1.5-1.11 1.5-1.11 1.5-1.11 1.52-1.11 1.52-1.11 1.53-1.1 1.53-1.1 1.54-1.1 1.55-1.1 1.55-1.09 1.56-1.1 1.57-1.09 1.57-1.08 1.58-1.09 1.59-1.08 1.59-1.09 1.6-1.07 1.61-1.08 1.62-1.08 1.62-1.07 1.62-1.07 1.64-1.07 1.64-1.07m-53.79-107.5-.98 1.16-.98 1.16-.98 1.16-.99 1.17-.98 1.16-.98 1.16-.98 1.16-.99 1.16-.98 1.16-.98 1.16-.98 1.16-.99 1.16-.98 1.16-.98 1.16-.98 1.16-.99 1.16-.98 1.16-.98 1.16-.98 1.16-.99 1.16-.98 1.16-.98 1.16-.98 1.16-.99 1.16-.98 1.16-.98 1.16-.98 1.16-.98 1.16-.99 1.16-.98 1.16-.98 1.16-.98 1.16-.99 1.16-.98 1.16-.98 1.16-.98 1.16-.99 1.16-.98 1.16-.98 1.16-.98 1.16-.99 1.16-.98 1.16-.98 1.17-.98 1.16-.99 1.16-.98 1.16-.98 1.16-.98 1.16-.99 1.16-.98 1.16-.98 1.16-.98 1.16-.99 1.16-.98 1.16-.98 1.16-.98 1.16-.99 1.16-.98 1.16-.98 1.16-.98 1.16-.98 1.16-.99 1.16-.98 1.16-.98 1.16-.98 1.16-.99 1.16-.98 1.16-.98 1.16-.98 1.16-.99 1.16-.98 1.16-.98 1.16-.98 1.16-.99 1.16-.98 1.16-.98 1.16-.98 1.16-.99 1.16-.98 1.16-.98 1.16-.98 1.17-.99 1.16-.98 1.16-.98 1.16-.98 1.16-.99 1.16-.98 1.16-.98 1.16-.98 1.16-.99 1.16-.98 1.16-.98 1.16-.98 1.16-.98 1.16-.99 1.16-.98 1.16-.98 1.16-.98 1.16-.99 1.16m97.26-114.87.55 1.09.54 1.09.54 1.08.55 1.09.54 1.08.54 1.09.55 1.09.54 1.08.54 1.09.55 1.08.54 1.09.54 1.08.55 1.09.54 1.09.54 1.08.55 1.09.54 1.08.54 1.09.55 1.09.54 1.08.54 1.09.55 1.08.54 1.09.54 1.08.55 1.09.54 1.09.54 1.08.55 1.09.54 1.08.54 1.09.55 1.09.54 1.08.54 1.09.54 1.08.55 1.09.54 1.09.54 1.08.55 1.09.54 1.08.54 1.09.55 1.08.54 1.09.54 1.09.55 1.08.54 1.09.54 1.08.55 1.09.54 1.09.54 1.08.55 1.09.54 1.08.54 1.09.55 1.08.54 1.09.54 1.09.55 1.08.54 1.09.54 1.08.55 1.09.54 1.09.54 1.08.55 1.09.54 1.08.54 1.09.55 1.08.54 1.09.54 1.09.55 1.08.54 1.09.54 1.08.55 1.09.54 1.09.54 1.08.55 1.09.54 1.08.54 1.09.55 1.09.54 1.08.54 1.09.55 1.08.54 1.09.54 1.08.55 1.09.54 1.09.54 1.08.55 1.09.54 1.08.54 1.09.55 1.09.54 1.08.54 1.09.55 1.08.54 1.09.54 1.08.55 1.09.54 1.09.54 1.08.55 1.09.54 1.08M266.67 382.26l-.52-1.08-.51-1.09-.51-1.08-.5-1.08-.5-1.08-.49-1.09-.48-1.08-.47-1.08-.47-1.09-.47-1.08-.45-1.09-.45-1.08-.45-1.09-.44-1.08-.43-1.09-.42-1.09-.42-1.08-.42-1.09-.4-1.09-.4-1.09-.4-1.09-.39-1.08-.38-1.09-.37-1.09-.37-1.09-.37-1.09-.35-1.09-.35-1.09-.35-1.1-.33-1.09-.34-1.09-.32-1.09-.32-1.09-.31-1.1-.31-1.09-.3-1.09-.29-1.1-.29-1.09-.28-1.1-.28-1.09-.27-1.1-.26-1.09-.26-1.1-.25-1.1-.24-1.09-.24-1.1-.23-1.1-.23-1.1-.22-1.1-.21-1.09-.2-1.1-.2-1.1-.2-1.1-.19-1.1-.18-1.1-.17-1.1-.17-1.1-.16-1.11-.16-1.1-.15-1.1-.14-1.1-.14-1.11-.13-1.1-.13-1.1-.12-1.11-.11-1.1-.11-1.11-.1-1.1-.09-1.11-.09-1.1-.08-1.11-.07-1.1-.07-1.11-.06-1.11-.06-1.11-.05-1.1-.04-1.11-.04-1.11-.03-1.11-.03-1.11-.01-1.11-.02-1.11v-3.33l.02-1.11.02-1.11.02-1.11.03-1.12.04-1.11.04-1.11.05-1.12.06-1.11.06-1.11.07-1.12.08-1.11.08-1.12.09-1.11.09-1.12" style="stroke-width:1.07;stroke:#000000;stroke-opacity:0.10;stroke-linecap:butt"/><path d="m266.67 382.26.89-1.31.9-1.31.91-1.3.92-1.31.92-1.3.94-1.29.94-1.3.95-1.29.96-1.28.97-1.29.98-1.28.99-1.28.99-1.28 1-1.27 1.02-1.27 1.02-1.27 1.03-1.27 1.03-1.26 1.05-1.26 1.06-1.25 1.06-1.26 1.07-1.25 1.08-1.25 1.09-1.24 1.1-1.25 1.11-1.24 1.11-1.24 1.13-1.23 1.13-1.23 1.14-1.23 1.15-1.23 1.16-1.22 1.17-1.22 1.17-1.22 1.18-1.21 1.2-1.22 1.2-1.21 1.21-1.2 1.22-1.21 1.22-1.2 1.24-1.2 1.24-1.19 1.26-1.19 1.26-1.19 1.27-1.19 1.28-1.19 1.28-1.18 1.3-1.18 1.3-1.17 1.32-1.17 1.32-1.17 1.33-1.17 1.34-1.17 1.35-1.16 1.35-1.16 1.37-1.15 1.37-1.16 1.38-1.15 1.39-1.15 1.4-1.14 1.41-1.14 1.41-1.14 1.43-1.14 1.43-1.13 1.44-1.13 1.46-1.13 1.45-1.13 1.47-1.12 1.48-1.12 1.48-1.12 1.5-1.11 1.5-1.11 1.51-1.11 1.52-1.11 1.53-1.1 1.53-1.1 1.55-1.1 1.55-1.09 1.57-1.1 1.57-1.08 1.58-1.09 1.58-1.08 1.6-1.09 1.61-1.07 1.61-1.08 1.62-1.07 1.63-1.07 1.64-1.07 1.65-1.06 1.66-1.06 1.66-1.06 1.68-1.06 1.68-1.05 1.69-1.05 1.7-1.05 1.71-1.04 1.72-1.04 1.72-1.04 1.74-1.04M266.67 382.26l-.61-1.08-.6-1.08-.59-1.07-.58-1.08-.58-1.08-.56-1.08-.56-1.08-.55-1.08-.55-1.08-.53-1.08-.53-1.08-.52-1.08-.51-1.08-.5-1.08-.5-1.09-.48-1.08-.48-1.08-.47-1.09-.46-1.08-.46-1.09-.44-1.08-.44-1.09-.43-1.09-.42-1.08-.42-1.09-.4-1.09-.4-1.09-.39-1.08-.38-1.09-.38-1.09-.36-1.09-.36-1.09-.35-1.09-.34-1.1-.33-1.09-.33-1.09-.32-1.09-.31-1.1-.3-1.09-.29-1.09-.29-1.1-.27-1.09-.27-1.1-.26-1.1-.26-1.09-.24-1.1-.24-1.1-.23-1.09-.22-1.1-.21-1.1-.2-1.1-.2-1.1-.19-1.1-.18-1.1-.17-1.1-.17-1.1-.15-1.1-.15-1.11-.14-1.1-.13-1.1-.13-1.11-.11-1.1-.11-1.1-.1-1.11-.09-1.1-.09-1.11-.07-1.11-.07-1.1-.06-1.11-.05-1.11-.05-1.11-.03-1.11-.03-1.1-.02-1.11-.01-1.11v-2.23l.01-1.11.03-1.11.02-1.11.04-1.11.05-1.12.05-1.11.06-1.11.07-1.12.08-1.11.08-1.12.1-1.12.1-1.11.11-1.12.11-1.12.13-1.11.13-1.12.14-1.12.15-1.12.16-1.12.17-1.12.17-1.12.18-1.12" style="stroke-width:1.07;stroke:#000000;stroke-opacity:0.10;stroke-linecap:butt"/><path d="m266.67 382.26.8-1.34.8-1.34.82-1.33.83-1.33.84-1.33.85-1.33.87-1.32.87-1.31.88-1.32.89-1.31.91-1.3.91-1.3.92-1.3.94-1.3.94-1.29.96-1.29.97-1.29.97-1.28.99-1.28 1-1.28 1.01-1.27 1.01-1.27 1.03-1.26 1.04-1.26 1.05-1.26 1.06-1.26 1.08-1.25 1.08-1.25 1.09-1.24 1.1-1.24 1.12-1.24 1.12-1.24 1.13-1.23 1.15-1.23 1.15-1.22 1.17-1.22 1.18-1.22 1.18-1.21 1.2-1.21 1.21-1.21 1.22-1.21 1.23-1.2 1.24-1.19 1.25-1.2 1.26-1.19 1.27-1.18 1.28-1.19 1.29-1.18 1.3-1.17 1.32-1.18 1.32-1.17 1.33-1.16 1.35-1.16 1.35-1.16 1.37-1.16 1.38-1.15 1.38-1.15 1.4-1.15 1.41-1.14 1.42-1.14 1.42-1.13 1.44-1.14 1.45-1.12 1.46-1.13 1.47-1.12 1.48-1.12 1.5-1.11 1.5-1.12 1.51-1.1 1.52-1.11 1.54-1.1 1.54-1.1 1.56-1.09 1.56-1.09 1.58-1.09 1.58-1.09 1.6-1.08 1.61-1.07 1.62-1.08 1.62-1.07 1.64-1.06 1.65-1.07 1.66-1.06 1.67-1.05 1.68-1.06 1.69-1.05 1.71-1.04 1.71-1.05 1.72-1.04 1.74-1.03 1.74-1.04 1.75-1.03 1.77-1.02 1.77-1.02 1.79-1.02 1.8-1.02 1.8-1.01 1.82-1.01 1.83-1.01M266.67 382.26l-.7-1.07-.68-1.08-.68-1.07-.66-1.07-.66-1.08-.64-1.07-.64-1.07-.63-1.08-.61-1.08-.61-1.07-.59-1.08-.59-1.08-.58-1.08-.57-1.07-.55-1.08-.55-1.08-.54-1.08-.52-1.08-.52-1.09-.51-1.08-.5-1.08-.49-1.08-.48-1.09-.46-1.08-.46-1.09-.45-1.08-.44-1.09-.43-1.08-.42-1.09-.41-1.09-.4-1.09-.39-1.09-.38-1.09-.37-1.08-.36-1.1-.35-1.09-.34-1.09-.33-1.09-.32-1.09-.31-1.1-.3-1.09-.3-1.09-.28-1.1-.27-1.09-.26-1.1-.25-1.1-.24-1.09-.24-1.1-.22-1.1-.21-1.1-.2-1.1-.2-1.1-.18-1.1-.17-1.1-.17-1.1-.15-1.1-.15-1.1-.13-1.11-.12-1.1-.12-1.1-.1-1.11-.1-1.1-.08-1.11-.08-1.11-.06-1.1-.06-1.11-.04-1.11-.04-1.11-.02-1.11-.02-1.11v-2.22l.01-1.11.03-1.11.03-1.11.04-1.12.06-1.11.06-1.11.07-1.12.08-1.11.1-1.12.1-1.12.11-1.11.12-1.12.13-1.12.15-1.12.15-1.12.16-1.12.17-1.12.18-1.12.19-1.12.2-1.12.21-1.12.22-1.13.23-1.12.24-1.12.25-1.13.26-1.12.27-1.13" style="stroke-width:1.07;stroke:#000000;stroke-opacity:0.10;stroke-linecap:butt"/><path d="m266.67 382.26.7-1.37.72-1.37.73-1.36.74-1.36.75-1.36.77-1.35.78-1.35.79-1.34.81-1.34.81-1.33.83-1.33.84-1.33.86-1.32.86-1.32.88-1.32.89-1.31.9-1.3.92-1.3.93-1.3.94-1.3.95-1.29.97-1.28.97-1.29.99-1.27 1.01-1.28 1.01-1.27 1.03-1.26 1.04-1.27 1.05-1.25 1.07-1.26 1.07-1.25 1.09-1.24 1.1-1.25 1.12-1.23 1.13-1.24 1.13-1.23 1.16-1.22 1.16-1.22 1.18-1.22 1.19-1.22 1.2-1.2 1.21-1.21 1.23-1.2 1.23-1.2 1.26-1.19 1.26-1.19 1.27-1.19 1.29-1.18 1.3-1.17 1.32-1.18 1.32-1.17 1.34-1.16 1.35-1.16 1.36-1.16 1.38-1.15 1.39-1.15 1.4-1.15 1.41-1.14 1.42-1.13 1.44-1.14 1.45-1.12 1.46-1.13 1.48-1.12 1.48-1.12 1.5-1.11 1.51-1.11 1.53-1.1 1.53-1.1 1.55-1.1 1.57-1.09 1.57-1.09 1.59-1.08 1.59-1.08 1.62-1.08 1.62-1.07 1.63-1.07 1.65-1.06 1.66-1.06 1.68-1.06 1.68-1.05 1.7-1.05 1.71-1.04 1.72-1.04 1.74-1.04 1.75-1.03 1.76-1.03 1.77-1.02 1.78-1.02 1.8-1.01 1.81-1.02 1.82-1 1.84-1.01 1.85-1 1.85-.99 1.88-.99 1.88-.99 1.9-.98 1.91-.98 1.92-.98M266.67 382.26l-.78-1.07-.78-1.07-.75-1.06-.75-1.07-.74-1.07-.72-1.07-.72-1.07-.7-1.07-.69-1.08-.67-1.07-.67-1.07-.66-1.07-.64-1.08-.63-1.07-.62-1.08-.61-1.08-.59-1.07-.59-1.08-.57-1.08-.56-1.08-.55-1.08-.54-1.08-.53-1.08-.51-1.08-.51-1.08-.49-1.09-.48-1.08-.47-1.08-.46-1.09-.44-1.08-.43-1.09-.43-1.09-.41-1.09-.4-1.08-.38-1.09-.38-1.09-.36-1.09-.35-1.09-.35-1.09-.32-1.1-.32-1.09-.31-1.09-.29-1.1-.28-1.09-.27-1.1-.26-1.09-.25-1.1-.24-1.1-.22-1.09-.21-1.1-.21-1.1-.18-1.1-.18-1.1-.17-1.1-.15-1.11-.15-1.1-.13-1.1-.12-1.11-.1-1.1-.1-1.11-.09-1.1-.07-1.11-.06-1.11-.05-1.1-.04-1.11-.03-1.11-.01-1.11v-2.22l.02-1.11.04-1.12.04-1.11.05-1.11.07-1.12.08-1.11.09-1.12.1-1.12.11-1.11.13-1.12.13-1.12.15-1.12.16-1.12.17-1.12.19-1.12.19-1.12.21-1.12.21-1.12.23-1.13.24-1.12.26-1.13.26-1.12.28-1.13.28-1.13.3-1.12.31-1.13.33-1.13.33-1.13.35-1.13.35-1.13" style="stroke-width:1.07;stroke:#000000;stroke-opacity:0.10;stroke-linecap:butt"/><path d="m266.67 382.26.61-1.4.62-1.4.64-1.39.66-1.39.67-1.38.68-1.38.7-1.38.71-1.37.72-1.36.74-1.36.76-1.35.76-1.35.79-1.35.79-1.34.82-1.34.82-1.33.84-1.33.86-1.32.87-1.32.88-1.31.9-1.31.91-1.3.92-1.3.94-1.29.96-1.29.97-1.29.98-1.28 1-1.27 1.01-1.28 1.03-1.26 1.04-1.26 1.05-1.26 1.07-1.25 1.09-1.25 1.1-1.24 1.11-1.24 1.12-1.24 1.15-1.23 1.15-1.22 1.17-1.22 1.18-1.21 1.2-1.21 1.22-1.21 1.22-1.2 1.24-1.2 1.26-1.19 1.27-1.19 1.28-1.18 1.3-1.18 1.32-1.17 1.32-1.17 1.35-1.16 1.35-1.16 1.37-1.16 1.39-1.15 1.4-1.14 1.41-1.14 1.43-1.14 1.44-1.13 1.45-1.12 1.48-1.13 1.48-1.11 1.5-1.12 1.51-1.1 1.53-1.11 1.54-1.09 1.56-1.1 1.57-1.09 1.59-1.08 1.6-1.08 1.61-1.08 1.63-1.07 1.64-1.06 1.66-1.06 1.67-1.06 1.68-1.05 1.7-1.05 1.72-1.04 1.73-1.04 1.74-1.03 1.76-1.03 1.77-1.02 1.79-1.02 1.8-1.02 1.81-1.01 1.83-1 1.84-1 1.86-1 1.87-.99 1.89-.99 1.9-.98 1.91-.98 1.93-.97 1.95-.97 1.95-.96 1.98-.96 1.98-.95 2-.95 2.02-.95M266.67 382.26l-.87-1.06-.86-1.07-.84-1.06-.83-1.06-.82-1.07-.8-1.06-.79-1.07-.78-1.07-.76-1.06-.75-1.07-.74-1.07-.72-1.07-.71-1.07-.69-1.07-.69-1.08-.67-1.07-.65-1.07-.64-1.08-.63-1.07-.62-1.08-.6-1.08-.59-1.07-.57-1.08-.56-1.08-.55-1.08-.54-1.08-.52-1.08-.51-1.08-.49-1.09-.48-1.08-.47-1.08-.45-1.09-.45-1.09-.42-1.08-.42-1.09-.4-1.09-.38-1.09-.38-1.09-.36-1.09-.35-1.09-.33-1.09-.32-1.09-.31-1.1-.29-1.09-.28-1.09-.27-1.1-.25-1.1-.24-1.09-.22-1.1-.22-1.1-.2-1.1-.18-1.1-.17-1.1-.16-1.1-.15-1.1-.13-1.11-.12-1.1-.1-1.11-.1-1.1-.07-1.11-.07-1.11-.05-1.1-.04-1.11-.02-1.11-.02-1.11.01-1.11.01-1.11.03-1.12.04-1.11.06-1.11.07-1.12.08-1.11.1-1.12.11-1.11.12-1.12.13-1.12.15-1.12.17-1.12.17-1.12.19-1.12.21-1.12.21-1.13.23-1.12.25-1.12.26-1.13.27-1.13.28-1.12.3-1.13.31-1.13.32-1.13.34-1.13.35-1.13.36-1.13.38-1.13.39-1.13.41-1.14.42-1.13.43-1.13.44-1.14" style="stroke-width:1.07;stroke:#000000;stroke-opacity:0.10;stroke-linecap:butt"/><path d="m266.67 382.26.52-1.43.53-1.43.55-1.42.56-1.42.59-1.41.6-1.41.61-1.4.63-1.39.65-1.39.66-1.39.68-1.37.7-1.38.71-1.37.73-1.36.74-1.36.76-1.35.78-1.35.79-1.34.81-1.34.83-1.33.84-1.33.86-1.32.87-1.31.89-1.31.91-1.31.93-1.3.93-1.29.96-1.29.97-1.29.99-1.28 1-1.27 1.03-1.27 1.03-1.26 1.06-1.26 1.07-1.25 1.08-1.25 1.1-1.24 1.12-1.24 1.14-1.23 1.15-1.22 1.16-1.22 1.19-1.22 1.2-1.21 1.21-1.2 1.23-1.2 1.25-1.2 1.27-1.19 1.28-1.18 1.29-1.18 1.32-1.17 1.32-1.17 1.35-1.16 1.36-1.16 1.38-1.15 1.39-1.15 1.41-1.14 1.43-1.14 1.44-1.13 1.46-1.12 1.48-1.12 1.49-1.12 1.51-1.11 1.52-1.1 1.54-1.1 1.56-1.09 1.57-1.09 1.59-1.09 1.61-1.07 1.62-1.08 1.64-1.06 1.65-1.06 1.67-1.06 1.69-1.05 1.7-1.05 1.72-1.04 1.73-1.04 1.76-1.03 1.76-1.02 1.79-1.02 1.8-1.02 1.81-1 1.84-1.01 1.85-1 1.86-.99 1.88-.99 1.9-.98 1.91-.98 1.93-.97 1.95-.97 1.96-.96 1.98-.96 2-.95 2.01-.94 2.03-.94 2.04-.94 2.06-.93 2.08-.92 2.09-.92 2.11-.92M266.67 382.26l-.96-1.06-.94-1.06-.93-1.06-.91-1.05-.9-1.06-.88-1.07-.87-1.06-.85-1.06-.84-1.06-.82-1.07-.8-1.06-.79-1.07-.78-1.07-.76-1.06-.74-1.07-.73-1.07-.72-1.07-.7-1.07-.68-1.08-.67-1.07-.66-1.07-.63-1.08-.63-1.07-.61-1.08-.59-1.08-.58-1.08-.56-1.07-.55-1.08-.53-1.08-.51-1.09-.51-1.08-.48-1.08-.47-1.09-.46-1.08-.44-1.09-.43-1.08-.41-1.09-.39-1.09-.38-1.09-.37-1.09-.35-1.09-.33-1.09-.32-1.09-.3-1.1-.29-1.09-.28-1.1-.25-1.09-.25-1.1-.23-1.1-.21-1.1-.2-1.1-.18-1.1-.17-1.1-.15-1.1-.13-1.1-.12-1.11-.11-1.1-.09-1.11-.08-1.1-.06-1.11-.04-1.11-.03-1.11-.02-1.11v-1.11l.02-1.11.03-1.11.04-1.12.06-1.11.08-1.11.09-1.12.11-1.12.12-1.11.14-1.12.15-1.12.17-1.12.18-1.12.2-1.12.21-1.13.23-1.12.24-1.12.26-1.13.28-1.13.29-1.12.3-1.13.32-1.13.34-1.13.35-1.13.36-1.13.38-1.13.4-1.14.41-1.13.42-1.13.45-1.14.45-1.14.47-1.13.49-1.14.5-1.14.52-1.14.53-1.14" style="stroke-width:1.07;stroke:#000000;stroke-opacity:0.10;stroke-linecap:butt"/><path d="m266.67 382.26.42-1.47.44-1.45.46-1.45.48-1.45.5-1.44.51-1.43.53-1.43.56-1.42.56-1.41.59-1.41.61-1.41.62-1.39.64-1.4.66-1.38.68-1.38.69-1.37.72-1.37.73-1.37.75-1.35.77-1.35.79-1.35.8-1.33.82-1.34.85-1.32.85-1.32.88-1.32.9-1.31.91-1.3.93-1.3.95-1.29.97-1.29.99-1.27 1-1.28 1.02-1.27 1.05-1.26 1.05-1.25 1.08-1.25 1.1-1.25 1.11-1.24 1.13-1.23 1.15-1.22 1.17-1.22 1.18-1.22 1.21-1.21 1.22-1.2 1.24-1.2 1.26-1.19 1.28-1.18 1.29-1.18 1.32-1.17 1.33-1.17 1.35-1.16 1.36-1.16 1.39-1.15 1.4-1.14 1.42-1.14 1.44-1.13 1.46-1.13 1.48-1.12 1.49-1.11 1.52-1.11 1.53-1.1 1.55-1.1 1.56-1.09 1.59-1.08 1.6-1.08 1.62-1.07 1.64-1.07 1.66-1.06 1.68-1.05 1.69-1.05 1.71-1.05 1.73-1.03 1.75-1.03 1.77-1.03 1.78-1.02 1.81-1.01 1.82-1.01 1.84-1 1.86-1 1.87-.99 1.9-.98 1.91-.98 1.93-.97 1.95-.97 1.96-.96 1.99-.95 2-.95 2.02-.94 2.04-.94 2.06-.93 2.07-.93 2.1-.92 2.11-.91 2.13-.91 2.15-.9 2.16-.89 2.19-.89 2.2-.89" style="stroke-width:1.07;stroke:#000000;stroke-opacity:0.10;stroke-linecap:butt"/><path d="m396.66 266.12-1.59-.31-1.59-.31-1.59-.3-1.59-.29-1.58-.28-1.59-.28-1.58-.26-1.58-.26-1.58-.26-1.58-.24-1.58-.24-1.58-.22-1.57-.22-1.57-.21-1.58-.21-1.57-.19-1.57-.19-1.57-.18-1.56-.17-1.57-.17-1.56-.15-1.57-.15-1.56-.14-1.56-.13-1.56-.13-1.55-.12-1.56-.1-1.56-.1-1.55-.1-1.55-.08-1.55-.08-1.55-.07-1.55-.06-1.55-.05-1.54-.05-1.55-.03-1.54-.03-1.54-.02-1.54-.02h-3.08l-1.54.01-1.53.02-1.54.03-1.53.03-1.53.05-1.53.05-1.53.05-1.52.07-1.53.08-1.52.08-1.53.09-1.52.1-1.52.1-1.52.12-1.52.12-1.51.13-1.52.14-1.51.14-1.51.16-1.51.16-1.51.17-1.51.18-1.51.18-1.51.2-1.5.2-1.5.21-1.5.21-1.51.23-1.49.23-1.5.24-1.5.25-1.49.26-1.5.27-1.49.27-1.49.28-1.49.29-1.49.3-1.49.3-1.48.31-1.49.33-1.48.32-1.48.34-1.48.35-1.48.35-1.48.36-1.47.37-1.48.37-1.47.39-1.48.39-1.47.4-1.47.41-1.46.42-1.47.42-1.47.43-1.46.44-1.46.45-1.47.46-1.46.46" style="stroke-width:1.07;stroke:#000000;stroke-opacity:0.10;stroke-linecap:butt"/><path d="m396.66 266.12-1.59-.28-1.58-.27-1.58-.26-1.58-.26-1.58-.25-1.58-.25-1.58-.23-1.58-.23-1.57-.22-1.58-.22-1.57-.21-1.57-.2-1.57-.19-1.57-.18-1.57-.18-1.57-.17-1.56-.17-1.57-.16-1.56-.14-1.56-.15-1.56-.13-1.56-.13-1.56-.12-1.56-.11-1.56-.11-1.55-.1-1.55-.09-1.56-.09-1.55-.07-1.55-.07-1.55-.07-1.54-.05-1.55-.05-1.54-.04-1.55-.04-1.54-.02-1.54-.02-1.54-.01-1.54-.01h-1.54l-1.54.01-1.53.02-1.54.02-1.53.03-1.53.04-1.53.05-1.53.05-1.53.06-1.53.07-1.52.07-1.53.08-1.52.09-1.52.1-1.52.1-1.52.11-1.52.12-1.52.12-1.51.14-1.52.14-1.51.14-1.51.16-1.52.16-1.51.17-1.5.17-1.51.18-1.51.19-1.5.2-1.51.21-1.5.21-1.5.22-1.5.22-1.5.24-1.5.24-1.5.24-1.49.26-1.49.26-1.5.27-1.49.28-1.49.28-1.49.29-1.49.3-1.48.31-1.49.31-1.48.32-1.49.33-1.48.33-1.48.34-1.48.35-1.48.36-1.48.36-1.47.37-1.48.38-1.47.39-1.47.39-1.47.4-1.47.41-1.47.41-1.47.42-1.47.43" style="stroke-width:1.07;stroke:#000000;stroke-opacity:0.10;stroke-linecap:butt"/><path d="m396.66 266.12-1.58-.24-1.58-.24-1.58-.23-1.57-.22-1.58-.22-1.57-.21-1.57-.21-1.57-.2-1.57-.19-1.57-.19-1.57-.18-1.57-.17-1.57-.16-1.56-.16-1.56-.16-1.57-.14-1.56-.14-1.56-.14-1.56-.13-1.56-.12-1.55-.11-1.56-.11-1.56-.1-1.55-.09-1.55-.09-1.55-.08-1.56-.08-1.55-.07-1.54-.06-1.55-.06-1.55-.04-1.54-.05-1.55-.03-1.54-.03-1.54-.03-1.54-.01-1.54-.01-1.54-.01-1.54.01-1.54.01-1.53.01-1.54.02-1.53.03-1.53.04-1.53.04-1.53.05-1.53.05-1.53.06-1.53.07-1.52.08-1.53.08-1.52.08-1.52.1-1.53.1-1.52.11-1.51.11-1.52.12-1.52.13-1.52.13-1.51.14-1.51.14-1.52.16-1.51.16-1.51.16-1.51.17-1.51.18-1.5.19-1.51.19-1.5.2-1.51.2-1.5.21-1.5.22-1.5.22-1.5.23-1.5.24-1.5.24-1.5.25-1.49.26-1.49.26-1.5.27-1.49.28-1.49.28-1.49.29-1.49.3-1.49.3-1.48.31-1.49.31-1.48.32-1.49.33-1.48.34-1.48.34-1.48.34-1.48.36-1.47.36-1.48.37-1.48.37-1.47.38-1.47.39-1.48.39" style="stroke-width:1.07;stroke:#000000;stroke-opacity:0.10;stroke-linecap:butt"/><path d="m396.66 266.12-1.57-.2-1.58-.21-1.57-.2-1.57-.19-1.57-.18-1.57-.18-1.56-.18-1.57-.17-1.57-.16-1.56-.15-1.56-.16-1.57-.14-1.56-.14-1.56-.13-1.56-.13-1.56-.12-1.55-.12-1.56-.11-1.56-.11-1.55-.1-1.56-.09-1.55-.09-1.55-.08-1.55-.07-1.55-.07-1.55-.07-1.55-.06-1.55-.05-1.54-.05-1.55-.04-1.54-.03-1.54-.03-1.55-.03-1.54-.01-1.54-.02h-4.61l-1.54.01-1.53.02-1.54.02-1.53.03-1.53.03-1.54.04-1.53.05-1.53.05-1.52.06-1.53.06-1.53.07-1.52.07-1.53.08-1.52.09-1.53.09-1.52.1-1.52.1-1.52.11-1.52.11-1.52.13-1.51.12-1.52.13-1.51.14-1.52.15-1.51.15-1.51.15-1.51.16-1.51.17-1.51.17-1.51.18-1.51.18-1.51.19-1.5.2-1.51.2-1.5.21-1.5.21-1.5.22-1.5.23-1.5.23-1.5.23-1.5.24-1.5.25-1.49.26-1.5.26-1.49.26-1.49.27-1.49.28-1.49.28-1.49.29-1.49.29-1.49.3-1.49.31-1.48.31-1.49.32-1.48.32-1.49.33-1.48.33-1.48.34-1.48.35-1.48.35-1.48.36" style="stroke-width:1.07;stroke:#000000;stroke-opacity:0.10;stroke-linecap:butt"/><path d="m396.66 266.12-1.57-.17-1.57-.17-1.56-.16-1.57-.16-1.56-.15-1.56-.15-1.56-.14-1.57-.14-1.56-.14-1.56-.12-1.55-.13-1.56-.11-1.56-.12-1.56-.1-1.55-.11-1.56-.09-1.55-.1-1.55-.08-1.55-.09-1.56-.07-1.55-.08-1.55-.06-1.54-.07-1.55-.05-1.55-.06-1.54-.04-1.55-.04-1.54-.04-1.55-.03-1.54-.03-1.54-.02-1.54-.02-1.54-.01-1.54-.01h-1.54l-1.54.01h-1.54l-1.53.02-1.54.02-1.53.02-1.53.03-1.54.03-1.53.04-1.53.05-1.53.05-1.53.05-1.53.06-1.52.06-1.53.07-1.53.08-1.52.08-1.53.08-1.52.09-1.52.1-1.52.09-1.52.11-1.52.11-1.52.11-1.52.12-1.52.13-1.51.13-1.52.13-1.51.14-1.52.15-1.51.15-1.51.16-1.51.16-1.51.16-1.51.17-1.51.18-1.51.18-1.51.18-1.5.19-1.51.2-1.5.2-1.51.21-1.5.21-1.5.21-1.5.23-1.5.22-1.5.23-1.5.24-1.5.24-1.5.25-1.49.25-1.5.25-1.49.27-1.49.26-1.5.27-1.49.28-1.49.28-1.49.29-1.49.29-1.49.3-1.49.3-1.48.31-1.49.31-1.48.32-1.49.32" style="stroke-width:1.07;stroke:#000000;stroke-opacity:0.10;stroke-linecap:butt"/><path d="m396.66 266.12-1.56-.13-1.56-.14-1.56-.13-1.56-.12-1.56-.12-1.56-.12-1.56-.11-1.55-.11-1.56-.1-1.55-.1-1.56-.1-1.55-.09-1.55-.08-1.55-.08-1.56-.08-1.55-.07-1.55-.07-1.54-.07-1.55-.06-1.55-.05-1.55-.05-1.54-.05-1.55-.04-1.54-.04-1.55-.04-1.54-.03-1.54-.02-1.54-.02-1.55-.02-1.54-.01-1.53-.01h-4.62l-1.54.01-1.53.02-1.54.01-1.53.03-1.53.02-1.54.03-1.53.04-1.53.04-1.53.04-1.53.05-1.53.05-1.53.06-1.53.06-1.53.07-1.52.07-1.53.07-1.52.08-1.53.08-1.52.09-1.52.09-1.53.1-1.52.1-1.52.1-1.52.11-1.52.12-1.51.11-1.52.13-1.52.12-1.52.13-1.51.14-1.52.14-1.51.14-1.51.15-1.52.15-1.51.16-1.51.16-1.51.17-1.51.17-1.51.17-1.51.18-1.5.18-1.51.19-1.51.19-1.5.2-1.51.2-1.5.2-1.5.21-1.51.21-1.5.22-1.5.22-1.5.23-1.5.23-1.5.23-1.5.24-1.49.25-1.5.24-1.5.26-1.49.25-1.5.26-1.49.27-1.49.27-1.49.27-1.5.28-1.49.28-1.49.29" style="stroke-width:1.07;stroke:#000000;stroke-opacity:0.10;stroke-linecap:butt"/><path d="m396.66 266.12-1.56-.1-1.55-.1-1.56-.09-1.55-.09-1.55-.09-1.55-.09-1.56-.08-1.55-.08-1.55-.07-1.55-.07-1.55-.07-1.55-.06-1.54-.06-1.55-.05-1.55-.06-1.55-.04-1.54-.05-1.55-.04-1.54-.04-1.54-.03-1.55-.03-1.54-.03-1.54-.02-1.54-.02-1.54-.02-1.54-.01-1.54-.01h-1.54l-1.54-.01-1.54.01h-1.54l-1.53.01-1.54.01-1.54.02-1.53.02-1.53.02-1.54.03-1.53.03-1.53.04-1.53.04-1.54.04-1.53.04-1.53.05-1.53.06-1.52.05-1.53.06-1.53.07-1.53.06-1.52.07-1.53.08-1.52.08-1.53.08-1.52.08-1.53.09-1.52.09-1.52.1-1.52.1-1.52.1-1.52.11-1.52.11-1.52.11-1.52.12-1.52.12-1.52.13-1.51.13-1.52.13-1.51.14-1.52.13-1.51.15-1.52.14-1.51.15-1.51.16-1.51.16-1.51.16-1.52.16-1.51.17-1.5.17-1.51.18-1.51.18-1.51.18-1.51.19-1.5.19-1.51.19-1.5.2-1.51.2-1.5.2-1.5.21-1.51.21-1.5.22-1.5.22-1.5.22-1.5.23-1.5.23-1.5.23-1.5.24-1.5.24-1.49.24-1.5.25-1.5.25" style="stroke-width:1.07;stroke:#000000;stroke-opacity:0.10;stroke-linecap:butt"/><path d="m396.66 266.12-1.55-.06-1.55-.07-1.55-.06-1.55-.06-1.54-.05-1.55-.06-1.55-.05-1.54-.04-1.55-.05-1.54-.04-1.55-.04-1.54-.03-1.55-.03-1.54-.03-1.54-.03-1.54-.02-1.55-.03-1.54-.01-1.54-.02-1.54-.01-1.54-.01-1.54-.01h-4.61l-1.54.01h-1.54l-1.53.01-1.54.02-1.53.01-1.54.02-1.53.03-1.54.02-1.53.03-1.53.03-1.54.03-1.53.04-1.53.04-1.53.04-1.53.05-1.53.05-1.53.05-1.53.05-1.53.06-1.53.06-1.53.06-1.52.07-1.53.07-1.53.07-1.52.07-1.53.08-1.52.08-1.53.08-1.52.09-1.52.09-1.52.09-1.53.09-1.52.1-1.52.1-1.52.11-1.52.1-1.52.11-1.52.11-1.52.12-1.52.12-1.52.12-1.51.12-1.52.13-1.52.13-1.51.13-1.52.13-1.51.14-1.52.14-1.51.15-1.52.14-1.51.15-1.51.15-1.51.16-1.52.16-1.51.16-1.51.16-1.51.17-1.51.17-1.51.17-1.51.18-1.5.18-1.51.18-1.51.18-1.51.19-1.5.19-1.51.19-1.5.2-1.51.2-1.5.2-1.51.2-1.5.21-1.5.21-1.51.21-1.5.22" style="stroke-width:1.07;stroke:#000000;stroke-opacity:0.10;stroke-linecap:butt"/><path d="m396.66 266.12-1.55-.03-1.54-.03-1.54-.02-1.54-.03-1.55-.02-1.54-.02-1.54-.02-1.54-.02-1.54-.01-1.54-.02-1.54-.01h-1.54l-1.54-.01h-1.54l-1.54-.01h-1.53l-1.54.01h-1.54l-1.54.01-1.53.01-1.54.01-1.54.01-1.53.02-1.54.02-1.53.02-1.54.02-1.53.03-1.53.02-1.54.03-1.53.03-1.53.04-1.53.03-1.54.04-1.53.04-1.53.04-1.53.04-1.53.05-1.53.05-1.53.05-1.53.05-1.53.06-1.53.05-1.52.06-1.53.06-1.53.07-1.53.06-1.52.07-1.53.07-1.53.07-1.52.08-1.53.07-1.52.08-1.53.08-1.52.09-1.53.08-1.52.09-1.52.09-1.53.09-1.52.1-1.52.09-1.52.1-1.52.1-1.52.1-1.52.11-1.52.1-1.52.11-1.52.11-1.52.12-1.52.11-1.52.12-1.52.12-1.52.12-1.51.13-1.52.12-1.52.13-1.51.13-1.52.14-1.51.13-1.52.14-1.51.14-1.52.14-1.51.14-1.52.15-1.51.15-1.51.15-1.52.15-1.51.16-1.51.15-1.51.16-1.51.16-1.51.17-1.51.16-1.51.17-1.51.17-1.51.17-1.51.17-1.51.18-1.51.18-1.51.18" style="stroke-width:1.07;stroke:#000000;stroke-opacity:0.10;stroke-linecap:butt"/><path d="m396.66 266.12-1.54.01h-1.54l-1.53.01-1.54.01-1.54.01-1.53.01-1.54.01-1.54.01-1.53.02-1.54.02-1.53.01-1.54.02-1.53.02-1.54.03-1.53.02-1.53.02-1.54.03-1.53.03-1.53.03-1.54.03-1.53.03-1.53.04-1.53.03-1.54.04-1.53.04-1.53.04-1.53.04-1.53.04-1.53.04-1.53.05-1.53.05-1.53.05-1.53.05-1.53.05-1.53.05-1.53.05-1.53.06-1.53.06-1.53.05-1.53.06-1.52.07-1.53.06-1.53.06-1.53.07-1.52.07-1.53.06-1.53.07-1.52.08-1.53.07-1.52.07-1.53.08-1.52.08-1.53.08-1.52.08-1.53.08-1.52.08-1.53.08-1.52.09-1.52.09-1.53.09-1.52.09-1.52.09-1.53.09-1.52.1-1.52.09-1.52.1-1.52.1-1.53.1-1.52.1-1.52.11-1.52.1-1.52.11-1.52.1-1.52.11-1.52.11-1.52.12-1.52.11-1.52.11-1.51.12-1.52.12-1.52.12-1.52.12-1.52.12-1.51.12-1.52.13-1.52.12-1.52.13-1.51.13-1.52.13-1.51.13-1.52.14-1.52.13-1.51.14-1.52.14-1.51.14-1.51.14-1.52.14-1.51.14-1.52.15" style="stroke-width:1.07;stroke:#000000;stroke-opacity:0.10;stroke-linecap:butt"/><path d="m396.66 266.12-1.53.04-1.53.04-1.54.04-1.53.04-1.53.05-1.53.04-1.53.04-1.53.05-1.53.04-1.53.05-1.53.04-1.53.05-1.53.05-1.53.05-1.53.04-1.53.05-1.53.06-1.53.05-1.53.05-1.53.05-1.53.05-1.53.06-1.53.05-1.53.06-1.53.06-1.53.05-1.52.06-1.53.06-1.53.06-1.53.06-1.53.06-1.52.06-1.53.06-1.53.07-1.53.06-1.52.06-1.53.07-1.53.06-1.53.07-1.52.07-1.53.07-1.53.06-1.52.07-1.53.07-1.53.07-1.52.08-1.53.07-1.52.07-1.53.07-1.53.08-1.52.07-1.53.08-1.52.08-1.53.07-1.52.08-1.53.08-1.52.08-1.53.08-1.52.08-1.53.08-1.52.08-1.52.09-1.53.08-1.52.09-1.53.08-1.52.09-1.52.08-1.53.09-1.52.09-1.52.09-1.53.09-1.52.09-1.52.09-1.53.09-1.52.09-1.52.1-1.52.09-1.53.1-1.52.09-1.52.1-1.52.09-1.52.1-1.53.1-1.52.1-1.52.1-1.52.1-1.52.1-1.52.1-1.52.1-1.52.11-1.53.1-1.52.11-1.52.1-1.52.11-1.52.1-1.52.11-1.52.11-1.52.11-1.52.11" style="stroke-width:1.07;stroke:#000000;stroke-opacity:0.10;stroke-linecap:butt"/><path d="m396.66 266.12-1.53.08-1.52.07-1.53.08-1.52.07-1.53.08-1.53.07-1.52.08-1.53.07-1.52.07-1.53.08-1.52.07-1.53.08-1.53.07-1.52.08-1.53.07-1.52.07-1.53.08-1.52.07-1.53.08-1.53.07-1.52.08-1.53.07-1.52.08-1.53.07-1.52.07-1.53.08-1.53.07-1.52.08-1.53.07-1.52.08-1.53.07-1.52.07-1.53.08-1.53.07-1.52.08-1.53.07-1.52.08-1.53.07-1.52.08-1.53.07-1.53.07-1.52.08-1.53.07-1.52.08-1.53.07-1.52.08-1.53.07-1.53.08-1.52.07-1.53.07-1.52.08-1.53.07-1.52.08-1.53.07-1.53.08-1.52.07-1.53.07-1.52.08-1.53.07-1.52.08-1.53.07-1.53.08-1.52.07-1.53.08-1.52.07-1.53.07-1.52.08-1.53.07-1.53.08-1.52.07-1.53.08-1.52.07-1.53.08-1.52.07-1.53.07-1.53.08-1.52.07-1.53.08-1.52.07-1.53.08-1.52.07-1.53.07-1.53.08-1.52.07-1.53.08-1.52.07-1.53.08-1.52.07-1.53.08-1.53.07-1.52.07-1.53.08-1.52.07-1.53.08-1.52.07-1.53.08-1.53.07-1.52.08-1.53.07" style="stroke-width:1.07;stroke:#000000;stroke-opacity:0.10;stroke-linecap:butt"/><path d="m396.66 266.12-1.52.11-1.52.11-1.52.11-1.52.11-1.52.11-1.52.1-1.52.11-1.52.1-1.52.11-1.52.1-1.53.1-1.52.1-1.52.11-1.52.1-1.52.1-1.52.09-1.52.1-1.53.1-1.52.1-1.52.09-1.52.1-1.52.09-1.53.1-1.52.09-1.52.09-1.53.09-1.52.1-1.52.09-1.52.09-1.53.08-1.52.09-1.52.09-1.53.09-1.52.08-1.53.09-1.52.08-1.52.09-1.53.08-1.52.08-1.53.08-1.52.08-1.53.08-1.52.08-1.53.08-1.52.08-1.53.08-1.52.07-1.53.08-1.52.08-1.53.07-1.52.07-1.53.08-1.53.07-1.52.07-1.53.07-1.53.07-1.52.07-1.53.07-1.53.07-1.52.06-1.53.07-1.53.07-1.52.06-1.53.07-1.53.06-1.53.06-1.52.06-1.53.07-1.53.06-1.53.06-1.53.05-1.53.06-1.52.06-1.53.06-1.53.05-1.53.06-1.53.06-1.53.05-1.53.05-1.53.06-1.53.05-1.53.05-1.53.05-1.53.05-1.52.05-1.54.05-1.53.04-1.53.05-1.53.05-1.53.04-1.53.05-1.53.04-1.53.04-1.53.05-1.53.04-1.53.04-1.53.04-1.54.04-1.53.04" style="stroke-width:1.07;stroke:#000000;stroke-opacity:0.10;stroke-linecap:butt"/><path d="m396.66 266.12-1.52.15-1.51.14-1.51.15-1.52.14-1.51.14-1.52.13-1.51.14-1.52.14-1.51.13-1.52.13-1.52.13-1.51.13-1.52.13-1.52.13-1.51.12-1.52.12-1.52.13-1.52.12-1.52.12-1.51.11-1.52.12-1.52.12-1.52.11-1.52.11-1.52.11-1.52.11-1.52.11-1.52.1-1.52.11-1.52.1-1.52.1-1.52.1-1.53.1-1.52.1-1.52.1-1.52.09-1.52.09-1.53.1-1.52.09-1.52.09-1.53.08-1.52.09-1.53.08-1.52.09-1.52.08-1.53.08-1.52.08-1.53.07-1.52.08-1.53.07-1.53.08-1.52.07-1.53.07-1.53.07-1.52.07-1.53.06-1.53.07-1.52.06-1.53.06-1.53.06-1.53.06-1.53.05-1.53.06-1.53.05-1.53.06-1.52.05-1.53.05-1.53.05-1.53.04-1.54.05-1.53.04-1.53.05-1.53.04-1.53.04-1.53.03-1.53.04-1.54.04-1.53.03-1.53.03-1.53.03-1.54.03-1.53.03-1.53.03-1.54.02-1.53.03-1.54.02-1.53.02-1.54.02-1.53.02-1.54.02-1.53.01-1.54.01-1.54.02-1.53.01-1.54.01h-1.54l-1.53.01-1.54.01h-1.54" style="stroke-width:1.07;stroke:#000000;stroke-opacity:0.10;stroke-linecap:butt"/><path d="m396.66 266.12-1.51.18-1.51.18-1.51.18-1.51.17-1.5.18-1.51.17-1.51.16-1.51.17-1.52.16-1.51.16-1.51.16-1.51.16-1.51.15-1.52.16-1.51.15-1.51.14-1.52.15-1.51.14-1.51.15-1.52.13-1.51.14-1.52.14-1.52.13-1.51.13-1.52.13-1.52.13-1.51.12-1.52.12-1.52.12-1.52.12-1.52.12-1.51.11-1.52.11-1.52.11-1.52.11-1.52.1-1.53.1-1.52.1-1.52.1-1.52.1-1.52.09-1.53.09-1.52.09-1.52.09-1.53.09-1.52.08-1.53.08-1.52.08-1.53.08-1.52.07-1.53.07-1.52.07-1.53.07-1.53.07-1.53.06-1.52.06-1.53.06-1.53.06-1.53.05-1.53.05-1.53.06-1.53.04-1.53.05-1.53.04-1.53.05-1.53.04-1.53.03-1.54.04-1.53.03-1.53.03-1.54.03-1.53.03-1.53.02-1.54.03-1.53.02-1.54.01-1.53.02-1.54.01-1.54.01-1.53.01-1.54.01-1.54.01h-4.61l-1.54-.01h-1.54l-1.54-.01-1.54-.01-1.54-.01-1.54-.02-1.54-.01-1.54-.02-1.54-.02-1.55-.03-1.54-.02-1.54-.03-1.54-.03-1.55-.03" style="stroke-width:1.07;stroke:#000000;stroke-opacity:0.10;stroke-linecap:butt"/><path d="m396.66 266.12-1.5.22-1.51.21-1.5.21-1.5.21-1.51.21-1.5.2-1.51.2-1.5.19-1.51.19-1.5.19-1.51.19-1.51.19-1.5.18-1.51.18-1.51.17-1.51.17-1.51.17-1.51.17-1.51.16-1.51.17-1.51.15-1.52.16-1.51.15-1.51.15-1.52.15-1.51.14-1.51.14-1.52.14-1.52.14-1.51.13-1.52.13-1.51.12-1.52.13-1.52.12-1.52.12-1.52.11-1.52.11-1.52.11-1.52.11-1.52.1-1.52.1-1.52.1-1.52.09-1.53.1-1.52.08-1.52.09-1.53.08-1.52.08-1.53.08-1.52.08-1.53.07-1.53.07-1.52.06-1.53.06-1.53.06-1.53.06-1.53.06-1.53.05-1.53.04-1.53.05-1.53.04-1.53.04-1.53.04-1.53.03-1.54.03-1.53.03-1.53.03-1.54.02-1.53.02-1.54.02-1.54.01-1.53.01-1.54.01h-1.54l-1.53.01h-1.54l-1.54-.01-1.54-.01h-1.54l-1.54-.02-1.54-.01-1.54-.02-1.54-.02-1.55-.03-1.54-.02-1.54-.03-1.55-.03-1.54-.04-1.54-.04-1.55-.04-1.54-.04-1.55-.05-1.55-.05-1.54-.05-1.55-.06-1.55-.06-1.55-.06-1.55-.06-1.55-.07" style="stroke-width:1.07;stroke:#000000;stroke-opacity:0.10;stroke-linecap:butt"/><path d="m396.66 266.12-1.5.26-1.49.24-1.5.25-1.5.24-1.5.24-1.5.23-1.5.23-1.5.22-1.5.23-1.5.22-1.5.21-1.5.21-1.51.21-1.5.21-1.51.2-1.5.19-1.51.2-1.5.19-1.51.18-1.51.19-1.51.18-1.5.17-1.51.17-1.51.17-1.51.17-1.52.16-1.51.16-1.51.15-1.51.15-1.52.15-1.51.14-1.51.14-1.52.13-1.52.14-1.51.13-1.52.12-1.52.12-1.52.12-1.52.11-1.52.11-1.52.11-1.52.1-1.52.1-1.52.1-1.52.09-1.53.09-1.52.09-1.52.08-1.53.08-1.52.07-1.53.07-1.53.07-1.53.06-1.52.06-1.53.06-1.53.05-1.53.05-1.53.05-1.53.04-1.54.04-1.53.03-1.53.03-1.53.03-1.54.02-1.53.02-1.54.02-1.53.01-1.54.01-1.54.01h-3.07l-1.54-.01-1.54-.01-1.54-.01-1.54-.01-1.55-.02-1.54-.03-1.54-.02-1.54-.03-1.55-.04-1.54-.04-1.55-.04-1.54-.04-1.55-.05-1.55-.05-1.54-.06-1.55-.06-1.55-.06-1.55-.07-1.55-.07-1.55-.07-1.55-.08-1.55-.08-1.56-.08-1.55-.09-1.55-.09-1.56-.1-1.55-.1-1.56-.1" style="stroke-width:1.07;stroke:#000000;stroke-opacity:0.10;stroke-linecap:butt"/><path d="m396.66 266.12-1.49.29-1.49.28-1.49.28-1.5.28-1.49.27-1.49.26-1.5.26-1.49.26-1.5.25-1.5.25-1.49.24-1.5.24-1.5.24-1.5.23-1.5.22-1.5.22-1.5.22-1.5.21-1.51.21-1.5.21-1.51.2-1.5.19-1.51.2-1.5.18-1.51.19-1.51.17-1.51.18-1.51.17-1.51.16-1.51.16-1.51.16-1.51.15-1.52.15-1.51.15-1.52.13-1.51.14-1.52.13-1.52.13-1.51.12-1.52.12-1.52.11-1.52.11-1.52.1-1.52.1-1.53.1-1.52.09-1.52.09-1.53.08-1.52.08-1.53.08-1.52.07-1.53.06-1.53.06-1.53.06-1.53.05-1.53.05-1.53.05-1.53.04-1.53.03-1.53.03-1.54.03-1.53.02-1.54.02-1.53.01-1.54.01-1.54.01h-1.53l-1.54-.01h-1.54l-1.54-.02-1.54-.01-1.55-.02-1.54-.03-1.54-.03-1.55-.03-1.54-.04-1.55-.04-1.54-.05-1.55-.05-1.55-.06-1.54-.06-1.55-.06-1.55-.07-1.55-.07-1.55-.08-1.56-.08-1.55-.09-1.55-.09-1.56-.09-1.55-.1-1.56-.11-1.55-.1-1.56-.12-1.56-.11-1.56-.12-1.56-.13-1.56-.13-1.56-.13-1.56-.14" style="stroke-width:1.07;stroke:#000000;stroke-opacity:0.10;stroke-linecap:butt"/><path d="m396.66 266.12-1.49.33-1.48.31-1.49.32-1.48.3-1.49.31-1.49.29-1.49.29-1.49.29-1.49.28-1.49.28-1.49.27-1.5.27-1.49.26-1.5.26-1.49.25-1.5.24-1.5.25-1.5.23-1.5.23-1.5.23-1.5.22-1.5.22-1.5.21-1.51.2-1.5.2-1.51.2-1.5.19-1.51.19-1.51.18-1.5.17-1.51.17-1.51.17-1.52.16-1.51.15-1.51.15-1.52.15-1.51.14-1.52.13-1.51.13-1.52.13-1.52.12-1.52.11-1.52.11-1.52.11-1.52.1-1.52.09-1.52.09-1.53.09-1.52.08-1.53.07-1.52.07-1.53.06-1.53.06-1.53.06-1.53.05-1.53.04-1.53.04-1.53.03-1.54.03-1.53.03-1.54.02-1.53.01-1.54.01h-3.08l-1.53-.01-1.54-.01-1.55-.01-1.54-.03-1.54-.02-1.54-.03-1.55-.04-1.54-.04-1.55-.05-1.55-.05-1.54-.06-1.55-.06-1.55-.07-1.55-.07-1.55-.08-1.56-.08-1.55-.09-1.55-.09-1.56-.1-1.55-.1-1.56-.11-1.56-.11-1.55-.12-1.56-.12-1.56-.13-1.56-.13-1.56-.14-1.57-.15-1.56-.14-1.56-.16-1.57-.16-1.56-.16-1.57-.17-1.57-.17" style="stroke-width:1.07;stroke:#000000;stroke-opacity:0.10;stroke-linecap:butt"/><path d="m396.66 266.12-1.48.36-1.48.35-1.48.35-1.48.34-1.48.33-1.49.33-1.48.33-1.48.31-1.49.32-1.49.3-1.49.3-1.48.29-1.49.29-1.49.29-1.5.27-1.49.27-1.49.27-1.5.26-1.49.25-1.5.25-1.5.24-1.5.24-1.5.23-1.5.22-1.5.22-1.5.22-1.5.2-1.51.2-1.5.2-1.51.19-1.51.18-1.51.18-1.5.18-1.51.16-1.52.16-1.51.16-1.51.15-1.52.14-1.51.14-1.52.13-1.51.13-1.52.12-1.52.11-1.52.11-1.52.11-1.52.09-1.53.1-1.52.08-1.52.08-1.53.08-1.53.07-1.52.06-1.53.06-1.53.05-1.53.04-1.53.04-1.54.04-1.53.02-1.53.03-1.54.01-1.54.01-1.53.01h-1.54l-1.54-.01-1.54-.01-1.54-.02-1.55-.02-1.54-.03-1.54-.04-1.55-.04-1.54-.05-1.55-.05-1.55-.06-1.55-.06-1.55-.07-1.55-.08-1.55-.08-1.55-.09-1.56-.09-1.55-.1-1.56-.1-1.55-.12-1.56-.11-1.56-.12-1.56-.13-1.56-.14-1.56-.14-1.57-.14-1.56-.15-1.56-.16-1.57-.16-1.56-.17-1.57-.17-1.57-.18-1.57-.19-1.57-.19-1.57-.2-1.57-.2-1.58-.21" style="stroke-width:1.07;stroke:#000000;stroke-opacity:0.10;stroke-linecap:butt"/><path d="m396.66 266.12-1.47.4-1.48.38-1.47.38-1.48.38-1.47.36-1.48.37-1.48.35-1.48.35-1.48.34-1.48.33-1.49.33-1.48.32-1.49.32-1.48.31-1.49.3-1.49.29-1.49.29-1.49.29-1.49.27-1.49.27-1.5.26-1.49.26-1.5.25-1.5.24-1.5.24-1.5.23-1.5.23-1.5.21-1.5.21-1.5.21-1.51.2-1.51.19-1.5.18-1.51.18-1.51.17-1.51.17-1.51.16-1.51.15-1.52.15-1.51.14-1.52.13-1.52.12-1.51.12-1.52.12-1.52.1-1.52.11-1.53.09-1.52.09-1.53.08-1.52.07-1.53.07-1.53.06-1.52.06-1.53.04-1.54.05-1.53.03-1.53.03-1.54.02-1.53.02-1.54.01h-3.07l-1.54-.01-1.55-.02-1.54-.02-1.54-.03-1.55-.04-1.54-.04-1.55-.05-1.54-.06-1.55-.06-1.55-.07-1.55-.07-1.56-.08-1.55-.09-1.55-.1-1.56-.1-1.55-.11-1.56-.11-1.56-.12-1.56-.13-1.56-.13-1.56-.14-1.56-.15-1.57-.15-1.56-.16-1.57-.17-1.57-.17-1.56-.18-1.57-.19-1.57-.19-1.58-.2-1.57-.2-1.57-.21-1.58-.22-1.57-.23-1.58-.23-1.58-.24-1.58-.24" style="stroke-width:1.07;stroke:#000000;stroke-opacity:0.10;stroke-linecap:butt"/><path d="m396.66 266.12-1.47.43-1.47.42-1.46.42-1.47.4-1.48.4-1.47.4-1.47.38-1.48.38-1.47.37-1.48.36-1.48.36-1.48.35-1.48.34-1.48.34-1.48.32-1.49.32-1.48.32-1.49.3-1.49.3-1.49.29-1.49.29-1.49.27-1.49.27-1.5.26-1.49.26-1.5.25-1.5.24-1.5.23-1.5.23-1.5.22-1.5.21-1.51.2-1.5.2-1.51.19-1.5.18-1.51.18-1.51.17-1.51.16-1.52.15-1.51.15-1.51.14-1.52.13-1.52.12-1.52.12-1.52.11-1.52.11-1.52.09-1.52.09-1.53.08-1.52.08-1.53.06-1.53.06-1.53.06-1.53.04-1.53.04-1.53.03-1.54.03-1.53.01-1.54.01h-3.08l-1.54-.01-1.54-.02-1.54-.03-1.54-.03-1.55-.05-1.55-.04-1.54-.06-1.55-.06-1.55-.07-1.55-.08-1.55-.08-1.56-.1-1.55-.1-1.56-.1-1.56-.12-1.56-.12-1.55-.12-1.57-.14-1.56-.14-1.56-.15-1.57-.16-1.56-.16-1.57-.17-1.57-.18-1.57-.19-1.57-.19-1.57-.2-1.57-.21-1.57-.21-1.58-.22-1.58-.23-1.57-.24-1.58-.24-1.58-.25-1.59-.26-1.58-.27-1.58-.27-1.59-.28" style="stroke-width:1.07;stroke:#000000;stroke-opacity:0.10;stroke-linecap:butt"/><path d="m396.66 266.12-1.46.47-1.46.45-1.47.45-1.46.44-1.47.43-1.46.43-1.47.41-1.47.41-1.47.4-1.48.4-1.47.38-1.47.38-1.48.37-1.48.36-1.48.35-1.48.34-1.48.34-1.48.33-1.49.32-1.48.31-1.49.31-1.49.29-1.49.29-1.49.28-1.49.28-1.5.26-1.49.26-1.5.25-1.49.24-1.5.23-1.5.23-1.51.22-1.5.21-1.5.2-1.51.19-1.51.19-1.5.18-1.51.17-1.51.16-1.52.15-1.51.15-1.52.13-1.51.13-1.52.13-1.52.11-1.52.11-1.52.1-1.52.09-1.53.08-1.52.07-1.53.07-1.53.06-1.53.05-1.53.04-1.53.04-1.54.02-1.53.02-1.54.01h-3.07l-1.55-.01-1.54-.02-1.54-.03-1.54-.04-1.55-.05-1.55-.05-1.55-.06-1.55-.07-1.55-.07-1.55-.09-1.55-.09-1.56-.1-1.55-.11-1.56-.12-1.56-.12-1.56-.13-1.56-.14-1.57-.15-1.56-.16-1.57-.16-1.56-.17-1.57-.18-1.57-.19-1.57-.2-1.57-.2-1.58-.21-1.57-.22-1.58-.23-1.58-.24-1.58-.24-1.58-.25-1.58-.26-1.58-.27-1.59-.27-1.58-.29-1.59-.29-1.59-.3-1.59-.31-1.59-.31" style="stroke-width:1.07;stroke:#000000;stroke-opacity:0.10;stroke-linecap:butt"/><path d="m266.67 372.34 8.59 14.88h-17.18zm256.1-31.63 3.45 5.97h-6.89zm-179.9-184.3 1.92 3.32h-3.83z" style="stroke-width:0.71;stroke:none;fill:#00BA38"/><path d="M389.9 272.88h13.51v-13.51H389.9z" style="stroke-width:0.71;stroke:none;fill:#619CFF"/><circle cx="245.61" cy="273.49" r="6.38" style="stroke-width:0.71;stroke:none;fill:#F8766D"/><circle cx="55.97" cy="442.45" r="1.42" style="stroke-width:0.71;stroke:none;fill:#F8766D"/><circle cx="323.02" cy="525.05" r="1.42" style="stroke-width:0.71;stroke:none;fill:#F8766D"/><circle cx="479.39" cy="467.8" r="1.42" style="stroke-width:0.71;stroke:none;fill:#F8766D"/><path d="m261.28 386.9 4.51-3.88m71.66-219.73 4.54-3.91m49.07 111.36 4.7-3.87m-144.57 2.02-4.68 3.86m82.13 247.67-4.72 3.89m149.85-51.88 4.72-3.89" style="stroke-width:0.53;stroke:#BFBFBF"/><path d="M218.59 398.24h69.82-.09l.35-.01.34-.07.33-.13.3-.17.27-.22.23-.26.18-.29.14-.32.08-.34.03-.35h0v-7.02h0l-.03-.35-.08-.34-.14-.32-.18-.29-.23-.26-.27-.22-.3-.18-.33-.12-.34-.07-.26-.01h-69.82l.26.01-.34-.01-.35.04-.33.1-.32.15-.28.19-.25.24-.21.28-.17.31-.11.33-.05.34-.01.18v7.02l.01-.17v.35l.05.34.11.33.17.31.21.28.25.24.28.19.32.15.33.1.35.04z" style="stroke-width:0.53;fill:#FFFFFF;fill-opacity:0.50"/><text x="253.5" y="394.64" lengthAdjust="spacingAndGlyphs" style="font-size:5.69px;font-family:&quot;Liberation Sans&quot;" text-anchor="middle" textLength="66.94">SPARK PROPERTIES LLC</text><path d="M443.26 350.23h72.48-.08l.34-.01.35-.07.32-.12.3-.18.27-.22.23-.26.19-.29.13-.32.09-.34.02-.35h0v-7.02h0l-.02-.35-.09-.34-.13-.32-.19-.29-.23-.26-.27-.22-.3-.17-.32-.13-.35-.07-.26-.01h-72.48l.26.01-.35-.01-.35.04-.33.1-.31.15-.29.19-.25.25-.21.27-.16.31-.11.33-.06.34v7.2-.17.35l.06.34.11.33.16.31.21.28.25.24.29.2.31.14.33.1.35.04z" style="stroke-width:0.53;fill:#FFFFFF;fill-opacity:0.50"/><text x="479.5" y="346.63" lengthAdjust="spacingAndGlyphs" style="font-size:5.69px;font-family:&quot;Liberation Sans&quot;" text-anchor="middle" textLength="69.61">FLEX HOME BUYERS LLC</text><path d="M299.74 174.64h60.01-.09l.35-.01.34-.07.32-.13.3-.17.27-.22.23-.26.19-.3.13-.32.09-.33.03-.35h0v-7.03h0l-.03-.34-.09-.34-.13-.32-.19-.29-.23-.26-.27-.22-.3-.18-.32-.12-.34-.07-.26-.02h-60.01l.26.02-.35-.01-.34.04-.33.09-.32.15-.28.2-.26.24-.2.28-.17.31-.11.33-.05.34-.01.17v7.03l.01-.17v.34l.05.35.11.33.17.31.2.27.26.24.28.2.32.15.33.1.34.04z" style="stroke-width:0.53;fill:#FFFFFF;fill-opacity:0.50"/><text x="329.74" y="171.04" lengthAdjust="spacingAndGlyphs" style="font-size:5.69px;font-family:&quot;Liberation Sans&quot;" text-anchor="middle" textLength="57.12">FIT PROPERTIES LLC</text><path d="M344.96 290.28h66.75-.09l.35-.01.34-.07.33-.12.3-.18.27-.22.23-.26.18-.29.14-.32.08-.34.03-.35h0V272.9h0l-.03-.34-.08-.34-.14-.32-.18-.3-.23-.26-.27-.22-.3-.17-.33-.12-.34-.07-.26-.02h-66.75l.26.02-.35-.02-.34.05-.34.09-.31.15-.29.2-.25.24-.21.28-.16.31-.11.33-.05.34-.01.17v15.22l.01-.17v.35l.05.34.11.33.16.31.21.28.25.24.29.19.31.15.34.1.34.04z" style="stroke-width:0.53;fill:#FFFFFF;fill-opacity:0.50"/><text x="378.34" y="278.49" lengthAdjust="spacingAndGlyphs" style="font-size:5.69px;font-family:&quot;Liberation Sans&quot;" text-anchor="middle" textLength="63.87">PO BOX 614, MERTON,</text><text x="378.34" y="286.68" lengthAdjust="spacingAndGlyphs" style="font-size:5.69px;font-family:&quot;Liberation Sans&quot;" text-anchor="middle" textLength="27.22">WI 53056</text><path d="M230.52 268.89h66.75-.09l.35-.01.34-.07.32-.13.3-.17.27-.22.23-.26.19-.29.14-.32.08-.34.03-.35h0v-15.22h0l-.03-.35-.08-.33-.14-.32-.19-.3-.23-.26-.27-.22-.3-.17-.32-.12-.34-.07-.26-.02h-66.75l.26.02-.35-.02-.35.04-.33.1-.31.15-.29.2-.25.24-.21.28-.16.3-.11.33-.06.35v15.39-.17.35l.06.34.11.33.16.31.21.27.25.25.29.19.31.15.33.1.35.04z" style="stroke-width:0.53;fill:#FFFFFF;fill-opacity:0.50"/><text x="263.89" y="257.1" lengthAdjust="spacingAndGlyphs" style="font-size:5.69px;font-family:&quot;Liberation Sans&quot;" text-anchor="middle" textLength="63.87">PO BOX 614, MERTON,</text><text x="263.89" y="265.29" lengthAdjust="spacingAndGlyphs" style="font-size:5.69px;font-family:&quot;Liberation Sans&quot;" text-anchor="middle" textLength="27.22">WI 53056</text><path d="M63.02 452.21h66.76l-.09-.01.35-.01.34-.07.32-.12.3-.18.27-.22.23-.26.19-.29.13-.32.09-.34.03-.34h0v-15.23h0l-.03-.34-.09-.34-.13-.32-.19-.29-.23-.26-.27-.22-.3-.18-.32-.12-.34-.07-.26-.02H63.02l.26.02-.34-.01-.35.04-.33.09-.32.15-.28.2-.25.24-.21.28-.16.31-.11.33-.06.34-.01.17v15.23l.01-.18v.35l.06.34.11.33.16.31.21.28.25.24.28.2.32.15.33.09.35.04z" style="stroke-width:0.53;fill:#FFFFFF;fill-opacity:0.50"/><text x="96.4" y="440.41" lengthAdjust="spacingAndGlyphs" style="font-size:5.69px;font-family:&quot;Liberation Sans&quot;" text-anchor="middle" textLength="63.87">PO BOX 614, MERTON,</text><text x="96.4" y="448.61" lengthAdjust="spacingAndGlyphs" style="font-size:5.69px;font-family:&quot;Liberation Sans&quot;" text-anchor="middle" textLength="27.22">WI 53086</text><path d="M308.2 520.42h66.37l-.09-.01.35-.01.34-.07.32-.12.3-.18.27-.22.23-.26.19-.29.14-.32.08-.34.03-.34h0v-15.23h0l-.03-.34-.08-.34-.14-.32-.19-.29-.23-.26-.27-.22-.3-.18-.32-.12-.34-.07-.26-.02H308.2l.26.02-.34-.01-.35.04-.33.09-.32.15-.28.2-.25.24-.21.28-.16.31-.11.33-.06.34-.01.17v15.23l.01-.18v.35l.06.34.11.33.16.31.21.28.25.24.28.2.32.15.33.09.35.04z" style="stroke-width:0.53;fill:#FFFFFF;fill-opacity:0.50"/><text x="341.39" y="508.62" lengthAdjust="spacingAndGlyphs" style="font-size:5.69px;font-family:&quot;Liberation Sans&quot;" text-anchor="middle" textLength="63.48">PO B0X 614, MERTON,</text><text x="341.39" y="516.82" lengthAdjust="spacingAndGlyphs" style="font-size:5.69px;font-family:&quot;Liberation Sans&quot;" text-anchor="middle" textLength="27.22">WI 53056</text><path d="M428.65 491.97h64.71-.08l.34-.01.34-.07.33-.13.3-.17.27-.22.23-.26.19-.29.13-.32.09-.34.02-.35h0v-15.22h0l-.02-.35-.09-.33-.13-.32-.19-.3-.23-.26-.27-.22-.3-.17-.33-.12-.34-.07-.26-.02h-64.71l.26.02-.35-.02-.34.04-.34.1-.31.15-.29.2-.25.24-.21.28-.16.3-.11.33-.05.35-.01.17v15.22l.01-.17v.35l.05.34.11.33.16.31.21.27.25.25.29.19.31.15.34.1.34.04z" style="stroke-width:0.53;fill:#FFFFFF;fill-opacity:0.50"/><text x="461.01" y="480.18" lengthAdjust="spacingAndGlyphs" style="font-size:5.69px;font-family:&quot;Liberation Sans&quot;" text-anchor="middle" textLength="42.43">282 IRVING PL,</text><text x="461.01" y="488.37" lengthAdjust="spacingAndGlyphs" style="font-size:5.69px;font-family:&quot;Liberation Sans&quot;" text-anchor="middle" textLength="61.83">HARTLAND, WI 53029</text></g><g clip-path="url(#cpMC4wMHw1NzYuMDB8MC4wMHw1NzYuMDA=)"><circle cx="194.24" cy="115.22" r="1.95" style="stroke-width:0.71;stroke:none;fill:#F8766D"/><path d="m270.59 112.18 2.63 4.56h-5.26z" style="stroke-width:0.71;stroke:none;fill:#00BA38"/><path d="M336.57 117.18h3.91v-3.91h-3.91z" style="stroke-width:0.71;stroke:none;fill:#619CFF"/><text x="208.36" y="118.25" lengthAdjust="spacingAndGlyphs" style="font-size:8.80px;font-family:&quot;Liberation Sans Narrow&quot;" textLength="48.12">mprop address</text><text x="284.71" y="118.25" lengthAdjust="spacingAndGlyphs" style="font-size:8.80px;font-family:&quot;Liberation Sans Narrow&quot;" textLength="39.69">owner name</text><text x="352.64" y="118.25" lengthAdjust="spacingAndGlyphs" style="font-size:8.80px;font-family:&quot;Liberation Sans Narrow&quot;" textLength="40.5">wdfi address</text><text x="32.63" y="83.67" lengthAdjust="spacingAndGlyphs" style="font-size:12.00px;font-family:&quot;Liberation Sans Narrow&quot;" textLength="252.23">includes 23 parcels, 35 units, and 3 distinct owner names.</text><text x="32.63" y="42.27" lengthAdjust="spacingAndGlyphs" style="font-size:18.00px;font-weight:bold;font-family:&quot;Liberation Sans Narrow&quot;" textLength="425.27">SPARK PROPERTIES LLC -- FLEX HOME BUYERS LLC -- FIT</text><text x="32.63" y="61.71" lengthAdjust="spacingAndGlyphs" style="font-size:18.00px;font-weight:bold;font-family:&quot;Liberation Sans Narrow&quot;" textLength="176.28">PROPERTIES LLC Group</text></g></svg>