<svg xmlns="http://www.w3.org/2000/svg" width="576" height="672" viewBox="0 0 432 504"><g class="svglite"><defs><style><![CDATA[.svglite line,.svglite polyline,.svglite polygon,.svglite path,.svglite circle{fill:none;stroke:#000000;stroke-linecap:round;stroke-linejoin:round;stroke-miterlimit:10.00}.svglite text{white-space:pre}.svglite g.glyphgroup path{fill:inherit;stroke:none}]]></style></defs><rect width="100%" height="100%" style="stroke-linecap:round;stroke-linejoin:round;stroke-miterlimit:10.00;stroke:none;fill:#FFFFFF"/><defs><clipPath id="cpMC4wMHw0MzIuMDB8MC4wMHw1MDQuMDA="><path d="M0 0h432v504H0z"/></clipPath></defs><g clip-path="url(#cpMC4wMHw0MzIuMDB8MC4wMHw1MDQuMDA=)"><path d="M0 0h432v504H0z" style="stroke-width:1.07;stroke:none;fill:#FFFFFF"/></g><defs><clipPath id="cpMjkuODl8NDAyLjExfDE0MS41OHw0NzQuMTE="><path d="M29.89 141.58h372.22v332.53H29.89z"/></clipPath></defs><g clip-path="url(#cpMjkuODl8NDAyLjExfDE0MS41OHw0NzQuMTE=)"><path d="m229.78 358.65-4.43 1.02-4.32 1.03-4.22 1.02-4.12 1.02-4.02 1.02-3.91 1.02-3.81 1.02-3.71 1.02-3.61 1.02-3.51 1.01-3.4 1.02-3.3 1.02-3.2 1.02-3.1 1.02-3 1.02-2.89 1.02-2.79 1.02-2.69 1.01-2.59 1.02-2.48 1.02-2.38 1.02-2.28 1.02-2.18 1.01-2.08 1.02-1.97 1.02-1.87 1.02-1.77 1.01-1.67 1.02-1.57 1.02-1.46 1.01-1.36 1.02-1.26 1.02-1.16 1.01-1.05 1.02-.96 1.01-.85 1.02-.75 1.01-.64 1.02-.55 1.01-.44 1.02-.34 1.01-.24 1.02-.13 1.01-.04 1.02.07 1.01.17 1.02.27 1.01.38 1.01.48 1.02.58 1.01.68 1.02.78 1.01.89 1.01.98 1.01 1.09 1.02 1.19 1.01 1.3 1.01 1.39 1.01 1.5 1.02 1.6 1.01 1.7 1.01 1.81 1.01 1.91 1.01 2 1.02 2.12 1.01 2.21 1.01 2.31 1.01 2.42 1.01 2.52 1.01 2.62 1.01 2.73 1.01 2.82 1.01 2.93 1.01 3.03 1.01 3.13 1.01 3.24 1.01 3.33 1.01 3.44 1.01 3.54 1.01 3.64 1.01 3.75 1.01 3.85 1.01 3.94 1.01 4.06 1.01 4.15 1 4.25 1.01 4.36 1.01 4.46 1.01 4.56 1.01 4.67 1 4.76 1.01 4.87 1.01 4.97 1.01 5.08 1 5.17 1.01 5.28 1.01 5.38 1 5.48 1.01 5.58 1.01m-57.32-100.35 5.77-1.27 5.64-1.28 5.51-1.28 5.39-1.28 5.26-1.27 5.13-1.28 5-1.28 4.87-1.27 4.75-1.28 4.62-1.28 4.48-1.27 4.37-1.28 4.23-1.27 4.1-1.28 3.98-1.28 3.85-1.27 3.72-1.28 3.59-1.27 3.47-1.28 3.34-1.27 3.2-1.28 3.08-1.27 2.96-1.28 2.82-1.27 2.7-1.28 2.57-1.27 2.44-1.28 2.31-1.27 2.18-1.27 2.06-1.28 1.92-1.27 1.8-1.27 1.67-1.28 1.55-1.27 1.41-1.27 1.29-1.28 1.16-1.27 1.03-1.27.9-1.28.78-1.27.64-1.27.52-1.27.39-1.28.27-1.27.13-1.27.01-1.27-.13-1.27-.25-1.27-.37-1.28-.51-1.27-.63-1.27-.77-1.27-.89-1.27-1.01-1.27-1.15-1.27-1.28-1.27-1.4-1.27-1.53-1.27-1.66-1.27-1.79-1.27-1.91-1.27-2.04-1.27-2.18-1.27-2.3-1.27-2.42-1.27-2.56-1.27-2.68-1.27-2.81-1.27-2.94-1.27-3.07-1.27-3.2-1.26-3.32-1.27-3.45-1.27-3.58-1.27-3.71-1.27-3.84-1.27-3.96-1.26-4.1-1.27-4.22-1.27-4.35-1.27-4.47-1.26-4.61-1.27-4.73-1.27-4.86-1.26-4.99-1.27-5.12-1.27-5.25-1.26-5.37-1.27-5.5-1.27-5.63-1.26-5.76-1.27-5.88-1.27-6.02-1.26-6.14-1.27-6.27-1.26-6.4-1.27-6.53-1.26-6.65-1.27-6.78-1.26" style="stroke-width:1.07;stroke:#000000;stroke-opacity:0.10;stroke-linecap:butt"/><path d="m229.78 358.65.58 1.02.57 1.01.58 1.01.58 1.02.58 1.01.58 1.02.58 1.01.58 1.01.58 1.02.58 1.01.58 1.01.57 1.02.58 1.01.58 1.01.58 1.02.58 1.01.58 1.01.58 1.02.58 1.01.58 1.02.58 1.01.57 1.01.58 1.02.58 1.01.58 1.01.58 1.02.58 1.01.58 1.01.58 1.02.58 1.01.58 1.01.58 1.02.57 1.01.58 1.02.58 1.01.58 1.01.58 1.02.58 1.01.58 1.01.58 1.02.58 1.01.58 1.01.57 1.02.58 1.01.58 1.01.58 1.02.58 1.01.58 1.01.58 1.02.58 1.01.58 1.02.58 1.01.57 1.01.58 1.02.58 1.01.58 1.01.58 1.02.58 1.01.58 1.01.58 1.02.58 1.01.58 1.01.57 1.02.58 1.01.58 1.02.58 1.01.58 1.01.58 1.02.58 1.01.58 1.01.58 1.02.58 1.01.57 1.01.58 1.02.58 1.01.58 1.01.58 1.02.58 1.01.58 1.02.58 1.01.58 1.01.58 1.02.58 1.01.57 1.01.58 1.02.58 1.01.58 1.01.58 1.02.58 1.01.58 1.01.58 1.02.58 1.01.58 1.02.57 1.01.58 1.01.58 1.02.58 1.01.58 1.01.58 1.02m-57.32-100.35-.51-1.27-.51-1.27-.5-1.27-.51-1.27-.5-1.27-.51-1.27-.51-1.28-.5-1.27-.51-1.27-.51-1.27-.5-1.27-.51-1.27-.5-1.27-.51-1.27-.51-1.28-.5-1.27-.51-1.27-.5-1.27-.51-1.27-.51-1.27-.5-1.27-.51-1.27-.51-1.28-.5-1.27-.51-1.27-.5-1.27-.51-1.27-.51-1.27-.5-1.27-.51-1.27-.5-1.28-.51-1.27-.51-1.27-.5-1.27-.51-1.27-.51-1.27-.5-1.27-.51-1.28-.5-1.27-.51-1.27-.51-1.27-.5-1.27-.51-1.27-.5-1.27-.51-1.27-.51-1.28-.5-1.27-.51-1.27-.5-1.27-.51-1.27-.51-1.27-.5-1.27-.51-1.27-.51-1.28-.5-1.27-.51-1.27-.5-1.27-.51-1.27-.51-1.27-.5-1.27-.51-1.27-.5-1.28-.51-1.27-.51-1.27-.5-1.27-.51-1.27-.51-1.27-.5-1.27-.51-1.27-.5-1.28-.51-1.27-.51-1.27-.5-1.27-.51-1.27-.5-1.27-.51-1.27-.51-1.28-.5-1.27-.51-1.27-.51-1.27-.5-1.27-.51-1.27-.5-1.27-.51-1.27-.51-1.28-.5-1.27-.51-1.27-.5-1.27-.51-1.27-.51-1.27-.5-1.27-.51-1.27-.51-1.28-.5-1.27-.51-1.27-.5-1.27-.51-1.27-.51-1.27-.5-1.27m-30.32-76.11.47 1.17.48 1.18.47 1.17.47 1.17.48 1.17.47 1.17.47 1.17.48 1.18.47 1.17.47 1.17.48 1.17.47 1.17.47 1.18.48 1.17.47 1.17.48 1.17.47 1.17.47 1.17.48 1.18.47 1.17.47 1.17.48 1.17.47 1.17.47 1.18.48 1.17.47 1.17.47 1.17.48 1.17.47 1.17.47 1.18.48 1.17.47 1.17.47 1.17.48 1.17.47 1.17.47 1.18.48 1.17.47 1.17.47 1.17.48 1.17.47 1.18.47 1.17.48 1.17.47 1.17.47 1.17.48 1.17.47 1.18.47 1.17.48 1.17.47 1.17.47 1.17.48 1.17.47 1.18.47 1.17.48 1.17.47 1.17.47 1.17.48 1.18.47 1.17.47 1.17.48 1.17.47 1.17.47 1.17.48 1.18.47 1.17.47 1.17.48 1.17.47 1.17.47 1.18.48 1.17.47 1.17.48 1.17.47 1.17.47 1.17.48 1.18.47 1.17.47 1.17.48 1.17.47 1.17.47 1.17.48 1.18.47 1.17.47 1.17.48 1.17.47 1.17.47 1.18.48 1.17.47 1.17.47 1.17.48 1.17.47 1.17.47 1.18.48 1.17.47 1.17.47 1.17.48 1.17.47 1.18.47 1.17.48 1.17" style="stroke-width:1.07;stroke:#000000;stroke-opacity:0.10;stroke-linecap:butt"/><path d="m149.35 156.69.31.77.3.77.31.77.31.77.3.77.31.76.3.77.31.77.31.77.3.77.31.77.31.77.3.77.31.76.3.77.31.77.31.77.3.77.31.77.31.77.3.77.31.76.3.77.31.77.31.77.3.77.31.77.31.77.3.77.31.76.3.77.31.77.31.77.3.77.31.77.31.77.3.77.31.76.3.77.31.77.31.77.3.77.31.77.3.77.31.77.31.76.3.77.31.77.31.77.3.77.31.77.3.77.31.77.31.76.3.77.31.77.31.77.3.77.31.77.3.77.31.76.31.77.3.77.31.77.31.77.3.77.31.77.3.77.31.76.31.77.3.77.31.77.31.77.3.77.31.77.3.77.31.76.31.77.3.77.31.77.31.77.3.77.31.77.3.77.31.76.31.77.3.77.31.77.31.77.3.77.31.77.3.77.31.76.31.77.3.77.31.77.31.77.3.77.31.77m50.11 125.85 5.58 1.01 5.48 1.01 5.38 1 5.28 1.01 5.17 1.01 5.07 1 4.97 1.01 4.87 1.01 4.77 1.01 4.66 1 4.56 1.01 4.46 1.01 4.36 1.01 4.26 1.01 4.15 1 4.05 1.01 3.95 1.01 3.85 1.01 3.74 1.01 3.64 1.01 3.55 1.01 3.43 1.01 3.34 1.01 3.23 1.01 3.14 1.01 3.03 1.01 2.92 1.01 2.83 1.01 2.72 1.01 2.63 1.01 2.51 1.01 2.42 1.01 2.32 1.01 2.21 1.01 2.11 1.01 2.01 1.02 1.91 1.01 1.8 1.01 1.7 1.01 1.6 1.01 1.5 1.02 1.4 1.01 1.29 1.01 1.19 1.01 1.09 1.02.99 1.01.89 1.01.78 1.02.68 1.01.58 1.01.48 1.02.37 1.01.27 1.01.17 1.02.07 1.01-.03 1.02-.14 1.01-.23 1.02-.34 1.01-.45 1.02-.54 1.01-.65 1.02-.75 1.01-.85 1.02-.95 1.01-1.06 1.02-1.15 1.02-1.26 1.01-1.36 1.02-1.47 1.01-1.56 1.02-1.67 1.02-1.77 1.02-1.87 1.01-1.98 1.02-2.07 1.02-2.18 1.01-2.28 1.02-2.38 1.02-2.49 1.02-2.58 1.02-2.69 1.01-2.79 1.02-2.9 1.02-2.99 1.02-3.1 1.02-3.2 1.02-3.3 1.02-3.41 1.02-3.5 1.02-3.61 1.01-3.71 1.02-3.81 1.02-3.92 1.02-4.01 1.02-4.12 1.03-4.22 1.02-4.33 1.02-4.42 1.02m-57.32-100.35-6.79-1.26-6.65-1.27-6.53-1.26-6.4-1.27-6.27-1.26-6.14-1.27-6.01-1.26-5.89-1.27-5.76-1.27-5.63-1.26-5.5-1.27-5.37-1.26-5.25-1.27-5.11-1.27-4.99-1.26-4.86-1.27-4.74-1.27-4.6-1.27-4.48-1.26-4.35-1.27-4.22-1.27-4.09-1.27-3.97-1.26-3.83-1.27-3.71-1.27-3.58-1.27-3.45-1.27-3.33-1.26-3.19-1.27-3.07-1.27-2.94-1.27-2.81-1.27-2.69-1.27-2.55-1.27-2.43-1.27-2.3-1.27-2.17-1.27-2.05-1.27-1.91-1.27-1.79-1.27-1.66-1.27-1.53-1.27-1.4-1.27-1.27-1.27-1.15-1.27-1.02-1.27-.89-1.27-.76-1.27-.64-1.27-.5-1.27-.38-1.27-.25-1.28-.12-1.27v-1.27l.14-1.27.26-1.27.39-1.28.52-1.27.65-1.27.77-1.27.9-1.28 1.03-1.27 1.16-1.27 1.29-1.27 1.42-1.28 1.54-1.27 1.67-1.27 1.8-1.28 1.93-1.27 2.05-1.28 2.19-1.27 2.31-1.27 2.44-1.28 2.57-1.27 2.69-1.28 2.83-1.27 2.95-1.28 3.08-1.27 3.21-1.28 3.33-1.27 3.47-1.28 3.59-1.27 3.72-1.28 3.85-1.27 3.98-1.28 4.1-1.28 4.24-1.27 4.36-1.28 4.49-1.27 4.62-1.28 4.74-1.28 4.88-1.27 5-1.28 5.13-1.28 5.25-1.27 5.39-1.28 5.51-1.28 5.65-1.28 5.77-1.27" style="stroke-width:1.07;stroke:#000000;stroke-opacity:0.10;stroke-linecap:butt"/><path d="m179.67 232.8-2.82.4-2.76.41-2.69.4-2.64.41-2.57.41-2.52.4-2.45.41-2.39.4-2.33.41-2.27.41-2.21.4-2.14.41-2.09.4-2.03.41-1.96.4-1.91.41-1.84.4-1.78.41-1.72.4-1.66.41-1.6.4-1.54.41-1.48.4-1.41.41-1.36.4-1.3.41-1.23.4-1.17.41-1.11.4-1.06.4-.99.41-.92.4-.87.41-.81.4-.75.4-.68.41-.63.4-.56.41-.5.4-.45.4-.38.41-.32.4-.26.4-.2.41-.13.4-.08.4-.01.41.04.4.11.4.16.41.23.4.29.4.35.41.41.4.47.4.54.4.59.41.65.4.72.4.78.4.83.41.9.4.96.4 1.02.4 1.08.41 1.14.4 1.21.4 1.26.4 1.32.4 1.39.4 1.45.41 1.5.4 1.57.4 1.63.4 1.69.4 1.75.4 1.81.41 1.88.4 1.93.4 1.99.4 2.06.4 2.12.4 2.17.4 2.24.4 2.3.4 2.36.4 2.42.41 2.48.4 2.55.4 2.6.4 2.67.4 2.72.4 2.79.4 2.85.4 2.9.4 2.97.4 3.03.4 3.09.4 3.16.4" style="stroke-width:1.07;stroke:#000000;stroke-opacity:0.10;stroke-linecap:butt"/><path d="m179.67 232.8-.83.4-.81.4-.78.41-.77.4-.75.41-.72.4-.71.4-.69.41-.66.4-.65.41-.62.4-.61.4-.58.41-.56.4-.55.41-.52.4-.5.4-.49.41-.46.4-.44.4-.42.41-.4.4-.38.41-.37.4-.34.4-.32.41-.3.4-.28.4-.25.41-.24.4-.22.4-.2.41-.18.4-.16.4-.13.41-.12.4-.1.4-.07.41-.06.4-.04.4-.01.41v.4l.03.4.04.41.07.4.08.4.11.41.13.4.14.4.17.41.19.4.21.4.23.4.24.41.27.4.29.4.31.41.33.4.35.4.37.4.39.41.41.4.43.4.45.41.48.4.49.4.51.4.53.41.56.4.57.4.59.4.62.41.63.4.66.4.67.4.7.41.71.4.74.4.75.4.78.41.8.4.81.4.84.4.86.41.87.4.9.4.92.4.94.41.96.4.98.4 1 .4 1.02.4 1.04.41 1.06.4 1.08.4 1.1.4 1.12.4 1.14.41 1.17.4m-16.55-39.9 1.16.4 1.14.4 1.12.4 1.1.4 1.09.41 1.06.4 1.04.4 1.02.4 1 .41.97.4.96.4.94.4.92.4.9.41.88.4.85.4.84.4.82.41.8.4.77.4.76.4.73.41.72.4.69.4.68.4.65.41.64.4.61.4.59.4.58.41.55.4.53.4.52.4.49.41.47.4.45.4.43.41.41.4.39.4.37.4.35.41.33.4.31.4.29.41.27.4.25.4.23.4.2.41.19.4.17.4.15.41.12.4.11.4.09.41.06.4.05.4.02.41.01.4-.02.4-.04.4-.05.41-.08.4-.1.4-.11.41-.14.4-.16.4-.18.41-.19.4-.22.41-.24.4-.26.4-.28.41-.3.4-.32.4-.34.41-.36.4-.38.4-.4.41-.43.4-.44.4-.46.41-.48.4-.51.41-.52.4-.54.4-.57.41-.58.4-.6.4-.63.41-.64.4-.67.41-.69.4-.7.4-.73.41-.74.4-.77.41-.79.4-.81.4-.82.41" style="stroke-width:1.07;stroke:#000000;stroke-opacity:0.10;stroke-linecap:butt"/><path d="m179.67 232.8 3.15.4 3.09.4 3.03.4 2.97.4 2.91.4 2.85.4 2.78.4 2.73.4 2.66.4 2.61.4 2.54.4 2.48.4 2.42.4 2.36.4 2.3.4 2.24.4 2.18.4 2.11.41 2.06.4 1.99.4 1.94.4 1.87.4 1.81.4 1.75.4 1.69.4 1.63.41 1.57.4 1.51.4 1.44.4 1.39.4 1.32.4 1.27.41 1.2.4 1.14.4 1.08.4 1.02.4.96.41.9.4.84.4.77.4.72.41.65.4.6.4.53.4.47.41.41.4.35.4.29.41.23.4.17.4.1.4.05.41-.02.4-.07.4-.14.41-.2.4-.26.4-.32.41-.38.4-.44.41-.5.4-.57.4-.62.41-.69.4-.75.4-.8.41-.87.4-.93.41-.99.4-1.05.41-1.11.4-1.18.4-1.23.41-1.3.4-1.35.41-1.42.4-1.48.41-1.53.4-1.6.41-1.66.4-1.72.41-1.79.4-1.84.41-1.9.4-1.97.41-2.02.4-2.09.41-2.15.4-2.21.41-2.27.41-2.33.4-2.39.41-2.45.4-2.51.41-2.58.4-2.63.41-2.7.41-2.76.4-2.81.41" style="stroke-width:1.07;stroke:#000000;stroke-opacity:0.10;stroke-linecap:butt"/><path d="m229.78 349.67 7.78 13.48H222zm-80.43-195.19 1.92 3.32h-3.83z" style="stroke-width:0.71;stroke:none;fill:#00BA38"/><path d="M172.91 239.55h13.51v-13.51h-13.51z" style="stroke-width:0.71;stroke:none;fill:#619CFF"/><circle cx="287.1" cy="459" r="5.78" style="stroke-width:0.71;stroke:none;fill:#F8766D"/><circle cx="196.22" cy="272.7" r="1.42" style="stroke-width:0.71;stroke:none;fill:#F8766D"/><path d="m224.99 363.35 3.97-3.9m-74.8-204.46-3.69 1.3m24.04 81.18 4.31-3.9M282.35 460.7l3.63-1.3m-84.65-191.33-4.26 3.86" style="stroke-width:0.53;stroke:#BFBFBF"/><path d="M198.12 374.47h40.36-.08l.34-.02.35-.06.32-.13.3-.17.27-.22.23-.26.19-.3.13-.32.09-.33.02-.35h0v-6.8h0l-.02-.34-.09-.34-.13-.32-.19-.29-.23-.26-.27-.22-.3-.18-.32-.12-.35-.07-.26-.02h-40.36l.26.02-.35-.01-.34.04-.34.09-.31.15-.29.2-.25.24-.21.28-.16.31-.11.33-.05.34-.01.17v6.8l.01-.17v.34l.05.35.11.33.16.3.21.28.25.24.29.2.31.15.34.1.34.04z" style="stroke-width:0.53;fill:#FFFFFF;fill-opacity:0.50"/><text x="218.3" y="370.87" lengthAdjust="spacingAndGlyphs" style="font-size:5.69px;font-family:&quot;Liberation Sans&quot;" text-anchor="middle" textLength="37.48">ST CLAIR LLC</text><path d="M156.32 164.49h55.35-.08l.34-.02.34-.07.33-.12.3-.17.27-.22.23-.26.19-.3.13-.32.09-.34.02-.34h0v-14.99h0l-.02-.35-.09-.34-.13-.32-.19-.29-.23-.26-.27-.22-.3-.17-.33-.13-.34-.07-.26-.01h-55.35l.27.01-.35-.01-.35.04-.33.1-.32.15-.28.19-.25.24-.21.28-.16.31-.11.33-.06.34-.01.18v14.99l.01-.18v.35l.06.35.11.32.16.31.21.28.25.24.28.2.32.15.33.09.35.05z" style="stroke-width:0.53;fill:#FFFFFF;fill-opacity:0.50"/><text x="184" y="152.69" lengthAdjust="spacingAndGlyphs" style="font-size:5.69px;font-family:&quot;Liberation Sans&quot;" text-anchor="middle" textLength="52.47">THREE BROTHERS</text><text x="184" y="160.89" lengthAdjust="spacingAndGlyphs" style="font-size:5.69px;font-family:&quot;Liberation Sans&quot;" text-anchor="middle" textLength="50.03">RESTAURANT LLC</text><path d="M118.56 256.79h63.85l-.08-.01.34-.01.34-.07.33-.12.3-.18.27-.22.23-.26.19-.29.13-.32.08-.34.03-.34h0v-15h0l-.03-.34-.08-.34-.13-.32-.19-.29-.23-.26-.27-.22-.3-.18-.33-.12-.34-.07-.26-.02h-63.85l.26.02-.34-.01-.35.04-.33.09-.32.15-.28.2-.25.24-.21.28-.16.31-.11.33-.06.34-.01.17v15l.01-.18v.35l.06.34.11.33.16.31.21.28.25.24.28.2.32.14.33.1.35.04z" style="stroke-width:0.53;fill:#FFFFFF;fill-opacity:0.50"/><text x="150.49" y="244.99" lengthAdjust="spacingAndGlyphs" style="font-size:5.69px;font-family:&quot;Liberation Sans&quot;" text-anchor="middle" textLength="54.86">2414 S ST CLAIR ST,</text><text x="150.49" y="253.19" lengthAdjust="spacingAndGlyphs" style="font-size:5.69px;font-family:&quot;Liberation Sans&quot;" text-anchor="middle" textLength="60.97">MILWAUKEE, WI 53207</text><path d="M216.34 470.51h63.85-.09l.35-.01.34-.07.32-.13.31-.17.26-.22.24-.26.18-.29.14-.32.08-.34.03-.35h0v-14.99h0l-.03-.35-.08-.33-.14-.32-.18-.3-.24-.26-.26-.22-.31-.17-.32-.12-.34-.07-.26-.02h-63.85l.26.02-.35-.02-.34.04-.34.1-.31.15-.29.2-.25.24-.21.28-.16.3-.11.33-.05.35-.01.17v14.99l.01-.17v.35l.05.34.11.33.16.31.21.27.25.25.29.19.31.15.34.1.34.04z" style="stroke-width:0.53;fill:#FFFFFF;fill-opacity:0.50"/><text x="248.26" y="458.72" lengthAdjust="spacingAndGlyphs" style="font-size:5.69px;font-family:&quot;Liberation Sans&quot;" text-anchor="middle" textLength="57.19">2361 S HOWELL AVE,</text><text x="248.26" y="466.91" lengthAdjust="spacingAndGlyphs" style="font-size:5.69px;font-family:&quot;Liberation Sans&quot;" text-anchor="middle" textLength="60.97">MILWAUKEE, WI 53207</text><path d="M193.91 268.07h63.85l-.09-.01.35-.01.34-.07.32-.12.3-.18.27-.22.23-.26.19-.29.14-.32.08-.34.03-.34h0v-15h0l-.03-.34-.08-.34-.14-.32-.19-.29-.23-.26-.27-.22-.3-.18-.32-.12-.34-.07-.26-.02h-63.85l.26.02-.35-.01-.34.04-.34.09-.31.15-.29.2-.25.24-.21.28-.16.31-.11.33-.05.34-.01.17v15l.01-.18v.35l.05.34.11.33.16.31.21.28.25.24.29.2.31.15.34.09.34.04z" style="stroke-width:0.53;fill:#FFFFFF;fill-opacity:0.50"/><text x="225.83" y="256.27" lengthAdjust="spacingAndGlyphs" style="font-size:5.69px;font-family:&quot;Liberation Sans&quot;" text-anchor="middle" textLength="54.86">2414 S ST CLAIR ST,</text><text x="225.83" y="264.47" lengthAdjust="spacingAndGlyphs" style="font-size:5.69px;font-family:&quot;Liberation Sans&quot;" text-anchor="middle" textLength="60.97">MILWAUKEE, WI 53207</text></g><g clip-path="url(#cpMC4wMHw0MzIuMDB8MC4wMHw1MDQuMDA=)"><circle cx="120.83" cy="116.5" r="1.95" style="stroke-width:0.71;stroke:none;fill:#F8766D"/><path d="m197.23 113.46 2.63 4.56h-5.26z" style="stroke-width:0.71;stroke:none;fill:#00BA38"/><path d="M263.23 118.45h3.91v-3.91h-3.91z" style="stroke-width:0.71;stroke:none;fill:#619CFF"/><text x="134.95" y="119.66" lengthAdjust="spacingAndGlyphs" style="font-size:8.80px;font-weight:0;font-family:&quot;Nimbus Sans Narrow&quot;" textLength="48.16">mprop address</text><text x="211.35" y="119.66" lengthAdjust="spacingAndGlyphs" style="font-size:8.80px;font-weight:0;font-family:&quot;Nimbus Sans Narrow&quot;" textLength="39.72">owner name</text><text x="279.31" y="119.66" lengthAdjust="spacingAndGlyphs" style="font-size:8.80px;font-weight:0;font-family:&quot;Nimbus Sans Narrow&quot;" textLength="40.5">wdfi address</text><text x="29.89" y="84.79" lengthAdjust="spacingAndGlyphs" style="font-size:12.00px;font-weight:0;font-family:&quot;Nimbus Sans Narrow&quot;" textLength="241.17">includes 4 parcels, 7 units, and 2 distinct owner names.</text><text x="29.89" y="42.81" lengthAdjust="spacingAndGlyphs" style="font-size:18.00px;font-weight:0;font-family:&quot;Nimbus Sans Narrow&quot;" textLength="361.59">ST CLAIR LLC -- THREE BROTHERS RESTAURANT</text><text x="29.89" y="62.25" lengthAdjust="spacingAndGlyphs" style="font-size:18.00px;font-weight:0;font-family:&quot;Nimbus Sans Narrow&quot;" textLength="77.06">LLC Group</text></g></g></svg>