<svg xmlns="http://www.w3.org/2000/svg" width="384" height="384" class="svglite" viewBox="0 0 288 288"><defs><style>.svglite circle,.svglite line,.svglite polygon,.svglite polyline,.svglite rect{fill:none;stroke:#000;stroke-linecap:round;stroke-linejoin:round;stroke-miterlimit:10}.svglite text{white-space:pre}</style></defs><rect width="100%" height="100%" style="stroke:none;fill:#fff"/><defs><clipPath id="cpMC4wMHwyODguMDB8MC4wMHwyODguMDA="><path d="M0 0h288v288H0z"/></clipPath></defs><g clip-path="url(#cpMC4wMHwyODguMDB8MC4wMHwyODguMDA=)"><path d="M0 0h288v288H0z" style="stroke-width:1.07;stroke:none;fill:#fff"/></g><defs><clipPath id="cpMzIuNjN8MjU4LjExfDEyMC44NnwyNTUuMzc="><path d="M32.63 120.86h225.48v134.51H32.63z"/></clipPath></defs><g clip-path="url(#cpMzIuNjN8MjU4LjExfDEyMC44NnwyNTUuMzc=)"><path d="m247.86 126.98-1.03.6-1.04.6-1.03.6-1.04.6-1.03.6-1.04.61-1.03.6-1.04.6-1.03.6-1.04.6-1.04.6-1.03.61-1.04.6-1.03.6-1.04.6-1.03.6-1.04.6-1.03.6-1.04.61-1.03.6-1.04.6-1.03.6-1.04.6-1.03.6-1.04.61-1.03.6-1.04.6-1.03.6-1.04.6-1.04.6-1.03.6-1.04.61-1.03.6-1.04.6-1.03.6-1.04.6-1.03.6-1.04.61-1.03.6-1.04.6-1.03.6-1.04.6-1.03.6-1.04.6-1.03.61-1.04.6-1.04.6-1.03.6-1.04.6-1.03.6-1.04.61-1.03.6-1.04.6-1.03.6-1.04.6-1.03.6-1.04.6-1.03.61-1.04.6-1.03.6-1.04.6-1.03.6-1.04.6-1.03.61-1.04.6-1.04.6-1.03.6-1.04.6-1.03.6-1.04.6-1.03.61-1.04.6-1.03.6-1.04.6-1.03.6-1.04.6-1.03.61-1.04.6-1.03.6-1.04.6-1.03.6-1.04.6-1.04.6-1.03.61-1.04.6-1.03.6-1.04.6-1.03.6-1.04.6-1.03.61-1.04.6-1.03.6-1.04.6-1.03.6-1.04.6-1.03.6-1.04.61-1.03.6-1.04.6M42.88 246.07l1.1.34 1.11.32 1.1.3 1.11.29 1.1.26 1.1.24 1.1.23 1.09.2 1.1.19 1.09.17 1.1.15 1.09.13 1.09.11 1.08.09 1.09.07 1.09.05 1.08.03 1.08.02 1.08-.01 1.08-.02 1.08-.05 1.08-.06 1.07-.08 1.08-.1 1.07-.12 1.07-.14 1.07-.16 1.06-.18 1.07-.2 1.07-.22 1.06-.23 1.06-.26 1.06-.27 1.06-.3 1.06-.31 1.05-.33 1.06-.35 1.05-.37 1.05-.39 1.05-.41 1.05-.43 1.05-.45 1.04-.46 1.05-.49 1.04-.51 1.04-.52 1.04-.54 1.04-.57 1.04-.58 1.03-.6 1.03-.62 1.04-.64 1.03-.66 1.03-.68 1.02-.7 1.03-.71 1.03-.74 1.02-.75 1.02-.78 1.02-.79 1.02-.81 1.02-.84 1.02-.85 1.01-.87 1.01-.89 1.02-.91 1.01-.93 1-.94 1.01-.97 1.01-.99 1-1 1.01-1.03 1-1.04 1-1.06 1-1.08.99-1.11 1-1.12.99-1.14.99-1.15 1-1.18.99-1.2.98-1.22.99-1.23.99-1.26.98-1.27.98-1.3.98-1.31.98-1.33.98-1.35.98-1.37.97-1.39.98-1.41.97-1.43.97-1.45.97-1.46.97-1.49.96-1.5.97-1.53.96-1.54" style="stroke-width:1.07;stroke:#000;stroke-opacity:.1;stroke-linecap:butt"/><path d="m42.88 246.07 1.03-.6 1.04-.6 1.03-.61 1.04-.6 1.03-.6 1.04-.6 1.03-.6 1.04-.6 1.03-.6 1.04-.61 1.04-.6 1.03-.6 1.04-.6 1.03-.6 1.04-.6 1.03-.6 1.04-.61 1.03-.6 1.04-.6 1.03-.6 1.04-.6 1.03-.6 1.04-.6 1.03-.61 1.04-.6 1.03-.6 1.04-.6 1.03-.6 1.04-.6 1.04-.6 1.03-.61 1.04-.6 1.03-.6 1.04-.6 1.03-.6 1.04-.6 1.03-.6 1.04-.61 1.03-.6 1.04-.6 1.03-.6 1.04-.6 1.03-.6 1.04-.6 1.03-.6 1.04-.61 1.04-.6 1.03-.6 1.04-.6 1.03-.6 1.04-.6 1.03-.6 1.04-.61 1.03-.6 1.04-.6 1.03-.6 1.04-.6 1.03-.6 1.04-.6 1.03-.61 1.04-.6 1.03-.6 1.04-.6 1.04-.6 1.03-.6 1.04-.6 1.03-.61 1.04-.6 1.03-.6 1.04-.6 1.03-.6 1.04-.6 1.03-.6 1.04-.61 1.03-.6 1.04-.6 1.03-.6 1.04-.6 1.03-.6 1.04-.6 1.04-.61 1.03-.6 1.04-.6 1.03-.6 1.04-.6 1.03-.6 1.04-.6 1.03-.61 1.04-.6 1.03-.6 1.04-.6 1.03-.6 1.04-.6 1.03-.6 1.04-.6 1.03-.61 1.04-.6 1.04-.6 1.03-.6" style="stroke-width:1.07;stroke:#000;stroke-opacity:.1;stroke-linecap:butt"/><path d="m42.88 246.07.96-1.55.97-1.52.96-1.5.97-1.49.97-1.47.97-1.44.97-1.43.97-1.41.98-1.39.98-1.37.97-1.35.98-1.33.98-1.32.99-1.29.98-1.28.99-1.25.98-1.24.99-1.21.99-1.2.99-1.18 1-1.16.99-1.14 1-1.12.99-1.1 1-1.08 1-1.06 1-1.05 1.01-1.02 1-1.01 1.01-.98 1-.97 1.01-.95 1.01-.92 1.01-.91 1.02-.89 1.01-.87 1.02-.86 1.02-.83 1.01-.81 1.03-.79 1.02-.78 1.02-.75 1.03-.74 1.02-.72 1.03-.69 1.03-.68 1.03-.66 1.03-.64 1.04-.62 1.03-.6 1.04-.59 1.04-.56 1.04-.54 1.04-.53 1.04-.5 1.04-.49 1.05-.46 1.05-.45 1.05-.43 1.05-.41 1.05-.39 1.05-.37 1.05-.35 1.06-.33 1.06-.32 1.06-.29 1.06-.28 1.06-.25 1.06-.24 1.07-.21 1.06-.2 1.07-.18 1.07-.16 1.07-.14 1.07-.12 1.08-.1 1.07-.08 1.08-.07 1.07-.04 1.08-.03h1.08l1.09.01 1.08.04 1.09.05 1.08.07 1.09.09 1.09.11 1.09.13 1.09.15 1.1.17 1.09.18 1.1.21 1.1.22 1.1.25 1.1.26 1.1.29 1.11.3 1.1.32 1.11.34" style="stroke-width:1.07;stroke:#000;stroke-opacity:.1;stroke-linecap:butt"/><path d="m247.86 124.77 1.92 3.31h-3.83zM42.88 237.08l7.78 13.48H35.1z" style="stroke-width:.71;stroke:none;fill:#00bfc4"/><circle cx="145.37" cy="186.53" r="6.76" style="stroke-width:.71;stroke:none;fill:#f8766d"/><path d="m240.9 131.39 5.97-3.78M138.25 190.9l6.11-3.75" style="stroke-width:.53;stroke:#bfbfbf"/><path d="M201.93 142.74h50.42l-.08-.01.34-.01.34-.07.33-.12.3-.18.27-.22.23-.26.18-.29.14-.32.08-.34.03-.34v-7.03l-.03-.35-.08-.34-.14-.32-.18-.29-.23-.26-.27-.22-.3-.17-.33-.13-.34-.07-.26-.01h-50.42l.26.01-.35-.01-.34.04-.34.1-.31.15-.29.2-.25.24-.21.27-.16.31-.11.33-.05.34-.01.18v7.03l.01-.18v.35l.05.34.11.33.16.31.21.28.25.24.29.2.31.15.34.09.34.04z" style="stroke-width:.53;fill:#fff;fill-opacity:.5"/><text x="227.14" y="139.14" lengthAdjust="spacingAndGlyphs" style="font-size:5.69px;font-family:&quot;Liberation Sans&quot;" text-anchor="middle" textLength="47.54">STEVEN PATRICK</text><path d="M49.91 251.74h53.9-.08l.34-.02.35-.06.32-.13.3-.17.27-.22.23-.26.19-.3.13-.32.09-.33.02-.35v-7.03l-.02-.34-.09-.34-.13-.32-.19-.29-.23-.26-.27-.22-.3-.18-.32-.12-.35-.07-.26-.02h-53.9l.26.02-.35-.01-.34.04-.34.09-.31.15-.29.2-.25.24-.21.28-.16.31-.11.33-.05.34-.01.17v7.03l.01-.17v.34l.05.35.11.33.16.31.21.27.25.24.29.2.31.15.34.1.34.04z" style="stroke-width:.53;fill:#fff;fill-opacity:.5"/><text x="76.86" y="248.14" lengthAdjust="spacingAndGlyphs" style="font-size:5.69px;font-family:&quot;Liberation Sans&quot;" text-anchor="middle" textLength="51.03">STEVEN J PATRICK</text><path d="M84.24 218.63h61.12-.09l.35-.01.34-.07.33-.12.3-.18.27-.22.23-.26.18-.29.14-.32.08-.34.03-.35v-23.41l-.03-.35-.08-.34-.14-.32-.18-.29-.23-.26-.27-.22-.3-.17-.33-.13-.34-.07-.26-.01H84.24l.26.01-.35-.01-.34.04-.34.1-.31.15-.29.2-.25.24-.21.27-.16.31-.11.33-.05.34-.01.18v23.41l.01-.17v.35l.05.34.11.33.16.31.21.28.25.24.29.2.31.14.34.1.34.04z" style="stroke-width:.53;fill:#fff;fill-opacity:.5"/><text x="114.8" y="198.65" lengthAdjust="spacingAndGlyphs" style="font-size:5.69px;font-family:&quot;Liberation Sans&quot;" text-anchor="middle" textLength="58.24">11529 COUNTY LINE</text><text x="114.8" y="206.84" lengthAdjust="spacingAndGlyphs" style="font-size:5.69px;font-family:&quot;Liberation Sans&quot;" text-anchor="middle" textLength="56.37">RD, MILWAUKEE, WI</text><text x="114.8" y="215.03" lengthAdjust="spacingAndGlyphs" style="font-size:5.69px;font-family:&quot;Liberation Sans&quot;" text-anchor="middle" textLength="18.11">53224</text></g><g clip-path="url(#cpMC4wMHwyODguMDB8MC4wMHwyODguMDA=)"><circle cx="84.61" cy="95.78" r="1.95" style="stroke-width:.71;stroke:none;fill:#f8766d"/><path d="m160.96 92.74 2.63 4.56h-5.26z" style="stroke-width:.71;stroke:none;fill:#00bfc4"/><text x="98.72" y="98.81" lengthAdjust="spacingAndGlyphs" style="font-size:8.8px;font-family:&quot;Liberation Sans Narrow&quot;" textLength="48.12">mprop address</text><text x="175.08" y="98.81" lengthAdjust="spacingAndGlyphs" style="font-size:8.8px;font-family:&quot;Liberation Sans Narrow&quot;" textLength="39.69">owner name</text><text x="32.63" y="64.23" lengthAdjust="spacingAndGlyphs" style="font-size:12px;font-family:&quot;Liberation Sans Narrow&quot;" textLength="241.29">includes 4 parcels, 4 units, and 2 distinct owner names.</text><text x="32.63" y="42.27" lengthAdjust="spacingAndGlyphs" style="font-size:18px;font-weight:700;font-family:&quot;Liberation Sans Narrow&quot;" textLength="187.25">STEVEN J PATRICK Group</text></g></svg>