<svg xmlns="http://www.w3.org/2000/svg" width="384" height="480" class="svglite" viewBox="0 0 288 360"><defs><style><![CDATA[.svglite line,.svglite polyline,.svglite polygon,.svglite path,.svglite circle{fill:none;stroke:#000000;stroke-linecap:round;stroke-linejoin:round;stroke-miterlimit:10.00}]]></style></defs><rect width="100%" height="100%" style="stroke-linecap:round;stroke-linejoin:round;stroke-miterlimit:10.00;stroke:none;fill:#FFFFFF"/><defs><clipPath id="cpMC4wMHwyODguMDB8MC4wMHwzNjAuMDA="><path d="M0 0h288v360H0z"/></clipPath></defs><g clip-path="url(#cpMC4wMHwyODguMDB8MC4wMHwzNjAuMDA=)"><path d="M0 0h288v360H0z" style="stroke-width:1.07;stroke:none;fill:#FFFFFF"/></g><defs><clipPath id="cpMzIuNjN8MjU4LjExfDE0MS4yMnwzMjcuMzc="><path d="M32.63 141.22h225.48v186.15H32.63z"/></clipPath></defs><g clip-path="url(#cpMzIuNjN8MjU4LjExfDE0MS4yMnwzMjcuMzc=)"><path d="m247.86 149.69-1.03.85-1.04.85-1.03.86-1.04.85-1.03.86-1.04.85-1.03.86-1.04.85-1.03.86-1.04.85-1.04.86-1.03.85-1.04.86-1.03.85-1.04.86-1.03.85-1.04.86-1.03.85-1.04.85-1.03.86-1.04.85-1.03.86-1.04.85-1.03.86-1.04.85-1.03.86-1.04.85-1.04.86-1.03.85-1.04.86-1.03.85-1.04.86-1.03.85-1.04.86-1.03.85-1.04.85-1.03.86-1.04.85-1.03.86-1.04.85-1.03.86-1.04.85-1.03.86-1.04.85-1.03.86-1.04.85-1.04.86-1.03.85-1.04.86-1.03.85-1.04.86-1.03.85-1.04.85-1.03.86-1.04.85-1.03.86-1.04.85-1.03.86-1.04.85-1.03.86-1.04.85-1.03.86-1.04.85-1.04.86-1.03.85-1.04.86-1.03.85-1.04.85-1.03.86-1.04.85-1.03.86-1.04.85-1.03.86-1.04.85-1.03.86-1.04.85-1.03.86-1.04.85-1.03.86-1.04.85-1.03.86-1.04.85-1.04.86-1.03.85-1.04.85-1.03.86-1.04.85-1.03.86-1.04.85-1.03.86-1.04.85-1.03.86-1.04.85-1.03.86-1.04.85-1.03.86-1.04.85-1.03.86-1.04.85M42.88 318.91l1.03-.85 1.04-.86 1.03-.85 1.04-.86 1.03-.85 1.04-.86 1.03-.85 1.04-.86 1.03-.85 1.04-.86 1.04-.85 1.03-.85 1.04-.86 1.03-.85 1.04-.86 1.03-.85 1.04-.86 1.03-.85 1.04-.86 1.03-.85 1.04-.86 1.03-.85 1.04-.86 1.03-.85 1.04-.86 1.03-.85 1.04-.85 1.03-.86 1.04-.85 1.04-.86 1.03-.85 1.04-.86 1.03-.85 1.04-.86 1.03-.85 1.04-.86 1.03-.85 1.04-.86 1.03-.85 1.04-.85 1.03-.86 1.04-.85 1.03-.86 1.04-.85 1.03-.86 1.04-.85 1.04-.86 1.03-.85 1.04-.86 1.03-.85 1.04-.86 1.03-.85 1.04-.86 1.03-.85 1.04-.85 1.03-.86 1.04-.85 1.03-.86 1.04-.85 1.03-.86 1.04-.85 1.03-.86 1.04-.85 1.04-.86 1.03-.85 1.04-.86 1.03-.85 1.04-.86 1.03-.85 1.04-.85 1.03-.86 1.04-.85 1.03-.86 1.04-.85 1.03-.86 1.04-.85 1.03-.86 1.04-.85 1.03-.86 1.04-.85 1.03-.86 1.04-.85 1.04-.86 1.03-.85 1.04-.85 1.03-.86 1.04-.85 1.03-.86 1.04-.85 1.03-.86 1.04-.85 1.03-.86 1.04-.85 1.03-.86 1.04-.85 1.03-.86 1.04-.85 1.03-.85 1.04-.86" style="stroke-width:1.07;stroke:#000000;stroke-opacity:0.10;stroke-linecap:butt"/><path d="m247.86 147.48 1.92 3.31h-3.83zM42.88 316.7l1.91 3.32h-3.83z" style="stroke-width:0.71;stroke:none;fill:#00BFC4"/><circle cx="145.37" cy="234.3" r="6.76" style="stroke-width:0.71;stroke:none;fill:#F8766D"/><path d="m243.26 155.15 3.88-4.6m-96.52 79.2-4.37 3.79" style="stroke-width:0.53;stroke:#BFBFBF"/><path d="M185.45 171.23h55.65-.09l.35-.02.34-.07.32-.12.31-.17.27-.22.23-.26.18-.3.14-.32.08-.33.03-.35h0v-15.16h0l-.03-.34-.08-.34-.14-.32-.18-.3-.23-.26-.27-.22-.31-.17-.32-.12-.34-.07-.26-.02h-55.65l.26.02-.35-.02-.34.05-.34.09-.31.15-.29.2-.25.24-.21.28-.16.31-.11.33-.05.34-.01.17v15.16l.01-.17v.34l.05.35.11.33.16.3.21.28.25.24.29.2.31.15.34.1.34.04z" style="stroke-width:0.53;fill:#FFFFFF;fill-opacity:0.50"/><text x="213.27" y="159.43" lengthAdjust="spacingAndGlyphs" style="font-size:5.69px;font-family:Arial" text-anchor="middle" textLength="52.77">TARESA MICHELLE</text><text x="213.27" y="167.63" lengthAdjust="spacingAndGlyphs" style="font-size:5.69px;font-family:Arial" text-anchor="middle" textLength="28.12">COLEMAN</text><path d="M49.62 322.79h61.64-.08l.34-.01.34-.07.33-.12.3-.18.27-.22.23-.26.19-.29.13-.32.09-.34.02-.35h0v-6.96h0l-.02-.34-.09-.34-.13-.32-.19-.3-.23-.26-.27-.22-.3-.17-.33-.12-.34-.07-.26-.02H49.62l.26.02-.35-.02-.34.05-.34.09-.31.15-.29.2-.25.24-.21.28-.16.31-.11.32-.06.35v7.13-.17.35l.06.34.11.33.16.31.21.28.25.24.29.19.31.15.34.1.34.04z" style="stroke-width:0.53;fill:#FFFFFF;fill-opacity:0.50"/><text x="80.44" y="319.19" lengthAdjust="spacingAndGlyphs" style="font-size:5.69px;font-family:Arial" text-anchor="middle" textLength="58.77">TARESA M COLEMAN</text><path d="M130.43 229.75h64.49-.09l.35-.01.34-.07.32-.13.3-.17.27-.22.23-.26.19-.29.14-.32.08-.34.03-.35h0v-15.15h0l-.03-.35-.08-.34-.14-.32-.19-.29-.23-.26-.27-.22-.3-.18-.32-.12-.34-.07-.26-.01h-64.49l.26.01-.35-.01-.34.04-.34.1-.31.15-.29.19-.25.24-.21.28-.16.31-.11.33-.06.34v15.33-.17.35l.06.34.11.33.16.31.21.27.25.25.29.19.31.15.34.1.34.04z" style="stroke-width:0.53;fill:#FFFFFF;fill-opacity:0.50"/><text x="162.67" y="217.96" lengthAdjust="spacingAndGlyphs" style="font-size:5.69px;font-family:Arial" text-anchor="middle" textLength="44.23">3809 N 68TH ST,</text><text x="162.67" y="226.15" lengthAdjust="spacingAndGlyphs" style="font-size:5.69px;font-family:Arial" text-anchor="middle" textLength="61.61">MILWAUKEE, WI 53216</text></g><g clip-path="url(#cpMC4wMHwyODguMDB8MC4wMHwzNjAuMDA=)"><circle cx="87.34" cy="116.15" r="1.95" style="stroke-width:0.71;stroke:none;fill:#F8766D"/><path d="m163.7 113.11 2.63 4.56h-5.26z" style="stroke-width:0.71;stroke:none;fill:#00BFC4"/><text x="101.46" y="119.3" lengthAdjust="spacingAndGlyphs" style="font-size:8.80px;font-family:Arial Narrow" textLength="48.12">mprop address</text><text x="177.82" y="119.3" lengthAdjust="spacingAndGlyphs" style="font-size:8.80px;font-family:Arial Narrow" textLength="39.69">owner name</text><text x="32.63" y="84.56" lengthAdjust="spacingAndGlyphs" style="font-size:12.00px;font-family:Arial Narrow" textLength="241.29">includes 2 parcels, 3 units, and 2 distinct owner names.</text><text x="32.63" y="42.78" lengthAdjust="spacingAndGlyphs" style="font-size:18.00px;font-weight:bold;font-family:Arial Narrow" textLength="231.78">TARESA M COLEMAN -- TARESA</text><text x="32.63" y="62.22" lengthAdjust="spacingAndGlyphs" style="font-size:18.00px;font-weight:bold;font-family:Arial Narrow" textLength="202.51">MICHELLE COLEMAN Group</text></g></svg>