<svg xmlns="http://www.w3.org/2000/svg" width="576" height="672" class="svglite" viewBox="0 0 432 504"><defs><style><![CDATA[.svglite line,.svglite polyline,.svglite polygon,.svglite path,.svglite circle{fill:none;stroke:#000000;stroke-linecap:round;stroke-linejoin:round;stroke-miterlimit:10.00}.svglite text{white-space:pre}]]></style></defs><rect width="100%" height="100%" style="stroke-linecap:round;stroke-linejoin:round;stroke-miterlimit:10.00;stroke:none;fill:#FFFFFF"/><defs><clipPath id="cpMC4wMHw0MzIuMDB8MC4wMHw1MDQuMDA="><path d="M0 0h432v504H0z"/></clipPath></defs><g clip-path="url(#cpMC4wMHw0MzIuMDB8MC4wMHw1MDQuMDA=)"><path d="M0 0h432v504H0z" style="stroke-width:1.07;stroke:none;fill:#FFFFFF"/></g><defs><clipPath id="cpMzIuNjN8NDAyLjExfDE0MS41OHw0NzEuMzc="><path d="M32.63 141.58h369.48v329.8H32.63z"/></clipPath></defs><g clip-path="url(#cpMzIuNjN8NDAyLjExfDE0MS41OHw0NzEuMzc=)"><path d="m385.32 159.39-1.7.65-1.69.64-1.69.65-1.69.64-1.7.64-1.69.65-1.69.64-1.7.65-1.69.64-1.69.64-1.69.65-1.7.64-1.69.64-1.69.65-1.69.64-1.7.65-1.69.64-1.69.64-1.7.65-1.69.64-1.69.64-1.69.65-1.7.64-1.69.65-1.69.64-1.7.64-1.69.65-1.69.64-1.69.64-1.7.65-1.69.64-1.69.65-1.7.64-1.69.64-1.69.65-1.69.64-1.7.64-1.69.65-1.69.64-1.7.65-1.69.64-1.69.64-1.69.65-1.7.64-1.69.64-1.69.65-1.7.64-1.69.65-1.69.64-1.69.64-1.7.65-1.69.64-1.69.65-1.7.64-1.69.64-1.69.65-1.69.64-1.7.64-1.69.65-1.69.64-1.69.65-1.7.64-1.69.64-1.69.65-1.7.64-1.69.64-1.69.65-1.69.64-1.7.65-1.69.64-1.69.64-1.7.65-1.69.64-1.69.64-1.69.65-1.7.64-1.69.65-1.69.64-1.7.64-1.69.65-1.69.64-1.69.64-1.7.65-1.69.64-1.69.65-1.7.64-1.69.64-1.69.65-1.69.64-1.7.65-1.69.64-1.69.64-1.7.65-1.69.64-1.69.64-1.69.65-1.7.64-1.69.65-1.69.64M49.42 156.57l1.7.67 1.7.67 1.7.67 1.7.68 1.7.67 1.7.67 1.7.67 1.7.68 1.7.67 1.7.67 1.7.67 1.7.68 1.7.67 1.7.67 1.7.67 1.7.68 1.7.67 1.7.67 1.7.67 1.7.67 1.7.68 1.7.67 1.7.67 1.7.67 1.7.68 1.7.67 1.7.67 1.7.67 1.7.68 1.7.67 1.7.67 1.7.67 1.7.67 1.7.68 1.7.67 1.7.67 1.7.67 1.7.68 1.7.67 1.7.67 1.7.67 1.7.68 1.7.67 1.7.67 1.7.67 1.7.68 1.71.67 1.7.67 1.7.67 1.7.67 1.7.68 1.7.67 1.7.67 1.7.67 1.7.68 1.7.67 1.7.67 1.7.67 1.7.68 1.7.67 1.7.67 1.7.67 1.7.67 1.7.68 1.7.67 1.7.67 1.7.67 1.7.68 1.7.67 1.7.67 1.7.67 1.7.68 1.7.67 1.7.67 1.7.67 1.7.68 1.7.67 1.7.67 1.7.67 1.7.67 1.7.68 1.7.67 1.7.67 1.7.67 1.7.68 1.7.67 1.7.67 1.7.67 1.7.68 1.7.67 1.7.67 1.7.67 1.7.68 1.7.67 1.7.67 1.7.67 1.7.67 1.7.68 1.7.67M49.42 156.57l.04 1.13.03 1.14.03 1.14.04 1.14.03 1.13.04 1.14.03 1.14.03 1.13.04 1.14.03 1.14.03 1.13.04 1.14.03 1.14.04 1.13.03 1.14.03 1.14.04 1.13.03 1.14.03 1.14.04 1.14.03 1.13.04 1.14.03 1.14.03 1.13.04 1.14.03 1.14.03 1.13.04 1.14.03 1.14.04 1.13.03 1.14.03 1.14.04 1.14.03 1.13.03 1.14.04 1.14.03 1.13.04 1.14.03 1.14.03 1.13.04 1.14.03 1.14.03 1.13.04 1.14.03 1.14.04 1.13.03 1.14.03 1.14.04 1.14.03 1.13.03 1.14.04 1.14.03 1.13.04 1.14.03 1.14.03 1.13.04 1.14.03 1.14.04 1.13.03 1.14.03 1.14.04 1.14.03 1.13.03 1.14.04 1.14.03 1.13.04 1.14.03 1.14.03 1.13.04 1.14.03 1.14.03 1.13.04 1.14.03 1.14.04 1.13.03 1.14.03 1.14.04 1.14.03 1.13.03 1.14.04 1.14.03 1.13.04 1.14.03 1.14.03 1.13.04 1.14.03 1.14.03 1.13.04 1.14.03 1.14.04 1.13.03 1.14.03 1.14.04 1.14.03 1.13.03 1.14.04 1.14.03 1.13.04 1.14m146.24 73.34.19-1.21.19-1.2.19-1.21.19-1.2.19-1.21.19-1.2.19-1.21.19-1.21.19-1.2.18-1.21.19-1.2.19-1.21.19-1.2.19-1.21.19-1.2.19-1.21.19-1.2.19-1.21.19-1.2.18-1.21.19-1.2.19-1.21.19-1.21.19-1.2.19-1.21.19-1.2.19-1.21.19-1.2.19-1.21.19-1.2.18-1.21.19-1.2.19-1.21.19-1.2.19-1.21.19-1.2.19-1.21.19-1.21.19-1.2.19-1.21.18-1.2.19-1.21.19-1.2.19-1.21.19-1.2.19-1.21.19-1.2.19-1.21.19-1.2.19-1.21.18-1.2.19-1.21.19-1.21.19-1.2.19-1.21.19-1.2.19-1.21.19-1.2.19-1.21.19-1.2.18-1.21.19-1.2.19-1.21.19-1.2.19-1.21.19-1.2.19-1.21.19-1.21.19-1.2.19-1.21.19-1.2.18-1.21.19-1.2.19-1.21.19-1.2.19-1.21.19-1.2.19-1.21.19-1.2.19-1.21.19-1.2.18-1.21.19-1.21.19-1.2.19-1.21.19-1.2.19-1.21.19-1.2.19-1.21.19-1.2.19-1.21.18-1.2.19-1.21.19-1.2.19-1.21.19-1.2.19-1.21.19-1.21.19-1.2m-18.72 119.33-1.11-1.01-1.12-1-1.13-.99-1.13-.99-1.14-.99-1.15-.97-1.16-.98-1.17-.97-1.17-.96-1.18-.95-1.18-.96-1.2-.94-1.2-.94-1.21-.94-1.22-.93-1.22-.92-1.23-.92-1.24-.91-1.25-.91-1.25-.91-1.26-.89-1.27-.9-1.28-.88-1.28-.88-1.29-.88-1.3-.87-1.31-.86-1.31-.86-1.32-.86-1.33-.85-1.34-.84-1.34-.84-1.35-.83-1.36-.83-1.37-.82-1.37-.82-1.38-.81-1.39-.8-1.39-.8-1.41-.8-1.41-.79-1.41-.78-1.43-.78-1.43-.77-1.44-.77-1.45-.76-1.45-.76-1.47-.75-1.47-.75-1.47-.74-1.49-.73-1.49-.73-1.5-.73-1.51-.72-1.51-.71-1.52-.71-1.53-.7-1.54-.7-1.54-.69-1.56-.69-1.55-.68-1.57-.68-1.57-.67-1.59-.66-1.59-.66-1.59-.66-1.61-.65-1.61-.64-1.62-.64-1.62-.63-1.63-.63-1.65-.62-1.64-.62-1.66-.61-1.66-.6-1.67-.6-1.68-.6-1.69-.59-1.69-.58-1.7-.58-1.71-.57-1.71-.57-1.73-.56-1.73-.56-1.74-.55-1.74-.55-1.75-.54-1.76-.54-1.77-.53-1.78-.52-1.78-.52-1.79-.51-1.79-.51-1.81-.51-1.81-.49-1.82-.5-1.83-.48-1.83-.48-1.84-.48m146.24 73.34-.03 1.19-.03 1.19-.02 1.19-.01 1.19v2.37l.01 1.19.02 1.19.02 1.18.04 1.19.04 1.18.05 1.18.06 1.18.06 1.18.08 1.18.08 1.18.08 1.18.1 1.18.1 1.18.11 1.17.12 1.18.13 1.17.13 1.17.15 1.18.15 1.17.15 1.17.17 1.17.17 1.17.18 1.17.19 1.16.2 1.17.2 1.17.21 1.16.22 1.17.23 1.16.23 1.16.24 1.16.25 1.16.26 1.16.27 1.16.27 1.16.28 1.16.29 1.15.3 1.16.3 1.16.31 1.15.32 1.15.33 1.16.33 1.15.34 1.15.35 1.15.36 1.15.37 1.14.37 1.15.38 1.15.39 1.14.4 1.15.4 1.14.41 1.15.42 1.14.43 1.14.43 1.14.45 1.14.45 1.14.45 1.14.47 1.14.47 1.13.48 1.14.49 1.13.5 1.14.5 1.13.52 1.13.52 1.13.52 1.13.54 1.13.54 1.13.55 1.13.56 1.13.57 1.13.57 1.12.58 1.13.59 1.12.6 1.12.6 1.13.61 1.12.62 1.12.63 1.12.63 1.12.65 1.12.65 1.11.66 1.12.66 1.12.68 1.11.68 1.11.69 1.12.69 1.11.71 1.11.71 1.11.72 1.11" style="stroke-width:1.07;stroke:#000000;stroke-opacity:0.10;stroke-linecap:butt"/><path d="m199.01 342.46-1.35-.83-1.36-.83-1.36-.82-1.36-.83-1.37-.82-1.37-.82-1.37-.82-1.37-.81-1.38-.82-1.37-.81-1.38-.81-1.39-.81-1.38-.81-1.39-.8-1.39-.81-1.39-.8-1.4-.8-1.4-.8-1.4-.8-1.4-.79-1.41-.79-1.4-.79-1.41-.79-1.42-.79-1.41-.79-1.42-.78-1.42-.78-1.42-.78-1.43-.78-1.43-.78-1.43-.77-1.43-.78-1.43-.77-1.44-.77-1.44-.77-1.44-.76-1.45-.77-1.45-.76-1.45-.76-1.45-.76-1.45-.76-1.46-.75-1.46-.75-1.46-.76-1.47-.75-1.47-.74-1.47-.75-1.47-.74-1.47-.75-1.48-.74-1.48-.74-1.48-.73-1.49-.74-1.48-.73-1.49-.73-1.5-.73-1.49-.73-1.5-.73-1.5-.72-1.5-.73-1.5-.72-1.51-.72-1.51-.71-1.51-.72-1.52-.71-1.51-.72-1.52-.71-1.52-.7-1.53-.71-1.53-.7-1.53-.71-1.53-.7-1.53-.7-1.54-.7-1.54-.69-1.54-.7-1.54-.69-1.55-.69-1.55-.69-1.55-.68-1.56-.69-1.55-.68-1.56-.68-1.56-.68-1.57-.68-1.56-.68-1.57-.67-1.57-.67-1.58-.67-1.57-.67-1.58-.67-1.58-.66-1.59-.67-1.58-.66-1.59-.66-1.6-.66-1.59-.65-1.6-.66-1.59-.65m146.24 73.34.35 1.15.34 1.15.34 1.15.34 1.15.35 1.15.34 1.15.34 1.15.34 1.15.35 1.15.34 1.15.34 1.16.34 1.15.35 1.15.34 1.15.34 1.15.34 1.15.34 1.15.35 1.15.34 1.15.34 1.15.34 1.15.35 1.15.34 1.15.34 1.16.34 1.15.35 1.15.34 1.15.34 1.15.34 1.15.35 1.15.34 1.15.34 1.15.34 1.15.35 1.15.34 1.15.34 1.15.34 1.16.35 1.15.34 1.15.34 1.15.34 1.15.34 1.15.35 1.15.34 1.15.34 1.15.34 1.15.35 1.15.34 1.15.34 1.15.34 1.15.35 1.16.34 1.15.34 1.15.34 1.15.35 1.15.34 1.15.34 1.15.34 1.15.35 1.15.34 1.15.34 1.15.34 1.15.34 1.15.35 1.16.34 1.15.34 1.15.34 1.15.35 1.15.34 1.15.34 1.15.34 1.15.35 1.15.34 1.15.34 1.15.34 1.15.35 1.15.34 1.16.34 1.15.34 1.15.35 1.15.34 1.15.34 1.15.34 1.15.34 1.15.35 1.15.34 1.15.34 1.15.34 1.15.35 1.15.34 1.15.34 1.16.34 1.15.35 1.15.34 1.15.34 1.15.34 1.15.35 1.15.34 1.15.34 1.15m-33.9-113.92-1.59-.66-1.6-.65-1.59-.66-1.6-.65-1.58-.66-1.59-.66-1.59-.67-1.58-.66-1.58-.67-1.57-.67-1.58-.67-1.57-.67-1.57-.68-1.56-.67-1.57-.68-1.56-.68-1.56-.68-1.55-.68-1.56-.69-1.55-.69-1.55-.68-1.55-.69-1.54-.7-1.54-.69-1.54-.7-1.54-.69-1.53-.7-1.53-.7-1.53-.71-1.53-.7-1.52-.71-1.53-.71-1.52-.71-1.51-.71-1.52-.71-1.51-.72-1.51-.72-1.51-.72-1.5-.72-1.5-.72-1.5-.72-1.5-.73-1.49-.73-1.5-.73-1.49-.73-1.48-.73-1.49-.74-1.48-.74-1.48-.74-1.48-.74-1.47-.74-1.47-.74-1.47-.75-1.47-.75-1.47-.75-1.46-.75-1.46-.75-1.46-.76-1.45-.75-1.45-.76-1.45-.76-1.45-.77-1.45-.76-1.44-.77-1.44-.76-1.44-.77-1.43-.77-1.43-.78-1.43-.77-1.43-.78-1.43-.78-1.42-.78-1.42-.78-1.42-.78-1.41-.79-1.41-.79-1.42-.79-1.4-.79-1.41-.79-1.4-.8-1.4-.79-1.4-.8-1.39-.8-1.4-.8-1.39-.81-1.39-.8-1.38-.81-1.38-.81-1.39-.81-1.37-.81-1.38-.82-1.37-.81-1.37-.82-1.37-.82-1.37-.82-1.36-.83-1.36-.82-1.36-.83-1.35-.83" style="stroke-width:1.07;stroke:#000000;stroke-opacity:0.10;stroke-linecap:butt"/><path d="m199.01 342.46.72 1.11.72 1.11.7 1.11.7 1.11.69 1.12.68 1.11.67 1.11.67 1.12.66 1.12.65 1.11.64 1.12.64 1.12.62 1.12.62 1.12.61 1.12.61 1.13.6 1.12.58 1.12.59 1.13.57 1.12.57 1.13.55 1.13.55 1.13.55 1.12.53 1.13.53 1.13.52 1.14.51 1.13.51 1.13.49 1.14.49 1.13.48 1.14.47 1.13.47 1.14.46 1.14.45 1.14.44 1.14.44 1.14.42 1.14.42 1.14.41 1.15.41 1.14.39 1.14.39 1.15.38 1.15.38 1.14.36 1.15.36 1.15.35 1.15.34 1.15.34 1.15.33 1.16.31 1.15.32 1.15.3 1.16.3 1.15.28 1.16.29 1.16.27 1.16.26 1.16.26 1.16.25 1.16.24 1.16.24 1.16.22 1.16.22 1.17.21 1.16.21 1.17.19 1.17.19 1.16.18 1.17.18 1.17.16 1.17.16 1.17.15 1.17.14 1.17.13 1.18.13 1.17.12 1.18.11 1.17.11 1.18.09 1.18.09 1.18.08 1.17.07 1.18.07 1.19.05 1.18.05 1.18.05 1.18.03 1.19.03 1.18.02 1.19.01 1.18v2.38l-.02 1.19-.02 1.19-.02 1.19-.04 1.19m-33.9-113.92-1.84-.48-1.83-.48-1.83-.49-1.82-.49-1.81-.5-1.81-.5-1.79-.51-1.79-.51-1.78-.52-1.78-.53-1.77-.53-1.76-.53-1.75-.54-1.74-.55-1.74-.55-1.73-.56-1.73-.56-1.71-.57-1.71-.57-1.7-.58-1.69-.58-1.69-.59-1.68-.6-1.67-.6-1.66-.61-1.66-.61-1.64-.61-1.65-.62-1.63-.63-1.62-.63-1.62-.64-1.61-.65-1.61-.65-1.59-.65-1.59-.66-1.58-.66-1.58-.68-1.57-.67-1.55-.68-1.56-.69-1.54-.69-1.54-.7-1.53-.7-1.52-.71-1.51-.71-1.51-.72-1.5-.73-1.49-.73-1.49-.73-1.47-.74-1.47-.75-1.47-.75-1.45-.76-1.45-.76-1.44-.77-1.43-.77-1.43-.78-1.41-.78-1.41-.79-1.41-.8-1.39-.8-1.39-.8-1.38-.82-1.37-.81-1.37-.82-1.36-.83-1.35-.83-1.34-.84-1.34-.85-1.33-.84-1.32-.86-1.31-.86-1.31-.86-1.3-.87-1.29-.88-1.28-.88-1.28-.89-1.27-.89-1.26-.9-1.25-.9-1.25-.91-1.24-.91-1.23-.92-1.22-.92-1.22-.93-1.21-.94-1.2-.94-1.2-.95-1.18-.95-1.18-.96-1.17-.96-1.17-.96-1.16-.98-1.15-.98-1.14-.98-1.13-.99-1.13-.99-1.12-1-1.11-1.01m0 0 1.97-.07 1.96-.07 1.96-.08 1.95-.09 1.95-.1 1.94-.11 1.93-.12 1.93-.12 1.92-.13 1.92-.14 1.91-.15 1.9-.15 1.9-.17 1.89-.17 1.88-.18 1.88-.19 1.87-.19 1.86-.21 1.86-.21 1.86-.22 1.84-.23 1.84-.24 1.84-.24 1.83-.26 1.82-.26 1.81-.27 1.81-.28 1.81-.28 1.79-.3 1.79-.3 1.79-.31 1.78-.32 1.77-.32 1.76-.34 1.76-.34 1.76-.35 1.74-.36 1.75-.37 1.73-.37 1.73-.39 1.72-.39 1.72-.4 1.71-.4 1.7-.42 1.7-.42 1.69-.44 1.68-.44 1.68-.44 1.68-.46 1.66-.47 1.66-.47 1.66-.48 1.64-.49 1.64-.49 1.64-.51 1.63-.51 1.62-.52 1.62-.53 1.61-.54 1.6-.55 1.6-.55 1.59-.56 1.59-.57 1.58-.58 1.57-.59 1.57-.59 1.56-.61 1.55-.61 1.55-.62 1.54-.62 1.54-.64 1.53-.64 1.52-.65 1.52-.66 1.51-.67 1.5-.68 1.5-.68 1.49-.69 1.49-.7 1.48-.71 1.47-.72 1.47-.72 1.46-.73 1.45-.74 1.45-.75 1.44-.76 1.44-.77 1.43-.77 1.42-.78 1.42-.79 1.41-.8 1.41-.8 1.4-.82 1.39-.82 1.38-.83 1.39-.84 1.37-.84 1.37-.86 1.36-.86" style="stroke-width:1.07;stroke:#000000;stroke-opacity:0.10;stroke-linecap:butt"/><path d="m52.77 269.12 1.81-.27 1.82-.26 1.81-.28 1.81-.28 1.81-.28 1.8-.28 1.8-.29 1.8-.3 1.79-.3 1.79-.3 1.79-.3 1.79-.31 1.78-.32 1.77-.32 1.78-.32 1.77-.33 1.77-.33 1.77-.33 1.76-.34 1.76-.34 1.76-.35 1.75-.35 1.75-.35 1.75-.36 1.74-.37 1.74-.36 1.74-.37 1.73-.38 1.74-.38 1.72-.38 1.73-.39 1.72-.39 1.72-.4 1.72-.4 1.71-.4 1.71-.41 1.71-.41 1.7-.42 1.7-.41 1.7-.43 1.69-.43 1.69-.43 1.69-.43 1.69-.45 1.68-.44 1.68-.45 1.67-.45 1.68-.46 1.66-.46 1.67-.46 1.66-.47 1.66-.47 1.66-.48 1.65-.48 1.66-.49 1.64-.48 1.65-.5 1.64-.49 1.64-.51 1.63-.5 1.63-.51 1.63-.51 1.63-.52 1.62-.52 1.62-.53 1.62-.53 1.61-.53 1.61-.54 1.61-.54 1.6-.55 1.6-.55 1.6-.55 1.6-.56 1.59-.56 1.59-.57 1.58-.57 1.58-.57 1.58-.58 1.58-.58 1.57-.59 1.57-.59 1.57-.59 1.56-.6 1.56-.6 1.56-.61 1.56-.61 1.55-.62 1.54-.61 1.55-.63 1.54-.62 1.54-.64 1.54-.63 1.53-.64 1.53-.64 1.52-.65 1.53-.65 1.52-.66 1.51-.66 1.52-.66" style="stroke-width:1.07;stroke:#000000;stroke-opacity:0.10;stroke-linecap:butt"/><path d="m52.77 269.12 1.66-.46 1.67-.47 1.66-.46 1.67-.47 1.67-.46 1.66-.47 1.67-.46 1.67-.47 1.66-.46 1.67-.47 1.67-.46 1.66-.46 1.67-.47 1.66-.46 1.67-.47 1.67-.46 1.66-.47 1.67-.46 1.67-.47 1.66-.46 1.67-.47 1.66-.46 1.67-.46 1.67-.47 1.66-.46 1.67-.47 1.67-.46 1.66-.47 1.67-.46 1.66-.47 1.67-.46 1.67-.47 1.66-.46 1.67-.46 1.67-.47 1.66-.46 1.67-.47 1.66-.46 1.67-.47 1.67-.46 1.66-.47 1.67-.46 1.67-.47 1.66-.46 1.67-.46 1.66-.47 1.67-.46 1.67-.47 1.66-.46 1.67-.47 1.67-.46 1.66-.47 1.67-.46 1.67-.47 1.66-.46 1.67-.47 1.66-.46 1.67-.46 1.67-.47 1.66-.46 1.67-.47 1.67-.46 1.66-.47 1.67-.46 1.66-.47 1.67-.46 1.67-.47 1.66-.46 1.67-.46 1.67-.47 1.66-.46 1.67-.47 1.66-.46 1.67-.47 1.67-.46 1.66-.47 1.67-.46 1.67-.47 1.66-.46 1.67-.46 1.66-.47 1.67-.46 1.67-.47 1.66-.46 1.67-.47 1.67-.46 1.66-.47 1.67-.46 1.67-.47 1.66-.46 1.67-.46 1.66-.47 1.67-.46 1.67-.47 1.66-.46 1.67-.47 1.67-.46 1.66-.47 1.67-.46" style="stroke-width:1.07;stroke:#000000;stroke-opacity:0.10;stroke-linecap:butt"/><path d="m52.77 269.12 1.51-.66 1.52-.66 1.52-.66 1.52-.65 1.53-.65 1.53-.64 1.53-.64 1.53-.63 1.54-.64 1.54-.62 1.55-.63 1.55-.61 1.55-.62 1.55-.61 1.56-.61 1.56-.6 1.56-.6 1.57-.59 1.57-.59 1.57-.59 1.58-.58 1.58-.58 1.58-.57 1.59-.58 1.59-.56 1.59-.56 1.59-.56 1.6-.56 1.6-.55 1.6-.54 1.61-.54 1.61-.54 1.62-.53 1.61-.53 1.62-.53 1.62-.52 1.63-.52 1.63-.51 1.63-.51 1.64-.51 1.63-.5 1.65-.49 1.64-.5 1.65-.49 1.65-.48 1.65-.48 1.66-.48 1.66-.47 1.66-.47 1.67-.46 1.67-.46 1.67-.46 1.68-.45 1.68-.45 1.68-.45 1.68-.44 1.69-.43 1.69-.43 1.7-.43 1.69-.43 1.7-.42 1.71-.41 1.7-.41 1.71-.41 1.72-.4 1.71-.4 1.72-.4 1.72-.39 1.73-.39 1.73-.38 1.73-.38 1.73-.38 1.74-.37 1.74-.36 1.75-.37 1.74-.36 1.75-.35 1.76-.35 1.75-.35 1.76-.34 1.77-.34 1.76-.33 1.77-.34 1.77-.32 1.78-.32 1.78-.32 1.78-.32 1.78-.31 1.79-.3 1.79-.31 1.8-.29 1.79-.3 1.8-.29 1.81-.28 1.8-.28 1.81-.28 1.81-.28 1.82-.27 1.82-.26" style="stroke-width:1.07;stroke:#000000;stroke-opacity:0.10;stroke-linecap:butt"/><path d="m52.77 269.12 1.36-.86 1.37-.86 1.37-.84 1.38-.84 1.39-.83 1.39-.82 1.4-.82 1.4-.8 1.41-.8 1.42-.79 1.42-.78 1.43-.78 1.44-.76 1.44-.76 1.45-.75 1.46-.74 1.46-.73 1.46-.72 1.48-.72 1.48-.71 1.48-.7 1.49-.69 1.5-.69 1.51-.67 1.51-.67 1.51-.66 1.53-.65 1.53-.64 1.53-.64 1.54-.63 1.55-.61 1.56-.61 1.56-.61 1.56-.59 1.58-.59 1.58-.58 1.58-.57 1.59-.56 1.6-.55 1.61-.55 1.61-.54 1.61-.53 1.63-.52 1.62-.51 1.64-.51 1.64-.49 1.65-.49 1.65-.48 1.66-.48 1.67-.46 1.67-.46 1.68-.44 1.68-.44 1.7-.44 1.69-.42 1.71-.42 1.71-.4 1.71-.4 1.72-.4 1.73-.38 1.74-.37 1.74-.37 1.75-.36 1.75-.35 1.76-.34 1.77-.34 1.77-.32 1.78-.32 1.78-.31 1.79-.3 1.8-.3 1.8-.28 1.81-.28 1.82-.27 1.82-.26 1.83-.26 1.83-.24 1.84-.24 1.85-.23 1.85-.22 1.86-.21 1.86-.21 1.88-.19 1.87-.19 1.89-.18 1.89-.17 1.89-.17 1.91-.15 1.91-.15 1.91-.14 1.92-.13 1.93-.13 1.93-.11 1.94-.11 1.95-.1 1.95-.09 1.96-.08 1.97-.07 1.97-.07" style="stroke-width:1.07;stroke:#000000;stroke-opacity:0.10;stroke-linecap:butt"/><path d="m385.32 157.18 1.91 3.32h-3.83zm-335.9-2.82 1.92 3.31h-3.83zm149.59 178.7 8.14 14.1h-16.27z" style="stroke-width:0.71;stroke:none;fill:#00BA38"/><path d="M46.01 275.88h13.51v-13.52H46.01z" style="stroke-width:0.71;stroke:none;fill:#619CFF"/><circle cx="217.73" cy="223.13" r="5.19" style="stroke-width:0.71;stroke:none;fill:#F8766D"/><circle cx="232.91" cy="456.38" r="5.19" style="stroke-width:0.71;stroke:none;fill:#F8766D"/><path d="m194.24 347.13 3.96-3.87M57.58 269.13l-3.6-.01m168.79-50.63-4.2 3.86m19.44 229.34-4.26 3.92" style="stroke-width:0.53;stroke:#BFBFBF"/><path d="M317.45 165.07h60.97-.09l.35-.02.34-.06.32-.13.3-.17.27-.22.23-.26.19-.3.14-.32.08-.33.03-.35h0v-7.03h0l-.03-.34-.08-.34-.14-.32-.19-.29-.23-.26-.27-.22-.3-.18-.32-.12-.34-.07-.26-.02h-60.97l.26.02-.35-.02-.35.05-.33.09-.31.15-.29.2-.25.24-.21.28-.16.31-.11.33-.06.34v7.2-.17.34l.06.35.11.33.16.3.21.28.25.24.29.2.31.15.33.1.35.04z" style="stroke-width:0.53;fill:#FFFFFF;fill-opacity:0.50"/><text x="347.93" y="161.47" lengthAdjust="spacingAndGlyphs" style="font-size:5.69px;font-family:&quot;Liberation Sans&quot;" text-anchor="middle" textLength="58.09">3310 DOUSMAN LLC</text><path d="M56.32 162.22h60.97-.08l.34-.01.34-.07.33-.13.3-.17.27-.22.23-.26.19-.29.13-.32.09-.34.02-.35h0v-7.02h0l-.02-.35-.09-.34-.13-.32-.19-.29-.23-.26-.27-.22-.3-.18-.33-.12-.34-.07-.26-.01H56.32l.26.01-.34-.01-.35.04-.33.1-.32.14-.28.2-.25.24-.21.28-.16.31-.11.33-.06.34-.01.18v7.02l.01-.17v.35l.06.34.11.33.16.31.21.27.25.25.28.19.32.15.33.1.35.04z" style="stroke-width:0.53;fill:#FFFFFF;fill-opacity:0.50"/><text x="86.81" y="158.62" lengthAdjust="spacingAndGlyphs" style="font-size:5.69px;font-family:&quot;Liberation Sans&quot;" text-anchor="middle" textLength="58.09">3300 DOUSMAN LLC</text><path d="M151.18 358.48h72.44-.09l.35-.02.34-.07.32-.12.31-.18.26-.22.24-.26.18-.29.14-.32.08-.34.03-.34h0v-7.03h0l-.03-.35-.08-.33-.14-.32-.18-.3-.24-.26-.26-.22-.31-.17-.32-.12-.34-.07-.26-.02h-72.44l.26.02-.35-.02-.34.04-.34.1-.31.15-.29.2-.25.24-.21.28-.16.3-.11.33-.05.35-.01.17v7.03l.01-.18v.35l.05.34.11.33.16.31.21.28.25.24.29.2.31.15.34.09.34.05z" style="stroke-width:0.53;fill:#FFFFFF;fill-opacity:0.50"/><text x="187.4" y="354.88" lengthAdjust="spacingAndGlyphs" style="font-size:5.69px;font-family:&quot;Liberation Sans&quot;" text-anchor="middle" textLength="69.56">THE MICASA GROUP LLC</text><path d="M59.74 283h65.63l-.09-.01.35-.01.34-.07.32-.12.3-.18.27-.22.23-.26.19-.29.14-.32.08-.34.03-.34h0v-23.42h0l-.03-.35-.08-.33-.14-.32-.19-.3-.23-.26-.27-.22-.3-.17-.32-.13-.34-.07-.26-.01H59.74l.26.01-.35-.01-.34.04-.34.1-.31.15-.29.2-.25.24-.21.27-.16.31-.11.33-.05.35-.01.17v23.42l.01-.18v.35l.05.34.11.33.16.31.21.28.25.24.29.2.31.14.34.1.34.04z" style="stroke-width:0.53;fill:#FFFFFF;fill-opacity:0.50"/><text x="92.55" y="263.01" lengthAdjust="spacingAndGlyphs" style="font-size:5.69px;font-family:&quot;Liberation Sans&quot;" text-anchor="middle" textLength="55.5">1711 E LAKE BLUFF</text><text x="92.55" y="271.2" lengthAdjust="spacingAndGlyphs" style="font-size:5.69px;font-family:&quot;Liberation Sans&quot;" text-anchor="middle" textLength="62.75">BLVD, MILWAUKEE, WI</text><text x="92.55" y="279.4" lengthAdjust="spacingAndGlyphs" style="font-size:5.69px;font-family:&quot;Liberation Sans&quot;" text-anchor="middle" textLength="18.11">53211</text><path d="M205.64 218.49h65.63l-.09-.01.35-.01.34-.07.33-.12.3-.18.27-.22.23-.26.18-.29.14-.32.08-.34.03-.34h0v-23.42h0l-.03-.35-.08-.33-.14-.32-.18-.3-.23-.26-.27-.22-.3-.17-.33-.12-.34-.07-.26-.02h-65.63l.26.02-.35-.02-.34.04-.33.1-.32.15-.28.2-.26.24-.2.28-.17.3-.11.33-.05.35-.01.17v23.42l.01-.18v.35l.05.34.11.33.17.31.2.28.26.24.28.2.32.15.33.09.34.04z" style="stroke-width:0.53;fill:#FFFFFF;fill-opacity:0.50"/><text x="238.46" y="198.5" lengthAdjust="spacingAndGlyphs" style="font-size:5.69px;font-family:&quot;Liberation Sans&quot;" text-anchor="middle" textLength="55.5">1711 E LAKE BLUFF</text><text x="238.46" y="206.69" lengthAdjust="spacingAndGlyphs" style="font-size:5.69px;font-family:&quot;Liberation Sans&quot;" text-anchor="middle" textLength="62.75">BLVD, MILWAUKEE, WI</text><text x="238.46" y="214.89" lengthAdjust="spacingAndGlyphs" style="font-size:5.69px;font-family:&quot;Liberation Sans&quot;" text-anchor="middle" textLength="18.11">53211</text><path d="M220.88 451.69h65.63-.08l.34-.02.34-.07.33-.12.3-.17.27-.22.23-.26.18-.3.14-.32.08-.33.03-.35h0v-23.42h0l-.03-.34-.08-.34-.14-.32-.18-.29-.23-.26-.27-.22-.3-.18-.33-.12-.34-.07-.26-.02h-65.63l.26.02-.34-.02-.35.05-.33.09-.32.15-.28.2-.25.24-.21.28-.16.31-.11.33-.06.34-.01.17v23.42l.01-.17v.34l.06.35.11.33.16.3.21.28.25.24.28.2.32.15.33.1.35.04z" style="stroke-width:0.53;fill:#FFFFFF;fill-opacity:0.50"/><text x="253.7" y="431.7" lengthAdjust="spacingAndGlyphs" style="font-size:5.69px;font-family:&quot;Liberation Sans&quot;" text-anchor="middle" textLength="50.1">1711 LAKE BLUFF</text><text x="253.7" y="439.89" lengthAdjust="spacingAndGlyphs" style="font-size:5.69px;font-family:&quot;Liberation Sans&quot;" text-anchor="middle" textLength="62.75">BLVD, MILWAUKEE, WI</text><text x="253.7" y="448.09" lengthAdjust="spacingAndGlyphs" style="font-size:5.69px;font-family:&quot;Liberation Sans&quot;" text-anchor="middle" textLength="18.11">53211</text></g><g clip-path="url(#cpMC4wMHw0MzIuMDB8MC4wMHw1MDQuMDA=)"><circle cx="122.25" cy="116.5" r="1.95" style="stroke-width:0.71;stroke:none;fill:#F8766D"/><path d="m198.6 113.46 2.63 4.56h-5.27z" style="stroke-width:0.71;stroke:none;fill:#00BA38"/><path d="M264.57 118.45h3.91v-3.91h-3.91z" style="stroke-width:0.71;stroke:none;fill:#619CFF"/><text x="136.37" y="119.66" lengthAdjust="spacingAndGlyphs" style="font-size:8.80px;font-weight:0;font-family:&quot;Nimbus Sans Narrow&quot;" textLength="48.11">mprop address</text><text x="212.72" y="119.66" lengthAdjust="spacingAndGlyphs" style="font-size:8.80px;font-weight:0;font-family:&quot;Nimbus Sans Narrow&quot;" textLength="39.69">owner name</text><text x="280.64" y="119.66" lengthAdjust="spacingAndGlyphs" style="font-size:8.80px;font-weight:0;font-family:&quot;Nimbus Sans Narrow&quot;" textLength="40.49">wdfi address</text><text x="32.63" y="84.79" lengthAdjust="spacingAndGlyphs" style="font-size:12.00px;font-weight:0;font-family:&quot;Nimbus Sans Narrow&quot;" textLength="246.65">includes 6 parcels, 21 units, and 3 distinct owner names.</text><text x="32.63" y="42.81" lengthAdjust="spacingAndGlyphs" style="font-size:18.00px;font-weight:0;font-family:&quot;Nimbus Sans Narrow&quot;" textLength="346.92">THE MICASA GROUP LLC -- 3300 DOUSMAN LLC</text><text x="32.63" y="62.25" lengthAdjust="spacingAndGlyphs" style="font-size:18.00px;font-weight:0;font-family:&quot;Nimbus Sans Narrow&quot;" textLength="208.33">-- 3310 DOUSMAN LLC Group</text></g></svg>