<svg xmlns="http://www.w3.org/2000/svg" width="384" height="480" class="svglite" viewBox="0 0 288 360"><defs><style><![CDATA[.svglite line,.svglite polyline,.svglite polygon,.svglite path,.svglite circle{fill:none;stroke:#000000;stroke-linecap:round;stroke-linejoin:round;stroke-miterlimit:10.00}.svglite text{white-space:pre}]]></style></defs><rect width="100%" height="100%" style="stroke-linecap:round;stroke-linejoin:round;stroke-miterlimit:10.00;stroke:none;fill:#FFFFFF"/><defs><clipPath id="cpMC4wMHwyODguMDB8MC4wMHwzNjAuMDA="><path d="M0 0h288v360H0z"/></clipPath></defs><g clip-path="url(#cpMC4wMHwyODguMDB8MC4wMHwzNjAuMDA=)"><path d="M0 0h288v360H0z" style="stroke-width:1.07;stroke:none;fill:#FFFFFF"/></g><defs><clipPath id="cpMzIuNjN8MjU4LjExfDE4MC40NnwzMjcuMzc="><path d="M32.63 180.46h225.48v146.92H32.63z"/></clipPath></defs><g clip-path="url(#cpMzIuNjN8MjU4LjExfDE4MC40NnwzMjcuMzc=)"><path d="m247.86 279.84-1.12-.47-1.12-.45-1.13-.46-1.12-.44-1.13-.44-1.13-.44-1.13-.42-1.14-.43-1.14-.41-1.14-.41-1.14-.41-1.14-.4-1.15-.39-1.14-.39-1.15-.38-1.15-.37-1.16-.37-1.15-.37-1.16-.35-1.16-.36-1.16-.34-1.17-.34-1.16-.33-1.17-.33-1.17-.32-1.18-.32-1.17-.31-1.18-.31-1.18-.29-1.18-.3-1.18-.28-1.18-.28-1.19-.28-1.19-.27-1.19-.26-1.19-.26-1.2-.25-1.2-.24-1.2-.24-1.2-.24-1.2-.23-1.21-.22-1.2-.21-1.21-.21-1.22-.21-1.21-.2-1.22-.19-1.21-.18-1.22-.18-1.23-.18-1.22-.17-1.23-.16-1.23-.16-1.23-.15-1.23-.14-1.23-.14-1.24-.14-1.24-.12-1.24-.12-1.24-.12-1.25-.11-1.24-.1-1.25-.1-1.26-.09-1.25-.09-1.25-.08-1.26-.07-1.26-.07-1.26-.06-1.27-.06-1.26-.05-1.27-.05-1.27-.04-1.27-.03-1.28-.03-1.27-.02-1.28-.01-1.28-.01h-2.57l-1.28.01-1.29.01-1.29.02-1.3.03-1.29.03-1.3.04-1.3.04-1.3.05-1.3.06-1.31.06-1.3.06-1.31.08-1.32.08-1.31.08-1.31.09-1.32.1-1.32.1-1.32.11-1.33.12m-37.01-75.42.37.76.38.76.37.76.37.76.38.76.37.77.38.76.37.76.37.76.38.76.37.77.37.76.38.76.37.76.38.76.37.76.37.77.38.76.37.76.38.76.37.76.37.77.38.76.37.76.38.76.37.76.37.76.38.77.37.76.37.76.38.76.37.76.38.77.37.76.37.76.38.76.37.76.38.76.37.77.37.76.38.76.37.76.37.76.38.77.37.76.38.76.37.76.37.76.38.76.37.77.38.76.37.76.37.76.38.76.37.77.38.76.37.76.37.76.38.76.37.76.37.77.38.76.37.76.38.76.37.76.37.77.38.76.37.76.38.76.37.76.37.76.38.77.37.76.38.76.37.76.37.76.38.77.37.76.37.76.38.76.37.76.38.76.37.77.37.76.38.76.37.76.38.76.37.77.37.76.38.76.37.76.38.76.37.76.37.77.38.76.37.76.37.76.38.76.37.77" style="stroke-width:1.07;stroke:#000000;stroke-opacity:0.10;stroke-linecap:butt"/><path d="m247.86 279.84-1.19-.27-1.18-.27-1.19-.27-1.19-.26-1.2-.27-1.19-.26-1.19-.26-1.19-.25-1.2-.26-1.19-.25-1.2-.25-1.19-.25-1.2-.25-1.2-.25-1.19-.24-1.2-.24-1.2-.24-1.2-.24-1.2-.23-1.21-.24-1.2-.23-1.2-.23-1.2-.23-1.21-.22-1.2-.23-1.21-.22-1.2-.22-1.21-.22-1.21-.21-1.21-.21-1.21-.22-1.21-.21-1.21-.2-1.21-.21-1.21-.2-1.21-.21-1.22-.2-1.21-.2-1.21-.19-1.22-.2-1.22-.19-1.21-.19-1.22-.19-1.22-.18-1.22-.19-1.22-.18-1.22-.18-1.22-.18-1.22-.18-1.22-.17-1.22-.17-1.23-.17-1.22-.17-1.23-.17-1.22-.16-1.23-.17-1.23-.16-1.22-.16-1.23-.15-1.23-.16-1.23-.15-1.23-.15-1.23-.15-1.23-.15-1.24-.14-1.23-.15-1.23-.14-1.24-.14-1.23-.13-1.24-.14-1.24-.13-1.24-.13-1.23-.13-1.24-.13-1.24-.12-1.24-.13-1.24-.12-1.24-.12-1.25-.12-1.24-.11-1.24-.12-1.25-.11-1.24-.11-1.25-.1-1.24-.11-1.25-.1-1.25-.11-1.25-.1-1.25-.09-1.25-.1-1.25-.09-1.25-.1-1.25-.09-1.25-.08-1.26-.09-1.25-.08-1.26-.09-1.25-.08-1.26-.07" style="stroke-width:1.07;stroke:#000000;stroke-opacity:0.10;stroke-linecap:butt"/><path d="m247.86 279.84-1.25-.08-1.26-.08-1.25-.08-1.26-.09-1.25-.08-1.25-.09-1.26-.09-1.25-.09-1.25-.1-1.25-.09-1.25-.1-1.24-.1-1.25-.1-1.25-.11-1.25-.1-1.24-.11-1.25-.11-1.24-.11-1.25-.11-1.24-.12-1.24-.12-1.24-.12-1.24-.12-1.24-.12-1.24-.13-1.24-.12-1.24-.13-1.24-.13-1.23-.14-1.24-.13-1.24-.14-1.23-.14-1.23-.14-1.24-.14-1.23-.15-1.23-.15-1.23-.15-1.23-.15-1.23-.15-1.23-.15-1.23-.16-1.23-.16-1.23-.16-1.22-.16-1.23-.17-1.22-.16-1.23-.17-1.22-.17-1.22-.18-1.23-.17-1.22-.18-1.22-.18-1.22-.18-1.22-.18-1.22-.18-1.21-.19-1.22-.19-1.22-.19-1.21-.19-1.22-.19-1.21-.2-1.22-.2-1.21-.2-1.21-.2-1.22-.21-1.21-.2-1.21-.21-1.21-.21-1.21-.21-1.21-.22-1.2-.21-1.21-.22-1.21-.22-1.2-.22-1.21-.22-1.2-.23-1.2-.23-1.21-.23-1.2-.23-1.2-.23-1.2-.24-1.2-.24-1.2-.24-1.2-.24-1.2-.24-1.2-.25-1.19-.24-1.2-.25-1.19-.25-1.2-.26-1.19-.25-1.19-.26-1.2-.26-1.19-.26-1.19-.26-1.19-.27-1.19-.26-1.19-.27-1.19-.27" style="stroke-width:1.07;stroke:#000000;stroke-opacity:0.10;stroke-linecap:butt"/><path d="m247.86 279.84-1.32.11-1.32.11-1.32.1-1.32.1-1.32.09-1.31.09-1.31.08-1.31.07-1.31.07-1.3.06-1.31.05-1.3.05-1.3.05-1.29.03-1.3.04-1.29.02-1.29.02-1.29.02-1.29.01h-1.28l-1.28-.01h-1.28l-1.28-.02-1.28-.02-1.27-.03-1.27-.03-1.27-.04-1.27-.04-1.27-.06-1.26-.05-1.26-.06-1.26-.07-1.26-.08-1.26-.08-1.25-.08-1.25-.1-1.25-.09-1.25-.11-1.24-.11-1.24-.11-1.25-.12-1.23-.13-1.24-.13-1.24-.14-1.23-.15-1.23-.15-1.23-.16-1.22-.16-1.23-.17-1.22-.17-1.22-.18-1.22-.19-1.21-.19-1.22-.2-1.21-.2-1.21-.21-1.21-.22-1.2-.22-1.21-.23-1.2-.23-1.2-.24-1.2-.25-1.19-.25-1.19-.26-1.19-.26-1.19-.27-1.19-.27-1.19-.28-1.18-.29-1.18-.29-1.18-.3-1.17-.31-1.18-.31-1.17-.31-1.17-.32-1.17-.33-1.17-.34-1.16-.34-1.16-.34-1.16-.35-1.16-.36-1.16-.36-1.15-.37-1.15-.38-1.15-.38-1.15-.39-1.14-.39-1.15-.4-1.14-.4-1.14-.41-1.14-.42-1.13-.42-1.13-.43-1.13-.43-1.13-.44-1.13-.45-1.12-.45-1.13-.46-1.12-.46m-83.98 58.13.85-.58.84-.59.85-.59.85-.58.85-.59.85-.59.85-.59.84-.58.85-.59.85-.59.85-.59.85-.58.85-.59.84-.59.85-.58.85-.59.85-.59.85-.59.85-.58.84-.59.85-.59.85-.59.85-.58.85-.59.85-.59.84-.58.85-.59.85-.59.85-.59.85-.58.85-.59.84-.59.85-.59.85-.58.85-.59.85-.59.85-.58.84-.59.85-.59.85-.59.85-.58.85-.59.85-.59.84-.58.85-.59.85-.59.85-.59.85-.58.85-.59.84-.59.85-.59.85-.58.85-.59.85-.59.85-.58.84-.59.85-.59.85-.59.85-.58.85-.59.85-.59.84-.59.85-.58.85-.59.85-.59.85-.58.85-.59.84-.59.85-.59.85-.58.85-.59.85-.59.85-.59.84-.58.85-.59.85-.59.85-.58.85-.59.85-.59.84-.59.85-.58.85-.59.85-.59.85-.59.85-.58.84-.59.85-.59.85-.58.85-.59.85-.59.85-.59.84-.58.85-.59.85-.59.85-.59.85-.58.85-.59.84-.59.85-.58" style="stroke-width:1.07;stroke:#000000;stroke-opacity:0.10;stroke-linecap:butt"/><path d="m247.86 271.2 7.48 12.96h-14.96zM89.85 184.92l1.91 3.32h-3.83zM42.88 318.48l1.91 3.32h-3.83z" style="stroke-width:0.71;stroke:none;fill:#00BFC4"/><circle cx="126.86" cy="262.56" r="6.76" style="stroke-width:0.71;stroke:none;fill:#F8766D"/><path d="m90.56 191.64-.57-3.59M49.61 316.2l-5.75 3.84m76.46-53.01 5.57-3.81" style="stroke-width:0.53;stroke:#BFBFBF"/><path d="M187.11 289.61h53.6-.09l.35-.02.34-.07.32-.12.31-.17.26-.22.24-.26.18-.3.14-.32.08-.33.03-.35h0v-15.22h0l-.03-.35-.08-.34-.14-.32-.18-.29-.24-.26-.26-.22-.31-.17-.32-.13-.34-.07-.26-.01h-53.6l.26.01-.35-.01-.34.04-.33.1-.32.15-.28.19-.26.24-.2.28-.17.31-.11.33-.05.34-.01.18v15.22l.01-.17v.34l.05.35.11.33.17.3.2.28.26.24.28.2.32.15.33.1.34.04z" style="stroke-width:0.53;fill:#FFFFFF;fill-opacity:0.50"/><text x="213.91" y="277.81" lengthAdjust="spacingAndGlyphs" style="font-size:5.69px;font-family:&quot;Liberation Sans&quot;" text-anchor="middle" textLength="50.72">THE LAWRENCE A</text><text x="213.91" y="286.01" lengthAdjust="spacingAndGlyphs" style="font-size:5.69px;font-family:&quot;Liberation Sans&quot;" text-anchor="middle" textLength="49.67">WHEATON AND D</text><path d="M57.24 211.18h66.65-.09l.35-.01.34-.07.32-.12.3-.18.27-.22.23-.26.19-.29.14-.32.08-.34.03-.35h0V193.8h0l-.03-.34-.08-.34-.14-.32-.19-.29-.23-.27-.27-.21-.3-.18-.32-.12-.34-.07-.26-.02H57.24l.26.02-.35-.02-.35.05-.33.09-.31.15-.29.2-.25.24-.21.28-.16.31-.11.33-.06.34v15.39-.17.35l.06.34.11.33.16.31.21.28.25.24.29.19.31.15.33.1.35.04z" style="stroke-width:0.53;fill:#FFFFFF;fill-opacity:0.50"/><text x="90.56" y="199.39" lengthAdjust="spacingAndGlyphs" style="font-size:5.69px;font-family:&quot;Liberation Sans&quot;" text-anchor="middle" textLength="63.77">WHEATON LIV TRT U/A</text><text x="90.56" y="207.58" lengthAdjust="spacingAndGlyphs" style="font-size:5.69px;font-family:&quot;Liberation Sans&quot;" text-anchor="middle" textLength="25.83">11-18-20</text><path d="M38.42 316.2h71.4-.09l.35-.02.34-.07.33-.12.3-.17.27-.22.23-.26.18-.3.14-.32.08-.33.03-.35h0v-15.22h0l-.03-.35-.08-.34-.14-.32-.18-.29-.23-.26-.27-.22-.3-.17-.33-.13-.34-.07-.26-.01h-71.4l.26.01-.35-.01-.34.04-.34.1-.31.15-.29.2-.25.24-.21.27-.16.31-.11.33-.05.34-.01.18v15.22l.01-.17v.34l.05.35.11.33.16.3.21.28.25.24.29.2.31.15.34.1.34.04z" style="stroke-width:0.53;fill:#FFFFFF;fill-opacity:0.50"/><text x="74.12" y="304.41" lengthAdjust="spacingAndGlyphs" style="font-size:5.69px;font-family:&quot;Liberation Sans&quot;" text-anchor="middle" textLength="68.52">LAWRENCE A WHEATON</text><text x="74.12" y="312.6" lengthAdjust="spacingAndGlyphs" style="font-size:5.69px;font-family:&quot;Liberation Sans&quot;" text-anchor="middle" textLength="33.81">AND DEBRA</text><path d="M70.77 286.57h68.45-.08l.34-.02.35-.07.32-.12.3-.17.27-.22.23-.26.19-.3.13-.32.09-.34.02-.34h0v-15.22h0l-.02-.35-.09-.34-.13-.32-.19-.29-.23-.26-.27-.22-.3-.17-.32-.13-.35-.07-.26-.01H70.77l.26.01-.34-.01-.35.04-.33.1-.32.15-.28.19-.25.24-.21.28-.16.31-.11.33-.06.34-.01.18v15.22l.01-.18v.35l.06.35.11.33.16.3.21.28.25.24.28.2.32.15.33.09.35.05z" style="stroke-width:0.53;fill:#FFFFFF;fill-opacity:0.50"/><text x="105" y="274.77" lengthAdjust="spacingAndGlyphs" style="font-size:5.69px;font-family:&quot;Liberation Sans&quot;" text-anchor="middle" textLength="65.57">5496 BEAVER DAM RD,</text><text x="105" y="282.97" lengthAdjust="spacingAndGlyphs" style="font-size:5.69px;font-family:&quot;Liberation Sans&quot;" text-anchor="middle" textLength="65.07">WEST BEND, WI 53090</text></g><g clip-path="url(#cpMC4wMHwyODguMDB8MC4wMHwzNjAuMDA=)"><circle cx="84.61" cy="155.38" r="1.95" style="stroke-width:0.71;stroke:none;fill:#F8766D"/><path d="m160.96 152.34 2.63 4.56h-5.26z" style="stroke-width:0.71;stroke:none;fill:#00BFC4"/><text x="98.73" y="158.54" lengthAdjust="spacingAndGlyphs" style="font-size:8.80px;font-weight:0;font-family:&quot;Nimbus Sans Narrow&quot;" textLength="48.11">mprop address</text><text x="175.08" y="158.54" lengthAdjust="spacingAndGlyphs" style="font-size:8.80px;font-weight:0;font-family:&quot;Nimbus Sans Narrow&quot;" textLength="39.69">owner name</text><text x="32.63" y="123.67" lengthAdjust="spacingAndGlyphs" style="font-size:12.00px;font-weight:0;font-family:&quot;Nimbus Sans Narrow&quot;" textLength="246.65">includes 6 parcels, 12 units, and 3 distinct owner names.</text><text x="32.63" y="42.81" lengthAdjust="spacingAndGlyphs" style="font-size:18.00px;font-weight:0;font-family:&quot;Nimbus Sans Narrow&quot;" textLength="250.1">THE LAWRENCE A WHEATON AND</text><text x="32.63" y="62.25" lengthAdjust="spacingAndGlyphs" style="font-size:18.00px;font-weight:0;font-family:&quot;Nimbus Sans Narrow&quot;" textLength="245.17">D -- LAWRENCE A WHEATON AND</text><text x="32.63" y="81.69" lengthAdjust="spacingAndGlyphs" style="font-size:18.00px;font-weight:0;font-family:&quot;Nimbus Sans Narrow&quot;" textLength="206.65">DEBRA -- WHEATON LIV TRT</text><text x="32.63" y="101.13" lengthAdjust="spacingAndGlyphs" style="font-size:18.00px;font-weight:0;font-family:&quot;Nimbus Sans Narrow&quot;" textLength="137.82">U-A 11-18-20 Group</text></g></svg>