<svg xmlns="http://www.w3.org/2000/svg" width="384" height="480" class="svglite" viewBox="0 0 288 360"><defs><style><![CDATA[.svglite line,.svglite polyline,.svglite polygon,.svglite path,.svglite circle{fill:none;stroke:#000000;stroke-linecap:round;stroke-linejoin:round;stroke-miterlimit:10.00}]]></style></defs><rect width="100%" height="100%" style="stroke-linecap:round;stroke-linejoin:round;stroke-miterlimit:10.00;stroke:none;fill:#FFFFFF"/><defs><clipPath id="cpMC4wMHwyODguMDB8MC4wMHwzNjAuMDA="><path d="M0 0h288v360H0z"/></clipPath></defs><g clip-path="url(#cpMC4wMHwyODguMDB8MC4wMHwzNjAuMDA=)"><path d="M0 0h288v360H0z" style="stroke-width:1.07;stroke:none;fill:#FFFFFF"/></g><defs><clipPath id="cpMzIuNjN8MjU4LjExfDE0MS4yMnwzMjcuMzc="><path d="M32.63 141.22h225.48v186.15H32.63z"/></clipPath></defs><g clip-path="url(#cpMzIuNjN8MjU4LjExfDE0MS4yMnwzMjcuMzc=)"><path d="m247.86 149.69-1.03.85-1.04.85-1.03.86-1.04.85-1.03.86-1.04.85-1.03.86-1.04.85-1.03.86-1.04.85-1.04.86-1.03.85-1.04.86-1.03.85-1.04.86-1.03.85-1.04.86-1.03.85-1.04.85-1.03.86-1.04.85-1.03.86-1.04.85-1.03.86-1.04.85-1.03.86-1.04.85-1.04.86-1.03.85-1.04.86-1.03.85-1.04.86-1.03.85-1.04.86-1.03.85-1.04.85-1.03.86-1.04.85-1.03.86-1.04.85-1.03.86-1.04.85-1.03.86-1.04.85-1.03.86-1.04.85-1.04.86-1.03.85-1.04.86-1.03.85-1.04.86-1.03.85-1.04.85-1.03.86-1.04.85-1.03.86-1.04.85-1.03.86-1.04.85-1.03.86-1.04.85-1.03.86-1.04.85-1.04.86-1.03.85-1.04.86-1.03.85-1.04.85-1.03.86-1.04.85-1.03.86-1.04.85-1.03.86-1.04.85-1.03.86-1.04.85-1.03.86-1.04.85-1.03.86-1.04.85-1.03.86-1.04.85-1.04.86-1.03.85-1.04.85-1.03.86-1.04.85-1.03.86-1.04.85-1.03.86-1.04.85-1.03.86-1.04.85-1.03.86-1.04.85-1.03.86-1.04.85-1.03.86-1.04.85M42.88 318.91l1.03-.85 1.04-.86 1.03-.85 1.04-.86 1.03-.85 1.04-.86 1.03-.85 1.04-.86 1.03-.85 1.04-.86 1.04-.85 1.03-.85 1.04-.86 1.03-.85 1.04-.86 1.03-.85 1.04-.86 1.03-.85 1.04-.86 1.03-.85 1.04-.86 1.03-.85 1.04-.86 1.03-.85 1.04-.86 1.03-.85 1.04-.85 1.03-.86 1.04-.85 1.04-.86 1.03-.85 1.04-.86 1.03-.85 1.04-.86 1.03-.85 1.04-.86 1.03-.85 1.04-.86 1.03-.85 1.04-.85 1.03-.86 1.04-.85 1.03-.86 1.04-.85 1.03-.86 1.04-.85 1.04-.86 1.03-.85 1.04-.86 1.03-.85 1.04-.86 1.03-.85 1.04-.86 1.03-.85 1.04-.85 1.03-.86 1.04-.85 1.03-.86 1.04-.85 1.03-.86 1.04-.85 1.03-.86 1.04-.85 1.04-.86 1.03-.85 1.04-.86 1.03-.85 1.04-.86 1.03-.85 1.04-.85 1.03-.86 1.04-.85 1.03-.86 1.04-.85 1.03-.86 1.04-.85 1.03-.86 1.04-.85 1.03-.86 1.04-.85 1.03-.86 1.04-.85 1.04-.86 1.03-.85 1.04-.85 1.03-.86 1.04-.85 1.03-.86 1.04-.85 1.03-.86 1.04-.85 1.03-.86 1.04-.85 1.03-.86 1.04-.85 1.03-.86 1.04-.85 1.03-.85 1.04-.86" style="stroke-width:1.07;stroke:#000000;stroke-opacity:0.10;stroke-linecap:butt"/><path d="m247.86 147.48 1.92 3.31h-3.83zM42.88 316.7l1.91 3.32h-3.83z" style="stroke-width:0.71;stroke:none;fill:#00BFC4"/><circle cx="145.37" cy="234.3" r="6.76" style="stroke-width:0.71;stroke:none;fill:#F8766D"/><path d="m243 152.24 3.79-1.99M47.61 316.64l-3.63 1.74m106.84-88.71-4.57 3.88" style="stroke-width:0.53;stroke:#BFBFBF"/><path d="M174.78 158.64h66.06-.09l.35-.01.34-.07.32-.13.3-.17.27-.22.23-.26.19-.29.14-.32.08-.34.03-.35h0v-6.96h0l-.03-.35-.08-.33-.14-.32-.19-.3-.23-.26-.27-.22-.3-.17-.32-.12-.34-.07-.26-.02h-66.06l.26.02-.35-.02-.34.04-.34.1-.31.15-.29.2-.25.24-.21.28-.16.3-.11.33-.06.35v7.13-.17.35l.06.34.11.33.16.31.21.27.25.25.29.19.31.15.34.1.34.04z" style="stroke-width:0.53;fill:#FFFFFF;fill-opacity:0.50"/><text x="207.81" y="155.04" lengthAdjust="spacingAndGlyphs" style="font-size:5.69px;font-family:Arial" text-anchor="middle" textLength="63.18">THEODORE LIPSCOMB</text><path d="M49.77 321.76h71.43-.08l.34-.02.34-.07.33-.12.3-.17.27-.22.23-.26.19-.3.13-.32.08-.33.03-.35h0v-6.96h0l-.03-.35-.08-.34-.13-.32-.19-.29-.23-.26-.27-.22-.3-.18-.33-.12-.34-.07-.26-.01H49.77l.26.01-.35-.01-.34.04-.33.1-.32.15-.28.19-.26.24-.2.28-.17.31-.11.33-.05.34-.01.18v6.96l.01-.18v.35l.05.35.11.33.17.3.2.28.26.24.28.2.32.15.33.09.34.05z" style="stroke-width:0.53;fill:#FFFFFF;fill-opacity:0.50"/><text x="85.49" y="318.16" lengthAdjust="spacingAndGlyphs" style="font-size:5.69px;font-family:Arial" text-anchor="middle" textLength="68.55">THEODORE A LIPSCOMB</text><path d="M136.92 229.67h61.65l-.09-.01.35-.01.34-.07.32-.12.3-.18.27-.22.23-.26.19-.29.14-.32.08-.34.03-.34h0v-23.36h0l-.03-.34-.08-.34-.14-.32-.19-.29-.23-.26-.27-.22-.3-.18-.32-.12-.34-.07-.26-.02h-61.65l.26.02-.35-.01-.34.04-.33.09-.32.15-.28.2-.26.24-.2.28-.17.31-.11.33-.05.34-.01.17v23.36l.01-.18v.35l.05.34.11.33.17.31.2.28.26.24.28.2.32.14.33.1.34.04z" style="stroke-width:0.53;fill:#FFFFFF;fill-opacity:0.50"/><text x="167.74" y="209.68" lengthAdjust="spacingAndGlyphs" style="font-size:5.69px;font-family:Arial" text-anchor="middle" textLength="58.44">1104 W MONTCLAIRE</text><text x="167.74" y="217.87" lengthAdjust="spacingAndGlyphs" style="font-size:5.69px;font-family:Arial" text-anchor="middle" textLength="58.77">AVE, MILWAUKEE, WI</text><text x="167.74" y="226.07" lengthAdjust="spacingAndGlyphs" style="font-size:5.69px;font-family:Arial" text-anchor="middle" textLength="15.8">53217</text></g><g clip-path="url(#cpMC4wMHwyODguMDB8MC4wMHwzNjAuMDA=)"><circle cx="87.34" cy="116.15" r="1.95" style="stroke-width:0.71;stroke:none;fill:#F8766D"/><path d="m163.7 113.11 2.63 4.56h-5.26z" style="stroke-width:0.71;stroke:none;fill:#00BFC4"/><text x="101.46" y="119.3" lengthAdjust="spacingAndGlyphs" style="font-size:8.80px;font-family:Arial Narrow" textLength="48.12">mprop address</text><text x="177.82" y="119.3" lengthAdjust="spacingAndGlyphs" style="font-size:8.80px;font-family:Arial Narrow" textLength="39.69">owner name</text><text x="32.63" y="84.56" lengthAdjust="spacingAndGlyphs" style="font-size:12.00px;font-family:Arial Narrow" textLength="241.29">includes 2 parcels, 3 units, and 2 distinct owner names.</text><text x="32.63" y="42.78" lengthAdjust="spacingAndGlyphs" style="font-size:18.00px;font-weight:bold;font-family:Arial Narrow" textLength="193.26">THEODORE A LIPSCOMB --</text><text x="32.63" y="62.22" lengthAdjust="spacingAndGlyphs" style="font-size:18.00px;font-weight:bold;font-family:Arial Narrow" textLength="214.01">THEODORE LIPSCOMB Group</text></g></svg>