<svg xmlns="http://www.w3.org/2000/svg" width="576" height="672" class="svglite" viewBox="0 0 432 504"><defs><style><![CDATA[.svglite line,.svglite polyline,.svglite polygon,.svglite path,.svglite circle{fill:none;stroke:#000000;stroke-linecap:round;stroke-linejoin:round;stroke-miterlimit:10.00}]]></style></defs><rect width="100%" height="100%" style="stroke-linecap:round;stroke-linejoin:round;stroke-miterlimit:10.00;stroke:none;fill:#FFFFFF"/><defs><clipPath id="cpMC4wMHw0MzIuMDB8MC4wMHw1MDQuMDA="><path d="M0 0h432v504H0z"/></clipPath></defs><g clip-path="url(#cpMC4wMHw0MzIuMDB8MC4wMHw1MDQuMDA=)"><path d="M0 0h432v504H0z" style="stroke-width:1.07;stroke:none;fill:#FFFFFF"/></g><defs><clipPath id="cpMzIuNjN8NDAyLjExfDEyMS43OHw0NzEuMzc="><path d="M32.63 121.78h369.48v349.59H32.63z"/></clipPath></defs><g clip-path="url(#cpMzIuNjN8NDAyLjExfDEyMS43OHw0NzEuMzc=)"><path d="m385.32 349.06-1.51-1.06-1.52-1.05-1.52-1.03-1.52-1.03-1.53-1.02-1.53-1-1.53-1-1.54-.98-1.54-.98-1.55-.96-1.55-.95-1.55-.94-1.56-.93-1.56-.92-1.56-.91-1.57-.9-1.57-.88-1.58-.88-1.58-.86-1.58-.86-1.59-.84-1.59-.83-1.59-.83-1.6-.81-1.6-.8-1.61-.79-1.61-.78-1.61-.76-1.62-.76-1.62-.75-1.63-.73-1.62-.73-1.64-.71-1.63-.71-1.64-.69-1.65-.68-1.64-.67-1.65-.66-1.66-.65-1.66-.64-1.66-.62-1.67-.62-1.67-.61-1.67-.59-1.68-.59-1.68-.57-1.68-.56-1.69-.55-1.7-.54-1.69-.53-1.7-.52-1.71-.51-1.7-.5-1.72-.49-1.71-.47-1.72-.47-1.72-.45-1.73-.45-1.73-.43-1.73-.42-1.74-.41-1.74-.4-1.75-.39-1.75-.38-1.75-.37-1.76-.36-1.76-.34-1.76-.34-1.77-.32-1.77-.32-1.78-.3-1.78-.29-1.78-.29-1.79-.27-1.79-.26-1.79-.24-1.8-.24-1.8-.23-1.81-.22-1.81-.2-1.81-.2-1.82-.18-1.82-.18-1.83-.16-1.82-.15-1.84-.14-1.83-.13-1.84-.12-1.85-.11-1.84-.1-1.86-.08-1.85-.08-1.86-.07-1.86-.05-1.87-.04-1.87-.04-1.87-.02-1.88-.01h-1.88" style="stroke-width:1.07;stroke:#000000;stroke-opacity:0.10;stroke-linecap:butt"/><path d="m272.84 137.67-.84 1.52-.83 1.52-.83 1.52-.82 1.53-.82 1.52-.81 1.53-.81 1.53-.8 1.53-.79 1.53-.79 1.53-.79 1.54-.77 1.53-.78 1.54-.76 1.54-.76 1.55-.76 1.54-.74 1.55-.75 1.54-.74 1.55-.73 1.56-.72 1.55-.72 1.55-.72 1.56-.71 1.56-.7 1.56-.7 1.56-.69 1.57-.68 1.56-.68 1.57-.68 1.57-.67 1.57-.66 1.57-.66 1.58-.65 1.58-.65 1.57-.64 1.58-.63 1.59-.63 1.58-.62 1.58-.62 1.59-.61 1.59-.61 1.59-.6 1.59-.59 1.6-.59 1.59-.59 1.6-.57 1.6-.57 1.6-.57 1.61-.56 1.6-.56 1.61-.54 1.61-.55 1.61-.54 1.61-.53 1.61-.52 1.62-.52 1.62-.52 1.62-.51 1.62-.5 1.62-.5 1.63-.49 1.62-.49 1.63-.48 1.63-.47 1.63-.47 1.64-.46 1.63-.46 1.64-.45 1.64-.45 1.64-.44 1.64-.43 1.65-.43 1.64-.43 1.65-.41 1.65-.41 1.65-.41 1.65-.4 1.66-.4 1.66-.39 1.66-.38 1.66-.38 1.66-.37 1.66-.36 1.67-.36 1.67-.36 1.66-.35 1.68-.34 1.67-.34 1.67-.33 1.68-.33 1.68-.32 1.68-.31 1.68-.31 1.68-.3 1.69-.3 1.69-.29 1.69-.29 1.69-.28 1.69m167.95 52.48-1.7-.53-1.7-.53-1.69-.53-1.7-.53-1.69-.53-1.7-.53-1.7-.53-1.69-.53-1.7-.53-1.7-.53-1.69-.53-1.7-.53-1.7-.53-1.69-.53-1.7-.53-1.7-.53-1.69-.53-1.7-.53-1.7-.53-1.69-.53-1.7-.53-1.69-.53-1.7-.53-1.7-.53-1.69-.53-1.7-.53-1.7-.53-1.69-.53-1.7-.53-1.7-.53-1.69-.53-1.7-.53-1.7-.53-1.69-.53-1.7-.53-1.69-.53-1.7-.53-1.7-.53-1.69-.53-1.7-.53-1.7-.53-1.69-.53-1.7-.53-1.7-.53-1.69-.53-1.7-.53-1.7-.53-1.69-.53-1.7-.53-1.69-.53-1.7-.53-1.7-.53-1.69-.53-1.7-.53-1.7-.53-1.69-.54-1.7-.53-1.7-.53-1.69-.53-1.7-.53-1.7-.53-1.69-.53-1.7-.53-1.69-.53-1.7-.53-1.7-.53-1.69-.53-1.7-.53-1.7-.53-1.69-.53-1.7-.53-1.7-.53-1.69-.53-1.7-.53-1.7-.53-1.69-.53-1.7-.53-1.69-.53-1.7-.53-1.7-.53-1.69-.53-1.7-.53-1.7-.53-1.69-.53-1.7-.53-1.7-.53-1.69-.53-1.7-.53-1.7-.53-1.69-.53-1.7-.53-1.7-.53-1.69-.53-1.7-.53-1.69-.53-1.7-.53-1.7-.53-1.69-.53-1.7-.53" style="stroke-width:1.07;stroke:#000000;stroke-opacity:0.10;stroke-linecap:butt"/><path d="m272.84 137.67-.28 1.7-.28 1.69-.3 1.69-.29 1.68-.31 1.69-.31 1.68-.31 1.69-.32 1.68-.33 1.67-.33 1.68-.34 1.67-.34 1.68-.35 1.67-.35 1.67-.36 1.67-.37 1.66-.37 1.67-.38 1.66-.38 1.66-.39 1.66-.4 1.65-.4 1.66-.4 1.65-.42 1.65-.41 1.65-.43 1.65-.42 1.65-.44 1.64-.44 1.64-.45 1.64-.45 1.64-.46 1.64-.46 1.64-.47 1.63-.47 1.63-.48 1.63-.49 1.63-.49 1.63-.5 1.62-.5 1.62-.51 1.63-.51 1.62-.52 1.61-.53 1.62-.53 1.61-.54 1.61-.54 1.62-.55 1.6-.56 1.61-.56 1.61-.56 1.6-.57 1.6-.58 1.6-.59 1.6-.58 1.59-.6 1.6-.6 1.59-.61 1.59-.61 1.59-.61 1.59-.63 1.58-.63 1.59-.63 1.58-.64 1.58-.65 1.58-.65 1.57-.66 1.58-.66 1.57-.67 1.57-.67 1.57-.68 1.57-.69 1.57-.69 1.56-.7 1.56-.7 1.56-.71 1.56-.71 1.56-.73 1.55-.72 1.56-.73 1.55-.74 1.55-.74 1.55-.75 1.54-.76 1.55-.76 1.54-.76 1.54-.77 1.54-.78 1.54-.79 1.53-.78 1.54-.8 1.53-.8 1.53-.8 1.53-.82 1.52-.81 1.53-.83 1.52-.83 1.52-.83 1.52-.84 1.52" style="stroke-width:1.07;stroke:#000000;stroke-opacity:0.10;stroke-linecap:butt"/><path d="m49.42 244.09 1.61.8 1.6.79 1.61.78 1.61.78 1.61.77 1.61.77 1.62.76 1.62.76 1.62.75 1.62.75 1.62.74 1.62.74 1.63.73 1.63.72 1.63.72 1.63.71 1.64.71 1.63.71 1.64.69 1.64.7 1.64.68 1.65.68 1.64.68 1.65.67 1.65.67 1.65.66 1.65.65 1.66.65 1.65.64 1.66.64 1.66.63 1.67.63 1.66.62 1.67.62 1.66.61 1.67.61 1.68.6 1.67.59 1.68.59 1.67.59 1.68.58 1.68.57 1.69.57 1.68.56 1.69.56 1.69.55 1.69.54 1.69.55 1.7.53 1.69.53 1.7.53 1.7.52 1.7.51 1.71.51 1.7.5 1.71.5 1.71.49 1.71.49 1.72.48 1.71.48 1.72.47 1.72.46 1.72.46 1.72.46 1.73.44 1.72.45 1.73.44 1.73.43 1.73.43 1.74.42 1.73.42 1.74.41 1.74.4 1.74.4 1.75.4 1.74.39 1.75.38 1.75.38 1.75.37 1.75.37 1.76.37 1.76.35 1.75.35 1.76.35 1.77.34 1.76.34 1.77.33 1.77.32 1.77.32 1.77.32 1.77.3 1.78.31 1.77.3 1.78.29 1.79.28 1.78.29 1.78.27 1.79.27 1.79.27" style="stroke-width:1.07;stroke:#000000;stroke-opacity:0.10;stroke-linecap:butt"/><path d="m161.9 455.48.56-1.6.56-1.61.56-1.6.56-1.61.56-1.6.56-1.61.56-1.6.56-1.61.56-1.6.56-1.61.56-1.6.56-1.61.56-1.6.56-1.61.56-1.6.56-1.61.56-1.6.56-1.61.56-1.6.56-1.61.56-1.6.56-1.61.57-1.61.56-1.6.56-1.61.56-1.6.56-1.61.56-1.6.56-1.61.56-1.6.56-1.61.56-1.6.56-1.61.56-1.6.56-1.61.56-1.6.56-1.61.56-1.6.56-1.61.56-1.6.56-1.61.56-1.6.56-1.61.56-1.6.56-1.61.56-1.6.56-1.61.56-1.6.56-1.61.56-1.6.56-1.61.56-1.6.56-1.61.57-1.6.56-1.61.56-1.6.56-1.61.56-1.6.56-1.61.56-1.6.56-1.61.56-1.6.56-1.61.56-1.6.56-1.61.56-1.6.56-1.61.56-1.6.56-1.61.56-1.6.56-1.61.56-1.6.56-1.61.56-1.6.56-1.61.56-1.6.56-1.61.56-1.6.56-1.61.56-1.6.56-1.61.56-1.61.56-1.6.56-1.61.57-1.6.56-1.61.56-1.6.56-1.61.56-1.6.56-1.61.56-1.6.56-1.61.56-1.6.56-1.61.56-1.6.56-1.61.56-1.6.56-1.61.56-1.6m167.95 52.48h-1.88l-1.88-.01-1.88-.02-1.87-.03-1.86-.05-1.86-.05-1.86-.07-1.86-.07-1.85-.09-1.85-.1-1.84-.11-1.84-.12-1.84-.13-1.83-.14-1.83-.15-1.82-.16-1.82-.18-1.82-.18-1.81-.19-1.81-.21-1.81-.22-1.8-.22-1.8-.24-1.79-.25-1.79-.26-1.79-.27-1.78-.28-1.78-.3-1.78-.3-1.77-.31-1.77-.33-1.76-.33-1.76-.35-1.76-.36-1.75-.37-1.75-.38-1.75-.38-1.74-.41-1.74-.41-1.73-.42-1.73-.43-1.73-.44-1.72-.46-1.72-.46-1.72-.48-1.71-.49-1.71-.5-1.7-.5-1.7-.52-1.7-.53-1.69-.54-1.69-.56-1.68-.56-1.68-.57-1.68-.59-1.68-.59-1.67-.61-1.66-.61-1.66-.63-1.66-.64-1.66-.65-1.65-.66-1.65-.67-1.64-.68-1.64-.69-1.64-.71-1.63-.71-1.63-.72-1.62-.74-1.62-.75-1.62-.75-1.61-.77-1.61-.78-1.61-.79-1.6-.8-1.6-.81-1.59-.82-1.6-.84-1.58-.84-1.59-.85-1.57-.87-1.58-.88-1.57-.88-1.57-.9-1.57-.91-1.56-.92-1.55-.93-1.56-.94-1.54-.95-1.55-.96-1.54-.98-1.54-.98-1.53-1-1.53-1-1.53-1.02-1.52-1.02-1.52-1.04-1.52-1.05-1.51-1.06" style="stroke-width:1.07;stroke:#000000;stroke-opacity:0.10;stroke-linecap:butt"/><path d="m49.42 244.09 1.79.27 1.79.27 1.78.28 1.79.28 1.78.28 1.78.3 1.77.29 1.78.31 1.77.31 1.78.31 1.77.32 1.76.32 1.77.33 1.77.34 1.76.34 1.76.35 1.76.35 1.75.36 1.76.36 1.75.37 1.75.37 1.75.38 1.75.38 1.74.39 1.75.4 1.74.4 1.74.4 1.74.42 1.73.41 1.74.42 1.73.43 1.73.43 1.73.44 1.73.45 1.72.45 1.72.45 1.72.46 1.72.47 1.72.47 1.72.47 1.71.48 1.71.49 1.71.49 1.71.5 1.7.5 1.71.51 1.7.52 1.7.52 1.7.52 1.7.53 1.69.54 1.69.54 1.69.54 1.69.56 1.69.55 1.68.56 1.69.57 1.68.58 1.68.58 1.68.58 1.67.59 1.68.59 1.67.6 1.67.61 1.67.61 1.66.62 1.67.62 1.66.63 1.66.63 1.66.64 1.65.64 1.66.65 1.65.66 1.65.66 1.65.66 1.65.67 1.65.68 1.64.68 1.64.69 1.64.69 1.64.7 1.64.7 1.63.71 1.63.71 1.63.72 1.63.73 1.63.73 1.62.73 1.63.74 1.62.75 1.62.75 1.61.76 1.62.76 1.61.77 1.61.77 1.61.78 1.61.78 1.61.79 1.6.8" style="stroke-width:1.07;stroke:#000000;stroke-opacity:0.10;stroke-linecap:butt"/><path d="m385.32 342.42 5.75 9.97h-11.51zM272.84 132.33l4.63 8.02h-9.26zM49.42 238.75l4.63 8.02h-9.26zM161.9 453.27l1.91 3.32h-3.83z" style="stroke-width:0.71;stroke:none;fill:#00BFC4"/><circle cx="217.37" cy="296.58" r="6.76" style="stroke-width:0.71;stroke:none;fill:#F8766D"/><path d="m268.36 142.33 3.7-3.84M166.39 450.82l-3.71 3.85m59.39-162.77-3.9 3.88" style="stroke-width:0.53;stroke:#BFBFBF"/><path d="M325.11 354.65h53.43-.09l.35-.02.34-.07.32-.12.3-.17.27-.22.23-.26.19-.3.13-.32.09-.34.03-.34h0v-6.96h0l-.03-.35-.09-.34-.13-.32-.19-.29-.23-.26-.27-.22-.3-.18-.32-.12-.34-.07-.26-.01h-53.43l.26.01-.35-.01-.34.04-.33.1-.32.15-.28.19-.25.24-.21.28-.17.31-.11.33-.05.34-.01.18v6.96l.01-.18v.35l.05.35.11.33.17.3.21.28.25.24.28.2.32.15.33.09.34.05z" style="stroke-width:0.53;fill:#FFFFFF;fill-opacity:0.50"/><text x="351.82" y="351.05" lengthAdjust="spacingAndGlyphs" style="font-size:5.69px;font-family:Arial" text-anchor="middle" textLength="50.54">TIMOTHY LARSON</text><path d="M238.85 153.61h46.16-.09l.35-.02.34-.07.33-.12.3-.17.27-.22.23-.26.18-.3.14-.32.08-.34.03-.34h0v-6.96h0l-.03-.35-.08-.34-.14-.32-.18-.29-.23-.26-.27-.22-.3-.18-.33-.12-.34-.07-.26-.01h-46.16l.26.01-.35-.01-.34.04-.33.1-.32.15-.28.19-.25.24-.21.28-.17.31-.11.33-.05.34-.01.18v6.96l.01-.18v.35l.05.35.11.32.17.31.21.28.25.24.28.2.32.15.33.09.34.05z" style="stroke-width:0.53;fill:#FFFFFF;fill-opacity:0.50"/><text x="261.93" y="150.01" lengthAdjust="spacingAndGlyphs" style="font-size:5.69px;font-family:Arial" text-anchor="middle" textLength="43.28">DAWN SCHLIPP</text><path d="M56.19 249.73h59.1l-.09-.01.35-.01.34-.07.33-.12.3-.18.27-.22.23-.26.18-.29.14-.32.08-.34.03-.34h0v-6.97h0l-.03-.34-.08-.34-.14-.32-.18-.29-.23-.26-.27-.22-.3-.18-.33-.12-.34-.07-.26-.02h-59.1l.26.02-.35-.01-.35.04-.33.09-.31.15-.29.2-.25.24-.21.28-.16.31-.11.33-.06.34v7.14-.18.35l.06.34.11.33.16.31.21.28.25.24.29.2.31.15.33.09.35.04z" style="stroke-width:0.53;fill:#FFFFFF;fill-opacity:0.50"/><text x="85.74" y="246.13" lengthAdjust="spacingAndGlyphs" style="font-size:5.69px;font-family:Arial" text-anchor="middle" textLength="56.22">TIMOTHY R LARSON</text><path d="M147.01 450.82h51.53-.08l.34-.02.34-.06.33-.13.3-.17.27-.22.23-.26.19-.3.13-.32.09-.33.02-.35h0v-6.96h0l-.02-.35-.09-.34-.13-.32-.19-.29-.23-.26-.27-.22-.3-.17-.33-.13-.34-.07-.26-.01h-51.53l.26.01-.34-.01-.35.04-.33.1-.32.15-.28.19-.25.25-.21.27-.16.31-.11.33-.06.34-.01.18v6.96l.01-.17v.34l.06.35.11.33.16.3.21.28.25.24.28.2.32.15.33.1.35.04z" style="stroke-width:0.53;fill:#FFFFFF;fill-opacity:0.50"/><text x="172.78" y="447.22" lengthAdjust="spacingAndGlyphs" style="font-size:5.69px;font-family:Arial" text-anchor="middle" textLength="48.65">DAWN A SCHLIPP</text><path d="M200.34 291.9h64.49-.09l.35-.01.34-.07.32-.13.3-.17.27-.22.23-.26.19-.29.13-.32.09-.34.03-.35h0v-15.16h0l-.03-.34-.09-.34-.13-.32-.19-.29-.23-.26-.27-.22-.3-.18-.32-.12-.34-.07-.26-.02h-64.49l.26.02-.35-.01-.35.04-.33.09-.31.15-.29.2-.25.24-.21.28-.16.31-.11.33-.06.34v15.33-.17.35l.06.34.11.33.16.31.21.27.25.24.29.2.31.15.33.1.35.04z" style="stroke-width:0.53;fill:#FFFFFF;fill-opacity:0.50"/><text x="232.58" y="280.11" lengthAdjust="spacingAndGlyphs" style="font-size:5.69px;font-family:Arial" text-anchor="middle" textLength="49.93">2723 W STATE ST,</text><text x="232.58" y="288.3" lengthAdjust="spacingAndGlyphs" style="font-size:5.69px;font-family:Arial" text-anchor="middle" textLength="61.61">MILWAUKEE, WI 53208</text></g><g clip-path="url(#cpMC4wMHw0MzIuMDB8MC4wMHw1MDQuMDA=)"><circle cx="159.34" cy="96.71" r="1.95" style="stroke-width:0.71;stroke:none;fill:#F8766D"/><path d="m235.7 93.67 2.63 4.56h-5.26z" style="stroke-width:0.71;stroke:none;fill:#00BFC4"/><text x="173.46" y="99.86" lengthAdjust="spacingAndGlyphs" style="font-size:8.80px;font-family:Arial Narrow" textLength="48.12">mprop address</text><text x="249.82" y="99.86" lengthAdjust="spacingAndGlyphs" style="font-size:8.80px;font-family:Arial Narrow" textLength="39.69">owner name</text><text x="32.63" y="65.12" lengthAdjust="spacingAndGlyphs" style="font-size:12.00px;font-family:Arial Narrow" textLength="246.76">includes 8 parcels, 17 units, and 4 distinct owner names.</text><text x="32.63" y="42.78" lengthAdjust="spacingAndGlyphs" style="font-size:18.00px;font-weight:bold;font-family:Arial Narrow" textLength="206.37">TIMOTHY LARSON etc Group</text></g></svg>