<svg xmlns="http://www.w3.org/2000/svg" width="576" height="672" viewBox="0 0 432 504"><g class="svglite"><defs><style><![CDATA[.svglite line,.svglite polyline,.svglite polygon,.svglite path,.svglite circle{fill:none;stroke:#000000;stroke-linecap:round;stroke-linejoin:round;stroke-miterlimit:10.00}.svglite text{white-space:pre}.svglite g.glyphgroup path{fill:inherit;stroke:none}]]></style></defs><rect width="100%" height="100%" style="stroke-linecap:round;stroke-linejoin:round;stroke-miterlimit:10.00;stroke:none;fill:#FFFFFF"/><defs><clipPath id="cpMC4wMHw0MzIuMDB8MC4wMHw1MDQuMDA="><path d="M0 0h432v504H0z"/></clipPath></defs><g clip-path="url(#cpMC4wMHw0MzIuMDB8MC4wMHw1MDQuMDA=)"><path d="M0 0h432v504H0z" style="stroke-width:1.07;stroke:none;fill:#FFFFFF"/></g><defs><clipPath id="cpMjkuODl8NDAyLjExfDE0MS41OHw0NzQuMTE="><path d="M29.89 141.58h372.22v332.53H29.89z"/></clipPath></defs><g clip-path="url(#cpMjkuODl8NDAyLjExfDE0MS41OHw0NzQuMTE=)"><path d="m385.19 383.94-.84.76-.85.75-.85.76-.84.76-.85.76-.85.76-.84.75-.85.76-.85.76-.85.76-.84.76-.85.76-.85.75-.84.76-.85.76-.85.76-.84.76-.85.75-.85.76-.84.76-.85.76-.85.76-.84.76-.85.75-.85.76-.84.76-.85.76-.85.76-.84.75-.85.76-.85.76-.84.76-.85.76-.85.76-.84.75-.85.76-.85.76-.85.76-.84.76-.85.75-.85.76-.84.76-.85.76-.85.76-.84.76-.85.75-.85.76-.84.76-.85.76-.85.76-.84.75-.85.76-.85.76-.84.76-.85.76-.85.76-.84.75-.85.76-.85.76-.84.76-.85.76-.85.75-.84.76-.85.76-.85.76-.85.76-.84.76-.85.75-.85.76-.84.76-.85.76-.85.76-.84.75-.85.76-.85.76-.84.76-.85.76-.85.76-.84.75-.85.76-.85.76-.84.76-.85.76-.85.75-.84.76-.85.76-.85.76-.84.76-.85.76-.85.75-.84.76-.85.76-.85.76-.84.76-.85.75-.85.76-.85.76-.84.76-.85.76m83.83-75.06-1.22-.56-1.22-.56-1.22-.56-1.22-.56-1.22-.56-1.22-.56-1.22-.56-1.22-.56-1.22-.56-1.22-.55-1.22-.56-1.22-.56-1.22-.56-1.22-.56-1.22-.56-1.22-.56-1.22-.56-1.21-.56-1.22-.56-1.22-.56-1.22-.56-1.22-.55-1.22-.56-1.22-.56-1.22-.56-1.22-.56-1.22-.56-1.22-.56-1.22-.56-1.22-.56-1.22-.56-1.22-.56-1.22-.55-1.22-.56-1.22-.56-1.22-.56-1.22-.56-1.22-.56-1.22-.56-1.22-.56-1.22-.56-1.22-.56-1.22-.56-1.22-.56-1.22-.55-1.22-.56-1.22-.56-1.22-.56-1.22-.56-1.22-.56-1.22-.56-1.22-.56-1.22-.56-1.22-.56-1.22-.56-1.22-.56-1.22-.55-1.22-.56-1.22-.56-1.22-.56-1.22-.56-1.22-.56-1.22-.56-1.22-.56-1.22-.56-1.22-.56-1.22-.56-1.22-.55-1.22-.56-1.22-.56-1.22-.56-1.22-.56-1.22-.56-1.22-.56-1.22-.56-1.22-.56-1.22-.56-1.22-.56-1.22-.56-1.22-.55-1.22-.56-1.22-.56-1.22-.56-1.22-.56-1.22-.56-1.22-.56-1.22-.56-1.22-.56-1.22-.56-1.22-.56-1.22-.56-1.22-.55-1.22-.56-1.22-.56-1.22-.56-1.22-.56-1.22-.56-1.22-.56-1.21-.56m-84.63 75.67-1.34.32-1.34.32-1.35.32-1.34.32-1.34.32-1.35.32-1.34.32-1.34.32-1.35.32-1.34.32-1.34.32-1.35.32-1.34.32-1.34.32-1.35.32-1.34.31-1.34.32-1.35.32-1.34.32-1.34.32-1.35.32-1.34.32-1.34.32-1.35.32-1.34.32-1.34.32-1.35.32-1.34.32-1.34.32-1.35.32-1.34.32-1.34.32-1.35.32-1.34.32-1.34.32-1.35.32-1.34.32-1.34.32-1.35.32-1.34.32-1.35.32-1.34.32-1.34.32-1.35.32-1.34.32-1.34.32-1.35.32-1.34.32-1.34.32-1.35.32-1.34.32-1.34.32-1.35.32-1.34.32-1.34.32-1.35.32-1.34.32-1.34.32-1.35.32-1.34.31-1.34.32-1.35.32-1.34.32-1.34.32-1.35.32-1.34.32-1.34.32-1.35.32-1.34.32-1.34.32-1.35.32-1.34.32-1.34.32-1.35.32-1.34.32-1.34.32-1.35.32-1.34.32-1.34.32-1.35.32-1.34.32-1.34.32-1.35.32-1.34.32-1.35.32-1.34.32-1.34.32-1.35.32-1.34.32-1.34.32-1.35.32-1.34.32-1.34.32-1.35.32-1.34.32-1.34.32-1.35.32-1.34.32-1.34.32" style="stroke-width:1.07;stroke:#000000;stroke-opacity:0.10;stroke-linecap:butt"/><path d="m179.8 404.25 1.3-.58 1.28-.58 1.27-.59 1.27-.58 1.26-.6 1.24-.59 1.24-.6 1.23-.61 1.22-.61 1.21-.61 1.21-.61 1.19-.62 1.18-.63 1.18-.62 1.17-.63 1.16-.64 1.14-.64 1.15-.64 1.13-.65 1.12-.65 1.11-.65 1.11-.66 1.09-.66 1.09-.66 1.08-.67 1.07-.68 1.06-.67 1.05-.68 1.04-.69 1.03-.69 1.03-.69 1.01-.69 1.01-.7 1-.71.98-.7.98-.71.98-.72.96-.72.95-.72.94-.73.94-.73.93-.73.91-.74.91-.74.9-.74.89-.75.88-.76.87-.75.87-.76.85-.77.85-.77.84-.77.82-.77.82-.78.81-.79.8-.78.8-.8.78-.79.77-.8.77-.8.76-.81.74-.81.74-.81.73-.82.72-.82.72-.83.7-.82.69-.84.69-.83.67-.84.67-.85.66-.85.65-.85.64-.86.63-.85.62-.87.62-.87.6-.87.6-.87.59-.88.57-.88.57-.89.56-.89.56-.89.54-.9.53-.9.53-.91.51-.91.51-.91.5-.92.49-.92.48-.92.47-.93.46-.93.45-.94.45-.94.43-.94.43-.95.42-.95m-84.63 75.67.98.77.98.76.98.76.99.75 1 .75 1 .75 1.01.74 1.01.74 1.01.73 1.02.73 1.03.72 1.03.72 1.04.72 1.04.71 1.05.7 1.05.71 1.06.69 1.06.7 1.07.68 1.07.69 1.08.68 1.08.67 1.09.68 1.09.66 1.1.67 1.11.65 1.11.66 1.11.65 1.12.64 1.12.64 1.13.64 1.14.63 1.14.63 1.14.62 1.15.62 1.16.61 1.16.61 1.17.61 1.17.6 1.17.6 1.18.59 1.19.59 1.19.58 1.2.58 1.2.58 1.21.57 1.21.56 1.22.56 1.22.56 1.23.55 1.23.55 1.24.55 1.24.54 1.25.53 1.26.53 1.26.53 1.26.52 1.27.52 1.27.51 1.28.51 1.29.51 1.29.5 1.29.5 1.3.49 1.31.48 1.31.49 1.31.48 1.32.47 1.33.47 1.33.47 1.34.46 1.34.45 1.35.46 1.35.44 1.35.45 1.37.44 1.36.43 1.38.43 1.37.43 1.39.42 1.38.42 1.4.41 1.4.41 1.4.4 1.41.4 1.41.4 1.42.39 1.42.38 1.43.39 1.44.37 1.44.38 1.44.37 1.45.36 1.46.36 1.46.36 1.46.35 1.47.35 1.48.34 1.48.34" style="stroke-width:1.07;stroke:#000000;stroke-opacity:0.10;stroke-linecap:butt"/><path d="m179.8 404.25 1.12-.65 1.11-.66 1.11-.66 1.1-.65 1.1-.67 1.09-.66 1.08-.67 1.08-.66 1.08-.67 1.06-.68 1.07-.67 1.06-.68 1.05-.68 1.05-.68 1.04-.69 1.04-.68 1.03-.69 1.02-.69 1.02-.7 1.02-.69 1.01-.7 1-.7 1-.7 1-.71.99-.7.98-.71.98-.72.97-.71.97-.72.96-.71.95-.72.96-.73.94-.72.94-.73.94-.73.93-.73.92-.74.92-.73.91-.74.91-.75.91-.74.89-.75.89-.74.89-.75.88-.76.88-.75.87-.76.87-.76.86-.76.85-.77.85-.76.84-.77.84-.77.84-.78.82-.77.83-.78.81-.78.82-.78.8-.79.8-.78.8-.79.79-.8.79-.79.78-.8.77-.79.77-.81.76-.8.76-.8.75-.81.75-.81.74-.81.74-.82.73-.82.73-.82.72-.82.72-.82.71-.83.7-.83.7-.83.69-.83.69-.83.69-.84.67-.84.68-.84.66-.85.67-.84.65-.85.65-.85.65-.86.64-.85.64-.86.63-.86.62-.86.62-.87.61-.87.61-.87.6-.87.6-.87.6-.88m-84.63 75.67 1.11.66 1.1.66 1.11.65 1.11.66 1.11.65 1.11.65 1.12.64 1.12.65 1.12.64 1.12.64 1.13.64 1.13.64 1.13.63 1.14.63 1.14.63 1.14.63 1.14.63 1.14.62 1.15.62 1.15.62 1.15.62 1.16.61 1.16.61 1.16.61 1.16.61 1.17.61 1.17.6 1.17.6 1.17.6 1.18.6 1.18.59 1.18.59 1.18.59 1.19.59 1.19.59 1.19.58 1.19.58 1.2.58 1.2.58 1.2.57 1.21.58 1.2.57 1.21.56 1.21.57 1.22.56 1.22.57 1.22.56 1.22.55 1.23.56 1.22.55 1.23.55 1.24.55 1.23.55 1.24.54 1.24.54 1.24.54 1.25.54 1.25.54 1.25.53 1.25.53 1.26.53 1.26.53 1.26.52 1.26.52 1.27.52 1.27.52 1.27.52 1.28.51 1.27.51 1.28.51 1.28.51 1.29.5 1.29.51 1.29.5 1.29.5 1.29.49 1.3.5 1.3.49 1.3.49 1.31.48 1.31.49 1.31.48 1.31.48 1.32.48 1.31.48 1.33.47 1.32.47 1.32.47 1.33.47 1.33.47 1.34.46 1.33.46 1.34.46 1.34.46 1.35.45 1.35.45 1.34.45 1.36.45 1.35.45" style="stroke-width:1.07;stroke:#000000;stroke-opacity:0.10;stroke-linecap:butt"/><path d="m179.8 404.25.95-.73.94-.73.94-.72.93-.73.94-.73.93-.73.93-.74.93-.73.93-.73.93-.74.92-.73.92-.74.92-.73.92-.74.92-.74.92-.73.91-.74.91-.74.91-.74.91-.75.91-.74.9-.74.9-.74.9-.75.9-.74.9-.75.9-.75.89-.74.89-.75.89-.75.89-.75.89-.75.88-.75.89-.76.88-.75.88-.75.88-.76.87-.75.88-.76.87-.75.87-.76.87-.76.87-.76.86-.76.87-.76.86-.76.86-.76.86-.77.85-.76.86-.76.85-.77.85-.76.85-.77.85-.77.85-.77.84-.77.84-.76.84-.78.84-.77.84-.77.83-.77.84-.77.83-.78.83-.77.83-.78.82-.78.83-.77.82-.78.82-.78.82-.78.82-.78.81-.78.82-.78.81-.79.81-.78.81-.78.8-.79.81-.78.8-.79.8-.79.8-.79.8-.78.79-.79.8-.79.79-.79.79-.8.79-.79.79-.79.78-.8.79-.79.78-.8.78-.79.77-.8.78-.8.78-.8.77-.8.77-.8.77-.8.77-.8m-84.63 75.67 1.23.55 1.23.55 1.23.56 1.23.55 1.22.55 1.23.56 1.23.55 1.23.55 1.23.56 1.22.55 1.23.55 1.23.55 1.23.56 1.22.55 1.23.55 1.23.56 1.23.55 1.23.55 1.22.56 1.23.55 1.23.55 1.23.55 1.22.56 1.23.55 1.23.55 1.23.56 1.23.55 1.22.55 1.23.56 1.23.55 1.23.55 1.23.56 1.22.55 1.23.55 1.23.55 1.23.56 1.22.55 1.23.55 1.23.56 1.23.55 1.23.55 1.22.56 1.23.55 1.23.55 1.23.55 1.23.56 1.22.55 1.23.55 1.23.56 1.23.55 1.22.55 1.23.56 1.23.55 1.23.55 1.23.55 1.22.56 1.23.55 1.23.55 1.23.56 1.23.55 1.22.55 1.23.56 1.23.55 1.23.55 1.22.55 1.23.56 1.23.55 1.23.55 1.23.56 1.22.55 1.23.55 1.23.56 1.23.55 1.23.55 1.22.55 1.23.56 1.23.55 1.23.55 1.22.56 1.23.55 1.23.55 1.23.56 1.23.55 1.22.55 1.23.55 1.23.56 1.23.55 1.22.55 1.23.56 1.23.55 1.23.55 1.23.56 1.22.55 1.23.55 1.23.55 1.23.56 1.23.55 1.22.55 1.23.56" style="stroke-width:1.07;stroke:#000000;stroke-opacity:0.10;stroke-linecap:butt"/><path d="m179.8 404.25.77-.8.77-.8.77-.8.77-.8.78-.8.78-.8.77-.8.78-.79.78-.8.79-.79.78-.8.79-.79.79-.79.79-.8.79-.79.8-.79.79-.79.8-.78.8-.79.8-.79.8-.79.81-.78.8-.79.81-.78.81-.78.81-.79.82-.78.81-.78.82-.78.82-.78.82-.78.82-.78.83-.77.82-.78.83-.78.83-.77.83-.78.84-.77.83-.77.84-.77.84-.77.84-.78.84-.76.84-.77.85-.77.85-.77.85-.77.85-.76.85-.77.86-.76.85-.76.86-.77.86-.76.86-.76.87-.76.86-.76.87-.76.87-.76.87-.76.87-.75.88-.76.87-.75.88-.76.88-.75.88-.75.88-.76.89-.75.89-.75.89-.75.89-.75.89-.75.89-.74.9-.75.9-.75.89-.74.91-.75.9-.74.9-.74.91-.74.91-.75.91-.74.91-.74.91-.74.92-.73.92-.74.92-.74.92-.73.92-.74.92-.73.93-.74.93-.73.93-.73.93-.74.93-.73.94-.73.93-.73.94-.72.94-.73.95-.73m-84.63 75.67 1.36.44 1.35.45 1.35.45 1.35.45 1.34.46 1.34.46 1.34.45 1.34.47 1.33.46 1.33.46 1.33.47 1.33.47 1.32.47 1.32.48 1.32.47 1.31.48 1.32.48 1.31.49 1.31.48 1.3.49 1.3.49 1.3.49 1.3.49 1.3.5 1.29.5 1.29.5 1.29.5 1.28.51 1.28.5 1.28.51 1.28.51 1.27.52 1.28.51 1.26.52 1.27.52 1.27.52 1.26.53 1.26.52 1.25.53 1.26.54 1.25.53 1.25.53 1.24.54 1.24.54 1.25.54 1.23.55 1.24.54 1.23.55 1.23.55 1.23.56 1.23.55 1.22.56 1.22.56 1.22.56 1.21.56 1.21.57 1.21.57 1.21.57 1.2.57 1.21.58 1.2.57 1.19.58 1.2.59 1.19.58 1.19.58 1.18.59 1.19.59 1.18.6 1.18.59 1.17.6 1.18.6 1.17.6 1.17.6 1.16.61 1.17.6 1.16.61 1.16.62 1.15.61 1.15.62 1.15.62 1.15.62 1.15.62 1.14.62 1.14.63 1.14.63 1.13.63 1.14.64 1.12.63 1.13.64 1.13.64 1.12.65 1.12.64 1.11.65 1.12.65 1.11.65 1.11.65 1.11.66 1.1.66 1.1.66" style="stroke-width:1.07;stroke:#000000;stroke-opacity:0.10;stroke-linecap:butt"/><path d="m179.8 404.25.6-.88.59-.87.61-.87.61-.87.61-.87.62-.87.62-.86.63-.86.64-.86.64-.85.65-.86.65-.85.65-.85.67-.84.66-.85.68-.84.67-.84.69-.84.69-.83.69-.83.7-.83.7-.83.71-.83.72-.82.72-.82.73-.82.73-.82.74-.82.74-.81.75-.81.75-.81.76-.8.76-.8.77-.8.77-.8.78-.8.79-.79.79-.8.8-.79.8-.78.8-.79.82-.78.81-.78.83-.78.82-.77.84-.78.84-.77.84-.77.85-.76.85-.77.86-.76.87-.76.87-.76.88-.75.88-.76.88-.75.9-.74.89-.75.91-.74.91-.75.91-.73.92-.74.92-.74.93-.73.94-.73.94-.73.94-.72.95-.73.96-.72.96-.71.97-.72.97-.71.98-.72.98-.71.99-.7 1-.71 1-.7 1-.7 1.01-.7 1.02-.69 1.02-.7 1.02-.69 1.03-.69 1.04-.68 1.04-.69 1.05-.68 1.05-.68 1.06-.68 1.07-.67 1.06-.68 1.08-.67 1.08-.66 1.08-.67 1.09-.66 1.1-.67 1.1-.65 1.11-.66 1.11-.66 1.12-.65m-84.63 75.67 1.49.34 1.47.34 1.47.35 1.47.35 1.46.35 1.45.36 1.45.37 1.45.37 1.44.37 1.43.38 1.43.38 1.42.39 1.42.39 1.42.39 1.41.4 1.4.41 1.4.41 1.39.41 1.39.42 1.38.42 1.38.42 1.37.44 1.37.43 1.36.44 1.36.44 1.35.45 1.35.45 1.34.46 1.33.46 1.34.47 1.32.47 1.32.47 1.32.48 1.31.48 1.3.49 1.3.49 1.3.5 1.29.5 1.28.5 1.28.51 1.28.51 1.27.52 1.26.52 1.26.53 1.25.53 1.25.54 1.24.54 1.24.54 1.24.55 1.22.55 1.23.56 1.21.56 1.22.57 1.2.57 1.21.57 1.19.58 1.19.59 1.19.59 1.18.59 1.18.59 1.17.61 1.17.6 1.16.61 1.15.62 1.15.61 1.15.63 1.14.63 1.13.63 1.13.63 1.13.64 1.12.65 1.11.65 1.11.65 1.1.66 1.1.66 1.09.67 1.09.67 1.09.68 1.07.68 1.08.68 1.07.69 1.06.69 1.06.7 1.05.7 1.04.71 1.05.71 1.03.71 1.03.72 1.03.73 1.02.73 1.02.73 1.01.74 1.01.74 1 .74.99.75.99.76.99.76.98.76.97.77" style="stroke-width:1.07;stroke:#000000;stroke-opacity:0.10;stroke-linecap:butt"/><path d="m179.8 404.25.42-.95.43-.95.43-.94.45-.94.45-.94.46-.93.47-.93.48-.92.49-.92.5-.92.51-.91.51-.91.53-.91.53-.9.54-.9.56-.89.56-.89.57-.89.57-.88.59-.88.6-.87.6-.87.62-.87.62-.87.63-.85.64-.86.65-.85.66-.85.67-.84.67-.85.69-.83.69-.84.7-.82.72-.83.72-.82.73-.82.74-.81.74-.81.76-.81.77-.8.77-.8.78-.79.8-.8.8-.78.81-.79.82-.78.82-.77.84-.77.85-.77.85-.77.87-.76.87-.75.88-.76.89-.75.9-.74.91-.74.91-.74.93-.73.94-.73.94-.73.95-.72.96-.72.98-.72.97-.71.99-.7 1-.71 1.01-.7 1.01-.69 1.03-.69 1.03-.69 1.04-.69 1.05-.68 1.06-.67 1.07-.68 1.08-.67 1.09-.66 1.09-.66 1.11-.66 1.11-.65 1.12-.65 1.13-.65 1.14-.64 1.15-.64 1.16-.63 1.17-.64 1.18-.62 1.18-.63 1.19-.62 1.21-.61 1.21-.61 1.22-.61 1.23-.61 1.24-.6 1.24-.59 1.26-.6 1.27-.58 1.27-.59 1.28-.58 1.3-.58m-1.84-171.89-.03.85-.04.85-.04.85-.03.85-.04.85-.03.85-.04.85-.04.86-.03.85-.04.85-.03.85-.04.85-.03.85-.04.85-.04.85-.03.85-.04.85-.03.85-.04.85-.03.85-.04.85-.04.85-.03.85-.04.85-.03.85-.04.85-.04.85-.03.85-.04.85-.03.85-.04.85-.03.85-.04.85-.04.85-.03.86-.04.85-.03.85-.04.85-.03.85-.04.85-.04.85-.03.85-.04.85-.03.85-.04.85-.03.85-.04.85-.04.85-.03.85-.04.85-.03.85-.04.85-.04.85-.03.85-.04.85-.03.85-.04.85-.03.85-.04.85-.04.85-.03.85-.04.86-.03.85-.04.85-.03.85-.04.85-.04.85-.03.85-.04.85-.03.85-.04.85-.04.85-.03.85-.04.85-.03.85-.04.85-.03.85-.04.85-.04.85-.03.85-.04.85-.03.85-.04.85-.03.85-.04.85-.04.85-.03.85-.04.85-.03.85-.04.86-.04.85-.03.85-.04.85-.03.85-.04.85-.03.85-.04.85-.04.85-.03.85m5.38 87.7.55-.9.54-.9.53-.9.52-.9.5-.9.49-.89.48-.9.47-.9.45-.9.44-.9.43-.89.42-.9.41-.9.39-.89.38-.9.37-.9.35-.89.35-.9.33-.89.31-.9.31-.89.29-.89.28-.9.27-.89.26-.89.24-.9.23-.89.22-.89.21-.89.19-.9.18-.89.17-.89.16-.89.14-.89.13-.89.12-.89.11-.89.1-.89.08-.89.07-.89.05-.89.05-.88.03-.89.02-.89.01-.89v-.88l-.02-.89-.03-.89-.04-.88-.06-.89-.06-.88-.08-.89-.09-.88-.11-.89-.11-.88-.13-.89-.14-.88-.16-.89-.16-.88-.18-.88-.19-.88-.21-.89-.21-.88-.23-.88-.24-.88-.25-.88-.27-.88-.28-.89-.29-.88-.3-.88-.31-.88-.33-.87-.34-.88-.35-.88-.37-.88-.38-.88-.38-.88-.41-.88-.41-.87-.43-.88-.44-.88-.45-.87-.46-.88-.48-.88-.49-.87-.5-.88-.51-.87-.53-.88-.54-.87-.55-.88-.56-.87-.58-.87-.58-.88-.6-.87-.62-.87-.62-.88-.64-.87-.65-.87-.66-.87" style="stroke-width:1.07;stroke:#000000;stroke-opacity:0.10;stroke-linecap:butt"/><path d="m264.43 328.58.35-.89.34-.9.33-.89.33-.9.32-.89.31-.9.3-.89.29-.9.29-.89.27-.89.27-.9.26-.89.25-.89.25-.9.23-.89.23-.89.22-.89.21-.9.2-.89.2-.89.18-.89.18-.89.17-.89.16-.89.15-.89.14-.9.14-.89.13-.89.12-.89.11-.89.1-.89.1-.88.08-.89.08-.89.07-.89.06-.89.06-.89.04-.89.04-.88.03-.89.02-.89.01-.89v-1.77l-.02-.89-.02-.89-.03-.88-.03-.89-.05-.88-.05-.89-.07-.89-.07-.88-.08-.89-.08-.88-.1-.89-.1-.88-.12-.89-.12-.88-.13-.88-.13-.89-.15-.88-.15-.89-.16-.88-.17-.88-.18-.89-.19-.88-.19-.88-.21-.88-.21-.89-.22-.88-.23-.88-.23-.88-.25-.88-.25-.88-.26-.88-.27-.89-.28-.88-.28-.88-.3-.88-.3-.88-.31-.88-.32-.88-.33-.88-.33-.88-.35-.87-.35-.88-.36-.88-.37-.88-.38-.88-.38-.88-.4-.87-.4-.88-.41-.88-.42-.88-.42-.87-.44-.88-.44-.88-.45-.87-.46-.88" style="stroke-width:1.07;stroke:#000000;stroke-opacity:0.10;stroke-linecap:butt"/><path d="m264.43 328.58.14-.89.15-.89.14-.89.13-.89.14-.89.12-.89.13-.89.12-.89.11-.89.11-.89.11-.89.1-.89.1-.89.1-.89.09-.89.08-.89.09-.89.07-.89.08-.88.07-.89.06-.89.06-.89.06-.89.05-.89.05-.89.05-.88.04-.89.04-.89.03-.89.03-.89.02-.88.02-.89.02-.89.01-.89.01-.88v-2.66l-.01-.89-.02-.89-.01-.89-.02-.88-.03-.89-.03-.88-.03-.89-.04-.89-.04-.88-.05-.89-.05-.89-.05-.88-.06-.89-.06-.88-.07-.89-.07-.88-.08-.89-.08-.88-.08-.89-.09-.89-.09-.88-.09-.89-.1-.88-.11-.88-.11-.89-.11-.88-.11-.89-.12-.88-.13-.89-.13-.88-.13-.88-.14-.89-.14-.88-.14-.89-.15-.88-.16-.88-.15-.89-.17-.88-.16-.88-.17-.89-.18-.88-.18-.88-.18-.89-.18-.88-.2-.88-.19-.88-.2-.89-.2-.88-.21-.88-.21-.88-.22-.89-.22-.88-.22-.88-.23-.88-.23-.88-.24-.88-.24-.89-.24-.88-.25-.88-.25-.88-.26-.88" style="stroke-width:1.07;stroke:#000000;stroke-opacity:0.10;stroke-linecap:butt"/><path d="m264.43 328.58-.06-.88-.05-.89-.06-.89-.05-.88-.06-.89-.05-.88-.06-.89-.05-.89-.05-.88-.06-.89-.05-.88-.06-.89-.05-.89-.06-.88-.05-.89-.05-.88-.06-.89-.05-.88-.06-.89-.05-.89-.06-.88-.05-.89-.05-.88-.06-.89-.05-.89-.06-.88-.05-.89-.06-.88-.05-.89-.05-.89-.06-.88-.05-.89-.06-.88-.05-.89-.06-.88-.05-.89-.05-.89-.06-.88-.05-.89-.06-.88-.05-.89-.06-.89-.05-.88-.05-.89-.06-.88-.05-.89-.06-.89-.05-.88-.06-.89-.05-.88-.05-.89-.06-.88-.05-.89-.06-.89-.05-.88-.06-.89-.05-.88-.05-.89-.06-.89-.05-.88-.06-.89-.05-.88-.06-.89-.05-.89-.06-.88-.05-.89-.05-.88-.06-.89-.05-.88-.06-.89-.05-.89-.06-.88-.05-.89-.05-.88-.06-.89-.05-.89-.06-.88-.05-.89-.06-.88-.05-.89-.05-.89-.06-.88-.05-.89-.06-.88-.05-.89-.06-.88-.05-.89-.05-.89-.06-.88-.05-.89-.06-.88-.05-.89-.06-.89-.05-.88-.05-.89-.06-.88-.05-.89-.06-.89-.05-.88" style="stroke-width:1.07;stroke:#000000;stroke-opacity:0.10;stroke-linecap:butt"/><path d="m264.43 328.58-.26-.88-.25-.88-.25-.88-.25-.88-.24-.89-.24-.88-.23-.88-.23-.88-.22-.88-.22-.88-.21-.89-.22-.88-.2-.88-.21-.88-.2-.89-.19-.88-.19-.88-.19-.88-.18-.89-.18-.88-.17-.88-.17-.89-.17-.88-.16-.88-.16-.89-.15-.88-.15-.88-.15-.89-.14-.88-.14-.88-.13-.89-.13-.88-.12-.89-.12-.88-.12-.89-.11-.88-.11-.89-.1-.88-.1-.88-.1-.89-.09-.88-.09-.89-.08-.89-.08-.88-.08-.89-.07-.88-.06-.89-.07-.88-.05-.89-.06-.88-.05-.89-.04-.89-.05-.88-.03-.89-.04-.89-.03-.88-.02-.89-.02-.88-.02-.89-.01-.89-.01-.89-.01-.88v-.89l.01-.89v-.88l.02-.89.01-.89.02-.89.03-.88.02-.89.04-.89.03-.89.04-.89.05-.88.05-.89.05-.89.06-.89.06-.89.07-.89.07-.89.07-.88.08-.89.08-.89.09-.89.09-.89.09-.89.1-.89.1-.89.11-.89.11-.89.12-.89.12-.89.12-.89.13-.89.13-.89.14-.89.14-.89.14-.89.15-.89" style="stroke-width:1.07;stroke:#000000;stroke-opacity:0.10;stroke-linecap:butt"/><path d="m264.43 328.58-.46-.87-.46-.88-.44-.88-.43-.88-.43-.87-.42-.88-.41-.88-.4-.88-.39-.87-.39-.88-.38-.88-.37-.88-.36-.88-.35-.88-.34-.87-.34-.88-.33-.88-.31-.88-.32-.88-.3-.88-.29-.88-.29-.88-.28-.88-.26-.89-.27-.88-.25-.88-.24-.88-.24-.88-.23-.88-.22-.88-.21-.89-.2-.88-.2-.88-.18-.88-.18-.89-.17-.88-.16-.88-.16-.89-.14-.88-.14-.89-.13-.88-.12-.88-.11-.89-.11-.88-.09-.89-.09-.88-.08-.89-.07-.88-.06-.89-.06-.89-.04-.88-.04-.89-.03-.88-.02-.89-.01-.89-.01-.88.01-.89.01-.89.02-.89.03-.89.03-.88.05-.89.05-.89.06-.89.07-.89.08-.89.09-.89.09-.88.1-.89.12-.89.11-.89.13-.89.14-.89.14-.89.16-.9.16-.89.17-.89.17-.89.19-.89.19-.89.2-.89.21-.9.22-.89.23-.89.24-.89.24-.9.25-.89.26-.89.27-.9.28-.89.28-.89.29-.9.31-.89.31-.9.31-.89.33-.9.33-.89.35-.9.35-.89" style="stroke-width:1.07;stroke:#000000;stroke-opacity:0.10;stroke-linecap:butt"/><path d="m264.43 328.58-.67-.87-.65-.87-.64-.87-.62-.88-.61-.87-.6-.87-.59-.88-.58-.87-.56-.87-.55-.88-.54-.87-.53-.88-.51-.87-.5-.88-.49-.87-.47-.88-.47-.88-.45-.87-.44-.88-.43-.88-.41-.87-.4-.88-.39-.88-.38-.88-.36-.88-.35-.88-.34-.88-.33-.87-.32-.88-.3-.88-.29-.88-.28-.89-.26-.88-.26-.88-.24-.88-.22-.88-.22-.88-.2-.89-.19-.88-.18-.88-.17-.88-.15-.89-.14-.88-.13-.89-.12-.88-.1-.89-.09-.88-.08-.89-.07-.88-.05-.89-.05-.88-.03-.89-.01-.89-.01-.88.01-.89.02-.89.03-.89.05-.88.06-.89.07-.89.08-.89.09-.89.11-.89.12-.89.13-.89.15-.89.15-.89.17-.89.18-.89.2-.9.2-.89.22-.89.23-.89.25-.9.25-.89.27-.89.28-.9.29-.89.31-.89.32-.9.33-.89.34-.9.36-.89.36-.9.38-.9.4-.89.4-.9.42-.9.43-.89.44-.9.46-.9.46-.9.48-.89.49-.9.51-.9.51-.9.53-.9.54-.9.56-.9" style="stroke-width:1.07;stroke:#000000;stroke-opacity:0.10;stroke-linecap:butt"/><path d="m385.19 381.73 1.92 3.31h-3.83zM179.8 394.46l8.48 14.68h-16.95zm82.79-239.98 1.92 3.32h-3.83z" style="stroke-width:0.71;stroke:none;fill:#00BA38"/><path d="M257.67 335.34h13.51v-13.51h-13.51z" style="stroke-width:0.71;stroke:none;fill:#619CFF"/><circle cx="301.36" cy="459" r="6.29" style="stroke-width:0.71;stroke:none;fill:#F8766D"/><circle cx="46.81" cy="435.91" r="1.42" style="stroke-width:0.71;stroke:none;fill:#F8766D"/><circle cx="259.05" cy="240.88" r="1.42" style="stroke-width:0.71;stroke:none;fill:#F8766D"/><path d="m184.58 399.56-3.96 3.89m77.22-242.09 3.94-3.87m-2.41 175.75 4.21-3.88m42.87 124.95-4.25 3.91M264.13 236.2l-4.24 3.9" style="stroke-width:0.53;stroke:#BFBFBF"/><path d="M340.01 390.14h38.27-.09l.35-.02.34-.07.33-.12.3-.17.27-.22.23-.26.18-.3.14-.32.08-.33.03-.35h0v-6.8h0l-.03-.34-.08-.34-.14-.32-.18-.3-.23-.26-.27-.22-.3-.17-.33-.12-.34-.07-.26-.02h-38.27l.26.02-.35-.02-.34.05-.33.09-.32.15-.28.2-.26.24-.2.28-.17.31-.11.33-.05.34-.01.17v6.8l.01-.17v.34l.05.35.11.33.17.3.2.28.26.24.28.2.32.15.33.1.34.04z" style="stroke-width:0.53;fill:#FFFFFF;fill-opacity:0.50"/><text x="359.15" y="386.54" lengthAdjust="spacingAndGlyphs" style="font-size:5.69px;font-family:&quot;Liberation Sans&quot;" text-anchor="middle" textLength="35.39">REXON8 LLC</text><path d="M171.99 399.56h38.58-.08l.34-.02.34-.07.33-.12.3-.17.27-.22.23-.26.19-.3.13-.32.08-.33.03-.35h0v-6.8h0l-.03-.34-.08-.34-.13-.32-.19-.3-.23-.26-.27-.22-.3-.17-.33-.12-.34-.07-.26-.02h-38.58l.26.02-.35-.02-.34.05-.34.09-.31.15-.29.2-.25.24-.21.28-.16.31-.11.33-.05.34-.01.17v6.8l.01-.17v.34l.05.35.11.33.16.3.21.28.25.24.29.2.31.15.34.1.34.04z" style="stroke-width:0.53;fill:#FFFFFF;fill-opacity:0.50"/><text x="191.28" y="395.96" lengthAdjust="spacingAndGlyphs" style="font-size:5.69px;font-family:&quot;Liberation Sans&quot;" text-anchor="middle" textLength="35.7">UDALAM LLC</text><path d="M217.6 172.47h67.04-.09l.35-.01.34-.07.32-.13.3-.17.27-.22.23-.26.19-.29.14-.32.08-.34.03-.35h0v-6.79h0l-.03-.35-.08-.34-.14-.32-.19-.29-.23-.26-.27-.22-.3-.17-.32-.13-.34-.07-.26-.01H217.6l.26.01-.35-.01-.34.04-.34.1-.31.15-.29.19-.25.24-.21.28-.16.31-.11.33-.05.34-.01.18v6.79l.01-.17v.35l.05.34.11.33.16.31.21.28.25.24.29.19.31.15.34.1.34.04z" style="stroke-width:0.53;fill:#FFFFFF;fill-opacity:0.50"/><text x="251.12" y="168.87" lengthAdjust="spacingAndGlyphs" style="font-size:5.69px;font-family:&quot;Liberation Sans&quot;" text-anchor="middle" textLength="64.16">ONOCHIE FAN-OSUALA</text><path d="M210.31 360.74h67.01-.09l.35-.01.34-.07.32-.12.3-.18.27-.22.23-.26.19-.29.13-.32.09-.34.03-.35h0V335.4h0l-.03-.35-.09-.34-.13-.32-.19-.29-.23-.26-.27-.22-.3-.17-.32-.13-.34-.07-.26-.01h-67.01l.26.01-.35-.01-.34.04-.34.1-.31.15-.29.2-.25.24-.21.27-.16.31-.11.33-.05.34-.01.18v23.18l.01-.17v.35l.05.34.11.33.16.31.21.28.25.24.29.19.31.15.34.1.34.04z" style="stroke-width:0.53;fill:#FFFFFF;fill-opacity:0.50"/><text x="243.81" y="340.75" lengthAdjust="spacingAndGlyphs" style="font-size:5.69px;font-family:&quot;Liberation Sans&quot;" text-anchor="middle" textLength="40.11">20315 SUTTER</text><text x="243.81" y="348.95" lengthAdjust="spacingAndGlyphs" style="font-size:5.69px;font-family:&quot;Liberation Sans&quot;" text-anchor="middle" textLength="55.83">CREEK DR, APT 336,</text><text x="243.81" y="357.14" lengthAdjust="spacingAndGlyphs" style="font-size:5.69px;font-family:&quot;Liberation Sans&quot;" text-anchor="middle" textLength="64.12">BROOKFIELD, WI 53045</text><path d="M288.51 454.31h67-.09l.35-.02.34-.07.33-.12.3-.17.27-.22.23-.26.18-.3.14-.32.08-.33.03-.35h0v-23.19h0l-.03-.34-.08-.34-.14-.32-.18-.29-.23-.26-.27-.22-.3-.18-.33-.12-.34-.07-.26-.02h-67l.26.02-.35-.01-.35.04-.33.09-.31.15-.29.2-.25.24-.21.28-.16.31-.11.33-.06.34v23.36-.17.34l.06.35.11.33.16.3.21.28.25.24.29.2.31.15.33.1.35.04z" style="stroke-width:0.53;fill:#FFFFFF;fill-opacity:0.50"/><text x="322.01" y="434.32" lengthAdjust="spacingAndGlyphs" style="font-size:5.69px;font-family:&quot;Liberation Sans&quot;" text-anchor="middle" textLength="40.11">20315 SUTTER</text><text x="322.01" y="442.51" lengthAdjust="spacingAndGlyphs" style="font-size:5.69px;font-family:&quot;Liberation Sans&quot;" text-anchor="middle" textLength="52.67">CREEK DR, APT 33,</text><text x="322.01" y="450.71" lengthAdjust="spacingAndGlyphs" style="font-size:5.69px;font-family:&quot;Liberation Sans&quot;" text-anchor="middle" textLength="64.12">BROOKFIELD, WI 53045</text><path d="M53.6 449.66h67.01-.09l.35-.02.34-.07.32-.12.3-.17.27-.22.23-.26.19-.3.13-.32.09-.34.03-.34h0v-23.19h0l-.03-.34-.09-.34-.13-.32-.19-.3-.23-.26-.27-.22-.3-.17-.32-.12-.34-.07-.26-.02H53.6l.26.02-.35-.02-.34.05-.34.09-.31.15-.29.2-.25.24-.2.28-.17.31-.11.33-.05.34-.01.17v23.19l.01-.18v.35l.05.34.11.33.17.31.2.28.25.24.29.2.31.15.34.09.34.05z" style="stroke-width:0.53;fill:#FFFFFF;fill-opacity:0.50"/><text x="87.1" y="429.67" lengthAdjust="spacingAndGlyphs" style="font-size:5.69px;font-family:&quot;Liberation Sans&quot;" text-anchor="middle" textLength="40.62">20315 SUTTON</text><text x="87.1" y="437.86" lengthAdjust="spacingAndGlyphs" style="font-size:5.69px;font-family:&quot;Liberation Sans&quot;" text-anchor="middle" textLength="51.09">CREEK DR APT 33,</text><text x="87.1" y="446.06" lengthAdjust="spacingAndGlyphs" style="font-size:5.69px;font-family:&quot;Liberation Sans&quot;" text-anchor="middle" textLength="64.12">BROOKFIELD, WI 53045</text><path d="M246.17 236.2h67.01-.09l.35-.02.34-.07.32-.12.3-.18.27-.21.23-.27.19-.29.14-.32.08-.34.03-.34h0v-23.19h0l-.03-.34-.08-.34-.14-.32-.19-.3-.23-.26-.27-.22-.3-.17-.32-.12-.34-.07-.26-.02h-67.01l.26.02-.34-.02-.35.05-.33.09-.32.15-.28.2-.25.24-.21.28-.16.31-.11.32-.06.35-.01.17v23.19l.01-.18v.35l.06.34.11.33.16.31.21.28.25.24.28.2.32.15.33.09.35.05z" style="stroke-width:0.53;fill:#FFFFFF;fill-opacity:0.50"/><text x="279.67" y="216.21" lengthAdjust="spacingAndGlyphs" style="font-size:5.69px;font-family:&quot;Liberation Sans&quot;" text-anchor="middle" textLength="40.11">20315 SUTTER</text><text x="279.67" y="224.4" lengthAdjust="spacingAndGlyphs" style="font-size:5.69px;font-family:&quot;Liberation Sans&quot;" text-anchor="middle" textLength="55.83">CREEK DR, APT 336,</text><text x="279.67" y="232.6" lengthAdjust="spacingAndGlyphs" style="font-size:5.69px;font-family:&quot;Liberation Sans&quot;" text-anchor="middle" textLength="64.12">BROOKFIELD, WI 53045</text></g><g clip-path="url(#cpMC4wMHw0MzIuMDB8MC4wMHw1MDQuMDA=)"><circle cx="120.83" cy="116.5" r="1.95" style="stroke-width:0.71;stroke:none;fill:#F8766D"/><path d="m197.23 113.46 2.63 4.56h-5.26z" style="stroke-width:0.71;stroke:none;fill:#00BA38"/><path d="M263.23 118.45h3.91v-3.91h-3.91z" style="stroke-width:0.71;stroke:none;fill:#619CFF"/><text x="134.95" y="119.66" lengthAdjust="spacingAndGlyphs" style="font-size:8.80px;font-weight:0;font-family:&quot;Nimbus Sans Narrow&quot;" textLength="48.16">mprop address</text><text x="211.35" y="119.66" lengthAdjust="spacingAndGlyphs" style="font-size:8.80px;font-weight:0;font-family:&quot;Nimbus Sans Narrow&quot;" textLength="39.72">owner name</text><text x="279.31" y="119.66" lengthAdjust="spacingAndGlyphs" style="font-size:8.80px;font-weight:0;font-family:&quot;Nimbus Sans Narrow&quot;" textLength="40.5">wdfi address</text><text x="29.89" y="84.79" lengthAdjust="spacingAndGlyphs" style="font-size:12.00px;font-weight:0;font-family:&quot;Nimbus Sans Narrow&quot;" textLength="246.64">includes 8 parcels, 15 units, and 3 distinct owner names.</text><text x="29.89" y="42.81" lengthAdjust="spacingAndGlyphs" style="font-size:18.00px;font-weight:0;font-family:&quot;Nimbus Sans Narrow&quot;" textLength="299.23">UDALAM LLC -- ONOCHIE FAN-OSUALA --</text><text x="29.89" y="62.25" lengthAdjust="spacingAndGlyphs" style="font-size:18.00px;font-weight:0;font-family:&quot;Nimbus Sans Narrow&quot;" textLength="141.86">REXON8 LLC Group</text></g></g></svg>