<svg xmlns="http://www.w3.org/2000/svg" width="768" height="768" viewBox="0 0 576 576"><g class="svglite"><defs><style><![CDATA[.svglite line,.svglite polyline,.svglite polygon,.svglite path,.svglite circle{fill:none;stroke:#000000;stroke-linecap:round;stroke-linejoin:round;stroke-miterlimit:10.00}.svglite text{white-space:pre}.svglite g.glyphgroup path{fill:inherit;stroke:none}]]></style></defs><rect width="100%" height="100%" style="stroke-linecap:round;stroke-linejoin:round;stroke-miterlimit:10.00;stroke:none;fill:#FFFFFF"/><defs><clipPath id="cpMC4wMHw1NzYuMDB8MC4wMHw1NzYuMDA="><path d="M0 0h576v576H0z"/></clipPath></defs><g clip-path="url(#cpMC4wMHw1NzYuMDB8MC4wMHw1NzYuMDA=)"><path d="M0 0h576v576H0z" style="stroke-width:1.07;stroke:none;fill:#FFFFFF"/></g><defs><clipPath id="cpMzIuNjN8NTQ2LjExfDEyMi4xNHw1NDMuMzc="><path d="M32.63 122.14h513.48v421.24H32.63z"/></clipPath></defs><g clip-path="url(#cpMzIuNjN8NTQ2LjExfDEyMi4xNHw1NDMuMzc=)"><path d="m64.94 314.78-.09-.95-.09-.94-.09-.94-.09-.95-.09-.94-.09-.95-.09-.94-.09-.95-.09-.94-.09-.94-.09-.95-.09-.94-.09-.95-.1-.94-.09-.95-.09-.94-.09-.94-.09-.95-.09-.94-.09-.95-.09-.94-.09-.95-.09-.94-.09-.94-.09-.95-.09-.94-.09-.95-.09-.94-.1-.95-.09-.94-.09-.94-.09-.95-.09-.94-.09-.95-.09-.94-.09-.95-.09-.94-.09-.94-.09-.95-.09-.94-.09-.95-.09-.94-.09-.95-.1-.94-.09-.94-.09-.95-.09-.94-.09-.95-.09-.94-.09-.95-.09-.94-.09-.94-.09-.95-.09-.94-.09-.95-.09-.94-.09-.95-.09-.94-.1-.94-.09-.95-.09-.94-.09-.95-.09-.94-.09-.95-.09-.94-.09-.94-.09-.95-.09-.94-.09-.95-.09-.94-.09-.95-.09-.94-.09-.94-.1-.95-.09-.94-.09-.95-.09-.94-.09-.95-.09-.94-.09-.94-.09-.95-.09-.94-.09-.95-.09-.94-.09-.95-.09-.94-.09-.94-.09-.95-.1-.94-.09-.95-.09-.94-.09-.95-.09-.94-.09-.94-.09-.95-.09-.94-.09-.95-.09-.94-.09-.95m8.97 93.49h1.75l1.75-.01h5.26l1.75-.01h7l1.75-.01h5.25l1.75-.01h5.25l1.75-.01h5.25l1.75-.01h7l1.75-.01h5.25l1.75-.01h5.25l1.75-.01h7.01l1.75-.01h5.25l1.75-.01h5.25l1.75-.01h7l1.75-.01h5.25l1.75-.01h5.25l1.75-.01h5.25l1.75-.01h7l1.75-.01h5.26l1.75-.01h5.25l1.75-.01h7l1.75-.01h5.25l1.75-.01h5.25l1.75-.01h5.25l1.75-.01h5.25m-8.82-94.39.82-.8.82-.79.82-.8.82-.8.82-.79.82-.8.82-.8.81-.79.82-.8.82-.8.82-.79.82-.8.82-.8.82-.8.82-.79.82-.8.82-.8.82-.79.82-.8.82-.8.81-.79.82-.8.82-.8.82-.79.82-.8.82-.8.82-.79.82-.8.82-.8.82-.79.82-.8.82-.8.82-.79.82-.8.81-.8.82-.79.82-.8.82-.8.82-.79.82-.8.82-.8.82-.79.82-.8.82-.8.82-.79.82-.8.82-.8.81-.79.82-.8.82-.8.82-.79.82-.8.82-.8.82-.79.82-.8.82-.8.82-.79.82-.8.82-.8.82-.79.82-.8.81-.8.82-.79.82-.8.82-.8.82-.79.82-.8.82-.8.82-.79.82-.8.82-.8.82-.79.82-.8.82-.8.82-.79.81-.8.82-.8.82-.79.82-.8.82-.8.82-.79.82-.8.82-.8.82-.8.82-.79.82-.8.82-.8.82-.79.81-.8.82-.8.82-.79.82-.8.82-.8.82-.79.82-.8.82-.8.82-.79.82-.8.82-.8m-81.11 78.88-.52.97-.51.97-.5.97-.48.97-.47.97-.46.97-.45.97-.43.97-.42.96-.41.97-.4.97-.38.97-.37.96-.36.97-.35.96-.34.97-.32.96-.31.97-.29.96-.29.97-.27.96-.26.97-.25.96-.23.96-.22.96-.21.96-.2.97-.19.96-.17.96-.16.96-.15.96-.13.96-.12.96-.11.96-.1.96-.09.95-.07.96-.06.96-.05.96-.03.95-.03.96-.01.96v.95l.02.96.03.95.04.96.05.95.06.96.08.95.09.96.1.95.11.95.13.95.14.96.15.95.16.95.18.95.19.95.2.95.21.95.23.95.24.95.25.95.26.95.28.94.29.95.3.95.31.95.33.94.33.95.36.95.36.94.37.95.39.94.4.95.42.94.42.94.44.95.45.94.46.94.48.95.49.94.5.94.51.94.52.94.54.94.55.94.56.94.58.94.59.94.6.94.61.94.62.94.64.93.65.94.66.94.68.94.68.93.7.94m-8.82-94.39-1.76-.26-1.76-.26-1.75-.25-1.76-.25-1.76-.24-1.75-.23-1.76-.23-1.76-.22-1.75-.22-1.76-.21-1.76-.21-1.75-.2-1.76-.19-1.76-.19-1.75-.19-1.76-.18-1.75-.17-1.76-.17-1.76-.16-1.75-.15-1.76-.15-1.75-.15-1.76-.14-1.75-.13-1.76-.13-1.75-.12-1.76-.12-1.75-.11-1.75-.11-1.76-.1-1.75-.09-1.76-.09-1.75-.08-1.75-.08-1.76-.07-1.75-.07-1.76-.06-1.75-.06-1.75-.05-1.75-.04-1.76-.04-1.75-.03-1.75-.03-1.76-.02-1.75-.02-1.75-.01-1.75-.01h-1.75l-1.76.01-1.75.01-1.75.02-1.75.02-1.75.03-1.75.03-1.76.04-1.75.05-1.75.05-1.75.05-1.75.07-1.75.06-1.75.08-1.75.07-1.75.09-1.75.09-1.75.09-1.75.1-1.75.11-1.75.11-1.75.12-1.75.12-1.75.13-1.75.14-1.75.14-1.75.14-1.75.15-1.74.16-1.75.16-1.75.17-1.75.17-1.75.18-1.75.19-1.74.19-1.75.19-1.75.2-1.75.21-1.75.21-1.74.22-1.75.23-1.75.22-1.74.24-1.75.24-1.75.25-1.74.25-1.75.25-1.75.27-1.74.27-1.75.27-1.75.28-1.74.28" style="stroke-width:1.07;stroke:#000000;stroke-opacity:0.10;stroke-linecap:butt"/><path d="m229.4 220.16-.28.96-.27.97-.26.96-.25.96-.25.97-.24.96-.23.96-.23.96-.21.97-.21.96-.21.96-.19.96-.19.96-.18.96-.17.96-.17.97-.15.96-.15.96-.15.96-.13.96-.13.96-.12.95-.11.96-.11.96-.1.96-.09.96-.08.96-.07.96-.07.95-.06.96-.05.96-.05.96-.04.95-.03.96-.02.96-.02.95-.01.96v.96l.01.95.02.96.02.95.03.96.03.95.05.96.05.95.06.96.07.95.07.95.08.96.09.95.1.95.1.96.11.95.12.95.13.96.13.95.14.95.15.95.16.95.16.95.17.95.18.96.19.95.19.95.2.95.21.95.22.95.22.95.23.95.24.94.25.95.25.95.26.95.27.95.28.95.28.95.29.94.3.95.31.95.31.94.32.95.33.95.33.94.35.95.35.95.36.94.36.95.37.94.39.95.38.94.4.95.4.94.41.95.42.94.43.94.43.95.44.94.45.94.45.95m-8.82-94.39-1.75-.13-1.76-.12-1.75-.12-1.76-.12-1.75-.11-1.76-.11-1.75-.11-1.76-.11-1.75-.1-1.75-.1-1.76-.1-1.75-.09-1.76-.09-1.75-.09-1.76-.09-1.75-.08-1.75-.08-1.76-.08-1.75-.08-1.75-.07-1.76-.07-1.75-.06-1.75-.07-1.76-.06-1.75-.06-1.75-.05-1.76-.06-1.75-.05-1.75-.04-1.76-.05-1.75-.04-1.75-.04-1.76-.03-1.75-.04-1.75-.03-1.75-.02-1.76-.03-1.75-.02-1.75-.02-1.75-.02-1.76-.01-1.75-.01-1.75-.01h-1.75l-1.76-.01h-1.75l-1.75.01h-1.75l-1.75.01-1.76.01-1.75.02-1.75.01-1.75.02-1.75.03-1.75.02-1.76.03-1.75.03-1.75.03-1.75.04-1.75.04-1.75.04-1.75.05-1.75.05-1.75.05-1.76.05-1.75.06-1.75.05-1.75.07-1.75.06-1.75.07-1.75.07-1.75.07-1.75.08-1.75.07-1.75.09-1.75.08-1.75.09-1.75.09-1.75.09-1.75.09-1.75.1-1.75.1-1.75.11-1.75.1-1.75.11-1.75.11-1.75.12-1.75.12-1.75.12-1.75.12-1.75.13-1.75.12-1.75.14-1.75.13-1.75.14-1.75.14-1.74.14-1.75.15-1.75.14" style="stroke-width:1.07;stroke:#000000;stroke-opacity:0.10;stroke-linecap:butt"/><path d="m229.4 220.16-.03.96-.03.95-.03.96-.03.96-.02.95-.02.96-.02.96-.01.95-.02.96-.01.95-.01.96v4.78l.01.96.01.95.01.96.01.95.02.96.02.95.02.96.03.96.02.95.03.96.03.95.04.96.04.95.04.96.04.95.04.95.05.96.05.95.05.96.05.95.06.96.06.95.06.96.07.95.06.95.07.96.07.95.08.96.07.95.08.95.08.96.09.95.08.95.09.96.1.95.09.95.1.96.1.95.1.95.1.96.11.95.11.95.11.95.11.96.12.95.12.95.12.96.12.95.13.95.13.95.13.95.13.96.14.95.14.95.14.95.14.95.15.96.15.95.15.95.16.95.15.95.16.95.16.96.17.95.16.95.17.95.17.95.18.95.17.95.18.95.18.95.19.95.18.96.19.95.19.95.2.95.19.95.2.95.2.95.21.95.2.95.21.95.21.95m-8.82-94.39-1.75.01-1.75.01-1.76.01-1.75.01-1.75.02-1.75.01-1.75.01-1.75.01-1.76.01-1.75.01-1.75.02-1.75.01-1.75.01-1.76.01-1.75.01-1.75.01-1.75.01-1.75.02-1.75.01-1.76.01-1.75.01-1.75.01-1.75.01-1.75.01-1.76.02-1.75.01-1.75.01-1.75.01-1.75.01-1.76.01-1.75.01-1.75.02-1.75.01-1.75.01-1.75.01-1.76.01-1.75.01-1.75.01-1.75.02-1.75.01-1.76.01-1.75.01-1.75.01-1.75.01-1.75.01-1.75.02-1.76.01-1.75.01-1.75.01-1.75.01-1.75.01-1.76.02-1.75.01-1.75.01-1.75.01-1.75.01-1.75.01-1.76.01-1.75.02-1.75.01-1.75.01-1.75.01-1.76.01-1.75.01-1.75.01-1.75.02-1.75.01-1.76.01-1.75.01-1.75.01-1.75.01-1.75.01-1.75.02-1.76.01-1.75.01-1.75.01-1.75.01-1.75.01-1.76.01-1.75.02-1.75.01-1.75.01-1.75.01-1.75.01-1.76.01-1.75.01-1.75.02-1.75.01-1.75.01-1.76.01-1.75.01-1.75.01-1.75.02-1.75.01-1.75.01-1.76.01-1.75.01-1.75.01-1.75.01m173.43-1.13.21.95.21.95.21.95.2.95.2.95.2.95.2.95.19.95.19.95.19.95.19.95.18.95.18.95.18.95.18.96.17.95.17.95.17.95.17.95.16.95.16.95.16.95.16.96.15.95.15.95.15.95.15.95.14.95.14.96.14.95.14.95.13.95.13.95.13.96.13.95.12.95.12.95.12.96.12.95.11.95.12.95.11.96.1.95.11.95.1.96.1.95.09.95.1.96.09.95.09.95.08.96.09.95.08.95.08.96.08.95.07.96.07.95.07.95.07.96.06.95.06.96.06.95.06.95.05.96.06.95.04.96.05.95.05.96.04.95.04.96.03.95.04.96.03.95.03.96.03.95.02.96.02.95.02.96.02.95.01.96.01.95.01.96.01.96.01.95v1.91l-.01.96v.96l-.01.95-.01.96-.01.95-.02.96-.02.96-.02.95-.02.96-.03.96-.02.95-.03.96-.04.96" style="stroke-width:1.07;stroke:#000000;stroke-opacity:0.10;stroke-linecap:butt"/><path d="m229.4 220.16-1.75.15-1.75.14-1.75.15-1.75.14-1.74.13-1.75.14-1.75.13-1.75.13-1.75.12-1.75.13-1.75.12-1.75.11-1.75.12-1.75.11-1.75.11-1.75.11-1.75.1-1.75.1-1.75.1-1.75.09-1.75.1-1.75.09-1.75.08-1.75.09-1.75.08-1.75.08-1.75.07-1.75.08-1.75.07-1.75.06-1.75.07-1.75.06-1.76.06-1.75.05-1.75.06-1.75.05-1.75.05-1.75.04-1.75.04-1.75.04-1.75.04-1.76.03-1.75.03-1.75.03-1.75.03-1.75.02-1.75.02-1.75.02-1.76.01-1.75.01-1.75.01-1.75.01h-5.26l-1.75-.01-1.75-.01-1.76-.01-1.75-.01-1.75-.02-1.75-.02-1.76-.02-1.75-.02-1.75-.03-1.75-.03-1.76-.03-1.75-.04-1.75-.04-1.75-.04-1.76-.04-1.75-.05-1.75-.05-1.76-.05-1.75-.06-1.75-.06-1.76-.06-1.75-.06-1.75-.07-1.76-.07-1.75-.07-1.76-.08-1.75-.07-1.75-.09-1.76-.08-1.75-.09-1.75-.08-1.76-.1-1.75-.09-1.76-.1-1.75-.1-1.76-.1-1.75-.11-1.75-.11-1.76-.11-1.75-.11-1.76-.12-1.75-.12-1.76-.12-1.75-.13m173.43-1.13.46.94.44.95.44.94.44.94.42.95.42.94.41.94.4.95.4.94.39.95.38.94.37.95.37.94.35.95.36.95.34.94.33.95.33.95.32.94.32.95.3.95.3.94.29.95.29.95.27.95.27.95.26.94.25.95.25.95.24.95.23.95.22.95.22.95.21.95.2.95.19.95.19.95.18.95.17.95.16.95.16.96.15.95.14.95.13.95.13.95.12.96.11.95.11.95.09.96.09.95.08.95.08.96.06.95.06.96.05.95.05.95.04.96.03.95.02.96.01.96.01.95v.96l-.01.95-.02.96-.02.96-.03.95-.04.96-.04.96-.06.95-.06.96-.06.96-.08.96-.08.96-.09.96-.1.95-.11.96-.11.96-.12.96-.13.96-.13.96-.14.96-.15.96-.16.96-.17.96-.17.96-.18.96-.19.97-.19.96-.2.96-.21.96-.22.96-.22.97-.24.96-.24.96-.24.96-.26.97-.26.96-.27.96-.28.97m196.3 139.44.9.71.89.71.89.71.89.71.89.71.89.71.89.71.9.71.89.71.89.71.89.71.89.71.89.71.89.71.9.7.89.71.89.71.89.71.89.71.89.71.89.71.89.71.9.71.89.71.89.71.89.71.89.71.89.71.89.71.9.71.89.71.89.7.89.71.89.71.89.71.89.71.9.71.89.71.89.71.89.71.89.71.89.71.89.71.9.71.89.71.89.71.89.71.89.71.89.7.89.71.9.71.89.71.89.71.89.71.89.71.89.71.89.71.89.71.9.71.89.71.89.71.89.71.89.71.89.71.89.71.9.7.89.71.89.71.89.71.89.71.89.71.89.71.9.71.89.71.89.71.89.71.89.71.89.71.89.71.9.71.89.71.89.71.89.7.89.71.89.71.89.71.9.71.89.71.89.71.89.71.89.71.89.71.89.71.89.71.9.71.89.71.89.71.89.71.89.71" style="stroke-width:1.07;stroke:#000000;stroke-opacity:0.10;stroke-linecap:butt"/><path d="m229.4 220.16-1.75.28-1.74.28-1.75.28-1.74.27-1.75.26-1.75.26-1.74.25-1.75.24-1.75.24-1.74.24-1.75.23-1.75.22-1.75.22-1.74.21-1.75.21-1.75.2-1.75.2-1.75.19-1.74.18-1.75.18-1.75.17-1.75.17-1.75.16-1.75.16-1.74.15-1.75.15-1.75.14-1.75.13-1.75.13-1.75.12-1.75.12-1.75.11-1.75.11-1.75.1-1.75.09-1.75.09-1.75.09-1.75.08-1.75.07-1.75.07-1.75.06-1.75.05-1.75.06-1.76.04-1.75.04-1.75.03-1.75.03-1.75.02-1.75.02-1.76.01-1.75.01h-1.75l-1.75-.01-1.75-.01-1.76-.01-1.75-.03-1.75-.02-1.75-.04-1.76-.04-1.75-.04-1.75-.05-1.76-.06-1.75-.06-1.75-.06-1.76-.08-1.75-.07-1.75-.09-1.76-.09-1.75-.09-1.76-.1-1.75-.11-1.76-.11-1.75-.11-1.76-.13-1.75-.13-1.76-.13-1.75-.14-1.76-.14-1.75-.15-1.76-.16-1.75-.16-1.76-.17-1.75-.17-1.76-.18-1.76-.18-1.75-.19-1.76-.2-1.75-.2-1.76-.21-1.76-.21-1.75-.22-1.76-.22-1.76-.23-1.75-.23-1.76-.24-1.76-.25-1.76-.25-1.75-.25-1.76-.27m173.43-1.13.7.93.69.94.67.94.66.94.65.93.64.94.62.94.62.94.6.94.58.94.58.93.56.94.55.94.54.95.52.94.52.94.5.94.48.94.48.94.46.95.45.94.44.94.43.95.41.94.4.95.39.94.37.95.37.94.35.95.34.94.32.95.32.95.3.95.28.94.28.95.26.95.25.95.24.95.23.95.21.95.2.95.19.95.18.95.16.95.15.95.14.95.13.96.11.95.11.95.08.96.08.95.07.95.05.96.04.95.02.96.02.95v.96l-.01.96-.02.95-.04.96-.05.96-.06.95-.07.96-.09.96-.09.96-.11.96-.13.96-.13.96-.15.96-.16.96-.17.96-.19.96-.19.96-.21.96-.23.97-.23.96-.25.96-.26.97-.27.96-.28.96-.3.97-.31.96-.32.97-.34.96-.34.97-.36.96-.37.97-.39.97-.4.97-.4.96-.43.97-.43.97-.45.97-.46.97-.47.97-.48.97-.5.97-.51.97-.52.97m196.3 139.44-.93-.7-.93-.71-.93-.71-.93-.7-.93-.71-.93-.71-.93-.71-.94-.7-.93-.71-.93-.71-.93-.7-.93-.71-.93-.71-.93-.71-.94-.7-.93-.71-.93-.71-.93-.7-.93-.71-.93-.71-.93-.71-.93-.7-.94-.71-.93-.71-.93-.7-.93-.71-.93-.71-.93-.7-.93-.71-.93-.71-.94-.71-.93-.7-.93-.71-.93-.71-.93-.7-.93-.71-.93-.71-.94-.71-.93-.7-.93-.71-.93-.71-.93-.7-.93-.71-.93-.71-.93-.71-.94-.7-.93-.71-.93-.71-.93-.7-.93-.71-.93-.71-.93-.71-.93-.7-.94-.71-.93-.71-.93-.7-.93-.71-.93-.71-.93-.7-.93-.71-.93-.71-.94-.71-.93-.7-.93-.71-.93-.71-.93-.7-.93-.71-.93-.71-.94-.71-.93-.7-.93-.71-.93-.71-.93-.7-.93-.71-.93-.71-.93-.71-.94-.7-.93-.71-.93-.71-.93-.7-.93-.71-.93-.71-.93-.7-.93-.71-.94-.71-.93-.71-.93-.7-.93-.71-.93-.71-.93-.7-.93-.71-.94-.71-.93-.71-.93-.7-.93-.71-.93-.71-.93-.7-.93-.71-.93-.71m-104.11-69.44.52.95.52.94.53.94.55.93.56.93.56.92.58.92.59.91.6.91.61.9.63.9.63.89.65.89.65.88.67.88.67.87.69.87.7.86.71.86.73.85.73.85.74.84.76.84.76.83.78.82.79.83.79.81.81.82.83.8.83.81.84.79.85.79.87.79.87.78.89.78.9.77.91.77.92.76.93.76.94.75.95.75.96.74.98.73.98.74 1 .72 1.01.72 1.02.72 1.03.71 1.04.71 1.05.7 1.06.7 1.07.69 1.09.68 1.09.69 1.11.67 1.12.67 1.13.67 1.14.66 1.15.66 1.16.65 1.17.64 1.18.64 1.2.64 1.2.63 1.22.63 1.23.62 1.24.62 1.25.61 1.26.6 1.27.6 1.28.6 1.29.59 1.31.59 1.31.58 1.33.57 1.34.57 1.35.57 1.36.56 1.37.55 1.38.56 1.39.54 1.4.54 1.42.54 1.42.53 1.44.52 1.45.52 1.46.52 1.47.51 1.48.5 1.49.51 1.5.49 1.51.49 1.53.49 1.53.48 1.55.47 1.56.47 1.57.47 1.58.46 1.59.45" style="stroke-width:1.07;stroke:#000000;stroke-opacity:0.10;stroke-linecap:butt"/><path d="m238.22 314.55.69.86.7.87.71.85.72.86.72.85.73.85.73.85.75.84.75.84.76.83.76.84.77.83.78.82.79.82.8.82.8.82.81.81.82.81.82.8.83.8.84.8.85.8.85.79.86.79.87.78.88.79.88.78.89.77.9.77.9.77.91.77.92.76.93.76.93.75.95.75.94.75.96.75.96.74.97.74.98.73.99.73.99.73 1 .73 1.01.72 1.01.72 1.03.71 1.03.71 1.03.71 1.05.71 1.05.7 1.06.69 1.06.7 1.08.69 1.08.69 1.09.68 1.09.68 1.1.68 1.11.68 1.12.67 1.13.67 1.13.66 1.14.66 1.15.66 1.15.66 1.16.65 1.17.64 1.18.65 1.18.64 1.19.64 1.2.63 1.2.63 1.22.63 1.22.62 1.23.63 1.23.61 1.24.62 1.25.61 1.26.61 1.26.6 1.27.6 1.28.6 1.29.59 1.29.59 1.3.59 1.31.59 1.32.58 1.32.57 1.33.58 1.34.57 1.34.57 1.35.56 1.36.56 1.37.56 1.37.55 1.39.55 1.39.55 1.39.54 1.4.54 1.42.54" style="stroke-width:1.07;stroke:#000000;stroke-opacity:0.10;stroke-linecap:butt"/><path d="m238.22 314.55.87.78.88.78.88.78.88.78.89.78.89.77.89.78.9.77.9.77.91.77.91.77.91.76.91.76.92.77.93.76.92.75.93.76.94.76.94.75.94.75.94.75.95.75.95.75.96.74.96.74.96.75.97.74.97.73.98.74.97.74.99.73.98.73.99.73.99.73 1 .73 1 .72 1.01.72 1 .73 1.01.72 1.02.71 1.02.72 1.02.72 1.03.71 1.02.71 1.04.71 1.04.71 1.04.7 1.04.71 1.05.7 1.05.7 1.05.7 1.06.7 1.07.7 1.06.69 1.07.7 1.08.69 1.07.69 1.08.68 1.09.69 1.09.69 1.09.68 1.09.68 1.1.68 1.11.68 1.1.67 1.11.68 1.12.67 1.11.67 1.13.67 1.12.67 1.13.67 1.13.66 1.14.66 1.14.67 1.14.66 1.15.65 1.15.66 1.15.65 1.16.66 1.16.65 1.17.65 1.16.65 1.18.64 1.17.65 1.18.64 1.19.64 1.18.64 1.19.64 1.2.63 1.2.64 1.2.63 1.2.63 1.21.63 1.22.63 1.21.62 1.22.63 1.23.62 1.22.62 1.24.62" style="stroke-width:1.07;stroke:#000000;stroke-opacity:0.10;stroke-linecap:butt"/><path d="m238.22 314.55 1.05.7 1.06.7 1.05.7 1.05.7 1.05.71 1.05.7 1.05.7 1.05.7 1.06.7 1.05.7 1.05.7 1.05.71 1.05.7 1.05.7 1.06.7 1.05.7 1.05.7 1.05.7 1.05.71 1.05.7 1.05.7 1.06.7 1.05.7 1.05.7 1.05.7 1.05.71 1.05.7 1.06.7 1.05.7 1.05.7 1.05.7 1.05.7 1.05.71 1.06.7 1.05.7 1.05.7 1.05.7 1.05.7 1.05.7 1.05.71 1.06.7 1.05.7 1.05.7 1.05.7 1.05.7 1.05.7 1.06.71 1.05.7 1.05.7 1.05.7 1.05.7 1.05.7 1.05.7 1.06.71 1.05.7 1.05.7 1.05.7 1.05.7 1.05.7 1.06.71 1.05.7 1.05.7 1.05.7 1.05.7 1.05.7 1.05.7 1.06.71 1.05.7 1.05.7 1.05.7 1.05.7 1.05.7 1.06.7 1.05.71 1.05.7 1.05.7 1.05.7 1.05.7 1.05.7 1.06.7 1.05.71 1.05.7 1.05.7 1.05.7 1.05.7 1.06.7 1.05.7 1.05.71 1.05.7 1.05.7 1.05.7 1.05.7 1.06.7 1.05.7 1.05.71 1.05.7 1.05.7 1.05.7 1.06.7" style="stroke-width:1.07;stroke:#000000;stroke-opacity:0.10;stroke-linecap:butt"/><path d="m238.22 314.55 1.23.62 1.23.62 1.22.62 1.23.63 1.21.62 1.21.63 1.21.63 1.21.63 1.2.63 1.2.64 1.19.63 1.19.64 1.19.64 1.19.64 1.18.64 1.17.65 1.17.64 1.17.65 1.17.65 1.16.65 1.16.66 1.15.65 1.15.66 1.15.65 1.14.66 1.14.67 1.14.66 1.13.66 1.13.67 1.12.67 1.12.67 1.12.67 1.12.67 1.11.68 1.1.67 1.11.68 1.09.68 1.1.68 1.09.68 1.09.69 1.08.68 1.09.69 1.07.69 1.08.69 1.07.7 1.06.69 1.06.7 1.06.7 1.06.7 1.05.7 1.05.7 1.04.71 1.04.7 1.04.71 1.03.71 1.03.71 1.03.71 1.02.72 1.02.72 1.01.71 1.02.72 1 .73 1.01.72 1 .72.99.73 1 .73.99.73.98.73.98.73.98.74.98.74.97.73.96.74.97.75.96.74.95.74.96.75.95.75.94.75.94.75.94.75.93.76.93.76.93.75.92.76.92.77.92.76.91.76.91.77.91.77.9.77.9.77.89.78.89.77.89.78.88.78.88.78.87.78.88.78" style="stroke-width:1.07;stroke:#000000;stroke-opacity:0.10;stroke-linecap:butt"/><path d="m238.22 314.55 1.41.54 1.41.54 1.39.54 1.39.55 1.38.55 1.38.55 1.36.56 1.36.56 1.36.56 1.34.57 1.34.57 1.33.58 1.32.57 1.32.58 1.3.59 1.31.59 1.29.59 1.28.59 1.28.6 1.28.6 1.26.6 1.26.61 1.25.61 1.24.62 1.23.61 1.23.62 1.22.63 1.21.63 1.21.63 1.2.63 1.19.64 1.18.64 1.18.65 1.17.64 1.16.65 1.15.66 1.15.66 1.14.66 1.13.66 1.13.67 1.11.67 1.11.68 1.11.67 1.09.69 1.09.68 1.08.69 1.07.69 1.07.7 1.06.69 1.05.7 1.05.71 1.03.71 1.03.71 1.02.71 1.02.72 1.01.72 1 .73.99.73.98.73.98.73.97.74.97.74.95.75.95.75.94.75.94.75.93.76.92.76.91.77.9.77.9.77.89.77.88.78.88.79.87.78.86.79.85.79.85.8.84.79.83.81.82.8.82.81.81.81.8.82.8.82.78.82.78.82.78.83.76.84.76.83.75.84.75.84.73.85.73.85.72.85.72.85.7.86.7.87.7.86" style="stroke-width:1.07;stroke:#000000;stroke-opacity:0.10;stroke-linecap:butt"/><path d="m238.22 314.55 1.59.45 1.58.46 1.57.47 1.56.47 1.54.47 1.54.48 1.52.49 1.52.49 1.5.49 1.49.51 1.48.5 1.47.51 1.46.52 1.45.52 1.43.52 1.43.53 1.41.54 1.41.54 1.39.54 1.38.56 1.37.55 1.36.56 1.35.57 1.34.57 1.32.57 1.32.58 1.3.59 1.3.59 1.28.6 1.27.6 1.26.6 1.25.61 1.24.62 1.23.62 1.21.63 1.21.63 1.19.63 1.19.65 1.17.64 1.16.65 1.15.66 1.14.66 1.13.67 1.12.67 1.1.67 1.1.69 1.08.68 1.08.69 1.06.7 1.05.7 1.04.71 1.03.71 1.02.72 1.01.72.99.72.99.74.97.73.97.74.95.75.94.75.93.76.92.76.91.77.9.77.88.78.88.78.87.79.85.79.84.79.83.81.82.8.81.82.8.81.79.82.78.83.76.83.76.84.74.84.73.85.72.85.71.86.7.86.69.87.68.87.67.88.65.88.65.89.63.89.62.9.62.9.6.91.59.91.57.92.57.92.56.93.54.93.54.94.52.94.52.95" style="stroke-width:1.07;stroke:#000000;stroke-opacity:0.10;stroke-linecap:butt"/><path d="m64.94 312.57 1.92 3.31h-3.83zM229.4 210.38l8.47 14.67h-16.94zM434.52 448.4l4.85 8.39h-9.69z" style="stroke-width:0.71;stroke:none;fill:#00BA38"/><path d="M231.47 321.3h13.51v-13.51h-13.51z" style="stroke-width:0.71;stroke:none;fill:#619CFF"/><circle cx="55.97" cy="221.29" r="6.29" style="stroke-width:0.71;stroke:none;fill:#F8766D"/><circle cx="310.51" cy="141.28" r="1.42" style="stroke-width:0.71;stroke:none;fill:#F8766D"/><circle cx="522.77" cy="524.23" r="1.42" style="stroke-width:0.71;stroke:none;fill:#F8766D"/><circle cx="342.33" cy="383.99" r="1.42" style="stroke-width:0.71;stroke:none;fill:#F8766D"/><path d="m60.43 319.46 3.72-3.86m170.46-100.14-4.35 3.92M429.31 458.7l4.36-3.93m-200.9-135.61 4.56-3.86M60.84 219.24l-3.74 1.58m258.24-81.17-3.65 1.24m206.22 380.59 3.81 2.15m-184.88-135 4.6-3.89" style="stroke-width:0.53;stroke:#BFBFBF"/><path d="M38.41 330.57h38.28-.09l.35-.01.34-.07.32-.13.3-.17.27-.22.23-.26.19-.29.13-.32.09-.34.03-.35h0v-6.79h0l-.03-.35-.09-.34-.13-.32-.19-.29-.23-.26-.27-.22-.3-.18-.32-.12-.34-.07-.26-.01H38.41l.27.01-.35-.01-.35.04-.33.1-.32.14-.28.2-.25.24-.21.28-.16.31-.11.33-.06.34-.01.18v6.79l.01-.17v.35l.06.34.11.33.16.31.21.27.25.25.28.19.32.15.33.1.35.04z" style="stroke-width:0.53;fill:#FFFFFF;fill-opacity:0.50"/><text x="57.55" y="326.97" lengthAdjust="spacingAndGlyphs" style="font-size:5.69px;font-family:&quot;Liberation Sans&quot;" text-anchor="middle" textLength="35.39">REXON8 LLC</text><path d="M222.68 215.46h38.58-.08l.35-.02.34-.07.32-.12.3-.17.27-.22.23-.26.19-.3.13-.32.09-.33.02-.35h0v-6.8h0l-.02-.34-.09-.34-.13-.32-.19-.29-.23-.26-.27-.22-.3-.18-.32-.12-.34-.07-.27-.02h-38.58l.26.02-.35-.01-.34.04-.33.09-.32.15-.28.2-.26.24-.2.28-.17.31-.11.33-.05.34-.01.17v6.8l.01-.17v.34l.05.35.11.33.17.3.2.28.26.24.28.2.32.15.33.1.34.04z" style="stroke-width:0.53;fill:#FFFFFF;fill-opacity:0.50"/><text x="241.97" y="211.86" lengthAdjust="spacingAndGlyphs" style="font-size:5.69px;font-family:&quot;Liberation Sans&quot;" text-anchor="middle" textLength="35.7">UDALAM LLC</text><path d="M388.54 469.82h67.04-.09l.35-.02.34-.07.32-.12.3-.17.27-.22.23-.26.19-.3.14-.32.08-.33.03-.35h0v-6.8h0l-.03-.34-.08-.34-.14-.32-.19-.29-.23-.26-.27-.22-.3-.18-.32-.12-.34-.07-.26-.02h-67.04l.26.02-.35-.02-.34.05-.34.09-.31.15-.29.2-.25.24-.21.28-.16.31-.11.33-.05.34-.01.17v6.8l.01-.17v.34l.05.35.11.33.16.3.21.28.25.24.29.2.31.15.34.1.34.04z" style="stroke-width:0.53;fill:#FFFFFF;fill-opacity:0.50"/><text x="422.06" y="466.22" lengthAdjust="spacingAndGlyphs" style="font-size:5.69px;font-family:&quot;Liberation Sans&quot;" text-anchor="middle" textLength="64.16">ONOCHIE FAN-OSUALA</text><path d="M182.35 346.66h67.01-.09l.35-.01.34-.07.33-.12.3-.18.27-.22.23-.26.18-.29.14-.32.08-.34.03-.35h0v-23.18h0l-.03-.35-.08-.34-.14-.32-.18-.29-.23-.26-.27-.22-.3-.17-.33-.13-.34-.07-.26-.01h-67.01l.27.01-.35-.01-.35.04-.33.1-.32.15-.28.2-.25.24-.21.27-.16.31-.11.33-.06.34-.01.18v23.18l.01-.17v.35l.06.34.11.33.16.31.21.28.25.24.28.19.32.15.33.1.35.04z" style="stroke-width:0.53;fill:#FFFFFF;fill-opacity:0.50"/><text x="215.86" y="326.68" lengthAdjust="spacingAndGlyphs" style="font-size:5.69px;font-family:&quot;Liberation Sans&quot;" text-anchor="middle" textLength="40.11">20315 SUTTER</text><text x="215.86" y="334.87" lengthAdjust="spacingAndGlyphs" style="font-size:5.69px;font-family:&quot;Liberation Sans&quot;" text-anchor="middle" textLength="55.83">CREEK DR, APT 336,</text><text x="215.86" y="343.06" lengthAdjust="spacingAndGlyphs" style="font-size:5.69px;font-family:&quot;Liberation Sans&quot;" text-anchor="middle" textLength="64.12">BROOKFIELD, WI 53045</text><path d="M63 232.66h67l-.09-.01.35-.01.34-.07.33-.12.3-.18.27-.22.23-.26.18-.29.14-.32.08-.34.03-.34h0v-23.19h0l-.03-.35-.08-.33-.14-.32-.18-.3-.23-.26-.27-.22-.3-.17-.33-.12-.34-.07-.26-.02H63l.26.02-.35-.02-.35.04-.33.1-.31.15-.29.2-.25.24-.21.28-.16.3-.11.33-.06.35v23.36-.18.35l.06.34.11.33.16.31.21.28.25.24.29.2.31.15.33.09.35.04z" style="stroke-width:0.53;fill:#FFFFFF;fill-opacity:0.50"/><text x="96.5" y="212.67" lengthAdjust="spacingAndGlyphs" style="font-size:5.69px;font-family:&quot;Liberation Sans&quot;" text-anchor="middle" textLength="40.11">20315 SUTTER</text><text x="96.5" y="220.86" lengthAdjust="spacingAndGlyphs" style="font-size:5.69px;font-family:&quot;Liberation Sans&quot;" text-anchor="middle" textLength="52.67">CREEK DR, APT 33,</text><text x="96.5" y="229.06" lengthAdjust="spacingAndGlyphs" style="font-size:5.69px;font-family:&quot;Liberation Sans&quot;" text-anchor="middle" textLength="64.12">BROOKFIELD, WI 53045</text><path d="M317.5 153.24h67-.08l.34-.01.35-.07.32-.13.3-.17.27-.22.23-.26.19-.29.13-.32.09-.34.02-.35h0V127.9h0l-.02-.35-.09-.34-.13-.32-.19-.29-.23-.26-.27-.22-.3-.17-.32-.13-.35-.07-.26-.01h-67l.26.01-.35-.01-.34.04-.34.1-.31.15-.29.19-.25.24-.21.28-.16.31-.11.33-.05.34-.01.18v23.18l.01-.17v.35l.05.34.11.33.16.31.21.28.25.24.29.19.31.15.34.1.34.04z" style="stroke-width:0.53;fill:#FFFFFF;fill-opacity:0.50"/><text x="351" y="133.25" lengthAdjust="spacingAndGlyphs" style="font-size:5.69px;font-family:&quot;Liberation Sans&quot;" text-anchor="middle" textLength="40.62">20315 SUTTON</text><text x="351" y="141.45" lengthAdjust="spacingAndGlyphs" style="font-size:5.69px;font-family:&quot;Liberation Sans&quot;" text-anchor="middle" textLength="51.09">CREEK DR APT 33,</text><text x="351" y="149.64" lengthAdjust="spacingAndGlyphs" style="font-size:5.69px;font-family:&quot;Liberation Sans&quot;" text-anchor="middle" textLength="64.12">BROOKFIELD, WI 53045</text><path d="M451.91 530.09h63.84-.08l.34-.02.34-.06.33-.13.3-.17.27-.22.23-.26.19-.3.13-.32.09-.33.02-.35h0v-14.99h0l-.02-.35-.09-.33-.13-.32-.19-.3-.23-.26-.27-.22-.3-.17-.33-.13-.34-.06-.26-.02h-63.84l.26.02-.35-.02-.35.04-.33.1-.31.15-.29.2-.25.24-.21.28-.16.3-.11.33-.06.35v15.16-.17.34l.06.35.11.33.16.31.21.27.25.24.29.2.31.15.33.1.35.04z" style="stroke-width:0.53;fill:#FFFFFF;fill-opacity:0.50"/><text x="483.83" y="518.3" lengthAdjust="spacingAndGlyphs" style="font-size:5.69px;font-family:&quot;Liberation Sans&quot;" text-anchor="middle" textLength="35.38">3467 2ND ST,</text><text x="483.83" y="526.49" lengthAdjust="spacingAndGlyphs" style="font-size:5.69px;font-family:&quot;Liberation Sans&quot;" text-anchor="middle" textLength="60.97">MILWAUKEE, WI 53212</text><path d="M286.39 416.14h67.01-.09l.35-.02.34-.07.32-.12.3-.17.27-.22.23-.26.19-.3.14-.32.08-.33.03-.35h0v-23.19h0l-.03-.34-.08-.34-.14-.32-.19-.29-.23-.26-.27-.22-.3-.18-.32-.12-.34-.07-.26-.02h-67.01l.26.02-.34-.01-.35.04-.33.09-.32.15-.28.2-.25.24-.21.28-.17.31-.11.33-.05.34-.01.17v23.19l.01-.17v.34l.05.35.11.33.17.3.21.28.25.24.28.2.32.15.33.1.35.04z" style="stroke-width:0.53;fill:#FFFFFF;fill-opacity:0.50"/><text x="319.89" y="396.15" lengthAdjust="spacingAndGlyphs" style="font-size:5.69px;font-family:&quot;Liberation Sans&quot;" text-anchor="middle" textLength="40.11">20315 SUTTER</text><text x="319.89" y="404.35" lengthAdjust="spacingAndGlyphs" style="font-size:5.69px;font-family:&quot;Liberation Sans&quot;" text-anchor="middle" textLength="55.83">CREEK DR, APT 336,</text><text x="319.89" y="412.54" lengthAdjust="spacingAndGlyphs" style="font-size:5.69px;font-family:&quot;Liberation Sans&quot;" text-anchor="middle" textLength="64.12">BROOKFIELD, WI 53045</text></g><g clip-path="url(#cpMC4wMHw1NzYuMDB8MC4wMHw1NzYuMDA=)"><circle cx="194.2" cy="97.06" r="1.95" style="stroke-width:0.71;stroke:none;fill:#F8766D"/><path d="m270.6 94.02 2.63 4.56h-5.26z" style="stroke-width:0.71;stroke:none;fill:#00BA38"/><path d="M336.6 99.01h3.91V95.1h-3.91z" style="stroke-width:0.71;stroke:none;fill:#619CFF"/><text x="208.32" y="100.22" lengthAdjust="spacingAndGlyphs" style="font-size:8.80px;font-weight:0;font-family:&quot;Nimbus Sans Narrow&quot;" textLength="48.16">mprop address</text><text x="284.72" y="100.22" lengthAdjust="spacingAndGlyphs" style="font-size:8.80px;font-weight:0;font-family:&quot;Nimbus Sans Narrow&quot;" textLength="39.72">owner name</text><text x="352.68" y="100.22" lengthAdjust="spacingAndGlyphs" style="font-size:8.80px;font-weight:0;font-family:&quot;Nimbus Sans Narrow&quot;" textLength="40.5">wdfi address</text><text x="32.63" y="65.35" lengthAdjust="spacingAndGlyphs" style="font-size:12.00px;font-weight:0;font-family:&quot;Nimbus Sans Narrow&quot;" textLength="246.64">includes 9 parcels, 18 units, and 3 distinct owner names.</text><text x="32.63" y="42.81" lengthAdjust="spacingAndGlyphs" style="font-size:18.00px;font-weight:0;font-family:&quot;Nimbus Sans Narrow&quot;" textLength="445.2">UDALAM LLC -- ONOCHIE FAN-OSUALA -- REXON8 LLC Group</text></g></g></svg>