<svg xmlns="http://www.w3.org/2000/svg" width="960" height="960" class="svglite" viewBox="0 0 720 720"><defs><style><![CDATA[.svglite line,.svglite polyline,.svglite polygon,.svglite path,.svglite circle{fill:none;stroke:#000000;stroke-linecap:round;stroke-linejoin:round;stroke-miterlimit:10.00}.svglite text{white-space:pre}]]></style></defs><rect width="100%" height="100%" style="stroke-linecap:round;stroke-linejoin:round;stroke-miterlimit:10.00;stroke:none;fill:#FFFFFF"/><defs><clipPath id="cpMC4wMHw3MjAuMDB8MC4wMHw3MjAuMDA="><path d="M0 0h720v720H0z"/></clipPath></defs><g clip-path="url(#cpMC4wMHw3MjAuMDB8MC4wMHw3MjAuMDA=)"><path d="M0 0h720v720H0z" style="stroke-width:1.07;stroke:none;fill:#FFFFFF"/></g><defs><clipPath id="cpMzIuNjN8NjkwLjExfDEyMC44Nnw2ODcuMzc="><path d="M32.63 120.86h657.48v566.51H32.63z"/></clipPath></defs><g clip-path="url(#cpMzIuNjN8NjkwLjExfDEyMC44Nnw2ODcuMzc=)"><path d="m541.51 347.54-1.11-1.32-1.11-1.31-1.12-1.29-1.12-1.27-1.13-1.26-1.13-1.25-1.14-1.23-1.15-1.22-1.15-1.2-1.15-1.19-1.16-1.17-1.17-1.16-1.17-1.15-1.17-1.13-1.18-1.11-1.19-1.11-1.19-1.08-1.2-1.08-1.21-1.06-1.2-1.04-1.22-1.03-1.22-1.02-1.22-1-1.23-.99-1.24-.97-1.24-.96-1.24-.94-1.26-.93-1.25-.92-1.27-.9-1.26-.88-1.28-.87-1.27-.86-1.29-.84-1.29-.83-1.29-.82-1.3-.8-1.31-.78-1.31-.77-1.31-.76-1.32-.74-1.33-.73-1.33-.71-1.34-.7-1.34-.69-1.35-.67-1.35-.65-1.36-.65-1.37-.62-1.37-.62-1.37-.59-1.38-.59-1.39-.57-1.39-.55-1.4-.54-1.4-.53-1.41-.51-1.41-.5-1.42-.48-1.42-.47-1.43-.46-1.43-.44-1.44-.42-1.45-.41-1.45-.4-1.45-.38-1.46-.37-1.47-.35-1.47-.34-1.48-.33-1.48-.31-1.49-.29-1.49-.28-1.5-.27-1.5-.25-1.51-.24-1.52-.23-1.52-.21-1.52-.19-1.53-.18-1.54-.17-1.54-.15-1.55-.14-1.55-.12-1.56-.11-1.56-.1-1.57-.08-1.57-.06-1.58-.05-1.58-.04-1.59-.02-1.6-.01-1.6.01-1.6.02-1.61.03-1.62.05-1.62.07-1.63.07-1.63.1" style="stroke-width:1.07;stroke:#000000;stroke-opacity:0.10;stroke-linecap:butt"/><path d="m541.51 347.54-1.14-1.25-1.14-1.23-1.14-1.22-1.15-1.2-1.15-1.19-1.16-1.18-1.16-1.17-1.17-1.15-1.17-1.15-1.18-1.12-1.18-1.12-1.19-1.1-1.19-1.09-1.2-1.08-1.2-1.06-1.21-1.05-1.21-1.04-1.21-1.02-1.23-1.02-1.22-.99-1.23-.99-1.24-.97-1.24-.96-1.24-.95-1.25-.94-1.25-.92-1.26-.91-1.27-.89-1.27-.89-1.27-.87-1.28-.86-1.28-.84-1.29-.83-1.29-.82-1.3-.81-1.3-.79-1.31-.78-1.31-.77-1.32-.75-1.32-.74-1.33-.73-1.33-.72-1.33-.7-1.34-.69-1.35-.68-1.35-.66L483 303l-1.36-.64-1.36-.63-1.37-.61-1.37-.6-1.38-.59-1.39-.57-1.39-.56-1.39-.55-1.4-.54-1.4-.52-1.41-.51-1.41-.49-1.42-.49-1.42-.47-1.43-.46-1.43-.44-1.44-.43-1.44-.42-1.45-.41-1.45-.39-1.45-.39-1.46-.36-1.47-.36-1.47-.34-1.48-.33-1.48-.32-1.48-.3-1.49-.29-1.49-.28-1.5-.26-1.51-.26-1.51-.23-1.51-.23-1.52-.21-1.52-.2-1.53-.19-1.53-.18-1.54-.16-1.54-.15-1.55-.13-1.55-.13-1.56-.11-1.56-.1-1.57-.08-1.57-.07-1.58-.06-1.58-.05-1.58-.03-1.59-.02-1.6-.01-1.6.01-1.6.02m69.71 112.47-.71-1.13-.7-1.14-.71-1.14-.7-1.13-.7-1.14-.71-1.14-.7-1.13-.71-1.14-.7-1.13-.71-1.14-.7-1.14-.7-1.13-.71-1.14-.7-1.13-.71-1.14-.7-1.14-.7-1.13-.71-1.14-.7-1.13-.71-1.14-.7-1.14-.71-1.13-.7-1.14-.7-1.14-.71-1.13-.7-1.14-.71-1.13-.7-1.14-.7-1.14-.71-1.13-.7-1.14-.71-1.13-.7-1.14-.7-1.14-.71-1.13-.7-1.14-.71-1.13-.7-1.14-.71-1.14-.7-1.13-.7-1.14-.71-1.13-.7-1.14-.71-1.14-.7-1.13-.7-1.14-.71-1.14-.7-1.13-.71-1.14-.7-1.13-.7-1.14-.71-1.14-.7-1.13-.71-1.14-.7-1.13-.71-1.14-.7-1.14-.7-1.13-.71-1.14-.7-1.13-.71-1.14-.7-1.14-.7-1.13-.71-1.14-.7-1.14-.71-1.13-.7-1.14-.71-1.13-.7-1.14-.7-1.14-.71-1.13-.7-1.14-.71-1.13-.7-1.14-.7-1.14-.71-1.13-.7-1.14-.71-1.13-.7-1.14-.7-1.14-.71-1.13-.7-1.14-.71-1.14-.7-1.13-.71-1.14-.7-1.13-.7-1.14-.71-1.14-.7-1.13-.71-1.14-.7-1.13-.7-1.14-.71-1.14-.7-1.13-.71-1.14-.7-1.13-.7-1.14-.71-1.14-.7-1.13" style="stroke-width:1.07;stroke:#000000;stroke-opacity:0.10;stroke-linecap:butt"/><path d="m505.35 286.34-1-.02-1-.02-1.01-.02-1-.02-1.01-.02-1-.02-1.01-.02-1-.02-1.01-.01-1-.02-1.01-.02-1-.01-1-.02-1.01-.01-1-.02-1.01-.01-1-.01-1.01-.02-1-.01-1.01-.01-1-.01-1.01-.01-1-.01-1-.01-1.01-.01h-1l-1.01-.01-1-.01h-1.01l-1-.01-1.01-.01h-2l-1.01-.01h-2.01l-1-.01h-5.02l-1.01.01h-3.01l-1.01.01h-1l-1.01.01h-1l-1 .01h-1.01l-1 .01-1.01.01-1 .01-1.01.01-1 .01-1.01.01-1 .01-1 .01-1.01.01-1 .01-1.01.01-1 .02-1.01.01-1 .01-1 .02-1.01.01-1 .02-1.01.02-1 .01-1.01.02-1 .02-1.01.02-1 .02-1 .02-1.01.02-1 .02-1.01.02-1 .02-1.01.02-1 .03-1 .02-1.01.03-1 .02-1.01.03-1 .02-1.01.03-1 .03-1 .02-1.01.03-1 .03-1.01.03-1 .03-1.01.03-1 .03-1 .03-1.01.03-1 .04" style="stroke-width:1.07;stroke:#000000;stroke-opacity:0.10;stroke-linecap:butt"/><path d="m516.57 216.15-1.12.72-1.12.71-1.11.72-1.12.71-1.12.72-1.12.71-1.11.71-1.12.72-1.12.71-1.12.72-1.12.71-1.11.72-1.12.71-1.12.71-1.12.72-1.11.71-1.12.72-1.12.71-1.12.72-1.11.71-1.12.72-1.12.71-1.12.71-1.12.72-1.11.71-1.12.72-1.12.71-1.12.72-1.11.71-1.12.71-1.12.72-1.12.71-1.11.72-1.12.71-1.12.72-1.12.71-1.12.72-1.11.71-1.12.71-1.12.72-1.12.71-1.11.72-1.12.71-1.12.72-1.12.71-1.11.71-1.12.72-1.12.71-1.12.72-1.12.71-1.11.72-1.12.71-1.12.72-1.12.71-1.11.71-1.12.72-1.12.71-1.12.72-1.12.71-1.11.72-1.12.71-1.12.71-1.12.72-1.11.71-1.12.72-1.12.71-1.12.72-1.11.71-1.12.72-1.12.71-1.12.71-1.12.72-1.11.71-1.12.72-1.12.71-1.12.72-1.11.71-1.12.72-1.12.71-1.12.71-1.11.72-1.12.71-1.12.72-1.12.71-1.12.72-1.11.71-1.12.71-1.12.72-1.12.71-1.11.72-1.12.71-1.12.72-1.12.71-1.11.72-1.12.71-1.12.71-1.12.72-1.12.71-1.11.72m64.81-117.71-.66 1.19-.65 1.19-.66 1.19-.65 1.19-.66 1.19-.65 1.19-.66 1.19-.65 1.19-.65 1.19-.66 1.18-.65 1.19-.66 1.19-.65 1.19-.66 1.19-.65 1.19-.66 1.19-.65 1.19-.66 1.19-.65 1.18-.66 1.19-.65 1.19-.66 1.19-.65 1.19-.65 1.19-.66 1.19-.65 1.19-.66 1.19-.65 1.18-.66 1.19-.65 1.19-.66 1.19-.65 1.19-.66 1.19-.65 1.19-.66 1.19-.65 1.19-.66 1.18-.65 1.19-.65 1.19-.66 1.19-.65 1.19-.66 1.19-.65 1.19-.66 1.19-.65 1.19-.66 1.18-.65 1.19-.66 1.19-.65 1.19-.66 1.19-.65 1.19-.65 1.19-.66 1.19-.65 1.19-.66 1.19-.65 1.18-.66 1.19-.65 1.19-.66 1.19-.65 1.19-.66 1.19-.65 1.19-.66 1.19-.65 1.19-.66 1.18-.65 1.19-.65 1.19-.66 1.19-.65 1.19-.66 1.19-.65 1.19-.66 1.19-.65 1.19-.66 1.18-.65 1.19-.66 1.19-.65 1.19-.66 1.19-.65 1.19-.65 1.19-.66 1.19-.65 1.19-.66 1.18-.65 1.19-.66 1.19-.65 1.19-.66 1.19-.65 1.19-.66 1.19-.65 1.19-.66 1.19-.65 1.18-.66 1.19-.65 1.19-.65 1.19-.66 1.19-.65 1.19-.66 1.19-.65 1.19m135.59 60.66-1.16-1.17-1.17-1.16-1.17-1.15-1.18-1.13-1.17-1.13-1.19-1.11-1.19-1.1-1.19-1.09-1.19-1.08-1.2-1.07-1.21-1.05-1.21-1.05-1.21-1.03-1.22-1.02-1.22-1.02-1.22-.99-1.23-.99-1.24-.98-1.23-.96-1.25-.96-1.24-.94-1.25-.93-1.26-.92-1.26-.91-1.26-.9-1.27-.88-1.27-.87-1.28-.87-1.28-.85-1.28-.84-1.29-.83-1.3-.82-1.29-.8-1.31-.8-1.3-.78-1.31-.77-1.32-.76-1.32-.75-1.32-.74-1.33-.72-1.33-.72-1.33-.7-1.34-.7-1.35-.68-1.35-.67-1.35-.65-1.36-.65-1.36-.64-1.36-.62-1.37-.61-1.38-.6-1.37-.59-1.39-.58-1.38-.57-1.39-.56-1.4-.54-1.4-.53-1.4-.53-1.41-.51-1.41-.49-1.42-.49-1.42-.48-1.42-.46-1.43-.46-1.43-.44-1.44-.43-1.44-.42-1.45-.41-1.45-.39-1.45-.39-1.46-.37-1.47-.37-1.46-.35-1.47-.34-1.48-.33-1.48-.31-1.48-.31-1.49-.29-1.49-.29-1.5-.27-1.5-.26-1.51-.25-1.51-.24-1.51-.22-1.52-.22-1.52-.2-1.53-.19-1.53-.18-1.53-.17-1.54-.16-1.54-.15-1.55-.13-1.55-.13-1.56-.11-1.56-.1-1.56-.09-1.57-.08-1.58-.07-1.57-.05M124.37 481.63l1.17.49 1.17.48 1.16.49 1.17.48 1.17.49 1.16.48 1.17.48 1.16.49 1.17.48 1.17.49 1.16.48 1.17.49 1.17.48 1.16.48 1.17.49 1.17.48 1.16.49 1.17.48 1.17.49 1.16.48 1.17.48 1.16.49 1.17.48 1.17.49 1.16.48 1.17.49 1.17.48 1.16.48 1.17.49 1.17.48 1.16.49 1.17.48 1.17.49 1.16.48 1.17.48 1.16.49 1.17.48 1.17.49 1.16.48 1.17.49 1.17.48 1.16.48 1.17.49 1.17.48 1.16.49 1.17.48 1.17.49 1.16.48 1.17.48 1.16.49 1.17.48 1.17.49 1.16.48 1.17.49 1.17.48 1.16.48 1.17.49 1.17.48 1.16.49 1.17.48 1.17.49 1.16.48 1.17.48 1.16.49 1.17.48 1.17.49 1.16.48 1.17.49 1.17.48 1.16.48 1.17.49 1.17.48 1.16.49 1.17.48 1.17.48 1.16.49 1.17.48 1.16.49 1.17.48 1.17.49 1.16.48 1.17.48 1.17.49 1.16.48 1.17.49 1.17.48 1.16.49 1.17.48 1.17.48 1.16.49 1.17.48 1.16.49 1.17.48 1.17.49 1.16.48 1.17.48 1.17.49 1.16.48 1.17.49m56.34 129.79-.57-1.31-.57-1.31-.57-1.31-.57-1.31-.57-1.31-.57-1.31-.56-1.31-.57-1.31-.57-1.32-.57-1.31-.57-1.31-.57-1.31-.57-1.31-.57-1.31-.57-1.31-.57-1.31-.57-1.31-.56-1.32-.57-1.31-.57-1.31-.57-1.31-.57-1.31-.57-1.31-.57-1.31-.57-1.31-.57-1.31-.57-1.32-.57-1.31-.56-1.31-.57-1.31-.57-1.31-.57-1.31-.57-1.31-.57-1.31-.57-1.31-.57-1.31-.57-1.32-.57-1.31-.57-1.31-.56-1.31-.57-1.31-.57-1.31-.57-1.31-.57-1.31-.57-1.31-.57-1.32-.57-1.31-.57-1.31-.57-1.31-.57-1.31-.56-1.31-.57-1.31-.57-1.31-.57-1.31-.57-1.32-.57-1.31-.57-1.31-.57-1.31-.57-1.31-.57-1.31-.57-1.31-.56-1.31-.57-1.31-.57-1.31-.57-1.32-.57-1.31-.57-1.31-.57-1.31-.57-1.31-.57-1.31-.57-1.31-.57-1.31-.56-1.31-.57-1.32-.57-1.31-.57-1.31-.57-1.31-.57-1.31-.57-1.31-.57-1.31-.57-1.31-.57-1.31-.57-1.32-.56-1.31-.57-1.31-.57-1.31-.57-1.31-.57-1.31-.57-1.31-.57-1.31-.57-1.31-.57-1.32-.57-1.31-.57-1.31-.56-1.31-.57-1.31-.57-1.31-.57-1.31-.57-1.31m175.64-382.97-.1 1.42-.1 1.42-.09 1.41-.1 1.42-.1 1.42-.09 1.41-.1 1.42-.1 1.42-.09 1.41-.1 1.42-.1 1.42-.09 1.41-.1 1.42-.1 1.42-.09 1.42-.1 1.41-.1 1.42-.09 1.42-.1 1.41-.1 1.42-.09 1.42-.1 1.41-.1 1.42-.09 1.42-.1 1.41-.1 1.42-.09 1.42-.1 1.41-.1 1.42-.09 1.42-.1 1.41-.1 1.42-.09 1.42-.1 1.41-.1 1.42-.09 1.42-.1 1.42-.1 1.41-.09 1.42-.1 1.42-.1 1.41-.09 1.42-.1 1.42-.1 1.41-.09 1.42-.1 1.42-.1 1.41-.09 1.42-.1 1.42-.1 1.41-.09 1.42-.1 1.42-.1 1.41-.09 1.42-.1 1.42-.1 1.41-.09 1.42-.1 1.42-.1 1.41-.09 1.42-.1 1.42-.1 1.42-.09 1.41-.1 1.42-.1 1.42-.09 1.41-.1 1.42-.1 1.42-.09 1.41-.1 1.42-.1 1.42-.09 1.41-.1 1.42-.1 1.42-.09 1.41-.1 1.42-.1 1.42-.09 1.41-.1 1.42-.1 1.42-.09 1.41-.1 1.42-.1 1.42-.09 1.42-.1 1.41-.1 1.42-.09 1.42-.1 1.41-.1 1.42-.09 1.42-.1 1.41-.1 1.42-.09 1.42-.1 1.41-.1 1.42-.09 1.42-.1 1.41-.1 1.42-.09 1.42M286.14 387.37l-.47 1.44-.47 1.44-.47 1.43-.46 1.44-.47 1.44-.47 1.43-.47 1.44-.46 1.43-.47 1.44-.47 1.44-.47 1.43-.47 1.44-.46 1.44-.47 1.43-.47 1.44-.47 1.44-.46 1.43-.47 1.44-.47 1.44-.47 1.43-.46 1.44-.47 1.43-.47 1.44-.47 1.44-.46 1.43-.47 1.44-.47 1.44-.47 1.43-.46 1.44-.47 1.44-.47 1.43-.47 1.44-.46 1.44-.47 1.43-.47 1.44-.47 1.43-.46 1.44-.47 1.44-.47 1.43-.47 1.44-.46 1.44-.47 1.43-.47 1.44-.47 1.44-.46 1.43-.47 1.44-.47 1.43-.47 1.44-.46 1.44-.47 1.43-.47 1.44-.47 1.44-.46 1.43-.47 1.44-.47 1.44-.47 1.43-.46 1.44-.47 1.44-.47 1.43-.47 1.44-.46 1.43-.47 1.44-.47 1.44-.47 1.43-.46 1.44-.47 1.44-.47 1.43-.47 1.44-.46 1.44-.47 1.43-.47 1.44-.47 1.43-.46 1.44-.47 1.44-.47 1.43-.47 1.44-.46 1.44-.47 1.43-.47 1.44-.47 1.44-.47 1.43-.46 1.44-.47 1.44-.47 1.43-.47 1.44-.46 1.43-.47 1.44-.47 1.44-.47 1.43-.46 1.44-.47 1.44-.47 1.43-.47 1.44-.46 1.44-.47 1.43-.47 1.44-.47 1.43-.46 1.44-.47 1.44" style="stroke-width:1.07;stroke:#000000;stroke-opacity:0.10;stroke-linecap:butt"/><path d="m541.51 347.54-1.19-1.1-1.2-1.08-1.19-1.08-1.2-1.07-1.21-1.05-1.21-1.05-1.21-1.03-1.21-1.03-1.22-1.02-1.22-1-1.23-1-1.23-.99-1.23-.98-1.24-.96-1.24-.96-1.25-.95-1.25-.94-1.25-.92-1.25-.92-1.26-.91-1.27-.9-1.26-.89-1.27-.88-1.28-.86-1.28-.86-1.28-.85-1.28-.84-1.29-.83-1.29-.82-1.3-.81-1.3-.8-1.3-.79-1.31-.78-1.31-.77-1.32-.76-1.31-.75-1.33-.74-1.32-.73-1.33-.72-1.33-.72-1.34-.7-1.34-.69-1.34-.68-1.35-.67-1.35-.66-1.36-.66-1.36-.64-1.36-.63-1.36-.62-1.37-.62-1.38-.6-1.37-.59-1.38-.59-1.39-.57-1.39-.56-1.39-.56-1.39-.54-1.4-.53-1.41-.53-1.4-.51-1.41-.51-1.42-.49-1.41-.49-1.42-.47-1.43-.47-1.43-.45-1.43-.45-1.43-.43-1.44-.43-1.45-.41-1.44-.41-1.45-.39-1.46-.39-1.46-.38-1.46-.36-1.46-.36-1.47-.35-1.47-.33-1.48-.33-1.48-.32-1.48-.3-1.49-.3-1.49-.29-1.5-.28-1.49-.27-1.51-.25-1.5-.25-1.51-.24-1.51-.23-1.52-.22-1.52-.21-1.52-.2-1.53-.18-1.53-.18-1.54-.17-1.54-.16-1.54-.15-1.54-.14-1.55-.13" style="stroke-width:1.07;stroke:#000000;stroke-opacity:0.10;stroke-linecap:butt"/><path d="m357.11 152.32.5 1.36.49 1.36.49 1.36.49 1.36.5 1.36.49 1.36.49 1.36.5 1.36.49 1.36.49 1.36.49 1.35.5 1.36.49 1.36.49 1.36.5 1.36.49 1.36.49 1.36.5 1.36.49 1.36.49 1.36.49 1.36.5 1.35.49 1.36.49 1.36.5 1.36.49 1.36.49 1.36.5 1.36.49 1.36.49 1.36.49 1.36.5 1.36.49 1.35.49 1.36.5 1.36.49 1.36.49 1.36.5 1.36.49 1.36.49 1.36.49 1.36.5 1.36.49 1.36.49 1.36.5 1.35.49 1.36.49 1.36.5 1.36.49 1.36.49 1.36.49 1.36.5 1.36.49 1.36.49 1.36.5 1.36.49 1.35.49 1.36.49 1.36.5 1.36.49 1.36.49 1.36.5 1.36.49 1.36.49 1.36.5 1.36.49 1.36.49 1.36.49 1.35.5 1.36.49 1.36.49 1.36.5 1.36.49 1.36.49 1.36.5 1.36.49 1.36.49 1.36.49 1.36.5 1.35.49 1.36.49 1.36.5 1.36.49 1.36.49 1.36.5 1.36.49 1.36.49 1.36.49 1.36.5 1.36.49 1.36.49 1.35.5 1.36.49 1.36.49 1.36.49 1.36.5 1.36.49 1.36.49 1.36.5 1.36" style="stroke-width:1.07;stroke:#000000;stroke-opacity:0.10;stroke-linecap:butt"/><path d="m541.51 347.54-1.22-1.03-1.22-1.01-1.22-1-1.23-1-1.23-.99-1.23-.98-1.24-.97-1.24-.96-1.24-.95-1.25-.95-1.24-.94-1.26-.93-1.25-.92-1.26-.91-1.26-.91-1.26-.89-1.27-.89-1.27-.88-1.27-.87-1.28-.86-1.28-.86-1.28-.84-1.29-.84-1.29-.83-1.29-.82-1.29-.81-1.3-.81-1.3-.79-1.31-.79-1.3-.78-1.31-.77-1.32-.77-1.32-.75-1.32-.75-1.32-.73-1.32-.73-1.33-.72-1.34-.72-1.33-.7-1.34-.7-1.34-.69-1.35-.67-1.34-.68-1.35-.66-1.36-.65-1.36-.65-1.36-.64-1.36-.63-1.37-.62-1.37-.61-1.37-.6-1.37-.6-1.38-.59-1.39-.58-1.38-.57-1.39-.56-1.39-.56-1.39-.54-1.4-.54-1.4-.53-1.41-.52-1.4-.51-1.41-.51-1.42-.49-1.41-.49-1.42-.48-1.42-.47-1.43-.46-1.43-.46-1.43-.44-1.44-.44-1.43-.43-1.44-.42-1.45-.41-1.45-.41-1.45-.4-1.45-.38-1.46-.38-1.46-.37-1.46-.37-1.46-.35-1.47-.35-1.48-.33-1.47-.33-1.48-.32-1.48-.32-1.49-.3-1.48-.3-1.49-.28-1.5-.28-1.5-.27-1.5-.27-1.5-.25-1.5-.25-1.51-.24-1.52-.22-1.51-.23-1.52-.21-1.52-.2m135.59 60.66 1.2.21 1.2.22 1.2.22 1.19.22 1.2.22 1.2.22 1.2.22 1.2.22 1.2.22 1.2.22 1.2.21 1.2.22 1.2.22 1.2.22 1.2.22 1.19.22 1.2.22 1.2.22 1.2.22 1.2.22 1.2.21 1.2.22 1.2.22 1.2.22 1.2.22 1.2.22 1.2.22 1.19.22 1.2.22 1.2.22 1.2.21 1.2.22 1.2.22 1.2.22 1.2.22 1.2.22 1.2.22 1.2.22 1.2.22 1.19.21 1.2.22 1.2.22 1.2.22 1.2.22 1.2.22 1.2.22 1.2.22 1.2.22 1.2.22 1.2.21 1.2.22 1.19.22 1.2.22 1.2.22 1.2.22 1.2.22 1.2.22 1.2.22 1.2.22 1.2.21 1.2.22 1.2.22 1.2.22 1.2.22 1.19.22 1.2.22 1.2.22 1.2.22 1.2.22 1.2.21 1.2.22 1.2.22 1.2.22 1.2.22 1.2.22 1.2.22 1.19.22 1.2.22 1.2.21 1.2.22 1.2.22 1.2.22 1.2.22 1.2.22 1.2.22 1.2.22 1.2.22 1.2.22 1.19.21 1.2.22 1.2.22 1.2.22 1.2.22 1.2.22 1.2.22 1.2.22 1.2.22 1.2.22 1.2.21M154.54 623.27l.86-.94.87-.95.86-.94.86-.95.86-.95.86-.94.86-.95.87-.95.86-.94.86-.95.86-.95.86-.94.86-.95.87-.95.86-.94.86-.95.86-.94.86-.95.86-.95.87-.94.86-.95.86-.95.86-.94.86-.95.86-.95.87-.94.86-.95.86-.95.86-.94.86-.95.86-.95.87-.94.86-.95.86-.94.86-.95.86-.95.86-.94.87-.95.86-.95.86-.94.86-.95.86-.95.86-.94.87-.95.86-.95.86-.94.86-.95.86-.94.86-.95.87-.95.86-.94.86-.95.86-.95.86-.94.86-.95.87-.95.86-.94.86-.95.86-.95.86-.94.87-.95.86-.94.86-.95.86-.95.86-.94.86-.95.87-.95.86-.94.86-.95.86-.95.86-.94.86-.95.87-.95.86-.94.86-.95.86-.94.86-.95.86-.95.87-.94.86-.95.86-.95.86-.94.86-.95.86-.95.87-.94.86-.95.86-.95.86-.94.86-.95.86-.94.87-.95.86-.95.86-.94.86-.95.86-.95.86-.94.87-.95.86-.95.86-.94m76.63-264.12.89.26.89.27.9.26.89.26.9.26.89.26.9.26.89.26.9.26.89.26.9.25.89.25.9.26.9.25.89.25.9.25.9.25.89.25.9.25.9.24.89.25.9.24.9.25.9.24.9.24.9.24.9.24.89.24.9.24.9.23.9.24.9.23.9.24.9.23.9.23.9.23.9.23.91.23.9.22.9.23.9.23.9.22.9.22.91.23.9.22.9.22.9.22.91.22.9.21.9.22.91.22.9.21.91.21.9.22.9.21.91.21.9.21.91.2.9.21.91.21.9.2.91.21.91.2.9.2.91.21.91.2.9.2.91.19.91.2.9.2.91.19.91.2.91.19.91.19.9.19.91.19.91.19.91.19.91.19.91.19.91.18.91.19.91.18.91.18.91.18.91.18.91.18.91.18.91.18.92.17.91.18.91.17.91.18.91.17.92.17.91.17.91.17.91.17.92.17" style="stroke-width:1.07;stroke:#000000;stroke-opacity:0.10;stroke-linecap:butt"/><path d="m316.48 265.46.9.21.9.22.91.22.9.21.9.22.91.21.9.22.9.22.91.21.9.22.9.22.91.21.9.22.9.22.91.21.9.22.9.21.91.22.9.22.9.21.91.22.9.22.91.21.9.22.9.22.91.21.9.22.9.21.91.22.9.22.9.21.91.22.9.22.9.21.91.22.9.22.9.21.91.22.9.22.9.21.91.22.9.21.9.22.91.22.9.21.9.22.91.22.9.21.9.22.91.22.9.21.91.22.9.21.9.22.91.22.9.21.9.22.91.22.9.21.9.22.91.22.9.21.9.22.91.21.9.22.9.22.91.21.9.22.9.22.91.21.9.22.9.22.91.21.9.22.9.21.91.22.9.22.9.21.91.22.9.22.9.21.91.22.9.22.91.21.9.22.9.21.91.22.9.22.9.21.91.22.9.22.9.21.91.22.9.22.9.21.91.22.9.21.9.22.91.22m-95.2-93.34.96.95.96.94.96.94.96.94.97.95.96.94.96.94.96.95.96.94.96.94.97.94.96.95.96.94.96.94.96.95.96.94.96.94.97.94.96.95.96.94.96.94.96.94.96.95.97.94.96.94.96.95.96.94.96.94.96.94.97.95.96.94.96.94.96.94.96.95.96.94.97.94.96.95.96.94.96.94.96.94.96.95.97.94.96.94.96.95.96.94.96.94.96.94.96.95.97.94.96.94.96.94.96.95.96.94.96.94.97.95.96.94.96.94.96.94.96.95.96.94.97.94.96.95.96.94.96.94.96.94.96.95.97.94.96.94.96.94.96.95.96.94.96.94.97.95.96.94.96.94.96.94.96.95.96.94.96.94.97.94.96.95.96.94.96.94.96.95.96.94.97.94.96.94.96.95.96.94.96.94.96.95.97.94.96.94.96.94.96.95.96.94.96.94.97.94.96.95m135.59 60.66-1.25-.95-1.25-.94-1.25-.93-1.25-.93-1.25-.92-1.26-.91-1.26-.91-1.26-.9-1.27-.89-1.27-.89-1.27-.87-1.27-.88-1.28-.86-1.27-.86-1.28-.85-1.29-.85-1.28-.83-1.29-.83-1.29-.83-1.3-.82-1.29-.81-1.3-.8-1.3-.8-1.3-.79-1.31-.78-1.31-.78-1.31-.77-1.31-.76-1.32-.75-1.32-.75-1.32-.75-1.32-.73-1.33-.73-1.33-.72-1.33-.72-1.33-.71-1.34-.7-1.34-.69-1.34-.69-1.35-.68-1.34-.67-1.35-.67-1.35-.66-1.36-.66-1.36-.64-1.35-.64-1.37-.64-1.36-.62-1.37-.62-1.37-.61-1.37-.61-1.37-.6-1.38-.59-1.38-.59-1.38-.57-1.39-.58-1.39-.56-1.39-.56-1.39-.55-1.39-.55-1.4-.53-1.4-.53-1.4-.53-1.41-.52-1.41-.51-1.41-.5-1.41-.5-1.42-.49-1.41-.48-1.42-.48-1.43-.47-1.42-.46-1.43-.45-1.43-.45-1.43-.45-1.44-.43-1.44-.43-1.44-.42-1.44-.42-1.45-.4-1.45-.41-1.45-.39-1.45-.39-1.46-.38-1.46-.37-1.46-.37-1.46-.36-1.47-.35-1.47-.35-1.47-.34-1.47-.33-1.48-.33-1.48-.32-1.48-.31-1.48-.31-1.49-.3-1.49-.29-1.49-.28-1.49-.28" style="stroke-width:1.07;stroke:#000000;stroke-opacity:0.10;stroke-linecap:butt"/><path d="m413.42 392.18-.08-1.06-.07-1.07-.08-1.06-.07-1.06-.08-1.07-.07-1.06-.08-1.06-.08-1.07-.07-1.06-.08-1.06-.07-1.07-.08-1.06-.07-1.07-.08-1.06-.08-1.06-.07-1.07-.08-1.06-.07-1.06-.08-1.07-.08-1.06-.07-1.07-.08-1.06-.07-1.06-.08-1.07-.07-1.06-.08-1.06-.08-1.07-.07-1.06-.08-1.06-.07-1.07-.08-1.06-.07-1.07-.08-1.06-.08-1.06-.07-1.07-.08-1.06-.07-1.06-.08-1.07-.08-1.06-.07-1.07-.08-1.06-.07-1.06-.08-1.07-.07-1.06-.08-1.06-.08-1.07-.07-1.06-.08-1.06-.07-1.07-.08-1.06-.07-1.07-.08-1.06-.08-1.06-.07-1.07-.08-1.06-.07-1.06-.08-1.07-.08-1.06-.07-1.07-.08-1.06-.07-1.06-.08-1.07-.07-1.06-.08-1.06-.08-1.07-.07-1.06-.08-1.06-.07-1.07-.08-1.06-.08-1.07-.07-1.06-.08-1.06-.07-1.07-.08-1.06-.07-1.06-.08-1.07-.08-1.06-.07-1.07-.08-1.06-.07-1.06-.08-1.07-.07-1.06-.08-1.06-.08-1.07-.07-1.06-.08-1.06-.07-1.07-.08-1.06-.08-1.07-.07-1.06-.08-1.06-.07-1.07-.08-1.06-.07-1.06-.08-1.07-.08-1.06-.07-1.07-.08-1.06-.07-1.06M286.14 387.37l-1.21-.79-1.2-.8-1.2-.79-1.2-.8-1.21-.79-1.2-.8-1.2-.79-1.2-.8-1.21-.79-1.2-.8-1.2-.8-1.21-.79-1.2-.8-1.2-.79-1.2-.8-1.21-.79-1.2-.8-1.2-.79-1.2-.8-1.21-.79-1.2-.8-1.2-.8-1.2-.79-1.21-.8-1.2-.79-1.2-.8-1.2-.79-1.21-.8-1.2-.79-1.2-.8-1.2-.79-1.21-.8-1.2-.79-1.2-.8-1.2-.8-1.21-.79-1.2-.8-1.2-.79-1.2-.8-1.21-.79-1.2-.8-1.2-.79-1.2-.8-1.21-.79-1.2-.8-1.2-.79-1.2-.8-1.21-.8-1.2-.79-1.2-.8-1.2-.79-1.21-.8-1.2-.79-1.2-.8-1.2-.79-1.21-.8-1.2-.79-1.2-.8-1.2-.8-1.21-.79-1.2-.8-1.2-.79-1.2-.8-1.21-.79-1.2-.8-1.2-.79-1.2-.8-1.21-.79-1.2-.8-1.2-.79-1.2-.8-1.21-.8-1.2-.79-1.2-.8-1.21-.79-1.2-.8-1.2-.79-1.2-.8-1.21-.79-1.2-.8-1.2-.79-1.2-.8-1.21-.79-1.2-.8-1.2-.8-1.2-.79-1.21-.8-1.2-.79-1.2-.8-1.2-.79-1.21-.8-1.2-.79-1.2-.8-1.2-.79-1.21-.8-1.2-.8-1.2-.79-1.2-.8-1.21-.79m374.43 38.91-1.28-.88-1.27-.86-1.28-.87-1.28-.85-1.28-.85-1.28-.85-1.28-.84-1.29-.84-1.29-.83-1.29-.82-1.29-.82-1.3-.82-1.29-.8-1.3-.81-1.3-.8-1.3-.79-1.31-.79-1.3-.78-1.31-.78-1.31-.77-1.31-.77-1.32-.76-1.31-.75-1.32-.75-1.32-.75-1.33-.74-1.32-.73-1.33-.73-1.32-.73-1.33-.72-1.34-.71-1.33-.71-1.34-.7-1.33-.7-1.34-.69-1.35-.69-1.34-.68-1.35-.67-1.34-.68-1.35-.66-1.35-.66-1.36-.66-1.35-.65-1.36-.64-1.36-.64-1.36-.63-1.37-.63-1.36-.63-1.37-.61-1.37-.62-1.37-.6-1.38-.61-1.37-.59-1.38-.6-1.38-.58-1.38-.58-1.38-.58-1.39-.57-1.39-.56-1.38-.56-1.4-.56-1.39-.55-1.39-.54-1.4-.54-1.4-.53-1.4-.53-1.41-.52-1.4-.52-1.41-.51-1.41-.51-1.41-.5-1.41-.5-1.42-.49-1.41-.48-1.42-.48-1.42-.48-1.43-.47-1.42-.46-1.43-.46-1.43-.45-1.43-.45-1.43-.44-1.44-.44-1.43-.43-1.44-.43-1.44-.42-1.45-.42-1.44-.41-1.45-.41-1.45-.4-1.45-.39-1.45-.39-1.45-.39-1.46-.38-1.46-.37-1.46-.37-1.46-.36-1.47-.36-1.46-.35M62.51 235.19l1.06.74 1.06.75 1.05.74 1.06.74 1.05.74 1.06.74 1.06.74 1.05.75 1.06.74 1.06.74 1.05.74 1.06.74 1.05.75 1.06.74 1.06.74 1.05.74 1.06.74 1.06.74 1.05.75 1.06.74 1.05.74 1.06.74 1.06.74 1.05.75 1.06.74 1.06.74 1.05.74 1.06.74 1.06.74 1.05.75 1.06.74 1.05.74 1.06.74 1.06.74 1.05.74 1.06.75 1.06.74 1.05.74 1.06.74 1.05.74 1.06.75 1.06.74 1.05.74 1.06.74 1.06.74 1.05.74 1.06.75 1.05.74 1.06.74 1.06.74 1.05.74 1.06.74 1.06.75 1.05.74 1.06.74 1.05.74 1.06.74 1.06.75 1.05.74 1.06.74 1.06.74 1.05.74 1.06.74 1.05.75 1.06.74 1.06.74 1.05.74 1.06.74 1.06.75 1.05.74 1.06.74 1.05.74 1.06.74 1.06.74 1.05.75 1.06.74 1.06.74 1.05.74 1.06.74 1.05.74 1.06.75 1.06.74 1.05.74 1.06.74 1.06.74 1.05.75 1.06.74 1.06.74 1.05.74 1.06.74 1.05.74 1.06.75 1.06.74 1.05.74 1.06.74 1.06.74 1.05.75 1.06.74 1.05.74m55.45 352.99.17-1.33.18-1.34.17-1.33.18-1.33.17-1.34.18-1.33.17-1.33.18-1.34.17-1.33.18-1.34.17-1.33.18-1.33.17-1.34.18-1.33.17-1.33.18-1.34.17-1.33.18-1.34.17-1.33.18-1.33.17-1.34.18-1.33.17-1.34.18-1.33.17-1.33.18-1.34.17-1.33.18-1.33.17-1.34.18-1.33.17-1.34.18-1.33.17-1.33.18-1.34.17-1.33.18-1.33.17-1.34.18-1.33.17-1.34.18-1.33.17-1.33.18-1.34.17-1.33.18-1.33.17-1.34.18-1.33.17-1.34.18-1.33.17-1.33.18-1.34.17-1.33.18-1.33.17-1.34.18-1.33.17-1.34.18-1.33.17-1.33.18-1.34.17-1.33.18-1.34.17-1.33.18-1.33.17-1.34.18-1.33.17-1.33.18-1.34.17-1.33.18-1.34.17-1.33.17-1.33.18-1.34.17-1.33.18-1.33.17-1.34.18-1.33.17-1.34.18-1.33.17-1.33.18-1.34.17-1.33.18-1.33.17-1.34.18-1.33.17-1.34.18-1.33.17-1.33.18-1.34.17-1.33.18-1.33.17-1.34.18-1.33.17-1.34.18-1.33.17-1.33.18-1.34.17-1.33.18-1.33.17-1.34.18-1.33" style="stroke-width:1.07;stroke:#000000;stroke-opacity:0.10;stroke-linecap:butt"/><path d="m541.51 347.54-1.3-.8-1.3-.8-1.31-.79-1.3-.78-1.31-.79-1.31-.78-1.3-.77-1.32-.77-1.31-.77-1.31-.77-1.31-.76-1.32-.75-1.32-.76-1.32-.75-1.32-.74-1.32-.74-1.32-.74-1.33-.73-1.32-.73-1.33-.73-1.33-.72-1.33-.72-1.33-.72-1.33-.71-1.34-.71-1.33-.7-1.34-.7-1.34-.7-1.34-.69-1.34-.69-1.34-.68-1.35-.68-1.34-.68-1.35-.67-1.35-.67-1.35-.67-1.35-.66-1.35-.66-1.35-.65-1.36-.65-1.36-.65-1.36-.64-1.35-.64-1.37-.64-1.36-.63-1.36-.63-1.37-.62-1.36-.62-1.37-.62-1.37-.61-1.37-.61-1.38-.6-1.37-.61-1.37-.59-1.38-.6-1.38-.59-1.38-.58-1.38-.59-1.38-.57-1.39-.58-1.38-.57-1.39-.57-1.39-.56-1.39-.56-1.39-.56-1.39-.55-1.39-.55-1.4-.54-1.39-.54-1.4-.54-1.4-.53-1.4-.53-1.4-.53-1.41-.52-1.4-.52-1.41-.51-1.41-.51-1.4-.51-1.42-.5-1.41-.5-1.41-.5-1.42-.49-1.41-.48-1.42-.49-1.42-.48-1.42-.48-1.42-.47-1.42-.47-1.43-.46-1.42-.46-1.43-.46-1.43-.45-1.43-.45-1.43-.45-1.44-.44-1.43-.44-1.44-.43-1.43-.44-1.44-.42" style="stroke-width:1.07;stroke:#000000;stroke-opacity:0.10;stroke-linecap:butt"/><path d="m541.51 347.54-1.33-.73-1.33-.72-1.33-.72-1.33-.72-1.33-.71-1.33-.71-1.34-.71-1.33-.71-1.34-.71-1.33-.7-1.34-.7-1.34-.7-1.33-.7-1.34-.69-1.34-.7-1.34-.69-1.34-.68-1.35-.69-1.34-.68-1.34-.68-1.35-.68-1.35-.68-1.34-.67-1.35-.68-1.35-.66-1.35-.67-1.35-.67-1.35-.66-1.35-.66-1.35-.66-1.36-.65-1.35-.66-1.36-.65-1.35-.65-1.36-.64-1.36-.65-1.36-.64-1.36-.64-1.36-.64-1.36-.63-1.36-.64-1.36-.63-1.36-.63-1.37-.62-1.36-.63-1.37-.62-1.37-.62-1.37-.62-1.36-.61-1.37-.61-1.37-.61-1.38-.61-1.37-.61-1.37-.6-1.38-.6-1.37-.6-1.38-.6-1.37-.59-1.38-.6-1.38-.59-1.38-.58-1.38-.59-1.38-.58-1.38-.58-1.38-.58-1.38-.58-1.39-.57-1.38-.57-1.39-.57-1.38-.57-1.39-.57-1.39-.56-1.39-.56-1.39-.56-1.39-.55-1.39-.56-1.39-.55-1.4-.55-1.39-.54-1.4-.55-1.39-.54-1.4-.54-1.4-.54-1.4-.53-1.39-.54-1.4-.53-1.41-.53-1.4-.52-1.4-.53-1.4-.52-1.41-.52-1.4-.52-1.41-.51-1.41-.51-1.4-.51-1.41-.51-1.41-.51-1.41-.5-1.41-.5" style="stroke-width:1.07;stroke:#000000;stroke-opacity:0.10;stroke-linecap:butt"/><path d="m541.51 347.54-1.36-.65-1.35-.65-1.36-.65-1.36-.65-1.35-.65-1.36-.64-1.36-.65-1.36-.64-1.35-.65-1.36-.64-1.36-.64-1.36-.64-1.36-.64-1.36-.64-1.36-.64-1.36-.64-1.36-.64-1.36-.64-1.36-.63-1.36-.64-1.36-.63-1.36-.64-1.37-.63-1.36-.63-1.36-.63-1.36-.63-1.37-.63-1.36-.63-1.36-.63-1.37-.63-1.36-.63-1.37-.62-1.36-.63-1.37-.62-1.36-.63-1.37-.62-1.36-.62-1.37-.63-1.37-.62-1.36-.62-1.37-.62-1.37-.62-1.37-.61-1.36-.62-1.37-.62-1.37-.61-1.37-.62-1.37-.61-1.37-.62-1.37-.61-1.37-.61-1.37-.61-1.37-.61-1.37-.61-1.37-.61-1.37-.61-1.37-.61-1.37-.6-1.38-.61-1.37-.6-1.37-.61-1.37-.6-1.38-.6-1.37-.61-1.37-.6-1.38-.6-1.37-.6-1.38-.6-1.37-.6-1.38-.59-1.37-.6-1.38-.6-1.38-.59-1.37-.6-1.38-.59-1.38-.59-1.37-.59-1.38-.6-1.38-.59-1.38-.59-1.37-.59-1.38-.58-1.38-.59-1.38-.59-1.38-.59-1.38-.58-1.38-.59-1.38-.58-1.38-.58-1.38-.59-1.38-.58-1.38-.58-1.39-.58-1.38-.58-1.38-.58-1.38-.57-1.39-.58-1.38-.58-1.38-.57M113.59 554.4l1.28-.22 1.28-.21 1.28-.22 1.28-.22 1.28-.22 1.28-.22 1.28-.22 1.28-.22 1.28-.22 1.28-.22 1.28-.23 1.28-.22 1.28-.23 1.28-.22 1.28-.23 1.28-.22 1.28-.23 1.28-.23 1.28-.23 1.28-.23 1.27-.23 1.28-.23 1.28-.23 1.28-.23 1.28-.24 1.28-.23 1.27-.24 1.28-.23 1.28-.24 1.28-.23 1.28-.24 1.27-.24 1.28-.24 1.28-.24 1.27-.24 1.28-.24 1.28-.24 1.28-.24 1.27-.24 1.28-.25 1.27-.24 1.28-.25 1.28-.24 1.27-.25 1.28-.25 1.28-.24 1.27-.25 1.28-.25 1.27-.25 1.28-.25 1.27-.25 1.28-.26 1.27-.25 1.28-.25 1.27-.26 1.28-.25 1.27-.26 1.28-.25 1.27-.26 1.27-.26 1.28-.26 1.27-.26 1.28-.26 1.27-.26 1.27-.26 1.28-.26 1.27-.26 1.27-.27 1.28-.26 1.27-.27 1.27-.26 1.28-.27 1.27-.26 1.27-.27 1.27-.27 1.28-.27 1.27-.27 1.27-.27 1.27-.27 1.27-.27 1.28-.28 1.27-.27 1.27-.27 1.27-.28 1.27-.27 1.27-.28 1.28-.28 1.27-.27 1.27-.28 1.27-.28 1.27-.28 1.27-.28 1.27-.28 1.27-.28 1.27-.29 1.27-.28 1.27-.28 1.27-.29 1.27-.28m101.14 77.8-1.02-.79-1.02-.78-1.02-.79-1.02-.78-1.03-.79-1.02-.78-1.02-.79-1.02-.79-1.02-.78-1.02-.79-1.03-.78-1.02-.79-1.02-.79-1.02-.78-1.02-.79-1.02-.78-1.03-.79-1.02-.79-1.02-.78-1.02-.79-1.02-.78-1.02-.79-1.03-.78-1.02-.79-1.02-.79-1.02-.78-1.02-.79-1.02-.78-1.03-.79-1.02-.79-1.02-.78-1.02-.79-1.02-.78-1.02-.79-1.03-.79-1.02-.78-1.02-.79-1.02-.78-1.02-.79-1.02-.78-1.03-.79-1.02-.79-1.02-.78-1.02-.79-1.02-.78-1.02-.79-1.03-.79-1.02-.78-1.02-.79-1.02-.78-1.02-.79-1.02-.79-1.03-.78-1.02-.79-1.02-.78-1.02-.79-1.02-.79-1.02-.78-1.02-.79-1.03-.78-1.02-.79-1.02-.78-1.02-.79-1.02-.79-1.02-.78-1.03-.79-1.02-.78-1.02-.79-1.02-.79-1.02-.78-1.02-.79-1.03-.78-1.02-.79-1.02-.79-1.02-.78-1.02-.79-1.02-.78-1.03-.79-1.02-.78-1.02-.79-1.02-.79-1.02-.78-1.02-.79-1.03-.78-1.02-.79-1.02-.79-1.02-.78-1.02-.79-1.02-.78-1.03-.79-1.02-.79-1.02-.78-1.02-.79-1.02-.78-1.02-.79-1.03-.78-1.02-.79-1.02-.79-1.02-.78m301.66-182.04-1.39-.58-1.38-.58-1.38-.57-1.38-.58-1.39-.58-1.38-.58-1.38-.58-1.38-.58-1.38-.58-1.38-.58-1.38-.59-1.39-.58-1.38-.59-1.37-.58-1.38-.59-1.38-.58-1.38-.59-1.38-.59-1.38-.59-1.38-.59-1.38-.59-1.37-.59-1.38-.59-1.38-.6-1.37-.59-1.38-.6-1.38-.59-1.37-.6-1.38-.59-1.37-.6-1.38-.6-1.37-.6-1.38-.6-1.37-.6-1.37-.6-1.38-.6-1.37-.61-1.37-.6-1.38-.6-1.37-.61-1.37-.6-1.37-.61-1.38-.61-1.37-.61-1.37-.61-1.37-.61-1.37-.61-1.37-.61-1.37-.61-1.37-.61-1.37-.62-1.37-.61-1.37-.61-1.36-.62-1.37-.62-1.37-.61-1.37-.62-1.37-.62-1.36-.62-1.37-.62-1.37-.62-1.36-.62-1.37-.63-1.36-.62-1.37-.62-1.36-.63-1.37-.62-1.36-.63-1.37-.63-1.36-.62-1.37-.63-1.36-.63-1.36-.63-1.36-.63-1.37-.64-1.36-.63-1.36-.63-1.36-.64-1.36-.63-1.37-.64-1.36-.63-1.36-.64-1.36-.64-1.36-.63-1.36-.64-1.36-.64-1.36-.64-1.35-.65-1.36-.64-1.36-.64-1.36-.65-1.36-.64-1.35-.65-1.36-.64-1.36-.65-1.36-.65-1.35-.64-1.36-.65-1.35-.65m-89.44-21.42.91.16.91.17.92.17.91.17.91.17.91.18.91.17.92.17.91.18.91.18.91.17.91.18.91.18.91.18.91.18.91.18.91.19.91.18.91.19.91.18.91.19.91.19.91.19.91.19.91.19.9.19.91.2.91.19.91.2.91.19.9.2.91.2.91.2.9.2.91.2.91.2.9.21.91.2.9.21.91.2.9.21.91.21.9.21.91.21.9.21.91.21.9.21.91.22.9.21.9.22.91.22.9.22.9.22.9.22.91.22.9.22.9.22.9.23.9.22.91.23.9.23.9.22.9.23.9.23.9.24.9.23.9.23.9.24.9.23.9.24.9.24.9.23.9.24.9.24.89.24.9.25.9.24.9.24.9.25.89.25.9.24.9.25.89.25.9.25.9.25.89.26.9.25.9.25.89.26.9.26.89.25.9.26.89.26.9.26.89.26.9.26.89.27.89.26.9.27" style="stroke-width:1.07;stroke:#000000;stroke-opacity:0.10;stroke-linecap:butt"/><path d="m541.51 347.54-1.41-.51-1.41-.5-1.41-.5-1.41-.51-1.41-.51-1.41-.52-1.4-.51-1.41-.52-1.4-.52-1.41-.52-1.4-.52-1.4-.53-1.4-.53-1.4-.53-1.4-.53-1.4-.54-1.4-.54-1.39-.54-1.4-.54-1.39-.54-1.4-.55-1.39-.55-1.39-.55-1.4-.55-1.39-.56-1.39-.56-1.39-.56-1.38-.56-1.39-.57-1.39-.56-1.38-.57-1.39-.57-1.38-.58-1.39-.57-1.38-.58-1.38-.58-1.38-.59-1.38-.58-1.38-.59-1.38-.59-1.37-.59-1.38-.6-1.38-.59-1.37-.6-1.37-.6-1.38-.61-1.37-.6-1.37-.61-1.37-.61-1.37-.62-1.37-.61-1.37-.62-1.36-.62-1.37-.62-1.37-.62-1.36-.63-1.36-.63-1.37-.63-1.36-.63-1.36-.64-1.36-.64-1.36-.64-1.36-.64-1.36-.64-1.35-.65-1.36-.65-1.35-.65-1.36-.65-1.35-.66-1.35-.66-1.36-.66-1.35-.66-1.35-.66-1.35-.67-1.35-.67-1.34-.67-1.35-.68-1.35-.67-1.34-.68-1.34-.68-1.35-.69-1.34-.68-1.34-.69-1.34-.69-1.34-.69-1.34-.7-1.34-.69-1.34-.7-1.33-.7-1.34-.71-1.33-.7-1.34-.71-1.33-.71-1.33-.72-1.34-.71-1.33-.72-1.33-.72-1.33-.72-1.32-.72" style="stroke-width:1.07;stroke:#000000;stroke-opacity:0.10;stroke-linecap:butt"/><path d="m541.51 347.54-1.44-.43-1.44-.43-1.43-.44-1.44-.44-1.43-.44-1.43-.44-1.43-.45-1.43-.46-1.43-.45-1.43-.47-1.42-.46-1.42-.47-1.43-.47-1.42-.48-1.42-.48-1.41-.48-1.42-.49-1.41-.49-1.42-.5-1.41-.5-1.41-.5-1.41-.5-1.41-.52-1.4-.51-1.41-.52-1.4-.52-1.4-.52-1.41-.53-1.39-.54-1.4-.53-1.4-.54-1.39-.55-1.4-.55-1.39-.55-1.39-.56-1.39-.56-1.39-.56-1.38-.57-1.39-.57-1.38-.57-1.39-.58-1.38-.58-1.38-.59-1.37-.59-1.38-.59-1.38-.6-1.37-.6-1.37-.61-1.37-.61-1.37-.61-1.37-.62-1.37-.62-1.36-.62-1.37-.63-1.36-.63-1.36-.63-1.36-.64-1.36-.65-1.36-.64-1.35-.65-1.36-.66-1.35-.66-1.35-.66-1.35-.66-1.35-.67-1.34-.68-1.35-.67-1.34-.69-1.35-.68-1.34-.69-1.34-.69-1.34-.7-1.33-.7-1.34-.7-1.33-.71-1.34-.71-1.33-.71-1.33-.72-1.33-.73-1.32-.72-1.33-.73-1.32-.74-1.33-.73-1.32-.75-1.32-.74-1.32-.75-1.32-.75-1.31-.76-1.32-.76-1.31-.76-1.31-.77-1.31-.77-1.31-.78-1.31-.78-1.3-.78-1.31-.79-1.3-.79-1.3-.79-1.3-.8" style="stroke-width:1.07;stroke:#000000;stroke-opacity:0.10;stroke-linecap:butt"/><path d="m541.51 347.54-1.47-.36-1.46-.35-1.47-.37-1.46-.37-1.46-.37-1.45-.38-1.46-.39-1.45-.39-1.45-.39-1.45-.4-1.45-.41-1.44-.41-1.44-.41-1.44-.43-1.44-.42-1.44-.44-1.43-.43-1.44-.45-1.43-.44-1.43-.46-1.42-.46-1.43-.46-1.42-.47-1.42-.48-1.42-.48-1.42-.48-1.41-.49-1.42-.5-1.41-.5-1.41-.51-1.4-.51-1.41-.51-1.4-.53-1.4-.53-1.4-.53-1.4-.54-1.4-.54-1.39-.55-1.39-.55-1.39-.56-1.39-.57-1.38-.57-1.39-.57-1.38-.59-1.38-.58-1.37-.59-1.38-.6-1.37-.6-1.38-.61-1.37-.61-1.36-.62-1.37-.62-1.36-.63-1.36-.64-1.36-.64-1.36-.64-1.36-.65-1.35-.65-1.35-.67-1.35-.66-1.35-.67-1.35-.68-1.34-.68-1.34-.69-1.34-.69-1.34-.7-1.34-.7-1.33-.71-1.33-.71-1.33-.72-1.33-.72-1.33-.73-1.32-.74-1.32-.74-1.32-.74-1.32-.75-1.32-.76-1.31-.76-1.31-.77-1.31-.77-1.31-.78-1.31-.78-1.3-.79-1.3-.79-1.31-.8-1.29-.8-1.3-.81-1.29-.82-1.3-.82-1.29-.82-1.29-.83-1.28-.84-1.29-.84-1.28-.84-1.28-.85-1.28-.86-1.28-.86-1.27-.87-1.27-.87" style="stroke-width:1.07;stroke:#000000;stroke-opacity:0.10;stroke-linecap:butt"/><path d="m541.51 347.54-1.5-.28-1.49-.29-1.49-.29-1.48-.3-1.49-.31-1.48-.31-1.48-.32-1.47-.32-1.48-.34-1.47-.34-1.47-.34-1.46-.36-1.47-.36-1.46-.36-1.46-.38-1.45-.38-1.46-.39-1.45-.39-1.45-.4-1.44-.41-1.45-.42-1.44-.42-1.44-.43-1.43-.43-1.43-.44-1.43-.45-1.43-.46-1.43-.46-1.42-.47-1.42-.48-1.42-.48-1.42-.49-1.41-.5-1.41-.5-1.41-.51-1.4-.52-1.4-.52-1.4-.53-1.4-.54-1.4-.55-1.39-.55-1.39-.56-1.39-.56-1.38-.57-1.38-.58-1.38-.59-1.38-.59-1.38-.6-1.37-.6-1.37-.62-1.36-.62-1.37-.62-1.36-.63-1.36-.64-1.36-.65-1.35-.66-1.35-.66-1.35-.66-1.35-.68-1.34-.68-1.34-.69-1.34-.69-1.34-.7-1.33-.71-1.34-.71-1.32-.73-1.33-.73-1.33-.73-1.32-.74-1.32-.75-1.31-.76-1.32-.76-1.31-.77-1.3-.78-1.31-.78-1.3-.79-1.31-.8-1.29-.8-1.3-.81-1.29-.82-1.29-.82-1.29-.83-1.29-.84-1.28-.85-1.28-.85-1.28-.86-1.28-.86-1.27-.87-1.27-.88-1.27-.89-1.26-.89-1.26-.9-1.26-.9-1.26-.92-1.26-.92-1.25-.92-1.25-.94-1.25-.94-1.24-.94M113.59 554.4l1.27-.29 1.27-.28 1.27-.29 1.27-.28 1.27-.28 1.27-.28 1.27-.28 1.27-.28 1.27-.28 1.27-.28 1.27-.28 1.27-.28 1.27-.28 1.27-.27 1.27-.28 1.28-.27 1.27-.28 1.27-.27 1.27-.27 1.27-.27 1.28-.27 1.27-.28 1.27-.26 1.27-.27 1.27-.27 1.28-.27 1.27-.27 1.27-.26 1.28-.27 1.27-.26 1.27-.27 1.28-.26 1.27-.26 1.27-.27 1.28-.26 1.27-.26 1.27-.26 1.28-.26 1.27-.26 1.28-.25 1.27-.26 1.27-.26 1.28-.25 1.27-.26 1.28-.25 1.27-.25 1.28-.26 1.27-.25 1.28-.25 1.27-.25 1.28-.25 1.28-.25 1.27-.25 1.28-.25 1.27-.24 1.28-.25 1.28-.25 1.27-.24 1.28-.25 1.27-.24 1.28-.24 1.28-.25 1.27-.24 1.28-.24 1.28-.24 1.28-.24 1.27-.24 1.28-.23 1.28-.24 1.28-.24 1.27-.23 1.28-.24 1.28-.23 1.28-.24 1.28-.23 1.27-.23 1.28-.23 1.28-.24 1.28-.23 1.28-.23 1.28-.22 1.28-.23 1.28-.23 1.28-.23 1.28-.22 1.27-.23 1.28-.22 1.28-.23 1.28-.22 1.28-.22 1.28-.22 1.28-.22 1.28-.23 1.29-.21 1.28-.22 1.28-.22 1.28-.22 1.28-.22 1.28-.21" style="stroke-width:1.07;stroke:#000000;stroke-opacity:0.10;stroke-linecap:butt"/><path d="m541.51 347.54-1.52-.21-1.52-.21-1.52-.22-1.51-.23-1.51-.24-1.51-.24-1.5-.26-1.5-.26-1.5-.27-1.49-.28-1.49-.29-1.49-.3-1.48-.3-1.49-.31-1.47-.32-1.48-.33-1.47-.34-1.47-.35-1.47-.35-1.46-.36-1.46-.37-1.46-.38-1.45-.39-1.45-.4-1.45-.4-1.44-.41-1.44-.43-1.44-.43-1.43-.43-1.44-.45-1.43-.45-1.42-.47-1.42-.47-1.42-.48-1.42-.48-1.41-.5-1.41-.5-1.41-.52-1.4-.52-1.4-.53-1.4-.54-1.4-.54-1.39-.56-1.39-.56-1.38-.57-1.38-.58-1.38-.59-1.38-.59-1.37-.61-1.37-.61-1.37-.62-1.36-.63-1.36-.64-1.36-.64-1.35-.66-1.35-.66-1.35-.67-1.34-.68-1.35-.69-1.33-.7-1.34-.7-1.33-.71-1.33-.72-1.33-.73-1.32-.74-1.32-.75-1.32-.75-1.31-.76-1.31-.77-1.31-.78-1.3-.79-1.3-.8-1.3-.8-1.3-.82-1.29-.82-1.29-.83-1.28-.83-1.29-.85-1.28-.85-1.27-.87-1.28-.87-1.27-.88-1.26-.88-1.27-.9-1.26-.91-1.26-.91-1.25-.92-1.25-.93-1.25-.94-1.25-.94-1.24-.96-1.24-.96-1.23-.97-1.24-.98-1.23-.99-1.22-.99-1.23-1.01-1.22-1.01-1.21-1.02" style="stroke-width:1.07;stroke:#000000;stroke-opacity:0.10;stroke-linecap:butt"/><path d="m541.51 347.54-1.55-.13-1.55-.14-1.54-.15-1.54-.16-1.53-.17-1.53-.18-1.53-.19-1.53-.2-1.52-.21-1.51-.22-1.52-.23-1.5-.23-1.51-.25-1.5-.26-1.5-.27-1.49-.28-1.5-.28-1.48-.3-1.49-.31-1.48-.32-1.47-.32-1.47-.34-1.47-.35-1.47-.35-1.46-.37-1.46-.38-1.45-.38-1.45-.4-1.45-.4-1.44-.42-1.44-.43-1.44-.43-1.43-.45-1.43-.45-1.42-.47-1.42-.47-1.42-.49-1.41-.49-1.41-.5-1.41-.52-1.4-.52-1.4-.54-1.4-.54-1.39-.55-1.39-.57-1.38-.57-1.38-.58-1.38-.6-1.37-.6-1.37-.61-1.37-.63-1.36-.63-1.36-.64-1.35-.65-1.35-.66-1.35-.68-1.35-.68-1.34-.69-1.33-.7-1.34-.71-1.32-.72-1.33-.73-1.32-.74-1.32-.76-1.31-.76-1.32-.77-1.3-.78-1.31-.79-1.3-.8-1.29-.81-1.29-.82-1.29-.82-1.29-.84-1.28-.85-1.28-.86-1.27-.87-1.27-.88-1.27-.89-1.26-.9-1.26-.9-1.26-.92-1.25-.93-1.25-.94-1.24-.95-1.24-.95-1.24-.97-1.23-.98-1.23-.99-1.23-.99-1.22-1.01-1.22-1.02-1.22-1.02-1.21-1.04-1.21-1.04-1.2-1.06-1.2-1.07-1.2-1.07-1.19-1.09-1.19-1.09" style="stroke-width:1.07;stroke:#000000;stroke-opacity:0.10;stroke-linecap:butt"/><path d="m541.51 347.54-1.58-.06-1.57-.07-1.57-.08-1.57-.09-1.56-.1-1.55-.11-1.55-.12-1.55-.14-1.55-.15-1.53-.15-1.54-.17-1.53-.18-1.53-.2-1.52-.2-1.52-.21-1.51-.23-1.51-.24-1.5-.25-1.51-.26-1.49-.27-1.49-.28-1.49-.3-1.49-.3-1.48-.32-1.47-.33-1.47-.34-1.47-.35-1.46-.36-1.46-.38-1.46-.38-1.45-.4-1.44-.41-1.44-.42-1.44-.43-1.43-.44-1.43-.45-1.43-.47-1.42-.47-1.41-.49-1.42-.5-1.4-.51-1.41-.52-1.4-.54-1.39-.54-1.39-.56-1.39-.56-1.38-.58-1.38-.59-1.37-.6-1.37-.62-1.37-.62-1.36-.64-1.36-.64-1.35-.66-1.35-.67-1.34-.68-1.34-.69-1.34-.71-1.33-.71-1.33-.73-1.32-.74-1.32-.75-1.31-.76-1.31-.77-1.31-.78-1.3-.8-1.3-.8-1.29-.82-1.29-.83-1.29-.84-1.28-.85-1.27-.86-1.27-.88-1.27-.88-1.27-.9-1.26-.91-1.25-.92-1.25-.93-1.25-.94-1.24-.95-1.24-.97-1.23-.97-1.23-.99-1.23-1-1.22-1.01-1.22-1.02-1.21-1.04-1.21-1.04-1.2-1.06-1.2-1.07-1.2-1.07-1.19-1.09-1.19-1.11-1.18-1.11-1.18-1.12-1.17-1.14-1.17-1.14-1.17-1.16-1.16-1.17M286.14 387.37l1.21-1.01 1.21-1.02 1.21-1.01 1.2-1.02 1.21-1.01 1.21-1.02 1.21-1.01 1.21-1.02 1.21-1.01 1.21-1.02 1.21-1.01 1.21-1.02 1.21-1.01 1.21-1.02 1.21-1.01 1.21-1.02 1.21-1.01 1.21-1.02 1.21-1.01 1.21-1.02 1.21-1.01 1.21-1.02 1.21-1.01 1.21-1.02 1.21-1.01 1.21-1.02 1.21-1.01 1.21-1.02 1.21-1.01 1.21-1.02 1.21-1.01 1.21-1.02 1.21-1.02 1.21-1.01 1.21-1.02 1.21-1.01 1.21-1.02 1.21-1.01 1.21-1.02 1.21-1.01 1.21-1.02 1.21-1.01 1.21-1.02 1.21-1.01 1.21-1.02 1.21-1.01 1.21-1.02 1.21-1.01 1.21-1.02 1.21-1.01 1.21-1.02 1.21-1.01 1.21-1.02 1.21-1.01 1.21-1.02 1.21-1.01 1.21-1.02 1.21-1.01 1.21-1.02 1.21-1.01 1.21-1.02 1.21-1.01 1.21-1.02 1.21-1.01 1.21-1.02 1.21-1.01 1.21-1.02 1.21-1.01 1.21-1.02 1.21-1.01 1.21-1.02 1.21-1.01 1.21-1.02 1.21-1.01 1.21-1.02 1.21-1.02 1.21-1.01 1.21-1.02 1.21-1.01 1.21-1.02 1.21-1.01 1.21-1.02 1.21-1.01 1.21-1.02 1.21-1.01 1.21-1.02 1.21-1.01 1.21-1.02 1.21-1.01 1.21-1.02 1.21-1.01 1.21-1.02 1.21-1.01 1.21-1.02 1.21-1.01 1.21-1.02 1.21-1.01 1.21-1.02 1.21-1.01" style="stroke-width:1.07;stroke:#000000;stroke-opacity:0.10;stroke-linecap:butt"/><path d="m541.51 347.54-1.61.01-1.6.01-1.59-.01-1.59-.02-1.59-.03-1.58-.05-1.58-.06-1.57-.07-1.56-.08-1.57-.1-1.55-.11-1.55-.12-1.55-.14-1.54-.15-1.54-.16-1.53-.17-1.53-.19-1.53-.2-1.51-.22-1.52-.22-1.51-.24-1.5-.25-1.5-.27-1.5-.28-1.48-.29-1.49-.3-1.48-.32-1.47-.33-1.48-.34-1.46-.35-1.46-.37-1.46-.38-1.45-.4-1.45-.4-1.44-.42-1.43-.43-1.44-.45-1.42-.46-1.43-.47-1.41-.48-1.42-.5-1.4-.51-1.41-.52-1.4-.54-1.39-.55-1.39-.56-1.38-.57-1.38-.59-1.38-.6-1.37-.61-1.36-.63-1.36-.63-1.36-.66-1.35-.66-1.34-.68-1.34-.69-1.34-.7-1.33-.72-1.33-.72-1.32-.75-1.31-.75-1.32-.77-1.3-.78-1.31-.79-1.29-.81-1.3-.82-1.28-.83-1.29-.84-1.28-.86-1.27-.87-1.27-.88-1.26-.9-1.26-.91-1.26-.92-1.24-.93-1.25-.95-1.24-.96-1.23-.98-1.24-.98-1.22-1-1.22-1.01-1.22-1.03-1.21-1.04-1.2-1.05-1.21-1.06-1.19-1.08-1.19-1.09-1.19-1.1-1.18-1.11-1.18-1.13-1.17-1.14-1.17-1.16-1.17-1.16-1.15-1.18-1.16-1.19-1.15-1.21-1.14-1.22-1.14-1.23-1.13-1.24" style="stroke-width:1.07;stroke:#000000;stroke-opacity:0.10;stroke-linecap:butt"/><path d="m541.51 347.54-1.64.09-1.62.08-1.62.06-1.62.05-1.61.04-1.61.02h-1.6l-1.59-.01-1.59-.02-1.59-.03-1.58-.06-1.57-.06-1.57-.08-1.56-.1-1.56-.1-1.55-.13-1.55-.14-1.54-.15-1.53-.16-1.53-.18-1.53-.2-1.52-.21-1.51-.22-1.51-.24-1.51-.25-1.5-.27-1.49-.28-1.49-.3-1.48-.31-1.48-.32-1.47-.34-1.46-.36-1.46-.37-1.46-.38-1.45-.39-1.44-.42-1.44-.42-1.44-.44-1.43-.46-1.42-.46-1.42-.49-1.41-.5-1.41-.51-1.4-.52-1.4-.54-1.39-.56-1.38-.57-1.38-.58-1.38-.6-1.37-.61-1.36-.63-1.36-.64-1.35-.66-1.35-.67-1.35-.68-1.33-.7-1.33-.72-1.33-.72-1.32-.75-1.32-.75-1.31-.77-1.3-.79-1.3-.8-1.3-.81-1.29-.83-1.28-.85-1.28-.85-1.27-.87-1.27-.89-1.26-.9-1.26-.92-1.25-.93-1.25-.94-1.24-.96-1.23-.97-1.23-.99-1.23-1-1.22-1.01-1.21-1.04-1.21-1.04-1.2-1.06-1.2-1.07-1.19-1.09-1.19-1.1-1.18-1.12-1.18-1.13-1.17-1.15-1.17-1.15-1.16-1.18-1.15-1.19-1.15-1.2-1.14-1.22-1.14-1.23-1.14-1.25-1.12-1.26-1.13-1.27-1.11-1.29-1.12-1.3-1.1-1.32m99.43-.54-1 .04-1 .03-1.01.03-1 .03-1.01.03-1 .03-1.01.03-1 .03-1 .03-1.01.02-1 .03-1.01.03-1 .02-1.01.03-1 .02-1 .03-1.01.02-1 .02-1.01.03-1 .02-1.01.02-1 .02-1.01.02-1 .02-1 .02-1.01.02-1 .02-1.01.02-1 .01-1.01.02-1 .02-1 .01-1.01.02-1 .01-1.01.01-1 .02-1.01.01-1 .01-1.01.01-1 .01-1 .01-1.01.01-1 .01-1.01.01-1 .01-1.01.01-1 .01h-1l-1.01.01h-1l-1.01.01h-1l-1.01.01h-3.01l-1 .01h-4.02l-1.01-.01h-3.01l-1-.01h-2.01l-1.01-.01-1-.01h-1.01l-1-.01-1.01-.01h-1l-1-.01-1.01-.01-1-.01-1.01-.01-1-.01-1.01-.01-1-.01-1.01-.02-1-.01-1.01-.01-1-.02-1-.01-1.01-.02-1-.01-1.01-.02-1-.02-1.01-.01-1-.02-1.01-.02-1-.02-1.01-.02-1-.02-1-.02-1.01-.02-1-.02" style="stroke-width:1.07;stroke:#000000;stroke-opacity:0.10;stroke-linecap:butt"/><path d="m541.51 338.77 7.59 13.15h-15.19zm-65.88 58.37 1.91 3.32h-3.83zm29.72-114.47 3.19 5.51h-6.37zm11.22-68.73 1.91 3.32h-3.82zm-45.84-46.98 1.91 3.32h-3.83zM124.37 479.42l1.92 3.32h-3.83zm171.82 177.74 1.91 3.32h-3.82zm119.3-512.76 1.91 3.32h-3.83zM286.14 383.09l3.71 6.43h-7.43zm70.97-232.98 1.92 3.32h-3.83zM154.54 621.06l1.92 3.32h-3.83zm161.94-359.89 3.71 6.43h-7.42zm-5.76-69.84 1.91 3.32h-3.83zm102.7 198.64 1.91 3.32h-3.82zM62.51 232.98l1.92 3.32H60.6zm160.02 426.43 1.91 3.32h-3.83zM113.59 550.72l3.18 5.52h-6.37zm227.4 54.45 1.92 3.32h-3.83z" style="stroke-width:0.71;stroke:none;fill:#00BFC4"/><circle cx="405.92" cy="286.88" r="6.76" style="stroke-width:0.71;stroke:none;fill:#F8766D"/><circle cx="239.85" cy="529.58" r="3.92" style="stroke-width:0.71;stroke:none;fill:#F8766D"/><circle cx="660.23" cy="369.21" r="1.42" style="stroke-width:0.71;stroke:none;fill:#F8766D"/><circle cx="167.08" cy="308.63" r="2.36" style="stroke-width:0.71;stroke:none;fill:#F8766D"/><path d="m536.52 352.25 4.15-3.93m-60.09 55.72-4.12-3.9m23.74-109.13 4.3-3.89m7.15-66.31 4.09-3.87m-39.83-43.08-4.33-3.91m-342.03 307-4.32 3.91m174.68 175.21-2.86 2.54m123.18-518.19-4.06 5.3M281.15 392.09l4.15-3.93m66.56-231.07 4.4-3.99M159.47 618.62l-4.09 3.87m155.84-352.27 4.4-3.99m-10.06-68.01 4.3-3.9m98.56 193.12 4.17 3.95M67.73 239.92l-4.36-3.95M217.84 667.8l4.01-5.29m-103.1-112.79-4.31 3.91m296.65-271.34-4.31 3.82M234.62 534.22l4.37-3.88m415.99-156.46 4.38-3.9m-497.51-56.6 4.38-3.98" style="stroke-width:0.53;stroke:#BFBFBF"/><path d="M500.01 363.6h58.66-.08l.35-.02.34-.07.32-.12.3-.17.27-.22.23-.26.19-.3.13-.32.09-.34.02-.34h0v-7.03h0l-.02-.35-.09-.33-.13-.32-.19-.3-.23-.26-.27-.22-.3-.17-.32-.12-.34-.07-.27-.02h-58.66l.26.02-.35-.02-.34.04-.34.1-.31.15-.29.2-.25.24-.21.28-.16.3-.11.33-.05.35-.01.17v7.03l.01-.18v.35l.05.34.11.33.16.31.21.28.25.24.29.2.31.15.34.09.34.05z" style="stroke-width:0.53;fill:#FFFFFF;fill-opacity:0.50"/><text x="529.34" y="360" lengthAdjust="spacingAndGlyphs" style="font-size:5.69px;font-family:&quot;Liberation Sans&quot;" text-anchor="middle" textLength="55.79">US BANK TRUST NA</text><path d="M457.01 415.39h61.14-.09l.35-.02.34-.07.33-.12.3-.17.27-.22.23-.26.18-.3.14-.32.08-.34.03-.34h0v-7.03h0l-.03-.35-.08-.33-.14-.32-.18-.3-.23-.26-.27-.22-.3-.17-.33-.12-.34-.07-.26-.02h-61.14l.26.02-.35-.02-.34.04-.34.1-.31.15-.29.2-.25.24-.21.28-.16.3-.11.33-.05.35-.01.17v7.03l.01-.18v.35l.05.35.11.32.16.31.21.28.25.24.29.2.31.15.34.09.34.05z" style="stroke-width:0.53;fill:#FFFFFF;fill-opacity:0.50"/><text x="487.58" y="411.79" lengthAdjust="spacingAndGlyphs" style="font-size:5.69px;font-family:&quot;Liberation Sans&quot;" text-anchor="middle" textLength="58.26">DARYL O BONNER JR</text><path d="M454.62 310.55h67.96-.08l.34-.02.34-.07.33-.12.3-.17.27-.22.23-.26.19-.3.13-.32.09-.33.02-.35h0v-15.22h0l-.02-.35-.09-.34-.13-.32-.19-.29-.23-.26-.27-.22-.3-.17-.33-.13-.34-.07-.26-.01h-67.96l.26.01-.35-.01-.35.04-.33.1-.31.15-.29.19-.25.25-.21.27-.16.31-.11.33-.06.34v15.4-.17.34l.06.35.11.33.16.3.21.28.25.24.29.2.31.15.33.1.35.04z" style="stroke-width:0.53;fill:#FFFFFF;fill-opacity:0.50"/><text x="488.6" y="298.75" lengthAdjust="spacingAndGlyphs" style="font-size:5.69px;font-family:&quot;Liberation Sans&quot;" text-anchor="middle" textLength="65.09">US BANK TRUST NA AS</text><text x="488.6" y="306.95" lengthAdjust="spacingAndGlyphs" style="font-size:5.69px;font-family:&quot;Liberation Sans&quot;" text-anchor="middle" textLength="25.86">TRUSTEE</text><path d="M480.31 232.15h48.72-.09l.35-.01.34-.07.33-.13.3-.17.27-.22.23-.26.18-.29.14-.32.08-.34.03-.35h0v-7.02h0l-.03-.35-.08-.34-.14-.32-.18-.29-.23-.26-.27-.22-.3-.18-.33-.12-.34-.07-.26-.01h-48.72l.26.01-.34-.01-.35.04-.33.1-.32.15-.28.19-.25.24-.21.28-.16.31-.11.33-.06.34-.01.18v7.02l.01-.17v.35l.06.34.11.33.16.31.21.28.25.24.28.19.32.15.33.1.35.04z" style="stroke-width:0.53;fill:#FFFFFF;fill-opacity:0.50"/><text x="504.67" y="228.55" lengthAdjust="spacingAndGlyphs" style="font-size:5.69px;font-family:&quot;Liberation Sans&quot;" text-anchor="middle" textLength="45.84">US BANK TRUST</text><path d="M462.61 193.41h49.86l-.08-.01.34-.01.34-.07.33-.12.3-.18.27-.22.23-.26.19-.29.13-.32.09-.34.02-.34h0v-15.23h0l-.02-.34-.09-.34-.13-.32-.19-.29-.23-.26-.27-.22-.3-.18-.33-.12-.34-.07-.26-.02h-49.86l.26.02-.34-.01-.35.04-.33.09-.32.15-.28.2-.25.24-.21.28-.16.31-.11.33-.06.34-.01.17v15.23l.01-.18v.35l.06.34.11.33.16.31.21.28.25.24.28.2.32.15.33.09.35.04z" style="stroke-width:0.53;fill:#FFFFFF;fill-opacity:0.50"/><text x="487.54" y="181.61" lengthAdjust="spacingAndGlyphs" style="font-size:5.69px;font-family:&quot;Liberation Sans&quot;" text-anchor="middle" textLength="42.52">LSF10 MASTER</text><text x="487.54" y="189.81" lengthAdjust="spacingAndGlyphs" style="font-size:5.69px;font-family:&quot;Liberation Sans&quot;" text-anchor="middle" textLength="46.98">PARTICIPATION T</text><path d="M103.46 476.95h75.41-.09l.35-.02.34-.07.33-.12.3-.17.27-.22.23-.26.18-.3.14-.32.08-.33.03-.35h0v-15.22h0l-.03-.35-.08-.34-.14-.32-.18-.29-.23-.26-.27-.22-.3-.17-.33-.13-.34-.07-.26-.01h-75.41l.26.01-.34-.01-.35.04-.33.1-.32.15-.28.19-.25.25-.21.27-.16.31-.11.33-.06.34-.01.18v15.22l.01-.17v.34l.06.35.11.33.16.3.21.28.25.24.28.2.32.15.33.1.35.04z" style="stroke-width:0.53;fill:#FFFFFF;fill-opacity:0.50"/><text x="141.17" y="465.15" lengthAdjust="spacingAndGlyphs" style="font-size:5.69px;font-family:&quot;Liberation Sans&quot;" text-anchor="middle" textLength="72.53">FREDDIE MAC SEASONED</text><text x="141.17" y="473.35" lengthAdjust="spacingAndGlyphs" style="font-size:5.69px;font-family:&quot;Liberation Sans&quot;" text-anchor="middle" textLength="24.51">LOANS S</text><path d="M274.2 656.07h74.37-.09l.35-.02.34-.07.33-.12.3-.17.27-.22.23-.26.18-.3.14-.32.08-.34.03-.34h0v-15.22h0l-.03-.35-.08-.34-.14-.32-.18-.29-.23-.26-.27-.22-.3-.18-.33-.12-.34-.07-.26-.01H274.2l.26.01-.34-.01-.35.04-.33.1-.32.15-.28.19-.25.24-.21.28-.17.31-.11.33-.05.34-.01.18v15.22l.01-.18v.35l.05.34.11.33.17.31.21.28.25.24.28.2.32.15.33.09.35.05z" style="stroke-width:0.53;fill:#FFFFFF;fill-opacity:0.50"/><text x="311.39" y="644.27" lengthAdjust="spacingAndGlyphs" style="font-size:5.69px;font-family:&quot;Liberation Sans&quot;" text-anchor="middle" textLength="71.49">TOWD POINT MORTGAGE</text><text x="311.39" y="652.47" lengthAdjust="spacingAndGlyphs" style="font-size:5.69px;font-family:&quot;Liberation Sans&quot;" text-anchor="middle" textLength="18.68">TRUST</text><path d="M422.39 144.05h58.67l-.09-.01.35-.01.34-.07.32-.12.3-.18.27-.22.23-.26.19-.29.14-.32.08-.34.03-.34h0v-15.23h0l-.03-.34-.08-.34-.14-.32-.19-.29-.23-.26-.27-.22-.3-.18-.32-.12-.34-.07-.26-.02h-58.67l.26.02-.35-.01-.34.04-.33.09-.32.15-.28.2-.26.24-.2.28-.17.31-.11.33-.05.34-.01.17v15.23l.01-.18v.35l.05.34.11.33.17.31.2.28.26.24.28.2.32.15.33.09.34.04z" style="stroke-width:0.53;fill:#FFFFFF;fill-opacity:0.50"/><text x="451.72" y="132.25" lengthAdjust="spacingAndGlyphs" style="font-size:5.69px;font-family:&quot;Liberation Sans&quot;" text-anchor="middle" textLength="55.79">US BANK TRUST NA</text><text x="451.72" y="140.45" lengthAdjust="spacingAndGlyphs" style="font-size:5.69px;font-family:&quot;Liberation Sans&quot;" text-anchor="middle" textLength="39.37">TRUSTEE FOR</text><path d="M254.92 403.44h38.18l-.08-.01.34-.01.34-.07.33-.12.3-.18.27-.22.23-.26.19-.29.13-.32.09-.34.02-.34h0v-7.03h0l-.02-.35-.09-.34-.13-.31-.19-.3-.23-.26-.27-.22-.3-.17-.33-.13-.34-.07-.26-.01h-38.18l.26.01-.35-.01-.34.04-.33.1-.32.15-.28.2-.26.24-.2.27-.17.31-.11.33-.05.35-.01.17v7.03l.01-.18v.35l.05.34.11.33.17.31.2.28.26.24.28.2.32.15.33.09.34.04z" style="stroke-width:0.53;fill:#FFFFFF;fill-opacity:0.50"/><text x="274.01" y="399.84" lengthAdjust="spacingAndGlyphs" style="font-size:5.69px;font-family:&quot;Liberation Sans&quot;" text-anchor="middle" textLength="35.3">US BANK NA</text><path d="M311.28 176.63h58.01-.08l.34-.02.34-.07.33-.12.3-.17.27-.22.23-.26.19-.3.13-.32.08-.34.03-.34h0v-15.22h0l-.03-.35-.08-.34-.13-.32-.19-.29-.23-.26-.27-.22-.3-.17-.33-.13-.34-.07-.26-.01h-58.01l.26.01-.35-.01-.35.04-.33.1-.31.15-.29.19-.25.24-.21.28-.16.31-.11.33-.06.34v15.4-.18.35l.06.35.11.33.16.3.21.28.25.24.29.2.31.15.33.09.35.05z" style="stroke-width:0.53;fill:#FFFFFF;fill-opacity:0.50"/><text x="340.28" y="164.83" lengthAdjust="spacingAndGlyphs" style="font-size:5.69px;font-family:&quot;Liberation Sans&quot;" text-anchor="middle" textLength="55.14">US BANK TRUST AS</text><text x="340.28" y="173.03" lengthAdjust="spacingAndGlyphs" style="font-size:5.69px;font-family:&quot;Liberation Sans&quot;" text-anchor="middle" textLength="25.86">TRUSTEE</text><path d="M137.49 618.62h58.09-.08l.34-.02.34-.07.33-.12.3-.17.27-.22.23-.26.18-.3.14-.32.08-.33.03-.35h0v-7.03h0l-.03-.34-.08-.34-.14-.32-.18-.3-.23-.26-.27-.22-.3-.17-.33-.12-.34-.07-.26-.02h-58.09l.26.02-.35-.02-.35.05-.33.09-.31.15-.29.2-.25.24-.21.28-.16.31-.11.32-.06.35v7.2-.17.34l.06.35.11.33.16.3.21.28.25.24.29.2.31.15.33.1.35.04z" style="stroke-width:0.53;fill:#FFFFFF;fill-opacity:0.50"/><text x="166.53" y="615.02" lengthAdjust="spacingAndGlyphs" style="font-size:5.69px;font-family:&quot;Liberation Sans&quot;" text-anchor="middle" textLength="55.22">SELECT PORTFOLIO</text><path d="M272.71 289.77h53.82l-.09-.01.35-.01.34-.07.32-.12.3-.18.27-.22.23-.26.19-.29.13-.32.09-.34.03-.34h0v-15.23h0l-.03-.34-.09-.34-.13-.32-.19-.29-.23-.26-.27-.22-.3-.18-.32-.12-.34-.07-.26-.02h-53.82l.26.02-.34-.01-.35.04-.33.09-.32.15-.28.2-.25.24-.21.28-.16.31-.11.33-.06.34-.01.17v15.23l.01-.18v.35l.06.34.11.33.16.31.21.28.25.24.28.2.32.15.33.09.35.04z" style="stroke-width:0.53;fill:#FFFFFF;fill-opacity:0.50"/><text x="299.62" y="277.97" lengthAdjust="spacingAndGlyphs" style="font-size:5.69px;font-family:&quot;Liberation Sans&quot;" text-anchor="middle" textLength="38.9">LSF9 MASTER</text><text x="299.62" y="286.17" lengthAdjust="spacingAndGlyphs" style="font-size:5.69px;font-family:&quot;Liberation Sans&quot;" text-anchor="middle" textLength="50.93">PARTICIPATION TR</text><path d="M267.05 217.76h53.81-.08l.34-.02.34-.07.33-.12.3-.17.27-.22.23-.26.19-.3.13-.32.09-.34.02-.34h0v-15.22h0l-.02-.35-.09-.34-.13-.32-.19-.29-.23-.26-.27-.22-.3-.18-.33-.12-.34-.07-.26-.01h-53.81l.26.01-.35-.01-.34.04-.34.1-.31.15-.29.19-.25.24-.21.28-.16.31-.11.33-.05.34-.01.18v15.22l.01-.18v.35l.05.34.11.33.16.31.21.28.25.24.29.2.31.15.34.09.34.05z" style="stroke-width:0.53;fill:#FFFFFF;fill-opacity:0.50"/><text x="293.96" y="205.96" lengthAdjust="spacingAndGlyphs" style="font-size:5.69px;font-family:&quot;Liberation Sans&quot;" text-anchor="middle" textLength="38.9">LSF8 MASTER</text><text x="293.96" y="214.16" lengthAdjust="spacingAndGlyphs" style="font-size:5.69px;font-family:&quot;Liberation Sans&quot;" text-anchor="middle" textLength="50.93">PARTICIPATION TR</text><path d="M367.43 387.44h67.97-.09l.35-.01.34-.07.32-.13.3-.17.27-.22.23-.26.19-.29.13-.32.09-.34.03-.35h0v-7.03h0l-.03-.34-.09-.34-.13-.32-.19-.29-.23-.26-.27-.22-.3-.18-.32-.12-.34-.07-.26-.02h-67.97l.26.02-.35-.01-.34.04-.34.1-.31.14-.29.2-.25.24-.21.28-.16.31-.11.33-.06.34v7.2-.17.35l.06.34.11.33.16.31.21.27.25.25.29.19.31.15.34.1.34.04z" style="stroke-width:0.53;fill:#FFFFFF;fill-opacity:0.50"/><text x="401.41" y="383.84" lengthAdjust="spacingAndGlyphs" style="font-size:5.69px;font-family:&quot;Liberation Sans&quot;" text-anchor="middle" textLength="65.09">US BANK TRUST NA AS</text><path d="M49.26 259.46h60.13-.09l.35-.01.34-.07.33-.13.3-.17.27-.22.23-.26.18-.29.14-.32.08-.34.03-.35h0v-15.22h0l-.03-.35-.08-.33-.14-.32-.18-.3-.23-.26-.27-.22-.3-.17-.33-.12-.34-.07-.26-.02H49.26l.26.02-.34-.02-.35.04-.33.1-.32.15-.28.2-.25.24-.21.28-.16.3-.11.33-.06.35-.01.17v15.22l.01-.17v.35l.06.34.11.33.16.31.21.27.25.25.28.19.32.15.33.1.35.04z" style="stroke-width:0.53;fill:#FFFFFF;fill-opacity:0.50"/><text x="79.33" y="247.67" lengthAdjust="spacingAndGlyphs" style="font-size:5.69px;font-family:&quot;Liberation Sans&quot;" text-anchor="middle" textLength="57.25">RESIDENTIAL ASSET</text><text x="79.33" y="255.86" lengthAdjust="spacingAndGlyphs" style="font-size:5.69px;font-family:&quot;Liberation Sans&quot;" text-anchor="middle" textLength="33.32">SECURITIES</text><path d="M144.29 683.73h71.39-.09l.35-.01.34-.07.32-.13.3-.17.27-.22.23-.26.19-.29.13-.32.09-.34.03-.35h0v-15.22h0l-.03-.34-.09-.34-.13-.32-.19-.3-.23-.26-.27-.22-.3-.17-.32-.12-.34-.07-.26-.02h-71.39l.26.02-.34-.02-.35.05-.33.09-.32.15-.28.2-.25.24-.21.28-.16.31-.11.32-.06.35-.01.17v15.22l.01-.17v.35l.06.34.11.33.16.31.21.28.25.24.28.19.32.15.33.1.35.04z" style="stroke-width:0.53;fill:#FFFFFF;fill-opacity:0.50"/><text x="179.99" y="671.94" lengthAdjust="spacingAndGlyphs" style="font-size:5.69px;font-family:&quot;Liberation Sans&quot;" text-anchor="middle" textLength="68.5">DJL MORTGAGE CAPITAL</text><text x="179.99" y="680.13" lengthAdjust="spacingAndGlyphs" style="font-size:5.69px;font-family:&quot;Liberation Sans&quot;" text-anchor="middle" textLength="9.91">INC</text><path d="M94.68 549.72h71.38-.08l.35-.02.34-.07.32-.12.3-.17.27-.22.23-.26.19-.3.13-.32.09-.33.02-.35h0v-15.22h0l-.02-.35-.09-.34-.13-.32-.19-.29-.23-.26-.27-.22-.3-.17-.32-.13-.34-.07-.27-.01H94.68l.26.01-.34-.01-.35.04-.33.1-.32.15-.28.19-.25.24-.21.28-.16.31-.11.33-.06.34-.01.18v15.22l.01-.18v.35l.06.35.11.33.16.3.21.28.25.24.28.2.32.15.33.09.35.05z" style="stroke-width:0.53;fill:#FFFFFF;fill-opacity:0.50"/><text x="130.37" y="537.92" lengthAdjust="spacingAndGlyphs" style="font-size:5.69px;font-family:&quot;Liberation Sans&quot;" text-anchor="middle" textLength="68.5">DLJ MORTGAGE CAPITAL</text><text x="130.37" y="546.12" lengthAdjust="spacingAndGlyphs" style="font-size:5.69px;font-family:&quot;Liberation Sans&quot;" text-anchor="middle" textLength="9.91">INC</text><path d="M292.84 629.41h67.84-.09l.35-.02.34-.07.33-.12.3-.18.27-.22.23-.26.18-.29.14-.32.08-.34.03-.34h0v-15.22h0l-.03-.35-.08-.34-.14-.32-.18-.29-.23-.26-.27-.22-.3-.18-.33-.12-.34-.07-.26-.01h-67.84l.26.01-.35-.01-.34.04-.34.1-.31.14-.29.2-.25.24-.2.28-.17.31-.11.33-.05.34-.01.18v15.22l.01-.18v.35l.05.34.11.33.17.31.2.28.25.24.29.2.31.15.34.09.34.05z" style="stroke-width:0.53;fill:#FFFFFF;fill-opacity:0.50"/><text x="326.76" y="617.61" lengthAdjust="spacingAndGlyphs" style="font-size:5.69px;font-family:&quot;Liberation Sans&quot;" text-anchor="middle" textLength="64.96">BRAVO RESD FUNDING</text><text x="326.76" y="625.81" lengthAdjust="spacingAndGlyphs" style="font-size:5.69px;font-family:&quot;Liberation Sans&quot;" text-anchor="middle" textLength="10.5">TRT</text><path d="M396.93 282.29h60.78-.09l.35-.02.34-.07.32-.12.3-.17.27-.22.23-.26.19-.3.14-.32.08-.34.03-.34h0v-23.42h0l-.03-.34-.08-.34-.14-.32-.19-.3-.23-.26-.27-.22-.3-.17-.32-.12-.34-.07-.26-.02h-60.78l.26.02-.35-.02-.34.05-.33.09-.32.15-.28.2-.26.24-.2.28-.17.31-.11.33-.05.34-.01.17v23.42l.01-.18v.35l.05.34.11.33.17.31.2.28.26.24.28.2.32.15.33.09.34.05z" style="stroke-width:0.53;fill:#FFFFFF;fill-opacity:0.50"/><text x="427.32" y="262.3" lengthAdjust="spacingAndGlyphs" style="font-size:5.69px;font-family:&quot;Liberation Sans&quot;" text-anchor="middle" textLength="57.9">3701 REGENT BLVD,</text><text x="427.32" y="270.49" lengthAdjust="spacingAndGlyphs" style="font-size:5.69px;font-family:&quot;Liberation Sans&quot;" text-anchor="middle" textLength="57.5">STE 200, IRVING, TX</text><text x="427.32" y="278.69" lengthAdjust="spacingAndGlyphs" style="font-size:5.69px;font-family:&quot;Liberation Sans&quot;" text-anchor="middle" textLength="18.11">75063</text><path d="M186.3 561.96h64.13l-.09-.01.35-.01.34-.07.32-.12.3-.18.27-.22.23-.26.19-.29.13-.32.09-.34.03-.34h0v-23.42h0l-.03-.35-.09-.33-.13-.32-.19-.3-.23-.26-.27-.22-.3-.17-.32-.13-.34-.06-.26-.02H186.3l.26.02-.34-.02-.35.04-.33.1-.32.15-.28.2-.25.24-.21.27-.16.31-.11.33-.06.35-.01.17v23.42l.01-.18v.35l.06.34.11.33.16.31.21.28.25.24.28.2.32.15.33.09.35.04z" style="stroke-width:0.53;fill:#FFFFFF;fill-opacity:0.50"/><text x="218.36" y="541.97" lengthAdjust="spacingAndGlyphs" style="font-size:5.69px;font-family:&quot;Liberation Sans&quot;" text-anchor="middle" textLength="61.24">3217 S DECKER LAKE</text><text x="218.36" y="550.16" lengthAdjust="spacingAndGlyphs" style="font-size:5.69px;font-family:&quot;Liberation Sans&quot;" text-anchor="middle" textLength="50.87">DR, WEST VALLEY</text><text x="218.36" y="558.36" lengthAdjust="spacingAndGlyphs" style="font-size:5.69px;font-family:&quot;Liberation Sans&quot;" text-anchor="middle" textLength="43.78">CITY, UT 84119</text><path d="M605.9 401.61h65.67-.09l.35-.01.34-.07.32-.13.3-.17.27-.22.23-.26.19-.29.14-.32.08-.34.03-.35h0v-23.41h0l-.03-.35-.08-.34-.14-.32-.19-.29-.23-.26-.27-.22-.3-.17-.32-.13-.34-.07-.26-.01H605.9l.26.01-.35-.01-.35.04-.33.1-.31.15-.29.19-.25.24-.21.28-.16.31-.11.33-.06.34v23.59-.17.35l.06.34.11.33.16.31.21.27.25.25.29.19.31.15.33.1.35.04z" style="stroke-width:0.53;fill:#FFFFFF;fill-opacity:0.50"/><text x="638.73" y="381.62" lengthAdjust="spacingAndGlyphs" style="font-size:5.69px;font-family:&quot;Liberation Sans&quot;" text-anchor="middle" textLength="62.79">1255 CORPORATE DR,</text><text x="638.73" y="389.82" lengthAdjust="spacingAndGlyphs" style="font-size:5.69px;font-family:&quot;Liberation Sans&quot;" text-anchor="middle" textLength="57.5">STE 600, IRVING, TX</text><text x="638.73" y="398.01" lengthAdjust="spacingAndGlyphs" style="font-size:5.69px;font-family:&quot;Liberation Sans&quot;" text-anchor="middle" textLength="18.11">75038</text><path d="M115.68 332.92h69.21-.09l.35-.02.34-.06.33-.13.3-.17.27-.22.23-.26.18-.3.14-.32.08-.33.03-.35h0v-15.22h0l-.03-.35-.08-.34-.14-.32-.18-.29-.23-.26-.27-.22-.3-.17-.33-.13-.34-.07-.26-.01h-69.21l.26.01-.35-.01-.34.04-.34.1-.31.15-.29.2-.25.24-.21.27-.16.31-.11.33-.05.34-.01.18v15.22l.01-.17v.34l.05.35.11.33.16.3.21.28.25.24.29.2.31.15.34.1.34.04z" style="stroke-width:0.53;fill:#FFFFFF;fill-opacity:0.50"/><text x="150.29" y="321.13" lengthAdjust="spacingAndGlyphs" style="font-size:5.69px;font-family:&quot;Liberation Sans&quot;" text-anchor="middle" textLength="61.35">PO BOX 24605, WEST</text><text x="150.29" y="329.32" lengthAdjust="spacingAndGlyphs" style="font-size:5.69px;font-family:&quot;Liberation Sans&quot;" text-anchor="middle" textLength="66.33">PALM BEACH, FL 33416</text></g><g clip-path="url(#cpMC4wMHw3MjAuMDB8MC4wMHw3MjAuMDA=)"><circle cx="300.61" cy="95.78" r="1.95" style="stroke-width:0.71;stroke:none;fill:#F8766D"/><path d="m376.96 92.74 2.63 4.56h-5.26z" style="stroke-width:0.71;stroke:none;fill:#00BFC4"/><text x="314.72" y="98.81" lengthAdjust="spacingAndGlyphs" style="font-size:8.80px;font-family:&quot;Liberation Sans Narrow&quot;" textLength="48.12">mprop address</text><text x="391.08" y="98.81" lengthAdjust="spacingAndGlyphs" style="font-size:8.80px;font-family:&quot;Liberation Sans Narrow&quot;" textLength="39.69">owner name</text><text x="32.63" y="64.23" lengthAdjust="spacingAndGlyphs" style="font-size:12.00px;font-family:&quot;Liberation Sans Narrow&quot;" textLength="257.7">includes 44 parcels, 52 units, and 18 distinct owner names.</text><text x="32.63" y="42.27" lengthAdjust="spacingAndGlyphs" style="font-size:18.00px;font-weight:bold;font-family:&quot;Liberation Sans Narrow&quot;" textLength="219.2">US BANK TRUST NA etc Group</text></g></svg>