<svg xmlns="http://www.w3.org/2000/svg" width="960" height="960" class="svglite" viewBox="0 0 720 720"><defs><style><![CDATA[.svglite line,.svglite polyline,.svglite polygon,.svglite path,.svglite circle{fill:none;stroke:#000000;stroke-linecap:round;stroke-linejoin:round;stroke-miterlimit:10.00}.svglite text{white-space:pre}]]></style></defs><rect width="100%" height="100%" style="stroke-linecap:round;stroke-linejoin:round;stroke-miterlimit:10.00;stroke:none;fill:#FFFFFF"/><defs><clipPath id="cpMC4wMHw3MjAuMDB8MC4wMHw3MjAuMDA="><path d="M0 0h720v720H0z"/></clipPath></defs><g clip-path="url(#cpMC4wMHw3MjAuMDB8MC4wMHw3MjAuMDA=)"><path d="M0 0h720v720H0z" style="stroke-width:1.07;stroke:none;fill:#FFFFFF"/></g><defs><clipPath id="cpMzIuNjN8NjkwLjExfDEyMC44Nnw2ODcuMzc="><path d="M32.63 120.86h657.48v566.51H32.63z"/></clipPath></defs><g clip-path="url(#cpMzIuNjN8NjkwLjExfDEyMC44Nnw2ODcuMzc=)"><path d="m547.54 295.53-1.31-.84-1.31-.83-1.31-.82-1.32-.8-1.31-.78-1.31-.78-1.32-.75-1.32-.75-1.32-.73-1.32-.71-1.32-.7-1.32-.69-1.32-.67-1.33-.66-1.32-.64-1.33-.63-1.33-.61-1.33-.6-1.33-.59-1.33-.57-1.34-.56-1.33-.54-1.34-.53-1.33-.51-1.34-.5-1.34-.48-1.34-.48-1.35-.45-1.34-.44-1.34-.43-1.35-.41-1.35-.4-1.34-.39-1.35-.37-1.35-.35-1.36-.34-1.35-.33-1.35-.31-1.36-.3-1.36-.29-1.35-.26-1.36-.26-1.36-.24-1.36-.23-1.37-.21-1.36-.2-1.37-.18-1.36-.17-1.37-.15-1.37-.14-1.37-.13-1.37-.11-1.38-.1-1.37-.08-1.37-.07-1.38-.05-1.38-.04-1.38-.03-1.38-.01-1.38.01-1.38.01-1.39.04-1.38.04-1.39.06-1.38.08-1.39.09-1.39.1-1.39.12-1.4.14-1.39.14-1.4.16-1.39.18-1.4.19-1.4.21-1.4.21-1.4.24-1.4.25-1.4.26-1.41.27-1.41.3-1.4.3-1.41.32-1.41.33-1.41.35-1.41.37-1.42.37-1.41.39-1.42.41-1.41.42-1.42.44-1.42.44-1.42.47-1.42.48-1.43.49-1.42.5-1.43.52-1.42.54-1.43.55-1.43.56" style="stroke-width:1.07;stroke:#000000;stroke-opacity:0.10;stroke-linecap:butt"/><path d="m547.54 295.53-1.32-.77-1.31-.75-1.32-.75-1.32-.73-1.32-.72-1.32-.7-1.32-.7-1.32-.68-1.33-.66-1.32-.66-1.33-.64-1.33-.63-1.33-.61-1.33-.61-1.33-.59-1.33-.57-1.33-.57-1.33-.55-1.34-.54-1.34-.52-1.33-.52-1.34-.5-1.34-.48-1.34-.48-1.34-.46-1.34-.45-1.35-.44-1.34-.42-1.35-.41-1.35-.4-1.34-.38-1.35-.37-1.35-.36-1.36-.35-1.35-.33-1.35-.32-1.36-.31-1.35-.29-1.36-.28-1.36-.27-1.36-.26-1.36-.24-1.36-.23-1.36-.22-1.37-.2-1.36-.19-1.37-.18-1.36-.17-1.37-.15-1.37-.14-1.37-.13-1.37-.11-1.37-.1-1.38-.09-1.37-.08-1.38-.06-1.37-.05-1.38-.04-1.38-.02-1.38-.01h-1.38l-1.38.01-1.39.03-1.38.04-1.39.05-1.38.07-1.39.07-1.39.1-1.39.1-1.39.12-1.39.13-1.4.14-1.39.16-1.4.16-1.39.19-1.4.19-1.4.21-1.4.22-1.4.23-1.4.24-1.41.26-1.4.27-1.41.29-1.4.3-1.41.31-1.41.32-1.41.33-1.41.35-1.41.36-1.42.38-1.41.38-1.41.4-1.42.42-1.42.42-1.42.44-1.42.45-1.42.47-1.42.47-1.42.49m92.16 69.86-.93-.7-.93-.71-.93-.7-.93-.71-.93-.7-.93-.71-.93-.71-.94-.7-.93-.71-.93-.7-.93-.71-.93-.7-.93-.71-.93-.71-.93-.7-.93-.71-.93-.7-.93-.71-.94-.7-.93-.71-.93-.71-.93-.7-.93-.71-.93-.7-.93-.71-.93-.7-.93-.71-.93-.7-.94-.71-.93-.71-.93-.7-.93-.71-.93-.7-.93-.71-.93-.7-.93-.71-.93-.71-.93-.7-.93-.71-.94-.7-.93-.71-.93-.7-.93-.71-.93-.71-.93-.7-.93-.71-.93-.7-.93-.71-.93-.7-.94-.71-.93-.7-.93-.71-.93-.71-.93-.7-.93-.71-.93-.7-.93-.71-.93-.7-.93-.71-.94-.71-.93-.7-.93-.71-.93-.7-.93-.71-.93-.7-.93-.71-.93-.71-.93-.7-.93-.71-.93-.7-.94-.71-.93-.7-.93-.71-.93-.71-.93-.7-.93-.71-.93-.7-.93-.71-.93-.7-.93-.71-.94-.7-.93-.71-.93-.71-.93-.7-.93-.71-.93-.7-.93-.71-.93-.7-.93-.71-.93-.71-.93-.7-.94-.71-.93-.7-.93-.71-.93-.7-.93-.71-.93-.71-.93-.7-.93-.71" style="stroke-width:1.07;stroke:#000000;stroke-opacity:0.10;stroke-linecap:butt"/><path d="m500.84 246.84-.9.35-.9.35-.9.35-.89.36-.9.35-.9.35-.9.35-.89.35-.9.35-.9.36-.89.35-.9.35-.9.35-.9.35-.89.35-.9.36-.9.35-.9.35-.89.35-.9.35-.9.36-.9.35-.89.35-.9.35-.9.35-.89.35-.9.36-.9.35-.9.35-.89.35-.9.35-.9.35-.9.36-.89.35-.9.35-.9.35-.9.35-.89.36-.9.35-.9.35-.9.35-.89.35-.9.35-.9.36-.89.35-.9.35-.9.35-.9.35-.89.35-.9.36-.9.35-.9.35-.89.35-.9.35-.9.36-.9.35-.89.35-.9.35-.9.35-.9.35-.89.36-.9.35-.9.35-.89.35-.9.35-.9.36-.9.35-.89.35-.9.35-.9.35-.9.35-.89.36-.9.35-.9.35-.9.35-.89.35-.9.35-.9.36-.9.35-.89.35-.9.35-.9.35-.89.36-.9.35-.9.35-.9.35-.89.35-.9.35-.9.36-.9.35-.89.35-.9.35-.9.35-.9.35-.89.36-.9.35-.9.35-.89.35-.9.35m84.41-96.88-.88.95-.87.96-.87.95-.88.96-.87.96-.87.96-.87.95-.88.96-.87.96-.87.96-.87.96-.87.96-.87.96-.87.97-.86.96-.87.96-.87.96-.87.97-.86.96-.87.97-.87.96-.86.97-.87.96-.86.97-.86.97-.87.96-.86.97-.86.97-.87.97-.86.97-.86.97-.86.97-.86.97-.86.97-.86.97-.86.97-.86.98-.85.97-.86.97-.86.98-.86.97-.85.98-.86.97-.85.98-.86.97-.85.98-.86.98-.85.97-.85.98-.86.98-.85.98-.85.98-.85.98-.85.98-.85.98-.85.98-.85.99-.85.98-.85.98-.85.98-.85.99-.84.98-.85.99-.85.98-.84.99-.85.98-.84.99-.85.99-.84.99-.84.98-.85.99-.84.99-.84.99-.84.99-.85.99-.84.99-.84.99-.84 1-.84.99-.84.99-.83.99-.84 1-.84.99-.84 1-.83.99-.84 1-.84.99-.83 1-.84 1-.83.99-.84 1-.83 1-.83 1-.84 1-.83 1-.83 1-.83 1-.83 1-.83 1m35.38-124.95-.35 1.27-.36 1.26-.36 1.26-.36 1.26-.35 1.26-.36 1.27-.36 1.26-.36 1.26-.35 1.26-.36 1.27-.36 1.26-.36 1.26-.35 1.26-.36 1.26-.36 1.27-.36 1.26-.35 1.26-.36 1.26-.36 1.26-.36 1.27-.35 1.26-.36 1.26-.36 1.26-.36 1.26-.35 1.27-.36 1.26-.36 1.26-.36 1.26-.35 1.27-.36 1.26-.36 1.26-.35 1.26-.36 1.26-.36 1.27-.36 1.26-.35 1.26-.36 1.26-.36 1.26-.36 1.27-.35 1.26-.36 1.26-.36 1.26-.36 1.27-.35 1.26-.36 1.26-.36 1.26-.36 1.26-.35 1.27-.36 1.26-.36 1.26-.36 1.26-.35 1.26-.36 1.27-.36 1.26-.36 1.26-.35 1.26-.36 1.26-.36 1.27-.36 1.26-.35 1.26-.36 1.26-.36 1.27-.36 1.26-.35 1.26-.36 1.26-.36 1.26-.35 1.27-.36 1.26-.36 1.26-.36 1.26-.35 1.26-.36 1.27-.36 1.26-.36 1.26-.35 1.26-.36 1.26-.36 1.27-.36 1.26-.35 1.26-.36 1.26-.36 1.27-.36 1.26-.35 1.26-.36 1.26-.36 1.26-.36 1.27-.35 1.26-.36 1.26-.36 1.26-.36 1.26-.35 1.27-.36 1.26-.36 1.26-.36 1.26-.35 1.27-.36 1.26-.36 1.26-.35 1.26-.36 1.26" style="stroke-width:1.07;stroke:#000000;stroke-opacity:0.10;stroke-linecap:butt"/><path d="m396.97 146.61.15 1.37.15 1.36.15 1.37.15 1.36.16 1.36.15 1.37.15 1.36.15 1.37.15 1.36.16 1.36.15 1.37.15 1.36.15 1.37.15 1.36.15 1.37.16 1.36.15 1.36.15 1.37.15 1.36.15 1.37.16 1.36.15 1.36.15 1.37.15 1.36.15 1.37.15 1.36.16 1.37.15 1.36.15 1.36.15 1.37.15 1.36.16 1.37.15 1.36.15 1.36.15 1.37.15 1.36.15 1.37.16 1.36.15 1.36.15 1.37.15 1.36.15 1.37.16 1.36.15 1.37.15 1.36.15 1.36.15 1.37.15 1.36.16 1.37.15 1.36.15 1.36.15 1.37.15 1.36.16 1.37.15 1.36.15 1.37.15 1.36.15 1.36.15 1.37.16 1.36.15 1.37.15 1.36.15 1.36.15 1.37.16 1.36.15 1.37.15 1.36.15 1.37.15 1.36.15 1.36.16 1.37.15 1.36.15 1.37.15 1.36.15 1.36.16 1.37.15 1.36.15 1.37.15 1.36.15 1.36.15 1.37.16 1.36.15 1.37.15 1.36.15 1.37.15 1.36.16 1.36.15 1.37.15 1.36.15 1.37.15 1.36.15 1.36.16 1.37.15 1.36.15 1.37.15 1.36.15 1.37.16 1.36.15 1.36m135.54 13.87-1.32-.69-1.33-.69-1.32-.67-1.32-.66-1.33-.65-1.33-.64-1.32-.63-1.33-.62-1.33-.6-1.33-.6-1.33-.58-1.33-.57-1.34-.56-1.33-.55-1.34-.53-1.33-.53-1.34-.51-1.34-.51-1.34-.49-1.34-.48-1.34-.47-1.34-.46-1.34-.44-1.35-.44-1.34-.42-1.35-.41-1.34-.41-1.35-.38-1.35-.38-1.35-.37-1.35-.36-1.35-.34-1.36-.33-1.35-.32-1.35-.31-1.36-.3-1.36-.29-1.35-.28-1.36-.26-1.36-.26-1.36-.24-1.36-.23-1.36-.22-1.37-.21-1.36-.19-1.37-.19-1.36-.17-1.37-.17-1.37-.15-1.37-.14-1.37-.13-1.37-.11-1.37-.11-1.37-.09-1.38-.09-1.37-.07-1.38-.06-1.38-.05-1.37-.04-1.38-.02-1.38-.02h-2.76l-1.39.02-1.38.03-1.39.04-1.38.06-1.39.06-1.39.08-1.38.08-1.39.1-1.39.11-1.39.12-1.4.13-1.39.15-1.4.15-1.39.17-1.4.18-1.39.18-1.4.2-1.4.22-1.4.22-1.4.23-1.4.25-1.41.26-1.4.26-1.41.28-1.4.29-1.41.31-1.41.31-1.41.33-1.41.33-1.41.35-1.41.36-1.41.37-1.42.38-1.41.39-1.42.41-1.41.41M79.58 320.45l.98.86.99.86.98.86.99.86.98.86.99.86.98.85.99.86.98.86.99.86.98.86.99.86.98.86.99.86.98.86.98.85.99.86.98.86.99.86.98.86.99.86.98.86.99.86.98.86.99.86.98.85.99.86.98.86.99.86.98.86.99.86.98.86.99.86.98.86.99.85.98.86.99.86.98.86.99.86.98.86.99.86.98.86.99.86.98.86.98.85.99.86.98.86.99.86.98.86.99.86.98.86.99.86.98.86.99.85.98.86.99.86.98.86.99.86.98.86.99.86.98.86.99.86.98.85.99.86.98.86.99.86.98.86.99.86.98.86.99.86.98.86.99.86.98.85.98.86.99.86.98.86.99.86.98.86.99.86.98.86.99.86.98.85.99.86.98.86.99.86.98.86.99.86.98.86.99.86.98.86.99.86.98.85.99.86.98.86.99.86.98.86.99.86.98.86.99.86m6.28 125.03-.07-1.27-.06-1.26-.06-1.26-.07-1.26-.06-1.27-.07-1.26-.06-1.26-.06-1.27-.07-1.26-.06-1.26-.06-1.27-.07-1.26-.06-1.26-.06-1.26-.07-1.27-.06-1.26-.06-1.26-.07-1.27-.06-1.26-.06-1.26-.07-1.26-.06-1.27-.06-1.26-.07-1.26-.06-1.27-.06-1.26-.07-1.26-.06-1.27-.06-1.26-.07-1.26-.06-1.26-.06-1.27-.07-1.26-.06-1.26-.06-1.27-.07-1.26-.06-1.26-.07-1.26-.06-1.27-.06-1.26-.07-1.26-.06-1.27-.06-1.26-.07-1.26-.06-1.27-.06-1.26-.07-1.26-.06-1.26-.06-1.27-.07-1.26-.06-1.26-.06-1.27-.07-1.26-.06-1.26-.06-1.26-.07-1.27-.06-1.26-.06-1.26-.07-1.27-.06-1.26-.06-1.26-.07-1.26-.06-1.27-.06-1.26-.07-1.26-.06-1.27-.06-1.26-.07-1.26-.06-1.27-.06-1.26-.07-1.26-.06-1.26-.07-1.27-.06-1.26-.06-1.26-.07-1.27-.06-1.26-.06-1.26-.07-1.26-.06-1.27-.06-1.26-.07-1.26-.06-1.27-.06-1.26-.07-1.26-.06-1.27-.06-1.26-.07-1.26-.06-1.26-.06-1.27-.07-1.26-.06-1.26-.06-1.27-.07-1.26-.06-1.26-.06-1.26-.07-1.27-.06-1.26-.06-1.26m152.5-128.83.84.05.83.05.83.05.83.05.84.05.83.05.83.05.83.05.83.05.84.05.83.06.83.05.83.05.84.05.83.05.83.05.83.05.84.05.83.05.83.05.83.05.84.05.83.05.83.05.83.05.84.05.83.05.83.05.83.06.84.05.83.05.83.05.83.05.84.05.83.05.83.05.83.05.84.05.83.05.83.05.83.05.84.05.83.05.83.05.83.05.84.05.83.06.83.05.83.05.84.05.83.05.83.05.83.05.84.05.83.05.83.05.83.05.84.05.83.05.83.05.83.05.84.05.83.05.83.05.83.05.84.06.83.05.83.05.83.05.84.05.83.05.83.05.83.05.84.05.83.05.83.05.83.05.84.05.83.05.83.05.83.05.84.05.83.05.83.06.83.05.84.05.83.05.83.05.83.05.84.05.83.05.83.05.83.05.84.05.83.05.83.05.83.05.84.05.83.05M309.64 397.79l-1.34.08-1.34.08-1.34.08-1.34.07-1.34.08-1.34.08-1.34.08-1.33.07-1.34.08-1.34.08-1.34.08-1.34.08-1.34.07-1.34.08-1.34.08-1.34.08-1.34.07-1.33.08-1.34.08-1.34.08-1.34.07-1.34.08-1.34.08-1.34.08-1.34.08-1.34.07-1.34.08-1.33.08-1.34.08-1.34.07-1.34.08-1.34.08-1.34.08-1.34.07-1.34.08-1.34.08-1.34.08-1.33.08-1.34.07-1.34.08-1.34.08-1.34.08-1.34.07-1.34.08-1.34.08-1.34.08-1.34.08-1.33.07-1.34.08-1.34.08-1.34.08-1.34.07-1.34.08-1.34.08-1.34.08-1.34.07-1.34.08-1.33.08-1.34.08-1.34.08-1.34.07-1.34.08-1.34.08-1.34.08-1.34.07-1.34.08-1.34.08-1.34.08-1.33.08-1.34.07-1.34.08-1.34.08-1.34.08-1.34.07-1.34.08-1.34.08-1.34.08-1.34.07-1.33.08-1.34.08-1.34.08-1.34.08-1.34.07-1.34.08-1.34.08-1.34.08-1.34.07-1.34.08-1.33.08-1.34.08-1.34.07-1.34.08-1.34.08-1.34.08-1.34.08-1.34.07-1.34.08-1.34.08-1.33.08" style="stroke-width:1.07;stroke:#000000;stroke-opacity:0.10;stroke-linecap:butt"/><path d="m547.54 295.53-1.33-.62-1.33-.61-1.33-.6-1.33-.59-1.33-.59-1.33-.57-1.34-.56-1.33-.56-1.33-.54-1.34-.53-1.34-.53-1.33-.51-1.34-.5-1.34-.5-1.34-.48-1.34-.48-1.34-.46-1.34-.46-1.35-.44-1.34-.43-1.34-.43-1.35-.42-1.35-.4-1.34-.4-1.35-.38-1.35-.38-1.35-.36-1.35-.36-1.35-.35-1.35-.33-1.36-.33-1.35-.32-1.36-.31-1.35-.29-1.36-.29-1.36-.28-1.35-.27-1.36-.25-1.36-.25-1.36-.24-1.37-.23-1.36-.22-1.36-.21-1.36-.2-1.37-.19-1.37-.18-1.36-.16-1.37-.16-1.37-.15-1.37-.14-1.37-.13-1.37-.13-1.37-.11-1.37-.1-1.37-.09-1.38-.08-1.37-.07-1.38-.06-1.38-.05-1.37-.04-1.38-.04-1.38-.02-1.38-.01h-2.76l-1.39.02-1.38.03-1.38.03-1.39.05-1.38.06-1.39.06-1.39.08-1.39.09-1.39.09-1.39.11-1.39.11-1.39.13-1.39.13-1.4.15-1.39.15-1.4.17-1.39.17-1.4.19-1.4.19-1.39.21-1.4.21-1.4.22-1.41.24-1.4.24-1.4.25-1.4.27-1.41.27-1.4.28-1.41.29-1.41.31-1.4.31-1.41.32-1.41.33-1.41.34" style="stroke-width:1.07;stroke:#000000;stroke-opacity:0.10;stroke-linecap:butt"/><path d="m346.79 161.61.66 1.22.66 1.21.66 1.21.66 1.21.65 1.22.66 1.21.66 1.21.66 1.21.66 1.22.66 1.21.66 1.21.66 1.21.65 1.22.66 1.21.66 1.21.66 1.21.66 1.22.66 1.21.66 1.21.65 1.22.66 1.21.66 1.21.66 1.21.66 1.22.66 1.21.66 1.21.65 1.21.66 1.22.66 1.21.66 1.21.66 1.21.66 1.22.66 1.21.66 1.21.65 1.21.66 1.22.66 1.21.66 1.21.66 1.22.66 1.21.66 1.21.65 1.21.66 1.22.66 1.21.66 1.21.66 1.21.66 1.22.66 1.21.66 1.21.65 1.21.66 1.22.66 1.21.66 1.21.66 1.21.66 1.22.66 1.21.65 1.21.66 1.22.66 1.21.66 1.21.66 1.21.66 1.22.66 1.21.66 1.21.65 1.21.66 1.22.66 1.21.66 1.21.66 1.21.66 1.22.66 1.21.65 1.21.66 1.22.66 1.21.66 1.21.66 1.21.66 1.22.66 1.21.65 1.21.66 1.21.66 1.22.66 1.21.66 1.21.66 1.21.66 1.22.66 1.21.65 1.21.66 1.21.66 1.22.66 1.21.66 1.21.66 1.22.66 1.21.65 1.21.66 1.21.66 1.22.66 1.21.66 1.21.66 1.21" style="stroke-width:1.07;stroke:#000000;stroke-opacity:0.10;stroke-linecap:butt"/><path d="m547.54 295.53-1.34-.54-1.33-.54-1.34-.53-1.33-.53-1.34-.51-1.34-.51-1.34-.5-1.34-.49-1.34-.48-1.34-.47-1.34-.46-1.34-.46-1.34-.45-1.35-.44-1.34-.43-1.35-.42-1.34-.42-1.35-.4-1.34-.4-1.35-.39-1.35-.38-1.35-.37-1.35-.37-1.35-.36-1.35-.34-1.35-.34-1.36-.33-1.35-.33-1.35-.31-1.36-.31-1.35-.3-1.36-.29-1.36-.28-1.36-.27-1.35-.27-1.36-.25-1.36-.25-1.36-.24-1.36-.23-1.37-.23-1.36-.21-1.36-.21-1.37-.2-1.36-.19-1.37-.18-1.36-.17-1.37-.17-1.37-.15-1.37-.15-1.37-.14-1.36-.13-1.38-.13-1.37-.11-1.37-.11-1.37-.1-1.37-.09-1.38-.08-1.37-.07-1.38-.07-1.38-.06-1.37-.04-1.38-.04-1.38-.04-1.38-.02-1.38-.02h-2.76l-1.38.01-1.38.02-1.39.02-1.38.04-1.39.04-1.38.05-1.39.06-1.38.07-1.39.08-1.39.08-1.39.09-1.39.1-1.39.11-1.39.12-1.39.13-1.39.13-1.4.14-1.39.16-1.4.15-1.39.17-1.4.18-1.39.18-1.4.2-1.4.2-1.4.21-1.4.21-1.4.23-1.4.23-1.4.25-1.41.25-1.4.26-1.4.26m135.54 13.87h4.55l1.14.01h38.7l1.14.01h39.84l1.14.01h26.18m-530.09-9.16.47 1.2.48 1.21.47 1.2.47 1.2.48 1.2.47 1.21.48 1.2.47 1.2.47 1.21.48 1.2.47 1.2.48 1.2.47 1.21.48 1.2.47 1.2.47 1.21.48 1.2.47 1.2.48 1.21.47 1.2.47 1.2.48 1.2.47 1.21.48 1.2.47 1.2.47 1.21.48 1.2.47 1.2.48 1.2.47 1.21.48 1.2.47 1.2.47 1.21.48 1.2.47 1.2.48 1.2.47 1.21.47 1.2.48 1.2.47 1.21.48 1.2.47 1.2.47 1.2.48 1.21.47 1.2.48 1.2.47 1.21.48 1.2.47 1.2.47 1.2.48 1.21.47 1.2.48 1.2.47 1.21.47 1.2.48 1.2.47 1.21.48 1.2.47 1.2.47 1.2.48 1.21.47 1.2.48 1.2.47 1.21.48 1.2.47 1.2.47 1.2.48 1.21.47 1.2.48 1.2.47 1.21.47 1.2.48 1.2.47 1.2.48 1.21.47 1.2.47 1.2.48 1.21.47 1.2.48 1.2.47 1.2.48 1.21.47 1.2.47 1.2.48 1.21.47 1.2.48 1.2.47 1.2.47 1.21.48 1.2.47 1.2.48 1.21.47 1.2.47 1.2.48 1.2.47 1.21.48 1.2.47 1.2.48 1.21" style="stroke-width:1.07;stroke:#000000;stroke-opacity:0.10;stroke-linecap:butt"/><path d="m318.29 210.3.91.77.92.78.91.77.92.76.91.77.92.77.92.76.92.77.92.76.92.77.92.76.92.76.92.76.92.76.93.75.92.76.93.76.92.75.93.75.92.76.93.75.93.75.93.75.93.74.93.75.93.75.93.74.93.74.93.75.94.74.93.74.93.74.94.74.94.74.93.73.94.74.94.73.94.74.94.73.93.73.95.73.94.73.94.73.94.72.94.73.95.72.94.73.95.72.94.72.95.72.95.72.95.72.94.72.95.72.95.71.95.72.96.71.95.71.95.71.95.72.96.7.95.71.96.71.95.71.96.7.96.71.95.7.96.7.96.7.96.7.96.7.96.7.97.69.96.7.96.7.96.69.97.69.96.69.97.69.97.69.96.69.97.69.97.68.97.69.97.68.97.69.97.68.97.68.98.68.97.68.97.68.98.67.97.68.98.68.97.67.98.67.98.67.98.67.98.67" style="stroke-width:1.07;stroke:#000000;stroke-opacity:0.10;stroke-linecap:butt"/><path d="m318.29 210.3.94.72.95.72.95.73.94.72.95.72.95.72.94.72.95.72.95.72.94.72.95.72.95.72.94.72.95.72.95.72.94.73.95.72.95.72.94.72.95.72.95.72.94.72.95.72.95.72.94.72.95.72.95.72.94.73.95.72.94.72.95.72.95.72.94.72.95.72.95.72.94.72.95.72.95.72.94.72.95.73.95.72.94.72.95.72.95.72.94.72.95.72.95.72.94.72.95.72.95.72.94.72.95.73.95.72.94.72.95.72.95.72.94.72.95.72.95.72.94.72.95.72.94.72.95.72.95.72.94.73.95.72.95.72.94.72.95.72.95.72.94.72.95.72.95.72.94.72.95.72.95.72.94.73.95.72.95.72.94.72.95.72.95.72.94.72.95.72.95.72.94.72.95.72.95.72.94.73.95.72.95.72.94.72.95.72.94.72.95.72.95.72.94.72.95.72.95.72m60.16 116.08-.61-1.17-.61-1.18-.61-1.17-.6-1.17-.61-1.17-.61-1.18-.61-1.17-.61-1.17-.6-1.17-.61-1.18-.61-1.17-.61-1.17-.6-1.17-.61-1.18-.61-1.17-.61-1.17-.6-1.17-.61-1.18-.61-1.17-.61-1.17-.61-1.17-.6-1.18-.61-1.17-.61-1.17-.61-1.17-.6-1.18-.61-1.17-.61-1.17-.61-1.17-.6-1.18-.61-1.17-.61-1.17-.61-1.17-.6-1.18-.61-1.17-.61-1.17-.61-1.17-.61-1.18-.6-1.17-.61-1.17-.61-1.17-.61-1.18-.6-1.17-.61-1.17-.61-1.17-.61-1.18-.6-1.17-.61-1.17-.61-1.17-.61-1.18-.6-1.17-.61-1.17-.61-1.17-.61-1.18-.61-1.17-.6-1.17-.61-1.17-.61-1.18-.61-1.17-.6-1.17-.61-1.17-.61-1.17-.61-1.18-.6-1.17-.61-1.17-.61-1.17-.61-1.18-.6-1.17-.61-1.17-.61-1.17-.61-1.18-.61-1.17-.6-1.17-.61-1.17-.61-1.18-.61-1.17-.6-1.17-.61-1.17-.61-1.18-.61-1.17-.6-1.17-.61-1.17-.61-1.18-.61-1.17-.61-1.17-.6-1.17-.61-1.18-.61-1.17-.61-1.17-.6-1.17-.61-1.18-.61-1.17-.61-1.17-.6-1.17-.61-1.18-.61-1.17-.61-1.17-.6-1.17-.61-1.18m135.54 13.87-1.34-.47-1.34-.47-1.35-.46-1.34-.45-1.34-.45-1.34-.44-1.35-.43-1.34-.42-1.35-.42-1.34-.42-1.35-.4-1.35-.4-1.35-.39-1.34-.39-1.35-.38-1.35-.37-1.35-.36-1.35-.36-1.35-.35-1.35-.35-1.36-.33-1.35-.33-1.35-.33-1.36-.31-1.35-.31-1.36-.31-1.35-.29-1.36-.29-1.35-.29-1.36-.27-1.36-.27-1.36-.27-1.36-.25-1.36-.25-1.36-.24-1.36-.24-1.36-.23-1.36-.22-1.37-.21-1.36-.21-1.36-.2-1.37-.2-1.36-.19-1.37-.18-1.36-.17-1.37-.17-1.37-.16-1.37-.15-1.36-.15-1.37-.14-1.37-.13-1.37-.13-1.37-.12-1.38-.11-1.37-.11-1.37-.1-1.37-.09-1.38-.08-1.37-.08-1.38-.08-1.37-.06-1.38-.06-1.37-.05-1.38-.05-1.38-.03-1.38-.04-1.38-.02-1.38-.02-1.38-.01h-2.76l-1.38.01-1.38.02-1.39.02-1.38.03-1.38.04-1.39.04-1.38.05-1.39.06-1.39.06-1.38.07-1.39.08-1.39.09-1.39.09-1.39.1-1.39.1-1.39.11-1.39.12-1.39.13-1.39.13-1.4.14-1.39.14-1.4.16-1.39.15-1.4.17-1.39.17-1.4.18-1.39.19-1.4.19" style="stroke-width:1.07;stroke:#000000;stroke-opacity:0.10;stroke-linecap:butt"/><path d="m412.8 376.87-.01-.96-.01-.96-.01-.97-.01-.96v-.96l-.01-.96-.01-.96-.01-.96-.01-.97-.01-.96v-.96l-.01-.96-.01-.96-.01-.96-.01-.97v-.96l-.01-.96-.01-.96-.01-.96-.01-.96v-.97l-.01-.96-.01-.96-.01-.96-.01-.96v-.96l-.01-.97-.01-.96-.01-.96-.01-.96v-.96l-.01-.96-.01-.97-.01-.96-.01-.96v-.96l-.01-.96-.01-.96-.01-.97-.01-.96-.01-.96v-.96l-.01-.96-.01-.96-.01-.97-.01-.96v-.96l-.01-.96-.01-.96-.01-.96-.01-.97v-.96l-.01-.96-.01-.96-.01-.96-.01-.96v-.97l-.01-.96-.01-.96-.01-.96-.01-.96v-.96l-.01-.97-.01-.96-.01-.96-.01-.96v-.96l-.01-.96-.01-.97-.01-.96-.01-.96v-.96l-.01-.96-.01-.96-.01-.97-.01-.96-.01-.96v-.96l-.01-.96-.01-.96-.01-.97-.01-.96v-.96l-.01-.96-.01-.96-.01-.96-.01-.97v-.96l-.01-.96-.01-.96-.01-.96-.01-.96v-.97l-.01-.96-.01-.96-.01-.96-.01-.96v-.96l-.01-.97M309.64 397.79l.44 1.41.44 1.41.44 1.4.45 1.41.44 1.41.44 1.41.44 1.4.44 1.41.45 1.41.44 1.41.44 1.4.44 1.41.44 1.41.45 1.41.44 1.4.44 1.41.44 1.41.45 1.41.44 1.4.44 1.41.44 1.41.44 1.41.45 1.4.44 1.41.44 1.41.44 1.41.44 1.4.45 1.41.44 1.41.44 1.41.44 1.4.44 1.41.45 1.41.44 1.41.44 1.4.44 1.41.44 1.41.45 1.41.44 1.4.44 1.41.44 1.41.45 1.4.44 1.41.44 1.41.44 1.41.44 1.4.45 1.41.44 1.41.44 1.41.44 1.4.44 1.41.45 1.41.44 1.41.44 1.4.44 1.41.44 1.41.45 1.41.44 1.4.44 1.41.44 1.41.45 1.41.44 1.4.44 1.41.44 1.41.44 1.41.45 1.4.44 1.41.44 1.41.44 1.41.44 1.4.45 1.41.44 1.41.44 1.41.44 1.4.44 1.41.45 1.41.44 1.41.44 1.4.44 1.41.44 1.41.45 1.41.44 1.4.44 1.41.44 1.41.45 1.4.44 1.41.44 1.41.44 1.41.44 1.4.45 1.41.44 1.41.44 1.41.44 1.4.44 1.41.45 1.41.44 1.41.44 1.4.44 1.41.44 1.41m194.14-241.6-1.35-.4-1.35-.39-1.34-.39-1.35-.38-1.35-.38-1.35-.37-1.35-.37-1.35-.36-1.35-.36-1.35-.35-1.35-.35-1.36-.34-1.35-.34-1.35-.33-1.35-.32-1.36-.32-1.35-.32-1.36-.31-1.35-.3-1.36-.3-1.35-.29-1.36-.29-1.36-.29-1.35-.27-1.36-.28-1.36-.26-1.36-.26-1.36-.26-1.36-.25-1.36-.25-1.36-.24-1.36-.23-1.36-.23-1.36-.23-1.36-.22-1.37-.21-1.36-.21-1.36-.21-1.37-.19-1.36-.2-1.37-.18-1.36-.19-1.37-.17-1.36-.18-1.37-.16-1.37-.16-1.37-.16-1.36-.15-1.37-.15-1.37-.14-1.37-.13-1.37-.13-1.37-.12-1.37-.12-1.37-.12-1.38-.11-1.37-.1-1.37-.1-1.37-.09-1.38-.09-1.37-.08-1.38-.07-1.37-.08-1.38-.06-1.37-.06-1.38-.06-1.38-.05-1.37-.04-1.38-.04-1.38-.04-1.38-.03-1.38-.02-1.38-.02-1.38-.01-1.38-.01h-2.76l-1.38.01-1.38.01-1.39.02-1.38.03-1.38.03-1.39.03-1.38.04-1.39.05-1.38.05-1.39.05-1.38.06-1.39.07-1.39.07-1.38.08-1.39.08-1.39.09-1.39.09-1.39.1-1.39.1-1.39.11-1.39.11-1.39.12m-79.12 379.96.21-1.26.2-1.25.21-1.26.21-1.26.21-1.26.2-1.25.21-1.26.21-1.26.21-1.26.2-1.25.21-1.26.21-1.26.2-1.26.21-1.25.21-1.26.21-1.26.2-1.26.21-1.25.21-1.26.21-1.26.2-1.26.21-1.25.21-1.26.21-1.26.2-1.26.21-1.25.21-1.26.2-1.26.21-1.26.21-1.25.21-1.26.2-1.26.21-1.26.21-1.25.21-1.26.2-1.26.21-1.26.21-1.25.2-1.26.21-1.26.21-1.26.21-1.25.2-1.26.21-1.26.21-1.26.21-1.25.2-1.26.21-1.26.21-1.26.21-1.25.2-1.26.21-1.26.21-1.26.2-1.25.21-1.26.21-1.26.21-1.26.2-1.25.21-1.26.21-1.26.21-1.26.2-1.25.21-1.26.21-1.26.21-1.26.2-1.25.21-1.26.21-1.26.2-1.26.21-1.25.21-1.26.21-1.26.2-1.26.21-1.25.21-1.26.21-1.26.2-1.26.21-1.25.21-1.26.21-1.26.2-1.26.21-1.25.21-1.26.2-1.26.21-1.26.21-1.25.21-1.26.2-1.26.21-1.26.21-1.25.21-1.26.2-1.26.21-1.26.21-1.25.2-1.26.21-1.26.21-1.26.21-1.25.2-1.26M62.51 391.61l1.16.14 1.16.14 1.15.14 1.16.14 1.16.14 1.16.14 1.15.14 1.16.14 1.16.14 1.16.14 1.15.14 1.16.14 1.16.14 1.15.14 1.16.14 1.16.14 1.16.14 1.15.14 1.16.14 1.16.14 1.15.14 1.16.14 1.16.14 1.16.14 1.15.14 1.16.14 1.16.14 1.15.14 1.16.14 1.16.14 1.16.14 1.15.14 1.16.14 1.16.14 1.16.15 1.15.14 1.16.14 1.16.14 1.15.14 1.16.14 1.16.14 1.16.14 1.15.14 1.16.14 1.16.14 1.15.14 1.16.14 1.16.14 1.16.14 1.15.14 1.16.14 1.16.14 1.15.14 1.16.14 1.16.14 1.16.14 1.15.14 1.16.14 1.16.14 1.15.14 1.16.14 1.16.14 1.16.14 1.15.14 1.16.14 1.16.14 1.16.14 1.15.14 1.16.14 1.16.14 1.15.14 1.16.14 1.16.14 1.16.14 1.15.14 1.16.14 1.16.14 1.15.14 1.16.14 1.16.14 1.16.14 1.15.14 1.16.14 1.16.14 1.15.14 1.16.14 1.16.14 1.16.14 1.15.14 1.16.14 1.16.15 1.16.14 1.15.14 1.16.14 1.16.14 1.15.14 1.16.14 1.16.14 1.16.14" style="stroke-width:1.07;stroke:#000000;stroke-opacity:0.10;stroke-linecap:butt"/><path d="m547.54 295.53-1.36-.32-1.35-.32-1.35-.32-1.36-.32-1.35-.31-1.36-.3-1.35-.3-1.36-.3-1.35-.3-1.36-.29-1.36-.29-1.35-.28-1.36-.28-1.36-.28-1.35-.27-1.36-.27-1.36-.26-1.36-.26-1.36-.26-1.36-.26-1.36-.25-1.36-.24-1.36-.24-1.36-.24-1.36-.24-1.36-.23-1.36-.22-1.37-.23-1.36-.22-1.36-.21-1.36-.21-1.37-.21-1.36-.21-1.36-.2-1.37-.19-1.36-.2-1.37-.19-1.36-.18-1.37-.18-1.36-.18-1.37-.18-1.37-.17-1.36-.16-1.37-.17-1.37-.16-1.37-.15-1.36-.15-1.37-.15-1.37-.14-1.37-.14-1.37-.14-1.37-.13-1.37-.13-1.37-.13-1.37-.12-1.37-.11-1.37-.12-1.37-.11-1.38-.1-1.37-.11-1.37-.09-1.37-.1-1.38-.09-1.37-.09-1.38-.08-1.37-.08-1.37-.08-1.38-.07-1.37-.07-1.38-.06-1.38-.06-1.37-.06-1.38-.05-1.38-.05-1.37-.05-1.38-.04-1.38-.04-1.38-.03-1.37-.03-1.38-.03-1.38-.02-1.38-.02-1.38-.02-1.38-.01h-1.38l-1.38-.01h-2.77l-1.38.01-1.38.01-1.38.02-1.38.02-1.39.02-1.38.03-1.38.03-1.39.03-1.38.04-1.39.04-1.38.04" style="stroke-width:1.07;stroke:#000000;stroke-opacity:0.10;stroke-linecap:butt"/><path d="m547.54 295.53-1.36-.25-1.36-.25-1.36-.24-1.36-.25-1.36-.24-1.36-.24-1.36-.24-1.36-.23-1.37-.24-1.36-.23-1.36-.23-1.36-.22-1.36-.23-1.36-.22-1.37-.22-1.36-.21-1.36-.22-1.36-.21-1.37-.21-1.36-.21-1.36-.21-1.37-.2-1.36-.2-1.37-.2-1.36-.2-1.36-.19-1.37-.19-1.36-.19-1.37-.19-1.36-.19-1.37-.18-1.37-.18-1.36-.18-1.37-.18-1.36-.17-1.37-.17-1.37-.17-1.36-.17-1.37-.16-1.37-.17-1.36-.16-1.37-.16-1.37-.15-1.37-.16-1.37-.15-1.36-.15-1.37-.14-1.37-.15-1.37-.14-1.37-.14-1.37-.14-1.37-.13-1.37-.14-1.37-.13-1.37-.13-1.37-.12-1.37-.13-1.37-.12-1.37-.12-1.37-.12-1.37-.11-1.37-.11-1.37-.12-1.38-.1-1.37-.11-1.37-.1-1.37-.11-1.38-.09-1.37-.1-1.37-.1-1.37-.09-1.38-.09-1.37-.09-1.38-.08-1.37-.09-1.37-.08-1.38-.08-1.37-.07-1.38-.08-1.37-.07-1.38-.07-1.37-.07-1.38-.06-1.37-.06-1.38-.06-1.38-.06-1.37-.06-1.38-.05-1.38-.06-1.37-.04-1.38-.05-1.38-.05-1.37-.04-1.38-.04-1.38-.04-1.38-.03-1.38-.04-1.37-.03-1.38-.03" style="stroke-width:1.07;stroke:#000000;stroke-opacity:0.10;stroke-linecap:butt"/><path d="m547.54 295.53-1.37-.17-1.36-.18-1.37-.18-1.37-.17-1.36-.17-1.37-.18-1.37-.17-1.36-.17-1.37-.17-1.36-.17-1.37-.17-1.37-.17-1.36-.17-1.37-.17-1.37-.16-1.36-.17-1.37-.17-1.37-.16-1.37-.16-1.36-.17-1.37-.16-1.37-.16-1.36-.16-1.37-.16-1.37-.16-1.37-.16-1.36-.15-1.37-.16-1.37-.16-1.37-.15-1.37-.16-1.36-.15-1.37-.15-1.37-.16-1.37-.15-1.37-.15-1.36-.15-1.37-.15-1.37-.15-1.37-.14-1.37-.15-1.37-.15-1.37-.14-1.36-.15-1.37-.14-1.37-.14-1.37-.15-1.37-.14-1.37-.14-1.37-.14-1.37-.14-1.37-.14-1.37-.13-1.36-.14-1.37-.14-1.37-.13-1.37-.14-1.37-.13-1.37-.13-1.37-.14-1.37-.13-1.37-.13-1.37-.13-1.37-.13-1.37-.13-1.37-.13-1.37-.12-1.37-.13-1.37-.13-1.37-.12-1.37-.13-1.37-.12-1.37-.12-1.38-.12-1.37-.12-1.37-.13-1.37-.11-1.37-.12-1.37-.12-1.37-.12-1.37-.12-1.37-.11-1.37-.12-1.38-.11-1.37-.11-1.37-.12-1.37-.11-1.37-.11-1.37-.11-1.37-.11-1.38-.11-1.37-.11-1.37-.11-1.37-.1-1.37-.11-1.38-.11-1.37-.1-1.37-.1-1.37-.11M121.34 523.52l.59-1.18.59-1.17.59-1.18.59-1.18.59-1.18.58-1.18.59-1.17.59-1.18.58-1.18.59-1.18.58-1.18.59-1.18.58-1.18.58-1.19.58-1.18.59-1.18.58-1.18.58-1.18.58-1.19.58-1.18.58-1.18.57-1.19.58-1.18.58-1.18.58-1.19.57-1.18.58-1.19.57-1.18.58-1.19.57-1.19.57-1.18.58-1.19.57-1.19.57-1.18.57-1.19.57-1.19.57-1.19.57-1.18.57-1.19.57-1.19.57-1.19.57-1.19.56-1.19.57-1.19.56-1.19.57-1.19.56-1.2.57-1.19.56-1.19.56-1.19.57-1.19.56-1.2.56-1.19.56-1.19.56-1.2.56-1.19.56-1.2.56-1.19.56-1.2.55-1.19.56-1.2.56-1.19.55-1.2.56-1.2.55-1.19.56-1.2.55-1.2.55-1.2.56-1.19.55-1.2.55-1.2.55-1.2.55-1.2.55-1.2.55-1.2.55-1.2.55-1.2.54-1.2.55-1.2.55-1.2.54-1.21.55-1.2.54-1.2.55-1.2.54-1.21.54-1.2.55-1.2.54-1.21.54-1.2.54-1.21.54-1.2.54-1.21.54-1.2.54-1.21.54-1.21.54-1.2.53-1.21.54-1.21.54-1.2M76.93 466.11l1.01-.61 1.01-.62 1.01-.61 1.02-.61 1.01-.61 1.01-.62 1.01-.61 1.01-.61 1.01-.61 1.02-.61 1.01-.62 1.01-.61 1.01-.61 1.01-.61 1.01-.62 1.01-.61 1.02-.61 1.01-.61 1.01-.62 1.01-.61 1.01-.61 1.01-.61 1.02-.62 1.01-.61 1.01-.61 1.01-.61 1.01-.61 1.01-.62 1.02-.61 1.01-.61 1.01-.61 1.01-.62 1.01-.61 1.01-.61 1.01-.61 1.02-.62 1.01-.61 1.01-.61 1.01-.61 1.01-.61 1.01-.62 1.02-.61 1.01-.61 1.01-.61 1.01-.62 1.01-.61 1.01-.61 1.02-.61 1.01-.62 1.01-.61 1.01-.61 1.01-.61 1.01-.62 1.01-.61 1.02-.61 1.01-.61 1.01-.61 1.01-.62 1.01-.61 1.01-.61 1.02-.61 1.01-.62 1.01-.61 1.01-.61 1.01-.61 1.01-.62 1.02-.61 1.01-.61 1.01-.61 1.01-.62 1.01-.61 1.01-.61 1.01-.61 1.02-.61 1.01-.62 1.01-.61 1.01-.61 1.01-.61 1.01-.62 1.02-.61 1.01-.61 1.01-.61 1.01-.62 1.01-.61 1.01-.61 1.02-.61 1.01-.62 1.01-.61 1.01-.61 1.01-.61 1.01-.61 1.01-.62 1.02-.61 1.01-.61 1.01-.61 1.01-.62 1.01-.61 1.01-.61 1.02-.61m370.46-109.96-1.37-.1-1.38-.1-1.37-.11-1.37-.1-1.37-.11-1.37-.11-1.38-.1-1.37-.11-1.37-.11-1.37-.11-1.37-.11-1.38-.11-1.37-.11-1.37-.12-1.37-.11-1.37-.12-1.37-.11-1.37-.12-1.37-.11-1.38-.12-1.37-.12-1.37-.12-1.37-.12-1.37-.12-1.37-.12-1.37-.12-1.37-.12-1.37-.13-1.37-.12-1.37-.13-1.37-.12-1.37-.13-1.37-.13-1.37-.12-1.37-.13-1.37-.13-1.37-.13-1.37-.13-1.37-.14-1.37-.13-1.37-.13-1.37-.14-1.37-.13-1.37-.14-1.37-.13-1.37-.14-1.37-.14-1.37-.14-1.37-.13-1.37-.14-1.37-.15-1.36-.14-1.37-.14-1.37-.14-1.37-.15-1.37-.14-1.37-.15-1.37-.14-1.37-.15-1.36-.15-1.37-.15-1.37-.15-1.37-.15-1.37-.15-1.36-.15-1.37-.15-1.37-.15-1.37-.16-1.37-.15-1.36-.16-1.37-.15-1.37-.16-1.37-.16-1.36-.15-1.37-.16-1.37-.16-1.37-.16-1.36-.16-1.37-.17-1.37-.16-1.37-.16-1.36-.17-1.37-.16-1.37-.17-1.36-.17-1.37-.16-1.37-.17-1.36-.17-1.37-.17-1.37-.17-1.36-.17-1.37-.17-1.37-.17-1.36-.18-1.37-.17-1.36-.18-1.37-.17-1.37-.18-1.36-.18" style="stroke-width:1.07;stroke:#000000;stroke-opacity:0.10;stroke-linecap:butt"/><path d="m318.29 210.3.98.67.98.67.97.67.98.68.98.67.97.68.98.67.97.68.98.68.97.68.97.68.97.68.98.68.97.68.97.69.97.68.96.69.97.68.97.69.97.69.96.69.97.69.96.7.96.69.97.7.96.69.96.7.96.7.96.69.96.7.96.71.96.7.96.7.96.7.95.71.96.71.95.7.96.71.95.71.96.71.95.71.95.72.95.71.95.71.95.72.95.72.95.71.95.72.95.72.94.72.95.72.94.73.95.72.94.73.94.72.95.73.94.73.94.73.94.73.94.73.94.73.94.73.94.74.93.73.94.74.94.74.93.74.94.74.93.74.93.74.94.74.93.75.93.74.93.75.93.74.93.75.93.75.93.75.92.75.93.75.92.76.93.75.92.76.93.75.92.76.92.76.93.76.92.76.92.76.92.76.92.77.92.76.91.77.92.76.92.77.91.77.92.77.91.77.92.77m135.54 13.87-1.38-.03-1.38-.03-1.38-.03-1.38-.04-1.37-.03-1.38-.04-1.38-.05-1.38-.04-1.37-.05-1.38-.05-1.38-.05-1.37-.05-1.38-.06-1.38-.06-1.37-.06-1.38-.06-1.37-.07-1.38-.06-1.37-.07-1.38-.08-1.37-.07-1.38-.08-1.37-.08-1.38-.08-1.37-.08-1.37-.09-1.38-.08-1.37-.09-1.37-.1-1.38-.09-1.37-.1-1.37-.1-1.37-.1-1.38-.1-1.37-.11-1.37-.11-1.37-.11-1.37-.11-1.37-.12-1.38-.11-1.37-.12-1.37-.12-1.37-.13-1.37-.13-1.37-.12-1.37-.14-1.37-.13-1.37-.13-1.37-.14-1.36-.14-1.37-.14-1.37-.15-1.37-.15-1.37-.15-1.37-.15-1.37-.15-1.36-.16-1.37-.15-1.37-.17-1.36-.16-1.37-.16-1.37-.17-1.37-.17-1.36-.17-1.37-.18-1.36-.17-1.37-.18-1.37-.18-1.36-.19-1.37-.18-1.36-.19-1.37-.19-1.36-.19-1.36-.2-1.37-.19-1.36-.2-1.37-.2-1.36-.21-1.36-.2-1.37-.21-1.36-.21-1.36-.21-1.37-.22-1.36-.22-1.36-.22-1.36-.22-1.36-.22-1.37-.23-1.36-.23-1.36-.23-1.36-.23-1.36-.24-1.36-.23-1.36-.24-1.36-.24-1.36-.25-1.36-.25-1.36-.25-1.36-.25" style="stroke-width:1.07;stroke:#000000;stroke-opacity:0.10;stroke-linecap:butt"/><path d="m547.54 295.53-1.39.05-1.38.04-1.39.04-1.38.03-1.38.03-1.39.03-1.38.02-1.38.02-1.39.01-1.38.02h-1.38l-1.38.01h-1.38l-1.38-.01-1.38-.01-1.38-.01-1.38-.01-1.38-.02-1.38-.02-1.38-.03-1.38-.03-1.38-.04-1.37-.03-1.38-.05-1.38-.04-1.38-.05-1.37-.05-1.38-.06-1.37-.06-1.38-.07-1.38-.06-1.37-.08-1.37-.07-1.38-.08-1.37-.08-1.38-.09-1.37-.09-1.37-.1-1.38-.1-1.37-.1-1.37-.1-1.37-.11-1.37-.12-1.37-.12-1.37-.12-1.37-.12-1.37-.13-1.37-.13-1.37-.14-1.37-.14-1.37-.14-1.37-.15-1.37-.15-1.37-.16-1.36-.16-1.37-.16-1.37-.17-1.36-.17-1.37-.17-1.37-.18-1.36-.18-1.37-.19-1.36-.18-1.37-.2-1.36-.19-1.36-.21-1.37-.2-1.36-.21-1.36-.21-1.37-.22-1.36-.22-1.36-.22-1.36-.23-1.36-.23-1.37-.23-1.36-.24-1.36-.24-1.36-.25-1.36-.25-1.36-.25-1.35-.26-1.36-.26-1.36-.26-1.36-.27-1.36-.28-1.35-.27-1.36-.28-1.36-.29-1.36-.28-1.35-.29-1.36-.3-1.35-.3-1.36-.3-1.35-.31-1.36-.31-1.35-.31-1.36-.32-1.35-.32-1.35-.33" style="stroke-width:1.07;stroke:#000000;stroke-opacity:0.10;stroke-linecap:butt"/><path d="m547.54 295.53-1.39.12-1.39.12-1.39.11-1.39.1-1.39.1-1.39.09-1.39.09-1.39.08-1.39.08-1.38.07-1.39.06-1.39.07-1.38.05-1.39.05-1.38.05-1.39.04-1.38.03-1.39.03-1.38.03-1.38.01-1.38.02-1.39.01h-2.76l-1.38-.01-1.38-.02-1.38-.01-1.38-.03-1.38-.03-1.37-.03-1.38-.04-1.38-.04-1.38-.05-1.37-.06-1.38-.06-1.37-.07-1.38-.07-1.37-.07-1.38-.09-1.37-.08-1.37-.1-1.38-.09-1.37-.11-1.37-.11-1.37-.11-1.37-.12-1.37-.12-1.37-.13-1.37-.14-1.37-.14-1.37-.14-1.37-.15-1.37-.16-1.36-.16-1.37-.17-1.37-.17-1.36-.18-1.37-.18-1.36-.19-1.37-.19-1.36-.2-1.37-.2-1.36-.21-1.36-.21-1.36-.22-1.37-.23-1.36-.23-1.36-.23-1.36-.24-1.36-.25-1.36-.25-1.36-.26-1.36-.26-1.35-.27-1.36-.27-1.36-.28-1.36-.28-1.35-.29-1.36-.29-1.35-.3-1.36-.31-1.35-.3-1.36-.32-1.35-.32-1.35-.33-1.36-.33-1.35-.33-1.35-.34-1.35-.35-1.35-.35-1.35-.36-1.35-.36-1.35-.37-1.35-.37-1.35-.38-1.35-.38-1.35-.39-1.35-.4-1.34-.4" style="stroke-width:1.07;stroke:#000000;stroke-opacity:0.10;stroke-linecap:butt"/><path d="m547.54 295.53-1.4.2-1.4.18-1.39.18-1.4.18-1.39.16-1.4.16-1.39.15-1.4.15-1.39.14-1.39.13-1.39.13-1.4.12-1.39.11-1.39.1-1.39.1-1.38.09-1.39.09-1.39.07-1.39.07-1.38.07-1.39.06-1.39.05-1.38.04-1.38.04-1.39.03-1.38.02-1.38.02-1.39.01h-2.76l-1.38-.02-1.38-.01-1.38-.03-1.37-.03-1.38-.04-1.38-.04-1.38-.05-1.37-.06-1.38-.07-1.37-.07-1.38-.08-1.37-.08-1.37-.1-1.38-.1-1.37-.1-1.37-.11-1.37-.12-1.37-.13-1.37-.13-1.37-.14-1.37-.15-1.37-.15-1.36-.16-1.37-.17-1.37-.18-1.36-.18-1.37-.19-1.36-.19-1.37-.2-1.36-.21-1.36-.21-1.36-.23-1.37-.22-1.36-.24-1.36-.24-1.36-.25-1.36-.26-1.35-.26-1.36-.27-1.36-.28-1.36-.28-1.35-.29-1.36-.29-1.35-.31-1.36-.31-1.35-.32-1.36-.32-1.35-.33-1.35-.34-1.35-.34-1.35-.35-1.35-.36-1.35-.37-1.35-.37-1.35-.38-1.35-.38-1.35-.39-1.34-.4-1.35-.41-1.35-.41-1.34-.42-1.35-.42-1.34-.44-1.34-.44-1.35-.44-1.34-.46-1.34-.46-1.34-.46-1.34-.48M121.34 523.52l.54-1.21.53-1.2.54-1.21.54-1.21.54-1.2.54-1.21.54-1.2.54-1.21.54-1.21.54-1.2.54-1.2.54-1.21.54-1.2.55-1.21.54-1.2.54-1.2.55-1.2.54-1.21.55-1.2.55-1.2.54-1.2.55-1.2.55-1.2.55-1.2.55-1.2.55-1.2.55-1.2.55-1.2.55-1.2.55-1.2.55-1.2.56-1.19.55-1.2.55-1.2.56-1.2.55-1.19.56-1.2.56-1.2.55-1.19.56-1.2.56-1.19.56-1.2.56-1.19.56-1.19.56-1.2.56-1.19.56-1.2.56-1.19.56-1.19.57-1.19.56-1.2.56-1.19.57-1.19.56-1.19.57-1.19.57-1.19.56-1.19.57-1.19.57-1.19.57-1.19.56-1.19.57-1.19.57-1.18.58-1.19.57-1.19.57-1.19.57-1.18.57-1.19.58-1.19.57-1.18.58-1.19.57-1.18.58-1.19.57-1.18.58-1.19.58-1.18.57-1.19.58-1.18.58-1.18.58-1.19.58-1.18.58-1.18.58-1.18.58-1.19.59-1.18.58-1.18.58-1.18.59-1.18.58-1.18.59-1.18.58-1.18.59-1.18.58-1.18.59-1.18.59-1.17.59-1.18.59-1.18.59-1.18.59-1.17" style="stroke-width:1.07;stroke:#000000;stroke-opacity:0.10;stroke-linecap:butt"/><path d="m547.54 295.53-1.41.27-1.4.26-1.4.25-1.4.24-1.41.24-1.4.22-1.4.22-1.39.21-1.4.2-1.4.19-1.4.19-1.39.17-1.4.17-1.39.16-1.4.15-1.39.15-1.39.13-1.39.13-1.4.11-1.39.11-1.39.1-1.39.1-1.38.08-1.39.08-1.39.07-1.38.06-1.39.05-1.38.04-1.39.03-1.38.03-1.38.02-1.39.01h-1.38l-1.38-.01-1.38-.01-1.38-.03-1.38-.03-1.37-.04-1.38-.05-1.38-.05-1.37-.07-1.38-.07-1.37-.08-1.37-.1-1.38-.09-1.37-.11-1.37-.12-1.37-.12-1.37-.13-1.37-.14-1.37-.15-1.36-.16-1.37-.16-1.37-.17-1.36-.19-1.37-.19-1.36-.19-1.37-.21-1.36-.22-1.36-.22-1.36-.23-1.36-.24-1.36-.25-1.36-.26-1.36-.26-1.36-.27-1.35-.29-1.36-.29-1.36-.29-1.35-.31-1.36-.31-1.35-.33-1.35-.33-1.35-.34-1.35-.35-1.36-.35-1.35-.37-1.34-.37-1.35-.38-1.35-.39-1.35-.4-1.34-.41-1.35-.41-1.34-.42-1.35-.44-1.34-.43-1.34-.45-1.35-.46-1.34-.46-1.34-.48-1.34-.48-1.34-.49-1.34-.49-1.33-.51-1.34-.52-1.34-.52-1.33-.53-1.34-.54-1.33-.55" style="stroke-width:1.07;stroke:#000000;stroke-opacity:0.10;stroke-linecap:butt"/><path d="m547.54 295.53-1.41.35-1.41.33-1.41.32-1.41.31-1.41.3-1.4.3-1.41.28-1.4.27-1.4.26-1.41.26-1.4.24-1.4.23-1.4.23-1.4.21-1.4.21-1.4.19-1.39.18-1.4.18-1.39.16-1.4.16-1.39.14-1.39.14-1.4.12-1.39.12-1.39.11-1.39.09-1.39.09-1.38.07-1.39.07-1.39.06-1.38.04-1.38.04-1.39.03-1.38.01-1.38.01h-1.38l-1.38-.01-1.38-.03-1.38-.03-1.38-.04-1.38-.05-1.37-.06-1.38-.07-1.37-.08-1.37-.1-1.38-.1-1.37-.11-1.37-.12-1.37-.13-1.37-.14-1.37-.15-1.36-.16-1.37-.17-1.37-.18-1.36-.19-1.36-.2-1.37-.2-1.36-.22-1.36-.23-1.36-.24-1.36-.25-1.36-.26-1.36-.26-1.36-.28-1.35-.29-1.36-.3-1.35-.3-1.36-.32-1.35-.33-1.35-.33-1.35-.35-1.35-.36-1.35-.36-1.35-.38-1.35-.39-1.35-.39-1.34-.41-1.35-.41-1.34-.43-1.35-.43-1.34-.45-1.34-.45-1.35-.47-1.34-.47-1.34-.49-1.33-.49-1.34-.5-1.34-.52-1.34-.52-1.33-.53-1.34-.55-1.33-.55-1.33-.56-1.33-.58-1.34-.58-1.33-.59-1.33-.6-1.32-.61-1.33-.63m23.34 352.43-.83-.98-.83-.98-.83-.97-.82-.98-.83-.98-.83-.98-.83-.98-.82-.98-.83-.98-.83-.98-.83-.98-.82-.98-.83-.98-.83-.98-.83-.98-.82-.98-.83-.98-.83-.98-.83-.98-.82-.98-.83-.97-.83-.98-.83-.98-.83-.98-.82-.98-.83-.98-.83-.98-.83-.98-.82-.98-.83-.98-.83-.98-.83-.98-.82-.98-.83-.98-.83-.98-.83-.98-.82-.98-.83-.98-.83-.97-.83-.98-.82-.98-.83-.98-.83-.98-.83-.98-.82-.98-.83-.98-.83-.98-.83-.98-.83-.98-.82-.98-.83-.98-.83-.98-.83-.98-.82-.98-.83-.98-.83-.98-.83-.97-.82-.98-.83-.98-.83-.98-.83-.98-.82-.98-.83-.98-.83-.98-.83-.98-.82-.98-.83-.98-.83-.98-.83-.98-.83-.98-.82-.98-.83-.98-.83-.98-.83-.98-.82-.97-.83-.98-.83-.98-.83-.98-.82-.98-.83-.98-.83-.98-.83-.98-.82-.98-.83-.98-.83-.98-.83-.98-.82-.98-.83-.98-.83-.98-.83-.98-.82-.98-.83-.98-.83-.97-.83-.98-.83-.98-.82-.98-.83-.98-.83-.98-.83-.98" style="stroke-width:1.07;stroke:#000000;stroke-opacity:0.10;stroke-linecap:butt"/><path d="m547.54 295.53-1.42.42-1.41.4-1.42.4-1.41.38-1.42.37-1.41.36-1.41.35-1.41.33-1.41.33-1.41.31-1.4.3-1.41.29-1.4.28-1.41.27-1.4.26-1.4.24-1.4.24-1.4.22-1.4.21-1.4.2-1.4.19-1.39.18-1.4.17-1.39.15-1.4.14-1.39.14-1.39.12-1.39.11-1.39.09-1.39.09-1.39.08-1.38.06-1.39.05-1.38.05-1.39.03-1.38.01-1.38.01h-1.38l-1.38-.02-1.38-.02-1.38-.04-1.38-.05-1.37-.06-1.38-.07-1.37-.09-1.37-.09-1.38-.11-1.37-.12-1.37-.13-1.37-.14-1.36-.15-1.37-.16-1.37-.17-1.36-.19-1.37-.2-1.36-.2-1.36-.22-1.36-.23-1.36-.25-1.36-.25-1.36-.27-1.36-.27-1.36-.29-1.35-.3-1.36-.31-1.35-.32-1.35-.33-1.35-.35-1.35-.35-1.35-.37-1.35-.38-1.35-.39-1.35-.4-1.34-.41-1.35-.42-1.34-.44-1.34-.45-1.35-.45-1.34-.47-1.34-.48-1.34-.5-1.33-.5-1.34-.51-1.34-.53-1.33-.54-1.34-.54-1.33-.56-1.33-.57-1.33-.59-1.33-.59-1.33-.61-1.33-.61-1.33-.63-1.32-.64-1.33-.65-1.32-.66-1.33-.68-1.32-.68-1.32-.7M309.64 397.79l1.03-1.17 1.04-1.17 1.03-1.18 1.03-1.17 1.04-1.17 1.03-1.18 1.04-1.17 1.03-1.17 1.03-1.17 1.04-1.18 1.03-1.17 1.04-1.17 1.03-1.18 1.03-1.17 1.04-1.17 1.03-1.18 1.03-1.17 1.04-1.17 1.03-1.17 1.04-1.18 1.03-1.17 1.03-1.17 1.04-1.18 1.03-1.17 1.04-1.17 1.03-1.18 1.03-1.17 1.04-1.17 1.03-1.17 1.04-1.18 1.03-1.17 1.03-1.17 1.04-1.18 1.03-1.17 1.04-1.17 1.03-1.18 1.03-1.17 1.04-1.17 1.03-1.18 1.04-1.17 1.03-1.17 1.03-1.17 1.04-1.18 1.03-1.17 1.04-1.17 1.03-1.18 1.03-1.17 1.04-1.17 1.03-1.18 1.03-1.17 1.04-1.17 1.03-1.17 1.04-1.18 1.03-1.17 1.03-1.17 1.04-1.18 1.03-1.17 1.04-1.17 1.03-1.18 1.03-1.17 1.04-1.17 1.03-1.17 1.04-1.18 1.03-1.17 1.03-1.17 1.04-1.18 1.03-1.17 1.04-1.17 1.03-1.18 1.03-1.17 1.04-1.17 1.03-1.17 1.04-1.18 1.03-1.17 1.03-1.17 1.04-1.18 1.03-1.17 1.04-1.17 1.03-1.18 1.03-1.17 1.04-1.17 1.03-1.18 1.03-1.17 1.04-1.17 1.03-1.17 1.04-1.18 1.03-1.17 1.03-1.17 1.04-1.18 1.03-1.17 1.04-1.17 1.03-1.18 1.03-1.17 1.04-1.17 1.03-1.17 1.04-1.18 1.03-1.17 1.03-1.17 1.04-1.18" style="stroke-width:1.07;stroke:#000000;stroke-opacity:0.10;stroke-linecap:butt"/><path d="m547.54 295.53-1.43.49-1.42.48-1.42.46-1.42.46-1.42.43-1.41.43-1.42.41-1.42.4-1.41.39-1.41.37-1.41.37-1.42.34-1.41.34-1.4.32-1.41.31-1.41.3-1.4.28-1.41.27-1.4.26-1.4.25-1.4.23-1.4.22-1.4.21-1.4.19-1.4.18-1.39.17-1.4.16-1.39.14-1.39.13-1.39.12-1.39.1-1.39.09-1.39.08-1.39.07-1.38.05-1.39.04-1.38.03-1.38.01h-1.38l-1.38-.01-1.38-.02-1.38-.04-1.38-.05-1.37-.06-1.38-.08-1.37-.09-1.37-.1-1.37-.12-1.38-.12-1.36-.14-1.37-.16-1.37-.16-1.36-.18-1.37-.19-1.36-.21-1.37-.21-1.36-.23-1.36-.25-1.36-.25-1.35-.27-1.36-.28-1.36-.3-1.35-.3-1.36-.32-1.35-.34-1.35-.34-1.35-.36-1.35-.37-1.35-.39-1.35-.39-1.34-.41-1.35-.43-1.34-.43-1.34-.45-1.34-.46-1.34-.48-1.34-.48-1.34-.51-1.34-.51-1.34-.52-1.33-.54-1.33-.55-1.34-.57-1.33-.58-1.33-.59-1.33-.6-1.33-.61-1.32-.63-1.33-.64-1.33-.66-1.32-.67-1.32-.68-1.32-.69-1.33-.7-1.31-.72-1.32-.73-1.32-.75-1.32-.76-1.31-.77" style="stroke-width:1.07;stroke:#000000;stroke-opacity:0.10;stroke-linecap:butt"/><path d="m547.54 295.53-1.43.57-1.43.55-1.43.53-1.42.52-1.43.51-1.42.49-1.42.48-1.42.46-1.42.45-1.42.44-1.42.42-1.41.4-1.42.39-1.41.38-1.41.36-1.41.35-1.41.34-1.41.32-1.41.3-1.41.29-1.4.28-1.4.26-1.41.25-1.4.23-1.4.22-1.4.21-1.39.19-1.4.17-1.39.17-1.4.14-1.39.14-1.39.11-1.39.11-1.39.09-1.39.07-1.38.06-1.39.05-1.38.03-1.39.02h-1.38l-1.38-.01-1.38-.02-1.37-.04-1.38-.05-1.37-.07-1.38-.09-1.37-.09-1.37-.11-1.37-.13-1.37-.14-1.37-.15-1.37-.17-1.36-.19-1.37-.19-1.36-.22-1.36-.22-1.36-.24-1.36-.26-1.36-.27-1.36-.28-1.35-.3-1.36-.31-1.35-.33-1.35-.34-1.35-.36-1.35-.37-1.35-.38-1.35-.4-1.34-.41-1.35-.43-1.34-.44-1.34-.46-1.34-.47-1.34-.48-1.34-.5-1.34-.52-1.33-.52-1.34-.55-1.33-.55-1.33-.57-1.33-.59-1.33-.6-1.33-.61-1.33-.63-1.33-.65-1.32-.65-1.32-.67-1.33-.69-1.32-.7-1.32-.72-1.32-.73-1.31-.74-1.32-.76-1.32-.77-1.31-.79-1.31-.8-1.31-.81-1.31-.83-1.31-.85m84.41-96.88-.83 1-.83 1-.83 1-.84 1-.83 1-.83 1-.83 1-.84 1-.83.99-.84 1-.83 1-.84 1-.83.99-.84 1-.84.99-.83 1-.84.99-.84.99-.84 1-.84.99-.84.99-.84.99-.84 1-.84.99-.84.99-.84.99-.84.99-.85.99-.84.98-.84.99-.85.99-.84.99-.85.98-.84.99-.85.99-.84.98-.85.99-.85.98-.84.98-.85.99-.85.98-.85.98-.85.99-.85.98-.85.98-.85.98-.85.98-.85.98-.86.98-.85.98-.85.97-.86.98-.85.98-.85.98-.86.97-.85.98-.86.97-.86.98-.85.97-.86.98-.86.97-.86.97-.85.98-.86.97-.86.97-.86.97-.86.97-.86.97-.87.97-.86.97-.86.97-.86.97-.86.97-.87.96-.86.97-.87.97-.86.96-.87.97-.86.96-.87.97-.87.96-.86.96-.87.97-.87.96-.87.96-.87.96-.86.97-.87.96-.87.96-.88.96-.87.96-.87.95-.87.96-.87.96-.88.96-.87.96-.87.95-.88.96-.87.95" style="stroke-width:1.07;stroke:#000000;stroke-opacity:0.10;stroke-linecap:butt"/><path d="m547.54 286.86 7.51 13.01h-15.02zm-43.38 62.45 1.92 3.32h-3.83zm-3.32-104.68 1.91 3.31h-3.83zm-4.43-63.51 3.16 5.48h-6.33zm-49.03-26.62 1.92 3.32h-3.83zm-50.41-10.1 1.91 3.32h-3.83zM79.58 318.24l1.91 3.32h-3.83zm103.78 210.07 1.91 3.31h-3.83zm146.22-253.86 1.92 3.31h-3.83zm-19.94 119.09 3.68 6.38h-7.37zm37.15-234.14 1.92 3.32h-3.83zM130.14 284.19l1.91 3.32h-3.83zm188.15-78.14 3.68 6.38h-7.36zm153.87 189.48 1.91 3.31h-3.83zm-59.36-20.87 1.91 3.31h-3.83zm-79.92 284.75 1.91 3.32h-3.82zM62.51 389.4l1.92 3.31H60.6zm58.83 130.47 3.17 5.48h-6.33zM76.93 463.9l1.91 3.31h-3.82zm358.41 167.98 1.91 3.32h-3.83z" style="stroke-width:0.71;stroke:none;fill:#00BFC4"/><circle cx="412" cy="281.66" r="6.76" style="stroke-width:0.71;stroke:none;fill:#F8766D"/><circle cx="177.08" cy="405.49" r="3.88" style="stroke-width:0.71;stroke:none;fill:#F8766D"/><circle cx="660.23" cy="295.56" r="1.42" style="stroke-width:0.71;stroke:none;fill:#F8766D"/><circle cx="353.4" cy="537.13" r="2.73" style="stroke-width:0.71;stroke:none;fill:#F8766D"/><path d="m542.55 300.25 4.15-3.93m-37.27 50.43-4.41 4m-9.1-99.26 4.08-3.86m1.55-58.2-4.29-3.88m-44.92-24.15-4.12-3.9m-55.99-17.08 4.06 5.3M84.69 315.83l-4.26 3.85m108.06 215.49-4.28-3.88m140.21-249.95 4.31-3.91m-14.17 115.72-4.09 3.85m31.6-231.84 3.79-2.85m-210.68 119.3-4.21 4m192.47-79.97-4.3 3.89m158.2 192.91-4.33-3.93m-65.27-26.44 4.22 4.01m-83.82 291.74 4.06-5.31M67.76 386.85l-4.39 3.99m52.82 128.01 4.3 3.9m-38.45-61.26-4.26 3.85m352.61 173.42 4.11-3.88M406.77 286.3l4.37-3.87M171.83 410.15l4.38-3.9m478.77-106.03 4.38-3.89M358.61 532.41l-4.35 3.95" style="stroke-width:0.53;stroke:#BFBFBF"/><path d="M506.04 311.6h58.66l-.08-.01.35-.01.34-.07.32-.12.3-.18.27-.22.23-.26.19-.29.13-.32.09-.34.02-.34h0v-7.03h0l-.02-.35-.09-.34-.13-.32-.19-.29-.23-.26-.27-.22-.3-.17-.32-.13-.34-.07-.27-.01h-58.66l.26.01-.35-.01-.34.04-.34.1-.31.15-.29.2-.25.24-.21.27-.16.31-.11.33-.05.34-.01.18v7.03l.01-.18v.35l.05.34.11.33.16.31.21.28.25.24.29.2.31.15.34.09.34.04z" style="stroke-width:0.53;fill:#FFFFFF;fill-opacity:0.50"/><text x="535.37" y="308" lengthAdjust="spacingAndGlyphs" style="font-size:5.69px;font-family:&quot;Liberation Sans&quot;" text-anchor="middle" textLength="55.79">US BANK TRUST NA</text><path d="M491.67 346.75h58.66-.08l.34-.02.34-.07.33-.12.3-.17.27-.22.23-.26.19-.3.13-.32.09-.34.02-.34h0v-15.22h0l-.02-.35-.09-.34-.13-.32-.19-.29-.23-.26-.27-.22-.3-.17-.33-.13-.34-.07-.26-.01h-58.66l.26.01-.35-.01-.34.04-.34.1-.31.15-.29.19-.25.24-.21.28-.16.31-.11.33-.06.34v15.4-.18.35l.06.35.11.33.16.3.21.28.25.24.29.2.31.15.34.09.34.05z" style="stroke-width:0.53;fill:#FFFFFF;fill-opacity:0.50"/><text x="521" y="334.95" lengthAdjust="spacingAndGlyphs" style="font-size:5.69px;font-family:&quot;Liberation Sans&quot;" text-anchor="middle" textLength="55.79">US BANK TRUST NA</text><text x="521" y="343.15" lengthAdjust="spacingAndGlyphs" style="font-size:5.69px;font-family:&quot;Liberation Sans&quot;" text-anchor="middle" textLength="17.29">LSF10</text><path d="M458.37 262.83h61.14-.08l.34-.01.35-.07.32-.13.3-.17.27-.22.23-.26.19-.29.13-.32.09-.34.02-.35h0v-7.02h0l-.02-.35-.09-.34-.13-.32-.19-.29-.23-.26-.27-.22-.3-.18-.32-.12-.35-.07-.26-.01h-61.14l.26.01-.35-.01-.34.04-.33.1-.32.15-.28.19-.25.24-.21.28-.17.31-.11.33-.05.34-.01.18v7.02l.01-.17v.35l.05.34.11.33.17.31.21.28.25.24.28.19.32.15.33.1.34.04z" style="stroke-width:0.53;fill:#FFFFFF;fill-opacity:0.50"/><text x="488.94" y="259.23" lengthAdjust="spacingAndGlyphs" style="font-size:5.69px;font-family:&quot;Liberation Sans&quot;" text-anchor="middle" textLength="58.26">DARYL O BONNER JR</text><path d="M479.11 208.97h67.97-.09l.35-.02.34-.07.33-.12.3-.17.27-.22.23-.26.18-.3.14-.32.08-.33.03-.35h0v-15.22h0l-.03-.35-.08-.34-.14-.32-.18-.29-.23-.26-.27-.22-.3-.17-.33-.13-.34-.07-.26-.01h-67.97l.26.01-.34-.01-.35.04-.33.1-.32.15-.28.19-.25.25-.21.27-.16.31-.11.33-.06.34-.01.18v15.22l.01-.17v.34l.06.35.11.33.16.3.21.28.25.24.28.2.32.15.33.1.35.04z" style="stroke-width:0.53;fill:#FFFFFF;fill-opacity:0.50"/><text x="513.1" y="197.17" lengthAdjust="spacingAndGlyphs" style="font-size:5.69px;font-family:&quot;Liberation Sans&quot;" text-anchor="middle" textLength="65.09">US BANK TRUST NA AS</text><text x="513.1" y="205.37" lengthAdjust="spacingAndGlyphs" style="font-size:5.69px;font-family:&quot;Liberation Sans&quot;" text-anchor="middle" textLength="25.86">TRUSTEE</text><path d="M435.08 172.75h48.71-.09l.35-.02.34-.07.33-.12.3-.17.27-.22.23-.26.18-.3.14-.32.08-.33.03-.35h0v-7.03h0l-.03-.34-.08-.34-.14-.32-.18-.3-.23-.26-.27-.22-.3-.17-.33-.12-.34-.07-.26-.02h-48.71l.26.02-.35-.02-.35.05-.33.09-.31.15-.29.2-.25.24-.21.28-.16.31-.11.33-.06.34v7.2-.17.34l.06.35.11.33.16.3.21.28.25.24.29.2.31.15.33.1.35.04z" style="stroke-width:0.53;fill:#FFFFFF;fill-opacity:0.50"/><text x="459.43" y="169.15" lengthAdjust="spacingAndGlyphs" style="font-size:5.69px;font-family:&quot;Liberation Sans&quot;" text-anchor="middle" textLength="45.84">US BANK TRUST</text><path d="M340.21 144.05h49.86-.09l.35-.02.34-.07.33-.12.3-.18.27-.22.23-.26.18-.29.14-.32.08-.34.03-.34h0v-15.22h0l-.03-.35-.08-.34-.14-.32-.18-.29-.23-.26-.27-.22-.3-.18-.33-.12-.34-.07-.26-.01h-49.86l.26.01-.35-.01-.34.04-.34.1-.31.14-.29.2-.25.24-.21.28-.16.31-.11.33-.05.34-.01.18v15.22l.01-.18v.35l.05.34.11.33.16.31.21.28.25.24.29.2.31.15.34.09.34.05z" style="stroke-width:0.53;fill:#FFFFFF;fill-opacity:0.50"/><text x="365.14" y="132.25" lengthAdjust="spacingAndGlyphs" style="font-size:5.69px;font-family:&quot;Liberation Sans&quot;" text-anchor="middle" textLength="42.52">LSF10 MASTER</text><text x="365.14" y="140.45" lengthAdjust="spacingAndGlyphs" style="font-size:5.69px;font-family:&quot;Liberation Sans&quot;" text-anchor="middle" textLength="46.98">PARTICIPATION T</text><path d="M58.6 315.83H134h-.08l.34-.02.34-.07.33-.12.3-.18.27-.21.23-.27.19-.29.13-.32.09-.34.02-.34h0v-15.22h0l-.02-.35-.09-.34-.13-.32-.19-.29-.23-.26-.27-.22-.3-.18-.33-.12-.34-.07-.26-.01H58.6l.26.01-.35-.01-.34.04-.34.1-.31.15-.29.19-.25.24-.21.28-.16.31-.11.33-.05.34-.01.18v15.22l.01-.18v.35l.05.34.11.33.16.31.21.28.25.24.29.2.31.15.34.09.34.05z" style="stroke-width:0.53;fill:#FFFFFF;fill-opacity:0.50"/><text x="96.3" y="304.03" lengthAdjust="spacingAndGlyphs" style="font-size:5.69px;font-family:&quot;Liberation Sans&quot;" text-anchor="middle" textLength="72.53">FREDDIE MAC SEASONED</text><text x="96.3" y="312.23" lengthAdjust="spacingAndGlyphs" style="font-size:5.69px;font-family:&quot;Liberation Sans&quot;" text-anchor="middle" textLength="24.51">LOANS S</text><path d="M162.88 554.71h74.37-.09l.35-.02.34-.07.32-.12.3-.17.27-.22.23-.26.19-.3.13-.32.09-.33.03-.35h0v-15.22h0l-.03-.35-.09-.34-.13-.32-.19-.29-.23-.26-.27-.22-.3-.17-.32-.13-.34-.07-.26-.01h-74.37l.26.01-.35-.01-.35.04-.33.1-.31.15-.29.2-.25.24-.21.27-.16.31-.11.33-.06.34v15.4-.17.34l.06.35.11.33.16.3.21.28.25.24.29.2.31.15.33.1.35.04z" style="stroke-width:0.53;fill:#FFFFFF;fill-opacity:0.50"/><text x="200.06" y="542.92" lengthAdjust="spacingAndGlyphs" style="font-size:5.69px;font-family:&quot;Liberation Sans&quot;" text-anchor="middle" textLength="71.49">TOWD POINT MORTGAGE</text><text x="200.06" y="551.11" lengthAdjust="spacingAndGlyphs" style="font-size:5.69px;font-family:&quot;Liberation Sans&quot;" text-anchor="middle" textLength="18.68">TRUST</text><path d="M283.45 300.88h58.67-.09l.35-.02.34-.07.32-.12.3-.17.27-.22.23-.26.19-.3.13-.32.09-.34.03-.34h0V283.5h0l-.03-.35-.09-.34-.13-.32-.19-.29-.23-.26-.27-.22-.3-.17-.32-.13-.34-.07-.26-.01h-58.67l.26.01-.35-.01-.34.04-.34.1-.31.15-.29.19-.25.24-.21.28-.16.31-.11.33-.05.34-.01.18v15.22l.01-.18v.35l.05.35.11.32.16.31.21.28.25.24.29.2.31.15.34.09.34.05z" style="stroke-width:0.53;fill:#FFFFFF;fill-opacity:0.50"/><text x="312.78" y="289.08" lengthAdjust="spacingAndGlyphs" style="font-size:5.69px;font-family:&quot;Liberation Sans&quot;" text-anchor="middle" textLength="55.79">US BANK TRUST NA</text><text x="312.78" y="297.28" lengthAdjust="spacingAndGlyphs" style="font-size:5.69px;font-family:&quot;Liberation Sans&quot;" text-anchor="middle" textLength="39.37">TRUSTEE FOR</text><path d="M302.57 393.15h38.18-.08l.34-.02.34-.07.33-.12.3-.17.27-.22.23-.26.19-.3.13-.32.08-.33.03-.35h0v-7.03h0l-.03-.34-.08-.34-.13-.32-.19-.3-.23-.26-.27-.22-.3-.17-.33-.12-.34-.07-.26-.02h-38.18l.26.02-.35-.02-.34.05-.33.09-.32.15-.28.2-.26.24-.2.28-.17.31-.11.33-.05.34-.01.17v7.03l.01-.17v.34l.05.35.11.33.17.3.2.28.26.24.28.2.32.15.33.1.34.04z" style="stroke-width:0.53;fill:#FFFFFF;fill-opacity:0.50"/><text x="321.66" y="389.55" lengthAdjust="spacingAndGlyphs" style="font-size:5.69px;font-family:&quot;Liberation Sans&quot;" text-anchor="middle" textLength="35.3">US BANK NA</text><path d="M281.89 178.66h58.02-.08l.34-.01.34-.07.33-.13.3-.17.27-.22.23-.26.18-.3.14-.31.08-.34.03-.35h0v-15.22h0l-.03-.35-.08-.33-.14-.32-.18-.3-.23-.26-.27-.22-.3-.17-.33-.13-.34-.06-.26-.02h-58.02l.26.02-.34-.02-.35.04-.33.1-.32.15-.28.2-.25.24-.21.28-.16.3-.11.33-.06.35-.01.17v15.22l.01-.17v.34l.06.35.11.33.16.31.21.27.25.24.28.2.32.15.33.1.35.04z" style="stroke-width:0.53;fill:#FFFFFF;fill-opacity:0.50"/><text x="310.9" y="166.87" lengthAdjust="spacingAndGlyphs" style="font-size:5.69px;font-family:&quot;Liberation Sans&quot;" text-anchor="middle" textLength="55.14">US BANK TRUST AS</text><text x="310.9" y="175.06" lengthAdjust="spacingAndGlyphs" style="font-size:5.69px;font-family:&quot;Liberation Sans&quot;" text-anchor="middle" textLength="25.86">TRUSTEE</text><path d="M113.15 281.61h58.1-.09l.35-.01.34-.07.33-.13.3-.17.27-.22.23-.26.18-.29.14-.32.08-.34.03-.35h0v-7.02h0l-.03-.35-.08-.34-.14-.32-.18-.29-.23-.26-.27-.22-.3-.18-.33-.12-.34-.07-.26-.01h-58.1l.26.01-.34-.01-.35.04-.33.1-.32.15-.28.19-.25.24-.21.28-.16.31-.11.33-.06.34-.01.18v7.02l.01-.17v.35l.06.34.11.33.16.31.21.28.25.24.28.19.32.15.33.1.35.04z" style="stroke-width:0.53;fill:#FFFFFF;fill-opacity:0.50"/><text x="142.2" y="278.01" lengthAdjust="spacingAndGlyphs" style="font-size:5.69px;font-family:&quot;Liberation Sans&quot;" text-anchor="middle" textLength="55.22">SELECT PORTFOLIO</text><path d="M308.14 205.64h53.82l-.09-.01.35-.01.34-.07.32-.12.3-.18.27-.22.23-.26.19-.29.13-.32.09-.34.03-.34h0v-15.23h0l-.03-.34-.09-.34-.13-.32-.19-.29-.23-.26-.27-.22-.3-.18-.32-.12-.34-.07-.26-.02h-53.82l.26.02-.34-.01-.35.04-.33.1-.32.14-.28.2-.25.24-.21.28-.16.31-.11.33-.06.34-.01.17v15.23l.01-.18v.35l.06.34.11.33.16.31.21.28.25.24.28.2.32.15.33.09.35.04z" style="stroke-width:0.53;fill:#FFFFFF;fill-opacity:0.50"/><text x="335.05" y="193.84" lengthAdjust="spacingAndGlyphs" style="font-size:5.69px;font-family:&quot;Liberation Sans&quot;" text-anchor="middle" textLength="38.9">LSF9 MASTER</text><text x="335.05" y="202.04" lengthAdjust="spacingAndGlyphs" style="font-size:5.69px;font-family:&quot;Liberation Sans&quot;" text-anchor="middle" textLength="50.93">PARTICIPATION TR</text><path d="M461.98 421.98h53.81-.09l.35-.01.34-.07.33-.13.3-.17.27-.22.23-.26.18-.3.14-.31.08-.34.03-.35h0V404.6h0l-.03-.35-.08-.33-.14-.32-.18-.3-.23-.26-.27-.22-.3-.17-.33-.13-.34-.06-.26-.02h-53.81l.26.02-.35-.02-.34.04-.34.1-.31.15-.29.2-.25.24-.21.28-.16.3-.11.33-.05.35-.01.17v15.22l.01-.17v.34l.05.35.11.33.16.31.21.27.25.24.29.2.31.15.34.1.34.04z" style="stroke-width:0.53;fill:#FFFFFF;fill-opacity:0.50"/><text x="488.88" y="410.19" lengthAdjust="spacingAndGlyphs" style="font-size:5.69px;font-family:&quot;Liberation Sans&quot;" text-anchor="middle" textLength="38.9">LSF8 MASTER</text><text x="488.88" y="418.38" lengthAdjust="spacingAndGlyphs" style="font-size:5.69px;font-family:&quot;Liberation Sans&quot;" text-anchor="middle" textLength="50.93">PARTICIPATION TR</text><path d="M366.77 372.07h67.97-.09l.35-.02.34-.07.32-.12.31-.17.26-.22.24-.26.18-.3.14-.32.08-.34.03-.34h0v-7.03h0l-.03-.35-.08-.33-.14-.32-.18-.3-.24-.26-.26-.22-.31-.17-.32-.12-.34-.07-.26-.02h-67.97l.26.02-.35-.02-.34.04-.34.1-.31.15-.29.2-.25.24-.21.28-.16.3-.11.33-.05.35-.01.17v7.03l.01-.18v.35l.05.35.11.33.16.3.21.28.25.24.29.2.31.15.34.09.34.05z" style="stroke-width:0.53;fill:#FFFFFF;fill-opacity:0.50"/><text x="400.75" y="368.47" lengthAdjust="spacingAndGlyphs" style="font-size:5.69px;font-family:&quot;Liberation Sans&quot;" text-anchor="middle" textLength="65.09">US BANK TRUST NA AS</text><path d="M265.85 683.73h60.13-.09l.35-.01.34-.07.32-.13.3-.17.27-.22.23-.26.19-.3.14-.32.08-.33.03-.35h0v-15.22h0l-.03-.35-.08-.33-.14-.32-.19-.3-.23-.26-.27-.22-.3-.17-.32-.13-.34-.06-.26-.02h-60.13l.26.02-.35-.02-.34.04-.34.1-.31.15-.29.2-.25.24-.21.27-.16.31-.11.33-.05.35-.01.17v15.22l.01-.17v.34l.05.35.11.33.16.31.21.27.25.24.29.2.31.15.34.1.34.04z" style="stroke-width:0.53;fill:#FFFFFF;fill-opacity:0.50"/><text x="295.91" y="671.94" lengthAdjust="spacingAndGlyphs" style="font-size:5.69px;font-family:&quot;Liberation Sans&quot;" text-anchor="middle" textLength="57.25">RESIDENTIAL ASSET</text><text x="295.91" y="680.13" lengthAdjust="spacingAndGlyphs" style="font-size:5.69px;font-family:&quot;Liberation Sans&quot;" text-anchor="middle" textLength="33.32">SECURITIES</text><path d="M43.72 386.85h71.38-.09l.35-.01.34-.07.33-.13.3-.17.27-.22.23-.26.18-.29.14-.32.08-.34.03-.35h0v-15.22h0l-.03-.35-.08-.33-.14-.32-.18-.3-.23-.26-.27-.22-.3-.17-.33-.12-.34-.07-.26-.02H43.72l.26.02-.35-.02-.34.04-.34.1-.31.15-.29.2-.25.24-.21.28-.16.3-.11.33-.05.35-.01.17v15.22l.01-.17v.35l.05.34.11.33.16.31.21.27.25.25.29.19.31.15.34.1.34.04z" style="stroke-width:0.53;fill:#FFFFFF;fill-opacity:0.50"/><text x="79.41" y="375.06" lengthAdjust="spacingAndGlyphs" style="font-size:5.69px;font-family:&quot;Liberation Sans&quot;" text-anchor="middle" textLength="68.5">DJL MORTGAGE CAPITAL</text><text x="79.41" y="383.25" lengthAdjust="spacingAndGlyphs" style="font-size:5.69px;font-family:&quot;Liberation Sans&quot;" text-anchor="middle" textLength="9.91">INC</text><path d="M68.93 518.85h71.38-.08l.34-.01.34-.07.33-.13.3-.17.27-.22.23-.26.19-.29.13-.32.09-.34.02-.35h0v-15.22h0l-.02-.34-.09-.34-.13-.32-.19-.3-.23-.26-.27-.22-.3-.17-.33-.12-.34-.07-.26-.02H68.93l.26.02-.34-.02-.35.05-.33.09-.32.15-.28.2-.25.24-.21.28-.16.31-.11.32-.06.35-.01.17v15.22l.01-.17v.35l.06.34.11.33.16.31.21.28.25.24.28.19.32.15.33.1.35.04z" style="stroke-width:0.53;fill:#FFFFFF;fill-opacity:0.50"/><text x="104.62" y="507.06" lengthAdjust="spacingAndGlyphs" style="font-size:5.69px;font-family:&quot;Liberation Sans&quot;" text-anchor="middle" textLength="68.5">DLJ MORTGAGE CAPITAL</text><text x="104.62" y="515.25" lengthAdjust="spacingAndGlyphs" style="font-size:5.69px;font-family:&quot;Liberation Sans&quot;" text-anchor="middle" textLength="9.91">INC</text><path d="M59.76 461.49h67.84-.09l.35-.02.34-.07.32-.12.31-.17.26-.22.24-.26.18-.3.14-.32.08-.33.03-.35h0v-15.22h0l-.03-.35-.08-.34-.14-.32-.18-.29-.24-.26-.26-.22-.31-.17-.32-.13-.34-.07-.26-.01H59.76l.26.01-.35-.01-.34.04-.34.1-.31.15-.29.19-.25.25-.21.27-.16.31-.11.33-.05.34-.01.18v15.22l.01-.17v.34l.05.35.11.33.16.3.21.28.25.24.29.2.31.15.34.1.34.04z" style="stroke-width:0.53;fill:#FFFFFF;fill-opacity:0.50"/><text x="93.68" y="449.69" lengthAdjust="spacingAndGlyphs" style="font-size:5.69px;font-family:&quot;Liberation Sans&quot;" text-anchor="middle" textLength="64.96">BRAVO RESD FUNDING</text><text x="93.68" y="457.89" lengthAdjust="spacingAndGlyphs" style="font-size:5.69px;font-family:&quot;Liberation Sans&quot;" text-anchor="middle" textLength="10.5">TRT</text><path d="M386.32 650.11h73.78-.09l.35-.02.34-.07.32-.12.31-.18.26-.22.23-.26.19-.29.14-.32.08-.34.03-.34h0v-7.03h0l-.03-.35-.08-.33-.14-.32-.19-.3-.23-.26-.26-.22-.31-.17-.32-.12-.34-.07-.26-.02h-73.78l.26.02-.35-.02-.34.04-.34.1-.31.15-.29.2-.25.24-.21.28-.16.3-.11.33-.05.35-.01.17v7.03l.01-.18v.35l.05.34.11.33.16.31.21.28.25.24.29.2.31.15.34.09.34.05z" style="stroke-width:0.53;fill:#FFFFFF;fill-opacity:0.50"/><text x="423.21" y="646.51" lengthAdjust="spacingAndGlyphs" style="font-size:5.69px;font-family:&quot;Liberation Sans&quot;" text-anchor="middle" textLength="70.9">DEUTSCHE BANK NA TRT</text><path d="M360.14 314.04h60.78-.09l.35-.01.34-.07.33-.13.3-.17.27-.22.23-.26.18-.3.14-.32.08-.33.03-.35h0v-23.42h0l-.03-.34-.08-.34-.14-.32-.18-.29-.23-.26-.27-.22-.3-.18-.33-.12-.34-.07-.26-.02h-60.78l.26.02-.34-.01-.35.04-.33.1-.32.14-.28.2-.25.24-.21.28-.16.31-.11.33-.06.34-.01.17v23.42l.01-.17v.34l.06.35.11.33.16.31.21.27.25.24.28.2.32.15.33.1.35.04z" style="stroke-width:0.53;fill:#FFFFFF;fill-opacity:0.50"/><text x="390.53" y="294.05" lengthAdjust="spacingAndGlyphs" style="font-size:5.69px;font-family:&quot;Liberation Sans&quot;" text-anchor="middle" textLength="57.9">3701 REGENT BLVD,</text><text x="390.53" y="302.25" lengthAdjust="spacingAndGlyphs" style="font-size:5.69px;font-family:&quot;Liberation Sans&quot;" text-anchor="middle" textLength="57.5">STE 200, IRVING, TX</text><text x="390.53" y="310.44" lengthAdjust="spacingAndGlyphs" style="font-size:5.69px;font-family:&quot;Liberation Sans&quot;" text-anchor="middle" textLength="18.11">75063</text><path d="M123.54 437.88h64.12-.09l.35-.01.34-.07.33-.13.3-.17.27-.22.23-.26.18-.29.14-.32.08-.34.03-.35h0v-23.41h0l-.03-.35-.08-.34-.14-.32-.18-.29-.23-.26-.27-.22-.3-.17-.33-.13-.34-.07-.26-.01h-64.12l.26.01-.35-.01-.35.04-.33.1-.31.15-.29.19-.25.24-.21.28-.16.31-.11.33-.06.34v23.59-.17.35l.06.34.11.33.16.31.21.28.25.24.29.19.31.15.33.1.35.04z" style="stroke-width:0.53;fill:#FFFFFF;fill-opacity:0.50"/><text x="155.6" y="417.89" lengthAdjust="spacingAndGlyphs" style="font-size:5.69px;font-family:&quot;Liberation Sans&quot;" text-anchor="middle" textLength="61.24">3217 S DECKER LAKE</text><text x="155.6" y="426.09" lengthAdjust="spacingAndGlyphs" style="font-size:5.69px;font-family:&quot;Liberation Sans&quot;" text-anchor="middle" textLength="50.87">DR, WEST VALLEY</text><text x="155.6" y="434.28" lengthAdjust="spacingAndGlyphs" style="font-size:5.69px;font-family:&quot;Liberation Sans&quot;" text-anchor="middle" textLength="43.78">CITY, UT 84119</text><path d="M605.92 327.96h65.67-.09l.35-.01.34-.07.32-.13.3-.17.27-.22.23-.26.19-.3.14-.32.08-.33.03-.35h0v-23.42h0l-.03-.34-.08-.34-.14-.32-.19-.29-.23-.26-.27-.22-.3-.18-.32-.12-.34-.07-.26-.02h-65.67l.26.02-.35-.01-.35.04-.33.1-.31.14-.29.2-.25.24-.21.28-.16.31-.11.33-.06.34v23.59-.17.34l.06.35.11.33.16.31.21.27.25.24.29.2.31.15.33.1.35.04z" style="stroke-width:0.53;fill:#FFFFFF;fill-opacity:0.50"/><text x="638.75" y="307.97" lengthAdjust="spacingAndGlyphs" style="font-size:5.69px;font-family:&quot;Liberation Sans&quot;" text-anchor="middle" textLength="62.79">1255 CORPORATE DR,</text><text x="638.75" y="316.17" lengthAdjust="spacingAndGlyphs" style="font-size:5.69px;font-family:&quot;Liberation Sans&quot;" text-anchor="middle" textLength="57.5">STE 600, IRVING, TX</text><text x="638.75" y="324.36" lengthAdjust="spacingAndGlyphs" style="font-size:5.69px;font-family:&quot;Liberation Sans&quot;" text-anchor="middle" textLength="18.11">75038</text><path d="M335.57 532.41h69.22-.09l.35-.02.34-.07.32-.12.3-.17.27-.22.23-.26.19-.3.14-.32.08-.33.03-.35h0v-15.22h0l-.03-.35-.08-.34-.14-.32-.19-.29-.23-.26-.27-.22-.3-.17-.32-.13-.34-.07-.26-.01h-69.22l.26.01-.34-.01-.35.04-.33.1-.32.15-.28.19-.25.25-.21.27-.16.31-.11.33-.06.34-.01.18v15.22l.01-.17v.34l.06.35.11.33.16.3.21.28.25.24.28.2.32.15.33.1.35.04z" style="stroke-width:0.53;fill:#FFFFFF;fill-opacity:0.50"/><text x="370.18" y="520.61" lengthAdjust="spacingAndGlyphs" style="font-size:5.69px;font-family:&quot;Liberation Sans&quot;" text-anchor="middle" textLength="61.35">PO BOX 24605, WEST</text><text x="370.18" y="528.81" lengthAdjust="spacingAndGlyphs" style="font-size:5.69px;font-family:&quot;Liberation Sans&quot;" text-anchor="middle" textLength="66.33">PALM BEACH, FL 33416</text></g><g clip-path="url(#cpMC4wMHw3MjAuMDB8MC4wMHw3MjAuMDA=)"><circle cx="300.61" cy="95.78" r="1.95" style="stroke-width:0.71;stroke:none;fill:#F8766D"/><path d="m376.96 92.74 2.63 4.56h-5.26z" style="stroke-width:0.71;stroke:none;fill:#00BFC4"/><text x="314.72" y="98.81" lengthAdjust="spacingAndGlyphs" style="font-size:8.80px;font-family:&quot;Liberation Sans Narrow&quot;" textLength="48.12">mprop address</text><text x="391.08" y="98.81" lengthAdjust="spacingAndGlyphs" style="font-size:8.80px;font-family:&quot;Liberation Sans Narrow&quot;" textLength="39.69">owner name</text><text x="32.63" y="64.23" lengthAdjust="spacingAndGlyphs" style="font-size:12.00px;font-family:&quot;Liberation Sans Narrow&quot;" textLength="257.7">includes 46 parcels, 54 units, and 20 distinct owner names.</text><text x="32.63" y="42.27" lengthAdjust="spacingAndGlyphs" style="font-size:18.00px;font-weight:bold;font-family:&quot;Liberation Sans Narrow&quot;" textLength="219.2">US BANK TRUST NA etc Group</text></g></svg>