<svg xmlns="http://www.w3.org/2000/svg" width="576" height="576" class="svglite" viewBox="0 0 432 432"><defs><style><![CDATA[.svglite line,.svglite polyline,.svglite polygon,.svglite path,.svglite circle{fill:none;stroke:#000000;stroke-linecap:round;stroke-linejoin:round;stroke-miterlimit:10.00}.svglite text{white-space:pre}]]></style></defs><rect width="100%" height="100%" style="stroke-linecap:round;stroke-linejoin:round;stroke-miterlimit:10.00;stroke:none;fill:#FFFFFF"/><defs><clipPath id="cpMC4wMHw0MzIuMDB8MC4wMHw0MzIuMDA="><path d="M0 0h432v432H0z"/></clipPath></defs><g clip-path="url(#cpMC4wMHw0MzIuMDB8MC4wMHw0MzIuMDA=)"><path d="M0 0h432v432H0z" style="stroke-width:1.07;stroke:none;fill:#FFFFFF"/></g><defs><clipPath id="cpMzIuNjN8NDAyLjExfDEyMS43OHwzOTkuMzc="><path d="M32.63 121.78h369.48v277.59H32.63z"/></clipPath></defs><g clip-path="url(#cpMzIuNjN8NDAyLjExfDEyMS43OHwzOTkuMzc=)"><path d="m385.32 302.25-1.7-.42-1.7-.42-1.69-.42-1.7-.42-1.69-.42-1.7-.42-1.7-.42-1.69-.42-1.7-.42-1.7-.43-1.69-.42-1.7-.42-1.7-.42-1.69-.42-1.7-.42-1.7-.42-1.69-.42-1.7-.42-1.7-.42-1.69-.43-1.7-.42-1.69-.42-1.7-.42-1.7-.42-1.69-.42-1.7-.42-1.7-.42-1.69-.42-1.7-.42-1.7-.43-1.69-.42-1.7-.42-1.7-.42-1.69-.42-1.7-.42-1.69-.42-1.7-.42-1.7-.42-1.69-.42-1.7-.42-1.7-.43-1.69-.42-1.7-.42-1.7-.42-1.69-.42-1.7-.42-1.7-.42-1.69-.42-1.7-.42-1.69-.42-1.7-.43-1.7-.42-1.69-.42-1.7-.42-1.7-.42-1.69-.42-1.7-.42-1.7-.42-1.69-.42-1.7-.42-1.7-.43-1.69-.42-1.7-.42-1.69-.42-1.7-.42-1.7-.42-1.69-.42-1.7-.42-1.7-.42-1.69-.42-1.7-.42-1.7-.43-1.69-.42-1.7-.42-1.7-.42-1.69-.42-1.7-.42-1.69-.42-1.7-.42-1.7-.42-1.69-.42-1.7-.43-1.7-.42-1.69-.42-1.7-.42-1.7-.42-1.69-.42-1.7-.42-1.7-.42-1.69-.42-1.7-.42-1.7-.42-1.69-.43-1.7-.42-1.69-.42-1.7-.42-1.7-.42-1.69-.42-1.7-.42m55.47-126.18-.98 1.17-.97 1.17-.96 1.18-.96 1.18-.94 1.17-.94 1.19-.93 1.18-.92 1.18-.91 1.19-.9 1.19-.9 1.19-.88 1.2-.88 1.19-.87 1.2-.86 1.2-.85 1.2-.85 1.21-.83 1.2-.83 1.21-.81 1.21-.81 1.22-.8 1.21-.79 1.22-.79 1.22-.77 1.22-.77 1.22-.75 1.23-.75 1.22-.74 1.23-.74 1.24-.72 1.23-.71 1.24-.71 1.24-.7 1.24-.69 1.24-.68 1.24-.67 1.25-.66 1.25-.66 1.25-.64 1.25-.64 1.26-.63 1.26-.62 1.26-.61 1.26-.6 1.26-.6 1.27-.58 1.27-.58 1.27-.57 1.27-.56 1.27-.55 1.28-.54 1.28-.54 1.28-.53 1.28-.51 1.29-.51 1.28-.5 1.29-.49 1.3-.49 1.29-.47 1.29-.47 1.3-.46 1.3-.44 1.31-.44 1.3-.44 1.31-.42 1.3-.41 1.31-.41 1.32-.4 1.31-.39 1.32-.38 1.32-.37 1.32-.36 1.32-.36 1.33-.34 1.33-.34 1.33-.33 1.33-.32 1.33-.31 1.34-.31 1.34-.29 1.34-.29 1.34-.27 1.34-.27 1.35-.26 1.35-.26 1.35-.24 1.35-.23 1.36-.23 1.36-.22 1.36-.21 1.36-.2 1.36-.19 1.37-.18 1.37-.18 1.37-.16 1.37-.16 1.37-.15 1.38-.14 1.38M49.42 218.9l1.7.42 1.7.42 1.69.43 1.7.42 1.69.42 1.7.42 1.7.42 1.69.42 1.7.42 1.7.42 1.69.42 1.7.42 1.7.43 1.69.42 1.7.42 1.7.42 1.69.42 1.7.42 1.69.42 1.7.42 1.7.42 1.69.42 1.7.43 1.7.42 1.69.42 1.7.42 1.7.42 1.69.42 1.7.42 1.7.42 1.69.42 1.7.42 1.69.42 1.7.43 1.7.42 1.69.42 1.7.42 1.7.42 1.69.42 1.7.42 1.7.42 1.69.42 1.7.42 1.7.43 1.69.42 1.7.42 1.7.42 1.69.42 1.7.42 1.69.42 1.7.42 1.7.42 1.69.42 1.7.42 1.7.43 1.69.42 1.7.42 1.7.42 1.69.42 1.7.42 1.7.42 1.69.42 1.7.42 1.69.42 1.7.43 1.7.42 1.69.42 1.7.42 1.7.42 1.69.42 1.7.42 1.7.42 1.69.42 1.7.42 1.7.43 1.69.42 1.7.42 1.69.42 1.7.42 1.7.42 1.69.42 1.7.42 1.7.42 1.69.42 1.7.42 1.7.43 1.69.42 1.7.42 1.7.42 1.69.42 1.7.42 1.69.42 1.7.42 1.7.42 1.69.42 1.7.43 1.7.42 1.69.42 1.7.42" style="stroke-width:1.07;stroke:#000000;stroke-opacity:0.10;stroke-linecap:butt"/><path d="m272.84 134.4-.14 1.38-.15 1.38-.16 1.37-.16 1.37-.18 1.37-.18 1.37-.19 1.37-.2 1.36-.21 1.36-.22 1.36-.22 1.36-.24 1.36-.24 1.35-.25 1.35-.27 1.35-.26 1.35-.28 1.34-.29 1.34-.29 1.34-.31 1.34-.31 1.34-.32 1.33-.33 1.33-.33 1.33-.35 1.33-.36 1.33-.36 1.32-.37 1.32-.38 1.32-.39 1.32-.4 1.31-.4 1.32-.42 1.31-.42 1.3-.43 1.31-.44 1.31-.45 1.3-.46 1.3-.47 1.3-.47 1.29-.48 1.29-.5 1.3-.5 1.29-.51 1.28-.51 1.29-.53 1.28-.53 1.28-.55 1.28-.55 1.28-.56 1.27-.57 1.27-.57 1.27-.59 1.27-.6 1.27-.6 1.26-.61 1.26-.62 1.26-.63 1.26-.64 1.26-.64 1.25-.66 1.25-.66 1.25-.67 1.25-.68 1.24-.69 1.24-.7 1.24-.7 1.24-.72 1.24-.72 1.23-.73 1.24-.74 1.23-.75 1.22-.76 1.23-.77 1.22-.77 1.22-.78 1.22-.8 1.22-.8 1.21-.81 1.22-.81 1.21-.83 1.21-.83 1.2-.85 1.21-.85 1.2-.86 1.2-.87 1.2-.87 1.19-.89 1.2-.89 1.19-.91 1.19-.91 1.19-.92 1.18-.93 1.18-.94 1.19-.94 1.17-.96 1.18-.96 1.18-.97 1.17-.98 1.17M161.9 386.75l.56-1.27.56-1.27.56-1.28.56-1.27.56-1.28.56-1.27.56-1.28.56-1.27.56-1.28.56-1.27.56-1.27.56-1.28.56-1.27.56-1.28.56-1.27.56-1.28.56-1.27.56-1.28.56-1.27.56-1.28.56-1.27.56-1.27.57-1.28.56-1.27.56-1.28.56-1.27.56-1.28.56-1.27.56-1.28.56-1.27.56-1.28.56-1.27.56-1.27.56-1.28.56-1.27.56-1.28.56-1.27.56-1.28.56-1.27.56-1.28.56-1.27.56-1.27.56-1.28.56-1.27.56-1.28.56-1.27.56-1.28.56-1.27.56-1.28.56-1.27.56-1.28.56-1.27.56-1.27.57-1.28.56-1.27.56-1.28.56-1.27.56-1.28.56-1.27.56-1.28.56-1.27.56-1.27.56-1.28.56-1.27.56-1.28.56-1.27.56-1.28.56-1.27.56-1.28.56-1.27.56-1.28.56-1.27.56-1.27.56-1.28.56-1.27.56-1.28.56-1.27.56-1.28.56-1.27.56-1.28.56-1.27.56-1.28.56-1.27.56-1.27.57-1.28.56-1.27.56-1.28.56-1.27.56-1.28.56-1.27.56-1.28.56-1.27.56-1.27.56-1.28.56-1.27.56-1.28.56-1.27.56-1.28.56-1.27" style="stroke-width:1.07;stroke:#000000;stroke-opacity:0.10;stroke-linecap:butt"/><path d="m385.32 300.04 1.91 3.32h-3.83zm-112.48-172 5.51 9.54h-11.01zM49.42 216.69l1.92 3.32h-3.83zM161.9 384.54l1.91 3.32h-3.83z" style="stroke-width:0.71;stroke:none;fill:#00BFC4"/><circle cx="217.37" cy="260.58" r="6.76" style="stroke-width:0.71;stroke:none;fill:#F8766D"/><path d="m277.62 131.95-3.68 1.89m-116.92 255.4 3.77-1.92m62.41-131.34-4.91 3.87" style="stroke-width:0.53;stroke:#BFBFBF"/><path d="M302.1 307.9h76.18l-.09-.01.35-.01.34-.07.32-.12.3-.18.27-.22.23-.26.19-.29.14-.32.08-.34.03-.34h0v-6.97h0l-.03-.34-.08-.34-.14-.32-.19-.29-.23-.26-.27-.22-.3-.18-.32-.12-.34-.07-.26-.02H302.1l.26.02-.35-.02-.34.05-.33.09-.32.15-.29.2-.25.24-.2.28-.17.31-.11.33-.05.34-.01.17v6.97l.01-.18v.35l.05.34.11.33.17.31.2.28.25.24.29.2.32.15.33.09.34.04z" style="stroke-width:0.53;fill:#FFFFFF;fill-opacity:0.50"/><text x="340.19" y="304.3" lengthAdjust="spacingAndGlyphs" style="font-size:5.69px;font-family:&quot;Arial&quot;" text-anchor="middle" textLength="73.3">UVALDO MONREAL SALAD</text><path d="M279.78 136.68h75.86-.08l.34-.02.34-.07.33-.12.3-.17.27-.22.23-.26.19-.3.13-.32.09-.33.02-.35h0v-6.96h0l-.02-.35-.09-.34-.13-.32-.19-.29-.23-.26-.27-.22-.3-.17-.33-.13-.34-.07-.26-.01h-75.86l.26.01-.35-.01-.34.04-.34.1-.31.15-.29.19-.25.24-.21.28-.16.31-.11.33-.06.34v7.14-.17.34l.06.35.11.33.16.3.21.28.25.24.29.2.31.15.34.1.34.04z" style="stroke-width:0.53;fill:#FFFFFF;fill-opacity:0.50"/><text x="317.71" y="133.08" lengthAdjust="spacingAndGlyphs" style="font-size:5.69px;font-family:&quot;Arial&quot;" text-anchor="middle" textLength="72.99">UVALDO MONREAL SALAS</text><path d="M56.42 224.57h55.95-.09l.35-.02.34-.07.32-.12.3-.17.27-.22.23-.26.19-.3.14-.32.08-.33.03-.35h0v-6.96h0l-.03-.35-.08-.34-.14-.32-.19-.29-.23-.26-.27-.22-.3-.17-.32-.13-.34-.07-.26-.01H56.42l.26.01-.35-.01-.35.04-.33.1-.31.15-.29.19-.25.24-.21.28-.16.31-.11.33-.06.34v7.14-.17.34l.06.35.11.33.16.3.21.28.25.24.29.2.31.15.33.1.35.04z" style="stroke-width:0.53;fill:#FFFFFF;fill-opacity:0.50"/><text x="84.39" y="220.97" lengthAdjust="spacingAndGlyphs" style="font-size:5.69px;font-family:&quot;Arial&quot;" text-anchor="middle" textLength="53.07">UBALDO MONREAL</text><path d="M98.91 395.77h55.95-.08l.35-.01.34-.07.32-.13.3-.17.27-.22.23-.26.19-.29.13-.32.09-.34.02-.35h0v-6.96h0l-.02-.35-.09-.33-.13-.32-.19-.3-.23-.26-.27-.22-.3-.17-.32-.12-.34-.07-.27-.02H98.91l.26.02-.34-.02-.35.04-.33.1-.32.15-.28.2-.25.24-.21.28-.16.3-.11.33-.06.35-.01.17v6.96l.01-.17v.35l.06.34.11.33.16.31.21.27.25.25.28.19.32.15.33.1.35.04z" style="stroke-width:0.53;fill:#FFFFFF;fill-opacity:0.50"/><text x="126.89" y="392.17" lengthAdjust="spacingAndGlyphs" style="font-size:5.69px;font-family:&quot;Arial&quot;" text-anchor="middle" textLength="53.07">UVALDO MONREAL</text><path d="M204.2 255.98h64.49l-.09-.01.35-.01.34-.07.33-.12.3-.18.27-.22.23-.26.18-.29.14-.32.08-.34.03-.34h0v-15.16h0l-.03-.35-.08-.33-.14-.32-.18-.3-.23-.26-.27-.22-.3-.17-.33-.12-.34-.07-.26-.02H204.2l.26.02-.35-.02-.34.04-.34.1-.31.15-.29.2-.25.24-.21.28-.16.3-.11.33-.05.35-.01.17v15.16l.01-.18v.35l.05.34.11.33.16.31.21.28.25.24.29.2.31.15.34.09.34.04z" style="stroke-width:0.53;fill:#FFFFFF;fill-opacity:0.50"/><text x="236.45" y="244.18" lengthAdjust="spacingAndGlyphs" style="font-size:5.69px;font-family:&quot;Arial&quot;" text-anchor="middle" textLength="41.39">4131 S 3RD ST,</text><text x="236.45" y="252.38" lengthAdjust="spacingAndGlyphs" style="font-size:5.69px;font-family:&quot;Arial&quot;" text-anchor="middle" textLength="61.61">MILWAUKEE, WI 53207</text></g><g clip-path="url(#cpMC4wMHw0MzIuMDB8MC4wMHw0MzIuMDA=)"><circle cx="159.34" cy="96.71" r="1.95" style="stroke-width:0.71;stroke:none;fill:#F8766D"/><path d="m235.7 93.67 2.63 4.56h-5.26z" style="stroke-width:0.71;stroke:none;fill:#00BFC4"/><text x="173.46" y="99.86" lengthAdjust="spacingAndGlyphs" style="font-size:8.80px;font-family:&quot;Arial Narrow&quot;" textLength="48.12">mprop address</text><text x="249.82" y="99.86" lengthAdjust="spacingAndGlyphs" style="font-size:8.80px;font-family:&quot;Arial Narrow&quot;" textLength="39.69">owner name</text><text x="32.63" y="65.12" lengthAdjust="spacingAndGlyphs" style="font-size:12.00px;font-family:&quot;Arial Narrow&quot;" textLength="241.29">includes 5 parcels, 5 units, and 4 distinct owner names.</text><text x="32.63" y="42.78" lengthAdjust="spacingAndGlyphs" style="font-size:18.00px;font-weight:bold;font-family:&quot;Arial Narrow&quot;" textLength="242.17">UVALDO MONREAL SALAS Group</text></g></svg>