<svg xmlns="http://www.w3.org/2000/svg" width="576" height="576" class="svglite" viewBox="0 0 432 432"><defs><style><![CDATA[.svglite line,.svglite polyline,.svglite polygon,.svglite path,.svglite circle{fill:none;stroke:#000000;stroke-linecap:round;stroke-linejoin:round;stroke-miterlimit:10.00}.svglite text{white-space:pre}]]></style></defs><rect width="100%" height="100%" style="stroke-linecap:round;stroke-linejoin:round;stroke-miterlimit:10.00;stroke:none;fill:#FFFFFF"/><defs><clipPath id="cpMC4wMHw0MzIuMDB8MC4wMHw0MzIuMDA="><path d="M0 0h432v432H0z"/></clipPath></defs><g clip-path="url(#cpMC4wMHw0MzIuMDB8MC4wMHw0MzIuMDA=)"><path d="M0 0h432v432H0z" style="stroke-width:1.07;stroke:none;fill:#FFFFFF"/></g><defs><clipPath id="cpMzIuNjN8NDAyLjExfDEyMS43OHwzOTkuMzc="><path d="M32.63 121.78h369.48v277.59H32.63z"/></clipPath></defs><g clip-path="url(#cpMzIuNjN8NDAyLjExfDEyMS43OHwzOTkuMzc=)"><path d="m385.32 134.4-1.68.81-1.68.81-1.67.81-1.68.81-1.68.81-1.68.81-1.67.81-1.68.81-1.68.81-1.68.81-1.67.81-1.68.81-1.68.8-1.68.81-1.67.81-1.68.81-1.68.81-1.68.81-1.67.81-1.68.81-1.68.81-1.68.81-1.67.81-1.68.81-1.68.81-1.68.81-1.67.81-1.68.81-1.68.81-1.68.81-1.67.8-1.68.81-1.68.81-1.67.81-1.68.81-1.68.81-1.68.81-1.67.81-1.68.81-1.68.81-1.68.81-1.67.81-1.68.81-1.68.81-1.68.81-1.67.81-1.68.81-1.68.8-1.68.81-1.67.81-1.68.81-1.68.81-1.68.81-1.67.81-1.68.81-1.68.81-1.68.81-1.67.81-1.68.81-1.68.81-1.67.81-1.68.81-1.68.81-1.68.81-1.67.81-1.68.8-1.68.81-1.68.81-1.67.81-1.68.81-1.68.81-1.68.81-1.67.81-1.68.81-1.68.81-1.68.81-1.67.81-1.68.81-1.68.81-1.68.81-1.67.81-1.68.81-1.68.81-1.68.8-1.67.81-1.68.81-1.68.81-1.68.81-1.67.81-1.68.81-1.68.81-1.67.81-1.68.81-1.68.81-1.68.81-1.67.81-1.68.81-1.68.81-1.68.81" style="stroke-width:1.07;stroke:#000000;stroke-opacity:0.10;stroke-linecap:butt"/><path d="m223.39 386.75-.04-1.73-.04-1.74-.04-1.74-.04-1.74-.05-1.74-.04-1.74-.04-1.74-.04-1.74-.04-1.74-.04-1.74-.05-1.74-.04-1.74-.04-1.74-.04-1.74-.04-1.74-.05-1.74-.04-1.74-.04-1.74-.04-1.74-.04-1.74-.04-1.74-.05-1.74-.04-1.74-.04-1.74-.04-1.73-.04-1.74-.05-1.74-.04-1.74-.04-1.74-.04-1.74-.04-1.74-.04-1.74-.05-1.74-.04-1.74-.04-1.74-.04-1.74-.04-1.74-.05-1.74-.04-1.74-.04-1.74-.04-1.74-.04-1.74-.04-1.74-.05-1.74-.04-1.74-.04-1.74-.04-1.74-.04-1.74-.05-1.73-.04-1.74-.04-1.74-.04-1.74-.04-1.74-.04-1.74-.05-1.74-.04-1.74-.04-1.74-.04-1.74-.04-1.74-.05-1.74-.04-1.74-.04-1.74-.04-1.74-.04-1.74-.04-1.74-.05-1.74-.04-1.74-.04-1.74-.04-1.74-.04-1.74-.05-1.74-.04-1.74-.04-1.73-.04-1.74-.04-1.74-.04-1.74-.05-1.74-.04-1.74-.04-1.74-.04-1.74-.04-1.74-.05-1.74-.04-1.74-.04-1.74-.04-1.74-.04-1.74-.04-1.74-.05-1.74-.04-1.74-.04-1.74-.04-1.74-.04-1.74-.05-1.74-.04-1.74-.04-1.74-.04-1.74-.04-1.73-.04-1.74-.05-1.74" style="stroke-width:1.07;stroke:#000000;stroke-opacity:0.10;stroke-linecap:butt"/><path d="m223.39 386.75-.01-.61-.02-.61-.01-.62-.02-.61-.01-.62-.01-.61-.02-.62-.01-.61-.02-.62-.01-.61-.02-.62-.01-.61-.02-.62-.01-.61-.02-.62-.01-.61-.02-.62-.01-.61-.02-.62-.01-.61-.02-.61-.01-.62-.02-.61-.01-.62-.02-.61-.01-.62-.01-.61-.02-.62-.01-.61-.02-.62-.01-.61-.02-.62-.01-.61-.02-.62-.01-.61-.02-.62-.01-.61-.02-.62-.01-.61-.02-.61-.01-.62-.02-.61-.01-.62-.02-.61-.01-.62-.02-.61-.01-.62-.02-.61-.01-.62-.01-.61-.02-.62-.01-.61-.02-.62-.01-.61-.02-.62-.01-.61-.02-.62-.01-.61-.02-.61-.01-.62-.02-.61-.01-.62-.02-.61-.01-.62-.02-.61-.01-.62-.02-.61-.01-.62-.02-.61-.01-.62-.02-.61-.01-.62-.01-.61-.02-.62-.01-.61-.02-.61-.01-.62-.02-.61-.01-.62-.02-.61-.01-.62-.02-.61-.01-.62-.02-.61-.01-.62-.02-.61-.01-.62-.02-.61-.01-.62-.02-.61-.01-.62-.02-.61-.01-.62-.02-.61-.01-.61-.01-.62-.02-.61-.01-.62-.02-.61M49.42 137.98l1.72.78 1.71.77 1.72.77 1.71.78 1.72.77 1.72.77 1.71.78 1.72.77 1.71.77 1.72.78 1.71.77 1.72.77 1.71.78 1.72.77 1.71.77 1.72.78 1.72.77 1.71.77 1.72.78 1.71.77 1.72.77 1.71.78 1.72.77 1.71.77 1.72.78 1.71.77 1.72.77 1.72.77 1.71.78 1.72.77 1.71.77 1.72.78 1.71.77 1.72.77 1.71.78 1.72.77 1.71.77 1.72.78 1.72.77 1.71.77 1.72.78 1.71.77 1.72.77 1.71.78 1.72.77 1.71.77 1.72.78 1.71.77 1.72.77 1.72.78 1.71.77 1.72.77 1.71.78 1.72.77 1.71.77 1.72.78 1.71.77 1.72.77 1.71.78 1.72.77 1.72.77 1.71.78 1.72.77 1.71.77 1.72.78 1.71.77 1.72.77 1.71.78 1.72.77 1.71.77 1.72.77 1.72.78 1.71.77 1.72.77 1.71.78 1.72.77 1.71.77 1.72.78 1.71.77 1.72.77 1.72.78 1.71.77 1.72.77 1.71.78 1.72.77 1.71.77 1.72.78 1.71.77 1.72.77 1.71.78 1.72.77 1.72.77 1.71.78 1.72.77 1.71.77 1.72.78 1.71.77 1.72.77 1.71.78" style="stroke-width:1.07;stroke:#000000;stroke-opacity:0.10;stroke-linecap:butt"/><path d="m385.32 132.19 1.91 3.32h-3.83zM223.39 384.54l1.92 3.32h-3.83zM49.42 135.77l1.92 3.32h-3.83z" style="stroke-width:0.71;stroke:none;fill:#00BA38"/><circle cx="219.25" cy="214.54" r="6.76" style="stroke-width:0.71;stroke:none;fill:#F8766D"/><path d="M220.51 327.32h2.84v-2.85h-2.84z" style="stroke-width:0.71;stroke:none;fill:#619CFF"/><path d="m229.21 382.17-4.9 3.86m-10.9-166.89 4.92-3.88m9.42 106.05-4.9 3.86" style="stroke-width:0.53;stroke:#BFBFBF"/><path d="M307.16 140.04h71.12-.09l.35-.01.34-.07.33-.12.3-.18.27-.22.23-.26.18-.29.14-.32.08-.34.03-.35h0v-6.96h0l-.03-.34-.08-.34-.14-.32-.18-.3-.23-.26-.27-.22-.3-.17-.33-.12-.34-.07-.26-.02h-71.12l.26.02-.35-.02-.34.05-.34.09-.31.15-.29.2-.25.24-.21.28-.16.31-.11.32-.05.35-.01.17v6.96l.01-.17v.35l.05.34.11.33.16.31.21.28.25.24.29.19.31.15.34.1.34.04z" style="stroke-width:0.53;fill:#FFFFFF;fill-opacity:0.50"/><text x="342.72" y="136.44" lengthAdjust="spacingAndGlyphs" style="font-size:5.69px;font-family:&quot;Arial&quot;" text-anchor="middle" textLength="68.24">ZACHARY J EBERHARDT</text><path d="M206.74 382.17h71.46-.09l.35-.01.34-.07.32-.13.3-.17.27-.22.23-.26.19-.3.13-.32.09-.33.03-.35h0v-15.16h0l-.03-.34-.09-.34-.13-.32-.19-.29-.23-.26-.27-.22-.3-.18-.32-.12-.34-.07-.26-.02h-71.46l.26.02-.35-.01-.35.04-.33.09-.31.15-.29.2-.25.24-.21.28-.16.31-.11.33-.06.34v15.33-.17.34l.06.35.11.33.16.31.21.27.25.24.29.2.31.15.33.1.35.04z" style="stroke-width:0.53;fill:#FFFFFF;fill-opacity:0.50"/><text x="242.47" y="370.38" lengthAdjust="spacingAndGlyphs" style="font-size:5.69px;font-family:&quot;Arial&quot;" text-anchor="middle" textLength="68.58">VETSPARK PROPERTIES</text><text x="242.47" y="378.57" lengthAdjust="spacingAndGlyphs" style="font-size:5.69px;font-family:&quot;Arial&quot;" text-anchor="middle" textLength="10.43">LLC</text><path d="M56.44 143.76h48.39l-.09-.01.35-.01.34-.07.33-.12.3-.18.27-.22.23-.26.18-.29.14-.32.08-.34.03-.34h0v-6.97h0l-.03-.34-.08-.34-.14-.32-.18-.29-.23-.26-.27-.22-.3-.18-.33-.12-.34-.07-.26-.02H56.44l.26.02-.35-.01-.34.04-.34.09-.31.15-.29.2-.25.24-.21.28-.16.31-.11.33-.05.34-.01.17v6.97l.01-.18v.35l.05.34.11.33.16.31.21.28.25.24.29.2.31.15.34.09.34.04z" style="stroke-width:0.53;fill:#FFFFFF;fill-opacity:0.50"/><text x="80.64" y="140.16" lengthAdjust="spacingAndGlyphs" style="font-size:5.69px;font-family:&quot;Arial&quot;" text-anchor="middle" textLength="45.51">VETSPARK1 LLC</text><path d="M165.54 238.62h69.22-.09l.35-.01.34-.07.33-.13.3-.17.27-.22.23-.26.18-.29.14-.32.08-.34.03-.35h0V221.3h0l-.03-.34-.08-.34-.14-.32-.18-.29-.23-.26-.27-.22-.3-.18-.33-.12-.34-.07-.26-.02h-69.22l.26.02-.35-.01-.34.04-.34.09-.31.15-.29.2-.25.24-.21.28-.16.31-.11.33-.05.34-.01.17v15.16l.01-.17v.35l.05.34.11.33.16.31.21.27.25.24.29.2.31.15.34.1.34.04z" style="stroke-width:0.53;fill:#FFFFFF;fill-opacity:0.50"/><text x="200.15" y="226.83" lengthAdjust="spacingAndGlyphs" style="font-size:5.69px;font-family:&quot;Arial&quot;" text-anchor="middle" textLength="66.34">1824 N HUMBOLDT AVE,</text><text x="200.15" y="235.02" lengthAdjust="spacingAndGlyphs" style="font-size:5.69px;font-family:&quot;Arial&quot;" text-anchor="middle" textLength="61.61">MILWAUKEE, WI 53202</text><path d="M208.75 321.31h64.49-.08l.35-.02.34-.07.32-.12.3-.17.27-.22.23-.26.19-.3.13-.32.09-.34.02-.34h0v-15.16h0l-.02-.35-.09-.33-.13-.32-.19-.3-.23-.26-.27-.22-.3-.17-.32-.12-.34-.07-.27-.02h-64.49l.26.02-.34-.02-.35.04-.33.1-.32.15-.28.2-.25.24-.21.28-.16.3-.11.33-.06.35-.01.17v15.16l.01-.18v.35l.06.34.11.33.16.31.21.28.25.24.28.2.32.15.33.09.35.05z" style="stroke-width:0.53;fill:#FFFFFF;fill-opacity:0.50"/><text x="241" y="309.51" lengthAdjust="spacingAndGlyphs" style="font-size:5.69px;font-family:&quot;Arial&quot;" text-anchor="middle" textLength="60.66">1824 HUMBOLDT AVE,</text><text x="241" y="317.71" lengthAdjust="spacingAndGlyphs" style="font-size:5.69px;font-family:&quot;Arial&quot;" text-anchor="middle" textLength="61.61">MILWAUKEE, WI 53202</text></g><g clip-path="url(#cpMC4wMHw0MzIuMDB8MC4wMHw0MzIuMDA=)"><circle cx="124.98" cy="96.71" r="1.95" style="stroke-width:0.71;stroke:none;fill:#F8766D"/><path d="m201.33 93.67 2.63 4.56h-5.26z" style="stroke-width:0.71;stroke:none;fill:#00BA38"/><path d="M267.31 98.66h3.91v-3.91h-3.91z" style="stroke-width:0.71;stroke:none;fill:#619CFF"/><text x="139.09" y="99.86" lengthAdjust="spacingAndGlyphs" style="font-size:8.80px;font-family:&quot;Arial Narrow&quot;" textLength="48.12">mprop address</text><text x="215.45" y="99.86" lengthAdjust="spacingAndGlyphs" style="font-size:8.80px;font-family:&quot;Arial Narrow&quot;" textLength="39.69">owner name</text><text x="283.38" y="99.86" lengthAdjust="spacingAndGlyphs" style="font-size:8.80px;font-family:&quot;Arial Narrow&quot;" textLength="40.5">wdfi address</text><text x="32.63" y="65.12" lengthAdjust="spacingAndGlyphs" style="font-size:12.00px;font-family:&quot;Arial Narrow&quot;" textLength="246.76">includes 3 parcels, 14 units, and 3 distinct owner names.</text><text x="32.63" y="42.78" lengthAdjust="spacingAndGlyphs" style="font-size:18.00px;font-weight:bold;font-family:&quot;Arial Narrow&quot;" textLength="259.66">VETSPARK PROPERTIES LLC Group</text></g></svg>