<svg xmlns="http://www.w3.org/2000/svg" width="576" height="672" viewBox="0 0 432 504"><g class="svglite"><defs><style><![CDATA[.svglite line,.svglite polyline,.svglite polygon,.svglite path,.svglite circle{fill:none;stroke:#000000;stroke-linecap:round;stroke-linejoin:round;stroke-miterlimit:10.00}.svglite text{white-space:pre}.svglite g.glyphgroup path{fill:inherit;stroke:none}]]></style></defs><rect width="100%" height="100%" style="stroke-linecap:round;stroke-linejoin:round;stroke-miterlimit:10.00;stroke:none;fill:#FFFFFF"/><defs><clipPath id="cpMC4wMHw0MzIuMDB8MC4wMHw1MDQuMDA="><path d="M0 0h432v504H0z"/></clipPath></defs><g clip-path="url(#cpMC4wMHw0MzIuMDB8MC4wMHw1MDQuMDA=)"><path d="M0 0h432v504H0z" style="stroke-width:1.07;stroke:none;fill:#FFFFFF"/></g><defs><clipPath id="cpMjkuODl8NDAyLjExfDEyMi4xNHw0NzQuMTE="><path d="M29.89 122.14h372.22v351.97H29.89z"/></clipPath></defs><g clip-path="url(#cpMjkuODl8NDAyLjExfDEyMi4xNHw0NzQuMTE=)"><path d="m385.19 138.14-1.07.94-1.08.94-1.07.94-1.08.94-1.07.94-1.08.94-1.07.94-1.08.94-1.07.94-1.08.94-1.07.95-1.08.94-1.07.94-1.08.94-1.08.94-1.07.94-1.08.94-1.07.94-1.08.94-1.07.94-1.08.94-1.07.95-1.08.94-1.07.94-1.08.94-1.07.94-1.08.94-1.07.94-1.08.94-1.07.94-1.08.94-1.07.94-1.08.94-1.07.95-1.08.94-1.07.94-1.08.94-1.07.94-1.08.94-1.08.94-1.07.94-1.08.94-1.07.94-1.08.94-1.07.95-1.08.94-1.07.94-1.08.94-1.07.94-1.08.94-1.07.94-1.08.94-1.07.94-1.08.94-1.07.94-1.08.94-1.07.95-1.08.94-1.07.94-1.08.94-1.07.94-1.08.94-1.07.94-1.08.94-1.08.94-1.07.94-1.08.94-1.07.95-1.08.94-1.07.94-1.08.94-1.07.94-1.08.94-1.07.94-1.08.94-1.07.94-1.08.94-1.07.94-1.08.95-1.07.94-1.08.94-1.07.94-1.08.94-1.07.94-1.08.94-1.07.94-1.08.94-1.08.94-1.07.94-1.08.94-1.07.95-1.08.94-1.07.94-1.08.94-1.07.94-1.08.94-1.07.94-1.08.94-1.07.94m-113.63 99.43 1.49-.63 1.47-.64 1.47-.64 1.47-.66 1.45-.66 1.45-.67 1.45-.68 1.43-.68 1.43-.69 1.43-.7 1.41-.71 1.41-.72 1.4-.72 1.4-.73 1.38-.74 1.38-.74 1.38-.75 1.37-.77 1.36-.76 1.35-.78 1.35-.78 1.34-.79 1.33-.8 1.33-.81 1.32-.81 1.31-.83 1.3-.82 1.3-.84 1.29-.85 1.29-.85 1.28-.86 1.27-.86 1.26-.88 1.26-.88 1.25-.89 1.25-.9 1.23-.91 1.23-.91 1.23-.92 1.21-.93 1.21-.93 1.2-.95 1.2-.95 1.19-.96 1.18-.96 1.18-.98 1.16-.98 1.17-.99 1.15-.99 1.15-1.01 1.14-1.01 1.13-1.02 1.13-1.03 1.12-1.03 1.11-1.04 1.11-1.05 1.1-1.06 1.09-1.07 1.09-1.07 1.08-1.08 1.07-1.09 1.07-1.09 1.05-1.11 1.06-1.11 1.04-1.12 1.04-1.12 1.03-1.14 1.02-1.14 1.02-1.15 1.01-1.15 1.01-1.17.99-1.17.99-1.18.98-1.19.98-1.19.97-1.2.96-1.21.96-1.22.95-1.23.94-1.23.93-1.24.93-1.25.92-1.25.92-1.27.9-1.27.9-1.27.9-1.29.89-1.29.88-1.31.87-1.3.86-1.32.86-1.33.86-1.33.84-1.34.84-1.34.83-1.36.83-1.36.82-1.37.81-1.38m-113.63 99.43-.75-1.51-.76-1.51-.76-1.49-.78-1.49-.79-1.47-.79-1.46-.81-1.46-.81-1.44-.82-1.43-.83-1.42-.84-1.41-.85-1.4-.86-1.39-.87-1.37-.88-1.37-.88-1.36-.9-1.34-.9-1.34-.91-1.33-.93-1.31-.93-1.3-.94-1.3-.95-1.28-.96-1.27-.97-1.27-.97-1.25-.99-1.24-.99-1.23-1.01-1.22-1.01-1.21-1.02-1.19-1.03-1.19-1.05-1.18-1.04-1.17-1.06-1.15-1.07-1.15-1.08-1.13-1.08-1.13-1.1-1.11-1.1-1.1-1.12-1.1-1.12-1.08-1.13-1.07-1.14-1.06-1.15-1.05-1.16-1.04-1.17-1.03-1.17-1.02-1.19-1.01-1.2-1-1.2-.98-1.21-.98-1.23-.96-1.23-.96-1.24-.94-1.25-.94-1.26-.92-1.26-.92-1.28-.9-1.29-.89-1.29-.88-1.31-.87-1.31-.86-1.32-.85-1.33-.84-1.34-.83-1.35-.82-1.36-.8-1.37-.8-1.38-.79-1.38-.77-1.4-.77-1.4-.75-1.42-.74-1.42-.74-1.43-.72-1.44-.71-1.45-.7-1.46-.7-1.47-.68-1.47-.67-1.49-.65-1.49-.65-1.51-.64-1.51-.63-1.52-.62-1.54-.6-1.54-.6-1.55-.58-1.55-.58-1.57-.56-1.58-.56-1.59-.54-1.59-.53-1.61-.52-1.61-.51-1.62-.5-1.63-.49-1.64-.48m118.31 98.75-1.14 1-1.15 1.01-1.14 1-1.15 1-1.15 1.01-1.14 1-1.15 1-1.14 1-1.15 1.01-1.15 1-1.14 1-1.15 1-1.14 1.01-1.15 1-1.15 1-1.14 1.01-1.15 1-1.14 1-1.15 1-1.15 1.01-1.14 1-1.15 1-1.14 1.01-1.15 1-1.15 1-1.14 1-1.15 1.01-1.14 1-1.15 1-1.15 1-1.14 1.01-1.15 1-1.14 1-1.15 1.01-1.14 1-1.15 1-1.15 1-1.14 1.01-1.15 1-1.14 1-1.15 1.01-1.15 1-1.14 1-1.15 1-1.14 1.01-1.15 1-1.15 1-1.14 1-1.15 1.01-1.14 1-1.15 1-1.15 1.01-1.14 1-1.15 1-1.14 1-1.15 1.01-1.15 1-1.14 1-1.15 1.01-1.14 1-1.15 1-1.15 1-1.14 1.01-1.15 1-1.14 1-1.15 1-1.14 1.01-1.15 1-1.15 1-1.14 1.01-1.15 1-1.14 1-1.15 1-1.15 1.01-1.14 1-1.15 1-1.14 1.01-1.15 1-1.15 1-1.14 1-1.15 1.01-1.14 1-1.15 1-1.15 1-1.14 1.01-1.15 1-1.14 1-1.15 1.01-1.15 1-1.14 1-1.15 1-1.14 1.01-1.15 1-1.15 1-1.14 1.01-1.15 1-1.14 1-1.15 1-1.14 1.01" style="stroke-width:1.07;stroke:#000000;stroke-opacity:0.10;stroke-linecap:butt"/><path d="m165.12 330.71-.86-1.38-.87-1.38-.87-1.37-.88-1.36-.89-1.36-.9-1.35-.9-1.33-.91-1.33-.91-1.33-.92-1.31-.93-1.31-.94-1.3-.94-1.29-.95-1.28-.96-1.28-.96-1.26-.97-1.26-.98-1.25-.98-1.25-.99-1.23-1-1.23-1-1.22-1.02-1.21-1.01-1.21-1.03-1.19-1.03-1.19-1.04-1.18-1.04-1.17-1.05-1.16-1.06-1.16-1.07-1.15-1.07-1.14-1.08-1.13-1.09-1.13-1.09-1.11-1.1-1.11-1.11-1.1-1.11-1.09-1.12-1.09-1.13-1.08-1.13-1.06-1.14-1.07-1.15-1.05-1.15-1.04-1.16-1.04-1.17-1.03-1.18-1.02-1.18-1.01-1.18-1.01-1.2-1-1.2-.99-1.21-.98-1.22-.97-1.22-.97-1.23-.96-1.23-.95-1.25-.94-1.25-.93-1.25-.93-1.27-.92-1.27-.91-1.27-.9-1.29-.89-1.29-.89-1.29-.88-1.31-.87-1.31-.86-1.32-.86-1.32-.84-1.33-.84-1.34-.83-1.35-.83-1.35-.81-1.36-.81-1.36-.8-1.38-.79-1.38-.78-1.38-.78-1.39-.77-1.4-.76-1.41-.75-1.41-.74-1.42-.74-1.43-.73-1.43-.72-1.44-.71-1.45-.7-1.46-.7-1.46-.69-1.47-.68-1.47-.67-1.48-.66-1.49-.66-1.49-.65-1.51-.64-1.51-.63-1.51-.63-1.52-.62-1.53-.6m118.31 98.75 1.38-.75 1.36-.76 1.37-.77 1.35-.77 1.36-.78 1.35-.78 1.34-.78 1.34-.8 1.34-.79 1.33-.8 1.32-.81 1.32-.81 1.32-.82 1.31-.82 1.31-.83 1.31-.83 1.29-.83 1.3-.85 1.29-.84 1.28-.85 1.28-.86 1.28-.86 1.27-.87 1.27-.87 1.26-.88 1.26-.88 1.25-.89 1.25-.89 1.24-.9 1.24-.9 1.24-.91 1.23-.92 1.22-.91 1.22-.93 1.22-.92 1.21-.94 1.21-.94 1.2-.94 1.2-.95 1.19-.95 1.19-.96 1.19-.96 1.18-.97 1.17-.98 1.17-.98 1.17-.98 1.16-.99 1.16-.99 1.15-1 1.15-1.01 1.14-1.01 1.14-1.01 1.13-1.02 1.13-1.02 1.13-1.03 1.12-1.04 1.11-1.04 1.11-1.04 1.11-1.05 1.1-1.06 1.1-1.06 1.09-1.06 1.09-1.08 1.08-1.07 1.08-1.08 1.08-1.09 1.07-1.09 1.06-1.09 1.06-1.1 1.06-1.11 1.05-1.11 1.05-1.12 1.04-1.12 1.04-1.12 1.03-1.13 1.03-1.14 1.02-1.14 1.02-1.15 1.02-1.15 1.01-1.16 1.01-1.16 1-1.17.99-1.17 1-1.17.98-1.19.99-1.18.97-1.2.98-1.19.97-1.21.96-1.2.96-1.22.96-1.21.95-1.23.94-1.22.95-1.24.93-1.23.94-1.25.92-1.24.93-1.26" style="stroke-width:1.07;stroke:#000000;stroke-opacity:0.10;stroke-linecap:butt"/><path d="m165.12 330.71-.97-1.25-.98-1.26-.98-1.24-.98-1.24-.99-1.24-1-1.23-1-1.22-1-1.22-1.01-1.22-1.02-1.21-1.01-1.2-1.03-1.2-1.02-1.19-1.03-1.19-1.04-1.18-1.04-1.18-1.05-1.17-1.05-1.17-1.05-1.16-1.06-1.15-1.06-1.16-1.07-1.14-1.07-1.14-1.08-1.14-1.08-1.13-1.09-1.12-1.09-1.12-1.09-1.11-1.1-1.11-1.11-1.11-1.1-1.09-1.12-1.1-1.12-1.08-1.12-1.09-1.12-1.07-1.14-1.07-1.13-1.07-1.14-1.06-1.15-1.06-1.15-1.05-1.15-1.04-1.16-1.04-1.16-1.04-1.17-1.03-1.17-1.02-1.18-1.02-1.18-1.01-1.19-1.01-1.19-1-1.19-1-1.2-.99-1.21-.99-1.21-.98-1.21-.98-1.22-.97-1.22-.96-1.23-.96-1.23-.96-1.23-.95-1.25-.94-1.24-.94-1.25-.94-1.25-.93-1.26-.92-1.27-.92-1.26-.91-1.28-.91-1.27-.9-1.28-.9-1.29-.89-1.29-.89-1.3-.88-1.3-.87-1.3-.88-1.31-.86-1.31-.86-1.32-.86-1.32-.85-1.33-.84-1.33-.84-1.34-.83-1.34-.83-1.34-.82-1.35-.82-1.36-.81-1.36-.81-1.36-.8-1.37-.8-1.37-.79-1.38-.79-1.38-.78-1.38-.77-1.39-.77-1.4-.77-1.4-.76-1.4-.75-1.41-.75-1.41-.75-1.42-.73m118.31 98.75.87 1.29.86 1.29.87 1.28.86 1.29.87 1.29.86 1.28.86 1.29.87 1.29.86 1.28.87 1.29.86 1.29.87 1.28.86 1.29.87 1.29.86 1.28.86 1.29.87 1.29.86 1.29.87 1.28.86 1.29.87 1.29.86 1.28.87 1.29.86 1.29.86 1.28.87 1.29.86 1.29.87 1.28.86 1.29.87 1.29.86 1.29.87 1.28.86 1.29.86 1.29.87 1.28.86 1.29.87 1.29.86 1.28.87 1.29.86 1.29.87 1.28.86 1.29.86 1.29.87 1.28.86 1.29.87 1.29.86 1.29.87 1.28.86 1.29.87 1.29.86 1.28.86 1.29.87 1.29.86 1.28.87 1.29.86 1.29.87 1.28.86 1.29.87 1.29.86 1.28.86 1.29.87 1.29.86 1.29.87 1.28.86 1.29.87 1.29.86 1.28.87 1.29.86 1.29.86 1.28.87 1.29.86 1.29.87 1.28.86 1.29.87 1.29.86 1.28.87 1.29.86 1.29.86 1.29.87 1.28.86 1.29.87 1.29.86 1.28.87 1.29.86 1.29.87 1.28.86 1.29.86 1.29.87 1.28.86 1.29.87 1.29.86 1.29.87 1.28.86 1.29.87 1.29.86 1.28.86 1.29.87 1.29.86 1.28" style="stroke-width:1.07;stroke:#000000;stroke-opacity:0.10;stroke-linecap:butt"/><path d="m165.12 330.71-1.08-1.13-1.09-1.12-1.08-1.12-1.1-1.12-1.09-1.12-1.09-1.11-1.1-1.11-1.1-1.11-1.1-1.11-1.11-1.1-1.1-1.1-1.11-1.1-1.11-1.09-1.12-1.1-1.11-1.09-1.12-1.08-1.12-1.09-1.12-1.08-1.13-1.08-1.12-1.08-1.13-1.07-1.13-1.07-1.14-1.07-1.13-1.07-1.14-1.06-1.14-1.06-1.15-1.06-1.14-1.06-1.15-1.05-1.15-1.05-1.15-1.05-1.15-1.04-1.16-1.05-1.16-1.03-1.16-1.04-1.16-1.04-1.17-1.03-1.17-1.03-1.17-1.02-1.17-1.03-1.17-1.02-1.18-1.02-1.18-1.01-1.18-1.02-1.19-1.01-1.18-1.01-1.19-1-1.19-1-1.19-1.01-1.2-.99-1.2-1-1.2-.99-1.2-.99-1.2-.99-1.21-.98-1.21-.98-1.21-.98-1.21-.98-1.22-.97-1.21-.97-1.22-.97-1.23-.97-1.22-.96-1.23-.96-1.23-.96-1.23-.95-1.23-.96-1.24-.95-1.24-.94-1.24-.95-1.24-.94-1.25-.94-1.24-.94-1.25-.93-1.25-.93-1.26-.93-1.26-.93-1.25-.92-1.27-.92-1.26-.92-1.26-.92-1.27-.91-1.27-.91-1.27-.91-1.28-.9-1.28-.9-1.28-.9-1.28-.9-1.28-.9-1.29-.89-1.28-.89-1.3-.88-1.29-.89-1.29-.88-1.3-.88-1.3-.87-1.3-.88-1.31-.87-1.3-.86m118.31 98.75 1.26-.88 1.26-.88 1.26-.89 1.25-.88 1.25-.89 1.25-.9 1.24-.89 1.25-.9 1.24-.9 1.24-.9 1.24-.91 1.23-.91 1.23-.91 1.23-.91 1.23-.91 1.23-.92 1.22-.92 1.22-.93 1.22-.92 1.22-.93 1.21-.93 1.21-.93 1.21-.94 1.21-.94 1.2-.94 1.21-.94 1.2-.95 1.19-.95 1.2-.95 1.19-.95 1.19-.96 1.19-.96 1.19-.96 1.18-.96 1.19-.97 1.18-.97 1.17-.97 1.18-.97 1.17-.98 1.17-.98 1.17-.98 1.17-.98 1.16-.99 1.16-.99 1.16-.99 1.16-.99 1.15-1 1.15-1 1.15-1 1.15-1.01 1.15-1 1.14-1.01 1.14-1.01 1.14-1.02 1.14-1.02 1.13-1.02 1.13-1.02 1.13-1.02 1.13-1.03 1.12-1.03 1.13-1.03 1.12-1.04 1.11-1.03 1.12-1.04 1.11-1.05 1.11-1.04 1.11-1.05 1.11-1.05 1.1-1.05 1.11-1.06 1.1-1.05 1.09-1.06 1.1-1.07 1.09-1.06 1.09-1.07 1.09-1.07 1.09-1.07 1.08-1.08 1.08-1.08 1.08-1.08 1.08-1.08 1.07-1.08 1.07-1.09 1.07-1.09 1.07-1.1 1.07-1.09 1.06-1.1 1.06-1.1 1.06-1.1 1.05-1.11 1.06-1.11 1.05-1.11 1.05-1.11 1.05-1.12 1.04-1.12 1.04-1.12 1.04-1.12 1.04-1.13 1.04-1.13" style="stroke-width:1.07;stroke:#000000;stroke-opacity:0.10;stroke-linecap:butt"/><path d="m165.12 330.71-1.19-1-1.2-.99-1.19-1-1.2-1-1.19-1-1.2-.99-1.19-1-1.2-1-1.19-1-1.2-.99-1.19-1-1.2-1-1.19-1-1.2-.99-1.19-1-1.2-1-1.19-1-1.2-.99-1.19-1-1.2-1-1.19-1-1.2-.99-1.19-1-1.2-1-1.19-1-1.2-.99-1.19-1-1.2-1-1.2-1-1.19-.99-1.2-1-1.19-1-1.2-1-1.19-.99-1.2-1-1.19-1-1.2-1-1.19-.99-1.2-1-1.19-1-1.2-1-1.19-.99-1.2-1-1.19-1-1.2-1-1.19-.99-1.2-1-1.19-1-1.2-1-1.19-1-1.2-.99-1.19-1-1.2-1-1.19-1-1.2-.99-1.19-1-1.2-1-1.19-1-1.2-.99-1.19-1-1.2-1-1.19-1-1.2-.99-1.19-1-1.2-1-1.19-1-1.2-.99-1.19-1-1.2-1-1.19-1-1.2-.99-1.19-1-1.2-1-1.2-1-1.19-.99-1.2-1-1.19-1-1.2-1-1.19-.99-1.2-1-1.19-1-1.2-1-1.19-.99-1.2-1-1.19-1-1.2-1-1.19-.99-1.2-1-1.19-1-1.2-1-1.19-.99-1.2-1-1.19-1-1.2-1-1.19-.99-1.2-1-1.19-1-1.2-1-1.19-.99m118.31 98.75 1.15-1 1.15-1.01 1.15-1 1.14-1.01 1.15-1 1.15-1 1.15-1.01 1.14-1 1.15-1.01 1.15-1 1.15-1.01 1.15-1 1.14-1 1.15-1.01 1.15-1 1.15-1.01 1.14-1 1.15-1.01 1.15-1 1.15-1.01 1.15-1 1.14-1 1.15-1.01 1.15-1 1.15-1.01 1.14-1 1.15-1.01 1.15-1 1.15-1 1.14-1.01 1.15-1 1.15-1.01 1.15-1 1.15-1.01 1.14-1 1.15-1 1.15-1.01 1.15-1 1.14-1.01 1.15-1 1.15-1.01 1.15-1 1.15-1 1.14-1.01 1.15-1 1.15-1.01 1.15-1 1.14-1.01 1.15-1 1.15-1.01 1.15-1 1.14-1 1.15-1.01 1.15-1 1.15-1.01 1.15-1 1.14-1.01 1.15-1 1.15-1 1.15-1.01 1.14-1 1.15-1.01 1.15-1 1.15-1.01 1.15-1 1.14-1 1.15-1.01 1.15-1 1.15-1.01 1.14-1 1.15-1.01 1.15-1 1.15-1 1.14-1.01 1.15-1 1.15-1.01 1.15-1 1.15-1.01 1.14-1 1.15-1.01 1.15-1 1.15-1 1.14-1.01 1.15-1 1.15-1.01 1.15-1 1.15-1.01 1.14-1 1.15-1 1.15-1.01 1.15-1 1.14-1.01 1.15-1 1.15-1.01 1.15-1 1.14-1 1.15-1.01 1.15-1 1.15-1.01" style="stroke-width:1.07;stroke:#000000;stroke-opacity:0.10;stroke-linecap:butt"/><path d="m165.12 330.71-1.3-.87-1.31-.87-1.3-.87-1.3-.88-1.3-.87-1.29-.89-1.29-.88-1.3-.89-1.28-.89-1.29-.89-1.28-.89-1.28-.9-1.28-.9-1.28-.9-1.28-.91-1.27-.9-1.27-.91-1.27-.92-1.26-.91-1.26-.92-1.27-.92-1.25-.93-1.26-.92-1.26-.93-1.25-.93-1.25-.94-1.24-.93-1.25-.94-1.24-.94-1.24-.95-1.24-.95-1.24-.95-1.23-.95-1.23-.95-1.23-.96-1.23-.96-1.22-.97-1.23-.96-1.22-.97-1.21-.97-1.22-.97-1.21-.98L111 291l-1.21-.98-1.21-.99-1.2-.98-1.2-.99-1.2-1-1.2-.99-1.2-1-1.19-1-1.19-1-1.19-1.01-1.18-1-1.19-1.01-1.18-1.02-1.18-1.01L93.1 276l-1.17-1.02-1.17-1.03-1.17-1.02-1.17-1.03-1.17-1.04-1.16-1.03-1.16-1.04-1.16-1.04-1.16-1.04-1.15-1.05-1.15-1.04-1.15-1.05-1.15-1.06-1.14-1.05-1.15-1.06-1.14-1.06-1.14-1.06-1.13-1.07-1.14-1.07-1.13-1.07-1.13-1.08-1.12-1.07-1.13-1.08-1.12-1.08-1.12-1.09-1.12-1.09-1.11-1.09-1.12-1.09-1.11-1.09-1.11-1.1-1.1-1.1-1.11-1.11-1.1-1.1-1.1-1.11-1.1-1.11-1.09-1.12-1.09-1.11-1.09-1.12-1.09-1.12-1.09-1.13-1.08-1.12m118.31 98.75 1.04-1.13 1.04-1.12 1.04-1.13 1.04-1.12 1.04-1.12 1.05-1.11 1.05-1.12 1.05-1.11 1.06-1.11 1.05-1.1 1.06-1.1 1.06-1.11 1.06-1.09 1.07-1.1 1.07-1.09 1.07-1.09 1.07-1.09 1.07-1.09 1.08-1.08 1.08-1.08 1.08-1.08 1.08-1.07 1.09-1.08 1.09-1.07 1.09-1.06 1.09-1.07 1.1-1.06 1.09-1.06 1.1-1.06 1.11-1.06 1.1-1.05 1.11-1.05 1.11-1.05 1.11-1.04 1.11-1.04 1.12-1.04 1.11-1.04 1.12-1.03 1.13-1.04 1.12-1.03 1.13-1.02 1.13-1.03 1.13-1.02 1.13-1.02 1.14-1.02 1.14-1.01 1.14-1.01 1.14-1.01 1.15-1.01 1.15-1 1.15-1.01 1.15-1 1.15-.99 1.16-1 1.16-.99 1.16-.99 1.16-.98 1.17-.99 1.17-.98 1.17-.98 1.17-.97 1.18-.98 1.17-.97 1.18-.97 1.19-.96 1.18-.97 1.19-.96 1.19-.96 1.19-.95 1.19-.96 1.2-.95 1.19-.95 1.21-.94 1.2-.95 1.2-.94 1.21-.94 1.21-.93 1.21-.94 1.22-.93 1.21-.92 1.22-.93 1.22-.92 1.22-.92 1.23-.92 1.23-.92 1.23-.91 1.23-.91 1.24-.91 1.23-.9 1.24-.91 1.24-.9 1.25-.89 1.24-.9 1.25-.89 1.25-.89 1.26-.89 1.25-.89 1.26-.88 1.26-.88" style="stroke-width:1.07;stroke:#000000;stroke-opacity:0.10;stroke-linecap:butt"/><path d="m165.12 330.71-1.41-.74-1.42-.74-1.41-.75-1.4-.75-1.4-.76-1.4-.77-1.39-.77-1.38-.77-1.38-.79-1.38-.78-1.37-.79-1.37-.8-1.36-.8-1.36-.81-1.36-.81-1.35-.82-1.34-.82-1.34-.83-1.34-.83-1.33-.84-1.33-.85-1.32-.85-1.32-.85-1.31-.86-1.31-.87-1.3-.87-1.3-.87-1.3-.89-1.29-.88-1.28-.89-1.29-.9-1.27-.9-1.28-.91-1.26-.91-1.27-.92-1.26-.93-1.25-.92-1.25-.94-1.24-.94-1.25-.94-1.23-.95-1.23-.96-1.23-.96-1.22-.96-1.22-.98-1.21-.97-1.21-.98-1.21-.99-1.2-.99-1.19-1-1.19-1-1.19-1.01-1.18-1.01-1.18-1.02-1.17-1.03-1.17-1.03-1.16-1.03-1.16-1.04-1.15-1.05-1.15-1.05-1.15-1.05-1.14-1.06-1.13-1.07-1.14-1.07-1.12-1.08-1.12-1.08-1.12-1.09-1.12-1.09-1.1-1.1-1.11-1.1-1.1-1.11-1.09-1.11-1.09-1.12-1.09-1.13-1.08-1.13-1.08-1.13-1.07-1.14-1.07-1.15-1.06-1.15-1.06-1.15-1.05-1.17-1.05-1.16-1.05-1.17-1.04-1.18-1.04-1.18-1.03-1.19-1.02-1.19-1.03-1.2-1.01-1.21-1.02-1.21-1.01-1.21-1-1.22-1-1.22-1-1.23-.99-1.24-.98-1.24-.98-1.25-.98-1.25-.97-1.25m118.31 98.75.93-1.25.92-1.25.94-1.24.93-1.24.95-1.23.94-1.23.95-1.22.96-1.22.96-1.21.96-1.21.97-1.2.98-1.2.98-1.19.98-1.19.99-1.18.99-1.18.99-1.17 1.01-1.17 1-1.16 1.01-1.16 1.02-1.15 1.02-1.14 1.02-1.14 1.03-1.14 1.03-1.13 1.04-1.13 1.04-1.12 1.05-1.12 1.05-1.11 1.06-1.1 1.06-1.1 1.06-1.1 1.07-1.09 1.08-1.08 1.08-1.09 1.08-1.07 1.09-1.07 1.09-1.07 1.1-1.06 1.1-1.05 1.11-1.05 1.11-1.05 1.12-1.04 1.12-1.03 1.12-1.03 1.13-1.03 1.13-1.02 1.14-1.01 1.15-1.01 1.14-1 1.16-1 1.15-1 1.16-.99 1.17-.98 1.17-.98 1.18-.97 1.18-.97 1.18-.97 1.19-.95 1.19-.96 1.2-.95 1.2-.94 1.21-.94 1.21-.93 1.22-.93 1.22-.92 1.22-.92 1.23-.91 1.24-.91 1.24-.9 1.24-.9 1.25-.89 1.25-.89 1.26-.88 1.26-.88 1.27-.87 1.27-.87 1.28-.86 1.28-.86 1.28-.85 1.29-.85 1.3-.84 1.3-.84 1.3-.83 1.31-.83 1.31-.82 1.32-.82 1.32-.81 1.32-.8 1.33-.8 1.34-.8 1.34-.79 1.34-.79 1.35-.78 1.36-.77 1.36-.78 1.36-.76 1.37-.76 1.37-.76" style="stroke-width:1.07;stroke:#000000;stroke-opacity:0.10;stroke-linecap:butt"/><path d="m165.12 330.71-1.53-.61-1.52-.61-1.51-.63-1.51-.63-1.5-.64-1.5-.65-1.49-.66-1.48-.66-1.47-.68-1.47-.68-1.46-.68-1.46-.7-1.44-.7-1.45-.72-1.43-.72-1.43-.72-1.42-.74-1.41-.74-1.41-.76-1.4-.76-1.39-.76-1.38-.78-1.38-.78-1.38-.79-1.36-.8-1.36-.81-1.35-.82-1.35-.82-1.34-.83-1.33-.84-1.32-.85-1.32-.85-1.31-.86-1.3-.87-1.3-.88-1.29-.89-1.29-.89-1.27-.91-1.27-.91-1.27-.91-1.25-.93-1.25-.93-1.25-.95-1.23-.95-1.23-.95-1.22-.97-1.22-.97-1.21-.99-1.2-.98-1.19-1-1.19-1.01-1.18-1.01-1.18-1.02-1.17-1.03-1.16-1.04-1.15-1.04-1.15-1.06-1.14-1.06-1.13-1.07-1.13-1.07-1.12-1.09-1.11-1.09-1.11-1.1-1.1-1.11-1.09-1.12-1.09-1.12-1.08-1.13-1.07-1.14-1.07-1.15-1.06-1.16-1.05-1.16-1.04-1.17-1.04-1.18-1.03-1.19-1.03-1.2-1.01-1.2-1.02-1.21-1-1.22-1-1.23-.99-1.24-.98-1.24-.98-1.25-.97-1.26-.96-1.27-.96-1.27-.95-1.28-.94-1.3-.94-1.29-.93-1.31-.92-1.32-.91-1.32-.91-1.33-.9-1.34-.9-1.34-.89-1.36-.88-1.36-.87-1.37-.87-1.38-.86-1.38m118.31 98.75.81-1.38.82-1.37.83-1.36.83-1.35.84-1.35.84-1.34.86-1.33.86-1.32.86-1.32.88-1.31.88-1.3.88-1.3.9-1.28.9-1.28.9-1.27.92-1.26.92-1.26.93-1.25.93-1.24.94-1.23.95-1.23.96-1.21.96-1.21.97-1.21.98-1.19.98-1.19.99-1.18 1-1.17 1-1.16 1.01-1.16 1.02-1.15 1.02-1.14 1.03-1.13 1.04-1.13 1.04-1.12 1.06-1.11 1.05-1.1 1.07-1.1 1.07-1.09 1.08-1.08 1.09-1.07 1.09-1.06 1.1-1.06 1.11-1.05 1.11-1.04 1.12-1.04 1.13-1.03 1.13-1.02 1.14-1.01 1.15-1 1.15-1 1.17-.99 1.16-.98 1.18-.97 1.18-.97 1.19-.96 1.2-.95 1.2-.94 1.21-.94 1.21-.93 1.23-.92 1.23-.91 1.23-.91 1.25-.89 1.25-.89 1.26-.89 1.26-.87 1.27-.87 1.28-.86 1.29-.85 1.29-.84 1.3-.84 1.3-.83 1.31-.82 1.32-.82 1.33-.8 1.33-.8 1.34-.79 1.35-.79 1.35-.77 1.36-.77 1.37-.76 1.38-.75 1.38-.75 1.39-.74 1.39-.73 1.4-.72 1.41-.72 1.42-.7 1.42-.7 1.43-.69 1.43-.69 1.45-.68 1.45-.67 1.45-.66 1.47-.65 1.47-.65 1.47-.64 1.49-.63" style="stroke-width:1.07;stroke:#000000;stroke-opacity:0.10;stroke-linecap:butt"/><path d="m165.12 330.71-1.64-.48-1.63-.49-1.62-.5-1.61-.51-1.61-.52-1.59-.53-1.59-.55-1.58-.55-1.56-.56-1.56-.58-1.55-.58-1.54-.6-1.54-.61-1.52-.61-1.51-.63-1.51-.64-1.49-.65-1.49-.66-1.47-.67-1.47-.68-1.46-.69-1.45-.7-1.44-.71-1.43-.72-1.42-.74-1.42-.74-1.4-.76-1.4-.76-1.38-.78-1.38-.78-1.37-.8-1.36-.81-1.35-.81-1.34-.83-1.33-.84-1.32-.85-1.31-.86-1.31-.87-1.29-.88-1.29-.9-1.28-.9-1.26-.91-1.26-.92-1.25-.94-1.24-.94-1.23-.96-1.23-.96-1.21-.98-1.2-.99-1.2-.99-1.19-1.01-1.17-1.02-1.17-1.03-1.16-1.04-1.15-1.05-1.14-1.06-1.13-1.07-1.12-1.09-1.12-1.09-1.1-1.1-1.1-1.12-1.08-1.12-1.08-1.13-1.07-1.15-1.05-1.16-1.05-1.16-1.05-1.18-1.03-1.19-1.02-1.2-1.01-1.21-1.01-1.22-.99-1.23-.99-1.24-.97-1.25-.97-1.26-.96-1.27-.95-1.28-.94-1.3-.93-1.3-.92-1.32-.92-1.32-.9-1.34-.9-1.34-.88-1.36-.88-1.37-.87-1.38-.86-1.39-.85-1.39-.84-1.41-.83-1.43-.82-1.43-.81-1.44-.81-1.45-.79-1.46-.79-1.48-.78-1.48-.76-1.49-.76-1.51-.75-1.51" style="stroke-width:1.07;stroke:#000000;stroke-opacity:0.10;stroke-linecap:butt"/><path d="m385.19 135.93 1.92 3.31h-3.83zM165.12 320.2l9.1 15.77h-18.2z" style="stroke-width:0.71;stroke:none;fill:#00BA38"/><circle cx="278.75" cy="231.28" r="6.41" style="stroke-width:0.71;stroke:none;fill:#F8766D"/><path d="M40.05 238.71h13.51V225.2H40.05z" style="stroke-width:0.71;stroke:none;fill:#619CFF"/><circle cx="51.68" cy="429.99" r="1.42" style="stroke-width:0.71;stroke:none;fill:#F8766D"/><circle cx="250.7" cy="458.11" r="1.42" style="stroke-width:0.71;stroke:none;fill:#F8766D"/><path d="m169.68 325.97-3.78 3.93m108.06-93.95 3.98-3.88m-22.52 221.35-3.92 3.9" style="stroke-width:0.53;stroke:#BFBFBF"/><path d="M333.51 143.74h44.81-.09l.35-.02.34-.07.32-.12.3-.17.27-.22.23-.26.19-.3.14-.32.08-.33.03-.35h0v-6.8h0l-.03-.34-.08-.34-.14-.32-.19-.3-.23-.26-.27-.22-.3-.17-.32-.12-.34-.07-.26-.02h-44.81l.26.02-.34-.02-.35.05-.33.09-.32.15-.28.2-.25.24-.21.28-.16.31-.11.32-.06.35-.01.17v6.8l.01-.18v.35l.06.35.11.33.16.3.21.28.25.24.28.2.32.15.33.09.35.05z" style="stroke-width:0.53;fill:#FFFFFF;fill-opacity:0.50"/><text x="355.92" y="140.14" lengthAdjust="spacingAndGlyphs" style="font-size:5.69px;font-family:&quot;Liberation Sans&quot;" text-anchor="middle" textLength="41.92">ISAI SANTOS M</text><path d="M150.76 325.97h50.51-.09l.35-.01.34-.07.32-.13.3-.17.27-.22.23-.26.19-.29.14-.32.08-.34.03-.35h0v-6.79h0l-.03-.35-.08-.34-.14-.32-.19-.29-.23-.26-.27-.22-.3-.18-.32-.12-.34-.07-.26-.01h-50.51l.26.01-.34-.01-.35.04-.33.1-.32.14-.28.2-.25.24-.21.28-.17.31-.11.33-.05.34-.01.18v6.79l.01-.17v.35l.05.34.11.33.17.31.21.27.25.25.28.19.32.15.33.1.35.04z" style="stroke-width:0.53;fill:#FFFFFF;fill-opacity:0.50"/><text x="176.01" y="322.37" lengthAdjust="spacingAndGlyphs" style="font-size:5.69px;font-family:&quot;Liberation Sans&quot;" text-anchor="middle" textLength="47.62">VILLA NUEVA LLC</text><path d="M228.96 263.45h60.62-.09l.35-.01.34-.07.32-.12.3-.18.27-.22.23-.26.19-.29.14-.32.08-.34.03-.35h0v-23.18h0l-.03-.35-.08-.33-.14-.32-.19-.3-.23-.26-.27-.22-.3-.17-.32-.13-.34-.06-.26-.02h-60.62l.26.02-.34-.02-.35.04-.33.1-.32.15-.28.2-.25.24-.21.27-.16.31-.11.33-.06.35-.01.17v23.18l.01-.17v.35l.06.34.11.33.16.31.21.28.25.24.28.2.32.14.33.1.35.04z" style="stroke-width:0.53;fill:#FFFFFF;fill-opacity:0.50"/><text x="259.27" y="243.47" lengthAdjust="spacingAndGlyphs" style="font-size:5.69px;font-family:&quot;Liberation Sans&quot;" text-anchor="middle" textLength="52.75">10629 W GARFIELD</text><text x="259.27" y="251.66" lengthAdjust="spacingAndGlyphs" style="font-size:5.69px;font-family:&quot;Liberation Sans&quot;" text-anchor="middle" textLength="57.73">AVE, MILWAUKEE, WI</text><text x="259.27" y="259.85" lengthAdjust="spacingAndGlyphs" style="font-size:5.69px;font-family:&quot;Liberation Sans&quot;" text-anchor="middle" textLength="15.78">53226</text><path d="M53.58 241.62h63.85-.08l.34-.01.34-.07.33-.13.3-.17.27-.22.23-.26.18-.29.14-.32.08-.34.03-.35h0v-14.99h0l-.03-.35-.08-.33-.14-.32-.18-.3-.23-.26-.27-.22-.3-.17-.33-.12-.34-.07-.26-.02H53.58l.26.02-.34-.02-.35.04-.33.1-.32.15-.28.2-.25.24-.21.28-.16.3-.11.33-.06.35-.01.17v14.99l.01-.17v.35l.06.34.11.33.16.31.21.27.25.24.28.2.32.15.33.1.35.04z" style="stroke-width:0.53;fill:#FFFFFF;fill-opacity:0.50"/><text x="85.51" y="229.83" lengthAdjust="spacingAndGlyphs" style="font-size:5.69px;font-family:&quot;Liberation Sans&quot;" text-anchor="middle" textLength="43.7">812 E STATE ST,</text><text x="85.51" y="238.02" lengthAdjust="spacingAndGlyphs" style="font-size:5.69px;font-family:&quot;Liberation Sans&quot;" text-anchor="middle" textLength="60.97">MILWAUKEE, WI 53202</text><path d="M58.56 439.55h63.85-.09l.35-.01.34-.07.32-.13.3-.17.27-.22.23-.26.19-.29.14-.32.08-.34.03-.35h0V422.4h0l-.03-.35-.08-.33-.14-.32-.19-.3-.23-.26-.27-.22-.3-.17-.32-.12-.34-.07-.26-.02H58.56l.26.02-.35-.02-.34.05-.34.09-.31.15-.29.2-.25.24-.21.28-.16.3-.11.33-.05.35-.01.17v14.99l.01-.17v.35l.05.34.11.33.16.31.21.27.25.25.29.19.31.15.34.1.34.04z" style="stroke-width:0.53;fill:#FFFFFF;fill-opacity:0.50"/><text x="90.48" y="427.76" lengthAdjust="spacingAndGlyphs" style="font-size:5.69px;font-family:&quot;Liberation Sans&quot;" text-anchor="middle" textLength="59.61">10629 GARFIELD AVE,</text><text x="90.48" y="435.95" lengthAdjust="spacingAndGlyphs" style="font-size:5.69px;font-family:&quot;Liberation Sans&quot;" text-anchor="middle" textLength="60.97">MILWAUKEE, WI 53226</text><path d="M233.93 453.42h63.85-.09l.35-.01.34-.07.33-.12.3-.18.27-.22.23-.26.18-.29.14-.32.08-.34.03-.35h0v-14.99h0l-.03-.34-.08-.34-.14-.32-.18-.29-.23-.26-.27-.22-.3-.18-.33-.12-.34-.07-.26-.02h-63.85l.26.02-.34-.01-.35.04-.33.09-.32.15-.28.2-.25.24-.21.28-.16.31-.11.33-.06.34-.01.17v14.99l.01-.17v.35l.06.34.11.33.16.31.21.28.25.24.28.2.32.14.33.1.35.04z" style="stroke-width:0.53;fill:#FFFFFF;fill-opacity:0.50"/><text x="265.86" y="441.63" lengthAdjust="spacingAndGlyphs" style="font-size:5.69px;font-family:&quot;Liberation Sans&quot;" text-anchor="middle" textLength="38.33">812 STATE ST,</text><text x="265.86" y="449.82" lengthAdjust="spacingAndGlyphs" style="font-size:5.69px;font-family:&quot;Liberation Sans&quot;" text-anchor="middle" textLength="60.97">MILWAUKEE, WI 53202</text></g><g clip-path="url(#cpMC4wMHw0MzIuMDB8MC4wMHw1MDQuMDA=)"><circle cx="120.83" cy="97.06" r="1.95" style="stroke-width:0.71;stroke:none;fill:#F8766D"/><path d="m197.23 94.02 2.63 4.56h-5.26z" style="stroke-width:0.71;stroke:none;fill:#00BA38"/><path d="M263.23 99.01h3.91V95.1h-3.91z" style="stroke-width:0.71;stroke:none;fill:#619CFF"/><text x="134.95" y="100.22" lengthAdjust="spacingAndGlyphs" style="font-size:8.80px;font-weight:0;font-family:&quot;Nimbus Sans Narrow&quot;" textLength="48.16">mprop address</text><text x="211.35" y="100.22" lengthAdjust="spacingAndGlyphs" style="font-size:8.80px;font-weight:0;font-family:&quot;Nimbus Sans Narrow&quot;" textLength="39.72">owner name</text><text x="279.31" y="100.22" lengthAdjust="spacingAndGlyphs" style="font-size:8.80px;font-weight:0;font-family:&quot;Nimbus Sans Narrow&quot;" textLength="40.5">wdfi address</text><text x="29.89" y="65.35" lengthAdjust="spacingAndGlyphs" style="font-size:12.00px;font-weight:0;font-family:&quot;Nimbus Sans Narrow&quot;" textLength="252.11">includes 10 parcels, 29 units, and 2 distinct owner names.</text><text x="29.89" y="42.81" lengthAdjust="spacingAndGlyphs" style="font-size:18.00px;font-weight:0;font-family:&quot;Nimbus Sans Narrow&quot;" textLength="308.34">VILLA NUEVA LLC -- ISAI SANTOS M Group</text></g></g></svg>