<svg xmlns="http://www.w3.org/2000/svg" width="768" height="768" viewBox="0 0 576 576"><g class="svglite"><defs><style><![CDATA[.svglite line,.svglite polyline,.svglite polygon,.svglite path,.svglite circle{fill:none;stroke:#000000;stroke-linecap:round;stroke-linejoin:round;stroke-miterlimit:10.00}.svglite text{white-space:pre}.svglite g.glyphgroup path{fill:inherit;stroke:none}]]></style></defs><rect width="100%" height="100%" style="stroke-linecap:round;stroke-linejoin:round;stroke-miterlimit:10.00;stroke:none;fill:#FFFFFF"/><defs><clipPath id="cpMC4wMHw1NzYuMDB8MC4wMHw1NzYuMDA="><path d="M0 0h576v576H0z"/></clipPath></defs><g clip-path="url(#cpMC4wMHw1NzYuMDB8MC4wMHw1NzYuMDA=)"><path d="M0 0h576v576H0z" style="stroke-width:1.07;stroke:none;fill:#FFFFFF"/></g><defs><clipPath id="cpMjkuODl8NTQ2LjExfDEyMi4xNHw1NDYuMTE="><path d="M29.89 122.14h516.22v423.97H29.89z"/></clipPath></defs><g clip-path="url(#cpMjkuODl8NTQ2LjExfDEyMi4xNHw1NDYuMTE=)"><path d="m163.53 448.06 1.46-1.17 1.47-1.17 1.46-1.18 1.46-1.17 1.46-1.18 1.46-1.17 1.45-1.18 1.45-1.18 1.45-1.19 1.44-1.18 1.45-1.19 1.44-1.19 1.44-1.18 1.43-1.2 1.44-1.19 1.43-1.19 1.43-1.2 1.42-1.2 1.43-1.2 1.42-1.2 1.42-1.2 1.41-1.2 1.42-1.21 1.41-1.21 1.41-1.21 1.4-1.21 1.41-1.21 1.4-1.22 1.4-1.21 1.4-1.22 1.39-1.22 1.4-1.22 1.39-1.22 1.38-1.23 1.39-1.22 1.38-1.23 1.38-1.23 1.38-1.23 1.37-1.24 1.38-1.23 1.37-1.24 1.36-1.24 1.37-1.23 1.36-1.25 1.36-1.24 1.36-1.24 1.36-1.25 1.35-1.25 1.35-1.25 1.35-1.25 1.35-1.25 1.34-1.26 1.34-1.25 1.34-1.26 1.34-1.26 1.33-1.26 1.33-1.27 1.33-1.26 1.33-1.27 1.32-1.27 1.33-1.27 1.32-1.27 1.31-1.27 1.32-1.28 1.31-1.27 1.31-1.28 1.31-1.28 1.3-1.28 1.3-1.29 1.3-1.28 1.3-1.29 1.3-1.29 1.29-1.29 1.29-1.29 1.29-1.29 1.28-1.3 1.29-1.29 1.28-1.3 1.28-1.3 1.27-1.3 1.27-1.31 1.28-1.3 1.26-1.31 1.27-1.31 1.26-1.31 1.27-1.31 1.25-1.31 1.26-1.32 1.25-1.32 1.26-1.31 1.25-1.32 1.24-1.33 1.25-1.32 1.24-1.33 1.24-1.32 1.23-1.33 1.24-1.33 1.23-1.33 1.23-1.34m-133.51 123.9 1.95.45 1.95.46 1.95.45 1.96.45 1.95.45 1.96.44 1.95.45 1.96.44 1.96.43 1.96.44 1.95.43 1.96.43 1.96.43 1.96.42 1.96.43 1.97.42 1.96.41 1.96.42 1.96.41 1.97.41 1.96.41 1.97.41 1.96.4 1.97.4 1.97.4 1.97.39 1.97.4 1.97.39 1.97.39 1.97.38 1.97.39 1.97.38 1.97.37 1.98.38 1.97.37 1.97.37 1.98.37 1.98.37 1.97.36 1.98.36 1.98.36 1.98.36 1.98.35 1.98.35 1.98.35 1.98.35 1.98.34 1.98.34 1.99.34 1.98.34 1.98.33 1.99.33 1.98.33 1.99.33 1.99.32 1.99.32 1.98.32 1.99.32 1.99.31 1.99.32 1.99.3 2 .31 1.99.31 1.99.3 1.99.3 2 .29 1.99.3 2 .29 2 .29 1.99.29 2 .28 2 .28 2 .28 2 .28 2 .27 2 .28 2 .26 2 .27 2 .27 2.01.26 2 .26 2.01.26 2 .25 2.01.25 2 .25 2.01.25 2.01.25 2.01.24 2.01.24 2.01.24 2.01.23 2.01.23 2.01.23 2.01.23 2.02.23 2.01.22 2.01.22 2.02.22 2.01.21m62.2-312.93-1.34 1.53-1.34 1.54-1.33 1.53-1.34 1.54-1.33 1.54-1.33 1.54-1.33 1.54-1.33 1.54-1.32 1.54-1.33 1.54-1.32 1.54-1.32 1.54-1.32 1.55-1.32 1.54-1.32 1.55-1.31 1.54-1.31 1.55-1.32 1.55-1.31 1.55-1.31 1.55-1.3 1.55-1.31 1.55-1.31 1.55-1.3 1.55-1.3 1.56-1.3 1.55-1.3 1.56-1.3 1.55-1.29 1.56-1.29 1.56-1.3 1.56-1.29 1.56-1.29 1.55-1.29 1.57-1.28 1.56-1.29 1.56-1.28 1.56-1.28 1.57-1.28 1.56-1.28 1.57-1.28 1.56-1.27 1.57-1.28 1.57-1.27 1.56-1.27 1.57-1.27 1.57-1.27 1.58-1.26 1.57-1.27 1.57-1.26 1.57-1.26 1.58-1.26 1.57-1.26 1.58-1.26 1.57-1.26 1.58-1.25 1.58-1.25 1.58-1.25 1.58-1.25 1.58-1.25 1.58-1.25 1.58-1.24 1.58-1.25 1.59-1.24 1.58-1.24 1.58-1.24 1.59-1.24 1.59-1.23 1.58-1.24 1.59-1.23 1.59-1.23 1.59-1.23 1.59-1.23 1.59-1.23 1.59-1.22 1.6-1.22 1.59-1.23 1.6-1.22 1.59-1.22 1.6-1.21 1.59-1.22 1.6-1.22 1.6-1.21 1.6-1.21 1.6-1.21 1.6-1.21 1.6-1.21 1.6-1.2 1.61-1.2 1.6-1.21 1.61-1.2 1.6-1.2 1.61-1.19 1.6-1.2 1.61-1.2 1.61-1.19 1.61-1.19 1.61-1.19 1.61-1.19 1.61m-37.71-182.75.38 1.84.38 1.85.38 1.85.38 1.84.38 1.85.38 1.84.38 1.85.38 1.85.38 1.84.39 1.85.38 1.84.38 1.85.38 1.85.38 1.84.38 1.85.38 1.84.38 1.85.38 1.85.38 1.84.39 1.85.38 1.84.38 1.85.38 1.85.38 1.84.38 1.85.38 1.84.38 1.85.38 1.85.38 1.84.38 1.85.39 1.84.38 1.85.38 1.85.38 1.84.38 1.85.38 1.84.38 1.85.38 1.85.38 1.84.38 1.85.39 1.84.38 1.85.38 1.85.38 1.84.38 1.85.38 1.84.38 1.85.38 1.85.38 1.84.38 1.85.38 1.84.39 1.85.38 1.85.38 1.84.38 1.85.38 1.84.38 1.85.38 1.85.38 1.84.38 1.85.38 1.84.39 1.85.38 1.85.38 1.84.38 1.85.38 1.84.38 1.85.38 1.85.38 1.84.38 1.85.38 1.84.38 1.85.39 1.85.38 1.84.38 1.85.38 1.84.38 1.85.38 1.85.38 1.84.38 1.85.38 1.84.38 1.85.39 1.85.38 1.84.38 1.85.38 1.84.38 1.85.38 1.85.38 1.84.38 1.85.38 1.84.38 1.85.38 1.85.39 1.84.38 1.85.38 1.84.38 1.85.38 1.85.38 1.84m225.61-50.2-2.28.5-2.28.51-2.28.51-2.28.51-2.28.5-2.28.51-2.27.51-2.28.5-2.28.51-2.28.51-2.28.51-2.28.5-2.28.51-2.28.51-2.28.5-2.27.51-2.28.51-2.28.51-2.28.5-2.28.51-2.28.51-2.28.5-2.28.51-2.28.51-2.27.51-2.28.5-2.28.51-2.28.51-2.28.5-2.28.51-2.28.51-2.28.51-2.27.5-2.28.51-2.28.51-2.28.5-2.28.51-2.28.51-2.28.51-2.28.5-2.28.51-2.27.51-2.28.5-2.28.51-2.28.51-2.28.51-2.28.5-2.28.51-2.28.51-2.28.5-2.27.51-2.28.51-2.28.51-2.28.5-2.28.51-2.28.51-2.28.5-2.28.51-2.28.51-2.27.5-2.28.51-2.28.51-2.28.51-2.28.5-2.28.51-2.28.51-2.28.5-2.27.51-2.28.51-2.28.51-2.28.5-2.28.51-2.28.51-2.28.5-2.28.51-2.28.51-2.27.51-2.28.5-2.28.51-2.28.51-2.28.5-2.28.51-2.28.51-2.28.51-2.28.5-2.27.51-2.28.51-2.28.5-2.28.51-2.28.51-2.28.51-2.28.5-2.28.51-2.28.51-2.27.5-2.28.51-2.28.51-2.28.51-2.28.5" style="stroke-width:1.07;stroke:#000000;stroke-opacity:0.10;stroke-linecap:butt"/><path d="m242.23 526.84.65-2.03.65-2.03.65-2.03.64-2.03.65-2.03.64-2.04.64-2.03.63-2.03.64-2.04.63-2.03.63-2.03.63-2.04.63-2.03.62-2.04.63-2.03.62-2.04.62-2.03.61-2.04.62-2.04.61-2.03.61-2.04.61-2.04.61-2.04.61-2.03.6-2.04.6-2.04.6-2.04.6-2.04.59-2.04.6-2.04.59-2.04.59-2.04.58-2.04.59-2.05.58-2.04.58-2.04.58-2.04.58-2.05.58-2.04.57-2.04.57-2.05.57-2.04.57-2.05.56-2.04.57-2.05.56-2.04.56-2.05.56-2.05.55-2.04.56-2.05.55-2.05.55-2.05.54-2.04.55-2.05.54-2.05.55-2.05.54-2.05.53-2.05.54-2.05.53-2.05.53-2.05.53-2.05.53-2.06.53-2.05.52-2.05.52-2.05.52-2.06.52-2.05.52-2.05.51-2.06.51-2.05.51-2.06.51-2.05.51-2.06.5-2.05.5-2.06.5-2.06.5-2.05.5-2.06.49-2.06.49-2.06.49-2.05.49-2.06.49-2.06.48-2.06.48-2.06.48-2.06.48-2.06.48-2.06.47-2.06.47-2.06.47-2.07.47-2.06.47-2.06.46-2.06.47-2.07.46-2.06.45-2.06.46-2.07m-54.81 202.68 1.21-.42 1.21-.43 1.21-.42 1.21-.43 1.21-.42 1.21-.43 1.21-.43 1.2-.43 1.21-.43 1.21-.42 1.2-.44 1.21-.43 1.21-.43 1.2-.43 1.21-.44 1.2-.43 1.2-.43 1.21-.44 1.2-.44 1.2-.43 1.2-.44 1.2-.44 1.2-.44 1.2-.44 1.2-.44 1.2-.44 1.2-.45 1.2-.44 1.2-.44 1.2-.45 1.2-.44 1.19-.45 1.2-.45 1.19-.44 1.2-.45 1.19-.45 1.2-.45 1.19-.45 1.2-.45 1.19-.46 1.19-.45 1.2-.45 1.19-.46 1.19-.45 1.19-.46 1.19-.45 1.19-.46 1.19-.46 1.19-.46 1.19-.46 1.19-.46 1.18-.46 1.19-.46 1.19-.46 1.19-.47 1.18-.46 1.19-.46 1.18-.47 1.19-.47 1.18-.46 1.19-.47 1.18-.47 1.18-.47 1.19-.47 1.18-.47 1.18-.47 1.18-.47 1.18-.47 1.18-.48 1.18-.47 1.18-.48 1.18-.47 1.18-.48 1.18-.48 1.17-.47 1.18-.48 1.18-.48 1.17-.48 1.18-.48 1.18-.49 1.17-.48 1.18-.48 1.17-.49 1.17-.48 1.18-.49 1.17-.48 1.17-.49 1.17-.49 1.17-.48 1.18-.49 1.17-.49 1.17-.49 1.17-.49 1.17-.5 1.16-.49 1.17-.49 1.17-.5 1.17-.49 1.16-.5" style="stroke-width:1.07;stroke:#000000;stroke-opacity:0.10;stroke-linecap:butt"/><path d="m114.76 206.27 1.78 1.24 1.79 1.25 1.79 1.24 1.78 1.25 1.79 1.24 1.79 1.24 1.8 1.24 1.79 1.24 1.79 1.24 1.8 1.23 1.79 1.24 1.8 1.23 1.8 1.24 1.8 1.23 1.8 1.23 1.8 1.23 1.81 1.23 1.8 1.23 1.8 1.22 1.81 1.23 1.81 1.22 1.81 1.23 1.81 1.22 1.81 1.22 1.81 1.22 1.82 1.22 1.81 1.21 1.82 1.22 1.81 1.21 1.82 1.22 1.82 1.21 1.82 1.21 1.82 1.21 1.82 1.21 1.83 1.21 1.82 1.21 1.83 1.2 1.83 1.21 1.83 1.2 1.83 1.2 1.83 1.2 1.83 1.2 1.83 1.2 1.84 1.2 1.83 1.2 1.84 1.19 1.84 1.2 1.83 1.19 1.84 1.19 1.85 1.19 1.84 1.19 1.84 1.19 1.85 1.19 1.84 1.19 1.85 1.18 1.85 1.19 1.85 1.18 1.85 1.18 1.85 1.18 1.85 1.18 1.86 1.18 1.85 1.17 1.86 1.18 1.85 1.18 1.86 1.17 1.86 1.17 1.86 1.17 1.87 1.17 1.86 1.17 1.86 1.17 1.87 1.17 1.86 1.16 1.87 1.17 1.87 1.16 1.87 1.16 1.87 1.16 1.88 1.16 1.87 1.16 1.87 1.16 1.88 1.16 1.88 1.15 1.87 1.16 1.88 1.15 1.88 1.15 1.89 1.15 1.88 1.15 1.88 1.15 1.89 1.15 1.88 1.14 1.89 1.15 1.89 1.14 1.89 1.15 1.89 1.14 1.89 1.14 1.9 1.14 1.89 1.13 1.9 1.14 1.89 1.14 1.9 1.13m-133.51 123.9 1.35-1.26 1.34-1.25 1.35-1.25 1.35-1.25 1.35-1.25 1.35-1.25 1.35-1.25 1.35-1.26 1.34-1.25 1.35-1.25 1.35-1.25 1.35-1.25 1.35-1.25 1.35-1.25 1.35-1.26 1.35-1.25 1.34-1.25 1.35-1.25 1.35-1.25 1.35-1.25 1.35-1.25 1.35-1.26 1.35-1.25 1.34-1.25 1.35-1.25 1.35-1.25 1.35-1.25 1.35-1.25 1.35-1.26 1.35-1.25 1.34-1.25 1.35-1.25 1.35-1.25 1.35-1.25 1.35-1.25 1.35-1.26 1.35-1.25 1.34-1.25 1.35-1.25 1.35-1.25 1.35-1.25 1.35-1.26 1.35-1.25 1.35-1.25 1.35-1.25 1.34-1.25 1.35-1.25 1.35-1.25 1.35-1.26 1.35-1.25 1.35-1.25 1.35-1.25 1.34-1.25 1.35-1.25 1.35-1.25 1.35-1.26 1.35-1.25 1.35-1.25 1.35-1.25 1.34-1.25 1.35-1.25 1.35-1.25 1.35-1.26 1.35-1.25 1.35-1.25 1.35-1.25 1.34-1.25 1.35-1.25 1.35-1.25 1.35-1.26 1.35-1.25 1.35-1.25 1.35-1.25 1.35-1.25 1.34-1.25 1.35-1.25 1.35-1.26 1.35-1.25 1.35-1.25 1.35-1.25 1.35-1.25 1.34-1.25 1.35-1.25 1.35-1.26 1.35-1.25 1.35-1.25 1.35-1.25 1.35-1.25 1.34-1.25 1.35-1.25 1.35-1.26 1.35-1.25 1.35-1.25 1.35-1.25 1.35-1.25 1.34-1.25 1.35-1.25 1.35-1.26 1.35-1.25m-133.51 123.9 1.98.33 1.99.34 1.98.33 1.98.34 1.99.34 1.98.33 1.98.34 1.99.34 1.98.33 1.99.34 1.98.34 1.98.33 1.99.34 1.98.33 1.98.34 1.99.34 1.98.33 1.99.34 1.98.34 1.98.33 1.99.34 1.98.33 1.99.34 1.98.34 1.98.33 1.99.34 1.98.34 1.98.33 1.99.34 1.98.34 1.99.33 1.98.34 1.98.33 1.99.34 1.98.34 1.98.33 1.99.34 1.98.34 1.99.33 1.98.34 1.98.34 1.99.33 1.98.34 1.99.33 1.98.34 1.98.34 1.99.33 1.98.34 1.98.34 1.99.33 1.98.34 1.99.33 1.98.34 1.98.34 1.99.33 1.98.34 1.98.34 1.99.33 1.98.34 1.99.34 1.98.33 1.98.34 1.99.33 1.98.34 1.99.34 1.98.33 1.98.34 1.99.34 1.98.33 1.98.34 1.99.33 1.98.34 1.99.34 1.98.33 1.98.34 1.99.34 1.98.33 1.98.34 1.99.34 1.98.33 1.99.34 1.98.33 1.98.34 1.99.34 1.98.33 1.99.34 1.98.34 1.98.33 1.99.34 1.98.33 1.98.34 1.99.34 1.98.33 1.99.34 1.98.34 1.98.33 1.99.34 1.98.34 1.98.33" style="stroke-width:1.07;stroke:#000000;stroke-opacity:0.10;stroke-linecap:butt"/><path d="m242.23 526.84.46-2.06.46-2.07.46-2.06.46-2.06.46-2.07.47-2.06.47-2.06.47-2.06.47-2.06.48-2.07.47-2.06.48-2.06.48-2.06.48-2.06.49-2.06.48-2.05.49-2.06.49-2.06.49-2.06.5-2.06.49-2.05.5-2.06.5-2.06.5-2.05.51-2.06.5-2.06.51-2.05.51-2.06.51-2.05.52-2.05.51-2.06.52-2.05.52-2.05.52-2.06.53-2.05.52-2.05.53-2.05.53-2.05.53-2.06.53-2.05.54-2.05.54-2.05.54-2.05.54-2.05.54-2.04.55-2.05.55-2.05.55-2.05.55-2.05.55-2.04.56-2.05.55-2.05.56-2.04.57-2.05.56-2.05.56-2.04.57-2.05.57-2.04.57-2.04.58-2.05.57-2.04.58-2.04.58-2.05.58-2.04.58-2.04.59-2.04.59-2.04.59-2.05.59-2.04.59-2.04.6-2.04.59-2.04.6-2.04.6-2.04.61-2.03.6-2.04.61-2.04.61-2.04.61-2.03.61-2.04.62-2.04.62-2.03.61-2.04.63-2.04.62-2.03.62-2.04.63-2.03.63-2.03.63-2.04.63-2.03.64-2.03.64-2.04.63-2.03.65-2.03.64-2.03.64-2.04.65-2.03.65-2.03.65-2.03m-54.81 202.68 1.17-.5 1.17-.49 1.16-.49 1.17-.5 1.17-.49 1.17-.49 1.17-.49 1.17-.49 1.17-.49 1.17-.49 1.17-.49 1.18-.49 1.17-.49 1.17-.48 1.17-.49 1.18-.48 1.17-.49 1.18-.48 1.17-.48 1.18-.48 1.17-.48 1.18-.48 1.18-.48 1.17-.48 1.18-.48 1.18-.48 1.18-.47 1.18-.48 1.18-.48 1.18-.47 1.18-.47 1.18-.48 1.18-.47 1.18-.47 1.18-.47 1.18-.47 1.19-.47 1.18-.47 1.18-.47 1.19-.46 1.18-.47 1.19-.46 1.18-.47 1.19-.46 1.19-.47 1.18-.46 1.19-.46 1.19-.46 1.19-.46 1.19-.46 1.19-.46 1.19-.46 1.19-.45 1.19-.46 1.19-.46 1.19-.45 1.19-.46 1.19-.45 1.2-.45 1.19-.45 1.19-.46 1.2-.45 1.19-.45 1.2-.45 1.19-.44 1.2-.45 1.19-.45 1.2-.44 1.2-.45 1.2-.44 1.19-.45 1.2-.44 1.2-.44 1.2-.45 1.2-.44 1.2-.44 1.2-.44 1.2-.44 1.21-.43 1.2-.44 1.2-.44 1.2-.43 1.21-.44 1.2-.43 1.21-.44 1.2-.43 1.21-.43 1.2-.43 1.21-.43 1.2-.43 1.21-.43 1.21-.43 1.21-.43 1.21-.42 1.2-.43 1.21-.43 1.21-.42 1.21-.42 1.21-.43M114.76 206.27l1.9 1.13 1.89 1.14 1.9 1.13 1.89 1.14 1.9 1.14 1.89 1.14 1.89 1.14 1.89 1.15 1.89 1.14 1.89 1.14 1.88 1.15 1.89 1.15 1.88 1.15 1.88 1.15 1.89 1.15 1.88 1.15 1.87 1.15 1.88 1.16 1.88 1.15 1.88 1.16 1.87 1.16 1.87 1.15 1.88 1.16 1.87 1.17 1.87 1.16 1.87 1.16 1.86 1.17 1.87 1.16 1.87 1.17 1.86 1.17 1.86 1.16 1.87 1.18 1.86 1.17 1.86 1.17 1.86 1.17 1.85 1.18 1.86 1.17 1.85 1.18 1.86 1.18 1.85 1.18 1.85 1.18 1.85 1.18 1.85 1.18 1.85 1.19 1.85 1.18 1.84 1.19 1.85 1.19 1.84 1.18 1.84 1.19 1.85 1.2 1.84 1.19 1.83 1.19 1.84 1.2 1.84 1.19 1.83 1.2 1.84 1.19 1.83 1.2 1.83 1.2 1.83 1.2 1.83 1.21 1.83 1.2 1.83 1.21 1.83 1.2 1.82 1.21 1.82 1.21 1.83 1.21 1.82 1.21 1.82 1.21 1.82 1.21 1.82 1.21 1.81 1.22 1.82 1.21 1.81 1.22 1.82 1.22 1.81 1.22 1.81 1.22 1.81 1.22 1.81 1.23 1.81 1.22 1.8 1.22 1.81 1.23 1.8 1.23 1.81 1.23 1.8 1.23 1.8 1.23 1.8 1.23 1.8 1.23 1.8 1.24 1.79 1.23 1.8 1.24 1.79 1.24 1.79 1.24 1.8 1.24 1.79 1.24 1.79 1.24 1.78 1.24 1.79 1.25 1.79 1.25 1.78 1.24" style="stroke-width:1.07;stroke:#000000;stroke-opacity:0.10;stroke-linecap:butt"/><path d="m53.35 331.54 2.46-.07 2.47-.08 2.46-.07 2.46-.08 2.46-.07 2.46-.08 2.46-.07 2.46-.08 2.47-.07 2.46-.08 2.46-.07 2.46-.07 2.46-.08 2.46-.07 2.47-.08 2.46-.07 2.46-.08 2.46-.07 2.46-.08 2.46-.07 2.46-.07 2.47-.08 2.46-.07 2.46-.08 2.46-.07 2.46-.08 2.46-.07 2.46-.08 2.47-.07 2.46-.08 2.46-.07 2.46-.07 2.46-.08 2.46-.07 2.46-.08 2.47-.07 2.46-.08 2.46-.07 2.46-.08 2.46-.07 2.46-.08 2.47-.07 2.46-.07 2.46-.08 2.46-.07 2.46-.08 2.46-.07 2.46-.08 2.47-.07 2.46-.08 2.46-.07 2.46-.08 2.46-.07 2.46-.07 2.46-.08 2.47-.07 2.46-.08 2.46-.07 2.46-.08 2.46-.07 2.46-.08 2.47-.07 2.46-.07 2.46-.08 2.46-.07 2.46-.08 2.46-.07 2.46-.08 2.47-.07 2.46-.08 2.46-.07 2.46-.08 2.46-.07 2.46-.07 2.46-.08 2.47-.07 2.46-.08 2.46-.07 2.46-.08 2.46-.07 2.46-.08 2.47-.07 2.46-.08 2.46-.07 2.46-.07 2.46-.08 2.46-.07 2.46-.08 2.47-.07 2.46-.08 2.46-.07 2.46-.08 2.46-.07 2.46-.07 2.46-.08 2.47-.07 2.46-.08 2.46-.07 2.46-.08m125.08-155.74-1.19 1.61-1.19 1.61-1.19 1.61-1.2 1.61-1.19 1.61-1.2 1.6-1.2 1.61-1.2 1.61-1.2 1.6-1.2 1.61-1.2 1.6-1.21 1.6-1.21 1.61-1.2 1.6-1.21 1.6-1.22 1.6-1.21 1.6-1.21 1.6-1.22 1.59-1.22 1.6-1.22 1.6-1.22 1.59-1.22 1.6-1.22 1.59-1.23 1.59-1.22 1.6-1.23 1.59-1.23 1.59-1.23 1.59-1.24 1.59-1.23 1.58-1.24 1.59-1.23 1.59-1.24 1.58-1.24 1.59-1.25 1.58-1.24 1.59-1.24 1.58-1.25 1.58-1.25 1.58-1.25 1.58-1.25 1.58-1.25 1.58-1.26 1.58-1.25 1.58-1.26 1.57-1.26 1.58-1.26 1.57-1.26 1.58-1.26 1.57-1.27 1.57-1.27 1.57-1.26 1.57-1.27 1.57-1.27 1.57-1.28 1.57-1.27 1.57-1.28 1.57-1.27 1.56-1.28 1.57-1.28 1.56-1.28 1.57-1.29 1.56-1.28 1.56-1.29 1.56-1.29 1.56-1.29 1.56-1.29 1.56-1.29 1.56-1.29 1.56-1.3 1.55-1.3 1.56-1.29 1.56-1.3 1.55-1.31 1.55-1.3 1.56-1.3 1.55-1.31 1.55-1.31 1.55-1.31 1.55-1.31 1.55-1.31 1.55-1.31 1.54-1.32 1.55-1.31 1.55-1.32 1.54-1.32 1.54-1.32 1.55-1.33 1.54-1.32 1.54-1.33 1.54-1.32 1.54-1.33 1.54-1.33 1.54-1.34 1.54-1.33 1.54-1.33 1.53-1.34 1.54-1.34 1.53" style="stroke-width:1.07;stroke:#000000;stroke-opacity:0.10;stroke-linecap:butt"/><path d="m516.85 408.41-2.22-.86-2.22-.85-2.22-.85-2.22-.85-2.22-.85-2.22-.85-2.22-.85-2.22-.85-2.22-.85-2.22-.85-2.22-.86-2.22-.85-2.22-.85-2.22-.85-2.22-.85-2.22-.85-2.22-.85-2.22-.85-2.22-.85-2.22-.85-2.22-.85-2.22-.86-2.23-.85-2.22-.85-2.22-.85-2.22-.85-2.22-.85-2.22-.85-2.22-.85-2.22-.85-2.22-.85-2.22-.85-2.22-.86-2.22-.85-2.22-.85-2.22-.85-2.22-.85-2.22-.85-2.22-.85-2.22-.85-2.22-.85-2.22-.85-2.22-.86-2.22-.85-2.22-.85-2.22-.85-2.22-.85-2.22-.85-2.22-.85-2.22-.85-2.22-.85-2.22-.85-2.22-.85-2.23-.86-2.22-.85-2.22-.85-2.22-.85-2.22-.85-2.22-.85-2.22-.85-2.22-.85-2.22-.85-2.22-.85-2.22-.85-2.22-.86-2.22-.85-2.22-.85-2.22-.85-2.22-.85-2.22-.85-2.22-.85-2.22-.85-2.22-.85-2.22-.85-2.22-.86-2.22-.85-2.22-.85-2.22-.85-2.22-.85-2.22-.85-2.22-.85-2.22-.85-2.22-.85-2.22-.85-2.23-.85-2.22-.86-2.22-.85-2.22-.85-2.22-.85-2.22-.85-2.22-.85-2.22-.85-2.22-.85-2.22-.85-2.22-.85-2.22-.85-2.22-.86-2.22-.85-2.22-.85m-133.51 123.9 1.23-1.34 1.23-1.33 1.23-1.33 1.24-1.33 1.24-1.33 1.24-1.32 1.25-1.33 1.24-1.32 1.25-1.32 1.25-1.32 1.26-1.31 1.25-1.32 1.26-1.31 1.26-1.31 1.27-1.31 1.26-1.31 1.27-1.31 1.27-1.3 1.28-1.31 1.27-1.3 1.28-1.3 1.28-1.3 1.28-1.3 1.29-1.29 1.29-1.29 1.29-1.3 1.29-1.29 1.3-1.28 1.29-1.29 1.3-1.29 1.31-1.28 1.3-1.28 1.31-1.28 1.31-1.28 1.31-1.28 1.32-1.27 1.31-1.27 1.32-1.28 1.32-1.27 1.33-1.26 1.32-1.27 1.33-1.26 1.34-1.27 1.33-1.26 1.34-1.26 1.34-1.26 1.34-1.25 1.34-1.26 1.35-1.25 1.34-1.25 1.36-1.25 1.35-1.25 1.36-1.25 1.35-1.24 1.36-1.25 1.37-1.24 1.36-1.24 1.37-1.23 1.37-1.24 1.37-1.24 1.38-1.23 1.38-1.23 1.38-1.23 1.38-1.23 1.39-1.22 1.38-1.23 1.39-1.22 1.4-1.22 1.39-1.22 1.4-1.22 1.4-1.22 1.4-1.21 1.4-1.21 1.41-1.21 1.41-1.21 1.41-1.21 1.42-1.21 1.41-1.2 1.42-1.21 1.42-1.2 1.43-1.2 1.42-1.19 1.43-1.2 1.43-1.19 1.44-1.2 1.43-1.19 1.44-1.19 1.44-1.18 1.44-1.19 1.45-1.18 1.45-1.19 1.45-1.18 1.45-1.18 1.46-1.17 1.45-1.18 1.47-1.17 1.46-1.18 1.46-1.17 1.47-1.17m-133.51 123.9 2.01.21 2.02.22 2.01.22 2.02.22 2.01.23 2.01.22 2.01.23 2.02.24 2.01.23 2.01.24 2.01.24 2 .24 2.01.25 2.01.24 2.01.25 2 .26 2.01.25 2 .26 2.01.26 2 .26 2 .27 2 .26 2.01.27 2 .27 2 .28 2 .28 1.99.28 2 .28 2 .28 2 .29 1.99.29 2 .29 1.99.29 2 .3 1.99.3 1.99.3 2 .31 1.99.3 1.99.31 1.99.31 1.99.32 1.99.31 1.99.32 1.98.33 1.99.32 1.99.33 1.98.32 1.99.34 1.98.33 1.99.34 1.98.33 1.98.35 1.98.34 1.99.35 1.98.34 1.98.36 1.98.35 1.97.36 1.98.35 1.98.37 1.98.36 1.97.36 1.98.37 1.97.37 1.98.38 1.97.37 1.97.38 1.97.38 1.98.39 1.97.38 1.97.39 1.97.39 1.96.39 1.97.4 1.97.4 1.97.4 1.96.4 1.97.41 1.96.4 1.97.41 1.96.42 1.96.41 1.97.42 1.96.42 1.96.42 1.96.43 1.96.43 1.96.43 1.96.43 1.95.43 1.96.44 1.96.44 1.95.44 1.96.45 1.95.45 1.96.45 1.95.45 1.95.45 1.95.46m0 0 .27-1.82.26-1.81.23-1.81.21-1.81.2-1.8.18-1.8.16-1.79.14-1.79.12-1.78.11-1.78.08-1.77.07-1.77.05-1.76.03-1.76.01-1.75-.01-1.75-.03-1.75-.04-1.74-.06-1.73-.08-1.73-.1-1.73-.12-1.72-.14-1.71-.15-1.72-.17-1.7-.2-1.7-.21-1.7-.22-1.69-.25-1.69-.27-1.68-.28-1.68-.3-1.67-.33-1.67-.33-1.67-.36-1.65-.38-1.66-.39-1.65-.42-1.64-.43-1.64-.45-1.64-.47-1.63-.49-1.62-.5-1.63-.53-1.61-.54-1.61-.56-1.61-.58-1.6-.6-1.6-.62-1.59-.63-1.59-.65-1.58-.68-1.58-.69-1.57-.71-1.57-.72-1.57-.75-1.56-.76-1.55-.79-1.55-.8-1.55-.82-1.54-.84-1.53-.85-1.53-.88-1.53-.89-1.52-.92-1.52-.93-1.51-.95-1.51-.96-1.5-.99-1.5-1-1.49-1.03-1.49-1.04-1.48-1.06-1.48-1.08-1.47-1.1-1.47-1.11-1.47-1.14-1.46-1.15-1.45-1.17-1.45-1.19-1.45-1.21-1.44-1.22-1.43-1.25-1.43-1.26-1.43-1.28-1.42-1.3-1.42-1.32-1.41-1.34-1.41-1.36-1.4-1.37-1.4-1.39-1.39-1.41-1.39-1.43-1.38-1.45-1.38-1.47-1.38-1.48-1.37-1.51-1.36-1.52-1.36-1.54-1.36" style="stroke-width:1.07;stroke:#000000;stroke-opacity:0.10;stroke-linecap:butt"/><path d="m359.92 481.35.12-1.78.11-1.78.09-1.77.07-1.77.06-1.77.04-1.76.03-1.76.01-1.75-.01-1.75-.02-1.75-.03-1.74-.05-1.74-.07-1.73-.08-1.73-.09-1.73-.11-1.72-.13-1.72-.14-1.71-.16-1.71-.18-1.71-.18-1.7-.21-1.7-.22-1.69-.23-1.69-.25-1.69-.27-1.68-.28-1.68-.3-1.68-.31-1.67-.32-1.66-.35-1.67-.36-1.66-.37-1.65-.39-1.65-.4-1.65-.42-1.64-.44-1.64-.45-1.64-.46-1.63-.48-1.63-.5-1.62-.51-1.62-.53-1.61-.54-1.61-.56-1.61-.57-1.61-.59-1.6-.61-1.59-.62-1.59-.63-1.59-.65-1.58-.67-1.58-.68-1.58-.7-1.57-.71-1.57-.73-1.56-.74-1.56-.76-1.56-.77-1.55-.79-1.55-.81-1.55-.82-1.54-.83-1.53-.85-1.53-.87-1.53-.88-1.53-.9-1.52-.91-1.51-.93-1.52-.94-1.51-.96-1.5-.97-1.5-.99-1.5-1.01-1.49-1.02-1.49-1.03-1.48-1.05-1.49-1.07-1.47-1.08-1.48-1.1-1.47-1.11-1.46-1.13-1.46-1.14-1.46-1.16-1.45-1.18-1.45-1.18-1.45-1.21-1.44-1.22-1.44-1.24-1.43-1.25-1.43-1.26-1.42-1.29-1.43-1.29-1.41-1.32-1.42-1.32-1.41-1.35-1.4-1.36-1.41-1.37-1.39-1.39-1.4" style="stroke-width:1.07;stroke:#000000;stroke-opacity:0.10;stroke-linecap:butt"/><path d="m359.92 481.35-.03-1.74-.04-1.74-.06-1.74-.07-1.73-.08-1.73-.09-1.73-.11-1.72-.11-1.72-.13-1.72-.15-1.71-.15-1.71-.17-1.71-.18-1.71-.19-1.7-.2-1.7-.22-1.69-.23-1.7-.24-1.68-.25-1.69-.27-1.68-.28-1.68-.29-1.68-.3-1.67-.31-1.67-.33-1.67-.34-1.66-.35-1.66-.37-1.66-.37-1.65-.39-1.66-.4-1.64-.42-1.65-.42-1.64-.44-1.64-.45-1.63-.46-1.64-.48-1.62-.49-1.63-.5-1.62-.51-1.62-.52-1.62-.54-1.61-.55-1.61-.56-1.61-.57-1.6-.59-1.6-.6-1.6-.61-1.59-.62-1.59-.64-1.59-.64-1.59-.66-1.58-.67-1.58-.69-1.57-.7-1.57-.71-1.57-.72-1.57-.73-1.56-.75-1.56-.75-1.56-.78-1.55-.78-1.55-.79-1.55-.81-1.54-.82-1.54-.83-1.54-.85-1.53-.86-1.53-.86-1.53-.89-1.52-.89-1.52-.91-1.52-.91-1.52-.94-1.51-.94-1.51-.95-1.5-.97-1.51-.98-1.5-.99-1.49-1.01-1.49-1.02-1.49-1.03-1.49-1.04-1.48-1.05-1.48-1.07-1.48-1.08-1.47-1.09-1.48-1.1-1.46-1.12-1.47-1.12-1.46-1.14-1.46-1.16-1.45-1.16-1.45-1.18-1.45-1.19-1.45-1.2-1.44-1.21-1.44-1.23-1.43-1.24-1.44" style="stroke-width:1.07;stroke:#000000;stroke-opacity:0.10;stroke-linecap:butt"/><path d="m359.92 481.35-.18-1.7-.19-1.7-.2-1.7-.21-1.7-.22-1.69-.23-1.7-.24-1.69-.24-1.68-.26-1.69-.27-1.68-.27-1.68-.29-1.68-.29-1.68-.3-1.67-.31-1.67-.32-1.67-.33-1.66-.34-1.67-.35-1.66-.36-1.66-.37-1.65-.37-1.66-.39-1.65-.4-1.65-.4-1.65-.41-1.64-.43-1.64-.43-1.64-.44-1.64-.45-1.64-.46-1.63-.47-1.63-.48-1.63-.48-1.62-.5-1.63-.51-1.62-.51-1.62-.53-1.61-.53-1.62-.54-1.61-.55-1.61-.56-1.6-.58-1.61-.58-1.6-.58-1.6-.6-1.6-.61-1.59-.62-1.6-.62-1.59-.64-1.58-.64-1.59-.66-1.58-.66-1.58-.67-1.58-.68-1.58-.69-1.57-.7-1.57-.71-1.57-.72-1.57-.73-1.56-.73-1.56-.75-1.56-.76-1.56-.76-1.55-.77-1.56-.79-1.54-.79-1.55-.8-1.55-.81-1.54-.82-1.54-.83-1.54-.84-1.53-.85-1.54-.85-1.53-.87-1.53-.88-1.52-.88-1.53-.89-1.52-.91-1.52-.91-1.51-.92-1.52-.93-1.51-.94-1.51-.95-1.51-.96-1.5-.97-1.5-.97-1.5-.99-1.5-1-1.5-1-1.49-1.02-1.49-1.02-1.49-1.03-1.48-1.04-1.49-1.05-1.48-1.06-1.48-1.07-1.47-1.08-1.48-1.09-1.47" style="stroke-width:1.07;stroke:#000000;stroke-opacity:0.10;stroke-linecap:butt"/><path d="m359.92 481.35-.33-1.66-.34-1.67-.34-1.66-.36-1.66-.35-1.66-.37-1.66-.37-1.65-.38-1.66-.38-1.65-.39-1.65-.39-1.65-.4-1.65-.41-1.64-.41-1.65-.42-1.64-.43-1.64-.43-1.64-.44-1.64-.44-1.64-.45-1.63-.46-1.64-.46-1.63-.47-1.63-.48-1.63-.48-1.63-.49-1.62-.49-1.63-.5-1.62-.5-1.62-.52-1.62-.51-1.62-.53-1.61-.53-1.62-.54-1.61-.54-1.61-.55-1.61-.55-1.61-.56-1.61-.57-1.6-.58-1.61-.58-1.6-.58-1.6-.59-1.6-.6-1.59-.61-1.6-.61-1.59-.61-1.6-.63-1.59-.62-1.59-.64-1.58-.64-1.59-.65-1.59-.65-1.58-.66-1.58-.67-1.58-.67-1.58-.68-1.57-.68-1.58-.69-1.57-.7-1.58-.7-1.57-.71-1.56-.72-1.57-.72-1.57-.73-1.56-.73-1.56-.74-1.56-.75-1.56-.75-1.56-.76-1.56-.76-1.55-.77-1.56-.78-1.55-.78-1.55-.79-1.54-.8-1.55-.8-1.55-.81-1.54-.81-1.54-.82-1.54-.83-1.54-.83-1.54-.84-1.53-.84-1.54-.85-1.53-.86-1.53-.86-1.53-.87-1.53-.88-1.52-.88-1.53-.89-1.52-.89-1.52-.9-1.52-.91-1.52-.91-1.52-.92-1.51-.92-1.52-.93-1.51-.94-1.51" style="stroke-width:1.07;stroke:#000000;stroke-opacity:0.10;stroke-linecap:butt"/><path d="m359.92 481.35-.48-1.62-.49-1.63-.49-1.63-.49-1.62-.5-1.62-.5-1.63-.5-1.62-.51-1.62-.5-1.62-.52-1.62-.51-1.62-.52-1.61-.52-1.62-.53-1.62-.52-1.61-.53-1.62-.54-1.61-.53-1.61-.54-1.62-.55-1.61-.54-1.61-.55-1.61-.55-1.61-.56-1.61-.56-1.6-.56-1.61-.56-1.61-.57-1.6-.57-1.61-.57-1.6-.58-1.6-.58-1.6-.58-1.61-.59-1.6-.59-1.6-.59-1.59-.6-1.6-.59-1.6-.6-1.6-.61-1.59-.61-1.6-.61-1.59-.61-1.59-.62-1.6-.62-1.59-.62-1.59-.63-1.59-.63-1.59-.63-1.59-.63-1.59-.64-1.58-.64-1.59-.65-1.58-.64-1.59-.65-1.58-.66-1.59-.66-1.58-.66-1.58-.66-1.58-.66-1.58-.67-1.58-.68-1.58-.67-1.57-.68-1.58-.68-1.58-.68-1.57-.69-1.58-.69-1.57-.7-1.57-.69-1.57-.7-1.58-.71-1.57-.7-1.57-.71-1.56-.71-1.57-.72-1.57-.72-1.57-.72-1.56-.72-1.57-.73-1.56-.73-1.56-.73-1.57-.74-1.56-.74-1.56-.74-1.56-.75-1.56-.75-1.56-.75-1.55-.76-1.56-.76-1.56-.76-1.55-.76-1.56-.77-1.55-.77-1.55-.77-1.56-.78-1.55-.78-1.55-.78-1.55-.79-1.55" style="stroke-width:1.07;stroke:#000000;stroke-opacity:0.10;stroke-linecap:butt"/><path d="m359.92 481.35-.63-1.59-.64-1.58-.63-1.59-.64-1.59-.63-1.59-.64-1.58-.63-1.59-.64-1.59-.63-1.59-.64-1.59-.63-1.58-.64-1.59-.63-1.59-.64-1.59-.63-1.58-.64-1.59-.63-1.59-.64-1.59-.63-1.59-.64-1.58-.63-1.59-.64-1.59-.63-1.59-.64-1.58-.64-1.59-.63-1.59-.64-1.59-.63-1.59-.64-1.58-.63-1.59-.64-1.59-.63-1.59-.64-1.58-.63-1.59-.64-1.59-.63-1.59-.64-1.59-.63-1.58-.64-1.59-.63-1.59-.64-1.59-.63-1.58-.64-1.59-.63-1.59-.64-1.59-.63-1.59-.64-1.58-.63-1.59-.64-1.59-.64-1.59-.63-1.58-.64-1.59-.63-1.59-.64-1.59-.63-1.59-.64-1.58-.63-1.59-.64-1.59-.63-1.59-.64-1.58-.63-1.59-.64-1.59-.63-1.59-.64-1.59-.63-1.58-.64-1.59-.63-1.59-.64-1.59-.63-1.58-.64-1.59-.63-1.59-.64-1.59-.63-1.59-.64-1.58-.63-1.59-.64-1.59-.64-1.59-.63-1.58-.64-1.59-.63-1.59-.64-1.59-.63-1.59-.64-1.58-.63-1.59-.64-1.59-.63-1.59-.64-1.58-.63-1.59-.64-1.59-.63-1.59-.64-1.59-.63-1.58-.64-1.59-.63-1.59-.64-1.59-.63-1.58-.64-1.59-.63-1.59-.64-1.59" style="stroke-width:1.07;stroke:#000000;stroke-opacity:0.10;stroke-linecap:butt"/><path d="m359.92 481.35-.78-1.55-.78-1.55-.78-1.55-.78-1.55-.78-1.55-.77-1.55-.76-1.56-.77-1.55-.76-1.56-.76-1.55-.75-1.56-.76-1.56-.74-1.56-.75-1.56-.74-1.56-.74-1.56-.74-1.56-.73-1.56-.73-1.56-.73-1.57-.73-1.56-.72-1.57-.72-1.57-.71-1.56-.71-1.57-.71-1.57-.71-1.57-.7-1.57-.7-1.57-.7-1.57-.69-1.58-.69-1.57-.69-1.57-.68-1.58-.69-1.57-.67-1.58-.68-1.58-.67-1.58-.67-1.58-.67-1.58-.66-1.58-.66-1.58-.66-1.58-.65-1.58-.65-1.59-.65-1.58-.64-1.59-.64-1.58-.64-1.59-.64-1.59-.63-1.59-.63-1.59-.62-1.59-.63-1.59-.62-1.59-.61-1.59-.62-1.59-.61-1.6-.61-1.59-.6-1.6-.6-1.6-.6-1.59-.59-1.6-.6-1.6-.59-1.6-.58-1.6-.58-1.6-.58-1.6-.58-1.61-.57-1.6-.58-1.6-.56-1.61-.57-1.6-.56-1.61-.56-1.61-.55-1.61-.55-1.61-.55-1.61-.55-1.61-.54-1.61-.54-1.61-.54-1.61-.53-1.62-.53-1.61-.53-1.62-.52-1.61-.52-1.62-.52-1.62-.52-1.62-.51-1.62-.51-1.62-.5-1.62-.51-1.62-.5-1.62-.49-1.63-.5-1.62-.49-1.63-.49-1.62-.48-1.63" style="stroke-width:1.07;stroke:#000000;stroke-opacity:0.10;stroke-linecap:butt"/><path d="m359.92 481.35-.93-1.51-.93-1.51-.93-1.51-.92-1.52-.91-1.52-.9-1.51-.9-1.52-.9-1.52-.89-1.53-.88-1.52-.87-1.53-.87-1.53-.87-1.53-.85-1.53-.85-1.53-.85-1.53-.84-1.54-.83-1.53-.82-1.54-.82-1.54-.82-1.55-.81-1.54-.8-1.54-.79-1.55-.79-1.55-.79-1.55-.77-1.55-.77-1.55-.77-1.56-.76-1.55-.75-1.56-.74-1.56-.74-1.56-.74-1.56-.73-1.57-.72-1.56-.71-1.57-.71-1.57-.7-1.57-.7-1.57-.69-1.58-.69-1.57-.67-1.58-.68-1.58-.66-1.58-.66-1.58-.66-1.58-.64-1.59-.64-1.58-.64-1.59-.63-1.59-.62-1.59-.62-1.59-.61-1.6-.6-1.59-.6-1.6-.59-1.6-.59-1.6-.58-1.6-.57-1.6-.57-1.61-.56-1.61-.56-1.6-.55-1.61-.54-1.62-.54-1.61-.53-1.61-.52-1.62-.52-1.62-.51-1.62-.51-1.62-.5-1.62-.49-1.62-.49-1.63-.48-1.63-.47-1.63-.47-1.63-.46-1.63-.46-1.63-.45-1.64-.45-1.63-.43-1.64-.44-1.64-.42-1.64-.42-1.65-.41-1.64-.41-1.65-.4-1.65-.4-1.65-.39-1.65-.38-1.65-.38-1.65-.37-1.66-.36-1.66-.36-1.66-.35-1.66-.35-1.66-.34-1.66-.33-1.67" style="stroke-width:1.07;stroke:#000000;stroke-opacity:0.10;stroke-linecap:butt"/><path d="m359.92 481.35-1.08-1.47-1.08-1.47-1.07-1.48-1.06-1.48-1.05-1.48-1.04-1.48-1.04-1.49-1.02-1.49-1.01-1.49-1.01-1.49-.99-1.5-.99-1.49-.98-1.5-.97-1.51-.95-1.5-.95-1.51-.94-1.51-.93-1.51-.93-1.51-.91-1.52-.9-1.52-.89-1.52-.89-1.52-.87-1.53-.87-1.53-.86-1.53-.85-1.53-.83-1.54-.83-1.54-.82-1.54-.81-1.54-.81-1.54-.79-1.55-.78-1.55-.77-1.55-.77-1.56-.75-1.55-.75-1.56-.74-1.57-.72-1.56-.72-1.57-.71-1.56-.7-1.58-.69-1.57-.68-1.58-.68-1.57-.66-1.58-.65-1.59-.65-1.58-.63-1.59-.63-1.59-.62-1.59-.6-1.6-.6-1.6-.59-1.59-.58-1.61-.57-1.6-.56-1.61-.55-1.61-.55-1.61-.53-1.61-.52-1.62-.52-1.62-.51-1.62-.49-1.62-.49-1.63-.48-1.63-.47-1.63-.46-1.63-.45-1.63-.44-1.64-.43-1.64-.42-1.64-.42-1.65-.4-1.65-.39-1.65-.39-1.65-.38-1.65-.36-1.66-.36-1.66-.35-1.66-.34-1.66-.33-1.67-.32-1.67-.31-1.67-.31-1.67-.29-1.68-.28-1.67-.28-1.68-.26-1.69-.26-1.68-.25-1.69-.24-1.69-.22-1.69-.22-1.7-.21-1.69-.21-1.7-.19-1.7-.18-1.71" style="stroke-width:1.07;stroke:#000000;stroke-opacity:0.10;stroke-linecap:butt"/><path d="m359.92 481.35-1.23-1.43-1.23-1.44-1.21-1.44-1.21-1.44-1.19-1.44-1.17-1.45-1.17-1.45-1.15-1.46-1.14-1.46-1.13-1.46-1.11-1.46-1.11-1.47-1.09-1.47-1.08-1.47-1.06-1.48-1.06-1.48-1.04-1.49-1.03-1.48-1.02-1.49-1-1.49-.99-1.5-.98-1.5-.97-1.5-.96-1.51-.94-1.51-.93-1.51-.92-1.51-.91-1.52-.89-1.52-.88-1.53-.87-1.52-.86-1.54-.84-1.53-.83-1.54-.82-1.54-.81-1.54-.8-1.55-.78-1.55-.77-1.55-.76-1.56-.74-1.56-.74-1.56-.72-1.56-.71-1.57-.7-1.57-.68-1.58-.67-1.58-.66-1.58-.65-1.58-.63-1.59-.63-1.59-.61-1.6-.6-1.59-.58-1.6-.58-1.61-.56-1.6-.55-1.61-.53-1.62-.53-1.61-.51-1.62-.5-1.63-.49-1.62-.47-1.63-.46-1.63-.45-1.64-.44-1.64-.43-1.64-.41-1.64-.4-1.65-.39-1.65-.38-1.66-.36-1.65-.35-1.66-.34-1.67-.33-1.66-.32-1.67-.3-1.68-.29-1.67-.28-1.68-.26-1.69-.26-1.68-.24-1.69-.23-1.69-.21-1.7-.21-1.7-.19-1.7-.18-1.7-.16-1.71-.16-1.71-.14-1.72-.13-1.71-.12-1.72-.11-1.73-.09-1.73-.08-1.73-.07-1.73-.05-1.74-.05-1.73-.03-1.75" style="stroke-width:1.07;stroke:#000000;stroke-opacity:0.10;stroke-linecap:butt"/><path d="m359.92 481.35-1.39-1.39-1.37-1.4-1.36-1.4-1.34-1.41-1.33-1.41-1.31-1.41-1.3-1.42-1.28-1.42-1.27-1.43-1.25-1.43-1.24-1.43-1.22-1.44-1.2-1.44-1.19-1.44-1.17-1.45-1.16-1.46-1.15-1.45-1.12-1.47-1.12-1.46-1.09-1.47-1.09-1.47-1.06-1.48-1.05-1.48-1.04-1.49-1.02-1.48-1-1.5-.99-1.49-.98-1.51-.95-1.5-.95-1.51-.93-1.51-.91-1.52-.89-1.52-.89-1.52-.86-1.53-.85-1.53-.84-1.54-.82-1.54-.8-1.54-.79-1.55-.78-1.56-.75-1.55-.75-1.56-.73-1.57-.71-1.56-.69-1.58-.69-1.57-.66-1.58-.65-1.58-.64-1.59-.62-1.59-.6-1.6-.59-1.6-.57-1.6-.56-1.61-.55-1.61-.52-1.62-.51-1.62-.5-1.62-.48-1.63-.47-1.63-.45-1.63-.43-1.64-.42-1.65-.41-1.64-.39-1.65-.37-1.66-.36-1.66-.34-1.66-.33-1.67-.31-1.67-.3-1.67-.28-1.68-.26-1.69-.25-1.68-.24-1.69-.22-1.7-.2-1.7-.19-1.7-.17-1.7-.16-1.71-.14-1.72-.13-1.72-.11-1.72-.1-1.73-.08-1.73-.06-1.73-.05-1.74-.04-1.74-.02-1.75v-1.75l.01-1.75.03-1.76.04-1.76.06-1.77.07-1.76.09-1.78.1-1.78.12-1.78" style="stroke-width:1.07;stroke:#000000;stroke-opacity:0.10;stroke-linecap:butt"/><path d="m359.92 481.35-1.54-1.35-1.52-1.36-1.5-1.37-1.49-1.37-1.46-1.37-1.45-1.38-1.43-1.38-1.41-1.39-1.4-1.4-1.37-1.39-1.36-1.41-1.33-1.4-1.32-1.42-1.3-1.41-1.28-1.43-1.27-1.42-1.24-1.43-1.23-1.44-1.21-1.44-1.19-1.44-1.17-1.46-1.15-1.45-1.13-1.46-1.12-1.46-1.1-1.47-1.08-1.48-1.06-1.48-1.04-1.48-1.02-1.49-1.01-1.49-.98-1.5-.97-1.5-.95-1.51-.93-1.51-.91-1.52-.9-1.52-.87-1.52-.86-1.53-.84-1.54-.82-1.54-.8-1.54-.78-1.55-.77-1.56-.74-1.56-.73-1.56-.71-1.57-.69-1.57-.67-1.58-.65-1.59-.64-1.58-.62-1.6-.59-1.59-.58-1.61-.57-1.6-.54-1.61-.52-1.62-.51-1.62-.49-1.63-.46-1.63-.46-1.63-.43-1.64-.41-1.65-.4-1.65-.37-1.65-.36-1.66-.34-1.66-.32-1.67-.3-1.68-.29-1.67-.26-1.69-.25-1.68-.23-1.7-.21-1.69-.19-1.7-.17-1.71-.16-1.71-.14-1.72-.11-1.72-.1-1.72-.08-1.73-.07-1.74-.04-1.74-.03-1.74v-1.75l.01-1.76.03-1.75.05-1.77.06-1.77.09-1.77.1-1.78.13-1.78.14-1.79.16-1.79.17-1.79.2-1.8.22-1.81.23-1.81.25-1.82.27-1.82" style="stroke-width:1.07;stroke:#000000;stroke-opacity:0.10;stroke-linecap:butt"/><path d="m163.53 442.46 4.84 8.39h-9.69zm258.59-278.65 3.98 6.91h-7.97zM259.33 139.2l1.91 3.31h-3.83zm263.32 132.55 1.91 3.31h-3.83zM242.23 522.24l3.99 6.9h-7.98zM114.76 201.66l3.99 6.91h-7.98zM53.35 329.33l1.92 3.32h-3.83zm463.5 76.86 1.92 3.32h-3.83z" style="stroke-width:0.71;stroke:none;fill:#00BA38"/><path d="M355.42 485.85h9.01v-9h-9.01z" style="stroke-width:0.71;stroke:none;fill:#619CFF"/><circle cx="297.04" cy="324.16" r="6.76" style="stroke-width:0.71;stroke:none;fill:#F8766D"/><path d="m158.16 452.69 4.49-3.88m264.61-285.03-4.29 3.86m-169-21.61 4.48-3.86m259.42 133.01 3.56-.91M247.6 522.21l-4.49 3.87M119.89 201.64l-4.27 3.85M58.2 330.47l-3.62.8m299.98 154.71 4.49-3.87m-56.59-162.63-4.54 3.92" style="stroke-width:0.53;stroke:#BFBFBF"/><path d="M118.6 472h55.04-.09l.35-.01.34-.07.32-.13.3-.17.27-.22.23-.26.19-.29.14-.32.08-.34.03-.35h0v-14.99h0l-.03-.34-.08-.34-.14-.32-.19-.3-.23-.26-.27-.22-.3-.17-.32-.12-.34-.07-.26-.02H118.6l.26.02-.35-.02-.34.05-.34.09-.31.15-.29.2-.25.24-.2.28-.17.31-.11.32-.05.35-.01.17v14.99l.01-.17v.35l.05.34.11.33.17.31.2.28.25.24.29.19.31.15.34.1.34.04z" style="stroke-width:0.53;fill:#FFFFFF;fill-opacity:0.50"/><text x="146.12" y="460.21" lengthAdjust="spacingAndGlyphs" style="font-size:5.69px;font-family:&quot;Liberation Sans&quot;" text-anchor="middle" textLength="33.92">WALDKIRCH</text><text x="146.12" y="468.4" lengthAdjust="spacingAndGlyphs" style="font-size:5.69px;font-family:&quot;Liberation Sans&quot;" text-anchor="middle" textLength="52.16">ENTERPRISES LLC</text><path d="M411.32 163.78h46.38l-.08-.01.34-.01.34-.07.33-.12.3-.18.27-.22.23-.26.19-.29.13-.32.09-.34.02-.34h0v-6.8h0l-.02-.35-.09-.34-.13-.32-.19-.29-.23-.26-.27-.22-.3-.17-.33-.13-.34-.07-.26-.01h-46.38l.26.01-.34-.01-.35.04-.33.1-.32.15-.28.2-.25.24-.21.27-.16.31-.11.33-.06.34-.01.18v6.8l.01-.18v.35l.06.34.11.33.16.31.21.28.25.24.28.2.32.14.33.1.35.04z" style="stroke-width:0.53;fill:#FFFFFF;fill-opacity:0.50"/><text x="434.51" y="160.18" lengthAdjust="spacingAndGlyphs" style="font-size:5.69px;font-family:&quot;Liberation Sans&quot;" text-anchor="middle" textLength="43.5">OLGA KOZLOVA</text><path d="M215.86 165.34h52.19-.09l.35-.02.34-.07.33-.12.3-.17.27-.22.23-.26.18-.3.14-.32.08-.33.03-.35h0v-14.99h0l-.03-.35-.08-.34-.14-.31-.18-.3-.23-.26-.27-.22-.3-.17-.33-.13-.34-.07-.26-.01h-52.19l.26.01-.35-.01-.34.04-.34.1-.31.15-.29.2-.25.24-.21.27-.16.31-.11.33-.05.35-.01.17v14.99l.01-.17v.34l.05.35.11.33.16.3.21.28.25.24.29.2.31.15.34.1.34.04z" style="stroke-width:0.53;fill:#FFFFFF;fill-opacity:0.50"/><text x="241.95" y="153.55" lengthAdjust="spacingAndGlyphs" style="font-size:5.69px;font-family:&quot;Liberation Sans&quot;" text-anchor="middle" textLength="49.31">WISCONSIN REAL</text><text x="241.95" y="161.74" lengthAdjust="spacingAndGlyphs" style="font-size:5.69px;font-family:&quot;Liberation Sans&quot;" text-anchor="middle" textLength="41.2">ESTATE ASSET</text><path d="M457.2 284.9h58.51-.09l.35-.02.34-.07.32-.12.3-.17.27-.22.23-.26.19-.3.13-.32.09-.34.03-.34h0v-14.99h0l-.03-.35-.09-.34-.13-.32-.19-.29-.23-.26-.27-.22-.3-.17-.32-.13-.34-.07-.26-.01H457.2l.26.01-.35-.01-.34.04-.34.1-.31.15-.29.19-.25.24-.2.28-.17.31-.11.33-.05.34-.01.18v14.99l.01-.18v.35l.05.35.11.33.17.3.2.28.25.24.29.2.31.15.34.09.34.05z" style="stroke-width:0.53;fill:#FFFFFF;fill-opacity:0.50"/><text x="486.45" y="273.1" lengthAdjust="spacingAndGlyphs" style="font-size:5.69px;font-family:&quot;Liberation Sans&quot;" text-anchor="middle" textLength="55.62">WI REAL EST ASSET</text><text x="486.45" y="281.3" lengthAdjust="spacingAndGlyphs" style="font-size:5.69px;font-family:&quot;Liberation Sans&quot;" text-anchor="middle" textLength="29.25">MGMT LLC</text><path d="M225.59 522.21h68.09l-.09-.01.35-.01.34-.07.32-.12.3-.18.27-.22.23-.26.19-.29.13-.32.09-.34.03-.34h0v-15h0l-.03-.34-.09-.34-.13-.32-.19-.29-.23-.26-.27-.22-.3-.18-.32-.12-.34-.07-.26-.02h-68.09l.26.02-.34-.01-.35.04-.33.09-.32.15-.28.2-.25.24-.21.28-.16.31-.11.33-.06.34-.01.17v15l.01-.18v.35l.06.34.11.33.16.31.21.28.25.24.28.2.32.15.33.09.35.04z" style="stroke-width:0.53;fill:#FFFFFF;fill-opacity:0.50"/><text x="259.63" y="510.41" lengthAdjust="spacingAndGlyphs" style="font-size:5.69px;font-family:&quot;Liberation Sans&quot;" text-anchor="middle" textLength="65.2">WALDKIRCH HOLDINGS</text><text x="259.63" y="518.61" lengthAdjust="spacingAndGlyphs" style="font-size:5.69px;font-family:&quot;Liberation Sans&quot;" text-anchor="middle" textLength="10.42">LLC</text><path d="M93.25 201.64h67.87-.09l.35-.01.34-.07.32-.13.3-.17.27-.22.23-.26.19-.29.14-.32.08-.34.03-.35h0v-6.8h0l-.03-.34-.08-.34-.14-.32-.19-.29-.23-.26-.27-.22-.3-.18-.32-.12-.34-.07-.26-.02H93.25l.26.02-.34-.01-.35.04-.33.1-.32.14-.28.2-.25.24-.21.28-.16.31-.11.33-.06.34-.01.17v6.8l.01-.17v.35l.06.34.11.33.16.31.21.27.25.24.28.2.32.15.33.1.35.04z" style="stroke-width:0.53;fill:#FFFFFF;fill-opacity:0.50"/><text x="127.18" y="198.04" lengthAdjust="spacingAndGlyphs" style="font-size:5.69px;font-family:&quot;Liberation Sans&quot;" text-anchor="middle" textLength="64.98">GEORGE L WALDKIRCH</text><path d="M60.36 340.09h68.09-.09l.35-.02.34-.07.32-.12.3-.18.27-.22.23-.26.19-.29.14-.32.08-.34.03-.34h0v-14.99h0l-.03-.35-.08-.34-.14-.32-.19-.29-.23-.26-.27-.22-.3-.18-.32-.12-.34-.07-.26-.01H60.36l.26.01-.34-.01-.35.04-.33.1-.32.15-.28.19-.25.24-.21.28-.16.31-.11.33-.06.34-.01.18v14.99l.01-.18v.35l.06.34.11.33.16.31.21.28.25.24.28.2.32.15.33.09.35.05z" style="stroke-width:0.53;fill:#FFFFFF;fill-opacity:0.50"/><text x="94.41" y="328.29" lengthAdjust="spacingAndGlyphs" style="font-size:5.69px;font-family:&quot;Liberation Sans&quot;" text-anchor="middle" textLength="65.2">WALDKRICH HOLDINGS</text><text x="94.41" y="336.49" lengthAdjust="spacingAndGlyphs" style="font-size:5.69px;font-family:&quot;Liberation Sans&quot;" text-anchor="middle" textLength="10.42">LLC</text><path d="M440.61 418.51h69.36-.09l.35-.01.34-.07.33-.12.3-.18.27-.22.23-.26.18-.29.14-.32.08-.34.03-.35h0v-14.99h0l-.03-.34-.08-.34-.14-.32-.18-.29-.23-.26-.27-.22-.3-.18-.33-.12-.34-.07-.26-.02h-69.36l.26.02-.35-.02-.35.05-.33.09-.31.15-.29.2-.25.24-.21.28-.16.31-.11.33-.06.34v15.16-.17.35l.06.34.11.33.16.31.21.28.25.24.29.19.31.15.33.1.35.04z" style="stroke-width:0.53;fill:#FFFFFF;fill-opacity:0.50"/><text x="475.29" y="406.72" lengthAdjust="spacingAndGlyphs" style="font-size:5.69px;font-family:&quot;Liberation Sans&quot;" text-anchor="middle" textLength="66.48">AMERICAN REALTY AND</text><text x="475.29" y="414.91" lengthAdjust="spacingAndGlyphs" style="font-size:5.69px;font-family:&quot;Liberation Sans&quot;" text-anchor="middle" textLength="31.19">PROPERTY</text><path d="M311.38 505.29h62.28-.08l.34-.01.34-.07.33-.13.3-.17.27-.22.23-.26.18-.29.14-.32.08-.34.03-.35h0v-14.99h0l-.03-.35-.08-.33-.14-.32-.18-.3-.23-.26-.27-.22-.3-.17-.33-.12-.34-.07-.26-.02h-62.28l.26.02-.35-.02-.35.05-.33.09-.31.15-.29.2-.25.24-.21.28-.16.3-.11.33-.06.35v15.16-.17.35l.06.34.11.33.16.31.21.27.25.25.29.19.31.15.33.1.35.04z" style="stroke-width:0.53;fill:#FFFFFF;fill-opacity:0.50"/><text x="342.52" y="493.5" lengthAdjust="spacingAndGlyphs" style="font-size:5.69px;font-family:&quot;Liberation Sans&quot;" text-anchor="middle" textLength="59.41">2410 BROOKSIDE DR,</text><text x="342.52" y="501.69" lengthAdjust="spacingAndGlyphs" style="font-size:5.69px;font-family:&quot;Liberation Sans&quot;" text-anchor="middle" textLength="54.34">JACKSON, WI 53037</text><path d="M283.39 319.48h62.28-.08l.34-.01.34-.07.33-.13.3-.17.27-.22.23-.26.19-.29.13-.32.09-.34.02-.35h0v-14.99h0l-.02-.34-.09-.34-.13-.32-.19-.3-.23-.26-.27-.22-.3-.17-.33-.12-.34-.07-.26-.02h-62.28l.26.02-.35-.02-.34.05-.34.09-.31.15-.29.2-.25.24-.21.28-.16.31-.11.33-.06.34v15.16-.17.35l.06.34.11.33.16.31.21.28.25.24.29.19.31.15.34.1.34.04z" style="stroke-width:0.53;fill:#FFFFFF;fill-opacity:0.50"/><text x="314.53" y="307.69" lengthAdjust="spacingAndGlyphs" style="font-size:5.69px;font-family:&quot;Liberation Sans&quot;" text-anchor="middle" textLength="59.41">2410 BROOKSIDE DR,</text><text x="314.53" y="315.88" lengthAdjust="spacingAndGlyphs" style="font-size:5.69px;font-family:&quot;Liberation Sans&quot;" text-anchor="middle" textLength="54.34">JACKSON, WI 53037</text></g><g clip-path="url(#cpMC4wMHw1NzYuMDB8MC4wMHw1NzYuMDA=)"><circle cx="192.83" cy="97.06" r="1.95" style="stroke-width:0.71;stroke:none;fill:#F8766D"/><path d="m269.23 94.02 2.63 4.56h-5.26z" style="stroke-width:0.71;stroke:none;fill:#00BA38"/><path d="M335.23 99.01h3.91V95.1h-3.91z" style="stroke-width:0.71;stroke:none;fill:#619CFF"/><text x="206.95" y="100.22" lengthAdjust="spacingAndGlyphs" style="font-size:8.80px;font-weight:0;font-family:&quot;Nimbus Sans Narrow&quot;" textLength="48.16">mprop address</text><text x="283.35" y="100.22" lengthAdjust="spacingAndGlyphs" style="font-size:8.80px;font-weight:0;font-family:&quot;Nimbus Sans Narrow&quot;" textLength="39.72">owner name</text><text x="351.31" y="100.22" lengthAdjust="spacingAndGlyphs" style="font-size:8.80px;font-weight:0;font-family:&quot;Nimbus Sans Narrow&quot;" textLength="40.5">wdfi address</text><text x="29.89" y="65.35" lengthAdjust="spacingAndGlyphs" style="font-size:12.00px;font-weight:0;font-family:&quot;Nimbus Sans Narrow&quot;" textLength="252.11">includes 13 parcels, 28 units, and 8 distinct owner names.</text><text x="29.89" y="42.81" lengthAdjust="spacingAndGlyphs" style="font-size:18.00px;font-weight:0;font-family:&quot;Nimbus Sans Narrow&quot;" textLength="305.86">WALDKIRCH ENTERPRISES LLC etc Group</text></g></g></svg>