<svg xmlns="http://www.w3.org/2000/svg" width="960" height="960" class="svglite" viewBox="0 0 720 720"><defs><style><![CDATA[.svglite line,.svglite polyline,.svglite polygon,.svglite path,.svglite circle{fill:none;stroke:#000000;stroke-linecap:round;stroke-linejoin:round;stroke-miterlimit:10.00}.svglite text{white-space:pre}]]></style></defs><rect width="100%" height="100%" style="stroke-linecap:round;stroke-linejoin:round;stroke-miterlimit:10.00;stroke:none;fill:#FFFFFF"/><defs><clipPath id="cpMC4wMHw3MjAuMDB8MC4wMHw3MjAuMDA="><path d="M0 0h720v720H0z"/></clipPath></defs><g clip-path="url(#cpMC4wMHw3MjAuMDB8MC4wMHw3MjAuMDA=)"><path d="M0 0h720v720H0z" style="stroke-width:1.07;stroke:none;fill:#FFFFFF"/></g><defs><clipPath id="cpMzIuNjN8NjkwLjExfDEyMS43OHw2ODcuMzc="><path d="M32.63 121.78h657.48v565.59H32.63z"/></clipPath></defs><g clip-path="url(#cpMzIuNjN8NjkwLjExfDEyMS43OHw2ODcuMzc=)"><path d="m351.52 472.57.03.96.03.95.03.95.04.95.04.96.04.95.04.95.05.95.05.95.04.96.05.95.06.95.05.95.06.95.06.96.06.95.06.95.06.95.07.95.07.96.07.95.07.95.08.95.07.95.08.95.08.96.08.95.09.95.08.95.09.95.09.95.09.95.1.96.09.95.1.95.1.95.1.95.11.95.1.95.11.96.11.95.11.95.11.95.12.95.12.95.12.95.12.95.12.95.13.95.12.96.13.95.13.95.14.95.13.95.14.95.14.95.14.95.14.95.15.95.15.95.14.95.16.95.15.96.15.95.16.95.16.95.16.95.16.95.17.95.16.95.17.95.17.95.18.95.17.95.18.95.18.95.18.95.18.95.18.95.19.95.19.95.19.95.19.95.19.95.2.95.2.95.2.95.2.95.2.95.21.95.21.95.21.95.21.95.21.95.22.95.22.95.22.95.22.95.22.95m-12.6-94.15-.02-.87-.01-.88-.02-.88-.01-.88-.02-.88-.02-.88-.03-.88-.02-.88-.03-.87-.02-.88-.03-.88-.04-.88-.03-.88-.04-.88-.03-.88-.04-.88-.04-.87-.05-.88-.04-.88-.05-.88-.05-.88-.05-.88-.05-.87-.05-.88-.06-.88-.05-.88-.06-.88-.06-.88-.07-.87-.06-.88-.07-.88-.07-.88-.07-.88-.07-.88-.07-.87-.08-.88-.07-.88-.08-.88-.08-.88-.09-.87-.08-.88-.09-.88-.09-.88-.09-.88-.09-.87-.09-.88-.1-.88-.09-.88-.1-.88-.1-.87-.11-.88-.1-.88-.11-.88-.11-.87-.11-.88-.11-.88-.11-.88-.12-.88-.12-.87-.11-.88-.13-.88-.12-.88-.12-.87-.13-.88-.13-.88-.13-.88-.13-.87-.13-.88-.14-.88-.13-.88-.14-.87-.14-.88-.15-.88-.14-.88-.15-.87-.15-.88-.15-.88-.15-.87-.15-.88-.16-.88-.15-.88-.16-.87-.16-.88-.17-.88-.16-.87-.17-.88-.17-.88-.17-.87-.17-.88-.17-.88-.18-.88-.17-.87-.18-.88-.18-.88-.19-.87-.18-.88-.19-.88-.19-.87-.19-.88" style="stroke-width:1.07;stroke:#000000;stroke-opacity:0.10;stroke-linecap:butt"/><path d="m619.15 613.37-2.58-.48-2.58-.47-2.57-.47-2.58-.47-2.57-.47-2.58-.47-2.58-.47-2.57-.47-2.58-.48-2.57-.47-2.58-.47-2.58-.47-2.57-.47-2.58-.47-2.57-.47-2.58-.47-2.58-.47-2.57-.48-2.58-.47-2.57-.47-2.58-.47-2.58-.47-2.57-.47-2.58-.47-2.57-.47-2.58-.48-2.58-.47-2.57-.47-2.58-.47-2.57-.47-2.58-.47-2.58-.47-2.57-.47-2.58-.48-2.57-.47-2.58-.47-2.58-.47-2.57-.47-2.58-.47-2.57-.47-2.58-.47-2.58-.47-2.57-.48-2.58-.47-2.57-.47-2.58-.47-2.58-.47-2.57-.47-2.58-.47-2.57-.47-2.58-.48-2.58-.47-2.57-.47-2.58-.47-2.57-.47-2.58-.47-2.58-.47-2.57-.47-2.58-.48-2.57-.47-2.58-.47-2.57-.47-2.58-.47-2.58-.47-2.57-.47-2.58-.47-2.57-.47-2.58-.48-2.58-.47-2.57-.47-2.58-.47-2.57-.47-2.58-.47-2.58-.47-2.57-.47-2.58-.48-2.57-.47-2.58-.47-2.58-.47-2.57-.47-2.58-.47-2.57-.47-2.58-.47-2.58-.47-2.57-.48-2.58-.47-2.57-.47-2.58-.47-2.58-.47-2.57-.47-2.58-.47-2.57-.47-2.58-.48-2.58-.47-2.57-.47-2.58-.47-2.57-.47-2.58-.47-2.58-.47" style="stroke-width:1.07;stroke:#000000;stroke-opacity:0.10;stroke-linecap:butt"/><path d="m351.52 472.57.22.95.22.95.22.95.22.95.22.95.21.95.21.95.21.95.21.95.21.95.2.95.2.95.2.95.2.95.2.95.19.95.19.95.19.95.19.95.19.95.18.95.18.95.18.95.18.95.18.95.17.95.18.95.17.95.17.95.16.95.17.95.16.95.16.96.16.95.16.95.15.95.16.95.15.95.15.95.14.95.15.95.14.95.14.95.14.95.14.95.13.95.14.95.13.96.13.95.12.95.13.95.12.95.12.95.12.95.12.95.12.95.11.95.11.96.11.95.11.95.11.95.1.95.1.95.1.95.1.95.09.96.1.95.09.95.09.95.09.95.08.95.09.95.08.96.08.95.08.95.07.95.08.95.07.95.07.96.07.95.07.95.06.95.06.95.06.96.06.95.06.95.05.95.06.95.05.96.04.95.05.95.05.95.04.95.04.96.04.95.04.95.03.95.03.95.03.96m-12.6-94.15-.19-.87-.19-.88-.19-.88-.18-.87-.19-.88-.18-.88-.18-.87-.17-.88-.18-.88-.17-.87-.17-.88-.17-.88-.17-.87-.17-.88-.16-.88-.16-.88-.17-.87-.15-.88-.16-.88-.16-.87-.15-.88-.15-.88-.15-.88-.15-.87-.15-.88-.14-.88-.14-.88-.15-.87-.13-.88-.14-.88-.14-.87-.13-.88-.13-.88-.13-.88-.13-.87-.13-.88-.12-.88-.12-.88-.13-.87-.11-.88-.12-.88-.12-.88-.11-.88-.11-.87-.11-.88-.11-.88-.11-.88-.1-.87-.1-.88-.11-.88-.09-.88-.1-.88-.1-.87-.09-.88-.09-.88-.09-.88-.09-.87-.09-.88-.08-.88-.08-.88-.09-.88-.07-.88-.08-.87-.08-.88-.07-.88-.07-.88-.07-.88-.07-.87-.07-.88-.06-.88-.06-.88-.07-.88-.06-.88-.05-.87-.06-.88-.05-.88-.05-.88-.05-.88-.05-.88-.05-.87-.04-.88-.05-.88-.04-.88-.04-.88-.03-.88-.04-.88-.03-.87-.03-.88-.03-.88-.03-.88-.03-.88-.02-.88-.03-.88-.02-.88-.02-.87-.01-.88-.02-.88-.01-.88-.02-.88" style="stroke-width:1.07;stroke:#000000;stroke-opacity:0.10;stroke-linecap:butt"/><path d="m474.65 633.33-.85-.72-.84-.72-.86-.71-.86-.72-.87-.72-.87-.72-.87-.71-.89-.71-.88-.72-.9-.71-.9-.71-.9-.71-.91-.71-.92-.71-.92-.71-.93-.7-.93-.71-.94-.7-.94-.7-.95-.71-.96-.7-.96-.7-.96-.7-.97-.7-.98-.69-.98-.7-.99-.69-1-.7-.99-.69-1.01-.7-1.01-.69-1.02-.69-1.02-.69-1.03-.69-1.03-.68-1.04-.69-1.04-.69-1.05-.68-1.06-.68-1.06-.69-1.06-.68-1.07-.68-1.08-.68-1.08-.68-1.09-.68-1.1-.67-1.1-.68-1.1-.67-1.11-.68-1.12-.67-1.12-.67-1.13-.67-1.13-.67-1.14-.67-1.15-.67-1.14-.67-1.16-.66-1.16-.67-1.17-.66-1.17-.66-1.18-.67-1.18-.66-1.19-.66-1.19-.66-1.2-.66-1.21-.65-1.21-.66-1.22-.65-1.22-.66-1.23-.65-1.23-.65-1.24-.66-1.24-.65-1.25-.65-1.26-.64-1.26-.65-1.27-.65-1.27-.64-1.28-.65-1.28-.64-1.29-.64-1.3-.65-1.3-.64-1.3-.64-1.31-.63-1.32-.64-1.32-.64-1.33-.63-1.33-.64-1.34-.63-1.35-.64-1.35-.63-1.35-.63-1.37-.63-1.36-.63-1.37-.63-1.38-.62-1.39-.63-1.39-.62m110.53 66.61-2.06-.05-2.05-.06-2.05-.05-2.05-.06-2.06-.05-2.05-.04-2.05-.05-2.05-.05-2.05-.04-2.05-.04-2.05-.04-2.05-.04-2.05-.04-2.05-.03-2.05-.03-2.05-.03-2.05-.03-2.05-.03-2.05-.03-2.05-.02-2.05-.02-2.04-.02-2.05-.02-2.05-.02-2.05-.01-2.04-.02-2.05-.01-2.05-.01h-2.04l-2.05-.01h-2.05l-2.04-.01h-2.05l-2.04.01h-4.09l-2.05.01-2.04.01-2.04.01-2.05.01-2.04.01-2.04.02-2.05.02-2.04.02-2.04.02-2.04.02-2.04.02-2.05.03-2.04.03-2.04.03-2.04.03-2.04.03-2.04.04-2.04.04-2.04.04-2.04.04-2.04.04-2.04.04-2.04.05-2.04.05-2.03.05-2.04.05-2.04.05-2.04.06-2.03.05-2.04.06-2.04.06-2.03.06-2.04.07-2.04.06-2.03.07-2.04.07-2.03.07-2.04.07-2.03.08-2.04.08-2.03.07-2.04.08-2.03.09-2.03.08-2.04.08-2.03.09-2.03.09-2.04.09-2.03.09-2.03.1-2.03.09-2.03.1-2.04.1-2.03.1-2.03.11-2.03.1-2.03.11-2.03.11-2.03.11-2.03.11-2.03.11-2.03.12-2.03.12" style="stroke-width:1.07;stroke:#000000;stroke-opacity:0.10;stroke-linecap:butt"/><path d="m474.65 633.33-.98-.69-.98-.7-.99-.69-.99-.7-.99-.69-.99-.7-1-.69-1-.7-1-.69-1.01-.69-1-.69-1.02-.7-1.01-.69-1.01-.69-1.02-.69-1.03-.69-1.02-.69-1.03-.68-1.03-.69-1.03-.69-1.04-.69-1.03-.68-1.05-.69-1.04-.69-1.05-.68-1.05-.69-1.05-.68-1.05-.68-1.06-.69-1.06-.68-1.07-.68-1.06-.68-1.07-.68-1.07-.68-1.08-.68-1.07-.68-1.08-.68-1.09-.68-1.08-.68-1.09-.68-1.09-.68-1.1-.67-1.09-.68-1.1-.68-1.11-.67-1.1-.68-1.11-.67-1.11-.67-1.11-.68-1.12-.67-1.12-.67-1.12-.67-1.13-.68-1.12-.67-1.13-.67-1.14-.67-1.13-.67-1.14-.67-1.14-.66-1.15-.67-1.15-.67-1.14-.67-1.16-.66-1.15-.67-1.16-.66-1.16-.67-1.17-.66-1.16-.67-1.17-.66-1.17-.67-1.18-.66-1.18-.66-1.18-.66-1.18-.66-1.19-.66-1.18-.66-1.2-.66-1.19-.66-1.2-.66-1.2-.66-1.2-.66-1.21-.65-1.2-.66-1.22-.66-1.21-.65-1.22-.66-1.22-.65-1.22-.66-1.22-.65-1.23-.65-1.23-.66-1.23-.65-1.24-.65-1.24-.65-1.24-.65-1.25-.65-1.24-.65-1.25-.65-1.26-.65m110.53 66.61-2.05-.01-2.05-.01-2.04-.01-2.05-.02-2.05-.01-2.04-.01h-2.05l-2.05-.01-2.04-.01h-2.05l-2.04-.01h-2.05l-2.04-.01h-12.28l-2.04.01h-2.05l-2.04.01h-2.04l-2.05.01-2.04.01h-2.05l-2.04.01-2.04.01-2.05.01-2.04.02-2.05.01-2.04.01-2.04.02-2.04.01-2.05.02-2.04.02-2.04.02-2.05.02-2.04.02-2.04.02-2.04.02-2.04.02-2.05.02-2.04.03-2.04.02-2.04.03-2.04.03-2.04.03-2.05.03-2.04.03-2.04.03-2.04.03-2.04.03-2.04.03-2.04.04-2.04.03-2.04.04-2.04.04-2.04.03-2.04.04-2.04.04-2.04.04-2.04.05-2.04.04-2.04.04-2.04.05-2.04.04-2.03.05-2.04.04-2.04.05-2.04.05-2.04.05-2.04.05-2.03.05-2.04.05-2.04.06-2.04.05-2.04.06-2.03.05-2.04.06-2.04.06-2.03.05-2.04.06-2.04.06-2.04.07-2.03.06-2.04.06-2.03.07-2.04.06-2.04.07-2.03.06-2.04.07-2.03.07-2.04.07-2.04.07-2.03.07-2.04.07-2.03.07-2.04.08" style="stroke-width:1.07;stroke:#000000;stroke-opacity:0.10;stroke-linecap:butt"/><path d="m574.2 534.78-2.12.32-2.12.32-2.12.32-2.12.33-2.13.32-2.12.32-2.12.33-2.12.32-2.12.32-2.13.32-2.12.33-2.12.32-2.12.32-2.12.32-2.13.33-2.12.32-2.12.32-2.12.32-2.12.33-2.13.32-2.12.32-2.12.32-2.12.33-2.12.32-2.13.32-2.12.33-2.12.32-2.12.32-2.12.32-2.13.33-2.12.32-2.12.32-2.12.32-2.12.33-2.13.32-2.12.32-2.12.32-2.12.33-2.12.32-2.13.32-2.12.32-2.12.33-2.12.32-2.12.32-2.13.33-2.12.32-2.12.32-2.12.32-2.12.33-2.13.32-2.12.32-2.12.32-2.12.33-2.12.32-2.13.32-2.12.32-2.12.33-2.12.32-2.12.32-2.13.32-2.12.33-2.12.32-2.12.32-2.12.33-2.13.32-2.12.32-2.12.32-2.12.33-2.13.32-2.12.32-2.12.32-2.12.33-2.12.32-2.13.32-2.12.32-2.12.33-2.12.32-2.12.32-2.13.32-2.12.33-2.12.32-2.12.32-2.12.33-2.13.32-2.12.32-2.12.32-2.12.33-2.12.32-2.13.32-2.12.32-2.12.33-2.12.32-2.12.32-2.13.32-2.12.33-2.12.32-2.12.32-2.12.32-2.13.33m83.38-341.67-1.2.73-1.2.74-1.19.73-1.2.73-1.2.74-1.2.73-1.2.73-1.2.74-1.19.73-1.2.73-1.2.74-1.2.73-1.2.73-1.2.74-1.19.73-1.2.73-1.2.74-1.2.73-1.2.73-1.2.74-1.19.73-1.2.73-1.2.74-1.2.73-1.2.73-1.19.74-1.2.73-1.2.73-1.2.73-1.2.74-1.2.73-1.19.73-1.2.74-1.2.73-1.2.73-1.2.74-1.2.73-1.19.73-1.2.74-1.2.73-1.2.73-1.2.74-1.2.73-1.19.73-1.2.74-1.2.73-1.2.73-1.2.74-1.19.73-1.2.73-1.2.74-1.2.73-1.2.73-1.2.74-1.19.73-1.2.73-1.2.74-1.2.73-1.2.73-1.2.73-1.19.74-1.2.73-1.2.73-1.2.74-1.2.73-1.2.73-1.19.74-1.2.73-1.2.73-1.2.74-1.2.73-1.2.73-1.19.74-1.2.73-1.2.73-1.2.74-1.2.73-1.19.73-1.2.74-1.2.73-1.2.73-1.2.74-1.2.73-1.19.73-1.2.74-1.2.73-1.2.73-1.2.73-1.2.74-1.19.73-1.2.73-1.2.74-1.2.73-1.2.73-1.2.74-1.19.73-1.2.73-1.2.74-1.2.73" style="stroke-width:1.07;stroke:#000000;stroke-opacity:0.10;stroke-linecap:butt"/><path d="m474.65 633.33-1.12-.67-1.11-.67-1.12-.67-1.12-.68-1.11-.67-1.12-.67-1.12-.68-1.11-.67-1.12-.67-1.12-.67-1.11-.68-1.12-.67-1.12-.67-1.11-.68-1.12-.67-1.11-.67-1.12-.67-1.12-.68-1.11-.67-1.12-.67-1.12-.68-1.11-.67-1.12-.67-1.12-.67-1.11-.68-1.12-.67-1.11-.67-1.12-.68-1.12-.67-1.11-.67-1.12-.68-1.12-.67-1.11-.67-1.12-.67-1.12-.68-1.11-.67-1.12-.67-1.12-.68-1.11-.67-1.12-.67-1.11-.67-1.12-.68-1.12-.67-1.11-.67-1.12-.68-1.12-.67-1.11-.67-1.12-.67-1.12-.68-1.11-.67-1.12-.67-1.11-.68-1.12-.67-1.12-.67-1.11-.68-1.12-.67-1.12-.67-1.11-.67-1.12-.68-1.12-.67-1.11-.67-1.12-.68-1.12-.67-1.11-.67-1.12-.67-1.11-.68-1.12-.67-1.12-.67-1.11-.68-1.12-.67-1.12-.67-1.11-.67-1.12-.68-1.12-.67-1.11-.67-1.12-.68-1.12-.67-1.11-.67-1.12-.67-1.11-.68-1.12-.67-1.12-.67-1.11-.68-1.12-.67-1.12-.67-1.11-.68-1.12-.67-1.12-.67-1.11-.67-1.12-.68-1.11-.67-1.12-.67-1.12-.68-1.11-.67-1.12-.67-1.12-.67-1.11-.68-1.12-.67-1.12-.67m110.53 66.61-2.04.03-2.04.03-2.05.03-2.04.03-2.04.03-2.04.03-2.04.03-2.04.03-2.04.03-2.04.03-2.04.03-2.04.03-2.05.03-2.04.03-2.04.03-2.04.03-2.04.03-2.04.03-2.04.03-2.04.03-2.04.03-2.05.03-2.04.03-2.04.03-2.04.03-2.04.03-2.04.03-2.04.03-2.04.03-2.04.03-2.04.03-2.05.03-2.04.03-2.04.03-2.04.03-2.04.03-2.04.03-2.04.03-2.04.03-2.04.03-2.05.03-2.04.03-2.04.03-2.04.03-2.04.03-2.04.03-2.04.03-2.04.03-2.04.03-2.04.03-2.05.03-2.04.03-2.04.03-2.04.03-2.04.03-2.04.03-2.04.03-2.04.03-2.04.03-2.05.03-2.04.03-2.04.03-2.04.03-2.04.03-2.04.03-2.04.03-2.04.03-2.04.03-2.04.03-2.05.03-2.04.03-2.04.03-2.04.03-2.04.03-2.04.03-2.04.03-2.04.03-2.04.03-2.05.03-2.04.03-2.04.03-2.04.03-2.04.03-2.04.03-2.04.03-2.04.03-2.04.03-2.04.03-2.05.03-2.04.03-2.04.03-2.04.03-2.04.03-2.04.03-2.04.03-2.04.03-2.04.03-2.05.03-2.04.03" style="stroke-width:1.07;stroke:#000000;stroke-opacity:0.10;stroke-linecap:butt"/><path d="m474.65 633.33-1.25-.64-1.25-.65-1.25-.65-1.25-.65-1.24-.65-1.24-.66-1.23-.65-1.24-.65-1.23-.65-1.23-.66-1.22-.65-1.22-.65-1.22-.66-1.22-.65-1.21-.66-1.21-.66-1.21-.65-1.21-.66-1.2-.66-1.2-.66-1.2-.66-1.19-.65-1.19-.66-1.19-.66-1.19-.67-1.18-.66-1.18-.66-1.18-.66-1.17-.66-1.18-.67-1.17-.66-1.16-.66-1.17-.67-1.16-.66-1.16-.67-1.15-.66-1.15-.67-1.15-.67-1.15-.67-1.14-.66-1.15-.67-1.13-.67-1.14-.67-1.13-.67-1.13-.67-1.13-.67-1.13-.67-1.12-.68-1.12-.67-1.11-.67-1.12-.67-1.11-.68-1.11-.67-1.1-.68-1.1-.67-1.1-.68-1.1-.68-1.09-.67-1.1-.68-1.08-.68-1.09-.68-1.08-.67-1.08-.68-1.08-.68-1.08-.68-1.07-.68-1.07-.69-1.06-.68-1.07-.68-1.06-.68-1.05-.69-1.06-.68-1.05-.68-1.05-.69-1.05-.68-1.04-.69-1.04-.68-1.04-.69-1.04-.69-1.03-.69-1.03-.68-1.03-.69-1.02-.69-1.02-.69-1.02-.69-1.02-.69-1.01-.69-1.01-.69-1.01-.7-1.01-.69-1-.69-1-.7-.99-.69-1-.69-.99-.7-.99-.69-.98-.7-.99-.7-.98-.69m110.53 66.61-2.04.08-2.03.07-2.04.07-2.03.07-2.04.07-2.03.07-2.04.07-2.04.07-2.03.07-2.04.06-2.03.07-2.04.06-2.04.06-2.03.07-2.04.06-2.04.06-2.03.06-2.04.06-2.04.05-2.04.06-2.03.06-2.04.05-2.04.05-2.04.06-2.03.05-2.04.05-2.04.05-2.04.05-2.04.05-2.04.05-2.03.05-2.04.04-2.04.05-2.04.04-2.04.04-2.04.05-2.04.04-2.04.04-2.04.04-2.04.04-2.04.04-2.04.03-2.04.04-2.04.03-2.04.04-2.04.03-2.04.03-2.04.04-2.04.03-2.04.03-2.04.03-2.05.02-2.04.03-2.04.03-2.04.02-2.04.03-2.04.02-2.05.02-2.04.03-2.04.02-2.04.02-2.05.02-2.04.01-2.04.02-2.04.02-2.05.01-2.04.02-2.04.01-2.05.02-2.04.01-2.04.01-2.05.01-2.04.01-2.05.01h-2.04l-2.04.01-2.05.01h-2.04l-2.05.01h-16.36l-2.04-.01h-2.05l-2.05-.01-2.04-.01h-2.05l-2.05-.01-2.04-.01-2.05-.01-2.05-.01-2.04-.02-2.05-.01-2.05-.01m-55.25-416.97 1.13.79 1.12.79 1.13.79 1.13.79 1.12.79 1.13.79 1.13.79 1.12.8 1.13.79 1.13.79 1.12.79 1.13.79 1.13.79 1.12.79 1.13.79 1.13.79 1.12.8 1.13.79 1.13.79 1.12.79 1.13.79 1.13.79 1.12.79 1.13.79 1.13.79 1.12.79 1.13.8 1.13.79 1.12.79 1.13.79 1.13.79 1.12.79 1.13.79 1.13.79 1.12.79 1.13.79 1.13.8 1.12.79 1.13.79 1.13.79 1.12.79 1.13.79 1.13.79 1.12.79 1.13.79 1.13.8 1.12.79 1.13.79 1.13.79 1.12.79 1.13.79 1.13.79 1.12.79 1.13.79 1.13.79 1.12.8 1.13.79 1.13.79 1.12.79 1.13.79 1.13.79 1.12.79 1.13.79 1.13.79 1.12.8 1.13.79 1.13.79 1.12.79 1.13.79 1.13.79 1.12.79 1.13.79 1.13.79 1.12.79 1.13.8 1.13.79 1.12.79 1.13.79 1.13.79 1.12.79 1.13.79 1.13.79 1.12.79 1.13.79 1.13.8 1.12.79 1.13.79 1.13.79 1.12.79 1.13.79 1.13.79 1.12.79 1.13.79 1.13.8 1.12.79 1.13.79 1.13.79 1.12.79 1.13.79m-111.54-78.31-1.18-.73-1.18-.72-1.18-.73-1.18-.72-1.18-.73-1.18-.73-1.18-.72-1.18-.73-1.18-.72-1.18-.73-1.18-.72-1.18-.73-1.18-.73-1.18-.72-1.18-.73-1.18-.72-1.18-.73-1.18-.72-1.18-.73-1.18-.72-1.18-.73-1.18-.73-1.18-.72-1.18-.73-1.18-.72-1.18-.73-1.18-.72-1.18-.73-1.18-.72-1.18-.73-1.18-.73-1.18-.72-1.18-.73-1.18-.72-1.18-.73-1.18-.72-1.18-.73-1.18-.73-1.18-.72-1.18-.73-1.18-.72-1.18-.73-1.18-.72-1.18-.73-1.18-.72-1.18-.73-1.18-.73-1.18-.72-1.18-.73-1.18-.72-1.18-.73-1.18-.72-1.18-.73-1.18-.72-1.18-.73-1.18-.73-1.18-.72-1.18-.73-1.18-.72-1.18-.73-1.18-.72-1.18-.73-1.18-.73-1.18-.72-1.18-.73-1.18-.72-1.18-.73-1.18-.72-1.18-.73-1.18-.72-1.18-.73-1.18-.73-1.18-.72-1.18-.73-1.18-.72-1.18-.73-1.18-.72-1.18-.73-1.18-.73-1.18-.72-1.18-.73-1.18-.72-1.18-.73-1.18-.72-1.18-.73-1.19-.72-1.18-.73-1.18-.73-1.18-.72-1.18-.73-1.18-.72-1.18-.73-1.18-.72-1.18-.73-1.18-.72-1.18-.73-1.18-.73-1.18-.72-1.18-.73M591.66 255.9l-2.65.42-2.66.42-2.65.43-2.66.42-2.65.42-2.65.42-2.66.42-2.65.42-2.66.43-2.65.42-2.66.42-2.65.42-2.66.42-2.65.42-2.65.43-2.66.42-2.65.42-2.66.42-2.65.42-2.66.42-2.65.43-2.66.42-2.65.42-2.65.42-2.66.42-2.65.42-2.66.42-2.65.43-2.66.42-2.65.42-2.66.42-2.65.42-2.65.42-2.66.43-2.65.42-2.66.42-2.65.42-2.66.42-2.65.42-2.66.43-2.65.42-2.65.42-2.66.42-2.65.42-2.66.42-2.65.43-2.66.42-2.65.42-2.66.42-2.65.42-2.65.42-2.66.42-2.65.43-2.66.42-2.65.42-2.66.42-2.65.42-2.66.42-2.65.43-2.65.42-2.66.42-2.65.42-2.66.42-2.65.42-2.66.43-2.65.42-2.66.42-2.65.42-2.65.42-2.66.42-2.65.43-2.66.42-2.65.42-2.66.42-2.65.42-2.66.42-2.65.42-2.66.43-2.65.42-2.65.42-2.66.42-2.65.42-2.66.42-2.65.43-2.66.42-2.65.42-2.66.42-2.65.42-2.65.42-2.66.43-2.65.42-2.66.42-2.65.42-2.66.42-2.65.42-2.66.43-2.65.42-2.65.42-2.66.42" style="stroke-width:1.07;stroke:#000000;stroke-opacity:0.10;stroke-linecap:butt"/><path d="m570.61 344.22-2.44-.47-2.45-.47-2.44-.47-2.44-.47-2.44-.48-2.44-.47-2.44-.47-2.45-.47-2.44-.47-2.44-.47-2.44-.47-2.44-.47-2.45-.47-2.44-.47-2.44-.47-2.44-.47-2.44-.47-2.44-.47-2.45-.47-2.44-.47-2.44-.47-2.44-.47-2.44-.47-2.44-.47-2.45-.47-2.44-.48-2.44-.47-2.44-.47-2.44-.47-2.45-.47-2.44-.47-2.44-.47-2.44-.47-2.44-.47-2.44-.47-2.45-.47-2.44-.47-2.44-.47-2.44-.47-2.44-.47-2.45-.47-2.44-.47-2.44-.47-2.44-.47-2.44-.47-2.44-.47-2.45-.48-2.44-.47-2.44-.47-2.44-.47-2.44-.47-2.44-.47-2.45-.47-2.44-.47-2.44-.47-2.44-.47-2.44-.47-2.45-.47-2.44-.47-2.44-.47-2.44-.47-2.44-.47-2.44-.47-2.45-.47-2.44-.47-2.44-.47-2.44-.47-2.44-.48-2.45-.47-2.44-.47-2.44-.47-2.44-.47-2.44-.47-2.44-.47-2.45-.47-2.44-.47-2.44-.47-2.44-.47-2.44-.47-2.44-.47-2.45-.47-2.44-.47-2.44-.47-2.44-.47-2.44-.47-2.45-.47-2.44-.47-2.44-.47-2.44-.47-2.44-.48-2.44-.47-2.45-.47-2.44-.47-2.44-.47-2.44-.47-2.44-.47-2.45-.47-2.44-.47-2.44-.47m241.74 46.58-2.32.42-2.31.41-2.31.42-2.32.42-2.31.42-2.32.42-2.31.42-2.31.42-2.32.42-2.31.41-2.32.42-2.31.42-2.31.42-2.32.42-2.31.42-2.32.42-2.31.42-2.31.41-2.32.42-2.31.42-2.32.42-2.31.42-2.31.42-2.32.42-2.31.42-2.32.41-2.31.42-2.31.42-2.32.42-2.31.42-2.32.42-2.31.42-2.31.41-2.32.42-2.31.42-2.31.42-2.32.42-2.31.42-2.32.42-2.31.42-2.31.41-2.32.42-2.31.42-2.32.42-2.31.42-2.31.42-2.32.42-2.31.42-2.32.41-2.31.42-2.31.42-2.32.42-2.31.42-2.32.42-2.31.42-2.31.42-2.32.41-2.31.42-2.32.42-2.31.42-2.31.42-2.32.42-2.31.42-2.32.41-2.31.42-2.31.42-2.32.42-2.31.42-2.32.42-2.31.42-2.31.42-2.32.41-2.31.42-2.32.42-2.31.42-2.31.42-2.32.42-2.31.42-2.32.42-2.31.41-2.31.42-2.32.42-2.31.42-2.32.42-2.31.42-2.31.42-2.32.42-2.31.41-2.32.42-2.31.42-2.31.42-2.32.42-2.31.42-2.32.42-2.31.41-2.31.42-2.32.42-2.31.42-2.32.42M62.51 267.63l2.69.31 2.69.3 2.69.3 2.7.31 2.69.3 2.69.3 2.69.3 2.69.31 2.69.3 2.69.3 2.69.31 2.69.3 2.69.3 2.69.31 2.69.3 2.69.3 2.69.31 2.69.3 2.69.3 2.69.3 2.69.31 2.69.3 2.69.3 2.69.31 2.7.3 2.69.3 2.69.31 2.69.3 2.69.3 2.69.31 2.69.3 2.69.3 2.69.31 2.69.3 2.69.3 2.69.3 2.69.31 2.69.3 2.69.3 2.69.31 2.69.3 2.69.3 2.69.31 2.69.3 2.7.3 2.69.31 2.69.3 2.69.3 2.69.31 2.69.3 2.69.3 2.69.3 2.69.31 2.69.3 2.69.3 2.69.31 2.69.3 2.69.3 2.69.31 2.69.3 2.69.3 2.69.31 2.69.3 2.69.3 2.69.3 2.7.31 2.69.3 2.69.3 2.69.31 2.69.3 2.69.3 2.69.31 2.69.3 2.69.3 2.69.31 2.69.3 2.69.3 2.69.31 2.69.3 2.69.3 2.69.3 2.69.31 2.69.3 2.69.3 2.69.31 2.7.3 2.69.3 2.69.31 2.69.3 2.69.3 2.69.31 2.69.3 2.69.3 2.69.3 2.69.31 2.69.3 2.69.3 2.69.31 2.69.3" style="stroke-width:1.07;stroke:#000000;stroke-opacity:0.10;stroke-linecap:butt"/><path d="m480.72 338.21-1.53-.41-1.54-.41-1.53-.41-1.54-.41-1.53-.41-1.53-.4-1.54-.41-1.53-.41-1.54-.41-1.53-.41-1.53-.41-1.54-.41-1.53-.41-1.53-.41-1.54-.41-1.53-.41-1.54-.41-1.53-.41-1.53-.41-1.54-.41-1.53-.41-1.53-.41-1.54-.41-1.53-.41-1.54-.41-1.53-.41-1.53-.41-1.54-.41-1.53-.41-1.54-.41-1.53-.41-1.53-.41-1.54-.41-1.53-.41-1.53-.41-1.54-.41-1.53-.41-1.54-.41-1.53-.41-1.53-.41-1.54-.41-1.53-.41-1.53-.41-1.54-.41-1.53-.41-1.54-.41-1.53-.41-1.53-.41-1.54-.41-1.53-.41-1.54-.41-1.53-.41-1.53-.41-1.54-.41-1.53-.41-1.53-.41-1.54-.41-1.53-.41-1.54-.41-1.53-.41-1.53-.41-1.54-.41-1.53-.41-1.54-.41-1.53-.41-1.53-.41-1.54-.4-1.53-.41-1.53-.41-1.54-.41-1.53-.41-1.54-.41-1.53-.41-1.53-.41-1.54-.41-1.53-.41-1.53-.41-1.54-.41-1.53-.41-1.54-.41-1.53-.41-1.53-.41-1.54-.41-1.53-.41-1.54-.41-1.53-.41-1.53-.41-1.54-.41-1.53-.41-1.53-.41-1.54-.41-1.53-.41-1.54-.41-1.53-.41-1.53-.41-1.54-.41-1.53-.41-1.53-.41-1.54-.41m151.85 40.57-1.41.48-1.4.48-1.41.48-1.4.48-1.41.48-1.41.48-1.4.48-1.41.48-1.4.48-1.41.48-1.41.48-1.4.48-1.41.48-1.4.47-1.41.48-1.41.48-1.4.48-1.41.48-1.4.48-1.41.48-1.41.48-1.4.48-1.41.48-1.4.48-1.41.48-1.41.48-1.4.48-1.41.48-1.4.48-1.41.47-1.41.48-1.4.48-1.41.48-1.4.48-1.41.48-1.41.48-1.4.48-1.41.48-1.4.48-1.41.48-1.41.48-1.4.48-1.41.48-1.4.48-1.41.47-1.41.48-1.4.48-1.41.48-1.4.48-1.41.48-1.41.48-1.4.48-1.41.48-1.41.48-1.4.48-1.41.48-1.4.48-1.41.48-1.41.48-1.4.48-1.41.47-1.4.48-1.41.48-1.41.48-1.4.48-1.41.48-1.4.48-1.41.48-1.41.48-1.4.48-1.41.48-1.4.48-1.41.48-1.41.48-1.4.48-1.41.47-1.4.48-1.41.48-1.41.48-1.4.48-1.41.48-1.4.48-1.41.48-1.41.48-1.4.48-1.41.48-1.4.48-1.41.48-1.41.48-1.4.48-1.41.47-1.4.48-1.41.48-1.41.48-1.4.48-1.41.48-1.4.48-1.41.48-1.41.48M189.6 342.68l1.41-.45 1.41-.46 1.4-.45 1.41-.46 1.41-.45 1.4-.46 1.41-.45 1.41-.46 1.4-.45 1.41-.46 1.41-.45 1.41-.46 1.4-.45 1.41-.46 1.41-.45 1.4-.46 1.41-.45 1.41-.46 1.4-.45 1.41-.46 1.41-.45 1.4-.46 1.41-.45 1.41-.46 1.4-.45 1.41-.46 1.41-.45 1.4-.46 1.41-.45 1.41-.46 1.4-.45 1.41-.46 1.41-.45 1.4-.46 1.41-.45 1.41-.46 1.4-.45 1.41-.46 1.41-.45 1.4-.46 1.41-.45 1.41-.46 1.4-.45 1.41-.46 1.41-.45 1.4-.46 1.41-.45 1.41-.46 1.4-.45 1.41-.46 1.41-.45 1.4-.46 1.41-.45 1.41-.46 1.4-.45 1.41-.46 1.41-.45 1.41-.46 1.4-.45 1.41-.46 1.41-.45 1.4-.46 1.41-.45 1.41-.46 1.4-.45 1.41-.46 1.41-.45 1.4-.46 1.41-.45 1.41-.46 1.4-.45 1.41-.46 1.41-.45 1.4-.46 1.41-.45 1.41-.46 1.4-.45 1.41-.46 1.41-.45 1.4-.46 1.41-.45 1.41-.46 1.4-.45 1.41-.46 1.41-.45 1.4-.46 1.41-.45 1.41-.46 1.4-.45 1.41-.46 1.41-.45 1.4-.46 1.41-.45 1.41-.45 1.4-.46 1.41-.45 1.41-.46 1.4-.45 1.41-.46M189.6 342.68l1.54.44 1.53.43 1.54.43 1.53.44 1.54.43 1.53.44 1.54.43 1.53.44 1.54.43 1.53.43 1.53.44 1.54.43 1.53.44 1.54.43 1.53.43 1.54.44 1.53.43 1.54.44 1.53.43 1.54.44 1.53.43 1.53.43 1.54.44 1.53.43 1.54.44 1.53.43 1.54.44 1.53.43 1.54.43 1.53.44 1.54.43 1.53.44 1.53.43 1.54.43 1.53.44 1.54.43 1.53.44 1.54.43 1.53.44 1.54.43 1.53.43 1.54.44 1.53.43 1.53.44 1.54.43 1.53.44 1.54.43 1.53.43 1.54.44 1.53.43 1.54.44 1.53.43 1.54.44 1.53.43 1.53.43 1.54.44 1.53.43 1.54.44 1.53.43 1.54.43 1.53.44 1.54.43 1.53.44 1.54.43 1.53.44 1.53.43 1.54.43 1.53.44 1.54.43 1.53.44 1.54.43 1.53.44 1.54.43 1.53.43 1.54.44 1.53.43 1.53.44 1.54.43 1.53.44 1.54.43 1.53.43 1.54.44 1.53.43 1.54.44 1.53.43 1.54.43 1.53.44 1.53.43 1.54.44 1.53.43 1.54.44 1.53.43 1.54.43 1.53.44 1.54.43 1.53.44 1.54.43 1.53.44 1.53.43m-239.75-32.91 2.3-.56 2.29-.56 2.29-.55 2.3-.56 2.29-.56 2.3-.55 2.29-.56 2.29-.56 2.3-.55 2.29-.56 2.3-.56 2.29-.55 2.29-.56 2.3-.56 2.29-.55 2.29-.56 2.3-.56 2.29-.55 2.3-.56 2.29-.56 2.29-.55 2.3-.56 2.29-.56 2.3-.55 2.29-.56 2.29-.56 2.3-.55 2.29-.56 2.3-.56 2.29-.55 2.29-.56 2.3-.56 2.29-.55 2.3-.56 2.29-.56 2.29-.55 2.3-.56 2.29-.56 2.3-.55 2.29-.56 2.29-.56 2.3-.56 2.29-.55 2.3-.56 2.29-.56 2.29-.55 2.3-.56 2.29-.56 2.29-.55 2.3-.56 2.29-.56 2.3-.55 2.29-.56 2.29-.56 2.3-.55 2.29-.56 2.3-.56 2.29-.55 2.29-.56 2.3-.56 2.29-.55 2.3-.56 2.29-.56 2.29-.55 2.3-.56 2.29-.56 2.3-.55 2.29-.56 2.29-.56 2.3-.55 2.29-.56 2.3-.56 2.29-.55 2.29-.56 2.3-.56 2.29-.55 2.29-.56 2.3-.56 2.29-.55 2.3-.56 2.29-.56 2.29-.56 2.3-.55 2.29-.56 2.3-.56 2.29-.55 2.29-.56 2.3-.56 2.29-.55 2.3-.56 2.29-.56 2.29-.55 2.3-.56 2.29-.56 2.3-.55 2.29-.56 2.29-.56 2.3-.55 2.29-.56" style="stroke-width:1.07;stroke:#000000;stroke-opacity:0.10;stroke-linecap:butt"/><path d="m101.77 352.76 2.42.33 2.43.33 2.42.34 2.42.33 2.42.33 2.42.33 2.42.34 2.43.33 2.42.33 2.42.33 2.42.34 2.42.33 2.42.33 2.43.33 2.42.33 2.42.34 2.42.33 2.42.33 2.43.33 2.42.34 2.42.33 2.42.33 2.42.33 2.42.34 2.43.33 2.42.33 2.42.33 2.42.34 2.42.33 2.42.33 2.43.33 2.42.34 2.42.33 2.42.33 2.42.33 2.42.34 2.43.33 2.42.33 2.42.33 2.42.34 2.42.33 2.43.33 2.42.33 2.42.34 2.42.33 2.42.33 2.42.33 2.43.34 2.42.33 2.42.33 2.42.33 2.42.34 2.42.33 2.43.33 2.42.33 2.42.33 2.42.34 2.42.33 2.42.33 2.43.33 2.42.34 2.42.33 2.42.33 2.42.33 2.43.34 2.42.33 2.42.33 2.42.33 2.42.34 2.42.33 2.43.33 2.42.33 2.42.34 2.42.33 2.42.33 2.42.33 2.43.34 2.42.33 2.42.33 2.42.33 2.42.34 2.43.33 2.42.33 2.42.33 2.42.34 2.42.33 2.42.33 2.43.33 2.42.34 2.42.33 2.42.33 2.42.33 2.42.34 2.43.33 2.42.33 2.42.33 2.42.33 2.42.34 2.42.33M69.73 576.95l2.98-.1 2.97-.1 2.97-.11 2.98-.1 2.97-.1 2.98-.11 2.97-.1 2.97-.1 2.98-.11 2.97-.1 2.97-.1 2.98-.11 2.97-.1 2.97-.1 2.98-.11 2.97-.1 2.98-.1 2.97-.11 2.97-.1 2.98-.1 2.97-.11 2.97-.1 2.98-.11 2.97-.1 2.97-.1 2.98-.11 2.97-.1 2.98-.1 2.97-.11 2.97-.1 2.98-.1 2.97-.11 2.97-.1 2.98-.1 2.97-.11 2.97-.1 2.98-.1 2.97-.11 2.98-.1 2.97-.1 2.97-.11 2.98-.1 2.97-.1 2.97-.11 2.98-.1 2.97-.1 2.97-.11 2.98-.1 2.97-.1 2.98-.11 2.97-.1 2.97-.1 2.98-.11 2.97-.1 2.97-.1 2.98-.11 2.97-.1 2.97-.1 2.98-.11 2.97-.1 2.98-.1 2.97-.11 2.97-.1 2.98-.1 2.97-.11 2.97-.1 2.98-.1 2.97-.11 2.97-.1 2.98-.1 2.97-.11 2.98-.1 2.97-.1 2.97-.11 2.98-.1 2.97-.1 2.97-.11 2.98-.1 2.97-.11 2.97-.1 2.98-.1 2.97-.11 2.98-.1 2.97-.1 2.97-.11 2.98-.1 2.97-.1 2.97-.11 2.98-.1 2.97-.1 2.97-.11 2.98-.1 2.97-.1 2.98-.11 2.97-.1 2.97-.1 2.98-.11 2.97-.1 2.97-.1" style="stroke-width:1.07;stroke:#000000;stroke-opacity:0.10;stroke-linecap:butt"/><path d="m146.25 541.2 2.17.28 2.18.28 2.17.28 2.18.28 2.17.28 2.18.28 2.18.28 2.18.27 2.18.28 2.18.28 2.18.28 2.18.27 2.18.28 2.18.27 2.18.28 2.18.27 2.19.28 2.18.27 2.19.27 2.18.27 2.19.28 2.18.27 2.19.27 2.19.27 2.18.27 2.19.27 2.19.27 2.19.26 2.19.27 2.19.27 2.19.27 2.19.26 2.19.27 2.19.26 2.2.27 2.19.26 2.19.27 2.2.26 2.19.26 2.2.27 2.19.26 2.2.26 2.2.26 2.2.26 2.19.26 2.2.26 2.2.26 2.2.26 2.2.26 2.2.26 2.2.25 2.21.26 2.2.26 2.2.25 2.2.26 2.21.25 2.2.26 2.21.25 2.2.26 2.21.25 2.21.25 2.2.25 2.21.25 2.21.25 2.21.26 2.21.25 2.21.25 2.21.24 2.21.25 2.21.25 2.21.25 2.21.25 2.22.24 2.21.25 2.22.24 2.21.25 2.21.24 2.22.25 2.22.24 2.21.25 2.22.24 2.22.24 2.22.24 2.22.24 2.22.25 2.22.24 2.22.24 2.22.23 2.22.24 2.22.24 2.22.24 2.23.24 2.22.23 2.22.24 2.23.24 2.22.23 2.23.24 2.23.23 2.22.24" style="stroke-width:1.07;stroke:#000000;stroke-opacity:0.10;stroke-linecap:butt"/><path d="m146.25 541.2 2.22.23 2.23.24 2.23.23 2.22.24 2.23.23 2.22.24 2.22.24 2.23.23 2.22.24 2.22.24 2.22.24 2.22.24 2.22.24 2.22.24 2.22.24 2.22.24 2.22.24 2.22.25 2.22.24 2.21.24 2.22.25 2.22.24 2.21.24 2.22.25 2.21.25 2.21.24 2.22.25 2.21.25 2.21.24 2.21.25 2.21.25 2.21.25 2.21.25 2.21.25 2.21.25 2.21.25 2.21.25 2.2.25 2.21.26 2.21.25 2.2.25 2.21.26 2.2.25 2.21.26 2.2.25 2.2.26 2.21.25 2.2.26 2.2.26 2.2.26 2.2.25 2.2.26 2.2.26 2.2.26 2.19.26 2.2.26 2.2.26 2.2.26 2.19.27 2.2.26 2.19.26 2.2.27 2.19.26 2.19.26 2.2.27 2.19.27 2.19.26 2.19.27 2.19.26 2.19.27 2.19.27 2.19.27 2.19.27 2.19.27 2.19.27 2.18.27 2.19.27 2.18.27 2.19.27 2.18.27 2.19.28 2.18.27 2.19.27 2.18.28 2.18.27 2.18.28 2.18.27 2.18.28 2.18.27 2.18.28 2.18.28 2.18.28 2.18.28 2.18.27 2.17.28 2.18.28 2.17.28 2.18.29 2.17.28m296.11 1.37-2.99-.02-3-.01-2.99-.01-2.99-.02-2.99-.01-2.99-.02-2.99-.01-2.99-.01-2.99-.02-2.99-.01-2.99-.02-2.99-.01-3-.01-2.99-.02-2.99-.01-2.99-.01-2.99-.02-2.99-.01-2.99-.02-2.99-.01-2.99-.01-2.99-.02-3-.01-2.99-.02-2.99-.01-2.99-.01-2.99-.02-2.99-.01-2.99-.01-2.99-.02-2.99-.01-2.99-.02-2.99-.01-3-.01-2.99-.02-2.99-.01-2.99-.02-2.99-.01-2.99-.01-2.99-.02-2.99-.01-2.99-.01-2.99-.02-2.99-.01-3-.02-2.99-.01-2.99-.01-2.99-.02-2.99-.01-2.99-.02-2.99-.01-2.99-.01-2.99-.02-2.99-.01-2.99-.01-3-.02-2.99-.01-2.99-.02-2.99-.01-2.99-.01-2.99-.02-2.99-.01-2.99-.01-2.99-.02-2.99-.01-3-.02-2.99-.01-2.99-.01-2.99-.02-2.99-.01-2.99-.02-2.99-.01-2.99-.01-2.99-.02-2.99-.01-2.99-.01-3-.02-2.99-.01-2.99-.02-2.99-.01-2.99-.01-2.99-.02-2.99-.01-2.99-.02-2.99-.01-2.99-.01-2.99-.02-3-.01-2.99-.01-2.99-.02-2.99-.01-2.99-.02-2.99-.01-2.99-.01-2.99-.02-2.99-.01-2.99-.02-3-.01-2.99-.01" style="stroke-width:1.07;stroke:#000000;stroke-opacity:0.10;stroke-linecap:butt"/><path d="m377.2 661.66-.13-.96-.13-.95-.13-.96-.14-.96-.13-.96-.13-.96-.13-.96-.13-.96-.14-.96-.13-.96-.13-.96-.13-.95-.13-.96-.14-.96-.13-.96-.13-.96-.13-.96-.13-.96-.14-.96-.13-.96-.13-.96-.13-.96-.14-.95-.13-.96-.13-.96-.13-.96-.13-.96-.14-.96-.13-.96-.13-.96-.13-.96-.13-.96-.14-.96-.13-.95-.13-.96-.13-.96-.14-.96-.13-.96-.13-.96-.13-.96-.13-.96-.14-.96-.13-.96-.13-.95-.13-.96-.13-.96-.14-.96-.13-.96-.13-.96-.13-.96-.13-.96-.14-.96-.13-.96-.13-.96-.13-.95-.14-.96-.13-.96-.13-.96-.13-.96-.13-.96-.14-.96-.13-.96-.13-.96-.13-.96-.13-.95-.14-.96-.13-.96-.13-.96-.13-.96-.13-.96-.14-.96-.13-.96-.13-.96-.13-.96-.14-.96-.13-.95-.13-.96-.13-.96-.13-.96-.14-.96-.13-.96-.13-.96-.13-.96-.13-.96-.14-.96-.13-.96-.13-.95-.13-.96-.13-.96-.14-.96-.13-.96-.13-.96-.13-.96-.14-.96-.13-.96-.13-.96-.13-.95-.13-.96-.14-.96m-241.11 54.13 2.44-.55 2.43-.54 2.44-.55 2.44-.55 2.43-.54 2.44-.55 2.43-.55 2.44-.54 2.43-.55 2.44-.55 2.43-.54 2.44-.55 2.43-.55 2.44-.54 2.44-.55 2.43-.55 2.44-.54 2.43-.55 2.44-.55 2.43-.55 2.44-.54 2.43-.55 2.44-.55 2.43-.54 2.44-.55 2.44-.55 2.43-.54 2.44-.55 2.43-.55 2.44-.54 2.43-.55 2.44-.55 2.43-.54 2.44-.55 2.43-.55 2.44-.54 2.44-.55 2.43-.55 2.44-.54 2.43-.55 2.44-.55 2.43-.54 2.44-.55 2.43-.55 2.44-.55 2.43-.54 2.44-.55 2.44-.55 2.43-.54 2.44-.55 2.43-.55 2.44-.54 2.43-.55 2.44-.55 2.43-.54 2.44-.55 2.43-.55 2.44-.54 2.44-.55 2.43-.55 2.44-.54 2.43-.55 2.44-.55 2.43-.54 2.44-.55 2.43-.55 2.44-.55 2.43-.54 2.44-.55 2.44-.55 2.43-.54 2.44-.55 2.43-.55 2.44-.54 2.43-.55 2.44-.55 2.43-.54 2.44-.55 2.43-.55 2.44-.54 2.44-.55 2.43-.55 2.44-.54 2.43-.55 2.44-.55 2.43-.54 2.44-.55 2.43-.55 2.44-.54 2.43-.55 2.44-.55 2.44-.55 2.43-.54 2.44-.55 2.43-.55 2.44-.54 2.43-.55 2.44-.55 2.43-.54" style="stroke-width:1.07;stroke:#000000;stroke-opacity:0.10;stroke-linecap:butt"/><path d="m474.65 633.33-1.39-.62-1.39-.63-1.37-.62-1.38-.63-1.36-.63-1.36-.63-1.36-.63-1.35-.63-1.35-.64-1.33-.63-1.34-.63-1.33-.64-1.32-.64-1.32-.63-1.31-.64-1.3-.64-1.3-.64-1.3-.64-1.29-.65-1.28-.64-1.28-.64-1.27-.65-1.27-.65-1.26-.64-1.25-.65-1.25-.65-1.25-.65-1.24-.65-1.23-.66-1.23-.65-1.22-.65-1.22-.66-1.21-.66-1.2-.65-1.2-.66-1.2-.66-1.19-.66-1.18-.66-1.18-.66-1.17-.67-1.17-.66-1.16-.67-1.15-.66-1.15-.67-1.15-.67-1.14-.67-1.13-.67-1.13-.67-1.12-.67-1.11-.67-1.12-.68-1.1-.67-1.1-.68-1.09-.67-1.09-.68-1.09-.68-1.07-.68-1.08-.68-1.06-.68-1.06-.68-1.06-.69-1.05-.68-1.04-.69-1.04-.69-1.03-.68-1.03-.69-1.02-.69-1.02-.69-1.01-.69-1-.7-1-.69-1-.69-.98-.7-.99-.7-.97-.69-.98-.7-.96-.7-.96-.7-.96-.7-.95-.7-.94-.71-.94-.7-.93-.71-.93-.7-.92-.71-.92-.71-.91-.71-.9-.71-.9-.71-.89-.71-.89-.71-.88-.72-.88-.71-.87-.72-.87-.72-.86-.71-.85-.72-.85-.72-.85-.72m110.53 66.61-2.03.12-2.03.12-2.03.11-2.03.11-2.03.11-2.03.11-2.03.11-2.03.11-2.03.1-2.03.1-2.03.1-2.04.1-2.03.09-2.03.1-2.03.09-2.03.09-2.04.09-2.03.09-2.03.08-2.04.09-2.03.08-2.04.08-2.03.08-2.03.07-2.04.08-2.03.07-2.04.07-2.04.07-2.03.07-2.04.06-2.03.07-2.04.06-2.04.06-2.03.06-2.04.06-2.04.05-2.04.05-2.04.06-2.03.05-2.04.04-2.04.05-2.04.04-2.04.05-2.04.04-2.04.04-2.04.03-2.04.04-2.04.03-2.04.03-2.04.03-2.04.03-2.04.03-2.05.02-2.04.02-2.04.03-2.04.01-2.05.02-2.04.02-2.04.01-2.05.01-2.04.01-2.04.01-2.05.01h-2.04l-2.05.01h-6.13l-2.05-.01h-2.04l-2.05-.01-2.05-.01-2.04-.01-2.05-.02-2.05-.01-2.05-.02-2.04-.02-2.05-.02-2.05-.02-2.05-.02-2.05-.03-2.05-.02-2.05-.03-2.04-.03-2.05-.04-2.05-.03-2.05-.04-2.06-.04-2.05-.04-2.05-.04-2.05-.04-2.05-.05-2.05-.04-2.05-.05-2.06-.05-2.05-.05-2.05-.06-2.05-.06-2.06-.05m0 0 1.93-.57 1.9-.56 1.88-.57 1.86-.58 1.84-.57 1.82-.58 1.8-.58 1.78-.58 1.76-.59 1.74-.59 1.72-.59 1.7-.6 1.68-.59 1.65-.6 1.64-.61 1.62-.6 1.59-.61 1.58-.62 1.56-.61 1.53-.62 1.52-.62 1.49-.62 1.48-.63 1.45-.63 1.43-.63 1.42-.63 1.39-.64 1.37-.64 1.35-.65 1.34-.64 1.31-.65 1.29-.65 1.27-.66 1.25-.65 1.23-.66 1.21-.67 1.19-.66 1.17-.67 1.15-.67 1.12-.68 1.11-.68 1.09-.68 1.07-.68 1.04-.68 1.03-.69 1.01-.69.98-.7.97-.7.94-.7.93-.7.9-.7.89-.71.86-.71.84-.72.82-.72.81-.72.78-.72.76-.72.74-.73.72-.73.7-.74.68-.73.66-.74.64-.75.62-.74.6-.75.58-.75.56-.76.54-.75.51-.76.5-.76.48-.77.45-.77.44-.77.42-.77.39-.78.38-.78.35-.78.34-.79.31-.78.29-.79.28-.8.25-.79.23-.8.21-.81.19-.8.18-.81.15-.81.13-.81.11-.82.09-.82.07-.82.05-.82.03-.83v-.83l-.01-.84-.03-.83-.05-.84-.08-.84" style="stroke-width:1.07;stroke:#000000;stroke-opacity:0.10;stroke-linecap:butt"/><path d="m272.58 636.3 1.78-.59 1.77-.58 1.74-.59 1.73-.59 1.71-.6 1.69-.59 1.68-.6 1.65-.6 1.64-.6 1.63-.61 1.6-.61 1.59-.61 1.57-.61 1.55-.62 1.54-.61 1.52-.62 1.5-.63 1.48-.62 1.46-.63 1.45-.63 1.43-.63 1.42-.64 1.39-.63 1.38-.64 1.36-.64 1.35-.65 1.32-.65 1.31-.64 1.29-.66 1.28-.65 1.25-.66 1.24-.66 1.22-.66 1.21-.66 1.18-.67 1.17-.67 1.15-.67 1.14-.67 1.11-.68 1.1-.68 1.08-.68 1.07-.68 1.05-.69 1.02-.68 1.02-.7.99-.69.98-.69.96-.7.94-.7.92-.71.91-.7.89-.71.87-.71.86-.71.84-.72.82-.71.8-.72.78-.73.77-.72.75-.73.73-.73.72-.73.7-.73.68-.74.66-.74.65-.74.62-.75.61-.74.6-.75.57-.75.56-.76.54-.75.52-.76.51-.76.49-.77.47-.76.45-.77.44-.77.42-.78.4-.77.38-.78.37-.78.35-.78.33-.79.31-.79.3-.79.28-.79.26-.79.24-.8.23-.8.21-.81.19-.8.18-.81.15-.81.14-.81.12-.81.11-.82.08-.82.07-.82" style="stroke-width:1.07;stroke:#000000;stroke-opacity:0.10;stroke-linecap:butt"/><path d="m272.58 636.3 1.64-.61 1.62-.6 1.61-.61 1.6-.61 1.57-.61 1.57-.61 1.55-.62 1.53-.62 1.53-.62 1.5-.62 1.49-.62 1.48-.63 1.46-.63 1.45-.63 1.44-.63 1.41-.63 1.41-.64 1.39-.64 1.37-.64 1.37-.64 1.34-.64 1.33-.65 1.32-.65 1.3-.65 1.29-.65 1.28-.65 1.25-.66 1.25-.66 1.23-.66 1.21-.66 1.21-.66 1.18-.67 1.17-.67 1.16-.67 1.14-.67 1.13-.68 1.12-.67 1.1-.68 1.08-.68 1.07-.68 1.06-.69 1.04-.69 1.02-.68 1.01-.7 1-.69.99-.69.96-.7.96-.7.94-.7.92-.7.91-.71.9-.7.88-.71.86-.71.86-.72.83-.71.83-.72.8-.72.8-.72.78-.72.76-.73.75-.72.74-.73.72-.73.71-.74.69-.73.68-.74.66-.74.65-.74.63-.74.62-.75.6-.75.59-.75.58-.75.56-.75.55-.76.53-.75.52-.76.5-.77.49-.76.47-.76.46-.77.45-.77.43-.77.41-.78.4-.77.39-.78.37-.78.36-.78.34-.79.33-.78.31-.79.3-.79.29-.79.27-.8.25-.79.25-.8.22-.8.21-.8" style="stroke-width:1.07;stroke:#000000;stroke-opacity:0.10;stroke-linecap:butt"/><path d="m272.58 636.3 1.5-.63 1.48-.62 1.47-.63 1.46-.63 1.45-.63 1.44-.63 1.42-.63 1.42-.64 1.4-.63 1.39-.64 1.38-.64 1.36-.64 1.36-.64 1.34-.65 1.33-.64 1.32-.65 1.31-.65 1.3-.65 1.28-.65 1.28-.66 1.26-.65 1.25-.66 1.24-.66 1.23-.66 1.21-.66 1.21-.67 1.19-.66 1.18-.67 1.17-.67 1.15-.67 1.15-.67 1.13-.68 1.13-.67 1.11-.68 1.1-.68 1.08-.68 1.08-.68 1.06-.68 1.06-.69 1.04-.68 1.03-.69 1.02-.69 1-.69 1-.7.98-.69.97-.7.96-.69.95-.7.93-.71.93-.7.91-.7.9-.71.89-.71.88-.71.87-.71.85-.71.84-.71.84-.72.82-.72.8-.72.8-.72.79-.72.77-.72.76-.73.75-.73.74-.72.73-.73.71-.74.71-.73.69-.74.68-.73.67-.74.65-.74.65-.74.63-.75.63-.74.61-.75.59-.75.59-.75.58-.75.56-.75.55-.75.54-.76.53-.76.52-.76.51-.76.49-.76.48-.77.47-.76.46-.77.45-.77.44-.77.42-.77.41-.78.41-.77.39-.78.37-.78.37-.78.35-.78" style="stroke-width:1.07;stroke:#000000;stroke-opacity:0.10;stroke-linecap:butt"/><path d="m272.58 636.3 1.36-.65 1.34-.64 1.33-.65 1.33-.64 1.32-.65 1.31-.65 1.3-.65 1.29-.65 1.28-.66 1.27-.65 1.27-.66 1.25-.65 1.25-.66 1.24-.66 1.23-.66 1.22-.66 1.21-.66 1.21-.67 1.19-.66 1.19-.67 1.18-.67 1.17-.67 1.16-.67 1.15-.67 1.14-.67 1.14-.67 1.12-.68 1.12-.67 1.1-.68 1.1-.68 1.09-.68 1.09-.68 1.07-.68 1.06-.69 1.06-.68 1.05-.69 1.03-.68 1.03-.69 1.02-.69 1.02-.69 1-.69.99-.7.99-.69.98-.7.96-.69.96-.7.95-.7.95-.7.93-.7.93-.7.91-.71.91-.7.9-.71.89-.71.88-.71.87-.71.86-.71.86-.71.84-.72.84-.71.83-.72.82-.71.81-.72.8-.72.8-.72.78-.73.78-.72.77-.72.76-.73.75-.73.74-.73.73-.72.72-.74.72-.73.71-.73.69-.74.69-.73.68-.74.67-.74.67-.74.65-.74.65-.74.63-.74.63-.74.62-.75.61-.75.6-.74.6-.75.58-.75.58-.76.56-.75.56-.75.55-.76.54-.75.53-.76.53-.76.51-.76.51-.76.49-.76" style="stroke-width:1.07;stroke:#000000;stroke-opacity:0.10;stroke-linecap:butt"/><path d="m272.58 636.3 1.21-.67 1.21-.66 1.2-.66 1.19-.67 1.18-.67 1.18-.66 1.18-.67 1.17-.67 1.16-.67 1.16-.67 1.15-.67 1.15-.67 1.14-.68 1.13-.67 1.13-.67 1.12-.68 1.12-.68 1.11-.67 1.1-.68 1.1-.68 1.1-.68 1.08-.68 1.08-.68 1.08-.68 1.07-.68 1.06-.69 1.06-.68 1.06-.69 1.04-.68 1.04-.69 1.04-.69 1.03-.68 1.02-.69 1.02-.69 1.01-.69 1.01-.7 1-.69.99-.69.99-.69.98-.7.98-.7.97-.69.97-.7.96-.7.95-.7.95-.69.94-.71.94-.7.93-.7.92-.7.92-.7.91-.71.91-.7.9-.71.9-.71.89-.71.88-.7.88-.71.87-.71.87-.71.86-.72.85-.71.85-.71.85-.72.83-.71.84-.72.82-.71.82-.72.82-.72.8-.72.81-.72.79-.72.79-.72.79-.72.78-.73.77-.72.77-.72.76-.73.76-.73.75-.72.74-.73.74-.73.73-.73.73-.73.72-.73.72-.73.7-.74.71-.73.7-.73.69-.74.68-.74.68-.73.68-.74.67-.74.66-.74.66-.74.65-.74.64-.74.64-.74" style="stroke-width:1.07;stroke:#000000;stroke-opacity:0.10;stroke-linecap:butt"/><path d="m272.58 636.3 1.07-.69 1.06-.68 1.07-.68 1.05-.69 1.06-.68 1.05-.69 1.05-.68 1.05-.69 1.04-.68 1.04-.69 1.04-.69 1.04-.69 1.03-.68 1.03-.69 1.03-.69 1.02-.69 1.02-.69 1.02-.69 1.01-.69 1.01-.69 1.01-.69 1.01-.69 1-.69 1-.7 1-.69.99-.69 1-.7.98-.69.99-.69.98-.7.98-.69.98-.7.97-.69.98-.7.96-.7.97-.7.96-.69.96-.7.96-.7.95-.7.95-.7.95-.7.95-.7.94-.7.94-.7.93-.7.94-.7.93-.7.92-.7.93-.71.92-.7.92-.7.92-.71.91-.7.91-.71.91-.7.9-.71.9-.71.9-.7.9-.71.89-.71.89-.7.88-.71.89-.71.88-.71.88-.71.87-.71.88-.71.86-.71.87-.71.86-.71.87-.71.85-.71.86-.72.85-.71.85-.71.85-.72.84-.71.84-.72.84-.71.83-.72.83-.71.83-.72.83-.72.82-.71.82-.72.82-.72.81-.72.81-.71.81-.72.81-.72.8-.72.8-.72.79-.72.8-.72.79-.73.79-.72.78-.72.78-.72" style="stroke-width:1.07;stroke:#000000;stroke-opacity:0.10;stroke-linecap:butt"/><path d="m272.58 636.3.93-.71.92-.7.93-.7.92-.7.93-.71.92-.7.93-.7.92-.71.93-.7.92-.7.92-.7.93-.71.92-.7.93-.7.92-.71.93-.7.92-.7.93-.7.92-.71.93-.7.92-.7.93-.71.92-.7.93-.7.92-.7.92-.71.93-.7.92-.7.93-.7.92-.71.93-.7.92-.7.93-.71.92-.7.93-.7.92-.7.93-.71.92-.7.92-.7.93-.71.92-.7.93-.7.92-.7.93-.71.92-.7.93-.7.92-.71.93-.7.92-.7.93-.7.92-.71.93-.7.92-.7.92-.71.93-.7.92-.7.93-.7.92-.71.93-.7.92-.7.93-.71.92-.7.93-.7.92-.7.93-.71.92-.7.93-.7.92-.71.92-.7.93-.7.92-.7.93-.71.92-.7.93-.7.92-.71.93-.7.92-.7.93-.7.92-.71.93-.7.92-.7.92-.7.93-.71.92-.7.93-.7.92-.71.93-.7.92-.7.93-.7.92-.71.93-.7.92-.7.93-.71.92-.7.93-.7.92-.7.92-.71.93-.7.92-.7" style="stroke-width:1.07;stroke:#000000;stroke-opacity:0.10;stroke-linecap:butt"/><path d="m272.58 636.3.79-.73.78-.72.79-.72.79-.72.79-.72.8-.72.8-.72.8-.72.81-.72.81-.72.81-.72.81-.72.82-.72.82-.71.82-.72.83-.72.83-.71.83-.72.83-.71.84-.72.84-.71.84-.72.85-.71.85-.72.85-.71.85-.71.86-.71.86-.71.87-.72.86-.71.87-.71.87-.71.88-.71.88-.71.88-.71.88-.7.89-.71.89-.71.89-.71.9-.7.9-.71.9-.71.9-.7.91-.71.91-.7.91-.71.92-.7.92-.7.92-.71.92-.7.93-.7.93-.71.93-.7.94-.7.94-.7.94-.7.95-.7.95-.7.95-.7.95-.7.96-.7.96-.69.96-.7.96-.7.97-.69.97-.7.98-.7.97-.69.98-.7.99-.69.98-.7.99-.69.99-.69 1-.7.99-.69 1-.69 1.01-.69 1-.7 1.01-.69 1.02-.69 1.01-.69 1.02-.69 1.02-.69 1.02-.69 1.03-.68 1.03-.69 1.03-.69 1.04-.69 1.03-.68 1.04-.69 1.05-.69 1.04-.68 1.05-.69 1.06-.68 1.05-.69 1.06-.68 1.06-.69 1.07-.68 1.06-.68" style="stroke-width:1.07;stroke:#000000;stroke-opacity:0.10;stroke-linecap:butt"/><path d="m272.58 636.3.64-.75.65-.74.65-.74.66-.74.66-.74.67-.74.67-.73.68-.74.69-.74.69-.73.7-.74.7-.73.71-.73.72-.73.72-.74.73-.73.73-.73.74-.72.74-.73.75-.73.76-.73.76-.72.77-.73.77-.72.78-.72.78-.73.79-.72.8-.72.8-.72.81-.72.82-.71.82-.72.82-.72.83-.71.84-.72.84-.71.85-.72.86-.71.86-.71.87-.71.87-.71.88-.71.88-.71.89-.71.9-.7.9-.71.9-.71.92-.7.92-.7.92-.71.93-.7.94-.7.94-.7.95-.7.95-.7.96-.7.97-.69.97-.7.97-.7.99-.69.99-.69.99-.7 1-.69 1.01-.69 1.01-.69 1.02-.69 1.02-.69 1.03-.69 1.03-.69 1.04-.68 1.05-.69 1.05-.68 1.06-.69 1.07-.68 1.07-.68 1.07-.69 1.08-.68 1.09-.68 1.1-.68 1.09-.68 1.11-.67 1.11-.68 1.12-.68 1.12-.67 1.13-.68 1.13-.67 1.14-.67 1.15-.67 1.15-.68 1.16-.67 1.16-.67 1.17-.66 1.17-.67 1.18-.67 1.19-.67 1.19-.66 1.2-.67 1.2-.66 1.21-.66" style="stroke-width:1.07;stroke:#000000;stroke-opacity:0.10;stroke-linecap:butt"/><path d="m272.58 636.3.5-.77.51-.76.51-.76.52-.76.54-.75.54-.76.55-.75.55-.76.57-.75.58-.75.58-.75.59-.75.61-.75.61-.75.62-.74.62-.75.64-.74.65-.74.65-.74.66-.74.67-.74.69-.73.68-.74.7-.73.71-.74.71-.73.73-.73.73-.73.74-.73.75-.73.76-.72.77-.73.77-.72.79-.72.79-.72.81-.72.81-.72.82-.72.83-.72.83-.71.85-.71.85-.72.87-.71.87-.71.88-.71.89-.71.9-.7.91-.71.91-.7.93-.7.93-.71.94-.7.95-.69.96-.7.97-.7.98-.7.98-.69 1-.69 1-.69 1.01-.7 1.02-.68 1.03-.69 1.04-.69 1.05-.69 1.05-.68 1.07-.68 1.07-.69 1.08-.68 1.09-.68 1.1-.67 1.11-.68 1.12-.68 1.12-.67 1.14-.68 1.14-.67 1.15-.67 1.16-.67 1.17-.67 1.18-.67 1.18-.66 1.2-.67 1.2-.66 1.22-.66 1.22-.67 1.23-.66 1.24-.66 1.24-.65 1.26-.66 1.26-.66 1.28-.65 1.28-.65 1.29-.65 1.3-.66 1.31-.64 1.32-.65 1.32-.65 1.34-.65 1.34-.64 1.35-.64" style="stroke-width:1.07;stroke:#000000;stroke-opacity:0.10;stroke-linecap:butt"/><path d="m272.58 636.3.36-.79.36-.78.38-.77.39-.78.4-.78.42-.77.42-.77.44-.78.44-.76.46-.77.47-.77.49-.76.49-.77.51-.76.51-.76.53-.75.54-.76.56-.76.56-.75.58-.75.58-.75.6-.75.61-.74.62-.75.64-.74.64-.74.66-.74.67-.74.68-.74.69-.74.71-.73.71-.73.73-.73.74-.73.75-.73.76-.72.77-.73.79-.72.79-.72.81-.72.82-.72.83-.71.85-.72.85-.71.87-.71.88-.71.89-.71.9-.7.91-.71.92-.7.94-.7.95-.7.96-.7.97-.7.98-.69 1-.69 1-.69 1.02-.69 1.03-.69 1.04-.69 1.05-.68 1.07-.69 1.07-.68 1.09-.68 1.1-.68 1.11-.67 1.12-.68 1.14-.67 1.14-.68 1.16-.67 1.17-.67 1.18-.66 1.19-.67 1.21-.66 1.21-.66 1.23-.66 1.24-.66 1.25-.66 1.26-.66 1.27-.65 1.29-.65 1.3-.65 1.3-.65 1.32-.65 1.34-.65 1.34-.64 1.36-.65 1.36-.64 1.38-.64 1.39-.63 1.4-.64 1.42-.64 1.42-.63 1.44-.63 1.44-.63 1.46-.63 1.48-.62 1.48-.63 1.49-.62" style="stroke-width:1.07;stroke:#000000;stroke-opacity:0.10;stroke-linecap:butt"/><path d="m272.58 636.3.22-.8.22-.81.24-.79.26-.8.27-.79.28-.8.3-.79.32-.78.33-.79.34-.78.36-.78.37-.78.38-.78.41-.78.41-.77.43-.77.45-.77.46-.77.47-.77.49-.76.5-.76.52-.76.53-.76.55-.75.56-.76.57-.75.59-.75.61-.75.62-.74.63-.75.65-.74.66-.74.68-.73.69-.74.71-.73.72-.73.74-.73.75-.73.76-.72.78-.73.79-.72.81-.72.82-.71.84-.72.85-.71.87-.71.88-.71.9-.71.91-.7.92-.71.94-.7.95-.7.97-.69.99-.7.99-.69 1.01-.69 1.03-.69 1.04-.69 1.06-.68 1.07-.68 1.08-.68 1.1-.68 1.12-.68 1.12-.67 1.15-.68 1.15-.67 1.18-.66 1.18-.67 1.2-.67 1.22-.66 1.23-.66 1.24-.66 1.26-.65 1.28-.66 1.28-.65 1.31-.65 1.31-.65 1.34-.64 1.34-.65 1.36-.64 1.38-.64 1.39-.64 1.4-.63 1.42-.64 1.44-.63 1.44-.63 1.47-.63 1.47-.62 1.5-.63 1.5-.62 1.52-.62 1.54-.62 1.55-.61 1.56-.61 1.58-.62 1.6-.61 1.6-.6 1.63-.61 1.63-.6" style="stroke-width:1.07;stroke:#000000;stroke-opacity:0.10;stroke-linecap:butt"/><path d="m272.58 636.3.07-.82.09-.82.1-.82.13-.82.14-.81.15-.81.18-.81.19-.8.21-.8.22-.8.25-.8.26-.8.28-.79.3-.79.31-.79.33-.78.35-.79.37-.78.38-.77.4-.78.42-.77.43-.77.46-.77.47-.77.49-.76.5-.76.53-.76.54-.76.56-.75.57-.75.59-.75.61-.75.63-.74.65-.75.66-.74.68-.73.7-.74.71-.73.74-.73.75-.73.76-.72.79-.72.8-.72.82-.72.84-.71.85-.72.88-.71.89-.71.9-.7.93-.7.94-.7.96-.7.98-.7.99-.69 1.01-.69 1.03-.69 1.05-.68 1.06-.69 1.09-.68 1.09-.68 1.12-.67 1.14-.68 1.15-.67 1.17-.67 1.18-.66 1.21-.67 1.22-.66 1.24-.66 1.25-.65 1.28-.66 1.29-.65 1.31-.65 1.32-.65 1.35-.64 1.36-.64 1.37-.64 1.4-.64 1.41-.64 1.43-.63 1.45-.63 1.47-.62 1.48-.63 1.5-.62 1.52-.62 1.54-.62 1.55-.62 1.57-.61 1.59-.61 1.6-.61 1.62-.6 1.64-.61 1.66-.6 1.68-.59 1.69-.6 1.71-.59 1.73-.59 1.74-.59 1.76-.59 1.78-.58" style="stroke-width:1.07;stroke:#000000;stroke-opacity:0.10;stroke-linecap:butt"/><path d="m272.58 636.3-.07-.84-.05-.84-.03-.84-.02-.83.01-.83.03-.83.05-.83.07-.82.09-.82.11-.81.13-.82.15-.81.17-.81.19-.8.22-.8.23-.8.25-.8.27-.79.3-.79.31-.79.34-.79.35-.78.38-.78.39-.77.42-.78.43-.77.46-.77.48-.76.49-.76.52-.76.54-.76.56-.75.58-.76.59-.74.62-.75.64-.74.66-.74.68-.74.7-.73.72-.73.75-.73.76-.73.78-.72.8-.72.83-.72.84-.71.86-.71.89-.71.9-.71.93-.7.94-.7.97-.7.98-.69 1.01-.69 1.02-.69 1.05-.69 1.07-.68 1.09-.68 1.1-.68 1.13-.67 1.15-.67 1.17-.67 1.19-.67 1.21-.66 1.23-.66 1.25-.66 1.27-.65 1.29-.66 1.31-.64 1.33-.65 1.36-.64 1.37-.64 1.39-.64 1.41-.64 1.44-.63 1.45-.63 1.48-.62 1.49-.63 1.52-.62 1.53-.62 1.56-.61 1.57-.61 1.6-.61 1.62-.61 1.63-.6 1.66-.6 1.68-.6 1.7-.59 1.72-.6 1.74-.59 1.76-.58 1.78-.59 1.8-.58 1.82-.58 1.84-.57 1.86-.57 1.88-.57 1.9-.57 1.92-.56m-22.6-181.05.51-.9.49-.9.48-.9.46-.89.45-.9.44-.9.43-.9.41-.9.4-.89.39-.9.37-.9.36-.89.35-.9.34-.9.32-.89.31-.9.3-.89.28-.9.27-.89.26-.9.25-.89.23-.9.22-.89.21-.9.19-.89.18-.9.17-.89.16-.89.14-.9.13-.89.12-.89.1-.89.09-.9.08-.89.07-.89.05-.89.04-.9.02-.89.02-.89v-.89l-.01-.89-.03-.89-.03-.89-.06-.89-.06-.89-.07-.89-.09-.89-.11-.89-.11-.89-.13-.89-.14-.89-.15-.89-.17-.89-.18-.88-.19-.89-.21-.89-.21-.89-.23-.89-.25-.88-.26-.89-.26-.89-.29-.88-.29-.89-.31-.89-.32-.88-.34-.89-.34-.89-.36-.88-.37-.89-.39-.88-.4-.89-.41-.88-.42-.89-.44-.88-.45-.89-.46-.88-.48-.88-.49-.89-.5-.88-.51-.88-.53-.89-.54-.88-.55-.88-.57-.89-.58-.88-.59-.88-.6-.88-.62-.88-.63-.89-.64-.88-.66-.88-.67-.88-.68-.88-.69-.88-.71-.88-.72-.88-.73-.88-.75-.88-.76-.88" style="stroke-width:1.07;stroke:#000000;stroke-opacity:0.10;stroke-linecap:butt"/><path d="m341.52 385.67.33-.9.31-.89.31-.9.29-.89.29-.9.27-.89.27-.9.26-.89.25-.9.24-.89.23-.9.22-.89.22-.9.2-.89.19-.9.19-.89.17-.89.17-.9.16-.89.15-.89.14-.9.12-.89.13-.89.11-.9.1-.89.09-.89.09-.89.07-.9.07-.89.05-.89.05-.89.04-.89.03-.9.01-.89.01-.89.01-.89-.01-.89-.02-.89-.03-.89-.03-.89-.05-.89-.05-.89-.07-.89-.07-.89-.08-.89-.09-.89-.1-.89-.11-.89-.12-.89-.13-.89-.13-.89-.15-.89-.16-.89-.16-.89-.17-.89-.19-.88-.19-.89-.2-.89-.21-.89-.22-.89-.23-.88-.24-.89-.25-.89-.25-.89-.27-.88-.27-.89-.29-.89-.29-.88-.3-.89-.31-.89-.33-.88-.33-.89-.34-.88-.34-.89-.36-.89-.37-.88-.37-.89-.39-.88-.39-.89-.41-.88-.41-.89-.42-.88-.44-.89-.44-.88-.45-.88-.45-.89-.47-.88-.48-.89-.49-.88-.49-.88-.51-.89-.51-.88-.53-.88-.53-.89-.54-.88-.55-.88-.56-.88-.57-.89-.58-.88" style="stroke-width:1.07;stroke:#000000;stroke-opacity:0.10;stroke-linecap:butt"/><path d="m341.52 385.67.15-.89.13-.9.14-.89.12-.89.12-.9.12-.89.11-.89.1-.89.1-.9.09-.89.09-.89.08-.89.08-.9.07-.89.06-.89.06-.89.06-.9.05-.89.04-.89.04-.89.03-.89.03-.89.02-.9.01-.89.02-.89v-1.78l-.01-.89-.01-.89-.02-.89-.02-.89-.03-.89-.03-.89-.04-.9-.05-.89-.05-.89-.05-.89-.06-.89-.07-.89-.07-.89-.08-.89-.09-.89-.09-.89-.09-.89-.1-.89-.11-.89-.11-.88-.11-.89-.13-.89-.12-.89-.14-.89-.14-.89-.14-.89-.15-.89-.16-.89-.16-.89-.16-.88-.18-.89-.17-.89-.19-.89-.18-.89-.2-.89-.2-.88-.2-.89-.21-.89-.22-.89-.22-.89-.23-.88-.23-.89-.24-.89-.24-.89-.25-.88-.26-.89-.26-.89-.26-.88-.27-.89-.28-.89-.28-.89-.29-.88-.3-.89-.29-.89-.31-.88-.31-.89-.31-.88-.33-.89-.32-.89-.33-.88-.34-.89-.34-.89-.35-.88-.36-.89-.36-.88-.36-.89-.37-.88-.38-.89-.38-.88-.39-.89-.39-.88-.4-.89" style="stroke-width:1.07;stroke:#000000;stroke-opacity:0.10;stroke-linecap:butt"/><path d="m341.52 385.67-.03-.89-.04-.89-.04-.89-.05-.89-.04-.89-.05-.89-.05-.89-.05-.89-.05-.89-.05-.89-.06-.89-.06-.9-.06-.89-.06-.89-.06-.89-.07-.89-.07-.89-.06-.89-.08-.89-.07-.89-.07-.89-.08-.89-.08-.89-.08-.89-.08-.89-.08-.89-.09-.89-.09-.89-.08-.89-.1-.88-.09-.89-.09-.89-.1-.89-.1-.89-.1-.89-.1-.89-.1-.89-.11-.89-.11-.89-.11-.89-.11-.89-.11-.89-.12-.89-.11-.89-.12-.89-.12-.89-.12-.89-.13-.89-.12-.88-.13-.89-.13-.89-.13-.89-.14-.89-.13-.89-.14-.89-.14-.89-.14-.89-.14-.89-.15-.89-.14-.88-.15-.89-.15-.89-.15-.89-.15-.89-.16-.89-.16-.89-.16-.89-.16-.88-.16-.89-.16-.89-.17-.89-.17-.89-.17-.89-.17-.89-.18-.88-.17-.89-.18-.89-.18-.89-.18-.89-.18-.89-.19-.88-.18-.89-.19-.89-.19-.89-.19-.89-.2-.89-.19-.88-.2-.89-.2-.89-.2-.89-.21-.89-.2-.88-.21-.89-.21-.89-.21-.89-.21-.89-.21-.88-.22-.89-.22-.89" style="stroke-width:1.07;stroke:#000000;stroke-opacity:0.10;stroke-linecap:butt"/><path d="m341.52 385.67-.21-.89-.22-.89-.21-.88-.22-.89-.21-.89-.21-.89-.2-.89-.21-.88-.2-.89-.2-.89-.2-.89-.2-.89-.2-.88-.19-.89-.19-.89-.19-.89-.19-.89-.19-.89-.18-.88-.19-.89-.18-.89-.18-.89-.17-.89-.18-.89-.17-.88-.17-.89-.17-.89-.17-.89-.17-.89-.16-.89-.17-.89-.16-.88-.16-.89-.15-.89-.16-.89-.15-.89-.15-.89-.15-.89-.15-.89-.15-.88-.14-.89-.15-.89-.14-.89-.14-.89-.13-.89-.14-.89-.13-.89-.13-.89-.13-.89-.13-.89-.13-.88-.12-.89-.12-.89-.12-.89-.12-.89-.12-.89-.11-.89-.12-.89-.11-.89-.11-.89-.1-.89-.11-.89-.1-.89-.11-.89-.1-.89-.09-.89-.1-.89-.1-.89-.09-.89-.09-.88-.09-.89-.09-.89-.08-.89-.09-.89-.08-.89-.08-.89-.08-.89-.07-.89-.08-.89-.07-.89-.07-.89-.07-.89-.07-.89-.06-.89-.06-.89-.07-.89-.06-.89-.05-.9-.06-.89-.05-.89-.06-.89-.05-.89-.05-.89-.04-.89-.05-.89-.04-.89-.04-.89-.04-.89-.04-.89" style="stroke-width:1.07;stroke:#000000;stroke-opacity:0.10;stroke-linecap:butt"/><path d="m341.52 385.67-.39-.89-.4-.88-.38-.89-.39-.88-.37-.89-.37-.88-.37-.89-.36-.88-.35-.89-.35-.88-.34-.89-.34-.89-.33-.88-.33-.89-.32-.89-.32-.88-.31-.89-.3-.88-.3-.89-.29-.89-.29-.88-.28-.89-.28-.89-.27-.89-.27-.88-.26-.89-.25-.89-.25-.88-.24-.89-.24-.89-.24-.89-.22-.88-.22-.89-.22-.89-.21-.89-.21-.89-.2-.88-.19-.89-.19-.89-.18-.89-.18-.89-.17-.89-.17-.88-.16-.89-.15-.89-.15-.89-.15-.89-.14-.89-.13-.89-.13-.89-.12-.89-.12-.89-.11-.88-.1-.89-.1-.89-.1-.89-.09-.89-.08-.89-.08-.89-.07-.89-.07-.89-.06-.89-.06-.89-.05-.89-.04-.89-.04-.9-.04-.89-.02-.89-.03-.89-.01-.89-.02-.89v-2.67l.01-.89.02-.9.02-.89.02-.89.04-.89.03-.89.05-.89.05-.89.05-.9.06-.89.07-.89.07-.89.07-.9.09-.89.08-.89.1-.89.09-.9.11-.89.11-.89.11-.89.12-.9.13-.89.13-.89.14-.9.14-.89" style="stroke-width:1.07;stroke:#000000;stroke-opacity:0.10;stroke-linecap:butt"/><path d="m341.52 385.67-.57-.88-.57-.89-.56-.88-.55-.88-.55-.88-.53-.89-.52-.88-.52-.88-.5-.89-.5-.88-.48-.88-.48-.89-.47-.88-.46-.89-.45-.88-.44-.88-.43-.89-.42-.88-.42-.89-.4-.88-.39-.89-.39-.88-.38-.89-.36-.88-.36-.89-.35-.89-.34-.88-.33-.89-.32-.88-.31-.89-.3-.89-.3-.88-.28-.89-.28-.89-.26-.88-.26-.89-.25-.89-.23-.89-.23-.88-.22-.89-.21-.89-.21-.89-.19-.89-.18-.89-.17-.88-.17-.89-.15-.89-.15-.89-.14-.89-.13-.89-.11-.89-.11-.89-.1-.89-.09-.89-.09-.89-.07-.89-.06-.89-.06-.89-.04-.89-.04-.89-.02-.89-.02-.89-.01-.89v-.89l.01-.89.02-.89.03-.9.04-.89.04-.89.06-.89.07-.89.07-.9.08-.89.1-.89.1-.89.11-.9.12-.89.13-.89.14-.9.15-.89.16-.89.16-.9.18-.89.18-.89.2-.9.2-.89.21-.9.22-.89.24-.9.24-.89.25-.9.25-.89.27-.9.28-.89.28-.9.3-.89.3-.9.32-.89.32-.9" style="stroke-width:1.07;stroke:#000000;stroke-opacity:0.10;stroke-linecap:butt"/><path d="m341.52 385.67-.75-.88-.75-.88-.73-.88-.72-.88-.71-.88-.7-.88-.68-.88-.67-.88-.65-.88-.64-.88-.63-.89-.62-.88-.61-.88-.59-.88-.58-.88-.56-.89-.55-.88-.54-.88-.53-.89-.52-.88-.5-.88-.49-.89-.47-.88-.46-.88-.45-.89-.44-.88-.42-.89-.42-.88-.39-.89-.39-.88-.37-.89-.36-.88-.35-.89-.33-.89-.32-.88-.31-.89-.3-.89-.28-.88-.27-.89-.26-.89-.24-.88-.23-.89-.22-.89-.2-.89-.2-.89-.17-.88-.17-.89-.15-.89-.15-.89-.12-.89-.12-.89-.1-.89-.09-.89-.08-.89-.06-.89-.05-.89-.04-.89-.02-.89-.01-.89v-.89l.01-.89.03-.89.04-.9.05-.89.07-.89.07-.89.09-.9.11-.89.12-.89.13-.89.14-.9.15-.89.17-.89.18-.9.2-.89.2-.9.22-.89.24-.9.24-.89.26-.9.27-.89.29-.9.29-.89.31-.9.33-.89.33-.9.35-.9.36-.89.38-.9.39-.9.4-.89.41-.9.42-.9.44-.9.46-.9.46-.89.48-.9.49-.9.5-.9" style="stroke-width:1.07;stroke:#000000;stroke-opacity:0.10;stroke-linecap:butt"/><path d="m351.52 468.15 3.83 6.64h-7.67zm267.63 143.01 1.91 3.31h-3.83zm-144.5 15.53 5.75 9.97h-11.51zm99.55-94.12 1.92 3.31h-3.83zM447.5 222.84l1.91 3.32h-3.82zm-230.17-5.72 1.92 3.31h-3.83zm374.33 36.57 1.92 3.32h-3.83zm-21.05 88.32 1.91 3.31h-3.83zm-508.1-76.59 1.92 3.32H60.6zM480.72 336l1.91 3.32h-3.82zm-291.12 4.47 1.92 3.32h-3.83zm-87.83 10.08 1.92 3.31h-3.83zM69.73 574.74l1.92 3.32h-3.83zm76.52-37.97 3.83 6.64h-7.67zm513.98 29.11 1.91 3.31h-3.83zM377.2 659.45l1.92 3.32h-3.83zm-254.19-40.81 1.92 3.32h-3.83z" style="stroke-width:0.71;stroke:none;fill:#00BA38"/><path d="M268.31 640.57h8.55v-8.55h-8.55zm68.61-250.29h9.21v-9.22h-9.21z" style="stroke-width:0.71;stroke:none;fill:#619CFF"/><circle cx="364.12" cy="566.72" r="6.76" style="stroke-width:0.71;stroke:none;fill:#F8766D"/><circle cx="328.87" cy="297.64" r="5.19" style="stroke-width:0.71;stroke:none;fill:#F8766D"/><path d="M99.08 148.91h2.85v-2.84h-2.85z" style="stroke-width:0.71;stroke:none;fill:#619CFF"/><path d="m346.55 477.26 4.13-3.9m273.61 135.35-4.29 3.88m-150.57 25.47 4.36-3.95m95.1-94.69 4.45-3.88M452.47 220.35l-4.14 3.91m-226.03-9.62-4.13 3.9m378.41 32.72-4.08 3.85m-26.98 93.93 4.25-4.03M67.67 272.3l-4.3-3.89m422.41 65.02-4.23 3.99m-286.91.5-4.2 3.97M96.75 357.5l4.19-3.95M74.6 580.27l-3.9-2.65m70.43-31.8 4.26-3.85m510.04 29.01 3.78-2.28m-286.76 99.22 4.07-5.36m-248.79-47.23-3.98 4.66m143.62 20.93 4.35-3.86m75-256-4.33 3.84m16.53 186.44 4.34-3.86m-39.69-265.13 4.44-3.94M95.29 152.21l4.36-3.94" style="stroke-width:0.53;stroke:#BFBFBF"/><path d="M301.74 488.54h75.23-.08l.34-.02.34-.06.33-.13.3-.17.27-.22.23-.26.19-.3.13-.32.08-.33.03-.35h0v-6.96h0l-.03-.35-.08-.34-.13-.32-.19-.29-.23-.26-.27-.22-.3-.17-.33-.13-.34-.07-.26-.01h-75.23l.26.01-.35-.01-.34.04-.34.1-.31.15-.29.2-.25.24-.21.27-.16.31-.11.33-.05.34-.01.18v6.96l.01-.17v.34l.05.35.11.33.16.31.21.27.25.24.29.2.31.15.34.1.34.04z" style="stroke-width:0.53;fill:#FFFFFF;fill-opacity:0.50"/><text x="339.36" y="484.94" lengthAdjust="spacingAndGlyphs" style="font-size:5.69px;font-family:&quot;Arial&quot;" text-anchor="middle" textLength="72.35">URBAN APARTMENTS LLC</text><path d="M614.2 608.71h43.32-.09l.35-.01.34-.07.33-.13.3-.17.27-.22.23-.26.18-.29.14-.32.08-.34.03-.35h0V591.4h0l-.03-.35-.08-.34-.14-.32-.18-.29-.23-.26-.27-.22-.3-.18-.33-.12-.34-.07-.26-.01H614.2l.26.01-.35-.01-.35.04-.33.1-.31.15-.29.19-.25.24-.21.28-.16.31-.11.33-.06.34v15.33-.17.35l.06.34.11.33.16.31.21.27.25.25.29.19.31.15.33.1.35.04z" style="stroke-width:0.53;fill:#FFFFFF;fill-opacity:0.50"/><text x="635.86" y="596.92" lengthAdjust="spacingAndGlyphs" style="font-size:5.69px;font-family:&quot;Arial&quot;" text-anchor="middle" textLength="39.81">LEON JOSEPH</text><text x="635.86" y="605.11" lengthAdjust="spacingAndGlyphs" style="font-size:5.69px;font-family:&quot;Arial&quot;" text-anchor="middle" textLength="40.44">IRREVOCABLE</text><path d="M420.5 657.53h74.61-.09l.35-.01.34-.07.33-.12.3-.18.27-.22.23-.26.18-.29.14-.32.08-.34.03-.35h0v-15.15h0l-.03-.35-.08-.34-.14-.32-.18-.29-.23-.26-.27-.22-.3-.17-.33-.13-.34-.07-.26-.01H420.5l.26.01-.35-.01-.35.04-.33.1-.31.15-.29.19-.25.25-.21.27-.16.31-.11.33-.06.34v15.33-.17.35l.06.34.11.33.16.31.21.28.25.24.29.2.31.14.33.1.35.04z" style="stroke-width:0.53;fill:#FFFFFF;fill-opacity:0.50"/><text x="457.8" y="645.74" lengthAdjust="spacingAndGlyphs" style="font-size:5.69px;font-family:&quot;Arial&quot;" text-anchor="middle" textLength="71.73">WELLSTON APARTMENTS</text><text x="457.8" y="653.93" lengthAdjust="spacingAndGlyphs" style="font-size:5.69px;font-family:&quot;Arial&quot;" text-anchor="middle" textLength="10.43">LLC</text><path d="M508.4 558.9h70.16-.09l.35-.02.34-.07.33-.12.3-.18.27-.22.23-.26.18-.29.14-.32.08-.34.03-.34h0v-15.16h0l-.03-.35-.08-.33-.14-.32-.18-.3-.23-.26-.27-.22-.3-.17-.33-.12-.34-.07-.26-.02H508.4l.26.02-.35-.02-.35.04-.33.1-.31.15-.29.2-.25.24-.21.28-.16.3-.11.33-.06.35v15.33-.18.35l.06.34.11.33.16.31.21.28.25.24.29.2.31.15.33.09.35.05z" style="stroke-width:0.53;fill:#FFFFFF;fill-opacity:0.50"/><text x="543.48" y="547.1" lengthAdjust="spacingAndGlyphs" style="font-size:5.69px;font-family:&quot;Arial&quot;" text-anchor="middle" textLength="67.28">LEON JOSEPH IRREVOC</text><text x="543.48" y="555.3" lengthAdjust="spacingAndGlyphs" style="font-size:5.69px;font-family:&quot;Arial&quot;" text-anchor="middle" textLength="7.58">TR</text><path d="M441.38 220.35h36.05-.08l.35-.02.34-.07.32-.12.3-.17.27-.22.23-.26.19-.3.13-.32.09-.33.02-.35h0v-6.96h0l-.02-.35-.09-.34-.13-.32-.19-.29-.23-.26-.27-.22-.3-.18-.32-.12-.34-.07-.27-.01h-36.05l.26.01-.34-.01-.35.04-.33.1-.32.15-.28.19-.25.24-.21.28-.16.31-.11.33-.06.34-.01.18v6.96l.01-.18v.35l.06.35.11.33.16.3.21.28.25.24.28.2.32.15.33.09.35.05z" style="stroke-width:0.53;fill:#FFFFFF;fill-opacity:0.50"/><text x="459.41" y="216.75" lengthAdjust="spacingAndGlyphs" style="font-size:5.69px;font-family:&quot;Arial&quot;" text-anchor="middle" textLength="33.17">RJ 1800 LLC</text><path d="M203.92 214.64h50.9-.09l.35-.02.34-.07.33-.12.3-.17.27-.22.23-.26.18-.3.14-.32.08-.34.03-.34h0v-6.96h0l-.03-.35-.08-.34-.14-.32-.18-.29-.23-.26-.27-.22-.3-.18-.33-.12-.34-.07-.26-.01h-50.9l.26.01-.34-.01-.35.04-.33.1-.32.14-.28.2-.25.24-.21.28-.16.31-.11.33-.06.34-.01.18v6.96l.01-.18v.35l.06.34.11.33.16.31.21.28.25.24.28.2.32.15.33.09.35.05z" style="stroke-width:0.53;fill:#FFFFFF;fill-opacity:0.50"/><text x="229.37" y="211.04" lengthAdjust="spacingAndGlyphs" style="font-size:5.69px;font-family:&quot;Arial&quot;" text-anchor="middle" textLength="48.02">PROSPECT II LLC</text><path d="M574.98 251.26h57.21l-.09-.01.35-.01.34-.07.33-.12.3-.18.27-.22.23-.26.18-.29.14-.32.08-.34.03-.34h0v-6.97h0l-.03-.34-.08-.34-.14-.32-.18-.29-.23-.26-.27-.22-.3-.18-.33-.12-.34-.07-.26-.02h-57.21l.26.02-.35-.01-.34.04-.34.09-.31.15-.29.2-.25.24-.21.28-.16.31-.11.33-.05.34-.01.17v6.97l.01-.18v.35l.05.34.11.33.16.31.21.28.25.24.29.2.31.15.34.09.34.04z" style="stroke-width:0.53;fill:#FFFFFF;fill-opacity:0.50"/><text x="603.58" y="247.66" lengthAdjust="spacingAndGlyphs" style="font-size:5.69px;font-family:&quot;Arial&quot;" text-anchor="middle" textLength="54.33">GEORGETOWN LLC</text><path d="M524.32 360.32h68.28-.09l.35-.02.34-.07.32-.12.3-.17.27-.22.23-.26.19-.3.13-.32.09-.34.03-.34h0v-6.96h0l-.03-.35-.09-.34-.13-.32-.19-.29-.23-.26-.27-.22-.3-.18-.32-.12-.34-.07-.26-.01h-68.28l.26.01-.35-.01-.34.04-.34.1-.31.14-.29.2-.25.24-.21.28-.16.31-.11.33-.05.34-.01.18v6.96l.01-.18v.35l.05.34.11.33.16.31.21.28.25.24.29.2.31.15.34.09.34.05z" style="stroke-width:0.53;fill:#FFFFFF;fill-opacity:0.50"/><text x="558.46" y="356.72" lengthAdjust="spacingAndGlyphs" style="font-size:5.69px;font-family:&quot;Arial&quot;" text-anchor="middle" textLength="65.4">RIVER VIEW LOFTS LLC</text><path d="M42.6 291.78h73.33l-.09-.01.35-.01.34-.07.32-.12.3-.18.27-.22.23-.26.19-.29.14-.32.08-.34.03-.34h0v-15.16h0l-.03-.35-.08-.34-.14-.32-.19-.29-.23-.26-.27-.22-.3-.17-.32-.13-.34-.07-.26-.01H42.6l.26.01-.35-.01-.35.04-.33.1-.31.15-.29.2-.25.24-.21.27-.16.31-.11.33-.06.34v15.34-.18.35l.06.34.11.33.16.31.21.28.25.24.29.2.31.15.33.09.35.04z" style="stroke-width:0.53;fill:#FFFFFF;fill-opacity:0.50"/><text x="79.26" y="279.98" lengthAdjust="spacingAndGlyphs" style="font-size:5.69px;font-family:&quot;Arial&quot;" text-anchor="middle" textLength="70.45">CHICAGO STREET LOFTS</text><text x="79.26" y="288.18" lengthAdjust="spacingAndGlyphs" style="font-size:5.69px;font-family:&quot;Arial&quot;" text-anchor="middle" textLength="10.43">LLC</text><path d="M459.18 333.43h67.32-.08l.34-.02.34-.07.33-.12.3-.18.27-.22.23-.26.19-.29.13-.32.09-.34.02-.34h0v-6.97h0l-.02-.34-.09-.34-.13-.32-.19-.29-.23-.26-.27-.22-.3-.18-.33-.12-.34-.07-.26-.02h-67.32l.26.02-.35-.01-.35.04-.33.09-.31.15-.29.2-.25.24-.21.28-.16.31-.11.33-.06.34v7.14-.18.35l.06.34.11.33.16.31.21.28.25.24.29.2.31.15.33.09.35.05z" style="stroke-width:0.53;fill:#FFFFFF;fill-opacity:0.50"/><text x="492.84" y="329.83" lengthAdjust="spacingAndGlyphs" style="font-size:5.69px;font-family:&quot;Arial&quot;" text-anchor="middle" textLength="64.45">JACKSON SQUARE LLC</text><path d="M175.5 337.92h52.46-.08l.35-.02.34-.07.32-.12.3-.18.27-.22.23-.26.19-.29.13-.32.09-.34.02-.34h0v-6.97h0l-.02-.34-.09-.34-.13-.32-.19-.29-.23-.26-.27-.22-.3-.18-.32-.12-.34-.07-.27-.02H175.5l.26.02-.35-.01-.34.04-.34.1-.31.14-.29.2-.25.24-.21.28-.16.31-.11.33-.05.34-.01.17v6.97l.01-.18v.35l.05.34.11.33.16.31.21.28.25.24.29.2.31.15.34.09.34.05z" style="stroke-width:0.53;fill:#FFFFFF;fill-opacity:0.50"/><text x="201.73" y="334.32" lengthAdjust="spacingAndGlyphs" style="font-size:5.69px;font-family:&quot;Arial&quot;" text-anchor="middle" textLength="49.59">525 CHICAGO LLC</text><path d="M54.11 368.78h71.11-.09l.35-.01.34-.07.32-.12.3-.18.27-.22.23-.26.19-.29.14-.32.08-.34.03-.35h0v-6.96h0l-.03-.34-.08-.34-.14-.32-.19-.3-.23-.26-.27-.22-.3-.17-.32-.12-.34-.07-.26-.02H54.11l.26.02-.35-.02-.34.05-.34.09-.31.15-.29.2-.25.24-.21.28-.16.31-.11.33-.05.34-.01.17v6.96l.01-.17v.35l.05.34.11.33.16.31.21.28.25.24.29.19.31.15.34.1.34.04z" style="stroke-width:0.53;fill:#FFFFFF;fill-opacity:0.50"/><text x="89.66" y="365.18" lengthAdjust="spacingAndGlyphs" style="font-size:5.69px;font-family:&quot;Arial&quot;" text-anchor="middle" textLength="68.23">THIRD WARD LOFTS LLC</text><path d="M76.76 592.14h68.9-.09l.35-.01.34-.07.32-.13.3-.17.27-.22.23-.26.19-.29.14-.32.08-.34.03-.35h0v-15.16h0l-.03-.34-.08-.34-.14-.32-.19-.29-.23-.26-.27-.22-.3-.18-.32-.12-.34-.07-.26-.02h-68.9l.26.02-.35-.01-.34.04-.34.1-.31.14-.29.2-.25.24-.21.28-.16.31-.11.33-.05.34-.01.17v15.16l.01-.17v.35l.05.34.11.33.16.31.21.27.25.24.29.2.31.15.34.1.34.04z" style="stroke-width:0.53;fill:#FFFFFF;fill-opacity:0.50"/><text x="111.21" y="580.35" lengthAdjust="spacingAndGlyphs" style="font-size:5.69px;font-family:&quot;Arial&quot;" text-anchor="middle" textLength="66.02">BAY VIEW MANOR CO C</text><text x="111.21" y="588.54" lengthAdjust="spacingAndGlyphs" style="font-size:5.69px;font-family:&quot;Arial&quot;" text-anchor="middle" textLength="10.43">LLC</text><path d="M103.02 565.3h53.12l-.09-.01.35-.01.34-.07.32-.12.3-.18.27-.22.23-.26.19-.29.14-.32.08-.34.03-.34h0v-15.16h0l-.03-.35-.08-.33-.14-.32-.19-.3-.23-.26-.27-.22-.3-.17-.32-.13-.34-.06-.26-.02h-53.12l.26.02-.34-.02-.35.04-.33.1-.32.15-.28.2-.25.24-.21.27-.16.31-.11.33-.06.35-.01.17v15.16l.01-.18v.35l.06.34.11.33.16.31.21.28.25.24.28.2.32.15.33.09.35.04z" style="stroke-width:0.53;fill:#FFFFFF;fill-opacity:0.50"/><text x="129.58" y="553.5" lengthAdjust="spacingAndGlyphs" style="font-size:5.69px;font-family:&quot;Arial&quot;" text-anchor="middle" textLength="50.23">BAY VIEW MANOR</text><text x="129.58" y="561.7" lengthAdjust="spacingAndGlyphs" style="font-size:5.69px;font-family:&quot;Arial&quot;" text-anchor="middle" textLength="28.75">COMPANY</text><path d="M590.06 581.87h63.21-.09l.35-.01.34-.07.33-.13.3-.17.27-.22.23-.26.18-.29.14-.32.08-.34.03-.35h0v-15.15h0l-.03-.35-.08-.34-.14-.32-.18-.29-.23-.26-.27-.22-.3-.18-.33-.12-.34-.07-.26-.01h-63.21l.26.01-.35-.01-.35.04-.33.1-.31.14-.29.2-.25.24-.21.28-.16.31-.11.33-.06.34v15.33-.17.35l.06.34.11.33.16.31.21.27.25.25.29.19.31.15.33.1.35.04z" style="stroke-width:0.53;fill:#FFFFFF;fill-opacity:0.50"/><text x="621.66" y="570.08" lengthAdjust="spacingAndGlyphs" style="font-size:5.69px;font-family:&quot;Arial&quot;" text-anchor="middle" textLength="60.34">BAY VIEW MANOR CO</text><text x="621.66" y="578.27" lengthAdjust="spacingAndGlyphs" style="font-size:5.69px;font-family:&quot;Arial&quot;" text-anchor="middle" textLength="11.38">AKA</text><path d="M306.43 683.76h63.86-.09l.35-.02.34-.07.32-.12.3-.17.27-.22.23-.26.19-.3.14-.32.08-.34.03-.34h0v-15.16h0l-.03-.35-.08-.33-.14-.32-.19-.3-.23-.26-.27-.22-.3-.17-.32-.12-.34-.07-.26-.02h-63.86l.26.02-.35-.02-.34.04-.34.1-.31.15-.29.2-.25.24-.21.28-.16.3-.11.33-.05.35-.01.17v15.16l.01-.18v.35l.05.34.11.33.16.31.21.28.25.24.29.2.31.15.34.09.34.05z" style="stroke-width:0.53;fill:#FFFFFF;fill-opacity:0.50"/><text x="338.36" y="671.96" lengthAdjust="spacingAndGlyphs" style="font-size:5.69px;font-family:&quot;Arial&quot;" text-anchor="middle" textLength="60.98">SOUTHGATE SQUARE</text><text x="338.36" y="680.16" lengthAdjust="spacingAndGlyphs" style="font-size:5.69px;font-family:&quot;Arial&quot;" text-anchor="middle" textLength="28.75">COMPANY</text><path d="M129.89 618.87h63.85-.08l.35-.02.34-.07.32-.12.3-.17.27-.22.23-.26.19-.3.13-.32.09-.33.02-.35h0v-15.16h0l-.02-.34-.09-.34-.13-.32-.19-.29-.23-.26-.27-.22-.3-.18-.32-.12-.34-.07-.27-.02h-63.85l.26.02-.35-.02-.34.05-.34.09-.31.15-.29.2-.25.24-.21.28-.16.31-.11.33-.06.34v15.33-.17.34l.06.35.11.33.16.3.21.28.25.24.29.2.31.15.34.1.34.04z" style="stroke-width:0.53;fill:#FFFFFF;fill-opacity:0.50"/><text x="161.82" y="607.08" lengthAdjust="spacingAndGlyphs" style="font-size:5.69px;font-family:&quot;Arial&quot;" text-anchor="middle" textLength="60.98">SOUTHGATE SQUARE</text><text x="161.82" y="615.27" lengthAdjust="spacingAndGlyphs" style="font-size:5.69px;font-family:&quot;Arial&quot;" text-anchor="middle" textLength="24.01">PHASE II</text><path d="M219.22 668.59h63.86-.08l.34-.02.34-.07.33-.12.3-.17.27-.22.23-.26.18-.3.14-.32.08-.33.03-.35h0v-23.35h0l-.03-.35-.08-.34-.14-.32-.18-.29-.23-.26-.27-.22-.3-.17-.33-.13-.34-.07-.26-.01h-63.86l.26.01-.35-.01-.34.04-.34.1-.31.15-.29.2-.25.24-.21.27-.16.31-.11.33-.05.34-.01.18v23.35l.01-.17v.34l.05.35.11.33.16.3.21.28.25.24.29.2.31.15.34.1.34.04z" style="stroke-width:0.53;fill:#FFFFFF;fill-opacity:0.50"/><text x="251.15" y="648.6" lengthAdjust="spacingAndGlyphs" style="font-size:5.69px;font-family:&quot;Arial&quot;" text-anchor="middle" textLength="60.98">117 N JEFFERSON ST,</text><text x="251.15" y="656.8" lengthAdjust="spacingAndGlyphs" style="font-size:5.69px;font-family:&quot;Arial&quot;" text-anchor="middle" textLength="60.98">STE 202, MILWAUKEE,</text><text x="251.15" y="664.99" lengthAdjust="spacingAndGlyphs" style="font-size:5.69px;font-family:&quot;Arial&quot;" text-anchor="middle" textLength="24.33">WI 53202</text><path d="M331.06 381.06h63.87-.09l.35-.01.34-.07.32-.12.31-.18.27-.22.23-.26.18-.29.14-.32.08-.34.03-.35h0v-23.35h0l-.03-.34-.08-.34-.14-.32-.18-.29-.23-.26-.27-.22-.31-.18-.32-.12-.34-.07-.26-.02h-63.87l.27.02-.35-.02-.35.05-.33.09-.32.15-.28.2-.25.24-.21.28-.16.31-.11.33-.06.34-.01.17v23.35l.01-.17v.35l.06.34.11.33.16.31.21.28.25.24.28.19.32.15.33.1.35.04z" style="stroke-width:0.53;fill:#FFFFFF;fill-opacity:0.50"/><text x="363" y="361.08" lengthAdjust="spacingAndGlyphs" style="font-size:5.69px;font-family:&quot;Arial&quot;" text-anchor="middle" textLength="60.98">117 N JEFFERSON ST,</text><text x="363" y="369.27" lengthAdjust="spacingAndGlyphs" style="font-size:5.69px;font-family:&quot;Arial&quot;" text-anchor="middle" textLength="60.98">STE 200, MILWAUKEE,</text><text x="363" y="377.46" lengthAdjust="spacingAndGlyphs" style="font-size:5.69px;font-family:&quot;Arial&quot;" text-anchor="middle" textLength="24.33">WI 53202</text><path d="M310.74 599.01h63.87-.09l.35-.02.34-.07.32-.12.3-.17.27-.22.23-.26.19-.3.13-.32.09-.34.03-.34h0V573.5h0l-.03-.35-.09-.34-.13-.32-.19-.29-.23-.26-.27-.22-.3-.18-.32-.12-.34-.07-.26-.01h-63.87l.26.01-.35-.01-.34.04-.33.1-.32.15-.28.19-.26.24-.2.28-.17.31-.11.33-.05.34-.01.18v23.35l.01-.18v.35l.05.34.11.33.17.31.2.28.26.24.28.2.32.15.33.09.34.05z" style="stroke-width:0.53;fill:#FFFFFF;fill-opacity:0.50"/><text x="342.67" y="579.02" lengthAdjust="spacingAndGlyphs" style="font-size:5.69px;font-family:&quot;Arial&quot;" text-anchor="middle" textLength="60.98">117 N JEFFERSON ST,</text><text x="342.67" y="587.21" lengthAdjust="spacingAndGlyphs" style="font-size:5.69px;font-family:&quot;Arial&quot;" text-anchor="middle" textLength="60.98">STE 202, MILWAUKEE,</text><text x="342.67" y="595.41" lengthAdjust="spacingAndGlyphs" style="font-size:5.69px;font-family:&quot;Arial&quot;" text-anchor="middle" textLength="24.33">WI 53202</text><path d="M275.4 330.02h63.86-.08l.34-.02.34-.07.33-.12.3-.18.27-.22.23-.26.19-.29.13-.32.09-.34.02-.34h0v-23.35h0l-.02-.35-.09-.34-.13-.32-.19-.29-.23-.26-.27-.22-.3-.18-.33-.12-.34-.07-.26-.01H275.4l.26.01-.35-.01-.34.04-.34.1-.31.15-.29.19-.25.24-.21.28-.16.31-.11.33-.05.34-.01.18v23.35l.01-.18v.35l.05.34.11.33.16.31.21.28.25.24.29.2.31.15.34.09.34.05z" style="stroke-width:0.53;fill:#FFFFFF;fill-opacity:0.50"/><text x="307.33" y="310.03" lengthAdjust="spacingAndGlyphs" style="font-size:5.69px;font-family:&quot;Arial&quot;" text-anchor="middle" textLength="60.98">117 N JEFFERSON ST,</text><text x="307.33" y="318.22" lengthAdjust="spacingAndGlyphs" style="font-size:5.69px;font-family:&quot;Arial&quot;" text-anchor="middle" textLength="60.98">STE 200, MILWAUKEE,</text><text x="307.33" y="326.42" lengthAdjust="spacingAndGlyphs" style="font-size:5.69px;font-family:&quot;Arial&quot;" text-anchor="middle" textLength="24.33">WI 53202</text><path d="M48.39 171.69h70.48l-.09-.01.35-.01.34-.07.32-.12.31-.18.26-.22.24-.26.18-.29.14-.32.08-.34.03-.34h0v-15.16h0l-.03-.35-.08-.33-.14-.32-.18-.3-.24-.26-.26-.22-.31-.17-.32-.13-.34-.07-.26-.01H48.39l.26.01-.35-.01-.34.04-.34.1-.31.15-.29.2-.25.24-.21.27-.16.31-.11.33-.06.35v15.33-.18.35l.06.34.11.33.16.31.21.28.25.24.29.2.31.15.34.09.34.04z" style="stroke-width:0.53;fill:#FFFFFF;fill-opacity:0.50"/><text x="83.63" y="159.89" lengthAdjust="spacingAndGlyphs" style="font-size:5.69px;font-family:&quot;Arial&quot;" text-anchor="middle" textLength="67.6">5745 SCHOOL RD, WEST</text><text x="83.63" y="168.09" lengthAdjust="spacingAndGlyphs" style="font-size:5.69px;font-family:&quot;Arial&quot;" text-anchor="middle" textLength="43.28">BEND, WI 53095</text></g><g clip-path="url(#cpMC4wMHw3MjAuMDB8MC4wMHw3MjAuMDA=)"><circle cx="268.98" cy="96.71" r="1.95" style="stroke-width:0.71;stroke:none;fill:#F8766D"/><path d="m345.33 93.67 2.63 4.56h-5.26z" style="stroke-width:0.71;stroke:none;fill:#00BA38"/><path d="M411.31 98.66h3.91v-3.91h-3.91z" style="stroke-width:0.71;stroke:none;fill:#619CFF"/><text x="283.09" y="99.86" lengthAdjust="spacingAndGlyphs" style="font-size:8.80px;font-family:&quot;Arial Narrow&quot;" textLength="48.12">mprop address</text><text x="359.45" y="99.86" lengthAdjust="spacingAndGlyphs" style="font-size:8.80px;font-family:&quot;Arial Narrow&quot;" textLength="39.69">owner name</text><text x="427.38" y="99.86" lengthAdjust="spacingAndGlyphs" style="font-size:8.80px;font-family:&quot;Arial Narrow&quot;" textLength="40.5">wdfi address</text><text x="32.63" y="65.12" lengthAdjust="spacingAndGlyphs" style="font-size:12.00px;font-family:&quot;Arial Narrow&quot;" textLength="263.17">includes 23 parcels, 994 units, and 17 distinct owner names.</text><text x="32.63" y="42.78" lengthAdjust="spacingAndGlyphs" style="font-size:18.00px;font-weight:bold;font-family:&quot;Arial Narrow&quot;" textLength="268.68">WELLSTON APARTMENTS LLC Group</text></g></svg>