<svg xmlns="http://www.w3.org/2000/svg" width="384" height="480" class="svglite" viewBox="0 0 288 360"><defs><style><![CDATA[.svglite line,.svglite polyline,.svglite polygon,.svglite path,.svglite circle{fill:none;stroke:#000000;stroke-linecap:round;stroke-linejoin:round;stroke-miterlimit:10.00}]]></style></defs><rect width="100%" height="100%" style="stroke-linecap:round;stroke-linejoin:round;stroke-miterlimit:10.00;stroke:none;fill:#FFFFFF"/><defs><clipPath id="cpMC4wMHwyODguMDB8MC4wMHwzNjAuMDA="><path d="M0 0h288v360H0z"/></clipPath></defs><g clip-path="url(#cpMC4wMHwyODguMDB8MC4wMHwzNjAuMDA=)"><path d="M0 0h288v360H0z" style="stroke-width:1.07;stroke:none;fill:#FFFFFF"/></g><defs><clipPath id="cpMzIuNjN8MjU4LjExfDE2MC42NnwzMjcuMzc="><path d="M32.63 160.66h225.48v166.71H32.63z"/></clipPath></defs><g clip-path="url(#cpMzIuNjN8MjU4LjExfDE2MC42NnwzMjcuMzc=)"><path d="m247.86 172.2-1.1-.42-1.11-.4-1.1-.37-1.11-.36-1.1-.32-1.1-.31-1.1-.28-1.09-.25-1.1-.23-1.09-.21-1.1-.19-1.09-.16-1.09-.13-1.08-.12-1.09-.08-1.09-.07-1.08-.04-1.08-.02-1.08.01-1.08.03-1.08.05-1.08.08-1.07.1-1.08.13-1.07.15-1.07.17-1.07.2-1.06.22-1.07.24-1.07.27-1.06.3-1.06.31-1.06.34-1.06.37-1.06.38-1.05.42-1.06.43-1.05.46-1.05.48-1.05.51-1.05.53-1.05.56-1.04.58-1.05.6-1.04.62-1.04.65-1.04.68-1.04.7-1.03.72-1.04.74-1.03.77-1.04.8-1.03.81-1.03.84-1.02.87-1.03.89-1.03.91-1.02.93-1.02.96-1.02.99-1.02 1.01-1.02 1.03-1.01 1.05-1.02 1.08-1.01 1.1-1.01 1.13-1.01 1.15-1.01 1.18-1.01 1.2-1.01 1.22-1 1.24-1 1.27-1.01 1.3-1 1.31-.99 1.35-1 1.36-1 1.39-.99 1.41-.99 1.44-1 1.46-.99 1.48-.98 1.51-.99 1.53-.99 1.56-.98 1.58-.98 1.6-.98 1.63-.98 1.65-.98 1.68-.98 1.7-.97 1.72-.98 1.75-.97 1.77-.97 1.79-.97 1.82-.97 1.84-.96 1.87-.97 1.89-.96 1.91" style="stroke-width:1.07;stroke:#000000;stroke-opacity:0.10;stroke-linecap:butt"/><path d="m247.86 172.2-1.03.75-1.04.74-1.03.75-1.04.74-1.03.75-1.04.74-1.03.75-1.04.75-1.03.74-1.04.75-1.04.74-1.03.75-1.04.74-1.03.75-1.04.74-1.03.75-1.04.74-1.03.75-1.04.74-1.03.75-1.04.75-1.03.74-1.04.75-1.03.74-1.04.75-1.03.74-1.04.75-1.04.74-1.03.75-1.04.74-1.03.75-1.04.75-1.03.74-1.04.75-1.03.74-1.04.75-1.03.74-1.04.75-1.03.74-1.04.75-1.03.74-1.04.75-1.03.75-1.04.74-1.03.75-1.04.74-1.04.75-1.03.74-1.04.75-1.03.74-1.04.75-1.03.74-1.04.75-1.03.75-1.04.74-1.03.75-1.04.74-1.03.75-1.04.74-1.03.75-1.04.74-1.03.75-1.04.74-1.04.75-1.03.75-1.04.74-1.03.75-1.04.74-1.03.75-1.04.74-1.03.75-1.04.74-1.03.75-1.04.74-1.03.75-1.04.74-1.03.75-1.04.75-1.03.74-1.04.75-1.03.74-1.04.75-1.04.74-1.03.75-1.04.74-1.03.75-1.04.74-1.03.75-1.04.75-1.03.74-1.04.75-1.03.74-1.04.75-1.03.74-1.04.75-1.03.74-1.04.75-1.03.74-1.04.75M42.88 319.79l1.03-.74 1.04-.75 1.03-.74 1.04-.75 1.03-.74 1.04-.75 1.03-.74 1.04-.75 1.03-.74 1.04-.75 1.04-.74 1.03-.75 1.04-.75 1.03-.74 1.04-.75 1.03-.74 1.04-.75 1.03-.74 1.04-.75 1.03-.74 1.04-.75 1.03-.74 1.04-.75 1.03-.74 1.04-.75 1.03-.75 1.04-.74 1.03-.75 1.04-.74 1.04-.75 1.03-.74 1.04-.75 1.03-.74 1.04-.75 1.03-.74 1.04-.75 1.03-.75 1.04-.74 1.03-.75 1.04-.74 1.03-.75 1.04-.74 1.03-.75 1.04-.74 1.03-.75 1.04-.74 1.04-.75 1.03-.74 1.04-.75 1.03-.75 1.04-.74 1.03-.75 1.04-.74 1.03-.75 1.04-.74 1.03-.75 1.04-.74 1.03-.75 1.04-.74 1.03-.75 1.04-.74 1.03-.75 1.04-.75 1.04-.74 1.03-.75 1.04-.74 1.03-.75 1.04-.74 1.03-.75 1.04-.74 1.03-.75 1.04-.74 1.03-.75 1.04-.74 1.03-.75 1.04-.75 1.03-.74 1.04-.75 1.03-.74 1.04-.75 1.03-.74 1.04-.75 1.04-.74 1.03-.75 1.04-.74 1.03-.75 1.04-.75 1.03-.74 1.04-.75 1.03-.74 1.04-.75 1.03-.74 1.04-.75 1.03-.74 1.04-.75 1.03-.74 1.04-.75 1.03-.74 1.04-.75" style="stroke-width:1.07;stroke:#000000;stroke-opacity:0.10;stroke-linecap:butt"/><path d="m247.86 172.2-.96 1.92-.97 1.88-.96 1.87-.97 1.84-.97 1.82-.97 1.79-.97 1.78-.98 1.74-.97 1.72-.98 1.7-.97 1.68-.98 1.65-.99 1.63-.98 1.6-.98 1.58-.99 1.56-.98 1.53-.99 1.51-.99 1.48-.99 1.46-1 1.44-.99 1.41-1 1.39-.99 1.37-1 1.34-1 1.31-1 1.3-1.01 1.27-1 1.24-1.01 1.23-1 1.19-1.01 1.18-1.01 1.15-1.01 1.13-1.02 1.1-1.01 1.08-1.02 1.05-1.02 1.04-1.02 1-1.02.99-1.02.96-1.02.93-1.03.92-1.02.88-1.03.87-1.03.84-1.03.82-1.03.79-1.04.77-1.03.74-1.04.73-1.04.69-1.04.68-1.04.65-1.04.62-1.05.61-1.04.58-1.05.55-1.05.53-1.05.51-1.05.48-1.05.46-1.06.44-1.05.41-1.06.39-1.06.36-1.06.34-1.06.32-1.06.29-1.07.27-1.06.24-1.07.22-1.07.2-1.07.17-1.07.15-1.08.13-1.07.1-1.08.08-1.07.05-1.08.03-1.08.01-1.09-.02-1.08-.04-1.09-.06-1.08-.09-1.09-.12-1.09-.13-1.09-.16-1.09-.19-1.1-.2-1.09-.24-1.1-.25-1.1-.28-1.1-.31-1.1-.32-1.1-.35-1.11-.38-1.1-.4-1.11-.42" style="stroke-width:1.07;stroke:#000000;stroke-opacity:0.10;stroke-linecap:butt"/><path d="m247.86 163.22 7.78 13.47h-15.56zM42.88 317.58l1.91 3.32h-3.83z" style="stroke-width:0.71;stroke:none;fill:#00BFC4"/><circle cx="145.37" cy="246" r="6.76" style="stroke-width:0.71;stroke:none;fill:#F8766D"/><path d="m243.08 175.44 3.79-2.57M45.25 312.58l-2.06 6.25m108.02-77.36-4.91 3.81" style="stroke-width:0.53;stroke:#BFBFBF"/><path d="M178.35 190h62.57-.08l.34-.01.34-.07.33-.13.3-.17.27-.22.23-.26.19-.29.13-.32.08-.34.03-.35h0v-15.15h0l-.03-.35-.08-.34-.13-.32-.19-.29-.23-.26-.27-.22-.3-.18-.33-.12-.34-.07-.26-.01h-62.57l.26.01-.34-.01-.35.04-.33.1-.32.15-.28.19-.25.24-.21.28-.16.31-.11.33-.06.34-.01.18v15.15l.01-.17v.35l.06.34.11.33.16.31.21.28.25.24.28.19.32.15.33.1.35.04z" style="stroke-width:0.53;fill:#FFFFFF;fill-opacity:0.50"/><text x="209.64" y="178.21" lengthAdjust="spacingAndGlyphs" style="font-size:5.69px;font-family:Arial" text-anchor="middle" textLength="59.69">WISCONSIN MODERN</text><text x="209.64" y="186.4" lengthAdjust="spacingAndGlyphs" style="font-size:5.69px;font-family:Arial" text-anchor="middle" textLength="40.75">LANDSCAPING</text><path d="M47.41 315.24h53.11-.09l.35-.01.34-.07.32-.13.3-.17.27-.22.23-.26.19-.29.14-.32.08-.34.03-.35h0v-6.96h0l-.03-.35-.08-.33-.14-.32-.19-.3-.23-.26-.27-.22-.3-.17-.32-.12-.34-.07-.26-.02H47.41l.26.02-.35-.02-.34.04-.34.1-.31.15-.29.2-.25.24-.21.28-.16.3-.11.33-.05.35-.01.17v6.96l.01-.17v.35l.05.34.11.33.16.31.21.28.25.24.29.19.31.15.34.1.34.04z" style="stroke-width:0.53;fill:#FFFFFF;fill-opacity:0.50"/><text x="73.96" y="311.64" lengthAdjust="spacingAndGlyphs" style="font-size:5.69px;font-family:Arial" text-anchor="middle" textLength="50.23">GUSTAVO MUNOZ</text><path d="M132.43 241.47h64.49l-.09-.01.35-.01.34-.07.33-.12.3-.18.27-.22.23-.26.18-.29.14-.32.08-.34.03-.34h0v-15.16h0l-.03-.35-.08-.33-.14-.32-.18-.3-.23-.26-.27-.22-.3-.17-.33-.13-.34-.06-.26-.02h-64.49l.26.02-.35-.02-.34.04-.34.1-.31.15-.29.2-.25.24-.21.28-.16.3-.11.33-.05.35-.01.17v15.16l.01-.18v.35l.05.34.11.33.16.31.21.28.25.24.29.2.31.15.34.09.34.04z" style="stroke-width:0.53;fill:#FFFFFF;fill-opacity:0.50"/><text x="164.67" y="229.67" lengthAdjust="spacingAndGlyphs" style="font-size:5.69px;font-family:Arial" text-anchor="middle" textLength="51.81">4528 W SUMAC PL,</text><text x="164.67" y="237.87" lengthAdjust="spacingAndGlyphs" style="font-size:5.69px;font-family:Arial" text-anchor="middle" textLength="61.61">MILWAUKEE, WI 53219</text></g><g clip-path="url(#cpMC4wMHwyODguMDB8MC4wMHwzNjAuMDA=)"><circle cx="87.34" cy="135.59" r="1.95" style="stroke-width:0.71;stroke:none;fill:#F8766D"/><path d="m163.7 132.55 2.63 4.56h-5.26z" style="stroke-width:0.71;stroke:none;fill:#00BFC4"/><text x="101.46" y="138.74" lengthAdjust="spacingAndGlyphs" style="font-size:8.80px;font-family:Arial Narrow" textLength="48.12">mprop address</text><text x="177.82" y="138.74" lengthAdjust="spacingAndGlyphs" style="font-size:8.80px;font-family:Arial Narrow" textLength="39.69">owner name</text><text x="32.63" y="104" lengthAdjust="spacingAndGlyphs" style="font-size:12.00px;font-family:Arial Narrow" textLength="241.29">includes 4 parcels, 5 units, and 2 distinct owner names.</text><text x="32.63" y="42.78" lengthAdjust="spacingAndGlyphs" style="font-size:18.00px;font-weight:bold;font-family:Arial Narrow" textLength="154.97">WISCONSIN MODERN</text><text x="32.63" y="62.22" lengthAdjust="spacingAndGlyphs" style="font-size:18.00px;font-weight:bold;font-family:Arial Narrow" textLength="197.07">LANDSCAPING -- GUSTAVO</text><text x="32.63" y="81.66" lengthAdjust="spacingAndGlyphs" style="font-size:18.00px;font-weight:bold;font-family:Arial Narrow" textLength="102.48">MUNOZ Group</text></g></svg>