<svg xmlns="http://www.w3.org/2000/svg" width="768" height="768" viewBox="0 0 576 576"><g class="svglite"><defs><style><![CDATA[.svglite line,.svglite polyline,.svglite polygon,.svglite path,.svglite circle{fill:none;stroke:#000000;stroke-linecap:round;stroke-linejoin:round;stroke-miterlimit:10.00}.svglite text{white-space:pre}.svglite g.glyphgroup path{fill:inherit;stroke:none}]]></style></defs><rect width="100%" height="100%" style="stroke-linecap:round;stroke-linejoin:round;stroke-miterlimit:10.00;stroke:none;fill:#FFFFFF"/><defs><clipPath id="cpMC4wMHw1NzYuMDB8MC4wMHw1NzYuMDA="><path d="M0 0h576v576H0z"/></clipPath></defs><g clip-path="url(#cpMC4wMHw1NzYuMDB8MC4wMHw1NzYuMDA=)"><path d="M0 0h576v576H0z" style="stroke-width:1.07;stroke:none;fill:#FFFFFF"/></g><defs><clipPath id="cpMjkuODl8NTQ2LjExfDEyMi4xNHw1NDYuMTE="><path d="M29.89 122.14h516.22v423.97H29.89z"/></clipPath></defs><g clip-path="url(#cpMjkuODl8NTQ2LjExfDEyMi4xNHw1NDYuMTE=)"><path d="m302.68 495.67-.92-1.62-.93-1.62-.93-1.63-.92-1.62-.93-1.62-.92-1.62-.93-1.63-.92-1.62-.93-1.62-.92-1.62-.93-1.63-.92-1.62-.93-1.62-.93-1.63-.92-1.62-.93-1.62-.92-1.62-.93-1.63-.92-1.62-.93-1.62-.92-1.63-.93-1.62-.92-1.62-.93-1.62-.93-1.63-.92-1.62-.93-1.62-.92-1.62-.93-1.63-.92-1.62-.93-1.62-.92-1.63-.93-1.62-.92-1.62-.93-1.62-.93-1.63-.92-1.62-.93-1.62-.92-1.63-.93-1.62-.92-1.62-.93-1.62-.92-1.63-.93-1.62-.92-1.62-.93-1.62-.92-1.63-.93-1.62-.93-1.62-.92-1.63-.93-1.62-.92-1.62-.93-1.62-.92-1.63-.93-1.62-.92-1.62-.93-1.63-.92-1.62-.93-1.62-.93-1.62-.92-1.63-.93-1.62-.92-1.62-.93-1.62-.92-1.63-.93-1.62-.92-1.62-.93-1.63-.92-1.62-.93-1.62-.93-1.62-.92-1.63-.93-1.62-.92-1.62-.93-1.63-.92-1.62-.93-1.62-.92-1.62-.93-1.63-.92-1.62-.93-1.62-.93-1.62-.92-1.63-.93-1.62-.92-1.62-.93-1.63-.92-1.62-.93-1.62-.92-1.62-.93-1.63-.92-1.62-.93-1.62-.93-1.63-.92-1.62-.93-1.62-.92-1.62-.93-1.63-.92-1.62-.93-1.62m89.56-137.5-.9 1.39-.91 1.39-.9 1.38-.91 1.39-.9 1.39-.91 1.39-.9 1.39-.91 1.39-.9 1.39-.9 1.39-.91 1.39-.9 1.38-.91 1.39-.9 1.39-.91 1.39-.9 1.39-.91 1.39-.9 1.39-.91 1.39-.9 1.39-.91 1.38-.9 1.39-.9 1.39-.91 1.39-.9 1.39-.91 1.39-.9 1.39-.91 1.39-.9 1.39-.91 1.38-.9 1.39-.91 1.39-.9 1.39-.91 1.39-.9 1.39-.91 1.39-.9 1.39-.9 1.39-.91 1.38-.9 1.39-.91 1.39-.9 1.39-.91 1.39-.9 1.39-.91 1.39-.9 1.39-.91 1.39-.9 1.38-.91 1.39-.9 1.39-.91 1.39-.9 1.39-.9 1.39-.91 1.39-.9 1.39-.91 1.39-.9 1.38-.91 1.39-.9 1.39-.91 1.39-.9 1.39-.91 1.39-.9 1.39-.91 1.39-.9 1.39-.9 1.38-.91 1.39-.9 1.39-.91 1.39-.9 1.39-.91 1.39-.9 1.39-.91 1.39-.9 1.39-.91 1.38-.9 1.39-.91 1.39-.9 1.39-.91 1.39-.9 1.39-.9 1.39-.91 1.39-.9 1.39-.91 1.38-.9 1.39-.91 1.39-.9 1.39-.91 1.39-.9 1.39-.91 1.39-.9 1.39-.91 1.39-.9 1.38-.9 1.39-.91 1.39-.9 1.39-.91 1.39-.9 1.39-.91 1.39m132.79 70.69-1.34-.71-1.34-.72-1.34-.71-1.35-.71-1.34-.72-1.34-.71-1.34-.72-1.34-.71-1.34-.71-1.34-.72-1.34-.71-1.35-.72-1.34-.71-1.34-.72-1.34-.71-1.34-.71-1.34-.72-1.34-.71-1.34-.72-1.35-.71-1.34-.71-1.34-.72-1.34-.71-1.34-.72-1.34-.71-1.34-.71-1.35-.72-1.34-.71-1.34-.72-1.34-.71-1.34-.71-1.34-.72-1.34-.71-1.34-.72-1.35-.71-1.34-.72-1.34-.71-1.34-.71-1.34-.72-1.34-.71-1.34-.72-1.34-.71-1.35-.71-1.34-.72-1.34-.71-1.34-.72-1.34-.71-1.34-.71-1.34-.72-1.34-.71-1.35-.72-1.34-.71-1.34-.71-1.34-.72-1.34-.71-1.34-.72-1.34-.71-1.35-.71-1.34-.72-1.34-.71-1.34-.72-1.34-.71-1.34-.72-1.34-.71-1.34-.71-1.35-.72-1.34-.71-1.34-.72-1.34-.71-1.34-.71-1.34-.72-1.34-.71-1.34-.72-1.35-.71-1.34-.71-1.34-.72-1.34-.71-1.34-.72-1.34-.71-1.34-.71-1.34-.72-1.35-.71-1.34-.72-1.34-.71-1.34-.71-1.34-.72-1.34-.71-1.34-.72-1.35-.71-1.34-.72-1.34-.71-1.34-.71-1.34-.72-1.34-.71-1.34-.72-1.34-.71-1.35-.71-1.34-.72-1.34-.71m18.06-193.61-.18 1.95-.18 1.96-.18 1.96-.19 1.95-.18 1.96-.18 1.95-.18 1.96-.19 1.95-.18 1.96-.18 1.96-.18 1.95-.19 1.96-.18 1.95-.18 1.96-.18 1.95-.19 1.96-.18 1.95-.18 1.96-.18 1.96-.19 1.95-.18 1.96-.18 1.95-.18 1.96-.18 1.95-.19 1.96-.18 1.96-.18 1.95-.18 1.96-.19 1.95-.18 1.96-.18 1.95-.18 1.96-.19 1.96-.18 1.95-.18 1.96-.18 1.95-.19 1.96-.18 1.95-.18 1.96-.18 1.95-.19 1.96-.18 1.96-.18 1.95-.18 1.96-.19 1.95-.18 1.96-.18 1.95-.18 1.96-.19 1.96-.18 1.95-.18 1.96-.18 1.95-.19 1.96-.18 1.95-.18 1.96-.18 1.96-.19 1.95-.18 1.96-.18 1.95-.18 1.96-.19 1.95-.18 1.96-.18 1.95-.18 1.96-.18 1.96-.19 1.95-.18 1.96-.18 1.95-.18 1.96-.19 1.95-.18 1.96-.18 1.96-.18 1.95-.19 1.96-.18 1.95-.18 1.96-.18 1.95-.19 1.96-.18 1.96-.18 1.95-.18 1.96-.19 1.95-.18 1.96-.18 1.95-.18 1.96-.19 1.95-.18 1.96-.18 1.96-.18 1.95-.19 1.96-.18 1.95-.18 1.96-.18 1.95-.19 1.96-.18 1.96-.18 1.95-.18 1.96-.19 1.95-.18 1.96M378 284.86l-1.68.51-1.69.5-1.68.51-1.69.51-1.69.5-1.68.51-1.69.51-1.69.5-1.68.51-1.69.51-1.68.5-1.69.51-1.69.51-1.68.5-1.69.51-1.69.51-1.68.5-1.69.51-1.68.51-1.69.5-1.69.51-1.68.51-1.69.5-1.69.51-1.68.51-1.69.5-1.69.51-1.68.51-1.69.5-1.68.51-1.69.51-1.69.5-1.68.51-1.69.51-1.69.5-1.68.51-1.69.51-1.68.5-1.69.51-1.69.51-1.68.5-1.69.51-1.69.51-1.68.5-1.69.51-1.68.51-1.69.5-1.69.51-1.68.51-1.69.5-1.69.51-1.68.51-1.69.5-1.68.51-1.69.51-1.69.5-1.68.51-1.69.51-1.69.5-1.68.51-1.69.51-1.69.5-1.68.51-1.69.51-1.68.5-1.69.51-1.69.51-1.68.5-1.69.51-1.69.51-1.68.5-1.69.51-1.68.51-1.69.5-1.69.51-1.68.51-1.69.5-1.69.51-1.68.51-1.69.5-1.68.51-1.69.51-1.69.5-1.68.51-1.69.5-1.69.51-1.68.51-1.69.5-1.69.51-1.68.51-1.69.5-1.68.51-1.69.51-1.69.5-1.68.51-1.69.51-1.69.5-1.68.51-1.69.51" style="stroke-width:1.07;stroke:#000000;stroke-opacity:0.10;stroke-linecap:butt"/><path d="m143.94 160.69.68 1.76.68 1.76.68 1.76.68 1.76.67 1.76.68 1.76.68 1.76.68 1.76.68 1.76.67 1.76.68 1.77.68 1.76.68 1.76.68 1.76.67 1.76.68 1.76.68 1.76.68 1.76.68 1.76.67 1.76.68 1.77.68 1.76.68 1.76.68 1.76.67 1.76.68 1.76.68 1.76.68 1.76.68 1.76.67 1.76.68 1.76.68 1.77.68 1.76.68 1.76.67 1.76.68 1.76.68 1.76.68 1.76.67 1.76.68 1.76.68 1.76.68 1.76.68 1.77.67 1.76.68 1.76.68 1.76.68 1.76.68 1.76.67 1.76.68 1.76.68 1.76.68 1.76.68 1.77.67 1.76.68 1.76.68 1.76.68 1.76.68 1.76.67 1.76.68 1.76.68 1.76.68 1.76.68 1.76.67 1.77.68 1.76.68 1.76.68 1.76.68 1.76.67 1.76.68 1.76.68 1.76.68 1.76.68 1.76.67 1.76.68 1.77.68 1.76.68 1.76.67 1.76.68 1.76.68 1.76.68 1.76.68 1.76.67 1.76.68 1.76.68 1.77.68 1.76.68 1.76.67 1.76.68 1.76.68 1.76.68 1.76.68 1.76.67 1.76.68 1.76.68 1.76.68 1.77.68 1.76.67 1.76.68 1.76" style="stroke-width:1.07;stroke:#000000;stroke-opacity:0.10;stroke-linecap:butt"/><path d="m79.09 228.81 1.33 1.07 1.34 1.07 1.33 1.07 1.33 1.08 1.33 1.07 1.34 1.07 1.33 1.08 1.33 1.07 1.34 1.07 1.33 1.07 1.33 1.08 1.34 1.07 1.33 1.07 1.33 1.08 1.34 1.07 1.33 1.07 1.33 1.07 1.33 1.08 1.34 1.07 1.33 1.07 1.33 1.08 1.34 1.07 1.33 1.07 1.33 1.07 1.34 1.08 1.33 1.07 1.33 1.07 1.33 1.08 1.34 1.07 1.33 1.07 1.33 1.07 1.34 1.08 1.33 1.07 1.33 1.07 1.34 1.08 1.33 1.07 1.33 1.07 1.34 1.07 1.33 1.08 1.33 1.07 1.33 1.07 1.34 1.08 1.33 1.07 1.33 1.07 1.34 1.07 1.33 1.08 1.33 1.07 1.34 1.07 1.33 1.08 1.33 1.07 1.34 1.07 1.33 1.07 1.33 1.08 1.33 1.07 1.34 1.07 1.33 1.08 1.33 1.07 1.34 1.07 1.33 1.07 1.33 1.08 1.34 1.07 1.33 1.07 1.33 1.08 1.34 1.07 1.33 1.07 1.33 1.07 1.33 1.08 1.34 1.07 1.33 1.07 1.33 1.08 1.34 1.07 1.33 1.07 1.33 1.07 1.34 1.08 1.33 1.07 1.33 1.07 1.33 1.08 1.34 1.07 1.33 1.07 1.33 1.07 1.34 1.08 1.33 1.07 1.33 1.07 1.34 1.08 1.33 1.07 1.33 1.07 1.34 1.07 1.33 1.08 1.33 1.07 1.33 1.07 1.34 1.08 1.33 1.07 1.33 1.07 1.34 1.07 1.33 1.08 1.33 1.07 1.34 1.07 1.33 1.08 1.33 1.07m-157.71-6.54 1.6.07 1.59.06 1.59.07 1.59.06 1.6.07 1.59.07 1.59.06 1.6.07 1.59.06 1.59.07 1.6.07 1.59.06 1.59.07 1.59.06 1.6.07 1.59.07 1.59.06 1.6.07 1.59.07 1.59.06 1.6.07 1.59.06 1.59.07 1.6.07 1.59.06 1.59.07 1.59.06 1.6.07 1.59.07 1.59.06 1.6.07 1.59.06 1.59.07 1.6.07 1.59.06 1.59.07 1.59.06 1.6.07 1.59.07 1.59.06 1.6.07 1.59.06 1.59.07 1.6.07 1.59.06 1.59.07 1.59.06 1.6.07 1.59.07 1.59.06 1.6.07 1.59.06 1.59.07 1.6.07 1.59.06 1.59.07 1.59.06 1.6.07 1.59.07 1.59.06 1.6.07 1.59.06 1.59.07 1.6.07 1.59.06 1.59.07 1.6.06 1.59.07 1.59.07 1.59.06 1.6.07 1.59.07 1.59.06 1.6.07 1.59.06 1.59.07 1.6.07 1.59.06 1.59.07 1.59.06 1.6.07 1.59.07 1.59.06 1.6.07 1.59.06 1.59.07 1.6.07 1.59.06 1.59.07 1.59.06 1.6.07 1.59.07 1.59.06 1.6.07 1.59.06 1.59.07 1.6.07 1.59.06 1.59.07M74.43 429.99l1.38-.96 1.38-.95 1.38-.96 1.38-.96 1.38-.96 1.38-.96 1.38-.96 1.38-.96 1.38-.96 1.38-.96 1.38-.96 1.38-.96 1.38-.96 1.38-.96 1.38-.96 1.38-.96 1.38-.96 1.38-.95 1.38-.96 1.38-.96 1.38-.96 1.38-.96 1.38-.96 1.38-.96 1.38-.96 1.38-.96 1.38-.96 1.38-.96 1.38-.96 1.38-.96 1.38-.96 1.38-.96 1.38-.95 1.38-.96 1.38-.96 1.38-.96 1.38-.96 1.38-.96 1.38-.96 1.38-.96 1.39-.96 1.38-.96 1.38-.96 1.38-.96 1.38-.96 1.38-.96 1.38-.96 1.38-.95 1.38-.96 1.38-.96 1.38-.96 1.38-.96 1.38-.96 1.38-.96 1.38-.96 1.38-.96 1.38-.96 1.38-.96 1.38-.96 1.38-.96 1.38-.96 1.38-.96 1.38-.96 1.38-.95 1.38-.96 1.38-.96 1.38-.96 1.38-.96 1.38-.96 1.38-.96 1.38-.96 1.38-.96 1.38-.96 1.38-.96 1.38-.96 1.38-.96 1.38-.96 1.38-.96 1.38-.95 1.38-.96 1.38-.96 1.38-.96 1.38-.96 1.38-.96 1.38-.96 1.38-.96 1.38-.96 1.38-.96 1.38-.96 1.38-.96 1.38-.96 1.38-.96 1.38-.96 1.38-.95 1.38-.96 1.38-.96 1.38-.96 1.38-.96 1.38-.96" style="stroke-width:1.07;stroke:#000000;stroke-opacity:0.10;stroke-linecap:butt"/><path d="m136.11 503.4.75-1.7.76-1.7.76-1.7.75-1.7.76-1.7.76-1.7.76-1.7.75-1.7.76-1.7.76-1.7.75-1.7.76-1.71.76-1.7.76-1.7.75-1.7.76-1.7.76-1.7.75-1.7.76-1.7.76-1.7.76-1.7.75-1.7.76-1.71.76-1.7.75-1.7.76-1.7.76-1.7.76-1.7.75-1.7.76-1.7.76-1.7.75-1.7.76-1.7.76-1.7.76-1.71.75-1.7.76-1.7.76-1.7.75-1.7.76-1.7.76-1.7.76-1.7.75-1.7.76-1.7.76-1.7.75-1.71.76-1.7.76-1.7.76-1.7.75-1.7.76-1.7.76-1.7.75-1.7.76-1.7.76-1.7.76-1.7.75-1.71.76-1.7.76-1.7.75-1.7.76-1.7.76-1.7.75-1.7.76-1.7.76-1.7.76-1.7.75-1.7.76-1.7.76-1.71.75-1.7.76-1.7.76-1.7.76-1.7.75-1.7.76-1.7.76-1.7.75-1.7.76-1.7.76-1.7.76-1.71.75-1.7.76-1.7.76-1.7.75-1.7.76-1.7.76-1.7.76-1.7.75-1.7.76-1.7.76-1.7.75-1.7.76-1.71.76-1.7.76-1.7.75-1.7.76-1.7.76-1.7.75-1.7.76-1.7m8.91 191.82-.09-1.94-.09-1.93-.09-1.94-.09-1.94-.09-1.94-.09-1.94-.09-1.93-.09-1.94-.09-1.94-.09-1.94-.09-1.93-.09-1.94-.09-1.94-.09-1.94-.09-1.93-.09-1.94-.09-1.94-.09-1.94-.09-1.93-.09-1.94-.09-1.94-.09-1.94-.09-1.93-.09-1.94-.09-1.94-.09-1.94-.09-1.93-.09-1.94-.09-1.94-.09-1.94-.09-1.94-.09-1.93-.09-1.94-.09-1.94-.09-1.94-.09-1.93-.09-1.94-.09-1.94-.09-1.94-.09-1.93-.09-1.94-.09-1.94-.09-1.94-.09-1.93-.09-1.94-.09-1.94-.09-1.94-.09-1.93-.09-1.94-.09-1.94-.09-1.94-.09-1.93-.09-1.94-.09-1.94-.09-1.94-.09-1.94-.09-1.93-.09-1.94-.09-1.94-.09-1.94-.09-1.93-.09-1.94-.09-1.94-.09-1.94-.09-1.93-.09-1.94-.09-1.94-.09-1.94-.09-1.93-.09-1.94-.09-1.94-.09-1.94-.09-1.93-.09-1.94-.09-1.94-.09-1.94-.09-1.93-.09-1.94-.09-1.94-.09-1.94-.09-1.93-.09-1.94-.09-1.94-.09-1.94-.09-1.94-.09-1.93-.09-1.94-.09-1.94-.09-1.94-.09-1.93-.09-1.94-.09-1.94-.09-1.94-.09-1.93-.09-1.94-.09-1.94-.09-1.94-.09-1.93-.09-1.94M378 284.86l1.47-.44 1.46-.44 1.46-.44 1.46-.44 1.46-.44 1.46-.44 1.46-.43 1.46-.44 1.46-.44 1.47-.44 1.46-.44 1.46-.44 1.46-.44 1.46-.44 1.46-.44 1.46-.44 1.46-.43 1.46-.44 1.46-.44 1.47-.44 1.46-.44 1.46-.44 1.46-.44 1.46-.44 1.46-.44 1.46-.43 1.46-.44 1.46-.44 1.46-.44 1.47-.44 1.46-.44 1.46-.44 1.46-.44 1.46-.44 1.46-.44 1.46-.43 1.46-.44 1.46-.44 1.47-.44 1.46-.44 1.46-.44 1.46-.44 1.46-.44 1.46-.44 1.46-.44 1.46-.43 1.46-.44 1.46-.44 1.47-.44 1.46-.44 1.46-.44 1.46-.44 1.46-.44 1.46-.44 1.46-.44 1.46-.43 1.46-.44 1.46-.44 1.47-.44 1.46-.44 1.46-.44 1.46-.44 1.46-.44 1.46-.44 1.46-.44 1.46-.43 1.46-.44 1.47-.44 1.46-.44 1.46-.44 1.46-.44 1.46-.44 1.46-.44 1.46-.44 1.46-.44 1.46-.43 1.46-.44 1.47-.44 1.46-.44 1.46-.44 1.46-.44 1.46-.44 1.46-.44 1.46-.44 1.46-.43 1.46-.44 1.46-.44 1.47-.44 1.46-.44 1.46-.44 1.46-.44 1.46-.44 1.46-.44 1.46-.44 1.46-.43 1.46-.44 1.47-.44 1.46-.44 1.46-.44" style="stroke-width:1.07;stroke:#000000;stroke-opacity:0.10;stroke-linecap:butt"/><path d="m302.68 493.46 1.92 3.32h-3.83zm-2.06-298.15 1.92 3.31h-3.83zm43.23 208.19 1.91 3.32h-3.82zM229.12 139.2l1.92 3.31h-3.83zM378 280.02l4.19 7.26h-8.37zM143.94 158.48l1.92 3.31h-3.83zM79.09 226.6l1.91 3.31h-3.82zm-25.74 99.67 1.92 3.32h-3.83zm21.08 101.51 1.91 3.32h-3.82zm61.68 73.41 1.91 3.32h-3.83zm83.86 23.44 1.91 3.32h-3.82z" style="stroke-width:0.71;stroke:none;fill:#00BFC4"/><circle cx="211.06" cy="335.02" r="6.76" style="stroke-width:0.71;stroke:none;fill:#F8766D"/><circle cx="522.65" cy="241.4" r="1.42" style="stroke-width:0.71;stroke:none;fill:#F8766D"/><path d="m298.76 500.35 3.2-3.81m3.88-303.74-4.36 3.94m37.2 213.64 4.31-3.89M225.3 146.17l3.12-3.89m154.81 137.85-4.37 3.95m-229.72-128.1-4.34 3.93m-60.54 64.22-4.31 3.9M58.49 333.11l-4.28-3.86M69.23 434.7l4.34-3.93m67.67 68-4.28 3.86m88.17 19.54-4.3 3.9m-15.24-186.41 4.58-3.89m307.11-99 4.49 3.87" style="stroke-width:0.53;stroke:#BFBFBF"/><path d="M270.55 511.47h53.47-.09l.35-.01.34-.07.33-.13.3-.17.27-.22.23-.26.18-.3.14-.32.08-.33.03-.35h0v-6.8h0l-.03-.34-.08-.34-.14-.32-.18-.29-.23-.26-.27-.22-.3-.18-.33-.12-.34-.07-.26-.02h-53.47l.26.02-.35-.01-.34.04-.34.09-.31.15-.29.2-.25.24-.21.28-.16.31-.11.33-.06.34v6.97-.17.34l.06.35.11.33.16.31.21.27.25.24.29.2.31.15.34.1.34.04z" style="stroke-width:0.53;fill:#FFFFFF;fill-opacity:0.50"/><text x="297.28" y="507.87" lengthAdjust="spacingAndGlyphs" style="font-size:5.69px;font-family:&quot;Liberation Sans&quot;" text-anchor="middle" textLength="50.59">PHINA ASHKENAZI</text><path d="M300.13 192.8h25.95-.09l.35-.02.34-.07.32-.12.3-.18.27-.21.23-.27.19-.29.14-.32.08-.34.03-.34h0v-6.8h0l-.03-.35-.08-.33-.14-.32-.19-.3-.23-.26-.27-.22-.3-.17-.32-.12-.34-.07-.26-.02h-25.95l.27.02-.35-.02-.35.04-.33.1-.32.15-.28.2-.25.24-.21.28-.16.3-.11.33-.06.35-.01.17v6.8l.01-.18v.35l.06.34.11.33.16.31.21.28.25.24.28.2.32.15.33.09.35.05z" style="stroke-width:0.53;fill:#FFFFFF;fill-opacity:0.50"/><text x="313.11" y="189.2" lengthAdjust="spacingAndGlyphs" style="font-size:5.69px;font-family:&quot;Liberation Sans&quot;" text-anchor="middle" textLength="23.06">ORI RAZ</text><path d="M312.69 421.5h37.53-.08l.34-.02.35-.07.32-.12.3-.17.27-.22.23-.26.19-.3.13-.32.09-.33.02-.35h0v-6.8h0l-.02-.34-.09-.34-.13-.32-.19-.3-.23-.26-.27-.22-.3-.17-.32-.12-.35-.07-.26-.02h-37.53l.26.02-.35-.02-.34.05-.34.09-.31.15-.29.2-.25.24-.21.28-.16.31-.11.32-.06.35v6.97-.18.35l.06.35.11.33.16.3.21.28.25.24.29.2.31.15.34.09.34.05z" style="stroke-width:0.53;fill:#FFFFFF;fill-opacity:0.50"/><text x="331.46" y="417.9" lengthAdjust="spacingAndGlyphs" style="font-size:5.69px;font-family:&quot;Liberation Sans&quot;" text-anchor="middle" textLength="34.66">EYAL ATTIAS</text><path d="M196.36 157.28h55.35-.09l.35-.01.34-.07.33-.12.3-.18.27-.22.23-.26.18-.29.14-.32.08-.34.03-.35h0v-6.79h0l-.03-.35-.08-.34-.14-.32-.18-.29-.23-.26-.27-.22-.3-.17-.33-.13-.34-.07-.26-.01h-55.35l.26.01-.35-.01-.34.04-.33.1-.32.15-.28.19-.26.25-.2.27-.17.31-.11.33-.05.34-.01.18v6.79l.01-.17v.35l.05.34.11.33.17.31.2.28.26.24.28.2.32.14.33.1.34.04z" style="stroke-width:0.53;fill:#FFFFFF;fill-opacity:0.50"/><text x="224.04" y="153.68" lengthAdjust="spacingAndGlyphs" style="font-size:5.69px;font-family:&quot;Liberation Sans&quot;" text-anchor="middle" textLength="52.47">AHARON RICHMAN</text><path d="M367.75 280.13h45.46-.09l.35-.02.34-.07.32-.12.3-.17.27-.22.23-.26.19-.3.14-.32.08-.33.03-.35h0v-6.8h0l-.03-.34-.08-.34-.14-.32-.19-.3-.23-.26-.27-.22-.3-.17-.32-.12-.34-.07-.26-.02h-45.46l.26.02-.35-.02-.34.05-.34.09-.31.15-.29.2-.25.24-.21.28-.16.31-.11.33-.05.34-.01.17v6.8l.01-.17v.34l.05.35.11.33.16.3.21.28.25.24.29.2.31.15.34.1.34.04z" style="stroke-width:0.53;fill:#FFFFFF;fill-opacity:0.50"/><text x="390.48" y="276.53" lengthAdjust="spacingAndGlyphs" style="font-size:5.69px;font-family:&quot;Liberation Sans&quot;" text-anchor="middle" textLength="42.58">YANIV SHARON</text><path d="M127.87 155.98h56.8-.09l.35-.02.34-.07.33-.12.3-.18.27-.22.23-.26.18-.29.14-.32.08-.34.03-.34h0v-6.8h0l-.03-.35-.08-.33-.14-.32-.18-.3-.23-.26-.27-.22-.3-.17-.33-.12-.34-.07-.26-.02h-56.8l.26.02-.35-.02-.34.04-.34.1-.31.15-.29.2-.25.24-.21.28-.16.3-.11.33-.05.35-.01.17v6.8l.01-.18v.35l.05.34.11.33.16.31.21.28.25.24.29.2.31.15.34.09.34.05z" style="stroke-width:0.53;fill:#FFFFFF;fill-opacity:0.50"/><text x="156.27" y="152.38" lengthAdjust="spacingAndGlyphs" style="font-size:5.69px;font-family:&quot;Liberation Sans&quot;" text-anchor="middle" textLength="53.92">TZMN PROPERTIES</text><path d="M63.13 224.13h56.74-.08l.34-.01.34-.07.33-.12.3-.18.27-.22.23-.26.19-.29.13-.32.09-.34.02-.35h0v-6.79h0l-.02-.35-.09-.34-.13-.32-.19-.29-.23-.26-.27-.22-.3-.17-.33-.13-.34-.07-.26-.01H63.13l.26.01-.34-.01-.35.04-.33.1-.32.15-.28.2-.25.24-.21.27-.16.31-.11.33-.06.34-.01.18v6.79l.01-.17v.35l.06.34.11.33.16.31.21.28.25.24.28.2.32.14.33.1.35.04z" style="stroke-width:0.53;fill:#FFFFFF;fill-opacity:0.50"/><text x="91.5" y="220.53" lengthAdjust="spacingAndGlyphs" style="font-size:5.69px;font-family:&quot;Liberation Sans&quot;" text-anchor="middle" textLength="53.86">NAVA PNINA ENGEL</text><path d="M46.98 344.22h37.66-.08l.34-.01.35-.07.32-.13.3-.17.27-.22.23-.26.19-.29.13-.32.09-.34.02-.35h0v-6.79h0l-.02-.35-.09-.34-.13-.32-.19-.29-.23-.26-.27-.22-.3-.18-.32-.12-.35-.07-.26-.01H46.98l.26.01-.34-.01-.35.04-.33.1-.32.15-.28.19-.25.24-.21.28-.16.31-.11.33-.06.34-.01.18v6.79l.01-.17v.35l.06.34.11.33.16.31.21.28.25.24.28.19.32.15.33.1.35.04z" style="stroke-width:0.53;fill:#FFFFFF;fill-opacity:0.50"/><text x="65.81" y="340.62" lengthAdjust="spacingAndGlyphs" style="font-size:5.69px;font-family:&quot;Liberation Sans&quot;" text-anchor="middle" textLength="34.78">NAAMA REIS</text><path d="M42.71 445.82h38.58l-.08-.01.34-.01.34-.07.33-.12.3-.18.27-.22.23-.26.18-.29.14-.32.08-.34.03-.34h0v-6.8h0l-.03-.35-.08-.33-.14-.32-.18-.3-.23-.26-.27-.22-.3-.17-.33-.13-.34-.06-.26-.02H42.71l.26.02-.35-.02-.34.04-.34.1-.31.15-.29.2-.25.24-.21.27-.16.31-.11.33-.05.35-.01.17v6.8l.01-.18v.35l.05.34.11.33.16.31.21.28.25.24.29.2.31.15.34.09.34.04z" style="stroke-width:0.53;fill:#FFFFFF;fill-opacity:0.50"/><text x="62" y="442.22" lengthAdjust="spacingAndGlyphs" style="font-size:5.69px;font-family:&quot;Liberation Sans&quot;" text-anchor="middle" textLength="35.7">EYAL AZMON</text><path d="M132.77 498.77h31.44-.09l.35-.02.34-.07.33-.12.3-.17.27-.22.23-.26.18-.3.14-.32.08-.33.03-.35h0v-6.8h0l-.03-.34-.08-.34-.14-.32-.18-.3-.23-.26-.27-.22-.3-.17-.33-.12-.34-.07-.26-.02h-31.44l.26.02-.35-.02-.34.05-.34.09-.31.15-.29.2-.25.24-.21.28-.16.31-.11.33-.05.34-.01.17v6.8l.01-.17v.34l.05.35.11.33.16.3.21.28.25.24.29.2.31.15.34.1.34.04z" style="stroke-width:0.53;fill:#FFFFFF;fill-opacity:0.50"/><text x="148.49" y="495.17" lengthAdjust="spacingAndGlyphs" style="font-size:5.69px;font-family:&quot;Liberation Sans&quot;" text-anchor="middle" textLength="28.56">ROY ARAV</text><path d="M205.7 522.17h53.13-.08l.34-.01.34-.07.33-.13.3-.17.27-.22.23-.26.18-.29.14-.32.08-.34.03-.35h0v-6.79h0l-.03-.35-.08-.34-.14-.32-.18-.29-.23-.26-.27-.22-.3-.18-.33-.12-.34-.07-.26-.01H205.7l.26.01-.34-.01-.35.04-.33.1-.32.14-.28.2-.25.24-.21.28-.17.31-.11.33-.05.34-.01.18v6.79l.01-.17v.35l.05.34.11.33.17.31.21.27.25.24.28.2.32.15.33.1.35.04z" style="stroke-width:0.53;fill:#FFFFFF;fill-opacity:0.50"/><text x="232.27" y="518.57" lengthAdjust="spacingAndGlyphs" style="font-size:5.69px;font-family:&quot;Liberation Sans&quot;" text-anchor="middle" textLength="50.25">ELIEZER GARDON</text><path d="M157.07 367.16h63.23-.09l.35-.02.34-.06.32-.13.3-.17.27-.22.23-.26.19-.3.14-.32.08-.33.03-.35h0v-23.18h0l-.03-.35-.08-.34-.14-.32-.19-.29-.23-.26-.27-.22-.3-.18-.32-.12-.34-.07-.26-.01h-63.23l.26.01-.34-.01-.35.04-.33.1-.32.14-.28.2-.25.24-.21.28-.16.31-.11.33-.06.34-.01.18V365l.01-.17v.34l.06.35.11.33.16.31.21.27.25.24.28.2.32.15.33.1.35.04z" style="stroke-width:0.53;fill:#FFFFFF;fill-opacity:0.50"/><text x="188.68" y="347.17" lengthAdjust="spacingAndGlyphs" style="font-size:5.69px;font-family:&quot;Liberation Sans&quot;" text-anchor="middle" textLength="55.2">4230 OAKLAND AVE,</text><text x="188.68" y="355.37" lengthAdjust="spacingAndGlyphs" style="font-size:5.69px;font-family:&quot;Liberation Sans&quot;" text-anchor="middle" textLength="60.34">STE 192, MILWAUKEE,</text><text x="188.68" y="363.56" lengthAdjust="spacingAndGlyphs" style="font-size:5.69px;font-family:&quot;Liberation Sans&quot;" text-anchor="middle" textLength="23.89">WI 53211</text><path d="M479.54 236.77h51.33-.09l.35-.02.34-.06.33-.13.3-.17.27-.22.23-.26.18-.3.14-.32.08-.33.03-.35h0v-14.99h0l-.03-.35-.08-.33-.14-.32-.18-.3-.23-.26-.27-.22-.3-.17-.33-.13-.34-.06-.26-.02h-51.33l.26.02-.35-.02-.34.04-.34.1-.31.15-.29.2-.25.24-.21.27-.16.31-.11.33-.05.35-.01.17v14.99l.01-.17v.34l.05.35.11.33.16.31.21.27.25.24.29.2.31.15.34.1.34.04z" style="stroke-width:0.53;fill:#FFFFFF;fill-opacity:0.50"/><text x="505.2" y="224.98" lengthAdjust="spacingAndGlyphs" style="font-size:5.69px;font-family:&quot;Liberation Sans&quot;" text-anchor="middle" textLength="48.45">8 YASMIN ST, BET</text><text x="505.2" y="233.17" lengthAdjust="spacingAndGlyphs" style="font-size:5.69px;font-family:&quot;Liberation Sans&quot;" text-anchor="middle" textLength="39.17">DAGAN, 50200</text></g><g clip-path="url(#cpMC4wMHw1NzYuMDB8MC4wMHw1NzYuMDA=)"><circle cx="227.2" cy="97.06" r="1.95" style="stroke-width:0.71;stroke:none;fill:#F8766D"/><path d="m303.6 94.02 2.63 4.56h-5.26z" style="stroke-width:0.71;stroke:none;fill:#00BFC4"/><text x="241.32" y="100.22" lengthAdjust="spacingAndGlyphs" style="font-size:8.80px;font-weight:0;font-family:&quot;Nimbus Sans Narrow&quot;" textLength="48.16">mprop address</text><text x="317.72" y="100.22" lengthAdjust="spacingAndGlyphs" style="font-size:8.80px;font-weight:0;font-family:&quot;Nimbus Sans Narrow&quot;" textLength="39.72">owner name</text><text x="29.89" y="65.35" lengthAdjust="spacingAndGlyphs" style="font-size:12.00px;font-weight:0;font-family:&quot;Nimbus Sans Narrow&quot;" textLength="257.58">includes 12 parcels, 26 units, and 11 distinct owner names.</text><text x="29.89" y="42.81" lengthAdjust="spacingAndGlyphs" style="font-size:18.00px;font-weight:0;font-family:&quot;Nimbus Sans Narrow&quot;" textLength="186.97">YANIV SHARON etc Group</text></g></g></svg>