<svg xmlns="http://www.w3.org/2000/svg" width="576" height="672" class="svglite" viewBox="0 0 432 504"><defs><style><![CDATA[.svglite line,.svglite polyline,.svglite polygon,.svglite path,.svglite circle{fill:none;stroke:#000000;stroke-linecap:round;stroke-linejoin:round;stroke-miterlimit:10.00}.svglite text{white-space:pre}]]></style></defs><rect width="100%" height="100%" style="stroke-linecap:round;stroke-linejoin:round;stroke-miterlimit:10.00;stroke:none;fill:#FFFFFF"/><defs><clipPath id="cpMC4wMHw0MzIuMDB8MC4wMHw1MDQuMDA="><path d="M0 0h432v504H0z"/></clipPath></defs><g clip-path="url(#cpMC4wMHw0MzIuMDB8MC4wMHw1MDQuMDA=)"><path d="M0 0h432v504H0z" style="stroke-width:1.07;stroke:none;fill:#FFFFFF"/></g><defs><clipPath id="cpMzIuNjN8NDAyLjExfDEyMC44Nnw0NzEuMzc="><path d="M32.63 120.86h369.48v350.51H32.63z"/></clipPath></defs><g clip-path="url(#cpMzIuNjN8NDAyLjExfDEyMC44Nnw0NzEuMzc=)"><path d="m385.32 286.64-1.74.12-1.74.13-1.74.13-1.74.12-1.74.13-1.74.13-1.74.12-1.74.13-1.74.13-1.74.12-1.74.13-1.73.13-1.74.12-1.74.13-1.74.13-1.74.12-1.74.13-1.74.13-1.74.12-1.74.13-1.74.12-1.74.13-1.74.13-1.74.12-1.74.13-1.73.13-1.74.12-1.74.13-1.74.13-1.74.12-1.74.13-1.74.13-1.74.12-1.74.13-1.74.13-1.74.12-1.74.13-1.74.13-1.74.12-1.73.13-1.74.12-1.74.13-1.74.13-1.74.12-1.74.13-1.74.13-1.74.12-1.74.13-1.74.13-1.74.12-1.74.13-1.74.13-1.74.12-1.74.13-1.73.13-1.74.12-1.74.13-1.74.13-1.74.12-1.74.13-1.74.12-1.74.13-1.74.13-1.74.12-1.74.13-1.74.13-1.74.12-1.74.13-1.73.13-1.74.12-1.74.13-1.74.13-1.74.12-1.74.13-1.74.13-1.74.12-1.74.13-1.74.13-1.74.12-1.74.13-1.74.13-1.74.12-1.73.13-1.74.12-1.74.13-1.74.13-1.74.12-1.74.13-1.74.13-1.74.12-1.74.13-1.74.13-1.74.12-1.74.13-1.74.13-1.74.12-1.74.13-1.73.13-1.74.12" style="stroke-width:1.07;stroke:#000000;stroke-opacity:0.10;stroke-linecap:butt"/><path d="m52.21 246.54 1.51.84 1.51.84 1.51.83 1.52.82 1.52.82 1.51.81 1.53.8 1.52.8 1.53.79 1.53.79 1.53.78 1.53.77L72 257l1.54.76 1.54.75 1.54.75 1.55.74 1.54.73 1.55.73 1.56.73 1.55.71 1.56.71 1.56.7 1.56.7 1.57.69 1.57.68 1.57.68 1.57.67 1.57.67 1.58.66 1.58.65 1.58.64 1.59.64 1.58.64 1.59.62 1.59.62 1.6.62 1.59.61 1.6.6 1.6.59 1.61.59 1.6.58 1.61.58 1.61.57 1.62.56 1.61.56 1.62.55 1.62.54 1.62.54 1.63.53 1.63.53 1.63.52 1.63.51 1.64.51 1.63.5 1.64.49 1.64.49 1.65.48 1.65.47 1.65.47 1.65.46 1.65.46 1.66.45 1.66.44 1.66.43 1.66.43 1.67.43 1.67.42 1.67.41 1.67.4 1.68.4 1.68.39 1.68.39 1.68.38 1.69.37 1.69.36 1.69.36 1.69.36 1.69.35 1.7.34 1.7.33 1.7.33 1.71.32 1.71.32 1.71.31 1.71.3 1.71.3 1.72.29 1.72.28 1.72.28 1.73.27 1.72.27 1.73.25 1.73.26 1.74.24 1.73.24 1.74.23 1.74.23 1.75.22M52.21 246.54l-.17 1.31-.18 1.31-.16 1.32-.16 1.31-.16 1.31-.15 1.31-.14 1.31-.13 1.31-.14 1.31-.12 1.31-.12 1.3-.11 1.31-.11 1.31-.1 1.31-.1 1.3-.09 1.31-.08 1.3-.08 1.31-.07 1.3-.07 1.31-.06 1.3-.06 1.31-.05 1.3-.04 1.3-.04 1.3-.03 1.31-.02 1.3-.02 1.3-.02 1.3-.01 1.3v1.3l.01 1.3.01 1.3.01 1.29.02 1.3.03 1.3.03 1.3.04 1.29.05 1.3.05 1.3.05 1.29.06 1.3.07 1.29.08 1.3.08 1.29.08 1.29.09 1.3.1 1.29.1 1.29.11 1.29.12 1.29.12 1.29.13 1.29.13 1.29.14 1.29.14 1.29.15 1.29.16 1.29.16 1.29.17 1.28.17 1.29.18 1.29.18 1.28.2 1.29.19 1.28.21 1.29.2 1.28.22 1.29.22 1.28.23 1.28.23 1.29.24 1.28.24 1.28.25 1.28.26 1.28.26 1.28.26 1.28.28 1.28.28 1.28.28 1.28.29 1.28.3 1.28.3 1.27.31 1.28.31 1.28.32 1.27.33 1.28.33 1.28.34 1.27.34 1.28.35 1.27.36 1.27.36 1.28.36 1.27.38 1.27.37 1.27.39 1.28.39 1.27.4 1.27m178.51-237.62-.36 1.63-.36 1.63-.36 1.63-.35 1.63-.36 1.63-.35 1.63-.35 1.63-.35 1.63-.35 1.63-.34 1.64-.35 1.63-.34 1.63-.34 1.63-.34 1.63-.34 1.63-.34 1.64-.34 1.63-.33 1.63-.33 1.64-.33 1.63-.33 1.63-.33 1.64-.33 1.63-.33 1.64-.32 1.63-.32 1.63-.32 1.64-.32 1.63-.32 1.64-.32 1.64-.31 1.63-.32 1.64-.31 1.63-.31 1.64-.31 1.64-.31 1.63-.3 1.64-.31 1.64-.3 1.64-.3 1.63-.3 1.64-.3 1.64-.3 1.64-.29 1.64-.3 1.64-.29 1.64-.29 1.63-.29 1.64-.29 1.64-.29 1.64-.28 1.64-.29 1.64-.28 1.65-.28 1.64-.28 1.64-.28 1.64-.27 1.64-.28 1.64-.27 1.64-.28 1.65-.27 1.64-.26 1.64-.27 1.65-.27 1.64-.26 1.64-.27 1.65-.26 1.64-.26 1.64-.26 1.65-.25 1.64-.26 1.65-.25 1.64-.26 1.65-.25 1.64-.25 1.65-.25 1.64-.24 1.65-.25 1.65-.24 1.64-.24 1.65-.24 1.65-.24 1.64-.24 1.65-.24 1.65-.23 1.65-.24 1.65-.23 1.64-.23 1.65-.23 1.65-.22 1.65-.23 1.65-.22 1.65-.23 1.65-.22 1.65-.22 1.65-.22 1.65-.21 1.65-.22 1.65-.21 1.65m55.32 156.28-.42-1.62-.42-1.62-.43-1.62-.43-1.62-.43-1.62-.43-1.61-.43-1.62-.44-1.62-.44-1.61-.45-1.61-.45-1.62-.45-1.61-.45-1.61-.45-1.61-.46-1.61-.46-1.61-.47-1.6-.46-1.61-.47-1.61-.48-1.6-.47-1.6-.48-1.61-.48-1.6-.49-1.6-.49-1.6-.49-1.6-.49-1.6-.49-1.6-.5-1.59-.5-1.6-.51-1.6-.51-1.59-.51-1.59-.51-1.6-.51-1.59-.52-1.59-.52-1.59-.53-1.59-.53-1.59-.53-1.58-.53-1.59-.54-1.58-.53-1.59-.55-1.58-.54-1.59-.55-1.58-.55-1.58-.55-1.58-.56-1.58-.56-1.58-.56-1.58-.56-1.57-.57-1.58-.57-1.57-.57-1.58-.58-1.57-.58-1.57-.58-1.57-.58-1.58-.59-1.57-.59-1.56-.59-1.57-.6-1.57-.6-1.57-.6-1.56-.61-1.57-.6-1.56-.61-1.56-.62-1.56-.61-1.57-.62-1.56-.62-1.55-.63-1.56-.63-1.56-.63-1.56-.63-1.55-.63-1.56-.64-1.55-.65-1.56-.64-1.55-.65-1.55-.65-1.55-.65-1.55-.66-1.55-.66-1.55-.66-1.54-.66-1.55-.67-1.55-.67-1.54-.67-1.54-.68-1.55-.68-1.54-.68-1.54-.69-1.54-.68-1.54-.69-1.54-.7-1.54-.69-1.53-.7-1.54" style="stroke-width:1.07;stroke:#000000;stroke-opacity:0.10;stroke-linecap:butt"/><path d="m268.45 455.44-.56-1.58-.56-1.58-.56-1.58-.56-1.57-.56-1.58-.56-1.58-.56-1.58-.55-1.58-.56-1.58-.56-1.58-.56-1.57-.56-1.58-.56-1.58-.56-1.58-.56-1.58-.56-1.58-.55-1.58-.56-1.57-.56-1.58-.56-1.58-.56-1.58-.56-1.58-.56-1.58-.56-1.58-.55-1.57-.56-1.58-.56-1.58-.56-1.58-.56-1.58-.56-1.58-.56-1.58-.56-1.57-.55-1.58-.56-1.58-.56-1.58-.56-1.58-.56-1.58-.56-1.58-.56-1.57-.56-1.58-.55-1.58-.56-1.58-.56-1.58-.56-1.58-.56-1.58-.56-1.57-.56-1.58-.56-1.58-.55-1.58-.56-1.58-.56-1.58-.56-1.58-.56-1.57-.56-1.58-.56-1.58-.56-1.58-.56-1.58-.55-1.58-.56-1.58-.56-1.57-.56-1.58-.56-1.58-.56-1.58-.56-1.58-.56-1.58-.55-1.58-.56-1.57-.56-1.58-.56-1.58-.56-1.58-.56-1.58-.56-1.58-.56-1.58-.55-1.57-.56-1.58-.56-1.58-.56-1.58-.56-1.58-.56-1.58-.56-1.57-.56-1.58-.55-1.58-.56-1.58-.56-1.58-.56-1.58-.56-1.58-.56-1.57-.56-1.58-.56-1.58-.55-1.58-.56-1.58-.56-1.58-.56-1.58-.56-1.57-.56-1.58-.56-1.58-.56-1.58-.55-1.58-.56-1.58m28.4-162.37-.21 1.66-.22 1.65-.22 1.65-.22 1.65-.22 1.65-.22 1.65-.22 1.65-.22 1.65-.23 1.65-.23 1.65-.23 1.64-.23 1.65-.23 1.65-.23 1.65-.24 1.65-.23 1.64-.24 1.65-.24 1.65-.24 1.65-.24 1.64-.25 1.65-.24 1.65-.25 1.64-.25 1.65-.25 1.64-.25 1.65-.25 1.64-.26 1.65-.25 1.64-.26 1.65-.26 1.64-.26 1.65-.26 1.64-.26 1.65-.27 1.64-.26 1.64-.27 1.64-.27 1.65-.27 1.64-.27 1.64-.27 1.64-.28 1.65-.28 1.64-.27 1.64-.28 1.64-.28 1.64-.29 1.64-.28 1.64-.29 1.64-.28 1.64-.29 1.64-.29 1.64-.29 1.64-.3 1.64-.29 1.64-.3 1.64-.29 1.64-.3 1.64-.3 1.63-.3 1.64-.31 1.64-.3 1.64-.31 1.63-.31 1.64-.31 1.64-.31 1.63-.31 1.64-.31 1.64-.32 1.63-.31 1.64-.32 1.63-.32 1.64-.32 1.63-.33 1.64-.32 1.63-.32 1.64-.33 1.63-.33 1.63-.33 1.64-.33 1.63-.33 1.63-.34 1.64-.34 1.63-.33 1.63-.34 1.63-.34 1.64-.34 1.63-.35 1.63-.34 1.63-.35 1.63-.35 1.63-.35 1.63-.35 1.63-.35 1.63-.35 1.63-.36 1.63-.36 1.63-.35 1.63-.36 1.63M52.21 246.54l1.56.72 1.56.71 1.55.71 1.56.71 1.56.7 1.56.7 1.57.7 1.56.69 1.57.69 1.56.68 1.57.68 1.57.68 1.58.67 1.57.67 1.57.66 1.58.66 1.58.66 1.58.65 1.58.65 1.58.65 1.58.64 1.59.64 1.58.63 1.59.63 1.59.63 1.59.62 1.59.62 1.6.62 1.59.61 1.6.61 1.6.6 1.6.6 1.6.6 1.6.59 1.6.59 1.61.58 1.6.59 1.61.57 1.61.58 1.61.57 1.61.56 1.62.56 1.61.56 1.62.56 1.62.55 1.62.54 1.62.55 1.62.54 1.63.53 1.62.53 1.63.53 1.63.52 1.63.52 1.63.52 1.63.51 1.63.51 1.64.51 1.64.5 1.63.49 1.64.5 1.65.49 1.64.48 1.64.49 1.65.47 1.65.48 1.64.47 1.65.47 1.66.46 1.65.46 1.65.45 1.66.45 1.66.45 1.65.45 1.66.44 1.67.43 1.66.44 1.66.42 1.67.43 1.67.42 1.66.42 1.68.41 1.67.41 1.67.41 1.67.4 1.68.4 1.68.39 1.68.39 1.68.39 1.68.38 1.68.38 1.69.38 1.68.37 1.69.37 1.69.36 1.69.36 1.69.36 1.7.35 1.69.35 1.7.34M52.21 246.54l-.06 1.3-.06 1.31-.05 1.3-.06 1.3-.05 1.31-.04 1.3-.04 1.3-.04 1.31-.04 1.3-.03 1.3-.03 1.3-.02 1.3-.02 1.3-.02 1.3-.01 1.3-.01 1.3-.01 1.3v3.9l.01 1.3.01 1.3.01 1.3.02 1.3.02 1.3.03 1.29.02 1.3.04 1.3.03 1.3.04 1.29.04 1.3.05 1.29.05 1.3.05 1.3.06 1.29.06 1.3.06 1.29.07 1.3.07 1.29.07 1.29.08 1.3.08 1.29.08 1.3.09 1.29.09 1.29.1 1.29.1 1.3.1 1.29.1 1.29.11 1.29.12 1.29.11 1.29.12 1.3.13 1.29.12 1.29.13 1.29.14 1.29.13 1.29.14 1.29.15 1.28.15 1.29.15 1.29.15 1.29.16 1.29.16 1.29.17 1.28.17 1.29.17 1.29.17 1.28.18 1.29.19 1.29.18 1.28.19 1.29.2 1.28.19 1.29.2 1.28.21 1.29.21 1.28.21 1.29.21 1.28.22 1.28.22 1.29.23 1.28.22 1.28.24 1.29.23 1.28.24 1.28.24 1.28.25 1.29.25 1.28.25 1.28.26 1.28.26 1.28.26 1.28.27 1.28.27 1.28.28 1.28.27 1.28.29 1.28" style="stroke-width:1.07;stroke:#000000;stroke-opacity:0.10;stroke-linecap:butt"/><path d="m52.21 246.54 1.61.59 1.6.6 1.6.59 1.6.59 1.61.59 1.6.58 1.61.59 1.6.58 1.61.59 1.6.58 1.61.58 1.61.58 1.6.58 1.61.58 1.61.57 1.61.58 1.61.57 1.61.57 1.61.57 1.61.57 1.61.57 1.61.57 1.62.56 1.61.57 1.61.56 1.62.56 1.61.57 1.62.55 1.61.56 1.62.56 1.61.56 1.62.55 1.62.55 1.61.55 1.62.56 1.62.54 1.62.55 1.62.55 1.62.55 1.62.54 1.62.54 1.62.54 1.63.54 1.62.54 1.62.54 1.62.54 1.63.53 1.62.54 1.63.53 1.62.53 1.63.53 1.62.53 1.63.53 1.63.53 1.63.52 1.62.52 1.63.53 1.63.52 1.63.52 1.63.52 1.63.52 1.63.51 1.64.52 1.63.51 1.63.51 1.63.51 1.64.51 1.63.51 1.64.51 1.63.51 1.64.5 1.63.5 1.64.51 1.64.5 1.63.5 1.64.5 1.64.49 1.64.5 1.64.49 1.64.5 1.64.49 1.64.49 1.64.49 1.64.49 1.64.49 1.65.48 1.64.49 1.64.48 1.65.48 1.64.48 1.65.48 1.64.48 1.65.48 1.65.47 1.64.48 1.65.47 1.65.47 1.65.47 1.65.47M52.21 246.54l.06 1.3.05 1.29.05 1.3.06 1.29.05 1.3.06 1.29.06 1.3.06 1.29.06 1.3.06 1.29.07 1.3.06 1.29.07 1.3.07 1.29.06 1.3.07 1.29.07 1.3.07 1.29.08 1.29.07 1.3.08 1.29.07 1.3.08 1.29.08 1.29.08 1.3.08 1.29.08 1.3.08 1.29.09 1.29.09 1.3.08 1.29.09 1.29.09 1.29.09 1.3.09 1.29.09 1.29.1 1.3.09 1.29.1 1.29.1 1.29.09 1.3.1 1.29.11 1.29.1 1.29.1 1.29.11 1.3.1 1.29.11 1.29.11 1.29.1 1.29.11 1.3.12 1.29.11 1.29.11 1.29.12 1.29.11 1.29.12 1.29.12 1.29.12 1.29.12 1.29.12 1.3.13 1.29.12 1.29.12 1.29.13 1.29.13 1.29.13 1.29.13 1.29.13 1.29.13 1.29.14 1.29.13 1.29.14 1.29.13 1.29.14 1.29.14 1.29.14 1.28.15 1.29.14 1.29.14 1.29.15 1.29.14 1.29.15 1.29.15 1.29.15 1.29.15 1.28.15 1.29.16 1.29.15 1.29.16 1.29.16 1.29.15 1.28.16 1.29.16 1.29.17 1.29.16 1.28.16 1.29.17 1.29.17 1.29M52.21 246.54l1.65.47 1.65.47 1.65.47 1.65.47 1.64.48 1.65.47 1.65.48 1.64.48 1.65.48 1.64.48 1.65.48 1.64.49 1.64.48 1.65.49 1.64.48 1.64.49 1.64.49 1.64.49 1.64.49 1.64.5 1.64.49 1.64.5 1.64.5 1.64.49 1.63.5 1.64.5 1.64.51 1.63.5 1.64.51 1.63.5 1.64.51 1.63.51 1.64.51 1.63.51 1.63.51 1.63.52 1.64.51 1.63.52 1.63.51 1.63.52 1.63.52 1.63.52 1.63.53 1.62.52 1.63.53 1.63.52 1.63.53 1.62.53 1.63.53 1.62.53 1.63.53 1.62.54 1.63.53 1.62.54 1.62.54 1.63.54 1.62.54 1.62.54 1.62.54 1.62.55 1.62.54 1.62.55 1.62.55 1.62.55 1.62.55 1.61.55 1.62.55 1.62.56 1.61.55 1.62.56 1.62.56 1.61.56 1.61.56 1.62.56 1.61.56 1.61.57 1.62.56 1.61.57 1.61.57 1.61.57 1.61.57 1.61.57 1.61.57 1.61.58 1.61.58 1.61.57 1.6.58 1.61.58 1.61.58 1.6.58 1.61.59 1.6.58 1.61.59 1.6.59 1.61.58 1.6.59 1.6.6 1.6.59 1.61.59" style="stroke-width:1.07;stroke:#000000;stroke-opacity:0.10;stroke-linecap:butt"/><path d="m52.21 246.54.17 1.29.17 1.28.16 1.29.16 1.29.17 1.29.16 1.29.16 1.28.15 1.29.16 1.29.16 1.29.15 1.29.16 1.28.15 1.29.15 1.29.15 1.29.15 1.29.15 1.29.14 1.29.15 1.29.14 1.28.15 1.29.14 1.29.14 1.29.14 1.29.14 1.29.13 1.29.14 1.29.13 1.29.14 1.29.13 1.29.13 1.29.13 1.29.13 1.29.13 1.29.13 1.29.12 1.29.13 1.29.12 1.29.12 1.29.12 1.29.12 1.29.12 1.29.12 1.3.11 1.29.12 1.29.11 1.29.11 1.29.12 1.29.11 1.29.11 1.29.1 1.3.11 1.29.11 1.29.1 1.29.1 1.29.11 1.3.1 1.29.1 1.29.09 1.29.1 1.3.1 1.29.09 1.29.1 1.29.09 1.3.09 1.29.09 1.29.09 1.29.09 1.3.09 1.29.08 1.29.09 1.3.08 1.29.08 1.29.08 1.3.08 1.29.08 1.3.08 1.29.07 1.29.08 1.3.07 1.29.08 1.3.07 1.29.07 1.3.07 1.29.07 1.29.06 1.3.07 1.29.06 1.3.07 1.29.06 1.3.06 1.29.06 1.3.06 1.29.06 1.3.05 1.29.06 1.3.05 1.3.05 1.29.06 1.3M52.21 246.54l1.7.34 1.7.35 1.69.36 1.69.35 1.69.36 1.69.37 1.69.36 1.68.38 1.69.37 1.68.38 1.68.38 1.68.39 1.68.39 1.68.4 1.68.39 1.67.41 1.67.4 1.68.41 1.67.41 1.66.42 1.67.42 1.67.43 1.66.43 1.67.43 1.66.44 1.66.44 1.66.44 1.65.45 1.66.45 1.65.45 1.66.46 1.65.47 1.65.46 1.65.47 1.64.48 1.65.48 1.64.48 1.65.48 1.64.49 1.64.5 1.63.49 1.64.51 1.64.5 1.63.51 1.63.51 1.64.52 1.62.52 1.63.52 1.63.53 1.63.53 1.62.54 1.62.54 1.62.54 1.62.55 1.62.55 1.62.55 1.61.56 1.62.56 1.61.57 1.61.57 1.61.57 1.61.58 1.6.58 1.61.58 1.6.59 1.6.59 1.61.6 1.59.6 1.6.6 1.6.61 1.59.61 1.6.62 1.59.62 1.59.62 1.59.63 1.59.63 1.58.63 1.59.64 1.58.64 1.58.65 1.58.65 1.58.65 1.58.66 1.58.66 1.57.66 1.58.67 1.57.68 1.57.67 1.57.68 1.56.69 1.57.68 1.56.7 1.57.69 1.56.7 1.56.7 1.56.71 1.56.71 1.55.71 1.56.72" style="stroke-width:1.07;stroke:#000000;stroke-opacity:0.10;stroke-linecap:butt"/><path d="m52.21 246.54.29 1.28.27 1.28.28 1.28.27 1.28.27 1.28.26 1.28.26 1.28.26 1.28.25 1.28.25 1.28.25 1.28.24 1.29.24 1.28.23 1.28.24 1.28.22 1.29.23 1.28.22 1.28.22 1.29.21 1.28.21 1.28.21 1.29.21 1.28.2 1.29.19 1.28.2 1.29.19 1.28.18 1.29.19 1.29.18 1.28.17 1.29.17 1.29.17 1.28.17 1.29.16 1.29.16 1.29.15 1.29.15 1.28.15 1.29.15 1.29.14 1.29.13 1.29.14 1.29.13 1.29.12 1.29.13 1.29.12 1.29.11 1.29.12 1.29.11 1.3.1 1.29.1 1.29.1 1.29.1 1.29.09 1.3.09 1.29.08 1.29.08 1.3.08 1.29.07 1.3.07 1.29.07 1.3.06 1.29.06 1.3.06 1.29.05 1.3.05 1.29.05 1.3.04 1.29.04 1.3.03 1.3.04 1.3.02 1.29.03 1.3.02 1.3.02 1.3.01 1.3.01 1.29.01 1.3v3.9l-.01 1.3-.01 1.3-.01 1.3-.02 1.3-.02 1.3-.02 1.31-.03 1.3-.03 1.3-.04 1.3-.04 1.3-.04 1.31-.04 1.3-.05 1.3-.06 1.31-.05 1.3-.06 1.3-.06 1.31M52.21 246.54l1.75.22 1.74.23 1.74.23 1.73.24 1.74.25 1.73.25 1.73.26 1.73.26 1.72.27 1.72.28 1.72.28 1.72.29 1.71.3 1.71.3 1.71.31 1.71.32 1.71.32 1.7.33 1.7.33 1.7.35 1.69.34 1.69.36 1.7.36 1.68.36 1.69.38 1.68.38 1.68.38 1.68.39 1.68.4 1.67.41 1.67.41 1.67.41 1.67.43 1.66.43 1.66.43 1.66.45 1.66.45 1.65.45 1.65.46 1.65.47 1.65.48 1.65.48 1.64.48 1.64.5 1.64.5 1.63.5 1.63.52 1.63.51 1.63.53 1.63.53 1.62.54 1.62.54 1.62.55 1.61.56 1.62.56 1.61.57 1.61.58 1.6.58 1.61.59 1.6.6 1.6.6 1.59.6 1.6.62 1.59.62 1.59.63 1.58.63 1.59.64 1.58.64 1.58.66 1.58.65 1.57.67 1.57.67 1.57.68 1.57.68 1.57.69 1.56.7 1.56.7 1.56.71 1.55.72 1.56.72 1.55.73 1.55.73 1.54.74 1.54.75 1.55.75 1.53.76 1.54.77 1.53.77 1.54.78 1.52.79 1.53.79 1.53.8 1.52.8 1.52.81 1.51.82 1.52.82 1.51.83 1.51.84 1.51.84" style="stroke-width:1.07;stroke:#000000;stroke-opacity:0.10;stroke-linecap:butt"/><path d="m52.21 246.54.4 1.27.39 1.27.39 1.27.37 1.28.38 1.27.36 1.27.36 1.27.36 1.28.35 1.27.34 1.28.34 1.27.33 1.28.33 1.27.32 1.28.31 1.28.31 1.27.3 1.28.3 1.28.29 1.28.28 1.27.28 1.28.28 1.28.26 1.28.27 1.28.25 1.29.25 1.28.24 1.28.24 1.28.23 1.28.23 1.29.22 1.28.22 1.28.2 1.29.21 1.28.19 1.29.2 1.28.18 1.29.18 1.29.17 1.28.17 1.29.16 1.29.16 1.29.15 1.29.14 1.28.14 1.29.13 1.29.13 1.29.12 1.29.12 1.3.11 1.29.1 1.29.1 1.29.09 1.29.08 1.3.08 1.29.08 1.3.07 1.29.06 1.3.05 1.29.05 1.3.05 1.29.04 1.3.03 1.3.03 1.29.02 1.3.01 1.3.01 1.3.01 1.3v1.3l-.01 1.3-.02 1.3-.02 1.3-.02 1.3-.03 1.3-.04 1.31-.04 1.3-.05 1.3-.06 1.3-.06 1.31-.06 1.3-.08 1.31-.08 1.3-.08 1.31-.09 1.3-.1 1.31-.1 1.31-.11 1.31-.11 1.3-.12 1.31-.12 1.31-.13 1.31-.14 1.31-.14 1.31-.15 1.31-.16 1.31-.16 1.31-.16 1.31-.18 1.31-.17 1.32m205.43 81.03-.7-1.54-.7-1.53-.69-1.54-.69-1.54-.69-1.54-.69-1.54-.68-1.54-.68-1.54-.67-1.54-.68-1.55-.67-1.54-.67-1.55-.66-1.54-.66-1.55-.66-1.55-.66-1.55-.65-1.55-.65-1.55-.65-1.55-.64-1.55-.64-1.55-.64-1.56-.64-1.55-.63-1.56-.63-1.56-.63-1.55-.63-1.56-.62-1.56-.62-1.56-.61-1.56-.62-1.57-.61-1.56-.6-1.56-.61-1.57-.6-1.56-.6-1.57-.59-1.57-.6-1.56-.59-1.57-.59-1.57-.58-1.57-.58-1.57-.58-1.58-.58-1.57-.57-1.57-.57-1.58-.57-1.58-.56-1.57-.56-1.58-.56-1.58-.56-1.58-.55-1.58-.55-1.58-.55-1.58-.54-1.58-.54-1.59-.54-1.58-.54-1.59-.53-1.59-.53-1.58-.53-1.59-.52-1.59-.53-1.59-.51-1.59-.52-1.59-.51-1.59-.51-1.6-.51-1.59-.5-1.6-.51-1.59-.49-1.6-.5-1.6-.49-1.6-.49-1.6-.49-1.6-.48-1.6-.49-1.6-.47-1.6-.48-1.61-.47-1.6-.47-1.61-.47-1.6-.46-1.61-.47-1.61-.45-1.61-.46-1.61-.45-1.61-.45-1.61-.45-1.61-.44-1.62-.45-1.61-.43-1.62-.44-1.61-.43-1.62-.43-1.62-.43-1.62-.42-1.62-.43-1.62-.41-1.62" style="stroke-width:1.07;stroke:#000000;stroke-opacity:0.10;stroke-linecap:butt"/><path d="m63.02 374.41 1.88-.12 1.88-.14 1.88-.15 1.86-.16 1.86-.17 1.85-.19 1.84-.2 1.84-.21 1.82-.23 1.82-.24 1.82-.25 1.8-.26 1.8-.28 1.79-.29 1.78-.31 1.77-.31 1.77-.33 1.76-.35 1.75-.35 1.74-.37 1.74-.38 1.73-.4 1.72-.41 1.71-.42 1.71-.43 1.7-.45 1.69-.46 1.68-.47 1.68-.49 1.66-.5 1.66-.51 1.66-.53 1.64-.54 1.64-.55 1.63-.56 1.62-.58 1.62-.59 1.6-.61 1.6-.61 1.6-.63 1.58-.64 1.58-.66 1.57-.67 1.56-.68 1.55-.7 1.55-.7 1.54-.73 1.53-.73 1.52-.75 1.52-.76 1.51-.77 1.5-.79 1.49-.79 1.49-.82 1.48-.82 1.47-.84 1.46-.85 1.46-.87 1.44-.87 1.45-.89 1.43-.91 1.42-.91 1.42-.93 1.41-.94 1.4-.96 1.4-.97 1.39-.98 1.38-.99 1.37-1.01 1.36-1.02 1.36-1.04 1.35-1.04 1.34-1.06 1.33-1.08 1.33-1.08 1.32-1.1 1.31-1.11 1.31-1.13 1.29-1.13 1.29-1.16 1.28-1.16 1.28-1.18 1.26-1.19 1.26-1.2 1.25-1.22 1.24-1.22 1.24-1.25 1.23-1.25 1.22-1.27 1.21-1.28 1.21-1.3 1.19-1.3 1.19-1.32 1.19-1.34 1.17-1.34 1.17-1.36 1.16-1.37 1.15-1.39 1.15-1.4" style="stroke-width:1.07;stroke:#000000;stroke-opacity:0.10;stroke-linecap:butt"/><path d="m63.02 374.41 1.82-.24 1.81-.25 1.81-.26 1.8-.27 1.8-.28 1.78-.29 1.79-.3 1.77-.31 1.78-.33 1.76-.33 1.76-.34 1.75-.36 1.75-.36 1.74-.38 1.73-.39 1.73-.4 1.72-.4 1.71-.42 1.71-.43 1.7-.44 1.7-.45 1.69-.47 1.68-.47 1.68-.48 1.67-.49 1.67-.51 1.66-.51 1.65-.53 1.65-.54 1.64-.54 1.63-.56 1.63-.57 1.62-.58 1.62-.59 1.6-.6 1.61-.61 1.59-.62 1.6-.63 1.58-.64 1.58-.66 1.57-.66 1.57-.68 1.56-.68 1.55-.7 1.55-.7 1.54-.72 1.53-.73 1.53-.74 1.52-.75 1.52-.76 1.51-.77 1.5-.78 1.5-.79 1.49-.8 1.49-.82 1.48-.82 1.47-.84 1.47-.84 1.46-.86 1.45-.86 1.45-.88 1.44-.89 1.44-.9 1.43-.91 1.42-.92 1.42-.93 1.41-.94 1.4-.95 1.4-.96 1.39-.98 1.39-.98 1.38-1 1.37-1 1.37-1.02 1.36-1.02 1.36-1.04 1.34-1.05 1.35-1.06 1.33-1.07 1.33-1.08 1.33-1.09 1.31-1.1 1.32-1.11 1.3-1.12 1.3-1.13 1.29-1.15 1.29-1.15 1.28-1.17 1.27-1.17 1.27-1.19 1.26-1.2 1.26-1.21 1.25-1.21 1.24-1.23 1.24-1.24 1.23-1.25 1.23-1.26 1.21-1.28 1.22-1.28" style="stroke-width:1.07;stroke:#000000;stroke-opacity:0.10;stroke-linecap:butt"/><path d="m63.02 374.41 1.75-.36 1.75-.36 1.74-.37 1.74-.38 1.73-.38 1.73-.4 1.72-.4 1.72-.42 1.72-.42 1.71-.42 1.7-.44 1.7-.45 1.7-.45 1.69-.46 1.68-.47 1.68-.48 1.68-.49 1.67-.49 1.66-.5 1.66-.51 1.66-.52 1.65-.53 1.65-.54 1.64-.54 1.64-.56 1.63-.56 1.63-.57 1.62-.57 1.62-.59 1.61-.59 1.61-.61 1.6-.61 1.6-.62 1.59-.62 1.59-.64 1.58-.64 1.58-.66 1.58-.66 1.57-.66 1.56-.68 1.56-.69 1.56-.69 1.55-.7 1.54-.71 1.54-.72 1.54-.73 1.53-.73 1.52-.75 1.52-.75 1.52-.76 1.51-.77 1.51-.77 1.5-.79 1.5-.79 1.49-.8 1.49-.81 1.48-.82 1.48-.83 1.47-.83 1.47-.85 1.46-.85 1.46-.86 1.45-.86 1.45-.88 1.45-.89 1.44-.89 1.43-.9 1.43-.91 1.42-.92 1.42-.92 1.42-.94 1.41-.94 1.4-.95 1.4-.96 1.4-.97 1.39-.97 1.39-.98 1.38-1 1.37-1 1.38-1.01 1.36-1.01 1.36-1.03 1.36-1.03 1.35-1.04 1.35-1.05 1.34-1.06 1.34-1.07 1.33-1.07 1.33-1.09 1.32-1.09 1.32-1.1 1.32-1.11 1.31-1.11 1.3-1.13 1.3-1.13 1.29-1.14 1.29-1.15 1.29-1.16 1.28-1.17" style="stroke-width:1.07;stroke:#000000;stroke-opacity:0.10;stroke-linecap:butt"/><path d="m63.02 374.41 1.68-.47 1.68-.48 1.68-.48 1.68-.49 1.67-.49 1.67-.5 1.66-.51 1.66-.51 1.66-.51 1.65-.53 1.65-.53 1.65-.53 1.64-.54 1.64-.55 1.64-.55 1.64-.56 1.63-.57 1.62-.57 1.62-.57 1.62-.59 1.62-.58 1.61-.6 1.61-.6 1.61-.6 1.6-.62 1.6-.61 1.6-.63 1.59-.63 1.59-.63 1.58-.65 1.58-.64 1.58-.66 1.58-.66 1.57-.66 1.57-.67 1.56-.68 1.56-.68 1.56-.69 1.55-.7 1.55-.7 1.55-.7 1.55-.72 1.54-.72 1.53-.72 1.54-.73 1.53-.74 1.52-.74 1.53-.75 1.52-.75 1.51-.76 1.51-.77 1.51-.77 1.51-.78 1.5-.78 1.5-.79 1.5-.8 1.49-.8 1.49-.8 1.48-.82 1.49-.82 1.47-.82 1.48-.83 1.47-.84 1.47-.84 1.46-.85 1.46-.86 1.46-.86 1.46-.86 1.45-.88 1.44-.88 1.45-.88 1.44-.89 1.43-.9 1.44-.9 1.43-.91 1.43-.91 1.42-.92 1.42-.93 1.41-.93 1.42-.94 1.41-.94 1.4-.95 1.41-.95 1.39-.97 1.4-.96 1.39-.98 1.39-.98 1.39-.98 1.38-.99 1.38-1 1.37-1 1.37-1.01 1.37-1.02 1.37-1.02 1.36-1.02 1.35-1.03 1.36-1.04 1.35-1.05 1.35-1.05" style="stroke-width:1.07;stroke:#000000;stroke-opacity:0.10;stroke-linecap:butt"/><path d="m63.02 374.41 1.61-.59 1.62-.59 1.61-.59 1.61-.6 1.61-.6 1.61-.6 1.61-.61 1.6-.61 1.6-.61 1.6-.62 1.6-.62 1.59-.63 1.59-.63 1.59-.63 1.59-.64 1.59-.63 1.58-.65 1.59-.64 1.58-.65 1.58-.66 1.57-.65 1.58-.66 1.57-.67 1.57-.67 1.57-.67 1.56-.67 1.57-.68 1.56-.68 1.56-.69 1.55-.69 1.56-.69 1.55-.7 1.56-.7 1.54-.7 1.55-.71 1.55-.71 1.54-.71 1.54-.72 1.54-.72 1.54-.72 1.53-.73 1.53-.73 1.54-.74 1.52-.74 1.53-.74 1.53-.74 1.52-.75 1.52-.76 1.52-.75 1.51-.76 1.52-.77 1.51-.76 1.51-.77 1.51-.78 1.5-.78 1.51-.78 1.5-.78 1.5-.79 1.5-.79 1.49-.8 1.5-.8 1.49-.8 1.49-.81 1.48-.81 1.49-.81 1.48-.82 1.48-.82 1.48-.82 1.48-.83 1.47-.83 1.48-.83 1.47-.84 1.47-.84 1.46-.85 1.47-.85 1.46-.85 1.46-.86 1.46-.86 1.45-.86 1.46-.87 1.45-.87 1.45-.87 1.45-.88 1.45-.88 1.44-.88 1.44-.89 1.44-.89 1.44-.9 1.43-.9 1.44-.9 1.43-.9 1.43-.91 1.43-.92 1.42-.91 1.42-.92 1.43-.93 1.41-.92 1.42-.93 1.42-.94" style="stroke-width:1.07;stroke:#000000;stroke-opacity:0.10;stroke-linecap:butt"/><path d="m63.02 374.41 1.55-.7 1.55-.71 1.54-.7 1.55-.71 1.55-.7 1.55-.71 1.54-.71 1.55-.71 1.54-.71 1.55-.72 1.54-.71 1.54-.72 1.54-.71 1.54-.72 1.54-.72 1.54-.72 1.54-.72 1.54-.72 1.54-.72 1.54-.73 1.53-.72 1.54-.73 1.53-.73 1.54-.73 1.53-.73 1.53-.73 1.54-.73 1.53-.74 1.53-.73 1.53-.74 1.53-.74 1.53-.73 1.52-.74 1.53-.75 1.53-.74 1.52-.74 1.53-.75 1.52-.74 1.53-.75 1.52-.75 1.52-.75 1.52-.75 1.53-.75 1.52-.75 1.52-.76 1.51-.75 1.52-.76 1.52-.76 1.52-.75 1.51-.76 1.52-.77 1.51-.76 1.52-.76 1.51-.77 1.51-.76 1.52-.77 1.51-.77 1.51-.77 1.51-.77 1.51-.77 1.51-.77 1.51-.78 1.5-.77 1.51-.78 1.51-.78 1.5-.78 1.5-.78 1.51-.78 1.5-.78 1.5-.78 1.51-.79 1.5-.79 1.5-.78 1.5-.79 1.5-.79 1.49-.79 1.5-.79 1.5-.8 1.5-.79 1.49-.8 1.5-.79 1.49-.8 1.49-.8 1.5-.8 1.49-.8 1.49-.81 1.49-.8 1.49-.8 1.49-.81 1.49-.81 1.49-.81 1.48-.81 1.49-.81 1.49-.81 1.48-.81 1.49-.82 1.48-.81 1.48-.82 1.49-.82" style="stroke-width:1.07;stroke:#000000;stroke-opacity:0.10;stroke-linecap:butt"/><path d="m63.02 374.41 1.48-.82 1.48-.82 1.49-.81 1.48-.82 1.49-.81 1.48-.81 1.49-.81 1.48-.81 1.49-.81 1.49-.81 1.49-.81 1.49-.8 1.49-.81 1.49-.8 1.5-.8 1.49-.8 1.49-.8 1.5-.8 1.49-.79 1.5-.8 1.49-.79 1.5-.8 1.5-.79 1.5-.79 1.49-.79 1.5-.79 1.5-.79 1.51-.78 1.5-.79 1.5-.78 1.5-.78 1.51-.78 1.5-.78 1.51-.78 1.5-.78 1.51-.78 1.51-.77 1.5-.78 1.51-.77 1.51-.77 1.51-.77 1.51-.77 1.52-.77 1.51-.77 1.51-.76 1.51-.77 1.52-.76 1.51-.76 1.52-.77 1.51-.76 1.52-.75 1.52-.76 1.52-.76 1.52-.75 1.52-.76 1.52-.75 1.52-.75 1.52-.75 1.52-.75 1.53-.75 1.52-.75 1.52-.74 1.53-.75 1.52-.74 1.53-.74 1.53-.75 1.53-.74 1.53-.73 1.52-.74 1.53-.74 1.54-.73 1.53-.74 1.53-.73 1.53-.73 1.54-.73 1.53-.73 1.53-.73 1.54-.73 1.54-.72 1.53-.73 1.54-.72 1.54-.72 1.54-.72 1.54-.72 1.54-.72 1.54-.72 1.54-.72 1.54-.71 1.55-.71 1.54-.72 1.55-.71 1.54-.71 1.55-.71 1.54-.71 1.55-.7 1.55-.71 1.55-.7 1.55-.71 1.55-.7" style="stroke-width:1.07;stroke:#000000;stroke-opacity:0.10;stroke-linecap:butt"/><path d="m63.02 374.41 1.41-.94 1.42-.93 1.42-.92 1.42-.93 1.42-.92 1.43-.91 1.42-.92 1.43-.91 1.43-.9 1.44-.9 1.43-.9 1.44-.9 1.44-.89 1.44-.89 1.45-.88 1.44-.88 1.45-.88 1.45-.87 1.45-.87 1.46-.87 1.45-.86 1.46-.86 1.46-.86 1.46-.85 1.47-.85 1.47-.85 1.46-.84 1.48-.84 1.47-.83 1.47-.83 1.48-.83 1.48-.82 1.48-.82 1.48-.82 1.49-.81 1.49-.81 1.49-.81 1.49-.8 1.49-.8 1.5-.8 1.49-.79 1.5-.79 1.5-.78 1.51-.78 1.5-.78 1.51-.78 1.51-.77 1.51-.76 1.52-.77 1.52-.76 1.51-.75 1.52-.76 1.53-.75 1.52-.74 1.53-.74 1.53-.74 1.53-.74 1.53-.73 1.53-.73 1.54-.72 1.54-.72 1.54-.72 1.55-.72 1.54-.71 1.55-.7 1.55-.71 1.55-.69 1.55-.7 1.56-.69 1.56-.69 1.55-.69 1.57-.68 1.56-.68 1.57-.67 1.56-.67 1.57-.67 1.58-.67 1.57-.66 1.58-.65 1.58-.66 1.58-.65 1.58-.64 1.58-.65 1.59-.64 1.59-.63 1.59-.63 1.59-.63 1.6-.63 1.59-.62 1.6-.62 1.6-.61 1.61-.61 1.6-.61 1.61-.6 1.61-.6 1.61-.6 1.61-.59 1.62-.59 1.62-.59" style="stroke-width:1.07;stroke:#000000;stroke-opacity:0.10;stroke-linecap:butt"/><path d="m63.02 374.41 1.34-1.05 1.35-1.05 1.36-1.04 1.36-1.03 1.36-1.02 1.36-1.03 1.37-1.01 1.37-1.01 1.38-1 1.37-1 1.39-.99 1.38-.98 1.39-.98 1.39-.98 1.4-.96 1.4-.97 1.4-.95 1.41-.95 1.4-.94 1.42-.94 1.41-.93 1.42-.93 1.43-.92 1.42-.91 1.43-.91 1.44-.9 1.43-.9 1.44-.89 1.45-.88 1.45-.88 1.45-.88 1.45-.86 1.46-.86 1.46-.86 1.46-.85 1.47-.84 1.47-.84 1.48-.83 1.48-.82 1.48-.82 1.48-.82 1.49-.8 1.49-.8 1.5-.8 1.5-.79 1.5-.78 1.51-.78 1.51-.77 1.51-.77 1.52-.76 1.52-.75 1.52-.75 1.53-.74 1.53-.74 1.53-.73 1.54-.73 1.54-.71 1.54-.72 1.55-.7 1.55-.7 1.55-.7 1.56-.69 1.56-.68 1.57-.68 1.56-.67 1.58-.66 1.57-.66 1.58-.66 1.58-.65 1.59-.64 1.58-.63 1.6-.63 1.59-.63 1.6-.61 1.6-.62 1.61-.6 1.61-.6 1.61-.6 1.62-.58 1.62-.59 1.62-.57 1.63-.57 1.63-.57 1.63-.56 1.64-.55 1.64-.55 1.64-.54 1.65-.53 1.65-.53 1.65-.53 1.66-.51 1.66-.51 1.67-.51 1.66-.5 1.68-.49 1.67-.49 1.68-.48 1.68-.48 1.69-.47" style="stroke-width:1.07;stroke:#000000;stroke-opacity:0.10;stroke-linecap:butt"/><path d="m63.02 374.41 1.28-1.17 1.28-1.16 1.29-1.15 1.29-1.14 1.3-1.13 1.31-1.13 1.31-1.11 1.31-1.11 1.32-1.1 1.32-1.09 1.33-1.09 1.33-1.07 1.34-1.07 1.34-1.06 1.35-1.05 1.35-1.04 1.36-1.03 1.36-1.03 1.37-1.01 1.37-1.01 1.37-1 1.39-1 1.38-.98 1.39-.98 1.4-.96 1.4-.96 1.4-.95 1.41-.94 1.42-.94 1.42-.92 1.42-.92 1.43-.91 1.44-.9 1.44-.9 1.44-.88 1.45-.88 1.45-.86 1.46-.86 1.46-.85 1.47-.85 1.47-.83 1.48-.83 1.48-.82 1.49-.81 1.49-.8 1.5-.79 1.5-.79 1.51-.77 1.51-.77 1.52-.76 1.52-.75 1.52-.75 1.53-.73 1.54-.73 1.54-.72 1.55-.71 1.55-.7 1.55-.69 1.56-.69 1.57-.68 1.56-.66 1.58-.66 1.58-.66 1.58-.64 1.59-.64 1.59-.62 1.6-.62 1.61-.61 1.6-.61 1.62-.59 1.61-.59 1.63-.57 1.62-.57 1.64-.57 1.63-.55 1.64-.54 1.65-.54 1.65-.53 1.66-.52 1.66-.51 1.67-.5 1.67-.5 1.67-.48 1.68-.48 1.69-.47 1.69-.46 1.69-.45 1.7-.45 1.71-.44 1.71-.42 1.71-.43 1.72-.41 1.72-.4 1.73-.4 1.73-.38 1.74-.38 1.75-.37 1.74-.36 1.76-.36" style="stroke-width:1.07;stroke:#000000;stroke-opacity:0.10;stroke-linecap:butt"/><path d="m63.02 374.41 1.21-1.29 1.22-1.27 1.22-1.26 1.23-1.25 1.24-1.24 1.24-1.23 1.25-1.22 1.26-1.2 1.26-1.2 1.27-1.19 1.27-1.17 1.28-1.17 1.29-1.15 1.29-1.15 1.3-1.13 1.31-1.12 1.31-1.11 1.32-1.1 1.32-1.09 1.33-1.08 1.34-1.07 1.34-1.06 1.35-1.05 1.35-1.04 1.36-1.02 1.37-1.02 1.37-1 1.38-1 1.39-.98 1.39-.98 1.4-.96 1.4-.95 1.42-.94 1.41-.93 1.43-.92 1.42-.91 1.44-.9 1.44-.89 1.45-.88 1.45-.86 1.46-.86 1.47-.84 1.47-.84 1.48-.82 1.49-.82 1.49-.8 1.5-.79 1.5-.78 1.51-.77 1.52-.76 1.52-.75 1.53-.74 1.53-.73 1.55-.72 1.54-.7 1.56-.7 1.56-.68 1.56-.68 1.57-.66 1.58-.66 1.59-.64 1.59-.63 1.59-.62 1.61-.61 1.61-.6 1.61-.59 1.62-.58 1.63-.57 1.64-.56 1.64-.55 1.64-.53 1.66-.53 1.65-.51 1.67-.51 1.67-.49 1.68-.48 1.68-.47 1.69-.47 1.7-.45 1.7-.44 1.71-.43 1.71-.42 1.73-.4 1.72-.4 1.74-.39 1.74-.38 1.74-.36 1.75-.36 1.76-.34 1.77-.33 1.77-.33 1.77-.31 1.79-.3 1.79-.29 1.79-.28 1.8-.27 1.81-.26 1.82-.25 1.82-.24" style="stroke-width:1.07;stroke:#000000;stroke-opacity:0.10;stroke-linecap:butt"/><path d="m63.02 374.41 1.14-1.4 1.15-1.39 1.16-1.37 1.17-1.36 1.17-1.34 1.19-1.34 1.19-1.32 1.2-1.31 1.2-1.29 1.21-1.28 1.22-1.27 1.23-1.25 1.24-1.25 1.24-1.23 1.25-1.21 1.26-1.2 1.27-1.19 1.27-1.18 1.28-1.16 1.29-1.16 1.3-1.13 1.3-1.13 1.31-1.11 1.32-1.1 1.33-1.08 1.33-1.08 1.34-1.06 1.35-1.04 1.36-1.04 1.36-1.02 1.38-1.01 1.38-.99 1.38-.98 1.4-.97 1.4-.96 1.41-.94 1.42-.93 1.42-.91 1.44-.91 1.44-.89 1.45-.87 1.45-.87 1.46-.85 1.47-.84 1.48-.82 1.49-.82 1.49-.8 1.5-.78 1.51-.77 1.52-.76 1.52-.75 1.53-.74 1.54-.72 1.55-.7 1.55-.7 1.57-.68 1.56-.67 1.58-.66 1.59-.64 1.59-.63 1.6-.62 1.61-.6 1.61-.59 1.62-.58 1.63-.56 1.64-.55 1.65-.54 1.65-.53 1.66-.51 1.67-.5 1.67-.49 1.69-.47 1.69-.46 1.69-.45 1.71-.43 1.71-.42 1.72-.41 1.73-.4 1.74-.38 1.74-.37 1.75-.35 1.76-.35 1.77-.33 1.77-.31 1.79-.31 1.79-.29 1.79-.28 1.81-.26 1.81-.25 1.82-.24 1.83-.23 1.83-.21 1.84-.2 1.85-.19 1.86-.17 1.87-.16 1.87-.15 1.88-.14 1.89-.12" style="stroke-width:1.07;stroke:#000000;stroke-opacity:0.10;stroke-linecap:butt"/><path d="m385.32 284.43 1.91 3.31h-3.83zM52.21 238.74l6.76 11.7H45.46zm189.32-106.66 4.08 7.07h-8.16zm26.92 317.61 4.97 8.62h-9.95z" style="stroke-width:0.71;stroke:none;fill:#00BA38"/><path d="M58 379.43h10.03v-10.04H58z" style="stroke-width:0.71;stroke:none;fill:#619CFF"/><circle cx="213.13" cy="299.16" r="6.76" style="stroke-width:0.71;stroke:none;fill:#F8766D"/><path d="m237.04 141.46 3.71-3.85m22.93 322.08 3.92-3.5m-49.81-161.68-3.87 3.86" style="stroke-width:0.53;stroke:#BFBFBF"/><path d="M306.88 292.31h71.58-.08l.35-.01.34-.07.32-.13.3-.17.27-.22.23-.26.19-.29.13-.32.09-.34.02-.35h0v-7.02h0l-.02-.35-.09-.34-.13-.32-.19-.29-.23-.26-.27-.22-.3-.18-.32-.12-.34-.07-.27-.01h-71.58l.26.01-.34-.01-.35.04-.33.1-.32.14-.28.2-.25.24-.21.28-.16.31-.11.33-.06.34-.01.18v7.02l.01-.17v.35l.06.34.11.33.16.31.21.27.25.25.28.19.32.15.33.1.35.04z" style="stroke-width:0.53;fill:#FFFFFF;fill-opacity:0.50"/><text x="342.67" y="288.71" lengthAdjust="spacingAndGlyphs" style="font-size:5.69px;font-family:&quot;Liberation Sans&quot;" text-anchor="middle" textLength="68.7">DEANA PROPERTIES LLC</text><path d="M58.98 252.2h69.93-.09l.35-.02.34-.07.33-.12.3-.17.27-.22.23-.26.18-.3.14-.32.08-.34.03-.34h0v-7.03h0l-.03-.35-.08-.33-.14-.32-.18-.3-.23-.26-.27-.22-.3-.17-.33-.12-.34-.07-.26-.02H58.98l.26.02-.34-.02-.35.04-.33.1-.32.15-.28.2-.25.24-.21.28-.16.3-.11.33-.06.35-.01.17v7.03l.01-.18v.35l.06.35.11.32.16.31.21.28.25.24.28.2.32.15.33.09.35.05z" style="stroke-width:0.53;fill:#FFFFFF;fill-opacity:0.50"/><text x="93.95" y="248.6" lengthAdjust="spacingAndGlyphs" style="font-size:5.69px;font-family:&quot;Liberation Sans&quot;" text-anchor="middle" textLength="67.05">ZIGG ENTERPRISES LLC</text><path d="M207.47 152.81h46.25-.09l.35-.02.34-.07.32-.12.3-.17.27-.22.23-.26.19-.3.13-.32.09-.33.03-.35h0v-7.03h0l-.03-.34-.09-.34-.13-.32-.19-.3-.23-.26-.27-.22-.3-.17-.32-.12-.34-.07-.26-.02h-46.25l.26.02-.35-.02-.34.05-.34.09-.31.15-.29.2-.25.24-.21.28-.16.31-.11.33-.05.34-.01.17v7.03l.01-.17v.34l.05.35.11.33.16.3.21.28.25.24.29.2.31.15.34.1.34.04z" style="stroke-width:0.53;fill:#FFFFFF;fill-opacity:0.50"/><text x="230.59" y="149.21" lengthAdjust="spacingAndGlyphs" style="font-size:5.69px;font-family:&quot;Liberation Sans&quot;" text-anchor="middle" textLength="43.37">ANTON KELLER</text><path d="M209.86 467.77h51.66-.09l.35-.01.34-.07.33-.13.3-.17.27-.22.23-.26.18-.29.14-.32.08-.34.03-.35h0v-7.02h0l-.03-.35-.08-.34-.14-.32-.18-.29-.23-.26-.27-.22-.3-.18-.33-.12-.34-.07-.26-.01h-51.66l.26.01-.35-.01-.34.04-.34.1-.31.14-.29.2-.25.24-.2.28-.17.31-.11.33-.05.34-.01.18v7.02l.01-.17v.35l.05.34.11.33.17.31.2.27.25.25.29.19.31.15.34.1.34.04z" style="stroke-width:0.53;fill:#FFFFFF;fill-opacity:0.50"/><text x="235.69" y="464.17" lengthAdjust="spacingAndGlyphs" style="font-size:5.69px;font-family:&quot;Liberation Sans&quot;" text-anchor="middle" textLength="48.78">ANTON S KELLER</text><path d="M69.86 384h67.22-.08l.34-.02.34-.07.33-.12.3-.17.27-.22.23-.26.19-.3.13-.32.09-.33.02-.35h0v-15.22h0l-.02-.35-.09-.34-.13-.32-.19-.29-.23-.26-.27-.22-.3-.17-.33-.13-.34-.07-.26-.01H69.86l.26.01-.34-.01-.35.04-.33.1-.32.15-.28.2-.25.24-.21.27-.16.31-.11.33-.06.34-.01.18v15.22l.01-.17v.34l.06.35.11.33.16.3.21.28.25.24.28.2.32.15.33.1.35.04z" style="stroke-width:0.53;fill:#FFFFFF;fill-opacity:0.50"/><text x="103.47" y="372.21" lengthAdjust="spacingAndGlyphs" style="font-size:5.69px;font-family:&quot;Liberation Sans&quot;" text-anchor="middle" textLength="47.4">2831 S 13TH ST,</text><text x="103.47" y="380.4" lengthAdjust="spacingAndGlyphs" style="font-size:5.69px;font-family:&quot;Liberation Sans&quot;" text-anchor="middle" textLength="64.34">MILWAUKEE, WI 53215</text><path d="M194.74 294.51h67.22-.09l.35-.01.34-.07.32-.13.3-.17.27-.22.23-.26.19-.29.13-.32.09-.34.03-.35h0v-15.22h0l-.03-.35-.09-.33-.13-.32-.19-.3-.23-.26-.27-.22-.3-.17-.32-.12-.34-.07-.26-.02h-67.22l.26.02-.35-.02-.35.04-.33.1-.31.15-.29.2-.25.24-.21.28-.16.3-.11.33-.06.35v15.39-.17.35l.06.34.11.33.16.31.21.27.25.25.29.19.31.15.33.1.35.04z" style="stroke-width:0.53;fill:#FFFFFF;fill-opacity:0.50"/><text x="228.35" y="282.72" lengthAdjust="spacingAndGlyphs" style="font-size:5.69px;font-family:&quot;Liberation Sans&quot;" text-anchor="middle" textLength="47.4">2831 S 13TH ST,</text><text x="228.35" y="290.91" lengthAdjust="spacingAndGlyphs" style="font-size:5.69px;font-family:&quot;Liberation Sans&quot;" text-anchor="middle" textLength="64.34">MILWAUKEE, WI 53215</text></g><g clip-path="url(#cpMC4wMHw0MzIuMDB8MC4wMHw1MDQuMDA=)"><circle cx="122.24" cy="95.78" r="1.95" style="stroke-width:0.71;stroke:none;fill:#F8766D"/><path d="m198.59 92.74 2.63 4.56h-5.26z" style="stroke-width:0.71;stroke:none;fill:#00BA38"/><path d="M264.57 97.74h3.91v-3.91h-3.91z" style="stroke-width:0.71;stroke:none;fill:#619CFF"/><text x="136.36" y="98.81" lengthAdjust="spacingAndGlyphs" style="font-size:8.80px;font-family:&quot;Liberation Sans Narrow&quot;" textLength="48.12">mprop address</text><text x="212.71" y="98.81" lengthAdjust="spacingAndGlyphs" style="font-size:8.80px;font-family:&quot;Liberation Sans Narrow&quot;" textLength="39.69">owner name</text><text x="280.64" y="98.81" lengthAdjust="spacingAndGlyphs" style="font-size:8.80px;font-family:&quot;Liberation Sans Narrow&quot;" textLength="40.5">wdfi address</text><text x="32.63" y="64.23" lengthAdjust="spacingAndGlyphs" style="font-size:12.00px;font-family:&quot;Liberation Sans Narrow&quot;" textLength="252.23">includes 12 parcels, 25 units, and 4 distinct owner names.</text><text x="32.63" y="42.27" lengthAdjust="spacingAndGlyphs" style="font-size:18.00px;font-weight:bold;font-family:&quot;Liberation Sans Narrow&quot;" textLength="250.92">ZIGG ENTERPRISES LLC etc Group</text></g></svg>