<svg xmlns="http://www.w3.org/2000/svg" class="svglite" width="768" height="768" viewBox="0 0 576 576"><defs><style>.svglite circle,.svglite line,.svglite polygon,.svglite polyline,.svglite rect{fill:none;stroke:#000;stroke-linecap:round;stroke-linejoin:round;stroke-miterlimit:10}.svglite text{white-space:pre}</style></defs><rect width="100%" height="100%" style="stroke:none;fill:#fff"/><defs><clipPath id="cpMC4wMHw1NzYuMDB8MC4wMHw1NzYuMDA="><path d="M0 0h576v576H0z"/></clipPath></defs><g clip-path="url(#cpMC4wMHw1NzYuMDB8MC4wMHw1NzYuMDA=)"><path style="stroke-width:1.07;stroke:none;fill:#fff" d="M0 0h576v576H0z"/></g><defs><clipPath id="cpMzIuNjN8NTQ2LjExfDEyMC44Nnw1NDMuMzc="><path d="M32.63 120.86h513.48v422.51H32.63z"/></clipPath></defs><g clip-path="url(#cpMzIuNjN8NTQ2LjExfDEyMC44Nnw1NDMuMzc=)"><path style="stroke-width:1.07;stroke:#000;stroke-opacity:.1;stroke-linecap:butt" d="m297.71 396.09-2.52-.6-2.52-.59-2.52-.56-2.51-.55-2.52-.53-2.51-.5-2.51-.49-2.51-.47-2.51-.45-2.51-.43-2.5-.41-2.51-.38-2.5-.37-2.5-.36-2.5-.33-2.49-.31-2.5-.29-2.49-.27-2.49-.26-2.49-.23-2.49-.21-2.49-.2-2.49-.17-2.48-.16-2.48-.13-2.48-.12-2.48-.1-2.48-.07-2.48-.06-2.47-.04-2.47-.02-2.47.01-2.47.02-2.47.04-2.47.06-2.46.08-2.46.09-2.47.12-2.46.14-2.45.16-2.46.17-2.45.2-2.46.22-2.45.23-2.45.26-2.45.27-2.44.3-2.45.31-2.44.33-2.44.36-2.44.37-2.44.39-2.44.41-2.44.43-2.43.45-2.43.47-2.43.49-2.43.51-2.43.53-2.42.55-2.43.57-2.42.58-2.42.61-2.42.63-2.42.64-2.41.67-2.42.68-2.41.71-2.41.72-2.41.75-2.41.76-2.41.78-2.4.8-2.4.83-2.4.84-2.4.86-2.4.88-2.4.9-2.39.92-2.4.94-2.39.96-2.39.97-2.39 1-2.38 1.02-2.39 1.04-2.38 1.05-2.39 1.08-2.38 1.09-2.37 1.12-2.38 1.13-2.38 1.16-2.37 1.17-2.37 1.19-2.37 1.22-2.37 1.23-2.37 1.25-2.37 1.27-2.36 1.29-2.36 1.31M297.71 396.09l-.7-3.36-.73-3.35-.74-3.32-.75-3.32-.77-3.3-.79-3.28-.8-3.26-.82-3.26-.83-3.23-.85-3.22-.86-3.2-.88-3.19-.9-3.17-.91-3.16-.93-3.14-.95-3.12-.96-3.11-.97-3.09-1-3.08-1-3.06-1.03-3.04-1.04-3.03-1.05-3.01-1.07-3-1.09-2.98-1.1-2.97-1.12-2.95-1.13-2.93-1.15-2.92-1.17-2.9-1.18-2.89-1.2-2.87-1.21-2.85-1.23-2.84-1.25-2.83-1.26-2.8-1.27-2.8-1.3-2.77-1.3-2.76-1.33-2.75-1.34-2.73-1.35-2.71-1.38-2.69-1.38-2.69-1.41-2.66-1.42-2.65-1.43-2.63-1.45-2.62-1.47-2.6-1.48-2.59-1.5-2.57-1.51-2.55-1.53-2.54-1.55-2.53-1.56-2.5-1.58-2.49-1.59-2.48-1.61-2.46-1.63-2.44-1.64-2.43-1.65-2.41-1.68-2.4-1.68-2.38-1.71-2.36-1.72-2.35-1.73-2.34-1.76-2.31-1.76-2.3-1.79-2.29-1.79-2.27-1.82-2.25-1.83-2.24-1.85-2.22-1.86-2.21-1.88-2.19-1.89-2.18-1.91-2.16-1.93-2.14-1.94-2.13-1.96-2.11-1.97-2.09-1.99-2.08-2-2.07-2.02-2.05-2.04-2.03-2.05-2.01-2.07-2.01-2.08-1.98-2.1-1.97-2.12-1.95-2.13-1.94-2.15-1.92-2.16-1.91-2.18-1.89-2.19-1.87-2.21-1.86-2.23-1.84-2.24-1.83-2.26-1.81M297.71 396.09l2.28 1.29 2.27 1.3 2.27 1.29 2.28 1.3 2.27 1.29 2.27 1.29 2.28 1.3 2.27 1.29 2.27 1.29 2.28 1.3 2.27 1.29 2.27 1.3 2.28 1.29 2.27 1.29 2.27 1.3 2.28 1.29 2.27 1.29 2.27 1.3 2.28 1.29 2.27 1.29 2.27 1.3 2.28 1.29 2.27 1.3 2.27 1.29 2.28 1.29 2.27 1.3 2.27 1.29 2.28 1.29 2.27 1.3 2.27 1.29 2.28 1.3 2.27 1.29 2.27 1.29 2.28 1.3 2.27 1.29 2.27 1.29 2.28 1.3 2.27 1.29 2.27 1.3 2.28 1.29 2.27 1.29 2.27 1.3 2.28 1.29 2.27 1.29 2.27 1.3 2.28 1.29 2.27 1.29 2.27 1.3 2.28 1.29 2.27 1.3 2.27 1.29 2.28 1.29 2.27 1.3 2.27 1.29 2.28 1.29 2.27 1.3 2.27 1.29 2.28 1.3 2.27 1.29 2.27 1.29 2.28 1.3 2.27 1.29 2.27 1.29 2.28 1.3 2.27 1.29 2.27 1.3 2.28 1.29 2.27 1.29 2.27 1.3 2.28 1.29 2.27 1.29 2.27 1.3 2.28 1.29 2.27 1.29 2.27 1.3 2.28 1.29 2.27 1.3 2.27 1.29 2.28 1.29 2.27 1.3 2.27 1.29 2.28 1.29 2.27 1.3 2.27 1.29 2.28 1.3 2.27 1.29 2.27 1.29 2.28 1.3 2.27 1.29 2.27 1.29 2.28 1.3 2.27 1.29 2.27 1.3 2.28 1.29 2.27 1.29 2.27 1.3 2.28 1.29 2.27 1.29 2.27 1.3"/><path style="stroke-width:1.07;stroke:#000;stroke-opacity:.1;stroke-linecap:butt" d="m297.71 396.09-1.09-2.97-1.1-2.97-1.12-2.96-1.11-2.95-1.13-2.94-1.13-2.93-1.15-2.93-1.15-2.92-1.15-2.91-1.17-2.9-1.17-2.89-1.19-2.89-1.19-2.88-1.19-2.87-1.21-2.86-1.21-2.86-1.22-2.84-1.23-2.84-1.24-2.84-1.24-2.82-1.26-2.81-1.26-2.81-1.27-2.8-1.27-2.79-1.29-2.79-1.29-2.77-1.3-2.77-1.31-2.76-1.32-2.75-1.32-2.75-1.33-2.73-1.34-2.73-1.35-2.72-1.36-2.72-1.36-2.7-1.37-2.7-1.38-2.69-1.39-2.68-1.39-2.67-1.41-2.66-1.41-2.66-1.42-2.65-1.42-2.64-1.44-2.64-1.44-2.62-1.45-2.62-1.46-2.61-1.47-2.6-1.47-2.6-1.49-2.58-1.49-2.58-1.49-2.57-1.51-2.56-1.52-2.56-1.52-2.54-1.53-2.54-1.53-2.53-1.55-2.53-1.55-2.51-1.57-2.51-1.57-2.5-1.57-2.49-1.59-2.48-1.59-2.48-1.6-2.46-1.61-2.46-1.62-2.46-1.62-2.44-1.64-2.43-1.64-2.43-1.65-2.42-1.65-2.41-1.67-2.41-1.67-2.4-1.68-2.38-1.69-2.38-1.69-2.38-1.71-2.36-1.71-2.36-1.72-2.35-1.73-2.34-1.73-2.33-1.75-2.33-1.75-2.31-1.76-2.31-1.77-2.3-1.77-2.3-1.78-2.28-1.79-2.28-1.8-2.27-1.81-2.26-1.82-2.26-1.82-2.24-1.83-2.24-1.84-2.23-1.84-2.22-1.86-2.22-1.86-2.2-1.87-2.2M297.71 396.09l-2.47.03-2.46.04-2.47.05-2.47.05-2.46.06-2.47.07-2.46.07-2.47.08-2.46.09-2.47.09-2.46.1-2.46.11-2.46.11-2.46.12-2.47.12-2.46.13-2.46.14-2.45.14-2.46.15-2.46.16-2.46.17-2.46.17-2.45.17-2.46.19-2.45.19-2.46.19-2.45.21-2.46.21-2.45.21-2.45.22-2.45.23-2.46.24-2.45.24-2.45.25-2.45.26-2.45.26-2.45.27-2.44.27-2.45.28-2.45.29-2.45.29-2.44.3-2.45.31-2.44.31-2.45.33-2.44.32-2.44.34-2.45.33-2.44.35-2.44.35-2.44.36-2.44.37-2.44.37-2.44.38-2.44.39-2.44.39-2.44.4-2.44.4-2.43.41-2.44.42-2.44.43-2.43.43-2.44.43-2.43.45-2.44.45-2.43.46-2.43.46-2.43.47-2.43.48-2.44.48-2.43.49-2.43.49-2.43.51-2.42.51-2.43.51-2.43.52-2.43.53-2.43.54-2.42.54-2.43.55-2.42.55-2.43.56-2.42.57-2.42.58-2.43.58-2.42.58-2.42.6-2.42.6-2.42.61-2.42.61-2.42.62-2.42.62-2.42.64-2.42.64-2.42.64-2.41.66-2.42.65-2.42.67-2.41.67"/><path style="stroke-width:1.07;stroke:#000;stroke-opacity:.1;stroke-linecap:butt" d="m297.71 396.09-1.48-2.59-1.48-2.58-1.48-2.59-1.49-2.58-1.48-2.59-1.48-2.59-1.48-2.58-1.49-2.59-1.48-2.58-1.48-2.59-1.48-2.59-1.49-2.58-1.48-2.59-1.48-2.58-1.48-2.59-1.49-2.59-1.48-2.58-1.48-2.59-1.48-2.58-1.49-2.59-1.48-2.59-1.48-2.58-1.48-2.59-1.49-2.59-1.48-2.58-1.48-2.59-1.48-2.58-1.49-2.59-1.48-2.59-1.48-2.58-1.48-2.59-1.49-2.58-1.48-2.59-1.48-2.59-1.48-2.58-1.49-2.59-1.48-2.58-1.48-2.59-1.48-2.59-1.49-2.58-1.48-2.59-1.48-2.58-1.48-2.59-1.49-2.59-1.48-2.58-1.48-2.59-1.48-2.59-1.49-2.58-1.48-2.59-1.48-2.58-1.48-2.59-1.49-2.59-1.48-2.58-1.48-2.59-1.48-2.58-1.49-2.59-1.48-2.59-1.48-2.58-1.48-2.59-1.49-2.58-1.48-2.59-1.48-2.59-1.48-2.58-1.49-2.59-1.48-2.59-1.48-2.58-1.48-2.59-1.48-2.58-1.49-2.59-1.48-2.59-1.48-2.58-1.48-2.59-1.49-2.58-1.48-2.59-1.48-2.59-1.48-2.58-1.49-2.59-1.48-2.58-1.48-2.59-1.48-2.59-1.49-2.58-1.48-2.59-1.48-2.58-1.48-2.59-1.49-2.59-1.48-2.58-1.48-2.59-1.48-2.59-1.49-2.58-1.48-2.59-1.48-2.58-1.48-2.59-1.49-2.59-1.48-2.58-1.48-2.59-1.48-2.58-1.49-2.59-1.48-2.59-1.48-2.58M297.71 396.09l-2.41.67-2.42.67-2.42.66-2.41.65-2.42.65-2.42.64-2.42.63-2.42.62-2.42.62-2.42.62-2.42.6-2.42.6-2.42.6-2.42.59-2.43.58-2.42.57-2.42.57-2.43.56-2.42.55-2.43.55-2.42.54-2.43.54-2.43.53-2.43.52-2.42.52-2.43.51-2.43.5-2.43.49-2.43.49-2.43.49-2.44.47-2.43.47-2.43.47-2.43.45-2.44.46-2.43.44-2.44.44-2.43.43-2.44.42-2.43.42-2.44.41-2.44.41-2.44.39-2.44.4-2.44.38-2.44.38-2.44.37-2.44.37-2.44.36-2.44.35-2.44.35-2.44.34-2.45.33-2.44.33-2.45.32-2.44.31-2.45.31-2.44.3-2.45.29-2.45.29-2.45.28-2.44.28-2.45.27-2.45.26-2.45.25-2.45.25-2.45.24-2.46.24-2.45.23-2.45.22-2.45.22-2.46.21-2.45.2-2.46.2-2.45.19-2.46.18-2.45.18-2.46.17-2.46.16-2.46.16-2.45.15-2.46.14-2.46.14-2.46.13-2.46.13-2.47.12-2.46.11-2.46.1-2.46.1-2.47.09-2.46.09-2.47.08-2.46.07-2.47.07-2.46.06-2.47.05-2.47.05-2.46.04-2.47.03"/><path style="stroke-width:1.07;stroke:#000;stroke-opacity:.1;stroke-linecap:butt" d="m297.71 396.09-1.87-2.2-1.86-2.2-1.85-2.22-1.85-2.22-1.84-2.23-1.83-2.24-1.82-2.25-1.82-2.25-1.8-2.26-1.8-2.27-1.79-2.28-1.79-2.28-1.77-2.3-1.77-2.3-1.76-2.31-1.75-2.32-1.75-2.32-1.73-2.33-1.73-2.34-1.72-2.35-1.71-2.36-1.7-2.36-1.7-2.38-1.69-2.38-1.68-2.39-1.67-2.39-1.67-2.41-1.65-2.41-1.65-2.42-1.64-2.43-1.63-2.43-1.63-2.45-1.62-2.45-1.61-2.46-1.6-2.46-1.59-2.48-1.59-2.48-1.57-2.49-1.57-2.5-1.56-2.51-1.56-2.52-1.54-2.52-1.54-2.53-1.53-2.54-1.52-2.54-1.52-2.56-1.5-2.56-1.5-2.57-1.49-2.58-1.48-2.59-1.48-2.59-1.47-2.6-1.45-2.61-1.46-2.62-1.44-2.62-1.43-2.64-1.43-2.64-1.42-2.65-1.41-2.66-1.4-2.66-1.4-2.67-1.39-2.69-1.38-2.68-1.37-2.7-1.36-2.71-1.36-2.71-1.35-2.72-1.34-2.73-1.33-2.73-1.32-2.75-1.32-2.75-1.31-2.76-1.3-2.77-1.29-2.77-1.28-2.79-1.28-2.79-1.27-2.8-1.26-2.81-1.25-2.81-1.25-2.83-1.24-2.83-1.23-2.84-1.22-2.84-1.21-2.86-1.21-2.86-1.19-2.87-1.19-2.88-1.18-2.89-1.18-2.89-1.16-2.9-1.16-2.91-1.15-2.92-1.14-2.93-1.14-2.93-1.13-2.95-1.11-2.95-1.11-2.95-1.11-2.97-1.09-2.97M297.71 396.09l-2.36 1.31-2.36 1.29-2.37 1.27-2.37 1.25-2.37 1.24-2.37 1.21-2.37 1.19-2.37 1.18-2.38 1.15-2.38 1.13-2.37 1.12-2.38 1.09-2.39 1.08-2.38 1.06-2.38 1.03-2.39 1.02-2.39 1-2.39.98-2.39.96-2.4.93-2.39.92-2.4.9-2.39.88-2.4.86-2.41.85-2.4.82-2.4.8-2.41.78-2.41.77-2.41.74-2.41.72-2.41.71-2.42.68-2.41.67-2.42.64-2.42.63-2.42.61-2.42.59-2.43.56-2.42.55-2.43.53-2.43.51-2.43.49-2.43.47-2.43.45-2.44.43-2.44.41-2.43.39-2.44.38-2.45.35-2.44.33-2.45.32-2.44.29-2.45.27-2.45.26-2.45.24-2.46.21-2.45.2-2.46.18-2.45.15-2.46.14-2.47.12-2.46.1-2.46.08-2.47.06-2.47.04-2.47.02h-2.47l-2.47-.02-2.47-.04-2.48-.06-2.48-.07-2.48-.1-2.48-.11-2.48-.14-2.48-.16-2.49-.17-2.49-.19-2.49-.22-2.49-.23-2.49-.25-2.49-.28-2.5-.29-2.49-.31-2.5-.33-2.5-.35-2.5-.37-2.51-.39-2.5-.41-2.51-.43-2.51-.45-2.51-.47-2.51-.48-2.51-.51-2.52-.53-2.51-.54-2.52-.57-2.52-.58-2.52-.61"/><path style="stroke-width:1.07;stroke:#000;stroke-opacity:.1;stroke-linecap:butt" d="m297.71 396.09-2.26-1.81-2.24-1.83-2.22-1.84-2.21-1.86-2.2-1.87-2.18-1.89-2.16-1.91-2.15-1.92-2.13-1.94-2.12-1.95-2.09-1.97-2.09-1.99-2.07-2-2.05-2.01-2.04-2.04-2.02-2.04-2-2.07-1.99-2.08-1.97-2.09-1.96-2.12-1.94-2.12-1.93-2.15-1.91-2.16-1.89-2.17-1.88-2.19-1.86-2.21-1.85-2.22-1.83-2.24-1.81-2.25-1.8-2.27-1.79-2.29-1.76-2.3-1.75-2.32-1.74-2.33-1.72-2.35-1.7-2.36-1.69-2.38-1.68-2.4-1.65-2.41-1.64-2.43-1.63-2.44-1.61-2.46-1.59-2.48-1.58-2.49-1.56-2.51-1.54-2.52-1.53-2.54-1.52-2.55-1.5-2.57-1.48-2.59-1.47-2.6-1.45-2.62-1.43-2.63-1.42-2.65-1.4-2.67-1.39-2.68-1.37-2.69-1.36-2.72-1.34-2.72-1.32-2.75-1.31-2.76-1.29-2.77-1.28-2.8-1.26-2.8-1.25-2.83-1.23-2.84-1.21-2.85-1.2-2.87-1.18-2.89-1.16-2.9-1.16-2.92-1.13-2.93-1.12-2.95-1.1-2.97-1.09-2.98-1.07-3-1.05-3.01-1.04-3.03-1.03-3.05-1-3.06-1-3.07-.97-3.09-.96-3.11-.95-3.13-.92-3.14-.92-3.15-.89-3.17-.88-3.19-.87-3.2-.85-3.22-.83-3.24-.82-3.25-.8-3.26-.79-3.28-.77-3.3-.75-3.32-.74-3.33-.72-3.34-.71-3.36M150.95 140.07l-1.84 2.44-1.82 2.44-1.81 2.46-1.79 2.47-1.77 2.48-1.75 2.49-1.73 2.49-1.71 2.51-1.7 2.52-1.68 2.53-1.66 2.54-1.64 2.55-1.63 2.56-1.61 2.57-1.58 2.58-1.58 2.59-1.55 2.6-1.53 2.62-1.52 2.62-1.5 2.63-1.48 2.64-1.46 2.65-1.45 2.67-1.43 2.67-1.4 2.68-1.4 2.7-1.37 2.7-1.35 2.71-1.34 2.73-1.32 2.73-1.3 2.75-1.28 2.75-1.27 2.77-1.25 2.77-1.23 2.79-1.21 2.79-1.19 2.81-1.18 2.81-1.15 2.83-1.14 2.84-1.12 2.84-1.11 2.86-1.08 2.87-1.07 2.87-1.05 2.89-1.03 2.9-1.01 2.91-1 2.92-.98 2.93-.96 2.93-.94 2.95-.92 2.96-.91 2.97-.88 2.98-.87 2.99-.85 3-.84 3.01-.81 3.02-.8 3.04-.78 3.04-.76 3.05-.75 3.06-.72 3.07-.71 3.08-.69 3.1-.67 3.1-.65 3.11-.64 3.13-.62 3.13-.6 3.14-.58 3.16-.56 3.16-.55 3.18-.53 3.18-.5 3.2-.5 3.2-.47 3.22-.46 3.22-.43 3.24-.42 3.24-.41 3.26-.38 3.27-.37 3.27-.34 3.29-.33 3.3-.31 3.3-.3 3.32-.27 3.33-.26 3.34-.24 3.35-.22 3.35-.21 3.37-.18 3.38-.17 3.39-.15 3.4-.13 3.41-.12 3.42-.09 3.43-.08 3.44"/><path style="stroke-width:1.07;stroke:#000;stroke-opacity:.1;stroke-linecap:butt" d="m150.95 140.07-1.4 2.69-1.39 2.69-1.38 2.7-1.38 2.7-1.36 2.71-1.36 2.71-1.34 2.72-1.34 2.73-1.33 2.73-1.32 2.73-1.31 2.74-1.3 2.74-1.29 2.75-1.28 2.76-1.28 2.76-1.26 2.76-1.26 2.77-1.25 2.78-1.24 2.78-1.22 2.78-1.22 2.79-1.22 2.8-1.2 2.8-1.19 2.81-1.19 2.81-1.17 2.81-1.17 2.82-1.15 2.83-1.15 2.83-1.14 2.84-1.13 2.84-1.12 2.85-1.12 2.85-1.1 2.86-1.09 2.86-1.09 2.87-1.07 2.87-1.07 2.88-1.06 2.88-1.05 2.89-1.04 2.89-1.03 2.9-1.02 2.9-1.02 2.91-1 2.91-1 2.92-.98 2.92-.98 2.93-.97 2.94-.96 2.93-.95 2.95-.94 2.95-.93 2.95-.93 2.96-.91 2.97-.91 2.97-.89 2.97-.89 2.98-.88 2.99-.87 2.99-.86 2.99-.85 3-.84 3.01-.84 3.01-.82 3.01-.82 3.02-.8 3.03-.8 3.03-.79 3.04-.78 3.04-.77 3.04-.76 3.06-.75 3.05-.75 3.06-.73 3.07-.73 3.07-.71 3.08-.71 3.08-.7 3.09-.69 3.09-.68 3.1-.67 3.1-.66 3.11-.66 3.11-.64 3.12-.64 3.12-.62 3.13-.62 3.14-.61 3.14-.6 3.14-.59 3.15-.58 3.15-.57 3.16-.57 3.16-.55 3.17-.55 3.18-.54 3.18-.52 3.18-.52 3.19"/><path style="stroke-width:1.07;stroke:#000;stroke-opacity:.1;stroke-linecap:butt" d="m150.95 140.07-.96 2.94-.96 2.94-.96 2.93-.96 2.94-.96 2.94-.96 2.94-.96 2.94-.96 2.94-.96 2.94-.96 2.94-.95 2.94-.96 2.93-.96 2.94-.96 2.94-.96 2.94-.96 2.94-.96 2.94-.96 2.94-.96 2.94-.96 2.94-.96 2.94-.96 2.93-.96 2.94-.96 2.94-.96 2.94-.96 2.94-.96 2.94-.95 2.94-.96 2.94-.96 2.94-.96 2.93-.96 2.94-.96 2.94-.96 2.94-.96 2.94-.96 2.94-.96 2.94-.96 2.94-.96 2.94-.96 2.93-.96 2.94-.96 2.94-.96 2.94-.96 2.94-.95 2.94-.96 2.94-.96 2.94-.96 2.94-.96 2.94-.96 2.93-.96 2.94-.96 2.94-.96 2.94-.96 2.94-.96 2.94-.96 2.94-.96 2.94-.96 2.94-.96 2.93-.96 2.94-.95 2.94-.96 2.94-.96 2.94-.96 2.94-.96 2.94-.96 2.94-.96 2.94-.96 2.94-.96 2.93-.96 2.94-.96 2.94-.96 2.94-.96 2.94-.96 2.94-.96 2.94-.96 2.94-.96 2.94-.95 2.93-.96 2.94-.96 2.94-.96 2.94-.96 2.94-.96 2.94-.96 2.94-.96 2.94-.96 2.94-.96 2.93-.96 2.94-.96 2.94-.96 2.94-.96 2.94-.96 2.94-.96 2.94-.96 2.94-.95 2.94-.96 2.94-.96 2.93-.96 2.94-.96 2.94"/><path style="stroke-width:1.07;stroke:#000;stroke-opacity:.1;stroke-linecap:butt" d="m150.95 140.07-.52 3.19-.53 3.18-.53 3.18-.55 3.18-.55 3.17-.57 3.16-.57 3.16-.58 3.15-.59 3.15-.6 3.14-.61 3.14-.62 3.14-.63 3.12-.63 3.13-.65 3.12-.65 3.11-.66 3.11-.67 3.1-.68 3.1-.69 3.09-.7 3.09-.71 3.08-.72 3.08-.72 3.07-.74 3.07-.74 3.06-.75 3.05-.76 3.06-.78 3.04-.77 3.04-.79 3.04-.8 3.03-.81 3.03-.81 3.02-.83 3.01-.83 3.01-.84 3.01-.86 3-.86 2.99-.86 2.99-.88 2.99-.89 2.98-.9 2.97-.9 2.97-.92 2.97-.92 2.96-.93 2.95-.94 2.95-.95 2.94-.96 2.94-.97 2.94-.98 2.93-.99 2.92-.99 2.92-1.01 2.91-1.01 2.91-1.02 2.9-1.03 2.9-1.04 2.89-1.05 2.89-1.06 2.88-1.07 2.88-1.07 2.87-1.09 2.87-1.09 2.86-1.11 2.86-1.11 2.85-1.12 2.85-1.13 2.84-1.14 2.84-1.15 2.83-1.16 2.83-1.16 2.82-1.18 2.81-1.18 2.81-1.2 2.81-1.2 2.8-1.21 2.8-1.22 2.79-1.23 2.78-1.24 2.78-1.24 2.78-1.26 2.77-1.27 2.76-1.27 2.76-1.28 2.76-1.29 2.75-1.31 2.74-1.31 2.74-1.32 2.73-1.32 2.73-1.34 2.73-1.35 2.72-1.35 2.71-1.37 2.71-1.37 2.7-1.38 2.7-1.39 2.69-1.4 2.69"/><path style="stroke-width:1.07;stroke:#000;stroke-opacity:.1;stroke-linecap:butt" d="m150.95 140.07-.08 3.44-.1 3.43-.11 3.42-.13 3.41-.15 3.4-.17 3.39-.19 3.38-.2 3.37-.22 3.35-.24 3.35-.26 3.34-.27 3.33-.3 3.32-.31 3.3-.33 3.3-.35 3.29-.36 3.27-.39 3.27-.4 3.26-.42 3.24-.44 3.24-.45 3.22-.48 3.22-.49 3.2-.51 3.2-.53 3.18-.54 3.18-.57 3.16-.58 3.16-.6 3.14-.61 3.13-.64 3.13-.65 3.11-.68 3.1-.68 3.09-.71 3.09-.73 3.07-.74 3.06-.76 3.05-.78 3.04-.8 3.03-.82 3.03-.83 3.01-.85 3-.87 2.99-.89 2.98-.9 2.97-.93 2.96-.94 2.94-.96 2.94-.97 2.93-1 2.92-1.01 2.91-1.03 2.9-1.05 2.88-1.07 2.88-1.09 2.87-1.1 2.86-1.12 2.84-1.14 2.84-1.16 2.83-1.17 2.81-1.2 2.81-1.21 2.79-1.23 2.79-1.24 2.77-1.27 2.77-1.28 2.75-1.3 2.75-1.32 2.73-1.34 2.73-1.35 2.71-1.38 2.7-1.39 2.7-1.41 2.68-1.43 2.67-1.44 2.67-1.46 2.65-1.48 2.64-1.5 2.63-1.52 2.62-1.54 2.61-1.55 2.61-1.57 2.59-1.59 2.58-1.61 2.57-1.62 2.56-1.64 2.55-1.66 2.54-1.68 2.53-1.7 2.52-1.71 2.51-1.74 2.49-1.75 2.49-1.77 2.48-1.78 2.47-1.81 2.46-1.82 2.44-1.84 2.44"/><path style="stroke-width:.71;stroke:none;fill:#00ba38" d="m297.71 385.58 9.1 15.76h-18.2z"/><path style="stroke-width:.71;stroke:none;fill:#619cff" d="M144.19 146.82h13.51v-13.51h-13.51z"/><circle cx="55.97" cy="431.02" r="6.04" style="stroke-width:.71;stroke:none;fill:#f8766d"/><circle cx="522.77" cy="524.17" r="1.42" style="stroke-width:.71;stroke:none;fill:#f8766d"/><path style="stroke-width:.53;stroke:#bfbfbf" d="m292.59 400.72 4.26-3.85M155.6 136.87l-3.67 2.53"/><path style="stroke-width:.53;fill:#fff;fill-opacity:.5" d="M255.17 412.07h60.17-.09l.35-.02.34-.07.32-.12.3-.18.27-.21.23-.27.19-.29.14-.32.08-.34.03-.34v-7.03l-.03-.35-.08-.33-.14-.32-.19-.3-.23-.26-.27-.22-.3-.17-.32-.12-.34-.07-.26-.02h-60.17l.26.02-.34-.02-.35.04-.33.1-.32.15-.28.2-.25.24-.21.28-.16.3-.11.33-.06.35-.01.17v7.03l.01-.18v.35l.06.34.11.33.16.31.21.28.25.24.28.2.32.15.33.09.35.05z"/><text x="285.26" y="408.47" text-anchor="middle" style="font-size:5.69px;font-family:&quot;Liberation Sans&quot;" textLength="57.28" lengthAdjust="spacingAndGlyphs">3 RIVER HOMES LLC</text><path style="stroke-width:.53;fill:#fff;fill-opacity:.5" d="M157.76 144.04h69.54-.09l.35-.02.34-.07.32-.12.3-.18.27-.22.23-.26.19-.29.14-.32.08-.34.03-.34v-15.22l-.03-.35-.08-.34-.14-.32-.19-.29-.23-.26-.27-.22-.3-.18-.32-.12-.34-.07-.26-.01h-69.54l.26.01-.35-.01-.34.04-.34.1-.31.14-.29.2-.25.24-.21.28-.16.31-.11.33-.05.34-.01.18v15.22l.01-.18v.35l.05.34.11.33.16.31.21.28.25.24.29.2.31.15.34.09.34.05z"/><text x="192.53" y="132.24" text-anchor="middle" style="font-size:5.69px;font-family:&quot;Liberation Sans&quot;" textLength="61.4" lengthAdjust="spacingAndGlyphs">13541 W DAKOTA CT,</text><text x="192.53" y="140.44" text-anchor="middle" style="font-size:5.69px;font-family:&quot;Liberation Sans&quot;" textLength="66.66" lengthAdjust="spacingAndGlyphs">NEW BERLIN, WI 53151</text><path style="stroke-width:.53;fill:#fff;fill-opacity:.5" d="M62.78 440.81h69.54-.09l.35-.02.34-.07.33-.12.3-.17.27-.22.23-.26.18-.3.14-.32.08-.33.03-.35v-15.22l-.03-.35-.08-.34-.14-.32-.18-.29-.23-.26-.27-.22-.3-.17-.33-.13-.34-.07-.26-.01H62.78l.26.01-.34-.01-.35.04-.33.1-.32.15-.28.19-.25.24-.21.28-.16.31-.11.33-.06.34-.01.18v15.22l.01-.17v.34l.06.35.11.33.16.3.21.28.25.24.28.2.32.15.33.1.35.04z"/><text x="97.55" y="429.01" text-anchor="middle" style="font-size:5.69px;font-family:&quot;Liberation Sans&quot;" textLength="61.4" lengthAdjust="spacingAndGlyphs">13541 W DAKOTA CT,</text><text x="97.55" y="437.21" text-anchor="middle" style="font-size:5.69px;font-family:&quot;Liberation Sans&quot;" textLength="66.66" lengthAdjust="spacingAndGlyphs">NEW BERLIN, WI 53151</text><path style="stroke-width:.53;fill:#fff;fill-opacity:.5" d="M449.79 533.96h66.17l-.09-.01.35-.01.34-.07.32-.12.3-.18.27-.22.23-.26.19-.29.13-.32.09-.34.03-.34v-15.23l-.03-.34-.09-.34-.13-.32-.19-.29-.23-.26-.27-.22-.3-.18-.32-.12-.34-.07-.26-.02h-66.17l.26.02-.35-.01-.34.04-.34.09-.31.15-.29.2-.25.24-.21.28-.16.31-.11.33-.06.34v15.4-.18.35l.06.34.11.33.16.31.21.28.25.24.29.2.31.14.34.1.34.04z"/><text x="482.87" y="522.16" text-anchor="middle" style="font-size:5.69px;font-family:&quot;Liberation Sans&quot;" textLength="40.92" lengthAdjust="spacingAndGlyphs">316 HILLVIEW,</text><text x="482.87" y="530.36" text-anchor="middle" style="font-size:5.69px;font-family:&quot;Liberation Sans&quot;" textLength="63.29" lengthAdjust="spacingAndGlyphs">WAUKESHA, WI 53188</text></g><g clip-path="url(#cpMC4wMHw1NzYuMDB8MC4wMHw1NzYuMDA=)"><circle cx="196.98" cy="95.78" r="1.95" style="stroke-width:.71;stroke:none;fill:#f8766d"/><path style="stroke-width:.71;stroke:none;fill:#00ba38" d="m273.33 92.74 2.63 4.56h-5.26z"/><path style="stroke-width:.71;stroke:none;fill:#619cff" d="M339.31 97.74h3.91v-3.91h-3.91z"/><text x="211.09" y="98.81" style="font-size:8.8px;font-family:&quot;Liberation Sans Narrow&quot;" textLength="48.12" lengthAdjust="spacingAndGlyphs">mprop address</text><text x="287.45" y="98.81" style="font-size:8.8px;font-family:&quot;Liberation Sans Narrow&quot;" textLength="39.69" lengthAdjust="spacingAndGlyphs">owner name</text><text x="355.38" y="98.81" style="font-size:8.8px;font-family:&quot;Liberation Sans Narrow&quot;" textLength="40.5" lengthAdjust="spacingAndGlyphs">wdfi address</text><text x="32.63" y="64.23" style="font-size:12px;font-family:&quot;Liberation Sans Narrow&quot;" textLength="241.29" lengthAdjust="spacingAndGlyphs">includes 5 parcels, 5 units, and 1 distinct owner names.</text><text x="32.63" y="42.27" style="font-size:18px;font-weight:700;font-family:&quot;Liberation Sans Narrow&quot;" textLength="148.43" lengthAdjust="spacingAndGlyphs">3 RIVER HOMES LLC</text></g></svg>