<svg xmlns="http://www.w3.org/2000/svg" class="svglite" width="768" height="768" viewBox="0 0 576 576"><defs><style>.svglite circle,.svglite line,.svglite polygon,.svglite polyline,.svglite rect{fill:none;stroke:#000;stroke-linecap:round;stroke-linejoin:round;stroke-miterlimit:10}.svglite text{white-space:pre}</style></defs><rect width="100%" height="100%" style="stroke:none;fill:#fff"/><defs><clipPath id="cpMC4wMHw1NzYuMDB8MC4wMHw1NzYuMDA="><path d="M0 0h576v576H0z"/></clipPath></defs><g clip-path="url(#cpMC4wMHw1NzYuMDB8MC4wMHw1NzYuMDA=)"><path style="stroke-width:1.07;stroke:none;fill:#fff" d="M0 0h576v576H0z"/></g><defs><clipPath id="cpMzIuNjN8NTQ2LjExfDEyMS43OHw1NDMuMzc="><path d="M32.63 121.78h513.48v421.59H32.63z"/></clipPath></defs><g clip-path="url(#cpMzIuNjN8NTQ2LjExfDEyMS43OHw1NDMuMzc=)"><path style="stroke-width:1.07;stroke:#000;stroke-opacity:.1;stroke-linecap:butt" d="m517.21 302.24-2.39-.74-2.39-.74-2.4-.74-2.39-.74-2.4-.74-2.39-.74-2.39-.75-2.4-.74-2.39-.74-2.4-.74-2.39-.74-2.4-.74-2.39-.74-2.39-.74-2.4-.74-2.39-.74-2.4-.75-2.39-.74-2.39-.74-2.4-.74-2.39-.74-2.4-.74-2.39-.74-2.39-.74-2.4-.74-2.39-.74-2.4-.75-2.39-.74-2.39-.74-2.4-.74-2.39-.74-2.4-.74-2.39-.74-2.4-.74-2.39-.74-2.39-.74-2.4-.75-2.39-.74-2.4-.74-2.39-.74-2.39-.74-2.4-.74-2.39-.74-2.4-.74-2.39-.74-2.39-.74-2.4-.75-2.39-.74-2.4-.74-2.39-.74-2.39-.74-2.4-.74-2.39-.74-2.4-.74-2.39-.74-2.39-.74-2.4-.75-2.39-.74-2.4-.74-2.39-.74-2.4-.74-2.39-.74-2.39-.74-2.4-.74-2.39-.74-2.4-.74-2.39-.75-2.39-.74-2.4-.74-2.39-.74-2.4-.74-2.39-.74-2.39-.74-2.4-.74-2.39-.74-2.4-.74-2.39-.75-2.39-.74-2.4-.74-2.39-.74-2.4-.74-2.39-.74-2.4-.74-2.39-.74-2.39-.74-2.4-.74-2.39-.75-2.4-.74-2.39-.74-2.39-.74-2.4-.74-2.39-.74-2.4-.74-2.39-.74-2.39-.74-2.4-.74-2.39-.75-2.4-.74-2.39-.74M517.21 302.24l-1.75-.26-1.76-.26-1.75-.26-1.76-.26-1.75-.26-1.76-.26-1.75-.26-1.76-.26-1.75-.26-1.76-.26-1.76-.26-1.75-.26-1.76-.26-1.75-.26-1.76-.26-1.75-.26-1.76-.26-1.75-.26-1.76-.26-1.75-.26-1.76-.26-1.75-.26-1.76-.26-1.75-.26-1.76-.26-1.76-.26-1.75-.26-1.76-.26-1.75-.26-1.76-.26-1.75-.26-1.76-.26-1.75-.26-1.76-.26-1.75-.26-1.76-.26-1.75-.26-1.76-.26-1.76-.26-1.75-.26-1.76-.26-1.75-.26-1.76-.26-1.75-.26-1.76-.26-1.75-.26-1.76-.26-1.75-.26-1.76-.26-1.75-.26-1.76-.26-1.75-.26-1.76-.26-1.76-.26-1.75-.26-1.76-.26-1.75-.26-1.76-.26-1.75-.26-1.76-.26-1.75-.26-1.76-.26-1.75-.26-1.76-.26-1.75-.26-1.76-.26-1.75-.26-1.76-.26-1.76-.26-1.75-.26-1.76-.26-1.75-.26-1.76-.26-1.75-.26-1.76-.26-1.75-.26-1.76-.26-1.75-.26-1.76-.26-1.75-.26-1.76-.26-1.76-.26-1.75-.26-1.76-.26-1.75-.26-1.76-.26-1.75-.26-1.76-.26-1.75-.26-1.76-.26-1.75-.26-1.76-.26-1.75-.26-1.76-.26-1.75-.26-1.76-.26-1.76-.26-1.75-.26-1.76-.26"/><path style="stroke-width:1.07;stroke:#000;stroke-opacity:.1;stroke-linecap:butt" d="m522.77 207.45-2.48.12-2.48.13-2.47.13-2.48.13-2.48.13-2.47.13-2.48.14-2.48.14-2.47.14-2.47.14-2.48.14-2.47.15-2.47.15-2.47.15-2.47.15-2.47.15-2.47.16-2.47.15-2.47.16-2.47.16-2.47.16-2.46.17-2.47.17-2.47.16-2.46.17-2.47.17-2.46.18-2.46.17-2.47.18-2.46.18-2.46.18-2.46.18-2.46.19-2.46.19-2.46.18-2.46.19-2.46.2-2.45.19-2.46.2-2.46.19-2.45.2-2.46.21-2.45.2-2.45.21-2.46.2-2.45.21-2.45.21-2.45.22-2.45.21-2.45.22-2.45.21-2.45.22-2.45.23-2.45.22-2.45.23-2.44.22-2.45.23-2.44.24-2.45.23-2.44.23-2.45.24-2.44.24-2.44.24-2.45.24-2.44.25-2.44.24-2.44.25-2.44.25-2.44.25-2.43.26-2.44.25-2.44.26-2.44.26-2.43.26-2.44.27-2.43.26-2.44.27-2.43.27-2.43.27-2.44.27-2.43.27-2.43.28-2.43.28-2.43.28-2.43.28-2.43.28-2.43.29-2.42.29-2.43.29-2.43.29-2.42.29-2.43.3-2.42.29-2.43.3-2.42.3-2.42.3-2.43.31-2.42.3-2.42.31M522.77 207.45l-1.9.63-1.91.63-1.9.63-1.9.63-1.89.64-1.9.64-1.89.64-1.89.63-1.89.65-1.89.64-1.89.64-1.88.65-1.88.64-1.88.65-1.88.65-1.88.65-1.87.65-1.87.66-1.88.65-1.86.66-1.87.65-1.87.66-1.86.66-1.86.67-1.86.66-1.86.66-1.85.67-1.86.67-1.85.66-1.85.67-1.84.68-1.85.67-1.84.67-1.85.68-1.84.67-1.83.68-1.84.68-1.83.68-1.84.69-1.83.68-1.83.68-1.82.69-1.83.69-1.82.69-1.82.69-1.82.69-1.82.69-1.81.7-1.82.7-1.81.69-1.81.7-1.81.7-1.8.7-1.81.71-1.8.7-1.8.71-1.8.7-1.79.71-1.8.71-1.79.71-1.79.72-1.79.71-1.78.72-1.79.71-1.78.72-1.78.72-1.78.72-1.78.72-1.77.73-1.78.72-1.77.73-1.77.73-1.77.73-1.76.73-1.77.73-1.76.73-1.76.74-1.76.73-1.75.74-1.76.74-1.75.74-1.75.74-1.75.75-1.74.74-1.75.75-1.74.74-1.74.75-1.74.75-1.74.75-1.73.76-1.74.75-1.73.76-1.73.75-1.73.76-1.72.76-1.73.76-1.72.76-1.72.77-1.72.76M522.77 207.45l-2.42.3-2.42.31-2.42.31-2.43.3-2.42.3-2.42.3-2.43.29-2.42.3-2.43.29-2.43.29-2.42.29-2.43.29-2.43.28-2.43.29-2.43.28-2.43.28-2.43.28-2.43.27-2.43.28-2.44.27-2.43.27-2.43.27-2.44.27-2.43.26-2.44.27-2.43.26-2.44.26-2.44.25-2.43.26-2.44.25-2.44.26-2.44.25-2.44.24-2.44.25-2.44.25-2.45.24-2.44.24-2.44.24-2.44.24-2.45.23-2.44.23-2.45.24-2.45.22-2.44.23-2.45.23-2.45.22-2.45.22-2.44.22-2.45.22-2.45.22-2.46.21-2.45.22-2.45.21-2.45.21-2.45.2-2.46.21-2.45.2-2.46.2-2.45.2-2.46.2-2.46.2-2.45.19-2.46.19-2.46.19-2.46.19-2.46.19-2.46.18-2.46.19-2.46.18-2.46.18-2.47.18-2.46.17-2.46.17-2.47.18-2.46.17-2.47.16-2.46.17-2.47.16-2.47.17-2.47.16-2.46.16-2.47.15-2.47.16-2.47.15-2.48.15-2.47.15-2.47.15-2.47.14-2.47.15-2.48.14-2.47.14-2.48.14-2.47.13-2.48.14-2.48.13-2.47.13-2.48.13-2.48.13-2.48.12"/><path style="stroke-width:1.07;stroke:#000;stroke-opacity:.1;stroke-linecap:butt" d="m522.77 207.45-1.72.76-1.72.77-1.72.76-1.72.76-1.73.76-1.73.76-1.72.75-1.74.76-1.73.75-1.73.76-1.74.75-1.74.75-1.74.75-1.74.74-1.75.75-1.75.74-1.74.75-1.76.74-1.75.74-1.75.74-1.76.74-1.76.73-1.76.74-1.76.73-1.76.73-1.77.73-1.77.73-1.76.73-1.78.73-1.77.72-1.77.72-1.78.73-1.78.72-1.78.72-1.79.72-1.78.71-1.79.72-1.79.71-1.79.72-1.79.71-1.79.71-1.8.71-1.8.7-1.8.71-1.8.7-1.8.71-1.81.7-1.81.7-1.81.7-1.81.69-1.81.7-1.82.7-1.81.69-1.82.69-1.82.69-1.83.69-1.82.69-1.83.68-1.83.69-1.83.68-1.83.69-1.83.68-1.84.68-1.84.67-1.84.68-1.84.68-1.84.67-1.85.67-1.85.68-1.85.67-1.85.66-1.85.67-1.86.67-1.86.66-1.85.66-1.87.67-1.86.66-1.86.66-1.87.65-1.87.66-1.87.65-1.87.66-1.88.65-1.87.65-1.88.65-1.88.65-1.88.64-1.89.65-1.88.64-1.89.64-1.89.65-1.89.63-1.9.64-1.89.64-1.9.64-1.9.63-1.9.63-1.9.63-1.91.63M391.66 140.95l-1.13.89-1.12.88-1.13.89-1.12.89-1.13.89-1.12.89-1.13.89-1.13.88-1.12.89-1.13.89-1.12.89-1.13.89-1.13.88-1.12.89-1.13.89-1.12.89-1.13.89-1.12.89-1.13.88-1.13.89-1.12.89-1.13.89-1.12.89-1.13.89-1.13.88-1.12.89-1.13.89-1.12.89-1.13.89-1.13.88-1.12.89-1.13.89-1.12.89-1.13.89-1.12.89-1.13.88-1.13.89-1.12.89-1.13.89-1.12.89-1.13.89-1.13.88-1.12.89-1.13.89-1.12.89-1.13.89-1.13.88-1.12.89-1.13.89-1.12.89-1.13.89-1.12.89-1.13.88-1.13.89-1.12.89-1.13.89-1.12.89-1.13.88-1.13.89-1.12.89-1.13.89-1.12.89-1.13.89-1.12.88-1.13.89-1.13.89-1.12.89-1.13.89-1.12.89-1.13.88-1.13.89-1.12.89-1.13.89-1.12.89-1.13.88-1.13.89-1.12.89-1.13.89-1.12.89-1.13.89-1.12.88-1.13.89-1.13.89-1.12.89-1.13.89-1.12.89-1.13.88-1.13.89-1.12.89-1.13.89-1.12.89-1.13.88-1.13.89-1.12.89-1.13.89-1.12.89-1.13.89-1.12.88-1.13.89M391.66 140.95l-.49 1.37-.48 1.37-.49 1.37-.49 1.36-.48 1.37-.49 1.37-.49 1.37-.49 1.37-.48 1.37-.49 1.37-.49 1.37-.48 1.37-.49 1.37-.49 1.37-.49 1.37-.48 1.37-.49 1.36-.49 1.37-.48 1.37-.49 1.37-.49 1.37-.49 1.37-.48 1.37-.49 1.37-.49 1.37-.48 1.37-.49 1.37-.49 1.37-.49 1.37-.48 1.36-.49 1.37-.49 1.37-.48 1.37-.49 1.37-.49 1.37-.49 1.37-.48 1.37-.49 1.37-.49 1.37-.48 1.37-.49 1.37-.49 1.37-.49 1.37-.48 1.36-.49 1.37-.49 1.37-.48 1.37-.49 1.37-.49 1.37-.49 1.37-.48 1.37-.49 1.37-.49 1.37-.48 1.37-.49 1.37-.49 1.37-.49 1.36-.48 1.37-.49 1.37-.49 1.37-.48 1.37-.49 1.37-.49 1.37-.49 1.37-.48 1.37-.49 1.37-.49 1.37-.48 1.37-.49 1.37-.49 1.36-.49 1.37-.48 1.37-.49 1.37-.49 1.37-.48 1.37-.49 1.37-.49 1.37-.49 1.37-.48 1.37-.49 1.37-.49 1.37-.48 1.37-.49 1.37-.49 1.36-.49 1.37-.48 1.37-.49 1.37-.49 1.37-.48 1.37-.49 1.37-.49 1.37-.49 1.37-.48 1.37-.49 1.37-.49 1.37-.48 1.37-.49 1.36-.49 1.37-.49 1.37M177.63 152.93l1.04.76 1.03.77 1.04.77 1.03.77 1.04.76 1.04.77 1.03.77 1.04.76 1.03.77 1.04.77 1.04.77 1.03.76 1.04.77 1.03.77 1.04.76 1.04.77 1.03.77 1.04.77 1.03.76 1.04.77 1.04.77 1.03.77 1.04.76 1.04.77 1.03.77 1.04.76 1.03.77 1.04.77 1.04.77 1.03.76 1.04.77 1.03.77 1.04.77 1.04.76 1.03.77 1.04.77 1.03.76 1.04.77 1.04.77 1.03.77 1.04.76 1.03.77 1.04.77 1.04.76 1.03.77 1.04.77 1.03.77 1.04.76 1.04.77 1.03.77 1.04.77 1.03.76 1.04.77 1.04.77 1.03.76 1.04.77 1.04.77 1.03.77 1.04.76 1.03.77 1.04.77 1.04.76 1.03.77 1.04.77 1.03.77 1.04.76 1.04.77 1.03.77 1.04.77 1.03.76 1.04.77 1.04.77 1.03.76 1.04.77 1.03.77 1.04.77 1.04.76 1.03.77 1.04.77 1.03.77 1.04.76 1.04.77 1.03.77 1.04.76 1.03.77 1.04.77 1.04.77 1.03.76 1.04.77 1.04.77 1.03.76 1.04.77 1.03.77 1.04.77 1.04.76 1.03.77 1.04.77 1.03.77 1.04.76"/><path style="stroke-width:1.07;stroke:#000;stroke-opacity:.1;stroke-linecap:butt" d="m177.63 152.93 1.67 1.24 1.68 1.25 1.67 1.25 1.68 1.25 1.67 1.25 1.68 1.25 1.67 1.24 1.68 1.25 1.67 1.25 1.68 1.25 1.67 1.25 1.68 1.25 1.67 1.24 1.68 1.25 1.67 1.25 1.68 1.25 1.67 1.25 1.68 1.24 1.67 1.25 1.68 1.25 1.67 1.25 1.68 1.25 1.67 1.25 1.67 1.24 1.68 1.25 1.67 1.25 1.68 1.25 1.67 1.25 1.68 1.25 1.67 1.24 1.68 1.25 1.67 1.25 1.68 1.25 1.67 1.25 1.68 1.25 1.67 1.24 1.68 1.25 1.67 1.25 1.68 1.25 1.67 1.25 1.68 1.24 1.67 1.25 1.68 1.25 1.67 1.25 1.68 1.25 1.67 1.25 1.67 1.24 1.68 1.25 1.67 1.25 1.68 1.25 1.67 1.25 1.68 1.25 1.67 1.24 1.68 1.25 1.67 1.25 1.68 1.25 1.67 1.25 1.68 1.24 1.67 1.25 1.68 1.25 1.67 1.25 1.68 1.25 1.67 1.25 1.68 1.24 1.67 1.25 1.68 1.25 1.67 1.25 1.68 1.25 1.67 1.25 1.68 1.24 1.67 1.25 1.67 1.25 1.68 1.25 1.67 1.25 1.68 1.25 1.67 1.24 1.68 1.25 1.67 1.25 1.68 1.25 1.67 1.25 1.68 1.24 1.67 1.25 1.68 1.25 1.67 1.25 1.68 1.25 1.67 1.25 1.68 1.24 1.67 1.25 1.68 1.25 1.67 1.25 1.68 1.25 1.67 1.25 1.68 1.24 1.67 1.25 1.67 1.25 1.68 1.25 1.67 1.25 1.68 1.24 1.67 1.25M371.77 410.23l.69 1.15.69 1.15.69 1.15.69 1.15.69 1.15.7 1.15.69 1.16.69 1.15.69 1.15.69 1.15.69 1.15.69 1.15.69 1.15.69 1.15.69 1.16.7 1.15.69 1.15.69 1.15.69 1.15.69 1.15.69 1.15.69 1.16.69 1.15.69 1.15.69 1.15.7 1.15.69 1.15.69 1.15.69 1.15.69 1.16.69 1.15.69 1.15.69 1.15.69 1.15.69 1.15.7 1.15.69 1.16.69 1.15.69 1.15.69 1.15.69 1.15.69 1.15.69 1.15.69 1.15.69 1.16.69 1.15.7 1.15.69 1.15.69 1.15.69 1.15.69 1.15.69 1.16.69 1.15.69 1.15.69 1.15.69 1.15.7 1.15.69 1.15.69 1.16.69 1.15.69 1.15.69 1.15.69 1.15.69 1.15.69 1.15.69 1.15.7 1.16.69 1.15.69 1.15.69 1.15.69 1.15.69 1.15.69 1.15.69 1.16.69 1.15.69 1.15.7 1.15.69 1.15.69 1.15.69 1.15.69 1.15.69 1.16.69 1.15.69 1.15.69 1.15.69 1.15.7 1.15.69 1.15.69 1.16.69 1.15.69 1.15.69 1.15.69 1.15.69 1.15.69 1.15.69 1.16.7 1.15.69 1.15.69 1.15"/><path style="stroke-width:1.07;stroke:#000;stroke-opacity:.1;stroke-linecap:butt" d="m371.77 410.23-.29-1.36-.28-1.35-.29-1.35-.29-1.35-.28-1.35-.29-1.35-.28-1.35-.29-1.35-.29-1.35-.28-1.35-.29-1.35-.28-1.35-.29-1.35-.29-1.35-.28-1.36-.29-1.35-.29-1.35-.28-1.35-.29-1.35-.28-1.35-.29-1.35-.29-1.35-.28-1.35-.29-1.35-.29-1.35-.28-1.35-.29-1.35-.28-1.35-.29-1.36-.29-1.35-.28-1.35-.29-1.35-.29-1.35-.28-1.35-.29-1.35-.28-1.35-.29-1.35-.29-1.35-.28-1.35-.29-1.35-.29-1.35-.28-1.36-.29-1.35-.28-1.35-.29-1.35-.29-1.35-.28-1.35-.29-1.35-.29-1.35-.28-1.35-.29-1.35-.28-1.35-.29-1.35-.29-1.35-.28-1.35-.29-1.36-.28-1.35-.29-1.35-.29-1.35-.28-1.35-.29-1.35-.29-1.35-.28-1.35-.29-1.35-.28-1.35-.29-1.35-.29-1.35-.28-1.35-.29-1.35-.29-1.36-.28-1.35-.29-1.35-.28-1.35-.29-1.35-.29-1.35-.28-1.35-.29-1.35-.29-1.35-.28-1.35-.29-1.35-.28-1.35-.29-1.35-.29-1.36-.28-1.35-.29-1.35-.29-1.35-.28-1.35-.29-1.35-.28-1.35-.29-1.35-.29-1.35-.28-1.35-.29-1.35-.28-1.35-.29-1.35-.29-1.35-.28-1.36-.29-1.35-.29-1.35M96.05 251.43l1.86-.23 1.86-.23 1.86-.22 1.86-.23 1.86-.23 1.86-.23 1.86-.23 1.86-.22 1.86-.23 1.86-.23 1.86-.23 1.86-.22 1.86-.23 1.86-.23 1.86-.23 1.86-.23 1.86-.22 1.86-.23 1.86-.23 1.86-.23 1.86-.22 1.86-.23 1.86-.23 1.86-.23 1.86-.22 1.86-.23 1.86-.23 1.86-.23 1.86-.23 1.86-.22 1.86-.23 1.86-.23 1.86-.23 1.86-.22 1.86-.23 1.86-.23 1.86-.23 1.86-.23 1.86-.22 1.86-.23 1.86-.23 1.86-.23 1.86-.22 1.86-.23 1.86-.23 1.86-.23 1.86-.23 1.86-.22 1.86-.23 1.86-.23 1.86-.23 1.86-.22 1.86-.23 1.86-.23 1.86-.23 1.86-.22 1.86-.23 1.86-.23 1.86-.23 1.86-.23 1.86-.22 1.87-.23 1.86-.23 1.86-.23 1.86-.22 1.86-.23 1.86-.23 1.86-.23 1.86-.23 1.86-.22 1.86-.23 1.86-.23 1.86-.23 1.86-.22 1.86-.23 1.86-.23 1.86-.23 1.86-.22 1.86-.23 1.86-.23 1.86-.23 1.86-.23 1.86-.22 1.86-.23 1.86-.23 1.86-.23 1.86-.22 1.86-.23 1.86-.23 1.86-.23 1.86-.23 1.86-.22 1.86-.23 1.86-.23 1.86-.23 1.86-.22 1.86-.23 1.86-.23 1.86-.23M96.05 251.43l2.5.25 2.5.26 2.49.25 2.5.25 2.5.25 2.5.26 2.5.25 2.5.25 2.5.26 2.5.25 2.49.25 2.5.26 2.5.25 2.5.25 2.5.26 2.5.25 2.5.25 2.5.26 2.5.25 2.49.25 2.5.26 2.5.25 2.5.25 2.5.26 2.5.25 2.5.25 2.5.26 2.5.25 2.49.25 2.5.26 2.5.25 2.5.25 2.5.26 2.5.25 2.5.25 2.5.26 2.5.25 2.49.25 2.5.26 2.5.25 2.5.25 2.5.26 2.5.25 2.5.25 2.5.26 2.49.25 2.5.25 2.5.26 2.5.25 2.5.25 2.5.26 2.5.25 2.5.25 2.5.26 2.49.25 2.5.25 2.5.26 2.5.25 2.5.25 2.5.26 2.5.25 2.5.25 2.5.26 2.49.25 2.5.25 2.5.25 2.5.26 2.5.25 2.5.25 2.5.26 2.5.25 2.49.25 2.5.26 2.5.25 2.5.25 2.5.26 2.5.25 2.5.25 2.5.26 2.5.25 2.49.25 2.5.26 2.5.25 2.5.25 2.5.26 2.5.25 2.5.25 2.5.26 2.5.25 2.49.25 2.5.26 2.5.25 2.5.25 2.5.26 2.5.25 2.5.25 2.5.26 2.5.25 2.49.25"/><path style="stroke-width:1.07;stroke:#000;stroke-opacity:.1;stroke-linecap:butt" d="m55.97 323.87 2.26-.96 2.27-.96 2.26-.96 2.27-.96 2.26-.95 2.27-.96 2.26-.96 2.27-.96 2.26-.96 2.27-.96 2.26-.96 2.27-.96 2.26-.96 2.27-.96 2.26-.96 2.27-.96 2.26-.96 2.27-.96 2.26-.96 2.27-.96 2.26-.96 2.27-.96 2.26-.96 2.27-.96 2.26-.95 2.27-.96 2.26-.96 2.27-.96 2.26-.96 2.27-.96 2.26-.96 2.27-.96 2.26-.96 2.27-.96 2.26-.96 2.27-.96 2.26-.96 2.27-.96 2.26-.96 2.27-.96 2.26-.96 2.27-.96 2.26-.96 2.27-.95 2.26-.96 2.27-.96 2.26-.96 2.27-.96 2.26-.96 2.27-.96 2.26-.96 2.27-.96 2.26-.96 2.27-.96 2.26-.96 2.27-.96 2.26-.96 2.27-.96 2.26-.96 2.27-.96 2.26-.96 2.27-.96 2.26-.96 2.27-.95 2.26-.96 2.27-.96 2.26-.96 2.27-.96 2.26-.96 2.27-.96 2.26-.96 2.27-.96 2.26-.96 2.27-.96 2.26-.96 2.27-.96 2.26-.96 2.27-.96 2.26-.96 2.27-.96 2.26-.96 2.27-.96 2.26-.96 2.27-.95 2.26-.96 2.27-.96 2.26-.96 2.26-.96 2.27-.96 2.26-.96 2.27-.96 2.26-.96 2.27-.96 2.26-.96 2.27-.96 2.26-.96 2.27-.96 2.26-.96 2.27-.96M343.43 276.5l-.25-.62-.26-.62-.27-.62-.27-.62-.29-.61-.29-.61-.3-.6-.3-.61-.32-.6-.32-.6-.33-.59-.34-.59-.35-.59-.35-.59-.37-.58-.37-.58-.38-.58-.38-.57-.4-.58-.4-.56-.41-.57-.42-.56-.42-.56-.44-.56-.44-.55-.45-.55-.45-.55-.47-.55-.47-.54-.48-.54-.49-.54-.5-.53-.5-.53-.52-.53-.52-.52-.52-.52-.54-.52-.55-.52-.55-.51-.56-.51-.56-.51-.58-.5-.58-.51-.6-.49-.59-.5-.61-.49-.62-.49-.62-.49-.63-.48-.64-.48-.65-.48-.65-.48-.66-.47-.67-.47-.68-.47-.69-.46-.69-.46-.7-.46-.71-.45-.72-.45-.73-.45-.73-.45-.74-.44-.75-.44-.76-.44-.76-.43-.77-.43-.79-.43-.78-.43-.8-.42-.8-.42-.82-.42-.82-.41-.83-.41-.83-.41-.85-.41-.85-.4-.86-.4-.86-.39-.88-.4-.88-.39-.89-.39-.9-.38-.91-.38-.91-.38-.93-.38-.93-.37-.94-.37-.94-.37-.96-.36-.96-.36-.97-.36-.98-.36-.98-.35-1-.35-1-.34-1.01-.35-1.02-.34-1.02-.34"/><path style="stroke-width:1.07;stroke:#000;stroke-opacity:.1;stroke-linecap:butt" d="m343.43 276.5-.38-.57-.38-.58-.39-.57-.4-.57-.4-.57-.41-.57-.41-.56-.42-.56-.42-.56-.43-.56-.44-.56-.44-.56-.44-.55-.45-.55-.45-.55-.46-.55-.47-.54-.47-.54-.48-.55-.48-.53-.48-.54-.49-.54-.5-.53-.5-.53-.51-.53-.51-.53-.52-.53-.52-.52-.53-.52-.53-.52-.54-.52-.55-.52-.55-.51-.55-.51-.56-.51-.57-.51-.57-.51-.57-.5-.58-.5-.59-.5-.59-.5-.6-.5-.6-.49-.61-.5-.61-.49-.62-.49-.62-.48-.63-.49-.63-.48-.64-.48-.64-.48-.65-.48-.66-.47-.66-.48-.66-.47-.67-.47-.68-.46-.68-.47-.69-.46-.69-.47-.69-.45-.71-.46-.7-.46-.71-.45-.72-.45-.73-.45-.72-.45-.74-.45-.74-.44-.74-.44-.75-.44-.75-.44-.76-.44-.77-.43-.77-.43-.77-.44-.78-.42-.79-.43-.79-.42-.8-.43-.8-.42-.81-.42-.81-.41-.82-.42-.82-.41-.83-.41-.83-.41-.84-.41-.84-.4-.85-.41-.86-.4-.86-.4-.86-.39-.87-.4-.88-.39-.88-.39-.88-.39-.89-.39-.9-.39"/><path style="stroke-width:1.07;stroke:#000;stroke-opacity:.1;stroke-linecap:butt" d="m343.43 276.5-.51-.53-.51-.52-.51-.53-.52-.53-.52-.52-.52-.52-.53-.53-.53-.52-.53-.52-.53-.52-.54-.52-.54-.52-.54-.51-.54-.52-.55-.52-.55-.51-.55-.51-.56-.51-.55-.52-.56-.51-.57-.51-.56-.5-.57-.51-.57-.51-.57-.5-.58-.51-.58-.5-.58-.5-.58-.5-.59-.5-.59-.5-.59-.5-.59-.5-.6-.5-.6-.49-.6-.5-.6-.49-.61-.49-.61-.5-.61-.49-.62-.49-.62-.48-.62-.49-.62-.49-.62-.49-.63-.48-.63-.48-.64-.49-.63-.48-.64-.48-.64-.48-.65-.48-.64-.48-.65-.47-.65-.48-.66-.48-.66-.47-.66-.47-.66-.48-.66-.47-.67-.47-.67-.47-.67-.46-.68-.47-.68-.47-.68-.46-.68-.47-.69-.46-.69-.46-.69-.47-.69-.46-.7-.46-.7-.45-.7-.46-.7-.46-.71-.45-.71-.46-.71-.45-.72-.46-.72-.45-.72-.45-.72-.45-.72-.45-.73-.45-.73-.44-.74-.45-.73-.44-.74-.45-.74-.44-.75-.44-.74-.44-.75-.44-.75-.44-.76-.44-.76-.44-.76-.43-.76-.44-.76-.43-.77-.44"/><path style="stroke-width:1.07;stroke:#000;stroke-opacity:.1;stroke-linecap:butt" d="m343.43 276.5-.63-.48-.64-.48-.64-.48-.64-.48-.64-.48-.64-.48-.64-.48-.64-.48-.63-.49-.64-.48-.64-.48-.64-.48-.64-.48-.64-.48-.64-.48-.64-.48-.63-.48-.64-.49-.64-.48-.64-.48-.64-.48-.64-.48-.64-.48-.64-.48-.63-.48-.64-.48-.64-.48-.64-.49-.64-.48-.64-.48-.64-.48-.64-.48-.63-.48-.64-.48-.64-.48-.64-.48-.64-.48-.64-.49-.64-.48-.64-.48-.63-.48-.64-.48-.64-.48-.64-.48-.64-.48-.64-.48-.64-.48-.64-.49-.63-.48-.64-.48-.64-.48-.64-.48-.64-.48-.64-.48-.64-.48-.63-.48-.64-.48-.64-.49-.64-.48-.64-.48-.64-.48-.64-.48-.64-.48-.63-.48-.64-.48-.64-.48-.64-.48-.64-.49-.64-.48-.64-.48-.64-.48-.63-.48-.64-.48-.64-.48-.64-.48-.64-.48-.64-.49-.64-.48-.64-.48-.63-.48-.64-.48-.64-.48-.64-.48-.64-.48-.64-.48-.64-.48-.64-.49-.63-.48-.64-.48-.64-.48-.64-.48-.64-.48-.64-.48-.64-.48-.64-.48-.63-.48-.64-.49-.64-.48-.64-.48"/><path style="stroke-width:1.07;stroke:#000;stroke-opacity:.1;stroke-linecap:butt" d="m343.43 276.5-.76-.43-.77-.43-.76-.44-.76-.44-.76-.43-.75-.44-.75-.44-.75-.44-.75-.44-.74-.44-.74-.45-.74-.44-.74-.45-.73-.44-.73-.45-.73-.45-.73-.45-.72-.45-.72-.45-.72-.45-.71-.45-.72-.45-.7-.46-.71-.46-.71-.45-.7-.46-.7-.46-.69-.46-.7-.46-.69-.46-.69-.46-.68-.47-.69-.46-.68-.47-.68-.46-.67-.47-.68-.47-.67-.47-.66-.47-.67-.47-.66-.47-.66-.47-.66-.48-.65-.47-.65-.48-.65-.48-.65-.48-.64-.47-.64-.48-.64-.49-.64-.48-.63-.48-.63-.48-.63-.49-.63-.49-.62-.48-.62-.49-.62-.49-.61-.49-.62-.49-.61-.49-.6-.49-.61-.5-.6-.49-.6-.5-.6-.49-.59-.5-.59-.5-.59-.5-.59-.5-.58-.5-.58-.5-.58-.51-.57-.5-.58-.51-.57-.5-.57-.51-.56-.51-.56-.51-.56-.51-.56-.51-.55-.51-.56-.51-.55-.52-.54-.51-.55-.52-.54-.52-.54-.52-.53-.51-.54-.52-.53-.53-.53-.52-.52-.52-.52-.52-.53-.53-.51-.52-.52-.53-.51-.53-.51-.53"/><path style="stroke-width:1.07;stroke:#000;stroke-opacity:.1;stroke-linecap:butt" d="m343.43 276.5-.89-.38-.89-.39-.89-.39-.88-.39-.88-.39-.87-.4-.86-.4-.86-.4-.85-.4-.85-.4-.85-.41-.84-.4-.83-.41-.83-.41-.82-.42-.82-.41-.81-.42-.81-.42-.8-.42-.8-.42-.79-.42-.78-.43-.78-.43-.78-.43-.77-.43-.76-.44-.76-.43-.76-.44-.75-.44-.74-.44-.74-.45-.73-.44-.73-.45-.72-.45-.72-.45-.71-.46-.71-.45-.7-.46-.7-.46-.69-.46-.69-.46-.68-.47-.67-.47-.67-.47-.67-.47-.66-.47-.65-.48-.65-.47-.65-.48-.63-.48-.64-.49-.63-.48-.62-.49-.62-.49-.61-.49-.61-.49-.6-.49-.6-.5-.59-.5-.58-.5-.58-.5-.58-.51-.57-.5-.56-.51-.56-.51-.56-.51-.55-.52-.54-.51-.54-.52-.53-.52-.53-.52-.53-.53-.51-.52-.52-.53-.5-.53-.51-.53-.49-.54-.49-.53-.49-.54-.48-.54-.48-.54-.47-.54-.46-.55-.46-.55-.46-.55-.45-.55-.44-.55-.44-.55-.43-.56-.43-.56-.42-.56-.42-.56-.42-.57-.4-.56-.4-.57-.4-.57-.39-.58-.39-.57-.38-.58"/><path style="stroke-width:1.07;stroke:#000;stroke-opacity:.1;stroke-linecap:butt" d="m343.43 276.5-1.02-.33-1.02-.35-1.01-.34-1-.35-.99-.35-.99-.35-.98-.35-.97-.36-.96-.36-.95-.37-.95-.36-.94-.38-.93-.37-.92-.37-.92-.38-.9-.38-.9-.39-.89-.39-.89-.39-.87-.39-.87-.4-.86-.4-.85-.4-.85-.4-.83-.41-.83-.41-.82-.42-.81-.41-.81-.42-.79-.43-.79-.42-.78-.43-.77-.43-.77-.44-.76-.43-.75-.44-.74-.45-.73-.44-.73-.45-.71-.45-.71-.46-.71-.45-.69-.47-.69-.46-.67-.47-.67-.46-.67-.48-.65-.47-.65-.48-.64-.48-.63-.49-.62-.48-.61-.49-.61-.49-.6-.5-.59-.5-.59-.5-.57-.5-.57-.51-.56-.51-.55-.51-.55-.52-.53-.52-.53-.52-.52-.53-.51-.52-.51-.54-.49-.53-.49-.54-.48-.53-.48-.55-.46-.54-.46-.55-.45-.55-.44-.56-.43-.55-.43-.56-.42-.56-.41-.57-.4-.57-.39-.57-.39-.58-.38-.57-.37-.58-.36-.59-.36-.58-.34-.59-.34-.59-.33-.6-.33-.6-.31-.6-.31-.6-.3-.61-.29-.61-.28-.61-.28-.61-.27-.62-.26-.62-.25-.63"/><path style="stroke-width:.71;stroke:none;fill:#00ba38" d="m517.21 300.03 1.92 3.32h-3.83zM522.77 201.85l4.85 8.4h-9.7zM391.66 138.74l1.92 3.31h-3.83zM177.63 150.72l1.91 3.31h-3.82zM371.77 408.02l1.91 3.31h-3.82zM96.05 249.22l1.91 3.31h-3.83zM55.97 321.66l1.91 3.32h-3.83z"/><path style="stroke-width:.71;stroke:none;fill:#619cff" d="M336.68 283.26h13.51v-13.51h-13.51z"/><circle cx="280.2" cy="228.88" r="6.76" style="stroke-width:.71;stroke:none;fill:#f8766d"/><circle cx="440.18" cy="524.21" r="1.42" style="stroke-width:.71;stroke:none;fill:#f8766d"/><path style="stroke-width:.53;stroke:#bfbfbf" d="m396.15 133.67-3.91 6.34M182.79 148.28l-4.3 3.87M376.96 405.55l-4.33 3.9M90.82 256.15l4.37-3.95M61.48 319.22l-4.62 3.9M337.96 281.14l4.59-3.89M285.62 224.29l-4.53 3.84M435.36 525.79l3.63-1.19"/><path style="stroke-width:.53;fill:#fff;fill-opacity:.5" d="M441.04 311.13h69.24-.09l.35-.02.34-.06.33-.13.3-.17.27-.22.23-.26.18-.3.14-.32.08-.33.03-.35v-15.16l-.03-.34-.08-.34-.14-.32-.18-.29-.23-.26-.27-.22-.3-.18-.33-.12-.34-.07-.26-.02h-69.24l.27.02-.35-.01-.35.04-.33.09-.32.15-.28.2-.25.24-.21.28-.16.31-.11.33-.06.34-.01.17v15.16l.01-.17v.34l.06.35.11.33.16.3.21.28.25.24.28.2.32.15.33.1.35.04z"/><text x="475.66" y="299.34" text-anchor="middle" style="font-size:5.69px;font-family:&quot;Arial&quot;" textLength="66.36" lengthAdjust="spacingAndGlyphs">3278 OAKLAND AVENUE</text><text x="475.66" y="307.53" text-anchor="middle" style="font-size:5.69px;font-family:&quot;Arial&quot;" textLength="10.43" lengthAdjust="spacingAndGlyphs">LLC</text><path style="stroke-width:.53;fill:#fff;fill-opacity:.5" d="M446.51 217.36h69.24l-.09-.01.35-.01.34-.07.32-.12.3-.18.27-.22.23-.26.19-.29.14-.32.08-.34.03-.34v-15.16l-.03-.35-.08-.33-.14-.32-.19-.3-.23-.26-.27-.22-.3-.17-.32-.13-.34-.07-.26-.01h-69.24l.26.01-.35-.01-.34.04-.33.1-.32.15-.28.2-.25.24-.21.27-.17.31-.11.33-.05.35-.01.17v15.16l.01-.18v.35l.05.34.11.33.17.31.21.28.25.24.28.2.32.15.33.09.34.04z"/><text x="481.13" y="205.56" text-anchor="middle" style="font-size:5.69px;font-family:&quot;Arial&quot;" textLength="66.36" lengthAdjust="spacingAndGlyphs">3465 OAKLAND AVENUE</text><text x="481.13" y="213.76" text-anchor="middle" style="font-size:5.69px;font-family:&quot;Arial&quot;" textLength="10.43" lengthAdjust="spacingAndGlyphs">LLC</text><path style="stroke-width:.53;fill:#fff;fill-opacity:.5" d="M398.31 136.68h56.28-.09l.35-.02.34-.07.32-.12.3-.17.27-.22.23-.26.19-.3.14-.32.08-.33.03-.35v-6.96l-.03-.35-.08-.34-.14-.32-.19-.29-.23-.26-.27-.22-.3-.17-.32-.13-.34-.07-.26-.01h-56.28l.26.01-.35-.01-.34.04-.33.1-.32.15-.28.19-.26.24-.2.28-.17.31-.11.33-.05.34-.01.18v6.96l.01-.17v.34l.05.35.11.33.17.3.2.28.26.24.28.2.32.15.33.1.34.04z"/><text x="426.45" y="133.08" text-anchor="middle" style="font-size:5.69px;font-family:&quot;Arial&quot;" textLength="53.4" lengthAdjust="spacingAndGlyphs">2845 OAKLAND LLC</text><path style="stroke-width:.53;fill:#fff;fill-opacity:.5" d="M162.06 148.28h56.28-.09l.35-.02.34-.07.32-.12.3-.17.27-.22.23-.26.19-.3.13-.32.09-.33.03-.35v-6.96l-.03-.35-.09-.34-.13-.32-.19-.29-.23-.26-.27-.22-.3-.17-.32-.13-.34-.07-.26-.01h-56.28l.26.01-.35-.01-.34.04-.34.1-.31.15-.29.19-.25.25-.21.27-.16.31-.11.33-.05.34-.01.18v6.96l.01-.17v.34l.05.35.11.33.16.3.21.28.25.24.29.2.31.15.34.1.34.04z"/><text x="190.2" y="144.68" text-anchor="middle" style="font-size:5.69px;font-family:&quot;Arial&quot;" textLength="53.4" lengthAdjust="spacingAndGlyphs">3054 OAKLAND LLC</text><path style="stroke-width:.53;fill:#fff;fill-opacity:.5" d="M357.53 405.55h53.74-.09l.35-.01.34-.07.33-.13.3-.17.27-.22.23-.26.18-.29.14-.32.08-.34.03-.35v-6.96l-.03-.35-.08-.33-.14-.32-.18-.3-.23-.26-.27-.22-.3-.17-.33-.13-.34-.06-.26-.02h-53.74l.26.02-.35-.02-.34.04-.34.1-.31.15-.29.2-.25.24-.21.27-.16.31-.11.33-.05.35-.01.17v6.96l.01-.17v.35l.05.34.11.33.16.31.21.27.25.24.29.2.31.15.34.1.34.04z"/><text x="384.4" y="401.95" text-anchor="middle" style="font-size:5.69px;font-family:&quot;Arial&quot;" textLength="50.86" lengthAdjust="spacingAndGlyphs">2456 MURRAY LLC</text><path style="stroke-width:.53;fill:#fff;fill-opacity:.5" d="M50.74 267.43h65.43-.09l.35-.01.34-.07.32-.12.3-.18.27-.22.23-.26.19-.29.14-.32.08-.34.03-.35v-6.96l-.03-.35-.08-.33-.14-.32-.19-.3-.23-.26-.27-.22-.3-.17-.32-.12-.34-.07-.26-.02H50.74l.26.02-.35-.02-.34.04-.33.1-.32.15-.28.2-.26.24-.2.28-.17.3-.11.33-.05.35-.01.17v6.96l.01-.17v.35l.05.34.11.33.17.31.2.28.26.24.28.19.32.15.33.1.34.04z"/><text x="83.45" y="263.83" text-anchor="middle" style="font-size:5.69px;font-family:&quot;Arial&quot;" textLength="62.55" lengthAdjust="spacingAndGlyphs">MURRAY THOMAS LLC</text><path style="stroke-width:.53;fill:#fff;fill-opacity:.5" d="M54.04 319.22h52.48-.08l.34-.01.34-.07.33-.12.3-.18.27-.22.23-.26.19-.29.13-.32.09-.34.02-.35v-6.96l-.02-.34-.09-.34-.13-.32-.19-.3-.23-.26-.27-.22-.3-.17-.33-.12-.34-.07-.26-.02H54.04l.26.02-.34-.02-.35.05-.33.09-.32.15-.28.2-.25.24-.21.28-.16.31-.12.32-.05.35-.01.17v6.96l.01-.17v.35l.05.34.12.33.16.31.21.28.25.24.28.19.32.15.33.1.35.04z"/><text x="80.28" y="315.62" text-anchor="middle" style="font-size:5.69px;font-family:&quot;Arial&quot;" textLength="49.6" lengthAdjust="spacingAndGlyphs">MURRAY AVENUE</text><path style="stroke-width:.53;fill:#fff;fill-opacity:.5" d="M288.4 308.81h65.11-.08l.34-.02.34-.07.33-.12.3-.17.27-.22.23-.26.18-.3.14-.32.08-.33.03-.35V283.3l-.03-.35-.08-.34-.14-.32-.18-.29-.23-.26-.27-.22-.3-.17-.33-.13-.34-.07-.26-.01H288.4l.26.01-.35-.01-.35.04-.33.1-.31.15-.29.19-.25.25-.21.27-.16.31-.11.33-.06.34v23.53-.17.34l.06.35.11.33.16.3.21.28.25.24.29.2.31.15.33.1.35.04z"/><text x="320.95" y="288.82" text-anchor="middle" style="font-size:5.69px;font-family:&quot;Arial&quot;" textLength="59.39" lengthAdjust="spacingAndGlyphs">1579 E CUMBERLAND</text><text x="320.95" y="297.01" text-anchor="middle" style="font-size:5.69px;font-family:&quot;Arial&quot;" textLength="62.24" lengthAdjust="spacingAndGlyphs">BLVD, MILWAUKEE, WI</text><text x="320.95" y="305.21" text-anchor="middle" style="font-size:5.69px;font-family:&quot;Arial&quot;" textLength="15.8" lengthAdjust="spacingAndGlyphs">53211</text><path style="stroke-width:.53;fill:#fff;fill-opacity:.5" d="M270.09 224.29h65.12-.09l.35-.01.34-.07.32-.12.3-.18.27-.22.23-.26.19-.29.13-.32.09-.34.03-.35v-23.35l-.03-.34-.09-.34-.13-.32-.19-.3-.23-.26-.27-.22-.3-.17-.32-.12-.34-.07-.26-.02h-65.12l.26.02-.35-.02-.34.05-.34.09-.31.15-.29.2-.25.24-.21.28-.16.31-.11.33-.05.34-.01.17v23.35l.01-.17v.35l.05.34.11.33.16.31.21.28.25.24.29.19.31.15.34.1.34.04z"/><text x="302.65" y="204.3" text-anchor="middle" style="font-size:5.69px;font-family:&quot;Arial&quot;" textLength="59.39" lengthAdjust="spacingAndGlyphs">1579 E CUMBERLAND</text><text x="302.65" y="212.5" text-anchor="middle" style="font-size:5.69px;font-family:&quot;Arial&quot;" textLength="62.24" lengthAdjust="spacingAndGlyphs">BLVD, MILWAUKEE, WI</text><text x="302.65" y="220.69" text-anchor="middle" style="font-size:5.69px;font-family:&quot;Arial&quot;" textLength="15.8" lengthAdjust="spacingAndGlyphs">53211</text><path style="stroke-width:.53;fill:#fff;fill-opacity:.5" d="M364.92 539.77h68.28-.09l.35-.01.34-.07.32-.13.3-.17.27-.22.23-.26.19-.29.13-.32.09-.34.03-.35v-23.35l-.03-.35-.09-.33-.13-.32-.19-.3-.23-.26-.27-.22-.3-.17-.32-.12-.34-.07-.26-.02h-68.28l.26.02-.35-.02-.34.04-.34.1-.31.15-.29.2-.25.24-.21.28-.16.3-.11.33-.06.35V537.61v-.17.35l.06.34.11.33.16.31.21.27.25.25.29.19.31.15.34.1.34.04z"/><text x="399.06" y="519.78" text-anchor="middle" style="font-size:5.69px;font-family:&quot;Arial&quot;" textLength="65.4" lengthAdjust="spacingAndGlyphs">1579 E CUMBELAND BL,</text><text x="399.06" y="527.98" text-anchor="middle" style="font-size:5.69px;font-family:&quot;Arial&quot;" textLength="54.34" lengthAdjust="spacingAndGlyphs">WHITEFISH BAY, WI</text><text x="399.06" y="536.17" text-anchor="middle" style="font-size:5.69px;font-family:&quot;Arial&quot;" textLength="15.8" lengthAdjust="spacingAndGlyphs">53211</text></g><g clip-path="url(#cpMC4wMHw1NzYuMDB8MC4wMHw1NzYuMDA=)"><circle cx="196.98" cy="96.71" r="1.95" style="stroke-width:.71;stroke:none;fill:#f8766d"/><path style="stroke-width:.71;stroke:none;fill:#00ba38" d="m273.33 93.67 2.63 4.56h-5.26z"/><path style="stroke-width:.71;stroke:none;fill:#619cff" d="M339.31 98.66h3.91v-3.91h-3.91z"/><text x="211.09" y="99.86" style="font-size:8.8px;font-family:&quot;Arial Narrow&quot;" textLength="48.12" lengthAdjust="spacingAndGlyphs">mprop address</text><text x="287.45" y="99.86" style="font-size:8.8px;font-family:&quot;Arial Narrow&quot;" textLength="39.69" lengthAdjust="spacingAndGlyphs">owner name</text><text x="355.38" y="99.86" style="font-size:8.8px;font-family:&quot;Arial Narrow&quot;" textLength="40.5" lengthAdjust="spacingAndGlyphs">wdfi address</text><text x="32.63" y="65.12" style="font-size:12px;font-family:&quot;Arial Narrow&quot;" textLength="246.76" lengthAdjust="spacingAndGlyphs">includes 8 parcels, 40 units, and 7 distinct owner names.</text><text x="32.63" y="42.78" style="font-size:18px;font-weight:700;font-family:&quot;Arial Narrow&quot;" textLength="255.86" lengthAdjust="spacingAndGlyphs">3465 OAKLAND AVENUE LLC Group</text></g></svg>