<svg xmlns="http://www.w3.org/2000/svg" class="svglite" width="768" height="768" viewBox="0 0 576 576"><defs><style>.svglite circle,.svglite line,.svglite polygon,.svglite polyline,.svglite rect{fill:none;stroke:#000;stroke-linecap:round;stroke-linejoin:round;stroke-miterlimit:10}.svglite text{white-space:pre}</style></defs><rect width="100%" height="100%" style="stroke:none;fill:#fff"/><defs><clipPath id="cpMC4wMHw1NzYuMDB8MC4wMHw1NzYuMDA="><path d="M0 0h576v576H0z"/></clipPath></defs><g clip-path="url(#cpMC4wMHw1NzYuMDB8MC4wMHw1NzYuMDA=)"><path style="stroke-width:1.07;stroke:none;fill:#fff" d="M0 0h576v576H0z"/></g><defs><clipPath id="cpMzIuNjN8NTQ2LjExfDEyMS43OHw1NDMuMzc="><path d="M32.63 121.78h513.48v421.59H32.63z"/></clipPath></defs><g clip-path="url(#cpMzIuNjN8NTQ2LjExfDEyMS43OHw1NDMuMzc=)"><path style="stroke-width:1.07;stroke:#000;stroke-opacity:.1;stroke-linecap:butt" d="m522.77 395.87-2.16-1.12-2.17-1.1-2.17-1.1-2.18-1.09-2.18-1.08-2.19-1.07-2.18-1.06-2.2-1.05-2.19-1.04-2.2-1.03-2.21-1.02-2.21-1.01-2.21-1-2.21-.99-2.22-.99-2.23-.97-2.23-.96-2.23-.95-2.23-.94-2.24-.94-2.25-.92-2.24-.91-2.26-.91-2.25-.89-2.26-.88-2.26-.88-2.27-.86-2.27-.86-2.28-.84-2.28-.84-2.28-.82-2.29-.82-2.29-.8-2.29-.8-2.3-.78-2.3-.78-2.31-.77-2.31-.75-2.31-.75-2.32-.74-2.32-.72-2.33-.72-2.33-.71-2.33-.7-2.34-.69-2.34-.67-2.35-.67-2.35-.66-2.35-.65-2.36-.64-2.36-.63-2.37-.62-2.37-.61-2.37-.6-2.38-.59-2.38-.58-2.38-.57-2.39-.56-2.4-.55-2.39-.55-2.4-.53-2.41-.52-2.41-.51-2.41-.5-2.42-.5-2.42-.48-2.42-.47-2.43-.47-2.43-.45-2.44-.44-2.44-.44-2.44-.42-2.45-.42-2.45-.4-2.46-.4-2.46-.38-2.46-.38-2.47-.36-2.47-.36-2.48-.34-2.48-.34-2.48-.33-2.49-.31-2.49-.31-2.49-.3-2.5-.29-2.51-.27-2.5-.27-2.51-.26-2.52-.25-2.52-.24-2.52-.22-2.53-.22-2.53-.21-2.53-.2-2.54-.19-2.54-.18-2.55-.17-2.55-.16"/><path style="stroke-width:1.07;stroke:#000;stroke-opacity:.1;stroke-linecap:butt" d="m366.46 140.95-.78 1.93-.78 1.94-.77 1.93-.78 1.94-.78 1.94-.78 1.93-.78 1.94-.78 1.93-.78 1.94-.78 1.93-.77 1.94-.78 1.94-.78 1.93-.78 1.94-.78 1.93-.78 1.94-.78 1.93-.78 1.94-.77 1.94-.78 1.93-.78 1.94-.78 1.93-.78 1.94-.78 1.93-.78 1.94-.77 1.93-.78 1.94-.78 1.94-.78 1.93-.78 1.94-.78 1.93-.78 1.94-.78 1.93-.77 1.94-.78 1.94-.78 1.93-.78 1.94-.78 1.93-.78 1.94-.78 1.93-.78 1.94-.77 1.94-.78 1.93-.78 1.94-.78 1.93-.78 1.94-.78 1.93-.78 1.94-.78 1.94-.77 1.93-.78 1.94-.78 1.93-.78 1.94-.78 1.93-.78 1.94-.78 1.93-.77 1.94-.78 1.94-.78 1.93-.78 1.94-.78 1.93-.78 1.94-.78 1.93-.78 1.94-.77 1.94-.78 1.93-.78 1.94-.78 1.93-.78 1.94-.78 1.93-.78 1.94-.78 1.94-.77 1.93-.78 1.94-.78 1.93-.78 1.94-.78 1.93-.78 1.94-.78 1.94-.77 1.93-.78 1.94-.78 1.93-.78 1.94-.78 1.93-.78 1.94-.78 1.93-.78 1.94-.77 1.94-.78 1.93-.78 1.94-.78 1.93-.78 1.94-.78 1.93-.78 1.94-.78 1.94-.77 1.93-.78 1.94-.78 1.93-.78 1.94M55.97 269.28l2.36.64 2.35.64 2.36.64 2.36.64 2.36.64 2.35.64 2.36.64 2.36.64 2.36.64 2.35.64 2.36.64 2.36.64 2.36.64 2.35.63 2.36.64 2.36.64 2.36.64 2.35.64 2.36.64 2.36.64 2.36.64 2.35.64 2.36.64 2.36.64 2.36.64 2.36.64 2.35.64 2.36.64 2.36.63 2.36.64 2.35.64 2.36.64 2.36.64 2.36.64 2.35.64 2.36.64 2.36.64 2.36.64 2.35.64 2.36.64 2.36.64 2.36.64 2.35.64 2.36.63 2.36.64 2.36.64 2.35.64 2.36.64 2.36.64 2.36.64 2.36.64 2.35.64 2.36.64 2.36.64 2.36.64 2.35.64 2.36.64 2.36.64 2.36.63 2.35.64 2.36.64 2.36.64 2.36.64 2.35.64 2.36.64 2.36.64 2.36.64 2.35.64 2.36.64 2.36.64 2.36.64 2.35.64 2.36.64 2.36.63 2.36.64 2.36.64 2.35.64 2.36.64 2.36.64 2.36.64 2.35.64 2.36.64 2.36.64 2.36.64 2.35.64 2.36.64 2.36.64 2.36.64 2.35.63 2.36.64 2.36.64 2.36.64 2.35.64 2.36.64 2.36.64 2.36.64 2.35.64 2.36.64 2.36.64M212.28 524.21l.78-1.94.78-1.93.77-1.94.78-1.93.78-1.94.78-1.93.78-1.94.78-1.94.78-1.93.78-1.94.77-1.93.78-1.94.78-1.93.78-1.94.78-1.94.78-1.93.78-1.94.77-1.93.78-1.94.78-1.93.78-1.94.78-1.94.78-1.93.78-1.94.78-1.93.77-1.94.78-1.93.78-1.94.78-1.94.78-1.93.78-1.94.78-1.93.78-1.94.77-1.93.78-1.94.78-1.93.78-1.94.78-1.94.78-1.93.78-1.94.78-1.93.77-1.94.78-1.93.78-1.94.78-1.94.78-1.93.78-1.94.78-1.93.77-1.94.78-1.93.78-1.94.78-1.94.78-1.93.78-1.94.78-1.93.78-1.94.77-1.93.78-1.94.78-1.94.78-1.93.78-1.94.78-1.93.78-1.94.78-1.93.77-1.94.78-1.93.78-1.94.78-1.94.78-1.93.78-1.94.78-1.93.77-1.94.78-1.93.78-1.94.78-1.94.78-1.93.78-1.94.78-1.93.78-1.94.77-1.93.78-1.94.78-1.94.78-1.93.78-1.94.78-1.93.78-1.94.78-1.93.77-1.94.78-1.94.78-1.93.78-1.94.78-1.93.78-1.94.78-1.93.78-1.94.77-1.93.78-1.94.78-1.94.78-1.93M522.77 395.87l-2.55-.16-2.54-.17-2.55-.18-2.54-.19-2.53-.2-2.53-.21-2.53-.21-2.52-.23-2.52-.24-2.51-.25-2.52-.26-2.5-.27-2.51-.27-2.49-.29-2.5-.3-2.49-.31-2.49-.31-2.48-.33-2.48-.33-2.48-.35-2.47-.36-2.47-.36-2.46-.38-2.46-.38-2.46-.4-2.45-.4-2.45-.42-2.44-.42-2.44-.44-2.44-.44-2.43-.45-2.43-.47-2.42-.47-2.42-.48-2.42-.49-2.41-.51-2.41-.51-2.4-.52-2.41-.53-2.39-.54-2.4-.56-2.38-.56-2.39-.57-2.38-.58-2.38-.59-2.37-.6-2.37-.61-2.37-.62-2.36-.63-2.36-.64-2.35-.65-2.35-.66-2.34-.66-2.35-.68-2.33-.69-2.34-.7-2.33-.71-2.32-.71-2.33-.73-2.32-.74-2.31-.75-2.31-.75-2.31-.77-2.3-.78-2.3-.78-2.29-.8-2.29-.8-2.29-.82-2.28-.82-2.28-.84-2.28-.84-2.27-.86-2.26-.86-2.27-.88-2.26-.88-2.25-.89-2.25-.91-2.25-.91-2.25-.92-2.23-.93-2.24-.95-2.23-.95-2.23-.96-2.22-.97-2.22-.98-2.22-1-2.21-1-2.21-1.01-2.2-1.02-2.2-1.03-2.2-1.04-2.19-1.05-2.19-1.06-2.19-1.07-2.18-1.08-2.17-1.09-2.18-1.09-2.17-1.11-2.16-1.12"/><path style="stroke-width:.71;stroke:none;fill:#00bfc4" d="m522.77 389.51 5.51 9.54h-11.01zM366.46 138.74l1.92 3.31h-3.83zM55.97 267.07l1.91 3.32h-3.83zM212.28 522l1.91 3.31h-3.83z"/><circle cx="289.37" cy="332.58" r="6.76" style="stroke-width:.71;stroke:none;fill:#f8766d"/><path style="stroke-width:.53;stroke:#bfbfbf" d="m361.38 145.53 4.22-3.81M217.37 519.63l-4.23 3.81M294.67 328.01l-4.42 3.81"/><path style="stroke-width:.53;fill:#fff;fill-opacity:.5" d="M467.95 401.5H516h-.08l.34-.02.34-.07.33-.12.3-.17.27-.22.23-.26.18-.3.14-.32.08-.33.03-.35v-6.96l-.03-.35-.08-.34-.14-.32-.18-.29-.23-.26-.27-.22-.3-.17-.33-.13-.34-.07-.26-.01h-48.05l.26.01-.35-.01-.34.04-.34.1-.31.15-.29.19-.25.24-.21.28-.16.31-.11.33-.05.34-.01.18v6.96l.01-.17v.34l.05.35.11.33.16.3.21.28.25.24.29.2.31.15.34.1.34.04z"/><text x="491.98" y="397.9" text-anchor="middle" style="font-size:5.69px;font-family:&quot;Arial&quot;" textLength="45.17" lengthAdjust="spacingAndGlyphs">ARTHUR ALAMO</text><path style="stroke-width:.53;fill:#fff;fill-opacity:.5" d="M327.35 156.81h53.42-.08l.34-.02.34-.07.33-.12.3-.17.27-.22.23-.26.19-.3.13-.32.09-.33.02-.35v-6.96l-.02-.35-.09-.34-.13-.32-.19-.29-.23-.26-.27-.22-.3-.18-.33-.12-.34-.07-.26-.01h-53.42l.26.01-.35-.01-.34.04-.34.1-.31.15-.29.19-.25.24-.21.28-.16.31-.11.33-.05.34-.01.18v6.96l.01-.18v.35l.05.35.11.33.16.3.21.28.25.24.29.2.31.15.34.09.34.05z"/><text x="354.06" y="153.21" text-anchor="middle" style="font-size:5.69px;font-family:&quot;Arial&quot;" textLength="50.54" lengthAdjust="spacingAndGlyphs">ARTHUR A ALAMO</text><path style="stroke-width:.53;fill:#fff;fill-opacity:.5" d="M62.72 274.92h49.64-.08l.35-.01.34-.07.32-.13.3-.17.27-.22.23-.26.19-.29.13-.32.09-.34.02-.35v-6.96l-.02-.35-.09-.33-.13-.32-.19-.3-.23-.26-.27-.22-.3-.17-.32-.13-.34-.07-.27-.01H62.72l.26.01-.35-.01-.34.04-.34.1-.31.15-.29.2-.25.24-.2.27-.17.31-.11.33-.05.35-.01.17v6.96l.01-.17v.35l.05.34.11.33.17.31.2.27.25.24.29.2.31.15.34.1.34.04z"/><text x="87.54" y="271.32" text-anchor="middle" style="font-size:5.69px;font-family:&quot;Arial&quot;" textLength="46.76" lengthAdjust="spacingAndGlyphs">MARTA S ALAMO</text><path style="stroke-width:.53;fill:#fff;fill-opacity:.5" d="M198.05 519.63h53.42-.09l.35-.01.34-.07.33-.12.3-.18.27-.22.23-.26.18-.29.14-.32.08-.34.03-.35v-6.96l-.03-.34-.08-.34-.14-.32-.18-.3-.23-.26-.27-.22-.3-.17-.33-.12-.34-.07-.26-.02h-53.42l.26.02-.35-.02-.35.05-.33.09-.31.15-.29.2-.25.24-.21.28-.16.31-.11.33-.06.34v7.13-.17.35l.06.34.11.33.16.31.21.28.25.24.29.2.31.14.33.1.35.04z"/><text x="224.76" y="516.03" text-anchor="middle" style="font-size:5.69px;font-family:&quot;Arial&quot;" textLength="50.54" lengthAdjust="spacingAndGlyphs">ARTHUR ALAMO &amp;</text><path style="stroke-width:.53;fill:#fff;fill-opacity:.5" d="M274.56 328.01h64.49-.09l.35-.02.34-.07.32-.12.3-.17.27-.22.23-.26.19-.3.14-.32.08-.34.03-.34v-15.16l-.03-.34-.08-.34-.14-.32-.19-.3-.23-.26-.27-.22-.3-.17-.32-.12-.34-.07-.26-.02h-64.49l.26.02-.35-.02-.35.05-.33.09-.31.15-.29.2-.25.24-.21.28-.16.31-.11.32-.06.35v15.33-.18.35l.06.35.11.33.16.3.21.28.25.24.29.2.31.15.33.09.35.05z"/><text x="306.8" y="316.21" text-anchor="middle" style="font-size:5.69px;font-family:&quot;Arial&quot;" textLength="40.76" lengthAdjust="spacingAndGlyphs">716 S 26TH ST,</text><text x="306.8" y="324.41" text-anchor="middle" style="font-size:5.69px;font-family:&quot;Arial&quot;" textLength="61.61" lengthAdjust="spacingAndGlyphs">MILWAUKEE, WI 53204</text></g><g clip-path="url(#cpMC4wMHw1NzYuMDB8MC4wMHw1NzYuMDA=)"><circle cx="231.34" cy="96.71" r="1.95" style="stroke-width:.71;stroke:none;fill:#f8766d"/><path style="stroke-width:.71;stroke:none;fill:#00bfc4" d="m307.7 93.67 2.63 4.56h-5.26z"/><text x="245.46" y="99.86" style="font-size:8.8px;font-family:&quot;Arial Narrow&quot;" textLength="48.12" lengthAdjust="spacingAndGlyphs">mprop address</text><text x="321.82" y="99.86" style="font-size:8.8px;font-family:&quot;Arial Narrow&quot;" textLength="39.69" lengthAdjust="spacingAndGlyphs">owner name</text><text x="32.63" y="65.12" style="font-size:12px;font-family:&quot;Arial Narrow&quot;" textLength="246.76" lengthAdjust="spacingAndGlyphs">includes 5 parcels, 15 units, and 4 distinct owner names.</text><text x="32.63" y="42.78" style="font-size:18px;font-weight:700;font-family:&quot;Arial Narrow&quot;" textLength="168.34" lengthAdjust="spacingAndGlyphs">ARTHUR ALAMO Group</text></g></svg>