<svg xmlns="http://www.w3.org/2000/svg" class="svglite" width="768" height="768" viewBox="0 0 576 576"><defs><style>.svglite circle,.svglite line,.svglite polygon,.svglite polyline,.svglite rect{fill:none;stroke:#000;stroke-linecap:round;stroke-linejoin:round;stroke-miterlimit:10}.svglite text{white-space:pre}</style></defs><rect width="100%" height="100%" style="stroke:none;fill:#fff"/><defs><clipPath id="cpMC4wMHw1NzYuMDB8MC4wMHw1NzYuMDA="><path d="M0 0h576v576H0z"/></clipPath></defs><g clip-path="url(#cpMC4wMHw1NzYuMDB8MC4wMHw1NzYuMDA=)"><path style="stroke-width:1.07;stroke:none;fill:#fff" d="M0 0h576v576H0z"/></g><defs><clipPath id="cpMzIuNjN8NTQ2LjExfDEyMS43OHw1NDMuMzc="><path d="M32.63 121.78h513.48v421.59H32.63z"/></clipPath></defs><g clip-path="url(#cpMzIuNjN8NTQ2LjExfDEyMS43OHw1NDMuMzc=)"><path style="stroke-width:1.07;stroke:#000;stroke-opacity:.1;stroke-linecap:butt" d="m522.77 142.36-1.65-.28-1.65-.26-1.64-.22-1.65-.19-1.64-.15-1.65-.13-1.64-.09-1.64-.06-1.63-.03h-1.64l-1.64.04-1.63.06-1.63.1-1.63.13-1.63.17-1.62.19-1.63.23-1.62.26-1.62.29-1.62.32-1.62.36-1.62.39-1.61.42-1.62.45-1.61.48-1.61.52-1.61.55-1.6.58-1.61.61-1.6.64-1.61.68-1.6.71-1.6.74-1.59.77-1.6.81-1.59.83-1.6.87-1.59.9-1.59.94-1.58.96-1.59 1-1.58 1.03-1.59 1.06-1.58 1.09-1.58 1.13-1.58 1.15-1.57 1.19-1.58 1.22-1.57 1.26-1.57 1.28-1.57 1.32-1.57 1.35-1.57 1.38-1.56 1.42-1.57 1.44-1.56 1.48-1.56 1.51-1.56 1.54-1.56 1.58-1.55 1.6-1.56 1.64-1.55 1.67-1.55 1.71-1.55 1.73-1.55 1.77-1.54 1.8-1.55 1.83-1.54 1.86-1.54 1.89-1.54 1.93-1.54 1.96-1.54 1.99-1.53 2.03-1.53 2.05-1.53 2.09-1.53 2.12-1.53 2.15-1.53 2.18-1.52 2.22-1.53 2.25-1.52 2.28-1.52 2.31-1.52 2.34-1.52 2.38-1.51 2.41-1.52 2.44-1.51 2.47-1.51 2.5-1.51 2.54-1.5 2.57-1.51 2.6-1.5 2.63-1.51 2.66-1.5 2.7-1.5 2.73-1.5 2.76-1.49 2.79-1.5 2.83-1.49 2.86"/><path style="stroke-width:1.07;stroke:#000;stroke-opacity:.1;stroke-linecap:butt" d="m522.77 142.36-1.57 1.29-1.57 1.29-1.57 1.28-1.58 1.29-1.57 1.28-1.57 1.29-1.57 1.28-1.57 1.29-1.57 1.29-1.58 1.28-1.57 1.29-1.57 1.28-1.57 1.29-1.57 1.28-1.57 1.29-1.58 1.28-1.57 1.29-1.57 1.29-1.57 1.28-1.57 1.29-1.57 1.28-1.58 1.29-1.57 1.28-1.57 1.29-1.57 1.29-1.57 1.28-1.57 1.29-1.58 1.28-1.57 1.29-1.57 1.28-1.57 1.29-1.57 1.29-1.58 1.28-1.57 1.29-1.57 1.28-1.57 1.29-1.57 1.28-1.57 1.29-1.58 1.29-1.57 1.28-1.57 1.29-1.57 1.28-1.57 1.29-1.57 1.28-1.58 1.29-1.57 1.29-1.57 1.28-1.57 1.29-1.57 1.28-1.57 1.29-1.58 1.28-1.57 1.29-1.57 1.28-1.57 1.29-1.57 1.29-1.58 1.28-1.57 1.29-1.57 1.28-1.57 1.29-1.57 1.28-1.57 1.29-1.58 1.29-1.57 1.28-1.57 1.29-1.57 1.28-1.57 1.29-1.57 1.28-1.58 1.29-1.57 1.29-1.57 1.28-1.57 1.29-1.57 1.28-1.57 1.29-1.58 1.28-1.57 1.29-1.57 1.29-1.57 1.28-1.57 1.29-1.57 1.28-1.58 1.29-1.57 1.28-1.57 1.29-1.57 1.29-1.57 1.28-1.58 1.29-1.57 1.28-1.57 1.29-1.57 1.28-1.57 1.29-1.57 1.28-1.58 1.29-1.57 1.29-1.57 1.28-1.57 1.29-1.57 1.28-1.57 1.29-1.58 1.28-1.57 1.29-1.57 1.29"/><path style="stroke-width:1.07;stroke:#000;stroke-opacity:.1;stroke-linecap:butt" d="m522.77 142.36-1.49 2.86-1.5 2.83-1.49 2.79-1.5 2.76-1.5 2.73-1.5 2.7-1.5 2.66-1.51 2.63-1.5 2.6-1.51 2.57-1.51 2.54-1.51 2.5-1.51 2.47-1.52 2.44-1.51 2.41-1.52 2.38-1.52 2.34-1.52 2.31-1.52 2.28-1.52 2.25-1.53 2.22-1.52 2.18-1.53 2.15-1.53 2.12-1.53 2.09-1.54 2.05-1.53 2.03-1.54 1.99-1.54 1.96-1.54 1.93-1.54 1.89-1.54 1.86-1.54 1.83-1.55 1.8-1.55 1.77-1.55 1.73-1.55 1.71-1.55 1.67-1.56 1.64-1.55 1.6-1.56 1.58-1.56 1.54-1.56 1.51-1.56 1.48-1.56 1.44-1.57 1.42-1.57 1.38-1.56 1.35-1.57 1.32-1.58 1.28-1.57 1.26-1.57 1.22-1.58 1.19-1.58 1.15-1.58 1.13-1.58 1.09-1.58 1.06-1.59 1.03-1.58 1-1.59.96-1.59.94-1.59.9-1.59.87-1.6.83-1.59.81-1.6.77-1.6.74-1.6.71-1.6.68-1.61.64-1.6.61-1.61.58-1.61.55-1.61.52-1.61.48-1.61.45-1.62.42-1.62.39-1.62.36-1.62.32-1.62.29-1.62.26-1.62.23-1.63.19-1.63.17-1.63.13-1.63.1-1.63.06-1.64.04h-1.63l-1.64-.03-1.64-.06-1.64-.09-1.64-.13-1.65-.15-1.64-.19-1.65-.22-1.65-.26-1.65-.28M211.57 396.93l1.69 1.07 1.69 1.02 1.68.98 1.68.93 1.68.87 1.68.84 1.68.78 1.67.73 1.67.69 1.67.64 1.67.59 1.66.54 1.66.49 1.66.45 1.65.4 1.66.35 1.65.3 1.65.25 1.64.21 1.65.16 1.64.11 1.64.06 1.64.01 1.63-.03 1.63-.09 1.63-.13 1.63-.18 1.62-.23 1.63-.27 1.62-.33 1.61-.37 1.62-.42 1.61-.46 1.61-.52 1.61-.56 1.61-.62 1.6-.66 1.6-.71 1.6-.75 1.59-.81 1.6-.85 1.59-.9 1.59-.95 1.58-1 1.59-1.04 1.58-1.1 1.58-1.14 1.57-1.19 1.58-1.23 1.57-1.29 1.57-1.33 1.57-1.39 1.56-1.43 1.56-1.47 1.56-1.53 1.56-1.57 1.55-1.63 1.56-1.67 1.55-1.72 1.54-1.76 1.55-1.82 1.54-1.86 1.54-1.91 1.54-1.96 1.54-2.01 1.53-2.05 1.53-2.11 1.53-2.15 1.52-2.2 1.53-2.24 1.52-2.3 1.52-2.34 1.51-2.4 1.52-2.44 1.51-2.48 1.51-2.54 1.5-2.59 1.51-2.63 1.5-2.68 1.5-2.73 1.5-2.77 1.49-2.83 1.49-2.87 1.49-2.92 1.49-2.97 1.49-3.02 1.48-3.07 1.48-3.11 1.48-3.16 1.47-3.21 1.47-3.26 1.47-3.31 1.47-3.35 1.47-3.4 1.46-3.45 1.46-3.5 1.46-3.55 1.46-3.59 1.45-3.64"/><path style="stroke-width:1.07;stroke:#000;stroke-opacity:.1;stroke-linecap:butt" d="m211.57 396.93 1.61-.5 1.61-.52 1.61-.53 1.61-.55 1.61-.56 1.6-.58 1.61-.6 1.61-.61 1.6-.63 1.6-.64 1.61-.66 1.6-.68 1.6-.69 1.6-.71 1.6-.72 1.6-.75 1.6-.75 1.6-.77 1.59-.79 1.6-.81 1.59-.82 1.6-.83 1.59-.86 1.59-.87 1.6-.88 1.59-.9 1.59-.92 1.59-.93 1.59-.95 1.58-.97 1.59-.98 1.59-.99 1.58-1.02 1.59-1.03 1.58-1.04 1.58-1.06 1.59-1.08 1.58-1.09 1.58-1.11 1.58-1.13 1.58-1.14 1.57-1.16 1.58-1.17 1.58-1.19 1.57-1.21 1.58-1.22 1.57-1.23 1.58-1.26 1.57-1.27 1.57-1.28 1.57-1.3 1.57-1.32 1.57-1.34 1.57-1.35 1.57-1.36 1.56-1.38 1.57-1.4 1.57-1.42 1.56-1.43 1.56-1.44 1.57-1.46 1.56-1.48 1.56-1.5 1.56-1.51 1.56-1.52 1.56-1.54 1.56-1.56 1.55-1.58 1.56-1.59 1.56-1.6 1.55-1.63 1.55-1.64 1.56-1.65 1.55-1.67 1.55-1.69 1.55-1.7 1.55-1.72 1.55-1.73 1.55-1.75 1.55-1.77 1.55-1.78 1.54-1.8 1.55-1.82 1.54-1.83 1.54-1.84 1.55-1.87 1.54-1.88 1.54-1.89 1.54-1.91 1.54-1.93 1.54-1.94 1.54-1.96 1.53-1.98 1.54-1.99 1.54-2 1.53-2.03 1.54-2.04 1.53-2.05 1.53-2.07M211.57 396.93l1.53-2.07 1.53-2.06 1.54-2.04 1.53-2.02 1.54-2.01 1.54-1.99 1.53-1.97 1.54-1.96 1.54-1.95 1.54-1.92 1.54-1.91 1.54-1.9 1.54-1.88 1.55-1.86 1.54-1.85 1.54-1.83 1.55-1.81 1.54-1.8 1.55-1.78 1.55-1.77 1.55-1.75 1.55-1.74 1.55-1.72 1.55-1.7 1.55-1.68 1.55-1.68 1.55-1.65 1.56-1.64 1.55-1.62 1.56-1.61 1.56-1.59 1.55-1.57 1.56-1.56 1.56-1.54 1.56-1.53 1.56-1.51 1.56-1.49 1.56-1.48 1.57-1.46 1.56-1.45 1.56-1.43 1.57-1.41 1.57-1.4 1.56-1.38 1.57-1.37 1.57-1.35 1.57-1.33 1.57-1.32 1.57-1.3 1.57-1.29 1.57-1.27 1.58-1.25 1.57-1.24 1.58-1.22 1.57-1.21 1.58-1.18 1.58-1.18 1.57-1.16 1.58-1.14 1.58-1.12 1.58-1.11 1.58-1.09 1.59-1.08 1.58-1.06 1.58-1.05 1.59-1.03 1.58-1.01 1.59-1 1.59-.98 1.58-.96 1.59-.95 1.59-.94 1.59-.91 1.59-.9 1.6-.89 1.59-.87 1.59-.85 1.6-.84 1.59-.82 1.6-.8 1.59-.79 1.6-.77 1.6-.76 1.6-.74 1.6-.72 1.6-.71 1.6-.7 1.6-.67 1.61-.66 1.6-.65 1.6-.62 1.61-.62 1.61-.59 1.6-.58 1.61-.57 1.61-.55 1.61-.53 1.61-.51 1.61-.5"/><path style="stroke-width:1.07;stroke:#000;stroke-opacity:.1;stroke-linecap:butt" d="m211.57 396.93 1.45-3.64 1.46-3.6 1.46-3.54 1.46-3.5 1.46-3.45 1.47-3.41 1.47-3.35 1.47-3.31 1.47-3.25 1.47-3.21 1.48-3.17 1.48-3.11 1.48-3.06 1.49-3.02 1.49-2.97 1.49-2.92 1.49-2.88 1.49-2.82 1.5-2.78 1.5-2.73 1.5-2.68 1.51-2.63 1.5-2.58 1.51-2.54 1.51-2.49 1.52-2.44 1.51-2.39 1.52-2.34 1.52-2.3 1.53-2.25 1.52-2.2 1.53-2.15 1.53-2.1 1.53-2.06 1.54-2 1.54-1.96 1.54-1.92 1.54-1.86 1.55-1.81 1.54-1.77 1.55-1.72 1.56-1.67 1.55-1.62 1.56-1.58 1.56-1.52 1.56-1.48 1.56-1.43 1.57-1.38 1.57-1.34 1.57-1.28 1.58-1.24 1.57-1.19 1.58-1.14 1.58-1.09 1.59-1.05 1.58-1 1.59-.94 1.59-.9 1.6-.86 1.59-.8 1.6-.76 1.6-.71 1.6-.66 1.61-.61 1.61-.56 1.61-.52 1.61-.47 1.62-.42 1.61-.37 1.62-.32 1.63-.28 1.62-.23 1.63-.18 1.63-.13 1.63-.08 1.63-.03 1.64.01 1.64.06 1.64.11 1.65.16 1.64.2 1.65.26 1.65.3 1.66.35 1.65.39 1.66.45 1.66.49 1.66.55 1.67.59 1.67.64 1.67.68 1.67.74 1.68.78 1.68.83 1.68.88 1.68.93 1.68.97 1.69 1.02 1.69 1.08M211.57 396.93l-1.57 1.28-1.57 1.29-1.58 1.29-1.57 1.28-1.57 1.29-1.57 1.28-1.57 1.29-1.57 1.28-1.58 1.29-1.57 1.29-1.57 1.28-1.57 1.29-1.57 1.28-1.57 1.29-1.58 1.28-1.57 1.29-1.57 1.29-1.57 1.28-1.57 1.29-1.58 1.28-1.57 1.29-1.57 1.28-1.57 1.29-1.57 1.29-1.57 1.28-1.58 1.29-1.57 1.28-1.57 1.29-1.57 1.28-1.57 1.29-1.57 1.28-1.58 1.29-1.57 1.29-1.57 1.28-1.57 1.29-1.57 1.28-1.57 1.29-1.58 1.28-1.57 1.29-1.57 1.29-1.57 1.28-1.57 1.29-1.58 1.28-1.57 1.29-1.57 1.28-1.57 1.29-1.57 1.29-1.57 1.28-1.58 1.29-1.57 1.28-1.57 1.29-1.57 1.28-1.57 1.29-1.57 1.28-1.58 1.29-1.57 1.29-1.57 1.28-1.57 1.29-1.57 1.28-1.57 1.29-1.58 1.28-1.57 1.29-1.57 1.29-1.57 1.28-1.57 1.29-1.58 1.28-1.57 1.29-1.57 1.28-1.57 1.29-1.57 1.29-1.57 1.28-1.58 1.29-1.57 1.28-1.57 1.29-1.57 1.28-1.57 1.29-1.57 1.28-1.58 1.29-1.57 1.29-1.57 1.28-1.57 1.29-1.57 1.28-1.57 1.29-1.58 1.28-1.57 1.29-1.57 1.29-1.57 1.28-1.57 1.29-1.57 1.28-1.58 1.29-1.57 1.28-1.57 1.29-1.57 1.29-1.57 1.28-1.58 1.29-1.57 1.28-1.57 1.29-1.57 1.28-1.57 1.29"/><path style="stroke-width:.71;stroke:none;fill:#00bfc4" d="m522.77 135.36 6.06 10.5h-12.12zM211.57 387.94l7.78 13.48h-15.56z"/><circle cx="367.17" cy="269.65" r="6.76" style="stroke-width:.71;stroke:none;fill:#f8766d"/><circle cx="55.97" cy="524.21" r="1.42" style="stroke-width:.71;stroke:none;fill:#f8766d"/><path style="stroke-width:.53;stroke:#bfbfbf" d="m206.47 401.52 4.24-3.82M372.53 265.11l-4.47 3.78"/><path style="stroke-width:.53;fill:#fff;fill-opacity:.5" d="M455.01 147.98h61l-.09-.01.35-.01.34-.07.32-.12.3-.18.27-.22.23-.26.19-.29.14-.32.08-.34.03-.34v-6.97l-.03-.34-.08-.34-.14-.32-.19-.29-.23-.26-.27-.22-.3-.18-.32-.12-.34-.07-.26-.02h-61l.26.02-.35-.02-.34.05-.34.09-.31.15-.29.2-.25.24-.21.28-.16.31-.11.33-.06.34v7.14-.18.35l.06.34.11.33.16.31.21.28.25.24.29.2.31.15.34.09.34.04z"/><text x="485.51" y="144.38" text-anchor="middle" style="font-size:5.69px;font-family:&quot;Arial&quot;" textLength="58.12" lengthAdjust="spacingAndGlyphs">JACOB M NAWROCKI</text><path style="stroke-width:.53;fill:#fff;fill-opacity:.5" d="M171.79 412.8h54.69-.09l.35-.02.34-.07.32-.12.3-.17.27-.22.23-.26.19-.3.13-.32.09-.33.03-.35v-6.96l-.03-.35-.09-.34-.13-.32-.19-.29-.23-.26-.27-.22-.3-.17-.32-.13-.34-.07-.26-.01h-54.69l.26.01-.35-.01-.34.04-.33.1-.32.15-.28.19-.25.24-.21.28-.17.31-.11.33-.05.34-.01.18v6.96l.01-.17v.34l.05.35.11.33.17.3.21.28.25.24.28.2.32.15.33.1.34.04z"/><text x="199.13" y="409.2" text-anchor="middle" style="font-size:5.69px;font-family:&quot;Arial&quot;" textLength="51.8" lengthAdjust="spacingAndGlyphs">JACOB NAWROCKI</text><path style="stroke-width:.53;fill:#fff;fill-opacity:.5" d="M357.93 265.11h63.23-.09l.35-.02.34-.07.32-.12.3-.17.27-.22.23-.26.19-.3.14-.32.08-.33.03-.35V239.6l-.03-.35-.08-.34-.14-.32-.19-.29-.23-.26-.27-.22-.3-.17-.32-.13-.34-.07-.26-.01h-63.23l.26.01-.34-.01-.35.04-.33.1-.32.15-.28.2-.25.24-.21.27-.16.31-.11.33-.06.34-.01.18v23.35l.01-.17v.34l.06.35.11.33.16.3.21.28.25.24.28.2.32.15.33.1.35.04z"/><text x="389.55" y="245.12" text-anchor="middle" style="font-size:5.69px;font-family:&quot;Arial&quot;" textLength="60.34" lengthAdjust="spacingAndGlyphs">7843 W CANTERBURY</text><text x="389.55" y="253.32" text-anchor="middle" style="font-size:5.69px;font-family:&quot;Arial&quot;" textLength="48.95" lengthAdjust="spacingAndGlyphs">CT, FRANKLIN, WI</text><text x="389.55" y="261.51" text-anchor="middle" style="font-size:5.69px;font-family:&quot;Arial&quot;" textLength="15.8" lengthAdjust="spacingAndGlyphs">53132</text><path style="stroke-width:.53;fill:#fff;fill-opacity:.5" d="M62.71 533.94h67.01-.09l.35-.02.34-.07.33-.12.3-.17.27-.22.23-.26.18-.3.14-.32.08-.33.03-.35v-15.16l-.03-.34-.08-.34-.14-.32-.18-.29-.23-.27-.27-.21-.3-.18-.33-.12-.34-.07-.26-.02H62.71l.26.02-.35-.02-.34.05-.33.09-.32.15-.28.2-.26.24-.2.28-.17.31-.11.33-.05.34-.01.17v15.16l.01-.17v.34l.05.35.11.33.17.3.2.28.26.24.28.2.32.15.33.1.34.04z"/><text x="96.22" y="522.15" text-anchor="middle" style="font-size:5.69px;font-family:&quot;Arial&quot;" textLength="64.13" lengthAdjust="spacingAndGlyphs">7843 CANTERBURY CT,</text><text x="96.22" y="530.34" text-anchor="middle" style="font-size:5.69px;font-family:&quot;Arial&quot;" textLength="55.6" lengthAdjust="spacingAndGlyphs">FRANKLIN, WI 53132</text></g><g clip-path="url(#cpMC4wMHw1NzYuMDB8MC4wMHw1NzYuMDA=)"><circle cx="231.34" cy="96.71" r="1.95" style="stroke-width:.71;stroke:none;fill:#f8766d"/><path style="stroke-width:.71;stroke:none;fill:#00bfc4" d="m307.7 93.67 2.63 4.56h-5.26z"/><text x="245.46" y="99.86" style="font-size:8.8px;font-family:&quot;Arial Narrow&quot;" textLength="48.12" lengthAdjust="spacingAndGlyphs">mprop address</text><text x="321.82" y="99.86" style="font-size:8.8px;font-family:&quot;Arial Narrow&quot;" textLength="39.69" lengthAdjust="spacingAndGlyphs">owner name</text><text x="32.63" y="65.12" style="font-size:12px;font-family:&quot;Arial Narrow&quot;" textLength="246.76" lengthAdjust="spacingAndGlyphs">includes 8 parcels, 29 units, and 2 distinct owner names.</text><text x="32.63" y="42.78" style="font-size:18px;font-weight:700;font-family:&quot;Arial Narrow&quot;" textLength="186.13" lengthAdjust="spacingAndGlyphs">JACOB NAWROCKI Group</text></g></svg>