<svg xmlns="http://www.w3.org/2000/svg" class="svglite" width="768" height="768" viewBox="0 0 576 576"><defs><style>.svglite circle,.svglite line,.svglite polygon,.svglite polyline,.svglite rect{fill:none;stroke:#000;stroke-linecap:round;stroke-linejoin:round;stroke-miterlimit:10}.svglite text{white-space:pre}</style></defs><rect width="100%" height="100%" style="stroke:none;fill:#fff"/><defs><clipPath id="cpMC4wMHw1NzYuMDB8MC4wMHw1NzYuMDA="><path d="M0 0h576v576H0z"/></clipPath></defs><g clip-path="url(#cpMC4wMHw1NzYuMDB8MC4wMHw1NzYuMDA=)"><path style="stroke-width:1.07;stroke:none;fill:#fff" d="M0 0h576v576H0z"/></g><defs><clipPath id="cpMzIuNjN8NTQ2LjExfDEyMS43OHw1NDMuMzc="><path d="M32.63 121.78h513.48v421.59H32.63z"/></clipPath></defs><g clip-path="url(#cpMzIuNjN8NTQ2LjExfDEyMS43OHw1NDMuMzc=)"><path style="stroke-width:1.07;stroke:#000;stroke-opacity:.1;stroke-linecap:butt" d="m513.89 457.67-1.52-1.78-1.53-1.76-1.55-1.76-1.55-1.74-1.57-1.74-1.57-1.72-1.59-1.71-1.59-1.7-1.61-1.69-1.62-1.68-1.63-1.67-1.64-1.65-1.65-1.65-1.66-1.64-1.67-1.62-1.69-1.62-1.69-1.6-1.7-1.59-1.72-1.58-1.72-1.57-1.74-1.56-1.74-1.55-1.76-1.54-1.77-1.53-1.77-1.51-1.79-1.51-1.8-1.49-1.81-1.49-1.82-1.47-1.83-1.46-1.84-1.45-1.86-1.44-1.86-1.43-1.87-1.42-1.89-1.41-1.89-1.39-1.91-1.39-1.92-1.37-1.92-1.37-1.94-1.35-1.95-1.35-1.96-1.33-1.97-1.32-1.98-1.31-1.99-1.3-2-1.29-2.01-1.27-2.02-1.27-2.04-1.26-2.04-1.24-2.05-1.23-2.07-1.23-2.07-1.21-2.09-1.2-2.1-1.19-2.11-1.18-2.11-1.17-2.13-1.16-2.14-1.15-2.15-1.13-2.16-1.13-2.17-1.11-2.19-1.11-2.19-1.09-2.2-1.08-2.22-1.07-2.22-1.06-2.24-1.05-2.24-1.04-2.26-1.03-2.27-1.02-2.27-1-2.29-1-2.3-.98-2.31-.98-2.32-.96-2.33-.95-2.34-.94-2.36-.93-2.36-.92-2.37-.91-2.39-.9-2.39-.89-2.41-.87-2.41-.87-2.43-.85-2.44-.85-2.44-.83-2.46-.82-2.47-.81-2.48-.8-2.49-.79-2.5-.78-2.51-.77-2.53-.75-2.53-.75-2.54-.73-2.56-.73-2.56-.71"/><path style="stroke-width:1.07;stroke:#000;stroke-opacity:.1;stroke-linecap:butt" d="m513.89 457.67-2.04-1.25-2.04-1.24-2.05-1.25-2.04-1.24-2.04-1.25-2.05-1.24-2.04-1.25-2.05-1.24-2.04-1.25-2.04-1.24-2.05-1.25-2.04-1.24-2.04-1.25-2.05-1.24-2.04-1.25-2.05-1.24-2.04-1.25-2.04-1.24-2.05-1.25-2.04-1.24-2.05-1.25-2.04-1.24-2.04-1.25-2.05-1.24-2.04-1.25-2.04-1.24-2.05-1.25-2.04-1.24-2.05-1.25-2.04-1.24-2.04-1.25-2.05-1.24-2.04-1.24-2.05-1.25-2.04-1.24-2.04-1.25-2.05-1.24-2.04-1.25-2.04-1.24-2.05-1.25-2.04-1.24-2.05-1.25-2.04-1.24-2.04-1.25-2.05-1.24-2.04-1.25-2.04-1.24-2.05-1.25-2.04-1.24-2.05-1.25-2.04-1.24-2.04-1.25-2.05-1.24-2.04-1.25-2.05-1.24-2.04-1.25-2.04-1.24-2.05-1.25-2.04-1.24-2.04-1.25-2.05-1.24-2.04-1.25-2.05-1.24-2.04-1.25-2.04-1.24-2.05-1.25-2.04-1.24-2.04-1.25-2.05-1.24-2.04-1.25-2.05-1.24-2.04-1.25-2.04-1.24-2.05-1.25-2.04-1.24-2.05-1.25-2.04-1.24-2.04-1.25-2.05-1.24-2.04-1.25-2.04-1.24-2.05-1.25-2.04-1.24-2.05-1.25-2.04-1.24-2.04-1.25-2.05-1.24-2.04-1.25-2.04-1.24-2.05-1.25-2.04-1.24-2.05-1.25-2.04-1.24-2.04-1.25-2.05-1.24-2.04-1.25-2.05-1.24-2.04-1.25-2.04-1.24M522.77 220.8l-2.13 1.15-2.14 1.15-2.13 1.14-2.13 1.15-2.14 1.15-2.13 1.15-2.13 1.14-2.14 1.15-2.13 1.15-2.13 1.15-2.14 1.14-2.13 1.15-2.13 1.15-2.14 1.15-2.13 1.14-2.13 1.15-2.14 1.15-2.13 1.15-2.13 1.15-2.14 1.14-2.13 1.15-2.13 1.15-2.14 1.15-2.13 1.14-2.14 1.15-2.13 1.15-2.13 1.15-2.14 1.14-2.13 1.15-2.13 1.15-2.14 1.15-2.13 1.14-2.13 1.15-2.14 1.15-2.13 1.15-2.13 1.15-2.14 1.14-2.13 1.15-2.13 1.15-2.14 1.15-2.13 1.14-2.13 1.15-2.14 1.15-2.13 1.15-2.13 1.14-2.14 1.15-2.13 1.15-2.14 1.15-2.13 1.15-2.13 1.14-2.14 1.15-2.13 1.15-2.13 1.15-2.14 1.14-2.13 1.15-2.13 1.15-2.14 1.15-2.13 1.14-2.13 1.15-2.14 1.15-2.13 1.15-2.13 1.14-2.14 1.15-2.13 1.15-2.13 1.15-2.14 1.15-2.13 1.14-2.13 1.15-2.14 1.15-2.13 1.15-2.14 1.14-2.13 1.15-2.13 1.15-2.14 1.15-2.13 1.14-2.13 1.15-2.14 1.15-2.13 1.15-2.13 1.14-2.14 1.15-2.13 1.15-2.13 1.15-2.14 1.15-2.13 1.14-2.13 1.15-2.14 1.15-2.13 1.15-2.13 1.14-2.14 1.15-2.13 1.15-2.13 1.15-2.14 1.14-2.13 1.15-2.14 1.15-2.13 1.15-2.13 1.14-2.14 1.15-2.13 1.15-2.13 1.15M239.76 140.95l.31 2.05.33 2.04.33 2.05.34 2.04.35 2.04.36 2.04.37 2.04.37 2.03.38 2.04.4 2.03.4 2.03.4 2.02.42 2.03.42 2.02.44 2.02.44 2.02.45 2.02.46 2.02.46 2.01.48 2.01.48 2.01.49 2.01.5 2.01.51 2 .52 2 .52 2 .54 2 .54 2 .55 1.99.56 2 .56 1.99.58 1.99.58 1.98.59 1.99.6 1.98.61 1.98.62 1.98.62 1.98.64 1.98.64 1.97.65 1.97.66 1.97.66 1.97.68 1.96.68 1.97.69 1.96.7 1.96.71 1.96.72 1.95.73 1.96.73 1.95.74 1.95.75 1.95.76 1.95.77 1.94.77 1.94.79 1.94.79 1.94.8 1.94.81 1.93.81 1.94.83 1.93.83 1.93.85 1.93.85 1.92.85 1.92.87 1.93.88 1.92.88 1.91.89 1.92.9 1.91.91 1.91.92 1.91.93 1.91.93 1.91.94 1.9.95 1.91.96 1.9.97 1.89.97 1.9.99 1.89.99 1.9 1 1.89 1.01 1.89 1.02 1.88 1.02 1.89 1.04 1.88 1.04 1.88 1.05 1.88 1.06 1.88 1.07 1.87 1.07 1.88 1.09 1.87 1.09 1.87 1.1 1.87 1.11 1.86 1.12 1.87 1.12 1.86 1.14 1.86"/><path style="stroke-width:1.07;stroke:#000;stroke-opacity:.1;stroke-linecap:butt" d="m55.97 328.46 2.58.06 2.58.07 2.58.06 2.58.06 2.59.06 2.58.06 2.58.06 2.58.06 2.58.06 2.58.06 2.59.06 2.58.06 2.58.06 2.58.06 2.58.06 2.59.06 2.58.06 2.58.06 2.58.06 2.58.06 2.58.06 2.59.06 2.58.06 2.58.06 2.58.06 2.58.06 2.58.06 2.59.06 2.58.06 2.58.06 2.58.06 2.58.06 2.58.06 2.59.06 2.58.06 2.58.06 2.58.06 2.58.06 2.58.06 2.59.06 2.58.06 2.58.06 2.58.06 2.58.06 2.58.06 2.59.06 2.58.06 2.58.06 2.58.06 2.58.06 2.59.06 2.58.06 2.58.06 2.58.06 2.58.06 2.58.06 2.59.06 2.58.06 2.58.06 2.58.06 2.58.06 2.58.06 2.59.06 2.58.06 2.58.06 2.58.06 2.58.06 2.58.06 2.59.06 2.58.06 2.58.06 2.58.06 2.58.06 2.58.06 2.59.06 2.58.06 2.58.07 2.58.06 2.58.06 2.58.06 2.59.06 2.58.06 2.58.06 2.58.06 2.58.06 2.58.06 2.59.06 2.58.06 2.58.06 2.58.06 2.58.06 2.59.06 2.58.06 2.58.06 2.58.06 2.58.06 2.58.06 2.59.06 2.58.06M513.89 457.67l-2.56-.71-2.55-.73-2.55-.73-2.53-.75-2.52-.76-2.52-.76-2.5-.78-2.49-.79-2.48-.8-2.47-.81-2.45-.82-2.45-.84-2.44-.84-2.43-.86-2.41-.86-2.41-.88-2.39-.88-2.39-.9-2.37-.91-2.36-.92-2.35-.93-2.35-.94-2.33-.95-2.32-.97-2.31-.97-2.3-.98-2.28-1-2.28-1.01-2.27-1.01-2.26-1.03-2.24-1.04-2.24-1.05-2.22-1.06-2.22-1.07-2.2-1.08-2.19-1.1-2.18-1.1-2.18-1.11-2.16-1.13-2.15-1.14-2.14-1.14-2.12-1.16-2.12-1.17-2.11-1.18-2.1-1.19-2.08-1.2-2.08-1.22-2.06-1.22-2.06-1.23-2.04-1.25-2.04-1.25-2.02-1.27-2.01-1.28-2-1.29-1.99-1.3-1.98-1.31-1.97-1.32-1.96-1.33-1.95-1.34-1.94-1.35-1.92-1.37-1.92-1.37-1.9-1.39-1.9-1.4-1.88-1.4-1.88-1.42-1.86-1.43-1.85-1.44-1.85-1.45-1.83-1.47-1.82-1.47-1.81-1.48-1.8-1.5-1.78-1.5-1.78-1.52-1.77-1.53-1.76-1.53-1.74-1.55-1.74-1.56-1.72-1.57-1.72-1.58-1.7-1.6-1.69-1.6-1.69-1.61-1.67-1.63-1.66-1.63-1.65-1.65-1.64-1.66-1.63-1.66-1.62-1.68-1.6-1.69-1.6-1.7-1.59-1.72-1.57-1.72-1.57-1.73-1.55-1.74-1.55-1.76-1.53-1.77-1.52-1.77"/><path style="stroke-width:1.07;stroke:#000;stroke-opacity:.1;stroke-linecap:butt" d="m239.76 140.95 1.13 1.86 1.13 1.86 1.12 1.86 1.1 1.87 1.11 1.87 1.09 1.87 1.08 1.87 1.08 1.87 1.07 1.88 1.05 1.87 1.06 1.88 1.04 1.88 1.03 1.89 1.03 1.88 1.01 1.89 1.01 1.89 1 1.89 1 1.89.98 1.9.98 1.89.96 1.9.96 1.9.95 1.9.95 1.91.93 1.9.92 1.91.92 1.91.91 1.91.9 1.92.89 1.91.89 1.92.87 1.92.87 1.92.86 1.92.85 1.93.84 1.93.84 1.93.82 1.93.82 1.93.81 1.94.8 1.93.79 1.94.78 1.94.78 1.94.76 1.95.76 1.95.75 1.94.75 1.96.73 1.95.72 1.95.72 1.96.71 1.96.7 1.96.69 1.96.69 1.96.67 1.97.67 1.97.66 1.96.65 1.98.64 1.97.63 1.98.63 1.97.61 1.98.61 1.98.6 1.99.59 1.98.59 1.99.57 1.99.57 1.99.56 1.99.55 2 .54 1.99.53 2 .53 2 .51 2 .51 2.01.5 2 .49 2.01.49 2.01.47 2.01.47 2.02.46 2.01.45 2.02.44 2.02.43 2.02.42 2.03.42 2.02.41 2.03.4 2.03.39 2.03.38 2.03.38 2.04.36 2.04.36 2.03.35 2.05.34 2.04.34 2.04.32 2.05.32 2.05"/><path style="stroke-width:1.07;stroke:#000;stroke-opacity:.1;stroke-linecap:butt" d="m225.39 524.21.87-1.92.87-1.91.87-1.92.88-1.92.87-1.92.87-1.91.87-1.92.87-1.92.87-1.91.87-1.92.87-1.92.87-1.92.87-1.91.87-1.92.87-1.92.87-1.91.87-1.92.87-1.92.87-1.92.87-1.91.87-1.92.87-1.92.87-1.91.87-1.92.87-1.92.87-1.91.87-1.92.87-1.92.87-1.92.87-1.91.87-1.92.87-1.92.87-1.91.88-1.92.87-1.92.87-1.92.87-1.91.87-1.92.87-1.92.87-1.91.87-1.92.87-1.92.87-1.92.87-1.91.87-1.92.87-1.92.87-1.91.87-1.92.87-1.92.87-1.91.87-1.92.87-1.92.87-1.92.87-1.91.87-1.92.87-1.92.87-1.91.87-1.92.87-1.92.87-1.92.87-1.91.87-1.92.88-1.92.87-1.91.87-1.92.87-1.92.87-1.92.87-1.91.87-1.92.87-1.92.87-1.91.87-1.92.87-1.92.87-1.91.87-1.92.87-1.92.87-1.92.87-1.91.87-1.92.87-1.92.87-1.91.87-1.92.87-1.92.87-1.92.87-1.91.87-1.92.87-1.92.87-1.91.87-1.92.87-1.92.87-1.92.87-1.91.88-1.92.87-1.92.87-1.91.87-1.92.87-1.92.87-1.91.87-1.92"/><path style="stroke-width:.71;stroke:none;fill:#00bfc4" d="m513.89 451.02 5.76 9.97h-11.51zM522.77 218.59l1.92 3.31h-3.83zM239.76 135.6l4.63 8.02h-9.26zM55.97 326.25l1.91 3.32h-3.83zM225.39 522l1.92 3.31h-3.83z"/><circle cx="311.56" cy="334.42" r="6.76" style="stroke-width:.71;stroke:none;fill:#f8766d"/><path style="stroke-width:.53;stroke:#bfbfbf" d="m516.8 452.95-2.33 3.78M244.52 137.7l-3.78 2.58M60.82 327.67l-3.6.59M230.73 519.61l-4.46 3.84M306.21 339.03l4.47-3.85"/><path style="stroke-width:.53;fill:#fff;fill-opacity:.5" d="M494.19 452.95h46.15-.09l.35-.02.34-.07.33-.12.3-.17.27-.22.23-.26.18-.3.14-.32.08-.34.03-.34v-6.96l-.03-.35-.08-.34-.14-.32-.18-.29-.23-.26-.27-.22-.3-.18-.33-.12-.34-.07-.26-.01h-46.15l.26.01-.35-.01-.34.04-.34.1-.31.14-.29.2-.25.24-.21.28-.16.31-.11.33-.06.34v7.14-.18.35l.06.34.11.33.16.31.21.28.25.24.29.2.31.15.34.09.34.05z"/><text x="517.26" y="449.35" text-anchor="middle" style="font-size:5.69px;font-family:&quot;Arial&quot;" textLength="43.27" lengthAdjust="spacingAndGlyphs">LUIS MERCADO</text><path style="stroke-width:.53;fill:#fff;fill-opacity:.5" d="M443.83 226.6h72.05-.09l.35-.02.34-.07.32-.12.3-.17.27-.22.23-.26.19-.3.13-.32.09-.33.03-.35v-6.96l-.03-.35-.09-.34-.13-.32-.19-.29-.23-.26-.27-.22-.3-.17-.32-.13-.34-.07-.26-.01h-72.05l.26.01-.35-.01-.35.04-.33.1-.31.15-.29.19-.25.24-.21.28-.16.31-.11.33-.06.34v7.14-.17.34l.06.35.11.33.16.3.21.28.25.24.29.2.31.15.33.1.35.04z"/><text x="479.85" y="223" text-anchor="middle" style="font-size:5.69px;font-family:&quot;Arial&quot;" textLength="69.17" lengthAdjust="spacingAndGlyphs">J LUIS MERCADO HORTA</text><path style="stroke-width:.53;fill:#fff;fill-opacity:.5" d="M246.68 144.87h62.58-.08l.34-.01.34-.07.33-.13.3-.17.27-.22.23-.26.19-.29.13-.32.09-.34.02-.35v-15.15l-.02-.35-.09-.34-.13-.32-.19-.29-.23-.26-.27-.22-.3-.18-.33-.12-.34-.07-.26-.01h-62.58l.26.01-.35-.01-.34.04-.34.1-.31.14-.29.2-.25.24-.2.28-.17.31-.11.33-.05.34-.01.18v15.15l.01-.17v.35l.05.34.11.33.17.31.2.27.25.25.29.19.31.15.34.1.34.04z"/><text x="277.97" y="133.08" text-anchor="middle" style="font-size:5.69px;font-family:&quot;Arial&quot;" textLength="59.7" lengthAdjust="spacingAndGlyphs">JOSE LUIS MERCADO</text><text x="277.97" y="141.27" text-anchor="middle" style="font-size:5.69px;font-family:&quot;Arial&quot;" textLength="19.9" lengthAdjust="spacingAndGlyphs">HORTA</text><path style="stroke-width:.53;fill:#fff;fill-opacity:.5" d="M62.98 333.3h62.59-.09l.35-.02.34-.07.32-.12.3-.17.27-.22.23-.26.19-.3.13-.32.09-.33.03-.35v-6.96l-.03-.35-.09-.34-.13-.32-.19-.29-.23-.26-.27-.22-.3-.17-.32-.13-.34-.07-.26-.01H62.98l.26.01-.34-.01-.35.04-.33.1-.32.15-.28.19-.25.24-.21.28-.16.31-.11.33-.06.34-.01.18v6.96l.01-.17v.34l.06.35.11.33.16.3.21.28.25.24.28.2.32.15.33.1.35.04z"/><text x="94.27" y="329.7" text-anchor="middle" style="font-size:5.69px;font-family:&quot;Arial&quot;" textLength="59.7" lengthAdjust="spacingAndGlyphs">JOSE LUIS MERCADO</text><path style="stroke-width:.53;fill:#fff;fill-opacity:.5" d="M215.96 519.61h53.74l-.09-.01.35-.01.34-.07.32-.12.3-.18.27-.22.23-.26.19-.29.13-.32.09-.34.03-.34v-15.16l-.03-.35-.09-.34-.13-.32-.19-.29-.23-.26-.27-.22-.3-.17-.32-.13-.34-.07-.26-.01h-53.74l.26.01-.34-.01-.35.04-.33.1-.32.15-.28.2-.25.24-.21.27-.17.31-.11.33-.05.34-.01.18v15.16l.01-.18v.35l.05.34.11.33.17.31.21.28.25.24.28.2.32.15.33.09.35.04z"/><text x="242.83" y="507.81" text-anchor="middle" style="font-size:5.69px;font-family:&quot;Arial&quot;" textLength="29.07" lengthAdjust="spacingAndGlyphs">JOSE LUIS</text><text x="242.83" y="516.01" text-anchor="middle" style="font-size:5.69px;font-family:&quot;Arial&quot;" textLength="50.85" lengthAdjust="spacingAndGlyphs">MERCADO-HORTA</text><path style="stroke-width:.53;fill:#fff;fill-opacity:.5" d="M261.82 358.51h64.49-.08l.34-.02.34-.07.33-.12.3-.17.27-.22.23-.26.19-.3.13-.32.09-.33.02-.35v-15.16l-.02-.34-.09-.34-.13-.32-.19-.29-.23-.27-.27-.21-.3-.18-.33-.12-.34-.07-.26-.02h-64.49l.26.02-.34-.02-.35.05-.33.09-.32.15-.28.2-.25.24-.21.28-.16.31-.11.33-.06.34-.01.17v15.16l.01-.17v.34l.06.35.11.33.16.3.21.28.25.24.28.2.32.15.33.1.35.04z"/><text x="294.07" y="346.72" text-anchor="middle" style="font-size:5.69px;font-family:&quot;Arial&quot;" textLength="49.6" lengthAdjust="spacingAndGlyphs">622 W PIERCE ST,</text><text x="294.07" y="354.91" text-anchor="middle" style="font-size:5.69px;font-family:&quot;Arial&quot;" textLength="61.61" lengthAdjust="spacingAndGlyphs">MILWAUKEE, WI 53204</text></g><g clip-path="url(#cpMC4wMHw1NzYuMDB8MC4wMHw1NzYuMDA=)"><circle cx="231.34" cy="96.71" r="1.95" style="stroke-width:.71;stroke:none;fill:#f8766d"/><path style="stroke-width:.71;stroke:none;fill:#00bfc4" d="m307.7 93.67 2.63 4.56h-5.26z"/><text x="245.46" y="99.86" style="font-size:8.8px;font-family:&quot;Arial Narrow&quot;" textLength="48.12" lengthAdjust="spacingAndGlyphs">mprop address</text><text x="321.82" y="99.86" style="font-size:8.8px;font-family:&quot;Arial Narrow&quot;" textLength="39.69" lengthAdjust="spacingAndGlyphs">owner name</text><text x="32.63" y="65.12" style="font-size:12px;font-family:&quot;Arial Narrow&quot;" textLength="246.76" lengthAdjust="spacingAndGlyphs">includes 8 parcels, 15 units, and 5 distinct owner names.</text><text x="32.63" y="42.78" style="font-size:18px;font-weight:700;font-family:&quot;Arial Narrow&quot;" textLength="162.34" lengthAdjust="spacingAndGlyphs">LUIS MERCADO Group</text></g></svg>