<svg xmlns="http://www.w3.org/2000/svg" class="svglite" width="768" height="768" viewBox="0 0 576 576"><defs><style>.svglite circle,.svglite line,.svglite polygon,.svglite polyline,.svglite rect{fill:none;stroke:#000;stroke-linecap:round;stroke-linejoin:round;stroke-miterlimit:10}.svglite text{white-space:pre}</style></defs><rect width="100%" height="100%" style="stroke:none;fill:#fff"/><defs><clipPath id="cpMC4wMHw1NzYuMDB8MC4wMHw1NzYuMDA="><path d="M0 0h576v576H0z"/></clipPath></defs><g clip-path="url(#cpMC4wMHw1NzYuMDB8MC4wMHw1NzYuMDA=)"><path style="stroke-width:1.07;stroke:none;fill:#fff" d="M0 0h576v576H0z"/></g><defs><clipPath id="cpMzIuNjN8NTQ2LjExfDEyMS43OHw1NDMuMzc="><path d="M32.63 121.78h513.48v421.59H32.63z"/></clipPath></defs><g clip-path="url(#cpMzIuNjN8NTQ2LjExfDEyMS43OHw1NDMuMzc=)"><path style="stroke-width:1.07;stroke:#000;stroke-opacity:.1;stroke-linecap:butt" d="m191.8 339.15-1.37.32-1.38.32-1.37.33-1.37.32-1.37.32-1.37.32-1.38.32-1.37.32-1.37.32-1.37.32-1.37.32-1.38.32-1.37.32-1.37.32-1.37.32-1.37.32-1.38.32-1.37.32-1.37.32-1.37.32-1.37.32-1.38.33-1.37.32-1.37.32-1.37.32-1.37.32-1.38.32-1.37.32-1.37.32-1.37.32-1.37.32-1.38.32-1.37.32-1.37.32-1.37.32-1.37.32-1.38.32-1.37.32-1.37.32-1.37.32-1.37.32-1.38.33-1.37.32-1.37.32-1.37.32-1.37.32-1.38.32-1.37.32-1.37.32-1.37.32-1.37.32-1.38.32-1.37.32-1.37.32-1.37.32-1.37.32-1.38.32-1.37.32-1.37.32-1.37.32-1.37.33-1.38.32-1.37.32-1.37.32-1.37.32-1.38.32-1.37.32-1.37.32-1.37.32-1.37.32-1.38.32-1.37.32-1.37.32-1.37.32-1.37.32-1.38.32-1.37.32-1.37.32-1.37.32-1.37.33-1.38.32-1.37.32-1.37.32-1.37.32-1.37.32-1.38.32-1.37.32-1.37.32-1.37.32-1.37.32-1.38.32-1.37.32-1.37.32-1.37.32-1.37.32-1.38.32-1.37.32-1.37.32-1.37.32M428.38 416.86l-.95-1.24-.94-1.25-.94-1.24-.94-1.24-.94-1.24-.94-1.24-.95-1.24-.94-1.25-.94-1.24-.94-1.24-.94-1.24-.95-1.24-.94-1.25-.94-1.24-.94-1.24-.94-1.24-.94-1.24-.95-1.24-.94-1.25-.94-1.24-.94-1.24-.94-1.24-.94-1.24-.95-1.25-.94-1.24-.94-1.24-.94-1.24-.94-1.24-.95-1.24-.94-1.25-.94-1.24-.94-1.24-.94-1.24-.94-1.24-.95-1.25-.94-1.24-.94-1.24-.94-1.24-.94-1.24-.95-1.24-.94-1.25-.94-1.24-.94-1.24-.94-1.24-.94-1.24-.95-1.25-.94-1.24-.94-1.24-.94-1.24-.94-1.24-.94-1.25-.95-1.24-.94-1.24-.94-1.24-.94-1.24-.94-1.24-.95-1.25-.94-1.24-.94-1.24-.94-1.24-.94-1.24-.94-1.25-.95-1.24-.94-1.24-.94-1.24-.94-1.24-.94-1.24-.94-1.25-.95-1.24-.94-1.24-.94-1.24-.94-1.24-.94-1.25-.95-1.24-.94-1.24-.94-1.24-.94-1.24-.94-1.24-.94-1.25-.95-1.24-.94-1.24-.94-1.24-.94-1.24-.94-1.25-.95-1.24-.94-1.24-.94-1.24-.94-1.24-.94-1.25-.94-1.24-.95-1.24-.94-1.24-.94-1.24-.94-1.24-.94-1.25-.94-1.24-.95-1.24-.94-1.24-.94-1.24M431.86 178.19l-.97 1.17-.98 1.17-.98 1.17-.97 1.17-.98 1.17-.98 1.17-.98 1.17-.97 1.17-.98 1.16-.98 1.17-.97 1.17-.98 1.17-.98 1.17-.97 1.17-.98 1.17-.98 1.17-.98 1.17-.97 1.16-.98 1.17-.98 1.17-.97 1.17-.98 1.17-.98 1.17-.97 1.17-.98 1.17-.98 1.17-.98 1.16-.97 1.17-.98 1.17-.98 1.17-.97 1.17-.98 1.17-.98 1.17-.97 1.17-.98 1.17-.98 1.16-.98 1.17-.97 1.17-.98 1.17-.98 1.17-.97 1.17-.98 1.17-.98 1.17-.97 1.17-.98 1.17-.98 1.16-.98 1.17-.97 1.17-.98 1.17-.98 1.17-.97 1.17-.98 1.17-.98 1.17-.97 1.17-.98 1.16-.98 1.17-.98 1.17-.97 1.17-.98 1.17-.98 1.17-.97 1.17-.98 1.17-.98 1.17-.97 1.16-.98 1.17-.98 1.17-.98 1.17-.97 1.17-.98 1.17-.98 1.17-.97 1.17-.98 1.17-.98 1.16-.98 1.17-.97 1.17-.98 1.17-.98 1.17-.97 1.17-.98 1.17-.98 1.17-.97 1.17-.98 1.16-.98 1.17-.98 1.17-.97 1.17-.98 1.17-.98 1.17-.97 1.17-.98 1.17-.98 1.17-.97 1.17-.98 1.16-.98 1.17-.98 1.17-.97 1.17-.98 1.17-.98 1.17-.97 1.17-.98 1.17M431.86 178.19l-1.14-.37-1.15-.38-1.14-.37-1.15-.38-1.14-.38-1.15-.37-1.14-.38-1.15-.38-1.15-.37-1.14-.38-1.15-.37-1.14-.38-1.15-.38-1.14-.37-1.15-.38-1.14-.38-1.15-.37-1.14-.38-1.15-.37-1.15-.38-1.14-.38-1.15-.37-1.14-.38-1.15-.38-1.14-.37-1.15-.38-1.14-.37-1.15-.38-1.14-.38-1.15-.37-1.15-.38-1.14-.38-1.15-.37-1.14-.38-1.15-.37-1.14-.38-1.15-.38-1.14-.37-1.15-.38-1.14-.38-1.15-.37-1.14-.38-1.15-.37-1.15-.38-1.14-.38-1.15-.37-1.14-.38-1.15-.38-1.14-.37-1.15-.38-1.14-.37-1.15-.38-1.14-.38-1.15-.37-1.15-.38-1.14-.37-1.15-.38-1.14-.38-1.15-.37-1.14-.38-1.15-.38-1.14-.37-1.15-.38-1.14-.37-1.15-.38-1.15-.38-1.14-.37-1.15-.38-1.14-.38-1.15-.37-1.14-.38-1.15-.37-1.14-.38-1.15-.38-1.14-.37-1.15-.38-1.15-.38-1.14-.37-1.15-.38-1.14-.37-1.15-.38-1.14-.38-1.15-.37-1.14-.38-1.15-.38-1.14-.37-1.15-.38-1.15-.37-1.14-.38-1.15-.38-1.14-.37-1.15-.38-1.14-.38-1.15-.37-1.14-.38-1.15-.37-1.14-.38-1.15-.38-1.14-.37M428.38 416.86l.95 1.08.95 1.09.96 1.08.95 1.09.95 1.08.96 1.08.95 1.09.95 1.08.96 1.09.95 1.08.95 1.09.96 1.08.95 1.09.96 1.08.95 1.08.95 1.09.96 1.08.95 1.09.95 1.08.96 1.09.95 1.08.95 1.08.96 1.09.95 1.08.95 1.09.96 1.08.95 1.09.95 1.08.96 1.08.95 1.09.95 1.08.96 1.09.95 1.08.95 1.09.96 1.08.95 1.09.96 1.08.95 1.08.95 1.09.96 1.08.95 1.09.95 1.08.96 1.09.95 1.08.95 1.08.96 1.09.95 1.08.95 1.09.96 1.08.95 1.09.95 1.08.96 1.08.95 1.09.95 1.08.96 1.09.95 1.08.96 1.09.95 1.08.95 1.09.96 1.08.95 1.08.95 1.09.96 1.08.95 1.09.95 1.08.96 1.09.95 1.08.95 1.08.96 1.09.95 1.08.95 1.09.96 1.08.95 1.09.95 1.08.96 1.08.95 1.09.96 1.08.95 1.09.95 1.08.96 1.09.95 1.08.95 1.09.96 1.08.95 1.08.95 1.09.96 1.08.95 1.09.95 1.08.96 1.09.95 1.08.95 1.08.96 1.09.95 1.08.95 1.09.96 1.08.95 1.09.95 1.08.96 1.08.95 1.09M191.8 339.15l1.45-.45 1.44-.46 1.45-.46 1.45-.45 1.45-.46 1.45-.46 1.44-.45 1.45-.46 1.45-.46 1.45-.46 1.45-.45 1.44-.46 1.45-.46 1.45-.45 1.45-.46 1.45-.46 1.44-.45 1.45-.46 1.45-.46 1.45-.46 1.44-.45 1.45-.46 1.45-.46 1.45-.45 1.45-.46 1.44-.46 1.45-.45 1.45-.46 1.45-.46 1.45-.45 1.44-.46 1.45-.46 1.45-.46 1.45-.45 1.45-.46 1.44-.46 1.45-.45 1.45-.46 1.45-.46 1.44-.45 1.45-.46 1.45-.46 1.45-.45 1.45-.46 1.44-.46 1.45-.46 1.45-.45 1.45-.46 1.45-.46 1.44-.45 1.45-.46 1.45-.46 1.45-.45 1.44-.46 1.45-.46 1.45-.46 1.45-.45 1.45-.46 1.44-.46 1.45-.45 1.45-.46 1.45-.46 1.45-.45 1.44-.46 1.45-.46 1.45-.45 1.45-.46 1.45-.46 1.44-.46 1.45-.45 1.45-.46 1.45-.46 1.44-.45 1.45-.46 1.45-.46 1.45-.45 1.45-.46 1.44-.46 1.45-.45 1.45-.46 1.45-.46 1.45-.46 1.44-.45 1.45-.46 1.45-.46 1.45-.45 1.45-.46 1.44-.46 1.45-.45 1.45-.46 1.45-.46 1.44-.45 1.45-.46 1.45-.46 1.45-.46 1.45-.45 1.44-.46 1.45-.46 1.45-.45"/><path style="stroke-width:1.07;stroke:#000;stroke-opacity:.1;stroke-linecap:butt" d="m318.47 140.95-.32 1.6-.31 1.6-.3 1.6-.28 1.6-.28 1.6-.27 1.6-.26 1.6-.24 1.59-.24 1.6-.23 1.59-.22 1.59-.21 1.59-.19 1.59-.19 1.59-.18 1.58-.17 1.59-.16 1.58-.15 1.59-.14 1.58-.12 1.58-.12 1.58-.11 1.58-.1 1.58-.09 1.57-.08 1.58-.07 1.57-.06 1.57-.05 1.58-.04 1.57-.03 1.56-.02 1.57-.01 1.57v1.56l.01 1.57.02 1.56.03 1.56.04 1.56.05 1.56.06 1.56.07 1.56.08 1.55.09 1.56.1 1.55.11 1.55.11 1.56.13 1.55.14 1.54.15 1.55.16 1.55.17 1.54.18 1.55.18 1.54.2 1.54.21 1.54.22 1.54.23 1.54.23 1.54.25 1.53.26 1.54.27 1.53.27 1.53.29 1.53.3 1.53.31 1.53.31 1.53.33 1.52.34 1.53.34 1.52.36 1.52.37 1.53.37 1.52.39 1.52.4 1.51.4 1.52.42 1.51.42 1.52.44 1.51.45 1.51.45 1.51.47 1.51.47 1.51.49 1.51.49 1.51.51 1.5.52 1.5.52 1.51.54 1.5.54 1.5.56 1.5.56 1.49.58 1.5.58 1.49.59 1.5.61 1.49.61 1.49.63 1.49.63 1.49.65 1.49.65 1.49"/><path style="stroke-width:1.07;stroke:#000;stroke-opacity:.1;stroke-linecap:butt" d="m318.47 140.95.16 1.54.17 1.55.17 1.54.17 1.55.17 1.54.17 1.55.16 1.54.17 1.55.17 1.54.17 1.55.17 1.54.17 1.55.16 1.54.17 1.55.17 1.54.17 1.55.17 1.54.17 1.55.17 1.55.16 1.54.17 1.55.17 1.54.17 1.55.17 1.54.17 1.55.16 1.54.17 1.55.17 1.54.17 1.55.17 1.54.17 1.55.16 1.54.17 1.55.17 1.54.17 1.55.17 1.54.17 1.55.17 1.54.16 1.55.17 1.54.17 1.55.17 1.54.17 1.55.17 1.54.16 1.55.17 1.54.17 1.55.17 1.54.17 1.55.17 1.54.17 1.55.16 1.54.17 1.55.17 1.55.17 1.54.17 1.55.17 1.54.16 1.55.17 1.54.17 1.55.17 1.54.17 1.55.17 1.54.16 1.55.17 1.54.17 1.55.17 1.54.17 1.55.17 1.54.17 1.55.16 1.54.17 1.55.17 1.54.17 1.55.17 1.54.17 1.55.16 1.54.17 1.55.17 1.54.17 1.55.17 1.54.17 1.55.16 1.54.17 1.55.17 1.54.17 1.55.17 1.54.17 1.55.17 1.55.16 1.54.17 1.55.17 1.54.17 1.55.17 1.54.17 1.55.16 1.54.17 1.55.17 1.54.17 1.55"/><path style="stroke-width:1.07;stroke:#000;stroke-opacity:.1;stroke-linecap:butt" d="m318.47 140.95.65 1.48.64 1.49.64 1.49.62 1.49.62 1.49.6 1.5.59 1.49.59 1.5.57 1.49.57 1.5.55 1.5.55 1.5.53 1.5.53 1.5.51 1.5.51 1.51.5 1.5.48 1.51.48 1.51.46 1.51.46 1.51.44 1.51.44 1.51.43 1.52.41 1.51.41 1.52.39 1.52.39 1.52.38 1.52.36 1.52.36 1.52.35 1.53.33 1.52.33 1.53.32 1.52.31 1.53.29 1.53.29 1.53.28 1.53.27 1.54.25 1.53.25 1.54.24 1.53.23 1.54.21 1.54.21 1.54.2 1.54.19 1.55.18 1.54.17 1.55.15 1.54.15 1.55.14 1.55.13 1.55.12 1.55.11 1.55.1 1.56.09 1.55.08 1.56.07 1.55.05 1.56.05 1.56.04 1.56.03 1.56.02 1.57.01 1.56v1.57l-.01 1.56-.02 1.57-.03 1.57-.04 1.57-.05 1.57-.06 1.57-.06 1.58-.08 1.57-.09 1.58-.1 1.57-.11 1.58-.12 1.58-.13 1.58-.14 1.59-.15 1.58-.16 1.58-.16 1.59-.18 1.59-.19 1.58-.2 1.59-.21 1.59-.21 1.6-.23 1.59-.24 1.59-.25 1.6-.26 1.59-.26 1.6-.28 1.6-.29 1.6-.3 1.6-.3 1.6-.32 1.61"/><path style="stroke-width:.71;stroke:none;fill:#00ba38" d="m191.8 331.08 6.99 12.11H184.8zM428.38 408.78l6.99 12.12h-13.99zM431.86 175.98l1.92 3.32h-3.83z"/><path style="stroke-width:.71;stroke:none;fill:#619cff" d="M317.04 142.37h2.85v-2.84h-2.85z"/><circle cx="55.97" cy="370.88" r="1.42" style="stroke-width:.71;stroke:none;fill:#f8766d"/><circle cx="335.14" cy="293.92" r="6.76" style="stroke-width:.71;stroke:none;fill:#f8766d"/><circle cx="522.77" cy="524.21" r="1.42" style="stroke-width:.71;stroke:none;fill:#f8766d"/><path style="stroke-width:.53;stroke:#bfbfbf" d="m197.18 334.51-4.5 3.89M423.21 421.51l4.31-3.88M437.02 173.55l-4.3 3.87M323.33 139.36l-3.68 1.2M60.85 370.73l-3.61.12M329.68 298.54l4.57-3.87M517.92 523.51l3.6.52"/><path style="stroke-width:.53;fill:#fff;fill-opacity:.5" d="M177.38 334.51h63.86-.09l.35-.02.34-.07.32-.12.3-.17.27-.22.23-.26.19-.3.14-.32.08-.34.03-.34v-15.16l-.03-.35-.08-.33-.14-.32-.19-.3-.23-.26-.27-.22-.3-.17-.32-.12-.34-.07-.26-.02h-63.86l.26.02-.35-.02-.34.05-.33.09-.32.15-.29.2-.25.24-.2.28-.17.3-.11.33-.05.35-.01.17v15.16l.01-.18v.35l.05.35.11.32.17.31.2.28.25.24.29.2.32.15.33.09.34.05z"/><text x="209.31" y="322.71" text-anchor="middle" style="font-size:5.69px;font-family:&quot;Arial&quot;" textLength="60.98" lengthAdjust="spacingAndGlyphs">NMILW INVESTMENTS</text><text x="209.31" y="330.91" text-anchor="middle" style="font-size:5.69px;font-family:&quot;Arial&quot;" textLength="10.43" lengthAdjust="spacingAndGlyphs">LLC</text><path style="stroke-width:.53;fill:#fff;fill-opacity:.5" d="M379.01 432.79h73.65-.08l.34-.01.34-.07.33-.13.3-.17.27-.22.23-.26.19-.3.13-.31.09-.34.02-.35v-6.96l-.02-.35-.09-.34-.13-.32-.19-.29-.23-.26-.27-.22-.3-.17-.33-.13-.34-.07-.26-.01h-73.65l.26.01-.34-.01-.35.04-.33.1-.32.15-.28.2-.25.24-.21.27-.16.31-.11.33-.06.34-.01.18v6.96l.01-.17v.34l.06.35.11.33.16.31.21.27.25.24.28.2.32.15.33.1.35.04z"/><text x="415.84" y="429.19" text-anchor="middle" style="font-size:5.69px;font-family:&quot;Arial&quot;" textLength="70.77" lengthAdjust="spacingAndGlyphs">METRO PROPERTIES LLC</text><path style="stroke-width:.53;fill:#fff;fill-opacity:.5" d="M415.35 173.55h58.18-.09l.35-.02.34-.07.33-.12.3-.17.27-.22.23-.26.18-.3.14-.32.08-.33.03-.35v-6.96l-.03-.35-.08-.34-.14-.32-.18-.29-.23-.26-.27-.22-.3-.17-.33-.13-.34-.07-.26-.01h-58.18l.26.01-.34-.01-.35.04-.33.1-.32.15-.28.19-.25.25-.21.27-.16.31-.11.33-.06.34-.01.18v6.96l.01-.17v.34l.06.35.11.33.16.3.21.28.25.24.28.2.32.15.33.1.35.04z"/><text x="444.44" y="169.95" text-anchor="middle" style="font-size:5.69px;font-family:&quot;Arial&quot;" textLength="55.3" lengthAdjust="spacingAndGlyphs">AESR RENTALS LLC</text><path style="stroke-width:.53;fill:#fff;fill-opacity:.5" d="M325.49 153.06h61.65l-.09-.01.35-.01.34-.07.32-.12.3-.18.27-.22.23-.26.19-.29.14-.32.08-.34.03-.34v-23.36l-.03-.34-.08-.34-.14-.32-.19-.29-.23-.26-.27-.22-.3-.18-.32-.12-.34-.07-.26-.02h-61.65l.26.02-.35-.01-.34.04-.33.09-.32.15-.28.2-.26.24-.2.28-.17.31-.11.33-.05.34-.01.17v23.36l.01-.18v.35l.05.34.11.33.17.31.2.28.26.24.28.2.32.15.33.09.34.04z"/><text x="356.31" y="133.07" text-anchor="middle" style="font-size:5.69px;font-family:&quot;Arial&quot;" textLength="56.24" lengthAdjust="spacingAndGlyphs">7816 W BOTTSFORD</text><text x="356.31" y="141.26" text-anchor="middle" style="font-size:5.69px;font-family:&quot;Arial&quot;" textLength="58.77" lengthAdjust="spacingAndGlyphs">AVE, MILWAUKEE, WI</text><text x="356.31" y="149.46" text-anchor="middle" style="font-size:5.69px;font-family:&quot;Arial&quot;" textLength="15.8" lengthAdjust="spacingAndGlyphs">53220</text><path style="stroke-width:.53;fill:#fff;fill-opacity:.5" d="M63.01 384.57h65.75-.09l.35-.02.34-.07.33-.12.3-.17.27-.22.23-.26.18-.3.14-.32.08-.33.03-.35v-23.35l-.03-.35-.08-.34-.14-.32-.18-.29-.23-.26-.27-.22-.3-.17-.33-.13-.34-.07-.26-.01H63.01l.26.01-.35-.01-.34.04-.34.1-.31.15-.29.2-.25.24-.21.27-.16.31-.11.33-.05.34-.01.18v23.35l.01-.17v.34l.05.35.11.33.16.3.21.28.25.24.29.2.31.15.34.1.34.04z"/><text x="95.88" y="364.58" text-anchor="middle" style="font-size:5.69px;font-family:&quot;Arial&quot;" textLength="62.87" lengthAdjust="spacingAndGlyphs">7353 W FOREST HOME</text><text x="95.88" y="372.78" text-anchor="middle" style="font-size:5.69px;font-family:&quot;Arial&quot;" textLength="61.3" lengthAdjust="spacingAndGlyphs">AVE 288, MILWAUKEE,</text><text x="95.88" y="380.97" text-anchor="middle" style="font-size:5.69px;font-family:&quot;Arial&quot;" textLength="24.33" lengthAdjust="spacingAndGlyphs">WI 53220</text><path style="stroke-width:.53;fill:#fff;fill-opacity:.5" d="M281.86 326.21h61.64-.08l.34-.02.34-.07.33-.12.3-.18.27-.22.23-.26.19-.29.13-.32.09-.34.02-.34V300.7l-.02-.35-.09-.34-.13-.32-.19-.29-.23-.26-.27-.22-.3-.18-.33-.12-.34-.07-.26-.01h-61.64l.26.01-.35-.01-.34.04-.34.1-.31.15-.29.19-.25.24-.21.28-.16.31-.11.33-.06.34v23.53-.18.35l.06.34.11.33.16.31.21.28.25.24.29.2.31.15.34.09.34.05z"/><text x="312.68" y="306.22" text-anchor="middle" style="font-size:5.69px;font-family:&quot;Arial&quot;" textLength="56.24" lengthAdjust="spacingAndGlyphs">7816 W BOTTSFORD</text><text x="312.68" y="314.41" text-anchor="middle" style="font-size:5.69px;font-family:&quot;Arial&quot;" textLength="58.77" lengthAdjust="spacingAndGlyphs">AVE, MILWAUKEE, WI</text><text x="312.68" y="322.61" text-anchor="middle" style="font-size:5.69px;font-family:&quot;Arial&quot;" textLength="15.8" lengthAdjust="spacingAndGlyphs">53220</text><path style="stroke-width:.53;fill:#fff;fill-opacity:.5" d="M451.27 537.33h64.49-.08l.34-.01.34-.07.33-.13.3-.17.27-.22.23-.26.19-.3.13-.32.08-.33.03-.35v-23.35l-.03-.35-.08-.33-.13-.32-.19-.3-.23-.26-.27-.22-.3-.17-.33-.13-.34-.06-.26-.02h-64.49l.26.02-.34-.02-.35.04-.33.1-.32.15-.28.2-.25.24-.21.28-.17.3-.11.33-.05.35-.01.17v23.35l.01-.17v.34l.05.35.11.33.17.31.21.27.25.24.28.2.32.15.33.1.35.04z"/><text x="483.52" y="517.34" text-anchor="middle" style="font-size:5.69px;font-family:&quot;Arial&quot;" textLength="44.24" lengthAdjust="spacingAndGlyphs">7353 W FOREST</text><text x="483.52" y="525.54" text-anchor="middle" style="font-size:5.69px;font-family:&quot;Arial&quot;" textLength="50.55" lengthAdjust="spacingAndGlyphs">HOME AVE, STE 2,</text><text x="483.52" y="533.73" text-anchor="middle" style="font-size:5.69px;font-family:&quot;Arial&quot;" textLength="61.61" lengthAdjust="spacingAndGlyphs">MILWAUKEE, WI 53220</text></g><g clip-path="url(#cpMC4wMHw1NzYuMDB8MC4wMHw1NzYuMDA=)"><circle cx="196.98" cy="96.71" r="1.95" style="stroke-width:.71;stroke:none;fill:#f8766d"/><path style="stroke-width:.71;stroke:none;fill:#00ba38" d="m273.33 93.67 2.63 4.56h-5.26z"/><path style="stroke-width:.71;stroke:none;fill:#619cff" d="M339.31 98.66h3.91v-3.91h-3.91z"/><text x="211.09" y="99.86" style="font-size:8.8px;font-family:&quot;Arial Narrow&quot;" textLength="48.12" lengthAdjust="spacingAndGlyphs">mprop address</text><text x="287.45" y="99.86" style="font-size:8.8px;font-family:&quot;Arial Narrow&quot;" textLength="39.69" lengthAdjust="spacingAndGlyphs">owner name</text><text x="355.38" y="99.86" style="font-size:8.8px;font-family:&quot;Arial Narrow&quot;" textLength="40.5" lengthAdjust="spacingAndGlyphs">wdfi address</text><text x="32.63" y="65.12" style="font-size:12px;font-family:&quot;Arial Narrow&quot;" textLength="246.76" lengthAdjust="spacingAndGlyphs">includes 5 parcels, 12 units, and 3 distinct owner names.</text><text x="32.63" y="42.78" style="font-size:18px;font-weight:700;font-family:&quot;Arial Narrow&quot;" textLength="233.68" lengthAdjust="spacingAndGlyphs">METRO PROPERTIES LLC Group</text></g></svg>