<svg xmlns="http://www.w3.org/2000/svg" class="svglite" width="768" height="768" viewBox="0 0 576 576"><defs><style>.svglite circle,.svglite line,.svglite polygon,.svglite polyline,.svglite rect{fill:none;stroke:#000;stroke-linecap:round;stroke-linejoin:round;stroke-miterlimit:10}.svglite text{white-space:pre}</style></defs><rect width="100%" height="100%" style="stroke:none;fill:#fff"/><defs><clipPath id="cpMC4wMHw1NzYuMDB8MC4wMHw1NzYuMDA="><path d="M0 0h576v576H0z"/></clipPath></defs><g clip-path="url(#cpMC4wMHw1NzYuMDB8MC4wMHw1NzYuMDA=)"><path style="stroke-width:1.07;stroke:none;fill:#fff" d="M0 0h576v576H0z"/></g><defs><clipPath id="cpMzIuNjN8NTQ2LjExfDEyMC44Nnw1NDMuMzc="><path d="M32.63 120.86h513.48v422.51H32.63z"/></clipPath></defs><g clip-path="url(#cpMzIuNjN8NTQ2LjExfDEyMC44Nnw1NDMuMzc=)"><path style="stroke-width:1.07;stroke:#000;stroke-opacity:.1;stroke-linecap:butt" d="m179.7 304.36.1-.95.1-.96.1-.95.1-.95.1-.95.1-.96.1-.95.1-.95.1-.95.1-.96.1-.95.1-.95.1-.95.1-.95.11-.96.1-.95.1-.95.1-.95.1-.96.1-.95.1-.95.1-.95.1-.96.1-.95.1-.95.1-.95.1-.96.1-.95.1-.95.1-.95.1-.96.1-.95.1-.95.1-.95.1-.96.1-.95.11-.95.1-.95.1-.96.1-.95.1-.95.1-.95.1-.96.1-.95.1-.95.1-.95.1-.96.1-.95.1-.95.1-.95.1-.95.1-.96.1-.95.1-.95.1-.95.1-.96.1-.95.1-.95.1-.95.11-.96.1-.95.1-.95.1-.95.1-.96.1-.95.1-.95.1-.95.1-.96.1-.95.1-.95.1-.95.1-.96.1-.95.1-.95.1-.95.1-.96.1-.95.1-.95.1-.95.1-.96.1-.95.11-.95.1-.95.1-.96.1-.95.1-.95.1-.95.1-.95.1-.96.1-.95.1-.95.1-.95.1-.96.1-.95.1-.95.1-.95.1-.96.1-.95.1-.95M179.7 304.36l-.93-.64-.93-.63-.93-.63-.94-.61-.94-.61-.95-.61-.95-.59-.95-.59-.95-.59-.96-.57-.96-.57-.97-.56-.97-.56-.97-.55-.98-.54-.98-.53-.98-.53-.99-.52-.99-.51-.99-.51-1-.5-1-.49-1.01-.48-1.01-.48-1.01-.47-1.01-.47-1.02-.45-1.02-.45-1.03-.45-1.03-.43-1.03-.43-1.04-.43-1.04-.41-1.04-.41-1.05-.4-1.05-.4-1.05-.38-1.06-.38-1.06-.38-1.06-.37-1.07-.35-1.07-.36-1.08-.34-1.08-.34-1.08-.33-1.08-.33-1.09-.32-1.1-.31-1.09-.3-1.1-.3-1.1-.29-1.11-.28-1.11-.28-1.11-.27-1.12-.26-1.12-.26-1.13-.24-1.12-.25-1.13-.23-1.14-.23-1.14-.22-1.14-.21-1.14-.21-1.15-.2-1.16-.19-1.15-.19-1.16-.17-1.16-.18-1.17-.16-1.17-.16-1.17-.15-1.18-.14-1.18-.14-1.18-.13-1.19-.12-1.19-.12-1.2-.11-1.19-.1-1.21-.1-1.2-.08-1.21-.09-1.21-.07-1.22-.07-1.22-.06-1.22-.05-1.22-.05-1.23-.04-1.24-.03-1.23-.02-1.24-.02-1.25-.01-1.24-.01h-1.26l-1.25.01-1.26.02-1.26.02-1.26.03-1.27.04-1.27.05M310.71 442.1l-.19-.91-.19-.91-.19-.9-.19-.91-.19-.9-.19-.91-.19-.91-.19-.9-.19-.91-.19-.91-.19-.9-.19-.91-.19-.9-.2-.91-.19-.91-.19-.9-.19-.91-.19-.9-.19-.91-.19-.91-.19-.9-.19-.91-.19-.91-.19-.9-.19-.91-.19-.9-.19-.91-.19-.91-.19-.9-.19-.91-.2-.9-.19-.91-.19-.91-.19-.9-.19-.91-.19-.91-.19-.9-.19-.91-.19-.9-.19-.91-.19-.91-.19-.9-.19-.91-.19-.9-.19-.91-.19-.91-.19-.9-.2-.91-.19-.91-.19-.9-.19-.91-.19-.9-.19-.91-.19-.91-.19-.9-.19-.91-.19-.9-.19-.91-.19-.91-.19-.9-.19-.91-.19-.91-.19-.9-.19-.91-.2-.9-.19-.91-.19-.91-.19-.9-.19-.91-.19-.9-.19-.91-.19-.91-.19-.9-.19-.91-.19-.91-.19-.9-.19-.91-.19-.9-.19-.91-.19-.91-.19-.9-.2-.91-.19-.9-.19-.91-.19-.91-.19-.9-.19-.91-.19-.91-.19-.9-.19-.91-.19-.9-.19-.91-.19-.91-.19-.9-.19-.91-.19-.91-.19-.9-.19-.91-.2-.9M310.71 442.1l.21.83.21.82.2.83.21.83.21.83.2.83.21.83.21.83.2.83.21.83.21.83.2.82.21.83.21.83.2.83.21.83.21.83.2.83.21.83.21.83.2.83.21.82.2.83.21.83.21.83.2.83.21.83.21.83.2.83.21.83.21.83.2.82.21.83.21.83.2.83.21.83.21.83.2.83.21.83.21.83.2.83.21.82.21.83.2.83.21.83.21.83.2.83.21.83.21.83.2.83.21.83.21.82.2.83.21.83.21.83.2.83.21.83.21.83.2.83.21.83.21.83.2.82.21.83.21.83.2.83.21.83.21.83.2.83.21.83.21.83.2.83.21.82.21.83.2.83.21.83.21.83.2.83.21.83.21.83.2.83.21.83.21.82.2.83.21.83.21.83.2.83.21.83.21.83.2.83.21.83.21.83.2.82.21.83.21.83.2.83.21.83.21.83.2.83.21.83M258.52 140.07l-.76.67-.77.67-.76.67-.76.68-.76.67-.75.68-.76.67-.75.68-.76.67-.75.68-.75.68-.75.68-.74.68-.75.68-.74.68-.75.68-.74.69-.74.68-.74.68-.74.69-.73.68-.74.69-.73.69-.73.69-.73.69-.73.68-.73.69-.73.7-.72.69-.72.69-.73.69-.72.7-.72.69-.71.7-.72.69-.72.7-.71.7-.71.7-.71.69-.71.7-.71.7-.71.71-.7.7-.71.7-.7.7-.7.71-.7.7-.7.71-.7.7-.69.71-.7.71-.69.71-.69.71-.69.71-.69.71-.69.71-.69.71-.68.71-.68.72-.68.71-.69.72-.67.71-.68.72-.68.72-.67.72-.68.71-.67.72-.67.72-.67.73-.67.72-.66.72-.67.72-.66.73-.66.72-.66.73-.66.72-.66.73-.66.73-.65.73-.66.73-.65.73-.65.73-.65.73-.65.73-.65.73-.64.74-.65.73-.64.73-.64.74-.64.74-.64.73-.64.74-.63.74-.64.74-.63.74-.63.74-.63.74-.63.75-.63.74M179.7 304.36l-.59.78-.59.77-.59.78-.58.78-.58.78-.59.78-.58.78-.57.78-.58.79-.58.78-.57.78-.57.78-.57.79-.57.78-.57.79-.57.78-.56.79-.56.78-.56.79-.56.79-.56.79-.56.79-.55.79-.55.79-.56.79-.55.79-.54.79-.55.79-.55.79-.54.8-.54.79-.54.79-.54.8-.54.79-.54.8-.53.8-.53.79-.53.8-.53.8-.53.8-.53.8-.52.79-.52.8-.53.81-.52.8-.51.8-.52.8-.52.8-.51.81-.51.8-.51.8-.51.81-.51.81-.5.8-.51.81-.5.8-.5.81-.5.81-.5.81-.49.81-.5.81-.49.81-.49.81-.49.81-.49.81-.49.82-.48.81-.49.81-.48.82-.48.81-.48.82-.47.81-.48.82-.47.82-.47.81-.48.82-.46.82-.47.82-.47.82-.46.82-.47.82-.46.82-.46.82-.45.82-.46.83-.46.82-.45.82-.45.83-.45.82-.45.83-.45.82-.44.83-.45.83-.44.83-.44.82-.44.83-.43.83-.44.83-.44.83"/><path style="stroke-width:1.07;stroke:#000;stroke-opacity:.1;stroke-linecap:butt" d="m179.7 304.36-.99-.53-.98-.52-.99-.51-.99-.51-1-.51-.99-.5-1-.5-1-.49-1.01-.49-1-.48-1.01-.48-1.01-.47-1.01-.47-1.02-.46-1.02-.46-1.02-.46-1.02-.45-1.02-.44-1.03-.45-1.03-.43-1.03-.43-1.04-.43-1.03-.42-1.04-.42-1.04-.41-1.04-.41-1.05-.41-1.05-.4-1.05-.39-1.05-.39-1.06-.39-1.05-.38-1.06-.37-1.07-.37-1.06-.37-1.07-.36-1.07-.36-1.07-.35-1.07-.35-1.08-.35-1.07-.33-1.09-.34-1.08-.33-1.08-.32-1.09-.32-1.09-.32-1.09-.31-1.1-.31-1.1-.3-1.1-.3-1.1-.29-1.1-.29-1.11-.28-1.11-.28-1.11-.27-1.11-.27-1.12-.27-1.12-.26-1.12-.25-1.12-.25-1.13-.25-1.12-.24-1.13-.24-1.14-.23-1.13-.22-1.14-.23-1.14-.22-1.14-.21-1.14-.21-1.15-.2-1.15-.2-1.15-.2-1.15-.19-1.16-.18-1.16-.18-1.16-.18-1.16-.17-1.16-.17-1.17-.16-1.17-.16-1.17-.15-1.18-.15-1.17-.14-1.18-.14-1.19-.14-1.18-.13-1.19-.12-1.18-.12-1.2-.12-1.19-.11-1.19-.11-1.2-.1-1.2-.1-1.2-.09-1.21-.09-1.21-.08-1.21-.08-1.21-.08-1.21-.06M409.59 331.16l-1.19.22-1.19.21-1.19.22-1.19.21-1.19.22-1.19.21-1.19.22-1.19.21-1.19.21-1.19.22-1.19.21-1.19.22-1.19.21-1.18.22-1.19.21-1.19.21-1.19.22-1.19.21-1.19.22-1.19.21-1.19.22-1.19.21-1.19.22-1.19.21-1.19.21-1.19.22-1.19.21-1.18.22-1.19.21-1.19.22-1.19.21-1.19.21-1.19.22-1.19.21-1.19.22-1.19.21-1.19.22-1.19.21-1.19.21-1.19.22-1.19.21-1.18.22-1.19.21-1.19.22-1.19.21-1.19.22-1.19.21-1.19.21-1.19.22-1.19.21-1.19.22-1.19.21-1.19.22-1.19.21-1.19.21-1.19.22-1.18.21-1.19.22-1.19.21-1.19.22-1.19.21-1.19.22-1.19.21-1.19.21-1.19.22-1.19.21-1.19.22-1.19.21-1.19.22-1.19.21-1.18.21-1.19.22-1.19.21-1.19.22-1.19.21-1.19.22-1.19.21-1.19.21-1.19.22-1.19.21-1.19.22-1.19.21-1.19.22-1.19.21-1.18.22-1.19.21-1.19.21-1.19.22-1.19.21-1.19.22-1.19.21-1.19.22-1.19.21-1.19.21-1.19.22-1.19.21-1.19.22-1.19.21-1.19.22M409.59 331.16l1.14-.08 1.14-.08 1.15-.09 1.14-.08 1.14-.09 1.15-.08 1.14-.09 1.14-.08 1.15-.09 1.14-.08 1.14-.09 1.15-.08 1.14-.09 1.14-.08 1.15-.09 1.14-.08 1.14-.09 1.15-.08 1.14-.09 1.14-.08 1.14-.09 1.15-.08 1.14-.09 1.14-.08 1.15-.09 1.14-.08 1.14-.09 1.15-.08 1.14-.09 1.14-.08 1.15-.09 1.14-.08 1.14-.09 1.15-.08 1.14-.09 1.14-.08 1.15-.09 1.14-.08 1.14-.09 1.15-.08 1.14-.09 1.14-.08 1.15-.09 1.14-.08 1.14-.09 1.15-.08 1.14-.09 1.14-.08 1.15-.09 1.14-.08 1.14-.09 1.15-.08 1.14-.09 1.14-.08 1.15-.09 1.14-.08 1.14-.09 1.15-.08 1.14-.09 1.14-.08 1.15-.09 1.14-.08 1.14-.09 1.15-.08 1.14-.09 1.14-.08 1.15-.09 1.14-.08 1.14-.09 1.15-.08 1.14-.09 1.14-.08 1.15-.09 1.14-.08 1.14-.09 1.15-.08 1.14-.09 1.14-.08 1.15-.09 1.14-.08 1.14-.09 1.15-.08 1.14-.09 1.14-.08 1.15-.09 1.14-.08 1.14-.09 1.15-.08 1.14-.09 1.14-.08 1.15-.09 1.14-.08 1.14-.09 1.15-.08 1.14-.09 1.14-.08 1.15-.09 1.14-.08 1.14-.09M258.52 140.07l-.63.74-.63.74-.63.74-.63.75-.63.74-.63.74-.64.73-.64.74-.64.74-.64.74-.64.73-.64.74-.64.73-.65.73-.65.74-.65.73-.64.73-.66.73-.65.73-.65.73-.66.73-.65.73-.66.72-.66.73-.66.72-.67.73-.66.72-.66.73-.67.72-.67.72-.67.72-.67.72-.67.72-.67.72-.68.72-.67.72-.68.71-.68.72-.68.71-.68.72-.69.71-.68.71-.69.72-.68.71-.69.71-.69.71-.7.71-.69.71-.69.7-.7.71-.7.71-.69.7-.7.71-.7.7-.71.71-.7.7-.71.7-.7.7-.71.7-.71.7-.71.7-.72.7-.71.7-.71.69-.72.7-.72.69-.72.7-.72.69-.72.7-.73.69-.72.69-.73.69-.72.69-.73.69-.73.69-.74.69-.73.68-.73.69-.74.69-.74.68-.74.69-.74.68-.74.68-.74.68-.75.69-.74.68-.75.68-.75.68-.75.67-.75.68-.75.68-.76.68-.75.67-.76.68-.76.67-.76.67-.76.68-.76.67-.77.67M179.7 304.36l-1.21.3-1.21.29-1.21.3-1.21.3-1.21.3-1.2.3-1.21.29-1.21.3-1.21.3-1.21.3-1.21.29-1.21.3-1.21.3-1.2.3-1.21.29-1.21.3-1.21.3-1.21.3-1.21.29-1.21.3-1.21.3-1.2.3-1.21.3-1.21.29-1.21.3-1.21.3-1.21.3-1.21.29-1.21.3-1.2.3-1.21.3-1.21.29-1.21.3-1.21.3-1.21.3-1.21.3-1.21.29-1.21.3-1.2.3-1.21.3-1.21.29-1.21.3-1.21.3-1.21.3-1.21.29-1.21.3-1.2.3-1.21.3-1.21.29-1.21.3-1.21.3-1.21.3-1.21.3-1.21.29-1.2.3-1.21.3-1.21.3-1.21.29-1.21.3-1.21.3-1.21.3-1.21.29-1.2.3-1.21.3-1.21.3-1.21.3-1.21.29-1.21.3-1.21.3-1.21.3-1.21.29-1.2.3-1.21.3-1.21.3-1.21.29-1.21.3-1.21.3-1.21.3-1.21.29-1.2.3-1.21.3-1.21.3-1.21.3-1.21.29-1.21.3-1.21.3-1.21.3-1.2.29-1.21.3-1.21.3-1.21.3-1.21.29-1.21.3-1.21.3-1.21.3-1.2.3-1.21.29-1.21.3-1.21.3"/><path style="stroke-width:1.07;stroke:#000;stroke-opacity:.1;stroke-linecap:butt" d="m179.7 304.36-1.04-.41-1.05-.41-1.04-.41-1.05-.4-1.04-.4-1.05-.4-1.05-.4-1.05-.39-1.05-.4-1.05-.39-1.06-.38-1.05-.39-1.06-.38-1.06-.38-1.06-.38-1.06-.38-1.06-.37-1.06-.37-1.06-.37-1.07-.37-1.06-.36-1.07-.36-1.07-.36-1.06-.36-1.08-.36-1.07-.35-1.07-.35-1.07-.35-1.08-.34-1.07-.35-1.08-.34-1.08-.34-1.08-.33-1.08-.34-1.08-.33-1.08-.33-1.09-.33-1.08-.32-1.09-.32-1.09-.33-1.09-.31-1.09-.32-1.09-.31-1.09-.31-1.1-.31-1.09-.31-1.1-.3-1.09-.3-1.1-.3-1.1-.3-1.1-.3-1.1-.29-1.11-.29-1.1-.29-1.11-.28-1.1-.28-1.11-.29-1.11-.27-1.11-.28-1.11-.27-1.11-.28-1.12-.27-1.11-.26-1.12-.27-1.11-.26-1.12-.26-1.12-.26-1.12-.25-1.12-.25-1.13-.26-1.12-.24-1.13-.25-1.12-.24-1.13-.24-1.13-.24-1.13-.24-1.13-.24-1.13-.23-1.14-.23-1.13-.22-1.14-.23-1.13-.22-1.14-.22-1.14-.22-1.14-.22-1.14-.21-1.15-.21-1.14-.21-1.15-.21-1.14-.2-1.15-.2-1.15-.2-1.15-.2-1.15-.19-1.15-.2-1.16-.19-1.15-.19-1.16-.18-1.15-.18M179.7 304.36l-.44.83-.43.83-.44.83-.44.83-.44.83-.44.82-.44.83-.45.83-.45.82-.45.83-.45.82-.45.83-.45.82-.46.82-.45.83-.46.82-.46.82-.46.82-.46.82-.47.82-.46.82-.47.82-.47.82-.47.82-.47.82-.48.81-.47.82-.48.81-.48.82-.48.81-.48.82-.48.81-.49.82-.49.81-.48.81-.49.81-.5.81-.49.81-.49.81-.5.81-.5.81-.5.81-.5.81-.5.8-.5.81-.51.81-.51.8-.5.81-.52.8-.51.8-.51.81-.52.8-.51.8-.52.8-.52.81-.52.8-.53.8-.52.8-.53.8-.52.79-.53.8-.53.8-.54.8-.53.79-.54.8-.53.79-.54.8-.54.79-.55.8-.54.79-.54.79-.55.79-.55.79-.55.8-.55.79-.55.79-.56.78-.56.79-.55.79-.56.79-.56.79-.57.78-.56.79-.57.78-.56.79-.57.78-.57.79-.58.78-.57.78-.58.79-.57.78-.58.78-.58.78-.58.78-.59.78-.58.78-.59.78-.59.77-.59.78"/><path style="stroke-width:1.07;stroke:#000;stroke-opacity:.1;stroke-linecap:butt" d="m179.7 304.36-1.1-.3-1.1-.3-1.1-.29-1.1-.3-1.1-.3-1.1-.29-1.1-.3-1.1-.3-1.1-.29-1.1-.3-1.1-.3-1.1-.3-1.09-.29-1.1-.3-1.1-.3-1.1-.29-1.1-.3-1.1-.3-1.1-.3-1.1-.29-1.1-.3-1.1-.3-1.1-.29-1.1-.3-1.1-.3-1.1-.3-1.1-.29-1.1-.3-1.1-.3-1.1-.29-1.1-.3-1.1-.3-1.1-.3-1.09-.29-1.1-.3-1.1-.3-1.1-.29-1.1-.3-1.1-.3-1.1-.3-1.1-.29-1.1-.3-1.1-.3-1.1-.29-1.1-.3-1.1-.3-1.1-.3-1.1-.29-1.1-.3-1.1-.3-1.1-.29-1.1-.3-1.1-.3-1.09-.29-1.1-.3-1.1-.3-1.1-.3-1.1-.29-1.1-.3-1.1-.3-1.1-.29-1.1-.3-1.1-.3-1.1-.3-1.1-.29-1.1-.3-1.1-.3-1.1-.29-1.1-.3-1.1-.3-1.1-.3-1.1-.29-1.1-.3-1.1-.3-1.09-.29-1.1-.3-1.1-.3-1.1-.3-1.1-.29-1.1-.3-1.1-.3-1.1-.29-1.1-.3-1.1-.3-1.1-.3-1.1-.29-1.1-.3-1.1-.3-1.1-.29-1.1-.3-1.1-.3-1.1-.3-1.1-.29-1.1-.3-1.1-.3-1.09-.29-1.1-.3-1.1-.3-1.1-.29M179.7 304.36l1.04.6 1.04.6 1.04.6 1.05.59 1.04.6 1.05.59 1.05.59 1.05.58 1.06.58 1.06.58 1.05.58 1.06.58 1.07.57 1.06.57 1.07.57 1.06.57 1.07.56 1.07.57 1.08.55 1.07.56 1.08.56 1.08.55 1.08.55 1.08.55 1.09.54 1.09.54 1.08.54 1.1.54 1.09.54 1.09.53 1.1.53 1.1.53 1.1.52 1.1.53 1.1.52 1.11.52 1.11.51 1.11.52 1.11.51 1.11.51 1.12.5 1.12.51 1.12.5 1.12.5 1.12.5 1.12.49 1.13.49 1.13.49 1.13.49 1.13.49 1.14.48 1.14.48 1.13.48 1.14.47 1.15.48 1.14.47 1.15.46 1.15.47 1.15.46 1.15.47 1.15.45 1.16.46 1.15.45 1.16.46 1.17.45 1.16.44 1.16.45 1.17.44 1.17.44 1.17.44 1.18.43 1.17.43 1.18.43 1.18.43 1.18.43 1.18.42 1.18.42 1.19.42 1.19.41 1.19.42 1.19.41 1.19.41 1.2.4 1.2.41 1.2.4 1.2.4 1.2.39 1.21.4 1.21.39 1.2.39 1.22.39 1.21.38 1.21.38 1.22.38 1.22.38 1.22.38 1.22.37 1.23.37 1.22.37"/><path style="stroke-width:1.07;stroke:#000;stroke-opacity:.1;stroke-linecap:butt" d="m179.7 304.36-1.16-.18-1.15-.19-1.16-.19-1.15-.19-1.15-.19-1.16-.2-1.15-.19-1.14-.2-1.15-.2-1.15-.21-1.14-.21-1.15-.2-1.14-.22-1.14-.21-1.14-.21-1.14-.22-1.14-.22-1.14-.23-1.13-.22-1.14-.23-1.13-.23-1.13-.23-1.13-.23-1.13-.24-1.13-.24-1.13-.24-1.13-.25-1.12-.24-1.13-.25-1.12-.25-1.12-.25-1.12-.26-1.12-.26-1.12-.26-1.12-.26-1.11-.26-1.12-.27-1.11-.27-1.11-.27-1.11-.28-1.11-.27-1.11-.28-1.11-.28-1.11-.28-1.1-.29-1.11-.29-1.1-.29-1.1-.29-1.1-.29-1.1-.3-1.1-.3-1.1-.3-1.09-.31-1.1-.3-1.09-.31-1.09-.31-1.1-.32-1.09-.31-1.09-.32-1.08-.32-1.09-.32-1.09-.33-1.08-.33-1.08-.33-1.08-.33-1.09-.33-1.07-.34-1.08-.34-1.08-.34-1.08-.34-1.07-.35-1.08-.35-1.07-.35-1.07-.35-1.07-.35-1.07-.36-1.07-.36-1.06-.36-1.07-.37-1.06-.37-1.07-.36-1.06-.38-1.06-.37-1.06-.38-1.06-.37-1.05-.38-1.06-.39-1.06-.38-1.05-.39-1.05-.39-1.05-.39-1.05-.4-1.05-.39-1.05-.4-1.05-.41-1.04-.4-1.05-.41-1.04-.4-1.04-.41M179.7 304.36l1.13.48 1.13.49 1.14.48 1.13.49 1.13.48 1.14.49 1.13.49 1.13.48 1.13.49 1.14.48 1.13.49 1.13.48 1.14.49 1.13.48 1.13.49 1.13.48 1.14.49 1.13.48 1.13.49 1.13.48 1.14.49 1.13.48 1.13.49 1.14.48 1.13.49 1.13.48 1.13.49 1.14.48 1.13.49 1.13.48 1.14.49 1.13.48 1.13.49 1.13.48 1.14.49 1.13.48 1.13.49 1.13.48 1.14.49 1.13.48 1.13.49 1.14.48 1.13.49 1.13.48 1.13.49 1.14.48 1.13.49 1.13.49 1.14.48 1.13.49 1.13.48 1.13.49 1.14.48 1.13.49 1.13.48 1.14.49 1.13.48 1.13.49 1.13.48 1.14.49 1.13.48 1.13.49 1.13.48 1.14.49 1.13.48 1.13.49 1.14.48 1.13.49 1.13.48 1.13.49 1.14.48 1.13.49 1.13.48 1.14.49 1.13.48 1.13.49 1.13.48 1.14.49 1.13.48 1.13.49 1.13.48 1.14.49 1.13.48 1.13.49 1.14.48 1.13.49 1.13.49 1.13.48 1.14.49 1.13.48 1.13.49 1.14.48 1.13.49 1.13.48 1.13.49 1.14.48 1.13.49 1.13.48 1.13.49"/><path style="stroke-width:1.07;stroke:#000;stroke-opacity:.1;stroke-linecap:butt" d="m179.7 304.36-1.22-.07-1.21-.07-1.21-.08-1.2-.09-1.21-.09-1.2-.09-1.2-.1-1.2-.1-1.2-.1-1.19-.12-1.19-.11-1.19-.12-1.18-.13-1.19-.13-1.18-.13-1.18-.14-1.18-.14-1.17-.15-1.17-.16-1.17-.15-1.17-.17-1.17-.16-1.16-.18-1.16-.17-1.16-.18-1.15-.19-1.16-.19-1.15-.19-1.15-.2-1.14-.21-1.15-.21-1.14-.21-1.14-.22-1.13-.22-1.14-.23-1.13-.23-1.13-.24-1.13-.24-1.12-.24-1.13-.26-1.12-.25-1.12-.26-1.11-.27-1.12-.26-1.11-.28-1.11-.28-1.1-.28-1.11-.29-1.1-.29-1.1-.3-1.09-.3-1.1-.31-1.09-.31-1.09-.31-1.09-.32-1.09-.33-1.08-.33-1.08-.33-1.08-.34-1.07-.34-1.08-.35-1.07-.36-1.07-.35-1.06-.36-1.07-.37-1.06-.37-1.06-.38-1.06-.38-1.05-.39-1.06-.39-1.05-.39-1.04-.4-1.05-.4-1.04-.41-1.04-.41-1.04-.42-1.04-.42-1.03-.43-1.03-.43-1.03-.44-1.03-.44-1.02-.45-1.03-.45-1.02-.45-1.01-.46-1.02-.47-1.01-.47-1.01-.47-1.01-.48-1.01-.48-1-.49-1-.49-1-.5-1-.5-.99-.5-.99-.51-.99-.52-.99-.52-.98-.52M179.7 304.36l1.23.37 1.22.37 1.22.37 1.22.38 1.22.37 1.22.38 1.21.38 1.22.39 1.21.39 1.21.39 1.21.39 1.2.39 1.2.4 1.21.4 1.2.4 1.19.4 1.2.41 1.19.41 1.2.41 1.19.41 1.18.42 1.19.42 1.19.42 1.18.42 1.18.42 1.18.43 1.17.43 1.18.43 1.17.44 1.17.44 1.17.44 1.17.44 1.16.44 1.17.45 1.16.45 1.16.45 1.16.45 1.15.46 1.16.46 1.15.46 1.15.46 1.15.47 1.14.47 1.15.47 1.14.47 1.14.48 1.14.48 1.13.48 1.14.48 1.13.48 1.13.49 1.13.49 1.13.49 1.12.5 1.13.5 1.12.5 1.12.5 1.12.5 1.11.51 1.11.51 1.12.51 1.11.51 1.1.52 1.11.52 1.1.52 1.11.52 1.1.53 1.1.53 1.09.53 1.1.53 1.09.54 1.09.53 1.09.54 1.09.55 1.08.54 1.08.55 1.08.55 1.08.55 1.08.55 1.08.56 1.07.56 1.07.56 1.07.57 1.07.56 1.06.57 1.07.57 1.06.58 1.06.57 1.06.58 1.05.58 1.06.58 1.05.59 1.05.59 1.05.59 1.05.59 1.04.6 1.04.59 1.05.6 1.03.61"/><path style="stroke-width:1.07;stroke:#000;stroke-opacity:.1;stroke-linecap:butt" d="m179.7 304.36-1.27.04-1.27.04-1.27.03-1.26.02-1.25.02-1.26.01h-2.5l-1.24-.01-1.24-.02-1.24-.03-1.23-.03-1.23-.04-1.23-.05-1.22-.05-1.22-.06-1.21-.07-1.22-.07-1.2-.08-1.21-.09-1.2-.1-1.2-.1-1.19-.11-1.19-.11-1.19-.13-1.18-.13-1.19-.13-1.17-.15-1.18-.15-1.17-.15-1.16-.17-1.16-.17-1.16-.18-1.16-.19-1.15-.19-1.15-.2-1.15-.2-1.14-.22-1.14-.22-1.13-.23-1.13-.23-1.13-.24-1.12-.25-1.12-.25-1.12-.27-1.11-.27-1.11-.27-1.11-.29-1.1-.29-1.1-.29-1.1-.31-1.09-.31-1.09-.32-1.09-.32-1.08-.33-1.08-.34-1.07-.35-1.07-.35-1.07-.36-1.07-.37-1.06-.37-1.05-.38-1.06-.39-1.05-.39-1.04-.41-1.05-.4-1.04-.42-1.03-.42-1.04-.43-1.03-.44-1.02-.44-1.02-.45-1.02-.46-1.02-.46-1.01-.47-1.01-.48-1-.49-1-.49-1-.5-.99-.51-.99-.51-.99-.52-.99-.53-.98-.53-.97-.54-.97-.55-.97-.55-.97-.57-.96-.56-.96-.58-.96-.58-.95-.59-.95-.6-.94-.6-.94-.61-.94-.62-.94-.62-.93-.64-.92-.63M108.4 142.87l.82.68.82.68.82.67.82.68.82.68.83.68.82.68.82.68.82.68.82.68.82.67.82.68.82.68.82.68.82.68.82.68.82.68.82.68.82.67.82.68.82.68.82.68.83.68.82.68.82.68.82.68.82.68.82.67.82.68.82.68.82.68.82.68.82.68.82.68.82.68.82.67.82.68.82.68.83.68.82.68.82.68.82.68.82.68.82.67.82.68.82.68.82.68.82.68.82.68.82.68.82.68.82.68.82.67.82.68.83.68.82.68.82.68.82.68.82.68.82.68.82.67.82.68.82.68.82.68.82.68.82.68.82.68.82.68.82.67.82.68.83.68.82.68.82.68.82.68.82.68.82.68.82.67.82.68.82.68.82.68.82.68.82.68.82.68.82.68.82.68.82.67.83.68.82.68.82.68.82.68.82.68.82.68.82.68.82.67.82.68.82.68.82.68.82.68.82.68M70.85 274.95l-.46.56-.44.56-.44.56-.44.56-.42.57-.42.56-.41.57-.41.56-.4.57-.39.56-.38.57-.38.57-.37.57-.36.57-.36.57-.34.57-.35.57-.33.58-.33.57-.32.57-.31.58-.31.57-.3.58-.29.58-.28.57-.28.58-.27.58-.27.58-.25.58-.25.58-.25.58-.23.59-.23.58-.22.58-.22.59-.21.58-.2.59-.19.58-.19.59-.18.59-.17.59-.17.59-.15.59-.16.59-.14.59-.14.59-.13.59-.12.6-.12.59-.11.6-.1.59-.09.6-.09.59-.08.6-.08.6-.07.6-.06.6-.05.6-.04.6-.04.6-.04.6-.02.61-.02.6-.01.61v1.21l.01.6.02.61.02.61.03.61.04.61.05.61.05.61.06.61.07.61.07.61.08.62.09.61.09.62.11.61.11.62.11.61.12.62.13.62.14.62.15.62.15.62.15.62.17.62.17.62.18.63.19.62.19.63.2.62.21.63.21.62.22.63.23.63.24.63"/><path style="stroke-width:1.07;stroke:#000;stroke-opacity:.1;stroke-linecap:butt" d="m70.85 274.95-.34.57-.34.57-.33.57-.32.58-.32.57-.32.58-.31.57-.31.58-.3.57-.29.58-.3.57-.28.58-.29.58-.27.58-.28.58-.27.58-.26.57-.26.58-.25.59-.25.58-.25.58-.24.58-.24.58-.23.58-.22.59-.23.58-.21.59-.22.58-.2.59-.21.58-.2.59-.19.58-.19.59-.18.59-.18.59-.18.58-.17.59-.16.59-.16.59-.16.59-.15.59-.15.59-.14.59-.14.6-.13.59-.13.59-.12.6-.12.59-.11.59-.11.6-.11.59-.1.6-.09.6-.09.59-.09.6-.08.6-.08.6-.07.59-.07.6-.06.6-.06.6-.05.6-.05.6-.04.6-.04.61-.03.6-.03.6-.03.6-.02.61-.01.6-.01.61-.01.6v1.21l.01.61.01.6.02.61.02.61.03.61.03.61.04.61.04.61.04.61.05.61.06.61.06.61.06.61.07.61.07.61.08.62.09.61.08.62.1.61.09.62.1.61.11.62.11.61.12.62.12.62"/><path style="stroke-width:1.07;stroke:#000;stroke-opacity:.1;stroke-linecap:butt" d="m70.85 274.95-.23.58-.22.58-.22.59-.22.58-.21.58-.21.59-.21.58-.21.59-.21.58-.2.59-.2.59-.2.58-.19.59-.2.58-.19.59-.19.59-.19.59-.18.58-.18.59-.18.59-.18.59-.17.58-.18.59-.17.59-.16.59-.17.59-.16.59-.16.59-.16.59-.16.59-.15.59-.15.59-.15.59-.15.59-.14.59-.15.6-.14.59-.13.59-.14.59-.13.59-.13.6-.13.59-.13.59-.12.6-.12.59-.12.59-.12.6-.11.59-.11.6-.11.59-.11.6-.1.59-.1.6-.1.59-.1.6-.1.59-.09.6-.09.6-.09.59-.08.6-.09.6-.08.6-.08.59-.07.6-.08.6-.07.6-.07.6-.07.6-.06.6-.06.6-.06.59-.06.6-.06.6-.05.61-.05.6-.05.6-.04.6-.05.6-.04.6-.04.6-.03.6-.04.61-.03.6-.03.6-.03.6-.02.61-.02.6-.02.6-.02.61-.02.6-.01.61-.01.6-.01.61-.01.6v2.42l.01.61"/><path style="stroke-width:1.07;stroke:#000;stroke-opacity:.1;stroke-linecap:butt" d="m70.85 274.95-.11.59-.11.59-.11.6-.11.59-.11.6-.11.59-.11.6-.11.59-.11.6-.11.59-.11.6-.1.59-.11.6-.11.59-.11.6-.11.59-.11.6-.11.59-.11.6-.11.59-.11.6-.11.59-.11.6-.11.59-.1.59-.11.6-.11.59-.11.6-.11.59-.11.6-.11.59-.11.6-.11.59-.11.6-.11.59-.11.6-.11.59-.11.6-.1.59-.11.6-.11.59-.11.6-.11.59-.11.6-.11.59-.11.59-.11.6-.11.59-.11.6-.11.59-.11.6-.11.59-.1.6-.11.59-.11.6-.11.59-.11.6-.11.59-.11.6-.11.59-.11.6-.11.59-.11.6-.11.59-.11.6-.11.59-.1.6-.11.59-.11.59-.11.6-.11.59-.11.6-.11.59-.11.6-.11.59-.11.6-.11.59-.11.6-.11.59-.1.6-.11.59-.11.6-.11.59-.11.6-.11.59-.11.6-.11.59-.11.6-.11.59-.11.6-.11.59-.11.59-.11.6-.1.59-.11.6-.11.59-.11.6-.11.59-.11.6"/><path style="stroke-width:1.07;stroke:#000;stroke-opacity:.1;stroke-linecap:butt" d="M70.85 274.95v.6l.01.61v1.21l-.01.6v.61l-.01.6-.01.61-.02.6-.01.61-.02.6-.02.6-.02.61-.03.6-.02.6-.03.6-.04.61-.03.6-.04.6-.04.6-.04.6-.04.61-.05.6-.04.6-.06.6-.05.6-.05.6-.06.6-.06.6-.06.6-.07.6-.07.6-.06.59-.08.6-.07.6-.08.6-.08.6-.08.59-.08.6-.09.6-.08.6-.09.59-.1.6-.09.59-.1.6-.1.6-.1.59-.11.6-.1.59-.11.6-.11.59-.12.6-.12.59-.11.59-.12.6-.13.59-.12.59-.13.6-.13.59-.13.59-.14.59-.14.6-.14.59-.14.59-.14.59-.15.59-.15.59-.15.59-.16.59-.15.59-.16.59-.16.59-.16.59-.17.59-.17.59-.17.59-.17.59-.18.59-.17.58-.18.59-.18.59-.19.59-.19.58-.18.59-.2.59-.19.59-.2.58-.19.59-.2.58-.21.59-.2.58-.21.59-.21.58-.21.59-.22.58-.22.59-.22.58-.22.58-.22.59"/><path style="stroke-width:1.07;stroke:#000;stroke-opacity:.1;stroke-linecap:butt" d="m70.85 274.95.12.61.11.62.11.62.11.61.1.62.1.61.09.62.09.61.08.62.08.61.08.61.06.61.07.62.06.61.05.61.05.61.05.61.04.61.04.61.03.61.02.6.03.61.01.61.02.61v.6l.01.61v.6l-.01.61-.01.6-.02.61-.02.6-.02.6-.03.61-.03.6-.04.6-.05.6-.04.6-.06.6-.06.6-.06.6-.07.6-.07.6-.07.6-.08.59-.09.6-.09.6-.1.59-.1.6-.1.59-.11.6-.11.59-.12.6-.13.59-.12.59-.14.6-.13.59-.15.59-.14.59-.15.59-.16.59-.16.59-.17.59-.17.59-.17.59-.18.59-.19.58-.19.59-.19.59-.2.58-.2.59-.21.58-.21.59-.22.58-.22.59-.23.58-.23.58-.23.58-.24.59-.25.58-.25.58-.25.58-.26.58-.27.58-.27.58-.27.58-.28.57-.28.58-.29.58-.29.58-.3.57-.3.58-.31.57-.31.58-.31.57-.32.58-.33.57-.33.57-.33.58-.34.57"/><path style="stroke-width:1.07;stroke:#000;stroke-opacity:.1;stroke-linecap:butt" d="m70.85 274.95.23.62.23.63.22.63.22.63.2.62.2.63.2.62.18.63.18.62.18.62.16.62.16.62.15.62.14.62.14.62.13.62.12.62.12.62.11.61.1.62.1.61.08.62.08.61.08.61.06.61.06.62.06.61.04.61.04.61.03.6.03.61.01.61.01.61.01.6-.01.61-.01.6-.01.61-.03.6-.03.6-.04.6-.05.6-.05.6-.06.6-.07.6-.07.6-.08.6-.09.6-.09.59-.11.6-.11.59-.11.6-.13.59-.13.59-.13.59-.15.6-.15.59-.16.59-.16.59-.18.58-.18.59-.18.59-.2.59-.2.58-.2.59-.22.58-.22.58-.23.59-.24.58-.24.58-.25.58-.26.58-.26.58-.27.58-.28.58-.28.58-.3.57-.3.58-.3.57-.32.58-.32.57-.32.58-.34.57-.34.57-.35.57-.35.57-.37.57-.37.57-.37.57-.39.57-.39.57-.4.56-.4.57-.41.56-.42.57-.43.56-.43.56-.44.57-.45.56-.45.56"/><path style="stroke-width:.71;stroke:none;fill:#00ba38" d="m179.7 293.85 9.1 15.76h-18.2zM310.71 439.89l1.92 3.31h-3.83zM258.52 134.47l4.85 8.4h-9.7zM409.59 328.95l1.91 3.32h-3.83zM108.4 140.66l1.92 3.31h-3.83z"/><path style="stroke-width:.71;stroke:none;fill:#619cff" d="M64.09 281.7H77.6v-13.51H64.09z"/><circle cx="189.64" cy="210.07" r="5.19" style="stroke-width:.71;stroke:none;fill:#f8766d"/><circle cx="291.84" cy="352.39" r="5.78" style="stroke-width:.71;stroke:none;fill:#f8766d"/><path style="stroke-width:.71;stroke:none;fill:#619cff" d="M329.75 525.59h2.84v-2.84h-2.84z"/><circle cx="129.01" cy="383.94" r="3.6" style="stroke-width:.71;stroke:none;fill:#f8766d"/><path style="stroke-width:.71;stroke:none;fill:#619cff" d="M521.35 324.17h2.84v-2.84h-2.84z"/><circle cx="60.03" cy="333.83" r="1.42" style="stroke-width:.71;stroke:none;fill:#f8766d"/><path style="stroke-width:.53;stroke:#bfbfbf" d="m174.26 309.06 4.56-3.94M316.13 437.41l-4.54 3.93M253.27 144.82l4.39-3.98M404.2 335.82l4.51-3.9M113.27 139.23l-3.93 2.93M76.17 270.34l-4.44 3.85M195.05 205.48l-4.52 3.84M286.44 357.06l4.53-3.91M326.35 525.76l3.64-1.2M134.57 379.26l-4.67 3.93M65.46 338.52l-4.55-3.93"/><path style="stroke-width:.53;fill:#fff;fill-opacity:.5" d="M137.24 328.6h49.77-.08l.34-.01.34-.07.33-.12.3-.18.27-.22.23-.26.19-.29.13-.32.08-.34.03-.35v-15.22l-.03-.34-.08-.34-.13-.32-.19-.29-.23-.27-.27-.22-.3-.17-.33-.12-.34-.07-.26-.02h-49.77l.26.02-.35-.02-.34.05-.34.09-.31.15-.29.2-.25.24-.21.28-.16.31-.11.33-.05.34-.01.17v15.22l.01-.17v.35l.05.34.11.33.16.31.21.28.25.24.29.19.31.15.34.1.34.04z"/><text x="162.13" y="316.81" text-anchor="middle" style="font-size:5.69px;font-family:&quot;Liberation Sans&quot;" textLength="43.24" lengthAdjust="spacingAndGlyphs">MIDDLE COAST</text><text x="162.13" y="325" text-anchor="middle" style="font-size:5.69px;font-family:&quot;Liberation Sans&quot;" textLength="46.89" lengthAdjust="spacingAndGlyphs">PROPERTIES LLC</text><path style="stroke-width:.53;fill:#fff;fill-opacity:.5" d="M297.39 437.41h61.78-.08l.34-.01.34-.07.33-.13.3-.17.27-.22.23-.26.19-.29.13-.32.09-.34.02-.35v-15.22l-.02-.34-.09-.34-.13-.32-.19-.3-.23-.26-.27-.22-.3-.17-.33-.12-.34-.07-.26-.02h-61.78l.26.02-.35-.02-.34.05-.34.09-.31.15-.29.2-.25.24-.21.28-.16.31-.11.32-.05.35-.01.17v15.22l.01-.17v.35l.05.34.11.33.16.31.21.28.25.24.29.19.31.15.34.1.34.04z"/><text x="328.28" y="425.62" text-anchor="middle" style="font-size:5.69px;font-family:&quot;Liberation Sans&quot;" textLength="58.9" lengthAdjust="spacingAndGlyphs">DWELL REAL ESTATE</text><text x="328.28" y="433.81" text-anchor="middle" style="font-size:5.69px;font-family:&quot;Liberation Sans&quot;" textLength="10.31" lengthAdjust="spacingAndGlyphs">LLC</text><path style="stroke-width:.53;fill:#fff;fill-opacity:.5" d="M216.99 156.16h57.74-.09l.35-.01.34-.07.32-.13.31-.17.26-.22.23-.26.19-.29.14-.32.08-.34.03-.35v-7.02l-.03-.35-.08-.34-.14-.32-.19-.29-.23-.26-.26-.22-.31-.18-.32-.12-.34-.07-.26-.01h-57.74l.26.01-.35-.01-.34.04-.33.1-.32.15-.28.19-.26.24-.2.28-.17.31-.11.33-.05.34-.01.18V154l.01-.17v.35l.05.34.11.33.17.31.2.28.26.24.28.19.32.15.33.1.34.04z"/><text x="245.86" y="152.56" text-anchor="middle" style="font-size:5.69px;font-family:&quot;Liberation Sans&quot;" textLength="54.86" lengthAdjust="spacingAndGlyphs">MICHAEL MANEY JR</text><path style="stroke-width:.53;fill:#fff;fill-opacity:.5" d="M367.17 355.36h49.7-.08l.34-.01.35-.07.32-.13.3-.17.27-.22.23-.26.19-.29.13-.32.09-.34.02-.35v-15.22l-.02-.34-.09-.34-.13-.32-.19-.3-.23-.26-.27-.22-.3-.17-.32-.12-.35-.07-.26-.02h-49.7l.26.02-.34-.02-.35.05-.33.09-.32.15-.28.2-.25.24-.21.28-.16.31-.11.32-.06.35-.01.17v15.22l.01-.17v.35l.06.34.11.33.16.31.21.28.25.24.28.19.32.15.33.1.35.04z"/><text x="392.02" y="343.57" text-anchor="middle" style="font-size:5.69px;font-family:&quot;Liberation Sans&quot;" textLength="46.82" lengthAdjust="spacingAndGlyphs">3367 N 53RD ST</text><text x="392.02" y="351.76" text-anchor="middle" style="font-size:5.69px;font-family:&quot;Liberation Sans&quot;" textLength="31.23" lengthAdjust="spacingAndGlyphs">FAMILY LLC</text><path style="stroke-width:.53;fill:#fff;fill-opacity:.5" d="M115.43 144h63.21-.09l.35-.01.34-.07.33-.12.3-.18.27-.22.23-.26.18-.29.14-.32.08-.34.03-.35v-15.22l-.03-.34-.08-.34-.14-.32-.18-.29-.23-.27-.27-.21-.3-.18-.33-.12-.34-.07-.26-.02h-63.21l.26.02-.35-.02-.34.05-.33.09-.32.15-.29.2-.25.24-.2.28-.17.31-.11.33-.05.34-.01.17v15.22l.01-.17v.35l.05.34.11.33.17.31.2.28.25.24.29.19.32.15.33.1.34.04z"/><text x="147.04" y="132.21" text-anchor="middle" style="font-size:5.69px;font-family:&quot;Liberation Sans&quot;" textLength="60.33" lengthAdjust="spacingAndGlyphs">MIDDLE COAST PROP</text><text x="147.04" y="140.4" text-anchor="middle" style="font-size:5.69px;font-family:&quot;Liberation Sans&quot;" textLength="10.31" lengthAdjust="spacingAndGlyphs">LLC</text><path style="stroke-width:.53;fill:#fff;fill-opacity:.5" d="M55.81 270.34h65.03-.09l.35-.01.34-.07.32-.12.3-.18.27-.22.23-.26.19-.29.14-.32.08-.34.03-.35v-15.22l-.03-.34-.08-.34-.14-.32-.19-.3-.23-.26-.27-.22-.3-.17-.32-.12-.34-.07-.26-.02H55.81l.26.02-.34-.02-.35.05-.33.09-.32.15-.28.2-.25.24-.21.28-.16.31-.11.33-.06.34-.01.17v15.22l.01-.17v.35l.06.34.11.33.16.31.21.28.25.24.28.19.32.15.33.1.35.04z"/><text x="88.33" y="258.55" text-anchor="middle" style="font-size:5.69px;font-family:&quot;Liberation Sans&quot;" textLength="62.14" lengthAdjust="spacingAndGlyphs">PO BOX 510701, NEW</text><text x="88.33" y="266.74" text-anchor="middle" style="font-size:5.69px;font-family:&quot;Liberation Sans&quot;" textLength="51.38" lengthAdjust="spacingAndGlyphs">BERLIN, WI 53151</text><path style="stroke-width:.53;fill:#fff;fill-opacity:.5" d="M180.68 205.48h62.74-.09l.35-.01.34-.07.32-.12.31-.18.26-.22.23-.26.19-.29.14-.32.08-.34.03-.35v-23.41l-.03-.35-.08-.34-.14-.32-.19-.29-.23-.26-.26-.22-.31-.17-.32-.13-.34-.07-.26-.01h-62.74l.26.01-.34-.01-.35.04-.33.1-.32.15-.28.2-.25.24-.21.27-.16.31-.11.33-.06.34-.01.18v23.41l.01-.17v.35l.06.34.11.33.16.31.21.28.25.24.28.19.32.15.33.1.35.04z"/><text x="212.05" y="185.5" text-anchor="middle" style="font-size:5.69px;font-family:&quot;Liberation Sans&quot;" textLength="59.85" lengthAdjust="spacingAndGlyphs">16225 W HEATHERLY</text><text x="212.05" y="193.69" text-anchor="middle" style="font-size:5.69px;font-family:&quot;Liberation Sans&quot;" textLength="58.69" lengthAdjust="spacingAndGlyphs">DR, NEW BERLIN, WI</text><text x="212.05" y="201.88" text-anchor="middle" style="font-size:5.69px;font-family:&quot;Liberation Sans&quot;" textLength="18.11" lengthAdjust="spacingAndGlyphs">53151</text><path style="stroke-width:.53;fill:#fff;fill-opacity:.5" d="M247.15 376.6h54.26-.09l.35-.01.34-.07.32-.13.3-.17.27-.22.23-.26.19-.3.14-.31.08-.34.03-.35v-15.22l-.03-.35-.08-.33-.14-.32-.19-.3-.23-.26-.27-.22-.3-.17-.32-.13-.34-.06-.26-.02h-54.26l.26.02-.35-.02-.34.04-.34.1-.31.15-.29.2-.25.24-.21.27-.16.31-.11.33-.06.35v15.39-.17.34l.06.35.11.33.16.31.21.27.25.24.29.2.31.15.34.1.34.04z"/><text x="274.28" y="364.81" text-anchor="middle" style="font-size:5.69px;font-family:&quot;Liberation Sans&quot;" textLength="51.28" lengthAdjust="spacingAndGlyphs">PO BOX 701, NEW</text><text x="274.28" y="373" text-anchor="middle" style="font-size:5.69px;font-family:&quot;Liberation Sans&quot;" textLength="51.38" lengthAdjust="spacingAndGlyphs">BERLIN, WI 53151</text><path style="stroke-width:.53;fill:#fff;fill-opacity:.5" d="M253.06 539.77h71.13-.08l.34-.01.34-.07.33-.13.3-.17.27-.22.23-.26.19-.29.13-.32.09-.34.02-.35V514.2l-.02-.35-.09-.34-.13-.32-.19-.29-.23-.26-.27-.22-.3-.18-.33-.12-.34-.07-.26-.01h-71.13l.27.01-.35-.01-.35.04-.33.1-.32.15-.28.19-.25.24-.21.28-.16.31-.11.33-.06.34-.01.18v23.41l.01-.17v.35l.06.34.11.33.16.31.21.27.25.25.28.19.32.15.33.1.35.04z"/><text x="288.63" y="519.78" text-anchor="middle" style="font-size:5.69px;font-family:&quot;Liberation Sans&quot;" textLength="68.25" lengthAdjust="spacingAndGlyphs">15300 W HOWARD AVE,</text><text x="288.63" y="527.98" text-anchor="middle" style="font-size:5.69px;font-family:&quot;Liberation Sans&quot;" textLength="54.19" lengthAdjust="spacingAndGlyphs">UNIT 510701, NEW</text><text x="288.63" y="536.17" text-anchor="middle" style="font-size:5.69px;font-family:&quot;Liberation Sans&quot;" textLength="51.38" lengthAdjust="spacingAndGlyphs">BERLIN, WI 53151</text><path style="stroke-width:.53;fill:#fff;fill-opacity:.5" d="M121.65 379.26h66.83-.08l.34-.01.34-.07.33-.13.3-.17.27-.22.23-.26.19-.29.13-.32.08-.34.03-.35v-15.22l-.03-.35-.08-.33-.13-.32-.19-.3-.23-.26-.27-.22-.3-.17-.33-.12-.34-.07-.26-.02h-66.83l.26.02-.34-.02-.35.04-.33.1-.32.15-.28.2-.25.24-.21.28-.16.3-.11.33-.06.35-.01.17v15.22l.01-.17v.35l.06.34.11.33.16.31.21.27.25.24.28.2.32.15.33.1.35.04z"/><text x="155.07" y="367.47" text-anchor="middle" style="font-size:5.69px;font-family:&quot;Liberation Sans&quot;" textLength="63.95" lengthAdjust="spacingAndGlyphs">P O BOX 510701, NEW</text><text x="155.07" y="375.66" text-anchor="middle" style="font-size:5.69px;font-family:&quot;Liberation Sans&quot;" textLength="51.38" lengthAdjust="spacingAndGlyphs">BERLIN, WI 53151</text><path style="stroke-width:.53;fill:#fff;fill-opacity:.5" d="M444.62 336.62h71.12-.08l.34-.02.35-.07.32-.12.3-.17.27-.22.23-.26.19-.3.13-.32.09-.33.02-.35v-23.42l-.02-.34-.09-.34-.13-.32-.19-.29-.23-.26-.27-.22-.3-.18-.32-.12-.35-.07-.26-.02h-71.12l.26.02-.35-.02-.35.05-.33.09-.31.15-.29.2-.25.24-.21.28-.16.31-.11.33-.06.34V334.46v-.17.34l.06.35.11.33.16.3.21.28.25.24.29.2.31.15.33.1.35.04z"/><text x="480.18" y="316.63" text-anchor="middle" style="font-size:5.69px;font-family:&quot;Liberation Sans&quot;" textLength="68.25" lengthAdjust="spacingAndGlyphs">15300 W HOWARD AVE,</text><text x="480.18" y="324.82" text-anchor="middle" style="font-size:5.69px;font-family:&quot;Liberation Sans&quot;" textLength="51.3" lengthAdjust="spacingAndGlyphs">STE 501701, NEW</text><text x="480.18" y="333.02" text-anchor="middle" style="font-size:5.69px;font-family:&quot;Liberation Sans&quot;" textLength="51.38" lengthAdjust="spacingAndGlyphs">BERLIN, WI 53151</text><path style="stroke-width:.53;fill:#fff;fill-opacity:.5" d="M45.09 358.07h65.02l-.09-.01.35-.01.34-.07.33-.12.3-.18.27-.22.23-.26.18-.29.14-.32.08-.34.03-.34v-15.23l-.03-.34-.08-.34-.14-.32-.18-.29-.23-.26-.27-.22-.3-.18-.33-.12-.34-.07-.26-.02H45.09l.26.02-.35-.01-.34.04-.34.09-.31.15-.29.2-.25.24-.21.28-.16.31-.11.33-.06.34v15.4-.18.35l.06.34.11.33.16.31.21.28.25.24.29.2.31.14.34.1.34.04z"/><text x="77.6" y="346.27" text-anchor="middle" style="font-size:5.69px;font-family:&quot;Liberation Sans&quot;" textLength="62.14" lengthAdjust="spacingAndGlyphs">PO BOX 510701, NEW</text><text x="77.6" y="354.47" text-anchor="middle" style="font-size:5.69px;font-family:&quot;Liberation Sans&quot;" textLength="51.38" lengthAdjust="spacingAndGlyphs">BERLIN, WI 53151</text></g><g clip-path="url(#cpMC4wMHw1NzYuMDB8MC4wMHw1NzYuMDA=)"><circle cx="196.98" cy="95.78" r="1.95" style="stroke-width:.71;stroke:none;fill:#f8766d"/><path style="stroke-width:.71;stroke:none;fill:#00ba38" d="m273.33 92.74 2.63 4.56h-5.26z"/><path style="stroke-width:.71;stroke:none;fill:#619cff" d="M339.31 97.74h3.91v-3.91h-3.91z"/><text x="211.09" y="98.81" style="font-size:8.8px;font-family:&quot;Liberation Sans Narrow&quot;" textLength="48.12" lengthAdjust="spacingAndGlyphs">mprop address</text><text x="287.45" y="98.81" style="font-size:8.8px;font-family:&quot;Liberation Sans Narrow&quot;" textLength="39.69" lengthAdjust="spacingAndGlyphs">owner name</text><text x="355.38" y="98.81" style="font-size:8.8px;font-family:&quot;Liberation Sans Narrow&quot;" textLength="40.5" lengthAdjust="spacingAndGlyphs">wdfi address</text><text x="32.63" y="64.23" style="font-size:12px;font-family:&quot;Liberation Sans Narrow&quot;" textLength="252.23" lengthAdjust="spacingAndGlyphs">includes 12 parcels, 20 units, and 5 distinct owner names.</text><text x="32.63" y="42.27" style="font-size:18px;font-weight:700;font-family:&quot;Liberation Sans Narrow&quot;" textLength="292.72" lengthAdjust="spacingAndGlyphs">MIDDLE COAST PROPERTIES LLC Group</text></g></svg>