<svg xmlns="http://www.w3.org/2000/svg" class="svglite" width="768" height="768" viewBox="0 0 576 576"><defs><style>.svglite circle,.svglite line,.svglite polygon,.svglite polyline,.svglite rect{fill:none;stroke:#000;stroke-linecap:round;stroke-linejoin:round;stroke-miterlimit:10}.svglite text{white-space:pre}</style></defs><rect width="100%" height="100%" style="stroke:none;fill:#fff"/><defs><clipPath id="cpMC4wMHw1NzYuMDB8MC4wMHw1NzYuMDA="><path d="M0 0h576v576H0z"/></clipPath></defs><g clip-path="url(#cpMC4wMHw1NzYuMDB8MC4wMHw1NzYuMDA=)"><path style="stroke-width:1.07;stroke:none;fill:#fff" d="M0 0h576v576H0z"/></g><defs><clipPath id="cpMzIuNjN8NTQ2LjExfDEyMS43OHw1NDMuMzc="><path d="M32.63 121.78h513.48v421.59H32.63z"/></clipPath></defs><g clip-path="url(#cpMzIuNjN8NTQ2LjExfDEyMS43OHw1NDMuMzc=)"><path style="stroke-width:1.07;stroke:#000;stroke-opacity:.1;stroke-linecap:butt" d="m421.16 422.89-1.04-1.14-1.04-1.15-1.03-1.15-1.04-1.15-1.04-1.15-1.04-1.15-1.04-1.15-1.03-1.15-1.04-1.15-1.04-1.15-1.04-1.15-1.04-1.15-1.03-1.15-1.04-1.15-1.04-1.15-1.04-1.15-1.04-1.15-1.03-1.15-1.04-1.15-1.04-1.15-1.04-1.15-1.04-1.15-1.03-1.15-1.04-1.14-1.04-1.15-1.04-1.15-1.04-1.15-1.03-1.15-1.04-1.15-1.04-1.15-1.04-1.15-1.04-1.15-1.03-1.15-1.04-1.15-1.04-1.15-1.04-1.15-1.04-1.15-1.03-1.15-1.04-1.15-1.04-1.15-1.04-1.15-1.04-1.15-1.03-1.15-1.04-1.15-1.04-1.15-1.04-1.15-1.04-1.15-1.03-1.14-1.04-1.15-1.04-1.15-1.04-1.15-1.04-1.15-1.03-1.15-1.04-1.15-1.04-1.15-1.04-1.15-1.04-1.15-1.03-1.15-1.04-1.15-1.04-1.15-1.04-1.15-1.04-1.15-1.03-1.15-1.04-1.15-1.04-1.15-1.04-1.15-1.04-1.15-1.04-1.15-1.03-1.15-1.04-1.15-1.04-1.15-1.04-1.14-1.04-1.15-1.03-1.15-1.04-1.15-1.04-1.15-1.04-1.15-1.04-1.15-1.03-1.15-1.04-1.15-1.04-1.15-1.04-1.15-1.04-1.15-1.03-1.15-1.04-1.15-1.04-1.15-1.04-1.15-1.04-1.15-1.03-1.15-1.04-1.15-1.04-1.15-1.04-1.15-1.04-1.15-1.03-1.15-1.04-1.15-1.04-1.14-1.04-1.15-1.04-1.15-1.03-1.15M184.27 347.78l-1.3.29-1.3.29-1.29.28-1.3.29-1.29.29-1.3.28-1.3.29-1.29.29-1.3.28-1.29.29-1.3.29-1.3.29-1.29.28-1.3.29-1.29.29-1.3.28-1.3.29-1.29.29-1.3.29-1.29.28-1.3.29-1.3.29-1.29.28-1.3.29-1.29.29-1.3.28-1.3.29-1.29.29-1.3.29-1.29.28-1.3.29-1.29.29-1.3.28-1.3.29-1.29.29-1.3.28-1.29.29-1.3.29-1.3.29-1.29.28-1.3.29-1.29.29-1.3.28-1.3.29-1.29.29-1.3.28-1.29.29-1.3.29-1.3.29-1.29.28-1.3.29-1.29.29-1.3.28-1.3.29-1.29.29-1.3.29-1.29.28-1.3.29-1.29.29-1.3.28-1.3.29-1.29.29-1.3.28-1.29.29-1.3.29-1.3.29-1.29.28-1.3.29-1.29.29-1.3.28-1.3.29-1.29.29-1.3.28-1.29.29-1.3.29-1.3.29-1.29.28-1.3.29-1.29.29-1.3.28-1.3.29-1.29.29-1.3.28-1.29.29-1.3.29-1.3.29-1.29.28-1.3.29-1.29.29-1.3.28-1.29.29-1.3.29-1.3.29-1.29.28-1.3.29-1.29.29-1.3.28-1.3.29-1.29.29M184.27 347.78l1.35-.39 1.35-.39 1.36-.39 1.35-.39 1.36-.39 1.35-.39 1.36-.39 1.35-.4 1.36-.39 1.35-.39 1.36-.39 1.35-.39 1.36-.39 1.35-.39 1.36-.39 1.35-.39 1.36-.39 1.35-.39 1.36-.39 1.35-.4 1.36-.39 1.35-.39 1.36-.39 1.35-.39 1.36-.39 1.35-.39 1.36-.39 1.35-.39 1.36-.39 1.35-.39 1.36-.39 1.35-.4 1.36-.39 1.35-.39 1.36-.39 1.35-.39 1.36-.39 1.35-.39 1.35-.39 1.36-.39 1.35-.39 1.36-.39 1.35-.4 1.36-.39 1.35-.39 1.36-.39 1.35-.39 1.36-.39 1.35-.39 1.36-.39 1.35-.39 1.36-.39 1.35-.39 1.36-.39 1.35-.4 1.36-.39 1.35-.39 1.36-.39 1.35-.39 1.36-.39 1.35-.39 1.36-.39 1.35-.39 1.36-.39 1.35-.39 1.36-.39 1.35-.4 1.36-.39 1.35-.39 1.36-.39 1.35-.39 1.36-.39 1.35-.39 1.36-.39 1.35-.39 1.35-.39 1.36-.39 1.35-.4 1.36-.39 1.35-.39 1.36-.39 1.35-.39 1.36-.39 1.35-.39 1.36-.39 1.35-.39 1.36-.39 1.35-.39 1.36-.39 1.35-.4 1.36-.39 1.35-.39 1.36-.39 1.35-.39 1.36-.39 1.35-.39 1.36-.39 1.35-.39 1.36-.39M352.98 140.95l-.35 1.7-.35 1.69-.35 1.7-.35 1.7-.34 1.7-.35 1.7-.35 1.7-.35 1.69-.35 1.7-.35 1.7-.35 1.7-.35 1.7-.35 1.7-.35 1.69-.35 1.7-.35 1.7-.35 1.7-.35 1.7-.35 1.7-.34 1.69-.35 1.7-.35 1.7-.35 1.7-.35 1.7-.35 1.7-.35 1.7-.35 1.69-.35 1.7-.35 1.7-.35 1.7-.35 1.7-.35 1.7-.35 1.69-.35 1.7-.35 1.7-.34 1.7-.35 1.7-.35 1.7-.35 1.69-.35 1.7-.35 1.7-.35 1.7-.35 1.7-.35 1.7-.35 1.69-.35 1.7-.35 1.7-.35 1.7-.35 1.7-.35 1.7-.34 1.69-.35 1.7-.35 1.7-.35 1.7-.35 1.7-.35 1.7-.35 1.69-.35 1.7-.35 1.7-.35 1.7-.35 1.7-.35 1.7-.35 1.7-.35 1.69-.35 1.7-.34 1.7-.35 1.7-.35 1.7-.35 1.7-.35 1.69-.35 1.7-.35 1.7-.35 1.7-.35 1.7-.35 1.7-.35 1.69-.35 1.7-.35 1.7-.35 1.7-.35 1.7-.34 1.7-.35 1.69-.35 1.7-.35 1.7-.35 1.7-.35 1.7-.35 1.7-.35 1.69-.35 1.7-.35 1.7-.35 1.7-.35 1.7-.35 1.7-.35 1.69-.35 1.7-.35 1.7-.34 1.7-.35 1.7-.35 1.7M421.16 422.89l1.03 1.03 1.02 1.02 1.03 1.03 1.03 1.02 1.02 1.02 1.03 1.03 1.02 1.02 1.03 1.02 1.03 1.03 1.02 1.02 1.03 1.02 1.03 1.03 1.02 1.02 1.03 1.02 1.03 1.03 1.02 1.02 1.03 1.02 1.02 1.03 1.03 1.02 1.03 1.02 1.02 1.03 1.03 1.02 1.03 1.02 1.02 1.03 1.03 1.02 1.03 1.02 1.02 1.03 1.03 1.02 1.02 1.02 1.03 1.03 1.03 1.02 1.02 1.02 1.03 1.03 1.03 1.02 1.02 1.02 1.03 1.03 1.03 1.02 1.02 1.02 1.03 1.03 1.02 1.02 1.03 1.02 1.03 1.03 1.02 1.02 1.03 1.02 1.03 1.03 1.02 1.02 1.03 1.02 1.03 1.03 1.02 1.02 1.03 1.02 1.03 1.03 1.02 1.02 1.03 1.02 1.02 1.03 1.03 1.02 1.03 1.02 1.02 1.03 1.03 1.02 1.03 1.02 1.02 1.03 1.03 1.02 1.03 1.02 1.02 1.03 1.03 1.02 1.02 1.02 1.03 1.03 1.03 1.02 1.02 1.02 1.03 1.03 1.03 1.02 1.02 1.02 1.03 1.03 1.03 1.02 1.02 1.02 1.03 1.03 1.02 1.02 1.03 1.02 1.03 1.03 1.02 1.02 1.03 1.03 1.03 1.02 1.02 1.02 1.03 1.03 1.03 1.02 1.02 1.02 1.03 1.03 1.03 1.02 1.02 1.02 1.03 1.03 1.02 1.02 1.03 1.02 1.03 1.03 1.02 1.02 1.03 1.02 1.03 1.03 1.02 1.02 1.03 1.02 1.03 1.03 1.02 1.02"/><path style="stroke-width:.71;stroke:none;fill:#00bfc4" d="m421.16 414.82 6.99 12.11h-13.99zM184.27 339.7l6.99 12.12h-13.99zM352.98 138.74l1.92 3.31h-3.83z"/><circle cx="318.4" cy="309.09" r="6.76" style="stroke-width:.71;stroke:none;fill:#f8766d"/><circle cx="55.97" cy="376.2" r="1.42" style="stroke-width:.71;stroke:none;fill:#f8766d"/><circle cx="522.77" cy="524.21" r="1.42" style="stroke-width:.71;stroke:none;fill:#f8766d"/><path style="stroke-width:.53;stroke:#bfbfbf" d="m426.27 418.3-4.25 3.82M179.14 352.39l4.27-3.84M357.63 137.76l-3.67 2.52M323.8 304.52l-4.52 3.82"/><path style="stroke-width:.53;fill:#fff;fill-opacity:.5" d="M412.02 418.3h43.31l-.09-.01.35-.01.34-.07.32-.12.3-.18.27-.22.23-.26.19-.29.13-.32.09-.34.03-.34v-6.97l-.03-.34-.09-.34-.13-.32-.19-.29-.23-.26-.27-.22-.3-.18-.32-.12-.34-.07-.26-.02h-43.31l.26.02-.34-.02-.35.05-.33.09-.32.15-.28.2-.25.24-.21.28-.16.31-.11.33-.06.34-.01.17v6.97l.01-.18v.35l.06.34.11.33.16.31.21.28.25.24.28.2.32.15.33.09.35.04z"/><text x="433.67" y="414.7" text-anchor="middle" style="font-size:5.69px;font-family:&quot;Arial&quot;" textLength="40.42" lengthAdjust="spacingAndGlyphs">ROGER J RINK</text><path style="stroke-width:.53;fill:#fff;fill-opacity:.5" d="M152.3 363.67h38.88-.09l.35-.02.34-.06.33-.13.3-.17.27-.22.23-.26.18-.3.14-.32.08-.33.03-.35v-6.96l-.03-.35-.08-.34-.14-.32-.18-.29-.23-.26-.27-.22-.3-.17-.33-.13-.34-.07-.26-.01H152.3l.26.01-.35-.01-.34.04-.34.1-.31.15-.29.2-.25.24-.21.27-.16.31-.11.33-.05.34-.01.18v6.96l.01-.17v.34l.05.35.11.33.16.31.21.27.25.24.29.2.31.15.34.1.34.04z"/><text x="171.74" y="360.07" text-anchor="middle" style="font-size:5.69px;font-family:&quot;Arial&quot;" textLength="36" lengthAdjust="spacingAndGlyphs">ROGER RINK</text><path style="stroke-width:.53;fill:#fff;fill-opacity:.5" d="M359.79 144.89h66.68-.09l.35-.01.34-.07.33-.12.3-.18.27-.22.23-.26.18-.29.14-.32.08-.34.03-.35v-15.15l-.03-.35-.08-.34-.14-.32-.18-.29-.23-.26-.27-.22-.3-.17-.33-.13-.34-.07-.26-.01h-66.68l.26.01-.34-.01-.35.04-.33.1-.32.15-.28.19-.25.24-.21.28-.16.31-.11.33-.06.34-.01.18v15.15l.01-.17v.35l.06.34.11.33.16.31.21.28.25.24.28.19.32.15.33.1.35.04z"/><text x="393.13" y="133.1" text-anchor="middle" style="font-size:5.69px;font-family:&quot;Arial&quot;" textLength="63.8" lengthAdjust="spacingAndGlyphs">ROGER J RINK &amp; MARY</text><text x="393.13" y="141.29" text-anchor="middle" style="font-size:5.69px;font-family:&quot;Arial&quot;" textLength="9.48" lengthAdjust="spacingAndGlyphs">HW</text><path style="stroke-width:.53;fill:#fff;fill-opacity:.5" d="M303.98 304.52h73.63-.09l.35-.02.34-.07.33-.12.3-.17.27-.22.23-.26.18-.3.14-.32.08-.33.03-.35v-23.35l-.03-.35-.08-.34-.14-.32-.18-.29-.23-.26-.27-.22-.3-.17-.33-.13-.34-.07-.26-.01h-73.63l.26.01-.35-.01-.34.04-.34.1-.31.15-.29.19-.25.25-.21.27-.16.31-.11.33-.06.34v23.53-.18.35l.06.35.11.33.16.3.21.28.25.24.29.2.31.15.34.1.34.04z"/><text x="340.79" y="284.53" text-anchor="middle" style="font-size:5.69px;font-family:&quot;Arial&quot;" textLength="56.87" lengthAdjust="spacingAndGlyphs">W167N10449 BRIDLE</text><text x="340.79" y="292.72" text-anchor="middle" style="font-size:5.69px;font-family:&quot;Arial&quot;" textLength="70.75" lengthAdjust="spacingAndGlyphs">PATH, GERMANTOWN, WI</text><text x="340.79" y="300.92" text-anchor="middle" style="font-size:5.69px;font-family:&quot;Arial&quot;" textLength="15.8" lengthAdjust="spacingAndGlyphs">53022</text><path style="stroke-width:.53;fill:#fff;fill-opacity:.5" d="M62.77 390.02h73.64-.09l.35-.02.34-.07.32-.12.3-.17.27-.22.23-.26.19-.3.14-.32.08-.33.03-.35v-23.35l-.03-.35-.08-.34-.14-.32-.19-.29-.23-.26-.27-.22-.3-.17-.32-.13-.34-.07-.26-.01H62.77l.26.01-.34-.01-.35.04-.33.1-.32.15-.28.19-.25.25-.21.27-.16.31-.11.33-.06.34-.01.18v23.35l.01-.17v.34l.06.35.11.33.16.3.21.28.25.24.28.2.32.15.33.1.35.04z"/><text x="99.59" y="370.03" text-anchor="middle" style="font-size:5.69px;font-family:&quot;Arial&quot;" textLength="56.56" lengthAdjust="spacingAndGlyphs">W167B10449 BRIDLE</text><text x="99.59" y="378.22" text-anchor="middle" style="font-size:5.69px;font-family:&quot;Arial&quot;" textLength="70.75" lengthAdjust="spacingAndGlyphs">PATH, GERMANTOWN, WI</text><text x="99.59" y="386.42" text-anchor="middle" style="font-size:5.69px;font-family:&quot;Arial&quot;" textLength="15.8" lengthAdjust="spacingAndGlyphs">53022</text><path style="stroke-width:.53;fill:#fff;fill-opacity:.5" d="M442.33 538.05h73.64-.09l.35-.02.34-.07.32-.12.3-.17.27-.22.23-.26.19-.3.14-.32.08-.33.03-.35v-23.35l-.03-.35-.08-.34-.14-.32-.19-.29-.23-.26-.27-.22-.3-.17-.32-.13-.34-.07-.26-.01h-73.64l.26.01-.34-.01-.35.04-.33.1-.32.15-.28.19-.25.25-.21.27-.16.31-.11.33-.06.34-.01.18v23.35l.01-.18v.35l.06.35.11.33.16.3.21.28.25.24.28.2.32.15.33.09.35.05z"/><text x="479.15" y="518.06" text-anchor="middle" style="font-size:5.69px;font-family:&quot;Arial&quot;" textLength="60.03" lengthAdjust="spacingAndGlyphs">W167N104409 BRIDLE</text><text x="479.15" y="526.25" text-anchor="middle" style="font-size:5.69px;font-family:&quot;Arial&quot;" textLength="70.75" lengthAdjust="spacingAndGlyphs">PATH, GERMANTOWN, WI</text><text x="479.15" y="534.45" text-anchor="middle" style="font-size:5.69px;font-family:&quot;Arial&quot;" textLength="15.8" lengthAdjust="spacingAndGlyphs">53022</text></g><g clip-path="url(#cpMC4wMHw1NzYuMDB8MC4wMHw1NzYuMDA=)"><circle cx="231.34" cy="96.71" r="1.95" style="stroke-width:.71;stroke:none;fill:#f8766d"/><path style="stroke-width:.71;stroke:none;fill:#00bfc4" d="m307.7 93.67 2.63 4.56h-5.26z"/><text x="245.46" y="99.86" style="font-size:8.8px;font-family:&quot;Arial Narrow&quot;" textLength="48.12" lengthAdjust="spacingAndGlyphs">mprop address</text><text x="321.82" y="99.86" style="font-size:8.8px;font-family:&quot;Arial Narrow&quot;" textLength="39.69" lengthAdjust="spacingAndGlyphs">owner name</text><text x="32.63" y="65.12" style="font-size:12px;font-family:&quot;Arial Narrow&quot;" textLength="241.29" lengthAdjust="spacingAndGlyphs">includes 5 parcels, 9 units, and 3 distinct owner names.</text><text x="32.63" y="42.78" style="font-size:18px;font-weight:700;font-family:&quot;Arial Narrow&quot;" textLength="154.98" lengthAdjust="spacingAndGlyphs">ROGER J RINK Group</text></g></svg>